<?xml version="1.0" encoding="UTF-8" ?>
<!DOCTYPE svg PUBLIC "-//W3C//DTD SVG 1.1//EN" "http://www.w3.org/Graphics/SVG/1.1/DTD/svg11.dtd">
<svg width="221pt" height="275pt" viewBox="0 0 221 275" version="1.1" xmlns="http://www.w3.org/2000/svg">
<g id="#ffffffff">
<path fill="#FFFFFF" opacity="1.00" d=" M 0.00 0.00 L 221.00 0.00 L 221.00 275.00 L 0.00 275.00 L 0.00 0.00 M 83.84 37.00 C 84.06 41.34 83.88 46.29 87.51 49.38 C 87.35 52.56 87.44 55.74 87.75 58.90 C 83.83 61.54 80.24 64.59 77.38 68.38 C 73.03 69.90 69.27 72.70 66.06 75.96 C 63.45 79.43 63.83 83.98 64.23 88.05 C 62.74 93.24 61.43 98.56 61.42 103.99 C 61.41 109.29 66.44 113.57 65.02 119.02 C 63.57 125.64 63.32 132.68 65.42 139.20 C 60.33 141.36 58.01 146.78 56.82 151.82 C 55.38 157.79 56.54 164.67 60.66 169.35 C 62.59 171.42 67.31 172.92 68.59 169.43 C 66.10 169.64 63.16 169.76 61.39 167.62 C 57.30 162.83 57.37 155.77 58.90 149.98 C 59.77 145.87 62.74 142.84 65.83 140.23 C 67.63 145.36 65.36 150.84 67.30 155.90 C 68.43 159.03 68.02 162.49 69.10 165.61 C 71.13 168.85 75.44 168.66 78.75 169.31 C 77.63 165.72 73.05 167.11 70.80 164.94 C 69.67 162.08 70.33 158.78 69.07 155.91 C 68.14 153.76 67.98 151.44 68.24 149.14 C 68.90 142.54 65.42 136.45 65.42 129.90 C 65.00 123.82 66.97 117.96 67.70 111.99 C 67.28 112.38 66.44 113.17 66.02 113.56 C 65.01 109.36 62.30 105.40 63.16 100.93 C 63.70 97.58 64.07 94.20 64.84 90.89 C 65.38 91.61 66.46 93.05 67.00 93.77 C 66.59 88.76 64.52 83.48 66.57 78.59 C 69.27 74.44 73.91 72.34 78.03 69.95 C 80.85 66.51 84.19 63.58 87.51 60.63 C 88.24 56.90 88.49 53.04 88.31 49.24 C 89.52 50.30 90.47 51.55 91.17 52.99 C 93.36 58.15 99.66 59.79 104.79 59.76 C 105.08 61.81 105.93 63.85 105.45 65.95 C 102.30 68.84 98.47 64.99 94.78 65.84 C 96.02 62.02 92.41 59.44 90.58 56.56 C 91.78 59.64 92.89 62.75 94.28 65.76 C 91.62 66.32 88.96 66.91 86.33 67.63 C 88.43 69.13 90.91 67.93 93.17 67.63 C 96.23 66.92 99.32 67.93 102.10 69.17 C 103.82 68.53 105.00 67.21 105.86 65.64 C 106.95 65.34 108.06 65.05 109.16 64.77 C 111.20 66.57 114.06 65.91 116.54 66.09 C 118.20 68.05 119.87 71.29 122.95 70.56 C 121.61 69.03 120.22 67.55 118.86 66.04 C 116.32 65.14 113.75 64.27 111.01 64.25 C 111.64 63.65 112.89 62.44 113.52 61.84 C 113.02 61.37 112.04 60.45 111.54 59.99 C 115.20 60.30 119.22 59.38 122.43 61.65 C 128.60 64.79 126.93 73.68 132.41 77.49 C 136.00 79.91 138.84 83.69 139.91 87.88 C 139.84 93.23 139.59 98.78 137.78 103.86 C 135.49 107.17 134.04 110.92 132.29 114.52 C 132.34 117.18 132.06 119.83 131.96 122.49 C 129.84 120.13 127.13 118.40 124.29 117.04 C 126.22 120.30 130.30 122.06 130.98 126.06 C 129.64 129.14 127.59 131.85 125.58 134.51 C 125.21 131.38 125.24 128.23 125.17 125.09 C 121.46 122.83 122.90 118.20 122.44 114.61 C 124.35 113.15 126.44 111.80 127.84 109.81 C 129.86 104.08 129.45 97.94 129.71 91.98 C 132.58 92.07 135.46 92.16 138.33 91.92 C 135.66 89.52 131.75 90.70 128.65 89.36 C 125.79 87.48 124.13 84.41 122.06 81.79 C 122.43 79.15 122.83 76.53 123.14 73.89 C 122.69 73.73 121.80 73.40 121.35 73.24 C 120.89 76.40 120.85 79.67 119.72 82.69 C 118.48 85.93 111.64 84.36 113.22 88.94 C 112.30 90.11 111.11 90.59 109.66 90.38 C 110.77 91.98 112.87 93.45 111.99 95.66 C 109.81 96.65 107.08 96.56 105.60 98.77 C 105.03 98.87 103.90 99.06 103.33 99.15 C 102.92 99.77 102.10 101.00 101.69 101.61 C 99.69 100.83 97.78 99.83 95.86 98.86 C 96.63 101.56 99.13 102.79 101.61 103.55 C 102.82 101.74 104.57 100.51 106.58 99.72 C 108.75 98.51 111.14 97.79 113.39 96.76 C 113.37 95.32 113.37 93.88 113.39 92.43 C 112.83 92.21 111.70 91.75 111.14 91.52 C 112.74 90.18 114.79 90.03 116.78 89.83 C 116.11 89.38 114.78 88.46 114.12 88.01 C 115.97 87.25 117.84 86.54 119.71 85.81 C 120.38 87.69 121.06 89.57 121.86 91.40 C 122.05 93.36 122.30 95.31 122.60 97.25 C 121.67 103.49 120.48 109.71 120.74 116.06 C 120.32 119.29 121.43 123.48 118.39 125.71 C 119.55 125.61 121.89 125.40 123.06 125.30 C 123.58 128.85 122.55 132.71 124.48 135.96 C 124.33 137.95 124.03 140.05 125.07 141.88 C 127.02 145.58 126.36 150.19 129.30 153.44 C 125.10 155.04 122.31 159.05 117.86 160.14 C 114.35 161.54 110.78 159.80 107.36 159.00 C 108.60 160.88 110.67 162.25 112.95 162.37 C 118.59 162.79 123.85 159.84 128.00 156.28 C 128.19 160.83 128.41 165.39 128.56 169.95 C 128.08 169.83 127.13 169.59 126.65 169.47 C 126.09 171.76 125.66 174.30 123.80 175.97 C 121.15 176.37 119.51 173.58 118.96 171.36 C 118.76 171.38 118.36 171.43 118.16 171.45 C 119.00 173.50 119.39 176.20 121.50 177.35 C 124.86 178.05 126.66 174.54 127.92 172.07 C 128.89 174.17 130.51 176.35 129.78 178.80 C 128.98 181.78 128.40 184.80 128.61 187.90 C 127.89 191.27 127.98 194.69 128.90 198.01 C 130.69 205.33 128.13 212.99 130.67 220.19 C 130.77 225.16 136.06 226.90 138.32 230.71 C 140.85 234.64 145.15 237.36 149.90 237.34 C 150.67 238.38 151.43 239.43 152.17 240.50 C 150.12 241.60 148.19 243.03 145.90 243.59 C 143.42 243.34 140.94 243.04 138.48 242.67 C 135.74 241.65 133.15 239.76 130.07 240.10 C 126.73 240.41 123.34 241.03 120.09 239.80 C 119.99 235.90 119.82 231.91 120.94 228.13 C 122.40 223.55 121.96 218.64 121.62 213.92 C 121.49 209.96 118.40 206.93 117.89 203.08 C 116.89 198.15 116.49 193.09 117.35 188.10 C 117.76 189.16 118.59 191.29 119.00 192.36 C 121.68 188.87 118.38 185.40 117.21 182.09 C 116.01 179.38 116.74 176.24 115.61 173.53 C 113.26 169.17 110.46 165.03 106.92 161.55 C 106.96 160.10 107.07 158.66 107.25 157.23 C 108.22 156.45 109.32 155.87 110.39 155.24 C 115.06 155.72 116.86 150.36 117.23 146.59 C 115.57 148.60 114.20 150.83 112.91 153.09 C 110.45 153.54 108.06 154.30 105.69 155.09 C 105.28 157.37 105.17 159.69 104.70 161.96 C 103.36 164.01 100.73 164.70 98.81 166.08 C 100.09 160.00 99.76 153.05 95.81 147.98 C 94.29 145.73 91.35 145.61 89.02 144.78 C 81.80 147.37 78.84 155.90 78.88 162.99 C 78.60 169.18 81.05 176.69 87.66 178.53 C 87.34 180.77 86.51 183.00 86.98 185.28 C 87.31 184.46 87.96 182.80 88.29 181.98 C 90.15 181.48 92.01 180.96 93.85 180.39 C 94.59 181.49 95.42 182.52 96.35 183.48 C 95.81 181.58 95.08 179.75 94.32 177.93 C 92.43 178.89 90.45 179.64 88.38 180.11 C 88.60 179.33 89.03 177.75 89.24 176.97 L 88.99 178.55 C 94.19 176.63 97.33 171.86 98.78 166.73 C 100.19 166.72 101.59 166.68 103.00 166.63 C 101.95 171.16 101.64 176.04 99.17 180.11 C 94.84 186.84 94.31 195.26 89.98 202.00 C 87.55 206.17 87.47 211.09 87.18 215.76 C 87.62 215.80 88.49 215.86 88.93 215.89 C 88.86 210.86 89.30 205.67 92.16 201.35 C 92.32 204.85 93.06 208.45 92.13 211.91 C 91.27 215.31 89.20 218.36 88.95 221.92 C 88.52 226.96 88.39 232.13 89.72 237.06 C 90.61 241.87 94.27 245.38 96.38 249.64 C 98.85 253.00 101.94 255.97 103.48 259.95 C 102.49 260.23 101.48 260.47 100.47 260.66 C 98.94 259.97 98.56 258.10 97.64 256.85 C 95.03 257.08 92.44 257.80 89.80 257.49 C 88.36 257.11 87.16 257.86 86.19 258.86 C 89.75 259.45 93.37 259.48 96.90 258.62 C 97.39 259.34 97.76 260.11 98.01 260.95 C 94.54 264.46 88.21 263.19 85.40 259.45 C 84.39 257.53 84.45 255.24 83.74 253.21 C 82.32 249.25 80.55 245.36 79.82 241.20 C 80.02 237.83 81.06 234.49 80.51 231.10 C 80.07 225.59 78.00 220.41 77.02 215.01 C 75.83 208.71 78.23 202.52 80.63 196.81 C 82.29 199.48 82.45 203.16 85.15 205.08 C 83.60 198.04 79.89 190.78 82.44 183.54 C 82.89 181.21 84.98 178.68 83.03 176.50 C 80.23 182.23 80.06 188.66 79.45 194.88 C 77.82 200.20 75.54 205.41 74.93 211.00 C 75.40 217.81 78.21 224.22 78.90 231.01 C 79.48 235.98 76.73 240.97 79.38 245.66 C 78.26 249.42 81.67 252.29 81.88 255.90 C 82.08 258.02 82.30 260.50 84.32 261.74 C 88.42 265.28 95.82 266.63 99.86 262.43 C 101.28 262.30 102.70 262.14 104.11 261.97 C 104.21 260.36 104.27 258.76 104.25 257.16 C 101.37 252.56 97.28 248.88 95.01 243.89 C 90.23 238.44 90.47 230.71 91.06 223.93 C 91.11 220.00 92.87 216.44 94.18 212.83 C 95.38 207.94 93.96 202.87 94.61 197.92 C 95.53 193.08 97.40 188.48 98.88 183.82 C 102.15 179.17 103.87 173.62 104.06 167.95 C 103.83 166.10 104.94 164.69 106.04 163.35 C 108.70 166.58 111.02 170.15 112.84 173.90 C 112.91 178.23 114.16 182.23 116.10 186.06 C 115.26 191.17 114.56 196.31 114.63 201.51 C 115.99 206.51 119.72 210.67 120.11 215.98 C 121.63 224.14 116.65 231.73 117.95 239.92 C 122.79 244.38 129.68 239.80 134.87 243.20 C 138.17 245.35 142.32 245.40 146.12 245.10 C 149.06 243.95 153.05 243.34 154.05 239.82 C 153.36 238.03 152.10 236.46 150.56 235.34 C 148.53 234.74 146.22 235.01 144.44 233.69 C 140.20 230.95 137.91 226.12 133.54 223.49 C 129.98 214.02 133.40 203.56 130.34 193.99 C 129.68 191.91 130.21 189.75 130.67 187.69 C 129.12 184.38 131.42 181.25 131.66 177.96 C 131.86 175.12 129.46 172.84 129.77 170.00 C 129.99 165.33 129.70 160.64 128.82 156.04 C 129.76 155.64 130.70 155.23 131.64 154.83 C 131.66 154.28 131.70 153.19 131.72 152.64 C 130.68 151.51 129.09 150.62 128.98 148.92 C 128.25 144.03 125.86 139.46 126.24 134.41 C 133.26 130.79 134.52 121.84 134.42 114.72 C 135.79 111.74 137.24 108.80 138.90 105.96 C 141.50 101.41 141.26 96.02 142.00 90.99 C 142.66 87.16 140.27 83.81 138.47 80.66 C 136.83 77.92 132.96 77.33 131.86 74.21 C 130.46 70.38 128.91 66.58 126.98 62.98 C 124.80 60.29 121.38 58.73 118.04 58.09 C 114.51 58.81 110.94 59.06 107.35 58.86 C 109.37 52.15 111.41 44.80 109.16 37.88 C 108.28 35.12 108.71 31.73 106.53 29.53 C 103.31 25.69 97.59 25.61 93.05 26.38 C 87.93 27.02 83.39 31.69 83.84 37.00 M 106.90 80.96 C 106.70 82.35 106.24 83.69 105.90 85.05 C 102.24 86.04 99.18 88.20 95.96 90.04 C 91.21 92.26 87.64 87.65 84.34 85.04 C 83.64 87.83 86.52 89.28 88.32 90.75 C 91.41 93.25 96.33 92.89 99.17 90.18 C 101.01 88.34 103.66 88.05 105.89 86.92 C 107.39 85.23 108.08 83.03 109.03 81.02 C 108.06 78.52 107.04 76.03 105.64 73.74 C 105.13 76.25 106.42 78.56 106.90 80.96 M 83.01 75.84 C 81.28 78.93 80.08 82.35 79.62 85.86 C 83.14 83.52 83.58 78.75 84.73 74.99 C 84.30 75.20 83.44 75.63 83.01 75.84 M 109.26 83.40 C 108.63 85.00 111.43 86.50 112.70 85.65 C 113.29 84.03 110.55 82.57 109.26 83.40 M 103.20 92.16 C 102.45 94.32 99.39 95.10 99.65 97.64 C 100.16 97.14 101.16 96.14 101.67 95.64 C 102.17 95.45 103.16 95.08 103.66 94.90 C 104.87 92.56 106.56 90.54 108.34 88.61 C 105.92 88.56 104.17 90.08 103.20 92.16 M 72.62 91.74 C 72.43 92.90 72.29 94.06 72.18 95.23 C 73.84 93.66 75.61 92.20 77.14 90.50 C 75.61 90.80 74.04 91.07 72.62 91.74 M 77.69 92.52 C 78.68 94.56 80.47 96.56 79.81 99.01 C 79.25 102.34 79.43 105.71 79.53 109.06 C 79.80 113.85 75.41 117.51 75.97 122.32 C 76.40 121.49 77.27 119.82 77.70 118.99 C 80.02 122.95 80.05 127.66 79.92 132.10 C 79.87 135.54 77.64 138.60 77.93 142.08 C 78.23 145.34 78.81 148.96 81.38 151.26 C 81.03 147.82 79.71 144.52 79.77 141.04 C 80.23 137.67 81.87 134.48 81.59 131.01 C 81.75 126.23 80.58 121.57 79.00 117.10 C 80.56 113.75 81.16 110.10 82.05 106.54 C 79.89 102.37 83.24 97.44 80.63 93.29 C 80.15 91.93 78.76 92.42 77.69 92.52 M 83.86 94.89 C 83.90 95.58 83.99 96.97 84.04 97.66 C 86.77 99.47 89.95 99.23 92.95 98.30 C 92.35 97.73 91.74 97.15 91.14 96.58 C 88.89 97.82 85.81 97.74 84.86 94.90 C 85.67 94.71 87.29 94.33 88.10 94.14 C 86.63 92.74 85.16 93.94 83.86 94.89 M 113.55 97.36 C 114.40 100.07 117.14 97.97 119.01 97.85 C 118.51 102.35 119.72 107.97 116.08 111.39 C 117.78 114.41 117.68 117.95 117.63 121.30 C 113.88 122.11 110.11 122.81 106.42 123.87 C 106.60 123.21 106.97 121.91 107.15 121.26 C 104.23 120.01 102.72 117.10 100.37 115.15 C 100.72 118.37 103.09 122.47 106.73 122.03 C 106.04 122.55 105.35 123.08 104.66 123.60 C 99.03 121.60 92.31 123.75 87.46 119.64 C 86.50 114.84 87.44 109.46 84.56 105.07 C 85.04 104.52 85.53 103.98 86.03 103.44 C 87.99 103.41 89.95 103.39 91.91 103.49 C 91.12 102.54 90.31 101.61 89.48 100.69 C 87.90 102.18 85.93 101.76 84.07 101.27 L 84.71 102.79 C 84.04 102.90 82.71 103.12 82.04 103.23 C 82.82 106.28 84.86 108.88 85.35 112.01 C 85.43 114.75 85.37 117.50 85.85 120.21 C 84.66 122.66 83.18 124.95 81.98 127.39 C 83.56 125.91 84.79 123.95 86.96 123.26 C 86.77 122.71 86.39 121.61 86.20 121.05 C 91.30 125.29 98.04 124.31 104.12 125.57 C 108.41 126.18 112.61 124.49 116.74 123.60 C 120.01 120.83 119.29 115.99 119.16 112.10 C 119.72 107.24 120.54 102.41 121.08 97.55 C 120.13 96.83 119.18 96.09 118.25 95.33 C 116.69 96.03 115.12 96.70 113.55 97.36 M 112.41 100.23 C 112.88 102.84 113.12 105.52 111.92 108.00 C 108.87 107.99 105.64 107.77 103.18 109.92 C 102.18 109.28 101.18 108.63 100.19 107.98 C 100.92 109.86 101.32 111.86 101.02 113.87 C 101.81 114.24 102.61 114.61 103.40 114.98 C 103.05 113.71 102.68 112.44 102.30 111.17 C 106.77 110.31 111.43 109.99 115.38 107.50 C 115.01 105.61 114.67 103.70 114.08 101.86 C 114.05 100.66 113.49 100.12 112.41 100.23 M 64.42 100.24 C 64.98 102.97 64.59 106.14 66.44 108.44 C 67.69 105.58 67.56 101.81 64.42 100.24 M 94.63 107.20 C 96.99 107.94 99.70 107.82 100.66 105.09 C 98.71 105.34 96.75 105.54 94.79 105.46 C 94.76 106.04 94.71 106.62 94.63 107.20 M 96.12 110.71 C 93.50 109.56 91.02 108.15 88.62 106.59 C 88.15 110.27 93.32 113.07 96.12 110.71 M 112.50 117.01 C 113.71 116.58 114.89 115.09 114.47 113.77 C 112.93 112.92 110.60 116.33 112.50 117.01 M 89.73 125.26 C 88.47 128.26 86.29 131.57 88.09 134.82 C 88.73 132.10 89.48 129.40 90.70 126.88 C 92.56 127.44 94.42 127.97 96.29 128.50 C 95.70 130.31 95.04 132.23 93.50 133.46 C 91.26 135.46 87.90 136.16 86.40 138.94 C 91.10 137.30 97.34 135.07 97.59 129.17 C 104.41 131.16 111.36 129.21 117.94 127.33 C 117.83 126.91 117.61 126.06 117.49 125.64 C 111.21 127.31 104.62 129.03 98.12 127.42 C 95.34 126.61 92.56 125.85 89.73 125.26 M 82.55 130.40 C 82.92 136.60 82.40 142.78 82.19 148.98 C 83.73 146.22 84.71 143.13 84.40 139.94 C 84.21 136.75 84.88 132.99 82.55 130.40 M 106.90 134.31 C 103.87 135.19 100.42 135.62 98.24 138.15 C 105.41 136.93 112.29 134.09 119.65 134.13 C 119.33 133.78 118.69 133.09 118.37 132.74 C 114.50 132.50 110.67 133.54 106.90 134.31 M 102.42 142.92 C 105.70 141.86 108.55 139.82 111.80 138.68 C 114.50 137.49 117.63 136.94 119.71 134.68 C 113.48 135.91 106.79 138.08 102.42 142.92 M 95.65 145.03 C 97.33 145.93 99.25 146.34 101.15 145.91 C 106.94 144.68 112.97 145.19 118.69 143.59 C 119.91 142.91 120.84 141.84 121.87 140.92 C 113.36 143.58 104.34 143.25 95.65 145.03 M 75.90 141.45 C 75.21 144.49 75.77 147.51 77.45 150.12 C 77.30 147.19 77.21 144.14 75.90 141.45 M 70.79 147.11 C 70.12 148.08 70.06 150.01 71.25 150.60 C 73.14 150.45 72.73 146.18 70.79 147.11 M 89.03 188.96 C 89.05 189.53 89.07 190.66 89.09 191.23 C 90.62 191.08 92.25 190.95 93.26 189.63 C 91.85 189.39 90.45 189.16 89.03 188.96 M 123.41 226.14 C 122.63 229.14 122.64 232.60 125.48 234.52 C 125.13 233.02 124.69 231.55 124.26 230.08 C 124.32 228.70 124.46 227.23 123.41 226.14 M 82.39 242.73 C 84.81 242.30 85.69 239.63 86.43 237.63 C 86.98 236.66 87.51 235.69 88.04 234.71 C 84.40 235.54 83.68 239.77 82.39 242.73 Z" />
<path fill="#FFFFFF" opacity="1.00" d=" M 88.67 30.69 C 92.24 27.36 97.44 27.42 102.00 27.61 C 103.96 29.51 106.68 31.21 107.07 34.16 C 107.84 39.02 109.78 43.92 108.34 48.87 C 107.60 52.15 107.63 57.79 103.11 57.89 C 99.33 56.45 94.35 55.59 92.48 51.53 C 91.43 48.57 88.01 47.76 86.30 45.28 C 86.89 43.91 87.47 42.52 88.04 41.14 C 87.34 41.26 85.94 41.51 85.24 41.64 C 84.93 37.76 85.48 33.33 88.67 30.69 Z" />
<path fill="#FFFFFF" opacity="1.00" d=" M 106.09 59.82 C 108.15 60.27 110.22 60.64 112.31 60.98 C 110.37 62.13 108.37 63.18 106.34 64.15 C 106.26 62.71 106.17 61.26 106.09 59.82 Z" />
<path fill="#FFFFFF" opacity="1.00" d=" M 121.14 83.65 C 123.44 87.35 128.15 89.49 128.56 94.19 C 128.09 99.42 127.41 104.61 125.85 109.64 C 124.75 110.44 123.64 111.25 122.55 112.05 C 122.66 106.62 124.52 101.41 124.66 95.98 C 123.86 91.79 122.95 87.55 121.14 83.65 Z" />
<path fill="#FFFFFF" opacity="1.00" d=" M 80.81 167.93 C 78.88 159.49 81.98 149.12 90.60 145.72 C 93.78 147.53 96.55 150.21 97.42 153.89 C 98.94 159.91 98.35 166.77 94.85 172.04 C 92.91 174.76 89.42 177.18 85.97 175.76 C 83.01 174.28 81.48 171.02 80.81 167.93 Z" />
</g>
<g id="#434543ff">
<path fill="#333333" opacity="1.00" d=" M 83.84 37.00 C 83.39 31.69 87.93 27.02 93.05 26.38 C 97.59 25.61 103.31 25.69 106.53 29.53 C 108.71 31.73 108.28 35.12 109.16 37.88 C 111.41 44.80 109.37 52.15 107.35 58.86 C 110.94 59.06 114.51 58.81 118.04 58.09 C 121.38 58.73 124.80 60.29 126.98 62.98 C 128.91 66.58 130.46 70.38 131.86 74.21 C 132.96 77.33 136.83 77.92 138.47 80.66 C 140.27 83.81 142.66 87.16 142.00 90.99 C 141.26 96.02 141.50 101.41 138.90 105.96 C 137.24 108.80 135.79 111.74 134.42 114.72 C 134.52 121.84 133.26 130.79 126.24 134.41 C 125.86 139.46 128.25 144.03 128.98 148.92 C 129.09 150.62 130.68 151.51 131.72 152.64 C 131.70 153.19 131.66 154.28 131.64 154.83 C 130.70 155.23 129.76 155.64 128.82 156.04 C 129.70 160.64 129.99 165.33 129.77 170.00 C 129.46 172.84 131.86 175.12 131.66 177.96 C 131.42 181.25 129.12 184.38 130.67 187.69 C 130.21 189.75 129.68 191.91 130.34 193.99 C 133.40 203.56 129.98 214.02 133.54 223.49 C 137.91 226.12 140.20 230.95 144.44 233.69 C 146.22 235.01 148.53 234.74 150.56 235.34 C 152.10 236.46 153.36 238.03 154.05 239.82 C 153.05 243.34 149.06 243.95 146.12 245.10 C 142.32 245.40 138.17 245.35 134.87 243.20 C 129.68 239.80 122.79 244.38 117.95 239.92 C 116.65 231.73 121.63 224.14 120.11 215.98 C 119.72 210.67 115.99 206.51 114.63 201.51 C 114.56 196.31 115.26 191.17 116.10 186.06 C 114.16 182.23 112.91 178.23 112.84 173.90 C 111.02 170.15 108.70 166.58 106.04 163.35 C 104.94 164.69 103.83 166.10 104.06 167.95 C 103.87 173.62 102.15 179.17 98.88 183.82 C 97.40 188.48 95.53 193.08 94.61 197.92 C 93.96 202.87 95.38 207.94 94.18 212.83 C 92.87 216.44 91.11 220.00 91.06 223.93 C 90.47 230.71 90.23 238.44 95.01 243.89 C 97.28 248.88 101.37 252.56 104.25 257.16 C 104.27 258.76 104.21 260.36 104.11 261.97 C 102.70 262.14 101.28 262.30 99.86 262.43 C 95.82 266.63 88.42 265.28 84.32 261.74 C 82.30 260.50 82.08 258.02 81.88 255.90 C 81.67 252.29 78.26 249.42 79.38 245.66 C 76.73 240.97 79.48 235.98 78.90 231.01 C 78.21 224.22 75.40 217.81 74.93 211.00 C 75.54 205.41 77.82 200.20 79.45 194.88 C 80.06 188.66 80.23 182.23 83.03 176.50 C 84.98 178.68 82.89 181.21 82.44 183.54 C 79.89 190.78 83.60 198.04 85.15 205.08 C 82.45 203.16 82.29 199.48 80.63 196.81 C 78.23 202.52 75.83 208.71 77.02 215.01 C 78.00 220.41 80.07 225.59 80.51 231.10 C 81.06 234.49 80.02 237.83 79.82 241.20 C 80.55 245.36 82.32 249.25 83.74 253.21 C 84.45 255.24 84.39 257.53 85.40 259.45 C 88.21 263.19 94.54 264.46 98.01 260.95 C 97.76 260.11 97.39 259.34 96.90 258.62 C 93.37 259.48 89.75 259.45 86.19 258.86 C 87.16 257.86 88.36 257.11 89.80 257.49 C 92.44 257.80 95.03 257.08 97.64 256.85 C 98.56 258.10 98.94 259.97 100.47 260.66 C 101.48 260.47 102.49 260.23 103.48 259.95 C 101.94 255.97 98.85 253.00 96.38 249.64 C 94.27 245.38 90.61 241.87 89.72 237.06 C 88.39 232.13 88.52 226.96 88.95 221.92 C 89.20 218.36 91.27 215.31 92.13 211.91 C 93.06 208.45 92.32 204.85 92.16 201.35 C 89.30 205.67 88.86 210.86 88.93 215.89 C 88.49 215.86 87.62 215.80 87.18 215.76 C 87.47 211.09 87.55 206.17 89.98 202.00 C 94.31 195.26 94.84 186.84 99.17 180.11 C 101.64 176.04 101.95 171.16 103.00 166.63 C 101.59 166.68 100.19 166.72 98.78 166.73 C 97.33 171.86 94.19 176.63 88.99 178.55 L 89.24 176.97 C 89.03 177.75 88.60 179.33 88.38 180.11 C 90.45 179.64 92.43 178.89 94.32 177.93 C 95.08 179.75 95.81 181.58 96.35 183.48 C 95.42 182.52 94.59 181.49 93.85 180.39 C 92.01 180.96 90.15 181.48 88.29 181.98 C 87.96 182.80 87.31 184.46 86.98 185.28 C 86.51 183.00 87.34 180.77 87.66 178.53 C 81.05 176.69 78.60 169.18 78.88 162.99 C 78.84 155.90 81.80 147.37 89.02 144.78 C 91.35 145.61 94.29 145.73 95.81 147.98 C 99.76 153.05 100.09 160.00 98.81 166.08 C 100.73 164.70 103.36 164.01 104.70 161.96 C 105.17 159.69 105.28 157.37 105.69 155.09 C 108.06 154.30 110.45 153.54 112.91 153.09 C 114.20 150.83 115.57 148.60 117.23 146.59 C 116.86 150.36 115.06 155.72 110.39 155.24 C 109.32 155.87 108.22 156.45 107.25 157.23 C 107.07 158.66 106.96 160.10 106.92 161.55 C 110.46 165.03 113.26 169.17 115.61 173.53 C 116.74 176.24 116.01 179.38 117.21 182.09 C 118.38 185.40 121.68 188.87 119.00 192.36 C 118.59 191.29 117.76 189.16 117.35 188.10 C 116.49 193.09 116.89 198.15 117.89 203.08 C 118.40 206.93 121.49 209.96 121.62 213.92 C 121.96 218.64 122.40 223.55 120.94 228.13 C 119.82 231.91 119.99 235.90 120.09 239.80 C 123.34 241.03 126.73 240.41 130.07 240.10 C 133.15 239.76 135.74 241.65 138.48 242.67 C 140.94 243.04 143.42 243.34 145.90 243.59 C 148.19 243.03 150.12 241.60 152.17 240.50 C 151.43 239.43 150.67 238.38 149.90 237.34 C 145.15 237.36 140.85 234.64 138.32 230.71 C 136.06 226.90 130.77 225.16 130.67 220.19 C 128.13 212.99 130.69 205.33 128.90 198.01 C 127.98 194.69 127.89 191.27 128.61 187.90 C 128.40 184.80 128.98 181.78 129.78 178.80 C 130.51 176.35 128.89 174.17 127.92 172.07 C 126.66 174.54 124.86 178.05 121.50 177.35 C 119.39 176.20 119.00 173.50 118.16 171.45 C 118.36 171.43 118.76 171.38 118.96 171.36 C 119.51 173.58 121.15 176.37 123.80 175.97 C 125.66 174.30 126.09 171.76 126.65 169.47 C 127.13 169.59 128.08 169.83 128.56 169.95 C 128.41 165.39 128.19 160.83 128.00 156.28 C 123.85 159.84 118.59 162.79 112.95 162.37 C 110.67 162.25 108.60 160.88 107.36 159.00 C 110.78 159.80 114.35 161.54 117.86 160.14 C 122.31 159.05 125.10 155.04 129.30 153.44 C 126.36 150.19 127.02 145.58 125.07 141.88 C 124.03 140.05 124.33 137.95 124.48 135.96 C 122.55 132.71 123.58 128.85 123.06 125.30 C 121.89 125.40 119.55 125.61 118.39 125.71 C 121.43 123.48 120.32 119.29 120.74 116.06 C 120.48 109.71 121.67 103.49 122.60 97.25 C 122.30 95.31 122.05 93.36 121.86 91.40 C 121.06 89.57 120.38 87.69 119.71 85.81 C 117.84 86.54 115.97 87.25 114.12 88.01 C 114.78 88.46 116.11 89.38 116.78 89.83 C 114.79 90.03 112.74 90.18 111.14 91.52 C 111.70 91.75 112.83 92.21 113.39 92.43 C 113.37 93.88 113.37 95.32 113.39 96.76 C 111.14 97.79 108.75 98.51 106.58 99.72 C 104.57 100.51 102.82 101.74 101.61 103.55 C 99.13 102.79 96.63 101.56 95.86 98.86 C 97.78 99.83 99.69 100.83 101.69 101.61 C 102.10 101.00 102.92 99.77 103.33 99.15 C 103.90 99.06 105.03 98.87 105.60 98.77 C 107.08 96.56 109.81 96.65 111.99 95.66 C 112.87 93.45 110.77 91.98 109.66 90.38 C 111.11 90.59 112.30 90.11 113.22 88.94 C 111.64 84.36 118.48 85.93 119.72 82.69 C 120.85 79.67 120.89 76.40 121.35 73.24 C 121.80 73.40 122.69 73.73 123.14 73.89 C 122.83 76.53 122.43 79.15 122.06 81.79 C 124.13 84.41 125.79 87.48 128.65 89.36 C 131.75 90.70 135.66 89.52 138.33 91.92 C 135.46 92.16 132.58 92.07 129.71 91.98 C 129.45 97.94 129.86 104.08 127.84 109.81 C 126.44 111.80 124.35 113.15 122.44 114.61 C 122.90 118.20 121.46 122.83 125.17 125.09 C 125.24 128.23 125.21 131.38 125.58 134.51 C 127.59 131.85 129.64 129.14 130.98 126.06 C 130.30 122.06 126.22 120.30 124.29 117.04 C 127.13 118.40 129.84 120.13 131.96 122.49 C 132.06 119.83 132.34 117.18 132.29 114.52 C 134.04 110.92 135.49 107.17 137.78 103.86 C 139.59 98.78 139.84 93.23 139.91 87.88 C 138.84 83.69 136.00 79.91 132.41 77.49 C 126.93 73.68 128.60 64.79 122.43 61.65 C 119.22 59.38 115.20 60.30 111.54 59.99 C 112.04 60.45 113.02 61.37 113.52 61.84 C 112.89 62.44 111.64 63.65 111.01 64.25 C 113.75 64.27 116.32 65.14 118.86 66.04 C 120.22 67.55 121.61 69.03 122.95 70.56 C 119.87 71.29 118.20 68.05 116.54 66.09 C 114.06 65.91 111.20 66.57 109.16 64.77 C 108.06 65.05 106.95 65.34 105.86 65.64 C 105.00 67.21 103.82 68.53 102.10 69.17 C 99.32 67.93 96.23 66.92 93.17 67.63 C 90.91 67.93 88.43 69.13 86.33 67.63 C 88.96 66.91 91.62 66.32 94.28 65.76 C 92.89 62.75 91.78 59.64 90.58 56.56 C 92.41 59.44 96.02 62.02 94.78 65.84 C 98.47 64.99 102.30 68.84 105.45 65.95 C 105.93 63.85 105.08 61.81 104.79 59.76 C 99.66 59.79 93.36 58.15 91.17 52.99 C 90.47 51.55 89.52 50.30 88.31 49.24 C 88.49 53.04 88.24 56.90 87.51 60.63 C 84.19 63.58 80.85 66.51 78.03 69.95 C 73.91 72.34 69.27 74.44 66.57 78.59 C 64.52 83.48 66.59 88.76 67.00 93.77 C 66.46 93.05 65.38 91.61 64.84 90.89 C 64.07 94.20 63.70 97.58 63.16 100.93 C 62.30 105.40 65.01 109.36 66.02 113.56 C 66.44 113.17 67.28 112.38 67.70 111.99 C 66.97 117.96 65.00 123.82 65.42 129.90 C 65.42 136.45 68.90 142.54 68.24 149.14 C 67.98 151.44 68.14 153.76 69.07 155.91 C 70.33 158.78 69.67 162.08 70.80 164.94 C 73.05 167.11 77.63 165.72 78.75 169.31 C 75.44 168.66 71.13 168.85 69.10 165.61 C 68.02 162.49 68.43 159.03 67.30 155.90 C 65.36 150.84 67.63 145.36 65.83 140.23 C 62.74 142.84 59.77 145.87 58.90 149.98 C 57.37 155.77 57.30 162.83 61.39 167.62 C 63.16 169.76 66.10 169.64 68.59 169.43 C 67.31 172.92 62.59 171.42 60.66 169.35 C 56.54 164.67 55.38 157.79 56.82 151.82 C 58.01 146.78 60.33 141.36 65.42 139.20 C 63.32 132.68 63.57 125.64 65.02 119.02 C 66.44 113.57 61.41 109.29 61.42 103.99 C 61.43 98.56 62.74 93.24 64.23 88.05 C 63.83 83.98 63.45 79.43 66.06 75.96 C 69.27 72.70 73.03 69.90 77.38 68.38 C 80.24 64.59 83.83 61.54 87.75 58.90 C 87.44 55.74 87.35 52.56 87.51 49.38 C 83.88 46.29 84.06 41.34 83.84 37.00 M 88.67 30.69 C 85.48 33.33 84.93 37.76 85.24 41.64 C 85.94 41.51 87.34 41.26 88.04 41.14 C 87.47 42.52 86.89 43.91 86.30 45.28 C 88.01 47.76 91.43 48.57 92.48 51.53 C 94.35 55.59 99.33 56.45 103.11 57.89 C 107.63 57.79 107.60 52.15 108.34 48.87 C 109.78 43.92 107.84 39.02 107.07 34.16 C 106.68 31.21 103.96 29.51 102.00 27.61 C 97.44 27.42 92.24 27.36 88.67 30.69 M 106.09 59.82 C 106.17 61.26 106.26 62.71 106.34 64.15 C 108.37 63.18 110.37 62.13 112.31 60.98 C 110.22 60.64 108.15 60.27 106.09 59.82 M 121.14 83.65 C 122.95 87.55 123.86 91.79 124.66 95.98 C 124.52 101.41 122.66 106.62 122.55 112.05 C 123.64 111.25 124.75 110.44 125.85 109.64 C 127.41 104.61 128.09 99.42 128.56 94.19 C 128.15 89.49 123.44 87.35 121.14 83.65 M 80.81 167.93 C 81.48 171.02 83.01 174.28 85.97 175.76 C 89.42 177.18 92.91 174.76 94.85 172.04 C 98.35 166.77 98.94 159.91 97.42 153.89 C 96.55 150.21 93.78 147.53 90.60 145.72 C 81.98 149.12 78.88 159.49 80.81 167.93 Z" />
<path fill="#333333" opacity="1.00" d=" M 106.90 80.96 C 106.42 78.56 105.13 76.25 105.64 73.74 C 107.04 76.03 108.06 78.52 109.03 81.02 C 108.08 83.03 107.39 85.23 105.89 86.92 C 103.66 88.05 101.01 88.34 99.17 90.18 C 96.33 92.89 91.41 93.25 88.32 90.75 C 86.52 89.28 83.64 87.83 84.34 85.04 C 87.64 87.65 91.21 92.26 95.96 90.04 C 99.18 88.20 102.24 86.04 105.90 85.05 C 106.24 83.69 106.70 82.35 106.90 80.96 Z" />
<path fill="#333333" opacity="1.00" d=" M 83.01 75.84 C 83.44 75.63 84.30 75.20 84.73 74.99 C 83.58 78.75 83.14 83.52 79.62 85.86 C 80.08 82.35 81.28 78.93 83.01 75.84 Z" />
<path fill="#333333" opacity="1.00" d=" M 109.26 83.40 C 110.55 82.57 113.29 84.03 112.70 85.65 C 111.43 86.50 108.63 85.00 109.26 83.40 Z" />
<path fill="#333333" opacity="1.00" d=" M 103.20 92.16 C 104.17 90.08 105.92 88.56 108.34 88.61 C 106.56 90.54 104.87 92.56 103.66 94.90 C 103.16 95.08 102.17 95.45 101.67 95.64 C 101.16 96.14 100.16 97.14 99.65 97.64 C 99.39 95.10 102.45 94.32 103.20 92.16 Z" />
<path fill="#333333" opacity="1.00" d=" M 72.62 91.74 C 74.04 91.07 75.61 90.80 77.14 90.50 C 75.61 92.20 73.84 93.66 72.18 95.23 C 72.29 94.06 72.43 92.90 72.62 91.74 Z" />
<path fill="#333333" opacity="1.00" d=" M 77.69 92.52 C 78.76 92.42 80.15 91.93 80.63 93.29 C 83.24 97.44 79.89 102.37 82.05 106.54 C 81.16 110.10 80.56 113.75 79.00 117.10 C 80.58 121.57 81.75 126.23 81.59 131.01 C 81.87 134.48 80.23 137.67 79.77 141.04 C 79.71 144.52 81.03 147.82 81.38 151.26 C 78.81 148.96 78.23 145.34 77.93 142.08 C 77.64 138.60 79.87 135.54 79.92 132.10 C 80.05 127.66 80.02 122.95 77.70 118.99 C 77.27 119.82 76.40 121.49 75.97 122.32 C 75.41 117.51 79.80 113.85 79.53 109.06 C 79.43 105.71 79.25 102.34 79.81 99.01 C 80.47 96.56 78.68 94.56 77.69 92.52 Z" />
<path fill="#333333" opacity="1.00" d=" M 83.86 94.89 C 85.16 93.94 86.63 92.74 88.10 94.14 C 87.29 94.33 85.67 94.71 84.86 94.90 C 85.81 97.74 88.89 97.82 91.14 96.58 C 91.74 97.15 92.35 97.73 92.95 98.30 C 89.95 99.23 86.77 99.47 84.04 97.66 C 83.99 96.97 83.90 95.58 83.86 94.89 Z" />
<path fill="#333333" opacity="1.00" d=" M 113.55 97.36 C 115.12 96.70 116.69 96.03 118.25 95.33 C 119.18 96.09 120.13 96.83 121.08 97.55 C 120.54 102.41 119.72 107.24 119.16 112.10 C 119.29 115.99 120.01 120.83 116.74 123.60 C 112.61 124.49 108.41 126.18 104.12 125.57 C 98.04 124.31 91.30 125.29 86.20 121.05 C 86.39 121.61 86.77 122.71 86.96 123.26 C 84.79 123.95 83.56 125.91 81.98 127.39 C 83.18 124.95 84.66 122.66 85.85 120.21 C 85.37 117.50 85.43 114.75 85.35 112.01 C 84.86 108.88 82.82 106.28 82.04 103.23 C 82.71 103.12 84.04 102.90 84.71 102.79 L 84.07 101.27 C 85.93 101.76 87.90 102.18 89.48 100.69 C 90.31 101.61 91.12 102.54 91.91 103.49 C 89.95 103.39 87.99 103.41 86.03 103.44 C 85.53 103.98 85.04 104.52 84.56 105.07 C 87.44 109.46 86.50 114.84 87.46 119.64 C 92.31 123.75 99.03 121.60 104.66 123.60 C 105.35 123.08 106.04 122.55 106.73 122.03 C 103.09 122.47 100.72 118.37 100.37 115.15 C 102.72 117.10 104.23 120.01 107.15 121.26 C 106.97 121.91 106.60 123.21 106.42 123.87 C 110.11 122.81 113.88 122.11 117.63 121.30 C 117.68 117.95 117.78 114.41 116.08 111.39 C 119.72 107.97 118.51 102.35 119.01 97.85 C 117.14 97.97 114.40 100.07 113.55 97.36 Z" />
<path fill="#333333" opacity="1.00" d=" M 112.41 100.23 C 113.49 100.12 114.05 100.66 114.08 101.86 C 114.67 103.70 115.01 105.61 115.38 107.50 C 111.43 109.99 106.77 110.31 102.30 111.17 C 102.68 112.44 103.05 113.71 103.40 114.98 C 102.61 114.61 101.81 114.24 101.02 113.87 C 101.32 111.86 100.92 109.86 100.19 107.98 C 101.18 108.63 102.18 109.28 103.18 109.92 C 105.64 107.77 108.87 107.99 111.92 108.00 C 113.12 105.52 112.88 102.84 112.41 100.23 Z" />
<path fill="#333333" opacity="1.00" d=" M 64.42 100.24 C 67.56 101.81 67.69 105.58 66.44 108.44 C 64.59 106.14 64.98 102.97 64.42 100.24 Z" />
<path fill="#333333" opacity="1.00" d=" M 94.63 107.20 C 94.71 106.62 94.76 106.04 94.79 105.46 C 96.75 105.54 98.71 105.34 100.66 105.09 C 99.70 107.82 96.99 107.94 94.63 107.20 Z" />
<path fill="#333333" opacity="1.00" d=" M 96.12 110.71 C 93.32 113.07 88.15 110.27 88.62 106.59 C 91.02 108.15 93.50 109.56 96.12 110.71 Z" />
<path fill="#333333" opacity="1.00" d=" M 112.50 117.01 C 110.60 116.33 112.93 112.92 114.47 113.77 C 114.89 115.09 113.71 116.58 112.50 117.01 Z" />
<path fill="#333333" opacity="1.00" d=" M 89.73 125.26 C 92.56 125.85 95.34 126.61 98.12 127.42 C 104.62 129.03 111.21 127.31 117.49 125.64 C 117.61 126.06 117.83 126.91 117.94 127.33 C 111.36 129.21 104.41 131.16 97.59 129.17 C 97.34 135.07 91.10 137.30 86.40 138.94 C 87.90 136.16 91.26 135.46 93.50 133.46 C 95.04 132.23 95.70 130.31 96.29 128.50 C 94.42 127.97 92.56 127.44 90.70 126.88 C 89.48 129.40 88.73 132.10 88.09 134.82 C 86.29 131.57 88.47 128.26 89.73 125.26 Z" />
<path fill="#333333" opacity="1.00" d=" M 82.55 130.40 C 84.88 132.99 84.21 136.75 84.40 139.94 C 84.71 143.13 83.73 146.22 82.19 148.98 C 82.40 142.78 82.92 136.60 82.55 130.40 Z" />
<path fill="#333333" opacity="1.00" d=" M 106.90 134.31 C 110.67 133.54 114.50 132.50 118.37 132.74 C 118.69 133.09 119.33 133.78 119.65 134.13 C 112.29 134.09 105.41 136.93 98.24 138.15 C 100.42 135.62 103.87 135.19 106.90 134.31 Z" />
<path fill="#333333" opacity="1.00" d=" M 102.42 142.92 C 106.79 138.08 113.48 135.91 119.71 134.68 C 117.63 136.94 114.50 137.49 111.80 138.68 C 108.55 139.82 105.70 141.86 102.42 142.92 Z" />
<path fill="#333333" opacity="1.00" d=" M 95.65 145.03 C 104.34 143.25 113.36 143.58 121.87 140.92 C 120.84 141.84 119.91 142.91 118.69 143.59 C 112.97 145.19 106.94 144.68 101.15 145.91 C 99.25 146.34 97.33 145.93 95.65 145.03 Z" />
<path fill="#333333" opacity="1.00" d=" M 75.90 141.45 C 77.21 144.14 77.30 147.19 77.45 150.12 C 75.77 147.51 75.21 144.49 75.90 141.45 Z" />
<path fill="#333333" opacity="1.00" d=" M 70.79 147.11 C 72.73 146.18 73.14 150.45 71.25 150.60 C 70.06 150.01 70.12 148.08 70.79 147.11 Z" />
<path fill="#333333" opacity="1.00" d=" M 89.03 188.96 C 90.45 189.16 91.85 189.39 93.26 189.63 C 92.25 190.95 90.62 191.08 89.09 191.23 C 89.07 190.66 89.05 189.53 89.03 188.96 Z" />
<path fill="#333333" opacity="1.00" d=" M 123.41 226.14 C 124.46 227.23 124.32 228.70 124.26 230.08 C 124.69 231.55 125.13 233.02 125.48 234.52 C 122.64 232.60 122.63 229.14 123.41 226.14 Z" />
<path fill="#333333" opacity="1.00" d=" M 82.39 242.73 C 83.68 239.77 84.40 235.54 88.04 234.71 C 87.51 235.69 86.98 236.66 86.43 237.63 C 85.69 239.63 84.81 242.30 82.39 242.73 Z" />
</g>
</svg>
