<?xml version="1.0" encoding="UTF-8" ?>
<!DOCTYPE svg PUBLIC "-//W3C//DTD SVG 1.1//EN" "http://www.w3.org/Graphics/SVG/1.1/DTD/svg11.dtd">
<svg width="263pt" height="275pt" viewBox="0 0 263 275" version="1.1" xmlns="http://www.w3.org/2000/svg">
<g id="#ffffffff">
<path fill="#FFFFFF" opacity="1.00" d=" M 0.00 0.00 L 263.00 0.00 L 263.00 275.00 L 0.00 275.00 L 0.00 0.00 M 126.73 1.76 C 117.05 4.19 109.32 13.19 108.77 23.23 C 111.32 21.53 111.80 18.37 113.15 15.85 C 116.30 9.33 122.64 3.91 130.06 3.42 C 134.58 4.45 133.70 9.83 132.84 13.18 C 133.42 13.34 134.56 13.66 135.13 13.81 C 136.02 11.38 136.88 8.62 135.76 6.10 C 134.75 2.36 130.21 0.71 126.73 1.76 M 80.37 26.11 C 79.01 30.04 79.49 35.51 83.59 37.60 C 87.02 39.28 90.50 36.83 93.88 36.20 C 94.13 36.81 94.63 38.03 94.88 38.64 L 96.20 38.61 C 96.40 33.84 95.44 29.04 96.69 24.34 C 98.84 23.43 100.95 22.37 103.20 21.71 C 104.43 22.32 105.34 23.70 106.78 23.79 C 108.44 22.23 106.19 20.30 105.01 19.30 C 101.99 19.94 99.18 21.24 96.23 22.12 C 95.25 22.95 94.27 23.78 93.30 24.62 C 93.57 27.42 93.71 30.23 93.81 33.04 C 91.22 34.59 88.27 36.59 85.11 35.60 C 82.44 34.75 82.47 31.27 82.40 28.96 C 84.73 19.42 92.68 10.27 102.95 9.53 C 106.11 9.64 106.64 13.06 107.25 15.45 C 106.08 17.84 105.10 20.34 108.30 21.76 C 108.89 18.92 110.36 15.98 109.46 13.05 C 108.63 9.01 103.99 6.41 100.09 7.47 C 90.82 9.59 83.35 17.22 80.37 26.11 M 125.56 26.94 C 125.70 28.07 126.00 30.34 126.15 31.47 C 129.20 23.65 135.75 15.48 144.93 15.82 C 146.60 17.20 147.39 19.27 148.41 21.11 C 147.02 25.08 145.54 29.05 143.55 32.76 C 140.71 37.14 136.11 40.47 130.95 41.46 C 127.12 41.23 125.59 37.26 124.87 34.08 C 124.76 35.91 123.99 37.77 124.38 39.60 C 125.40 42.25 128.51 42.83 130.80 43.93 C 141.10 41.76 149.50 32.54 150.52 22.06 C 150.72 18.27 148.06 15.53 145.18 13.52 C 136.55 13.29 129.56 19.88 125.56 26.94 M 122.02 17.00 C 121.67 17.67 120.98 18.99 120.63 19.65 C 121.12 20.51 121.63 21.36 122.17 22.20 C 123.11 20.78 123.88 19.25 124.90 17.88 C 127.63 16.86 130.72 16.78 133.15 15.00 C 129.47 13.14 125.30 15.13 122.02 17.00 M 96.59 39.69 C 95.47 42.36 96.59 45.50 95.02 48.00 C 94.89 46.49 94.62 43.46 94.48 41.95 C 93.55 50.43 89.94 58.44 89.63 67.01 C 89.42 71.30 91.86 75.47 90.46 79.73 C 89.45 83.03 89.39 86.47 89.62 89.89 C 86.28 91.67 82.87 93.33 79.33 94.67 C 73.42 97.34 71.07 107.16 77.02 110.97 C 81.65 114.62 85.33 119.37 90.32 122.58 C 96.65 126.90 102.75 131.51 108.79 136.22 C 106.64 137.40 104.51 138.65 102.74 140.36 C 105.86 140.65 108.45 138.77 111.11 137.50 C 115.06 140.61 118.93 143.81 122.62 147.22 C 109.13 153.40 96.36 161.14 83.02 167.63 C 80.83 167.07 79.12 165.22 77.48 163.73 C 77.08 161.51 77.21 159.24 77.17 157.00 C 82.60 153.86 88.39 151.23 93.51 147.60 C 94.02 140.14 93.74 132.63 93.73 125.16 L 91.75 125.19 C 91.67 132.28 91.94 139.39 91.44 146.46 C 86.46 149.97 80.75 152.30 75.74 155.74 C 73.62 158.34 75.74 162.07 75.63 165.11 C 77.98 166.88 80.36 168.61 82.77 170.31 C 96.32 162.98 110.05 155.97 123.52 148.49 C 128.58 152.42 133.67 156.32 138.53 160.49 C 139.09 165.47 140.12 171.46 145.07 173.98 C 142.73 167.93 139.47 161.42 141.27 154.82 C 140.45 150.07 134.57 145.79 137.79 140.89 C 141.16 133.17 148.50 128.00 156.12 124.97 C 160.53 123.24 165.44 123.77 169.84 125.23 C 170.55 127.01 170.85 128.92 171.51 130.72 C 180.21 132.12 189.03 133.78 196.81 138.18 C 191.63 143.35 190.27 150.75 189.63 157.74 C 184.63 157.87 179.14 158.20 175.25 154.44 C 178.11 150.22 183.39 149.25 186.87 145.81 C 181.49 145.61 177.03 149.20 173.73 153.06 C 173.73 153.58 173.72 154.62 173.71 155.14 C 172.48 155.60 171.25 156.06 170.02 156.53 L 169.25 154.92 C 169.86 154.60 171.09 153.96 171.70 153.64 C 171.26 153.22 170.82 152.82 170.37 152.42 C 172.54 149.11 171.10 145.16 171.38 141.50 C 170.92 141.54 170.00 141.61 169.54 141.64 C 169.15 145.20 170.39 149.05 168.13 152.18 C 166.12 155.47 165.80 159.66 167.91 162.99 C 163.73 159.30 157.70 161.77 154.02 164.98 C 149.86 168.91 146.65 174.07 145.51 179.72 C 146.36 179.22 147.21 178.73 148.06 178.23 C 151.23 182.50 154.83 186.47 157.10 191.34 C 154.71 195.00 151.82 198.37 150.18 202.48 C 145.76 209.93 148.05 218.93 146.52 227.07 C 146.02 232.68 142.33 237.39 141.62 242.91 C 141.68 247.23 146.47 248.60 149.46 250.57 C 153.77 254.01 157.03 258.86 162.26 261.06 C 167.77 262.95 173.84 260.93 177.95 256.98 C 178.35 255.75 178.75 254.52 179.17 253.30 C 175.85 256.86 171.05 259.51 166.05 258.35 C 162.55 258.13 157.20 256.45 157.28 252.26 C 158.52 248.98 157.21 245.45 156.66 242.15 C 155.81 239.47 156.01 235.95 153.22 234.42 C 153.91 239.97 154.84 245.55 156.79 250.82 C 153.23 250.85 150.20 248.24 147.10 246.69 C 145.47 245.64 142.74 244.36 143.91 241.96 C 146.07 234.73 149.22 227.66 149.68 220.02 C 149.96 215.98 149.42 211.77 150.96 207.92 C 153.08 202.48 155.42 196.74 160.19 193.07 C 158.55 189.43 157.03 185.64 154.35 182.60 C 152.30 180.02 149.75 177.43 149.17 174.09 C 151.56 169.00 156.33 164.66 162.11 164.16 C 165.63 164.69 168.00 167.66 169.53 170.63 C 170.58 173.83 169.83 177.39 171.21 180.53 C 172.45 184.10 175.40 187.68 173.80 191.64 C 171.43 195.66 168.49 199.44 167.39 204.08 C 165.51 211.81 160.75 218.43 158.82 226.13 C 160.18 232.25 162.05 238.37 165.23 243.81 C 168.18 248.47 173.13 251.15 178.19 252.94 C 176.24 248.72 170.64 248.49 168.44 244.46 C 166.56 240.70 165.32 236.60 162.91 233.11 C 160.75 228.49 162.79 223.55 164.12 219.00 C 164.82 215.89 168.08 214.53 170.30 212.62 C 170.34 210.91 170.38 209.19 170.42 207.48 C 169.24 209.92 168.05 212.38 166.34 214.50 C 167.11 211.73 168.04 209.03 168.89 206.29 C 169.47 206.73 170.63 207.62 171.22 208.07 C 170.96 206.84 170.69 205.61 170.42 204.39 C 171.33 202.11 172.06 199.75 172.93 197.45 C 175.62 198.53 175.50 196.25 175.46 194.29 C 175.76 193.99 176.34 193.41 176.64 193.11 C 176.82 190.87 177.03 188.63 177.18 186.39 C 177.84 186.40 179.14 186.41 179.80 186.42 C 179.50 195.66 177.40 204.99 179.43 214.19 C 179.95 213.96 180.98 213.49 181.50 213.26 C 181.12 210.86 180.71 208.47 180.39 206.06 C 184.99 203.80 189.30 200.93 194.08 199.04 C 196.14 200.10 198.07 201.49 199.63 203.21 C 200.26 205.55 200.20 208.01 200.39 210.41 C 188.45 217.53 176.10 223.96 163.98 230.78 C 164.03 231.05 164.12 231.58 164.17 231.85 C 165.70 232.98 167.17 231.09 168.60 230.59 C 179.74 223.97 191.41 218.25 202.44 211.44 C 202.27 207.92 201.91 204.40 201.25 200.93 C 199.06 199.41 196.90 197.85 194.81 196.21 C 189.96 198.54 185.32 201.27 180.54 203.74 C 181.88 197.85 180.67 191.90 180.57 185.97 C 187.63 183.94 193.61 179.74 199.63 175.71 C 203.17 172.97 202.75 167.98 202.45 164.01 C 204.70 164.31 206.97 164.53 209.24 164.62 C 206.36 168.12 201.69 171.01 201.69 176.04 C 201.01 182.86 197.32 189.21 191.76 193.22 C 193.77 192.96 196.15 193.26 197.64 191.58 C 200.09 189.10 200.87 185.55 202.51 182.56 C 204.35 179.66 202.82 175.69 205.18 173.04 C 207.46 170.40 209.90 167.91 212.03 165.14 C 213.90 165.92 215.78 166.66 217.70 167.33 C 218.06 166.84 218.78 165.84 219.15 165.34 C 216.43 164.98 214.02 163.68 211.78 162.18 C 205.59 163.50 199.53 161.21 193.66 159.54 C 193.70 158.10 193.18 156.94 192.11 156.07 C 192.39 152.17 192.75 148.10 194.62 144.60 C 195.95 142.10 198.42 140.56 200.81 139.22 C 205.46 141.60 210.34 143.54 214.94 146.01 C 218.51 148.39 221.20 151.81 224.48 154.53 C 226.64 156.21 227.33 159.32 226.36 161.82 C 223.83 166.34 220.94 170.61 217.67 174.61 C 214.96 179.99 210.49 184.07 207.21 189.06 C 209.92 190.67 211.93 193.08 213.36 195.85 C 215.21 199.35 218.65 201.41 221.97 203.31 C 221.56 205.03 221.34 206.82 220.70 208.48 C 219.21 209.01 217.65 209.33 216.13 209.74 C 213.08 207.75 209.91 205.92 206.50 204.62 C 208.81 208.78 213.84 210.39 217.89 212.43 C 219.77 211.58 221.81 210.94 223.43 209.61 C 224.14 207.62 224.58 205.51 224.69 203.40 C 223.17 200.13 218.96 199.80 216.87 197.05 C 214.52 194.19 212.94 190.27 208.98 189.27 C 214.85 184.24 218.21 177.20 223.24 171.46 C 225.08 167.23 229.47 164.00 229.29 159.04 C 228.91 153.96 223.85 151.58 220.78 148.19 C 216.44 143.41 210.10 141.62 204.58 138.67 C 204.22 138.17 203.50 137.17 203.14 136.67 C 201.14 136.72 199.19 137.20 197.31 137.85 C 196.82 135.96 195.71 134.09 193.68 133.59 C 186.88 131.44 179.76 130.51 172.75 129.34 C 172.96 126.58 171.48 124.37 169.15 123.05 C 168.62 123.27 167.57 123.72 167.05 123.94 C 165.75 123.66 164.46 123.40 163.17 123.16 C 161.73 119.49 159.57 116.14 156.52 113.60 C 152.94 110.50 152.27 105.57 150.21 101.55 C 147.61 99.38 144.91 97.27 142.70 94.66 C 142.26 92.07 141.26 89.64 138.52 88.80 C 139.26 90.69 140.11 92.55 140.89 94.43 C 138.21 91.47 136.29 87.66 132.42 86.03 C 131.19 78.75 129.87 69.37 135.99 63.86 C 139.24 69.85 136.19 76.67 137.96 82.99 C 139.60 78.47 139.39 73.62 139.56 68.89 C 139.19 65.33 137.31 62.11 135.48 59.10 C 134.56 60.91 133.68 62.74 132.77 64.55 C 131.99 61.14 130.29 57.74 130.85 54.16 C 131.34 50.57 132.05 47.01 132.47 43.41 C 131.35 44.43 129.04 44.94 129.50 46.92 C 129.38 53.61 127.34 60.83 131.35 66.87 C 128.93 71.77 128.32 77.34 129.59 82.66 C 125.66 85.49 123.16 90.07 118.52 91.90 C 119.72 87.95 122.30 84.37 122.56 80.17 C 120.91 74.24 115.29 70.04 109.28 69.22 C 109.17 69.42 108.94 69.82 108.83 70.02 C 109.31 71.91 111.82 71.75 113.20 72.72 C 116.55 73.64 118.30 76.90 119.58 79.86 C 119.60 83.13 117.98 86.07 116.99 89.10 L 118.62 90.48 C 116.05 90.99 112.71 91.54 110.61 89.78 C 109.08 85.61 109.78 80.96 108.03 76.83 C 106.95 74.39 107.22 71.69 107.46 69.11 C 108.69 64.13 108.66 58.83 107.41 53.85 C 107.10 53.94 106.48 54.11 106.17 54.20 C 105.42 55.73 106.13 57.42 106.11 59.03 C 106.40 64.63 103.78 70.30 105.06 75.80 C 108.09 80.37 107.21 85.96 108.30 91.07 C 109.07 94.38 107.00 97.43 105.93 100.43 C 104.84 103.06 105.39 105.91 105.83 108.62 C 109.50 108.08 113.12 107.18 116.84 107.03 C 116.54 109.46 116.31 111.89 116.35 114.34 C 118.70 112.33 118.03 108.78 119.80 106.33 C 115.76 104.48 112.36 101.45 108.08 100.08 C 109.37 97.81 109.01 93.95 111.58 92.86 C 116.67 92.69 122.92 92.35 126.16 97.12 C 123.84 99.10 120.14 100.40 119.46 103.69 C 124.59 100.97 128.83 96.37 134.87 95.59 C 135.53 94.91 136.18 94.24 136.85 93.57 C 139.07 96.09 142.33 97.26 144.95 99.29 C 142.74 100.48 140.27 99.75 137.94 99.43 C 138.56 100.24 139.18 101.05 139.81 101.85 C 140.62 101.90 142.23 101.99 143.03 102.03 L 143.92 101.92 C 144.41 101.65 145.40 101.10 145.89 100.83 L 146.97 100.90 L 147.97 100.98 C 148.36 101.10 149.14 101.34 149.53 101.46 C 149.88 104.56 149.84 107.84 151.59 110.58 C 152.62 113.01 154.90 114.46 156.58 116.39 C 158.22 118.54 159.48 120.95 160.80 123.31 C 158.06 123.25 154.99 122.82 152.90 125.01 C 148.04 126.58 143.90 129.82 140.38 133.45 C 137.30 136.56 136.10 140.89 133.85 144.55 C 135.33 147.10 136.90 149.66 137.21 152.66 C 138.10 153.99 138.94 155.40 138.88 157.08 C 135.44 156.36 134.07 152.45 130.97 151.03 C 127.33 149.18 125.07 145.66 121.88 143.26 C 116.44 140.33 112.89 135.01 107.36 132.20 C 100.89 126.72 93.25 122.83 86.81 117.30 C 83.39 114.02 80.06 110.62 76.29 107.72 C 75.98 105.12 75.02 102.13 76.77 99.83 C 79.43 95.15 85.28 94.80 89.61 92.45 C 92.60 97.74 88.65 103.64 90.59 109.12 C 90.99 112.20 93.49 114.41 96.33 115.34 C 96.31 115.90 96.28 117.02 96.26 117.59 C 98.15 120.39 99.87 123.44 102.72 125.41 C 108.24 129.30 115.41 129.14 121.15 132.58 C 124.97 136.61 128.65 140.76 132.26 144.98 C 132.80 138.38 126.46 134.69 122.38 130.63 C 119.39 127.78 115.13 127.94 111.41 126.86 C 103.83 125.00 99.53 117.84 94.83 112.22 C 91.69 108.78 91.79 103.86 92.01 99.51 C 93.20 101.30 94.43 103.20 96.72 103.62 C 95.47 101.19 93.52 99.03 93.23 96.21 C 92.46 92.15 90.61 88.18 91.16 83.96 C 92.12 80.65 93.84 77.55 94.34 74.12 C 93.87 71.98 92.51 70.13 92.18 67.97 C 92.45 61.19 92.77 54.08 96.77 48.30 C 97.73 52.79 102.93 54.30 106.86 52.95 C 116.84 50.16 123.16 40.58 125.68 31.01 C 125.21 28.97 124.95 26.85 124.06 24.94 C 122.93 23.05 120.84 22.09 119.25 20.66 C 108.43 20.66 99.66 29.88 96.59 39.69 M 142.43 41.56 C 146.20 48.61 144.22 56.73 142.53 64.04 C 143.61 68.68 145.04 73.26 145.69 77.99 C 146.30 83.71 141.44 89.07 144.09 94.68 C 145.94 89.23 146.94 83.54 148.17 77.92 C 147.03 72.85 145.82 67.77 145.13 62.61 L 145.43 62.91 C 147.17 54.50 146.78 45.69 143.90 37.58 C 142.16 38.39 141.21 39.82 142.43 41.56 M 99.79 80.24 C 102.88 84.52 101.23 89.85 101.98 94.70 C 104.45 90.58 104.89 85.15 102.53 80.89 C 101.89 77.32 103.88 73.67 103.07 70.01 C 100.97 73.03 100.77 76.80 99.79 80.24 M 100.56 110.22 C 102.92 105.39 102.84 99.69 102.22 94.46 C 100.55 99.51 99.85 104.93 100.56 110.22 M 133.27 100.45 C 134.57 103.41 138.00 104.21 140.28 106.22 C 140.42 111.26 143.65 115.02 146.72 118.65 C 147.07 118.74 147.78 118.92 148.13 119.02 C 148.06 116.83 146.90 114.88 145.47 113.30 C 142.88 110.57 143.65 105.87 140.37 103.60 C 138.13 102.29 135.69 101.37 133.27 100.45 M 125.91 113.04 C 126.99 114.35 128.71 114.72 130.22 115.29 C 129.62 114.30 129.00 113.32 128.37 112.36 C 128.75 109.09 130.35 106.05 130.38 102.74 C 128.27 105.83 126.04 109.18 125.91 113.04 M 111.84 116.19 C 114.34 118.50 115.86 121.60 117.92 124.27 C 118.00 121.83 117.76 119.40 117.27 117.02 C 113.28 114.96 109.99 111.67 105.64 110.30 C 107.50 112.47 109.76 114.24 111.84 116.19 M 129.40 115.32 C 130.35 116.97 131.58 118.49 133.17 119.57 C 133.93 119.13 134.68 118.66 135.41 118.16 C 133.44 117.14 131.45 116.16 129.40 115.32 M 126.42 121.31 C 128.43 122.36 130.60 123.99 132.94 122.82 C 134.22 123.90 135.50 124.98 136.77 126.08 C 136.77 126.53 136.78 127.44 136.78 127.90 C 138.43 128.21 140.08 128.55 141.73 128.87 C 140.13 125.82 137.64 123.29 134.95 121.19 C 132.11 121.19 129.26 121.22 126.42 121.31 M 148.65 133.08 C 153.95 131.37 158.70 128.19 164.28 127.28 C 158.46 126.12 153.03 129.64 148.65 133.08 M 154.86 136.44 C 158.74 133.83 163.07 132.06 167.17 129.85 C 162.06 129.35 157.99 132.88 154.86 136.44 M 152.39 144.30 C 155.58 142.57 158.50 140.34 161.90 138.99 C 164.23 138.06 166.60 137.12 168.50 135.41 C 168.47 134.94 168.41 134.00 168.38 133.54 C 162.92 136.85 155.24 137.80 152.39 144.30 M 144.93 142.00 C 144.13 144.12 143.40 146.28 143.07 148.53 C 144.43 147.19 145.55 145.63 146.63 144.06 C 146.20 143.54 145.35 142.52 144.93 142.00 M 161.60 147.03 C 161.36 148.92 161.09 150.80 160.87 152.70 C 162.84 152.22 163.41 151.06 162.57 149.22 C 164.08 148.25 166.29 147.60 166.51 145.52 C 164.82 145.86 163.22 146.47 161.60 147.03 M 201.88 153.00 C 203.13 155.06 204.12 157.97 206.98 158.04 C 205.99 155.74 204.17 153.98 201.88 153.00 M 211.09 154.45 C 213.00 156.90 214.80 159.61 217.51 161.27 C 219.65 162.26 222.07 161.58 224.32 161.44 C 224.38 160.53 224.44 159.62 224.50 158.72 C 222.67 158.92 220.84 159.19 219.00 159.15 C 216.15 157.87 214.14 155.35 211.83 153.33 C 211.65 153.61 211.27 154.17 211.09 154.45 M 206.80 180.12 C 206.72 180.44 206.56 181.07 206.48 181.39 C 206.93 181.38 207.83 181.37 208.28 181.37 C 210.05 179.55 211.83 177.65 212.92 175.32 C 210.11 175.42 208.92 178.66 206.80 180.12 M 165.29 189.72 C 168.26 189.04 168.85 185.96 168.33 183.38 C 167.10 185.38 166.08 187.51 165.29 189.72 Z" />
<path fill="#FFFFFF" opacity="1.00" d=" M 100.87 35.90 C 104.19 28.78 111.13 23.28 119.12 22.77 C 120.73 24.59 121.98 26.68 123.07 28.85 C 120.69 35.09 118.90 42.14 113.51 46.55 C 110.92 49.25 107.24 50.31 103.82 51.53 C 101.44 50.51 98.69 49.09 98.23 46.26 C 97.34 42.55 99.38 39.14 100.87 35.90 Z" />
<path fill="#FFFFFF" opacity="1.00" d=" M 123.16 91.84 C 125.40 89.36 127.64 86.86 130.21 84.70 C 130.34 85.47 130.61 87.02 130.75 87.79 C 131.12 87.63 131.85 87.31 132.22 87.15 C 133.48 88.77 134.84 90.31 136.07 91.96 C 133.54 93.66 130.78 94.97 128.06 96.34 C 126.69 94.57 125.03 93.07 123.16 91.84 Z" />
<path fill="#FFFFFF" opacity="1.00" d=" M 107.20 102.03 C 109.14 103.08 111.11 104.07 113.10 105.04 C 111.21 105.56 109.33 106.10 107.45 106.63 C 107.36 105.10 107.27 103.56 107.20 102.03 Z" />
<path fill="#FFFFFF" opacity="1.00" d=" M 169.55 160.18 C 171.15 158.94 173.06 158.10 175.01 157.57 C 179.13 159.29 183.55 160.00 188.02 159.81 C 190.49 160.30 194.62 162.74 192.57 156.06 C 190.55 161.22 195.96 162.51 199.33 163.62 C 201.41 166.89 201.18 171.56 198.50 174.44 C 192.10 180.09 183.52 181.76 175.56 184.05 C 173.54 178.31 173.09 171.86 169.25 166.90 C 169.53 164.67 169.46 162.42 169.55 160.18 Z" />
</g>
<g id="#494b49ff">
<path fill="#333333" opacity="1.00" d=" M 126.73 1.76 C 130.21 0.71 134.75 2.36 135.76 6.10 C 136.88 8.62 136.02 11.38 135.13 13.81 C 134.56 13.66 133.42 13.34 132.84 13.18 C 133.70 9.83 134.58 4.45 130.06 3.42 C 122.64 3.91 116.30 9.33 113.15 15.85 C 111.80 18.37 111.32 21.53 108.77 23.23 C 109.32 13.19 117.05 4.19 126.73 1.76 Z" />
<path fill="#333333" opacity="1.00" d=" M 80.37 26.11 C 83.35 17.22 90.82 9.59 100.09 7.47 C 103.99 6.41 108.63 9.01 109.46 13.05 C 110.36 15.98 108.89 18.92 108.30 21.76 C 105.10 20.34 106.08 17.84 107.25 15.45 C 106.64 13.06 106.11 9.64 102.95 9.53 C 92.68 10.27 84.73 19.42 82.40 28.96 C 82.47 31.27 82.44 34.75 85.11 35.60 C 88.27 36.59 91.22 34.59 93.81 33.04 C 93.71 30.23 93.57 27.42 93.30 24.62 C 94.27 23.78 95.25 22.95 96.23 22.12 C 99.18 21.24 101.99 19.94 105.01 19.30 C 106.19 20.30 108.44 22.23 106.78 23.79 C 105.34 23.70 104.43 22.32 103.20 21.71 C 100.95 22.37 98.84 23.43 96.69 24.34 C 95.44 29.04 96.40 33.84 96.20 38.61 L 94.88 38.64 C 94.63 38.03 94.13 36.81 93.88 36.20 C 90.50 36.83 87.02 39.28 83.59 37.60 C 79.49 35.51 79.01 30.04 80.37 26.11 Z" />
<path fill="#333333" opacity="1.00" d=" M 125.56 26.94 C 129.56 19.88 136.55 13.29 145.18 13.52 C 148.06 15.53 150.72 18.27 150.52 22.06 C 149.50 32.54 141.10 41.76 130.80 43.93 C 128.51 42.83 125.40 42.25 124.38 39.60 C 123.99 37.77 124.76 35.91 124.87 34.08 C 125.59 37.26 127.12 41.23 130.95 41.46 C 136.11 40.47 140.71 37.14 143.55 32.76 C 145.54 29.05 147.02 25.08 148.41 21.11 C 147.39 19.27 146.60 17.20 144.93 15.82 C 135.75 15.48 129.20 23.65 126.15 31.47 C 126.00 30.34 125.70 28.07 125.56 26.94 Z" />
<path fill="#333333" opacity="1.00" d=" M 122.02 17.00 C 125.30 15.13 129.47 13.14 133.15 15.00 C 130.72 16.78 127.63 16.86 124.90 17.88 C 123.88 19.25 123.11 20.78 122.17 22.20 C 121.63 21.36 121.12 20.51 120.63 19.65 C 120.98 18.99 121.67 17.67 122.02 17.00 Z" />
<path fill="#333333" opacity="1.00" d=" M 96.59 39.69 C 99.66 29.88 108.43 20.66 119.25 20.66 C 120.84 22.09 122.93 23.05 124.06 24.94 C 124.95 26.85 125.21 28.97 125.68 31.01 C 123.16 40.58 116.84 50.16 106.86 52.95 C 102.93 54.30 97.73 52.79 96.77 48.30 C 92.77 54.08 92.45 61.19 92.18 67.97 C 92.51 70.13 93.87 71.98 94.34 74.12 C 93.84 77.55 92.12 80.65 91.16 83.96 C 90.61 88.18 92.46 92.15 93.23 96.21 C 93.52 99.03 95.47 101.19 96.72 103.62 C 94.43 103.20 93.20 101.30 92.01 99.51 C 91.79 103.86 91.69 108.78 94.83 112.22 C 99.53 117.84 103.83 125.00 111.41 126.86 C 115.13 127.94 119.39 127.78 122.38 130.63 C 126.46 134.69 132.80 138.38 132.26 144.98 C 128.65 140.76 124.97 136.61 121.15 132.58 C 115.41 129.14 108.24 129.30 102.72 125.41 C 99.87 123.44 98.15 120.39 96.26 117.59 C 96.28 117.02 96.31 115.90 96.33 115.34 C 93.49 114.41 90.99 112.20 90.59 109.12 C 88.65 103.64 92.60 97.74 89.61 92.45 C 85.28 94.80 79.43 95.15 76.77 99.83 C 75.02 102.13 75.98 105.12 76.29 107.72 C 80.06 110.62 83.39 114.02 86.81 117.30 C 93.25 122.83 100.89 126.72 107.36 132.20 C 112.89 135.01 116.44 140.33 121.88 143.26 C 125.07 145.66 127.33 149.18 130.97 151.03 C 134.07 152.45 135.44 156.36 138.88 157.08 C 138.94 155.40 138.10 153.99 137.21 152.66 C 136.90 149.66 135.33 147.10 133.85 144.55 C 136.10 140.89 137.30 136.56 140.38 133.45 C 143.90 129.82 148.04 126.58 152.90 125.01 C 154.99 122.82 158.06 123.25 160.80 123.31 C 159.48 120.95 158.22 118.54 156.58 116.39 C 154.90 114.46 152.62 113.01 151.59 110.58 C 149.84 107.84 149.88 104.56 149.53 101.46 C 149.14 101.34 148.36 101.10 147.97 100.98 L 146.97 100.90 L 145.89 100.83 C 145.40 101.10 144.41 101.65 143.92 101.92 L 143.03 102.03 C 142.23 101.99 140.62 101.90 139.81 101.85 C 139.18 101.05 138.56 100.24 137.94 99.43 C 140.27 99.75 142.74 100.48 144.95 99.29 C 142.33 97.26 139.07 96.09 136.85 93.57 C 136.18 94.24 135.53 94.91 134.87 95.59 C 128.83 96.37 124.59 100.97 119.46 103.69 C 120.14 100.40 123.84 99.10 126.16 97.12 C 122.92 92.35 116.67 92.69 111.58 92.86 C 109.01 93.95 109.37 97.81 108.08 100.08 C 112.36 101.45 115.76 104.48 119.80 106.33 C 118.03 108.78 118.70 112.33 116.35 114.34 C 116.31 111.89 116.54 109.46 116.84 107.03 C 113.12 107.18 109.50 108.08 105.83 108.62 C 105.39 105.91 104.84 103.06 105.93 100.43 C 107.00 97.43 109.07 94.38 108.30 91.07 C 107.21 85.96 108.09 80.37 105.06 75.80 C 103.78 70.30 106.40 64.63 106.11 59.03 C 106.13 57.42 105.42 55.73 106.17 54.20 C 106.48 54.11 107.10 53.94 107.41 53.85 C 108.66 58.83 108.69 64.13 107.46 69.11 C 107.22 71.69 106.95 74.39 108.03 76.83 C 109.78 80.96 109.08 85.61 110.61 89.78 C 112.71 91.54 116.05 90.99 118.62 90.48 L 116.99 89.10 C 117.98 86.07 119.60 83.13 119.58 79.86 C 118.30 76.90 116.55 73.64 113.20 72.72 C 111.82 71.75 109.31 71.91 108.83 70.02 C 108.94 69.82 109.17 69.42 109.28 69.22 C 115.29 70.04 120.91 74.24 122.56 80.17 C 122.30 84.37 119.72 87.95 118.52 91.90 C 123.16 90.07 125.66 85.49 129.59 82.66 C 128.32 77.34 128.93 71.77 131.35 66.87 C 127.34 60.83 129.38 53.61 129.50 46.92 C 129.04 44.94 131.35 44.43 132.47 43.41 C 132.05 47.01 131.34 50.57 130.85 54.16 C 130.29 57.74 131.99 61.14 132.77 64.55 C 133.68 62.74 134.56 60.91 135.48 59.10 C 137.31 62.11 139.19 65.33 139.56 68.89 C 139.39 73.62 139.60 78.47 137.96 82.99 C 136.19 76.67 139.24 69.85 135.99 63.86 C 129.87 69.37 131.19 78.75 132.42 86.03 C 136.29 87.66 138.21 91.47 140.89 94.43 C 140.11 92.55 139.26 90.69 138.52 88.80 C 141.26 89.64 142.26 92.07 142.70 94.66 C 144.91 97.27 147.61 99.38 150.21 101.55 C 152.27 105.57 152.94 110.50 156.52 113.60 C 159.57 116.14 161.73 119.49 163.17 123.16 C 164.46 123.40 165.75 123.66 167.05 123.94 C 167.57 123.72 168.62 123.27 169.15 123.05 C 171.48 124.37 172.96 126.58 172.75 129.34 C 179.76 130.51 186.88 131.44 193.68 133.59 C 195.71 134.09 196.82 135.96 197.31 137.85 C 199.19 137.20 201.14 136.72 203.14 136.67 C 203.50 137.17 204.22 138.17 204.58 138.67 C 210.10 141.62 216.44 143.41 220.78 148.19 C 223.85 151.58 228.91 153.96 229.29 159.04 C 229.47 164.00 225.08 167.23 223.24 171.46 C 218.21 177.20 214.85 184.24 208.98 189.27 C 212.94 190.27 214.52 194.19 216.87 197.05 C 218.96 199.80 223.17 200.13 224.69 203.40 C 224.58 205.51 224.14 207.62 223.43 209.61 C 221.81 210.94 219.77 211.58 217.89 212.43 C 213.84 210.39 208.81 208.78 206.50 204.62 C 209.91 205.92 213.08 207.75 216.13 209.74 C 217.65 209.33 219.21 209.01 220.70 208.48 C 221.34 206.82 221.56 205.03 221.97 203.31 C 218.65 201.41 215.21 199.35 213.36 195.85 C 211.93 193.08 209.92 190.67 207.21 189.06 C 210.49 184.07 214.96 179.99 217.67 174.61 C 220.94 170.61 223.83 166.34 226.36 161.82 C 227.33 159.32 226.64 156.21 224.48 154.53 C 221.20 151.81 218.51 148.39 214.94 146.01 C 210.34 143.54 205.46 141.60 200.81 139.22 C 198.42 140.56 195.95 142.10 194.62 144.60 C 192.75 148.10 192.39 152.17 192.11 156.07 C 193.18 156.94 193.70 158.10 193.66 159.54 C 199.53 161.21 205.59 163.50 211.78 162.18 C 214.02 163.68 216.43 164.98 219.15 165.34 C 218.78 165.84 218.06 166.84 217.70 167.33 C 215.78 166.66 213.90 165.92 212.03 165.14 C 209.90 167.91 207.46 170.40 205.18 173.04 C 202.82 175.69 204.35 179.66 202.51 182.56 C 200.87 185.55 200.09 189.10 197.64 191.58 C 196.15 193.26 193.77 192.96 191.76 193.22 C 197.32 189.21 201.01 182.86 201.69 176.04 C 201.69 171.01 206.36 168.12 209.24 164.62 C 206.97 164.53 204.70 164.31 202.45 164.01 C 202.75 167.98 203.17 172.97 199.63 175.71 C 193.61 179.74 187.63 183.94 180.57 185.97 C 180.67 191.90 181.88 197.85 180.54 203.74 C 185.32 201.27 189.96 198.54 194.81 196.21 C 196.90 197.85 199.06 199.41 201.25 200.93 C 201.91 204.40 202.27 207.92 202.44 211.44 C 191.41 218.25 179.74 223.97 168.60 230.59 C 167.17 231.09 165.70 232.98 164.17 231.85 C 164.12 231.58 164.03 231.05 163.98 230.78 C 176.10 223.96 188.45 217.53 200.39 210.41 C 200.20 208.01 200.26 205.55 199.63 203.21 C 198.07 201.49 196.14 200.10 194.08 199.04 C 189.30 200.93 184.99 203.80 180.39 206.06 C 180.71 208.47 181.12 210.86 181.50 213.26 C 180.98 213.49 179.95 213.96 179.43 214.19 C 177.40 204.99 179.50 195.66 179.80 186.42 C 179.14 186.41 177.84 186.40 177.18 186.39 C 177.03 188.63 176.82 190.87 176.64 193.11 C 176.34 193.41 175.76 193.99 175.46 194.29 C 175.50 196.25 175.62 198.53 172.93 197.45 C 172.06 199.75 171.33 202.11 170.42 204.39 C 170.69 205.61 170.96 206.84 171.22 208.07 C 170.63 207.62 169.47 206.73 168.89 206.29 C 168.04 209.03 167.11 211.73 166.34 214.50 C 168.05 212.38 169.24 209.92 170.42 207.48 C 170.38 209.19 170.34 210.91 170.30 212.62 C 168.08 214.53 164.82 215.89 164.12 219.00 C 162.79 223.55 160.75 228.49 162.91 233.11 C 165.32 236.60 166.56 240.70 168.44 244.46 C 170.64 248.49 176.24 248.72 178.19 252.94 C 173.13 251.15 168.18 248.47 165.23 243.81 C 162.05 238.37 160.18 232.25 158.82 226.13 C 160.75 218.43 165.51 211.81 167.39 204.08 C 168.49 199.44 171.43 195.66 173.80 191.64 C 175.40 187.68 172.45 184.10 171.21 180.53 C 169.83 177.39 170.58 173.83 169.53 170.63 C 168.00 167.66 165.63 164.69 162.11 164.16 C 156.33 164.66 151.56 169.00 149.17 174.09 C 149.75 177.43 152.30 180.02 154.35 182.60 C 157.03 185.64 158.55 189.43 160.19 193.07 C 155.42 196.74 153.08 202.48 150.96 207.92 C 149.42 211.77 149.96 215.98 149.68 220.02 C 149.22 227.66 146.07 234.73 143.91 241.96 C 142.74 244.36 145.47 245.64 147.10 246.69 C 150.20 248.24 153.23 250.85 156.79 250.82 C 154.84 245.55 153.91 239.97 153.22 234.42 C 156.01 235.95 155.81 239.47 156.66 242.15 C 157.21 245.45 158.52 248.98 157.28 252.26 C 157.20 256.45 162.55 258.13 166.05 258.35 C 171.05 259.51 175.85 256.86 179.17 253.30 C 178.75 254.52 178.35 255.75 177.95 256.98 C 173.84 260.93 167.77 262.95 162.26 261.06 C 157.03 258.86 153.77 254.01 149.46 250.57 C 146.47 248.60 141.68 247.23 141.62 242.91 C 142.33 237.39 146.02 232.68 146.52 227.07 C 148.05 218.93 145.76 209.93 150.18 202.48 C 151.82 198.37 154.71 195.00 157.10 191.34 C 154.83 186.47 151.23 182.50 148.06 178.23 C 147.21 178.73 146.36 179.22 145.51 179.72 C 146.65 174.07 149.86 168.91 154.02 164.98 C 157.70 161.77 163.73 159.30 167.91 162.99 C 165.80 159.66 166.12 155.47 168.13 152.18 C 170.39 149.05 169.15 145.20 169.54 141.64 C 170.00 141.61 170.92 141.54 171.38 141.50 C 171.10 145.16 172.54 149.11 170.37 152.42 C 170.82 152.82 171.26 153.22 171.70 153.64 C 171.09 153.96 169.86 154.60 169.25 154.92 L 170.02 156.53 C 171.25 156.06 172.48 155.60 173.71 155.14 C 173.72 154.62 173.73 153.58 173.73 153.06 C 177.03 149.20 181.49 145.61 186.87 145.81 C 183.39 149.25 178.11 150.22 175.25 154.44 C 179.14 158.20 184.63 157.87 189.63 157.74 C 190.27 150.75 191.63 143.35 196.81 138.18 C 189.03 133.78 180.21 132.12 171.51 130.72 C 170.85 128.92 170.55 127.01 169.84 125.23 C 165.44 123.77 160.53 123.24 156.12 124.97 C 148.50 128.00 141.16 133.17 137.79 140.89 C 134.57 145.79 140.45 150.07 141.27 154.82 C 139.47 161.42 142.73 167.93 145.07 173.98 C 140.12 171.46 139.09 165.47 138.53 160.49 C 133.67 156.32 128.58 152.42 123.52 148.49 C 110.05 155.97 96.32 162.98 82.77 170.31 C 80.36 168.61 77.98 166.88 75.63 165.11 C 75.74 162.07 73.62 158.34 75.74 155.74 C 80.75 152.30 86.46 149.97 91.44 146.46 C 91.94 139.39 91.67 132.28 91.75 125.19 L 93.73 125.16 C 93.74 132.63 94.02 140.14 93.51 147.60 C 88.39 151.23 82.60 153.86 77.17 157.00 C 77.21 159.24 77.08 161.51 77.48 163.73 C 79.12 165.22 80.83 167.07 83.02 167.63 C 96.36 161.14 109.13 153.40 122.62 147.22 C 118.93 143.81 115.06 140.61 111.11 137.50 C 108.45 138.77 105.86 140.65 102.74 140.36 C 104.51 138.65 106.64 137.40 108.79 136.22 C 102.75 131.51 96.65 126.90 90.32 122.58 C 85.33 119.37 81.65 114.62 77.02 110.97 C 71.07 107.16 73.42 97.34 79.33 94.67 C 82.87 93.33 86.28 91.67 89.62 89.89 C 89.39 86.47 89.45 83.03 90.46 79.73 C 91.86 75.47 89.42 71.30 89.63 67.01 C 89.94 58.44 93.55 50.43 94.48 41.95 C 94.62 43.46 94.89 46.49 95.02 48.00 C 96.59 45.50 95.47 42.36 96.59 39.69 M 100.87 35.90 C 99.38 39.14 97.34 42.55 98.23 46.26 C 98.69 49.09 101.44 50.51 103.82 51.53 C 107.24 50.31 110.92 49.25 113.51 46.55 C 118.90 42.14 120.69 35.09 123.07 28.85 C 121.98 26.68 120.73 24.59 119.12 22.77 C 111.13 23.28 104.19 28.78 100.87 35.90 M 123.16 91.84 C 125.03 93.07 126.69 94.57 128.06 96.34 C 130.78 94.97 133.54 93.66 136.07 91.96 C 134.84 90.31 133.48 88.77 132.22 87.15 C 131.85 87.31 131.12 87.63 130.75 87.79 C 130.61 87.02 130.34 85.47 130.21 84.70 C 127.64 86.86 125.40 89.36 123.16 91.84 M 107.20 102.03 C 107.27 103.56 107.36 105.10 107.45 106.63 C 109.33 106.10 111.21 105.56 113.10 105.04 C 111.11 104.07 109.14 103.08 107.20 102.03 M 169.55 160.18 C 169.46 162.42 169.53 164.67 169.25 166.90 C 173.09 171.86 173.54 178.31 175.56 184.05 C 183.52 181.76 192.10 180.09 198.50 174.44 C 201.18 171.56 201.41 166.89 199.33 163.62 C 195.96 162.51 190.55 161.22 192.57 156.06 C 194.62 162.74 190.49 160.30 188.02 159.81 C 183.55 160.00 179.13 159.29 175.01 157.57 C 173.06 158.10 171.15 158.94 169.55 160.18 Z" />
<path fill="#333333" opacity="1.00" d=" M 142.43 41.56 C 141.21 39.82 142.16 38.39 143.90 37.58 C 146.78 45.69 147.17 54.50 145.43 62.91 L 145.13 62.61 C 145.82 67.77 147.03 72.85 148.17 77.92 C 146.94 83.54 145.94 89.23 144.09 94.68 C 141.44 89.07 146.30 83.71 145.69 77.99 C 145.04 73.26 143.61 68.68 142.53 64.04 C 144.22 56.73 146.20 48.61 142.43 41.56 Z" />
<path fill="#333333" opacity="1.00" d=" M 99.79 80.24 C 100.77 76.80 100.97 73.03 103.07 70.01 C 103.88 73.67 101.89 77.32 102.53 80.89 C 104.89 85.15 104.45 90.58 101.98 94.70 C 101.23 89.85 102.88 84.52 99.79 80.24 Z" />
<path fill="#333333" opacity="1.00" d=" M 100.56 110.22 C 99.85 104.93 100.55 99.51 102.22 94.46 C 102.84 99.69 102.92 105.39 100.56 110.22 Z" />
<path fill="#333333" opacity="1.00" d=" M 133.27 100.45 C 135.69 101.37 138.13 102.29 140.37 103.60 C 143.65 105.87 142.88 110.57 145.47 113.30 C 146.90 114.88 148.06 116.83 148.13 119.02 C 147.78 118.92 147.07 118.74 146.72 118.65 C 143.65 115.02 140.42 111.26 140.28 106.22 C 138.00 104.21 134.57 103.41 133.27 100.45 Z" />
<path fill="#333333" opacity="1.00" d=" M 125.91 113.04 C 126.04 109.18 128.27 105.83 130.38 102.74 C 130.35 106.05 128.75 109.09 128.37 112.36 C 129.00 113.32 129.62 114.30 130.22 115.29 C 128.71 114.72 126.99 114.35 125.91 113.04 Z" />
<path fill="#333333" opacity="1.00" d=" M 111.84 116.19 C 109.76 114.24 107.50 112.47 105.64 110.30 C 109.99 111.67 113.28 114.96 117.27 117.02 C 117.76 119.40 118.00 121.83 117.92 124.27 C 115.86 121.60 114.34 118.50 111.84 116.19 Z" />
<path fill="#333333" opacity="1.00" d=" M 129.40 115.32 C 131.45 116.16 133.44 117.14 135.41 118.16 C 134.68 118.66 133.93 119.13 133.17 119.57 C 131.58 118.49 130.35 116.97 129.40 115.32 Z" />
<path fill="#333333" opacity="1.00" d=" M 126.42 121.31 C 129.26 121.22 132.11 121.19 134.95 121.19 C 137.64 123.29 140.13 125.82 141.73 128.87 C 140.08 128.55 138.43 128.21 136.78 127.90 C 136.78 127.44 136.77 126.53 136.77 126.08 C 135.50 124.98 134.22 123.90 132.94 122.82 C 130.60 123.99 128.43 122.36 126.42 121.31 Z" />
<path fill="#333333" opacity="1.00" d=" M 148.65 133.08 C 153.03 129.64 158.46 126.12 164.28 127.28 C 158.70 128.19 153.95 131.37 148.65 133.08 Z" />
<path fill="#333333" opacity="1.00" d=" M 154.86 136.44 C 157.99 132.88 162.06 129.35 167.17 129.85 C 163.07 132.06 158.74 133.83 154.86 136.44 Z" />
<path fill="#333333" opacity="1.00" d=" M 152.39 144.30 C 155.24 137.80 162.92 136.85 168.38 133.54 C 168.41 134.00 168.47 134.94 168.50 135.41 C 166.60 137.12 164.23 138.06 161.90 138.99 C 158.50 140.34 155.58 142.57 152.39 144.30 Z" />
<path fill="#333333" opacity="1.00" d=" M 144.93 142.00 C 145.35 142.52 146.20 143.54 146.63 144.06 C 145.55 145.63 144.43 147.19 143.07 148.53 C 143.40 146.28 144.13 144.12 144.93 142.00 Z" />
<path fill="#333333" opacity="1.00" d=" M 161.60 147.03 C 163.22 146.47 164.82 145.86 166.51 145.52 C 166.29 147.60 164.08 148.25 162.57 149.22 C 163.41 151.06 162.84 152.22 160.87 152.70 C 161.09 150.80 161.36 148.92 161.60 147.03 Z" />
<path fill="#333333" opacity="1.00" d=" M 201.88 153.00 C 204.17 153.98 205.99 155.74 206.98 158.04 C 204.12 157.97 203.13 155.06 201.88 153.00 Z" />
<path fill="#333333" opacity="1.00" d=" M 211.09 154.45 C 211.27 154.17 211.65 153.61 211.83 153.33 C 214.14 155.35 216.15 157.87 219.00 159.15 C 220.84 159.19 222.67 158.92 224.50 158.72 C 224.44 159.62 224.38 160.53 224.32 161.44 C 222.07 161.58 219.65 162.26 217.51 161.27 C 214.80 159.61 213.00 156.90 211.09 154.45 Z" />
<path fill="#333333" opacity="1.00" d=" M 206.80 180.12 C 208.92 178.66 210.11 175.42 212.92 175.32 C 211.83 177.65 210.05 179.55 208.28 181.37 C 207.83 181.37 206.93 181.38 206.48 181.39 C 206.56 181.07 206.72 180.44 206.80 180.12 Z" />
<path fill="#333333" opacity="1.00" d=" M 165.29 189.72 C 166.08 187.51 167.10 185.38 168.33 183.38 C 168.85 185.96 168.26 189.04 165.29 189.72 Z" />
</g>
</svg>
