<?xml version="1.0" encoding="UTF-8" ?>
<!DOCTYPE svg PUBLIC "-//W3C//DTD SVG 1.1//EN" "http://www.w3.org/Graphics/SVG/1.1/DTD/svg11.dtd">
<svg width="233pt" height="175pt" viewBox="0 0 233 175" version="1.1" xmlns="http://www.w3.org/2000/svg">
<g id="#ffffffff">
<path fill="#FFFFFF" opacity="1.00" d=" M 0.00 0.00 L 233.00 0.00 L 233.00 175.00 L 0.00 175.00 L 0.00 0.00 M 160.41 41.47 C 157.21 43.35 156.67 47.62 153.79 49.79 C 151.69 50.67 149.44 51.47 147.14 51.37 C 142.52 50.94 137.82 51.30 133.29 52.23 C 129.60 54.65 126.18 57.59 121.91 58.98 C 113.69 61.86 108.73 69.55 101.18 73.52 C 97.49 73.10 93.98 74.81 91.33 77.25 C 85.87 81.32 85.03 88.70 84.60 94.99 C 84.85 98.05 82.50 100.31 81.47 102.98 C 81.58 105.49 80.81 108.65 83.50 110.11 C 83.43 111.71 83.36 113.30 83.31 114.90 C 79.33 113.60 75.14 112.75 70.94 113.16 C 66.48 113.49 62.41 115.58 58.02 116.24 C 55.12 114.30 53.24 110.98 49.92 109.69 C 46.62 108.64 43.31 110.79 41.51 113.46 C 39.46 116.35 36.15 118.05 34.16 121.01 C 32.20 123.44 31.12 126.81 28.14 128.25 C 25.87 129.50 23.74 130.99 21.60 132.46 C 21.58 133.74 21.54 135.03 21.67 136.32 C 24.56 137.43 27.68 138.49 30.81 137.90 C 37.16 136.91 43.50 135.64 49.90 135.14 C 53.89 135.81 57.90 136.30 61.94 136.53 C 72.28 138.32 82.77 136.55 93.18 136.86 C 97.09 135.58 97.92 130.84 99.66 127.60 C 101.36 123.44 105.17 119.85 104.43 115.01 C 103.83 113.01 106.30 112.44 107.35 111.26 C 107.99 122.20 115.73 132.86 126.74 135.17 C 137.26 137.44 148.50 138.20 158.96 135.23 C 165.24 134.49 171.01 131.52 176.06 127.83 C 181.26 122.16 183.86 114.60 184.74 107.05 C 185.23 96.42 180.92 85.97 173.96 78.06 C 170.36 75.86 166.84 73.23 162.61 72.45 C 159.99 71.79 157.01 71.22 154.70 73.00 C 158.25 73.98 162.21 73.65 165.48 75.57 C 167.79 76.94 170.45 77.76 172.50 79.54 C 178.31 87.09 182.60 96.29 181.93 106.03 C 181.04 113.65 179.82 122.25 173.55 127.45 C 169.56 129.48 165.50 131.69 161.05 132.49 C 155.36 133.17 149.78 135.17 143.99 134.46 C 135.44 133.91 125.61 135.43 118.60 129.32 C 112.59 122.85 108.77 113.92 109.72 105.01 C 108.84 99.34 114.02 95.56 115.24 90.45 C 110.45 94.10 107.95 100.22 107.76 106.14 C 107.45 107.73 107.76 110.28 105.79 110.87 C 98.47 112.80 91.37 109.37 84.42 107.54 C 83.74 104.92 83.67 102.22 85.19 99.88 C 87.27 96.62 86.68 92.71 86.40 89.07 C 88.51 84.87 90.34 80.21 94.68 77.79 C 97.89 74.80 103.12 76.48 105.67 72.60 C 105.85 77.76 108.95 82.18 111.92 86.18 C 113.56 88.65 116.86 88.15 119.43 88.19 C 123.38 87.50 126.42 84.47 130.08 83.00 C 129.30 85.95 127.71 88.88 128.30 92.03 C 128.80 96.06 128.69 100.13 128.99 104.17 C 129.36 107.73 131.98 110.34 133.43 113.44 C 135.10 116.78 132.74 120.83 135.06 123.95 C 137.36 128.29 141.14 133.97 146.89 132.12 C 147.15 131.79 147.67 131.13 147.93 130.79 C 152.28 127.41 152.48 120.66 149.86 116.16 C 148.32 114.69 146.10 113.88 145.12 111.89 C 141.30 105.06 142.22 96.83 143.43 89.42 C 146.41 87.00 149.44 84.03 149.96 80.02 C 150.17 75.62 155.20 73.47 155.87 69.22 C 155.76 67.43 155.69 65.65 155.85 63.87 C 157.14 64.12 158.43 64.38 159.72 64.66 C 162.40 67.30 166.13 69.25 169.94 67.95 C 175.87 63.92 178.98 56.78 179.79 49.86 C 180.14 44.58 174.93 42.08 171.08 39.86 C 167.63 37.87 163.50 39.57 160.41 41.47 Z" />
<path fill="#FFFFFF" opacity="1.00" d=" M 162.90 41.43 C 166.05 40.92 169.71 40.56 172.37 42.70 C 174.65 44.44 177.61 46.30 177.75 49.48 C 178.02 51.75 177.82 54.04 177.73 56.31 C 173.91 59.59 172.70 65.59 167.40 67.10 C 163.10 65.37 159.21 62.70 154.61 61.77 C 154.56 64.13 154.62 66.53 154.14 68.86 C 153.28 71.72 150.76 73.56 149.14 75.95 C 147.66 77.99 147.80 80.64 146.94 82.92 C 146.20 84.92 144.66 86.45 143.34 88.08 C 143.17 87.35 142.83 85.89 142.66 85.16 C 142.40 85.46 141.87 86.07 141.61 86.37 C 141.82 90.36 141.28 94.30 140.71 98.23 C 140.69 102.89 142.10 107.44 143.23 111.92 C 143.71 114.50 146.29 115.59 148.06 117.17 C 148.59 118.56 149.15 119.94 149.74 121.31 C 149.11 124.45 148.62 127.62 147.69 130.70 C 144.87 131.36 142.40 130.14 140.12 128.61 C 139.32 126.89 138.41 125.23 137.63 123.51 C 136.17 120.20 137.23 116.38 135.78 113.08 C 134.61 110.78 132.52 109.03 131.75 106.51 C 130.29 102.48 130.61 98.13 130.05 93.95 C 129.88 92.15 128.75 90.36 129.40 88.55 C 130.97 84.32 132.01 79.90 133.93 75.80 C 135.78 71.20 139.84 67.39 139.63 62.10 C 137.36 64.23 136.48 67.27 135.06 69.95 C 132.14 69.67 129.07 69.15 126.21 70.07 C 122.84 71.59 119.59 73.48 116.95 76.09 C 119.77 74.87 122.39 73.26 125.16 71.94 C 127.57 70.29 130.32 72.14 132.88 72.34 C 131.50 75.22 130.94 78.53 129.31 81.23 C 125.65 83.17 122.09 85.31 118.83 87.90 C 116.04 86.68 113.30 85.24 111.66 82.54 C 110.47 79.93 107.89 77.95 107.68 74.93 C 107.58 73.44 107.74 71.94 107.82 70.44 C 112.45 67.63 116.06 63.36 121.17 61.31 C 125.65 59.58 129.32 56.38 133.64 54.36 C 137.84 53.39 142.22 52.20 146.54 53.15 C 150.95 53.13 155.91 51.52 158.29 47.53 C 159.55 45.34 160.46 42.57 162.90 41.43 M 144.91 60.77 C 147.31 62.15 149.76 63.48 152.35 64.49 C 151.72 60.80 148.04 60.00 144.91 60.77 Z" />
<path fill="#FFFFFF" opacity="1.00" d=" M 85.02 109.46 C 90.74 111.65 96.57 113.90 102.83 113.52 C 102.93 119.88 98.75 124.82 96.64 130.50 C 95.92 132.09 95.09 133.71 93.72 134.84 C 87.18 135.08 80.52 134.05 74.07 135.62 C 68.97 136.82 64.05 134.23 58.94 134.56 C 54.04 133.99 49.17 133.58 44.24 133.68 C 37.03 133.55 30.00 136.44 22.77 135.01 C 26.51 132.02 30.37 129.10 33.59 125.52 C 36.00 122.14 38.47 118.64 41.91 116.21 C 46.67 117.13 50.09 121.08 53.12 124.59 C 58.80 125.91 64.44 123.72 69.98 122.69 C 75.04 121.96 79.93 124.00 84.94 124.30 C 84.53 123.65 83.71 122.36 83.30 121.71 C 83.76 121.22 84.67 120.24 85.12 119.76 C 85.48 116.33 85.08 112.89 85.02 109.46 M 86.92 118.53 C 86.72 122.14 85.10 125.34 83.63 128.56 C 86.85 126.32 88.93 122.27 86.92 118.53 Z" />
<path fill="#FFFFFF" opacity="1.00" d=" M 42.63 114.18 C 44.42 113.20 46.19 112.16 48.11 111.45 C 51.64 112.12 53.46 115.50 55.40 118.15 C 60.34 118.03 65.09 116.64 69.84 115.43 C 74.73 114.15 79.51 116.20 84.33 116.78 C 83.70 118.47 83.02 120.15 82.33 121.82 C 77.43 120.59 72.20 119.53 67.21 120.85 C 62.89 122.35 58.30 122.84 53.77 123.26 C 50.76 119.50 47.10 116.13 42.63 114.18 Z" />
</g>
<g id="#393b37ff">
<path fill="#333333" opacity="1.00" d=" M 160.41 41.47 C 163.50 39.57 167.63 37.87 171.08 39.86 C 174.93 42.08 180.14 44.58 179.79 49.86 C 178.98 56.78 175.87 63.92 169.94 67.95 C 166.13 69.25 162.40 67.30 159.72 64.66 C 158.43 64.38 157.14 64.12 155.85 63.87 C 155.69 65.65 155.76 67.43 155.87 69.22 C 155.20 73.47 150.17 75.62 149.96 80.02 C 149.44 84.03 146.41 87.00 143.43 89.42 C 142.22 96.83 141.30 105.06 145.12 111.89 C 146.10 113.88 148.32 114.69 149.86 116.16 C 152.48 120.66 152.28 127.41 147.93 130.79 C 147.67 131.13 147.15 131.79 146.89 132.12 C 141.14 133.97 137.36 128.29 135.06 123.95 C 132.74 120.83 135.10 116.78 133.43 113.44 C 131.98 110.34 129.36 107.73 128.99 104.17 C 128.69 100.13 128.80 96.06 128.30 92.03 C 127.71 88.88 129.30 85.95 130.08 83.00 C 126.42 84.47 123.38 87.50 119.43 88.19 C 116.86 88.15 113.56 88.65 111.92 86.18 C 108.95 82.18 105.85 77.76 105.67 72.60 C 103.12 76.48 97.89 74.80 94.68 77.79 C 90.34 80.21 88.51 84.87 86.40 89.07 C 86.68 92.71 87.27 96.62 85.19 99.88 C 83.67 102.22 83.74 104.92 84.42 107.54 C 91.37 109.37 98.47 112.80 105.79 110.87 C 107.76 110.28 107.45 107.73 107.76 106.14 C 107.95 100.22 110.45 94.10 115.24 90.45 C 114.02 95.56 108.84 99.34 109.72 105.01 C 108.77 113.92 112.59 122.85 118.60 129.32 C 125.61 135.43 135.44 133.91 143.99 134.46 C 149.78 135.17 155.36 133.17 161.05 132.49 C 165.50 131.69 169.56 129.48 173.55 127.45 C 179.82 122.25 181.04 113.65 181.93 106.03 C 182.60 96.29 178.31 87.09 172.50 79.54 C 170.45 77.76 167.79 76.94 165.48 75.57 C 162.21 73.65 158.25 73.98 154.70 73.00 C 157.01 71.22 159.99 71.79 162.61 72.45 C 166.84 73.23 170.36 75.86 173.96 78.06 C 180.92 85.97 185.23 96.42 184.74 107.05 C 183.86 114.60 181.26 122.16 176.06 127.83 C 171.01 131.52 165.24 134.49 158.96 135.23 C 148.50 138.20 137.26 137.44 126.74 135.17 C 115.73 132.86 107.99 122.20 107.35 111.26 C 106.30 112.44 103.83 113.01 104.43 115.01 C 105.17 119.85 101.36 123.44 99.66 127.60 C 97.92 130.84 97.09 135.58 93.18 136.86 C 82.77 136.55 72.28 138.32 61.94 136.53 C 57.90 136.30 53.89 135.81 49.90 135.14 C 43.50 135.64 37.16 136.91 30.81 137.90 C 27.68 138.49 24.56 137.43 21.67 136.32 C 21.54 135.03 21.58 133.74 21.60 132.46 C 23.74 130.99 25.87 129.50 28.14 128.25 C 31.12 126.81 32.20 123.44 34.16 121.01 C 36.15 118.05 39.46 116.35 41.51 113.46 C 43.31 110.79 46.62 108.64 49.92 109.69 C 53.24 110.98 55.12 114.30 58.02 116.24 C 62.41 115.58 66.48 113.49 70.94 113.16 C 75.14 112.75 79.33 113.60 83.31 114.90 C 83.36 113.30 83.43 111.71 83.50 110.11 C 80.81 108.65 81.58 105.49 81.47 102.98 C 82.50 100.31 84.85 98.05 84.60 94.99 C 85.03 88.70 85.87 81.32 91.33 77.25 C 93.98 74.81 97.49 73.10 101.18 73.52 C 108.73 69.55 113.69 61.86 121.91 58.98 C 126.18 57.59 129.60 54.65 133.29 52.23 C 137.82 51.30 142.52 50.94 147.14 51.37 C 149.44 51.47 151.69 50.67 153.79 49.79 C 156.67 47.62 157.21 43.35 160.41 41.47 M 162.90 41.43 C 160.46 42.57 159.55 45.34 158.29 47.53 C 155.91 51.52 150.95 53.13 146.54 53.15 C 142.22 52.20 137.84 53.39 133.64 54.36 C 129.32 56.38 125.65 59.58 121.17 61.31 C 116.06 63.36 112.45 67.63 107.82 70.44 C 107.74 71.94 107.58 73.44 107.68 74.93 C 107.89 77.95 110.47 79.93 111.66 82.54 C 113.30 85.24 116.04 86.68 118.83 87.90 C 122.09 85.31 125.65 83.17 129.31 81.23 C 130.94 78.53 131.50 75.22 132.88 72.34 C 130.32 72.14 127.57 70.29 125.16 71.94 C 122.39 73.26 119.77 74.87 116.95 76.09 C 119.59 73.48 122.84 71.59 126.21 70.07 C 129.07 69.15 132.14 69.67 135.06 69.95 C 136.48 67.27 137.36 64.23 139.63 62.10 C 139.84 67.39 135.78 71.20 133.93 75.80 C 132.01 79.90 130.97 84.32 129.40 88.55 C 128.75 90.36 129.88 92.15 130.05 93.95 C 130.61 98.13 130.29 102.48 131.75 106.51 C 132.52 109.03 134.61 110.78 135.78 113.08 C 137.23 116.38 136.17 120.20 137.63 123.51 C 138.41 125.23 139.32 126.89 140.12 128.61 C 142.40 130.14 144.87 131.36 147.69 130.70 C 148.62 127.62 149.11 124.45 149.74 121.31 C 149.15 119.94 148.59 118.56 148.06 117.17 C 146.29 115.59 143.71 114.50 143.23 111.92 C 142.10 107.44 140.69 102.89 140.71 98.23 C 141.28 94.30 141.82 90.36 141.61 86.37 C 141.87 86.07 142.40 85.46 142.66 85.16 C 142.83 85.89 143.17 87.35 143.34 88.08 C 144.66 86.45 146.20 84.92 146.94 82.92 C 147.80 80.64 147.66 77.99 149.14 75.95 C 150.76 73.56 153.28 71.72 154.14 68.86 C 154.62 66.53 154.56 64.13 154.61 61.77 C 159.21 62.70 163.10 65.37 167.40 67.10 C 172.70 65.59 173.91 59.59 177.73 56.31 C 177.82 54.04 178.02 51.75 177.75 49.48 C 177.61 46.30 174.65 44.44 172.37 42.70 C 169.71 40.56 166.05 40.92 162.90 41.43 M 85.02 109.46 C 85.08 112.89 85.48 116.33 85.12 119.76 C 84.67 120.24 83.76 121.22 83.30 121.71 C 83.71 122.36 84.53 123.65 84.94 124.30 C 79.93 124.00 75.04 121.96 69.98 122.69 C 64.44 123.72 58.80 125.91 53.12 124.59 C 50.09 121.08 46.67 117.13 41.91 116.21 C 38.47 118.64 36.00 122.14 33.59 125.52 C 30.37 129.10 26.51 132.02 22.77 135.01 C 30.00 136.44 37.03 133.55 44.24 133.68 C 49.17 133.58 54.04 133.99 58.94 134.56 C 64.05 134.23 68.97 136.82 74.07 135.62 C 80.52 134.05 87.18 135.08 93.72 134.84 C 95.09 133.71 95.92 132.09 96.64 130.50 C 98.75 124.82 102.93 119.88 102.83 113.52 C 96.57 113.90 90.74 111.65 85.02 109.46 M 42.63 114.18 C 47.10 116.13 50.76 119.50 53.77 123.26 C 58.30 122.84 62.89 122.35 67.21 120.85 C 72.20 119.53 77.43 120.59 82.33 121.82 C 83.02 120.15 83.70 118.47 84.33 116.78 C 79.51 116.20 74.73 114.15 69.84 115.43 C 65.09 116.64 60.34 118.03 55.40 118.15 C 53.46 115.50 51.64 112.12 48.11 111.45 C 46.19 112.16 44.42 113.20 42.63 114.18 Z" />
<path fill="#333333" opacity="1.00" d=" M 144.91 60.77 C 148.04 60.00 151.72 60.80 152.35 64.49 C 149.76 63.48 147.31 62.15 144.91 60.77 Z" />
<path fill="#333333" opacity="1.00" d=" M 86.92 118.53 C 88.93 122.27 86.85 126.32 83.63 128.56 C 85.10 125.34 86.72 122.14 86.92 118.53 Z" />
</g>
</svg>
