<?xml version="1.0" encoding="UTF-8" ?>
<!DOCTYPE svg PUBLIC "-//W3C//DTD SVG 1.1//EN" "http://www.w3.org/Graphics/SVG/1.1/DTD/svg11.dtd">
<svg width="276pt" height="225pt" viewBox="0 0 276 225" version="1.1" xmlns="http://www.w3.org/2000/svg">
<g id="#ffffffff">
<path fill="#FFFFFF" opacity="1.00" d=" M 0.00 0.00 L 276.00 0.00 L 276.00 225.00 L 150.33 225.00 C 151.67 217.80 149.53 210.62 147.00 203.96 C 148.44 201.98 150.40 200.46 152.51 199.25 C 152.83 198.11 153.14 196.97 153.48 195.84 C 154.44 195.12 155.40 194.40 156.36 193.68 C 160.68 197.21 166.07 194.30 170.38 192.38 C 171.27 191.48 171.71 190.26 172.36 189.20 C 168.20 191.38 163.40 193.87 158.58 192.66 C 158.18 191.48 157.76 190.31 157.31 189.15 C 153.66 193.62 149.65 197.78 145.91 202.17 C 145.74 201.49 145.39 200.13 145.22 199.45 C 148.72 195.08 152.45 190.88 156.13 186.66 C 157.62 187.72 159.11 188.79 160.66 189.78 C 160.58 187.67 159.71 185.76 158.97 183.83 C 158.13 183.74 156.44 183.57 155.59 183.48 C 152.42 188.90 147.29 192.88 143.84 198.16 C 141.43 193.93 138.30 190.12 134.39 187.21 C 134.71 178.44 133.82 169.69 133.99 160.92 C 136.90 162.21 139.99 163.02 142.87 164.40 C 143.46 163.96 144.06 163.51 144.66 163.06 C 139.07 160.83 133.84 157.64 129.40 153.58 C 127.37 151.80 124.78 150.92 122.50 149.54 C 112.64 141.83 100.54 137.82 90.31 130.64 C 85.50 126.96 79.77 124.77 74.93 121.13 C 71.73 118.84 68.12 117.15 65.08 114.63 C 64.54 115.07 64.00 115.52 63.47 115.97 C 69.19 119.47 74.82 123.10 80.32 126.94 C 78.19 128.19 75.10 128.66 74.25 131.33 C 77.29 130.76 80.09 129.42 82.89 128.16 C 86.85 131.23 90.98 134.06 95.01 137.05 C 81.42 143.56 67.73 149.83 54.14 156.35 C 51.19 158.10 48.66 154.91 46.24 153.62 C 46.00 151.63 45.76 149.64 45.51 147.65 C 51.28 143.84 58.06 141.79 63.73 137.85 C 64.06 129.75 63.90 121.56 62.88 113.50 C 54.90 109.68 48.41 103.50 40.80 99.07 C 38.56 95.73 42.39 93.27 45.08 91.99 C 47.03 92.34 48.16 94.26 49.51 95.54 C 51.69 98.13 54.43 100.15 57.36 101.81 C 57.81 107.93 64.69 108.66 69.09 110.81 C 73.46 111.97 77.49 114.16 81.93 115.07 C 85.39 115.56 87.24 119.74 91.00 119.29 C 93.99 119.57 97.04 117.30 99.88 118.85 C 104.94 120.83 108.74 125.09 111.20 129.83 C 113.42 134.12 117.81 136.58 120.72 140.33 C 124.85 145.82 132.16 146.38 138.07 148.87 C 138.18 147.69 138.30 146.53 138.44 145.36 L 136.57 146.01 C 130.46 145.44 128.23 138.46 125.57 133.88 C 125.46 136.47 125.92 139.02 126.77 141.47 C 123.60 140.65 121.83 138.25 120.44 135.53 C 115.42 132.14 112.44 126.69 108.89 121.92 C 111.11 122.91 113.38 125.11 115.97 124.01 C 119.59 122.71 123.34 121.81 127.17 121.35 C 125.46 120.70 123.76 120.04 122.07 119.38 C 122.13 117.86 122.20 116.35 122.30 114.84 C 123.36 112.92 123.33 110.71 123.33 108.58 C 122.90 108.50 122.03 108.34 121.60 108.25 C 121.37 108.94 120.91 110.30 120.68 110.99 C 120.99 111.88 121.61 113.68 121.92 114.58 C 121.20 115.17 120.47 115.77 119.75 116.37 C 119.71 117.04 119.62 118.38 119.58 119.05 C 118.48 120.04 117.39 121.02 116.29 122.00 C 116.30 120.59 116.31 119.18 116.34 117.77 C 118.70 117.45 119.37 115.57 118.12 113.61 C 114.39 115.11 113.35 119.32 114.75 122.87 C 112.22 121.13 109.60 119.57 106.95 118.03 C 106.52 118.23 105.64 118.61 105.21 118.80 C 102.82 116.08 99.13 116.47 95.86 116.44 C 94.64 112.44 94.11 108.33 95.30 104.25 C 99.30 98.03 105.60 93.07 113.07 92.03 C 113.32 91.06 113.57 90.08 113.81 89.10 C 106.88 91.30 99.86 94.45 95.28 100.34 C 91.92 104.09 92.68 109.51 92.44 114.14 C 86.89 110.93 90.72 104.19 91.37 99.44 C 95.11 96.74 99.15 94.50 102.95 91.90 C 103.08 91.25 103.32 89.95 103.44 89.30 C 100.14 90.38 97.41 92.62 94.64 94.64 C 90.88 98.52 84.71 98.13 81.01 102.26 C 84.21 103.49 86.82 100.36 89.75 99.60 C 88.07 103.24 85.71 107.06 86.87 111.25 C 88.06 113.64 90.39 115.17 92.15 117.09 C 85.06 115.75 79.07 111.53 72.57 108.68 C 67.77 107.45 63.01 105.82 58.77 103.23 C 58.50 100.22 58.24 97.19 58.62 94.18 C 61.11 91.84 61.26 88.09 63.69 85.72 C 66.04 83.13 69.42 80.97 73.07 81.96 C 77.91 82.16 81.39 86.30 86.19 86.58 C 88.69 86.67 91.05 85.62 93.08 84.23 C 89.09 83.76 85.03 85.31 81.14 83.80 C 81.09 82.75 81.05 81.70 81.02 80.65 C 82.98 80.39 83.35 78.50 83.94 76.97 C 86.84 74.91 90.52 74.49 93.98 74.89 C 97.10 75.23 98.77 78.20 101.16 79.85 C 103.26 81.01 106.04 80.38 107.94 81.99 C 110.71 84.33 113.98 85.95 116.91 88.07 C 116.73 88.79 116.55 89.50 116.38 90.22 C 117.06 90.20 118.42 90.17 119.10 90.15 C 123.59 93.67 129.42 95.57 135.12 94.58 C 137.93 93.99 138.20 97.03 138.58 99.01 C 139.16 97.83 139.76 96.66 140.36 95.49 C 142.15 96.82 143.98 98.12 145.86 99.32 C 145.44 100.09 145.02 100.86 144.59 101.63 C 148.68 100.36 153.27 100.51 156.96 102.83 C 159.26 105.23 161.69 107.51 163.89 110.01 C 167.76 110.89 170.55 113.91 173.34 116.52 C 170.21 114.63 166.57 115.15 163.15 115.76 C 162.81 115.36 162.13 114.54 161.78 114.13 C 159.27 114.12 156.76 114.29 154.30 114.80 C 154.61 115.46 155.23 116.77 155.53 117.43 C 157.96 116.58 160.45 115.98 163.06 116.06 C 159.64 119.02 157.03 123.23 156.79 127.84 C 160.54 125.11 160.71 119.87 163.97 116.70 C 170.01 114.54 174.49 120.35 176.96 125.02 C 180.24 130.13 180.10 136.29 179.90 142.11 C 178.01 144.23 176.20 146.51 173.77 148.03 C 171.68 148.86 169.34 148.31 167.15 148.36 C 164.23 146.44 160.74 144.85 159.68 141.20 C 159.27 142.13 158.87 143.06 158.46 144.00 C 157.52 142.20 155.94 140.37 156.68 138.21 C 158.18 137.91 159.24 139.03 160.11 140.06 C 161.14 139.70 162.19 139.36 163.23 139.03 C 161.96 138.56 160.63 138.20 159.44 137.54 C 157.85 136.13 157.87 133.78 157.29 131.89 C 158.27 130.67 159.24 129.44 160.19 128.20 C 156.99 129.54 155.20 132.46 154.52 135.75 C 152.47 133.50 149.78 131.73 148.35 128.99 C 147.94 125.99 149.52 123.22 150.29 120.40 C 151.28 119.93 152.28 119.47 153.28 119.01 C 153.29 114.21 149.86 110.32 146.75 107.01 C 145.29 105.31 143.10 104.58 141.20 103.52 C 140.51 104.24 139.83 104.97 139.15 105.69 C 141.59 107.03 144.28 107.84 146.70 109.21 C 148.32 110.85 149.10 113.13 150.16 115.15 C 151.43 117.01 149.86 118.94 149.03 120.58 C 147.26 123.38 146.89 126.76 145.50 129.74 C 143.25 128.37 140.73 127.62 138.16 127.18 C 138.21 126.50 138.31 125.14 138.36 124.46 C 136.15 121.88 133.14 119.98 131.29 117.14 C 131.44 115.17 132.04 113.29 132.54 111.40 C 132.25 110.79 131.66 109.59 131.37 108.98 C 130.69 111.91 130.03 114.84 129.34 117.76 C 133.74 119.42 135.67 123.83 138.07 127.50 C 132.36 126.45 126.58 125.70 120.96 124.23 C 119.42 125.68 118.01 127.33 117.87 129.57 C 119.27 128.69 120.52 127.62 121.73 126.50 C 125.31 127.65 129.09 127.98 132.84 127.84 C 138.09 127.70 142.95 130.09 147.30 132.80 C 150.56 134.68 153.84 137.04 155.43 140.58 C 156.68 145.79 158.74 150.78 159.43 156.13 C 161.10 160.76 159.49 165.58 159.69 170.33 C 159.17 170.20 158.14 169.94 157.62 169.81 C 157.45 168.45 157.25 167.10 157.02 165.76 C 156.68 166.16 156.01 166.96 155.67 167.37 C 155.51 170.65 156.48 173.86 156.75 177.13 C 156.30 178.08 155.72 179.01 155.61 180.08 C 156.85 180.24 158.10 180.30 159.35 180.37 C 158.87 177.37 158.44 174.36 158.39 171.32 C 160.05 172.44 160.78 174.34 161.70 176.03 C 165.91 176.68 172.17 177.37 173.28 182.33 C 171.21 182.77 169.14 183.21 167.06 183.57 C 165.83 182.97 164.56 182.47 163.22 182.21 C 163.85 183.50 164.41 185.01 165.91 185.53 C 167.86 185.59 169.80 185.30 171.74 185.11 C 172.04 186.39 172.35 187.67 172.67 188.95 C 174.00 188.04 175.35 187.15 176.69 186.25 L 175.09 186.75 C 175.17 185.76 175.34 183.77 175.42 182.78 C 176.85 182.67 178.29 182.39 179.39 181.41 C 183.53 178.38 187.79 175.52 192.25 172.98 C 192.89 171.92 193.63 170.79 195.23 171.36 C 194.55 171.96 193.86 172.58 193.18 173.19 C 195.00 173.20 196.85 173.23 198.67 173.31 C 202.68 171.28 203.63 166.52 206.54 163.41 C 208.10 161.88 206.36 159.69 206.21 157.92 C 210.96 157.33 215.68 156.58 220.38 155.68 C 223.68 161.17 227.91 166.67 234.09 169.02 C 238.20 170.51 242.23 168.01 245.50 165.75 C 250.84 157.54 247.67 147.01 244.32 138.64 C 248.43 135.79 252.66 133.11 256.57 129.98 C 255.34 128.52 254.41 125.67 252.14 125.87 C 248.43 127.91 245.15 130.64 241.62 132.97 C 238.34 128.47 235.00 123.63 229.85 121.11 C 223.46 117.51 214.81 123.07 214.04 130.00 C 213.32 136.73 214.88 143.53 217.48 149.72 C 212.00 150.41 206.61 151.63 201.22 152.80 C 198.58 151.01 198.31 147.01 197.55 144.08 C 197.67 134.70 196.59 125.33 194.12 116.28 C 192.31 112.35 188.16 110.48 184.93 107.94 C 179.86 103.53 172.68 103.37 166.35 102.52 C 167.81 106.65 166.04 103.57 165.32 103.02 C 161.53 101.38 157.66 99.75 153.47 99.56 C 148.60 99.07 145.25 95.04 140.85 93.40 C 136.93 92.58 132.91 92.18 128.91 92.42 C 125.32 90.50 121.47 89.14 117.94 87.13 C 112.79 83.47 108.04 79.06 102.02 76.90 C 99.86 74.49 97.01 73.21 94.06 72.05 C 89.47 67.93 84.12 64.84 79.05 61.36 C 79.62 62.81 79.99 64.55 81.49 65.36 C 84.92 67.43 88.34 69.55 91.20 72.39 C 85.34 72.28 80.48 76.32 78.13 81.44 C 75.43 80.07 72.36 80.35 69.44 80.33 C 68.59 79.37 68.15 78.30 68.10 77.11 C 70.47 76.66 72.86 77.51 75.24 77.50 C 72.85 75.50 69.65 74.90 66.64 74.50 C 66.47 74.88 66.11 75.64 65.93 76.02 L 65.51 76.71 C 64.72 76.33 63.12 75.57 62.32 75.19 C 63.30 72.21 63.11 69.11 62.34 66.11 C 64.11 63.58 66.57 60.94 70.00 61.42 C 72.34 61.05 75.53 64.10 76.80 60.90 C 72.44 59.29 66.54 58.26 63.05 62.11 C 59.41 64.87 61.27 69.98 60.78 73.86 C 60.25 73.80 59.21 73.68 58.68 73.62 C 53.98 68.51 46.36 68.95 40.03 68.04 C 36.34 66.81 32.54 70.28 32.59 73.96 C 32.77 82.03 30.47 89.93 30.66 98.01 C 30.96 104.40 32.13 110.77 31.79 117.19 C 28.58 121.07 22.50 118.64 18.91 121.95 C 16.30 123.58 17.18 127.38 18.42 129.60 C 21.39 132.31 25.39 133.38 28.99 134.99 C 31.66 136.18 33.94 138.33 36.93 138.71 C 40.16 139.34 43.33 138.26 46.39 137.35 C 48.37 131.33 45.97 125.14 45.37 119.09 C 44.89 115.14 46.29 111.32 47.07 107.51 C 46.31 107.56 44.81 107.65 44.05 107.70 C 42.57 113.36 42.52 119.26 44.02 124.92 C 45.08 128.38 44.95 132.00 44.71 135.56 C 42.85 135.88 40.99 136.73 39.08 136.40 C 32.70 135.00 26.30 132.87 21.09 128.79 C 19.44 127.53 18.95 125.38 18.01 123.63 C 23.20 121.51 30.35 122.67 34.04 117.86 C 34.60 106.96 30.46 95.87 33.19 85.05 C 35.36 80.42 33.31 74.72 36.55 70.48 C 37.98 69.20 40.14 69.31 41.91 68.78 C 44.74 71.04 48.42 70.84 51.75 71.70 C 57.57 74.61 63.17 77.97 69.13 80.62 C 65.02 82.27 60.91 84.62 58.70 88.63 C 56.76 91.50 56.93 95.08 56.85 98.39 C 54.67 96.90 52.55 95.33 50.45 93.74 C 50.17 93.08 49.59 91.77 49.31 91.11 C 50.91 91.80 52.53 92.46 54.16 93.09 C 53.92 90.22 50.62 89.77 48.80 88.15 C 46.43 86.77 45.09 83.36 42.00 83.53 C 40.39 83.33 39.02 84.26 37.77 85.16 C 39.71 85.61 41.75 85.54 43.64 86.18 C 45.25 87.53 46.76 89.01 48.51 90.20 C 47.97 90.56 47.44 90.92 46.90 91.28 C 45.22 89.05 42.90 91.65 41.05 92.18 C 37.83 93.41 38.78 97.39 38.38 100.09 C 40.92 102.00 44.91 103.08 44.92 106.93 C 45.48 106.15 46.03 105.37 46.59 104.58 C 48.36 106.27 50.20 107.87 52.04 109.48 C 54.64 111.87 58.18 112.81 61.23 114.48 C 61.57 121.97 61.82 129.47 61.63 136.97 C 55.67 139.99 49.72 143.01 43.74 145.98 C 43.80 148.84 43.28 151.91 44.54 154.59 C 46.72 156.63 49.42 157.98 51.94 159.55 C 66.13 152.99 80.28 146.31 94.42 139.62 C 95.87 139.05 97.58 137.81 99.08 138.95 C 104.30 142.01 109.19 145.65 114.66 148.26 C 119.18 150.37 123.03 153.56 127.41 155.91 C 128.90 157.04 131.17 157.99 131.35 160.09 C 132.03 168.47 131.58 176.91 132.28 185.30 C 132.68 185.71 133.48 186.54 133.88 186.95 C 130.94 185.62 127.59 183.95 124.37 185.43 C 121.85 186.71 119.00 188.11 117.84 190.86 C 116.35 194.00 115.94 197.50 115.55 200.91 C 117.24 204.63 116.73 208.98 118.69 212.59 C 119.19 212.62 120.18 212.68 120.67 212.71 C 118.21 206.51 116.32 199.30 118.84 192.83 C 119.81 189.86 122.85 188.51 125.13 186.70 C 135.75 187.25 142.32 196.99 146.00 205.90 C 148.05 211.95 150.05 218.66 148.26 225.00 L 145.43 225.00 C 145.33 214.28 141.36 203.72 134.68 195.36 C 132.22 192.54 129.39 189.67 125.73 188.53 C 125.39 188.83 124.70 189.45 124.35 189.76 C 131.76 193.18 136.72 200.15 139.78 207.49 C 142.35 212.94 143.57 218.98 143.41 225.00 L 127.70 225.00 C 126.24 223.50 125.26 221.08 122.87 220.96 C 123.64 222.35 124.46 223.71 125.39 225.00 L 115.54 225.00 C 120.53 222.32 124.81 218.57 129.61 215.59 C 130.69 214.66 132.68 213.93 132.40 212.19 C 131.94 210.43 130.34 209.27 129.23 207.92 C 126.62 209.50 124.04 211.82 120.75 211.40 C 120.75 211.96 120.73 213.09 120.72 213.66 C 117.11 216.16 113.63 218.88 109.69 220.86 C 109.52 222.24 109.37 223.61 109.23 225.00 L 0.00 225.00 L 0.00 0.00 M 66.00 69.09 C 66.17 69.62 66.50 70.70 66.66 71.24 C 70.79 71.67 74.94 71.63 79.09 71.72 C 75.36 68.77 70.32 70.31 66.00 69.09 M 38.96 75.17 C 38.09 75.23 36.35 75.34 35.48 75.39 C 36.80 77.43 43.21 76.43 41.12 73.31 C 40.58 73.78 39.50 74.71 38.96 75.17 M 35.30 93.93 C 34.98 96.92 36.00 100.04 34.86 102.93 C 35.01 106.36 36.22 109.72 37.40 112.95 C 37.32 107.59 36.39 102.29 36.28 96.93 C 36.45 93.92 37.20 90.98 37.55 88.00 C 36.75 89.95 35.73 91.85 35.30 93.93 M 73.67 95.64 L 75.50 94.50 C 75.66 95.14 75.98 96.40 76.14 97.04 C 76.03 96.29 75.79 94.80 75.67 94.06 C 77.61 92.73 80.72 91.56 80.11 88.62 C 76.73 89.72 76.13 93.56 73.67 95.64 M 86.99 96.70 C 91.14 96.58 92.83 91.26 97.00 90.53 C 95.68 90.43 94.35 90.34 93.03 90.24 C 92.39 90.77 91.12 91.83 90.48 92.36 L 90.57 90.20 C 89.35 92.36 87.73 94.31 86.99 96.70 M 113.20 95.96 C 114.89 96.30 116.04 97.63 117.44 98.49 C 121.41 99.53 125.59 98.11 129.47 99.48 C 129.49 99.34 129.53 99.05 129.55 98.91 C 126.93 98.55 124.41 97.71 122.04 96.56 C 121.53 96.84 120.51 97.39 120.01 97.66 C 117.82 96.99 116.15 95.27 113.97 94.67 C 113.78 95.00 113.40 95.64 113.20 95.96 M 103.31 97.83 C 103.77 98.01 104.70 98.39 105.16 98.58 C 104.24 98.58 102.39 98.59 101.47 98.60 C 101.27 101.77 105.34 101.11 107.03 102.84 C 109.99 104.06 108.14 108.67 111.19 109.65 C 111.38 107.15 111.76 104.21 109.74 102.30 C 107.86 100.44 106.67 98.03 104.94 96.07 C 104.53 96.51 103.72 97.39 103.31 97.83 M 132.39 101.47 C 126.92 100.79 122.31 105.21 116.96 105.34 C 115.49 104.70 114.21 103.42 112.48 103.59 C 112.70 105.78 115.08 107.10 116.98 107.61 C 120.88 107.35 124.33 104.73 128.36 105.25 C 128.66 104.79 129.25 103.88 129.55 103.42 C 131.89 103.40 134.05 102.46 136.32 102.05 C 136.42 101.67 136.61 100.90 136.71 100.51 C 136.03 100.41 134.69 100.22 134.01 100.12 C 133.61 100.46 132.80 101.13 132.39 101.47 M 115.33 109.36 C 115.29 110.59 115.26 111.82 115.24 113.05 C 117.79 113.47 117.31 111.22 117.29 109.49 C 116.80 109.46 115.82 109.40 115.33 109.36 M 39.85 120.23 C 39.85 121.12 39.85 122.91 39.85 123.81 C 36.89 123.89 34.00 124.58 31.19 125.46 C 32.12 126.17 33.04 126.87 33.97 127.59 C 36.22 126.75 37.18 123.82 39.81 123.93 C 39.83 125.34 39.84 126.76 39.85 128.18 C 40.27 128.27 41.11 128.44 41.53 128.53 C 42.28 125.58 41.71 122.63 39.85 120.23 M 152.23 123.73 C 152.34 126.81 152.53 130.18 154.68 132.60 C 155.96 129.61 154.44 125.91 152.23 123.73 M 136.32 132.09 C 137.13 133.74 138.96 133.28 140.44 133.40 C 140.50 132.88 140.60 131.83 140.65 131.30 C 139.19 131.45 137.73 131.66 136.32 132.09 M 130.86 136.00 C 132.34 136.28 133.81 136.57 135.29 136.87 C 135.09 137.43 134.71 138.55 134.51 139.11 C 136.58 142.50 140.45 143.73 143.83 145.34 C 144.92 145.74 148.08 147.50 147.32 144.78 C 144.35 142.62 140.32 142.10 137.51 139.58 C 137.31 138.34 137.24 137.08 137.30 135.82 C 135.53 134.55 131.67 132.93 130.86 136.00 M 147.15 138.09 C 147.13 140.06 148.30 142.15 150.35 142.55 C 151.50 140.60 149.09 138.30 147.15 138.09 M 139.07 149.06 C 140.28 152.56 143.74 154.81 144.51 158.54 C 146.09 164.86 148.55 170.83 150.20 177.13 C 150.40 180.51 149.93 184.06 152.08 187.00 C 152.85 185.88 153.31 184.59 153.40 183.23 C 152.71 178.10 152.31 172.90 150.90 167.89 C 149.71 164.00 148.15 160.21 147.31 156.22 C 143.74 153.03 141.27 148.87 139.04 144.69 C 138.97 146.14 138.98 147.60 139.07 149.06 M 146.56 149.09 C 145.22 151.26 146.18 154.69 148.21 156.04 C 148.29 153.60 147.64 151.25 146.56 149.09 M 145.27 166.44 C 144.71 175.51 142.79 184.72 144.78 193.73 C 145.49 193.20 146.19 192.68 146.90 192.16 C 146.46 189.84 146.23 187.50 146.29 185.14 C 148.28 184.83 149.53 183.80 150.03 182.06 C 149.09 182.25 147.20 182.61 146.26 182.79 C 146.68 177.27 146.62 171.72 146.37 166.19 L 145.27 166.44 M 153.12 198.81 C 155.32 198.61 157.39 197.68 158.96 196.12 C 156.43 194.58 154.30 196.84 153.12 198.81 M 113.99 199.72 C 114.44 203.34 112.96 208.51 116.95 210.59 C 116.06 206.97 116.42 202.78 113.99 199.72 Z" />
<path fill="#FFFFFF" opacity="1.00" d=" M 161.80 104.26 C 163.63 104.72 165.46 105.50 167.40 105.24 C 171.94 104.84 176.05 107.45 180.58 107.33 C 184.77 110.84 189.06 114.29 192.70 118.40 C 193.40 123.30 195.03 128.08 194.89 133.08 C 195.21 140.10 195.02 147.32 198.11 153.84 C 198.45 155.60 200.42 155.54 201.72 156.21 C 203.10 157.58 203.90 159.41 204.92 161.04 C 203.02 163.78 201.88 167.26 199.35 169.44 C 198.70 169.41 197.40 169.36 196.75 169.34 C 196.63 167.00 200.21 166.71 199.51 164.44 C 197.68 164.06 196.36 165.75 194.87 166.49 C 193.13 165.12 190.21 162.87 189.49 166.34 L 189.26 165.39 C 186.49 169.36 181.81 171.06 178.36 174.32 C 175.56 176.98 171.42 176.56 167.87 176.49 C 165.31 175.79 162.61 173.86 162.46 170.98 C 161.86 167.33 162.15 163.63 162.06 159.96 C 165.70 157.99 169.62 156.52 173.03 154.17 C 174.74 153.18 174.71 151.08 175.29 149.43 C 176.35 148.82 177.59 148.66 178.75 148.34 C 178.52 148.14 178.04 147.75 177.80 147.55 C 179.19 146.22 180.42 144.73 181.20 142.97 C 181.06 142.00 180.79 140.05 180.65 139.08 C 184.85 143.64 185.50 150.33 187.30 156.09 C 188.42 158.83 186.25 161.34 186.14 164.05 C 186.84 164.10 188.25 164.19 188.95 164.24 C 189.51 162.14 189.74 159.98 189.68 157.81 C 190.41 157.78 191.86 157.71 192.59 157.68 L 192.57 155.81 C 191.82 155.75 190.32 155.64 189.57 155.58 C 188.97 152.02 186.51 148.33 186.97 144.96 C 187.12 144.82 187.41 144.52 187.56 144.37 C 186.26 144.28 185.46 143.60 185.15 142.31 C 184.36 139.88 182.77 137.60 182.96 134.95 C 183.09 128.89 179.26 123.76 175.92 119.09 C 178.44 119.91 180.95 120.80 183.50 121.55 C 183.17 124.78 183.18 128.14 184.61 131.14 C 185.64 126.86 185.55 122.34 186.05 117.99 C 185.71 115.93 183.59 118.09 183.14 118.90 C 180.40 118.41 177.32 117.90 175.19 115.99 C 172.44 110.34 165.01 109.57 161.80 104.26 M 192.98 154.09 C 193.55 155.72 194.35 155.86 195.39 154.50 C 194.78 150.86 193.84 147.26 192.42 143.85 C 191.15 147.18 192.56 150.72 192.98 154.09 M 194.64 161.85 C 197.08 161.33 199.56 161.05 202.05 160.84 C 201.16 158.83 199.13 158.50 197.15 158.70 C 196.84 158.11 196.21 156.94 195.90 156.36 C 194.08 157.64 194.87 159.99 194.64 161.85 Z" />
<path fill="#FFFFFF" opacity="1.00" d=" M 217.52 125.47 C 219.09 123.72 221.68 123.45 223.22 121.62 C 231.84 122.03 237.72 129.42 241.37 136.49 C 245.44 144.75 248.73 154.96 244.48 163.79 C 242.05 165.00 239.76 166.63 237.08 167.22 C 230.27 166.66 224.95 160.82 222.11 155.07 C 223.53 151.10 231.19 150.72 229.64 145.47 C 228.75 144.64 227.88 143.80 227.01 142.95 C 223.71 144.81 220.87 147.37 217.50 149.12 C 218.12 145.26 216.08 141.76 215.70 138.00 C 215.24 133.80 215.07 129.14 217.52 125.47 M 223.10 123.25 C 223.02 123.69 222.86 124.59 222.78 125.04 C 228.60 128.00 233.11 133.15 236.04 138.94 C 240.07 146.40 242.61 155.30 240.48 163.73 C 240.80 163.69 241.44 163.60 241.76 163.56 C 244.25 159.87 242.97 155.12 242.38 151.07 C 240.43 142.71 236.66 134.64 230.65 128.43 C 228.73 125.94 226.03 124.28 223.10 123.25 Z" />
<path fill="#FFFFFF" opacity="1.00" d=" M 242.20 134.78 C 245.35 132.19 248.76 129.97 252.07 127.61 C 253.89 127.51 254.78 130.15 252.96 130.83 C 249.73 132.62 246.91 135.26 243.59 136.77 C 243.24 136.27 242.55 135.28 242.20 134.78 Z" />
<path fill="#FFFFFF" opacity="1.00" d=" M 216.12 152.01 C 220.26 150.72 222.94 146.76 227.04 145.41 C 227.40 145.77 228.12 146.49 228.49 146.85 C 224.31 149.92 220.47 154.60 214.89 154.61 C 211.22 154.83 207.57 156.19 203.96 156.10 C 203.89 155.59 203.74 154.59 203.66 154.09 C 207.76 153.09 211.97 152.73 216.12 152.01 Z" />
<path fill="#FFFFFF" opacity="1.00" d=" M 160.32 147.31 C 163.59 150.37 168.12 150.98 172.41 150.66 C 169.61 154.36 164.81 155.63 160.82 157.62 C 160.57 154.19 160.39 150.75 160.32 147.31 Z" />
<path fill="#FFFFFF" opacity="1.00" d=" M 190.21 168.28 C 191.34 167.20 193.55 168.06 192.92 169.77 C 188.43 173.50 182.86 175.63 178.49 179.51 C 177.15 180.79 175.13 180.45 173.45 180.51 C 173.60 178.83 174.51 178.10 176.18 178.32 C 180.87 174.99 185.48 171.55 190.21 168.28 Z" />
<path fill="#FFFFFF" opacity="1.00" d=" M 112.95 221.05 C 118.53 217.88 123.62 213.94 129.00 210.48 C 129.42 210.87 130.25 211.66 130.67 212.05 C 125.47 216.14 119.62 219.36 114.61 223.71 C 114.05 222.82 113.50 221.93 112.95 221.05 Z" />
<path fill="#FFFFFF" opacity="1.00" d=" M 111.21 223.28 C 111.81 223.80 111.81 223.80 111.21 223.28 Z" />
</g>
<g id="#585a57ff">
<path fill="#333333" opacity="1.00" d=" M 63.05 62.11 C 66.54 58.26 72.44 59.29 76.80 60.90 C 75.53 64.10 72.34 61.05 70.00 61.42 C 66.57 60.94 64.11 63.58 62.34 66.11 C 63.11 69.11 63.30 72.21 62.32 75.19 C 63.12 75.57 64.72 76.33 65.51 76.71 L 65.93 76.02 C 66.11 75.64 66.47 74.88 66.64 74.50 C 69.65 74.90 72.85 75.50 75.24 77.50 C 72.86 77.51 70.47 76.66 68.10 77.11 C 68.15 78.30 68.59 79.37 69.44 80.33 C 72.36 80.35 75.43 80.07 78.13 81.44 C 80.48 76.32 85.34 72.28 91.20 72.39 C 88.34 69.55 84.92 67.43 81.49 65.36 C 79.99 64.55 79.62 62.81 79.05 61.36 C 84.12 64.84 89.47 67.93 94.06 72.05 C 97.01 73.21 99.86 74.49 102.02 76.90 C 108.04 79.06 112.79 83.47 117.94 87.13 C 121.47 89.14 125.32 90.50 128.91 92.42 C 132.91 92.18 136.93 92.58 140.85 93.40 C 145.25 95.04 148.60 99.07 153.47 99.56 C 157.66 99.75 161.53 101.38 165.32 103.02 C 166.04 103.57 167.81 106.65 166.35 102.52 C 172.68 103.37 179.86 103.53 184.93 107.94 C 188.16 110.48 192.31 112.35 194.12 116.28 C 196.59 125.33 197.67 134.70 197.55 144.08 C 198.31 147.01 198.58 151.01 201.22 152.80 C 206.61 151.63 212.00 150.41 217.48 149.72 C 214.88 143.53 213.32 136.73 214.04 130.00 C 214.81 123.07 223.46 117.51 229.85 121.11 C 235.00 123.63 238.34 128.47 241.62 132.97 C 245.15 130.64 248.43 127.91 252.14 125.87 C 254.41 125.67 255.34 128.52 256.57 129.98 C 252.66 133.11 248.43 135.79 244.32 138.64 C 247.67 147.01 250.84 157.54 245.50 165.75 C 242.23 168.01 238.20 170.51 234.09 169.02 C 227.91 166.67 223.68 161.17 220.38 155.68 C 215.68 156.58 210.96 157.33 206.21 157.92 C 206.36 159.69 208.10 161.88 206.54 163.41 C 203.63 166.52 202.68 171.28 198.67 173.31 C 196.85 173.23 195.00 173.20 193.18 173.19 C 193.86 172.58 194.55 171.96 195.23 171.36 C 193.63 170.79 192.89 171.92 192.25 172.98 C 187.79 175.52 183.53 178.38 179.39 181.41 C 178.29 182.39 176.85 182.67 175.42 182.78 C 175.34 183.77 175.17 185.76 175.09 186.75 L 176.69 186.25 C 175.35 187.15 174.00 188.04 172.67 188.95 C 172.35 187.67 172.04 186.39 171.74 185.11 C 169.80 185.30 167.86 185.59 165.91 185.53 C 164.41 185.01 163.85 183.50 163.22 182.21 C 164.56 182.47 165.83 182.97 167.06 183.57 C 169.14 183.21 171.21 182.77 173.28 182.33 C 172.17 177.37 165.91 176.68 161.70 176.03 C 160.78 174.34 160.05 172.44 158.39 171.32 C 158.44 174.36 158.87 177.37 159.35 180.37 C 158.10 180.30 156.85 180.24 155.61 180.08 C 155.72 179.01 156.30 178.08 156.75 177.13 C 156.48 173.86 155.51 170.65 155.67 167.37 C 156.01 166.96 156.68 166.16 157.02 165.76 C 157.25 167.10 157.45 168.45 157.62 169.81 C 158.14 169.94 159.17 170.20 159.69 170.33 C 159.49 165.58 161.10 160.76 159.43 156.13 C 158.74 150.78 156.68 145.79 155.43 140.58 C 153.84 137.04 150.56 134.68 147.30 132.80 C 142.95 130.09 138.09 127.70 132.84 127.84 C 129.09 127.98 125.31 127.65 121.73 126.50 C 120.52 127.62 119.27 128.69 117.87 129.57 C 118.01 127.33 119.42 125.68 120.96 124.23 C 126.58 125.70 132.36 126.45 138.07 127.50 C 135.67 123.83 133.74 119.42 129.34 117.76 C 130.03 114.84 130.69 111.91 131.37 108.98 C 131.66 109.59 132.25 110.79 132.54 111.40 C 132.04 113.29 131.44 115.17 131.29 117.14 C 133.14 119.98 136.15 121.88 138.36 124.46 C 138.31 125.14 138.21 126.50 138.16 127.18 C 140.73 127.62 143.25 128.37 145.50 129.74 C 146.89 126.76 147.26 123.38 149.03 120.58 C 149.86 118.94 151.43 117.01 150.16 115.15 C 149.10 113.13 148.32 110.85 146.70 109.21 C 144.28 107.84 141.59 107.03 139.15 105.69 C 139.83 104.97 140.51 104.24 141.20 103.52 C 143.10 104.58 145.29 105.31 146.75 107.01 C 149.86 110.32 153.29 114.21 153.28 119.01 C 152.28 119.47 151.28 119.93 150.29 120.40 C 149.52 123.22 147.94 125.99 148.35 128.99 C 149.78 131.73 152.47 133.50 154.52 135.75 C 155.20 132.46 156.99 129.54 160.19 128.20 C 159.24 129.44 158.27 130.67 157.29 131.89 C 157.87 133.78 157.85 136.13 159.44 137.54 C 160.63 138.20 161.96 138.56 163.23 139.03 C 162.19 139.36 161.14 139.70 160.11 140.06 C 159.24 139.03 158.18 137.91 156.68 138.21 C 155.94 140.37 157.52 142.20 158.46 144.00 C 158.87 143.06 159.27 142.13 159.68 141.20 C 160.74 144.85 164.23 146.44 167.15 148.36 C 169.34 148.31 171.68 148.86 173.77 148.03 C 176.20 146.51 178.01 144.23 179.90 142.11 C 180.10 136.29 180.24 130.13 176.96 125.02 C 174.49 120.35 170.01 114.54 163.97 116.70 C 160.71 119.87 160.54 125.11 156.79 127.84 C 157.03 123.23 159.64 119.02 163.06 116.06 C 160.45 115.98 157.96 116.58 155.53 117.43 C 155.23 116.77 154.61 115.46 154.30 114.80 C 156.76 114.29 159.27 114.12 161.78 114.13 C 162.13 114.54 162.81 115.36 163.15 115.76 C 166.57 115.15 170.21 114.63 173.34 116.52 C 170.55 113.91 167.76 110.89 163.89 110.01 C 161.69 107.51 159.26 105.23 156.96 102.83 C 153.27 100.51 148.68 100.36 144.59 101.63 C 145.02 100.86 145.44 100.09 145.86 99.32 C 143.98 98.12 142.15 96.82 140.36 95.49 C 139.76 96.66 139.16 97.83 138.58 99.01 C 138.20 97.03 137.93 93.99 135.12 94.58 C 129.42 95.57 123.59 93.67 119.10 90.15 C 118.42 90.17 117.06 90.20 116.38 90.22 C 116.55 89.50 116.73 88.79 116.91 88.07 C 113.98 85.95 110.71 84.33 107.94 81.99 C 106.04 80.38 103.26 81.01 101.16 79.85 C 98.77 78.20 97.10 75.23 93.98 74.89 C 90.52 74.49 86.84 74.91 83.94 76.97 C 83.35 78.50 82.98 80.39 81.02 80.65 C 81.05 81.70 81.09 82.75 81.14 83.80 C 85.03 85.31 89.09 83.76 93.08 84.23 C 91.05 85.62 88.69 86.67 86.19 86.58 C 81.39 86.30 77.91 82.16 73.07 81.96 C 69.42 80.97 66.04 83.13 63.69 85.72 C 61.26 88.09 61.11 91.84 58.62 94.18 C 58.24 97.19 58.50 100.22 58.77 103.23 C 63.01 105.82 67.77 107.45 72.57 108.68 C 79.07 111.53 85.06 115.75 92.15 117.09 C 90.39 115.17 88.06 113.64 86.87 111.25 C 85.71 107.06 88.07 103.24 89.75 99.60 C 86.82 100.36 84.21 103.49 81.01 102.26 C 84.71 98.13 90.88 98.52 94.64 94.64 C 97.41 92.62 100.14 90.38 103.44 89.30 C 103.32 89.95 103.08 91.25 102.95 91.90 C 99.15 94.50 95.11 96.74 91.37 99.44 C 90.72 104.19 86.89 110.93 92.44 114.14 C 92.68 109.51 91.92 104.09 95.28 100.34 C 99.86 94.45 106.88 91.30 113.81 89.10 C 113.57 90.08 113.32 91.06 113.07 92.03 C 105.60 93.07 99.30 98.03 95.30 104.25 C 94.11 108.33 94.64 112.44 95.86 116.44 C 99.13 116.47 102.82 116.08 105.21 118.80 C 105.64 118.61 106.52 118.23 106.95 118.03 C 109.60 119.57 112.22 121.13 114.75 122.87 C 113.35 119.32 114.39 115.11 118.12 113.61 C 119.37 115.57 118.70 117.45 116.34 117.77 C 116.31 119.18 116.30 120.59 116.29 122.00 C 117.39 121.02 118.48 120.04 119.58 119.05 C 119.62 118.38 119.71 117.04 119.75 116.37 C 120.47 115.77 121.20 115.17 121.92 114.58 C 121.61 113.68 120.99 111.88 120.68 110.99 C 120.91 110.30 121.37 108.94 121.60 108.25 C 122.03 108.34 122.90 108.50 123.33 108.58 C 123.33 110.71 123.36 112.92 122.30 114.84 C 122.20 116.35 122.13 117.86 122.07 119.38 C 123.76 120.04 125.46 120.70 127.17 121.35 C 123.34 121.81 119.59 122.71 115.97 124.01 C 113.38 125.11 111.11 122.91 108.89 121.92 C 112.44 126.69 115.42 132.14 120.44 135.53 C 121.83 138.25 123.60 140.65 126.77 141.47 C 125.92 139.02 125.46 136.47 125.57 133.88 C 128.23 138.46 130.46 145.44 136.57 146.01 L 138.44 145.36 C 138.30 146.53 138.18 147.69 138.07 148.87 C 132.16 146.38 124.85 145.82 120.72 140.33 C 117.81 136.58 113.42 134.12 111.20 129.83 C 108.74 125.09 104.94 120.83 99.88 118.85 C 97.04 117.30 93.99 119.57 91.00 119.29 C 87.24 119.74 85.39 115.56 81.93 115.07 C 77.49 114.16 73.46 111.97 69.09 110.81 C 64.69 108.66 57.81 107.93 57.36 101.81 C 54.43 100.15 51.69 98.13 49.51 95.54 C 48.16 94.26 47.03 92.34 45.08 91.99 C 42.39 93.27 38.56 95.73 40.80 99.07 C 48.41 103.50 54.90 109.68 62.88 113.50 C 63.90 121.56 64.06 129.75 63.73 137.85 C 58.06 141.79 51.28 143.84 45.51 147.65 C 45.76 149.64 46.00 151.63 46.24 153.62 C 48.66 154.91 51.19 158.10 54.14 156.35 C 67.73 149.83 81.42 143.56 95.01 137.05 C 90.98 134.06 86.85 131.23 82.89 128.16 C 80.09 129.42 77.29 130.76 74.25 131.33 C 75.10 128.66 78.19 128.19 80.32 126.94 C 74.82 123.10 69.19 119.47 63.47 115.97 C 64.00 115.52 64.54 115.07 65.08 114.63 C 68.12 117.15 71.73 118.84 74.93 121.13 C 79.77 124.77 85.50 126.96 90.31 130.64 C 100.54 137.82 112.64 141.83 122.50 149.54 C 124.78 150.92 127.37 151.80 129.40 153.58 C 133.84 157.64 139.07 160.83 144.66 163.06 C 144.06 163.51 143.46 163.96 142.87 164.40 C 139.99 163.02 136.90 162.21 133.99 160.92 C 133.82 169.69 134.71 178.44 134.39 187.21 C 138.30 190.12 141.43 193.93 143.84 198.16 C 147.29 192.88 152.42 188.90 155.59 183.48 C 156.44 183.57 158.13 183.74 158.97 183.83 C 159.71 185.76 160.58 187.67 160.66 189.78 C 159.11 188.79 157.62 187.72 156.13 186.66 C 152.45 190.88 148.72 195.08 145.22 199.45 C 145.39 200.13 145.74 201.49 145.91 202.17 C 149.65 197.78 153.66 193.62 157.31 189.15 C 157.76 190.31 158.18 191.48 158.58 192.66 C 163.40 193.87 168.20 191.38 172.36 189.20 C 171.71 190.26 171.27 191.48 170.38 192.38 C 166.07 194.30 160.68 197.21 156.36 193.68 C 155.40 194.40 154.44 195.12 153.48 195.84 C 153.14 196.97 152.83 198.11 152.51 199.25 C 150.40 200.46 148.44 201.98 147.00 203.96 C 149.53 210.62 151.67 217.80 150.33 225.00 L 148.26 225.00 C 150.05 218.66 148.05 211.95 146.00 205.90 C 142.32 196.99 135.75 187.25 125.13 186.70 C 122.85 188.51 119.81 189.86 118.84 192.83 C 116.32 199.30 118.21 206.51 120.67 212.71 C 120.18 212.68 119.19 212.62 118.69 212.59 C 116.73 208.98 117.24 204.63 115.55 200.91 C 115.94 197.50 116.35 194.00 117.84 190.86 C 119.00 188.11 121.85 186.71 124.37 185.43 C 127.59 183.95 130.94 185.62 133.88 186.95 C 133.48 186.54 132.68 185.71 132.28 185.30 C 131.58 176.91 132.03 168.47 131.35 160.09 C 131.17 157.99 128.90 157.04 127.41 155.91 C 123.03 153.56 119.18 150.37 114.66 148.26 C 109.19 145.65 104.30 142.01 99.08 138.95 C 97.58 137.81 95.87 139.05 94.42 139.62 C 80.28 146.31 66.13 152.99 51.94 159.55 C 49.42 157.98 46.72 156.63 44.54 154.59 C 43.28 151.91 43.80 148.84 43.74 145.98 C 49.72 143.01 55.67 139.99 61.63 136.97 C 61.82 129.47 61.57 121.97 61.23 114.48 C 58.18 112.81 54.64 111.87 52.04 109.48 C 50.20 107.87 48.36 106.27 46.59 104.58 C 46.03 105.37 45.48 106.15 44.92 106.93 C 44.91 103.08 40.92 102.00 38.38 100.09 C 38.78 97.39 37.83 93.41 41.05 92.18 C 42.90 91.65 45.22 89.05 46.90 91.28 C 47.44 90.92 47.97 90.56 48.51 90.20 C 46.76 89.01 45.25 87.53 43.64 86.18 C 41.75 85.54 39.71 85.61 37.77 85.16 C 39.02 84.26 40.39 83.33 42.00 83.53 C 45.09 83.36 46.43 86.77 48.80 88.15 C 50.62 89.77 53.92 90.22 54.16 93.09 C 52.53 92.46 50.91 91.80 49.31 91.11 C 49.59 91.77 50.17 93.08 50.45 93.74 C 52.55 95.33 54.67 96.90 56.85 98.39 C 56.93 95.08 56.76 91.50 58.70 88.63 C 60.91 84.62 65.02 82.27 69.13 80.62 C 63.17 77.97 57.57 74.61 51.75 71.70 C 48.42 70.84 44.74 71.04 41.91 68.78 C 40.14 69.31 37.98 69.20 36.55 70.48 C 33.31 74.72 35.36 80.42 33.19 85.05 C 30.46 95.87 34.60 106.96 34.04 117.86 C 30.35 122.67 23.20 121.51 18.01 123.63 C 18.95 125.38 19.44 127.53 21.09 128.79 C 26.30 132.87 32.70 135.00 39.08 136.40 C 40.99 136.73 42.85 135.88 44.71 135.56 C 44.95 132.00 45.08 128.38 44.02 124.92 C 42.52 119.26 42.57 113.36 44.05 107.70 C 44.81 107.65 46.31 107.56 47.07 107.51 C 46.29 111.32 44.89 115.14 45.37 119.09 C 45.97 125.14 48.37 131.33 46.39 137.35 C 43.33 138.26 40.16 139.34 36.93 138.71 C 33.94 138.33 31.66 136.18 28.99 134.99 C 25.39 133.38 21.39 132.31 18.42 129.60 C 17.18 127.38 16.30 123.58 18.91 121.95 C 22.50 118.64 28.58 121.07 31.79 117.19 C 32.13 110.77 30.96 104.40 30.66 98.01 C 30.47 89.93 32.77 82.03 32.59 73.96 C 32.54 70.28 36.34 66.81 40.03 68.04 C 46.36 68.95 53.98 68.51 58.68 73.62 C 59.21 73.68 60.25 73.80 60.78 73.86 C 61.27 69.98 59.41 64.87 63.05 62.11 M 161.80 104.26 C 165.01 109.57 172.44 110.34 175.19 115.99 C 177.32 117.90 180.40 118.41 183.14 118.90 C 183.59 118.09 185.71 115.93 186.05 117.99 C 185.55 122.34 185.64 126.86 184.61 131.14 C 183.18 128.14 183.17 124.78 183.50 121.55 C 180.95 120.80 178.44 119.91 175.92 119.09 C 179.26 123.76 183.09 128.89 182.96 134.95 C 182.77 137.60 184.36 139.88 185.15 142.31 C 185.46 143.60 186.26 144.28 187.56 144.37 C 187.41 144.52 187.12 144.82 186.97 144.96 C 186.51 148.33 188.97 152.02 189.57 155.58 C 190.32 155.64 191.82 155.75 192.57 155.81 L 192.59 157.68 C 191.86 157.71 190.41 157.78 189.68 157.81 C 189.74 159.98 189.51 162.14 188.95 164.24 C 188.25 164.19 186.84 164.10 186.14 164.05 C 186.25 161.34 188.42 158.83 187.30 156.09 C 185.50 150.33 184.85 143.64 180.65 139.08 C 180.79 140.05 181.06 142.00 181.20 142.97 C 180.42 144.73 179.19 146.22 177.80 147.55 C 178.04 147.75 178.52 148.14 178.75 148.34 C 177.59 148.66 176.35 148.82 175.29 149.43 C 174.71 151.08 174.74 153.18 173.03 154.17 C 169.62 156.52 165.70 157.99 162.06 159.96 C 162.15 163.63 161.86 167.33 162.46 170.98 C 162.61 173.86 165.31 175.79 167.87 176.49 C 171.42 176.56 175.56 176.98 178.36 174.32 C 181.81 171.06 186.49 169.36 189.26 165.39 L 189.49 166.34 C 190.21 162.87 193.13 165.12 194.87 166.49 C 196.36 165.75 197.68 164.06 199.51 164.44 C 200.21 166.71 196.63 167.00 196.75 169.34 C 197.40 169.36 198.70 169.41 199.35 169.44 C 201.88 167.26 203.02 163.78 204.92 161.04 C 203.90 159.41 203.10 157.58 201.72 156.21 C 200.42 155.54 198.45 155.60 198.11 153.84 C 195.02 147.32 195.21 140.10 194.89 133.08 C 195.03 128.08 193.40 123.30 192.70 118.40 C 189.06 114.29 184.77 110.84 180.58 107.33 C 176.05 107.45 171.94 104.84 167.40 105.24 C 165.46 105.50 163.63 104.72 161.80 104.26 M 217.52 125.47 C 215.07 129.14 215.24 133.80 215.70 138.00 C 216.08 141.76 218.12 145.26 217.50 149.12 C 220.87 147.37 223.71 144.81 227.01 142.95 C 227.88 143.80 228.75 144.64 229.64 145.47 C 231.19 150.72 223.53 151.10 222.11 155.07 C 224.95 160.82 230.27 166.66 237.08 167.22 C 239.76 166.63 242.05 165.00 244.48 163.79 C 248.73 154.96 245.44 144.75 241.37 136.49 C 237.72 129.42 231.84 122.03 223.22 121.62 C 221.68 123.45 219.09 123.72 217.52 125.47 M 242.20 134.78 C 242.55 135.28 243.24 136.27 243.59 136.77 C 246.91 135.26 249.73 132.62 252.96 130.83 C 254.78 130.15 253.89 127.51 252.07 127.61 C 248.76 129.97 245.35 132.19 242.20 134.78 M 216.12 152.01 C 211.97 152.73 207.76 153.09 203.66 154.09 C 203.74 154.59 203.89 155.59 203.96 156.10 C 207.57 156.19 211.22 154.83 214.89 154.61 C 220.47 154.60 224.31 149.92 228.49 146.85 C 228.12 146.49 227.40 145.77 227.04 145.41 C 222.94 146.76 220.26 150.72 216.12 152.01 M 160.32 147.31 C 160.39 150.75 160.57 154.19 160.82 157.62 C 164.81 155.63 169.61 154.36 172.41 150.66 C 168.12 150.98 163.59 150.37 160.32 147.31 M 190.21 168.28 C 185.48 171.55 180.87 174.99 176.18 178.32 C 174.51 178.10 173.60 178.83 173.45 180.51 C 175.13 180.45 177.15 180.79 178.49 179.51 C 182.86 175.63 188.43 173.50 192.92 169.77 C 193.55 168.06 191.34 167.20 190.21 168.28 Z" />
<path fill="#333333" opacity="1.00" d=" M 66.00 69.09 C 70.32 70.31 75.36 68.77 79.09 71.72 C 74.94 71.63 70.79 71.67 66.66 71.24 C 66.50 70.70 66.17 69.62 66.00 69.09 Z" />
<path fill="#333333" opacity="1.00" d=" M 38.96 75.17 C 39.50 74.71 40.58 73.78 41.12 73.31 C 43.21 76.43 36.80 77.43 35.48 75.39 C 36.35 75.34 38.09 75.23 38.96 75.17 Z" />
<path fill="#333333" opacity="1.00" d=" M 35.30 93.93 C 35.73 91.85 36.75 89.95 37.55 88.00 C 37.20 90.98 36.45 93.92 36.28 96.93 C 36.39 102.29 37.32 107.59 37.40 112.95 C 36.22 109.72 35.01 106.36 34.86 102.93 C 36.00 100.04 34.98 96.92 35.30 93.93 Z" />
<path fill="#333333" opacity="1.00" d=" M 73.67 95.64 C 76.13 93.56 76.73 89.72 80.11 88.62 C 80.72 91.56 77.61 92.73 75.67 94.06 C 75.79 94.80 76.03 96.29 76.14 97.04 C 75.98 96.40 75.66 95.14 75.50 94.50 L 73.67 95.64 Z" />
<path fill="#333333" opacity="1.00" d=" M 86.99 96.70 C 87.73 94.31 89.35 92.36 90.57 90.20 L 90.48 92.36 C 91.12 91.83 92.39 90.77 93.03 90.24 C 94.35 90.34 95.68 90.43 97.00 90.53 C 92.83 91.26 91.14 96.58 86.99 96.70 Z" />
<path fill="#333333" opacity="1.00" d=" M 113.20 95.96 C 113.40 95.64 113.78 95.00 113.97 94.67 C 116.15 95.27 117.82 96.99 120.01 97.66 C 120.51 97.39 121.53 96.84 122.04 96.56 C 124.41 97.71 126.93 98.55 129.55 98.91 C 129.53 99.05 129.49 99.34 129.47 99.48 C 125.59 98.11 121.41 99.53 117.44 98.49 C 116.04 97.63 114.89 96.30 113.20 95.96 Z" />
<path fill="#333333" opacity="1.00" d=" M 103.31 97.83 C 103.72 97.39 104.53 96.51 104.94 96.07 C 106.67 98.03 107.86 100.44 109.74 102.30 C 111.76 104.21 111.38 107.15 111.19 109.65 C 108.14 108.67 109.99 104.06 107.03 102.84 C 105.34 101.11 101.27 101.77 101.47 98.60 C 102.39 98.59 104.24 98.58 105.16 98.58 C 104.70 98.39 103.77 98.01 103.31 97.83 Z" />
<path fill="#333333" opacity="1.00" d=" M 132.39 101.47 C 132.80 101.13 133.61 100.46 134.01 100.12 C 134.69 100.22 136.03 100.41 136.71 100.51 C 136.61 100.90 136.42 101.67 136.32 102.05 C 134.05 102.46 131.89 103.40 129.55 103.42 C 129.25 103.88 128.66 104.79 128.36 105.25 C 124.33 104.73 120.88 107.35 116.98 107.61 C 115.08 107.10 112.70 105.78 112.48 103.59 C 114.21 103.42 115.49 104.70 116.96 105.34 C 122.31 105.21 126.92 100.79 132.39 101.47 Z" />
<path fill="#333333" opacity="1.00" d=" M 115.33 109.36 C 115.82 109.40 116.80 109.46 117.29 109.49 C 117.31 111.22 117.79 113.47 115.24 113.05 C 115.26 111.82 115.29 110.59 115.33 109.36 Z" />
<path fill="#333333" opacity="1.00" d=" M 39.85 120.23 C 41.71 122.63 42.28 125.58 41.53 128.53 C 41.11 128.44 40.27 128.27 39.85 128.18 C 39.84 126.76 39.83 125.34 39.81 123.93 C 37.18 123.82 36.22 126.75 33.97 127.59 C 33.04 126.87 32.12 126.17 31.19 125.46 C 34.00 124.58 36.89 123.89 39.85 123.81 C 39.85 122.91 39.85 121.12 39.85 120.23 Z" />
<path fill="#333333" opacity="1.00" d=" M 223.10 123.25 C 226.03 124.28 228.73 125.94 230.65 128.43 C 236.66 134.64 240.43 142.71 242.38 151.07 C 242.97 155.12 244.25 159.87 241.76 163.56 C 241.44 163.60 240.80 163.69 240.48 163.73 C 242.61 155.30 240.07 146.40 236.04 138.94 C 233.11 133.15 228.60 128.00 222.78 125.04 C 222.86 124.59 223.02 123.69 223.10 123.25 Z" />
<path fill="#333333" opacity="1.00" d=" M 152.23 123.73 C 154.44 125.91 155.96 129.61 154.68 132.60 C 152.53 130.18 152.34 126.81 152.23 123.73 Z" />
<path fill="#333333" opacity="1.00" d=" M 136.32 132.09 C 137.73 131.66 139.19 131.45 140.65 131.30 C 140.60 131.83 140.50 132.88 140.44 133.40 C 138.96 133.28 137.13 133.74 136.32 132.09 Z" />
<path fill="#333333" opacity="1.00" d=" M 130.86 136.00 C 131.67 132.93 135.53 134.55 137.30 135.82 C 137.24 137.08 137.31 138.34 137.51 139.58 C 140.32 142.10 144.35 142.62 147.32 144.78 C 148.08 147.50 144.92 145.74 143.83 145.34 C 140.45 143.73 136.58 142.50 134.51 139.11 C 134.71 138.55 135.09 137.43 135.29 136.87 C 133.81 136.57 132.34 136.28 130.86 136.00 Z" />
<path fill="#333333" opacity="1.00" d=" M 147.15 138.09 C 149.09 138.30 151.50 140.60 150.35 142.55 C 148.30 142.15 147.13 140.06 147.15 138.09 Z" />
<path fill="#333333" opacity="1.00" d=" M 192.98 154.09 C 192.56 150.72 191.15 147.18 192.42 143.85 C 193.84 147.26 194.78 150.86 195.39 154.50 C 194.35 155.86 193.55 155.72 192.98 154.09 Z" />
<path fill="#333333" opacity="1.00" d=" M 139.07 149.06 C 138.98 147.60 138.97 146.14 139.04 144.69 C 141.27 148.87 143.74 153.03 147.31 156.22 C 148.15 160.21 149.71 164.00 150.90 167.89 C 152.31 172.90 152.71 178.10 153.40 183.23 C 153.31 184.59 152.85 185.88 152.08 187.00 C 149.93 184.06 150.40 180.51 150.20 177.13 C 148.55 170.83 146.09 164.86 144.51 158.54 C 143.74 154.81 140.28 152.56 139.07 149.06 Z" />
<path fill="#333333" opacity="1.00" d=" M 146.56 149.09 C 147.64 151.25 148.29 153.60 148.21 156.04 C 146.18 154.69 145.22 151.26 146.56 149.09 Z" />
<path fill="#333333" opacity="1.00" d=" M 194.64 161.85 C 194.87 159.99 194.08 157.64 195.90 156.36 C 196.21 156.94 196.84 158.11 197.15 158.70 C 199.13 158.50 201.16 158.83 202.05 160.84 C 199.56 161.05 197.08 161.33 194.64 161.85 Z" />
<path fill="#333333" opacity="1.00" d=" M 145.27 166.44 L 146.37 166.19 C 146.62 171.72 146.68 177.27 146.26 182.79 C 147.20 182.61 149.09 182.25 150.03 182.06 C 149.53 183.80 148.28 184.83 146.29 185.14 C 146.23 187.50 146.46 189.84 146.90 192.16 C 146.19 192.68 145.49 193.20 144.78 193.73 C 142.79 184.72 144.71 175.51 145.27 166.44 Z" />
<path fill="#333333" opacity="1.00" d=" M 125.73 188.53 C 129.39 189.67 132.22 192.54 134.68 195.36 C 141.36 203.72 145.33 214.28 145.43 225.00 L 143.41 225.00 C 143.57 218.98 142.35 212.94 139.78 207.49 C 136.72 200.15 131.76 193.18 124.35 189.76 C 124.70 189.45 125.39 188.83 125.73 188.53 Z" />
<path fill="#333333" opacity="1.00" d=" M 153.12 198.81 C 154.30 196.84 156.43 194.58 158.96 196.12 C 157.39 197.68 155.32 198.61 153.12 198.81 Z" />
<path fill="#333333" opacity="1.00" d=" M 113.99 199.72 C 116.42 202.78 116.06 206.97 116.95 210.59 C 112.96 208.51 114.44 203.34 113.99 199.72 Z" />
<path fill="#333333" opacity="1.00" d=" M 120.75 211.40 C 124.04 211.82 126.62 209.50 129.23 207.92 C 130.34 209.27 131.94 210.43 132.40 212.19 C 132.68 213.93 130.69 214.66 129.61 215.59 C 124.81 218.57 120.53 222.32 115.54 225.00 L 109.23 225.00 C 109.37 223.61 109.52 222.24 109.69 220.86 C 113.63 218.88 117.11 216.16 120.72 213.66 C 120.73 213.09 120.75 211.96 120.75 211.40 M 112.95 221.05 C 113.50 221.93 114.05 222.82 114.61 223.71 C 119.62 219.36 125.47 216.14 130.67 212.05 C 130.25 211.66 129.42 210.87 129.00 210.48 C 123.62 213.94 118.53 217.88 112.95 221.05 M 111.21 223.28 C 111.81 223.80 111.81 223.80 111.21 223.28 Z" />
<path fill="#333333" opacity="1.00" d=" M 122.87 220.96 C 125.26 221.08 126.24 223.50 127.70 225.00 L 125.39 225.00 C 124.46 223.71 123.64 222.35 122.87 220.96 Z" />
</g>
</svg>
