<?xml version="1.0" encoding="UTF-8" ?>
<!DOCTYPE svg PUBLIC "-//W3C//DTD SVG 1.1//EN" "http://www.w3.org/Graphics/SVG/1.1/DTD/svg11.dtd">
<svg width="212pt" height="275pt" viewBox="0 0 212 275" version="1.1" xmlns="http://www.w3.org/2000/svg">
<g id="#ffffffff">
<path fill="#FFFFFF" opacity="1.00" d=" M 0.00 0.00 L 212.00 0.00 L 212.00 275.00 L 0.00 275.00 L 0.00 0.00 M 105.94 32.53 C 105.37 35.86 106.47 39.09 107.75 42.12 C 109.34 45.98 112.80 48.56 115.33 51.76 C 116.72 54.28 117.87 56.99 120.00 59.01 C 123.72 62.68 124.39 68.12 125.79 72.91 C 127.52 78.27 124.16 83.70 125.34 89.11 C 125.84 91.76 125.84 94.78 123.94 96.91 C 121.43 99.94 120.17 103.92 116.96 106.37 C 116.55 109.41 116.75 112.50 116.35 115.55 C 115.69 115.01 115.05 114.45 114.42 113.88 C 114.32 108.59 111.49 103.44 113.11 98.14 C 115.71 97.97 116.40 95.22 117.60 93.42 C 117.97 93.54 118.69 93.79 119.05 93.92 C 117.46 89.10 120.54 84.66 120.27 79.84 C 119.98 76.96 122.74 75.36 124.36 73.43 C 121.25 72.28 119.53 76.12 118.90 78.55 C 118.98 83.34 119.00 88.28 117.09 92.79 C 115.87 93.62 114.89 94.71 113.99 95.86 C 114.24 91.50 113.99 87.08 112.68 82.88 C 113.74 80.74 115.01 78.71 116.38 76.75 C 114.79 72.26 113.75 67.61 112.77 62.95 C 112.16 59.80 109.87 57.39 108.23 54.74 C 108.75 54.50 109.79 54.02 110.31 53.79 C 109.85 52.88 109.38 51.98 108.92 51.08 C 108.34 51.67 107.75 52.26 107.16 52.85 C 105.79 52.85 104.41 52.87 103.04 52.91 C 102.46 51.64 100.86 50.58 101.26 49.04 C 101.55 46.13 105.28 45.42 106.17 42.92 C 104.87 43.10 103.68 43.58 102.59 44.36 C 100.01 42.44 96.47 38.35 93.22 41.25 C 91.63 42.35 89.31 43.69 90.04 46.03 C 91.51 52.90 95.56 59.77 102.02 62.95 C 105.13 63.38 108.10 60.53 109.09 57.72 C 111.02 62.35 111.95 67.28 113.17 72.12 C 115.45 77.94 110.10 83.36 111.71 89.31 C 109.22 90.59 107.90 93.22 105.49 94.58 C 106.87 88.10 106.53 81.39 105.05 74.96 C 102.46 72.14 99.04 69.63 94.99 70.04 C 90.78 69.53 86.51 72.77 85.98 76.97 C 85.89 83.54 88.78 89.83 87.48 96.43 C 89.16 94.21 89.03 91.37 89.24 88.74 C 89.91 90.63 90.64 92.54 92.06 94.02 C 91.77 94.66 91.50 95.31 91.24 95.98 L 91.38 96.60 C 92.77 98.06 94.07 99.60 95.37 101.15 C 92.78 101.84 90.36 102.98 88.01 104.25 C 85.58 103.41 82.89 102.97 80.62 104.47 C 82.84 104.87 85.07 105.14 87.30 105.54 C 86.41 105.79 84.62 106.29 83.73 106.53 C 84.26 107.21 84.79 107.89 85.32 108.58 C 88.69 105.57 92.60 103.07 97.31 103.12 C 97.83 103.48 98.87 104.21 99.40 104.58 C 100.62 101.11 104.39 100.13 106.70 97.65 C 108.24 96.05 109.08 93.96 110.14 92.05 C 110.76 92.12 111.99 92.27 112.60 92.34 C 112.63 93.70 112.68 95.06 112.73 96.42 C 108.67 101.26 112.78 107.14 112.09 112.53 C 110.43 112.95 108.78 113.39 107.14 113.88 C 107.12 115.07 107.08 116.26 107.04 117.44 C 108.70 117.83 110.30 118.44 111.88 119.09 C 111.49 116.88 109.50 115.92 107.59 115.17 C 109.18 114.87 110.77 114.56 112.36 114.24 C 113.08 115.13 113.98 115.80 115.10 116.08 C 114.42 118.30 115.26 120.34 116.38 122.22 C 116.31 123.24 116.15 125.29 116.08 126.31 C 115.16 124.81 114.59 123.08 113.47 121.72 C 112.17 121.20 110.84 120.84 109.46 120.62 L 109.59 122.63 C 110.13 122.54 111.22 122.34 111.76 122.25 C 111.66 122.57 111.46 123.21 111.35 123.53 C 113.05 124.84 114.63 126.38 116.76 126.98 C 116.60 130.07 115.43 132.93 113.91 135.57 C 113.54 135.06 113.18 134.54 112.83 134.01 C 114.08 131.93 114.78 129.60 115.26 127.23 C 111.93 128.92 112.06 133.01 111.45 136.18 C 111.95 136.01 112.95 135.67 113.44 135.50 C 113.03 138.03 112.84 140.60 112.71 143.16 C 113.09 143.52 113.85 144.24 114.22 144.60 C 111.02 145.56 107.81 146.45 104.56 147.22 C 100.81 142.92 97.62 137.39 91.72 135.84 C 93.13 137.67 95.05 139.00 97.21 139.79 C 98.06 143.39 100.78 145.56 103.87 147.23 C 98.72 146.18 93.37 146.32 88.35 144.70 C 87.91 142.77 87.43 140.84 86.96 138.92 C 87.53 138.68 88.67 138.21 89.24 137.97 C 87.75 137.21 86.24 136.49 84.75 135.74 C 87.58 135.68 90.25 134.78 92.97 134.12 C 95.88 133.83 97.60 136.48 99.62 138.08 C 101.09 137.65 102.57 137.26 104.06 136.90 C 105.08 136.03 106.10 135.16 107.14 134.31 C 107.45 137.18 106.78 140.45 108.65 142.91 C 109.33 140.10 108.98 137.20 107.89 134.55 C 109.05 132.63 109.61 130.47 109.18 128.25 C 108.59 127.41 108.02 126.56 107.47 125.70 C 107.94 125.21 108.88 124.25 109.35 123.77 C 108.98 119.45 104.41 118.67 101.20 117.20 C 102.87 117.38 104.93 116.71 105.59 115.03 C 105.30 112.18 103.90 109.63 102.54 107.17 C 102.26 107.17 101.71 107.18 101.43 107.18 C 102.66 109.47 103.52 111.93 104.06 114.48 C 101.23 116.15 96.78 117.00 96.09 120.74 C 93.31 120.36 90.51 120.15 87.72 119.89 C 86.57 118.88 85.38 117.92 84.14 117.03 C 84.28 120.65 87.89 121.78 90.87 122.43 C 90.64 122.79 90.19 123.50 89.96 123.86 C 91.81 124.42 93.66 124.96 95.53 125.45 C 94.99 124.85 93.92 123.66 93.39 123.07 C 95.85 121.93 97.99 120.28 100.14 118.65 C 100.53 119.12 100.93 119.60 101.31 120.09 C 100.74 121.79 100.19 123.51 99.75 125.25 C 101.33 123.75 102.29 121.78 102.98 119.75 C 104.34 120.50 105.70 121.28 107.04 122.09 C 106.75 122.88 106.46 123.67 106.17 124.47 C 103.16 124.58 101.34 126.94 100.48 129.59 C 98.98 129.01 97.49 128.39 96.04 127.71 C 94.35 127.63 92.67 127.53 90.99 127.39 C 89.71 128.66 88.30 129.79 86.72 130.68 C 86.70 129.57 86.65 127.34 86.62 126.22 C 85.78 127.33 84.22 129.02 85.87 130.24 C 87.48 132.74 90.22 130.86 91.93 129.57 C 94.47 129.55 96.93 130.11 99.24 131.17 C 101.54 129.52 103.48 127.44 105.72 125.70 C 108.35 126.85 108.31 130.75 106.80 132.81 C 105.25 133.28 103.68 132.88 102.16 132.56 C 102.66 133.23 103.17 133.90 103.68 134.58 C 103.03 135.12 101.75 136.21 101.10 136.75 C 99.69 135.56 98.41 134.20 96.90 133.12 C 94.94 132.60 92.90 132.49 90.91 132.08 C 89.51 133.24 87.96 134.22 86.17 134.63 C 85.95 133.77 85.51 132.04 85.29 131.17 C 85.02 131.85 84.46 133.22 84.19 133.90 C 82.54 132.40 80.82 130.97 79.06 129.59 C 79.81 126.38 80.92 123.29 82.48 120.38 C 83.70 118.43 82.56 116.27 82.05 114.29 C 79.02 115.16 75.75 116.69 75.27 120.18 C 76.42 119.31 77.50 118.35 78.55 117.35 C 79.25 116.99 80.67 116.28 81.38 115.93 C 81.07 118.17 80.83 120.47 79.76 122.51 C 77.95 125.14 77.49 128.38 76.17 131.24 C 75.02 133.72 72.92 135.53 71.07 137.48 C 72.11 137.10 73.14 136.72 74.17 136.35 C 75.20 140.68 75.00 145.21 73.54 149.42 C 71.79 154.28 72.62 159.71 74.86 164.26 C 76.43 166.51 78.80 168.29 79.24 171.18 C 77.28 172.24 75.51 173.60 73.81 175.03 C 71.13 173.73 68.52 172.28 66.18 170.44 C 66.80 168.73 67.64 167.10 68.09 165.35 C 66.72 153.95 63.37 142.45 65.94 130.97 C 66.66 128.13 65.42 124.83 67.47 122.42 C 70.43 118.26 69.52 112.87 71.32 108.30 C 72.20 106.54 74.08 105.69 75.66 104.68 C 78.14 103.27 80.14 101.14 82.64 99.75 C 84.37 98.78 86.13 97.78 87.34 96.16 C 81.70 97.62 77.18 101.42 72.52 104.70 C 68.90 107.41 67.69 112.40 68.91 116.65 C 67.80 118.55 66.76 120.49 65.70 122.43 C 63.73 124.46 64.75 127.34 64.49 129.85 C 64.21 132.68 63.61 135.47 63.13 138.27 C 62.58 138.47 61.49 138.89 60.94 139.09 C 59.96 142.33 60.93 145.48 63.71 147.46 C 63.46 154.71 67.82 162.03 64.83 169.11 C 65.22 170.35 65.63 171.59 66.04 172.83 C 62.08 174.22 58.09 175.56 54.26 177.30 C 54.13 180.13 53.73 183.35 56.63 184.96 C 61.72 182.87 66.91 181.08 72.08 179.22 C 66.35 178.13 61.49 182.31 56.01 183.21 C 55.88 181.49 55.81 179.77 55.75 178.05 C 59.51 176.59 63.48 175.51 66.86 173.23 C 69.04 174.93 71.31 176.68 74.07 177.29 C 76.63 175.52 78.96 173.44 81.42 171.54 C 81.34 170.81 81.18 169.35 81.10 168.62 C 83.49 168.05 85.79 167.18 87.98 166.07 C 87.99 167.90 88.03 169.73 88.12 171.57 C 84.49 173.10 80.11 173.61 77.39 176.73 C 81.30 175.91 84.99 174.34 88.65 172.80 C 89.46 175.43 89.76 178.15 89.82 180.90 C 89.74 182.72 92.20 182.76 93.43 183.25 C 98.44 190.75 95.96 200.12 93.09 207.92 C 90.53 213.93 93.62 220.08 94.75 226.02 C 95.81 230.70 93.90 235.50 95.16 240.15 C 95.34 244.34 98.13 247.85 98.07 252.07 C 101.35 256.42 108.05 257.70 112.47 254.41 C 115.15 254.61 116.29 252.52 116.08 250.10 C 112.35 245.68 108.82 241.06 106.29 235.83 C 104.47 231.53 105.17 226.78 105.00 222.26 C 105.51 222.93 106.02 223.60 106.53 224.27 C 115.17 220.80 123.96 217.73 132.66 214.44 C 135.55 213.89 135.01 210.44 135.79 208.31 C 133.71 207.34 131.59 205.29 129.14 206.22 C 124.58 207.61 120.12 209.35 115.60 210.89 C 115.74 203.38 116.09 195.88 116.02 188.37 C 122.71 186.88 129.33 185.02 135.76 182.65 C 138.06 182.05 137.32 179.18 137.44 177.42 C 139.35 179.34 141.67 180.79 144.27 181.57 C 143.83 186.04 142.79 190.48 143.06 195.00 C 144.05 198.52 146.47 201.46 147.27 205.06 C 149.56 212.08 144.32 218.82 145.84 225.96 C 148.35 227.24 151.12 227.70 153.90 227.18 C 157.00 226.48 159.62 228.45 162.27 229.68 C 166.94 230.50 172.72 229.88 175.19 225.23 C 174.15 224.19 173.23 222.99 172.01 222.16 C 170.04 221.41 167.76 221.28 166.17 219.77 C 163.39 217.42 161.45 214.17 158.24 212.29 C 155.86 205.55 157.88 198.31 156.48 191.42 C 155.54 186.29 155.92 181.01 156.85 175.92 C 156.41 172.08 154.93 167.71 151.22 165.85 C 148.86 164.68 146.49 163.49 144.54 161.69 C 141.38 158.88 137.37 157.41 133.77 155.32 C 129.32 151.95 123.39 152.46 118.13 151.91 C 117.27 150.44 116.38 148.98 115.44 147.57 C 115.90 143.43 115.86 139.26 115.99 135.11 C 118.26 130.05 118.86 124.29 117.35 118.93 C 118.77 114.90 116.45 110.07 119.68 106.73 C 122.55 102.82 125.20 98.60 126.39 93.85 C 126.92 89.65 126.64 85.39 127.40 81.21 C 128.11 78.13 126.75 75.11 127.06 72.03 C 127.50 69.18 125.71 66.73 125.02 64.09 C 123.68 59.57 120.13 56.29 117.27 52.71 C 120.00 53.00 122.06 51.13 124.25 49.86 C 124.45 47.62 124.70 45.26 123.73 43.14 C 121.46 37.29 117.53 31.30 111.18 29.50 C 109.25 30.13 107.69 31.54 105.94 32.53 M 113.96 103.02 C 115.60 103.57 117.72 100.11 116.04 99.20 C 114.68 99.70 113.36 101.59 113.96 103.02 M 86.32 100.21 C 84.88 101.16 86.26 103.94 87.77 102.53 C 89.19 101.58 87.80 98.72 86.32 100.21 M 83.52 115.11 C 85.47 115.23 87.42 115.39 89.38 115.50 C 88.60 114.31 87.69 113.03 86.15 112.85 C 85.22 113.54 84.37 114.33 83.52 115.11 Z" />
<path fill="#FFFFFF" opacity="1.00" d=" M 109.97 30.83 C 114.81 31.01 117.69 35.37 120.16 38.95 C 122.22 41.89 123.24 45.48 122.82 49.07 C 119.09 49.20 116.35 46.34 114.26 43.62 C 111.51 39.94 109.48 35.52 109.97 30.83 Z" />
<path fill="#FFFFFF" opacity="1.00" d=" M 107.31 32.15 C 109.03 36.18 110.02 40.62 112.80 44.13 C 114.67 47.06 117.45 49.16 120.16 51.26 C 116.32 50.64 113.36 47.88 111.20 44.81 C 108.64 41.14 106.80 36.72 107.31 32.15 Z" />
<path fill="#FFFFFF" opacity="1.00" d=" M 94.30 41.42 C 97.34 41.48 99.65 43.46 101.95 45.17 C 101.46 45.60 100.47 46.46 99.98 46.88 C 99.57 48.29 99.15 49.70 98.70 51.09 C 100.89 52.95 102.89 55.50 106.02 55.59 C 106.56 55.97 107.64 56.74 108.18 57.12 C 107.13 58.03 106.07 58.94 105.01 59.83 C 98.58 56.05 93.94 49.06 94.30 41.42 Z" />
<path fill="#FFFFFF" opacity="1.00" d=" M 91.98 43.02 L 92.50 43.04 C 93.21 50.48 98.17 56.68 103.90 61.11 C 100.40 61.28 98.02 58.41 95.95 56.00 C 93.01 52.36 91.48 47.71 91.98 43.02 Z" />
<path fill="#FFFFFF" opacity="1.00" d=" M 90.56 72.33 C 95.31 70.09 101.88 72.17 104.06 77.08 C 104.88 80.99 104.76 85.06 104.42 89.03 C 104.26 91.63 102.33 93.78 100.06 94.87 C 96.28 95.09 90.70 92.93 91.90 88.21 C 90.30 86.89 88.84 85.41 87.53 83.79 C 87.89 83.13 88.25 82.47 88.60 81.81 C 86.27 78.97 87.69 74.28 90.56 72.33 Z" />
<path fill="#FFFFFF" opacity="1.00" d=" M 96.06 101.27 C 95.31 99.20 92.15 97.24 93.55 94.95 C 97.82 97.52 102.56 95.92 107.07 95.21 C 104.68 97.74 101.60 99.54 99.50 102.34 C 98.36 101.98 97.21 101.62 96.06 101.27 Z" />
<path fill="#FFFFFF" opacity="1.00" d=" M 75.13 135.60 C 76.18 134.16 77.22 132.71 78.26 131.26 C 79.95 132.76 81.68 134.24 83.47 135.62 C 84.03 136.47 84.59 137.32 85.15 138.17 C 85.46 140.57 86.00 142.93 86.60 145.28 C 85.47 147.06 84.25 148.77 82.89 150.39 C 82.80 153.65 83.49 156.94 85.16 159.78 C 85.52 161.01 85.86 162.24 86.18 163.49 C 82.48 160.67 79.20 157.34 75.39 154.65 C 75.14 153.79 74.88 152.95 74.63 152.10 C 76.93 146.83 75.95 141.07 75.13 135.60 Z" />
<path fill="#FFFFFF" opacity="1.00" d=" M 62.36 140.03 C 62.64 140.05 63.21 140.07 63.49 140.08 C 63.57 141.80 63.67 143.52 63.78 145.24 C 63.19 144.52 62.61 143.80 62.02 143.09 C 62.10 142.32 62.27 140.80 62.36 140.03 Z" />
<path fill="#FFFFFF" opacity="1.00" d=" M 87.75 145.97 C 91.85 148.25 96.58 148.58 101.13 149.23 C 104.42 149.73 107.57 148.43 110.70 147.65 C 111.92 148.25 113.15 148.84 114.37 149.42 C 115.17 150.63 115.73 152.12 117.00 152.92 C 120.71 154.21 124.75 153.77 128.51 154.87 C 125.37 156.81 122.42 159.47 121.11 163.00 C 120.70 165.96 120.35 168.93 119.86 171.88 C 118.37 170.39 116.90 168.72 114.81 168.10 C 112.82 168.26 110.87 168.73 108.89 169.03 C 108.93 169.83 109.02 171.43 109.06 172.23 C 105.98 168.32 100.31 168.17 95.99 169.84 C 93.49 170.70 92.56 173.38 91.17 175.38 C 89.67 170.33 88.59 164.28 91.65 159.59 C 93.17 157.10 95.07 154.87 96.48 152.32 C 99.20 153.11 101.90 152.48 104.35 151.21 C 99.37 151.21 94.47 150.47 89.77 148.79 C 88.50 151.18 87.58 153.77 87.93 156.53 C 88.87 154.46 89.72 152.34 90.63 150.26 C 92.09 150.81 93.55 151.36 95.01 151.93 C 93.37 155.77 89.04 156.84 86.67 159.98 C 85.54 157.35 84.97 154.55 84.22 151.80 C 84.92 149.58 86.32 147.76 87.75 145.97 M 113.47 150.51 C 107.65 150.88 102.37 154.09 98.56 158.39 C 101.53 157.82 103.79 155.69 106.42 154.36 C 108.79 153.12 111.28 152.07 113.47 150.51 M 102.50 158.17 C 105.77 157.29 108.87 155.90 112.17 155.14 C 113.43 154.98 114.34 154.12 115.16 153.24 C 110.71 154.14 106.04 155.11 102.50 158.17 M 95.87 162.47 C 99.04 162.63 102.35 162.33 104.85 160.16 C 101.74 160.38 98.72 161.22 95.87 162.47 Z" />
<path fill="#FFFFFF" opacity="1.00" d=" M 75.14 157.32 C 76.59 157.20 76.45 159.74 75.70 160.51 C 74.31 160.56 74.39 158.08 75.14 157.32 Z" />
<path fill="#FFFFFF" opacity="1.00" d=" M 125.43 159.45 C 126.86 157.74 129.02 156.80 131.23 156.75 C 136.56 157.97 141.23 161.05 145.45 164.42 C 147.56 166.17 150.31 166.89 152.40 168.66 C 153.76 170.61 154.40 172.95 155.47 175.07 C 154.65 180.69 153.37 186.49 154.67 192.13 C 155.81 198.90 154.02 206.00 156.66 212.53 C 159.31 215.16 161.87 217.87 164.27 220.73 C 166.70 223.57 171.22 222.83 173.40 225.97 C 169.41 229.27 163.91 228.61 159.52 226.49 C 155.64 224.38 150.78 227.60 147.24 224.60 C 147.72 221.05 147.83 217.40 148.97 213.98 C 149.10 210.65 149.32 207.29 148.90 203.98 C 148.27 201.17 146.24 198.87 145.85 195.99 C 144.72 191.56 145.29 186.95 144.58 182.47 C 145.82 181.98 147.05 181.48 148.28 180.96 C 145.22 179.79 141.98 178.86 139.53 176.55 C 134.32 172.14 126.80 175.80 121.40 171.77 C 123.29 167.79 122.05 162.70 125.43 159.45 M 145.51 167.46 C 146.19 169.47 146.99 171.44 147.80 173.40 C 147.27 174.36 146.71 175.31 146.12 176.23 C 142.92 176.02 140.63 173.58 138.11 171.92 C 139.29 173.92 140.73 176.09 143.14 176.69 C 145.41 177.31 147.43 175.91 149.33 174.92 C 149.08 172.02 148.09 169.09 145.51 167.46 M 150.32 215.27 C 149.36 216.83 149.75 219.09 150.83 220.51 C 152.06 221.65 151.84 219.26 151.50 218.72 C 150.97 217.75 151.68 215.48 150.32 215.27 Z" />
<path fill="#FFFFFF" opacity="1.00" d=" M 77.09 158.26 C 79.83 160.70 82.58 163.13 85.43 165.46 C 83.83 166.22 82.24 167.00 80.67 167.81 C 79.48 166.49 78.19 165.25 77.20 163.76 C 76.68 161.97 77.12 160.08 77.09 158.26 Z" />
<path fill="#FFFFFF" opacity="1.00" d=" M 90.06 158.94 C 90.63 158.34 90.63 158.34 90.06 158.94 Z" />
<path fill="#FFFFFF" opacity="1.00" d=" M 88.33 162.59 C 87.98 161.39 88.44 158.70 90.06 158.94 C 90.58 160.13 89.71 162.60 88.33 162.59 Z" />
<path fill="#FFFFFF" opacity="1.00" d=" M 111.28 171.35 C 112.23 170.89 113.18 170.45 114.16 170.04 C 115.85 170.89 116.78 172.61 117.78 174.13 C 119.03 174.08 120.29 174.00 121.55 173.91 C 125.86 176.47 130.93 176.37 135.77 176.34 L 134.90 176.99 C 135.18 178.12 135.51 179.26 135.66 180.43 C 128.42 183.70 120.46 184.85 113.01 187.46 C 113.59 182.89 112.59 178.38 110.51 174.31 C 110.70 173.57 111.09 172.09 111.28 171.35 Z" />
<path fill="#FFFFFF" opacity="1.00" d=" M 91.96 177.45 C 93.47 175.34 94.57 172.62 96.99 171.39 C 99.86 170.73 102.89 170.98 105.76 171.54 C 110.01 176.02 111.66 182.16 111.66 188.22 C 110.83 185.56 109.26 183.25 106.74 181.95 C 107.38 183.21 108.09 184.43 108.83 185.64 C 109.07 186.77 109.30 187.91 109.53 189.05 C 109.98 189.20 110.88 189.50 111.34 189.65 C 110.76 189.54 109.61 189.31 109.03 189.20 C 109.81 192.09 108.69 194.81 107.62 197.44 C 105.97 204.34 100.32 210.37 102.31 217.91 C 104.41 214.42 103.77 210.11 105.18 206.36 L 106.05 206.35 C 106.09 209.60 106.53 213.04 105.15 216.11 C 103.14 220.78 102.36 226.04 103.47 231.04 C 100.55 232.72 98.91 235.63 97.83 238.73 C 99.69 237.88 100.84 236.26 101.56 234.40 C 102.37 233.80 103.17 233.18 103.96 232.56 C 105.11 240.03 110.80 245.63 115.04 251.56 C 114.47 251.96 113.32 252.74 112.75 253.14 C 111.98 252.03 111.23 250.91 110.50 249.78 C 107.02 250.30 103.15 249.43 100.01 251.21 C 100.16 246.16 96.57 242.00 96.11 237.05 C 96.31 234.32 97.08 231.60 96.63 228.86 C 96.15 223.79 93.96 219.06 93.59 213.98 C 93.50 209.77 95.14 205.81 96.49 201.91 C 97.71 204.19 98.69 206.62 100.30 208.68 C 99.64 203.44 96.86 198.44 97.68 193.06 C 98.15 187.26 95.74 181.76 91.96 177.45 M 100.51 186.53 C 103.14 186.06 104.80 183.98 105.96 181.75 C 103.89 183.03 102.05 184.65 100.51 186.53 M 103.14 196.24 C 103.29 197.90 106.25 198.00 106.49 196.35 C 106.26 194.80 103.39 194.62 103.14 196.24 Z" />
<path fill="#FFFFFF" opacity="1.00" d=" M 91.21 180.26 C 91.81 180.77 91.81 180.77 91.21 180.26 Z" />
<path fill="#FFFFFF" opacity="1.00" d=" M 108.57 199.87 C 109.97 195.67 111.30 191.42 113.26 187.44 C 115.34 190.28 114.09 193.76 114.10 196.94 C 113.94 202.27 113.85 207.61 114.04 212.94 C 119.15 211.60 124.07 209.65 129.09 208.05 C 130.79 207.22 132.42 208.64 134.03 209.02 C 133.66 210.21 133.30 211.39 132.92 212.58 C 124.27 215.83 115.51 218.83 106.98 222.41 C 106.46 221.90 105.94 221.39 105.42 220.88 C 106.20 218.64 107.17 216.46 107.72 214.14 C 108.67 209.43 107.01 204.50 108.57 199.87 Z" />
<path fill="#FFFFFF" opacity="1.00" d=" M 100.81 252.35 C 101.88 252.09 102.95 251.84 104.03 251.60 C 106.50 252.06 109.39 250.61 111.28 252.88 C 108.05 255.13 103.82 254.90 100.81 252.35 Z" />
</g>
<g id="#505150ff">
<path fill="#333333" opacity="1.00" d=" M 105.94 32.53 C 107.69 31.54 109.25 30.13 111.18 29.50 C 117.53 31.30 121.46 37.29 123.73 43.14 C 124.70 45.26 124.45 47.62 124.25 49.86 C 122.06 51.13 120.00 53.00 117.27 52.71 C 120.13 56.29 123.68 59.57 125.02 64.09 C 125.71 66.73 127.50 69.18 127.06 72.03 C 126.75 75.11 128.11 78.13 127.40 81.21 C 126.64 85.39 126.92 89.65 126.39 93.85 C 125.20 98.60 122.55 102.82 119.68 106.73 C 116.45 110.07 118.77 114.90 117.35 118.93 C 118.86 124.29 118.26 130.05 115.99 135.11 C 115.86 139.26 115.90 143.43 115.44 147.57 C 116.38 148.98 117.27 150.44 118.13 151.91 C 123.39 152.46 129.32 151.95 133.77 155.32 C 137.37 157.41 141.38 158.88 144.54 161.69 C 146.49 163.49 148.86 164.68 151.22 165.85 C 154.93 167.71 156.41 172.08 156.85 175.92 C 155.92 181.01 155.54 186.29 156.48 191.42 C 157.88 198.31 155.86 205.55 158.24 212.29 C 161.45 214.17 163.39 217.42 166.17 219.77 C 167.76 221.28 170.04 221.41 172.01 222.16 C 173.23 222.99 174.15 224.19 175.19 225.23 C 172.72 229.88 166.94 230.50 162.27 229.68 C 159.62 228.45 157.00 226.48 153.90 227.18 C 151.12 227.70 148.35 227.24 145.84 225.96 C 144.32 218.82 149.56 212.08 147.27 205.06 C 146.47 201.46 144.05 198.52 143.06 195.00 C 142.79 190.48 143.83 186.04 144.27 181.57 C 141.67 180.79 139.35 179.34 137.44 177.42 C 137.32 179.18 138.06 182.05 135.76 182.65 C 129.33 185.02 122.71 186.88 116.02 188.37 C 116.09 195.88 115.74 203.38 115.60 210.89 C 120.12 209.35 124.58 207.61 129.14 206.22 C 131.59 205.29 133.71 207.34 135.79 208.31 C 135.01 210.44 135.55 213.89 132.66 214.44 C 123.96 217.73 115.17 220.80 106.53 224.27 C 106.02 223.60 105.51 222.93 105.00 222.26 C 105.17 226.78 104.47 231.53 106.29 235.83 C 108.82 241.06 112.35 245.68 116.08 250.10 C 116.29 252.52 115.15 254.61 112.47 254.41 C 108.05 257.70 101.35 256.42 98.07 252.07 C 98.13 247.85 95.34 244.34 95.16 240.15 C 93.90 235.50 95.81 230.70 94.75 226.02 C 93.62 220.08 90.53 213.93 93.09 207.92 C 95.96 200.12 98.44 190.75 93.43 183.25 C 92.20 182.76 89.74 182.72 89.82 180.90 C 89.76 178.15 89.46 175.43 88.65 172.80 C 84.99 174.34 81.30 175.91 77.39 176.73 C 80.11 173.61 84.49 173.10 88.12 171.57 C 88.03 169.73 87.99 167.90 87.98 166.07 C 85.79 167.18 83.49 168.05 81.10 168.62 C 81.18 169.35 81.34 170.81 81.42 171.54 C 78.96 173.44 76.63 175.52 74.07 177.29 C 71.31 176.68 69.04 174.93 66.86 173.23 C 63.48 175.51 59.51 176.59 55.75 178.05 C 55.81 179.77 55.88 181.49 56.01 183.21 C 61.49 182.31 66.35 178.13 72.08 179.22 C 66.91 181.08 61.72 182.87 56.63 184.96 C 53.73 183.35 54.13 180.13 54.26 177.30 C 58.09 175.56 62.08 174.22 66.04 172.83 C 65.63 171.59 65.22 170.35 64.83 169.11 C 67.82 162.03 63.46 154.71 63.71 147.46 C 60.93 145.48 59.96 142.33 60.94 139.09 C 61.49 138.89 62.58 138.47 63.13 138.27 C 63.61 135.47 64.21 132.68 64.49 129.85 C 64.75 127.34 63.73 124.46 65.70 122.43 C 66.76 120.49 67.80 118.55 68.91 116.65 C 67.69 112.40 68.90 107.41 72.52 104.70 C 77.18 101.42 81.70 97.62 87.34 96.16 C 86.13 97.78 84.37 98.78 82.64 99.75 C 80.14 101.14 78.14 103.27 75.66 104.68 C 74.08 105.69 72.20 106.54 71.32 108.30 C 69.52 112.87 70.43 118.26 67.47 122.42 C 65.42 124.83 66.66 128.13 65.94 130.97 C 63.37 142.45 66.72 153.95 68.09 165.35 C 67.64 167.10 66.80 168.73 66.18 170.44 C 68.52 172.28 71.13 173.73 73.81 175.03 C 75.51 173.60 77.28 172.24 79.24 171.18 C 78.80 168.29 76.43 166.51 74.86 164.26 C 72.62 159.71 71.79 154.28 73.54 149.42 C 75.00 145.21 75.20 140.68 74.17 136.35 C 73.14 136.72 72.11 137.10 71.07 137.48 C 72.92 135.53 75.02 133.72 76.17 131.24 C 77.49 128.38 77.95 125.14 79.76 122.51 C 80.83 120.47 81.07 118.17 81.38 115.93 C 80.67 116.28 79.25 116.99 78.55 117.35 C 77.50 118.35 76.42 119.31 75.27 120.18 C 75.75 116.69 79.02 115.16 82.05 114.29 C 82.56 116.27 83.70 118.43 82.48 120.38 C 80.92 123.29 79.81 126.38 79.06 129.59 C 80.82 130.97 82.54 132.40 84.19 133.90 C 84.46 133.22 85.02 131.85 85.29 131.17 C 85.51 132.04 85.95 133.77 86.17 134.63 C 87.96 134.22 89.51 133.24 90.91 132.08 C 92.90 132.49 94.94 132.60 96.90 133.12 C 98.41 134.20 99.69 135.56 101.10 136.75 C 101.75 136.21 103.03 135.12 103.68 134.58 C 103.17 133.90 102.66 133.23 102.16 132.56 C 103.68 132.88 105.25 133.28 106.80 132.81 C 108.31 130.75 108.35 126.85 105.72 125.70 C 103.48 127.44 101.54 129.52 99.24 131.17 C 96.93 130.11 94.47 129.55 91.93 129.57 C 90.22 130.86 87.48 132.74 85.87 130.24 C 84.22 129.02 85.78 127.33 86.62 126.22 C 86.65 127.34 86.70 129.57 86.72 130.68 C 88.30 129.79 89.71 128.66 90.99 127.39 C 92.67 127.53 94.35 127.63 96.04 127.71 C 97.49 128.39 98.98 129.01 100.48 129.59 C 101.34 126.94 103.16 124.58 106.17 124.47 C 106.46 123.67 106.75 122.88 107.04 122.09 C 105.70 121.28 104.34 120.50 102.98 119.75 C 102.29 121.78 101.33 123.75 99.75 125.25 C 100.19 123.51 100.74 121.79 101.31 120.09 C 100.93 119.60 100.53 119.12 100.14 118.65 C 97.99 120.28 95.85 121.93 93.39 123.07 C 93.92 123.66 94.99 124.85 95.53 125.45 C 93.66 124.96 91.81 124.42 89.96 123.86 C 90.19 123.50 90.64 122.79 90.87 122.43 C 87.89 121.78 84.28 120.65 84.14 117.03 C 85.38 117.92 86.57 118.88 87.72 119.89 C 90.51 120.15 93.31 120.36 96.09 120.74 C 96.78 117.00 101.23 116.15 104.06 114.48 C 103.52 111.93 102.66 109.47 101.43 107.18 C 101.71 107.18 102.26 107.17 102.54 107.17 C 103.90 109.63 105.30 112.18 105.59 115.03 C 104.93 116.71 102.87 117.38 101.20 117.20 C 104.41 118.67 108.98 119.45 109.35 123.77 C 108.88 124.25 107.94 125.21 107.47 125.70 C 108.02 126.56 108.59 127.41 109.18 128.25 C 109.61 130.47 109.05 132.63 107.89 134.55 C 108.98 137.20 109.33 140.10 108.65 142.91 C 106.78 140.45 107.45 137.18 107.14 134.31 C 106.10 135.16 105.08 136.03 104.06 136.90 C 102.57 137.26 101.09 137.65 99.62 138.08 C 97.60 136.48 95.88 133.83 92.97 134.12 C 90.25 134.78 87.58 135.68 84.75 135.74 C 86.24 136.49 87.75 137.21 89.24 137.97 C 88.67 138.21 87.53 138.68 86.96 138.92 C 87.43 140.84 87.91 142.77 88.35 144.70 C 93.37 146.32 98.72 146.18 103.87 147.23 C 100.78 145.56 98.06 143.39 97.21 139.79 C 95.05 139.00 93.13 137.67 91.72 135.84 C 97.62 137.39 100.81 142.92 104.56 147.22 C 107.81 146.45 111.02 145.56 114.22 144.60 C 113.85 144.24 113.09 143.52 112.71 143.16 C 112.84 140.60 113.03 138.03 113.44 135.50 C 112.95 135.67 111.95 136.01 111.45 136.18 C 112.06 133.01 111.93 128.92 115.26 127.23 C 114.78 129.60 114.08 131.93 112.83 134.01 C 113.18 134.54 113.54 135.06 113.91 135.57 C 115.43 132.93 116.60 130.07 116.76 126.98 C 114.63 126.38 113.05 124.84 111.35 123.53 C 111.46 123.21 111.66 122.57 111.76 122.25 C 111.22 122.34 110.13 122.54 109.59 122.63 L 109.46 120.62 C 110.84 120.84 112.17 121.20 113.47 121.72 C 114.59 123.08 115.16 124.81 116.08 126.31 C 116.15 125.29 116.31 123.24 116.38 122.22 C 115.26 120.34 114.42 118.30 115.10 116.08 C 113.98 115.80 113.08 115.13 112.36 114.24 C 110.77 114.56 109.18 114.87 107.59 115.17 C 109.50 115.92 111.49 116.88 111.88 119.09 C 110.30 118.44 108.70 117.83 107.04 117.44 C 107.08 116.26 107.12 115.07 107.14 113.88 C 108.78 113.39 110.43 112.95 112.09 112.53 C 112.78 107.14 108.67 101.26 112.73 96.42 C 112.68 95.06 112.63 93.70 112.60 92.34 C 111.99 92.27 110.76 92.12 110.14 92.05 C 109.08 93.96 108.24 96.05 106.70 97.65 C 104.39 100.13 100.62 101.11 99.40 104.58 C 98.87 104.21 97.83 103.48 97.31 103.12 C 92.60 103.07 88.69 105.57 85.32 108.58 C 84.79 107.89 84.26 107.21 83.73 106.53 C 84.62 106.29 86.41 105.79 87.30 105.54 C 85.07 105.14 82.84 104.87 80.62 104.47 C 82.89 102.97 85.58 103.41 88.01 104.25 C 90.36 102.98 92.78 101.84 95.37 101.15 C 94.07 99.60 92.77 98.06 91.38 96.60 L 91.24 95.98 C 91.50 95.31 91.77 94.66 92.06 94.02 C 90.64 92.54 89.91 90.63 89.24 88.74 C 89.03 91.37 89.16 94.21 87.48 96.43 C 88.78 89.83 85.89 83.54 85.98 76.97 C 86.51 72.77 90.78 69.53 94.99 70.04 C 99.04 69.63 102.46 72.14 105.05 74.96 C 106.53 81.39 106.87 88.10 105.49 94.58 C 107.90 93.22 109.22 90.59 111.71 89.31 C 110.10 83.36 115.45 77.94 113.17 72.12 C 111.95 67.28 111.02 62.35 109.09 57.72 C 108.10 60.53 105.13 63.38 102.02 62.95 C 95.56 59.77 91.51 52.90 90.04 46.03 C 89.31 43.69 91.63 42.35 93.22 41.25 C 96.47 38.35 100.01 42.44 102.59 44.36 C 103.68 43.58 104.87 43.10 106.17 42.92 C 105.28 45.42 101.55 46.13 101.26 49.04 C 100.86 50.58 102.46 51.64 103.04 52.91 C 104.41 52.87 105.79 52.85 107.16 52.85 C 107.75 52.26 108.34 51.67 108.92 51.08 C 109.38 51.98 109.85 52.88 110.31 53.79 C 109.79 54.02 108.75 54.50 108.23 54.74 C 109.87 57.39 112.16 59.80 112.77 62.95 C 113.75 67.61 114.79 72.26 116.38 76.75 C 115.01 78.71 113.74 80.74 112.68 82.88 C 113.99 87.08 114.24 91.50 113.99 95.86 C 114.89 94.71 115.87 93.62 117.09 92.79 C 119.00 88.28 118.98 83.34 118.90 78.55 C 119.53 76.12 121.25 72.28 124.36 73.43 C 122.74 75.36 119.98 76.96 120.27 79.84 C 120.54 84.66 117.46 89.10 119.05 93.92 C 118.69 93.79 117.97 93.54 117.60 93.42 C 116.40 95.22 115.71 97.97 113.11 98.14 C 111.49 103.44 114.32 108.59 114.42 113.88 C 115.05 114.45 115.69 115.01 116.35 115.55 C 116.75 112.50 116.55 109.41 116.96 106.37 C 120.17 103.92 121.43 99.94 123.94 96.91 C 125.84 94.78 125.84 91.76 125.34 89.11 C 124.16 83.70 127.52 78.27 125.79 72.91 C 124.39 68.12 123.72 62.68 120.00 59.01 C 117.87 56.99 116.72 54.28 115.33 51.76 C 112.80 48.56 109.34 45.98 107.75 42.12 C 106.47 39.09 105.37 35.86 105.94 32.53 M 109.97 30.83 C 109.48 35.52 111.51 39.94 114.26 43.62 C 116.35 46.34 119.09 49.20 122.82 49.07 C 123.24 45.48 122.22 41.89 120.16 38.95 C 117.69 35.37 114.81 31.01 109.97 30.83 M 107.31 32.15 C 106.80 36.72 108.64 41.14 111.20 44.81 C 113.36 47.88 116.32 50.64 120.16 51.26 C 117.45 49.16 114.67 47.06 112.80 44.13 C 110.02 40.62 109.03 36.18 107.31 32.15 M 94.30 41.42 C 93.94 49.06 98.58 56.05 105.01 59.83 C 106.07 58.94 107.13 58.03 108.18 57.12 C 107.64 56.74 106.56 55.97 106.02 55.59 C 102.89 55.50 100.89 52.95 98.70 51.09 C 99.15 49.70 99.57 48.29 99.98 46.88 C 100.47 46.46 101.46 45.60 101.95 45.17 C 99.65 43.46 97.34 41.48 94.30 41.42 M 91.98 43.02 C 91.48 47.71 93.01 52.36 95.95 56.00 C 98.02 58.41 100.40 61.28 103.90 61.11 C 98.17 56.68 93.21 50.48 92.50 43.04 L 91.98 43.02 M 90.56 72.33 C 87.69 74.28 86.27 78.97 88.60 81.81 C 88.25 82.47 87.89 83.13 87.53 83.79 C 88.84 85.41 90.30 86.89 91.90 88.21 C 90.70 92.93 96.28 95.09 100.06 94.87 C 102.33 93.78 104.26 91.63 104.42 89.03 C 104.76 85.06 104.88 80.99 104.06 77.08 C 101.88 72.17 95.31 70.09 90.56 72.33 M 96.06 101.27 C 97.21 101.62 98.36 101.98 99.50 102.34 C 101.60 99.54 104.68 97.74 107.07 95.21 C 102.56 95.92 97.82 97.52 93.55 94.95 C 92.15 97.24 95.31 99.20 96.06 101.27 M 75.13 135.60 C 75.95 141.07 76.93 146.83 74.63 152.10 C 74.88 152.95 75.14 153.79 75.39 154.65 C 79.20 157.34 82.48 160.67 86.18 163.49 C 85.86 162.24 85.52 161.01 85.16 159.78 C 83.49 156.94 82.80 153.65 82.89 150.39 C 84.25 148.77 85.47 147.06 86.60 145.28 C 86.00 142.93 85.46 140.57 85.15 138.17 C 84.59 137.32 84.03 136.47 83.47 135.62 C 81.68 134.24 79.95 132.76 78.26 131.26 C 77.22 132.71 76.18 134.16 75.13 135.60 M 62.36 140.03 C 62.27 140.80 62.10 142.32 62.02 143.09 C 62.61 143.80 63.19 144.52 63.78 145.24 C 63.67 143.52 63.57 141.80 63.49 140.08 C 63.21 140.07 62.64 140.05 62.36 140.03 M 87.75 145.97 C 86.32 147.76 84.92 149.58 84.22 151.80 C 84.97 154.55 85.54 157.35 86.67 159.98 C 89.04 156.84 93.37 155.77 95.01 151.93 C 93.55 151.36 92.09 150.81 90.63 150.26 C 89.72 152.34 88.87 154.46 87.93 156.53 C 87.58 153.77 88.50 151.18 89.77 148.79 C 94.47 150.47 99.37 151.21 104.35 151.21 C 101.90 152.48 99.20 153.11 96.48 152.32 C 95.07 154.87 93.17 157.10 91.65 159.59 C 88.59 164.28 89.67 170.33 91.17 175.38 C 92.56 173.38 93.49 170.70 95.99 169.84 C 100.31 168.17 105.98 168.32 109.06 172.23 C 109.02 171.43 108.93 169.83 108.89 169.03 C 110.87 168.73 112.82 168.26 114.81 168.10 C 116.90 168.72 118.37 170.39 119.86 171.88 C 120.35 168.93 120.70 165.96 121.11 163.00 C 122.42 159.47 125.37 156.81 128.51 154.87 C 124.75 153.77 120.71 154.21 117.00 152.92 C 115.73 152.12 115.17 150.63 114.37 149.42 C 113.15 148.84 111.92 148.25 110.70 147.65 C 107.57 148.43 104.42 149.73 101.13 149.23 C 96.58 148.58 91.85 148.25 87.75 145.97 M 75.14 157.32 C 74.39 158.08 74.31 160.56 75.70 160.51 C 76.45 159.74 76.59 157.20 75.14 157.32 M 125.43 159.45 C 122.05 162.70 123.29 167.79 121.40 171.77 C 126.80 175.80 134.32 172.14 139.53 176.55 C 141.98 178.86 145.22 179.79 148.28 180.96 C 147.05 181.48 145.82 181.98 144.58 182.47 C 145.29 186.95 144.72 191.56 145.85 195.99 C 146.24 198.87 148.27 201.17 148.90 203.98 C 149.32 207.29 149.10 210.65 148.97 213.98 C 147.83 217.40 147.72 221.05 147.24 224.60 C 150.78 227.60 155.64 224.38 159.52 226.49 C 163.91 228.61 169.41 229.27 173.40 225.97 C 171.22 222.83 166.70 223.57 164.27 220.73 C 161.87 217.87 159.31 215.16 156.66 212.53 C 154.02 206.00 155.81 198.90 154.67 192.13 C 153.37 186.49 154.65 180.69 155.47 175.07 C 154.40 172.95 153.76 170.61 152.40 168.66 C 150.31 166.89 147.56 166.17 145.45 164.42 C 141.23 161.05 136.56 157.97 131.23 156.75 C 129.02 156.80 126.86 157.74 125.43 159.45 M 77.09 158.26 C 77.12 160.08 76.68 161.97 77.20 163.76 C 78.19 165.25 79.48 166.49 80.67 167.81 C 82.24 167.00 83.83 166.22 85.43 165.46 C 82.58 163.13 79.83 160.70 77.09 158.26 M 90.06 158.94 C 90.63 158.34 90.63 158.34 90.06 158.94 M 88.33 162.59 C 89.71 162.60 90.58 160.13 90.06 158.94 C 88.44 158.70 87.98 161.39 88.33 162.59 M 111.28 171.35 C 111.09 172.09 110.70 173.57 110.51 174.31 C 112.59 178.38 113.59 182.89 113.01 187.46 C 120.46 184.85 128.42 183.70 135.66 180.43 C 135.51 179.26 135.18 178.12 134.90 176.99 L 135.77 176.34 C 130.93 176.37 125.86 176.47 121.55 173.91 C 120.29 174.00 119.03 174.08 117.78 174.13 C 116.78 172.61 115.85 170.89 114.16 170.04 C 113.18 170.45 112.23 170.89 111.28 171.35 M 91.96 177.45 C 95.74 181.76 98.15 187.26 97.68 193.06 C 96.86 198.44 99.64 203.44 100.30 208.68 C 98.69 206.62 97.71 204.19 96.49 201.91 C 95.14 205.81 93.50 209.77 93.59 213.98 C 93.96 219.06 96.15 223.79 96.63 228.86 C 97.08 231.60 96.31 234.32 96.11 237.05 C 96.57 242.00 100.16 246.16 100.01 251.21 C 103.15 249.43 107.02 250.30 110.50 249.78 C 111.23 250.91 111.98 252.03 112.75 253.14 C 113.32 252.74 114.47 251.96 115.04 251.56 C 110.80 245.63 105.11 240.03 103.96 232.56 C 103.17 233.18 102.37 233.80 101.56 234.40 C 100.84 236.26 99.69 237.88 97.83 238.73 C 98.91 235.63 100.55 232.72 103.47 231.04 C 102.36 226.04 103.14 220.78 105.15 216.11 C 106.53 213.04 106.09 209.60 106.05 206.35 L 105.18 206.36 C 103.77 210.11 104.41 214.42 102.31 217.91 C 100.32 210.37 105.97 204.34 107.62 197.44 C 108.69 194.81 109.81 192.09 109.03 189.20 C 109.61 189.31 110.76 189.54 111.34 189.65 C 110.88 189.50 109.98 189.20 109.53 189.05 C 109.30 187.91 109.07 186.77 108.83 185.64 C 108.09 184.43 107.38 183.21 106.74 181.95 C 109.26 183.25 110.83 185.56 111.66 188.22 C 111.66 182.16 110.01 176.02 105.76 171.54 C 102.89 170.98 99.86 170.73 96.99 171.39 C 94.57 172.62 93.47 175.34 91.96 177.45 M 91.21 180.26 C 91.81 180.77 91.81 180.77 91.21 180.26 M 108.57 199.87 C 107.01 204.50 108.67 209.43 107.72 214.14 C 107.17 216.46 106.20 218.64 105.42 220.88 C 105.94 221.39 106.46 221.90 106.98 222.41 C 115.51 218.83 124.27 215.83 132.92 212.58 C 133.30 211.39 133.66 210.21 134.03 209.02 C 132.42 208.64 130.79 207.22 129.09 208.05 C 124.07 209.65 119.15 211.60 114.04 212.94 C 113.85 207.61 113.94 202.27 114.10 196.94 C 114.09 193.76 115.34 190.28 113.26 187.44 C 111.30 191.42 109.97 195.67 108.57 199.87 M 100.81 252.35 C 103.82 254.90 108.05 255.13 111.28 252.88 C 109.39 250.61 106.50 252.06 104.03 251.60 C 102.95 251.84 101.88 252.09 100.81 252.35 Z" />
<path fill="#333333" opacity="1.00" d=" M 113.96 103.02 C 113.36 101.59 114.68 99.70 116.04 99.20 C 117.72 100.11 115.60 103.57 113.96 103.02 Z" />
<path fill="#333333" opacity="1.00" d=" M 86.32 100.21 C 87.80 98.72 89.19 101.58 87.77 102.53 C 86.26 103.94 84.88 101.16 86.32 100.21 Z" />
<path fill="#333333" opacity="1.00" d=" M 83.52 115.11 C 84.37 114.33 85.22 113.54 86.15 112.85 C 87.69 113.03 88.60 114.31 89.38 115.50 C 87.42 115.39 85.47 115.23 83.52 115.11 Z" />
<path fill="#333333" opacity="1.00" d=" M 113.47 150.51 C 111.28 152.07 108.79 153.12 106.42 154.36 C 103.79 155.69 101.53 157.82 98.56 158.39 C 102.37 154.09 107.65 150.88 113.47 150.51 Z" />
<path fill="#333333" opacity="1.00" d=" M 102.50 158.17 C 106.04 155.11 110.71 154.14 115.16 153.24 C 114.34 154.12 113.43 154.98 112.17 155.14 C 108.87 155.90 105.77 157.29 102.50 158.17 Z" />
<path fill="#333333" opacity="1.00" d=" M 95.87 162.47 C 98.72 161.22 101.74 160.38 104.85 160.16 C 102.35 162.33 99.04 162.63 95.87 162.47 Z" />
<path fill="#333333" opacity="1.00" d=" M 145.51 167.46 C 148.09 169.09 149.08 172.02 149.33 174.92 C 147.43 175.91 145.41 177.31 143.14 176.69 C 140.73 176.09 139.29 173.92 138.11 171.92 C 140.63 173.58 142.92 176.02 146.12 176.23 C 146.71 175.31 147.27 174.36 147.80 173.40 C 146.99 171.44 146.19 169.47 145.51 167.46 Z" />
<path fill="#333333" opacity="1.00" d=" M 100.51 186.53 C 102.05 184.65 103.89 183.03 105.96 181.75 C 104.80 183.98 103.14 186.06 100.51 186.53 Z" />
<path fill="#333333" opacity="1.00" d=" M 103.14 196.24 C 103.39 194.62 106.26 194.80 106.49 196.35 C 106.25 198.00 103.29 197.90 103.14 196.24 Z" />
<path fill="#333333" opacity="1.00" d=" M 150.32 215.27 C 151.68 215.48 150.97 217.75 151.50 218.72 C 151.84 219.26 152.06 221.65 150.83 220.51 C 149.75 219.09 149.36 216.83 150.32 215.27 Z" />
</g>
</svg>
