<?xml version="1.0" encoding="UTF-8" ?>
<!DOCTYPE svg PUBLIC "-//W3C//DTD SVG 1.1//EN" "http://www.w3.org/Graphics/SVG/1.1/DTD/svg11.dtd">
<svg width="218pt" height="125pt" viewBox="0 0 218 125" version="1.1" xmlns="http://www.w3.org/2000/svg">
<g id="#ffffffff">
<path fill="#FFFFFF" opacity="1.00" d=" M 0.00 0.00 L 218.00 0.00 L 218.00 125.00 L 0.00 125.00 L 0.00 0.00 M 134.48 36.55 C 131.16 40.19 127.29 43.25 123.88 46.80 C 117.73 52.75 114.55 60.86 110.13 68.01 C 107.69 70.12 105.21 72.18 103.39 74.90 C 99.68 73.89 95.89 74.58 92.14 74.79 C 90.77 73.93 89.65 72.74 88.50 71.62 C 85.46 71.02 82.78 69.49 80.85 67.05 C 79.04 66.57 77.23 66.10 75.43 65.62 C 72.54 65.78 69.66 66.15 67.02 67.41 C 65.14 66.63 63.16 65.30 61.08 66.21 C 55.47 67.59 51.79 72.11 48.05 76.13 C 47.66 77.55 47.25 78.96 46.84 80.37 C 45.61 79.96 44.38 79.56 43.15 79.17 C 41.57 76.25 40.67 73.02 39.01 70.14 C 34.68 69.80 30.07 68.75 25.92 70.49 C 21.86 72.09 17.25 72.96 14.15 76.28 C 10.83 82.07 8.20 89.24 11.17 95.76 C 13.42 98.84 17.55 99.65 21.11 100.20 C 25.40 101.10 28.77 97.48 32.79 96.85 C 35.28 97.10 37.70 97.77 40.16 98.26 C 40.36 98.57 40.78 99.19 40.99 99.50 C 43.54 103.48 44.89 109.11 50.04 110.56 C 55.72 111.33 61.17 113.12 66.47 115.27 C 70.53 117.19 75.07 114.78 79.20 116.31 C 81.45 117.13 83.52 118.63 86.02 118.57 C 92.00 118.66 98.03 118.27 103.87 116.94 C 106.77 116.44 109.77 115.52 112.67 116.49 C 114.02 113.38 117.10 116.10 119.11 117.05 C 123.84 119.45 129.10 117.67 134.07 117.51 C 138.08 117.59 142.28 116.08 144.24 112.36 C 143.96 111.69 143.40 110.34 143.12 109.67 C 139.46 107.87 135.54 105.10 131.27 105.92 C 135.00 108.94 140.18 109.29 143.56 112.85 C 141.24 114.37 138.64 115.31 136.08 116.31 C 132.22 116.11 128.37 116.73 124.51 116.63 C 121.03 116.60 118.54 113.72 115.29 112.93 C 105.47 113.32 95.88 116.43 86.01 116.17 C 83.00 116.22 80.74 113.94 77.90 113.36 C 74.62 112.39 71.24 113.73 67.92 113.28 C 62.93 111.28 57.66 110.14 52.48 108.74 C 50.53 108.16 47.81 108.44 46.88 106.21 C 44.78 102.01 42.97 97.54 39.66 94.11 C 39.03 98.81 34.52 93.96 31.94 95.23 C 26.41 97.91 19.73 98.45 14.04 96.03 C 11.16 91.05 13.00 84.76 14.79 79.67 C 18.16 74.64 24.49 73.60 30.04 72.80 C 30.26 72.29 30.69 71.28 30.91 70.77 C 33.24 71.19 35.63 71.40 37.89 72.15 C 38.72 73.57 39.29 75.13 39.99 76.61 C 39.88 77.00 39.66 77.79 39.55 78.18 C 37.17 81.22 35.89 85.23 32.26 87.11 C 32.75 87.38 33.25 87.65 33.74 87.92 C 37.89 86.59 39.13 82.44 39.59 78.54 C 40.22 82.06 43.16 81.79 45.89 81.74 C 51.69 78.51 53.25 70.94 59.58 68.43 C 62.23 67.71 64.81 68.41 67.26 69.46 C 72.43 67.38 79.23 67.36 83.27 71.72 C 86.13 73.74 89.18 75.48 92.08 77.43 C 96.20 77.35 100.38 76.08 104.43 77.54 C 104.76 83.03 105.38 88.51 105.31 94.02 C 105.20 96.54 106.38 98.85 107.02 101.23 C 107.52 97.37 106.76 92.80 110.11 90.04 C 110.35 93.69 110.21 97.36 110.45 101.01 C 112.66 94.97 110.46 88.54 110.79 82.32 C 110.25 82.38 109.16 82.51 108.62 82.57 C 108.94 84.62 109.27 86.66 109.63 88.70 C 109.05 89.45 108.46 90.18 107.86 90.92 C 107.97 86.43 107.54 81.96 107.34 77.49 C 106.95 77.05 106.17 76.16 105.78 75.71 C 107.39 74.59 109.01 73.50 110.71 72.51 C 110.51 73.16 110.12 74.44 109.92 75.09 C 111.49 71.75 115.12 71.25 118.27 70.33 C 121.24 67.68 122.32 63.64 124.54 60.42 C 125.54 67.43 132.44 70.45 136.42 75.52 C 138.18 77.11 139.35 80.23 142.20 79.82 C 140.85 82.50 139.66 85.32 137.52 87.50 C 135.06 89.88 135.12 93.53 133.76 96.48 C 132.30 98.56 130.25 100.13 127.94 101.17 C 125.82 102.70 123.27 102.05 120.85 101.99 C 117.93 102.49 115.19 103.80 112.60 105.19 C 117.88 105.22 123.02 103.32 128.35 104.34 C 128.62 103.96 129.15 103.21 129.42 102.84 C 134.75 100.55 136.17 94.25 138.40 89.47 C 141.07 86.32 143.96 82.95 143.79 78.52 C 145.18 76.65 146.58 74.77 147.55 72.64 C 147.09 71.87 146.63 71.11 146.16 70.36 C 145.30 73.54 142.94 75.93 140.96 78.44 C 138.52 74.54 135.57 70.96 131.89 68.18 C 128.92 66.03 127.86 62.40 126.01 59.40 C 127.86 57.77 129.47 55.90 130.96 53.95 C 133.71 50.35 137.73 47.90 140.06 43.95 C 142.90 38.90 148.21 35.25 154.09 35.09 C 155.88 37.56 157.72 40.01 159.43 42.54 C 161.48 45.72 161.76 49.57 162.69 53.14 C 166.22 64.18 166.46 75.89 168.87 87.17 C 169.75 89.96 171.88 92.30 174.50 93.60 C 177.90 95.56 180.62 99.87 185.02 99.20 C 187.62 99.95 191.02 99.90 192.12 102.93 C 187.77 106.13 182.33 106.67 177.12 106.85 C 171.35 107.50 165.56 109.11 159.74 108.17 C 158.32 107.92 157.30 106.42 157.33 105.02 C 156.76 99.79 160.59 95.24 159.84 90.01 C 159.32 85.30 158.40 80.58 156.90 76.07 C 155.22 72.86 153.98 69.43 153.45 65.84 C 152.45 61.02 154.30 56.28 154.58 51.49 C 150.04 56.85 147.81 63.61 146.43 70.39 C 147.01 70.22 148.15 69.87 148.72 69.69 L 147.22 70.29 C 148.02 73.40 148.47 76.80 147.32 79.89 C 146.02 83.49 144.34 87.08 144.36 91.00 C 144.30 93.29 144.13 96.26 146.46 97.56 C 149.43 99.00 152.90 97.95 155.88 97.06 C 155.52 101.13 154.11 106.21 157.67 109.32 C 160.00 110.55 162.78 110.19 165.29 110.77 C 170.84 109.89 176.35 108.41 182.01 108.52 C 184.89 108.57 187.51 107.12 190.07 105.98 C 191.81 104.91 194.42 103.60 193.70 101.09 C 192.65 97.97 188.77 97.96 186.05 97.46 C 181.82 97.12 178.46 94.35 175.30 91.80 C 177.59 90.92 180.05 89.87 179.61 86.92 C 178.67 85.94 177.76 84.94 176.85 83.93 C 174.63 83.35 172.35 83.10 170.06 83.03 L 170.45 82.88 C 168.36 79.64 168.95 75.55 168.34 71.90 C 167.97 61.65 164.31 51.95 161.90 42.10 C 159.43 39.02 156.49 36.34 154.01 33.26 C 151.27 33.43 148.56 33.91 145.88 34.47 C 144.67 34.10 143.46 33.74 142.24 33.41 C 142.28 33.14 142.36 32.60 142.40 32.34 C 139.57 33.35 136.54 34.21 134.48 36.55 M 143.27 42.37 C 144.83 42.38 146.40 42.37 147.97 42.34 C 146.71 41.67 145.42 41.09 144.12 40.54 C 143.91 40.99 143.48 41.91 143.27 42.37 M 155.65 42.10 C 155.11 43.75 155.63 44.36 157.21 43.94 C 157.75 42.30 157.23 41.69 155.65 42.10 M 148.06 53.06 C 146.79 55.25 146.38 57.99 147.79 60.22 C 148.44 55.93 150.74 52.50 153.81 49.59 C 151.81 50.55 149.59 51.38 148.06 53.06 M 146.18 58.82 C 144.93 62.22 144.10 65.79 142.41 69.02 C 141.48 69.94 140.59 70.91 139.79 71.94 C 141.82 70.75 144.30 69.66 145.17 67.30 C 146.25 64.59 148.34 61.55 146.18 58.82 M 78.08 72.78 C 81.62 75.31 85.45 78.62 85.85 83.25 C 88.11 85.27 91.06 86.07 93.99 86.42 C 96.88 85.89 99.71 84.95 102.69 85.06 C 101.72 84.46 100.77 83.85 99.81 83.24 C 99.76 83.55 99.66 84.16 99.61 84.47 C 98.83 84.35 97.26 84.11 96.48 83.98 C 95.91 84.33 94.76 85.01 94.19 85.35 C 92.11 84.20 89.85 83.43 87.49 83.17 C 87.00 81.96 86.51 80.76 86.05 79.54 C 83.87 76.95 82.30 71.94 78.08 72.78 M 57.72 86.88 C 54.82 85.79 51.55 85.36 48.83 87.16 C 52.87 87.31 57.01 87.96 59.95 90.99 C 62.91 92.72 63.73 96.55 66.90 97.93 C 66.45 95.96 65.77 94.08 65.16 92.17 C 63.74 91.11 62.33 90.03 60.92 88.95 C 61.96 85.32 64.89 82.77 66.50 79.44 C 62.48 80.31 60.45 84.21 57.72 86.88 M 111.79 79.71 C 113.95 82.20 116.74 84.17 118.10 87.29 C 117.80 85.84 117.63 84.35 117.13 82.96 C 115.73 81.38 113.66 80.59 111.79 79.71 M 71.09 89.14 C 71.04 89.93 70.93 91.50 70.88 92.28 C 69.07 92.07 67.35 92.33 65.69 93.08 C 67.14 94.27 69.00 94.44 70.63 93.55 C 72.47 96.57 76.64 96.45 79.70 97.43 C 81.63 99.13 83.68 100.70 85.74 102.25 C 83.87 102.61 82.00 103.00 80.16 103.48 C 84.97 106.78 90.36 101.68 95.43 103.36 C 98.92 104.54 102.61 104.36 106.23 104.22 C 106.27 103.87 106.33 103.17 106.36 102.82 C 105.82 102.62 104.73 102.24 104.19 102.04 C 98.82 103.50 93.72 99.70 88.40 101.45 C 87.70 100.85 87.00 100.24 86.30 99.63 C 83.17 98.63 80.18 97.25 77.11 96.06 C 78.34 93.62 80.09 91.49 81.42 89.11 C 80.07 89.94 78.76 90.85 77.48 91.78 C 77.09 91.76 76.31 91.73 75.93 91.72 C 75.89 92.69 75.83 94.62 75.79 95.59 C 74.52 95.26 73.25 94.91 71.98 94.55 C 72.37 93.02 72.79 91.50 73.21 89.98 C 75.52 89.07 77.28 87.30 78.33 85.06 C 75.94 86.46 73.66 88.07 71.09 89.14 M 85.70 97.82 C 88.96 97.28 91.19 94.68 93.34 92.42 C 89.83 92.51 87.39 94.98 85.70 97.82 M 163.07 93.23 C 163.22 95.05 163.25 96.88 163.59 98.68 C 164.65 100.39 166.80 100.38 168.56 100.18 C 167.09 99.15 165.60 98.17 164.10 97.19 C 164.34 95.88 164.57 94.58 164.80 93.28 C 164.37 93.27 163.50 93.24 163.07 93.23 M 65.18 104.21 C 65.93 106.89 63.84 108.56 62.20 110.25 C 64.81 110.07 67.23 109.27 67.52 106.30 C 70.86 108.10 74.19 109.90 77.55 111.65 C 77.28 110.89 76.72 109.38 76.45 108.63 C 73.04 106.45 69.08 105.19 65.18 104.21 Z" />
<path fill="#FFFFFF" opacity="1.00" d=" M 137.52 36.27 C 140.19 34.82 143.17 35.52 146.05 35.36 C 143.55 37.02 141.36 39.14 139.75 41.69 C 137.79 44.73 134.79 46.82 132.29 49.37 C 128.73 52.82 126.73 57.69 122.39 60.37 C 120.76 59.18 119.11 58.02 117.51 56.78 C 121.16 51.70 125.98 47.64 130.83 43.75 C 133.09 41.29 135.11 38.61 137.52 36.27 Z" />
<path fill="#FFFFFF" opacity="1.00" d=" M 117.42 58.79 C 118.80 59.66 120.17 60.54 121.55 61.40 C 120.14 63.81 118.96 66.35 117.41 68.68 C 115.40 69.32 113.23 69.30 111.20 69.90 C 113.65 66.41 115.18 62.40 117.42 58.79 Z" />
<path fill="#FFFFFF" opacity="1.00" d=" M 150.38 76.85 C 151.42 72.90 148.76 69.02 150.15 65.10 C 154.34 72.47 155.89 80.87 157.35 89.11 C 157.54 90.74 156.98 92.35 156.57 93.91 C 154.19 95.63 151.34 97.42 148.26 96.88 C 146.28 96.14 146.17 93.81 146.45 92.04 C 146.82 86.74 149.94 82.13 150.38 76.85 Z" />
<path fill="#FFFFFF" opacity="1.00" d=" M 169.88 84.61 C 172.55 84.86 177.33 84.28 177.56 88.05 C 176.98 90.22 174.57 89.84 172.85 90.23 C 171.68 88.46 170.31 86.75 169.88 84.61 Z" />
</g>
<g id="#353730ff">
<path fill="#333333" opacity="1.00" d=" M 134.48 36.55 C 136.54 34.21 139.57 33.35 142.40 32.34 C 142.36 32.60 142.28 33.14 142.24 33.41 C 143.46 33.74 144.67 34.10 145.88 34.47 C 148.56 33.91 151.27 33.43 154.01 33.26 C 156.49 36.34 159.43 39.02 161.90 42.10 C 164.31 51.95 167.97 61.65 168.34 71.90 C 168.95 75.55 168.36 79.64 170.45 82.88 L 170.06 83.03 C 172.35 83.10 174.63 83.35 176.85 83.93 C 177.76 84.94 178.67 85.94 179.61 86.92 C 180.05 89.87 177.59 90.92 175.30 91.80 C 178.46 94.35 181.82 97.12 186.05 97.46 C 188.77 97.96 192.65 97.97 193.70 101.09 C 194.42 103.60 191.81 104.91 190.07 105.98 C 187.51 107.12 184.89 108.57 182.01 108.52 C 176.35 108.41 170.84 109.89 165.29 110.77 C 162.78 110.19 160.00 110.55 157.67 109.32 C 154.11 106.21 155.52 101.13 155.88 97.06 C 152.90 97.95 149.43 99.00 146.46 97.56 C 144.13 96.26 144.30 93.29 144.36 91.00 C 144.34 87.08 146.02 83.49 147.32 79.89 C 148.47 76.80 148.02 73.40 147.22 70.29 L 148.72 69.69 C 148.15 69.87 147.01 70.22 146.43 70.39 C 147.81 63.61 150.04 56.85 154.58 51.49 C 154.30 56.28 152.45 61.02 153.45 65.84 C 153.98 69.43 155.22 72.86 156.90 76.07 C 158.40 80.58 159.32 85.30 159.84 90.01 C 160.59 95.24 156.76 99.79 157.33 105.02 C 157.30 106.42 158.32 107.92 159.74 108.17 C 165.56 109.11 171.35 107.50 177.12 106.85 C 182.33 106.67 187.77 106.13 192.12 102.93 C 191.02 99.90 187.62 99.95 185.02 99.20 C 180.62 99.87 177.90 95.56 174.50 93.60 C 171.88 92.30 169.75 89.96 168.87 87.17 C 166.46 75.89 166.22 64.18 162.69 53.14 C 161.76 49.57 161.48 45.72 159.43 42.54 C 157.72 40.01 155.88 37.56 154.09 35.09 C 148.21 35.25 142.90 38.90 140.06 43.95 C 137.73 47.90 133.71 50.35 130.96 53.95 C 129.47 55.90 127.86 57.77 126.01 59.40 C 127.86 62.40 128.92 66.03 131.89 68.18 C 135.57 70.96 138.52 74.54 140.96 78.44 C 142.94 75.93 145.30 73.54 146.16 70.36 C 146.63 71.11 147.09 71.87 147.55 72.64 C 146.58 74.77 145.18 76.65 143.79 78.52 C 143.96 82.95 141.07 86.32 138.40 89.47 C 136.17 94.25 134.75 100.55 129.42 102.84 C 129.15 103.21 128.62 103.96 128.35 104.34 C 123.02 103.32 117.88 105.22 112.60 105.19 C 115.19 103.80 117.93 102.49 120.85 101.99 C 123.27 102.05 125.82 102.70 127.94 101.17 C 130.25 100.13 132.30 98.56 133.76 96.48 C 135.12 93.53 135.06 89.88 137.52 87.50 C 139.66 85.32 140.85 82.50 142.20 79.82 C 139.35 80.23 138.18 77.11 136.42 75.52 C 132.44 70.45 125.54 67.43 124.54 60.42 C 122.32 63.64 121.24 67.68 118.27 70.33 C 115.12 71.25 111.49 71.75 109.92 75.09 C 110.12 74.44 110.51 73.16 110.71 72.51 C 109.01 73.50 107.39 74.59 105.78 75.71 C 106.17 76.16 106.95 77.05 107.34 77.49 C 107.54 81.96 107.97 86.43 107.86 90.92 C 108.46 90.18 109.05 89.45 109.63 88.70 C 109.27 86.66 108.94 84.62 108.62 82.57 C 109.16 82.51 110.25 82.38 110.79 82.32 C 110.46 88.54 112.66 94.97 110.45 101.01 C 110.21 97.36 110.35 93.69 110.11 90.04 C 106.76 92.80 107.52 97.37 107.02 101.23 C 106.38 98.85 105.20 96.54 105.31 94.02 C 105.38 88.51 104.76 83.03 104.43 77.54 C 100.38 76.08 96.20 77.35 92.08 77.43 C 89.18 75.48 86.13 73.74 83.27 71.72 C 79.23 67.36 72.43 67.38 67.26 69.46 C 64.81 68.41 62.23 67.71 59.58 68.43 C 53.25 70.94 51.69 78.51 45.89 81.74 C 43.16 81.79 40.22 82.06 39.59 78.54 C 39.13 82.44 37.89 86.59 33.74 87.92 C 33.25 87.65 32.75 87.38 32.26 87.11 C 35.89 85.23 37.17 81.22 39.55 78.18 C 39.66 77.79 39.88 77.00 39.99 76.61 C 39.29 75.13 38.72 73.57 37.89 72.15 C 35.63 71.40 33.24 71.19 30.91 70.77 C 30.69 71.28 30.26 72.29 30.04 72.80 C 24.49 73.60 18.16 74.64 14.79 79.67 C 13.00 84.76 11.16 91.05 14.04 96.03 C 19.73 98.45 26.41 97.91 31.94 95.23 C 34.52 93.96 39.03 98.81 39.66 94.11 C 42.97 97.54 44.78 102.01 46.88 106.21 C 47.81 108.44 50.53 108.16 52.48 108.74 C 57.66 110.14 62.93 111.28 67.92 113.28 C 71.24 113.73 74.62 112.39 77.90 113.36 C 80.74 113.94 83.00 116.22 86.01 116.17 C 95.88 116.43 105.47 113.32 115.29 112.93 C 118.54 113.72 121.03 116.60 124.51 116.63 C 128.37 116.73 132.22 116.11 136.08 116.31 C 138.64 115.31 141.24 114.37 143.56 112.85 C 140.18 109.29 135.00 108.94 131.27 105.92 C 135.54 105.10 139.46 107.87 143.12 109.67 C 143.40 110.34 143.96 111.69 144.24 112.36 C 142.28 116.08 138.08 117.59 134.07 117.51 C 129.10 117.67 123.84 119.45 119.11 117.05 C 117.10 116.10 114.02 113.38 112.67 116.49 C 109.77 115.52 106.77 116.44 103.87 116.94 C 98.03 118.27 92.00 118.66 86.02 118.57 C 83.52 118.63 81.45 117.13 79.20 116.31 C 75.07 114.78 70.53 117.19 66.47 115.27 C 61.17 113.12 55.72 111.33 50.04 110.56 C 44.89 109.11 43.54 103.48 40.99 99.50 C 40.78 99.19 40.36 98.57 40.16 98.26 C 37.70 97.77 35.28 97.10 32.79 96.85 C 28.77 97.48 25.40 101.10 21.11 100.20 C 17.55 99.65 13.42 98.84 11.17 95.76 C 8.20 89.24 10.83 82.07 14.15 76.28 C 17.25 72.96 21.86 72.09 25.92 70.49 C 30.07 68.75 34.68 69.80 39.01 70.14 C 40.67 73.02 41.57 76.25 43.15 79.17 C 44.38 79.56 45.61 79.96 46.84 80.37 C 47.25 78.96 47.66 77.55 48.05 76.13 C 51.79 72.11 55.47 67.59 61.08 66.21 C 63.16 65.30 65.14 66.63 67.02 67.41 C 69.66 66.15 72.54 65.78 75.43 65.62 C 77.23 66.10 79.04 66.57 80.85 67.05 C 82.78 69.49 85.46 71.02 88.50 71.62 C 89.65 72.74 90.77 73.93 92.14 74.79 C 95.89 74.58 99.68 73.89 103.39 74.90 C 105.21 72.18 107.69 70.12 110.13 68.01 C 114.55 60.86 117.73 52.75 123.88 46.80 C 127.29 43.25 131.16 40.19 134.48 36.55 M 137.52 36.27 C 135.11 38.61 133.09 41.29 130.83 43.75 C 125.98 47.64 121.16 51.70 117.51 56.78 C 119.11 58.02 120.76 59.18 122.39 60.37 C 126.73 57.69 128.73 52.82 132.29 49.37 C 134.79 46.82 137.79 44.73 139.75 41.69 C 141.36 39.14 143.55 37.02 146.05 35.36 C 143.17 35.52 140.19 34.82 137.52 36.27 M 117.42 58.79 C 115.18 62.40 113.65 66.41 111.20 69.90 C 113.23 69.30 115.40 69.32 117.41 68.68 C 118.96 66.35 120.14 63.81 121.55 61.40 C 120.17 60.54 118.80 59.66 117.42 58.79 M 150.38 76.85 C 149.94 82.13 146.82 86.74 146.45 92.04 C 146.17 93.81 146.28 96.14 148.26 96.88 C 151.34 97.42 154.19 95.63 156.57 93.91 C 156.98 92.35 157.54 90.74 157.35 89.11 C 155.89 80.87 154.34 72.47 150.15 65.10 C 148.76 69.02 151.42 72.90 150.38 76.85 M 169.88 84.61 C 170.31 86.75 171.68 88.46 172.85 90.23 C 174.57 89.84 176.98 90.22 177.56 88.05 C 177.33 84.28 172.55 84.86 169.88 84.61 Z" />
<path fill="#333333" opacity="1.00" d=" M 143.27 42.37 C 143.48 41.91 143.91 40.99 144.12 40.54 C 145.42 41.09 146.71 41.67 147.97 42.34 C 146.40 42.37 144.83 42.38 143.27 42.37 Z" />
<path fill="#333333" opacity="1.00" d=" M 155.65 42.10 C 157.23 41.69 157.75 42.30 157.21 43.94 C 155.63 44.36 155.11 43.75 155.65 42.10 Z" />
<path fill="#333333" opacity="1.00" d=" M 148.06 53.06 C 149.59 51.38 151.81 50.55 153.81 49.59 C 150.74 52.50 148.44 55.93 147.79 60.22 C 146.38 57.99 146.79 55.25 148.06 53.06 Z" />
<path fill="#333333" opacity="1.00" d=" M 146.18 58.82 C 148.34 61.55 146.25 64.59 145.17 67.30 C 144.30 69.66 141.82 70.75 139.79 71.94 C 140.59 70.91 141.48 69.94 142.41 69.02 C 144.10 65.79 144.93 62.22 146.18 58.82 Z" />
<path fill="#333333" opacity="1.00" d=" M 78.08 72.78 C 82.30 71.94 83.87 76.95 86.05 79.54 C 86.51 80.76 87.00 81.96 87.49 83.17 C 89.85 83.43 92.11 84.20 94.19 85.35 C 94.76 85.01 95.91 84.33 96.48 83.98 C 97.26 84.11 98.83 84.35 99.61 84.47 C 99.66 84.16 99.76 83.55 99.81 83.24 C 100.77 83.85 101.72 84.46 102.69 85.06 C 99.71 84.95 96.88 85.89 93.99 86.42 C 91.06 86.07 88.11 85.27 85.85 83.25 C 85.45 78.62 81.62 75.31 78.08 72.78 Z" />
<path fill="#333333" opacity="1.00" d=" M 57.72 86.88 C 60.45 84.21 62.48 80.31 66.50 79.44 C 64.89 82.77 61.96 85.32 60.92 88.95 C 62.33 90.03 63.74 91.11 65.16 92.17 C 65.77 94.08 66.45 95.96 66.90 97.93 C 63.73 96.55 62.91 92.72 59.95 90.99 C 57.01 87.96 52.87 87.31 48.83 87.16 C 51.55 85.36 54.82 85.79 57.72 86.88 Z" />
<path fill="#333333" opacity="1.00" d=" M 111.79 79.71 C 113.66 80.59 115.73 81.38 117.13 82.96 C 117.63 84.35 117.80 85.84 118.10 87.29 C 116.74 84.17 113.95 82.20 111.79 79.71 Z" />
<path fill="#333333" opacity="1.00" d=" M 71.09 89.14 C 73.66 88.07 75.94 86.46 78.33 85.06 C 77.28 87.30 75.52 89.07 73.21 89.98 C 72.79 91.50 72.37 93.02 71.98 94.55 C 73.25 94.91 74.52 95.26 75.79 95.59 C 75.83 94.62 75.89 92.69 75.93 91.72 C 76.31 91.73 77.09 91.76 77.48 91.78 C 78.76 90.85 80.07 89.94 81.42 89.11 C 80.09 91.49 78.34 93.62 77.11 96.06 C 80.18 97.25 83.17 98.63 86.30 99.63 C 87.00 100.24 87.70 100.85 88.40 101.45 C 93.72 99.70 98.82 103.50 104.19 102.04 C 104.73 102.24 105.82 102.62 106.36 102.82 C 106.33 103.17 106.27 103.87 106.23 104.22 C 102.61 104.36 98.92 104.54 95.43 103.36 C 90.36 101.68 84.97 106.78 80.16 103.48 C 82.00 103.00 83.87 102.61 85.74 102.25 C 83.68 100.70 81.63 99.13 79.70 97.43 C 76.64 96.45 72.47 96.57 70.63 93.55 C 69.00 94.44 67.14 94.27 65.69 93.08 C 67.35 92.33 69.07 92.07 70.88 92.28 C 70.93 91.50 71.04 89.93 71.09 89.14 Z" />
<path fill="#333333" opacity="1.00" d=" M 85.70 97.82 C 87.39 94.98 89.83 92.51 93.34 92.42 C 91.19 94.68 88.96 97.28 85.70 97.82 Z" />
<path fill="#333333" opacity="1.00" d=" M 163.07 93.23 C 163.50 93.24 164.37 93.27 164.80 93.28 C 164.57 94.58 164.34 95.88 164.10 97.19 C 165.60 98.17 167.09 99.15 168.56 100.18 C 166.80 100.38 164.65 100.39 163.59 98.68 C 163.25 96.88 163.22 95.05 163.07 93.23 Z" />
<path fill="#333333" opacity="1.00" d=" M 65.18 104.21 C 69.08 105.19 73.04 106.45 76.45 108.63 C 76.72 109.38 77.28 110.89 77.55 111.65 C 74.19 109.90 70.86 108.10 67.52 106.30 C 67.23 109.27 64.81 110.07 62.20 110.25 C 63.84 108.56 65.93 106.89 65.18 104.21 Z" />
</g>
</svg>
