<?xml version="1.0" encoding="UTF-8" ?>
<!DOCTYPE svg PUBLIC "-//W3C//DTD SVG 1.1//EN" "http://www.w3.org/Graphics/SVG/1.1/DTD/svg11.dtd">
<svg width="267pt" height="150pt" viewBox="0 0 267 150" version="1.1" xmlns="http://www.w3.org/2000/svg">
<g id="#ffffffff">
<path fill="#FFFFFF" opacity="1.00" d=" M 0.00 0.00 L 267.00 0.00 L 267.00 150.00 L 0.00 150.00 L 0.00 0.00 M 211.73 33.73 C 208.01 36.97 204.46 41.55 199.01 41.40 C 188.87 40.92 177.60 40.00 168.95 46.40 C 164.86 46.13 160.88 46.96 156.98 48.04 C 153.45 47.93 149.71 47.71 146.49 46.17 C 146.02 47.87 145.58 49.58 145.20 51.31 C 142.24 50.47 139.17 50.65 136.14 50.56 C 133.89 50.03 131.87 48.80 129.73 47.94 C 128.70 47.62 127.68 47.31 126.65 47.01 C 129.09 49.12 131.82 50.89 134.16 53.13 C 137.63 52.87 141.10 52.58 144.58 52.58 C 142.15 59.75 143.29 68.32 148.03 74.28 C 144.46 77.47 139.34 76.92 134.91 77.11 C 127.69 75.71 120.48 71.58 113.00 74.20 C 112.20 73.92 111.40 73.63 110.61 73.35 C 110.53 70.73 109.98 68.15 108.50 65.94 C 108.47 62.86 108.67 59.78 108.62 56.70 C 104.36 61.05 107.84 67.20 108.26 72.14 C 103.11 68.41 103.27 61.58 104.00 55.94 C 104.77 54.81 105.52 53.66 106.24 52.50 C 106.62 52.56 107.39 52.67 107.78 52.72 C 110.36 49.95 112.26 46.20 115.91 44.69 C 120.03 44.23 124.20 44.39 128.30 44.98 C 131.43 45.60 133.47 49.01 136.85 48.90 C 139.69 48.76 143.16 49.14 145.29 46.85 C 142.85 46.41 140.37 46.56 137.92 46.87 C 134.97 47.27 132.68 44.95 130.09 43.97 C 125.03 41.61 119.45 43.44 114.33 44.59 C 112.58 44.82 111.35 46.20 109.96 47.14 L 110.76 48.46 C 106.29 47.33 101.83 45.73 97.13 46.28 C 93.28 42.01 86.85 42.93 82.45 39.62 C 77.84 36.06 71.67 35.65 66.07 36.05 C 63.32 37.10 61.07 39.25 58.13 39.86 C 58.11 41.11 57.23 43.28 58.82 43.86 C 62.22 43.99 65.57 43.35 68.93 42.92 C 72.18 42.46 75.17 43.92 78.10 45.06 C 77.62 43.96 77.77 42.21 76.23 42.00 C 70.85 39.86 65.31 42.03 59.96 42.84 C 60.01 42.35 60.13 41.37 60.19 40.88 C 62.45 39.89 64.50 38.34 66.91 37.75 C 72.53 37.35 77.82 39.69 82.62 42.33 C 86.31 43.61 90.23 44.33 93.60 46.42 L 92.80 48.24 C 98.24 47.76 103.82 48.09 109.06 49.71 L 106.98 51.75 L 106.55 50.62 C 100.83 49.70 95.02 48.77 89.23 49.65 C 87.32 48.90 85.58 47.78 83.75 46.86 C 88.11 49.83 91.98 54.16 97.33 55.14 C 95.38 52.63 92.23 51.58 89.45 50.33 C 94.74 50.39 99.97 51.68 105.27 51.18 C 100.83 56.71 100.73 65.23 104.73 71.04 C 100.83 72.44 96.68 72.28 92.65 72.96 C 89.14 75.11 85.49 77.40 81.12 76.25 L 81.02 77.04 C 80.89 76.28 80.62 74.77 80.49 74.01 L 82.23 74.55 C 81.75 73.61 81.28 72.67 80.80 71.73 C 80.09 71.41 78.67 70.76 77.95 70.43 C 79.61 68.36 80.07 65.89 77.74 64.15 C 78.33 63.67 79.51 62.70 80.09 62.22 C 83.76 63.25 87.69 62.90 91.11 61.21 C 90.82 61.06 90.22 60.75 89.92 60.60 C 89.56 60.80 88.84 61.19 88.47 61.39 C 85.69 61.29 82.82 61.36 80.26 60.11 C 76.85 62.54 73.33 66.35 68.74 65.43 C 67.25 64.50 66.04 62.77 64.06 63.22 C 66.16 65.83 68.69 68.45 69.03 71.97 C 70.39 76.62 68.78 81.39 69.53 86.09 C 69.94 88.27 69.57 90.50 68.28 92.33 C 68.63 92.37 69.31 92.46 69.65 92.51 C 73.26 100.71 70.67 109.75 72.45 118.27 C 72.39 120.42 71.83 122.58 70.93 124.53 C 68.82 127.26 65.16 126.82 62.13 127.27 C 59.00 127.50 55.95 128.71 52.77 128.34 C 50.48 127.65 48.58 126.13 46.66 124.78 C 49.00 122.84 51.88 121.88 54.81 121.27 C 56.53 118.81 59.57 118.93 62.23 119.30 C 63.35 120.39 64.53 121.45 66.00 122.04 C 67.21 121.79 67.34 120.48 67.83 119.58 C 67.24 119.45 66.05 119.18 65.46 119.05 C 67.39 115.93 66.44 112.25 65.63 108.94 C 64.54 103.97 60.80 100.05 60.07 94.96 C 59.28 92.35 60.88 89.77 60.29 87.14 C 60.16 80.44 56.14 74.25 57.88 67.46 C 58.31 67.52 59.18 67.62 59.61 67.67 C 59.75 65.33 59.96 62.98 60.12 60.64 C 59.99 61.26 59.73 62.49 59.61 63.11 C 58.44 64.56 57.29 66.01 56.14 67.47 C 52.44 64.09 50.22 59.11 51.12 54.08 C 52.72 52.43 54.68 51.18 56.36 49.61 C 53.74 49.15 51.46 50.59 49.29 51.80 C 49.25 52.92 49.16 55.15 49.12 56.27 C 47.98 54.96 46.93 53.56 45.61 52.45 C 44.46 52.21 43.33 52.66 42.21 52.80 C 44.41 54.02 46.49 55.46 48.71 56.66 C 49.18 59.75 49.78 62.92 51.92 65.34 C 48.92 64.31 48.48 68.19 46.47 69.50 C 43.40 72.52 38.89 70.72 35.32 69.78 C 31.74 68.26 27.33 67.25 25.30 63.58 C 21.90 58.50 23.91 52.03 25.77 46.75 C 28.40 45.81 29.93 43.34 32.20 41.88 C 34.44 41.19 36.84 41.33 39.13 41.58 C 41.24 42.47 42.59 44.47 44.19 46.02 C 44.56 45.26 44.93 44.50 45.29 43.73 C 42.76 42.01 40.43 39.14 37.02 39.57 C 31.99 39.39 28.16 42.88 24.62 45.93 C 22.10 47.44 21.97 50.63 21.16 53.16 C 19.80 57.84 21.34 62.93 24.46 66.55 C 27.69 69.51 32.02 70.73 35.99 72.35 C 38.02 72.77 40.04 73.32 42.11 73.46 C 46.83 74.08 50.01 69.56 51.91 65.88 C 53.25 67.27 54.64 68.63 55.96 70.05 C 55.05 75.65 58.18 80.63 58.29 86.13 C 58.79 89.30 57.44 92.42 57.98 95.59 C 58.80 103.07 64.45 109.02 64.56 116.67 C 61.47 116.77 58.06 116.63 55.35 118.37 C 51.94 120.75 47.85 121.83 44.32 124.01 C 46.70 127.09 49.60 130.97 54.01 130.51 C 59.50 130.05 64.99 129.34 70.43 128.45 C 71.15 127.81 71.87 127.18 72.59 126.55 C 72.94 124.70 73.32 122.86 73.82 121.04 C 74.98 117.69 73.48 114.22 73.81 110.80 C 74.13 107.98 74.51 105.17 74.39 102.32 C 77.81 101.82 81.41 101.74 84.52 100.05 C 84.64 98.70 84.80 97.35 84.98 96.01 C 83.36 90.21 85.49 83.99 83.42 78.33 C 87.23 79.23 90.21 76.86 92.76 74.42 C 96.84 74.99 100.89 74.33 104.75 72.97 C 105.98 73.13 107.21 73.26 108.46 73.38 C 109.27 74.41 110.08 75.44 110.90 76.48 C 113.20 76.56 115.51 76.44 117.77 76.02 C 118.87 75.94 119.96 75.88 121.06 75.81 C 125.52 76.61 129.73 78.29 134.01 79.69 C 138.35 79.46 142.73 79.25 146.98 78.29 C 148.46 78.16 149.07 76.69 149.88 75.67 C 154.81 75.67 159.21 73.03 163.04 70.18 C 165.59 70.14 168.16 70.01 170.66 69.46 C 173.29 68.53 175.41 66.62 177.55 64.91 L 177.40 66.34 C 177.94 66.50 179.01 66.81 179.55 66.97 C 176.97 69.54 175.70 73.02 174.04 76.18 C 170.43 83.25 172.00 91.81 175.53 98.58 C 179.54 105.01 186.34 110.27 194.12 110.74 C 201.51 112.12 209.09 112.01 216.56 111.37 L 216.08 110.63 C 220.55 110.41 224.96 109.25 229.06 107.48 C 236.30 102.21 240.53 93.66 241.97 84.95 C 241.25 84.40 240.55 83.84 239.85 83.28 C 239.11 88.51 237.62 93.99 233.93 97.95 C 230.79 101.46 227.83 105.79 223.05 107.10 C 213.07 109.41 202.65 108.99 192.57 107.65 C 183.89 104.22 176.16 96.48 175.09 86.86 C 173.67 79.40 177.27 72.26 180.76 65.91 C 185.59 64.01 190.36 61.90 195.42 60.65 C 199.64 59.70 203.63 56.65 208.14 58.04 C 212.87 56.58 218.31 56.05 222.84 58.41 C 227.48 61.04 232.85 61.94 237.31 64.96 C 240.20 70.34 239.99 76.67 239.35 82.58 C 239.98 82.94 241.26 83.66 241.90 84.02 C 243.25 78.68 241.37 73.27 239.62 68.27 C 239.43 67.01 239.27 65.74 239.13 64.47 C 242.30 59.99 239.81 54.23 236.84 50.31 C 233.66 46.38 233.89 41.12 232.51 36.49 C 230.93 33.07 226.68 33.19 223.51 33.49 C 220.41 30.38 214.78 30.67 211.73 33.73 M 45.00 46.92 C 47.20 47.46 49.44 48.04 51.58 47.02 L 49.79 50.49 C 52.44 48.82 54.89 46.87 57.35 44.93 C 56.93 44.30 56.52 43.68 56.11 43.05 C 52.73 45.28 48.39 44.78 45.00 46.92 M 68.48 48.13 C 67.04 48.37 65.55 48.69 64.66 49.97 C 68.82 48.06 72.86 51.01 77.06 50.25 C 74.95 48.69 72.45 47.93 69.93 47.37 C 69.57 47.56 68.85 47.94 68.48 48.13 M 66.03 58.36 C 70.38 58.31 74.86 55.78 77.29 52.25 C 73.06 53.20 69.35 55.64 66.03 58.36 M 81.79 63.59 C 81.66 65.11 81.42 66.62 81.08 68.11 C 84.19 68.83 85.07 73.03 88.43 73.48 C 87.27 71.37 85.41 69.86 83.54 68.42 C 82.81 67.33 83.32 65.98 83.25 64.77 C 82.89 64.48 82.16 63.88 81.79 63.59 M 87.26 64.81 C 88.16 66.42 88.98 68.06 89.75 69.73 C 90.18 69.55 91.04 69.20 91.47 69.02 C 90.89 66.87 89.15 65.71 87.26 64.81 M 61.05 78.06 C 60.19 82.69 62.72 86.79 64.03 91.03 C 65.03 93.63 63.27 96.12 63.40 98.73 C 65.21 97.96 65.34 95.55 66.30 94.05 C 65.57 88.79 62.27 84.24 62.29 78.81 C 63.41 77.34 64.51 75.86 65.54 74.33 C 63.24 74.16 62.00 76.33 61.05 78.06 Z" />
<path fill="#FFFFFF" opacity="1.00" d=" M 206.25 41.17 C 209.73 38.80 213.02 36.17 216.00 33.20 C 218.19 32.90 220.38 33.44 222.22 34.65 C 218.78 37.69 216.03 41.75 211.62 43.50 C 208.02 45.45 203.85 44.45 199.98 44.32 C 193.08 44.05 185.64 44.62 179.84 48.78 C 175.41 51.79 169.95 51.92 164.82 52.58 C 159.13 53.39 153.43 52.12 147.87 51.09 C 147.88 50.43 147.92 49.10 147.94 48.44 C 151.72 48.51 155.27 51.01 159.11 49.90 C 162.66 48.91 166.27 48.05 169.99 48.34 C 177.46 42.93 187.30 41.99 196.23 42.92 C 199.65 43.12 203.00 42.10 206.25 41.17 Z" />
<path fill="#FFFFFF" opacity="1.00" d=" M 223.87 35.85 C 225.47 34.42 227.44 35.66 229.08 36.29 C 230.26 39.84 231.42 43.39 232.72 46.89 C 233.91 50.17 236.26 52.87 237.53 56.10 C 237.85 58.34 237.57 60.62 237.33 62.85 C 235.04 61.47 232.75 59.99 230.08 59.49 C 227.01 58.76 224.46 56.78 221.55 55.65 C 215.94 54.48 210.31 56.38 204.69 55.93 C 195.51 58.18 185.94 60.16 177.89 65.40 C 177.79 64.81 177.60 63.63 177.50 63.04 C 173.74 66.11 169.47 68.69 164.40 68.29 C 164.75 67.36 165.45 65.52 165.80 64.59 C 161.55 69.20 155.71 71.50 149.88 73.42 C 146.08 67.31 145.36 59.77 146.26 52.76 C 151.75 53.78 157.36 55.73 162.97 54.32 C 167.45 53.19 172.06 53.91 176.61 53.63 C 176.84 53.20 177.31 52.34 177.54 51.91 C 180.63 50.57 183.26 48.32 186.54 47.42 C 193.82 44.94 201.55 46.79 209.03 46.44 C 215.62 45.66 219.00 39.48 223.87 35.85 M 160.71 58.78 C 164.21 60.70 169.14 60.10 171.74 56.97 C 168.07 57.62 164.42 58.40 160.71 58.78 M 146.84 59.28 C 151.47 59.22 155.66 62.03 160.27 61.34 C 156.94 59.97 153.61 58.36 149.99 57.98 C 148.61 57.49 147.56 58.17 146.84 59.28 Z" />
<path fill="#FFFFFF" opacity="1.00" d=" M 70.41 68.27 C 72.85 67.89 74.58 65.80 76.84 65.21 C 77.88 66.77 76.28 68.09 75.72 69.46 C 76.43 69.79 77.15 70.12 77.88 70.45 C 78.68 71.57 79.50 72.67 80.34 73.77 C 79.89 74.42 79.43 75.07 78.96 75.70 L 78.96 74.71 C 76.50 74.71 74.03 74.72 71.56 74.67 C 71.31 72.51 70.94 70.37 70.41 68.27 Z" />
<path fill="#FFFFFF" opacity="1.00" d=" M 71.05 76.57 C 72.93 76.64 74.78 76.87 76.65 77.04 C 78.61 77.63 80.61 78.14 82.64 78.44 C 81.89 85.50 83.61 92.64 82.21 99.60 C 79.65 100.31 77.12 101.13 74.52 101.69 C 72.90 99.86 73.35 97.15 72.99 94.91 C 74.77 94.76 76.54 94.56 78.31 94.30 C 78.61 93.70 79.19 92.51 79.48 91.92 C 77.78 90.30 77.76 87.82 77.26 85.68 C 75.01 82.71 74.69 78.33 71.05 76.57 Z" />
<path fill="#FFFFFF" opacity="1.00" d=" M 71.52 78.70 C 73.88 83.33 76.04 88.06 76.88 93.22 C 75.02 93.08 72.18 94.00 71.45 91.61 C 71.54 87.31 70.81 82.98 71.52 78.70 Z" />
</g>
<g id="#111211ff">
<path fill="#333333" opacity="1.00" d=" M 211.73 33.73 C 214.78 30.67 220.41 30.38 223.51 33.49 C 226.68 33.19 230.93 33.07 232.51 36.49 C 233.89 41.12 233.66 46.38 236.84 50.31 C 239.81 54.23 242.30 59.99 239.13 64.47 C 239.27 65.74 239.43 67.01 239.62 68.27 C 241.37 73.27 243.25 78.68 241.90 84.02 C 241.26 83.66 239.98 82.94 239.35 82.58 C 239.99 76.67 240.20 70.34 237.31 64.96 C 232.85 61.94 227.48 61.04 222.84 58.41 C 218.31 56.05 212.87 56.58 208.14 58.04 C 203.63 56.65 199.64 59.70 195.42 60.65 C 190.36 61.90 185.59 64.01 180.76 65.91 C 177.27 72.26 173.67 79.40 175.09 86.86 C 176.16 96.48 183.89 104.22 192.57 107.65 C 202.65 108.99 213.07 109.41 223.05 107.10 C 227.83 105.79 230.79 101.46 233.93 97.95 C 237.62 93.99 239.11 88.51 239.85 83.28 C 240.55 83.84 241.25 84.40 241.97 84.95 C 240.53 93.66 236.30 102.21 229.06 107.48 C 224.96 109.25 220.55 110.41 216.08 110.63 L 216.56 111.37 C 209.09 112.01 201.51 112.12 194.12 110.74 C 186.34 110.27 179.54 105.01 175.53 98.58 C 172.00 91.81 170.43 83.25 174.04 76.18 C 175.70 73.02 176.97 69.54 179.55 66.97 C 179.01 66.81 177.94 66.50 177.40 66.34 L 177.55 64.91 C 175.41 66.62 173.29 68.53 170.66 69.46 C 168.16 70.01 165.59 70.14 163.04 70.18 C 159.21 73.03 154.81 75.67 149.88 75.67 C 149.07 76.69 148.46 78.16 146.98 78.29 C 142.73 79.25 138.35 79.46 134.01 79.69 C 129.73 78.29 125.52 76.61 121.06 75.81 C 119.96 75.88 118.87 75.94 117.77 76.02 C 115.51 76.44 113.20 76.56 110.90 76.48 C 110.08 75.44 109.27 74.41 108.46 73.38 C 107.21 73.26 105.98 73.13 104.75 72.97 C 100.89 74.33 96.84 74.99 92.76 74.42 C 90.21 76.86 87.23 79.23 83.42 78.33 C 85.49 83.99 83.36 90.21 84.98 96.01 C 84.80 97.35 84.64 98.70 84.52 100.05 C 81.41 101.74 77.81 101.82 74.39 102.32 C 74.51 105.17 74.13 107.98 73.81 110.80 C 73.48 114.22 74.98 117.69 73.82 121.04 C 73.32 122.86 72.94 124.70 72.59 126.55 C 71.87 127.18 71.15 127.81 70.43 128.45 C 64.99 129.34 59.50 130.05 54.01 130.51 C 49.60 130.97 46.70 127.09 44.32 124.01 C 47.85 121.83 51.94 120.75 55.35 118.37 C 58.06 116.63 61.47 116.77 64.56 116.67 C 64.45 109.02 58.80 103.07 57.98 95.59 C 57.44 92.42 58.79 89.30 58.29 86.13 C 58.18 80.63 55.05 75.65 55.96 70.05 C 54.64 68.63 53.25 67.27 51.91 65.88 C 50.01 69.56 46.83 74.08 42.11 73.46 C 40.04 73.32 38.02 72.77 35.99 72.35 C 32.02 70.73 27.69 69.51 24.46 66.55 C 21.34 62.93 19.80 57.84 21.16 53.16 C 21.97 50.63 22.10 47.44 24.62 45.93 C 28.16 42.88 31.99 39.39 37.02 39.57 C 40.43 39.14 42.76 42.01 45.29 43.73 C 44.93 44.50 44.56 45.26 44.19 46.02 C 42.59 44.47 41.24 42.47 39.13 41.58 C 36.84 41.33 34.44 41.19 32.20 41.88 C 29.93 43.34 28.40 45.81 25.77 46.75 C 23.91 52.03 21.90 58.50 25.30 63.58 C 27.33 67.25 31.74 68.26 35.32 69.78 C 38.89 70.72 43.40 72.52 46.47 69.50 C 48.48 68.19 48.92 64.31 51.92 65.34 C 49.78 62.92 49.18 59.75 48.71 56.66 C 46.49 55.46 44.41 54.02 42.21 52.80 C 43.33 52.66 44.46 52.21 45.61 52.45 C 46.93 53.56 47.98 54.96 49.12 56.27 C 49.16 55.15 49.25 52.92 49.29 51.80 C 51.46 50.59 53.74 49.15 56.36 49.61 C 54.68 51.18 52.72 52.43 51.12 54.08 C 50.22 59.11 52.44 64.09 56.14 67.47 C 57.29 66.01 58.44 64.56 59.61 63.11 C 59.73 62.49 59.99 61.26 60.12 60.64 C 59.96 62.98 59.75 65.33 59.61 67.67 C 59.18 67.62 58.31 67.52 57.88 67.46 C 56.14 74.25 60.16 80.44 60.29 87.14 C 60.88 89.77 59.28 92.35 60.07 94.96 C 60.80 100.05 64.54 103.97 65.63 108.94 C 66.44 112.25 67.39 115.93 65.46 119.05 C 66.05 119.18 67.24 119.45 67.83 119.58 C 67.34 120.48 67.21 121.79 66.00 122.04 C 64.53 121.45 63.35 120.39 62.23 119.30 C 59.57 118.93 56.53 118.81 54.81 121.27 C 51.88 121.88 49.00 122.84 46.66 124.78 C 48.58 126.13 50.48 127.65 52.77 128.34 C 55.95 128.71 59.00 127.50 62.13 127.27 C 65.16 126.82 68.82 127.26 70.93 124.53 C 71.83 122.58 72.39 120.42 72.45 118.27 C 70.67 109.75 73.26 100.71 69.65 92.51 C 69.31 92.46 68.63 92.37 68.28 92.33 C 69.57 90.50 69.94 88.27 69.53 86.09 C 68.78 81.39 70.39 76.62 69.03 71.97 C 68.69 68.45 66.16 65.83 64.06 63.22 C 66.04 62.77 67.25 64.50 68.74 65.43 C 73.33 66.35 76.85 62.54 80.26 60.11 C 82.82 61.36 85.69 61.29 88.47 61.39 C 88.84 61.19 89.56 60.80 89.92 60.60 C 90.22 60.75 90.82 61.06 91.11 61.21 C 87.69 62.90 83.76 63.25 80.09 62.22 C 79.51 62.70 78.33 63.67 77.74 64.15 C 80.07 65.89 79.61 68.36 77.95 70.43 C 78.67 70.76 80.09 71.41 80.80 71.73 C 81.28 72.67 81.75 73.61 82.23 74.55 L 80.49 74.01 C 80.62 74.77 80.89 76.28 81.02 77.04 L 81.12 76.25 C 85.49 77.40 89.14 75.11 92.65 72.96 C 96.68 72.28 100.83 72.44 104.73 71.04 C 100.73 65.23 100.83 56.71 105.27 51.18 C 99.97 51.68 94.74 50.39 89.45 50.33 C 92.23 51.58 95.38 52.63 97.33 55.14 C 91.98 54.16 88.11 49.83 83.75 46.86 C 85.58 47.78 87.32 48.90 89.23 49.65 C 95.02 48.77 100.83 49.70 106.55 50.62 L 106.98 51.75 L 109.06 49.71 C 103.82 48.09 98.24 47.76 92.80 48.24 L 93.60 46.42 C 90.23 44.33 86.31 43.61 82.62 42.33 C 77.82 39.69 72.53 37.35 66.91 37.75 C 64.50 38.34 62.45 39.89 60.19 40.88 C 60.13 41.37 60.01 42.35 59.96 42.84 C 65.31 42.03 70.85 39.86 76.23 42.00 C 77.77 42.21 77.62 43.96 78.10 45.06 C 75.17 43.92 72.18 42.46 68.93 42.92 C 65.57 43.35 62.22 43.99 58.82 43.86 C 57.23 43.28 58.11 41.11 58.13 39.86 C 61.07 39.25 63.32 37.10 66.07 36.05 C 71.67 35.65 77.84 36.06 82.45 39.62 C 86.85 42.93 93.28 42.01 97.13 46.28 C 101.83 45.73 106.29 47.33 110.76 48.46 L 109.96 47.14 C 111.35 46.20 112.58 44.82 114.33 44.59 C 119.45 43.44 125.03 41.61 130.09 43.97 C 132.68 44.95 134.97 47.27 137.92 46.87 C 140.37 46.56 142.85 46.41 145.29 46.85 C 143.16 49.14 139.69 48.76 136.85 48.90 C 133.47 49.01 131.43 45.60 128.30 44.98 C 124.20 44.39 120.03 44.23 115.91 44.69 C 112.26 46.20 110.36 49.95 107.78 52.72 C 107.39 52.67 106.62 52.56 106.24 52.50 C 105.52 53.66 104.77 54.81 104.00 55.94 C 103.27 61.58 103.11 68.41 108.26 72.14 C 107.84 67.20 104.36 61.05 108.62 56.70 C 108.67 59.78 108.47 62.86 108.50 65.94 C 109.98 68.15 110.53 70.73 110.61 73.35 C 111.40 73.63 112.20 73.92 113.00 74.20 C 120.48 71.58 127.69 75.71 134.91 77.11 C 139.34 76.92 144.46 77.47 148.03 74.28 C 143.29 68.32 142.15 59.75 144.58 52.58 C 141.10 52.58 137.63 52.87 134.16 53.13 C 131.82 50.89 129.09 49.12 126.65 47.01 C 127.68 47.31 128.70 47.62 129.73 47.94 C 131.87 48.80 133.89 50.03 136.14 50.56 C 139.17 50.65 142.24 50.47 145.20 51.31 C 145.58 49.58 146.02 47.87 146.49 46.17 C 149.71 47.71 153.45 47.93 156.98 48.04 C 160.88 46.96 164.86 46.13 168.95 46.40 C 177.60 40.00 188.87 40.92 199.01 41.40 C 204.46 41.55 208.01 36.97 211.73 33.73 M 206.25 41.17 C 203.00 42.10 199.65 43.12 196.23 42.92 C 187.30 41.99 177.46 42.93 169.99 48.34 C 166.27 48.05 162.66 48.91 159.11 49.90 C 155.27 51.01 151.72 48.51 147.94 48.44 C 147.92 49.10 147.88 50.43 147.87 51.09 C 153.43 52.12 159.13 53.39 164.82 52.58 C 169.95 51.92 175.41 51.79 179.84 48.78 C 185.64 44.62 193.08 44.05 199.98 44.32 C 203.85 44.45 208.02 45.45 211.62 43.50 C 216.03 41.75 218.78 37.69 222.22 34.65 C 220.38 33.44 218.19 32.90 216.00 33.20 C 213.02 36.17 209.73 38.80 206.25 41.17 M 223.87 35.85 C 219.00 39.48 215.62 45.66 209.03 46.44 C 201.55 46.79 193.82 44.94 186.54 47.42 C 183.26 48.32 180.63 50.57 177.54 51.91 C 177.31 52.34 176.84 53.20 176.61 53.63 C 172.06 53.91 167.45 53.19 162.97 54.32 C 157.36 55.73 151.75 53.78 146.26 52.76 C 145.36 59.77 146.08 67.31 149.88 73.42 C 155.71 71.50 161.55 69.20 165.80 64.59 C 165.45 65.52 164.75 67.36 164.40 68.29 C 169.47 68.69 173.74 66.11 177.50 63.04 C 177.60 63.63 177.79 64.81 177.89 65.40 C 185.94 60.16 195.51 58.18 204.69 55.93 C 210.31 56.38 215.94 54.48 221.55 55.65 C 224.46 56.78 227.01 58.76 230.08 59.49 C 232.75 59.99 235.04 61.47 237.33 62.85 C 237.57 60.62 237.85 58.34 237.53 56.10 C 236.26 52.87 233.91 50.17 232.72 46.89 C 231.42 43.39 230.26 39.84 229.08 36.29 C 227.44 35.66 225.47 34.42 223.87 35.85 M 70.41 68.27 C 70.94 70.37 71.31 72.51 71.56 74.67 C 74.03 74.72 76.50 74.71 78.96 74.71 L 78.96 75.70 C 79.43 75.07 79.89 74.42 80.34 73.77 C 79.50 72.67 78.68 71.57 77.88 70.45 C 77.15 70.12 76.43 69.79 75.72 69.46 C 76.28 68.09 77.88 66.77 76.84 65.21 C 74.58 65.80 72.85 67.89 70.41 68.27 M 71.05 76.57 C 74.69 78.33 75.01 82.71 77.26 85.68 C 77.76 87.82 77.78 90.30 79.48 91.92 C 79.19 92.51 78.61 93.70 78.31 94.30 C 76.54 94.56 74.77 94.76 72.99 94.91 C 73.35 97.15 72.90 99.86 74.52 101.69 C 77.12 101.13 79.65 100.31 82.21 99.60 C 83.61 92.64 81.89 85.50 82.64 78.44 C 80.61 78.14 78.61 77.63 76.65 77.04 C 74.78 76.87 72.93 76.64 71.05 76.57 M 71.52 78.70 C 70.81 82.98 71.54 87.31 71.45 91.61 C 72.18 94.00 75.02 93.08 76.88 93.22 C 76.04 88.06 73.88 83.33 71.52 78.70 Z" />
<path fill="#333333" opacity="1.00" d=" M 45.00 46.92 C 48.39 44.78 52.73 45.28 56.11 43.05 C 56.52 43.68 56.93 44.30 57.35 44.93 C 54.89 46.87 52.44 48.82 49.79 50.49 L 51.58 47.02 C 49.44 48.04 47.20 47.46 45.00 46.92 Z" />
<path fill="#333333" opacity="1.00" d=" M 68.48 48.13 C 68.85 47.94 69.57 47.56 69.93 47.37 C 72.45 47.93 74.95 48.69 77.06 50.25 C 72.86 51.01 68.82 48.06 64.66 49.97 C 65.55 48.69 67.04 48.37 68.48 48.13 Z" />
<path fill="#333333" opacity="1.00" d=" M 66.03 58.36 C 69.35 55.64 73.06 53.20 77.29 52.25 C 74.86 55.78 70.38 58.31 66.03 58.36 Z" />
<path fill="#333333" opacity="1.00" d=" M 160.71 58.78 C 164.42 58.40 168.07 57.62 171.74 56.97 C 169.14 60.10 164.21 60.70 160.71 58.78 Z" />
<path fill="#333333" opacity="1.00" d=" M 146.84 59.28 C 147.56 58.17 148.61 57.49 149.99 57.98 C 153.61 58.36 156.94 59.97 160.27 61.34 C 155.66 62.03 151.47 59.22 146.84 59.28 Z" />
<path fill="#333333" opacity="1.00" d=" M 81.79 63.59 C 82.16 63.88 82.89 64.48 83.25 64.77 C 83.32 65.98 82.81 67.33 83.54 68.42 C 85.41 69.86 87.27 71.37 88.43 73.48 C 85.07 73.03 84.19 68.83 81.08 68.11 C 81.42 66.62 81.66 65.11 81.79 63.59 Z" />
<path fill="#333333" opacity="1.00" d=" M 87.26 64.81 C 89.15 65.71 90.89 66.87 91.47 69.02 C 91.04 69.20 90.18 69.55 89.75 69.73 C 88.98 68.06 88.16 66.42 87.26 64.81 Z" />
<path fill="#333333" opacity="1.00" d=" M 61.05 78.06 C 62.00 76.33 63.24 74.16 65.54 74.33 C 64.51 75.86 63.41 77.34 62.29 78.81 C 62.27 84.24 65.57 88.79 66.30 94.05 C 65.34 95.55 65.21 97.96 63.40 98.73 C 63.27 96.12 65.03 93.63 64.03 91.03 C 62.72 86.79 60.19 82.69 61.05 78.06 Z" />
</g>
</svg>
