<?xml version="1.0" encoding="UTF-8" ?>
<!DOCTYPE svg PUBLIC "-//W3C//DTD SVG 1.1//EN" "http://www.w3.org/Graphics/SVG/1.1/DTD/svg11.dtd">
<svg width="221pt" height="275pt" viewBox="0 0 221 275" version="1.1" xmlns="http://www.w3.org/2000/svg">
<g id="#ffffffff">
<path fill="#FFFFFF" opacity="1.00" d=" M 0.00 0.00 L 221.00 0.00 L 221.00 275.00 L 0.00 275.00 L 0.00 0.00 M 85.70 30.70 C 82.76 34.55 84.02 39.65 84.45 44.07 C 84.59 46.24 86.28 47.77 87.51 49.40 C 87.08 52.82 88.23 56.52 86.81 59.75 C 84.51 61.42 81.94 62.81 80.19 65.10 C 78.85 66.51 77.90 68.51 75.88 69.04 C 72.22 70.31 69.29 72.95 66.47 75.49 C 63.38 78.90 63.85 83.82 64.20 88.06 C 62.77 93.26 61.38 98.57 61.41 104.01 C 61.42 109.26 66.35 113.51 65.02 118.89 C 63.59 125.54 63.30 132.60 65.38 139.14 C 61.21 141.06 58.67 145.16 57.48 149.45 C 55.20 155.82 55.97 163.39 60.14 168.82 C 62.06 171.26 66.94 173.09 68.70 169.50 C 66.19 169.54 63.20 169.80 61.40 167.64 C 57.67 163.37 57.52 157.17 58.42 151.86 C 59.15 147.07 62.10 143.13 65.86 140.24 C 66.26 142.76 66.89 145.29 66.59 147.86 C 65.60 153.36 68.59 158.40 68.61 163.87 C 69.21 168.67 75.15 168.72 78.81 169.32 C 77.61 165.79 73.11 167.06 70.81 164.95 C 69.73 162.07 70.27 158.79 69.08 155.91 C 68.16 153.72 68.01 151.37 68.23 149.03 C 68.90 142.48 65.42 136.44 65.43 129.93 C 65.03 123.85 66.94 118.01 67.73 112.05 C 67.31 112.41 66.46 113.12 66.03 113.48 C 64.97 109.33 62.34 105.38 63.16 100.95 C 63.70 97.60 64.12 94.23 64.83 90.91 C 65.38 91.63 66.48 93.06 67.03 93.77 C 66.57 88.75 64.53 83.44 66.60 78.54 C 69.30 74.39 73.98 72.39 78.04 69.93 C 80.89 66.52 84.22 63.59 87.48 60.60 C 87.93 56.82 88.68 53.05 88.40 49.22 C 90.48 51.08 91.31 53.81 93.03 55.93 C 96.27 58.66 100.60 59.86 104.80 59.79 C 105.07 61.85 105.87 63.90 105.47 65.99 C 102.30 68.68 98.54 65.13 94.90 65.79 C 95.85 62.40 93.00 59.98 91.30 57.44 C 91.13 57.30 90.79 57.03 90.62 56.89 C 91.86 59.84 92.93 62.87 94.32 65.76 C 91.62 66.30 88.93 66.91 86.28 67.68 C 88.44 69.07 90.91 67.96 93.19 67.64 C 96.21 66.87 99.13 68.24 102.04 68.85 C 104.04 69.07 104.91 67.01 105.88 65.67 C 108.48 64.76 111.13 63.96 113.89 63.76 C 115.65 64.94 117.39 66.61 119.60 66.73 L 119.79 66.25 L 119.77 65.67 C 118.23 65.05 116.71 64.41 115.11 63.99 C 114.88 63.47 114.40 62.42 114.17 61.90 C 111.43 62.12 108.79 62.92 106.24 63.90 C 106.21 62.52 106.17 61.14 106.12 59.76 C 109.15 60.77 112.35 61.51 115.52 60.59 C 113.13 58.95 110.06 59.35 107.36 58.74 C 108.92 54.69 109.53 50.36 110.12 46.08 C 110.67 41.80 108.88 37.73 108.32 33.56 C 107.93 29.51 104.01 26.49 100.10 26.27 C 95.05 25.41 88.93 26.31 85.70 30.70 M 116.21 61.25 C 119.38 60.86 122.15 62.54 124.67 64.23 C 128.52 67.62 128.96 73.03 128.75 77.84 C 129.76 81.57 132.31 84.95 132.05 89.01 C 131.34 95.21 138.40 97.86 139.42 103.50 C 141.07 110.75 144.20 117.63 145.11 125.05 C 145.55 128.10 146.96 130.87 148.19 133.65 L 146.96 134.10 C 147.75 134.03 149.33 133.91 150.11 133.85 C 141.98 140.75 140.55 154.53 147.23 162.85 C 149.54 165.44 153.87 166.00 156.56 163.67 C 162.78 158.30 164.37 149.13 162.55 141.41 C 161.68 138.01 159.68 134.14 155.94 133.35 C 154.19 133.04 151.73 132.23 150.67 134.32 C 148.70 130.42 146.32 126.53 146.07 122.05 C 145.88 115.85 142.98 110.25 141.91 104.21 C 141.20 100.74 139.28 97.69 136.56 95.44 C 133.34 92.93 133.75 88.56 132.81 84.98 C 132.21 81.56 129.67 78.65 130.10 75.03 C 130.25 71.63 129.61 68.16 127.60 65.35 C 125.98 61.95 122.05 61.01 118.92 59.58 C 118.02 60.14 117.12 60.70 116.21 61.25 M 105.29 73.77 C 105.61 77.59 107.87 81.27 105.92 85.03 C 102.25 86.04 99.17 88.19 95.93 90.04 C 91.15 92.27 87.63 87.50 84.21 85.02 C 84.19 89.00 88.69 91.41 92.04 92.36 C 96.87 93.49 99.61 88.77 103.85 87.77 C 107.09 87.17 107.74 83.53 109.05 81.04 C 108.09 78.48 107.09 75.88 105.29 73.77 M 120.05 85.22 C 120.50 89.86 122.58 94.35 121.88 99.06 C 121.22 101.79 119.64 104.16 118.29 106.58 C 117.35 106.67 116.42 106.76 115.48 106.85 C 114.95 104.42 113.97 102.13 112.87 99.91 C 112.96 102.64 112.94 105.40 111.96 107.99 C 108.92 107.96 105.70 107.78 103.22 109.86 C 102.23 109.30 101.24 108.74 100.26 108.18 C 100.17 108.68 100.01 109.70 99.92 110.20 L 101.02 109.10 C 101.11 110.36 101.19 111.61 101.26 112.87 L 99.84 112.65 C 101.00 113.53 102.19 114.40 103.38 115.25 C 103.05 113.89 102.72 112.53 102.36 111.18 C 106.08 110.31 110.09 110.34 113.47 108.36 C 114.63 107.66 115.93 108.64 117.14 108.78 C 117.62 108.32 118.58 107.41 119.07 106.96 C 119.15 111.24 119.77 115.49 119.96 119.77 C 115.79 122.12 110.97 122.57 106.44 123.83 C 106.61 123.20 106.97 121.92 107.15 121.28 C 104.32 119.89 102.57 117.25 100.50 115.01 C 100.51 118.32 103.08 122.42 106.71 122.05 C 106.03 122.56 105.35 123.07 104.66 123.58 C 98.96 121.50 91.74 123.96 87.17 119.19 C 86.92 114.37 87.15 109.32 84.56 105.02 C 85.05 104.50 85.54 103.98 86.05 103.47 C 88.01 103.43 89.98 103.39 91.94 103.45 C 91.17 102.55 90.40 101.65 89.62 100.77 C 87.91 102.01 85.96 101.82 84.06 101.27 L 84.73 102.77 C 84.05 102.89 82.69 103.13 82.02 103.25 C 82.82 105.97 84.37 108.38 85.19 111.09 C 85.58 114.13 85.26 117.22 85.83 120.25 C 84.62 122.68 83.18 124.98 81.90 127.37 C 83.52 125.90 85.03 124.28 86.93 123.16 C 86.74 122.64 86.37 121.60 86.19 121.08 C 91.62 125.41 98.73 124.39 105.14 125.68 C 110.04 125.68 114.90 124.19 119.52 122.62 C 120.65 123.79 121.82 124.91 123.03 126.01 C 123.02 128.85 122.38 131.61 121.88 134.39 C 123.11 136.57 124.09 138.88 125.05 141.19 C 126.89 145.15 126.28 149.95 129.25 153.42 C 125.13 155.10 122.29 158.98 117.90 160.12 C 114.37 161.53 110.78 159.76 107.33 159.04 C 108.80 161.19 111.35 162.58 113.99 162.42 C 119.29 162.43 124.10 159.63 128.02 156.28 C 128.15 160.81 128.37 165.34 128.59 169.87 C 128.11 169.78 127.15 169.60 126.67 169.51 C 126.07 171.79 125.60 174.28 123.82 175.99 C 120.71 176.34 119.62 172.86 118.22 170.76 C 118.76 173.09 119.20 176.12 121.53 177.34 C 124.89 178.09 126.63 174.49 127.97 172.10 C 129.06 174.36 130.62 176.80 129.65 179.41 C 128.26 183.83 128.73 188.48 128.04 193.01 C 128.89 198.31 130.06 203.63 129.53 209.04 C 128.89 214.00 130.24 218.88 131.58 223.60 C 133.78 226.31 136.83 228.29 138.75 231.28 C 141.22 234.95 145.38 237.35 149.85 237.34 C 150.64 238.37 151.41 239.41 152.17 240.47 C 150.15 241.57 148.23 242.95 145.98 243.57 C 143.47 243.34 140.96 243.03 138.47 242.65 C 135.71 241.63 133.09 239.72 130.00 240.09 C 126.68 240.42 123.31 240.97 120.09 239.80 C 119.98 235.90 119.84 231.91 120.96 228.13 C 122.39 223.56 122.00 218.67 121.64 213.97 C 121.47 210.63 119.37 207.88 118.29 204.82 C 117.08 199.77 116.59 194.55 117.05 189.36 C 117.49 189.96 118.36 191.15 118.79 191.75 C 119.15 191.56 119.88 191.18 120.24 190.99 C 120.36 186.30 116.31 182.77 116.42 178.06 C 116.37 171.75 111.28 167.25 108.11 162.27 C 107.80 162.23 107.18 162.16 106.88 162.13 C 106.94 160.49 107.08 158.86 107.28 157.25 C 108.23 156.48 109.29 155.89 110.33 155.26 C 115.16 155.79 116.69 150.33 117.31 146.56 C 115.60 148.54 114.21 150.78 112.91 153.05 C 110.45 153.54 108.05 154.31 105.66 155.10 C 105.16 157.53 105.33 160.12 104.44 162.44 C 102.83 163.98 100.73 164.84 98.86 166.00 C 100.07 159.94 99.76 153.01 95.81 147.96 C 94.27 145.71 91.30 145.60 88.96 144.75 C 81.48 147.61 78.58 156.57 78.88 163.96 C 78.78 170.00 81.67 177.82 88.60 178.47 C 87.18 180.53 86.48 182.96 86.85 185.46 C 87.37 184.31 87.87 183.14 88.36 181.97 C 90.17 181.49 91.99 181.00 93.79 180.45 C 94.62 181.50 95.48 182.53 96.37 183.56 C 95.81 181.61 95.09 179.72 94.33 177.85 C 92.99 178.53 91.63 179.18 90.27 179.82 C 89.70 179.25 89.12 178.69 88.55 178.13 C 94.28 177.33 97.21 171.72 98.78 166.76 C 100.18 166.75 101.59 166.73 102.99 166.68 C 101.95 171.21 101.61 176.06 99.15 180.12 C 94.89 186.88 94.24 195.25 89.97 202.01 C 87.47 206.38 87.32 211.54 87.30 216.44 C 89.75 215.71 88.85 212.93 89.14 211.02 C 89.05 207.56 90.57 204.35 92.14 201.36 C 92.31 203.88 92.62 206.42 92.57 208.97 C 92.44 213.94 88.83 218.05 88.85 223.05 C 88.21 230.69 88.73 239.09 93.76 245.30 C 96.29 250.72 101.28 254.47 103.50 260.07 C 102.12 260.25 100.73 260.36 99.34 260.41 C 98.87 259.20 98.38 258.00 97.88 256.80 C 94.65 257.24 91.42 257.74 88.15 257.48 C 87.64 257.81 86.63 258.47 86.13 258.80 C 89.69 259.47 93.32 259.45 96.87 258.70 C 97.37 259.49 97.86 260.28 98.35 261.09 C 94.20 264.17 87.18 263.42 84.98 258.41 C 84.10 252.42 80.86 247.13 79.83 241.18 C 80.07 237.60 81.13 234.03 80.44 230.44 C 79.89 224.12 77.01 218.26 76.71 211.92 C 76.64 206.62 78.63 201.61 80.65 196.81 C 82.23 199.54 82.52 203.15 85.19 205.15 C 83.75 199.82 82.07 194.53 81.40 189.03 C 81.58 185.31 83.22 181.90 83.95 178.31 C 83.72 177.85 83.27 176.91 83.05 176.44 C 80.21 182.19 80.06 188.64 79.43 194.88 C 77.82 200.21 75.51 205.42 74.92 211.01 C 75.39 217.82 78.19 224.21 78.90 230.98 C 79.48 235.96 76.73 240.96 79.34 245.66 C 78.53 250.36 82.68 254.08 82.31 258.84 C 85.02 265.03 95.01 267.23 99.93 262.46 C 101.33 262.30 102.74 262.14 104.15 261.98 C 104.23 260.37 104.27 258.76 104.26 257.16 C 102.52 254.74 100.97 252.17 98.83 250.08 C 96.55 247.01 94.99 243.46 92.67 240.42 C 90.10 234.62 90.69 228.05 91.27 221.91 C 91.61 218.38 93.54 215.32 94.42 211.95 C 95.09 207.63 94.25 203.26 94.49 198.92 C 95.12 193.89 97.28 189.24 98.63 184.39 C 100.40 181.10 102.65 177.97 103.21 174.17 C 104.45 170.57 103.03 166.19 106.05 163.31 C 108.33 166.01 110.08 169.08 111.95 172.06 C 113.88 174.95 112.63 178.76 114.21 181.79 C 115.00 183.78 116.63 185.71 115.87 187.97 C 114.90 192.38 114.68 196.91 114.62 201.42 C 115.94 206.48 119.73 210.69 120.11 216.05 C 121.58 224.19 116.65 231.77 117.95 239.95 C 121.13 242.57 125.23 242.24 129.07 241.82 C 133.49 241.07 136.60 245.44 140.95 245.09 C 145.87 245.84 151.68 244.25 154.40 239.85 C 153.23 238.29 152.19 236.56 150.62 235.36 C 148.33 234.73 145.71 234.92 143.82 233.26 C 140.00 230.40 137.64 226.04 133.55 223.46 C 130.01 214.01 133.40 203.59 130.37 194.03 C 129.70 191.95 130.20 189.78 130.63 187.71 C 129.39 184.70 130.97 181.79 131.56 178.86 C 132.30 175.71 129.53 173.12 129.80 170.02 C 130.00 165.37 129.71 160.71 128.86 156.13 C 129.98 155.52 131.09 154.90 132.20 154.27 C 131.26 152.78 130.28 151.34 129.19 149.97 C 128.59 143.95 125.54 138.67 123.82 132.97 C 124.03 130.34 125.88 127.65 124.57 125.05 C 123.30 123.28 121.15 121.79 121.70 119.30 C 121.54 118.94 121.24 118.22 121.09 117.86 C 121.09 113.90 120.80 109.93 121.18 105.98 C 121.82 103.22 123.26 100.73 123.91 97.97 C 123.57 92.93 121.06 88.03 122.41 82.90 C 123.75 83.45 125.10 84.00 126.45 84.54 C 126.39 84.17 126.27 83.41 126.21 83.04 C 124.73 81.93 123.60 80.50 122.82 78.82 C 121.95 80.98 121.04 83.11 120.05 85.22 M 109.12 83.03 C 109.16 83.41 109.25 84.19 109.30 84.57 C 112.38 87.37 116.56 85.43 119.96 84.44 C 118.07 82.91 115.84 84.20 113.83 84.63 C 112.26 84.07 110.72 83.45 109.12 83.03 M 130.94 96.96 C 130.88 100.22 130.09 103.43 130.31 106.70 C 134.53 99.90 131.17 92.11 128.12 85.63 C 127.74 89.68 130.25 93.12 130.94 96.96 M 113.52 88.50 C 112.39 89.51 111.17 90.44 109.68 90.84 C 110.36 91.27 111.05 91.70 111.74 92.14 C 111.90 92.97 112.23 94.63 112.40 95.46 C 110.02 96.34 107.30 96.69 105.55 98.73 C 105.06 98.83 104.10 99.04 103.61 99.15 C 102.90 99.93 102.16 100.69 101.40 101.41 C 99.39 100.83 97.59 99.75 95.70 98.91 C 96.73 101.44 99.05 102.81 101.56 103.56 C 102.83 101.78 104.58 100.54 106.58 99.71 C 108.74 98.58 111.06 97.84 113.25 96.78 C 116.04 97.11 118.83 97.48 121.61 97.87 C 119.61 95.35 116.45 95.06 113.47 95.43 C 113.46 93.67 112.50 92.23 111.48 90.89 C 112.52 90.37 113.55 89.85 114.57 89.31 C 115.78 89.71 116.99 90.09 118.20 90.48 C 117.34 89.66 116.48 88.86 115.61 88.05 C 115.09 88.17 114.05 88.39 113.52 88.50 M 99.07 97.11 C 100.63 96.41 102.15 95.62 103.68 94.84 C 104.94 92.56 106.59 90.55 108.29 88.59 C 103.46 88.83 102.48 94.55 99.07 97.11 M 72.64 91.74 C 72.42 92.89 72.25 94.06 72.13 95.23 C 73.85 93.68 75.61 92.18 77.14 90.45 C 75.62 90.78 74.06 91.08 72.64 91.74 M 78.20 92.38 C 78.27 94.69 80.52 96.55 79.81 98.98 C 79.28 102.30 79.41 105.64 79.51 108.98 C 79.65 113.88 75.58 117.67 75.69 122.59 C 76.23 121.69 77.31 119.90 77.85 119.00 C 80.49 124.95 80.74 132.00 78.48 138.11 C 77.21 142.58 78.22 147.88 81.33 151.39 C 81.11 147.89 79.71 144.55 79.79 141.02 C 80.26 137.65 81.88 134.46 81.60 130.99 C 81.74 126.23 80.61 121.57 79.01 117.12 C 80.66 113.77 80.89 109.96 82.35 106.56 C 82.03 106.10 81.38 105.19 81.06 104.73 C 81.28 101.54 82.25 98.26 81.32 95.10 C 80.88 93.68 80.13 91.26 78.20 92.38 M 83.85 94.87 C 83.90 95.57 84.01 96.99 84.06 97.70 C 86.80 99.46 89.95 99.22 92.96 98.32 C 92.36 97.74 91.77 97.17 91.18 96.59 C 88.86 97.81 86.00 97.64 84.80 94.97 C 85.64 94.75 87.31 94.30 88.15 94.08 C 86.62 92.86 85.17 93.86 83.85 94.87 M 66.48 108.49 C 67.58 105.62 67.68 101.95 64.62 100.22 C 64.78 103.02 64.64 106.17 66.48 108.49 M 94.53 105.60 C 94.60 106.01 94.72 106.82 94.78 107.23 C 97.13 107.98 99.68 107.70 100.71 105.13 C 98.65 105.31 96.60 105.49 94.53 105.60 M 96.19 110.80 C 93.56 109.55 91.03 108.11 88.55 106.58 C 88.27 110.32 93.22 112.99 96.19 110.80 M 127.84 118.14 C 129.96 120.76 132.43 123.14 134.04 126.14 C 135.56 129.43 135.85 133.19 135.37 136.76 C 134.95 136.69 134.10 136.56 133.68 136.49 C 133.96 138.67 133.45 140.83 133.31 143.00 C 133.81 145.74 134.78 148.43 136.13 150.86 C 137.79 151.99 139.59 152.94 141.00 154.41 C 141.47 153.58 141.93 152.75 142.40 151.92 C 140.99 151.38 139.58 150.87 138.16 150.38 C 137.22 148.19 136.27 146.01 135.12 143.93 C 135.58 139.59 137.73 135.48 137.05 131.02 C 136.94 125.47 132.92 121.31 129.44 117.44 C 127.78 114.64 126.50 111.61 124.61 108.94 C 125.21 112.14 126.21 115.32 127.84 118.14 M 112.53 116.98 C 113.73 116.59 114.90 115.09 114.46 113.80 C 112.93 112.89 110.60 116.32 112.53 116.98 M 98.88 127.59 C 95.83 126.77 92.81 125.88 89.72 125.26 C 88.43 128.28 86.36 131.55 88.03 134.85 C 88.75 132.13 89.51 129.42 90.73 126.88 C 92.59 127.46 94.46 128.00 96.33 128.55 C 95.64 130.28 95.04 132.20 93.53 133.42 C 91.25 135.41 87.94 136.19 86.37 138.95 C 91.09 137.31 97.30 135.09 97.62 129.19 C 101.30 130.03 105.12 130.34 108.84 129.60 C 112.99 128.67 117.94 128.28 120.38 124.27 C 113.64 127.06 106.18 128.95 98.88 127.59 M 124.94 132.31 C 127.01 130.91 130.16 129.75 130.14 126.80 C 127.79 127.95 125.69 129.70 124.94 132.31 M 82.58 130.26 C 82.86 136.39 82.45 142.49 82.17 148.61 C 83.64 146.34 84.60 143.72 84.41 140.99 C 84.23 137.40 84.97 133.32 82.58 130.26 M 101.78 135.79 C 100.33 136.14 99.26 137.20 98.19 138.16 C 103.85 137.31 109.23 135.13 114.92 134.52 C 116.63 134.20 119.10 134.95 119.76 132.65 C 113.64 132.59 107.57 133.88 101.78 135.79 M 102.35 142.96 C 105.42 141.97 108.10 140.12 111.10 138.97 C 114.11 137.64 117.52 136.98 119.96 134.63 C 113.61 135.82 106.80 138.05 102.35 142.96 M 95.57 145.05 C 99.85 147.38 104.54 144.70 109.05 144.99 C 113.49 144.43 118.88 144.93 121.89 140.92 C 113.34 143.56 104.29 143.23 95.57 145.05 M 75.58 142.17 C 75.35 145.00 75.97 147.74 77.47 150.16 C 77.33 147.45 76.96 144.77 76.62 142.08 C 76.36 142.11 75.84 142.15 75.58 142.17 M 70.79 147.13 C 70.08 148.08 70.07 150.01 71.27 150.58 C 73.17 150.44 72.73 146.21 70.79 147.13 M 89.04 188.90 C 89.05 189.49 89.08 190.69 89.09 191.29 C 90.62 191.09 92.18 190.80 93.37 189.73 C 91.93 189.42 90.49 189.15 89.04 188.90 M 123.46 226.05 C 122.53 229.14 122.71 232.56 125.46 234.62 C 125.13 233.09 124.72 231.58 124.31 230.08 C 124.34 228.68 124.27 227.26 123.46 226.05 M 82.40 242.98 C 84.60 241.97 85.82 239.85 86.45 237.60 C 87.01 236.63 87.55 235.66 88.07 234.68 C 84.36 235.57 83.57 239.88 82.40 242.98 Z" />
<path fill="#FFFFFF" opacity="1.00" d=" M 88.68 30.70 C 92.25 27.39 97.43 27.43 101.99 27.63 C 104.97 29.91 107.58 32.87 107.57 36.85 C 109.69 43.07 108.72 49.68 106.71 55.78 C 104.27 59.88 99.61 56.53 96.45 55.30 C 93.76 54.48 92.67 51.80 91.35 49.61 C 89.67 48.19 87.78 47.02 86.30 45.36 C 86.88 43.95 87.46 42.54 88.03 41.12 C 87.33 41.24 85.93 41.48 85.24 41.60 C 84.95 37.73 85.50 33.33 88.68 30.70 Z" />
<path fill="#FFFFFF" opacity="1.00" d=" M 147.30 139.44 C 149.06 136.63 152.12 135.13 154.85 133.46 C 157.37 135.19 160.01 137.16 160.89 140.25 C 163.06 146.76 162.19 154.53 157.94 160.02 C 156.19 162.15 153.16 164.24 150.38 162.72 C 146.71 160.94 145.06 156.76 144.76 152.92 C 144.42 148.34 144.85 143.44 147.30 139.44 Z" />
<path fill="#FFFFFF" opacity="1.00" d=" M 90.42 145.72 C 93.70 147.43 96.51 150.14 97.40 153.85 C 98.91 159.86 98.35 166.72 94.88 171.99 C 92.90 174.87 89.07 177.35 85.58 175.55 C 81.69 173.16 80.56 168.26 80.28 164.02 C 80.31 159.51 81.09 154.75 83.78 151.01 C 85.44 148.64 88.02 147.22 90.42 145.72 Z" />
</g>
<g id="#474946ff">
<path fill="#333333" opacity="1.00" d=" M 85.70 30.70 C 88.93 26.31 95.05 25.41 100.10 26.27 C 104.01 26.49 107.93 29.51 108.32 33.56 C 108.88 37.73 110.67 41.80 110.12 46.08 C 109.53 50.36 108.92 54.69 107.36 58.74 C 110.06 59.35 113.13 58.95 115.52 60.59 C 112.35 61.51 109.15 60.77 106.12 59.76 C 106.17 61.14 106.21 62.52 106.24 63.90 C 108.79 62.92 111.43 62.12 114.17 61.90 C 114.40 62.42 114.88 63.47 115.11 63.99 C 116.71 64.41 118.23 65.05 119.77 65.67 L 119.79 66.25 L 119.60 66.73 C 117.39 66.61 115.65 64.94 113.89 63.76 C 111.13 63.96 108.48 64.76 105.88 65.67 C 104.91 67.01 104.04 69.07 102.04 68.85 C 99.13 68.24 96.21 66.87 93.19 67.64 C 90.91 67.96 88.44 69.07 86.28 67.68 C 88.93 66.91 91.62 66.30 94.32 65.76 C 92.93 62.87 91.86 59.84 90.62 56.89 C 90.79 57.03 91.13 57.30 91.30 57.44 C 93.00 59.98 95.85 62.40 94.90 65.79 C 98.54 65.13 102.30 68.68 105.47 65.99 C 105.87 63.90 105.07 61.85 104.80 59.79 C 100.60 59.86 96.27 58.66 93.03 55.93 C 91.31 53.81 90.48 51.08 88.40 49.22 C 88.68 53.05 87.93 56.82 87.48 60.60 C 84.22 63.59 80.89 66.52 78.04 69.93 C 73.98 72.39 69.30 74.39 66.60 78.54 C 64.53 83.44 66.57 88.75 67.03 93.77 C 66.48 93.06 65.38 91.63 64.83 90.91 C 64.12 94.23 63.70 97.60 63.16 100.95 C 62.34 105.38 64.97 109.33 66.03 113.48 C 66.46 113.12 67.31 112.41 67.73 112.05 C 66.94 118.01 65.03 123.85 65.43 129.93 C 65.42 136.44 68.90 142.48 68.23 149.03 C 68.01 151.37 68.16 153.72 69.08 155.91 C 70.27 158.79 69.73 162.07 70.81 164.95 C 73.11 167.06 77.61 165.79 78.81 169.32 C 75.15 168.72 69.21 168.67 68.61 163.87 C 68.59 158.40 65.60 153.36 66.59 147.86 C 66.89 145.29 66.26 142.76 65.86 140.24 C 62.10 143.13 59.15 147.07 58.42 151.86 C 57.52 157.17 57.67 163.37 61.40 167.64 C 63.20 169.80 66.19 169.54 68.70 169.50 C 66.94 173.09 62.06 171.26 60.14 168.82 C 55.97 163.39 55.20 155.82 57.48 149.45 C 58.67 145.16 61.21 141.06 65.38 139.14 C 63.30 132.60 63.59 125.54 65.02 118.89 C 66.35 113.51 61.42 109.26 61.41 104.01 C 61.38 98.57 62.77 93.26 64.20 88.06 C 63.85 83.82 63.38 78.90 66.47 75.49 C 69.29 72.95 72.22 70.31 75.88 69.04 C 77.90 68.51 78.85 66.51 80.19 65.10 C 81.94 62.81 84.51 61.42 86.81 59.75 C 88.23 56.52 87.08 52.82 87.51 49.40 C 86.28 47.77 84.59 46.24 84.45 44.07 C 84.02 39.65 82.76 34.55 85.70 30.70 M 88.68 30.70 C 85.50 33.33 84.95 37.73 85.24 41.60 C 85.93 41.48 87.33 41.24 88.03 41.12 C 87.46 42.54 86.88 43.95 86.30 45.36 C 87.78 47.02 89.67 48.19 91.35 49.61 C 92.67 51.80 93.76 54.48 96.45 55.30 C 99.61 56.53 104.27 59.88 106.71 55.78 C 108.72 49.68 109.69 43.07 107.57 36.85 C 107.58 32.87 104.97 29.91 101.99 27.63 C 97.43 27.43 92.25 27.39 88.68 30.70 Z" />
<path fill="#333333" opacity="1.00" d=" M 116.21 61.25 C 117.12 60.70 118.02 60.14 118.92 59.58 C 122.05 61.01 125.98 61.95 127.60 65.35 C 129.61 68.16 130.25 71.63 130.10 75.03 C 129.67 78.65 132.21 81.56 132.81 84.98 C 133.75 88.56 133.34 92.93 136.56 95.44 C 139.28 97.69 141.20 100.74 141.91 104.21 C 142.98 110.25 145.88 115.85 146.07 122.05 C 146.32 126.53 148.70 130.42 150.67 134.32 C 151.73 132.23 154.19 133.04 155.94 133.35 C 159.68 134.14 161.68 138.01 162.55 141.41 C 164.37 149.13 162.78 158.30 156.56 163.67 C 153.87 166.00 149.54 165.44 147.23 162.85 C 140.55 154.53 141.98 140.75 150.11 133.85 C 149.33 133.91 147.75 134.03 146.96 134.10 L 148.19 133.65 C 146.96 130.87 145.55 128.10 145.11 125.05 C 144.20 117.63 141.07 110.75 139.42 103.50 C 138.40 97.86 131.34 95.21 132.05 89.01 C 132.31 84.95 129.76 81.57 128.75 77.84 C 128.96 73.03 128.52 67.62 124.67 64.23 C 122.15 62.54 119.38 60.86 116.21 61.25 M 147.30 139.44 C 144.85 143.44 144.42 148.34 144.76 152.92 C 145.06 156.76 146.71 160.94 150.38 162.72 C 153.16 164.24 156.19 162.15 157.94 160.02 C 162.19 154.53 163.06 146.76 160.89 140.25 C 160.01 137.16 157.37 135.19 154.85 133.46 C 152.12 135.13 149.06 136.63 147.30 139.44 Z" />
<path fill="#333333" opacity="1.00" d=" M 105.29 73.77 C 107.09 75.88 108.09 78.48 109.05 81.04 C 107.74 83.53 107.09 87.17 103.85 87.77 C 99.61 88.77 96.87 93.49 92.04 92.36 C 88.69 91.41 84.19 89.00 84.21 85.02 C 87.63 87.50 91.15 92.27 95.93 90.04 C 99.17 88.19 102.25 86.04 105.92 85.03 C 107.87 81.27 105.61 77.59 105.29 73.77 Z" />
<path fill="#333333" opacity="1.00" d=" M 120.05 85.22 C 121.04 83.11 121.95 80.98 122.82 78.82 C 123.60 80.50 124.73 81.93 126.21 83.04 C 126.27 83.41 126.39 84.17 126.45 84.54 C 125.10 84.00 123.75 83.45 122.41 82.90 C 121.06 88.03 123.57 92.93 123.91 97.97 C 123.26 100.73 121.82 103.22 121.18 105.98 C 120.80 109.93 121.09 113.90 121.09 117.86 C 121.24 118.22 121.54 118.94 121.70 119.30 C 121.15 121.79 123.30 123.28 124.57 125.05 C 125.88 127.65 124.03 130.34 123.82 132.97 C 125.54 138.67 128.59 143.95 129.19 149.97 C 130.28 151.34 131.26 152.78 132.20 154.27 C 131.09 154.90 129.98 155.52 128.86 156.13 C 129.71 160.71 130.00 165.37 129.80 170.02 C 129.53 173.12 132.30 175.71 131.56 178.86 C 130.97 181.79 129.39 184.70 130.63 187.71 C 130.20 189.78 129.70 191.95 130.37 194.03 C 133.40 203.59 130.01 214.01 133.55 223.46 C 137.64 226.04 140.00 230.40 143.82 233.26 C 145.71 234.92 148.33 234.73 150.62 235.36 C 152.19 236.56 153.23 238.29 154.40 239.85 C 151.68 244.25 145.87 245.84 140.95 245.09 C 136.60 245.44 133.49 241.07 129.07 241.82 C 125.23 242.24 121.13 242.57 117.95 239.95 C 116.65 231.77 121.58 224.19 120.11 216.05 C 119.73 210.69 115.94 206.48 114.62 201.42 C 114.68 196.91 114.90 192.38 115.87 187.97 C 116.63 185.71 115.00 183.78 114.21 181.79 C 112.63 178.76 113.88 174.95 111.95 172.06 C 110.08 169.08 108.33 166.01 106.05 163.31 C 103.03 166.19 104.45 170.57 103.21 174.17 C 102.65 177.97 100.40 181.10 98.63 184.39 C 97.28 189.24 95.12 193.89 94.49 198.92 C 94.25 203.26 95.09 207.63 94.42 211.95 C 93.54 215.32 91.61 218.38 91.27 221.91 C 90.69 228.05 90.10 234.62 92.67 240.42 C 94.99 243.46 96.55 247.01 98.83 250.08 C 100.97 252.17 102.52 254.74 104.26 257.16 C 104.27 258.76 104.23 260.37 104.15 261.98 C 102.74 262.14 101.33 262.30 99.93 262.46 C 95.01 267.23 85.02 265.03 82.31 258.84 C 82.68 254.08 78.53 250.36 79.34 245.66 C 76.73 240.96 79.48 235.96 78.90 230.98 C 78.19 224.21 75.39 217.82 74.92 211.01 C 75.51 205.42 77.82 200.21 79.43 194.88 C 80.06 188.64 80.21 182.19 83.05 176.44 C 83.27 176.91 83.72 177.85 83.95 178.31 C 83.22 181.90 81.58 185.31 81.40 189.03 C 82.07 194.53 83.75 199.82 85.19 205.15 C 82.52 203.15 82.23 199.54 80.65 196.81 C 78.63 201.61 76.64 206.62 76.71 211.92 C 77.01 218.26 79.89 224.12 80.44 230.44 C 81.13 234.03 80.07 237.60 79.83 241.18 C 80.86 247.13 84.10 252.42 84.98 258.41 C 87.18 263.42 94.20 264.17 98.35 261.09 C 97.86 260.28 97.37 259.49 96.87 258.70 C 93.32 259.45 89.69 259.47 86.13 258.80 C 86.63 258.47 87.64 257.81 88.15 257.48 C 91.42 257.74 94.65 257.24 97.88 256.80 C 98.38 258.00 98.87 259.20 99.34 260.41 C 100.73 260.36 102.12 260.25 103.50 260.07 C 101.28 254.47 96.29 250.72 93.76 245.30 C 88.73 239.09 88.21 230.69 88.85 223.05 C 88.83 218.05 92.44 213.94 92.57 208.97 C 92.62 206.42 92.31 203.88 92.14 201.36 C 90.57 204.35 89.05 207.56 89.14 211.02 C 88.85 212.93 89.75 215.71 87.30 216.44 C 87.32 211.54 87.47 206.38 89.97 202.01 C 94.24 195.25 94.89 186.88 99.15 180.12 C 101.61 176.06 101.95 171.21 102.99 166.68 C 101.59 166.73 100.18 166.75 98.78 166.76 C 97.21 171.72 94.28 177.33 88.55 178.13 C 89.12 178.69 89.70 179.25 90.27 179.82 C 91.63 179.18 92.99 178.53 94.33 177.85 C 95.09 179.72 95.81 181.61 96.37 183.56 C 95.48 182.53 94.62 181.50 93.79 180.45 C 91.99 181.00 90.17 181.49 88.36 181.97 C 87.87 183.14 87.37 184.31 86.85 185.46 C 86.48 182.96 87.18 180.53 88.60 178.47 C 81.67 177.82 78.78 170.00 78.88 163.96 C 78.58 156.57 81.48 147.61 88.96 144.75 C 91.30 145.60 94.27 145.71 95.81 147.96 C 99.76 153.01 100.07 159.94 98.86 166.00 C 100.73 164.84 102.83 163.98 104.44 162.44 C 105.33 160.12 105.16 157.53 105.66 155.10 C 108.05 154.31 110.45 153.54 112.91 153.05 C 114.21 150.78 115.60 148.54 117.31 146.56 C 116.69 150.33 115.16 155.79 110.33 155.26 C 109.29 155.89 108.23 156.48 107.28 157.25 C 107.08 158.86 106.94 160.49 106.88 162.13 C 107.18 162.16 107.80 162.23 108.11 162.27 C 111.28 167.25 116.37 171.75 116.42 178.06 C 116.31 182.77 120.36 186.30 120.24 190.99 C 119.88 191.18 119.15 191.56 118.79 191.75 C 118.36 191.15 117.49 189.96 117.05 189.36 C 116.59 194.55 117.08 199.77 118.29 204.82 C 119.37 207.88 121.47 210.63 121.64 213.97 C 122.00 218.67 122.39 223.56 120.96 228.13 C 119.84 231.91 119.98 235.90 120.09 239.80 C 123.31 240.97 126.68 240.42 130.00 240.09 C 133.09 239.72 135.71 241.63 138.47 242.65 C 140.96 243.03 143.47 243.34 145.98 243.57 C 148.23 242.95 150.15 241.57 152.17 240.47 C 151.41 239.41 150.64 238.37 149.85 237.34 C 145.38 237.35 141.22 234.95 138.75 231.28 C 136.83 228.29 133.78 226.31 131.58 223.60 C 130.24 218.88 128.89 214.00 129.53 209.04 C 130.06 203.63 128.89 198.31 128.04 193.01 C 128.73 188.48 128.26 183.83 129.65 179.41 C 130.62 176.80 129.06 174.36 127.97 172.10 C 126.63 174.49 124.89 178.09 121.53 177.34 C 119.20 176.12 118.76 173.09 118.22 170.76 C 119.62 172.86 120.71 176.34 123.82 175.99 C 125.60 174.28 126.07 171.79 126.67 169.51 C 127.15 169.60 128.11 169.78 128.59 169.87 C 128.37 165.34 128.15 160.81 128.02 156.28 C 124.10 159.63 119.29 162.43 113.99 162.42 C 111.35 162.58 108.80 161.19 107.33 159.04 C 110.78 159.76 114.37 161.53 117.90 160.12 C 122.29 158.98 125.13 155.10 129.25 153.42 C 126.28 149.95 126.89 145.15 125.05 141.19 C 124.09 138.88 123.11 136.57 121.88 134.39 C 122.38 131.61 123.02 128.85 123.03 126.01 C 121.82 124.91 120.65 123.79 119.52 122.62 C 114.90 124.19 110.04 125.68 105.14 125.68 C 98.73 124.39 91.62 125.41 86.19 121.08 C 86.37 121.60 86.74 122.64 86.93 123.16 C 85.03 124.28 83.52 125.90 81.90 127.37 C 83.18 124.98 84.62 122.68 85.83 120.25 C 85.26 117.22 85.58 114.13 85.19 111.09 C 84.37 108.38 82.82 105.97 82.02 103.25 C 82.69 103.13 84.05 102.89 84.73 102.77 L 84.06 101.27 C 85.96 101.82 87.91 102.01 89.62 100.77 C 90.40 101.65 91.17 102.55 91.94 103.45 C 89.98 103.39 88.01 103.43 86.05 103.47 C 85.54 103.98 85.05 104.50 84.56 105.02 C 87.15 109.32 86.92 114.37 87.17 119.19 C 91.74 123.96 98.96 121.50 104.66 123.58 C 105.35 123.07 106.03 122.56 106.71 122.05 C 103.08 122.42 100.51 118.32 100.50 115.01 C 102.57 117.25 104.32 119.89 107.15 121.28 C 106.97 121.92 106.61 123.20 106.44 123.83 C 110.97 122.57 115.79 122.12 119.96 119.77 C 119.77 115.49 119.15 111.24 119.07 106.96 C 118.58 107.41 117.62 108.32 117.14 108.78 C 115.93 108.64 114.63 107.66 113.47 108.36 C 110.09 110.34 106.08 110.31 102.36 111.18 C 102.72 112.53 103.05 113.89 103.38 115.25 C 102.19 114.40 101.00 113.53 99.84 112.65 L 101.26 112.87 C 101.19 111.61 101.11 110.36 101.02 109.10 L 99.92 110.20 C 100.01 109.70 100.17 108.68 100.26 108.18 C 101.24 108.74 102.23 109.30 103.22 109.86 C 105.70 107.78 108.92 107.96 111.96 107.99 C 112.94 105.40 112.96 102.64 112.87 99.91 C 113.97 102.13 114.95 104.42 115.48 106.85 C 116.42 106.76 117.35 106.67 118.29 106.58 C 119.64 104.16 121.22 101.79 121.88 99.06 C 122.58 94.35 120.50 89.86 120.05 85.22 M 90.42 145.72 C 88.02 147.22 85.44 148.64 83.78 151.01 C 81.09 154.75 80.31 159.51 80.28 164.02 C 80.56 168.26 81.69 173.16 85.58 175.55 C 89.07 177.35 92.90 174.87 94.88 171.99 C 98.35 166.72 98.91 159.86 97.40 153.85 C 96.51 150.14 93.70 147.43 90.42 145.72 Z" />
<path fill="#333333" opacity="1.00" d=" M 109.12 83.03 C 110.72 83.45 112.26 84.07 113.83 84.63 C 115.84 84.20 118.07 82.91 119.96 84.44 C 116.56 85.43 112.38 87.37 109.30 84.57 C 109.25 84.19 109.16 83.41 109.12 83.03 Z" />
<path fill="#333333" opacity="1.00" d=" M 130.94 96.96 C 130.25 93.12 127.74 89.68 128.12 85.63 C 131.17 92.11 134.53 99.90 130.31 106.70 C 130.09 103.43 130.88 100.22 130.94 96.96 Z" />
<path fill="#333333" opacity="1.00" d=" M 113.52 88.50 C 114.05 88.39 115.09 88.17 115.61 88.05 C 116.48 88.86 117.34 89.66 118.20 90.48 C 116.99 90.09 115.78 89.71 114.57 89.31 C 113.55 89.85 112.52 90.37 111.48 90.89 C 112.50 92.23 113.46 93.67 113.47 95.43 C 116.45 95.06 119.61 95.35 121.61 97.87 C 118.83 97.48 116.04 97.11 113.25 96.78 C 111.06 97.84 108.74 98.58 106.58 99.71 C 104.58 100.54 102.83 101.78 101.56 103.56 C 99.05 102.81 96.73 101.44 95.70 98.91 C 97.59 99.75 99.39 100.83 101.40 101.41 C 102.16 100.69 102.90 99.93 103.61 99.15 C 104.10 99.04 105.06 98.83 105.55 98.73 C 107.30 96.69 110.02 96.34 112.40 95.46 C 112.23 94.63 111.90 92.97 111.74 92.14 C 111.05 91.70 110.36 91.27 109.68 90.84 C 111.17 90.44 112.39 89.51 113.52 88.50 Z" />
<path fill="#333333" opacity="1.00" d=" M 99.07 97.11 C 102.48 94.55 103.46 88.83 108.29 88.59 C 106.59 90.55 104.94 92.56 103.68 94.84 C 102.15 95.62 100.63 96.41 99.07 97.11 Z" />
<path fill="#333333" opacity="1.00" d=" M 72.64 91.74 C 74.06 91.08 75.62 90.78 77.14 90.45 C 75.61 92.18 73.85 93.68 72.13 95.23 C 72.25 94.06 72.42 92.89 72.64 91.74 Z" />
<path fill="#333333" opacity="1.00" d=" M 78.20 92.38 C 80.13 91.26 80.88 93.68 81.32 95.10 C 82.25 98.26 81.28 101.54 81.06 104.73 C 81.38 105.19 82.03 106.10 82.35 106.56 C 80.89 109.96 80.66 113.77 79.01 117.12 C 80.61 121.57 81.74 126.23 81.60 130.99 C 81.88 134.46 80.26 137.65 79.79 141.02 C 79.71 144.55 81.11 147.89 81.33 151.39 C 78.22 147.88 77.21 142.58 78.48 138.11 C 80.74 132.00 80.49 124.95 77.85 119.00 C 77.31 119.90 76.23 121.69 75.69 122.59 C 75.58 117.67 79.65 113.88 79.51 108.98 C 79.41 105.64 79.28 102.30 79.81 98.98 C 80.52 96.55 78.27 94.69 78.20 92.38 Z" />
<path fill="#333333" opacity="1.00" d=" M 83.85 94.87 C 85.17 93.86 86.62 92.86 88.15 94.08 C 87.31 94.30 85.64 94.75 84.80 94.97 C 86.00 97.64 88.86 97.81 91.18 96.59 C 91.77 97.17 92.36 97.74 92.96 98.32 C 89.95 99.22 86.80 99.46 84.06 97.70 C 84.01 96.99 83.90 95.57 83.85 94.87 Z" />
<path fill="#333333" opacity="1.00" d=" M 66.48 108.49 C 64.64 106.17 64.78 103.02 64.62 100.22 C 67.68 101.95 67.58 105.62 66.48 108.49 Z" />
<path fill="#333333" opacity="1.00" d=" M 94.53 105.60 C 96.60 105.49 98.65 105.31 100.71 105.13 C 99.68 107.70 97.13 107.98 94.78 107.23 C 94.72 106.82 94.60 106.01 94.53 105.60 Z" />
<path fill="#333333" opacity="1.00" d=" M 96.19 110.80 C 93.22 112.99 88.27 110.32 88.55 106.58 C 91.03 108.11 93.56 109.55 96.19 110.80 Z" />
<path fill="#333333" opacity="1.00" d=" M 127.84 118.14 C 126.21 115.32 125.21 112.14 124.61 108.94 C 126.50 111.61 127.78 114.64 129.44 117.44 C 132.92 121.31 136.94 125.47 137.05 131.02 C 137.73 135.48 135.58 139.59 135.12 143.93 C 136.27 146.01 137.22 148.19 138.16 150.38 C 139.58 150.87 140.99 151.38 142.40 151.92 C 141.93 152.75 141.47 153.58 141.00 154.41 C 139.59 152.94 137.79 151.99 136.13 150.86 C 134.78 148.43 133.81 145.74 133.31 143.00 C 133.45 140.83 133.96 138.67 133.68 136.49 C 134.10 136.56 134.95 136.69 135.37 136.76 C 135.85 133.19 135.56 129.43 134.04 126.14 C 132.43 123.14 129.96 120.76 127.84 118.14 Z" />
<path fill="#333333" opacity="1.00" d=" M 112.53 116.98 C 110.60 116.32 112.93 112.89 114.46 113.80 C 114.90 115.09 113.73 116.59 112.53 116.98 Z" />
<path fill="#333333" opacity="1.00" d=" M 98.88 127.59 C 106.18 128.95 113.64 127.06 120.38 124.27 C 117.94 128.28 112.99 128.67 108.84 129.60 C 105.12 130.34 101.30 130.03 97.62 129.19 C 97.30 135.09 91.09 137.31 86.37 138.95 C 87.94 136.19 91.25 135.41 93.53 133.42 C 95.04 132.20 95.64 130.28 96.33 128.55 C 94.46 128.00 92.59 127.46 90.73 126.88 C 89.51 129.42 88.75 132.13 88.03 134.85 C 86.36 131.55 88.43 128.28 89.72 125.26 C 92.81 125.88 95.83 126.77 98.88 127.59 Z" />
<path fill="#333333" opacity="1.00" d=" M 124.94 132.31 C 125.69 129.70 127.79 127.95 130.14 126.80 C 130.16 129.75 127.01 130.91 124.94 132.31 Z" />
<path fill="#333333" opacity="1.00" d=" M 82.58 130.26 C 84.97 133.32 84.23 137.40 84.41 140.99 C 84.60 143.72 83.64 146.34 82.17 148.61 C 82.45 142.49 82.86 136.39 82.58 130.26 Z" />
<path fill="#333333" opacity="1.00" d=" M 101.78 135.79 C 107.57 133.88 113.64 132.59 119.76 132.65 C 119.10 134.95 116.63 134.20 114.92 134.52 C 109.23 135.13 103.85 137.31 98.19 138.16 C 99.26 137.20 100.33 136.14 101.78 135.79 Z" />
<path fill="#333333" opacity="1.00" d=" M 102.35 142.96 C 106.80 138.05 113.61 135.82 119.96 134.63 C 117.52 136.98 114.11 137.64 111.10 138.97 C 108.10 140.12 105.42 141.97 102.35 142.96 Z" />
<path fill="#333333" opacity="1.00" d=" M 95.57 145.05 C 104.29 143.23 113.34 143.56 121.89 140.92 C 118.88 144.93 113.49 144.43 109.05 144.99 C 104.54 144.70 99.85 147.38 95.57 145.05 Z" />
<path fill="#333333" opacity="1.00" d=" M 75.58 142.17 C 75.84 142.15 76.36 142.11 76.62 142.08 C 76.96 144.77 77.33 147.45 77.47 150.16 C 75.97 147.74 75.35 145.00 75.58 142.17 Z" />
<path fill="#333333" opacity="1.00" d=" M 70.79 147.13 C 72.73 146.21 73.17 150.44 71.27 150.58 C 70.07 150.01 70.08 148.08 70.79 147.13 Z" />
<path fill="#333333" opacity="1.00" d=" M 89.04 188.90 C 90.49 189.15 91.93 189.42 93.37 189.73 C 92.18 190.80 90.62 191.09 89.09 191.29 C 89.08 190.69 89.05 189.49 89.04 188.90 Z" />
<path fill="#333333" opacity="1.00" d=" M 123.46 226.05 C 124.27 227.26 124.34 228.68 124.31 230.08 C 124.72 231.58 125.13 233.09 125.46 234.62 C 122.71 232.56 122.53 229.14 123.46 226.05 Z" />
<path fill="#333333" opacity="1.00" d=" M 82.40 242.98 C 83.57 239.88 84.36 235.57 88.07 234.68 C 87.55 235.66 87.01 236.63 86.45 237.60 C 85.82 239.85 84.60 241.97 82.40 242.98 Z" />
</g>
</svg>
