<?xml version="1.0" encoding="UTF-8" ?>
<!DOCTYPE svg PUBLIC "-//W3C//DTD SVG 1.1//EN" "http://www.w3.org/Graphics/SVG/1.1/DTD/svg11.dtd">
<svg width="221pt" height="275pt" viewBox="0 0 221 275" version="1.1" xmlns="http://www.w3.org/2000/svg">
<g id="#ffffffff">
<path fill="#FFFFFF" opacity="1.00" d=" M 0.00 0.00 L 221.00 0.00 L 221.00 275.00 L 0.00 275.00 L 0.00 0.00 M 85.29 31.35 C 82.38 36.05 84.59 41.72 85.02 46.80 C 85.93 47.84 86.85 48.88 87.76 49.92 C 87.46 53.14 87.98 56.65 86.66 59.64 C 82.69 61.11 80.14 64.72 76.30 66.42 C 71.86 68.47 68.97 73.06 68.37 77.83 C 67.27 81.96 70.64 85.75 69.64 89.87 C 67.98 96.35 68.04 103.33 70.36 109.64 C 72.02 112.97 75.97 114.02 78.52 116.52 C 80.50 118.68 83.50 118.45 86.17 118.37 C 85.85 121.43 84.21 124.03 82.55 126.53 C 80.69 129.18 82.19 132.44 82.68 135.28 C 84.03 141.16 80.81 146.70 80.70 152.54 C 80.70 155.49 78.70 157.74 77.27 160.14 C 78.51 161.55 79.75 162.96 81.01 164.36 C 81.50 164.01 82.49 163.31 82.98 162.96 C 82.52 166.39 82.58 169.85 82.92 173.28 C 82.50 173.33 81.66 173.42 81.24 173.47 C 81.72 174.07 82.22 174.67 82.71 175.26 C 82.93 175.89 83.38 177.14 83.60 177.77 L 82.40 177.44 C 80.34 183.03 79.99 188.96 79.45 194.83 C 77.84 200.17 75.53 205.39 74.93 210.98 C 75.38 217.79 78.19 224.19 78.89 230.96 C 79.48 235.94 76.74 240.94 79.34 245.65 C 78.58 250.37 82.66 254.12 82.33 258.90 C 85.10 265.05 95.01 267.18 99.94 262.46 C 101.34 262.31 102.74 262.15 104.14 261.99 C 104.23 260.39 104.27 258.80 104.27 257.21 C 102.46 254.56 100.67 251.91 98.43 249.60 C 96.39 246.37 94.51 243.03 92.37 239.86 C 89.71 231.41 90.22 221.81 93.87 213.72 C 95.26 209.99 94.47 205.94 94.47 202.07 C 94.00 196.09 96.92 190.64 98.40 185.01 C 99.51 182.08 101.81 179.71 102.55 176.62 C 104.20 172.33 103.32 167.31 106.02 163.43 C 108.68 165.78 110.08 169.07 111.92 172.02 C 113.87 174.93 112.65 178.76 114.23 181.81 C 115.02 183.80 116.64 185.74 115.87 187.99 C 114.90 192.41 114.67 196.93 114.63 201.44 C 115.95 206.51 119.76 210.71 120.12 216.09 C 121.59 224.21 116.65 231.79 117.95 239.95 C 122.84 244.36 129.73 239.79 134.93 243.24 C 140.97 246.70 150.36 246.03 154.41 239.83 C 153.25 238.29 152.19 236.62 150.67 235.40 C 148.63 234.72 146.27 235.00 144.46 233.70 C 140.23 230.93 137.87 226.17 133.56 223.47 C 129.99 214.03 133.39 203.60 130.37 194.05 C 129.71 191.96 130.20 189.80 130.61 187.72 C 129.43 184.70 130.94 181.81 131.55 178.87 C 132.29 175.74 129.57 173.16 129.78 170.09 C 130.02 165.58 130.06 161.03 129.23 156.57 C 130.61 155.73 131.65 154.56 131.97 152.94 C 130.48 151.64 129.02 150.14 129.01 148.02 C 128.36 142.73 125.30 138.18 124.13 133.06 C 124.77 130.46 125.34 127.84 125.06 125.14 C 123.92 123.91 122.15 122.92 122.07 121.05 C 121.25 116.78 120.85 112.40 121.19 108.06 C 121.47 104.52 123.84 101.53 124.10 98.00 C 123.94 95.82 123.11 93.76 122.34 91.74 C 121.97 94.12 122.09 96.53 122.02 98.93 C 121.94 101.91 119.66 104.11 118.26 106.55 C 117.34 106.67 116.43 106.78 115.51 106.90 C 114.95 104.48 113.99 102.20 112.88 100.00 C 112.95 102.69 112.92 105.42 111.99 107.98 C 108.92 107.99 105.68 107.80 103.17 109.88 C 102.16 109.26 101.15 108.64 100.15 108.02 C 100.66 109.56 101.12 111.12 101.53 112.70 L 99.90 112.71 C 101.05 113.58 102.21 114.42 103.38 115.26 C 103.06 113.92 102.72 112.59 102.37 111.26 C 103.73 111.04 105.06 110.72 106.36 110.29 C 110.27 110.95 113.37 106.84 117.12 108.75 C 117.63 108.30 118.63 107.39 119.14 106.94 C 119.25 111.14 119.62 115.32 120.38 119.46 C 116.17 122.13 111.14 122.53 106.44 123.83 C 106.62 123.20 106.96 121.93 107.14 121.29 C 104.33 119.87 102.55 117.24 100.45 115.02 C 100.58 118.31 103.06 122.42 106.71 122.04 C 106.03 122.56 105.35 123.07 104.67 123.59 C 101.17 122.76 97.60 122.30 94.00 122.25 C 90.77 122.20 87.67 120.34 86.18 117.46 C 88.29 114.52 90.95 112.01 93.07 109.09 C 94.25 105.93 94.74 102.54 96.03 99.41 C 97.28 101.44 99.12 102.87 101.42 103.55 C 103.04 101.04 106.42 100.61 107.81 97.96 C 105.21 98.49 102.77 99.50 101.14 101.67 C 100.14 101.04 99.16 100.39 98.19 99.72 C 97.76 99.43 96.88 98.84 96.44 98.55 C 99.58 97.00 103.26 95.98 105.35 92.92 C 102.13 92.49 99.39 94.71 96.48 95.73 C 97.40 94.84 98.34 93.98 99.28 93.12 C 97.08 89.05 97.72 83.94 94.87 80.12 C 93.11 76.86 89.46 75.74 86.29 74.38 C 86.07 74.71 85.65 75.38 85.43 75.72 C 83.62 76.73 81.34 77.43 80.31 79.40 C 77.74 83.94 77.89 89.38 78.68 94.38 C 78.11 94.52 76.96 94.78 76.39 94.92 C 77.00 95.03 78.23 95.25 78.85 95.36 C 80.57 100.73 85.45 106.98 91.83 104.62 C 90.75 109.90 87.24 114.22 82.44 116.62 C 79.15 113.11 73.70 112.03 71.59 107.42 C 68.86 102.09 70.10 95.98 71.30 90.43 C 70.18 85.72 69.50 80.77 70.49 75.97 C 71.52 71.36 75.94 68.87 79.96 67.22 C 82.70 64.55 86.48 62.64 87.81 58.83 C 89.19 56.05 88.76 52.86 88.63 49.88 C 89.62 51.03 90.61 52.19 91.39 53.50 C 93.87 58.29 99.82 59.77 104.82 59.79 C 104.94 61.81 106.23 63.99 104.90 65.84 C 102.14 68.76 98.29 65.02 94.85 65.79 C 95.94 62.00 92.44 59.44 90.59 56.61 C 91.79 59.67 92.89 62.77 94.27 65.75 C 92.17 66.20 90.08 66.70 87.99 67.19 C 86.37 68.33 84.54 69.61 82.76 67.56 C 82.60 69.05 83.69 69.51 85.12 69.53 C 84.67 70.26 83.78 71.72 83.33 72.46 C 86.41 72.80 86.41 68.41 89.34 68.34 C 93.63 67.00 98.29 67.14 102.32 69.23 C 103.68 68.30 104.97 67.28 106.09 66.08 C 108.93 64.01 112.58 64.00 115.90 63.35 C 112.89 61.08 109.32 62.70 106.25 63.91 C 106.21 62.53 106.17 61.14 106.11 59.76 C 109.16 60.77 112.39 61.53 115.56 60.55 C 113.09 59.08 110.09 59.32 107.36 58.76 C 108.81 55.00 109.38 50.99 110.00 47.04 C 110.88 42.43 108.93 37.99 108.30 33.49 C 107.88 29.45 103.95 26.47 100.04 26.28 C 94.79 25.37 88.27 26.45 85.29 31.35 M 142.97 68.86 C 142.90 64.60 145.81 61.46 149.10 59.20 C 151.25 60.54 153.87 61.37 155.47 63.45 C 159.23 68.02 159.83 74.53 158.38 80.09 C 157.32 84.03 153.72 87.02 149.50 86.13 C 148.83 85.07 148.15 84.03 147.46 82.99 C 149.28 81.18 151.19 79.39 152.34 77.05 C 152.09 74.44 150.87 72.05 150.11 69.57 C 145.76 67.89 141.12 69.34 137.13 71.28 C 135.18 67.51 131.53 63.10 126.73 64.56 C 124.37 61.44 119.86 58.55 116.10 61.06 C 119.83 60.99 122.87 63.36 126.30 64.44 C 122.19 65.38 121.73 69.78 119.61 72.71 C 119.24 75.50 119.16 78.31 119.03 81.12 C 118.40 74.93 113.48 69.16 106.92 69.46 C 105.61 70.21 104.29 70.95 102.98 71.69 C 102.09 74.25 101.16 76.80 100.47 79.42 C 98.70 79.54 96.94 79.69 95.19 79.91 C 96.66 82.10 99.08 81.69 101.31 81.26 C 102.40 82.29 103.48 83.33 104.53 84.38 C 105.18 85.60 105.97 86.72 106.85 87.77 C 106.73 88.70 106.60 89.64 106.48 90.58 C 105.74 90.33 105.01 90.08 104.28 89.83 C 102.69 90.56 101.13 91.33 99.59 92.15 C 102.14 92.31 104.69 92.43 107.24 92.67 C 108.49 90.28 110.38 87.17 107.59 85.08 C 106.14 82.50 104.83 79.42 101.70 78.56 C 102.73 75.02 105.11 72.28 108.04 70.16 C 109.88 71.25 111.90 72.08 113.55 73.46 C 116.84 76.71 118.28 81.45 118.07 86.00 C 118.22 89.94 116.83 94.26 113.42 96.53 C 111.35 97.73 108.95 96.82 106.76 96.60 C 107.60 97.59 108.45 98.57 109.29 99.57 C 112.47 98.89 116.34 97.96 117.37 94.36 C 117.74 95.41 118.06 96.46 118.38 97.53 C 119.38 97.84 120.38 98.15 121.39 98.46 C 120.22 96.85 119.00 95.27 117.81 93.68 L 120.67 92.77 C 120.10 92.90 118.95 93.14 118.37 93.27 C 119.88 89.06 119.36 84.61 119.14 80.26 C 120.15 84.78 121.25 89.91 125.49 92.56 C 128.19 95.03 132.52 94.46 134.98 91.93 C 137.73 89.53 137.42 85.57 138.63 82.41 C 142.16 84.60 137.24 89.93 140.80 92.21 C 141.20 89.71 141.45 87.19 141.97 84.71 C 141.89 84.07 141.73 82.78 141.65 82.13 C 143.54 82.28 145.43 82.43 147.33 82.55 C 146.69 83.08 145.41 84.13 144.77 84.66 C 144.47 90.44 145.62 96.52 143.08 101.95 C 142.40 104.36 140.97 107.31 137.91 106.64 C 134.45 103.19 129.28 100.55 128.74 95.16 C 128.09 94.97 126.79 94.60 126.14 94.41 C 127.26 100.98 132.77 105.66 137.86 109.40 C 140.20 108.63 143.23 107.91 143.92 105.14 C 144.96 101.78 146.29 98.47 146.86 94.98 C 146.54 91.76 146.02 88.51 146.70 85.29 C 147.95 86.24 149.20 87.20 150.43 88.19 C 154.48 88.26 158.37 85.62 159.47 81.67 C 161.75 74.35 160.77 64.67 154.07 59.93 C 148.62 56.08 140.00 62.50 142.97 68.86 M 72.95 92.66 C 73.99 93.47 76.38 92.32 75.75 90.92 C 74.70 90.07 72.30 91.25 72.95 92.66 M 73.67 101.84 C 73.72 103.16 73.77 104.48 73.82 105.80 L 75.26 105.84 C 75.87 102.99 78.15 100.61 77.89 97.59 C 77.03 98.46 75.31 100.22 74.45 101.09 C 74.72 98.83 73.49 97.20 71.71 96.06 C 71.58 98.19 72.33 100.20 73.67 101.84 M 98.41 105.13 C 97.18 105.26 95.87 107.62 97.75 107.82 C 100.01 108.40 101.44 104.02 98.41 105.13 M 112.53 116.97 C 113.73 116.61 114.92 115.10 114.43 113.82 C 112.90 112.90 110.59 116.32 112.53 116.97 Z" />
<path fill="#FFFFFF" opacity="1.00" d=" M 89.25 30.23 C 92.80 27.32 97.67 27.47 102.00 27.62 C 103.95 29.52 106.65 31.20 107.06 34.12 C 107.85 38.98 109.77 43.89 108.34 48.83 C 107.60 52.12 107.66 57.71 103.16 57.90 C 99.09 56.45 93.95 55.37 92.12 50.93 C 91.22 48.75 88.60 48.33 87.00 46.81 C 87.06 44.93 87.53 43.09 87.87 41.25 C 87.27 41.36 86.08 41.58 85.48 41.69 C 84.67 37.57 85.68 32.79 89.25 30.23 Z" />
<path fill="#FFFFFF" opacity="1.00" d=" M 121.29 71.45 C 121.98 68.37 124.81 66.68 127.19 64.99 C 137.62 67.77 140.88 82.38 134.27 90.23 C 132.10 92.89 127.80 92.92 125.43 90.52 C 120.26 85.81 119.58 77.87 121.29 71.45 Z" />
<path fill="#FFFFFF" opacity="1.00" d=" M 137.21 72.51 C 140.22 72.07 143.08 71.02 146.05 70.41 C 149.25 70.26 149.30 74.28 150.59 76.30 C 149.41 77.97 148.20 79.62 146.85 81.14 C 146.26 80.01 145.69 78.87 145.11 77.73 C 144.53 77.57 143.37 77.24 142.79 77.07 C 142.40 77.30 141.61 77.74 141.22 77.96 C 141.98 78.62 142.75 79.29 143.51 79.96 C 141.80 80.42 140.08 80.87 138.36 81.31 C 138.25 78.34 137.75 75.42 137.21 72.51 Z" />
<path fill="#FFFFFF" opacity="1.00" d=" M 80.41 95.16 C 78.36 88.44 79.07 79.35 86.20 75.93 C 95.75 78.51 98.71 90.73 94.88 98.90 C 93.36 101.15 91.04 103.84 87.99 103.24 C 84.06 102.54 81.58 98.70 80.41 95.16 Z" />
<path fill="#FFFFFF" opacity="1.00" d=" M 87.07 121.57 C 91.33 124.98 96.87 124.38 101.93 125.25 C 107.93 126.62 113.91 124.28 119.63 122.69 C 120.74 123.92 121.89 125.13 123.07 126.30 C 123.36 128.94 122.83 131.56 122.04 134.08 C 124.06 138.59 126.40 143.08 127.03 148.04 C 127.17 150.19 128.41 151.96 129.65 153.63 C 125.69 155.16 122.98 158.75 118.95 160.12 C 114.99 162.04 110.76 159.74 106.75 159.28 C 107.84 155.71 111.68 155.74 114.50 154.46 C 116.22 152.22 117.18 149.47 117.70 146.72 C 115.75 148.66 114.36 151.06 113.04 153.46 C 110.70 153.82 108.34 154.32 106.23 155.44 C 105.07 157.59 105.43 160.26 104.93 162.63 C 101.45 164.97 97.19 166.38 92.97 165.90 C 90.21 165.31 87.69 163.98 85.07 162.97 C 85.07 161.07 85.06 159.18 85.02 157.29 C 83.06 158.18 82.53 160.34 81.57 162.06 C 81.14 161.49 80.26 160.36 79.82 159.79 C 81.13 157.37 82.29 154.84 82.54 152.07 C 82.91 147.93 85.07 144.10 84.73 139.88 C 85.00 136.18 83.81 132.64 83.42 129.01 C 83.77 126.95 84.13 123.88 86.88 124.01 C 86.92 123.40 87.02 122.18 87.07 121.57 M 98.87 127.59 C 96.03 126.89 93.24 125.98 90.38 125.36 C 89.44 128.43 85.86 132.22 88.93 135.10 C 89.24 132.31 90.08 129.64 91.21 127.09 C 92.93 127.58 94.65 128.05 96.36 128.54 C 95.16 133.72 90.05 135.86 86.39 139.00 C 91.38 138.22 97.04 134.64 97.63 129.19 C 101.39 130.06 105.29 130.32 109.09 129.54 C 113.18 128.67 117.90 128.14 120.43 124.37 C 113.60 126.97 106.20 128.99 98.87 127.59 M 101.03 136.10 C 99.82 136.40 99.33 137.69 98.55 138.52 C 104.05 137.41 109.29 135.03 114.92 134.51 C 116.61 134.14 119.27 135.20 119.75 132.63 C 113.37 132.64 107.01 133.94 101.03 136.10 M 112.08 137.07 C 108.75 138.76 104.86 140.02 102.74 143.33 C 108.35 140.13 114.84 138.58 120.08 134.76 C 117.25 134.84 114.57 135.78 112.08 137.07 M 95.82 145.68 C 100.55 147.10 105.27 145.08 110.02 145.09 C 114.31 144.82 119.24 144.82 122.23 141.22 C 113.65 143.94 104.43 143.16 95.82 145.68 Z" />
<path fill="#FFFFFF" opacity="1.00" d=" M 107.35 160.06 C 113.90 165.41 122.62 161.44 128.18 156.68 C 128.52 161.09 128.53 165.52 128.51 169.95 C 128.06 169.84 127.15 169.60 126.70 169.48 C 126.08 171.80 125.58 174.33 123.75 176.06 C 121.09 176.19 119.65 173.59 118.87 171.43 C 118.68 171.44 118.30 171.45 118.10 171.45 C 119.04 173.45 119.39 176.28 121.54 177.33 C 124.90 178.09 126.62 174.46 127.98 172.08 C 128.98 174.28 130.56 176.61 129.71 179.13 C 128.35 182.96 128.86 187.02 128.19 190.95 C 127.67 194.33 129.06 197.58 129.35 200.92 C 129.96 205.27 129.32 209.64 129.44 214.00 C 129.86 217.24 130.67 220.44 131.58 223.58 C 132.61 225.14 134.24 226.18 135.52 227.52 C 138.13 229.91 139.69 233.34 142.78 235.24 C 144.84 236.76 147.42 237.12 149.90 237.36 C 150.67 238.39 151.43 239.43 152.17 240.49 C 150.12 241.59 148.18 243.01 145.89 243.58 C 143.39 243.32 140.87 243.04 138.39 242.62 C 135.65 241.59 133.05 239.74 129.98 240.10 C 126.67 240.42 123.31 240.98 120.08 239.80 C 120.00 236.54 119.88 233.25 120.49 230.04 C 122.61 222.31 123.00 213.40 118.86 206.26 C 116.86 200.63 116.59 194.46 117.19 188.55 C 117.69 189.51 118.68 191.43 119.18 192.39 C 121.48 188.75 118.42 185.42 117.21 182.05 C 115.88 178.91 116.95 175.14 114.90 172.25 C 113.00 169.20 111.63 165.72 108.78 163.38 L 109.67 162.59 C 109.02 162.38 107.73 161.98 107.09 161.77 L 107.35 160.06 M 123.52 226.00 C 122.53 229.08 122.68 232.53 125.46 234.60 C 125.13 233.08 124.73 231.59 124.33 230.09 C 124.30 228.69 124.17 227.27 123.52 226.00 Z" />
<path fill="#FFFFFF" opacity="1.00" d=" M 84.06 164.67 C 87.02 165.71 89.76 167.43 92.88 167.99 C 96.36 168.18 99.76 167.18 103.12 166.44 C 102.05 171.04 101.62 175.95 99.17 180.09 C 95.01 186.63 94.36 194.71 90.34 201.32 C 87.88 205.51 87.12 210.52 87.42 215.31 C 87.74 215.64 88.38 216.31 88.70 216.65 C 89.11 211.41 89.04 205.93 92.13 201.39 C 92.31 204.89 93.08 208.50 92.11 211.95 C 91.12 215.67 88.85 219.05 88.86 223.00 C 88.21 230.65 88.73 239.08 93.76 245.29 C 96.31 250.67 101.15 254.47 103.52 259.95 C 102.48 260.23 101.44 260.47 100.39 260.66 C 99.01 259.78 98.49 258.10 97.58 256.83 C 94.45 257.30 91.33 257.68 88.16 257.51 C 87.65 257.83 86.62 258.48 86.10 258.80 C 89.68 259.50 93.29 259.21 96.88 258.89 C 97.29 259.41 98.12 260.46 98.53 260.99 C 95.11 263.34 90.33 263.81 87.00 261.03 C 84.26 259.36 84.70 255.81 83.72 253.18 C 82.55 249.95 81.21 246.78 80.32 243.46 C 79.17 240.39 80.62 237.20 80.65 234.07 C 80.73 227.83 78.50 221.92 77.18 215.90 C 75.66 209.32 78.09 202.74 80.67 196.77 C 82.14 199.60 82.70 203.01 85.09 205.28 C 83.88 199.85 82.03 194.57 81.39 189.02 C 81.86 184.73 83.24 180.60 84.66 176.54 C 85.57 177.69 87.33 178.38 87.66 179.91 L 87.49 180.04 C 87.05 181.80 86.76 183.60 86.78 185.42 C 87.34 184.27 87.88 183.12 88.39 181.96 C 90.19 181.48 91.99 180.99 93.77 180.45 C 94.60 181.49 95.46 182.50 96.36 183.48 C 95.84 181.67 95.28 179.86 94.35 178.22 C 92.90 178.57 91.51 179.30 89.98 179.19 C 89.55 178.84 88.68 178.13 88.25 177.78 L 89.55 178.30 C 92.46 176.87 95.05 174.78 96.62 171.89 C 94.31 173.08 92.29 174.76 89.94 175.88 C 87.94 176.69 85.97 175.63 84.17 174.83 C 84.94 171.46 84.37 168.04 84.06 164.67 M 88.52 189.00 C 88.73 191.93 92.00 191.33 93.38 189.65 C 91.76 189.38 90.14 189.17 88.52 189.00 M 82.28 243.19 C 84.36 241.92 85.86 239.99 86.46 237.61 C 87.00 236.61 87.54 235.61 88.06 234.60 C 84.28 235.66 83.64 240.05 82.28 243.19 Z" />
</g>
<g id="#454644ff">
<path fill="#333333" opacity="1.00" d=" M 85.29 31.35 C 88.27 26.45 94.79 25.37 100.04 26.28 C 103.95 26.47 107.88 29.45 108.30 33.49 C 108.93 37.99 110.88 42.43 110.00 47.04 C 109.38 50.99 108.81 55.00 107.36 58.76 C 110.09 59.32 113.09 59.08 115.56 60.55 C 112.39 61.53 109.16 60.77 106.11 59.76 C 106.17 61.14 106.21 62.53 106.25 63.91 C 109.32 62.70 112.89 61.08 115.90 63.35 C 112.58 64.00 108.93 64.01 106.09 66.08 C 104.97 67.28 103.68 68.30 102.32 69.23 C 98.29 67.14 93.63 67.00 89.34 68.34 C 86.41 68.41 86.41 72.80 83.33 72.46 C 83.78 71.72 84.67 70.26 85.12 69.53 C 83.69 69.51 82.60 69.05 82.76 67.56 C 84.54 69.61 86.37 68.33 87.99 67.19 C 90.08 66.70 92.17 66.20 94.27 65.75 C 92.89 62.77 91.79 59.67 90.59 56.61 C 92.44 59.44 95.94 62.00 94.85 65.79 C 98.29 65.02 102.14 68.76 104.90 65.84 C 106.23 63.99 104.94 61.81 104.82 59.79 C 99.82 59.77 93.87 58.29 91.39 53.50 C 90.61 52.19 89.62 51.03 88.63 49.88 C 88.76 52.86 89.19 56.05 87.81 58.83 C 86.48 62.64 82.70 64.55 79.96 67.22 C 75.94 68.87 71.52 71.36 70.49 75.97 C 69.50 80.77 70.18 85.72 71.30 90.43 C 70.10 95.98 68.86 102.09 71.59 107.42 C 73.70 112.03 79.15 113.11 82.44 116.62 C 87.24 114.22 90.75 109.90 91.83 104.62 C 85.45 106.98 80.57 100.73 78.85 95.36 C 78.23 95.25 77.00 95.03 76.39 94.92 C 76.96 94.78 78.11 94.52 78.68 94.38 C 77.89 89.38 77.74 83.94 80.31 79.40 C 81.34 77.43 83.62 76.73 85.43 75.72 C 85.65 75.38 86.07 74.71 86.29 74.38 C 89.46 75.74 93.11 76.86 94.87 80.12 C 97.72 83.94 97.08 89.05 99.28 93.12 C 98.34 93.98 97.40 94.84 96.48 95.73 C 99.39 94.71 102.13 92.49 105.35 92.92 C 103.26 95.98 99.58 97.00 96.44 98.55 C 96.88 98.84 97.76 99.43 98.19 99.72 C 99.16 100.39 100.14 101.04 101.14 101.67 C 102.77 99.50 105.21 98.49 107.81 97.96 C 106.42 100.61 103.04 101.04 101.42 103.55 C 99.12 102.87 97.28 101.44 96.03 99.41 C 94.74 102.54 94.25 105.93 93.07 109.09 C 90.95 112.01 88.29 114.52 86.18 117.46 C 87.67 120.34 90.77 122.20 94.00 122.25 C 97.60 122.30 101.17 122.76 104.67 123.59 C 105.35 123.07 106.03 122.56 106.71 122.04 C 103.06 122.42 100.58 118.31 100.45 115.02 C 102.55 117.24 104.33 119.87 107.14 121.29 C 106.96 121.93 106.62 123.20 106.44 123.83 C 111.14 122.53 116.17 122.13 120.38 119.46 C 119.62 115.32 119.25 111.14 119.14 106.94 C 118.63 107.39 117.63 108.30 117.12 108.75 C 113.37 106.84 110.27 110.95 106.36 110.29 C 105.06 110.72 103.73 111.04 102.37 111.26 C 102.72 112.59 103.06 113.92 103.38 115.26 C 102.21 114.42 101.05 113.58 99.90 112.71 L 101.53 112.70 C 101.12 111.12 100.66 109.56 100.15 108.02 C 101.15 108.64 102.16 109.26 103.17 109.88 C 105.68 107.80 108.92 107.99 111.99 107.98 C 112.92 105.42 112.95 102.69 112.88 100.00 C 113.99 102.20 114.95 104.48 115.51 106.90 C 116.43 106.78 117.34 106.67 118.26 106.55 C 119.66 104.11 121.94 101.91 122.02 98.93 C 122.09 96.53 121.97 94.12 122.34 91.74 C 123.11 93.76 123.94 95.82 124.10 98.00 C 123.84 101.53 121.47 104.52 121.19 108.06 C 120.85 112.40 121.25 116.78 122.07 121.05 C 122.15 122.92 123.92 123.91 125.06 125.14 C 125.34 127.84 124.77 130.46 124.13 133.06 C 125.30 138.18 128.36 142.73 129.01 148.02 C 129.02 150.14 130.48 151.64 131.97 152.94 C 131.65 154.56 130.61 155.73 129.23 156.57 C 130.06 161.03 130.02 165.58 129.78 170.09 C 129.57 173.16 132.29 175.74 131.55 178.87 C 130.94 181.81 129.43 184.70 130.61 187.72 C 130.20 189.80 129.71 191.96 130.37 194.05 C 133.39 203.60 129.99 214.03 133.56 223.47 C 137.87 226.17 140.23 230.93 144.46 233.70 C 146.27 235.00 148.63 234.72 150.67 235.40 C 152.19 236.62 153.25 238.29 154.41 239.83 C 150.36 246.03 140.97 246.70 134.93 243.24 C 129.73 239.79 122.84 244.36 117.95 239.95 C 116.65 231.79 121.59 224.21 120.12 216.09 C 119.76 210.71 115.95 206.51 114.63 201.44 C 114.67 196.93 114.90 192.41 115.87 187.99 C 116.64 185.74 115.02 183.80 114.23 181.81 C 112.65 178.76 113.87 174.93 111.92 172.02 C 110.08 169.07 108.68 165.78 106.02 163.43 C 103.32 167.31 104.20 172.33 102.55 176.62 C 101.81 179.71 99.51 182.08 98.40 185.01 C 96.92 190.64 94.00 196.09 94.47 202.07 C 94.47 205.94 95.26 209.99 93.87 213.72 C 90.22 221.81 89.71 231.41 92.37 239.86 C 94.51 243.03 96.39 246.37 98.43 249.60 C 100.67 251.91 102.46 254.56 104.27 257.21 C 104.27 258.80 104.23 260.39 104.14 261.99 C 102.74 262.15 101.34 262.31 99.94 262.46 C 95.01 267.18 85.10 265.05 82.33 258.90 C 82.66 254.12 78.58 250.37 79.34 245.65 C 76.74 240.94 79.48 235.94 78.89 230.96 C 78.19 224.19 75.38 217.79 74.93 210.98 C 75.53 205.39 77.84 200.17 79.45 194.83 C 79.99 188.96 80.34 183.03 82.40 177.44 L 83.60 177.77 C 83.38 177.14 82.93 175.89 82.71 175.26 C 82.22 174.67 81.72 174.07 81.24 173.47 C 81.66 173.42 82.50 173.33 82.92 173.28 C 82.58 169.85 82.52 166.39 82.98 162.96 C 82.49 163.31 81.50 164.01 81.01 164.36 C 79.75 162.96 78.51 161.55 77.27 160.14 C 78.70 157.74 80.70 155.49 80.70 152.54 C 80.81 146.70 84.03 141.16 82.68 135.28 C 82.19 132.44 80.69 129.18 82.55 126.53 C 84.21 124.03 85.85 121.43 86.17 118.37 C 83.50 118.45 80.50 118.68 78.52 116.52 C 75.97 114.02 72.02 112.97 70.36 109.64 C 68.04 103.33 67.98 96.35 69.64 89.87 C 70.64 85.75 67.27 81.96 68.37 77.83 C 68.97 73.06 71.86 68.47 76.30 66.42 C 80.14 64.72 82.69 61.11 86.66 59.64 C 87.98 56.65 87.46 53.14 87.76 49.92 C 86.85 48.88 85.93 47.84 85.02 46.80 C 84.59 41.72 82.38 36.05 85.29 31.35 M 89.25 30.23 C 85.68 32.79 84.67 37.57 85.48 41.69 C 86.08 41.58 87.27 41.36 87.87 41.25 C 87.53 43.09 87.06 44.93 87.00 46.81 C 88.60 48.33 91.22 48.75 92.12 50.93 C 93.95 55.37 99.09 56.45 103.16 57.90 C 107.66 57.71 107.60 52.12 108.34 48.83 C 109.77 43.89 107.85 38.98 107.06 34.12 C 106.65 31.20 103.95 29.52 102.00 27.62 C 97.67 27.47 92.80 27.32 89.25 30.23 M 80.41 95.16 C 81.58 98.70 84.06 102.54 87.99 103.24 C 91.04 103.84 93.36 101.15 94.88 98.90 C 98.71 90.73 95.75 78.51 86.20 75.93 C 79.07 79.35 78.36 88.44 80.41 95.16 M 87.07 121.57 C 87.02 122.18 86.92 123.40 86.88 124.01 C 84.13 123.88 83.77 126.95 83.42 129.01 C 83.81 132.64 85.00 136.18 84.73 139.88 C 85.07 144.10 82.91 147.93 82.54 152.07 C 82.29 154.84 81.13 157.37 79.82 159.79 C 80.26 160.36 81.14 161.49 81.57 162.06 C 82.53 160.34 83.06 158.18 85.02 157.29 C 85.06 159.18 85.07 161.07 85.07 162.97 C 87.69 163.98 90.21 165.31 92.97 165.90 C 97.19 166.38 101.45 164.97 104.93 162.63 C 105.43 160.26 105.07 157.59 106.23 155.44 C 108.34 154.32 110.70 153.82 113.04 153.46 C 114.36 151.06 115.75 148.66 117.70 146.72 C 117.18 149.47 116.22 152.22 114.50 154.46 C 111.68 155.74 107.84 155.71 106.75 159.28 C 110.76 159.74 114.99 162.04 118.95 160.12 C 122.98 158.75 125.69 155.16 129.65 153.63 C 128.41 151.96 127.17 150.19 127.03 148.04 C 126.40 143.08 124.06 138.59 122.04 134.08 C 122.83 131.56 123.36 128.94 123.07 126.30 C 121.89 125.13 120.74 123.92 119.63 122.69 C 113.91 124.28 107.93 126.62 101.93 125.25 C 96.87 124.38 91.33 124.98 87.07 121.57 M 107.35 160.06 L 107.09 161.77 C 107.73 161.98 109.02 162.38 109.67 162.59 L 108.78 163.38 C 111.63 165.72 113.00 169.20 114.90 172.25 C 116.95 175.14 115.88 178.91 117.21 182.05 C 118.42 185.42 121.48 188.75 119.18 192.39 C 118.68 191.43 117.69 189.51 117.19 188.55 C 116.59 194.46 116.86 200.63 118.86 206.26 C 123.00 213.40 122.61 222.31 120.49 230.04 C 119.88 233.25 120.00 236.54 120.08 239.80 C 123.31 240.98 126.67 240.42 129.98 240.10 C 133.05 239.74 135.65 241.59 138.39 242.62 C 140.87 243.04 143.39 243.32 145.89 243.58 C 148.18 243.01 150.12 241.59 152.17 240.49 C 151.43 239.43 150.67 238.39 149.90 237.36 C 147.42 237.12 144.84 236.76 142.78 235.24 C 139.69 233.34 138.13 229.91 135.52 227.52 C 134.24 226.18 132.61 225.14 131.58 223.58 C 130.67 220.44 129.86 217.24 129.44 214.00 C 129.32 209.64 129.96 205.27 129.35 200.92 C 129.06 197.58 127.67 194.33 128.19 190.95 C 128.86 187.02 128.35 182.96 129.71 179.13 C 130.56 176.61 128.98 174.28 127.98 172.08 C 126.62 174.46 124.90 178.09 121.54 177.33 C 119.39 176.28 119.04 173.45 118.10 171.45 C 118.30 171.45 118.68 171.44 118.87 171.43 C 119.65 173.59 121.09 176.19 123.75 176.06 C 125.58 174.33 126.08 171.80 126.70 169.48 C 127.15 169.60 128.06 169.84 128.51 169.95 C 128.53 165.52 128.52 161.09 128.18 156.68 C 122.62 161.44 113.90 165.41 107.35 160.06 M 84.06 164.67 C 84.37 168.04 84.94 171.46 84.17 174.83 C 85.97 175.63 87.94 176.69 89.94 175.88 C 92.29 174.76 94.31 173.08 96.62 171.89 C 95.05 174.78 92.46 176.87 89.55 178.30 L 88.25 177.78 C 88.68 178.13 89.55 178.84 89.98 179.19 C 91.51 179.30 92.90 178.57 94.35 178.22 C 95.28 179.86 95.84 181.67 96.36 183.48 C 95.46 182.50 94.60 181.49 93.77 180.45 C 91.99 180.99 90.19 181.48 88.39 181.96 C 87.88 183.12 87.34 184.27 86.78 185.42 C 86.76 183.60 87.05 181.80 87.49 180.04 L 87.66 179.91 C 87.33 178.38 85.57 177.69 84.66 176.54 C 83.24 180.60 81.86 184.73 81.39 189.02 C 82.03 194.57 83.88 199.85 85.09 205.28 C 82.70 203.01 82.14 199.60 80.67 196.77 C 78.09 202.74 75.66 209.32 77.18 215.90 C 78.50 221.92 80.73 227.83 80.65 234.07 C 80.62 237.20 79.17 240.39 80.32 243.46 C 81.21 246.78 82.55 249.95 83.72 253.18 C 84.70 255.81 84.26 259.36 87.00 261.03 C 90.33 263.81 95.11 263.34 98.53 260.99 C 98.12 260.46 97.29 259.41 96.88 258.89 C 93.29 259.21 89.68 259.50 86.10 258.80 C 86.62 258.48 87.65 257.83 88.16 257.51 C 91.33 257.68 94.45 257.30 97.58 256.83 C 98.49 258.10 99.01 259.78 100.39 260.66 C 101.44 260.47 102.48 260.23 103.52 259.95 C 101.15 254.47 96.31 250.67 93.76 245.29 C 88.73 239.08 88.21 230.65 88.86 223.00 C 88.85 219.05 91.12 215.67 92.11 211.95 C 93.08 208.50 92.31 204.89 92.13 201.39 C 89.04 205.93 89.11 211.41 88.70 216.65 C 88.38 216.31 87.74 215.64 87.42 215.31 C 87.12 210.52 87.88 205.51 90.34 201.32 C 94.36 194.71 95.01 186.63 99.17 180.09 C 101.62 175.95 102.05 171.04 103.12 166.44 C 99.76 167.18 96.36 168.18 92.88 167.99 C 89.76 167.43 87.02 165.71 84.06 164.67 Z" />
<path fill="#333333" opacity="1.00" d=" M 142.97 68.86 C 140.00 62.50 148.62 56.08 154.07 59.93 C 160.77 64.67 161.75 74.35 159.47 81.67 C 158.37 85.62 154.48 88.26 150.43 88.19 C 149.20 87.20 147.95 86.24 146.70 85.29 C 146.02 88.51 146.54 91.76 146.86 94.98 C 146.29 98.47 144.96 101.78 143.92 105.14 C 143.23 107.91 140.20 108.63 137.86 109.40 C 132.77 105.66 127.26 100.98 126.14 94.41 C 126.79 94.60 128.09 94.97 128.74 95.16 C 129.28 100.55 134.45 103.19 137.91 106.64 C 140.97 107.31 142.40 104.36 143.08 101.95 C 145.62 96.52 144.47 90.44 144.77 84.66 C 145.41 84.13 146.69 83.08 147.33 82.55 C 145.43 82.43 143.54 82.28 141.65 82.13 C 141.73 82.78 141.89 84.07 141.97 84.71 C 141.45 87.19 141.20 89.71 140.80 92.21 C 137.24 89.93 142.16 84.60 138.63 82.41 C 137.42 85.57 137.73 89.53 134.98 91.93 C 132.52 94.46 128.19 95.03 125.49 92.56 C 121.25 89.91 120.15 84.78 119.14 80.26 C 119.36 84.61 119.88 89.06 118.37 93.27 C 118.95 93.14 120.10 92.90 120.67 92.77 L 117.81 93.68 C 119.00 95.27 120.22 96.85 121.39 98.46 C 120.38 98.15 119.38 97.84 118.38 97.53 C 118.06 96.46 117.74 95.41 117.37 94.36 C 116.34 97.96 112.47 98.89 109.29 99.57 C 108.45 98.57 107.60 97.59 106.76 96.60 C 108.95 96.82 111.35 97.73 113.42 96.53 C 116.83 94.26 118.22 89.94 118.07 86.00 C 118.28 81.45 116.84 76.71 113.55 73.46 C 111.90 72.08 109.88 71.25 108.04 70.16 C 105.11 72.28 102.73 75.02 101.70 78.56 C 104.83 79.42 106.14 82.50 107.59 85.08 C 110.38 87.17 108.49 90.28 107.24 92.67 C 104.69 92.43 102.14 92.31 99.59 92.15 C 101.13 91.33 102.69 90.56 104.28 89.83 C 105.01 90.08 105.74 90.33 106.48 90.58 C 106.60 89.64 106.73 88.70 106.85 87.77 C 105.97 86.72 105.18 85.60 104.53 84.38 C 103.48 83.33 102.40 82.29 101.31 81.26 C 99.08 81.69 96.66 82.10 95.19 79.91 C 96.94 79.69 98.70 79.54 100.47 79.42 C 101.16 76.80 102.09 74.25 102.98 71.69 C 104.29 70.95 105.61 70.21 106.92 69.46 C 113.48 69.16 118.40 74.93 119.03 81.12 C 119.16 78.31 119.24 75.50 119.61 72.71 C 121.73 69.78 122.19 65.38 126.30 64.44 C 122.87 63.36 119.83 60.99 116.10 61.06 C 119.86 58.55 124.37 61.44 126.73 64.56 C 131.53 63.10 135.18 67.51 137.13 71.28 C 141.12 69.34 145.76 67.89 150.11 69.57 C 150.87 72.05 152.09 74.44 152.34 77.05 C 151.19 79.39 149.28 81.18 147.46 82.99 C 148.15 84.03 148.83 85.07 149.50 86.13 C 153.72 87.02 157.32 84.03 158.38 80.09 C 159.83 74.53 159.23 68.02 155.47 63.45 C 153.87 61.37 151.25 60.54 149.10 59.20 C 145.81 61.46 142.90 64.60 142.97 68.86 M 121.29 71.45 C 119.58 77.87 120.26 85.81 125.43 90.52 C 127.80 92.92 132.10 92.89 134.27 90.23 C 140.88 82.38 137.62 67.77 127.19 64.99 C 124.81 66.68 121.98 68.37 121.29 71.45 M 137.21 72.51 C 137.75 75.42 138.25 78.34 138.36 81.31 C 140.08 80.87 141.80 80.42 143.51 79.96 C 142.75 79.29 141.98 78.62 141.22 77.96 C 141.61 77.74 142.40 77.30 142.79 77.07 C 143.37 77.24 144.53 77.57 145.11 77.73 C 145.69 78.87 146.26 80.01 146.85 81.14 C 148.20 79.62 149.41 77.97 150.59 76.30 C 149.30 74.28 149.25 70.26 146.05 70.41 C 143.08 71.02 140.22 72.07 137.21 72.51 Z" />
<path fill="#333333" opacity="1.00" d=" M 72.95 92.66 C 72.30 91.25 74.70 90.07 75.75 90.92 C 76.38 92.32 73.99 93.47 72.95 92.66 Z" />
<path fill="#333333" opacity="1.00" d=" M 73.67 101.84 C 72.33 100.20 71.58 98.19 71.71 96.06 C 73.49 97.20 74.72 98.83 74.45 101.09 C 75.31 100.22 77.03 98.46 77.89 97.59 C 78.15 100.61 75.87 102.99 75.26 105.84 L 73.82 105.80 C 73.77 104.48 73.72 103.16 73.67 101.84 Z" />
<path fill="#333333" opacity="1.00" d=" M 98.41 105.13 C 101.44 104.02 100.01 108.40 97.75 107.82 C 95.87 107.62 97.18 105.26 98.41 105.13 Z" />
<path fill="#333333" opacity="1.00" d=" M 112.53 116.97 C 110.59 116.32 112.90 112.90 114.43 113.82 C 114.92 115.10 113.73 116.61 112.53 116.97 Z" />
<path fill="#333333" opacity="1.00" d=" M 98.87 127.59 C 106.20 128.99 113.60 126.97 120.43 124.37 C 117.90 128.14 113.18 128.67 109.09 129.54 C 105.29 130.32 101.39 130.06 97.63 129.19 C 97.04 134.64 91.38 138.22 86.39 139.00 C 90.05 135.86 95.16 133.72 96.36 128.54 C 94.65 128.05 92.93 127.58 91.21 127.09 C 90.08 129.64 89.24 132.31 88.93 135.10 C 85.86 132.22 89.44 128.43 90.38 125.36 C 93.24 125.98 96.03 126.89 98.87 127.59 Z" />
<path fill="#333333" opacity="1.00" d=" M 101.03 136.10 C 107.01 133.94 113.37 132.64 119.75 132.63 C 119.27 135.20 116.61 134.14 114.92 134.51 C 109.29 135.03 104.05 137.41 98.55 138.52 C 99.33 137.69 99.82 136.40 101.03 136.10 Z" />
<path fill="#333333" opacity="1.00" d=" M 112.08 137.07 C 114.57 135.78 117.25 134.84 120.08 134.76 C 114.84 138.58 108.35 140.13 102.74 143.33 C 104.86 140.02 108.75 138.76 112.08 137.07 Z" />
<path fill="#333333" opacity="1.00" d=" M 95.82 145.68 C 104.43 143.16 113.65 143.94 122.23 141.22 C 119.24 144.82 114.31 144.82 110.02 145.09 C 105.27 145.08 100.55 147.10 95.82 145.68 Z" />
<path fill="#333333" opacity="1.00" d=" M 88.52 189.00 C 90.14 189.17 91.76 189.38 93.38 189.65 C 92.00 191.33 88.73 191.93 88.52 189.00 Z" />
<path fill="#333333" opacity="1.00" d=" M 123.52 226.00 C 124.17 227.27 124.30 228.69 124.33 230.09 C 124.73 231.59 125.13 233.08 125.46 234.60 C 122.68 232.53 122.53 229.08 123.52 226.00 Z" />
<path fill="#333333" opacity="1.00" d=" M 82.28 243.19 C 83.64 240.05 84.28 235.66 88.06 234.60 C 87.54 235.61 87.00 236.61 86.46 237.61 C 85.86 239.99 84.36 241.92 82.28 243.19 Z" />
</g>
</svg>
