<?xml version="1.0" encoding="UTF-8" ?>
<!DOCTYPE svg PUBLIC "-//W3C//DTD SVG 1.1//EN" "http://www.w3.org/Graphics/SVG/1.1/DTD/svg11.dtd">
<svg width="207pt" height="325pt" viewBox="0 0 207 325" version="1.1" xmlns="http://www.w3.org/2000/svg">
<g id="#ffffffff">
<path fill="#FFFFFF" opacity="1.00" d=" M 0.00 0.00 L 207.00 0.00 L 207.00 137.75 C 204.03 138.59 200.99 139.13 198.00 139.85 C 196.65 133.08 194.93 125.26 188.74 121.23 C 184.50 118.47 179.43 120.38 175.09 121.80 C 175.37 90.87 175.08 59.93 175.24 29.00 C 175.19 26.74 175.64 24.04 173.52 22.54 C 172.36 50.36 173.24 78.23 172.95 106.07 C 173.00 113.77 173.66 121.49 173.14 129.20 C 172.52 129.70 171.28 130.70 170.65 131.20 C 169.68 121.15 170.60 111.07 170.42 101.01 C 170.27 83.65 170.44 66.30 170.37 48.94 C 170.29 40.83 170.49 32.70 169.79 24.61 C 168.48 48.72 168.76 72.88 169.04 97.00 C 168.13 108.22 170.57 119.45 168.72 130.61 C 167.66 130.16 166.61 129.71 165.56 129.27 C 165.45 94.38 165.44 59.50 165.32 24.61 L 163.66 24.58 C 163.38 58.74 163.78 92.92 163.55 127.08 C 162.56 133.66 162.85 140.32 162.84 146.95 C 156.90 148.23 150.91 149.31 144.92 150.40 C 145.18 143.58 143.24 136.87 143.86 130.05 C 144.41 125.53 141.96 121.54 140.46 117.48 C 138.78 112.74 142.34 107.92 140.74 103.20 C 139.14 99.52 141.42 95.66 140.51 91.87 C 140.29 88.16 138.80 83.55 134.61 82.80 C 130.21 82.39 127.82 77.72 123.24 77.79 C 127.55 72.99 127.99 66.05 127.36 59.93 C 126.55 56.16 126.39 51.30 122.43 49.39 C 118.98 48.22 115.25 48.54 111.66 48.59 C 109.30 50.59 106.18 52.38 105.80 55.78 C 103.40 62.19 109.60 69.14 104.94 75.03 C 101.53 76.67 97.74 77.45 94.49 79.46 C 90.62 82.02 85.22 82.66 82.86 87.13 C 80.56 90.46 81.24 94.62 80.45 98.36 C 78.48 103.37 75.77 108.63 76.73 114.18 C 78.16 119.17 75.87 124.11 75.56 129.10 C 73.75 136.64 74.52 144.45 75.79 152.01 C 76.89 156.41 72.27 159.62 73.28 164.02 L 71.84 163.61 C 72.27 164.95 72.64 166.30 72.99 167.66 C 71.18 168.09 69.37 168.52 67.56 168.92 C 67.65 166.61 68.84 165.70 71.12 166.20 C 71.20 165.76 71.36 164.87 71.44 164.43 C 70.55 164.57 68.77 164.87 67.88 165.02 C 67.96 158.70 68.01 152.37 67.19 146.09 C 67.08 105.73 67.17 65.37 67.14 25.01 C 67.08 21.94 66.51 18.92 66.21 15.88 C 64.34 26.47 65.11 37.31 64.87 48.02 C 64.69 76.37 64.97 104.72 64.82 133.06 C 64.98 138.40 65.57 143.76 65.01 149.09 C 64.39 149.91 63.47 150.42 62.67 151.06 C 60.77 144.82 61.48 138.38 62.23 132.04 C 62.15 94.99 62.76 57.92 61.09 20.91 C 60.38 26.24 60.84 31.63 60.76 36.99 C 60.65 74.80 60.69 112.62 60.75 150.43 C 60.02 150.13 58.57 149.52 57.84 149.21 C 57.05 146.23 57.55 143.07 57.43 140.02 C 57.37 100.68 57.34 61.34 57.26 22.00 C 56.74 22.20 55.69 22.59 55.17 22.78 C 54.90 66.56 55.30 110.36 55.03 154.13 C 55.10 156.04 56.14 157.71 56.86 159.42 C 57.01 156.68 57.06 153.93 57.07 151.18 C 57.92 151.35 59.62 151.68 60.47 151.84 C 60.78 158.24 60.44 164.64 60.28 171.04 C 60.06 177.46 61.09 183.85 60.71 190.28 C 59.18 189.61 57.65 188.93 56.12 188.25 C 54.92 194.10 55.06 200.10 55.12 206.04 C 55.49 231.14 54.88 256.27 55.65 281.37 C 56.18 281.54 57.24 281.86 57.77 282.03 C 58.26 251.59 57.38 221.14 57.71 190.70 C 58.55 191.43 60.44 191.50 60.25 192.96 C 61.18 208.28 60.59 223.64 60.78 238.98 C 60.99 253.33 60.49 267.66 60.50 282.00 L 62.26 282.00 C 62.51 252.04 62.55 222.06 62.10 192.10 C 62.88 191.83 64.45 191.29 65.23 191.02 C 65.29 221.41 65.06 251.81 65.34 282.21 C 66.59 281.91 67.18 281.19 67.11 280.03 C 67.25 251.00 67.01 221.97 67.22 192.94 C 68.36 185.41 67.74 177.79 67.91 170.21 C 69.85 169.83 71.78 169.30 73.77 169.30 C 74.34 170.48 74.60 171.75 74.55 173.10 C 79.01 172.62 83.46 171.87 87.82 170.80 C 90.02 170.15 89.66 167.58 90.02 165.83 C 90.88 166.58 91.75 167.32 92.63 168.05 C 92.25 170.94 91.90 173.83 91.80 176.74 C 93.37 178.86 93.03 181.55 93.16 184.03 C 93.21 189.68 94.05 195.32 93.47 200.97 C 93.16 204.36 92.81 207.77 92.82 211.18 C 92.88 215.30 90.70 218.97 90.02 222.96 C 88.12 231.13 91.26 239.22 93.02 247.12 C 92.39 251.17 89.39 256.07 92.89 259.54 C 92.37 263.21 91.23 266.85 91.37 270.56 C 93.59 273.13 95.65 275.82 97.22 278.84 C 101.46 283.08 109.68 285.94 114.33 280.80 C 115.70 280.64 117.08 280.50 118.47 280.36 C 118.58 277.88 119.35 275.14 118.06 272.84 C 116.22 270.83 113.69 269.38 112.45 266.85 C 110.99 263.92 110.12 260.72 108.31 257.97 C 105.20 253.65 106.36 247.98 106.52 243.03 C 106.53 238.67 108.19 234.62 109.37 230.50 C 110.62 225.99 108.73 221.51 108.43 217.04 C 108.82 213.30 110.80 209.88 110.77 206.06 C 110.71 202.88 111.85 199.92 113.30 197.15 C 113.11 200.83 114.07 204.38 114.63 207.98 C 113.70 214.31 111.92 220.55 111.85 226.99 C 111.66 230.51 113.51 233.65 114.13 237.03 C 115.42 243.59 114.29 250.47 111.33 256.44 C 110.27 258.11 110.78 260.38 112.41 261.48 C 114.85 263.96 118.58 263.81 121.50 265.36 C 123.51 267.36 124.74 270.70 127.98 270.92 C 132.09 271.24 136.25 274.19 140.30 272.17 C 142.89 271.32 144.67 269.24 145.97 266.95 C 145.71 265.35 145.54 263.73 145.12 262.18 C 143.59 260.24 140.77 259.91 139.23 257.94 C 135.78 253.97 132.70 249.68 129.57 245.45 C 127.64 240.69 128.34 235.40 129.41 230.52 C 131.08 223.72 128.75 216.68 130.59 209.91 C 131.85 204.67 132.36 199.29 132.21 193.91 C 131.85 187.56 135.14 181.59 134.28 175.22 C 135.22 172.97 136.64 170.64 136.12 168.11 C 135.68 166.15 134.91 164.29 134.28 162.39 C 137.98 162.70 141.58 161.64 144.36 159.16 C 144.27 158.30 144.07 156.59 143.97 155.73 C 150.26 154.52 156.59 153.46 162.85 152.08 C 162.95 158.72 162.23 165.41 163.63 171.97 C 163.82 199.62 163.78 227.30 163.86 254.96 C 163.75 257.14 164.46 259.22 165.29 261.21 C 166.66 255.56 165.93 249.72 166.05 243.98 C 166.18 219.61 165.57 195.24 165.77 170.87 C 166.47 171.09 167.86 171.54 168.55 171.76 C 169.27 201.08 168.87 230.43 168.71 259.76 C 169.09 260.01 169.87 260.52 170.25 260.77 C 170.81 231.22 170.73 201.65 170.20 172.10 C 170.98 171.81 172.55 171.23 173.33 170.94 C 173.31 196.29 173.28 221.64 173.34 247.00 C 173.36 251.76 173.13 256.54 173.68 261.29 C 174.48 260.00 175.36 258.66 175.21 257.07 C 175.16 228.63 175.29 200.19 175.14 171.75 C 178.83 173.88 183.18 173.39 187.21 172.82 C 189.47 172.20 191.17 170.37 192.53 168.55 C 197.01 161.84 198.46 153.56 198.25 145.61 C 201.19 145.38 204.10 144.86 206.99 144.26 L 207.00 145.04 L 207.00 325.00 L 0.00 325.00 L 0.00 0.00 M 32.67 150.73 C 27.54 157.08 25.83 165.50 25.38 173.47 C 22.20 173.83 19.09 174.64 15.92 175.08 C 14.13 175.44 11.80 175.18 10.99 177.38 C 11.91 177.68 12.88 177.72 13.75 177.25 C 13.84 177.95 14.00 179.36 14.08 180.07 C 13.08 179.24 12.07 178.42 11.04 177.63 L 11.17 179.94 C 11.62 180.57 12.51 181.83 12.96 182.47 C 17.07 181.28 21.55 180.04 25.74 180.27 C 27.43 186.80 28.67 194.33 34.32 198.81 C 37.88 201.85 42.74 200.20 46.89 199.93 C 51.84 197.37 54.13 191.84 55.65 186.79 C 58.01 177.75 58.02 167.91 55.00 159.02 C 53.20 153.43 49.50 147.82 43.29 146.74 C 39.68 147.77 35.24 147.51 32.67 150.73 Z" />
<path fill="#FFFFFF" opacity="1.00" d=" M 108.60 53.59 C 110.09 51.00 113.40 50.86 116.04 50.57 C 118.83 50.19 121.87 51.09 123.73 53.26 C 124.42 58.22 126.81 63.01 125.86 68.10 C 125.33 71.13 124.31 74.83 121.09 75.98 C 117.42 77.83 113.21 75.17 111.36 71.95 C 111.40 70.53 111.00 69.35 109.38 69.32 C 109.71 71.76 110.01 74.42 111.82 76.27 C 114.08 78.73 117.65 79.16 120.81 79.12 C 120.48 81.27 120.24 83.44 120.22 85.61 C 121.02 84.40 121.49 83.02 122.04 81.70 C 122.54 82.04 123.55 82.74 124.06 83.09 C 123.58 81.78 123.11 80.48 122.66 79.16 C 125.08 79.24 127.11 80.58 128.82 82.18 C 131.08 84.74 135.43 83.61 137.36 86.61 C 138.16 88.64 138.40 90.85 138.82 92.98 C 139.10 94.98 139.55 97.69 137.38 98.85 C 137.28 99.26 137.07 100.07 136.97 100.48 L 137.81 100.33 C 139.65 105.06 139.01 110.17 137.84 114.96 C 137.50 115.14 136.83 115.49 136.50 115.67 C 135.80 117.96 135.41 120.32 135.23 122.70 C 136.26 121.66 135.94 119.06 137.80 119.06 C 141.35 120.44 141.64 124.75 142.00 128.02 C 141.86 134.07 142.31 140.12 143.36 146.08 C 143.91 147.94 142.91 149.67 142.33 151.38 C 142.28 153.60 142.32 155.84 142.08 158.06 C 141.34 159.55 139.51 159.70 138.17 160.34 C 137.00 160.08 135.83 159.82 134.66 159.59 C 134.74 156.52 134.29 153.45 133.31 150.54 C 135.77 151.68 138.15 149.61 137.69 147.05 C 137.32 143.62 136.47 139.51 133.58 137.34 C 131.80 133.13 130.67 128.63 131.06 124.02 C 130.91 121.18 132.68 118.78 133.16 116.06 C 133.23 112.56 132.69 109.03 131.38 105.77 C 133.00 103.32 134.50 100.70 134.41 97.65 L 134.91 99.82 C 135.53 99.12 136.14 98.41 136.75 97.70 C 136.18 97.41 135.02 96.84 134.45 96.55 C 133.45 93.31 131.80 88.63 127.69 88.83 C 129.79 91.88 133.35 94.78 132.43 98.93 C 132.19 104.52 124.87 109.76 120.33 105.08 C 119.03 107.04 121.50 108.16 123.08 108.58 C 125.62 108.62 127.99 107.58 130.36 106.83 C 130.80 110.49 130.95 114.17 131.02 117.85 C 129.02 115.31 127.05 112.54 124.05 111.10 C 122.59 110.49 120.73 111.10 120.05 112.57 C 121.01 112.43 121.97 112.27 122.92 112.10 C 125.62 113.60 128.82 115.49 128.62 119.07 L 129.07 117.01 C 129.46 117.75 129.84 118.51 130.20 119.28 C 127.51 124.07 129.43 129.67 129.82 134.79 C 126.63 136.83 122.81 137.23 119.19 138.02 C 119.91 133.76 119.76 129.38 118.70 125.19 C 119.22 121.26 122.24 115.99 118.56 112.93 C 118.39 114.64 118.30 116.35 118.20 118.07 C 117.63 117.73 116.49 117.06 115.93 116.72 C 114.38 117.22 112.83 117.78 111.59 118.86 C 112.72 118.57 113.85 118.26 114.97 117.92 C 116.07 118.30 117.18 118.67 118.29 119.03 C 116.03 125.29 118.65 131.68 117.88 138.08 C 115.41 138.05 112.94 137.98 110.47 137.98 C 110.60 134.90 109.25 132.16 107.38 129.80 C 108.19 129.33 109.01 128.89 109.85 128.45 C 108.76 126.51 108.92 123.25 106.33 122.68 C 106.77 124.50 107.26 126.31 107.74 128.13 C 107.14 128.14 105.94 128.17 105.34 128.19 C 106.53 131.12 108.11 133.94 108.72 137.08 C 109.35 138.42 107.87 139.17 107.26 140.11 C 114.25 140.24 121.57 141.19 128.13 138.05 C 129.61 140.63 131.48 143.09 132.24 146.02 C 132.06 148.34 130.76 150.61 131.47 152.97 C 132.19 155.89 133.14 158.84 132.65 161.89 C 132.26 164.69 134.04 167.18 134.29 169.91 C 133.97 173.22 131.14 176.10 127.91 176.78 C 124.73 178.08 121.39 176.53 118.13 177.22 C 118.93 173.83 117.77 170.44 117.46 167.07 C 115.37 169.77 116.15 173.08 116.72 176.16 C 114.47 176.98 112.50 178.82 109.98 178.63 C 104.97 178.31 100.21 176.36 95.16 176.32 C 95.26 173.41 94.42 170.64 93.69 167.87 C 92.89 164.98 93.53 161.96 93.20 159.01 C 92.14 157.03 89.34 156.87 88.23 155.00 C 87.29 150.27 87.61 145.22 89.87 140.89 C 91.59 134.85 92.76 128.13 90.33 122.09 C 91.30 120.83 92.28 119.58 93.29 118.36 C 95.01 121.38 94.13 124.90 94.86 128.15 C 95.38 130.38 95.93 132.60 96.47 134.83 C 96.16 136.43 95.94 138.04 95.75 139.66 C 93.07 142.79 92.16 147.00 91.89 151.01 C 91.93 152.87 91.75 155.30 93.72 156.27 C 94.14 153.20 93.75 150.02 94.62 147.01 C 95.26 143.89 97.44 141.47 98.85 138.69 C 100.94 139.28 103.05 139.83 105.15 140.41 C 106.08 139.58 107.01 138.75 107.94 137.93 C 104.90 137.72 101.97 137.02 99.09 136.07 C 96.82 129.81 98.06 122.59 94.46 116.70 C 96.14 112.59 96.37 108.10 97.64 103.88 C 98.52 102.26 97.88 100.55 97.45 98.91 C 101.26 95.64 103.90 89.07 100.60 84.70 C 99.93 89.47 99.69 95.66 94.99 98.35 C 94.11 98.86 93.38 99.55 92.91 100.45 C 94.12 100.24 95.32 100.02 96.53 99.78 C 96.42 102.21 95.70 104.52 94.82 106.77 C 93.22 110.86 93.46 115.56 90.62 119.15 C 90.51 117.59 90.07 116.14 89.33 114.78 C 88.59 117.84 88.17 121.09 89.05 124.17 C 91.02 130.63 89.31 137.50 86.77 143.54 C 85.51 146.68 85.90 150.12 86.18 153.40 C 85.89 154.12 85.60 154.84 85.32 155.57 C 85.90 156.35 86.49 157.14 87.09 157.93 C 88.76 158.58 90.36 159.39 91.93 160.28 L 90.87 160.52 C 90.80 160.74 90.65 161.19 90.58 161.42 C 89.89 163.37 88.22 164.68 86.89 166.17 C 86.83 166.83 86.71 168.15 86.65 168.81 C 83.55 168.99 80.65 170.15 77.69 170.99 C 77.63 170.44 77.49 169.36 77.42 168.81 C 76.49 168.30 75.56 167.79 74.63 167.29 C 74.52 165.56 74.25 163.84 74.36 162.12 C 75.04 158.89 78.29 156.55 77.68 152.99 C 77.01 145.61 75.53 138.22 76.64 130.78 C 78.92 126.96 77.42 121.92 80.39 118.32 C 79.83 116.57 79.32 114.77 78.24 113.25 C 77.73 110.38 78.70 107.15 80.75 105.22 C 81.43 106.62 80.96 108.52 82.35 109.57 C 85.23 111.96 83.88 115.89 83.11 118.94 C 82.81 121.56 80.54 123.20 79.44 125.45 C 79.78 129.06 82.76 131.92 82.56 135.69 C 82.90 135.92 83.60 136.39 83.94 136.62 C 84.08 138.43 84.22 140.25 84.44 142.06 C 86.30 139.55 84.20 136.72 83.99 134.05 C 83.68 130.81 82.36 127.84 80.93 124.96 C 84.72 121.85 86.26 116.98 86.56 112.23 C 86.10 110.55 84.98 109.09 83.26 108.54 C 83.31 105.79 84.20 103.17 84.80 100.50 C 83.51 101.67 82.53 103.10 81.70 104.62 C 80.28 103.06 81.09 100.70 83.28 100.52 C 83.18 95.86 82.44 90.57 85.73 86.73 C 87.91 83.38 92.34 83.55 95.33 81.34 C 97.67 79.74 100.33 78.74 103.01 77.86 L 102.35 80.31 C 106.93 77.28 109.18 71.49 108.18 66.16 C 106.92 62.14 106.22 57.34 108.60 53.59 M 104.67 79.97 C 104.68 81.75 104.62 83.53 104.48 85.31 C 106.55 84.25 106.98 80.98 104.67 79.97 M 110.03 79.73 C 110.75 82.55 111.82 85.27 112.63 88.07 C 109.92 87.87 107.15 87.56 104.74 86.19 C 104.15 86.72 103.55 87.26 102.96 87.80 C 107.78 89.36 113.27 88.86 117.31 92.42 C 117.32 90.09 115.31 89.00 113.62 87.92 C 113.70 84.91 112.75 81.37 110.03 79.73 M 93.67 84.87 C 95.78 84.50 97.86 83.97 99.95 83.49 C 97.87 81.56 94.91 82.47 93.67 84.87 M 125.98 85.81 C 124.24 86.03 122.47 86.13 120.78 86.62 C 120.08 88.01 119.68 89.52 119.28 91.01 C 120.50 90.27 121.43 89.18 122.32 88.08 C 125.06 87.50 129.61 87.28 129.22 83.32 C 128.13 84.13 127.06 84.97 125.98 85.81 M 85.87 98.72 C 87.14 101.15 88.07 103.76 89.47 106.13 C 89.95 103.92 89.38 101.74 88.11 99.92 C 87.79 99.18 86.66 97.67 85.87 98.72 M 98.88 103.77 C 98.95 104.51 99.10 105.98 99.17 106.72 C 103.63 110.43 110.12 110.90 115.57 109.44 C 117.84 108.96 118.51 106.48 118.99 104.56 C 116.50 105.42 114.92 108.33 112.05 108.02 C 108.48 108.26 104.91 107.79 101.54 106.57 C 100.68 105.60 99.80 104.67 98.88 103.77 M 96.65 113.79 C 97.54 113.66 99.34 113.40 100.23 113.27 C 101.75 114.87 103.64 117.04 105.74 114.88 C 103.63 113.93 101.96 112.30 100.01 111.11 C 98.83 111.92 97.52 112.61 96.65 113.79 M 110.73 113.76 C 109.05 116.08 107.07 118.15 104.91 120.03 C 107.45 119.66 109.56 118.27 110.76 115.98 C 112.07 113.37 114.91 112.73 117.56 112.37 C 117.41 112.07 117.10 111.45 116.94 111.14 C 114.74 111.58 112.21 111.84 110.73 113.76 M 96.24 117.65 C 96.99 117.82 98.50 118.15 99.26 118.32 C 100.39 119.55 101.77 120.51 103.25 121.27 C 103.57 118.47 100.74 117.36 99.06 115.74 C 98.11 116.38 97.18 117.01 96.24 117.65 M 120.73 124.03 C 122.14 125.91 124.57 125.84 126.67 126.17 C 125.43 123.94 123.00 123.74 120.73 124.03 M 106.44 140.27 C 105.47 144.33 102.19 147.15 98.32 148.36 C 99.01 149.43 100.23 150.18 101.47 149.42 C 103.87 148.38 106.01 146.68 107.28 144.37 C 112.81 143.18 118.93 145.16 123.90 141.77 L 123.84 141.28 C 118.67 143.53 113.12 141.96 107.77 142.97 C 107.33 142.07 106.88 141.17 106.44 140.27 M 108.46 151.24 C 109.51 152.03 110.59 153.02 112.02 152.74 C 116.99 152.53 121.90 151.51 126.88 151.29 C 126.43 151.88 125.53 153.07 125.08 153.66 C 125.46 153.78 126.23 154.01 126.61 154.13 C 126.87 152.69 127.18 151.27 127.44 149.84 C 121.13 150.43 114.82 151.32 108.46 151.24 M 79.07 156.22 C 81.38 156.07 83.21 154.69 82.77 152.19 C 81.49 153.49 80.26 154.84 79.07 156.22 M 108.99 158.58 C 109.09 158.87 109.30 159.46 109.40 159.75 C 114.92 158.02 119.67 154.60 125.25 153.04 C 119.20 152.66 114.60 157.19 108.99 158.58 M 122.45 161.09 C 121.28 163.22 118.96 164.52 118.15 166.87 C 121.86 165.22 125.14 162.12 126.27 158.14 C 124.80 158.85 123.19 159.53 122.45 161.09 Z" />
<path fill="#FFFFFF" opacity="1.00" d=" M 175.12 123.91 C 177.66 121.70 181.13 121.83 184.22 121.08 C 187.56 122.77 191.09 124.73 192.74 128.29 C 197.94 138.43 198.15 150.76 194.43 161.42 C 192.57 166.17 189.22 171.83 183.26 171.21 C 190.23 165.26 191.73 155.62 191.93 146.95 C 191.71 139.15 190.30 130.88 185.31 124.62 C 184.62 123.44 183.18 123.46 182.02 123.21 C 185.89 128.12 189.22 133.71 189.89 140.07 C 191.01 149.81 190.49 160.96 183.62 168.64 C 183.37 169.55 183.13 170.46 182.91 171.38 C 180.64 171.06 177.98 171.45 176.16 169.75 C 175.38 163.42 176.06 156.99 175.78 150.62 C 176.90 150.41 178.02 150.20 179.14 150.00 C 180.33 147.85 179.92 145.60 178.85 143.50 C 177.84 143.65 176.82 143.81 175.81 143.96 C 175.78 139.48 175.90 135.00 175.74 130.52 C 175.10 128.37 175.17 126.12 175.12 123.91 Z" />
<path fill="#FFFFFF" opacity="1.00" d=" M 165.02 131.05 C 166.69 131.47 168.50 131.93 169.36 133.60 C 168.26 137.98 168.95 142.54 168.64 147.00 C 168.21 154.70 169.04 162.39 168.94 170.09 C 167.67 169.72 166.42 169.33 165.17 168.92 C 165.04 156.30 165.25 143.67 165.02 131.05 Z" />
<path fill="#FFFFFF" opacity="1.00" d=" M 170.28 132.48 C 171.54 132.13 172.80 131.78 174.07 131.44 C 174.13 144.00 174.09 156.57 173.93 169.13 C 172.86 169.40 171.78 169.66 170.71 169.92 C 169.93 157.45 170.40 144.96 170.28 132.48 Z" />
<path fill="#FFFFFF" opacity="1.00" d=" M 131.03 136.49 C 132.27 136.69 132.62 138.88 131.90 139.78 C 130.50 139.73 130.24 137.38 131.03 136.49 Z" />
<path fill="#FFFFFF" opacity="1.00" d=" M 132.86 139.53 C 135.40 142.41 136.76 146.76 134.72 150.29 C 131.96 147.28 132.78 143.23 132.86 139.53 Z" />
<path fill="#FFFFFF" opacity="1.00" d=" M 198.01 140.73 C 201.04 140.63 204.03 140.09 207.00 139.48 L 207.00 142.74 C 204.05 143.38 201.08 143.92 198.16 144.67 C 198.11 143.36 198.06 142.04 198.01 140.73 Z" />
<path fill="#FFFFFF" opacity="1.00" d=" M 176.46 148.62 C 175.41 147.63 176.35 144.72 177.98 145.74 C 179.23 146.71 178.03 149.54 176.46 148.62 Z" />
<path fill="#FFFFFF" opacity="1.00" d=" M 34.16 151.23 C 36.57 148.64 40.37 149.26 43.50 148.32 C 52.47 151.93 55.23 162.33 55.87 171.07 C 56.19 179.52 55.01 188.78 49.51 195.54 C 47.04 198.81 42.63 198.34 39.00 198.45 C 36.10 198.38 33.78 196.23 32.18 194.00 C 29.37 189.62 27.68 184.49 27.58 179.26 C 31.48 178.92 35.30 178.04 39.07 177.03 C 39.16 174.80 38.79 172.62 37.89 170.58 C 33.75 171.20 29.77 172.60 25.60 173.04 C 25.93 172.48 26.60 171.37 26.93 170.81 C 27.72 163.89 29.15 156.44 34.16 151.23 M 41.14 150.24 C 42.91 153.31 45.53 155.88 46.74 159.26 C 49.84 167.38 50.04 176.46 48.25 184.89 C 47.49 189.36 44.81 193.06 43.07 197.13 C 45.33 196.07 46.80 193.98 47.63 191.69 C 51.96 180.81 52.06 168.21 47.66 157.34 C 46.18 154.48 44.90 150.53 41.14 150.24 Z" />
<path fill="#FFFFFF" opacity="1.00" d=" M 147.82 151.23 C 152.80 150.44 157.70 149.21 162.71 148.58 C 162.80 149.10 162.97 150.14 163.05 150.66 C 156.64 151.96 150.22 153.30 143.75 154.29 C 143.53 151.81 146.01 151.59 147.82 151.23 Z" />
<path fill="#FFFFFF" opacity="1.00" d=" M 62.19 152.59 C 63.06 152.27 64.81 151.61 65.68 151.28 C 66.20 163.78 65.86 176.33 65.71 188.83 C 64.93 189.14 63.36 189.77 62.57 190.09 C 61.83 177.60 62.30 165.09 62.19 152.59 Z" />
<path fill="#FFFFFF" opacity="1.00" d=" M 15.50 176.59 C 22.88 175.83 30.08 173.95 37.40 172.81 C 37.59 173.73 37.77 174.65 37.94 175.58 C 30.58 177.11 23.19 178.44 15.86 180.06 C 15.77 179.19 15.59 177.45 15.50 176.59 Z" />
<path fill="#FFFFFF" opacity="1.00" d=" M 115.33 177.46 C 120.72 179.73 127.53 179.83 132.50 176.43 C 132.20 178.87 132.06 181.36 131.16 183.69 L 132.21 184.60 C 129.54 184.53 131.95 178.46 128.33 179.83 C 128.57 183.54 129.54 187.44 127.73 190.93 C 127.06 193.73 124.45 198.14 121.06 195.87 C 120.24 193.98 122.16 190.70 118.90 190.77 C 119.19 193.45 118.31 198.19 121.92 198.87 C 125.93 198.27 128.24 194.31 129.78 190.93 C 129.53 193.58 129.40 196.25 129.78 198.90 C 130.50 204.08 128.50 209.04 127.64 214.07 C 127.20 220.04 128.58 226.06 127.50 232.01 C 126.54 236.86 126.81 241.85 127.89 246.66 C 131.88 250.67 133.39 256.51 137.50 260.37 C 140.55 261.55 143.72 263.41 144.26 266.96 C 142.33 269.03 140.03 271.23 136.98 271.14 C 134.67 270.49 132.57 269.17 130.12 269.01 C 127.10 268.91 126.86 264.88 124.31 263.85 C 120.96 262.61 117.37 262.06 114.12 260.52 C 111.14 254.50 117.10 249.03 116.66 242.94 C 116.56 238.57 117.28 233.38 114.08 229.90 C 113.17 222.93 115.78 216.29 116.33 209.43 C 118.05 211.08 119.20 213.16 119.85 215.46 C 120.15 214.55 120.50 213.59 120.10 212.65 C 118.50 208.21 115.97 203.92 116.09 199.05 C 116.22 196.82 115.01 194.91 114.46 192.84 C 114.76 188.92 115.85 185.08 115.79 181.13 C 115.38 180.74 114.57 179.95 114.16 179.56 C 114.45 179.03 115.03 177.98 115.33 177.46 M 121.13 202.93 C 121.95 205.47 123.41 207.77 123.84 210.44 C 124.30 208.96 124.62 207.45 124.94 205.94 C 123.78 204.81 122.54 203.74 121.13 202.93 M 124.10 238.04 C 124.03 239.13 124.50 239.87 125.51 240.28 C 124.95 232.41 127.56 224.49 125.67 216.73 C 123.71 223.65 123.56 230.91 124.10 238.04 M 118.14 237.14 C 122.23 231.72 122.34 223.95 120.13 217.72 C 119.76 224.23 118.76 230.67 118.14 237.14 M 117.28 245.36 C 116.57 247.83 115.60 250.38 115.92 253.01 C 117.13 255.06 118.59 256.96 119.78 259.03 C 121.72 256.12 117.53 253.92 118.00 250.99 C 118.05 249.07 118.98 246.87 117.28 245.36 M 123.62 246.81 C 123.75 251.79 126.04 256.28 128.28 260.61 C 129.00 262.04 130.32 262.96 131.57 263.89 C 130.41 260.36 128.46 257.18 127.16 253.71 C 126.15 251.33 125.74 248.53 123.62 246.81 Z" />
<path fill="#FFFFFF" opacity="1.00" d=" M 94.65 178.35 C 99.30 179.71 104.00 180.95 108.86 181.19 C 108.10 184.04 106.64 186.59 105.21 189.14 C 108.53 188.17 110.59 184.05 110.20 180.73 C 111.37 180.57 112.54 180.44 113.72 180.30 C 112.92 184.75 112.57 189.26 111.68 193.69 C 110.89 197.56 108.15 200.93 108.49 205.02 C 108.92 209.18 106.52 212.83 106.20 216.90 C 105.62 221.92 107.24 226.96 106.24 231.96 C 105.80 234.68 104.61 237.21 104.21 239.94 C 103.62 246.02 104.37 252.15 105.48 258.12 C 106.03 261.29 109.36 262.90 109.93 266.05 C 110.77 269.68 113.56 272.32 116.54 274.33 C 116.99 275.96 117.41 277.61 118.16 279.14 C 115.71 279.07 113.30 279.43 110.97 280.18 C 107.00 281.41 103.00 279.48 99.51 277.73 C 98.25 274.57 96.50 271.36 93.13 270.08 C 93.76 266.13 94.31 262.16 94.98 258.23 C 94.52 257.77 93.60 256.87 93.13 256.42 C 94.02 253.20 95.36 249.91 94.38 246.53 C 91.77 235.50 91.82 223.85 95.01 212.96 C 95.32 209.05 94.96 205.08 96.07 201.25 C 96.08 193.58 94.59 186.03 94.65 178.35 M 98.05 196.70 C 100.40 197.64 102.70 195.10 104.88 194.25 C 105.96 196.43 105.98 200.38 109.47 199.34 C 109.24 196.32 107.64 193.72 106.32 191.09 C 103.77 193.21 99.95 194.04 98.05 196.70 M 101.10 209.60 C 104.19 209.31 107.80 207.95 107.68 204.25 C 105.50 206.06 102.36 206.86 101.10 209.60 M 102.59 221.06 C 101.55 227.83 100.29 234.67 100.67 241.55 C 100.92 243.25 100.79 245.55 102.78 246.22 C 100.83 236.03 103.90 225.81 104.57 215.64 C 103.54 217.29 102.84 219.12 102.59 221.06 M 98.82 256.00 C 99.34 260.57 100.42 265.06 100.44 269.69 C 100.75 269.97 101.37 270.52 101.68 270.80 C 101.27 268.93 101.24 267.02 101.60 265.14 C 102.13 262.40 101.09 259.72 100.82 257.01 C 101.19 255.56 102.19 254.41 102.92 253.14 C 101.49 254.00 100.11 254.95 98.82 256.00 Z" />
</g>
<g id="#353634ff">
<path fill="#333333" opacity="1.00" d=" M 64.87 48.02 C 65.11 37.31 64.34 26.47 66.21 15.88 C 66.51 18.92 67.08 21.94 67.14 25.01 C 67.17 65.37 67.08 105.73 67.19 146.09 C 68.01 152.37 67.96 158.70 67.88 165.02 C 68.77 164.87 70.55 164.57 71.44 164.43 C 71.36 164.87 71.20 165.76 71.12 166.20 C 68.84 165.70 67.65 166.61 67.56 168.92 C 69.37 168.52 71.18 168.09 72.99 167.66 C 72.64 166.30 72.27 164.95 71.84 163.61 L 73.28 164.02 C 72.27 159.62 76.89 156.41 75.79 152.01 C 74.52 144.45 73.75 136.64 75.56 129.10 C 75.87 124.11 78.16 119.17 76.73 114.18 C 75.77 108.63 78.48 103.37 80.45 98.36 C 81.24 94.62 80.56 90.46 82.86 87.13 C 85.22 82.66 90.62 82.02 94.49 79.46 C 97.74 77.45 101.53 76.67 104.94 75.03 C 109.60 69.14 103.40 62.19 105.80 55.78 C 106.18 52.38 109.30 50.59 111.66 48.59 C 115.25 48.54 118.98 48.22 122.43 49.39 C 126.39 51.30 126.55 56.16 127.36 59.93 C 127.99 66.05 127.55 72.99 123.24 77.79 C 127.82 77.72 130.21 82.39 134.61 82.80 C 138.80 83.55 140.29 88.16 140.51 91.87 C 141.42 95.66 139.14 99.52 140.74 103.20 C 142.34 107.92 138.78 112.74 140.46 117.48 C 141.96 121.54 144.41 125.53 143.86 130.05 C 143.24 136.87 145.18 143.58 144.92 150.40 C 150.91 149.31 156.90 148.23 162.84 146.95 C 162.85 140.32 162.56 133.66 163.55 127.08 C 163.78 92.92 163.38 58.74 163.66 24.58 L 165.32 24.61 C 165.44 59.50 165.45 94.38 165.56 129.27 C 166.61 129.71 167.66 130.16 168.72 130.61 C 170.57 119.45 168.13 108.22 169.04 97.00 C 168.76 72.88 168.48 48.72 169.79 24.61 C 170.49 32.70 170.29 40.83 170.37 48.94 C 170.44 66.30 170.27 83.65 170.42 101.01 C 170.60 111.07 169.68 121.15 170.65 131.20 C 171.28 130.70 172.52 129.70 173.14 129.20 C 173.66 121.49 173.00 113.77 172.95 106.07 C 173.24 78.23 172.36 50.36 173.52 22.54 C 175.64 24.04 175.19 26.74 175.24 29.00 C 175.08 59.93 175.37 90.87 175.09 121.80 C 179.43 120.38 184.50 118.47 188.74 121.23 C 194.93 125.26 196.65 133.08 198.00 139.85 C 200.99 139.13 204.03 138.59 207.00 137.75 L 207.00 139.48 C 204.03 140.09 201.04 140.63 198.01 140.73 C 198.06 142.04 198.11 143.36 198.16 144.67 C 201.08 143.92 204.05 143.38 207.00 142.74 L 207.00 145.04 L 206.99 144.26 C 204.10 144.86 201.19 145.38 198.25 145.61 C 198.46 153.56 197.01 161.84 192.53 168.55 C 191.17 170.37 189.47 172.20 187.21 172.82 C 183.18 173.39 178.83 173.88 175.14 171.75 C 175.29 200.19 175.16 228.63 175.21 257.07 C 175.36 258.66 174.48 260.00 173.68 261.29 C 173.13 256.54 173.36 251.76 173.34 247.00 C 173.28 221.64 173.31 196.29 173.33 170.94 C 172.55 171.23 170.98 171.81 170.20 172.10 C 170.73 201.65 170.81 231.22 170.25 260.77 C 169.87 260.52 169.09 260.01 168.71 259.76 C 168.87 230.43 169.27 201.08 168.55 171.76 C 167.86 171.54 166.47 171.09 165.77 170.87 C 165.57 195.24 166.18 219.61 166.05 243.98 C 165.93 249.72 166.66 255.56 165.29 261.21 C 164.46 259.22 163.75 257.14 163.86 254.96 C 163.78 227.30 163.82 199.62 163.63 171.97 C 162.23 165.41 162.95 158.72 162.85 152.08 C 156.59 153.46 150.26 154.52 143.97 155.73 C 144.07 156.59 144.27 158.30 144.36 159.16 C 141.58 161.64 137.98 162.70 134.28 162.39 C 134.91 164.29 135.68 166.15 136.12 168.11 C 136.64 170.64 135.22 172.97 134.28 175.22 C 135.14 181.59 131.85 187.56 132.21 193.91 C 132.36 199.29 131.85 204.67 130.59 209.91 C 128.75 216.68 131.08 223.72 129.41 230.52 C 128.34 235.40 127.64 240.69 129.57 245.45 C 132.70 249.68 135.78 253.97 139.23 257.94 C 140.77 259.91 143.59 260.24 145.12 262.18 C 145.54 263.73 145.71 265.35 145.97 266.95 C 144.67 269.24 142.89 271.32 140.30 272.17 C 136.25 274.19 132.09 271.24 127.98 270.92 C 124.74 270.70 123.51 267.36 121.50 265.36 C 118.58 263.81 114.85 263.96 112.41 261.48 C 110.78 260.38 110.27 258.11 111.33 256.44 C 114.29 250.47 115.42 243.59 114.13 237.03 C 113.51 233.65 111.66 230.51 111.85 226.99 C 111.92 220.55 113.70 214.31 114.63 207.98 C 114.07 204.38 113.11 200.83 113.30 197.15 C 111.85 199.92 110.71 202.88 110.77 206.06 C 110.80 209.88 108.82 213.30 108.43 217.04 C 108.73 221.51 110.62 225.99 109.37 230.50 C 108.19 234.62 106.53 238.67 106.52 243.03 C 106.36 247.98 105.20 253.65 108.31 257.97 C 110.12 260.72 110.99 263.92 112.45 266.85 C 113.69 269.38 116.22 270.83 118.06 272.84 C 119.35 275.14 118.58 277.88 118.47 280.36 C 117.08 280.50 115.70 280.64 114.33 280.80 C 109.68 285.94 101.46 283.08 97.22 278.84 C 95.65 275.82 93.59 273.13 91.37 270.56 C 91.23 266.85 92.37 263.21 92.89 259.54 C 89.39 256.07 92.39 251.17 93.02 247.12 C 91.26 239.22 88.12 231.13 90.02 222.96 C 90.70 218.97 92.88 215.30 92.82 211.18 C 92.81 207.77 93.16 204.36 93.47 200.97 C 94.05 195.32 93.21 189.68 93.16 184.03 C 93.03 181.55 93.37 178.86 91.80 176.74 C 91.90 173.83 92.25 170.94 92.63 168.05 C 91.75 167.32 90.88 166.58 90.02 165.83 C 89.66 167.58 90.02 170.15 87.82 170.80 C 83.46 171.87 79.01 172.62 74.55 173.10 C 74.60 171.75 74.34 170.48 73.77 169.30 C 71.78 169.30 69.85 169.83 67.91 170.21 C 67.74 177.79 68.36 185.41 67.22 192.94 C 67.01 221.97 67.25 251.00 67.11 280.03 C 67.18 281.19 66.59 281.91 65.34 282.21 C 65.06 251.81 65.29 221.41 65.23 191.02 C 64.45 191.29 62.88 191.83 62.10 192.10 C 62.55 222.06 62.51 252.04 62.26 282.00 L 60.50 282.00 C 60.49 267.66 60.99 253.33 60.78 238.98 C 60.59 223.64 61.18 208.28 60.25 192.96 C 60.44 191.50 58.55 191.43 57.71 190.70 C 57.38 221.14 58.26 251.59 57.77 282.03 C 57.24 281.86 56.18 281.54 55.65 281.37 C 54.88 256.27 55.49 231.14 55.12 206.04 C 55.06 200.10 54.92 194.10 56.12 188.25 C 57.65 188.93 59.18 189.61 60.71 190.28 C 61.09 183.85 60.06 177.46 60.28 171.04 C 60.44 164.64 60.78 158.24 60.47 151.84 C 59.62 151.68 57.92 151.35 57.07 151.18 C 57.06 153.93 57.01 156.68 56.86 159.42 C 56.14 157.71 55.10 156.04 55.03 154.13 C 55.30 110.36 54.90 66.56 55.17 22.78 C 55.69 22.59 56.74 22.20 57.26 22.00 C 57.34 61.34 57.37 100.68 57.43 140.02 C 57.55 143.07 57.05 146.23 57.84 149.21 C 58.57 149.52 60.02 150.13 60.75 150.43 C 60.69 112.62 60.65 74.80 60.76 36.99 C 60.84 31.63 60.38 26.24 61.09 20.91 C 62.76 57.92 62.15 94.99 62.23 132.04 C 61.48 138.38 60.77 144.82 62.67 151.06 C 63.47 150.42 64.39 149.91 65.01 149.09 C 65.57 143.76 64.98 138.40 64.82 133.06 C 64.97 104.72 64.69 76.37 64.87 48.02 M 108.60 53.59 C 106.22 57.34 106.92 62.14 108.18 66.16 C 109.18 71.49 106.93 77.28 102.35 80.31 L 103.01 77.86 C 100.33 78.74 97.67 79.74 95.33 81.34 C 92.34 83.55 87.91 83.38 85.73 86.73 C 82.44 90.57 83.18 95.86 83.28 100.52 C 81.09 100.70 80.28 103.06 81.70 104.62 C 82.53 103.10 83.51 101.67 84.80 100.50 C 84.20 103.17 83.31 105.79 83.26 108.54 C 84.98 109.09 86.10 110.55 86.56 112.23 C 86.26 116.98 84.72 121.85 80.93 124.96 C 82.36 127.84 83.68 130.81 83.99 134.05 C 84.20 136.72 86.30 139.55 84.44 142.06 C 84.22 140.25 84.08 138.43 83.94 136.62 C 83.60 136.39 82.90 135.92 82.56 135.69 C 82.76 131.92 79.78 129.06 79.44 125.45 C 80.54 123.20 82.81 121.56 83.11 118.94 C 83.88 115.89 85.23 111.96 82.35 109.57 C 80.96 108.52 81.43 106.62 80.75 105.22 C 78.70 107.15 77.73 110.38 78.24 113.25 C 79.32 114.77 79.83 116.57 80.39 118.32 C 77.42 121.92 78.92 126.96 76.64 130.78 C 75.53 138.22 77.01 145.61 77.68 152.99 C 78.29 156.55 75.04 158.89 74.36 162.12 C 74.25 163.84 74.52 165.56 74.63 167.29 C 75.56 167.79 76.49 168.30 77.42 168.81 C 77.49 169.36 77.63 170.44 77.69 170.99 C 80.65 170.15 83.55 168.99 86.65 168.81 C 86.71 168.15 86.83 166.83 86.89 166.17 C 88.22 164.68 89.89 163.37 90.58 161.42 C 90.65 161.19 90.80 160.74 90.87 160.52 L 91.93 160.28 C 90.36 159.39 88.76 158.58 87.09 157.93 C 86.49 157.14 85.90 156.35 85.32 155.57 C 85.60 154.84 85.89 154.12 86.18 153.40 C 85.90 150.12 85.51 146.68 86.77 143.54 C 89.31 137.50 91.02 130.63 89.05 124.17 C 88.17 121.09 88.59 117.84 89.33 114.78 C 90.07 116.14 90.51 117.59 90.62 119.15 C 93.46 115.56 93.22 110.86 94.82 106.77 C 95.70 104.52 96.42 102.21 96.53 99.78 C 95.32 100.02 94.12 100.24 92.91 100.45 C 93.38 99.55 94.11 98.86 94.99 98.35 C 99.69 95.66 99.93 89.47 100.60 84.70 C 103.90 89.07 101.26 95.64 97.45 98.91 C 97.88 100.55 98.52 102.26 97.64 103.88 C 96.37 108.10 96.14 112.59 94.46 116.70 C 98.06 122.59 96.82 129.81 99.09 136.07 C 101.97 137.02 104.90 137.72 107.94 137.93 C 107.01 138.75 106.08 139.58 105.15 140.41 C 103.05 139.83 100.94 139.28 98.85 138.69 C 97.44 141.47 95.26 143.89 94.62 147.01 C 93.75 150.02 94.14 153.20 93.72 156.27 C 91.75 155.30 91.93 152.87 91.89 151.01 C 92.16 147.00 93.07 142.79 95.75 139.66 C 95.94 138.04 96.16 136.43 96.47 134.83 C 95.93 132.60 95.38 130.38 94.86 128.15 C 94.13 124.90 95.01 121.38 93.29 118.36 C 92.28 119.58 91.30 120.83 90.33 122.09 C 92.76 128.13 91.59 134.85 89.87 140.89 C 87.61 145.22 87.29 150.27 88.23 155.00 C 89.34 156.87 92.14 157.03 93.20 159.01 C 93.53 161.96 92.89 164.98 93.69 167.87 C 94.42 170.64 95.26 173.41 95.16 176.32 C 100.21 176.36 104.97 178.31 109.98 178.63 C 112.50 178.82 114.47 176.98 116.72 176.16 C 116.15 173.08 115.37 169.77 117.46 167.07 C 117.77 170.44 118.93 173.83 118.13 177.22 C 121.39 176.53 124.73 178.08 127.91 176.78 C 131.14 176.10 133.97 173.22 134.29 169.91 C 134.04 167.18 132.26 164.69 132.65 161.89 C 133.14 158.84 132.19 155.89 131.47 152.97 C 130.76 150.61 132.06 148.34 132.24 146.02 C 131.48 143.09 129.61 140.63 128.13 138.05 C 121.57 141.19 114.25 140.24 107.26 140.11 C 107.87 139.17 109.35 138.42 108.72 137.08 C 108.11 133.94 106.53 131.12 105.34 128.19 C 105.94 128.17 107.14 128.14 107.74 128.13 C 107.26 126.31 106.77 124.50 106.33 122.68 C 108.92 123.25 108.76 126.51 109.85 128.45 C 109.01 128.89 108.19 129.33 107.38 129.80 C 109.25 132.16 110.60 134.90 110.47 137.98 C 112.94 137.98 115.41 138.05 117.88 138.08 C 118.65 131.68 116.03 125.29 118.29 119.03 C 117.18 118.67 116.07 118.30 114.97 117.92 C 113.85 118.26 112.72 118.57 111.59 118.86 C 112.83 117.78 114.38 117.22 115.93 116.72 C 116.49 117.06 117.63 117.73 118.20 118.07 C 118.30 116.35 118.39 114.64 118.56 112.93 C 122.24 115.99 119.22 121.26 118.70 125.19 C 119.76 129.38 119.91 133.76 119.19 138.02 C 122.81 137.23 126.63 136.83 129.82 134.79 C 129.43 129.67 127.51 124.07 130.20 119.28 C 129.84 118.51 129.46 117.75 129.07 117.01 L 128.62 119.07 C 128.82 115.49 125.62 113.60 122.92 112.10 C 121.97 112.27 121.01 112.43 120.05 112.57 C 120.73 111.10 122.59 110.49 124.05 111.10 C 127.05 112.54 129.02 115.31 131.02 117.85 C 130.95 114.17 130.80 110.49 130.36 106.83 C 127.99 107.58 125.62 108.62 123.08 108.58 C 121.50 108.16 119.03 107.04 120.33 105.08 C 124.87 109.76 132.19 104.52 132.43 98.93 C 133.35 94.78 129.79 91.88 127.69 88.83 C 131.80 88.63 133.45 93.31 134.45 96.55 C 135.02 96.84 136.18 97.41 136.75 97.70 C 136.14 98.41 135.53 99.12 134.91 99.82 L 134.41 97.65 C 134.50 100.70 133.00 103.32 131.38 105.77 C 132.69 109.03 133.23 112.56 133.16 116.06 C 132.68 118.78 130.91 121.18 131.06 124.02 C 130.67 128.63 131.80 133.13 133.58 137.34 C 136.47 139.51 137.32 143.62 137.69 147.05 C 138.15 149.61 135.77 151.68 133.31 150.54 C 134.29 153.45 134.74 156.52 134.66 159.59 C 135.83 159.82 137.00 160.08 138.17 160.34 C 139.51 159.70 141.34 159.55 142.08 158.06 C 142.32 155.84 142.28 153.60 142.33 151.38 C 142.91 149.67 143.91 147.94 143.36 146.08 C 142.31 140.12 141.86 134.07 142.00 128.02 C 141.64 124.75 141.35 120.44 137.80 119.06 C 135.94 119.06 136.26 121.66 135.23 122.70 C 135.41 120.32 135.80 117.96 136.50 115.67 C 136.83 115.49 137.50 115.14 137.84 114.96 C 139.01 110.17 139.65 105.06 137.81 100.33 L 136.97 100.48 C 137.07 100.07 137.28 99.26 137.38 98.85 C 139.55 97.69 139.10 94.98 138.82 92.98 C 138.40 90.85 138.16 88.64 137.36 86.61 C 135.43 83.61 131.08 84.74 128.82 82.18 C 127.11 80.58 125.08 79.24 122.66 79.16 C 123.11 80.48 123.58 81.78 124.06 83.09 C 123.55 82.74 122.54 82.04 122.04 81.70 C 121.49 83.02 121.02 84.40 120.22 85.61 C 120.24 83.44 120.48 81.27 120.81 79.12 C 117.65 79.16 114.08 78.73 111.82 76.27 C 110.01 74.42 109.71 71.76 109.38 69.32 C 111.00 69.35 111.40 70.53 111.36 71.95 C 113.21 75.17 117.42 77.83 121.09 75.98 C 124.31 74.83 125.33 71.13 125.86 68.10 C 126.81 63.01 124.42 58.22 123.73 53.26 C 121.87 51.09 118.83 50.19 116.04 50.57 C 113.40 50.86 110.09 51.00 108.60 53.59 M 175.12 123.91 C 175.17 126.12 175.10 128.37 175.74 130.52 C 175.90 135.00 175.78 139.48 175.81 143.96 C 176.82 143.81 177.84 143.65 178.85 143.50 C 179.92 145.60 180.33 147.85 179.14 150.00 C 178.02 150.20 176.90 150.41 175.78 150.62 C 176.06 156.99 175.38 163.42 176.16 169.75 C 177.98 171.45 180.64 171.06 182.91 171.38 C 183.13 170.46 183.37 169.55 183.62 168.64 C 190.49 160.96 191.01 149.81 189.89 140.07 C 189.22 133.71 185.89 128.12 182.02 123.21 C 183.18 123.46 184.62 123.44 185.31 124.62 C 190.30 130.88 191.71 139.15 191.93 146.95 C 191.73 155.62 190.23 165.26 183.26 171.21 C 189.22 171.83 192.57 166.17 194.43 161.42 C 198.15 150.76 197.94 138.43 192.74 128.29 C 191.09 124.73 187.56 122.77 184.22 121.08 C 181.13 121.83 177.66 121.70 175.12 123.91 M 165.02 131.05 C 165.25 143.67 165.04 156.30 165.17 168.92 C 166.42 169.33 167.67 169.72 168.94 170.09 C 169.04 162.39 168.21 154.70 168.64 147.00 C 168.95 142.54 168.26 137.98 169.36 133.60 C 168.50 131.93 166.69 131.47 165.02 131.05 M 170.28 132.48 C 170.40 144.96 169.93 157.45 170.71 169.92 C 171.78 169.66 172.86 169.40 173.93 169.13 C 174.09 156.57 174.13 144.00 174.07 131.44 C 172.80 131.78 171.54 132.13 170.28 132.48 M 131.03 136.49 C 130.24 137.38 130.50 139.73 131.90 139.78 C 132.62 138.88 132.27 136.69 131.03 136.49 M 132.86 139.53 C 132.78 143.23 131.96 147.28 134.72 150.29 C 136.76 146.76 135.40 142.41 132.86 139.53 M 176.46 148.62 C 178.03 149.54 179.23 146.71 177.98 145.74 C 176.35 144.72 175.41 147.63 176.46 148.62 M 147.82 151.23 C 146.01 151.59 143.53 151.81 143.75 154.29 C 150.22 153.30 156.64 151.96 163.05 150.66 C 162.97 150.14 162.80 149.10 162.71 148.58 C 157.70 149.21 152.80 150.44 147.82 151.23 M 62.19 152.59 C 62.30 165.09 61.83 177.60 62.57 190.09 C 63.36 189.77 64.93 189.14 65.71 188.83 C 65.86 176.33 66.20 163.78 65.68 151.28 C 64.81 151.61 63.06 152.27 62.19 152.59 M 115.33 177.46 C 115.03 177.98 114.45 179.03 114.16 179.56 C 114.57 179.95 115.38 180.74 115.79 181.13 C 115.85 185.08 114.76 188.92 114.46 192.84 C 115.01 194.91 116.22 196.82 116.09 199.05 C 115.97 203.92 118.50 208.21 120.10 212.65 C 120.50 213.59 120.15 214.55 119.85 215.46 C 119.20 213.16 118.05 211.08 116.33 209.43 C 115.78 216.29 113.17 222.93 114.08 229.90 C 117.28 233.38 116.56 238.57 116.66 242.94 C 117.10 249.03 111.14 254.50 114.12 260.52 C 117.37 262.06 120.96 262.61 124.31 263.85 C 126.86 264.88 127.10 268.91 130.12 269.01 C 132.57 269.17 134.67 270.49 136.98 271.14 C 140.03 271.23 142.33 269.03 144.26 266.96 C 143.72 263.41 140.55 261.55 137.50 260.37 C 133.39 256.51 131.88 250.67 127.89 246.66 C 126.81 241.85 126.54 236.86 127.50 232.01 C 128.58 226.06 127.20 220.04 127.64 214.07 C 128.50 209.04 130.50 204.08 129.78 198.90 C 129.40 196.25 129.53 193.58 129.78 190.93 C 128.24 194.31 125.93 198.27 121.92 198.87 C 118.31 198.19 119.19 193.45 118.90 190.77 C 122.16 190.70 120.24 193.98 121.06 195.87 C 124.45 198.14 127.06 193.73 127.73 190.93 C 129.54 187.44 128.57 183.54 128.33 179.83 C 131.95 178.46 129.54 184.53 132.21 184.60 L 131.16 183.69 C 132.06 181.36 132.20 178.87 132.50 176.43 C 127.53 179.83 120.72 179.73 115.33 177.46 M 94.65 178.35 C 94.59 186.03 96.08 193.58 96.07 201.25 C 94.96 205.08 95.32 209.05 95.01 212.96 C 91.82 223.85 91.77 235.50 94.38 246.53 C 95.36 249.91 94.02 253.20 93.13 256.42 C 93.60 256.87 94.52 257.77 94.98 258.23 C 94.31 262.16 93.76 266.13 93.13 270.08 C 96.50 271.36 98.25 274.57 99.51 277.73 C 103.00 279.48 107.00 281.41 110.97 280.18 C 113.30 279.43 115.71 279.07 118.16 279.14 C 117.41 277.61 116.99 275.96 116.54 274.33 C 113.56 272.32 110.77 269.68 109.93 266.05 C 109.36 262.90 106.03 261.29 105.48 258.12 C 104.37 252.15 103.62 246.02 104.21 239.94 C 104.61 237.21 105.80 234.68 106.24 231.96 C 107.24 226.96 105.62 221.92 106.20 216.90 C 106.52 212.83 108.92 209.18 108.49 205.02 C 108.15 200.93 110.89 197.56 111.68 193.69 C 112.57 189.26 112.92 184.75 113.72 180.30 C 112.54 180.44 111.37 180.57 110.20 180.73 C 110.59 184.05 108.53 188.17 105.21 189.14 C 106.64 186.59 108.10 184.04 108.86 181.19 C 104.00 180.95 99.30 179.71 94.65 178.35 Z" />
<path fill="#333333" opacity="1.00" d=" M 104.67 79.97 C 106.98 80.98 106.55 84.25 104.48 85.31 C 104.62 83.53 104.68 81.75 104.67 79.97 Z" />
<path fill="#333333" opacity="1.00" d=" M 110.03 79.73 C 112.75 81.37 113.70 84.91 113.62 87.92 C 115.31 89.00 117.32 90.09 117.31 92.42 C 113.27 88.86 107.78 89.36 102.96 87.80 C 103.55 87.26 104.15 86.72 104.74 86.19 C 107.15 87.56 109.92 87.87 112.63 88.07 C 111.82 85.27 110.75 82.55 110.03 79.73 Z" />
<path fill="#333333" opacity="1.00" d=" M 93.67 84.87 C 94.91 82.47 97.87 81.56 99.95 83.49 C 97.86 83.97 95.78 84.50 93.67 84.87 Z" />
<path fill="#333333" opacity="1.00" d=" M 125.98 85.81 C 127.06 84.97 128.13 84.13 129.22 83.32 C 129.61 87.28 125.06 87.50 122.32 88.08 C 121.43 89.18 120.50 90.27 119.28 91.01 C 119.68 89.52 120.08 88.01 120.78 86.62 C 122.47 86.13 124.24 86.03 125.98 85.81 Z" />
<path fill="#333333" opacity="1.00" d=" M 85.87 98.72 C 86.66 97.67 87.79 99.18 88.11 99.92 C 89.38 101.74 89.95 103.92 89.47 106.13 C 88.07 103.76 87.14 101.15 85.87 98.72 Z" />
<path fill="#333333" opacity="1.00" d=" M 98.88 103.77 C 99.80 104.67 100.68 105.60 101.54 106.57 C 104.91 107.79 108.48 108.26 112.05 108.02 C 114.92 108.33 116.50 105.42 118.99 104.56 C 118.51 106.48 117.84 108.96 115.57 109.44 C 110.12 110.90 103.63 110.43 99.17 106.72 C 99.10 105.98 98.95 104.51 98.88 103.77 Z" />
<path fill="#333333" opacity="1.00" d=" M 96.65 113.79 C 97.52 112.61 98.83 111.92 100.01 111.11 C 101.96 112.30 103.63 113.93 105.74 114.88 C 103.64 117.04 101.75 114.87 100.23 113.27 C 99.34 113.40 97.54 113.66 96.65 113.79 Z" />
<path fill="#333333" opacity="1.00" d=" M 110.73 113.76 C 112.21 111.84 114.74 111.58 116.94 111.14 C 117.10 111.45 117.41 112.07 117.56 112.37 C 114.91 112.73 112.07 113.37 110.76 115.98 C 109.56 118.27 107.45 119.66 104.91 120.03 C 107.07 118.15 109.05 116.08 110.73 113.76 Z" />
<path fill="#333333" opacity="1.00" d=" M 96.24 117.65 C 97.18 117.01 98.11 116.38 99.06 115.74 C 100.74 117.36 103.57 118.47 103.25 121.27 C 101.77 120.51 100.39 119.55 99.26 118.32 C 98.50 118.15 96.99 117.82 96.24 117.65 Z" />
<path fill="#333333" opacity="1.00" d=" M 120.73 124.03 C 123.00 123.74 125.43 123.94 126.67 126.17 C 124.57 125.84 122.14 125.91 120.73 124.03 Z" />
<path fill="#333333" opacity="1.00" d=" M 106.44 140.27 C 106.88 141.17 107.33 142.07 107.77 142.97 C 113.12 141.96 118.67 143.53 123.84 141.28 L 123.90 141.77 C 118.93 145.16 112.81 143.18 107.28 144.37 C 106.01 146.68 103.87 148.38 101.47 149.42 C 100.23 150.18 99.01 149.43 98.32 148.36 C 102.19 147.15 105.47 144.33 106.44 140.27 Z" />
<path fill="#333333" opacity="1.00" d=" M 32.67 150.73 C 35.24 147.51 39.68 147.77 43.29 146.74 C 49.50 147.82 53.20 153.43 55.00 159.02 C 58.02 167.91 58.01 177.75 55.65 186.79 C 54.13 191.84 51.84 197.37 46.89 199.93 C 42.74 200.20 37.88 201.85 34.32 198.81 C 28.67 194.33 27.43 186.80 25.74 180.27 C 21.55 180.04 17.07 181.28 12.96 182.47 C 12.51 181.83 11.62 180.57 11.17 179.94 L 11.04 177.63 C 12.07 178.42 13.08 179.24 14.08 180.07 C 14.00 179.36 13.84 177.95 13.75 177.25 C 12.88 177.72 11.91 177.68 10.99 177.38 C 11.80 175.18 14.13 175.44 15.92 175.08 C 19.09 174.64 22.20 173.83 25.38 173.47 C 25.83 165.50 27.54 157.08 32.67 150.73 M 34.16 151.23 C 29.15 156.44 27.72 163.89 26.93 170.81 C 26.60 171.37 25.93 172.48 25.60 173.04 C 29.77 172.60 33.75 171.20 37.89 170.58 C 38.79 172.62 39.16 174.80 39.07 177.03 C 35.30 178.04 31.48 178.92 27.58 179.26 C 27.68 184.49 29.37 189.62 32.18 194.00 C 33.78 196.23 36.10 198.38 39.00 198.45 C 42.63 198.34 47.04 198.81 49.51 195.54 C 55.01 188.78 56.19 179.52 55.87 171.07 C 55.23 162.33 52.47 151.93 43.50 148.32 C 40.37 149.26 36.57 148.64 34.16 151.23 M 15.50 176.59 C 15.59 177.45 15.77 179.19 15.86 180.06 C 23.19 178.44 30.58 177.11 37.94 175.58 C 37.77 174.65 37.59 173.73 37.40 172.81 C 30.08 173.95 22.88 175.83 15.50 176.59 Z" />
<path fill="#333333" opacity="1.00" d=" M 41.14 150.24 C 44.90 150.53 46.18 154.48 47.66 157.34 C 52.06 168.21 51.96 180.81 47.63 191.69 C 46.80 193.98 45.33 196.07 43.07 197.13 C 44.81 193.06 47.49 189.36 48.25 184.89 C 50.04 176.46 49.84 167.38 46.74 159.26 C 45.53 155.88 42.91 153.31 41.14 150.24 Z" />
<path fill="#333333" opacity="1.00" d=" M 108.46 151.24 C 114.82 151.32 121.13 150.43 127.44 149.84 C 127.18 151.27 126.87 152.69 126.61 154.13 C 126.23 154.01 125.46 153.78 125.08 153.66 C 125.53 153.07 126.43 151.88 126.88 151.29 C 121.90 151.51 116.99 152.53 112.02 152.74 C 110.59 153.02 109.51 152.03 108.46 151.24 Z" />
<path fill="#333333" opacity="1.00" d=" M 79.07 156.22 C 80.26 154.84 81.49 153.49 82.77 152.19 C 83.21 154.69 81.38 156.07 79.07 156.22 Z" />
<path fill="#333333" opacity="1.00" d=" M 108.99 158.58 C 114.60 157.19 119.20 152.66 125.25 153.04 C 119.67 154.60 114.92 158.02 109.40 159.75 C 109.30 159.46 109.09 158.87 108.99 158.58 Z" />
<path fill="#333333" opacity="1.00" d=" M 122.45 161.09 C 123.19 159.53 124.80 158.85 126.27 158.14 C 125.14 162.12 121.86 165.22 118.15 166.87 C 118.96 164.52 121.28 163.22 122.45 161.09 Z" />
<path fill="#333333" opacity="1.00" d=" M 98.05 196.70 C 99.95 194.04 103.77 193.21 106.32 191.09 C 107.64 193.72 109.24 196.32 109.47 199.34 C 105.98 200.38 105.96 196.43 104.88 194.25 C 102.70 195.10 100.40 197.64 98.05 196.70 Z" />
<path fill="#333333" opacity="1.00" d=" M 121.13 202.93 C 122.54 203.74 123.78 204.81 124.94 205.94 C 124.62 207.45 124.30 208.96 123.84 210.44 C 123.41 207.77 121.95 205.47 121.13 202.93 Z" />
<path fill="#333333" opacity="1.00" d=" M 101.10 209.60 C 102.36 206.86 105.50 206.06 107.68 204.25 C 107.80 207.95 104.19 209.31 101.10 209.60 Z" />
<path fill="#333333" opacity="1.00" d=" M 102.59 221.06 C 102.84 219.12 103.54 217.29 104.57 215.64 C 103.90 225.81 100.83 236.03 102.78 246.22 C 100.79 245.55 100.92 243.25 100.67 241.55 C 100.29 234.67 101.55 227.83 102.59 221.06 Z" />
<path fill="#333333" opacity="1.00" d=" M 124.10 238.04 C 123.56 230.91 123.71 223.65 125.67 216.73 C 127.56 224.49 124.95 232.41 125.51 240.28 C 124.50 239.87 124.03 239.13 124.10 238.04 Z" />
<path fill="#333333" opacity="1.00" d=" M 118.14 237.14 C 118.76 230.67 119.76 224.23 120.13 217.72 C 122.34 223.95 122.23 231.72 118.14 237.14 Z" />
<path fill="#333333" opacity="1.00" d=" M 117.28 245.36 C 118.98 246.87 118.05 249.07 118.00 250.99 C 117.53 253.92 121.72 256.12 119.78 259.03 C 118.59 256.96 117.13 255.06 115.92 253.01 C 115.60 250.38 116.57 247.83 117.28 245.36 Z" />
<path fill="#333333" opacity="1.00" d=" M 123.62 246.81 C 125.74 248.53 126.15 251.33 127.16 253.71 C 128.46 257.18 130.41 260.36 131.57 263.89 C 130.32 262.96 129.00 262.04 128.28 260.61 C 126.04 256.28 123.75 251.79 123.62 246.81 Z" />
<path fill="#333333" opacity="1.00" d=" M 98.82 256.00 C 100.11 254.95 101.49 254.00 102.92 253.14 C 102.19 254.41 101.19 255.56 100.82 257.01 C 101.09 259.72 102.13 262.40 101.60 265.14 C 101.24 267.02 101.27 268.93 101.68 270.80 C 101.37 270.52 100.75 269.97 100.44 269.69 C 100.42 265.06 99.34 260.57 98.82 256.00 Z" />
</g>
</svg>
