<?xml version="1.0" encoding="UTF-8" ?>
<!DOCTYPE svg PUBLIC "-//W3C//DTD SVG 1.1//EN" "http://www.w3.org/Graphics/SVG/1.1/DTD/svg11.dtd">
<svg width="207pt" height="325pt" viewBox="0 0 207 325" version="1.1" xmlns="http://www.w3.org/2000/svg">
<g id="#ffffffff">
<path fill="#FFFFFF" opacity="1.00" d=" M 0.00 0.00 L 207.00 0.00 L 207.00 211.73 C 204.04 212.55 201.02 213.09 198.05 213.81 C 196.65 207.04 194.94 199.25 188.76 195.21 C 184.52 192.44 179.46 194.38 175.10 195.74 C 175.39 138.37 175.12 80.99 175.22 23.62 C 174.75 23.48 173.80 23.19 173.33 23.05 C 172.44 50.70 173.21 78.36 172.93 106.01 C 173.56 136.67 173.28 167.34 173.26 198.01 C 173.75 200.01 172.11 201.08 170.79 202.20 C 170.18 196.15 170.79 190.09 170.52 184.03 C 169.61 162.71 170.91 141.36 170.17 120.04 C 170.70 96.70 170.26 73.34 170.39 49.99 C 170.36 41.49 170.43 32.97 169.87 24.49 C 168.07 50.95 169.11 77.49 168.86 103.99 C 168.59 111.67 170.14 119.34 169.04 127.01 C 168.36 151.84 168.80 176.69 168.90 201.53 C 168.18 201.31 166.74 200.87 166.02 200.64 C 165.52 180.80 165.85 160.94 165.76 141.08 C 165.36 102.26 165.54 63.43 165.34 24.61 L 163.64 24.54 C 163.35 74.69 163.77 124.85 163.68 175.00 C 163.18 184.32 164.56 193.71 163.02 202.96 C 162.55 209.40 162.97 215.87 162.84 222.32 C 157.65 223.52 152.44 224.59 147.26 225.82 C 145.85 220.74 145.40 215.38 145.47 210.12 C 146.78 202.42 144.59 194.72 144.87 187.00 C 144.93 182.93 143.64 178.90 144.34 174.83 C 145.09 169.62 145.42 163.49 141.78 159.22 C 139.15 157.25 136.26 155.54 134.54 152.62 C 137.65 146.86 136.98 140.07 135.96 133.85 C 135.52 130.62 133.53 127.95 131.24 125.76 C 126.71 125.95 121.75 126.13 118.04 129.09 C 115.17 131.93 114.62 136.45 115.96 140.14 C 116.98 142.95 117.69 145.98 116.70 148.92 C 115.04 150.35 112.75 150.73 110.83 151.72 C 107.46 153.12 105.08 156.06 101.88 157.74 C 99.94 158.84 97.70 159.62 96.25 161.40 C 93.89 164.13 93.22 168.00 90.33 170.32 C 85.56 174.52 83.79 180.79 81.24 186.36 C 78.44 190.09 74.51 193.27 73.57 198.11 C 72.65 204.70 72.38 212.73 78.15 217.32 C 79.27 223.05 76.91 228.53 75.35 233.93 C 73.49 235.81 72.59 238.26 72.57 240.90 L 71.07 241.18 C 72.38 241.73 73.70 242.24 75.05 242.73 C 72.85 244.42 70.26 245.40 67.58 246.04 C 67.68 243.62 68.87 242.68 71.16 243.22 C 71.20 242.76 71.29 241.85 71.33 241.40 C 70.50 241.55 68.85 241.85 68.03 242.00 C 67.74 233.67 68.41 225.30 67.20 217.02 C 67.09 153.00 67.17 88.98 67.16 24.96 C 67.13 21.91 66.53 18.91 66.14 15.89 C 64.98 21.17 65.12 26.60 64.95 31.98 C 64.62 64.32 64.97 96.66 64.80 129.00 C 65.45 158.68 65.22 188.39 65.17 218.09 C 65.66 220.08 63.92 221.09 62.58 222.12 C 62.01 216.11 62.71 210.06 62.26 204.04 C 61.55 196.69 62.57 189.31 61.87 181.96 C 61.00 169.00 63.58 155.96 61.53 143.07 C 61.31 138.70 62.43 134.39 62.30 130.01 C 62.15 100.68 62.38 71.35 62.16 42.02 C 61.19 34.97 61.65 27.87 61.05 20.81 C 60.36 26.84 60.86 32.91 60.74 38.96 C 60.52 86.61 60.92 134.26 60.50 181.91 C 59.88 195.08 61.23 208.25 60.67 221.44 C 59.69 220.98 58.70 220.53 57.72 220.09 C 57.64 155.72 57.23 91.36 57.35 27.00 C 57.49 24.79 56.83 22.68 55.93 20.69 C 54.38 25.66 55.15 30.92 55.02 36.03 C 55.00 97.02 55.17 158.02 55.11 219.01 C 55.23 224.56 53.80 230.61 56.96 235.60 C 57.15 231.12 57.07 226.64 57.02 222.16 C 57.89 222.37 59.62 222.77 60.49 222.97 C 60.68 228.66 60.50 234.36 60.28 240.05 C 60.01 246.87 60.70 253.67 60.96 260.47 C 59.06 260.34 57.53 261.01 56.38 262.47 C 57.87 262.52 59.36 262.60 60.85 262.70 C 60.27 269.12 60.52 275.57 60.47 282.00 L 62.27 282.00 C 62.31 275.67 62.07 269.33 62.62 263.02 C 63.47 262.69 64.32 262.37 65.17 262.05 C 65.19 268.63 65.16 275.20 65.22 281.78 L 67.15 281.75 C 67.34 274.18 66.63 266.56 67.81 259.04 C 68.13 255.12 67.92 251.18 67.95 247.25 C 70.71 246.65 73.47 246.09 76.24 245.56 C 76.28 244.25 76.32 242.96 76.37 241.66 C 76.01 241.26 75.31 240.47 74.95 240.08 C 74.98 238.92 75.02 237.76 75.05 236.60 C 75.60 236.21 76.70 235.41 77.25 235.02 C 78.12 230.71 79.78 226.60 80.24 222.21 C 80.89 217.86 80.17 213.25 81.97 209.11 C 83.35 205.88 84.22 202.46 85.12 199.07 C 85.78 196.43 87.76 194.44 89.01 192.10 C 89.85 190.22 89.74 188.10 90.00 186.10 C 90.79 185.14 91.57 184.19 92.35 183.23 C 93.62 184.34 94.91 185.43 96.22 186.50 C 95.15 190.50 93.77 194.52 90.89 197.61 C 90.31 197.55 89.16 197.45 88.59 197.39 C 85.78 200.53 84.63 204.85 86.14 208.87 C 86.48 208.61 87.15 208.10 87.48 207.84 C 87.41 204.97 87.71 202.08 89.05 199.51 C 91.66 198.16 94.14 196.36 95.77 193.88 C 97.07 191.64 97.14 188.99 97.42 186.50 C 97.87 185.91 98.33 185.33 98.79 184.75 C 97.70 184.31 96.63 183.83 95.58 183.31 C 95.21 181.47 95.24 179.58 94.87 177.74 C 94.47 177.83 93.66 178.00 93.25 178.09 C 91.87 180.70 90.84 183.47 89.47 186.08 C 87.88 179.70 93.45 175.15 95.25 169.58 C 96.38 166.10 97.49 161.92 101.26 160.42 C 106.37 158.48 109.54 153.53 114.88 151.97 C 114.45 152.82 113.59 154.52 113.16 155.37 C 114.89 154.16 116.60 152.91 118.33 151.70 C 117.24 153.88 116.09 156.04 114.89 158.17 C 115.20 159.97 115.50 161.77 115.86 163.57 C 116.86 160.32 117.22 156.92 118.18 153.66 C 120.91 158.14 121.82 163.53 125.08 167.69 C 125.43 162.24 122.50 157.39 120.59 152.48 C 118.55 148.22 119.18 143.33 117.68 138.92 C 116.62 135.77 116.95 131.81 119.54 129.49 C 122.02 127.87 125.12 127.43 128.03 127.38 C 130.64 127.33 133.01 129.44 133.33 132.03 C 134.53 138.78 135.51 146.00 132.59 152.46 C 130.13 152.15 127.30 152.30 125.39 150.45 C 123.81 149.03 122.35 147.48 120.61 146.26 C 121.27 148.14 121.43 150.46 123.04 151.86 C 125.32 153.76 128.41 153.97 131.23 154.36 C 130.62 157.07 130.16 159.82 130.08 162.61 C 131.42 159.67 132.15 156.52 132.88 153.39 C 134.29 155.46 135.89 157.44 138.04 158.79 C 141.02 160.48 142.40 163.87 143.23 167.03 C 144.49 171.78 141.57 176.48 142.86 181.22 C 143.88 185.15 142.43 189.14 143.05 193.10 C 143.72 198.30 143.56 203.62 144.87 208.74 C 141.51 205.46 138.20 202.10 134.68 198.97 C 135.80 195.83 136.55 192.24 134.91 189.13 C 134.47 187.33 132.42 185.16 134.29 183.55 C 137.28 180.58 139.78 176.99 140.67 172.80 C 141.08 170.01 139.70 167.38 138.50 164.96 C 138.53 170.54 138.79 177.11 134.27 181.19 C 132.10 182.29 129.72 184.48 127.17 183.69 C 126.84 183.34 126.16 182.63 125.83 182.28 C 123.28 183.52 120.86 185.29 117.94 185.52 C 114.87 186.16 112.28 184.02 109.55 183.03 C 110.61 184.44 111.54 186.14 113.25 186.87 C 115.49 187.36 117.83 187.27 120.10 187.03 C 122.33 186.88 124.02 184.89 126.21 184.79 C 126.53 185.00 127.17 185.42 127.50 185.63 C 126.59 187.56 125.19 189.26 123.44 190.47 C 118.56 192.08 113.40 192.63 108.31 193.12 C 110.03 194.18 111.85 195.14 113.94 195.10 C 110.20 197.06 106.17 198.32 102.02 199.04 C 106.34 193.98 106.28 187.02 109.41 181.41 C 111.79 178.66 114.82 176.47 116.62 173.23 C 113.36 175.32 110.03 177.53 107.59 180.58 C 104.26 186.34 103.93 193.42 99.74 198.77 C 99.49 197.97 99.00 196.38 98.75 195.59 C 95.89 199.91 96.77 205.39 95.11 210.17 C 94.36 216.13 89.63 220.40 88.01 226.04 C 87.07 228.86 86.18 231.69 85.17 234.49 C 87.13 235.87 88.82 237.76 91.06 238.68 C 94.11 238.38 97.09 237.52 100.17 237.55 C 97.53 241.32 91.23 238.61 89.49 242.97 C 92.68 242.39 95.82 241.61 98.97 240.89 C 98.95 246.18 99.29 251.57 97.76 256.71 C 96.66 260.23 97.05 263.95 97.57 267.53 C 97.11 270.22 96.49 273.05 97.26 275.74 C 100.32 280.79 106.72 281.33 112.04 281.32 C 114.65 281.72 116.90 280.18 119.09 279.02 C 118.34 272.39 113.08 267.84 110.62 261.95 C 109.85 257.59 109.08 252.89 110.50 248.60 C 112.43 245.11 114.27 241.57 115.62 237.80 C 116.41 237.56 117.99 237.08 118.77 236.84 C 117.55 236.20 116.31 235.56 115.08 234.93 C 117.01 233.44 119.37 232.80 121.70 232.27 C 121.58 232.91 121.34 234.20 121.22 234.84 L 119.07 234.80 C 118.92 235.24 118.62 236.12 118.46 236.56 C 119.36 236.50 121.16 236.39 122.06 236.33 C 121.42 240.39 120.55 244.41 119.48 248.38 C 118.56 252.40 115.39 255.36 114.11 259.23 C 113.05 261.98 114.55 265.56 117.41 266.48 C 119.46 267.18 121.66 267.30 123.73 267.94 C 126.15 269.27 127.88 271.84 130.77 272.29 C 134.71 273.47 139.60 273.99 142.48 270.40 C 144.24 269.20 142.98 267.13 142.33 265.67 C 141.45 263.63 139.17 262.91 137.44 261.77 C 135.81 258.04 133.14 254.83 131.68 251.04 C 131.65 245.76 134.52 241.05 136.53 236.32 C 139.88 235.31 143.30 234.57 146.75 234.00 C 146.91 233.28 147.23 231.85 147.39 231.13 C 152.52 229.87 157.73 229.00 162.88 227.87 C 162.71 232.36 162.40 236.92 163.45 241.34 C 164.58 247.07 163.10 253.01 164.31 258.69 C 164.71 259.16 165.51 260.10 165.91 260.57 C 166.25 254.36 166.04 248.14 166.05 241.93 C 166.98 242.22 167.92 242.52 168.85 242.83 C 168.62 248.67 168.74 254.51 168.73 260.35 L 170.40 260.31 C 170.55 255.18 170.19 250.04 170.51 244.91 C 170.24 243.14 172.14 242.53 173.19 241.57 C 173.55 248.17 172.87 254.81 173.71 261.39 C 176.57 256.76 174.76 250.99 175.15 245.86 C 179.10 247.87 183.69 247.46 187.89 246.65 C 191.21 245.14 193.25 241.87 194.73 238.68 C 197.57 232.78 198.39 226.15 198.28 219.67 C 201.20 219.37 204.10 218.88 206.99 218.31 L 207.00 219.05 L 207.00 325.00 L 0.00 325.00 L 0.00 0.00 M 103.51 159.73 C 104.34 162.75 107.18 164.52 108.67 167.17 C 110.95 166.99 113.32 166.35 114.60 164.29 C 113.05 164.54 111.52 164.86 109.98 165.16 C 108.07 163.08 106.09 160.98 103.51 159.73 M 131.40 166.45 C 129.35 167.45 128.25 169.52 127.41 171.54 C 129.90 170.43 131.40 167.98 133.89 166.89 C 136.06 165.98 137.42 164.05 137.92 161.80 C 135.45 162.90 133.77 165.16 131.40 166.45 M 115.12 165.35 C 116.99 168.97 121.61 169.65 125.13 170.91 C 125.07 170.46 124.93 169.56 124.87 169.12 C 121.74 167.59 118.46 166.34 115.12 165.35 M 99.85 172.16 C 100.33 176.23 101.01 180.27 101.35 184.37 C 103.54 180.49 102.90 175.39 99.85 172.16 M 34.35 225.20 C 27.61 231.18 26.00 240.88 25.33 249.45 C 20.67 250.45 15.67 250.52 11.27 252.42 C 11.81 253.26 12.36 254.09 12.91 254.93 L 13.75 252.65 C 13.77 253.44 13.82 255.00 13.85 255.79 C 12.91 255.19 11.99 254.57 11.09 253.92 C 11.32 254.92 11.77 256.92 12.00 257.92 L 12.97 258.46 C 17.10 257.39 21.54 256.03 25.73 256.27 C 27.43 263.03 28.79 270.98 34.96 275.29 C 37.94 277.51 41.70 276.38 45.08 276.18 C 48.24 276.19 50.43 273.41 52.11 271.06 C 56.11 264.55 57.45 256.76 57.28 249.21 L 58.54 249.31 C 58.53 248.89 58.52 248.05 58.52 247.63 L 57.08 247.84 C 57.18 246.37 57.28 244.91 57.41 243.45 C 55.50 237.02 54.31 229.64 48.81 225.13 C 44.66 221.71 38.74 223.02 34.35 225.20 M 88.35 240.19 C 87.36 242.17 87.13 244.63 85.61 246.29 C 82.68 246.98 79.67 247.34 76.74 248.06 C 80.24 250.69 85.00 250.12 88.49 247.80 C 88.95 245.46 89.51 243.14 89.83 240.78 C 89.46 240.63 88.72 240.33 88.35 240.19 M 74.32 250.85 C 75.19 250.59 76.93 250.08 77.81 249.82 C 77.18 249.76 75.94 249.65 75.31 249.60 C 75.61 249.35 76.21 248.87 76.51 248.63 C 75.24 248.07 73.95 247.56 72.65 247.07 C 71.67 248.64 73.62 249.63 74.32 250.85 M 55.67 281.39 C 56.20 281.56 57.24 281.90 57.77 282.07 C 58.15 275.61 58.29 269.11 57.62 262.66 C 53.98 268.14 55.55 275.21 55.67 281.39 Z" />
<path fill="#FFFFFF" opacity="1.00" d=" M 83.13 187.09 C 85.41 181.34 87.37 175.12 92.05 170.79 C 90.75 173.57 89.22 176.24 88.05 179.08 C 85.48 183.43 89.00 188.50 86.54 192.91 C 84.92 191.29 83.70 189.30 83.13 187.09 Z" />
<path fill="#FFFFFF" opacity="1.00" d=" M 127.63 185.29 C 128.97 185.08 130.32 184.88 131.67 184.69 C 133.29 189.02 133.64 193.64 132.75 198.17 C 129.26 198.37 126.76 194.94 123.22 195.68 C 120.42 196.06 117.58 195.94 115.02 194.61 C 119.91 193.60 125.67 192.95 128.18 187.91 C 128.04 187.25 127.77 185.94 127.63 185.29 Z" />
<path fill="#FFFFFF" opacity="1.00" d=" M 77.37 193.30 C 78.89 191.92 80.40 190.53 81.92 189.17 C 82.92 190.83 84.05 192.46 85.72 193.52 C 81.03 200.00 80.77 208.30 78.05 215.62 C 73.56 208.94 75.16 200.49 77.37 193.30 Z" />
<path fill="#FFFFFF" opacity="1.00" d=" M 175.17 198.30 C 177.20 195.36 181.20 196.05 184.23 195.09 C 187.53 196.82 191.06 198.72 192.70 202.27 C 197.91 212.40 198.14 224.71 194.42 235.37 C 192.58 240.11 189.23 245.76 183.29 245.20 C 190.08 239.56 191.54 230.27 191.98 221.97 C 191.89 213.84 190.53 205.16 185.34 198.62 C 184.61 197.50 183.16 197.43 182.03 197.02 C 185.46 201.94 189.00 207.07 189.73 213.19 C 191.01 223.20 190.67 234.74 183.57 242.65 C 183.35 243.54 183.14 244.44 182.94 245.35 C 180.37 245.04 176.32 245.44 175.29 242.36 C 176.65 236.57 175.53 230.55 175.85 224.66 C 176.97 224.43 178.08 224.21 179.20 223.99 C 180.34 221.83 179.93 219.58 178.88 217.47 C 177.88 217.63 176.87 217.79 175.87 217.96 C 175.86 212.57 175.84 207.19 175.92 201.81 C 175.61 200.65 175.08 199.51 175.17 198.30 Z" />
<path fill="#FFFFFF" opacity="1.00" d=" M 103.11 200.18 C 107.35 200.11 111.70 199.15 115.13 196.55 C 118.16 198.39 121.57 198.54 124.84 197.27 C 121.12 199.71 116.65 202.69 116.44 207.60 C 119.24 206.69 119.93 203.67 121.80 201.76 C 125.58 197.18 133.18 199.16 136.33 203.49 C 138.30 206.56 142.15 207.82 143.84 211.10 C 144.66 213.92 142.88 216.37 141.44 218.59 C 139.76 220.96 140.24 224.13 138.64 226.54 C 135.51 231.21 134.33 236.80 131.76 241.76 C 130.11 244.83 130.09 248.36 129.27 251.67 C 131.05 254.82 132.94 257.91 134.73 261.06 C 135.65 263.22 138.05 263.88 139.75 265.26 C 140.44 266.41 140.92 267.68 141.46 268.92 C 140.05 269.91 138.89 272.01 136.90 271.57 C 134.90 271.30 132.95 270.79 130.99 270.32 C 128.65 269.85 127.58 267.42 125.69 266.20 C 122.19 265.13 117.17 266.53 115.84 262.02 C 116.71 259.58 117.72 257.13 119.55 255.24 C 120.02 258.01 120.36 262.61 124.30 262.23 C 123.84 261.13 123.16 260.20 122.26 259.43 C 121.98 256.66 121.00 254.06 120.05 251.48 C 121.54 246.15 123.41 240.91 124.26 235.42 C 121.07 229.15 127.57 223.80 130.35 218.72 C 131.05 218.78 132.44 218.89 133.14 218.94 C 130.33 215.58 125.39 214.16 121.26 215.70 C 120.90 212.32 119.15 209.38 115.83 208.22 C 116.78 209.91 117.85 211.53 118.97 213.11 C 119.09 218.46 117.90 223.64 115.87 228.56 C 115.35 227.88 114.83 227.21 114.32 226.54 C 108.99 234.56 105.70 244.31 106.03 253.99 C 108.46 250.49 107.63 245.88 109.20 242.00 C 109.92 237.51 112.43 233.68 113.85 229.44 C 114.25 229.19 115.04 228.70 115.43 228.45 C 114.44 232.50 113.79 236.63 112.68 240.64 C 110.84 244.95 107.52 249.01 107.93 253.95 C 108.26 256.92 108.29 259.97 109.05 262.88 C 111.03 267.06 113.61 270.94 116.46 274.57 C 117.47 275.91 118.02 278.96 115.82 279.39 C 110.11 280.15 103.45 280.38 99.15 275.88 C 97.82 271.90 99.09 267.84 100.40 264.05 C 99.50 263.20 97.50 262.64 98.05 261.00 C 98.26 258.20 100.40 255.97 100.59 253.17 C 100.98 248.15 100.92 243.11 100.88 238.08 C 100.63 231.59 105.69 226.79 107.41 220.85 C 102.66 219.74 97.63 223.25 93.18 220.58 C 94.54 217.50 95.93 214.44 97.15 211.30 C 97.65 211.10 98.65 210.70 99.15 210.51 C 102.72 211.75 106.27 213.15 110.00 213.86 C 111.51 213.63 112.14 212.09 112.95 211.00 C 111.84 211.51 110.74 212.05 109.66 212.62 C 106.45 210.67 102.72 210.07 99.09 209.40 C 102.48 205.46 108.13 204.16 113.01 205.72 C 113.53 206.97 113.93 208.28 114.49 209.53 C 114.65 208.09 114.80 206.65 114.93 205.21 C 109.77 201.53 102.90 202.53 98.05 206.23 C 98.33 204.52 98.59 202.81 98.77 201.09 C 100.10 200.65 101.43 200.22 102.78 199.82 L 103.00 201.79 C 103.03 201.38 103.08 200.58 103.11 200.18 M 128.77 205.10 C 129.07 208.30 129.87 212.45 133.52 213.39 C 136.62 214.68 142.85 213.70 141.88 209.15 C 139.05 209.21 137.03 212.29 134.02 211.93 C 131.85 210.02 130.97 207.03 128.77 205.10 M 122.03 206.80 C 123.33 209.00 124.97 210.97 126.63 212.89 C 126.69 212.58 126.79 211.94 126.84 211.63 C 125.38 209.88 124.12 207.86 122.03 206.80 M 111.52 214.86 C 111.60 217.02 110.96 220.08 113.52 221.05 C 113.39 218.84 112.97 216.61 111.52 214.86 M 98.82 217.23 C 101.02 217.40 103.21 217.59 105.40 217.79 C 106.43 218.27 107.48 218.72 108.53 219.16 C 106.57 215.70 102.04 216.32 98.82 217.23 M 137.37 216.19 C 137.02 217.69 136.45 219.34 137.38 220.76 C 140.10 221.07 140.21 214.64 137.37 216.19 M 125.91 243.78 C 127.57 242.44 128.90 240.75 129.83 238.83 C 131.50 235.46 133.63 231.87 132.80 227.95 C 130.64 233.29 128.36 238.56 125.91 243.78 M 126.06 253.67 C 126.78 257.40 128.14 261.01 130.27 264.16 C 130.43 260.21 128.57 256.61 126.06 253.67 M 100.81 262.22 C 103.54 261.43 105.13 259.06 106.39 256.68 C 103.63 256.84 99.96 258.99 100.81 262.22 M 101.97 274.55 C 104.81 277.25 109.22 275.47 112.61 277.13 C 111.00 272.61 105.48 275.69 101.97 274.55 Z" />
<path fill="#FFFFFF" opacity="1.00" d=" M 165.05 202.09 C 166.30 202.48 167.55 202.88 168.80 203.29 C 168.76 209.18 168.72 215.07 168.53 220.96 C 168.28 227.68 169.09 234.39 168.92 241.11 C 167.66 240.70 166.41 240.28 165.16 239.85 C 165.07 227.26 165.23 214.67 165.05 202.09 Z" />
<path fill="#FFFFFF" opacity="1.00" d=" M 170.31 203.49 C 171.54 203.15 172.77 202.81 174.00 202.49 C 174.13 215.00 173.93 227.52 173.96 240.03 C 173.17 240.26 171.58 240.72 170.79 240.95 C 169.89 228.48 170.43 215.97 170.31 203.49 Z" />
<path fill="#FFFFFF" opacity="1.00" d=" M 198.03 214.83 C 201.05 214.60 204.02 214.06 207.00 213.54 L 207.00 216.77 C 204.03 217.31 201.08 217.89 198.15 218.63 C 198.12 217.36 198.08 216.09 198.03 214.83 Z" />
<path fill="#FFFFFF" opacity="1.00" d=" M 120.53 217.07 C 123.57 216.70 126.61 216.89 129.57 217.65 C 125.62 221.15 123.20 225.94 121.22 230.74 C 119.64 231.23 118.06 231.72 116.46 232.16 C 117.07 226.86 121.53 222.67 120.53 217.07 Z" />
<path fill="#FFFFFF" opacity="1.00" d=" M 141.69 222.91 C 142.19 220.64 143.47 218.68 144.63 216.70 C 144.35 221.88 145.71 227.07 144.81 232.17 C 142.25 232.87 139.67 233.48 137.10 234.09 C 137.88 230.03 140.91 226.95 141.69 222.91 Z" />
<path fill="#FFFFFF" opacity="1.00" d=" M 176.44 222.56 C 175.39 221.56 176.40 218.68 178.00 219.78 C 179.27 220.75 177.98 223.55 176.44 222.56 Z" />
<path fill="#FFFFFF" opacity="1.00" d=" M 92.26 221.97 C 96.24 224.23 101.01 222.77 105.24 222.00 C 103.92 225.84 101.24 229.03 100.07 232.93 C 99.38 237.16 94.04 236.05 90.92 236.84 C 89.73 235.53 88.49 234.27 87.21 233.06 C 89.37 229.59 90.73 225.73 92.26 221.97 Z" />
<path fill="#FFFFFF" opacity="1.00" d=" M 62.21 223.54 C 63.42 223.17 64.64 222.81 65.85 222.45 C 65.90 234.32 65.81 246.19 65.87 258.06 C 66.44 260.27 64.05 260.43 62.61 261.10 C 61.81 248.60 62.31 236.06 62.21 223.54 Z" />
<path fill="#FFFFFF" opacity="1.00" d=" M 34.19 227.25 C 36.60 224.68 40.39 225.24 43.51 224.35 C 52.73 228.11 55.36 238.94 55.91 247.91 C 56.05 256.09 54.82 264.99 49.50 271.52 C 47.26 274.55 43.25 274.28 39.91 274.41 C 36.66 274.74 33.90 272.46 32.18 269.94 C 29.35 265.57 27.75 260.45 27.60 255.24 C 31.52 254.96 35.37 254.07 39.16 253.03 C 39.15 250.81 38.77 248.62 37.93 246.56 C 33.77 247.21 29.73 248.48 25.57 249.10 C 25.91 248.54 26.60 247.41 26.94 246.85 C 27.76 239.92 29.16 232.45 34.19 227.25 M 41.06 226.26 C 42.93 229.24 45.42 231.87 46.69 235.21 C 49.75 243.05 49.89 251.80 48.43 260.01 C 47.64 264.79 45.02 268.90 42.96 273.19 C 47.09 271.31 48.15 266.49 49.38 262.56 C 52.24 251.17 51.44 238.19 44.82 228.21 C 44.12 226.74 42.42 226.67 41.06 226.26 Z" />
<path fill="#FFFFFF" opacity="1.00" d=" M 147.46 227.30 C 152.76 226.23 158.02 224.94 163.39 224.28 C 163.15 226.21 161.25 226.37 159.83 226.80 C 155.93 227.59 152.05 228.51 148.14 229.24 C 147.97 228.75 147.63 227.78 147.46 227.30 Z" />
<path fill="#FFFFFF" opacity="1.00" d=" M 15.57 252.61 C 22.92 251.84 30.08 249.98 37.37 248.85 C 37.56 249.74 37.75 250.64 37.94 251.54 C 30.60 253.09 23.20 254.39 15.89 256.04 C 15.81 255.18 15.65 253.46 15.57 252.61 Z" />
</g>
<g id="#414140ff">
<path fill="#333333" opacity="1.00" d=" M 64.95 31.98 C 65.12 26.60 64.98 21.17 66.14 15.89 C 66.53 18.91 67.13 21.91 67.16 24.96 C 67.17 88.98 67.09 153.00 67.20 217.02 C 68.41 225.30 67.74 233.67 68.03 242.00 C 68.85 241.85 70.50 241.55 71.33 241.40 C 71.29 241.85 71.20 242.76 71.16 243.22 C 68.87 242.68 67.68 243.62 67.58 246.04 C 70.26 245.40 72.85 244.42 75.05 242.73 C 73.70 242.24 72.38 241.73 71.07 241.18 L 72.57 240.90 C 72.59 238.26 73.49 235.81 75.35 233.93 C 76.91 228.53 79.27 223.05 78.15 217.32 C 72.38 212.73 72.65 204.70 73.57 198.11 C 74.51 193.27 78.44 190.09 81.24 186.36 C 83.79 180.79 85.56 174.52 90.33 170.32 C 93.22 168.00 93.89 164.13 96.25 161.40 C 97.70 159.62 99.94 158.84 101.88 157.74 C 105.08 156.06 107.46 153.12 110.83 151.72 C 112.75 150.73 115.04 150.35 116.70 148.92 C 117.69 145.98 116.98 142.95 115.96 140.14 C 114.62 136.45 115.17 131.93 118.04 129.09 C 121.75 126.13 126.71 125.95 131.24 125.76 C 133.53 127.95 135.52 130.62 135.96 133.85 C 136.98 140.07 137.65 146.86 134.54 152.62 C 136.26 155.54 139.15 157.25 141.78 159.22 C 145.42 163.49 145.09 169.62 144.34 174.83 C 143.64 178.90 144.93 182.93 144.87 187.00 C 144.59 194.72 146.78 202.42 145.47 210.12 C 145.40 215.38 145.85 220.74 147.26 225.82 C 152.44 224.59 157.65 223.52 162.84 222.32 C 162.97 215.87 162.55 209.40 163.02 202.96 C 164.56 193.71 163.18 184.32 163.68 175.00 C 163.77 124.85 163.35 74.69 163.64 24.54 L 165.34 24.61 C 165.54 63.43 165.36 102.26 165.76 141.08 C 165.85 160.94 165.52 180.80 166.02 200.64 C 166.74 200.87 168.18 201.31 168.90 201.53 C 168.80 176.69 168.36 151.84 169.04 127.01 C 170.14 119.34 168.59 111.67 168.86 103.99 C 169.11 77.49 168.07 50.95 169.87 24.49 C 170.43 32.97 170.36 41.49 170.39 49.99 C 170.26 73.34 170.70 96.70 170.17 120.04 C 170.91 141.36 169.61 162.71 170.52 184.03 C 170.79 190.09 170.18 196.15 170.79 202.20 C 172.11 201.08 173.75 200.01 173.26 198.01 C 173.28 167.34 173.56 136.67 172.93 106.01 C 173.21 78.36 172.44 50.70 173.33 23.05 C 173.80 23.19 174.75 23.48 175.22 23.62 C 175.12 80.99 175.39 138.37 175.10 195.74 C 179.46 194.38 184.52 192.44 188.76 195.21 C 194.94 199.25 196.65 207.04 198.05 213.81 C 201.02 213.09 204.04 212.55 207.00 211.73 L 207.00 213.54 C 204.02 214.06 201.05 214.60 198.03 214.83 C 198.08 216.09 198.12 217.36 198.15 218.63 C 201.08 217.89 204.03 217.31 207.00 216.77 L 207.00 219.05 L 206.99 218.31 C 204.10 218.88 201.20 219.37 198.28 219.67 C 198.39 226.15 197.57 232.78 194.73 238.68 C 193.25 241.87 191.21 245.14 187.89 246.65 C 183.69 247.46 179.10 247.87 175.15 245.86 C 174.76 250.99 176.57 256.76 173.71 261.39 C 172.87 254.81 173.55 248.17 173.19 241.57 C 172.14 242.53 170.24 243.14 170.51 244.91 C 170.19 250.04 170.55 255.18 170.40 260.31 L 168.73 260.35 C 168.74 254.51 168.62 248.67 168.85 242.83 C 167.92 242.52 166.98 242.22 166.05 241.93 C 166.04 248.14 166.25 254.36 165.91 260.57 C 165.51 260.10 164.71 259.16 164.31 258.69 C 163.10 253.01 164.58 247.07 163.45 241.34 C 162.40 236.92 162.71 232.36 162.88 227.87 C 157.73 229.00 152.52 229.87 147.39 231.13 C 147.23 231.85 146.91 233.28 146.75 234.00 C 143.30 234.57 139.88 235.31 136.53 236.32 C 134.52 241.05 131.65 245.76 131.68 251.04 C 133.14 254.83 135.81 258.04 137.44 261.77 C 139.17 262.91 141.45 263.63 142.33 265.67 C 142.98 267.13 144.24 269.20 142.48 270.40 C 139.60 273.99 134.71 273.47 130.77 272.29 C 127.88 271.84 126.15 269.27 123.73 267.94 C 121.66 267.30 119.46 267.18 117.41 266.48 C 114.55 265.56 113.05 261.98 114.11 259.23 C 115.39 255.36 118.56 252.40 119.48 248.38 C 120.55 244.41 121.42 240.39 122.06 236.33 C 121.16 236.39 119.36 236.50 118.46 236.56 C 118.62 236.12 118.92 235.24 119.07 234.80 L 121.22 234.84 C 121.34 234.20 121.58 232.91 121.70 232.27 C 119.37 232.80 117.01 233.44 115.08 234.93 C 116.31 235.56 117.55 236.20 118.77 236.84 C 117.99 237.08 116.41 237.56 115.62 237.80 C 114.27 241.57 112.43 245.11 110.50 248.60 C 109.08 252.89 109.85 257.59 110.62 261.95 C 113.08 267.84 118.34 272.39 119.09 279.02 C 116.90 280.18 114.65 281.72 112.04 281.32 C 106.72 281.33 100.32 280.79 97.26 275.74 C 96.49 273.05 97.11 270.22 97.57 267.53 C 97.05 263.95 96.66 260.23 97.76 256.71 C 99.29 251.57 98.95 246.18 98.97 240.89 C 95.82 241.61 92.68 242.39 89.49 242.97 C 91.23 238.61 97.53 241.32 100.17 237.55 C 97.09 237.52 94.11 238.38 91.06 238.68 C 88.82 237.76 87.13 235.87 85.17 234.49 C 86.18 231.69 87.07 228.86 88.01 226.04 C 89.63 220.40 94.36 216.13 95.11 210.17 C 96.77 205.39 95.89 199.91 98.75 195.59 C 99.00 196.38 99.49 197.97 99.74 198.77 C 103.93 193.42 104.26 186.34 107.59 180.58 C 110.03 177.53 113.36 175.32 116.62 173.23 C 114.82 176.47 111.79 178.66 109.41 181.41 C 106.28 187.02 106.34 193.98 102.02 199.04 C 106.17 198.32 110.20 197.06 113.94 195.10 C 111.85 195.14 110.03 194.18 108.31 193.12 C 113.40 192.63 118.56 192.08 123.44 190.47 C 125.19 189.26 126.59 187.56 127.50 185.63 C 127.17 185.42 126.53 185.00 126.21 184.79 C 124.02 184.89 122.33 186.88 120.10 187.03 C 117.83 187.27 115.49 187.36 113.25 186.87 C 111.54 186.14 110.61 184.44 109.55 183.03 C 112.28 184.02 114.87 186.16 117.94 185.52 C 120.86 185.29 123.28 183.52 125.83 182.28 C 126.16 182.63 126.84 183.34 127.17 183.69 C 129.72 184.48 132.10 182.29 134.27 181.19 C 138.79 177.11 138.53 170.54 138.50 164.96 C 139.70 167.38 141.08 170.01 140.67 172.80 C 139.78 176.99 137.28 180.58 134.29 183.55 C 132.42 185.16 134.47 187.33 134.91 189.13 C 136.55 192.24 135.80 195.83 134.68 198.97 C 138.20 202.10 141.51 205.46 144.87 208.74 C 143.56 203.62 143.72 198.30 143.05 193.10 C 142.43 189.14 143.88 185.15 142.86 181.22 C 141.57 176.48 144.49 171.78 143.23 167.03 C 142.40 163.87 141.02 160.48 138.04 158.79 C 135.89 157.44 134.29 155.46 132.88 153.39 C 132.15 156.52 131.42 159.67 130.08 162.61 C 130.16 159.82 130.62 157.07 131.23 154.36 C 128.41 153.97 125.32 153.76 123.04 151.86 C 121.43 150.46 121.27 148.14 120.61 146.26 C 122.35 147.48 123.81 149.03 125.39 150.45 C 127.30 152.30 130.13 152.15 132.59 152.46 C 135.51 146.00 134.53 138.78 133.33 132.03 C 133.01 129.44 130.64 127.33 128.03 127.38 C 125.12 127.43 122.02 127.87 119.54 129.49 C 116.95 131.81 116.62 135.77 117.68 138.92 C 119.18 143.33 118.55 148.22 120.59 152.48 C 122.50 157.39 125.43 162.24 125.08 167.69 C 121.82 163.53 120.91 158.14 118.18 153.66 C 117.22 156.92 116.86 160.32 115.86 163.57 C 115.50 161.77 115.20 159.97 114.89 158.17 C 116.09 156.04 117.24 153.88 118.33 151.70 C 116.60 152.91 114.89 154.16 113.16 155.37 C 113.59 154.52 114.45 152.82 114.88 151.97 C 109.54 153.53 106.37 158.48 101.26 160.42 C 97.49 161.92 96.38 166.10 95.25 169.58 C 93.45 175.15 87.88 179.70 89.47 186.08 C 90.84 183.47 91.87 180.70 93.25 178.09 C 93.66 178.00 94.47 177.83 94.87 177.74 C 95.24 179.58 95.21 181.47 95.58 183.31 C 96.63 183.83 97.70 184.31 98.79 184.75 C 98.33 185.33 97.87 185.91 97.42 186.50 C 97.14 188.99 97.07 191.64 95.77 193.88 C 94.14 196.36 91.66 198.16 89.05 199.51 C 87.71 202.08 87.41 204.97 87.48 207.84 C 87.15 208.10 86.48 208.61 86.14 208.87 C 84.63 204.85 85.78 200.53 88.59 197.39 C 89.16 197.45 90.31 197.55 90.89 197.61 C 93.77 194.52 95.15 190.50 96.22 186.50 C 94.91 185.43 93.62 184.34 92.35 183.23 C 91.57 184.19 90.79 185.14 90.00 186.10 C 89.74 188.10 89.85 190.22 89.01 192.10 C 87.76 194.44 85.78 196.43 85.12 199.07 C 84.22 202.46 83.35 205.88 81.97 209.11 C 80.17 213.25 80.89 217.86 80.24 222.21 C 79.78 226.60 78.12 230.71 77.25 235.02 C 76.70 235.41 75.60 236.21 75.05 236.60 C 75.02 237.76 74.98 238.92 74.95 240.08 C 75.31 240.47 76.01 241.26 76.37 241.66 C 76.32 242.96 76.28 244.25 76.24 245.56 C 73.47 246.09 70.71 246.65 67.95 247.25 C 67.92 251.18 68.13 255.12 67.81 259.04 C 66.63 266.56 67.34 274.18 67.15 281.75 L 65.22 281.78 C 65.16 275.20 65.19 268.63 65.17 262.05 C 64.32 262.37 63.47 262.69 62.62 263.02 C 62.07 269.33 62.31 275.67 62.27 282.00 L 60.47 282.00 C 60.52 275.57 60.27 269.12 60.85 262.70 C 59.36 262.60 57.87 262.52 56.38 262.47 C 57.53 261.01 59.06 260.34 60.96 260.47 C 60.70 253.67 60.01 246.87 60.28 240.05 C 60.50 234.36 60.68 228.66 60.49 222.97 C 59.62 222.77 57.89 222.37 57.02 222.16 C 57.07 226.64 57.15 231.12 56.96 235.60 C 53.80 230.61 55.23 224.56 55.11 219.01 C 55.17 158.02 55.00 97.02 55.02 36.03 C 55.15 30.92 54.38 25.66 55.93 20.69 C 56.83 22.68 57.49 24.79 57.35 27.00 C 57.23 91.36 57.64 155.72 57.72 220.09 C 58.70 220.53 59.69 220.98 60.67 221.44 C 61.23 208.25 59.88 195.08 60.50 181.91 C 60.92 134.26 60.52 86.61 60.74 38.96 C 60.86 32.91 60.36 26.84 61.05 20.81 C 61.65 27.87 61.19 34.97 62.16 42.02 C 62.38 71.35 62.15 100.68 62.30 130.01 C 62.43 134.39 61.31 138.70 61.53 143.07 C 63.58 155.96 61.00 169.00 61.87 181.96 C 62.57 189.31 61.55 196.69 62.26 204.04 C 62.71 210.06 62.01 216.11 62.58 222.12 C 63.92 221.09 65.66 220.08 65.17 218.09 C 65.22 188.39 65.45 158.68 64.80 129.00 C 64.97 96.66 64.62 64.32 64.95 31.98 M 83.13 187.09 C 83.70 189.30 84.92 191.29 86.54 192.91 C 89.00 188.50 85.48 183.43 88.05 179.08 C 89.22 176.24 90.75 173.57 92.05 170.79 C 87.37 175.12 85.41 181.34 83.13 187.09 M 127.63 185.29 C 127.77 185.94 128.04 187.25 128.18 187.91 C 125.67 192.95 119.91 193.60 115.02 194.61 C 117.58 195.94 120.42 196.06 123.22 195.68 C 126.76 194.94 129.26 198.37 132.75 198.17 C 133.64 193.64 133.29 189.02 131.67 184.69 C 130.32 184.88 128.97 185.08 127.63 185.29 M 77.37 193.30 C 75.16 200.49 73.56 208.94 78.05 215.62 C 80.77 208.30 81.03 200.00 85.72 193.52 C 84.05 192.46 82.92 190.83 81.92 189.17 C 80.40 190.53 78.89 191.92 77.37 193.30 M 175.17 198.30 C 175.08 199.51 175.61 200.65 175.92 201.81 C 175.84 207.19 175.86 212.57 175.87 217.96 C 176.87 217.79 177.88 217.63 178.88 217.47 C 179.93 219.58 180.34 221.83 179.20 223.99 C 178.08 224.21 176.97 224.43 175.85 224.66 C 175.53 230.55 176.65 236.57 175.29 242.36 C 176.32 245.44 180.37 245.04 182.94 245.35 C 183.14 244.44 183.35 243.54 183.57 242.65 C 190.67 234.74 191.01 223.20 189.73 213.19 C 189.00 207.07 185.46 201.94 182.03 197.02 C 183.16 197.43 184.61 197.50 185.34 198.62 C 190.53 205.16 191.89 213.84 191.98 221.97 C 191.54 230.27 190.08 239.56 183.29 245.20 C 189.23 245.76 192.58 240.11 194.42 235.37 C 198.14 224.71 197.91 212.40 192.70 202.27 C 191.06 198.72 187.53 196.82 184.23 195.09 C 181.20 196.05 177.20 195.36 175.17 198.30 M 103.11 200.18 C 103.08 200.58 103.03 201.38 103.00 201.79 L 102.78 199.82 C 101.43 200.22 100.10 200.65 98.77 201.09 C 98.59 202.81 98.33 204.52 98.05 206.23 C 102.90 202.53 109.77 201.53 114.93 205.21 C 114.80 206.65 114.65 208.09 114.49 209.53 C 113.93 208.28 113.53 206.97 113.01 205.72 C 108.13 204.16 102.48 205.46 99.09 209.40 C 102.72 210.07 106.45 210.67 109.66 212.62 C 110.74 212.05 111.84 211.51 112.95 211.00 C 112.14 212.09 111.51 213.63 110.00 213.86 C 106.27 213.15 102.72 211.75 99.15 210.51 C 98.65 210.70 97.65 211.10 97.15 211.30 C 95.93 214.44 94.54 217.50 93.18 220.58 C 97.63 223.25 102.66 219.74 107.41 220.85 C 105.69 226.79 100.63 231.59 100.88 238.08 C 100.92 243.11 100.98 248.15 100.59 253.17 C 100.40 255.97 98.26 258.20 98.05 261.00 C 97.50 262.64 99.50 263.20 100.40 264.05 C 99.09 267.84 97.82 271.90 99.15 275.88 C 103.45 280.38 110.11 280.15 115.82 279.39 C 118.02 278.96 117.47 275.91 116.46 274.57 C 113.61 270.94 111.03 267.06 109.05 262.88 C 108.29 259.97 108.26 256.92 107.93 253.95 C 107.52 249.01 110.84 244.95 112.68 240.64 C 113.79 236.63 114.44 232.50 115.43 228.45 C 115.04 228.70 114.25 229.19 113.85 229.44 C 112.43 233.68 109.92 237.51 109.20 242.00 C 107.63 245.88 108.46 250.49 106.03 253.99 C 105.70 244.31 108.99 234.56 114.32 226.54 C 114.83 227.21 115.35 227.88 115.87 228.56 C 117.90 223.64 119.09 218.46 118.97 213.11 C 117.85 211.53 116.78 209.91 115.83 208.22 C 119.15 209.38 120.90 212.32 121.26 215.70 C 125.39 214.16 130.33 215.58 133.14 218.94 C 132.44 218.89 131.05 218.78 130.35 218.72 C 127.57 223.80 121.07 229.15 124.26 235.42 C 123.41 240.91 121.54 246.15 120.05 251.48 C 121.00 254.06 121.98 256.66 122.26 259.43 C 123.16 260.20 123.84 261.13 124.30 262.23 C 120.36 262.61 120.02 258.01 119.55 255.24 C 117.72 257.13 116.71 259.58 115.84 262.02 C 117.17 266.53 122.19 265.13 125.69 266.20 C 127.58 267.42 128.65 269.85 130.99 270.32 C 132.95 270.79 134.90 271.30 136.90 271.57 C 138.89 272.01 140.05 269.91 141.46 268.92 C 140.92 267.68 140.44 266.41 139.75 265.26 C 138.05 263.88 135.65 263.22 134.73 261.06 C 132.94 257.91 131.05 254.82 129.27 251.67 C 130.09 248.36 130.11 244.83 131.76 241.76 C 134.33 236.80 135.51 231.21 138.64 226.54 C 140.24 224.13 139.76 220.96 141.44 218.59 C 142.88 216.37 144.66 213.92 143.84 211.10 C 142.15 207.82 138.30 206.56 136.33 203.49 C 133.18 199.16 125.58 197.18 121.80 201.76 C 119.93 203.67 119.24 206.69 116.44 207.60 C 116.65 202.69 121.12 199.71 124.84 197.27 C 121.57 198.54 118.16 198.39 115.13 196.55 C 111.70 199.15 107.35 200.11 103.11 200.18 M 165.05 202.09 C 165.23 214.67 165.07 227.26 165.16 239.85 C 166.41 240.28 167.66 240.70 168.92 241.11 C 169.09 234.39 168.28 227.68 168.53 220.96 C 168.72 215.07 168.76 209.18 168.80 203.29 C 167.55 202.88 166.30 202.48 165.05 202.09 M 170.31 203.49 C 170.43 215.97 169.89 228.48 170.79 240.95 C 171.58 240.72 173.17 240.26 173.96 240.03 C 173.93 227.52 174.13 215.00 174.00 202.49 C 172.77 202.81 171.54 203.15 170.31 203.49 M 120.53 217.07 C 121.53 222.67 117.07 226.86 116.46 232.16 C 118.06 231.72 119.64 231.23 121.22 230.74 C 123.20 225.94 125.62 221.15 129.57 217.65 C 126.61 216.89 123.57 216.70 120.53 217.07 M 141.69 222.91 C 140.91 226.95 137.88 230.03 137.10 234.09 C 139.67 233.48 142.25 232.87 144.81 232.17 C 145.71 227.07 144.35 221.88 144.63 216.70 C 143.47 218.68 142.19 220.64 141.69 222.91 M 176.44 222.56 C 177.98 223.55 179.27 220.75 178.00 219.78 C 176.40 218.68 175.39 221.56 176.44 222.56 M 92.26 221.97 C 90.73 225.73 89.37 229.59 87.21 233.06 C 88.49 234.27 89.73 235.53 90.92 236.84 C 94.04 236.05 99.38 237.16 100.07 232.93 C 101.24 229.03 103.92 225.84 105.24 222.00 C 101.01 222.77 96.24 224.23 92.26 221.97 M 62.21 223.54 C 62.31 236.06 61.81 248.60 62.61 261.10 C 64.05 260.43 66.44 260.27 65.87 258.06 C 65.81 246.19 65.90 234.32 65.85 222.45 C 64.64 222.81 63.42 223.17 62.21 223.54 M 147.46 227.30 C 147.63 227.78 147.97 228.75 148.14 229.24 C 152.05 228.51 155.93 227.59 159.83 226.80 C 161.25 226.37 163.15 226.21 163.39 224.28 C 158.02 224.94 152.76 226.23 147.46 227.30 Z" />
<path fill="#333333" opacity="1.00" d=" M 103.51 159.73 C 106.09 160.98 108.07 163.08 109.98 165.16 C 111.52 164.86 113.05 164.54 114.60 164.29 C 113.32 166.35 110.95 166.99 108.67 167.17 C 107.18 164.52 104.34 162.75 103.51 159.73 Z" />
<path fill="#333333" opacity="1.00" d=" M 131.40 166.45 C 133.77 165.16 135.45 162.90 137.92 161.80 C 137.42 164.05 136.06 165.98 133.89 166.89 C 131.40 167.98 129.90 170.43 127.41 171.54 C 128.25 169.52 129.35 167.45 131.40 166.45 Z" />
<path fill="#333333" opacity="1.00" d=" M 115.12 165.35 C 118.46 166.34 121.74 167.59 124.87 169.12 C 124.93 169.56 125.07 170.46 125.13 170.91 C 121.61 169.65 116.99 168.97 115.12 165.35 Z" />
<path fill="#333333" opacity="1.00" d=" M 99.85 172.16 C 102.90 175.39 103.54 180.49 101.35 184.37 C 101.01 180.27 100.33 176.23 99.85 172.16 Z" />
<path fill="#333333" opacity="1.00" d=" M 128.77 205.10 C 130.97 207.03 131.85 210.02 134.02 211.93 C 137.03 212.29 139.05 209.21 141.88 209.15 C 142.85 213.70 136.62 214.68 133.52 213.39 C 129.87 212.45 129.07 208.30 128.77 205.10 Z" />
<path fill="#333333" opacity="1.00" d=" M 122.03 206.80 C 124.12 207.86 125.38 209.88 126.84 211.63 C 126.79 211.94 126.69 212.58 126.63 212.89 C 124.97 210.97 123.33 209.00 122.03 206.80 Z" />
<path fill="#333333" opacity="1.00" d=" M 111.52 214.86 C 112.97 216.61 113.39 218.84 113.52 221.05 C 110.96 220.08 111.60 217.02 111.52 214.86 Z" />
<path fill="#333333" opacity="1.00" d=" M 98.82 217.23 C 102.04 216.32 106.57 215.70 108.53 219.16 C 107.48 218.72 106.43 218.27 105.40 217.79 C 103.21 217.59 101.02 217.40 98.82 217.23 Z" />
<path fill="#333333" opacity="1.00" d=" M 137.37 216.19 C 140.21 214.64 140.10 221.07 137.38 220.76 C 136.45 219.34 137.02 217.69 137.37 216.19 Z" />
<path fill="#333333" opacity="1.00" d=" M 34.35 225.20 C 38.74 223.02 44.66 221.71 48.81 225.13 C 54.31 229.64 55.50 237.02 57.41 243.45 C 57.28 244.91 57.18 246.37 57.08 247.84 L 58.52 247.63 C 58.52 248.05 58.53 248.89 58.54 249.31 L 57.28 249.21 C 57.45 256.76 56.11 264.55 52.11 271.06 C 50.43 273.41 48.24 276.19 45.08 276.18 C 41.70 276.38 37.94 277.51 34.96 275.29 C 28.79 270.98 27.43 263.03 25.73 256.27 C 21.54 256.03 17.10 257.39 12.97 258.46 L 12.00 257.92 C 11.77 256.92 11.32 254.92 11.09 253.92 C 11.99 254.57 12.91 255.19 13.85 255.79 C 13.82 255.00 13.77 253.44 13.75 252.65 L 12.91 254.93 C 12.36 254.09 11.81 253.26 11.27 252.42 C 15.67 250.52 20.67 250.45 25.33 249.45 C 26.00 240.88 27.61 231.18 34.35 225.20 M 34.19 227.25 C 29.16 232.45 27.76 239.92 26.94 246.85 C 26.60 247.41 25.91 248.54 25.57 249.10 C 29.73 248.48 33.77 247.21 37.93 246.56 C 38.77 248.62 39.15 250.81 39.16 253.03 C 35.37 254.07 31.52 254.96 27.60 255.24 C 27.75 260.45 29.35 265.57 32.18 269.94 C 33.90 272.46 36.66 274.74 39.91 274.41 C 43.25 274.28 47.26 274.55 49.50 271.52 C 54.82 264.99 56.05 256.09 55.91 247.91 C 55.36 238.94 52.73 228.11 43.51 224.35 C 40.39 225.24 36.60 224.68 34.19 227.25 M 15.57 252.61 C 15.65 253.46 15.81 255.18 15.89 256.04 C 23.20 254.39 30.60 253.09 37.94 251.54 C 37.75 250.64 37.56 249.74 37.37 248.85 C 30.08 249.98 22.92 251.84 15.57 252.61 Z" />
<path fill="#333333" opacity="1.00" d=" M 41.06 226.26 C 42.42 226.67 44.12 226.74 44.82 228.21 C 51.44 238.19 52.24 251.17 49.38 262.56 C 48.15 266.49 47.09 271.31 42.96 273.19 C 45.02 268.90 47.64 264.79 48.43 260.01 C 49.89 251.80 49.75 243.05 46.69 235.21 C 45.42 231.87 42.93 229.24 41.06 226.26 Z" />
<path fill="#333333" opacity="1.00" d=" M 125.91 243.78 C 128.36 238.56 130.64 233.29 132.80 227.95 C 133.63 231.87 131.50 235.46 129.83 238.83 C 128.90 240.75 127.57 242.44 125.91 243.78 Z" />
<path fill="#333333" opacity="1.00" d=" M 88.35 240.19 C 88.72 240.33 89.46 240.63 89.83 240.78 C 89.51 243.14 88.95 245.46 88.49 247.80 C 85.00 250.12 80.24 250.69 76.74 248.06 C 79.67 247.34 82.68 246.98 85.61 246.29 C 87.13 244.63 87.36 242.17 88.35 240.19 Z" />
<path fill="#333333" opacity="1.00" d=" M 74.32 250.85 C 73.62 249.63 71.67 248.64 72.65 247.07 C 73.95 247.56 75.24 248.07 76.51 248.63 C 76.21 248.87 75.61 249.35 75.31 249.60 C 75.94 249.65 77.18 249.76 77.81 249.82 C 76.93 250.08 75.19 250.59 74.32 250.85 Z" />
<path fill="#333333" opacity="1.00" d=" M 126.06 253.67 C 128.57 256.61 130.43 260.21 130.27 264.16 C 128.14 261.01 126.78 257.40 126.06 253.67 Z" />
<path fill="#333333" opacity="1.00" d=" M 100.81 262.22 C 99.96 258.99 103.63 256.84 106.39 256.68 C 105.13 259.06 103.54 261.43 100.81 262.22 Z" />
<path fill="#333333" opacity="1.00" d=" M 55.67 281.39 C 55.55 275.21 53.98 268.14 57.62 262.66 C 58.29 269.11 58.15 275.61 57.77 282.07 C 57.24 281.90 56.20 281.56 55.67 281.39 Z" />
<path fill="#333333" opacity="1.00" d=" M 101.97 274.55 C 105.48 275.69 111.00 272.61 112.61 277.13 C 109.22 275.47 104.81 277.25 101.97 274.55 Z" />
</g>
</svg>
