<?xml version="1.0" encoding="UTF-8" ?>
<!DOCTYPE svg PUBLIC "-//W3C//DTD SVG 1.1//EN" "http://www.w3.org/Graphics/SVG/1.1/DTD/svg11.dtd">
<svg width="151pt" height="275pt" viewBox="0 0 151 275" version="1.1" xmlns="http://www.w3.org/2000/svg">
<g id="#ffffffff">
<path fill="#FFFFFF" opacity="1.00" d=" M 0.00 0.00 L 151.00 0.00 L 151.00 275.00 L 0.00 275.00 L 0.00 0.00 M 91.32 83.17 C 88.48 86.84 85.76 91.16 86.02 95.98 C 86.26 98.71 84.44 100.88 83.11 103.06 C 79.17 102.83 75.11 102.17 71.26 103.34 C 66.33 100.35 60.49 103.50 55.14 102.43 C 51.16 101.42 47.04 101.82 43.02 101.16 C 37.50 100.46 32.31 102.88 26.90 103.39 C 23.60 103.87 19.55 104.72 17.92 107.96 C 16.48 115.98 16.64 124.49 19.85 132.09 C 23.33 138.39 27.33 144.89 27.56 152.30 C 28.11 153.00 28.65 153.71 29.20 154.42 C 27.34 155.44 25.52 156.53 23.98 158.01 C 20.57 154.94 16.56 152.45 13.86 148.65 C 12.58 148.50 11.31 148.32 10.02 148.28 C 13.64 152.53 18.54 155.50 22.15 159.80 C 24.88 161.72 24.44 165.72 27.08 167.67 C 30.74 170.42 34.15 173.52 38.00 176.01 C 37.78 176.39 37.33 177.15 37.10 177.53 C 38.34 176.45 39.72 174.35 41.61 175.38 C 44.08 176.09 46.93 178.84 49.16 176.23 C 52.28 173.94 51.53 169.74 49.51 167.00 C 50.19 164.26 50.00 161.31 49.35 158.59 C 46.85 156.39 44.21 154.32 41.80 152.00 C 41.16 149.04 40.01 146.18 39.78 143.15 C 39.98 140.11 40.51 137.07 40.36 134.01 C 39.98 133.13 39.02 133.28 38.24 133.26 C 39.50 137.54 36.87 141.81 38.31 146.02 C 38.83 148.17 38.92 150.39 39.02 152.59 C 38.45 152.70 37.31 152.92 36.74 153.03 C 38.35 153.65 39.99 154.22 41.66 154.71 C 44.47 157.35 47.88 160.34 47.74 164.55 C 46.32 164.36 45.02 163.52 43.67 163.04 C 41.79 164.46 39.86 165.83 37.68 166.78 C 37.51 167.26 37.18 168.22 37.01 168.70 C 37.41 169.48 38.21 171.02 38.61 171.79 C 34.84 171.56 31.89 168.88 28.89 166.89 C 28.03 164.08 25.59 161.69 25.97 158.62 C 27.68 157.63 29.31 156.53 30.84 155.29 C 30.94 149.31 28.81 143.42 25.52 138.50 C 21.99 134.48 20.15 129.23 19.63 123.95 C 19.00 118.95 18.23 113.94 18.21 108.89 C 20.78 107.04 23.73 105.67 26.90 105.30 C 33.41 104.51 39.88 103.41 46.38 102.55 C 46.26 103.56 46.15 104.57 46.04 105.58 C 45.05 105.52 43.07 105.41 42.08 105.35 C 40.04 105.80 39.87 108.23 39.04 109.79 C 39.54 109.67 40.55 109.42 41.05 109.29 C 41.74 108.08 42.44 106.87 43.14 105.67 C 46.10 105.93 48.83 107.14 51.62 108.07 C 50.46 106.32 48.50 105.45 46.60 104.77 C 46.96 104.54 47.67 104.07 48.03 103.84 C 53.70 104.14 59.51 105.11 65.14 103.75 C 67.78 102.83 70.18 104.50 72.24 105.94 C 73.79 105.15 75.36 104.38 77.00 103.79 C 79.68 103.56 82.16 106.35 84.85 104.33 C 82.87 108.02 80.68 111.68 79.72 115.81 C 79.07 115.51 77.78 114.90 77.13 114.60 C 79.85 116.93 81.26 120.30 83.21 123.23 C 84.06 123.22 84.89 123.06 85.73 122.96 C 89.65 123.87 94.09 124.05 97.16 127.01 C 97.92 132.54 96.91 138.50 94.66 143.53 C 95.53 143.68 96.39 143.79 97.27 143.91 C 98.57 144.45 99.92 144.86 101.32 145.13 C 101.24 145.67 101.10 146.74 101.02 147.28 C 101.79 147.69 103.32 148.52 104.08 148.94 L 102.15 149.44 C 102.60 149.42 103.50 149.38 103.95 149.36 C 104.13 152.92 102.11 155.96 100.95 159.18 C 99.71 156.97 98.15 154.98 96.45 153.11 C 96.19 151.80 96.91 149.89 95.35 149.22 C 94.96 150.31 94.63 151.41 94.35 152.54 C 92.89 154.15 91.50 155.85 89.84 157.27 C 87.78 157.82 85.60 157.80 83.56 158.45 C 82.05 159.67 80.91 161.26 79.65 162.71 C 77.62 162.17 75.79 161.12 74.14 159.85 C 74.91 161.04 75.76 162.18 76.66 163.28 C 75.98 163.46 74.62 163.82 73.94 164.00 C 74.46 164.40 75.51 165.22 76.04 165.62 C 75.20 166.50 74.27 167.26 73.25 167.92 C 74.22 171.55 73.78 175.28 72.75 178.84 C 68.19 178.13 64.29 175.69 61.01 172.54 C 61.08 171.89 61.14 171.23 61.21 170.58 C 59.88 164.46 62.10 158.29 61.33 152.11 C 60.29 150.56 59.10 148.96 58.96 147.03 C 58.44 144.14 60.67 141.33 59.37 138.49 C 58.00 135.39 58.51 131.87 57.19 128.77 C 56.39 131.52 57.47 134.27 57.49 137.03 C 57.60 139.39 57.13 141.73 57.17 144.08 C 57.26 147.15 58.76 149.96 58.90 153.01 C 59.15 159.05 57.67 165.10 58.74 171.12 C 58.38 172.08 57.68 174.02 57.32 174.99 C 58.18 174.63 59.04 174.28 59.90 173.92 C 62.25 176.45 64.68 179.00 68.03 180.14 C 70.03 180.74 72.02 181.38 73.99 182.08 C 76.42 183.22 78.25 181.55 79.92 180.00 C 78.66 179.92 76.15 179.76 74.89 179.68 C 76.29 175.57 76.25 171.26 75.33 167.05 L 76.69 167.68 C 76.73 166.72 76.79 165.75 76.85 164.79 C 79.65 164.01 81.24 161.11 84.11 160.47 C 87.50 159.82 90.20 157.62 92.93 155.67 C 93.06 159.38 91.34 162.69 90.17 166.11 C 93.04 163.34 93.51 158.80 96.84 156.54 C 98.07 157.64 98.46 161.37 101.06 159.50 C 97.50 165.04 97.10 171.98 96.23 178.37 C 91.28 179.72 86.23 180.93 81.06 180.24 C 80.42 180.90 79.78 181.57 79.15 182.25 C 83.10 182.46 87.06 182.12 91.02 182.22 C 91.32 181.71 91.92 180.69 92.22 180.18 C 94.30 178.30 96.53 180.54 98.36 181.61 C 99.03 182.73 99.72 183.83 100.42 184.93 C 99.41 186.99 97.97 188.90 97.46 191.17 C 97.74 194.77 98.30 198.36 98.09 201.99 C 98.73 208.29 99.09 214.70 98.08 220.98 C 95.80 224.45 91.16 224.32 87.61 225.61 C 85.31 226.49 82.86 225.99 80.48 225.87 C 80.20 225.19 79.65 223.84 79.38 223.16 C 79.82 221.52 80.28 219.88 80.72 218.24 C 79.08 212.36 85.04 209.36 88.15 205.56 L 86.23 205.52 C 85.63 205.98 84.41 206.91 83.80 207.37 C 83.46 206.98 83.13 206.59 82.80 206.20 C 83.83 205.32 84.71 204.30 85.43 203.15 C 83.89 203.51 82.35 203.90 80.91 204.57 C 81.06 206.18 81.22 207.81 81.29 209.44 C 80.93 209.53 80.20 209.73 79.84 209.83 C 78.12 214.51 77.97 219.63 76.16 224.29 C 73.62 226.32 70.16 226.77 67.01 226.40 C 62.39 226.07 57.22 226.39 53.28 223.53 C 51.29 219.74 50.01 215.32 51.35 211.10 C 50.74 207.84 49.60 204.55 50.53 201.23 C 51.85 196.16 50.17 190.80 52.11 185.85 C 52.34 186.68 52.80 188.34 53.03 189.17 C 54.06 185.83 53.92 182.17 56.08 179.23 C 56.30 177.83 56.55 176.45 56.79 175.06 C 55.62 175.81 53.92 176.25 54.03 177.98 C 53.75 181.34 51.36 183.76 49.70 186.49 C 48.32 190.22 49.20 194.25 49.44 198.10 C 49.32 201.78 48.87 205.45 48.45 209.11 C 46.65 209.20 44.82 209.14 43.04 209.47 C 41.80 210.37 40.90 211.63 39.85 212.72 C 39.23 214.76 38.51 216.77 37.77 218.76 C 33.79 216.52 28.01 215.81 25.18 220.19 C 22.02 223.58 23.76 228.29 24.75 232.21 C 27.02 238.71 26.03 246.08 29.98 252.00 C 33.50 255.77 38.78 256.91 43.51 258.45 C 45.16 259.21 46.57 257.79 47.99 257.16 C 51.57 260.94 56.50 263.02 61.03 265.42 C 63.43 266.78 66.07 265.50 68.14 264.15 C 71.70 262.39 72.73 258.25 74.82 255.20 C 79.24 257.21 84.14 259.62 88.90 256.98 C 93.43 252.93 95.05 246.87 96.97 241.34 C 98.44 235.94 96.37 230.04 98.94 224.86 C 101.07 220.56 100.19 215.58 101.11 210.98 C 100.19 204.39 99.95 197.72 99.05 191.12 C 101.13 188.74 101.93 185.67 101.91 182.55 C 100.73 181.48 99.59 180.35 98.49 179.21 C 98.93 174.88 99.01 170.50 99.77 166.21 C 102.16 162.58 103.42 158.38 105.57 154.63 C 106.19 156.68 106.44 158.84 107.09 160.88 C 108.30 162.43 109.70 164.05 111.49 164.91 C 114.70 165.05 117.80 165.68 120.83 166.74 C 123.67 166.12 126.35 163.98 126.45 160.86 C 127.13 158.52 124.65 157.41 123.53 155.81 C 123.04 153.40 123.76 150.76 122.58 148.50 C 121.54 146.52 119.87 144.98 118.40 143.34 C 120.72 138.77 121.58 133.66 123.39 128.89 C 124.90 124.06 127.43 119.14 126.33 113.94 C 125.62 111.04 125.55 108.05 125.16 105.10 C 123.87 102.13 120.63 102.17 118.04 103.14 C 117.59 102.76 116.69 102.00 116.24 101.62 C 117.11 97.30 115.02 93.20 113.68 89.21 C 111.30 85.84 109.03 81.51 104.61 80.63 C 100.13 79.64 94.91 80.06 91.32 83.17 M 52.95 107.77 C 52.47 110.95 49.68 112.33 46.87 113.04 C 43.39 111.64 39.66 112.87 36.05 112.57 C 32.63 112.68 29.32 111.61 25.90 111.66 C 31.97 113.57 38.29 113.85 44.59 114.16 C 47.24 112.89 50.67 114.01 52.87 111.79 C 53.84 110.92 54.73 109.97 55.63 109.04 C 55.37 108.65 54.85 107.88 54.59 107.49 C 54.18 107.56 53.36 107.70 52.95 107.77 M 70.96 108.51 C 70.50 110.22 70.72 111.97 71.25 113.64 C 70.40 114.20 68.37 113.98 68.52 115.50 C 70.00 116.24 71.64 116.57 73.24 116.99 C 73.24 116.51 73.24 115.56 73.24 115.08 C 73.56 115.20 74.20 115.44 74.52 115.56 C 72.80 113.49 71.97 110.95 70.96 108.51 M 50.13 116.64 C 49.89 117.20 49.42 118.32 49.19 118.87 C 44.10 121.98 37.85 121.74 32.13 121.18 C 32.35 123.93 33.22 126.55 34.37 129.03 C 34.43 127.35 34.48 125.66 34.51 123.98 C 35.45 124.76 36.39 125.55 37.33 126.33 C 37.41 128.63 37.62 130.90 37.99 133.18 C 39.41 131.42 39.94 129.24 40.33 127.07 C 45.19 127.86 50.12 128.03 55.02 127.70 C 57.56 127.04 59.64 125.27 62.06 124.29 C 62.36 124.83 62.97 125.90 63.27 126.44 C 65.59 126.46 67.94 126.51 70.16 125.68 C 69.94 126.71 69.82 127.75 69.80 128.81 C 71.67 135.04 73.73 141.20 75.78 147.37 C 76.44 149.05 78.05 149.85 79.78 149.85 C 78.52 147.49 76.95 145.31 75.42 143.11 C 75.30 137.31 73.03 131.60 70.47 126.47 C 73.13 125.63 76.93 126.73 78.38 123.69 C 74.18 124.89 69.78 124.45 65.47 124.58 C 61.44 122.50 57.30 120.64 53.66 117.89 C 53.58 117.18 53.42 115.76 53.34 115.05 C 52.22 115.47 51.14 116.00 50.13 116.64 M 78.64 132.77 C 80.72 136.89 84.29 139.92 87.02 143.57 C 87.58 143.03 88.14 142.49 88.70 141.96 C 85.23 139.02 82.24 135.55 78.64 132.77 M 63.65 141.62 C 66.90 141.12 66.78 137.47 67.64 135.05 C 65.90 136.97 64.60 139.22 63.65 141.62 M 16.39 141.31 C 16.30 141.68 16.14 142.41 16.06 142.78 C 18.72 145.34 21.77 147.48 24.22 150.26 C 24.67 150.40 25.55 150.68 25.99 150.82 C 23.60 146.93 20.30 143.66 16.39 141.31 M 62.28 148.61 C 65.24 147.53 69.59 152.03 66.86 154.68 C 65.29 154.64 63.76 154.01 62.18 154.16 C 61.62 155.90 64.09 156.37 64.91 157.45 C 66.76 156.72 68.56 155.92 70.37 155.10 C 70.31 154.48 70.19 153.24 70.13 152.62 C 71.17 152.13 72.21 151.65 73.26 151.17 C 73.33 150.15 73.40 149.14 73.47 148.13 C 71.63 148.81 69.56 150.44 67.65 149.05 C 64.65 147.83 64.82 144.05 66.38 141.75 C 63.93 143.36 64.18 146.61 62.28 148.61 M 78.25 141.96 C 80.13 144.70 83.30 145.96 86.04 147.63 C 86.90 147.47 88.62 147.15 89.49 147.00 C 89.62 147.58 89.89 148.75 90.02 149.33 C 90.07 148.83 90.17 147.84 90.23 147.34 C 92.22 147.35 93.71 145.90 95.19 144.81 C 93.60 144.81 92.00 144.80 90.41 144.79 L 90.21 143.32 C 89.56 143.85 88.91 144.39 88.27 144.93 C 84.87 144.13 81.59 142.93 78.25 141.96 M 74.09 152.71 C 74.77 153.97 75.52 155.21 76.28 156.44 C 77.90 156.47 79.53 156.54 81.16 156.60 C 80.09 156.23 79.02 155.87 77.96 155.50 C 76.85 154.34 75.79 152.96 74.09 152.71 M 66.96 160.98 C 68.40 163.48 70.21 165.88 72.88 167.15 C 72.99 163.88 69.83 161.66 66.96 160.98 M 86.44 176.40 C 89.19 173.72 90.41 169.84 90.13 166.05 C 87.69 168.91 87.56 172.94 86.44 176.40 M 93.36 177.67 C 94.88 174.40 95.17 170.70 96.05 167.23 C 93.41 169.94 94.16 174.21 93.36 177.67 M 59.23 175.74 C 58.55 176.77 57.84 177.78 57.06 178.74 C 60.75 177.24 62.44 182.99 66.36 181.93 C 64.81 181.14 63.20 180.48 61.57 179.85 C 61.58 179.28 61.60 178.13 61.61 177.56 C 60.82 176.95 60.02 176.34 59.23 175.74 M 66.71 181.76 C 64.77 183.70 62.47 185.21 60.46 187.06 C 60.68 190.15 63.42 185.84 65.03 185.97 C 64.10 188.08 60.05 189.33 61.44 191.89 C 64.85 189.74 67.46 186.38 69.24 182.80 C 68.61 182.54 67.34 182.02 66.71 181.76 M 76.69 197.87 C 80.72 196.22 85.21 197.07 89.14 195.07 C 84.85 194.63 80.18 195.10 76.69 197.87 Z" />
<path fill="#FFFFFF" opacity="1.00" d=" M 91.23 85.11 C 93.08 82.14 96.90 82.12 100.00 81.81 C 105.51 81.34 108.66 86.57 112.16 89.88 C 116.62 95.35 113.97 102.66 111.33 108.34 C 109.03 112.09 106.71 116.02 103.08 118.65 C 97.96 118.77 95.39 114.00 92.79 110.40 C 91.54 107.67 92.65 104.55 92.43 101.66 C 90.70 104.84 88.96 109.22 91.34 112.51 C 92.70 114.74 94.19 116.98 96.16 118.73 C 98.67 119.74 101.40 120.02 104.04 120.57 C 106.19 118.88 108.46 117.23 109.89 114.84 C 111.99 112.01 113.81 109.00 115.57 105.96 C 115.46 105.14 115.23 103.52 115.11 102.70 C 117.82 106.57 119.72 112.28 116.32 116.32 C 112.61 121.86 113.46 128.80 111.16 134.84 C 109.84 137.74 108.10 140.48 105.91 142.81 C 105.16 143.90 104.27 144.89 103.10 145.55 C 103.33 144.93 103.79 143.67 104.02 143.04 C 101.75 144.03 99.50 143.49 97.45 142.29 C 97.90 138.63 100.20 134.76 98.96 131.15 C 97.78 129.23 98.19 126.78 97.24 124.77 C 95.46 123.28 93.15 122.56 90.86 123.11 C 87.68 121.56 84.49 120.05 81.26 118.64 C 81.07 118.01 80.69 116.76 80.50 116.13 C 83.26 113.12 84.01 108.94 86.77 105.95 C 86.01 105.27 85.25 104.60 84.52 103.90 C 85.66 101.88 87.08 100.03 88.20 98.00 C 87.94 93.56 88.10 88.62 91.23 85.11 M 89.00 111.20 C 89.45 113.76 90.14 116.27 90.86 118.77 C 91.08 118.78 91.53 118.80 91.76 118.81 C 91.15 116.24 90.44 113.70 89.97 111.10 L 89.00 111.20 M 100.19 133.84 C 101.55 134.26 103.00 132.14 102.53 130.89 C 101.14 130.33 99.77 132.62 100.19 133.84 Z" />
<path fill="#FFFFFF" opacity="1.00" d=" M 117.40 103.13 C 119.23 103.23 121.18 103.63 122.42 105.12 C 122.89 109.40 124.21 113.58 124.26 117.91 C 124.13 126.85 117.92 134.10 116.73 142.82 L 114.91 142.57 C 117.39 145.76 121.18 148.14 121.75 152.46 C 120.41 152.53 119.07 152.59 117.72 152.64 C 117.59 153.03 117.33 153.80 117.20 154.18 C 119.83 155.23 122.02 157.13 123.68 159.40 C 125.74 161.72 122.84 165.44 119.99 164.77 C 115.81 163.70 114.51 158.94 113.97 155.19 C 113.33 155.26 112.04 155.39 111.40 155.45 C 111.49 156.44 111.67 158.40 111.76 159.38 C 112.55 160.25 113.34 161.13 114.12 162.02 C 112.34 161.41 110.17 161.28 108.78 159.89 C 108.16 154.91 105.30 150.29 105.96 145.18 C 108.49 140.17 113.30 136.41 114.90 130.86 C 115.23 127.94 115.08 124.99 115.50 122.08 C 117.16 118.83 119.87 115.89 120.06 112.06 C 120.39 108.83 118.28 106.09 117.40 103.13 Z" />
<path fill="#FFFFFF" opacity="1.00" d=" M 38.17 123.83 C 42.67 122.95 47.97 121.49 50.49 117.33 C 52.48 120.06 55.19 122.07 57.96 123.95 C 55.92 124.65 53.95 125.53 52.07 126.59 C 48.90 126.21 45.65 126.26 42.63 125.10 C 41.14 124.69 39.65 124.27 38.17 123.83 Z" />
<path fill="#FFFFFF" opacity="1.00" d=" M 40.61 170.44 C 39.09 168.60 40.71 165.22 43.04 165.42 C 45.65 166.52 47.56 168.73 49.91 170.26 C 49.47 172.37 48.66 174.35 46.95 175.74 C 44.55 174.36 41.61 173.29 40.61 170.44 Z" />
<path fill="#FFFFFF" opacity="1.00" d=" M 39.96 219.10 C 39.98 214.31 43.89 211.03 48.07 209.56 C 48.81 213.90 48.09 218.55 50.15 222.59 C 52.31 230.52 51.47 238.83 52.01 246.94 C 53.11 250.10 55.06 252.99 55.23 256.43 L 56.92 256.43 C 57.12 252.74 54.57 249.86 53.77 246.44 C 53.61 239.75 53.04 233.04 53.82 226.37 C 56.95 226.88 59.98 227.89 63.09 228.46 C 67.59 228.64 72.07 227.82 76.56 227.67 C 76.76 237.24 75.37 246.85 72.41 255.96 C 69.49 257.04 70.20 261.05 67.53 262.41 C 65.66 263.39 63.43 263.86 61.33 263.69 C 57.39 261.46 53.63 258.75 50.31 255.66 C 49.17 252.11 47.80 248.61 46.89 245.00 C 46.52 238.34 45.54 231.75 44.59 225.16 C 44.14 223.44 43.32 221.84 42.69 220.20 C 42.01 219.92 40.64 219.37 39.96 219.10 Z" />
<path fill="#FFFFFF" opacity="1.00" d=" M 25.13 223.88 C 26.57 221.65 28.02 218.81 30.98 218.46 C 34.70 219.50 38.95 220.41 41.52 223.54 C 44.39 227.73 43.80 232.89 43.91 237.68 C 42.53 236.51 40.95 235.61 39.09 235.56 C 36.29 235.35 33.92 233.84 31.74 232.20 C 31.78 232.82 31.87 234.07 31.91 234.69 C 31.42 234.75 30.44 234.87 29.95 234.92 C 31.42 235.47 32.87 236.06 34.31 236.68 C 34.66 238.32 35.73 239.42 36.17 237.22 C 38.80 237.07 40.74 238.79 42.55 240.43 C 43.07 240.57 44.10 240.85 44.61 240.99 C 44.89 244.80 46.05 248.43 47.00 252.10 C 46.13 254.79 42.73 256.18 40.23 254.82 C 36.64 254.14 34.33 251.27 31.52 249.24 C 27.43 245.12 29.13 239.11 27.36 234.10 C 26.23 230.78 25.50 227.36 25.13 223.88 Z" />
<path fill="#FFFFFF" opacity="1.00" d=" M 93.43 226.97 C 94.53 226.00 95.74 225.17 97.07 224.55 C 96.80 225.77 96.51 227.00 96.21 228.22 C 97.10 231.86 95.60 235.48 94.86 239.02 C 93.67 243.06 93.78 247.64 90.99 251.03 C 89.56 252.84 88.65 255.68 86.03 255.98 C 82.24 257.44 78.99 254.44 75.52 253.41 C 76.24 251.18 76.96 248.94 77.50 246.65 C 78.12 244.11 77.08 241.48 77.80 238.95 C 78.65 235.26 79.06 231.49 79.51 227.74 C 84.15 228.26 88.85 227.87 93.43 226.97 Z" />
</g>
<g id="#383838ff">
<path fill="#333333" opacity="1.00" d=" M 91.32 83.17 C 94.91 80.06 100.13 79.64 104.61 80.63 C 109.03 81.51 111.30 85.84 113.68 89.21 C 115.02 93.20 117.11 97.30 116.24 101.62 C 116.69 102.00 117.59 102.76 118.04 103.14 C 120.63 102.17 123.87 102.13 125.16 105.10 C 125.55 108.05 125.62 111.04 126.33 113.94 C 127.43 119.14 124.90 124.06 123.39 128.89 C 121.58 133.66 120.72 138.77 118.40 143.34 C 119.87 144.98 121.54 146.52 122.58 148.50 C 123.76 150.76 123.04 153.40 123.53 155.81 C 124.65 157.41 127.13 158.52 126.45 160.86 C 126.35 163.98 123.67 166.12 120.83 166.74 C 117.80 165.68 114.70 165.05 111.49 164.91 C 109.70 164.05 108.30 162.43 107.09 160.88 C 106.44 158.84 106.19 156.68 105.57 154.63 C 103.42 158.38 102.16 162.58 99.77 166.21 C 99.01 170.50 98.93 174.88 98.49 179.21 C 99.59 180.35 100.73 181.48 101.91 182.55 C 101.93 185.67 101.13 188.74 99.05 191.12 C 99.95 197.72 100.19 204.39 101.11 210.98 C 100.19 215.58 101.07 220.56 98.94 224.86 C 96.37 230.04 98.44 235.94 96.97 241.34 C 95.05 246.87 93.43 252.93 88.90 256.98 C 84.14 259.62 79.24 257.21 74.82 255.20 C 72.73 258.25 71.70 262.39 68.14 264.15 C 66.07 265.50 63.43 266.78 61.03 265.42 C 56.50 263.02 51.57 260.94 47.99 257.16 C 46.57 257.79 45.16 259.21 43.51 258.45 C 38.78 256.91 33.50 255.77 29.98 252.00 C 26.03 246.08 27.02 238.71 24.75 232.21 C 23.76 228.29 22.02 223.58 25.18 220.19 C 28.01 215.81 33.79 216.52 37.77 218.76 C 38.51 216.77 39.23 214.76 39.85 212.72 C 40.90 211.63 41.80 210.37 43.04 209.47 C 44.82 209.14 46.65 209.20 48.45 209.11 C 48.87 205.45 49.32 201.78 49.44 198.10 C 49.20 194.25 48.32 190.22 49.70 186.49 C 51.36 183.76 53.75 181.34 54.03 177.98 C 53.92 176.25 55.62 175.81 56.79 175.06 C 56.55 176.45 56.30 177.83 56.08 179.23 C 53.92 182.17 54.06 185.83 53.03 189.17 C 52.80 188.34 52.34 186.68 52.11 185.85 C 50.17 190.80 51.85 196.16 50.53 201.23 C 49.60 204.55 50.74 207.84 51.35 211.10 C 50.01 215.32 51.29 219.74 53.28 223.53 C 57.22 226.39 62.39 226.07 67.01 226.40 C 70.16 226.77 73.62 226.32 76.16 224.29 C 77.97 219.63 78.12 214.51 79.84 209.83 C 80.20 209.73 80.93 209.53 81.29 209.44 C 81.22 207.81 81.06 206.18 80.91 204.57 C 82.35 203.90 83.89 203.51 85.43 203.15 C 84.71 204.30 83.83 205.32 82.80 206.20 C 83.13 206.59 83.46 206.98 83.80 207.37 C 84.41 206.91 85.63 205.98 86.23 205.52 L 88.15 205.56 C 85.04 209.36 79.08 212.36 80.72 218.24 C 80.28 219.88 79.82 221.52 79.38 223.16 C 79.65 223.84 80.20 225.19 80.48 225.87 C 82.86 225.99 85.31 226.49 87.61 225.61 C 91.16 224.32 95.80 224.45 98.08 220.98 C 99.09 214.70 98.73 208.29 98.09 201.99 C 98.30 198.36 97.74 194.77 97.46 191.17 C 97.97 188.90 99.41 186.99 100.42 184.93 C 99.72 183.83 99.03 182.73 98.36 181.61 C 96.53 180.54 94.30 178.30 92.22 180.18 C 91.92 180.69 91.32 181.71 91.02 182.22 C 87.06 182.12 83.10 182.46 79.15 182.25 C 79.78 181.57 80.42 180.90 81.06 180.24 C 86.23 180.93 91.28 179.72 96.23 178.37 C 97.10 171.98 97.50 165.04 101.06 159.50 C 98.46 161.37 98.07 157.64 96.84 156.54 C 93.51 158.80 93.04 163.34 90.17 166.11 C 91.34 162.69 93.06 159.38 92.93 155.67 C 90.20 157.62 87.50 159.82 84.11 160.47 C 81.24 161.11 79.65 164.01 76.85 164.79 C 76.79 165.75 76.73 166.72 76.69 167.68 L 75.33 167.05 C 76.25 171.26 76.29 175.57 74.89 179.68 C 76.15 179.76 78.66 179.92 79.92 180.00 C 78.25 181.55 76.42 183.22 73.99 182.08 C 72.02 181.38 70.03 180.74 68.03 180.14 C 64.68 179.00 62.25 176.45 59.90 173.92 C 59.04 174.28 58.18 174.63 57.32 174.99 C 57.68 174.02 58.38 172.08 58.74 171.12 C 57.67 165.10 59.15 159.05 58.90 153.01 C 58.76 149.96 57.26 147.15 57.17 144.08 C 57.13 141.73 57.60 139.39 57.49 137.03 C 57.47 134.27 56.39 131.52 57.19 128.77 C 58.51 131.87 58.00 135.39 59.37 138.49 C 60.67 141.33 58.44 144.14 58.96 147.03 C 59.10 148.96 60.29 150.56 61.33 152.11 C 62.10 158.29 59.88 164.46 61.21 170.58 C 61.14 171.23 61.08 171.89 61.01 172.54 C 64.29 175.69 68.19 178.13 72.75 178.84 C 73.78 175.28 74.22 171.55 73.25 167.92 C 74.27 167.26 75.20 166.50 76.04 165.62 C 75.51 165.22 74.46 164.40 73.94 164.00 C 74.62 163.82 75.98 163.46 76.66 163.28 C 75.76 162.18 74.91 161.04 74.14 159.85 C 75.79 161.12 77.62 162.17 79.65 162.71 C 80.91 161.26 82.05 159.67 83.56 158.45 C 85.60 157.80 87.78 157.82 89.84 157.27 C 91.50 155.85 92.89 154.15 94.35 152.54 C 94.63 151.41 94.96 150.31 95.35 149.22 C 96.91 149.89 96.19 151.80 96.45 153.11 C 98.15 154.98 99.71 156.97 100.95 159.18 C 102.11 155.96 104.13 152.92 103.95 149.36 C 103.50 149.38 102.60 149.42 102.15 149.44 L 104.08 148.94 C 103.32 148.52 101.79 147.69 101.02 147.28 C 101.10 146.74 101.24 145.67 101.32 145.13 C 99.92 144.86 98.57 144.45 97.27 143.91 C 96.39 143.79 95.53 143.68 94.66 143.53 C 96.91 138.50 97.92 132.54 97.16 127.01 C 94.09 124.05 89.65 123.87 85.73 122.96 C 84.89 123.06 84.06 123.22 83.21 123.23 C 81.26 120.30 79.85 116.93 77.13 114.60 C 77.78 114.90 79.07 115.51 79.72 115.81 C 80.68 111.68 82.87 108.02 84.85 104.33 C 82.16 106.35 79.68 103.56 77.00 103.79 C 75.36 104.38 73.79 105.15 72.24 105.94 C 70.18 104.50 67.78 102.83 65.14 103.75 C 59.51 105.11 53.70 104.14 48.03 103.84 C 47.67 104.07 46.96 104.54 46.60 104.77 C 48.50 105.45 50.46 106.32 51.62 108.07 C 48.83 107.14 46.10 105.93 43.14 105.67 C 42.44 106.87 41.74 108.08 41.05 109.29 C 40.55 109.42 39.54 109.67 39.04 109.79 C 39.87 108.23 40.04 105.80 42.08 105.35 C 43.07 105.41 45.05 105.52 46.04 105.58 C 46.15 104.57 46.26 103.56 46.38 102.55 C 39.88 103.41 33.41 104.51 26.90 105.30 C 23.73 105.67 20.78 107.04 18.21 108.89 C 18.23 113.94 19.00 118.95 19.63 123.95 C 20.15 129.23 21.99 134.48 25.52 138.50 C 28.81 143.42 30.94 149.31 30.84 155.29 C 29.31 156.53 27.68 157.63 25.97 158.62 C 25.59 161.69 28.03 164.08 28.89 166.89 C 31.89 168.88 34.84 171.56 38.61 171.79 C 38.21 171.02 37.41 169.48 37.01 168.70 C 37.18 168.22 37.51 167.26 37.68 166.78 C 39.86 165.83 41.79 164.46 43.67 163.04 C 45.02 163.52 46.32 164.36 47.74 164.55 C 47.88 160.34 44.47 157.35 41.66 154.71 C 39.99 154.22 38.35 153.65 36.74 153.03 C 37.31 152.92 38.45 152.70 39.02 152.59 C 38.92 150.39 38.83 148.17 38.31 146.02 C 36.87 141.81 39.50 137.54 38.24 133.26 C 39.02 133.28 39.98 133.13 40.36 134.01 C 40.51 137.07 39.98 140.11 39.78 143.15 C 40.01 146.18 41.16 149.04 41.80 152.00 C 44.21 154.32 46.85 156.39 49.35 158.59 C 50.00 161.31 50.19 164.26 49.51 167.00 C 51.53 169.74 52.28 173.94 49.16 176.23 C 46.93 178.84 44.08 176.09 41.61 175.38 C 39.72 174.35 38.34 176.45 37.10 177.53 C 37.33 177.15 37.78 176.39 38.00 176.01 C 34.15 173.52 30.74 170.42 27.08 167.67 C 24.44 165.72 24.88 161.72 22.15 159.80 C 18.54 155.50 13.64 152.53 10.02 148.28 C 11.31 148.32 12.58 148.50 13.86 148.65 C 16.56 152.45 20.57 154.94 23.98 158.01 C 25.52 156.53 27.34 155.44 29.20 154.42 C 28.65 153.71 28.11 153.00 27.56 152.30 C 27.33 144.89 23.33 138.39 19.85 132.09 C 16.64 124.49 16.48 115.98 17.92 107.96 C 19.55 104.72 23.60 103.87 26.90 103.39 C 32.31 102.88 37.50 100.46 43.02 101.16 C 47.04 101.82 51.16 101.42 55.14 102.43 C 60.49 103.50 66.33 100.35 71.26 103.34 C 75.11 102.17 79.17 102.83 83.11 103.06 C 84.44 100.88 86.26 98.71 86.02 95.98 C 85.76 91.16 88.48 86.84 91.32 83.17 M 91.23 85.11 C 88.10 88.62 87.94 93.56 88.20 98.00 C 87.08 100.03 85.66 101.88 84.52 103.90 C 85.25 104.60 86.01 105.27 86.77 105.95 C 84.01 108.94 83.26 113.12 80.50 116.13 C 80.69 116.76 81.07 118.01 81.26 118.64 C 84.49 120.05 87.68 121.56 90.86 123.11 C 93.15 122.56 95.46 123.28 97.24 124.77 C 98.19 126.78 97.78 129.23 98.96 131.15 C 100.20 134.76 97.90 138.63 97.45 142.29 C 99.50 143.49 101.75 144.03 104.02 143.04 C 103.79 143.67 103.33 144.93 103.10 145.55 C 104.27 144.89 105.16 143.90 105.91 142.81 C 108.10 140.48 109.84 137.74 111.16 134.84 C 113.46 128.80 112.61 121.86 116.32 116.32 C 119.72 112.28 117.82 106.57 115.11 102.70 C 115.23 103.52 115.46 105.14 115.57 105.96 C 113.81 109.00 111.99 112.01 109.89 114.84 C 108.46 117.23 106.19 118.88 104.04 120.57 C 101.40 120.02 98.67 119.74 96.16 118.73 C 94.19 116.98 92.70 114.74 91.34 112.51 C 88.96 109.22 90.70 104.84 92.43 101.66 C 92.65 104.55 91.54 107.67 92.79 110.40 C 95.39 114.00 97.96 118.77 103.08 118.65 C 106.71 116.02 109.03 112.09 111.33 108.34 C 113.97 102.66 116.62 95.35 112.16 89.88 C 108.66 86.57 105.51 81.34 100.00 81.81 C 96.90 82.12 93.08 82.14 91.23 85.11 M 117.40 103.13 C 118.28 106.09 120.39 108.83 120.06 112.06 C 119.87 115.89 117.16 118.83 115.50 122.08 C 115.08 124.99 115.23 127.94 114.90 130.86 C 113.30 136.41 108.49 140.17 105.96 145.18 C 105.30 150.29 108.16 154.91 108.78 159.89 C 110.17 161.28 112.34 161.41 114.12 162.02 C 113.34 161.13 112.55 160.25 111.76 159.38 C 111.67 158.40 111.49 156.44 111.40 155.45 C 112.04 155.39 113.33 155.26 113.97 155.19 C 114.51 158.94 115.81 163.70 119.99 164.77 C 122.84 165.44 125.74 161.72 123.68 159.40 C 122.02 157.13 119.83 155.23 117.20 154.18 C 117.33 153.80 117.59 153.03 117.72 152.64 C 119.07 152.59 120.41 152.53 121.75 152.46 C 121.18 148.14 117.39 145.76 114.91 142.57 L 116.73 142.82 C 117.92 134.10 124.13 126.85 124.26 117.91 C 124.21 113.58 122.89 109.40 122.42 105.12 C 121.18 103.63 119.23 103.23 117.40 103.13 M 40.61 170.44 C 41.61 173.29 44.55 174.36 46.95 175.74 C 48.66 174.35 49.47 172.37 49.91 170.26 C 47.56 168.73 45.65 166.52 43.04 165.42 C 40.71 165.22 39.09 168.60 40.61 170.44 M 39.96 219.10 C 40.64 219.37 42.01 219.92 42.69 220.20 C 43.32 221.84 44.14 223.44 44.59 225.16 C 45.54 231.75 46.52 238.34 46.89 245.00 C 47.80 248.61 49.17 252.11 50.31 255.66 C 53.63 258.75 57.39 261.46 61.33 263.69 C 63.43 263.86 65.66 263.39 67.53 262.41 C 70.20 261.05 69.49 257.04 72.41 255.96 C 75.37 246.85 76.76 237.24 76.56 227.67 C 72.07 227.82 67.59 228.64 63.09 228.46 C 59.98 227.89 56.95 226.88 53.82 226.37 C 53.04 233.04 53.61 239.75 53.77 246.44 C 54.57 249.86 57.12 252.74 56.92 256.43 L 55.23 256.43 C 55.06 252.99 53.11 250.10 52.01 246.94 C 51.47 238.83 52.31 230.52 50.15 222.59 C 48.09 218.55 48.81 213.90 48.07 209.56 C 43.89 211.03 39.98 214.31 39.96 219.10 M 25.13 223.88 C 25.50 227.36 26.23 230.78 27.36 234.10 C 29.13 239.11 27.43 245.12 31.52 249.24 C 34.33 251.27 36.64 254.14 40.23 254.82 C 42.73 256.18 46.13 254.79 47.00 252.10 C 46.05 248.43 44.89 244.80 44.61 240.99 C 44.10 240.85 43.07 240.57 42.55 240.43 C 40.74 238.79 38.80 237.07 36.17 237.22 C 35.73 239.42 34.66 238.32 34.31 236.68 C 32.87 236.06 31.42 235.47 29.95 234.92 C 30.44 234.87 31.42 234.75 31.91 234.69 C 31.87 234.07 31.78 232.82 31.74 232.20 C 33.92 233.84 36.29 235.35 39.09 235.56 C 40.95 235.61 42.53 236.51 43.91 237.68 C 43.80 232.89 44.39 227.73 41.52 223.54 C 38.95 220.41 34.70 219.50 30.98 218.46 C 28.02 218.81 26.57 221.65 25.13 223.88 M 93.43 226.97 C 88.85 227.87 84.15 228.26 79.51 227.74 C 79.06 231.49 78.65 235.26 77.80 238.95 C 77.08 241.48 78.12 244.11 77.50 246.65 C 76.96 248.94 76.24 251.18 75.52 253.41 C 78.99 254.44 82.24 257.44 86.03 255.98 C 88.65 255.68 89.56 252.84 90.99 251.03 C 93.78 247.64 93.67 243.06 94.86 239.02 C 95.60 235.48 97.10 231.86 96.21 228.22 C 96.51 227.00 96.80 225.77 97.07 224.55 C 95.74 225.17 94.53 226.00 93.43 226.97 Z" />
<path fill="#333333" opacity="1.00" d=" M 52.95 107.77 C 53.36 107.70 54.18 107.56 54.59 107.49 C 54.85 107.88 55.37 108.65 55.63 109.04 C 54.73 109.97 53.84 110.92 52.87 111.79 C 50.67 114.01 47.24 112.89 44.59 114.16 C 38.29 113.85 31.97 113.57 25.90 111.66 C 29.32 111.61 32.63 112.68 36.05 112.57 C 39.66 112.87 43.39 111.64 46.87 113.04 C 49.68 112.33 52.47 110.95 52.95 107.77 Z" />
<path fill="#333333" opacity="1.00" d=" M 70.96 108.51 C 71.97 110.95 72.80 113.49 74.52 115.56 C 74.20 115.44 73.56 115.20 73.24 115.08 C 73.24 115.56 73.24 116.51 73.24 116.99 C 71.64 116.57 70.00 116.24 68.52 115.50 C 68.37 113.98 70.40 114.20 71.25 113.64 C 70.72 111.97 70.50 110.22 70.96 108.51 Z" />
<path fill="#333333" opacity="1.00" d=" M 89.00 111.20 L 89.97 111.10 C 90.44 113.70 91.15 116.24 91.76 118.81 C 91.53 118.80 91.08 118.78 90.86 118.77 C 90.14 116.27 89.45 113.76 89.00 111.20 Z" />
<path fill="#333333" opacity="1.00" d=" M 50.13 116.64 C 51.14 116.00 52.22 115.47 53.34 115.05 C 53.42 115.76 53.58 117.18 53.66 117.89 C 57.30 120.64 61.44 122.50 65.47 124.58 C 69.78 124.45 74.18 124.89 78.38 123.69 C 76.93 126.73 73.13 125.63 70.47 126.47 C 73.03 131.60 75.30 137.31 75.42 143.11 C 76.95 145.31 78.52 147.49 79.78 149.85 C 78.05 149.85 76.44 149.05 75.78 147.37 C 73.73 141.20 71.67 135.04 69.80 128.81 C 69.82 127.75 69.94 126.71 70.16 125.68 C 67.94 126.51 65.59 126.46 63.27 126.44 C 62.97 125.90 62.36 124.83 62.06 124.29 C 59.64 125.27 57.56 127.04 55.02 127.70 C 50.12 128.03 45.19 127.86 40.33 127.07 C 39.94 129.24 39.41 131.42 37.99 133.18 C 37.62 130.90 37.41 128.63 37.33 126.33 C 36.39 125.55 35.45 124.76 34.51 123.98 C 34.48 125.66 34.43 127.35 34.37 129.03 C 33.22 126.55 32.35 123.93 32.13 121.18 C 37.85 121.74 44.10 121.98 49.19 118.87 C 49.42 118.32 49.89 117.20 50.13 116.64 M 38.17 123.83 C 39.65 124.27 41.14 124.69 42.63 125.10 C 45.65 126.26 48.90 126.21 52.07 126.59 C 53.95 125.53 55.92 124.65 57.96 123.95 C 55.19 122.07 52.48 120.06 50.49 117.33 C 47.97 121.49 42.67 122.95 38.17 123.83 Z" />
<path fill="#333333" opacity="1.00" d=" M 100.19 133.84 C 99.77 132.62 101.14 130.33 102.53 130.89 C 103.00 132.14 101.55 134.26 100.19 133.84 Z" />
<path fill="#333333" opacity="1.00" d=" M 78.64 132.77 C 82.24 135.55 85.23 139.02 88.70 141.96 C 88.14 142.49 87.58 143.03 87.02 143.57 C 84.29 139.92 80.72 136.89 78.64 132.77 Z" />
<path fill="#333333" opacity="1.00" d=" M 63.65 141.62 C 64.60 139.22 65.90 136.97 67.64 135.05 C 66.78 137.47 66.90 141.12 63.65 141.62 Z" />
<path fill="#333333" opacity="1.00" d=" M 16.39 141.31 C 20.30 143.66 23.60 146.93 25.99 150.82 C 25.55 150.68 24.67 150.40 24.22 150.26 C 21.77 147.48 18.72 145.34 16.06 142.78 C 16.14 142.41 16.30 141.68 16.39 141.31 Z" />
<path fill="#333333" opacity="1.00" d=" M 62.28 148.61 C 64.18 146.61 63.93 143.36 66.38 141.75 C 64.82 144.05 64.65 147.83 67.65 149.05 C 69.56 150.44 71.63 148.81 73.47 148.13 C 73.40 149.14 73.33 150.15 73.26 151.17 C 72.21 151.65 71.17 152.13 70.13 152.62 C 70.19 153.24 70.31 154.48 70.37 155.10 C 68.56 155.92 66.76 156.72 64.91 157.45 C 64.09 156.37 61.62 155.90 62.18 154.16 C 63.76 154.01 65.29 154.64 66.86 154.68 C 69.59 152.03 65.24 147.53 62.28 148.61 Z" />
<path fill="#333333" opacity="1.00" d=" M 78.25 141.96 C 81.59 142.93 84.87 144.13 88.27 144.93 C 88.91 144.39 89.56 143.85 90.21 143.32 L 90.41 144.79 C 92.00 144.80 93.60 144.81 95.19 144.81 C 93.71 145.90 92.22 147.35 90.23 147.34 C 90.17 147.84 90.07 148.83 90.02 149.33 C 89.89 148.75 89.62 147.58 89.49 147.00 C 88.62 147.15 86.90 147.47 86.04 147.63 C 83.30 145.96 80.13 144.70 78.25 141.96 Z" />
<path fill="#333333" opacity="1.00" d=" M 74.09 152.71 C 75.79 152.96 76.85 154.34 77.96 155.50 C 79.02 155.87 80.09 156.23 81.16 156.60 C 79.53 156.54 77.90 156.47 76.28 156.44 C 75.52 155.21 74.77 153.97 74.09 152.71 Z" />
<path fill="#333333" opacity="1.00" d=" M 66.96 160.98 C 69.83 161.66 72.99 163.88 72.88 167.15 C 70.21 165.88 68.40 163.48 66.96 160.98 Z" />
<path fill="#333333" opacity="1.00" d=" M 86.44 176.40 C 87.56 172.94 87.69 168.91 90.13 166.05 C 90.41 169.84 89.19 173.72 86.44 176.40 Z" />
<path fill="#333333" opacity="1.00" d=" M 93.36 177.67 C 94.16 174.21 93.41 169.94 96.05 167.23 C 95.17 170.70 94.88 174.40 93.36 177.67 Z" />
<path fill="#333333" opacity="1.00" d=" M 59.23 175.74 C 60.02 176.34 60.82 176.95 61.61 177.56 C 61.60 178.13 61.58 179.28 61.57 179.85 C 63.20 180.48 64.81 181.14 66.36 181.93 C 62.44 182.99 60.75 177.24 57.06 178.74 C 57.84 177.78 58.55 176.77 59.23 175.74 Z" />
<path fill="#333333" opacity="1.00" d=" M 66.71 181.76 C 67.34 182.02 68.61 182.54 69.24 182.80 C 67.46 186.38 64.85 189.74 61.44 191.89 C 60.05 189.33 64.10 188.08 65.03 185.97 C 63.42 185.84 60.68 190.15 60.46 187.06 C 62.47 185.21 64.77 183.70 66.71 181.76 Z" />
<path fill="#333333" opacity="1.00" d=" M 76.69 197.87 C 80.18 195.10 84.85 194.63 89.14 195.07 C 85.21 197.07 80.72 196.22 76.69 197.87 Z" />
</g>
</svg>
