<?xml version="1.0" encoding="UTF-8" ?>
<!DOCTYPE svg PUBLIC "-//W3C//DTD SVG 1.1//EN" "http://www.w3.org/Graphics/SVG/1.1/DTD/svg11.dtd">
<svg width="263pt" height="275pt" viewBox="0 0 263 275" version="1.1" xmlns="http://www.w3.org/2000/svg">
<g id="#ffffffff">
<path fill="#FFFFFF" opacity="1.00" d=" M 0.00 0.00 L 263.00 0.00 L 263.00 275.00 L 0.00 275.00 L 0.00 161.67 C 7.17 153.48 13.40 144.54 20.07 135.95 C 22.96 137.28 25.75 139.01 28.92 139.56 C 34.95 139.45 40.72 137.27 46.03 134.56 C 50.60 137.63 55.65 139.94 60.67 142.18 C 65.65 144.55 71.19 142.99 76.45 143.36 C 79.36 141.35 82.10 139.12 84.69 136.73 C 87.69 133.86 91.95 132.84 94.89 129.91 C 96.98 127.92 98.71 125.61 100.38 123.27 C 101.30 124.06 102.23 124.86 103.15 125.66 C 102.81 126.04 102.14 126.80 101.81 127.18 C 102.02 141.77 103.75 156.27 104.56 170.81 C 96.53 175.28 88.17 179.11 80.28 183.83 C 80.86 187.37 79.39 191.81 82.29 194.58 C 84.01 196.50 86.34 197.69 88.58 198.88 C 95.71 194.61 103.72 191.35 109.26 184.92 C 101.90 187.35 95.96 192.76 88.88 195.86 C 86.75 195.78 85.07 193.86 83.55 192.50 C 82.41 190.26 82.58 187.61 82.21 185.17 C 90.83 181.30 98.89 176.29 107.18 171.78 C 106.66 162.50 105.09 153.33 104.32 144.08 C 104.17 138.05 103.60 132.05 103.17 126.04 C 107.09 127.71 111.07 129.26 115.15 130.48 C 122.95 132.22 126.59 140.19 132.49 144.79 C 131.70 137.90 126.86 131.53 120.54 128.70 C 113.66 126.59 106.81 124.36 100.43 120.98 C 101.15 117.24 102.78 113.36 101.34 109.57 C 98.67 115.23 98.22 122.04 93.75 126.74 C 92.20 128.62 90.01 129.73 87.96 130.97 C 83.79 133.44 80.30 136.85 76.53 139.86 C 71.05 140.29 65.16 141.59 60.02 138.93 C 55.97 136.90 51.82 135.14 47.50 133.78 C 48.40 132.46 49.30 131.13 50.18 129.80 C 51.59 128.52 52.95 127.18 54.29 125.83 C 58.10 127.01 62.04 127.81 66.04 127.24 C 70.47 126.80 74.28 129.32 78.14 131.04 C 76.97 128.60 75.07 126.72 72.64 125.55 C 75.02 121.92 76.59 117.76 79.53 114.50 C 81.24 112.45 83.94 111.75 86.31 110.75 C 86.40 106.99 87.18 102.70 90.44 100.35 C 93.01 98.72 96.21 98.57 98.85 97.09 C 102.20 94.78 104.03 90.37 108.29 89.44 C 112.66 88.48 116.97 87.27 121.31 86.20 C 127.36 85.99 133.35 88.00 137.99 91.91 C 144.09 94.54 150.43 99.80 150.11 107.09 C 152.12 113.48 158.38 117.00 160.80 123.20 C 158.01 123.20 155.12 123.27 152.73 124.90 C 147.89 126.96 143.44 130.02 139.95 133.97 C 137.26 137.04 135.94 140.98 133.96 144.48 C 135.88 147.86 136.88 151.63 138.56 155.11 C 138.51 157.52 138.56 159.93 138.65 162.34 C 133.72 156.59 129.02 150.64 123.94 145.01 C 118.43 139.19 113.28 132.85 106.46 128.49 C 107.43 132.89 111.15 135.77 113.77 139.19 C 113.29 139.19 112.32 139.19 111.84 139.19 C 113.58 148.48 113.53 158.07 116.09 167.20 C 116.53 167.32 117.42 167.55 117.87 167.67 C 121.85 165.51 127.02 163.75 128.51 158.98 C 124.65 160.81 121.11 163.20 117.62 165.63 C 115.91 157.55 116.08 149.17 113.60 141.24 C 113.98 140.71 114.36 140.17 114.74 139.64 C 118.37 143.85 122.95 147.17 126.25 151.69 C 129.63 156.28 133.41 160.58 137.50 164.56 C 140.53 167.35 141.25 171.95 145.02 174.07 C 142.82 167.90 139.21 161.32 141.38 154.65 C 139.79 151.37 138.11 148.12 136.60 144.80 C 137.57 138.87 141.76 133.93 146.37 130.30 C 150.29 127.62 154.47 125.05 159.19 124.10 C 162.86 123.35 166.56 124.42 170.14 125.19 C 170.93 127.22 170.20 131.09 173.22 131.08 C 181.43 132.14 189.56 134.18 196.87 138.17 C 195.78 139.51 194.71 140.87 193.66 142.24 C 191.86 140.49 189.80 138.38 187.06 138.56 C 181.97 140.06 177.23 142.64 172.96 145.78 C 170.80 147.34 168.45 148.90 167.22 151.36 C 165.71 154.35 165.39 157.75 165.08 161.03 C 158.75 160.74 153.09 164.61 149.88 169.84 C 148.04 173.00 145.14 176.46 146.59 180.33 C 147.14 178.92 147.67 177.51 148.17 176.09 C 150.48 181.44 155.54 185.29 156.97 191.02 C 156.27 193.16 154.82 194.94 153.63 196.82 C 148.11 192.78 142.51 188.81 136.53 185.48 C 132.29 182.97 127.73 180.93 123.92 177.77 C 123.33 178.18 122.74 178.59 122.15 179.01 C 131.42 186.77 142.30 192.42 153.17 197.58 C 151.12 200.05 150.12 203.11 149.06 206.08 C 140.22 199.12 130.19 193.87 120.25 188.69 C 116.81 186.81 113.48 184.70 109.79 183.33 C 112.66 186.58 116.62 188.54 120.30 190.71 C 129.85 195.98 138.63 202.50 147.99 208.07 C 146.57 216.62 148.17 225.69 144.67 233.85 C 143.52 237.17 141.42 240.40 141.72 244.03 C 142.88 247.80 147.18 248.78 149.98 251.00 C 154.06 254.38 157.29 258.96 162.33 261.05 C 168.83 263.16 177.01 260.27 179.58 253.60 C 175.74 256.49 171.22 259.61 166.13 258.41 C 161.76 258.36 157.87 255.82 156.04 251.85 C 156.63 251.83 157.81 251.81 158.40 251.80 C 156.74 246.00 157.49 238.98 153.34 234.20 C 153.99 239.60 154.36 245.31 156.98 250.18 C 156.70 250.63 156.42 251.08 156.14 251.54 C 151.92 249.14 147.09 247.49 143.62 243.97 C 144.36 238.16 147.41 232.95 148.48 227.20 C 150.57 220.60 148.76 213.43 151.21 206.92 C 153.06 201.68 155.10 195.95 160.08 192.88 C 158.59 189.83 157.16 186.71 155.10 184.00 C 152.94 181.14 150.38 178.47 149.11 175.06 C 150.38 169.95 155.06 165.83 160.11 164.45 C 163.51 163.40 166.63 165.96 168.39 168.63 C 171.07 172.00 169.63 176.62 171.21 180.40 C 172.31 183.84 175.03 187.09 174.08 190.91 C 172.67 194.28 170.05 196.99 168.72 200.41 C 167.08 204.66 166.00 209.14 164.04 213.28 C 162.32 217.50 159.54 221.40 159.17 226.08 C 159.25 229.32 160.41 232.40 161.45 235.44 C 162.97 239.37 164.46 243.51 167.49 246.57 C 170.32 249.81 174.41 251.46 178.37 252.88 C 176.57 250.15 173.50 248.88 170.90 247.09 C 167.50 244.73 167.04 240.28 165.24 236.83 C 175.22 228.82 185.74 221.49 196.59 214.71 C 199.97 212.08 204.19 209.96 205.93 205.81 C 209.90 208.07 213.69 210.66 217.90 212.48 C 219.74 211.59 221.75 210.90 223.36 209.58 C 224.13 207.64 224.61 205.55 224.64 203.46 C 223.92 201.48 221.78 200.70 220.18 199.60 C 215.38 197.28 214.21 191.08 209.11 189.12 C 214.84 184.04 218.36 177.18 223.19 171.35 C 225.29 167.29 229.35 163.84 229.27 158.97 C 228.76 153.98 223.88 151.53 220.79 148.22 C 216.30 143.57 210.14 141.30 204.34 138.82 C 204.06 138.22 203.51 137.03 203.23 136.44 C 201.29 136.83 199.36 137.29 197.45 137.80 C 196.61 136.09 195.71 134.12 193.67 133.63 C 186.93 131.39 179.81 130.69 172.87 129.29 C 172.34 127.42 172.36 124.65 170.16 123.88 C 167.88 123.42 165.53 123.57 163.23 123.37 C 161.34 118.10 157.49 114.04 153.63 110.16 C 157.41 109.95 161.13 110.92 164.90 110.75 C 168.14 109.85 169.20 106.23 170.77 103.65 C 175.10 95.54 183.18 89.01 183.59 79.20 C 186.81 79.26 190.02 79.34 193.23 79.45 C 193.96 78.65 194.70 77.84 195.43 77.04 C 194.53 73.84 193.34 70.57 190.41 68.65 C 191.31 71.36 192.45 73.98 193.63 76.58 C 190.96 77.46 188.18 77.77 185.38 77.80 C 185.59 75.59 187.28 72.69 185.04 70.97 C 182.41 68.60 179.38 66.46 175.92 65.57 C 172.01 64.77 168.82 67.85 166.85 70.83 C 164.16 74.41 169.75 77.33 168.90 81.11 C 168.86 84.50 165.62 86.31 163.30 88.20 C 160.13 90.37 157.40 93.09 155.01 96.09 C 151.31 94.64 147.43 93.72 143.78 92.13 C 138.64 90.23 134.71 85.67 129.06 85.03 C 124.34 83.85 119.47 84.38 114.82 85.60 C 109.85 87.00 104.14 87.44 100.45 91.50 C 98.59 93.63 95.12 95.75 92.58 93.51 C 90.02 91.14 85.75 89.13 86.07 85.05 C 85.79 79.50 89.72 74.87 93.73 71.52 C 93.93 70.90 94.33 69.66 94.52 69.03 C 89.90 71.00 86.63 75.15 84.75 79.68 C 83.51 83.26 84.33 87.10 85.13 90.68 C 85.82 90.79 87.22 91.00 87.92 91.11 C 87.72 91.61 87.34 92.62 87.14 93.13 C 87.76 94.84 88.39 96.55 89.05 98.25 C 89.22 96.56 89.31 94.87 89.35 93.18 C 90.79 94.31 92.29 95.38 93.82 96.40 C 90.80 97.46 87.31 98.65 85.99 101.88 C 84.20 104.81 84.13 108.98 80.91 110.85 C 75.90 114.05 72.86 119.53 71.53 125.20 C 66.91 124.28 62.13 125.05 57.54 124.16 C 51.60 121.27 48.34 114.75 42.43 111.79 C 39.92 111.15 37.28 111.44 34.73 111.62 C 33.98 111.66 32.48 111.76 31.73 111.81 C 25.51 113.88 18.28 117.67 17.19 124.83 C 16.60 127.33 15.58 131.67 19.38 131.83 C 19.15 130.90 18.90 129.97 18.62 129.06 C 19.64 126.26 20.17 123.27 21.55 120.62 C 24.16 117.11 28.43 115.40 32.46 114.10 C 33.52 114.36 34.84 114.71 35.34 113.40 L 35.76 112.85 C 37.47 110.27 36.07 114.51 35.43 115.32 C 31.25 116.29 26.36 116.67 23.50 120.37 C 20.23 123.57 21.36 128.70 23.21 132.34 C 26.12 133.94 29.05 135.64 32.48 135.76 C 32.32 136.13 31.99 136.87 31.83 137.24 C 30.16 137.28 28.48 137.33 26.81 137.40 C 24.22 136.10 21.66 134.73 19.13 133.30 C 13.42 142.33 6.33 150.39 0.00 158.98 L 0.00 0.00 M 168.52 64.12 C 168.44 64.71 168.28 65.87 168.20 66.45 C 170.79 65.37 173.38 64.31 176.01 63.32 C 177.53 63.66 179.06 63.99 180.59 64.29 C 180.59 64.87 180.59 66.05 180.58 66.63 C 181.84 66.43 183.66 67.22 184.06 65.29 C 187.97 65.12 190.95 68.07 194.47 69.29 C 187.83 62.61 177.19 60.11 168.52 64.12 M 184.85 66.22 C 185.45 66.83 185.45 66.83 184.85 66.22 M 187.01 67.08 C 186.91 68.40 187.57 68.92 188.99 68.63 C 189.10 67.27 188.44 66.76 187.01 67.08 M 94.38 68.80 C 94.95 69.34 95.53 69.86 96.12 70.36 C 101.73 69.66 106.91 72.60 111.32 75.71 C 114.33 77.74 114.00 81.77 114.26 84.94 L 116.79 84.37 C 115.91 80.64 115.39 76.39 112.41 73.63 C 107.40 69.64 100.79 67.34 94.38 68.80 M 196.06 70.09 C 196.27 71.26 196.51 72.42 196.76 73.59 C 196.47 75.57 196.16 77.55 195.75 79.51 C 192.03 80.30 188.23 80.68 184.45 80.15 L 184.28 81.31 C 188.84 83.14 193.88 82.30 198.17 80.16 C 199.46 77.61 198.65 74.71 198.28 72.04 C 211.80 74.61 225.43 76.63 239.00 79.00 C 242.27 79.53 245.54 80.15 248.86 80.26 C 247.75 78.10 245.23 78.02 243.15 77.65 C 227.43 75.28 211.81 72.21 196.06 70.09 M 104.25 85.92 C 105.12 85.69 106.00 85.46 106.87 85.21 C 107.33 82.17 109.05 79.56 110.12 76.72 C 106.50 78.32 105.48 82.53 104.25 85.92 M 118.06 98.49 C 121.81 99.19 124.91 96.01 128.29 94.84 C 124.45 93.84 121.00 96.36 118.06 98.49 M 135.61 96.86 C 138.37 99.64 142.63 99.70 146.15 100.99 C 144.10 97.16 139.64 96.16 135.61 96.86 M 127.62 99.83 C 127.39 101.37 127.60 102.86 128.24 104.31 C 124.25 106.03 124.34 111.05 124.30 114.71 C 126.05 116.32 128.18 117.43 130.18 118.69 C 128.33 119.36 126.33 119.87 124.88 121.29 C 127.39 121.57 130.27 120.78 132.43 122.46 C 135.48 124.72 138.20 127.40 141.42 129.42 C 140.40 124.70 135.70 121.84 131.94 119.27 C 131.62 116.85 129.06 114.14 126.46 115.23 C 126.62 113.11 126.54 111.00 126.41 108.89 C 127.94 106.55 129.60 104.25 130.47 101.56 C 131.08 100.73 131.69 99.90 132.30 99.07 C 130.78 99.29 128.83 98.61 127.62 99.83 M 133.55 98.65 C 135.73 100.78 137.96 102.90 139.53 105.54 C 141.00 108.49 141.04 112.15 143.55 114.54 C 145.06 116.00 145.70 118.61 147.96 119.06 C 148.15 116.87 146.93 114.91 145.49 113.39 C 143.16 110.98 143.47 107.21 141.54 104.54 C 139.48 101.90 137.24 98.81 133.55 98.65 M 98.97 103.64 C 95.10 104.56 91.32 106.34 88.52 109.21 C 92.69 108.67 95.74 105.09 99.98 105.02 C 102.97 104.75 105.04 102.00 108.02 101.60 C 110.79 101.44 113.55 101.71 116.32 101.68 C 116.10 101.28 115.67 100.48 115.46 100.08 C 112.67 99.44 109.75 99.51 106.93 99.84 C 104.01 100.51 101.94 103.08 98.97 103.64 M 115.91 110.64 C 115.96 109.76 116.06 108.01 116.12 107.13 C 116.76 106.36 117.41 105.58 118.05 104.80 C 114.84 103.59 112.14 109.60 115.91 110.64 M 105.53 110.75 C 105.43 111.14 105.24 111.92 105.15 112.31 C 108.20 112.09 111.16 112.90 113.89 114.21 C 114.00 115.00 114.20 116.57 114.30 117.36 C 115.58 116.55 116.87 115.74 118.17 114.96 C 114.73 111.79 110.11 110.67 105.53 110.75 M 87.98 118.21 C 85.42 120.53 82.54 123.01 81.78 126.55 C 85.94 122.87 90.22 119.27 94.17 115.37 C 91.83 115.59 89.68 116.61 87.98 118.21 M 117.94 122.14 C 118.77 122.33 119.61 122.51 120.45 122.70 C 119.82 120.36 119.29 118.00 118.67 115.66 C 116.91 117.51 117.41 119.90 117.94 122.14 M 148.90 132.85 C 154.16 131.43 158.68 128.03 164.19 127.33 C 158.52 126.15 153.24 129.61 148.90 132.85 M 155.37 135.97 C 159.03 133.78 162.86 131.88 166.85 130.35 C 166.15 130.20 164.74 129.90 164.03 129.74 C 160.73 131.17 157.67 133.18 155.37 135.97 M 152.48 144.22 C 156.68 141.67 160.86 139.05 165.54 137.47 C 167.43 136.98 168.03 135.02 168.84 133.48 C 163.21 136.68 155.44 137.71 152.48 144.22 M 143.12 148.41 C 145.30 146.91 146.41 144.46 145.65 141.83 C 144.22 143.76 143.27 145.99 143.12 148.41 M 120.09 176.27 C 120.36 176.59 120.91 177.24 121.19 177.57 C 125.83 176.37 129.78 173.42 133.70 170.78 C 133.93 170.05 134.41 168.59 134.64 167.86 C 129.76 170.61 124.79 173.21 120.09 176.27 M 165.31 189.47 C 168.27 189.22 168.58 186.04 168.59 183.69 C 167.08 185.35 166.10 187.39 165.31 189.47 Z" />
<path fill="#FFFFFF" opacity="1.00" d=" M 167.68 72.20 C 169.26 70.07 171.57 68.71 173.79 67.36 C 177.47 69.45 182.01 70.67 184.41 74.45 C 184.06 75.18 183.37 76.65 183.02 77.39 C 182.51 77.51 181.48 77.76 180.97 77.88 C 181.36 78.32 182.14 79.19 182.53 79.63 C 180.22 87.19 175.15 93.28 170.69 99.64 C 168.64 102.41 167.83 106.12 165.08 108.32 C 161.12 107.53 157.11 107.75 153.24 108.85 C 152.78 106.42 152.61 103.96 152.10 101.55 C 151.22 99.39 149.32 97.85 147.84 96.12 C 153.14 95.18 155.57 100.72 158.61 103.90 C 159.22 103.40 159.84 102.90 160.45 102.39 C 159.18 100.48 157.87 98.58 156.41 96.80 C 159.52 93.05 163.56 90.32 167.33 87.30 C 169.43 85.41 172.25 83.36 171.86 80.16 C 172.80 76.62 169.12 74.86 167.68 72.20 M 170.22 89.32 C 173.40 88.15 175.27 85.19 177.09 82.52 C 173.75 83.40 172.06 86.71 170.22 89.32 Z" />
<path fill="#FFFFFF" opacity="1.00" d=" M 32.55 119.54 C 35.27 117.40 37.95 113.89 41.72 114.23 C 45.49 116.98 48.79 120.36 51.87 123.85 C 51.37 125.15 50.87 126.45 50.36 127.75 C 47.49 125.30 43.89 126.79 40.83 127.93 C 37.86 125.35 35.03 122.61 32.55 119.54 Z" />
<path fill="#FFFFFF" opacity="1.00" d=" M 23.11 124.13 C 24.64 121.75 27.24 120.42 29.52 118.89 C 32.49 122.51 35.58 126.04 38.88 129.36 C 36.53 130.76 34.29 132.35 31.87 133.63 C 29.78 133.60 27.79 132.88 25.72 132.63 C 24.35 129.99 23.63 127.04 23.11 124.13 Z" />
<path fill="#FFFFFF" opacity="1.00" d=" M 32.28 135.11 C 37.86 134.68 41.25 127.82 47.17 129.42 C 44.93 131.07 42.58 132.59 40.57 134.54 C 38.53 135.25 36.46 135.89 34.39 136.51 C 33.68 136.05 32.98 135.58 32.28 135.11 Z" />
<path fill="#FFFFFF" opacity="1.00" d=" M 193.51 149.07 C 193.12 144.63 196.96 140.59 201.02 139.45 C 204.94 140.97 208.66 142.97 212.48 144.71 C 217.42 146.71 220.51 151.30 224.54 154.56 C 227.16 156.58 227.54 160.75 225.56 163.33 C 223.51 166.05 222.27 169.33 219.86 171.78 C 216.89 175.00 215.39 179.28 212.37 182.46 C 210.32 184.60 208.55 186.99 207.02 189.53 C 207.50 189.59 208.46 189.72 208.94 189.78 C 211.12 192.06 212.67 194.81 214.43 197.40 C 216.25 200.11 219.20 201.60 221.93 203.19 C 221.56 204.97 221.42 206.84 220.73 208.54 C 219.21 209.05 217.64 209.37 216.09 209.75 C 212.66 207.59 209.22 205.33 205.29 204.21 C 205.58 202.73 205.87 201.26 206.17 199.79 C 203.57 198.53 200.86 197.54 198.10 196.71 C 197.06 196.94 194.97 197.40 193.93 197.63 C 193.46 197.01 193.00 196.38 192.55 195.75 C 195.11 193.32 198.58 191.52 199.95 188.08 C 200.88 186.00 201.79 183.91 202.81 181.87 C 204.27 179.10 202.84 175.42 205.17 173.01 C 207.48 170.39 209.89 167.86 212.02 165.09 C 214.46 166.11 217.27 168.14 219.45 165.57 C 216.69 165.00 214.12 163.84 211.83 162.21 C 205.57 163.50 199.40 161.30 193.49 159.44 C 193.43 155.99 193.43 152.53 193.51 149.07 M 201.96 153.06 C 203.19 155.05 204.09 158.05 206.94 157.93 C 205.92 155.74 204.19 154.01 201.96 153.06 M 211.09 153.13 C 212.03 156.37 214.41 158.98 217.07 160.97 C 219.21 162.38 221.92 161.54 224.30 161.41 C 224.35 160.50 224.42 159.59 224.48 158.68 C 222.64 158.96 220.79 159.28 218.92 159.21 C 215.96 157.68 213.84 154.98 211.09 153.13 M 206.80 180.11 C 206.76 180.53 206.66 181.37 206.61 181.79 C 209.58 180.50 211.77 177.99 212.93 175.00 C 210.34 175.94 208.85 178.42 206.80 180.11 Z" />
<path fill="#FFFFFF" opacity="1.00" d=" M 173.16 148.21 C 177.51 145.43 182.00 142.76 186.98 141.31 C 188.19 141.38 189.33 141.80 190.49 142.11 C 191.78 147.64 191.45 153.40 190.24 158.90 C 189.84 161.30 187.35 162.20 185.59 163.45 C 181.27 166.43 177.08 169.59 172.87 172.71 C 171.66 170.56 170.31 168.48 168.73 166.58 C 170.18 164.17 172.10 162.07 173.41 159.58 C 174.42 157.08 175.16 154.34 177.13 152.37 C 179.77 149.40 184.15 148.90 186.74 145.86 C 182.08 145.74 177.84 148.47 174.83 151.82 C 171.80 155.18 171.99 159.98 170.27 163.97 C 169.13 162.69 166.62 161.73 167.32 159.60 C 168.34 155.53 169.11 150.41 173.16 148.21 Z" />
<path fill="#FFFFFF" opacity="1.00" d=" M 189.83 163.86 C 190.89 163.12 191.62 162.03 192.47 161.08 C 197.79 163.32 203.57 164.34 209.31 164.61 C 206.42 168.09 201.72 171.02 201.70 176.05 C 201.35 180.61 199.28 184.93 196.72 188.65 C 194.23 191.19 190.88 193.20 190.38 197.08 C 191.48 197.65 192.58 198.22 193.66 198.84 C 189.88 200.54 186.57 203.13 182.74 204.74 C 179.45 202.26 177.51 198.52 175.45 195.06 C 176.48 192.04 178.06 188.58 176.37 185.49 C 174.56 182.02 173.81 178.19 173.63 174.31 C 178.86 170.58 184.46 167.38 189.83 163.86 Z" />
<path fill="#FFFFFF" opacity="1.00" d=" M 170.22 204.82 C 171.27 202.06 172.11 199.21 173.54 196.60 C 176.13 200.04 178.23 203.81 180.72 207.32 C 183.60 208.55 185.79 211.16 188.97 211.67 C 187.73 209.61 185.99 207.95 184.16 206.41 C 187.84 204.40 191.46 202.27 194.94 199.92 C 197.14 198.26 199.89 199.85 202.15 200.61 C 202.40 202.84 202.76 205.05 203.18 207.26 C 201.92 207.90 200.65 208.51 199.52 209.35 C 193.11 214.12 186.29 218.29 179.73 222.84 C 174.32 226.65 168.42 229.98 164.10 235.12 C 162.79 231.93 161.05 228.46 162.20 224.96 C 164.56 221.96 167.79 219.79 170.51 217.13 C 169.09 215.95 167.68 214.76 166.29 213.56 C 167.33 211.13 168.18 208.63 168.97 206.11 C 170.90 209.21 173.03 212.17 175.38 214.96 C 175.92 214.19 176.47 213.42 177.01 212.66 C 174.71 210.08 172.52 207.41 170.22 204.82 Z" />
<path fill="#FFFFFF" opacity="1.00" d=" M 165.21 215.89 C 165.77 216.43 166.33 216.96 166.89 217.50 C 165.87 218.40 164.84 219.29 163.81 220.17 C 164.25 218.73 164.72 217.31 165.21 215.89 Z" />
</g>
<g id="#3f433fff">
<path fill="#333333" opacity="1.00" d=" M 168.52 64.12 C 177.19 60.11 187.83 62.61 194.47 69.29 C 190.95 68.07 187.97 65.12 184.06 65.29 C 183.66 67.22 181.84 66.43 180.58 66.63 C 180.59 66.05 180.59 64.87 180.59 64.29 C 179.06 63.99 177.53 63.66 176.01 63.32 C 173.38 64.31 170.79 65.37 168.20 66.45 C 168.28 65.87 168.44 64.71 168.52 64.12 Z" />
<path fill="#333333" opacity="1.00" d=" M 166.85 70.83 C 168.82 67.85 172.01 64.77 175.92 65.57 C 179.38 66.46 182.41 68.60 185.04 70.97 C 187.28 72.69 185.59 75.59 185.38 77.80 C 188.18 77.77 190.96 77.46 193.63 76.58 C 192.45 73.98 191.31 71.36 190.41 68.65 C 193.34 70.57 194.53 73.84 195.43 77.04 C 194.70 77.84 193.96 78.65 193.23 79.45 C 190.02 79.34 186.81 79.26 183.59 79.20 C 183.18 89.01 175.10 95.54 170.77 103.65 C 169.20 106.23 168.14 109.85 164.90 110.75 C 161.13 110.92 157.41 109.95 153.63 110.16 C 157.49 114.04 161.34 118.10 163.23 123.37 C 165.53 123.57 167.88 123.42 170.16 123.88 C 172.36 124.65 172.34 127.42 172.87 129.29 C 179.81 130.69 186.93 131.39 193.67 133.63 C 195.71 134.12 196.61 136.09 197.45 137.80 C 199.36 137.29 201.29 136.83 203.23 136.44 C 203.51 137.03 204.06 138.22 204.34 138.82 C 210.14 141.30 216.30 143.57 220.79 148.22 C 223.88 151.53 228.76 153.98 229.27 158.97 C 229.35 163.84 225.29 167.29 223.19 171.35 C 218.36 177.18 214.84 184.04 209.11 189.12 C 214.21 191.08 215.38 197.28 220.18 199.60 C 221.78 200.70 223.92 201.48 224.64 203.46 C 224.61 205.55 224.13 207.64 223.36 209.58 C 221.75 210.90 219.74 211.59 217.90 212.48 C 213.69 210.66 209.90 208.07 205.93 205.81 C 204.19 209.96 199.97 212.08 196.59 214.71 C 185.74 221.49 175.22 228.82 165.24 236.83 C 167.04 240.28 167.50 244.73 170.90 247.09 C 173.50 248.88 176.57 250.15 178.37 252.88 C 174.41 251.46 170.32 249.81 167.49 246.57 C 164.46 243.51 162.97 239.37 161.45 235.44 C 160.41 232.40 159.25 229.32 159.17 226.08 C 159.54 221.40 162.32 217.50 164.04 213.28 C 166.00 209.14 167.08 204.66 168.72 200.41 C 170.05 196.99 172.67 194.28 174.08 190.91 C 175.03 187.09 172.31 183.84 171.21 180.40 C 169.63 176.62 171.07 172.00 168.39 168.63 C 166.63 165.96 163.51 163.40 160.11 164.45 C 155.06 165.83 150.38 169.95 149.11 175.06 C 150.38 178.47 152.94 181.14 155.10 184.00 C 157.16 186.71 158.59 189.83 160.08 192.88 C 155.10 195.95 153.06 201.68 151.21 206.92 C 148.76 213.43 150.57 220.60 148.48 227.20 C 147.41 232.95 144.36 238.16 143.62 243.97 C 147.09 247.49 151.92 249.14 156.14 251.54 C 156.42 251.08 156.70 250.63 156.98 250.18 C 154.36 245.31 153.99 239.60 153.34 234.20 C 157.49 238.98 156.74 246.00 158.40 251.80 C 157.81 251.81 156.63 251.83 156.04 251.85 C 157.87 255.82 161.76 258.36 166.13 258.41 C 171.22 259.61 175.74 256.49 179.58 253.60 C 177.01 260.27 168.83 263.16 162.33 261.05 C 157.29 258.96 154.06 254.38 149.98 251.00 C 147.18 248.78 142.88 247.80 141.72 244.03 C 141.42 240.40 143.52 237.17 144.67 233.85 C 148.17 225.69 146.57 216.62 147.99 208.07 C 138.63 202.50 129.85 195.98 120.30 190.71 C 116.62 188.54 112.66 186.58 109.79 183.33 C 113.48 184.70 116.81 186.81 120.25 188.69 C 130.19 193.87 140.22 199.12 149.06 206.08 C 150.12 203.11 151.12 200.05 153.17 197.58 C 142.30 192.42 131.42 186.77 122.15 179.01 C 122.74 178.59 123.33 178.18 123.92 177.77 C 127.73 180.93 132.29 182.97 136.53 185.48 C 142.51 188.81 148.11 192.78 153.63 196.82 C 154.82 194.94 156.27 193.16 156.97 191.02 C 155.54 185.29 150.48 181.44 148.17 176.09 C 147.67 177.51 147.14 178.92 146.59 180.33 C 145.14 176.46 148.04 173.00 149.88 169.84 C 153.09 164.61 158.75 160.74 165.08 161.03 C 165.39 157.75 165.71 154.35 167.22 151.36 C 168.45 148.90 170.80 147.34 172.96 145.78 C 177.23 142.64 181.97 140.06 187.06 138.56 C 189.80 138.38 191.86 140.49 193.66 142.24 C 194.71 140.87 195.78 139.51 196.87 138.17 C 189.56 134.18 181.43 132.14 173.22 131.08 C 170.20 131.09 170.93 127.22 170.14 125.19 C 166.56 124.42 162.86 123.35 159.19 124.10 C 154.47 125.05 150.29 127.62 146.37 130.30 C 141.76 133.93 137.57 138.87 136.60 144.80 C 138.11 148.12 139.79 151.37 141.38 154.65 C 139.21 161.32 142.82 167.90 145.02 174.07 C 141.25 171.95 140.53 167.35 137.50 164.56 C 133.41 160.58 129.63 156.28 126.25 151.69 C 122.95 147.17 118.37 143.85 114.74 139.64 C 114.36 140.17 113.98 140.71 113.60 141.24 C 116.08 149.17 115.91 157.55 117.62 165.63 C 121.11 163.20 124.65 160.81 128.51 158.98 C 127.02 163.75 121.85 165.51 117.87 167.67 C 117.42 167.55 116.53 167.32 116.09 167.20 C 113.53 158.07 113.58 148.48 111.84 139.19 C 112.32 139.19 113.29 139.19 113.77 139.19 C 111.15 135.77 107.43 132.89 106.46 128.49 C 113.28 132.85 118.43 139.19 123.94 145.01 C 129.02 150.64 133.72 156.59 138.65 162.34 C 138.56 159.93 138.51 157.52 138.56 155.11 C 136.88 151.63 135.88 147.86 133.96 144.48 C 135.94 140.98 137.26 137.04 139.95 133.97 C 143.44 130.02 147.89 126.96 152.73 124.90 C 155.12 123.27 158.01 123.20 160.80 123.20 C 158.38 117.00 152.12 113.48 150.11 107.09 C 150.43 99.80 144.09 94.54 137.99 91.91 C 133.35 88.00 127.36 85.99 121.31 86.20 C 116.97 87.27 112.66 88.48 108.29 89.44 C 104.03 90.37 102.20 94.78 98.85 97.09 C 96.21 98.57 93.01 98.72 90.44 100.35 C 87.18 102.70 86.40 106.99 86.31 110.75 C 83.94 111.75 81.24 112.45 79.53 114.50 C 76.59 117.76 75.02 121.92 72.64 125.55 C 75.07 126.72 76.97 128.60 78.14 131.04 C 74.28 129.32 70.47 126.80 66.04 127.24 C 62.04 127.81 58.10 127.01 54.29 125.83 C 52.95 127.18 51.59 128.52 50.18 129.80 C 49.30 131.13 48.40 132.46 47.50 133.78 C 51.82 135.14 55.97 136.90 60.02 138.93 C 65.16 141.59 71.05 140.29 76.53 139.86 C 80.30 136.85 83.79 133.44 87.96 130.97 C 90.01 129.73 92.20 128.62 93.75 126.74 C 98.22 122.04 98.67 115.23 101.34 109.57 C 102.78 113.36 101.15 117.24 100.43 120.98 C 106.81 124.36 113.66 126.59 120.54 128.70 C 126.86 131.53 131.70 137.90 132.49 144.79 C 126.59 140.19 122.95 132.22 115.15 130.48 C 111.07 129.26 107.09 127.71 103.17 126.04 C 103.60 132.05 104.17 138.05 104.32 144.08 C 105.09 153.33 106.66 162.50 107.18 171.78 C 98.89 176.29 90.83 181.30 82.21 185.17 C 82.58 187.61 82.41 190.26 83.55 192.50 C 85.07 193.86 86.75 195.78 88.88 195.86 C 95.96 192.76 101.90 187.35 109.26 184.92 C 103.72 191.35 95.71 194.61 88.58 198.88 C 86.34 197.69 84.01 196.50 82.29 194.58 C 79.39 191.81 80.86 187.37 80.28 183.83 C 88.17 179.11 96.53 175.28 104.56 170.81 C 103.75 156.27 102.02 141.77 101.81 127.18 C 102.14 126.80 102.81 126.04 103.15 125.66 C 102.23 124.86 101.30 124.06 100.38 123.27 C 98.71 125.61 96.98 127.92 94.89 129.91 C 91.95 132.84 87.69 133.86 84.69 136.73 C 82.10 139.12 79.36 141.35 76.45 143.36 C 71.19 142.99 65.65 144.55 60.67 142.18 C 55.65 139.94 50.60 137.63 46.03 134.56 C 40.72 137.27 34.95 139.45 28.92 139.56 C 25.75 139.01 22.96 137.28 20.07 135.95 C 13.40 144.54 7.17 153.48 0.00 161.67 L 0.00 158.98 C 6.33 150.39 13.42 142.33 19.13 133.30 C 21.66 134.73 24.22 136.10 26.81 137.40 C 28.48 137.33 30.16 137.28 31.83 137.24 C 31.99 136.87 32.32 136.13 32.48 135.76 C 29.05 135.64 26.12 133.94 23.21 132.34 C 21.36 128.70 20.23 123.57 23.50 120.37 C 26.36 116.67 31.25 116.29 35.43 115.32 C 36.07 114.51 37.47 110.27 35.76 112.85 L 35.34 113.40 C 34.84 114.71 33.52 114.36 32.46 114.10 C 28.43 115.40 24.16 117.11 21.55 120.62 C 20.17 123.27 19.64 126.26 18.62 129.06 C 18.90 129.97 19.15 130.90 19.38 131.83 C 15.58 131.67 16.60 127.33 17.19 124.83 C 18.28 117.67 25.51 113.88 31.73 111.81 C 32.48 111.76 33.98 111.66 34.73 111.62 C 37.28 111.44 39.92 111.15 42.43 111.79 C 48.34 114.75 51.60 121.27 57.54 124.16 C 62.13 125.05 66.91 124.28 71.53 125.20 C 72.86 119.53 75.90 114.05 80.91 110.85 C 84.13 108.98 84.20 104.81 85.99 101.88 C 87.31 98.65 90.80 97.46 93.82 96.40 C 92.29 95.38 90.79 94.31 89.35 93.18 C 89.31 94.87 89.22 96.56 89.05 98.25 C 88.39 96.55 87.76 94.84 87.14 93.13 C 87.34 92.62 87.72 91.61 87.92 91.11 C 87.22 91.00 85.82 90.79 85.13 90.68 C 84.33 87.10 83.51 83.26 84.75 79.68 C 86.63 75.15 89.90 71.00 94.52 69.03 C 94.33 69.66 93.93 70.90 93.73 71.52 C 89.72 74.87 85.79 79.50 86.07 85.05 C 85.75 89.13 90.02 91.14 92.58 93.51 C 95.12 95.75 98.59 93.63 100.45 91.50 C 104.14 87.44 109.85 87.00 114.82 85.60 C 119.47 84.38 124.34 83.85 129.06 85.03 C 134.71 85.67 138.64 90.23 143.78 92.13 C 147.43 93.72 151.31 94.64 155.01 96.09 C 157.40 93.09 160.13 90.37 163.30 88.20 C 165.62 86.31 168.86 84.50 168.90 81.11 C 169.75 77.33 164.16 74.41 166.85 70.83 M 167.68 72.20 C 169.12 74.86 172.80 76.62 171.86 80.16 C 172.25 83.36 169.43 85.41 167.33 87.30 C 163.56 90.32 159.52 93.05 156.41 96.80 C 157.87 98.58 159.18 100.48 160.45 102.39 C 159.84 102.90 159.22 103.40 158.61 103.90 C 155.57 100.72 153.14 95.18 147.84 96.12 C 149.32 97.85 151.22 99.39 152.10 101.55 C 152.61 103.96 152.78 106.42 153.24 108.85 C 157.11 107.75 161.12 107.53 165.08 108.32 C 167.83 106.12 168.64 102.41 170.69 99.64 C 175.15 93.28 180.22 87.19 182.53 79.63 C 182.14 79.19 181.36 78.32 180.97 77.88 C 181.48 77.76 182.51 77.51 183.02 77.39 C 183.37 76.65 184.06 75.18 184.41 74.45 C 182.01 70.67 177.47 69.45 173.79 67.36 C 171.57 68.71 169.26 70.07 167.68 72.20 M 32.55 119.54 C 35.03 122.61 37.86 125.35 40.83 127.93 C 43.89 126.79 47.49 125.30 50.36 127.75 C 50.87 126.45 51.37 125.15 51.87 123.85 C 48.79 120.36 45.49 116.98 41.72 114.23 C 37.95 113.89 35.27 117.40 32.55 119.54 M 23.11 124.13 C 23.63 127.04 24.35 129.99 25.72 132.63 C 27.79 132.88 29.78 133.60 31.87 133.63 C 34.29 132.35 36.53 130.76 38.88 129.36 C 35.58 126.04 32.49 122.51 29.52 118.89 C 27.24 120.42 24.64 121.75 23.11 124.13 M 32.28 135.11 C 32.98 135.58 33.68 136.05 34.39 136.51 C 36.46 135.89 38.53 135.25 40.57 134.54 C 42.58 132.59 44.93 131.07 47.17 129.42 C 41.25 127.82 37.86 134.68 32.28 135.11 M 193.51 149.07 C 193.43 152.53 193.43 155.99 193.49 159.44 C 199.40 161.30 205.57 163.50 211.83 162.21 C 214.12 163.84 216.69 165.00 219.45 165.57 C 217.27 168.14 214.46 166.11 212.02 165.09 C 209.89 167.86 207.48 170.39 205.17 173.01 C 202.84 175.42 204.27 179.10 202.81 181.87 C 201.79 183.91 200.88 186.00 199.95 188.08 C 198.58 191.52 195.11 193.32 192.55 195.75 C 193.00 196.38 193.46 197.01 193.93 197.63 C 194.97 197.40 197.06 196.94 198.10 196.71 C 200.86 197.54 203.57 198.53 206.17 199.79 C 205.87 201.26 205.58 202.73 205.29 204.21 C 209.22 205.33 212.66 207.59 216.09 209.75 C 217.64 209.37 219.21 209.05 220.73 208.54 C 221.42 206.84 221.56 204.97 221.93 203.19 C 219.20 201.60 216.25 200.11 214.43 197.40 C 212.67 194.81 211.12 192.06 208.94 189.78 C 208.46 189.72 207.50 189.59 207.02 189.53 C 208.55 186.99 210.32 184.60 212.37 182.46 C 215.39 179.28 216.89 175.00 219.86 171.78 C 222.27 169.33 223.51 166.05 225.56 163.33 C 227.54 160.75 227.16 156.58 224.54 154.56 C 220.51 151.30 217.42 146.71 212.48 144.71 C 208.66 142.97 204.94 140.97 201.02 139.45 C 196.96 140.59 193.12 144.63 193.51 149.07 M 173.16 148.21 C 169.11 150.41 168.34 155.53 167.32 159.60 C 166.62 161.73 169.13 162.69 170.27 163.97 C 171.99 159.98 171.80 155.18 174.83 151.82 C 177.84 148.47 182.08 145.74 186.74 145.86 C 184.15 148.90 179.77 149.40 177.13 152.37 C 175.16 154.34 174.42 157.08 173.41 159.58 C 172.10 162.07 170.18 164.17 168.73 166.58 C 170.31 168.48 171.66 170.56 172.87 172.71 C 177.08 169.59 181.27 166.43 185.59 163.45 C 187.35 162.20 189.84 161.30 190.24 158.90 C 191.45 153.40 191.78 147.64 190.49 142.11 C 189.33 141.80 188.19 141.38 186.98 141.31 C 182.00 142.76 177.51 145.43 173.16 148.21 M 189.83 163.86 C 184.46 167.38 178.86 170.58 173.63 174.31 C 173.81 178.19 174.56 182.02 176.37 185.49 C 178.06 188.58 176.48 192.04 175.45 195.06 C 177.51 198.52 179.45 202.26 182.74 204.74 C 186.57 203.13 189.88 200.54 193.66 198.84 C 192.58 198.22 191.48 197.65 190.38 197.08 C 190.88 193.20 194.23 191.19 196.72 188.65 C 199.28 184.93 201.35 180.61 201.70 176.05 C 201.72 171.02 206.42 168.09 209.31 164.61 C 203.57 164.34 197.79 163.32 192.47 161.08 C 191.62 162.03 190.89 163.12 189.83 163.86 M 170.22 204.82 C 172.52 207.41 174.71 210.08 177.01 212.66 C 176.47 213.42 175.92 214.19 175.38 214.96 C 173.03 212.17 170.90 209.21 168.97 206.11 C 168.18 208.63 167.33 211.13 166.29 213.56 C 167.68 214.76 169.09 215.95 170.51 217.13 C 167.79 219.79 164.56 221.96 162.20 224.96 C 161.05 228.46 162.79 231.93 164.10 235.12 C 168.42 229.98 174.32 226.65 179.73 222.84 C 186.29 218.29 193.11 214.12 199.52 209.35 C 200.65 208.51 201.92 207.90 203.18 207.26 C 202.76 205.05 202.40 202.84 202.15 200.61 C 199.89 199.85 197.14 198.26 194.94 199.92 C 191.46 202.27 187.84 204.40 184.16 206.41 C 185.99 207.95 187.73 209.61 188.97 211.67 C 185.79 211.16 183.60 208.55 180.72 207.32 C 178.23 203.81 176.13 200.04 173.54 196.60 C 172.11 199.21 171.27 202.06 170.22 204.82 M 165.21 215.89 C 164.72 217.31 164.25 218.73 163.81 220.17 C 164.84 219.29 165.87 218.40 166.89 217.50 C 166.33 216.96 165.77 216.43 165.21 215.89 Z" />
<path fill="#333333" opacity="1.00" d=" M 184.85 66.22 C 185.45 66.83 185.45 66.83 184.85 66.22 Z" />
<path fill="#333333" opacity="1.00" d=" M 187.01 67.08 C 188.44 66.76 189.10 67.27 188.99 68.63 C 187.57 68.92 186.91 68.40 187.01 67.08 Z" />
<path fill="#333333" opacity="1.00" d=" M 94.38 68.80 C 100.79 67.34 107.40 69.64 112.41 73.63 C 115.39 76.39 115.91 80.64 116.79 84.37 L 114.26 84.94 C 114.00 81.77 114.33 77.74 111.32 75.71 C 106.91 72.60 101.73 69.66 96.12 70.36 C 95.53 69.86 94.95 69.34 94.38 68.80 Z" />
<path fill="#333333" opacity="1.00" d=" M 196.06 70.09 C 211.81 72.21 227.43 75.28 243.15 77.65 C 245.23 78.02 247.75 78.10 248.86 80.26 C 245.54 80.15 242.27 79.53 239.00 79.00 C 225.43 76.63 211.80 74.61 198.28 72.04 C 198.65 74.71 199.46 77.61 198.17 80.16 C 193.88 82.30 188.84 83.14 184.28 81.31 L 184.45 80.15 C 188.23 80.68 192.03 80.30 195.75 79.51 C 196.16 77.55 196.47 75.57 196.76 73.59 C 196.51 72.42 196.27 71.26 196.06 70.09 Z" />
<path fill="#333333" opacity="1.00" d=" M 104.25 85.92 C 105.48 82.53 106.50 78.32 110.12 76.72 C 109.05 79.56 107.33 82.17 106.87 85.21 C 106.00 85.46 105.12 85.69 104.25 85.92 Z" />
<path fill="#333333" opacity="1.00" d=" M 170.22 89.32 C 172.06 86.71 173.75 83.40 177.09 82.52 C 175.27 85.19 173.40 88.15 170.22 89.32 Z" />
<path fill="#333333" opacity="1.00" d=" M 118.06 98.49 C 121.00 96.36 124.45 93.84 128.29 94.84 C 124.91 96.01 121.81 99.19 118.06 98.49 Z" />
<path fill="#333333" opacity="1.00" d=" M 135.61 96.86 C 139.64 96.16 144.10 97.16 146.15 100.99 C 142.63 99.70 138.37 99.64 135.61 96.86 Z" />
<path fill="#333333" opacity="1.00" d=" M 127.62 99.83 C 128.83 98.61 130.78 99.29 132.30 99.07 C 131.69 99.90 131.08 100.73 130.47 101.56 C 129.60 104.25 127.94 106.55 126.41 108.89 C 126.54 111.00 126.62 113.11 126.46 115.23 C 129.06 114.14 131.62 116.85 131.94 119.27 C 135.70 121.84 140.40 124.70 141.42 129.42 C 138.20 127.40 135.48 124.72 132.43 122.46 C 130.27 120.78 127.39 121.57 124.88 121.29 C 126.33 119.87 128.33 119.36 130.18 118.69 C 128.18 117.43 126.05 116.32 124.30 114.71 C 124.34 111.05 124.25 106.03 128.24 104.31 C 127.60 102.86 127.39 101.37 127.62 99.83 Z" />
<path fill="#333333" opacity="1.00" d=" M 133.55 98.65 C 137.24 98.81 139.48 101.90 141.54 104.54 C 143.47 107.21 143.16 110.98 145.49 113.39 C 146.93 114.91 148.15 116.87 147.96 119.06 C 145.70 118.61 145.06 116.00 143.55 114.54 C 141.04 112.15 141.00 108.49 139.53 105.54 C 137.96 102.90 135.73 100.78 133.55 98.65 Z" />
<path fill="#333333" opacity="1.00" d=" M 98.97 103.64 C 101.94 103.08 104.01 100.51 106.93 99.84 C 109.75 99.51 112.67 99.44 115.46 100.08 C 115.67 100.48 116.10 101.28 116.32 101.68 C 113.55 101.71 110.79 101.44 108.02 101.60 C 105.04 102.00 102.97 104.75 99.98 105.02 C 95.74 105.09 92.69 108.67 88.52 109.21 C 91.32 106.34 95.10 104.56 98.97 103.64 Z" />
<path fill="#333333" opacity="1.00" d=" M 115.91 110.64 C 112.14 109.60 114.84 103.59 118.05 104.80 C 117.41 105.58 116.76 106.36 116.12 107.13 C 116.06 108.01 115.96 109.76 115.91 110.64 Z" />
<path fill="#333333" opacity="1.00" d=" M 105.53 110.75 C 110.11 110.67 114.73 111.79 118.17 114.96 C 116.87 115.74 115.58 116.55 114.30 117.36 C 114.20 116.57 114.00 115.00 113.89 114.21 C 111.16 112.90 108.20 112.09 105.15 112.31 C 105.24 111.92 105.43 111.14 105.53 110.75 Z" />
<path fill="#333333" opacity="1.00" d=" M 87.98 118.21 C 89.68 116.61 91.83 115.59 94.17 115.37 C 90.22 119.27 85.94 122.87 81.78 126.55 C 82.54 123.01 85.42 120.53 87.98 118.21 Z" />
<path fill="#333333" opacity="1.00" d=" M 117.94 122.14 C 117.41 119.90 116.91 117.51 118.67 115.66 C 119.29 118.00 119.82 120.36 120.45 122.70 C 119.61 122.51 118.77 122.33 117.94 122.14 Z" />
<path fill="#333333" opacity="1.00" d=" M 148.90 132.85 C 153.24 129.61 158.52 126.15 164.19 127.33 C 158.68 128.03 154.16 131.43 148.90 132.85 Z" />
<path fill="#333333" opacity="1.00" d=" M 155.37 135.97 C 157.67 133.18 160.73 131.17 164.03 129.74 C 164.74 129.90 166.15 130.20 166.85 130.35 C 162.86 131.88 159.03 133.78 155.37 135.97 Z" />
<path fill="#333333" opacity="1.00" d=" M 152.48 144.22 C 155.44 137.71 163.21 136.68 168.84 133.48 C 168.03 135.02 167.43 136.98 165.54 137.47 C 160.86 139.05 156.68 141.67 152.48 144.22 Z" />
<path fill="#333333" opacity="1.00" d=" M 143.12 148.41 C 143.27 145.99 144.22 143.76 145.65 141.83 C 146.41 144.46 145.30 146.91 143.12 148.41 Z" />
<path fill="#333333" opacity="1.00" d=" M 201.96 153.06 C 204.19 154.01 205.92 155.74 206.94 157.93 C 204.09 158.05 203.19 155.05 201.96 153.06 Z" />
<path fill="#333333" opacity="1.00" d=" M 211.09 153.13 C 213.84 154.98 215.96 157.68 218.92 159.21 C 220.79 159.28 222.64 158.96 224.48 158.68 C 224.42 159.59 224.35 160.50 224.30 161.41 C 221.92 161.54 219.21 162.38 217.07 160.97 C 214.41 158.98 212.03 156.37 211.09 153.13 Z" />
<path fill="#333333" opacity="1.00" d=" M 120.09 176.27 C 124.79 173.21 129.76 170.61 134.64 167.86 C 134.41 168.59 133.93 170.05 133.70 170.78 C 129.78 173.42 125.83 176.37 121.19 177.57 C 120.91 177.24 120.36 176.59 120.09 176.27 Z" />
<path fill="#333333" opacity="1.00" d=" M 206.80 180.11 C 208.85 178.42 210.34 175.94 212.93 175.00 C 211.77 177.99 209.58 180.50 206.61 181.79 C 206.66 181.37 206.76 180.53 206.80 180.11 Z" />
<path fill="#333333" opacity="1.00" d=" M 165.31 189.47 C 166.10 187.39 167.08 185.35 168.59 183.69 C 168.58 186.04 168.27 189.22 165.31 189.47 Z" />
</g>
</svg>
