<?xml version="1.0" encoding="UTF-8" ?>
<!DOCTYPE svg PUBLIC "-//W3C//DTD SVG 1.1//EN" "http://www.w3.org/Graphics/SVG/1.1/DTD/svg11.dtd">
<svg width="162pt" height="275pt" viewBox="0 0 162 275" version="1.1" xmlns="http://www.w3.org/2000/svg">
<g id="#ffffffff">
<path fill="#FFFFFF" opacity="1.00" d=" M 0.00 0.00 L 162.00 0.00 L 162.00 162.44 C 159.63 161.81 157.23 161.33 154.83 160.85 C 154.96 153.27 153.78 145.12 149.00 138.97 C 146.15 135.26 141.23 134.61 136.92 134.02 C 131.16 133.80 126.40 137.90 123.47 142.50 C 119.13 148.41 118.67 155.93 117.54 162.91 C 117.10 170.23 119.00 178.38 124.52 183.54 C 127.30 186.31 131.51 186.02 135.12 186.55 C 140.06 187.16 144.47 183.97 147.32 180.21 C 150.13 176.38 152.71 172.02 152.79 167.13 C 155.84 167.97 158.95 168.60 162.00 169.44 L 162.00 275.00 L 0.00 275.00 L 0.00 0.00 M 48.61 5.98 C 48.66 43.56 48.58 81.14 48.65 118.73 C 45.36 117.84 42.04 115.79 38.52 116.72 C 30.98 118.09 26.35 125.26 23.90 131.96 C 19.44 130.88 14.96 129.84 10.56 128.52 C 9.62 130.44 8.84 132.80 10.15 134.76 C 14.26 135.72 18.43 136.44 22.52 137.49 C 21.66 144.44 22.18 152.34 27.11 157.78 C 30.11 161.15 34.95 161.12 39.09 161.47 C 42.44 161.67 45.26 159.62 47.87 157.83 C 48.10 160.56 48.63 163.26 48.62 166.01 C 48.62 185.66 48.61 205.32 48.62 224.97 C 48.49 227.23 49.63 229.22 50.46 231.23 C 50.83 208.40 50.53 185.57 50.59 162.74 C 51.32 162.99 52.80 163.50 53.53 163.76 C 53.73 171.50 53.42 179.24 53.08 186.98 C 53.38 202.22 52.58 217.51 53.41 232.73 C 54.22 231.65 54.89 230.44 54.72 229.03 C 54.75 207.34 54.61 185.64 55.01 163.96 C 55.62 163.49 56.84 162.54 57.45 162.06 C 58.32 185.24 57.16 208.47 57.73 231.66 C 60.56 231.02 59.41 228.00 59.72 226.04 C 59.69 213.30 59.72 200.56 59.79 187.82 C 60.23 177.54 58.99 167.19 60.65 156.98 C 60.13 143.99 61.17 130.95 59.86 118.00 C 59.93 80.67 59.85 43.35 59.96 6.02 C 59.48 6.01 58.53 6.00 58.05 5.99 C 57.84 44.92 57.98 83.86 57.85 122.79 C 56.99 123.07 55.28 123.63 54.42 123.91 C 54.89 112.63 54.63 101.34 54.68 90.06 C 54.83 65.36 54.73 40.67 54.60 15.97 C 54.60 12.46 54.70 8.93 54.19 5.44 C 52.96 9.18 53.53 13.18 53.42 17.04 C 53.13 48.04 53.49 79.04 53.23 110.03 C 53.24 114.77 53.71 119.49 53.75 124.23 C 53.01 123.96 51.54 123.41 50.80 123.14 C 51.35 84.14 51.15 45.05 50.87 6.02 C 50.30 6.01 49.18 5.99 48.61 5.98 M 109.78 10.99 C 109.68 28.13 109.71 45.27 109.76 62.41 C 107.06 59.20 105.71 54.72 101.70 52.79 C 100.85 50.82 100.05 48.82 99.37 46.78 C 99.81 43.36 100.59 39.76 99.31 36.43 C 97.67 32.56 94.68 28.95 90.43 27.94 C 85.89 27.77 81.23 28.84 77.35 31.26 C 74.22 33.27 72.87 37.47 73.81 41.01 C 74.73 45.93 75.30 50.91 76.31 55.82 C 77.22 56.37 78.14 56.91 79.07 57.45 C 81.71 56.47 83.94 57.99 85.83 59.70 C 84.46 63.19 80.93 65.08 79.27 68.30 C 78.04 73.70 73.08 78.01 74.05 83.90 C 75.09 86.60 76.87 89.05 76.73 92.09 C 76.24 92.62 75.28 93.68 74.80 94.21 C 74.72 96.71 75.47 99.08 76.55 101.31 C 73.99 104.37 72.48 108.16 71.06 111.83 C 70.76 118.94 71.60 126.07 70.25 133.13 C 70.53 135.21 68.45 136.06 67.19 137.26 C 65.75 138.41 64.72 139.96 63.66 141.44 C 62.67 141.05 61.68 140.66 60.70 140.28 C 62.09 142.51 61.45 144.93 60.76 147.25 C 61.27 147.49 62.28 147.97 62.78 148.21 C 64.81 153.01 70.32 153.01 74.60 154.28 C 74.89 154.76 75.46 155.73 75.75 156.22 C 74.10 160.77 76.18 165.36 76.74 169.91 C 76.60 172.55 75.80 175.28 76.74 177.87 C 77.96 181.55 78.39 185.47 80.01 189.01 C 82.54 194.67 81.12 201.04 81.87 207.00 C 82.96 212.06 83.55 217.38 82.65 222.49 C 79.15 226.67 75.85 231.21 71.17 234.15 C 68.44 235.77 66.43 238.24 64.60 240.77 C 65.15 244.15 66.28 247.97 70.18 248.70 C 73.42 248.16 76.65 247.04 79.13 244.82 C 77.83 242.81 76.59 243.05 75.62 244.81 C 73.69 245.80 71.57 246.15 69.41 245.97 C 68.57 243.84 67.49 241.81 66.31 239.85 C 69.11 237.77 72.25 236.21 75.12 234.22 C 78.52 231.98 80.49 228.31 83.20 225.38 C 84.88 222.62 86.00 219.14 85.06 215.93 C 84.03 212.41 83.96 208.71 83.30 205.11 C 82.54 200.41 84.07 195.65 83.08 190.98 C 82.45 188.89 80.60 187.25 80.68 184.95 C 80.60 182.58 80.12 180.28 79.36 178.06 C 78.18 174.85 79.78 171.40 78.82 168.19 C 77.67 164.48 77.66 160.57 77.53 156.73 C 79.92 156.61 82.30 156.46 84.68 156.23 C 85.23 156.53 86.34 157.15 86.89 157.45 C 86.31 163.28 88.12 168.98 87.79 174.79 C 85.16 174.01 83.52 171.92 82.33 169.58 C 80.33 169.49 80.44 172.22 81.63 173.23 C 83.05 175.83 87.71 175.05 87.52 178.68 C 88.13 181.84 88.74 185.12 90.82 187.70 C 90.50 191.21 91.36 194.63 92.20 198.01 C 91.98 203.96 91.63 210.06 93.29 215.86 C 94.40 220.03 95.59 224.42 94.69 228.75 C 94.05 231.70 91.48 233.50 89.56 235.61 C 86.92 238.29 85.21 241.88 81.93 243.91 C 80.37 245.01 77.75 246.16 78.36 248.51 C 81.56 246.39 85.52 245.19 87.88 241.98 C 90.12 238.81 92.97 236.14 95.26 233.01 C 98.78 228.26 96.28 222.11 95.62 216.85 C 93.71 210.96 93.99 204.70 94.24 198.60 C 94.06 194.68 92.29 190.94 92.85 186.95 C 89.28 182.88 89.24 177.15 89.93 172.06 C 90.69 167.10 87.20 162.75 87.49 157.78 C 91.02 158.72 94.18 161.23 97.98 160.93 C 100.93 160.72 104.07 160.58 106.73 159.14 C 102.86 158.78 99.04 159.61 95.23 160.09 C 95.70 159.33 96.64 157.83 97.10 157.07 C 95.58 157.40 93.99 158.36 92.44 157.57 C 88.78 156.29 84.73 154.61 82.91 150.94 C 83.80 147.37 86.80 144.83 88.31 141.53 C 89.85 137.83 90.82 133.92 91.96 130.08 C 93.97 125.34 91.03 119.86 94.13 115.34 C 93.89 112.21 94.89 109.28 96.46 106.62 C 96.90 106.79 97.79 107.13 98.24 107.30 C 100.75 105.66 101.95 102.57 102.97 99.84 C 101.22 101.00 100.02 102.74 98.59 104.23 C 96.37 101.22 96.95 97.34 97.22 93.86 C 97.91 89.61 97.50 85.27 98.16 81.01 C 99.55 82.09 100.95 83.17 102.41 84.17 C 101.56 81.13 99.28 78.95 97.28 76.65 C 95.01 73.86 95.99 70.04 96.12 66.77 C 96.68 66.09 97.24 65.41 97.79 64.72 C 96.29 64.98 94.65 65.46 94.20 67.13 C 93.17 71.68 94.17 76.41 96.90 80.19 C 95.64 86.18 88.46 88.84 82.96 87.28 C 82.78 87.56 82.42 88.13 82.23 88.41 C 83.46 88.99 84.65 89.68 85.96 90.08 C 89.67 90.32 92.66 87.67 95.69 85.95 C 95.78 91.60 94.55 97.21 95.46 102.84 C 93.48 107.73 92.90 113.04 90.64 117.81 C 88.48 118.38 86.25 118.28 84.05 118.03 C 83.65 113.49 83.50 108.75 80.41 105.10 C 80.35 102.13 78.58 99.69 77.66 96.98 C 77.67 94.07 79.47 91.23 78.68 88.34 C 76.57 85.72 74.97 82.60 75.09 79.15 C 77.51 75.71 80.27 72.44 81.97 68.56 C 82.56 67.01 83.88 65.96 84.97 64.78 C 85.45 65.13 85.94 65.48 86.42 65.85 C 86.05 66.43 85.32 67.61 84.95 68.20 C 86.10 67.58 87.24 66.93 88.37 66.27 C 90.53 65.64 94.18 66.16 94.47 63.14 C 92.30 63.70 90.14 64.33 88.04 65.11 C 87.58 64.84 87.13 64.56 86.68 64.28 C 88.58 60.88 85.88 57.81 85.59 54.43 L 86.48 55.28 C 89.58 53.79 92.01 50.78 91.84 47.22 C 90.38 46.85 89.95 48.41 89.23 49.29 C 88.02 51.47 85.89 52.82 83.98 54.32 C 83.98 54.83 83.97 55.87 83.97 56.38 C 82.40 56.26 80.83 56.07 79.28 55.83 C 77.07 51.45 76.81 46.39 76.07 41.62 C 75.98 38.80 75.01 34.92 77.92 33.16 C 81.16 31.33 84.26 28.90 87.99 28.21 C 90.70 29.13 93.46 30.42 95.32 32.68 C 99.40 39.03 95.88 47.23 100.45 53.43 C 104.33 57.73 107.07 62.83 110.18 67.68 C 108.07 66.47 105.86 65.40 103.42 65.05 C 104.97 67.22 107.53 68.20 109.77 69.46 C 109.62 76.34 109.82 83.23 109.70 90.12 C 109.91 91.56 108.67 92.49 107.96 93.56 C 107.62 96.57 107.68 99.61 107.89 102.63 C 108.42 101.92 109.48 100.51 110.02 99.80 C 110.05 103.49 109.17 107.06 106.95 110.05 C 107.79 113.72 106.62 117.39 105.99 120.99 C 104.82 127.50 100.06 132.50 98.29 138.81 C 97.33 141.31 99.01 143.71 99.43 146.13 C 98.00 148.72 94.38 149.79 93.92 152.98 C 97.54 157.62 104.02 156.93 109.14 158.47 C 108.72 158.87 107.87 159.68 107.44 160.08 C 107.64 163.71 107.31 167.39 105.71 170.70 C 103.77 174.55 104.68 178.91 104.16 183.03 C 103.37 188.53 106.50 193.54 106.98 198.92 C 108.69 209.17 106.76 219.55 107.53 229.85 C 108.05 233.93 110.07 237.75 109.79 241.96 C 109.61 243.78 110.36 246.47 108.11 247.26 C 104.92 249.36 100.81 248.83 97.55 250.77 C 94.61 252.40 91.37 253.48 88.05 253.94 C 84.26 253.65 80.45 252.74 77.13 250.83 C 77.86 249.64 77.43 248.32 77.11 247.08 C 76.56 248.60 76.07 250.14 75.64 251.71 C 78.96 254.79 83.63 255.74 88.01 256.06 C 91.88 256.37 95.32 254.38 98.64 252.71 C 102.29 251.28 106.11 250.36 109.79 249.02 C 109.77 256.48 109.49 263.96 109.90 271.40 C 110.37 271.64 111.30 272.12 111.77 272.35 C 112.52 241.97 111.76 211.55 112.19 181.15 C 113.23 181.64 114.27 182.14 115.31 182.64 C 114.85 188.09 114.86 193.56 115.01 199.02 C 114.79 223.35 114.88 247.68 115.11 272.00 C 115.59 272.00 116.55 272.00 117.02 272.00 C 116.61 242.21 116.69 212.41 116.75 182.62 C 117.67 182.14 118.59 181.67 119.53 181.21 C 119.50 180.83 119.45 180.05 119.42 179.66 C 118.74 179.69 117.36 179.75 116.68 179.77 C 116.77 175.45 116.90 171.07 115.74 166.86 C 115.10 171.23 114.95 175.64 114.75 180.04 C 113.59 179.65 112.44 179.26 111.29 178.86 C 111.30 165.21 111.16 151.56 111.31 137.91 C 112.59 138.23 113.89 138.51 115.15 138.94 C 115.47 145.54 115.34 152.16 115.71 158.75 C 115.99 158.74 116.55 158.71 116.82 158.70 C 116.73 151.99 116.55 145.28 116.99 138.59 C 118.31 138.16 119.64 137.73 120.96 137.30 C 120.93 139.48 120.91 141.63 120.95 143.82 C 124.53 140.96 123.12 136.79 122.59 133.09 C 122.67 94.39 122.65 55.68 122.70 16.97 C 122.48 15.30 123.16 12.85 120.94 12.20 C 120.40 50.76 120.78 89.34 120.48 127.91 C 120.40 130.41 120.29 132.90 120.18 135.40 C 119.07 135.81 117.97 136.21 116.87 136.62 C 116.85 127.40 116.21 118.18 116.68 108.96 C 116.55 76.83 117.21 44.69 116.24 12.57 C 115.45 16.32 115.81 20.19 115.39 23.98 C 114.86 47.65 115.40 71.32 115.11 94.99 C 114.81 102.67 115.36 110.34 115.67 118.01 C 115.12 124.24 114.89 130.49 115.00 136.75 C 114.29 136.57 112.88 136.19 112.18 136.01 C 111.92 126.33 111.99 116.64 112.43 106.97 C 112.06 75.18 112.96 43.37 111.97 11.60 C 111.42 11.45 110.33 11.14 109.78 10.99 M 81.10 93.72 C 84.72 95.15 85.67 99.34 88.89 101.26 C 88.44 97.72 85.37 92.21 81.10 93.72 M 88.31 102.40 C 89.03 104.26 89.59 106.29 91.16 107.66 C 90.69 105.76 90.06 103.91 89.46 102.05 C 89.17 102.13 88.60 102.31 88.31 102.40 M 91.99 173.03 C 93.28 173.99 94.75 174.67 96.18 175.42 C 96.52 177.12 96.89 178.82 97.27 180.52 C 95.82 183.35 95.00 186.49 96.66 189.47 C 97.82 187.79 96.80 185.79 97.06 183.95 C 97.59 182.38 98.61 181.05 99.50 179.68 C 99.22 177.75 98.92 175.83 98.62 173.91 C 98.90 173.55 99.47 172.82 99.75 172.46 C 99.09 172.33 97.78 172.08 97.13 171.96 C 96.61 172.24 95.57 172.82 95.05 173.11 C 94.57 172.45 93.60 171.13 93.12 170.47 C 92.72 171.31 92.34 172.16 91.99 173.03 M 120.34 184.02 C 120.32 207.34 119.82 230.65 119.97 253.96 C 119.95 260.17 119.58 266.42 120.30 272.61 C 123.09 270.60 122.16 266.91 122.32 263.97 C 122.47 237.60 122.38 211.23 122.54 184.86 C 121.99 184.65 120.89 184.23 120.34 184.02 M 98.42 202.55 C 97.91 207.82 97.56 213.48 100.32 218.24 C 99.32 213.05 99.44 207.70 98.42 202.55 Z" />
<path fill="#FFFFFF" opacity="1.00" d=" M 73.55 111.92 C 74.82 108.47 76.43 105.16 77.62 101.68 C 77.61 105.36 78.75 108.92 81.28 111.64 C 82.28 116.37 81.24 121.00 79.60 125.44 C 77.30 130.29 78.79 135.84 77.55 140.94 C 77.95 141.66 78.75 143.09 79.15 143.80 C 77.26 143.48 75.36 143.49 73.52 144.03 C 72.91 145.12 72.29 146.20 71.66 147.28 C 73.25 148.60 74.87 149.91 76.73 150.84 C 74.16 152.70 71.21 151.36 68.47 150.71 C 65.69 149.94 64.33 147.12 62.84 144.91 C 65.99 142.38 68.97 139.65 71.93 136.90 C 72.05 134.43 72.26 131.96 72.79 129.54 C 74.15 123.74 72.63 117.75 73.55 111.92 Z" />
<path fill="#FFFFFF" opacity="1.00" d=" M 24.50 138.15 C 25.67 129.16 31.37 119.82 40.87 118.05 C 43.35 119.09 46.66 118.70 48.57 120.65 C 47.78 126.05 48.01 131.52 48.05 136.96 C 46.78 136.93 44.25 136.85 42.98 136.81 C 44.66 138.66 48.01 138.67 48.45 141.55 C 47.05 141.34 45.65 141.12 44.26 140.88 C 43.85 139.70 43.41 138.53 43.03 137.33 C 42.57 138.05 41.66 139.49 41.20 140.21 C 42.78 142.50 45.46 143.11 48.00 143.70 C 48.02 147.42 48.01 151.15 47.97 154.88 C 46.29 156.20 44.68 157.67 42.75 158.63 C 40.54 159.41 38.14 159.03 35.85 158.96 C 34.60 155.55 32.60 152.44 31.58 148.95 C 30.58 142.11 31.38 134.85 34.74 128.74 C 36.78 125.02 40.45 122.67 42.99 119.36 C 39.91 119.42 37.66 121.65 35.73 123.77 C 31.01 129.36 28.97 136.76 28.77 143.97 C 28.72 148.32 29.84 152.70 32.46 156.23 C 33.39 156.98 34.25 157.80 35.05 158.71 C 31.23 159.22 28.35 156.29 26.73 153.25 C 24.12 148.69 24.07 143.23 24.50 138.15 Z" />
<path fill="#FFFFFF" opacity="1.00" d=" M 108.46 118.62 C 110.75 125.14 109.79 132.30 108.83 139.00 C 108.68 143.04 108.86 147.09 108.79 151.14 C 105.48 151.13 102.27 150.33 99.15 149.31 C 99.70 148.73 100.79 147.57 101.33 146.99 C 101.02 144.62 100.08 142.35 100.03 139.95 C 100.92 134.96 104.75 131.27 106.42 126.59 C 107.43 124.03 108.00 121.32 108.46 118.62 Z" />
<path fill="#FFFFFF" opacity="1.00" d=" M 79.75 133.13 C 79.82 128.43 82.74 124.54 83.88 120.09 C 86.17 120.12 88.47 120.08 90.74 119.74 C 90.14 125.04 90.71 130.57 88.61 135.63 C 87.55 138.80 86.37 142.69 82.41 143.11 C 83.13 143.61 83.88 144.08 84.61 144.59 C 83.02 145.93 82.07 147.82 81.08 149.61 C 78.85 149.11 76.48 148.94 74.49 147.71 C 75.18 146.67 76.00 145.75 76.81 144.81 C 78.24 145.34 79.65 145.90 81.06 146.49 C 81.78 145.62 82.37 144.65 82.99 143.71 L 80.87 144.02 C 80.50 142.47 80.09 140.94 79.67 139.41 C 79.70 137.32 79.55 135.22 79.75 133.13 Z" />
<path fill="#FFFFFF" opacity="1.00" d=" M 49.80 125.16 C 51.04 125.64 53.51 125.14 53.39 127.08 C 53.42 138.58 53.82 150.10 52.87 161.58 C 52.20 161.33 50.85 160.85 50.18 160.60 C 49.60 148.80 50.04 136.97 49.80 125.16 Z" />
<path fill="#FFFFFF" opacity="1.00" d=" M 54.84 125.63 C 56.02 125.40 57.19 125.18 58.37 124.97 C 58.34 135.64 58.27 146.31 58.36 156.98 C 58.25 158.09 58.51 159.34 57.98 160.37 C 57.17 160.70 55.56 161.35 54.75 161.68 C 54.52 154.80 55.33 147.93 55.04 141.05 C 54.83 135.91 54.65 130.77 54.84 125.63 Z" />
<path fill="#FFFFFF" opacity="1.00" d=" M 10.54 131.57 C 14.98 130.71 19.17 133.07 23.52 133.58 C 23.37 134.10 23.07 135.14 22.92 135.66 C 18.78 134.50 13.78 134.83 10.54 131.57 Z" />
<path fill="#FFFFFF" opacity="1.00" d=" M 126.73 141.67 C 129.01 138.60 132.61 137.13 136.04 135.76 C 139.86 136.73 144.55 136.40 147.24 139.81 C 152.32 145.03 151.98 152.68 153.42 159.29 C 152.87 159.59 152.31 159.89 151.75 160.19 C 148.14 158.93 144.38 158.19 140.68 157.26 C 139.00 159.14 138.00 161.39 138.68 163.92 C 143.10 165.12 147.62 165.91 152.04 167.12 C 149.18 172.79 147.09 179.65 141.17 182.92 C 138.26 184.72 134.79 184.07 131.60 183.78 C 131.70 183.16 131.88 181.91 131.98 181.29 C 126.45 174.52 126.45 165.26 127.69 157.06 C 128.75 151.81 130.59 146.49 134.30 142.49 C 135.81 140.81 137.84 139.57 138.79 137.43 C 134.32 137.42 132.03 141.71 129.89 144.95 C 126.14 151.92 123.96 160.03 124.99 167.97 C 125.55 173.16 126.58 178.70 130.33 182.61 L 131.16 181.27 C 131.14 182.32 131.12 183.36 131.11 184.41 C 126.75 183.05 123.08 179.92 121.64 175.52 C 117.76 164.40 119.22 150.97 126.73 141.67 Z" />
<path fill="#FFFFFF" opacity="1.00" d=" M 77.73 150.89 C 80.75 150.92 82.89 152.92 84.27 155.44 C 81.23 155.27 78.22 154.78 75.29 153.95 C 76.13 152.95 76.95 151.93 77.73 150.89 Z" />
<path fill="#FFFFFF" opacity="1.00" d=" M 97.17 150.47 C 101.04 151.49 104.93 152.46 108.83 153.34 C 108.79 154.39 108.74 155.45 108.69 156.50 C 104.77 154.93 100.53 154.59 96.46 153.54 C 96.64 152.77 96.99 151.24 97.17 150.47 Z" />
<path fill="#FFFFFF" opacity="1.00" d=" M 139.12 160.94 C 143.04 159.36 147.01 161.08 150.85 161.99 C 154.55 162.93 158.32 163.57 162.00 164.60 L 162.00 167.24 C 154.51 164.65 146.11 164.84 139.12 160.94 Z" />
<path fill="#FFFFFF" opacity="1.00" d=" M 108.69 167.00 C 108.87 171.01 108.72 175.04 108.91 179.05 C 109.62 180.94 109.81 182.96 109.76 184.96 C 109.69 191.07 109.78 197.19 109.65 203.30 C 109.13 197.77 106.91 192.59 106.45 187.06 C 105.60 180.28 106.06 173.36 108.69 167.00 Z" />
</g>
<g id="#4e4e4eff">
<path fill="#333333" opacity="1.00" d=" M 48.61 5.98 C 49.18 5.99 50.30 6.01 50.87 6.02 C 51.15 45.05 51.35 84.14 50.80 123.14 C 51.54 123.41 53.01 123.96 53.75 124.23 C 53.71 119.49 53.24 114.77 53.23 110.03 C 53.49 79.04 53.13 48.04 53.42 17.04 C 53.53 13.18 52.96 9.18 54.19 5.44 C 54.70 8.93 54.60 12.46 54.60 15.97 C 54.73 40.67 54.83 65.36 54.68 90.06 C 54.63 101.34 54.89 112.63 54.42 123.91 C 55.28 123.63 56.99 123.07 57.85 122.79 C 57.98 83.86 57.84 44.92 58.05 5.99 C 58.53 6.00 59.48 6.01 59.96 6.02 C 59.85 43.35 59.93 80.67 59.86 118.00 C 61.17 130.95 60.13 143.99 60.65 156.98 C 58.99 167.19 60.23 177.54 59.79 187.82 C 59.72 200.56 59.69 213.30 59.72 226.04 C 59.41 228.00 60.56 231.02 57.73 231.66 C 57.16 208.47 58.32 185.24 57.45 162.06 C 56.84 162.54 55.62 163.49 55.01 163.96 C 54.61 185.64 54.75 207.34 54.72 229.03 C 54.89 230.44 54.22 231.65 53.41 232.73 C 52.58 217.51 53.38 202.22 53.08 186.98 C 53.42 179.24 53.73 171.50 53.53 163.76 C 52.80 163.50 51.32 162.99 50.59 162.74 C 50.53 185.57 50.83 208.40 50.46 231.23 C 49.63 229.22 48.49 227.23 48.62 224.97 C 48.61 205.32 48.62 185.66 48.62 166.01 C 48.63 163.26 48.10 160.56 47.87 157.83 C 45.26 159.62 42.44 161.67 39.09 161.47 C 34.95 161.12 30.11 161.15 27.11 157.78 C 22.18 152.34 21.66 144.44 22.52 137.49 C 18.43 136.44 14.26 135.72 10.15 134.76 C 8.84 132.80 9.62 130.44 10.56 128.52 C 14.96 129.84 19.44 130.88 23.90 131.96 C 26.35 125.26 30.98 118.09 38.52 116.72 C 42.04 115.79 45.36 117.84 48.65 118.73 C 48.58 81.14 48.66 43.56 48.61 5.98 M 24.50 138.15 C 24.07 143.23 24.12 148.69 26.73 153.25 C 28.35 156.29 31.23 159.22 35.05 158.71 C 34.25 157.80 33.39 156.98 32.46 156.23 C 29.84 152.70 28.72 148.32 28.77 143.97 C 28.97 136.76 31.01 129.36 35.73 123.77 C 37.66 121.65 39.91 119.42 42.99 119.36 C 40.45 122.67 36.78 125.02 34.74 128.74 C 31.38 134.85 30.58 142.11 31.58 148.95 C 32.60 152.44 34.60 155.55 35.85 158.96 C 38.14 159.03 40.54 159.41 42.75 158.63 C 44.68 157.67 46.29 156.20 47.97 154.88 C 48.01 151.15 48.02 147.42 48.00 143.70 C 45.46 143.11 42.78 142.50 41.20 140.21 C 41.66 139.49 42.57 138.05 43.03 137.33 C 43.41 138.53 43.85 139.70 44.26 140.88 C 45.65 141.12 47.05 141.34 48.45 141.55 C 48.01 138.67 44.66 138.66 42.98 136.81 C 44.25 136.85 46.78 136.93 48.05 136.96 C 48.01 131.52 47.78 126.05 48.57 120.65 C 46.66 118.70 43.35 119.09 40.87 118.05 C 31.37 119.82 25.67 129.16 24.50 138.15 M 49.80 125.16 C 50.04 136.97 49.60 148.80 50.18 160.60 C 50.85 160.85 52.20 161.33 52.87 161.58 C 53.82 150.10 53.42 138.58 53.39 127.08 C 53.51 125.14 51.04 125.64 49.80 125.16 M 54.84 125.63 C 54.65 130.77 54.83 135.91 55.04 141.05 C 55.33 147.93 54.52 154.80 54.75 161.68 C 55.56 161.35 57.17 160.70 57.98 160.37 C 58.51 159.34 58.25 158.09 58.36 156.98 C 58.27 146.31 58.34 135.64 58.37 124.97 C 57.19 125.18 56.02 125.40 54.84 125.63 M 10.54 131.57 C 13.78 134.83 18.78 134.50 22.92 135.66 C 23.07 135.14 23.37 134.10 23.52 133.58 C 19.17 133.07 14.98 130.71 10.54 131.57 Z" />
<path fill="#333333" opacity="1.00" d=" M 109.78 10.99 C 110.33 11.14 111.42 11.45 111.97 11.60 C 112.96 43.37 112.06 75.18 112.43 106.97 C 111.99 116.64 111.92 126.33 112.18 136.01 C 112.88 136.19 114.29 136.57 115.00 136.75 C 114.89 130.49 115.12 124.24 115.67 118.01 C 115.36 110.34 114.81 102.67 115.11 94.99 C 115.40 71.32 114.86 47.65 115.39 23.98 C 115.81 20.19 115.45 16.32 116.24 12.57 C 117.21 44.69 116.55 76.83 116.68 108.96 C 116.21 118.18 116.85 127.40 116.87 136.62 C 117.97 136.21 119.07 135.81 120.18 135.40 C 120.29 132.90 120.40 130.41 120.48 127.91 C 120.78 89.34 120.40 50.76 120.94 12.20 C 123.16 12.85 122.48 15.30 122.70 16.97 C 122.65 55.68 122.67 94.39 122.59 133.09 C 123.12 136.79 124.53 140.96 120.95 143.82 C 120.91 141.63 120.93 139.48 120.96 137.30 C 119.64 137.73 118.31 138.16 116.99 138.59 C 116.55 145.28 116.73 151.99 116.82 158.70 C 116.55 158.71 115.99 158.74 115.71 158.75 C 115.34 152.16 115.47 145.54 115.15 138.94 C 113.89 138.51 112.59 138.23 111.31 137.91 C 111.16 151.56 111.30 165.21 111.29 178.86 C 112.44 179.26 113.59 179.65 114.75 180.04 C 114.95 175.64 115.10 171.23 115.74 166.86 C 116.90 171.07 116.77 175.45 116.68 179.77 C 117.36 179.75 118.74 179.69 119.42 179.66 C 119.45 180.05 119.50 180.83 119.53 181.21 C 118.59 181.67 117.67 182.14 116.75 182.62 C 116.69 212.41 116.61 242.21 117.02 272.00 C 116.55 272.00 115.59 272.00 115.11 272.00 C 114.88 247.68 114.79 223.35 115.01 199.02 C 114.86 193.56 114.85 188.09 115.31 182.64 C 114.27 182.14 113.23 181.64 112.19 181.15 C 111.76 211.55 112.52 241.97 111.77 272.35 C 111.30 272.12 110.37 271.64 109.90 271.40 C 109.49 263.96 109.77 256.48 109.79 249.02 C 106.11 250.36 102.29 251.28 98.64 252.71 C 95.32 254.38 91.88 256.37 88.01 256.06 C 83.63 255.74 78.96 254.79 75.64 251.71 C 76.07 250.14 76.56 248.60 77.11 247.08 C 77.43 248.32 77.86 249.64 77.13 250.83 C 80.45 252.74 84.26 253.65 88.05 253.94 C 91.37 253.48 94.61 252.40 97.55 250.77 C 100.81 248.83 104.92 249.36 108.11 247.26 C 110.36 246.47 109.61 243.78 109.79 241.96 C 110.07 237.75 108.05 233.93 107.53 229.85 C 106.76 219.55 108.69 209.17 106.98 198.92 C 106.50 193.54 103.37 188.53 104.16 183.03 C 104.68 178.91 103.77 174.55 105.71 170.70 C 107.31 167.39 107.64 163.71 107.44 160.08 C 107.87 159.68 108.72 158.87 109.14 158.47 C 104.02 156.93 97.54 157.62 93.92 152.98 C 94.38 149.79 98.00 148.72 99.43 146.13 C 99.01 143.71 97.33 141.31 98.29 138.81 C 100.06 132.50 104.82 127.50 105.99 120.99 C 106.62 117.39 107.79 113.72 106.95 110.05 C 109.17 107.06 110.05 103.49 110.02 99.80 C 109.48 100.51 108.42 101.92 107.89 102.63 C 107.68 99.61 107.62 96.57 107.96 93.56 C 108.67 92.49 109.91 91.56 109.70 90.12 C 109.82 83.23 109.62 76.34 109.77 69.46 C 107.53 68.20 104.97 67.22 103.42 65.05 C 105.86 65.40 108.07 66.47 110.18 67.68 C 107.07 62.83 104.33 57.73 100.45 53.43 C 95.88 47.23 99.40 39.03 95.32 32.68 C 93.46 30.42 90.70 29.13 87.99 28.21 C 84.26 28.90 81.16 31.33 77.92 33.16 C 75.01 34.92 75.98 38.80 76.07 41.62 C 76.81 46.39 77.07 51.45 79.28 55.83 C 80.83 56.07 82.40 56.26 83.97 56.38 C 83.97 55.87 83.98 54.83 83.98 54.32 C 85.89 52.82 88.02 51.47 89.23 49.29 C 89.95 48.41 90.38 46.85 91.84 47.22 C 92.01 50.78 89.58 53.79 86.48 55.28 L 85.59 54.43 C 85.88 57.81 88.58 60.88 86.68 64.28 C 87.13 64.56 87.58 64.84 88.04 65.11 C 90.14 64.33 92.30 63.70 94.47 63.14 C 94.18 66.16 90.53 65.64 88.37 66.27 C 87.24 66.93 86.10 67.58 84.95 68.20 C 85.32 67.61 86.05 66.43 86.42 65.85 C 85.94 65.48 85.45 65.13 84.97 64.78 C 83.88 65.96 82.56 67.01 81.97 68.56 C 80.27 72.44 77.51 75.71 75.09 79.15 C 74.97 82.60 76.57 85.72 78.68 88.34 C 79.47 91.23 77.67 94.07 77.66 96.98 C 78.58 99.69 80.35 102.13 80.41 105.10 C 83.50 108.75 83.65 113.49 84.05 118.03 C 86.25 118.28 88.48 118.38 90.64 117.81 C 92.90 113.04 93.48 107.73 95.46 102.84 C 94.55 97.21 95.78 91.60 95.69 85.95 C 92.66 87.67 89.67 90.32 85.96 90.08 C 84.65 89.68 83.46 88.99 82.23 88.41 C 82.42 88.13 82.78 87.56 82.96 87.28 C 88.46 88.84 95.64 86.18 96.90 80.19 C 94.17 76.41 93.17 71.68 94.20 67.13 C 94.65 65.46 96.29 64.98 97.79 64.72 C 97.24 65.41 96.68 66.09 96.12 66.77 C 95.99 70.04 95.01 73.86 97.28 76.65 C 99.28 78.95 101.56 81.13 102.41 84.17 C 100.95 83.17 99.55 82.09 98.16 81.01 C 97.50 85.27 97.91 89.61 97.22 93.86 C 96.95 97.34 96.37 101.22 98.59 104.23 C 100.02 102.74 101.22 101.00 102.97 99.84 C 101.95 102.57 100.75 105.66 98.24 107.30 C 97.79 107.13 96.90 106.79 96.46 106.62 C 94.89 109.28 93.89 112.21 94.13 115.34 C 91.03 119.86 93.97 125.34 91.96 130.08 C 90.82 133.92 89.85 137.83 88.31 141.53 C 86.80 144.83 83.80 147.37 82.91 150.94 C 84.73 154.61 88.78 156.29 92.44 157.57 C 93.99 158.36 95.58 157.40 97.10 157.07 C 96.64 157.83 95.70 159.33 95.23 160.09 C 99.04 159.61 102.86 158.78 106.73 159.14 C 104.07 160.58 100.93 160.72 97.98 160.93 C 94.18 161.23 91.02 158.72 87.49 157.78 C 87.20 162.75 90.69 167.10 89.93 172.06 C 89.24 177.15 89.28 182.88 92.85 186.95 C 92.29 190.94 94.06 194.68 94.24 198.60 C 93.99 204.70 93.71 210.96 95.62 216.85 C 96.28 222.11 98.78 228.26 95.26 233.01 C 92.97 236.14 90.12 238.81 87.88 241.98 C 85.52 245.19 81.56 246.39 78.36 248.51 C 77.75 246.16 80.37 245.01 81.93 243.91 C 85.21 241.88 86.92 238.29 89.56 235.61 C 91.48 233.50 94.05 231.70 94.69 228.75 C 95.59 224.42 94.40 220.03 93.29 215.86 C 91.63 210.06 91.98 203.96 92.20 198.01 C 91.36 194.63 90.50 191.21 90.82 187.70 C 88.74 185.12 88.13 181.84 87.52 178.68 C 87.71 175.05 83.05 175.83 81.63 173.23 C 80.44 172.22 80.33 169.49 82.33 169.58 C 83.52 171.92 85.16 174.01 87.79 174.79 C 88.12 168.98 86.31 163.28 86.89 157.45 C 86.34 157.15 85.23 156.53 84.68 156.23 C 82.30 156.46 79.92 156.61 77.53 156.73 C 77.66 160.57 77.67 164.48 78.82 168.19 C 79.78 171.40 78.18 174.85 79.36 178.06 C 80.12 180.28 80.60 182.58 80.68 184.95 C 80.60 187.25 82.45 188.89 83.08 190.98 C 84.07 195.65 82.54 200.41 83.30 205.11 C 83.96 208.71 84.03 212.41 85.06 215.93 C 86.00 219.14 84.88 222.62 83.20 225.38 C 80.49 228.31 78.52 231.98 75.12 234.22 C 72.25 236.21 69.11 237.77 66.31 239.85 C 67.49 241.81 68.57 243.84 69.41 245.97 C 71.57 246.15 73.69 245.80 75.62 244.81 C 76.59 243.05 77.83 242.81 79.13 244.82 C 76.65 247.04 73.42 248.16 70.18 248.70 C 66.28 247.97 65.15 244.15 64.60 240.77 C 66.43 238.24 68.44 235.77 71.17 234.15 C 75.85 231.21 79.15 226.67 82.65 222.49 C 83.55 217.38 82.96 212.06 81.87 207.00 C 81.12 201.04 82.54 194.67 80.01 189.01 C 78.39 185.47 77.96 181.55 76.74 177.87 C 75.80 175.28 76.60 172.55 76.74 169.91 C 76.18 165.36 74.10 160.77 75.75 156.22 C 75.46 155.73 74.89 154.76 74.60 154.28 C 70.32 153.01 64.81 153.01 62.78 148.21 C 62.28 147.97 61.27 147.49 60.76 147.25 C 61.45 144.93 62.09 142.51 60.70 140.28 C 61.68 140.66 62.67 141.05 63.66 141.44 C 64.72 139.96 65.75 138.41 67.19 137.26 C 68.45 136.06 70.53 135.21 70.25 133.13 C 71.60 126.07 70.76 118.94 71.06 111.83 C 72.48 108.16 73.99 104.37 76.55 101.31 C 75.47 99.08 74.72 96.71 74.80 94.21 C 75.28 93.68 76.24 92.62 76.73 92.09 C 76.87 89.05 75.09 86.60 74.05 83.90 C 73.08 78.01 78.04 73.70 79.27 68.30 C 80.93 65.08 84.46 63.19 85.83 59.70 C 83.94 57.99 81.71 56.47 79.07 57.45 C 78.14 56.91 77.22 56.37 76.31 55.82 C 75.30 50.91 74.73 45.93 73.81 41.01 C 72.87 37.47 74.22 33.27 77.35 31.26 C 81.23 28.84 85.89 27.77 90.43 27.94 C 94.68 28.95 97.67 32.56 99.31 36.43 C 100.59 39.76 99.81 43.36 99.37 46.78 C 100.05 48.82 100.85 50.82 101.70 52.79 C 105.71 54.72 107.06 59.20 109.76 62.41 C 109.71 45.27 109.68 28.13 109.78 10.99 M 73.55 111.92 C 72.63 117.75 74.15 123.74 72.79 129.54 C 72.26 131.96 72.05 134.43 71.93 136.90 C 68.97 139.65 65.99 142.38 62.84 144.91 C 64.33 147.12 65.69 149.94 68.47 150.71 C 71.21 151.36 74.16 152.70 76.73 150.84 C 74.87 149.91 73.25 148.60 71.66 147.28 C 72.29 146.20 72.91 145.12 73.52 144.03 C 75.36 143.49 77.26 143.48 79.15 143.80 C 78.75 143.09 77.95 141.66 77.55 140.94 C 78.79 135.84 77.30 130.29 79.60 125.44 C 81.24 121.00 82.28 116.37 81.28 111.64 C 78.75 108.92 77.61 105.36 77.62 101.68 C 76.43 105.16 74.82 108.47 73.55 111.92 M 108.46 118.62 C 108.00 121.32 107.43 124.03 106.42 126.59 C 104.75 131.27 100.92 134.96 100.03 139.95 C 100.08 142.35 101.02 144.62 101.33 146.99 C 100.79 147.57 99.70 148.73 99.15 149.31 C 102.27 150.33 105.48 151.13 108.79 151.14 C 108.86 147.09 108.68 143.04 108.83 139.00 C 109.79 132.30 110.75 125.14 108.46 118.62 M 79.75 133.13 C 79.55 135.22 79.70 137.32 79.67 139.41 C 80.09 140.94 80.50 142.47 80.87 144.02 L 82.99 143.71 C 82.37 144.65 81.78 145.62 81.06 146.49 C 79.65 145.90 78.24 145.34 76.81 144.81 C 76.00 145.75 75.18 146.67 74.49 147.71 C 76.48 148.94 78.85 149.11 81.08 149.61 C 82.07 147.82 83.02 145.93 84.61 144.59 C 83.88 144.08 83.13 143.61 82.41 143.11 C 86.37 142.69 87.55 138.80 88.61 135.63 C 90.71 130.57 90.14 125.04 90.74 119.74 C 88.47 120.08 86.17 120.12 83.88 120.09 C 82.74 124.54 79.82 128.43 79.75 133.13 M 77.73 150.89 C 76.95 151.93 76.13 152.95 75.29 153.95 C 78.22 154.78 81.23 155.27 84.27 155.44 C 82.89 152.92 80.75 150.92 77.73 150.89 M 97.17 150.47 C 96.99 151.24 96.64 152.77 96.46 153.54 C 100.53 154.59 104.77 154.93 108.69 156.50 C 108.74 155.45 108.79 154.39 108.83 153.34 C 104.93 152.46 101.04 151.49 97.17 150.47 M 108.69 167.00 C 106.06 173.36 105.60 180.28 106.45 187.06 C 106.91 192.59 109.13 197.77 109.65 203.30 C 109.78 197.19 109.69 191.07 109.76 184.96 C 109.81 182.96 109.62 180.94 108.91 179.05 C 108.72 175.04 108.87 171.01 108.69 167.00 Z" />
<path fill="#333333" opacity="1.00" d=" M 81.10 93.72 C 85.37 92.21 88.44 97.72 88.89 101.26 C 85.67 99.34 84.72 95.15 81.10 93.72 Z" />
<path fill="#333333" opacity="1.00" d=" M 88.31 102.40 C 88.60 102.31 89.17 102.13 89.46 102.05 C 90.06 103.91 90.69 105.76 91.16 107.66 C 89.59 106.29 89.03 104.26 88.31 102.40 Z" />
<path fill="#333333" opacity="1.00" d=" M 123.47 142.50 C 126.40 137.90 131.16 133.80 136.92 134.02 C 141.23 134.61 146.15 135.26 149.00 138.97 C 153.78 145.12 154.96 153.27 154.83 160.85 C 157.23 161.33 159.63 161.81 162.00 162.44 L 162.00 164.60 C 158.32 163.57 154.55 162.93 150.85 161.99 C 147.01 161.08 143.04 159.36 139.12 160.94 C 146.11 164.84 154.51 164.65 162.00 167.24 L 162.00 169.44 C 158.95 168.60 155.84 167.97 152.79 167.13 C 152.71 172.02 150.13 176.38 147.32 180.21 C 144.47 183.97 140.06 187.16 135.12 186.55 C 131.51 186.02 127.30 186.31 124.52 183.54 C 119.00 178.38 117.10 170.23 117.54 162.91 C 118.67 155.93 119.13 148.41 123.47 142.50 M 126.73 141.67 C 119.22 150.97 117.76 164.40 121.64 175.52 C 123.08 179.92 126.75 183.05 131.11 184.41 C 131.12 183.36 131.14 182.32 131.16 181.27 L 130.33 182.61 C 126.58 178.70 125.55 173.16 124.99 167.97 C 123.96 160.03 126.14 151.92 129.89 144.95 C 132.03 141.71 134.32 137.42 138.79 137.43 C 137.84 139.57 135.81 140.81 134.30 142.49 C 130.59 146.49 128.75 151.81 127.69 157.06 C 126.45 165.26 126.45 174.52 131.98 181.29 C 131.88 181.91 131.70 183.16 131.60 183.78 C 134.79 184.07 138.26 184.72 141.17 182.92 C 147.09 179.65 149.18 172.79 152.04 167.12 C 147.62 165.91 143.10 165.12 138.68 163.92 C 138.00 161.39 139.00 159.14 140.68 157.26 C 144.38 158.19 148.14 158.93 151.75 160.19 C 152.31 159.89 152.87 159.59 153.42 159.29 C 151.98 152.68 152.32 145.03 147.24 139.81 C 144.55 136.40 139.86 136.73 136.04 135.76 C 132.61 137.13 129.01 138.60 126.73 141.67 Z" />
<path fill="#333333" opacity="1.00" d=" M 91.99 173.03 C 92.34 172.16 92.72 171.31 93.12 170.47 C 93.60 171.13 94.57 172.45 95.05 173.11 C 95.57 172.82 96.61 172.24 97.13 171.96 C 97.78 172.08 99.09 172.33 99.75 172.46 C 99.47 172.82 98.90 173.55 98.62 173.91 C 98.92 175.83 99.22 177.75 99.50 179.68 C 98.61 181.05 97.59 182.38 97.06 183.95 C 96.80 185.79 97.82 187.79 96.66 189.47 C 95.00 186.49 95.82 183.35 97.27 180.52 C 96.89 178.82 96.52 177.12 96.18 175.42 C 94.75 174.67 93.28 173.99 91.99 173.03 Z" />
<path fill="#333333" opacity="1.00" d=" M 120.34 184.02 C 120.89 184.23 121.99 184.65 122.54 184.86 C 122.38 211.23 122.47 237.60 122.32 263.97 C 122.16 266.91 123.09 270.60 120.30 272.61 C 119.58 266.42 119.95 260.17 119.97 253.96 C 119.82 230.65 120.32 207.34 120.34 184.02 Z" />
<path fill="#333333" opacity="1.00" d=" M 98.42 202.55 C 99.44 207.70 99.32 213.05 100.32 218.24 C 97.56 213.48 97.91 207.82 98.42 202.55 Z" />
</g>
</svg>
