<?xml version="1.0" encoding="UTF-8" ?>
<!DOCTYPE svg PUBLIC "-//W3C//DTD SVG 1.1//EN" "http://www.w3.org/Graphics/SVG/1.1/DTD/svg11.dtd">
<svg width="227pt" height="300pt" viewBox="0 0 227 300" version="1.1" xmlns="http://www.w3.org/2000/svg">
<g id="#ffffffff">
<path fill="#FFFFFF" opacity="1.00" d=" M 0.00 0.00 L 227.00 0.00 L 227.00 300.00 L 0.00 300.00 L 0.00 0.00 M 115.59 7.04 C 115.74 11.59 117.75 15.84 119.78 19.82 C 122.83 24.27 127.78 27.30 129.69 32.47 C 131.53 37.23 136.68 39.77 138.03 44.81 C 139.00 48.61 140.71 52.24 141.00 56.18 C 143.02 62.07 140.59 68.06 140.04 73.96 C 140.72 76.45 141.16 78.99 141.64 81.53 L 140.94 81.64 C 140.41 83.42 140.11 85.38 138.80 86.80 C 135.75 90.15 134.42 94.71 131.14 97.89 C 127.74 101.06 130.80 106.17 129.03 110.04 C 128.40 110.00 127.15 109.93 126.53 109.89 C 126.91 105.13 125.22 100.61 124.32 96.01 C 126.02 94.75 127.66 93.41 129.12 91.88 C 128.98 90.94 128.84 90.01 128.70 89.07 C 127.65 90.89 126.58 92.70 125.57 94.54 C 125.09 94.41 124.14 94.14 123.66 94.00 C 124.16 91.74 124.64 89.48 125.19 87.23 C 125.64 87.51 126.53 88.09 126.98 88.38 C 127.91 86.74 128.82 85.10 129.74 83.45 C 130.78 83.76 131.81 84.07 132.85 84.38 L 129.09 82.79 L 132.49 82.37 C 132.02 79.25 131.82 76.05 132.60 72.96 C 134.49 69.69 133.37 65.85 133.98 62.30 C 134.67 62.35 136.05 62.45 136.74 62.50 C 136.08 62.28 134.76 61.83 134.10 61.60 C 135.50 60.38 136.91 59.16 138.34 57.97 C 138.37 57.44 138.42 56.37 138.45 55.83 C 134.78 56.81 133.27 60.57 132.04 63.78 C 133.21 67.82 132.07 71.93 131.68 76.00 C 131.36 78.57 130.73 81.78 127.95 82.74 C 127.36 83.86 126.78 84.99 126.21 86.11 C 126.09 84.37 125.98 82.62 125.87 80.87 C 126.60 76.89 124.98 72.99 124.75 69.04 C 125.06 65.89 127.36 63.45 129.00 60.89 C 126.92 55.12 125.59 49.14 124.35 43.15 C 123.67 39.28 120.76 36.42 118.89 33.12 C 119.85 32.42 120.58 31.54 121.06 30.48 C 120.32 29.94 118.84 28.85 118.10 28.30 L 118.74 30.60 C 117.29 30.55 115.84 30.48 114.40 30.41 C 114.36 30.85 114.29 31.73 114.26 32.17 C 112.57 30.59 110.65 29.13 109.53 27.06 C 109.27 22.97 113.28 20.45 116.49 18.88 C 115.94 18.44 115.40 18.01 114.84 17.57 C 113.78 18.34 112.72 19.10 111.64 19.85 C 109.23 17.67 106.62 15.58 103.55 14.41 C 102.04 13.82 100.77 15.04 99.55 15.70 C 97.73 16.84 95.38 18.23 95.75 20.74 C 96.52 28.83 101.26 36.29 107.50 41.34 C 109.33 43.01 111.82 43.29 114.18 43.48 C 114.46 42.94 115.02 41.88 115.30 41.34 C 116.33 41.00 117.36 40.66 118.39 40.31 C 118.72 39.25 119.37 37.13 119.70 36.07 C 122.73 43.06 123.96 50.60 125.76 57.95 C 125.85 59.65 126.56 62.11 124.58 62.98 C 124.71 63.16 124.98 63.51 125.11 63.68 C 123.67 68.00 122.23 72.56 123.42 77.13 C 120.62 78.15 118.66 80.34 117.40 82.99 C 116.75 83.05 115.46 83.19 114.81 83.26 C 117.46 75.24 116.35 66.40 114.31 58.36 C 111.96 56.03 109.45 53.60 106.07 52.97 C 101.41 52.04 95.54 52.13 92.55 56.47 C 88.60 60.78 91.74 66.67 91.20 71.73 C 93.58 76.12 92.57 81.18 92.29 85.91 C 94.76 83.00 93.98 79.00 94.19 75.49 C 95.54 78.33 96.05 82.17 99.23 83.61 C 102.51 85.07 106.15 86.87 109.82 85.74 C 112.27 85.01 114.80 84.65 117.36 84.54 C 114.55 87.80 110.68 89.83 107.71 92.91 C 108.04 92.95 108.69 93.04 109.01 93.09 C 112.32 91.16 115.70 89.05 118.01 85.93 C 119.55 83.43 120.68 80.67 122.75 78.51 C 122.57 79.44 122.21 81.31 122.03 82.24 C 122.69 81.29 123.36 80.36 124.04 79.42 C 124.29 81.62 124.46 83.82 124.71 86.02 C 120.17 91.40 123.01 98.36 124.36 104.34 C 123.95 105.15 123.55 105.97 123.14 106.78 C 120.38 107.40 117.76 108.44 115.24 109.71 C 114.39 105.61 112.84 101.67 110.24 98.35 C 110.98 102.16 113.29 105.55 113.13 109.55 C 109.56 110.58 106.59 112.84 103.45 114.71 C 103.53 115.29 103.69 116.45 103.77 117.03 C 100.32 116.64 96.85 116.68 93.42 116.32 C 91.49 115.38 89.99 113.76 88.21 112.57 C 88.44 113.72 88.67 114.87 88.92 116.02 C 93.62 118.21 98.36 120.55 103.45 121.65 C 102.22 120.43 100.85 119.42 99.32 118.60 C 101.82 119.44 103.55 118.76 104.53 116.56 C 106.06 115.95 107.57 115.29 109.05 114.56 C 110.42 112.24 113.37 111.94 115.52 110.70 L 114.06 110.03 C 117.74 110.06 121.36 109.39 124.91 108.43 C 124.94 108.79 124.98 109.51 125.01 109.87 C 127.96 111.33 126.98 115.04 128.53 117.49 C 129.02 118.85 130.62 121.40 128.29 121.76 C 128.07 121.23 127.63 120.17 127.40 119.64 C 125.02 118.19 121.73 116.26 119.34 118.82 C 118.32 117.49 117.77 115.47 115.93 115.06 C 114.27 114.69 112.18 113.12 110.78 114.81 C 109.30 116.57 109.33 119.05 108.68 121.17 C 109.48 120.45 110.28 119.73 111.07 119.01 C 111.16 117.95 111.25 116.90 111.35 115.85 C 112.83 116.28 114.30 116.74 115.78 117.18 C 116.38 118.41 116.97 119.63 117.54 120.88 C 116.59 120.92 114.71 121.01 113.77 121.05 C 111.77 122.91 110.14 125.16 109.34 127.80 C 111.39 126.84 112.79 125.08 114.08 123.29 C 116.67 122.65 119.89 122.08 120.62 118.98 C 123.78 118.85 126.22 121.01 127.54 123.71 C 128.14 123.70 129.34 123.70 129.94 123.70 C 130.16 128.10 127.83 131.82 125.61 135.38 C 124.72 138.29 125.25 141.46 125.04 144.47 L 126.78 144.60 C 126.75 146.00 126.74 147.41 126.76 148.81 C 130.64 151.06 129.54 155.59 128.32 159.07 C 130.32 163.63 132.70 168.14 133.30 173.15 C 133.51 175.24 134.67 177.00 135.92 178.62 C 131.63 180.33 128.68 184.31 124.13 185.50 C 120.32 186.80 116.50 184.85 113.01 183.52 C 114.75 180.89 117.95 180.64 120.63 179.56 C 122.44 177.35 123.32 174.53 123.85 171.76 C 122.02 173.66 120.65 175.92 119.51 178.28 C 117.06 178.80 114.59 179.35 112.35 180.50 C 111.31 182.72 112.21 185.51 110.81 187.63 C 108.52 189.93 105.12 190.47 102.05 190.96 C 98.30 191.46 94.98 189.32 91.65 187.98 C 91.63 186.10 91.60 184.21 91.52 182.33 C 89.29 182.97 88.80 185.35 87.74 187.09 C 87.16 186.28 86.59 185.48 86.02 184.67 C 89.30 180.03 88.64 174.09 90.86 169.02 C 91.48 164.67 91.27 160.14 89.95 155.93 C 89.19 153.63 90.56 151.42 91.18 149.28 C 91.72 149.29 92.79 149.32 93.33 149.33 C 93.40 148.71 93.54 147.45 93.61 146.83 C 98.40 150.40 104.46 149.63 109.96 150.97 C 115.01 151.99 119.69 149.31 124.61 148.72 C 124.93 148.07 125.57 146.77 125.89 146.12 C 120.65 147.35 115.37 149.93 109.88 148.62 C 104.75 147.27 99.24 148.21 94.39 145.75 C 93.80 143.22 93.23 140.68 92.29 138.26 C 93.40 138.03 94.50 137.76 95.59 137.45 C 94.20 136.76 92.77 136.16 91.33 135.57 C 91.01 135.25 90.36 134.61 90.03 134.29 C 93.40 134.73 96.58 133.59 99.66 132.40 C 103.44 132.02 105.71 134.74 108.04 137.16 C 111.69 136.89 115.32 135.90 117.63 132.82 C 118.27 136.26 118.40 139.75 118.76 143.22 C 121.46 140.55 119.90 136.28 118.63 133.24 C 121.20 129.89 121.19 125.33 118.31 122.18 C 118.51 125.03 119.05 127.95 118.08 130.73 C 116.91 131.07 115.76 131.43 114.59 131.80 C 113.70 131.26 112.79 130.74 111.89 130.23 C 112.47 131.26 113.07 132.29 113.69 133.32 C 112.49 134.20 111.29 135.05 110.08 135.91 C 108.26 134.42 106.85 132.45 104.85 131.19 C 102.96 130.63 100.95 130.90 99.02 130.89 C 98.72 130.43 98.12 129.53 97.83 129.08 C 97.35 129.94 96.89 130.80 96.43 131.67 C 94.76 132.33 93.09 132.99 91.42 133.65 C 91.25 132.09 91.11 130.53 90.96 128.97 C 90.66 129.40 90.05 130.26 89.74 130.69 C 89.75 131.22 89.75 132.27 89.76 132.79 C 87.57 130.78 85.30 128.89 82.87 127.18 C 83.91 123.25 84.68 119.24 86.08 115.40 C 86.91 113.28 85.75 111.17 85.20 109.16 C 81.43 109.97 77.27 111.90 76.93 116.27 C 79.37 114.08 81.73 111.78 84.72 110.30 C 84.28 116.28 81.85 121.79 80.11 127.46 C 78.77 131.27 75.86 134.10 72.95 136.75 C 74.24 136.25 75.52 135.75 76.80 135.24 C 78.37 140.81 77.84 146.71 76.03 152.15 C 73.73 158.26 75.24 165.09 78.03 170.76 C 80.20 173.23 82.94 175.56 83.13 179.10 C 80.52 180.19 78.36 182.03 76.15 183.75 C 73.21 182.07 70.07 180.67 67.37 178.61 C 66.64 176.09 68.18 173.83 69.49 171.82 C 68.94 170.27 68.26 168.72 68.26 167.04 C 68.15 160.58 66.03 154.39 65.44 147.99 C 65.20 144.96 65.62 141.92 65.34 138.89 C 64.48 133.48 67.38 128.35 66.81 122.93 C 66.51 120.34 67.26 117.82 68.41 115.53 C 70.65 110.86 69.36 105.32 71.74 100.71 C 73.04 98.24 75.85 97.38 78.08 96.01 C 80.60 94.59 82.35 92.15 84.88 90.74 C 87.30 89.20 90.43 88.46 91.81 85.68 C 84.71 87.95 78.88 92.68 72.89 96.91 C 68.59 100.48 66.91 106.79 68.79 112.04 C 67.45 113.93 65.97 115.81 65.38 118.09 C 64.12 121.77 65.40 125.69 64.59 129.43 C 62.52 138.43 62.83 147.87 64.52 156.91 C 65.99 161.47 66.25 166.28 66.71 171.02 C 66.57 173.95 64.11 177.02 65.95 179.87 C 69.06 182.93 72.87 185.33 77.09 186.50 C 79.83 183.61 83.18 181.46 86.34 179.07 C 85.66 174.63 82.36 171.44 79.33 168.42 C 78.49 164.35 78.14 160.20 77.55 156.09 C 77.06 153.30 78.84 150.80 79.07 148.07 C 79.36 143.40 78.52 138.76 77.97 134.14 C 79.34 132.45 80.61 130.68 81.85 128.89 C 84.88 131.61 88.30 133.98 90.67 137.36 C 90.74 140.70 91.91 143.87 92.37 147.16 C 90.98 149.13 88.89 150.65 88.00 152.95 C 87.47 156.35 89.19 159.57 89.16 162.95 C 89.31 168.15 86.97 172.98 86.82 178.15 C 86.99 180.82 84.75 182.58 83.72 184.81 C 84.79 186.79 87.09 190.92 89.40 187.80 C 88.37 192.13 89.21 196.56 89.31 200.93 C 88.84 204.05 87.34 206.92 86.96 210.06 C 86.30 213.59 86.41 217.22 85.64 220.72 C 84.09 225.24 82.38 229.77 81.72 234.53 C 81.20 241.22 84.40 247.42 85.14 253.97 C 85.70 257.74 85.18 261.58 84.45 265.29 C 85.12 267.57 85.81 269.87 85.85 272.27 C 85.95 275.11 87.91 277.42 88.38 280.18 C 88.33 288.81 100.50 291.89 106.58 287.30 C 108.30 286.97 109.91 286.28 111.35 285.28 C 111.04 279.27 105.32 276.04 102.98 270.97 C 101.31 267.64 98.62 264.75 98.09 260.94 C 96.85 253.71 97.35 245.97 100.28 239.19 C 101.81 234.96 100.79 230.36 101.00 225.98 C 100.73 220.74 103.10 215.94 104.64 211.07 C 105.49 207.48 108.43 204.82 109.22 201.20 C 110.56 197.06 109.98 192.50 111.94 188.54 C 114.93 190.46 116.31 193.84 118.27 196.67 C 120.27 199.31 119.44 202.80 120.26 205.81 C 120.97 207.61 121.94 209.30 122.80 211.03 C 121.53 216.19 120.99 221.51 121.14 226.82 C 122.49 231.34 125.88 235.06 126.49 239.84 C 128.66 248.26 122.93 256.14 124.52 264.59 C 125.99 265.33 127.43 266.22 129.06 266.60 C 132.00 267.13 134.96 265.66 137.89 266.33 C 140.29 267.13 142.49 268.41 144.79 269.45 C 147.19 269.10 149.55 269.74 151.93 269.88 C 154.38 269.03 156.71 267.89 159.13 266.96 C 159.92 265.29 160.66 263.41 158.88 262.05 C 157.13 259.01 153.13 260.19 150.66 258.23 C 147.41 256.19 145.43 252.77 142.52 250.34 C 141.22 249.07 139.27 248.10 139.09 246.08 C 137.10 238.84 138.62 231.26 137.75 223.90 C 136.32 217.39 136.19 210.52 137.81 204.04 C 138.64 200.92 136.01 198.25 136.25 195.17 C 136.42 190.53 136.10 185.89 135.41 181.30 C 136.28 180.87 137.15 180.44 138.02 180.00 C 138.00 179.43 137.94 178.29 137.92 177.72 C 136.88 176.45 135.45 175.29 135.32 173.54 C 134.75 168.08 131.71 163.35 130.26 158.14 C 130.87 155.48 132.13 152.73 130.94 150.03 C 130.06 148.89 129.05 147.87 128.10 146.80 C 128.27 146.41 128.62 145.64 128.79 145.25 C 128.62 141.60 129.13 137.92 128.44 134.30 C 131.68 128.39 132.49 121.15 130.13 114.80 C 130.87 111.30 131.83 107.74 130.65 104.19 C 130.82 103.54 131.17 102.26 131.34 101.61 C 136.05 95.84 140.12 89.38 142.03 82.11 C 142.59 78.15 141.85 74.09 142.57 70.13 C 143.08 67.04 143.88 63.81 142.96 60.71 C 142.01 57.97 142.57 55.07 142.87 52.27 C 140.54 47.98 140.12 42.85 137.17 38.87 C 134.96 35.89 132.50 33.12 130.26 30.17 C 131.24 30.15 133.19 30.12 134.17 30.10 C 134.47 29.72 135.09 28.96 135.40 28.58 C 140.75 27.32 139.80 20.85 137.99 17.04 C 134.90 9.89 129.82 1.76 121.35 0.84 C 119.23 2.64 115.40 3.62 115.59 7.04 M 97.74 84.34 C 98.27 87.60 100.56 89.99 102.73 92.28 C 98.66 92.71 95.27 95.07 91.67 96.77 C 91.94 94.60 92.41 92.47 92.80 90.32 C 92.35 90.46 91.45 90.73 91.00 90.87 C 90.94 91.63 90.80 93.16 90.73 93.92 L 91.88 94.05 C 91.17 94.45 90.44 94.84 89.71 95.21 C 87.56 94.82 85.42 95.29 83.48 96.20 C 86.35 96.83 89.28 97.06 92.17 97.56 C 90.79 98.82 89.06 98.86 87.32 98.63 C 88.11 99.59 88.90 100.55 89.70 101.50 C 91.82 99.71 93.85 97.78 96.27 96.38 C 98.96 94.83 102.16 94.99 105.15 94.68 C 106.15 95.37 107.15 96.06 108.20 96.67 C 108.11 96.05 107.92 94.82 107.82 94.20 C 106.60 93.19 105.07 92.75 103.54 92.42 C 101.66 89.70 99.90 86.87 97.74 84.34 M 86.83 110.20 C 87.99 110.05 89.14 109.84 90.29 109.66 C 91.77 109.98 93.26 110.27 94.77 110.45 C 93.77 109.13 92.80 107.45 90.98 107.23 C 89.26 107.66 88.11 109.10 86.83 110.20 M 116.58 112.93 C 119.08 112.68 121.25 113.79 123.36 114.94 C 122.81 113.44 121.94 112.12 120.91 110.92 C 120.13 110.90 118.59 110.86 117.82 110.84 C 117.51 111.36 116.89 112.41 116.58 112.93 M 90.68 123.92 C 90.57 125.93 91.06 128.12 93.00 129.15 C 95.28 129.79 97.10 128.13 98.82 126.94 C 100.53 127.02 102.23 127.07 103.94 127.12 C 105.58 128.04 107.38 128.65 109.24 128.13 C 107.67 126.96 106.15 125.68 104.41 124.78 C 102.18 124.52 99.89 124.77 97.71 124.11 C 96.49 126.20 94.62 127.70 92.18 128.14 C 92.29 126.61 92.42 125.09 92.57 123.57 C 92.10 123.66 91.15 123.83 90.68 123.92 M 123.70 135.63 C 125.56 132.05 127.03 128.27 127.89 124.32 C 123.86 126.33 123.88 131.75 123.70 135.63 M 98.71 135.48 C 100.80 137.07 102.97 138.57 105.27 139.85 C 104.17 137.30 101.76 134.72 98.71 135.48 M 105.80 138.04 C 106.15 140.44 106.72 142.90 108.09 144.95 C 109.80 147.01 112.53 147.85 115.05 148.44 C 113.50 146.85 111.59 145.66 110.04 144.08 C 108.69 142.02 107.55 139.81 105.80 138.04 M 110.04 153.48 C 105.38 153.57 101.00 151.79 96.56 150.65 C 95.13 153.66 93.24 156.96 94.87 160.28 C 95.52 157.54 96.32 154.83 97.45 152.25 C 99.37 152.95 101.29 153.66 103.16 154.47 C 101.22 158.63 97.28 160.98 93.35 162.93 C 93.54 163.24 93.91 163.88 94.10 164.19 C 98.35 162.17 103.34 160.00 104.43 154.87 C 110.94 155.96 117.72 155.27 123.84 152.78 C 125.23 152.10 125.90 150.58 126.92 149.51 C 121.75 152.22 115.86 153.46 110.04 153.48 M 104.65 163.41 C 109.71 162.50 114.66 161.04 119.66 159.85 L 119.70 160.94 C 119.96 160.21 120.49 158.76 120.75 158.04 C 115.35 159.54 108.97 159.43 104.65 163.41 M 121.13 159.19 C 122.40 159.85 124.82 159.96 125.58 158.56 C 124.55 157.70 121.07 157.28 121.13 159.19 M 110.11 166.31 L 109.65 166.78 C 109.33 167.63 109.15 168.51 109.10 169.42 C 106.78 169.62 104.46 169.87 102.18 170.31 C 106.59 172.52 111.35 169.95 115.95 170.11 C 120.28 169.77 125.54 170.06 128.35 166.08 C 122.52 167.84 116.24 168.93 110.24 168.77 C 114.45 163.95 121.92 163.84 126.69 159.71 C 120.73 160.63 115.31 163.39 110.11 166.31 Z" />
<path fill="#FFFFFF" opacity="1.00" d=" M 120.89 2.48 C 121.72 2.50 123.39 2.53 124.22 2.55 C 124.75 2.84 125.83 3.44 126.37 3.74 C 130.01 6.88 132.97 10.74 135.36 14.90 C 137.07 18.14 138.31 21.92 137.07 25.54 C 136.41 25.60 135.07 25.73 134.40 25.79 C 126.35 21.13 120.19 12.01 120.89 2.48 Z" />
<path fill="#FFFFFF" opacity="1.00" d=" M 117.63 5.54 C 117.87 5.38 118.35 5.05 118.59 4.89 C 120.04 14.39 125.98 22.58 133.56 28.24 C 128.55 27.68 124.99 23.67 122.18 19.86 C 119.50 15.62 116.80 10.74 117.63 5.54 Z" />
<path fill="#FFFFFF" opacity="1.00" d=" M 100.98 16.06 C 105.25 15.29 107.84 19.02 111.27 20.74 C 107.77 21.61 107.82 25.56 106.54 28.26 C 106.96 28.55 107.80 29.14 108.22 29.43 C 109.77 30.93 111.41 32.32 113.05 33.72 C 113.73 33.64 115.11 33.48 115.79 33.40 C 116.70 34.27 117.61 35.14 118.52 36.01 C 117.67 36.90 116.83 37.80 115.99 38.70 C 115.35 38.73 114.07 38.79 113.43 38.82 C 106.06 33.74 100.19 25.35 100.98 16.06 Z" />
<path fill="#FFFFFF" opacity="1.00" d=" M 98.23 17.95 C 99.44 18.80 98.99 20.69 99.55 21.94 C 101.46 29.87 107.25 36.19 113.53 41.09 C 108.54 41.47 105.14 37.18 102.36 33.68 C 99.34 29.15 96.60 23.49 98.23 17.95 Z" />
<path fill="#FFFFFF" opacity="1.00" d=" M 95.47 55.60 C 101.59 52.02 110.62 54.81 113.55 61.32 C 114.54 66.75 114.41 72.37 113.75 77.85 C 113.05 80.66 110.87 83.24 108.03 84.04 C 103.64 84.15 98.52 82.38 97.05 77.80 C 97.45 77.38 98.27 76.55 98.68 76.13 C 96.23 74.40 93.89 72.49 92.26 69.93 C 92.95 68.75 93.63 67.58 94.33 66.40 C 93.76 66.48 92.63 66.62 92.06 66.70 C 92.15 62.90 92.10 58.12 95.47 55.60 Z" />
<path fill="#FFFFFF" opacity="1.00" d=" M 120.00 187.68 C 125.40 187.83 130.37 185.03 134.40 181.66 C 134.79 186.05 134.99 190.45 135.06 194.85 C 134.61 194.77 133.72 194.61 133.27 194.53 C 132.42 196.90 132.09 199.92 129.80 201.40 C 127.05 200.70 126.03 197.79 124.69 195.63 C 125.46 198.15 125.62 202.47 129.01 202.82 C 132.04 202.42 133.14 199.20 134.70 197.03 C 135.37 199.25 136.67 201.51 136.13 203.91 C 134.55 210.82 134.12 218.11 135.80 225.05 C 136.19 232.81 135.40 240.64 137.56 248.22 C 141.78 251.75 144.85 256.42 149.10 259.88 C 151.75 262.34 157.16 260.85 158.13 265.04 C 155.49 267.15 152.34 268.74 148.89 267.72 C 143.97 268.19 140.21 263.72 135.23 264.77 C 132.36 264.60 128.08 266.30 126.43 263.12 C 126.54 258.78 126.56 254.24 128.28 250.17 C 128.23 246.04 128.53 241.90 128.07 237.78 C 127.60 234.29 124.83 231.62 124.36 228.14 C 123.82 223.47 122.34 218.62 124.19 214.05 L 125.81 217.29 C 128.40 212.56 123.02 208.78 123.08 204.08 C 123.10 197.98 119.05 192.83 115.13 188.56 C 114.75 187.78 114.46 186.97 114.27 186.13 C 116.34 185.86 117.95 187.71 120.00 187.68 M 131.88 259.44 C 131.34 256.56 130.87 253.66 130.46 250.77 C 128.73 253.71 129.25 257.21 131.88 259.44 Z" />
<path fill="#FFFFFF" opacity="1.00" d=" M 90.66 189.67 C 93.41 190.72 95.97 192.34 98.88 192.95 C 102.41 193.24 105.87 192.19 109.29 191.46 C 108.68 196.24 108.08 201.25 105.49 205.43 C 101.33 211.99 100.80 220.13 96.81 226.78 C 94.39 231.28 93.61 236.53 94.24 241.59 C 96.21 239.94 95.86 237.23 96.06 234.94 C 96.05 231.88 97.46 229.07 98.80 226.40 C 99.13 230.62 99.88 235.11 98.06 239.12 C 94.65 246.18 94.74 254.46 96.51 261.96 C 97.37 265.81 100.04 268.84 101.76 272.31 C 103.80 276.65 107.98 279.52 109.87 283.97 C 108.89 284.75 107.63 284.90 106.45 285.21 C 105.62 283.96 105.02 282.54 103.91 281.51 C 100.59 281.71 97.28 282.09 93.95 282.00 C 93.78 282.37 93.43 283.11 93.26 283.48 C 96.49 283.78 99.71 283.87 102.92 283.40 C 103.48 283.86 104.61 284.78 105.17 285.23 C 101.28 288.58 94.45 287.97 91.87 283.35 C 90.50 277.37 87.89 271.78 86.06 265.93 C 88.55 257.93 86.11 249.74 83.99 241.99 C 81.73 235.04 84.50 227.80 87.35 221.47 C 88.33 224.01 89.25 226.58 90.11 229.17 C 90.76 229.28 91.42 229.38 92.07 229.49 C 90.02 224.21 88.20 218.71 88.04 213.01 C 88.14 207.81 92.12 203.41 91.28 198.13 C 91.11 195.31 90.84 192.49 90.66 189.67 M 93.91 204.94 C 93.70 206.75 93.51 208.58 93.87 210.39 C 94.17 209.53 94.76 207.80 95.06 206.93 C 96.85 206.49 98.64 206.04 100.42 205.52 C 101.15 206.58 101.93 207.60 102.75 208.60 C 102.26 206.74 101.64 204.93 101.01 203.12 C 98.78 204.18 96.38 204.78 93.91 204.94 M 95.80 216.06 C 96.63 216.05 98.28 216.01 99.10 216.00 C 99.24 215.63 99.51 214.88 99.64 214.51 C 98.34 214.29 97.05 214.08 95.75 213.86 C 95.75 214.59 95.77 215.33 95.80 216.06 M 88.60 267.78 C 92.08 266.24 93.15 262.44 94.77 259.35 C 91.14 260.55 90.17 264.73 88.60 267.78 Z" />
</g>
<g id="#434442ff">
<path fill="#333333" opacity="1.00" d=" M 115.59 7.04 C 115.40 3.62 119.23 2.64 121.35 0.84 C 129.82 1.76 134.90 9.89 137.99 17.04 C 139.80 20.85 140.75 27.32 135.40 28.58 C 135.09 28.96 134.47 29.72 134.17 30.10 C 133.19 30.12 131.24 30.15 130.26 30.17 C 132.50 33.12 134.96 35.89 137.17 38.87 C 140.12 42.85 140.54 47.98 142.87 52.27 C 142.57 55.07 142.01 57.97 142.96 60.71 C 143.88 63.81 143.08 67.04 142.57 70.13 C 141.85 74.09 142.59 78.15 142.03 82.11 C 140.12 89.38 136.05 95.84 131.34 101.61 C 131.17 102.26 130.82 103.54 130.65 104.19 C 131.83 107.74 130.87 111.30 130.13 114.80 C 132.49 121.15 131.68 128.39 128.44 134.30 C 129.13 137.92 128.62 141.60 128.79 145.25 C 128.62 145.64 128.27 146.41 128.10 146.80 C 129.05 147.87 130.06 148.89 130.94 150.03 C 132.13 152.73 130.87 155.48 130.26 158.14 C 131.71 163.35 134.75 168.08 135.32 173.54 C 135.45 175.29 136.88 176.45 137.92 177.72 C 137.94 178.29 138.00 179.43 138.02 180.00 C 137.15 180.44 136.28 180.87 135.41 181.30 C 136.10 185.89 136.42 190.53 136.25 195.17 C 136.01 198.25 138.64 200.92 137.81 204.04 C 136.19 210.52 136.32 217.39 137.75 223.90 C 138.62 231.26 137.10 238.84 139.09 246.08 C 139.27 248.10 141.22 249.07 142.52 250.34 C 145.43 252.77 147.41 256.19 150.66 258.23 C 153.13 260.19 157.13 259.01 158.88 262.05 C 160.66 263.41 159.92 265.29 159.13 266.96 C 156.71 267.89 154.38 269.03 151.93 269.88 C 149.55 269.74 147.19 269.10 144.79 269.45 C 142.49 268.41 140.29 267.13 137.89 266.33 C 134.96 265.66 132.00 267.13 129.06 266.60 C 127.43 266.22 125.99 265.33 124.52 264.59 C 122.93 256.14 128.66 248.26 126.49 239.84 C 125.88 235.06 122.49 231.34 121.14 226.82 C 120.99 221.51 121.53 216.19 122.80 211.03 C 121.94 209.30 120.97 207.61 120.26 205.81 C 119.44 202.80 120.27 199.31 118.27 196.67 C 116.31 193.84 114.93 190.46 111.94 188.54 C 109.98 192.50 110.56 197.06 109.22 201.20 C 108.43 204.82 105.49 207.48 104.64 211.07 C 103.10 215.94 100.73 220.74 101.00 225.98 C 100.79 230.36 101.81 234.96 100.28 239.19 C 97.35 245.97 96.85 253.71 98.09 260.94 C 98.62 264.75 101.31 267.64 102.98 270.97 C 105.32 276.04 111.04 279.27 111.35 285.28 C 109.91 286.28 108.30 286.97 106.58 287.30 C 100.50 291.89 88.33 288.81 88.38 280.18 C 87.91 277.42 85.95 275.11 85.85 272.27 C 85.81 269.87 85.12 267.57 84.45 265.29 C 85.18 261.58 85.70 257.74 85.14 253.97 C 84.40 247.42 81.20 241.22 81.72 234.53 C 82.38 229.77 84.09 225.24 85.64 220.72 C 86.41 217.22 86.30 213.59 86.96 210.06 C 87.34 206.92 88.84 204.05 89.31 200.93 C 89.21 196.56 88.37 192.13 89.40 187.80 C 87.09 190.92 84.79 186.79 83.72 184.81 C 84.75 182.58 86.99 180.82 86.82 178.15 C 86.97 172.98 89.31 168.15 89.16 162.95 C 89.19 159.57 87.47 156.35 88.00 152.95 C 88.89 150.65 90.98 149.13 92.37 147.16 C 91.91 143.87 90.74 140.70 90.67 137.36 C 88.30 133.98 84.88 131.61 81.85 128.89 C 80.61 130.68 79.34 132.45 77.97 134.14 C 78.52 138.76 79.36 143.40 79.07 148.07 C 78.84 150.80 77.06 153.30 77.55 156.09 C 78.14 160.20 78.49 164.35 79.33 168.42 C 82.36 171.44 85.66 174.63 86.34 179.07 C 83.18 181.46 79.83 183.61 77.09 186.50 C 72.87 185.33 69.06 182.93 65.95 179.87 C 64.11 177.02 66.57 173.95 66.71 171.02 C 66.25 166.28 65.99 161.47 64.52 156.91 C 62.83 147.87 62.52 138.43 64.59 129.43 C 65.40 125.69 64.12 121.77 65.38 118.09 C 65.97 115.81 67.45 113.93 68.79 112.04 C 66.91 106.79 68.59 100.48 72.89 96.91 C 78.88 92.68 84.71 87.95 91.81 85.68 C 90.43 88.46 87.30 89.20 84.88 90.74 C 82.35 92.15 80.60 94.59 78.08 96.01 C 75.85 97.38 73.04 98.24 71.74 100.71 C 69.36 105.32 70.65 110.86 68.41 115.53 C 67.26 117.82 66.51 120.34 66.81 122.93 C 67.38 128.35 64.48 133.48 65.34 138.89 C 65.62 141.92 65.20 144.96 65.44 147.99 C 66.03 154.39 68.15 160.58 68.26 167.04 C 68.26 168.72 68.94 170.27 69.49 171.82 C 68.18 173.83 66.64 176.09 67.37 178.61 C 70.07 180.67 73.21 182.07 76.15 183.75 C 78.36 182.03 80.52 180.19 83.13 179.10 C 82.94 175.56 80.20 173.23 78.03 170.76 C 75.24 165.09 73.73 158.26 76.03 152.15 C 77.84 146.71 78.37 140.81 76.80 135.24 C 75.52 135.75 74.24 136.25 72.95 136.75 C 75.86 134.10 78.77 131.27 80.11 127.46 C 81.85 121.79 84.28 116.28 84.72 110.30 C 81.73 111.78 79.37 114.08 76.93 116.27 C 77.27 111.90 81.43 109.97 85.20 109.16 C 85.75 111.17 86.91 113.28 86.08 115.40 C 84.68 119.24 83.91 123.25 82.87 127.18 C 85.30 128.89 87.57 130.78 89.76 132.79 C 89.75 132.27 89.75 131.22 89.74 130.69 C 90.05 130.26 90.66 129.40 90.96 128.97 C 91.11 130.53 91.25 132.09 91.42 133.65 C 93.09 132.99 94.76 132.33 96.43 131.67 C 96.89 130.80 97.35 129.94 97.83 129.08 C 98.12 129.53 98.72 130.43 99.02 130.89 C 100.95 130.90 102.96 130.63 104.85 131.19 C 106.85 132.45 108.26 134.42 110.08 135.91 C 111.29 135.05 112.49 134.20 113.69 133.32 C 113.07 132.29 112.47 131.26 111.89 130.23 C 112.79 130.74 113.70 131.26 114.59 131.80 C 115.76 131.43 116.91 131.07 118.08 130.73 C 119.05 127.95 118.51 125.03 118.31 122.18 C 121.19 125.33 121.20 129.89 118.63 133.24 C 119.90 136.28 121.46 140.55 118.76 143.22 C 118.40 139.75 118.27 136.26 117.63 132.82 C 115.32 135.90 111.69 136.89 108.04 137.16 C 105.71 134.74 103.44 132.02 99.66 132.40 C 96.58 133.59 93.40 134.73 90.03 134.29 C 90.36 134.61 91.01 135.25 91.33 135.57 C 92.77 136.16 94.20 136.76 95.59 137.45 C 94.50 137.76 93.40 138.03 92.29 138.26 C 93.23 140.68 93.80 143.22 94.39 145.75 C 99.24 148.21 104.75 147.27 109.88 148.62 C 115.37 149.93 120.65 147.35 125.89 146.12 C 125.57 146.77 124.93 148.07 124.61 148.72 C 119.69 149.31 115.01 151.99 109.96 150.97 C 104.46 149.63 98.40 150.40 93.61 146.83 C 93.54 147.45 93.40 148.71 93.33 149.33 C 92.79 149.32 91.72 149.29 91.18 149.28 C 90.56 151.42 89.19 153.63 89.95 155.93 C 91.27 160.14 91.48 164.67 90.86 169.02 C 88.64 174.09 89.30 180.03 86.02 184.67 C 86.59 185.48 87.16 186.28 87.74 187.09 C 88.80 185.35 89.29 182.97 91.52 182.33 C 91.60 184.21 91.63 186.10 91.65 187.98 C 94.98 189.32 98.30 191.46 102.05 190.96 C 105.12 190.47 108.52 189.93 110.81 187.63 C 112.21 185.51 111.31 182.72 112.35 180.50 C 114.59 179.35 117.06 178.80 119.51 178.28 C 120.65 175.92 122.02 173.66 123.85 171.76 C 123.32 174.53 122.44 177.35 120.63 179.56 C 117.95 180.64 114.75 180.89 113.01 183.52 C 116.50 184.85 120.32 186.80 124.13 185.50 C 128.68 184.31 131.63 180.33 135.92 178.62 C 134.67 177.00 133.51 175.24 133.30 173.15 C 132.70 168.14 130.32 163.63 128.32 159.07 C 129.54 155.59 130.64 151.06 126.76 148.81 C 126.74 147.41 126.75 146.00 126.78 144.60 L 125.04 144.47 C 125.25 141.46 124.72 138.29 125.61 135.38 C 127.83 131.82 130.16 128.10 129.94 123.70 C 129.34 123.70 128.14 123.70 127.54 123.71 C 126.22 121.01 123.78 118.85 120.62 118.98 C 119.89 122.08 116.67 122.65 114.08 123.29 C 112.79 125.08 111.39 126.84 109.34 127.80 C 110.14 125.16 111.77 122.91 113.77 121.05 C 114.71 121.01 116.59 120.92 117.54 120.88 C 116.97 119.63 116.38 118.41 115.78 117.18 C 114.30 116.74 112.83 116.28 111.35 115.85 C 111.25 116.90 111.16 117.95 111.07 119.01 C 110.28 119.73 109.48 120.45 108.68 121.17 C 109.33 119.05 109.30 116.57 110.78 114.81 C 112.18 113.12 114.27 114.69 115.93 115.06 C 117.77 115.47 118.32 117.49 119.34 118.82 C 121.73 116.26 125.02 118.19 127.40 119.64 C 127.63 120.17 128.07 121.23 128.29 121.76 C 130.62 121.40 129.02 118.85 128.53 117.49 C 126.98 115.04 127.96 111.33 125.01 109.87 C 124.98 109.51 124.94 108.79 124.91 108.43 C 121.36 109.39 117.74 110.06 114.06 110.03 L 115.52 110.70 C 113.37 111.94 110.42 112.24 109.05 114.56 C 107.57 115.29 106.06 115.95 104.53 116.56 C 103.55 118.76 101.82 119.44 99.32 118.60 C 100.85 119.42 102.22 120.43 103.45 121.65 C 98.36 120.55 93.62 118.21 88.92 116.02 C 88.67 114.87 88.44 113.72 88.21 112.57 C 89.99 113.76 91.49 115.38 93.42 116.32 C 96.85 116.68 100.32 116.64 103.77 117.03 C 103.69 116.45 103.53 115.29 103.45 114.71 C 106.59 112.84 109.56 110.58 113.13 109.55 C 113.29 105.55 110.98 102.16 110.24 98.35 C 112.84 101.67 114.39 105.61 115.24 109.71 C 117.76 108.44 120.38 107.40 123.14 106.78 C 123.55 105.97 123.95 105.15 124.36 104.34 C 123.01 98.36 120.17 91.40 124.71 86.02 C 124.46 83.82 124.29 81.62 124.04 79.42 C 123.36 80.36 122.69 81.29 122.03 82.24 C 122.21 81.31 122.57 79.44 122.75 78.51 C 120.68 80.67 119.55 83.43 118.01 85.93 C 115.70 89.05 112.32 91.16 109.01 93.09 C 108.69 93.04 108.04 92.95 107.71 92.91 C 110.68 89.83 114.55 87.80 117.36 84.54 C 114.80 84.65 112.27 85.01 109.82 85.74 C 106.15 86.87 102.51 85.07 99.23 83.61 C 96.05 82.17 95.54 78.33 94.19 75.49 C 93.98 79.00 94.76 83.00 92.29 85.91 C 92.57 81.18 93.58 76.12 91.20 71.73 C 91.74 66.67 88.60 60.78 92.55 56.47 C 95.54 52.13 101.41 52.04 106.07 52.97 C 109.45 53.60 111.96 56.03 114.31 58.36 C 116.35 66.40 117.46 75.24 114.81 83.26 C 115.46 83.19 116.75 83.05 117.40 82.99 C 118.66 80.34 120.62 78.15 123.42 77.13 C 122.23 72.56 123.67 68.00 125.11 63.68 C 124.98 63.51 124.71 63.16 124.58 62.98 C 126.56 62.11 125.85 59.65 125.76 57.95 C 123.96 50.60 122.73 43.06 119.70 36.07 C 119.37 37.13 118.72 39.25 118.39 40.31 C 117.36 40.66 116.33 41.00 115.30 41.34 C 115.02 41.88 114.46 42.94 114.18 43.48 C 111.82 43.29 109.33 43.01 107.50 41.34 C 101.26 36.29 96.52 28.83 95.75 20.74 C 95.38 18.23 97.73 16.84 99.55 15.70 C 100.77 15.04 102.04 13.82 103.55 14.41 C 106.62 15.58 109.23 17.67 111.64 19.85 C 112.72 19.10 113.78 18.34 114.84 17.57 C 115.40 18.01 115.94 18.44 116.49 18.88 C 113.28 20.45 109.27 22.97 109.53 27.06 C 110.65 29.13 112.57 30.59 114.26 32.17 C 114.29 31.73 114.36 30.85 114.40 30.41 C 115.84 30.48 117.29 30.55 118.74 30.60 L 118.10 28.30 C 118.84 28.85 120.32 29.94 121.06 30.48 C 120.58 31.54 119.85 32.42 118.89 33.12 C 120.76 36.42 123.67 39.28 124.35 43.15 C 125.59 49.14 126.92 55.12 129.00 60.89 C 127.36 63.45 125.06 65.89 124.75 69.04 C 124.98 72.99 126.60 76.89 125.87 80.87 C 125.98 82.62 126.09 84.37 126.21 86.11 C 126.78 84.99 127.36 83.86 127.95 82.74 C 130.73 81.78 131.36 78.57 131.68 76.00 C 132.07 71.93 133.21 67.82 132.04 63.78 C 133.27 60.57 134.78 56.81 138.45 55.83 C 138.42 56.37 138.37 57.44 138.34 57.97 C 136.91 59.16 135.50 60.38 134.10 61.60 C 134.76 61.83 136.08 62.28 136.74 62.50 C 136.05 62.45 134.67 62.35 133.98 62.30 C 133.37 65.85 134.49 69.69 132.60 72.96 C 131.82 76.05 132.02 79.25 132.49 82.37 L 129.09 82.79 L 132.85 84.38 C 131.81 84.07 130.78 83.76 129.74 83.45 C 128.82 85.10 127.91 86.74 126.98 88.38 C 126.53 88.09 125.64 87.51 125.19 87.23 C 124.64 89.48 124.16 91.74 123.66 94.00 C 124.14 94.14 125.09 94.41 125.57 94.54 C 126.58 92.70 127.65 90.89 128.70 89.07 C 128.84 90.01 128.98 90.94 129.12 91.88 C 127.66 93.41 126.02 94.75 124.32 96.01 C 125.22 100.61 126.91 105.13 126.53 109.89 C 127.15 109.93 128.40 110.00 129.03 110.04 C 130.80 106.17 127.74 101.06 131.14 97.89 C 134.42 94.71 135.75 90.15 138.80 86.80 C 140.11 85.38 140.41 83.42 140.94 81.64 L 141.64 81.53 C 141.16 78.99 140.72 76.45 140.04 73.96 C 140.59 68.06 143.02 62.07 141.00 56.18 C 140.71 52.24 139.00 48.61 138.03 44.81 C 136.68 39.77 131.53 37.23 129.69 32.47 C 127.78 27.30 122.83 24.27 119.78 19.82 C 117.75 15.84 115.74 11.59 115.59 7.04 M 120.89 2.48 C 120.19 12.01 126.35 21.13 134.40 25.79 C 135.07 25.73 136.41 25.60 137.07 25.54 C 138.31 21.92 137.07 18.14 135.36 14.90 C 132.97 10.74 130.01 6.88 126.37 3.74 C 125.83 3.44 124.75 2.84 124.22 2.55 C 123.39 2.53 121.72 2.50 120.89 2.48 M 117.63 5.54 C 116.80 10.74 119.50 15.62 122.18 19.86 C 124.99 23.67 128.55 27.68 133.56 28.24 C 125.98 22.58 120.04 14.39 118.59 4.89 C 118.35 5.05 117.87 5.38 117.63 5.54 M 100.98 16.06 C 100.19 25.35 106.06 33.74 113.43 38.82 C 114.07 38.79 115.35 38.73 115.99 38.70 C 116.83 37.80 117.67 36.90 118.52 36.01 C 117.61 35.14 116.70 34.27 115.79 33.40 C 115.11 33.48 113.73 33.64 113.05 33.72 C 111.41 32.32 109.77 30.93 108.22 29.43 C 107.80 29.14 106.96 28.55 106.54 28.26 C 107.82 25.56 107.77 21.61 111.27 20.74 C 107.84 19.02 105.25 15.29 100.98 16.06 M 98.23 17.95 C 96.60 23.49 99.34 29.15 102.36 33.68 C 105.14 37.18 108.54 41.47 113.53 41.09 C 107.25 36.19 101.46 29.87 99.55 21.94 C 98.99 20.69 99.44 18.80 98.23 17.95 M 95.47 55.60 C 92.10 58.12 92.15 62.90 92.06 66.70 C 92.63 66.62 93.76 66.48 94.33 66.40 C 93.63 67.58 92.95 68.75 92.26 69.93 C 93.89 72.49 96.23 74.40 98.68 76.13 C 98.27 76.55 97.45 77.38 97.05 77.80 C 98.52 82.38 103.64 84.15 108.03 84.04 C 110.87 83.24 113.05 80.66 113.75 77.85 C 114.41 72.37 114.54 66.75 113.55 61.32 C 110.62 54.81 101.59 52.02 95.47 55.60 M 120.00 187.68 C 117.95 187.71 116.34 185.86 114.27 186.13 C 114.46 186.97 114.75 187.78 115.13 188.56 C 119.05 192.83 123.10 197.98 123.08 204.08 C 123.02 208.78 128.40 212.56 125.81 217.29 L 124.19 214.05 C 122.34 218.62 123.82 223.47 124.36 228.14 C 124.83 231.62 127.60 234.29 128.07 237.78 C 128.53 241.90 128.23 246.04 128.28 250.17 C 126.56 254.24 126.54 258.78 126.43 263.12 C 128.08 266.30 132.36 264.60 135.23 264.77 C 140.21 263.72 143.97 268.19 148.89 267.72 C 152.34 268.74 155.49 267.15 158.13 265.04 C 157.16 260.85 151.75 262.34 149.10 259.88 C 144.85 256.42 141.78 251.75 137.56 248.22 C 135.40 240.64 136.19 232.81 135.80 225.05 C 134.12 218.11 134.55 210.82 136.13 203.91 C 136.67 201.51 135.37 199.25 134.70 197.03 C 133.14 199.20 132.04 202.42 129.01 202.82 C 125.62 202.47 125.46 198.15 124.69 195.63 C 126.03 197.79 127.05 200.70 129.80 201.40 C 132.09 199.92 132.42 196.90 133.27 194.53 C 133.72 194.61 134.61 194.77 135.06 194.85 C 134.99 190.45 134.79 186.05 134.40 181.66 C 130.37 185.03 125.40 187.83 120.00 187.68 M 90.66 189.67 C 90.84 192.49 91.11 195.31 91.28 198.13 C 92.12 203.41 88.14 207.81 88.04 213.01 C 88.20 218.71 90.02 224.21 92.07 229.49 C 91.42 229.38 90.76 229.28 90.11 229.17 C 89.25 226.58 88.33 224.01 87.35 221.47 C 84.50 227.80 81.73 235.04 83.99 241.99 C 86.11 249.74 88.55 257.93 86.06 265.93 C 87.89 271.78 90.50 277.37 91.87 283.35 C 94.45 287.97 101.28 288.58 105.17 285.23 C 104.61 284.78 103.48 283.86 102.92 283.40 C 99.71 283.87 96.49 283.78 93.26 283.48 C 93.43 283.11 93.78 282.37 93.95 282.00 C 97.28 282.09 100.59 281.71 103.91 281.51 C 105.02 282.54 105.62 283.96 106.45 285.21 C 107.63 284.90 108.89 284.75 109.87 283.97 C 107.98 279.52 103.80 276.65 101.76 272.31 C 100.04 268.84 97.37 265.81 96.51 261.96 C 94.74 254.46 94.65 246.18 98.06 239.12 C 99.88 235.11 99.13 230.62 98.80 226.40 C 97.46 229.07 96.05 231.88 96.06 234.94 C 95.86 237.23 96.21 239.94 94.24 241.59 C 93.61 236.53 94.39 231.28 96.81 226.78 C 100.80 220.13 101.33 211.99 105.49 205.43 C 108.08 201.25 108.68 196.24 109.29 191.46 C 105.87 192.19 102.41 193.24 98.88 192.95 C 95.97 192.34 93.41 190.72 90.66 189.67 Z" />
<path fill="#333333" opacity="1.00" d=" M 97.74 84.34 C 99.90 86.87 101.66 89.70 103.54 92.42 C 105.07 92.75 106.60 93.19 107.82 94.20 C 107.92 94.82 108.11 96.05 108.20 96.67 C 107.15 96.06 106.15 95.37 105.15 94.68 C 102.16 94.99 98.96 94.83 96.27 96.38 C 93.85 97.78 91.82 99.71 89.70 101.50 C 88.90 100.55 88.11 99.59 87.32 98.63 C 89.06 98.86 90.79 98.82 92.17 97.56 C 89.28 97.06 86.35 96.83 83.48 96.20 C 85.42 95.29 87.56 94.82 89.71 95.21 C 90.44 94.84 91.17 94.45 91.88 94.05 L 90.73 93.92 C 90.80 93.16 90.94 91.63 91.00 90.87 C 91.45 90.73 92.35 90.46 92.80 90.32 C 92.41 92.47 91.94 94.60 91.67 96.77 C 95.27 95.07 98.66 92.71 102.73 92.28 C 100.56 89.99 98.27 87.60 97.74 84.34 Z" />
<path fill="#333333" opacity="1.00" d=" M 86.83 110.20 C 88.11 109.10 89.26 107.66 90.98 107.23 C 92.80 107.45 93.77 109.13 94.77 110.45 C 93.26 110.27 91.77 109.98 90.29 109.66 C 89.14 109.84 87.99 110.05 86.83 110.20 Z" />
<path fill="#333333" opacity="1.00" d=" M 116.58 112.93 C 116.89 112.41 117.51 111.36 117.82 110.84 C 118.59 110.86 120.13 110.90 120.91 110.92 C 121.94 112.12 122.81 113.44 123.36 114.94 C 121.25 113.79 119.08 112.68 116.58 112.93 Z" />
<path fill="#333333" opacity="1.00" d=" M 90.68 123.92 C 91.15 123.83 92.10 123.66 92.57 123.57 C 92.42 125.09 92.29 126.61 92.18 128.14 C 94.62 127.70 96.49 126.20 97.71 124.11 C 99.89 124.77 102.18 124.52 104.41 124.78 C 106.15 125.68 107.67 126.96 109.24 128.13 C 107.38 128.65 105.58 128.04 103.94 127.12 C 102.23 127.07 100.53 127.02 98.82 126.94 C 97.10 128.13 95.28 129.79 93.00 129.15 C 91.06 128.12 90.57 125.93 90.68 123.92 Z" />
<path fill="#333333" opacity="1.00" d=" M 123.70 135.63 C 123.88 131.75 123.86 126.33 127.89 124.32 C 127.03 128.27 125.56 132.05 123.70 135.63 Z" />
<path fill="#333333" opacity="1.00" d=" M 98.71 135.48 C 101.76 134.72 104.17 137.30 105.27 139.85 C 102.97 138.57 100.80 137.07 98.71 135.48 Z" />
<path fill="#333333" opacity="1.00" d=" M 105.80 138.04 C 107.55 139.81 108.69 142.02 110.04 144.08 C 111.59 145.66 113.50 146.85 115.05 148.44 C 112.53 147.85 109.80 147.01 108.09 144.95 C 106.72 142.90 106.15 140.44 105.80 138.04 Z" />
<path fill="#333333" opacity="1.00" d=" M 110.04 153.48 C 115.86 153.46 121.75 152.22 126.92 149.51 C 125.90 150.58 125.23 152.10 123.84 152.78 C 117.72 155.27 110.94 155.96 104.43 154.87 C 103.34 160.00 98.35 162.17 94.10 164.19 C 93.91 163.88 93.54 163.24 93.35 162.93 C 97.28 160.98 101.22 158.63 103.16 154.47 C 101.29 153.66 99.37 152.95 97.45 152.25 C 96.32 154.83 95.52 157.54 94.87 160.28 C 93.24 156.96 95.13 153.66 96.56 150.65 C 101.00 151.79 105.38 153.57 110.04 153.48 Z" />
<path fill="#333333" opacity="1.00" d=" M 104.65 163.41 C 108.97 159.43 115.35 159.54 120.75 158.04 C 120.49 158.76 119.96 160.21 119.70 160.94 L 119.66 159.85 C 114.66 161.04 109.71 162.50 104.65 163.41 Z" />
<path fill="#333333" opacity="1.00" d=" M 121.13 159.19 C 121.07 157.28 124.55 157.70 125.58 158.56 C 124.82 159.96 122.40 159.85 121.13 159.19 Z" />
<path fill="#333333" opacity="1.00" d=" M 110.11 166.31 C 115.31 163.39 120.73 160.63 126.69 159.71 C 121.92 163.84 114.45 163.95 110.24 168.77 C 116.24 168.93 122.52 167.84 128.35 166.08 C 125.54 170.06 120.28 169.77 115.95 170.11 C 111.35 169.95 106.59 172.52 102.18 170.31 C 104.46 169.87 106.78 169.62 109.10 169.42 C 109.15 168.51 109.33 167.63 109.65 166.78 L 110.11 166.31 Z" />
<path fill="#333333" opacity="1.00" d=" M 93.91 204.94 C 96.38 204.78 98.78 204.18 101.01 203.12 C 101.64 204.93 102.26 206.74 102.75 208.60 C 101.93 207.60 101.15 206.58 100.42 205.52 C 98.64 206.04 96.85 206.49 95.06 206.93 C 94.76 207.80 94.17 209.53 93.87 210.39 C 93.51 208.58 93.70 206.75 93.91 204.94 Z" />
<path fill="#333333" opacity="1.00" d=" M 95.80 216.06 C 95.77 215.33 95.75 214.59 95.75 213.86 C 97.05 214.08 98.34 214.29 99.64 214.51 C 99.51 214.88 99.24 215.63 99.10 216.00 C 98.28 216.01 96.63 216.05 95.80 216.06 Z" />
<path fill="#333333" opacity="1.00" d=" M 131.88 259.44 C 129.25 257.21 128.73 253.71 130.46 250.77 C 130.87 253.66 131.34 256.56 131.88 259.44 Z" />
<path fill="#333333" opacity="1.00" d=" M 88.60 267.78 C 90.17 264.73 91.14 260.55 94.77 259.35 C 93.15 262.44 92.08 266.24 88.60 267.78 Z" />
</g>
</svg>
