<?xml version="1.0" encoding="UTF-8" ?>
<!DOCTYPE svg PUBLIC "-//W3C//DTD SVG 1.1//EN" "http://www.w3.org/Graphics/SVG/1.1/DTD/svg11.dtd">
<svg width="200pt" height="200pt" viewBox="0 0 200 200" version="1.1" xmlns="http://www.w3.org/2000/svg">
<g id="#ffffffff">
<path fill="#FFFFFF" opacity="1.00" d=" M 0.00 0.00 L 200.00 0.00 L 200.00 200.00 L 0.00 200.00 L 0.00 0.00 M 133.92 17.91 C 131.86 22.07 131.86 27.31 133.53 31.61 C 134.40 34.41 137.84 33.68 140.07 33.88 C 142.78 34.28 145.46 30.58 147.78 33.04 C 147.55 36.93 148.34 41.44 145.48 44.56 C 143.11 46.97 144.26 52.53 140.13 52.89 C 135.81 53.44 131.47 54.16 127.74 56.60 C 124.82 55.00 121.61 53.50 118.20 53.74 C 115.57 54.25 113.16 55.47 110.70 56.48 C 107.99 54.59 104.56 54.00 102.15 51.65 C 104.06 47.71 104.21 43.28 104.91 39.04 C 105.38 35.77 103.06 33.09 101.63 30.39 C 96.68 26.53 89.20 27.41 85.07 32.02 C 82.32 37.84 84.58 44.49 86.44 50.24 C 86.27 50.87 85.92 52.12 85.75 52.74 C 83.63 54.36 81.33 55.71 79.27 57.41 C 77.46 56.66 75.66 55.90 73.82 55.26 C 69.84 53.69 65.60 55.77 62.14 57.67 C 57.84 54.59 52.52 54.47 47.57 53.30 C 46.62 50.68 46.04 47.83 44.29 45.59 C 41.70 42.40 42.37 37.96 42.25 34.13 C 43.86 31.68 46.68 34.70 48.84 34.84 C 51.32 34.60 55.38 35.74 56.40 32.62 C 58.58 27.33 57.76 21.02 54.53 16.34 C 51.58 16.30 48.63 16.50 45.69 16.71 C 45.06 17.90 44.44 19.09 43.82 20.29 C 39.17 19.69 34.55 21.19 29.87 20.79 C 28.44 17.24 24.32 17.35 21.23 18.13 C 15.59 22.76 17.46 31.34 21.21 36.55 C 24.55 36.82 29.25 37.81 30.42 33.52 L 31.01 33.34 C 31.12 40.20 29.27 47.18 31.13 53.93 C 32.30 57.09 33.88 60.10 34.65 63.41 C 37.33 65.40 40.53 66.67 42.89 69.08 C 44.93 71.14 47.18 72.96 49.46 74.73 C 53.40 77.67 58.59 77.27 63.21 77.96 C 64.03 77.65 64.85 77.34 65.68 77.03 C 66.53 78.94 67.46 80.81 68.62 82.55 C 69.15 85.56 70.71 88.16 72.49 90.58 C 73.25 93.20 74.34 95.68 75.50 98.14 C 75.97 105.35 77.04 112.52 76.63 119.75 C 76.02 120.42 75.42 121.08 74.82 121.76 C 74.62 125.28 72.62 128.44 72.77 132.01 C 72.36 135.73 73.92 139.22 74.41 142.85 C 73.93 144.95 73.08 146.96 72.66 149.08 C 72.71 151.43 73.31 153.73 73.63 156.06 C 72.85 157.70 72.04 159.34 71.41 161.05 C 71.45 163.09 73.57 163.52 75.03 164.28 C 75.43 167.40 75.72 170.54 76.21 173.65 C 79.13 171.30 76.52 166.88 76.65 163.71 C 81.99 165.27 87.59 164.15 93.03 164.99 C 92.79 167.90 92.13 170.95 93.29 173.76 C 93.99 170.78 94.28 167.72 94.59 164.68 C 98.49 162.02 96.39 156.68 97.11 152.72 C 97.27 156.28 97.28 159.87 98.09 163.37 C 101.71 165.49 100.36 170.40 101.84 173.77 C 103.01 171.01 102.06 168.01 101.86 165.16 C 107.21 164.08 112.64 163.84 118.03 163.19 C 117.90 164.79 117.78 166.39 117.67 168.00 L 119.35 168.10 C 119.47 166.28 119.59 164.46 119.70 162.63 C 120.72 161.28 122.09 159.92 121.47 158.06 C 120.19 152.75 121.82 147.11 119.34 142.07 C 120.45 138.44 120.29 134.53 119.10 130.94 C 118.40 126.67 115.54 123.18 114.91 118.87 C 114.51 118.93 113.71 119.06 113.31 119.13 C 115.17 122.61 117.29 126.02 118.25 129.89 C 118.52 133.98 117.25 138.02 117.27 142.05 C 119.64 147.89 119.86 154.39 119.00 160.57 C 112.87 162.35 106.39 161.60 100.12 162.39 C 99.59 159.19 99.33 155.95 99.42 152.71 C 98.06 152.15 96.53 148.69 95.16 150.76 C 94.44 154.34 94.96 158.04 94.67 161.67 C 89.44 161.18 84.20 162.58 78.99 161.91 C 77.57 161.47 74.72 161.25 75.44 159.05 C 76.10 155.72 75.81 152.34 75.58 148.99 C 75.26 145.99 76.73 143.07 76.16 140.09 C 75.63 135.76 74.45 131.24 75.92 126.97 C 76.75 123.80 78.97 121.18 79.59 117.92 C 91.22 116.97 102.88 117.54 114.54 117.33 C 115.88 111.01 114.99 104.44 115.94 98.07 C 116.54 95.94 117.28 93.83 117.48 91.61 C 115.71 93.32 113.55 95.18 113.61 97.87 C 112.66 103.66 114.12 109.42 113.86 115.21 C 103.91 116.14 93.93 115.68 83.95 115.87 C 82.23 115.70 80.28 116.04 78.77 115.04 C 78.62 108.86 79.23 102.45 77.60 96.45 C 74.73 93.10 74.04 88.67 71.86 84.95 C 72.54 84.59 73.90 83.89 74.58 83.54 C 72.59 81.96 69.99 80.82 69.00 78.30 C 68.06 76.62 67.79 74.35 66.25 73.11 C 65.99 74.19 65.78 75.27 65.61 76.37 C 62.82 76.06 59.99 76.12 57.20 75.75 C 53.99 75.04 51.09 73.40 48.28 71.76 C 45.71 70.36 44.72 67.24 42.12 65.89 C 40.10 64.76 38.10 63.60 36.04 62.53 C 35.56 60.28 34.55 58.20 33.64 56.10 C 31.42 50.33 31.80 44.04 32.87 38.07 C 32.51 32.99 30.88 27.99 31.80 22.82 C 35.52 22.12 39.32 21.49 43.10 22.00 C 42.72 24.34 42.81 26.71 43.01 29.06 C 43.51 31.14 41.03 31.89 39.91 33.15 C 40.74 37.23 40.76 41.46 41.94 45.47 C 39.02 49.57 39.70 54.88 39.38 59.64 C 39.83 59.25 40.71 58.47 41.16 58.08 C 41.26 54.41 41.02 50.69 42.01 47.10 C 43.91 49.53 45.13 52.38 46.23 55.23 C 48.78 55.31 51.36 54.94 53.88 55.39 C 56.03 56.14 58.00 57.28 60.02 58.31 C 59.46 59.15 58.91 59.99 58.35 60.83 C 62.09 59.68 65.61 58.00 69.21 56.50 C 72.90 54.97 76.45 57.59 79.26 59.73 C 79.73 59.56 80.67 59.21 81.14 59.04 C 81.21 58.63 81.35 57.80 81.42 57.39 C 84.34 56.15 87.27 54.93 90.03 53.37 C 90.07 49.62 90.83 45.76 89.34 42.16 C 88.63 45.05 88.80 48.03 88.76 50.98 C 88.43 51.47 87.77 52.45 87.44 52.94 C 87.64 51.99 87.83 51.03 88.02 50.08 C 87.10 46.98 86.83 43.74 86.12 40.59 C 85.71 38.26 85.03 35.59 86.57 33.51 C 90.20 27.35 101.56 28.48 102.86 35.99 C 102.88 41.22 102.29 46.45 101.21 51.57 L 100.20 51.56 C 99.66 48.72 100.62 45.09 97.99 43.06 C 98.10 46.03 97.39 49.29 98.88 52.03 C 100.49 55.50 105.02 54.65 107.88 56.46 C 108.77 57.29 109.49 58.49 110.78 58.71 C 113.66 56.96 116.75 54.02 120.40 55.35 C 124.15 56.85 127.75 58.72 131.66 59.83 C 131.10 58.99 130.53 58.15 129.96 57.31 C 132.00 56.28 133.99 55.11 136.16 54.37 C 138.72 53.95 141.32 54.34 143.90 54.26 C 145.25 51.56 144.60 46.95 148.36 46.36 C 148.63 50.54 148.28 54.78 149.07 58.91 C 149.70 57.77 150.26 56.53 150.11 55.20 C 149.86 51.55 149.78 47.77 148.14 44.42 C 149.02 40.67 149.12 36.80 149.28 32.97 C 149.57 31.05 147.42 30.24 146.33 29.08 C 147.05 26.43 147.86 23.56 146.23 21.04 C 150.10 20.51 154.01 21.03 157.79 21.89 C 158.83 28.32 155.98 34.52 157.13 40.93 C 157.84 47.01 157.88 54.01 153.88 59.03 C 153.89 59.64 153.91 60.85 153.92 61.46 C 151.61 62.62 149.35 63.86 147.15 65.19 C 144.91 66.35 144.28 69.13 142.14 70.38 C 139.41 72.12 136.52 73.69 133.41 74.60 C 130.33 75.23 127.16 75.02 124.04 75.28 C 124.03 73.86 124.03 72.44 124.03 71.02 C 126.91 69.63 129.88 67.37 130.37 63.99 C 127.25 66.09 124.64 68.99 121.02 70.27 C 119.63 72.07 118.13 73.81 116.95 75.76 C 119.66 75.27 121.67 73.38 123.06 71.10 C 122.27 73.33 121.86 75.70 120.78 77.82 C 119.74 79.93 117.50 80.92 115.68 82.21 C 116.48 82.85 117.27 83.50 118.07 84.14 C 116.95 86.08 115.90 88.11 115.71 90.39 C 118.99 88.55 120.74 85.14 121.36 81.55 C 122.47 79.89 123.40 78.12 124.22 76.30 C 127.77 77.17 131.44 76.55 134.99 75.98 C 141.01 75.02 144.60 69.53 149.23 66.14 C 151.08 64.72 153.46 63.89 154.97 62.10 C 156.31 58.44 157.89 54.86 158.86 51.08 C 159.62 44.78 158.70 38.44 158.51 32.14 C 159.73 33.30 160.70 34.72 161.99 35.81 C 164.60 35.50 168.35 36.77 169.58 33.64 C 172.41 28.35 173.11 21.17 168.24 16.83 C 166.08 16.87 163.92 16.89 161.77 16.90 C 161.25 17.76 160.73 18.63 160.23 19.51 C 155.38 20.35 150.55 18.86 145.69 19.15 C 145.12 18.05 144.69 16.89 144.22 15.76 C 140.78 15.90 135.48 13.50 133.92 17.91 M 92.54 43.29 C 93.06 44.32 93.59 45.34 94.13 46.36 C 95.04 45.29 95.95 44.23 96.87 43.17 C 95.43 43.21 93.99 43.25 92.54 43.29 M 94.04 53.04 C 93.50 54.70 94.04 55.28 95.64 54.80 C 96.16 53.15 95.63 52.57 94.04 53.04 M 94.49 56.56 C 94.29 58.37 94.20 60.18 94.32 61.99 C 94.96 71.00 94.53 80.05 95.33 89.04 C 94.97 94.38 95.26 99.72 95.44 105.06 C 95.66 107.79 94.64 111.06 97.12 113.07 C 97.64 107.37 97.08 101.65 97.02 95.95 C 97.20 92.91 95.11 90.14 95.88 87.12 C 97.26 79.81 97.22 72.31 96.79 64.92 C 96.40 62.06 96.22 58.98 94.49 56.56 M 113.00 59.69 C 113.07 61.47 113.30 63.24 113.59 65.00 C 110.50 66.59 107.04 67.14 103.85 68.44 C 103.89 69.29 103.97 70.97 104.01 71.82 C 107.27 69.76 110.84 68.24 114.11 66.20 C 114.46 67.31 114.82 68.42 115.19 69.53 C 116.50 67.85 117.86 66.21 119.16 64.53 C 118.27 64.68 117.39 64.84 116.51 65.01 C 115.55 63.10 114.44 61.28 113.00 59.69 M 73.57 66.05 C 72.75 65.84 71.93 65.64 71.11 65.44 C 71.29 65.81 71.65 66.56 71.83 66.94 C 72.94 68.05 73.99 69.19 75.03 70.37 C 75.31 69.29 75.60 68.21 75.87 67.13 C 79.37 69.37 83.40 70.74 86.60 73.44 C 86.44 72.10 86.33 70.75 86.22 69.40 C 83.00 68.15 79.55 67.56 76.47 65.92 C 76.70 64.19 76.85 62.45 76.91 60.70 C 75.54 62.31 74.47 64.14 73.57 66.05 M 133.65 63.90 C 133.63 66.49 133.28 69.06 133.26 71.64 C 135.34 69.75 134.16 66.01 137.01 64.82 C 139.36 63.88 142.00 63.83 144.26 62.61 C 140.71 62.16 136.77 61.74 133.65 63.90 M 46.02 63.30 C 46.64 63.83 47.26 64.35 47.89 64.87 C 49.63 65.07 51.52 64.93 53.06 65.92 C 55.82 67.03 54.65 70.68 56.63 72.52 C 56.64 69.97 56.36 67.44 56.35 64.90 C 53.31 62.82 49.50 63.25 46.02 63.30 M 59.50 65.10 C 60.33 68.94 63.86 71.57 67.49 72.56 C 68.52 74.85 70.66 76.25 73.07 76.74 C 71.85 74.81 70.36 73.07 68.97 71.26 C 65.32 70.03 62.69 67.10 59.50 65.10 M 103.06 74.12 C 102.45 76.78 102.90 79.47 105.22 81.15 C 104.84 81.61 104.47 82.09 104.11 82.58 C 103.34 84.28 102.54 86.10 100.94 87.20 C 99.81 88.27 97.88 88.96 98.09 90.83 C 102.08 90.94 103.96 86.03 105.39 82.89 C 106.03 82.47 106.67 82.05 107.33 81.64 L 107.22 83.00 C 108.87 83.06 110.51 83.10 112.16 83.13 C 112.23 81.01 112.31 78.88 112.12 76.77 C 111.10 78.38 110.12 80.01 109.15 81.66 C 105.42 80.76 104.21 77.34 103.06 74.12 M 80.83 82.71 C 80.02 81.23 79.21 79.76 78.42 78.28 C 78.21 78.59 77.78 79.20 77.57 79.51 C 77.83 80.99 78.06 82.47 78.42 83.92 C 80.38 84.42 82.81 84.29 84.19 82.56 C 86.99 85.68 88.85 89.81 93.04 91.37 C 93.26 88.82 91.28 87.59 89.33 86.56 C 88.26 84.68 87.08 82.88 85.85 81.11 C 87.83 79.82 87.74 77.52 87.46 75.46 C 85.86 78.44 84.49 81.81 80.83 82.71 M 76.79 90.98 C 79.49 91.54 82.09 89.61 82.23 86.84 C 80.03 87.66 78.28 89.21 76.79 90.98 M 108.41 86.68 C 109.25 88.33 110.55 89.64 111.85 90.93 C 112.43 90.62 113.59 90.01 114.17 89.70 C 112.41 88.43 110.54 87.25 108.41 86.68 M 90.07 92.93 C 89.22 96.94 86.96 100.35 83.94 103.06 C 84.63 102.94 86.02 102.69 86.71 102.57 C 86.43 106.95 85.31 111.95 88.18 115.76 C 88.00 111.84 87.40 107.90 87.99 103.98 C 88.46 99.32 91.61 95.63 93.63 91.58 C 92.44 92.01 91.25 92.46 90.07 92.93 M 98.54 92.41 C 99.70 94.57 101.14 96.57 102.26 98.76 C 104.65 103.33 104.67 108.62 105.20 113.62 L 106.20 113.74 C 105.74 109.96 105.97 106.15 105.82 102.36 C 107.32 102.97 108.85 103.54 110.43 103.92 C 108.32 101.76 105.63 100.33 103.10 98.75 C 102.41 96.21 101.79 92.72 98.54 92.41 M 93.05 122.30 C 89.21 122.54 85.43 121.46 81.58 121.67 C 84.23 123.81 87.82 123.48 91.00 123.82 C 94.41 124.42 97.19 122.10 100.29 121.19 C 102.04 120.63 104.04 120.72 105.52 119.47 C 101.27 119.99 97.23 121.48 93.05 122.30 M 98.10 141.37 C 96.34 142.80 98.30 144.58 99.65 145.31 C 101.51 146.92 104.08 146.43 106.34 146.62 C 106.40 146.14 106.52 145.19 106.58 144.71 C 105.07 144.71 103.56 144.70 102.06 144.69 C 100.76 143.56 99.51 142.36 98.10 141.37 M 87.47 146.31 C 89.18 146.46 90.90 146.40 92.62 146.39 C 93.46 145.46 94.32 144.55 95.14 143.61 C 92.61 144.33 88.92 143.78 87.47 146.31 Z" />
<path fill="#FFFFFF" opacity="1.00" d=" M 136.93 32.81 C 130.85 29.27 132.76 20.45 136.98 16.14 C 139.21 16.44 141.53 16.52 143.61 17.47 C 144.73 19.59 145.00 22.02 145.75 24.28 C 144.97 26.84 145.00 29.91 142.87 31.83 C 141.35 32.17 139.81 32.40 138.25 32.52 C 139.77 28.47 142.37 23.74 139.94 19.50 C 139.59 24.07 138.44 28.50 136.93 32.81 Z" />
<path fill="#FFFFFF" opacity="1.00" d=" M 43.70 25.26 C 44.95 22.03 45.48 17.02 50.10 17.42 C 53.31 16.34 55.10 19.68 56.27 22.09 C 56.80 25.01 56.87 28.07 56.30 30.98 C 55.26 32.10 54.01 32.99 52.83 33.94 C 51.63 29.52 50.37 25.11 50.07 20.51 C 47.27 24.67 50.33 29.44 51.79 33.49 C 50.14 33.12 47.96 33.73 46.67 32.35 C 44.81 30.45 44.40 27.72 43.70 25.26 Z" />
<path fill="#FFFFFF" opacity="1.00" d=" M 160.84 19.14 C 163.10 18.79 165.37 18.47 167.63 18.12 C 171.74 22.68 170.87 31.15 165.95 34.86 C 164.76 34.26 163.58 33.67 162.40 33.08 C 163.80 30.26 164.54 27.17 164.13 24.02 C 163.81 24.08 163.18 24.21 162.87 24.27 C 162.65 27.31 162.72 30.53 161.18 33.28 C 158.17 29.15 158.74 23.53 160.84 19.14 Z" />
<path fill="#FFFFFF" opacity="1.00" d=" M 23.18 35.77 C 18.80 31.61 17.78 23.94 21.66 19.14 C 23.99 19.49 26.39 19.55 28.64 20.32 C 31.58 24.38 29.91 29.53 29.57 34.10 C 27.19 34.94 27.59 32.42 27.22 31.16 C 26.95 28.86 26.80 26.54 26.44 24.24 C 23.93 27.31 26.03 31.09 27.02 34.32 C 25.74 34.80 24.46 35.28 23.18 35.77 Z" />
</g>
<g id="#363736ff">
<path fill="#333333" opacity="1.00" d=" M 133.92 17.91 C 135.48 13.50 140.78 15.90 144.22 15.76 C 144.69 16.89 145.12 18.05 145.69 19.15 C 150.55 18.86 155.38 20.35 160.23 19.51 C 160.73 18.63 161.25 17.76 161.77 16.90 C 163.92 16.89 166.08 16.87 168.24 16.83 C 173.11 21.17 172.41 28.35 169.58 33.64 C 168.35 36.77 164.60 35.50 161.99 35.81 C 160.70 34.72 159.73 33.30 158.51 32.14 C 158.70 38.44 159.62 44.78 158.86 51.08 C 157.89 54.86 156.31 58.44 154.97 62.10 C 153.46 63.89 151.08 64.72 149.23 66.14 C 144.60 69.53 141.01 75.02 134.99 75.98 C 131.44 76.55 127.77 77.17 124.22 76.30 C 123.40 78.12 122.47 79.89 121.36 81.55 C 120.74 85.14 118.99 88.55 115.71 90.39 C 115.90 88.11 116.95 86.08 118.07 84.14 C 117.27 83.50 116.48 82.85 115.68 82.21 C 117.50 80.92 119.74 79.93 120.78 77.82 C 121.86 75.70 122.27 73.33 123.06 71.10 C 121.67 73.38 119.66 75.27 116.95 75.76 C 118.13 73.81 119.63 72.07 121.02 70.27 C 124.64 68.99 127.25 66.09 130.37 63.99 C 129.88 67.37 126.91 69.63 124.03 71.02 C 124.03 72.44 124.03 73.86 124.04 75.28 C 127.16 75.02 130.33 75.23 133.41 74.60 C 136.52 73.69 139.41 72.12 142.14 70.38 C 144.28 69.13 144.91 66.35 147.15 65.19 C 149.35 63.86 151.61 62.62 153.92 61.46 C 153.91 60.85 153.89 59.64 153.88 59.03 C 157.88 54.01 157.84 47.01 157.13 40.93 C 155.98 34.52 158.83 28.32 157.79 21.89 C 154.01 21.03 150.10 20.51 146.23 21.04 C 147.86 23.56 147.05 26.43 146.33 29.08 C 147.42 30.24 149.57 31.05 149.28 32.97 C 149.12 36.80 149.02 40.67 148.14 44.42 C 149.78 47.77 149.86 51.55 150.11 55.20 C 150.26 56.53 149.70 57.77 149.07 58.91 C 148.28 54.78 148.63 50.54 148.36 46.36 C 144.60 46.95 145.25 51.56 143.90 54.26 C 141.32 54.34 138.72 53.95 136.16 54.37 C 133.99 55.11 132.00 56.28 129.96 57.31 C 130.53 58.15 131.10 58.99 131.66 59.83 C 127.75 58.72 124.15 56.85 120.40 55.35 C 116.75 54.02 113.66 56.96 110.78 58.71 C 109.49 58.49 108.77 57.29 107.88 56.46 C 105.02 54.65 100.49 55.50 98.88 52.03 C 97.39 49.29 98.10 46.03 97.99 43.06 C 100.62 45.09 99.66 48.72 100.20 51.56 L 101.21 51.57 C 102.29 46.45 102.88 41.22 102.86 35.99 C 101.56 28.48 90.20 27.35 86.57 33.51 C 85.03 35.59 85.71 38.26 86.12 40.59 C 86.83 43.74 87.10 46.98 88.02 50.08 C 87.83 51.03 87.64 51.99 87.44 52.94 C 87.77 52.45 88.43 51.47 88.76 50.98 C 88.80 48.03 88.63 45.05 89.34 42.16 C 90.83 45.76 90.07 49.62 90.03 53.37 C 87.27 54.93 84.34 56.15 81.42 57.39 C 81.35 57.80 81.21 58.63 81.14 59.04 C 80.67 59.21 79.73 59.56 79.26 59.73 C 76.45 57.59 72.90 54.97 69.21 56.50 C 65.61 58.00 62.09 59.68 58.35 60.83 C 58.91 59.99 59.46 59.15 60.02 58.31 C 58.00 57.28 56.03 56.14 53.88 55.39 C 51.36 54.94 48.78 55.31 46.23 55.23 C 45.13 52.38 43.91 49.53 42.01 47.10 C 41.02 50.69 41.26 54.41 41.16 58.08 C 40.71 58.47 39.83 59.25 39.38 59.64 C 39.70 54.88 39.02 49.57 41.94 45.47 C 40.76 41.46 40.74 37.23 39.91 33.15 C 41.03 31.89 43.51 31.14 43.01 29.06 C 42.81 26.71 42.72 24.34 43.10 22.00 C 39.32 21.49 35.52 22.12 31.80 22.82 C 30.88 27.99 32.51 32.99 32.87 38.07 C 31.80 44.04 31.42 50.33 33.64 56.10 C 34.55 58.20 35.56 60.28 36.04 62.53 C 38.10 63.60 40.10 64.76 42.12 65.89 C 44.72 67.24 45.71 70.36 48.28 71.76 C 51.09 73.40 53.99 75.04 57.20 75.75 C 59.99 76.12 62.82 76.06 65.61 76.37 C 65.78 75.27 65.99 74.19 66.25 73.11 C 67.79 74.35 68.06 76.62 69.00 78.30 C 69.99 80.82 72.59 81.96 74.58 83.54 C 73.90 83.89 72.54 84.59 71.86 84.95 C 74.04 88.67 74.73 93.10 77.60 96.45 C 79.23 102.45 78.62 108.86 78.77 115.04 C 80.28 116.04 82.23 115.70 83.95 115.87 C 93.93 115.68 103.91 116.14 113.86 115.21 C 114.12 109.42 112.66 103.66 113.61 97.87 C 113.55 95.18 115.71 93.32 117.48 91.61 C 117.28 93.83 116.54 95.94 115.94 98.07 C 114.99 104.44 115.88 111.01 114.54 117.33 C 102.88 117.54 91.22 116.97 79.59 117.92 C 78.97 121.18 76.75 123.80 75.92 126.97 C 74.45 131.24 75.63 135.76 76.16 140.09 C 76.73 143.07 75.26 145.99 75.58 148.99 C 75.81 152.34 76.10 155.72 75.44 159.05 C 74.72 161.25 77.57 161.47 78.99 161.91 C 84.20 162.58 89.44 161.18 94.67 161.67 C 94.96 158.04 94.44 154.34 95.16 150.76 C 96.53 148.69 98.06 152.15 99.42 152.71 C 99.33 155.95 99.59 159.19 100.12 162.39 C 106.39 161.60 112.87 162.35 119.00 160.57 C 119.86 154.39 119.64 147.89 117.27 142.05 C 117.25 138.02 118.52 133.98 118.25 129.89 C 117.29 126.02 115.17 122.61 113.31 119.13 C 113.71 119.06 114.51 118.93 114.91 118.87 C 115.54 123.18 118.40 126.67 119.10 130.94 C 120.29 134.53 120.45 138.44 119.34 142.07 C 121.82 147.11 120.19 152.75 121.47 158.06 C 122.09 159.92 120.72 161.28 119.70 162.63 C 119.59 164.46 119.47 166.28 119.35 168.10 L 117.67 168.00 C 117.78 166.39 117.90 164.79 118.03 163.19 C 112.64 163.84 107.21 164.08 101.86 165.16 C 102.06 168.01 103.01 171.01 101.84 173.77 C 100.36 170.40 101.71 165.49 98.09 163.37 C 97.28 159.87 97.27 156.28 97.11 152.72 C 96.39 156.68 98.49 162.02 94.59 164.68 C 94.28 167.72 93.99 170.78 93.29 173.76 C 92.13 170.95 92.79 167.90 93.03 164.99 C 87.59 164.15 81.99 165.27 76.65 163.71 C 76.52 166.88 79.13 171.30 76.21 173.65 C 75.72 170.54 75.43 167.40 75.03 164.28 C 73.57 163.52 71.45 163.09 71.41 161.05 C 72.04 159.34 72.85 157.70 73.63 156.06 C 73.31 153.73 72.71 151.43 72.66 149.08 C 73.08 146.96 73.93 144.95 74.41 142.85 C 73.92 139.22 72.36 135.73 72.77 132.01 C 72.62 128.44 74.62 125.28 74.82 121.76 C 75.42 121.08 76.02 120.42 76.63 119.75 C 77.04 112.52 75.97 105.35 75.50 98.14 C 74.34 95.68 73.25 93.20 72.49 90.58 C 70.71 88.16 69.15 85.56 68.62 82.55 C 67.46 80.81 66.53 78.94 65.68 77.03 C 64.85 77.34 64.03 77.65 63.21 77.96 C 58.59 77.27 53.40 77.67 49.46 74.73 C 47.18 72.96 44.93 71.14 42.89 69.08 C 40.53 66.67 37.33 65.40 34.65 63.41 C 33.88 60.10 32.30 57.09 31.13 53.93 C 29.27 47.18 31.12 40.20 31.01 33.34 L 30.42 33.52 C 29.25 37.81 24.55 36.82 21.21 36.55 C 17.46 31.34 15.59 22.76 21.23 18.13 C 24.32 17.35 28.44 17.24 29.87 20.79 C 34.55 21.19 39.17 19.69 43.82 20.29 C 44.44 19.09 45.06 17.90 45.69 16.71 C 48.63 16.50 51.58 16.30 54.53 16.34 C 57.76 21.02 58.58 27.33 56.40 32.62 C 55.38 35.74 51.32 34.60 48.84 34.84 C 46.68 34.70 43.86 31.68 42.25 34.13 C 42.37 37.96 41.70 42.40 44.29 45.59 C 46.04 47.83 46.62 50.68 47.57 53.30 C 52.52 54.47 57.84 54.59 62.14 57.67 C 65.60 55.77 69.84 53.69 73.82 55.26 C 75.66 55.90 77.46 56.66 79.27 57.41 C 81.33 55.71 83.63 54.36 85.75 52.74 C 85.92 52.12 86.27 50.87 86.44 50.24 C 84.58 44.49 82.32 37.84 85.07 32.02 C 89.20 27.41 96.68 26.53 101.63 30.39 C 103.06 33.09 105.38 35.77 104.91 39.04 C 104.21 43.28 104.06 47.71 102.15 51.65 C 104.56 54.00 107.99 54.59 110.70 56.48 C 113.16 55.47 115.57 54.25 118.20 53.74 C 121.61 53.50 124.82 55.00 127.74 56.60 C 131.47 54.16 135.81 53.44 140.13 52.89 C 144.26 52.53 143.11 46.97 145.48 44.56 C 148.34 41.44 147.55 36.93 147.78 33.04 C 145.46 30.58 142.78 34.28 140.07 33.88 C 137.84 33.68 134.40 34.41 133.53 31.61 C 131.86 27.31 131.86 22.07 133.92 17.91 M 136.93 32.81 C 138.44 28.50 139.59 24.07 139.94 19.50 C 142.37 23.74 139.77 28.47 138.25 32.52 C 139.81 32.40 141.35 32.17 142.87 31.83 C 145.00 29.91 144.97 26.84 145.75 24.28 C 145.00 22.02 144.73 19.59 143.61 17.47 C 141.53 16.52 139.21 16.44 136.98 16.14 C 132.76 20.45 130.85 29.27 136.93 32.81 M 43.70 25.26 C 44.40 27.72 44.81 30.45 46.67 32.35 C 47.96 33.73 50.14 33.12 51.79 33.49 C 50.33 29.44 47.27 24.67 50.07 20.51 C 50.37 25.11 51.63 29.52 52.83 33.94 C 54.01 32.99 55.26 32.10 56.30 30.98 C 56.87 28.07 56.80 25.01 56.27 22.09 C 55.10 19.68 53.31 16.34 50.10 17.42 C 45.48 17.02 44.95 22.03 43.70 25.26 M 160.84 19.14 C 158.74 23.53 158.17 29.15 161.18 33.28 C 162.72 30.53 162.65 27.31 162.87 24.27 C 163.18 24.21 163.81 24.08 164.13 24.02 C 164.54 27.17 163.80 30.26 162.40 33.08 C 163.58 33.67 164.76 34.26 165.95 34.86 C 170.87 31.15 171.74 22.68 167.63 18.12 C 165.37 18.47 163.10 18.79 160.84 19.14 M 23.18 35.77 C 24.46 35.28 25.74 34.80 27.02 34.32 C 26.03 31.09 23.93 27.31 26.44 24.24 C 26.80 26.54 26.95 28.86 27.22 31.16 C 27.59 32.42 27.19 34.94 29.57 34.10 C 29.91 29.53 31.58 24.38 28.64 20.32 C 26.39 19.55 23.99 19.49 21.66 19.14 C 17.78 23.94 18.80 31.61 23.18 35.77 Z" />
<path fill="#333333" opacity="1.00" d=" M 92.54 43.29 C 93.99 43.25 95.43 43.21 96.87 43.17 C 95.95 44.23 95.04 45.29 94.13 46.36 C 93.59 45.34 93.06 44.32 92.54 43.29 Z" />
<path fill="#333333" opacity="1.00" d=" M 94.04 53.04 C 95.63 52.57 96.16 53.15 95.64 54.80 C 94.04 55.28 93.50 54.70 94.04 53.04 Z" />
<path fill="#333333" opacity="1.00" d=" M 94.49 56.56 C 96.22 58.98 96.40 62.06 96.79 64.92 C 97.22 72.31 97.26 79.81 95.88 87.12 C 95.11 90.14 97.20 92.91 97.02 95.95 C 97.08 101.65 97.64 107.37 97.12 113.07 C 94.64 111.06 95.66 107.79 95.44 105.06 C 95.26 99.72 94.97 94.38 95.33 89.04 C 94.53 80.05 94.96 71.00 94.32 61.99 C 94.20 60.18 94.29 58.37 94.49 56.56 Z" />
<path fill="#333333" opacity="1.00" d=" M 113.00 59.69 C 114.44 61.28 115.55 63.10 116.51 65.01 C 117.39 64.84 118.27 64.68 119.16 64.53 C 117.86 66.21 116.50 67.85 115.19 69.53 C 114.82 68.42 114.46 67.31 114.11 66.20 C 110.84 68.24 107.27 69.76 104.01 71.82 C 103.97 70.97 103.89 69.29 103.85 68.44 C 107.04 67.14 110.50 66.59 113.59 65.00 C 113.30 63.24 113.07 61.47 113.00 59.69 Z" />
<path fill="#333333" opacity="1.00" d=" M 73.57 66.05 C 74.47 64.14 75.54 62.31 76.91 60.70 C 76.85 62.45 76.70 64.19 76.47 65.92 C 79.55 67.56 83.00 68.15 86.22 69.40 C 86.33 70.75 86.44 72.10 86.60 73.44 C 83.40 70.74 79.37 69.37 75.87 67.13 C 75.60 68.21 75.31 69.29 75.03 70.37 C 73.99 69.19 72.94 68.05 71.83 66.94 C 71.65 66.56 71.29 65.81 71.11 65.44 C 71.93 65.64 72.75 65.84 73.57 66.05 Z" />
<path fill="#333333" opacity="1.00" d=" M 133.65 63.90 C 136.77 61.74 140.71 62.16 144.26 62.61 C 142.00 63.83 139.36 63.88 137.01 64.82 C 134.16 66.01 135.34 69.75 133.26 71.64 C 133.28 69.06 133.63 66.49 133.65 63.90 Z" />
<path fill="#333333" opacity="1.00" d=" M 46.02 63.30 C 49.50 63.25 53.31 62.82 56.35 64.90 C 56.36 67.44 56.64 69.97 56.63 72.52 C 54.65 70.68 55.82 67.03 53.06 65.92 C 51.52 64.93 49.63 65.07 47.89 64.87 C 47.26 64.35 46.64 63.83 46.02 63.30 Z" />
<path fill="#333333" opacity="1.00" d=" M 59.50 65.10 C 62.69 67.10 65.32 70.03 68.97 71.26 C 70.36 73.07 71.85 74.81 73.07 76.74 C 70.66 76.25 68.52 74.85 67.49 72.56 C 63.86 71.57 60.33 68.94 59.50 65.10 Z" />
<path fill="#333333" opacity="1.00" d=" M 103.06 74.12 C 104.21 77.34 105.42 80.76 109.15 81.66 C 110.12 80.01 111.10 78.38 112.12 76.77 C 112.31 78.88 112.23 81.01 112.16 83.13 C 110.51 83.10 108.87 83.06 107.22 83.00 L 107.33 81.64 C 106.67 82.05 106.03 82.47 105.39 82.89 C 103.96 86.03 102.08 90.94 98.09 90.83 C 97.88 88.96 99.81 88.27 100.94 87.20 C 102.54 86.10 103.34 84.28 104.11 82.58 C 104.47 82.09 104.84 81.61 105.22 81.15 C 102.90 79.47 102.45 76.78 103.06 74.12 Z" />
<path fill="#333333" opacity="1.00" d=" M 80.83 82.71 C 84.49 81.81 85.86 78.44 87.46 75.46 C 87.74 77.52 87.83 79.82 85.85 81.11 C 87.08 82.88 88.26 84.68 89.33 86.56 C 91.28 87.59 93.26 88.82 93.04 91.37 C 88.85 89.81 86.99 85.68 84.19 82.56 C 82.81 84.29 80.38 84.42 78.42 83.92 C 78.06 82.47 77.83 80.99 77.57 79.51 C 77.78 79.20 78.21 78.59 78.42 78.28 C 79.21 79.76 80.02 81.23 80.83 82.71 Z" />
<path fill="#333333" opacity="1.00" d=" M 76.79 90.98 C 78.28 89.21 80.03 87.66 82.23 86.84 C 82.09 89.61 79.49 91.54 76.79 90.98 Z" />
<path fill="#333333" opacity="1.00" d=" M 108.41 86.68 C 110.54 87.25 112.41 88.43 114.17 89.70 C 113.59 90.01 112.43 90.62 111.85 90.93 C 110.55 89.64 109.25 88.33 108.41 86.68 Z" />
<path fill="#333333" opacity="1.00" d=" M 90.07 92.93 C 91.25 92.46 92.44 92.01 93.63 91.58 C 91.61 95.63 88.46 99.32 87.99 103.98 C 87.40 107.90 88.00 111.84 88.18 115.76 C 85.31 111.95 86.43 106.95 86.71 102.57 C 86.02 102.69 84.63 102.94 83.94 103.06 C 86.96 100.35 89.22 96.94 90.07 92.93 Z" />
<path fill="#333333" opacity="1.00" d=" M 98.54 92.41 C 101.79 92.72 102.41 96.21 103.10 98.75 C 105.63 100.33 108.32 101.76 110.43 103.92 C 108.85 103.54 107.32 102.97 105.82 102.36 C 105.97 106.15 105.74 109.96 106.20 113.74 L 105.20 113.62 C 104.67 108.62 104.65 103.33 102.26 98.76 C 101.14 96.57 99.70 94.57 98.54 92.41 Z" />
<path fill="#333333" opacity="1.00" d=" M 93.05 122.30 C 97.23 121.48 101.27 119.99 105.52 119.47 C 104.04 120.72 102.04 120.63 100.29 121.19 C 97.19 122.10 94.41 124.42 91.00 123.82 C 87.82 123.48 84.23 123.81 81.58 121.67 C 85.43 121.46 89.21 122.54 93.05 122.30 Z" />
<path fill="#333333" opacity="1.00" d=" M 98.10 141.37 C 99.51 142.36 100.76 143.56 102.06 144.69 C 103.56 144.70 105.07 144.71 106.58 144.71 C 106.52 145.19 106.40 146.14 106.34 146.62 C 104.08 146.43 101.51 146.92 99.65 145.31 C 98.30 144.58 96.34 142.80 98.10 141.37 Z" />
<path fill="#333333" opacity="1.00" d=" M 87.47 146.31 C 88.92 143.78 92.61 144.33 95.14 143.61 C 94.32 144.55 93.46 145.46 92.62 146.39 C 90.90 146.40 89.18 146.46 87.47 146.31 Z" />
</g>
</svg>
