<?xml version="1.0" encoding="UTF-8" ?>
<!DOCTYPE svg PUBLIC "-//W3C//DTD SVG 1.1//EN" "http://www.w3.org/Graphics/SVG/1.1/DTD/svg11.dtd">
<svg width="175pt" height="175pt" viewBox="0 0 175 175" version="1.1" xmlns="http://www.w3.org/2000/svg">
<g id="#ffffffff">
<path fill="#FFFFFF" opacity="1.00" d=" M 0.00 0.00 L 175.00 0.00 L 175.00 175.00 L 0.00 175.00 L 0.00 0.00 M 78.32 31.99 C 78.69 38.09 78.32 44.42 80.50 50.24 C 79.60 51.74 78.85 53.36 77.71 54.71 C 72.71 56.51 66.96 56.77 62.91 60.62 C 62.90 60.95 62.90 61.60 62.90 61.93 C 65.16 62.29 66.62 60.06 68.60 59.39 C 71.46 58.40 74.41 57.65 77.29 56.69 C 80.44 56.93 81.19 52.81 82.40 50.66 C 84.46 53.83 86.53 57.46 90.38 58.68 C 93.29 60.28 96.57 58.85 99.11 57.22 C 97.68 60.66 97.48 64.36 97.19 68.03 C 96.38 70.11 93.30 70.20 92.93 72.58 C 90.83 70.81 89.03 68.25 86.10 67.92 C 80.69 67.55 75.00 67.28 70.04 69.84 C 69.71 68.09 70.39 65.68 68.56 64.57 C 66.46 62.74 63.51 63.98 61.06 64.01 C 62.43 65.69 64.68 65.14 66.51 65.71 C 68.23 66.28 67.39 68.47 67.75 69.84 C 63.79 73.02 61.14 77.46 57.32 80.78 C 56.50 80.50 54.85 79.96 54.02 79.68 C 53.67 81.21 52.96 84.27 52.61 85.79 C 53.28 84.95 54.63 83.28 55.31 82.44 C 56.99 82.32 58.57 81.73 60.09 81.04 C 60.69 82.68 61.60 84.24 61.86 85.98 C 59.82 92.62 57.87 100.19 51.58 104.13 C 49.62 99.36 53.02 94.25 50.43 89.73 C 49.26 94.03 50.44 98.60 48.85 102.80 C 49.90 105.57 51.06 108.52 53.54 110.34 C 57.11 112.84 60.95 114.98 64.25 117.85 C 65.82 119.24 67.92 120.01 70.03 119.91 C 73.69 118.63 75.46 114.81 78.42 112.55 C 80.50 113.90 82.10 115.82 83.99 117.40 C 80.97 116.99 75.31 117.19 76.54 121.68 C 78.19 117.64 82.88 119.61 86.19 119.10 C 86.28 118.49 86.45 117.26 86.54 116.65 C 88.89 119.56 90.39 123.22 93.59 125.37 C 94.78 127.04 96.10 128.72 98.23 129.17 C 97.26 127.46 95.93 125.89 95.94 123.81 C 102.03 122.05 108.66 121.61 114.09 118.06 C 119.62 115.20 119.88 107.54 125.67 104.87 C 124.17 104.38 122.39 104.18 121.40 102.81 C 118.35 99.18 119.85 94.10 118.60 89.86 C 117.60 87.45 119.37 85.42 120.54 83.50 C 121.10 83.21 122.23 82.63 122.79 82.34 C 120.47 79.46 119.17 75.96 117.18 72.88 C 113.51 69.20 108.14 66.11 102.80 67.78 C 101.35 67.64 98.90 69.21 98.00 67.85 C 98.77 64.03 99.46 60.18 99.51 56.27 C 100.32 54.94 101.13 53.61 101.96 52.29 C 102.56 54.82 102.97 57.43 104.11 59.79 C 104.51 59.80 105.30 59.82 105.69 59.82 C 105.56 59.03 105.28 57.43 105.14 56.63 C 108.98 59.04 114.20 59.69 116.66 63.92 C 115.57 65.22 114.46 66.49 113.33 67.75 C 113.57 67.71 114.05 67.62 114.29 67.58 C 117.21 63.87 121.91 65.63 125.75 66.28 C 128.41 67.06 131.22 68.07 132.97 70.34 C 135.14 74.71 135.16 79.78 135.01 84.55 C 135.37 84.83 136.10 85.40 136.46 85.68 C 141.00 90.72 141.37 97.89 140.07 104.23 C 137.26 101.47 138.88 97.30 139.72 94.09 C 138.50 95.86 136.59 97.69 136.99 100.07 C 137.67 103.12 137.54 106.65 139.92 108.99 C 139.96 113.09 142.77 118.76 138.45 121.55 C 134.85 124.23 131.42 127.35 127.11 128.86 C 122.56 130.54 117.79 131.73 112.96 132.20 C 108.44 132.14 103.93 130.97 99.42 131.50 C 97.84 132.64 96.57 134.15 94.99 135.28 C 93.51 136.64 91.49 135.41 89.79 135.30 C 88.77 136.41 87.76 137.53 86.75 138.66 C 83.79 138.77 80.83 138.83 77.87 138.97 C 75.91 137.14 73.72 135.25 73.18 132.47 C 71.46 128.78 73.20 124.35 70.64 120.96 C 68.95 124.80 69.97 129.19 69.58 133.23 L 71.25 130.15 C 70.91 131.56 70.60 132.97 70.27 134.37 C 71.88 136.83 73.74 139.11 75.73 141.27 C 80.17 141.17 84.61 141.32 89.05 141.10 C 90.54 140.57 90.39 138.63 91.05 137.44 C 92.17 137.79 93.30 138.15 94.42 138.51 C 96.66 136.92 98.68 135.01 101.10 133.70 C 104.68 132.27 108.53 133.85 112.14 134.34 C 111.83 136.85 111.15 139.29 110.32 141.68 C 109.01 144.04 107.05 145.90 104.41 146.65 C 95.84 150.88 86.03 149.02 77.00 147.70 C 73.79 147.26 69.69 147.05 68.04 143.75 C 66.81 140.37 66.25 136.78 64.99 133.41 C 66.07 133.41 68.24 133.40 69.32 133.40 C 69.24 132.45 69.17 131.50 69.10 130.55 C 59.86 131.41 50.71 128.48 42.67 124.12 C 39.73 122.43 35.26 123.19 34.31 119.04 C 34.88 115.71 35.33 112.33 35.06 108.95 C 34.42 104.15 36.69 99.68 37.43 95.03 C 38.43 88.94 43.12 84.41 45.05 78.65 C 45.45 80.39 45.84 82.15 46.36 83.87 C 46.81 80.20 46.47 76.50 46.57 72.82 C 47.12 69.27 49.29 66.19 51.93 63.84 C 54.94 63.17 58.28 63.45 61.14 62.79 C 61.25 62.33 61.47 61.41 61.58 60.95 C 58.24 61.11 54.96 61.96 51.80 63.01 C 46.31 64.74 43.72 71.14 44.42 76.51 C 42.06 79.64 40.60 83.30 38.39 86.52 C 34.34 92.18 34.50 99.45 32.89 105.98 C 33.46 111.62 32.92 117.40 33.93 123.00 C 36.73 124.33 39.95 124.72 42.47 126.67 C 48.18 130.47 54.98 131.59 61.63 132.45 C 63.92 135.01 63.06 138.86 63.75 142.00 C 62.94 143.00 62.14 144.01 61.33 145.01 C 62.93 150.89 60.60 156.83 61.70 162.77 C 65.05 161.83 62.94 157.51 63.79 155.03 C 65.01 151.35 63.83 147.56 64.47 143.84 C 66.00 145.48 67.35 147.36 69.20 148.66 C 71.65 149.96 74.50 150.06 77.17 150.62 C 84.00 152.01 91.18 152.51 98.02 150.94 C 102.96 149.00 108.77 147.50 111.75 142.70 C 113.52 146.33 113.85 150.41 115.35 154.14 C 114.79 156.83 112.74 161.71 115.97 163.10 C 116.88 161.37 116.52 159.34 116.64 157.47 C 117.15 157.10 118.16 156.36 118.67 155.99 C 117.25 152.45 115.79 148.73 116.43 144.83 C 115.37 142.92 113.96 141.21 112.80 139.35 C 112.81 137.76 112.82 136.17 112.84 134.59 C 118.06 133.52 123.46 133.10 128.49 131.27 C 133.72 129.34 136.97 124.63 140.97 121.04 C 142.91 118.12 142.25 114.33 142.27 111.01 C 141.91 105.33 142.72 99.64 142.24 93.95 C 141.53 89.60 139.31 85.71 137.29 81.86 C 135.46 78.68 137.09 74.75 135.32 71.59 C 134.30 69.69 133.44 67.64 131.98 66.03 C 128.07 63.77 123.39 64.05 119.08 63.21 C 115.86 58.03 109.74 56.45 104.26 54.90 C 103.97 53.65 103.67 52.41 103.36 51.17 C 105.79 44.39 107.05 37.14 107.18 29.95 C 105.92 25.76 104.99 20.37 100.51 18.40 C 91.19 13.81 77.87 21.16 78.32 31.99 M 76.35 59.98 C 76.70 59.94 77.40 59.85 77.74 59.81 L 78.29 59.23 C 79.84 56.95 74.77 57.96 76.35 59.98 M 84.17 58.66 C 84.11 61.97 84.82 65.76 88.15 67.32 C 87.22 64.27 85.74 61.42 84.17 58.66 M 121.46 67.74 C 122.50 70.62 124.17 73.30 126.82 74.95 C 125.54 72.21 123.73 69.74 121.46 67.74 M 57.09 69.24 C 56.30 71.07 55.74 73.00 55.41 74.97 C 56.61 73.09 57.62 71.10 58.69 69.14 C 58.29 69.17 57.49 69.21 57.09 69.24 M 123.39 82.91 C 123.15 84.29 125.51 85.81 126.77 85.34 C 127.75 83.54 124.82 81.90 123.39 82.91 M 127.54 87.36 C 127.22 88.92 127.55 90.52 127.68 92.09 C 128.75 89.89 129.04 87.11 131.44 85.90 C 131.27 85.36 131.10 84.83 130.93 84.29 C 129.77 85.28 128.57 86.23 127.54 87.36 M 133.71 102.04 C 134.40 104.14 134.16 106.88 136.26 108.21 C 136.20 105.37 135.35 102.64 134.67 99.92 C 133.76 96.59 134.26 93.13 134.14 89.74 C 131.84 93.49 132.63 98.03 133.71 102.04 M 39.98 93.64 C 39.73 96.85 39.04 99.98 38.38 103.13 C 41.20 101.32 42.69 96.09 39.98 93.64 M 39.93 105.54 C 41.11 105.38 42.29 105.23 43.48 105.08 C 43.45 103.33 43.40 101.58 43.31 99.83 C 42.16 101.72 41.07 103.64 39.93 105.54 M 40.03 108.71 C 39.97 110.95 40.96 112.90 42.70 114.28 C 44.39 114.21 46.09 114.19 47.78 114.17 C 47.62 113.85 47.31 113.22 47.15 112.90 C 43.96 113.21 42.16 110.59 40.03 108.71 M 126.89 116.87 C 130.66 116.25 134.69 115.06 136.20 111.13 C 135.68 110.80 134.65 110.16 134.13 109.84 C 132.23 112.69 129.78 115.05 126.89 116.87 M 75.28 123.87 C 75.58 126.46 73.37 130.55 76.91 131.54 C 76.84 128.89 77.40 125.90 75.28 123.87 M 87.64 130.21 C 88.09 130.37 89.01 130.69 89.46 130.84 C 89.61 128.42 89.81 126.00 89.75 123.58 C 88.57 125.61 88.14 127.94 87.64 130.21 Z" />
<path fill="#FFFFFF" opacity="1.00" d=" M 82.79 24.69 C 85.20 20.44 90.38 18.50 95.06 18.45 C 98.72 18.45 101.80 20.81 104.27 23.28 C 104.75 26.85 105.60 30.46 104.85 34.06 C 103.97 39.31 103.74 44.72 102.16 49.83 C 100.16 52.84 98.00 56.81 94.02 57.28 C 90.13 57.52 87.74 54.15 85.38 51.64 C 82.68 48.76 80.82 44.98 80.75 40.98 C 80.73 35.52 80.34 29.74 82.79 24.69 Z" />
<path fill="#FFFFFF" opacity="1.00" d=" M 67.45 72.61 C 73.03 68.85 80.17 68.80 86.47 70.59 C 87.57 71.15 88.49 71.98 89.47 72.72 C 90.99 72.76 92.51 72.79 94.04 72.86 C 95.20 72.09 96.34 71.29 97.44 70.44 C 102.04 70.06 107.00 68.32 111.40 70.46 C 116.05 72.55 117.34 77.92 119.97 81.82 C 118.57 83.68 117.25 85.66 116.77 87.99 C 116.15 90.99 113.55 93.03 112.71 95.96 C 112.20 94.75 111.71 93.54 111.26 92.31 C 110.84 91.69 110.41 91.07 110.00 90.45 C 109.40 91.10 108.64 91.51 107.75 91.66 L 107.58 92.19 C 106.35 92.69 105.13 93.21 103.93 93.76 C 104.79 93.65 106.50 93.45 107.36 93.34 C 107.30 94.80 107.31 96.26 107.39 97.72 C 109.03 97.21 110.65 96.66 112.27 96.08 L 111.39 99.30 C 113.49 97.09 115.44 94.69 116.68 91.88 C 116.52 94.67 117.16 97.39 117.76 100.09 C 117.39 103.32 116.36 106.43 115.75 109.62 C 118.55 109.77 118.77 106.66 119.84 104.84 C 120.62 105.31 121.41 105.78 122.21 106.23 C 117.24 110.22 114.07 116.45 107.89 118.82 C 104.60 120.53 100.74 119.85 97.35 121.22 C 95.73 121.85 93.34 122.58 92.45 120.51 C 90.65 117.69 88.22 114.62 84.43 115.78 C 83.37 113.48 81.88 110.59 78.86 110.87 C 75.12 111.69 73.77 115.95 70.56 117.51 C 68.93 118.11 67.60 116.46 66.32 115.73 C 61.78 111.97 55.55 110.52 51.87 105.70 C 53.29 104.95 54.72 104.21 56.15 103.47 C 58.01 105.87 59.38 108.89 62.12 110.43 C 61.57 107.27 59.26 104.88 57.90 102.07 C 59.82 98.08 60.28 93.53 62.46 89.68 C 65.89 94.40 67.37 100.79 72.62 103.98 C 72.18 101.99 71.31 100.19 70.01 98.60 C 71.69 98.70 73.38 98.57 74.99 98.08 C 77.67 97.93 80.35 97.85 83.04 97.94 C 86.23 98.24 88.76 95.93 91.38 94.51 L 90.06 93.96 C 91.35 93.91 92.64 93.89 93.93 93.89 L 92.56 94.55 C 96.49 97.13 102.42 99.87 106.53 96.17 C 104.61 95.73 102.34 94.49 100.83 96.52 C 99.64 96.00 98.69 95.21 97.98 94.16 C 96.96 94.17 95.94 94.18 94.92 94.20 C 94.23 91.46 93.30 88.81 92.30 86.18 L 91.65 86.94 C 91.82 85.67 92.01 84.41 92.21 83.15 C 90.32 82.96 88.52 82.35 86.84 81.49 C 89.35 79.63 92.28 79.64 95.13 80.51 C 93.64 76.65 88.06 78.75 86.50 81.57 C 83.17 81.54 79.79 81.60 76.59 82.65 C 79.29 83.81 82.16 82.48 84.95 82.93 C 87.20 83.17 89.23 84.45 91.53 84.39 C 90.91 86.56 90.44 88.78 89.85 90.96 L 93.15 90.22 C 92.46 91.45 91.76 92.67 91.01 93.86 L 90.99 92.60 C 88.76 92.69 86.55 92.46 84.32 92.44 C 85.71 92.98 87.11 93.50 88.52 93.98 C 87.63 94.58 86.75 95.18 85.86 95.77 C 81.56 93.31 77.35 90.48 72.58 88.99 C 75.76 91.40 80.35 92.59 81.83 96.67 C 77.33 97.90 74.54 93.76 70.60 92.96 C 70.47 94.62 70.11 96.24 69.29 97.69 C 67.91 94.06 66.22 90.02 62.31 88.48 C 62.44 86.74 62.55 85.00 62.61 83.25 C 64.36 82.90 66.12 82.59 67.89 82.35 C 67.74 83.43 67.42 85.59 67.27 86.67 C 68.86 85.48 70.44 84.27 71.98 83.02 C 69.87 79.53 65.48 79.94 62.26 81.42 C 61.96 81.13 61.36 80.53 61.05 80.23 C 63.39 77.86 65.23 75.07 67.45 72.61 M 98.90 72.48 C 100.20 73.70 101.62 74.88 103.47 75.04 C 107.46 75.59 111.02 77.60 114.18 80.00 C 113.16 81.34 112.17 82.71 111.23 84.11 C 111.87 84.34 112.50 84.57 113.14 84.81 C 114.38 83.32 115.94 82.26 117.96 82.18 C 116.80 81.76 115.65 81.34 114.49 80.93 C 114.40 80.36 114.23 79.23 114.14 78.66 C 109.26 76.16 104.43 73.23 98.90 72.48 M 71.80 78.74 C 75.09 77.69 78.87 76.87 80.86 73.73 C 77.55 74.82 74.85 77.12 71.80 78.74 M 93.34 86.31 C 96.30 85.15 99.26 83.97 102.34 83.12 C 99.29 83.53 94.64 82.62 93.34 86.31 M 103.83 87.79 C 101.35 88.90 98.85 89.97 96.31 90.94 C 96.50 91.32 96.87 92.08 97.06 92.46 C 101.24 91.34 104.79 88.58 108.29 86.12 C 106.79 86.63 105.31 87.22 103.83 87.79 M 82.05 103.56 C 78.87 103.61 76.76 106.19 76.00 109.05 C 78.00 108.50 79.17 106.72 80.59 105.37 C 82.87 105.10 86.02 106.03 87.27 103.48 C 88.30 101.32 90.58 100.99 92.64 100.47 C 93.55 100.55 95.37 100.71 96.29 100.79 C 98.11 103.06 100.05 105.23 102.28 107.11 C 102.86 108.26 103.45 109.40 104.11 110.50 C 104.17 108.96 104.73 107.36 104.35 105.83 C 101.85 103.94 99.86 101.50 97.59 99.38 C 94.74 98.99 91.82 99.31 88.95 99.02 C 86.07 99.61 85.14 103.44 82.05 103.56 M 64.20 104.13 C 64.94 105.60 65.66 107.11 66.73 108.38 C 68.19 109.33 70.09 109.04 71.74 109.33 C 72.56 110.72 74.56 113.00 76.08 111.01 C 72.56 108.04 68.28 106.18 64.20 104.13 M 92.21 103.26 C 90.24 108.09 90.80 113.43 91.03 118.51 C 92.60 115.98 93.03 112.93 93.50 110.04 C 93.52 107.75 94.33 104.92 92.21 103.26 M 106.21 113.12 C 108.38 111.88 109.94 109.93 111.10 107.75 C 112.36 107.61 113.61 107.45 114.86 107.28 C 114.06 106.65 113.44 105.07 112.22 105.52 C 108.19 105.77 108.11 110.48 106.21 113.12 M 66.06 112.30 C 67.76 113.72 70.22 117.10 72.42 114.67 C 70.44 113.55 68.44 112.17 66.06 112.30 M 105.24 118.39 C 108.75 118.10 111.97 115.74 113.24 112.45 C 110.42 114.21 107.82 116.30 105.24 118.39 Z" />
</g>
<g id="#1d1e1dff">
<path fill="#333333" opacity="1.00" d=" M 78.32 31.99 C 77.87 21.16 91.19 13.81 100.51 18.40 C 104.99 20.37 105.92 25.76 107.18 29.95 C 107.05 37.14 105.79 44.39 103.36 51.17 C 103.67 52.41 103.97 53.65 104.26 54.90 C 109.74 56.45 115.86 58.03 119.08 63.21 C 123.39 64.05 128.07 63.77 131.98 66.03 C 133.44 67.64 134.30 69.69 135.32 71.59 C 137.09 74.75 135.46 78.68 137.29 81.86 C 139.31 85.71 141.53 89.60 142.24 93.95 C 142.72 99.64 141.91 105.33 142.27 111.01 C 142.25 114.33 142.91 118.12 140.97 121.04 C 136.97 124.63 133.72 129.34 128.49 131.27 C 123.46 133.10 118.06 133.52 112.84 134.59 C 112.82 136.17 112.81 137.76 112.80 139.35 C 113.96 141.21 115.37 142.92 116.43 144.83 C 115.79 148.73 117.25 152.45 118.67 155.99 C 118.16 156.36 117.15 157.10 116.64 157.47 C 116.52 159.34 116.88 161.37 115.97 163.10 C 112.74 161.71 114.79 156.83 115.35 154.14 C 113.85 150.41 113.52 146.33 111.75 142.70 C 108.77 147.50 102.96 149.00 98.02 150.94 C 91.18 152.51 84.00 152.01 77.17 150.62 C 74.50 150.06 71.65 149.96 69.20 148.66 C 67.35 147.36 66.00 145.48 64.47 143.84 C 63.83 147.56 65.01 151.35 63.79 155.03 C 62.94 157.51 65.05 161.83 61.70 162.77 C 60.60 156.83 62.93 150.89 61.33 145.01 C 62.14 144.01 62.94 143.00 63.75 142.00 C 63.06 138.86 63.92 135.01 61.63 132.45 C 54.98 131.59 48.18 130.47 42.47 126.67 C 39.95 124.72 36.73 124.33 33.93 123.00 C 32.92 117.40 33.46 111.62 32.89 105.98 C 34.50 99.45 34.34 92.18 38.39 86.52 C 40.60 83.30 42.06 79.64 44.42 76.51 C 43.72 71.14 46.31 64.74 51.80 63.01 C 54.96 61.96 58.24 61.11 61.58 60.95 C 61.47 61.41 61.25 62.33 61.14 62.79 C 58.28 63.45 54.94 63.17 51.93 63.84 C 49.29 66.19 47.12 69.27 46.57 72.82 C 46.47 76.50 46.81 80.20 46.36 83.87 C 45.84 82.15 45.45 80.39 45.05 78.65 C 43.12 84.41 38.43 88.94 37.43 95.03 C 36.69 99.68 34.42 104.15 35.06 108.95 C 35.33 112.33 34.88 115.71 34.31 119.04 C 35.26 123.19 39.73 122.43 42.67 124.12 C 50.71 128.48 59.86 131.41 69.10 130.55 C 69.17 131.50 69.24 132.45 69.32 133.40 C 68.24 133.40 66.07 133.41 64.99 133.41 C 66.25 136.78 66.81 140.37 68.04 143.75 C 69.69 147.05 73.79 147.26 77.00 147.70 C 86.03 149.02 95.84 150.88 104.41 146.65 C 107.05 145.90 109.01 144.04 110.32 141.68 C 111.15 139.29 111.83 136.85 112.14 134.34 C 108.53 133.85 104.68 132.27 101.10 133.70 C 98.68 135.01 96.66 136.92 94.42 138.51 C 93.30 138.15 92.17 137.79 91.05 137.44 C 90.39 138.63 90.54 140.57 89.05 141.10 C 84.61 141.32 80.17 141.17 75.73 141.27 C 73.74 139.11 71.88 136.83 70.27 134.37 C 70.60 132.97 70.91 131.56 71.25 130.15 L 69.58 133.23 C 69.97 129.19 68.95 124.80 70.64 120.96 C 73.20 124.35 71.46 128.78 73.18 132.47 C 73.72 135.25 75.91 137.14 77.87 138.97 C 80.83 138.83 83.79 138.77 86.75 138.66 C 87.76 137.53 88.77 136.41 89.79 135.30 C 91.49 135.41 93.51 136.64 94.99 135.28 C 96.57 134.15 97.84 132.64 99.42 131.50 C 103.93 130.97 108.44 132.14 112.96 132.20 C 117.79 131.73 122.56 130.54 127.11 128.86 C 131.42 127.35 134.85 124.23 138.45 121.55 C 142.77 118.76 139.96 113.09 139.92 108.99 C 137.54 106.65 137.67 103.12 136.99 100.07 C 136.59 97.69 138.50 95.86 139.72 94.09 C 138.88 97.30 137.26 101.47 140.07 104.23 C 141.37 97.89 141.00 90.72 136.46 85.68 C 136.10 85.40 135.37 84.83 135.01 84.55 C 135.16 79.78 135.14 74.71 132.97 70.34 C 131.22 68.07 128.41 67.06 125.75 66.28 C 121.91 65.63 117.21 63.87 114.29 67.58 C 114.05 67.62 113.57 67.71 113.33 67.75 C 114.46 66.49 115.57 65.22 116.66 63.92 C 114.20 59.69 108.98 59.04 105.14 56.63 C 105.28 57.43 105.56 59.03 105.69 59.82 C 105.30 59.82 104.51 59.80 104.11 59.79 C 102.97 57.43 102.56 54.82 101.96 52.29 C 101.13 53.61 100.32 54.94 99.51 56.27 C 99.46 60.18 98.77 64.03 98.00 67.85 C 98.90 69.21 101.35 67.64 102.80 67.78 C 108.14 66.11 113.51 69.20 117.18 72.88 C 119.17 75.96 120.47 79.46 122.79 82.34 C 122.23 82.63 121.10 83.21 120.54 83.50 C 119.37 85.42 117.60 87.45 118.60 89.86 C 119.85 94.10 118.35 99.18 121.40 102.81 C 122.39 104.18 124.17 104.38 125.67 104.87 C 119.88 107.54 119.62 115.20 114.09 118.06 C 108.66 121.61 102.03 122.05 95.94 123.81 C 95.93 125.89 97.26 127.46 98.23 129.17 C 96.10 128.72 94.78 127.04 93.59 125.37 C 90.39 123.22 88.89 119.56 86.54 116.65 C 86.45 117.26 86.28 118.49 86.19 119.10 C 82.88 119.61 78.19 117.64 76.54 121.68 C 75.31 117.19 80.97 116.99 83.99 117.40 C 82.10 115.82 80.50 113.90 78.42 112.55 C 75.46 114.81 73.69 118.63 70.03 119.91 C 67.92 120.01 65.82 119.24 64.25 117.85 C 60.95 114.98 57.11 112.84 53.54 110.34 C 51.06 108.52 49.90 105.57 48.85 102.80 C 50.44 98.60 49.26 94.03 50.43 89.73 C 53.02 94.25 49.62 99.36 51.58 104.13 C 57.87 100.19 59.82 92.62 61.86 85.98 C 61.60 84.24 60.69 82.68 60.09 81.04 C 58.57 81.73 56.99 82.32 55.31 82.44 C 54.63 83.28 53.28 84.95 52.61 85.79 C 52.96 84.27 53.67 81.21 54.02 79.68 C 54.85 79.96 56.50 80.50 57.32 80.78 C 61.14 77.46 63.79 73.02 67.75 69.84 C 67.39 68.47 68.23 66.28 66.51 65.71 C 64.68 65.14 62.43 65.69 61.06 64.01 C 63.51 63.98 66.46 62.74 68.56 64.57 C 70.39 65.68 69.71 68.09 70.04 69.84 C 75.00 67.28 80.69 67.55 86.10 67.92 C 89.03 68.25 90.83 70.81 92.93 72.58 C 93.30 70.20 96.38 70.11 97.19 68.03 C 97.48 64.36 97.68 60.66 99.11 57.22 C 96.57 58.85 93.29 60.28 90.38 58.68 C 86.53 57.46 84.46 53.83 82.40 50.66 C 81.19 52.81 80.44 56.93 77.29 56.69 C 74.41 57.65 71.46 58.40 68.60 59.39 C 66.62 60.06 65.16 62.29 62.90 61.93 C 62.90 61.60 62.90 60.95 62.91 60.62 C 66.96 56.77 72.71 56.51 77.71 54.71 C 78.85 53.36 79.60 51.74 80.50 50.24 C 78.32 44.42 78.69 38.09 78.32 31.99 M 82.79 24.69 C 80.34 29.74 80.73 35.52 80.75 40.98 C 80.82 44.98 82.68 48.76 85.38 51.64 C 87.74 54.15 90.13 57.52 94.02 57.28 C 98.00 56.81 100.16 52.84 102.16 49.83 C 103.74 44.72 103.97 39.31 104.85 34.06 C 105.60 30.46 104.75 26.85 104.27 23.28 C 101.80 20.81 98.72 18.45 95.06 18.45 C 90.38 18.50 85.20 20.44 82.79 24.69 M 67.45 72.61 C 65.23 75.07 63.39 77.86 61.05 80.23 C 61.36 80.53 61.96 81.13 62.26 81.42 C 65.48 79.94 69.87 79.53 71.98 83.02 C 70.44 84.27 68.86 85.48 67.27 86.67 C 67.42 85.59 67.74 83.43 67.89 82.35 C 66.12 82.59 64.36 82.90 62.61 83.25 C 62.55 85.00 62.44 86.74 62.31 88.48 C 66.22 90.02 67.91 94.06 69.29 97.69 C 70.11 96.24 70.47 94.62 70.60 92.96 C 74.54 93.76 77.33 97.90 81.83 96.67 C 80.35 92.59 75.76 91.40 72.58 88.99 C 77.35 90.48 81.56 93.31 85.86 95.77 C 86.75 95.18 87.63 94.58 88.52 93.98 C 87.11 93.50 85.71 92.98 84.32 92.44 C 86.55 92.46 88.76 92.69 90.99 92.60 L 91.01 93.86 C 91.76 92.67 92.46 91.45 93.15 90.22 L 89.85 90.96 C 90.44 88.78 90.91 86.56 91.53 84.39 C 89.23 84.45 87.20 83.17 84.95 82.93 C 82.16 82.48 79.29 83.81 76.59 82.65 C 79.79 81.60 83.17 81.54 86.50 81.57 C 88.06 78.75 93.64 76.65 95.13 80.51 C 92.28 79.64 89.35 79.63 86.84 81.49 C 88.52 82.35 90.32 82.96 92.21 83.15 C 92.01 84.41 91.82 85.67 91.65 86.94 L 92.30 86.18 C 93.30 88.81 94.23 91.46 94.92 94.20 C 95.94 94.18 96.96 94.17 97.98 94.16 C 98.69 95.21 99.64 96.00 100.83 96.52 C 102.34 94.49 104.61 95.73 106.53 96.17 C 102.42 99.87 96.49 97.13 92.56 94.55 L 93.93 93.89 C 92.64 93.89 91.35 93.91 90.06 93.96 L 91.38 94.51 C 88.76 95.93 86.23 98.24 83.04 97.94 C 80.35 97.85 77.67 97.93 74.99 98.08 C 73.38 98.57 71.69 98.70 70.01 98.60 C 71.31 100.19 72.18 101.99 72.62 103.98 C 67.37 100.79 65.89 94.40 62.46 89.68 C 60.28 93.53 59.82 98.08 57.90 102.07 C 59.26 104.88 61.57 107.27 62.12 110.43 C 59.38 108.89 58.01 105.87 56.15 103.47 C 54.72 104.21 53.29 104.95 51.87 105.70 C 55.55 110.52 61.78 111.97 66.32 115.73 C 67.60 116.46 68.93 118.11 70.56 117.51 C 73.77 115.95 75.12 111.69 78.86 110.87 C 81.88 110.59 83.37 113.48 84.43 115.78 C 88.22 114.62 90.65 117.69 92.45 120.51 C 93.34 122.58 95.73 121.85 97.35 121.22 C 100.74 119.85 104.60 120.53 107.89 118.82 C 114.07 116.45 117.24 110.22 122.21 106.23 C 121.41 105.78 120.62 105.31 119.84 104.84 C 118.77 106.66 118.55 109.77 115.75 109.62 C 116.36 106.43 117.39 103.32 117.76 100.09 C 117.16 97.39 116.52 94.67 116.68 91.88 C 115.44 94.69 113.49 97.09 111.39 99.30 L 112.27 96.08 C 110.65 96.66 109.03 97.21 107.39 97.72 C 107.31 96.26 107.30 94.80 107.36 93.34 C 106.50 93.45 104.79 93.65 103.93 93.76 C 105.13 93.21 106.35 92.69 107.58 92.19 L 107.75 91.66 C 108.64 91.51 109.40 91.10 110.00 90.45 C 110.41 91.07 110.84 91.69 111.26 92.31 C 111.71 93.54 112.20 94.75 112.71 95.96 C 113.55 93.03 116.15 90.99 116.77 87.99 C 117.25 85.66 118.57 83.68 119.97 81.82 C 117.34 77.92 116.05 72.55 111.40 70.46 C 107.00 68.32 102.04 70.06 97.44 70.44 C 96.34 71.29 95.20 72.09 94.04 72.86 C 92.51 72.79 90.99 72.76 89.47 72.72 C 88.49 71.98 87.57 71.15 86.47 70.59 C 80.17 68.80 73.03 68.85 67.45 72.61 Z" />
<path fill="#333333" opacity="1.00" d=" M 76.35 59.98 C 74.77 57.96 79.84 56.95 78.29 59.23 L 77.74 59.81 C 77.40 59.85 76.70 59.94 76.35 59.98 Z" />
<path fill="#333333" opacity="1.00" d=" M 84.17 58.66 C 85.74 61.42 87.22 64.27 88.15 67.32 C 84.82 65.76 84.11 61.97 84.17 58.66 Z" />
<path fill="#333333" opacity="1.00" d=" M 121.46 67.74 C 123.73 69.74 125.54 72.21 126.82 74.95 C 124.17 73.30 122.50 70.62 121.46 67.74 Z" />
<path fill="#333333" opacity="1.00" d=" M 57.09 69.24 C 57.49 69.21 58.29 69.17 58.69 69.14 C 57.62 71.10 56.61 73.09 55.41 74.97 C 55.74 73.00 56.30 71.07 57.09 69.24 Z" />
<path fill="#333333" opacity="1.00" d=" M 98.90 72.48 C 104.43 73.23 109.26 76.16 114.14 78.66 C 114.23 79.23 114.40 80.36 114.49 80.93 C 115.65 81.34 116.80 81.76 117.96 82.18 C 115.94 82.26 114.38 83.32 113.14 84.81 C 112.50 84.57 111.87 84.34 111.23 84.11 C 112.17 82.71 113.16 81.34 114.18 80.00 C 111.02 77.60 107.46 75.59 103.47 75.04 C 101.62 74.88 100.20 73.70 98.90 72.48 Z" />
<path fill="#333333" opacity="1.00" d=" M 71.80 78.74 C 74.85 77.12 77.55 74.82 80.86 73.73 C 78.87 76.87 75.09 77.69 71.80 78.74 Z" />
<path fill="#333333" opacity="1.00" d=" M 93.34 86.31 C 94.64 82.62 99.29 83.53 102.34 83.12 C 99.26 83.97 96.30 85.15 93.34 86.31 Z" />
<path fill="#333333" opacity="1.00" d=" M 123.39 82.91 C 124.82 81.90 127.75 83.54 126.77 85.34 C 125.51 85.81 123.15 84.29 123.39 82.91 Z" />
<path fill="#333333" opacity="1.00" d=" M 127.54 87.36 C 128.57 86.23 129.77 85.28 130.93 84.29 C 131.10 84.83 131.27 85.36 131.44 85.90 C 129.04 87.11 128.75 89.89 127.68 92.09 C 127.55 90.52 127.22 88.92 127.54 87.36 Z" />
<path fill="#333333" opacity="1.00" d=" M 103.83 87.79 C 105.31 87.22 106.79 86.63 108.29 86.12 C 104.79 88.58 101.24 91.34 97.06 92.46 C 96.87 92.08 96.50 91.32 96.31 90.94 C 98.85 89.97 101.35 88.90 103.83 87.79 Z" />
<path fill="#333333" opacity="1.00" d=" M 133.71 102.04 C 132.63 98.03 131.84 93.49 134.14 89.74 C 134.26 93.13 133.76 96.59 134.67 99.92 C 135.35 102.64 136.20 105.37 136.26 108.21 C 134.16 106.88 134.40 104.14 133.71 102.04 Z" />
<path fill="#333333" opacity="1.00" d=" M 39.98 93.64 C 42.69 96.09 41.20 101.32 38.38 103.13 C 39.04 99.98 39.73 96.85 39.98 93.64 Z" />
<path fill="#333333" opacity="1.00" d=" M 82.05 103.56 C 85.14 103.44 86.07 99.61 88.95 99.02 C 91.82 99.31 94.74 98.99 97.59 99.38 C 99.86 101.50 101.85 103.94 104.35 105.83 C 104.73 107.36 104.17 108.96 104.11 110.50 C 103.45 109.40 102.86 108.26 102.28 107.11 C 100.05 105.23 98.11 103.06 96.29 100.79 C 95.37 100.71 93.55 100.55 92.64 100.47 C 90.58 100.99 88.30 101.32 87.27 103.48 C 86.02 106.03 82.87 105.10 80.59 105.37 C 79.17 106.72 78.00 108.50 76.00 109.05 C 76.76 106.19 78.87 103.61 82.05 103.56 Z" />
<path fill="#333333" opacity="1.00" d=" M 39.93 105.54 C 41.07 103.64 42.16 101.72 43.31 99.83 C 43.40 101.58 43.45 103.33 43.48 105.08 C 42.29 105.23 41.11 105.38 39.93 105.54 Z" />
<path fill="#333333" opacity="1.00" d=" M 64.20 104.13 C 68.28 106.18 72.56 108.04 76.08 111.01 C 74.56 113.00 72.56 110.72 71.74 109.33 C 70.09 109.04 68.19 109.33 66.73 108.38 C 65.66 107.11 64.94 105.60 64.20 104.13 Z" />
<path fill="#333333" opacity="1.00" d=" M 92.21 103.26 C 94.33 104.92 93.52 107.75 93.50 110.04 C 93.03 112.93 92.60 115.98 91.03 118.51 C 90.80 113.43 90.24 108.09 92.21 103.26 Z" />
<path fill="#333333" opacity="1.00" d=" M 106.21 113.12 C 108.11 110.48 108.19 105.77 112.22 105.52 C 113.44 105.07 114.06 106.65 114.86 107.28 C 113.61 107.45 112.36 107.61 111.10 107.75 C 109.94 109.93 108.38 111.88 106.21 113.12 Z" />
<path fill="#333333" opacity="1.00" d=" M 40.03 108.71 C 42.16 110.59 43.96 113.21 47.15 112.90 C 47.31 113.22 47.62 113.85 47.78 114.17 C 46.09 114.19 44.39 114.21 42.70 114.28 C 40.96 112.90 39.97 110.95 40.03 108.71 Z" />
<path fill="#333333" opacity="1.00" d=" M 126.89 116.87 C 129.78 115.05 132.23 112.69 134.13 109.84 C 134.65 110.16 135.68 110.80 136.20 111.13 C 134.69 115.06 130.66 116.25 126.89 116.87 Z" />
<path fill="#333333" opacity="1.00" d=" M 66.06 112.30 C 68.44 112.17 70.44 113.55 72.42 114.67 C 70.22 117.10 67.76 113.72 66.06 112.30 Z" />
<path fill="#333333" opacity="1.00" d=" M 105.24 118.39 C 107.82 116.30 110.42 114.21 113.24 112.45 C 111.97 115.74 108.75 118.10 105.24 118.39 Z" />
<path fill="#333333" opacity="1.00" d=" M 75.28 123.87 C 77.40 125.90 76.84 128.89 76.91 131.54 C 73.37 130.55 75.58 126.46 75.28 123.87 Z" />
<path fill="#333333" opacity="1.00" d=" M 87.64 130.21 C 88.14 127.94 88.57 125.61 89.75 123.58 C 89.81 126.00 89.61 128.42 89.46 130.84 C 89.01 130.69 88.09 130.37 87.64 130.21 Z" />
</g>
</svg>
