<?xml version="1.0" encoding="UTF-8" ?>
<!DOCTYPE svg PUBLIC "-//W3C//DTD SVG 1.1//EN" "http://www.w3.org/Graphics/SVG/1.1/DTD/svg11.dtd">
<svg width="241pt" height="225pt" viewBox="0 0 241 225" version="1.1" xmlns="http://www.w3.org/2000/svg">
<g id="#ffffffff">
<path fill="#FFFFFF" opacity="1.00" d=" M 0.00 0.00 L 241.00 0.00 L 241.00 225.00 L 0.00 225.00 L 0.00 0.00 M 31.94 62.97 C 28.06 66.77 23.38 70.47 22.36 76.15 C 21.62 82.07 24.82 88.35 29.99 91.31 C 29.69 97.32 28.45 103.13 27.08 108.97 C 30.21 104.26 31.35 98.44 31.54 92.86 C 34.80 95.11 38.04 97.64 42.07 98.28 C 36.49 103.15 34.89 110.64 32.58 117.34 C 31.21 114.27 29.40 111.36 26.55 109.46 C 26.98 113.15 29.78 115.70 32.14 118.29 C 31.02 119.17 29.91 120.05 28.79 120.92 C 25.39 120.86 21.90 121.00 18.77 122.50 C 16.70 123.56 14.37 123.55 12.11 123.40 C 11.79 122.51 11.47 121.63 11.15 120.74 C 12.68 119.39 14.04 117.86 15.25 116.22 C 17.44 113.02 21.84 113.17 24.88 111.16 C 25.17 111.56 25.74 112.36 26.03 112.76 C 25.81 112.28 25.38 111.31 25.16 110.82 C 24.74 110.59 23.91 110.12 23.49 109.88 C 20.19 111.54 16.19 111.90 13.50 114.63 C 11.58 116.49 9.97 118.68 8.62 120.99 C 8.34 122.46 8.64 124.25 10.30 124.70 C 13.97 125.84 18.12 125.62 21.50 123.71 C 24.22 122.13 27.53 123.52 30.33 122.26 C 32.08 121.00 33.26 119.10 34.89 117.69 C 36.07 113.46 37.39 109.25 38.90 105.12 C 39.81 102.25 42.40 100.45 44.24 98.20 C 46.65 95.29 50.37 94.18 53.56 92.40 C 56.38 91.52 59.96 90.78 60.88 87.50 C 57.07 89.65 52.73 90.83 49.32 93.66 C 51.67 90.32 52.35 86.17 50.51 82.44 C 50.53 87.58 49.62 93.39 44.61 96.05 C 40.64 96.82 36.10 95.93 33.66 92.45 C 31.26 88.50 25.92 86.75 24.94 81.91 C 22.54 76.13 26.30 70.20 30.31 66.22 C 33.51 62.37 39.30 60.84 43.89 62.97 C 46.62 64.16 48.12 66.90 49.60 69.32 C 52.67 69.35 55.75 69.49 58.81 69.27 C 62.69 69.03 64.88 63.90 68.98 64.97 C 72.80 65.63 76.19 67.88 80.11 68.15 C 86.09 69.22 92.18 69.92 97.93 71.97 C 102.20 71.99 106.63 72.55 110.77 71.24 C 113.19 71.15 115.56 70.53 116.91 68.33 C 123.26 66.17 131.04 65.97 136.40 70.55 C 137.32 70.46 139.16 70.28 140.08 70.19 C 131.73 63.29 119.00 63.75 110.69 70.46 C 104.54 69.89 98.15 70.99 92.21 68.84 C 86.54 67.12 80.18 68.17 74.91 65.14 C 71.52 63.60 66.80 61.49 63.72 64.69 C 60.27 67.95 55.25 69.27 50.72 67.68 C 47.57 60.62 38.04 58.38 31.94 62.97 M 206.46 67.37 C 201.95 71.31 195.48 70.58 190.01 69.71 C 183.31 68.17 176.00 69.53 170.39 73.52 C 167.11 76.15 163.05 74.18 159.40 73.82 C 156.44 73.35 153.33 73.86 150.48 72.85 C 145.57 70.52 139.91 70.74 134.62 71.13 C 138.32 72.38 142.58 72.61 145.63 75.33 C 148.74 77.53 152.03 81.37 156.22 79.38 C 157.76 80.22 159.65 80.83 160.35 82.61 C 164.81 89.07 164.48 97.39 162.78 104.71 C 161.46 106.40 159.05 106.71 157.04 106.82 C 150.40 106.21 143.54 104.97 136.96 106.70 C 134.90 107.24 133.19 105.55 131.64 104.49 C 128.89 104.10 126.21 103.42 123.49 102.87 C 127.20 101.36 128.73 97.39 130.09 93.94 C 131.82 88.62 128.55 83.46 125.37 79.46 C 121.83 75.79 116.87 74.20 112.24 72.42 C 107.40 74.72 102.07 73.26 96.96 73.67 C 102.06 75.98 107.86 75.62 113.15 74.24 C 118.65 76.72 125.75 79.28 127.34 85.83 C 128.99 90.35 128.66 95.66 125.75 99.59 C 122.50 102.11 118.26 102.60 114.45 103.82 C 114.38 103.29 114.25 102.23 114.18 101.70 C 111.78 104.17 109.36 106.79 106.07 108.10 C 104.68 107.14 103.42 106.00 102.12 104.93 C 102.29 103.09 102.88 101.16 101.74 99.46 C 101.52 100.25 101.07 101.83 100.85 102.61 C 99.67 101.83 98.43 100.89 96.94 101.45 C 100.69 105.24 104.71 108.95 107.22 113.72 C 110.44 120.36 113.99 126.82 117.54 133.29 C 119.50 137.95 118.93 143.06 118.97 147.97 C 118.94 151.34 120.09 154.60 119.95 157.98 C 119.85 162.64 121.50 167.14 121.11 171.82 C 114.50 174.87 109.78 180.83 102.87 183.33 C 99.74 184.14 96.47 183.91 93.27 184.08 C 93.50 179.59 97.46 176.58 97.96 172.15 C 99.44 166.66 105.81 166.26 110.20 164.33 C 112.67 166.03 114.68 168.37 117.49 169.57 C 115.84 166.61 113.44 164.08 110.23 162.87 C 109.75 156.73 108.10 150.51 104.38 145.52 C 102.42 142.34 99.78 139.15 99.96 135.19 C 100.52 127.39 93.79 122.04 91.47 115.10 C 91.50 117.26 91.68 119.43 91.92 121.58 C 93.28 123.25 94.52 125.02 95.68 126.84 C 92.07 124.29 88.62 121.51 85.25 118.66 C 83.17 116.97 82.59 114.23 81.86 111.79 C 83.89 112.02 85.91 112.29 87.93 112.61 C 88.00 112.30 88.16 111.68 88.23 111.38 C 85.50 110.29 82.57 109.99 79.72 109.36 C 76.35 107.86 72.82 106.43 69.89 104.16 C 66.01 100.85 65.82 95.45 63.33 91.32 C 61.15 91.85 58.97 92.37 56.77 92.76 C 56.78 93.13 56.80 93.88 56.81 94.26 C 58.64 94.10 60.46 93.83 62.26 93.47 C 64.44 95.77 63.79 99.16 64.48 102.02 C 60.21 99.38 56.44 96.04 52.20 93.38 C 52.73 94.84 53.29 96.41 54.66 97.31 C 57.52 99.47 60.17 102.05 63.62 103.27 C 68.98 105.31 73.54 108.88 78.70 111.30 C 79.53 113.10 80.43 114.87 81.42 116.59 C 82.89 120.33 86.96 121.72 89.63 124.40 C 92.13 126.99 95.12 129.01 97.91 131.26 C 98.01 134.26 97.36 137.49 98.99 140.21 C 100.46 144.10 103.74 146.88 105.52 150.59 C 107.02 154.80 107.73 159.23 108.83 163.54 C 106.35 164.23 103.88 164.95 101.45 165.80 C 98.47 166.91 97.11 170.09 95.92 172.79 C 94.79 176.49 92.49 179.67 91.38 183.38 C 93.04 184.34 94.68 185.33 96.32 186.33 C 99.23 185.98 102.25 185.98 105.03 185.00 C 109.72 181.58 114.32 177.95 119.47 175.22 C 121.04 174.44 121.83 172.79 122.81 171.43 C 122.38 170.51 121.95 169.59 121.54 168.67 C 121.75 168.27 122.17 167.49 122.39 167.10 C 120.59 157.80 121.15 148.27 120.69 138.87 C 120.62 133.11 116.76 128.59 114.06 123.85 C 111.23 119.27 110.45 113.68 106.74 109.62 C 108.96 108.30 111.22 107.03 113.24 105.42 C 116.79 105.18 120.14 103.97 123.48 102.83 C 122.52 103.38 120.60 104.49 119.64 105.04 C 122.38 105.24 125.25 104.76 127.87 105.77 C 130.95 106.76 133.74 108.62 136.99 109.02 C 139.07 108.95 140.99 108.03 143.02 107.72 C 148.09 107.38 153.07 108.77 158.12 108.77 C 161.40 108.76 163.99 106.42 167.09 105.72 C 170.40 104.94 173.49 103.51 176.38 101.75 C 178.64 101.92 180.88 101.56 183.06 100.91 C 181.59 99.87 179.80 99.80 178.07 99.95 C 179.48 98.27 180.61 96.39 181.41 94.35 C 178.37 96.33 176.22 99.31 173.42 101.55 C 170.82 103.28 167.67 103.80 164.64 104.22 C 164.95 102.82 165.25 101.41 165.53 100.00 C 168.63 99.18 172.00 99.02 174.76 97.22 C 171.93 97.07 169.03 97.29 166.48 98.64 C 165.84 95.87 165.69 93.01 165.20 90.22 C 168.67 90.07 172.13 90.41 175.59 90.58 C 172.83 87.59 168.23 86.99 164.75 89.05 C 163.88 86.39 163.07 83.71 162.22 81.04 C 167.04 81.58 171.86 83.69 176.73 82.37 C 183.61 80.47 190.52 78.71 197.55 77.50 C 196.45 77.30 194.26 76.91 193.16 76.72 L 193.16 76.04 C 199.18 74.82 205.00 77.90 210.96 76.83 C 215.91 75.08 220.15 71.67 225.26 70.28 C 226.82 71.88 228.46 73.66 228.61 76.03 C 228.51 82.72 227.07 89.32 227.14 96.02 C 227.48 99.84 223.93 102.44 220.89 103.94 C 217.98 105.75 214.63 104.09 211.58 103.74 C 211.88 102.95 212.49 101.38 212.79 100.59 C 213.40 101.03 214.01 101.47 214.61 101.92 C 215.20 101.69 216.39 101.24 216.98 101.01 C 219.01 101.07 221.04 101.08 223.07 101.04 C 221.00 99.24 218.33 99.68 215.94 100.45 C 215.55 100.02 215.16 99.59 214.78 99.16 C 217.80 95.91 216.65 90.16 213.84 87.04 C 215.57 86.81 217.28 86.54 218.99 86.22 C 215.94 83.95 212.21 85.62 208.85 86.05 C 205.88 86.42 203.85 88.84 201.30 90.14 C 195.61 93.59 187.94 92.85 183.18 97.98 C 183.79 98.51 184.41 99.04 185.02 99.58 C 187.79 96.91 191.25 94.71 195.13 94.24 C 198.83 93.87 202.08 92.02 205.34 90.38 C 204.57 92.00 203.72 93.58 202.77 95.10 C 204.12 97.88 205.10 101.04 207.86 102.77 C 207.00 100.19 205.85 97.72 204.94 95.15 C 206.34 93.20 206.79 90.84 207.12 88.52 C 208.74 87.97 210.36 87.44 211.99 86.93 C 213.21 89.09 214.42 91.27 215.46 93.53 C 213.95 96.28 211.74 98.48 209.74 100.85 C 209.70 102.16 209.70 103.47 209.75 104.78 C 215.91 107.48 224.06 106.87 228.25 101.13 C 229.44 96.17 228.45 90.90 229.56 85.89 C 230.09 81.17 231.49 75.72 228.29 71.60 C 226.47 68.40 222.20 69.88 219.34 70.35 C 218.20 68.84 217.00 67.39 215.79 65.95 C 212.60 65.17 209.08 65.05 206.46 67.37 M 59.66 73.37 C 63.94 71.69 67.97 68.86 72.79 69.28 C 71.74 70.65 70.67 72.01 69.63 73.39 C 72.34 72.25 74.97 70.61 78.01 70.65 C 82.50 70.34 86.61 72.57 91.00 73.07 C 88.30 69.81 83.64 69.86 79.76 69.62 C 75.98 70.05 72.67 67.49 68.91 67.85 C 65.45 68.85 61.75 70.23 59.66 73.37 M 85.75 76.29 C 89.41 76.03 93.37 75.58 96.06 72.78 C 92.35 72.97 88.94 74.51 85.75 76.29 M 42.90 77.31 C 44.85 77.57 46.82 77.74 48.79 77.90 C 48.80 77.37 48.81 76.31 48.81 75.78 C 46.73 75.84 44.62 76.01 42.90 77.31 M 52.29 75.85 C 52.20 76.26 52.00 77.09 51.91 77.50 C 55.99 77.19 57.80 80.84 59.41 83.91 C 60.43 86.14 63.12 86.61 65.05 87.75 C 64.87 88.21 64.52 89.13 64.35 89.59 C 65.87 89.06 67.36 88.43 68.94 88.05 C 70.35 88.81 71.62 89.81 72.95 90.71 C 72.07 92.50 71.24 94.32 70.42 96.13 C 71.17 97.38 71.94 98.61 72.74 99.83 C 73.43 97.87 72.59 95.03 74.59 93.73 C 77.14 91.27 80.69 90.44 84.11 90.16 C 84.31 86.33 89.64 86.93 91.20 83.87 C 89.79 84.06 88.62 84.94 87.37 85.54 C 84.97 85.79 82.84 86.69 82.32 89.30 C 79.70 89.64 77.05 90.07 74.71 91.38 C 73.44 89.95 72.20 88.43 70.59 87.37 C 68.21 86.45 65.49 86.30 63.37 84.77 C 60.67 82.69 58.87 79.74 56.69 77.17 C 55.68 75.81 53.74 76.26 52.29 75.85 M 74.10 76.02 C 74.06 78.22 74.05 80.42 74.13 82.62 C 76.85 81.65 79.52 80.37 81.41 78.10 C 78.97 78.60 76.67 79.57 74.39 80.56 C 74.66 79.81 75.20 78.33 75.46 77.59 C 78.00 77.37 80.55 77.48 83.10 77.47 L 83.20 75.96 C 80.16 75.96 77.13 75.96 74.10 76.02 M 99.03 76.36 C 102.34 78.08 105.40 80.22 108.68 81.98 C 107.24 77.87 102.61 77.49 99.03 76.36 M 213.23 77.30 C 211.57 78.26 209.93 79.25 208.42 80.45 C 212.08 79.47 215.73 78.45 219.53 78.16 C 217.44 77.82 215.32 77.63 213.23 77.30 M 82.03 79.09 C 85.56 79.43 88.15 81.82 91.15 83.25 C 90.40 79.19 85.57 77.60 82.03 79.09 M 190.29 86.94 C 196.16 86.92 202.74 86.04 206.78 81.29 C 201.47 83.71 196.00 85.72 190.29 86.94 M 140.81 91.49 C 141.98 89.85 143.04 88.14 144.16 86.47 C 144.27 85.39 144.37 84.31 144.47 83.24 C 142.14 85.40 140.40 88.17 140.81 91.49 M 92.66 85.43 C 92.43 87.45 92.10 89.72 94.42 90.72 C 94.06 88.89 93.52 87.09 92.66 85.43 M 176.51 86.94 C 179.95 87.55 183.52 87.38 186.87 86.40 C 183.42 85.99 179.86 85.86 176.51 86.94 M 189.97 91.49 C 193.56 91.34 197.09 90.13 199.76 87.67 C 196.37 88.58 193.03 89.76 189.97 91.49 M 105.46 93.70 C 102.33 94.93 100.23 97.81 98.12 100.30 C 98.80 100.23 100.15 100.09 100.82 100.02 C 101.58 98.88 102.35 97.75 103.24 96.72 C 105.53 96.76 104.64 99.56 105.15 101.06 C 105.76 100.61 106.99 99.73 107.60 99.29 C 106.92 97.77 106.10 96.33 105.06 95.03 C 105.58 94.75 106.62 94.18 107.14 93.90 C 110.42 94.47 113.74 93.92 116.18 91.53 C 116.94 91.53 118.45 91.53 119.21 91.52 C 118.54 91.24 117.87 90.97 117.21 90.69 C 113.39 92.07 109.41 92.81 105.46 93.70 M 90.89 102.16 C 91.68 100.82 92.48 99.50 93.30 98.18 C 93.99 98.80 95.36 100.05 96.05 100.67 C 96.55 100.10 97.05 99.54 97.55 98.97 C 96.08 98.21 94.58 97.51 93.21 96.58 C 93.29 94.53 93.74 92.51 93.84 90.46 C 91.13 93.73 90.94 98.11 90.89 102.16 M 108.39 100.04 C 107.60 101.44 109.57 103.80 111.06 103.03 C 111.91 101.61 109.88 99.25 108.39 100.04 M 103.04 101.28 C 104.29 103.21 105.56 105.15 106.91 107.01 C 107.03 105.71 107.23 104.40 107.04 103.09 C 105.75 102.38 104.42 101.78 103.04 101.28 M 91.52 103.36 C 90.65 106.42 90.20 109.93 92.33 112.62 C 95.22 116.44 98.30 120.25 102.27 123.02 C 103.54 123.14 104.82 123.26 106.09 123.37 C 102.88 121.17 99.41 119.16 97.17 115.88 C 94.42 113.10 92.25 109.66 92.30 105.62 C 93.37 105.31 95.53 104.68 96.60 104.37 C 94.92 103.97 93.22 103.65 91.52 103.36 M 100.36 109.34 C 100.33 110.05 100.27 111.48 100.25 112.19 C 99.51 112.80 98.77 113.41 98.03 114.02 C 98.87 114.86 99.67 115.73 100.42 116.66 C 100.73 114.44 102.23 112.58 102.30 110.29 C 101.82 110.05 100.84 109.58 100.36 109.34 M 105.35 145.10 C 105.67 145.22 106.32 145.47 106.65 145.59 C 107.96 141.98 108.43 138.16 109.49 134.48 C 109.88 131.24 110.51 127.96 109.75 124.70 C 107.58 131.34 107.39 138.43 105.35 145.10 M 113.26 134.26 C 112.97 137.18 113.26 140.10 113.30 143.02 C 113.44 146.06 111.95 149.14 113.22 152.11 C 114.80 146.33 115.20 139.99 113.26 134.26 M 116.00 152.87 C 116.11 156.98 114.97 161.78 118.41 164.91 C 118.40 160.89 117.99 156.88 117.96 152.86 C 117.47 152.86 116.49 152.87 116.00 152.87 Z" />
<path fill="#FFFFFF" opacity="1.00" d=" M 205.93 69.82 C 208.30 68.15 211.04 67.01 213.99 67.22 C 216.04 67.75 216.79 69.87 217.87 71.45 C 213.35 74.51 207.62 76.16 202.24 74.65 C 197.38 73.27 192.10 74.30 187.90 77.02 C 183.89 79.50 178.98 79.72 174.90 82.04 C 171.69 81.08 168.37 80.61 165.04 80.40 C 161.18 80.43 157.91 78.04 154.09 77.76 C 153.63 76.61 153.15 75.47 152.67 74.33 C 157.16 74.89 161.44 76.72 166.00 76.73 C 170.33 75.62 174.01 72.89 178.01 71.02 C 182.66 70.03 187.55 70.30 192.09 71.73 C 196.74 73.07 201.86 72.47 205.93 69.82 M 177.76 75.77 C 175.07 77.77 171.71 78.29 168.71 79.62 C 174.59 80.29 180.03 76.93 184.33 73.26 C 181.95 73.56 179.69 74.34 177.76 75.77 Z" />
<path fill="#FFFFFF" opacity="1.00" d=" M 143.90 71.80 C 147.51 73.08 151.28 74.69 152.71 78.59 C 149.89 76.18 147.12 73.69 143.90 71.80 Z" />
</g>
<g id="#494a48ff">
<path fill="#333333" opacity="1.00" d=" M 31.94 62.97 C 38.04 58.38 47.57 60.62 50.72 67.68 C 55.25 69.27 60.27 67.95 63.72 64.69 C 66.80 61.49 71.52 63.60 74.91 65.14 C 80.18 68.17 86.54 67.12 92.21 68.84 C 98.15 70.99 104.54 69.89 110.69 70.46 C 119.00 63.75 131.73 63.29 140.08 70.19 C 139.16 70.28 137.32 70.46 136.40 70.55 C 131.04 65.97 123.26 66.17 116.91 68.33 C 115.56 70.53 113.19 71.15 110.77 71.24 C 106.63 72.55 102.20 71.99 97.93 71.97 C 92.18 69.92 86.09 69.22 80.11 68.15 C 76.19 67.88 72.80 65.63 68.98 64.97 C 64.88 63.90 62.69 69.03 58.81 69.27 C 55.75 69.49 52.67 69.35 49.60 69.32 C 48.12 66.90 46.62 64.16 43.89 62.97 C 39.30 60.84 33.51 62.37 30.31 66.22 C 26.30 70.20 22.54 76.13 24.94 81.91 C 25.92 86.75 31.26 88.50 33.66 92.45 C 36.10 95.93 40.64 96.82 44.61 96.05 C 49.62 93.39 50.53 87.58 50.51 82.44 C 52.35 86.17 51.67 90.32 49.32 93.66 C 52.73 90.83 57.07 89.65 60.88 87.50 C 59.96 90.78 56.38 91.52 53.56 92.40 C 50.37 94.18 46.65 95.29 44.24 98.20 C 42.40 100.45 39.81 102.25 38.90 105.12 C 37.39 109.25 36.07 113.46 34.89 117.69 C 33.26 119.10 32.08 121.00 30.33 122.26 C 27.53 123.52 24.22 122.13 21.50 123.71 C 18.12 125.62 13.97 125.84 10.30 124.70 C 8.64 124.25 8.34 122.46 8.62 120.99 C 9.97 118.68 11.58 116.49 13.50 114.63 C 16.19 111.90 20.19 111.54 23.49 109.88 C 23.91 110.12 24.74 110.59 25.16 110.82 C 25.38 111.31 25.81 112.28 26.03 112.76 C 25.74 112.36 25.17 111.56 24.88 111.16 C 21.84 113.17 17.44 113.02 15.25 116.22 C 14.04 117.86 12.68 119.39 11.15 120.74 C 11.47 121.63 11.79 122.51 12.11 123.40 C 14.37 123.55 16.70 123.56 18.77 122.50 C 21.90 121.00 25.39 120.86 28.79 120.92 C 29.91 120.05 31.02 119.17 32.14 118.29 C 29.78 115.70 26.98 113.15 26.55 109.46 C 29.40 111.36 31.21 114.27 32.58 117.34 C 34.89 110.64 36.49 103.15 42.07 98.28 C 38.04 97.64 34.80 95.11 31.54 92.86 C 31.35 98.44 30.21 104.26 27.08 108.97 C 28.45 103.13 29.69 97.32 29.99 91.31 C 24.82 88.35 21.62 82.07 22.36 76.15 C 23.38 70.47 28.06 66.77 31.94 62.97 Z" />
<path fill="#333333" opacity="1.00" d=" M 206.46 67.37 C 209.08 65.05 212.60 65.17 215.79 65.95 C 217.00 67.39 218.20 68.84 219.34 70.35 C 222.20 69.88 226.47 68.40 228.29 71.60 C 231.49 75.72 230.09 81.17 229.56 85.89 C 228.45 90.90 229.44 96.17 228.25 101.13 C 224.06 106.87 215.91 107.48 209.75 104.78 C 209.70 103.47 209.70 102.16 209.74 100.85 C 211.74 98.48 213.95 96.28 215.46 93.53 C 214.42 91.27 213.21 89.09 211.99 86.93 C 210.36 87.44 208.74 87.97 207.12 88.52 C 206.79 90.84 206.34 93.20 204.94 95.15 C 205.85 97.72 207.00 100.19 207.86 102.77 C 205.10 101.04 204.12 97.88 202.77 95.10 C 203.72 93.58 204.57 92.00 205.34 90.38 C 202.08 92.02 198.83 93.87 195.13 94.24 C 191.25 94.71 187.79 96.91 185.02 99.58 C 184.41 99.04 183.79 98.51 183.18 97.98 C 187.94 92.85 195.61 93.59 201.30 90.14 C 203.85 88.84 205.88 86.42 208.85 86.05 C 212.21 85.62 215.94 83.95 218.99 86.22 C 217.28 86.54 215.57 86.81 213.84 87.04 C 216.65 90.16 217.80 95.91 214.78 99.16 C 215.16 99.59 215.55 100.02 215.94 100.45 C 218.33 99.68 221.00 99.24 223.07 101.04 C 221.04 101.08 219.01 101.07 216.98 101.01 C 216.39 101.24 215.20 101.69 214.61 101.92 C 214.01 101.47 213.40 101.03 212.79 100.59 C 212.49 101.38 211.88 102.95 211.58 103.74 C 214.63 104.09 217.98 105.75 220.89 103.94 C 223.93 102.44 227.48 99.84 227.14 96.02 C 227.07 89.32 228.51 82.72 228.61 76.03 C 228.46 73.66 226.82 71.88 225.26 70.28 C 220.15 71.67 215.91 75.08 210.96 76.83 C 205.00 77.90 199.18 74.82 193.16 76.04 L 193.16 76.72 C 194.26 76.91 196.45 77.30 197.55 77.50 C 190.52 78.71 183.61 80.47 176.73 82.37 C 171.86 83.69 167.04 81.58 162.22 81.04 C 163.07 83.71 163.88 86.39 164.75 89.05 C 168.23 86.99 172.83 87.59 175.59 90.58 C 172.13 90.41 168.67 90.07 165.20 90.22 C 165.69 93.01 165.84 95.87 166.48 98.64 C 169.03 97.29 171.93 97.07 174.76 97.22 C 172.00 99.02 168.63 99.18 165.53 100.00 C 165.25 101.41 164.95 102.82 164.64 104.22 C 167.67 103.80 170.82 103.28 173.42 101.55 C 176.22 99.31 178.37 96.33 181.41 94.35 C 180.61 96.39 179.48 98.27 178.07 99.95 C 179.80 99.80 181.59 99.87 183.06 100.91 C 180.88 101.56 178.64 101.92 176.38 101.75 C 173.49 103.51 170.40 104.94 167.09 105.72 C 163.99 106.42 161.40 108.76 158.12 108.77 C 153.07 108.77 148.09 107.38 143.02 107.72 C 140.99 108.03 139.07 108.95 136.99 109.02 C 133.74 108.62 130.95 106.76 127.87 105.77 C 125.25 104.76 122.38 105.24 119.64 105.04 C 120.60 104.49 122.52 103.38 123.48 102.83 C 120.14 103.97 116.79 105.18 113.24 105.42 C 111.22 107.03 108.96 108.30 106.74 109.62 C 110.45 113.68 111.23 119.27 114.06 123.85 C 116.76 128.59 120.62 133.11 120.69 138.87 C 121.15 148.27 120.59 157.80 122.39 167.10 C 122.17 167.49 121.75 168.27 121.54 168.67 C 121.95 169.59 122.38 170.51 122.81 171.43 C 121.83 172.79 121.04 174.44 119.47 175.22 C 114.32 177.95 109.72 181.58 105.03 185.00 C 102.25 185.98 99.23 185.98 96.32 186.33 C 94.68 185.33 93.04 184.34 91.38 183.38 C 92.49 179.67 94.79 176.49 95.92 172.79 C 97.11 170.09 98.47 166.91 101.45 165.80 C 103.88 164.95 106.35 164.23 108.83 163.54 C 107.73 159.23 107.02 154.80 105.52 150.59 C 103.74 146.88 100.46 144.10 98.99 140.21 C 97.36 137.49 98.01 134.26 97.91 131.26 C 95.12 129.01 92.13 126.99 89.63 124.40 C 86.96 121.72 82.89 120.33 81.42 116.59 C 80.43 114.87 79.53 113.10 78.70 111.30 C 73.54 108.88 68.98 105.31 63.62 103.27 C 60.17 102.05 57.52 99.47 54.66 97.31 C 53.29 96.41 52.73 94.84 52.20 93.38 C 56.44 96.04 60.21 99.38 64.48 102.02 C 63.79 99.16 64.44 95.77 62.26 93.47 C 60.46 93.83 58.64 94.10 56.81 94.26 C 56.80 93.88 56.78 93.13 56.77 92.76 C 58.97 92.37 61.15 91.85 63.33 91.32 C 65.82 95.45 66.01 100.85 69.89 104.16 C 72.82 106.43 76.35 107.86 79.72 109.36 C 82.57 109.99 85.50 110.29 88.23 111.38 C 88.16 111.68 88.00 112.30 87.93 112.61 C 85.91 112.29 83.89 112.02 81.86 111.79 C 82.59 114.23 83.17 116.97 85.25 118.66 C 88.62 121.51 92.07 124.29 95.68 126.84 C 94.52 125.02 93.28 123.25 91.92 121.58 C 91.68 119.43 91.50 117.26 91.47 115.10 C 93.79 122.04 100.52 127.39 99.96 135.19 C 99.78 139.15 102.42 142.34 104.38 145.52 C 108.10 150.51 109.75 156.73 110.23 162.87 C 113.44 164.08 115.84 166.61 117.49 169.57 C 114.68 168.37 112.67 166.03 110.20 164.33 C 105.81 166.26 99.44 166.66 97.96 172.15 C 97.46 176.58 93.50 179.59 93.27 184.08 C 96.47 183.91 99.74 184.14 102.87 183.33 C 109.78 180.83 114.50 174.87 121.11 171.82 C 121.50 167.14 119.85 162.64 119.95 157.98 C 120.09 154.60 118.94 151.34 118.97 147.97 C 118.93 143.06 119.50 137.95 117.54 133.29 C 113.99 126.82 110.44 120.36 107.22 113.72 C 104.71 108.95 100.69 105.24 96.94 101.45 C 98.43 100.89 99.67 101.83 100.85 102.61 C 101.07 101.83 101.52 100.25 101.74 99.46 C 102.88 101.16 102.29 103.09 102.12 104.93 C 103.42 106.00 104.68 107.14 106.07 108.10 C 109.36 106.79 111.78 104.17 114.18 101.70 C 114.25 102.23 114.38 103.29 114.45 103.82 C 118.26 102.60 122.50 102.11 125.75 99.59 C 128.66 95.66 128.99 90.35 127.34 85.83 C 125.75 79.28 118.65 76.72 113.15 74.24 C 107.86 75.62 102.06 75.98 96.96 73.67 C 102.07 73.26 107.40 74.72 112.24 72.42 C 116.87 74.20 121.83 75.79 125.37 79.46 C 128.55 83.46 131.82 88.62 130.09 93.94 C 128.73 97.39 127.20 101.36 123.49 102.87 C 126.21 103.42 128.89 104.10 131.64 104.49 C 133.19 105.55 134.90 107.24 136.96 106.70 C 143.54 104.97 150.40 106.21 157.04 106.82 C 159.05 106.71 161.46 106.40 162.78 104.71 C 164.48 97.39 164.81 89.07 160.35 82.61 C 159.65 80.83 157.76 80.22 156.22 79.38 C 152.03 81.37 148.74 77.53 145.63 75.33 C 142.58 72.61 138.32 72.38 134.62 71.13 C 139.91 70.74 145.57 70.52 150.48 72.85 C 153.33 73.86 156.44 73.35 159.40 73.82 C 163.05 74.18 167.11 76.15 170.39 73.52 C 176.00 69.53 183.31 68.17 190.01 69.71 C 195.48 70.58 201.95 71.31 206.46 67.37 M 205.93 69.82 C 201.86 72.47 196.74 73.07 192.09 71.73 C 187.55 70.30 182.66 70.03 178.01 71.02 C 174.01 72.89 170.33 75.62 166.00 76.73 C 161.44 76.72 157.16 74.89 152.67 74.33 C 153.15 75.47 153.63 76.61 154.09 77.76 C 157.91 78.04 161.18 80.43 165.04 80.40 C 168.37 80.61 171.69 81.08 174.90 82.04 C 178.98 79.72 183.89 79.50 187.90 77.02 C 192.10 74.30 197.38 73.27 202.24 74.65 C 207.62 76.16 213.35 74.51 217.87 71.45 C 216.79 69.87 216.04 67.75 213.99 67.22 C 211.04 67.01 208.30 68.15 205.93 69.82 M 143.90 71.80 C 147.12 73.69 149.89 76.18 152.71 78.59 C 151.28 74.69 147.51 73.08 143.90 71.80 Z" />
<path fill="#333333" opacity="1.00" d=" M 59.66 73.37 C 61.75 70.23 65.45 68.85 68.91 67.85 C 72.67 67.49 75.98 70.05 79.76 69.62 C 83.64 69.86 88.30 69.81 91.00 73.07 C 86.61 72.57 82.50 70.34 78.01 70.65 C 74.97 70.61 72.34 72.25 69.63 73.39 C 70.67 72.01 71.74 70.65 72.79 69.28 C 67.97 68.86 63.94 71.69 59.66 73.37 Z" />
<path fill="#333333" opacity="1.00" d=" M 85.75 76.29 C 88.94 74.51 92.35 72.97 96.06 72.78 C 93.37 75.58 89.41 76.03 85.75 76.29 Z" />
<path fill="#333333" opacity="1.00" d=" M 177.76 75.77 C 179.69 74.34 181.95 73.56 184.33 73.26 C 180.03 76.93 174.59 80.29 168.71 79.62 C 171.71 78.29 175.07 77.77 177.76 75.77 Z" />
<path fill="#333333" opacity="1.00" d=" M 42.90 77.31 C 44.62 76.01 46.73 75.84 48.81 75.78 C 48.81 76.31 48.80 77.37 48.79 77.90 C 46.82 77.74 44.85 77.57 42.90 77.31 Z" />
<path fill="#333333" opacity="1.00" d=" M 52.29 75.85 C 53.74 76.26 55.68 75.81 56.69 77.17 C 58.87 79.74 60.67 82.69 63.37 84.77 C 65.49 86.30 68.21 86.45 70.59 87.37 C 72.20 88.43 73.44 89.95 74.71 91.38 C 77.05 90.07 79.70 89.64 82.32 89.30 C 82.84 86.69 84.97 85.79 87.37 85.54 C 88.62 84.94 89.79 84.06 91.20 83.87 C 89.64 86.93 84.31 86.33 84.11 90.16 C 80.69 90.44 77.14 91.27 74.59 93.73 C 72.59 95.03 73.43 97.87 72.74 99.83 C 71.94 98.61 71.17 97.38 70.42 96.13 C 71.24 94.32 72.07 92.50 72.95 90.71 C 71.62 89.81 70.35 88.81 68.94 88.05 C 67.36 88.43 65.87 89.06 64.35 89.59 C 64.52 89.13 64.87 88.21 65.05 87.75 C 63.12 86.61 60.43 86.14 59.41 83.91 C 57.80 80.84 55.99 77.19 51.91 77.50 C 52.00 77.09 52.20 76.26 52.29 75.85 Z" />
<path fill="#333333" opacity="1.00" d=" M 74.10 76.02 C 77.13 75.96 80.16 75.96 83.20 75.96 L 83.10 77.47 C 80.55 77.48 78.00 77.37 75.46 77.59 C 75.20 78.33 74.66 79.81 74.39 80.56 C 76.67 79.57 78.97 78.60 81.41 78.10 C 79.52 80.37 76.85 81.65 74.13 82.62 C 74.05 80.42 74.06 78.22 74.10 76.02 Z" />
<path fill="#333333" opacity="1.00" d=" M 99.03 76.36 C 102.61 77.49 107.24 77.87 108.68 81.98 C 105.40 80.22 102.34 78.08 99.03 76.36 Z" />
<path fill="#333333" opacity="1.00" d=" M 213.23 77.30 C 215.32 77.63 217.44 77.82 219.53 78.16 C 215.73 78.45 212.08 79.47 208.42 80.45 C 209.93 79.25 211.57 78.26 213.23 77.30 Z" />
<path fill="#333333" opacity="1.00" d=" M 82.03 79.09 C 85.57 77.60 90.40 79.19 91.15 83.25 C 88.15 81.82 85.56 79.43 82.03 79.09 Z" />
<path fill="#333333" opacity="1.00" d=" M 190.29 86.94 C 196.00 85.72 201.47 83.71 206.78 81.29 C 202.74 86.04 196.16 86.92 190.29 86.94 Z" />
<path fill="#333333" opacity="1.00" d=" M 140.81 91.49 C 140.40 88.17 142.14 85.40 144.47 83.24 C 144.37 84.31 144.27 85.39 144.16 86.47 C 143.04 88.14 141.98 89.85 140.81 91.49 Z" />
<path fill="#333333" opacity="1.00" d=" M 92.66 85.43 C 93.52 87.09 94.06 88.89 94.42 90.72 C 92.10 89.72 92.43 87.45 92.66 85.43 Z" />
<path fill="#333333" opacity="1.00" d=" M 176.51 86.94 C 179.86 85.86 183.42 85.99 186.87 86.40 C 183.52 87.38 179.95 87.55 176.51 86.94 Z" />
<path fill="#333333" opacity="1.00" d=" M 189.97 91.49 C 193.03 89.76 196.37 88.58 199.76 87.67 C 197.09 90.13 193.56 91.34 189.97 91.49 Z" />
<path fill="#333333" opacity="1.00" d=" M 105.46 93.70 C 109.41 92.81 113.39 92.07 117.21 90.69 C 117.87 90.97 118.54 91.24 119.21 91.52 C 118.45 91.53 116.94 91.53 116.18 91.53 C 113.74 93.92 110.42 94.47 107.14 93.90 C 106.62 94.18 105.58 94.75 105.06 95.03 C 106.10 96.33 106.92 97.77 107.60 99.29 C 106.99 99.73 105.76 100.61 105.15 101.06 C 104.64 99.56 105.53 96.76 103.24 96.72 C 102.35 97.75 101.58 98.88 100.82 100.02 C 100.15 100.09 98.80 100.23 98.12 100.30 C 100.23 97.81 102.33 94.93 105.46 93.70 Z" />
<path fill="#333333" opacity="1.00" d=" M 90.89 102.16 C 90.94 98.11 91.13 93.73 93.84 90.46 C 93.74 92.51 93.29 94.53 93.21 96.58 C 94.58 97.51 96.08 98.21 97.55 98.97 C 97.05 99.54 96.55 100.10 96.05 100.67 C 95.36 100.05 93.99 98.80 93.30 98.18 C 92.48 99.50 91.68 100.82 90.89 102.16 Z" />
<path fill="#333333" opacity="1.00" d=" M 108.39 100.04 C 109.88 99.25 111.91 101.61 111.06 103.03 C 109.57 103.80 107.60 101.44 108.39 100.04 Z" />
<path fill="#333333" opacity="1.00" d=" M 103.04 101.28 C 104.42 101.78 105.75 102.38 107.04 103.09 C 107.23 104.40 107.03 105.71 106.91 107.01 C 105.56 105.15 104.29 103.21 103.04 101.28 Z" />
<path fill="#333333" opacity="1.00" d=" M 91.52 103.36 C 93.22 103.65 94.92 103.97 96.60 104.37 C 95.53 104.68 93.37 105.31 92.30 105.62 C 92.25 109.66 94.42 113.10 97.17 115.88 C 99.41 119.16 102.88 121.17 106.09 123.37 C 104.82 123.26 103.54 123.14 102.27 123.02 C 98.30 120.25 95.22 116.44 92.33 112.62 C 90.20 109.93 90.65 106.42 91.52 103.36 Z" />
<path fill="#333333" opacity="1.00" d=" M 100.36 109.34 C 100.84 109.58 101.82 110.05 102.30 110.29 C 102.23 112.58 100.73 114.44 100.42 116.66 C 99.67 115.73 98.87 114.86 98.03 114.02 C 98.77 113.41 99.51 112.80 100.25 112.19 C 100.27 111.48 100.33 110.05 100.36 109.34 Z" />
<path fill="#333333" opacity="1.00" d=" M 105.35 145.10 C 107.39 138.43 107.58 131.34 109.75 124.70 C 110.51 127.96 109.88 131.24 109.49 134.48 C 108.43 138.16 107.96 141.98 106.65 145.59 C 106.32 145.47 105.67 145.22 105.35 145.10 Z" />
<path fill="#333333" opacity="1.00" d=" M 113.26 134.26 C 115.20 139.99 114.80 146.33 113.22 152.11 C 111.95 149.14 113.44 146.06 113.30 143.02 C 113.26 140.10 112.97 137.18 113.26 134.26 Z" />
<path fill="#333333" opacity="1.00" d=" M 116.00 152.87 C 116.49 152.87 117.47 152.86 117.96 152.86 C 117.99 156.88 118.40 160.89 118.41 164.91 C 114.97 161.78 116.11 156.98 116.00 152.87 Z" />
</g>
</svg>
