<?xml version="1.0" encoding="UTF-8" ?>
<!DOCTYPE svg PUBLIC "-//W3C//DTD SVG 1.1//EN" "http://www.w3.org/Graphics/SVG/1.1/DTD/svg11.dtd">
<svg width="189pt" height="275pt" viewBox="0 0 189 275" version="1.1" xmlns="http://www.w3.org/2000/svg">
<g id="#ffffffff">
<path fill="#FFFFFF" opacity="1.00" d=" M 0.00 0.00 L 189.00 0.00 L 189.00 275.00 L 0.00 275.00 L 0.00 0.00 M 66.54 9.73 C 60.19 14.56 54.20 19.89 48.68 25.64 C 46.17 27.80 43.40 29.68 41.19 32.19 C 36.64 37.37 30.42 40.75 26.03 46.08 C 25.36 46.75 25.85 47.64 25.97 48.40 C 30.99 42.24 37.84 38.06 43.26 32.32 C 51.87 25.67 59.46 17.79 68.03 11.08 C 69.59 9.89 69.63 7.77 70.12 6.03 C 68.95 7.29 67.87 8.64 66.54 9.73 M 70.25 23.24 C 68.20 24.88 65.80 26.07 63.96 27.97 C 58.93 33.40 52.97 37.86 47.80 43.14 L 47.06 45.40 C 51.14 43.23 53.95 39.48 57.52 36.65 C 62.23 33.02 65.75 28.00 71.01 25.08 C 74.61 21.69 78.09 17.86 80.19 13.32 C 76.37 16.12 74.13 20.52 70.25 23.24 M 142.87 26.77 C 140.27 28.61 138.23 31.06 136.20 33.48 C 133.19 37.08 129.10 39.56 126.01 43.08 C 123.35 46.11 120.63 49.20 117.04 51.15 C 113.37 53.22 110.96 56.73 108.22 59.81 C 103.02 55.81 96.07 54.88 89.71 55.84 C 86.49 59.54 85.96 64.83 87.63 69.34 C 90.74 72.92 95.92 72.80 100.24 73.46 C 100.02 73.03 99.57 72.16 99.34 71.72 C 96.43 70.91 93.12 71.22 90.57 69.37 C 90.17 67.26 89.48 65.28 87.94 63.71 C 89.52 60.82 90.80 56.01 94.94 56.44 C 99.27 57.08 103.56 58.71 107.10 61.31 C 104.59 64.14 100.30 66.74 101.01 71.09 C 101.30 73.95 103.81 75.63 106.06 76.96 C 104.69 79.38 105.26 82.21 106.04 84.72 C 107.14 86.04 108.18 87.39 109.18 88.79 C 104.99 88.47 102.95 84.21 99.03 83.31 C 95.13 82.27 91.12 83.27 87.17 83.31 C 84.72 82.47 82.54 81.02 80.23 79.90 C 80.55 80.68 81.19 82.25 81.51 83.03 C 84.50 84.88 87.34 86.94 90.02 89.21 L 89.43 87.43 C 90.55 88.02 91.67 88.63 92.77 89.25 C 92.22 90.14 91.63 91.02 91.02 91.88 C 91.07 94.60 91.59 97.27 91.95 99.96 C 91.68 100.21 91.14 100.70 90.86 100.95 C 87.57 100.99 84.38 99.90 81.12 99.55 C 78.20 99.16 76.10 96.93 73.93 95.17 C 73.54 93.72 73.43 91.97 72.03 91.07 C 67.96 87.78 64.08 84.18 59.50 81.57 C 57.95 80.72 56.46 79.54 55.96 77.76 C 54.58 73.66 53.33 69.45 50.73 65.92 C 49.11 68.62 51.40 71.27 52.23 73.81 C 53.58 77.76 56.37 80.90 58.76 84.24 C 61.18 85.95 63.81 87.29 66.42 88.66 C 69.64 91.20 71.05 95.23 73.84 98.15 C 75.71 100.33 78.62 101.07 81.19 102.10 C 83.81 102.38 86.45 102.45 89.06 102.86 C 88.60 103.87 88.15 104.88 87.70 105.90 C 88.28 110.05 85.90 113.72 84.82 117.57 C 84.27 121.09 85.59 124.56 86.47 127.93 C 85.70 132.27 82.91 135.95 82.22 140.28 C 80.12 142.03 77.22 142.96 76.05 145.61 C 74.38 146.46 72.74 147.36 71.09 148.22 C 71.07 147.66 71.03 146.54 71.01 145.98 C 70.99 146.46 70.94 147.42 70.92 147.90 C 68.43 147.78 65.94 147.94 63.49 148.40 C 63.07 148.01 62.25 147.23 61.84 146.84 C 61.34 147.77 60.79 148.67 60.19 149.54 C 58.66 149.75 57.13 149.98 55.59 150.20 C 55.64 150.53 55.74 151.21 55.78 151.54 C 48.23 152.50 40.76 155.88 35.65 161.64 C 32.58 165.23 27.36 166.61 25.40 171.18 C 23.56 176.00 27.04 180.99 25.43 185.90 C 27.16 189.88 27.55 194.22 28.47 198.42 C 29.70 202.91 30.62 207.48 31.38 212.07 C 31.86 215.32 30.56 218.84 27.89 220.82 C 24.28 223.77 21.75 228.32 17.06 229.71 C 14.06 230.89 11.77 233.33 9.66 235.68 C 10.79 236.75 11.82 237.93 13.08 238.85 C 18.06 239.79 23.19 239.17 28.19 238.75 C 29.75 238.83 30.53 237.45 31.40 236.42 C 34.89 233.95 39.09 234.59 43.10 234.61 C 46.10 234.74 48.21 232.31 50.45 230.70 C 50.06 228.46 50.07 226.18 49.85 223.93 C 49.19 220.21 47.02 217.03 45.72 213.54 C 45.27 211.34 45.35 209.05 44.85 206.86 C 43.50 201.34 45.38 195.64 44.47 190.08 C 43.83 187.15 43.11 184.23 42.86 181.24 C 47.30 178.71 52.46 178.61 57.42 178.59 C 57.85 177.72 58.27 176.86 58.70 175.99 C 52.57 175.89 46.72 177.58 40.87 179.15 C 40.52 179.99 40.17 180.83 39.82 181.67 C 41.52 186.26 42.60 191.08 42.93 195.97 C 43.31 200.68 42.18 205.41 43.03 210.11 C 44.11 216.23 45.89 222.24 48.47 227.91 C 47.84 229.80 46.89 231.68 44.85 232.34 C 40.87 233.30 36.72 231.80 32.77 232.95 C 30.35 233.83 28.57 235.89 26.17 236.80 C 23.25 236.99 20.30 236.56 17.44 237.34 C 16.15 237.61 14.02 238.01 13.64 236.25 C 14.75 232.83 18.43 231.64 21.41 230.40 C 24.21 228.39 25.59 225.09 28.04 222.75 C 30.00 220.86 32.22 219.13 33.50 216.67 C 34.26 213.23 34.14 209.46 32.43 206.31 C 30.56 202.52 30.69 198.19 30.29 194.08 C 30.23 190.90 27.41 188.64 27.30 185.46 C 26.96 181.61 26.64 177.76 26.08 173.93 C 26.32 170.54 29.74 168.87 31.78 166.58 C 34.94 163.83 37.09 159.83 41.07 158.10 C 45.83 155.89 50.83 154.07 56.10 153.60 C 58.77 153.38 62.12 152.44 64.17 154.77 C 67.58 158.53 70.17 164.09 68.45 169.15 C 64.28 170.65 62.34 174.99 60.07 178.47 C 58.14 179.34 57.08 181.23 55.88 182.87 C 53.58 185.69 55.03 189.55 54.32 192.84 C 53.47 196.52 54.63 200.26 54.03 203.94 C 51.28 214.30 54.47 225.16 51.55 235.54 C 46.48 240.86 43.59 248.21 37.16 252.15 C 35.02 253.83 32.44 258.50 36.02 259.96 C 41.35 262.11 47.53 263.70 52.99 261.00 C 57.67 257.52 61.60 253.09 66.20 249.49 C 68.92 244.59 66.18 238.98 66.15 233.81 C 66.91 228.56 68.48 223.49 70.44 218.58 C 71.43 212.86 73.49 206.81 71.34 201.10 C 71.07 200.01 69.94 200.28 69.13 200.38 C 69.83 203.88 70.25 207.49 69.77 211.06 C 69.44 213.50 67.77 215.49 67.40 217.93 C 66.36 223.56 64.22 229.09 64.65 234.90 C 64.92 238.73 64.83 242.74 66.43 246.31 C 65.25 247.50 63.96 248.59 62.52 249.46 C 59.38 251.25 57.12 254.15 54.49 256.58 C 50.32 262.03 42.59 259.48 36.78 259.27 C 36.88 257.69 36.99 256.12 37.12 254.55 C 41.67 253.16 43.42 248.51 46.52 245.39 C 48.82 243.05 50.67 240.33 52.78 237.83 C 53.94 236.52 53.68 234.67 53.92 233.06 C 54.32 220.37 54.78 207.67 56.07 195.02 C 56.31 191.76 56.24 188.42 57.21 185.26 C 58.46 181.25 62.22 178.85 64.15 175.23 C 66.74 170.23 71.72 167.08 76.72 164.88 C 81.60 161.95 87.66 165.60 90.29 169.94 C 91.42 171.33 91.49 174.45 93.94 173.70 C 93.13 169.63 89.35 167.55 87.61 164.01 C 85.21 162.80 82.73 161.76 80.19 160.90 C 82.85 160.77 85.35 159.82 87.87 159.02 C 88.22 158.46 88.91 157.32 89.26 156.76 C 87.47 157.18 85.66 157.55 83.85 157.88 C 83.53 155.72 84.87 152.48 82.17 151.44 C 81.92 153.69 81.81 155.96 81.86 158.23 C 76.59 158.38 74.96 163.80 71.96 167.13 C 71.48 164.91 71.17 162.65 70.60 160.45 C 69.95 156.21 65.86 153.99 63.66 150.62 C 68.09 150.38 72.54 149.53 76.50 147.45 C 78.54 146.20 80.06 144.22 82.21 143.15 C 84.75 142.52 87.39 142.48 89.97 142.08 C 95.56 144.91 101.63 146.68 107.07 149.86 C 109.87 151.51 113.45 152.62 114.74 155.92 C 114.21 157.04 113.70 158.17 113.18 159.30 C 113.59 159.33 114.39 159.41 114.80 159.44 C 115.32 163.06 115.75 166.77 114.16 170.20 C 112.75 171.88 116.09 174.23 116.53 171.67 C 117.85 171.86 119.16 172.04 120.49 172.18 C 120.27 173.47 120.06 174.83 121.40 175.57 C 121.74 174.19 122.08 172.81 122.41 171.42 C 122.91 171.13 123.92 170.54 124.42 170.25 C 128.64 163.24 129.85 155.04 132.35 147.36 C 131.90 146.67 131.44 145.99 130.97 145.32 C 131.03 146.65 131.15 149.30 131.22 150.62 C 130.69 150.49 129.63 150.23 129.11 150.10 C 128.02 153.90 127.60 157.94 125.48 161.37 C 124.50 164.44 122.95 167.28 121.19 169.96 C 119.89 169.93 118.59 169.91 117.29 169.90 C 118.07 164.77 117.46 159.51 116.43 154.46 C 120.65 150.49 121.76 144.47 124.58 139.58 C 128.11 132.11 135.23 126.98 138.24 119.23 C 139.89 112.99 141.77 106.67 141.58 100.14 C 140.51 95.19 136.22 91.75 131.75 89.86 C 132.13 89.55 132.89 88.92 133.27 88.60 C 132.55 81.74 138.31 76.39 137.88 69.55 C 138.01 69.22 138.26 68.56 138.38 68.23 C 137.54 66.38 136.83 64.47 136.09 62.57 C 134.73 61.70 133.37 60.84 132.01 59.98 C 135.74 56.67 138.75 52.57 142.92 49.75 C 148.75 45.02 153.67 39.29 159.60 34.65 C 162.91 30.53 168.42 28.29 170.23 23.05 C 167.69 25.63 164.50 27.39 161.81 29.78 C 158.01 33.66 153.65 36.94 149.86 40.84 C 146.93 44.55 143.06 47.32 139.51 50.38 C 132.97 56.57 125.73 62.01 119.63 68.68 C 116.72 71.54 114.36 75.67 110.03 76.43 C 106.60 75.27 102.69 72.22 103.47 68.19 C 106.14 64.59 109.87 61.89 112.26 58.08 C 115.59 53.08 121.64 51.02 125.39 46.43 C 129.61 41.67 134.74 37.84 138.94 33.07 C 143.99 27.10 151.88 23.56 155.00 16.03 C 150.62 19.23 147.34 23.68 142.87 26.77 M 38.59 44.58 C 37.06 45.73 35.46 46.79 33.82 47.78 C 32.20 50.64 30.17 56.93 35.48 56.88 C 34.56 57.28 32.74 58.09 31.83 58.49 C 29.41 57.55 28.04 55.21 26.48 53.30 C 26.57 52.01 26.66 50.72 26.75 49.42 C 26.20 49.45 25.12 49.49 24.58 49.52 C 22.93 53.94 25.53 59.49 30.14 60.79 C 31.89 61.14 33.33 59.76 34.87 59.19 C 36.20 60.37 36.98 62.67 39.07 62.54 C 41.92 62.38 44.28 63.96 46.69 65.25 C 46.47 64.40 46.02 62.70 45.80 61.85 C 43.27 60.97 40.60 60.61 37.94 60.32 C 36.59 58.12 36.41 55.19 34.17 53.60 C 34.29 52.62 34.40 51.65 34.51 50.67 C 35.97 49.46 37.46 48.28 38.90 47.05 C 44.11 48.16 50.09 48.38 54.02 52.48 C 52.23 53.05 50.58 51.95 48.92 51.45 C 46.20 53.48 45.53 56.78 45.36 59.97 C 47.25 60.74 49.13 61.55 51.05 62.27 C 49.87 62.34 47.50 62.48 46.32 62.55 C 46.73 63.59 47.16 64.62 47.61 65.65 C 51.99 66.37 54.47 62.21 57.28 59.69 C 57.35 58.64 57.42 57.59 57.49 56.55 C 57.91 58.46 58.15 60.42 58.78 62.29 C 60.38 64.32 62.47 65.93 64.13 67.94 C 68.29 70.21 73.09 73.64 73.47 78.77 C 71.81 79.05 70.16 79.33 68.50 79.59 C 68.77 80.01 69.30 80.84 69.57 81.26 C 72.34 81.02 75.10 80.48 77.90 80.63 C 78.43 80.12 78.95 79.60 79.48 79.09 C 77.06 78.12 75.30 76.18 74.06 73.95 C 72.06 70.33 68.03 68.70 65.33 65.75 C 63.93 64.16 62.26 62.84 60.82 61.30 C 59.43 59.04 58.55 56.51 57.54 54.07 C 57.16 54.75 56.41 56.11 56.03 56.78 C 54.97 55.08 53.38 53.00 55.76 51.56 C 54.48 50.06 53.38 48.40 51.90 47.10 C 47.51 46.07 43.05 45.22 38.59 44.58 M 135.98 57.12 C 136.20 57.51 136.64 58.30 136.86 58.70 C 141.41 58.54 145.57 60.59 149.89 61.68 C 152.31 62.32 155.20 63.14 156.24 65.70 C 157.23 68.03 157.37 70.63 157.91 73.09 C 158.35 79.29 155.03 84.82 153.37 90.60 C 151.94 95.53 149.15 99.93 147.91 104.92 C 146.10 111.40 142.34 117.10 140.70 123.63 C 137.13 130.80 133.14 137.84 131.51 145.79 C 132.46 145.21 133.32 144.51 134.09 143.70 C 132.99 148.07 133.91 152.65 133.94 157.11 C 135.07 164.72 134.30 172.45 135.33 180.06 C 135.74 183.04 135.68 186.04 135.58 189.04 C 135.39 193.89 136.38 198.67 136.65 203.50 C 131.89 203.79 127.40 205.45 123.01 207.16 C 118.11 208.65 113.18 210.10 108.14 211.03 C 109.66 206.88 110.88 202.60 112.70 198.56 C 114.16 195.11 115.63 191.52 115.30 187.69 C 117.72 185.70 119.18 182.92 120.57 180.19 C 120.53 178.76 120.48 177.34 120.43 175.92 C 119.04 175.30 118.10 174.22 117.61 172.66 C 117.42 173.01 117.03 173.71 116.84 174.06 C 116.73 175.46 117.99 176.20 118.80 177.12 C 118.85 178.44 118.90 179.75 118.95 181.07 C 117.97 182.23 117.04 183.47 115.83 184.42 C 109.87 185.67 103.61 185.26 97.83 183.34 C 100.71 180.73 104.72 180.21 108.15 178.60 C 110.56 177.50 115.28 177.63 115.20 174.11 C 113.59 172.86 111.41 175.13 109.70 175.61 C 106.59 175.45 104.01 177.46 101.12 178.27 C 98.37 179.01 96.34 181.05 94.52 183.12 C 94.74 180.04 95.12 176.87 94.16 173.87 C 93.50 174.67 92.86 175.48 92.23 176.31 C 92.22 178.44 92.10 180.58 91.81 182.70 C 87.42 185.08 83.43 188.32 78.48 189.53 C 75.41 190.23 72.78 191.93 70.53 194.09 C 70.60 192.93 70.73 190.61 70.80 189.45 C 70.42 189.64 69.66 190.02 69.28 190.21 C 68.30 193.44 68.07 196.89 69.06 200.17 C 69.72 199.05 70.35 197.90 70.93 196.73 C 73.97 195.01 76.29 191.95 79.89 191.31 C 84.48 190.44 88.42 187.95 92.39 185.65 C 96.94 186.74 101.73 187.13 106.41 187.72 C 105.03 190.53 104.04 193.51 103.01 196.45 C 101.98 197.55 101.76 194.91 101.34 194.31 C 101.13 197.15 102.47 200.10 100.93 202.75 C 99.95 207.04 97.66 210.77 95.95 214.76 C 92.04 214.93 88.87 212.38 85.54 210.74 C 84.36 210.75 83.19 210.76 82.02 210.78 C 81.15 211.10 79.41 211.74 78.54 212.07 C 79.08 212.50 79.64 212.93 80.20 213.35 C 80.91 213.19 82.34 212.85 83.06 212.69 C 87.47 213.99 91.80 217.38 96.60 216.33 C 99.00 213.61 100.11 209.86 100.89 206.35 C 104.77 200.80 106.58 194.10 108.10 187.58 C 110.38 187.57 112.67 187.55 114.95 187.45 C 112.88 190.98 112.41 195.09 111.09 198.90 C 109.59 203.79 106.22 208.11 106.24 213.43 C 112.82 212.02 119.24 209.95 125.82 208.54 C 130.07 206.61 134.67 205.72 139.01 204.04 C 138.66 203.65 137.96 202.86 137.62 202.47 C 137.14 193.37 137.71 184.24 136.74 175.17 C 136.00 163.72 136.54 152.17 134.89 140.78 C 136.69 135.45 139.26 130.39 140.69 124.94 C 141.84 123.35 142.93 121.70 143.65 119.87 C 149.05 107.28 153.91 94.47 158.78 81.67 C 160.41 77.26 159.33 72.52 159.39 67.96 C 159.18 64.16 155.97 61.06 152.21 60.77 C 146.71 59.94 141.53 57.67 135.98 57.12 M 142.43 125.92 C 141.65 137.53 142.57 149.15 142.81 160.77 L 144.86 161.02 C 144.71 156.95 144.28 152.91 143.80 148.88 C 143.92 142.54 144.01 136.22 143.88 129.89 C 143.79 128.45 142.98 127.21 142.43 125.92 M 143.15 160.99 C 143.50 165.74 143.60 170.51 143.98 175.27 C 144.52 174.35 145.06 173.43 145.58 172.51 C 145.24 168.76 145.23 164.99 145.20 161.23 L 143.15 160.99 M 143.27 181.03 C 144.27 191.28 144.82 201.59 146.46 211.76 C 136.93 214.18 127.29 216.38 118.21 220.21 C 114.83 222.07 110.97 222.56 107.33 223.70 C 107.42 224.04 107.60 224.73 107.69 225.07 C 111.55 225.04 115.07 226.71 118.62 228.01 C 118.63 229.66 118.62 231.33 118.57 232.99 C 116.04 233.57 113.58 234.57 110.97 234.75 C 104.41 232.35 98.89 227.75 92.19 225.69 C 87.53 223.02 82.65 220.77 77.85 218.40 C 77.69 216.24 77.37 214.09 76.74 212.01 C 75.67 214.55 75.76 217.35 75.32 220.03 C 81.63 223.21 88.18 225.93 94.83 228.30 C 100.08 231.36 105.37 234.50 111.03 236.71 C 114.21 236.22 117.22 235.04 120.29 234.13 C 120.31 231.70 120.32 229.27 120.30 226.84 C 118.02 225.97 115.72 225.13 113.32 224.67 C 124.31 219.94 135.87 217.04 147.37 213.94 C 147.64 212.00 148.33 210.03 147.85 208.07 C 146.23 200.53 146.28 192.77 145.47 185.13 C 144.93 181.78 146.36 178.40 145.36 175.11 C 144.22 176.88 142.86 178.79 143.27 181.03 Z" />
<path fill="#FFFFFF" opacity="1.00" d=" M 47.19 57.23 C 47.63 55.89 48.29 54.70 49.16 53.63 C 50.99 54.58 52.54 55.96 54.11 57.26 C 53.56 57.61 52.44 58.31 51.88 58.66 C 52.79 58.62 54.62 58.56 55.53 58.53 C 54.61 59.39 53.69 60.23 52.75 61.06 C 52.75 60.70 52.74 59.98 52.74 59.62 C 50.78 59.08 48.95 58.22 47.19 57.23 Z" />
<path fill="#FFFFFF" opacity="1.00" d=" M 120.69 70.47 C 124.06 67.10 127.29 63.57 131.09 60.66 C 134.46 63.88 137.06 68.62 135.61 73.39 C 135.33 76.62 132.33 78.45 131.20 81.31 C 130.84 83.25 130.93 85.24 130.75 87.20 C 129.65 85.93 128.60 84.63 127.57 83.30 C 127.30 81.68 126.92 80.07 126.49 78.48 C 125.74 77.45 125.01 76.40 124.31 75.34 C 123.06 73.75 121.89 72.10 120.69 70.47 Z" />
<path fill="#FFFFFF" opacity="1.00" d=" M 108.35 78.65 C 112.67 79.20 115.42 75.15 118.71 73.08 C 120.32 74.56 122.07 75.93 123.36 77.72 C 124.93 80.15 123.99 83.57 126.19 85.71 C 127.84 87.56 129.18 89.66 130.18 91.93 C 132.97 93.33 135.54 95.09 138.09 96.88 C 138.81 99.17 139.65 101.42 140.41 103.70 C 138.07 107.98 137.25 112.85 136.16 117.54 C 133.71 124.06 128.94 129.35 124.23 134.33 C 121.91 138.92 120.10 143.78 117.78 148.38 C 117.46 150.28 116.34 151.89 115.30 153.46 C 111.75 149.04 105.55 148.93 101.25 145.57 C 103.79 143.68 106.50 141.95 108.51 139.44 C 110.52 137.86 113.03 136.85 114.44 134.57 C 113.24 134.79 112.12 135.28 111.04 135.83 C 110.37 135.98 109.02 136.29 108.34 136.44 C 106.88 137.70 105.58 139.14 104.53 140.76 C 104.02 140.92 102.99 141.23 102.48 141.38 C 101.63 142.55 100.75 143.69 99.88 144.84 C 96.99 143.40 93.97 142.23 91.05 140.87 C 91.86 140.41 92.68 139.97 93.49 139.52 C 94.94 135.98 96.59 131.74 94.85 128.02 C 94.80 126.48 94.74 124.93 94.68 123.39 C 95.71 122.70 96.74 122.01 97.78 121.33 C 97.24 120.52 96.70 119.72 96.15 118.91 C 96.98 117.11 98.09 113.38 100.77 115.12 C 102.15 116.62 102.54 118.73 103.74 120.36 C 105.01 121.23 106.57 121.49 108.01 122.00 C 108.29 122.49 108.85 123.46 109.14 123.94 C 109.12 125.86 108.67 127.88 109.25 129.75 L 109.81 130.10 C 111.26 131.04 107.49 131.84 107.02 132.77 C 106.52 132.77 105.52 132.76 105.03 132.75 C 105.56 133.73 106.12 134.70 106.72 135.64 C 108.52 132.95 112.29 132.58 113.42 129.32 C 112.87 129.43 111.77 129.64 111.22 129.75 C 110.92 125.49 109.28 120.70 105.23 118.64 C 104.68 115.15 101.47 112.90 98.01 113.12 C 96.53 111.99 94.80 112.43 93.17 112.92 C 94.18 113.65 95.34 114.09 96.57 114.32 C 95.04 115.92 93.63 117.76 94.43 120.11 C 93.03 124.55 92.84 129.41 94.65 133.76 C 93.54 135.35 92.66 137.10 92.28 139.02 C 91.09 139.34 89.87 139.54 88.74 140.02 C 87.40 139.92 86.08 139.82 84.75 139.72 C 84.70 139.27 84.62 138.36 84.57 137.91 C 85.50 137.19 86.40 136.44 87.30 135.67 C 87.20 132.92 87.44 130.11 88.79 127.66 C 88.54 125.41 88.34 123.15 87.86 120.94 C 87.68 119.16 87.52 117.39 87.37 115.61 L 88.80 115.78 C 88.79 115.11 88.77 113.78 88.76 113.11 C 92.44 110.59 89.04 105.18 92.35 102.41 C 92.56 104.33 92.74 106.25 92.95 108.17 C 93.94 108.33 94.92 108.47 95.91 108.62 C 92.88 103.66 94.27 97.75 92.48 92.46 C 93.11 90.81 94.01 89.01 92.41 87.58 C 91.35 87.32 90.29 87.07 89.23 86.82 C 88.58 83.33 92.20 84.68 94.02 84.35 C 99.04 84.25 102.60 88.35 106.53 90.87 C 107.66 90.16 108.80 89.46 109.95 88.76 C 113.48 93.25 113.78 100.06 119.08 103.06 C 118.71 104.02 118.36 104.98 118.06 105.96 C 114.44 107.69 110.46 108.84 107.21 111.23 C 111.60 110.41 115.32 107.72 119.62 106.57 C 119.68 105.87 119.80 104.48 119.86 103.78 C 120.65 104.40 122.23 105.63 123.02 106.24 C 120.95 108.25 119.11 110.48 117.02 112.47 C 116.97 113.20 116.88 114.67 116.83 115.40 C 119.19 112.58 121.64 109.75 124.84 107.86 C 128.09 109.85 129.73 113.65 133.28 115.20 C 132.70 113.08 131.85 111.04 130.94 109.04 C 125.61 106.61 121.01 102.93 117.01 98.69 C 116.61 95.86 116.48 92.69 114.66 90.35 C 112.56 88.46 110.18 86.90 108.13 84.96 C 107.76 83.57 107.35 82.20 106.95 80.82 C 107.42 80.10 107.89 79.38 108.35 78.65 M 116.49 90.66 C 118.12 91.65 120.09 92.21 122.01 91.99 C 123.81 91.17 124.47 89.23 125.07 87.50 C 123.64 88.24 122.22 89.00 120.81 89.76 C 119.40 89.31 118.05 88.71 116.77 87.96 C 116.63 88.86 116.54 89.76 116.49 90.66 M 103.01 107.83 C 102.40 108.89 103.31 109.80 103.71 110.70 C 104.65 112.08 105.98 113.09 107.39 113.95 C 109.60 115.41 111.86 116.77 113.96 118.38 C 113.75 117.60 113.33 116.03 113.13 115.24 C 112.71 115.06 111.88 114.71 111.47 114.53 C 111.20 114.12 110.67 113.29 110.41 112.88 C 108.70 112.40 107.01 111.88 105.31 111.40 L 105.77 110.15 L 104.47 109.86 C 106.21 105.58 107.38 100.85 110.78 97.51 C 110.63 96.90 110.33 95.67 110.18 95.05 C 106.35 98.33 104.22 103.03 103.01 107.83 M 100.19 108.58 C 99.47 105.56 98.74 102.43 96.70 99.99 C 97.80 102.85 96.80 107.38 100.19 108.58 M 133.16 100.75 C 133.23 104.18 132.41 109.76 136.04 111.43 C 134.37 108.00 136.16 103.52 133.16 100.75 M 124.50 111.80 C 124.54 112.25 124.63 113.15 124.67 113.61 C 122.27 116.64 122.40 120.60 122.91 124.21 C 122.20 124.15 120.78 124.04 120.08 123.98 C 119.51 123.12 118.94 122.25 118.38 121.39 C 117.98 121.56 117.17 121.89 116.77 122.06 C 115.88 125.99 120.82 127.93 123.96 126.75 C 124.11 127.22 124.40 128.16 124.55 128.63 C 123.88 128.91 122.53 129.46 121.86 129.74 C 119.89 129.71 117.75 126.83 116.02 128.33 C 117.31 130.30 119.37 131.47 121.42 132.50 C 122.14 130.71 122.66 130.82 122.98 132.83 L 123.65 133.65 C 125.86 126.24 124.42 118.16 127.67 110.96 C 126.61 111.23 125.55 111.51 124.50 111.80 M 90.16 117.83 C 91.68 116.82 93.17 115.75 94.69 114.72 C 92.46 113.87 88.45 114.61 90.16 117.83 M 121.00 135.27 C 122.27 135.86 123.33 133.89 122.98 132.83 C 121.76 132.42 120.21 134.15 121.00 135.27 Z" />
<path fill="#FFFFFF" opacity="1.00" d=" M 131.31 87.22 C 131.73 87.90 131.73 87.90 131.31 87.22 Z" />
</g>
<g id="#282926ff">
<path fill="#333333" opacity="1.00" d=" M 66.54 9.73 C 67.87 8.64 68.95 7.29 70.12 6.03 C 69.63 7.77 69.59 9.89 68.03 11.08 C 59.46 17.79 51.87 25.67 43.26 32.32 C 37.84 38.06 30.99 42.24 25.97 48.40 C 25.85 47.64 25.36 46.75 26.03 46.08 C 30.42 40.75 36.64 37.37 41.19 32.19 C 43.40 29.68 46.17 27.80 48.68 25.64 C 54.20 19.89 60.19 14.56 66.54 9.73 Z" />
<path fill="#333333" opacity="1.00" d=" M 70.25 23.24 C 74.13 20.52 76.37 16.12 80.19 13.32 C 78.09 17.86 74.61 21.69 71.01 25.08 C 65.75 28.00 62.23 33.02 57.52 36.65 C 53.95 39.48 51.14 43.23 47.06 45.40 L 47.80 43.14 C 52.97 37.86 58.93 33.40 63.96 27.97 C 65.80 26.07 68.20 24.88 70.25 23.24 Z" />
<path fill="#333333" opacity="1.00" d=" M 142.87 26.77 C 147.34 23.68 150.62 19.23 155.00 16.03 C 151.88 23.56 143.99 27.10 138.94 33.07 C 134.74 37.84 129.61 41.67 125.39 46.43 C 121.64 51.02 115.59 53.08 112.26 58.08 C 109.87 61.89 106.14 64.59 103.47 68.19 C 102.69 72.22 106.60 75.27 110.03 76.43 C 114.36 75.67 116.72 71.54 119.63 68.68 C 125.73 62.01 132.97 56.57 139.51 50.38 C 143.06 47.32 146.93 44.55 149.86 40.84 C 153.65 36.94 158.01 33.66 161.81 29.78 C 164.50 27.39 167.69 25.63 170.23 23.05 C 168.42 28.29 162.91 30.53 159.60 34.65 C 153.67 39.29 148.75 45.02 142.92 49.75 C 138.75 52.57 135.74 56.67 132.01 59.98 C 133.37 60.84 134.73 61.70 136.09 62.57 C 136.83 64.47 137.54 66.38 138.38 68.23 C 138.26 68.56 138.01 69.22 137.88 69.55 C 138.31 76.39 132.55 81.74 133.27 88.60 C 132.89 88.92 132.13 89.55 131.75 89.86 C 136.22 91.75 140.51 95.19 141.58 100.14 C 141.77 106.67 139.89 112.99 138.24 119.23 C 135.23 126.98 128.11 132.11 124.58 139.58 C 121.76 144.47 120.65 150.49 116.43 154.46 C 117.46 159.51 118.07 164.77 117.29 169.90 C 118.59 169.91 119.89 169.93 121.19 169.96 C 122.95 167.28 124.50 164.44 125.48 161.37 C 127.60 157.94 128.02 153.90 129.11 150.10 C 129.63 150.23 130.69 150.49 131.22 150.62 C 131.15 149.30 131.03 146.65 130.97 145.32 C 131.44 145.99 131.90 146.67 132.35 147.36 C 129.85 155.04 128.64 163.24 124.42 170.25 C 123.92 170.54 122.91 171.13 122.41 171.42 C 122.08 172.81 121.74 174.19 121.40 175.57 C 120.06 174.83 120.27 173.47 120.49 172.18 C 119.16 172.04 117.85 171.86 116.53 171.67 C 116.09 174.23 112.75 171.88 114.16 170.20 C 115.75 166.77 115.32 163.06 114.80 159.44 C 114.39 159.41 113.59 159.33 113.18 159.30 C 113.70 158.17 114.21 157.04 114.74 155.92 C 113.45 152.62 109.87 151.51 107.07 149.86 C 101.63 146.68 95.56 144.91 89.97 142.08 C 87.39 142.48 84.75 142.52 82.21 143.15 C 80.06 144.22 78.54 146.20 76.50 147.45 C 72.54 149.53 68.09 150.38 63.66 150.62 C 65.86 153.99 69.95 156.21 70.60 160.45 C 71.17 162.65 71.48 164.91 71.96 167.13 C 74.96 163.80 76.59 158.38 81.86 158.23 C 81.81 155.96 81.92 153.69 82.17 151.44 C 84.87 152.48 83.53 155.72 83.85 157.88 C 85.66 157.55 87.47 157.18 89.26 156.76 C 88.91 157.32 88.22 158.46 87.87 159.02 C 85.35 159.82 82.85 160.77 80.19 160.90 C 82.73 161.76 85.21 162.80 87.61 164.01 C 89.35 167.55 93.13 169.63 93.94 173.70 C 91.49 174.45 91.42 171.33 90.29 169.94 C 87.66 165.60 81.60 161.95 76.72 164.88 C 71.72 167.08 66.74 170.23 64.15 175.23 C 62.22 178.85 58.46 181.25 57.21 185.26 C 56.24 188.42 56.31 191.76 56.07 195.02 C 54.78 207.67 54.32 220.37 53.92 233.06 C 53.68 234.67 53.94 236.52 52.78 237.83 C 50.67 240.33 48.82 243.05 46.52 245.39 C 43.42 248.51 41.67 253.16 37.12 254.55 C 36.99 256.12 36.88 257.69 36.78 259.27 C 42.59 259.48 50.32 262.03 54.49 256.58 C 57.12 254.15 59.38 251.25 62.52 249.46 C 63.96 248.59 65.25 247.50 66.43 246.31 C 64.83 242.74 64.92 238.73 64.65 234.90 C 64.22 229.09 66.36 223.56 67.40 217.93 C 67.77 215.49 69.44 213.50 69.77 211.06 C 70.25 207.49 69.83 203.88 69.13 200.38 C 69.94 200.28 71.07 200.01 71.34 201.10 C 73.49 206.81 71.43 212.86 70.44 218.58 C 68.48 223.49 66.91 228.56 66.15 233.81 C 66.18 238.98 68.92 244.59 66.20 249.49 C 61.60 253.09 57.67 257.52 52.99 261.00 C 47.53 263.70 41.35 262.11 36.02 259.96 C 32.44 258.50 35.02 253.83 37.16 252.15 C 43.59 248.21 46.48 240.86 51.55 235.54 C 54.47 225.16 51.28 214.30 54.03 203.94 C 54.63 200.26 53.47 196.52 54.32 192.84 C 55.03 189.55 53.58 185.69 55.88 182.87 C 57.08 181.23 58.14 179.34 60.07 178.47 C 62.34 174.99 64.28 170.65 68.45 169.15 C 70.17 164.09 67.58 158.53 64.17 154.77 C 62.12 152.44 58.77 153.38 56.10 153.60 C 50.83 154.07 45.83 155.89 41.07 158.10 C 37.09 159.83 34.94 163.83 31.78 166.58 C 29.74 168.87 26.32 170.54 26.08 173.93 C 26.64 177.76 26.96 181.61 27.30 185.46 C 27.41 188.64 30.23 190.90 30.29 194.08 C 30.69 198.19 30.56 202.52 32.43 206.31 C 34.14 209.46 34.26 213.23 33.50 216.67 C 32.22 219.13 30.00 220.86 28.04 222.75 C 25.59 225.09 24.21 228.39 21.41 230.40 C 18.43 231.64 14.75 232.83 13.64 236.25 C 14.02 238.01 16.15 237.61 17.44 237.34 C 20.30 236.56 23.25 236.99 26.17 236.80 C 28.57 235.89 30.35 233.83 32.77 232.95 C 36.72 231.80 40.87 233.30 44.85 232.34 C 46.89 231.68 47.84 229.80 48.47 227.91 C 45.89 222.24 44.11 216.23 43.03 210.11 C 42.18 205.41 43.31 200.68 42.93 195.97 C 42.60 191.08 41.52 186.26 39.82 181.67 C 40.17 180.83 40.52 179.99 40.87 179.15 C 46.72 177.58 52.57 175.89 58.70 175.99 C 58.27 176.86 57.85 177.72 57.42 178.59 C 52.46 178.61 47.30 178.71 42.86 181.24 C 43.11 184.23 43.83 187.15 44.47 190.08 C 45.38 195.64 43.50 201.34 44.85 206.86 C 45.35 209.05 45.27 211.34 45.72 213.54 C 47.02 217.03 49.19 220.21 49.85 223.93 C 50.07 226.18 50.06 228.46 50.45 230.70 C 48.21 232.31 46.10 234.74 43.10 234.61 C 39.09 234.59 34.89 233.95 31.40 236.42 C 30.53 237.45 29.75 238.83 28.19 238.75 C 23.19 239.17 18.06 239.79 13.08 238.85 C 11.82 237.93 10.79 236.75 9.66 235.68 C 11.77 233.33 14.06 230.89 17.06 229.71 C 21.75 228.32 24.28 223.77 27.89 220.82 C 30.56 218.84 31.86 215.32 31.38 212.07 C 30.62 207.48 29.70 202.91 28.47 198.42 C 27.55 194.22 27.16 189.88 25.43 185.90 C 27.04 180.99 23.56 176.00 25.40 171.18 C 27.36 166.61 32.58 165.23 35.65 161.64 C 40.76 155.88 48.23 152.50 55.78 151.54 C 55.74 151.21 55.64 150.53 55.59 150.20 C 57.13 149.98 58.66 149.75 60.19 149.54 C 60.79 148.67 61.34 147.77 61.84 146.84 C 62.25 147.23 63.07 148.01 63.49 148.40 C 65.94 147.94 68.43 147.78 70.92 147.90 C 70.94 147.42 70.99 146.46 71.01 145.98 C 71.03 146.54 71.07 147.66 71.09 148.22 C 72.74 147.36 74.38 146.46 76.05 145.61 C 77.22 142.96 80.12 142.03 82.22 140.28 C 82.91 135.95 85.70 132.27 86.47 127.93 C 85.59 124.56 84.27 121.09 84.82 117.57 C 85.90 113.72 88.28 110.05 87.70 105.90 C 88.15 104.88 88.60 103.87 89.06 102.86 C 86.45 102.45 83.81 102.38 81.19 102.10 C 78.62 101.07 75.71 100.33 73.84 98.15 C 71.05 95.23 69.64 91.20 66.42 88.66 C 63.81 87.29 61.18 85.95 58.76 84.24 C 56.37 80.90 53.58 77.76 52.23 73.81 C 51.40 71.27 49.11 68.62 50.73 65.92 C 53.33 69.45 54.58 73.66 55.96 77.76 C 56.46 79.54 57.95 80.72 59.50 81.57 C 64.08 84.18 67.96 87.78 72.03 91.07 C 73.43 91.97 73.54 93.72 73.93 95.17 C 76.10 96.93 78.20 99.16 81.12 99.55 C 84.38 99.90 87.57 100.99 90.86 100.95 C 91.14 100.70 91.68 100.21 91.95 99.96 C 91.59 97.27 91.07 94.60 91.02 91.88 C 91.63 91.02 92.22 90.14 92.77 89.25 C 91.67 88.63 90.55 88.02 89.43 87.43 L 90.02 89.21 C 87.34 86.94 84.50 84.88 81.51 83.03 C 81.19 82.25 80.55 80.68 80.23 79.90 C 82.54 81.02 84.72 82.47 87.17 83.31 C 91.12 83.27 95.13 82.27 99.03 83.31 C 102.95 84.21 104.99 88.47 109.18 88.79 C 108.18 87.39 107.14 86.04 106.04 84.72 C 105.26 82.21 104.69 79.38 106.06 76.96 C 103.81 75.63 101.30 73.95 101.01 71.09 C 100.30 66.74 104.59 64.14 107.10 61.31 C 103.56 58.71 99.27 57.08 94.94 56.44 C 90.80 56.01 89.52 60.82 87.94 63.71 C 89.48 65.28 90.17 67.26 90.57 69.37 C 93.12 71.22 96.43 70.91 99.34 71.72 C 99.57 72.16 100.02 73.03 100.24 73.46 C 95.92 72.80 90.74 72.92 87.63 69.34 C 85.96 64.83 86.49 59.54 89.71 55.84 C 96.07 54.88 103.02 55.81 108.22 59.81 C 110.96 56.73 113.37 53.22 117.04 51.15 C 120.63 49.20 123.35 46.11 126.01 43.08 C 129.10 39.56 133.19 37.08 136.20 33.48 C 138.23 31.06 140.27 28.61 142.87 26.77 M 120.69 70.47 C 121.89 72.10 123.06 73.75 124.31 75.34 C 125.01 76.40 125.74 77.45 126.49 78.48 C 126.92 80.07 127.30 81.68 127.57 83.30 C 128.60 84.63 129.65 85.93 130.75 87.20 C 130.93 85.24 130.84 83.25 131.20 81.31 C 132.33 78.45 135.33 76.62 135.61 73.39 C 137.06 68.62 134.46 63.88 131.09 60.66 C 127.29 63.57 124.06 67.10 120.69 70.47 M 108.35 78.65 C 107.89 79.38 107.42 80.10 106.95 80.82 C 107.35 82.20 107.76 83.57 108.13 84.96 C 110.18 86.90 112.56 88.46 114.66 90.35 C 116.48 92.69 116.61 95.86 117.01 98.69 C 121.01 102.93 125.61 106.61 130.94 109.04 C 131.85 111.04 132.70 113.08 133.28 115.20 C 129.73 113.65 128.09 109.85 124.84 107.86 C 121.64 109.75 119.19 112.58 116.83 115.40 C 116.88 114.67 116.97 113.20 117.02 112.47 C 119.11 110.48 120.95 108.25 123.02 106.24 C 122.23 105.63 120.65 104.40 119.86 103.78 C 119.80 104.48 119.68 105.87 119.62 106.57 C 115.32 107.72 111.60 110.41 107.21 111.23 C 110.46 108.84 114.44 107.69 118.06 105.96 C 118.36 104.98 118.71 104.02 119.08 103.06 C 113.78 100.06 113.48 93.25 109.95 88.76 C 108.80 89.46 107.66 90.16 106.53 90.87 C 102.60 88.35 99.04 84.25 94.02 84.35 C 92.20 84.68 88.58 83.33 89.23 86.82 C 90.29 87.07 91.35 87.32 92.41 87.58 C 94.01 89.01 93.11 90.81 92.48 92.46 C 94.27 97.75 92.88 103.66 95.91 108.62 C 94.92 108.47 93.94 108.33 92.95 108.17 C 92.74 106.25 92.56 104.33 92.35 102.41 C 89.04 105.18 92.44 110.59 88.76 113.11 C 88.77 113.78 88.79 115.11 88.80 115.78 L 87.37 115.61 C 87.52 117.39 87.68 119.16 87.86 120.94 C 88.34 123.15 88.54 125.41 88.79 127.66 C 87.44 130.11 87.20 132.92 87.30 135.67 C 86.40 136.44 85.50 137.19 84.57 137.91 C 84.62 138.36 84.70 139.27 84.75 139.72 C 86.08 139.82 87.40 139.92 88.74 140.02 C 89.87 139.54 91.09 139.34 92.28 139.02 C 92.66 137.10 93.54 135.35 94.65 133.76 C 92.84 129.41 93.03 124.55 94.43 120.11 C 93.63 117.76 95.04 115.92 96.57 114.32 C 95.34 114.09 94.18 113.65 93.17 112.92 C 94.80 112.43 96.53 111.99 98.01 113.12 C 101.47 112.90 104.68 115.15 105.23 118.64 C 109.28 120.70 110.92 125.49 111.22 129.75 C 111.77 129.64 112.87 129.43 113.42 129.32 C 112.29 132.58 108.52 132.95 106.72 135.64 C 106.12 134.70 105.56 133.73 105.03 132.75 C 105.52 132.76 106.52 132.77 107.02 132.77 C 107.49 131.84 111.26 131.04 109.81 130.10 L 109.25 129.75 C 108.67 127.88 109.12 125.86 109.14 123.94 C 108.85 123.46 108.29 122.49 108.01 122.00 C 106.57 121.49 105.01 121.23 103.74 120.36 C 102.54 118.73 102.15 116.62 100.77 115.12 C 98.09 113.38 96.98 117.11 96.15 118.91 C 96.70 119.72 97.24 120.52 97.78 121.33 C 96.74 122.01 95.71 122.70 94.68 123.39 C 94.74 124.93 94.80 126.48 94.85 128.02 C 96.59 131.74 94.94 135.98 93.49 139.52 C 92.68 139.97 91.86 140.41 91.05 140.87 C 93.97 142.23 96.99 143.40 99.88 144.84 C 100.75 143.69 101.63 142.55 102.48 141.38 C 102.99 141.23 104.02 140.92 104.53 140.76 C 105.58 139.14 106.88 137.70 108.34 136.44 C 109.02 136.29 110.37 135.98 111.04 135.83 C 112.12 135.28 113.24 134.79 114.44 134.57 C 113.03 136.85 110.52 137.86 108.51 139.44 C 106.50 141.95 103.79 143.68 101.25 145.57 C 105.55 148.93 111.75 149.04 115.30 153.46 C 116.34 151.89 117.46 150.28 117.78 148.38 C 120.10 143.78 121.91 138.92 124.23 134.33 C 128.94 129.35 133.71 124.06 136.16 117.54 C 137.25 112.85 138.07 107.98 140.41 103.70 C 139.65 101.42 138.81 99.17 138.09 96.88 C 135.54 95.09 132.97 93.33 130.18 91.93 C 129.18 89.66 127.84 87.56 126.19 85.71 C 123.99 83.57 124.93 80.15 123.36 77.72 C 122.07 75.93 120.32 74.56 118.71 73.08 C 115.42 75.15 112.67 79.20 108.35 78.65 M 131.31 87.22 C 131.73 87.90 131.73 87.90 131.31 87.22 Z" />
<path fill="#333333" opacity="1.00" d=" M 38.59 44.58 C 43.05 45.22 47.51 46.07 51.90 47.10 C 53.38 48.40 54.48 50.06 55.76 51.56 C 53.38 53.00 54.97 55.08 56.03 56.78 C 56.41 56.11 57.16 54.75 57.54 54.07 C 58.55 56.51 59.43 59.04 60.82 61.30 C 62.26 62.84 63.93 64.16 65.33 65.75 C 68.03 68.70 72.06 70.33 74.06 73.95 C 75.30 76.18 77.06 78.12 79.48 79.09 C 78.95 79.60 78.43 80.12 77.90 80.63 C 75.10 80.48 72.34 81.02 69.57 81.26 C 69.30 80.84 68.77 80.01 68.50 79.59 C 70.16 79.33 71.81 79.05 73.47 78.77 C 73.09 73.64 68.29 70.21 64.13 67.94 C 62.47 65.93 60.38 64.32 58.78 62.29 C 58.15 60.42 57.91 58.46 57.49 56.55 C 57.42 57.59 57.35 58.64 57.28 59.69 C 54.47 62.21 51.99 66.37 47.61 65.65 C 47.16 64.62 46.73 63.59 46.32 62.55 C 47.50 62.48 49.87 62.34 51.05 62.27 C 49.13 61.55 47.25 60.74 45.36 59.97 C 45.53 56.78 46.20 53.48 48.92 51.45 C 50.58 51.95 52.23 53.05 54.02 52.48 C 50.09 48.38 44.11 48.16 38.90 47.05 C 37.46 48.28 35.97 49.46 34.51 50.67 C 34.40 51.65 34.29 52.62 34.17 53.60 C 36.41 55.19 36.59 58.12 37.94 60.32 C 40.60 60.61 43.27 60.97 45.80 61.85 C 46.02 62.70 46.47 64.40 46.69 65.25 C 44.28 63.96 41.92 62.38 39.07 62.54 C 36.98 62.67 36.20 60.37 34.87 59.19 C 33.33 59.76 31.89 61.14 30.14 60.79 C 25.53 59.49 22.93 53.94 24.58 49.52 C 25.12 49.49 26.20 49.45 26.75 49.42 C 26.66 50.72 26.57 52.01 26.48 53.30 C 28.04 55.21 29.41 57.55 31.83 58.49 C 32.74 58.09 34.56 57.28 35.48 56.88 C 30.17 56.93 32.20 50.64 33.82 47.78 C 35.46 46.79 37.06 45.73 38.59 44.58 M 47.19 57.23 C 48.95 58.22 50.78 59.08 52.74 59.62 C 52.74 59.98 52.75 60.70 52.75 61.06 C 53.69 60.23 54.61 59.39 55.53 58.53 C 54.62 58.56 52.79 58.62 51.88 58.66 C 52.44 58.31 53.56 57.61 54.11 57.26 C 52.54 55.96 50.99 54.58 49.16 53.63 C 48.29 54.70 47.63 55.89 47.19 57.23 Z" />
<path fill="#333333" opacity="1.00" d=" M 135.98 57.12 C 141.53 57.67 146.71 59.94 152.21 60.77 C 155.97 61.06 159.18 64.16 159.39 67.96 C 159.33 72.52 160.41 77.26 158.78 81.67 C 153.91 94.47 149.05 107.28 143.65 119.87 C 142.93 121.70 141.84 123.35 140.69 124.94 C 139.26 130.39 136.69 135.45 134.89 140.78 C 136.54 152.17 136.00 163.72 136.74 175.17 C 137.71 184.24 137.14 193.37 137.62 202.47 C 137.96 202.86 138.66 203.65 139.01 204.04 C 134.67 205.72 130.07 206.61 125.82 208.54 C 119.24 209.95 112.82 212.02 106.24 213.43 C 106.22 208.11 109.59 203.79 111.09 198.90 C 112.41 195.09 112.88 190.98 114.95 187.45 C 112.67 187.55 110.38 187.57 108.10 187.58 C 106.58 194.10 104.77 200.80 100.89 206.35 C 100.11 209.86 99.00 213.61 96.60 216.33 C 91.80 217.38 87.47 213.99 83.06 212.69 C 82.34 212.85 80.91 213.19 80.20 213.35 C 79.64 212.93 79.08 212.50 78.54 212.07 C 79.41 211.74 81.15 211.10 82.02 210.78 C 83.19 210.76 84.36 210.75 85.54 210.74 C 88.87 212.38 92.04 214.93 95.95 214.76 C 97.66 210.77 99.95 207.04 100.93 202.75 C 102.47 200.10 101.13 197.15 101.34 194.31 C 101.76 194.91 101.98 197.55 103.01 196.45 C 104.04 193.51 105.03 190.53 106.41 187.72 C 101.73 187.13 96.94 186.74 92.39 185.65 C 88.42 187.95 84.48 190.44 79.89 191.31 C 76.29 191.95 73.97 195.01 70.93 196.73 C 70.35 197.90 69.72 199.05 69.06 200.17 C 68.07 196.89 68.30 193.44 69.28 190.21 C 69.66 190.02 70.42 189.64 70.80 189.45 C 70.73 190.61 70.60 192.93 70.53 194.09 C 72.78 191.93 75.41 190.23 78.48 189.53 C 83.43 188.32 87.42 185.08 91.81 182.70 C 92.10 180.58 92.22 178.44 92.23 176.31 C 92.86 175.48 93.50 174.67 94.16 173.87 C 95.12 176.87 94.74 180.04 94.52 183.12 C 96.34 181.05 98.37 179.01 101.12 178.27 C 104.01 177.46 106.59 175.45 109.70 175.61 C 111.41 175.13 113.59 172.86 115.20 174.11 C 115.28 177.63 110.56 177.50 108.15 178.60 C 104.72 180.21 100.71 180.73 97.83 183.34 C 103.61 185.26 109.87 185.67 115.83 184.42 C 117.04 183.47 117.97 182.23 118.95 181.07 C 118.90 179.75 118.85 178.44 118.80 177.12 C 117.99 176.20 116.73 175.46 116.84 174.06 C 117.03 173.71 117.42 173.01 117.61 172.66 C 118.10 174.22 119.04 175.30 120.43 175.92 C 120.48 177.34 120.53 178.76 120.57 180.19 C 119.18 182.92 117.72 185.70 115.30 187.69 C 115.63 191.52 114.16 195.11 112.70 198.56 C 110.88 202.60 109.66 206.88 108.14 211.03 C 113.18 210.10 118.11 208.65 123.01 207.16 C 127.40 205.45 131.89 203.79 136.65 203.50 C 136.38 198.67 135.39 193.89 135.58 189.04 C 135.68 186.04 135.74 183.04 135.33 180.06 C 134.30 172.45 135.07 164.72 133.94 157.11 C 133.91 152.65 132.99 148.07 134.09 143.70 C 133.32 144.51 132.46 145.21 131.51 145.79 C 133.14 137.84 137.13 130.80 140.70 123.63 C 142.34 117.10 146.10 111.40 147.91 104.92 C 149.15 99.93 151.94 95.53 153.37 90.60 C 155.03 84.82 158.35 79.29 157.91 73.09 C 157.37 70.63 157.23 68.03 156.24 65.70 C 155.20 63.14 152.31 62.32 149.89 61.68 C 145.57 60.59 141.41 58.54 136.86 58.70 C 136.64 58.30 136.20 57.51 135.98 57.12 Z" />
<path fill="#333333" opacity="1.00" d=" M 116.49 90.66 C 116.54 89.76 116.63 88.86 116.77 87.96 C 118.05 88.71 119.40 89.31 120.81 89.76 C 122.22 89.00 123.64 88.24 125.07 87.50 C 124.47 89.23 123.81 91.17 122.01 91.99 C 120.09 92.21 118.12 91.65 116.49 90.66 Z" />
<path fill="#333333" opacity="1.00" d=" M 103.01 107.83 C 104.22 103.03 106.35 98.33 110.18 95.05 C 110.33 95.67 110.63 96.90 110.78 97.51 C 107.38 100.85 106.21 105.58 104.47 109.86 L 105.77 110.15 L 105.31 111.40 C 107.01 111.88 108.70 112.40 110.41 112.88 C 110.67 113.29 111.20 114.12 111.47 114.53 C 111.88 114.71 112.71 115.06 113.13 115.24 C 113.33 116.03 113.75 117.60 113.96 118.38 C 111.86 116.77 109.60 115.41 107.39 113.95 C 105.98 113.09 104.65 112.08 103.71 110.70 C 103.31 109.80 102.40 108.89 103.01 107.83 Z" />
<path fill="#333333" opacity="1.00" d=" M 100.19 108.58 C 96.80 107.38 97.80 102.85 96.70 99.99 C 98.74 102.43 99.47 105.56 100.19 108.58 Z" />
<path fill="#333333" opacity="1.00" d=" M 133.16 100.75 C 136.16 103.52 134.37 108.00 136.04 111.43 C 132.41 109.76 133.23 104.18 133.16 100.75 Z" />
<path fill="#333333" opacity="1.00" d=" M 124.50 111.80 C 125.55 111.51 126.61 111.23 127.67 110.96 C 124.42 118.16 125.86 126.24 123.65 133.65 L 122.98 132.83 C 122.66 130.82 122.14 130.71 121.42 132.50 C 119.37 131.47 117.31 130.30 116.02 128.33 C 117.75 126.83 119.89 129.71 121.86 129.74 C 122.53 129.46 123.88 128.91 124.55 128.63 C 124.40 128.16 124.11 127.22 123.96 126.75 C 120.82 127.93 115.88 125.99 116.77 122.06 C 117.17 121.89 117.98 121.56 118.38 121.39 C 118.94 122.25 119.51 123.12 120.08 123.98 C 120.78 124.04 122.20 124.15 122.91 124.21 C 122.40 120.60 122.27 116.64 124.67 113.61 C 124.63 113.15 124.54 112.25 124.50 111.80 Z" />
<path fill="#333333" opacity="1.00" d=" M 90.16 117.83 C 88.45 114.61 92.46 113.87 94.69 114.72 C 93.17 115.75 91.68 116.82 90.16 117.83 Z" />
<path fill="#333333" opacity="1.00" d=" M 142.43 125.92 C 142.98 127.21 143.79 128.45 143.88 129.89 C 144.01 136.22 143.92 142.54 143.80 148.88 C 144.28 152.91 144.71 156.95 144.86 161.02 L 142.81 160.77 C 142.57 149.15 141.65 137.53 142.43 125.92 Z" />
<path fill="#333333" opacity="1.00" d=" M 121.00 135.27 C 120.21 134.15 121.76 132.42 122.98 132.83 C 123.33 133.89 122.27 135.86 121.00 135.27 Z" />
<path fill="#333333" opacity="1.00" d=" M 143.15 160.99 L 145.20 161.23 C 145.23 164.99 145.24 168.76 145.58 172.51 C 145.06 173.43 144.52 174.35 143.98 175.27 C 143.60 170.51 143.50 165.74 143.15 160.99 Z" />
<path fill="#333333" opacity="1.00" d=" M 143.27 181.03 C 142.86 178.79 144.22 176.88 145.36 175.11 C 146.36 178.40 144.93 181.78 145.47 185.13 C 146.28 192.77 146.23 200.53 147.85 208.07 C 148.33 210.03 147.64 212.00 147.37 213.94 C 135.87 217.04 124.31 219.94 113.32 224.67 C 115.72 225.13 118.02 225.97 120.30 226.84 C 120.32 229.27 120.31 231.70 120.29 234.13 C 117.22 235.04 114.21 236.22 111.03 236.71 C 105.37 234.50 100.08 231.36 94.83 228.30 C 88.18 225.93 81.63 223.21 75.32 220.03 C 75.76 217.35 75.67 214.55 76.74 212.01 C 77.37 214.09 77.69 216.24 77.85 218.40 C 82.65 220.77 87.53 223.02 92.19 225.69 C 98.89 227.75 104.41 232.35 110.97 234.75 C 113.58 234.57 116.04 233.57 118.57 232.99 C 118.62 231.33 118.63 229.66 118.62 228.01 C 115.07 226.71 111.55 225.04 107.69 225.07 C 107.60 224.73 107.42 224.04 107.33 223.70 C 110.97 222.56 114.83 222.07 118.21 220.21 C 127.29 216.38 136.93 214.18 146.46 211.76 C 144.82 201.59 144.27 191.28 143.27 181.03 Z" />
</g>
</svg>
