<?xml version="1.0" encoding="UTF-8" ?>
<!DOCTYPE svg PUBLIC "-//W3C//DTD SVG 1.1//EN" "http://www.w3.org/Graphics/SVG/1.1/DTD/svg11.dtd">
<svg width="167pt" height="300pt" viewBox="0 0 167 300" version="1.1" xmlns="http://www.w3.org/2000/svg">
<g id="#ffffffff">
<path fill="#FFFFFF" opacity="1.00" d=" M 0.00 0.00 L 167.00 0.00 L 167.00 13.72 C 156.66 15.59 146.33 17.43 135.93 18.95 C 119.39 22.18 102.68 24.40 86.12 27.56 C 75.39 29.44 64.54 30.77 53.96 33.41 C 35.91 35.96 18.06 39.79 0.00 42.26 L 0.00 0.00 Z" />
<path fill="#FFFFFF" opacity="1.00" d=" M 112.82 24.67 C 130.84 21.35 148.96 18.64 167.00 15.41 L 167.00 17.71 C 146.76 21.63 126.30 24.29 106.11 28.51 C 97.19 29.08 88.56 31.63 79.70 32.61 C 78.42 34.17 76.79 35.40 74.65 35.41 C 76.07 34.56 77.50 33.74 78.89 32.85 C 77.11 33.42 75.35 34.04 73.59 34.64 C 70.81 39.56 70.00 45.47 66.53 49.97 C 67.15 44.24 70.32 39.33 72.16 33.98 C 67.91 34.77 63.56 35.13 59.47 36.58 C 55.95 38.01 52.10 38.08 48.38 38.60 C 39.31 39.31 30.48 41.66 21.49 42.93 C 14.30 43.95 7.21 45.58 0.00 46.40 L 0.00 44.27 C 16.03 41.99 31.79 38.10 47.89 36.30 C 52.99 35.57 57.91 33.90 63.03 33.26 C 76.04 31.39 88.83 28.18 101.89 26.69 C 105.58 26.28 109.21 25.51 112.82 24.67 Z" />
<path fill="#FFFFFF" opacity="1.00" d=" M 123.92 26.85 C 138.24 24.13 152.69 22.20 167.00 19.44 L 167.00 300.00 L 0.00 300.00 L 0.00 48.42 C 14.09 46.12 28.10 43.37 42.18 40.99 C 51.75 40.28 60.91 37.22 70.42 36.11 C 68.53 39.69 66.82 43.36 65.34 47.14 C 64.12 50.45 61.14 53.19 61.34 56.93 C 61.25 60.15 62.55 63.61 60.98 66.65 C 59.63 69.31 58.11 71.88 56.56 74.42 C 53.98 78.72 49.78 81.93 47.96 86.71 C 46.11 91.58 45.91 96.88 45.57 102.02 C 45.32 105.35 49.16 107.13 52.02 106.62 C 55.77 106.17 60.42 106.82 62.79 103.20 C 62.41 104.64 61.55 106.13 62.17 107.63 C 64.02 112.98 65.43 118.47 66.14 124.10 C 65.07 126.27 63.70 128.52 64.22 131.05 C 65.13 136.13 63.04 141.02 62.64 146.03 C 62.14 152.65 58.38 158.45 57.52 165.00 C 56.81 166.86 58.14 168.35 59.06 169.83 C 55.95 176.53 54.52 184.35 56.61 191.57 C 58.05 196.46 56.21 202.24 59.44 206.54 C 63.06 209.35 67.51 211.19 72.12 211.47 C 78.75 215.40 86.65 214.19 93.88 215.93 C 93.72 220.31 94.06 224.68 94.16 229.05 C 94.51 233.21 90.96 236.82 92.25 240.99 C 93.03 244.13 93.88 247.47 96.02 249.98 C 98.57 251.45 101.88 250.97 104.04 249.02 C 107.73 246.63 108.82 242.19 110.15 238.30 C 114.23 236.02 118.92 233.15 119.70 228.10 C 120.60 225.27 119.61 222.43 118.59 219.80 C 119.99 213.81 121.82 206.79 117.69 201.43 C 116.10 200.87 114.51 200.31 112.93 199.75 C 111.12 200.20 109.32 200.65 107.51 201.12 C 107.53 191.81 107.24 182.50 108.16 173.22 C 107.66 167.49 107.45 161.64 105.57 156.14 C 104.09 152.14 105.44 147.96 105.68 143.88 C 105.92 140.48 104.67 137.22 103.30 134.17 C 103.30 133.10 103.30 132.02 103.30 130.95 C 102.21 129.12 101.23 127.23 100.32 125.31 C 100.59 124.77 101.12 123.67 101.38 123.12 C 100.74 118.34 102.72 113.78 103.07 109.06 C 102.42 109.36 101.10 109.95 100.45 110.25 C 100.21 115.43 100.11 120.86 97.40 125.47 C 91.56 126.79 85.83 129.27 79.74 128.94 C 79.57 128.27 79.23 126.93 79.06 126.26 C 78.92 126.76 78.64 127.77 78.50 128.27 C 77.25 127.72 75.99 127.17 74.74 126.62 C 72.37 120.22 69.96 113.85 67.65 107.43 C 69.98 106.76 73.34 107.45 74.68 104.95 C 71.04 104.26 67.12 104.01 64.66 100.84 C 65.52 98.92 66.34 96.99 67.07 95.03 C 69.55 97.23 72.74 97.87 75.96 97.49 C 77.28 97.69 78.60 97.93 79.94 97.98 C 81.57 97.15 82.51 95.49 83.66 94.13 C 81.51 94.23 79.06 96.40 77.08 94.96 C 75.56 92.47 74.72 89.58 72.66 87.42 C 72.70 90.41 73.25 93.37 74.24 96.19 C 72.14 95.38 70.04 94.55 68.01 93.59 C 68.98 91.06 70.04 88.56 70.88 85.99 C 67.92 88.08 66.34 91.45 66.46 95.05 C 63.46 98.57 61.30 104.21 56.05 104.58 C 53.01 104.86 48.95 106.15 47.05 102.88 C 47.36 99.79 47.95 96.68 48.94 93.73 C 51.84 89.44 55.31 85.51 59.50 82.43 C 62.25 79.02 62.61 74.18 65.75 70.98 C 68.66 66.71 74.41 66.24 79.00 67.53 C 82.15 68.66 84.99 66.42 87.97 65.73 C 87.94 65.97 87.87 66.44 87.84 66.67 C 85.74 67.10 83.97 68.32 82.32 69.62 C 86.15 69.05 89.95 68.18 93.85 68.39 C 96.72 68.66 98.45 66.04 99.91 64.01 C 96.84 65.43 93.62 66.54 90.17 66.33 C 89.74 66.02 89.30 65.70 88.87 65.39 C 90.82 63.65 92.24 61.44 93.57 59.22 C 94.22 59.66 95.52 60.54 96.17 60.98 C 93.93 57.55 90.14 53.70 92.01 49.27 C 94.02 45.77 96.68 42.19 100.64 40.80 C 104.92 39.19 109.51 37.70 114.14 38.32 C 117.92 41.15 120.21 45.62 121.48 50.10 C 122.20 53.98 122.03 59.02 117.90 60.92 C 112.92 64.64 106.81 62.57 101.19 62.92 C 103.18 63.82 105.23 64.61 107.28 65.37 C 106.83 67.48 106.49 69.62 106.30 71.77 C 107.98 70.02 109.02 67.82 109.79 65.54 C 112.22 65.25 114.69 65.20 117.12 65.60 C 117.82 65.84 119.23 66.31 119.94 66.54 L 117.49 64.71 C 119.24 62.75 121.29 60.99 122.69 58.74 C 124.22 55.00 124.75 50.62 123.08 46.82 C 121.10 42.06 117.62 36.78 111.98 36.33 C 107.70 36.42 103.49 37.72 99.51 39.24 C 94.51 41.09 91.71 45.91 88.92 50.12 C 86.93 45.89 85.17 41.56 83.53 37.19 C 81.74 37.78 79.93 38.34 78.11 38.85 C 78.75 37.46 79.41 36.08 80.08 34.71 C 81.23 35.22 82.38 35.73 83.53 36.24 C 83.48 35.54 83.37 34.15 83.32 33.45 C 96.90 31.61 110.41 29.19 123.92 26.85 M 118.52 68.02 C 120.35 70.91 119.19 74.32 118.42 77.34 C 117.67 79.24 116.60 82.02 114.01 81.22 C 113.60 83.40 113.47 85.65 112.70 87.74 C 111.82 89.37 110.36 90.58 109.37 92.13 C 108.85 94.18 108.81 96.52 107.18 98.09 C 105.51 100.27 102.68 101.49 101.53 104.04 C 101.44 105.23 101.28 107.62 101.20 108.82 C 104.12 109.32 103.66 106.23 103.38 104.26 C 107.31 101.10 111.11 97.25 112.18 92.12 C 113.58 90.21 114.81 88.16 115.58 85.91 C 116.53 82.38 120.24 80.43 121.09 76.86 C 121.62 73.40 122.77 69.45 120.31 66.43 C 119.70 66.95 119.10 67.48 118.52 68.02 M 114.63 75.46 C 112.81 77.79 110.26 79.79 110.00 82.96 C 109.77 85.69 107.86 87.67 105.88 89.35 C 104.59 92.33 103.03 95.25 100.70 97.55 C 98.67 99.80 95.67 101.46 95.03 104.66 C 98.56 102.43 102.35 100.19 104.64 96.57 C 106.62 93.84 107.42 90.36 109.93 87.99 C 111.86 86.27 111.93 83.61 112.43 81.26 C 113.72 78.45 117.01 76.95 117.89 73.88 C 118.25 72.18 118.28 70.43 118.47 68.71 C 117.78 68.42 116.40 67.86 115.70 67.58 C 114.91 70.14 116.55 73.21 114.63 75.46 M 102.70 71.57 C 102.94 75.68 104.50 79.91 103.11 83.97 C 102.52 86.66 100.82 88.88 99.16 91.01 C 94.37 96.99 90.96 104.02 85.22 109.19 C 86.45 109.69 87.67 110.22 88.87 110.79 C 87.97 115.40 86.57 120.98 89.64 125.07 C 89.78 119.68 90.21 114.32 91.06 109.00 C 90.26 109.09 88.66 109.29 87.86 109.39 C 89.28 108.29 90.67 107.16 92.02 105.99 C 92.02 105.31 92.03 103.96 92.03 103.28 C 95.95 100.30 97.79 95.62 101.00 92.01 C 103.16 89.51 104.83 86.55 105.43 83.26 C 106.66 79.23 105.00 75.16 104.53 71.15 C 104.08 71.25 103.16 71.46 102.70 71.57 M 80.23 74.88 C 80.17 75.61 80.06 77.09 80.00 77.82 C 82.82 81.01 86.49 84.07 90.88 84.45 C 91.09 83.88 91.52 82.75 91.73 82.18 C 86.48 82.79 83.22 78.39 80.23 74.88 M 70.93 84.78 C 73.61 88.86 81.12 88.81 82.55 83.64 C 78.87 85.44 74.90 85.72 70.93 84.78 M 84.12 93.98 C 84.18 97.56 84.72 101.38 86.49 104.57 C 86.54 101.39 86.19 98.23 86.13 95.05 C 88.10 92.21 91.85 88.66 88.53 85.29 C 86.73 88.00 85.35 90.98 84.12 93.98 M 95.70 105.31 C 96.01 107.51 98.26 107.33 99.93 107.55 C 99.39 105.58 97.35 105.57 95.70 105.31 M 73.48 109.65 C 73.11 110.99 75.16 110.45 75.88 110.78 C 77.86 110.99 77.87 108.60 78.63 107.41 C 76.88 108.07 75.08 108.67 73.48 109.65 M 82.34 108.32 C 80.30 110.59 78.16 112.74 75.97 114.85 C 78.74 114.66 81.37 113.21 83.06 111.01 C 83.78 109.85 84.75 106.94 82.34 108.32 M 80.34 124.42 C 80.80 122.86 81.18 121.28 81.47 119.68 C 79.33 120.52 79.80 122.69 80.34 124.42 Z" />
<path fill="#FFFFFF" opacity="1.00" d=" M 70.57 47.46 C 71.77 43.55 72.75 39.32 75.91 36.45 C 76.10 40.41 75.18 44.27 74.57 48.15 C 73.24 47.91 71.91 47.68 70.57 47.46 Z" />
<path fill="#FFFFFF" opacity="1.00" d=" M 81.36 40.52 C 81.77 39.99 82.59 38.94 82.99 38.41 C 84.86 44.64 87.09 50.75 89.01 56.96 L 87.87 57.71 C 85.69 55.48 85.51 52.20 84.58 49.37 C 83.85 46.30 82.36 43.50 81.36 40.52 Z" />
<path fill="#FFFFFF" opacity="1.00" d=" M 74.90 52.97 C 76.16 48.47 76.32 43.68 78.16 39.34 C 79.75 42.42 78.13 45.73 77.79 48.91 C 77.06 52.21 77.21 55.75 75.78 58.87 C 75.24 58.92 74.15 59.04 73.61 59.10 C 73.64 56.99 74.42 55.00 74.90 52.97 Z" />
<path fill="#FFFFFF" opacity="1.00" d=" M 77.63 59.70 C 79.57 55.26 79.20 50.24 80.82 45.70 C 83.06 49.39 83.82 53.66 85.07 57.72 C 86.01 58.56 87.06 59.82 88.46 59.70 C 89.84 58.88 90.90 57.53 92.56 57.23 C 91.40 59.17 90.15 61.08 88.64 62.76 C 86.23 63.79 83.74 64.60 81.36 65.68 C 77.38 63.36 72.17 63.84 68.46 66.46 C 64.62 69.37 61.72 73.46 60.32 78.07 C 59.71 80.93 56.79 82.02 54.85 83.82 C 52.29 85.87 51.10 89.04 49.04 91.52 C 49.42 83.45 57.40 79.27 60.02 72.20 C 60.86 69.58 62.84 67.47 63.50 64.81 C 63.55 60.92 62.43 56.87 63.94 53.12 C 66.43 50.35 70.36 49.99 73.81 49.40 C 73.66 52.85 73.33 56.34 72.24 59.65 C 72.76 60.38 73.29 61.11 73.82 61.84 C 75.10 61.16 76.46 60.58 77.63 59.70 Z" />
<path fill="#FFFFFF" opacity="1.00" d=" M 64.35 103.80 C 67.55 111.55 67.92 120.70 73.91 127.11 C 72.15 127.19 70.38 127.29 68.62 127.42 C 67.82 121.22 66.75 115.04 64.92 109.06 C 64.34 107.37 64.34 105.56 64.35 103.80 Z" />
<path fill="#FFFFFF" opacity="1.00" d=" M 66.75 126.78 C 72.17 129.14 78.06 130.56 84.00 130.39 C 89.00 130.75 93.54 128.17 98.45 127.70 C 99.19 129.15 99.97 130.58 100.82 131.96 C 100.86 132.58 100.94 133.82 100.98 134.44 C 103.99 138.32 103.11 143.60 102.67 148.13 C 101.99 153.63 102.35 160.12 106.84 164.03 C 104.14 166.20 101.75 168.93 98.48 170.26 C 96.10 171.03 93.62 171.43 91.18 171.93 C 89.93 170.92 88.57 169.72 87.00 171.04 C 86.44 170.75 85.89 170.44 85.35 170.14 C 82.34 171.62 79.37 173.41 75.99 173.85 C 70.44 174.32 64.47 172.53 60.61 168.42 C 59.28 167.15 60.11 165.34 60.30 163.82 C 61.11 159.32 63.49 155.31 64.39 150.83 C 65.44 146.70 65.04 142.39 65.52 138.20 C 66.45 136.45 67.56 134.80 68.52 133.07 C 73.52 134.80 78.96 135.06 84.06 133.63 C 86.93 133.10 90.81 131.35 92.89 134.32 C 94.67 133.43 96.59 132.88 98.44 132.16 C 98.24 131.74 97.84 130.90 97.64 130.48 C 92.12 131.83 86.46 132.54 80.84 133.32 C 77.25 133.27 73.70 132.47 70.10 132.37 C 69.09 131.44 68.03 130.56 66.99 129.68 C 66.93 128.96 66.81 127.51 66.75 126.78 M 73.68 145.11 C 75.20 147.47 77.25 149.41 79.53 151.04 C 79.48 150.58 79.40 149.67 79.35 149.21 C 77.42 147.90 75.58 146.45 73.68 145.11 M 86.25 159.18 C 85.33 161.43 85.71 163.99 85.51 166.38 C 85.98 166.40 86.91 166.44 87.38 166.46 C 87.63 164.09 87.34 161.54 88.36 159.33 C 89.96 157.03 92.25 155.03 92.61 152.08 C 90.06 154.00 88.03 156.55 86.25 159.18 M 74.73 157.49 C 76.42 159.64 78.93 160.61 81.59 160.86 C 81.62 160.35 81.68 159.32 81.71 158.81 C 79.37 158.41 77.06 157.92 74.73 157.49 Z" />
<path fill="#FFFFFF" opacity="1.00" d=" M 85.52 172.24 C 91.93 176.02 99.96 173.01 105.57 169.09 C 105.75 178.74 105.86 188.49 104.35 198.05 C 104.68 199.32 105.11 200.57 105.64 201.79 C 101.26 202.88 96.95 201.22 92.84 199.88 C 92.95 194.73 94.51 188.98 91.34 184.41 C 89.10 180.48 88.67 175.66 85.52 172.24 Z" />
<path fill="#FFFFFF" opacity="1.00" d=" M 59.30 191.95 C 57.61 185.22 57.57 177.68 60.72 171.37 C 65.37 176.08 72.16 177.24 78.51 176.75 C 76.79 180.41 74.45 183.81 71.35 186.43 C 70.78 186.47 69.65 186.54 69.08 186.58 C 67.38 189.32 66.65 192.47 66.59 195.67 C 66.95 195.68 67.67 195.68 68.03 195.68 C 68.62 192.57 69.19 189.40 70.74 186.59 C 70.98 187.14 71.46 188.26 71.69 188.81 C 72.70 187.66 73.71 186.50 74.72 185.35 C 74.01 188.56 73.69 191.84 73.50 195.12 C 77.71 196.07 81.99 196.85 86.12 198.14 C 88.60 198.85 90.25 200.97 92.46 202.17 C 97.01 204.14 102.29 205.18 107.10 203.46 C 109.20 203.02 111.37 201.51 113.54 202.46 C 115.63 203.17 117.02 205.12 118.01 206.99 C 118.53 211.06 116.76 214.96 115.84 218.85 C 117.40 222.43 117.87 226.43 116.70 230.20 C 114.43 232.47 112.36 234.94 110.00 237.12 C 109.86 233.60 109.94 229.92 108.21 226.73 C 105.44 222.36 110.22 215.92 105.41 212.58 C 101.99 209.88 97.69 211.69 94.28 213.36 C 89.05 211.61 83.46 212.21 78.11 211.19 C 74.05 210.13 70.72 207.41 67.23 205.21 C 67.83 206.51 68.44 207.82 69.05 209.13 C 66.09 207.16 61.42 206.95 60.00 203.23 C 57.95 199.76 60.28 195.67 59.30 191.95 Z" />
<path fill="#FFFFFF" opacity="1.00" d=" M 84.27 172.23 C 86.52 175.65 86.95 179.84 88.74 183.47 C 90.80 187.61 89.91 192.35 90.32 196.78 C 85.57 194.67 80.36 193.80 75.19 193.61 C 75.38 193.19 75.75 192.35 75.94 191.92 C 76.22 189.08 76.67 186.24 76.74 183.38 C 79.15 179.57 81.50 175.77 84.27 172.23 Z" />
<path fill="#FFFFFF" opacity="1.00" d=" M 96.24 215.05 C 98.45 214.22 100.85 212.48 103.24 213.78 C 105.13 214.31 105.81 216.31 106.80 217.77 C 104.29 220.75 105.03 225.06 106.32 228.42 C 108.13 233.14 107.56 238.41 105.81 243.05 C 104.62 246.90 100.32 250.42 96.34 248.02 C 95.51 244.71 94.30 241.42 94.33 237.98 C 94.89 234.92 96.82 232.17 96.68 228.97 C 96.72 224.32 96.14 219.70 96.24 215.05 Z" />
</g>
<g id="#484947ff">
<path fill="#333333" opacity="1.00" d=" M 135.93 18.95 C 146.33 17.43 156.66 15.59 167.00 13.72 L 167.00 15.41 C 148.96 18.64 130.84 21.35 112.82 24.67 C 109.21 25.51 105.58 26.28 101.89 26.69 C 88.83 28.18 76.04 31.39 63.03 33.26 C 57.91 33.90 52.99 35.57 47.89 36.30 C 31.79 38.10 16.03 41.99 0.00 44.27 L 0.00 42.26 C 18.06 39.79 35.91 35.96 53.96 33.41 C 64.54 30.77 75.39 29.44 86.12 27.56 C 102.68 24.40 119.39 22.18 135.93 18.95 Z" />
<path fill="#333333" opacity="1.00" d=" M 106.11 28.51 C 126.30 24.29 146.76 21.63 167.00 17.71 L 167.00 19.44 C 152.69 22.20 138.24 24.13 123.92 26.85 C 110.41 29.19 96.90 31.61 83.32 33.45 C 83.37 34.15 83.48 35.54 83.53 36.24 C 82.38 35.73 81.23 35.22 80.08 34.71 C 79.41 36.08 78.75 37.46 78.11 38.85 C 79.93 38.34 81.74 37.78 83.53 37.19 C 85.17 41.56 86.93 45.89 88.92 50.12 C 91.71 45.91 94.51 41.09 99.51 39.24 C 103.49 37.72 107.70 36.42 111.98 36.33 C 117.62 36.78 121.10 42.06 123.08 46.82 C 124.75 50.62 124.22 55.00 122.69 58.74 C 121.29 60.99 119.24 62.75 117.49 64.71 L 119.94 66.54 C 119.23 66.31 117.82 65.84 117.12 65.60 C 114.69 65.20 112.22 65.25 109.79 65.54 C 109.02 67.82 107.98 70.02 106.30 71.77 C 106.49 69.62 106.83 67.48 107.28 65.37 C 105.23 64.61 103.18 63.82 101.19 62.92 C 106.81 62.57 112.92 64.64 117.90 60.92 C 122.03 59.02 122.20 53.98 121.48 50.10 C 120.21 45.62 117.92 41.15 114.14 38.32 C 109.51 37.70 104.92 39.19 100.64 40.80 C 96.68 42.19 94.02 45.77 92.01 49.27 C 90.14 53.70 93.93 57.55 96.17 60.98 C 95.52 60.54 94.22 59.66 93.57 59.22 C 92.24 61.44 90.82 63.65 88.87 65.39 C 89.30 65.70 89.74 66.02 90.17 66.33 C 93.62 66.54 96.84 65.43 99.91 64.01 C 98.45 66.04 96.72 68.66 93.85 68.39 C 89.95 68.18 86.15 69.05 82.32 69.62 C 83.97 68.32 85.74 67.10 87.84 66.67 C 87.87 66.44 87.94 65.97 87.97 65.73 C 84.99 66.42 82.15 68.66 79.00 67.53 C 74.41 66.24 68.66 66.71 65.75 70.98 C 62.61 74.18 62.25 79.02 59.50 82.43 C 55.31 85.51 51.84 89.44 48.94 93.73 C 47.95 96.68 47.36 99.79 47.05 102.88 C 48.95 106.15 53.01 104.86 56.05 104.58 C 61.30 104.21 63.46 98.57 66.46 95.05 C 66.34 91.45 67.92 88.08 70.88 85.99 C 70.04 88.56 68.98 91.06 68.01 93.59 C 70.04 94.55 72.14 95.38 74.24 96.19 C 73.25 93.37 72.70 90.41 72.66 87.42 C 74.72 89.58 75.56 92.47 77.08 94.96 C 79.06 96.40 81.51 94.23 83.66 94.13 C 82.51 95.49 81.57 97.15 79.94 97.98 C 78.60 97.93 77.28 97.69 75.96 97.49 C 72.74 97.87 69.55 97.23 67.07 95.03 C 66.34 96.99 65.52 98.92 64.66 100.84 C 67.12 104.01 71.04 104.26 74.68 104.95 C 73.34 107.45 69.98 106.76 67.65 107.43 C 69.96 113.85 72.37 120.22 74.74 126.62 C 75.99 127.17 77.25 127.72 78.50 128.27 C 78.64 127.77 78.92 126.76 79.06 126.26 C 79.23 126.93 79.57 128.27 79.74 128.94 C 85.83 129.27 91.56 126.79 97.40 125.47 C 100.11 120.86 100.21 115.43 100.45 110.25 C 101.10 109.95 102.42 109.36 103.07 109.06 C 102.72 113.78 100.74 118.34 101.38 123.12 C 101.12 123.67 100.59 124.77 100.32 125.31 C 101.23 127.23 102.21 129.12 103.30 130.95 C 103.30 132.02 103.30 133.10 103.30 134.17 C 104.67 137.22 105.92 140.48 105.68 143.88 C 105.44 147.96 104.09 152.14 105.57 156.14 C 107.45 161.64 107.66 167.49 108.16 173.22 C 107.24 182.50 107.53 191.81 107.51 201.12 C 109.32 200.65 111.12 200.20 112.93 199.75 C 114.51 200.31 116.10 200.87 117.69 201.43 C 121.82 206.79 119.99 213.81 118.59 219.80 C 119.61 222.43 120.60 225.27 119.70 228.10 C 118.92 233.15 114.23 236.02 110.15 238.30 C 108.82 242.19 107.73 246.63 104.04 249.02 C 101.88 250.97 98.57 251.45 96.02 249.98 C 93.88 247.47 93.03 244.13 92.25 240.99 C 90.96 236.82 94.51 233.21 94.16 229.05 C 94.06 224.68 93.72 220.31 93.88 215.93 C 86.65 214.19 78.75 215.40 72.12 211.47 C 67.51 211.19 63.06 209.35 59.44 206.54 C 56.21 202.24 58.05 196.46 56.61 191.57 C 54.52 184.35 55.95 176.53 59.06 169.83 C 58.14 168.35 56.81 166.86 57.52 165.00 C 58.38 158.45 62.14 152.65 62.64 146.03 C 63.04 141.02 65.13 136.13 64.22 131.05 C 63.70 128.52 65.07 126.27 66.14 124.10 C 65.43 118.47 64.02 112.98 62.17 107.63 C 61.55 106.13 62.41 104.64 62.79 103.20 C 60.42 106.82 55.77 106.17 52.02 106.62 C 49.16 107.13 45.32 105.35 45.57 102.02 C 45.91 96.88 46.11 91.58 47.96 86.71 C 49.78 81.93 53.98 78.72 56.56 74.42 C 58.11 71.88 59.63 69.31 60.98 66.65 C 62.55 63.61 61.25 60.15 61.34 56.93 C 61.14 53.19 64.12 50.45 65.34 47.14 C 66.82 43.36 68.53 39.69 70.42 36.11 C 60.91 37.22 51.75 40.28 42.18 40.99 C 28.10 43.37 14.09 46.12 0.00 48.42 L 0.00 46.40 C 7.21 45.58 14.30 43.95 21.49 42.93 C 30.48 41.66 39.31 39.31 48.38 38.60 C 52.10 38.08 55.95 38.01 59.47 36.58 C 63.56 35.13 67.91 34.77 72.16 33.98 C 70.32 39.33 67.15 44.24 66.53 49.97 C 70.00 45.47 70.81 39.56 73.59 34.64 C 75.35 34.04 77.11 33.42 78.89 32.85 C 77.50 33.74 76.07 34.56 74.65 35.41 C 76.79 35.40 78.42 34.17 79.70 32.61 C 88.56 31.63 97.19 29.08 106.11 28.51 M 70.57 47.46 C 71.91 47.68 73.24 47.91 74.57 48.15 C 75.18 44.27 76.10 40.41 75.91 36.45 C 72.75 39.32 71.77 43.55 70.57 47.46 M 81.36 40.52 C 82.36 43.50 83.85 46.30 84.58 49.37 C 85.51 52.20 85.69 55.48 87.87 57.71 L 89.01 56.96 C 87.09 50.75 84.86 44.64 82.99 38.41 C 82.59 38.94 81.77 39.99 81.36 40.52 M 74.90 52.97 C 74.42 55.00 73.64 56.99 73.61 59.10 C 74.15 59.04 75.24 58.92 75.78 58.87 C 77.21 55.75 77.06 52.21 77.79 48.91 C 78.13 45.73 79.75 42.42 78.16 39.34 C 76.32 43.68 76.16 48.47 74.90 52.97 M 77.63 59.70 C 76.46 60.58 75.10 61.16 73.82 61.84 C 73.29 61.11 72.76 60.38 72.24 59.65 C 73.33 56.34 73.66 52.85 73.81 49.40 C 70.36 49.99 66.43 50.35 63.94 53.12 C 62.43 56.87 63.55 60.92 63.50 64.81 C 62.84 67.47 60.86 69.58 60.02 72.20 C 57.40 79.27 49.42 83.45 49.04 91.52 C 51.10 89.04 52.29 85.87 54.85 83.82 C 56.79 82.02 59.71 80.93 60.32 78.07 C 61.72 73.46 64.62 69.37 68.46 66.46 C 72.17 63.84 77.38 63.36 81.36 65.68 C 83.74 64.60 86.23 63.79 88.64 62.76 C 90.15 61.08 91.40 59.17 92.56 57.23 C 90.90 57.53 89.84 58.88 88.46 59.70 C 87.06 59.82 86.01 58.56 85.07 57.72 C 83.82 53.66 83.06 49.39 80.82 45.70 C 79.20 50.24 79.57 55.26 77.63 59.70 M 64.35 103.80 C 64.34 105.56 64.34 107.37 64.92 109.06 C 66.75 115.04 67.82 121.22 68.62 127.42 C 70.38 127.29 72.15 127.19 73.91 127.11 C 67.92 120.70 67.55 111.55 64.35 103.80 M 66.75 126.78 C 66.81 127.51 66.93 128.96 66.99 129.68 C 68.03 130.56 69.09 131.44 70.10 132.37 C 73.70 132.47 77.25 133.27 80.84 133.32 C 86.46 132.54 92.12 131.83 97.64 130.48 C 97.84 130.90 98.24 131.74 98.44 132.16 C 96.59 132.88 94.67 133.43 92.89 134.32 C 90.81 131.35 86.93 133.10 84.06 133.63 C 78.96 135.06 73.52 134.80 68.52 133.07 C 67.56 134.80 66.45 136.45 65.52 138.20 C 65.04 142.39 65.44 146.70 64.39 150.83 C 63.49 155.31 61.11 159.32 60.30 163.82 C 60.11 165.34 59.28 167.15 60.61 168.42 C 64.47 172.53 70.44 174.32 75.99 173.85 C 79.37 173.41 82.34 171.62 85.35 170.14 C 85.89 170.44 86.44 170.75 87.00 171.04 C 88.57 169.72 89.93 170.92 91.18 171.93 C 93.62 171.43 96.10 171.03 98.48 170.26 C 101.75 168.93 104.14 166.20 106.84 164.03 C 102.35 160.12 101.99 153.63 102.67 148.13 C 103.11 143.60 103.99 138.32 100.98 134.44 C 100.94 133.82 100.86 132.58 100.82 131.96 C 99.97 130.58 99.19 129.15 98.45 127.70 C 93.54 128.17 89.00 130.75 84.00 130.39 C 78.06 130.56 72.17 129.14 66.75 126.78 M 85.52 172.24 C 88.67 175.66 89.10 180.48 91.34 184.41 C 94.51 188.98 92.95 194.73 92.84 199.88 C 96.95 201.22 101.26 202.88 105.64 201.79 C 105.11 200.57 104.68 199.32 104.35 198.05 C 105.86 188.49 105.75 178.74 105.57 169.09 C 99.96 173.01 91.93 176.02 85.52 172.24 M 59.30 191.95 C 60.28 195.67 57.95 199.76 60.00 203.23 C 61.42 206.95 66.09 207.16 69.05 209.13 C 68.44 207.82 67.83 206.51 67.23 205.21 C 70.72 207.41 74.05 210.13 78.11 211.19 C 83.46 212.21 89.05 211.61 94.28 213.36 C 97.69 211.69 101.99 209.88 105.41 212.58 C 110.22 215.92 105.44 222.36 108.21 226.73 C 109.94 229.92 109.86 233.60 110.00 237.12 C 112.36 234.94 114.43 232.47 116.70 230.20 C 117.87 226.43 117.40 222.43 115.84 218.85 C 116.76 214.96 118.53 211.06 118.01 206.99 C 117.02 205.12 115.63 203.17 113.54 202.46 C 111.37 201.51 109.20 203.02 107.10 203.46 C 102.29 205.18 97.01 204.14 92.46 202.17 C 90.25 200.97 88.60 198.85 86.12 198.14 C 81.99 196.85 77.71 196.07 73.50 195.12 C 73.69 191.84 74.01 188.56 74.72 185.35 C 73.71 186.50 72.70 187.66 71.69 188.81 C 71.46 188.26 70.98 187.14 70.74 186.59 C 69.19 189.40 68.62 192.57 68.03 195.68 C 67.67 195.68 66.95 195.68 66.59 195.67 C 66.65 192.47 67.38 189.32 69.08 186.58 C 69.65 186.54 70.78 186.47 71.35 186.43 C 74.45 183.81 76.79 180.41 78.51 176.75 C 72.16 177.24 65.37 176.08 60.72 171.37 C 57.57 177.68 57.61 185.22 59.30 191.95 M 84.27 172.23 C 81.50 175.77 79.15 179.57 76.74 183.38 C 76.67 186.24 76.22 189.08 75.94 191.92 C 75.75 192.35 75.38 193.19 75.19 193.61 C 80.36 193.80 85.57 194.67 90.32 196.78 C 89.91 192.35 90.80 187.61 88.74 183.47 C 86.95 179.84 86.52 175.65 84.27 172.23 M 96.24 215.05 C 96.14 219.70 96.72 224.32 96.68 228.97 C 96.82 232.17 94.89 234.92 94.33 237.98 C 94.30 241.42 95.51 244.71 96.34 248.02 C 100.32 250.42 104.62 246.90 105.81 243.05 C 107.56 238.41 108.13 233.14 106.32 228.42 C 105.03 225.06 104.29 220.75 106.80 217.77 C 105.81 216.31 105.13 214.31 103.24 213.78 C 100.85 212.48 98.45 214.22 96.24 215.05 Z" />
<path fill="#333333" opacity="1.00" d=" M 118.52 68.02 C 119.10 67.48 119.70 66.95 120.31 66.43 C 122.77 69.45 121.62 73.40 121.09 76.86 C 120.24 80.43 116.53 82.38 115.58 85.91 C 114.81 88.16 113.58 90.21 112.18 92.12 C 111.11 97.25 107.31 101.10 103.38 104.26 C 103.66 106.23 104.12 109.32 101.20 108.82 C 101.28 107.62 101.44 105.23 101.53 104.04 C 102.68 101.49 105.51 100.27 107.18 98.09 C 108.81 96.52 108.85 94.18 109.37 92.13 C 110.36 90.58 111.82 89.37 112.70 87.74 C 113.47 85.65 113.60 83.40 114.01 81.22 C 116.60 82.02 117.67 79.24 118.42 77.34 C 119.19 74.32 120.35 70.91 118.52 68.02 Z" />
<path fill="#333333" opacity="1.00" d=" M 114.63 75.46 C 116.55 73.21 114.91 70.14 115.70 67.58 C 116.40 67.86 117.78 68.42 118.47 68.71 C 118.28 70.43 118.25 72.18 117.89 73.88 C 117.01 76.95 113.72 78.45 112.43 81.26 C 111.93 83.61 111.86 86.27 109.93 87.99 C 107.42 90.36 106.62 93.84 104.64 96.57 C 102.35 100.19 98.56 102.43 95.03 104.66 C 95.67 101.46 98.67 99.80 100.70 97.55 C 103.03 95.25 104.59 92.33 105.88 89.35 C 107.86 87.67 109.77 85.69 110.00 82.96 C 110.26 79.79 112.81 77.79 114.63 75.46 Z" />
<path fill="#333333" opacity="1.00" d=" M 102.70 71.57 C 103.16 71.46 104.08 71.25 104.53 71.15 C 105.00 75.16 106.66 79.23 105.43 83.26 C 104.83 86.55 103.16 89.51 101.00 92.01 C 97.79 95.62 95.95 100.30 92.03 103.28 C 92.03 103.96 92.02 105.31 92.02 105.99 C 90.67 107.16 89.28 108.29 87.86 109.39 C 88.66 109.29 90.26 109.09 91.06 109.00 C 90.21 114.32 89.78 119.68 89.64 125.07 C 86.57 120.98 87.97 115.40 88.87 110.79 C 87.67 110.22 86.45 109.69 85.22 109.19 C 90.96 104.02 94.37 96.99 99.16 91.01 C 100.82 88.88 102.52 86.66 103.11 83.97 C 104.50 79.91 102.94 75.68 102.70 71.57 Z" />
<path fill="#333333" opacity="1.00" d=" M 80.23 74.88 C 83.22 78.39 86.48 82.79 91.73 82.18 C 91.52 82.75 91.09 83.88 90.88 84.45 C 86.49 84.07 82.82 81.01 80.00 77.82 C 80.06 77.09 80.17 75.61 80.23 74.88 Z" />
<path fill="#333333" opacity="1.00" d=" M 70.93 84.78 C 74.90 85.72 78.87 85.44 82.55 83.64 C 81.12 88.81 73.61 88.86 70.93 84.78 Z" />
<path fill="#333333" opacity="1.00" d=" M 84.12 93.98 C 85.35 90.98 86.73 88.00 88.53 85.29 C 91.85 88.66 88.10 92.21 86.13 95.05 C 86.19 98.23 86.54 101.39 86.49 104.57 C 84.72 101.38 84.18 97.56 84.12 93.98 Z" />
<path fill="#333333" opacity="1.00" d=" M 95.70 105.31 C 97.35 105.57 99.39 105.58 99.93 107.55 C 98.26 107.33 96.01 107.51 95.70 105.31 Z" />
<path fill="#333333" opacity="1.00" d=" M 73.48 109.65 C 75.08 108.67 76.88 108.07 78.63 107.41 C 77.87 108.60 77.86 110.99 75.88 110.78 C 75.16 110.45 73.11 110.99 73.48 109.65 Z" />
<path fill="#333333" opacity="1.00" d=" M 82.34 108.32 C 84.75 106.94 83.78 109.85 83.06 111.01 C 81.37 113.21 78.74 114.66 75.97 114.85 C 78.16 112.74 80.30 110.59 82.34 108.32 Z" />
<path fill="#333333" opacity="1.00" d=" M 80.34 124.42 C 79.80 122.69 79.33 120.52 81.47 119.68 C 81.18 121.28 80.80 122.86 80.34 124.42 Z" />
<path fill="#333333" opacity="1.00" d=" M 73.68 145.11 C 75.58 146.45 77.42 147.90 79.35 149.21 C 79.40 149.67 79.48 150.58 79.53 151.04 C 77.25 149.41 75.20 147.47 73.68 145.11 Z" />
<path fill="#333333" opacity="1.00" d=" M 86.25 159.18 C 88.03 156.55 90.06 154.00 92.61 152.08 C 92.25 155.03 89.96 157.03 88.36 159.33 C 87.34 161.54 87.63 164.09 87.38 166.46 C 86.91 166.44 85.98 166.40 85.51 166.38 C 85.71 163.99 85.33 161.43 86.25 159.18 Z" />
<path fill="#333333" opacity="1.00" d=" M 74.73 157.49 C 77.06 157.92 79.37 158.41 81.71 158.81 C 81.68 159.32 81.62 160.35 81.59 160.86 C 78.93 160.61 76.42 159.64 74.73 157.49 Z" />
</g>
</svg>
