<?xml version="1.0" encoding="UTF-8" ?>
<!DOCTYPE svg PUBLIC "-//W3C//DTD SVG 1.1//EN" "http://www.w3.org/Graphics/SVG/1.1/DTD/svg11.dtd">
<svg width="290pt" height="225pt" viewBox="0 0 290 225" version="1.1" xmlns="http://www.w3.org/2000/svg">
<g id="#ffffffff">
<path fill="#FFFFFF" opacity="1.00" d=" M 0.00 0.00 L 290.00 0.00 L 290.00 225.00 L 0.00 225.00 L 0.00 0.00 M 202.93 86.20 C 197.44 87.29 193.53 91.76 190.24 95.96 C 187.35 94.39 184.03 94.19 180.81 94.38 C 177.80 93.08 174.79 91.75 171.78 90.44 C 167.59 89.05 163.41 91.14 159.44 92.34 C 154.05 93.96 151.09 99.50 145.87 101.45 C 142.41 102.46 138.97 103.57 135.39 104.09 C 135.03 104.98 134.66 105.87 134.27 106.75 C 131.37 101.32 123.99 102.68 119.38 104.88 C 123.39 106.27 127.60 103.96 131.62 105.48 C 135.64 110.04 139.53 114.80 142.33 120.23 C 142.61 124.21 144.29 127.89 147.00 130.81 C 146.01 132.12 145.04 133.46 144.06 134.77 C 138.64 135.78 134.13 140.65 128.26 138.51 C 127.47 138.98 126.69 139.47 125.91 139.96 C 128.91 140.42 131.97 140.84 135.02 140.55 C 137.48 140.38 139.34 138.59 141.52 137.66 C 143.45 136.92 145.89 137.02 147.23 135.20 C 148.29 133.72 148.72 131.91 149.35 130.24 C 153.99 129.95 158.63 130.00 163.27 130.00 C 158.15 133.79 156.54 140.28 154.89 146.08 C 153.98 152.06 154.88 158.16 156.55 163.92 C 158.25 168.60 161.98 172.06 164.87 175.99 C 168.51 180.71 174.11 183.13 179.43 185.42 C 186.85 187.17 194.49 186.41 202.01 187.19 C 207.49 187.63 212.74 185.71 217.88 184.10 C 221.22 182.09 223.97 179.26 227.06 176.89 C 232.28 172.92 233.73 166.09 235.06 160.03 C 237.24 150.01 235.63 138.89 229.01 130.82 C 231.59 129.24 234.26 127.53 235.83 124.84 C 237.71 121.64 238.42 117.92 239.19 114.33 C 240.39 114.60 242.78 115.15 243.98 115.42 L 244.02 114.03 C 243.99 115.34 243.96 116.64 243.93 117.96 L 243.40 116.85 C 240.75 121.09 238.94 127.19 242.40 131.49 C 244.96 133.41 247.62 135.96 251.06 135.82 C 256.24 134.76 260.57 131.36 264.24 127.69 C 266.29 127.69 267.90 126.68 268.98 124.97 C 266.47 125.75 264.35 125.21 262.97 122.89 C 263.76 122.47 264.55 122.06 265.35 121.66 C 267.40 122.91 269.98 125.28 272.39 123.32 C 274.95 120.41 277.21 116.96 277.88 113.07 C 277.02 112.13 276.18 111.18 275.34 110.23 C 275.88 109.79 276.95 108.92 277.49 108.49 C 278.11 105.73 279.34 102.88 278.44 100.03 C 277.95 96.36 274.83 93.06 271.00 93.09 C 270.41 92.81 269.24 92.24 268.65 91.95 C 262.94 92.19 258.65 96.02 255.00 100.01 C 249.20 97.42 242.79 98.16 236.74 96.90 C 235.53 92.67 231.52 90.32 227.92 88.33 C 224.21 86.38 221.12 83.45 217.30 81.70 C 212.33 82.64 207.89 85.24 202.93 86.20 M 89.43 104.73 C 88.99 105.35 88.56 105.98 88.12 106.60 C 82.37 105.29 77.03 107.84 71.83 109.86 C 67.22 110.72 62.67 111.98 58.84 114.78 C 53.08 114.38 46.61 118.69 46.92 124.90 C 47.75 128.25 47.92 131.63 47.44 135.04 C 49.09 140.31 47.15 145.66 47.67 151.02 C 47.65 156.28 49.77 161.61 48.23 166.81 C 45.50 170.57 41.23 172.78 37.94 176.00 C 35.31 178.35 32.79 181.28 29.09 181.81 C 26.32 182.23 24.48 184.49 22.54 186.29 C 24.00 187.87 25.26 189.68 27.05 190.91 C 31.32 190.73 35.83 191.56 39.86 189.74 C 43.17 188.33 47.02 188.25 50.31 189.76 C 54.43 191.68 58.89 190.11 62.88 188.67 C 65.58 181.26 62.52 173.62 62.81 166.05 C 62.49 160.12 66.30 154.92 66.11 149.02 C 66.01 143.65 65.16 138.31 64.19 133.04 C 65.61 132.77 67.04 132.50 68.46 132.23 C 68.73 136.53 70.24 140.76 69.52 145.10 C 69.23 148.42 70.27 151.71 69.77 155.03 C 69.13 160.33 69.00 165.83 70.75 170.94 C 72.34 175.43 72.59 180.25 72.48 184.97 C 71.67 187.95 69.08 189.98 66.67 191.69 C 63.10 194.19 60.40 197.72 56.80 200.18 C 54.50 200.91 51.97 200.74 49.78 201.85 C 47.62 202.91 45.69 204.38 43.62 205.59 C 45.62 208.01 47.04 210.90 49.36 213.05 C 53.40 214.73 58.15 217.15 62.32 214.52 C 64.54 214.51 66.83 214.69 68.97 213.97 C 71.63 212.85 73.80 210.15 76.95 210.62 C 81.43 211.10 86.15 210.77 89.66 207.63 C 90.86 201.38 89.66 194.94 88.31 188.81 C 87.80 181.79 87.95 174.59 90.33 167.88 C 92.28 163.32 90.29 158.59 89.52 154.04 C 88.64 149.71 88.88 145.26 88.31 140.89 C 93.19 140.32 98.11 140.56 102.98 141.12 C 103.79 141.95 104.60 142.76 105.42 143.57 C 106.30 143.08 107.18 142.58 108.05 142.07 L 104.26 141.50 C 105.85 140.23 107.90 140.45 109.78 140.67 C 113.16 137.19 112.94 131.95 112.26 127.50 C 111.19 121.28 107.17 116.22 103.58 111.25 C 107.20 111.42 110.84 111.57 114.46 111.39 C 117.01 110.22 119.98 109.14 121.05 106.28 C 118.14 106.89 115.75 108.72 113.07 109.89 C 107.84 110.18 102.57 108.99 97.39 110.20 C 97.55 110.72 97.87 111.74 98.03 112.26 L 95.79 112.45 C 95.84 111.55 95.92 109.76 95.97 108.87 C 94.50 107.38 92.89 106.04 91.25 104.76 C 96.41 106.15 101.68 107.48 107.08 107.07 C 110.78 107.03 114.26 104.99 117.98 105.97 C 118.15 105.55 118.50 104.71 118.67 104.29 C 113.44 102.38 108.32 105.26 103.03 104.98 C 98.45 105.15 93.92 103.09 89.43 104.73 M 107.28 143.82 C 109.87 144.54 111.69 142.40 113.89 141.60 C 118.18 139.83 123.32 140.82 127.20 138.02 C 123.83 138.13 120.49 137.55 117.13 137.47 C 113.15 138.19 110.30 141.40 107.28 143.82 Z" />
<path fill="#FFFFFF" opacity="1.00" d=" M 207.69 86.65 C 211.03 85.13 214.49 83.92 218.05 83.03 C 220.59 85.82 223.71 88.00 227.07 89.70 C 230.30 91.28 232.71 94.02 235.50 96.21 C 232.09 96.99 228.99 98.64 225.79 99.98 C 222.58 99.01 219.46 97.71 216.12 97.23 C 215.69 95.85 215.26 94.49 214.76 93.14 C 213.29 96.39 212.43 100.19 209.56 102.57 C 207.19 104.36 204.53 105.69 201.97 107.19 C 198.56 103.40 194.89 99.82 190.97 96.56 C 193.76 94.49 195.85 91.63 198.74 89.69 C 201.39 87.83 204.79 87.93 207.69 86.65 M 207.99 94.27 C 205.24 97.03 201.60 98.62 198.64 101.10 C 202.93 100.91 206.22 97.86 209.25 95.17 C 211.36 93.05 213.99 91.16 214.79 88.12 C 212.29 89.90 210.16 92.12 207.99 94.27 Z" />
<path fill="#FFFFFF" opacity="1.00" d=" M 154.17 97.09 C 158.22 93.42 163.81 92.23 169.09 91.84 C 173.00 92.58 176.78 94.09 180.21 96.12 C 183.53 95.77 187.25 95.62 189.98 97.92 C 194.31 101.50 197.58 106.29 202.38 109.32 C 202.89 108.65 203.41 107.99 203.93 107.33 C 208.66 105.77 213.60 103.02 215.20 97.96 C 217.75 99.37 220.49 100.35 223.20 101.40 C 212.84 102.27 206.91 111.69 200.29 118.47 C 197.30 120.98 196.71 124.96 195.89 128.54 C 201.37 127.89 206.62 125.91 212.20 125.94 C 210.19 128.76 208.05 132.51 204.03 132.36 C 196.72 132.62 189.53 133.86 182.46 135.70 C 179.11 132.43 174.39 131.41 170.19 129.67 C 163.72 126.94 156.63 128.36 149.89 128.85 C 150.29 121.34 147.20 114.17 142.57 108.43 C 140.74 107.16 138.74 106.16 136.83 105.04 C 142.59 104.18 148.67 102.98 152.86 98.58 C 157.18 101.03 161.28 103.84 165.54 106.40 C 164.89 103.51 162.81 100.51 159.35 102.18 C 162.18 98.95 165.69 96.51 169.14 94.02 C 165.45 95.51 162.11 97.79 159.35 100.66 C 157.64 99.43 155.89 98.28 154.17 97.09 M 173.05 101.82 C 171.68 103.55 170.08 105.08 168.40 106.51 C 166.73 107.83 164.01 108.16 163.38 110.48 C 163.78 110.65 164.56 110.99 164.96 111.16 C 168.60 108.36 172.20 105.45 174.70 101.51 C 174.99 99.39 174.34 97.24 174.19 95.13 C 173.73 97.35 173.71 99.65 173.05 101.82 M 147.49 103.78 C 149.29 105.51 151.32 107.00 153.66 107.92 C 152.50 105.44 150.63 102.82 147.49 103.78 M 175.19 103.36 C 175.86 106.28 177.96 108.84 181.25 108.20 C 179.16 106.67 177.15 105.05 175.19 103.36 M 186.96 104.63 C 187.99 106.30 189.10 107.96 190.68 109.16 C 193.42 111.19 194.51 114.96 197.96 116.10 C 195.36 111.39 191.60 107.38 186.96 104.63 M 175.17 111.81 C 174.08 114.50 174.21 117.36 176.84 119.11 C 175.37 120.31 174.04 121.67 172.93 123.21 C 176.95 121.06 181.00 119.00 185.24 117.30 C 188.79 116.65 192.58 116.95 195.82 118.65 C 191.80 121.10 188.27 125.26 189.03 130.29 C 191.06 125.89 193.17 121.20 197.68 118.83 C 194.03 114.79 188.12 114.04 183.28 116.38 C 181.67 114.76 180.91 112.63 180.60 110.40 C 182.50 111.16 184.34 112.06 186.25 112.80 C 184.74 110.52 182.29 109.46 179.63 109.34 C 179.64 109.95 179.67 111.17 179.69 111.78 C 178.79 111.51 177.90 111.24 177.01 110.97 C 175.35 109.09 172.97 108.17 170.74 107.18 C 171.82 109.07 173.33 110.65 175.17 111.81 M 147.92 113.92 C 149.69 113.53 151.37 112.82 153.10 112.30 C 155.77 112.27 158.41 112.72 161.06 112.98 C 161.34 112.56 161.91 111.70 162.19 111.27 C 157.49 112.04 151.46 109.85 147.92 113.92 M 166.23 111.44 C 166.32 112.08 166.50 113.37 166.60 114.02 C 168.04 114.87 169.47 115.74 170.93 116.57 C 171.47 116.35 172.57 115.91 173.12 115.69 C 171.35 114.86 169.55 114.10 167.79 113.26 C 167.40 112.80 166.62 111.89 166.23 111.44 M 158.71 125.72 C 161.48 126.41 164.32 127.04 167.19 126.99 C 169.06 126.22 170.46 124.67 171.59 123.04 C 167.45 124.79 163.23 125.82 158.71 125.72 Z" />
<path fill="#FFFFFF" opacity="1.00" d=" M 256.62 100.40 C 260.38 96.89 264.49 92.16 270.25 93.45 C 272.41 98.12 270.61 102.95 269.05 107.47 C 264.66 105.57 260.85 102.62 256.62 100.40 Z" />
<path fill="#FFFFFF" opacity="1.00" d=" M 272.45 94.28 C 278.29 97.04 276.48 104.84 275.30 109.90 C 273.83 108.88 272.23 108.24 270.51 107.98 C 270.75 107.15 271.00 106.33 271.27 105.50 C 273.35 102.05 273.50 98.04 272.45 94.28 Z" />
<path fill="#FFFFFF" opacity="1.00" d=" M 226.10 102.08 C 229.24 100.48 232.01 96.99 235.93 98.14 C 242.17 99.74 248.85 99.31 254.85 101.86 C 259.70 103.82 263.72 107.55 268.92 108.70 C 271.75 109.28 274.21 110.96 276.16 113.04 C 275.71 116.50 273.55 119.36 271.72 122.21 C 269.26 122.06 266.92 121.33 264.60 120.56 C 263.65 121.20 262.70 121.83 261.73 122.45 C 261.41 120.48 261.15 118.52 260.75 116.58 C 261.47 116.42 262.91 116.10 263.63 115.94 C 258.93 113.12 253.33 113.15 248.04 113.58 C 242.40 114.14 237.31 111.07 231.75 110.89 L 234.15 112.60 C 230.55 115.93 226.39 118.58 222.11 120.94 C 217.14 123.59 211.47 124.27 205.96 124.92 C 204.51 125.42 203.16 124.65 201.84 124.22 C 201.89 124.87 201.94 125.52 202.00 126.17 C 200.47 126.65 198.95 127.14 197.45 127.66 C 197.92 125.67 198.48 123.70 199.00 121.72 C 205.58 116.24 210.65 108.99 218.08 104.51 C 220.69 103.50 223.66 103.56 226.10 102.08 M 225.17 114.42 C 223.48 114.56 221.80 114.78 220.13 115.03 C 219.09 116.03 218.04 117.01 216.96 117.96 C 219.98 116.62 223.31 116.31 226.44 115.45 C 231.13 111.44 234.32 106.04 238.48 101.52 C 232.06 103.40 230.11 110.56 225.17 114.42 M 240.03 102.33 C 242.18 106.02 244.59 110.41 249.16 111.36 C 246.13 108.34 243.64 104.67 240.03 102.33 Z" />
<path fill="#FFFFFF" opacity="1.00" d=" M 88.51 108.23 C 89.03 107.53 89.56 106.83 90.09 106.13 C 92.72 107.48 93.71 110.27 94.81 112.79 C 89.55 114.48 84.11 116.17 79.73 119.67 C 77.68 121.47 74.73 121.79 72.81 123.77 C 70.79 125.65 69.89 128.35 68.77 130.80 C 65.13 130.95 61.39 131.59 58.30 133.64 C 59.41 133.67 61.63 133.72 62.74 133.75 C 63.89 138.76 64.00 143.93 64.25 149.05 C 64.69 154.58 61.30 159.44 61.10 164.91 C 60.50 171.34 62.59 177.69 62.01 184.10 C 61.88 187.09 58.60 188.36 56.06 188.71 C 52.81 189.25 50.23 186.44 47.00 186.71 C 42.13 186.11 37.89 189.37 33.06 189.11 C 29.86 189.01 26.34 189.48 23.72 187.21 C 25.23 185.69 26.68 183.89 28.95 183.60 C 33.97 182.46 37.88 178.85 41.55 175.47 C 44.13 173.07 47.47 171.34 49.07 168.05 C 50.63 164.57 50.20 160.66 49.82 156.99 C 48.44 145.39 50.42 133.71 48.50 122.20 C 50.03 118.23 54.18 116.69 57.94 115.66 C 57.33 117.01 56.72 118.36 56.10 119.72 C 56.86 119.46 57.62 119.20 58.38 118.94 C 59.51 117.31 60.71 115.62 62.46 114.61 C 66.15 112.29 70.81 112.73 74.61 110.64 C 78.90 108.42 83.77 108.15 88.51 108.23 M 66.89 123.41 C 64.04 123.50 61.19 123.56 58.36 123.85 C 60.89 125.94 64.39 124.79 67.38 125.11 C 71.25 121.85 74.39 117.83 77.90 114.21 C 73.00 115.47 70.59 120.40 66.89 123.41 M 51.74 130.68 C 54.03 129.41 55.30 127.07 54.79 124.43 C 53.37 126.29 52.45 128.46 51.74 130.68 M 56.46 159.39 C 56.51 159.80 56.62 160.61 56.67 161.02 C 57.01 159.03 57.36 156.99 56.81 155.00 C 55.71 150.10 56.62 145.13 57.05 140.22 C 53.51 145.96 54.35 153.29 56.46 159.39 M 55.75 181.15 C 55.02 181.10 53.58 181.00 52.85 180.95 C 52.72 181.35 52.45 182.13 52.31 182.52 C 53.77 182.27 55.51 182.70 56.78 181.83 C 58.03 179.80 58.81 177.49 59.33 175.18 C 57.18 176.47 56.81 179.09 55.75 181.15 Z" />
<path fill="#FFFFFF" opacity="1.00" d=" M 136.82 108.83 C 137.19 108.39 137.56 107.95 137.94 107.51 C 141.79 109.24 143.18 113.37 145.27 116.69 C 147.05 120.58 148.05 124.88 147.76 129.18 C 143.31 126.46 145.62 120.66 142.69 117.03 C 140.78 114.27 139.58 110.91 136.82 108.83 Z" />
<path fill="#FFFFFF" opacity="1.00" d=" M 90.56 116.38 C 94.51 114.85 99.01 114.74 102.47 112.07 C 105.04 116.38 108.56 120.26 109.89 125.20 C 111.19 129.37 111.23 134.00 109.86 138.16 C 103.15 140.08 96.12 137.75 89.28 138.68 C 89.35 137.81 89.47 136.94 89.63 136.08 C 85.69 135.69 82.01 137.57 78.83 139.69 C 82.22 139.12 85.73 136.91 89.13 138.68 C 85.93 139.63 82.49 140.58 80.50 143.49 C 82.64 142.80 84.76 142.01 86.87 141.23 C 86.09 150.52 91.78 159.72 88.24 168.86 C 85.21 177.05 85.76 186.08 87.69 194.45 C 89.14 198.08 90.16 202.47 88.35 206.12 C 85.32 208.84 80.87 208.79 77.02 208.57 C 72.17 208.33 68.83 213.27 63.95 212.61 C 61.89 212.52 60.00 213.45 58.01 213.78 C 55.28 213.16 52.45 212.51 49.99 211.17 C 48.47 209.13 47.37 206.81 45.98 204.67 C 48.63 203.82 51.14 202.30 54.01 202.42 C 58.16 202.69 60.76 198.99 63.59 196.58 C 66.86 192.92 71.38 190.39 73.79 185.99 C 74.41 183.06 73.83 180.04 73.97 177.07 C 74.31 172.91 72.39 169.10 71.73 165.08 C 70.79 160.44 71.44 155.68 72.20 151.07 C 71.34 148.82 70.85 146.35 71.46 143.98 C 72.97 139.14 69.11 134.09 71.39 129.37 C 72.63 126.09 76.07 124.72 78.65 122.71 C 82.21 119.92 86.27 117.81 90.56 116.38 M 87.11 126.77 C 85.23 127.41 83.70 126.06 82.28 125.07 C 81.73 125.26 80.62 125.65 80.07 125.85 C 81.31 126.76 82.52 127.73 83.92 128.39 C 89.10 126.92 94.43 125.68 99.26 123.23 C 94.88 122.97 91.06 125.28 87.11 126.77 M 76.78 134.50 C 76.00 136.32 75.18 138.11 74.47 139.95 C 76.67 138.55 77.87 136.25 78.73 133.86 C 78.24 134.02 77.26 134.34 76.78 134.50 M 83.50 149.28 C 84.14 155.71 84.31 162.20 85.70 168.53 C 86.01 162.13 86.57 155.13 83.50 149.28 M 78.55 152.48 C 78.51 158.21 79.35 163.91 79.37 169.65 C 80.72 164.08 80.81 157.82 78.55 152.48 M 83.93 195.46 C 83.01 198.40 82.08 201.34 80.70 204.11 C 81.83 203.35 82.94 202.59 84.06 201.83 C 84.37 199.72 85.37 197.38 83.93 195.46 M 49.18 206.17 C 48.99 208.95 51.94 206.65 53.34 206.55 C 54.93 207.71 56.60 208.76 58.29 209.77 C 59.01 210.65 59.54 211.84 60.78 212.07 C 61.01 210.92 61.91 209.45 60.75 208.49 C 58.29 207.41 55.65 206.62 53.61 204.77 C 52.12 205.18 50.60 205.55 49.18 206.17 Z" />
<path fill="#FFFFFF" opacity="1.00" d=" M 175.27 114.68 C 176.51 113.96 177.77 113.26 179.04 112.59 C 179.23 113.24 179.62 114.53 179.81 115.18 C 180.15 115.70 180.84 116.76 181.19 117.28 C 180.38 117.58 178.75 118.17 177.94 118.47 C 177.04 117.21 176.14 115.95 175.27 114.68 Z" />
<path fill="#FFFFFF" opacity="1.00" d=" M 221.00 123.94 C 226.71 121.02 231.78 116.97 236.44 112.60 C 237.79 119.09 234.00 126.10 228.46 129.55 C 226.15 127.45 223.75 125.44 221.00 123.94 Z" />
<path fill="#FFFFFF" opacity="1.00" d=" M 242.43 127.95 C 241.71 123.54 244.72 119.73 244.85 115.41 C 249.73 117.46 254.85 113.91 259.80 115.99 C 259.78 118.21 259.57 120.42 259.17 122.61 C 255.49 125.63 252.26 129.37 247.83 131.33 C 245.36 132.81 243.46 129.80 242.43 127.95 Z" />
<path fill="#FFFFFF" opacity="1.00" d=" M 246.83 133.11 C 252.14 131.23 256.64 127.58 260.03 123.14 C 261.40 124.11 262.75 125.13 264.07 126.17 C 259.72 129.66 255.02 132.67 249.90 134.90 C 249.13 134.45 247.60 133.56 246.83 133.11 Z" />
<path fill="#FFFFFF" opacity="1.00" d=" M 214.49 125.36 C 215.91 125.15 217.33 124.93 218.75 124.71 C 225.11 127.74 229.13 133.88 231.82 140.16 C 234.85 147.37 234.28 155.54 232.30 162.95 C 231.08 166.79 229.90 171.00 226.61 173.62 C 222.53 177.08 218.69 181.32 213.28 182.61 C 213.04 182.95 212.54 183.65 212.30 183.99 C 207.52 184.19 202.83 185.69 198.03 185.20 C 191.62 184.56 184.62 185.76 178.79 182.40 C 174.49 180.18 169.71 178.31 166.87 174.15 C 164.48 170.60 161.18 167.58 159.63 163.55 C 158.44 158.46 157.14 153.21 157.91 147.95 C 159.68 141.76 162.08 135.74 165.15 130.07 C 171.05 131.67 176.43 134.64 182.13 136.77 C 187.50 138.14 192.71 135.38 198.03 135.00 C 202.23 134.25 207.19 134.61 210.47 131.42 C 212.48 129.93 213.24 127.42 214.49 125.36 Z" />
</g>
<g id="#242423ff">
<path fill="#333333" opacity="1.00" d=" M 202.93 86.20 C 207.89 85.24 212.33 82.64 217.30 81.70 C 221.12 83.45 224.21 86.38 227.92 88.33 C 231.52 90.32 235.53 92.67 236.74 96.90 C 242.79 98.16 249.20 97.42 255.00 100.01 C 258.65 96.02 262.94 92.19 268.65 91.95 C 269.24 92.24 270.41 92.81 271.00 93.09 C 274.83 93.06 277.95 96.36 278.44 100.03 C 279.34 102.88 278.11 105.73 277.49 108.49 C 276.95 108.92 275.88 109.79 275.34 110.23 C 276.18 111.18 277.02 112.13 277.88 113.07 C 277.21 116.96 274.95 120.41 272.39 123.32 C 269.98 125.28 267.40 122.91 265.35 121.66 C 264.55 122.06 263.76 122.47 262.97 122.89 C 264.35 125.21 266.47 125.75 268.98 124.97 C 267.90 126.68 266.29 127.69 264.24 127.69 C 260.57 131.36 256.24 134.76 251.06 135.82 C 247.62 135.96 244.96 133.41 242.40 131.49 C 238.94 127.19 240.75 121.09 243.40 116.85 L 243.93 117.96 C 243.96 116.64 243.99 115.34 244.02 114.03 L 243.98 115.42 C 242.78 115.15 240.39 114.60 239.19 114.33 C 238.42 117.92 237.71 121.64 235.83 124.84 C 234.26 127.53 231.59 129.24 229.01 130.82 C 235.63 138.89 237.24 150.01 235.06 160.03 C 233.73 166.09 232.28 172.92 227.06 176.89 C 223.97 179.26 221.22 182.09 217.88 184.10 C 212.74 185.71 207.49 187.63 202.01 187.19 C 194.49 186.41 186.85 187.17 179.43 185.42 C 174.11 183.13 168.51 180.71 164.87 175.99 C 161.98 172.06 158.25 168.60 156.55 163.92 C 154.88 158.16 153.98 152.06 154.89 146.08 C 156.54 140.28 158.15 133.79 163.27 130.00 C 158.63 130.00 153.99 129.95 149.35 130.24 C 148.72 131.91 148.29 133.72 147.23 135.20 C 145.89 137.02 143.45 136.92 141.52 137.66 C 139.34 138.59 137.48 140.38 135.02 140.55 C 131.97 140.84 128.91 140.42 125.91 139.96 C 126.69 139.47 127.47 138.98 128.26 138.51 C 134.13 140.65 138.64 135.78 144.06 134.77 C 145.04 133.46 146.01 132.12 147.00 130.81 C 144.29 127.89 142.61 124.21 142.33 120.23 C 139.53 114.80 135.64 110.04 131.62 105.48 C 127.60 103.96 123.39 106.27 119.38 104.88 C 123.99 102.68 131.37 101.32 134.27 106.75 C 134.66 105.87 135.03 104.98 135.39 104.09 C 138.97 103.57 142.41 102.46 145.87 101.45 C 151.09 99.50 154.05 93.96 159.44 92.34 C 163.41 91.14 167.59 89.05 171.78 90.44 C 174.79 91.75 177.80 93.08 180.81 94.38 C 184.03 94.19 187.35 94.39 190.24 95.96 C 193.53 91.76 197.44 87.29 202.93 86.20 M 207.69 86.65 C 204.79 87.93 201.39 87.83 198.74 89.69 C 195.85 91.63 193.76 94.49 190.97 96.56 C 194.89 99.82 198.56 103.40 201.97 107.19 C 204.53 105.69 207.19 104.36 209.56 102.57 C 212.43 100.19 213.29 96.39 214.76 93.14 C 215.26 94.49 215.69 95.85 216.12 97.23 C 219.46 97.71 222.58 99.01 225.79 99.98 C 228.99 98.64 232.09 96.99 235.50 96.21 C 232.71 94.02 230.30 91.28 227.07 89.70 C 223.71 88.00 220.59 85.82 218.05 83.03 C 214.49 83.92 211.03 85.13 207.69 86.65 M 154.17 97.09 C 155.89 98.28 157.64 99.43 159.35 100.66 C 162.11 97.79 165.45 95.51 169.14 94.02 C 165.69 96.51 162.18 98.95 159.35 102.18 C 162.81 100.51 164.89 103.51 165.54 106.40 C 161.28 103.84 157.18 101.03 152.86 98.58 C 148.67 102.98 142.59 104.18 136.83 105.04 C 138.74 106.16 140.74 107.16 142.57 108.43 C 147.20 114.17 150.29 121.34 149.89 128.85 C 156.63 128.36 163.72 126.94 170.19 129.67 C 174.39 131.41 179.11 132.43 182.46 135.70 C 189.53 133.86 196.72 132.62 204.03 132.36 C 208.05 132.51 210.19 128.76 212.20 125.94 C 206.62 125.91 201.37 127.89 195.89 128.54 C 196.71 124.96 197.30 120.98 200.29 118.47 C 206.91 111.69 212.84 102.27 223.20 101.40 C 220.49 100.35 217.75 99.37 215.20 97.96 C 213.60 103.02 208.66 105.77 203.93 107.33 C 203.41 107.99 202.89 108.65 202.38 109.32 C 197.58 106.29 194.31 101.50 189.98 97.92 C 187.25 95.62 183.53 95.77 180.21 96.12 C 176.78 94.09 173.00 92.58 169.09 91.84 C 163.81 92.23 158.22 93.42 154.17 97.09 M 256.62 100.40 C 260.85 102.62 264.66 105.57 269.05 107.47 C 270.61 102.95 272.41 98.12 270.25 93.45 C 264.49 92.16 260.38 96.89 256.62 100.40 M 272.45 94.28 C 273.50 98.04 273.35 102.05 271.27 105.50 C 271.00 106.33 270.75 107.15 270.51 107.98 C 272.23 108.24 273.83 108.88 275.30 109.90 C 276.48 104.84 278.29 97.04 272.45 94.28 M 226.10 102.08 C 223.66 103.56 220.69 103.50 218.08 104.51 C 210.65 108.99 205.58 116.24 199.00 121.72 C 198.48 123.70 197.92 125.67 197.45 127.66 C 198.95 127.14 200.47 126.65 202.00 126.17 C 201.94 125.52 201.89 124.87 201.84 124.22 C 203.16 124.65 204.51 125.42 205.96 124.92 C 211.47 124.27 217.14 123.59 222.11 120.94 C 226.39 118.58 230.55 115.93 234.15 112.60 L 231.75 110.89 C 237.31 111.07 242.40 114.14 248.04 113.58 C 253.33 113.15 258.93 113.12 263.63 115.94 C 262.91 116.10 261.47 116.42 260.75 116.58 C 261.15 118.52 261.41 120.48 261.73 122.45 C 262.70 121.83 263.65 121.20 264.60 120.56 C 266.92 121.33 269.26 122.06 271.72 122.21 C 273.55 119.36 275.71 116.50 276.16 113.04 C 274.21 110.96 271.75 109.28 268.92 108.70 C 263.72 107.55 259.70 103.82 254.85 101.86 C 248.85 99.31 242.17 99.74 235.93 98.14 C 232.01 96.99 229.24 100.48 226.10 102.08 M 136.82 108.83 C 139.58 110.91 140.78 114.27 142.69 117.03 C 145.62 120.66 143.31 126.46 147.76 129.18 C 148.05 124.88 147.05 120.58 145.27 116.69 C 143.18 113.37 141.79 109.24 137.94 107.51 C 137.56 107.95 137.19 108.39 136.82 108.83 M 221.00 123.94 C 223.75 125.44 226.15 127.45 228.46 129.55 C 234.00 126.10 237.79 119.09 236.44 112.60 C 231.78 116.97 226.71 121.02 221.00 123.94 M 242.43 127.95 C 243.46 129.80 245.36 132.81 247.83 131.33 C 252.26 129.37 255.49 125.63 259.17 122.61 C 259.57 120.42 259.78 118.21 259.80 115.99 C 254.85 113.91 249.73 117.46 244.85 115.41 C 244.72 119.73 241.71 123.54 242.43 127.95 M 246.83 133.11 C 247.60 133.56 249.13 134.45 249.90 134.90 C 255.02 132.67 259.72 129.66 264.07 126.17 C 262.75 125.13 261.40 124.11 260.03 123.14 C 256.64 127.58 252.14 131.23 246.83 133.11 M 214.49 125.36 C 213.24 127.42 212.48 129.93 210.47 131.42 C 207.19 134.61 202.23 134.25 198.03 135.00 C 192.71 135.38 187.50 138.14 182.13 136.77 C 176.43 134.64 171.05 131.67 165.15 130.07 C 162.08 135.74 159.68 141.76 157.91 147.95 C 157.14 153.21 158.44 158.46 159.63 163.55 C 161.18 167.58 164.48 170.60 166.87 174.15 C 169.71 178.31 174.49 180.18 178.79 182.40 C 184.62 185.76 191.62 184.56 198.03 185.20 C 202.83 185.69 207.52 184.19 212.30 183.99 C 212.54 183.65 213.04 182.95 213.28 182.61 C 218.69 181.32 222.53 177.08 226.61 173.62 C 229.90 171.00 231.08 166.79 232.30 162.95 C 234.28 155.54 234.85 147.37 231.82 140.16 C 229.13 133.88 225.11 127.74 218.75 124.71 C 217.33 124.93 215.91 125.15 214.49 125.36 Z" />
<path fill="#333333" opacity="1.00" d=" M 207.99 94.27 C 210.16 92.12 212.29 89.90 214.79 88.12 C 213.99 91.16 211.36 93.05 209.25 95.17 C 206.22 97.86 202.93 100.91 198.64 101.10 C 201.60 98.62 205.24 97.03 207.99 94.27 Z" />
<path fill="#333333" opacity="1.00" d=" M 173.05 101.82 C 173.71 99.65 173.73 97.35 174.19 95.13 C 174.34 97.24 174.99 99.39 174.70 101.51 C 172.20 105.45 168.60 108.36 164.96 111.16 C 164.56 110.99 163.78 110.65 163.38 110.48 C 164.01 108.16 166.73 107.83 168.40 106.51 C 170.08 105.08 171.68 103.55 173.05 101.82 Z" />
<path fill="#333333" opacity="1.00" d=" M 225.17 114.42 C 230.11 110.56 232.06 103.40 238.48 101.52 C 234.32 106.04 231.13 111.44 226.44 115.45 C 223.31 116.31 219.98 116.62 216.96 117.96 C 218.04 117.01 219.09 116.03 220.13 115.03 C 221.80 114.78 223.48 114.56 225.17 114.42 Z" />
<path fill="#333333" opacity="1.00" d=" M 147.49 103.78 C 150.63 102.82 152.50 105.44 153.66 107.92 C 151.32 107.00 149.29 105.51 147.49 103.78 Z" />
<path fill="#333333" opacity="1.00" d=" M 175.19 103.36 C 177.15 105.05 179.16 106.67 181.25 108.20 C 177.96 108.84 175.86 106.28 175.19 103.36 Z" />
<path fill="#333333" opacity="1.00" d=" M 240.03 102.33 C 243.64 104.67 246.13 108.34 249.16 111.36 C 244.59 110.41 242.18 106.02 240.03 102.33 Z" />
<path fill="#333333" opacity="1.00" d=" M 89.43 104.73 C 93.92 103.09 98.45 105.15 103.03 104.98 C 108.32 105.26 113.44 102.38 118.67 104.29 C 118.50 104.71 118.15 105.55 117.98 105.97 C 114.26 104.99 110.78 107.03 107.08 107.07 C 101.68 107.48 96.41 106.15 91.25 104.76 C 92.89 106.04 94.50 107.38 95.97 108.87 C 95.92 109.76 95.84 111.55 95.79 112.45 L 98.03 112.26 C 97.87 111.74 97.55 110.72 97.39 110.20 C 102.57 108.99 107.84 110.18 113.07 109.89 C 115.75 108.72 118.14 106.89 121.05 106.28 C 119.98 109.14 117.01 110.22 114.46 111.39 C 110.84 111.57 107.20 111.42 103.58 111.25 C 107.17 116.22 111.19 121.28 112.26 127.50 C 112.94 131.95 113.16 137.19 109.78 140.67 C 107.90 140.45 105.85 140.23 104.26 141.50 L 108.05 142.07 C 107.18 142.58 106.30 143.08 105.42 143.57 C 104.60 142.76 103.79 141.95 102.98 141.12 C 98.11 140.56 93.19 140.32 88.31 140.89 C 88.88 145.26 88.64 149.71 89.52 154.04 C 90.29 158.59 92.28 163.32 90.33 167.88 C 87.95 174.59 87.80 181.79 88.31 188.81 C 89.66 194.94 90.86 201.38 89.66 207.63 C 86.15 210.77 81.43 211.10 76.95 210.62 C 73.80 210.15 71.63 212.85 68.97 213.97 C 66.83 214.69 64.54 214.51 62.32 214.52 C 58.15 217.15 53.40 214.73 49.36 213.05 C 47.04 210.90 45.62 208.01 43.62 205.59 C 45.69 204.38 47.62 202.91 49.78 201.85 C 51.97 200.74 54.50 200.91 56.80 200.18 C 60.40 197.72 63.10 194.19 66.67 191.69 C 69.08 189.98 71.67 187.95 72.48 184.97 C 72.59 180.25 72.34 175.43 70.75 170.94 C 69.00 165.83 69.13 160.33 69.77 155.03 C 70.27 151.71 69.23 148.42 69.52 145.10 C 70.24 140.76 68.73 136.53 68.46 132.23 C 67.04 132.50 65.61 132.77 64.19 133.04 C 65.16 138.31 66.01 143.65 66.11 149.02 C 66.30 154.92 62.49 160.12 62.81 166.05 C 62.52 173.62 65.58 181.26 62.88 188.67 C 58.89 190.11 54.43 191.68 50.31 189.76 C 47.02 188.25 43.17 188.33 39.86 189.74 C 35.83 191.56 31.32 190.73 27.05 190.91 C 25.26 189.68 24.00 187.87 22.54 186.29 C 24.48 184.49 26.32 182.23 29.09 181.81 C 32.79 181.28 35.31 178.35 37.94 176.00 C 41.23 172.78 45.50 170.57 48.23 166.81 C 49.77 161.61 47.65 156.28 47.67 151.02 C 47.15 145.66 49.09 140.31 47.44 135.04 C 47.92 131.63 47.75 128.25 46.92 124.90 C 46.61 118.69 53.08 114.38 58.84 114.78 C 62.67 111.98 67.22 110.72 71.83 109.86 C 77.03 107.84 82.37 105.29 88.12 106.60 C 88.56 105.98 88.99 105.35 89.43 104.73 M 88.51 108.23 C 83.77 108.15 78.90 108.42 74.61 110.64 C 70.81 112.73 66.15 112.29 62.46 114.61 C 60.71 115.62 59.51 117.31 58.38 118.94 C 57.62 119.20 56.86 119.46 56.10 119.72 C 56.72 118.36 57.33 117.01 57.94 115.66 C 54.18 116.69 50.03 118.23 48.50 122.20 C 50.42 133.71 48.44 145.39 49.82 156.99 C 50.20 160.66 50.63 164.57 49.07 168.05 C 47.47 171.34 44.13 173.07 41.55 175.47 C 37.88 178.85 33.97 182.46 28.95 183.60 C 26.68 183.89 25.23 185.69 23.72 187.21 C 26.34 189.48 29.86 189.01 33.06 189.11 C 37.89 189.37 42.13 186.11 47.00 186.71 C 50.23 186.44 52.81 189.25 56.06 188.71 C 58.60 188.36 61.88 187.09 62.01 184.10 C 62.59 177.69 60.50 171.34 61.10 164.91 C 61.30 159.44 64.69 154.58 64.25 149.05 C 64.00 143.93 63.89 138.76 62.74 133.75 C 61.63 133.72 59.41 133.67 58.30 133.64 C 61.39 131.59 65.13 130.95 68.77 130.80 C 69.89 128.35 70.79 125.65 72.81 123.77 C 74.73 121.79 77.68 121.47 79.73 119.67 C 84.11 116.17 89.55 114.48 94.81 112.79 C 93.71 110.27 92.72 107.48 90.09 106.13 C 89.56 106.83 89.03 107.53 88.51 108.23 M 90.56 116.38 C 86.27 117.81 82.21 119.92 78.65 122.71 C 76.07 124.72 72.63 126.09 71.39 129.37 C 69.11 134.09 72.97 139.14 71.46 143.98 C 70.85 146.35 71.34 148.82 72.20 151.07 C 71.44 155.68 70.79 160.44 71.73 165.08 C 72.39 169.10 74.31 172.91 73.97 177.07 C 73.83 180.04 74.41 183.06 73.79 185.99 C 71.38 190.39 66.86 192.92 63.59 196.58 C 60.76 198.99 58.16 202.69 54.01 202.42 C 51.14 202.30 48.63 203.82 45.98 204.67 C 47.37 206.81 48.47 209.13 49.99 211.17 C 52.45 212.51 55.28 213.16 58.01 213.78 C 60.00 213.45 61.89 212.52 63.95 212.61 C 68.83 213.27 72.17 208.33 77.02 208.57 C 80.87 208.79 85.32 208.84 88.35 206.12 C 90.16 202.47 89.14 198.08 87.69 194.45 C 85.76 186.08 85.21 177.05 88.24 168.86 C 91.78 159.72 86.09 150.52 86.87 141.23 C 84.76 142.01 82.64 142.80 80.50 143.49 C 82.49 140.58 85.93 139.63 89.13 138.68 C 85.73 136.91 82.22 139.12 78.83 139.69 C 82.01 137.57 85.69 135.69 89.63 136.08 C 89.47 136.94 89.35 137.81 89.28 138.68 C 96.12 137.75 103.15 140.08 109.86 138.16 C 111.23 134.00 111.19 129.37 109.89 125.20 C 108.56 120.26 105.04 116.38 102.47 112.07 C 99.01 114.74 94.51 114.85 90.56 116.38 Z" />
<path fill="#333333" opacity="1.00" d=" M 186.96 104.63 C 191.60 107.38 195.36 111.39 197.96 116.10 C 194.51 114.96 193.42 111.19 190.68 109.16 C 189.10 107.96 187.99 106.30 186.96 104.63 Z" />
<path fill="#333333" opacity="1.00" d=" M 175.17 111.81 C 173.33 110.65 171.82 109.07 170.74 107.18 C 172.97 108.17 175.35 109.09 177.01 110.97 C 177.90 111.24 178.79 111.51 179.69 111.78 C 179.67 111.17 179.64 109.95 179.63 109.34 C 182.29 109.46 184.74 110.52 186.25 112.80 C 184.34 112.06 182.50 111.16 180.60 110.40 C 180.91 112.63 181.67 114.76 183.28 116.38 C 188.12 114.04 194.03 114.79 197.68 118.83 C 193.17 121.20 191.06 125.89 189.03 130.29 C 188.27 125.26 191.80 121.10 195.82 118.65 C 192.58 116.95 188.79 116.65 185.24 117.30 C 181.00 119.00 176.95 121.06 172.93 123.21 C 174.04 121.67 175.37 120.31 176.84 119.11 C 174.21 117.36 174.08 114.50 175.17 111.81 M 175.27 114.68 C 176.14 115.95 177.04 117.21 177.94 118.47 C 178.75 118.17 180.38 117.58 181.19 117.28 C 180.84 116.76 180.15 115.70 179.81 115.18 C 179.62 114.53 179.23 113.24 179.04 112.59 C 177.77 113.26 176.51 113.96 175.27 114.68 Z" />
<path fill="#333333" opacity="1.00" d=" M 147.92 113.92 C 151.46 109.85 157.49 112.04 162.19 111.27 C 161.91 111.70 161.34 112.56 161.06 112.98 C 158.41 112.72 155.77 112.27 153.10 112.30 C 151.37 112.82 149.69 113.53 147.92 113.92 Z" />
<path fill="#333333" opacity="1.00" d=" M 166.23 111.44 C 166.62 111.89 167.40 112.80 167.79 113.26 C 169.55 114.10 171.35 114.86 173.12 115.69 C 172.57 115.91 171.47 116.35 170.93 116.57 C 169.47 115.74 168.04 114.87 166.60 114.02 C 166.50 113.37 166.32 112.08 166.23 111.44 Z" />
<path fill="#333333" opacity="1.00" d=" M 66.89 123.41 C 70.59 120.40 73.00 115.47 77.90 114.21 C 74.39 117.83 71.25 121.85 67.38 125.11 C 64.39 124.79 60.89 125.94 58.36 123.85 C 61.19 123.56 64.04 123.50 66.89 123.41 Z" />
<path fill="#333333" opacity="1.00" d=" M 87.11 126.77 C 91.06 125.28 94.88 122.97 99.26 123.23 C 94.43 125.68 89.10 126.92 83.92 128.39 C 82.52 127.73 81.31 126.76 80.07 125.85 C 80.62 125.65 81.73 125.26 82.28 125.07 C 83.70 126.06 85.23 127.41 87.11 126.77 Z" />
<path fill="#333333" opacity="1.00" d=" M 158.71 125.72 C 163.23 125.82 167.45 124.79 171.59 123.04 C 170.46 124.67 169.06 126.22 167.19 126.99 C 164.32 127.04 161.48 126.41 158.71 125.72 Z" />
<path fill="#333333" opacity="1.00" d=" M 51.74 130.68 C 52.45 128.46 53.37 126.29 54.79 124.43 C 55.30 127.07 54.03 129.41 51.74 130.68 Z" />
<path fill="#333333" opacity="1.00" d=" M 76.78 134.50 C 77.26 134.34 78.24 134.02 78.73 133.86 C 77.87 136.25 76.67 138.55 74.47 139.95 C 75.18 138.11 76.00 136.32 76.78 134.50 Z" />
<path fill="#333333" opacity="1.00" d=" M 107.28 143.82 C 110.30 141.40 113.15 138.19 117.13 137.47 C 120.49 137.55 123.83 138.13 127.20 138.02 C 123.32 140.82 118.18 139.83 113.89 141.60 C 111.69 142.40 109.87 144.54 107.28 143.82 Z" />
<path fill="#333333" opacity="1.00" d=" M 56.46 159.39 C 54.35 153.29 53.51 145.96 57.05 140.22 C 56.62 145.13 55.71 150.10 56.81 155.00 C 57.36 156.99 57.01 159.03 56.67 161.02 C 56.62 160.61 56.51 159.80 56.46 159.39 Z" />
<path fill="#333333" opacity="1.00" d=" M 83.50 149.28 C 86.57 155.13 86.01 162.13 85.70 168.53 C 84.31 162.20 84.14 155.71 83.50 149.28 Z" />
<path fill="#333333" opacity="1.00" d=" M 78.55 152.48 C 80.81 157.82 80.72 164.08 79.37 169.65 C 79.35 163.91 78.51 158.21 78.55 152.48 Z" />
<path fill="#333333" opacity="1.00" d=" M 55.75 181.15 C 56.81 179.09 57.18 176.47 59.33 175.18 C 58.81 177.49 58.03 179.80 56.78 181.83 C 55.51 182.70 53.77 182.27 52.31 182.52 C 52.45 182.13 52.72 181.35 52.85 180.95 C 53.58 181.00 55.02 181.10 55.75 181.15 Z" />
<path fill="#333333" opacity="1.00" d=" M 83.93 195.46 C 85.37 197.38 84.37 199.72 84.06 201.83 C 82.94 202.59 81.83 203.35 80.70 204.11 C 82.08 201.34 83.01 198.40 83.93 195.46 Z" />
<path fill="#333333" opacity="1.00" d=" M 49.18 206.17 C 50.60 205.55 52.12 205.18 53.61 204.77 C 55.65 206.62 58.29 207.41 60.75 208.49 C 61.91 209.45 61.01 210.92 60.78 212.07 C 59.54 211.84 59.01 210.65 58.29 209.77 C 56.60 208.76 54.93 207.71 53.34 206.55 C 51.94 206.65 48.99 208.95 49.18 206.17 Z" />
</g>
</svg>
