<?xml version="1.0" encoding="UTF-8" ?>
<!DOCTYPE svg PUBLIC "-//W3C//DTD SVG 1.1//EN" "http://www.w3.org/Graphics/SVG/1.1/DTD/svg11.dtd">
<svg width="233pt" height="300pt" viewBox="0 0 233 300" version="1.1" xmlns="http://www.w3.org/2000/svg">
<g id="#ffffffff">
<path fill="#FFFFFF" opacity="1.00" d=" M 0.00 0.00 L 233.00 0.00 L 233.00 300.00 L 0.00 300.00 L 0.00 0.00 M 152.82 15.69 C 150.47 17.27 149.70 20.13 148.54 22.56 C 146.72 27.01 149.02 31.62 150.29 35.89 C 147.60 39.84 146.81 44.83 143.47 48.35 C 140.44 51.99 139.92 56.73 139.26 61.22 C 138.10 65.29 141.06 69.00 140.75 73.07 C 140.59 79.48 143.85 85.16 146.77 90.62 C 147.96 97.01 147.78 103.45 146.48 109.80 C 145.27 109.82 144.07 109.83 142.87 109.84 C 143.39 116.74 138.50 122.42 137.62 129.04 C 138.07 133.11 139.47 137.01 140.44 140.99 C 139.33 143.60 137.51 146.11 137.61 149.06 C 137.58 151.01 138.99 152.47 139.94 154.03 C 138.86 160.20 141.38 166.38 141.27 172.61 C 140.60 176.57 141.04 180.76 139.45 184.54 C 136.85 191.02 135.49 198.03 135.80 205.01 C 136.00 214.23 135.28 223.80 131.30 232.25 C 130.07 235.12 130.71 238.31 130.27 241.33 C 131.64 242.94 133.33 244.21 135.21 245.18 C 138.23 244.74 141.28 244.43 144.16 243.36 C 143.61 246.27 142.45 249.03 141.84 251.93 C 141.93 254.52 142.49 257.50 144.95 258.91 C 149.65 262.46 155.78 260.22 160.96 259.20 C 165.37 259.77 170.08 261.22 174.21 258.73 C 175.73 258.84 177.38 259.61 178.86 258.95 C 182.49 256.04 185.73 251.72 185.18 246.80 C 182.01 244.39 177.60 244.88 173.83 244.75 C 170.24 241.84 166.68 238.87 163.29 235.73 C 161.82 234.51 161.12 232.72 160.45 231.00 C 161.58 226.03 161.98 220.92 163.15 215.95 C 164.70 209.18 165.94 202.06 164.89 195.18 C 164.67 195.14 164.23 195.05 164.02 195.01 C 162.11 199.55 163.59 204.55 162.31 209.21 C 161.04 217.04 156.58 224.79 158.94 232.87 C 160.00 237.10 164.06 239.18 166.84 242.16 C 168.70 243.92 170.33 246.33 173.08 246.69 C 176.12 247.06 179.26 246.27 182.25 247.27 C 183.51 251.03 181.74 254.54 178.74 256.84 C 175.72 256.53 172.77 256.75 169.96 257.97 C 165.51 257.76 160.94 255.93 156.59 257.81 C 152.19 259.61 147.49 257.64 144.20 254.60 C 144.91 248.28 147.93 242.44 148.01 236.04 C 148.13 231.38 148.32 226.71 148.14 222.06 C 147.53 216.69 146.54 211.28 147.22 205.87 C 147.92 202.16 148.71 198.46 150.04 194.92 C 151.79 190.14 152.04 185.03 152.97 180.08 C 153.33 174.29 151.61 168.64 150.61 162.99 C 150.29 160.70 149.04 158.70 147.93 156.73 C 147.71 161.49 147.91 166.28 149.08 170.91 C 151.46 179.25 149.75 188.10 146.98 196.12 C 144.86 202.34 145.33 209.19 142.10 215.07 L 143.72 215.41 C 143.96 214.53 144.45 212.79 144.70 211.92 C 145.84 221.48 146.46 231.32 144.62 240.83 C 141.41 243.45 135.90 244.04 133.40 240.07 C 133.04 240.64 132.32 241.77 131.96 242.33 C 132.27 241.74 132.89 240.56 133.19 239.97 C 133.18 237.52 132.91 234.98 133.93 232.68 C 136.48 226.45 137.71 219.76 138.18 213.06 C 138.23 207.34 137.89 201.61 138.13 195.89 C 138.69 191.37 140.78 187.25 141.98 182.91 C 142.74 179.01 142.88 175.01 143.72 171.12 C 143.40 166.11 142.88 161.10 142.51 156.08 C 144.09 156.60 145.68 157.06 147.29 157.47 C 146.01 154.05 141.65 153.84 140.10 150.73 C 139.73 147.34 141.34 144.09 142.73 141.08 C 142.17 139.24 141.61 137.41 141.05 135.58 C 142.54 137.82 144.41 139.90 145.10 142.56 C 145.74 144.29 146.77 147.31 149.18 146.56 C 149.16 144.68 148.91 142.81 148.62 140.95 C 146.13 139.73 144.20 137.75 142.78 135.39 C 140.61 134.63 140.03 132.21 139.35 130.29 C 140.31 123.70 143.75 117.85 145.45 111.46 C 150.93 115.79 157.55 119.34 164.77 118.71 L 164.73 116.88 C 158.13 117.41 152.51 113.49 146.50 111.54 L 148.95 110.79 C 148.26 110.94 146.89 111.24 146.21 111.38 C 146.66 110.49 147.55 108.70 148.00 107.80 C 154.23 113.79 163.98 116.35 172.04 112.70 C 172.26 114.85 173.48 116.58 174.71 118.27 C 175.03 121.25 174.46 124.36 173.27 127.13 C 171.48 130.99 173.82 135.14 173.00 139.12 C 172.53 141.40 174.08 143.69 173.05 145.91 C 171.76 148.76 172.66 151.80 173.56 154.61 C 167.64 158.37 160.30 158.18 153.58 157.65 C 151.73 156.56 149.86 155.45 148.17 154.11 C 148.02 152.21 148.06 150.31 148.03 148.42 C 145.40 148.29 146.31 151.05 146.21 152.78 C 146.11 155.96 149.31 157.66 151.06 159.89 C 157.93 160.29 165.20 161.29 171.45 157.60 C 170.15 161.49 168.82 165.39 167.34 169.22 C 167.41 169.69 167.54 170.62 167.61 171.08 C 167.82 174.82 169.07 178.82 167.27 182.37 C 166.37 184.72 164.61 186.68 163.93 189.10 C 164.25 190.29 163.64 193.21 165.21 193.36 C 165.40 193.19 165.77 192.84 165.96 192.66 C 166.51 187.23 170.50 182.61 170.05 177.02 C 170.05 174.77 169.26 172.43 170.24 170.29 C 171.86 166.28 172.87 162.07 173.77 157.85 C 176.09 155.32 175.34 151.99 174.65 148.99 C 175.77 142.70 175.32 136.24 174.70 129.91 C 174.52 126.75 177.23 124.12 176.56 120.94 C 176.57 118.61 175.34 116.62 174.40 114.58 C 174.47 112.34 175.37 110.03 174.20 107.91 C 173.74 107.50 172.82 106.69 172.35 106.28 L 172.95 107.17 C 174.10 111.27 169.65 111.80 166.86 112.58 C 160.24 112.60 154.13 109.67 148.16 107.14 C 148.39 104.71 149.37 102.44 149.63 100.04 C 149.44 96.06 149.14 92.04 148.16 88.17 C 143.43 82.33 142.67 74.53 142.03 67.31 C 141.18 62.57 141.37 57.69 142.73 53.07 C 143.29 49.73 146.59 47.95 147.79 44.93 C 149.27 41.56 151.40 38.45 152.51 34.94 C 151.67 30.39 148.64 25.30 151.82 20.95 C 153.39 16.32 158.70 15.15 163.04 15.35 C 166.01 15.18 168.65 16.81 171.31 17.87 C 174.41 19.11 174.21 22.99 174.83 25.74 C 175.04 30.87 175.61 36.28 173.25 41.04 L 172.27 40.69 C 172.99 41.41 173.72 42.11 174.48 42.80 C 176.10 39.75 177.33 36.39 176.93 32.89 C 177.07 27.40 178.71 20.27 173.21 16.74 C 169.47 13.51 164.42 14.43 159.94 13.44 C 157.55 14.07 154.81 14.05 152.82 15.69 M 180.50 38.65 C 174.82 41.58 172.16 47.99 171.00 53.94 C 168.47 52.51 165.88 51.01 164.92 48.07 C 165.73 47.22 166.55 46.37 167.37 45.52 C 169.86 45.11 172.65 44.97 174.32 42.73 C 171.24 42.48 168.13 43.10 165.08 42.48 C 162.43 42.27 160.85 39.88 158.73 38.58 C 160.14 41.51 163.07 43.08 165.50 45.03 C 164.22 46.71 163.07 48.48 161.98 50.29 C 162.53 50.82 163.62 51.88 164.17 52.41 C 163.53 51.96 162.25 51.05 161.61 50.60 C 160.06 50.77 158.53 51.07 157.03 51.45 C 155.55 56.05 149.34 55.47 147.80 59.99 C 151.48 58.62 154.63 55.85 158.73 55.81 C 158.59 55.04 158.29 53.48 158.14 52.71 C 160.70 53.30 163.61 53.89 165.32 56.09 C 166.59 59.06 166.34 62.41 166.34 65.57 C 166.31 68.25 163.77 69.55 162.08 71.20 C 163.68 70.98 165.35 70.19 166.96 70.70 C 168.23 71.58 169.35 72.69 170.33 73.89 C 170.43 76.32 169.98 78.73 170.10 81.16 C 169.30 81.37 167.70 81.80 166.90 82.01 C 167.45 78.62 164.84 76.57 162.37 74.95 C 163.27 76.35 164.25 77.70 165.26 79.03 C 164.86 81.26 164.38 83.47 163.84 85.67 C 167.58 84.41 171.26 82.98 174.77 81.17 C 175.94 78.29 177.71 75.69 179.50 73.16 C 178.27 71.28 177.22 69.30 176.33 67.24 C 176.85 65.34 176.87 63.44 176.39 61.54 C 180.47 61.44 177.30 67.22 180.56 68.26 C 182.70 68.94 184.97 69.13 187.19 69.48 C 189.45 69.91 191.19 67.97 193.08 67.07 C 193.28 66.56 193.68 65.53 193.88 65.01 C 194.95 64.78 197.11 64.31 198.19 64.07 C 196.97 66.29 196.53 69.49 193.93 70.58 C 191.39 71.86 188.95 73.78 185.93 73.47 C 184.15 73.31 182.60 74.21 181.52 75.57 C 183.66 75.39 185.79 75.17 187.94 75.07 C 186.20 79.01 185.07 83.23 182.97 87.01 C 179.14 91.90 175.07 96.59 170.62 100.94 C 169.40 101.68 168.23 102.50 167.08 103.33 C 166.92 102.91 166.59 102.07 166.43 101.65 C 165.93 101.45 164.93 101.07 164.44 100.87 C 162.86 98.50 161.09 96.10 161.22 93.09 C 157.11 88.60 152.90 83.44 152.57 77.08 C 152.75 74.15 150.84 71.81 149.73 69.26 C 148.89 69.13 147.19 68.86 146.34 68.73 C 148.62 71.34 150.75 74.29 150.82 77.90 C 150.97 83.90 154.83 88.81 158.26 93.40 C 159.22 97.97 162.07 102.57 166.65 104.16 C 169.04 104.27 171.18 102.72 173.46 102.16 C 173.63 103.12 173.11 106.32 175.11 105.52 C 175.62 103.32 176.02 101.09 176.29 98.84 C 178.62 96.58 180.62 94.02 182.73 91.56 C 185.14 88.43 186.32 84.61 187.98 81.07 C 189.29 78.21 189.35 73.92 193.12 73.21 C 197.97 72.09 200.10 67.20 200.63 62.71 C 204.25 57.98 203.91 51.70 203.00 46.14 C 201.29 42.01 197.34 39.51 193.71 37.24 C 189.36 36.16 184.41 36.14 180.50 38.65 M 156.18 80.67 C 156.98 83.70 158.18 86.63 159.63 89.40 C 159.96 89.49 160.60 89.67 160.92 89.75 C 160.80 86.48 159.21 82.44 156.18 80.67 M 163.82 93.61 C 165.61 93.39 167.36 92.95 169.07 92.39 C 170.34 90.67 171.71 89.02 172.91 87.25 C 172.42 87.30 171.44 87.39 170.95 87.44 C 168.67 89.61 166.32 91.69 163.82 93.61 M 172.39 121.45 C 171.21 123.16 170.09 124.92 169.10 126.74 C 170.57 125.28 173.21 123.93 172.39 121.45 M 156.15 169.86 C 157.95 172.17 158.96 174.87 159.46 177.74 C 160.93 175.14 159.86 172.26 158.87 169.72 C 157.96 169.74 157.05 169.79 156.15 169.86 M 164.27 170.97 C 164.17 173.05 164.76 175.16 165.90 176.90 C 166.08 175.22 166.19 173.53 166.23 171.85 C 166.68 170.48 164.45 169.02 164.27 170.97 M 154.78 175.37 C 155.14 177.56 155.91 179.70 155.87 181.94 C 156.01 184.37 155.19 187.08 156.92 189.16 C 157.15 184.82 156.98 180.47 157.00 176.12 C 156.44 175.93 155.34 175.56 154.78 175.37 M 152.19 241.30 C 152.48 244.12 151.06 248.61 154.59 249.82 C 154.35 246.98 153.67 244.18 153.67 241.32 C 153.30 241.32 152.56 241.31 152.19 241.30 Z" />
<path fill="#FFFFFF" opacity="1.00" d=" M 173.56 57.90 C 170.45 47.69 180.86 36.92 191.11 39.09 C 194.81 39.00 197.48 41.93 199.66 44.55 C 202.71 49.98 201.96 57.32 198.18 62.16 C 194.88 63.16 191.81 64.78 189.62 67.52 C 186.97 67.57 184.31 67.51 181.69 67.01 C 181.63 65.50 181.86 63.93 181.45 62.46 C 179.07 60.50 175.84 60.00 173.56 57.90 Z" />
<path fill="#FFFFFF" opacity="1.00" d=" M 165.12 53.46 C 169.74 54.60 171.24 59.50 174.85 62.04 C 175.53 65.70 174.14 69.71 177.01 72.70 C 175.58 74.98 173.97 77.14 172.12 79.10 C 172.25 74.92 170.90 70.62 167.24 68.23 C 167.91 67.10 168.58 65.98 169.24 64.85 C 168.35 60.88 166.39 57.29 165.12 53.46 Z" />
</g>
<g id="#1c1d1bff">
<path fill="#333333" opacity="1.00" d=" M 152.82 15.69 C 154.81 14.05 157.55 14.07 159.94 13.44 C 164.42 14.43 169.47 13.51 173.21 16.74 C 178.71 20.27 177.07 27.40 176.93 32.89 C 177.33 36.39 176.10 39.75 174.48 42.80 C 173.72 42.11 172.99 41.41 172.27 40.69 L 173.25 41.04 C 175.61 36.28 175.04 30.87 174.83 25.74 C 174.21 22.99 174.41 19.11 171.31 17.87 C 168.65 16.81 166.01 15.18 163.04 15.35 C 158.70 15.15 153.39 16.32 151.82 20.95 C 148.64 25.30 151.67 30.39 152.51 34.94 C 151.40 38.45 149.27 41.56 147.79 44.93 C 146.59 47.95 143.29 49.73 142.73 53.07 C 141.37 57.69 141.18 62.57 142.03 67.31 C 142.67 74.53 143.43 82.33 148.16 88.17 C 149.14 92.04 149.44 96.06 149.63 100.04 C 149.37 102.44 148.39 104.71 148.16 107.14 C 154.13 109.67 160.24 112.60 166.86 112.58 C 169.65 111.80 174.10 111.27 172.95 107.17 L 172.35 106.28 C 172.82 106.69 173.74 107.50 174.20 107.91 C 175.37 110.03 174.47 112.34 174.40 114.58 C 175.34 116.62 176.57 118.61 176.56 120.94 C 177.23 124.12 174.52 126.75 174.70 129.91 C 175.32 136.24 175.77 142.70 174.65 148.99 C 175.34 151.99 176.09 155.32 173.77 157.85 C 172.87 162.07 171.86 166.28 170.24 170.29 C 169.26 172.43 170.05 174.77 170.05 177.02 C 170.50 182.61 166.51 187.23 165.96 192.66 C 165.77 192.84 165.40 193.19 165.21 193.36 C 163.64 193.21 164.25 190.29 163.93 189.10 C 164.61 186.68 166.37 184.72 167.27 182.37 C 169.07 178.82 167.82 174.82 167.61 171.08 C 167.54 170.62 167.41 169.69 167.34 169.22 C 168.82 165.39 170.15 161.49 171.45 157.60 C 165.20 161.29 157.93 160.29 151.06 159.89 C 149.31 157.66 146.11 155.96 146.21 152.78 C 146.31 151.05 145.40 148.29 148.03 148.42 C 148.06 150.31 148.02 152.21 148.17 154.11 C 149.86 155.45 151.73 156.56 153.58 157.65 C 160.30 158.18 167.64 158.37 173.56 154.61 C 172.66 151.80 171.76 148.76 173.05 145.91 C 174.08 143.69 172.53 141.40 173.00 139.12 C 173.82 135.14 171.48 130.99 173.27 127.13 C 174.46 124.36 175.03 121.25 174.71 118.27 C 173.48 116.58 172.26 114.85 172.04 112.70 C 163.98 116.35 154.23 113.79 148.00 107.80 C 147.55 108.70 146.66 110.49 146.21 111.38 C 146.89 111.24 148.26 110.94 148.95 110.79 L 146.50 111.54 C 152.51 113.49 158.13 117.41 164.73 116.88 L 164.77 118.71 C 157.55 119.34 150.93 115.79 145.45 111.46 C 143.75 117.85 140.31 123.70 139.35 130.29 C 140.03 132.21 140.61 134.63 142.78 135.39 C 144.20 137.75 146.13 139.73 148.62 140.95 C 148.91 142.81 149.16 144.68 149.18 146.56 C 146.77 147.31 145.74 144.29 145.10 142.56 C 144.41 139.90 142.54 137.82 141.05 135.58 C 141.61 137.41 142.17 139.24 142.73 141.08 C 141.34 144.09 139.73 147.34 140.10 150.73 C 141.65 153.84 146.01 154.05 147.29 157.47 C 145.68 157.06 144.09 156.60 142.51 156.08 C 142.88 161.10 143.40 166.11 143.72 171.12 C 142.88 175.01 142.74 179.01 141.98 182.91 C 140.78 187.25 138.69 191.37 138.13 195.89 C 137.89 201.61 138.23 207.34 138.18 213.06 C 137.71 219.76 136.48 226.45 133.93 232.68 C 132.91 234.98 133.18 237.52 133.19 239.97 C 132.89 240.56 132.27 241.74 131.96 242.33 C 132.32 241.77 133.04 240.64 133.40 240.07 C 135.90 244.04 141.41 243.45 144.62 240.83 C 146.46 231.32 145.84 221.48 144.70 211.92 C 144.45 212.79 143.96 214.53 143.72 215.41 L 142.10 215.07 C 145.33 209.19 144.86 202.34 146.98 196.12 C 149.75 188.10 151.46 179.25 149.08 170.91 C 147.91 166.28 147.71 161.49 147.93 156.73 C 149.04 158.70 150.29 160.70 150.61 162.99 C 151.61 168.64 153.33 174.29 152.97 180.08 C 152.04 185.03 151.79 190.14 150.04 194.92 C 148.71 198.46 147.92 202.16 147.22 205.87 C 146.54 211.28 147.53 216.69 148.14 222.06 C 148.32 226.71 148.13 231.38 148.01 236.04 C 147.93 242.44 144.91 248.28 144.20 254.60 C 147.49 257.64 152.19 259.61 156.59 257.81 C 160.94 255.93 165.51 257.76 169.96 257.97 C 172.77 256.75 175.72 256.53 178.74 256.84 C 181.74 254.54 183.51 251.03 182.25 247.27 C 179.26 246.27 176.12 247.06 173.08 246.69 C 170.33 246.33 168.70 243.92 166.84 242.16 C 164.06 239.18 160.00 237.10 158.94 232.87 C 156.58 224.79 161.04 217.04 162.31 209.21 C 163.59 204.55 162.11 199.55 164.02 195.01 C 164.23 195.05 164.67 195.14 164.89 195.18 C 165.94 202.06 164.70 209.18 163.15 215.95 C 161.98 220.92 161.58 226.03 160.45 231.00 C 161.12 232.72 161.82 234.51 163.29 235.73 C 166.68 238.87 170.24 241.84 173.83 244.75 C 177.60 244.88 182.01 244.39 185.18 246.80 C 185.73 251.72 182.49 256.04 178.86 258.95 C 177.38 259.61 175.73 258.84 174.21 258.73 C 170.08 261.22 165.37 259.77 160.96 259.20 C 155.78 260.22 149.65 262.46 144.95 258.91 C 142.49 257.50 141.93 254.52 141.84 251.93 C 142.45 249.03 143.61 246.27 144.16 243.36 C 141.28 244.43 138.23 244.74 135.21 245.18 C 133.33 244.21 131.64 242.94 130.27 241.33 C 130.71 238.31 130.07 235.12 131.30 232.25 C 135.28 223.80 136.00 214.23 135.80 205.01 C 135.49 198.03 136.85 191.02 139.45 184.54 C 141.04 180.76 140.60 176.57 141.27 172.61 C 141.38 166.38 138.86 160.20 139.94 154.03 C 138.99 152.47 137.58 151.01 137.61 149.06 C 137.51 146.11 139.33 143.60 140.44 140.99 C 139.47 137.01 138.07 133.11 137.62 129.04 C 138.50 122.42 143.39 116.74 142.87 109.84 C 144.07 109.83 145.27 109.82 146.48 109.80 C 147.78 103.45 147.96 97.01 146.77 90.62 C 143.85 85.16 140.59 79.48 140.75 73.07 C 141.06 69.00 138.10 65.29 139.26 61.22 C 139.92 56.73 140.44 51.99 143.47 48.35 C 146.81 44.83 147.60 39.84 150.29 35.89 C 149.02 31.62 146.72 27.01 148.54 22.56 C 149.70 20.13 150.47 17.27 152.82 15.69 Z" />
<path fill="#333333" opacity="1.00" d=" M 180.50 38.65 C 184.41 36.14 189.36 36.16 193.71 37.24 C 197.34 39.51 201.29 42.01 203.00 46.14 C 203.91 51.70 204.25 57.98 200.63 62.71 C 200.10 67.20 197.97 72.09 193.12 73.21 C 189.35 73.92 189.29 78.21 187.98 81.07 C 186.32 84.61 185.14 88.43 182.73 91.56 C 180.62 94.02 178.62 96.58 176.29 98.84 C 176.02 101.09 175.62 103.32 175.11 105.52 C 173.11 106.32 173.63 103.12 173.46 102.16 C 171.18 102.72 169.04 104.27 166.65 104.16 C 162.07 102.57 159.22 97.97 158.26 93.40 C 154.83 88.81 150.97 83.90 150.82 77.90 C 150.75 74.29 148.62 71.34 146.34 68.73 C 147.19 68.86 148.89 69.13 149.73 69.26 C 150.84 71.81 152.75 74.15 152.57 77.08 C 152.90 83.44 157.11 88.60 161.22 93.09 C 161.09 96.10 162.86 98.50 164.44 100.87 C 164.93 101.07 165.93 101.45 166.43 101.65 C 166.59 102.07 166.92 102.91 167.08 103.33 C 168.23 102.50 169.40 101.68 170.62 100.94 C 175.07 96.59 179.14 91.90 182.97 87.01 C 185.07 83.23 186.20 79.01 187.94 75.07 C 185.79 75.17 183.66 75.39 181.52 75.57 C 182.60 74.21 184.15 73.31 185.93 73.47 C 188.95 73.78 191.39 71.86 193.93 70.58 C 196.53 69.49 196.97 66.29 198.19 64.07 C 197.11 64.31 194.95 64.78 193.88 65.01 C 193.68 65.53 193.28 66.56 193.08 67.07 C 191.19 67.97 189.45 69.91 187.19 69.48 C 184.97 69.13 182.70 68.94 180.56 68.26 C 177.30 67.22 180.47 61.44 176.39 61.54 C 176.87 63.44 176.85 65.34 176.33 67.24 C 177.22 69.30 178.27 71.28 179.50 73.16 C 177.71 75.69 175.94 78.29 174.77 81.17 C 171.26 82.98 167.58 84.41 163.84 85.67 C 164.38 83.47 164.86 81.26 165.26 79.03 C 164.25 77.70 163.27 76.35 162.37 74.95 C 164.84 76.57 167.45 78.62 166.90 82.01 C 167.70 81.80 169.30 81.37 170.10 81.16 C 169.98 78.73 170.43 76.32 170.33 73.89 C 169.35 72.69 168.23 71.58 166.96 70.70 C 165.35 70.19 163.68 70.98 162.08 71.20 C 163.77 69.55 166.31 68.25 166.34 65.57 C 166.34 62.41 166.59 59.06 165.32 56.09 C 163.61 53.89 160.70 53.30 158.14 52.71 C 158.29 53.48 158.59 55.04 158.73 55.81 C 154.63 55.85 151.48 58.62 147.80 59.99 C 149.34 55.47 155.55 56.05 157.03 51.45 C 158.53 51.07 160.06 50.77 161.61 50.60 C 162.25 51.05 163.53 51.96 164.17 52.41 C 163.62 51.88 162.53 50.82 161.98 50.29 C 163.07 48.48 164.22 46.71 165.50 45.03 C 163.07 43.08 160.14 41.51 158.73 38.58 C 160.85 39.88 162.43 42.27 165.08 42.48 C 168.13 43.10 171.24 42.48 174.32 42.73 C 172.65 44.97 169.86 45.11 167.37 45.52 C 166.55 46.37 165.73 47.22 164.92 48.07 C 165.88 51.01 168.47 52.51 171.00 53.94 C 172.16 47.99 174.82 41.58 180.50 38.65 M 173.56 57.90 C 175.84 60.00 179.07 60.50 181.45 62.46 C 181.86 63.93 181.63 65.50 181.69 67.01 C 184.31 67.51 186.97 67.57 189.62 67.52 C 191.81 64.78 194.88 63.16 198.18 62.16 C 201.96 57.32 202.71 49.98 199.66 44.55 C 197.48 41.93 194.81 39.00 191.11 39.09 C 180.86 36.92 170.45 47.69 173.56 57.90 M 165.12 53.46 C 166.39 57.29 168.35 60.88 169.24 64.85 C 168.58 65.98 167.91 67.10 167.24 68.23 C 170.90 70.62 172.25 74.92 172.12 79.10 C 173.97 77.14 175.58 74.98 177.01 72.70 C 174.14 69.71 175.53 65.70 174.85 62.04 C 171.24 59.50 169.74 54.60 165.12 53.46 Z" />
<path fill="#333333" opacity="1.00" d=" M 156.18 80.67 C 159.21 82.44 160.80 86.48 160.92 89.75 C 160.60 89.67 159.96 89.49 159.63 89.40 C 158.18 86.63 156.98 83.70 156.18 80.67 Z" />
<path fill="#333333" opacity="1.00" d=" M 163.82 93.61 C 166.32 91.69 168.67 89.61 170.95 87.44 C 171.44 87.39 172.42 87.30 172.91 87.25 C 171.71 89.02 170.34 90.67 169.07 92.39 C 167.36 92.95 165.61 93.39 163.82 93.61 Z" />
<path fill="#333333" opacity="1.00" d=" M 172.39 121.45 C 173.21 123.93 170.57 125.28 169.10 126.74 C 170.09 124.92 171.21 123.16 172.39 121.45 Z" />
<path fill="#333333" opacity="1.00" d=" M 156.15 169.86 C 157.05 169.79 157.96 169.74 158.87 169.72 C 159.86 172.26 160.93 175.14 159.46 177.74 C 158.96 174.87 157.95 172.17 156.15 169.86 Z" />
<path fill="#333333" opacity="1.00" d=" M 164.27 170.97 C 164.45 169.02 166.68 170.48 166.23 171.85 C 166.19 173.53 166.08 175.22 165.90 176.90 C 164.76 175.16 164.17 173.05 164.27 170.97 Z" />
<path fill="#333333" opacity="1.00" d=" M 154.78 175.37 C 155.34 175.56 156.44 175.93 157.00 176.12 C 156.98 180.47 157.15 184.82 156.92 189.16 C 155.19 187.08 156.01 184.37 155.87 181.94 C 155.91 179.70 155.14 177.56 154.78 175.37 Z" />
<path fill="#333333" opacity="1.00" d=" M 152.19 241.30 C 152.56 241.31 153.30 241.32 153.67 241.32 C 153.67 244.18 154.35 246.98 154.59 249.82 C 151.06 248.61 152.48 244.12 152.19 241.30 Z" />
</g>
</svg>
