<?xml version="1.0" encoding="UTF-8" ?>
<!DOCTYPE svg PUBLIC "-//W3C//DTD SVG 1.1//EN" "http://www.w3.org/Graphics/SVG/1.1/DTD/svg11.dtd">
<svg width="194pt" height="275pt" viewBox="0 0 194 275" version="1.1" xmlns="http://www.w3.org/2000/svg">
<g id="#ffffffff">
<path fill="#FFFFFF" opacity="1.00" d=" M 0.00 0.00 L 194.00 0.00 L 194.00 275.00 L 0.00 275.00 L 0.00 0.00 M 94.47 17.32 C 89.46 18.26 85.68 22.67 84.72 27.55 C 83.38 33.59 82.12 39.83 82.95 46.04 C 86.41 48.51 92.31 48.02 93.48 52.97 C 87.97 55.01 85.32 60.75 83.19 65.80 C 77.79 67.21 73.12 70.31 68.81 73.75 C 66.69 75.63 63.66 75.06 61.07 75.48 C 56.52 75.86 52.56 78.32 48.90 80.85 C 49.91 77.67 50.18 74.33 49.89 71.01 C 49.14 61.74 50.34 52.41 49.37 43.15 C 48.88 45.39 48.46 47.65 48.36 49.94 C 47.99 60.14 48.17 70.35 48.29 80.56 C 44.25 82.39 40.58 85.00 36.34 86.39 C 36.26 72.81 36.28 59.23 36.31 45.65 L 34.96 45.76 C 34.91 58.99 34.94 72.22 34.94 85.46 C 33.32 84.77 31.77 83.87 30.07 83.36 C 26.13 84.47 22.36 86.15 18.57 87.70 C 16.13 88.71 16.41 91.55 16.53 93.72 C 14.60 94.26 12.75 95.03 10.99 95.99 C 11.26 98.19 11.49 100.40 11.85 102.59 C 12.40 103.01 13.50 103.86 14.05 104.28 C 19.72 103.71 24.88 100.64 29.70 97.76 C 24.30 98.26 19.78 101.63 14.65 103.11 C 12.49 100.94 10.86 97.07 14.39 95.26 C 15.21 97.31 16.01 99.38 16.98 101.37 C 17.15 99.92 17.22 98.48 17.24 97.03 C 16.64 96.63 15.44 95.84 14.83 95.44 C 17.86 94.76 20.70 93.01 23.85 93.05 C 27.56 94.77 30.37 99.11 35.08 97.68 C 35.00 109.93 35.23 122.19 34.87 134.44 C 35.10 141.83 35.25 149.23 35.07 156.62 C 34.29 156.74 33.52 156.87 32.74 156.99 C 47.52 160.32 62.74 161.22 77.77 163.12 C 75.52 174.93 78.05 186.95 77.87 198.84 C 78.19 199.38 78.82 200.46 79.14 201.00 C 80.71 201.24 82.28 201.47 83.86 201.71 C 83.60 209.95 84.81 218.22 83.73 226.42 C 81.93 227.30 80.03 227.99 78.17 228.74 C 65.15 225.50 52.42 221.09 39.19 218.71 C 33.91 217.64 28.82 215.27 23.31 215.92 C 23.15 213.84 22.91 211.77 22.50 209.72 C 22.52 211.73 22.63 213.74 22.80 215.74 C 22.40 216.04 21.59 216.63 21.18 216.92 C 25.43 217.28 29.71 217.79 33.77 219.19 C 40.03 221.31 46.61 222.24 52.97 224.01 C 60.36 225.85 67.56 228.42 75.10 229.64 C 78.83 231.11 82.73 229.37 85.70 227.09 C 86.22 218.62 85.82 210.13 85.61 201.65 C 89.89 198.95 94.83 197.12 98.39 193.41 C 98.60 199.78 99.87 206.08 101.75 212.16 C 103.30 216.47 103.72 221.06 102.56 225.52 C 97.85 228.34 94.12 232.47 89.77 235.72 C 86.34 235.64 82.81 235.75 79.63 237.19 C 79.48 238.43 79.48 239.68 79.41 240.92 C 80.19 242.61 81.07 244.25 82.03 245.85 C 84.88 247.22 87.56 249.52 90.94 249.05 C 97.66 248.76 104.30 249.89 110.96 250.51 C 113.77 250.68 117.19 250.56 119.04 248.07 C 120.07 246.34 120.09 244.23 120.60 242.32 C 120.11 240.94 119.62 239.56 119.12 238.19 C 122.52 235.56 125.56 232.41 127.61 228.60 C 128.92 227.02 128.32 224.89 127.73 223.16 C 125.66 219.22 122.24 215.77 117.68 215.06 C 116.90 211.36 116.97 207.56 117.00 203.80 C 118.92 207.47 120.59 211.28 121.95 215.20 C 122.61 214.44 123.29 213.68 123.96 212.93 C 127.02 215.67 130.30 219.40 128.49 223.85 C 128.97 224.51 129.45 225.16 129.95 225.82 C 131.93 223.83 134.04 221.93 135.75 219.69 C 137.77 217.33 137.58 213.94 137.13 211.06 C 135.45 206.70 130.66 203.57 125.97 205.37 C 126.03 200.57 126.23 195.76 126.05 190.96 C 125.84 185.99 123.67 181.44 122.22 176.76 C 121.74 173.17 121.27 169.56 121.10 165.94 C 121.53 161.00 122.64 156.03 121.64 151.07 C 122.96 149.23 124.84 147.41 124.73 144.96 C 124.47 141.93 122.78 139.28 121.48 136.62 C 122.73 133.16 124.47 129.76 124.83 126.07 C 123.72 121.51 121.98 117.09 120.09 112.80 C 120.14 111.44 120.22 110.08 120.30 108.72 C 119.00 108.57 117.71 108.43 116.42 108.28 C 115.56 100.42 119.03 93.07 120.40 85.47 C 122.84 76.12 121.73 66.26 118.82 57.16 C 117.10 53.11 113.11 50.56 111.39 46.49 C 110.42 44.14 109.49 41.76 108.26 39.53 C 108.36 41.69 108.36 43.92 109.12 45.98 C 111.77 50.42 115.71 54.12 117.37 59.12 C 120.04 67.47 120.93 76.66 118.41 85.17 C 116.58 91.85 113.51 98.59 114.73 105.67 C 109.87 108.38 104.57 110.32 99.02 110.95 C 96.83 111.23 93.65 110.63 93.42 107.93 C 93.80 104.55 94.83 101.28 95.33 97.91 C 94.58 98.56 93.84 99.21 93.10 99.87 C 92.56 103.22 91.64 106.58 92.14 110.01 L 91.42 110.02 C 89.54 104.17 87.74 98.31 85.06 92.77 C 85.76 92.79 87.17 92.84 87.87 92.86 C 89.26 91.37 91.60 90.30 91.99 88.18 C 89.67 88.63 87.98 90.78 86.59 92.57 C 85.59 90.15 85.15 87.52 84.99 84.92 C 87.83 83.36 90.86 82.17 93.62 80.45 C 94.86 81.72 96.11 82.98 97.43 84.17 C 96.48 84.99 95.52 85.78 94.55 86.57 C 93.22 85.93 91.89 85.30 90.56 84.69 C 90.67 85.21 90.91 86.24 91.03 86.75 C 91.96 87.21 92.87 87.71 93.75 88.26 C 93.96 88.85 94.37 90.03 94.57 90.63 C 95.99 91.40 97.43 92.15 98.89 92.85 C 99.73 91.49 100.58 90.13 101.38 88.75 C 100.10 89.40 98.83 90.06 97.57 90.73 C 96.52 89.85 95.46 88.98 94.40 88.12 C 96.29 87.97 97.77 87.00 98.68 85.39 C 104.20 88.35 101.58 95.83 106.33 99.51 C 105.80 95.34 105.37 91.02 103.80 87.10 C 101.16 84.04 97.75 81.75 94.70 79.14 C 96.00 77.55 97.32 75.98 98.65 74.42 C 100.92 75.06 103.26 75.14 105.59 74.90 C 104.22 73.79 102.74 72.83 101.13 72.09 C 101.06 71.32 100.91 69.77 100.83 68.99 C 98.05 72.13 95.88 75.83 92.55 78.44 C 89.25 81.07 85.11 82.28 81.61 84.60 C 78.80 86.57 75.34 87.01 72.19 88.17 C 71.50 87.82 70.83 87.45 70.16 87.08 L 72.01 86.74 C 70.30 85.53 68.59 84.31 66.73 83.35 C 67.47 85.54 68.87 87.37 70.49 88.98 C 67.16 90.61 63.85 92.86 60.02 92.94 C 54.37 92.99 48.71 93.10 43.10 93.73 C 38.68 94.44 34.46 96.50 29.88 95.92 C 29.07 94.48 28.30 92.85 26.63 92.24 C 24.05 90.50 21.04 92.33 18.46 93.05 C 18.69 91.96 19.14 89.80 19.37 88.71 C 22.59 87.57 25.77 86.30 29.00 85.18 C 32.65 86.94 36.67 87.80 40.70 86.99 C 43.48 84.37 46.97 82.83 50.63 81.90 C 54.35 78.80 59.18 77.32 63.96 77.14 C 65.86 76.98 68.03 76.98 69.50 75.58 C 73.06 72.51 76.88 69.37 81.55 68.25 C 83.36 67.87 84.93 66.84 86.32 65.66 C 88.57 65.79 90.82 65.95 93.07 66.13 C 93.19 65.71 93.42 64.88 93.53 64.46 C 90.41 64.53 87.33 65.06 84.22 65.28 C 86.50 62.20 88.49 58.85 91.26 56.17 C 93.38 54.14 96.49 54.17 99.20 53.60 C 94.77 54.27 95.43 48.24 91.70 47.57 C 88.87 46.71 84.32 46.77 84.13 42.84 C 84.75 36.67 85.55 30.45 87.59 24.57 C 91.15 18.04 99.78 18.83 106.08 19.32 C 110.84 19.68 111.19 25.33 111.88 28.96 C 112.73 33.31 108.73 36.11 106.68 39.38 C 108.19 38.75 110.09 38.57 111.08 37.09 C 115.47 31.91 113.68 23.92 110.08 18.82 C 105.48 16.11 99.54 16.16 94.47 17.32 M 98.20 31.90 C 99.58 32.52 100.95 33.17 102.31 33.86 C 101.33 36.23 99.79 38.27 97.38 39.30 C 95.46 42.23 92.36 43.93 89.64 46.00 C 91.89 45.70 94.28 45.49 96.22 44.17 C 97.33 43.12 97.70 41.54 98.39 40.21 C 98.99 40.16 100.19 40.06 100.79 40.01 C 102.77 37.16 104.46 33.41 101.84 30.37 C 100.61 30.86 99.40 31.38 98.20 31.90 M 42.70 44.28 C 42.32 57.20 42.03 70.18 42.70 83.10 C 44.75 78.65 43.90 73.72 44.02 69.00 C 43.87 60.76 44.69 52.38 42.70 44.28 M 103.15 44.44 C 102.52 46.85 101.96 49.28 101.41 51.71 C 102.39 50.80 103.35 49.87 104.31 48.94 C 103.96 47.43 103.60 45.92 103.15 44.44 M 100.16 56.92 C 101.52 60.81 106.13 63.53 109.72 60.63 C 107.86 60.24 105.98 59.96 104.09 59.72 C 102.84 58.70 101.54 57.75 100.16 56.92 M 109.69 59.38 C 110.70 61.58 112.10 63.54 113.57 65.46 C 114.06 68.78 114.25 72.15 114.85 75.45 C 118.26 69.88 116.14 61.54 109.69 59.38 M 97.27 66.92 C 100.21 68.32 103.78 68.33 106.63 66.67 C 103.64 64.99 100.22 65.34 97.27 66.92 M 84.87 73.90 C 83.35 74.37 81.73 74.21 80.16 74.32 C 80.89 74.98 81.63 75.65 82.37 76.32 C 85.82 75.96 88.80 73.72 89.50 70.20 C 87.83 71.28 86.47 72.75 84.87 73.90 M 72.74 78.64 C 71.50 80.53 68.91 80.20 67.06 81.00 C 69.11 81.91 71.78 82.60 73.49 80.66 C 75.70 77.51 78.01 74.44 80.42 71.44 C 76.95 72.72 74.88 75.83 72.74 78.64 M 83.88 77.56 C 82.87 79.36 81.79 81.11 80.81 82.93 C 83.05 81.74 84.79 79.91 85.86 77.60 C 85.37 77.59 84.38 77.57 83.88 77.56 M 53.37 81.17 C 57.56 80.62 61.44 82.62 65.56 82.48 C 65.61 81.57 65.18 81.02 64.27 80.83 C 60.81 79.24 56.82 79.88 53.37 81.17 M 52.08 87.28 C 52.46 87.62 53.24 88.30 53.63 88.64 C 56.41 88.23 59.09 87.30 61.41 85.69 C 58.28 86.11 55.18 86.73 52.08 87.28 M 89.09 97.62 C 89.93 97.42 90.78 97.22 91.63 97.02 C 92.85 95.11 94.18 93.28 95.34 91.34 C 92.29 92.31 90.62 95.03 89.09 97.62 M 34.38 163.34 C 34.97 164.51 36.05 165.56 35.92 166.97 C 35.98 181.38 35.90 195.80 35.95 210.21 C 31.41 209.40 26.92 208.09 22.27 208.23 C 27.58 210.82 33.57 211.31 39.14 213.15 C 51.12 216.48 63.12 219.64 75.13 222.82 C 75.00 221.66 74.85 220.51 74.69 219.36 C 73.97 219.61 73.25 219.88 72.54 220.16 C 67.68 219.10 62.76 218.17 58.12 216.29 C 57.90 213.08 56.10 209.17 59.01 206.63 C 59.48 208.61 59.24 210.82 60.13 212.71 C 64.47 214.06 69.00 215.45 73.59 214.90 C 69.47 213.00 64.89 212.60 60.50 211.63 C 60.53 210.13 60.56 208.63 60.58 207.14 C 65.38 204.18 69.88 200.77 74.53 197.59 C 74.50 204.29 74.27 210.99 74.28 217.69 C 74.77 217.47 75.74 217.04 76.23 216.82 C 76.27 207.24 76.53 197.65 76.26 188.06 C 75.85 181.43 75.93 174.78 76.35 168.15 C 62.35 166.70 48.39 164.68 34.38 163.34 Z" />
<path fill="#FFFFFF" opacity="1.00" d=" M 72.89 89.99 C 76.65 88.92 80.37 87.70 83.89 85.96 C 83.86 89.70 83.20 93.66 84.92 97.16 C 86.92 101.36 88.31 105.81 89.72 110.24 C 90.85 113.31 88.05 115.95 87.95 118.97 C 87.40 122.45 90.66 125.38 89.65 128.90 C 88.76 132.83 89.80 136.87 88.76 140.79 C 90.34 143.78 89.71 146.99 88.55 150.00 C 89.10 151.10 89.65 152.19 90.20 153.29 C 91.72 153.62 93.25 153.93 94.79 154.20 C 91.85 155.42 88.91 156.66 85.92 157.75 C 74.30 157.11 62.78 154.88 51.19 154.14 C 51.06 154.39 50.79 154.89 50.66 155.15 C 61.77 157.62 73.22 158.29 84.57 158.82 C 82.54 159.79 80.59 161.55 78.19 161.13 C 68.80 160.51 59.57 158.30 50.16 157.89 C 49.70 146.23 49.90 134.55 49.55 122.89 C 48.84 134.59 49.08 146.32 49.26 158.04 C 47.62 157.78 45.98 157.49 44.33 157.21 C 44.80 144.44 43.44 131.72 43.72 118.96 C 43.58 111.14 44.93 103.23 43.23 95.49 C 45.16 95.52 47.08 95.56 49.00 95.55 C 48.76 103.63 49.25 111.70 49.43 119.77 C 50.15 111.58 49.69 103.31 50.77 95.15 C 53.85 95.05 56.94 95.08 60.02 95.02 C 64.76 94.79 68.88 92.25 72.89 89.99 Z" />
<path fill="#FFFFFF" opacity="1.00" d=" M 36.66 97.13 C 38.58 96.70 40.50 96.28 42.42 95.86 C 42.41 109.90 41.55 123.95 42.43 137.97 C 42.38 144.32 42.42 150.67 42.51 157.02 C 40.60 156.93 38.68 156.84 36.77 156.74 C 37.26 154.34 37.62 151.90 37.32 149.46 C 35.98 132.04 37.44 114.56 36.66 97.13 Z" />
<path fill="#FFFFFF" opacity="1.00" d=" M 92.33 111.22 C 99.90 113.89 109.16 112.70 114.89 106.74 C 115.47 107.87 116.06 109.00 116.67 110.12 C 112.22 111.18 108.35 113.88 103.84 114.71 C 101.68 114.99 99.50 115.09 97.36 115.48 C 101.02 117.93 105.44 116.61 109.21 115.15 C 112.26 114.14 114.65 111.91 117.22 110.07 C 119.90 117.46 125.07 125.13 121.97 133.22 C 121.58 132.82 120.81 132.02 120.43 131.62 C 118.10 135.72 114.03 139.08 113.80 144.12 C 114.55 142.90 115.22 141.63 115.85 140.33 C 117.78 137.93 119.62 135.45 121.74 133.19 C 121.41 134.33 120.77 136.60 120.44 137.73 C 121.36 140.39 122.30 143.44 122.83 146.33 C 121.80 148.66 119.41 149.81 117.55 151.36 C 116.63 148.99 116.69 146.35 115.56 144.05 C 115.14 146.13 114.98 148.25 114.84 150.36 C 112.95 151.35 111.14 152.49 109.37 153.67 C 103.13 154.04 96.81 153.65 91.05 151.01 C 91.38 149.04 92.05 147.11 92.00 145.09 C 90.77 139.45 91.40 133.60 91.92 127.90 C 91.84 125.34 90.58 123.04 89.49 120.80 C 90.60 120.85 91.71 120.90 92.82 120.95 L 91.89 121.62 C 92.86 122.58 93.84 123.54 94.84 124.48 C 94.17 122.86 93.45 121.27 92.76 119.66 C 92.14 119.90 90.91 120.40 90.29 120.65 C 90.04 119.15 89.76 117.65 89.45 116.16 C 91.15 114.98 92.22 113.31 92.33 111.22 Z" />
<path fill="#FFFFFF" opacity="1.00" d=" M 117.77 153.06 C 118.47 152.75 119.86 152.15 120.56 151.84 C 121.68 156.95 119.57 161.91 119.53 166.99 C 120.26 171.74 120.26 176.65 121.94 181.20 C 123.08 184.42 124.12 187.70 124.44 191.12 C 125.13 196.26 123.95 201.41 124.48 206.56 C 123.53 207.57 122.57 208.57 121.62 209.57 C 118.88 204.67 116.70 199.50 116.44 193.82 C 114.22 187.10 112.82 180.16 112.39 173.09 C 113.15 168.36 114.63 163.74 115.04 158.95 C 114.69 157.50 113.78 156.29 113.12 154.98 C 113.64 154.37 114.67 153.14 115.18 152.53 C 115.83 152.66 117.13 152.93 117.77 153.06 Z" />
<path fill="#FFFFFF" opacity="1.00" d=" M 96.27 163.09 C 95.93 160.44 94.27 157.76 95.58 155.12 C 101.33 156.92 107.28 155.86 113.14 155.71 C 113.46 161.94 111.33 167.87 110.77 174.00 C 111.12 180.05 112.01 186.15 114.11 191.87 C 115.53 196.90 116.62 202.22 115.54 207.44 C 114.89 210.18 115.65 212.92 115.77 215.67 C 111.98 219.38 105.99 221.86 105.37 227.82 C 102.76 235.02 111.24 242.14 118.00 239.29 C 117.71 241.77 118.82 244.89 116.73 246.82 C 114.19 250.07 109.69 248.87 106.16 248.60 C 100.80 247.56 95.35 247.48 89.92 247.32 C 86.83 247.33 84.31 245.25 82.03 243.40 C 82.09 241.56 82.14 239.72 82.14 237.87 C 85.86 236.76 90.05 238.31 93.54 236.46 C 96.28 233.84 98.93 231.12 101.82 228.66 C 104.46 225.29 105.94 220.65 104.57 216.44 C 103.58 210.52 101.30 204.87 100.83 198.85 C 100.41 195.51 100.72 192.07 99.69 188.82 C 99.03 186.86 99.59 184.81 99.81 182.83 C 98.59 180.28 96.98 177.87 96.19 175.12 C 95.42 171.12 97.25 167.08 96.27 163.09 M 106.70 183.34 C 108.42 178.99 107.76 174.09 107.96 169.50 C 105.35 173.56 105.88 178.82 106.70 183.34 Z" />
<path fill="#FFFFFF" opacity="1.00" d=" M 79.00 163.65 C 83.42 161.38 87.74 158.91 92.21 156.72 C 92.90 159.53 93.80 162.28 94.33 165.12 C 94.60 167.75 93.81 170.35 93.91 172.99 C 93.77 177.04 95.81 180.65 97.42 184.21 C 97.32 186.93 97.62 189.64 98.05 192.33 C 94.17 194.18 90.56 196.50 86.90 198.73 C 84.67 200.07 81.99 199.43 79.61 199.03 C 79.16 187.24 78.78 175.45 79.00 163.65 M 80.43 163.57 C 82.41 164.91 84.68 165.81 86.52 167.36 C 88.83 176.32 87.77 185.79 86.24 194.78 C 86.66 194.60 87.51 194.24 87.93 194.06 C 90.53 189.06 89.73 183.35 90.13 177.93 C 90.50 173.98 89.02 170.24 88.85 166.33 C 86.39 164.54 83.47 163.55 80.43 163.57 Z" />
<path fill="#FFFFFF" opacity="1.00" d=" M 37.50 165.08 C 39.00 165.39 40.50 165.69 42.00 166.00 C 41.98 181.28 42.04 196.56 42.00 211.83 C 40.51 211.51 39.02 211.20 37.53 210.88 C 37.61 195.62 37.50 180.35 37.50 165.08 Z" />
<path fill="#FFFFFF" opacity="1.00" d=" M 44.04 166.21 C 45.63 166.33 47.22 166.47 48.81 166.63 C 49.42 173.64 49.10 180.66 49.26 187.68 C 46.61 192.37 47.26 197.90 48.20 202.96 C 48.67 205.06 50.63 206.27 52.07 207.66 C 52.08 210.04 52.03 212.42 51.92 214.79 C 49.26 214.04 46.61 213.24 44.01 212.29 C 44.19 196.93 44.19 181.56 44.04 166.21 Z" />
<path fill="#FFFFFF" opacity="1.00" d=" M 49.73 166.81 C 57.79 168.47 66.08 168.41 74.14 170.01 C 74.32 170.82 74.69 172.45 74.88 173.27 C 72.51 173.34 70.14 173.30 67.77 173.16 C 68.23 177.35 67.28 181.82 69.12 185.77 C 70.06 188.01 71.36 190.08 72.88 191.97 C 73.12 191.94 73.61 191.88 73.85 191.85 C 75.04 190.08 72.93 188.35 72.37 186.69 C 70.25 183.23 69.79 179.15 69.68 175.17 C 71.15 175.06 72.63 174.95 74.11 174.83 C 73.71 181.48 74.64 188.10 74.81 194.74 C 71.64 192.06 68.33 189.09 67.37 184.86 C 65.47 179.75 66.28 174.28 65.85 168.98 C 62.95 174.60 64.43 181.40 65.70 187.30 C 66.44 191.43 70.06 193.81 73.04 196.29 C 70.13 198.24 67.25 200.25 64.47 202.40 C 65.81 195.79 65.22 187.49 58.65 183.86 C 58.47 184.47 58.09 185.70 57.90 186.32 C 57.83 185.73 57.70 184.54 57.63 183.95 C 55.28 184.57 52.97 185.31 50.76 186.34 C 49.57 179.85 51.02 173.27 49.73 166.81 Z" />
<path fill="#FFFFFF" opacity="1.00" d=" M 49.21 194.06 C 49.31 190.83 50.89 186.03 54.95 186.48 C 59.58 186.71 60.40 192.20 61.12 195.76 L 59.88 195.92 C 60.69 196.08 62.31 196.39 63.12 196.55 C 62.62 192.61 61.09 188.98 59.27 185.49 C 63.63 189.17 63.71 195.09 64.02 200.29 L 62.88 196.95 C 61.01 200.08 60.96 204.08 58.16 206.69 C 57.76 202.74 59.95 197.74 56.19 194.87 C 54.46 192.87 52.66 195.96 51.20 196.92 C 51.40 199.85 51.53 202.78 51.64 205.71 C 49.27 202.36 49.32 197.99 49.21 194.06 Z" />
<path fill="#FFFFFF" opacity="1.00" d=" M 54.40 195.81 C 58.87 201.89 54.53 209.36 56.15 216.09 C 55.62 215.86 54.56 215.40 54.03 215.17 C 53.86 210.05 53.48 204.95 52.91 199.86 C 52.59 198.31 53.81 197.10 54.40 195.81 Z" />
<path fill="#FFFFFF" opacity="1.00" d=" M 121.67 211.55 C 124.06 209.67 126.38 207.66 129.04 206.14 C 132.48 207.29 135.33 210.28 135.19 214.10 C 135.91 217.35 133.15 219.64 131.46 222.01 C 130.99 216.94 127.04 211.78 121.67 211.55 Z" />
<path fill="#FFFFFF" opacity="1.00" d=" M 117.41 217.19 C 119.44 216.53 121.46 217.92 123.39 218.43 C 125.23 220.82 126.29 223.63 126.92 226.56 C 124.29 229.88 120.82 232.40 117.91 235.45 C 121.04 231.29 117.32 226.89 113.83 224.71 C 111.73 224.11 109.63 225.03 107.59 225.46 C 110.60 222.42 113.76 219.46 117.41 217.19 Z" />
<path fill="#FFFFFF" opacity="1.00" d=" M 107.00 226.31 C 109.77 226.35 113.38 224.94 115.24 227.78 C 117.63 229.86 116.73 233.28 117.26 236.05 C 114.56 237.03 110.84 237.91 108.82 235.21 C 106.38 232.88 107.17 229.31 107.00 226.31 Z" />
</g>
<g id="#414141ff">
<path fill="#333333" opacity="1.00" d=" M 94.47 17.32 C 99.54 16.16 105.48 16.11 110.08 18.82 C 113.68 23.92 115.47 31.91 111.08 37.09 C 110.09 38.57 108.19 38.75 106.68 39.38 C 108.73 36.11 112.73 33.31 111.88 28.96 C 111.19 25.33 110.84 19.68 106.08 19.32 C 99.78 18.83 91.15 18.04 87.59 24.57 C 85.55 30.45 84.75 36.67 84.13 42.84 C 84.32 46.77 88.87 46.71 91.70 47.57 C 95.43 48.24 94.77 54.27 99.20 53.60 C 96.49 54.17 93.38 54.14 91.26 56.17 C 88.49 58.85 86.50 62.20 84.22 65.28 C 87.33 65.06 90.41 64.53 93.53 64.46 C 93.42 64.88 93.19 65.71 93.07 66.13 C 90.82 65.95 88.57 65.79 86.32 65.66 C 84.93 66.84 83.36 67.87 81.55 68.25 C 76.88 69.37 73.06 72.51 69.50 75.58 C 68.03 76.98 65.86 76.98 63.96 77.14 C 59.18 77.32 54.35 78.80 50.63 81.90 C 46.97 82.83 43.48 84.37 40.70 86.99 C 36.67 87.80 32.65 86.94 29.00 85.18 C 25.77 86.30 22.59 87.57 19.37 88.71 C 19.14 89.80 18.69 91.96 18.46 93.05 C 21.04 92.33 24.05 90.50 26.63 92.24 C 28.30 92.85 29.07 94.48 29.88 95.92 C 34.46 96.50 38.68 94.44 43.10 93.73 C 48.71 93.10 54.37 92.99 60.02 92.94 C 63.85 92.86 67.16 90.61 70.49 88.98 C 68.87 87.37 67.47 85.54 66.73 83.35 C 68.59 84.31 70.30 85.53 72.01 86.74 L 70.16 87.08 C 70.83 87.45 71.50 87.82 72.19 88.17 C 75.34 87.01 78.80 86.57 81.61 84.60 C 85.11 82.28 89.25 81.07 92.55 78.44 C 95.88 75.83 98.05 72.13 100.83 68.99 C 100.91 69.77 101.06 71.32 101.13 72.09 C 102.74 72.83 104.22 73.79 105.59 74.90 C 103.26 75.14 100.92 75.06 98.65 74.42 C 97.32 75.98 96.00 77.55 94.70 79.14 C 97.75 81.75 101.16 84.04 103.80 87.10 C 105.37 91.02 105.80 95.34 106.33 99.51 C 101.58 95.83 104.20 88.35 98.68 85.39 C 97.77 87.00 96.29 87.97 94.40 88.12 C 95.46 88.98 96.52 89.85 97.57 90.73 C 98.83 90.06 100.10 89.40 101.38 88.75 C 100.58 90.13 99.73 91.49 98.89 92.85 C 97.43 92.15 95.99 91.40 94.57 90.63 C 94.37 90.03 93.96 88.85 93.75 88.26 C 92.87 87.71 91.96 87.21 91.03 86.75 C 90.91 86.24 90.67 85.21 90.56 84.69 C 91.89 85.30 93.22 85.93 94.55 86.57 C 95.52 85.78 96.48 84.99 97.43 84.17 C 96.11 82.98 94.86 81.72 93.62 80.45 C 90.86 82.17 87.83 83.36 84.99 84.92 C 85.15 87.52 85.59 90.15 86.59 92.57 C 87.98 90.78 89.67 88.63 91.99 88.18 C 91.60 90.30 89.26 91.37 87.87 92.86 C 87.17 92.84 85.76 92.79 85.06 92.77 C 87.74 98.31 89.54 104.17 91.42 110.02 L 92.14 110.01 C 91.64 106.58 92.56 103.22 93.10 99.87 C 93.84 99.21 94.58 98.56 95.33 97.91 C 94.83 101.28 93.80 104.55 93.42 107.93 C 93.65 110.63 96.83 111.23 99.02 110.95 C 104.57 110.32 109.87 108.38 114.73 105.67 C 113.51 98.59 116.58 91.85 118.41 85.17 C 120.93 76.66 120.04 67.47 117.37 59.12 C 115.71 54.12 111.77 50.42 109.12 45.98 C 108.36 43.92 108.36 41.69 108.26 39.53 C 109.49 41.76 110.42 44.14 111.39 46.49 C 113.11 50.56 117.10 53.11 118.82 57.16 C 121.73 66.26 122.84 76.12 120.40 85.47 C 119.03 93.07 115.56 100.42 116.42 108.28 C 117.71 108.43 119.00 108.57 120.30 108.72 C 120.22 110.08 120.14 111.44 120.09 112.80 C 121.98 117.09 123.72 121.51 124.83 126.07 C 124.47 129.76 122.73 133.16 121.48 136.62 C 122.78 139.28 124.47 141.93 124.73 144.96 C 124.84 147.41 122.96 149.23 121.64 151.07 C 122.64 156.03 121.53 161.00 121.10 165.94 C 121.27 169.56 121.74 173.17 122.22 176.76 C 123.67 181.44 125.84 185.99 126.05 190.96 C 126.23 195.76 126.03 200.57 125.97 205.37 C 130.66 203.57 135.45 206.70 137.13 211.06 C 137.58 213.94 137.77 217.33 135.75 219.69 C 134.04 221.93 131.93 223.83 129.95 225.82 C 129.45 225.16 128.97 224.51 128.49 223.85 C 130.30 219.40 127.02 215.67 123.96 212.93 C 123.29 213.68 122.61 214.44 121.95 215.20 C 120.59 211.28 118.92 207.47 117.00 203.80 C 116.97 207.56 116.90 211.36 117.68 215.06 C 122.24 215.77 125.66 219.22 127.73 223.16 C 128.32 224.89 128.92 227.02 127.61 228.60 C 125.56 232.41 122.52 235.56 119.12 238.19 C 119.62 239.56 120.11 240.94 120.60 242.32 C 120.09 244.23 120.07 246.34 119.04 248.07 C 117.19 250.56 113.77 250.68 110.96 250.51 C 104.30 249.89 97.66 248.76 90.94 249.05 C 87.56 249.52 84.88 247.22 82.03 245.85 C 81.07 244.25 80.19 242.61 79.41 240.92 C 79.48 239.68 79.48 238.43 79.63 237.19 C 82.81 235.75 86.34 235.64 89.77 235.72 C 94.12 232.47 97.85 228.34 102.56 225.52 C 103.72 221.06 103.30 216.47 101.75 212.16 C 99.87 206.08 98.60 199.78 98.39 193.41 C 94.83 197.12 89.89 198.95 85.61 201.65 C 85.82 210.13 86.22 218.62 85.70 227.09 C 82.73 229.37 78.83 231.11 75.10 229.64 C 67.56 228.42 60.36 225.85 52.97 224.01 C 46.61 222.24 40.03 221.31 33.77 219.19 C 29.71 217.79 25.43 217.28 21.18 216.92 C 21.59 216.63 22.40 216.04 22.80 215.74 C 22.63 213.74 22.52 211.73 22.50 209.72 C 22.91 211.77 23.15 213.84 23.31 215.92 C 28.82 215.27 33.91 217.64 39.19 218.71 C 52.42 221.09 65.15 225.50 78.17 228.74 C 80.03 227.99 81.93 227.30 83.73 226.42 C 84.81 218.22 83.60 209.95 83.86 201.71 C 82.28 201.47 80.71 201.24 79.14 201.00 C 78.82 200.46 78.19 199.38 77.87 198.84 C 78.05 186.95 75.52 174.93 77.77 163.12 C 62.74 161.22 47.52 160.32 32.74 156.99 C 33.52 156.87 34.29 156.74 35.07 156.62 C 35.25 149.23 35.10 141.83 34.87 134.44 C 35.23 122.19 35.00 109.93 35.08 97.68 C 30.37 99.11 27.56 94.77 23.85 93.05 C 20.70 93.01 17.86 94.76 14.83 95.44 C 15.44 95.84 16.64 96.63 17.24 97.03 C 17.22 98.48 17.15 99.92 16.98 101.37 C 16.01 99.38 15.21 97.31 14.39 95.26 C 10.86 97.07 12.49 100.94 14.65 103.11 C 19.78 101.63 24.30 98.26 29.70 97.76 C 24.88 100.64 19.72 103.71 14.05 104.28 C 13.50 103.86 12.40 103.01 11.85 102.59 C 11.49 100.40 11.26 98.19 10.99 95.99 C 12.75 95.03 14.60 94.26 16.53 93.72 C 16.41 91.55 16.13 88.71 18.57 87.70 C 22.36 86.15 26.13 84.47 30.07 83.36 C 31.77 83.87 33.32 84.77 34.94 85.46 C 34.94 72.22 34.91 58.99 34.96 45.76 L 36.31 45.65 C 36.28 59.23 36.26 72.81 36.34 86.39 C 40.58 85.00 44.25 82.39 48.29 80.56 C 48.17 70.35 47.99 60.14 48.36 49.94 C 48.46 47.65 48.88 45.39 49.37 43.15 C 50.34 52.41 49.14 61.74 49.89 71.01 C 50.18 74.33 49.91 77.67 48.90 80.85 C 52.56 78.32 56.52 75.86 61.07 75.48 C 63.66 75.06 66.69 75.63 68.81 73.75 C 73.12 70.31 77.79 67.21 83.19 65.80 C 85.32 60.75 87.97 55.01 93.48 52.97 C 92.31 48.02 86.41 48.51 82.95 46.04 C 82.12 39.83 83.38 33.59 84.72 27.55 C 85.68 22.67 89.46 18.26 94.47 17.32 M 72.89 89.99 C 68.88 92.25 64.76 94.79 60.02 95.02 C 56.94 95.08 53.85 95.05 50.77 95.15 C 49.69 103.31 50.15 111.58 49.43 119.77 C 49.25 111.70 48.76 103.63 49.00 95.55 C 47.08 95.56 45.16 95.52 43.23 95.49 C 44.93 103.23 43.58 111.14 43.72 118.96 C 43.44 131.72 44.80 144.44 44.33 157.21 C 45.98 157.49 47.62 157.78 49.26 158.04 C 49.08 146.32 48.84 134.59 49.55 122.89 C 49.90 134.55 49.70 146.23 50.16 157.89 C 59.57 158.30 68.80 160.51 78.19 161.13 C 80.59 161.55 82.54 159.79 84.57 158.82 C 73.22 158.29 61.77 157.62 50.66 155.15 C 50.79 154.89 51.06 154.39 51.19 154.14 C 62.78 154.88 74.30 157.11 85.92 157.75 C 88.91 156.66 91.85 155.42 94.79 154.20 C 93.25 153.93 91.72 153.62 90.20 153.29 C 89.65 152.19 89.10 151.10 88.55 150.00 C 89.71 146.99 90.34 143.78 88.76 140.79 C 89.80 136.87 88.76 132.83 89.65 128.90 C 90.66 125.38 87.40 122.45 87.95 118.97 C 88.05 115.95 90.85 113.31 89.72 110.24 C 88.31 105.81 86.92 101.36 84.92 97.16 C 83.20 93.66 83.86 89.70 83.89 85.96 C 80.37 87.70 76.65 88.92 72.89 89.99 M 36.66 97.13 C 37.44 114.56 35.98 132.04 37.32 149.46 C 37.62 151.90 37.26 154.34 36.77 156.74 C 38.68 156.84 40.60 156.93 42.51 157.02 C 42.42 150.67 42.38 144.32 42.43 137.97 C 41.55 123.95 42.41 109.90 42.42 95.86 C 40.50 96.28 38.58 96.70 36.66 97.13 M 92.33 111.22 C 92.22 113.31 91.15 114.98 89.45 116.16 C 89.76 117.65 90.04 119.15 90.29 120.65 C 90.91 120.40 92.14 119.90 92.76 119.66 C 93.45 121.27 94.17 122.86 94.84 124.48 C 93.84 123.54 92.86 122.58 91.89 121.62 L 92.82 120.95 C 91.71 120.90 90.60 120.85 89.49 120.80 C 90.58 123.04 91.84 125.34 91.92 127.90 C 91.40 133.60 90.77 139.45 92.00 145.09 C 92.05 147.11 91.38 149.04 91.05 151.01 C 96.81 153.65 103.13 154.04 109.37 153.67 C 111.14 152.49 112.95 151.35 114.84 150.36 C 114.98 148.25 115.14 146.13 115.56 144.05 C 116.69 146.35 116.63 148.99 117.55 151.36 C 119.41 149.81 121.80 148.66 122.83 146.33 C 122.30 143.44 121.36 140.39 120.44 137.73 C 120.77 136.60 121.41 134.33 121.74 133.19 C 119.62 135.45 117.78 137.93 115.85 140.33 C 115.22 141.63 114.55 142.90 113.80 144.12 C 114.03 139.08 118.10 135.72 120.43 131.62 C 120.81 132.02 121.58 132.82 121.97 133.22 C 125.07 125.13 119.90 117.46 117.22 110.07 C 114.65 111.91 112.26 114.14 109.21 115.15 C 105.44 116.61 101.02 117.93 97.36 115.48 C 99.50 115.09 101.68 114.99 103.84 114.71 C 108.35 113.88 112.22 111.18 116.67 110.12 C 116.06 109.00 115.47 107.87 114.89 106.74 C 109.16 112.70 99.90 113.89 92.33 111.22 M 117.77 153.06 C 117.13 152.93 115.83 152.66 115.18 152.53 C 114.67 153.14 113.64 154.37 113.12 154.98 C 113.78 156.29 114.69 157.50 115.04 158.95 C 114.63 163.74 113.15 168.36 112.39 173.09 C 112.82 180.16 114.22 187.10 116.44 193.82 C 116.70 199.50 118.88 204.67 121.62 209.57 C 122.57 208.57 123.53 207.57 124.48 206.56 C 123.95 201.41 125.13 196.26 124.44 191.12 C 124.12 187.70 123.08 184.42 121.94 181.20 C 120.26 176.65 120.26 171.74 119.53 166.99 C 119.57 161.91 121.68 156.95 120.56 151.84 C 119.86 152.15 118.47 152.75 117.77 153.06 M 96.27 163.09 C 97.25 167.08 95.42 171.12 96.19 175.12 C 96.98 177.87 98.59 180.28 99.81 182.83 C 99.59 184.81 99.03 186.86 99.69 188.82 C 100.72 192.07 100.41 195.51 100.83 198.85 C 101.30 204.87 103.58 210.52 104.57 216.44 C 105.94 220.65 104.46 225.29 101.82 228.66 C 98.93 231.12 96.28 233.84 93.54 236.46 C 90.05 238.31 85.86 236.76 82.14 237.87 C 82.14 239.72 82.09 241.56 82.03 243.40 C 84.31 245.25 86.83 247.33 89.92 247.32 C 95.35 247.48 100.80 247.56 106.16 248.60 C 109.69 248.87 114.19 250.07 116.73 246.82 C 118.82 244.89 117.71 241.77 118.00 239.29 C 111.24 242.14 102.76 235.02 105.37 227.82 C 105.99 221.86 111.98 219.38 115.77 215.67 C 115.65 212.92 114.89 210.18 115.54 207.44 C 116.62 202.22 115.53 196.90 114.11 191.87 C 112.01 186.15 111.12 180.05 110.77 174.00 C 111.33 167.87 113.46 161.94 113.14 155.71 C 107.28 155.86 101.33 156.92 95.58 155.12 C 94.27 157.76 95.93 160.44 96.27 163.09 M 79.00 163.65 C 78.78 175.45 79.16 187.24 79.61 199.03 C 81.99 199.43 84.67 200.07 86.90 198.73 C 90.56 196.50 94.17 194.18 98.05 192.33 C 97.62 189.64 97.32 186.93 97.42 184.21 C 95.81 180.65 93.77 177.04 93.91 172.99 C 93.81 170.35 94.60 167.75 94.33 165.12 C 93.80 162.28 92.90 159.53 92.21 156.72 C 87.74 158.91 83.42 161.38 79.00 163.65 M 121.67 211.55 C 127.04 211.78 130.99 216.94 131.46 222.01 C 133.15 219.64 135.91 217.35 135.19 214.10 C 135.33 210.28 132.48 207.29 129.04 206.14 C 126.38 207.66 124.06 209.67 121.67 211.55 M 117.41 217.19 C 113.76 219.46 110.60 222.42 107.59 225.46 C 109.63 225.03 111.73 224.11 113.83 224.71 C 117.32 226.89 121.04 231.29 117.91 235.45 C 120.82 232.40 124.29 229.88 126.92 226.56 C 126.29 223.63 125.23 220.82 123.39 218.43 C 121.46 217.92 119.44 216.53 117.41 217.19 M 107.00 226.31 C 107.17 229.31 106.38 232.88 108.82 235.21 C 110.84 237.91 114.56 237.03 117.26 236.05 C 116.73 233.28 117.63 229.86 115.24 227.78 C 113.38 224.94 109.77 226.35 107.00 226.31 Z" />
<path fill="#333333" opacity="1.00" d=" M 98.20 31.90 C 99.40 31.38 100.61 30.86 101.84 30.37 C 104.46 33.41 102.77 37.16 100.79 40.01 C 100.19 40.06 98.99 40.16 98.39 40.21 C 97.70 41.54 97.33 43.12 96.22 44.17 C 94.28 45.49 91.89 45.70 89.64 46.00 C 92.36 43.93 95.46 42.23 97.38 39.30 C 99.79 38.27 101.33 36.23 102.31 33.86 C 100.95 33.17 99.58 32.52 98.20 31.90 Z" />
<path fill="#333333" opacity="1.00" d=" M 42.70 44.28 C 44.69 52.38 43.87 60.76 44.02 69.00 C 43.90 73.72 44.75 78.65 42.70 83.10 C 42.03 70.18 42.32 57.20 42.70 44.28 Z" />
<path fill="#333333" opacity="1.00" d=" M 103.15 44.44 C 103.60 45.92 103.96 47.43 104.31 48.94 C 103.35 49.87 102.39 50.80 101.41 51.71 C 101.96 49.28 102.52 46.85 103.15 44.44 Z" />
<path fill="#333333" opacity="1.00" d=" M 100.16 56.92 C 101.54 57.75 102.84 58.70 104.09 59.72 C 105.98 59.96 107.86 60.24 109.72 60.63 C 106.13 63.53 101.52 60.81 100.16 56.92 Z" />
<path fill="#333333" opacity="1.00" d=" M 109.69 59.38 C 116.14 61.54 118.26 69.88 114.85 75.45 C 114.25 72.15 114.06 68.78 113.57 65.46 C 112.10 63.54 110.70 61.58 109.69 59.38 Z" />
<path fill="#333333" opacity="1.00" d=" M 97.27 66.92 C 100.22 65.34 103.64 64.99 106.63 66.67 C 103.78 68.33 100.21 68.32 97.27 66.92 Z" />
<path fill="#333333" opacity="1.00" d=" M 84.87 73.90 C 86.47 72.75 87.83 71.28 89.50 70.20 C 88.80 73.72 85.82 75.96 82.37 76.32 C 81.63 75.65 80.89 74.98 80.16 74.32 C 81.73 74.21 83.35 74.37 84.87 73.90 Z" />
<path fill="#333333" opacity="1.00" d=" M 72.74 78.64 C 74.88 75.83 76.95 72.72 80.42 71.44 C 78.01 74.44 75.70 77.51 73.49 80.66 C 71.78 82.60 69.11 81.91 67.06 81.00 C 68.91 80.20 71.50 80.53 72.74 78.64 Z" />
<path fill="#333333" opacity="1.00" d=" M 83.88 77.56 C 84.38 77.57 85.37 77.59 85.86 77.60 C 84.79 79.91 83.05 81.74 80.81 82.93 C 81.79 81.11 82.87 79.36 83.88 77.56 Z" />
<path fill="#333333" opacity="1.00" d=" M 53.37 81.17 C 56.82 79.88 60.81 79.24 64.27 80.83 C 65.18 81.02 65.61 81.57 65.56 82.48 C 61.44 82.62 57.56 80.62 53.37 81.17 Z" />
<path fill="#333333" opacity="1.00" d=" M 52.08 87.28 C 55.18 86.73 58.28 86.11 61.41 85.69 C 59.09 87.30 56.41 88.23 53.63 88.64 C 53.24 88.30 52.46 87.62 52.08 87.28 Z" />
<path fill="#333333" opacity="1.00" d=" M 89.09 97.62 C 90.62 95.03 92.29 92.31 95.34 91.34 C 94.18 93.28 92.85 95.11 91.63 97.02 C 90.78 97.22 89.93 97.42 89.09 97.62 Z" />
<path fill="#333333" opacity="1.00" d=" M 34.38 163.34 C 48.39 164.68 62.35 166.70 76.35 168.15 C 75.93 174.78 75.85 181.43 76.26 188.06 C 76.53 197.65 76.27 207.24 76.23 216.82 C 75.74 217.04 74.77 217.47 74.28 217.69 C 74.27 210.99 74.50 204.29 74.53 197.59 C 69.88 200.77 65.38 204.18 60.58 207.14 C 60.56 208.63 60.53 210.13 60.50 211.63 C 64.89 212.60 69.47 213.00 73.59 214.90 C 69.00 215.45 64.47 214.06 60.13 212.71 C 59.24 210.82 59.48 208.61 59.01 206.63 C 56.10 209.17 57.90 213.08 58.12 216.29 C 62.76 218.17 67.68 219.10 72.54 220.16 C 73.25 219.88 73.97 219.61 74.69 219.36 C 74.85 220.51 75.00 221.66 75.13 222.82 C 63.12 219.64 51.12 216.48 39.14 213.15 C 33.57 211.31 27.58 210.82 22.27 208.23 C 26.92 208.09 31.41 209.40 35.95 210.21 C 35.90 195.80 35.98 181.38 35.92 166.97 C 36.05 165.56 34.97 164.51 34.38 163.34 M 37.50 165.08 C 37.50 180.35 37.61 195.62 37.53 210.88 C 39.02 211.20 40.51 211.51 42.00 211.83 C 42.04 196.56 41.98 181.28 42.00 166.00 C 40.50 165.69 39.00 165.39 37.50 165.08 M 44.04 166.21 C 44.19 181.56 44.19 196.93 44.01 212.29 C 46.61 213.24 49.26 214.04 51.92 214.79 C 52.03 212.42 52.08 210.04 52.07 207.66 C 50.63 206.27 48.67 205.06 48.20 202.96 C 47.26 197.90 46.61 192.37 49.26 187.68 C 49.10 180.66 49.42 173.64 48.81 166.63 C 47.22 166.47 45.63 166.33 44.04 166.21 M 49.73 166.81 C 51.02 173.27 49.57 179.85 50.76 186.34 C 52.97 185.31 55.28 184.57 57.63 183.95 C 57.70 184.54 57.83 185.73 57.90 186.32 C 58.09 185.70 58.47 184.47 58.65 183.86 C 65.22 187.49 65.81 195.79 64.47 202.40 C 67.25 200.25 70.13 198.24 73.04 196.29 C 70.06 193.81 66.44 191.43 65.70 187.30 C 64.43 181.40 62.95 174.60 65.85 168.98 C 66.28 174.28 65.47 179.75 67.37 184.86 C 68.33 189.09 71.64 192.06 74.81 194.74 C 74.64 188.10 73.71 181.48 74.11 174.83 C 72.63 174.95 71.15 175.06 69.68 175.17 C 69.79 179.15 70.25 183.23 72.37 186.69 C 72.93 188.35 75.04 190.08 73.85 191.85 C 73.61 191.88 73.12 191.94 72.88 191.97 C 71.36 190.08 70.06 188.01 69.12 185.77 C 67.28 181.82 68.23 177.35 67.77 173.16 C 70.14 173.30 72.51 173.34 74.88 173.27 C 74.69 172.45 74.32 170.82 74.14 170.01 C 66.08 168.41 57.79 168.47 49.73 166.81 M 49.21 194.06 C 49.32 197.99 49.27 202.36 51.64 205.71 C 51.53 202.78 51.40 199.85 51.20 196.92 C 52.66 195.96 54.46 192.87 56.19 194.87 C 59.95 197.74 57.76 202.74 58.16 206.69 C 60.96 204.08 61.01 200.08 62.88 196.95 L 64.02 200.29 C 63.71 195.09 63.63 189.17 59.27 185.49 C 61.09 188.98 62.62 192.61 63.12 196.55 C 62.31 196.39 60.69 196.08 59.88 195.92 L 61.12 195.76 C 60.40 192.20 59.58 186.71 54.95 186.48 C 50.89 186.03 49.31 190.83 49.21 194.06 M 54.40 195.81 C 53.81 197.10 52.59 198.31 52.91 199.86 C 53.48 204.95 53.86 210.05 54.03 215.17 C 54.56 215.40 55.62 215.86 56.15 216.09 C 54.53 209.36 58.87 201.89 54.40 195.81 Z" />
<path fill="#333333" opacity="1.00" d=" M 80.43 163.57 C 83.47 163.55 86.39 164.54 88.85 166.33 C 89.02 170.24 90.50 173.98 90.13 177.93 C 89.73 183.35 90.53 189.06 87.93 194.06 C 87.51 194.24 86.66 194.60 86.24 194.78 C 87.77 185.79 88.83 176.32 86.52 167.36 C 84.68 165.81 82.41 164.91 80.43 163.57 Z" />
<path fill="#333333" opacity="1.00" d=" M 106.70 183.34 C 105.88 178.82 105.35 173.56 107.96 169.50 C 107.76 174.09 108.42 178.99 106.70 183.34 Z" />
</g>
</svg>
