<?xml version="1.0" encoding="UTF-8" ?>
<!DOCTYPE svg PUBLIC "-//W3C//DTD SVG 1.1//EN" "http://www.w3.org/Graphics/SVG/1.1/DTD/svg11.dtd">
<svg width="225pt" height="222pt" viewBox="0 0 225 222" version="1.1" xmlns="http://www.w3.org/2000/svg">
<g id="#ffffffff">
<path fill="#FFFFFF" opacity="1.00" d=" M 0.00 0.00 L 225.00 0.00 L 225.00 222.00 L 0.00 222.00 L 0.00 0.00 M 144.01 16.75 C 146.12 18.37 148.69 19.55 150.21 21.83 C 152.66 25.20 152.52 29.57 153.33 33.48 C 153.50 32.73 153.83 31.25 154.00 30.51 C 156.15 31.58 158.16 32.87 160.01 34.40 C 159.93 40.78 158.52 47.17 159.76 53.53 C 159.61 59.91 161.45 66.11 160.95 72.50 C 160.46 72.62 159.49 72.85 159.00 72.97 C 158.43 77.21 158.42 81.54 159.17 85.76 C 159.42 85.86 159.92 86.06 160.18 86.17 C 160.02 82.40 159.35 78.49 160.62 74.83 C 161.28 72.23 162.86 69.77 162.46 66.99 C 162.13 61.89 161.88 56.75 160.54 51.80 C 160.26 45.37 162.04 38.88 161.11 32.43 C 158.75 31.42 156.40 30.39 154.18 29.12 C 155.63 26.91 157.46 25.00 159.43 23.26 C 161.73 24.71 164.36 26.01 165.67 28.55 C 168.19 32.25 167.22 36.86 167.08 41.03 C 166.94 43.66 164.95 45.56 163.24 47.33 C 163.33 47.67 163.51 48.36 163.60 48.71 C 166.00 47.98 168.40 47.01 169.82 44.81 C 172.78 39.90 172.67 33.58 170.64 28.35 C 169.26 24.84 166.22 21.26 162.07 21.83 C 164.46 23.72 167.85 24.94 168.94 28.06 C 170.77 32.14 170.25 36.72 170.03 41.05 C 170.12 42.37 169.24 43.35 168.34 44.18 L 167.76 44.54 C 170.56 36.80 169.10 26.57 161.36 22.28 C 158.19 23.11 155.11 24.59 153.75 27.79 C 153.15 22.74 150.01 16.30 144.01 16.75 M 135.54 23.64 C 134.71 23.67 133.05 23.73 132.23 23.76 C 134.77 25.27 137.55 26.32 140.46 26.84 C 139.16 25.88 137.82 24.98 136.47 24.09 C 137.64 21.77 139.46 19.90 141.45 18.27 C 144.98 20.16 149.80 23.68 148.56 28.20 C 147.43 27.82 145.18 27.05 144.05 26.67 C 146.98 28.81 150.49 30.80 151.58 34.53 C 154.06 40.88 152.31 47.90 148.45 53.28 C 155.01 49.07 154.93 40.09 152.57 33.52 C 152.08 31.45 149.27 30.00 150.61 27.68 C 149.90 23.27 147.16 19.56 143.36 17.28 C 139.82 18.02 136.67 20.06 135.54 23.64 M 126.84 23.17 C 123.63 21.92 119.85 23.38 118.27 26.40 C 115.38 31.96 115.77 38.92 118.72 44.37 C 120.16 46.98 122.70 49.64 125.96 49.21 C 128.06 49.41 129.46 47.62 130.43 46.03 C 131.02 46.42 131.62 46.82 132.21 47.23 C 133.13 45.83 134.00 44.39 134.82 42.93 C 134.94 46.69 136.88 49.94 139.11 52.82 C 138.07 56.91 138.79 61.26 137.25 65.24 C 136.42 67.08 136.76 69.07 136.90 71.01 C 136.40 71.00 135.41 70.98 134.91 70.97 C 137.16 77.81 135.29 85.03 135.18 92.01 C 139.08 84.12 137.58 75.03 138.49 66.56 C 140.41 62.55 140.09 58.12 140.32 53.80 C 142.14 54.01 143.97 54.13 145.80 54.23 C 147.58 52.52 149.12 50.58 150.39 48.47 C 149.99 47.70 149.59 46.94 149.19 46.19 C 148.69 49.76 145.14 54.37 141.19 52.05 C 135.94 48.78 134.91 41.66 135.82 36.00 C 136.14 32.62 138.67 30.17 141.13 28.13 C 143.09 29.38 145.36 30.34 146.79 32.26 C 149.49 35.76 149.86 40.44 149.58 44.70 C 150.04 45.40 150.52 46.10 151.00 46.79 C 151.52 39.95 150.63 31.50 144.01 27.74 C 140.11 26.93 136.39 29.73 135.48 33.49 C 135.62 28.25 132.61 22.71 127.25 21.38 C 127.15 21.83 126.94 22.72 126.84 23.17 M 125.54 56.70 C 124.20 60.00 126.20 63.53 124.81 66.77 C 123.52 70.36 123.55 74.31 121.76 77.73 C 118.75 83.08 119.98 89.40 120.48 95.20 C 123.32 94.83 126.26 93.55 129.09 94.67 C 132.97 95.92 136.73 97.63 140.88 97.75 C 141.81 102.36 142.09 107.02 141.48 111.69 C 140.14 112.01 138.80 112.33 137.46 112.64 C 136.61 112.38 134.89 111.88 134.03 111.63 C 133.65 110.88 133.28 110.13 132.91 109.39 C 133.80 108.80 134.44 108.06 134.83 107.15 C 132.60 107.60 131.13 109.65 129.13 110.63 C 127.52 108.71 124.93 108.80 122.69 108.46 C 124.20 109.57 125.89 110.41 127.66 111.03 C 127.59 113.09 128.37 114.96 129.62 116.57 C 128.68 117.31 127.75 118.06 126.82 118.81 C 123.79 119.24 120.86 120.13 118.00 121.20 C 118.10 121.83 118.30 123.09 118.40 123.72 C 114.62 123.92 110.91 124.86 107.53 126.57 C 109.15 122.29 107.07 117.91 104.87 114.27 C 107.57 114.77 110.31 115.23 113.07 114.95 C 110.30 113.49 107.19 113.00 104.13 112.61 C 104.36 113.19 104.83 114.34 105.06 114.91 C 102.13 109.95 96.23 108.48 91.50 105.84 C 93.03 105.15 94.56 104.47 96.12 103.84 L 94.54 104.99 C 95.00 105.43 95.45 105.87 95.92 106.30 C 97.41 105.46 98.96 104.73 100.53 104.05 C 100.56 103.64 100.62 102.82 100.65 102.41 C 105.99 98.80 110.95 92.54 118.19 94.30 C 117.13 97.14 119.29 98.69 121.27 100.12 C 121.37 102.07 120.25 103.82 119.73 105.65 C 118.03 106.95 116.57 108.54 115.91 110.63 C 118.79 109.02 121.86 107.17 122.82 103.78 C 124.70 100.77 121.71 98.14 119.57 96.42 C 119.35 95.22 119.14 94.02 118.93 92.82 C 116.66 92.58 114.22 91.87 112.06 92.98 C 105.73 94.93 102.14 101.79 95.44 102.90 C 92.97 103.26 90.75 104.42 88.73 105.82 C 85.46 105.45 82.19 104.69 78.89 104.96 C 75.90 105.45 73.13 107.03 70.04 106.94 C 66.96 107.11 63.95 106.30 60.88 106.26 C 58.90 106.84 57.12 108.08 55.03 108.29 C 48.42 108.85 41.98 111.01 36.17 114.17 C 33.18 116.17 30.21 118.22 27.13 120.09 C 24.42 123.44 24.19 128.01 25.00 132.08 C 25.20 137.71 25.97 143.29 26.07 148.93 C 26.27 156.44 29.93 163.49 29.37 171.07 C 28.69 177.66 22.10 180.57 18.67 185.53 C 16.52 188.57 12.37 189.17 10.15 192.12 C 9.59 193.65 9.27 195.25 8.83 196.81 C 10.45 198.06 12.16 200.00 14.44 199.21 C 17.99 198.19 21.82 198.44 25.28 197.23 C 29.11 194.24 33.17 191.44 38.19 190.99 C 35.56 194.04 33.23 198.01 29.01 199.00 C 26.00 199.80 23.53 201.75 20.85 203.22 C 20.24 204.37 19.64 205.54 19.05 206.70 C 23.15 209.19 27.05 212.53 32.11 212.67 C 38.08 211.46 43.73 208.99 49.17 206.29 C 53.79 204.08 61.15 206.13 63.62 200.61 C 65.85 194.75 61.89 189.14 59.92 183.82 C 58.03 176.70 57.84 169.23 58.45 161.92 C 58.80 154.57 53.73 147.91 55.45 140.58 C 55.68 141.09 56.12 142.09 56.34 142.60 C 58.77 141.62 61.30 140.59 63.98 140.98 C 68.71 141.41 73.38 140.33 77.79 138.71 C 77.70 139.12 77.53 139.94 77.44 140.35 C 80.27 139.22 83.09 137.97 86.09 137.33 C 89.80 136.78 93.67 137.52 97.29 136.29 C 100.22 135.64 102.40 133.48 104.67 131.68 C 104.77 131.14 104.96 130.06 105.06 129.52 C 106.84 129.24 108.52 128.63 109.71 127.20 C 113.56 125.69 117.86 124.54 121.91 126.03 C 130.67 129.00 139.62 125.36 147.97 122.83 C 151.62 123.42 154.49 121.28 156.31 118.31 C 160.52 119.70 165.47 117.05 166.89 112.90 C 169.07 108.22 167.64 102.95 166.82 98.12 C 165.99 94.49 162.15 93.15 158.96 92.37 C 159.29 91.58 159.96 90.01 160.30 89.22 C 160.01 89.07 159.43 88.78 159.15 88.64 L 158.39 88.51 C 157.93 94.87 156.35 101.09 153.97 106.99 C 154.52 106.19 155.63 104.60 156.18 103.80 C 156.29 108.90 156.63 114.46 153.98 119.04 C 152.78 120.90 150.50 120.88 148.54 120.88 C 144.76 120.81 141.51 123.01 137.94 123.92 C 131.75 125.89 124.76 125.34 119.08 122.14 C 121.97 121.73 125.00 121.71 127.76 120.67 C 130.10 118.40 132.80 116.54 135.14 114.27 C 137.71 113.17 140.47 112.02 143.16 113.43 C 143.39 108.37 144.16 103.36 144.13 98.30 C 143.52 98.76 142.31 99.68 141.70 100.13 C 142.76 96.36 143.57 92.44 142.67 88.54 C 141.99 91.35 141.44 94.20 140.84 97.03 C 134.71 94.96 128.27 91.08 121.73 94.10 C 122.10 90.81 121.03 87.58 121.28 84.30 C 121.94 81.46 123.23 78.81 124.27 76.10 C 124.75 76.79 125.70 78.19 126.17 78.89 C 126.28 75.57 124.32 72.08 125.86 68.90 C 126.35 67.38 127.34 65.92 127.20 64.27 C 126.34 58.50 127.98 52.58 130.90 47.60 C 127.48 49.41 125.58 52.89 125.54 56.70 M 147.50 61.45 C 145.83 64.61 145.50 68.25 146.29 71.71 C 147.39 74.82 145.77 77.90 145.56 81.02 C 147.34 83.69 147.55 86.92 147.31 90.03 C 147.66 90.25 148.36 90.70 148.71 90.93 C 149.12 86.92 148.67 82.92 147.85 79.00 C 148.54 74.06 147.23 69.05 148.29 64.15 C 149.70 59.78 151.14 55.42 152.20 50.95 C 149.42 53.79 149.27 58.04 147.50 61.45 M 130.58 64.26 C 130.77 69.08 131.17 73.95 130.00 78.69 C 130.89 78.27 131.81 77.89 132.68 77.41 L 132.41 77.07 C 131.32 74.67 132.48 72.17 133.21 69.87 C 132.49 67.93 131.76 65.98 130.58 64.26 M 153.73 76.98 C 154.45 78.61 155.32 80.20 155.78 81.93 C 155.81 85.17 154.75 88.29 154.25 91.47 C 153.25 91.19 152.26 90.91 151.26 90.65 C 151.90 92.60 153.59 93.68 155.22 94.74 C 156.27 90.89 157.21 86.97 157.37 82.97 C 157.42 80.61 156.23 78.44 156.13 76.10 C 156.97 72.56 158.47 69.18 158.93 65.53 C 156.41 68.94 154.96 72.97 153.73 76.98 M 126.06 79.71 C 126.90 83.46 128.26 87.07 129.61 90.66 C 130.32 89.40 130.82 87.93 130.22 86.51 C 129.32 84.01 128.73 80.92 126.06 79.71 M 145.55 83.21 C 144.29 84.10 143.62 86.19 144.33 87.60 C 145.98 87.77 147.32 83.77 145.55 83.21 M 109.76 102.02 C 108.83 102.53 107.90 103.05 106.98 103.57 C 105.21 102.94 103.41 102.41 101.56 102.07 C 102.68 102.97 103.84 103.80 105.02 104.61 C 107.36 103.76 109.70 102.89 112.02 101.98 C 112.45 100.34 112.87 98.68 113.25 97.03 C 111.96 98.60 110.83 100.29 109.76 102.02 M 125.04 98.52 C 126.12 101.48 129.15 101.77 131.88 102.10 C 131.25 101.47 130.61 100.86 129.98 100.24 C 128.31 99.71 126.68 99.09 125.04 98.52 M 132.19 99.97 C 132.74 100.43 133.83 101.35 134.38 101.81 C 134.96 103.12 134.33 105.49 135.74 106.14 C 136.03 105.58 136.63 104.46 136.92 103.90 C 138.09 101.61 140.04 104.31 141.50 104.82 C 141.02 102.66 139.10 102.11 137.12 102.15 L 137.71 101.44 C 135.73 102.00 134.01 100.47 132.19 99.97 M 125.56 104.15 C 126.62 106.30 128.47 108.60 131.13 107.47 C 129.30 106.32 127.47 105.17 125.56 104.15 M 107.03 104.79 C 109.21 106.20 111.38 107.66 113.78 108.67 C 113.11 107.45 112.40 106.25 111.70 105.05 C 110.14 104.96 108.58 104.87 107.03 104.79 M 107.66 111.12 C 110.23 112.33 112.92 113.22 115.61 114.07 C 115.47 113.55 115.18 112.52 115.04 112.01 C 112.60 111.56 110.14 111.23 107.66 111.12 M 120.61 110.44 C 121.70 112.97 123.89 114.59 126.75 114.18 C 124.93 112.60 122.82 111.39 120.61 110.44 M 117.36 113.33 C 116.67 114.83 118.55 117.18 120.18 116.62 C 120.88 115.20 118.83 112.96 117.36 113.33 M 146.93 128.30 C 129.48 132.06 112.38 137.27 95.19 142.03 C 87.59 144.78 79.45 145.78 72.11 149.22 C 69.53 150.09 66.85 151.39 64.08 151.00 C 61.21 149.89 58.74 147.89 55.69 147.21 C 57.88 150.32 61.47 152.03 65.00 153.10 C 69.78 153.20 74.07 150.55 78.66 149.56 C 78.78 158.50 78.94 167.44 79.75 176.35 L 81.32 176.19 C 81.16 167.12 81.10 158.06 80.31 149.01 C 82.76 148.24 85.22 147.53 87.68 146.76 C 87.80 149.57 87.88 152.38 87.94 155.19 C 87.39 155.27 86.30 155.43 85.75 155.51 C 86.26 155.54 87.27 155.59 87.78 155.62 C 88.22 158.55 88.34 161.65 89.79 164.31 C 90.56 158.32 89.88 152.27 89.20 146.31 C 103.57 141.92 118.20 138.42 132.72 134.54 C 132.99 139.48 132.69 144.46 133.12 149.39 C 133.60 149.70 134.57 150.31 135.06 150.62 C 135.23 145.12 134.76 139.64 134.34 134.16 C 136.75 133.37 139.20 132.75 141.66 132.16 C 142.21 137.40 141.09 143.29 143.79 148.04 C 144.78 142.67 143.93 137.19 143.42 131.81 C 147.78 130.53 152.29 129.79 156.61 128.37 C 159.06 127.57 161.41 126.14 162.58 123.75 C 157.67 126.19 152.33 127.47 146.93 128.30 Z" />
<path fill="#FFFFFF" opacity="1.00" d=" M 120.03 43.96 C 116.09 37.55 116.29 27.55 123.13 23.13 C 129.83 25.62 132.52 33.05 131.57 39.71 C 132.05 40.41 132.53 41.10 133.03 41.79 C 133.24 35.92 133.12 29.18 128.57 24.78 C 129.05 24.45 129.53 24.13 130.02 23.81 C 131.59 26.09 133.44 28.32 134.07 31.09 C 135.22 34.87 134.14 38.81 134.32 42.67 C 133.98 42.69 133.30 42.74 132.96 42.76 L 132.93 45.81 C 132.21 44.27 131.84 42.61 131.27 41.02 C 130.48 43.11 129.93 45.71 127.78 46.87 C 124.99 48.99 121.48 46.52 120.03 43.96 Z" />
<path fill="#FFFFFF" opacity="1.00" d=" M 159.47 93.83 C 162.49 95.65 165.80 98.03 165.87 101.94 C 165.80 105.99 167.03 110.70 164.17 114.10 C 162.63 116.60 159.49 116.88 156.88 117.30 C 158.50 112.40 158.91 107.04 157.33 102.07 C 158.08 99.33 159.16 96.68 159.47 93.83 Z" />
<path fill="#FFFFFF" opacity="1.00" d=" M 74.15 108.07 C 82.98 105.19 92.69 107.82 100.51 112.30 C 103.70 115.34 105.82 119.69 106.12 124.06 C 104.46 129.28 100.11 135.00 94.04 134.72 C 88.87 134.49 83.99 136.34 79.29 138.27 C 81.21 129.82 76.50 121.15 70.20 115.75 C 68.23 113.89 65.59 115.71 63.50 116.26 C 62.65 114.01 63.29 111.54 63.25 109.21 C 62.82 108.90 61.96 108.27 61.53 107.95 C 65.87 108.29 70.22 108.63 74.58 108.65 C 73.36 110.56 72.15 112.48 71.13 114.50 C 74.23 114.68 77.34 114.77 80.43 114.52 C 80.28 114.93 79.99 115.74 79.84 116.15 C 84.14 115.13 89.25 118.31 88.50 123.10 C 89.02 121.83 89.58 120.57 90.17 119.33 C 89.46 117.94 89.02 116.23 87.54 115.44 C 85.26 114.10 82.36 114.52 80.17 113.01 C 77.89 112.98 75.61 113.00 73.33 112.95 C 74.91 111.89 76.52 110.89 78.11 109.84 C 76.77 109.30 75.42 108.77 74.15 108.07 M 79.43 110.15 C 83.53 112.45 88.02 114.02 92.46 115.51 C 89.72 111.14 84.05 110.80 79.43 110.15 Z" />
<path fill="#FFFFFF" opacity="1.00" d=" M 32.68 118.67 C 40.47 113.25 49.92 109.23 59.58 110.18 C 61.72 111.86 61.05 114.79 61.22 117.16 C 57.62 117.86 54.26 119.41 50.97 120.97 C 47.65 122.46 45.43 125.49 42.30 127.26 C 37.44 129.65 35.54 135.97 37.36 140.90 C 38.81 145.19 38.11 149.87 39.69 154.13 C 41.54 159.26 41.41 164.82 42.96 170.03 C 43.84 174.25 45.66 178.68 44.07 182.97 C 43.44 185.47 41.47 187.28 39.89 189.21 C 36.36 189.58 32.55 189.56 29.48 191.60 C 26.64 193.13 24.47 196.20 20.97 196.17 C 17.20 196.42 13.58 198.64 9.81 197.05 C 11.47 195.71 13.26 194.57 14.95 193.27 C 13.72 193.49 11.27 193.92 10.05 194.14 C 11.74 192.33 13.60 190.65 15.97 189.82 C 19.26 188.71 20.60 185.22 23.00 183.00 C 25.25 180.60 28.72 179.14 29.78 175.79 C 32.24 168.80 30.07 161.30 28.28 154.41 C 25.98 148.18 27.21 141.46 27.09 134.99 C 28.04 131.27 25.03 127.62 26.82 124.03 C 27.39 121.08 30.46 120.10 32.68 118.67 M 34.25 120.09 C 33.47 124.40 39.09 126.91 42.20 124.21 C 38.87 124.26 36.19 122.72 34.25 120.09 M 29.81 125.58 C 29.92 128.03 30.33 130.45 30.50 132.90 L 31.50 131.87 C 31.09 133.89 30.92 135.94 30.98 138.00 C 31.97 135.99 32.73 133.87 33.58 131.79 L 32.35 132.10 C 33.47 129.45 31.91 127.06 29.81 125.58 M 40.65 174.75 C 41.54 179.66 38.20 183.51 35.89 187.45 C 40.17 185.27 44.31 179.18 40.65 174.75 M 25.97 187.97 C 28.59 186.08 30.91 183.79 32.84 181.21 C 29.77 182.53 27.47 185.02 25.97 187.97 Z" />
<path fill="#FFFFFF" opacity="1.00" d=" M 129.63 112.97 C 128.46 110.77 131.39 111.20 132.48 110.54 L 131.47 111.84 C 132.35 112.49 134.09 113.78 134.97 114.42 C 133.38 114.23 129.73 115.40 129.63 112.97 Z" />
<path fill="#FFFFFF" opacity="1.00" d=" M 52.09 122.11 C 57.77 119.83 63.34 116.42 69.71 116.91 C 74.61 122.11 79.36 129.22 77.84 136.68 C 72.50 139.73 66.05 140.39 60.05 139.43 C 57.39 138.81 54.91 140.04 52.49 140.95 C 53.40 145.72 54.86 150.36 56.16 155.03 C 57.76 160.54 56.41 166.28 56.78 171.89 C 57.53 177.56 57.66 183.45 60.32 188.65 C 61.45 192.58 64.65 197.65 61.40 201.29 C 56.23 203.76 50.05 203.26 44.99 206.11 C 40.96 208.49 36.44 209.77 31.90 210.74 C 28.80 210.50 25.64 209.64 23.86 206.88 C 23.04 206.86 21.40 206.82 20.57 206.80 C 22.59 202.13 28.34 201.38 32.52 199.52 C 37.09 196.78 38.97 191.37 43.02 188.07 C 44.86 186.59 46.82 184.69 46.55 182.10 C 46.13 176.60 44.76 171.22 43.63 165.83 C 42.68 161.23 43.02 156.33 41.05 151.97 C 40.15 150.10 40.14 148.00 40.13 145.97 C 40.22 142.38 38.73 139.02 38.11 135.53 C 39.54 133.17 40.19 130.04 42.89 128.75 C 46.28 126.97 48.47 123.52 52.09 122.11 M 57.58 130.14 C 62.91 129.29 66.69 124.94 71.13 122.21 C 65.88 123.33 61.31 126.38 57.58 130.14 M 47.60 129.42 C 48.52 132.02 51.08 132.63 53.30 131.13 C 51.41 130.51 49.54 129.83 47.60 129.42 M 42.52 141.45 C 44.55 139.91 45.32 137.62 45.22 135.11 C 45.86 134.11 46.49 133.11 47.09 132.10 C 42.61 132.93 43.30 138.05 42.52 141.45 M 45.25 150.26 C 45.80 150.83 45.80 150.83 45.25 150.26 M 49.83 157.16 C 50.85 162.35 51.29 167.79 53.82 172.54 C 53.43 164.95 50.45 157.72 50.22 150.08 C 49.72 152.39 49.25 154.81 49.83 157.16 M 46.60 152.29 C 46.05 158.53 47.57 164.67 48.64 170.76 C 48.88 170.77 49.38 170.78 49.63 170.78 C 48.60 166.27 47.91 161.67 47.81 157.03 C 47.87 155.35 47.34 153.77 46.60 152.29 M 56.11 191.84 C 55.74 192.44 55.00 193.63 54.63 194.23 C 53.45 195.03 52.30 195.90 51.30 196.93 C 53.57 196.55 58.52 194.88 56.11 191.84 M 41.52 201.36 C 43.73 199.29 45.53 196.79 46.71 194.00 C 44.26 195.84 42.22 198.31 41.52 201.36 M 26.44 204.04 C 28.93 205.51 31.60 206.81 34.54 206.92 C 32.81 204.21 29.46 203.22 26.44 204.04 Z" />
</g>
<g id="#4e504bff">
<path fill="#333333" opacity="1.00" d=" M 144.01 16.75 C 150.01 16.30 153.15 22.74 153.75 27.79 C 155.11 24.59 158.19 23.11 161.36 22.28 C 169.10 26.57 170.56 36.80 167.76 44.54 L 168.34 44.18 C 169.24 43.35 170.12 42.37 170.03 41.05 C 170.25 36.72 170.77 32.14 168.94 28.06 C 167.85 24.94 164.46 23.72 162.07 21.83 C 166.22 21.26 169.26 24.84 170.64 28.35 C 172.67 33.58 172.78 39.90 169.82 44.81 C 168.40 47.01 166.00 47.98 163.60 48.71 C 163.51 48.36 163.33 47.67 163.24 47.33 C 164.95 45.56 166.94 43.66 167.08 41.03 C 167.22 36.86 168.19 32.25 165.67 28.55 C 164.36 26.01 161.73 24.71 159.43 23.26 C 157.46 25.00 155.63 26.91 154.18 29.12 C 156.40 30.39 158.75 31.42 161.11 32.43 C 162.04 38.88 160.26 45.37 160.54 51.80 C 161.88 56.75 162.13 61.89 162.46 66.99 C 162.86 69.77 161.28 72.23 160.62 74.83 C 159.35 78.49 160.02 82.40 160.18 86.17 C 159.92 86.06 159.42 85.86 159.17 85.76 C 158.42 81.54 158.43 77.21 159.00 72.97 C 159.49 72.85 160.46 72.62 160.95 72.50 C 161.45 66.11 159.61 59.91 159.76 53.53 C 158.52 47.17 159.93 40.78 160.01 34.40 C 158.16 32.87 156.15 31.58 154.00 30.51 C 153.83 31.25 153.50 32.73 153.33 33.48 C 152.52 29.57 152.66 25.20 150.21 21.83 C 148.69 19.55 146.12 18.37 144.01 16.75 Z" />
<path fill="#333333" opacity="1.00" d=" M 135.54 23.64 C 136.67 20.06 139.82 18.02 143.36 17.28 C 147.16 19.56 149.90 23.27 150.61 27.68 C 149.27 30.00 152.08 31.45 152.57 33.52 C 154.93 40.09 155.01 49.07 148.45 53.28 C 152.31 47.90 154.06 40.88 151.58 34.53 C 150.49 30.80 146.98 28.81 144.05 26.67 C 145.18 27.05 147.43 27.82 148.56 28.20 C 149.80 23.68 144.98 20.16 141.45 18.27 C 139.46 19.90 137.64 21.77 136.47 24.09 C 137.82 24.98 139.16 25.88 140.46 26.84 C 137.55 26.32 134.77 25.27 132.23 23.76 C 133.05 23.73 134.71 23.67 135.54 23.64 Z" />
<path fill="#333333" opacity="1.00" d=" M 126.84 23.17 C 126.94 22.72 127.15 21.83 127.25 21.38 C 132.61 22.71 135.62 28.25 135.48 33.49 C 136.39 29.73 140.11 26.93 144.01 27.74 C 150.63 31.50 151.52 39.95 151.00 46.79 C 150.52 46.10 150.04 45.40 149.58 44.70 C 149.86 40.44 149.49 35.76 146.79 32.26 C 145.36 30.34 143.09 29.38 141.13 28.13 C 138.67 30.17 136.14 32.62 135.82 36.00 C 134.91 41.66 135.94 48.78 141.19 52.05 C 145.14 54.37 148.69 49.76 149.19 46.19 C 149.59 46.94 149.99 47.70 150.39 48.47 C 149.12 50.58 147.58 52.52 145.80 54.23 C 143.97 54.13 142.14 54.01 140.32 53.80 C 140.09 58.12 140.41 62.55 138.49 66.56 C 137.58 75.03 139.08 84.12 135.18 92.01 C 135.29 85.03 137.16 77.81 134.91 70.97 C 135.41 70.98 136.40 71.00 136.90 71.01 C 136.76 69.07 136.42 67.08 137.25 65.24 C 138.79 61.26 138.07 56.91 139.11 52.82 C 136.88 49.94 134.94 46.69 134.82 42.93 C 134.00 44.39 133.13 45.83 132.21 47.23 C 131.62 46.82 131.02 46.42 130.43 46.03 C 129.46 47.62 128.06 49.41 125.96 49.21 C 122.70 49.64 120.16 46.98 118.72 44.37 C 115.77 38.92 115.38 31.96 118.27 26.40 C 119.85 23.38 123.63 21.92 126.84 23.17 M 120.03 43.96 C 121.48 46.52 124.99 48.99 127.78 46.87 C 129.93 45.71 130.48 43.11 131.27 41.02 C 131.84 42.61 132.21 44.27 132.93 45.81 L 132.96 42.76 C 133.30 42.74 133.98 42.69 134.32 42.67 C 134.14 38.81 135.22 34.87 134.07 31.09 C 133.44 28.32 131.59 26.09 130.02 23.81 C 129.53 24.13 129.05 24.45 128.57 24.78 C 133.12 29.18 133.24 35.92 133.03 41.79 C 132.53 41.10 132.05 40.41 131.57 39.71 C 132.52 33.05 129.83 25.62 123.13 23.13 C 116.29 27.55 116.09 37.55 120.03 43.96 Z" />
<path fill="#333333" opacity="1.00" d=" M 125.54 56.70 C 125.58 52.89 127.48 49.41 130.90 47.60 C 127.98 52.58 126.34 58.50 127.20 64.27 C 127.34 65.92 126.35 67.38 125.86 68.90 C 124.32 72.08 126.28 75.57 126.17 78.89 C 125.70 78.19 124.75 76.79 124.27 76.10 C 123.23 78.81 121.94 81.46 121.28 84.30 C 121.03 87.58 122.10 90.81 121.73 94.10 C 128.27 91.08 134.71 94.96 140.84 97.03 C 141.44 94.20 141.99 91.35 142.67 88.54 C 143.57 92.44 142.76 96.36 141.70 100.13 C 142.31 99.68 143.52 98.76 144.13 98.30 C 144.16 103.36 143.39 108.37 143.16 113.43 C 140.47 112.02 137.71 113.17 135.14 114.27 C 132.80 116.54 130.10 118.40 127.76 120.67 C 125.00 121.71 121.97 121.73 119.08 122.14 C 124.76 125.34 131.75 125.89 137.94 123.92 C 141.51 123.01 144.76 120.81 148.54 120.88 C 150.50 120.88 152.78 120.90 153.98 119.04 C 156.63 114.46 156.29 108.90 156.18 103.80 C 155.63 104.60 154.52 106.19 153.97 106.99 C 156.35 101.09 157.93 94.87 158.39 88.51 L 159.15 88.64 C 159.43 88.78 160.01 89.07 160.30 89.22 C 159.96 90.01 159.29 91.58 158.96 92.37 C 162.15 93.15 165.99 94.49 166.82 98.12 C 167.64 102.95 169.07 108.22 166.89 112.90 C 165.47 117.05 160.52 119.70 156.31 118.31 C 154.49 121.28 151.62 123.42 147.97 122.83 C 139.62 125.36 130.67 129.00 121.91 126.03 C 117.86 124.54 113.56 125.69 109.71 127.20 C 108.52 128.63 106.84 129.24 105.06 129.52 C 104.96 130.06 104.77 131.14 104.67 131.68 C 102.40 133.48 100.22 135.64 97.29 136.29 C 93.67 137.52 89.80 136.78 86.09 137.33 C 83.09 137.97 80.27 139.22 77.44 140.35 C 77.53 139.94 77.70 139.12 77.79 138.71 C 73.38 140.33 68.71 141.41 63.98 140.98 C 61.30 140.59 58.77 141.62 56.34 142.60 C 56.12 142.09 55.68 141.09 55.45 140.58 C 53.73 147.91 58.80 154.57 58.45 161.92 C 57.84 169.23 58.03 176.70 59.92 183.82 C 61.89 189.14 65.85 194.75 63.62 200.61 C 61.15 206.13 53.79 204.08 49.17 206.29 C 43.73 208.99 38.08 211.46 32.11 212.67 C 27.05 212.53 23.15 209.19 19.05 206.70 C 19.64 205.54 20.24 204.37 20.85 203.22 C 23.53 201.75 26.00 199.80 29.01 199.00 C 33.23 198.01 35.56 194.04 38.19 190.99 C 33.17 191.44 29.11 194.24 25.28 197.23 C 21.82 198.44 17.99 198.19 14.44 199.21 C 12.16 200.00 10.45 198.06 8.83 196.81 C 9.27 195.25 9.59 193.65 10.15 192.12 C 12.37 189.17 16.52 188.57 18.67 185.53 C 22.10 180.57 28.69 177.66 29.37 171.07 C 29.93 163.49 26.27 156.44 26.07 148.93 C 25.97 143.29 25.20 137.71 25.00 132.08 C 24.19 128.01 24.42 123.44 27.13 120.09 C 30.21 118.22 33.18 116.17 36.17 114.17 C 41.98 111.01 48.42 108.85 55.03 108.29 C 57.12 108.08 58.90 106.84 60.88 106.26 C 63.95 106.30 66.96 107.11 70.04 106.94 C 73.13 107.03 75.90 105.45 78.89 104.96 C 82.19 104.69 85.46 105.45 88.73 105.82 C 90.75 104.42 92.97 103.26 95.44 102.90 C 102.14 101.79 105.73 94.93 112.06 92.98 C 114.22 91.87 116.66 92.58 118.93 92.82 C 119.14 94.02 119.35 95.22 119.57 96.42 C 121.71 98.14 124.70 100.77 122.82 103.78 C 121.86 107.17 118.79 109.02 115.91 110.63 C 116.57 108.54 118.03 106.95 119.73 105.65 C 120.25 103.82 121.37 102.07 121.27 100.12 C 119.29 98.69 117.13 97.14 118.19 94.30 C 110.95 92.54 105.99 98.80 100.65 102.41 C 100.62 102.82 100.56 103.64 100.53 104.05 C 98.96 104.73 97.41 105.46 95.92 106.30 C 95.45 105.87 95.00 105.43 94.54 104.99 L 96.12 103.84 C 94.56 104.47 93.03 105.15 91.50 105.84 C 96.23 108.48 102.13 109.95 105.06 114.91 C 104.83 114.34 104.36 113.19 104.13 112.61 C 107.19 113.00 110.30 113.49 113.07 114.95 C 110.31 115.23 107.57 114.77 104.87 114.27 C 107.07 117.91 109.15 122.29 107.53 126.57 C 110.91 124.86 114.62 123.92 118.40 123.72 C 118.30 123.09 118.10 121.83 118.00 121.20 C 120.86 120.13 123.79 119.24 126.82 118.81 C 127.75 118.06 128.68 117.31 129.62 116.57 C 128.37 114.96 127.59 113.09 127.66 111.03 C 125.89 110.41 124.20 109.57 122.69 108.46 C 124.93 108.80 127.52 108.71 129.13 110.63 C 131.13 109.65 132.60 107.60 134.83 107.15 C 134.44 108.06 133.80 108.80 132.91 109.39 C 133.28 110.13 133.65 110.88 134.03 111.63 C 134.89 111.88 136.61 112.38 137.46 112.64 C 138.80 112.33 140.14 112.01 141.48 111.69 C 142.09 107.02 141.81 102.36 140.88 97.75 C 136.73 97.63 132.97 95.92 129.09 94.67 C 126.26 93.55 123.32 94.83 120.48 95.20 C 119.98 89.40 118.75 83.08 121.76 77.73 C 123.55 74.31 123.52 70.36 124.81 66.77 C 126.20 63.53 124.20 60.00 125.54 56.70 M 159.47 93.83 C 159.16 96.68 158.08 99.33 157.33 102.07 C 158.91 107.04 158.50 112.40 156.88 117.30 C 159.49 116.88 162.63 116.60 164.17 114.10 C 167.03 110.70 165.80 105.99 165.87 101.94 C 165.80 98.03 162.49 95.65 159.47 93.83 M 74.15 108.07 C 75.42 108.77 76.77 109.30 78.11 109.84 C 76.52 110.89 74.91 111.89 73.33 112.95 C 75.61 113.00 77.89 112.98 80.17 113.01 C 82.36 114.52 85.26 114.10 87.54 115.44 C 89.02 116.23 89.46 117.94 90.17 119.33 C 89.58 120.57 89.02 121.83 88.50 123.10 C 89.25 118.31 84.14 115.13 79.84 116.15 C 79.99 115.74 80.28 114.93 80.43 114.52 C 77.34 114.77 74.23 114.68 71.13 114.50 C 72.15 112.48 73.36 110.56 74.58 108.65 C 70.22 108.63 65.87 108.29 61.53 107.95 C 61.96 108.27 62.82 108.90 63.25 109.21 C 63.29 111.54 62.65 114.01 63.50 116.26 C 65.59 115.71 68.23 113.89 70.20 115.75 C 76.50 121.15 81.21 129.82 79.29 138.27 C 83.99 136.34 88.87 134.49 94.04 134.72 C 100.11 135.00 104.46 129.28 106.12 124.06 C 105.82 119.69 103.70 115.34 100.51 112.30 C 92.69 107.82 82.98 105.19 74.15 108.07 M 32.68 118.67 C 30.46 120.10 27.39 121.08 26.82 124.03 C 25.03 127.62 28.04 131.27 27.09 134.99 C 27.21 141.46 25.98 148.18 28.28 154.41 C 30.07 161.30 32.24 168.80 29.78 175.79 C 28.72 179.14 25.25 180.60 23.00 183.00 C 20.60 185.22 19.26 188.71 15.97 189.82 C 13.60 190.65 11.74 192.33 10.05 194.14 C 11.27 193.92 13.72 193.49 14.95 193.27 C 13.26 194.57 11.47 195.71 9.81 197.05 C 13.58 198.64 17.20 196.42 20.97 196.17 C 24.47 196.20 26.64 193.13 29.48 191.60 C 32.55 189.56 36.36 189.58 39.89 189.21 C 41.47 187.28 43.44 185.47 44.07 182.97 C 45.66 178.68 43.84 174.25 42.96 170.03 C 41.41 164.82 41.54 159.26 39.69 154.13 C 38.11 149.87 38.81 145.19 37.36 140.90 C 35.54 135.97 37.44 129.65 42.30 127.26 C 45.43 125.49 47.65 122.46 50.97 120.97 C 54.26 119.41 57.62 117.86 61.22 117.16 C 61.05 114.79 61.72 111.86 59.58 110.18 C 49.92 109.23 40.47 113.25 32.68 118.67 M 129.63 112.97 C 129.73 115.40 133.38 114.23 134.97 114.42 C 134.09 113.78 132.35 112.49 131.47 111.84 L 132.48 110.54 C 131.39 111.20 128.46 110.77 129.63 112.97 M 52.09 122.11 C 48.47 123.52 46.28 126.97 42.89 128.75 C 40.19 130.04 39.54 133.17 38.11 135.53 C 38.73 139.02 40.22 142.38 40.13 145.97 C 40.14 148.00 40.15 150.10 41.05 151.97 C 43.02 156.33 42.68 161.23 43.63 165.83 C 44.76 171.22 46.13 176.60 46.55 182.10 C 46.82 184.69 44.86 186.59 43.02 188.07 C 38.97 191.37 37.09 196.78 32.52 199.52 C 28.34 201.38 22.59 202.13 20.57 206.80 C 21.40 206.82 23.04 206.86 23.86 206.88 C 25.64 209.64 28.80 210.50 31.90 210.74 C 36.44 209.77 40.96 208.49 44.99 206.11 C 50.05 203.26 56.23 203.76 61.40 201.29 C 64.65 197.65 61.45 192.58 60.32 188.65 C 57.66 183.45 57.53 177.56 56.78 171.89 C 56.41 166.28 57.76 160.54 56.16 155.03 C 54.86 150.36 53.40 145.72 52.49 140.95 C 54.91 140.04 57.39 138.81 60.05 139.43 C 66.05 140.39 72.50 139.73 77.84 136.68 C 79.36 129.22 74.61 122.11 69.71 116.91 C 63.34 116.42 57.77 119.83 52.09 122.11 Z" />
<path fill="#333333" opacity="1.00" d=" M 147.50 61.45 C 149.27 58.04 149.42 53.79 152.20 50.95 C 151.14 55.42 149.70 59.78 148.29 64.15 C 147.23 69.05 148.54 74.06 147.85 79.00 C 148.67 82.92 149.12 86.92 148.71 90.93 C 148.36 90.70 147.66 90.25 147.31 90.03 C 147.55 86.92 147.34 83.69 145.56 81.02 C 145.77 77.90 147.39 74.82 146.29 71.71 C 145.50 68.25 145.83 64.61 147.50 61.45 Z" />
<path fill="#333333" opacity="1.00" d=" M 130.58 64.26 C 131.76 65.98 132.49 67.93 133.21 69.87 C 132.48 72.17 131.32 74.67 132.41 77.07 L 132.68 77.41 C 131.81 77.89 130.89 78.27 130.00 78.69 C 131.17 73.95 130.77 69.08 130.58 64.26 Z" />
<path fill="#333333" opacity="1.00" d=" M 153.73 76.98 C 154.96 72.97 156.41 68.94 158.93 65.53 C 158.47 69.18 156.97 72.56 156.13 76.10 C 156.23 78.44 157.42 80.61 157.37 82.97 C 157.21 86.97 156.27 90.89 155.22 94.74 C 153.59 93.68 151.90 92.60 151.26 90.65 C 152.26 90.91 153.25 91.19 154.25 91.47 C 154.75 88.29 155.81 85.17 155.78 81.93 C 155.32 80.20 154.45 78.61 153.73 76.98 Z" />
<path fill="#333333" opacity="1.00" d=" M 126.06 79.71 C 128.73 80.92 129.32 84.01 130.22 86.51 C 130.82 87.93 130.32 89.40 129.61 90.66 C 128.26 87.07 126.90 83.46 126.06 79.71 Z" />
<path fill="#333333" opacity="1.00" d=" M 145.55 83.21 C 147.32 83.77 145.98 87.77 144.33 87.60 C 143.62 86.19 144.29 84.10 145.55 83.21 Z" />
<path fill="#333333" opacity="1.00" d=" M 109.76 102.02 C 110.83 100.29 111.96 98.60 113.25 97.03 C 112.87 98.68 112.45 100.34 112.02 101.98 C 109.70 102.89 107.36 103.76 105.02 104.61 C 103.84 103.80 102.68 102.97 101.56 102.07 C 103.41 102.41 105.21 102.94 106.98 103.57 C 107.90 103.05 108.83 102.53 109.76 102.02 Z" />
<path fill="#333333" opacity="1.00" d=" M 125.04 98.52 C 126.68 99.09 128.31 99.71 129.98 100.24 C 130.61 100.86 131.25 101.47 131.88 102.10 C 129.15 101.77 126.12 101.48 125.04 98.52 Z" />
<path fill="#333333" opacity="1.00" d=" M 132.19 99.97 C 134.01 100.47 135.73 102.00 137.71 101.44 L 137.12 102.15 C 139.10 102.11 141.02 102.66 141.50 104.82 C 140.04 104.31 138.09 101.61 136.92 103.90 C 136.63 104.46 136.03 105.58 135.74 106.14 C 134.33 105.49 134.96 103.12 134.38 101.81 C 133.83 101.35 132.74 100.43 132.19 99.97 Z" />
<path fill="#333333" opacity="1.00" d=" M 125.56 104.15 C 127.47 105.17 129.30 106.32 131.13 107.47 C 128.47 108.60 126.62 106.30 125.56 104.15 Z" />
<path fill="#333333" opacity="1.00" d=" M 107.03 104.79 C 108.58 104.87 110.14 104.96 111.70 105.05 C 112.40 106.25 113.11 107.45 113.78 108.67 C 111.38 107.66 109.21 106.20 107.03 104.79 Z" />
<path fill="#333333" opacity="1.00" d=" M 79.43 110.15 C 84.05 110.80 89.72 111.14 92.46 115.51 C 88.02 114.02 83.53 112.45 79.43 110.15 Z" />
<path fill="#333333" opacity="1.00" d=" M 107.66 111.12 C 110.14 111.23 112.60 111.56 115.04 112.01 C 115.18 112.52 115.47 113.55 115.61 114.07 C 112.92 113.22 110.23 112.33 107.66 111.12 Z" />
<path fill="#333333" opacity="1.00" d=" M 120.61 110.44 C 122.82 111.39 124.93 112.60 126.75 114.18 C 123.89 114.59 121.70 112.97 120.61 110.44 Z" />
<path fill="#333333" opacity="1.00" d=" M 117.36 113.33 C 118.83 112.96 120.88 115.20 120.18 116.62 C 118.55 117.18 116.67 114.83 117.36 113.33 Z" />
<path fill="#333333" opacity="1.00" d=" M 34.25 120.09 C 36.19 122.72 38.87 124.26 42.20 124.21 C 39.09 126.91 33.47 124.40 34.25 120.09 Z" />
<path fill="#333333" opacity="1.00" d=" M 57.58 130.14 C 61.31 126.38 65.88 123.33 71.13 122.21 C 66.69 124.94 62.91 129.29 57.58 130.14 Z" />
<path fill="#333333" opacity="1.00" d=" M 146.93 128.30 C 152.33 127.47 157.67 126.19 162.58 123.75 C 161.41 126.14 159.06 127.57 156.61 128.37 C 152.29 129.79 147.78 130.53 143.42 131.81 C 143.93 137.19 144.78 142.67 143.79 148.04 C 141.09 143.29 142.21 137.40 141.66 132.16 C 139.20 132.75 136.75 133.37 134.34 134.16 C 134.76 139.64 135.23 145.12 135.06 150.62 C 134.57 150.31 133.60 149.70 133.12 149.39 C 132.69 144.46 132.99 139.48 132.72 134.54 C 118.20 138.42 103.57 141.92 89.20 146.31 C 89.88 152.27 90.56 158.32 89.79 164.31 C 88.34 161.65 88.22 158.55 87.78 155.62 C 87.27 155.59 86.26 155.54 85.75 155.51 C 86.30 155.43 87.39 155.27 87.94 155.19 C 87.88 152.38 87.80 149.57 87.68 146.76 C 85.22 147.53 82.76 148.24 80.31 149.01 C 81.10 158.06 81.16 167.12 81.32 176.19 L 79.75 176.35 C 78.94 167.44 78.78 158.50 78.66 149.56 C 74.07 150.55 69.78 153.20 65.00 153.10 C 61.47 152.03 57.88 150.32 55.69 147.21 C 58.74 147.89 61.21 149.89 64.08 151.00 C 66.85 151.39 69.53 150.09 72.11 149.22 C 79.45 145.78 87.59 144.78 95.19 142.03 C 112.38 137.27 129.48 132.06 146.93 128.30 Z" />
<path fill="#333333" opacity="1.00" d=" M 29.81 125.58 C 31.91 127.06 33.47 129.45 32.35 132.10 L 33.58 131.79 C 32.73 133.87 31.97 135.99 30.98 138.00 C 30.92 135.94 31.09 133.89 31.50 131.87 L 30.50 132.90 C 30.33 130.45 29.92 128.03 29.81 125.58 Z" />
<path fill="#333333" opacity="1.00" d=" M 47.60 129.42 C 49.54 129.83 51.41 130.51 53.30 131.13 C 51.08 132.63 48.52 132.02 47.60 129.42 Z" />
<path fill="#333333" opacity="1.00" d=" M 42.52 141.45 C 43.30 138.05 42.61 132.93 47.09 132.10 C 46.49 133.11 45.86 134.11 45.22 135.11 C 45.32 137.62 44.55 139.91 42.52 141.45 Z" />
<path fill="#333333" opacity="1.00" d=" M 45.25 150.26 C 45.80 150.83 45.80 150.83 45.25 150.26 Z" />
<path fill="#333333" opacity="1.00" d=" M 49.83 157.16 C 49.25 154.81 49.72 152.39 50.22 150.08 C 50.45 157.72 53.43 164.95 53.82 172.54 C 51.29 167.79 50.85 162.35 49.83 157.16 Z" />
<path fill="#333333" opacity="1.00" d=" M 46.60 152.29 C 47.34 153.77 47.87 155.35 47.81 157.03 C 47.91 161.67 48.60 166.27 49.63 170.78 C 49.38 170.78 48.88 170.77 48.64 170.76 C 47.57 164.67 46.05 158.53 46.60 152.29 Z" />
<path fill="#333333" opacity="1.00" d=" M 40.65 174.75 C 44.31 179.18 40.17 185.27 35.89 187.45 C 38.20 183.51 41.54 179.66 40.65 174.75 Z" />
<path fill="#333333" opacity="1.00" d=" M 25.97 187.97 C 27.47 185.02 29.77 182.53 32.84 181.21 C 30.91 183.79 28.59 186.08 25.97 187.97 Z" />
<path fill="#333333" opacity="1.00" d=" M 56.11 191.84 C 58.52 194.88 53.57 196.55 51.30 196.93 C 52.30 195.90 53.45 195.03 54.63 194.23 C 55.00 193.63 55.74 192.44 56.11 191.84 Z" />
<path fill="#333333" opacity="1.00" d=" M 41.52 201.36 C 42.22 198.31 44.26 195.84 46.71 194.00 C 45.53 196.79 43.73 199.29 41.52 201.36 Z" />
<path fill="#333333" opacity="1.00" d=" M 26.44 204.04 C 29.46 203.22 32.81 204.21 34.54 206.92 C 31.60 206.81 28.93 205.51 26.44 204.04 Z" />
</g>
</svg>
