<?xml version="1.0" encoding="UTF-8" ?>
<!DOCTYPE svg PUBLIC "-//W3C//DTD SVG 1.1//EN" "http://www.w3.org/Graphics/SVG/1.1/DTD/svg11.dtd">
<svg width="225pt" height="222pt" viewBox="0 0 225 222" version="1.1" xmlns="http://www.w3.org/2000/svg">
<g id="#ffffffff">
<path fill="#FFFFFF" opacity="1.00" d=" M 0.00 0.00 L 225.00 0.00 L 225.00 222.00 L 0.00 222.00 L 0.00 0.00 M 151.34 64.58 C 150.78 66.33 149.74 67.99 149.63 69.86 C 150.05 71.20 150.89 72.36 151.56 73.60 C 149.02 71.92 146.29 70.60 143.62 69.17 C 140.64 68.46 137.92 67.06 135.17 65.75 C 133.12 64.69 131.14 66.40 129.84 67.84 C 127.04 71.08 124.96 74.90 121.76 77.79 C 117.61 81.47 116.68 87.17 115.64 92.32 C 111.50 93.02 107.16 94.44 104.62 98.01 C 102.32 99.39 100.20 101.05 97.85 102.34 C 94.64 103.00 91.37 103.70 88.76 105.83 C 84.47 105.37 79.97 104.06 75.79 105.76 C 71.54 107.50 66.86 107.02 62.45 106.30 C 62.58 106.81 62.85 107.82 62.99 108.32 C 66.87 108.30 70.90 108.13 74.59 109.53 C 72.94 110.79 72.00 112.61 71.19 114.46 C 74.04 114.64 76.93 114.58 79.73 115.21 L 80.27 115.55 C 84.36 115.94 89.09 118.17 88.62 123.00 C 89.10 121.77 89.61 120.55 90.14 119.34 C 89.34 115.07 84.87 114.26 81.29 113.67 L 80.74 113.29 C 78.32 112.73 75.81 113.05 73.35 112.95 C 74.90 111.87 76.49 110.86 78.05 109.79 C 76.71 109.27 75.37 108.74 74.10 108.08 C 82.76 105.21 92.24 107.76 100.03 111.98 C 103.45 114.62 105.21 118.91 106.12 123.02 C 106.26 126.20 103.82 128.66 102.06 131.06 C 99.94 133.77 96.46 134.96 93.09 134.75 C 88.25 134.62 83.73 136.54 79.32 138.25 C 81.06 130.76 77.37 123.15 72.36 117.75 C 70.99 116.35 69.29 114.34 67.09 115.09 C 61.49 116.28 56.21 118.61 51.01 120.95 C 47.66 122.42 45.44 125.52 42.27 127.28 C 37.43 129.65 35.57 135.96 37.35 140.86 C 38.83 145.19 38.10 149.91 39.72 154.20 C 41.54 159.32 41.41 164.85 42.96 170.04 C 43.85 174.25 45.66 178.68 44.07 182.96 C 43.44 185.43 41.52 187.23 39.99 189.16 C 36.68 189.58 33.14 189.51 30.16 191.21 C 27.84 192.45 25.92 194.30 23.67 195.65 C 20.74 196.35 17.70 196.47 14.83 197.46 C 13.24 198.08 11.43 197.73 10.23 196.49 C 11.73 195.39 13.34 194.48 14.82 193.37 C 13.67 193.52 11.36 193.82 10.21 193.97 C 12.16 191.36 15.14 190.23 17.93 188.82 C 20.71 186.01 22.80 182.51 26.16 180.28 C 29.95 177.90 30.93 173.11 30.89 168.95 C 30.71 162.99 29.13 157.18 27.45 151.50 C 25.76 143.43 28.46 135.00 26.17 127.03 C 26.20 123.63 28.24 120.58 31.45 119.40 C 39.68 113.77 49.47 109.05 59.71 110.22 C 60.98 112.09 61.37 114.41 62.82 116.19 C 63.11 113.85 63.16 111.49 63.26 109.13 C 61.96 108.41 60.65 107.69 59.40 106.88 C 57.96 107.47 56.53 108.21 54.94 108.31 C 48.56 108.79 42.38 110.94 36.72 113.85 C 33.47 115.87 30.40 118.16 27.10 120.10 C 22.83 125.29 25.50 132.07 25.28 138.07 C 26.31 144.32 25.54 150.76 27.27 156.91 C 28.39 162.12 30.33 167.57 28.95 172.91 C 27.54 178.27 22.07 180.69 19.10 185.02 C 16.97 188.41 12.54 189.03 10.15 192.13 C 9.59 193.64 9.27 195.23 8.84 196.79 C 10.39 197.84 11.77 199.88 13.91 199.27 C 17.63 198.28 21.61 198.43 25.24 197.26 C 29.09 194.28 33.12 191.40 38.17 191.03 C 35.41 194.39 32.71 198.48 28.10 199.30 C 24.62 200.88 19.97 202.65 19.22 206.87 C 20.29 207.55 21.40 208.19 22.53 208.77 C 25.41 211.22 29.16 212.70 32.95 212.61 C 35.19 211.95 37.40 211.15 39.64 210.50 C 44.41 209.13 48.41 205.70 53.46 205.23 C 57.01 204.37 62.15 204.85 63.62 200.63 C 65.99 194.40 61.43 188.62 59.64 182.91 C 58.27 176.38 57.69 169.65 58.46 163.01 C 59.00 155.38 54.16 148.52 55.22 140.92 L 55.75 141.38 L 56.26 141.84 C 58.54 142.47 60.58 140.57 62.90 140.96 C 67.61 141.35 72.36 140.72 76.78 139.03 C 76.91 139.43 77.16 140.23 77.29 140.63 C 81.55 138.47 86.19 136.69 91.05 137.08 C 96.69 137.33 103.11 135.04 105.47 129.52 C 107.09 129.20 108.58 128.50 109.68 127.22 C 113.21 125.89 117.09 124.62 120.85 125.75 C 127.20 127.66 134.94 128.19 140.49 123.94 C 135.55 124.54 130.53 125.66 125.56 124.63 C 119.53 123.34 112.99 123.60 107.49 126.59 C 109.24 122.33 107.00 117.95 104.94 114.27 C 107.60 114.75 110.37 115.49 113.03 114.54 C 110.30 113.67 107.49 113.11 104.69 112.56 C 104.68 113.09 104.66 114.17 104.65 114.70 C 101.95 109.84 96.20 108.42 91.61 105.96 C 92.84 105.30 94.08 104.65 95.30 103.98 C 95.28 104.45 95.25 105.39 95.23 105.87 C 96.95 105.87 98.46 104.78 100.08 104.29 C 101.61 100.92 105.13 99.27 107.79 96.93 C 110.69 94.46 114.62 93.63 118.32 94.33 C 118.22 95.54 118.13 96.75 118.06 97.96 C 118.75 98.32 120.12 99.04 120.81 99.40 C 122.12 102.25 119.25 105.06 119.07 107.99 C 121.64 107.92 122.13 104.93 123.09 103.09 C 124.41 99.78 120.60 97.58 118.94 95.27 C 123.87 94.23 128.84 93.86 133.63 95.80 C 134.28 94.02 132.39 93.70 131.17 93.11 C 134.55 91.51 134.22 87.19 134.24 84.04 C 136.58 84.12 138.92 84.08 141.26 83.95 C 142.12 85.06 142.99 86.17 143.85 87.29 C 142.30 90.15 141.37 93.29 140.60 96.44 C 139.13 96.15 137.66 95.85 136.19 95.54 C 135.52 96.01 134.87 96.49 134.21 96.98 C 136.46 97.18 138.70 97.47 140.93 97.75 C 140.49 101.56 140.55 105.40 140.97 109.21 C 140.41 109.14 139.27 109.02 138.70 108.95 C 139.04 109.55 139.73 110.73 140.07 111.32 C 139.38 111.61 137.98 112.17 137.28 112.46 C 136.47 112.27 134.83 111.88 134.01 111.69 C 133.66 110.93 133.31 110.18 132.97 109.43 C 133.85 108.53 134.71 107.61 135.53 106.65 C 133.11 107.52 131.28 109.38 129.08 110.63 C 127.57 108.95 125.25 108.85 123.25 108.22 C 123.48 108.65 123.95 109.51 124.18 109.94 C 125.36 110.24 126.54 110.54 127.72 110.82 C 127.54 112.95 128.29 114.91 129.63 116.55 C 128.69 117.30 127.75 118.07 126.82 118.83 C 124.67 119.20 122.54 119.66 120.42 120.16 C 120.64 120.58 121.09 121.42 121.31 121.83 C 122.95 121.63 124.60 121.47 126.22 121.16 C 128.58 120.98 129.59 118.51 131.39 117.34 C 133.86 115.73 136.61 114.61 139.21 113.24 C 138.82 114.60 138.47 115.98 138.18 117.37 C 139.50 115.55 140.20 113.39 141.04 111.32 C 141.68 112.97 142.80 114.29 144.37 115.12 C 143.82 113.02 142.79 111.10 142.27 109.00 C 141.62 101.80 141.65 93.98 145.72 87.69 C 148.60 83.22 149.87 77.42 154.45 74.25 C 158.81 71.42 163.63 75.27 168.23 75.33 C 169.92 72.76 170.90 76.37 171.73 77.69 C 174.15 79.50 176.46 81.48 178.97 83.17 C 180.96 84.63 183.55 84.27 185.84 84.78 C 188.42 85.69 189.86 88.12 191.46 90.16 C 190.21 92.80 188.95 95.43 187.63 98.03 C 184.72 96.07 181.77 94.15 178.62 92.60 C 177.24 90.92 175.71 89.26 173.62 88.49 C 170.03 86.70 165.96 87.86 162.16 88.02 C 162.08 87.32 161.90 85.91 161.81 85.20 C 159.87 86.96 158.87 89.38 159.00 92.00 C 159.16 96.12 156.28 99.32 155.09 103.03 C 155.59 108.22 157.54 114.32 153.73 118.75 C 150.69 123.31 143.97 120.24 140.35 124.08 C 145.47 123.41 151.07 122.40 155.17 119.08 C 160.40 113.47 154.47 105.35 158.49 99.40 C 159.25 97.81 159.87 96.15 160.52 94.51 C 162.05 95.02 163.76 95.21 165.07 96.24 C 166.30 101.02 166.08 106.08 165.83 110.97 C 164.84 115.11 160.86 116.92 157.03 117.60 C 157.07 119.80 159.97 118.63 161.29 118.25 C 166.36 116.68 168.53 110.83 167.97 105.95 C 167.47 101.95 167.55 97.42 164.43 94.41 C 164.86 92.65 165.21 90.87 165.50 89.08 C 168.38 89.42 171.22 90.03 174.07 90.57 C 172.77 90.61 171.48 90.66 170.19 90.73 C 169.47 92.87 167.55 95.44 169.44 97.56 C 173.35 101.82 178.67 104.54 183.81 107.03 C 185.99 108.11 189.62 108.91 190.63 105.94 C 192.29 103.55 190.68 101.06 189.06 99.22 C 190.41 96.28 191.72 93.32 193.12 90.40 C 194.86 90.41 197.10 91.81 198.60 90.38 C 199.91 89.36 200.20 87.59 200.42 86.05 C 198.66 82.68 195.24 80.71 192.12 78.78 C 188.17 76.56 183.88 74.31 179.20 74.58 C 178.54 76.27 177.88 77.97 177.31 79.69 C 173.01 77.13 170.34 72.67 166.05 70.09 C 161.63 67.32 156.79 64.20 151.34 64.58 M 155.85 80.62 C 156.17 84.81 155.55 88.96 153.86 92.81 C 150.54 93.25 148.31 95.98 148.96 99.35 C 149.77 97.97 150.47 96.54 151.34 95.20 C 152.41 94.28 153.83 95.45 155.04 95.51 C 155.33 90.66 159.77 84.93 155.85 80.62 M 109.75 102.04 C 108.82 102.55 107.89 103.06 106.96 103.56 C 105.21 102.83 103.37 102.25 101.45 102.58 C 102.67 103.26 103.90 103.90 105.16 104.50 C 107.46 103.71 109.75 102.88 112.02 101.99 C 112.45 100.36 112.86 98.72 113.24 97.08 C 111.92 98.62 110.79 100.31 109.75 102.04 M 125.09 98.29 C 125.93 101.49 129.13 101.80 131.93 102.07 C 131.25 101.40 130.58 100.73 129.90 100.06 C 129.33 99.96 128.17 99.76 127.60 99.66 C 126.77 99.19 125.93 98.73 125.09 98.29 M 132.77 99.53 C 134.27 101.67 134.94 104.17 135.09 106.75 C 136.16 104.98 137.06 102.96 139.08 102.07 C 138.64 101.83 137.77 101.36 137.33 101.12 C 136.93 101.55 136.54 101.99 136.14 102.43 C 135.03 101.45 133.90 100.48 132.77 99.53 M 125.65 104.07 C 126.57 106.48 128.50 108.31 131.27 107.88 C 129.48 106.49 127.60 105.22 125.65 104.07 M 146.70 112.35 C 150.08 110.68 152.38 107.53 153.29 103.92 C 150.56 106.26 148.47 109.24 146.70 112.35 M 107.14 104.81 C 109.26 106.23 111.38 107.68 113.75 108.67 C 113.10 107.45 112.42 106.25 111.74 105.05 C 110.20 104.96 108.67 104.88 107.14 104.81 M 79.48 110.11 C 83.40 112.51 87.90 113.78 92.12 115.56 C 90.00 110.88 83.84 110.97 79.48 110.11 M 107.71 111.16 C 110.47 112.40 113.36 113.88 116.48 113.42 C 113.96 111.50 110.79 111.08 107.71 111.16 M 120.63 110.46 C 121.69 113.00 123.90 114.57 126.74 114.18 C 124.94 112.58 122.83 111.39 120.63 110.46 M 119.16 115.11 C 117.81 118.17 122.49 115.10 119.16 115.11 M 42.15 124.22 C 38.80 124.18 35.98 122.85 34.35 119.86 C 33.34 124.22 38.96 127.02 42.15 124.22 M 155.14 126.66 C 148.92 127.97 142.66 129.09 136.51 130.69 C 113.74 137.11 90.69 142.61 68.37 150.49 C 63.75 152.71 60.04 148.24 55.86 147.09 C 57.72 150.46 61.55 151.97 65.01 153.10 C 69.80 153.22 74.07 150.55 78.65 149.52 C 78.80 158.47 78.94 167.42 79.75 176.34 L 81.31 176.22 C 81.15 167.15 81.13 158.08 80.29 149.04 C 82.74 148.25 85.21 147.54 87.66 146.79 L 86.28 146.35 C 91.75 146.31 96.71 143.72 101.97 142.55 C 112.28 140.13 122.42 137.04 132.71 134.54 C 133.00 139.49 132.68 144.47 133.12 149.41 C 133.60 149.71 134.58 150.30 135.07 150.59 C 135.23 145.10 134.77 139.63 134.34 134.16 C 136.74 133.37 139.20 132.76 141.66 132.16 C 142.07 137.52 141.34 143.29 143.75 148.28 C 144.77 142.82 143.91 137.26 143.45 131.79 C 148.93 130.06 154.93 129.72 159.97 126.77 C 161.42 126.16 161.78 124.56 162.34 123.25 C 160.06 124.63 157.82 126.19 155.14 126.66 M 29.83 126.73 C 29.93 128.78 30.37 130.80 30.49 132.85 L 31.50 131.96 C 31.09 133.94 30.91 135.94 30.98 137.96 C 31.96 136.08 32.68 134.07 33.48 132.11 C 33.21 132.07 32.67 132.01 32.39 131.97 C 33.25 130.31 32.12 125.13 29.83 126.73 M 87.76 149.78 C 88.15 154.56 87.28 159.90 89.91 164.17 C 90.27 158.72 90.35 153.19 89.12 147.84 C 88.26 145.86 87.02 149.15 87.76 149.78 M 40.59 174.80 C 41.62 179.68 38.16 183.50 35.90 187.43 C 40.15 185.29 44.39 179.12 40.59 174.80 M 25.98 187.93 C 28.59 186.05 30.93 183.80 32.87 181.25 C 29.78 182.50 27.50 185.02 25.98 187.93 Z" />
<path fill="#FFFFFF" opacity="1.00" d=" M 152.31 65.92 C 156.79 65.92 160.72 68.33 164.44 70.54 C 165.86 71.44 167.81 72.40 167.77 74.35 C 165.78 72.96 162.12 73.72 161.13 71.08 C 160.43 70.72 159.73 70.38 159.04 70.04 C 159.59 70.57 160.70 71.63 161.25 72.17 C 158.50 71.76 155.71 71.90 153.10 72.87 C 152.42 71.92 151.68 71.01 151.11 69.99 C 151.41 68.61 151.90 67.27 152.31 65.92 Z" />
<path fill="#FFFFFF" opacity="1.00" d=" M 132.54 66.67 C 138.82 69.17 145.27 71.42 150.98 75.13 C 149.01 77.59 147.40 80.33 146.64 83.42 C 142.83 82.48 138.90 82.53 135.03 82.98 C 135.45 81.37 135.87 79.76 136.19 78.12 C 130.90 81.88 134.35 89.50 129.86 93.82 C 128.42 92.85 127.02 91.74 126.28 90.13 C 125.43 91.13 124.59 92.15 123.79 93.19 C 121.59 93.51 119.40 93.18 117.23 92.82 C 118.67 87.84 119.23 82.07 123.33 78.41 C 127.10 75.09 129.61 70.69 132.54 66.67 M 129.40 79.34 C 129.88 80.26 130.35 81.18 130.83 82.10 C 132.84 78.83 135.43 75.57 135.19 71.49 C 133.43 74.23 131.66 76.97 129.40 79.34 M 135.69 75.55 C 135.87 78.25 138.19 79.92 140.45 80.94 C 139.14 78.92 137.50 77.13 135.69 75.55 Z" />
<path fill="#FFFFFF" opacity="1.00" d=" M 180.42 75.82 C 184.84 75.95 188.77 78.19 192.48 80.37 C 195.27 82.14 198.40 83.98 199.44 87.38 C 194.48 83.15 196.98 87.96 198.14 89.19 C 196.32 88.97 194.32 89.32 192.64 88.53 C 190.27 86.51 188.11 83.96 184.85 83.42 C 182.22 83.05 180.23 81.31 178.61 79.33 C 179.22 78.16 179.83 76.99 180.42 75.82 Z" />
<path fill="#FFFFFF" opacity="1.00" d=" M 143.68 84.04 C 145.13 83.75 145.64 84.28 145.19 85.63 C 143.77 85.91 143.27 85.38 143.68 84.04 Z" />
<path fill="#FFFFFF" opacity="1.00" d=" M 161.14 89.37 C 161.87 89.43 163.33 89.54 164.06 89.59 C 163.52 91.06 162.96 92.51 162.42 93.98 C 162.01 93.72 161.18 93.19 160.77 92.93 C 160.89 91.74 161.02 90.56 161.14 89.37 Z" />
<path fill="#FFFFFF" opacity="1.00" d=" M 171.44 91.84 C 177.26 92.50 182.39 95.76 186.95 99.23 C 188.66 100.47 189.81 102.27 190.32 104.31 C 189.69 104.00 188.42 103.37 187.79 103.05 C 188.23 104.09 188.67 105.12 189.10 106.16 C 181.47 106.00 174.87 101.04 169.64 95.88 C 170.25 94.54 170.85 93.19 171.44 91.84 Z" />
<path fill="#FFFFFF" opacity="1.00" d=" M 129.82 113.98 C 128.68 112.58 130.39 111.31 131.07 110.22 C 131.82 111.91 133.16 113.14 134.68 114.12 C 133.07 114.41 131.33 114.93 129.82 113.98 Z" />
<path fill="#FFFFFF" opacity="1.00" d=" M 52.05 122.12 C 57.75 119.84 63.32 116.41 69.71 116.91 C 74.58 122.11 79.46 129.29 77.76 136.71 C 72.46 139.74 66.05 140.38 60.09 139.43 C 57.41 138.78 54.91 140.03 52.49 140.96 C 53.62 148.41 57.45 155.38 56.96 163.06 C 56.36 172.18 57.04 181.67 60.84 190.08 C 61.91 193.58 64.43 198.19 61.37 201.31 C 55.99 203.79 49.61 203.30 44.42 206.39 C 40.58 208.69 36.21 209.77 31.89 210.75 C 28.80 210.49 25.63 209.64 23.87 206.87 C 23.05 206.85 21.41 206.81 20.59 206.79 C 22.57 202.10 28.38 201.38 32.56 199.51 C 37.07 196.76 38.96 191.42 42.97 188.12 C 44.61 186.72 46.52 185.15 46.55 182.79 C 46.29 175.02 43.39 167.64 42.85 159.91 C 42.53 157.12 42.17 154.30 40.98 151.74 C 39.48 148.72 40.69 145.25 39.72 142.12 C 39.11 139.93 38.62 137.71 38.12 135.50 C 39.55 133.13 40.22 130.00 42.93 128.72 C 46.30 126.95 48.47 123.52 52.05 122.12 M 57.59 130.14 C 62.91 129.27 66.70 124.97 71.11 122.20 C 65.89 123.36 61.30 126.36 57.59 130.14 M 47.59 129.39 C 48.50 132.01 51.14 132.67 53.33 131.06 C 51.42 130.50 49.52 129.90 47.59 129.39 M 42.53 141.51 C 44.54 139.94 45.28 137.64 45.25 135.15 C 45.84 134.10 46.43 133.05 46.97 131.98 C 42.67 133.15 43.25 138.00 42.53 141.51 M 45.23 150.24 C 45.80 150.79 45.80 150.79 45.23 150.24 M 49.69 156.40 C 50.81 161.82 51.15 167.55 53.84 172.51 C 53.43 165.00 50.46 157.87 50.26 150.30 C 49.77 152.28 49.29 154.35 49.69 156.40 M 54.56 194.25 C 53.41 195.05 52.31 195.91 51.33 196.91 C 53.83 196.47 58.15 194.99 56.40 191.67 C 55.78 192.53 55.17 193.39 54.56 194.25 M 41.53 201.34 C 43.76 199.28 45.64 196.79 46.57 193.88 C 44.32 195.90 42.21 198.30 41.53 201.34 M 26.46 204.06 C 28.93 205.51 31.58 206.79 34.50 206.93 C 32.84 204.20 29.44 203.19 26.46 204.06 Z" />
</g>
<g id="#4e504bff">
<path fill="#333333" opacity="1.00" d=" M 151.34 64.58 C 156.79 64.20 161.63 67.32 166.05 70.09 C 170.34 72.67 173.01 77.13 177.31 79.69 C 177.88 77.97 178.54 76.27 179.20 74.58 C 183.88 74.31 188.17 76.56 192.12 78.78 C 195.24 80.71 198.66 82.68 200.42 86.05 C 200.20 87.59 199.91 89.36 198.60 90.38 C 197.10 91.81 194.86 90.41 193.12 90.40 C 191.72 93.32 190.41 96.28 189.06 99.22 C 190.68 101.06 192.29 103.55 190.63 105.94 C 189.62 108.91 185.99 108.11 183.81 107.03 C 178.67 104.54 173.35 101.82 169.44 97.56 C 167.55 95.44 169.47 92.87 170.19 90.73 C 171.48 90.66 172.77 90.61 174.07 90.57 C 171.22 90.03 168.38 89.42 165.50 89.08 C 165.21 90.87 164.86 92.65 164.43 94.41 C 167.55 97.42 167.47 101.95 167.97 105.95 C 168.53 110.83 166.36 116.68 161.29 118.25 C 159.97 118.63 157.07 119.80 157.03 117.60 C 160.86 116.92 164.84 115.11 165.83 110.97 C 166.08 106.08 166.30 101.02 165.07 96.24 C 163.76 95.21 162.05 95.02 160.52 94.51 C 159.87 96.15 159.25 97.81 158.49 99.40 C 154.47 105.35 160.40 113.47 155.17 119.08 C 151.07 122.40 145.47 123.41 140.35 124.08 C 143.97 120.24 150.69 123.31 153.73 118.75 C 157.54 114.32 155.59 108.22 155.09 103.03 C 156.28 99.32 159.16 96.12 159.00 92.00 C 158.87 89.38 159.87 86.96 161.81 85.20 C 161.90 85.91 162.08 87.32 162.16 88.02 C 165.96 87.86 170.03 86.70 173.62 88.49 C 175.71 89.26 177.24 90.92 178.62 92.60 C 181.77 94.15 184.72 96.07 187.63 98.03 C 188.95 95.43 190.21 92.80 191.46 90.16 C 189.86 88.12 188.42 85.69 185.84 84.78 C 183.55 84.27 180.96 84.63 178.97 83.17 C 176.46 81.48 174.15 79.50 171.73 77.69 C 170.90 76.37 169.92 72.76 168.23 75.33 C 163.63 75.27 158.81 71.42 154.45 74.25 C 149.87 77.42 148.60 83.22 145.72 87.69 C 141.65 93.98 141.62 101.80 142.27 109.00 C 142.79 111.10 143.82 113.02 144.37 115.12 C 142.80 114.29 141.68 112.97 141.04 111.32 C 140.20 113.39 139.50 115.55 138.18 117.37 C 138.47 115.98 138.82 114.60 139.21 113.24 C 136.61 114.61 133.86 115.73 131.39 117.34 C 129.59 118.51 128.58 120.98 126.22 121.16 C 124.60 121.47 122.95 121.63 121.31 121.83 C 121.09 121.42 120.64 120.58 120.42 120.16 C 122.54 119.66 124.67 119.20 126.82 118.83 C 127.75 118.07 128.69 117.30 129.63 116.55 C 128.29 114.91 127.54 112.95 127.72 110.82 C 126.54 110.54 125.36 110.24 124.18 109.94 C 123.95 109.51 123.48 108.65 123.25 108.22 C 125.25 108.85 127.57 108.95 129.08 110.63 C 131.28 109.38 133.11 107.52 135.53 106.65 C 134.71 107.61 133.85 108.53 132.97 109.43 C 133.31 110.18 133.66 110.93 134.01 111.69 C 134.83 111.88 136.47 112.27 137.28 112.46 C 137.98 112.17 139.38 111.61 140.07 111.32 C 139.73 110.73 139.04 109.55 138.70 108.95 C 139.27 109.02 140.41 109.14 140.97 109.21 C 140.55 105.40 140.49 101.56 140.93 97.75 C 138.70 97.47 136.46 97.18 134.21 96.98 C 134.87 96.49 135.52 96.01 136.19 95.54 C 137.66 95.85 139.13 96.15 140.60 96.44 C 141.37 93.29 142.30 90.15 143.85 87.29 C 142.99 86.17 142.12 85.06 141.26 83.95 C 138.92 84.08 136.58 84.12 134.24 84.04 C 134.22 87.19 134.55 91.51 131.17 93.11 C 132.39 93.70 134.28 94.02 133.63 95.80 C 128.84 93.86 123.87 94.23 118.94 95.27 C 120.60 97.58 124.41 99.78 123.09 103.09 C 122.13 104.93 121.64 107.92 119.07 107.99 C 119.25 105.06 122.12 102.25 120.81 99.40 C 120.12 99.04 118.75 98.32 118.06 97.96 C 118.13 96.75 118.22 95.54 118.32 94.33 C 114.62 93.63 110.69 94.46 107.79 96.93 C 105.13 99.27 101.61 100.92 100.08 104.29 C 98.46 104.78 96.95 105.87 95.23 105.87 C 95.25 105.39 95.28 104.45 95.30 103.98 C 94.08 104.65 92.84 105.30 91.61 105.96 C 96.20 108.42 101.95 109.84 104.65 114.70 C 104.66 114.17 104.68 113.09 104.69 112.56 C 107.49 113.11 110.30 113.67 113.03 114.54 C 110.37 115.49 107.60 114.75 104.94 114.27 C 107.00 117.95 109.24 122.33 107.49 126.59 C 112.99 123.60 119.53 123.34 125.56 124.63 C 130.53 125.66 135.55 124.54 140.49 123.94 C 134.94 128.19 127.20 127.66 120.85 125.75 C 117.09 124.62 113.21 125.89 109.68 127.22 C 108.58 128.50 107.09 129.20 105.47 129.52 C 103.11 135.04 96.69 137.33 91.05 137.08 C 86.19 136.69 81.55 138.47 77.29 140.63 C 77.16 140.23 76.91 139.43 76.78 139.03 C 72.36 140.72 67.61 141.35 62.90 140.96 C 60.58 140.57 58.54 142.47 56.26 141.84 L 55.75 141.38 L 55.22 140.92 C 54.16 148.52 59.00 155.38 58.46 163.01 C 57.69 169.65 58.27 176.38 59.64 182.91 C 61.43 188.62 65.99 194.40 63.62 200.63 C 62.15 204.85 57.01 204.37 53.46 205.23 C 48.41 205.70 44.41 209.13 39.64 210.50 C 37.40 211.15 35.19 211.95 32.95 212.61 C 29.16 212.70 25.41 211.22 22.53 208.77 C 21.40 208.19 20.29 207.55 19.22 206.87 C 19.97 202.65 24.62 200.88 28.10 199.30 C 32.71 198.48 35.41 194.39 38.17 191.03 C 33.12 191.40 29.09 194.28 25.24 197.26 C 21.61 198.43 17.63 198.28 13.91 199.27 C 11.77 199.88 10.39 197.84 8.84 196.79 C 9.27 195.23 9.59 193.64 10.15 192.13 C 12.54 189.03 16.97 188.41 19.10 185.02 C 22.07 180.69 27.54 178.27 28.95 172.91 C 30.33 167.57 28.39 162.12 27.27 156.91 C 25.54 150.76 26.31 144.32 25.28 138.07 C 25.50 132.07 22.83 125.29 27.10 120.10 C 30.40 118.16 33.47 115.87 36.72 113.85 C 42.38 110.94 48.56 108.79 54.94 108.31 C 56.53 108.21 57.96 107.47 59.40 106.88 C 60.65 107.69 61.96 108.41 63.26 109.13 C 63.16 111.49 63.11 113.85 62.82 116.19 C 61.37 114.41 60.98 112.09 59.71 110.22 C 49.47 109.05 39.68 113.77 31.45 119.40 C 28.24 120.58 26.20 123.63 26.17 127.03 C 28.46 135.00 25.76 143.43 27.45 151.50 C 29.13 157.18 30.71 162.99 30.89 168.95 C 30.93 173.11 29.95 177.90 26.16 180.28 C 22.80 182.51 20.71 186.01 17.93 188.82 C 15.14 190.23 12.16 191.36 10.21 193.97 C 11.36 193.82 13.67 193.52 14.82 193.37 C 13.34 194.48 11.73 195.39 10.23 196.49 C 11.43 197.73 13.24 198.08 14.83 197.46 C 17.70 196.47 20.74 196.35 23.67 195.65 C 25.92 194.30 27.84 192.45 30.16 191.21 C 33.14 189.51 36.68 189.58 39.99 189.16 C 41.52 187.23 43.44 185.43 44.07 182.96 C 45.66 178.68 43.85 174.25 42.96 170.04 C 41.41 164.85 41.54 159.32 39.72 154.20 C 38.10 149.91 38.83 145.19 37.35 140.86 C 35.57 135.96 37.43 129.65 42.27 127.28 C 45.44 125.52 47.66 122.42 51.01 120.95 C 56.21 118.61 61.49 116.28 67.09 115.09 C 69.29 114.34 70.99 116.35 72.36 117.75 C 77.37 123.15 81.06 130.76 79.32 138.25 C 83.73 136.54 88.25 134.62 93.09 134.75 C 96.46 134.96 99.94 133.77 102.06 131.06 C 103.82 128.66 106.26 126.20 106.12 123.02 C 105.21 118.91 103.45 114.62 100.03 111.98 C 92.24 107.76 82.76 105.21 74.10 108.08 C 75.37 108.74 76.71 109.27 78.05 109.79 C 76.49 110.86 74.90 111.87 73.35 112.95 C 75.81 113.05 78.32 112.73 80.74 113.29 L 81.29 113.67 C 84.87 114.26 89.34 115.07 90.14 119.34 C 89.61 120.55 89.10 121.77 88.62 123.00 C 89.09 118.17 84.36 115.94 80.27 115.55 L 79.73 115.21 C 76.93 114.58 74.04 114.64 71.19 114.46 C 72.00 112.61 72.94 110.79 74.59 109.53 C 70.90 108.13 66.87 108.30 62.99 108.32 C 62.85 107.82 62.58 106.81 62.45 106.30 C 66.86 107.02 71.54 107.50 75.79 105.76 C 79.97 104.06 84.47 105.37 88.76 105.83 C 91.37 103.70 94.64 103.00 97.85 102.34 C 100.20 101.05 102.32 99.39 104.62 98.01 C 107.16 94.44 111.50 93.02 115.64 92.32 C 116.68 87.17 117.61 81.47 121.76 77.79 C 124.96 74.90 127.04 71.08 129.84 67.84 C 131.14 66.40 133.12 64.69 135.17 65.75 C 137.92 67.06 140.64 68.46 143.62 69.17 C 146.29 70.60 149.02 71.92 151.56 73.60 C 150.89 72.36 150.05 71.20 149.63 69.86 C 149.74 67.99 150.78 66.33 151.34 64.58 M 152.31 65.92 C 151.90 67.27 151.41 68.61 151.11 69.99 C 151.68 71.01 152.42 71.92 153.10 72.87 C 155.71 71.90 158.50 71.76 161.25 72.17 C 160.70 71.63 159.59 70.57 159.04 70.04 C 159.73 70.38 160.43 70.72 161.13 71.08 C 162.12 73.72 165.78 72.96 167.77 74.35 C 167.81 72.40 165.86 71.44 164.44 70.54 C 160.72 68.33 156.79 65.92 152.31 65.92 M 132.54 66.67 C 129.61 70.69 127.10 75.09 123.33 78.41 C 119.23 82.07 118.67 87.84 117.23 92.82 C 119.40 93.18 121.59 93.51 123.79 93.19 C 124.59 92.15 125.43 91.13 126.28 90.13 C 127.02 91.74 128.42 92.85 129.86 93.82 C 134.35 89.50 130.90 81.88 136.19 78.12 C 135.87 79.76 135.45 81.37 135.03 82.98 C 138.90 82.53 142.83 82.48 146.64 83.42 C 147.40 80.33 149.01 77.59 150.98 75.13 C 145.27 71.42 138.82 69.17 132.54 66.67 M 180.42 75.82 C 179.83 76.99 179.22 78.16 178.61 79.33 C 180.23 81.31 182.22 83.05 184.85 83.42 C 188.11 83.96 190.27 86.51 192.64 88.53 C 194.32 89.32 196.32 88.97 198.14 89.19 C 196.98 87.96 194.48 83.15 199.44 87.38 C 198.40 83.98 195.27 82.14 192.48 80.37 C 188.77 78.19 184.84 75.95 180.42 75.82 M 143.68 84.04 C 143.27 85.38 143.77 85.91 145.19 85.63 C 145.64 84.28 145.13 83.75 143.68 84.04 M 161.14 89.37 C 161.02 90.56 160.89 91.74 160.77 92.93 C 161.18 93.19 162.01 93.72 162.42 93.98 C 162.96 92.51 163.52 91.06 164.06 89.59 C 163.33 89.54 161.87 89.43 161.14 89.37 M 171.44 91.84 C 170.85 93.19 170.25 94.54 169.64 95.88 C 174.87 101.04 181.47 106.00 189.10 106.16 C 188.67 105.12 188.23 104.09 187.79 103.05 C 188.42 103.37 189.69 104.00 190.32 104.31 C 189.81 102.27 188.66 100.47 186.95 99.23 C 182.39 95.76 177.26 92.50 171.44 91.84 M 129.82 113.98 C 131.33 114.93 133.07 114.41 134.68 114.12 C 133.16 113.14 131.82 111.91 131.07 110.22 C 130.39 111.31 128.68 112.58 129.82 113.98 M 52.05 122.12 C 48.47 123.52 46.30 126.95 42.93 128.72 C 40.22 130.00 39.55 133.13 38.12 135.50 C 38.62 137.71 39.11 139.93 39.72 142.12 C 40.69 145.25 39.48 148.72 40.98 151.74 C 42.17 154.30 42.53 157.12 42.85 159.91 C 43.39 167.64 46.29 175.02 46.55 182.79 C 46.52 185.15 44.61 186.72 42.97 188.12 C 38.96 191.42 37.07 196.76 32.56 199.51 C 28.38 201.38 22.57 202.10 20.59 206.79 C 21.41 206.81 23.05 206.85 23.87 206.87 C 25.63 209.64 28.80 210.49 31.89 210.75 C 36.21 209.77 40.58 208.69 44.42 206.39 C 49.61 203.30 55.99 203.79 61.37 201.31 C 64.43 198.19 61.91 193.58 60.84 190.08 C 57.04 181.67 56.36 172.18 56.96 163.06 C 57.45 155.38 53.62 148.41 52.49 140.96 C 54.91 140.03 57.41 138.78 60.09 139.43 C 66.05 140.38 72.46 139.74 77.76 136.71 C 79.46 129.29 74.58 122.11 69.71 116.91 C 63.32 116.41 57.75 119.84 52.05 122.12 Z" />
<path fill="#333333" opacity="1.00" d=" M 129.40 79.34 C 131.66 76.97 133.43 74.23 135.19 71.49 C 135.43 75.57 132.84 78.83 130.83 82.10 C 130.35 81.18 129.88 80.26 129.40 79.34 Z" />
<path fill="#333333" opacity="1.00" d=" M 135.69 75.55 C 137.50 77.13 139.14 78.92 140.45 80.94 C 138.19 79.92 135.87 78.25 135.69 75.55 Z" />
<path fill="#333333" opacity="1.00" d=" M 155.85 80.62 C 159.77 84.93 155.33 90.66 155.04 95.51 C 153.83 95.45 152.41 94.28 151.34 95.20 C 150.47 96.54 149.77 97.97 148.96 99.35 C 148.31 95.98 150.54 93.25 153.86 92.81 C 155.55 88.96 156.17 84.81 155.85 80.62 Z" />
<path fill="#333333" opacity="1.00" d=" M 109.75 102.04 C 110.79 100.31 111.92 98.62 113.24 97.08 C 112.86 98.72 112.45 100.36 112.02 101.99 C 109.75 102.88 107.46 103.71 105.16 104.50 C 103.90 103.90 102.67 103.26 101.45 102.58 C 103.37 102.25 105.21 102.83 106.96 103.56 C 107.89 103.06 108.82 102.55 109.75 102.04 Z" />
<path fill="#333333" opacity="1.00" d=" M 125.09 98.29 C 125.93 98.73 126.77 99.19 127.60 99.66 C 128.17 99.76 129.33 99.96 129.90 100.06 C 130.58 100.73 131.25 101.40 131.93 102.07 C 129.13 101.80 125.93 101.49 125.09 98.29 Z" />
<path fill="#333333" opacity="1.00" d=" M 132.77 99.53 C 133.90 100.48 135.03 101.45 136.14 102.43 C 136.54 101.99 136.93 101.55 137.33 101.12 C 137.77 101.36 138.64 101.83 139.08 102.07 C 137.06 102.96 136.16 104.98 135.09 106.75 C 134.94 104.17 134.27 101.67 132.77 99.53 Z" />
<path fill="#333333" opacity="1.00" d=" M 125.65 104.07 C 127.60 105.22 129.48 106.49 131.27 107.88 C 128.50 108.31 126.57 106.48 125.65 104.07 Z" />
<path fill="#333333" opacity="1.00" d=" M 146.70 112.35 C 148.47 109.24 150.56 106.26 153.29 103.92 C 152.38 107.53 150.08 110.68 146.70 112.35 Z" />
<path fill="#333333" opacity="1.00" d=" M 107.14 104.81 C 108.67 104.88 110.20 104.96 111.74 105.05 C 112.42 106.25 113.10 107.45 113.75 108.67 C 111.38 107.68 109.26 106.23 107.14 104.81 Z" />
<path fill="#333333" opacity="1.00" d=" M 79.48 110.11 C 83.84 110.97 90.00 110.88 92.12 115.56 C 87.90 113.78 83.40 112.51 79.48 110.11 Z" />
<path fill="#333333" opacity="1.00" d=" M 107.71 111.16 C 110.79 111.08 113.96 111.50 116.48 113.42 C 113.36 113.88 110.47 112.40 107.71 111.16 Z" />
<path fill="#333333" opacity="1.00" d=" M 120.63 110.46 C 122.83 111.39 124.94 112.58 126.74 114.18 C 123.90 114.57 121.69 113.00 120.63 110.46 Z" />
<path fill="#333333" opacity="1.00" d=" M 119.16 115.11 C 122.49 115.10 117.81 118.17 119.16 115.11 Z" />
<path fill="#333333" opacity="1.00" d=" M 42.15 124.22 C 38.96 127.02 33.34 124.22 34.35 119.86 C 35.98 122.85 38.80 124.18 42.15 124.22 Z" />
<path fill="#333333" opacity="1.00" d=" M 57.59 130.14 C 61.30 126.36 65.89 123.36 71.11 122.20 C 66.70 124.97 62.91 129.27 57.59 130.14 Z" />
<path fill="#333333" opacity="1.00" d=" M 155.14 126.66 C 157.82 126.19 160.06 124.63 162.34 123.25 C 161.78 124.56 161.42 126.16 159.97 126.77 C 154.93 129.72 148.93 130.06 143.45 131.79 C 143.91 137.26 144.77 142.82 143.75 148.28 C 141.34 143.29 142.07 137.52 141.66 132.16 C 139.20 132.76 136.74 133.37 134.34 134.16 C 134.77 139.63 135.23 145.10 135.07 150.59 C 134.58 150.30 133.60 149.71 133.12 149.41 C 132.68 144.47 133.00 139.49 132.71 134.54 C 122.42 137.04 112.28 140.13 101.97 142.55 C 96.71 143.72 91.75 146.31 86.28 146.35 L 87.66 146.79 C 85.21 147.54 82.74 148.25 80.29 149.04 C 81.13 158.08 81.15 167.15 81.31 176.22 L 79.75 176.34 C 78.94 167.42 78.80 158.47 78.65 149.52 C 74.07 150.55 69.80 153.22 65.01 153.10 C 61.55 151.97 57.72 150.46 55.86 147.09 C 60.04 148.24 63.75 152.71 68.37 150.49 C 90.69 142.61 113.74 137.11 136.51 130.69 C 142.66 129.09 148.92 127.97 155.14 126.66 Z" />
<path fill="#333333" opacity="1.00" d=" M 29.83 126.73 C 32.12 125.13 33.25 130.31 32.39 131.97 C 32.67 132.01 33.21 132.07 33.48 132.11 C 32.68 134.07 31.96 136.08 30.98 137.96 C 30.91 135.94 31.09 133.94 31.50 131.96 L 30.49 132.85 C 30.37 130.80 29.93 128.78 29.83 126.73 Z" />
<path fill="#333333" opacity="1.00" d=" M 47.59 129.39 C 49.52 129.90 51.42 130.50 53.33 131.06 C 51.14 132.67 48.50 132.01 47.59 129.39 Z" />
<path fill="#333333" opacity="1.00" d=" M 42.53 141.51 C 43.25 138.00 42.67 133.15 46.97 131.98 C 46.43 133.05 45.84 134.10 45.25 135.15 C 45.28 137.64 44.54 139.94 42.53 141.51 Z" />
<path fill="#333333" opacity="1.00" d=" M 87.76 149.78 C 87.02 149.15 88.26 145.86 89.12 147.84 C 90.35 153.19 90.27 158.72 89.91 164.17 C 87.28 159.90 88.15 154.56 87.76 149.78 Z" />
<path fill="#333333" opacity="1.00" d=" M 45.23 150.24 C 45.80 150.79 45.80 150.79 45.23 150.24 Z" />
<path fill="#333333" opacity="1.00" d=" M 49.69 156.40 C 49.29 154.35 49.77 152.28 50.26 150.30 C 50.46 157.87 53.43 165.00 53.84 172.51 C 51.15 167.55 50.81 161.82 49.69 156.40 Z" />
<path fill="#333333" opacity="1.00" d=" M 40.59 174.80 C 44.39 179.12 40.15 185.29 35.90 187.43 C 38.16 183.50 41.62 179.68 40.59 174.80 Z" />
<path fill="#333333" opacity="1.00" d=" M 25.98 187.93 C 27.50 185.02 29.78 182.50 32.87 181.25 C 30.93 183.80 28.59 186.05 25.98 187.93 Z" />
<path fill="#333333" opacity="1.00" d=" M 54.56 194.25 C 55.17 193.39 55.78 192.53 56.40 191.67 C 58.15 194.99 53.83 196.47 51.33 196.91 C 52.31 195.91 53.41 195.05 54.56 194.25 Z" />
<path fill="#333333" opacity="1.00" d=" M 41.53 201.34 C 42.21 198.30 44.32 195.90 46.57 193.88 C 45.64 196.79 43.76 199.28 41.53 201.34 Z" />
<path fill="#333333" opacity="1.00" d=" M 26.46 204.06 C 29.44 203.19 32.84 204.20 34.50 206.93 C 31.58 206.79 28.93 205.51 26.46 204.06 Z" />
</g>
</svg>
