<?xml version="1.0" encoding="UTF-8" ?>
<!DOCTYPE svg PUBLIC "-//W3C//DTD SVG 1.1//EN" "http://www.w3.org/Graphics/SVG/1.1/DTD/svg11.dtd">
<svg width="208pt" height="225pt" viewBox="0 0 208 225" version="1.1" xmlns="http://www.w3.org/2000/svg">
<g id="#ffffffff">
<path fill="#FFFFFF" opacity="1.00" d=" M 0.00 0.00 L 208.00 0.00 L 208.00 225.00 L 0.00 225.00 L 0.00 0.00 M 145.95 10.04 C 145.35 32.98 145.85 55.96 145.70 78.91 C 140.92 77.37 135.88 77.40 130.92 77.26 C 125.32 77.32 120.79 72.25 115.06 73.78 C 118.69 74.75 122.25 75.97 125.75 77.32 C 123.73 77.83 121.71 78.35 119.69 78.85 C 119.68 80.61 119.68 82.37 119.69 84.13 C 118.05 84.70 116.41 85.29 114.79 85.91 C 116.34 87.01 117.89 88.12 119.44 89.23 C 119.36 88.36 119.20 86.61 119.12 85.73 C 120.24 89.44 121.39 93.21 123.54 96.47 C 123.68 97.02 123.97 98.13 124.11 98.68 C 126.78 106.95 133.42 112.96 140.68 117.30 C 140.90 117.86 141.33 118.99 141.55 119.55 C 143.49 119.50 145.43 119.48 147.38 119.52 C 147.36 119.06 147.32 118.16 147.31 117.71 C 141.83 117.48 137.89 113.34 133.85 110.17 C 128.56 105.88 126.86 99.06 123.67 93.34 C 121.49 89.55 122.43 85.12 121.82 80.99 C 125.99 78.00 131.32 78.66 136.15 78.65 C 142.72 79.13 148.77 85.26 155.43 82.19 C 158.56 82.79 161.30 84.44 163.55 86.66 C 161.97 86.31 160.39 85.92 158.82 85.53 C 158.37 87.60 157.86 89.66 157.37 91.72 C 154.62 90.59 152.15 88.17 149.00 88.46 C 144.97 88.59 140.84 88.99 137.15 90.74 C 138.59 92.75 141.01 93.71 143.10 94.90 C 144.89 97.32 144.71 100.31 144.75 103.15 C 149.09 104.90 153.08 107.36 156.17 110.92 C 155.59 109.44 155.12 107.89 154.28 106.53 C 152.23 104.76 149.72 103.61 147.69 101.81 C 146.66 99.28 146.40 96.45 144.99 94.07 C 143.86 92.99 142.47 92.26 141.16 91.44 C 145.98 92.63 151.20 90.38 155.67 93.05 C 155.63 93.59 155.35 93.92 154.83 94.04 C 152.26 93.99 149.69 93.82 147.12 94.01 C 149.08 95.56 151.64 95.44 153.97 95.82 C 157.58 96.29 161.32 97.45 163.96 100.05 C 166.81 103.79 165.88 108.74 165.93 113.11 C 165.44 117.60 161.09 120.38 156.78 120.26 C 157.09 119.08 157.42 117.90 157.75 116.72 C 157.43 115.05 157.12 113.38 156.77 111.71 C 156.26 114.65 155.85 117.68 154.45 120.35 C 150.92 124.24 145.32 123.74 140.89 125.90 C 133.97 128.80 125.72 128.94 119.11 125.15 C 122.00 124.73 125.04 124.71 127.81 123.67 C 129.77 121.90 131.58 119.91 133.99 118.71 C 134.63 117.86 135.27 117.00 135.92 116.16 C 134.29 114.51 132.76 112.75 131.14 111.10 C 131.06 113.94 132.68 116.00 134.73 117.68 C 132.76 117.68 130.82 117.30 129.03 116.46 C 129.71 115.28 130.39 114.10 131.07 112.93 C 130.32 113.07 128.80 113.34 128.04 113.48 L 128.01 112.08 C 126.22 111.90 124.43 111.71 122.63 111.61 C 124.23 112.55 125.90 113.38 127.62 114.08 C 127.63 116.11 128.42 117.96 129.56 119.62 C 128.64 120.34 127.73 121.07 126.82 121.80 C 123.80 122.24 120.87 123.12 118.02 124.19 C 118.11 124.82 118.28 126.09 118.37 126.72 C 114.68 126.88 111.08 127.86 107.74 129.42 C 108.99 125.13 107.11 120.87 104.90 117.28 C 107.60 117.77 110.40 118.44 113.12 117.61 C 110.20 116.58 107.16 116.02 104.11 115.60 C 104.34 116.17 104.79 117.31 105.02 117.88 C 102.10 112.94 96.23 111.43 91.47 108.87 C 93.10 108.13 94.73 107.41 96.39 106.75 L 94.55 108.01 C 95.01 108.45 95.47 108.88 95.94 109.31 C 97.42 108.45 98.97 107.73 100.54 107.04 C 100.56 106.64 100.61 105.85 100.63 105.45 C 106.00 101.75 111.08 95.47 118.40 97.33 C 118.27 98.18 118.01 99.90 117.89 100.76 C 119.12 101.68 121.38 102.00 121.31 103.96 C 120.90 105.54 120.27 107.06 119.74 108.61 C 118.04 109.95 116.58 111.57 115.85 113.64 C 118.79 112.06 121.87 110.16 122.85 106.73 C 124.80 103.28 120.95 100.69 118.97 98.41 C 119.92 98.25 121.83 97.95 122.78 97.79 C 122.83 97.56 122.93 97.10 122.98 96.86 C 120.06 96.19 117.12 95.31 114.10 95.35 C 110.52 96.33 106.94 98.02 104.60 101.00 C 102.32 102.39 100.21 104.03 97.86 105.31 C 94.65 106.02 91.37 106.72 88.72 108.81 C 85.46 108.44 82.21 107.69 78.91 107.96 C 75.92 108.41 73.16 110.02 70.07 109.94 C 67.04 110.10 64.08 109.32 61.07 109.25 C 58.98 109.80 57.10 111.06 54.92 111.28 C 45.95 112.09 37.37 115.70 30.23 121.14 C 25.16 123.00 23.89 129.18 24.86 133.95 C 25.27 140.31 25.91 146.65 26.14 153.03 C 26.56 160.42 30.28 167.46 29.21 174.95 C 28.17 180.82 22.33 183.47 19.13 187.97 C 16.95 191.35 12.59 192.07 10.09 195.11 C 9.52 196.56 9.26 198.11 9.04 199.65 C 10.26 201.36 12.16 202.94 14.39 202.23 C 17.94 201.21 21.76 201.43 25.22 200.28 C 29.08 197.30 33.13 194.44 38.17 194.02 C 35.71 196.78 33.68 200.38 30.00 201.66 C 25.64 203.02 20.91 205.21 18.90 209.59 C 23.23 212.27 27.50 215.93 32.92 215.62 C 35.38 214.87 37.82 214.06 40.28 213.31 C 44.35 212.04 47.81 209.23 52.06 208.49 C 55.13 207.92 58.20 207.38 61.27 206.84 C 62.62 205.16 64.28 203.39 64.24 201.08 C 64.80 195.27 60.80 190.52 59.44 185.14 C 58.30 178.85 57.69 172.44 58.46 166.06 C 59.10 158.53 54.18 151.75 55.29 144.28 C 55.61 144.52 56.24 145.00 56.55 145.24 C 62.95 142.94 70.02 145.10 76.32 142.20 C 76.81 142.60 77.20 144.06 78.08 143.33 C 81.77 141.49 85.75 139.84 89.97 140.09 C 95.01 140.32 100.62 139.22 103.89 135.02 C 105.29 132.81 107.69 131.74 109.71 130.23 C 112.07 129.35 114.49 128.51 117.02 128.32 C 120.78 128.12 124.20 130.27 127.96 130.09 C 136.08 130.64 143.44 126.65 151.19 125.04 C 153.38 124.57 154.67 122.54 156.26 121.15 C 156.97 121.39 158.39 121.88 159.10 122.12 C 161.98 120.95 165.38 119.77 166.60 116.60 C 169.14 111.76 167.72 106.17 166.82 101.08 C 165.53 96.64 160.31 95.13 156.21 94.80 C 156.66 94.58 157.56 94.15 158.01 93.93 C 160.36 93.50 162.74 93.24 165.08 92.72 C 168.87 93.33 172.38 96.00 176.25 95.39 C 176.40 93.90 176.50 92.42 176.54 90.93 C 172.71 89.59 168.82 88.48 164.91 87.41 C 164.87 84.53 163.03 81.96 160.09 81.57 C 155.91 81.43 151.38 82.33 147.65 79.88 C 147.81 58.57 147.64 37.27 147.74 15.96 C 147.66 13.87 148.16 11.31 145.95 10.04 M 98.77 73.61 C 97.76 75.25 96.82 77.10 97.48 79.08 C 98.67 84.70 100.56 90.28 103.64 95.16 C 104.50 96.57 106.10 98.15 107.79 96.91 C 107.75 95.46 105.90 95.00 105.17 93.91 C 103.01 90.90 102.87 86.98 101.23 83.72 C 100.23 81.34 98.30 78.94 99.31 76.22 C 101.24 74.63 103.81 74.25 106.11 73.45 C 107.99 73.83 109.86 74.31 111.76 74.60 C 111.78 74.37 111.82 73.91 111.84 73.68 C 107.50 72.66 103.12 72.72 98.77 73.61 M 109.15 85.71 C 110.91 88.36 113.02 90.78 114.48 93.63 C 115.74 93.93 116.39 93.49 116.43 92.29 C 113.79 90.32 111.92 87.51 109.15 85.71 M 131.13 90.71 C 132.60 92.97 134.49 94.94 135.75 97.33 C 135.77 99.08 135.12 100.84 135.48 102.57 C 136.17 103.88 137.56 104.63 138.60 105.62 C 137.99 103.93 137.25 102.31 136.45 100.71 C 137.33 99.90 138.21 99.08 139.10 98.28 C 136.41 95.79 134.21 92.76 131.13 90.71 M 148.58 96.97 C 148.93 98.92 148.90 101.36 151.43 101.74 C 150.58 100.09 149.63 98.50 148.58 96.97 M 109.71 105.05 C 108.80 105.55 107.89 106.04 106.99 106.53 C 105.19 105.93 103.36 105.42 101.49 105.08 C 102.60 105.98 103.78 106.79 104.97 107.57 C 107.34 106.76 109.71 105.91 112.04 104.98 C 112.46 103.32 112.88 101.65 113.26 99.99 C 111.95 101.59 110.80 103.30 109.71 105.05 M 144.69 104.44 C 144.84 108.15 146.09 111.67 147.09 115.20 C 149.01 111.52 147.15 107.38 144.69 104.44 M 126.15 107.64 C 125.98 109.47 128.35 111.47 130.15 110.90 C 130.18 109.24 127.59 107.95 126.15 107.64 M 106.97 107.79 C 109.18 109.19 111.37 110.64 113.77 111.68 C 113.11 110.45 112.41 109.24 111.72 108.03 C 110.13 107.95 108.55 107.87 106.97 107.79 M 107.64 114.12 C 110.22 115.34 112.94 116.24 115.67 117.06 C 115.51 116.54 115.19 115.52 115.03 115.00 C 112.59 114.54 110.13 114.22 107.64 114.12 M 119.68 114.31 C 121.85 115.65 124.05 117.07 126.66 117.31 C 125.38 116.18 124.01 115.16 122.62 114.16 C 121.64 114.21 120.66 114.26 119.68 114.31 M 117.36 116.35 C 116.67 117.84 118.55 120.19 120.18 119.61 C 120.87 118.19 118.83 115.94 117.36 116.35 M 162.20 126.32 C 157.57 129.93 151.59 130.30 146.06 131.47 C 140.97 132.61 135.87 133.72 130.89 135.24 C 116.32 139.37 101.59 142.89 87.14 147.45 C 80.29 149.09 73.82 151.92 67.05 153.82 C 62.76 155.16 59.68 150.65 55.60 150.23 C 57.88 153.24 61.38 155.01 64.92 156.08 C 69.73 156.25 74.04 153.58 78.64 152.54 C 78.80 161.28 78.93 170.01 79.66 178.73 C 80.04 178.99 80.80 179.50 81.18 179.76 C 81.30 170.53 81.09 161.30 80.30 152.09 C 82.24 151.43 84.20 150.80 86.12 150.06 L 86.74 149.80 C 87.31 149.63 88.44 149.30 89.01 149.14 C 103.56 145.26 118.11 141.31 132.71 137.55 C 133.00 142.48 132.69 147.43 133.11 152.35 C 133.60 152.68 134.57 153.34 135.06 153.67 C 135.23 148.14 134.77 142.63 134.38 137.13 C 136.77 136.38 139.21 135.77 141.65 135.18 C 141.85 140.57 141.81 146.05 143.32 151.27 C 145.31 146.03 143.69 140.24 143.45 134.81 C 149.11 132.97 155.41 132.74 160.50 129.42 C 161.65 128.80 161.75 127.41 162.20 126.32 M 87.75 152.70 C 88.08 157.56 87.40 162.86 89.87 167.28 C 90.29 161.80 90.38 156.22 89.12 150.84 C 88.34 148.90 86.87 152.02 87.75 152.70 Z" />
<path fill="#FFFFFF" opacity="1.00" d=" M 159.24 89.24 C 160.77 87.97 162.63 87.37 164.46 88.35 C 167.80 89.65 171.29 90.54 174.54 92.08 C 173.94 92.30 172.73 92.75 172.12 92.97 C 167.72 92.17 163.36 91.00 159.24 89.24 Z" />
<path fill="#FFFFFF" opacity="1.00" d=" M 74.16 111.07 C 82.99 108.21 92.70 110.81 100.52 115.32 C 103.70 118.34 105.77 122.67 106.13 127.03 C 104.47 132.23 100.15 137.95 94.10 137.71 C 88.92 137.47 84.03 139.33 79.32 141.24 C 81.21 132.78 76.50 124.14 70.20 118.75 C 68.22 116.90 65.57 118.70 63.46 119.24 C 63.00 117.26 62.98 115.22 62.70 113.22 L 63.76 112.65 C 63.21 112.23 62.10 111.38 61.55 110.95 C 65.88 111.30 70.21 111.63 74.56 111.67 C 73.35 113.57 72.13 115.48 71.11 117.50 C 74.18 117.69 77.26 117.79 80.33 117.55 C 80.23 117.94 80.03 118.72 79.93 119.11 C 84.19 118.22 89.15 121.29 88.54 126.01 C 89.06 124.76 89.61 123.52 90.18 122.30 C 89.46 120.90 88.97 119.19 87.49 118.40 C 85.21 117.10 82.33 117.52 80.17 116.00 C 77.89 115.99 75.62 116.01 73.34 115.99 C 74.89 114.91 76.47 113.89 78.03 112.82 C 76.71 112.28 75.40 111.75 74.16 111.07 M 79.43 113.15 C 83.55 115.45 88.04 117.06 92.52 118.52 C 89.71 114.18 84.07 113.77 79.43 113.15 Z" />
<path fill="#FFFFFF" opacity="1.00" d=" M 43.13 115.96 C 48.31 113.58 54.06 112.91 59.70 112.97 C 61.18 115.08 61.25 117.65 61.22 120.13 C 55.41 121.63 49.53 123.92 45.17 128.20 C 43.27 129.97 40.63 130.82 38.99 132.87 C 37.32 135.57 36.02 138.83 36.94 142.02 C 38.71 147.80 38.18 153.99 40.43 159.65 C 41.56 166.19 42.73 172.71 44.35 179.15 C 45.72 183.97 43.38 188.82 39.97 192.16 C 36.43 192.58 32.61 192.54 29.52 194.57 C 26.66 196.11 24.47 199.19 20.95 199.17 C 17.25 199.28 13.63 201.82 9.99 199.96 C 11.58 198.62 13.35 197.53 14.97 196.24 C 13.74 196.45 11.29 196.89 10.07 197.11 C 11.76 195.35 13.61 193.69 15.93 192.85 C 19.24 191.72 20.60 188.24 23.00 186.00 C 25.25 183.61 28.71 182.15 29.77 178.81 C 32.27 171.84 30.07 164.34 28.30 157.47 C 25.48 149.66 27.89 141.24 26.88 133.23 C 25.74 130.27 26.19 126.75 28.33 124.35 C 33.21 121.47 37.75 117.91 43.13 115.96 M 42.22 127.31 C 38.87 127.13 35.98 125.83 34.24 122.87 C 33.49 127.31 38.87 129.88 42.22 127.31 M 30.51 135.94 L 31.43 134.86 C 31.09 136.90 30.93 138.96 30.94 141.04 C 31.92 139.15 32.67 137.15 33.49 135.19 C 33.23 135.13 32.70 135.01 32.44 134.95 C 33.21 132.63 32.20 130.35 30.50 128.78 C 29.22 131.00 30.58 133.57 30.51 135.94 M 40.48 178.14 C 41.65 182.92 37.96 186.61 35.88 190.49 C 39.14 189.10 40.56 185.79 42.30 182.97 C 42.16 181.74 42.02 180.51 41.88 179.29 C 41.53 179.01 40.83 178.43 40.48 178.14 M 25.96 190.96 C 28.59 189.07 30.94 186.79 32.87 184.19 C 29.79 185.51 27.47 188.02 25.96 190.96 Z" />
<path fill="#FFFFFF" opacity="1.00" d=" M 52.88 124.76 C 58.29 122.56 63.63 119.44 69.69 119.91 C 74.60 125.10 79.35 132.22 77.82 139.67 C 72.51 142.71 66.08 143.38 60.10 142.42 C 57.42 141.79 54.91 143.03 52.47 143.93 C 53.70 151.70 57.70 159.03 56.93 167.07 C 56.22 173.44 57.30 179.79 58.23 186.08 C 59.64 190.44 61.73 194.58 62.67 199.09 C 63.01 201.08 62.87 203.81 60.70 204.70 C 55.36 206.62 49.39 206.50 44.39 209.40 C 40.56 211.67 36.22 212.76 31.91 213.74 C 28.82 213.49 25.65 212.63 23.86 209.88 C 23.02 209.85 21.35 209.77 20.51 209.73 C 22.75 205.18 28.32 204.34 32.55 202.52 C 37.09 199.76 38.99 194.39 43.02 191.08 C 44.87 189.58 46.88 187.65 46.56 185.02 C 45.90 176.85 43.10 169.03 42.59 160.83 C 42.46 157.03 39.85 153.80 40.16 149.95 C 40.40 146.02 38.84 142.34 38.12 138.55 C 39.54 136.15 40.23 133.02 42.96 131.72 C 46.53 129.75 48.90 126.06 52.88 124.76 M 57.56 133.22 C 62.88 132.22 66.72 128.00 71.14 125.20 C 65.89 126.35 61.24 129.36 57.56 133.22 M 47.52 132.44 C 48.41 134.05 49.86 135.05 51.66 135.39 C 51.99 135.01 52.66 134.25 52.99 133.86 C 51.16 133.40 49.36 132.87 47.52 132.44 M 42.53 144.61 C 44.51 142.96 45.29 140.63 45.25 138.10 C 45.87 137.08 46.49 136.05 47.08 135.01 C 42.60 136.04 43.24 141.08 42.53 144.61 M 45.28 153.22 C 45.78 153.83 45.78 153.83 45.28 153.22 M 49.70 159.45 C 50.78 164.90 51.19 170.64 53.87 175.62 C 53.41 168.06 50.53 160.86 50.23 153.26 C 49.76 155.27 49.29 157.37 49.70 159.45 M 46.61 155.22 C 46.16 161.62 47.23 168.06 49.21 174.14 C 48.81 169.40 47.94 164.71 47.81 159.95 C 47.85 158.28 47.33 156.70 46.61 155.22 M 56.17 194.76 C 55.79 195.37 55.02 196.60 54.63 197.21 C 53.45 198.06 52.31 198.95 51.24 199.93 C 53.61 199.56 58.44 197.92 56.17 194.76 M 41.49 204.40 C 43.74 202.31 45.55 199.78 46.73 196.95 C 44.26 198.82 42.21 201.32 41.49 204.40 M 26.39 207.00 C 28.91 208.51 31.62 209.84 34.62 209.91 C 32.78 207.25 29.46 206.21 26.39 207.00 Z" />
</g>
<g id="#50534eff">
<path fill="#333333" opacity="1.00" d=" M 145.95 10.04 C 148.16 11.31 147.66 13.87 147.74 15.96 C 147.64 37.27 147.81 58.57 147.65 79.88 C 151.38 82.33 155.91 81.43 160.09 81.57 C 163.03 81.96 164.87 84.53 164.91 87.41 C 168.82 88.48 172.71 89.59 176.54 90.93 C 176.50 92.42 176.40 93.90 176.25 95.39 C 172.38 96.00 168.87 93.33 165.08 92.72 C 162.74 93.24 160.36 93.50 158.01 93.93 C 157.56 94.15 156.66 94.58 156.21 94.80 C 160.31 95.13 165.53 96.64 166.82 101.08 C 167.72 106.17 169.14 111.76 166.60 116.60 C 165.38 119.77 161.98 120.95 159.10 122.12 C 158.39 121.88 156.97 121.39 156.26 121.15 C 154.67 122.54 153.38 124.57 151.19 125.04 C 143.44 126.65 136.08 130.64 127.96 130.09 C 124.20 130.27 120.78 128.12 117.02 128.32 C 114.49 128.51 112.07 129.35 109.71 130.23 C 107.69 131.74 105.29 132.81 103.89 135.02 C 100.62 139.22 95.01 140.32 89.97 140.09 C 85.75 139.84 81.77 141.49 78.08 143.33 C 77.20 144.06 76.81 142.60 76.32 142.20 C 70.02 145.10 62.95 142.94 56.55 145.24 C 56.24 145.00 55.61 144.52 55.29 144.28 C 54.18 151.75 59.10 158.53 58.46 166.06 C 57.69 172.44 58.30 178.85 59.44 185.14 C 60.80 190.52 64.80 195.27 64.24 201.08 C 64.28 203.39 62.62 205.16 61.27 206.84 C 58.20 207.38 55.13 207.92 52.06 208.49 C 47.81 209.23 44.35 212.04 40.28 213.31 C 37.82 214.06 35.38 214.87 32.92 215.62 C 27.50 215.93 23.23 212.27 18.90 209.59 C 20.91 205.21 25.64 203.02 30.00 201.66 C 33.68 200.38 35.71 196.78 38.17 194.02 C 33.13 194.44 29.08 197.30 25.22 200.28 C 21.76 201.43 17.94 201.21 14.39 202.23 C 12.16 202.94 10.26 201.36 9.04 199.65 C 9.26 198.11 9.52 196.56 10.09 195.11 C 12.59 192.07 16.95 191.35 19.13 187.97 C 22.33 183.47 28.17 180.82 29.21 174.95 C 30.28 167.46 26.56 160.42 26.14 153.03 C 25.91 146.65 25.27 140.31 24.86 133.95 C 23.89 129.18 25.16 123.00 30.23 121.14 C 37.37 115.70 45.95 112.09 54.92 111.28 C 57.10 111.06 58.98 109.80 61.07 109.25 C 64.08 109.32 67.04 110.10 70.07 109.94 C 73.16 110.02 75.92 108.41 78.91 107.96 C 82.21 107.69 85.46 108.44 88.72 108.81 C 91.37 106.72 94.65 106.02 97.86 105.31 C 100.21 104.03 102.32 102.39 104.60 101.00 C 106.94 98.02 110.52 96.33 114.10 95.35 C 117.12 95.31 120.06 96.19 122.98 96.86 C 122.93 97.10 122.83 97.56 122.78 97.79 C 121.83 97.95 119.92 98.25 118.97 98.41 C 120.95 100.69 124.80 103.28 122.85 106.73 C 121.87 110.16 118.79 112.06 115.85 113.64 C 116.58 111.57 118.04 109.95 119.74 108.61 C 120.27 107.06 120.90 105.54 121.31 103.96 C 121.38 102.00 119.12 101.68 117.89 100.76 C 118.01 99.90 118.27 98.18 118.40 97.33 C 111.08 95.47 106.00 101.75 100.63 105.45 C 100.61 105.85 100.56 106.64 100.54 107.04 C 98.97 107.73 97.42 108.45 95.94 109.31 C 95.47 108.88 95.01 108.45 94.55 108.01 L 96.39 106.75 C 94.73 107.41 93.10 108.13 91.47 108.87 C 96.23 111.43 102.10 112.94 105.02 117.88 C 104.79 117.31 104.34 116.17 104.11 115.60 C 107.16 116.02 110.20 116.58 113.12 117.61 C 110.40 118.44 107.60 117.77 104.90 117.28 C 107.11 120.87 108.99 125.13 107.74 129.42 C 111.08 127.86 114.68 126.88 118.37 126.72 C 118.28 126.09 118.11 124.82 118.02 124.19 C 120.87 123.12 123.80 122.24 126.82 121.80 C 127.73 121.07 128.64 120.34 129.56 119.62 C 128.42 117.96 127.63 116.11 127.62 114.08 C 125.90 113.38 124.23 112.55 122.63 111.61 C 124.43 111.71 126.22 111.90 128.01 112.08 L 128.04 113.48 C 128.80 113.34 130.32 113.07 131.07 112.93 C 130.39 114.10 129.71 115.28 129.03 116.46 C 130.82 117.30 132.76 117.68 134.73 117.68 C 132.68 116.00 131.06 113.94 131.14 111.10 C 132.76 112.75 134.29 114.51 135.92 116.16 C 135.27 117.00 134.63 117.86 133.99 118.71 C 131.58 119.91 129.77 121.90 127.81 123.67 C 125.04 124.71 122.00 124.73 119.11 125.15 C 125.72 128.94 133.97 128.80 140.89 125.90 C 145.32 123.74 150.92 124.24 154.45 120.35 C 155.85 117.68 156.26 114.65 156.77 111.71 C 157.12 113.38 157.43 115.05 157.75 116.72 C 157.42 117.90 157.09 119.08 156.78 120.26 C 161.09 120.38 165.44 117.60 165.93 113.11 C 165.88 108.74 166.81 103.79 163.96 100.05 C 161.32 97.45 157.58 96.29 153.97 95.82 C 151.64 95.44 149.08 95.56 147.12 94.01 C 149.69 93.82 152.26 93.99 154.83 94.04 C 155.35 93.92 155.63 93.59 155.67 93.05 C 151.20 90.38 145.98 92.63 141.16 91.44 C 142.47 92.26 143.86 92.99 144.99 94.07 C 146.40 96.45 146.66 99.28 147.69 101.81 C 149.72 103.61 152.23 104.76 154.28 106.53 C 155.12 107.89 155.59 109.44 156.17 110.92 C 153.08 107.36 149.09 104.90 144.75 103.15 C 144.71 100.31 144.89 97.32 143.10 94.90 C 141.01 93.71 138.59 92.75 137.15 90.74 C 140.84 88.99 144.97 88.59 149.00 88.46 C 152.15 88.17 154.62 90.59 157.37 91.72 C 157.86 89.66 158.37 87.60 158.82 85.53 C 160.39 85.92 161.97 86.31 163.55 86.66 C 161.30 84.44 158.56 82.79 155.43 82.19 C 148.77 85.26 142.72 79.13 136.15 78.65 C 131.32 78.66 125.99 78.00 121.82 80.99 C 122.43 85.12 121.49 89.55 123.67 93.34 C 126.86 99.06 128.56 105.88 133.85 110.17 C 137.89 113.34 141.83 117.48 147.31 117.71 C 147.32 118.16 147.36 119.06 147.38 119.52 C 145.43 119.48 143.49 119.50 141.55 119.55 C 141.33 118.99 140.90 117.86 140.68 117.30 C 133.42 112.96 126.78 106.95 124.11 98.68 C 123.97 98.13 123.68 97.02 123.54 96.47 C 121.39 93.21 120.24 89.44 119.12 85.73 C 119.20 86.61 119.36 88.36 119.44 89.23 C 117.89 88.12 116.34 87.01 114.79 85.91 C 116.41 85.29 118.05 84.70 119.69 84.13 C 119.68 82.37 119.68 80.61 119.69 78.85 C 121.71 78.35 123.73 77.83 125.75 77.32 C 122.25 75.97 118.69 74.75 115.06 73.78 C 120.79 72.25 125.32 77.32 130.92 77.26 C 135.88 77.40 140.92 77.37 145.70 78.91 C 145.85 55.96 145.35 32.98 145.95 10.04 M 159.24 89.24 C 163.36 91.00 167.72 92.17 172.12 92.97 C 172.73 92.75 173.94 92.30 174.54 92.08 C 171.29 90.54 167.80 89.65 164.46 88.35 C 162.63 87.37 160.77 87.97 159.24 89.24 M 74.16 111.07 C 75.40 111.75 76.71 112.28 78.03 112.82 C 76.47 113.89 74.89 114.91 73.34 115.99 C 75.62 116.01 77.89 115.99 80.17 116.00 C 82.33 117.52 85.21 117.10 87.49 118.40 C 88.97 119.19 89.46 120.90 90.18 122.30 C 89.61 123.52 89.06 124.76 88.54 126.01 C 89.15 121.29 84.19 118.22 79.93 119.11 C 80.03 118.72 80.23 117.94 80.33 117.55 C 77.26 117.79 74.18 117.69 71.11 117.50 C 72.13 115.48 73.35 113.57 74.56 111.67 C 70.21 111.63 65.88 111.30 61.55 110.95 C 62.10 111.38 63.21 112.23 63.76 112.65 L 62.70 113.22 C 62.98 115.22 63.00 117.26 63.46 119.24 C 65.57 118.70 68.22 116.90 70.20 118.75 C 76.50 124.14 81.21 132.78 79.32 141.24 C 84.03 139.33 88.92 137.47 94.10 137.71 C 100.15 137.95 104.47 132.23 106.13 127.03 C 105.77 122.67 103.70 118.34 100.52 115.32 C 92.70 110.81 82.99 108.21 74.16 111.07 M 43.13 115.96 C 37.75 117.91 33.21 121.47 28.33 124.35 C 26.19 126.75 25.74 130.27 26.88 133.23 C 27.89 141.24 25.48 149.66 28.30 157.47 C 30.07 164.34 32.27 171.84 29.77 178.81 C 28.71 182.15 25.25 183.61 23.00 186.00 C 20.60 188.24 19.24 191.72 15.93 192.85 C 13.61 193.69 11.76 195.35 10.07 197.11 C 11.29 196.89 13.74 196.45 14.97 196.24 C 13.35 197.53 11.58 198.62 9.99 199.96 C 13.63 201.82 17.25 199.28 20.95 199.17 C 24.47 199.19 26.66 196.11 29.52 194.57 C 32.61 192.54 36.43 192.58 39.97 192.16 C 43.38 188.82 45.72 183.97 44.35 179.15 C 42.73 172.71 41.56 166.19 40.43 159.65 C 38.18 153.99 38.71 147.80 36.94 142.02 C 36.02 138.83 37.32 135.57 38.99 132.87 C 40.63 130.82 43.27 129.97 45.17 128.20 C 49.53 123.92 55.41 121.63 61.22 120.13 C 61.25 117.65 61.18 115.08 59.70 112.97 C 54.06 112.91 48.31 113.58 43.13 115.96 M 52.88 124.76 C 48.90 126.06 46.53 129.75 42.96 131.72 C 40.23 133.02 39.54 136.15 38.12 138.55 C 38.84 142.34 40.40 146.02 40.16 149.95 C 39.85 153.80 42.46 157.03 42.59 160.83 C 43.10 169.03 45.90 176.85 46.56 185.02 C 46.88 187.65 44.87 189.58 43.02 191.08 C 38.99 194.39 37.09 199.76 32.55 202.52 C 28.32 204.34 22.75 205.18 20.51 209.73 C 21.35 209.77 23.02 209.85 23.86 209.88 C 25.65 212.63 28.82 213.49 31.91 213.74 C 36.22 212.76 40.56 211.67 44.39 209.40 C 49.39 206.50 55.36 206.62 60.70 204.70 C 62.87 203.81 63.01 201.08 62.67 199.09 C 61.73 194.58 59.64 190.44 58.23 186.08 C 57.30 179.79 56.22 173.44 56.93 167.07 C 57.70 159.03 53.70 151.70 52.47 143.93 C 54.91 143.03 57.42 141.79 60.10 142.42 C 66.08 143.38 72.51 142.71 77.82 139.67 C 79.35 132.22 74.60 125.10 69.69 119.91 C 63.63 119.44 58.29 122.56 52.88 124.76 Z" />
<path fill="#333333" opacity="1.00" d=" M 98.77 73.61 C 103.12 72.72 107.50 72.66 111.84 73.68 C 111.82 73.91 111.78 74.37 111.76 74.60 C 109.86 74.31 107.99 73.83 106.11 73.45 C 103.81 74.25 101.24 74.63 99.31 76.22 C 98.30 78.94 100.23 81.34 101.23 83.72 C 102.87 86.98 103.01 90.90 105.17 93.91 C 105.90 95.00 107.75 95.46 107.79 96.91 C 106.10 98.15 104.50 96.57 103.64 95.16 C 100.56 90.28 98.67 84.70 97.48 79.08 C 96.82 77.10 97.76 75.25 98.77 73.61 Z" />
<path fill="#333333" opacity="1.00" d=" M 109.15 85.71 C 111.92 87.51 113.79 90.32 116.43 92.29 C 116.39 93.49 115.74 93.93 114.48 93.63 C 113.02 90.78 110.91 88.36 109.15 85.71 Z" />
<path fill="#333333" opacity="1.00" d=" M 131.13 90.71 C 134.21 92.76 136.41 95.79 139.10 98.28 C 138.21 99.08 137.33 99.90 136.45 100.71 C 137.25 102.31 137.99 103.93 138.60 105.62 C 137.56 104.63 136.17 103.88 135.48 102.57 C 135.12 100.84 135.77 99.08 135.75 97.33 C 134.49 94.94 132.60 92.97 131.13 90.71 Z" />
<path fill="#333333" opacity="1.00" d=" M 148.58 96.97 C 149.63 98.50 150.58 100.09 151.43 101.74 C 148.90 101.36 148.93 98.92 148.58 96.97 Z" />
<path fill="#333333" opacity="1.00" d=" M 109.71 105.05 C 110.80 103.30 111.95 101.59 113.26 99.99 C 112.88 101.65 112.46 103.32 112.04 104.98 C 109.71 105.91 107.34 106.76 104.97 107.57 C 103.78 106.79 102.60 105.98 101.49 105.08 C 103.36 105.42 105.19 105.93 106.99 106.53 C 107.89 106.04 108.80 105.55 109.71 105.05 Z" />
<path fill="#333333" opacity="1.00" d=" M 144.69 104.44 C 147.15 107.38 149.01 111.52 147.09 115.20 C 146.09 111.67 144.84 108.15 144.69 104.44 Z" />
<path fill="#333333" opacity="1.00" d=" M 126.15 107.64 C 127.59 107.95 130.18 109.24 130.15 110.90 C 128.35 111.47 125.98 109.47 126.15 107.64 Z" />
<path fill="#333333" opacity="1.00" d=" M 106.97 107.79 C 108.55 107.87 110.13 107.95 111.72 108.03 C 112.41 109.24 113.11 110.45 113.77 111.68 C 111.37 110.64 109.18 109.19 106.97 107.79 Z" />
<path fill="#333333" opacity="1.00" d=" M 79.43 113.15 C 84.07 113.77 89.71 114.18 92.52 118.52 C 88.04 117.06 83.55 115.45 79.43 113.15 Z" />
<path fill="#333333" opacity="1.00" d=" M 107.64 114.12 C 110.13 114.22 112.59 114.54 115.03 115.00 C 115.19 115.52 115.51 116.54 115.67 117.06 C 112.94 116.24 110.22 115.34 107.64 114.12 Z" />
<path fill="#333333" opacity="1.00" d=" M 119.68 114.31 C 120.66 114.26 121.64 114.21 122.62 114.16 C 124.01 115.16 125.38 116.18 126.66 117.31 C 124.05 117.07 121.85 115.65 119.68 114.31 Z" />
<path fill="#333333" opacity="1.00" d=" M 117.36 116.35 C 118.83 115.94 120.87 118.19 120.18 119.61 C 118.55 120.19 116.67 117.84 117.36 116.35 Z" />
<path fill="#333333" opacity="1.00" d=" M 42.22 127.31 C 38.87 129.88 33.49 127.31 34.24 122.87 C 35.98 125.83 38.87 127.13 42.22 127.31 Z" />
<path fill="#333333" opacity="1.00" d=" M 57.56 133.22 C 61.24 129.36 65.89 126.35 71.14 125.20 C 66.72 128.00 62.88 132.22 57.56 133.22 Z" />
<path fill="#333333" opacity="1.00" d=" M 162.20 126.32 C 161.75 127.41 161.65 128.80 160.50 129.42 C 155.41 132.74 149.11 132.97 143.45 134.81 C 143.69 140.24 145.31 146.03 143.32 151.27 C 141.81 146.05 141.85 140.57 141.65 135.18 C 139.21 135.77 136.77 136.38 134.38 137.13 C 134.77 142.63 135.23 148.14 135.06 153.67 C 134.57 153.34 133.60 152.68 133.11 152.35 C 132.69 147.43 133.00 142.48 132.71 137.55 C 118.11 141.31 103.56 145.26 89.01 149.14 C 88.44 149.30 87.31 149.63 86.74 149.80 L 86.12 150.06 C 84.20 150.80 82.24 151.43 80.30 152.09 C 81.09 161.30 81.30 170.53 81.18 179.76 C 80.80 179.50 80.04 178.99 79.66 178.73 C 78.93 170.01 78.80 161.28 78.64 152.54 C 74.04 153.58 69.73 156.25 64.92 156.08 C 61.38 155.01 57.88 153.24 55.60 150.23 C 59.68 150.65 62.76 155.16 67.05 153.82 C 73.82 151.92 80.29 149.09 87.14 147.45 C 101.59 142.89 116.32 139.37 130.89 135.24 C 135.87 133.72 140.97 132.61 146.06 131.47 C 151.59 130.30 157.57 129.93 162.20 126.32 Z" />
<path fill="#333333" opacity="1.00" d=" M 30.51 135.94 C 30.58 133.57 29.22 131.00 30.50 128.78 C 32.20 130.35 33.21 132.63 32.44 134.95 C 32.70 135.01 33.23 135.13 33.49 135.19 C 32.67 137.15 31.92 139.15 30.94 141.04 C 30.93 138.96 31.09 136.90 31.43 134.86 L 30.51 135.94 Z" />
<path fill="#333333" opacity="1.00" d=" M 47.52 132.44 C 49.36 132.87 51.16 133.40 52.99 133.86 C 52.66 134.25 51.99 135.01 51.66 135.39 C 49.86 135.05 48.41 134.05 47.52 132.44 Z" />
<path fill="#333333" opacity="1.00" d=" M 42.53 144.61 C 43.24 141.08 42.60 136.04 47.08 135.01 C 46.49 136.05 45.87 137.08 45.25 138.10 C 45.29 140.63 44.51 142.96 42.53 144.61 Z" />
<path fill="#333333" opacity="1.00" d=" M 87.75 152.70 C 86.87 152.02 88.34 148.90 89.12 150.84 C 90.38 156.22 90.29 161.80 89.87 167.28 C 87.40 162.86 88.08 157.56 87.75 152.70 Z" />
<path fill="#333333" opacity="1.00" d=" M 45.28 153.22 C 45.78 153.83 45.78 153.83 45.28 153.22 Z" />
<path fill="#333333" opacity="1.00" d=" M 49.70 159.45 C 49.29 157.37 49.76 155.27 50.23 153.26 C 50.53 160.86 53.41 168.06 53.87 175.62 C 51.19 170.64 50.78 164.90 49.70 159.45 Z" />
<path fill="#333333" opacity="1.00" d=" M 46.61 155.22 C 47.33 156.70 47.85 158.28 47.81 159.95 C 47.94 164.71 48.81 169.40 49.21 174.14 C 47.23 168.06 46.16 161.62 46.61 155.22 Z" />
<path fill="#333333" opacity="1.00" d=" M 40.48 178.14 C 40.83 178.43 41.53 179.01 41.88 179.29 C 42.02 180.51 42.16 181.74 42.30 182.97 C 40.56 185.79 39.14 189.10 35.88 190.49 C 37.96 186.61 41.65 182.92 40.48 178.14 Z" />
<path fill="#333333" opacity="1.00" d=" M 25.96 190.96 C 27.47 188.02 29.79 185.51 32.87 184.19 C 30.94 186.79 28.59 189.07 25.96 190.96 Z" />
<path fill="#333333" opacity="1.00" d=" M 56.17 194.76 C 58.44 197.92 53.61 199.56 51.24 199.93 C 52.31 198.95 53.45 198.06 54.63 197.21 C 55.02 196.60 55.79 195.37 56.17 194.76 Z" />
<path fill="#333333" opacity="1.00" d=" M 41.49 204.40 C 42.21 201.32 44.26 198.82 46.73 196.95 C 45.55 199.78 43.74 202.31 41.49 204.40 Z" />
<path fill="#333333" opacity="1.00" d=" M 26.39 207.00 C 29.46 206.21 32.78 207.25 34.62 209.91 C 31.62 209.84 28.91 208.51 26.39 207.00 Z" />
</g>
</svg>
