<?xml version="1.0" encoding="UTF-8" ?>
<!DOCTYPE svg PUBLIC "-//W3C//DTD SVG 1.1//EN" "http://www.w3.org/Graphics/SVG/1.1/DTD/svg11.dtd">
<svg width="216pt" height="300pt" viewBox="0 0 216 300" version="1.1" xmlns="http://www.w3.org/2000/svg">
<g id="#ffffffff">
<path fill="#FFFFFF" opacity="1.00" d=" M 0.00 0.00 L 216.00 0.00 L 216.00 300.00 L 0.00 300.00 L 0.00 0.00 M 77.56 53.74 C 73.90 60.17 75.17 67.84 76.11 74.81 C 76.77 78.11 79.85 79.76 83.03 79.45 C 84.35 80.19 85.67 80.91 87.01 81.63 C 85.27 82.69 83.59 83.88 81.71 84.68 C 78.90 84.99 76.04 84.67 73.28 85.41 C 73.60 85.92 74.24 86.95 74.56 87.47 C 72.38 90.26 70.97 94.33 72.91 97.62 C 71.69 100.27 70.61 103.36 71.85 106.21 C 72.64 109.50 75.43 112.68 74.01 116.16 C 72.45 120.13 73.72 124.29 75.07 128.11 C 73.67 128.85 72.23 129.56 70.58 129.40 C 71.18 123.19 65.35 119.32 64.56 113.49 C 63.95 109.71 63.70 105.86 64.02 102.04 C 64.25 98.64 62.41 95.42 63.03 92.00 C 63.59 89.77 62.03 87.90 61.15 86.00 C 61.94 84.71 62.72 83.43 63.48 82.13 C 66.86 81.66 70.36 81.39 73.72 81.99 C 75.24 83.14 76.66 84.47 78.62 84.83 C 77.91 83.05 76.93 81.42 75.86 79.84 C 71.98 79.41 68.02 79.51 64.16 80.13 C 61.93 80.59 60.84 82.90 58.86 83.81 C 56.45 84.11 54.03 83.83 51.62 83.76 C 51.60 76.59 50.39 68.34 44.60 63.44 C 41.95 60.85 37.92 61.51 34.59 61.80 C 25.73 64.96 23.04 75.18 21.53 83.48 C 17.49 82.51 13.30 82.78 9.19 82.40 C 8.26 84.57 7.70 86.85 7.60 89.21 C 12.13 89.30 16.65 89.36 21.18 89.38 C 21.11 97.75 22.41 108.03 30.06 112.95 C 35.34 114.02 41.95 113.02 45.15 108.13 C 48.50 103.43 51.29 97.57 50.75 91.69 C 52.14 90.75 53.85 90.58 55.44 90.20 C 57.58 90.52 59.74 90.69 61.90 90.55 C 60.88 92.21 60.31 94.13 61.10 96.02 C 62.96 101.97 60.82 108.35 62.68 114.29 C 63.57 117.49 65.49 120.23 66.91 123.18 C 67.97 125.33 67.96 127.82 68.89 130.02 C 70.06 131.66 72.27 130.89 73.97 131.13 C 74.50 130.53 75.54 129.32 76.06 128.71 C 79.61 134.32 80.64 142.34 77.12 148.22 C 75.95 150.89 77.89 153.70 78.51 156.28 C 77.90 158.27 77.27 160.26 76.55 162.21 C 76.92 162.66 77.65 163.57 78.02 164.03 C 76.77 168.72 75.74 173.46 74.69 178.20 C 74.55 184.13 75.41 190.05 75.38 196.00 C 74.08 196.80 72.81 197.68 71.45 198.40 C 63.13 201.63 55.13 205.63 46.84 208.97 C 45.63 210.97 44.88 214.26 47.35 215.62 C 51.94 216.87 56.61 218.26 61.41 218.26 C 61.90 224.89 61.55 231.54 61.61 238.18 C 57.95 240.31 54.12 242.25 50.88 245.00 C 49.93 247.03 50.31 249.53 50.39 251.75 C 51.91 252.90 53.92 254.29 55.85 253.99 C 63.28 249.63 70.19 244.36 77.77 240.23 C 77.60 243.59 77.48 246.97 78.14 250.29 C 78.74 249.83 79.94 248.91 80.55 248.45 C 78.35 242.95 78.89 236.87 79.72 231.15 C 80.54 227.20 80.05 223.12 80.72 219.15 C 76.91 214.45 77.98 208.23 79.81 202.96 C 81.65 206.05 85.25 208.72 88.91 206.83 C 91.73 204.53 93.19 199.86 91.39 196.55 C 90.03 199.46 91.23 206.05 86.20 204.60 C 82.96 204.80 82.21 199.06 79.13 201.02 C 77.86 195.91 77.25 190.67 76.99 185.41 C 81.97 188.20 87.94 188.94 93.55 188.43 C 95.09 188.42 95.43 186.97 95.91 185.82 C 89.55 187.31 82.69 186.25 77.06 182.94 C 76.29 176.68 79.08 170.82 79.99 164.73 C 79.12 162.04 80.19 159.43 81.03 156.90 C 80.53 154.58 79.36 152.47 78.63 150.22 C 79.53 148.43 80.36 146.59 81.15 144.75 L 79.60 144.25 C 80.06 143.57 80.54 142.91 81.02 142.25 C 81.62 142.90 82.81 144.19 83.41 144.84 C 91.84 146.43 100.67 148.52 109.17 146.16 C 112.02 145.76 114.63 144.44 116.27 142.01 C 116.48 144.91 118.83 146.48 120.67 148.37 C 122.68 153.89 122.32 159.99 122.37 165.79 C 121.11 167.16 120.84 169.12 121.33 170.87 C 122.43 175.08 123.28 179.34 124.02 183.63 C 119.91 185.68 115.67 187.61 111.20 188.70 C 107.23 189.66 103.32 188.21 99.52 187.26 C 101.51 191.45 101.04 196.07 100.83 200.55 C 99.60 200.25 97.12 199.65 95.89 199.35 L 96.81 201.74 C 97.81 201.95 99.81 202.37 100.81 202.58 C 102.44 204.42 100.92 207.36 102.51 209.21 C 104.51 211.25 104.49 214.25 104.83 216.91 C 105.09 220.76 106.89 224.23 107.84 227.92 C 103.27 227.15 98.80 225.93 94.31 224.86 C 94.35 222.95 94.36 221.01 95.04 219.20 C 96.53 214.79 96.58 210.09 96.67 205.48 C 94.39 207.69 94.95 211.06 94.32 213.89 C 93.76 217.57 91.43 221.07 92.55 224.87 C 93.36 231.28 96.47 238.44 92.75 244.46 C 90.69 248.51 90.61 253.15 89.72 257.52 C 89.17 259.47 90.66 261.17 91.28 262.90 C 90.83 263.00 89.94 263.19 89.49 263.29 C 88.98 267.06 85.31 269.17 84.56 272.89 C 88.23 271.54 89.35 267.32 91.89 264.70 C 92.99 267.17 93.88 269.75 94.16 272.46 C 90.90 275.61 86.27 275.37 82.12 276.16 C 78.46 277.34 75.80 280.73 71.89 281.31 C 69.44 281.52 66.96 281.52 64.50 281.40 C 63.25 280.86 62.85 279.70 63.57 278.50 C 63.69 276.39 65.95 275.81 67.05 274.35 C 70.56 268.96 75.11 264.37 79.47 259.70 C 80.08 257.32 80.10 254.85 80.33 252.42 C 79.53 251.73 78.74 251.03 77.97 250.32 C 78.21 253.99 78.65 258.76 75.31 261.26 C 72.72 263.78 70.68 266.78 68.31 269.50 C 65.64 272.51 61.82 274.56 60.01 278.29 C 59.07 280.59 61.27 282.71 63.33 283.32 C 66.88 284.26 70.72 284.34 74.25 283.25 C 76.97 282.23 78.92 279.89 81.57 278.73 C 84.52 277.76 87.78 277.92 90.65 276.67 C 92.99 275.10 94.92 273.01 96.98 271.09 L 95.37 272.16 C 95.83 267.41 93.07 263.14 91.38 258.87 C 91.62 252.66 94.01 246.89 96.07 241.12 C 96.91 236.45 95.72 231.71 94.85 227.13 C 99.24 228.11 103.66 229.02 107.93 230.46 C 106.40 237.77 108.52 245.19 111.33 251.90 C 112.22 257.10 110.47 262.07 109.60 267.11 C 109.54 271.64 105.77 274.80 103.48 278.36 C 99.87 280.18 98.25 283.88 95.78 286.85 C 96.27 287.75 96.70 288.71 97.35 289.53 C 102.06 292.13 107.70 291.45 112.82 290.91 C 116.09 289.44 119.27 287.43 121.48 284.55 C 123.54 281.84 126.61 280.22 129.09 277.95 C 128.36 274.45 128.19 270.87 127.63 267.35 C 125.04 260.62 124.86 252.95 127.09 246.10 C 127.95 242.48 127.28 238.78 126.99 235.14 C 133.46 236.02 139.68 238.12 146.05 239.49 C 148.90 240.13 151.23 237.86 153.63 236.71 C 153.36 244.27 154.06 251.91 153.47 259.43 C 149.94 262.68 146.11 265.62 142.53 268.82 C 142.57 271.23 141.81 273.88 142.73 276.15 C 144.41 276.93 146.23 277.35 148.01 277.88 C 155.73 269.95 164.77 263.42 172.58 255.57 C 173.46 252.94 174.23 249.03 171.16 247.49 C 166.60 246.70 163.56 251.05 160.83 254.00 C 161.12 246.66 161.40 239.31 161.28 231.97 C 165.25 229.07 169.38 226.36 173.07 223.10 C 175.06 221.41 174.51 218.61 174.66 216.30 C 173.95 215.76 173.25 215.21 172.55 214.67 C 156.42 211.34 140.29 208.04 124.17 204.67 C 125.11 198.54 125.37 192.31 125.01 186.13 C 125.53 185.47 126.04 184.81 126.56 184.15 C 124.94 180.05 125.00 175.54 123.56 171.40 C 122.22 167.92 124.65 164.43 124.16 160.89 C 123.62 157.18 123.94 153.39 123.27 149.70 C 122.81 146.22 118.64 145.14 117.98 141.76 C 116.12 135.19 116.53 127.83 119.61 121.67 C 122.16 127.92 127.93 131.66 133.19 135.44 C 138.55 133.90 140.90 128.66 143.13 124.08 C 147.59 116.84 149.68 108.43 150.64 100.05 C 151.88 97.80 152.97 95.42 153.19 92.82 C 151.89 94.16 150.75 95.65 149.66 97.16 C 149.39 96.64 148.84 95.61 148.56 95.10 C 149.91 102.58 147.65 110.02 145.00 116.95 C 143.38 120.54 141.07 123.76 139.54 127.40 C 138.44 130.07 136.74 132.48 134.26 134.03 C 131.53 131.95 128.83 129.84 126.15 127.70 C 123.29 125.33 122.49 121.51 120.53 118.50 C 119.20 116.46 117.86 114.42 116.80 112.22 C 119.77 114.73 124.06 117.22 127.70 114.44 C 121.64 114.05 116.93 109.75 112.79 105.74 C 114.23 110.54 115.42 115.58 118.79 119.47 C 116.59 123.97 114.91 128.93 115.09 134.01 C 115.00 136.99 115.47 140.72 112.61 142.64 C 105.85 147.00 97.60 145.88 90.12 144.51 C 87.87 143.93 85.63 143.30 83.43 142.57 C 83.36 139.53 83.37 136.45 82.73 133.46 C 82.48 136.58 82.65 139.71 82.61 142.84 C 78.73 139.18 82.20 133.20 78.78 129.30 C 75.34 124.59 75.78 118.50 77.05 113.12 C 74.91 108.99 71.82 104.42 73.50 99.58 C 74.57 95.59 78.99 93.80 80.26 89.98 C 78.66 91.15 77.26 92.55 75.90 93.99 C 73.32 93.41 74.69 90.29 76.09 89.12 C 79.64 86.44 84.24 85.72 87.77 82.97 C 89.30 84.09 90.90 85.18 92.87 85.35 C 90.94 83.10 89.02 80.75 86.40 79.28 C 89.84 77.73 94.30 75.86 94.06 71.30 C 91.37 76.24 85.75 78.01 80.48 78.48 C 76.05 72.27 77.31 64.14 78.49 57.10 C 78.56 54.40 80.94 52.98 82.82 51.52 C 87.66 51.72 93.27 50.48 97.46 53.49 C 102.09 58.29 99.39 65.29 99.55 71.14 C 98.96 74.48 101.96 76.84 102.65 79.92 C 106.09 80.63 109.53 81.43 112.70 82.98 C 110.65 84.91 107.47 86.28 107.25 89.46 C 109.63 87.56 111.88 85.51 114.21 83.55 L 114.34 84.91 C 116.39 85.33 118.70 85.12 120.55 86.25 C 125.06 89.56 127.18 95.39 127.13 100.85 C 123.08 98.81 118.28 96.15 113.70 97.75 C 119.41 99.08 124.36 102.26 129.90 104.01 C 131.16 105.90 132.09 107.98 132.85 110.12 C 130.28 112.61 128.25 115.55 126.26 118.50 C 126.68 118.41 127.51 118.22 127.92 118.12 C 129.99 114.86 132.72 112.10 135.75 109.72 C 139.52 106.67 140.95 101.59 140.88 96.91 C 139.52 95.41 137.43 94.96 135.78 93.87 C 134.93 92.04 135.48 89.88 135.36 87.92 C 135.98 87.55 137.21 86.81 137.83 86.44 C 137.67 85.79 137.34 84.49 137.18 83.84 C 138.71 82.88 140.35 81.90 142.24 82.18 C 145.93 82.43 150.56 81.44 152.96 85.01 C 152.53 87.68 151.49 90.76 153.79 92.90 C 157.41 92.57 161.06 92.93 164.68 92.49 C 164.62 101.86 166.06 113.41 174.94 118.62 C 177.88 118.16 180.89 118.48 183.81 117.98 C 189.75 115.66 192.71 109.37 194.41 103.63 C 195.05 100.97 196.32 98.20 195.38 95.46 C 199.90 95.75 204.42 96.10 208.95 96.31 C 211.64 95.13 211.54 91.01 209.41 89.15 C 205.14 89.50 200.88 88.95 196.62 88.82 C 196.17 80.93 194.55 72.15 188.55 66.52 C 183.70 63.58 176.34 63.90 172.50 68.47 C 167.57 73.66 166.28 80.93 164.53 87.59 C 161.51 87.46 158.48 87.37 155.46 87.33 C 155.46 86.74 155.47 85.57 155.47 84.98 C 153.57 83.36 151.82 80.92 149.04 81.01 C 144.48 80.74 138.76 79.65 135.86 84.19 C 129.35 84.36 122.71 84.14 116.38 82.51 C 112.91 80.76 109.46 78.82 105.48 78.58 C 104.03 76.83 101.91 75.33 101.69 72.89 C 100.15 67.85 103.02 62.71 101.31 57.70 C 100.66 52.75 95.28 50.91 91.00 50.37 C 86.35 49.29 80.90 50.12 77.56 53.74 M 91.36 89.40 C 90.05 90.49 89.21 92.02 88.30 93.43 C 89.85 92.63 91.26 91.59 92.59 90.45 C 96.76 90.00 100.98 89.04 105.17 89.92 C 105.46 89.41 106.04 88.40 106.33 87.89 C 101.31 87.71 96.17 87.80 91.36 89.40 M 80.54 89.11 C 83.18 88.92 85.05 91.37 87.48 91.36 C 87.35 87.71 83.02 88.10 80.54 89.11 M 105.77 99.76 C 107.99 98.64 110.37 98.16 112.82 98.92 C 111.68 97.89 110.76 96.33 109.08 96.17 C 107.31 96.51 105.94 97.95 105.77 99.76 M 104.12 109.09 C 99.79 111.99 94.26 111.36 89.32 110.96 C 88.07 109.25 87.04 106.68 84.45 107.38 C 85.63 109.45 86.75 111.97 89.32 112.59 C 94.52 113.91 100.21 113.26 105.05 110.94 C 107.36 108.14 109.82 104.97 109.99 101.17 C 107.31 103.23 106.10 106.46 104.12 109.09 M 77.64 110.20 C 79.75 111.71 83.01 111.58 85.05 110.04 C 83.28 107.74 79.98 109.92 77.64 110.20 M 80.30 116.28 C 80.13 116.87 79.79 118.04 79.62 118.62 C 78.89 119.44 78.18 120.27 77.49 121.13 C 80.35 120.72 80.64 117.15 82.79 116.18 C 81.90 122.16 83.85 128.21 87.01 133.25 C 87.57 135.05 87.81 136.94 88.33 138.76 C 89.61 136.38 89.62 133.20 87.71 131.13 C 84.89 126.67 82.70 120.65 85.22 115.57 C 84.47 115.11 83.73 114.64 82.99 114.17 C 82.09 114.87 81.19 115.58 80.30 116.28 M 86.86 114.87 C 89.57 117.85 92.34 120.92 96.40 121.97 C 96.84 125.45 98.12 129.01 101.53 130.61 C 100.36 127.97 99.13 125.35 98.02 122.69 C 97.27 120.24 94.47 119.81 92.49 118.75 C 91.16 116.75 89.29 115.25 86.86 114.87 M 104.44 114.65 C 104.81 115.87 105.18 117.10 105.57 118.32 C 103.79 119.47 102.02 120.65 100.57 122.20 C 102.81 121.49 105.08 120.57 106.62 118.71 C 108.05 118.77 109.47 118.83 110.89 118.90 C 110.91 118.55 110.93 117.84 110.94 117.49 C 108.29 117.85 106.22 116.40 104.44 114.65 M 106.61 122.77 C 105.30 124.12 103.97 125.46 102.77 126.90 C 104.42 126.23 106.03 125.45 107.63 124.66 C 110.17 125.65 112.37 124.65 113.43 122.20 C 112.20 122.60 110.97 122.98 109.73 123.35 C 108.57 122.60 107.72 121.48 106.74 120.53 C 106.71 121.09 106.64 122.21 106.61 122.77 M 84.60 216.68 C 84.65 218.75 84.48 220.91 85.33 222.86 C 85.37 221.85 85.46 219.82 85.50 218.80 C 86.98 217.07 88.58 215.35 89.23 213.11 C 87.53 214.09 86.01 215.33 84.60 216.68 M 74.53 274.43 C 78.04 271.80 80.14 267.81 82.71 264.35 C 78.97 266.65 75.99 270.29 74.53 274.43 Z" />
<path fill="#FFFFFF" opacity="1.00" d=" M 22.96 86.96 C 23.62 78.06 26.43 67.99 34.84 63.40 C 37.19 63.49 39.54 63.52 41.89 63.50 C 48.87 67.79 49.48 76.62 50.98 83.84 C 47.32 83.67 43.65 83.63 39.99 83.52 C 38.97 85.70 38.35 88.10 39.65 90.31 C 43.70 90.36 47.74 90.62 51.78 90.33 C 48.64 92.81 49.26 97.20 47.53 100.48 C 45.54 104.56 43.08 109.66 38.10 110.46 C 35.02 110.74 31.14 111.99 28.77 109.26 C 23.18 103.40 22.71 94.63 22.96 86.96 M 33.72 66.80 C 27.17 76.33 25.96 88.81 28.49 99.90 C 29.54 103.78 31.03 108.34 35.04 110.05 C 34.14 106.78 31.66 104.28 30.56 101.11 C 28.65 95.31 29.02 89.09 29.40 83.10 C 29.96 76.38 33.39 70.48 36.98 64.97 C 35.71 65.19 34.35 65.52 33.72 66.80 Z" />
<path fill="#FFFFFF" opacity="1.00" d=" M 166.06 93.11 C 166.40 83.17 169.05 71.55 178.52 66.38 C 181.85 66.87 185.94 65.69 188.44 68.61 C 193.78 74.01 193.97 81.96 195.83 88.88 C 191.91 88.20 187.95 87.72 183.96 87.82 C 183.25 89.93 182.89 92.12 182.73 94.34 C 186.73 95.22 190.85 95.32 194.93 95.33 C 193.27 102.49 191.70 111.14 184.80 115.18 C 180.71 115.91 175.34 117.63 172.21 113.84 C 167.24 108.27 166.29 100.29 166.06 93.11 M 176.77 70.92 C 170.03 82.56 169.21 97.38 174.14 109.83 C 174.94 112.27 176.70 114.30 179.13 115.19 C 177.08 111.20 174.47 107.41 173.67 102.89 C 172.21 95.31 172.35 87.27 174.59 79.84 C 175.74 75.43 178.53 71.80 181.01 68.07 C 179.22 68.37 177.49 69.14 176.77 70.92 Z" />
<path fill="#FFFFFF" opacity="1.00" d=" M 9.70 87.23 C 10.04 86.64 10.72 85.45 11.06 84.85 C 14.55 84.34 18.09 84.89 21.59 84.66 C 21.51 85.40 21.34 86.88 21.25 87.63 C 17.40 87.46 13.54 87.48 9.70 87.23 Z" />
<path fill="#FFFFFF" opacity="1.00" d=" M 39.59 87.95 C 40.01 87.34 40.86 86.11 41.28 85.50 C 47.18 85.71 53.11 85.63 58.98 86.16 C 59.28 86.81 59.87 88.10 60.17 88.75 C 53.31 88.61 46.40 88.87 39.59 87.95 Z" />
<path fill="#FFFFFF" opacity="1.00" d=" M 124.67 86.11 C 128.09 86.11 131.52 86.09 134.95 86.07 C 134.30 87.09 133.65 88.10 133.00 89.11 C 130.95 89.21 128.92 89.45 126.91 89.82 C 126.17 88.58 125.42 87.34 124.67 86.11 Z" />
<path fill="#FFFFFF" opacity="1.00" d=" M 153.51 88.28 C 157.34 88.49 161.31 89.58 165.03 88.16 C 164.90 89.35 164.77 90.54 164.65 91.73 C 161.48 91.33 158.31 91.95 155.15 91.66 C 154.74 90.81 153.92 89.12 153.51 88.28 Z" />
<path fill="#FFFFFF" opacity="1.00" d=" M 184.88 90.09 C 192.05 90.21 199.19 91.13 206.37 91.17 C 206.28 91.90 206.10 93.37 206.01 94.10 C 198.91 93.81 191.83 93.19 184.75 92.69 L 183.89 92.16 C 184.14 91.64 184.63 90.61 184.88 90.09 Z" />
<path fill="#FFFFFF" opacity="1.00" d=" M 127.07 91.24 C 129.03 91.10 130.99 90.95 132.94 90.82 C 133.23 92.23 133.27 93.74 133.88 95.08 C 135.26 96.49 137.34 96.86 139.08 97.69 C 139.11 102.07 137.44 106.39 134.00 109.22 C 133.67 105.81 131.53 103.20 129.22 100.88 C 128.98 97.57 128.21 94.35 127.07 91.24 Z" />
<path fill="#FFFFFF" opacity="1.00" d=" M 208.89 93.71 C 207.36 94.32 207.31 90.97 208.85 91.46 C 208.86 92.02 208.88 93.14 208.89 93.71 Z" />
<path fill="#FFFFFF" opacity="1.00" d=" M 103.41 191.18 C 110.09 192.00 116.55 189.94 122.49 187.06 C 123.11 195.72 122.28 204.33 121.05 212.89 C 121.57 215.24 121.19 217.62 121.04 219.97 C 121.05 224.93 123.97 229.20 124.83 233.99 C 126.04 239.24 125.22 244.66 124.38 249.90 C 123.08 256.03 124.69 262.22 124.62 268.39 C 123.34 270.61 121.41 272.60 120.99 275.22 C 124.06 273.52 125.47 270.44 126.31 267.20 C 126.37 270.47 128.19 273.44 128.14 276.69 C 126.19 279.16 123.20 280.42 120.65 282.16 C 119.38 286.08 115.08 287.30 112.04 289.49 C 107.37 289.45 102.33 290.68 98.12 287.99 C 98.53 285.63 99.73 283.19 101.63 281.69 C 106.78 278.57 108.73 272.47 113.09 268.50 C 113.04 266.12 114.35 264.38 116.53 263.54 C 116.45 263.28 116.29 262.75 116.21 262.49 C 118.50 257.95 117.25 252.81 116.97 247.99 C 116.59 242.19 116.42 236.00 113.40 230.86 C 113.39 236.01 115.14 240.96 115.31 246.09 C 115.51 251.37 116.61 256.73 115.29 261.95 C 113.87 262.99 112.55 264.14 111.21 265.27 C 112.43 261.11 113.05 256.71 112.47 252.38 C 111.70 248.45 110.43 244.63 109.42 240.75 C 108.02 236.25 110.57 231.65 109.54 227.10 C 108.51 221.92 105.58 216.47 108.64 211.38 C 102.59 206.75 101.37 198.14 103.41 191.18 M 115.87 190.74 C 115.66 194.42 115.54 198.22 117.01 201.70 L 115.47 202.40 C 116.12 202.44 116.77 202.45 117.42 202.43 C 117.12 198.62 118.48 193.94 115.87 190.74 M 104.90 192.10 C 104.65 196.14 105.94 201.26 109.92 203.13 C 108.25 199.45 106.85 195.65 104.90 192.10 M 116.08 211.51 C 115.47 213.08 116.01 213.61 117.70 213.11 C 118.30 211.52 117.76 210.99 116.08 211.51 M 114.01 219.79 C 115.04 221.36 115.19 224.08 117.55 224.18 C 116.87 221.60 116.16 218.97 117.05 216.33 C 115.39 216.83 114.83 218.47 114.01 219.79 M 119.04 238.00 C 120.04 242.14 119.85 246.58 121.53 250.54 C 122.47 243.06 120.56 235.43 117.76 228.54 C 116.89 231.76 118.74 234.82 119.04 238.00 M 113.29 282.16 C 114.23 281.35 115.00 280.35 115.24 279.11 C 116.32 275.17 117.81 271.37 119.44 267.63 C 115.39 271.38 114.43 277.02 113.29 282.16 Z" />
<path fill="#FFFFFF" opacity="1.00" d=" M 71.16 200.78 C 72.87 200.20 74.27 199.03 75.72 198.00 C 76.48 199.99 77.14 202.03 77.78 204.07 C 77.44 204.56 76.75 205.55 76.40 206.05 C 76.33 208.08 76.13 210.11 75.87 212.13 C 77.05 215.17 78.22 218.21 79.54 221.19 C 73.96 219.80 68.12 219.13 62.84 216.76 C 57.88 216.27 53.04 214.90 48.29 213.47 C 47.02 212.40 47.82 210.82 49.14 210.32 C 56.48 207.14 63.70 203.68 71.16 200.78 Z" />
<path fill="#FFFFFF" opacity="1.00" d=" M 123.70 207.01 C 135.04 208.74 146.17 211.61 157.44 213.73 C 162.85 215.21 168.68 215.25 173.72 217.91 C 171.54 224.01 164.87 226.43 160.15 230.23 C 155.27 233.09 150.28 238.38 144.14 236.45 C 138.35 235.26 132.49 234.38 126.83 232.60 C 123.24 224.62 122.25 215.61 123.70 207.01 Z" />
<path fill="#FFFFFF" opacity="1.00" d=" M 62.93 219.32 C 64.69 219.74 66.45 220.13 68.23 220.41 C 67.20 225.88 67.82 231.48 67.72 237.01 C 68.03 237.15 68.64 237.41 68.95 237.54 C 70.10 233.83 74.31 232.68 77.35 230.91 C 77.18 233.05 77.03 235.19 76.93 237.34 C 72.33 241.10 67.21 244.14 62.12 247.18 C 59.51 248.71 57.26 251.05 54.25 251.79 C 50.93 251.06 51.00 246.06 53.95 244.88 C 57.83 242.97 61.12 239.48 65.57 239.08 C 65.00 238.91 63.86 238.57 63.29 238.40 C 63.24 232.04 63.73 225.64 62.93 219.32 Z" />
<path fill="#FFFFFF" opacity="1.00" d=" M 68.64 221.65 C 69.17 221.38 69.72 221.12 70.26 220.87 C 73.38 221.90 76.58 222.64 79.76 223.46 C 79.26 225.06 78.77 226.66 78.30 228.27 C 74.84 229.67 71.42 231.36 68.81 234.10 C 68.63 229.97 70.06 225.61 68.64 221.65 Z" />
<path fill="#FFFFFF" opacity="1.00" d=" M 155.50 236.39 C 156.68 234.52 158.80 233.57 160.74 232.71 C 159.70 240.42 159.38 248.21 159.79 255.98 C 160.02 256.47 160.50 257.45 160.73 257.94 C 160.97 257.23 161.43 255.82 161.67 255.11 C 163.90 253.18 165.84 250.92 168.19 249.14 C 169.52 248.79 170.67 249.85 171.88 250.20 C 171.86 251.25 171.83 252.30 171.80 253.35 C 163.62 260.56 155.41 267.78 146.95 274.63 C 143.73 275.71 142.86 271.45 144.51 269.45 C 147.66 265.92 152.19 263.80 155.02 259.97 C 155.78 252.14 155.06 244.23 155.50 236.39 M 155.91 259.20 C 154.44 262.18 159.26 259.27 155.91 259.20 Z" />
</g>
<g id="#50524dff">
<path fill="#333333" opacity="1.00" d=" M 77.56 53.74 C 80.90 50.12 86.35 49.29 91.00 50.37 C 95.28 50.91 100.66 52.75 101.31 57.70 C 103.02 62.71 100.15 67.85 101.69 72.89 C 101.91 75.33 104.03 76.83 105.48 78.58 C 109.46 78.82 112.91 80.76 116.38 82.51 C 122.71 84.14 129.35 84.36 135.86 84.19 C 138.76 79.65 144.48 80.74 149.04 81.01 C 151.82 80.92 153.57 83.36 155.47 84.98 C 155.47 85.57 155.46 86.74 155.46 87.33 C 158.48 87.37 161.51 87.46 164.53 87.59 C 166.28 80.93 167.57 73.66 172.50 68.47 C 176.34 63.90 183.70 63.58 188.55 66.52 C 194.55 72.15 196.17 80.93 196.62 88.82 C 200.88 88.95 205.14 89.50 209.41 89.15 C 211.54 91.01 211.64 95.13 208.95 96.31 C 204.42 96.10 199.90 95.75 195.38 95.46 C 196.32 98.20 195.05 100.97 194.41 103.63 C 192.71 109.37 189.75 115.66 183.81 117.98 C 180.89 118.48 177.88 118.16 174.94 118.62 C 166.06 113.41 164.62 101.86 164.68 92.49 C 161.06 92.93 157.41 92.57 153.79 92.90 C 151.49 90.76 152.53 87.68 152.96 85.01 C 150.56 81.44 145.93 82.43 142.24 82.18 C 140.35 81.90 138.71 82.88 137.18 83.84 C 137.34 84.49 137.67 85.79 137.83 86.44 C 137.21 86.81 135.98 87.55 135.36 87.92 C 135.48 89.88 134.93 92.04 135.78 93.87 C 137.43 94.96 139.52 95.41 140.88 96.91 C 140.95 101.59 139.52 106.67 135.75 109.72 C 132.72 112.10 129.99 114.86 127.92 118.12 C 127.51 118.22 126.68 118.41 126.26 118.50 C 128.25 115.55 130.28 112.61 132.85 110.12 C 132.09 107.98 131.16 105.90 129.90 104.01 C 124.36 102.26 119.41 99.08 113.70 97.75 C 118.28 96.15 123.08 98.81 127.13 100.85 C 127.18 95.39 125.06 89.56 120.55 86.25 C 118.70 85.12 116.39 85.33 114.34 84.91 L 114.21 83.55 C 111.88 85.51 109.63 87.56 107.25 89.46 C 107.47 86.28 110.65 84.91 112.70 82.98 C 109.53 81.43 106.09 80.63 102.65 79.92 C 101.96 76.84 98.96 74.48 99.55 71.14 C 99.39 65.29 102.09 58.29 97.46 53.49 C 93.27 50.48 87.66 51.72 82.82 51.52 C 80.94 52.98 78.56 54.40 78.49 57.10 C 77.31 64.14 76.05 72.27 80.48 78.48 C 85.75 78.01 91.37 76.24 94.06 71.30 C 94.30 75.86 89.84 77.73 86.40 79.28 C 89.02 80.75 90.94 83.10 92.87 85.35 C 90.90 85.18 89.30 84.09 87.77 82.97 C 84.24 85.72 79.64 86.44 76.09 89.12 C 74.69 90.29 73.32 93.41 75.90 93.99 C 77.26 92.55 78.66 91.15 80.26 89.98 C 78.99 93.80 74.57 95.59 73.50 99.58 C 71.82 104.42 74.91 108.99 77.05 113.12 C 75.78 118.50 75.34 124.59 78.78 129.30 C 82.20 133.20 78.73 139.18 82.61 142.84 C 82.65 139.71 82.48 136.58 82.73 133.46 C 83.37 136.45 83.36 139.53 83.43 142.57 C 85.63 143.30 87.87 143.93 90.12 144.51 C 97.60 145.88 105.85 147.00 112.61 142.64 C 115.47 140.72 115.00 136.99 115.09 134.01 C 114.91 128.93 116.59 123.97 118.79 119.47 C 115.42 115.58 114.23 110.54 112.79 105.74 C 116.93 109.75 121.64 114.05 127.70 114.44 C 124.06 117.22 119.77 114.73 116.80 112.22 C 117.86 114.42 119.20 116.46 120.53 118.50 C 122.49 121.51 123.29 125.33 126.15 127.70 C 128.83 129.84 131.53 131.95 134.26 134.03 C 136.74 132.48 138.44 130.07 139.54 127.40 C 141.07 123.76 143.38 120.54 145.00 116.95 C 147.65 110.02 149.91 102.58 148.56 95.10 C 148.84 95.61 149.39 96.64 149.66 97.16 C 150.75 95.65 151.89 94.16 153.19 92.82 C 152.97 95.42 151.88 97.80 150.64 100.05 C 149.68 108.43 147.59 116.84 143.13 124.08 C 140.90 128.66 138.55 133.90 133.19 135.44 C 127.93 131.66 122.16 127.92 119.61 121.67 C 116.53 127.83 116.12 135.19 117.98 141.76 C 118.64 145.14 122.81 146.22 123.27 149.70 C 123.94 153.39 123.62 157.18 124.16 160.89 C 124.65 164.43 122.22 167.92 123.56 171.40 C 125.00 175.54 124.94 180.05 126.56 184.15 C 126.04 184.81 125.53 185.47 125.01 186.13 C 125.37 192.31 125.11 198.54 124.17 204.67 C 140.29 208.04 156.42 211.34 172.55 214.67 C 173.25 215.21 173.95 215.76 174.66 216.30 C 174.51 218.61 175.06 221.41 173.07 223.10 C 169.38 226.36 165.25 229.07 161.28 231.97 C 161.40 239.31 161.12 246.66 160.83 254.00 C 163.56 251.05 166.60 246.70 171.16 247.49 C 174.23 249.03 173.46 252.94 172.58 255.57 C 164.77 263.42 155.73 269.95 148.01 277.88 C 146.23 277.35 144.41 276.93 142.73 276.15 C 141.81 273.88 142.57 271.23 142.53 268.82 C 146.11 265.62 149.94 262.68 153.47 259.43 C 154.06 251.91 153.36 244.27 153.63 236.71 C 151.23 237.86 148.90 240.13 146.05 239.49 C 139.68 238.12 133.46 236.02 126.99 235.14 C 127.28 238.78 127.95 242.48 127.09 246.10 C 124.86 252.95 125.04 260.62 127.63 267.35 C 128.19 270.87 128.36 274.45 129.09 277.95 C 126.61 280.22 123.54 281.84 121.48 284.55 C 119.27 287.43 116.09 289.44 112.82 290.91 C 107.70 291.45 102.06 292.13 97.35 289.53 C 96.70 288.71 96.27 287.75 95.78 286.85 C 98.25 283.88 99.87 280.18 103.48 278.36 C 105.77 274.80 109.54 271.64 109.60 267.11 C 110.47 262.07 112.22 257.10 111.33 251.90 C 108.52 245.19 106.40 237.77 107.93 230.46 C 103.66 229.02 99.24 228.11 94.85 227.13 C 95.72 231.71 96.91 236.45 96.07 241.12 C 94.01 246.89 91.62 252.66 91.38 258.87 C 93.07 263.14 95.83 267.41 95.37 272.16 L 96.98 271.09 C 94.92 273.01 92.99 275.10 90.65 276.67 C 87.78 277.92 84.52 277.76 81.57 278.73 C 78.92 279.89 76.97 282.23 74.25 283.25 C 70.72 284.34 66.88 284.26 63.33 283.32 C 61.27 282.71 59.07 280.59 60.01 278.29 C 61.82 274.56 65.64 272.51 68.31 269.50 C 70.68 266.78 72.72 263.78 75.31 261.26 C 78.65 258.76 78.21 253.99 77.97 250.32 C 78.74 251.03 79.53 251.73 80.33 252.42 C 80.10 254.85 80.08 257.32 79.47 259.70 C 75.11 264.37 70.56 268.96 67.05 274.35 C 65.95 275.81 63.69 276.39 63.57 278.50 C 62.85 279.70 63.25 280.86 64.50 281.40 C 66.96 281.52 69.44 281.52 71.89 281.31 C 75.80 280.73 78.46 277.34 82.12 276.16 C 86.27 275.37 90.90 275.61 94.16 272.46 C 93.88 269.75 92.99 267.17 91.89 264.70 C 89.35 267.32 88.23 271.54 84.56 272.89 C 85.31 269.17 88.98 267.06 89.49 263.29 C 89.94 263.19 90.83 263.00 91.28 262.90 C 90.66 261.17 89.17 259.47 89.72 257.52 C 90.61 253.15 90.69 248.51 92.75 244.46 C 96.47 238.44 93.36 231.28 92.55 224.87 C 91.43 221.07 93.76 217.57 94.32 213.89 C 94.95 211.06 94.39 207.69 96.67 205.48 C 96.58 210.09 96.53 214.79 95.04 219.20 C 94.36 221.01 94.35 222.95 94.31 224.86 C 98.80 225.93 103.27 227.15 107.84 227.92 C 106.89 224.23 105.09 220.76 104.83 216.91 C 104.49 214.25 104.51 211.25 102.51 209.21 C 100.92 207.36 102.44 204.42 100.81 202.58 C 99.81 202.37 97.81 201.95 96.81 201.74 L 95.89 199.35 C 97.12 199.65 99.60 200.25 100.83 200.55 C 101.04 196.07 101.51 191.45 99.52 187.26 C 103.32 188.21 107.23 189.66 111.20 188.70 C 115.67 187.61 119.91 185.68 124.02 183.63 C 123.28 179.34 122.43 175.08 121.33 170.87 C 120.84 169.12 121.11 167.16 122.37 165.79 C 122.32 159.99 122.68 153.89 120.67 148.37 C 118.83 146.48 116.48 144.91 116.27 142.01 C 114.63 144.44 112.02 145.76 109.17 146.16 C 100.67 148.52 91.84 146.43 83.41 144.84 C 82.81 144.19 81.62 142.90 81.02 142.25 C 80.54 142.91 80.06 143.57 79.60 144.25 L 81.15 144.75 C 80.36 146.59 79.53 148.43 78.63 150.22 C 79.36 152.47 80.53 154.58 81.03 156.90 C 80.19 159.43 79.12 162.04 79.99 164.73 C 79.08 170.82 76.29 176.68 77.06 182.94 C 82.69 186.25 89.55 187.31 95.91 185.82 C 95.43 186.97 95.09 188.42 93.55 188.43 C 87.94 188.94 81.97 188.20 76.99 185.41 C 77.25 190.67 77.86 195.91 79.13 201.02 C 82.21 199.06 82.96 204.80 86.20 204.60 C 91.23 206.05 90.03 199.46 91.39 196.55 C 93.19 199.86 91.73 204.53 88.91 206.83 C 85.25 208.72 81.65 206.05 79.81 202.96 C 77.98 208.23 76.91 214.45 80.72 219.15 C 80.05 223.12 80.54 227.20 79.72 231.15 C 78.89 236.87 78.35 242.95 80.55 248.45 C 79.94 248.91 78.74 249.83 78.14 250.29 C 77.48 246.97 77.60 243.59 77.77 240.23 C 70.19 244.36 63.28 249.63 55.85 253.99 C 53.92 254.29 51.91 252.90 50.39 251.75 C 50.31 249.53 49.93 247.03 50.88 245.00 C 54.12 242.25 57.95 240.31 61.61 238.18 C 61.55 231.54 61.90 224.89 61.41 218.26 C 56.61 218.26 51.94 216.87 47.35 215.62 C 44.88 214.26 45.63 210.97 46.84 208.97 C 55.13 205.63 63.13 201.63 71.45 198.40 C 72.81 197.68 74.08 196.80 75.38 196.00 C 75.41 190.05 74.55 184.13 74.69 178.20 C 75.74 173.46 76.77 168.72 78.02 164.03 C 77.65 163.57 76.92 162.66 76.55 162.21 C 77.27 160.26 77.90 158.27 78.51 156.28 C 77.89 153.70 75.95 150.89 77.12 148.22 C 80.64 142.34 79.61 134.32 76.06 128.71 C 75.54 129.32 74.50 130.53 73.97 131.13 C 72.27 130.89 70.06 131.66 68.89 130.02 C 67.96 127.82 67.97 125.33 66.91 123.18 C 65.49 120.23 63.57 117.49 62.68 114.29 C 60.82 108.35 62.96 101.97 61.10 96.02 C 60.31 94.13 60.88 92.21 61.90 90.55 C 59.74 90.69 57.58 90.52 55.44 90.20 C 53.85 90.58 52.14 90.75 50.75 91.69 C 51.29 97.57 48.50 103.43 45.15 108.13 C 41.95 113.02 35.34 114.02 30.06 112.95 C 22.41 108.03 21.11 97.75 21.18 89.38 C 16.65 89.36 12.13 89.30 7.60 89.21 C 7.70 86.85 8.26 84.57 9.19 82.40 C 13.30 82.78 17.49 82.51 21.53 83.48 C 23.04 75.18 25.73 64.96 34.59 61.80 C 37.92 61.51 41.95 60.85 44.60 63.44 C 50.39 68.34 51.60 76.59 51.62 83.76 C 54.03 83.83 56.45 84.11 58.86 83.81 C 60.84 82.90 61.93 80.59 64.16 80.13 C 68.02 79.51 71.98 79.41 75.86 79.84 C 76.93 81.42 77.91 83.05 78.62 84.83 C 76.66 84.47 75.24 83.14 73.72 81.99 C 70.36 81.39 66.86 81.66 63.48 82.13 C 62.72 83.43 61.94 84.71 61.15 86.00 C 62.03 87.90 63.59 89.77 63.03 92.00 C 62.41 95.42 64.25 98.64 64.02 102.04 C 63.70 105.86 63.95 109.71 64.56 113.49 C 65.35 119.32 71.18 123.19 70.58 129.40 C 72.23 129.56 73.67 128.85 75.07 128.11 C 73.72 124.29 72.45 120.13 74.01 116.16 C 75.43 112.68 72.64 109.50 71.85 106.21 C 70.61 103.36 71.69 100.27 72.91 97.62 C 70.97 94.33 72.38 90.26 74.56 87.47 C 74.24 86.95 73.60 85.92 73.28 85.41 C 76.04 84.67 78.90 84.99 81.71 84.68 C 83.59 83.88 85.27 82.69 87.01 81.63 C 85.67 80.91 84.35 80.19 83.03 79.45 C 79.85 79.76 76.77 78.11 76.11 74.81 C 75.17 67.84 73.90 60.17 77.56 53.74 M 22.96 86.96 C 22.71 94.63 23.18 103.40 28.77 109.26 C 31.14 111.99 35.02 110.74 38.10 110.46 C 43.08 109.66 45.54 104.56 47.53 100.48 C 49.26 97.20 48.64 92.81 51.78 90.33 C 47.74 90.62 43.70 90.36 39.65 90.31 C 38.35 88.10 38.97 85.70 39.99 83.52 C 43.65 83.63 47.32 83.67 50.98 83.84 C 49.48 76.62 48.87 67.79 41.89 63.50 C 39.54 63.52 37.19 63.49 34.84 63.40 C 26.43 67.99 23.62 78.06 22.96 86.96 M 166.06 93.11 C 166.29 100.29 167.24 108.27 172.21 113.84 C 175.34 117.63 180.71 115.91 184.80 115.18 C 191.70 111.14 193.27 102.49 194.93 95.33 C 190.85 95.32 186.73 95.22 182.73 94.34 C 182.89 92.12 183.25 89.93 183.96 87.82 C 187.95 87.72 191.91 88.20 195.83 88.88 C 193.97 81.96 193.78 74.01 188.44 68.61 C 185.94 65.69 181.85 66.87 178.52 66.38 C 169.05 71.55 166.40 83.17 166.06 93.11 M 9.70 87.23 C 13.54 87.48 17.40 87.46 21.25 87.63 C 21.34 86.88 21.51 85.40 21.59 84.66 C 18.09 84.89 14.55 84.34 11.06 84.85 C 10.72 85.45 10.04 86.64 9.70 87.23 M 39.59 87.95 C 46.40 88.87 53.31 88.61 60.17 88.75 C 59.87 88.10 59.28 86.81 58.98 86.16 C 53.11 85.63 47.18 85.71 41.28 85.50 C 40.86 86.11 40.01 87.34 39.59 87.95 M 124.67 86.11 C 125.42 87.34 126.17 88.58 126.91 89.82 C 128.92 89.45 130.95 89.21 133.00 89.11 C 133.65 88.10 134.30 87.09 134.95 86.07 C 131.52 86.09 128.09 86.11 124.67 86.11 M 153.51 88.28 C 153.92 89.12 154.74 90.81 155.15 91.66 C 158.31 91.95 161.48 91.33 164.65 91.73 C 164.77 90.54 164.90 89.35 165.03 88.16 C 161.31 89.58 157.34 88.49 153.51 88.28 M 184.88 90.09 C 184.63 90.61 184.14 91.64 183.89 92.16 L 184.75 92.69 C 191.83 93.19 198.91 93.81 206.01 94.10 C 206.10 93.37 206.28 91.90 206.37 91.17 C 199.19 91.13 192.05 90.21 184.88 90.09 M 127.07 91.24 C 128.21 94.35 128.98 97.57 129.22 100.88 C 131.53 103.20 133.67 105.81 134.00 109.22 C 137.44 106.39 139.11 102.07 139.08 97.69 C 137.34 96.86 135.26 96.49 133.88 95.08 C 133.27 93.74 133.23 92.23 132.94 90.82 C 130.99 90.95 129.03 91.10 127.07 91.24 M 208.89 93.71 C 208.88 93.14 208.86 92.02 208.85 91.46 C 207.31 90.97 207.36 94.32 208.89 93.71 M 103.41 191.18 C 101.37 198.14 102.59 206.75 108.64 211.38 C 105.58 216.47 108.51 221.92 109.54 227.10 C 110.57 231.65 108.02 236.25 109.42 240.75 C 110.43 244.63 111.70 248.45 112.47 252.38 C 113.05 256.71 112.43 261.11 111.21 265.27 C 112.55 264.14 113.87 262.99 115.29 261.95 C 116.61 256.73 115.51 251.37 115.31 246.09 C 115.14 240.96 113.39 236.01 113.40 230.86 C 116.42 236.00 116.59 242.19 116.97 247.99 C 117.25 252.81 118.50 257.95 116.21 262.49 C 116.29 262.75 116.45 263.28 116.53 263.54 C 114.35 264.38 113.04 266.12 113.09 268.50 C 108.73 272.47 106.78 278.57 101.63 281.69 C 99.73 283.19 98.53 285.63 98.12 287.99 C 102.33 290.68 107.37 289.45 112.04 289.49 C 115.08 287.30 119.38 286.08 120.65 282.16 C 123.20 280.42 126.19 279.16 128.14 276.69 C 128.19 273.44 126.37 270.47 126.31 267.20 C 125.47 270.44 124.06 273.52 120.99 275.22 C 121.41 272.60 123.34 270.61 124.62 268.39 C 124.69 262.22 123.08 256.03 124.38 249.90 C 125.22 244.66 126.04 239.24 124.83 233.99 C 123.97 229.20 121.05 224.93 121.04 219.97 C 121.19 217.62 121.57 215.24 121.05 212.89 C 122.28 204.33 123.11 195.72 122.49 187.06 C 116.55 189.94 110.09 192.00 103.41 191.18 M 71.16 200.78 C 63.70 203.68 56.48 207.14 49.14 210.32 C 47.82 210.82 47.02 212.40 48.29 213.47 C 53.04 214.90 57.88 216.27 62.84 216.76 C 68.12 219.13 73.96 219.80 79.54 221.19 C 78.22 218.21 77.05 215.17 75.87 212.13 C 76.13 210.11 76.33 208.08 76.40 206.05 C 76.75 205.55 77.44 204.56 77.78 204.07 C 77.14 202.03 76.48 199.99 75.72 198.00 C 74.27 199.03 72.87 200.20 71.16 200.78 M 123.70 207.01 C 122.25 215.61 123.24 224.62 126.83 232.60 C 132.49 234.38 138.35 235.26 144.14 236.45 C 150.28 238.38 155.27 233.09 160.15 230.23 C 164.87 226.43 171.54 224.01 173.72 217.91 C 168.68 215.25 162.85 215.21 157.44 213.73 C 146.17 211.61 135.04 208.74 123.70 207.01 M 62.93 219.32 C 63.73 225.64 63.24 232.04 63.29 238.40 C 63.86 238.57 65.00 238.91 65.57 239.08 C 61.12 239.48 57.83 242.97 53.95 244.88 C 51.00 246.06 50.93 251.06 54.25 251.79 C 57.26 251.05 59.51 248.71 62.12 247.18 C 67.21 244.14 72.33 241.10 76.93 237.34 C 77.03 235.19 77.18 233.05 77.35 230.91 C 74.31 232.68 70.10 233.83 68.95 237.54 C 68.64 237.41 68.03 237.15 67.72 237.01 C 67.82 231.48 67.20 225.88 68.23 220.41 C 66.45 220.13 64.69 219.74 62.93 219.32 M 68.64 221.65 C 70.06 225.61 68.63 229.97 68.81 234.10 C 71.42 231.36 74.84 229.67 78.30 228.27 C 78.77 226.66 79.26 225.06 79.76 223.46 C 76.58 222.64 73.38 221.90 70.26 220.87 C 69.72 221.12 69.17 221.38 68.64 221.65 M 155.50 236.39 C 155.06 244.23 155.78 252.14 155.02 259.97 C 152.19 263.80 147.66 265.92 144.51 269.45 C 142.86 271.45 143.73 275.71 146.95 274.63 C 155.41 267.78 163.62 260.56 171.80 253.35 C 171.83 252.30 171.86 251.25 171.88 250.20 C 170.67 249.85 169.52 248.79 168.19 249.14 C 165.84 250.92 163.90 253.18 161.67 255.11 C 161.43 255.82 160.97 257.23 160.73 257.94 C 160.50 257.45 160.02 256.47 159.79 255.98 C 159.38 248.21 159.70 240.42 160.74 232.71 C 158.80 233.57 156.68 234.52 155.50 236.39 Z" />
<path fill="#333333" opacity="1.00" d=" M 33.72 66.80 C 34.35 65.52 35.71 65.19 36.98 64.97 C 33.39 70.48 29.96 76.38 29.40 83.10 C 29.02 89.09 28.65 95.31 30.56 101.11 C 31.66 104.28 34.14 106.78 35.04 110.05 C 31.03 108.34 29.54 103.78 28.49 99.90 C 25.96 88.81 27.17 76.33 33.72 66.80 Z" />
<path fill="#333333" opacity="1.00" d=" M 176.77 70.92 C 177.49 69.14 179.22 68.37 181.01 68.07 C 178.53 71.80 175.74 75.43 174.59 79.84 C 172.35 87.27 172.21 95.31 173.67 102.89 C 174.47 107.41 177.08 111.20 179.13 115.19 C 176.70 114.30 174.94 112.27 174.14 109.83 C 169.21 97.38 170.03 82.56 176.77 70.92 Z" />
<path fill="#333333" opacity="1.00" d=" M 91.36 89.40 C 96.17 87.80 101.31 87.71 106.33 87.89 C 106.04 88.40 105.46 89.41 105.17 89.92 C 100.98 89.04 96.76 90.00 92.59 90.45 C 91.26 91.59 89.85 92.63 88.30 93.43 C 89.21 92.02 90.05 90.49 91.36 89.40 Z" />
<path fill="#333333" opacity="1.00" d=" M 80.54 89.11 C 83.02 88.10 87.35 87.71 87.48 91.36 C 85.05 91.37 83.18 88.92 80.54 89.11 Z" />
<path fill="#333333" opacity="1.00" d=" M 105.77 99.76 C 105.94 97.95 107.31 96.51 109.08 96.17 C 110.76 96.33 111.68 97.89 112.82 98.92 C 110.37 98.16 107.99 98.64 105.77 99.76 Z" />
<path fill="#333333" opacity="1.00" d=" M 104.12 109.09 C 106.10 106.46 107.31 103.23 109.99 101.17 C 109.82 104.97 107.36 108.14 105.05 110.94 C 100.21 113.26 94.52 113.91 89.32 112.59 C 86.75 111.97 85.63 109.45 84.45 107.38 C 87.04 106.68 88.07 109.25 89.32 110.96 C 94.26 111.36 99.79 111.99 104.12 109.09 Z" />
<path fill="#333333" opacity="1.00" d=" M 77.64 110.20 C 79.98 109.92 83.28 107.74 85.05 110.04 C 83.01 111.58 79.75 111.71 77.64 110.20 Z" />
<path fill="#333333" opacity="1.00" d=" M 80.30 116.28 C 81.19 115.58 82.09 114.87 82.99 114.17 C 83.73 114.64 84.47 115.11 85.22 115.57 C 82.70 120.65 84.89 126.67 87.71 131.13 C 89.62 133.20 89.61 136.38 88.33 138.76 C 87.81 136.94 87.57 135.05 87.01 133.25 C 83.85 128.21 81.90 122.16 82.79 116.18 C 80.64 117.15 80.35 120.72 77.49 121.13 C 78.18 120.27 78.89 119.44 79.62 118.62 C 79.79 118.04 80.13 116.87 80.30 116.28 Z" />
<path fill="#333333" opacity="1.00" d=" M 86.86 114.87 C 89.29 115.25 91.16 116.75 92.49 118.75 C 94.47 119.81 97.27 120.24 98.02 122.69 C 99.13 125.35 100.36 127.97 101.53 130.61 C 98.12 129.01 96.84 125.45 96.40 121.97 C 92.34 120.92 89.57 117.85 86.86 114.87 Z" />
<path fill="#333333" opacity="1.00" d=" M 104.44 114.65 C 106.22 116.40 108.29 117.85 110.94 117.49 C 110.93 117.84 110.91 118.55 110.89 118.90 C 109.47 118.83 108.05 118.77 106.62 118.71 C 105.08 120.57 102.81 121.49 100.57 122.20 C 102.02 120.65 103.79 119.47 105.57 118.32 C 105.18 117.10 104.81 115.87 104.44 114.65 Z" />
<path fill="#333333" opacity="1.00" d=" M 106.61 122.77 C 106.64 122.21 106.71 121.09 106.74 120.53 C 107.72 121.48 108.57 122.60 109.73 123.35 C 110.97 122.98 112.20 122.60 113.43 122.20 C 112.37 124.65 110.17 125.65 107.63 124.66 C 106.03 125.45 104.42 126.23 102.77 126.90 C 103.97 125.46 105.30 124.12 106.61 122.77 Z" />
<path fill="#333333" opacity="1.00" d=" M 115.87 190.74 C 118.48 193.94 117.12 198.62 117.42 202.43 C 116.77 202.45 116.12 202.44 115.47 202.40 L 117.01 201.70 C 115.54 198.22 115.66 194.42 115.87 190.74 Z" />
<path fill="#333333" opacity="1.00" d=" M 104.90 192.10 C 106.85 195.65 108.25 199.45 109.92 203.13 C 105.94 201.26 104.65 196.14 104.90 192.10 Z" />
<path fill="#333333" opacity="1.00" d=" M 116.08 211.51 C 117.76 210.99 118.30 211.52 117.70 213.11 C 116.01 213.61 115.47 213.08 116.08 211.51 Z" />
<path fill="#333333" opacity="1.00" d=" M 84.60 216.68 C 86.01 215.33 87.53 214.09 89.23 213.11 C 88.58 215.35 86.98 217.07 85.50 218.80 C 85.46 219.82 85.37 221.85 85.33 222.86 C 84.48 220.91 84.65 218.75 84.60 216.68 Z" />
<path fill="#333333" opacity="1.00" d=" M 114.01 219.79 C 114.83 218.47 115.39 216.83 117.05 216.33 C 116.16 218.97 116.87 221.60 117.55 224.18 C 115.19 224.08 115.04 221.36 114.01 219.79 Z" />
<path fill="#333333" opacity="1.00" d=" M 119.04 238.00 C 118.74 234.82 116.89 231.76 117.76 228.54 C 120.56 235.43 122.47 243.06 121.53 250.54 C 119.85 246.58 120.04 242.14 119.04 238.00 Z" />
<path fill="#333333" opacity="1.00" d=" M 155.91 259.20 C 159.26 259.27 154.44 262.18 155.91 259.20 Z" />
<path fill="#333333" opacity="1.00" d=" M 74.53 274.43 C 75.99 270.29 78.97 266.65 82.71 264.35 C 80.14 267.81 78.04 271.80 74.53 274.43 Z" />
<path fill="#333333" opacity="1.00" d=" M 113.29 282.16 C 114.43 277.02 115.39 271.38 119.44 267.63 C 117.81 271.37 116.32 275.17 115.24 279.11 C 115.00 280.35 114.23 281.35 113.29 282.16 Z" />
</g>
</svg>
