<?xml version="1.0" encoding="UTF-8" ?>
<!DOCTYPE svg PUBLIC "-//W3C//DTD SVG 1.1//EN" "http://www.w3.org/Graphics/SVG/1.1/DTD/svg11.dtd">
<svg width="222pt" height="275pt" viewBox="0 0 222 275" version="1.1" xmlns="http://www.w3.org/2000/svg">
<g id="#ffffffff">
<path fill="#FFFFFF" opacity="1.00" d=" M 0.00 0.00 L 222.00 0.00 L 222.00 275.00 L 0.00 275.00 L 0.00 96.49 C 21.47 93.32 42.95 90.22 64.42 87.03 C 64.92 87.59 65.91 88.72 66.41 89.29 C 66.23 88.09 66.02 86.90 65.79 85.71 C 67.24 82.24 67.24 77.91 70.30 75.32 C 73.46 72.15 77.86 70.88 81.81 69.03 C 76.63 67.55 71.78 70.89 68.17 74.25 C 65.15 76.93 64.87 81.21 64.37 84.95 C 42.90 88.03 21.42 91.07 0.00 94.41 L 0.00 0.00 M 116.83 15.77 C 112.37 17.73 109.48 22.29 108.70 26.99 C 108.89 35.50 113.89 42.73 118.48 49.54 C 116.88 52.42 116.16 55.57 116.26 58.86 C 114.48 62.65 111.92 66.17 111.31 70.42 C 109.54 71.71 107.88 73.20 105.87 74.11 C 103.08 74.87 100.15 74.88 97.30 75.32 C 95.00 73.08 92.95 70.59 90.63 68.37 C 87.60 66.28 83.77 67.45 80.42 67.74 C 81.18 68.14 82.69 68.95 83.44 69.35 C 79.56 72.83 73.47 72.89 70.36 77.32 C 67.66 80.52 68.62 85.25 70.28 88.72 L 70.79 89.16 C 71.22 89.45 72.06 90.02 72.48 90.31 C 75.18 91.82 78.68 92.32 81.40 90.55 C 83.92 88.90 86.75 87.78 89.77 87.46 C 86.18 91.93 80.48 94.07 74.89 94.32 C 71.52 93.42 68.61 91.33 65.30 90.21 C 68.73 93.15 73.01 96.80 77.84 95.53 C 82.80 94.28 88.31 93.03 91.40 88.53 C 93.90 88.29 96.35 87.12 98.88 87.67 C 106.26 88.66 114.34 91.34 121.27 87.19 C 122.39 89.54 123.33 92.05 125.10 94.00 C 129.08 97.73 129.97 103.46 133.40 107.60 C 132.74 110.16 131.61 112.53 130.53 114.92 C 128.83 118.18 131.12 121.63 132.26 124.69 C 130.05 133.27 126.18 141.28 123.76 149.80 C 123.31 151.82 122.67 154.21 123.94 156.06 C 130.50 163.27 141.46 163.11 150.35 161.41 C 149.60 165.01 148.51 168.52 146.91 171.84 C 145.02 177.14 143.72 182.64 142.13 188.05 C 140.99 197.00 146.73 205.07 146.62 213.98 C 146.91 219.05 145.58 223.99 145.50 229.04 C 144.66 238.96 146.85 249.00 150.75 258.09 C 148.73 259.96 146.11 261.33 143.30 261.11 C 138.13 260.66 133.23 258.08 127.94 258.91 C 123.69 259.60 119.42 258.76 115.15 258.79 C 114.58 258.31 113.46 257.36 112.90 256.89 C 113.71 252.61 117.73 249.31 121.92 248.54 C 126.18 247.14 130.29 244.49 132.26 240.31 C 135.04 235.67 134.16 229.99 133.43 224.92 C 132.44 213.87 128.88 203.08 129.66 191.88 C 130.15 188.09 128.12 184.78 127.22 181.25 C 128.13 176.34 126.95 171.51 125.69 166.78 C 124.69 163.95 126.11 160.65 124.11 158.16 C 121.56 164.80 125.66 171.42 124.50 178.11 C 123.88 182.21 126.83 185.80 126.76 189.87 C 126.78 197.59 126.78 205.46 128.96 212.93 C 130.13 217.22 130.03 221.74 131.19 226.04 C 132.49 231.37 132.36 237.21 128.77 241.65 C 126.59 243.21 124.65 245.23 121.99 245.97 C 117.79 247.28 114.03 249.98 111.31 253.41 C 110.27 255.93 112.13 258.33 114.15 259.63 C 121.68 263.34 130.22 260.81 138.07 262.96 C 143.02 264.24 149.34 263.86 152.22 259.00 C 152.24 256.99 152.02 255.00 151.80 253.01 C 155.26 253.34 160.42 255.61 162.56 251.69 C 165.34 242.74 159.49 233.99 160.07 224.95 C 159.45 219.85 161.95 215.05 161.28 209.97 C 161.39 203.42 157.81 197.47 157.67 190.94 C 157.83 187.68 158.38 184.44 158.28 181.17 C 160.57 173.55 164.02 166.12 164.07 158.02 C 164.99 157.63 165.91 157.25 166.83 156.86 C 169.61 150.13 168.00 141.69 173.14 136.00 C 173.51 132.05 174.01 128.04 173.23 124.09 C 172.87 119.23 169.63 115.36 168.23 110.83 C 167.00 109.81 165.64 108.92 164.63 107.68 C 163.67 105.83 164.17 102.43 161.38 102.36 C 162.80 100.01 162.70 97.32 162.24 94.70 C 160.19 88.97 161.96 82.81 161.35 76.89 C 163.93 80.39 168.61 80.53 171.82 83.19 C 174.95 85.98 179.27 84.98 183.07 85.46 L 182.20 84.40 C 182.95 84.30 184.45 84.09 185.20 83.99 C 185.57 84.45 186.30 85.35 186.67 85.81 C 189.04 84.90 191.81 84.52 193.55 82.48 C 196.91 79.75 196.58 75.03 196.97 71.15 C 194.48 67.78 192.62 64.01 190.52 60.39 C 187.73 59.04 184.39 59.11 181.53 60.22 C 179.39 61.03 176.76 61.30 175.40 63.37 C 174.17 64.74 173.17 66.82 170.99 66.53 C 167.36 66.92 165.67 63.29 164.21 60.67 C 161.92 54.99 161.42 48.35 157.47 43.47 C 152.89 40.69 146.17 40.81 143.81 35.10 C 139.44 30.67 143.36 23.53 138.86 19.26 C 135.96 16.27 132.97 12.74 128.64 11.99 C 124.28 10.91 120.58 14.09 116.83 15.77 Z" />
<path fill="#FFFFFF" opacity="1.00" d=" M 119.06 17.02 C 121.90 15.69 124.76 13.47 128.10 14.18 C 132.37 14.59 134.77 18.69 137.69 21.34 C 140.47 23.81 139.07 27.86 139.85 31.07 C 140.47 34.94 143.18 37.91 145.16 41.14 C 149.49 42.12 154.41 42.78 157.04 46.82 C 156.34 48.55 155.66 50.29 154.89 51.99 C 155.32 55.89 155.45 59.87 156.54 63.67 C 157.24 59.71 156.59 55.67 157.14 51.71 C 157.60 51.43 158.52 50.87 158.98 50.59 C 159.66 54.20 158.64 57.88 159.48 61.46 C 161.04 70.28 159.59 79.19 158.96 88.01 C 158.41 92.96 161.92 97.88 159.51 102.64 C 157.59 107.08 152.31 107.59 148.38 109.26 C 147.69 108.96 147.01 108.67 146.32 108.38 C 146.31 108.86 146.27 109.80 146.26 110.27 C 143.02 109.58 137.38 112.19 136.15 107.73 C 134.27 103.73 131.84 100.01 130.18 95.90 C 126.69 93.62 125.34 89.56 123.30 86.14 C 126.44 83.90 128.77 80.82 130.36 77.32 C 132.53 78.49 134.93 79.06 137.25 79.86 C 138.88 82.59 140.43 85.41 142.01 88.19 C 142.71 91.22 143.46 94.24 144.41 97.21 C 146.30 90.93 142.79 84.76 141.14 78.82 C 138.24 77.42 134.97 76.95 132.18 75.31 C 132.59 73.88 134.09 73.16 135.08 72.16 C 135.79 70.50 136.44 68.82 137.14 67.16 C 137.05 72.58 145.18 75.36 148.20 71.74 C 144.78 70.93 141.63 69.47 138.71 67.53 C 139.62 67.50 141.44 67.45 142.35 67.42 L 142.23 65.47 C 139.63 65.58 137.08 66.09 134.49 66.22 C 134.17 67.41 133.87 68.61 133.58 69.81 C 133.24 70.22 132.56 71.05 132.23 71.47 C 130.72 74.98 127.67 77.49 125.80 80.79 C 121.18 84.92 115.00 89.18 108.46 87.28 C 103.33 86.70 98.07 85.11 92.97 86.65 C 89.82 86.04 86.68 86.37 83.67 87.44 C 81.31 83.55 80.85 78.86 78.32 75.05 C 80.13 73.85 82.21 73.21 84.30 72.67 C 84.36 71.23 84.39 69.79 84.43 68.35 C 89.42 68.52 91.15 73.80 94.74 76.33 C 98.03 77.14 101.50 76.69 104.79 76.14 C 108.97 75.65 111.91 72.20 115.91 71.20 C 118.17 70.66 120.04 69.25 121.45 67.44 C 118.55 68.16 115.65 68.91 112.71 69.45 C 114.56 66.65 116.54 63.93 117.99 60.90 C 118.67 61.04 120.04 61.31 120.72 61.44 C 119.99 60.32 119.26 59.22 118.50 58.12 C 118.66 55.22 119.10 52.24 120.75 49.78 C 122.18 49.05 123.80 48.83 125.33 48.38 C 125.80 49.56 126.29 50.74 126.79 51.91 L 123.84 51.92 C 126.79 53.44 130.53 52.49 133.11 54.85 C 135.31 56.78 138.40 55.73 140.99 55.54 C 136.81 54.67 132.97 52.89 128.86 51.86 C 128.38 51.12 127.91 50.37 127.45 49.62 C 129.74 46.52 133.13 44.52 135.67 41.66 C 136.03 38.82 135.02 35.82 133.86 33.21 C 133.68 35.77 133.65 38.33 133.48 40.89 C 130.98 42.74 128.52 44.67 126.32 46.89 C 124.11 46.74 121.95 47.29 119.81 47.76 C 115.78 42.23 112.65 35.89 111.42 29.11 C 110.81 26.56 111.66 23.95 112.79 21.67 C 114.03 19.22 116.88 18.41 119.06 17.02 M 127.35 33.88 C 126.51 37.02 127.10 40.37 125.71 43.40 C 127.05 42.44 128.91 41.76 129.26 39.93 C 129.10 35.28 130.60 29.47 125.81 26.58 C 123.71 29.27 128.08 31.19 127.35 33.88 M 142.06 41.47 C 142.28 42.02 142.70 43.12 142.92 43.67 C 146.65 45.54 148.41 49.41 149.90 53.08 C 152.48 63.97 153.47 75.16 155.38 86.17 C 156.26 78.43 155.66 70.67 154.00 63.07 C 152.66 57.87 153.12 51.90 149.66 47.48 C 147.26 45.32 144.76 43.26 142.06 41.47 M 141.69 54.21 C 141.68 54.76 141.66 55.87 141.65 56.43 C 142.08 56.66 142.94 57.12 143.37 57.35 C 144.51 59.21 145.85 60.93 147.18 62.66 C 147.74 64.96 148.75 67.10 149.89 69.17 C 151.08 65.11 148.12 61.46 147.06 57.71 C 146.54 55.17 143.71 54.92 141.69 54.21 M 126.64 65.66 C 124.83 67.07 124.60 69.50 124.10 71.58 C 126.50 71.10 126.80 68.52 128.13 66.91 C 129.58 66.31 131.09 65.89 132.56 65.36 C 130.66 64.93 128.33 64.32 126.64 65.66 M 121.05 75.76 C 116.90 75.88 112.76 76.43 108.75 77.49 C 113.54 77.40 118.33 77.62 123.12 77.67 C 125.22 77.88 125.70 75.43 125.48 73.81 L 126.23 73.21 C 124.40 73.89 123.16 75.95 121.05 75.76 Z" />
<path fill="#FFFFFF" opacity="1.00" d=" M 160.01 55.68 C 161.90 59.50 163.60 63.44 165.98 66.99 C 167.01 68.78 169.37 68.07 171.07 68.44 C 174.55 68.33 177.45 71.24 180.95 70.61 C 183.17 70.50 184.90 69.05 186.47 67.65 C 186.39 66.06 186.40 64.48 186.50 62.89 C 182.18 62.02 178.99 64.86 175.78 67.14 C 176.91 62.29 182.94 61.75 187.02 61.06 L 187.63 61.34 C 187.78 62.42 187.78 63.50 187.63 64.60 L 189.28 64.58 C 190.44 67.34 192.45 69.54 194.09 71.98 C 194.78 76.41 192.57 82.27 187.69 83.11 C 188.83 81.19 190.13 79.37 191.31 77.46 C 190.44 75.59 189.73 73.65 188.90 71.77 C 187.81 75.20 188.18 79.83 184.56 81.82 C 181.39 83.57 177.18 83.77 174.05 81.78 C 169.99 78.93 164.73 78.22 161.44 74.22 C 161.76 67.99 160.99 61.82 160.01 55.68 Z" />
<path fill="#FFFFFF" opacity="1.00" d=" M 178.76 67.66 C 179.97 66.67 181.20 65.71 182.46 64.77 C 182.58 65.56 182.82 67.15 182.94 67.94 C 181.55 67.86 180.15 67.77 178.76 67.66 Z" />
<path fill="#FFFFFF" opacity="1.00" d=" M 69.83 81.01 C 71.97 78.54 74.22 75.24 77.90 75.42 C 77.49 75.86 76.65 76.73 76.23 77.16 C 78.45 80.92 79.14 85.37 81.65 88.98 C 78.83 90.73 75.75 90.01 72.70 89.50 C 71.09 86.93 71.00 83.77 69.83 81.01 Z" />
<path fill="#FFFFFF" opacity="1.00" d=" M 157.15 108.14 C 158.67 106.83 159.86 105.19 161.21 103.71 C 161.68 105.49 162.08 107.29 162.39 109.11 C 169.23 113.98 171.87 122.90 171.46 130.98 C 171.40 134.71 168.54 137.45 167.40 140.82 C 166.69 144.82 166.14 148.85 165.51 152.86 C 164.95 153.66 164.41 154.46 163.86 155.26 C 161.09 155.53 158.33 155.25 155.64 154.61 C 155.98 153.08 156.37 151.56 156.78 150.04 C 155.17 147.03 157.75 144.30 158.82 141.62 C 161.76 140.84 163.49 138.30 165.15 135.97 C 164.66 135.30 164.17 134.64 163.68 133.97 C 162.18 135.96 160.98 138.63 158.15 138.83 C 156.23 141.54 154.06 144.43 153.94 147.89 C 153.51 151.38 153.74 154.96 152.84 158.39 C 148.26 159.21 143.66 159.99 139.04 160.51 C 134.50 160.10 130.18 158.02 126.61 155.24 C 124.62 152.13 126.28 148.14 128.12 145.34 C 129.70 141.23 129.36 135.43 133.87 133.13 C 132.48 130.10 133.65 127.47 135.62 125.08 C 134.61 122.86 133.45 120.73 132.32 118.57 C 132.75 116.81 133.30 115.07 134.20 113.49 C 134.32 112.86 134.56 111.61 134.67 110.98 C 138.94 111.31 143.15 112.15 147.39 112.69 C 150.01 109.95 154.17 110.27 157.15 108.14 M 147.36 113.54 C 145.00 113.82 141.83 112.59 140.65 115.41 C 141.78 115.25 142.90 115.09 144.03 114.90 C 145.31 115.34 146.57 115.84 147.90 116.13 C 152.49 114.38 157.34 113.25 161.50 110.52 C 156.95 112.18 152.11 112.77 147.36 113.54 M 139.46 125.92 C 138.88 122.99 139.29 120.07 139.98 117.21 C 137.03 119.24 137.32 123.42 139.46 125.92 Z" />
<path fill="#FFFFFF" opacity="1.00" d=" M 155.14 155.74 C 157.21 156.49 159.29 157.21 161.42 157.76 C 160.53 162.20 160.93 166.89 159.08 171.12 C 156.63 177.44 155.57 184.21 155.53 190.98 C 156.04 199.75 160.19 208.24 158.73 217.11 C 158.18 221.70 157.16 226.34 157.99 230.96 C 158.48 236.04 160.53 240.89 160.32 246.05 C 160.27 247.96 160.59 250.86 158.14 251.40 C 155.78 251.45 153.46 250.93 151.13 250.59 C 150.42 248.09 149.70 245.59 148.90 243.11 C 147.31 233.14 149.36 223.06 149.26 213.03 C 148.86 209.37 148.36 205.72 147.60 202.12 C 146.21 197.28 143.31 192.27 145.08 187.14 C 146.31 184.08 145.23 180.54 147.00 177.67 C 149.67 172.36 151.91 166.75 152.22 160.74 C 153.76 159.98 155.29 159.20 156.82 158.42 C 156.40 157.75 155.56 156.41 155.14 155.74 Z" />
</g>
<g id="#181917ff">
<path fill="#333333" opacity="1.00" d=" M 116.83 15.77 C 120.58 14.09 124.28 10.91 128.64 11.99 C 132.97 12.74 135.96 16.27 138.86 19.26 C 143.36 23.53 139.44 30.67 143.81 35.10 C 146.17 40.81 152.89 40.69 157.47 43.47 C 161.42 48.35 161.92 54.99 164.21 60.67 C 165.67 63.29 167.36 66.92 170.99 66.53 C 173.17 66.82 174.17 64.74 175.40 63.37 C 176.76 61.30 179.39 61.03 181.53 60.22 C 184.39 59.11 187.73 59.04 190.52 60.39 C 192.62 64.01 194.48 67.78 196.97 71.15 C 196.58 75.03 196.91 79.75 193.55 82.48 C 191.81 84.52 189.04 84.90 186.67 85.81 C 186.30 85.35 185.57 84.45 185.20 83.99 C 184.45 84.09 182.95 84.30 182.20 84.40 L 183.07 85.46 C 179.27 84.98 174.95 85.98 171.82 83.19 C 168.61 80.53 163.93 80.39 161.35 76.89 C 161.96 82.81 160.19 88.97 162.24 94.70 C 162.70 97.32 162.80 100.01 161.38 102.36 C 164.17 102.43 163.67 105.83 164.63 107.68 C 165.64 108.92 167.00 109.81 168.23 110.83 C 169.63 115.36 172.87 119.23 173.23 124.09 C 174.01 128.04 173.51 132.05 173.14 136.00 C 168.00 141.69 169.61 150.13 166.83 156.86 C 165.91 157.25 164.99 157.63 164.07 158.02 C 164.02 166.12 160.57 173.55 158.28 181.17 C 158.38 184.44 157.83 187.68 157.67 190.94 C 157.81 197.47 161.39 203.42 161.28 209.97 C 161.95 215.05 159.45 219.85 160.07 224.95 C 159.49 233.99 165.34 242.74 162.56 251.69 C 160.42 255.61 155.26 253.34 151.80 253.01 C 152.02 255.00 152.24 256.99 152.22 259.00 C 149.34 263.86 143.02 264.24 138.07 262.96 C 130.22 260.81 121.68 263.34 114.15 259.63 C 112.13 258.33 110.27 255.93 111.31 253.41 C 114.03 249.98 117.79 247.28 121.99 245.97 C 124.65 245.23 126.59 243.21 128.77 241.65 C 132.36 237.21 132.49 231.37 131.19 226.04 C 130.03 221.74 130.13 217.22 128.96 212.93 C 126.78 205.46 126.78 197.59 126.76 189.87 C 126.83 185.80 123.88 182.21 124.50 178.11 C 125.66 171.42 121.56 164.80 124.11 158.16 C 126.11 160.65 124.69 163.95 125.69 166.78 C 126.95 171.51 128.13 176.34 127.22 181.25 C 128.12 184.78 130.15 188.09 129.66 191.88 C 128.88 203.08 132.44 213.87 133.43 224.92 C 134.16 229.99 135.04 235.67 132.26 240.31 C 130.29 244.49 126.18 247.14 121.92 248.54 C 117.73 249.31 113.71 252.61 112.90 256.89 C 113.46 257.36 114.58 258.31 115.15 258.79 C 119.42 258.76 123.69 259.60 127.94 258.91 C 133.23 258.08 138.13 260.66 143.30 261.11 C 146.11 261.33 148.73 259.96 150.75 258.09 C 146.85 249.00 144.66 238.96 145.50 229.04 C 145.58 223.99 146.91 219.05 146.62 213.98 C 146.73 205.07 140.99 197.00 142.13 188.05 C 143.72 182.64 145.02 177.14 146.91 171.84 C 148.51 168.52 149.60 165.01 150.35 161.41 C 141.46 163.11 130.50 163.27 123.94 156.06 C 122.67 154.21 123.31 151.82 123.76 149.80 C 126.18 141.28 130.05 133.27 132.26 124.69 C 131.12 121.63 128.83 118.18 130.53 114.92 C 131.61 112.53 132.74 110.16 133.40 107.60 C 129.97 103.46 129.08 97.73 125.10 94.00 C 123.33 92.05 122.39 89.54 121.27 87.19 C 114.34 91.34 106.26 88.66 98.88 87.67 C 96.35 87.12 93.90 88.29 91.40 88.53 C 88.31 93.03 82.80 94.28 77.84 95.53 C 73.01 96.80 68.73 93.15 65.30 90.21 C 68.61 91.33 71.52 93.42 74.89 94.32 C 80.48 94.07 86.18 91.93 89.77 87.46 C 86.75 87.78 83.92 88.90 81.40 90.55 C 78.68 92.32 75.18 91.82 72.48 90.31 C 72.06 90.02 71.22 89.45 70.79 89.16 L 70.28 88.72 C 68.62 85.25 67.66 80.52 70.36 77.32 C 73.47 72.89 79.56 72.83 83.44 69.35 C 82.69 68.95 81.18 68.14 80.42 67.74 C 83.77 67.45 87.60 66.28 90.63 68.37 C 92.95 70.59 95.00 73.08 97.30 75.32 C 100.15 74.88 103.08 74.87 105.87 74.11 C 107.88 73.20 109.54 71.71 111.31 70.42 C 111.92 66.17 114.48 62.65 116.26 58.86 C 116.16 55.57 116.88 52.42 118.48 49.54 C 113.89 42.73 108.89 35.50 108.70 26.99 C 109.48 22.29 112.37 17.73 116.83 15.77 M 119.06 17.02 C 116.88 18.41 114.03 19.22 112.79 21.67 C 111.66 23.95 110.81 26.56 111.42 29.11 C 112.65 35.89 115.78 42.23 119.81 47.76 C 121.95 47.29 124.11 46.74 126.32 46.89 C 128.52 44.67 130.98 42.74 133.48 40.89 C 133.65 38.33 133.68 35.77 133.86 33.21 C 135.02 35.82 136.03 38.82 135.67 41.66 C 133.13 44.52 129.74 46.52 127.45 49.62 C 127.91 50.37 128.38 51.12 128.86 51.86 C 132.97 52.89 136.81 54.67 140.99 55.54 C 138.40 55.73 135.31 56.78 133.11 54.85 C 130.53 52.49 126.79 53.44 123.84 51.92 L 126.79 51.91 C 126.29 50.74 125.80 49.56 125.33 48.38 C 123.80 48.83 122.18 49.05 120.75 49.78 C 119.10 52.24 118.66 55.22 118.50 58.12 C 119.26 59.22 119.99 60.32 120.72 61.44 C 120.04 61.31 118.67 61.04 117.99 60.90 C 116.54 63.93 114.56 66.65 112.71 69.45 C 115.65 68.91 118.55 68.16 121.45 67.44 C 120.04 69.25 118.17 70.66 115.91 71.20 C 111.91 72.20 108.97 75.65 104.79 76.14 C 101.50 76.69 98.03 77.14 94.74 76.33 C 91.15 73.80 89.42 68.52 84.43 68.35 C 84.39 69.79 84.36 71.23 84.30 72.67 C 82.21 73.21 80.13 73.85 78.32 75.05 C 80.85 78.86 81.31 83.55 83.67 87.44 C 86.68 86.37 89.82 86.04 92.97 86.65 C 98.07 85.11 103.33 86.70 108.46 87.28 C 115.00 89.18 121.18 84.92 125.80 80.79 C 127.67 77.49 130.72 74.98 132.23 71.47 C 132.56 71.05 133.24 70.22 133.58 69.81 C 133.87 68.61 134.17 67.41 134.49 66.22 C 137.08 66.09 139.63 65.58 142.23 65.47 L 142.35 67.42 C 141.44 67.45 139.62 67.50 138.71 67.53 C 141.63 69.47 144.78 70.93 148.20 71.74 C 145.18 75.36 137.05 72.58 137.14 67.16 C 136.44 68.82 135.79 70.50 135.08 72.16 C 134.09 73.16 132.59 73.88 132.18 75.31 C 134.97 76.95 138.24 77.42 141.14 78.82 C 142.79 84.76 146.30 90.93 144.41 97.21 C 143.46 94.24 142.71 91.22 142.01 88.19 C 140.43 85.41 138.88 82.59 137.25 79.86 C 134.93 79.06 132.53 78.49 130.36 77.32 C 128.77 80.82 126.44 83.90 123.30 86.14 C 125.34 89.56 126.69 93.62 130.18 95.90 C 131.84 100.01 134.27 103.73 136.15 107.73 C 137.38 112.19 143.02 109.58 146.26 110.27 C 146.27 109.80 146.31 108.86 146.32 108.38 C 147.01 108.67 147.69 108.96 148.38 109.26 C 152.31 107.59 157.59 107.08 159.51 102.64 C 161.92 97.88 158.41 92.96 158.96 88.01 C 159.59 79.19 161.04 70.28 159.48 61.46 C 158.64 57.88 159.66 54.20 158.98 50.59 C 158.52 50.87 157.60 51.43 157.14 51.71 C 156.59 55.67 157.24 59.71 156.54 63.67 C 155.45 59.87 155.32 55.89 154.89 51.99 C 155.66 50.29 156.34 48.55 157.04 46.82 C 154.41 42.78 149.49 42.12 145.16 41.14 C 143.18 37.91 140.47 34.94 139.85 31.07 C 139.07 27.86 140.47 23.81 137.69 21.34 C 134.77 18.69 132.37 14.59 128.10 14.18 C 124.76 13.47 121.90 15.69 119.06 17.02 M 160.01 55.68 C 160.99 61.82 161.76 67.99 161.44 74.22 C 164.73 78.22 169.99 78.93 174.05 81.78 C 177.18 83.77 181.39 83.57 184.56 81.82 C 188.18 79.83 187.81 75.20 188.90 71.77 C 189.73 73.65 190.44 75.59 191.31 77.46 C 190.13 79.37 188.83 81.19 187.69 83.11 C 192.57 82.27 194.78 76.41 194.09 71.98 C 192.45 69.54 190.44 67.34 189.28 64.58 L 187.63 64.60 C 187.78 63.50 187.78 62.42 187.63 61.34 L 187.02 61.06 C 182.94 61.75 176.91 62.29 175.78 67.14 C 178.99 64.86 182.18 62.02 186.50 62.89 C 186.40 64.48 186.39 66.06 186.47 67.65 C 184.90 69.05 183.17 70.50 180.95 70.61 C 177.45 71.24 174.55 68.33 171.07 68.44 C 169.37 68.07 167.01 68.78 165.98 66.99 C 163.60 63.44 161.90 59.50 160.01 55.68 M 178.76 67.66 C 180.15 67.77 181.55 67.86 182.94 67.94 C 182.82 67.15 182.58 65.56 182.46 64.77 C 181.20 65.71 179.97 66.67 178.76 67.66 M 69.83 81.01 C 71.00 83.77 71.09 86.93 72.70 89.50 C 75.75 90.01 78.83 90.73 81.65 88.98 C 79.14 85.37 78.45 80.92 76.23 77.16 C 76.65 76.73 77.49 75.86 77.90 75.42 C 74.22 75.24 71.97 78.54 69.83 81.01 M 157.15 108.14 C 154.17 110.27 150.01 109.95 147.39 112.69 C 143.15 112.15 138.94 111.31 134.67 110.98 C 134.56 111.61 134.32 112.86 134.20 113.49 C 133.30 115.07 132.75 116.81 132.32 118.57 C 133.45 120.73 134.61 122.86 135.62 125.08 C 133.65 127.47 132.48 130.10 133.87 133.13 C 129.36 135.43 129.70 141.23 128.12 145.34 C 126.28 148.14 124.62 152.13 126.61 155.24 C 130.18 158.02 134.50 160.10 139.04 160.51 C 143.66 159.99 148.26 159.21 152.84 158.39 C 153.74 154.96 153.51 151.38 153.94 147.89 C 154.06 144.43 156.23 141.54 158.15 138.83 C 160.98 138.63 162.18 135.96 163.68 133.97 C 164.17 134.64 164.66 135.30 165.15 135.97 C 163.49 138.30 161.76 140.84 158.82 141.62 C 157.75 144.30 155.17 147.03 156.78 150.04 C 156.37 151.56 155.98 153.08 155.64 154.61 C 158.33 155.25 161.09 155.53 163.86 155.26 C 164.41 154.46 164.95 153.66 165.51 152.86 C 166.14 148.85 166.69 144.82 167.40 140.82 C 168.54 137.45 171.40 134.71 171.46 130.98 C 171.87 122.90 169.23 113.98 162.39 109.11 C 162.08 107.29 161.68 105.49 161.21 103.71 C 159.86 105.19 158.67 106.83 157.15 108.14 M 155.14 155.74 C 155.56 156.41 156.40 157.75 156.82 158.42 C 155.29 159.20 153.76 159.98 152.22 160.74 C 151.91 166.75 149.67 172.36 147.00 177.67 C 145.23 180.54 146.31 184.08 145.08 187.14 C 143.31 192.27 146.21 197.28 147.60 202.12 C 148.36 205.72 148.86 209.37 149.26 213.03 C 149.36 223.06 147.31 233.14 148.90 243.11 C 149.70 245.59 150.42 248.09 151.13 250.59 C 153.46 250.93 155.78 251.45 158.14 251.40 C 160.59 250.86 160.27 247.96 160.32 246.05 C 160.53 240.89 158.48 236.04 157.99 230.96 C 157.16 226.34 158.18 221.70 158.73 217.11 C 160.19 208.24 156.04 199.75 155.53 190.98 C 155.57 184.21 156.63 177.44 159.08 171.12 C 160.93 166.89 160.53 162.20 161.42 157.76 C 159.29 157.21 157.21 156.49 155.14 155.74 Z" />
<path fill="#333333" opacity="1.00" d=" M 127.35 33.88 C 128.08 31.19 123.71 29.27 125.81 26.58 C 130.60 29.47 129.10 35.28 129.26 39.93 C 128.91 41.76 127.05 42.44 125.71 43.40 C 127.10 40.37 126.51 37.02 127.35 33.88 Z" />
<path fill="#333333" opacity="1.00" d=" M 142.06 41.47 C 144.76 43.26 147.26 45.32 149.66 47.48 C 153.12 51.90 152.66 57.87 154.00 63.07 C 155.66 70.67 156.26 78.43 155.38 86.17 C 153.47 75.16 152.48 63.97 149.90 53.08 C 148.41 49.41 146.65 45.54 142.92 43.67 C 142.70 43.12 142.28 42.02 142.06 41.47 Z" />
<path fill="#333333" opacity="1.00" d=" M 141.69 54.21 C 143.71 54.92 146.54 55.17 147.06 57.71 C 148.12 61.46 151.08 65.11 149.89 69.17 C 148.75 67.10 147.74 64.96 147.18 62.66 C 145.85 60.93 144.51 59.21 143.37 57.35 C 142.94 57.12 142.08 56.66 141.65 56.43 C 141.66 55.87 141.68 54.76 141.69 54.21 Z" />
<path fill="#333333" opacity="1.00" d=" M 126.64 65.66 C 128.33 64.32 130.66 64.93 132.56 65.36 C 131.09 65.89 129.58 66.31 128.13 66.91 C 126.80 68.52 126.50 71.10 124.10 71.58 C 124.60 69.50 124.83 67.07 126.64 65.66 Z" />
<path fill="#333333" opacity="1.00" d=" M 68.17 74.25 C 71.78 70.89 76.63 67.55 81.81 69.03 C 77.86 70.88 73.46 72.15 70.30 75.32 C 67.24 77.91 67.24 82.24 65.79 85.71 C 66.02 86.90 66.23 88.09 66.41 89.29 C 65.91 88.72 64.92 87.59 64.42 87.03 C 42.95 90.22 21.47 93.32 0.00 96.49 L 0.00 94.41 C 21.42 91.07 42.90 88.03 64.37 84.95 C 64.87 81.21 65.15 76.93 68.17 74.25 Z" />
<path fill="#333333" opacity="1.00" d=" M 121.05 75.76 C 123.16 75.95 124.40 73.89 126.23 73.21 L 125.48 73.81 C 125.70 75.43 125.22 77.88 123.12 77.67 C 118.33 77.62 113.54 77.40 108.75 77.49 C 112.76 76.43 116.90 75.88 121.05 75.76 Z" />
<path fill="#333333" opacity="1.00" d=" M 147.36 113.54 C 152.11 112.77 156.95 112.18 161.50 110.52 C 157.34 113.25 152.49 114.38 147.90 116.13 C 146.57 115.84 145.31 115.34 144.03 114.90 C 142.90 115.09 141.78 115.25 140.65 115.41 C 141.83 112.59 145.00 113.82 147.36 113.54 Z" />
<path fill="#333333" opacity="1.00" d=" M 139.46 125.92 C 137.32 123.42 137.03 119.24 139.98 117.21 C 139.29 120.07 138.88 122.99 139.46 125.92 Z" />
</g>
</svg>
