<?xml version="1.0" encoding="UTF-8" ?>
<!DOCTYPE svg PUBLIC "-//W3C//DTD SVG 1.1//EN" "http://www.w3.org/Graphics/SVG/1.1/DTD/svg11.dtd">
<svg width="280pt" height="225pt" viewBox="0 0 280 225" version="1.1" xmlns="http://www.w3.org/2000/svg">
<g id="#ffffffff">
<path fill="#FFFFFF" opacity="1.00" d=" M 0.00 0.00 L 280.00 0.00 L 280.00 225.00 L 0.00 225.00 L 0.00 0.00 M 114.16 27.02 C 110.55 26.77 108.57 30.20 105.71 31.76 C 105.53 34.38 105.13 37.04 105.56 39.65 C 106.74 42.86 108.51 45.82 110.25 48.76 C 110.93 48.77 112.28 48.81 112.96 48.82 C 114.56 50.66 116.16 52.50 117.60 54.46 C 115.21 58.97 114.72 64.34 111.56 68.44 C 109.64 70.96 110.15 74.31 109.58 77.26 C 109.52 78.85 109.44 80.45 109.33 82.04 C 108.24 84.78 110.64 87.96 110.26 90.96 C 109.82 96.51 113.20 101.30 116.13 105.69 C 120.35 109.58 124.93 113.09 129.47 116.61 C 131.36 118.43 133.14 120.38 135.34 121.85 C 137.33 123.15 139.11 125.86 141.84 124.71 C 146.84 128.90 150.62 134.20 154.77 139.18 C 156.86 142.08 159.96 144.13 163.23 145.49 C 164.39 145.84 165.01 145.37 165.07 144.11 C 163.27 142.43 160.52 142.06 158.82 140.18 C 155.59 136.75 153.64 132.38 151.17 128.42 C 155.68 122.29 158.74 114.90 164.92 110.10 C 165.41 111.17 165.91 112.24 166.43 113.30 L 165.47 109.97 C 166.78 110.83 168.10 111.70 169.43 112.55 C 170.16 113.65 170.89 114.75 171.62 115.86 C 170.25 118.03 169.16 120.36 168.03 122.67 C 170.74 120.05 173.44 117.41 176.06 114.69 C 179.53 114.11 183.36 113.93 186.19 111.55 C 187.27 111.34 188.36 111.16 189.46 111.00 C 189.99 110.42 190.52 109.85 191.05 109.27 C 192.43 112.29 193.72 115.40 193.96 118.76 C 194.46 118.79 195.45 118.86 195.94 118.89 C 195.25 116.30 194.58 113.71 193.88 111.13 C 199.16 109.89 204.62 109.81 209.95 110.76 C 210.60 110.16 211.25 109.56 211.91 108.97 C 205.68 108.43 198.74 106.99 192.97 110.14 C 192.22 109.55 191.47 108.95 190.72 108.36 C 185.65 109.59 181.25 112.93 175.86 112.86 C 175.51 113.21 174.80 113.90 174.45 114.25 C 174.01 113.93 173.12 113.28 172.68 112.96 L 172.05 111.42 C 177.93 112.16 181.86 104.83 187.74 107.74 C 186.82 106.72 185.93 105.69 185.04 104.66 C 181.93 105.32 179.00 106.55 176.34 108.29 C 172.81 110.67 168.38 109.11 164.57 108.38 C 157.81 112.65 152.83 119.58 150.48 127.18 C 149.70 127.19 148.13 127.21 147.34 127.22 C 150.27 120.22 156.32 115.33 160.82 109.40 C 156.86 106.53 151.59 106.55 147.87 103.32 C 147.79 104.68 147.76 106.06 147.74 107.43 C 151.19 107.65 154.78 107.93 157.53 110.28 C 153.63 114.08 150.29 118.41 147.56 123.11 C 143.41 122.10 139.32 120.80 135.09 120.16 C 134.52 118.94 133.93 117.74 133.34 116.54 C 130.17 111.49 124.18 109.12 119.75 105.32 C 117.47 103.07 116.06 100.13 114.54 97.36 C 113.11 94.70 114.25 91.52 113.20 88.74 C 111.89 85.44 112.34 81.85 112.32 78.39 C 112.18 75.78 110.94 72.93 112.37 70.47 C 115.13 65.16 120.38 62.01 125.53 59.38 C 126.02 59.36 127.01 59.32 127.51 59.30 C 128.27 56.59 128.79 53.81 129.60 51.11 C 130.93 48.69 133.25 47.08 135.15 45.15 C 130.74 41.39 124.88 38.46 119.01 40.44 C 117.14 42.91 114.65 44.88 111.62 45.71 C 109.74 42.30 106.95 38.94 107.60 34.77 C 108.92 32.97 110.08 31.05 111.22 29.12 C 115.58 29.30 119.61 31.31 123.96 31.51 C 129.78 31.34 135.90 28.77 141.52 31.31 C 144.78 32.55 148.15 33.50 151.62 33.99 C 151.98 38.03 152.09 42.30 150.01 45.94 C 147.85 49.66 147.72 54.08 146.04 57.98 C 143.72 63.01 139.88 67.11 136.15 71.12 C 132.72 74.95 127.54 76.52 124.07 80.31 C 126.18 79.61 128.19 78.66 130.21 77.74 C 130.35 80.60 130.49 83.48 131.55 86.17 C 133.51 91.83 130.70 97.57 129.25 102.98 C 128.48 105.16 130.16 106.80 131.93 107.70 C 131.60 106.45 131.25 105.21 130.88 103.97 C 131.64 102.23 132.40 100.48 132.95 98.65 C 134.12 99.80 135.09 101.57 136.95 101.56 C 139.62 102.21 141.54 99.81 142.51 97.68 C 145.18 99.79 147.93 102.12 151.43 102.59 C 149.07 99.63 146.11 97.28 142.50 96.02 C 144.29 95.71 146.08 95.41 147.87 95.12 C 146.21 93.88 144.77 91.90 142.49 92.02 C 142.36 93.73 142.36 95.45 142.34 97.16 C 140.78 97.59 139.31 98.22 137.87 98.95 C 136.66 98.65 135.45 98.36 134.23 98.08 C 134.43 96.66 134.61 95.23 134.78 93.80 C 136.58 94.93 138.50 95.91 140.67 95.95 C 140.76 94.03 140.64 92.11 140.21 90.23 C 139.79 91.07 138.94 92.75 138.51 93.59 C 137.34 92.81 136.15 92.05 134.96 91.30 C 134.17 86.44 132.87 81.69 132.01 76.85 C 134.38 75.32 136.64 73.60 138.37 71.35 C 140.07 73.95 142.24 76.26 143.58 79.08 C 144.97 81.68 143.93 84.67 144.38 87.43 C 145.75 88.46 147.61 88.94 148.64 90.36 C 148.99 92.38 148.55 94.59 149.63 96.45 C 151.12 97.12 152.73 97.43 154.30 97.86 C 154.46 99.37 154.60 100.88 154.74 102.40 C 155.03 102.87 155.60 103.82 155.89 104.29 C 158.49 105.59 160.67 107.56 163.21 108.97 C 162.62 105.94 159.81 104.28 157.56 102.52 C 157.94 98.71 155.51 95.40 151.72 94.74 C 152.22 91.49 150.49 88.48 147.76 86.83 C 148.79 80.10 144.18 74.24 139.39 70.12 C 143.21 66.03 147.51 61.98 149.25 56.50 C 150.59 52.20 151.61 47.77 153.67 43.73 C 155.60 40.16 154.34 36.02 154.30 32.20 C 151.17 31.19 147.90 30.78 144.70 30.13 C 144.53 28.48 144.14 26.86 143.55 25.31 C 140.41 23.44 137.05 21.99 133.66 20.63 C 129.76 20.64 125.79 20.35 121.93 21.02 C 118.47 21.59 116.53 24.81 114.16 27.02 M 135.48 78.78 C 135.42 79.95 135.36 81.13 135.31 82.31 C 137.97 83.72 139.78 86.84 143.08 86.76 C 140.87 83.81 138.25 81.20 135.48 78.78 M 134.80 105.13 C 136.08 105.69 137.33 106.38 138.71 106.71 C 139.35 105.99 139.95 105.25 140.53 104.49 C 138.61 104.58 136.68 104.71 134.80 105.13 M 188.92 106.62 C 193.82 104.92 198.87 106.17 203.86 106.51 C 207.19 106.14 210.53 105.68 213.89 105.74 C 215.04 106.21 216.19 106.66 217.36 107.09 C 217.51 107.45 217.80 108.17 217.95 108.53 C 217.02 108.58 215.17 108.67 214.24 108.72 L 214.17 108.05 C 213.40 108.76 211.85 110.18 211.07 110.89 C 216.35 110.35 222.38 108.50 227.10 111.98 C 230.25 113.75 230.05 117.74 230.47 120.84 C 229.93 124.58 231.48 128.21 231.00 131.93 C 230.44 134.12 231.52 136.14 232.19 138.17 C 233.69 134.68 233.96 130.54 232.79 126.92 C 232.28 122.56 234.19 117.25 230.87 113.70 C 231.24 109.28 225.20 108.89 222.05 108.16 C 221.17 106.53 219.91 105.24 218.14 104.63 C 210.77 103.58 203.35 105.01 195.95 104.52 C 193.39 104.24 191.05 105.35 188.92 106.62 M 108.03 108.92 C 105.68 110.49 102.99 111.37 100.42 112.49 C 95.03 114.86 91.83 120.07 88.18 124.41 C 83.74 129.65 82.17 136.47 80.24 142.88 C 78.21 157.98 85.12 174.63 98.82 182.06 C 110.52 189.92 125.21 190.76 138.87 190.34 C 143.13 189.80 147.39 189.15 151.58 188.20 C 160.14 185.97 167.24 180.43 173.70 174.62 C 175.16 167.88 178.87 161.78 179.85 154.85 C 179.43 152.02 179.37 149.14 178.80 146.33 C 177.98 149.46 178.57 152.72 178.04 155.87 C 176.56 161.60 174.90 167.40 171.66 172.41 C 169.34 175.87 166.61 179.43 162.44 180.70 C 152.73 185.45 141.77 187.08 131.04 186.32 C 123.99 185.95 116.73 186.41 109.95 184.04 C 105.16 182.15 100.93 179.12 96.65 176.31 C 93.44 174.31 91.21 171.13 89.46 167.85 C 87.40 164.05 87.68 159.59 86.84 155.46 C 86.11 149.87 83.94 144.13 85.68 138.51 C 86.94 134.67 87.60 130.45 90.29 127.27 C 93.45 123.52 95.70 118.81 99.97 116.16 C 103.12 114.14 106.10 111.87 109.01 109.53 C 111.56 109.58 114.11 109.37 116.62 108.90 C 116.66 108.38 116.75 107.34 116.80 106.83 C 113.84 107.27 110.54 107.02 108.03 108.92 M 134.57 106.60 C 135.99 108.68 137.80 110.48 139.01 112.70 C 140.71 113.43 142.49 113.94 144.31 114.27 C 141.16 111.60 138.29 108.48 134.57 106.60 M 194.09 119.02 C 195.09 124.90 195.30 131.20 192.86 136.76 C 191.78 139.13 189.41 140.60 186.99 141.28 C 183.56 140.86 180.08 139.63 176.64 140.63 C 173.23 141.52 169.73 142.25 166.50 143.70 C 166.42 143.95 166.25 144.46 166.16 144.71 C 169.85 144.76 173.40 143.47 177.07 143.31 C 180.05 143.49 182.97 144.20 185.96 144.38 C 188.05 142.98 190.44 142.31 192.91 142.01 C 194.34 140.75 194.93 138.84 195.87 137.23 C 198.52 136.90 201.14 136.34 203.65 135.41 C 206.71 143.22 205.99 151.88 204.87 160.01 C 204.82 165.34 202.00 170.07 201.52 175.34 C 204.18 179.29 209.16 180.83 213.68 179.43 C 211.67 185.04 212.25 192.41 218.05 195.51 C 223.07 195.82 228.15 195.87 233.07 194.68 C 239.10 194.62 245.62 195.28 251.07 192.14 C 252.88 191.21 254.29 189.03 253.20 187.02 C 251.63 183.56 247.12 184.18 244.13 182.81 C 243.59 182.78 242.50 182.72 241.96 182.69 C 239.24 180.02 236.72 177.10 233.53 174.96 C 232.16 170.45 232.57 165.60 232.99 160.97 C 233.34 159.29 233.68 157.60 234.11 155.93 C 235.13 150.66 234.51 145.29 233.64 140.05 L 235.01 140.30 C 234.30 140.02 232.87 139.48 232.15 139.21 C 232.51 144.73 233.14 150.40 231.59 155.82 C 229.68 162.07 230.25 168.85 231.63 175.15 C 235.26 179.38 239.33 183.38 244.11 186.28 C 246.62 186.88 249.20 187.06 251.75 187.48 C 251.59 188.35 251.43 189.23 251.28 190.10 C 248.07 191.58 244.61 192.96 241.01 192.22 C 235.63 190.87 230.45 192.91 225.23 193.90 C 223.21 192.81 220.90 192.87 218.69 192.81 C 217.53 192.17 216.40 191.49 215.29 190.79 C 215.40 185.45 217.48 180.45 219.74 175.70 C 221.46 170.71 221.39 165.26 220.66 160.08 C 220.23 156.11 216.88 153.07 216.84 149.03 C 216.70 146.78 217.31 144.58 218.10 142.49 C 220.02 138.14 219.49 133.28 218.30 128.81 C 215.99 128.55 213.67 128.39 211.35 128.26 C 213.99 127.22 216.71 126.38 219.51 125.93 C 219.58 125.46 219.71 124.52 219.78 124.05 C 217.44 124.59 215.07 125.04 212.87 126.01 C 209.64 127.55 207.49 130.61 204.37 132.31 C 202.22 133.54 199.84 134.24 197.49 134.96 C 198.37 129.52 196.94 124.21 195.72 118.96 L 194.09 119.02 Z" />
<path fill="#FFFFFF" opacity="1.00" d=" M 119.70 23.83 C 127.79 21.22 137.34 23.44 143.26 29.61 C 139.32 28.09 135.12 27.97 131.00 28.85 C 126.35 29.98 121.58 29.26 116.86 29.41 C 116.57 28.89 115.98 27.85 115.69 27.33 C 117.03 26.17 118.25 24.85 119.70 23.83 Z" />
<path fill="#FFFFFF" opacity="1.00" d=" M 119.82 42.37 C 123.93 42.16 128.34 42.48 131.54 45.39 C 127.70 48.64 126.73 53.58 125.56 58.20 C 122.23 58.20 119.34 59.64 116.93 61.83 C 117.89 58.78 118.93 55.76 120.38 52.92 C 119.03 51.01 117.40 49.32 115.73 47.68 C 118.18 46.88 119.72 44.96 119.82 42.37 Z" />
<path fill="#FFFFFF" opacity="1.00" d=" M 205.38 134.39 C 209.36 133.07 212.92 128.77 217.42 131.11 C 215.82 138.24 212.73 145.93 215.73 153.11 C 218.35 156.56 217.62 161.01 217.46 165.04 C 217.13 167.96 216.92 171.03 215.52 173.68 C 212.85 176.94 208.07 176.60 204.46 175.35 C 203.45 169.76 207.63 165.32 207.89 159.90 C 209.75 151.49 210.78 141.77 205.38 134.39 Z" />
</g>
<g id="#0d110eff">
<path fill="#333333" opacity="1.00" d=" M 114.16 27.02 C 116.53 24.81 118.47 21.59 121.93 21.02 C 125.79 20.35 129.76 20.64 133.66 20.63 C 137.05 21.99 140.41 23.44 143.55 25.31 C 144.14 26.86 144.53 28.48 144.70 30.13 C 147.90 30.78 151.17 31.19 154.30 32.20 C 154.34 36.02 155.60 40.16 153.67 43.73 C 151.61 47.77 150.59 52.20 149.25 56.50 C 147.51 61.98 143.21 66.03 139.39 70.12 C 144.18 74.24 148.79 80.10 147.76 86.83 C 150.49 88.48 152.22 91.49 151.72 94.74 C 155.51 95.40 157.94 98.71 157.56 102.52 C 159.81 104.28 162.62 105.94 163.21 108.97 C 160.67 107.56 158.49 105.59 155.89 104.29 C 155.60 103.82 155.03 102.87 154.74 102.40 C 154.60 100.88 154.46 99.37 154.30 97.86 C 152.73 97.43 151.12 97.12 149.63 96.45 C 148.55 94.59 148.99 92.38 148.64 90.36 C 147.61 88.94 145.75 88.46 144.38 87.43 C 143.93 84.67 144.97 81.68 143.58 79.08 C 142.24 76.26 140.07 73.95 138.37 71.35 C 136.64 73.60 134.38 75.32 132.01 76.85 C 132.87 81.69 134.17 86.44 134.96 91.30 C 136.15 92.05 137.34 92.81 138.51 93.59 C 138.94 92.75 139.79 91.07 140.21 90.23 C 140.64 92.11 140.76 94.03 140.67 95.95 C 138.50 95.91 136.58 94.93 134.78 93.80 C 134.61 95.23 134.43 96.66 134.23 98.08 C 135.45 98.36 136.66 98.65 137.87 98.95 C 139.31 98.22 140.78 97.59 142.34 97.16 C 142.36 95.45 142.36 93.73 142.49 92.02 C 144.77 91.90 146.21 93.88 147.87 95.12 C 146.08 95.41 144.29 95.71 142.50 96.02 C 146.11 97.28 149.07 99.63 151.43 102.59 C 147.93 102.12 145.18 99.79 142.51 97.68 C 141.54 99.81 139.62 102.21 136.95 101.56 C 135.09 101.57 134.12 99.80 132.95 98.65 C 132.40 100.48 131.64 102.23 130.88 103.97 C 131.25 105.21 131.60 106.45 131.93 107.70 C 130.16 106.80 128.48 105.16 129.25 102.98 C 130.70 97.57 133.51 91.83 131.55 86.17 C 130.49 83.48 130.35 80.60 130.21 77.74 C 128.19 78.66 126.18 79.61 124.07 80.31 C 127.54 76.52 132.72 74.95 136.15 71.12 C 139.88 67.11 143.72 63.01 146.04 57.98 C 147.72 54.08 147.85 49.66 150.01 45.94 C 152.09 42.30 151.98 38.03 151.62 33.99 C 148.15 33.50 144.78 32.55 141.52 31.31 C 135.90 28.77 129.78 31.34 123.96 31.51 C 119.61 31.31 115.58 29.30 111.22 29.12 C 110.08 31.05 108.92 32.97 107.60 34.77 C 106.95 38.94 109.74 42.30 111.62 45.71 C 114.65 44.88 117.14 42.91 119.01 40.44 C 124.88 38.46 130.74 41.39 135.15 45.15 C 133.25 47.08 130.93 48.69 129.60 51.11 C 128.79 53.81 128.27 56.59 127.51 59.30 C 127.01 59.32 126.02 59.36 125.53 59.38 C 120.38 62.01 115.13 65.16 112.37 70.47 C 110.94 72.93 112.18 75.78 112.32 78.39 C 111.30 79.59 110.28 80.79 109.33 82.04 C 109.44 80.45 109.52 78.85 109.58 77.26 C 110.15 74.31 109.64 70.96 111.56 68.44 C 114.72 64.34 115.21 58.97 117.60 54.46 C 116.16 52.50 114.56 50.66 112.96 48.82 C 112.28 48.81 110.93 48.77 110.25 48.76 C 108.51 45.82 106.74 42.86 105.56 39.65 C 105.13 37.04 105.53 34.38 105.71 31.76 C 108.57 30.20 110.55 26.77 114.16 27.02 M 119.70 23.83 C 118.25 24.85 117.03 26.17 115.69 27.33 C 115.98 27.85 116.57 28.89 116.86 29.41 C 121.58 29.26 126.35 29.98 131.00 28.85 C 135.12 27.97 139.32 28.09 143.26 29.61 C 137.34 23.44 127.79 21.22 119.70 23.83 M 119.82 42.37 C 119.72 44.96 118.18 46.88 115.73 47.68 C 117.40 49.32 119.03 51.01 120.38 52.92 C 118.93 55.76 117.89 58.78 116.93 61.83 C 119.34 59.64 122.23 58.20 125.56 58.20 C 126.73 53.58 127.70 48.64 131.54 45.39 C 128.34 42.48 123.93 42.16 119.82 42.37 Z" />
<path fill="#333333" opacity="1.00" d=" M 135.48 78.78 C 138.25 81.20 140.87 83.81 143.08 86.76 C 139.78 86.84 137.97 83.72 135.31 82.31 C 135.36 81.13 135.42 79.95 135.48 78.78 Z" />
<path fill="#333333" opacity="1.00" d=" M 134.80 105.13 C 136.68 104.71 138.61 104.58 140.53 104.49 C 139.95 105.25 139.35 105.99 138.71 106.71 C 137.33 106.38 136.08 105.69 134.80 105.13 Z" />
<path fill="#333333" opacity="1.00" d=" M 188.92 106.62 C 191.05 105.35 193.39 104.24 195.95 104.52 C 203.35 105.01 210.77 103.58 218.14 104.63 C 219.91 105.24 221.17 106.53 222.05 108.16 C 225.20 108.89 231.24 109.28 230.87 113.70 C 234.19 117.25 232.28 122.56 232.79 126.92 C 233.96 130.54 233.69 134.68 232.19 138.17 C 231.52 136.14 230.44 134.12 231.00 131.93 C 231.48 128.21 229.93 124.58 230.47 120.84 C 230.05 117.74 230.25 113.75 227.10 111.98 C 222.38 108.50 216.35 110.35 211.07 110.89 C 211.85 110.18 213.40 108.76 214.17 108.05 L 214.24 108.72 C 215.17 108.67 217.02 108.58 217.95 108.53 C 217.80 108.17 217.51 107.45 217.36 107.09 C 216.19 106.66 215.04 106.21 213.89 105.74 C 210.53 105.68 207.19 106.14 203.86 106.51 C 198.87 106.17 193.82 104.92 188.92 106.62 Z" />
<path fill="#333333" opacity="1.00" d=" M 134.57 106.60 C 138.29 108.48 141.16 111.60 144.31 114.27 C 142.49 113.94 140.71 113.43 139.01 112.70 C 137.80 110.48 135.99 108.68 134.57 106.60 Z" />
<path fill="#333333" opacity="1.00" d=" M 175.86 112.86 C 181.25 112.93 185.65 109.59 190.72 108.36 C 191.47 108.95 192.22 109.55 192.97 110.14 C 198.74 106.99 205.68 108.43 211.91 108.97 C 211.25 109.56 210.60 110.16 209.95 110.76 C 204.62 109.81 199.16 109.89 193.88 111.13 C 194.58 113.71 195.25 116.30 195.94 118.89 C 195.45 118.86 194.46 118.79 193.96 118.76 C 193.72 115.40 192.43 112.29 191.05 109.27 C 190.52 109.85 189.99 110.42 189.46 111.00 C 188.36 111.16 187.27 111.34 186.19 111.55 C 183.36 113.93 179.53 114.11 176.06 114.69 C 173.44 117.41 170.74 120.05 168.03 122.67 C 169.16 120.36 170.25 118.03 171.62 115.86 C 170.89 114.75 170.16 113.65 169.43 112.55 C 170.51 112.69 171.60 112.80 172.68 112.96 C 173.12 113.28 174.01 113.93 174.45 114.25 C 174.80 113.90 175.51 113.21 175.86 112.86 Z" />
<path fill="#333333" opacity="1.00" d=" M 232.15 139.21 C 232.87 139.48 234.30 140.02 235.01 140.30 L 233.64 140.05 C 234.51 145.29 235.13 150.66 234.11 155.93 C 233.68 157.60 233.34 159.29 232.99 160.97 C 232.57 165.60 232.16 170.45 233.53 174.96 C 236.72 177.10 239.24 180.02 241.96 182.69 C 242.50 182.72 243.59 182.78 244.13 182.81 C 247.12 184.18 251.63 183.56 253.20 187.02 C 254.29 189.03 252.88 191.21 251.07 192.14 C 245.62 195.28 239.10 194.62 233.07 194.68 C 228.15 195.87 223.07 195.82 218.05 195.51 C 218.21 194.83 218.53 193.49 218.69 192.81 C 220.90 192.87 223.21 192.81 225.23 193.90 C 230.45 192.91 235.63 190.87 241.01 192.22 C 244.61 192.96 248.07 191.58 251.28 190.10 C 251.43 189.23 251.59 188.35 251.75 187.48 C 249.20 187.06 246.62 186.88 244.11 186.28 C 239.33 183.38 235.26 179.38 231.63 175.15 C 230.25 168.85 229.68 162.07 231.59 155.82 C 233.14 150.40 232.51 144.73 232.15 139.21 Z" />
</g>
<g id="#43453aff">
<path fill="#333333" opacity="1.00" d=" M 109.33 82.04 C 110.28 80.79 111.30 79.59 112.32 78.39 C 112.34 81.85 111.89 85.44 113.20 88.74 C 114.25 91.52 113.11 94.70 114.54 97.36 C 116.06 100.13 117.47 103.07 119.75 105.32 C 124.18 109.12 130.17 111.49 133.34 116.54 C 133.93 117.74 134.52 118.94 135.09 120.16 C 139.32 120.80 143.41 122.10 147.56 123.11 C 150.29 118.41 153.63 114.08 157.53 110.28 C 154.78 107.93 151.19 107.65 147.74 107.43 C 147.76 106.06 147.79 104.68 147.87 103.32 C 151.59 106.55 156.86 106.53 160.82 109.40 C 156.32 115.33 150.27 120.22 147.34 127.22 C 148.13 127.21 149.70 127.19 150.48 127.18 C 152.83 119.58 157.81 112.65 164.57 108.38 C 168.38 109.11 172.81 110.67 176.34 108.29 C 179.00 106.55 181.93 105.32 185.04 104.66 C 185.93 105.69 186.82 106.72 187.74 107.74 C 181.86 104.83 177.93 112.16 172.05 111.42 L 172.68 112.96 C 171.60 112.80 170.51 112.69 169.43 112.55 C 168.10 111.70 166.78 110.83 165.47 109.97 L 166.43 113.30 C 165.91 112.24 165.41 111.17 164.92 110.10 C 158.74 114.90 155.68 122.29 151.17 128.42 C 153.64 132.38 155.59 136.75 158.82 140.18 C 160.52 142.06 163.27 142.43 165.07 144.11 C 165.01 145.37 164.39 145.84 163.23 145.49 C 159.96 144.13 156.86 142.08 154.77 139.18 C 150.62 134.20 146.84 128.90 141.84 124.71 C 139.11 125.86 137.33 123.15 135.34 121.85 C 133.14 120.38 131.36 118.43 129.47 116.61 C 124.93 113.09 120.35 109.58 116.13 105.69 C 113.20 101.30 109.82 96.51 110.26 90.96 C 110.64 87.96 108.24 84.78 109.33 82.04 Z" />
<path fill="#333333" opacity="1.00" d=" M 108.03 108.92 C 110.54 107.02 113.84 107.27 116.80 106.83 C 116.75 107.34 116.66 108.38 116.62 108.90 C 114.11 109.37 111.56 109.58 109.01 109.53 C 106.10 111.87 103.12 114.14 99.97 116.16 C 95.70 118.81 93.45 123.52 90.29 127.27 C 87.60 130.45 86.94 134.67 85.68 138.51 C 83.94 144.13 86.11 149.87 86.84 155.46 C 87.68 159.59 87.40 164.05 89.46 167.85 C 91.21 171.13 93.44 174.31 96.65 176.31 C 100.93 179.12 105.16 182.15 109.95 184.04 C 116.73 186.41 123.99 185.95 131.04 186.32 C 141.77 187.08 152.73 185.45 162.44 180.70 C 166.61 179.43 169.34 175.87 171.66 172.41 C 174.90 167.40 176.56 161.60 178.04 155.87 C 178.57 152.72 177.98 149.46 178.80 146.33 C 179.37 149.14 179.43 152.02 179.85 154.85 C 178.87 161.78 175.16 167.88 173.70 174.62 C 167.24 180.43 160.14 185.97 151.58 188.20 C 147.39 189.15 143.13 189.80 138.87 190.34 C 125.21 190.76 110.52 189.92 98.82 182.06 C 85.12 174.63 78.21 157.98 80.24 142.88 C 82.17 136.47 83.74 129.65 88.18 124.41 C 91.83 120.07 95.03 114.86 100.42 112.49 C 102.99 111.37 105.68 110.49 108.03 108.92 Z" />
<path fill="#333333" opacity="1.00" d=" M 194.09 119.02 L 195.72 118.96 C 196.94 124.21 198.37 129.52 197.49 134.96 C 199.84 134.24 202.22 133.54 204.37 132.31 C 207.49 130.61 209.64 127.55 212.87 126.01 C 215.07 125.04 217.44 124.59 219.78 124.05 C 219.71 124.52 219.58 125.46 219.51 125.93 C 216.71 126.38 213.99 127.22 211.35 128.26 C 213.67 128.39 215.99 128.55 218.30 128.81 C 219.49 133.28 220.02 138.14 218.10 142.49 C 217.31 144.58 216.70 146.78 216.84 149.03 C 216.88 153.07 220.23 156.11 220.66 160.08 C 221.39 165.26 221.46 170.71 219.74 175.70 C 217.48 180.45 215.40 185.45 215.29 190.79 C 216.40 191.49 217.53 192.17 218.69 192.81 C 218.53 193.49 218.21 194.83 218.05 195.51 C 212.25 192.41 211.67 185.04 213.68 179.43 C 209.16 180.83 204.18 179.29 201.52 175.34 C 202.00 170.07 204.82 165.34 204.87 160.01 C 205.99 151.88 206.71 143.22 203.65 135.41 C 201.14 136.34 198.52 136.90 195.87 137.23 C 194.93 138.84 194.34 140.75 192.91 142.01 C 190.44 142.31 188.05 142.98 185.96 144.38 C 182.97 144.20 180.05 143.49 177.07 143.31 C 173.40 143.47 169.85 144.76 166.16 144.71 C 166.25 144.46 166.42 143.95 166.50 143.70 C 169.73 142.25 173.23 141.52 176.64 140.63 C 180.08 139.63 183.56 140.86 186.99 141.28 C 189.41 140.60 191.78 139.13 192.86 136.76 C 195.30 131.20 195.09 124.90 194.09 119.02 M 205.38 134.39 C 210.78 141.77 209.75 151.49 207.89 159.90 C 207.63 165.32 203.45 169.76 204.46 175.35 C 208.07 176.60 212.85 176.94 215.52 173.68 C 216.92 171.03 217.13 167.96 217.46 165.04 C 217.62 161.01 218.35 156.56 215.73 153.11 C 212.73 145.93 215.82 138.24 217.42 131.11 C 212.92 128.77 209.36 133.07 205.38 134.39 Z" />
</g>
</svg>
