<?xml version="1.0" encoding="UTF-8" ?>
<!DOCTYPE svg PUBLIC "-//W3C//DTD SVG 1.1//EN" "http://www.w3.org/Graphics/SVG/1.1/DTD/svg11.dtd">
<svg width="277pt" height="150pt" viewBox="0 0 277 150" version="1.1" xmlns="http://www.w3.org/2000/svg">
<g id="#ffffffff">
<path fill="#FFFFFF" opacity="1.00" d=" M 0.00 0.00 L 277.00 0.00 L 277.00 150.00 L 0.00 150.00 L 0.00 0.00 M 184.68 34.75 C 181.78 36.48 178.31 35.37 175.17 36.04 C 172.06 37.38 169.27 39.36 166.24 40.88 C 163.10 41.94 159.77 42.25 156.51 42.73 C 149.80 44.28 145.60 50.73 138.85 52.18 C 132.79 55.14 125.60 53.86 119.55 56.68 C 115.91 59.34 112.29 62.25 108.04 63.82 C 103.05 64.42 98.06 65.78 93.01 65.00 C 89.97 64.57 87.09 65.82 84.14 66.26 C 79.52 65.40 74.69 64.03 70.07 65.66 C 63.49 68.38 57.09 71.55 50.47 74.20 C 47.66 73.77 44.82 73.45 41.99 73.10 C 36.38 74.18 30.95 76.11 25.39 77.41 C 21.87 80.30 20.93 85.00 18.56 88.71 C 19.99 90.63 20.99 92.83 22.35 94.80 C 26.54 93.89 29.52 89.75 33.98 90.03 C 39.32 90.18 44.64 89.80 49.94 89.21 L 49.02 91.04 C 49.33 91.02 49.96 90.99 50.27 90.97 C 50.36 89.81 50.55 87.49 50.65 86.33 C 51.04 87.07 51.83 88.54 52.22 89.27 C 59.14 88.36 66.05 87.38 72.92 86.18 C 77.88 84.83 82.00 89.57 87.02 88.12 C 85.30 86.02 82.80 85.03 80.36 84.04 C 87.00 83.63 93.98 85.35 100.24 82.28 C 99.32 81.66 97.47 80.42 96.54 79.81 L 96.76 81.70 C 93.23 82.02 89.73 81.35 86.21 81.47 C 82.32 81.34 78.95 84.08 74.99 83.24 C 67.42 84.51 59.85 85.88 52.28 87.26 C 53.15 86.76 54.90 85.78 55.77 85.28 C 54.01 85.15 52.24 85.03 50.49 84.86 C 50.37 85.33 50.14 86.29 50.02 86.77 C 47.15 86.92 44.30 87.27 41.45 87.66 C 37.02 88.17 32.34 87.13 28.08 88.81 C 25.69 89.63 23.88 91.47 21.94 93.00 C 21.89 92.02 21.79 90.06 21.73 89.08 C 21.46 89.12 20.90 89.19 20.62 89.23 C 23.30 85.64 24.03 80.57 28.46 78.52 C 33.26 77.24 38.22 76.71 43.13 76.05 C 45.07 75.77 46.88 76.53 48.55 77.39 C 53.27 75.62 58.20 74.12 62.31 71.11 C 68.47 67.21 75.98 67.02 82.99 67.94 C 86.81 69.10 90.44 66.59 94.30 67.16 C 96.38 66.52 97.04 68.80 97.14 70.30 C 97.71 72.07 98.25 73.86 98.86 75.62 C 97.04 76.65 95.57 78.07 95.41 80.33 C 97.65 79.39 99.65 78.01 101.34 76.26 C 100.15 73.88 99.41 71.32 98.84 68.73 L 98.05 69.63 C 97.95 69.09 97.73 68.01 97.62 67.47 C 101.34 66.98 105.11 66.11 108.87 66.62 C 111.78 67.38 114.72 68.09 117.55 69.11 C 117.25 73.48 117.46 77.88 118.66 82.12 C 113.02 83.97 106.61 84.44 100.95 82.38 C 100.30 83.07 99.66 83.77 99.04 84.47 C 96.67 84.12 94.28 84.07 91.91 84.38 C 90.57 85.01 89.20 85.56 87.80 86.02 C 87.61 86.74 87.44 87.47 87.33 88.22 C 92.08 86.27 97.29 86.84 102.08 85.28 C 106.61 86.75 111.48 86.35 116.13 85.85 C 118.11 85.95 118.65 83.83 119.57 82.53 C 120.72 83.13 121.70 84.27 123.06 84.37 C 127.26 84.61 131.46 84.79 135.65 85.07 C 136.60 89.30 140.14 91.77 143.88 93.43 C 141.70 89.63 138.98 86.18 136.20 82.80 C 131.97 83.20 127.69 83.17 123.49 82.50 C 118.68 79.93 118.50 74.26 118.78 69.48 C 124.13 68.32 130.17 68.35 134.72 64.96 C 137.45 64.44 140.20 64.06 142.89 63.35 C 147.75 61.90 152.97 62.15 157.69 60.13 C 156.94 61.66 156.24 63.22 155.59 64.79 C 155.05 65.01 153.95 65.45 153.40 65.67 C 154.10 66.95 154.80 68.24 155.49 69.53 C 155.30 71.37 155.16 73.21 155.06 75.05 C 153.18 74.16 151.34 73.20 149.54 72.16 C 149.58 72.90 149.64 74.39 149.68 75.13 C 149.25 75.60 148.39 76.54 147.96 77.02 C 147.92 80.00 148.07 82.98 148.05 85.95 C 147.77 88.20 147.23 90.49 147.98 92.71 C 152.51 87.80 148.43 80.93 149.83 75.12 C 150.65 75.37 152.30 75.87 153.13 76.12 C 153.27 78.78 153.28 81.62 154.83 83.91 C 157.33 87.54 157.27 92.10 158.83 96.07 C 159.53 96.30 160.92 96.75 161.62 96.98 C 159.71 99.20 157.03 100.97 156.18 103.92 C 153.13 103.84 150.00 102.91 147.01 103.92 C 144.08 104.82 141.00 104.47 138.01 104.18 C 135.11 103.80 132.23 104.74 129.34 104.55 C 127.81 103.95 126.46 102.98 125.08 102.11 C 124.25 98.71 122.76 95.53 121.12 92.46 C 121.53 90.43 122.00 88.42 122.46 86.41 C 117.31 90.49 120.55 96.95 122.48 101.83 C 114.63 102.65 105.67 104.34 98.81 99.31 C 99.29 98.95 100.27 98.22 100.76 97.86 C 99.73 97.85 98.70 97.83 97.68 97.82 C 93.90 98.97 89.86 98.06 86.04 98.99 C 82.12 100.08 78.09 99.11 74.10 99.18 C 66.40 99.33 59.31 94.68 51.54 96.07 C 47.42 99.52 42.29 100.95 37.19 102.15 C 37.13 102.46 37.01 103.08 36.95 103.39 C 42.54 104.04 47.22 100.54 52.52 99.65 C 52.42 99.27 52.22 98.50 52.13 98.11 C 59.22 97.25 65.30 101.75 72.20 102.41 C 80.84 102.91 89.47 101.89 97.97 100.38 C 105.26 105.48 115.27 106.44 123.52 103.06 C 126.31 104.93 129.42 106.89 132.95 106.37 C 137.60 105.82 142.24 107.60 146.86 106.58 C 151.21 105.46 155.69 107.65 160.01 106.14 C 164.48 105.82 165.41 99.86 170.00 99.93 C 169.19 98.29 167.55 97.86 165.84 97.99 C 164.62 102.10 160.28 103.55 156.46 104.27 C 160.62 103.53 161.29 99.66 162.27 96.51 C 161.69 96.34 160.53 96.00 159.95 95.83 C 160.09 93.59 160.23 91.36 160.38 89.13 C 163.04 91.71 165.05 95.02 168.41 96.79 C 169.74 97.38 170.13 98.86 170.86 99.99 C 171.61 100.12 173.10 100.38 173.85 100.51 C 180.09 97.79 186.20 94.56 193.06 93.68 C 200.33 93.08 207.31 90.82 214.15 88.41 C 214.04 90.34 213.25 92.86 215.81 93.50 C 215.53 90.50 214.57 87.65 213.88 84.74 C 214.37 85.39 215.36 86.69 215.85 87.34 C 216.13 86.45 216.70 84.66 216.99 83.76 L 215.00 83.85 C 215.03 83.36 215.08 82.39 215.10 81.91 C 217.35 83.57 219.90 85.03 221.57 87.33 C 223.31 90.65 223.98 94.40 224.41 98.09 C 225.10 102.12 221.94 105.34 221.58 109.22 C 222.93 108.05 224.21 106.78 225.47 105.51 C 226.93 108.47 227.68 111.78 229.36 114.62 C 231.55 115.74 234.05 116.09 236.37 116.91 C 237.85 118.20 239.40 119.42 240.90 120.70 C 240.39 124.13 240.47 127.75 239.15 131.01 C 237.32 132.34 235.12 133.07 233.02 133.86 C 231.47 132.81 229.93 131.74 228.47 130.57 C 226.61 126.63 227.16 121.70 223.87 118.46 C 223.80 119.42 223.66 121.33 223.59 122.29 C 220.69 120.65 217.03 119.78 215.17 116.77 C 209.89 109.76 210.18 100.55 208.86 92.27 C 208.36 92.49 207.36 92.93 206.86 93.15 C 207.89 97.76 209.51 102.43 208.55 107.21 C 207.66 111.75 212.20 114.44 214.20 117.90 C 216.34 121.68 220.42 123.36 224.20 125.00 C 224.66 127.06 224.73 129.32 225.82 131.17 C 227.72 133.03 230.12 134.26 232.24 135.82 C 236.18 134.24 242.46 133.24 242.36 127.81 C 242.70 125.57 243.56 123.32 243.19 121.05 C 241.61 117.12 237.18 115.30 233.19 115.31 C 229.53 111.73 228.31 106.58 226.13 102.10 C 226.92 98.87 226.47 95.56 225.96 92.34 C 227.56 89.08 229.28 85.67 229.37 81.96 C 229.26 77.78 229.63 73.04 226.18 69.99 C 226.20 68.03 226.49 66.08 227.07 64.21 C 229.29 66.35 231.59 68.43 234.47 69.66 C 238.01 68.81 241.54 67.68 244.26 65.14 C 249.38 61.74 251.74 55.92 254.63 50.76 C 257.58 42.30 249.67 32.73 240.83 33.68 C 235.00 34.75 231.89 40.47 227.49 43.87 C 223.62 44.46 219.74 44.26 215.88 43.76 C 213.90 42.20 212.62 39.37 210.01 38.90 C 209.49 39.17 208.46 39.72 207.94 40.00 L 209.55 40.18 C 211.80 41.94 213.65 44.11 215.68 46.11 C 219.49 46.07 223.25 46.78 227.05 46.98 C 228.73 46.14 229.44 44.14 230.91 43.00 C 234.11 40.62 236.19 36.78 240.07 35.36 C 243.06 34.66 246.33 35.29 248.48 37.58 C 252.34 40.37 254.88 45.14 253.10 49.89 C 249.60 57.40 244.46 65.43 235.97 67.75 C 233.51 68.39 232.01 65.93 230.62 64.36 C 227.77 60.67 229.05 55.80 229.25 51.55 C 226.82 54.47 227.04 58.37 227.52 61.91 C 225.71 61.14 223.94 60.33 222.18 59.49 C 222.10 59.93 221.95 60.82 221.88 61.26 C 222.30 61.32 223.13 61.44 223.55 61.50 C 223.72 63.55 223.91 65.60 224.04 67.66 C 222.86 67.78 221.69 67.89 220.52 67.99 C 225.44 68.88 227.66 74.52 227.55 79.03 C 227.40 82.48 227.48 87.00 223.72 88.58 C 223.14 87.24 222.59 85.90 222.06 84.55 C 218.89 82.27 215.79 79.89 212.37 78.01 C 212.81 78.82 213.70 80.44 214.14 81.25 C 210.93 81.95 207.49 82.00 204.42 80.69 C 201.48 79.05 199.19 76.43 196.13 74.98 C 197.67 78.08 200.45 80.21 203.36 81.94 C 202.36 82.54 200.38 83.74 199.38 84.34 C 204.39 83.54 209.46 82.52 214.51 83.73 C 206.99 89.49 197.28 91.40 188.07 92.44 C 184.05 93.10 180.63 95.44 176.96 97.02 C 170.93 98.53 166.61 92.81 163.19 88.76 C 160.81 83.90 157.68 79.28 156.37 73.96 C 156.90 70.09 157.38 66.12 158.82 62.46 C 163.91 61.98 168.84 60.02 172.93 56.96 C 176.32 54.45 180.14 52.41 184.21 51.32 C 186.54 51.28 188.72 50.66 190.43 49.02 C 190.09 48.45 189.42 47.31 189.08 46.74 C 184.32 49.25 179.29 51.23 174.09 52.59 C 171.18 52.88 168.26 52.50 165.34 52.60 C 164.32 54.73 162.47 56.26 160.35 57.22 C 153.43 59.79 145.75 59.61 138.99 62.64 C 137.58 62.72 136.17 62.82 134.77 62.91 C 130.42 65.91 125.03 66.35 119.93 66.73 C 116.26 67.02 112.86 65.18 109.20 65.19 C 112.80 62.96 116.16 60.24 120.11 58.63 C 124.58 57.36 129.12 56.10 133.74 55.63 C 138.20 56.56 141.31 52.68 145.06 51.05 C 151.27 47.74 157.56 41.52 165.16 44.08 C 169.10 42.27 172.18 38.82 176.46 37.76 C 179.58 37.11 182.79 36.67 185.98 37.05 C 189.18 34.00 193.69 33.33 197.95 33.55 C 201.91 34.05 204.43 37.44 207.25 39.86 C 207.43 39.23 207.59 38.59 207.73 37.95 C 204.94 34.76 201.32 31.89 196.90 31.72 C 192.55 31.00 188.46 32.85 184.68 34.75 M 206.68 42.83 C 206.57 44.34 206.59 45.90 207.76 47.10 C 208.18 45.75 208.54 44.39 208.85 43.01 C 209.74 40.99 207.05 40.11 205.65 39.71 C 205.88 40.79 206.30 41.80 206.68 42.83 M 186.91 53.72 C 186.52 59.68 188.99 66.81 194.84 69.34 C 193.42 67.26 191.51 65.50 190.50 63.18 C 189.49 60.29 189.33 57.10 189.91 54.12 C 191.14 51.29 192.99 48.76 194.91 46.37 C 198.69 46.31 202.48 46.33 206.24 46.85 C 203.49 43.79 199.40 44.16 195.68 43.87 C 191.82 46.30 190.12 50.67 186.91 53.72 M 218.57 56.73 C 221.91 55.07 224.62 52.41 227.93 50.67 C 228.06 49.92 228.20 49.16 228.35 48.40 C 224.76 50.76 220.02 52.21 218.57 56.73 M 209.19 48.19 C 210.83 51.60 211.98 55.20 212.58 58.93 C 212.91 58.68 213.55 58.17 213.88 57.91 C 213.69 55.06 213.05 52.26 211.75 49.71 C 211.11 49.33 209.83 48.57 209.19 48.19 M 211.75 60.41 C 213.08 62.49 215.32 63.41 217.79 63.15 C 216.50 60.96 213.99 60.73 211.75 60.41 M 198.45 68.48 C 203.12 66.50 208.90 65.49 211.79 60.87 C 207.71 64.18 201.59 63.97 198.45 68.48 M 173.54 71.54 C 175.95 70.10 178.00 68.15 180.27 66.50 C 183.42 68.66 185.47 73.71 189.78 73.40 C 187.74 69.67 182.87 68.02 181.91 63.79 C 178.04 64.90 174.54 67.44 173.54 71.54 M 86.99 70.90 C 86.88 71.42 86.67 72.46 86.56 72.98 C 89.15 72.24 92.08 72.01 93.95 69.81 C 91.59 69.90 89.28 70.35 86.99 70.90 M 160.81 76.33 C 162.99 75.98 164.88 74.85 166.73 73.71 L 167.36 75.59 C 168.80 74.26 170.22 72.92 171.59 71.53 C 171.17 71.17 170.31 70.44 169.88 70.07 C 166.70 71.90 163.16 73.39 160.81 76.33 M 142.64 73.39 C 141.66 77.73 142.45 82.08 144.82 85.84 C 145.85 83.26 144.18 80.74 144.20 78.13 C 144.25 76.40 143.47 74.85 142.64 73.39 M 188.43 75.46 C 185.31 77.36 181.74 78.51 178.06 78.43 C 173.04 78.13 169.52 82.46 164.70 83.15 C 168.42 85.82 172.74 83.43 176.06 81.31 C 181.70 81.03 187.59 80.01 191.82 75.88 C 190.71 75.74 189.49 74.65 188.43 75.46 M 58.49 80.21 C 61.47 80.24 64.38 79.46 67.29 78.93 C 70.90 78.42 74.56 78.46 78.16 77.85 C 79.79 77.42 81.18 78.70 82.60 79.25 C 83.99 78.91 85.37 78.50 86.71 77.97 C 77.50 75.28 67.11 75.89 58.49 80.21 M 43.93 78.01 C 44.38 78.09 45.28 78.23 45.73 78.31 C 47.08 76.63 42.67 75.94 43.93 78.01 M 193.99 79.60 C 193.63 82.13 193.30 85.06 190.89 86.52 C 187.31 87.71 183.15 84.23 179.91 86.87 C 177.09 88.98 174.03 90.77 170.72 91.99 C 174.27 91.40 177.87 90.73 181.06 88.99 C 184.87 86.62 190.64 90.86 193.56 86.52 C 195.48 84.73 195.09 81.94 195.31 79.57 C 194.98 79.58 194.32 79.59 193.99 79.60 M 99.23 87.19 C 98.16 91.24 101.82 98.20 106.56 95.77 C 105.06 94.84 103.34 94.23 101.99 93.09 C 100.89 91.20 100.32 89.07 99.23 87.19 M 58.15 90.90 C 59.84 93.00 62.64 92.60 65.01 92.88 C 69.72 93.14 74.29 94.49 78.99 94.85 C 80.83 94.18 82.52 93.17 84.27 92.30 C 75.53 93.15 66.90 90.68 58.15 90.90 M 86.92 90.87 C 86.48 93.86 88.84 96.04 91.58 96.54 C 90.15 94.55 88.62 92.63 86.92 90.87 M 162.29 93.35 C 162.30 95.00 163.78 97.33 165.49 97.54 C 165.60 95.85 163.86 93.78 162.29 93.35 M 22.00 99.08 C 25.65 102.75 30.93 104.08 35.98 103.52 L 36.19 102.88 C 36.28 100.47 33.44 101.86 31.99 101.48 C 26.69 101.47 23.11 96.96 18.73 94.67 C 18.36 96.77 20.85 97.75 22.00 99.08 M 213.24 97.48 C 213.56 102.03 214.88 107.35 219.72 109.00 C 217.24 105.33 215.97 100.98 213.24 97.48 Z" />
<path fill="#FFFFFF" opacity="1.00" d=" M 158.09 60.53 C 162.71 57.99 167.04 54.42 172.61 54.56 C 168.23 57.59 163.21 59.25 158.09 60.53 Z" />
<path fill="#FFFFFF" opacity="1.00" d=" M 154.88 75.71 L 156.06 75.51 C 156.12 80.20 158.20 84.44 159.07 88.97 C 156.77 84.88 155.86 80.24 154.88 75.71 Z" />
</g>
<g id="#31322eff">
<path fill="#333333" opacity="1.00" d=" M 184.68 34.75 C 188.46 32.85 192.55 31.00 196.90 31.72 C 201.32 31.89 204.94 34.76 207.73 37.95 C 207.59 38.59 207.43 39.23 207.25 39.86 C 204.43 37.44 201.91 34.05 197.95 33.55 C 193.69 33.33 189.18 34.00 185.98 37.05 C 182.79 36.67 179.58 37.11 176.46 37.76 C 172.18 38.82 169.10 42.27 165.16 44.08 C 157.56 41.52 151.27 47.74 145.06 51.05 C 141.31 52.68 138.20 56.56 133.74 55.63 C 129.12 56.10 124.58 57.36 120.11 58.63 C 116.16 60.24 112.80 62.96 109.20 65.19 C 112.86 65.18 116.26 67.02 119.93 66.73 C 125.03 66.35 130.42 65.91 134.77 62.91 C 136.17 62.82 137.58 62.72 138.99 62.64 C 145.75 59.61 153.43 59.79 160.35 57.22 C 162.47 56.26 164.32 54.73 165.34 52.60 C 168.26 52.50 171.18 52.88 174.09 52.59 C 179.29 51.23 184.32 49.25 189.08 46.74 C 189.42 47.31 190.09 48.45 190.43 49.02 C 188.72 50.66 186.54 51.28 184.21 51.32 C 180.14 52.41 176.32 54.45 172.93 56.96 C 168.84 60.02 163.91 61.98 158.82 62.46 C 157.38 66.12 156.90 70.09 156.37 73.96 C 157.68 79.28 160.81 83.90 163.19 88.76 C 166.61 92.81 170.93 98.53 176.96 97.02 C 180.63 95.44 184.05 93.10 188.07 92.44 C 197.28 91.40 206.99 89.49 214.51 83.73 C 209.46 82.52 204.39 83.54 199.38 84.34 C 200.38 83.74 202.36 82.54 203.36 81.94 C 200.45 80.21 197.67 78.08 196.13 74.98 C 199.19 76.43 201.48 79.05 204.42 80.69 C 207.49 82.00 210.93 81.95 214.14 81.25 C 213.70 80.44 212.81 78.82 212.37 78.01 C 215.79 79.89 218.89 82.27 222.06 84.55 C 222.59 85.90 223.14 87.24 223.72 88.58 C 227.48 87.00 227.40 82.48 227.55 79.03 C 227.66 74.52 225.44 68.88 220.52 67.99 C 221.69 67.89 222.86 67.78 224.04 67.66 C 223.91 65.60 223.72 63.55 223.55 61.50 C 223.13 61.44 222.30 61.32 221.88 61.26 C 221.95 60.82 222.10 59.93 222.18 59.49 C 223.94 60.33 225.71 61.14 227.52 61.91 C 227.04 58.37 226.82 54.47 229.25 51.55 C 229.05 55.80 227.77 60.67 230.62 64.36 C 232.01 65.93 233.51 68.39 235.97 67.75 C 244.46 65.43 249.60 57.40 253.10 49.89 C 254.88 45.14 252.34 40.37 248.48 37.58 C 246.33 35.29 243.06 34.66 240.07 35.36 C 236.19 36.78 234.11 40.62 230.91 43.00 C 229.44 44.14 228.73 46.14 227.05 46.98 C 223.25 46.78 219.49 46.07 215.68 46.11 C 213.65 44.11 211.80 41.94 209.55 40.18 L 207.94 40.00 C 208.46 39.72 209.49 39.17 210.01 38.90 C 212.62 39.37 213.90 42.20 215.88 43.76 C 219.74 44.26 223.62 44.46 227.49 43.87 C 231.89 40.47 235.00 34.75 240.83 33.68 C 249.67 32.73 257.58 42.30 254.63 50.76 C 251.74 55.92 249.38 61.74 244.26 65.14 C 241.54 67.68 238.01 68.81 234.47 69.66 C 231.59 68.43 229.29 66.35 227.07 64.21 C 226.49 66.08 226.20 68.03 226.18 69.99 C 229.63 73.04 229.26 77.78 229.37 81.96 C 229.28 85.67 227.56 89.08 225.96 92.34 C 226.47 95.56 226.92 98.87 226.13 102.10 C 228.31 106.58 229.53 111.73 233.19 115.31 C 237.18 115.30 241.61 117.12 243.19 121.05 C 243.56 123.32 242.70 125.57 242.36 127.81 C 242.46 133.24 236.18 134.24 232.24 135.82 C 230.12 134.26 227.72 133.03 225.82 131.17 C 224.73 129.32 224.66 127.06 224.20 125.00 C 220.42 123.36 216.34 121.68 214.20 117.90 C 212.20 114.44 207.66 111.75 208.55 107.21 C 209.51 102.43 207.89 97.76 206.86 93.15 C 207.36 92.93 208.36 92.49 208.86 92.27 C 210.18 100.55 209.89 109.76 215.17 116.77 C 217.03 119.78 220.69 120.65 223.59 122.29 C 223.66 121.33 223.80 119.42 223.87 118.46 C 227.16 121.70 226.61 126.63 228.47 130.57 C 229.93 131.74 231.47 132.81 233.02 133.86 C 235.12 133.07 237.32 132.34 239.15 131.01 C 240.47 127.75 240.39 124.13 240.90 120.70 C 239.40 119.42 237.85 118.20 236.37 116.91 C 234.05 116.09 231.55 115.74 229.36 114.62 C 227.68 111.78 226.93 108.47 225.47 105.51 C 224.21 106.78 222.93 108.05 221.58 109.22 C 221.94 105.34 225.10 102.12 224.41 98.09 C 223.98 94.40 223.31 90.65 221.57 87.33 C 219.90 85.03 217.35 83.57 215.10 81.91 C 215.08 82.39 215.03 83.36 215.00 83.85 L 216.99 83.76 C 216.70 84.66 216.13 86.45 215.85 87.34 C 215.36 86.69 214.37 85.39 213.88 84.74 C 214.57 87.65 215.53 90.50 215.81 93.50 C 213.25 92.86 214.04 90.34 214.15 88.41 C 207.31 90.82 200.33 93.08 193.06 93.68 C 186.20 94.56 180.09 97.79 173.85 100.51 C 173.10 100.38 171.61 100.12 170.86 99.99 C 170.13 98.86 169.74 97.38 168.41 96.79 C 165.05 95.02 163.04 91.71 160.38 89.13 C 160.23 91.36 160.09 93.59 159.95 95.83 C 160.53 96.00 161.69 96.34 162.27 96.51 C 161.29 99.66 160.62 103.53 156.46 104.27 C 160.28 103.55 164.62 102.10 165.84 97.99 C 167.55 97.86 169.19 98.29 170.00 99.93 C 165.41 99.86 164.48 105.82 160.01 106.14 C 155.69 107.65 151.21 105.46 146.86 106.58 C 142.24 107.60 137.60 105.82 132.95 106.37 C 129.42 106.89 126.31 104.93 123.52 103.06 C 115.27 106.44 105.26 105.48 97.97 100.38 C 89.47 101.89 80.84 102.91 72.20 102.41 C 65.30 101.75 59.22 97.25 52.13 98.11 C 52.22 98.50 52.42 99.27 52.52 99.65 C 47.22 100.54 42.54 104.04 36.95 103.39 C 37.01 103.08 37.13 102.46 37.19 102.15 C 42.29 100.95 47.42 99.52 51.54 96.07 C 59.31 94.68 66.40 99.33 74.10 99.18 C 78.09 99.11 82.12 100.08 86.04 98.99 C 89.86 98.06 93.90 98.97 97.68 97.82 C 98.70 97.83 99.73 97.85 100.76 97.86 C 100.27 98.22 99.29 98.95 98.81 99.31 C 105.67 104.34 114.63 102.65 122.48 101.83 C 120.55 96.95 117.31 90.49 122.46 86.41 C 122.00 88.42 121.53 90.43 121.12 92.46 C 122.76 95.53 124.25 98.71 125.08 102.11 C 126.46 102.98 127.81 103.95 129.34 104.55 C 132.23 104.74 135.11 103.80 138.01 104.18 C 141.00 104.47 144.08 104.82 147.01 103.92 C 150.00 102.91 153.13 103.84 156.18 103.92 C 157.03 100.97 159.71 99.20 161.62 96.98 C 160.92 96.75 159.53 96.30 158.83 96.07 C 157.27 92.10 157.33 87.54 154.83 83.91 C 153.28 81.62 153.27 78.78 153.13 76.12 C 152.30 75.87 150.65 75.37 149.83 75.12 C 148.43 80.93 152.51 87.80 147.98 92.71 C 147.23 90.49 147.77 88.20 148.05 85.95 C 148.07 82.98 147.92 80.00 147.96 77.02 C 148.39 76.54 149.25 75.60 149.68 75.13 C 149.64 74.39 149.58 72.90 149.54 72.16 C 151.34 73.20 153.18 74.16 155.06 75.05 C 155.16 73.21 155.30 71.37 155.49 69.53 C 154.80 68.24 154.10 66.95 153.40 65.67 C 153.95 65.45 155.05 65.01 155.59 64.79 C 156.24 63.22 156.94 61.66 157.69 60.13 C 152.97 62.15 147.75 61.90 142.89 63.35 C 140.20 64.06 137.45 64.44 134.72 64.96 C 130.17 68.35 124.13 68.32 118.78 69.48 C 118.50 74.26 118.68 79.93 123.49 82.50 C 127.69 83.17 131.97 83.20 136.20 82.80 C 138.98 86.18 141.70 89.63 143.88 93.43 C 140.14 91.77 136.60 89.30 135.65 85.07 C 131.46 84.79 127.26 84.61 123.06 84.37 C 121.70 84.27 120.72 83.13 119.57 82.53 C 118.65 83.83 118.11 85.95 116.13 85.85 C 111.48 86.35 106.61 86.75 102.08 85.28 C 97.29 86.84 92.08 86.27 87.33 88.22 C 87.44 87.47 87.61 86.74 87.80 86.02 C 89.20 85.56 90.57 85.01 91.91 84.38 C 94.28 84.07 96.67 84.12 99.04 84.47 C 99.66 83.77 100.30 83.07 100.95 82.38 C 106.61 84.44 113.02 83.97 118.66 82.12 C 117.46 77.88 117.25 73.48 117.55 69.11 C 114.72 68.09 111.78 67.38 108.87 66.62 C 105.11 66.11 101.34 66.98 97.62 67.47 C 97.73 68.01 97.95 69.09 98.05 69.63 L 98.84 68.73 C 99.41 71.32 100.15 73.88 101.34 76.26 C 99.65 78.01 97.65 79.39 95.41 80.33 C 95.57 78.07 97.04 76.65 98.86 75.62 C 98.25 73.86 97.71 72.07 97.14 70.30 C 97.04 68.80 96.38 66.52 94.30 67.16 C 90.44 66.59 86.81 69.10 82.99 67.94 C 75.98 67.02 68.47 67.21 62.31 71.11 C 58.20 74.12 53.27 75.62 48.55 77.39 C 46.88 76.53 45.07 75.77 43.13 76.05 C 38.22 76.71 33.26 77.24 28.46 78.52 C 24.03 80.57 23.30 85.64 20.62 89.23 C 20.90 89.19 21.46 89.12 21.73 89.08 C 21.79 90.06 21.89 92.02 21.94 93.00 C 23.88 91.47 25.69 89.63 28.08 88.81 C 32.34 87.13 37.02 88.17 41.45 87.66 C 44.30 87.27 47.15 86.92 50.02 86.77 C 50.14 86.29 50.37 85.33 50.49 84.86 C 52.24 85.03 54.01 85.15 55.77 85.28 C 54.90 85.78 53.15 86.76 52.28 87.26 C 59.85 85.88 67.42 84.51 74.99 83.24 C 78.95 84.08 82.32 81.34 86.21 81.47 C 89.73 81.35 93.23 82.02 96.76 81.70 L 96.54 79.81 C 97.47 80.42 99.32 81.66 100.24 82.28 C 93.98 85.35 87.00 83.63 80.36 84.04 C 82.80 85.03 85.30 86.02 87.02 88.12 C 82.00 89.57 77.88 84.83 72.92 86.18 C 66.05 87.38 59.14 88.36 52.22 89.27 C 51.83 88.54 51.04 87.07 50.65 86.33 C 50.55 87.49 50.36 89.81 50.27 90.97 C 49.96 90.99 49.33 91.02 49.02 91.04 L 49.94 89.21 C 44.64 89.80 39.32 90.18 33.98 90.03 C 29.52 89.75 26.54 93.89 22.35 94.80 C 20.99 92.83 19.99 90.63 18.56 88.71 C 20.93 85.00 21.87 80.30 25.39 77.41 C 30.95 76.11 36.38 74.18 41.99 73.10 C 44.82 73.45 47.66 73.77 50.47 74.20 C 57.09 71.55 63.49 68.38 70.07 65.66 C 74.69 64.03 79.52 65.40 84.14 66.26 C 87.09 65.82 89.97 64.57 93.01 65.00 C 98.06 65.78 103.05 64.42 108.04 63.82 C 112.29 62.25 115.91 59.34 119.55 56.68 C 125.60 53.86 132.79 55.14 138.85 52.18 C 145.60 50.73 149.80 44.28 156.51 42.73 C 159.77 42.25 163.10 41.94 166.24 40.88 C 169.27 39.36 172.06 37.38 175.17 36.04 C 178.31 35.37 181.78 36.48 184.68 34.75 M 158.09 60.53 C 163.21 59.25 168.23 57.59 172.61 54.56 C 167.04 54.42 162.71 57.99 158.09 60.53 M 154.88 75.71 C 155.86 80.24 156.77 84.88 159.07 88.97 C 158.20 84.44 156.12 80.20 156.06 75.51 L 154.88 75.71 Z" />
<path fill="#333333" opacity="1.00" d=" M 206.68 42.83 C 206.30 41.80 205.88 40.79 205.65 39.71 C 207.05 40.11 209.74 40.99 208.85 43.01 C 208.54 44.39 208.18 45.75 207.76 47.10 C 206.59 45.90 206.57 44.34 206.68 42.83 Z" />
<path fill="#333333" opacity="1.00" d=" M 186.91 53.72 C 190.12 50.67 191.82 46.30 195.68 43.87 C 199.40 44.16 203.49 43.79 206.24 46.85 C 202.48 46.33 198.69 46.31 194.91 46.37 C 192.99 48.76 191.14 51.29 189.91 54.12 C 189.33 57.10 189.49 60.29 190.50 63.18 C 191.51 65.50 193.42 67.26 194.84 69.34 C 188.99 66.81 186.52 59.68 186.91 53.72 Z" />
<path fill="#333333" opacity="1.00" d=" M 218.57 56.73 C 220.02 52.21 224.76 50.76 228.35 48.40 C 228.20 49.16 228.06 49.92 227.93 50.67 C 224.62 52.41 221.91 55.07 218.57 56.73 Z" />
<path fill="#333333" opacity="1.00" d=" M 209.19 48.19 C 209.83 48.57 211.11 49.33 211.75 49.71 C 213.05 52.26 213.69 55.06 213.88 57.91 C 213.55 58.17 212.91 58.68 212.58 58.93 C 211.98 55.20 210.83 51.60 209.19 48.19 Z" />
<path fill="#333333" opacity="1.00" d=" M 211.75 60.41 C 213.99 60.73 216.50 60.96 217.79 63.15 C 215.32 63.41 213.08 62.49 211.75 60.41 Z" />
<path fill="#333333" opacity="1.00" d=" M 198.45 68.48 C 201.59 63.97 207.71 64.18 211.79 60.87 C 208.90 65.49 203.12 66.50 198.45 68.48 Z" />
<path fill="#333333" opacity="1.00" d=" M 173.54 71.54 C 174.54 67.44 178.04 64.90 181.91 63.79 C 182.87 68.02 187.74 69.67 189.78 73.40 C 185.47 73.71 183.42 68.66 180.27 66.50 C 178.00 68.15 175.95 70.10 173.54 71.54 Z" />
<path fill="#333333" opacity="1.00" d=" M 86.99 70.90 C 89.28 70.35 91.59 69.90 93.95 69.81 C 92.08 72.01 89.15 72.24 86.56 72.98 C 86.67 72.46 86.88 71.42 86.99 70.90 Z" />
<path fill="#333333" opacity="1.00" d=" M 160.81 76.33 C 163.16 73.39 166.70 71.90 169.88 70.07 C 170.31 70.44 171.17 71.17 171.59 71.53 C 170.22 72.92 168.80 74.26 167.36 75.59 L 166.73 73.71 C 164.88 74.85 162.99 75.98 160.81 76.33 Z" />
<path fill="#333333" opacity="1.00" d=" M 142.64 73.39 C 143.47 74.85 144.25 76.40 144.20 78.13 C 144.18 80.74 145.85 83.26 144.82 85.84 C 142.45 82.08 141.66 77.73 142.64 73.39 Z" />
<path fill="#333333" opacity="1.00" d=" M 188.43 75.46 C 189.49 74.65 190.71 75.74 191.82 75.88 C 187.59 80.01 181.70 81.03 176.06 81.31 C 172.74 83.43 168.42 85.82 164.70 83.15 C 169.52 82.46 173.04 78.13 178.06 78.43 C 181.74 78.51 185.31 77.36 188.43 75.46 Z" />
<path fill="#333333" opacity="1.00" d=" M 58.49 80.21 C 67.11 75.89 77.50 75.28 86.71 77.97 C 85.37 78.50 83.99 78.91 82.60 79.25 C 81.18 78.70 79.79 77.42 78.16 77.85 C 74.56 78.46 70.90 78.42 67.29 78.93 C 64.38 79.46 61.47 80.24 58.49 80.21 Z" />
<path fill="#333333" opacity="1.00" d=" M 43.93 78.01 C 42.67 75.94 47.08 76.63 45.73 78.31 C 45.28 78.23 44.38 78.09 43.93 78.01 Z" />
<path fill="#333333" opacity="1.00" d=" M 193.99 79.60 C 194.32 79.59 194.98 79.58 195.31 79.57 C 195.09 81.94 195.48 84.73 193.56 86.52 C 190.64 90.86 184.87 86.62 181.06 88.99 C 177.87 90.73 174.27 91.40 170.72 91.99 C 174.03 90.77 177.09 88.98 179.91 86.87 C 183.15 84.23 187.31 87.71 190.89 86.52 C 193.30 85.06 193.63 82.13 193.99 79.60 Z" />
<path fill="#333333" opacity="1.00" d=" M 99.23 87.19 C 100.32 89.07 100.89 91.20 101.99 93.09 C 103.34 94.23 105.06 94.84 106.56 95.77 C 101.82 98.20 98.16 91.24 99.23 87.19 Z" />
<path fill="#333333" opacity="1.00" d=" M 58.15 90.90 C 66.90 90.68 75.53 93.15 84.27 92.30 C 82.52 93.17 80.83 94.18 78.99 94.85 C 74.29 94.49 69.72 93.14 65.01 92.88 C 62.64 92.60 59.84 93.00 58.15 90.90 Z" />
<path fill="#333333" opacity="1.00" d=" M 86.92 90.87 C 88.62 92.63 90.15 94.55 91.58 96.54 C 88.84 96.04 86.48 93.86 86.92 90.87 Z" />
<path fill="#333333" opacity="1.00" d=" M 162.29 93.35 C 163.86 93.78 165.60 95.85 165.49 97.54 C 163.78 97.33 162.30 95.00 162.29 93.35 Z" />
<path fill="#333333" opacity="1.00" d=" M 22.00 99.08 C 20.85 97.75 18.36 96.77 18.73 94.67 C 23.11 96.96 26.69 101.47 31.99 101.48 C 33.44 101.86 36.28 100.47 36.19 102.88 L 35.98 103.52 C 30.93 104.08 25.65 102.75 22.00 99.08 Z" />
<path fill="#333333" opacity="1.00" d=" M 213.24 97.48 C 215.97 100.98 217.24 105.33 219.72 109.00 C 214.88 107.35 213.56 102.03 213.24 97.48 Z" />
</g>
</svg>
