<?xml version="1.0" encoding="UTF-8" ?>
<!DOCTYPE svg PUBLIC "-//W3C//DTD SVG 1.1//EN" "http://www.w3.org/Graphics/SVG/1.1/DTD/svg11.dtd">
<svg width="275pt" height="159pt" viewBox="0 0 275 159" version="1.1" xmlns="http://www.w3.org/2000/svg">
<g id="#ffffffff">
<path fill="#FFFFFF" opacity="1.00" d=" M 0.00 0.00 L 275.00 0.00 L 275.00 159.00 L 0.00 159.00 L 0.00 0.00 M 128.39 29.37 C 125.08 31.59 125.63 35.83 124.81 39.23 C 123.24 46.13 124.79 53.18 124.82 60.15 C 124.79 65.40 127.94 69.92 128.70 74.98 C 127.94 76.86 127.25 78.77 126.79 80.75 C 127.48 80.72 128.87 80.64 129.56 80.60 C 128.92 80.77 127.64 81.11 127.00 81.27 C 128.84 82.00 130.64 82.90 131.96 84.40 C 131.49 84.24 130.54 83.90 130.06 83.74 C 125.46 84.31 121.20 82.97 116.92 81.53 C 113.87 78.86 110.20 76.87 106.01 77.22 C 107.17 74.57 107.56 71.69 108.05 68.86 C 108.85 63.88 110.15 58.90 109.58 53.82 C 103.02 49.14 94.23 50.35 86.82 51.99 C 79.21 54.61 72.72 59.58 66.15 64.09 C 63.01 66.31 58.98 66.18 55.36 66.89 C 55.89 67.54 56.41 68.19 56.94 68.84 C 60.38 67.78 64.00 67.39 67.39 66.23 C 72.98 62.60 78.22 58.41 84.06 55.18 C 91.46 52.19 99.71 52.28 107.21 54.85 C 107.36 58.20 107.03 61.54 107.18 64.89 C 107.37 69.45 104.83 73.42 103.73 77.71 C 102.96 77.89 102.19 78.09 101.43 78.31 C 97.85 75.60 93.42 75.04 89.07 75.35 C 88.58 74.73 87.60 73.49 87.11 72.87 C 87.59 71.83 88.11 70.82 88.69 69.84 C 92.01 70.14 95.34 70.39 98.68 70.28 C 100.51 68.09 101.68 65.46 102.30 62.68 C 100.49 64.33 99.20 66.62 97.02 67.80 C 91.72 67.99 86.33 66.75 81.11 68.25 C 78.10 69.00 76.07 71.52 73.90 73.54 C 73.40 74.95 72.82 76.33 72.23 77.71 C 67.49 73.67 61.94 69.94 55.48 69.80 C 55.02 69.39 54.55 68.98 54.09 68.57 C 52.31 69.82 50.43 70.92 48.50 71.92 C 45.86 74.03 43.45 76.56 42.54 79.91 C 43.47 85.97 44.60 92.00 45.45 98.07 C 45.58 99.90 46.64 101.44 47.39 103.06 C 44.42 104.30 41.87 106.38 40.75 109.47 C 44.48 108.10 47.73 105.00 51.95 105.34 C 58.13 105.65 64.28 108.83 67.76 114.00 C 68.63 114.31 69.50 114.63 70.37 114.94 C 70.87 114.78 71.87 114.46 72.37 114.30 C 73.63 110.01 77.82 108.34 80.63 105.29 C 76.44 106.27 72.20 107.89 69.39 111.32 C 64.55 106.03 57.62 103.43 50.61 102.73 C 48.21 99.70 47.03 96.10 47.48 92.21 C 46.40 89.44 45.86 86.48 44.49 83.82 C 46.25 78.81 49.42 73.65 54.86 72.18 C 59.88 71.32 64.01 74.68 68.00 77.14 C 71.74 79.55 73.23 83.89 75.50 87.50 C 76.73 89.48 77.68 91.66 78.01 93.99 C 78.81 97.47 76.27 100.77 73.53 102.62 C 70.74 104.85 67.05 103.05 63.94 102.66 C 58.06 101.62 53.98 96.91 48.82 94.33 C 50.24 99.10 54.33 102.06 58.63 104.08 C 63.50 104.66 68.18 107.62 73.18 106.10 C 74.60 104.03 76.52 102.43 78.39 100.80 C 78.98 98.51 79.57 96.22 80.31 93.98 C 78.10 88.62 75.74 83.33 73.13 78.16 C 76.64 74.47 79.90 69.35 85.73 69.85 C 85.69 71.75 85.67 73.65 85.76 75.55 C 81.81 76.55 78.23 78.62 75.30 81.42 C 79.39 81.48 82.66 78.49 86.66 78.03 C 90.29 77.52 94.41 77.07 97.57 79.33 C 99.38 80.67 101.64 80.77 103.79 80.87 C 102.19 81.58 101.00 82.78 101.28 84.75 C 103.79 83.57 105.93 81.83 107.97 80.00 C 110.17 79.94 111.78 81.58 113.52 82.64 C 113.12 83.69 112.31 85.78 111.90 86.83 C 108.98 85.11 105.06 84.79 102.83 87.75 C 107.00 86.42 111.48 87.76 114.23 91.15 C 114.15 93.61 113.52 96.05 113.74 98.52 C 114.82 100.80 116.99 102.27 119.01 103.65 C 120.07 102.90 121.14 102.14 122.20 101.38 C 121.43 101.50 119.90 101.74 119.14 101.86 C 117.99 100.63 116.84 99.40 115.70 98.17 C 115.51 96.02 115.40 93.87 115.31 91.72 C 117.06 91.78 118.97 90.70 120.66 91.43 C 121.91 92.81 122.98 94.35 124.22 95.75 C 124.51 97.72 125.23 99.62 127.14 100.56 C 126.49 99.02 125.77 97.51 125.08 95.99 C 127.58 94.88 130.05 93.73 132.56 92.66 C 133.50 98.10 133.31 103.65 134.13 109.10 C 134.82 114.55 137.90 119.49 142.38 122.64 C 141.20 122.96 140.03 123.33 138.84 123.60 C 131.23 124.00 123.53 123.95 115.98 122.68 C 112.73 123.64 109.40 124.27 105.99 124.14 C 100.64 123.93 95.93 126.75 91.14 128.63 C 85.45 128.80 79.86 126.43 74.15 127.68 C 66.71 129.31 59.02 127.70 51.97 125.18 C 48.22 123.88 44.17 123.75 40.47 122.28 C 36.68 120.67 32.40 120.10 29.26 117.21 C 29.69 115.04 30.21 112.88 30.91 110.78 C 31.97 108.05 31.37 105.04 32.22 102.26 C 33.46 98.04 32.50 93.39 34.54 89.38 C 37.13 84.34 40.92 80.01 43.34 74.88 C 38.92 77.73 36.71 82.71 33.72 86.84 C 28.39 94.64 30.02 104.61 26.86 113.16 C 26.17 115.14 25.95 118.00 28.24 119.00 C 34.17 123.01 40.95 125.68 47.90 127.30 C 54.67 129.60 61.75 131.17 68.94 131.12 C 72.63 130.85 76.19 129.59 79.91 129.58 C 84.25 130.08 88.57 131.73 92.98 131.01 C 97.36 129.73 101.19 126.40 105.99 126.70 C 109.69 126.89 113.37 126.46 116.92 125.38 C 125.73 126.22 135.11 128.22 143.65 125.06 C 148.50 126.32 153.35 123.76 158.10 125.43 C 166.12 125.95 171.77 119.19 176.29 113.50 C 177.62 109.87 177.23 105.90 177.34 102.11 C 175.33 98.37 174.79 94.05 174.36 89.89 C 174.02 86.98 172.57 84.09 173.48 81.15 C 174.25 78.52 174.99 75.80 176.61 73.54 C 176.50 73.02 176.28 71.99 176.17 71.47 C 176.97 69.64 177.73 67.80 178.70 66.06 C 180.56 71.32 182.76 76.49 185.99 81.07 C 187.87 83.40 190.99 84.60 192.28 87.43 C 193.39 89.72 194.38 92.08 195.30 94.46 C 197.55 100.09 195.97 106.20 196.40 112.07 C 196.30 115.25 199.20 117.81 202.04 118.70 C 207.82 120.15 213.70 118.43 219.27 116.90 C 224.56 115.41 229.67 119.12 234.93 117.82 C 238.11 117.48 240.64 115.39 243.48 114.14 C 244.42 112.45 245.23 110.70 245.92 108.90 C 242.36 106.80 238.07 106.53 234.57 104.32 C 228.57 100.88 221.97 98.60 216.05 95.06 C 208.82 89.19 207.01 79.52 204.10 71.16 C 207.68 68.91 210.43 65.26 214.63 64.07 C 219.50 61.95 225.20 60.26 228.11 55.42 C 228.87 52.55 231.16 50.08 230.82 46.97 C 230.55 44.87 230.95 42.18 228.99 40.76 C 222.52 39.88 217.25 45.92 210.73 44.47 C 205.18 43.67 199.60 44.46 194.08 45.09 C 189.50 45.84 185.41 43.15 181.07 42.19 C 172.97 39.99 165.78 35.58 158.01 32.56 C 153.36 29.63 147.61 29.77 142.85 27.16 C 138.02 25.36 132.24 25.59 128.39 29.37 M 105.61 99.46 C 106.72 101.72 109.29 101.87 111.47 101.60 C 106.52 99.29 105.13 93.83 102.40 89.55 C 101.23 93.27 104.42 96.19 105.61 99.46 M 92.19 99.76 C 88.31 101.89 85.66 105.51 82.30 108.29 C 80.62 109.76 79.06 111.38 77.66 113.13 C 84.46 109.83 89.58 103.95 96.25 100.42 C 94.67 98.39 95.79 96.07 96.19 93.86 C 94.33 95.42 92.75 97.35 92.19 99.76 M 108.46 107.88 C 107.51 109.54 106.86 111.34 106.35 113.18 C 104.57 112.58 102.78 112.04 100.98 111.51 C 102.71 110.28 104.41 109.02 106.08 107.72 C 105.55 107.37 104.48 106.67 103.94 106.31 C 101.76 107.39 100.48 109.70 98.97 111.54 C 95.86 111.15 92.89 112.25 89.93 113.03 C 86.87 113.75 83.78 114.35 80.75 115.17 C 85.89 116.77 91.36 115.60 96.27 113.78 C 102.27 112.68 107.26 116.65 112.75 118.13 C 111.53 116.70 110.14 115.44 108.75 114.18 C 109.17 112.70 109.47 111.20 109.84 109.71 C 110.64 109.94 112.23 110.40 113.03 110.63 C 115.05 108.78 117.77 107.15 117.91 104.08 C 114.88 105.76 112.33 108.87 108.46 107.88 Z" />
<path fill="#FFFFFF" opacity="1.00" d=" M 134.23 28.37 C 137.08 28.10 140.12 28.19 142.74 29.48 C 146.64 31.49 151.14 31.76 155.06 33.75 C 166.28 37.73 176.98 43.05 187.96 47.66 C 194.32 48.38 200.65 46.73 207.03 47.25 C 210.54 47.31 214.29 48.09 217.60 46.50 C 220.82 45.06 224.15 43.89 227.51 42.80 C 229.54 46.03 229.05 50.01 226.88 53.04 C 224.93 54.74 223.65 57.24 221.19 58.32 C 217.45 60.26 213.33 61.44 209.90 63.95 C 206.83 65.84 204.59 69.40 200.70 69.67 C 198.74 69.60 196.39 69.61 195.00 67.99 C 192.41 64.98 189.60 62.12 187.42 58.78 C 176.72 55.93 165.12 58.84 154.83 54.19 C 149.98 52.02 145.59 48.86 141.73 45.23 C 144.34 49.53 147.49 53.54 151.67 56.40 C 156.45 62.00 160.76 68.00 164.18 74.55 C 159.45 80.08 151.66 80.73 144.91 81.72 C 140.75 81.79 136.57 81.74 132.43 81.27 C 131.12 80.53 130.36 79.13 129.35 78.06 C 130.20 78.34 131.90 78.91 132.76 79.19 C 131.54 74.35 129.43 69.82 127.98 65.06 C 126.09 55.57 125.12 45.57 127.64 36.09 C 128.35 32.57 131.54 30.37 134.23 28.37 Z" />
<path fill="#FFFFFF" opacity="1.00" d=" M 154.90 57.31 C 161.68 61.55 169.99 59.89 177.54 60.94 C 176.15 64.00 175.36 67.28 174.50 70.51 C 170.60 66.98 166.00 63.83 160.64 63.19 C 158.49 61.47 156.46 59.59 154.90 57.31 Z" />
<path fill="#FFFFFF" opacity="1.00" d=" M 179.40 61.30 C 182.79 60.86 186.14 61.95 188.91 63.88 C 191.00 66.15 192.38 68.97 194.27 71.41 C 196.37 71.53 198.47 71.61 200.57 71.66 C 203.57 74.13 204.30 78.10 205.74 81.50 C 208.11 88.03 211.43 94.89 217.68 98.49 C 221.69 100.78 226.40 101.87 229.93 104.99 C 231.88 106.71 234.26 108.12 236.98 107.75 C 239.27 107.38 241.15 108.72 242.83 110.07 C 240.84 113.54 236.61 113.86 233.14 114.86 C 228.12 115.30 223.07 114.20 218.02 114.61 C 213.46 114.37 209.59 118.09 204.99 117.15 C 202.57 116.95 200.71 115.27 198.74 114.05 C 198.97 108.67 199.80 103.26 199.10 97.88 C 197.91 93.09 195.95 88.47 193.38 84.25 C 185.21 79.36 182.50 69.67 179.40 61.30 Z" />
<path fill="#FFFFFF" opacity="1.00" d=" M 162.32 64.32 C 166.95 66.22 169.49 70.85 173.96 73.01 C 172.56 77.08 168.83 80.97 170.18 85.53 C 172.30 91.47 173.19 97.74 174.84 103.82 C 173.75 106.76 173.78 109.88 174.31 112.93 C 170.00 117.65 165.33 124.10 158.15 123.52 C 154.50 122.48 150.76 122.04 146.97 122.61 C 145.21 121.12 142.99 120.24 141.40 118.57 C 138.81 114.18 136.49 109.55 135.78 104.44 C 135.43 99.67 134.05 95.05 133.72 90.28 C 136.43 90.97 139.16 92.26 139.71 95.29 C 141.65 97.18 143.39 99.49 146.03 100.44 C 147.38 100.27 148.70 99.89 150.02 99.58 C 150.71 98.81 151.41 98.04 152.12 97.28 C 151.48 97.42 150.21 97.70 149.57 97.84 C 149.58 96.73 149.62 94.51 149.63 93.40 C 146.52 90.99 142.61 89.99 138.80 89.37 C 137.41 87.08 135.66 85.06 133.86 83.09 C 138.20 83.92 142.65 85.57 147.04 84.00 C 148.66 83.66 150.30 83.44 151.91 83.04 C 156.67 81.62 161.74 80.11 165.17 76.27 C 165.42 73.97 165.87 71.66 165.59 69.34 C 164.70 67.54 163.38 66.00 162.32 64.32 Z" />
<path fill="#FFFFFF" opacity="1.00" d=" M 114.28 83.09 C 117.42 82.82 120.20 83.86 121.55 86.82 C 122.36 86.47 123.17 86.12 123.98 85.77 C 126.83 86.30 129.86 86.20 132.45 87.71 C 133.18 87.55 134.62 87.23 135.34 87.07 C 134.24 88.41 133.05 89.67 131.87 90.95 C 129.68 91.50 127.51 92.13 125.31 92.65 C 122.93 88.88 118.51 88.16 114.40 88.68 C 114.33 86.82 114.34 84.95 114.28 83.09 Z" />
<path fill="#FFFFFF" opacity="1.00" d=" M 140.38 91.97 C 143.04 93.00 146.58 93.30 147.30 96.63 C 145.17 96.16 143.13 95.41 141.12 94.57 C 140.87 93.70 140.62 92.83 140.38 91.97 Z" />
</g>
<g id="#090a09ff">
<path fill="#333333" opacity="1.00" d=" M 128.39 29.37 C 132.24 25.59 138.02 25.36 142.85 27.16 C 147.61 29.77 153.36 29.63 158.01 32.56 C 165.78 35.58 172.97 39.99 181.07 42.19 C 185.41 43.15 189.50 45.84 194.08 45.09 C 199.60 44.46 205.18 43.67 210.73 44.47 C 217.25 45.92 222.52 39.88 228.99 40.76 C 230.95 42.18 230.55 44.87 230.82 46.97 C 231.16 50.08 228.87 52.55 228.11 55.42 C 225.20 60.26 219.50 61.95 214.63 64.07 C 210.43 65.26 207.68 68.91 204.10 71.16 C 207.01 79.52 208.82 89.19 216.05 95.06 C 221.97 98.60 228.57 100.88 234.57 104.32 C 238.07 106.53 242.36 106.80 245.92 108.90 C 245.23 110.70 244.42 112.45 243.48 114.14 C 240.64 115.39 238.11 117.48 234.93 117.82 C 229.67 119.12 224.56 115.41 219.27 116.90 C 213.70 118.43 207.82 120.15 202.04 118.70 C 199.20 117.81 196.30 115.25 196.40 112.07 C 195.97 106.20 197.55 100.09 195.30 94.46 C 194.38 92.08 193.39 89.72 192.28 87.43 C 190.99 84.60 187.87 83.40 185.99 81.07 C 182.76 76.49 180.56 71.32 178.70 66.06 C 177.73 67.80 176.97 69.64 176.17 71.47 C 176.28 71.99 176.50 73.02 176.61 73.54 C 174.99 75.80 174.25 78.52 173.48 81.15 C 172.57 84.09 174.02 86.98 174.36 89.89 C 174.79 94.05 175.33 98.37 177.34 102.11 C 177.23 105.90 177.62 109.87 176.29 113.50 C 171.77 119.19 166.12 125.95 158.10 125.43 C 153.35 123.76 148.50 126.32 143.65 125.06 C 135.11 128.22 125.73 126.22 116.92 125.38 C 113.37 126.46 109.69 126.89 105.99 126.70 C 101.19 126.40 97.36 129.73 92.98 131.01 C 88.57 131.73 84.25 130.08 79.91 129.58 C 76.19 129.59 72.63 130.85 68.94 131.12 C 61.75 131.17 54.67 129.60 47.90 127.30 C 40.95 125.68 34.17 123.01 28.24 119.00 C 25.95 118.00 26.17 115.14 26.86 113.16 C 30.02 104.61 28.39 94.64 33.72 86.84 C 36.71 82.71 38.92 77.73 43.34 74.88 C 40.92 80.01 37.13 84.34 34.54 89.38 C 32.50 93.39 33.46 98.04 32.22 102.26 C 31.37 105.04 31.97 108.05 30.91 110.78 C 30.21 112.88 29.69 115.04 29.26 117.21 C 32.40 120.10 36.68 120.67 40.47 122.28 C 44.17 123.75 48.22 123.88 51.97 125.18 C 59.02 127.70 66.71 129.31 74.15 127.68 C 79.86 126.43 85.45 128.80 91.14 128.63 C 95.93 126.75 100.64 123.93 105.99 124.14 C 109.40 124.27 112.73 123.64 115.98 122.68 C 123.53 123.95 131.23 124.00 138.84 123.60 C 140.03 123.33 141.20 122.96 142.38 122.64 C 137.90 119.49 134.82 114.55 134.13 109.10 C 133.31 103.65 133.50 98.10 132.56 92.66 C 130.05 93.73 127.58 94.88 125.08 95.99 C 125.77 97.51 126.49 99.02 127.14 100.56 C 125.23 99.62 124.51 97.72 124.22 95.75 C 122.98 94.35 121.91 92.81 120.66 91.43 C 118.97 90.70 117.06 91.78 115.31 91.72 C 115.40 93.87 115.51 96.02 115.70 98.17 C 116.84 99.40 117.99 100.63 119.14 101.86 C 119.90 101.74 121.43 101.50 122.20 101.38 C 121.14 102.14 120.07 102.90 119.01 103.65 C 116.99 102.27 114.82 100.80 113.74 98.52 C 113.52 96.05 114.15 93.61 114.23 91.15 C 111.48 87.76 107.00 86.42 102.83 87.75 C 105.06 84.79 108.98 85.11 111.90 86.83 C 112.31 85.78 113.12 83.69 113.52 82.64 C 111.78 81.58 110.17 79.94 107.97 80.00 C 105.93 81.83 103.79 83.57 101.28 84.75 C 101.00 82.78 102.19 81.58 103.79 80.87 C 101.64 80.77 99.38 80.67 97.57 79.33 C 94.41 77.07 90.29 77.52 86.66 78.03 C 82.66 78.49 79.39 81.48 75.30 81.42 C 78.23 78.62 81.81 76.55 85.76 75.55 C 85.67 73.65 85.69 71.75 85.73 69.85 C 79.90 69.35 76.64 74.47 73.13 78.16 C 75.74 83.33 78.10 88.62 80.31 93.98 C 79.57 96.22 78.98 98.51 78.39 100.80 C 76.52 102.43 74.60 104.03 73.18 106.10 C 68.18 107.62 63.50 104.66 58.63 104.08 C 54.33 102.06 50.24 99.10 48.82 94.33 C 53.98 96.91 58.06 101.62 63.94 102.66 C 67.05 103.05 70.74 104.85 73.53 102.62 C 76.27 100.77 78.81 97.47 78.01 93.99 C 77.68 91.66 76.73 89.48 75.50 87.50 C 73.23 83.89 71.74 79.55 68.00 77.14 C 64.01 74.68 59.88 71.32 54.86 72.18 C 49.42 73.65 46.25 78.81 44.49 83.82 C 45.86 86.48 46.40 89.44 47.48 92.21 C 47.03 96.10 48.21 99.70 50.61 102.73 C 57.62 103.43 64.55 106.03 69.39 111.32 C 72.20 107.89 76.44 106.27 80.63 105.29 C 77.82 108.34 73.63 110.01 72.37 114.30 C 71.87 114.46 70.87 114.78 70.37 114.94 C 69.50 114.63 68.63 114.31 67.76 114.00 C 64.28 108.83 58.13 105.65 51.95 105.34 C 47.73 105.00 44.48 108.10 40.75 109.47 C 41.87 106.38 44.42 104.30 47.39 103.06 C 46.64 101.44 45.58 99.90 45.45 98.07 C 44.60 92.00 43.47 85.97 42.54 79.91 C 43.45 76.56 45.86 74.03 48.50 71.92 C 50.43 70.92 52.31 69.82 54.09 68.57 C 54.55 68.98 55.02 69.39 55.48 69.80 C 61.94 69.94 67.49 73.67 72.23 77.71 C 72.82 76.33 73.40 74.95 73.90 73.54 C 76.07 71.52 78.10 69.00 81.11 68.25 C 86.33 66.75 91.72 67.99 97.02 67.80 C 99.20 66.62 100.49 64.33 102.30 62.68 C 101.68 65.46 100.51 68.09 98.68 70.28 C 95.34 70.39 92.01 70.14 88.69 69.84 C 88.11 70.82 87.59 71.83 87.11 72.87 C 87.60 73.49 88.58 74.73 89.07 75.35 C 93.42 75.04 97.85 75.60 101.43 78.31 C 102.19 78.09 102.96 77.89 103.73 77.71 C 104.83 73.42 107.37 69.45 107.18 64.89 C 107.03 61.54 107.36 58.20 107.21 54.85 C 99.71 52.28 91.46 52.19 84.06 55.18 C 78.22 58.41 72.98 62.60 67.39 66.23 C 64.00 67.39 60.38 67.78 56.94 68.84 C 56.41 68.19 55.89 67.54 55.36 66.89 C 58.98 66.18 63.01 66.31 66.15 64.09 C 72.72 59.58 79.21 54.61 86.82 51.99 C 94.23 50.35 103.02 49.14 109.58 53.82 C 110.15 58.90 108.85 63.88 108.05 68.86 C 107.56 71.69 107.17 74.57 106.01 77.22 C 110.20 76.87 113.87 78.86 116.92 81.53 C 121.20 82.97 125.46 84.31 130.06 83.74 C 130.54 83.90 131.49 84.24 131.96 84.40 C 130.64 82.90 128.84 82.00 127.00 81.27 C 127.64 81.11 128.92 80.77 129.56 80.60 C 128.87 80.64 127.48 80.72 126.79 80.75 C 127.25 78.77 127.94 76.86 128.70 74.98 C 127.94 69.92 124.79 65.40 124.82 60.15 C 124.79 53.18 123.24 46.13 124.81 39.23 C 125.63 35.83 125.08 31.59 128.39 29.37 M 134.23 28.37 C 131.54 30.37 128.35 32.57 127.64 36.09 C 125.12 45.57 126.09 55.57 127.98 65.06 C 129.43 69.82 131.54 74.35 132.76 79.19 C 131.90 78.91 130.20 78.34 129.35 78.06 C 130.36 79.13 131.12 80.53 132.43 81.27 C 136.57 81.74 140.75 81.79 144.91 81.72 C 151.66 80.73 159.45 80.08 164.18 74.55 C 160.76 68.00 156.45 62.00 151.67 56.40 C 147.49 53.54 144.34 49.53 141.73 45.23 C 145.59 48.86 149.98 52.02 154.83 54.19 C 165.12 58.84 176.72 55.93 187.42 58.78 C 189.60 62.12 192.41 64.98 195.00 67.99 C 196.39 69.61 198.74 69.60 200.70 69.67 C 204.59 69.40 206.83 65.84 209.90 63.95 C 213.33 61.44 217.45 60.26 221.19 58.32 C 223.65 57.24 224.93 54.74 226.88 53.04 C 229.05 50.01 229.54 46.03 227.51 42.80 C 224.15 43.89 220.82 45.06 217.60 46.50 C 214.29 48.09 210.54 47.31 207.03 47.25 C 200.65 46.73 194.32 48.38 187.96 47.66 C 176.98 43.05 166.28 37.73 155.06 33.75 C 151.14 31.76 146.64 31.49 142.74 29.48 C 140.12 28.19 137.08 28.10 134.23 28.37 M 154.90 57.31 C 156.46 59.59 158.49 61.47 160.64 63.19 C 166.00 63.83 170.60 66.98 174.50 70.51 C 175.36 67.28 176.15 64.00 177.54 60.94 C 169.99 59.89 161.68 61.55 154.90 57.31 M 179.40 61.30 C 182.50 69.67 185.21 79.36 193.38 84.25 C 195.95 88.47 197.91 93.09 199.10 97.88 C 199.80 103.26 198.97 108.67 198.74 114.05 C 200.71 115.27 202.57 116.95 204.99 117.15 C 209.59 118.09 213.46 114.37 218.02 114.61 C 223.07 114.20 228.12 115.30 233.14 114.86 C 236.61 113.86 240.84 113.54 242.83 110.07 C 241.15 108.72 239.27 107.38 236.98 107.75 C 234.26 108.12 231.88 106.71 229.93 104.99 C 226.40 101.87 221.69 100.78 217.68 98.49 C 211.43 94.89 208.11 88.03 205.74 81.50 C 204.30 78.10 203.57 74.13 200.57 71.66 C 198.47 71.61 196.37 71.53 194.27 71.41 C 192.38 68.97 191.00 66.15 188.91 63.88 C 186.14 61.95 182.79 60.86 179.40 61.30 M 162.32 64.32 C 163.38 66.00 164.70 67.54 165.59 69.34 C 165.87 71.66 165.42 73.97 165.17 76.27 C 161.74 80.11 156.67 81.62 151.91 83.04 C 150.30 83.44 148.66 83.66 147.04 84.00 C 142.65 85.57 138.20 83.92 133.86 83.09 C 135.66 85.06 137.41 87.08 138.80 89.37 C 142.61 89.99 146.52 90.99 149.63 93.40 C 149.62 94.51 149.58 96.73 149.57 97.84 C 150.21 97.70 151.48 97.42 152.12 97.28 C 151.41 98.04 150.71 98.81 150.02 99.58 C 148.70 99.89 147.38 100.27 146.03 100.44 C 143.39 99.49 141.65 97.18 139.71 95.29 C 139.16 92.26 136.43 90.97 133.72 90.28 C 134.05 95.05 135.43 99.67 135.78 104.44 C 136.49 109.55 138.81 114.18 141.40 118.57 C 142.99 120.24 145.21 121.12 146.97 122.61 C 150.76 122.04 154.50 122.48 158.15 123.52 C 165.33 124.10 170.00 117.65 174.31 112.93 C 173.78 109.88 173.75 106.76 174.84 103.82 C 173.19 97.74 172.30 91.47 170.18 85.53 C 168.83 80.97 172.56 77.08 173.96 73.01 C 169.49 70.85 166.95 66.22 162.32 64.32 M 114.28 83.09 C 114.34 84.95 114.33 86.82 114.40 88.68 C 118.51 88.16 122.93 88.88 125.31 92.65 C 127.51 92.13 129.68 91.50 131.87 90.95 C 133.05 89.67 134.24 88.41 135.34 87.07 C 134.62 87.23 133.18 87.55 132.45 87.71 C 129.86 86.20 126.83 86.30 123.98 85.77 C 123.17 86.12 122.36 86.47 121.55 86.82 C 120.20 83.86 117.42 82.82 114.28 83.09 M 140.38 91.97 C 140.62 92.83 140.87 93.70 141.12 94.57 C 143.13 95.41 145.17 96.16 147.30 96.63 C 146.58 93.30 143.04 93.00 140.38 91.97 Z" />
<path fill="#333333" opacity="1.00" d=" M 105.61 99.46 C 104.42 96.19 101.23 93.27 102.40 89.55 C 105.13 93.83 106.52 99.29 111.47 101.60 C 109.29 101.87 106.72 101.72 105.61 99.46 Z" />
<path fill="#333333" opacity="1.00" d=" M 92.19 99.76 C 92.75 97.35 94.33 95.42 96.19 93.86 C 95.79 96.07 94.67 98.39 96.25 100.42 C 89.58 103.95 84.46 109.83 77.66 113.13 C 79.06 111.38 80.62 109.76 82.30 108.29 C 85.66 105.51 88.31 101.89 92.19 99.76 Z" />
<path fill="#333333" opacity="1.00" d=" M 108.46 107.88 C 112.33 108.87 114.88 105.76 117.91 104.08 C 117.77 107.15 115.05 108.78 113.03 110.63 C 112.23 110.40 110.64 109.94 109.84 109.71 C 109.47 111.20 109.17 112.70 108.75 114.18 C 110.14 115.44 111.53 116.70 112.75 118.13 C 107.26 116.65 102.27 112.68 96.27 113.78 C 91.36 115.60 85.89 116.77 80.75 115.17 C 83.78 114.35 86.87 113.75 89.93 113.03 C 92.89 112.25 95.86 111.15 98.97 111.54 C 100.48 109.70 101.76 107.39 103.94 106.31 C 104.48 106.67 105.55 107.37 106.08 107.72 C 104.41 109.02 102.71 110.28 100.98 111.51 C 102.78 112.04 104.57 112.58 106.35 113.18 C 106.86 111.34 107.51 109.54 108.46 107.88 Z" />
</g>
</svg>
