<?xml version="1.0" encoding="UTF-8" ?>
<!DOCTYPE svg PUBLIC "-//W3C//DTD SVG 1.1//EN" "http://www.w3.org/Graphics/SVG/1.1/DTD/svg11.dtd">
<svg width="276pt" height="225pt" viewBox="0 0 276 225" version="1.1" xmlns="http://www.w3.org/2000/svg">
<g id="#ffffffff">
<path fill="#FFFFFF" opacity="1.00" d=" M 0.00 0.00 L 72.06 0.00 C 72.06 19.83 72.12 39.67 72.08 59.50 C 67.98 59.17 63.53 60.22 61.35 64.04 C 60.40 67.20 60.92 70.59 60.78 73.85 C 60.32 73.78 59.39 73.65 58.93 73.58 C 53.91 68.71 46.38 69.48 39.99 68.44 C 35.03 67.34 30.98 72.32 31.19 76.93 C 31.30 86.70 29.57 96.61 31.81 106.26 C 32.29 109.95 34.05 114.27 31.71 117.66 C 27.98 120.57 22.55 118.99 18.89 121.96 C 16.35 123.58 17.07 127.41 18.45 129.58 C 22.53 132.70 27.33 134.83 31.96 137.03 C 36.57 139.37 42.37 139.70 46.69 136.53 C 48.99 138.57 51.65 140.24 54.74 140.76 C 50.91 142.23 47.30 144.18 43.65 146.02 C 43.80 148.86 43.33 151.91 44.57 154.56 C 46.69 156.66 49.42 158.00 51.92 159.57 C 58.30 156.73 64.44 153.31 71.08 151.12 C 71.38 150.15 71.63 149.16 71.82 148.17 C 65.01 150.63 58.89 154.77 51.99 156.95 C 49.92 156.19 48.14 154.86 46.27 153.73 C 46.02 151.68 45.78 149.63 45.54 147.57 C 49.86 145.04 54.39 142.89 58.92 140.75 C 65.56 137.95 68.28 130.46 69.66 123.92 C 70.94 119.44 69.04 114.58 71.10 110.28 C 71.38 113.82 71.14 117.38 71.58 120.91 C 73.03 130.21 71.62 139.67 72.69 149.02 C 71.98 160.31 72.31 171.64 72.42 182.96 C 72.32 185.42 73.30 187.70 74.32 189.89 C 74.95 184.59 74.63 179.26 74.61 173.95 C 74.82 157.12 74.27 140.29 74.50 123.47 C 75.44 124.29 77.47 124.47 77.29 126.09 C 77.60 139.72 77.33 153.36 77.43 167.00 C 77.60 175.90 76.54 184.83 77.54 193.70 C 79.41 190.82 79.14 187.33 79.10 184.05 C 79.35 165.00 79.16 145.94 79.13 126.89 C 78.82 125.18 80.48 124.41 81.50 123.42 C 82.03 145.70 81.25 168.01 81.95 190.29 C 82.77 188.99 83.94 187.73 83.82 186.07 C 84.15 172.38 83.44 158.66 83.98 144.98 C 88.24 142.20 92.99 139.95 97.86 138.49 C 100.79 139.59 103.22 141.62 105.87 143.22 C 111.12 146.74 117.01 149.15 122.21 152.74 C 125.22 154.78 128.76 156.22 131.12 159.07 C 132.62 166.70 130.64 174.70 132.79 182.19 C 133.86 183.58 135.21 180.88 134.36 180.08 C 134.28 173.72 133.98 167.36 133.95 160.99 C 137.85 162.41 141.76 163.79 145.58 165.39 C 144.50 174.76 142.94 184.32 144.78 193.70 C 145.41 193.34 146.04 192.97 146.66 192.62 C 146.51 190.15 146.36 187.69 146.22 185.23 C 151.20 183.00 156.15 180.72 161.11 178.46 C 163.39 179.88 165.65 181.32 167.90 182.79 C 168.01 185.19 168.13 187.60 168.25 190.01 C 152.90 197.20 137.61 204.54 122.21 211.61 C 120.20 210.17 117.98 208.93 116.31 207.08 C 116.09 205.14 116.14 203.18 116.13 201.23 C 122.36 198.31 128.46 195.13 134.55 191.95 C 134.47 189.84 134.59 187.68 134.18 185.60 C 134.24 184.17 132.97 184.18 132.64 185.42 C 132.38 187.28 132.24 189.16 132.08 191.03 C 126.97 193.68 121.73 196.07 116.62 198.73 C 115.46 199.45 113.64 200.25 113.88 201.93 C 114.17 204.81 113.68 208.68 116.65 210.34 C 118.37 211.59 120.16 212.81 122.18 213.54 C 126.23 212.57 129.80 210.23 133.61 208.58 C 145.71 202.52 158.35 197.49 170.20 190.97 C 170.76 187.49 170.03 183.96 169.45 180.53 C 166.94 179.05 164.59 177.28 161.88 176.19 C 156.46 177.81 151.62 180.94 146.36 183.00 C 146.60 177.18 146.55 171.35 146.50 165.53 C 155.69 163.19 164.40 159.35 172.53 154.51 C 174.49 153.15 175.02 150.67 176.09 148.66 C 180.63 145.80 183.62 140.45 182.98 135.02 C 182.82 128.07 178.45 122.36 174.50 117.02 C 175.07 114.50 176.01 111.71 174.81 109.23 C 172.56 103.72 165.91 100.62 160.23 102.28 C 157.62 100.62 154.66 99.65 151.54 99.91 C 153.38 100.94 155.31 101.78 157.17 102.75 C 160.99 104.57 162.38 109.70 167.15 109.83 C 165.57 107.70 163.85 105.66 162.16 103.62 C 165.58 104.39 169.77 104.85 171.75 108.20 C 173.49 110.34 173.37 113.16 173.05 115.74 C 170.99 115.48 168.94 115.24 166.88 115.06 C 165.91 113.26 164.98 111.44 163.96 109.66 C 163.54 112.20 164.47 115.40 162.07 117.16 C 158.90 119.97 157.11 123.98 156.68 128.16 C 159.95 124.92 161.47 120.48 163.35 116.39 C 166.23 116.35 169.48 116.10 171.77 118.23 C 176.19 122.12 179.01 127.72 179.86 133.53 C 180.19 137.55 180.83 142.49 177.16 145.26 C 174.76 148.47 170.77 148.76 167.09 148.46 C 163.41 146.21 160.29 143.25 157.79 139.75 C 159.58 139.62 161.38 139.47 163.16 139.31 C 161.74 138.56 160.25 137.94 158.94 136.99 C 158.11 135.45 157.73 133.72 157.20 132.06 C 158.21 130.73 159.22 129.40 160.20 128.05 C 156.43 129.95 153.58 134.24 155.82 138.39 C 154.93 137.64 154.03 136.90 153.13 136.15 C 148.97 137.09 144.85 138.30 140.56 138.51 C 140.76 136.54 141.02 134.59 141.26 132.63 C 140.36 133.66 139.47 134.70 138.57 135.73 C 138.61 137.17 138.65 138.60 138.70 140.03 C 135.61 141.21 132.38 141.89 129.09 142.16 C 128.71 141.79 127.94 141.04 127.56 140.66 C 122.43 139.63 117.36 138.28 112.16 137.61 C 108.42 137.14 105.97 134.09 103.33 131.75 C 101.26 129.78 98.71 128.46 96.37 126.86 C 96.43 123.46 97.65 120.22 98.66 117.01 C 100.62 110.18 106.67 105.85 111.14 100.71 C 111.59 100.54 112.49 100.21 112.94 100.05 C 113.64 98.91 114.35 97.78 115.07 96.66 C 114.63 96.41 113.74 95.92 113.30 95.68 C 113.29 93.75 113.26 91.83 113.22 89.90 C 112.54 89.66 111.18 89.18 110.50 88.94 C 111.42 83.83 117.50 83.72 121.22 81.53 C 122.74 84.37 125.15 86.87 125.88 90.05 C 125.30 94.59 122.99 98.66 120.64 102.50 C 117.86 107.00 115.69 111.83 113.71 116.72 C 110.43 118.41 106.85 119.87 103.11 118.85 C 103.65 121.00 104.61 123.00 105.78 124.88 C 106.04 124.16 106.57 122.71 106.84 121.99 C 109.46 120.86 112.17 119.31 115.12 119.62 C 118.19 120.28 120.91 121.93 123.68 123.34 C 123.18 124.86 122.69 126.39 122.21 127.92 C 123.83 127.25 125.45 126.59 127.07 125.91 C 127.22 125.29 127.54 124.06 127.69 123.44 C 131.84 123.21 136.44 122.45 140.08 124.98 C 142.37 127.16 143.38 130.30 144.98 132.96 C 145.20 132.18 145.62 130.64 145.83 129.86 C 147.38 127.31 148.35 124.47 149.72 121.83 C 150.90 120.06 152.64 118.77 154.06 117.20 C 148.46 117.41 146.54 123.22 144.87 127.60 C 143.08 124.13 140.12 121.24 135.94 121.42 C 135.03 118.56 133.68 115.25 130.22 114.98 C 131.21 116.72 132.26 118.42 133.32 120.11 C 130.60 120.49 127.90 121.01 125.24 121.69 C 122.55 120.00 119.54 118.96 116.54 117.98 C 118.55 111.58 121.30 105.43 124.77 99.70 C 127.91 101.03 131.05 102.44 134.46 102.96 C 135.54 100.05 135.09 95.58 138.97 94.95 C 140.47 93.35 141.84 94.07 143.01 95.76 C 143.56 95.05 144.11 94.34 144.66 93.63 C 143.09 91.65 141.51 89.68 140.03 87.64 C 138.74 87.62 137.46 87.61 136.18 87.59 C 136.97 85.45 137.91 83.33 138.22 81.05 C 137.10 80.10 135.94 79.20 134.75 78.34 C 138.35 76.16 142.64 76.01 146.65 75.14 C 148.19 77.24 149.48 79.50 150.71 81.80 C 149.58 86.53 148.85 91.38 148.79 96.26 C 151.23 93.70 151.49 90.06 152.49 86.84 C 152.03 84.86 151.55 82.88 151.05 80.91 C 155.92 79.24 160.48 76.75 165.46 75.36 C 169.30 74.13 173.26 73.02 176.74 70.92 C 176.77 70.72 176.83 70.33 176.86 70.13 C 172.85 69.81 169.16 72.36 165.37 73.51 C 160.37 75.32 155.23 76.73 150.39 78.96 C 150.38 78.33 150.35 77.07 150.33 76.44 C 158.51 73.82 166.35 70.25 174.42 67.32 C 175.28 66.69 177.48 66.61 176.82 65.13 C 175.35 64.94 173.96 65.59 172.58 65.96 C 164.72 68.76 157.00 71.96 149.26 75.07 C 148.78 74.64 147.82 73.76 147.34 73.32 C 143.92 73.66 140.44 73.71 137.09 74.49 C 134.54 75.40 133.40 78.11 132.16 80.29 C 130.24 81.22 128.39 82.37 126.29 82.86 C 125.00 82.05 123.85 81.03 122.66 80.08 C 119.06 80.83 115.38 81.50 112.05 83.13 C 109.46 84.45 108.53 87.45 107.11 89.79 C 101.56 92.40 96.11 95.27 90.23 97.07 C 90.53 96.30 91.13 94.77 91.44 94.00 C 93.09 92.71 94.69 91.37 96.29 90.01 C 94.12 90.48 91.99 91.04 89.85 91.60 C 88.85 93.09 87.84 94.57 86.84 96.06 C 87.77 96.67 88.71 97.27 89.64 97.88 C 87.97 98.20 86.31 98.54 84.66 98.90 C 84.67 94.91 84.67 90.92 84.67 86.93 C 87.78 86.56 90.92 85.86 93.46 83.92 C 90.50 83.75 87.56 84.20 84.63 84.54 C 83.80 81.53 84.57 78.68 86.66 76.39 C 90.19 76.44 93.73 76.59 97.26 76.59 C 99.18 78.22 101.10 79.84 103.04 81.45 C 104.38 80.70 105.71 79.94 107.04 79.17 C 104.26 78.40 101.11 78.21 98.89 76.16 C 94.07 72.19 89.36 68.10 84.20 64.59 C 83.44 60.77 83.94 56.84 83.86 52.98 C 83.74 35.32 83.84 17.66 83.79 0.00 L 178.56 0.00 C 178.28 15.99 179.28 32.02 177.80 47.96 C 177.79 57.63 177.87 67.31 177.71 76.98 C 179.16 88.25 178.47 99.65 178.70 110.99 C 178.96 115.70 177.63 120.98 180.69 125.06 C 181.54 111.37 180.56 97.63 180.89 83.92 C 181.57 84.09 182.92 84.45 183.60 84.63 C 183.99 101.75 183.76 118.88 183.77 136.01 C 183.76 137.63 184.42 139.13 184.93 140.63 C 186.13 135.50 185.62 130.20 185.69 124.98 C 185.58 111.60 185.85 98.23 185.21 84.86 C 185.95 84.64 187.43 84.20 188.17 83.98 C 188.11 99.66 188.14 115.34 188.10 131.03 C 188.08 133.60 188.30 136.16 188.76 138.69 C 190.93 135.14 190.33 130.93 190.37 126.99 C 190.31 114.31 190.40 101.63 190.31 88.96 C 190.24 86.05 190.63 83.16 191.26 80.33 C 193.49 82.36 195.60 85.38 198.97 85.22 C 202.84 84.88 207.42 84.53 209.89 81.06 C 215.66 74.17 214.99 64.55 214.83 56.13 C 219.84 54.25 224.91 52.48 229.81 50.30 C 229.17 48.66 228.56 46.98 227.54 45.52 C 222.90 46.65 218.53 48.68 214.10 50.45 C 211.88 44.30 209.37 37.03 202.88 34.24 C 198.46 32.28 194.11 35.04 190.28 37.03 C 190.37 24.69 190.47 12.34 190.23 0.00 L 276.00 0.00 L 276.00 225.00 L 0.00 225.00 L 0.00 0.00 M 142.72 96.13 C 144.77 97.18 146.85 98.15 148.96 99.06 C 147.97 97.95 146.97 96.86 146.00 95.75 C 145.18 95.84 143.54 96.03 142.72 96.13 M 129.98 107.87 C 126.80 110.91 127.90 115.65 127.16 119.55 L 129.27 119.51 C 129.54 115.91 128.91 111.55 132.05 108.97 C 134.61 105.62 139.69 106.08 141.94 102.32 C 137.96 104.26 132.76 103.97 129.98 107.87 M 123.14 105.21 C 124.84 107.14 127.53 106.27 129.76 106.40 C 129.59 102.85 125.27 105.28 123.14 105.21 Z" />
<path fill="#FFFFFF" opacity="1.00" d=" M 74.14 0.00 L 77.34 0.00 C 77.46 27.80 77.60 55.60 77.23 83.40 C 76.55 82.85 75.17 81.75 74.49 81.20 C 74.06 54.14 74.24 27.06 74.14 0.00 Z" />
<path fill="#FFFFFF" opacity="1.00" d=" M 78.93 0.00 L 81.31 0.00 C 81.09 27.48 81.84 54.95 81.63 82.43 C 80.89 82.58 79.41 82.89 78.67 83.04 C 78.43 74.34 79.72 65.64 78.71 56.96 C 77.94 49.99 79.32 43.03 79.09 36.05 C 78.71 24.04 78.96 12.02 78.93 0.00 Z" />
<path fill="#FFFFFF" opacity="1.00" d=" M 180.41 0.00 L 183.79 0.00 C 183.95 9.02 183.37 18.06 184.27 27.05 C 184.79 32.52 184.00 37.99 183.39 43.42 C 182.50 42.33 180.63 41.69 180.77 40.00 C 180.37 26.68 180.97 13.32 180.41 0.00 Z" />
<path fill="#FFFFFF" opacity="1.00" d=" M 185.28 0.00 L 187.76 0.00 C 187.73 6.00 187.79 12.01 187.70 18.01 C 187.57 25.72 188.56 33.43 187.97 41.14 C 188.00 42.40 186.44 42.68 185.72 43.44 C 184.56 28.98 186.13 14.48 185.28 0.00 Z" />
<path fill="#FFFFFF" opacity="1.00" d=" M 190.16 40.69 C 191.62 37.08 195.63 36.45 198.82 35.12 C 201.95 36.40 205.40 37.58 207.41 40.49 C 213.12 48.32 214.62 58.63 213.43 68.06 C 212.32 73.31 210.56 80.04 204.80 81.81 L 204.84 80.96 C 209.87 72.25 210.16 61.57 207.68 52.01 C 206.01 46.48 203.70 40.56 198.81 37.10 C 198.36 37.16 197.46 37.28 197.02 37.34 C 198.36 39.80 200.83 41.36 202.27 43.76 C 205.33 48.66 207.11 54.35 207.34 60.13 C 208.52 67.67 206.01 75.09 202.79 81.80 C 198.40 84.84 193.37 81.05 191.46 76.98 C 191.06 73.19 191.36 69.37 191.30 65.56 C 193.20 64.75 195.09 63.94 196.97 63.09 C 197.16 62.10 197.36 61.11 197.55 60.12 C 196.98 59.04 196.40 57.96 195.84 56.88 C 194.34 57.52 192.83 58.15 191.33 58.78 C 190.80 52.77 192.44 46.43 190.16 40.69 Z" />
<path fill="#FFFFFF" opacity="1.00" d=" M 180.22 44.02 C 181.37 44.33 182.51 44.63 183.66 44.94 C 184.00 54.04 183.14 63.13 183.64 72.22 C 183.81 75.71 183.85 79.20 183.72 82.68 C 182.86 82.36 181.14 81.70 180.29 81.37 C 180.23 68.92 180.26 56.47 180.22 44.02 Z" />
<path fill="#FFFFFF" opacity="1.00" d=" M 185.35 45.37 C 186.17 45.07 187.83 44.49 188.66 44.20 C 188.91 56.61 188.67 69.03 188.74 81.44 C 188.04 81.73 186.65 82.31 185.95 82.60 C 184.78 70.22 185.49 57.78 185.35 45.37 Z" />
<path fill="#FFFFFF" opacity="1.00" d=" M 214.18 51.68 C 218.32 50.48 222.43 49.10 226.36 47.30 C 227.01 47.97 227.65 48.65 228.29 49.34 C 223.68 50.98 219.10 52.70 214.56 54.54 C 214.47 53.83 214.27 52.39 214.18 51.68 Z" />
<path fill="#FFFFFF" opacity="1.00" d=" M 191.43 60.46 C 192.96 60.16 194.50 59.24 196.09 59.72 C 196.51 62.62 193.05 62.43 191.22 63.32 C 191.27 62.61 191.38 61.18 191.43 60.46 Z" />
<path fill="#FFFFFF" opacity="1.00" d=" M 63.23 65.24 C 64.88 61.81 68.70 61.20 72.12 61.36 C 72.16 64.24 72.19 67.12 72.20 70.00 C 70.11 69.66 68.03 69.22 66.00 68.60 C 66.20 69.48 66.40 70.35 66.60 71.23 C 68.47 71.35 70.33 71.48 72.20 71.62 C 72.20 72.65 72.21 74.72 72.21 75.75 C 70.31 75.28 68.41 74.78 66.52 74.28 C 66.38 74.73 66.09 75.62 65.95 76.07 C 68.03 76.53 70.12 76.96 72.21 77.39 C 72.21 78.11 72.22 79.56 72.22 80.28 C 71.59 80.30 70.33 80.35 69.70 80.38 C 68.53 77.23 65.03 76.50 62.36 75.14 C 63.08 72.44 62.57 69.12 64.76 67.03 C 64.25 66.43 63.74 65.84 63.23 65.24 Z" />
<path fill="#FFFFFF" opacity="1.00" d=" M 83.90 66.72 C 87.09 68.87 90.14 71.23 92.85 73.97 C 89.74 74.60 86.72 75.56 83.76 76.67 C 83.81 73.35 83.81 70.04 83.90 66.72 Z" />
<path fill="#FFFFFF" opacity="1.00" d=" M 36.06 71.00 C 40.90 69.87 46.15 68.84 50.81 71.21 C 56.91 74.31 62.87 77.71 69.03 80.70 C 64.57 82.33 60.39 85.10 58.28 89.50 C 56.57 89.09 54.85 88.73 53.13 88.37 C 52.63 88.72 51.62 89.40 51.12 89.75 C 48.47 88.17 46.46 85.83 44.20 83.80 C 42.43 83.47 39.97 83.10 38.64 84.58 C 37.55 86.17 40.26 85.37 41.01 85.73 C 44.46 85.56 46.39 88.96 48.89 90.80 C 47.63 90.84 46.35 90.89 45.28 90.13 C 43.19 91.40 40.33 91.85 38.99 94.04 C 38.30 96.49 38.04 99.38 39.73 101.50 C 40.42 98.45 39.45 93.59 43.82 93.18 C 40.58 99.63 38.46 106.75 39.06 114.07 C 39.89 116.95 36.73 117.41 34.85 118.37 C 34.84 114.48 34.34 110.62 33.80 106.78 C 33.28 105.39 34.38 104.26 34.86 103.07 C 35.33 106.71 36.12 110.35 37.82 113.62 C 38.20 108.97 36.58 104.49 36.41 99.87 C 35.97 95.70 37.15 91.61 37.52 87.48 C 37.03 87.48 36.05 87.49 35.56 87.49 C 34.76 92.15 33.62 96.88 34.51 101.63 C 34.03 102.35 33.54 103.07 33.05 103.79 C 32.72 100.57 31.96 97.36 32.29 94.11 C 32.70 89.67 31.80 85.10 33.19 80.78 C 32.90 77.29 33.04 73.33 36.06 71.00 M 35.17 76.58 C 37.42 77.57 39.79 76.99 41.92 76.01 C 41.76 75.43 41.43 74.29 41.27 73.72 C 39.40 74.88 36.29 74.51 35.17 76.58 M 44.67 79.23 C 47.48 81.54 51.24 81.98 54.60 83.07 C 53.02 79.25 48.26 78.69 44.67 79.23 Z" />
<path fill="#FFFFFF" opacity="1.00" d=" M 60.36 90.73 C 62.63 86.31 66.23 82.11 71.46 81.44 C 71.48 89.11 71.39 96.78 71.53 104.44 C 70.51 104.62 69.50 104.80 68.48 104.99 C 67.01 99.64 64.26 94.68 60.36 90.73 Z" />
<path fill="#FFFFFF" opacity="1.00" d=" M 127.07 85.05 C 129.99 84.08 132.88 83.00 135.43 81.24 C 135.62 82.27 135.80 83.29 135.99 84.32 C 133.54 86.39 130.60 87.72 127.40 88.04 C 127.31 87.29 127.15 85.80 127.07 85.05 Z" />
<path fill="#FFFFFF" opacity="1.00" d=" M 73.80 84.01 C 74.94 84.32 76.09 84.63 77.24 84.95 C 77.66 94.00 76.55 103.05 77.18 112.10 C 77.40 115.65 77.46 119.21 77.41 122.77 C 76.22 121.97 73.71 121.96 73.84 120.13 C 73.79 108.09 73.82 96.05 73.80 84.01 Z" />
<path fill="#FFFFFF" opacity="1.00" d=" M 78.81 86.98 C 78.49 84.88 81.02 84.82 82.34 84.15 C 82.51 96.07 82.37 108.00 82.33 119.92 C 82.55 121.62 80.53 122.02 79.49 122.92 C 78.32 110.98 79.00 98.96 78.81 86.98 Z" />
<path fill="#FFFFFF" opacity="1.00" d=" M 127.15 93.49 C 128.29 90.92 130.46 89.32 133.12 88.59 C 135.85 89.98 139.34 90.30 140.96 93.27 C 138.62 93.60 136.28 93.92 133.96 94.35 C 131.73 93.78 129.44 93.56 127.15 93.49 Z" />
<path fill="#FFFFFF" opacity="1.00" d=" M 51.60 91.49 C 52.17 91.18 53.31 90.54 53.88 90.22 C 62.42 92.87 66.53 101.76 67.99 109.92 C 69.15 117.53 68.62 125.83 64.74 132.63 C 62.44 137.08 56.72 138.33 52.16 137.63 C 46.23 135.43 43.89 128.91 41.81 123.51 C 40.52 125.05 40.48 127.17 40.10 129.06 C 40.41 128.49 41.04 127.35 41.35 126.78 C 42.48 129.87 44.01 132.79 45.93 135.47 C 43.01 135.84 40.01 137.04 37.09 135.99 C 32.42 134.55 27.98 132.42 23.52 130.43 C 20.56 129.20 18.97 126.41 18.17 123.45 C 20.92 122.85 23.66 122.22 26.39 121.52 C 26.88 122.33 27.38 123.13 27.88 123.94 L 29.03 122.28 C 28.95 123.42 28.85 124.56 28.73 125.71 C 27.98 124.59 27.18 123.52 26.29 122.52 L 26.01 124.80 C 26.82 129.69 31.15 125.74 34.00 126.43 L 33.64 125.58 C 34.24 125.59 35.43 125.61 36.03 125.62 C 40.86 121.98 47.05 121.01 52.33 118.23 C 53.71 116.13 51.96 113.82 51.23 111.83 C 49.46 112.53 47.68 113.21 45.92 113.92 C 45.28 113.85 44.65 113.78 44.01 113.71 C 42.69 114.60 41.35 115.45 40.02 116.32 C 39.89 108.61 40.87 100.20 45.84 93.98 C 47.11 92.00 49.52 91.83 51.60 91.49 M 52.23 92.19 C 58.86 99.79 62.79 109.82 62.09 119.99 C 62.41 125.77 59.77 131.00 57.95 136.31 C 60.59 134.94 61.56 131.98 62.36 129.32 C 65.74 117.58 63.25 104.51 56.45 94.45 C 55.51 92.99 53.93 92.25 52.23 92.19 M 34.09 126.24 C 34.69 126.83 34.69 126.83 34.09 126.24 Z" />
<path fill="#FFFFFF" opacity="1.00" d=" M 91.07 99.06 C 97.52 96.78 103.71 93.70 110.31 91.86 C 110.79 92.19 111.75 92.83 112.23 93.15 C 106.99 95.93 101.24 97.55 95.77 99.80 C 91.99 101.40 88.05 102.59 84.03 103.42 C 85.28 100.58 88.54 100.18 91.07 99.06 Z" />
<path fill="#FFFFFF" opacity="1.00" d=" M 126.70 95.05 C 129.19 95.11 131.69 95.36 133.98 96.39 C 133.67 97.98 133.32 99.56 132.98 101.14 C 130.73 99.96 128.43 98.87 126.00 98.14 C 126.23 97.11 126.47 96.08 126.70 95.05 Z" />
<path fill="#FFFFFF" opacity="1.00" d=" M 97.33 101.43 C 102.11 99.60 106.98 97.99 111.70 95.99 C 108.62 98.17 106.80 101.56 104.29 104.30 C 100.34 108.96 95.42 113.51 94.50 119.87 C 94.17 122.81 92.95 126.24 95.00 128.84 C 100.89 133.12 106.73 137.78 113.89 139.74 C 119.00 141.06 123.79 143.49 129.00 144.39 C 133.27 144.84 137.09 142.47 140.61 140.37 C 145.73 141.72 151.35 138.13 156.05 140.97 C 158.01 148.09 165.66 151.56 172.60 150.76 C 169.41 154.16 164.87 155.60 160.90 157.81 C 155.86 160.73 150.02 162.75 144.17 162.60 C 138.11 160.84 133.10 156.65 128.27 152.73 C 124.93 150.75 121.38 149.11 118.41 146.55 C 107.05 139.45 94.14 134.60 83.85 125.91 C 84.15 122.74 85.11 119.57 84.35 116.37 C 84.65 115.91 84.95 115.45 85.25 115.00 C 84.56 112.05 84.39 108.97 84.85 105.97 C 87.69 104.59 90.72 103.69 93.57 102.32 C 92.79 105.25 92.23 108.23 91.62 111.20 C 92.43 112.50 93.33 113.77 94.76 114.46 C 94.35 111.06 94.64 107.66 95.29 104.31 C 95.97 103.35 96.65 102.39 97.33 101.43 M 85.13 116.95 C 87.30 118.64 89.71 119.98 92.28 120.96 C 92.35 119.63 92.42 118.31 92.50 116.99 C 90.76 116.57 89.02 116.12 87.31 115.61 C 86.58 116.05 85.85 116.49 85.13 116.95 M 130.33 144.63 C 133.69 149.52 139.91 150.73 145.01 153.02 C 148.25 154.53 151.88 154.42 155.24 153.43 C 155.37 153.00 155.61 152.14 155.74 151.71 C 146.39 153.41 139.00 146.42 130.33 144.63 Z" />
<path fill="#FFFFFF" opacity="1.00" d=" M 70.08 109.00 C 68.65 108.10 68.70 107.29 70.22 106.58 C 71.67 107.49 71.63 108.30 70.08 109.00 Z" />
<path fill="#FFFFFF" opacity="1.00" d=" M 34.04 119.30 C 40.01 120.31 45.09 114.60 51.01 114.68 C 50.91 115.20 50.71 116.23 50.61 116.74 C 44.41 119.69 37.63 121.28 31.58 124.62 C 31.29 124.00 30.70 122.75 30.40 122.13 C 31.49 121.34 32.52 120.48 33.44 119.50 L 34.04 119.30 Z" />
<path fill="#FFFFFF" opacity="1.00" d=" M 83.82 129.01 C 87.60 131.63 91.29 134.37 95.03 137.04 C 91.30 138.81 87.57 140.57 83.84 142.33 C 83.81 137.89 83.82 133.45 83.82 129.01 Z" />
</g>
<g id="#5a5b5aff">
<path fill="#333333" opacity="1.00" d=" M 72.06 0.00 L 74.14 0.00 C 74.24 27.06 74.06 54.14 74.49 81.20 C 75.17 81.75 76.55 82.85 77.23 83.40 C 77.60 55.60 77.46 27.80 77.34 0.00 L 78.93 0.00 C 78.96 12.02 78.71 24.04 79.09 36.05 C 79.32 43.03 77.94 49.99 78.71 56.96 C 79.72 65.64 78.43 74.34 78.67 83.04 C 79.41 82.89 80.89 82.58 81.63 82.43 C 81.84 54.95 81.09 27.48 81.31 0.00 L 83.79 0.00 C 83.84 17.66 83.74 35.32 83.86 52.98 C 83.94 56.84 83.44 60.77 84.20 64.59 C 89.36 68.10 94.07 72.19 98.89 76.16 C 101.11 78.21 104.26 78.40 107.04 79.17 C 105.71 79.94 104.38 80.70 103.04 81.45 C 101.10 79.84 99.18 78.22 97.26 76.59 C 93.73 76.59 90.19 76.44 86.66 76.39 C 84.57 78.68 83.80 81.53 84.63 84.54 C 87.56 84.20 90.50 83.75 93.46 83.92 C 90.92 85.86 87.78 86.56 84.67 86.93 C 84.67 90.92 84.67 94.91 84.66 98.90 C 86.31 98.54 87.97 98.20 89.64 97.88 C 88.71 97.27 87.77 96.67 86.84 96.06 C 87.84 94.57 88.85 93.09 89.85 91.60 C 91.99 91.04 94.12 90.48 96.29 90.01 C 94.69 91.37 93.09 92.71 91.44 94.00 C 91.13 94.77 90.53 96.30 90.23 97.07 C 96.11 95.27 101.56 92.40 107.11 89.79 C 108.53 87.45 109.46 84.45 112.05 83.13 C 115.38 81.50 119.06 80.83 122.66 80.08 C 123.85 81.03 125.00 82.05 126.29 82.86 C 128.39 82.37 130.24 81.22 132.16 80.29 C 133.40 78.11 134.54 75.40 137.09 74.49 C 140.44 73.71 143.92 73.66 147.34 73.32 C 147.82 73.76 148.78 74.64 149.26 75.07 C 157.00 71.96 164.72 68.76 172.58 65.96 C 173.96 65.59 175.35 64.94 176.82 65.13 C 177.48 66.61 175.28 66.69 174.42 67.32 C 166.35 70.25 158.51 73.82 150.33 76.44 C 150.35 77.07 150.38 78.33 150.39 78.96 C 155.23 76.73 160.37 75.32 165.37 73.51 C 169.16 72.36 172.85 69.81 176.86 70.13 C 176.83 70.33 176.77 70.72 176.74 70.92 C 173.26 73.02 169.30 74.13 165.46 75.36 C 160.48 76.75 155.92 79.24 151.05 80.91 C 151.55 82.88 152.03 84.86 152.49 86.84 C 151.49 90.06 151.23 93.70 148.79 96.26 C 148.85 91.38 149.58 86.53 150.71 81.80 C 149.48 79.50 148.19 77.24 146.65 75.14 C 142.64 76.01 138.35 76.16 134.75 78.34 C 135.94 79.20 137.10 80.10 138.22 81.05 C 137.91 83.33 136.97 85.45 136.18 87.59 C 137.46 87.61 138.74 87.62 140.03 87.64 C 141.51 89.68 143.09 91.65 144.66 93.63 C 144.11 94.34 143.56 95.05 143.01 95.76 C 141.84 94.07 140.47 93.35 138.97 94.95 C 135.09 95.58 135.54 100.05 134.46 102.96 C 131.05 102.44 127.91 101.03 124.77 99.70 C 121.30 105.43 118.55 111.58 116.54 117.98 C 119.54 118.96 122.55 120.00 125.24 121.69 C 127.90 121.01 130.60 120.49 133.32 120.11 C 132.26 118.42 131.21 116.72 130.22 114.98 C 133.68 115.25 135.03 118.56 135.94 121.42 C 140.12 121.24 143.08 124.13 144.87 127.60 C 146.54 123.22 148.46 117.41 154.06 117.20 C 152.64 118.77 150.90 120.06 149.72 121.83 C 148.35 124.47 147.38 127.31 145.83 129.86 C 145.62 130.64 145.20 132.18 144.98 132.96 C 143.38 130.30 142.37 127.16 140.08 124.98 C 136.44 122.45 131.84 123.21 127.69 123.44 C 127.54 124.06 127.22 125.29 127.07 125.91 C 125.45 126.59 123.83 127.25 122.21 127.92 C 122.69 126.39 123.18 124.86 123.68 123.34 C 120.91 121.93 118.19 120.28 115.12 119.62 C 112.17 119.31 109.46 120.86 106.84 121.99 C 106.57 122.71 106.04 124.16 105.78 124.88 C 104.61 123.00 103.65 121.00 103.11 118.85 C 106.85 119.87 110.43 118.41 113.71 116.72 C 115.69 111.83 117.86 107.00 120.64 102.50 C 122.99 98.66 125.30 94.59 125.88 90.05 C 125.15 86.87 122.74 84.37 121.22 81.53 C 117.50 83.72 111.42 83.83 110.50 88.94 C 111.18 89.18 112.54 89.66 113.22 89.90 C 113.26 91.83 113.29 93.75 113.30 95.68 C 113.74 95.92 114.63 96.41 115.07 96.66 C 114.35 97.78 113.64 98.91 112.94 100.05 C 112.49 100.21 111.59 100.54 111.14 100.71 C 106.67 105.85 100.62 110.18 98.66 117.01 C 97.65 120.22 96.43 123.46 96.37 126.86 C 98.71 128.46 101.26 129.78 103.33 131.75 C 105.97 134.09 108.42 137.14 112.16 137.61 C 117.36 138.28 122.43 139.63 127.56 140.66 C 127.94 141.04 128.71 141.79 129.09 142.16 C 132.38 141.89 135.61 141.21 138.70 140.03 C 138.65 138.60 138.61 137.17 138.57 135.73 C 139.47 134.70 140.36 133.66 141.26 132.63 C 141.02 134.59 140.76 136.54 140.56 138.51 C 144.85 138.30 148.97 137.09 153.13 136.15 C 154.03 136.90 154.93 137.64 155.82 138.39 C 153.58 134.24 156.43 129.95 160.20 128.05 C 159.22 129.40 158.21 130.73 157.20 132.06 C 157.73 133.72 158.11 135.45 158.94 136.99 C 160.25 137.94 161.74 138.56 163.16 139.31 C 161.38 139.47 159.58 139.62 157.79 139.75 C 160.29 143.25 163.41 146.21 167.09 148.46 C 170.77 148.76 174.76 148.47 177.16 145.26 C 180.83 142.49 180.19 137.55 179.86 133.53 C 179.01 127.72 176.19 122.12 171.77 118.23 C 169.48 116.10 166.23 116.35 163.35 116.39 C 161.47 120.48 159.95 124.92 156.68 128.16 C 157.11 123.98 158.90 119.97 162.07 117.16 C 164.47 115.40 163.54 112.20 163.96 109.66 C 164.98 111.44 165.91 113.26 166.88 115.06 C 168.94 115.24 170.99 115.48 173.05 115.74 C 173.37 113.16 173.49 110.34 171.75 108.20 C 169.77 104.85 165.58 104.39 162.16 103.62 C 163.85 105.66 165.57 107.70 167.15 109.83 C 162.38 109.70 160.99 104.57 157.17 102.75 C 155.31 101.78 153.38 100.94 151.54 99.91 C 154.66 99.65 157.62 100.62 160.23 102.28 C 165.91 100.62 172.56 103.72 174.81 109.23 C 176.01 111.71 175.07 114.50 174.50 117.02 C 178.45 122.36 182.82 128.07 182.98 135.02 C 183.62 140.45 180.63 145.80 176.09 148.66 C 175.02 150.67 174.49 153.15 172.53 154.51 C 164.40 159.35 155.69 163.19 146.50 165.53 C 146.55 171.35 146.60 177.18 146.36 183.00 C 151.62 180.94 156.46 177.81 161.88 176.19 C 164.59 177.28 166.94 179.05 169.45 180.53 C 170.03 183.96 170.76 187.49 170.20 190.97 C 158.35 197.49 145.71 202.52 133.61 208.58 C 129.80 210.23 126.23 212.57 122.18 213.54 C 120.16 212.81 118.37 211.59 116.65 210.34 C 113.68 208.68 114.17 204.81 113.88 201.93 C 113.64 200.25 115.46 199.45 116.62 198.73 C 121.73 196.07 126.97 193.68 132.08 191.03 C 132.24 189.16 132.38 187.28 132.64 185.42 C 132.97 184.18 134.24 184.17 134.18 185.60 C 134.59 187.68 134.47 189.84 134.55 191.95 C 128.46 195.13 122.36 198.31 116.13 201.23 C 116.14 203.18 116.09 205.14 116.31 207.08 C 117.98 208.93 120.20 210.17 122.21 211.61 C 137.61 204.54 152.90 197.20 168.25 190.01 C 168.13 187.60 168.01 185.19 167.90 182.79 C 165.65 181.32 163.39 179.88 161.11 178.46 C 156.15 180.72 151.20 183.00 146.22 185.23 C 146.36 187.69 146.51 190.15 146.66 192.62 C 146.04 192.97 145.41 193.34 144.78 193.70 C 142.94 184.32 144.50 174.76 145.58 165.39 C 141.76 163.79 137.85 162.41 133.95 160.99 C 133.98 167.36 134.28 173.72 134.36 180.08 C 135.21 180.88 133.86 183.58 132.79 182.19 C 130.64 174.70 132.62 166.70 131.12 159.07 C 128.76 156.22 125.22 154.78 122.21 152.74 C 117.01 149.15 111.12 146.74 105.87 143.22 C 103.22 141.62 100.79 139.59 97.86 138.49 C 92.99 139.95 88.24 142.20 83.98 144.98 C 83.44 158.66 84.15 172.38 83.82 186.07 C 83.94 187.73 82.77 188.99 81.95 190.29 C 81.25 168.01 82.03 145.70 81.50 123.42 C 80.48 124.41 78.82 125.18 79.13 126.89 C 79.16 145.94 79.35 165.00 79.10 184.05 C 79.14 187.33 79.41 190.82 77.54 193.70 C 76.54 184.83 77.60 175.90 77.43 167.00 C 77.33 153.36 77.60 139.72 77.29 126.09 C 77.47 124.47 75.44 124.29 74.50 123.47 C 74.27 140.29 74.82 157.12 74.61 173.95 C 74.63 179.26 74.95 184.59 74.32 189.89 C 73.30 187.70 72.32 185.42 72.42 182.96 C 72.31 171.64 71.98 160.31 72.69 149.02 C 71.62 139.67 73.03 130.21 71.58 120.91 C 71.14 117.38 71.38 113.82 71.10 110.28 C 69.04 114.58 70.94 119.44 69.66 123.92 C 68.28 130.46 65.56 137.95 58.92 140.75 C 54.39 142.89 49.86 145.04 45.54 147.57 C 45.78 149.63 46.02 151.68 46.27 153.73 C 48.14 154.86 49.92 156.19 51.99 156.95 C 58.89 154.77 65.01 150.63 71.82 148.17 C 71.63 149.16 71.38 150.15 71.08 151.12 C 64.44 153.31 58.30 156.73 51.92 159.57 C 49.42 158.00 46.69 156.66 44.57 154.56 C 43.33 151.91 43.80 148.86 43.65 146.02 C 47.30 144.18 50.91 142.23 54.74 140.76 C 51.65 140.24 48.99 138.57 46.69 136.53 C 42.37 139.70 36.57 139.37 31.96 137.03 C 27.33 134.83 22.53 132.70 18.45 129.58 C 17.07 127.41 16.35 123.58 18.89 121.96 C 22.55 118.99 27.98 120.57 31.71 117.66 C 34.05 114.27 32.29 109.95 31.81 106.26 C 29.57 96.61 31.30 86.70 31.19 76.93 C 30.98 72.32 35.03 67.34 39.99 68.44 C 46.38 69.48 53.91 68.71 58.93 73.58 C 59.39 73.65 60.32 73.78 60.78 73.85 C 60.92 70.59 60.40 67.20 61.35 64.04 C 63.53 60.22 67.98 59.17 72.08 59.50 C 72.12 39.67 72.06 19.83 72.06 0.00 M 63.23 65.24 C 63.74 65.84 64.25 66.43 64.76 67.03 C 62.57 69.12 63.08 72.44 62.36 75.14 C 65.03 76.50 68.53 77.23 69.70 80.38 C 70.33 80.35 71.59 80.30 72.22 80.28 C 72.22 79.56 72.21 78.11 72.21 77.39 C 70.12 76.96 68.03 76.53 65.95 76.07 C 66.09 75.62 66.38 74.73 66.52 74.28 C 68.41 74.78 70.31 75.28 72.21 75.75 C 72.21 74.72 72.20 72.65 72.20 71.62 C 70.33 71.48 68.47 71.35 66.60 71.23 C 66.40 70.35 66.20 69.48 66.00 68.60 C 68.03 69.22 70.11 69.66 72.20 70.00 C 72.19 67.12 72.16 64.24 72.12 61.36 C 68.70 61.20 64.88 61.81 63.23 65.24 M 83.90 66.72 C 83.81 70.04 83.81 73.35 83.76 76.67 C 86.72 75.56 89.74 74.60 92.85 73.97 C 90.14 71.23 87.09 68.87 83.90 66.72 M 36.06 71.00 C 33.04 73.33 32.90 77.29 33.19 80.78 C 31.80 85.10 32.70 89.67 32.29 94.11 C 31.96 97.36 32.72 100.57 33.05 103.79 C 33.54 103.07 34.03 102.35 34.51 101.63 C 33.62 96.88 34.76 92.15 35.56 87.49 C 36.05 87.49 37.03 87.48 37.52 87.48 C 37.15 91.61 35.97 95.70 36.41 99.87 C 36.58 104.49 38.20 108.97 37.82 113.62 C 36.12 110.35 35.33 106.71 34.86 103.07 C 34.38 104.26 33.28 105.39 33.80 106.78 C 34.34 110.62 34.84 114.48 34.85 118.37 C 36.73 117.41 39.89 116.95 39.06 114.07 C 38.46 106.75 40.58 99.63 43.82 93.18 C 39.45 93.59 40.42 98.45 39.73 101.50 C 38.04 99.38 38.30 96.49 38.99 94.04 C 40.33 91.85 43.19 91.40 45.28 90.13 C 46.35 90.89 47.63 90.84 48.89 90.80 C 46.39 88.96 44.46 85.56 41.01 85.73 C 40.26 85.37 37.55 86.17 38.64 84.58 C 39.97 83.10 42.43 83.47 44.20 83.80 C 46.46 85.83 48.47 88.17 51.12 89.75 C 51.62 89.40 52.63 88.72 53.13 88.37 C 54.85 88.73 56.57 89.09 58.28 89.50 C 60.39 85.10 64.57 82.33 69.03 80.70 C 62.87 77.71 56.91 74.31 50.81 71.21 C 46.15 68.84 40.90 69.87 36.06 71.00 M 60.36 90.73 C 64.26 94.68 67.01 99.64 68.48 104.99 C 69.50 104.80 70.51 104.62 71.53 104.44 C 71.39 96.78 71.48 89.11 71.46 81.44 C 66.23 82.11 62.63 86.31 60.36 90.73 M 127.07 85.05 C 127.15 85.80 127.31 87.29 127.40 88.04 C 130.60 87.72 133.54 86.39 135.99 84.32 C 135.80 83.29 135.62 82.27 135.43 81.24 C 132.88 83.00 129.99 84.08 127.07 85.05 M 73.80 84.01 C 73.82 96.05 73.79 108.09 73.84 120.13 C 73.71 121.96 76.22 121.97 77.41 122.77 C 77.46 119.21 77.40 115.65 77.18 112.10 C 76.55 103.05 77.66 94.00 77.24 84.95 C 76.09 84.63 74.94 84.32 73.80 84.01 M 78.81 86.98 C 79.00 98.96 78.32 110.98 79.49 122.92 C 80.53 122.02 82.55 121.62 82.33 119.92 C 82.37 108.00 82.51 96.07 82.34 84.15 C 81.02 84.82 78.49 84.88 78.81 86.98 M 127.15 93.49 C 129.44 93.56 131.73 93.78 133.96 94.35 C 136.28 93.92 138.62 93.60 140.96 93.27 C 139.34 90.30 135.85 89.98 133.12 88.59 C 130.46 89.32 128.29 90.92 127.15 93.49 M 51.60 91.49 C 49.52 91.83 47.11 92.00 45.84 93.98 C 40.87 100.20 39.89 108.61 40.02 116.32 C 41.35 115.45 42.69 114.60 44.01 113.71 C 44.65 113.78 45.28 113.85 45.92 113.92 C 47.68 113.21 49.46 112.53 51.23 111.83 C 51.96 113.82 53.71 116.13 52.33 118.23 C 47.05 121.01 40.86 121.98 36.03 125.62 C 35.43 125.61 34.24 125.59 33.64 125.58 L 34.00 126.43 C 31.15 125.74 26.82 129.69 26.01 124.80 L 26.29 122.52 C 27.18 123.52 27.98 124.59 28.73 125.71 C 28.85 124.56 28.95 123.42 29.03 122.28 L 27.88 123.94 C 27.38 123.13 26.88 122.33 26.39 121.52 C 23.66 122.22 20.92 122.85 18.17 123.45 C 18.97 126.41 20.56 129.20 23.52 130.43 C 27.98 132.42 32.42 134.55 37.09 135.99 C 40.01 137.04 43.01 135.84 45.93 135.47 C 44.01 132.79 42.48 129.87 41.35 126.78 C 41.04 127.35 40.41 128.49 40.10 129.06 C 40.48 127.17 40.52 125.05 41.81 123.51 C 43.89 128.91 46.23 135.43 52.16 137.63 C 56.72 138.33 62.44 137.08 64.74 132.63 C 68.62 125.83 69.15 117.53 67.99 109.92 C 66.53 101.76 62.42 92.87 53.88 90.22 C 53.31 90.54 52.17 91.18 51.60 91.49 M 91.07 99.06 C 88.54 100.18 85.28 100.58 84.03 103.42 C 88.05 102.59 91.99 101.40 95.77 99.80 C 101.24 97.55 106.99 95.93 112.23 93.15 C 111.75 92.83 110.79 92.19 110.31 91.86 C 103.71 93.70 97.52 96.78 91.07 99.06 M 126.70 95.05 C 126.47 96.08 126.23 97.11 126.00 98.14 C 128.43 98.87 130.73 99.96 132.98 101.14 C 133.32 99.56 133.67 97.98 133.98 96.39 C 131.69 95.36 129.19 95.11 126.70 95.05 M 97.33 101.43 C 96.65 102.39 95.97 103.35 95.29 104.31 C 94.64 107.66 94.35 111.06 94.76 114.46 C 93.33 113.77 92.43 112.50 91.62 111.20 C 92.23 108.23 92.79 105.25 93.57 102.32 C 90.72 103.69 87.69 104.59 84.85 105.97 C 84.39 108.97 84.56 112.05 85.25 115.00 C 84.95 115.45 84.65 115.91 84.35 116.37 C 85.11 119.57 84.15 122.74 83.85 125.91 C 94.14 134.60 107.05 139.45 118.41 146.55 C 121.38 149.11 124.93 150.75 128.27 152.73 C 133.10 156.65 138.11 160.84 144.17 162.60 C 150.02 162.75 155.86 160.73 160.90 157.81 C 164.87 155.60 169.41 154.16 172.60 150.76 C 165.66 151.56 158.01 148.09 156.05 140.97 C 151.35 138.13 145.73 141.72 140.61 140.37 C 137.09 142.47 133.27 144.84 129.00 144.39 C 123.79 143.49 119.00 141.06 113.89 139.74 C 106.73 137.78 100.89 133.12 95.00 128.84 C 92.95 126.24 94.17 122.81 94.50 119.87 C 95.42 113.51 100.34 108.96 104.29 104.30 C 106.80 101.56 108.62 98.17 111.70 95.99 C 106.98 97.99 102.11 99.60 97.33 101.43 M 70.08 109.00 C 71.63 108.30 71.67 107.49 70.22 106.58 C 68.70 107.29 68.65 108.10 70.08 109.00 M 34.04 119.30 L 33.44 119.50 C 32.52 120.48 31.49 121.34 30.40 122.13 C 30.70 122.75 31.29 124.00 31.58 124.62 C 37.63 121.28 44.41 119.69 50.61 116.74 C 50.71 116.23 50.91 115.20 51.01 114.68 C 45.09 114.60 40.01 120.31 34.04 119.30 M 83.82 129.01 C 83.82 133.45 83.81 137.89 83.84 142.33 C 87.57 140.57 91.30 138.81 95.03 137.04 C 91.29 134.37 87.60 131.63 83.82 129.01 Z" />
<path fill="#333333" opacity="1.00" d=" M 178.56 0.00 L 180.41 0.00 C 180.97 13.32 180.37 26.68 180.77 40.00 C 180.63 41.69 182.50 42.33 183.39 43.42 C 184.00 37.99 184.79 32.52 184.27 27.05 C 183.37 18.06 183.95 9.02 183.79 0.00 L 185.28 0.00 C 186.13 14.48 184.56 28.98 185.72 43.44 C 186.44 42.68 188.00 42.40 187.97 41.14 C 188.56 33.43 187.57 25.72 187.70 18.01 C 187.79 12.01 187.73 6.00 187.76 0.00 L 190.23 0.00 C 190.47 12.34 190.37 24.69 190.28 37.03 C 194.11 35.04 198.46 32.28 202.88 34.24 C 209.37 37.03 211.88 44.30 214.10 50.45 C 218.53 48.68 222.90 46.65 227.54 45.52 C 228.56 46.98 229.17 48.66 229.81 50.30 C 224.91 52.48 219.84 54.25 214.83 56.13 C 214.99 64.55 215.66 74.17 209.89 81.06 C 207.42 84.53 202.84 84.88 198.97 85.22 C 195.60 85.38 193.49 82.36 191.26 80.33 C 190.63 83.16 190.24 86.05 190.31 88.96 C 190.40 101.63 190.31 114.31 190.37 126.99 C 190.33 130.93 190.93 135.14 188.76 138.69 C 188.30 136.16 188.08 133.60 188.10 131.03 C 188.14 115.34 188.11 99.66 188.17 83.98 C 187.43 84.20 185.95 84.64 185.21 84.86 C 185.85 98.23 185.58 111.60 185.69 124.98 C 185.62 130.20 186.13 135.50 184.93 140.63 C 184.42 139.13 183.76 137.63 183.77 136.01 C 183.76 118.88 183.99 101.75 183.60 84.63 C 182.92 84.45 181.57 84.09 180.89 83.92 C 180.56 97.63 181.54 111.37 180.69 125.06 C 177.63 120.98 178.96 115.70 178.70 110.99 C 178.47 99.65 179.16 88.25 177.71 76.98 C 177.87 67.31 177.79 57.63 177.80 47.96 C 179.28 32.02 178.28 15.99 178.56 0.00 M 190.16 40.69 C 192.44 46.43 190.80 52.77 191.33 58.78 C 192.83 58.15 194.34 57.52 195.84 56.88 C 196.40 57.96 196.98 59.04 197.55 60.12 C 197.36 61.11 197.16 62.10 196.97 63.09 C 195.09 63.94 193.20 64.75 191.30 65.56 C 191.36 69.37 191.06 73.19 191.46 76.98 C 193.37 81.05 198.40 84.84 202.79 81.80 C 206.01 75.09 208.52 67.67 207.34 60.13 C 207.11 54.35 205.33 48.66 202.27 43.76 C 200.83 41.36 198.36 39.80 197.02 37.34 C 197.46 37.28 198.36 37.16 198.81 37.10 C 203.70 40.56 206.01 46.48 207.68 52.01 C 210.16 61.57 209.87 72.25 204.84 80.96 L 204.80 81.81 C 210.56 80.04 212.32 73.31 213.43 68.06 C 214.62 58.63 213.12 48.32 207.41 40.49 C 205.40 37.58 201.95 36.40 198.82 35.12 C 195.63 36.45 191.62 37.08 190.16 40.69 M 180.22 44.02 C 180.26 56.47 180.23 68.92 180.29 81.37 C 181.14 81.70 182.86 82.36 183.72 82.68 C 183.85 79.20 183.81 75.71 183.64 72.22 C 183.14 63.13 184.00 54.04 183.66 44.94 C 182.51 44.63 181.37 44.33 180.22 44.02 M 185.35 45.37 C 185.49 57.78 184.78 70.22 185.95 82.60 C 186.65 82.31 188.04 81.73 188.74 81.44 C 188.67 69.03 188.91 56.61 188.66 44.20 C 187.83 44.49 186.17 45.07 185.35 45.37 M 214.18 51.68 C 214.27 52.39 214.47 53.83 214.56 54.54 C 219.10 52.70 223.68 50.98 228.29 49.34 C 227.65 48.65 227.01 47.97 226.36 47.30 C 222.43 49.10 218.32 50.48 214.18 51.68 M 191.43 60.46 C 191.38 61.18 191.27 62.61 191.22 63.32 C 193.05 62.43 196.51 62.62 196.09 59.72 C 194.50 59.24 192.96 60.16 191.43 60.46 Z" />
<path fill="#333333" opacity="1.00" d=" M 35.17 76.58 C 36.29 74.51 39.40 74.88 41.27 73.72 C 41.43 74.29 41.76 75.43 41.92 76.01 C 39.79 76.99 37.42 77.57 35.17 76.58 Z" />
<path fill="#333333" opacity="1.00" d=" M 44.67 79.23 C 48.26 78.69 53.02 79.25 54.60 83.07 C 51.24 81.98 47.48 81.54 44.67 79.23 Z" />
<path fill="#333333" opacity="1.00" d=" M 52.23 92.19 C 53.93 92.25 55.51 92.99 56.45 94.45 C 63.25 104.51 65.74 117.58 62.36 129.32 C 61.56 131.98 60.59 134.94 57.95 136.31 C 59.77 131.00 62.41 125.77 62.09 119.99 C 62.79 109.82 58.86 99.79 52.23 92.19 Z" />
<path fill="#333333" opacity="1.00" d=" M 142.72 96.13 C 143.54 96.03 145.18 95.84 146.00 95.75 C 146.97 96.86 147.97 97.95 148.96 99.06 C 146.85 98.15 144.77 97.18 142.72 96.13 Z" />
<path fill="#333333" opacity="1.00" d=" M 129.98 107.87 C 132.76 103.97 137.96 104.26 141.94 102.32 C 139.69 106.08 134.61 105.62 132.05 108.97 C 128.91 111.55 129.54 115.91 129.27 119.51 L 127.16 119.55 C 127.90 115.65 126.80 110.91 129.98 107.87 Z" />
<path fill="#333333" opacity="1.00" d=" M 123.14 105.21 C 125.27 105.28 129.59 102.85 129.76 106.40 C 127.53 106.27 124.84 107.14 123.14 105.21 Z" />
<path fill="#333333" opacity="1.00" d=" M 85.13 116.95 C 85.85 116.49 86.58 116.05 87.31 115.61 C 89.02 116.12 90.76 116.57 92.50 116.99 C 92.42 118.31 92.35 119.63 92.28 120.96 C 89.71 119.98 87.30 118.64 85.13 116.95 Z" />
<path fill="#333333" opacity="1.00" d=" M 34.09 126.24 C 34.69 126.83 34.69 126.83 34.09 126.24 Z" />
<path fill="#333333" opacity="1.00" d=" M 130.33 144.63 C 139.00 146.42 146.39 153.41 155.74 151.71 C 155.61 152.14 155.37 153.00 155.24 153.43 C 151.88 154.42 148.25 154.53 145.01 153.02 C 139.91 150.73 133.69 149.52 130.33 144.63 Z" />
</g>
</svg>
