<svg width="167pt" height="175pt" viewBox="0 0 167 175" xmlns="http://www.w3.org/2000/svg"><g fill="#FFF"><path d="M0 0h167v175H0V0m72.39 16.71l.12 1.83c-1.97.24-4.39-.52-5.94 1.11-2.44 2.27-5.69 3.87-7.2 6.98-2.6 4.64-1.34 10.16-.88 15.16.19 2.93 2.7 5.21 2.34 8.23-.04 5 .85 10.37-2.37 14.66-3.98 2.27-6.21 6.35-9.4 9.42-5.27 1.86-9.92 5.14-13.97 8.93-3.27 4.57-3.73 10.6-2.36 15.93-2.6 6.01-3.08 12.58-3.82 19.01-.71 6.54 4.52 11.67 5.02 17.98-1.02 6.29-2.49 12.65-1.65 19.07.38 2.77-.34 6.76 3.1 7.85-1.61-5.8-1.8-11.88-1.25-17.84.52-5.05 2.43-9.85 2.71-14.93-.58.46-1.73 1.39-2.31 1.85-.59-3.32-1.98-6.38-3.11-9.53-1.61-5.12.46-10.34.68-15.49.07-1.7.94-3.2 1.58-4.72.28.84.83 2.53 1.1 3.37l1.2-.2c-.55-4.81-2.1-9.56-1.85-14.42.47-4.89 4.47-8.07 8.08-10.85 3.12-2.23 7.36-2.75 9.67-6.08.11.77.35 2.31.46 3.08 1.26.22 2.53.41 3.81.56.89-.85 1.84-1.65 2.84-2.39-2.71 1.41-4.78-.62-6.74-2.25 2.49-3.2 6.04-5.28 8.77-8.22 2.86-4.47 3.17-10.28 2.08-15.35 1.1.61 2.21 1.22 3.32 1.84 1.29 8.36 11.02 11.61 18.42 11.02.09 1.84-.48 4.15 1.69 4.97-.03-1.64-.08-3.28-.15-4.92 1.81.55 3.63 1.11 5.45 1.64l-3.04-3.16c3.23 1.3 6.63 2 10.09 2.25l-1.27 1.39c-3.99 1.02-7.83 2.52-11.78 3.72-.03.56-.1 1.67-.14 2.23-1.44.74-2.87 2.62-4.65 1.77-3.07-1.29-6.38-1.58-9.67-1.64 2.18-4.61-2.59-8.25-4.66-11.91 1.45 3.96 3.01 7.88 4.26 11.91-2.98.81-6.01 1.46-9.11 1.57-.03.73-.06 1.47-.08 2.2 4.06-.54 7.98-2.45 12.15-1.91 2.49.09 4.68 1.42 7.09 1.92 2.88.2 4.02-2.75 5.55-4.6 5.25-.68 9.74-3.54 14.31-5.98 2.13-1.93 3.07-5.23 6.04-6.17 2.62-1.03 5.26-2.41 6.77-4.9 2.16-2.81 3.14-6.94 6.79-8.27 3.76-1.82 7.96-1.91 12.04-1.81-.11-.41-.35-1.23-.47-1.64-4.46-1.6-9.11-.04-13.2 1.82-3.59-2.7-7.23-6.05-11.97-6.21-3.7-.18-7.29-1.07-10.84-2.09-2.09.31-4.1 1.01-6.15 1.51.06-5.27-3.69-9.33-4.75-14.3-1.8-1.34-3.68-2.58-5.49-3.89 6.07-.15 8.96 6.16 14.47 7.44 3.53.99 7.09 2.34 10.82 2.06 7.09-.53 14.17.38 21.22 1.02 5.4.51 9.6 4.41 14.78 5.62 1.77.38 3.42 1.11 5.07 1.83l-.16 3.12c-1.37 2.22-2.5 4.61-4.18 6.63-5.37 5.59-6.62 13.74-11.4 19.75-4.98 6.87-11.28 12.9-18.79 16.91l-.72 2.8c-.51.22-1.53.64-2.04.85-.08 1.29-.18 2.58-.36 3.86.44-.84.34-2.28 1.47-2.55 2.25 3.97-1.18 8.36-2.73 12.03-.86-6.04-.39-12.16-.48-18.24-.11-2.63.89-5.1 2.02-7.41-.11-1.04-.63-2.13-.18-3.16 1.08-3.17.78-6.62 1.98-9.77-1.06.85-2.09 1.73-3.13 2.6-.39 2.69-.16 5.65-1.9 7.92-.39 6.25-.76 12.54-.5 18.81-.26-.01-.78-.04-1.04-.05.03-1.69-.97-2.5-2.5-2.64.02 1.65.18 3.3.53 4.92l1.13-1.72c.6.79 1.18 1.59 1.75 2.4-2.97.61-5.91 1.27-8.81 2.13-1.76-.55-3.29-1.64-4.88-2.54-.26.76-.51 1.52-.76 2.28 1.6.65 3.18 1.4 4.87 1.81 3.2-.46 6.55-.97 9.34-2.71.18 4.96 1.21 9.82 2.24 14.66 1.11 5.61-2.16 10.75-5.78 14.7l-3.33-.32c.54-3.08-.9-5.7-2.88-7.92-.07 3.32.98 7.41-1.85 9.93-2.91.41-6.25-.72-8.71 1.32-1.92 1.65-4.18-.69-6.25-.97 1.14 2.12 3.18 3.5 5.58 3.8 2.36-2.25 5.52-1.75 8.46-2.08 2.48-1.57 5.38-4.04 7.99-1.13 1.05-.77 2.1-1.54 3.17-2.28.07 5.31.6 10.59 1.28 15.85-5.16 3.48-11.39 4.1-17.33 5.27-5.09.12-9.95-2.07-15.08-1.57-3.66.47-6.77-1.76-9.8-3.45-1.14-6.61-.27-13.71-3.95-19.7.62-.45 1.25-.88 1.88-1.3 1.58.14 3.16.03 4.72-.33.84.13 2.52.38 3.37.5-1.08-1.21-2.21-2.37-3.33-3.53-1.69 1.7-3.89 2.12-5.95.79-.87 1.17-1.99 2.07-3.17 2.92.43 3.95 3.61 7.01 4.18 10.94-.03 3.74-.14 7.49.39 11.21-1.52 2.18-3.42 4.23-4.36 6.74.29 4.38-.35 8.78.19 13.14-.58 1.8 2.84 1.32 2.18-.16-.11-3.02-1.33-5.85-1.78-8.81-.11-2.94 1.47-5.56 2.63-8.14l1.8 1.88c-.01-1.49-.04-2.99-.07-4.48 2.78 1.45 5.35 3.45 8.46 4.15 3.53.55 7.16.24 10.66 1.05 8.02 2.05 16.09-.88 23.65-3.33 1.17 1.59 2.56 3.01 4.12 4.23.62 2.59.24 5.2-.36 7.76 1.35-3.06 3.88-6.14 2.38-9.63-1.3-1.01-3.14-1.87-3.34-3.71-1.09-6.17-1.56-12.46-1.05-18.7.37-3.92 2.85-7.22 3.51-11.06.02-3.7-.81-7.44.05-11.11.51-2.94 2.42-5.33 3.49-8.05.45-2.8.48-5.65.68-8.47 2.64-2.14 5.72-3.67 8.37-5.8 4.59-4.53 8.73-9.54 12.37-14.88 3.05-4.49 4.52-9.8 7.26-14.45 3.15-4.08 7.57-8.5 6.57-14.11-2.21-2.39-5.79-2.63-8.18-4.81-2.85-2.72-6.8-3.54-10.54-4.16-8.98-1.26-18.07-1.28-27.11-1.3-2.62-.2-5.21-.7-7.76-1.29-3.35-1.46-5.35-4.98-8.88-6.16-4.09-1.73-8.66-1.55-12.94-.76m43.04 47.82c-1.3 2.21-2.32 4.61-4.3 6.33 1.77-.55 4.2-.51 4.97-2.57 1.07-2.76 2.53-5.49 5.47-6.63 3.19-1.27 5.47-3.81 7.27-6.64-4.69 2.8-9.68 5.43-13.41 9.51M86.82 87.24c1.29 2.65.46 5.9-1.11 8.21-2.38 1.24-5.05 1.77-7.62 2.45-.95 1.07-1.89 2.15-2.79 3.26-.93-.21-2.32-.08-2.59-1.27.31-2.66-2.35-3.1-4.23-3.71.07 1.15-.93 2.91.59 3.52.87.72 2.17 1.04 2.75 2.05-5.53 2.07-9.35-3.71-13.31-6.5-.08 1.19-.5 2.6.74 3.39 2.46 2.41 5.22 4.85 8.68 5.64 3.55.39 7.59-.37 9.92-3.31 2.25-2.7 6.48-1.82 8.96-4.24 1.45-2.05 2.28-4.46 3.33-6.73-1.23-3.08-2.32-6.23-3.83-9.19-2.06 1.79.08 4.34.51 6.43m-35.35 7.99c2.94-1.91 2.77-5.93 4.05-8.88-.36-.15-1.08-.46-1.44-.61-2.43 2.47-2.52 6.24-2.61 9.49m42.23 7.24c-.92-.39-1.84-.77-2.76-1.14.83.98 1.69 1.93 2.59 2.86.1 1.46.78 3.03.18 4.44-.91 2.16-3.62.8-5.23 1.81-2.29 2.68-6.28 2.81-8.02 6.14-2.54-.52-4.66-1.92-6.45-3.73-1.26 3.87 4.2 4.98 6.84 5.92.82-1.14 1.66-2.27 2.49-3.4 2.36-.23 4.37-1.34 5.94-3.1 1.2-.12 2.39-.31 3.58-.56 2.32-.91 2.28-3.77 3.03-5.76-.62-.62-1.87-1.86-2.49-2.48 1.16-1.04 2.3-2.1 3.44-3.17 1.37.5 2.75 1.01 4.14 1.47-.73-.9-1.48-1.79-2.22-2.68-.5-.18-1.48-.52-1.97-.69-1.41 1.03-2.52 2.39-3.09 4.07m-12.43 4.56c-1.98.42-3.48 1.82-3.21 3.98.93-.68 1.84-1.39 2.76-2.1 3.4-1.01 3.78-5.03 6.25-7.16.55-.11 1.63-.32 2.18-.43-.01-.41-.04-1.22-.05-1.62-4.42-.44-6.42 3.97-7.93 7.33m-39.15-2.88c.35.26 1.05.78 1.4 1.03-.09.68-.26 2.02-.35 2.7 1.7-1.94 3.63-3.66 5.5-5.42-2.31-.06-4.46.82-6.55 1.69m7.98.8c1.35 2.85 3.45 5.72 2.39 9.06-1.11 4.32.03 8.72-.19 13.1-.3 5.78-5.59 10.05-5.1 15.99.87-1.46 1.69-2.96 2.51-4.46 3.3 4.79 2.93 10.84 2.98 16.38.09 2.76-.94 5.37-1.41 8.05 4.41-1.83 3.19-7.3 3.27-11.08.41-5.5-2.03-10.6-2.87-15.88 1.25-3.81 2.29-7.67 2.88-11.64.36-.39 1.09-1.15 1.46-1.54-.46-.58-1.38-1.76-1.85-2.34-.04-5.17 1.8-10.92-1.24-15.59-.71-1.15-1.66-1.16-2.83-.05m7.76 2.83c.09 1.21.17 2.41.26 3.62 3.4 2.27 7.31 1.84 11.09 1.01-.67-.83-1.32-1.66-1.98-2.48-2.25 1.31-4.75 1.43-7.24.85-.95-2.47.98-3.74 2.76-4.89-1.89-.17-3.36 1.03-4.89 1.89m37.81.49c.11.54.34 1.63.46 2.17 3.44-.4 6.66 1.36 10.04.97-2.62-3.22-6.79-2.93-10.5-3.14m-63.19 6.82c1.29 3.38.76 7.22 2.64 10.38.54-1.91 1.04-3.82 1.58-5.72-.97-1.92-1.87-4.17-4.22-4.66m39.4 6.01c-.2.44-.6 1.31-.81 1.75 1.84.49 3.8 1.89 5.7.9 1.31-.58 1.65-2.02 2.23-3.19-2.33.6-4.72 1.09-7.12.54m-7.59 1.99c-.47 1.37-.69 3.05.87 3.8 2.31 1.39 5.75 3.72 7.95.94-3.39-.75-5.78-3.35-8.82-4.74m14.61 7.08c.82 1.8 2.45 2.91 4.08 3.91-.75-1.88-1.51-4.37-4.08-3.91m15.02 6.81c1.47-1.56 2.65-3.37 3.54-5.31-2.46.6-4.42 2.71-3.54 5.31m-14.47-3.07c-.64 2.98 1.71 5.12 3.42 7.19 1.21 1.71 3.65 2.37 5.44 1.13-3.8-1.84-6.11-5.31-8.86-8.32m8.59 16.45c-7.98 1.3-15.49-1.79-23.08-3.62-.78 3.66-2.94 6.98-2.74 10.84.71.34 1.41.68 2.12 1.02-.02-1.74-.02-3.47-.08-5.2.87-1.51 1.74-3.02 2.63-4.51 2.36.78 4.84 1.33 6.98 2.66-1.73 5-6.22 8-10.77 10.16.76.1 2.27.32 3.03.42 4.4-1.85 9.21-5.05 9.07-10.43 7.6 1.84 15.58.92 22.97-1.41 2.81-.58 5.5-2.22 5.98-5.27-4.56 3.59-10.6 4.2-16.11 5.34m-3.09 8.73c-2.99.96-6.67 1.15-8.46 4.12 6.53-1.44 12.98-3.27 19.52-4.72 1.47-.35 2.98 0 4.46.12-2.62 1.84-5.8 2.6-8.66 4 3.13-.29 7.71-.38 8.9-3.94 1.14-.66 2.2-1.44 2.99-2.5-6.37-.26-12.62 1.4-18.75 2.92z"/><path d="M64 24.97c4.14-2.99 9.36-3.76 14.3-4.46 1.72 1.31 3.58 2.49 5.05 4.1 5.28 8.42 7.36 18.59 5.86 28.42-1.1 2.1-2.88 3.8-3.57 6.11-3.71 2.25-7.6-.75-11.2-1.79-3.77-.97-6.05-4.57-6.77-8.2-2.51-1.21-5.37-2.44-6.58-5.15.31-1.89.89-3.72 1.26-5.6-.62.35-1.87 1.03-2.5 1.38-1.09-5.18-.01-11.24 4.15-14.81z"/><path d="M90.48 37.94c1.45-.47 2.89-.95 4.33-1.42 3.63 1.4 7.47 1.99 11.28 2.69 4.02.58 6.25 4.68 10.27 5.29-2.14 3.17-4.03 6.5-6.33 9.56-4.19.78-7.98 2.98-10.24 6.67-4.31-.07-8.58-.72-12.83-1.41 1.57-1.89 3.95-3.55 3.91-6.28 1-5.01.19-10.1-.39-15.1z"/></g><g fill="#333"><path d="M72.39 16.71c4.28-.79 8.85-.97 12.94.76 3.53 1.18 5.53 4.7 8.88 6.16 2.55.59 5.14 1.09 7.76 1.29 9.04.02 18.13.04 27.11 1.3 3.74.62 7.69 1.44 10.54 4.16 2.39 2.18 5.97 2.42 8.18 4.81 1 5.61-3.42 10.03-6.57 14.11-2.74 4.65-4.21 9.96-7.26 14.45-3.64 5.34-7.78 10.35-12.37 14.88-2.65 2.13-5.73 3.66-8.37 5.8-.2 2.82-.23 5.67-.68 8.47-1.07 2.72-2.98 5.11-3.49 8.05-.86 3.67-.03 7.41-.05 11.11-.66 3.84-3.14 7.14-3.51 11.06-.51 6.24-.04 12.53 1.05 18.7.2 1.84 2.04 2.7 3.34 3.71 1.5 3.49-1.03 6.57-2.38 9.63.6-2.56.98-5.17.36-7.76a21.722 21.722 0 01-4.12-4.23c-7.56 2.45-15.63 5.38-23.65 3.33-3.5-.81-7.13-.5-10.66-1.05-3.11-.7-5.68-2.7-8.46-4.15.03 1.49.06 2.99.07 4.48l-1.8-1.88c-1.16 2.58-2.74 5.2-2.63 8.14.45 2.96 1.67 5.79 1.78 8.81.66 1.48-2.76 1.96-2.18.16-.54-4.36.1-8.76-.19-13.14.94-2.51 2.84-4.56 4.36-6.74-.53-3.72-.42-7.47-.39-11.21-.57-3.93-3.75-6.99-4.18-10.94 1.18-.85 2.3-1.75 3.17-2.92 2.06 1.33 4.26.91 5.95-.79 1.12 1.16 2.25 2.32 3.33 3.53-.85-.12-2.53-.37-3.37-.5-1.56.36-3.14.47-4.72.33-.63.42-1.26.85-1.88 1.3 3.68 5.99 2.81 13.09 3.95 19.7 3.03 1.69 6.14 3.92 9.8 3.45 5.13-.5 9.99 1.69 15.08 1.57 5.94-1.17 12.17-1.79 17.33-5.27-.68-5.26-1.21-10.54-1.28-15.85-1.07.74-2.12 1.51-3.17 2.28-2.61-2.91-5.51-.44-7.99 1.13-2.94.33-6.1-.17-8.46 2.08-2.4-.3-4.44-1.68-5.58-3.8 2.07.28 4.33 2.62 6.25.97 2.46-2.04 5.8-.91 8.71-1.32 2.83-2.52 1.78-6.61 1.85-9.93 1.98 2.22 3.42 4.84 2.88 7.92l3.33.32c3.62-3.95 6.89-9.09 5.78-14.7-1.03-4.84-2.06-9.7-2.24-14.66-2.79 1.74-6.14 2.25-9.34 2.71-1.69-.41-3.27-1.16-4.87-1.81.25-.76.5-1.52.76-2.28 1.59.9 3.12 1.99 4.88 2.54 2.9-.86 5.84-1.52 8.81-2.13-.57-.81-1.15-1.61-1.75-2.4l-1.13 1.72c-.35-1.62-.51-3.27-.53-4.92 1.53.14 2.53.95 2.5 2.64.26.01.78.04 1.04.05-.26-6.27.11-12.56.5-18.81 1.74-2.27 1.51-5.23 1.9-7.92 1.04-.87 2.07-1.75 3.13-2.6-1.2 3.15-.9 6.6-1.98 9.77-.45 1.03.07 2.12.18 3.16-1.13 2.31-2.13 4.78-2.02 7.41.09 6.08-.38 12.2.48 18.24 1.55-3.67 4.98-8.06 2.73-12.03-1.13.27-1.03 1.71-1.47 2.55.18-1.28.28-2.57.36-3.86.51-.21 1.53-.63 2.04-.85l.72-2.8c7.51-4.01 13.81-10.04 18.79-16.91 4.78-6.01 6.03-14.16 11.4-19.75 1.68-2.02 2.81-4.41 4.18-6.63l.16-3.12c-1.65-.72-3.3-1.45-5.07-1.83-5.18-1.21-9.38-5.11-14.78-5.62-7.05-.64-14.13-1.55-21.22-1.02-3.73.28-7.29-1.07-10.82-2.06-5.51-1.28-8.4-7.59-14.47-7.44 1.81 1.31 3.69 2.55 5.49 3.89 1.06 4.97 4.81 9.03 4.75 14.3 2.05-.5 4.06-1.2 6.15-1.51 3.55 1.02 7.14 1.91 10.84 2.09 4.74.16 8.38 3.51 11.97 6.21 4.09-1.86 8.74-3.42 13.2-1.82.12.41.36 1.23.47 1.64-4.08-.1-8.28-.01-12.04 1.81-3.65 1.33-4.63 5.46-6.79 8.27-1.51 2.49-4.15 3.87-6.77 4.9-2.97.94-3.91 4.24-6.04 6.17-4.57 2.44-9.06 5.3-14.31 5.98-1.53 1.85-2.67 4.8-5.55 4.6-2.41-.5-4.6-1.83-7.09-1.92-4.17-.54-8.09 1.37-12.15 1.91.02-.73.05-1.47.08-2.2 3.1-.11 6.13-.76 9.11-1.57-1.25-4.03-2.81-7.95-4.26-11.91 2.07 3.66 6.84 7.3 4.66 11.91 3.29.06 6.6.35 9.67 1.64 1.78.85 3.21-1.03 4.65-1.77.04-.56.11-1.67.14-2.23 3.95-1.2 7.79-2.7 11.78-3.72l1.27-1.39c-3.46-.25-6.86-.95-10.09-2.25l3.04 3.16c-1.82-.53-3.64-1.09-5.45-1.64.07 1.64.12 3.28.15 4.92-2.17-.82-1.6-3.13-1.69-4.97-7.4.59-17.13-2.66-18.42-11.02-1.11-.62-2.22-1.23-3.32-1.84 1.09 5.07.78 10.88-2.08 15.35-2.73 2.94-6.28 5.02-8.77 8.22 1.96 1.63 4.03 3.66 6.74 2.25-1 .74-1.95 1.54-2.84 2.39-1.28-.15-2.55-.34-3.81-.56-.11-.77-.35-2.31-.46-3.08-2.31 3.33-6.55 3.85-9.67 6.08-3.61 2.78-7.61 5.96-8.08 10.85-.25 4.86 1.3 9.61 1.85 14.42l-1.2.2c-.27-.84-.82-2.53-1.1-3.37-.64 1.52-1.51 3.02-1.58 4.72-.22 5.15-2.29 10.37-.68 15.49 1.13 3.15 2.52 6.21 3.11 9.53.58-.46 1.73-1.39 2.31-1.85-.28 5.08-2.19 9.88-2.71 14.93-.55 5.96-.36 12.04 1.25 17.84-3.44-1.09-2.72-5.08-3.1-7.85-.84-6.42.63-12.78 1.65-19.07-.5-6.31-5.73-11.44-5.02-17.98.74-6.43 1.22-13 3.82-19.01-1.37-5.33-.91-11.36 2.36-15.93 4.05-3.79 8.7-7.07 13.97-8.93 3.19-3.07 5.42-7.15 9.4-9.42 3.22-4.29 2.33-9.66 2.37-14.66.36-3.02-2.15-5.3-2.34-8.23-.46-5-1.72-10.52.88-15.16 1.51-3.11 4.76-4.71 7.2-6.98 1.55-1.63 3.97-.87 5.94-1.11l-.12-1.83M64 24.97c-4.16 3.57-5.24 9.63-4.15 14.81.63-.35 1.88-1.03 2.5-1.38-.37 1.88-.95 3.71-1.26 5.6 1.21 2.71 4.07 3.94 6.58 5.15.72 3.63 3 7.23 6.77 8.2 3.6 1.04 7.49 4.04 11.2 1.79.69-2.31 2.47-4.01 3.57-6.11 1.5-9.83-.58-20-5.86-28.42-1.47-1.61-3.33-2.79-5.05-4.1-4.94.7-10.16 1.47-14.3 4.46m26.48 12.97c.58 5 1.39 10.09.39 15.1.04 2.73-2.34 4.39-3.91 6.28 4.25.69 8.52 1.34 12.83 1.41 2.26-3.69 6.05-5.89 10.24-6.67 2.3-3.06 4.19-6.39 6.33-9.56-4.02-.61-6.25-4.71-10.27-5.29-3.81-.7-7.65-1.29-11.28-2.69-1.44.47-2.88.95-4.33 1.42z"/><path d="M115.43 64.53c3.73-4.08 8.72-6.71 13.41-9.51-1.8 2.83-4.08 5.37-7.27 6.64-2.94 1.14-4.4 3.87-5.47 6.63-.77 2.06-3.2 2.02-4.97 2.57 1.98-1.72 3-4.12 4.3-6.33zM86.82 87.24c-.43-2.09-2.57-4.64-.51-6.43 1.51 2.96 2.6 6.11 3.83 9.19-1.05 2.27-1.88 4.68-3.33 6.73-2.48 2.42-6.71 1.54-8.96 4.24-2.33 2.94-6.37 3.7-9.92 3.31-3.46-.79-6.22-3.23-8.68-5.64-1.24-.79-.82-2.2-.74-3.39 3.96 2.79 7.78 8.57 13.31 6.5-.58-1.01-1.88-1.33-2.75-2.05-1.52-.61-.52-2.37-.59-3.52 1.88.61 4.54 1.05 4.23 3.71.27 1.19 1.66 1.06 2.59 1.27.9-1.11 1.84-2.19 2.79-3.26 2.57-.68 5.24-1.21 7.62-2.45 1.57-2.31 2.4-5.56 1.11-8.21zM51.47 95.23c.09-3.25.18-7.02 2.61-9.49.36.15 1.08.46 1.44.61-1.28 2.95-1.11 6.97-4.05 8.88zM93.7 102.47c.57-1.68 1.68-3.04 3.09-4.07.49.17 1.47.51 1.97.69.74.89 1.49 1.78 2.22 2.68-1.39-.46-2.77-.97-4.14-1.47-1.14 1.07-2.28 2.13-3.44 3.17.62.62 1.87 1.86 2.49 2.48-.75 1.99-.71 4.85-3.03 5.76-1.19.25-2.38.44-3.58.56-1.57 1.76-3.58 2.87-5.94 3.1-.83 1.13-1.67 2.26-2.49 3.4-2.64-.94-8.1-2.05-6.84-5.92 1.79 1.81 3.91 3.21 6.45 3.73 1.74-3.33 5.73-3.46 8.02-6.14 1.61-1.01 4.32.35 5.23-1.81.6-1.41-.08-2.98-.18-4.44-.9-.93-1.76-1.88-2.59-2.86.92.37 1.84.75 2.76 1.14z"/><path d="M81.27 107.03c1.51-3.36 3.51-7.77 7.93-7.33.01.4.04 1.21.05 1.62-.55.11-1.63.32-2.18.43-2.47 2.13-2.85 6.15-6.25 7.16-.92.71-1.83 1.42-2.76 2.1-.27-2.16 1.23-3.56 3.21-3.98zM42.12 104.15c2.09-.87 4.24-1.75 6.55-1.69-1.87 1.76-3.8 3.48-5.5 5.42.09-.68.26-2.02.35-2.7-.35-.25-1.05-.77-1.4-1.03zM50.1 104.95c1.17-1.11 2.12-1.1 2.83.05 3.04 4.67 1.2 10.42 1.24 15.59.47.58 1.39 1.76 1.85 2.34-.37.39-1.1 1.15-1.46 1.54-.59 3.97-1.63 7.83-2.88 11.64.84 5.28 3.28 10.38 2.87 15.88-.08 3.78 1.14 9.25-3.27 11.08.47-2.68 1.5-5.29 1.41-8.05-.05-5.54.32-11.59-2.98-16.38-.82 1.5-1.64 3-2.51 4.46-.49-5.94 4.8-10.21 5.1-15.99.22-4.38-.92-8.78.19-13.1 1.06-3.34-1.04-6.21-2.39-9.06zM57.86 107.78c1.53-.86 3-2.06 4.89-1.89-1.78 1.15-3.71 2.42-2.76 4.89 2.49.58 4.99.46 7.24-.85.66.82 1.31 1.65 1.98 2.48-3.78.83-7.69 1.26-11.09-1.01-.09-1.21-.17-2.41-.26-3.62zM95.67 108.27c3.71.21 7.88-.08 10.5 3.14-3.38.39-6.6-1.37-10.04-.97-.12-.54-.35-1.63-.46-2.17zM32.48 115.09c2.35.49 3.25 2.74 4.22 4.66-.54 1.9-1.04 3.81-1.58 5.72-1.88-3.16-1.35-7-2.64-10.38zM71.88 121.1c2.4.55 4.79.06 7.12-.54-.58 1.17-.92 2.61-2.23 3.19-1.9.99-3.86-.41-5.7-.9.21-.44.61-1.31.81-1.75zM64.29 123.09c3.04 1.39 5.43 3.99 8.82 4.74-2.2 2.78-5.64.45-7.95-.94-1.56-.75-1.34-2.43-.87-3.8zM78.9 130.17c2.57-.46 3.33 2.03 4.08 3.91-1.63-1-3.26-2.11-4.08-3.91zM93.92 136.98c-.88-2.6 1.08-4.71 3.54-5.31-.89 1.94-2.07 3.75-3.54 5.31zM79.45 133.91c2.75 3.01 5.06 6.48 8.86 8.32-1.79 1.24-4.23.58-5.44-1.13-1.71-2.07-4.06-4.21-3.42-7.19zM88.04 150.36c5.51-1.14 11.55-1.75 16.11-5.34-.48 3.05-3.17 4.69-5.98 5.27-7.39 2.33-15.37 3.25-22.97 1.41.14 5.38-4.67 8.58-9.07 10.43-.76-.1-2.27-.32-3.03-.42 4.55-2.16 9.04-5.16 10.77-10.16-2.14-1.33-4.62-1.88-6.98-2.66-.89 1.49-1.76 3-2.63 4.51.06 1.73.06 3.46.08 5.2-.71-.34-1.41-.68-2.12-1.02-.2-3.86 1.96-7.18 2.74-10.84 7.59 1.83 15.1 4.92 23.08 3.62zM84.95 159.09c6.13-1.52 12.38-3.18 18.75-2.92-.79 1.06-1.85 1.84-2.99 2.5-1.19 3.56-5.77 3.65-8.9 3.94 2.86-1.4 6.04-2.16 8.66-4-1.48-.12-2.99-.47-4.46-.12-6.54 1.45-12.99 3.28-19.52 4.72 1.79-2.97 5.47-3.16 8.46-4.12z"/></g></svg>