<svg width="221pt" height="275pt" viewBox="0 0 221 275" xmlns="http://www.w3.org/2000/svg"><g fill="#FFF"><path d="M0 0h168.34c.01 38 .04 76 .12 114-1.17 7.19-.87 14.48-.82 21.74-9.84 1.84-19.64 3.87-29.47 5.73.25-4-1.43-7.64-2.3-11.44-.07-5.68.92-11.52-.81-17.06-1.26-3.91-1.99-8.09-4.4-11.51.34-5.65 1.18-11.57-.96-16.98-1.31-5.31.96-11.62-2.93-16.22-2.73-4.09-7.79-4.92-11.77-7.25-2.18-1.29-4.79-1.17-7.2-1.57.69-3.01 1.09-6.08 1.97-9.04.96-3.62.89-7.42-.18-11.01-.95-3.21-.64-7.17-3.39-9.54-2.9-3.05-7.44-2.77-11.29-2.6-4.95.17-9.95 3.56-10.82 8.65-.41 3.66.47 7.29.92 10.9.93 1.05 1.85 2.1 2.77 3.15-.14 3.12-.34 6.24-.71 9.35-3.34.76-6.34 2.56-8.67 5.05-3.24 3.47-8.13 5.57-9.79 10.31-1.79 3.41-2.16 7.49-.42 11 1.66 3.22 1.96 6.85 2.85 10.31.77 3.15 3.18 5.44 5.16 7.87 3.27 3.94 5.25 8.75 8.46 12.74.41 1.57.81 3.15 1.23 4.73-1.45 2.37-3.42 4.53-4.18 7.24-.3 3.55 1.52 6.92 1.27 10.5.06 4.32-2.57 8.38-1.81 12.7.27.03.81.11 1.08.15 2.13-6.05 3.4-12.59 1.81-18.95-1.02-2.95-.33-5.97.67-8.81.73.06 2.19.18 2.92.25.67 1.11 1.44 2.18 2.06 3.33-1.17 1.96-2.07 4.08-2.36 6.37.44.14 1.32.42 1.77.56.27-1.86.58-3.71.92-5.56l.26-.79c1.36 1.84 2.76 3.64 4.26 5.36-2.86 1.55-5.84 3.02-8.14 5.38 3.36-.34 6.18-2.29 8.97-4.01 1.15 2.81 3.36 5.66 2.75 8.84-1.25 1.9-2.73 3.72-3.11 6.05-10.61 2.19-21.25 4.27-31.86 6.47-.1-5.39.45-10.82-.42-16.16-.86-5.02-.4-10.13-.48-15.2-.05-40.38.09-80.75-.07-121.13-3.65.33-1.94 4.65-2.45 7.13-.36 30 .03 60.01-.15 90.02.57 13.01.36 26.04.2 39.05-.82.17-2.46.49-3.28.66-.05-5.93.52-11.84.45-17.77.09-5.47-1.03-10.9-.51-16.37.6-7.53.49-15.1.33-22.65-.05-16.66.08-33.32 0-49.98-.05-9.46.06-18.97-.99-28.39-1.01 31.45-.3 62.94-.48 94.4.47 13.55-.37 27.1-.11 40.65-1.19-.45-2.37-.91-3.56-1.36-.32-39.75-.27-79.5-.39-119.25-.04-5 .16-10.01-.29-15-2.45 1.93-1.41 5.28-1.67 7.95.13 40.66-.03 81.32.21 121.97-.36 5.5-2.32 11.55 1.45 16.39.16-3.39.16-6.78.19-10.18 1.31.57 2.65 1.08 3.91 1.77.5 6.35-.13 12.72-.14 19.08-.2 7.4.57 14.79.37 22.2-2.74-.28-4.43-2.06-5.23-4.57-.29 2.78-.59 5.57-.56 8.38.17 22.34.02 44.69.19 67.03.15 3.6-.81 7.77 1.89 10.7 1.23-9.57-.01-19.22.5-28.82-.13-17.27-.37-34.54-.37-51.81 1.23.44 2.45.89 3.67 1.36-.25 19.47.1 38.95-.13 58.43-.37 6.68-.26 13.38-.27 20.07.48 0 1.42.01 1.89.01.09-6.35-.23-12.71.23-19.06.14-19.87-.25-39.76.07-59.63l2.7-1.17c.36 26.79-.14 53.6.43 80.39 1.3-.76 2.3-1.8 1.97-3.42.03-24.71-.06-49.42.02-74.12 1.28-8.2.91-16.5.86-24.77 4.92-1.04 9.88-1.9 14.82-2.9 1.05 1.58 2.2 3.09 3.4 4.57 1-1.84-.08-3.57-1.27-4.98 6.54-.63 13-3.85 19.58-2.72 5.15-.11 11.83 1.33 15.1-3.81-.33-1.69-.59-3.39-.81-5.09 1.65-.45 3.44-.6 4.94-1.5-.38-2.24-4.29-.18-5.89-1.57 2.37-.6 4.71-1.43 7.15-1.68-.31 2.56-.48 5.14-.86 7.69 2.18 2.51 4.66 5.2 8.46 4.18-3.7 2.19-7.39 4.82-11.75 5.46-3.52.06-6.86-1.28-10.25-2.08-.35 1.35-.69 2.7-1.04 4.05-2.66 1.52-5.52 2.82-8.62 3.08-3.95.59-7.48-1.61-11.03-2.96-.02-.95-.05-2.85-.07-3.8-.74.38-2.23 1.13-2.97 1.5.69.79 1.39 1.58 2.08 2.38l-1.56 1.6c-.16 5.09 1.33 10.39-.54 15.31-1.74 4.65-1.81 9.64-2.36 14.51-1.43 5.48-4.05 10.74-4.32 16.49.12 7.18 3.74 13.8 3.73 21 .03 2.8-.27 5.61-.96 8.33.48 1.6.97 3.19 1.44 4.79-.29 2.4.42 4.7 1.43 6.85 1.21 2.52 1.1 5.44 2.23 7.98 3.98 4.94 11.77 5.86 17.05 2.54 1.82-.53 4.73-.89 4.49-3.46-.29-4.58-4.7-7.24-6.8-10.96-2.44-4.57-6.02-8.77-6.47-14.13-.79-6.64-.02-13.56 2.57-19.75 1.91-5.17.32-10.72.84-16.05.59-4.26 2.28-8.25 3.58-12.32 1.01-3.16 3.31-5.73 4.32-8.89 1.19-3.59 1.41-7.4 1.59-11.15.88-.9 1.75-1.81 2.63-2.71 1.41 3.11 3.33 5.95 5.11 8.86 1.83 2.93.98 6.65 2.3 9.77 1.5 3.6 3.14 7.15 5 10.58 2.68-4.67-2.51-8.55-2.57-13.23-.07-4.98-2.86-9.25-5.72-13.11-1.48-1.91-4.08-3.11-4.28-5.82 2.68.96 5.21 3.02 8.22 2.62 4.92-.32 9.29-2.97 13.09-5.94.26 4.26.5 8.53.81 12.79l-1.98.12c-.8 2.3-1.31 4.84-3.02 6.68-2.75-.14-3.9-2.82-4.9-4.95-.2 0-.6.02-.79.02 1.13 2.28 1.44 6.2 4.6 6.45 2.89-.52 3.94-3.59 5.49-5.68.7 1.87 1.88 3.72 1.59 5.8-1.04 6.65-2.31 13.53-.77 20.21 1.65 7.55-.64 15.41 1.73 22.86.23 2.61 2.63 3.99 4.25 5.74 2.81 2.53 4.67 6.02 7.82 8.2 2.06 1.45 4.61 1.82 7.03 2.29.71.95 1.41 1.92 2.11 2.89-1.69.88-3.31 1.94-5.1 2.62-2.63.26-5.26-.25-7.89-.34-2.59-1.22-5.19-2.9-8.17-2.71-3.68-.2-7.89 1.34-11.01-1.28.34-4.54.56-9.14 2-13.49.01-4.96.88-10.2-.96-14.94-3.49-5.87-4.3-13.02-3.58-19.71-.44-.8-.9-1.59-1.36-2.37-.85 4.61-1.57 9.34-1.09 14.03 1.46 4.84 5.12 8.87 5.43 14.08 1.67 7.95-4.08 15.5-1.9 23.39 2.58 2.65 6.43 2.44 9.78 1.85 2.96-.72 5.63.93 8.23 2.08 6.01 2.44 14.22 1.91 17.9-4.13-1.19-1.4-2.38-2.79-3.59-4.17-2.36-.43-4.93-.56-6.86-2.15-3.37-2.59-5.61-6.32-8.95-8.95-1.9-1.4-2.4-3.82-2.81-6-.83-6.8.1-13.71-.96-20.49-1.23-5.89-1.16-12.06.16-17.93.88-3.27-1.4-6.25-1.32-9.49-.01-4.58-.09-9.18-.86-13.7.83-.56 1.67-1.12 2.5-1.68 1.52-.5 3.12-.85 4.51-1.69 1.7-1.2.8-3.64 1-5.31 1.58.18 3.18.34 4.74-.05 8.62-1.67 17.13-3.8 25.77-5.4.12 6.77-1.01 13.63.43 20.32.57 3.44.37 6.95.4 10.43.03 21.37 0 42.75.16 64.12-.1 1.77.82 3.32 1.9 4.65 1.13-9.87-.06-19.81.46-29.71-.19-16.3-.31-32.6-.4-48.9 1.23.43 2.46.88 3.69 1.34-.24 18.83.1 37.66-.13 56.49-.37 6.66-.26 13.34-.27 20.01.47 0 1.42.01 1.89.01.07-6.66-.21-13.33.27-19.98.01-18.91-.19-37.84-.01-56.74.91-.37 1.81-.74 2.72-1.11.21 26.1-.08 52.2.41 78.28 2.59-.68 1.92-3.45 2.05-5.45-.11-22.67.01-45.34-.07-68.01-.04-3.89.92-7.7.93-11.6 2.06 2.32 4.45 5.07 7.88 4.91 3.86-.07 8.49.37 11.16-3.05 5.67-6.76 7.23-15.98 7.08-24.56 4.27-.41 8.45-1.46 12.71-1.98V275H0V0m28.33 141.19c-6.73 5.99-8.34 15.68-9.02 24.24-4.64 1.09-9.72.94-14.02 3.01.54.82 1.09 1.65 1.65 2.46l.69-2.11c.12.82.36 2.46.47 3.28-1.03-.83-2.07-1.64-3.12-2.45l.14 2.4c.47.62 1.41 1.85 1.88 2.47 4.47-1.61 9.26-1.75 13.85-2.87-1.27 2.05-.22 4.34.25 6.45 1.47 5.13 3.6 10.68 8.39 13.57 3.52 2.06 7.63.49 11.4.31 3.06-1.46 5.17-4.37 6.62-7.35 3.96-7.78 3.89-16.66 3.88-25.16-1.84-6.45-3.08-13.79-8.55-18.31-4.17-3.43-10.11-2.12-14.51.06m94.47 89.12c.81 1.42 1.56 2.94 2.9 3.95-.7-2.71-1.25-5.46-1.22-8.28-1.37 1.02-1.24 2.85-1.68 4.33z"/><path d="M170.16 0h4.21c-.19 30.33-.12 60.66.12 90.99-.49 9.22-.21 18.45-.27 27.68-1.19-.46-2.37-.91-3.56-1.37-.39-39.1-.13-78.2-.5-117.3zM175.75 0h2.9c-.2 25.01.15 50.01-.07 75.02.4 14.32.62 28.68.28 43-.83.2-2.48.59-3.31.78-.23-8.97 1-17.94.1-26.89-.41-3.6-.38-7.23-.09-10.84.72-9.33.11-18.68.21-28.02.02-17.68.09-35.37-.02-53.05zM181.26 0H221v124.77c-4.26 1.22-8.63 1.97-12.92 3.03-1.38-6.55-2.99-13.92-8.65-18.18-3.03-2.31-7.02-2.13-10.5-1.14-3.42.43-5.57 3.37-7.74 5.72.18-38.06.03-76.13.07-114.2zM89.52 31.37c3.58-2.88 8.33-2.91 12.69-2.74 1.61 1.41 3.43 2.71 4.51 4.6 2.23 7.37 3.28 15.36.52 22.74-.47 1.52-2.07 2.07-3.25 2.9-2.66-.89-5.37-1.69-7.95-2.83-2.36-1.09-3.18-3.75-4.14-5.95-1.71-1.03-3.39-2.11-5.06-3.21.35-1.66.77-3.31 1.22-4.95-.6.13-1.79.39-2.38.52-.5-3.98.17-8.74 3.84-11.08z"/><path d="M88.52 49.98c2.42 1.86 3.38 4.83 5.27 7.11 3.12 2.4 7.14 3.58 11.07 3.3.14.8.42 2.4.55 3.21.6-.92 1.08-1.9 1.45-2.93 3.43.66 6.9.92 9.66 3.35-.84.99-1.71 1.96-2.59 2.9 1.59-1.19 3.53-1.22 5.44-1.05.09-.52.26-1.55.35-2.07 2.43 1.81 4.8 3.82 6.45 6.4 1.98 5.6.05 11.84 2.3 17.39 1.8 6.1-.79 12.82 2.3 18.57.62 1.79.97 3.66 1.66 5.43 3.63 7.39.71 15.9 2.95 23.62 1.43 4.85-.43 9.84.05 14.76.38 1.56-1.25 2.13-2.45 2.21-3.81.38-8.01 2.28-11.21-.75.05-1.96-.27-3.89-.79-5.77 1.49-2.11 4.32-3.2 5.15-5.72-.29-.29-.86-.89-1.14-1.19l.91-.49c-.92-2.47-2.45-4.94-1.73-7.68 1.03 2.26.98 4.88 2.08 7.1l.85-.2c-.08-5.08-1.14-10.26-4.2-14.42-3.05-4.94-.95-10.64-1.35-15.99.2-4.15 3.61-7.87 2.13-12.18-.97-2.8-.29-6.55-2.8-8.55-.42 3.99 1.48 7.71 1.43 11.67-.07 3.6-2.43 6.47-4.18 9.42-.71-.12-2.13-.37-2.84-.49-.12-2.18-.87-4.22-1.74-6.2-.24 2.27-.04 4.7-1.07 6.8-1.54 2.45-4.88.32-7.04 1.71-1.69 1.23-3.52.43-5.21-.28.82 1.48 2.33 3.71 4.32 2.71 3.01-1.92 7.11-.41 9.6-3.41 1 .4 2 .81 3 1.23l2.23-2.11.32 5.25-1.05.08c.14 1.29.27 2.58.41 3.87.48 1.22 2.26 2.75.37 3.69-3.96 2.62-8.9 2.48-13.31 3.88l-.72 1.86c-.39-1.48-.83-2.94-1.3-4.39 1.19.4 2.38.77 3.58 1.12-1.22-2.19-3.88-3.16-4.82-5.55-1.44-3.04-2.66-6.19-4.47-9.04.52-.15 1.54-.44 2.05-.59-.02-.6-.07-1.8-.09-2.4-1.14.56-2.25 1.17-3.24 1.96-.48-1.55-1.82-2.51-2.91-3.59-.93-3.42-.91-7.44-3.85-9.92 2.38-.91 4.98-1.12 7.3-2.19 2.09-1.03 3.94-3.08 6.48-2.64.22.28.65.84.86 1.11-.42 3.22-4.19 4.95-5.25 7.98 4.15-1.37 5.4-5.82 8.9-7.96-1.07-.48-2.87-.92-2.59-2.49 2.78-2.01 1.77-5.47 1.93-8.37.02-1.77-.93-3.63-2.76-4.06 1.03 3.63 3.03 7.29.79 10.9-4.17.98-7.85 3.06-11.07 5.86-1.74-.19-3.41-.61-5.02-1.26.12.64.35 1.92.46 2.56-2.1-2.12-4.25-4.35-5.31-7.21-1.97-3.49.02-7.36.36-11.01-2.84 1.4-1.37 5.67-4.13 7.02 2.14 3.82 2.79 8.47 6.04 11.62 2.46 2.33 4.09 5.3 4.91 8.58-1.48-.6-2.99-1.13-4.58-1.33 2.95 3.19 6.94 5.38 9.15 9.24 2 3.81 4.67 7.33 5.8 11.54 1.73 6.25 5.85 11.76 5.89 18.45-.37 3.08 4.33 2.86 3.68 6.03-.48 2.73 1.46 6.89-1.74 8.36-1.58.79-3.41.81-5.12 1.13-2.43-.62-5.21-.02-7.22-1.84-3.05 1.92-6.75 2.03-10.16 2.83-8.29 1.4-16.48 3.36-24.78 4.66 0-.71.02-2.11.02-2.82 11.28-1.92 22.34-4.91 33.65-6.63-.18-3.83 2.86-6.41 4.36-9.62-.75-3.03-2.39-5.76-3.79-8.52-3.21-3.47-6.36-7.04-8.88-11.05-1.6-3.47-1.97-7.34-3.01-10.98-4.26-2.77-6.13-7.75-10.09-10.81-4.2-4.11-3.07-10.55-4.78-15.72-1.37-4.36-1.51-9.83 2.11-13.18 2.59-2.06 4.9-4.44 7.16-6.85 2.08-2.27 5.24-2.91 7.78-4.48 1.5-3.25 1.17-7.03.82-10.49m2.41 7.91c.94 1.97 1.57 4.38 3.85 5.21-.7-2.13-2.22-3.75-3.85-5.21m-3.26 10.02c-.1.4-.28 1.19-.37 1.59 4.97-.91 10.28-2.54 14.98.38 1.2-.53 2.42-1.12 3.11-2.3-1.84.4-3.7.23-5.45-.42-4.07-1.29-8.22.22-12.27.75m-9.15 1.51c2.24-.68 3.97.61 5.46 2.09 1.17-.19 1.92-1.89 1.67-3.04-2.23-1.23-5.4-1.1-7.13.95m38.22.09c2.56 4.57 5.06 9.88 2.83 15.14-3.42.33-7.19 1.41-10.42-.28.07.27.21.81.28 1.09 1.19.49 2.37 1.04 3.61 1.44 2.57-.02 5.16-1.79 7.6-.14 3.49-5.53 1.75-13.85-3.9-17.25m-2.23 18.99c-1.45 1.01-2.55 2.7-4.58 2.15 1.82 1.49 2.78 3.65 2.17 6-3.13.08-5.52 2.22-8.39 3.16-.67.82-1.33 1.66-1.98 2.5-1.95-.56-3.61-1.74-5.29-2.83.01 3.14 3.12 3.78 5.51 4.44 1.31-1.5 2.79-2.91 4.88-3.16.36-.39 1.09-1.17 1.45-1.56 1.83-.23 3.59-.81 5.11-1.87 2.7.15 5.38.57 7.94 1.46-.82-3.49-4.81-2.82-7.51-2.99-.07-1.54-.87-2.81-1.79-3.98.91-.72 1.81-1.45 2.72-2.17 1.1.46 2.22.91 3.35 1.33-.91-1.08-1.93-2.81-3.59-2.48m-40.77 6.47c1.9 1.24 4.3 2.02 5.47 4.11 1.63 2.37 2.57 5.34 5 7.06.47-.21 1.4-.62 1.87-.83-4.2-1.77-4.01-7.33-7.69-9.67-1.37-.95-3.1-.56-4.65-.67m28.5 18.87c.67.53.67.53 0 0m10.29 1.29c-.17.42-.52 1.27-.69 1.69 1.35 3.3 3.92-3.48.69-1.69zM187.4 110.48c2.22-.58 4.52-.83 6.76-1.37 3.34 1.68 6.87 3.61 8.53 7.16 5.19 10.12 5.44 22.41 1.72 33.05-1.83 4.73-5.17 10.47-11.12 9.84 6.84-5.53 8.2-14.84 8.73-23.08-.11-8.16-1.45-16.88-6.65-23.45-.71-1.22-2.18-1.23-3.38-1.49 3.63 4.87 7.06 10.17 7.78 16.35 1.17 9.91.83 21.27-6.17 29.12-.26.91-.51 1.82-.75 2.74-4.57.44-9.08-2.21-10.52-6.62-.35-4.45-.06-8.92-.1-13.37 2.32-.39 4.63-.88 6.94-1.34 1.25-2.19.78-4.48-.36-6.61-2.21.41-4.42.8-6.6 1.3-.13-5.23.33-10.48-.47-15.66.94-2.76 3.09-5.2 5.66-6.57zM175.77 120.68c1.32-.2 2.65-.4 3.98-.59.03 12.99-.02 25.99-.01 38.98.61 2.29-2.04 2.34-3.47 3.05-1.04-13.79-.65-27.63-.5-41.44zM170.11 119.48c1 .29 3.02.86 4.03 1.14.35 9.47-.57 18.94-.13 28.41.23 4.33.35 8.67.32 13.01-1.42-.42-2.82-.84-4.22-1.29.06-13.76-.03-27.51 0-41.27z"/><path d="M105.8 126.12c4.88.03 9.5-1.86 14.11-3.24 1.23 1.87 2.5 3.72 3.74 5.58-.58 1.84-1.12 3.69-1.68 5.53.97 1.86 1.79 3.8 2.41 5.81-.7.35-2.1 1.04-2.8 1.38l.3.79c-3 .04-6.02.38-8.76 1.67-2.01-2.33-3.12-5.17-3.39-8.23 2.46-.22 5.01-1.1 7.41-.13-2.2 1.2-5.79 1.06-6.55 4.01 3.04-.86 5.95-2.07 8.84-3.33-.04-1.03-.06-2.07-.07-3.1-3.22-.06-6.4.46-9.52 1.22-.61-1.31-1.24-2.61-1.89-3.9 3.36-.29 6.58-1.32 9.75-2.4.66-.91 1.35-1.79 2.05-2.66-3.94 1.85-8.28 2.44-12.45 3.56-.51-.85-1.01-1.71-1.5-2.56zM208.04 128.86c4.38-.31 8.64-1.4 12.96-2.12v3.18c-4.25 1.05-8.61 1.56-12.85 2.68-.03-1.25-.07-2.5-.11-3.74zM182.22 134.32c2.35-.1 5.48-2.31 6.88.65-1.34 2.54-4.54 2.03-6.92 2.78.01-1.15.02-2.29.04-3.43zM137 143.44c10.3-1.93 20.6-3.89 30.83-6.14-.05.86-.17 2.56-.23 3.42-9.65 1.52-19.25 3.45-28.71 5.89-.7-1.02-1.31-2.09-1.89-3.17zM28.22 143.26c2.38-2.58 6.17-1.98 9.27-2.88 7.73 3.02 10.91 11.48 11.94 19.1 1.27 9.13.17 19.18-5.08 26.97-2.76 4.52-8.82 4.27-13.37 3.56-6.79-3.31-8.39-11.72-9.82-18.42 4.01-.82 8.08-1.37 12-2.56.01-2.23-.32-4.44-1.28-6.47-4.14.62-8.15 1.95-12.31 2.5.35-.54 1.03-1.63 1.37-2.17.85-6.93 2.22-14.44 7.28-19.63m6.88-1.03c2.12 3.54 5.11 6.62 6.21 10.71 3.68 11.94 2.5 25.57-4.41 36.14 3.77-1.32 4.88-5.52 6.03-8.91 3.44-11.6 2.79-24.93-3.67-35.37-.74-1.72-2.49-2.23-4.16-2.57zM56.78 142.69c1.32-.21 2.64-.42 3.96-.62.06 12.99-.03 25.99.01 38.98.62 2.28-2.03 2.36-3.47 3.09-1.07-13.79-.66-27.64-.5-41.45z"/><path d="M9.6 168.62c7.38-.76 14.57-2.65 21.89-3.78.13.89.2 1.79.2 2.69-7.22 1.67-14.55 2.79-21.77 4.5l-.32-3.41zM84.02 164.77c2.66.86 5.15 2.19 7.82 3.04 3.78.71 7.56-.63 11.25-1.32-.78 5.43-1.58 11.12-4.9 15.68-2.38 5.06-3.88 10.52-5.63 15.83-2.99 5.22-5.7 11.17-4.74 17.31.26.33.79.98 1.05 1.31 1.22-5.14.42-10.94 3.99-15.3.09 3.24.32 6.5-.06 9.73-.78 3.35-2.74 6.35-3.26 9.78-1.04 6.72-.71 13.94 2.24 20.14 2.72 3.83 4.2 8.5 7.61 11.82 1.72 1.87 3.05 4.05 4.36 6.22-1.15.53-2.35.93-3.6 1.19-.82-1.46-1.73-2.88-2.93-4.06-3.16 1.14-6.52.68-9.78 1-.15.44-.46 1.32-.61 1.75.93-.2 1.87-.39 2.81-.59 2.96 2.1 7.27-2.11 9.08 1.94-3.99 3.66-10.63 2.32-13.6-1.97-.47-6.05-3.87-11.31-5.05-17.2-.06-2.74 1.08-5.37.95-8.12-.3-6-2.31-11.71-3.64-17.51-1.38-6.5 1.02-12.99 3.65-18.83 1.42 2.83 1.82 6.21 4.04 8.6-.6-5.47-2.85-10.64-3.34-16.15.11-4.52 2.29-8.58 3.26-12.91.12-3.82-.69-7.59-.97-11.38m3.5 14.99c-.24 1.82-.42 3.65-.44 5.49.7-1.12 1.37-2.26 2.04-3.4 1.73-.41 3.44-.87 5.13-1.42.56 1.07.94 2.42 2.34 2.57-.61-1.68-1.28-3.32-1.96-4.97-2.19 1.22-4.59 1.9-7.11 1.73m5.52 11.08c1.3-2.16-2.65-1.38-3.59-2.17-.49 2.53 1.56 2.81 3.59 2.17m-10.33 51.87c3.01-1.8 3.78-5.38 5.64-8.12-3.74.38-4.66 5.14-5.64 8.12z"/></g><g fill="#333"><path d="M168.34 0h1.82c.37 39.1.11 78.2.5 117.3 1.19.46 2.37.91 3.56 1.37.06-9.23-.22-18.46.27-27.68-.24-30.33-.31-60.66-.12-90.99h1.38c.11 17.68.04 35.37.02 53.05-.1 9.34.51 18.69-.21 28.02-.29 3.61-.32 7.24.09 10.84.9 8.95-.33 17.92-.1 26.89.83-.19 2.48-.58 3.31-.78.34-14.32.12-28.68-.28-43 .22-25.01-.13-50.01.07-75.02h2.61c-.04 38.07.11 76.14-.07 114.2 2.17-2.35 4.32-5.29 7.74-5.72 3.48-.99 7.47-1.17 10.5 1.14 5.66 4.26 7.27 11.63 8.65 18.18 4.29-1.06 8.66-1.81 12.92-3.03v1.97c-4.32.72-8.58 1.81-12.96 2.12.04 1.24.08 2.49.11 3.74 4.24-1.12 8.6-1.63 12.85-2.68v1.79c-4.26.52-8.44 1.57-12.71 1.98.15 8.58-1.41 17.8-7.08 24.56-2.67 3.42-7.3 2.98-11.16 3.05-3.43.16-5.82-2.59-7.88-4.91-.01 3.9-.97 7.71-.93 11.6.08 22.67-.04 45.34.07 68.01-.13 2 .54 4.77-2.05 5.45-.49-26.08-.2-52.18-.41-78.28-.91.37-1.81.74-2.72 1.11-.18 18.9.02 37.83.01 56.74-.48 6.65-.2 13.32-.27 19.98-.47 0-1.42-.01-1.89-.01.01-6.67-.1-13.35.27-20.01.23-18.83-.11-37.66.13-56.49-1.23-.46-2.46-.91-3.69-1.34.09 16.3.21 32.6.4 48.9-.52 9.9.67 19.84-.46 29.71-1.08-1.33-2-2.88-1.9-4.65-.16-21.37-.13-42.75-.16-64.12-.03-3.48.17-6.99-.4-10.43-1.44-6.69-.31-13.55-.43-20.32-8.64 1.6-17.15 3.73-25.77 5.4-1.56.39-3.16.23-4.74.05-.2 1.67.7 4.11-1 5.31-1.39.84-2.99 1.19-4.51 1.69-.83.56-1.67 1.12-2.5 1.68.77 4.52.85 9.12.86 13.7-.08 3.24 2.2 6.22 1.32 9.49-1.32 5.87-1.39 12.04-.16 17.93 1.06 6.78.13 13.69.96 20.49.41 2.18.91 4.6 2.81 6 3.34 2.63 5.58 6.36 8.95 8.95 1.93 1.59 4.5 1.72 6.86 2.15 1.21 1.38 2.4 2.77 3.59 4.17-3.68 6.04-11.89 6.57-17.9 4.13-2.6-1.15-5.27-2.8-8.23-2.08-3.35.59-7.2.8-9.78-1.85-2.18-7.89 3.57-15.44 1.9-23.39-.31-5.21-3.97-9.24-5.43-14.08-.48-4.69.24-9.42 1.09-14.03.46.78.92 1.57 1.36 2.37-.72 6.69.09 13.84 3.58 19.71 1.84 4.74.97 9.98.96 14.94-1.44 4.35-1.66 8.95-2 13.49 3.12 2.62 7.33 1.08 11.01 1.28 2.98-.19 5.58 1.49 8.17 2.71 2.63.09 5.26.6 7.89.34 1.79-.68 3.41-1.74 5.1-2.62-.7-.97-1.4-1.94-2.11-2.89-2.42-.47-4.97-.84-7.03-2.29-3.15-2.18-5.01-5.67-7.82-8.2-1.62-1.75-4.02-3.13-4.25-5.74-2.37-7.45-.08-15.31-1.73-22.86-1.54-6.68-.27-13.56.77-20.21.29-2.08-.89-3.93-1.59-5.8-1.55 2.09-2.6 5.16-5.49 5.68-3.16-.25-3.47-4.17-4.6-6.45.19 0 .59-.02.79-.02 1 2.13 2.15 4.81 4.9 4.95 1.71-1.84 2.22-4.38 3.02-6.68l1.98-.12c-.31-4.26-.55-8.53-.81-12.79-3.8 2.97-8.17 5.62-13.09 5.94-3.01.4-5.54-1.66-8.22-2.62.2 2.71 2.8 3.91 4.28 5.82 2.86 3.86 5.65 8.13 5.72 13.11.06 4.68 5.25 8.56 2.57 13.23-1.86-3.43-3.5-6.98-5-10.58-1.32-3.12-.47-6.84-2.3-9.77-1.78-2.91-3.7-5.75-5.11-8.86-.88.9-1.75 1.81-2.63 2.71-.18 3.75-.4 7.56-1.59 11.15-1.01 3.16-3.31 5.73-4.32 8.89-1.3 4.07-2.99 8.06-3.58 12.32-.52 5.33 1.07 10.88-.84 16.05-2.59 6.19-3.36 13.11-2.57 19.75.45 5.36 4.03 9.56 6.47 14.13 2.1 3.72 6.51 6.38 6.8 10.96.24 2.57-2.67 2.93-4.49 3.46-5.28 3.32-13.07 2.4-17.05-2.54-1.13-2.54-1.02-5.46-2.23-7.98-1.01-2.15-1.72-4.45-1.43-6.85-.47-1.6-.96-3.19-1.44-4.79.69-2.72.99-5.53.96-8.33.01-7.2-3.61-13.82-3.73-21 .27-5.75 2.89-11.01 4.32-16.49.55-4.87.62-9.86 2.36-14.51 1.87-4.92.38-10.22.54-15.31l1.56-1.6c-.69-.8-1.39-1.59-2.08-2.38.74-.37 2.23-1.12 2.97-1.5.02.95.05 2.85.07 3.8 3.55 1.35 7.08 3.55 11.03 2.96 3.1-.26 5.96-1.56 8.62-3.08.35-1.35.69-2.7 1.04-4.05 3.39.8 6.73 2.14 10.25 2.08 4.36-.64 8.05-3.27 11.75-5.46-3.8 1.02-6.28-1.67-8.46-4.18.38-2.55.55-5.13.86-7.69-2.44.25-4.78 1.08-7.15 1.68 1.6 1.39 5.51-.67 5.89 1.57-1.5.9-3.29 1.05-4.94 1.5.22 1.7.48 3.4.81 5.09-3.27 5.14-9.95 3.7-15.1 3.81-6.58-1.13-13.04 2.09-19.58 2.72 1.19 1.41 2.27 3.14 1.27 4.98-1.2-1.48-2.35-2.99-3.4-4.57-4.94 1-9.9 1.86-14.82 2.9.05 8.27.42 16.57-.86 24.77-.08 24.7.01 49.41-.02 74.12.33 1.62-.67 2.66-1.97 3.42-.57-26.79-.07-53.6-.43-80.39l-2.7 1.17c-.32 19.87.07 39.76-.07 59.63-.46 6.35-.14 12.71-.23 19.06-.47 0-1.41-.01-1.89-.01.01-6.69-.1-13.39.27-20.07.23-19.48-.12-38.96.13-58.43-1.22-.47-2.44-.92-3.67-1.36 0 17.27.24 34.54.37 51.81-.51 9.6.73 19.25-.5 28.82-2.7-2.93-1.74-7.1-1.89-10.7-.17-22.34-.02-44.69-.19-67.03-.03-2.81.27-5.6.56-8.38.8 2.51 2.49 4.29 5.23 4.57.2-7.41-.57-14.8-.37-22.2.01-6.36.64-12.73.14-19.08-1.26-.69-2.6-1.2-3.91-1.77-.03 3.4-.03 6.79-.19 10.18-3.77-4.84-1.81-10.89-1.45-16.39-.24-40.65-.08-81.31-.21-121.97.26-2.67-.78-6.02 1.67-7.95.45 4.99.25 10 .29 15 .12 39.75.07 79.5.39 119.25 1.19.45 2.37.91 3.56 1.36-.26-13.55.58-27.1.11-40.65.18-31.46-.53-62.95.48-94.4 1.05 9.42.94 18.93.99 28.39.08 16.66-.05 33.32 0 49.98.16 7.55.27 15.12-.33 22.65-.52 5.47.6 10.9.51 16.37.07 5.93-.5 11.84-.45 17.77.82-.17 2.46-.49 3.28-.66.16-13.01.37-26.04-.2-39.05.18-30.01-.21-60.02.15-90.02.51-2.48-1.2-6.8 2.45-7.13.16 40.38.02 80.75.07 121.13.08 5.07-.38 10.18.48 15.2.87 5.34.32 10.77.42 16.16 10.61-2.2 21.25-4.28 31.86-6.47.38-2.33 1.86-4.15 3.11-6.05.61-3.18-1.6-6.03-2.75-8.84-2.79 1.72-5.61 3.67-8.97 4.01 2.3-2.36 5.28-3.83 8.14-5.38-1.5-1.72-2.9-3.52-4.26-5.36l-.26.79c-.34 1.85-.65 3.7-.92 5.56-.45-.14-1.33-.42-1.77-.56.29-2.29 1.19-4.41 2.36-6.37-.62-1.15-1.39-2.22-2.06-3.33-.73-.07-2.19-.19-2.92-.25-1 2.84-1.69 5.86-.67 8.81 1.59 6.36.32 12.9-1.81 18.95-.27-.04-.81-.12-1.08-.15-.76-4.32 1.87-8.38 1.81-12.7.25-3.58-1.57-6.95-1.27-10.5.76-2.71 2.73-4.87 4.18-7.24-.42-1.58-.82-3.16-1.23-4.73-3.21-3.99-5.19-8.8-8.46-12.74-1.98-2.43-4.39-4.72-5.16-7.87-.89-3.46-1.19-7.09-2.85-10.31-1.74-3.51-1.37-7.59.42-11 1.66-4.74 6.55-6.84 9.79-10.31 2.33-2.49 5.33-4.29 8.67-5.05.37-3.11.57-6.23.71-9.35-.92-1.05-1.84-2.1-2.77-3.15-.45-3.61-1.33-7.24-.92-10.9.87-5.09 5.87-8.48 10.82-8.65 3.85-.17 8.39-.45 11.29 2.6 2.75 2.37 2.44 6.33 3.39 9.54 1.07 3.59 1.14 7.39.18 11.01-.88 2.96-1.28 6.03-1.97 9.04 2.41.4 5.02.28 7.2 1.57 3.98 2.33 9.04 3.16 11.77 7.25 3.89 4.6 1.62 10.91 2.93 16.22 2.14 5.41 1.3 11.33.96 16.98 2.41 3.42 3.14 7.6 4.4 11.51 1.73 5.54.74 11.38.81 17.06.87 3.8 2.55 7.44 2.3 11.44 9.83-1.86 19.63-3.89 29.47-5.73-.05-7.26-.35-14.55.82-21.74-.08-38-.11-76-.12-114M89.52 31.37c-3.67 2.34-4.34 7.1-3.84 11.08.59-.13 1.78-.39 2.38-.52-.45 1.64-.87 3.29-1.22 4.95 1.67 1.1 3.35 2.18 5.06 3.21.96 2.2 1.78 4.86 4.14 5.95 2.58 1.14 5.29 1.94 7.95 2.83 1.18-.83 2.78-1.38 3.25-2.9 2.76-7.38 1.71-15.37-.52-22.74-1.08-1.89-2.9-3.19-4.51-4.6-4.36-.17-9.11-.14-12.69 2.74m-1 18.61c.35 3.46.68 7.24-.82 10.49-2.54 1.57-5.7 2.21-7.78 4.48-2.26 2.41-4.57 4.79-7.16 6.85-3.62 3.35-3.48 8.82-2.11 13.18 1.71 5.17.58 11.61 4.78 15.72 3.96 3.06 5.83 8.04 10.09 10.81 1.04 3.64 1.41 7.51 3.01 10.98 2.52 4.01 5.67 7.58 8.88 11.05 1.4 2.76 3.04 5.49 3.79 8.52-1.5 3.21-4.54 5.79-4.36 9.62-11.31 1.72-22.37 4.71-33.65 6.63 0 .71-.02 2.11-.02 2.82 8.3-1.3 16.49-3.26 24.78-4.66 3.41-.8 7.11-.91 10.16-2.83 2.01 1.82 4.79 1.22 7.22 1.84 1.71-.32 3.54-.34 5.12-1.13 3.2-1.47 1.26-5.63 1.74-8.36.65-3.17-4.05-2.95-3.68-6.03-.04-6.69-4.16-12.2-5.89-18.45-1.13-4.21-3.8-7.73-5.8-11.54-2.21-3.86-6.2-6.05-9.15-9.24 1.59.2 3.1.73 4.58 1.33-.82-3.28-2.45-6.25-4.91-8.58-3.25-3.15-3.9-7.8-6.04-11.62 2.76-1.35 1.29-5.62 4.13-7.02-.34 3.65-2.33 7.52-.36 11.01 1.06 2.86 3.21 5.09 5.31 7.21-.11-.64-.34-1.92-.46-2.56 1.61.65 3.28 1.07 5.02 1.26 3.22-2.8 6.9-4.88 11.07-5.86 2.24-3.61.24-7.27-.79-10.9 1.83.43 2.78 2.29 2.76 4.06-.16 2.9.85 6.36-1.93 8.37-.28 1.57 1.52 2.01 2.59 2.49-3.5 2.14-4.75 6.59-8.9 7.96 1.06-3.03 4.83-4.76 5.25-7.98-.21-.27-.64-.83-.86-1.11-2.54-.44-4.39 1.61-6.48 2.64-2.32 1.07-4.92 1.28-7.3 2.19 2.94 2.48 2.92 6.5 3.85 9.92 1.09 1.08 2.43 2.04 2.91 3.59.99-.79 2.1-1.4 3.24-1.96.02.6.07 1.8.09 2.4-.51.15-1.53.44-2.05.59 1.81 2.85 3.03 6 4.47 9.04.94 2.39 3.6 3.36 4.82 5.55-1.2-.35-2.39-.72-3.58-1.12.47 1.45.91 2.91 1.3 4.39l.72-1.86c4.41-1.4 9.35-1.26 13.31-3.88 1.89-.94.11-2.47-.37-3.69-.14-1.29-.27-2.58-.41-3.87l1.05-.08-.32-5.25-2.23 2.11c-1-.42-2-.83-3-1.23-2.49 3-6.59 1.49-9.6 3.41-1.99 1-3.5-1.23-4.32-2.71 1.69.71 3.52 1.51 5.21.28 2.16-1.39 5.5.74 7.04-1.71 1.03-2.1.83-4.53 1.07-6.8.87 1.98 1.62 4.02 1.74 6.2.71.12 2.13.37 2.84.49 1.75-2.95 4.11-5.82 4.18-9.42.05-3.96-1.85-7.68-1.43-11.67 2.51 2 1.83 5.75 2.8 8.55 1.48 4.31-1.93 8.03-2.13 12.18.4 5.35-1.7 11.05 1.35 15.99 3.06 4.16 4.12 9.34 4.2 14.42l-.85.2c-1.1-2.22-1.05-4.84-2.08-7.1-.72 2.74.81 5.21 1.73 7.68l-.91.49c.28.3.85.9 1.14 1.19-.83 2.52-3.66 3.61-5.15 5.72.52 1.88.84 3.81.79 5.77 3.2 3.03 7.4 1.13 11.21.75 1.2-.08 2.83-.65 2.45-2.21-.48-4.92 1.38-9.91-.05-14.76-2.24-7.72.68-16.23-2.95-23.62-.69-1.77-1.04-3.64-1.66-5.43-3.09-5.75-.5-12.47-2.3-18.57-2.25-5.55-.32-11.79-2.3-17.39-1.65-2.58-4.02-4.59-6.45-6.4-.09.52-.26 1.55-.35 2.07-1.91-.17-3.85-.14-5.44 1.05.88-.94 1.75-1.91 2.59-2.9-2.76-2.43-6.23-2.69-9.66-3.35-.37 1.03-.85 2.01-1.45 2.93-.13-.81-.41-2.41-.55-3.21-3.93.28-7.95-.9-11.07-3.3-1.89-2.28-2.85-5.25-5.27-7.11m98.88 60.5c-2.57 1.37-4.72 3.81-5.66 6.57.8 5.18.34 10.43.47 15.66 2.18-.5 4.39-.89 6.6-1.3 1.14 2.13 1.61 4.42.36 6.61-2.31.46-4.62.95-6.94 1.34.04 4.45-.25 8.92.1 13.37 1.44 4.41 5.95 7.06 10.52 6.62.24-.92.49-1.83.75-2.74 7-7.85 7.34-19.21 6.17-29.12-.72-6.18-4.15-11.48-7.78-16.35 1.2.26 2.67.27 3.38 1.49 5.2 6.57 6.54 15.29 6.65 23.45-.53 8.24-1.89 17.55-8.73 23.08 5.95.63 9.29-5.11 11.12-9.84 3.72-10.64 3.47-22.93-1.72-33.05-1.66-3.55-5.19-5.48-8.53-7.16-2.24.54-4.54.79-6.76 1.37m-11.63 10.2c-.15 13.81-.54 27.65.5 41.44 1.43-.71 4.08-.76 3.47-3.05-.01-12.99.04-25.99.01-38.98-1.33.19-2.66.39-3.98.59m-5.66-1.2c-.03 13.76.06 27.51 0 41.27 1.4.45 2.8.87 4.22 1.29.03-4.34-.09-8.68-.32-13.01-.44-9.47.48-18.94.13-28.41-1.01-.28-3.03-.85-4.03-1.14m-64.31 6.64c.49.85.99 1.71 1.5 2.56 4.17-1.12 8.51-1.71 12.45-3.56-.7.87-1.39 1.75-2.05 2.66-3.17 1.08-6.39 2.11-9.75 2.4.65 1.29 1.28 2.59 1.89 3.9 3.12-.76 6.3-1.28 9.52-1.22.01 1.03.03 2.07.07 3.1-2.89 1.26-5.8 2.47-8.84 3.33.76-2.95 4.35-2.81 6.55-4.01-2.4-.97-4.95-.09-7.41.13.27 3.06 1.38 5.9 3.39 8.23 2.74-1.29 5.76-1.63 8.76-1.67l-.3-.79c.7-.34 2.1-1.03 2.8-1.38-.62-2.01-1.44-3.95-2.41-5.81.56-1.84 1.1-3.69 1.68-5.53-1.24-1.86-2.51-3.71-3.74-5.58-4.61 1.38-9.23 3.27-14.11 3.24m76.42 8.2c-.02 1.14-.03 2.28-.04 3.43 2.38-.75 5.58-.24 6.92-2.78-1.4-2.96-4.53-.75-6.88-.65M137 143.44c.58 1.08 1.19 2.15 1.89 3.17 9.46-2.44 19.06-4.37 28.71-5.89.06-.86.18-2.56.23-3.42-10.23 2.25-20.53 4.21-30.83 6.14m-80.22-.75c-.16 13.81-.57 27.66.5 41.45 1.44-.73 4.09-.81 3.47-3.09-.04-12.99.05-25.99-.01-38.98-1.32.2-2.64.41-3.96.62m27.24 22.08c.28 3.79 1.09 7.56.97 11.38-.97 4.33-3.15 8.39-3.26 12.91.49 5.51 2.74 10.68 3.34 16.15-2.22-2.39-2.62-5.77-4.04-8.6-2.63 5.84-5.03 12.33-3.65 18.83 1.33 5.8 3.34 11.51 3.64 17.51.13 2.75-1.01 5.38-.95 8.12 1.18 5.89 4.58 11.15 5.05 17.2 2.97 4.29 9.61 5.63 13.6 1.97-1.81-4.05-6.12.16-9.08-1.94-.94.2-1.88.39-2.81.59.15-.43.46-1.31.61-1.75 3.26-.32 6.62.14 9.78-1 1.2 1.18 2.11 2.6 2.93 4.06 1.25-.26 2.45-.66 3.6-1.19-1.31-2.17-2.64-4.35-4.36-6.22-3.41-3.32-4.89-7.99-7.61-11.82-2.95-6.2-3.28-13.42-2.24-20.14.52-3.43 2.48-6.43 3.26-9.78.38-3.23.15-6.49.06-9.73-3.57 4.36-2.77 10.16-3.99 15.3-.26-.33-.79-.98-1.05-1.31-.96-6.14 1.75-12.09 4.74-17.31 1.75-5.31 3.25-10.77 5.63-15.83 3.32-4.56 4.12-10.25 4.9-15.68-3.69.69-7.47 2.03-11.25 1.32-2.67-.85-5.16-2.18-7.82-3.04z"/><path d="M90.93 57.89c1.63 1.46 3.15 3.08 3.85 5.21-2.28-.83-2.91-3.24-3.85-5.21zM87.67 67.91c4.05-.53 8.2-2.04 12.27-.75 1.75.65 3.61.82 5.45.42-.69 1.18-1.91 1.77-3.11 2.3-4.7-2.92-10.01-1.29-14.98-.38.09-.4.27-1.19.37-1.59zM78.52 69.42c1.73-2.05 4.9-2.18 7.13-.95.25 1.15-.5 2.85-1.67 3.04-1.49-1.48-3.22-2.77-5.46-2.09zM116.74 69.51c5.65 3.4 7.39 11.72 3.9 17.25-2.44-1.65-5.03.12-7.6.14-1.24-.4-2.42-.95-3.61-1.44-.07-.28-.21-.82-.28-1.09 3.23 1.69 7 .61 10.42.28 2.23-5.26-.27-10.57-2.83-15.14zM114.51 88.5c1.66-.33 2.68 1.4 3.59 2.48-1.13-.42-2.25-.87-3.35-1.33-.91.72-1.81 1.45-2.72 2.17.92 1.17 1.72 2.44 1.79 3.98 2.7.17 6.69-.5 7.51 2.99-2.56-.89-5.24-1.31-7.94-1.46-1.52 1.06-3.28 1.64-5.11 1.87-.36.39-1.09 1.17-1.45 1.56-2.09.25-3.57 1.66-4.88 3.16-2.39-.66-5.5-1.3-5.51-4.44 1.68 1.09 3.34 2.27 5.29 2.83.65-.84 1.31-1.68 1.98-2.5 2.87-.94 5.26-3.08 8.39-3.16.61-2.35-.35-4.51-2.17-6 2.03.55 3.13-1.14 4.58-2.15zM73.74 94.97c1.55.11 3.28-.28 4.65.67 3.68 2.34 3.49 7.9 7.69 9.67-.47.21-1.4.62-1.87.83-2.43-1.72-3.37-4.69-5-7.06-1.17-2.09-3.57-2.87-5.47-4.11zM102.24 113.84c.67.53.67.53 0 0zM112.53 115.13c3.23-1.79.66 4.99-.69 1.69.17-.42.52-1.27.69-1.69zM28.33 141.19c4.4-2.18 10.34-3.49 14.51-.06 5.47 4.52 6.71 11.86 8.55 18.31.01 8.5.08 17.38-3.88 25.16-1.45 2.98-3.56 5.89-6.62 7.35-3.77.18-7.88 1.75-11.4-.31-4.79-2.89-6.92-8.44-8.39-13.57-.47-2.11-1.52-4.4-.25-6.45-4.59 1.12-9.38 1.26-13.85 2.87-.47-.62-1.41-1.85-1.88-2.47l-.14-2.4c1.05.81 2.09 1.62 3.12 2.45-.11-.82-.35-2.46-.47-3.28l-.69 2.11c-.56-.81-1.11-1.64-1.65-2.46 4.3-2.07 9.38-1.92 14.02-3.01.68-8.56 2.29-18.25 9.02-24.24m-.11 2.07c-5.06 5.19-6.43 12.7-7.28 19.63-.34.54-1.02 1.63-1.37 2.17 4.16-.55 8.17-1.88 12.31-2.5.96 2.03 1.29 4.24 1.28 6.47-3.92 1.19-7.99 1.74-12 2.56 1.43 6.7 3.03 15.11 9.82 18.42 4.55.71 10.61.96 13.37-3.56 5.25-7.79 6.35-17.84 5.08-26.97-1.03-7.62-4.21-16.08-11.94-19.1-3.1.9-6.89.3-9.27 2.88M9.6 168.62l.32 3.41c7.22-1.71 14.55-2.83 21.77-4.5 0-.9-.07-1.8-.2-2.69-7.32 1.13-14.51 3.02-21.89 3.78z"/><path d="M35.1 142.23c1.67.34 3.42.85 4.16 2.57 6.46 10.44 7.11 23.77 3.67 35.37-1.15 3.39-2.26 7.59-6.03 8.91 6.91-10.57 8.09-24.2 4.41-36.14-1.1-4.09-4.09-7.17-6.21-10.71zM87.52 179.76c2.52.17 4.92-.51 7.11-1.73.68 1.65 1.35 3.29 1.96 4.97-1.4-.15-1.78-1.5-2.34-2.57-1.69.55-3.4 1.01-5.13 1.42-.67 1.14-1.34 2.28-2.04 3.4.02-1.84.2-3.67.44-5.49zM93.04 190.84c-2.03.64-4.08.36-3.59-2.17.94.79 4.89.01 3.59 2.17zM122.8 230.31c.44-1.48.31-3.31 1.68-4.33-.03 2.82.52 5.57 1.22 8.28-1.34-1.01-2.09-2.53-2.9-3.95zM82.71 242.71c.98-2.98 1.9-7.74 5.64-8.12-1.86 2.74-2.63 6.32-5.64 8.12z"/></g></svg>