<svg width="221pt" height="275pt" viewBox="0 0 221 275" xmlns="http://www.w3.org/2000/svg"><g fill="#FFF"><path d="M0 0h221v124.78c-4.27 1.24-8.66 1.99-12.97 3.05-1.28-6.34-2.83-13.33-7.99-17.71-3.98-3.47-9.88-2.56-14.25-.43-7.45 5.48-8.9 15.5-9.45 24.11-12.72 2.75-25.5 5.24-38.28 7.75.45-4.06-1.37-7.73-2.26-11.57.04-5.65.96-11.47-.75-16.98-1.32-3.91-1.95-8.15-4.45-11.54.49-5.87 1.18-12-1.11-17.6-.82-5.36 1-11.77-3.2-16.14-2.57-3.6-7.13-4.25-10.71-6.39-2.34-1.51-5.21-1.46-7.86-1.88 1.01-6.38 4.08-12.87 1.99-19.35-.93-4.54-1.25-10.39-6.45-12.18-5.83-1.41-13.4-1.34-17.37 3.91-3.3 4.37-1.37 10.01-.88 14.94.93 1.05 1.85 2.11 2.78 3.17-.13 3.14-.32 6.28-.67 9.4-6.07.95-9.43 6.5-14.2 9.7-4.69 3.82-7.48 10.93-4.7 16.65 1.84 3.41 1.93 7.33 3.05 10.97 1.08 3.34 3.91 5.58 5.89 8.36 2.75 3.68 4.6 7.95 7.51 11.52.41 1.6.82 3.19 1.24 4.79-1.44 2.36-3.41 4.52-4.19 7.22-.26 3.89 1.81 7.6 1.21 11.54-.15 3.94-2.54 7.73-1.71 11.66.26-.01.78-.02 1.05-.03 1.11-3.83 2.54-7.68 2.45-11.72.39-5.36-2.69-10.72-.01-15.87.71.06 2.12.19 2.83.26.76 1.14 1.55 2.27 2.34 3.4a20.51 20.51 0 00-2.67 5.68c.64.44 1.28.88 1.92 1.33.29-2.32.65-4.63.96-6.95 1.33 2.07 2.85 4.01 4.53 5.81-2.77 1.54-5.56 3.06-8.21 4.81 3.45.87 6.14-2.05 8.97-3.48 1.21 2.82 3.33 5.65 2.86 8.87-1.3 1.89-2.9 3.67-3.12 6.08-14.72 2.93-29.42 5.99-44.14 8.99-1.21-6.19-2.86-12.83-7.6-17.32-4.29-4.02-11.15-2.82-15.67.09-6.14 6.18-7.72 15.39-8.4 23.74-4.7.87-9.53 1.3-14.06 2.88.56.88 1.12 1.75 1.68 2.62l.73-2.19c.15 1.08.29 2.17.42 3.26-.8-.6-2.42-1.79-3.23-2.38l1.16 4.32c4.63.57 9.51-2.61 14.34-1.5.35 6.48 2.58 13.28 7.34 17.86 3.52 3.51 8.8 2.15 13.15 1.6 4.29-2.01 6.59-6.58 8.09-10.84 2.47-6.58 2.59-13.72 2.16-20.65 15.35-2.25 30.38-6.17 45.66-8.8.17-3.7 2.79-6.42 4.4-9.54-1.57-8.09-8.73-12.9-12.66-19.68-1.57-3.43-2-7.24-3.02-10.85-4.1-2.93-6.24-7.66-10.06-10.88-4.12-4.09-3.17-10.43-4.76-15.59-1.23-4.2-1.64-9.33 1.61-12.76 2.63-2.38 5.23-4.77 7.66-7.36 2.17-2.38 5.58-2.9 8.02-4.89 1.15-3.28.76-6.84.68-10.23 2.07 2.19 3.42 4.91 5.27 7.25 3.04 2.54 7.12 3.34 10.99 3.38.16.78.47 2.35.63 3.13.44-.95.88-1.91 1.31-2.86 1.78.35 3.57.62 5.39.61 1.37.87 2.76 1.71 4.06 2.69-.69 1.11-1.48 2.15-2.24 3.2.47-.42 1.41-1.25 1.88-1.67.86.11 2.57.32 3.43.43.09-.58.29-1.73.39-2.3 2.35 1.96 4.9 3.87 6.47 6.56 1.85 5.34.28 11.22 2.05 16.59 1.4 4.92.81 10.09 1.1 15.13 1.42 4.43 2.9 8.84 4.41 13.24 1.4 6.18-.05 12.66 1.41 18.85 1.56 5.5.08 11.2.17 16.8-2.48 2.5-7.03 1.47-10.33 2.55-1.03-.69-2.08-1.36-3.13-2.02-.24-1.96-.52-3.92-.86-5.87 1.62-1.87 4.08-3.16 5.02-5.52-.17-.51-.52-1.55-.7-2.07l-.2-.71c-.67-2.34-1.32-4.73-1.05-7.19 1.33 2.39.41 6.12 2.88 7.73.19-2.99-.36-5.96-1.12-8.83-.78-2.88-2.93-5.13-3.85-7.95-1.68-4.22-.22-8.77-.46-13.13-.18-3.84 2.59-7.1 2.44-10.92-.5-3.61-1.46-7.14-2.11-10.72-2.23 2.98.21 6.55.34 9.81.84 4.31-1.94 8.02-4.08 11.45-.67-.12-2.02-.37-2.69-.5-.47-2.13-1.11-4.21-1.81-6.27-.46 2.62.17 5.95-2.08 7.88-2.73.24-5.61-.09-8.01 1.56-1.17-.41-2.35-.83-3.52-1.23 1.13.98 1.99 3.41 3.88 2.78 3.39-1.4 7.42-.93 10.34-3.39.98.38 1.95.77 2.92 1.16.62-.58 1.84-1.74 2.45-2.32-.1 2.25-.17 4.52-.43 6.76-.07.84-.12 1.69-.17 2.54.31.65.93 1.97 1.24 2.62-.02 1.49-1.96 1.68-2.94 2.36-4 1.67-8.61 1.44-12.4 3.71-.26-1.16-.53-2.32-.81-3.47 1.22.35 2.45.7 3.68 1.02-1.83-1.98-4.16-3.61-5.27-6.15-1.37-3.09-2.7-6.21-4.68-8.97 1.77.22 2.48-1.07 3.07-2.38a89.91 89.91 0 00-3.48 1.55c-1.07-1.07-2.15-2.12-3.24-3.16-.78-3.51-1.13-7.35-3.81-10.04 4.82-.83 9.11-3.12 13.4-5.34.64.6 1.27 1.2 1.91 1.8-2.04 2.65-4.16 5.23-6.22 7.86 1.55-.89 3.08-1.82 4.6-2.77 1.06-2.12 2.58-3.95 4.57-5.25-1.12-.51-2.23-1.02-3.34-1.54 3.53-2.31 2.73-6.65 2.54-10.2-.12-1.55-1.45-2.45-2.54-3.33.88 3.71 2.95 7.43.81 11.12-4.22 1.01-7.98 3.12-11.22 5.98-1.71-.42-3.42-.89-5.1-1.41l.68 2.65c-3.01-2.54-4.99-5.94-6.46-9.53.39-3 .99-5.97 1.29-8.98-1.81 2.21-2.04 5.24-3.82 7.44 1.89 3.87 2.82 8.34 5.95 11.48 2.41 2.34 3.98 5.31 4.9 8.52-1.57-.5-3.14-.97-4.72-1.38 3.04 3.14 6.98 5.46 9.23 9.32 2.12 3.77 4.62 7.41 5.84 11.61 1.82 6.17 5.68 11.71 5.89 18.32-.16 2.85 4.02 3.19 3.66 6.08-.34 2.77 1.41 6.96-1.83 8.41-3.28 1.6-7.03.6-10.52.71-.66-.69-1.31-1.38-1.96-2.07-.15.41-.45 1.21-.61 1.62-14.94 3-30 5.54-44.86 8.88-.29.5-.86 1.5-1.15 2.01 8.93-1.65 17.8-3.65 26.74-5.28 1.04 1.3 1.85 4.65 4.11 3.2.24-1.52-1.52-2.23-2.31-3.2 4.03-1.22 8.22-1.79 12.3-2.78 2.48-.44 5.09-1.34 7.54-.29 5.14-.18 11.85 1.35 15.08-3.86-.31-1.7-.55-3.4-.79-5.11 1.58-.76 4.67.03 5.11-2.1-2.04-.78-4.43.49-6.19-1.21 1.99-.36 4-.68 6.01-.97l.43-1.77c1.08 2.91.41 6.07.04 9.05 1.88 1.7 3.57 4.98 6.59 3.87 3.16-.88 6.61-.39 9.63-1.69 2.39-1.03 1.59-4.07 1.64-6.04.68.19 2.04.58 2.72.78 12.31-2.87 24.73-5.25 37.11-7.79.19 7.14 2.77 14.68 8.42 19.32 2.98 2.46 7.1 1.48 10.63 1.32 2.79-.13 4.91-2.36 6.47-4.47 4.46-6.71 5.91-14.96 5.69-22.9 4.3-.33 8.48-1.43 12.74-1.99V275H0V0m91.03 57.97c.62 1.41 1.26 2.8 1.89 4.2.46.16 1.4.5 1.87.66-.85-1.9-2.25-3.44-3.76-4.86m-3.28 9.96c-.14.38-.41 1.13-.55 1.51 4.2-.33 8.49-2.41 12.62-.53 1.97 1.03 4.54.9 5.58-1.34-1.84.54-3.7.24-5.46-.4-4.04-1.28-8.17.23-12.19.76m-9.16 1.5c1.81-.45 3.58.02 4.74 1.53 1.3 1.81 3.39-2.09 1.74-2.84-2.2-.72-4.93-.63-6.48 1.31m38.2.11c.83 2.23 2.23 4.19 3.15 6.38.65 3.05.74 6.33-.62 9.2-3.52-.11-7.09.55-10.55-.39 1.4.79 2.75 1.72 4.29 2.23 2.13-.28 4.22-1.11 6.39-.74.54-.09 1.61-.28 2.15-.37 1.79-5.77.66-12.98-4.81-16.31m-2.33 18.99c-1.43 1.05-2.46 2.82-4.53 2.08 1.85 1.5 2.94 3.72 2.11 6.1-3.13-.05-5.4 2.28-8.28 3.09-.71.86-1.41 1.72-2.1 2.6-1.91-.61-3.5-1.82-5.06-3.02-.35 3.26 3.02 3.85 5.37 4.51 1.27-1.55 2.76-2.91 4.85-3.13l1.41-1.57c1.85-.23 3.62-.8 5.15-1.89 2.68.15 5.37.48 7.88 1.52-.7-3.55-4.87-2.83-7.53-3.01.08-1.56-.76-2.82-1.73-3.96l2.73-2.28c1.1.49 2.21.95 3.33 1.39-.91-1.09-1.93-2.78-3.6-2.43m-40.67 6.5c3.53 1.37 5.98 4.15 7.52 7.55.88 1.44 2.88 5.26 4.69 2.67-3.76-1.53-3.91-6.1-6.55-8.74-1.39-1.67-3.7-1.57-5.66-1.48m28.45 18.82c.7.5.7.5 0 0m10.27 1.27l-.68 1.72c1.4 3.27 3.86-3.61.68-1.72m10.01 43.62c-2.11.75-4.15 1.74-6.36 2.17-2.9.18-5.61-1.08-8.44-1.47-2.38-1.92-2.3 1.72-3.12 3.16-2.22 2.28-5.54 2.85-8.54 3.34-3.95.63-7.43-1.66-10.99-2.94l-.04-3.3c-.92.42-2.76 1.27-3.68 1.69 2.26 0 1.78 2.14 1.54 3.45-.97 4.99 1.33 10.26-.84 15.07-1.77 4.68-1.88 9.72-2.31 14.63-2.02 6.91-5.75 14-3.8 21.37 1.86 7.92 4.8 16.2 2.13 24.32 2.02 3.7.78 8.08 2.97 11.69 1.58 2.43.78 5.58 2.21 8.02 3.94 4.71 11.95 6.12 16.89 2.29 1.28-.36 2.93-.09 3.86-1.21 1.16-1.21.41-2.97.45-4.43-1.38-1.66-2.4-3.6-3.92-5.13-3.26-3.08-4.33-7.68-7.26-11.02-2.81-6.43-2.36-13.62-1.22-20.37.55-3.08 2.36-5.78 2.75-8.89.47-4.07-.17-8.15-.07-12.22.47-5.11 2.88-9.72 4.12-14.63 1.76-3.15 4.01-6.13 4.54-9.81 1.22-3.6-.15-7.93 2.58-10.96 2.79 2.13 4.29 5.38 6.18 8.25 2.14 3.13.63 7.32 2.57 10.54 1.69 3.1 2.89 6.43 4.41 9.61 2.85-2.76-.2-6.12-1.27-8.91-1.83-3.25-.52-7.32-2.54-10.48-1.34-2.24-2.58-4.54-4.16-6.62-.63-1.04-2.04-1.8-1.79-3.2-.63-.38-1.89-1.13-2.52-1.51l1.44-.65c6.46 4.62 14.55.52 19.88-3.93.31 4.32.49 8.65.8 12.97-.51 0-1.54-.01-2.05-.02-.73 2.28-1.01 5.05-2.99 6.63-2.64.1-4.21-2.66-4.75-4.9-.2.03-.6.1-.8.14.93 2.19 1.24 5.2 3.68 6.28 3.36.36 4.72-3.28 6.13-5.61 3.69 4.44.34 9.78.64 14.75-.09 3.03-.9 6.09-.01 9.1 2.39 8.97-.71 18.53 2.8 27.3 2.71 2.68 5.63 5.18 7.85 8.31 2.44 3.38 6.4 5.36 10.53 5.56.73.97 1.45 1.96 2.16 2.96-1.72.89-3.34 1.95-5.09 2.77-2.65.18-5.29-.36-7.93-.5-2.46-.78-4.58-2.68-7.27-2.64-3.36-.09-6.7.31-10.06.27-.65-.96-2.11-1.66-1.7-3.03.25-4 .28-8.18 1.94-11.89.01-4.1.26-8.22-.22-12.3-.34-3.56-3.42-6.13-3.72-9.68-.54-4.53-1.84-9.15-.47-13.66-.73-.22-1.69-.41-1.95.56-.77 3.6-.82 7.31-.87 10.98.65 4.32 3.95 7.66 4.99 11.86.94 3.94 1.3 8.14.17 12.09-1 4.72-2.93 9.65-1.45 14.48 2.54 2.56 6.35 2.56 9.65 1.83 3.65-.93 6.76 1.55 9.93 2.87 2.35.14 4.7.33 7.01.81 3.42-1.13 7.63-2.09 9.15-5.79-1.6-1.67-2.76-4.45-5.44-4.4-6.52-.42-9.05-7.36-13.81-10.71-2-1.31-2.35-3.86-2.84-6.01-.96-8.3.38-16.8-1.78-24.96.15-4.53-.44-9.17 1.04-13.55 1.09-3.35-1.76-6.24-1.43-9.55.19-4.64-.12-9.29-.85-13.88l1.99-.88c-3.53-1.19-5.97 1.83-8.63 3.52m.34 71.56c.79 1.41 1.47 2.95 2.83 3.93-.73-2.71-1.27-5.46-1.27-8.27-1.26 1.09-1.15 2.86-1.56 4.34z"/><path d="M89.46 31.39c3.6-2.94 8.4-2.96 12.8-2.79 1.59 1.42 3.38 2.72 4.47 4.6 2.45 7.84 3.35 16.51-.07 24.23-.93.45-1.86.91-2.78 1.38-2.64-.8-5.28-1.62-7.81-2.73-2.38-1.08-3.25-3.74-4.18-5.97-1.67-.99-3.38-1.94-4.82-3.25-.36-1.71.6-3.3 1.03-4.91-.62.15-1.86.44-2.48.59-.46-4 .18-8.78 3.84-11.15zM185.58 111.62c2.34-2.1 5.76-1.64 8.61-2.53 3.08 1.62 6.43 3.28 8.13 6.5 4.77 8.56 5.6 18.96 3.61 28.44-.87 4.48-2.63 8.86-5.59 12.37-1.54 1.62-3.82 3.18-6.17 2.41 1.76-2.71 4.25-5.08 5.19-8.3 3.63-10.61 3.57-22.7-.99-33.02-1.51-2.55-2.81-6.31-6.32-6.34 3.29 4.56 6.62 9.36 7.5 15.07 1.19 7.12 1.13 14.58-.91 21.54-1.23 3.71-3.52 6.92-5.32 10.36l-.15-2.03c-.09.67-.28 2.02-.37 2.69-4.27 1.8-8.37-1.71-10.34-5.25-3-3.89-3.09-9-5.24-13.27 4.01-.54 7.95-1.49 11.92-2.27 1.27-2.16.81-4.44-.33-6.55-4.07.76-8.14 1.51-12.19 2.32 1.42-2.68 1.45-5.75 2.08-8.65.96-5.01 2.99-10.04 6.88-13.49zM105.55 126.72c4.75-1.33 9.73-2.05 14.36-3.9 1.24 1.9 2.53 3.78 3.77 5.69-.59 1.82-1.14 3.67-1.68 5.51 1 1.84 1.8 3.79 2.41 5.8-.72.35-2.15 1.04-2.86 1.39l.33.75c-2.97.2-6.04.39-8.75 1.74-2.01-2.36-3.15-5.22-3.44-8.31 2.49-.18 5.07-1.2 7.48-.12-2.13 1.28-5.87 1.01-6.49 4.02 2.98-.92 5.87-2.11 8.75-3.33-.05-1.02-.08-2.03-.11-3.04-3.25-.15-6.46.45-9.59 1.25-.56-1.35-1.14-2.69-1.75-4.02 3.33-.29 6.53-1.31 9.68-2.39.68-.91 1.39-1.8 2.12-2.67-3.85 1.92-8.16 2.44-12.26 3.56-.49-.48-1.48-1.44-1.97-1.93zM208.03 128.79c4.39-.21 8.65-1.37 12.97-2.09v3.27c-4.26 1.02-8.62 1.51-12.85 2.68-.03-1.28-.07-2.57-.12-3.86z"/><path d="M136.99 143.42c16.46-3.06 32.86-6.4 49.22-9.91 1.9-1.05 3.94 1.99 1.65 3.03-16.31 3.55-32.87 5.96-49.04 10.11-.65-1.05-1.26-2.14-1.83-3.23zM28.16 143.27c2.4-2.63 6.23-1.99 9.36-2.92 9.22 3.76 11.84 14.59 12.39 23.56.14 8.2-1.08 17.15-6.46 23.67-2.71 3.42-7.5 2.72-11.35 2.77-4.41-1.02-6.88-5.35-8.41-9.25-1.4-3.11-1.93-6.49-2.09-9.87 3.9-.27 7.73-1.17 11.49-2.19.09-2.23-.26-4.43-1.21-6.46-4.16.58-8.15 2.03-12.33 2.45.34-.54 1.04-1.62 1.39-2.17.79-6.93 2.22-14.38 7.22-19.59m6.93-.93c2.28 3.42 5.13 6.58 6.26 10.65 3.63 11.89 2.55 25.52-4.45 36.01 2.76-.78 4.08-3.48 5.01-5.95 4.08-10.76 4.1-23.09-.26-33.77-1.5-2.81-2.73-6.94-6.56-6.94z"/><path d="M9.55 168.6c6.91-.69 13.65-2.42 20.48-3.55 1.77-.79 1.65 1.5 1.97 2.49-7.37 1.55-14.78 2.86-22.12 4.5-.09-.86-.25-2.58-.33-3.44zM84.02 164.77c2.68.81 5.17 2.18 7.84 3.03 3.79.67 7.56-.63 11.24-1.35-.75 5.45-1.55 11.17-4.9 15.73-2.36 5.07-3.88 10.52-5.62 15.84-2.41 4.29-4.72 8.86-4.9 13.89-.03 1.62-.47 3.64 1.21 4.65 1.12-5.17.42-10.94 3.98-15.32.02 4.61.84 9.52-1.41 13.78-2.9 6.24-2.9 13.48-1.61 20.13.81 5.61 4.85 9.86 7.19 14.84 2.42 2.87 4.99 5.66 6.73 9.03-1.17.57-2.4.97-3.68 1.2-.99-1.52-1.7-4.48-4.14-3.66-2.78.69-5.76.13-8.48.72-.18.38-.53 1.15-.71 1.53.98-.18 1.95-.35 2.93-.52 2.97 2.12 7.32-2.19 9.06 1.97-4.02 3.69-10.68 2.33-13.66-2-.46-6.03-3.87-11.29-5.03-17.17-.08-2.74 1.05-5.36.94-8.1-.3-5.99-2.29-11.69-3.63-17.48-1.39-6.52.99-13.05 3.64-18.91 1.9 2.39 1.18 7.1 4.5 8.09a85.946 85.946 0 01-3.83-15.63c.16-4.5 2.28-8.55 3.29-12.86.1-3.84-.7-7.62-.95-11.43m3.51 15.01c-.2 1.8-.38 3.61-.46 5.43.7-1.13 1.38-2.28 2.06-3.42 1.72-.34 3.42-.8 5.06-1.42.67 1.09 1.39 2.14 2.17 3.15-.35-1.9-1-3.72-1.7-5.51-2.17 1.29-4.59 1.96-7.13 1.77m1.73 9.29c.13.53.4 1.58.54 2.11.94-.13 2.82-.38 3.76-.51-.65-1.87-2.76-1.38-4.3-1.6m-6.51 53.64c1.02-.93 2.02-1.88 2.99-2.87.43-1.94 1.57-3.59 2.66-5.21-3.73.25-4.71 5.12-5.65 8.08z"/></g><g fill="#333"><path d="M85.89 31.83c3.97-5.25 11.54-5.32 17.37-3.91 5.2 1.79 5.52 7.64 6.45 12.18 2.09 6.48-.98 12.97-1.99 19.35 2.65.42 5.52.37 7.86 1.88 3.58 2.14 8.14 2.79 10.71 6.39 4.2 4.37 2.38 10.78 3.2 16.14 2.29 5.6 1.6 11.73 1.11 17.6 2.5 3.39 3.13 7.63 4.45 11.54 1.71 5.51.79 11.33.75 16.98.89 3.84 2.71 7.51 2.26 11.57 12.78-2.51 25.56-5 38.28-7.75.55-8.61 2-18.63 9.45-24.11 4.37-2.13 10.27-3.04 14.25.43 5.16 4.38 6.71 11.37 7.99 17.71 4.31-1.06 8.7-1.81 12.97-3.05v1.92c-4.32.72-8.58 1.88-12.97 2.09.05 1.29.09 2.58.12 3.86 4.23-1.17 8.59-1.66 12.85-2.68v1.67c-4.26.56-8.44 1.66-12.74 1.99.22 7.94-1.23 16.19-5.69 22.9-1.56 2.11-3.68 4.34-6.47 4.47-3.53.16-7.65 1.14-10.63-1.32-5.65-4.64-8.23-12.18-8.42-19.32-12.38 2.54-24.8 4.92-37.11 7.79-.68-.2-2.04-.59-2.72-.78-.05 1.97.75 5.01-1.64 6.04-3.02 1.3-6.47.81-9.63 1.69-3.02 1.11-4.71-2.17-6.59-3.87.37-2.98 1.04-6.14-.04-9.05l-.43 1.77c-2.01.29-4.02.61-6.01.97 1.76 1.7 4.15.43 6.19 1.21-.44 2.13-3.53 1.34-5.11 2.1.24 1.71.48 3.41.79 5.11-3.23 5.21-9.94 3.68-15.08 3.86-2.45-1.05-5.06-.15-7.54.29-4.08.99-8.27 1.56-12.3 2.78.79.97 2.55 1.68 2.31 3.2-2.26 1.45-3.07-1.9-4.11-3.2-8.94 1.63-17.81 3.63-26.74 5.28.29-.51.86-1.51 1.15-2.01 14.86-3.34 29.92-5.88 44.86-8.88.16-.41.46-1.21.61-1.62.65.69 1.3 1.38 1.96 2.07 3.49-.11 7.24.89 10.52-.71 3.24-1.45 1.49-5.64 1.83-8.41.36-2.89-3.82-3.23-3.66-6.08-.21-6.61-4.07-12.15-5.89-18.32-1.22-4.2-3.72-7.84-5.84-11.61-2.25-3.86-6.19-6.18-9.23-9.32 1.58.41 3.15.88 4.72 1.38-.92-3.21-2.49-6.18-4.9-8.52-3.13-3.14-4.06-7.61-5.95-11.48 1.78-2.2 2.01-5.23 3.82-7.44-.3 3.01-.9 5.98-1.29 8.98 1.47 3.59 3.45 6.99 6.46 9.53l-.68-2.65c1.68.52 3.39.99 5.1 1.41 3.24-2.86 7-4.97 11.22-5.98 2.14-3.69.07-7.41-.81-11.12 1.09.88 2.42 1.78 2.54 3.33.19 3.55.99 7.89-2.54 10.2 1.11.52 2.22 1.03 3.34 1.54-1.99 1.3-3.51 3.13-4.57 5.25-1.52.95-3.05 1.88-4.6 2.77 2.06-2.63 4.18-5.21 6.22-7.86-.64-.6-1.27-1.2-1.91-1.8-4.29 2.22-8.58 4.51-13.4 5.34 2.68 2.69 3.03 6.53 3.81 10.04 1.09 1.04 2.17 2.09 3.24 3.16a89.91 89.91 0 013.48-1.55c-.59 1.31-1.3 2.6-3.07 2.38 1.98 2.76 3.31 5.88 4.68 8.97 1.11 2.54 3.44 4.17 5.27 6.15-1.23-.32-2.46-.67-3.68-1.02.28 1.15.55 2.31.81 3.47 3.79-2.27 8.4-2.04 12.4-3.71.98-.68 2.92-.87 2.94-2.36-.31-.65-.93-1.97-1.24-2.62.05-.85.1-1.7.17-2.54.26-2.24.33-4.51.43-6.76-.61.58-1.83 1.74-2.45 2.32-.97-.39-1.94-.78-2.92-1.16-2.92 2.46-6.95 1.99-10.34 3.39-1.89.63-2.75-1.8-3.88-2.78 1.17.4 2.35.82 3.52 1.23 2.4-1.65 5.28-1.32 8.01-1.56 2.25-1.93 1.62-5.26 2.08-7.88.7 2.06 1.34 4.14 1.81 6.27.67.13 2.02.38 2.69.5 2.14-3.43 4.92-7.14 4.08-11.45-.13-3.26-2.57-6.83-.34-9.81.65 3.58 1.61 7.11 2.11 10.72.15 3.82-2.62 7.08-2.44 10.92.24 4.36-1.22 8.91.46 13.13.92 2.82 3.07 5.07 3.85 7.95.76 2.87 1.31 5.84 1.12 8.83-2.47-1.61-1.55-5.34-2.88-7.73-.27 2.46.38 4.85 1.05 7.19l.2.71c.18.52.53 1.56.7 2.07-.94 2.36-3.4 3.65-5.02 5.52.34 1.95.62 3.91.86 5.87 1.05.66 2.1 1.33 3.13 2.02 3.3-1.08 7.85-.05 10.33-2.55-.09-5.6 1.39-11.3-.17-16.8-1.46-6.19-.01-12.67-1.41-18.85-1.51-4.4-2.99-8.81-4.41-13.24-.29-5.04.3-10.21-1.1-15.13-1.77-5.37-.2-11.25-2.05-16.59-1.57-2.69-4.12-4.6-6.47-6.56-.1.57-.3 1.72-.39 2.3-.86-.11-2.57-.32-3.43-.43-.47.42-1.41 1.25-1.88 1.67.76-1.05 1.55-2.09 2.24-3.2-1.3-.98-2.69-1.82-4.06-2.69-1.82.01-3.61-.26-5.39-.61-.43.95-.87 1.91-1.31 2.86-.16-.78-.47-2.35-.63-3.13-3.87-.04-7.95-.84-10.99-3.38-1.85-2.34-3.2-5.06-5.27-7.25.08 3.39.47 6.95-.68 10.23-2.44 1.99-5.85 2.51-8.02 4.89-2.43 2.59-5.03 4.98-7.66 7.36-3.25 3.43-2.84 8.56-1.61 12.76 1.59 5.16.64 11.5 4.76 15.59 3.82 3.22 5.96 7.95 10.06 10.88 1.02 3.61 1.45 7.42 3.02 10.85 3.93 6.78 11.09 11.59 12.66 19.68-1.61 3.12-4.23 5.84-4.4 9.54-15.28 2.63-30.31 6.55-45.66 8.8.43 6.93.31 14.07-2.16 20.65-1.5 4.26-3.8 8.83-8.09 10.84-4.35.55-9.63 1.91-13.15-1.6-4.76-4.58-6.99-11.38-7.34-17.86-4.83-1.11-9.71 2.07-14.34 1.5l-1.16-4.32c.81.59 2.43 1.78 3.23 2.38-.13-1.09-.27-2.18-.42-3.26l-.73 2.19c-.56-.87-1.12-1.74-1.68-2.62 4.53-1.58 9.36-2.01 14.06-2.88.68-8.35 2.26-17.56 8.4-23.74 4.52-2.91 11.38-4.11 15.67-.09 4.74 4.49 6.39 11.13 7.6 17.32 14.72-3 29.42-6.06 44.14-8.99.22-2.41 1.82-4.19 3.12-6.08.47-3.22-1.65-6.05-2.86-8.87-2.83 1.43-5.52 4.35-8.97 3.48 2.65-1.75 5.44-3.27 8.21-4.81-1.68-1.8-3.2-3.74-4.53-5.81-.31 2.32-.67 4.63-.96 6.95-.64-.45-1.28-.89-1.92-1.33.6-2.02 1.49-3.94 2.67-5.68-.79-1.13-1.58-2.26-2.34-3.4-.71-.07-2.12-.2-2.83-.26-2.68 5.15.4 10.51.01 15.87.09 4.04-1.34 7.89-2.45 11.72-.27.01-.79.02-1.05.03-.83-3.93 1.56-7.72 1.71-11.66.6-3.94-1.47-7.65-1.21-11.54.78-2.7 2.75-4.86 4.19-7.22-.42-1.6-.83-3.19-1.24-4.79-2.91-3.57-4.76-7.84-7.51-11.52-1.98-2.78-4.81-5.02-5.89-8.36-1.12-3.64-1.21-7.56-3.05-10.97-2.78-5.72.01-12.83 4.7-16.65 4.77-3.2 8.13-8.75 14.2-9.7.35-3.12.54-6.26.67-9.4-.93-1.06-1.85-2.12-2.78-3.17-.49-4.93-2.42-10.57.88-14.94m3.57-.44c-3.66 2.37-4.3 7.15-3.84 11.15.62-.15 1.86-.44 2.48-.59-.43 1.61-1.39 3.2-1.03 4.91 1.44 1.31 3.15 2.26 4.82 3.25.93 2.23 1.8 4.89 4.18 5.97 2.53 1.11 5.17 1.93 7.81 2.73.92-.47 1.85-.93 2.78-1.38 3.42-7.72 2.52-16.39.07-24.23-1.09-1.88-2.88-3.18-4.47-4.6-4.4-.17-9.2-.15-12.8 2.79m96.12 80.23c-3.89 3.45-5.92 8.48-6.88 13.49-.63 2.9-.66 5.97-2.08 8.65 4.05-.81 8.12-1.56 12.19-2.32 1.14 2.11 1.6 4.39.33 6.55-3.97.78-7.91 1.73-11.92 2.27 2.15 4.27 2.24 9.38 5.24 13.27 1.97 3.54 6.07 7.05 10.34 5.25.09-.67.28-2.02.37-2.69l.15 2.03c1.8-3.44 4.09-6.65 5.32-10.36 2.04-6.96 2.1-14.42.91-21.54-.88-5.71-4.21-10.51-7.5-15.07 3.51.03 4.81 3.79 6.32 6.34 4.56 10.32 4.62 22.41.99 33.02-.94 3.22-3.43 5.59-5.19 8.3 2.35.77 4.63-.79 6.17-2.41 2.96-3.51 4.72-7.89 5.59-12.37 1.99-9.48 1.16-19.88-3.61-28.44-1.7-3.22-5.05-4.88-8.13-6.5-2.85.89-6.27.43-8.61 2.53m-80.03 15.1c.49.49 1.48 1.45 1.97 1.93 4.1-1.12 8.41-1.64 12.26-3.56-.73.87-1.44 1.76-2.12 2.67-3.15 1.08-6.35 2.1-9.68 2.39.61 1.33 1.19 2.67 1.75 4.02 3.13-.8 6.34-1.4 9.59-1.25.03 1.01.06 2.02.11 3.04-2.88 1.22-5.77 2.41-8.75 3.33.62-3.01 4.36-2.74 6.49-4.02-2.41-1.08-4.99-.06-7.48.12.29 3.09 1.43 5.95 3.44 8.31 2.71-1.35 5.78-1.54 8.75-1.74l-.33-.75c.71-.35 2.14-1.04 2.86-1.39-.61-2.01-1.41-3.96-2.41-5.8.54-1.84 1.09-3.69 1.68-5.51-1.24-1.91-2.53-3.79-3.77-5.69-4.63 1.85-9.61 2.57-14.36 3.9m31.44 16.7c.57 1.09 1.18 2.18 1.83 3.23 16.17-4.15 32.73-6.56 49.04-10.11 2.29-1.04.25-4.08-1.65-3.03-16.36 3.51-32.76 6.85-49.22 9.91m-108.83-.15c-5 5.21-6.43 12.66-7.22 19.59-.35.55-1.05 1.63-1.39 2.17 4.18-.42 8.17-1.87 12.33-2.45.95 2.03 1.3 4.23 1.21 6.46-3.76 1.02-7.59 1.92-11.49 2.19.16 3.38.69 6.76 2.09 9.87 1.53 3.9 4 8.23 8.41 9.25 3.85-.05 8.64.65 11.35-2.77 5.38-6.52 6.6-15.47 6.46-23.67-.55-8.97-3.17-19.8-12.39-23.56-3.13.93-6.96.29-9.36 2.92M9.55 168.6c.08.86.24 2.58.33 3.44 7.34-1.64 14.75-2.95 22.12-4.5-.32-.99-.2-3.28-1.97-2.49-6.83 1.13-13.57 2.86-20.48 3.55z"/><path d="M91.03 57.97c1.51 1.42 2.91 2.96 3.76 4.86-.47-.16-1.41-.5-1.87-.66-.63-1.4-1.27-2.79-1.89-4.2zM87.75 67.93c4.02-.53 8.15-2.04 12.19-.76 1.76.64 3.62.94 5.46.4-1.04 2.24-3.61 2.37-5.58 1.34-4.13-1.88-8.42.2-12.62.53.14-.38.41-1.13.55-1.51zM78.59 69.43c1.55-1.94 4.28-2.03 6.48-1.31 1.65.75-.44 4.65-1.74 2.84-1.16-1.51-2.93-1.98-4.74-1.53zM116.79 69.54c5.47 3.33 6.6 10.54 4.81 16.31-.54.09-1.61.28-2.15.37-2.17-.37-4.26.46-6.39.74-1.54-.51-2.89-1.44-4.29-2.23 3.46.94 7.03.28 10.55.39 1.36-2.87 1.27-6.15.62-9.2-.92-2.19-2.32-4.15-3.15-6.38zM114.46 88.53c1.67-.35 2.69 1.34 3.6 2.43-1.12-.44-2.23-.9-3.33-1.39L112 91.85c.97 1.14 1.81 2.4 1.73 3.96 2.66.18 6.83-.54 7.53 3.01-2.51-1.04-5.2-1.37-7.88-1.52-1.53 1.09-3.3 1.66-5.15 1.89l-1.41 1.57c-2.09.22-3.58 1.58-4.85 3.13-2.35-.66-5.72-1.25-5.37-4.51 1.56 1.2 3.15 2.41 5.06 3.02.69-.88 1.39-1.74 2.1-2.6 2.88-.81 5.15-3.14 8.28-3.09.83-2.38-.26-4.6-2.11-6.1 2.07.74 3.1-1.03 4.53-2.08zM73.79 95.03c1.96-.09 4.27-.19 5.66 1.48 2.64 2.64 2.79 7.21 6.55 8.74-1.81 2.59-3.81-1.23-4.69-2.67-1.54-3.4-3.99-6.18-7.52-7.55zM102.24 113.85c.7.5.7.5 0 0zM112.51 115.12c3.18-1.89.72 4.99-.68 1.72l.68-1.72zM35.09 142.34c3.83 0 5.06 4.13 6.56 6.94 4.36 10.68 4.34 23.01.26 33.77-.93 2.47-2.25 5.17-5.01 5.95 7-10.49 8.08-24.12 4.45-36.01-1.13-4.07-3.98-7.23-6.26-10.65zM122.52 158.74c2.66-1.69 5.1-4.71 8.63-3.52l-1.99.88c.73 4.59 1.04 9.24.85 13.88-.33 3.31 2.52 6.2 1.43 9.55-1.48 4.38-.89 9.02-1.04 13.55 2.16 8.16.82 16.66 1.78 24.96.49 2.15.84 4.7 2.84 6.01 4.76 3.35 7.29 10.29 13.81 10.71 2.68-.05 3.84 2.73 5.44 4.4-1.52 3.7-5.73 4.66-9.15 5.79-2.31-.48-4.66-.67-7.01-.81-3.17-1.32-6.28-3.8-9.93-2.87-3.3.73-7.11.73-9.65-1.83-1.48-4.83.45-9.76 1.45-14.48 1.13-3.95.77-8.15-.17-12.09-1.04-4.2-4.34-7.54-4.99-11.86.05-3.67.1-7.38.87-10.98.26-.97 1.22-.78 1.95-.56-1.37 4.51-.07 9.13.47 13.66.3 3.55 3.38 6.12 3.72 9.68.48 4.08.23 8.2.22 12.3-1.66 3.71-1.69 7.89-1.94 11.89-.41 1.37 1.05 2.07 1.7 3.03 3.36.04 6.7-.36 10.06-.27 2.69-.04 4.81 1.86 7.27 2.64 2.64.14 5.28.68 7.93.5 1.75-.82 3.37-1.88 5.09-2.77-.71-1-1.43-1.99-2.16-2.96-4.13-.2-8.09-2.18-10.53-5.56-2.22-3.13-5.14-5.63-7.85-8.31-3.51-8.77-.41-18.33-2.8-27.3-.89-3.01-.08-6.07.01-9.1-.3-4.97 3.05-10.31-.64-14.75-1.41 2.33-2.77 5.97-6.13 5.61-2.44-1.08-2.75-4.09-3.68-6.28.2-.04.6-.11.8-.14.54 2.24 2.11 5 4.75 4.9 1.98-1.58 2.26-4.35 2.99-6.63.51.01 1.54.02 2.05.02-.31-4.32-.49-8.65-.8-12.97-5.33 4.45-13.42 8.55-19.88 3.93l-1.44.65c.63.38 1.89 1.13 2.52 1.51-.25 1.4 1.16 2.16 1.79 3.2 1.58 2.08 2.82 4.38 4.16 6.62 2.02 3.16.71 7.23 2.54 10.48 1.07 2.79 4.12 6.15 1.27 8.91-1.52-3.18-2.72-6.51-4.41-9.61-1.94-3.22-.43-7.41-2.57-10.54-1.89-2.87-3.39-6.12-6.18-8.25-2.73 3.03-1.36 7.36-2.58 10.96-.53 3.68-2.78 6.66-4.54 9.81-1.24 4.91-3.65 9.52-4.12 14.63-.1 4.07.54 8.15.07 12.22-.39 3.11-2.2 5.81-2.75 8.89-1.14 6.75-1.59 13.94 1.22 20.37 2.93 3.34 4 7.94 7.26 11.02 1.52 1.53 2.54 3.47 3.92 5.13-.04 1.46.71 3.22-.45 4.43-.93 1.12-2.58.85-3.86 1.21-4.94 3.83-12.95 2.42-16.89-2.29-1.43-2.44-.63-5.59-2.21-8.02-2.19-3.61-.95-7.99-2.97-11.69 2.67-8.12-.27-16.4-2.13-24.32-1.95-7.37 1.78-14.46 3.8-21.37.43-4.91.54-9.95 2.31-14.63 2.17-4.81-.13-10.08.84-15.07.24-1.31.72-3.45-1.54-3.45.92-.42 2.76-1.27 3.68-1.69l.04 3.3c3.56 1.28 7.04 3.57 10.99 2.94 3-.49 6.32-1.06 8.54-3.34.82-1.44.74-5.08 3.12-3.16 2.83.39 5.54 1.65 8.44 1.47 2.21-.43 4.25-1.42 6.36-2.17m-38.5 6.03c.25 3.81 1.05 7.59.95 11.43-1.01 4.31-3.13 8.36-3.29 12.86.78 5.31 2.07 10.55 3.83 15.63-3.32-.99-2.6-5.7-4.5-8.09-2.65 5.86-5.03 12.39-3.64 18.91C78.71 221.3 80.7 227 81 232.99c.11 2.74-1.02 5.36-.94 8.1 1.16 5.88 4.57 11.14 5.03 17.17 2.98 4.33 9.64 5.69 13.66 2-1.74-4.16-6.09.15-9.06-1.97-.98.17-1.95.34-2.93.52.18-.38.53-1.15.71-1.53 2.72-.59 5.7-.03 8.48-.72 2.44-.82 3.15 2.14 4.14 3.66 1.28-.23 2.51-.63 3.68-1.2-1.74-3.37-4.31-6.16-6.73-9.03-2.34-4.98-6.38-9.23-7.19-14.84-1.29-6.65-1.29-13.89 1.61-20.13 2.25-4.26 1.43-9.17 1.41-13.78-3.56 4.38-2.86 10.15-3.98 15.32-1.68-1.01-1.24-3.03-1.21-4.65.18-5.03 2.49-9.6 4.9-13.89 1.74-5.32 3.26-10.77 5.62-15.84 3.35-4.56 4.15-10.28 4.9-15.73-3.68.72-7.45 2.02-11.24 1.35-2.67-.85-5.16-2.22-7.84-3.03z"/><path d="M87.53 179.78c2.54.19 4.96-.48 7.13-1.77.7 1.79 1.35 3.61 1.7 5.51-.78-1.01-1.5-2.06-2.17-3.15a31.67 31.67 0 01-5.06 1.42c-.68 1.14-1.36 2.29-2.06 3.42.08-1.82.26-3.63.46-5.43zM89.26 189.07c1.54.22 3.65-.27 4.3 1.6-.94.13-2.82.38-3.76.51-.14-.53-.41-1.58-.54-2.11zM122.86 230.3c.41-1.48.3-3.25 1.56-4.34 0 2.81.54 5.56 1.27 8.27-1.36-.98-2.04-2.52-2.83-3.93zM82.75 242.71c.94-2.96 1.92-7.83 5.65-8.08-1.09 1.62-2.23 3.27-2.66 5.21-.97.99-1.97 1.94-2.99 2.87z"/></g></svg>