<svg width="221pt" height="275pt" viewBox="0 0 221 275" xmlns="http://www.w3.org/2000/svg"><g fill="#FFF"><path d="M0 0h221v275H0V0m85.87 31.83c-3.31 4.39-1.36 10.03-.84 14.97.89 1.02 1.77 2.04 2.65 3.08-.05 2.08-.31 4.3.9 6.14.13-2.03.16-4.07.07-6.1 1.64 1.85 3.04 3.89 4.45 5.91.35-.57.69-1.14 1.03-1.72-.89-1.26-1.63-2.61-2.32-3.99-1.64-1.03-3.32-2.01-4.77-3.3-.18-1.71.63-3.3 1.02-4.91-.61.15-1.84.46-2.45.61-.3-3.79.03-8.31 3.37-10.75 3.63-3.25 8.7-3.36 13.29-3.17 1.59 1.44 3.4 2.77 4.47 4.68.93 2.9 1.3 5.94 2 8.9.76 5.13-.46 10.36-2.02 15.23l-2.84 1.4c-2.55-.75-5.04-1.69-7.56-2.54.28.48.83 1.44 1.11 1.92 2.85-.17 4.82 2.56 7.73 2.41l-.03 2.12c1.81-1.51 3.11-3.45 3.48-5.8 1.02-5.52 2.87-11.29 1.1-16.85-.77-2.65-.88-5.46-1.82-8.06-1.62-2.74-4.63-4.79-7.89-4.71-5.02-.54-10.94.15-14.13 4.53m47.83-.06c-4.97 2.47-8.13 7.26-11.11 11.75-2.17 3.22-5.66 5.04-8.54 7.5-2.41 1.99-1.71 5.46-2.99 8.06-1.28 2.71-1.58 6.1-3.95 8.16-.96-4.91-6.57-4.86-9.6-7.81-1.44-1.2-2.8-2.53-4.47-3.4-6.02.04-12.06.06-18.08-.18-6.49-1.45-13.58-3.95-20.01-.89-3.03 2.17-5.78 4.8-8.31 7.53-1.55 1.57-.2 3.66.91 5.02 3.06 3.34 4.9 7.75 8.81 10.29 4.2 3.77 9.82 4.94 14.94 6.91 2.74 3.29 2.23 8.09 3.92 11.92 3 5.15 8.49 8.6 10.12 14.55.74 2.59.31 5.34.48 8.01.25 3.65-3.3 6-4.1 9.33-.38 3.22 1.3 6.25 1.27 9.45.22 4.49-1.91 8.63-2.12 13.07-.18 2.88-.63 6.01-3.3 7.7.02 2.42 2.02 3.96 3.43 5.68.49-.37 1.49-1.11 1.98-1.48-.53 3.66-.28 7.35 0 11.02.48 3.82-1.78 7.18-2.25 10.88-.73 3.37-.55 6.85-1.13 10.23-1.62 4.88-3.54 9.73-4.21 14.86-.31 7.23 3.4 13.88 3.68 21.06.02 3.09-.03 6.24-1 9.22.51 1.62 1.04 3.24 1.57 4.86-1.03 3.99 2.31 7.14 2.58 10.98.11 2.28.91 4.62 3.06 5.75 3.46 2.99 8.38 2.76 12.61 2.06 1.63-1.45 3.76-1.87 5.77-2.53 1.47-1.07.82-3.08.9-4.61-2.48-3.86-6.05-6.9-8.01-11.1-1.41-2.9-3.75-5.38-4.44-8.6-1.82-7.56-1.02-15.77 1.96-22.93 1.87-5.16.29-10.68.76-15.99.58-3.78 1.97-7.36 3.2-10.95.86-4.39 4.53-7.58 5.23-12.04 1.44-4.11-.36-9.37 3.76-12.25 1.32 3.27 3.35 6.14 5.2 9.11 1.86 2.91.78 6.63 2.18 9.7 1.7 3.58 2.94 7.45 5.56 10.52 1.62-4.61-2.52-8.06-3.06-12.38-.37-2.44-.21-5.1-1.57-7.26-2.27-3.72-4.15-8.01-8.21-10.12l.19-2.42c3.66 2.85 8.26 3.26 12.56 1.79.46 4.58 1.37 9.1 1.77 13.68a17.88 17.88 0 01-2.58-4.13c-.19.04-.55.1-.74.13.88 2.61 2.03 5.14 3.9 7.19 2.61 20.31 5.32 40.62 8.3 60.88-3.5.18-7.7 1.59-10.54-1.15.45-4.43.22-9.08 2.07-13.22.02-4.11.27-8.23-.2-12.32-.38-3.6-3.44-6.25-3.74-9.86-.54-4.2-1.64-8.45-.66-12.68-.45-.81-.91-1.61-1.39-2.4-.87 4.6-1.46 9.3-1.13 13.99 1.04 3.6 3.41 6.62 4.64 10.15 1.17 4.21 1.58 8.76.37 13.02-1.01 4.69-2.88 9.58-1.43 14.39 3.3 3.28 8.09 2.04 12.18 1.57.68 5.09-1.92 10.15-.27 15.16.56 3.24 3.11 5.42 5.48 7.42 2.68-.03 5-1.3 6.84-3.17l-.6.97c8.53 2.72 16.52 6.92 25.1 9.47-.17-.45-.49-1.34-.65-1.78-7.02-3.36-14.46-5.8-21.61-8.88 4.73-3.92 3.77-10.72 1.99-15.88 2.88-1.08 6.06-2.08 7.39-5.18-1.63-1.62-2.8-4.32-5.42-4.4-3.78-.25-6.74-2.9-8.97-5.75-1.76-2.49-4.33-4.2-6.36-6.42-3.27-7.75-.98-16.42-2.26-24.53-1.4-6.3-1.36-12.94.2-19.21.61-3.09-1.79-5.77-1.51-8.85.09-4.57-.03-9.15-.91-13.64.71-.36 2.12-1.08 2.83-1.44-.22-2.66-2.81-4.28-2.95-6.95-.66-5.27-3.72-9.81-4.9-14.93.66-2.6 1.26-5.24.92-7.95-1.13-1.2-2.87-2.17-2.98-3.99-.8-4.29-1.19-8.67-.87-13.03.28-4.22 3.81-7.85 2.67-12.21-.44-4.29-3.49-9.4.03-13.09.83-3.7.19-7.48.06-11.21 1.82-1.1 3.42-2.53 5.25-3.62 2.63-1 5.44-1.34 8.19-1.87-.47-1.26-.91-2.54-1.35-3.81 3.08-2.33 5.89-5.08 7.72-8.53 2.71-4.25 1.98-9.57 3.77-14.14 1.18-2.78.6-5.96-1.3-8.26-4.18 1.14-8.52-1.55-12.52.43m-8.06 202.62c-.63-2.82-1.14-5.65-1.25-8.54-2.21 2.66-1.32 6.48 1.25 8.54z"/><path d="M136.12 33.21c3.32.1 6.66.42 9.97-.15 1.28 3.89-.08 8.13-2.73 11.11.67.4 1.36.79 2.05 1.17l-2.67-1.26c2.96 5.92-2.05 11.66-6.04 15.6-1.51 1.91-3.99 1.94-6.18 2.32-1.52-2.38-3.42-4.49-4.86-6.93 5.65-3.11 11.97-4.79 17.65-7.89-.35-.59-.7-1.18-1.05-1.76-5.43 3.45-12.37 4.18-17.21 8.55-1.19-1.39-2.71-2.28-4.58-2.34.74.89 1.51 1.76 2.3 2.61.78 1.22 1.66 2.36 2.69 3.38.86 1.76 2.52 3.3 2.61 5.32-.62 2.05-1.68 3.93-2.52 5.9-3.62.24-8.35.25-10.07 4.15 2.2-.37 4.24-1.29 6.39-1.85.55 4.7 1.46 9.54-.73 13.99-2.77-2.14-6.08 1.13-9-.36-1.59-4.47-1.91-9.34-1.8-14.06 1.23.7 2.45 1.45 3.66 2.18-.6-1.26-1.24-2.51-1.9-3.74-1.37.24-2.73.46-4.1.67-.17.62-.36 1.23-.56 1.85-.58-.53-1.76-1.58-2.35-2.11-.41 1.69-.81 3.39-1.24 5.08-4.44.92-8.94 1.92-12.9 4.23-.9-.66-1.83-1.26-2.8-1.81.74 2.07 1.92 3.93 4.32 4.17 1.07-.92 2.06-2.09 3.58-2.2 3.46-.79 6.77-2.08 10.05-3.4.3-1.05.6-2.11.89-3.16l1.01-.19c.38 3.08.69 6.17.82 9.28-1.89.74-2.3 2.69-2.97 4.33-1.96.78-3.95 1.46-5.88 2.28-3.13-2.42-6.47-4.59-10.04-6.31 2.47 3.13 5.77 5.41 8.65 8.13-2.17.47-4.34.99-6.55 1.17-.15.47-.44 1.41-.59 1.88 2.64-.07 5.6-.11 7.61-2.09 1.93-2.09 4.89-2.29 7.26-3.61 1.27-1.32 1.87-3.12 2.79-4.67.77 4.73 1.28 9.5 1.96 14.24-.72.03-2.15.08-2.87.11-1.19 1.38-2.75 2.3-4.49 2.85-.71.86-1.43 1.72-2.14 2.59-1.89-.94-3.65-2.11-5.45-3.21.48 2.96 3.16 4.15 5.82 4.64 1.34-1.5 2.9-2.82 4.94-3.2l1.4-1.64c.77-.06 2.31-.19 3.08-.25.07 3.24 1.89 6.73.37 9.83-2.43.2-4.95-.11-7.24.94-1.54.72-3.16-.27-4.73-.4 1.22 1.14 2.32 2.74 4.17 2.81 1.03-.45 2.05-.93 3.04-1.46 2.03-.12 4.04-.34 6.05-.7-.06 2.51-.34 5.01-.84 7.47l2.02.28c.13 1.59.24 3.2.35 4.8-3.86.54-7.73 2.31-11.65 1.1-5.13-1.45-11.76.37-15.5-4.3-.4-4.97-.1-10.17-2.98-14.54 2.5-1.1 5.33-.51 7.98-.53-.77-.88-1.53-1.76-2.3-2.64-1.94 1.16-4.01 1.62-5.96.01.03.65.08 1.95.11 2.6-2.87-2.33-4.57-5.66-7.08-8.31-1.38-1.34-.88-3.32-.91-5.02-.22.02-.67.05-.89.07-.46-2.58-1.36-5.05-2.47-7.42-6.37-3.6-14.69-4.62-19.18-10.95-1.65-3.26-4.87-5.23-6.71-8.35 3.92-3.01 6.65-8.36 12.16-8.52 5.02-.44 9.91 1.2 14.77 2.27 5.7.63 11.45.09 17.16-.24 2.37.4 4.05 2.37 5.93 3.71 1.85 1.59 4.28 2.14 6.36 3.31.86 1.21.78 2.8 1.15 4.19 2.25-.56 4.53-1 6.79-1.51-.7-4.62 2.67-8.51 2.76-13.11 3.81-3.85 8.1-7.35 11.05-11.99 2.73-3.84 6-8.27 10.99-8.99M84.49 67.47c-2.65-.91-5.64-2.33-8.41-1.05-3.6 1.7-7.1 3.94-11.16 4.34-2.42-.14-4.83-.53-7.26-.34 5.24 3.72 12.64 2.71 17.45-1.29 1.7 1.11 2.6 2.89 3.19 4.79 1.61-2.16.65-4.66-1.19-6.35 1.87.36 3.73.75 5.59 1.19l-.42-.81c1.13-.03 2.27-.04 3.4-.05l-1.18.66c.36.42 1.07 1.27 1.42 1.7-1.07.57-2.01 1.31-2.83 2.2l4.9-.28.64 1.56c-.03.4-2.19 1.74-.95 2.09.79-.06 2.39-.17 3.19-.23.94-3.02-3.21-4.68-3.62-7.53-.16-1.4-.35-2.79-.58-4.18-2.41-.95-1.62 2.29-2.18 3.58m29.8 3.26c2.14-2.15 2.52-5.45-.11-7.44-.47 2.46-.24 4.98.11 7.44m-32.92 1.64c.28.28.28.28 0 0m-2.42 2.43c2.25 2.55 4.48 5.14 6.37 7.98 1.42 1.79 2.54 4.21 5.04 4.65-2.05-4.28-5.14-7.96-8.33-11.42 1.49-.13 2.97-.23 4.47-.3-.12-.51-.36-1.53-.47-2.04-2.36.4-4.7.93-7.08 1.13m-6.5.68c.8 4.66 6 5.57 9.83 6.24l.04-2.25c-3.74-.06-6.82-2.11-9.87-3.99m31.88 16.33c-1.14 1.65-2.57 3.1-3.6 4.83 4.05-.65 4.9-5.32 8.15-7.31-2.03-.16-3.86.36-4.55 2.48m-19.57 3.08c-.04 1.15-.09 2.29-.15 3.44 2.58 1.75 5.54 1.48 8.37.58-.27-.46-.8-1.39-1.07-1.85-2.17.89-4.49.9-6.77.42.72-1.43 1.71-2.65 2.97-3.65-1.12.34-2.23.7-3.35 1.06m9.59 11.26c1.44 3.06 5.46 2.27 6.66-.54-2.23.13-4.44.39-6.66.54m-5.36.98c-.25 3.85 4.38 5.57 7.55 4.74-2.32-1.86-4.92-3.36-7.55-4.74m12.06 5.59c-.7 1.37 1.22 3.34 2.58 2.81.51-1.33-1.1-3.72-2.58-2.81m-.35 2.78c.18 3.67 3.27 7.53 7.23 7.06-2.55-2.21-4.92-4.6-7.23-7.06z"/><path d="M127.68 65.81c1.6-2.25 4.41-2.65 6.98-2.38-.15 3.2-4.84 1.83-6.98 2.38zM111.81 87.31c2.92-.64 5.84-1.26 8.8-1.71-.04 3.89 1.32 7.57 1.7 11.4.36 3.99-2.25 7.26-4.16 10.48-.7-.13-2.11-.38-2.81-.51-.36-3.29-1.45-6.41-2.26-9.6 2.85.08 5.66.53 8.38 1.38-1.09-3.25-4.74-2.84-7.48-2.99-.37-1.34-.76-2.67-1.17-4 .57-.74 1.15-1.48 1.73-2.21 1.22.51 2.45.98 3.72 1.39-1.55-1.95-3.8-3.58-5.96-1.21-.12-.61-.37-1.82-.49-2.42zM114.9 108.64c1.64.63 3.17.36 4.57-.83.06 1.23.18 3.68.23 4.9-.37 0-1.13-.02-1.5-.03 2.53 1.47 1.64 4.81 2.08 7.24-1.24.61-2.49 1.22-3.74 1.81-.53-4.37-1.01-8.74-1.64-13.09zM86.85 121.54c3.89 2.74 8.49 3.53 13.15 3.71 4.81 1.41 9.92 1.12 14.52-.89.13.59.4 1.78.54 2.37-7.99 2.91-16.69 1.86-24.49-1.08-1.6 2.57-2.9 5.39-3.15 8.45.43.13 1.28.38 1.71.51.05-2.6.94-5.02 2.13-7.29 1.79.61 3.6 1.19 5.39 1.83-1.24 5.24-6.86 6.44-10.17 9.87 5.02-.8 10.4-3.85 11.63-9.15 5.81.95 11.79.54 17.39-1.29.14 1.42.27 2.84.39 4.26-5 1.01-10.09 1.74-14.88 3.58-1.02.38-1.64 1.33-2.4 2.05 6.07-.91 11.94-4.01 18.13-3.39-4.64 2.68-10.67 3.53-13.96 8.15 4.57-2.04 9.01-4.38 13.72-6.12.29 1.78.62 3.56.93 5.34-7.15 1.26-14.46 1.36-21.55 3 2.25.84 4.71.97 7.06.47 4.82-1.08 9.81-.63 14.63-1.71.09 1.17.2 2.35.31 3.54.92 4 1.14 8.13 1.77 12.18-4.2 2.04-8.62.01-12.88-.6.92-3.34 4.4-3.76 7.23-4.54 2.06-1.99 3.39-5.02 3.42-7.89-1.78 1.97-3.09 4.28-4.38 6.58-2.37.36-4.75.84-6.87 2-1.04 2.2-.75 4.79-1.23 7.17-5.41 3.9-12.9 4.5-18.56.75-.7 2.21 1.78 3.06 3.39 3.73 4.3 1.93 9.01.18 13.35-.69-.75 4.49-1.17 9.22-3.45 13.25-3.72 5.73-4.93 12.61-7.38 18.89-2.88 4.91-5.22 10.52-4.55 16.32.26.47.77 1.4 1.03 1.86 1.29-5.22.55-11.05 4.08-15.55.06 4.58.83 9.46-1.36 13.7-3.18 6.93-3.03 14.98-1.17 22.25.88 3.82 3.59 6.81 5.27 10.28 1.89 4.12 5.83 6.79 7.76 10.9-.01 1.8-1.92 1.52-3.17 1.87-.85-1.22-1.36-2.77-2.59-3.67-3.33.24-6.69.3-10 .65-.24.4-.73 1.19-.97 1.59.99-.15 1.98-.29 2.98-.43 3.06 1.83 7.24-1.98 9.25 1.86-4.07 3.66-10.69 2.44-13.73-1.92-.33-7.64-6.78-14.38-4.4-22.17 1.05-7.29-2.1-14.26-3.47-21.29-1.11-6.35 1.25-12.61 3.79-18.31 1.56 2.77 1.48 6.69 4.41 8.52-1.44-5.28-3.09-10.54-3.73-15.98.12-3.87 1.66-7.46 2.81-11.09 1.7-4.88-1.71-10.12.41-14.88.34-1.88.09-3.82.13-5.71-2.15.7-2.52 3.1-3.57 4.8-2.92-2.45.24-5.26.66-8.08 1.08-6.71 3.84-13.34 2.08-20.23-1.15-3.27-.83-6.64.55-9.79.54.09 1.63.26 2.17.35-.02-.72-.08-2.17-.11-2.89m.65 58.3c-.2 1.81-.41 3.61-.55 5.43.75-1.13 1.46-2.28 2.17-3.43 1.8-.43 3.58-.91 5.34-1.46.21.63.62 1.91.83 2.54.31-.09.94-.27 1.26-.36-.66-1.49-1.31-2.98-1.94-4.48-2.2 1.19-4.61 1.8-7.11 1.76m1.69 9.16c.15.55.47 1.66.62 2.21.98-.15 2.93-.44 3.91-.59-1.04-1.54-2.91-1.45-4.53-1.62m-6.56 53.8c2.98-1.95 4.02-5.44 5.66-8.4-3.67.92-4.6 5.3-5.66 8.4zM116.47 125.78c.79-1.24 1.78-2.33 2.93-3.24 1.21 1.26 2.42 2.51 3.67 3.73.32 2.65-.22 5.28-1.03 7.79 2.02 4.53 4.39 9.03 5.01 14.01.1 2.16 1.38 3.92 2.64 5.58-3.01 1.24-5.53 3.31-8.01 5.36-.78-5.04-1.51-10.08-2.09-15.14.78-.93 1.55-1.85 2.32-2.78-.73.14-2.18.43-2.91.58.02-2.73.14-5.45.26-8.18-1.22-1.29-1.89-2.98-1.74-4.78.74-1.28 1.79-2.35 2.69-3.51-1.24.21-2.49.41-3.74.58zM122.04 160.95a93.39 93.39 0 006.13-4.29c.28 4.31.48 8.63.8 12.94-.5 0-1.5.02-2 .03-.64 2.4-1.5 4.75-2.96 6.79-.71-5.15-1.44-10.3-1.97-15.47zM128.27 172.2c1.4 2.35 2.29 5.06 1.45 7.79-1.06 3.64-.81 7.43-1.25 11.16-.37 3.99 1.3 7.82 1.34 11.8.15 5.19-.09 10.4-.3 15.58-1.5-13.59-3.63-27.11-5.25-40.69 1.53-1.74 2.77-3.69 4.01-5.64zM130.68 228.13c-.19-3.22-.56-6.44-.36-9.66.77 1.89.5 4.38 2.26 5.78 2.63 2.43 5.13 5 7.31 7.87 2.4 3.17 6.25 4.79 10.14 5.11.7.95 1.4 1.9 2.1 2.86-1.94.99-3.77 2.19-5.63 3.34a40.765 40.765 0 00-4.41-3.47c-2.35.19-4.66.56-5.6 3.03 1.92 2.28 5.02 3.78 5.37 7.14 1.43 3.94.43 10.91-4.88 10.8-5.07-1.26-5.02-7.68-4.69-11.88-.16-3.06 3.99-4.08 3.91-7.07-.14-1.91-2.41-1.73-3.66-2.44-.62-3.55-1.04-7.13-1.27-10.73-.15-.17-.44-.51-.59-.68zM133.23 242.2c.56.63.56.63 0 0z"/><path d="M138.81 241.74c4.51-.34 7.04 4.45 7.47 8.33.89 3.37-1.01 6.45-2.88 9.08 2.43-6.1.49-13.3-4.59-17.41z"/></g><g fill="#333"><path d="M85.87 31.83c3.19-4.38 9.11-5.07 14.13-4.53 3.26-.08 6.27 1.97 7.89 4.71.94 2.6 1.05 5.41 1.82 8.06 1.77 5.56-.08 11.33-1.1 16.85-.37 2.35-1.67 4.29-3.48 5.8l.03-2.12c-2.91.15-4.88-2.58-7.73-2.41-.28-.48-.83-1.44-1.11-1.92 2.52.85 5.01 1.79 7.56 2.54l2.84-1.4c1.56-4.87 2.78-10.1 2.02-15.23-.7-2.96-1.07-6-2-8.9-1.07-1.91-2.88-3.24-4.47-4.68-4.59-.19-9.66-.08-13.29 3.17-3.34 2.44-3.67 6.96-3.37 10.75.61-.15 1.84-.46 2.45-.61-.39 1.61-1.2 3.2-1.02 4.91 1.45 1.29 3.13 2.27 4.77 3.3.69 1.38 1.43 2.73 2.32 3.99-.34.58-.68 1.15-1.03 1.72-1.41-2.02-2.81-4.06-4.45-5.91.09 2.03.06 4.07-.07 6.1-1.21-1.84-.95-4.06-.9-6.14-.88-1.04-1.76-2.06-2.65-3.08-.52-4.94-2.47-10.58.84-14.97z"/><path d="M133.7 31.77c4-1.98 8.34.71 12.52-.43 1.9 2.3 2.48 5.48 1.3 8.26-1.79 4.57-1.06 9.89-3.77 14.14-1.83 3.45-4.64 6.2-7.72 8.53.44 1.27.88 2.55 1.35 3.81-2.75.53-5.56.87-8.19 1.87-1.83 1.09-3.43 2.52-5.25 3.62.13 3.73.77 7.51-.06 11.21-3.52 3.69-.47 8.8-.03 13.09 1.14 4.36-2.39 7.99-2.67 12.21-.32 4.36.07 8.74.87 13.03.11 1.82 1.85 2.79 2.98 3.99.34 2.71-.26 5.35-.92 7.95 1.18 5.12 4.24 9.66 4.9 14.93.14 2.67 2.73 4.29 2.95 6.95-.71.36-2.12 1.08-2.83 1.44.88 4.49 1 9.07.91 13.64-.28 3.08 2.12 5.76 1.51 8.85-1.56 6.27-1.6 12.91-.2 19.21 1.28 8.11-1.01 16.78 2.26 24.53 2.03 2.22 4.6 3.93 6.36 6.42 2.23 2.85 5.19 5.5 8.97 5.75 2.62.08 3.79 2.78 5.42 4.4-1.33 3.1-4.51 4.1-7.39 5.18 1.78 5.16 2.74 11.96-1.99 15.88 7.15 3.08 14.59 5.52 21.61 8.88.16.44.48 1.33.65 1.78-8.58-2.55-16.57-6.75-25.1-9.47l.6-.97c-1.84 1.87-4.16 3.14-6.84 3.17-2.37-2-4.92-4.18-5.48-7.42-1.65-5.01.95-10.07.27-15.16-4.09.47-8.88 1.71-12.18-1.57-1.45-4.81.42-9.7 1.43-14.39 1.21-4.26.8-8.81-.37-13.02-1.23-3.53-3.6-6.55-4.64-10.15-.33-4.69.26-9.39 1.13-13.99.48.79.94 1.59 1.39 2.4-.98 4.23.12 8.48.66 12.68.3 3.61 3.36 6.26 3.74 9.86.47 4.09.22 8.21.2 12.32-1.85 4.14-1.62 8.79-2.07 13.22 2.84 2.74 7.04 1.33 10.54 1.15-2.98-20.26-5.69-40.57-8.3-60.88-1.87-2.05-3.02-4.58-3.9-7.19.19-.03.55-.09.74-.13a17.88 17.88 0 002.58 4.13c-.4-4.58-1.31-9.1-1.77-13.68-4.3 1.47-8.9 1.06-12.56-1.79l-.19 2.42c4.06 2.11 5.94 6.4 8.21 10.12 1.36 2.16 1.2 4.82 1.57 7.26.54 4.32 4.68 7.77 3.06 12.38-2.62-3.07-3.86-6.94-5.56-10.52-1.4-3.07-.32-6.79-2.18-9.7-1.85-2.97-3.88-5.84-5.2-9.11-4.12 2.88-2.32 8.14-3.76 12.25-.7 4.46-4.37 7.65-5.23 12.04-1.23 3.59-2.62 7.17-3.2 10.95-.47 5.31 1.11 10.83-.76 15.99-2.98 7.16-3.78 15.37-1.96 22.93.69 3.22 3.03 5.7 4.44 8.6 1.96 4.2 5.53 7.24 8.01 11.1-.08 1.53.57 3.54-.9 4.61-2.01.66-4.14 1.08-5.77 2.53-4.23.7-9.15.93-12.61-2.06-2.15-1.13-2.95-3.47-3.06-5.75-.27-3.84-3.61-6.99-2.58-10.98-.53-1.62-1.06-3.24-1.57-4.86.97-2.98 1.02-6.13 1-9.22-.28-7.18-3.99-13.83-3.68-21.06.67-5.13 2.59-9.98 4.21-14.86.58-3.38.4-6.86 1.13-10.23.47-3.7 2.73-7.06 2.25-10.88-.28-3.67-.53-7.36 0-11.02-.49.37-1.49 1.11-1.98 1.48-1.41-1.72-3.41-3.26-3.43-5.68 2.67-1.69 3.12-4.82 3.3-7.7.21-4.44 2.34-8.58 2.12-13.07.03-3.2-1.65-6.23-1.27-9.45.8-3.33 4.35-5.68 4.1-9.33-.17-2.67.26-5.42-.48-8.01-1.63-5.95-7.12-9.4-10.12-14.55-1.69-3.83-1.18-8.63-3.92-11.92-5.12-1.97-10.74-3.14-14.94-6.91-3.91-2.54-5.75-6.95-8.81-10.29-1.11-1.36-2.46-3.45-.91-5.02 2.53-2.73 5.28-5.36 8.31-7.53 6.43-3.06 13.52-.56 20.01.89 6.02.24 12.06.22 18.08.18 1.67.87 3.03 2.2 4.47 3.4 3.03 2.95 8.64 2.9 9.6 7.81 2.37-2.06 2.67-5.45 3.95-8.16 1.28-2.6.58-6.07 2.99-8.06 2.88-2.46 6.37-4.28 8.54-7.5 2.98-4.49 6.14-9.28 11.11-11.75m2.42 1.44c-4.99.72-8.26 5.15-10.99 8.99-2.95 4.64-7.24 8.14-11.05 11.99-.09 4.6-3.46 8.49-2.76 13.11-2.26.51-4.54.95-6.79 1.51-.37-1.39-.29-2.98-1.15-4.19-2.08-1.17-4.51-1.72-6.36-3.31-1.88-1.34-3.56-3.31-5.93-3.71-5.71.33-11.46.87-17.16.24-4.86-1.07-9.75-2.71-14.77-2.27-5.51.16-8.24 5.51-12.16 8.52 1.84 3.12 5.06 5.09 6.71 8.35 4.49 6.33 12.81 7.35 19.18 10.95 1.11 2.37 2.01 4.84 2.47 7.42.22-.02.67-.05.89-.07.03 1.7-.47 3.68.91 5.02 2.51 2.65 4.21 5.98 7.08 8.31-.03-.65-.08-1.95-.11-2.6 1.95 1.61 4.02 1.15 5.96-.01.77.88 1.53 1.76 2.3 2.64-2.65.02-5.48-.57-7.98.53 2.88 4.37 2.58 9.57 2.98 14.54 3.74 4.67 10.37 2.85 15.5 4.3 3.92 1.21 7.79-.56 11.65-1.1-.11-1.6-.22-3.21-.35-4.8l-2.02-.28c.5-2.46.78-4.96.84-7.47-2.01.36-4.02.58-6.05.7-.99.53-2.01 1.01-3.04 1.46-1.85-.07-2.95-1.67-4.17-2.81 1.57.13 3.19 1.12 4.73.4 2.29-1.05 4.81-.74 7.24-.94 1.52-3.1-.3-6.59-.37-9.83-.77.06-2.31.19-3.08.25l-1.4 1.64c-2.04.38-3.6 1.7-4.94 3.2-2.66-.49-5.34-1.68-5.82-4.64 1.8 1.1 3.56 2.27 5.45 3.21.71-.87 1.43-1.73 2.14-2.59 1.74-.55 3.3-1.47 4.49-2.85.72-.03 2.15-.08 2.87-.11-.68-4.74-1.19-9.51-1.96-14.24-.92 1.55-1.52 3.35-2.79 4.67-2.37 1.32-5.33 1.52-7.26 3.61-2.01 1.98-4.97 2.02-7.61 2.09.15-.47.44-1.41.59-1.88 2.21-.18 4.38-.7 6.55-1.17-2.88-2.72-6.18-5-8.65-8.13 3.57 1.72 6.91 3.89 10.04 6.31 1.93-.82 3.92-1.5 5.88-2.28.67-1.64 1.08-3.59 2.97-4.33-.13-3.11-.44-6.2-.82-9.28l-1.01.19c-.29 1.05-.59 2.11-.89 3.16-3.28 1.32-6.59 2.61-10.05 3.4-1.52.11-2.51 1.28-3.58 2.2-2.4-.24-3.58-2.1-4.32-4.17.97.55 1.9 1.15 2.8 1.81 3.96-2.31 8.46-3.31 12.9-4.23.43-1.69.83-3.39 1.24-5.08.59.53 1.77 1.58 2.35 2.11.2-.62.39-1.23.56-1.85 1.37-.21 2.73-.43 4.1-.67.66 1.23 1.3 2.48 1.9 3.74-1.21-.73-2.43-1.48-3.66-2.18-.11 4.72.21 9.59 1.8 14.06 2.92 1.49 6.23-1.78 9 .36 2.19-4.45 1.28-9.29.73-13.99-2.15.56-4.19 1.48-6.39 1.85 1.72-3.9 6.45-3.91 10.07-4.15.84-1.97 1.9-3.85 2.52-5.9-.09-2.02-1.75-3.56-2.61-5.32-1.03-1.02-1.91-2.16-2.69-3.38-.79-.85-1.56-1.72-2.3-2.61 1.87.06 3.39.95 4.58 2.34 4.84-4.37 11.78-5.1 17.21-8.55.35.58.7 1.17 1.05 1.76-5.68 3.1-12 4.78-17.65 7.89 1.44 2.44 3.34 4.55 4.86 6.93 2.19-.38 4.67-.41 6.18-2.32 3.99-3.94 9-9.68 6.04-15.6l2.67 1.26c-.69-.38-1.38-.77-2.05-1.17 2.65-2.98 4.01-7.22 2.73-11.11-3.31.57-6.65.25-9.97.15m-8.44 32.6c2.14-.55 6.83.82 6.98-2.38-2.57-.27-5.38.13-6.98 2.38m-15.87 21.5c.12.6.37 1.81.49 2.42 2.16-2.37 4.41-.74 5.96 1.21-1.27-.41-2.5-.88-3.72-1.39-.58.73-1.16 1.47-1.73 2.21.41 1.33.8 2.66 1.17 4 2.74.15 6.39-.26 7.48 2.99-2.72-.85-5.53-1.3-8.38-1.38.81 3.19 1.9 6.31 2.26 9.6.7.13 2.11.38 2.81.51 1.91-3.22 4.52-6.49 4.16-10.48-.38-3.83-1.74-7.51-1.7-11.4-2.96.45-5.88 1.07-8.8 1.71m3.09 21.33c.63 4.35 1.11 8.72 1.64 13.09 1.25-.59 2.5-1.2 3.74-1.81-.44-2.43.45-5.77-2.08-7.24.37.01 1.13.03 1.5.03-.05-1.22-.17-3.67-.23-4.9-1.4 1.19-2.93 1.46-4.57.83m-28.05 12.9c.03.72.09 2.17.11 2.89-.54-.09-1.63-.26-2.17-.35-1.38 3.15-1.7 6.52-.55 9.79 1.76 6.89-1 13.52-2.08 20.23-.42 2.82-3.58 5.63-.66 8.08 1.05-1.7 1.42-4.1 3.57-4.8-.04 1.89.21 3.83-.13 5.71-2.12 4.76 1.29 10-.41 14.88-1.15 3.63-2.69 7.22-2.81 11.09.64 5.44 2.29 10.7 3.73 15.98-2.93-1.83-2.85-5.75-4.41-8.52-2.54 5.7-4.9 11.96-3.79 18.31 1.37 7.03 4.52 14 3.47 21.29-2.38 7.79 4.07 14.53 4.4 22.17 3.04 4.36 9.66 5.58 13.73 1.92-2.01-3.84-6.19-.03-9.25-1.86-1 .14-1.99.28-2.98.43.24-.4.73-1.19.97-1.59 3.31-.35 6.67-.41 10-.65 1.23.9 1.74 2.45 2.59 3.67 1.25-.35 3.16-.07 3.17-1.87-1.93-4.11-5.87-6.78-7.76-10.9-1.68-3.47-4.39-6.46-5.27-10.28-1.86-7.27-2.01-15.32 1.17-22.25 2.19-4.24 1.42-9.12 1.36-13.7-3.53 4.5-2.79 10.33-4.08 15.55-.26-.46-.77-1.39-1.03-1.86-.67-5.8 1.67-11.41 4.55-16.32 2.45-6.28 3.66-13.16 7.38-18.89 2.28-4.03 2.7-8.76 3.45-13.25-4.34.87-9.05 2.62-13.35.69-1.61-.67-4.09-1.52-3.39-3.73 5.66 3.75 13.15 3.15 18.56-.75.48-2.38.19-4.97 1.23-7.17 2.12-1.16 4.5-1.64 6.87-2 1.29-2.3 2.6-4.61 4.38-6.58-.03 2.87-1.36 5.9-3.42 7.89-2.83.78-6.31 1.2-7.23 4.54 4.26.61 8.68 2.64 12.88.6-.63-4.05-.85-8.18-1.77-12.18-.11-1.19-.22-2.37-.31-3.54-4.82 1.08-9.81.63-14.63 1.71-2.35.5-4.81.37-7.06-.47 7.09-1.64 14.4-1.74 21.55-3-.31-1.78-.64-3.56-.93-5.34-4.71 1.74-9.15 4.08-13.72 6.12 3.29-4.62 9.32-5.47 13.96-8.15-6.19-.62-12.06 2.48-18.13 3.39.76-.72 1.38-1.67 2.4-2.05 4.79-1.84 9.88-2.57 14.88-3.58-.12-1.42-.25-2.84-.39-4.26-5.6 1.83-11.58 2.24-17.39 1.29-1.23 5.3-6.61 8.35-11.63 9.15 3.31-3.43 8.93-4.63 10.17-9.87-1.79-.64-3.6-1.22-5.39-1.83-1.19 2.27-2.08 4.69-2.13 7.29-.43-.13-1.28-.38-1.71-.51.25-3.06 1.55-5.88 3.15-8.45 7.8 2.94 16.5 3.99 24.49 1.08a202 202 0 01-.54-2.37c-4.6 2.01-9.71 2.3-14.52.89-4.66-.18-9.26-.97-13.15-3.71m29.62 4.24c1.25-.17 2.5-.37 3.74-.58-.9 1.16-1.95 2.23-2.69 3.51-.15 1.8.52 3.49 1.74 4.78-.12 2.73-.24 5.45-.26 8.18.73-.15 2.18-.44 2.91-.58-.77.93-1.54 1.85-2.32 2.78.58 5.06 1.31 10.1 2.09 15.14 2.48-2.05 5-4.12 8.01-5.36-1.26-1.66-2.54-3.42-2.64-5.58-.62-4.98-2.99-9.48-5.01-14.01.81-2.51 1.35-5.14 1.03-7.79-1.25-1.22-2.46-2.47-3.67-3.73-1.15.91-2.14 2-2.93 3.24m5.57 35.17c.53 5.17 1.26 10.32 1.97 15.47 1.46-2.04 2.32-4.39 2.96-6.79.5-.01 1.5-.03 2-.03-.32-4.31-.52-8.63-.8-12.94a93.39 93.39 0 01-6.13 4.29m6.23 11.25c-1.24 1.95-2.48 3.9-4.01 5.64 1.62 13.58 3.75 27.1 5.25 40.69.21-5.18.45-10.39.3-15.58-.04-3.98-1.71-7.81-1.34-11.8.44-3.73.19-7.52 1.25-11.16.84-2.73-.05-5.44-1.45-7.79m2.41 55.93c.15.17.44.51.59.68.23 3.6.65 7.18 1.27 10.73 1.25.71 3.52.53 3.66 2.44.08 2.99-4.07 4.01-3.91 7.07-.33 4.2-.38 10.62 4.69 11.88 5.31.11 6.31-6.86 4.88-10.8-.35-3.36-3.45-4.86-5.37-7.14.94-2.47 3.25-2.84 5.6-3.03 1.54 1.05 3.02 2.21 4.41 3.47 1.86-1.15 3.69-2.35 5.63-3.34-.7-.96-1.4-1.91-2.1-2.86-3.89-.32-7.74-1.94-10.14-5.11-2.18-2.87-4.68-5.44-7.31-7.87-1.76-1.4-1.49-3.89-2.26-5.78-.2 3.22.17 6.44.36 9.66m2.55 14.07c.56.63.56.63 0 0m5.58-.46c5.08 4.11 7.02 11.31 4.59 17.41 1.87-2.63 3.77-5.71 2.88-9.08-.43-3.88-2.96-8.67-7.47-8.33z"/><path d="M84.49 67.47c.56-1.29-.23-4.53 2.18-3.58.23 1.39.42 2.78.58 4.18.41 2.85 4.56 4.51 3.62 7.53-.8.06-2.4.17-3.19.23-1.24-.35.92-1.69.95-2.09l-.64-1.56-4.9.28c.82-.89 1.76-1.63 2.83-2.2-.35-.43-1.06-1.28-1.42-1.7l1.18-.66c-1.13.01-2.27.02-3.4.05l.42.81c-1.86-.44-3.72-.83-5.59-1.19 1.84 1.69 2.8 4.19 1.19 6.35-.59-1.9-1.49-3.68-3.19-4.79-4.81 4-12.21 5.01-17.45 1.29 2.43-.19 4.84.2 7.26.34 4.06-.4 7.56-2.64 11.16-4.34 2.77-1.28 5.76.14 8.41 1.05zM114.29 70.73c-.35-2.46-.58-4.98-.11-7.44 2.63 1.99 2.25 5.29.11 7.44zM81.37 72.37c.28.28.28.28 0 0z"/><path d="M78.95 74.8c2.38-.2 4.72-.73 7.08-1.13.11.51.35 1.53.47 2.04-1.5.07-2.98.17-4.47.3 3.19 3.46 6.28 7.14 8.33 11.42-2.5-.44-3.62-2.86-5.04-4.65-1.89-2.84-4.12-5.43-6.37-7.98zM72.45 75.48c3.05 1.88 6.13 3.93 9.87 3.99l-.04 2.25c-3.83-.67-9.03-1.58-9.83-6.24zM104.33 91.81c.69-2.12 2.52-2.64 4.55-2.48-3.25 1.99-4.1 6.66-8.15 7.31 1.03-1.73 2.46-3.18 3.6-4.83zM84.76 94.89c1.12-.36 2.23-.72 3.35-1.06-1.26 1-2.25 2.22-2.97 3.65 2.28.48 4.6.47 6.77-.42.27.46.8 1.39 1.07 1.85-2.83.9-5.79 1.17-8.37-.58.06-1.15.11-2.29.15-3.44zM94.35 106.15c2.22-.15 4.43-.41 6.66-.54-1.2 2.81-5.22 3.6-6.66.54zM88.99 107.13c2.63 1.38 5.23 2.88 7.55 4.74-3.17.83-7.8-.89-7.55-4.74zM101.05 112.72c1.48-.91 3.09 1.48 2.58 2.81-1.36.53-3.28-1.44-2.58-2.81zM100.7 115.5c2.31 2.46 4.68 4.85 7.23 7.06-3.96.47-7.05-3.39-7.23-7.06zM87.5 179.84c2.5.04 4.91-.57 7.11-1.76.63 1.5 1.28 2.99 1.94 4.48-.32.09-.95.27-1.26.36-.21-.63-.62-1.91-.83-2.54-1.76.55-3.54 1.03-5.34 1.46-.71 1.15-1.42 2.3-2.17 3.43.14-1.82.35-3.62.55-5.43zM89.19 189c1.62.17 3.49.08 4.53 1.62-.98.15-2.93.44-3.91.59-.15-.55-.47-1.66-.62-2.21zM125.64 234.39c-2.57-2.06-3.46-5.88-1.25-8.54.11 2.89.62 5.72 1.25 8.54zM82.63 242.8c1.06-3.1 1.99-7.48 5.66-8.4-1.64 2.96-2.68 6.45-5.66 8.4z"/></g></svg>