<svg width="221pt" height="275pt" viewBox="0 0 221 275" xmlns="http://www.w3.org/2000/svg"><g fill="#FFF"><path d="M0 0h221v275H0V0m85.87 31.83c-3.29 4.39-1.36 10.01-.85 14.94.87 1.02 1.74 2.03 2.61 3.05-.01 2.14-.04 4.34.82 6.35.23-2.09.3-4.18.22-6.29 1.55 1.84 2.91 3.81 4.36 5.73l-1.95 1.23c4 2.8 7.61 6.16 12.3 7.81 1.75 2.99 1.52 6.65.57 9.88-2.3.57-4.56 1.3-6.75 2.21.12-7.06-.43-15.7-7.04-19.88-5.16-1.33-10.69-.49-15.97-1.15-6.2-1.53-13.03-3.66-19.18-.77-2.95 1.97-5.41 4.6-7.97 7.04-2.92 2.89 1.13 5.96 2.74 8.33 2.66 4.53 6.65 8.16 11.29 10.61 3.3 1.59 6.9 2.43 10.27 3.83 2.66 3.29 2.24 8 3.85 11.82 1.98 2.48 3.57 5.28 5.94 7.43 3.69 3.58 5.14 8.81 4.68 13.84.68 3.65-2.02 6.44-3.65 9.38-1.23 2.56.08 5.39.51 7.99 1.38 5.9-1.84 11.46-1.97 17.31-.01 2.62-1.27 4.92-3.3 6.54.64 2.11 2.16 3.74 3.55 5.39l2-1.52c-.47 3.7-.24 7.42.04 11.12.43 3.78-1.79 7.12-2.25 10.79-.73 3.38-.57 6.88-1.16 10.28-1.6 4.85-3.51 9.67-4.19 14.77-.32 7.25 3.41 13.93 3.68 21.12.05 3.13-.09 6.31-.97 9.33.5 1.58 1.02 3.15 1.53 4.72-.91 3.99 2.27 7.19 2.6 11.02.15 2.27.9 4.61 3.06 5.73 3.49 3.04 8.41 2.59 12.7 2.18.65-.58 1.31-1.15 1.97-1.72 1.26-.18 2.49-.46 3.7-.84 1.36-1.15.82-3.1.96-4.64-2.89-4.21-6.65-7.78-8.81-12.48-6.61-8.84-5.45-21.09-1.56-30.81 1.94-6.07-.72-12.58 1.28-18.64 1.61-4.98 2.77-10.24 5.74-14.64 2.51-4.33 2.86-9.48 3.11-14.37.44-.58 1.31-1.75 1.75-2.33 2.46 2.45 4.3 5.43 6.07 8.4 1.84 2.93.81 6.67 2.24 9.74.78 1.75 1.55 3.5 2.05 5.35 2.09 1.13 2.74 3.34 3.46 5.46 1.75-4.96-2.86-8.64-3.12-13.36-.14-6.26-4.14-11.66-8.3-16.02l.88-.46c-1.4-.35-2.29-1.21-2.64-2.59l2.68 1.18c6.33 3.69 13.7-.48 18.73-4.57.28 4.33.48 8.66.78 12.99l-1.95-.04c-.75 2.38-1.35 4.91-3.03 6.84-2.72-.31-3.95-2.86-4.98-5.04-.17.01-.51.05-.68.07.98 2.23 1.4 5.04 3.67 6.38 3.44.18 4.77-3.39 6.36-5.74 1.19 2.41 2.21 5.07 1.39 7.78-1.12 4.26-.97 8.68-1.33 13.03.75 5.34 1.93 10.68 1.4 16.12-.54 4.78.56 9.48 1.56 14.12 3.34 2.85 6.28 6.1 9.02 9.51 2.37 2.9 6.04 4.18 9.65 4.6.71.93 1.42 1.87 2.13 2.81-1.74.92-3.39 2.04-5.19 2.83-2.63.12-5.22-.44-7.84-.39-5.06-3.81-11.37-2.61-17.22-2.51-.64-.61-1.29-1.21-1.93-1.81.35-4.45.44-8.99 1.96-13.23.15-4.05.39-8.12-.12-12.15-.4-3.53-3.33-6.15-3.7-9.68-.59-4.25-1.65-8.58-.68-12.87-.45-.78-.92-1.56-1.39-2.32-.86 4.62-1.51 9.35-1.11 14.05 1.55 4.82 5.16 8.87 5.47 14.1 1.68 7.94-4.1 15.48-1.9 23.37 2.57 2.52 6.32 2.51 9.61 1.83 3.98-.91 7.42 1.74 10.82 3.34.49-.15 1.46-.46 1.94-.61 1.6.28 3.22 1.23 4.86.83 3.23-1.21 6.88-2.27 8.61-5.53-1.16-1.45-2.34-2.88-3.55-4.28-4.17-.08-7.95-2.17-10.41-5.51-1.92-2.7-4.68-4.62-6.84-7.05-3.17-7.7-.97-16.28-2.2-24.32-1.41-6.33-1.36-12.98.17-19.27.6-3.09-1.72-5.8-1.47-8.87.14-4.43-.31-8.83-.64-13.24.82-.96 1.62-1.93 2.41-2.91-.63-2.13-2.76-3.55-2.82-5.91-.73-5.22-3.63-9.78-4.91-14.85.44-2.4 1.48-4.77.92-7.25-.68-1.51-2.06-2.57-2.78-4.05-.99-4.49-1.39-9.13-1.06-13.72.26-4.23 3.81-7.88 2.66-12.25-.69-3.53-1.55-7.03-1.85-10.62.67-.8 1.34-1.6 2.02-2.39.55-3.73.11-7.49-.07-11.23 2.71-1.14 4.1-3.69 5.55-6.08.21-1.49.54-2.98.51-4.49-1.21-1.87-2.81-3.46-4.1-5.28.18-.44.55-1.32.74-1.77-1.32-.06-2.63-.12-3.94-.19.87-3.28 2.5-6.28 5.17-8.44 3.09 1.7 6.48 3.64 7.73 7.18 2.07 5.48 3.02 12.33-.33 17.5-1.21 2.25-3.97 1.94-6.09 2.51 1.51 1.77 3.96 1.82 5.73.37 3.46-3.1 3.75-8.11 3.9-12.44.99-2.34 3.41-3.75 4.53-6.06 3.11-4.37 2.34-10.01 4.19-14.84 1.17-2.75.53-5.83-1.2-8.18-4.39 1.02-9.07-1.77-13.2.65-8.05 4.19-10.02 14.85-18.78 18.1l-.28 1.01c-1.3-.78-2.6-1.53-3.92-2.26 1.1-5.03-.9-9.88-1.66-14.79-.59-3.9-4.51-6.79-8.36-6.79-5.06-.56-11.03.08-14.26 4.51m36.87 198.48c.91 1.42 1.84 2.83 2.84 4.2-.53-2.94-1.02-5.88-1.41-8.84-.51 1.53-.99 3.08-1.43 4.64z"/><path d="M89 31.75c3.65-3.24 8.73-3.34 13.33-3.15 1.7 1.67 3.96 3.11 4.69 5.5 1.16 4.99 2.41 10.04 1.91 15.2-3.7 1.72-6.8 4.83-8.52 8.53-4.04-.97-7.5-3.53-8.56-7.71-1.68-1.02-3.39-2.03-4.86-3.34.03-1.69.61-3.3 1.01-4.92-.61.17-1.82.52-2.43.69-.22-3.81.05-8.35 3.43-10.8z"/><path d="M132.04 34.73c4.2-2.94 9.48-.53 14.17-1.62.93 3.71.01 7.74-2.55 10.6.65 1.27 1.27 2.56 1.84 3.88l-1.07-2.15c-.73 4.64-2.67 8.9-5.64 12.53-1.02-2.46-1.54-5.13-2.97-7.41 2.52-1.18 5.16-2.1 7.61-3.45-.41-.54-.81-1.09-1.21-1.63-1.87 1.15-3.94 1.88-5.97 2.69l-.36-1.15c.07.75.2 2.24.26 2.98-2.17-2.21-4.61-6.07-8.27-4.86-3.3.35-4.57 3.72-5.57 6.4l-1.23.91 1.92 2.34c.79.99 1.63 1.94 2.49 2.86.9 1.52 1.87 3 2.63 4.59-.32 2.36-1.7 4.4-2.55 6.59-2.86.04-5.71.5-8.04 2.28 1.46.17 2.92.3 4.4.38.52 4.56 1.4 9.26-.79 13.57-2.3-1.46-4.94-.2-7.32.36-1.31-.61-2.61-1.24-3.92-1.86-.19.44-.57 1.32-.76 1.75 3.55 2.49 7.6.95 11.45.28.01 3.91 1.32 7.62 1.72 11.47.35 3.96-2.24 7.22-4.19 10.39-.68-.11-2.03-.34-2.7-.46-.37-2.15-.98-4.24-1.67-6.3-.58 2.62.03 5.96-2.21 7.9-4.07-.34-7.9 2.06-11.89.59 1.41 1.05 2.78 3.4 4.82 2.4 3.22-1.45 7.13-.74 9.86-3.3.97.4 1.95.81 2.92 1.22l2.12-2.36c.09 1.43.25 4.28.33 5.71-.4-.09-1.2-.26-1.6-.34 2.52 1.63 1.8 4.91 2.22 7.45-5.93 2.86-12.86 4.9-19.39 3.14-4.55-.68-9.78.03-13.38-3.49-.73-5.1-.14-10.53-3.16-15.06 2.57-.92 5.35-.4 8.02-.42-.74-.88-1.49-1.75-2.24-2.61-2 1.12-4.11 1.44-6.08-.05l.2 2.64c-3.29-2.87-5.47-6.72-8.31-10 .14-1.12.28-2.23.43-3.34-.25.02-.74.07-.98.1-.57-2.57-1.43-5.06-2.5-7.46C66.7 79.92 58.79 78.84 54.1 73c-1.86-3.37-4.93-5.75-7.13-8.85 3.89-3.07 6.68-8.39 12.18-8.59 4.26-.33 8.52.71 12.62 1.79 3.85 1.1 7.9.7 11.85.65-1.48 2.4-2.51 5.04-3.16 7.78-4.85-.31-8.45 3.41-12.95 4.45-3.26 1.16-6.69-.28-10.04.29 5.45 3.34 12.46 2.72 17.46-1.16.45.21 1.35.64 1.81.86.89 2.08 1.87 4.14 3.01 6.1.5-1.4.96-2.81 1.37-4.24-.02-5.61.85-11.99 6.02-15.29 5.47 2.5 8.39 8.43 8.7 14.23.33 4.54-.6 9.68-4.25 12.75-2.27 1.56-5.28.25-6.77-1.76-1.99-2.22-2.18-5.39-3.52-7.91-1.37 2.02.39 4.31 1.07 6.21-3.51-1.33-6.85-2.99-10.13-4.8 1.31 4.6 6.23 5.82 10.42 5.96 2.01 3.1 5.35 5.89 9.29 4.61l-.31-1.5c2.48 1.58 4.87 3.33 6.96 5.4-2.18.5-4.38.95-6.61 1.22-.12.5-.35 1.5-.46 2 2.6-.31 5.54-.32 7.55-2.28 1.96-2.05 4.91-2.3 7.3-3.61 1.58-1.59 2.01-3.95 2.81-5.97-1.99.82-2.75 2.76-3.43 4.62-2.2.83-4.45 1.53-6.62 2.44-.14-.4-.4-1.2-.53-1.6-1.62-.93-3.16-1.99-4.73-2.99.98-1.5 1.78-3.1 2.47-4.75 3.17-.98 6.32-2.03 9.38-3.32 1.54-3.6 1.69-7.78.08-11.37-1.42-1.51-3.5-2.08-5.32-2.92 1.01-3.46 2.8-6.57 5.23-9.22 2.87 1.7 6.23 3.26 7.55 6.59 2.38 5.61 3.44 12.75.04 18.17-1.19 2.32-3.96 2.04-6.13 2.52 1.09.81 2.22 1.94 3.72 1.46 4.01-1.34 5.51-6.1 5.55-9.93.35.94 1.07 2.81 1.43 3.75-1.16-6.56-1.16-13.79-5.11-19.44-1.53-2.41-4.33-3.45-7.03-3.85.93-.33 2.8-1 3.73-1.34 7.53 3.37 8.47 12.36 8.43 19.6l.91.12c.43-6.02-.21-12.29-3.59-17.45 7.32-4.17 10.12-12.86 16.82-17.7m-21.92 56.23c1.96 1.36 2.31 3.6 2.14 5.84-1.33.08-2.66.16-3.99.23-1.31 1.3-2.87 2.26-4.58 2.93-.75.83-1.49 1.67-2.23 2.51-1.86-1-3.61-2.17-5.44-3.2.68 2.87 3.17 4.13 5.86 4.61 1.39-1.45 2.96-2.72 4.95-3.24.35-.34 1.05-1 1.39-1.33 1.84-.45 3.63-1.09 5.31-1.99 2.76.26 5.49.73 8.21 1.31-1.62-2.81-4.85-2.87-7.72-2.89-.59-1.36-1.24-2.7-1.89-4.02.86-.67 1.71-1.35 2.57-2.03 1.22.43 2.45.83 3.69 1.2-1.04-.88-2.03-1.86-3.26-2.49-1.69.82-3.19 2.01-5.01 2.56m-5.82.82c-1.19 1.59-2.37 3.18-3.58 4.75 1.08-.4 2.17-.81 3.26-1.21 1.05-2.45 2.88-4.34 4.89-6.03-2-.09-3.79.49-4.57 2.49m-19.73 3.17c.11.45.34 1.36.45 1.81-.17.36-.52 1.1-.7 1.46 2.69 1.68 5.72 1.6 8.69.89-.26-.5-.79-1.51-1.06-2.01-2.26.88-4.66.83-7 .25 1.01-1.25 2.05-2.49 3.1-3.7-1.17.41-2.33.85-3.48 1.3m9.59 11.33c1.23 1.49 3.04 1.87 4.87 2.07.6-.93 1.21-1.85 1.81-2.78-2.23.22-4.46.43-6.68.71m-5.38.83c.2 3.86 4.51 5.57 7.86 4.82a45.888 45.888 0 00-7.86-4.82m12.41 5.74c-.41 1.6.19 2.24 1.8 1.9.41-1.62-.19-2.25-1.8-1.9m10.62 5.43c1.47-1.3 2.65-2.89 3.49-4.67-2.06.81-3.42 2.4-3.49 4.67m-11.19-2.86c.32 3.61 3.22 7.65 7.24 7.12-2.52-2.27-4.92-4.65-7.24-7.12z"/><path d="M94.88 56.91c1.85.53 3.69 1.07 5.55 1.57-.11.8-.32 2.39-.43 3.18-1.76-1.52-3.46-3.12-5.12-4.75zM77.71 67.81c.5.11 1.5.35 2 .47.79 1.16.9 2.37.33 3.63-1.25-.29-2.13-2.85-2.33-4.1zM87.09 121.62c4.17 3.21 9.38 3.19 14.33 3.92 6.25 1.88 12.41-.93 18.35-2.59 1.1 1.13 2.21 2.24 3.35 3.33.23 2.65-.28 5.28-1.06 7.8 2.03 4.52 4.34 9.05 4.99 14.02.16 2.12 1.39 3.87 2.58 5.54-3.93 1.56-6.66 5.1-10.68 6.49-3.98 1.9-8.21-.36-12.22-.87 1.14-3.47 4.87-3.62 7.73-4.75 1.76-2.25 2.65-5.05 3.26-7.81-1.92 1.98-3.34 4.34-4.65 6.73-2.34.4-4.68.91-6.82 1.98-1.17 2.16-.8 4.84-1.31 7.22-5.44 3.97-12.92 4.45-18.67.79-.45 2.21 1.87 3.05 3.52 3.72 4.3 1.9 9 .16 13.33-.7-.73 4.46-1.17 9.16-3.41 13.19-3.75 5.75-4.95 12.65-7.44 18.95-2.9 5.41-6.41 12.2-3.58 18.28 1.38-5.28.71-11.13 4.11-15.78.12 4.61.89 9.53-1.3 13.82-3.16 6.9-3.05 14.93-1.19 22.18.79 3.59 3.24 6.44 4.88 9.64 2.16 4.63 6.34 7.84 8.63 12.4-1.18.39-2.36.77-3.54 1.13-.85-1.25-1.52-2.65-2.62-3.7-3.29.21-6.62.25-9.89.62-.34.38-1.01 1.13-1.35 1.5 1.02-.08 2.04-.17 3.06-.25 3.17 1.54 7.27-1.83 9.46 1.79-4.11 3.57-10.58 2.49-13.76-1.77-.58-6.12-3.93-11.49-5.12-17.47.01-1.97.56-3.88.8-5.83.98-9.25-5-17.72-3.67-26.96.77-4.06 2.14-7.99 3.84-11.75 1.43 2.92 1.72 6.59 4.35 8.78-1.31-6.98-5.07-14.05-2.82-21.21.64-2.36 1.62-4.61 2.22-6.98 1.04-4.63-1.83-9.48.16-13.95.35-1.94.07-3.94.11-5.9-1.88 1.14-2.6 3.27-3.71 5.04-2.65-2.8.7-5.7.93-8.74.58-5.2 3.06-10.09 2.42-15.41.27-4.04-2.4-8.05-.57-11.97.37-1.32 1.27-2.05 2.72-2.19.06-.57.19-1.71.25-2.28m1.8 13.51c.33-2.74 1.12-5.38 2.32-7.85 1.88.66 3.77 1.31 5.6 2.09-1.8 4.88-6.91 6.49-10.49 9.66 5.11-.75 10.48-3.84 11.85-9.15 6.06.95 12.36.54 18.13-1.64 1.81-.43 3.03-1.89 4.33-3.1-5.41 1.6-10.88 3.53-16.61 3.35-4.71.15-9.14-1.65-13.62-2.81-1.19 2.93-4.38 6.55-1.51 9.45m17.61-.4c-2.88.8-6 1.42-8.14 3.69 6.46-.8 12.59-4.11 19.18-3.46-5.08 2.47-11.27 3.63-14.91 8.32 5.53-2.56 11.04-5.2 16.79-7.26-.06-1.08-.11-2.17-.14-3.25-4.32.18-8.59.95-12.78 1.96m-9.74 10.32l-.03 1.16c4.79.3 9.43-1.17 14.2-1.16 4.02-.26 8.59-.45 11.26-3.95-8.23 2.64-16.96 2.56-25.43 3.95m-9.28 34.88c-.21 1.8-.41 3.6-.57 5.41.74-1.17 1.47-2.34 2.19-3.52 1.7-.39 3.38-.82 5.06-1.3.75 1.09 1.52 2.16 2.33 3.21-.47-1.91-1.08-3.78-1.69-5.64-2.31 1.08-4.76 1.75-7.32 1.84m1.18 9.23c.79 2.12 3.99 2.81 5 .44-1.65-.3-3.33-.4-5-.44m-6.11 53.77c3-2.09 4.2-5.59 5.71-8.74-3.54 1.41-4.65 5.45-5.71 8.74z"/></g><g fill="#333"><path d="M85.87 31.83c3.23-4.43 9.2-5.07 14.26-4.51 3.85 0 7.77 2.89 8.36 6.79.76 4.91 2.76 9.76 1.66 14.79 1.32.73 2.62 1.48 3.92 2.26l.28-1.01c8.76-3.25 10.73-13.91 18.78-18.1 4.13-2.42 8.81.37 13.2-.65 1.73 2.35 2.37 5.43 1.2 8.18-1.85 4.83-1.08 10.47-4.19 14.84-1.12 2.31-3.54 3.72-4.53 6.06-.15 4.33-.44 9.34-3.9 12.44-1.77 1.45-4.22 1.4-5.73-.37 2.12-.57 4.88-.26 6.09-2.51 3.35-5.17 2.4-12.02.33-17.5-1.25-3.54-4.64-5.48-7.73-7.18-2.67 2.16-4.3 5.16-5.17 8.44 1.31.07 2.62.13 3.94.19-.19.45-.56 1.33-.74 1.77 1.29 1.82 2.89 3.41 4.1 5.28.03 1.51-.3 3-.51 4.49-1.45 2.39-2.84 4.94-5.55 6.08.18 3.74.62 7.5.07 11.23-.68.79-1.35 1.59-2.02 2.39.3 3.59 1.16 7.09 1.85 10.62 1.15 4.37-2.4 8.02-2.66 12.25-.33 4.59.07 9.23 1.06 13.72.72 1.48 2.1 2.54 2.78 4.05.56 2.48-.48 4.85-.92 7.25 1.28 5.07 4.18 9.63 4.91 14.85.06 2.36 2.19 3.78 2.82 5.91-.79.98-1.59 1.95-2.41 2.91.33 4.41.78 8.81.64 13.24-.25 3.07 2.07 5.78 1.47 8.87-1.53 6.29-1.58 12.94-.17 19.27 1.23 8.04-.97 16.62 2.2 24.32 2.16 2.43 4.92 4.35 6.84 7.05 2.46 3.34 6.24 5.43 10.41 5.51 1.21 1.4 2.39 2.83 3.55 4.28-1.73 3.26-5.38 4.32-8.61 5.53-1.64.4-3.26-.55-4.86-.83-.48.15-1.45.46-1.94.61-3.4-1.6-6.84-4.25-10.82-3.34-3.29.68-7.04.69-9.61-1.83-2.2-7.89 3.58-15.43 1.9-23.37-.31-5.23-3.92-9.28-5.47-14.1-.4-4.7.25-9.43 1.11-14.05.47.76.94 1.54 1.39 2.32-.97 4.29.09 8.62.68 12.87.37 3.53 3.3 6.15 3.7 9.68.51 4.03.27 8.1.12 12.15-1.52 4.24-1.61 8.78-1.96 13.23.64.6 1.29 1.2 1.93 1.81 5.85-.1 12.16-1.3 17.22 2.51 2.62-.05 5.21.51 7.84.39 1.8-.79 3.45-1.91 5.19-2.83-.71-.94-1.42-1.88-2.13-2.81-3.61-.42-7.28-1.7-9.65-4.6-2.74-3.41-5.68-6.66-9.02-9.51-1-4.64-2.1-9.34-1.56-14.12.53-5.44-.65-10.78-1.4-16.12.36-4.35.21-8.77 1.33-13.03.82-2.71-.2-5.37-1.39-7.78-1.59 2.35-2.92 5.92-6.36 5.74-2.27-1.34-2.69-4.15-3.67-6.38.17-.02.51-.06.68-.07 1.03 2.18 2.26 4.73 4.98 5.04 1.68-1.93 2.28-4.46 3.03-6.84l1.95.04c-.3-4.33-.5-8.66-.78-12.99-5.03 4.09-12.4 8.26-18.73 4.57l-2.68-1.18c.35 1.38 1.24 2.24 2.64 2.59l-.88.46c4.16 4.36 8.16 9.76 8.3 16.02.26 4.72 4.87 8.4 3.12 13.36-.72-2.12-1.37-4.33-3.46-5.46-.5-1.85-1.27-3.6-2.05-5.35-1.43-3.07-.4-6.81-2.24-9.74-1.77-2.97-3.61-5.95-6.07-8.4-.44.58-1.31 1.75-1.75 2.33-.25 4.89-.6 10.04-3.11 14.37-2.97 4.4-4.13 9.66-5.74 14.64-2 6.06.66 12.57-1.28 18.64-3.89 9.72-5.05 21.97 1.56 30.81 2.16 4.7 5.92 8.27 8.81 12.48-.14 1.54.4 3.49-.96 4.64-1.21.38-2.44.66-3.7.84-.66.57-1.32 1.14-1.97 1.72-4.29.41-9.21.86-12.7-2.18-2.16-1.12-2.91-3.46-3.06-5.73-.33-3.83-3.51-7.03-2.6-11.02-.51-1.57-1.03-3.14-1.53-4.72.88-3.02 1.02-6.2.97-9.33-.27-7.19-4-13.87-3.68-21.12.68-5.1 2.59-9.92 4.19-14.77.59-3.4.43-6.9 1.16-10.28.46-3.67 2.68-7.01 2.25-10.79-.28-3.7-.51-7.42-.04-11.12l-2 1.52c-1.39-1.65-2.91-3.28-3.55-5.39 2.03-1.62 3.29-3.92 3.3-6.54.13-5.85 3.35-11.41 1.97-17.31-.43-2.6-1.74-5.43-.51-7.99 1.63-2.94 4.33-5.73 3.65-9.38.46-5.03-.99-10.26-4.68-13.84-2.37-2.15-3.96-4.95-5.94-7.43-1.61-3.82-1.19-8.53-3.85-11.82-3.37-1.4-6.97-2.24-10.27-3.83-4.64-2.45-8.63-6.08-11.29-10.61-1.61-2.37-5.66-5.44-2.74-8.33 2.56-2.44 5.02-5.07 7.97-7.04 6.15-2.89 12.98-.76 19.18.77 5.28.66 10.81-.18 15.97 1.15 6.61 4.18 7.16 12.82 7.04 19.88 2.19-.91 4.45-1.64 6.75-2.21.95-3.23 1.18-6.89-.57-9.88-4.69-1.65-8.3-5.01-12.3-7.81l1.95-1.23c-1.45-1.92-2.81-3.89-4.36-5.73.08 2.11.01 4.2-.22 6.29-.86-2.01-.83-4.21-.82-6.35-.87-1.02-1.74-2.03-2.61-3.05-.51-4.93-2.44-10.55.85-14.94m3.13-.08c-3.38 2.45-3.65 6.99-3.43 10.8.61-.17 1.82-.52 2.43-.69-.4 1.62-.98 3.23-1.01 4.92 1.47 1.31 3.18 2.32 4.86 3.34 1.06 4.18 4.52 6.74 8.56 7.71 1.72-3.7 4.82-6.81 8.52-8.53.5-5.16-.75-10.21-1.91-15.2-.73-2.39-2.99-3.83-4.69-5.5-4.6-.19-9.68-.09-13.33 3.15m43.04 2.98c-6.7 4.84-9.5 13.53-16.82 17.7 3.38 5.16 4.02 11.43 3.59 17.45l-.91-.12c.04-7.24-.9-16.23-8.43-19.6-.93.34-2.8 1.01-3.73 1.34 2.7.4 5.5 1.44 7.03 3.85 3.95 5.65 3.95 12.88 5.11 19.44-.36-.94-1.08-2.81-1.43-3.75-.04 3.83-1.54 8.59-5.55 9.93-1.5.48-2.63-.65-3.72-1.46 2.17-.48 4.94-.2 6.13-2.52 3.4-5.42 2.34-12.56-.04-18.17-1.32-3.33-4.68-4.89-7.55-6.59-2.43 2.65-4.22 5.76-5.23 9.22 1.82.84 3.9 1.41 5.32 2.92 1.61 3.59 1.46 7.77-.08 11.37-3.06 1.29-6.21 2.34-9.38 3.32-.69 1.65-1.49 3.25-2.47 4.75 1.57 1 3.11 2.06 4.73 2.99.13.4.39 1.2.53 1.6 2.17-.91 4.42-1.61 6.62-2.44.68-1.86 1.44-3.8 3.43-4.62-.8 2.02-1.23 4.38-2.81 5.97-2.39 1.31-5.34 1.56-7.3 3.61-2.01 1.96-4.95 1.97-7.55 2.28.11-.5.34-1.5.46-2 2.23-.27 4.43-.72 6.61-1.22-2.09-2.07-4.48-3.82-6.96-5.4l.31 1.5c-3.94 1.28-7.28-1.51-9.29-4.61-4.19-.14-9.11-1.36-10.42-5.96 3.28 1.81 6.62 3.47 10.13 4.8-.68-1.9-2.44-4.19-1.07-6.21 1.34 2.52 1.53 5.69 3.52 7.91 1.49 2.01 4.5 3.32 6.77 1.76 3.65-3.07 4.58-8.21 4.25-12.75-.31-5.8-3.23-11.73-8.7-14.23-5.17 3.3-6.04 9.68-6.02 15.29-.41 1.43-.87 2.84-1.37 4.24-1.14-1.96-2.12-4.02-3.01-6.1-.46-.22-1.36-.65-1.81-.86-5 3.88-12.01 4.5-17.46 1.16 3.35-.57 6.78.87 10.04-.29 4.5-1.04 8.1-4.76 12.95-4.45.65-2.74 1.68-5.38 3.16-7.78-3.95.05-8 .45-11.85-.65-4.1-1.08-8.36-2.12-12.62-1.79-5.5.2-8.29 5.52-12.18 8.59 2.2 3.1 5.27 5.48 7.13 8.85 4.69 5.84 12.6 6.92 18.83 10.41 1.07 2.4 1.93 4.89 2.5 7.46.24-.03.73-.08.98-.1-.15 1.11-.29 2.22-.43 3.34 2.84 3.28 5.02 7.13 8.31 10l-.2-2.64c1.97 1.49 4.08 1.17 6.08.05.75.86 1.5 1.73 2.24 2.61-2.67.02-5.45-.5-8.02.42 3.02 4.53 2.43 9.96 3.16 15.06 3.6 3.52 8.83 2.81 13.38 3.49 6.53 1.76 13.46-.28 19.39-3.14-.42-2.54.3-5.82-2.22-7.45.4.08 1.2.25 1.6.34-.08-1.43-.24-4.28-.33-5.71l-2.12 2.36c-.97-.41-1.95-.82-2.92-1.22-2.73 2.56-6.64 1.85-9.86 3.3-2.04 1-3.41-1.35-4.82-2.4 3.99 1.47 7.82-.93 11.89-.59 2.24-1.94 1.63-5.28 2.21-7.9.69 2.06 1.3 4.15 1.67 6.3.67.12 2.02.35 2.7.46 1.95-3.17 4.54-6.43 4.19-10.39-.4-3.85-1.71-7.56-1.72-11.47-3.85.67-7.9 2.21-11.45-.28.19-.43.57-1.31.76-1.75 1.31.62 2.61 1.25 3.92 1.86 2.38-.56 5.02-1.82 7.32-.36 2.19-4.31 1.31-9.01.79-13.57-1.48-.08-2.94-.21-4.4-.38 2.33-1.78 5.18-2.24 8.04-2.28.85-2.19 2.23-4.23 2.55-6.59-.76-1.59-1.73-3.07-2.63-4.59-.86-.92-1.7-1.87-2.49-2.86l-1.92-2.34 1.23-.91c1-2.68 2.27-6.05 5.57-6.4 3.66-1.21 6.1 2.65 8.27 4.86-.06-.74-.19-2.23-.26-2.98l.36 1.15c2.03-.81 4.1-1.54 5.97-2.69.4.54.8 1.09 1.21 1.63-2.45 1.35-5.09 2.27-7.61 3.45 1.43 2.28 1.95 4.95 2.97 7.41 2.97-3.63 4.91-7.89 5.64-12.53l1.07 2.15c-.57-1.32-1.19-2.61-1.84-3.88 2.56-2.86 3.48-6.89 2.55-10.6-4.69 1.09-9.97-1.32-14.17 1.62M94.88 56.91c1.66 1.63 3.36 3.23 5.12 4.75.11-.79.32-2.38.43-3.18-1.86-.5-3.7-1.04-5.55-1.57m-17.17 10.9c.2 1.25 1.08 3.81 2.33 4.1.57-1.26.46-2.47-.33-3.63-.5-.12-1.5-.36-2-.47m9.38 53.81c-.06.57-.19 1.71-.25 2.28-1.45.14-2.35.87-2.72 2.19-1.83 3.92.84 7.93.57 11.97.64 5.32-1.84 10.21-2.42 15.41-.23 3.04-3.58 5.94-.93 8.74 1.11-1.77 1.83-3.9 3.71-5.04-.04 1.96.24 3.96-.11 5.9-1.99 4.47.88 9.32-.16 13.95-.6 2.37-1.58 4.62-2.22 6.98-2.25 7.16 1.51 14.23 2.82 21.21-2.63-2.19-2.92-5.86-4.35-8.78-1.7 3.76-3.07 7.69-3.84 11.75-1.33 9.24 4.65 17.71 3.67 26.96-.24 1.95-.79 3.86-.8 5.83 1.19 5.98 4.54 11.35 5.12 17.47 3.18 4.26 9.65 5.34 13.76 1.77-2.19-3.62-6.29-.25-9.46-1.79-1.02.08-2.04.17-3.06.25.34-.37 1.01-1.12 1.35-1.5 3.27-.37 6.6-.41 9.89-.62 1.1 1.05 1.77 2.45 2.62 3.7 1.18-.36 2.36-.74 3.54-1.13-2.29-4.56-6.47-7.77-8.63-12.4-1.64-3.2-4.09-6.05-4.88-9.64-1.86-7.25-1.97-15.28 1.19-22.18 2.19-4.29 1.42-9.21 1.3-13.82-3.4 4.65-2.73 10.5-4.11 15.78-2.83-6.08.68-12.87 3.58-18.28 2.49-6.3 3.69-13.2 7.44-18.95 2.24-4.03 2.68-8.73 3.41-13.19-4.33.86-9.03 2.6-13.33.7-1.65-.67-3.97-1.51-3.52-3.72 5.75 3.66 13.23 3.18 18.67-.79.51-2.38.14-5.06 1.31-7.22 2.14-1.07 4.48-1.58 6.82-1.98 1.31-2.39 2.73-4.75 4.65-6.73-.61 2.76-1.5 5.56-3.26 7.81-2.86 1.13-6.59 1.28-7.73 4.75 4.01.51 8.24 2.77 12.22.87 4.02-1.39 6.75-4.93 10.68-6.49-1.19-1.67-2.42-3.42-2.58-5.54-.65-4.97-2.96-9.5-4.99-14.02.78-2.52 1.29-5.15 1.06-7.8-1.14-1.09-2.25-2.2-3.35-3.33-5.94 1.66-12.1 4.47-18.35 2.59-4.95-.73-10.16-.71-14.33-3.92z"/><path d="M110.12 90.96c1.82-.55 3.32-1.74 5.01-2.56 1.23.63 2.22 1.61 3.26 2.49-1.24-.37-2.47-.77-3.69-1.2-.86.68-1.71 1.36-2.57 2.03.65 1.32 1.3 2.66 1.89 4.02 2.87.02 6.1.08 7.72 2.89-2.72-.58-5.45-1.05-8.21-1.31-1.68.9-3.47 1.54-5.31 1.99-.34.33-1.04.99-1.39 1.33-1.99.52-3.56 1.79-4.95 3.24-2.69-.48-5.18-1.74-5.86-4.61 1.83 1.03 3.58 2.2 5.44 3.2.74-.84 1.48-1.68 2.23-2.51 1.71-.67 3.27-1.63 4.58-2.93 1.33-.07 2.66-.15 3.99-.23.17-2.24-.18-4.48-2.14-5.84z"/><path d="M104.3 91.78c.78-2 2.57-2.58 4.57-2.49-2.01 1.69-3.84 3.58-4.89 6.03-1.09.4-2.18.81-3.26 1.21 1.21-1.57 2.39-3.16 3.58-4.75zM84.57 94.95c1.15-.45 2.31-.89 3.48-1.3a137.84 137.84 0 00-3.1 3.7c2.34.58 4.74.63 7-.25.27.5.8 1.51 1.06 2.01-2.97.71-6 .79-8.69-.89.18-.36.53-1.1.7-1.46-.11-.45-.34-1.36-.45-1.81zM94.16 106.28c2.22-.28 4.45-.49 6.68-.71-.6.93-1.21 1.85-1.81 2.78-1.83-.2-3.64-.58-4.87-2.07zM88.78 107.11c2.77 1.34 5.41 2.95 7.86 4.82-3.35.75-7.66-.96-7.86-4.82zM101.19 112.85c1.61-.35 2.21.28 1.8 1.9-1.61.34-2.21-.3-1.8-1.9zM111.81 118.28c.07-2.27 1.43-3.86 3.49-4.67-.84 1.78-2.02 3.37-3.49 4.67zM100.62 115.42c2.32 2.47 4.72 4.85 7.24 7.12-4.02.53-6.92-3.51-7.24-7.12zM88.89 135.13c-2.87-2.9.32-6.52 1.51-9.45 4.48 1.16 8.91 2.96 13.62 2.81 5.73.18 11.2-1.75 16.61-3.35-1.3 1.21-2.52 2.67-4.33 3.1-5.77 2.18-12.07 2.59-18.13 1.64-1.37 5.31-6.74 8.4-11.85 9.15 3.58-3.17 8.69-4.78 10.49-9.66-1.83-.78-3.72-1.43-5.6-2.09-1.2 2.47-1.99 5.11-2.32 7.85zM106.5 134.73c4.19-1.01 8.46-1.78 12.78-1.96.03 1.08.08 2.17.14 3.25-5.75 2.06-11.26 4.7-16.79 7.26 3.64-4.69 9.83-5.85 14.91-8.32-6.59-.65-12.72 2.66-19.18 3.46 2.14-2.27 5.26-2.89 8.14-3.69zM96.76 145.05c8.47-1.39 17.2-1.31 25.43-3.95-2.67 3.5-7.24 3.69-11.26 3.95-4.77-.01-9.41 1.46-14.2 1.16l.03-1.16zM87.48 179.93c2.56-.09 5.01-.76 7.32-1.84.61 1.86 1.22 3.73 1.69 5.64-.81-1.05-1.58-2.12-2.33-3.21-1.68.48-3.36.91-5.06 1.3-.72 1.18-1.45 2.35-2.19 3.52.16-1.81.36-3.61.57-5.41zM88.66 189.16c1.67.04 3.35.14 5 .44-1.01 2.37-4.21 1.68-5-.44zM122.74 230.31c.44-1.56.92-3.11 1.43-4.64.39 2.96.88 5.9 1.41 8.84-1-1.37-1.93-2.78-2.84-4.2zM82.55 242.93c1.06-3.29 2.17-7.33 5.71-8.74-1.51 3.15-2.71 6.65-5.71 8.74z"/></g></svg>