<svg width="268" height="275pt" viewBox="0 0 201 275" xmlns="http://www.w3.org/2000/svg"><g fill="#FFF"><path d="M0 0h201v275H0V0m46.55 18.74c-8.68 1.25-17.08 5.16-22.85 11.91-8.06 8.88-10.86 21.98-7.44 33.44 1.21 6.53 6.08 11.41 10.71 15.79 8.93 7.95 22.13 10.27 33.42 6.63 8.01-2.58 14.87-8.23 19.02-15.54 4.25 1.24 7.13 4.91 11.34 6.19 3.09.95 5.26 3.61 8.34 4.6 4.58 1.64 9.53 1.24 14.31 1.24 1.87 4.08 2.88 8.55 5.31 12.38 1.82 2.87 3.97 5.52 6.04 8.22-.11 4.82.44 9.63.59 14.44.16 3.43-.65 7.11 1.44 10.14-.74 2.05-1.72 3.99-2.72 5.93-1.8 3.8-.89 8.11-.83 12.15-1.85 3.58-3.06 7.44-4.48 11.2-1.09 2.88-.29 6.26-2.23 8.84 1.15.46 2.31.91 3.47 1.37-2.64 7.04-.62 14.36.81 21.39-.88 3.61-.4 7.22-.24 10.87-2.33 7.57-.62 15.47.02 23.15.64 4.16 1.69 8.39.34 12.54-3.54 1.18-6.9 2.84-9.85 5.13l.01-.85-.68 3.15c3.24-2.77 7.07-4.64 11.09-5.99 2.52-4.87 1.86-10.41.8-15.55-.16-6.56-2.69-13.24-.57-19.71 1.02-3.45-.55-7.06.61-10.51 1.29-3.85-.8-7.59-1.39-11.36-1.01-3.91-.18-7.92-.16-11.88 5.57 3.11 12.19 3.96 18.33 2.15-1.66 4.54-3.39 9.07-4.82 13.7-1.7 10.4 2.91 20.57 1.93 31-.33 5.28-2.72 10.14-3.53 15.33-.51 9.2.95 18.49-.6 27.63-5.21 2.53-10.41-.55-14.68-3.45-3.71-2.71-8.74-1.63-12.59-4-1.44-.8-2.73-1.84-4.06-2.79.86-1.08 1.67-2.19 2.62-3.19 2.01-2.3 5.57-2.41 7.39-4.92-4.28.65-10.33 2.37-10.84 7.47-.58 2.63 2.6 3.56 4.22 4.9 3.2 2.35 7.47 1.94 10.79 3.99 3.24 1.83 6.47 3.86 10.13 4.74 3.08.7 6.16-.61 8.81-2.09.71-4.57 1.6-9.22.21-13.76.67-5.13-.53-10.36.48-15.44 2.13-7.24 4.51-14.71 3.39-22.34-1.75-7.88-2.69-16.14-1.56-24.16 2.15-4.81 2.63-10.43 5.82-14.7 1.05.27 3.13.8 4.17 1.07.12 5.94 3.68 10.91 5.91 16.18.73 4.71 3.91 8.72 4.03 13.56.05 5.59.91 11.28 3.47 16.3 2.1 4.12 3.03 8.68 4.34 13.08-2.73 1.52-5.46 3.03-8.11 4.69.12-.52.34-1.58.46-2.11-2.64.53-5.28 1.2-7.57 2.68v3.77c3.1 2.32 6.3 4.58 10.06 5.68 2.45 1.65 3.71 4.62 5.37 7.02 2.14.7 4.26 2.02 6.58 1.78 3-1.01 4.37-4.09 5.27-6.86 1.47-6.1-2.51-11.8-1.97-17.91-.61-8.35 1.56-16.78-.44-25.04-.76-4.61-4.18-8.13-5.5-12.55-.87-2.88-2.33-5.58-2.8-8.58-.71-3.6-.16-7.31-.75-10.92-.36-.39-1.08-1.18-1.44-1.57.49 5.82-.75 12.03 1.88 17.48 1.68 3.83 3.06 7.78 4.77 11.6 3.02 6.17 3.98 13.3 2.91 20.08-.56 7.88.2 15.79 1.38 23.59.63 3.39-1.03 7.52-4.35 8.83-5.19-.19-5.27-7.54-9.88-8.8-2.04-.41-3.94-1.21-5.44-2.69-1.44-.63-2.86-1.32-4.26-2.04.31-3.84 4.2-3.38 6.99-2.94 2.41-.86 4.69-2.03 6.91-3.29.05.91.16 2.73.21 3.64.42-.22 1.26-.67 1.68-.89-.32-7.11-2.41-14.07-5.42-20.49-2.93-5.94-3.33-12.98-2.1-19.39.74 1.56 1.53 3.1 2.39 4.61-.24-4.72-1.85-9.39-.69-14.12-.43-.01-1.3-.04-1.73-.06-.55 3.01-.59 6.08.04 9.09-.6-.19-1.79-.56-2.39-.75-1.91-3.24-1.96-7.14-3.84-10.37-1.84-3.65-3.1-7.55-4.39-11.41 4.16.05 8.49-.07 12.35-1.83 2.13-1.27 3.85-3.09 5.77-4.63-.68-4.53-1.97-8.99-2.06-13.59-.18-2.65 1.37-4.98 1.59-7.58.95-3.29 2.34-6.47 4.66-9.04 4.61-5.4 6.47-12.42 7.88-19.23.89-4.66-.73-9.36-.07-14.05.46-3.97-.18-8-1.72-11.67-2.03-4.7-1.09-10.31-4.07-14.64-3.32-3.94-8.87-4.24-12.79-7.32-2.39-1.95-7.49-1.61-7.45-5.52-1.53-4.84 3.31-8.23 3.65-12.83 1.66-5.1-.75-10.35-3.94-14.29-4.71-1-9.66-1.36-14.37-.17-4.33 1.09-6.76 5.39-8.26 9.26-1.27 6.22-1.84 12.77-.22 18.98.47.18 1.42.55 1.89.73-1.07-7.27-1.75-15.29 1.6-22.06 3.05-6.6 11.59-5.78 17.59-5.27 2.79 2.83 4.45 6.79 4 10.79-.38 3.83-2.79 6.99-4.85 10.08.85 2.8 1.39 5.69 2.34 8.45 3.18 1.95 7.07 2.56 9.96 5.04 2.92 2.61 7.47 2.61 9.92 5.87 1.71 2.83 2.32 6.15 2.4 9.42.04 2.88 1.76 5.33 2.41 8.07 1.28 4.62-.74 9.33-.1 13.99.23 2.28 1.13 4.6.37 6.87-1.12 4.02-1.98 8.14-3.52 12.02-1.72 4.42-5.66 7.53-7.2 12.04-.22-3.47-1.18-6.86-2.88-9.89 4.96-5.48 3.13-13.28 5.77-19.72-.7-3.76-2.44-7.5-1.69-11.4 1.05-3.7 2.28-7.35 3.32-11.06.35-1.87-1.48-3.18-2.31-4.63-1.94 3.21-4.7 5.72-7.49 8.16 1.21-.1 2.43-.22 3.65-.35 1.26-1.69 2.46-3.43 3.56-5.23.29.28.87.85 1.16 1.13-1.12 3.53-1.64 7.27-3.16 10.66-2.11 3.71-5.87 6.49-6.94 10.77-.87 5.32-.98 10.83-2.14 16.07-2.88 2.87-6.73 4.5-10.66 5.32-3.38-.09-6.73.63-10.11.67-2.93-.5-5.83-1.21-8.72-1.91.06-7.3-.02-14.6-.91-21.86 4.64 3.33 4.51 9.98 8.97 13.3-1.24-4.21-3.01-8.28-5-12.18-5.03-4.53-8.63-10.34-12.32-15.96 3.06 1.78 6.51 3.32 10.15 2.71-1.23-2.12-3.85-2.17-5.87-2.99-3.24-.93-5.41-3.68-7.25-6.33 1.6-.4 3.21-.78 4.81-1.16-.57-.92-1.14-1.83-1.68-2.76-2.22-1.63-4.41-3.3-6.71-4.8.16.57.49 1.71.65 2.28 1.71 1.51 3.49 2.92 5.39 4.18-6.18-.51-13.01 1.66-18.62-1.88-4.52-2.68-9.68-4.46-13.47-8.22-2.56-.52-5.13-1.27-7.12-3.03-2.85-2.49-7.14-2.38-9.71-5.24-4.35-4.25-8.39-8.84-13.26-12.52-2.26-2.14-5.68-3.46-6.57-6.7-.84-3.28-2-6.44-3.26-9.57-1.08-2.54-.01-5.21.99-7.57.76-.18 2.26-.52 3.01-.7 1.72 2.03 3.27 4.35 5.78 5.48 3.29 1.26 4.46 4.85 6.29 7.56-.3 2.39-2.07 5.74.81 7.26 4.64 4.56 11.79 2.8 17.16 5.84 3.56 1.76 6.45 4.54 8.91 7.61 5.71.65 11.77 2.02 16.26 5.82-1.75 3.22 1.62 5.73 4.57 5.93-1.01-1.07-2.07-2.09-3.14-3.1l.04-2.49c4.13-1.39 8.26-3.43 12.74-2.01.78-.46 1.55-.93 2.32-1.42-5.19-1.61-10.54-.47-15.19 2.08-4.37-4.3-10.56-5.38-16.31-6.57-2.19-1.27-3.73-3.47-5.24-5.45-1.45-9.8-4.04-20.74-12.62-26.81-7.73-4.01-16.32-6.91-25.14-6.54m8.52 28.53c.93 1.28 1.86 2.56 2.83 3.81 1.11-.02 3.34-.07 4.45-.09-2.36-1.38-4.89-2.41-7.28-3.72m11.79 4.97c1.64 2.1 4.07 3.24 6.25 4.66 2.72 2.96 3.65 7.5 7.28 9.61 4.71 1.43 9.73 1.64 14.35 3.47.36 2.33.54 5.17 3.06 6.24 3.96 1.68 9.23.11 11.51-3.62-3.66.72-7.17 3.33-11.01 1.96-.94-1.59-1.07-3.48-1.42-5.25-3.2-1.44-6.52-2.99-10.12-2.55-2.3.49-3.77-1.74-5.88-2.17-1.86-2.92-3.02-6.39-5.63-8.76-2.63-1.53-5.44-2.83-8.39-3.59m71.83 5.72c-.58 1.67-1.19 3.33-1.84 4.98-3.21.56-6.29 1.62-9.26 2.92-1.73-1.08-3.42-2.2-5.09-3.33-.87.42-1.73.86-2.58 1.3 2.65 1.24 5.11 3.25 8.1 3.61 3.24-.91 6.48-1.84 9.73-2.71 2.05-1.6 2.24-4.44 2.8-6.79-.47 0-1.4.01-1.86.02m9.06 19.17c.64 6.57 1.26 13.24.43 19.82-.3 3.69-2.65 6.68-4.21 9.9 3.5-1.43 4.86-5.41 5.96-8.73 2.01-5.94.5-12.14.03-18.19-.88-7.07-5.97-12.84-6.2-20.08-3.52 5.99 2.84 11.55 3.99 17.28m-28.83-4.78c2.7-.72 3.46-3.43 4.36-5.67-2.51.85-4.06 3.06-4.36 5.67m.52.33c1.49 1.24 3.06 2.39 4.65 3.51l2.89-.84c-2.35-1.31-4.76-2.67-7.54-2.67m10.34 2.49c2.15 2.81 6.03 2.62 9.19 3.03.45 1.19 2 2.24 1.41 3.63-1.17 3.68-2.34 8.98-7 9.39-2.08-3.77-4.55-7.4-8.52-9.39 1.6 3.09 3.85 5.79 5.65 8.77 1.18 2.02 3.55 2.45 5.66 2.76 4.56-3.78 6.5-10.59 3.6-15.94-3.26-1.02-6.63-1.7-9.99-2.25m25.21 7.42c1.96 5.38.35 10.93-.21 16.36 3.78-4.8 2.86-11.21 2.04-16.81 2.22-2.17 4.37-4.44 5.94-7.14-3.44 1.48-5.92 4.42-7.77 7.59m-4.07 20.04c3.01 3.98 3.08 8.89 3.96 13.6 1.74-2.75.86-5.9-.16-8.74.94-2.58-2.2-3.64-3.8-4.86m-2.37 21.59c.72-5.7.73-11.49.3-17.21-2.49 5.33-2.49 11.78-.3 17.21m-9.57-10.25c-.57 3.22-2.91 8.01.53 10.27-.11-3.64.08-7.29 1.09-10.82-.4.14-1.22.42-1.62.55m-12.61 84.43c1.89-4.1 1.51-8.6 1.49-12.99-2.93 3.71-2.11 8.67-1.49 12.99m5.75-2.92c1.36.16 1.75-2.15.86-2.89-1.37-.17-1.79 2.15-.86 2.89m-5.67 30.66c-.01-4.8-2.19-9.32-1.94-14.13.08-2.06.09-4.12-.16-6.16-2.15 6.66-.85 14.07 2.1 20.29m40.15-15.92c-1.31.3-2.69 1.15-3.22 2.43.62 2.23 5.4-1.43 3.22-2.43m1.16 26.49c-.02.57-.08 1.69-.11 2.26-1.28 1.05-2.57 2.11-3.8 3.22 1.75-.62 3.66-1.03 5.14-2.22.69-1.19.31-2.69.53-3.99-.44.18-1.32.55-1.76.73m-42.23 11.52c-1.07.58-4.3.34-2.81 2.2 2.84.9 4.89-1.82 5.71-4.18-.99.64-1.95 1.3-2.9 1.98z"/><path d="M25.74 31.74c5.65-6.73 14.41-10.83 23.21-10.79 9.68-.29 19.44 4.11 25.7 11.48 4.34 4.92 6.28 11.39 6.97 17.79-4.41-1.38-8.96-2.21-13.51-2.96-2.07-.3-4.24-1.27-5.42-3.05-.01-2.03.38-4.04.2-6.07-1.08-2.45-2.59-4.69-3.87-7.04-3.08-1.15-5.97-2.75-7.62-5.72-1.44-2.45-4.3-.67-6.37-.24-.98 2.84-2.75 6.09-1 9 2.41 3.83 1.84 8.78 4.63 12.39 2.75 2.85 6.3 4.8 8.95 7.78 4.1 3.86 7.17 9.12 12.48 11.47 3 .98 5.48 2.9 7.77 5.01-4.93 7.43-12.53 13.14-21.36 14.89-6.89 1.9-14.24.56-20.69-2.22-9.85-4.14-17.01-13.79-18.49-24.33-1.13-9.75 1.82-20.05 8.42-27.39zM158.91 112c.32-4.61 3.26-8.36 5.75-12.03.76 2.81 1.55 5.6 2.46 8.36-3.11 5.79-1.97 12.81-5.35 18.47-.98-.89-2.61-1.25-2.95-2.7-.57-4.01-.2-8.08.09-12.1zM146.56 129.43c4.24-.44 8.15-2.5 11.22-5.4.47 2.86 2.95 4.5 4.38 6.83 2.26 3.57 1.69 7.96 2.29 11.97-4.7 6.19-.9 13.62.13 20.32-2.13 3.79-6.66 4.89-10.59 5.76-3.9.1-7.56-1.86-11.5-1.78.24-2.33.44-4.67.26-7.01-1.31 2.46-1.59 5.27-1.97 8-3.38 1.19-6.96 2.38-10.59 1.72-4.24-.98-8.23-2.8-12.02-4.88 2.14-6.34 3.41-13.17 7.32-18.75-.31-3.45-.88-6.99-.14-10.41.42-1.94 2.35-2.88 3.67-4.15-.27-.81-.79-2.45-1.05-3.26 6 2.21 12.37 1.37 18.59 1.04m-7.19 3.36c4.4 4.11 10.49.24 15.45.37.01.19.01.57.02.76-4.44 1.8-8.96 3.49-13.09 5.92 4.79-.44 9.21-2.44 13.5-4.48.42-1.17.85-2.35 1.28-3.52l-2.04-1.32c-4.84 1.88-9.93 2.82-15.12 2.27m11.17 6.68c2.88.19 6.54.65 8.24-2.32-2.76.72-5.55 1.37-8.24 2.32m-18.36 4c-.3 1.52 2.09 3.08 3.44 2.53.23-1.5-2.07-3.01-3.44-2.53m1.81 3.95c-.26 1.37.3 1.87 1.69 1.48.26-1.38-.3-1.87-1.69-1.48m10.07 10.99l-.48 1.97c3.46-1.96 7.53-4.42 7.64-8.92-2.57 2.13-4.57 4.84-7.16 6.95z"/></g><g fill="#333"><path d="M46.55 18.74c8.82-.37 17.41 2.53 25.14 6.54 8.58 6.07 11.17 17.01 12.62 26.81 1.51 1.98 3.05 4.18 5.24 5.45 5.75 1.19 11.94 2.27 16.31 6.57 4.65-2.55 10-3.69 15.19-2.08-.77.49-1.54.96-2.32 1.42-4.48-1.42-8.61.62-12.74 2.01l-.04 2.49c1.07 1.01 2.13 2.03 3.14 3.1-2.95-.2-6.32-2.71-4.57-5.93-4.49-3.8-10.55-5.17-16.26-5.82-2.46-3.07-5.35-5.85-8.91-7.61-5.37-3.04-12.52-1.28-17.16-5.84-2.88-1.52-1.11-4.87-.81-7.26-1.83-2.71-3-6.3-6.29-7.56-2.51-1.13-4.06-3.45-5.78-5.48-.75.18-2.25.52-3.01.7-1 2.36-2.07 5.03-.99 7.57 1.26 3.13 2.42 6.29 3.26 9.57.89 3.24 4.31 4.56 6.57 6.7 4.87 3.68 8.91 8.27 13.26 12.52 2.57 2.86 6.86 2.75 9.71 5.24 1.99 1.76 4.56 2.51 7.12 3.03 3.79 3.76 8.95 5.54 13.47 8.22 5.61 3.54 12.44 1.37 18.62 1.88-1.9-1.26-3.68-2.67-5.39-4.18-.16-.57-.49-1.71-.65-2.28 2.3 1.5 4.49 3.17 6.71 4.8.54.93 1.11 1.84 1.68 2.76-1.6.38-3.21.76-4.81 1.16 1.84 2.65 4.01 5.4 7.25 6.33 2.02.82 4.64.87 5.87 2.99-3.64.61-7.09-.93-10.15-2.71 3.69 5.62 7.29 11.43 12.32 15.96 1.99 3.9 3.76 7.97 5 12.18-4.46-3.32-4.33-9.97-8.97-13.3.89 7.26.97 14.56.91 21.86 2.89.7 5.79 1.41 8.72 1.91 3.38-.04 6.73-.76 10.11-.67 3.93-.82 7.78-2.45 10.66-5.32 1.16-5.24 1.27-10.75 2.14-16.07 1.07-4.28 4.83-7.06 6.94-10.77 1.52-3.39 2.04-7.13 3.16-10.66-.29-.28-.87-.85-1.16-1.13-1.1 1.8-2.3 3.54-3.56 5.23-1.22.13-2.44.25-3.65.35 2.79-2.44 5.55-4.95 7.49-8.16.83 1.45 2.66 2.76 2.31 4.63-1.04 3.71-2.27 7.36-3.32 11.06-.75 3.9.99 7.64 1.69 11.4-2.64 6.44-.81 14.24-5.77 19.72 1.7 3.03 2.66 6.42 2.88 9.89 1.54-4.51 5.48-7.62 7.2-12.04 1.54-3.88 2.4-8 3.52-12.02.76-2.27-.14-4.59-.37-6.87-.64-4.66 1.38-9.37.1-13.99-.65-2.74-2.37-5.19-2.41-8.07-.08-3.27-.69-6.59-2.4-9.42-2.45-3.26-7-3.26-9.92-5.87-2.89-2.48-6.78-3.09-9.96-5.04-.95-2.76-1.49-5.65-2.34-8.45 2.06-3.09 4.47-6.25 4.85-10.08.45-4-1.21-7.96-4-10.79-6-.51-14.54-1.33-17.59 5.27-3.35 6.77-2.67 14.79-1.6 22.06-.47-.18-1.42-.55-1.89-.73-1.62-6.21-1.05-12.76.22-18.98 1.5-3.87 3.93-8.17 8.26-9.26 4.71-1.19 9.66-.83 14.37.17 3.19 3.94 5.6 9.19 3.94 14.29-.34 4.6-5.18 7.99-3.65 12.83-.04 3.91 5.06 3.57 7.45 5.52 3.92 3.08 9.47 3.38 12.79 7.32 2.98 4.33 2.04 9.94 4.07 14.64 1.54 3.67 2.18 7.7 1.72 11.67-.66 4.69.96 9.39.07 14.05-1.41 6.81-3.27 13.83-7.88 19.23-2.32 2.57-3.71 5.75-4.66 9.04-.22 2.6-1.77 4.93-1.59 7.58.09 4.6 1.38 9.06 2.06 13.59-1.92 1.54-3.64 3.36-5.77 4.63-3.86 1.76-8.19 1.88-12.35 1.83 1.29 3.86 2.55 7.76 4.39 11.41 1.88 3.23 1.93 7.13 3.84 10.37.6.19 1.79.56 2.39.75-.63-3.01-.59-6.08-.04-9.09.43.02 1.3.05 1.73.06-1.16 4.73.45 9.4.69 14.12-.86-1.51-1.65-3.05-2.39-4.61-1.23 6.41-.83 13.45 2.1 19.39 3.01 6.42 5.1 13.38 5.42 20.49-.42.22-1.26.67-1.68.89-.05-.91-.16-2.73-.21-3.64-2.22 1.26-4.5 2.43-6.91 3.29-2.79-.44-6.68-.9-6.99 2.94 1.4.72 2.82 1.41 4.26 2.04 1.5 1.48 3.4 2.28 5.44 2.69 4.61 1.26 4.69 8.61 9.88 8.8 3.32-1.31 4.98-5.44 4.35-8.83-1.18-7.8-1.94-15.71-1.38-23.59 1.07-6.78.11-13.91-2.91-20.08-1.71-3.82-3.09-7.77-4.77-11.6-2.63-5.45-1.39-11.66-1.88-17.48.36.39 1.08 1.18 1.44 1.57.59 3.61.04 7.32.75 10.92.47 3 1.93 5.7 2.8 8.58 1.32 4.42 4.74 7.94 5.5 12.55 2 8.26-.17 16.69.44 25.04-.54 6.11 3.44 11.81 1.97 17.91-.9 2.77-2.27 5.85-5.27 6.86-2.32.24-4.44-1.08-6.58-1.78-1.66-2.4-2.92-5.37-5.37-7.02-3.76-1.1-6.96-3.36-10.06-5.68v-3.77c2.29-1.48 4.93-2.15 7.57-2.68-.12.53-.34 1.59-.46 2.11 2.65-1.66 5.38-3.17 8.11-4.69-1.31-4.4-2.24-8.96-4.34-13.08-2.56-5.02-3.42-10.71-3.47-16.3-.12-4.84-3.3-8.85-4.03-13.56-2.23-5.27-5.79-10.24-5.91-16.18-1.04-.27-3.12-.8-4.17-1.07-3.19 4.27-3.67 9.89-5.82 14.7-1.13 8.02-.19 16.28 1.56 24.16 1.12 7.63-1.26 15.1-3.39 22.34-1.01 5.08.19 10.31-.48 15.44 1.39 4.54.5 9.19-.21 13.76-2.65 1.48-5.73 2.79-8.81 2.09-3.66-.88-6.89-2.91-10.13-4.74-3.32-2.05-7.59-1.64-10.79-3.99-1.62-1.34-4.8-2.27-4.22-4.9.51-5.1 6.56-6.82 10.84-7.47-1.82 2.51-5.38 2.62-7.39 4.92-.95 1-1.76 2.11-2.62 3.19 1.33.95 2.62 1.99 4.06 2.79 3.85 2.37 8.88 1.29 12.59 4 4.27 2.9 9.47 5.98 14.68 3.45 1.55-9.14.09-18.43.6-27.63.81-5.19 3.2-10.05 3.53-15.33.98-10.43-3.63-20.6-1.93-31 1.43-4.63 3.16-9.16 4.82-13.7-6.14 1.81-12.76.96-18.33-2.15-.02 3.96-.85 7.97.16 11.88.59 3.77 2.68 7.51 1.39 11.36-1.16 3.45.41 7.06-.61 10.51-2.12 6.47.41 13.15.57 19.71 1.06 5.14 1.72 10.68-.8 15.55-4.02 1.35-7.85 3.22-11.09 5.99l.68-3.15-.01.85c2.95-2.29 6.31-3.95 9.85-5.13 1.35-4.15.3-8.38-.34-12.54-.64-7.68-2.35-15.58-.02-23.15-.16-3.65-.64-7.26.24-10.87-1.43-7.03-3.45-14.35-.81-21.39-1.16-.46-2.32-.91-3.47-1.37 1.94-2.58 1.14-5.96 2.23-8.84 1.42-3.76 2.63-7.62 4.48-11.2-.06-4.04-.97-8.35.83-12.15 1-1.94 1.98-3.88 2.72-5.93-2.09-3.03-1.28-6.71-1.44-10.14-.15-4.81-.7-9.62-.59-14.44-2.07-2.7-4.22-5.35-6.04-8.22-2.43-3.83-3.44-8.3-5.31-12.38-4.78 0-9.73.4-14.31-1.24-3.08-.99-5.25-3.65-8.34-4.6-4.21-1.28-7.09-4.95-11.34-6.19-4.15 7.31-11.01 12.96-19.02 15.54-11.29 3.64-24.49 1.32-33.42-6.63-4.63-4.38-9.5-9.26-10.71-15.79-3.42-11.46-.62-24.56 7.44-33.44 5.77-6.75 14.17-10.66 22.85-11.91m-20.81 13c-6.6 7.34-9.55 17.64-8.42 27.39 1.48 10.54 8.64 20.19 18.49 24.33 6.45 2.78 13.8 4.12 20.69 2.22 8.83-1.75 16.43-7.46 21.36-14.89-2.29-2.11-4.77-4.03-7.77-5.01-5.31-2.35-8.38-7.61-12.48-11.47-2.65-2.98-6.2-4.93-8.95-7.78-2.79-3.61-2.22-8.56-4.63-12.39-1.75-2.91.02-6.16 1-9 2.07-.43 4.93-2.21 6.37.24 1.65 2.97 4.54 4.57 7.62 5.72 1.28 2.35 2.79 4.59 3.87 7.04.18 2.03-.21 4.04-.2 6.07 1.18 1.78 3.35 2.75 5.42 3.05 4.55.75 9.1 1.58 13.51 2.96-.69-6.4-2.63-12.87-6.97-17.79-6.26-7.37-16.02-11.77-25.7-11.48-8.8-.04-17.56 4.06-23.21 10.79M158.91 112c-.29 4.02-.66 8.09-.09 12.1.34 1.45 1.97 1.81 2.95 2.7 3.38-5.66 2.24-12.68 5.35-18.47-.91-2.76-1.7-5.55-2.46-8.36-2.49 3.67-5.43 7.42-5.75 12.03m-12.35 17.43c-6.22.33-12.59 1.17-18.59-1.04.26.81.78 2.45 1.05 3.26-1.32 1.27-3.25 2.21-3.67 4.15-.74 3.42-.17 6.96.14 10.41-3.91 5.58-5.18 12.41-7.32 18.75 3.79 2.08 7.78 3.9 12.02 4.88 3.63.66 7.21-.53 10.59-1.72.38-2.73.66-5.54 1.97-8 .18 2.34-.02 4.68-.26 7.01 3.94-.08 7.6 1.88 11.5 1.78 3.93-.87 8.46-1.97 10.59-5.76-1.03-6.7-4.83-14.13-.13-20.32-.6-4.01-.03-8.4-2.29-11.97-1.43-2.33-3.91-3.97-4.38-6.83-3.07 2.9-6.98 4.96-11.22 5.4z"/><path d="M55.07 47.27c2.39 1.31 4.92 2.34 7.28 3.72-1.11.02-3.34.07-4.45.09-.97-1.25-1.9-2.53-2.83-3.81zM66.86 52.24c2.95.76 5.76 2.06 8.39 3.59 2.61 2.37 3.77 5.84 5.63 8.76 2.11.43 3.58 2.66 5.88 2.17 3.6-.44 6.92 1.11 10.12 2.55.35 1.77.48 3.66 1.42 5.25 3.84 1.37 7.35-1.24 11.01-1.96-2.28 3.73-7.55 5.3-11.51 3.62-2.52-1.07-2.7-3.91-3.06-6.24-4.62-1.83-9.64-2.04-14.35-3.47-3.63-2.11-4.56-6.65-7.28-9.61-2.18-1.42-4.61-2.56-6.25-4.66zM138.69 57.96c.46-.01 1.39-.02 1.86-.02-.56 2.35-.75 5.19-2.8 6.79-3.25.87-6.49 1.8-9.73 2.71-2.99-.36-5.45-2.37-8.1-3.61.85-.44 1.71-.88 2.58-1.3 1.67 1.13 3.36 2.25 5.09 3.33 2.97-1.3 6.05-2.36 9.26-2.92.65-1.65 1.26-3.31 1.84-4.98zM147.75 77.13c-1.15-5.73-7.51-11.29-3.99-17.28.23 7.24 5.32 13.01 6.2 20.08.47 6.05 1.98 12.25-.03 18.19-1.1 3.32-2.46 7.3-5.96 8.73 1.56-3.22 3.91-6.21 4.21-9.9.83-6.58.21-13.25-.43-19.82zM118.92 72.35c.3-2.61 1.85-4.82 4.36-5.67-.9 2.24-1.66 4.95-4.36 5.67zM119.44 72.68c2.78 0 5.19 1.36 7.54 2.67l-2.89.84c-1.59-1.12-3.16-2.27-4.65-3.51zM129.78 75.17c3.36.55 6.73 1.23 9.99 2.25 2.9 5.35.96 12.16-3.6 15.94-2.11-.31-4.48-.74-5.66-2.76-1.8-2.98-4.05-5.68-5.65-8.77 3.97 1.99 6.44 5.62 8.52 9.39 4.66-.41 5.83-5.71 7-9.39.59-1.39-.96-2.44-1.41-3.63-3.16-.41-7.04-.22-9.19-3.03zM154.99 82.59c1.85-3.17 4.33-6.11 7.77-7.59-1.57 2.7-3.72 4.97-5.94 7.14.82 5.6 1.74 12.01-2.04 16.81.56-5.43 2.17-10.98.21-16.36zM150.92 102.63c1.6 1.22 4.74 2.28 3.8 4.86 1.02 2.84 1.9 5.99.16 8.74-.88-4.71-.95-9.62-3.96-13.6zM148.55 124.22c-2.19-5.43-2.19-11.88.3-17.21.43 5.72.42 11.51-.3 17.21zM138.98 113.97c.4-.13 1.22-.41 1.62-.55-1.01 3.53-1.2 7.18-1.09 10.82-3.44-2.26-1.1-7.05-.53-10.27zM139.37 132.79c5.19.55 10.28-.39 15.12-2.27l2.04 1.32c-.43 1.17-.86 2.35-1.28 3.52-4.29 2.04-8.71 4.04-13.5 4.48 4.13-2.43 8.65-4.12 13.09-5.92-.01-.19-.01-.57-.02-.76-4.96-.13-11.05 3.74-15.45-.37zM150.54 139.47c2.69-.95 5.48-1.6 8.24-2.32-1.7 2.97-5.36 2.51-8.24 2.32zM132.18 143.47c1.37-.48 3.67 1.03 3.44 2.53-1.35.55-3.74-1.01-3.44-2.53zM133.99 147.42c1.39-.39 1.95.1 1.69 1.48-1.39.39-1.95-.11-1.69-1.48zM144.06 158.41c2.59-2.11 4.59-4.82 7.16-6.95-.11 4.5-4.18 6.96-7.64 8.92l.48-1.97zM126.37 198.4c-.62-4.32-1.44-9.28 1.49-12.99.02 4.39.4 8.89-1.49 12.99zM132.12 195.48c-.93-.74-.51-3.06.86-2.89.89.74.5 3.05-.86 2.89zM126.45 226.14c-2.95-6.22-4.25-13.63-2.1-20.29.25 2.04.24 4.1.16 6.16-.25 4.81 1.93 9.33 1.94 14.13zM166.6 210.22c2.18 1-2.6 4.66-3.22 2.43.53-1.28 1.91-2.13 3.22-2.43zM167.76 236.71c.44-.18 1.32-.55 1.76-.73-.22 1.3.16 2.8-.53 3.99-1.48 1.19-3.39 1.6-5.14 2.22 1.23-1.11 2.52-2.17 3.8-3.22.03-.57.09-1.69.11-2.26zM125.53 248.23c.95-.68 1.91-1.34 2.9-1.98-.82 2.36-2.87 5.08-5.71 4.18-1.49-1.86 1.74-1.62 2.81-2.2z"/></g></svg>