<svg width="230pt" height="200pt" viewBox="0 0 230 200" xmlns="http://www.w3.org/2000/svg"><g fill="#FFF"><path d="M0 0h230v200H0V0m203.77 103.93c-.53 3.16-4.06 3.75-6.69 4.17 4.53 2 9.17 4.02 13 7.23.02.91.04 1.83.05 2.75-2.25.81-4.15 2.27-6 3.74a30.996 30.996 0 00-4.79-2.79c1.25 1.5 2.79 2.7 4.4 3.8-.89 1.09-1.71 2.25-2.69 3.26-2.91.89-5.94 1.36-8.72 2.63.27-.66.82-1.97 1.09-2.62-1.97-3.89-5.77-6.3-9.77-7.7 2.73 2.94 5.85 5.55 7.97 9.01l.56-1.31c-.06 1.28-.13 2.56-.2 3.84l-.13-1.27c-3.87 1.44-7.29 3.78-10.96 5.58-4.71.17-9.43.67-13.73 2.75-1.3-3.88-3.76-7.19-5.81-10.68 4.11-.67 8.24-.23 12.26.71-.14-.74-.4-2.21-.53-2.95 1.75.48 3.5 1.07 5.3 1.39.07-.7.23-2.11.3-2.81.36-.34 1.09-1.03 1.45-1.38-2.99.93-6.04 1.64-9.11 2.25-3.59.31-7.4-.04-10.57 2.03-3.56-2.27-6.36-5.44-9.02-8.67 3.41-1.25 7.68-.98 10.32-3.82 3.69-4.23 9.86-6.26 15.33-5.02-2.17 1.35-4.48 2.47-6.97 3.09-2.61.64-3.89 3.25-5.48 5.17-3.27.71-6.65 1.67-8.89 4.35 4-1.03 7.79-3.18 12.06-2.01-.48-.4-1.43-1.21-1.9-1.61 1.62-1.51 3.02-3.32 4.95-4.45 4.42-.02 6.12 4.37 8.76 7.04-.12-1.83-.26-3.64-.42-5.46-2.06-1.13-4.1-2.3-6.1-3.53 3.79-.37 7.57.2 11.25 1.05 3.66 1.14 3.26 5.71 4.93 8.5 1.47-2.05.9-4.58.7-6.88.82.22 2.45.66 3.27.89 1.69 2.1 2.72 4.6 3.56 7.14.48-.01 1.45-.03 1.93-.05-.35-1.85-.27-3.92-1.44-5.51-1.55-2.14-4.04-3.27-6.16-4.76 1.89-1.17 3.79-2.31 5.65-3.52-2.37-3.46-6.9-4.2-10.79-4.44-3.45-.26-6.41 1.8-8.55 4.32 2.49-.85 4.86-2.13 7.48-2.55 3.25.08 6.32 1.35 9.42 2.21-1.37 1.33-4.23 1.86-3.83 4.37-.91.31-1.84.55-2.77.78-.84-1.12-1.69-2.22-2.52-3.34-1-.27-2.99-.8-3.99-1.06l.37 2.65c-.3-.56-.9-1.66-1.2-2.21-.73.18-2.19.55-2.92.73l-.96-2.43c-4.56-1.83-8.92.64-13.03 2.44-1.71 1.13-2.92 2.87-4.58 4.07-3.51.6-7.25.81-10.23 3-4.37 1.13-8.77 2.21-12.93 3.98-1.87.94-3.96.26-5.92.16-5.36 2.51-11.07 4.03-16.85 5.18-6.18 2.44-12.69 4.87-17.36 9.83-4.21.48-8.79.55-12.41 3.02-2.5 1.99-4.14 4.8-6.27 7.15-11.27 4.5-22.23 9.79-32.79 15.76-2.6 1.69-5.8 2.25-8.83 1.65-2.83-1.39-2.88-5.04-4.76-7.27-1.8-2.76-4.72-4.49-7.82-5.41-1.56-1.64-3.05-4.38-5.73-3.82-5.52.12-10.98 4.95-10.5 10.68.82 5.13 1.64 10.93 5.93 14.45 3.76 3.12 6.1 7.72 6.44 12.6.14 5.02 4.27 9.1 9.06 10.03 1.3 1.17 2.57 2.37 3.83 3.6 2.69-.46 5.45-.53 8.12-1.12 5.08-1.57 9.43-4.91 12.44-9.27 10.34-2.85 21.03-4.78 31.7-6.17 9.18-1.57 16.32-8.09 23.65-13.33 6.81-4.1 14.91-1.6 22.25-3.69 6.52-1.79 13.35-1.9 19.96-3.2 2.36-.33 3.57-2.5 3.78-4.7 7.67-1 15.71.07 22.97-3.15 4.09-2.41 8.91-2.74 13.33-4.28 4.4-.35 8.94-.09 13.12-1.8 6.72-1.83 12.28-6.17 17.97-9.98 3.36-3.17 2.68-8.16 2.47-12.32 6.47-2.95 5.68-10.75 5.34-16.62.05-4.19-3.82-6.73-7.23-8.23-3.76-1.16-7.6-2.59-11.59-2.48-3.52.35-5.59 3.45-6.28 6.64m-20.79 9.51c-1.17 1 .36 3.21 1.68 2.24 1.2-.98-.39-3.2-1.68-2.24m16.74 2.67c1.3 1.64 3.85-.42 1.91-1.76-1.3-1.82-3.74.38-1.91 1.76m-16.86 7.1c.87 1.17 1.79 2.31 2.75 3.42l.91 2.26c.44-.08 1.31-.23 1.74-.3-.03-1-.05-1.99-.07-2.98-1.72-.92-3.52-1.69-5.33-2.4z"/><path d="M203.04 108.89c3.16-2.42 2.13-7.73 5.94-9.28 3.91.11 7.7 1.26 11.49 2.14 3.33.83 6.27 3.62 6.64 7.13.4 4.56.21 9.65-2.88 13.33-2.4-2.1-5-3.96-8.01-5.07-4.5-2.61-8-6.79-13.18-8.25zM211.78 119.48c-.02-.55-.05-1.67-.06-2.22 3.25 1.55 7.21 2.6 9.26 5.82 2.2 4.43 1.78 11.24-3.13 13.67-3.16 1.36-5.05 4.51-8.23 5.79-4.39 1.83-8.96 3.34-13.69 3.95-5.84.44-11.88.83-17.36 3.06-6.63 3.74-14.4 4.13-21.83 4.23 2.31-1.38 4.69-2.65 6.89-4.22-6.26.07-11.35 4.35-14.67 9.31-1.29-.06-2.58-.12-3.87-.19 1.35-1.77 2.75-3.51 4.27-5.14 1.12-2.61 2.21-5.25 3.56-7.76 1.1-1.92 3.58-2.16 5.46-2.94 4.62-1.43 8.98-3.55 13.48-5.31 4.95-1.87 10.25-.8 15.38-.87-.78-.4-2.34-1.22-3.12-1.63 3.73-1.87 7.21-4.38 11.35-5.3 2.97-.94 6.77-.7 8.58-3.73 1.96-2.86 4.31-5.44 7.73-6.52m-8.28 14.22c3.31 1.03 6.76 1.63 10.23 1.7-2.51-3.17-6.73-2.64-10.23-1.7m.49 5.39c-1.99 1.95-4.94 2.07-7.42 3.03 2.45.3 5.07.81 7.44-.06 2.64-1.66 4.33-4.41 6.45-6.62-2.79-.12-4.57 2.01-6.47 3.65m-17.94 5.26c4.03-1.79 7.84-4.13 12.19-5.14.03-.46.1-1.36.13-1.81-4.74.95-9.44 2.84-12.32 6.95m-14.28-1.36c4.09 0 8.25 2.61 12.24.95-3.82-1.9-8.18-2.13-12.24-.95z"/><path d="M144.28 120.11c.83-.52 1.66-1.05 2.49-1.58 4.39-.11 6.67 3.7 9.76 6.08 4.06 3.51 6.13 8.65 8.21 13.46-3.48 1.83-6.99 3.65-10.74 4.88-.59 1-1.18 2-1.77 3.01-4.85 2.88-5.96 9.17-10.53 12.44.12-4.51.88-9.42-1.53-13.51-1.61-2.52-2.62-5.36-4.11-7.93-1.72-.99-3.65-1.5-5.52-2.08 1.67-.7 3.54-1.11 5.01-2.23 1.76-2.09 2.93-4.59 4.17-7.01-3 .58-4.07 3.48-5.41 5.82-2.41.9-4.82 1.77-7.21 2.71-2.68-3.78-6.79-5.89-11.15-7.13 4.8-1.4 9.71-2.56 14.28-4.64 1.63.41 3.26.82 4.9 1.22 2.54-2.32 5.61-3.86 9.15-3.51m-5.84 2.59c2.23.73 4.49 1.38 6.79 1.84 4.11 2.07 6.93 6.47 11.56 7.36-1.1-1.87-2.43-3.58-3.83-5.22-.61-.04-1.83-.14-2.44-.18-3.28-3.02-7.6-4.77-12.08-3.8z"/><path d="M96.48 136.67c5.24-2.59 9.54-7.36 15.55-8.21 5.53.43 11.23 2.73 14.13 7.73-6.58 2.34-12.86 5.5-18.8 9.16-2.8 2.08-6.54 1.58-9.54 3.21-2.28 1.31-4.19 3.15-6.25 4.76-5.14 1.07-9.57 4.09-14.47 5.84-7.36 3.7-15.17 6.34-22.74 9.55-5.85 1.54-11.94.31-16.88-3.11 9.34-2.36 17.38-7.84 26.03-11.84 4.5-2.46 9.85-3.17 13.87-6.5 2.52-1.74 4.24-4.33 6.35-6.49 3.29-3.12 8.18-2.75 12.38-3.1.09-.25.27-.75.37-1m6.36 5.22c-2.6 2.39-6.36 2.21-9.62 2.69 1.42.81 2.82 2.46 4.65 1.81 4.69-1.61 8.39-5.22 11.53-8.93-2.5.96-4.62 2.62-6.56 4.43m-20.24 4.49c2.42.57 4.93.33 7.31-.28-.12-3.89-5.65-1.33-7.31.28z"/><path d="M107.87 147.87c6.88-5.66 15.41-8.53 23.75-11.26 1.46.97 3.4 1.62 3.96 3.47 1.35 3.36 3.95 6.26 4.23 10 .29 3.27-.06 6.56-.02 9.84-3.98.7-7.99 1.27-11.88 2.36-5.29 1.67-10.86-1.16-16.15.49-3.66 1.31-6.96 3.52-9.67 6.29-6.04 6.15-14.51 9.63-23.07 10.14-8.98.25-17.6 3.15-26.06 5.92-.15.2-.43.61-.57.81-4.11 2.63-7.69 6.03-11.96 8.41-2.96 1.88-6.83 1.44-9.88.09-1.84-2.09-2.17-5.03-3-7.59-1.64-7.32-5.29-14-9.91-19.84-.77-4.41 1.21-8.77 1.29-13.19 1.37-.68 2.73-1.36 4.09-2.07 3.85 3 7.05 6.8 9.3 11.13 2.32 5.02 8.25 6.44 12.68 8.98 8.45.15 16.3-3.56 23.96-6.66 4.5-1.63 8.32-4.75 13-5.94 3.45-.9 6.48-2.91 9.99-3.62 3.5-.56 4.5-5 8.02-5.56 2.58-.98 5.85 0 7.9-2.2m10.56 4.16c4.5-2.11 9.12-3.98 13.5-6.31-5.08-.17-10.5 2.12-13.5 6.31m-14.01 4.29c2.45-.75 4.65-2.07 6.82-3.37.08-1.58.17-3.17.29-4.75-1.51 3.52-6.01 4.49-7.11 8.12m-8.58 4.99c3.16-.29 6.25-1.14 9.07-2.62-3.24-.34-7.25-.85-9.07 2.62m12.15.66c2.63-.41 5.18-1.15 7.72-1.89 1.35-.71 2.71-1.38 4.12-1.96-4.15.58-8.32 1.42-11.84 3.85m-42.85 7.8c8.34-1.32 15.94-5.41 23.76-8.43-.83-.56-1.5-1.94-2.67-1.05-7.22 2.72-14.66 5.11-21.09 9.48m-34.82-2.16c.36 1.83.91 3.64 1.71 5.32 2.55 4.78 1.27 11.68 6.74 14.66-.53-2.96-2.18-5.59-2.52-8.58-.57-4.27-2.26-8.86-5.93-11.4m15.63 14.26c-2.03-.86-3.86-2.13-5.88-3.02 1.28 2.45 3.18 4.67 5.9 5.5 3.39-1.86 8.02-2.6 9.78-6.43-3.48.73-6.6 2.48-9.8 3.95z"/><path d="M8.95 155.11c.29-3.7 3.69-5.64 6.02-8.05 1.87.64 3.64 1.52 5.05 2.93-3.29 3.52-4.18 8.29-5.23 12.8-.23 3.93 2.67 6.97 4.06 10.43 2.54 5.69 6.66 11.12 6.76 17.55-1.89-1.82-4.08-3.76-4.18-6.59-1.18-7.88-6.31-14.3-11.84-19.71.1-3.14-.61-6.24-.64-9.36z"/></g><g fill="#333"><path d="M203.77 103.93c.69-3.19 2.76-6.29 6.28-6.64 3.99-.11 7.83 1.32 11.59 2.48 3.41 1.5 7.28 4.04 7.23 8.23.34 5.87 1.13 13.67-5.34 16.62.21 4.16.89 9.15-2.47 12.32-5.69 3.81-11.25 8.15-17.97 9.98-4.18 1.71-8.72 1.45-13.12 1.8-4.42 1.54-9.24 1.87-13.33 4.28-7.26 3.22-15.3 2.15-22.97 3.15-.21 2.2-1.42 4.37-3.78 4.7-6.61 1.3-13.44 1.41-19.96 3.2-7.34 2.09-15.44-.41-22.25 3.69-7.33 5.24-14.47 11.76-23.65 13.33-10.67 1.39-21.36 3.32-31.7 6.17-3.01 4.36-7.36 7.7-12.44 9.27-2.67.59-5.43.66-8.12 1.12-1.26-1.23-2.53-2.43-3.83-3.6-4.79-.93-8.92-5.01-9.06-10.03-.34-4.88-2.68-9.48-6.44-12.6-4.29-3.52-5.11-9.32-5.93-14.45-.48-5.73 4.98-10.56 10.5-10.68 2.68-.56 4.17 2.18 5.73 3.82 3.1.92 6.02 2.65 7.82 5.41 1.88 2.23 1.93 5.88 4.76 7.27 3.03.6 6.23.04 8.83-1.65 10.56-5.97 21.52-11.26 32.79-15.76 2.13-2.35 3.77-5.16 6.27-7.15 3.62-2.47 8.2-2.54 12.41-3.02 4.67-4.96 11.18-7.39 17.36-9.83 5.78-1.15 11.49-2.67 16.85-5.18 1.96.1 4.05.78 5.92-.16 4.16-1.77 8.56-2.85 12.93-3.98 2.98-2.19 6.72-2.4 10.23-3 1.66-1.2 2.87-2.94 4.58-4.07 4.11-1.8 8.47-4.27 13.03-2.44l.96 2.43c.73-.18 2.19-.55 2.92-.73.3.55.9 1.65 1.2 2.21l-.37-2.65c1 .26 2.99.79 3.99 1.06.83 1.12 1.68 2.22 2.52 3.34.93-.23 1.86-.47 2.77-.78-.4-2.51 2.46-3.04 3.83-4.37-3.1-.86-6.17-2.13-9.42-2.21-2.62.42-4.99 1.7-7.48 2.55 2.14-2.52 5.1-4.58 8.55-4.32 3.89.24 8.42.98 10.79 4.44-1.86 1.21-3.76 2.35-5.65 3.52 2.12 1.49 4.61 2.62 6.16 4.76 1.17 1.59 1.09 3.66 1.44 5.51-.48.02-1.45.04-1.93.05-.84-2.54-1.87-5.04-3.56-7.14-.82-.23-2.45-.67-3.27-.89.2 2.3.77 4.83-.7 6.88-1.67-2.79-1.27-7.36-4.93-8.5-3.68-.85-7.46-1.42-11.25-1.05 2 1.23 4.04 2.4 6.1 3.53.16 1.82.3 3.63.42 5.46-2.64-2.67-4.34-7.06-8.76-7.04-1.93 1.13-3.33 2.94-4.95 4.45.47.4 1.42 1.21 1.9 1.61-4.27-1.17-8.06.98-12.06 2.01 2.24-2.68 5.62-3.64 8.89-4.35 1.59-1.92 2.87-4.53 5.48-5.17 2.49-.62 4.8-1.74 6.97-3.09-5.47-1.24-11.64.79-15.33 5.02-2.64 2.84-6.91 2.57-10.32 3.82 2.66 3.23 5.46 6.4 9.02 8.67 3.17-2.07 6.98-1.72 10.57-2.03 3.07-.61 6.12-1.32 9.11-2.25-.36.35-1.09 1.04-1.45 1.38-.07.7-.23 2.11-.3 2.81-1.8-.32-3.55-.91-5.3-1.39.13.74.39 2.21.53 2.95-4.02-.94-8.15-1.38-12.26-.71 2.05 3.49 4.51 6.8 5.81 10.68 4.3-2.08 9.02-2.58 13.73-2.75 3.67-1.8 7.09-4.14 10.96-5.58l.13 1.27c.07-1.28.14-2.56.2-3.84l-.56 1.31c-2.12-3.46-5.24-6.07-7.97-9.01 4 1.4 7.8 3.81 9.77 7.7-.27.65-.82 1.96-1.09 2.62 2.78-1.27 5.81-1.74 8.72-2.63.98-1.01 1.8-2.17 2.69-3.26-1.61-1.1-3.15-2.3-4.4-3.8 1.68.78 3.27 1.72 4.79 2.79 1.85-1.47 3.75-2.93 6-3.74-.01-.92-.03-1.84-.05-2.75-3.83-3.21-8.47-5.23-13-7.23 2.63-.42 6.16-1.01 6.69-4.17m-.73 4.96c5.18 1.46 8.68 5.64 13.18 8.25 3.01 1.11 5.61 2.97 8.01 5.07 3.09-3.68 3.28-8.77 2.88-13.33-.37-3.51-3.31-6.3-6.64-7.13-3.79-.88-7.58-2.03-11.49-2.14-3.81 1.55-2.78 6.86-5.94 9.28m8.74 10.59c-3.42 1.08-5.77 3.66-7.73 6.52-1.81 3.03-5.61 2.79-8.58 3.73-4.14.92-7.62 3.43-11.35 5.3.78.41 2.34 1.23 3.12 1.63-5.13.07-10.43-1-15.38.87-4.5 1.76-8.86 3.88-13.48 5.31-1.88.78-4.36 1.02-5.46 2.94-1.35 2.51-2.44 5.15-3.56 7.76-1.52 1.63-2.92 3.37-4.27 5.14 1.29.07 2.58.13 3.87.19 3.32-4.96 8.41-9.24 14.67-9.31-2.2 1.57-4.58 2.84-6.89 4.22 7.43-.1 15.2-.49 21.83-4.23 5.48-2.23 11.52-2.62 17.36-3.06 4.73-.61 9.3-2.12 13.69-3.95 3.18-1.28 5.07-4.43 8.23-5.79 4.91-2.43 5.33-9.24 3.13-13.67-2.05-3.22-6.01-4.27-9.26-5.82.01.55.04 1.67.06 2.22m-67.5.63c-3.54-.35-6.61 1.19-9.15 3.51-1.64-.4-3.27-.81-4.9-1.22-4.57 2.08-9.48 3.24-14.28 4.64 4.36 1.24 8.47 3.35 11.15 7.13 2.39-.94 4.8-1.81 7.21-2.71 1.34-2.34 2.41-5.24 5.41-5.82-1.24 2.42-2.41 4.92-4.17 7.01-1.47 1.12-3.34 1.53-5.01 2.23 1.87.58 3.8 1.09 5.52 2.08 1.49 2.57 2.5 5.41 4.11 7.93 2.41 4.09 1.65 9 1.53 13.51 4.57-3.27 5.68-9.56 10.53-12.44.59-1.01 1.18-2.01 1.77-3.01 3.75-1.23 7.26-3.05 10.74-4.88-2.08-4.81-4.15-9.95-8.21-13.46-3.09-2.38-5.37-6.19-9.76-6.08-.83.53-1.66 1.06-2.49 1.58m-47.8 16.56c-.1.25-.28.75-.37 1-4.2.35-9.09-.02-12.38 3.1-2.11 2.16-3.83 4.75-6.35 6.49-4.02 3.33-9.37 4.04-13.87 6.5-8.65 4-16.69 9.48-26.03 11.84 4.94 3.42 11.03 4.65 16.88 3.11 7.57-3.21 15.38-5.85 22.74-9.55 4.9-1.75 9.33-4.77 14.47-5.84 2.06-1.61 3.97-3.45 6.25-4.76 3-1.63 6.74-1.13 9.54-3.21 5.94-3.66 12.22-6.82 18.8-9.16-2.9-5-8.6-7.3-14.13-7.73-6.01.85-10.31 5.62-15.55 8.21m11.39 11.2c-2.05 2.2-5.32 1.22-7.9 2.2-3.52.56-4.52 5-8.02 5.56-3.51.71-6.54 2.72-9.99 3.62-4.68 1.19-8.5 4.31-13 5.94-7.66 3.1-15.51 6.81-23.96 6.66-4.43-2.54-10.36-3.96-12.68-8.98-2.25-4.33-5.45-8.13-9.3-11.13-1.36.71-2.72 1.39-4.09 2.07-.08 4.42-2.06 8.78-1.29 13.19 4.62 5.84 8.27 12.52 9.91 19.84.83 2.56 1.16 5.5 3 7.59 3.05 1.35 6.92 1.79 9.88-.09 4.27-2.38 7.85-5.78 11.96-8.41.14-.2.42-.61.57-.81 8.46-2.77 17.08-5.67 26.06-5.92 8.56-.51 17.03-3.99 23.07-10.14 2.71-2.77 6.01-4.98 9.67-6.29 5.29-1.65 10.86 1.18 16.15-.49 3.89-1.09 7.9-1.66 11.88-2.36-.04-3.28.31-6.57.02-9.84-.28-3.74-2.88-6.64-4.23-10-.56-1.85-2.5-2.5-3.96-3.47-8.34 2.73-16.87 5.6-23.75 11.26m-98.92 7.24c.03 3.12.74 6.22.64 9.36 5.53 5.41 10.66 11.83 11.84 19.71.1 2.83 2.29 4.77 4.18 6.59-.1-6.43-4.22-11.86-6.76-17.55-1.39-3.46-4.29-6.5-4.06-10.43 1.05-4.51 1.94-9.28 5.23-12.8-1.41-1.41-3.18-2.29-5.05-2.93-2.33 2.41-5.73 4.35-6.02 8.05z"/><path d="M182.98 113.44c1.29-.96 2.88 1.26 1.68 2.24-1.32.97-2.85-1.24-1.68-2.24zM199.72 116.11c-1.83-1.38.61-3.58 1.91-1.76 1.94 1.34-.61 3.4-1.91 1.76zM138.44 122.7c4.48-.97 8.8.78 12.08 3.8.61.04 1.83.14 2.44.18 1.4 1.64 2.73 3.35 3.83 5.22-4.63-.89-7.45-5.29-11.56-7.36-2.3-.46-4.56-1.11-6.79-1.84zM182.86 123.21c1.81.71 3.61 1.48 5.33 2.4.02.99.04 1.98.07 2.98-.43.07-1.3.22-1.74.3l-.91-2.26c-.96-1.11-1.88-2.25-2.75-3.42zM203.5 133.7c3.5-.94 7.72-1.47 10.23 1.7-3.47-.07-6.92-.67-10.23-1.7zM203.99 139.09c1.9-1.64 3.68-3.77 6.47-3.65-2.12 2.21-3.81 4.96-6.45 6.62-2.37.87-4.99.36-7.44.06 2.48-.96 5.43-1.08 7.42-3.03zM186.05 144.35c2.88-4.11 7.58-6 12.32-6.95-.03.45-.1 1.35-.13 1.81-4.35 1.01-8.16 3.35-12.19 5.14zM102.84 141.89c1.94-1.81 4.06-3.47 6.56-4.43-3.14 3.71-6.84 7.32-11.53 8.93-1.83.65-3.23-1-4.65-1.81 3.26-.48 7.02-.3 9.62-2.69zM171.77 142.99c4.06-1.18 8.42-.95 12.24.95-3.99 1.66-8.15-.95-12.24-.95zM82.6 146.38c1.66-1.61 7.19-4.17 7.31-.28-2.38.61-4.89.85-7.31.28zM118.43 152.03c3-4.19 8.42-6.48 13.5-6.31-4.38 2.33-9 4.2-13.5 6.31zM104.42 156.32c1.1-3.63 5.6-4.6 7.11-8.12-.12 1.58-.21 3.17-.29 4.75-2.17 1.3-4.37 2.62-6.82 3.37zM95.84 161.31c1.82-3.47 5.83-2.96 9.07-2.62-2.82 1.48-5.91 2.33-9.07 2.62zM107.99 161.97c3.52-2.43 7.69-3.27 11.84-3.85-1.41.58-2.77 1.25-4.12 1.96-2.54.74-5.09 1.48-7.72 1.89zM65.14 169.77c6.43-4.37 13.87-6.76 21.09-9.48 1.17-.89 1.84.49 2.67 1.05-7.82 3.02-15.42 7.11-23.76 8.43zM30.32 167.61c3.67 2.54 5.36 7.13 5.93 11.4.34 2.99 1.99 5.62 2.52 8.58-5.47-2.98-4.19-9.88-6.74-14.66-.8-1.68-1.35-3.49-1.71-5.32zM45.95 181.87c3.2-1.47 6.32-3.22 9.8-3.95-1.76 3.83-6.39 4.57-9.78 6.43-2.72-.83-4.62-3.05-5.9-5.5 2.02.89 3.85 2.16 5.88 3.02z"/></g></svg>