<svg width="230pt" height="200pt" viewBox="0 0 230 200" xmlns="http://www.w3.org/2000/svg"><g fill="#FFF"><path d="M0 0h230v200H0V0m68.88 14.84C64.25 18.3 62.47 24.1 59.91 29c-4.91 4.13-8.45 10.46-7.78 16.96 1.54 4.94 7.47 5.06 10.77 8.22 3.85 3.29 8.73 4.8 13.15 7.1l-2.65-.12c3.74 5.28 6.86 10.98 9.57 16.85 2.37 4.49 6.89 7.11 10.34 10.65 2.24 2.8 4.07 5.91 5.94 8.97 2.53 4.03 1.59 9.05 2.94 13.45.73 2.3.9 4.72 1.24 7.1.8 4.97 5.19 9.09 4.11 14.35 2.1 2.4 2.76 5.5 3.69 8.44 3.41 5.24 9.17 8.25 12.81 13.33-1.78.84-3.64 1.51-5.62 1.57.03-1.56.11-3.11.23-4.66-.61-.69-1.22-1.37-1.84-2.05-.24 2.56-.36 5.14-.12 7.7 1.12.51 2.24 1.03 3.36 1.55 2.26-.83 5.41-3.76 7.22-.69 4.84.05 9.18-2.26 13.68-3.73 3.78-1.27 7.23-3.34 10.72-5.23 3.9-3.61 8.41-6.93 13.63-8.28-.78 0-2.34-.02-3.12-.03.09-1.81-.22-3.72.44-5.46 2.66-.38 2.4 3.44 3.36 5.16.62-.06 1.86-.17 2.48-.23.3-.4.91-1.19 1.21-1.59 5.42-2.83 11.67-1.48 17.5-1.87-.8-.34-2.41-1.04-3.22-1.38 3.97-1.88 7.59-4.62 11.98-5.48 2.62-.85 5.96-.53 7.69-3.07 2.18-2.93 4.35-6.03 8.13-6.95-.01-.59-.04-1.78-.05-2.38 3.99 1.87 9.59 3.51 10.23 8.65 1.41 4.99-1.19 10.54-6.24 12.08-4.76 5.35-12.04 7-18.77 8.45-5.99.46-12.14.83-17.83 2.9-6.72 3.99-14.73 4.4-22.35 4.48 2.2-1.32 4.76-2.19 6.43-4.23-6.21.18-10.77 4.74-14.35 9.28-5.28.78-10.72.02-15.94 1.37-2.34.7-4.97.58-6.66-1.37l1.6 1.7c-.7.16-2.1.47-2.8.63.74-.09 2.21-.26 2.94-.34l-.5 1.39c5.52-.31 11.08.99 16.51-.48 3.54-.37 9.98-.34 9.42-5.49 8.04-1.14 16.55.11 24.08-3.57 3.53-2.33 7.95-2.09 11.75-3.77 4.58-.73 9.41-.01 13.8-1.93 6.76-1.8 12.26-6.23 18.02-9.96 3.5-3.29 2.55-8.43 2.62-12.73 3-1.24 5.03-4 5.21-7.27.08-4.04.6-8.29-.73-12.19-3.34-5.03-9.73-6.2-15.22-7.36-3.86-1.04-8.25 1.53-8.84 5.57-.26 3.65-4.04 4.89-7.15 5.01 4.56 2.01 9.19 4.07 13.11 7.2.06 1.21.11 2.42.16 3.63l-.51-1.15c-1.92 1.37-3.8 2.79-5.64 4.26-1.24-1.21-2.68-2.18-4.3-2.78.84 1.7 2.36 2.75 4.1 3.4-.99 1.28-1.94 2.57-2.9 3.86-2.99.2-5.89 1.03-8.57 2.35.24-.68.71-2.03.95-2.7-1.75-3.98-5.67-6.21-9.57-7.66 2.57 3.05 5.89 5.44 7.77 9.03l.64-1.38c-.06 1.3-.12 2.59-.19 3.89l.01-1.31c-3.78 1.36-7.2 3.42-10.61 5.49-4.23 1.02-10.33-.82-12.88 3.81-2.09-4.01-4.82-7.63-7.16-11.48 4.11-1.03 8.27-.36 12.33.5-.15-.74-.46-2.22-.61-2.97 1.87.57 3.76 1.13 5.65 1.64-.08-.71-.25-2.13-.34-2.83.43-.4 1.29-1.2 1.72-1.59-2.21.98-4.57 1.38-6.98 1.49-3.95 2-8.87-.17-12.43 2.93-3.48-2.37-7-5.11-8.86-8.99 3.39-1.02 7.58-.77 10.07-3.7 3.46-4.04 9.25-5.85 14.44-5.1-1.34 1.69-3.08 2.96-5.32 2.99-3.11.25-4.63 3.3-6.34 5.48-3.18.62-6.47 1.5-8.74 4 2.29.43 4.12-1.13 6.12-1.87 1.91-.36 3.83.17 5.73.33l-1.84-1.76c2.08-1.67 3.91-5.6 7.13-3.91 3.21.71 3.83 4.7 6.67 6.1-.19-1.71-.41-3.42-.66-5.12a94.782 94.782 0 01-5.5-3.27c3.61-.71 7.21.17 10.74.85 3.6 1.06 3.27 5.44 4.71 8.22 2.37-1.48.89-4.36.94-6.5.78.16 2.33.49 3.11.65 1.82 2.09 2.91 4.65 3.65 7.29.47.01 1.4.01 1.87.01.57-4.47-2.65-7.82-6.41-9.59-1.32-2.67 4.69-2.31 4.11-5.11-1.64-2.23-4.71-2.56-7.21-3.27-3.93-.89-9.41-.16-11 4.14 2.23-1 4.34-2.61 6.88-2.69 3.28.12 6.49 1.12 9.34 2.71-1.62.94-4.2 1.26-4.21 3.63-1.67 2.37-3.96-.87-4.99-2.28-1-.3-2.99-.91-3.98-1.22l.4 2.64-1.07-1.91c-1.5.11-2.99.21-4.49.3l1.56-1.72c-3.05-.91-6.57-2.21-9.24.3-4.11.3-6.91 3.21-9.53 6.05-4 .01-8.15.73-11.09 3.68 5.53 4.76 11.91 9.08 14.86 16.03-4.28-2.56-7.57-6.5-10.42-10.51-1.28.31-2.05 1.33-3 2.08-1.52-1.87-.79-4.58-1.61-6.75-2.36-7.17-5.53-14.19-10.21-20.16-1.73-2.24-3.98-4.09-5.18-6.7-2.67-5.99-8.05-10.01-12.46-14.64-6.53-7.83-14.01-14.96-22.46-20.68-3.85-3.39-7.05-7.45-9.5-11.96.73-3.47.35-7.15 1.69-10.49 1.33-3.25 1.96-6.73 2.51-10.18.77-4.53-1.64-8.73-3.76-12.54-2.06.38-4.12.8-6.17 1.25-1.58-.71-3.13-1.93-4.96-1.62-3.31.21-5.67 2.78-8.12 4.7m114.08 98.52c-1.03.99.34 3.32 1.68 2.44 1.06-1-.32-3.31-1.68-2.44m16.8 2.76c1.33 1.65 3.87-.31 1.84-1.7-1.33-1.91-3.78.33-1.84 1.7m-16.76 7.2c.78 1.13 1.64 2.21 2.54 3.25l.92 2.25c.45-.04 1.34-.13 1.79-.17-.01-.97-.02-1.94-.02-2.91-1.64-1.01-3.38-1.86-5.23-2.42m20.8 10.71c2.41.5 4.83.98 7.27 1.37 1.4 1.29 2.7-1.86.89-1.74-2.64-1.14-5.68-1.13-8.16.37m-1.34 6.28c-1.83.7-3.76 1.06-5.63 1.63 1.36.32 2.74.7 4.15.64 4.42.34 6.83-4.13 9.1-7.16-3.39.04-5.03 3.28-7.62 4.89m-16.26 3.78c4.13-1.36 7.69-4.06 12.04-4.86l.2-1.76c-4.7.8-9.32 2.67-12.24 6.62m-14.28-.98c3.51.22 6.92 1.15 10.39 1.68.24-.37.72-1.1.96-1.47-3.7-1.08-7.66-1.62-11.35-.21z"/><path d="M74.9 12.68c2.31-1.42 4.93.16 7.17.92-1.1.78-2.2 1.56-3.31 2.33-2.22-1.01-4.5-.89-5.74 1.57 1.05-.18 3.15-.55 4.21-.73-2.81 2.63-4.22 6.19-5.81 9.58-2.47 2.67-5.64 5.58-4.65 9.61-4.49 3.57-8.83 8.79-7.57 14.95-2.61-2.11-6.55-4.61-5.74-8.51 1.64-5.17 5.82-8.98 8.29-13.73 1.67-2.59 2.36-5.59 3.18-8.52 3.2-2.63 6.43-5.29 9.97-7.47z"/><path d="M77.69 19.69c2.78-2.45 4.89-5.64 8.1-7.59 5.85 4.12 4.6 12.42 2.68 18.28-2.73 4.78-2.71 10.41-3.17 15.74 2.93 2.6 4.56 6.36 7.68 8.78 7.21 5.72 14.71 11.18 21.11 17.83 2.51 2.92 4.87 5.96 7.62 8.66-.58.99-1.17 1.98-1.76 2.97.85 1.5 1.34 3.42 3.03 4.23 1.92-1.24-.76-3.28-1.19-4.63.33-.42.67-.83 1.02-1.24 2.52 2.85 5.47 5.34 7.28 8.76-1.26.29-2.52.59-3.78.91 3.23 2.37 7.18 4.06 9.48 7.49 2.94 5.24 6.34 10.25 8.34 15.96 1.64 4 2.31 8.33 4.18 12.25-2.93 2.73-6.24 5.82-10.52 5.78-4.14 0-8.77.19-12.3-2.31-2.74-3.21-4.25-7.38-5.11-11.47-.76-7.57-.51-15.7-4.82-22.36-3.26-5.99-10.9-7.12-14.84-12.46-3.03-3.19-4.49-7.42-6.94-10.99-4.83-5.51-10.15-10.55-15.85-15.15-4.53-2.17-9.14-4.22-13.79-6.13-3.08-1.33-3.65-5.27-2.7-8.16 2.9-5.81 10.41-7.88 12.45-14.25 1.49-3.56.73-8.11 3.8-10.9m7.25-3.08c.33 2.58.24 5.8 2.97 7.14-.69-2.38.13-6.3-2.97-7.14m-1.93 13.55c2.6-1.09 3.84-3.67 4.84-6.13-2.55 1.1-3.59 3.87-4.84 6.13M71.5 42.39c-1.09 1.11-1.92 2.44-2.61 3.83.84-.67 1.65-1.35 2.46-2.05 3.3-.27 3.34 4.43 4.51 6.63 1.67 1.35 3.29 2.77 4.98 4.1.29-3.03-2.24-4.47-4.5-5.79-.14-1.81-.31-3.62-.58-5.42-1.28-.23-2.4-.88-3.44-1.61l-.82.31m23.38 23.47c.59 3.46 4.01 4.9 6.64 6.6 4.94 2.81 7.9 8.09 13.1 10.54.03.49.1 1.46.13 1.95.23-.47.67-1.4.89-1.86-3.59-3.98-7.12-8.09-11.39-11.36-3.09-2.01-6.22-3.95-9.37-5.87m20.05 25.17c2.39 4.23 5.49 8.05 7.43 12.57 1.89-1.63.24-3.82-.46-5.56-1.54-2.9-3.28-6.62-6.97-7.01m10.11 6.61c.9 2.99 2.03 5.96 1.92 9.15.15 7.48 2.62 15.77 8.9 20.35-1.65-6.3-7.28-11.23-6.97-18.1-.09-3.98.77-9.57-3.85-11.4z"/><path d="M76.5 62.37c2.74.52 5.15 1.99 7.07 3.99 4.12 4.29 8.82 8.28 11.35 13.8 1.55 3.52 3.76 6.74 6.75 9.2 3.54 3.18 8.9 4.21 11.37 8.56 4.51 9.45 2.67 20.59 7.39 29.99-4.01-1.32-8.6-1.56-11.95-4.36-2.04-2.55-3.31-5.67-4.28-8.77-.35-5.96-.66-11.98-2.16-17.79-.89-2.24-3-3.68-4.16-5.77-3.33-5.93-10.35-8.66-13.41-14.83-2.33-4.85-4.87-9.61-7.97-14.02m27.62 29.38c1.37 3.3 1.87 7.72 5.08 9.8-.15-3.75-1.44-8.04-5.08-9.8zM206.92 100.96c2.37-2.63 6.1-.61 9.01-.28 4.44.66 9.87 2.28 11.03 7.28.51 4.8.77 10.61-2.95 14.28-2.33-2.61-5.38-4.2-8.58-5.48-4.07-2.86-7.63-6.53-12.57-7.94 2.58-1.92 3.04-5.05 4.06-7.86z"/><path d="M109.71 126.64c3.28 1.02 6.59 1.93 9.85 2.99 2.59.73 3.14 3.64 4.26 5.71 1.48 2.84 2.78 5.76 3.73 8.82l1.55-1.11c0-3.11-1.96-5.73-2.77-8.65 5.27 2.07 11.43 2.83 16.79.67 3.79-2.58 7.6-5.49 10.01-9.48 1.36 2.61 2.37 5.53 4.69 7.5-1.03 1.98-2.05 3.99-2.42 6.22 1.89-1.26 3.28-3.07 4.51-4.94-.83 2.59-1.55 5.22-2.47 7.78-3.99 1.87-6.77 5.61-10.94 7.15-5.47 2.11-10.74 4.91-16.48 6.25-3.08.12-4.6-3.2-6.63-4.97-2.85-2.53-5-6.17-8.79-7.39-.73-2.16-.77-4.45-1.23-6.65-1.17-1.59-2.66-2.9-3.99-4.35.22-1.84.33-3.69.33-5.55z"/></g><g fill="#333"><path d="M68.88 14.84c2.45-1.92 4.81-4.49 8.12-4.7 1.83-.31 3.38.91 4.96 1.62 2.05-.45 4.11-.87 6.17-1.25 2.12 3.81 4.53 8.01 3.76 12.54-.55 3.45-1.18 6.93-2.51 10.18-1.34 3.34-.96 7.02-1.69 10.49 2.45 4.51 5.65 8.57 9.5 11.96 8.45 5.72 15.93 12.85 22.46 20.68 4.41 4.63 9.79 8.65 12.46 14.64 1.2 2.61 3.45 4.46 5.18 6.7 4.68 5.97 7.85 12.99 10.21 20.16.82 2.17.09 4.88 1.61 6.75.95-.75 1.72-1.77 3-2.08 2.85 4.01 6.14 7.95 10.42 10.51-2.95-6.95-9.33-11.27-14.86-16.03 2.94-2.95 7.09-3.67 11.09-3.68 2.62-2.84 5.42-5.75 9.53-6.05 2.67-2.51 6.19-1.21 9.24-.3l-1.56 1.72c1.5-.09 2.99-.19 4.49-.3l1.07 1.91-.4-2.64c.99.31 2.98.92 3.98 1.22 1.03 1.41 3.32 4.65 4.99 2.28.01-2.37 2.59-2.69 4.21-3.63-2.85-1.59-6.06-2.59-9.34-2.71-2.54.08-4.65 1.69-6.88 2.69 1.59-4.3 7.07-5.03 11-4.14 2.5.71 5.57 1.04 7.21 3.27.58 2.8-5.43 2.44-4.11 5.11 3.76 1.77 6.98 5.12 6.41 9.59-.47 0-1.4 0-1.87-.01-.74-2.64-1.83-5.2-3.65-7.29-.78-.16-2.33-.49-3.11-.65-.05 2.14 1.43 5.02-.94 6.5-1.44-2.78-1.11-7.16-4.71-8.22-3.53-.68-7.13-1.56-10.74-.85 1.79 1.15 3.63 2.24 5.5 3.27.25 1.7.47 3.41.66 5.12-2.84-1.4-3.46-5.39-6.67-6.1-3.22-1.69-5.05 2.24-7.13 3.91l1.84 1.76c-1.9-.16-3.82-.69-5.73-.33-2 .74-3.83 2.3-6.12 1.87 2.27-2.5 5.56-3.38 8.74-4 1.71-2.18 3.23-5.23 6.34-5.48 2.24-.03 3.98-1.3 5.32-2.99-5.19-.75-10.98 1.06-14.44 5.1-2.49 2.93-6.68 2.68-10.07 3.7 1.86 3.88 5.38 6.62 8.86 8.99 3.56-3.1 8.48-.93 12.43-2.93 2.41-.11 4.77-.51 6.98-1.49-.43.39-1.29 1.19-1.72 1.59.09.7.26 2.12.34 2.83-1.89-.51-3.78-1.07-5.65-1.64.15.75.46 2.23.61 2.97-4.06-.86-8.22-1.53-12.33-.5 2.34 3.85 5.07 7.47 7.16 11.48 2.55-4.63 8.65-2.79 12.88-3.81 3.41-2.07 6.83-4.13 10.61-5.49l-.01 1.31c.07-1.3.13-2.59.19-3.89l-.64 1.38c-1.88-3.59-5.2-5.98-7.77-9.03 3.9 1.45 7.82 3.68 9.57 7.66-.24.67-.71 2.02-.95 2.7 2.68-1.32 5.58-2.15 8.57-2.35.96-1.29 1.91-2.58 2.9-3.86-1.74-.65-3.26-1.7-4.1-3.4 1.62.6 3.06 1.57 4.3 2.78 1.84-1.47 3.72-2.89 5.64-4.26l.51 1.15c-.05-1.21-.1-2.42-.16-3.63-3.92-3.13-8.55-5.19-13.11-7.2 3.11-.12 6.89-1.36 7.15-5.01.59-4.04 4.98-6.61 8.84-5.57 5.49 1.16 11.88 2.33 15.22 7.36 1.33 3.9.81 8.15.73 12.19-.18 3.27-2.21 6.03-5.21 7.27-.07 4.3.88 9.44-2.62 12.73-5.76 3.73-11.26 8.16-18.02 9.96-4.39 1.92-9.22 1.2-13.8 1.93-3.8 1.68-8.22 1.44-11.75 3.77-7.53 3.68-16.04 2.43-24.08 3.57.56 5.15-5.88 5.12-9.42 5.49-5.43 1.47-10.99.17-16.51.48l.5-1.39c-.73.08-2.2.25-2.94.34.7-.16 2.1-.47 2.8-.63l-1.6-1.7c1.69 1.95 4.32 2.07 6.66 1.37 5.22-1.35 10.66-.59 15.94-1.37 3.58-4.54 8.14-9.1 14.35-9.28-1.67 2.04-4.23 2.91-6.43 4.23 7.62-.08 15.63-.49 22.35-4.48 5.69-2.07 11.84-2.44 17.83-2.9 6.73-1.45 14.01-3.1 18.77-8.45 5.05-1.54 7.65-7.09 6.24-12.08-.64-5.14-6.24-6.78-10.23-8.65.01.6.04 1.79.05 2.38-3.78.92-5.95 4.02-8.13 6.95-1.73 2.54-5.07 2.22-7.69 3.07-4.39.86-8.01 3.6-11.98 5.48.81.34 2.42 1.04 3.22 1.38-5.83.39-12.08-.96-17.5 1.87-.3.4-.91 1.19-1.21 1.59-.62.06-1.86.17-2.48.23-.96-1.72-.7-5.54-3.36-5.16-.66 1.74-.35 3.65-.44 5.46.78.01 2.34.03 3.12.03-5.22 1.35-9.73 4.67-13.63 8.28-3.49 1.89-6.94 3.96-10.72 5.23-4.5 1.47-8.84 3.78-13.68 3.73-1.81-3.07-4.96-.14-7.22.69-1.12-.52-2.24-1.04-3.36-1.55-.24-2.56-.12-5.14.12-7.7.62.68 1.23 1.36 1.84 2.05-.12 1.55-.2 3.1-.23 4.66 1.98-.06 3.84-.73 5.62-1.57-3.64-5.08-9.4-8.09-12.81-13.33-.93-2.94-1.59-6.04-3.69-8.44 1.08-5.26-3.31-9.38-4.11-14.35-.34-2.38-.51-4.8-1.24-7.1-1.35-4.4-.41-9.42-2.94-13.45-1.87-3.06-3.7-6.17-5.94-8.97-3.45-3.54-7.97-6.16-10.34-10.65-2.71-5.87-5.83-11.57-9.57-16.85l2.65.12c-4.42-2.3-9.3-3.81-13.15-7.1-3.3-3.16-9.23-3.28-10.77-8.22-.67-6.5 2.87-12.83 7.78-16.96 2.56-4.9 4.34-10.7 8.97-14.16m6.02-2.16c-3.54 2.18-6.77 4.84-9.97 7.47-.82 2.93-1.51 5.93-3.18 8.52-2.47 4.75-6.65 8.56-8.29 13.73-.81 3.9 3.13 6.4 5.74 8.51-1.26-6.16 3.08-11.38 7.57-14.95-.99-4.03 2.18-6.94 4.65-9.61 1.59-3.39 3-6.95 5.81-9.58-1.06.18-3.16.55-4.21.73 1.24-2.46 3.52-2.58 5.74-1.57 1.11-.77 2.21-1.55 3.31-2.33-2.24-.76-4.86-2.34-7.17-.92m2.79 7.01c-3.07 2.79-2.31 7.34-3.8 10.9-2.04 6.37-9.55 8.44-12.45 14.25-.95 2.89-.38 6.83 2.7 8.16 4.65 1.91 9.26 3.96 13.79 6.13 5.7 4.6 11.02 9.64 15.85 15.15 2.45 3.57 3.91 7.8 6.94 10.99 3.94 5.34 11.58 6.47 14.84 12.46 4.31 6.66 4.06 14.79 4.82 22.36.86 4.09 2.37 8.26 5.11 11.47 3.53 2.5 8.16 2.31 12.3 2.31 4.28.04 7.59-3.05 10.52-5.78-1.87-3.92-2.54-8.25-4.18-12.25-2-5.71-5.4-10.72-8.34-15.96-2.3-3.43-6.25-5.12-9.48-7.49 1.26-.32 2.52-.62 3.78-.91-1.81-3.42-4.76-5.91-7.28-8.76-.35.41-.69.82-1.02 1.24.43 1.35 3.11 3.39 1.19 4.63-1.69-.81-2.18-2.73-3.03-4.23.59-.99 1.18-1.98 1.76-2.97-2.75-2.7-5.11-5.74-7.62-8.66-6.4-6.65-13.9-12.11-21.11-17.83-3.12-2.42-4.75-6.18-7.68-8.78.46-5.33.44-10.96 3.17-15.74 1.92-5.86 3.17-14.16-2.68-18.28-3.21 1.95-5.32 5.14-8.1 7.59M76.5 62.37c3.1 4.41 5.64 9.17 7.97 14.02 3.06 6.17 10.08 8.9 13.41 14.83 1.16 2.09 3.27 3.53 4.16 5.77 1.5 5.81 1.81 11.83 2.16 17.79.97 3.1 2.24 6.22 4.28 8.77 3.35 2.8 7.94 3.04 11.95 4.36-4.72-9.4-2.88-20.54-7.39-29.99-2.47-4.35-7.83-5.38-11.37-8.56-2.99-2.46-5.2-5.68-6.75-9.2-2.53-5.52-7.23-9.51-11.35-13.8-1.92-2-4.33-3.47-7.07-3.99m130.42 38.59c-1.02 2.81-1.48 5.94-4.06 7.86 4.94 1.41 8.5 5.08 12.57 7.94 3.2 1.28 6.25 2.87 8.58 5.48 3.72-3.67 3.46-9.48 2.95-14.28-1.16-5-6.59-6.62-11.03-7.28-2.91-.33-6.64-2.35-9.01.28m-97.21 25.68c0 1.86-.11 3.71-.33 5.55 1.33 1.45 2.82 2.76 3.99 4.35.46 2.2.5 4.49 1.23 6.65 3.79 1.22 5.94 4.86 8.79 7.39 2.03 1.77 3.55 5.09 6.63 4.97 5.74-1.34 11.01-4.14 16.48-6.25 4.17-1.54 6.95-5.28 10.94-7.15.92-2.56 1.64-5.19 2.47-7.78-1.23 1.87-2.62 3.68-4.51 4.94.37-2.23 1.39-4.24 2.42-6.22-2.32-1.97-3.33-4.89-4.69-7.5-2.41 3.99-6.22 6.9-10.01 9.48-5.36 2.16-11.52 1.4-16.79-.67.81 2.92 2.77 5.54 2.77 8.65l-1.55 1.11c-.95-3.06-2.25-5.98-3.73-8.82-1.12-2.07-1.67-4.98-4.26-5.71-3.26-1.06-6.57-1.97-9.85-2.99z"/><path d="M84.94 16.61c3.1.84 2.28 4.76 2.97 7.14-2.73-1.34-2.64-4.56-2.97-7.14zM83.01 30.16c1.25-2.26 2.29-5.03 4.84-6.13-1 2.46-2.24 5.04-4.84 6.13zM71.5 42.39l.82-.31c1.04.73 2.16 1.38 3.44 1.61.27 1.8.44 3.61.58 5.42 2.26 1.32 4.79 2.76 4.5 5.79-1.69-1.33-3.31-2.75-4.98-4.1-1.17-2.2-1.21-6.9-4.51-6.63-.81.7-1.62 1.38-2.46 2.05.69-1.39 1.52-2.72 2.61-3.83zM94.88 65.86c3.15 1.92 6.28 3.86 9.37 5.87 4.27 3.27 7.8 7.38 11.39 11.36-.22.46-.66 1.39-.89 1.86-.03-.49-.1-1.46-.13-1.95-5.2-2.45-8.16-7.73-13.1-10.54-2.63-1.7-6.05-3.14-6.64-6.6zM114.93 91.03c3.69.39 5.43 4.11 6.97 7.01.7 1.74 2.35 3.93.46 5.56-1.94-4.52-5.04-8.34-7.43-12.57zM104.12 91.75c3.64 1.76 4.93 6.05 5.08 9.8-3.21-2.08-3.71-6.5-5.08-9.8zM125.04 97.64c4.62 1.83 3.76 7.42 3.85 11.4-.31 6.87 5.32 11.8 6.97 18.1-6.28-4.58-8.75-12.87-8.9-20.35.11-3.19-1.02-6.16-1.92-9.15zM182.96 113.36c1.36-.87 2.74 1.44 1.68 2.44-1.34.88-2.71-1.45-1.68-2.44zM199.76 116.12c-1.94-1.37.51-3.61 1.84-1.7 2.03 1.39-.51 3.35-1.84 1.7zM183 123.32c1.85.56 3.59 1.41 5.23 2.42 0 .97.01 1.94.02 2.91-.45.04-1.34.13-1.79.17l-.92-2.25c-.9-1.04-1.76-2.12-2.54-3.25zM203.8 134.03c2.48-1.5 5.52-1.51 8.16-.37 1.81-.12.51 3.03-.89 1.74-2.44-.39-4.86-.87-7.27-1.37z"/><path d="M202.46 140.31c2.59-1.61 4.23-4.85 7.62-4.89-2.27 3.03-4.68 7.5-9.1 7.16-1.41.06-2.79-.32-4.15-.64 1.87-.57 3.8-.93 5.63-1.63zM186.2 144.09c2.92-3.95 7.54-5.82 12.24-6.62l-.2 1.76c-4.35.8-7.91 3.5-12.04 4.86zM171.92 143.11c3.69-1.41 7.65-.87 11.35.21-.24.37-.72 1.1-.96 1.47-3.47-.53-6.88-1.46-10.39-1.68z"/></g></svg>