<svg width="296" height="300" viewBox="0 0 222 225" xmlns="http://www.w3.org/2000/svg"><g fill="#FFF"><path d="M0 0h222v225H0V0m157.37 32.27c-1.49 1.67-1.81 4.09-3.31 5.74-3.15.83-6.29 1.74-9.34 2.91-5.48-3.19-11.88-3.99-17.92-5.6-5.78-.59-10.08 4.06-14.89 6.44-3.58 2.1-7.84 2.5-11.36 4.7-4.41 2.67-9.28 4.59-13.42 7.71-4.41.15-9.26-.07-12.88 2.92-5.57 4.48-12.95 8.8-13.35 16.8.73.62 1.46 1.24 2.18 1.88-.41-6.7 4.67-11.56 9.83-14.83 2.48-.66 5.1-.97 7.3-2.43 1.61.4 3.22.81 4.83 1.23.2-.85.59-2.54.78-3.39-3.2 1.07-6.51 1.83-9.88 1.13 3.39-1.22 7-1.23 10.55-1.39l-.53 8.44 1.52-5.73c.06-4.48 4.82-5.31 7.88-7.1 3.57.35 6.67-1.59 9.84-2.87-1.66-.11-3.33-.21-5-.28 4.6-1.91 9.35-3.4 13.98-5.21 3.27-1.7 5.75-4.87 9.58-5.48 2.82-1.14 5.38 1.03 8.08 1.55 4.44.95 8.84 2.39 12.43 5.28-6.32-.69-12.75.45-18.98-1-3.39-.83-6.75.6-9.93 1.62 3.83.34 7.77-.61 11.52.46 5.88 1.96 12.15 1.01 18.22 1.07 2.3.14 3.62-1.84 4.95-3.36-.9.08-2.71.24-3.61.33l-.21-2.16c4.07-.55 9.74-.41 11.43-5.05 2.04-5.1 7.88-8.34 13.28-7.68 4.92 1.65 6.87 6.78 9.74 10.62.87 1.63 2.44 3.47 1.6 5.42-1.74 4.75-3.49 9.57-6.57 13.64-1.55 2.82-4.57 4.76-7.74 5.08-2.63-.83-4.57-2.91-6.95-4.19-1.74-.41-3.51-.58-5.27-.85-1.01.79-2.02 1.59-3.03 2.38-.02.87-.04 2.6-.06 3.47-.95-1.7-1.87-3.41-2.75-5.14-2.43 2.47-2.02 6.38-.28 9.13-.63 3.15-1.34 6.3-2.32 9.36-1.52 3.11-3.81 5.77-5.14 8.97 1.95-1.36 3.49-3.17 5.03-4.96 1.7 5.11.86 10.38-.03 15.53 1.31-1.13 2.48-2.4 3.78-3.54 2.66 4.27 2.38 9.41 3.9 14.03 2.36 4.33 2.94 9.62 6.66 13.14 5.24-.3 10.34-1.14 15.48-2.14 2.48 2.08 5.07 4.04 7.32 6.39 1.12-1.98-.07-3.7-1.09-5.38 3.83 1.02 7.77 1.32 11.7 1.75 2.66 1.42 4.3 4.07 6.2 6.3 1.29 1.8 3.06 3.74 2.44 6.14.1 2.86-3.11 4.29-5.53 4.46-8.97.76-17.98.98-26.97 1.28-10.04 1.22-20.18.33-30.26.94-.83-6.07 1.12-11.95 2.45-17.78.56-.46 1.13-.91 1.69-1.36 2.05.55 4.13.11 6.14-.3 2.19 2.84 4.29 5.75 6.69 8.42 3.74.4 7.49.74 11.23 1.14 3.06.65 4.89-3.05 7.91-2.72 3.1.15 6.77.67 8.49-2.68-3.52.34-7.04.38-10.57.48-2.2.11-3.54 2.78-5.77 2.51-4.14-.6-8.81-.18-12.22-3.04-4.96-5.76-8.31-12.72-13.79-18.07-.07 5.07 4.37 8.27 6.72 12.33-2.23.24-4.47.44-6.68.8.24-3.52-.25-7.05-1.62-10.3.54-1.71 1.47-3.31 1.64-5.12.54-5.84 2.24-11.52 2.3-17.42-.86-.01-1.71-.03-2.56-.04-.09 4.86-.86 9.67-1.14 14.52-.07 3.51-1.79 6.67-3.03 9.87-.26 1.16.61 1.71 1.6 2.13.63 5.61.18 11.27-.97 16.79-1.31 5.68-.16 11.49 1.17 17.05.73 2.92 4.15 3.66 6.24 5.4 1.94 1.42 2.3-3.16.18-3.08-3.24-.87-4.7-4.04-5.82-6.89 11.36-.75 22.77-.54 34.1-1.8.61 8.54.69 17.11 1.28 25.65-.4.78-.79 1.57-1.19 2.35l1.85-1.61c.13-8.76 1.99-17.67-.11-26.31 2.21-.1 4.43-.2 6.65-.32-.32 10.46.27 20.94 1.13 31.36.67-1.83 1.5-3.71 1.33-5.69-1.07-8.54-.47-17.15-.63-25.72 6.42-.07 12.98.01 19.1-2.24.64-2.12 1.14-4.28 1.88-6.37-1.81-6.16-6.6-11.44-12.68-13.57-3.77-.77-7.67-.34-11.5-.37-2.11-1.69-4.62-3.06-7.43-2.5-3.95.75-8.02 1.55-11.6 3.48-2.82-3.36-3.57-7.77-5.52-11.6-1.65-3.52-2.3-7.38-3.37-11.09-.94-2.14-2.73-3.77-4.07-5.66.02-4.13-.61-8.23-1.42-12.27 3.42-5.76 3-13.01 7.24-18.4 3.38.28 6.05 2.42 9.01 3.81 3.23.43 6.47-.39 9.61-1.11 2.93-5.99 8.8-10.69 9.42-17.63 0-2.43-.41-4.89-.96-7.24-3.08-4.88-6.9-9.63-12.28-12.02-5.23-.46-9.62 2.77-13.55 5.75m-5.96 14.15c-3.93 3.67-2.97 9.51-4.32 14.26.49-.5 1.47-1.52 1.96-2.03 2-2.19 2.41-5.16 2.3-8.01 1.54-2.26 3.33-4.33 4.95-6.53-1.97-.04-3.67.85-4.89 2.31m-45.17 1.83c.14 3.38 2.93-1.63 0 0m8.86 6.56c.29 2.79 1.5 5.31 3.61 7.17-.06 3.64.25 7.54 2.58 10.51.29-2.69.17-5.4-.07-8.08 1.84.71 3.75 1.27 5.75 1.27-2.02-1.44-4.24-2.56-6.52-3.54.61-.59 1.24-1.17 1.87-1.75l-2.98 2.21 1.06-4.04c-.42.72-.83 1.45-1.26 2.17-.72-1.64-1.51-3.25-2.37-4.83.94-.64 1.87-1.28 2.81-1.92-1.5.26-2.99.54-4.48.83m15.89-.08c1.43 3.57 2.62 7.33 4.83 10.52 3.08.52 6.48-.35 8.69-2.63-2.21-.47-4.42-.29-6.47.65-1.7-3.34-4.01-6.31-7.05-8.54M95.03 66.62c4.07 1.81 8.45 2.74 12.92 2.18.96.85 1.91 1.72 2.86 2.59.46.12 1.36.34 1.82.46 2.76 3.72 6.18 7.3 10.97 8.14-.31 1.5-.63 3.01-.93 4.52-2.52-.08-5.05.31-7.55-.05-5.21-1.96-10.48-4.14-16.11-4.4-2.62 0-5.07-1.09-7.03-2.79-3.82-2.69-2.59-8.39-6.35-11.23.22 2.51.04 5.4 1.67 7.53 2.07 2.65 3.52 5.98 6.6 7.64 2.45 2.02 5.81 1.42 8.67 2.37-1.75 4.43.52 8.68 2.31 12.65-.73.94-1.45 1.89-2.18 2.83 1 .24 3 .73 4 .97-3.51 2.78-7.62 4.59-11.72 6.3 3.43.1 6.86-.63 9.9-2.24 2.19 6.95 2.15 14.23 1.84 21.44-1.71 1.26-3.41 2.97-5.72 2.85-4.67.08-9.4-.05-13.97 1.14 4.31-6.69 4.58-14.88 5.74-22.51-1.4-5.24.31-10.63-.74-15.9-2.65 5.02-2.88 10.9-1.41 16.31a23.991 23.991 0 01-15.53 1.92c-3.75-.82-9.17-.06-10.98-4.3.64-3.7 2.49-7.23 2.09-11.07-.49-3.28-2.66-5.99-3.42-9.19-.76-2.66-.4-5.46-.02-8.15-1.12-.42-2.27-.74-3.42-1.07l1.15.57c-.97 4.22-1.62 8.9.58 12.86 3.04 5.44.25 11.69.6 17.5.78 1.3 1.99 2.27 3.06 3.33-.31 2.54-.58 5.08-.87 7.62-3.7-.54-7.58-.41-10.98-2.19-4.41-1.74-10.44-3.26-14.33.25-2.82 3.89-2.23 9.03-1.82 13.53.35 3.16-1.15 6.05-1.99 8.99-1.18 3.6-.98 7.45-1.88 11.1 1.34 2.21 2.71 4.41 4.12 6.58 1.66-.13 3.32-.22 4.98-.24 2.52-2.19 4.4-5.04 4.93-8.38.68-5.61 5.61-8.96 8.61-13.3 2.83-1.57 5.87-2.76 9.16-2.61a71.1 71.1 0 00-2.08 10.73c-2.1 5.53-5.92 10.32-7.19 16.19-1.72 13.04 5.51 25.86 2.24 38.82-.66 5.11-.53 10.3-.24 15.44 5.09 5.49 13.28.34 18.81 4.95 7.09 1.09 15.6.97 20.41-5.25.33-2.36 2.29-5.78-.49-7.37-3.31-2.91-8.32-1.34-11.66-4.11-3.14-2.52-6.42-4.89-10.08-6.63-1.11-6.07-2.69-12.24-1-18.37 2.94-4.73 4.09-10.21 4.2-15.72.23 4.1.14 8.21.29 12.32-.13 1.39-.23 2.79-.27 4.18 3.41-5.74 1.39-12.72 2.09-19.04l-1.54.17c-.01-4.54 1.64-8.91 3.33-13.07.49-.15 1.46-.47 1.95-.63 1.26-3.81 3.07-7.72 1.41-11.75 5.28-1.63 10.92-.38 16.33-.97 3.56-.42 5.85-3.48 8.23-5.83-.03-.85-.1-2.57-.13-3.43-1.13-2.28-.73-4.8.13-7.1-.14-4.05-1.79-7.77-3.67-11.28.65-1.52 1.31-3.03 1.99-4.53-1.4-3.65-2.77-7.31-4.24-10.93.62-1.7 1.2-3.42 1.74-5.15 2.92 1.92 6.09 3.48 9.64 3.68l1.83 1.92c1.71-.45 3.4-.92 5.1-1.39-.42 4.26-1.02 8.83.91 12.84.83 2.26 2.74 4.42 1.83 6.97-1.4 4.71-.64 9.59-.56 14.41-4.81-.03-9.63.02-14.44.3 4.15 2.84 9.27 1.77 13.94 1.49-.38 3.48-.08 6.98.33 10.45-9.39-.01-18.8.13-28.12 1.42 4.58 1.81 9.54 1.04 14.34 1.23 4.65.11 9.33.29 13.94-.44 1.75 2.8 2.72 5.95 2.74 9.27.4 1.63-.08 4.55 2.14 4.89 1.74-6.85-2.29-13.48-4.17-19.92-.42-5.4 2.71-10.53 1.6-15.94-.46-3.7 1.14-7.31.74-11.01-.92-2.63-2.85-4.91-2.92-7.81-1.47-7.68 2.2-14.92 2.89-22.44-1.58 1.61-2.81 3.5-3.91 5.46-6.09-2.27-8.47-9.25-14.67-11.31-4.46.01-8.97.95-13.37-.26m32.78-.78c-.61 5.35 1.34 10.91 4.79 14.98.3-5.43-2.44-10.3-4.79-14.98m-46.19 8.93c2.16 2.86 5.12 5.03 8.79 5.35-2.94-1.77-5.48-4.25-8.79-5.35m45.7 19.61c2.59.44 5.06-.45 7.26-1.75-2.39-.22-4.79-.17-7.16-.47-.03.55-.07 1.66-.1 2.22m.95 16.98c1.22-.66 2.44-1.33 3.64-2.03 1.53-3.99 3.22-8.18 2.75-12.55-.42-.42-1.25-1.27-1.67-1.7-.77 5.66-1.31 11.48-4.72 16.28m1.2 1.51c-1.21 4.98 2.05 9.32 3 14.04.57-4.93-.19-9.87-3-14.04m12.38 20.02l.03 2.33c10.63-1.23 21.39.13 32.05-.74 8.54-.62 17.23 0 25.65-1.56-12.03-2.41-24.27-.19-36.4-.09-7.09.23-14.27 1.09-21.33.06m-35.86 9.66c-7.31.28-14.63.57-21.95.27.01.78.02 1.57.05 2.35.38.32 1.15.94 1.53 1.26.03 9.52-.17 19.04.16 28.56.5-.64 1.01-1.28 1.52-1.92 1.9-9.05-.04-18.16.11-27.27 8.22.29 16.35-1.35 24.56-.88 4.8-.69 10.38.5 14.26-3.12-6.74-1.41-13.48.89-20.24.75m44.92 8.03c-.3.95-.59 1.9-.88 2.86.99 4.08.47 8.32 1.18 12.44-.65 1.98-.83 4.07-.68 6.14 3.25.01 6.5.02 9.75 0 .97-1.28 1.94-2.57 2.93-3.85.19-5.43-.52-10.83-.88-16.24-3.45-2.04-7.59-1.75-11.42-1.35m-30.69.46c-3.35 4.66-1.87 10.68-1.53 15.97.06 1.97.58 5.27 3.24 5.02 2.85-.32 6.62 1.02 8.84-1.02-.01-4.32-.8-8.67-.98-13.01.37-2.35.89-4.69.91-7.09-3.45-.2-7.22-1.24-10.48.13m28.06 3.96c-.48 2.74.93 5.33 1.74 7.86-.45-2.48.32-5.99-1.74-7.86m-17.31 5.36c.45 2.61-.07 7.11 3.52 7.59 3.88.17 7.75.98 11.63.75 2.82-.22 2.89-3.93 4.24-5.73-2.23.94-4.18 3.23-6.81 2.82-3.53-.37-7.1-.4-10.6-.99-.75-1.44-1.31-2.96-1.98-4.44z"/><path d="M80.97 113.63c3.27.37 6.21-1.19 9.08-2.49-.34 5.15-2.45 9.9-3.79 14.82-.67 2.9-2.82 5.11-3.82 7.84-.45 3.18-.38 6.62-2.38 9.33-2.69 3.81-4.25 8.49-3.87 13.17-.21 6.28-1.46 12.56-4.04 18.31l-.31-.58c-.31 3.62-1.72 7.18-1.18 10.85.43 3.42 1.25 6.77 1.87 10.16 4.85 1.98 8.55 5.75 12.81 8.65 2.8 2.08 6.44 1.5 9.62 2.53.12 1.13.37 3.4.49 4.54-6.16 3.54-14.19 5.67-20.89 2.34-3.81-1.18-7.89-.89-11.83-.86-2.55-2.03-3.99-5.1-4.39-8.29.1-2.65.91-5.2 1.36-7.8 3.3-12.97-4.3-25.76-1.7-38.77 1.58-5.08 4.01-9.85 6.34-14.62.06 2.22.23 4.44.52 6.64 1.06-2.68.23-5.57.26-8.36-.51-5.57 3.82-10.48 2.26-16.09-1.36-4.67-1.17-9.54-1.31-14.34 4.67 2.15 9.85 2.63 14.9 3.02m-7.36-.27c-.84 5.73-.21 11.64-2.08 17.23l1.65.16c1.03-3.15 2.07-6.38 1.98-9.74-.04-2.61.44-5.58-1.55-7.65m2.92 17.29c-.14-.42-.43-1.27-.57-1.69-.67 2.45-1.37 4.89-1.79 7.4.87-1.55 1.63-3.17 2.56-4.69 3.08.94 5.03-1.84 6.64-3.9-2.4.68-4.58 1.88-6.84 2.88m-4.23 11.19c-.13 2.64-.04 5.28.25 7.9 2.98-1.84 2.34-5.2 1.94-8.16-.55.07-1.64.2-2.19.26m-1.84 31.57c1.38-1.46 1.64-3.44 2.09-5.28.83-4.65 2.92-9.03 2.94-13.81-4.53 5.08-4.64 12.66-5.03 19.09m-1.16 30.06c.88-2.83 1.16-5.8.98-8.75-2.6 2.27-3.44 6.03-.98 8.75m-7.44-6.89c-.38 2.66-.67 5.39-.33 8.09.34 2.25 2.88 2.77 4.56 3.7-2.66-3.49-2.37-7.98-4.23-11.79z"/><path d="M40.14 116.69c7.98-3.94 15.63 5.15 23.68 1.79.24 3.52.66 7.03.84 10.56-3.73-.22-7.33.7-10.5 2.64-2.07 4.25-6.4 6.69-8.81 10.67-1.47 3.23-1.8 6.87-3.47 10.04-1.51.62-3.03 1.24-4.54 1.87-2.99-4.3-.45-9.3-1.04-14.05 1.12-4.33 3.28-8.65 2.26-13.25-.92-3.54.24-7.02 1.58-10.27m3.65 10.13c2.2-1.3 4.21-2.88 6.07-4.62.64.01 1.91.05 2.55.07-.02-.45-.07-1.37-.1-1.83-4.1-.19-6.77 3.09-8.52 6.38zM120.85 152.02c2.15.08 4.29.2 6.44.33.14 2.4.34 4.81.59 7.2-.23 3.51.37 6.97.98 10.41-2.65.02-5.29.03-7.93.11-.65-5.99-1.23-12.07-.08-18.05zM152.2 152.44c2.55-.15 5.1-.32 7.65-.44 1.2 5.94 1.34 12.1.32 18.07-2.31-.06-4.62-.09-6.93-.08.21-5.87.43-11.81-1.04-17.55z"/></g><g fill="#333"><path d="M157.37 32.27c3.93-2.98 8.32-6.21 13.55-5.75 5.38 2.39 9.2 7.14 12.28 12.02.55 2.35.96 4.81.96 7.24-.62 6.94-6.49 11.64-9.42 17.63-3.14.72-6.38 1.54-9.61 1.11-2.96-1.39-5.63-3.53-9.01-3.81-4.24 5.39-3.82 12.64-7.24 18.4.81 4.04 1.44 8.14 1.42 12.27 1.34 1.89 3.13 3.52 4.07 5.66 1.07 3.71 1.72 7.57 3.37 11.09 1.95 3.83 2.7 8.24 5.52 11.6 3.58-1.93 7.65-2.73 11.6-3.48 2.81-.56 5.32.81 7.43 2.5 3.83.03 7.73-.4 11.5.37 6.08 2.13 10.87 7.41 12.68 13.57-.74 2.09-1.24 4.25-1.88 6.37-6.12 2.25-12.68 2.17-19.1 2.24.16 8.57-.44 17.18.63 25.72.17 1.98-.66 3.86-1.33 5.69-.86-10.42-1.45-20.9-1.13-31.36-2.22.12-4.44.22-6.65.32 2.1 8.64.24 17.55.11 26.31l-1.85 1.61c.4-.78.79-1.57 1.19-2.35-.59-8.54-.67-17.11-1.28-25.65-11.33 1.26-22.74 1.05-34.1 1.8 1.12 2.85 2.58 6.02 5.82 6.89 2.12-.08 1.76 4.5-.18 3.08-2.09-1.74-5.51-2.48-6.24-5.4-1.33-5.56-2.48-11.37-1.17-17.05 1.15-5.52 1.6-11.18.97-16.79-.99-.42-1.86-.97-1.6-2.13 1.24-3.2 2.96-6.36 3.03-9.87.28-4.85 1.05-9.66 1.14-14.52.85.01 1.7.03 2.56.04-.06 5.9-1.76 11.58-2.3 17.42-.17 1.81-1.1 3.41-1.64 5.12 1.37 3.25 1.86 6.78 1.62 10.3 2.21-.36 4.45-.56 6.68-.8-2.35-4.06-6.79-7.26-6.72-12.33 5.48 5.35 8.83 12.31 13.79 18.07 3.41 2.86 8.08 2.44 12.22 3.04 2.23.27 3.57-2.4 5.77-2.51 3.53-.1 7.05-.14 10.57-.48-1.72 3.35-5.39 2.83-8.49 2.68-3.02-.33-4.85 3.37-7.91 2.72-3.74-.4-7.49-.74-11.23-1.14-2.4-2.67-4.5-5.58-6.69-8.42-2.01.41-4.09.85-6.14.3-.56.45-1.13.9-1.69 1.36-1.33 5.83-3.28 11.71-2.45 17.78 10.08-.61 20.22.28 30.26-.94 8.99-.3 18-.52 26.97-1.28 2.42-.17 5.63-1.6 5.53-4.46.62-2.4-1.15-4.34-2.44-6.14-1.9-2.23-3.54-4.88-6.2-6.3-3.93-.43-7.87-.73-11.7-1.75 1.02 1.68 2.21 3.4 1.09 5.38-2.25-2.35-4.84-4.31-7.32-6.39-5.14 1-10.24 1.84-15.48 2.14-3.72-3.52-4.3-8.81-6.66-13.14-1.52-4.62-1.24-9.76-3.9-14.03-1.3 1.14-2.47 2.41-3.78 3.54.89-5.15 1.73-10.42.03-15.53-1.54 1.79-3.08 3.6-5.03 4.96 1.33-3.2 3.62-5.86 5.14-8.97.98-3.06 1.69-6.21 2.32-9.36-1.74-2.75-2.15-6.66.28-9.13.88 1.73 1.8 3.44 2.75 5.14.02-.87.04-2.6.06-3.47 1.01-.79 2.02-1.59 3.03-2.38 1.76.27 3.53.44 5.27.85 2.38 1.28 4.32 3.36 6.95 4.19 3.17-.32 6.19-2.26 7.74-5.08 3.08-4.07 4.83-8.89 6.57-13.64.84-1.95-.73-3.79-1.6-5.42-2.87-3.84-4.82-8.97-9.74-10.62-5.4-.66-11.24 2.58-13.28 7.68-1.69 4.64-7.36 4.5-11.43 5.05l.21 2.16c.9-.09 2.71-.25 3.61-.33-1.33 1.52-2.65 3.5-4.95 3.36-6.07-.06-12.34.89-18.22-1.07-3.75-1.07-7.69-.12-11.52-.46 3.18-1.02 6.54-2.45 9.93-1.62 6.23 1.45 12.66.31 18.98 1-3.59-2.89-7.99-4.33-12.43-5.28-2.7-.52-5.26-2.69-8.08-1.55-3.83.61-6.31 3.78-9.58 5.48-4.63 1.81-9.38 3.3-13.98 5.21 1.67.07 3.34.17 5 .28-3.17 1.28-6.27 3.22-9.84 2.87-3.06 1.79-7.82 2.62-7.88 7.1l-1.52 5.73.53-8.44c-3.55.16-7.16.17-10.55 1.39 3.37.7 6.68-.06 9.88-1.13-.19.85-.58 2.54-.78 3.39-1.61-.42-3.22-.83-4.83-1.23-2.2 1.46-4.82 1.77-7.3 2.43-5.16 3.27-10.24 8.13-9.83 14.83-.72-.64-1.45-1.26-2.18-1.88.4-8 7.78-12.32 13.35-16.8 3.62-2.99 8.47-2.77 12.88-2.92 4.14-3.12 9.01-5.04 13.42-7.71 3.52-2.2 7.78-2.6 11.36-4.7 4.81-2.38 9.11-7.03 14.89-6.44 6.04 1.61 12.44 2.41 17.92 5.6 3.05-1.17 6.19-2.08 9.34-2.91 1.5-1.65 1.82-4.07 3.31-5.74z"/><path d="M151.41 46.42c1.22-1.46 2.92-2.35 4.89-2.31-1.62 2.2-3.41 4.27-4.95 6.53.11 2.85-.3 5.82-2.3 8.01-.49.51-1.47 1.53-1.96 2.03 1.35-4.75.39-10.59 4.32-14.26zM106.24 48.25c2.93-1.63.14 3.38 0 0zM115.1 54.81c1.49-.29 2.98-.57 4.48-.83-.94.64-1.87 1.28-2.81 1.92.86 1.58 1.65 3.19 2.37 4.83.43-.72.84-1.45 1.26-2.17l-1.06 4.04 2.98-2.21c-.63.58-1.26 1.16-1.87 1.75 2.28.98 4.5 2.1 6.52 3.54-2 0-3.91-.56-5.75-1.27.24 2.68.36 5.39.07 8.08-2.33-2.97-2.64-6.87-2.58-10.51-2.11-1.86-3.32-4.38-3.61-7.17zM130.99 54.73c3.04 2.23 5.35 5.2 7.05 8.54 2.05-.94 4.26-1.12 6.47-.65-2.21 2.28-5.61 3.15-8.69 2.63-2.21-3.19-3.4-6.95-4.83-10.52z"/><path d="M95.03 66.62c4.4 1.21 8.91.27 13.37.26 6.2 2.06 8.58 9.04 14.67 11.31 1.1-1.96 2.33-3.85 3.91-5.46-.69 7.52-4.36 14.76-2.89 22.44.07 2.9 2 5.18 2.92 7.81.4 3.7-1.2 7.31-.74 11.01 1.11 5.41-2.02 10.54-1.6 15.94 1.88 6.44 5.91 13.07 4.17 19.92-2.22-.34-1.74-3.26-2.14-4.89-.02-3.32-.99-6.47-2.74-9.27-4.61.73-9.29.55-13.94.44-4.8-.19-9.76.58-14.34-1.23 9.32-1.29 18.73-1.43 28.12-1.42-.41-3.47-.71-6.97-.33-10.45-4.67.28-9.79 1.35-13.94-1.49 4.81-.28 9.63-.33 14.44-.3-.08-4.82-.84-9.7.56-14.41.91-2.55-1-4.71-1.83-6.97-1.93-4.01-1.33-8.58-.91-12.84-1.7.47-3.39.94-5.1 1.39l-1.83-1.92c-3.55-.2-6.72-1.76-9.64-3.68-.54 1.73-1.12 3.45-1.74 5.15 1.47 3.62 2.84 7.28 4.24 10.93-.68 1.5-1.34 3.01-1.99 4.53 1.88 3.51 3.53 7.23 3.67 11.28-.86 2.3-1.26 4.82-.13 7.1.03.86.1 2.58.13 3.43-2.38 2.35-4.67 5.41-8.23 5.83-5.41.59-11.05-.66-16.33.97 1.66 4.03-.15 7.94-1.41 11.75-.49.16-1.46.48-1.95.63-1.69 4.16-3.34 8.53-3.33 13.07l1.54-.17c-.7 6.32 1.32 13.3-2.09 19.04.04-1.39.14-2.79.27-4.18-.15-4.11-.06-8.22-.29-12.32-.11 5.51-1.26 10.99-4.2 15.72-1.69 6.13-.11 12.3 1 18.37 3.66 1.74 6.94 4.11 10.08 6.63 3.34 2.77 8.35 1.2 11.66 4.11 2.78 1.59.82 5.01.49 7.37-4.81 6.22-13.32 6.34-20.41 5.25-5.53-4.61-13.72.54-18.81-4.95-.29-5.14-.42-10.33.24-15.44 3.27-12.96-3.96-25.78-2.24-38.82 1.27-5.87 5.09-10.66 7.19-16.19a71.1 71.1 0 012.08-10.73c-3.29-.15-6.33 1.04-9.16 2.61-3 4.34-7.93 7.69-8.61 13.3-.53 3.34-2.41 6.19-4.93 8.38-1.66.02-3.32.11-4.98.24-1.41-2.17-2.78-4.37-4.12-6.58.9-3.65.7-7.5 1.88-11.1.84-2.94 2.34-5.83 1.99-8.99-.41-4.5-1-9.64 1.82-13.53 3.89-3.51 9.92-1.99 14.33-.25 3.4 1.78 7.28 1.65 10.98 2.19.29-2.54.56-5.08.87-7.62-1.07-1.06-2.28-2.03-3.06-3.33-.35-5.81 2.44-12.06-.6-17.5-2.2-3.96-1.55-8.64-.58-12.86l-1.15-.57c1.15.33 2.3.65 3.42 1.07-.38 2.69-.74 5.49.02 8.15.76 3.2 2.93 5.91 3.42 9.19.4 3.84-1.45 7.37-2.09 11.07 1.81 4.24 7.23 3.48 10.98 4.3 5.26 1.11 10.71.44 15.53-1.92-1.47-5.41-1.24-11.29 1.41-16.31 1.05 5.27-.66 10.66.74 15.9-1.16 7.63-1.43 15.82-5.74 22.51 4.57-1.19 9.3-1.06 13.97-1.14 2.31.12 4.01-1.59 5.72-2.85.31-7.21.35-14.49-1.84-21.44-3.04 1.61-6.47 2.34-9.9 2.24 4.1-1.71 8.21-3.52 11.72-6.3-1-.24-3-.73-4-.97.73-.94 1.45-1.89 2.18-2.83-1.79-3.97-4.06-8.22-2.31-12.65-2.86-.95-6.22-.35-8.67-2.37-3.08-1.66-4.53-4.99-6.6-7.64-1.63-2.13-1.45-5.02-1.67-7.53 3.76 2.84 2.53 8.54 6.35 11.23 1.96 1.7 4.41 2.79 7.03 2.79 5.63.26 10.9 2.44 16.11 4.4 2.5.36 5.03-.03 7.55.05.3-1.51.62-3.02.93-4.52-4.79-.84-8.21-4.42-10.97-8.14-.46-.12-1.36-.34-1.82-.46-.95-.87-1.9-1.74-2.86-2.59-4.47.56-8.85-.37-12.92-2.18m-14.06 47.01c-5.05-.39-10.23-.87-14.9-3.02.14 4.8-.05 9.67 1.31 14.34 1.56 5.61-2.77 10.52-2.26 16.09-.03 2.79.8 5.68-.26 8.36-.29-2.2-.46-4.42-.52-6.64-2.33 4.77-4.76 9.54-6.34 14.62-2.6 13.01 5 25.8 1.7 38.77-.45 2.6-1.26 5.15-1.36 7.8.4 3.19 1.84 6.26 4.39 8.29 3.94-.03 8.02-.32 11.83.86 6.7 3.33 14.73 1.2 20.89-2.34-.12-1.14-.37-3.41-.49-4.54-3.18-1.03-6.82-.45-9.62-2.53-4.26-2.9-7.96-6.67-12.81-8.65-.62-3.39-1.44-6.74-1.87-10.16-.54-3.67.87-7.23 1.18-10.85l.31.58c2.58-5.75 3.83-12.03 4.04-18.31-.38-4.68 1.18-9.36 3.87-13.17 2-2.71 1.93-6.15 2.38-9.33 1-2.73 3.15-4.94 3.82-7.84 1.34-4.92 3.45-9.67 3.79-14.82-2.87 1.3-5.81 2.86-9.08 2.49m-40.83 3.06c-1.34 3.25-2.5 6.73-1.58 10.27 1.02 4.6-1.14 8.92-2.26 13.25.59 4.75-1.95 9.75 1.04 14.05 1.51-.63 3.03-1.25 4.54-1.87 1.67-3.17 2-6.81 3.47-10.04 2.41-3.98 6.74-6.42 8.81-10.67 3.17-1.94 6.77-2.86 10.5-2.64-.18-3.53-.6-7.04-.84-10.56-8.05 3.36-15.7-5.73-23.68-1.79zM127.81 65.84c2.35 4.68 5.09 9.55 4.79 14.98-3.45-4.07-5.4-9.63-4.79-14.98z"/><path d="M81.62 74.77c3.31 1.1 5.85 3.58 8.79 5.35-3.67-.32-6.63-2.49-8.79-5.35zM127.32 94.38c.03-.56.07-1.67.1-2.22 2.37.3 4.77.25 7.16.47-2.2 1.3-4.67 2.19-7.26 1.75zM128.27 111.36c3.41-4.8 3.95-10.62 4.72-16.28.42.43 1.25 1.28 1.67 1.7.47 4.37-1.22 8.56-2.75 12.55-1.2.7-2.42 1.37-3.64 2.03zM129.47 112.87c2.81 4.17 3.57 9.11 3 14.04-.95-4.72-4.21-9.06-3-14.04zM73.61 113.36c1.99 2.07 1.51 5.04 1.55 7.65.09 3.36-.95 6.59-1.98 9.74l-1.65-.16c1.87-5.59 1.24-11.5 2.08-17.23zM43.79 126.82c1.75-3.29 4.42-6.57 8.52-6.38.03.46.08 1.38.1 1.83-.64-.02-1.91-.06-2.55-.07-1.86 1.74-3.87 3.32-6.07 4.62zM76.53 130.65c2.26-1 4.44-2.2 6.84-2.88-1.61 2.06-3.56 4.84-6.64 3.9-.93 1.52-1.69 3.14-2.56 4.69.42-2.51 1.12-4.95 1.79-7.4.14.42.43 1.27.57 1.69zM141.85 132.89c7.06 1.03 14.24.17 21.33-.06 12.13-.1 24.37-2.32 36.4.09-8.42 1.56-17.11.94-25.65 1.56-10.66.87-21.42-.49-32.05.74l-.03-2.33zM72.3 141.84c.55-.06 1.64-.19 2.19-.26.4 2.96 1.04 6.32-1.94 8.16a49.61 49.61 0 01-.25-7.9zM105.99 142.55c6.76.14 13.5-2.16 20.24-.75-3.88 3.62-9.46 2.43-14.26 3.12-8.21-.47-16.34 1.17-24.56.88-.15 9.11 1.79 18.22-.11 27.27-.51.64-1.02 1.28-1.52 1.92-.33-9.52-.13-19.04-.16-28.56-.38-.32-1.15-.94-1.53-1.26-.03-.78-.04-1.57-.05-2.35 7.32.3 14.64.01 21.95-.27zM150.91 150.58c3.83-.4 7.97-.69 11.42 1.35.36 5.41 1.07 10.81.88 16.24-.99 1.28-1.96 2.57-2.93 3.85-3.25.02-6.5.01-9.75 0-.15-2.07.03-4.16.68-6.14-.71-4.12-.19-8.36-1.18-12.44.29-.96.58-1.91.88-2.86m1.29 1.86c1.47 5.74 1.25 11.68 1.04 17.55 2.31-.01 4.62.02 6.93.08 1.02-5.97.88-12.13-.32-18.07-2.55.12-5.1.29-7.65.44zM120.22 151.04c3.26-1.37 7.03-.33 10.48-.13-.02 2.4-.54 4.74-.91 7.09.18 4.34.97 8.69.98 13.01-2.22 2.04-5.99.7-8.84 1.02-2.66.25-3.18-3.05-3.24-5.02-.34-5.29-1.82-11.31 1.53-15.97m.63.98c-1.15 5.98-.57 12.06.08 18.05 2.64-.08 5.28-.09 7.93-.11-.61-3.44-1.21-6.9-.98-10.41-.25-2.39-.45-4.8-.59-7.2-2.15-.13-4.29-.25-6.44-.33zM148.28 155c2.06 1.87 1.29 5.38 1.74 7.86-.81-2.53-2.22-5.12-1.74-7.86zM70.46 173.41c.39-6.43.5-14.01 5.03-19.09-.02 4.78-2.11 9.16-2.94 13.81-.45 1.84-.71 3.82-2.09 5.28z"/><path d="M130.97 160.36c.67 1.48 1.23 3 1.98 4.44 3.5.59 7.07.62 10.6.99 2.63.41 4.58-1.88 6.81-2.82-1.35 1.8-1.42 5.51-4.24 5.73-3.88.23-7.75-.58-11.63-.75-3.59-.48-3.07-4.98-3.52-7.59zM69.3 203.47c-2.46-2.72-1.62-6.48.98-8.75.18 2.95-.1 5.92-.98 8.75zM61.86 196.58c1.86 3.81 1.57 8.3 4.23 11.79-1.68-.93-4.22-1.45-4.56-3.7-.34-2.7-.05-5.43.33-8.09z"/></g></svg>