<svg width="227pt" height="300" viewBox="0 0 227 225" xmlns="http://www.w3.org/2000/svg"><g fill="#FFF"><path d="M0 0h227v225H0V0m80.51 10.56c-5.34 5.28-6.52 13.19-7.54 20.28 1.32 3.94 6.05 4.47 8.82 6.99 1.29 1.96 2.53 4.03 4.87 4.91-1.01-2.32-2.3-4.5-3.78-6.54.29-.66.59-1.3.91-1.95 4.5.8 9.08-2.78 9.79-7.17-2.1 1.31-4.02 2.88-5.83 4.56-1.58.05-3.15.09-4.72.13-.67 1.05-1.35 2.08-2.04 3.11-2.74-1.26-5.52-2.77-7-5.53 2.19-5.02 2.86-10.67 6.09-15.22 2.22-3.86 7.34-5.36 11.43-3.82 3.89 1.35 8.13 3.36 10.02 7.26 1.85 4.26.61 9.03-1.17 13.08.1.37.29 1.1.39 1.46 3.12 1.51 6.34 2.83 9.47 4.35-1.93 1.37-4.03 2.56-5.71 4.26-.37 1.23.9 2.01 1.42 2.94.11-.56.35-1.69.47-2.25l.19-.23c2.28-2.14 5.04-4.78 8.46-4.04 3.29.96 5.61 3.6 8.19 5.68 4.11 1.6 8.56 1.91 12.88 2.6 3.58.98 6.62 3.44 10.35 3.99.6.41 1.8 1.22 2.4 1.62.47 5.44-1.71 10.53-2.23 15.85-.55 5.82-4.82 10.34-8.77 14.27-.5.24-1.5.71-2 .94.54 2.39.93 4.83.77 7.29-1.4 1-2.95 1.99-3.4 3.77 1.93-1.13 4.11-1.15 6.25-.97.04.82 0 1.65.04 2.47 5.6 1.62 11.01 3.83 16.5 5.81l-.82 2.06c-8.09-2.75-15.91-6.26-24.02-8.91l.64 2.88.94-1.02.36 2.21c5.48 1.24 10.99 2.62 15.98 5.28-.72 2.29-1.85 4.41-2.85 6.58-.22-.54-.64-1.62-.86-2.16-3.65 2.21-7.1 4.83-9.92 8.05-1.89 2.35-1.38 5.51-.81 8.24.99-2.05 1.5-4.31 2.63-6.28 1.73-2.21 3.96-3.95 5.8-6.06 1.29.18 2.53.61 3.83.74 1.86-2.71 2.95-5.88 4.94-8.51l2.09 1.17c-1.4 4.55-1.57 9.3-1.33 14.03l-1.95.2c.46.07 1.38.23 1.84.31 1.34 4.92 3.86 9.97 8.73 12.23-2.42-3.27-4.93-6.53-6.37-10.38-.68-6.74.03-13.72 2.64-20 3.44-8.48 10.51-16.29 20.14-17.11l.16 1.42c-5.94 1.23-10.59 5.67-13.86 10.55-4.99 8.19-8.1 18.14-5.59 27.69 1.11 4.47 4.57 7.77 8.08 10.52 3.78.81 7.81.97 11.52-.27 2.82-1.36 4.74-3.99 7.34-5.7 3.33-2.16 5.8-5.52 6.82-9.35 3.53 1.03 6.88 2.57 10.3 3.9 3.42 2.11 6.08-4.55 3.13-6.33-3.57-1.94-7.79-2.3-11.35-4.32-5.2-1.55-9.98-4.27-15.3-5.47-.81.63-1.61 1.27-2.42 1.9.34 1.65-.56 4.29 1.71 4.74 4.33 1.91 8.72 3.74 13.27 5.08-3.18 3.25-5.24 7.48-8.87 10.31-3.96 3.21-9.44 5.6-14.48 3.5-4.76-1.05-6.75-6.09-7.92-10.28-1.71-9.83 1.52-20.26 7.87-27.87 3.11-4.14 7.96-6.8 13.04-7.64 4.48.7 9.34 2.82 11.38 7.15 2.49 5.23 2.22 11.29 1.27 16.86.44.15 1.33.43 1.77.58 1.98-7.48 1.61-16.71-4.25-22.39-5.32-2.82-11.18-5.1-17.27-5.41-5.49.47-9.61 4.55-13.23 8.29-2.17 2.23-2.77 6.17-6.21 6.89 1.31-5.51 4.38-10.55 4.47-16.34 1.24-5.38-1.51-10.67-5.35-14.28-1.59-1.2-4.37-2.27-3.9-4.74.12-4.48 3.81-9.85-.1-13.64-2.71-1.85-5.93-2.77-8.78-4.36-5.39-3.19-12.04-2.26-17.68-4.77-2.13-1.16-4.25-2.34-6.39-3.48-1.52-.95-3.16-1.7-4.88-2.2-3.11-1.34-6.38-2.24-9.6-3.27.87-4.73 3.14-9.66 1.26-14.44-1.02-4.45-5.91-6.14-9.64-7.75-4.39-.86-9.67-1.3-13.47 1.47m12.6 22.21c-.57 3.59-1.92 6.98-2.6 10.54 3.78-2.35 4.09-7.09 4.71-11.05-.53.13-1.58.39-2.11.51m-14.05 8.07c1.13 3.48 3.61 6.49 3.84 10.24.66 4.75 2.97 9.24 6.17 12.78-.31 3.17-.66 6.33-1.34 9.45-3.83-.13-7.45-1.38-11.07-2.5.15-4.29.81-8.61-.04-12.88-.61-4.17-2.55-8.92-7-10.17-4.57-1.44-9.19-4.6-14.15-3.15-6.11 2.33-9.99 8.19-12.31 14.04-2.84-1.24-5.92-3.02-9.11-1.77 2.43 1.82 5.57 2.16 8.39 3.1-.18.84-.35 1.68-.52 2.53-2.23-.93-4.48-1.82-6.72-2.69l.84-1.23-3 .32c.2.57.58 1.71.77 2.29 2.62.99 5.25 1.95 7.84 3.01-1.64 4.81-1.36 9.96-.53 14.89.85 4.12 3.8 7.98 8.02 9.02 3.27 1.05 6.1 4.09 9.78 3.18 8.13-.87 12.09-9.04 16.04-15.15 2.71 1.17 5.41 2.38 7.86 4.04.22 1.1.44 2.21.67 3.31 3.87 1.43 7.68 3.21 11.77 3.92 1.94.39 3.75-.5 4.94-2.02 5.8 2.08 11.88 3.56 17.38 6.35-.2.75-.61 2.23-.81 2.98 1.28.35 2.56.73 3.82 1.16-2.81.75-5.98-2.61-8.2.14 3.38.19 6.22 1.97 9.25 3.22-.1-.8-.29-2.41-.39-3.21 1.79.85 3.59 1.7 5.41 2.52-.36.66-.72 1.32-1.07 1.98-1.12-.88-2.23-1.76-3.33-2.65.08 2.3 1.23 5.02-.19 7.14-2.5 2.38-6.31 4.1-6.75 7.93-.48 5.4.46 10.83.98 16.2-.92 2.52-1.89 5.07-3.67 7.12-2.26-7.03-1.93-14.81.91-21.62-1.47-.98-2.4 1.14-2.97 2.14-2.57 6.75-1.57 14.15-.02 21.03 1.12-.53 2.24-1.06 3.37-1.58-.43 5.6-1.58 11.19-1.19 16.82.69 3.27 1.87 6.43 2.26 9.77-.88.54-1.76 1.07-2.65 1.59-5.71-.96-11.93-1.52-17.03 1.8-.19-.23-.58-.69-.77-.92.08.41.25 1.24.33 1.65-2.19-.05-4.39-.11-6.57-.31-1.44-.64-2.89-1.24-4.35-1.8.33-4.76 5.6-4.95 8.76-7.06 5.48-2.69 11.53-7.06 11.75-13.74-.26-5.81 1.32-11.57.55-17.36-.65-3.88.45-7.78.15-11.69-3.92 4.41-2.09 10.68-2.68 16-.72 5.97.37 12.45-2.62 17.94-3.2 4.26-8.21 6.57-12.84 8.94-2.89 1.21-4.44 4.06-6.46 6.27.62 1.33 1.25 2.65 1.9 3.97 2.5.33 4.99 1 7.53.93 5.27-.48 10.27-2.71 15.6-2.66 2.78-.05 5.69.49 8.34-.65 1.34-.89 2.31-2.21 3.39-3.39-3.18-9.43-2.53-19.82.36-29.24 1.62-6.9 0-14.01.22-20.99 1.31-2.55 4.28-3.78 6.22-5.84-.38.66-.77 1.32-1.15 1.98-.73 5.85-2.31 11.82-.84 17.7 2.63 9.85 2.17 20.2 5.02 30 1.58 5.07-.22 10.29-1.67 15.15-2.4 1.63-4.83 3.25-7.02 5.17-3.73 3.63-10.43 2.69-13.15 7.63 2.11 3.94 6.9 4.36 10.72 5.61 4.96 1.62 10-.39 15.04-.08 3.7.13 7.39-.34 11.03-.96 1.86-3.21 2-6.89 1.02-10.4-1.51-5.23-.78-10.71-.94-16.07-.23-5.37 1.43-10.62 1.09-15.99-.58-7.1-3.36-13.87-3.46-21.01.08-4.32 3.41-7.7 4.03-11.83-.21-.01-.63-.04-.85-.05-1.73 2.59-3.6 5.13-4.92 7.97-1.75 5.32-.2 10.92 1.46 16.05 1.81 5.52.25 11.28.24 16.92-.15 6.57-.49 13.19.25 19.74.92 3.72 3.6 8.44.52 11.81-2.31 1.25-5.11.82-7.64 1.08-4.65-.09-9.19 1.11-13.8 1.49-3.64-.96-7.26-2.15-10.67-3.75-.15-.37-.44-1.12-.59-1.5 2.47-1.05 5.19-1.34 7.64-2.44 4.16-2.87 8.49-5.5 12.55-8.51 1.82-.98 1.8-3.26 2.33-5 .81-5.41-.58-10.79-2.34-15.87-1.59-8.7-1.24-17.81-4.3-26.22-2.49-7.14 4.67-14.42.64-21.36.67-.07 2.02-.2 2.69-.27.33-1.26.67-2.51 1.01-3.76 1.21-.06 3.63-.19 4.84-.26-3.46-3.5-9.13-2.83-12.95-5.93 2.65-5.07 6.92-9.12 9.1-14.42-2.93 2.09-4.88 5.16-7.4 7.67-2.47-1.29-5.1-2.2-7.76-2.99 2.4-1.54 4.8-3.14 6.56-5.42 2.58.01 5.12.46 7.6 1.16l-.64-2.45c-5.03-1.56-10.31-.69-15.42-1.53-4.07-.63-7.01-3.76-9.96-6.35 3.1-1.01 6.32-.64 9.41.13 2.42-2.56 5.31-6.32 3.23-9.93-1.09 2.16-1.63 4.62-3.09 6.58-3.66 1.76-8.4 1.95-11.95-.2-2.62-2.66-4.15-6.19-6.75-8.89 1.03 3.65 2.45 7.23 4.74 10.29-3.75-2.27-7.64-4.69-10.09-8.42-1.35-3.46-1.56-7.22-2.56-10.76-1.21-2.28-2.93-4.38-2.93-7.11l-2.98.16m9.15 9.61c.37-.01 1.12-.04 1.49-.06 1.84-3.75 7.4-2.44 8.89-6.45-3.8 1.36-9.4 1.74-10.38 6.51m39.67-4.73c.65 1.45 1.05 3.13 2.24 4.27 2.61.47 5.29.23 7.93.09-2.01-.66-4.04-1.27-6.07-1.83-1.33-.9-2.69-1.76-4.1-2.53m-12.56 4.26c1.32 1.46 5.12 3.33 4.92-.17-1.64-.25-3.29-.04-4.92.17m-16.6.02c1.6 3.06 4.66 4.76 7.54 6.42.39 1.61 1.45 2.76 2.98 3.44-.18-.75-.54-2.23-.72-2.98 1.73-.09 3.45-.18 5.18-.29 4.12 3.9 9.6 6.26 15.34 5.99l.44-2.36c-4.9.89-9.39-1.16-13.32-3.84l-.28-3.34c-2.9-.32-5.74 2.47-8.76 1.35-2.84-1.4-5.29-3.54-8.4-4.39m23.24 2.13c1.46 3.24 4.5 5.16 7.45 6.88.45.91.91 1.81 1.4 2.7 1.35-1.27 2.72-2.51 4.12-3.71l-1.68 1.04c-.02-1.73-.03-3.45-.12-5.18-.54.82-1.6 2.45-2.14 3.26-3.17-1.37-6.1-3.19-9.03-4.99m15.22 12.91c2.29-4.07 5.92-7.3 7.44-11.78-5.01 1.47-6.03 7.44-7.44 11.78m-2.98-4.4c-1.95 4.9-1.97 10.31-3.95 15.21-.59 1.46-.8 3.02-.88 4.58 5.95-4.69 5.7-13.01 4.83-19.79m-29.22 38.38c-3.7 4.82-2.31 11.28-2.2 16.89.79-.79 1.57-1.59 2.35-2.38-2.57-5.45.03-12.63 4.92-15.69l-1.53.4c.31-.8.93-2.38 1.24-3.18.72.16 1.44.33 2.17.49.36-.7.73-1.39 1.1-2.08-1.37-.5-2.71-1.05-4.1-1.48-1.22 2.4-2.32 4.86-3.95 7.03m25.56 1.01c4.51 1.77 8.54 4.49 12.42 7.35.69-.46 1.37-.91 2.05-1.37-3.7-3.69-8.93-7.71-14.47-5.98m-18.29 3.52c-1.14-.74-2.28-1.47-3.42-2.2-.13 1.2-.24 2.4-.34 3.61l1.8-.45c-1.23 2.68-2.6 5.45-2.54 8.47.65.33 1.31.64 1.98.93.42-2.05.83-4.1 1.45-6.11-.19-.62-.57-1.88-.76-2.5 3.35.82 6.68-1.53 6.43-5.04-1.56 1.05-3.07 2.18-4.6 3.29m14.86 7.47c1.42 2.7 3.05 5.38 2.58 8.6.92-1.54 1.81-3.1 2.71-4.65-1.53-1.57-2.73-4.15-5.29-3.95m.33 17.82c.43 1.82 1.83 3.19 2.92 4.65-.19-1.82-.45-3.63-.74-5.43.49-1.59.94-3.19 1.35-4.8-2.49.62-3.59 3.23-3.53 5.58m9.2 26.54c2.65-6.08.64-12.8-1.16-18.81.69 6.25.43 12.56 1.16 18.81m-6.91-10.85c.46 1.55 1.52 2.8 2.36 4.15.04-3.71.01-7.43-.3-11.13-.88 2.25-2.49 4.45-2.06 6.98m-26.83 8.42c-2.94 3.04-7.42 4.39-9.56 8.23 3.91-.88 7.05-3.52 10.2-5.83 1.67-1.19 2.72-3.06 3.01-5.09-1.64.15-2.51 1.71-3.65 2.69m7.71 3.35c-.75.86-1.5 1.72-2.25 2.59.31.39.94 1.19 1.25 1.59 1.99-1.77 4.95-5.15 1.48-7.15l-.48 2.97m26.65 14.69c-.03 1.68-.05 3.37-.04 5.07-.89 1.69-1.64 3.46-2.1 5.32 1.67-1.13 3.34-2.43 4.22-4.29.49-2.3-.87-4.31-2.08-6.1z"/><path d="M45.89 56.91c2.78-6.05 8.45-11.71 15.61-11.13-9.73 4.35-14.96 14.99-15.89 25.17-.14 5.75-.08 11.91 3.52 16.74-.79-.42-2.37-1.27-3.17-1.69-4.91-8.96-4.81-20.08-.07-29.09z"/><path d="M54.38 53.44c2.39-3.19 6.17-4.67 9.83-5.86 3.06 1.02 6.87 1.48 8.59 4.6 3.12 5.31 2.85 11.84 1.65 17.67-3.1-1.05-6.12-2.83-9.46-2.93-2.16 1.03-2.8 3.24-1.56 5.25 3.07 1.07 6.11 2.28 9.22 3.24-2.41 6.98-7.91 13.25-15.56 14.23-3.81-1.43-7.57-3.77-8.77-7.92-2.68-9.65-.09-20.47 6.06-28.28zM90.39 72.55c1.35-2.2.45-4.88.39-7.28 2.15 1.31 4.33 2.57 6.55 3.76.38 1.22.76 2.44 1.13 3.67-.85.01-2.57.04-3.43.05 2.09 1.73 4.67 2.52 7.28 3.09-1.16-1.81-1.97-3.78-2.52-5.85 2.9 2.51 5.68 5.36 9.33 6.75 2.76.82 5.66 1.06 8.48 1.66-1.89 1.38-3.76 2.78-5.49 4.36-3.44-1.04-6.85-2.2-10.23-3.44.54-.31 1.6-.93 2.13-1.24-1.24-.63-3.73-1.9-4.98-2.54.55 1.04 1.07 2.1 1.57 3.17-2.91-.56-5.47.62-7.77 2.27 1.47 1.64 3.04 3.19 4.53 4.81-4.43-.23-8.58-1.99-12.25-4.4 1.57-3.05 3.51-5.9 5.28-8.84z"/><path d="M63.6 69.68c1.57-.66 3.26-.81 4.82-.03 6.03 2.2 12.02 4.53 18.17 6.38-.6.42-1.81 1.28-2.41 1.7-6.91-2.54-13.94-4.88-20.58-8.05zM150.08 67.76c4.45 1.79 5.77 6.52 7.16 10.61-.47 2.84-.4 5.74-.91 8.57-1.11 3.31-2.54 6.5-3.7 9.8-3.08-1.11-6.08-2.43-9.2-3.42-1.81-1.26-3.74-2.35-5.7-3.35.83-3.49 1.67-7.02 4.03-9.85 3.05-3.9 6.57-7.67 8.32-12.36zM95.63 81.36l2.1-1.08c7.84 2.45 15.66 4.97 23.51 7.38l-1.35 2.07c-8.05-2.9-16.17-5.58-24.26-8.37zM178.63 109c1.02.37 2.03.74 3.04 1.13 7.78 2.37 15.28 5.54 23.04 7.97-.09.73-.28 2.2-.38 2.93-8.68-3.14-17.13-6.91-25.87-9.88.04-.54.13-1.61.17-2.15z"/></g><g fill="#333"><path d="M80.51 10.56c3.8-2.77 9.08-2.33 13.47-1.47 3.73 1.61 8.62 3.3 9.64 7.75 1.88 4.78-.39 9.71-1.26 14.44 3.22 1.03 6.49 1.93 9.6 3.27 1.72.5 3.36 1.25 4.88 2.2 2.14 1.14 4.26 2.32 6.39 3.48 5.64 2.51 12.29 1.58 17.68 4.77 2.85 1.59 6.07 2.51 8.78 4.36 3.91 3.79.22 9.16.1 13.64-.47 2.47 2.31 3.54 3.9 4.74 3.84 3.61 6.59 8.9 5.35 14.28-.09 5.79-3.16 10.83-4.47 16.34 3.44-.72 4.04-4.66 6.21-6.89 3.62-3.74 7.74-7.82 13.23-8.29 6.09.31 11.95 2.59 17.27 5.41 5.86 5.68 6.23 14.91 4.25 22.39-.44-.15-1.33-.43-1.77-.58.95-5.57 1.22-11.63-1.27-16.86-2.04-4.33-6.9-6.45-11.38-7.15-5.08.84-9.93 3.5-13.04 7.64-6.35 7.61-9.58 18.04-7.87 27.87 1.17 4.19 3.16 9.23 7.92 10.28 5.04 2.1 10.52-.29 14.48-3.5 3.63-2.83 5.69-7.06 8.87-10.31-4.55-1.34-8.94-3.17-13.27-5.08-2.27-.45-1.37-3.09-1.71-4.74.81-.63 1.61-1.27 2.42-1.9 5.32 1.2 10.1 3.92 15.3 5.47 3.56 2.02 7.78 2.38 11.35 4.32 2.95 1.78.29 8.44-3.13 6.33-3.42-1.33-6.77-2.87-10.3-3.9-1.02 3.83-3.49 7.19-6.82 9.35-2.6 1.71-4.52 4.34-7.34 5.7-3.71 1.24-7.74 1.08-11.52.27-3.51-2.75-6.97-6.05-8.08-10.52-2.51-9.55.6-19.5 5.59-27.69 3.27-4.88 7.92-9.32 13.86-10.55l-.16-1.42c-9.63.82-16.7 8.63-20.14 17.11-2.61 6.28-3.32 13.26-2.64 20 1.44 3.85 3.95 7.11 6.37 10.38-4.87-2.26-7.39-7.31-8.73-12.23-.46-.08-1.38-.24-1.84-.31l1.95-.2c-.24-4.73-.07-9.48 1.33-14.03l-2.09-1.17c-1.99 2.63-3.08 5.8-4.94 8.51-1.3-.13-2.54-.56-3.83-.74-1.84 2.11-4.07 3.85-5.8 6.06-1.13 1.97-1.64 4.23-2.63 6.28-.57-2.73-1.08-5.89.81-8.24 2.82-3.22 6.27-5.84 9.92-8.05.22.54.64 1.62.86 2.16 1-2.17 2.13-4.29 2.85-6.58-4.99-2.66-10.5-4.04-15.98-5.28l-.36-2.21-.94 1.02-.64-2.88c8.11 2.65 15.93 6.16 24.02 8.91l.82-2.06c-5.49-1.98-10.9-4.19-16.5-5.81-.04-.82 0-1.65-.04-2.47-2.14-.18-4.32-.16-6.25.97.45-1.78 2-2.77 3.4-3.77.16-2.46-.23-4.9-.77-7.29.5-.23 1.5-.7 2-.94 3.95-3.93 8.22-8.45 8.77-14.27.52-5.32 2.7-10.41 2.23-15.85-.6-.4-1.8-1.21-2.4-1.62-3.73-.55-6.77-3.01-10.35-3.99-4.32-.69-8.77-1-12.88-2.6-2.58-2.08-4.9-4.72-8.19-5.68-3.42-.74-6.18 1.9-8.46 4.04l-.19.23c-.12.56-.36 1.69-.47 2.25-.52-.93-1.79-1.71-1.42-2.94 1.68-1.7 3.78-2.89 5.71-4.26-3.13-1.52-6.35-2.84-9.47-4.35-.1-.36-.29-1.09-.39-1.46 1.78-4.05 3.02-8.82 1.17-13.08-1.89-3.9-6.13-5.91-10.02-7.26-4.09-1.54-9.21-.04-11.43 3.82-3.23 4.55-3.9 10.2-6.09 15.22 1.48 2.76 4.26 4.27 7 5.53.69-1.03 1.37-2.06 2.04-3.11 1.57-.04 3.14-.08 4.72-.13 1.81-1.68 3.73-3.25 5.83-4.56-.71 4.39-5.29 7.97-9.79 7.17-.32.65-.62 1.29-.91 1.95 1.48 2.04 2.77 4.22 3.78 6.54-2.34-.88-3.58-2.95-4.87-4.91-2.77-2.52-7.5-3.05-8.82-6.99 1.02-7.09 2.2-15 7.54-20.28m69.57 57.2c-1.75 4.69-5.27 8.46-8.32 12.36-2.36 2.83-3.2 6.36-4.03 9.85 1.96 1 3.89 2.09 5.7 3.35 3.12.99 6.12 2.31 9.2 3.42 1.16-3.3 2.59-6.49 3.7-9.8.51-2.83.44-5.73.91-8.57-1.39-4.09-2.71-8.82-7.16-10.61M178.63 109c-.04.54-.13 1.61-.17 2.15 8.74 2.97 17.19 6.74 25.87 9.88.1-.73.29-2.2.38-2.93-7.76-2.43-15.26-5.6-23.04-7.97-1.01-.39-2.02-.76-3.04-1.13z"/><path d="M93.11 32.77c.53-.12 1.58-.38 2.11-.51-.62 3.96-.93 8.7-4.71 11.05.68-3.56 2.03-6.95 2.6-10.54zM79.06 40.84l2.98-.16c0 2.73 1.72 4.83 2.93 7.11 1 3.54 1.21 7.3 2.56 10.76 2.45 3.73 6.34 6.15 10.09 8.42-2.29-3.06-3.71-6.64-4.74-10.29 2.6 2.7 4.13 6.23 6.75 8.89 3.55 2.15 8.29 1.96 11.95.2 1.46-1.96 2-4.42 3.09-6.58 2.08 3.61-.81 7.37-3.23 9.93-3.09-.77-6.31-1.14-9.41-.13 2.95 2.59 5.89 5.72 9.96 6.35 5.11.84 10.39-.03 15.42 1.53l.64 2.45c-2.48-.7-5.02-1.15-7.6-1.16-1.76 2.28-4.16 3.88-6.56 5.42 2.66.79 5.29 1.7 7.76 2.99 2.52-2.51 4.47-5.58 7.4-7.67-2.18 5.3-6.45 9.35-9.1 14.42 3.82 3.1 9.49 2.43 12.95 5.93-1.21.07-3.63.2-4.84.26-.34 1.25-.68 2.5-1.01 3.76-.67.07-2.02.2-2.69.27 4.03 6.94-3.13 14.22-.64 21.36 3.06 8.41 2.71 17.52 4.3 26.22 1.76 5.08 3.15 10.46 2.34 15.87-.53 1.74-.51 4.02-2.33 5-4.06 3.01-8.39 5.64-12.55 8.51-2.45 1.1-5.17 1.39-7.64 2.44.15.38.44 1.13.59 1.5 3.41 1.6 7.03 2.79 10.67 3.75 4.61-.38 9.15-1.58 13.8-1.49 2.53-.26 5.33.17 7.64-1.08 3.08-3.37.4-8.09-.52-11.81-.74-6.55-.4-13.17-.25-19.74.01-5.64 1.57-11.4-.24-16.92-1.66-5.13-3.21-10.73-1.46-16.05 1.32-2.84 3.19-5.38 4.92-7.97.22.01.64.04.85.05-.62 4.13-3.95 7.51-4.03 11.83.1 7.14 2.88 13.91 3.46 21.01.34 5.37-1.32 10.62-1.09 15.99.16 5.36-.57 10.84.94 16.07.98 3.51.84 7.19-1.02 10.4-3.64.62-7.33 1.09-11.03.96-5.04-.31-10.08 1.7-15.04.08-3.82-1.25-8.61-1.67-10.72-5.61 2.72-4.94 9.42-4 13.15-7.63 2.19-1.92 4.62-3.54 7.02-5.17 1.45-4.86 3.25-10.08 1.67-15.15-2.85-9.8-2.39-20.15-5.02-30-1.47-5.88.11-11.85.84-17.7.38-.66.77-1.32 1.15-1.98-1.94 2.06-4.91 3.29-6.22 5.84-.22 6.98 1.4 14.09-.22 20.99-2.89 9.42-3.54 19.81-.36 29.24-1.08 1.18-2.05 2.5-3.39 3.39-2.65 1.14-5.56.6-8.34.65-5.33-.05-10.33 2.18-15.6 2.66-2.54.07-5.03-.6-7.53-.93-.65-1.32-1.28-2.64-1.9-3.97 2.02-2.21 3.57-5.06 6.46-6.27 4.63-2.37 9.64-4.68 12.84-8.94 2.99-5.49 1.9-11.97 2.62-17.94.59-5.32-1.24-11.59 2.68-16 .3 3.91-.8 7.81-.15 11.69.77 5.79-.81 11.55-.55 17.36-.22 6.68-6.27 11.05-11.75 13.74-3.16 2.11-8.43 2.3-8.76 7.06 1.46.56 2.91 1.16 4.35 1.8 2.18.2 4.38.26 6.57.31-.08-.41-.25-1.24-.33-1.65.19.23.58.69.77.92 5.1-3.32 11.32-2.76 17.03-1.8.89-.52 1.77-1.05 2.65-1.59-.39-3.34-1.57-6.5-2.26-9.77-.39-5.63.76-11.22 1.19-16.82-1.13.52-2.25 1.05-3.37 1.58-1.55-6.88-2.55-14.28.02-21.03.57-1 1.5-3.12 2.97-2.14-2.84 6.81-3.17 14.59-.91 21.62 1.78-2.05 2.75-4.6 3.67-7.12-.52-5.37-1.46-10.8-.98-16.2.44-3.83 4.25-5.55 6.75-7.93 1.42-2.12.27-4.84.19-7.14 1.1.89 2.21 1.77 3.33 2.65.35-.66.71-1.32 1.07-1.98-1.82-.82-3.62-1.67-5.41-2.52.1.8.29 2.41.39 3.21-3.03-1.25-5.87-3.03-9.25-3.22 2.22-2.75 5.39.61 8.2-.14-1.26-.43-2.54-.81-3.82-1.16.2-.75.61-2.23.81-2.98-5.5-2.79-11.58-4.27-17.38-6.35-1.19 1.52-3 2.41-4.94 2.02-4.09-.71-7.9-2.49-11.77-3.92-.23-1.1-.45-2.21-.67-3.31-2.45-1.66-5.15-2.87-7.86-4.04-3.95 6.11-7.91 14.28-16.04 15.15-3.68.91-6.51-2.13-9.78-3.18-4.22-1.04-7.17-4.9-8.02-9.02-.83-4.93-1.11-10.08.53-14.89-2.59-1.06-5.22-2.02-7.84-3.01-.19-.58-.57-1.72-.77-2.29l3-.32-.84 1.23c2.24.87 4.49 1.76 6.72 2.69.17-.85.34-1.69.52-2.53-2.82-.94-5.96-1.28-8.39-3.1 3.19-1.25 6.27.53 9.11 1.77 2.32-5.85 6.2-11.71 12.31-14.04 4.96-1.45 9.58 1.71 14.15 3.15 4.45 1.25 6.39 6 7 10.17.85 4.27.19 8.59.04 12.88 3.62 1.12 7.24 2.37 11.07 2.5.68-3.12 1.03-6.28 1.34-9.45-3.2-3.54-5.51-8.03-6.17-12.78-.23-3.75-2.71-6.76-3.84-10.24M45.89 56.91c-4.74 9.01-4.84 20.13.07 29.09.8.42 2.38 1.27 3.17 1.69-3.6-4.83-3.66-10.99-3.52-16.74.93-10.18 6.16-20.82 15.89-25.17-7.16-.58-12.83 5.08-15.61 11.13m8.49-3.47c-6.15 7.81-8.74 18.63-6.06 28.28 1.2 4.15 4.96 6.49 8.77 7.92 7.65-.98 13.15-7.25 15.56-14.23-3.11-.96-6.15-2.17-9.22-3.24-1.24-2.01-.6-4.22 1.56-5.25 3.34.1 6.36 1.88 9.46 2.93 1.2-5.83 1.47-12.36-1.65-17.67-1.72-3.12-5.53-3.58-8.59-4.6-3.66 1.19-7.44 2.67-9.83 5.86m36.01 19.11c-1.77 2.94-3.71 5.79-5.28 8.84 3.67 2.41 7.82 4.17 12.25 4.4-1.49-1.62-3.06-3.17-4.53-4.81 2.3-1.65 4.86-2.83 7.77-2.27a71.78 71.78 0 00-1.57-3.17c1.25.64 3.74 1.91 4.98 2.54-.53.31-1.59.93-2.13 1.24 3.38 1.24 6.79 2.4 10.23 3.44 1.73-1.58 3.6-2.98 5.49-4.36-2.82-.6-5.72-.84-8.48-1.66-3.65-1.39-6.43-4.24-9.33-6.75.55 2.07 1.36 4.04 2.52 5.85-2.61-.57-5.19-1.36-7.28-3.09.86-.01 2.58-.04 3.43-.05-.37-1.23-.75-2.45-1.13-3.67-2.22-1.19-4.4-2.45-6.55-3.76.06 2.4.96 5.08-.39 7.28M63.6 69.68c6.64 3.17 13.67 5.51 20.58 8.05.6-.42 1.81-1.28 2.41-1.7-6.15-1.85-12.14-4.18-18.17-6.38-1.56-.78-3.25-.63-4.82.03m32.03 11.68c8.09 2.79 16.21 5.47 24.26 8.37l1.35-2.07c-7.85-2.41-15.67-4.93-23.51-7.38l-2.1 1.08z"/><path d="M88.21 50.45c.98-4.77 6.58-5.15 10.38-6.51-1.49 4.01-7.05 2.7-8.89 6.45-.37.02-1.12.05-1.49.06zM127.88 45.72c1.41.77 2.77 1.63 4.1 2.53 2.03.56 4.06 1.17 6.07 1.83-2.64.14-5.32.38-7.93-.09-1.19-1.14-1.59-2.82-2.24-4.27zM115.32 49.98c1.63-.21 3.28-.42 4.92-.17.2 3.5-3.6 1.63-4.92.17zM98.72 50c3.11.85 5.56 2.99 8.4 4.39 3.02 1.12 5.86-1.67 8.76-1.35l.28 3.34c3.93 2.68 8.42 4.73 13.32 3.84l-.44 2.36c-5.74.27-11.22-2.09-15.34-5.99-1.73.11-3.45.2-5.18.29.18.75.54 2.23.72 2.98-1.53-.68-2.59-1.83-2.98-3.44-2.88-1.66-5.94-3.36-7.54-6.42z"/><path d="M121.96 52.13c2.93 1.8 5.86 3.62 9.03 4.99.54-.81 1.6-2.44 2.14-3.26.09 1.73.1 3.45.12 5.18l1.68-1.04c-1.4 1.2-2.77 2.44-4.12 3.71-.49-.89-.95-1.79-1.4-2.7-2.95-1.72-5.99-3.64-7.45-6.88zM137.18 65.04c1.41-4.34 2.43-10.31 7.44-11.78-1.52 4.48-5.15 7.71-7.44 11.78zM134.2 60.64c.87 6.78 1.12 15.1-4.83 19.79.08-1.56.29-3.12.88-4.58 1.98-4.9 2-10.31 3.95-15.21zM104.98 99.02c1.63-2.17 2.73-4.63 3.95-7.03 1.39.43 2.73.98 4.1 1.48-.37.69-.74 1.38-1.1 2.08-.73-.16-1.45-.33-2.17-.49-.31.8-.93 2.38-1.24 3.18l1.53-.4c-4.89 3.06-7.49 10.24-4.92 15.69-.78.79-1.56 1.59-2.35 2.38-.11-5.61-1.5-12.07 2.2-16.89zM130.54 100.03c5.54-1.73 10.77 2.29 14.47 5.98-.68.46-1.36.91-2.05 1.37-3.88-2.86-7.91-5.58-12.42-7.35z"/><path d="M112.25 103.55c1.53-1.11 3.04-2.24 4.6-3.29.25 3.51-3.08 5.86-6.43 5.04.19.62.57 1.88.76 2.5-.62 2.01-1.03 4.06-1.45 6.11-.67-.29-1.33-.6-1.98-.93-.06-3.02 1.31-5.79 2.54-8.47l-1.8.45c.1-1.21.21-2.41.34-3.61 1.14.73 2.28 1.46 3.42 2.2zM127.11 111.02c2.56-.2 3.76 2.38 5.29 3.95-.9 1.55-1.79 3.11-2.71 4.65.47-3.22-1.16-5.9-2.58-8.6zM127.44 128.84c-.06-2.35 1.04-4.96 3.53-5.58-.41 1.61-.86 3.21-1.35 4.8.29 1.8.55 3.61.74 5.43-1.09-1.46-2.49-2.83-2.92-4.65zM136.64 155.38c-.73-6.25-.47-12.56-1.16-18.81 1.8 6.01 3.81 12.73 1.16 18.81zM129.73 144.53c-.43-2.53 1.18-4.73 2.06-6.98.31 3.7.34 7.42.3 11.13-.84-1.35-1.9-2.6-2.36-4.15zM102.9 152.95c1.14-.98 2.01-2.54 3.65-2.69-.29 2.03-1.34 3.9-3.01 5.09-3.15 2.31-6.29 4.95-10.2 5.83 2.14-3.84 6.62-5.19 9.56-8.23zM110.61 156.3l.48-2.97c3.47 2 .51 5.38-1.48 7.15-.31-.4-.94-1.2-1.25-1.59.75-.87 1.5-1.73 2.25-2.59zM137.26 170.99c1.21 1.79 2.57 3.8 2.08 6.1-.88 1.86-2.55 3.16-4.22 4.29.46-1.86 1.21-3.63 2.1-5.32-.01-1.7.01-3.39.04-5.07z"/></g></svg>