<svg width="276" height="275pt" viewBox="0 0 207 275" xmlns="http://www.w3.org/2000/svg"><g fill="#FFF"><path d="M0 0h207v275H0V0m128.03 63.88c-4.26.62-6.34 5.03-7.03 8.83 2.57-2.87 3.76-6.92 7.6-8.56 10 3.88 12.69 17.55 7.79 26.3-1.5 2.97-4.89 3.57-7.92 3.59.84 2.36 3.71 1.91 5.46.96 3.38-1.76 5-5.56 5.77-9.1 1.27-6.85-.25-14.4-4.84-19.77-1.67-1.86-4.33-3.17-6.83-2.25m-25.64 7.42c-3.18 2.53-4.39 6.72-4.9 10.6-.66 7.27 1.56 15.47 7.78 19.86 1.34 2.27 2.66 4.55 3.73 6.96-.69-.03-2.07-.08-2.76-.11.01.35.04 1.06.06 1.41 2.31-.44 4.4-1.63 6.7-2.09 3.55.04 3.48 5.17 6.67 5.7-1.12-2.46-2.87-4.52-4.68-6.49.76-.99 1.53-1.98 2.3-2.96 1-2.43 1.24-5.03.46-7.57-.64 3.33-1.42 6.63-2.7 9.78-1.76-.1-3.5.11-5.14.79-1.03-1.81-1.87-3.84-3.72-5.01 3.84 1.41 7.55-1.43 9.29-4.65 2.94-4.61 2.86-10.36 2.02-15.58l2.16.78c-.17 1.01-.51 3.02-.69 4.03 3.12-1.06 1.46-7.85-1.73-4.95-.17-.59-.5-1.78-.67-2.37 2.2-.04 4.37-.35 6.56-.53 1.9.47 3.11 2.28 4.57 3.46.06 2.18-.19 4.4-.76 6.51-2.6.49-5.2.92-7.82 1.28 1.02 3.44 1.15 7.02 1.54 10.56.97-3.2.94-6.68-.49-9.75.66.05 2 .14 2.66.19 1.04 1.85.33 4.06.56 6.08.79-2.19-.39-5.68 2.23-6.65.85 6.12 1.21 12.29 1.94 18.42.57 3.75-1.03 7.33-1.44 11.01-.4 1.49-.18 3.83-2.19 4.18-4.45 2.07-8.83-.47-12.71-2.51 3.14-1.13 7.24-1.44 7.97-5.42-1.76 1.27-3.69 3.09-6.05 2.37-4.07-.24-5.76-4.4-7.12-7.62.12.68.36 2.04.49 2.72-.89-.01-2.65-.01-3.53-.01-.83.79-1.67 1.57-2.54 2.32-.84-2.24.87-6.74-2.13-7.52.13 2.28.46 4.55.46 6.84-1.55.26-3.11.44-4.62.87-2.48 1.52-3.55 4.44-4.8 6.91 2.23-1.14 3.31-3.39 4.74-5.3 1.53-.47 3.12-.7 4.69-1.05 2.31-1.03 4.77-1.69 7.15-2.55 1.04 1.29 1.79 2.77 2.7 4.14.86.98 2.68 1.81 1.71 3.35 1.37 1.17 2.78 2.3 4.14 3.5-1.8.19-3.48-.27-5.09-.98.74.99 1.28 2.95-.05 3.74-3.76.39-7.63 1.42-10.73 3.67-3.81 3.2-8.29 6.01-10.23 10.83-2.59-3.84-6.93-5.84-10.43-8.69-4.06-2.25-8.61-3.46-12.79-5.5.52-2.14 1.06-4.28 1.44-6.45-3.05 4.25-2.18 10.04-5.35 14.23-3.11 4-6.03 8.99-11.46 9.96-2.06-2.57-4.19-5.08-6.26-7.63-3.82-5.63-3.42-12.67-3.78-19.15.3-.61.89-1.84 1.19-2.46.99.44 1.99.87 3 1.27l-.86-2.47 1.94-1.13c-.76.34-2.29 1.04-3.06 1.39 1.83-4.37 2.49-9.22 1.55-13.89.52-.74 1.02-.79 1.5-.14 1.05 2.93 4.84.88 5.32-1.43-1.7.85-3.46 2.27-4.75.05-2.8.03-3.32-2.19-3.56-4.65 1.19-.09 2.36-.29 3.51-.61 1.42-.1 2.83-.17 4.25-.22.28.45.85 1.35 1.13 1.8a60.84 60.84 0 00-5.2 2.36c2.22.53 4.35-1.69 6.44-.51 1.01 2.25.71 4.84.67 7.25-.53 1.89-3.74 1.84-3.72 3.89.16.23.49.68.65.9-.51.92-1.03 1.83-1.56 2.74.5 2.94.79 5.94 1.61 8.81 1.74 2.89 4.27 5.21 6.26 7.93-.96-2.22-.68-7.11-4.07-6.65.13-.98.3-1.96.51-2.93 2.05-1.73 4.86-.78 7.28-.71 1.43-.63 2.87-1.28 4.13-2.21-2.72-1.7-6.72 4.1-7.98-.85-.59-.78-1.18-1.55-1.79-2.3 3.13.23 6.63.12 8.8-2.51 3.76-3.2 2.41-9.54 6.96-11.96 3.31-2.36 7.39-3.01 11.23-4.02 2.39-.59 5.37 1.59 7.21-.84-3.47-.09-6.94-.1-10.41-.12-4.11.58-8.11 2.53-10.88 5.65.1-5.81-1.05-12.2-5.41-16.4-1.77-1.9-4.39-3.61-7.08-2.64-4.35.49-6.8 4.83-7.53 8.75 2.74-2.74 3.89-6.94 7.93-8.36 2.08 1.21 4.44 2.12 6.08 3.96 4.62 5.02 5.35 12.57 3.93 18.99-.91 4.39-4.95 8.85-9.82 7.48-.64 1.01-1.37 1.97-2.17 2.87.61.6 1.21 1.21 1.82 1.82-1.87.95-3.15 2.4-3.85 4.36-1.28-3.78-1.45-7.73-.76-11.64 1.41-.99 3.61-1.56 4.03-3.46.56-4.39-1.2-8.68-3.28-12.43-3.15-1.76-6.83-.27-10.08.41-.88-3.4-3.96-6.07-7.33-6.84-3.1-.18-6.32 1.22-7.95 3.93-3.44 5.43-3.55 12.36-2.05 18.43 1.23 4.28 3.47 8.76 7.61 10.84 2.36 1.38 5.12-.24 7.57.79-.62 5.96.17 12.19 3.22 17.42 2.17 2.72 5.02 4.97 6.35 8.3 5.32 1.73 8.61-3.4 11.31-7.01-1.21 6.94.87 13.82 1.24 20.73.11 3.28.67 6.5 1.17 9.73-6.94 3.11-13.9 6.22-20.64 9.75-.15 2.56-.12 5.19.43 7.71 1.54 2.8 4.21 4.76 6.91 6.36 5.98-3.04 12.03-5.95 17.53-9.84-.91-.72-1.84-.81-2.78-.27-4.87 2.64-9.63 5.5-14.73 7.66-4.09-1.64-6.06-5.81-5.95-10.06 6.09-3.55 12.61-6.25 18.95-9.31.9-.67 2.91-1.05 2.35-2.6-.91-7.74-1.98-15.47-3.07-23.2-.39-3.82-.83-8.15 2.06-11.18 2.66 2.26 4.61 5.21 6.99 7.75-.64-.1-1.93-.31-2.57-.41 1.64 8.4 2.33 16.95 4.31 25.29 3.41-1.56 6.75-3.28 10.25-4.63.18-.55.55-1.64.73-2.19-3.34 1.42-6.41 3.4-9.51 5.28-1.54-7.28-1.84-14.79-4.03-21.93.55-.38 1.1-.76 1.64-1.15.96 1.76 2.5 3.07 3.91 4.45 6.22 5.88 10.6 13.39 16.83 19.26 3.12 2.48 2.81 7.87 7.26 8.85-2.73-5.51-6.05-11.8-4.09-18.05a26.07 26.07 0 00-1.87-2.67c-1.56-5.63 1.64-10.59 4.88-14.85-.1-.54-.31-1.63-.42-2.17 3.25-1.56 9.06-1.24 9.69-5.68-3.41 1.62-6.76 3.41-10.43 4.36-.39 2.18-3.02 2.2-4.58 3.14.73.28 2.19.82 2.91 1.09-.91 2.06-1.84 4.14-3.11 6.01-.56.94-1.1 1.89-1.61 2.87.26-1.49-.42-3.78 1.68-4.14.03-1.08.08-3.25.1-4.33-1.02.97-2.02 1.95-3.04 2.93 2.04-5.49 7.29-8.72 11.31-12.66 5.71-1.64 11.38-3.86 17.42-3.69-1.94-.23-3.9-.22-5.84-.4-.15-.21-.46-.62-.61-.83 3.19-1.47 7.06-.54 10.51-1.14.07.46.19 1.38.25 1.84l.11-2.01c.64.26 1.91.76 2.54 1.02l-.21-2.28c.67.5 2.01 1.5 2.69 2.01-.31-.43-.91-1.29-1.22-1.71 1.3-4.24 2.09-8.61 3.13-12.91-.3-6.75-1.29-13.46-1.88-20.18 1.17-3.24 1.04-6.7 1.95-9.98-1.36-1.93-2.78-4.06-5.11-4.88-2.69-.3-5.27.84-7.69 1.84-1.35-3.14-3.08-6.34-6.08-8.18-2.4-1.62-5.58-.79-7.86.62m-38.1 12.12c-.09.32-.27.95-.35 1.27 4.02.84 7.95 2.09 11.8 3.54 1.78 1.6 2.51 4.06 4.11 5.86-.02-2.46-.19-5.79-2.94-6.79-4.07-1.68-8.32-2.95-12.62-3.88m4.1 10.17c2.47-.5 2.17-4.16 2.94-6.06-1.73 1.46-3.39 3.67-2.94 6.06m20.4 1.66c.91 1.21 3.74.71 4.54-.53-.69-1.88-3.78-.88-4.54.53m6.29-.2c.38 1.44 2.4 1.99 3.7 1.73.69-1.71-3.04-3.83-3.7-1.73m-12.54 7.63c-3.14 2.09-5.99 4.66-8.11 7.8-1.7.6-3.52.73-5.25 1.2 2.62.69 6.24 1.17 7.61-1.81a16.01 16.01 0 0112.33-7.72c.09-.44.29-1.32.38-1.77-2.29.85-4.74 1.25-6.96 2.3m8.56-1.44c2.78-.05 5.56-.3 8.3-.78-2.75-1.16-5.71-.43-8.3.78m9.06.79c1.38 1.31 3.09 2.2 4.78 3.06-1.16-1.3-3.32-6.14-4.78-3.06m-12.1 7.21c-3.8 2.46-3.84 7.66-3.43 11.69.01 1.58-2.99 4.26.25 4.49-.08.28-.23.85-.31 1.14 1.83.09 3.68.05 5.49.4 1.96.87 3.74 2.32 5.94 2.56 1.62-.05 3.13-.82 3.64-2.38-1.79.25-3.61 1.22-5.42.54-3.15-.72-5.83-3.39-9.26-2.34 3.3-4.29.37-9.44 1.62-14.24 2.5-2.18 7.66-3.15 7.42-7.14-1.97 1.77-3.85 3.64-5.94 5.28m7.84-5.02c1.81 1.83 4.86 2.81 7.14 1.23-2.35-.57-4.72-1.14-7.14-1.23M45 109.67c.96 1.7.9 3.5.03 5.23.3 1.49.63 2.97.94 4.46.47.09 1.41.26 1.88.35-.39-2.01-.78-4.02-1.2-6.03.6-1.35.42-2.89 1.08-4.22-.68.05-2.05.16-2.73.21m33.24 3.48c-2.3 1.01-.26 3.31 1.32 1.62 2.27-.84.16-3.05-1.32-1.62m-12.39 5.12c1.34-.39 2.23-1.26 2.66-2.59 1.56.96 3.38 1.21 5.17 1.44-1.51 1.52-2.84 3.2-4.13 4.91 2.1 2.54 3.13 5.98 5.88 7.93-.09-1.81-.66-3.51-1.48-5.11 2.24-1.13 4.56-2.53 4.84-5.29-1.56-.26-3.12-.51-4.68-.74.41-.44 1.23-1.31 1.64-1.74-1.31-2.16-4.15-2.02-6.33-2.02-.41-.3-1.22-.9-1.63-1.2-.71 1.44-1.38 2.9-1.94 4.41m14.4-1.38c-.26.33-.76.99-1.02 1.32.77 3.42 4.74-1.98 1.02-1.32m20.16.67c1.04 1.74 2.2 3.43 3.75 4.76-.33-2.1-.99-5.16-3.75-4.76m-45.17 17.3c3.66-1.81 5.19-6.16 5.27-10.02-1.73 3.35-3.66 6.6-5.27 10.02m63.65-5.91c1.11 1.35 3.01 2.22 2.99 4.21.62 1.54.1 4.15 2.14 4.67 5.36.64 10.52 2.43 15.94 2.69 3.86 0 6.22 3.58 9.28 5.39-1.34 1.27-2.65 2.55-3.99 3.82-1.77-2.52-5.07-5.05-8.27-3.63-5.46 1.61-10.36 4.57-15.04 7.72-2.87 1.93-3.57 5.56-4.29 8.7-.54 1.41-.1 2.74.85 3.87-2.17-.38-4.46-.99-6.59-.1-6.48 1.82-10.5 7.92-12.7 13.91.3.65.6 1.3.89 1.95l1.88-3.36c1.47 5.71 7.23 9.25 8.2 15.12-2.54 4.26-6.08 7.96-7.15 13-8.51-7.7-18.46-13.62-28.12-19.76-2.55-1.6-4.96-3.6-7.93-4.37 3.52 4.42 8.96 6.72 13.48 9.98 5.93 3.92 11.47 8.39 17.26 12.52 1.58 1.28 4.03 1.76 4.9 3.74.59 7.82-.73 15.65-3.22 23.05-1.04 3.15-3.26 6.31-2.32 9.77 1.85 4.18 6.84 5.16 9.51 8.61 3.93 4.49 8.02 10.12 14.44 10.76 4.43.83 10.27-.63 11.96-5.27-.83-1.2-1.58-2.45-2.27-3.73-2.48-1.81-5.34-3.22-7.38-5.57-2.34-2.57-2.52-6.29-4.53-9.08 7.96-5.05 16-10.03 24.42-14.29 5.25-2.33 10.29-5.14 14.93-8.53.16-.66.48-1.98.64-2.65 2.68 2.06 5.62 3.73 8.34 5.73 1.92 1.33 4.24 2.89 6.7 2.11 3.78-.48 5.09-5.49 3.52-8.48-.74-2.37-3.17-3.3-4.95-4.71-3.83-2.76-4.92-8.28-9.56-10.08 3.39 5.71 7.09 11.53 13.01 14.92-.09 1.74.03 3.72-1 5.22-1.46.74-3.15.51-4.72.73-3.87-2.16-7.27-6.01-11.91-6.19.43-1.42.82-2.85 1.18-4.29-3.41-2.77-7.8-4.51-12.24-4.13-.38.46-1.14 1.37-1.53 1.83-3.48 1.35-6.8 3.06-10.25 4.47-3.16-3.14-4.91-7.28-7.78-10.63.42-.4 1.27-1.19 1.69-1.59-.01-2.27 1-4.69-.23-6.8-1.8-3.47-2.68-7.27-3.03-11.14 5.18-3.23 10.62-6.03 16.05-8.82 1.16-.53 1.63-1.81 2.41-2.74 1.86.81 3.72 1.66 5.6 2.45-1.56-1.47-3.15-2.89-4.75-4.31.18-4.04.26-8.09.34-12.14 1.14-3.16 4.13-5.56 7.32-6.48 7.1 3.66 15.47 5.81 20.77 12.17 2.22 2.52 5.91 3.66 7.11 7.04 1.47 2.38.56 5.51-1.46 7.25-2.49 2.18-4 5.21-6.51 7.36-2.84 2.87-4.4 6.77-7.39 9.52-2.15 1.92-4.11 4.05-5.57 6.54 3.89-.56 6.34-4.32 9-6.93 4.22-6.36 9.72-11.75 13.66-18.3 1.95-3.62-.46-7.72-3.35-9.99-4.68-3.7-8.46-8.71-14.19-10.87-3.34-1.98-7.55-2.73-10.09-5.86-1.83-.47-3.63.29-5.4.65-2.06-5.44-8.68-5.3-13.34-6.96-4.08-.17-7.71-2.27-11.79-2.27.19-3.52-2.63-6.09-5.57-7.42m-26.63 1.55c-.26 1.67 2.69 2.5 4 2 .61-1.83-2.69-2.63-4-2m26.86 3.14c-1.84.48-3.85.6-5.45 1.72-.1.75-.01 1.62-.81 2.03-2.42 1.74-5.69 3.23-6.07 6.58 3.56-2.76 6.97-5.84 11.44-7.06-.92-.32-2.75-.98-3.67-1.3 1.56-.56 3.04-1.32 4.56-1.97m-13.24 13.59c-.92.47-.07 1.48 0 2.18 3.17-2.77 6.99-4.59 11.04-5.66 1.91-.32 2.96-1.97 3.97-3.45-5.38 1.3-10.99 2.86-15.01 6.93m57.49 14.4c1.95 3.3 4.59 6.24 7.89 8.24 2.35.72 7.21 1.7 7.04-2.05-2.12.06-4.24.11-6.36.17-2.94-2.01-4.91-5.59-8.57-6.36m-10.76 8.63c3.05 1.42 6.34 2.1 9.7 1.8-2.25 2.57-5.02 4.64-7.08 7.37-1.47 3.2-.92 6.92-2.43 10.13-.52.91-1.04 1.84-1.56 2.76-2.04 4.29-7.84 5.56-8.4 10.79 2 .44 2.84-1.16 3.65-2.62 4.55-4.42 9.1-9.85 9.53-16.46.02-5.48 5.9-7.62 9.13-11.09 1.99 1.18 4 2.55 6.39 2.72-.04-.23-.12-.71-.16-.95-2.46-.92-4.38-2.67-6.5-4.13-4.1.04-8.18-.7-12.27-.32m-76.52 6.99c6.24 6.79 14.39 11.44 21.89 16.7 2.77 1.62 5.15 4.28 8.55 4.46-8.24-8.23-19.39-12.95-28.11-20.62 3.54-2.24 8.75-2.9 10.58-7.06-4.49 1.79-8.66 4.26-12.91 6.52m88.44 5.68c-1.71 1.6-3.38 3.26-5.21 4.72.2.42.6 1.25.8 1.67 2.05-1.44 4.06-3 5.75-4.86.11-.96-.34-1.47-1.34-1.53z"/><path d="M100.11 92.7c-2.87-7.64-2.08-18.11 5.8-22.44 2.85 1.66 6.06 3.18 7.66 6.26 2.75 5.08 4.03 11.35 2 16.92-1.01 3.15-3.05 6.52-6.61 7.1-4.45.06-7.39-4.11-8.85-7.84zM23.91 104.02c-.54-6.12 1.68-12.77 7.31-15.87 3.41 1.58 7.16 3.33 8.77 6.99 2.99 6.21 3.54 14.05.31 20.27-1.55 3.24-5.77 5.34-9.09 3.41-5.09-2.96-6.94-9.26-7.3-14.8zM71.64 120.23c1.91.25 3.82.41 5.73.62-1.27 1.36-2.57 2.67-3.81 4.06-.88-1.47-2.69-2.77-1.92-4.68zM63.53 131.42c2.18-.05 4.17.85 6.15 1.62 2.69.41 5.63.75 7.7 2.7 3.32 2.98 7.28 5.19 10.21 8.61.2 4.41 3.55 7.95 3.36 12.39.56.65 1.1 1.31 1.65 1.97-1.1 2.24-.24 4.61.21 6.89-6.1-5.75-11.2-12.47-16.42-19-3.98-3.38-6.95-7.74-10.83-11.22-1.36-.89-1.63-2.52-2.03-3.96zM123.92 152.87c6.11-1.01 10.95-5.51 17.12-6.33 2.94 4.59 2.14 10.25 1.96 15.4-.18 2.2-.1 5.17-2.52 6.19-5.39 2.53-9.97 6.46-15.3 9.06-1.34-2.18-2.66-4.37-4.27-6.36l2.01-1.81c-1.22-.97-2.49-1.87-3.69-2.87 1.06-4.58 2.09-9.27 4.69-13.28m3.31 4.36c-3.17 2.82-3.35 7.28-4.46 11.09 1.41-1.15 2.93-2.39 3.24-4.31.77-3.93 3.83-7.14 7.59-8.37 1.64-.85 4.33-.91 4.46-3.32-4.06.33-7.74 2.37-10.83 4.91zM102.12 177.86c2.18-5.37 7.06-9.04 12.76-9.88 1.38.69 2.83 1.28 4.16 2.09 3.14 4.42 5.67 9.48 6.07 14.98.33 4.12 3.57 8.5 1.33 12.48-5.39 5.45-6.68 13.32-10.04 19.96-1.94 3.89-4.57 8.33-2.74 12.74 2.49 7.68 5.09 16.23 12.24 20.88 2.33 1.26 4.34 2.95 5.9 5.1-4.53 2.84-10.64 4.35-15.59 1.7-2.43-1.58-4.11-4.02-6.03-6.12-2.9-3.5-6.52-6.27-10.16-8.91-2.31-1.71-.74-4.68-.05-6.82 1.77-4.2 2.72-8.67 3.6-13.12.96-4.9-.34-9.99 1.06-14.81.89-4.06 3.01-7.67 5.07-11.22.51-1.35 1.86-1.87 3.01-2.52-2.44-6.17-6.95-11.09-10.59-16.53m18.05 14.36c1.04-1.11 1.17-2.73 1.66-4.11-2.51-.76-5.1 6.18-1.66 4.11m-8.63 52.58c-.79-3.84-1.43-7.78-3.2-11.32-1.9 3.75.98 8.27 3.2 11.32z"/><path d="M123.15 207.47c1.17-2.48 1.96-5.11 3.2-7.55 2.14 3.16 4.15 6.4 6.25 9.58.4 2.82 4.19 3.57 5.23.8 3.35-1.35 6.63-2.85 9.75-4.67 2.74-1.72 5.75.39 8.26 1.56.19 2.13.44 4.27.77 6.39-12.75 7.81-26.15 14.49-38.86 22.38-1.02-3.18-2.8-6.43-2.09-9.85 2.18-2.79 5.53-4.37 8.08-6.81-1.36-1.21-2.73-2.39-4.06-3.62.99-2.3 1.49-4.75 2.42-7.06 2.06 3.22 4.11 6.46 6.62 9.36l1.44-1.77c-2.14-3.06-4.6-5.89-7.01-8.74z"/><path d="M118.41 217.76c3.64.68.07 3.44-1.49 4.34.46-1.47 1-2.9 1.49-4.34z"/></g><g fill="#333"><path d="M128.03 63.88c2.5-.92 5.16.39 6.83 2.25 4.59 5.37 6.11 12.92 4.84 19.77-.77 3.54-2.39 7.34-5.77 9.1-1.75.95-4.62 1.4-5.46-.96 3.03-.02 6.42-.62 7.92-3.59 4.9-8.75 2.21-22.42-7.79-26.3-3.84 1.64-5.03 5.69-7.6 8.56.69-3.8 2.77-8.21 7.03-8.83z"/><path d="M102.39 71.3c2.28-1.41 5.46-2.24 7.86-.62 3 1.84 4.73 5.04 6.08 8.18 2.42-1 5-2.14 7.69-1.84 2.33.82 3.75 2.95 5.11 4.88-.91 3.28-.78 6.74-1.95 9.98.59 6.72 1.58 13.43 1.88 20.18-1.04 4.3-1.83 8.67-3.13 12.91.31.42.91 1.28 1.22 1.71-.68-.51-2.02-1.51-2.69-2.01l.21 2.28c-.63-.26-1.9-.76-2.54-1.02l-.11 2.01c-.06-.46-.18-1.38-.25-1.84-3.45.6-7.32-.33-10.51 1.14.15.21.46.62.61.83 1.94.18 3.9.17 5.84.4-6.04-.17-11.71 2.05-17.42 3.69-4.02 3.94-9.27 7.17-11.31 12.66 1.02-.98 2.02-1.96 3.04-2.93-.02 1.08-.07 3.25-.1 4.33-2.1.36-1.42 2.65-1.68 4.14.51-.98 1.05-1.93 1.61-2.87 1.27-1.87 2.2-3.95 3.11-6.01-.72-.27-2.18-.81-2.91-1.09 1.56-.94 4.19-.96 4.58-3.14 3.67-.95 7.02-2.74 10.43-4.36-.63 4.44-6.44 4.12-9.69 5.68.11.54.32 1.63.42 2.17-3.24 4.26-6.44 9.22-4.88 14.85.68.85 1.3 1.74 1.87 2.67-1.96 6.25 1.36 12.54 4.09 18.05-4.45-.98-4.14-6.37-7.26-8.85-6.23-5.87-10.61-13.38-16.83-19.26-1.41-1.38-2.95-2.69-3.91-4.45-.54.39-1.09.77-1.64 1.15 2.19 7.14 2.49 14.65 4.03 21.93 3.1-1.88 6.17-3.86 9.51-5.28-.18.55-.55 1.64-.73 2.19-3.5 1.35-6.84 3.07-10.25 4.63-1.98-8.34-2.67-16.89-4.31-25.29.64.1 1.93.31 2.57.41-2.38-2.54-4.33-5.49-6.99-7.75-2.89 3.03-2.45 7.36-2.06 11.18 1.09 7.73 2.16 15.46 3.07 23.2.56 1.55-1.45 1.93-2.35 2.6-6.34 3.06-12.86 5.76-18.95 9.31-.11 4.25 1.86 8.42 5.95 10.06 5.1-2.16 9.86-5.02 14.73-7.66.94-.54 1.87-.45 2.78.27-5.5 3.89-11.55 6.8-17.53 9.84-2.7-1.6-5.37-3.56-6.91-6.36-.55-2.52-.58-5.15-.43-7.71 6.74-3.53 13.7-6.64 20.64-9.75-.5-3.23-1.06-6.45-1.17-9.73-.37-6.91-2.45-13.79-1.24-20.73-2.7 3.61-5.99 8.74-11.31 7.01-1.33-3.33-4.18-5.58-6.35-8.3-3.05-5.23-3.84-11.46-3.22-17.42-2.45-1.03-5.21.59-7.57-.79-4.14-2.08-6.38-6.56-7.61-10.84-1.5-6.07-1.39-13 2.05-18.43 1.63-2.71 4.85-4.11 7.95-3.93 3.37.77 6.45 3.44 7.33 6.84 3.25-.68 6.93-2.17 10.08-.41 2.08 3.75 3.84 8.04 3.28 12.43-.42 1.9-2.62 2.47-4.03 3.46-.69 3.91-.52 7.86.76 11.64.7-1.96 1.98-3.41 3.85-4.36-.61-.61-1.21-1.22-1.82-1.82.8-.9 1.53-1.86 2.17-2.87 4.87 1.37 8.91-3.09 9.82-7.48 1.42-6.42.69-13.97-3.93-18.99-1.64-1.84-4-2.75-6.08-3.96-4.04 1.42-5.19 5.62-7.93 8.36.73-3.92 3.18-8.26 7.53-8.75 2.69-.97 5.31.74 7.08 2.64 4.36 4.2 5.51 10.59 5.41 16.4 2.77-3.12 6.77-5.07 10.88-5.65 3.47.02 6.94.03 10.41.12-1.84 2.43-4.82.25-7.21.84-3.84 1.01-7.92 1.66-11.23 4.02-4.55 2.42-3.2 8.76-6.96 11.96-2.17 2.63-5.67 2.74-8.8 2.51.61.75 1.2 1.52 1.79 2.3 1.26 4.95 5.26-.85 7.98.85-1.26.93-2.7 1.58-4.13 2.21-2.42-.07-5.23-1.02-7.28.71-.21.97-.38 1.95-.51 2.93 3.39-.46 3.11 4.43 4.07 6.65-1.99-2.72-4.52-5.04-6.26-7.93-.82-2.87-1.11-5.87-1.61-8.81.53-.91 1.05-1.82 1.56-2.74-.16-.22-.49-.67-.65-.9-.02-2.05 3.19-2 3.72-3.89.04-2.41.34-5-.67-7.25-2.09-1.18-4.22 1.04-6.44.51a60.84 60.84 0 015.2-2.36c-.28-.45-.85-1.35-1.13-1.8-1.42.05-2.83.12-4.25.22-1.15.32-2.32.52-3.51.61.24 2.46.76 4.68 3.56 4.65 1.29 2.22 3.05.8 4.75-.05-.48 2.31-4.27 4.36-5.32 1.43-.48-.65-.98-.6-1.5.14.94 4.67.28 9.52-1.55 13.89.77-.35 2.3-1.05 3.06-1.39l-1.94 1.13.86 2.47c-1.01-.4-2.01-.83-3-1.27-.3.62-.89 1.85-1.19 2.46.36 6.48-.04 13.52 3.78 19.15 2.07 2.55 4.2 5.06 6.26 7.63 5.43-.97 8.35-5.96 11.46-9.96 3.17-4.19 2.3-9.98 5.35-14.23-.38 2.17-.92 4.31-1.44 6.45 4.18 2.04 8.73 3.25 12.79 5.5 3.5 2.85 7.84 4.85 10.43 8.69 1.94-4.82 6.42-7.63 10.23-10.83 3.1-2.25 6.97-3.28 10.73-3.67 1.33-.79.79-2.75.05-3.74 1.61.71 3.29 1.17 5.09.98-1.36-1.2-2.77-2.33-4.14-3.5.97-1.54-.85-2.37-1.71-3.35-.91-1.37-1.66-2.85-2.7-4.14-2.38.86-4.84 1.52-7.15 2.55-1.57.35-3.16.58-4.69 1.05-1.43 1.91-2.51 4.16-4.74 5.3 1.25-2.47 2.32-5.39 4.8-6.91 1.51-.43 3.07-.61 4.62-.87 0-2.29-.33-4.56-.46-6.84 3 .78 1.29 5.28 2.13 7.52.87-.75 1.71-1.53 2.54-2.32.88 0 2.64 0 3.53.01-.13-.68-.37-2.04-.49-2.72 1.36 3.22 3.05 7.38 7.12 7.62 2.36.72 4.29-1.1 6.05-2.37-.73 3.98-4.83 4.29-7.97 5.42 3.88 2.04 8.26 4.58 12.71 2.51 2.01-.35 1.79-2.69 2.19-4.18.41-3.68 2.01-7.26 1.44-11.01-.73-6.13-1.09-12.3-1.94-18.42-2.62.97-1.44 4.46-2.23 6.65-.23-2.02.48-4.23-.56-6.08-.66-.05-2-.14-2.66-.19 1.43 3.07 1.46 6.55.49 9.75-.39-3.54-.52-7.12-1.54-10.56 2.62-.36 5.22-.79 7.82-1.28.57-2.11.82-4.33.76-6.51-1.46-1.18-2.67-2.99-4.57-3.46-2.19.18-4.36.49-6.56.53.17.59.5 1.78.67 2.37 3.19-2.9 4.85 3.89 1.73 4.95.18-1.01.52-3.02.69-4.03l-2.16-.78c.84 5.22.92 10.97-2.02 15.58-1.74 3.22-5.45 6.06-9.29 4.65 1.85 1.17 2.69 3.2 3.72 5.01 1.64-.68 3.38-.89 5.14-.79 1.28-3.15 2.06-6.45 2.7-9.78.78 2.54.54 5.14-.46 7.57-.77.98-1.54 1.97-2.3 2.96 1.81 1.97 3.56 4.03 4.68 6.49-3.19-.53-3.12-5.66-6.67-5.7-2.3.46-4.39 1.65-6.7 2.09-.02-.35-.05-1.06-.06-1.41.69.03 2.07.08 2.76.11-1.07-2.41-2.39-4.69-3.73-6.96-6.22-4.39-8.44-12.59-7.78-19.86.51-3.88 1.72-8.07 4.9-10.6m-2.28 21.4c1.46 3.73 4.4 7.9 8.85 7.84 3.56-.58 5.6-3.95 6.61-7.1 2.03-5.57.75-11.84-2-16.92-1.6-3.08-4.81-4.6-7.66-6.26-7.88 4.33-8.67 14.8-5.8 22.44m-76.2 11.32c.36 5.54 2.21 11.84 7.3 14.8 3.32 1.93 7.54-.17 9.09-3.41 3.23-6.22 2.68-14.06-.31-20.27-1.61-3.66-5.36-5.41-8.77-6.99-5.63 3.1-7.85 9.75-7.31 15.87m39.62 27.4c.4 1.44.67 3.07 2.03 3.96 3.88 3.48 6.85 7.84 10.83 11.22 5.22 6.53 10.32 13.25 16.42 19-.45-2.28-1.31-4.65-.21-6.89-.55-.66-1.09-1.32-1.65-1.97.19-4.44-3.16-7.98-3.36-12.39-2.93-3.42-6.89-5.63-10.21-8.61-2.07-1.95-5.01-2.29-7.7-2.7-1.98-.77-3.97-1.67-6.15-1.62z"/><path d="M64.29 83.42c4.3.93 8.55 2.2 12.62 3.88 2.75 1 2.92 4.33 2.94 6.79-1.6-1.8-2.33-4.26-4.11-5.86-3.85-1.45-7.78-2.7-11.8-3.54.08-.32.26-.95.35-1.27z"/><path d="M68.39 93.59c-.45-2.39 1.21-4.6 2.94-6.06-.77 1.9-.47 5.56-2.94 6.06zM88.79 95.25c.76-1.41 3.85-2.41 4.54-.53-.8 1.24-3.63 1.74-4.54.53zM95.08 95.05c.66-2.1 4.39.02 3.7 1.73-1.3.26-3.32-.29-3.7-1.73zM82.54 102.68c2.22-1.05 4.67-1.45 6.96-2.3-.09.45-.29 1.33-.38 1.77a16.01 16.01 0 00-12.33 7.72c-1.37 2.98-4.99 2.5-7.61 1.81 1.73-.47 3.55-.6 5.25-1.2 2.12-3.14 4.97-5.71 8.11-7.8zM91.1 101.24c2.59-1.21 5.55-1.94 8.3-.78-2.74.48-5.52.73-8.3.78zM100.16 102.03c1.46-3.08 3.62 1.76 4.78 3.06-1.69-.86-3.4-1.75-4.78-3.06zM88.06 109.24c2.09-1.64 3.97-3.51 5.94-5.28.24 3.99-4.92 4.96-7.42 7.14-1.25 4.8 1.68 9.95-1.62 14.24 3.43-1.05 6.11 1.62 9.26 2.34 1.81.68 3.63-.29 5.42-.54-.51 1.56-2.02 2.33-3.64 2.38-2.2-.24-3.98-1.69-5.94-2.56-1.81-.35-3.66-.31-5.49-.4.08-.29.23-.86.31-1.14-3.24-.23-.24-2.91-.25-4.49-.41-4.03-.37-9.23 3.43-11.69zM95.9 104.22c2.42.09 4.79.66 7.14 1.23-2.28 1.58-5.33.6-7.14-1.23zM45 109.67c.68-.05 2.05-.16 2.73-.21-.66 1.33-.48 2.87-1.08 4.22.42 2.01.81 4.02 1.2 6.03-.47-.09-1.41-.26-1.88-.35-.31-1.49-.64-2.97-.94-4.46.87-1.73.93-3.53-.03-5.23zM78.24 113.15c1.48-1.43 3.59.78 1.32 1.62-1.58 1.69-3.62-.61-1.32-1.62zM65.85 118.27c.56-1.51 1.23-2.97 1.94-4.41.41.3 1.22.9 1.63 1.2 2.18 0 5.02-.14 6.33 2.02-.41.43-1.23 1.3-1.64 1.74 1.56.23 3.12.48 4.68.74-.28 2.76-2.6 4.16-4.84 5.29.82 1.6 1.39 3.3 1.48 5.11-2.75-1.95-3.78-5.39-5.88-7.93 1.29-1.71 2.62-3.39 4.13-4.91-1.79-.23-3.61-.48-5.17-1.44-.43 1.33-1.32 2.2-2.66 2.59m5.79 1.96c-.77 1.91 1.04 3.21 1.92 4.68 1.24-1.39 2.54-2.7 3.81-4.06-1.91-.21-3.82-.37-5.73-.62zM80.25 116.89c3.72-.66-.25 4.74-1.02 1.32.26-.33.76-.99 1.02-1.32zM100.41 117.56c2.76-.4 3.42 2.66 3.75 4.76-1.55-1.33-2.71-3.02-3.75-4.76zM55.24 134.86c1.61-3.42 3.54-6.67 5.27-10.02-.08 3.86-1.61 8.21-5.27 10.02zM118.89 128.95c2.94 1.33 5.76 3.9 5.57 7.42 4.08 0 7.71 2.1 11.79 2.27 4.66 1.66 11.28 1.52 13.34 6.96 1.77-.36 3.57-1.12 5.4-.65 2.54 3.13 6.75 3.88 10.09 5.86 5.73 2.16 9.51 7.17 14.19 10.87 2.89 2.27 5.3 6.37 3.35 9.99-3.94 6.55-9.44 11.94-13.66 18.3-2.66 2.61-5.11 6.37-9 6.93 1.46-2.49 3.42-4.62 5.57-6.54 2.99-2.75 4.55-6.65 7.39-9.52 2.51-2.15 4.02-5.18 6.51-7.36 2.02-1.74 2.93-4.87 1.46-7.25-1.2-3.38-4.89-4.52-7.11-7.04-5.3-6.36-13.67-8.51-20.77-12.17-3.19.92-6.18 3.32-7.32 6.48-.08 4.05-.16 8.1-.34 12.14 1.6 1.42 3.19 2.84 4.75 4.31-1.88-.79-3.74-1.64-5.6-2.45-.78.93-1.25 2.21-2.41 2.74-5.43 2.79-10.87 5.59-16.05 8.82.35 3.87 1.23 7.67 3.03 11.14 1.23 2.11.22 4.53.23 6.8-.42.4-1.27 1.19-1.69 1.59 2.87 3.35 4.62 7.49 7.78 10.63 3.45-1.41 6.77-3.12 10.25-4.47.39-.46 1.15-1.37 1.53-1.83 4.44-.38 8.83 1.36 12.24 4.13a90.66 90.66 0 01-1.18 4.29c4.64.18 8.04 4.03 11.91 6.19 1.57-.22 3.26.01 4.72-.73 1.03-1.5.91-3.48 1-5.22-5.92-3.39-9.62-9.21-13.01-14.92 4.64 1.8 5.73 7.32 9.56 10.08 1.78 1.41 4.21 2.34 4.95 4.71 1.57 2.99.26 8-3.52 8.48-2.46.78-4.78-.78-6.7-2.11-2.72-2-5.66-3.67-8.34-5.73-.16.67-.48 1.99-.64 2.65-4.64 3.39-9.68 6.2-14.93 8.53-8.42 4.26-16.46 9.24-24.42 14.29 2.01 2.79 2.19 6.51 4.53 9.08 2.04 2.35 4.9 3.76 7.38 5.57.69 1.28 1.44 2.53 2.27 3.73-1.69 4.64-7.53 6.1-11.96 5.27-6.42-.64-10.51-6.27-14.44-10.76-2.67-3.45-7.66-4.43-9.51-8.61-.94-3.46 1.28-6.62 2.32-9.77 2.49-7.4 3.81-15.23 3.22-23.05-.87-1.98-3.32-2.46-4.9-3.74-5.79-4.13-11.33-8.6-17.26-12.52-4.52-3.26-9.96-5.56-13.48-9.98 2.97.77 5.38 2.77 7.93 4.37 9.66 6.14 19.61 12.06 28.12 19.76 1.07-5.04 4.61-8.74 7.15-13-.97-5.87-6.73-9.41-8.2-15.12l-1.88 3.36c-.29-.65-.59-1.3-.89-1.95 2.2-5.99 6.22-12.09 12.7-13.91 2.13-.89 4.42-.28 6.59.1-.95-1.13-1.39-2.46-.85-3.87.72-3.14 1.42-6.77 4.29-8.7 4.68-3.15 9.58-6.11 15.04-7.72 3.2-1.42 6.5 1.11 8.27 3.63 1.34-1.27 2.65-2.55 3.99-3.82-3.06-1.81-5.42-5.39-9.28-5.39-5.42-.26-10.58-2.05-15.94-2.69-2.04-.52-1.52-3.13-2.14-4.67.02-1.99-1.88-2.86-2.99-4.21m5.03 23.92c-2.6 4.01-3.63 8.7-4.69 13.28 1.2 1 2.47 1.9 3.69 2.87l-2.01 1.81c1.61 1.99 2.93 4.18 4.27 6.36 5.33-2.6 9.91-6.53 15.3-9.06 2.42-1.02 2.34-3.99 2.52-6.19.18-5.15.98-10.81-1.96-15.4-6.17.82-11.01 5.32-17.12 6.33m-21.8 24.99c3.64 5.44 8.15 10.36 10.59 16.53-1.15.65-2.5 1.17-3.01 2.52-2.06 3.55-4.18 7.16-5.07 11.22-1.4 4.82-.1 9.91-1.06 14.81-.88 4.45-1.83 8.92-3.6 13.12-.69 2.14-2.26 5.11.05 6.82 3.64 2.64 7.26 5.41 10.16 8.91 1.92 2.1 3.6 4.54 6.03 6.12 4.95 2.65 11.06 1.14 15.59-1.7-1.56-2.15-3.57-3.84-5.9-5.1-7.15-4.65-9.75-13.2-12.24-20.88-1.83-4.41.8-8.85 2.74-12.74 3.36-6.64 4.65-14.51 10.04-19.96 2.24-3.98-1-8.36-1.33-12.48-.4-5.5-2.93-10.56-6.07-14.98-1.33-.81-2.78-1.4-4.16-2.09-5.7.84-10.58 4.51-12.76 9.88m21.03 29.61c2.41 2.85 4.87 5.68 7.01 8.74l-1.44 1.77c-2.51-2.9-4.56-6.14-6.62-9.36-.93 2.31-1.43 4.76-2.42 7.06 1.33 1.23 2.7 2.41 4.06 3.62-2.55 2.44-5.9 4.02-8.08 6.81-.71 3.42 1.07 6.67 2.09 9.85 12.71-7.89 26.11-14.57 38.86-22.38-.33-2.12-.58-4.26-.77-6.39-2.51-1.17-5.52-3.28-8.26-1.56-3.12 1.82-6.4 3.32-9.75 4.67-1.04 2.77-4.83 2.02-5.23-.8-2.1-3.18-4.11-6.42-6.25-9.58-1.24 2.44-2.03 5.07-3.2 7.55m-4.74 10.29c-.49 1.44-1.03 2.87-1.49 4.34 1.56-.9 5.13-3.66 1.49-4.34zM92.26 130.5c1.31-.63 4.61.17 4 2-1.31.5-4.26-.33-4-2z"/><path d="M119.12 133.64c-1.52.65-3 1.41-4.56 1.97.92.32 2.75.98 3.67 1.3-4.47 1.22-7.88 4.3-11.44 7.06.38-3.35 3.65-4.84 6.07-6.58.8-.41.71-1.28.81-2.03 1.6-1.12 3.61-1.24 5.45-1.72zM105.88 147.23c4.02-4.07 9.63-5.63 15.01-6.93-1.01 1.48-2.06 3.13-3.97 3.45-4.05 1.07-7.87 2.89-11.04 5.66-.07-.7-.92-1.71 0-2.18zM127.23 157.23c3.09-2.54 6.77-4.58 10.83-4.91-.13 2.41-2.82 2.47-4.46 3.32-3.76 1.23-6.82 4.44-7.59 8.37-.31 1.92-1.83 3.16-3.24 4.31 1.11-3.81 1.29-8.27 4.46-11.09zM163.37 161.63c3.66.77 5.63 4.35 8.57 6.36 2.12-.06 4.24-.11 6.36-.17.17 3.75-4.69 2.77-7.04 2.05-3.3-2-5.94-4.94-7.89-8.24zM152.61 170.26c4.09-.38 8.17.36 12.27.32 2.12 1.46 4.04 3.21 6.5 4.13.04.24.12.72.16.95-2.39-.17-4.4-1.54-6.39-2.72-3.23 3.47-9.11 5.61-9.13 11.09-.43 6.61-4.98 12.04-9.53 16.46-.81 1.46-1.65 3.06-3.65 2.62.56-5.23 6.36-6.5 8.4-10.79.52-.92 1.04-1.85 1.56-2.76 1.51-3.21.96-6.93 2.43-10.13 2.06-2.73 4.83-4.8 7.08-7.37-3.36.3-6.65-.38-9.7-1.8zM76.09 177.25c4.25-2.26 8.42-4.73 12.91-6.52-1.83 4.16-7.04 4.82-10.58 7.06 8.72 7.67 19.87 12.39 28.11 20.62-3.4-.18-5.78-2.84-8.55-4.46-7.5-5.26-15.65-9.91-21.89-16.7z"/><path d="M164.53 182.93c1 .06 1.45.57 1.34 1.53-1.69 1.86-3.7 3.42-5.75 4.86-.2-.42-.6-1.25-.8-1.67 1.83-1.46 3.5-3.12 5.21-4.72zM120.17 192.22c-3.44 2.07-.85-4.87 1.66-4.11-.49 1.38-.62 3-1.66 4.11zM111.54 244.8c-2.22-3.05-5.1-7.57-3.2-11.32 1.77 3.54 2.41 7.48 3.2 11.32z"/></g></svg>