<svg width="276" height="275pt" viewBox="0 0 207 275" xmlns="http://www.w3.org/2000/svg"><g fill="#FFF"><path d="M0 0h207v275H0V0m92.91 24.59c2.58-2.77 4.11-6.46 7.68-8.25 2.69 1.54 5.8 2.81 7.4 5.65 4.08 6.89 4.18 16.29-.66 22.84-1.42-2.8-2.27-5.83-2.57-8.95-.54-2.73-1.03-6.44-4.16-7.36-4.22-.91-8.08 2.57-12.25 1.99-1.39-3.48-3.61-7.07-7.27-8.48-3.9-.94-8.38 1.28-9.51 5.27 2.24-1.59 4.3-3.41 6.48-5.07 2.56 1.6 5.65 2.73 7.25 5.47 3.49 5.46 4.13 12.61 2.23 18.75-1.07 3.44-4.38 7.39-8.38 6.04-1.46-.69-4.65-.89-4.02-3.23 2.08-6.63 1.33-14.23-2.26-20.21-1.91-2.89-5.13-6.18-8.95-4.85-4.39.53-6.68 5-7.46 8.9 2.54-3.06 4.17-6.94 8.03-8.67 3.15 1.77 6.63 3.57 8.08 7.13 2.94 6.52 3.59 15-.81 21.04-1.74 2.64-5.04 2.72-7.86 2.34.63.71.74 2.21 1.98 2.08 3.66.82 6.23-2.29 8.38-4.69 2.53.45 4.76 2.95 7.57 2.21 3.9-.91 7.17-5.04 6.91-9.02 1.92.44 4.08.48 5.72 1.72 3.52 4.45 3.88 10.48 3.1 15.89-.96 5.5 1.64 10.73 2.3 16.11-3.37 3.79-1.7 9.24-4.38 13.22l2.04-.48 1.76 4.49c-.83-.56-2.5-1.67-3.33-2.23-.24.27-.7.83-.94 1.1 1.44.44 2.87.9 4.31 1.33.69 2 1.02 4.09 1.65 6.09 2.18 2.06 6.13 2 7.19 5.16 1.43 2.52 2.17 5.33 2.39 8.22.3 3.98 3.11 7.03 4.7 10.52-4.06.93-8.26 1.28-12.19 2.74-4.01 1.16-6.85 4.38-10.05 6.86-2.1 1.58-3.39 3.93-4.63 6.19-2.09-3.12-5.45-4.89-8.34-7.14-5.46-4.76-14.32-4.32-18.35-10.92-3.3-3.15-2.7-8-3.87-12.04-1.69-5.09-4.55-9.71-6.13-14.85-1.58-6.48.47-13.51-2.42-19.67.71-5.63-2.13-10.88-1.39-16.56l.9.85c4.84-5.95 5.8-14.24 3.39-21.4-1.74-4.51-4.3-9.2-9.11-10.96-2.68.74-5.95 1.02-7.53 3.66-4.96 7.56-4.36 18.04.43 25.54 2.15 3.4 6.57 6.6 10.64 4.24l-.72 2.73c.48 3.74 2.2 7.32 1.65 11.15-.31 2.5 1.77 4.49 1.83 6.93-.04 5.45-.12 10.95.69 16.36-1.77 1.12-3.88 1.94-5.03 3.79-1.97 2.99-1 6.85.03 10 3.77 5.41 8.26 10.3 12.4 15.44 1.04 1.6.93 3.64 1.18 5.47.46 11.92 1.81 23.8 3.39 35.61-6.92 3.19-13.93 6.22-20.66 9.8-.13 2.54-.13 5.13.42 7.62 1.46 2.86 4.21 4.77 6.87 6.44 5.63-3.02 11.69-5.38 16.67-9.48.12-.4.35-1.2.47-1.61-5.98 2.65-11.46 6.31-17.5 8.86-1.46-1.4-3.05-2.68-4.34-4.26-.8-1.89-.8-4.02-1.22-6.01 6.83-4.18 14.59-6.64 21.37-10.85-.71-8.42-2.18-16.77-3.17-25.16-.21-4.33-.13-8.67-.67-12.98 3.48 3.25 6.72 6.75 9.78 10.4-.64-.08-1.91-.25-2.54-.34 1.6 8.4 2.36 16.92 4.26 25.27 3.43-1.57 6.8-3.28 10.31-4.67.18-.56.52-1.68.7-2.24-3.28 1.57-6.42 3.42-9.48 5.37-1.59-7.28-1.88-14.79-4.04-21.94.52-.37 1.04-.73 1.57-1.09 2.56 3.52 6.11 6.17 8.83 9.57 3.79 4.82 7.51 9.73 11.9 14.03 2.68 2.37 3.15 6.22 5.73 8.7l1.48-.4c-2.88-5.13-5.94-11.45-3.91-17.36-3.1-3.52-2.92-8.98-.31-12.72 1.02-2.39 4.03-4.2 2.94-7.08 3.32-1.52 8.83-1.3 9.71-5.68-3.44 1.58-6.79 3.35-10.44 4.39-.82 1.93-3.05 2.32-4.71 3.22.73.24 2.18.72 2.9.96-.69 1.51-1.36 3.03-2.04 4.54-.98 1.45-1.86 2.96-2.83 4.42.28-1.56 0-3.6 1.82-4.31.04-1.06.12-3.17.15-4.22-1.04.97-2.06 1.96-3.1 2.93 2.13-5.45 7.31-8.71 11.35-12.65 5.82-1.31 11.49-4.56 17.6-3.39-1.26-2.92-2.42-5.97-4.61-8.35-1.31-4.72-.8-10.07-4.25-13.97 1.76-3.82 4.31-7.44 4.38-11.81-.01-8.17-1.03-16.41.14-24.55 1.05-8.41-4.21-15.71-5.61-23.76 5.53-6.44 5.5-16.11 2.16-23.55-1.76-3.82-5.55-8.19-10.24-6.59-4.04.66-6.1 4.8-6.95 8.41M51.59 36.68c1.17 3.55 5 .61 7.49.62 1.92 1.29 4.08 2.36 5.6 4.16.48 1.7-.27 3.44-.55 5.12-1.78 1.37-3.5 2.82-5.16 4.34-.19 1.39-.36 2.79-.53 4.19-1.38 7.99 5.43 14.86 3.19 22.94-3.84-1.05-4.13-5.99-7.79-7.29 2.08 3.84 4.53 7.67 3.67 12.3-1.95-1.44-3.22-4.87-6.08-4.39 1.66 2.58 4.17 4.41 6.68 6.09.34-1.97.64-3.96.86-5.95l1.01.12c1.37 2 3.2 3.63 4.54 5.65.97 3.05.71 6.34 1.49 9.44.73 2.84 1.03 5.78.82 8.71-1.6-1.54-3.28-3.01-4.68-4.74-.5-4.1.7-9.35-2.83-12.37.86 5.44.62 10.92.87 16.4.85-.46 1.7-.93 2.54-1.4 1.68 2.61 2.02 6 4.33 8.2.56-4.84 1.79-9.62 1.43-14.52 1.44 1.32 2.88 2.66 4.33 3.98 2.99-.9 6-1.79 9.06-2.39 2.23.08 4.8 1.23 6.58-.73-5.17.11-10.55-.85-15.5 1.15-.91-.72-1.84-1.41-2.78-2.08-.11-.87-.19-1.74-.25-2.61.64-1.35 1.13-2.75 1.49-4.2-2.31 1.43-2.67 3.94-2.27 6.41-2.68-2.09-2.65-5.64-1.61-8.55 2.68 1.12 5.49 1.92 8.2 2.97 1.79 1.63 2.6 4.06 4.14 5.93-.17-2.26-.04-5.28-2.35-6.55-3.07-1.5-6.41-2.33-9.64-3.44-.61.41-1.22.81-1.84 1.22.39-2.79-2.28-4.4-3.71-6.37 2.3-4.72 1.26-10.12-.81-14.7-1.81-3.85-1.38-8.22-.79-12.29 1.37-1.97 3.51-3.24 5.03-5.09.45-2.29.43-4.67.27-7-1.02-1-2.21-1.81-3.37-2.66-3.11-2.83-7.39-.27-11.08-.62m3.84 4.83c1.16 2.97 3.89 4.57 7.05 4.11-2.21-1.59-4.64-2.86-7.05-4.11M88.8 95.22c.86 1.28 3.74.73 4.52-.53-.69-1.86-3.77-.84-4.52.53m-6.27 7.48c-3.18 2.02-5.89 4.73-8.17 7.72-1.65.64-3.43.87-5.1 1.47 1.93.22 3.87.25 5.81.23 2.05-2.93 4.24-5.83 7.18-7.92 2.09-1.2 4.55-1.39 6.83-2.03.11-.44.34-1.33.46-1.78-2.32.83-4.79 1.24-7.01 2.31m8.55-1.47c2.82-.04 5.64-.29 8.41-.83-2.82-1.02-5.77-.38-8.41.83m-25.04 9.12c-1.66-2.32-3.47-4.52-5.17-6.81-.72 3.36 1.61 6.67 5.17 6.81m18.7 4.43c-.8 3.12.71 6.52-1.34 9.35.36.89.7 1.8 1.04 2.71 2.06-.21 4.13-.1 6.18.15 2.66 2.51 6.7 3.46 9.58.68-2.44-.15-4.96.58-7.29-.42-2.53-.96-5.03-1.97-7.55-2.94 2.88-3.98-.12-8.8 1.22-13.22 2.73-2.15 7.33-3.2 7.76-7.22-3.34 3.49-8.88 5.63-9.6 10.91m11.07-10.62a6.395 6.395 0 007.43 1.38c-2.44-.62-4.91-1.22-7.43-1.38m2.96 11.16c-1.72.43-3.66.35-5.21 1.29-2.07 1.7-3.11 4.28-4.22 6.63 2.16-1.27 3.33-3.49 4.8-5.41 1.47-.46 3.01-.69 4.53-1.03 3.21-1.49 6.7-2.24 10.22-2.47-2.06-1.05-4.37-.99-6.6-.61l.44.72c-.61.36-1.81 1.08-2.41 1.44-.15-2.72.25-5.85-1.76-8.04-.11 2.5.15 4.99.21 7.48m-20.4-2.34c-.79.36-1.94 2.22-.61 2.6a3.83 3.83 0 002.67-1.36c.97-1.3-1.21-2.07-2.06-1.24m-10.98 3.43c2.11.23 4.22.42 6.34.62-1.5 1.57-2.85 3.26-4.18 4.97 1.99 2.67 3.31 5.86 5.82 8.11-.06-1.75-.39-3.49-1.44-4.94 1.42-.98 2.82-2 4.23-3l.39-2.69c-1.51-.23-3.03-.45-4.54-.66.52-.48 1.55-1.44 2.07-1.92-2.53-1.87-6.14-2.89-8.69-.49m12.82.48c-.24.33-.72 1-.96 1.33.88 3.44 4.65-2.04.96-1.33m20.12.56c1.11 1.81 2.35 3.54 3.9 4.99-.37-2.24-1.09-5.1-3.9-4.99m18.44 11.47c3.43 1.93 3.05 5.95 4.73 9.03 5.24.09 10.17 2.22 15.4 2.47 3.88-.15 7.1 2.56 9.46 5.36.19 1.74-2.29 2.69-3.1 4.12-1.57-2.75-5.06-5.21-8.27-3.79-5.72 1.71-10.91 4.79-15.72 8.25-2.62 1.88-2.86 5.33-3.61 8.19-.56 1.4-.02 2.72.87 3.86-6.85-2.25-13.69 2.66-16.83 8.52-1.04 2.22-3.36 4.7-1.78 7.19.73-1.08 1.42-2.17 2.1-3.27 1.43 5.08 5.88 8.47 7.8 13.3 1.23 2.57-1.72 4.54-2.81 6.54-8.51-8.29-19.78-13.17-28.67-21 3.73-1.96 8.77-2.91 10.74-7.02-4.5 1.81-8.66 4.36-13.02 6.48 1.54 1.73 3.07 3.51 4.97 4.87 7.83 5.76 15.71 11.54 24.13 16.4.33.5.66 1.01.98 1.52-1.47 2.11-2.2 4.59-3.09 6.99-10.9-9.66-23.68-16.9-35.96-24.62.56.92.88 2.07 1.8 2.72 3.33 2.4 6.75 4.66 10.22 6.85 6.43 4.11 12.36 8.94 18.57 13.37 1.58 1.29 4.04 1.78 4.92 3.75.64 7.97-.75 15.96-3.36 23.48-1.02 3.01-3.08 6.04-2.16 9.34 1.84 4.2 6.85 5.19 9.52 8.65 3.93 4.48 8.03 10.12 14.47 10.74 4.43.85 10.15-.66 11.95-5.23-.85-1.22-1.62-2.49-2.31-3.79-2.32-1.65-4.89-3-6.9-5.05-2.69-2.58-2.94-6.54-4.95-9.55 5.8-3.82 11.75-7.41 17.79-10.82 7.11-4.04 14.87-6.95 21.4-11.95.2-.67.61-2.01.81-2.67 2.88 2.16 5.99 3.97 8.89 6.1 1.77 1.16 3.89 2.4 6.09 1.68 3.79-.47 5.06-5.46 3.54-8.46-.68-2.14-2.77-3.13-4.45-4.35-4.21-2.72-5.34-8.52-10.12-10.57 3.36 5.79 7.12 11.58 13.05 15.04-.09 1.75 0 3.71-.98 5.24-1.51.6-3.16.51-4.73.72-3.84-2.28-7.28-5.84-11.89-6.31.4-1.4.78-2.8 1.13-4.21-3.4-2.76-7.78-4.47-12.19-4.13l-1.56 1.84c-3.47 1.36-6.8 3.04-10.22 4.5-3.16-3.17-4.99-7.29-7.82-10.71.42-.36 1.28-1.09 1.7-1.46.01-2.33.96-4.83-.27-7-1.78-3.43-2.66-7.19-2.99-11.02 5-3.07 10.18-5.82 15.41-8.47 1.44-.55 2.22-1.9 3.11-3.05 1.91.82 3.79 1.69 5.71 2.51-1.63-1.47-3.28-2.94-4.92-4.39.17-4.05.25-8.1.35-12.14 1.11-3.18 4.11-5.54 7.27-6.49 4.86 2.09 9.62 4.45 14.37 6.79 3.91 1.86 6.17 5.79 9.74 8.11 2.45 1.52 4.35 4.14 4.54 7.06-.02 3.31-3.16 5.09-4.92 7.49-2.2 3.19-5.37 5.55-7.26 8.96-2.49 4.47-7.24 7.07-9.48 11.7 6.04-2.21 9.66-8.11 13.3-13.11 3.52-4.13 7.1-8.32 9.7-13.1 1.91-6.8-5.67-10.27-9.51-14.43-4.96-5.71-13.18-6.51-18.56-11.53-1.87-.31-3.81.57-5.61-.18-.98-1.3-1.9-2.85-3.57-3.35-6.85-2.41-14.03-3.82-21.13-5.05-.16-3.58-2.79-6-5.81-7.46m-26.53 1.61c-.13 1.57 2.63 2.46 3.83 1.72.23-1.69-2.6-2.29-3.83-1.72m26.67 2.88c-1.76.61-3.67.91-5.24 1.97-.11.74-.02 1.61-.82 2-2.47 1.75-5.63 3.3-6.13 6.64 3.32-2.53 6.45-5.39 10.48-6.77-.3-1.61.65-2.79 1.71-3.84m-14.1 15.75c3.44-1.01 6.1-3.71 9.61-4.59 2.63-.68 5.28-1.66 6.57-4.28-5.92 1.51-12.94 3.09-16.18 8.87m58.53 12.35c1.84 3.5 4.81 6.16 7.9 8.53 2.47.26 7.07 1.61 7.16-2.22-2.16.06-4.32.11-6.48.17-2.9-2.12-5-5.47-8.58-6.48m-10.9 8.63c3.1 1.47 6.45 2.24 9.9 1.95-2.31 2.5-5.02 4.62-7.1 7.32-1.46 3.2-.97 6.9-2.42 10.12-1.52 2.79-3.04 5.73-5.86 7.42-2.41 1.32-3.46 3.86-4.14 6.37 1.91.09 2.85-1.36 3.68-2.8 4.53-4.45 9.08-9.86 9.52-16.48.01-5.48 5.88-7.57 9.05-11.08 2.18 1.31 4.47 2.61 7.09 2.65-2.42-1.66-4.85-3.31-7.26-4.98-4.16-.12-8.3-.63-12.46-.49m12.1 12.82c-1.92 1.75-3.8 3.55-5.74 5.29 2.66 1.58 4.6-1.67 6.41-3.11 1.37-.53.57-2.39-.67-2.18z"/><path d="M41.1 30.67c10.18 4.04 13.43 17.82 8.57 27.02-1.39 3.05-5 5.37-8.34 3.93-5.07-2.43-7.24-8.4-7.78-13.66-.83-6.51 1.12-14.3 7.55-17.29zM88.74 31.9c4.51.07 8.77-1.79 13.29-1.64 1.83 11.95 7.39 22.93 9.37 34.83.12 3.49 1.57 7.85-1.19 10.67 1.75 4.6.61 9.49.95 14.26.12 2.93.73 6.01-.39 8.83-.84 2-1.83 3.94-2.64 5.96-1.67-1.18-3.41-2.3-5.41-2.83 4.88-8.74 6.59-19.43 3.91-29.13-.82-3.21 1.41-6.18 1.61-9.36-2.02 2.39-3.4 5.39-3.48 8.55-.06 3.28 2.51 6.13 1.95 9.45-.6 4.19-1.4 8.39-1.09 12.64-1.55 1.79-2.33 4.51-4.4 5.69-1.18-2.79-1.44-5.83-2.17-8.74 0-2.3-.17-4.62.19-6.91 1.68-3.27 3.91-6.31 4.73-9.97-.92.69-1.83 1.41-2.73 2.14-.92-4.66-2.71-9.39-1.8-14.19 1.11-5.56.15-11.64-3.5-16.11 1.23-1.13 2.45-2.31 3.24-3.81-2.19.78-4.14 2.51-6.58 2.28-.9-.2-2.49.71-2.8-.6.26-4.02.34-8.17-1.06-12.01m5.64 5.65c-.27 1.5-.23 3.05-.37 4.57.83-3 4.22-3.67 5.73-6.19-1.79.52-3.61.98-5.36 1.62zM46.15 106.94c-.14-2.46 2.57-3.46 4.09-4.85 1.92 3.87 4.55 7.37 6.15 11.39.78 3.25.47 6.88 2.27 9.81 1.96 2.15 4.42 3.94 5.34 6.84 6.09 3.12 8.29 11.32 15.64 12.4-3.52-3.31-7.17-6.48-10.82-9.65 2.88.61 6.2.67 8.48 2.8 3.36 2.99 7.32 5.24 10.29 8.67.43 4.13 2.88 7.65 3.48 11.72.21 1.01.91 1.82 1.36 2.72-.78 2.29-.02 4.62.29 6.92-5.89-5.97-11.16-12.54-16.35-19.11-4.44-3.87-7.74-8.84-12.3-12.57-5.96-6.17-11.3-12.9-16.66-19.58-1.86-2.02-1.22-5.01-1.26-7.51zM72.03 120.23c1.89.32 3.8.51 5.7.84-1.56 1.13-3.17 2.17-4.72 3.29-.46-.67-1.37-2.03-1.83-2.7.22-.36.64-1.07.85-1.43zM123.96 152.89c6.06-1.17 10.98-5.39 17.09-6.43 2.85 4.65 2.19 10.3 1.95 15.5-.17 2.21-.11 5.19-2.56 6.18-5.32 2.68-10.1 6.24-15.22 9.24-1.24-2.3-2.65-4.5-4.31-6.52.41-.39 1.24-1.16 1.65-1.55-1.08-1.05-2.14-2.11-3.2-3.17.39-2.32.7-4.64.98-6.97 1.33-2.02 2.46-4.17 3.62-6.28m3.86 3.84c-2.4 2.03-4.9 5.54-2.42 8.48 1.07-3.64 3.05-7.36 6.71-8.92 2.06-1.27 5.35-1.15 6.08-3.96-3.86.24-7.34 2.12-10.37 4.4zM102.1 177.81c2.24-5.32 7.09-8.97 12.78-9.84 1.46.84 3.27 1.26 4.48 2.48 2.68 4.08 5.1 8.53 5.6 13.48.3 4.16 2.6 7.93 2.25 12.18-.96 2.35-3.26 3.82-4.36 6.09-2.81 5.83-4.67 12.09-7.72 17.82-1.54 3.14-2.97 6.83-1.45 10.26 2.23 6.56 4.17 13.77 9.48 18.59 2.73 2.66 6.5 4.05 8.66 7.33-4.54 2.82-10.64 4.39-15.6 1.72-2.42-1.58-4.1-4-6.02-6.1-3.17-3.73-7.01-6.82-11.09-9.48-.84-4.09 1.75-7.69 2.69-11.5.9-3.91 2.07-7.81 2.14-11.86.17-3.63-.38-7.36.71-10.9.97-4.28 3.21-8.11 5.48-11.82.57-.96 1.71-1.3 2.59-1.92-2.49-6.15-6.99-11.07-10.62-16.53m16.15 14.71c2.65.85 2.96-2.74 3.64-4.47-2.4.11-3.07 2.57-3.64 4.47m-6.66 52.34c-.86-3.91-1.42-7.98-3.43-11.51-1.41 4.06 1.03 8.33 3.43 11.51z"/><path d="M123.15 207.49c1.17-2.49 1.99-5.11 3.12-7.62 2.21 3.15 4.22 6.43 6.32 9.64.47 2.87 4.07 3.45 5.3.81 3.34-1.41 6.63-2.92 9.78-4.73 2.71-1.65 5.67.46 8.16 1.56.2 2.16.44 4.32.77 6.47-7.84 4.96-16.17 9.05-24.15 13.76-4.97 2.72-9.74 5.8-14.76 8.4-1.09-3.07-2.65-6.29-2.03-9.62 2.13-2.84 5.53-4.43 8.1-6.86-1.36-1.2-2.73-2.36-4.06-3.56 1.25-2.1.9-5.13 2.57-6.86 2.11 3.23 4.13 6.55 6.83 9.34l.92-2.23c-2.14-2.94-4.49-5.75-6.87-8.5z"/><path d="M118.48 217.65c3.5 1.05-.11 3.5-1.57 4.54.48-1.53 1.03-3.03 1.57-4.54z"/></g><g fill="#333"><path d="M92.91 24.59c.85-3.61 2.91-7.75 6.95-8.41 4.69-1.6 8.48 2.77 10.24 6.59 3.34 7.44 3.37 17.11-2.16 23.55 1.4 8.05 6.66 15.35 5.61 23.76-1.17 8.14-.15 16.38-.14 24.55-.07 4.37-2.62 7.99-4.38 11.81 3.45 3.9 2.94 9.25 4.25 13.97 2.19 2.38 3.35 5.43 4.61 8.35-6.11-1.17-11.78 2.08-17.6 3.39-4.04 3.94-9.22 7.2-11.35 12.65 1.04-.97 2.06-1.96 3.1-2.93-.03 1.05-.11 3.16-.15 4.22-1.82.71-1.54 2.75-1.82 4.31.97-1.46 1.85-2.97 2.83-4.42.68-1.51 1.35-3.03 2.04-4.54-.72-.24-2.17-.72-2.9-.96 1.66-.9 3.89-1.29 4.71-3.22 3.65-1.04 7-2.81 10.44-4.39-.88 4.38-6.39 4.16-9.71 5.68 1.09 2.88-1.92 4.69-2.94 7.08-2.61 3.74-2.79 9.2.31 12.72-2.03 5.91 1.03 12.23 3.91 17.36l-1.48.4c-2.58-2.48-3.05-6.33-5.73-8.7-4.39-4.3-8.11-9.21-11.9-14.03-2.72-3.4-6.27-6.05-8.83-9.57-.53.36-1.05.72-1.57 1.09 2.16 7.15 2.45 14.66 4.04 21.94 3.06-1.95 6.2-3.8 9.48-5.37-.18.56-.52 1.68-.7 2.24-3.51 1.39-6.88 3.1-10.31 4.67-1.9-8.35-2.66-16.87-4.26-25.27.63.09 1.9.26 2.54.34-3.06-3.65-6.3-7.15-9.78-10.4.54 4.31.46 8.65.67 12.98.99 8.39 2.46 16.74 3.17 25.16-6.78 4.21-14.54 6.67-21.37 10.85.42 1.99.42 4.12 1.22 6.01 1.29 1.58 2.88 2.86 4.34 4.26 6.04-2.55 11.52-6.21 17.5-8.86-.12.41-.35 1.21-.47 1.61-4.98 4.1-11.04 6.46-16.67 9.48-2.66-1.67-5.41-3.58-6.87-6.44-.55-2.49-.55-5.08-.42-7.62 6.73-3.58 13.74-6.61 20.66-9.8-1.58-11.81-2.93-23.69-3.39-35.61-.25-1.83-.14-3.87-1.18-5.47-4.14-5.14-8.63-10.03-12.4-15.44-1.03-3.15-2-7.01-.03-10 1.15-1.85 3.26-2.67 5.03-3.79-.81-5.41-.73-10.91-.69-16.36-.06-2.44-2.14-4.43-1.83-6.93.55-3.83-1.17-7.41-1.65-11.15l.72-2.73c-4.07 2.36-8.49-.84-10.64-4.24-4.79-7.5-5.39-17.98-.43-25.54 1.58-2.64 4.85-2.92 7.53-3.66 4.81 1.76 7.37 6.45 9.11 10.96 2.41 7.16 1.45 15.45-3.39 21.4l-.9-.85c-.74 5.68 2.1 10.93 1.39 16.56 2.89 6.16.84 13.19 2.42 19.67 1.58 5.14 4.44 9.76 6.13 14.85 1.17 4.04.57 8.89 3.87 12.04 4.03 6.6 12.89 6.16 18.35 10.92 2.89 2.25 6.25 4.02 8.34 7.14 1.24-2.26 2.53-4.61 4.63-6.19 3.2-2.48 6.04-5.7 10.05-6.86 3.93-1.46 8.13-1.81 12.19-2.74-1.59-3.49-4.4-6.54-4.7-10.52-.22-2.89-.96-5.7-2.39-8.22-1.06-3.16-5.01-3.1-7.19-5.16-.63-2-.96-4.09-1.65-6.09-1.44-.43-2.87-.89-4.31-1.33.24-.27.7-.83.94-1.1.83.56 2.5 1.67 3.33 2.23l-1.76-4.49-2.04.48c2.68-3.98 1.01-9.43 4.38-13.22-.66-5.38-3.26-10.61-2.3-16.11.78-5.41.42-11.44-3.1-15.89-1.64-1.24-3.8-1.28-5.72-1.72.26 3.98-3.01 8.11-6.91 9.02-2.81.74-5.04-1.76-7.57-2.21-2.15 2.4-4.72 5.51-8.38 4.69-1.24.13-1.35-1.37-1.98-2.08 2.82.38 6.12.3 7.86-2.34 4.4-6.04 3.75-14.52.81-21.04-1.45-3.56-4.93-5.36-8.08-7.13-3.86 1.73-5.49 5.61-8.03 8.67.78-3.9 3.07-8.37 7.46-8.9 3.82-1.33 7.04 1.96 8.95 4.85 3.59 5.98 4.34 13.58 2.26 20.21-.63 2.34 2.56 2.54 4.02 3.23 4 1.35 7.31-2.6 8.38-6.04 1.9-6.14 1.26-13.29-2.23-18.75-1.6-2.74-4.69-3.87-7.25-5.47-2.18 1.66-4.24 3.48-6.48 5.07 1.13-3.99 5.61-6.21 9.51-5.27 3.66 1.41 5.88 5 7.27 8.48 4.17.58 8.03-2.9 12.25-1.99 3.13.92 3.62 4.63 4.16 7.36.3 3.12 1.15 6.15 2.57 8.95 4.84-6.55 4.74-15.95.66-22.84-1.6-2.84-4.71-4.11-7.4-5.65-3.57 1.79-5.1 5.48-7.68 8.25M41.1 30.67c-6.43 2.99-8.38 10.78-7.55 17.29.54 5.26 2.71 11.23 7.78 13.66 3.34 1.44 6.95-.88 8.34-3.93 4.86-9.2 1.61-22.98-8.57-27.02m47.64 1.23c1.4 3.84 1.32 7.99 1.06 12.01.31 1.31 1.9.4 2.8.6 2.44.23 4.39-1.5 6.58-2.28-.79 1.5-2.01 2.68-3.24 3.81 3.65 4.47 4.61 10.55 3.5 16.11-.91 4.8.88 9.53 1.8 14.19.9-.73 1.81-1.45 2.73-2.14-.82 3.66-3.05 6.7-4.73 9.97-.36 2.29-.19 4.61-.19 6.91.73 2.91.99 5.95 2.17 8.74 2.07-1.18 2.85-3.9 4.4-5.69-.31-4.25.49-8.45 1.09-12.64.56-3.32-2.01-6.17-1.95-9.45.08-3.16 1.46-6.16 3.48-8.55-.2 3.18-2.43 6.15-1.61 9.36 2.68 9.7.97 20.39-3.91 29.13 2 .53 3.74 1.65 5.41 2.83.81-2.02 1.8-3.96 2.64-5.96 1.12-2.82.51-5.9.39-8.83-.34-4.77.8-9.66-.95-14.26 2.76-2.82 1.31-7.18 1.19-10.67-1.98-11.9-7.54-22.88-9.37-34.83-4.52-.15-8.78 1.71-13.29 1.64m-42.59 75.04c.04 2.5-.6 5.49 1.26 7.51 5.36 6.68 10.7 13.41 16.66 19.58 4.56 3.73 7.86 8.7 12.3 12.57 5.19 6.57 10.46 13.14 16.35 19.11-.31-2.3-1.07-4.63-.29-6.92-.45-.9-1.15-1.71-1.36-2.72-.6-4.07-3.05-7.59-3.48-11.72-2.97-3.43-6.93-5.68-10.29-8.67-2.28-2.13-5.6-2.19-8.48-2.8 3.65 3.17 7.3 6.34 10.82 9.65-7.35-1.08-9.55-9.28-15.64-12.4-.92-2.9-3.38-4.69-5.34-6.84-1.8-2.93-1.49-6.56-2.27-9.81-1.6-4.02-4.23-7.52-6.15-11.39-1.52 1.39-4.23 2.39-4.09 4.85z"/><path d="M51.59 36.68c3.69.35 7.97-2.21 11.08.62 1.16.85 2.35 1.66 3.37 2.66.16 2.33.18 4.71-.27 7-1.52 1.85-3.66 3.12-5.03 5.09-.59 4.07-1.02 8.44.79 12.29 2.07 4.58 3.11 9.98.81 14.7 1.43 1.97 4.1 3.58 3.71 6.37.62-.41 1.23-.81 1.84-1.22 3.23 1.11 6.57 1.94 9.64 3.44 2.31 1.27 2.18 4.29 2.35 6.55-1.54-1.87-2.35-4.3-4.14-5.93-2.71-1.05-5.52-1.85-8.2-2.97-1.04 2.91-1.07 6.46 1.61 8.55-.4-2.47-.04-4.98 2.27-6.41-.36 1.45-.85 2.85-1.49 4.2.06.87.14 1.74.25 2.61.94.67 1.87 1.36 2.78 2.08 4.95-2 10.33-1.04 15.5-1.15-1.78 1.96-4.35.81-6.58.73-3.06.6-6.07 1.49-9.06 2.39-1.45-1.32-2.89-2.66-4.33-3.98.36 4.9-.87 9.68-1.43 14.52-2.31-2.2-2.65-5.59-4.33-8.2-.84.47-1.69.94-2.54 1.4-.25-5.48-.01-10.96-.87-16.4 3.53 3.02 2.33 8.27 2.83 12.37 1.4 1.73 3.08 3.2 4.68 4.74.21-2.93-.09-5.87-.82-8.71-.78-3.1-.52-6.39-1.49-9.44-1.34-2.02-3.17-3.65-4.54-5.65l-1.01-.12c-.22 1.99-.52 3.98-.86 5.95-2.51-1.68-5.02-3.51-6.68-6.09 2.86-.48 4.13 2.95 6.08 4.39.86-4.63-1.59-8.46-3.67-12.3 3.66 1.3 3.95 6.24 7.79 7.29 2.24-8.08-4.57-14.95-3.19-22.94.17-1.4.34-2.8.53-4.19 1.66-1.52 3.38-2.97 5.16-4.34.28-1.68 1.03-3.42.55-5.12-1.52-1.8-3.68-2.87-5.6-4.16-2.49-.01-6.32 2.93-7.49-.62zM94.38 37.55c1.75-.64 3.57-1.1 5.36-1.62-1.51 2.52-4.9 3.19-5.73 6.19.14-1.52.1-3.07.37-4.57z"/><path d="M55.43 41.51c2.41 1.25 4.84 2.52 7.05 4.11-3.16.46-5.89-1.14-7.05-4.11zM88.8 95.22c.75-1.37 3.83-2.39 4.52-.53-.78 1.26-3.66 1.81-4.52.53zM82.53 102.7c2.22-1.07 4.69-1.48 7.01-2.31-.12.45-.35 1.34-.46 1.78-2.28.64-4.74.83-6.83 2.03-2.94 2.09-5.13 4.99-7.18 7.92-1.94.02-3.88-.01-5.81-.23 1.67-.6 3.45-.83 5.1-1.47 2.28-2.99 4.99-5.7 8.17-7.72zM91.08 101.23c2.64-1.21 5.59-1.85 8.41-.83-2.77.54-5.59.79-8.41.83zM66.04 110.35c-3.56-.14-5.89-3.45-5.17-6.81 1.7 2.29 3.51 4.49 5.17 6.81zM84.74 114.78c.72-5.28 6.26-7.42 9.6-10.91-.43 4.02-5.03 5.07-7.76 7.22-1.34 4.42 1.66 9.24-1.22 13.22 2.52.97 5.02 1.98 7.55 2.94 2.33 1 4.85.27 7.29.42-2.88 2.78-6.92 1.83-9.58-.68-2.05-.25-4.12-.36-6.18-.15-.34-.91-.68-1.82-1.04-2.71 2.05-2.83.54-6.23 1.34-9.35zM95.81 104.16c2.52.16 4.99.76 7.43 1.38a6.395 6.395 0 01-7.43-1.38z"/><path d="M98.77 115.32c-.06-2.49-.32-4.98-.21-7.48 2.01 2.19 1.61 5.32 1.76 8.04.6-.36 1.8-1.08 2.41-1.44l-.44-.72c2.23-.38 4.54-.44 6.6.61-3.52.23-7.01.98-10.22 2.47-1.52.34-3.06.57-4.53 1.03-1.47 1.92-2.64 4.14-4.8 5.41 1.11-2.35 2.15-4.93 4.22-6.63 1.55-.94 3.49-.86 5.21-1.29zM78.37 112.98c.85-.83 3.03-.06 2.06 1.24a3.83 3.83 0 01-2.67 1.36c-1.33-.38-.18-2.24.61-2.6zM67.39 116.41c2.55-2.4 6.16-1.38 8.69.49-.52.48-1.55 1.44-2.07 1.92 1.51.21 3.03.43 4.54.66l-.39 2.69c-1.41 1-2.81 2.02-4.23 3 1.05 1.45 1.38 3.19 1.44 4.94-2.51-2.25-3.83-5.44-5.82-8.11 1.33-1.71 2.68-3.4 4.18-4.97-2.12-.2-4.23-.39-6.34-.62m4.64 3.82c-.21.36-.63 1.07-.85 1.43.46.67 1.37 2.03 1.83 2.7 1.55-1.12 3.16-2.16 4.72-3.29-1.9-.33-3.81-.52-5.7-.84zM80.21 116.89c3.69-.71-.08 4.77-.96 1.33.24-.33.72-1 .96-1.33z"/><path d="M100.33 117.45c2.81-.11 3.53 2.75 3.9 4.99-1.55-1.45-2.79-3.18-3.9-4.99zM118.77 128.92c3.02 1.46 5.65 3.88 5.81 7.46 7.1 1.23 14.28 2.64 21.13 5.05 1.67.5 2.59 2.05 3.57 3.35 1.8.75 3.74-.13 5.61.18 5.38 5.02 13.6 5.82 18.56 11.53 3.84 4.16 11.42 7.63 9.51 14.43-2.6 4.78-6.18 8.97-9.7 13.1-3.64 5-7.26 10.9-13.3 13.11 2.24-4.63 6.99-7.23 9.48-11.7 1.89-3.41 5.06-5.77 7.26-8.96 1.76-2.4 4.9-4.18 4.92-7.49-.19-2.92-2.09-5.54-4.54-7.06-3.57-2.32-5.83-6.25-9.74-8.11-4.75-2.34-9.51-4.7-14.37-6.79-3.16.95-6.16 3.31-7.27 6.49-.1 4.04-.18 8.09-.35 12.14 1.64 1.45 3.29 2.92 4.92 4.39-1.92-.82-3.8-1.69-5.71-2.51-.89 1.15-1.67 2.5-3.11 3.05-5.23 2.65-10.41 5.4-15.41 8.47.33 3.83 1.21 7.59 2.99 11.02 1.23 2.17.28 4.67.27 7-.42.37-1.28 1.1-1.7 1.46 2.83 3.42 4.66 7.54 7.82 10.71 3.42-1.46 6.75-3.14 10.22-4.5l1.56-1.84c4.41-.34 8.79 1.37 12.19 4.13-.35 1.41-.73 2.81-1.13 4.21 4.61.47 8.05 4.03 11.89 6.31 1.57-.21 3.22-.12 4.73-.72.98-1.53.89-3.49.98-5.24-5.93-3.46-9.69-9.25-13.05-15.04 4.78 2.05 5.91 7.85 10.12 10.57 1.68 1.22 3.77 2.21 4.45 4.35 1.52 3 .25 7.99-3.54 8.46-2.2.72-4.32-.52-6.09-1.68-2.9-2.13-6.01-3.94-8.89-6.1-.2.66-.61 2-.81 2.67-6.53 5-14.29 7.91-21.4 11.95-6.04 3.41-11.99 7-17.79 10.82 2.01 3.01 2.26 6.97 4.95 9.55 2.01 2.05 4.58 3.4 6.9 5.05.69 1.3 1.46 2.57 2.31 3.79-1.8 4.57-7.52 6.08-11.95 5.23-6.44-.62-10.54-6.26-14.47-10.74-2.67-3.46-7.68-4.45-9.52-8.65-.92-3.3 1.14-6.33 2.16-9.34 2.61-7.52 4-15.51 3.36-23.48-.88-1.97-3.34-2.46-4.92-3.75-6.21-4.43-12.14-9.26-18.57-13.37-3.47-2.19-6.89-4.45-10.22-6.85-.92-.65-1.24-1.8-1.8-2.72 12.28 7.72 25.06 14.96 35.96 24.62.89-2.4 1.62-4.88 3.09-6.99-.32-.51-.65-1.02-.98-1.52-8.42-4.86-16.3-10.64-24.13-16.4-1.9-1.36-3.43-3.14-4.97-4.87 4.36-2.12 8.52-4.67 13.02-6.48-1.97 4.11-7.01 5.06-10.74 7.02 8.89 7.83 20.16 12.71 28.67 21 1.09-2 4.04-3.97 2.81-6.54-1.92-4.83-6.37-8.22-7.8-13.3-.68 1.1-1.37 2.19-2.1 3.27-1.58-2.49.74-4.97 1.78-7.19 3.14-5.86 9.98-10.77 16.83-8.52-.89-1.14-1.43-2.46-.87-3.86.75-2.86.99-6.31 3.61-8.19 4.81-3.46 10-6.54 15.72-8.25 3.21-1.42 6.7 1.04 8.27 3.79.81-1.43 3.29-2.38 3.1-4.12-2.36-2.8-5.58-5.51-9.46-5.36-5.23-.25-10.16-2.38-15.4-2.47-1.68-3.08-1.3-7.1-4.73-9.03m5.19 23.97c-1.16 2.11-2.29 4.26-3.62 6.28-.28 2.33-.59 4.65-.98 6.97 1.06 1.06 2.12 2.12 3.2 3.17-.41.39-1.24 1.16-1.65 1.55 1.66 2.02 3.07 4.22 4.31 6.52 5.12-3 9.9-6.56 15.22-9.24 2.45-.99 2.39-3.97 2.56-6.18.24-5.2.9-10.85-1.95-15.5-6.11 1.04-11.03 5.26-17.09 6.43m-21.86 24.92c3.63 5.46 8.13 10.38 10.62 16.53-.88.62-2.02.96-2.59 1.92-2.27 3.71-4.51 7.54-5.48 11.82-1.09 3.54-.54 7.27-.71 10.9-.07 4.05-1.24 7.95-2.14 11.86-.94 3.81-3.53 7.41-2.69 11.5 4.08 2.66 7.92 5.75 11.09 9.48 1.92 2.1 3.6 4.52 6.02 6.1 4.96 2.67 11.06 1.1 15.6-1.72-2.16-3.28-5.93-4.67-8.66-7.33-5.31-4.82-7.25-12.03-9.48-18.59-1.52-3.43-.09-7.12 1.45-10.26 3.05-5.73 4.91-11.99 7.72-17.82 1.1-2.27 3.4-3.74 4.36-6.09.35-4.25-1.95-8.02-2.25-12.18-.5-4.95-2.92-9.4-5.6-13.48-1.21-1.22-3.02-1.64-4.48-2.48-5.69.87-10.54 4.52-12.78 9.84m21.05 29.68c2.38 2.75 4.73 5.56 6.87 8.5l-.92 2.23c-2.7-2.79-4.72-6.11-6.83-9.34-1.67 1.73-1.32 4.76-2.57 6.86 1.33 1.2 2.7 2.36 4.06 3.56-2.57 2.43-5.97 4.02-8.1 6.86-.62 3.33.94 6.55 2.03 9.62 5.02-2.6 9.79-5.68 14.76-8.4 7.98-4.71 16.31-8.8 24.15-13.76-.33-2.15-.57-4.31-.77-6.47-2.49-1.1-5.45-3.21-8.16-1.56-3.15 1.81-6.44 3.32-9.78 4.73-1.23 2.64-4.83 2.06-5.3-.81-2.1-3.21-4.11-6.49-6.32-9.64-1.13 2.51-1.95 5.13-3.12 7.62m-4.67 10.16c-.54 1.51-1.09 3.01-1.57 4.54 1.46-1.04 5.07-3.49 1.57-4.54zM92.24 130.53c1.23-.57 4.06.03 3.83 1.72-1.2.74-3.96-.15-3.83-1.72z"/><path d="M118.91 133.41c-1.06 1.05-2.01 2.23-1.71 3.84-4.03 1.38-7.16 4.24-10.48 6.77.5-3.34 3.66-4.89 6.13-6.64.8-.39.71-1.26.82-2 1.57-1.06 3.48-1.36 5.24-1.97zM104.81 149.16c3.24-5.78 10.26-7.36 16.18-8.87-1.29 2.62-3.94 3.6-6.57 4.28-3.51.88-6.17 3.58-9.61 4.59zM127.82 156.73c3.03-2.28 6.51-4.16 10.37-4.4-.73 2.81-4.02 2.69-6.08 3.96-3.66 1.56-5.64 5.28-6.71 8.92-2.48-2.94.02-6.45 2.42-8.48zM163.34 161.51c3.58 1.01 5.68 4.36 8.58 6.48 2.16-.06 4.32-.11 6.48-.17-.09 3.83-4.69 2.48-7.16 2.22-3.09-2.37-6.06-5.03-7.9-8.53zM152.44 170.14c4.16-.14 8.3.37 12.46.49 2.41 1.67 4.84 3.32 7.26 4.98-2.62-.04-4.91-1.34-7.09-2.65-3.17 3.51-9.04 5.6-9.05 11.08-.44 6.62-4.99 12.03-9.52 16.48-.83 1.44-1.77 2.89-3.68 2.8.68-2.51 1.73-5.05 4.14-6.37 2.82-1.69 4.34-4.63 5.86-7.42 1.45-3.22.96-6.92 2.42-10.12 2.08-2.7 4.79-4.82 7.1-7.32-3.45.29-6.8-.48-9.9-1.95z"/><path d="M164.54 182.96c1.24-.21 2.04 1.65.67 2.18-1.81 1.44-3.75 4.69-6.41 3.11 1.94-1.74 3.82-3.54 5.74-5.29zM118.25 192.52c.57-1.9 1.24-4.36 3.64-4.47-.68 1.73-.99 5.32-3.64 4.47zM111.59 244.86c-2.4-3.18-4.84-7.45-3.43-11.51 2.01 3.53 2.57 7.6 3.43 11.51z"/></g></svg>