<svg width="215pt" height="250pt" viewBox="0 0 215 250" xmlns="http://www.w3.org/2000/svg"><g fill="#FFF"><path d="M0 0h215v250H0V0m109.63 39.31c-3.52.21-7.01.77-10.5 1.27-3.21-2.59-7.19-1.26-10.77-.88-4.2-2.86-9.72-2.67-13.67.54-3.55-.89-7.09-1.96-10.79-1.35-4.8-.39-9.95.67-13.24 4.46-2.68-3.85-8.46-7.09-12.68-3.62-3.01 1.55-3.41 5.12-2.67 8.1-.7.4-2.09 1.2-2.79 1.6-2.04-2-4.76-3.01-7.54-3.47-4.21.32-7.47 4.01-8.2 8 .4 6.08 3.26 12.39 8.57 15.71 1.72.93 3.64 2.05 5.68 1.51 3.9-1.75 7.9-5.04 7.07-9.83 1.21-.78 2.31-2.14 3.95-1.77.24-.4.72-1.21.96-1.62l.59-.25c2.48-1.13 5.14-1.94 7.76-2.73-2.02 2.95-5.87 3.17-8.68 4.99 4.27 2.79 9.34-1.25 10.59-5.53 2.13-.09 3.96-1.36 6.08-1.49.97 2.45 2.42 4.64 3.65 6.95-2.14 2.84-5.1 5.33-5.78 9-1.01 2.87-.8 5.91-.1 8.83-1.39-.44-2.79-.87-4.18-1.3-2.33 1.38-4.85 2.59-6.67 4.68-8.5 10.2-17.01 20.39-25.54 30.56-2.83 3.52-6.03 6.77-8.39 10.64 2.65.41 3.79-2.09 5.26-3.72 10.32-12.36 20.65-24.72 30.97-37.08 2.93-3.18 7.66-2.07 11.47-1.83 6.67 1.27 13.4 2.32 19.98 4.1 1.26 2.03 2.78 3.92 3.74 6.12-1.54 3.26-3.96 5.96-6.08 8.84-16.65 22.38-33.22 44.84-49.9 67.2-.98 1.12-1.6 2.5-.01 3.49 11.06-14.68 22.42-29.17 32.83-44.32-.38 14.97-.25 29.93-.33 44.9-.03 1.62.01 3.8-1.85 4.44-10.16 5.29-20.38 10.47-30.53 15.75-.1.58-.32 1.72-.42 2.29 9.58-4.53 18.84-9.73 28.34-14.43 2.18-1.18 4.55-2.09 6.46-3.72.06-16.13 0-32.27.09-48.41-.37-4.29 3.5-7.08 5.41-10.5.04 8.2-.17 16.41.38 24.59.06 12.98 0 25.97.39 38.94-13.77 7.02-27.39 14.32-41.13 21.39-1.35.59-2.28 1.76-3.21 2.86 2.42.09 4.5-1.21 6.54-2.29 13.16-6.99 26.44-13.75 39.58-20.78.05-18.71-.12-37.43-.14-56.14-.09-3.47-.35-6.95-.92-10.37 5.17-7.61 10.96-14.79 15.84-22.59 1.17-1.91-1.4-3.79-.6-5.81.37-3.51 1.68-6.83 4.3-9.28 5.55 2.44 11.84 4.92 17.85 2.35.44 3.45-2.26 6.35-1.69 9.77 1.48 6.51 1.49 13.37.11 19.9-.5 8.28.51 16.79-1.96 24.85-5.36 2.44-7.53 8.64-12.92 11.06-3.76-.6-6.28 2.12-7.88 5.12 2.4 4.77 8.72 6.27 13.65 5.14 4.02.29 6.94-3.7 11.01-3.11 3.83.4 8.03.93 11.21-1.81 1.56-8.23-3.58-15.86-2.06-24.07.54-5.19 3.98-9.32 5.68-14.12-.51-4.32-.25-8.73-1.34-12.98-1.48-4.01 3.11-6.98 2.53-11.04-.44-5.78 4.84-9.49 6.59-14.6-4.51 1.46-6.14 6.13-8.5 9.76-1.81 2.77-.73 6.28-1.99 9.25-1.04 3.41-4.74 6.92-1.81 10.38.46-1.36.93-2.71 1.4-4.06 1.33 5.05.5 10.23-.38 15.27-.54 3.39-3.29 5.96-3.64 9.4-.31 4.12-.48 8.29-.09 12.41 1.68 4.51 1.74 9.37 1.55 14.12-2.89 1.38-6.07.87-9.12.49-3.58-.47-6.76 1.4-9.88 2.82-2.36-.29-4.62.55-6.95.63-2.1-.69-3.84-2.11-5.81-3.07 1.02-1.65 2.17-3.55 4.39-3.53 3.64-.42 6.63-2.83 8.71-5.72 2.15-3.04 5.1-5.34 7.89-7.75.4-4.3 1.93-8.5 1.53-12.85-.34-5.01-.2-10.08.94-14.98.7-3.3-.25-6.62-.14-9.94.18-3.08-1.41-5.96-1.25-9.02.41-1.55 1.25-2.93 1.96-4.34 1.15 2.86 3.23 5.39 6.51 5.64 1.65-2.09 2.88-4.49 3.28-7.14-1.23 2.36-2.85 4.49-5.21 5.83-1.68-1.72-2.76-3.87-3.23-6.22-.65-.63-1.95-1.9-2.6-2.53 6.51-2.81 14.96-.4 20.31-5.87 3.08-3.74 8.06-6.6 8.32-11.95 2.12 1.17 4.16 2.47 6.23 3.71-.8 1.86-1.53 3.75-2.1 5.69-.65 2.71.61 5.36.8 8.04-4.57.07-8.47-2.35-11.51-5.55 2.31 2.8 3 6.24 2.81 9.78-.04 5.07 3.94 8.64 5.7 13.07 1.27 4.61 3.41 8.98 4.06 13.76.45 5.16-.94 10.48.62 15.53 3.02 6.86 3.39 14.67 2.28 22-.43 3.94-3.27 6.85-4.93 10.28-1.86 4.01-5.61 6.62-7.77 10.46.12 1.5-.38 3.17.39 4.55 1.09 1.16 2.8.8 4.22.88 1.32 2.81 4.92 2.43 7.49 2.44 3.38.04 6.52-1.7 8.86-4.03 2-2.14.57-5.44 2.21-7.81 2.41-3.68 1.81-8.16 3.05-12.21-.38-3.95-1.45-7.98-.51-11.94.88-6.05 3.57-11.81 3.4-18-.25-7.24-4.76-13.58-4.74-20.85-.07-4.36-1.57-8.6-4.08-12.14 5.34.3 10.8-4.33 9.96-9.96.97-.85 1.95-1.68 2.95-2.5 4.43 2.75 10.99 1.42 13.03-3.65 1.6-7.05-.98-15.94-8.32-18.59-3.2-1.41-6.34.17-9.03 1.83-1.1 2.11-1.41 4.85-3.64 6.14-.99-1.62-1.94-3.27-2.99-4.86-1.08-4.06-1.5-8.41-3.71-12.07-4.04-4.81-10.28-7.19-16.35-8.04-4.11-1.89-8.68-2.37-13.16-2.51-4.6-.07-8.6 2.99-11.36 6.42M76.06 86.84c-4.24 7.83-10.13 14.57-15.28 21.8-2.53 3.78-6.23 6.56-8.75 10.35-3.07 4.41-6.75 8.4-9.54 12.98.07.49.2 1.48.26 1.98 7.05-7.52 12.36-16.48 18.8-24.51 5.12-7.94 11.75-14.77 16.51-22.96l-2 .36m36.17 48.53c-.23 2.87-.7 5.68-1.34 8.49 2.65-2.07 3.16-5.7 1.34-8.49z"/><path d="M114.09 38.16c3.3-4.34 9.12-3.28 13.76-2.42 2.79.51 5.02 2.91 8.03 2.32-2.28 1.98-5.16 2.82-8.01 3.58-4.41-1.85-9.16-2.45-13.78-3.48zM135.36 39.99c.66-.62 1.31-1.23 1.95-1.86 3.83.95 7.74 2.26 10.79 4.85 2.79 2.56 2.56 6.66 4.37 9.77-4.1-4.66-8.81-8.78-13.98-12.2-.78-.14-2.34-.42-3.13-.56z"/><path d="M73.9 42.96c1.67-2.2 4.44-3.4 7.11-3.77 1.77.37 3.39 1.23 5.06 1.9a18.94 18.94 0 00-6.93 9.33c3.86-2.59 5.19-8.06 10.21-8.99 6.99-1.64 15.01 2.66 21.45-2.09 4.11 1.41 8.48 1.65 12.69 2.58-5.51 1.11-11.03 2.64-15.6 6.11 2.85 2.67 6.39 4.74 10.36 5.05-.28-.48-.85-1.42-1.13-1.9-2.22-1.06-4.51-1.99-6.57-3.33 3.8-1.71 7.61-3.77 11.92-3.69 4.94.01 9.43-2.37 14.31-2.78 2.13 1.8 4.29 3.57 6.59 5.17-.92-.19-2.75-.58-3.66-.77l2.54.81-1.89.78c1.59 1.93 2.96 4.04 4.72 5.83.16-1.53-.22-2.91-1.15-4.16.26-.54.53-1.08.81-1.61 4.75 4.71 9.19 9.84 12.34 15.78 2.55.49 5.14.76 7.72 1.03.97 1.99 1.67 4.09 2.21 6.23-1.95 1.25-3.74 2.71-5.47 4.25-.66-6.44-5.08-12.82-11.6-14.32-2.23-1.13-4.37.44-6.29 1.42-2.74-2.08-6.17-3.23-8.39-5.95-1.86-2.35-4.59-3.91-7.64-3.8.95 1.11 2.31 1.67 3.61 2.26-2.67 5.19-8.71 5.84-13.71 7.38.31-.9.94-2.69 1.26-3.59-3.43 3.6-5.93 8.44-10.71 10.5-3.31.55-6.68.72-10.03.87-1.15 1.51.9 2.03 2.03 2.04 2.89.25 5.84-.12 8.61-.95 4.35-2.13 7.13-7.21 12.34-7.51 4.31-1.23 9.81-3.23 10.76-8.21 1.2 1.56 2.44 3.09 3.66 4.63-2.52 5-7.49 7.9-11.48 11.59-4.36 2.4-9.5 2.64-14.27 3.73-.61.63-1.22 1.26-1.83 1.88-.26-.7-.78-2.12-1.04-2.83-.26 1.2-.42 2.42-.48 3.66-3.09-.13-6.19.03-9.26-.33-3.06-.79-6.06-2.31-9.3-1.5-2.55 2.15-4.14 5.03-4.98 8.23-.46-.45-1.36-1.35-1.82-1.8-6.98-2.47-14.42-2.9-21.63-4.36-3.02-7.75 2.32-17.61 10.86-18.45 3.1.51 6.17 1.9 8.51 4.05 1.33 1.85 1.85 4.16 2.98 6.14 2.25-1.03 4.66-1.85 6.31-3.8-2.02-.02-3.99.5-5.8 1.38-.03-3.07-2.36-5.08-4.06-7.34-3.43-1.09-6.68-2.77-10.3-3.16-1.09.78-2.18 1.55-3.27 2.33-1.39-2.54-3.95-4.82-3.71-7.95-.16-3.24 1.62-6.07 3.83-8.28l.67 1.3c-.23-.73-.69-2.19-.91-2.92 2.66-.75 5.42-.72 8 .33-1.57 2.49-4.33 3.03-7.07 3.17-.78 1.46-1.1 3.11-1.48 4.71 1.66-.88 2.9-2.27 4.02-3.74 1.85.18 3.58-.5 5.24-1.24.37.63.73 1.26 1.08 1.9-2.45.86-4.88 2.06-6.29 4.34 4.02-1.11 8.73-3.24 9.14-7.99l-.67 1.9c-.85-.49-1.69-.98-2.53-1.48m17.99 1.49c-.01 2.43-.56 4.84-2.27 6.68 1.67 1.1 3.32 2.22 4.99 3.33.97 1.73 1.43 4.75 4.08 4.05-1.19-3.4-3.69-6.06-6.75-7.87.78-1.55 1.42-3.16 2.14-4.73-.73-.49-1.46-.98-2.19-1.46m3.08 1.08c2.11-.16 4.22-.28 6.33-.12-.25 2.59-2.06 4.59-2.65 7.07 2.22-1.26 3.64-3.4 5.4-5.17 1.34-.19 2.69-.36 4.04-.51-1.15-1.71-3.13-1.74-4.58-.28-.85-.76-1.7-1.52-2.54-2.28-1.97.36-4.84-.91-6 1.29m25.68.3c-.35.19-1.07.55-1.42.73 1.25.84 2.51 1.67 3.76 2.51 1.7-.71 3.41-1.4 5.13-2.06.68-.87 1.36-1.73 2.05-2.58-2.81 1.96-6.37 3.91-9.52 1.4M99.5 53.04c.64 1.34 1.35 2.66 2.28 3.83-1.56 2.5-2.84 7.58 1.01 8.53-.66-2.7-.32-5.47.08-8.18 1.06-.69 2.11-1.37 3.17-2.05-2.05-1.08-4.48-1.05-6.54-2.13M79 70.33c.83 1.37 2.15 2.28 3.52 3.07.13 1.94-.52 3.73-1.41 5.42.33.03.99.1 1.32.13 1.81-3.2 1.08-8.62-3.43-8.62m5.63 3.21c2.49-.5 5.17-1.04 6.79-3.21-2.31.64-6.4.07-6.79 3.21zM38.53 41.57c3.8-2.27 8.82-.84 11.36 2.65-1.37 1.31-2.76.9-4.1-.14.31 2.26-.08 4.32-2.72 4.83-1.96-1.06-4.09-1.74-6.24-2.26.27-1.73-.14-4.08 1.7-5.08z"/><path d="M42.05 51.14c7.14-2.71 11.49-11.69 20.08-10.25.4.86.8 1.72 1.2 2.57l-1.2-.18c-.14.75-.41 2.24-.54 2.99-1.96 1.64-2.55 4.34-4.52 5.92-2.72 2.33-6.63.58-9.62 2.31-3.32 1.83-7.44 2.04-10.22 4.79-.42-1.6-.84-3.2-1.29-4.79-1.09-1.18-2.15-2.39-3.2-3.61 1.5-.78 2.99-1.58 4.48-2.37 1.56.94 3 2.25 4.83 2.62zM17.66 56.68c.77-3.45 1.91-7.31 5.51-8.77 3.06-1.1 5.75 1.29 7.87 3.17 3.56 4 5.54 9.34 4.93 14.72-1.81 1.82-4 4.38-6.9 3.38-5.74-1.63-9.11-7.38-11.41-12.5m4.11-6.95c2.59 2.63 5.68 4.81 7.74 7.93 1 2.44.99 5.16 1.62 7.7 2.46-2.11.97-5.87-.12-8.34-2.03-3.35-5.02-7.08-9.24-7.29zM160.99 61.54c-.45-3.28 1.23-7.22 4.91-7.45 9.08-1.57 13.88 10.84 9.72 17.67-1.46.61-2.91 1.22-4.35 1.84-.61-.18-1.81-.54-2.41-.72.8-3.11-.26-6.15-1.68-8.89-.74-2.67-4.12-1.85-6.19-2.45m10.19-3.43c-.17.44-.49 1.31-.65 1.74 1.98 2.37 1.66 5.65 3 8.32 1.79-3.5 1.07-7.88-2.35-10.06zM140.03 71.91c.76-4.36 3.05-9.43 7.97-10.09 7.84 1.74 12.75 10.57 12.13 18.25-.09 3.19-3.44 4.66-5.93 5.79-7.12-1.41-11-8.09-14.17-13.95m4.85-6.71c2.95 1.51 5.58 3.68 7.43 6.44 2.09 2.65 1.96 6.2 2.67 9.35.56-.61 1.29-1.24 1.25-2.15.3-6-3.77-11.48-8.91-14.18-.91-.69-1.86-.32-2.44.54z"/><path d="M132.91 76.42c2.93.64 5.89 1.22 8.9 1.33.53 1.07 1.02 2.17 1.46 3.3 2.48 2.35 4.89 4.95 8.29 5.94.29 4.21 3.63 7.67 3.26 11.98-.82 5.27-2.3 10.4-3.83 15.5 3.13-1.59 2.92-5.81 4.5-8.6 2 4.81 3.92 9.82 4.12 15.08-.35 6.96-3.71 13.37-3.95 20.35-.22 2.98.42 5.91.78 8.85-.69 6.07-4.78 11.34-4.84 17.54-3 4.55-9.5 5.9-13.88 2.52.42-.5 1.24-1.5 1.65-2 3.35.1 6.69.54 10.04.02-.25-1.82-2.2-1.48-3.52-1.49-2.32.28-4.56-.48-6.82-.81-1.17 1.2-1.93 2.71-2.74 4.15-1.21-.4-2.43-.76-3.65-1.1 2.4-5.42 7.41-9.01 9.73-14.49 4.84-6.36 5.44-14.73 4.71-22.42-.08-4.32-2.78-7.97-3.49-12.15-.48-3.03.12-6.08.19-9.1 2.79 4.24 3.36 9.35 3.24 14.31.38.12 1.15.38 1.54.51.24-4.74-.17-9.67-2.42-13.93-4.5-7.18-4.77-16.22-9.71-23.19-2.69-3.44-2.89-7.95-3.56-12.1m7.41 16.69c.48-.8 1.44-2.41 1.92-3.22 1.8.51 3.61 1 5.43 1.43.21.75.64 2.25.85 3l1.08-1.16c-.58-1.06-1-2.19-1.28-3.36-2.4.08-4.66-.67-6.73-1.82-.69 1.63-1.29 3.33-1.27 5.13m2.18 6.66c1.68.72 5.05 1.71 4.68-1.37-1.62.26-3.15.81-4.68 1.37m5.56 44.28c1.76 2.87 2.63 6.68 5.9 8.25-1.43-2.99-1.89-7.76-5.9-8.25z"/></g><g fill="#333"><path d="M109.63 39.31c2.76-3.43 6.76-6.49 11.36-6.42 4.48.14 9.05.62 13.16 2.51 6.07.85 12.31 3.23 16.35 8.04 2.21 3.66 2.63 8.01 3.71 12.07 1.05 1.59 2 3.24 2.99 4.86 2.23-1.29 2.54-4.03 3.64-6.14 2.69-1.66 5.83-3.24 9.03-1.83 7.34 2.65 9.92 11.54 8.32 18.59-2.04 5.07-8.6 6.4-13.03 3.65-1 .82-1.98 1.65-2.95 2.5.84 5.63-4.62 10.26-9.96 9.96 2.51 3.54 4.01 7.78 4.08 12.14-.02 7.27 4.49 13.61 4.74 20.85.17 6.19-2.52 11.95-3.4 18-.94 3.96.13 7.99.51 11.94-1.24 4.05-.64 8.53-3.05 12.21-1.64 2.37-.21 5.67-2.21 7.81-2.34 2.33-5.48 4.07-8.86 4.03-2.57-.01-6.17.37-7.49-2.44-1.42-.08-3.13.28-4.22-.88-.77-1.38-.27-3.05-.39-4.55 2.16-3.84 5.91-6.45 7.77-10.46 1.66-3.43 4.5-6.34 4.93-10.28 1.11-7.33.74-15.14-2.28-22-1.56-5.05-.17-10.37-.62-15.53-.65-4.78-2.79-9.15-4.06-13.76-1.76-4.43-5.74-8-5.7-13.07.19-3.54-.5-6.98-2.81-9.78 3.04 3.2 6.94 5.62 11.51 5.55-.19-2.68-1.45-5.33-.8-8.04.57-1.94 1.3-3.83 2.1-5.69-2.07-1.24-4.11-2.54-6.23-3.71-.26 5.35-5.24 8.21-8.32 11.95-5.35 5.47-13.8 3.06-20.31 5.87.65.63 1.95 1.9 2.6 2.53.47 2.35 1.55 4.5 3.23 6.22 2.36-1.34 3.98-3.47 5.21-5.83-.4 2.65-1.63 5.05-3.28 7.14-3.28-.25-5.36-2.78-6.51-5.64-.71 1.41-1.55 2.79-1.96 4.34-.16 3.06 1.43 5.94 1.25 9.02-.11 3.32.84 6.64.14 9.94-1.14 4.9-1.28 9.97-.94 14.98.4 4.35-1.13 8.55-1.53 12.85-2.79 2.41-5.74 4.71-7.89 7.75-2.08 2.89-5.07 5.3-8.71 5.72-2.22-.02-3.37 1.88-4.39 3.53 1.97.96 3.71 2.38 5.81 3.07 2.33-.08 4.59-.92 6.95-.63 3.12-1.42 6.3-3.29 9.88-2.82 3.05.38 6.23.89 9.12-.49.19-4.75.13-9.61-1.55-14.12-.39-4.12-.22-8.29.09-12.41.35-3.44 3.1-6.01 3.64-9.4.88-5.04 1.71-10.22.38-15.27-.47 1.35-.94 2.7-1.4 4.06-2.93-3.46.77-6.97 1.81-10.38 1.26-2.97.18-6.48 1.99-9.25 2.36-3.63 3.99-8.3 8.5-9.76-1.75 5.11-7.03 8.82-6.59 14.6.58 4.06-4.01 7.03-2.53 11.04 1.09 4.25.83 8.66 1.34 12.98-1.7 4.8-5.14 8.93-5.68 14.12-1.52 8.21 3.62 15.84 2.06 24.07-3.18 2.74-7.38 2.21-11.21 1.81-4.07-.59-6.99 3.4-11.01 3.11-4.93 1.13-11.25-.37-13.65-5.14 1.6-3 4.12-5.72 7.88-5.12 5.39-2.42 7.56-8.62 12.92-11.06 2.47-8.06 1.46-16.57 1.96-24.85 1.38-6.53 1.37-13.39-.11-19.9-.57-3.42 2.13-6.32 1.69-9.77-6.01 2.57-12.3.09-17.85-2.35-2.62 2.45-3.93 5.77-4.3 9.28-.8 2.02 1.77 3.9.6 5.81-4.88 7.8-10.67 14.98-15.84 22.59.57 3.42.83 6.9.92 10.37.02 18.71.19 37.43.14 56.14-13.14 7.03-26.42 13.79-39.58 20.78-2.04 1.08-4.12 2.38-6.54 2.29.93-1.1 1.86-2.27 3.21-2.86 13.74-7.07 27.36-14.37 41.13-21.39-.39-12.97-.33-25.96-.39-38.94-.55-8.18-.34-16.39-.38-24.59-1.91 3.42-5.78 6.21-5.41 10.5-.09 16.14-.03 32.28-.09 48.41-1.91 1.63-4.28 2.54-6.46 3.72-9.5 4.7-18.76 9.9-28.34 14.43.1-.57.32-1.71.42-2.29 10.15-5.28 20.37-10.46 30.53-15.75 1.86-.64 1.82-2.82 1.85-4.44.08-14.97-.05-29.93.33-44.9-10.41 15.15-21.77 29.64-32.83 44.32-1.59-.99-.97-2.37.01-3.49 16.68-22.36 33.25-44.82 49.9-67.2 2.12-2.88 4.54-5.58 6.08-8.84-.96-2.2-2.48-4.09-3.74-6.12-6.58-1.78-13.31-2.83-19.98-4.1-3.81-.24-8.54-1.35-11.47 1.83-10.32 12.36-20.65 24.72-30.97 37.08-1.47 1.63-2.61 4.13-5.26 3.72 2.36-3.87 5.56-7.12 8.39-10.64 8.53-10.17 17.04-20.36 25.54-30.56 1.82-2.09 4.34-3.3 6.67-4.68 1.39.43 2.79.86 4.18 1.3-.7-2.92-.91-5.96.1-8.83.68-3.67 3.64-6.16 5.78-9-1.23-2.31-2.68-4.5-3.65-6.95-2.12.13-3.95 1.4-6.08 1.49-1.25 4.28-6.32 8.32-10.59 5.53 2.81-1.82 6.66-2.04 8.68-4.99-2.62.79-5.28 1.6-7.76 2.73l-.59.25c-.24.41-.72 1.22-.96 1.62-1.64-.37-2.74.99-3.95 1.77.83 4.79-3.17 8.08-7.07 9.83-2.04.54-3.96-.58-5.68-1.51-5.31-3.32-8.17-9.63-8.57-15.71.73-3.99 3.99-7.68 8.2-8 2.78.46 5.5 1.47 7.54 3.47.7-.4 2.09-1.2 2.79-1.6-.74-2.98-.34-6.55 2.67-8.1 4.22-3.47 10-.23 12.68 3.62 3.29-3.79 8.44-4.85 13.24-4.46 3.7-.61 7.24.46 10.79 1.35 3.95-3.21 9.47-3.4 13.67-.54 3.58-.38 7.56-1.71 10.77.88 3.49-.5 6.98-1.06 10.5-1.27m4.46-1.15c4.62 1.03 9.37 1.63 13.78 3.48 2.85-.76 5.73-1.6 8.01-3.58-3.01.59-5.24-1.81-8.03-2.32-4.64-.86-10.46-1.92-13.76 2.42m21.27 1.83c.79.14 2.35.42 3.13.56 5.17 3.42 9.88 7.54 13.98 12.2-1.81-3.11-1.58-7.21-4.37-9.77-3.05-2.59-6.96-3.9-10.79-4.85-.64.63-1.29 1.24-1.95 1.86M73.9 42.96c.84.5 1.68.99 2.53 1.48l.67-1.9c-.41 4.75-5.12 6.88-9.14 7.99 1.41-2.28 3.84-3.48 6.29-4.34-.35-.64-.71-1.27-1.08-1.9-1.66.74-3.39 1.42-5.24 1.24-1.12 1.47-2.36 2.86-4.02 3.74.38-1.6.7-3.25 1.48-4.71 2.74-.14 5.5-.68 7.07-3.17-2.58-1.05-5.34-1.08-8-.33.22.73.68 2.19.91 2.92l-.67-1.3c-2.21 2.21-3.99 5.04-3.83 8.28-.24 3.13 2.32 5.41 3.71 7.95 1.09-.78 2.18-1.55 3.27-2.33 3.62.39 6.87 2.07 10.3 3.16 1.7 2.26 4.03 4.27 4.06 7.34 1.81-.88 3.78-1.4 5.8-1.38-1.65 1.95-4.06 2.77-6.31 3.8-1.13-1.98-1.65-4.29-2.98-6.14-2.34-2.15-5.41-3.54-8.51-4.05-8.54.84-13.88 10.7-10.86 18.45 7.21 1.46 14.65 1.89 21.63 4.36.46.45 1.36 1.35 1.82 1.8.84-3.2 2.43-6.08 4.98-8.23 3.24-.81 6.24.71 9.3 1.5 3.07.36 6.17.2 9.26.33.06-1.24.22-2.46.48-3.66.26.71.78 2.13 1.04 2.83.61-.62 1.22-1.25 1.83-1.88 4.77-1.09 9.91-1.33 14.27-3.73 3.99-3.69 8.96-6.59 11.48-11.59-1.22-1.54-2.46-3.07-3.66-4.63-.95 4.98-6.45 6.98-10.76 8.21-5.21.3-7.99 5.38-12.34 7.51-2.77.83-5.72 1.2-8.61.95-1.13-.01-3.18-.53-2.03-2.04 3.35-.15 6.72-.32 10.03-.87 4.78-2.06 7.28-6.9 10.71-10.5-.32.9-.95 2.69-1.26 3.59 5-1.54 11.04-2.19 13.71-7.38-1.3-.59-2.66-1.15-3.61-2.26 3.05-.11 5.78 1.45 7.64 3.8 2.22 2.72 5.65 3.87 8.39 5.95 1.92-.98 4.06-2.55 6.29-1.42 6.52 1.5 10.94 7.88 11.6 14.32 1.73-1.54 3.52-3 5.47-4.25-.54-2.14-1.24-4.24-2.21-6.23-2.58-.27-5.17-.54-7.72-1.03-3.15-5.94-7.59-11.07-12.34-15.78-.28.53-.55 1.07-.81 1.61.93 1.25 1.31 2.63 1.15 4.16-1.76-1.79-3.13-3.9-4.72-5.83l1.89-.78-2.54-.81c.91.19 2.74.58 3.66.77-2.3-1.6-4.46-3.37-6.59-5.17-4.88.41-9.37 2.79-14.31 2.78-4.31-.08-8.12 1.98-11.92 3.69 2.06 1.34 4.35 2.27 6.57 3.33.28.48.85 1.42 1.13 1.9-3.97-.31-7.51-2.38-10.36-5.05 4.57-3.47 10.09-5 15.6-6.11-4.21-.93-8.58-1.17-12.69-2.58-6.44 4.75-14.46.45-21.45 2.09-5.02.93-6.35 6.4-10.21 8.99a18.94 18.94 0 016.93-9.33c-1.67-.67-3.29-1.53-5.06-1.9-2.67.37-5.44 1.57-7.11 3.77m-35.37-1.39c-1.84 1-1.43 3.35-1.7 5.08 2.15.52 4.28 1.2 6.24 2.26 2.64-.51 3.03-2.57 2.72-4.83 1.34 1.04 2.73 1.45 4.1.14-2.54-3.49-7.56-4.92-11.36-2.65m3.52 9.57c-1.83-.37-3.27-1.68-4.83-2.62-1.49.79-2.98 1.59-4.48 2.37 1.05 1.22 2.11 2.43 3.2 3.61.45 1.59.87 3.19 1.29 4.79 2.78-2.75 6.9-2.96 10.22-4.79 2.99-1.73 6.9.02 9.62-2.31 1.97-1.58 2.56-4.28 4.52-5.92.13-.75.4-2.24.54-2.99l1.2.18c-.4-.85-.8-1.71-1.2-2.57-8.59-1.44-12.94 7.54-20.08 10.25m-24.39 5.54c2.3 5.12 5.67 10.87 11.41 12.5 2.9 1 5.09-1.56 6.9-3.38.61-5.38-1.37-10.72-4.93-14.72-2.12-1.88-4.81-4.27-7.87-3.17-3.6 1.46-4.74 5.32-5.51 8.77m143.33 4.86c2.07.6 5.45-.22 6.19 2.45 1.42 2.74 2.48 5.78 1.68 8.89.6.18 1.8.54 2.41.72 1.44-.62 2.89-1.23 4.35-1.84 4.16-6.83-.64-19.24-9.72-17.67-3.68.23-5.36 4.17-4.91 7.45m-20.96 10.37c3.17 5.86 7.05 12.54 14.17 13.95 2.49-1.13 5.84-2.6 5.93-5.79.62-7.68-4.29-16.51-12.13-18.25-4.92.66-7.21 5.73-7.97 10.09m-7.12 4.51c.67 4.15.87 8.66 3.56 12.1 4.94 6.97 5.21 16.01 9.71 23.19 2.25 4.26 2.66 9.19 2.42 13.93-.39-.13-1.16-.39-1.54-.51.12-4.96-.45-10.07-3.24-14.31-.07 3.02-.67 6.07-.19 9.1.71 4.18 3.41 7.83 3.49 12.15.73 7.69.13 16.06-4.71 22.42-2.32 5.48-7.33 9.07-9.73 14.49 1.22.34 2.44.7 3.65 1.1.81-1.44 1.57-2.95 2.74-4.15 2.26.33 4.5 1.09 6.82.81 1.32.01 3.27-.33 3.52 1.49-3.35.52-6.69.08-10.04-.02-.41.5-1.23 1.5-1.65 2 4.38 3.38 10.88 2.03 13.88-2.52.06-6.2 4.15-11.47 4.84-17.54-.36-2.94-1-5.87-.78-8.85.24-6.98 3.6-13.39 3.95-20.35-.2-5.26-2.12-10.27-4.12-15.08-1.58 2.79-1.37 7.01-4.5 8.6 1.53-5.1 3.01-10.23 3.83-15.5.37-4.31-2.97-7.77-3.26-11.98-3.4-.99-5.81-3.59-8.29-5.94-.44-1.13-.93-2.23-1.46-3.3-3.01-.11-5.97-.69-8.9-1.33z"/><path d="M91.89 44.45c.73.48 1.46.97 2.19 1.46-.72 1.57-1.36 3.18-2.14 4.73 3.06 1.81 5.56 4.47 6.75 7.87-2.65.7-3.11-2.32-4.08-4.05-1.67-1.11-3.32-2.23-4.99-3.33 1.71-1.84 2.26-4.25 2.27-6.68zM94.97 45.53c1.16-2.2 4.03-.93 6-1.29.84.76 1.69 1.52 2.54 2.28 1.45-1.46 3.43-1.43 4.58.28-1.35.15-2.7.32-4.04.51-1.76 1.77-3.18 3.91-5.4 5.17.59-2.48 2.4-4.48 2.65-7.07-2.11-.16-4.22-.04-6.33.12zM120.65 45.83c3.15 2.51 6.71.56 9.52-1.4-.69.85-1.37 1.71-2.05 2.58-1.72.66-3.43 1.35-5.13 2.06-1.25-.84-2.51-1.67-3.76-2.51.35-.18 1.07-.54 1.42-.73zM21.77 49.73c4.22.21 7.21 3.94 9.24 7.29 1.09 2.47 2.58 6.23.12 8.34-.63-2.54-.62-5.26-1.62-7.7-2.06-3.12-5.15-5.3-7.74-7.93zM99.5 53.04c2.06 1.08 4.49 1.05 6.54 2.13-1.06.68-2.11 1.36-3.17 2.05-.4 2.71-.74 5.48-.08 8.18-3.85-.95-2.57-6.03-1.01-8.53-.93-1.17-1.64-2.49-2.28-3.83zM171.18 58.11c3.42 2.18 4.14 6.56 2.35 10.06-1.34-2.67-1.02-5.95-3-8.32.16-.43.48-1.3.65-1.74zM144.88 65.2c.58-.86 1.53-1.23 2.44-.54 5.14 2.7 9.21 8.18 8.91 14.18.04.91-.69 1.54-1.25 2.15-.71-3.15-.58-6.7-2.67-9.35-1.85-2.76-4.48-4.93-7.43-6.44zM79 70.33c4.51 0 5.24 5.42 3.43 8.62-.33-.03-.99-.1-1.32-.13.89-1.69 1.54-3.48 1.41-5.42-1.37-.79-2.69-1.7-3.52-3.07zM84.63 73.54c.39-3.14 4.48-2.57 6.79-3.21-1.62 2.17-4.3 2.71-6.79 3.21zM76.06 86.84l2-.36c-4.76 8.19-11.39 15.02-16.51 22.96-6.44 8.03-11.75 16.99-18.8 24.51-.06-.5-.19-1.49-.26-1.98 2.79-4.58 6.47-8.57 9.54-12.98 2.52-3.79 6.22-6.57 8.75-10.35 5.15-7.23 11.04-13.97 15.28-21.8zM140.32 93.11c-.02-1.8.58-3.5 1.27-5.13 2.07 1.15 4.33 1.9 6.73 1.82.28 1.17.7 2.3 1.28 3.36l-1.08 1.16c-.21-.75-.64-2.25-.85-3-1.82-.43-3.63-.92-5.43-1.43-.48.81-1.44 2.42-1.92 3.22zM142.5 99.77c1.53-.56 3.06-1.11 4.68-1.37.37 3.08-3 2.09-4.68 1.37zM112.23 135.37c1.82 2.79 1.31 6.42-1.34 8.49.64-2.81 1.11-5.62 1.34-8.49zM148.06 144.05c4.01.49 4.47 5.26 5.9 8.25-3.27-1.57-4.14-5.38-5.9-8.25z"/></g></svg>