<svg width="368" height="300" viewBox="0 0 276 225" xmlns="http://www.w3.org/2000/svg"><g fill="#FFF"><path d="M0 0h276v225H0V0m147.62 44.66c-4.26 3.13-9.4 4.63-14.13 6.86-3.36 1.01-6.76 1.93-9.74 3.84-3.21.76-6.67.02-9.9.95-6.57.57-11.33 5.64-17.03 8.35-3.96 1.25-8.22 3.23-10.01 7.23-1.33 2.96-4.88 3.68-6.9 6.01-2.88 3.6-6.06 7.3-6.66 12.05-2.15 6.23 1.4 12.68 5.46 17.24.23.67.67 2.01.89 2.68l-1.82-1.42c-1.17 3.86.3 7.65.91 11.44-.94 4.32-2.49 8.63-2.29 13.1.73 3.69 1.64 7.35 1.97 11.1.38 6.19 6.04 10.48 5.98 16.78.56.17 1.68.52 2.24.69.22-5.59-3.42-9.91-5.65-14.69-.77-3.66-.86-7.44-1.88-11.05-2.41-5.95 2.88-11.72 1.38-17.75-.28-2.88-1.47-6.04.18-8.7 3.57 3.93 7.74 7.64 12.87 9.34-.86 4.3-1.64 8.82-4.94 12.03l2.98-.6c2.21 4.95 2.46 10.41 2.84 15.73-1.46 6.01-.92 12.4 1.4 18.12 1.94 2.25 4.51 3.89 6.29 6.3-4.27 1.8-10.69.96-12.92 5.91-1.95 3.01-4.36 5.86-7.81 7.17-2.02-1.8-4.04-3.59-5.88-5.57-.02-1.58.67-3.37-.56-4.67-.33-.13-1.01-.4-1.35-.53-.12 2.11-.15 4.31.69 6.29.82 2.9 3.65 4.39 5.89 6.09 1.89-.19 3.92-.17 5.55-1.3 3.74-1.9 4.81-6.49 8.41-8.6 4.15-3.79 10.63-.4 14.89-3.63.42.99.84 1.98 1.28 2.97.71-8.15-.06-16.34-.76-24.46-.78-5.28-1.8-10.57-1.64-15.94-.04-5.16 1.1-10.56-.94-15.5 3.2 1.4 6.67 2 9.9 3.29 1.36 17.68-.2 35.42.99 53.11 10.19 4.42 21.72 4.17 32.04 8.17l.6.51c2.38 1.69 1.02 5.16 1.54 7.68-2.3.97-4.51 2.1-6.73 3.22-5.55-1.68-11.37-2.38-16.7-4.76-7.84-1.55-15.63-3.4-23.25-5.82-4.53-1.56-9.38-1.82-13.91-3.38v1.65c5.2 3.3 11.66 2.11 17.15 4.67 5.27 2.36 11.15 2.53 16.56 4.44 6.97 1.72 13.72 4.38 20.79 5.64 3.06-1.53 5.76-3.72 8.99-4.95-.52-3.46.13-7.58-2.62-10.26-.2-.27-.58-.82-.78-1.09-8.19-1.76-16.39-3.54-24.67-4.87-2.52-.42-4.95-1.23-7.34-2.11.19-4.16.17-8.34-.24-12.49-.88-9.37 1.15-18.71.61-28.07-.18-3.51-.45-7.01-.44-10.52l3.72 1.36c8.01-1.86 14.4-7.34 21.47-11.22.2-.62.6-1.88.8-2.5 3.6 2.59 7.26 5.3 11.69 6.25-1.51 2.98-2.03 6.3-1.91 9.62.25 4.23-1.84 8.02-3.28 11.86-.59 1.91-2.24 3.16-3.56 4.55-.37-3.16-.2-6.43 1.85-9.03.51-.16 1.54-.5 2.05-.66.23-1.67.53-3.33.9-4.97a30.796 30.796 0 01-4.56 5.73c-2.3 2.25-2.85 6.15-.86 8.77-.93.85-1.86 1.72-2.78 2.59-2.31-1.93-4.7-4.45-7.97-4.33-4.65-.49-8.7 2.46-11.58 5.78-2.66 4.18-1.06 9.21-.18 13.66 2.73 6.36 7 12.86 14 14.94 3.93 1.98 7.36-1.63 10.85-2.94 3.52-2.51 2.72-7.36 2.21-11.09 1.35-.81 2.64-1.71 3.85-2.72 2.5 1.57 5.18 3.75 8.35 2.94 4.31-1.08 9.05-4.18 9.21-9.09.22-6.28-.56-13.75-5.8-17.96 4.75-4.45 6.48-10.74 8.31-16.75 3.06.31 6.1.8 9.16 1.19.02-5.03.09-10.09-.78-15.07 2.89 2.72 6.05 5.35 7.93 8.92 1.18 2.14.28 4.68.34 6.97l1.49-1.36c-.04.72-.1 2.18-.14 2.9l.29-.55c6.81 3.17 14.47 3.04 21.74 4.18.54 1.9.88 3.85 1.45 5.75-1.48.72-2.86 2.49-4.68 1.84-10.51-2.62-21.32-3.35-32.05-4.46-2.3.01-4.28-1.74-6.58-1.36-.24.55-.73 1.64-.97 2.19 8.63 1.11 17.41 1.54 25.77 4.12 4.62.74 9.32.92 13.86 2.17 2.59.81 4.21-1.96 6.25-3.02-.01-2.48.03-4.96.11-7.43-1.27-1.07-2.42-2.66-4.27-2.61-6.5-.57-13.02-.92-19.48-1.93-.6-1.7-.86-3.5-1.19-5.26 2.32 1.29 4.67 3 7.48 2.68 7.42-.43 14.78 2.41 22.11.16 1.18 3.2 4.17 5.88 3.59 9.56.13 3.85-2.46 7.01-5.34 9.23l1.83 2.49c3.26.78 6.6.89 9.93.53 3.2-1.43 5.75-3.79 7.56-6.79-.23-5.07-.6-10.16-.31-15.23.33-2.64.61-5.29.28-7.94a81.664 81.664 0 01-3.73-3.48c-2.61.2-5.17.82-7.78.85-3.57-.96-6.59-3.16-9.82-4.85-3.81-1.38-7.94-.76-11.9-.98-2.08-5.52-2.16-12.21-6.98-16.3.33-.64.99-1.93 1.32-2.57-.1-.53-.29-1.59-.39-2.12 2.17-1.47 4.22-3.11 6.33-4.68-.54-2.53.7-6.35-2.36-7.57-3.06-1.38-6.47-1.62-9.75-2.13-1.4-3.95-1.81-8.76-5.33-11.53-5.18-4.7-12.06-7.42-18.95-8.26-4.7-2.38-10-2.83-15.18-3.13-3.24-.15-6.74.12-9.42 2.17M84.45 161.58c-3.2 2.52-9.41 4.03-8.33 9.25 1.54 1.7 1.74-1.32 2.52-2.22 1.1-2.93 4.48-3.38 7.09-4.1 1.97.62 4.02 1.04 5.8-.35-2.23-1.17-4.56-2.23-7.08-2.58z"/><path d="M145.2 49.18c2.14-.97 3.81-2.66 5.84-3.8 6.06-.29 12.83-.86 18.12 2.72 2.51 1.48 5.58.81 8.27 1.64 5 2.37 10.57 4.31 13.73 9.19 3.15 3.61 1.11 8.97 4.04 12.69 1.15 3.76 3.36 6.94 5.47 10.2-.25 4.61-4.96 7.01-7.82 10.05-4.18 2.68-9.15 6.69-14.37 4.55-1.54-3.25-1.56-6.97-2.1-10.47 2.9-2.31 6.01-4.65 7.73-8.03-2.92 2-5.74 4.19-8.24 6.7-1.83.01-3.67.04-5.5.09 1.19-1.2 2.6-2.23 3.47-3.71 2.57-9.93-1.35-21.33-9.8-27.22-5.87-2.77-12.47-3.64-18.84-4.6z"/><path d="M136.4 52.23c6.55-3.43 13.9-.2 20.65.86 6.69 1.3 11.12 7.03 13.71 12.95-.01 3.06.63 6.07 1.64 8.95-.15 2.13-1.08 4.19-2.16 6.03-2.15 2.26-5.45 3.31-7.01 6.15-.97 2.1-3.02 3.23-4.93 4.33-1.08-.75-2.15-1.5-3.21-2.27 1.12-3.46 1.17-7.11 1.56-10.69 1.81-2.5 4.39-4.34 6.67-6.4.05-1.12.11-2.25.15-3.37-2.47 3.01-5.82 5.22-8.13 8.35-.99 3.94-.39 8.32-2.74 11.91-1.56-1.7-3.06-3.46-4.73-5.05.26 3.29 2.97 5.17 5.49 6.78 3.39 3.03 8.4 2.92 11.79 6 4.51 3.88 8.84 8.54 10.83 14.26-1.65 4.45-3.03 9.01-4.72 13.44-3.08 8.13-11.89 12.7-13.74 21.48-.18 2.24.58 4.39 1.13 6.52-2.31 2.09-4.54 4.25-6.75 6.44-.24-5.08-2.66-10.03-6.43-13.42 2.35-.76 4.65-1.84 6.36-3.69 3.77-3.12 4.12-8.32 5.42-12.71-.09-4.04.45-8.05 2.41-11.65 2.97-.8 5.78-2.08 8.55-3.4.07-.4.22-1.21.3-1.62-2.56.52-5 1.44-7.52 2.08-4.34-.55-8.81-1.51-12.37-4.22 1.88-.93 3.69-2.01 5.24-3.45-4.24.26-8.46 1.31-12.72.98-4.42-1.06-8.23-3.7-12.03-6.07-4.53.21-9.1-.25-13.44-1.59-1.46-.5-1.69-2.29-2.2-3.55a37.575 37.575 0 01-4.45 4.47c-2.06 4.25-2.36 9.61-6.19 12.8-1.99 1.8-4.43 2.99-6.48 4.72 3.42.61 6.63-2.66 10.05-.58-.25 9.31-.77 18.62-.11 27.93.69 8.34.67 16.78 2.33 25.01-.89-.13-2.66-.38-3.54-.51-1.06-2.73-2.67-5.24-5.65-6.07-4.41-4.32-4.54-11.23-3.15-16.91.58-1.82-.03-3.62-.66-5.33.79-4.78-.37-9.47-2.29-13.84 2.66-3.46 1.28-7.98 2.92-11.76-1.98.03-4.11.24-5.73-1.16-7.44-4.93-14.91-12-15.82-21.38 1.02-4.11 1.34-8.73 4.39-11.97 3.28-3.05 7.3-6.04 12.03-5.75 3.31.87 6.6 2.22 9.26 4.43 2.74 1.96 2.64 5.77 4.43 8.42 2.75-1.27 6.08-1.93 7.79-4.7-2.61.18-5.11.97-7.36 2.27.32-3.5-1.77-6.25-4.18-8.5.35-.78 1.06-2.35 1.41-3.13-1.52.4-3.04.83-4.55 1.3-3.16-1.41-6.27-3.16-9.85-3.08 3.36-6.09 11.32-5.6 15.76-10.4 4.87-4.43 11.81-4.51 17.99-5 4.69-2.3 9.51-4.32 14.58-5.64m-2.59 7.61c-4.53 3.35-10.32 3.56-15.42 5.51-4.01 2.74-8.3 5.5-10.58 9.97 3.82-2.72 7.07-6.22 11.36-8.26 3.33-2.1 7.48-1.59 11.01-3.15 4.74-2.17 8.68-6.05 13.9-7.15 1.86-.41 3.54-1.32 5.13-2.33-5.35 1.01-10.96 2.04-15.4 5.41m-34.77 9.02c3.66 1.34 7.44-.21 11.12-.69-.34-.86-.67-1.72-1.01-2.58-3.51.18-7.58.55-10.11 3.27m31.57 3.99c-.02.69-.05 2.06-.07 2.75-.62.99-1.23 1.98-1.83 2.98-1.28-1.03-2.63-1.97-4.14-2.62.78 2.36 1.8 4.64 2.49 7.04.85 3.36 3.6 5.75 6.22 7.8 1.78-3.98-3.43-6.38-4.32-9.94 1.32-1.86 2.71-3.68 3.69-5.74 1.09-2.85 4.44-3.75 6.11-6.21-3.27-.56-5.69 2.29-8.15 3.94m6.25.23c2.08.28 4.19.29 6.27.57.83 2.78-.2 5.72-1.08 8.37-2.11.87-1.94 2.91-.84 4.55l-.25-.44c-1.17 3.69-5.71 5.14-5.79 9.4 1.9-1.48 3.75-3.04 5.53-4.65.86-.87 1.81-1.68 2.47-2.72.32-1.53-.74-2.82-1.29-4.14 3.3-2.05 2.7-6.5 3.17-9.83-.91-4.27-5.57-2.28-8.19-1.11m-28.78 21.2c4.16-.7 8.22-2.2 12.51-1.82 0-.48-.01-1.45-.01-1.94-4.25.23-9.74-.14-12.5 3.76m21.75 3.19c2.65.57 5.35.32 8.01-.01-.18-.4-.56-1.19-.75-1.59-2.53.16-6.3-1.77-7.26 1.6zM196.08 67.39c3.02.76 6.12 1.26 9.08 2.28.71 1.58 1.19 3.25 1.8 4.88a339.2 339.2 0 01-5.76 3.49c-2.69-3.07-2.94-7.31-5.12-10.65z"/><path d="M160.99 92.38c2.43-1.76 4.7-3.76 6.31-6.32 2.25.32 4.52.59 6.79.79.46 2.58.85 5.18 1.16 7.78-1.42 1.06-2.84 2.11-4.28 3.13-2.89-2.54-6.11-4.7-9.98-5.38m3.74-.32c2.85-.3 5.5-1.64 7.18-4.01-2.72.65-5.24 1.98-7.18 4.01zM183.88 99.22c6.69-2.23 12.13-6.95 16.6-12.28 2.19 2.57 3.73 5.61 4.13 8.99.74 3.94 2 9.68 7.12 9.46-.73-.78-2.2-2.34-2.94-3.12 3.8.66 8.05.03 11.42 2.26 2.24 1.2 4.36 2.62 6.66 3.7 3.67 1.72 8.18-1.48 11.54 1.31.84 1.7.74 3.64.83 5.49.38 5.6.97 11.24.42 16.85-.7 2.55-2.86 5.11-5.73 5.08-2.93.17-6.85 1.45-9.04-.99 1.07-2.17 3.2-3.56 4.37-5.65 1.35-4.58-.97-8.96-2.45-13.15 1.49.62 2.97 1.27 4.45 1.96.12-.35.38-1.05.51-1.4a72.852 72.852 0 01-2.93-3.4c-3.89.44-7.59 2.22-11.55 2.02-3.13-.53-6.28-.98-9.41-1.53-2.72-.6-5.68.81-8.21-.69-2.67-1.15-3.99-3.88-5.86-5.91-2.82-3.51-6.5-6.14-9.93-9zM171.32 99.97c1.39-.95 2.77-1.91 4.14-2.88 1.78 1.21 3.72 2.17 5.8 2.72.69.97 1.37 1.96 2.06 2.94-.31 4.72.35 9.51-.72 14.18-1.89-.13-3.77-.29-5.64-.48.65-2.13 1.66-4.23 1.59-6.51-1.48-3-4.26-5.19-5.27-8.46-.49-.38-1.47-1.13-1.96-1.51zM111.04 100.68c1.3.05 2.59.13 3.89.22l-.65.87c4.79 1.7 10.24 4.31 15.24 1.82 2.42 1.85 4.7 4.03 7.63 5.06 2.29.82 4.58 1.71 6.57 3.16-6.05 1.53-10.77 5.88-16.29 8.55-4.31 1.4-8.57-.67-12.62-1.94-3.74-.86-7.47-1.94-11.31-2.2 4.86-3.87 5.57-10.1 7.54-15.54m13.11 10.74c-3.78-.42-7.45-1.61-11.27-1.86-.19.42-.57 1.27-.76 1.69 3.41.41 6.71 1.4 10.07 2.08 4.36.67 8.32-2.41 10.4-6.01-2.81 1.37-5.44 3.15-8.44 4.1zM164.23 137.61c.9-.82 1.79-1.65 2.69-2.48 4.42 4.69 6.27 12.01 4.22 18.13-1.81 4.86-8.05 4.88-12.12 3.13.34-1.45 1.46-2.5 2.32-3.65-.58-2.23-1.76-4.41-1.57-6.76.78-2.22 2.16-4.16 3.3-6.21 3.1 2.75 3.42 6.99 3.93 10.83 2.97-4.3 1.21-10.01-2.77-12.99zM126.89 159.99c-4.61-6.51.58-16.36 8.06-17.58 10.6 2.98 16.76 15 15.34 25.52-2.03 2.19-4.07 4.89-7.31 5.15-7.6-.32-12.39-7.27-16.09-13.09m3.58-13.47c3.64 2.27 7.22 4.84 9.75 8.37 2.73 3.58 2.47 8.32 3.98 12.41 3.12-8.13-2.88-16.63-9.77-20.58-1.19-.97-2.63-.45-3.96-.2z"/></g><g fill="#333"><path d="M147.62 44.66c2.68-2.05 6.18-2.32 9.42-2.17 5.18.3 10.48.75 15.18 3.13 6.89.84 13.77 3.56 18.95 8.26 3.52 2.77 3.93 7.58 5.33 11.53 3.28.51 6.69.75 9.75 2.13 3.06 1.22 1.82 5.04 2.36 7.57-2.11 1.57-4.16 3.21-6.33 4.68.1.53.29 1.59.39 2.12-.33.64-.99 1.93-1.32 2.57 4.82 4.09 4.9 10.78 6.98 16.3 3.96.22 8.09-.4 11.9.98 3.23 1.69 6.25 3.89 9.82 4.85 2.61-.03 5.17-.65 7.78-.85 1.21 1.2 2.45 2.36 3.73 3.48.33 2.65.05 5.3-.28 7.94-.29 5.07.08 10.16.31 15.23-1.81 3-4.36 5.36-7.56 6.79-3.33.36-6.67.25-9.93-.53l-1.83-2.49c2.88-2.22 5.47-5.38 5.34-9.23.58-3.68-2.41-6.36-3.59-9.56-7.33 2.25-14.69-.59-22.11-.16-2.81.32-5.16-1.39-7.48-2.68.33 1.76.59 3.56 1.19 5.26 6.46 1.01 12.98 1.36 19.48 1.93 1.85-.05 3 1.54 4.27 2.61-.08 2.47-.12 4.95-.11 7.43-2.04 1.06-3.66 3.83-6.25 3.02-4.54-1.25-9.24-1.43-13.86-2.17-8.36-2.58-17.14-3.01-25.77-4.12.24-.55.73-1.64.97-2.19 2.3-.38 4.28 1.37 6.58 1.36 10.73 1.11 21.54 1.84 32.05 4.46 1.82.65 3.2-1.12 4.68-1.84-.57-1.9-.91-3.85-1.45-5.75-7.27-1.14-14.93-1.01-21.74-4.18l-.29.55c.04-.72.1-2.18.14-2.9l-1.49 1.36c-.06-2.29.84-4.83-.34-6.97-1.88-3.57-5.04-6.2-7.93-8.92.87 4.98.8 10.04.78 15.07-3.06-.39-6.1-.88-9.16-1.19-1.83 6.01-3.56 12.3-8.31 16.75 5.24 4.21 6.02 11.68 5.8 17.96-.16 4.91-4.9 8.01-9.21 9.09-3.17.81-5.85-1.37-8.35-2.94-1.21 1.01-2.5 1.91-3.85 2.72.51 3.73 1.31 8.58-2.21 11.09-3.49 1.31-6.92 4.92-10.85 2.94-7-2.08-11.27-8.58-14-14.94-.88-4.45-2.48-9.48.18-13.66 2.88-3.32 6.93-6.27 11.58-5.78 3.27-.12 5.66 2.4 7.97 4.33.92-.87 1.85-1.74 2.78-2.59-1.99-2.62-1.44-6.52.86-8.77 1.74-1.72 3.27-3.64 4.56-5.73-.37 1.64-.67 3.3-.9 4.97-.51.16-1.54.5-2.05.66-2.05 2.6-2.22 5.87-1.85 9.03 1.32-1.39 2.97-2.64 3.56-4.55 1.44-3.84 3.53-7.63 3.28-11.86-.12-3.32.4-6.64 1.91-9.62-4.43-.95-8.09-3.66-11.69-6.25-.2.62-.6 1.88-.8 2.5-7.07 3.88-13.46 9.36-21.47 11.22l-3.72-1.36c-.01 3.51.26 7.01.44 10.52.54 9.36-1.49 18.7-.61 28.07.41 4.15.43 8.33.24 12.49 2.39.88 4.82 1.69 7.34 2.11 8.28 1.33 16.48 3.11 24.67 4.87.2.27.58.82.78 1.09 2.75 2.68 2.1 6.8 2.62 10.26-3.23 1.23-5.93 3.42-8.99 4.95-7.07-1.26-13.82-3.92-20.79-5.64-5.41-1.91-11.29-2.08-16.56-4.44-5.49-2.56-11.95-1.37-17.15-4.67v-1.65c4.53 1.56 9.38 1.82 13.91 3.38 7.62 2.42 15.41 4.27 23.25 5.82 5.33 2.38 11.15 3.08 16.7 4.76 2.22-1.12 4.43-2.25 6.73-3.22-.52-2.52.84-5.99-1.54-7.68l-.6-.51c-10.32-4-21.85-3.75-32.04-8.17-1.19-17.69.37-35.43-.99-53.11-3.23-1.29-6.7-1.89-9.9-3.29 2.04 4.94.9 10.34.94 15.5-.16 5.37.86 10.66 1.64 15.94.7 8.12 1.47 16.31.76 24.46-.44-.99-.86-1.98-1.28-2.97-4.26 3.23-10.74-.16-14.89 3.63-3.6 2.11-4.67 6.7-8.41 8.6-1.63 1.13-3.66 1.11-5.55 1.3-2.24-1.7-5.07-3.19-5.89-6.09-.84-1.98-.81-4.18-.69-6.29.34.13 1.02.4 1.35.53 1.23 1.3.54 3.09.56 4.67 1.84 1.98 3.86 3.77 5.88 5.57 3.45-1.31 5.86-4.16 7.81-7.17 2.23-4.95 8.65-4.11 12.92-5.91-1.78-2.41-4.35-4.05-6.29-6.3-2.32-5.72-2.86-12.11-1.4-18.12-.38-5.32-.63-10.78-2.84-15.73l-2.98.6c3.3-3.21 4.08-7.73 4.94-12.03-5.13-1.7-9.3-5.41-12.87-9.34-1.65 2.66-.46 5.82-.18 8.7 1.5 6.03-3.79 11.8-1.38 17.75 1.02 3.61 1.11 7.39 1.88 11.05 2.23 4.78 5.87 9.1 5.65 14.69-.56-.17-1.68-.52-2.24-.69.06-6.3-5.6-10.59-5.98-16.78-.33-3.75-1.24-7.41-1.97-11.1-.2-4.47 1.35-8.78 2.29-13.1-.61-3.79-2.08-7.58-.91-11.44l1.82 1.42c-.22-.67-.66-2.01-.89-2.68-4.06-4.56-7.61-11.01-5.46-17.24.6-4.75 3.78-8.45 6.66-12.05 2.02-2.33 5.57-3.05 6.9-6.01 1.79-4 6.05-5.98 10.01-7.23 5.7-2.71 10.46-7.78 17.03-8.35 3.23-.93 6.69-.19 9.9-.95 2.98-1.91 6.38-2.83 9.74-3.84 4.73-2.23 9.87-3.73 14.13-6.86m-2.42 4.52c6.37.96 12.97 1.83 18.84 4.6 8.45 5.89 12.37 17.29 9.8 27.22-.87 1.48-2.28 2.51-3.47 3.71 1.83-.05 3.67-.08 5.5-.09 2.5-2.51 5.32-4.7 8.24-6.7-1.72 3.38-4.83 5.72-7.73 8.03.54 3.5.56 7.22 2.1 10.47 5.22 2.14 10.19-1.87 14.37-4.55 2.86-3.04 7.57-5.44 7.82-10.05-2.11-3.26-4.32-6.44-5.47-10.2-2.93-3.72-.89-9.08-4.04-12.69-3.16-4.88-8.73-6.82-13.73-9.19-2.69-.83-5.76-.16-8.27-1.64-5.29-3.58-12.06-3.01-18.12-2.72-2.03 1.14-3.7 2.83-5.84 3.8m-8.8 3.05c-5.07 1.32-9.89 3.34-14.58 5.64-6.18.49-13.12.57-17.99 5-4.44 4.8-12.4 4.31-15.76 10.4 3.58-.08 6.69 1.67 9.85 3.08 1.51-.47 3.03-.9 4.55-1.3-.35.78-1.06 2.35-1.41 3.13 2.41 2.25 4.5 5 4.18 8.5a17.03 17.03 0 017.36-2.27c-1.71 2.77-5.04 3.43-7.79 4.7-1.79-2.65-1.69-6.46-4.43-8.42-2.66-2.21-5.95-3.56-9.26-4.43-4.73-.29-8.75 2.7-12.03 5.75-3.05 3.24-3.37 7.86-4.39 11.97.91 9.38 8.38 16.45 15.82 21.38 1.62 1.4 3.75 1.19 5.73 1.16-1.64 3.78-.26 8.3-2.92 11.76 1.92 4.37 3.08 9.06 2.29 13.84.63 1.71 1.24 3.51.66 5.33-1.39 5.68-1.26 12.59 3.15 16.91 2.98.83 4.59 3.34 5.65 6.07.88.13 2.65.38 3.54.51-1.66-8.23-1.64-16.67-2.33-25.01-.66-9.31-.14-18.62.11-27.93-3.42-2.08-6.63 1.19-10.05.58 2.05-1.73 4.49-2.92 6.48-4.72 3.83-3.19 4.13-8.55 6.19-12.8 1.61-1.36 3.09-2.86 4.45-4.47.51 1.26.74 3.05 2.2 3.55 4.34 1.34 8.91 1.8 13.44 1.59 3.8 2.37 7.61 5.01 12.03 6.07 4.26.33 8.48-.72 12.72-.98-1.55 1.44-3.36 2.52-5.24 3.45 3.56 2.71 8.03 3.67 12.37 4.22 2.52-.64 4.96-1.56 7.52-2.08-.08.41-.23 1.22-.3 1.62-2.77 1.32-5.58 2.6-8.55 3.4-1.96 3.6-2.5 7.61-2.41 11.65-1.3 4.39-1.65 9.59-5.42 12.71-1.71 1.85-4.01 2.93-6.36 3.69 3.77 3.39 6.19 8.34 6.43 13.42 2.21-2.19 4.44-4.35 6.75-6.44-.55-2.13-1.31-4.28-1.13-6.52 1.85-8.78 10.66-13.35 13.74-21.48 1.69-4.43 3.07-8.99 4.72-13.44-1.99-5.72-6.32-10.38-10.83-14.26-3.39-3.08-8.4-2.97-11.79-6-2.52-1.61-5.23-3.49-5.49-6.78 1.67 1.59 3.17 3.35 4.73 5.05 2.35-3.59 1.75-7.97 2.74-11.91 2.31-3.13 5.66-5.34 8.13-8.35-.04 1.12-.1 2.25-.15 3.37-2.28 2.06-4.86 3.9-6.67 6.4-.39 3.58-.44 7.23-1.56 10.69 1.06.77 2.13 1.52 3.21 2.27 1.91-1.1 3.96-2.23 4.93-4.33 1.56-2.84 4.86-3.89 7.01-6.15 1.08-1.84 2.01-3.9 2.16-6.03-1.01-2.88-1.65-5.89-1.64-8.95-2.59-5.92-7.02-11.65-13.71-12.95-6.75-1.06-14.1-4.29-20.65-.86m59.68 15.16c2.18 3.34 2.43 7.58 5.12 10.65a339.2 339.2 0 005.76-3.49c-.61-1.63-1.09-3.3-1.8-4.88-2.96-1.02-6.06-1.52-9.08-2.28m-35.09 24.99c3.87.68 7.09 2.84 9.98 5.38 1.44-1.02 2.86-2.07 4.28-3.13-.31-2.6-.7-5.2-1.16-7.78-2.27-.2-4.54-.47-6.79-.79-1.61 2.56-3.88 4.56-6.31 6.32m22.89 6.84c3.43 2.86 7.11 5.49 9.93 9 1.87 2.03 3.19 4.76 5.86 5.91 2.53 1.5 5.49.09 8.21.69 3.13.55 6.28 1 9.41 1.53 3.96.2 7.66-1.58 11.55-2.02.94 1.17 1.92 2.29 2.93 3.4-.13.35-.39 1.05-.51 1.4-1.48-.69-2.96-1.34-4.45-1.96 1.48 4.19 3.8 8.57 2.45 13.15-1.17 2.09-3.3 3.48-4.37 5.65 2.19 2.44 6.11 1.16 9.04.99 2.87.03 5.03-2.53 5.73-5.08.55-5.61-.04-11.25-.42-16.85-.09-1.85.01-3.79-.83-5.49-3.36-2.79-7.87.41-11.54-1.31-2.3-1.08-4.42-2.5-6.66-3.7-3.37-2.23-7.62-1.6-11.42-2.26.74.78 2.21 2.34 2.94 3.12-5.12.22-6.38-5.52-7.12-9.46-.4-3.38-1.94-6.42-4.13-8.99-4.47 5.33-9.91 10.05-16.6 12.28m-12.56.75c.49.38 1.47 1.13 1.96 1.51 1.01 3.27 3.79 5.46 5.27 8.46.07 2.28-.94 4.38-1.59 6.51 1.87.19 3.75.35 5.64.48 1.07-4.67.41-9.46.72-14.18-.69-.98-1.37-1.97-2.06-2.94-2.08-.55-4.02-1.51-5.8-2.72-1.37.97-2.75 1.93-4.14 2.88m-60.28.71c-1.97 5.44-2.68 11.67-7.54 15.54 3.84.26 7.57 1.34 11.31 2.2 4.05 1.27 8.31 3.34 12.62 1.94 5.52-2.67 10.24-7.02 16.29-8.55-1.99-1.45-4.28-2.34-6.57-3.16-2.93-1.03-5.21-3.21-7.63-5.06-5 2.49-10.45-.12-15.24-1.82l.65-.87c-1.3-.09-2.59-.17-3.89-.22m53.19 36.93c3.98 2.98 5.74 8.69 2.77 12.99-.51-3.84-.83-8.08-3.93-10.83-1.14 2.05-2.52 3.99-3.3 6.21-.19 2.35.99 4.53 1.57 6.76-.86 1.15-1.98 2.2-2.32 3.65 4.07 1.75 10.31 1.73 12.12-3.13 2.05-6.12.2-13.44-4.22-18.13-.9.83-1.79 1.66-2.69 2.48m-37.34 22.38c3.7 5.82 8.49 12.77 16.09 13.09 3.24-.26 5.28-2.96 7.31-5.15 1.42-10.52-4.74-22.54-15.34-25.52-7.48 1.22-12.67 11.07-8.06 17.58z"/><path d="M133.81 59.84c4.44-3.37 10.05-4.4 15.4-5.41-1.59 1.01-3.27 1.92-5.13 2.33-5.22 1.1-9.16 4.98-13.9 7.15-3.53 1.56-7.68 1.05-11.01 3.15-4.29 2.04-7.54 5.54-11.36 8.26 2.28-4.47 6.57-7.23 10.58-9.97 5.1-1.95 10.89-2.16 15.42-5.51zM99.04 68.86c2.53-2.72 6.6-3.09 10.11-3.27.34.86.67 1.72 1.01 2.58-3.68.48-7.46 2.03-11.12.69zM130.61 72.85c2.46-1.65 4.88-4.5 8.15-3.94-1.67 2.46-5.02 3.36-6.11 6.21-.98 2.06-2.37 3.88-3.69 5.74.89 3.56 6.1 5.96 4.32 9.94-2.62-2.05-5.37-4.44-6.22-7.8-.69-2.4-1.71-4.68-2.49-7.04 1.51.65 2.86 1.59 4.14 2.62.6-1 1.21-1.99 1.83-2.98.02-.69.05-2.06.07-2.75z"/><path d="M136.86 73.08c2.62-1.17 7.28-3.16 8.19 1.11-.47 3.33.13 7.78-3.17 9.83.55 1.32 1.61 2.61 1.29 4.14-.66 1.04-1.61 1.85-2.47 2.72a98.495 98.495 0 01-5.53 4.65c.08-4.26 4.62-5.71 5.79-9.4l.25.44c-1.1-1.64-1.27-3.68.84-4.55.88-2.65 1.91-5.59 1.08-8.37-2.08-.28-4.19-.29-6.27-.57zM164.73 92.06c1.94-2.03 4.46-3.36 7.18-4.01-1.68 2.37-4.33 3.71-7.18 4.01zM108.08 94.28c2.76-3.9 8.25-3.53 12.5-3.76 0 .49.01 1.46.01 1.94-4.29-.38-8.35 1.12-12.51 1.82z"/><path d="M129.83 97.47c.96-3.37 4.73-1.44 7.26-1.6.19.4.57 1.19.75 1.59-2.66.33-5.36.58-8.01.01zM124.15 111.42c3-.95 5.63-2.73 8.44-4.1-2.08 3.6-6.04 6.68-10.4 6.01-3.36-.68-6.66-1.67-10.07-2.08.19-.42.57-1.27.76-1.69 3.82.25 7.49 1.44 11.27 1.86zM130.47 146.52c1.33-.25 2.77-.77 3.96.2 6.89 3.95 12.89 12.45 9.77 20.58-1.51-4.09-1.25-8.83-3.98-12.41-2.53-3.53-6.11-6.1-9.75-8.37zM84.45 161.58c2.52.35 4.85 1.41 7.08 2.58-1.78 1.39-3.83.97-5.8.35-2.61.72-5.99 1.17-7.09 4.1-.78.9-.98 3.92-2.52 2.22-1.08-5.22 5.13-6.73 8.33-9.25z"/></g></svg>