<svg width="268pt" height="275pt" viewBox="0 0 268 275" xmlns="http://www.w3.org/2000/svg"><g fill="#FFF"><path d="M0 0h268v275H0V79.8c.85-.32 2.55-.97 3.4-1.3 2.05 6.75 3.01 14.68 8.95 19.35 3.55 2.89 8.38 1.52 12.48 1.04 4.56-2.11 6.83-7.06 8.36-11.57 2.4-6.71 2.12-13.92 2.13-20.93-1.7-6.26-3-13.22-7.99-17.81-4.28-3.94-11.07-2.8-15.56.09-6.24 6.18-7.75 15.47-8.48 23.85-1.1.14-2.19.27-3.29.41V0m192.71 8.85c.14.46.41 1.38.55 1.84.83-.25 1.66-.51 2.5-.76 2.71 1.61 5.83 2.98 7.4 5.9 3.91 6.63 4.84 14.61 4.18 22.17-.65 5.75-2.05 11.85-6.16 16.19-1.76 1.99-4.61 2-6.93 2.91 2.08 2.48 5.98.99 7.76-1.15 5.62-6.26 6.96-15.05 7.14-23.17 3.86-.41 7.66-1.31 11.52-1.74.08-.44.23-1.32.31-1.76-4.02.78-8.06 1.47-12.04 2.39l-.12-3.06c3.96-.63 7.95-1.25 11.83-2.34.18-.38.56-1.14.74-1.52-4.31.44-8.54 1.57-12.68 2.82-.97-5.61-2.53-11.5-6.52-15.76-2.39-2.61-6.08-3.42-9.48-2.96m-19.47 7.47c-3.96 6.29-5.92 13.78-5.91 21.19-3.66.51-7.24 1.45-10.89 2.06l-1.23 2.13c-.43-1.67-1.3-3.18-3.02-3.7-4.01-2.22-7.68 1.92-11.71 2.04-2.6.07-3.88 2.46-4.89 4.5-4.23.33-8.37 1.33-12.55 2.01-14.54 3.58-29.41 5.72-43.89 9.5-.58-.87-1.16-1.74-1.73-2.62-5.59-2.3-11.42.09-16.47 2.58-.76 1.25-1.16 2.68-1.68 4.04-5.28 1.1-10.64 1.93-15.79 3.56-.69-7.15-3.37-14.43-8.89-19.23-1.87-1.69-4.45-1.93-6.83-1.56 2.77 1.68 5.89 3.04 7.96 5.63 4.57 5.45 6.38 12.65 6.6 19.63.25 7.43-.53 15.28-4.48 21.74-2.02 3.6-5.98 5.54-7.91 9.21 6.75-1.89 10.49-8.72 12.31-15.01 1.44-6.23 2.55-12.8 1.48-19.18 6.83-.71 13.42-2.75 20.18-3.82l-.52 2.76c-5.81 1.6-11.79 2.54-17.62 4.1l.6.88c.26.17.78.51 1.05.67 5.11-.96 10.25-1.96 15.15-3.75 1.26 5.46 3.89 10.5 4.13 16.2.39 6.13 5.3 10.42 6.38 16.31 5.47 6.16 5.25 15.27 10.25 21.8 2 2.45 3.97 5.71 7.45 6.03.02-3.12-3.55-4.53-5.09-6.92-3.93-3.74-4.52-9.35-7.05-13.91.01-4.51-4.51-6.95-4.94-11.3-.81-3.26-3.57-5.63-4.26-8.96-1.85-4.61-.79-9.78-2.83-14.32 1.83-.48 3.66-.96 5.47-1.5-1.86-2.12-6.02-.36-6.7-3.33.06-2.06 1.36-4.65-.78-6.1-.62-.34-1.85-1.01-2.46-1.35l.14-1.05c.6.07 1.79.2 2.39.27l-.43-1.01c3.73-1.23 8.01-3.85 11.68-1.04 2.01.71 1.83 2.43 1.3 4.1.3 1.43 1.37 2.82.93 4.32-.76 1.55-1.86 2.93-2.54 4.53.04 4.71 1.59 9.56 4.82 13.07 2.85 3.16 4.84 7.04 5.51 11.26-.64.17-1.92.5-2.56.67-1.78-2.22-3.9-4.56-7-4.6 1.23 1.37 2.64 2.54 3.99 3.79 2.01 1.7 2.43 4.46 3.39 6.78-2.36-1.2-4.7-2.56-7.38-2.84 2.02 2.61 5.31 3.42 8.21 4.63-.04-1.05-.1-3.14-.13-4.18.47-.46.96-.9 1.44-1.34 2.43 1.66 5.67 2.75 6.55 5.9 1.48 4.95 5.47 8.94 5.77 14.24-1.85-1.24-3.83-2.32-5.56-3.72-1.52-3.84-2.28-8.97-6.57-10.74 2.32 5.06 4.35 10.21 5.87 15.57.46-.42 1.37-1.27 1.83-1.7 1.62 1 3 2.32 4.47 3.53-.37.74-.75 1.47-1.14 2.21-1.39-1.1-2.8-2.16-4.28-3.13.63 3.5 3.66 5.81 7.24 5.36l-1.91-1.99c.67-.12 2.01-.35 2.68-.47-.81-4.55-1.42-9.17-3.12-13.5 2.12.9 4.18 1.97 6.39 2.66 3.8-.13 7.6-.4 11.41-.32-4.05 2.59-7.43 6.1-9.93 10.21 4.53-1.29 5.83-6.42 9.55-8.85 2.46-.79 5.32-.65 7.36-2.48-2.18.08-4.31.54-6.42 1.04-2.39-2.64-6.7-.62-9.85-1.42 7.07-3.67 15.22-1.69 22.74-3.1.45.09 1.34.26 1.79.35l.57-1.14c1.41-1.58 2.66-3.29 4.11-4.85.17 2.37.32 4.74.61 7.09-2.47-1.63-2.98 1.14-3.92 2.76l3.07.8c-.27.79-.54 1.58-.87 2.35-1.88-.64-3.79-1.16-5.75-1.42 1.11.72 1.95 2.23 3.45 2.14 2.29.5 4.26-1.34 6.55-1 2.78 2.91 4.16 7 4.4 10.97.21 4.11 3.22 7.21 4.59 10.92-5.84 1.1-12.24 1.56-17.04 5.45-3.5 2.89-7.37 5.63-9.41 9.84-2.25-3.01-5.8-4.44-8.6-6.82-4.19-4.11-10.68-4.12-15.12-7.84-1.77-1.57-3.09-3.64-5.08-4.94-1.1.24-2.19.51-3.28.81 3.95 3.55 7.83 7.27 11.19 11.37-.14 8.07-.29 16.14-.27 24.21-6.16 2.46-12.58 4.38-18.51 7.39-.49 3.38-.9 7.38 2.61 9.27 13.28-5.19 26.65-10.15 40-15.14 1.21 3.69 2.04 7.53 1.37 11.42 1.37 1.07 2.94 1.8 4.7 1.93 2.59 4.4 4.45 9.52 3.36 14.68.21 7.83-4.25 14.7-5.07 22.37.47 6.49 3.03 12.62 3.87 19.06.46 3.6-.56 7.14-.76 10.71 1.22 3.99.88 8.34 3.03 12.04 1.47 2.72.21 6.66 3.15 8.55 4.25 3.54 11.04 4.36 15.64 1.11 1.62-.5 3.99-.42 4.36-2.53.52-4.56-3.72-7.51-6.05-10.87-1.89-3.04-3.8-6.07-5.56-9.18-2.07-4.79-1.91-10.12-1.67-15.21 11.2-3.99 22.23-8.46 33.44-12.45 3.74-.54 3.28-4.77 4.09-7.55-2.81-1.14-5.74-3.76-8.9-2.21-5.42 1.74-10.8 3.63-16.23 5.38.28-9.29.25-18.58.37-27.87 8.1-1.88 16.16-4.03 24-6.81 1.86-.48 2.38-2.48 3.27-3.94-.37-1.02-.73-2.05-1.09-3.07 2.82 2.37 5.81 4.68 9.49 5.51-.46 5.76-1.72 11.48-1.26 17.29 1.33 4.85 5 8.85 5.29 14.02 1.47 8.01-3.5 15.44-2.14 23.48 2.76 2.04 6.18 2.9 9.56 2.04 3.93-1.08 7.41 1.19 10.61 3.13 3.36-.42 6.93 1.4 10.03-.52 2.21-1.19 5.52-2.08 5.71-5.1-1.55-2.88-4.44-4.7-7.76-4.42-3.03-2.08-5.8-4.52-8.08-7.41-1.64-2.12-4.74-3.18-5.2-6.06-1.75-7.27-.96-14.81-1.59-22.2-1.16-5.64-1.27-11.52-.48-17.21 1.59-4.6-.34-9.51-2.78-13.42-2.27-3.53-6.93-3.56-9.8-6.33-4.44-4.03-9.77-6.95-15.27-9.28-5.15-4.64-12.87-3.06-19.19-4.47-1.17-3.39-4.01-6.27-7.84-5.98-1.08-.73-2.16-1.46-3.23-2.2-.6-2.77-2.43-4.91-3.73-7.33-1.07-5.04-1.28-10.54-4.65-14.73-2.54-1.68-5.5-2.68-7.81-4.73 1.32.38 3.95 1.14 5.26 1.52-1.08-5.48-.97-11.38 1.44-16.49 2.19-2.68 4.62-5.17 6.35-8.2-.79.14-2.37.42-3.16.55.37-4.54-.68-9.32 1.12-13.65 1.98-5.26 2.4-11.32-.17-16.47 1.39-1.06 2.83-2.08 4.02-3.37-3.02.29-6.08 2.3-8.98.39.25-2.74 1.23-5.35 1.67-8.05-2.59.84-2.84 3.59-3.52 5.82-5.51.33-10.88 1.74-16.29 2.72-8.66 1.88-17.39 3.43-25.99 5.59-5.08 1.13-10.3 1.74-15.25 3.43-.52-.88-1.05-1.76-1.57-2.64 3.3-.78 6.5-1.97 9.85-2.58 14.33-2.9 28.64-5.88 42.96-8.81 4.2-.55 7.02-4.15 11.03-5.2 3.37-1.2 7.05-3.33 10.63-1.49 1.42 1.35 1.62 3.4 2.28 5.15.96.22 1.93.44 2.9.67 3.23-.76 6.49-1.42 9.74-2.08 1.48 6.46 3.12 13.65 8.39 18.15 3.03 2.67 8.62 2.89 10.99-.75 3.62-1.84 5.2-5.82 6.28-9.5 2.21-6.72 1.41-13.9 1.41-20.85-.3-7.46-3.25-16.1-10.61-19.29-4-.38-8.59.93-10.8 4.55m20.43-4.72c1.16 2.1 2.66 3.98 3.84 6.07 4.44 7.42 4.42 16.56 3.16 24.85-.65 4.78-3.61 8.66-5.54 12.94 3.12-1.33 4.55-4.59 5.63-7.59 3.03-9.39 2.95-19.84-.67-29.06-1.39-2.91-2.86-6.51-6.42-7.21m-47.04 33.81c-.71-.07-2.11-.19-2.82-.26-.27 1.54-.5 3.08-.8 4.62 1.95-2.16 4.9-3.07 6.66-5.43-.76.27-2.28.8-3.04 1.07m3 5.75c.91.48 1.78 1.03 2.61 1.64 1.8 3.99 1.82 8.43 2.41 12.69.86 6.43.72 13.03-1 19.3-.42.3-1.26.88-1.69 1.18.65 6.19-1.95 12.02-2.36 18.14-.14 4.9-5.31 7.53-5.84 12.28 3.6-3.41 7.27-7.24 8.08-12.35 1.01-7.8 2.07-15.66 4.58-23.14 2.12-6.56-.45-13.3-.58-19.94-.06-3.13-1.31-6.04-1.74-9.1.41-1.86 1.38-3.53 1.95-5.34-2.22 1.55-3.09 5.98-6.42 4.64m-79.62 9.61c1.51 2.88 4.79 2.74 7.28 1.26-2.44-.34-4.83-.98-7.28-1.26m78.41 17.6c-2.31 3.29-1.55 7.79-.33 11.26 2.09-1.13.85-3.79 1.05-5.65-.83-3.88 2.55-6.66 3.21-10.26-1.5 1.38-2.85 2.92-3.93 4.65m-.72 11.67a67 67 0 00-3.63 10.87c-.46 3.57-4.01 5.57-4.93 9 1.93-1.55 3.47-3.5 5.06-5.39.09-.56.26-1.67.35-2.23 1.74-2.95 2.94-6.2 3.79-9.51.03-.88.12-2.14-.64-2.74m-29.06 27.94c-1.39 3.18-2.34 6.66-1.34 10.12-.6 1.38-1.2 2.76-1.77 4.15.86.53 1.71 1.06 2.57 1.6 2.83.23 5.61.81 8.2 2.03-.39.61-.76 1.24-1.09 1.89.35 2.09 2.96 1.59 4.43 2.15-.89-.56-2.65-1.7-3.54-2.26 2.22-.88 5.07-.78 6.44-3.08-5.3 1.46-10.03-1.55-14.87-3.17.8-1.23 1.54-2.49 2.24-3.77-1.12-2.98-1.43-6.24-.31-9.27 2.48-2.53 7.31-3.39 7.39-7.64-2.9 2.28-5.26 5.19-8.35 7.25m12.05-2.51c.42 2.25.73 4.51.86 6.8-4.96-.31-8.14 3.84-9.52 8.09 2.27-1.14 3.29-3.57 5.08-5.2 1.81-.52 3.67-.81 5.51-1.2l-.45-.91c3.12-.52 6.22-1.14 9.35-1.67-2.7-1.22-5.64-.91-8.3.25-.14-1.82-.36-3.62-.56-5.43-.66-.24-1.32-.49-1.97-.73m-19.45 4.39c-.26.34-.78 1.04-1.04 1.38.64 3.45 4.73-2.18 1.04-1.38m-7.15 2.14l-.88 1.76c.75.17 2.25.5 3 .66-1.3 1.54-2.57 3.1-3.84 4.66 1.87 2.8 3.42 5.81 5.43 8.52 1.11-3.55-1.88-6.19-3.79-8.75.24-.38.73-1.14.97-1.52 1.84.4 3.68.74 5.52 1.13-1.33.9-2.67 1.79-3.92 2.8 4.2-.09 5.34-4.78 8.51-6.73-2.43-.02-4.49 1.41-6.68 2.27-.11-.98-.34-2.92-.45-3.89-1.29-.31-2.58-.62-3.87-.91m28.89 2.51c1.03 1.85 2.24 3.64 3.97 4.91-.43-2.28-1.17-4.84-3.97-4.91m-22.74 10.16c1.88.07 3.93.2 5.43-1.18-1.89-.07-3.85.02-5.43 1.18z"/><path d="M168.6 37.07c.87-9.12 2.57-20.82 12.31-24.62 4.22 1.62 8.07 4.72 9.8 9 3.47 7.98 3.89 17.07 2.25 25.54-1 4.94-2.96 9.97-6.9 13.31-3.04 2.49-7.81 2.01-10.39-.91-3.94-4.27-5.46-10.12-6.52-15.69 2.33-.48 4.71-.88 6.98-1.65-.06-.37-.16-1.12-.22-1.49-6.9 1.12-13.7 2.84-20.57 4.15.42-1.15.87-2.29 1.38-3.41 3.49-.46 6.98-1.13 10.3-2.37 3.36-.45 7.85-.16 9.79-3.51-2.78.33-5.5.96-8.21 1.65m6.95-2.13c.59.05 1.78.14 2.38.18l-.24 1.69c1.34-.24 2.68-.47 4.03-.71.05.61.15 1.83.21 2.44-.73.48-2.17 1.44-2.89 1.92-.91-1.05-1.76-2.17-2.65-3.23-.49 1.72.53 3.11 1.35 4.5 1.7-.26 3.4-.5 5.12-.66 1.52-2.35 1.16-5.08-.4-7.3-1.9.02-5.03 2.77-5.4-1-.51.72-1.01 1.45-1.51 2.17zM11.7 50.72c2.4-3.02 6.54-2.51 9.91-3.37 9.08 3.83 11.73 14.48 12.29 23.39.18 8.26-1.03 17.28-6.45 23.85-2.47 3.21-6.83 2.69-10.41 2.84-2.93-.05-5.28-2.22-6.87-4.48-2.83-4.35-4.4-9.47-4.59-14.65 3.94-.41 7.82-1.26 11.65-2.27-.14-2.2-.55-4.37-1.2-6.48-4.21.68-8.32 1.88-12.51 2.64.35-.59 1.06-1.77 1.42-2.36.75-6.74 2.15-13.86 6.76-19.11m7.29-1.57c1.92 3.01 4.42 5.69 5.71 9.06 3.06 7.84 3.23 16.59 1.74 24.79-.8 4.85-3.47 9-5.53 13.36 1.94-1.19 3.67-2.82 4.45-5.01 4.56-10.8 4.76-23.4.59-34.36-1.51-3.16-2.92-7.38-6.96-7.84zM80.66 62.42c18.68-3.78 37.21-8.2 55.93-11.74 1.27 2.05 3.61 2.86 5.44 4.26 2.96 5.47 1.7 11.98-.29 17.55-1.71 4.95.42 10.33-.78 15.27-2.5 2.82-4.4 6.1-4.68 9.94-2.2 1.31-4.17 2.99-5.59 5.15-3.22 1.02-6.59 1.28-9.91 1.77-5.92-1.67-12.26.08-17.61 2.75-2.37-.74-4.73-1.52-7.17-1.99-1.33-2.75-2.02-5.93-4.26-8.15-1.37-1.15-2.94-2.04-4.41-3.04.12-2.73-.07-5.53-1.42-7.97-1.51-3.66-4.85-6.14-6.4-9.76-.97-2.45-1.46-5.05-2.09-7.6 1.39-1.98 2.54-4.12 3.24-6.44m9.58 30.82c1.25.19 2.4-.35 3.53-.77 4.09-1.96 8.45.5 12.41 1.65 3.65.78 4.06 5.05 6.07 7.59-.23-2.59-.19-5.76-2.36-7.57-3.75-1.73-7.7-3.11-11.76-3.91-2.94-.7-6.25.4-7.89 3.01m11.04 7.66c.94-2.14 2.65-4.41 1.95-6.88-1.38 1.96-3.35 4.4-1.95 6.88z"/><path d="M0 74.76c4.68-.89 9.33-2.07 14.06-2.65 1.29-.25 1.73 1.45 2.6 2.1-5.48 1.47-11.07 2.43-16.64 3.48l-.02-.7v-2.23zM144.48 136.21c4.01-1.38 7.76 1.17 11.31 2.67 1.07 1.28 1.64 2.89 2.44 4.34 5.09 1.82 10.58 1.56 15.86 2.45-2.97 1.76-5.86 3.8-7.72 6.78-3.73 4.28-1.88 10.45-4.02 15.43-.77-2.97-3.41-4.5-6.03-5.61-2.34.55-4.68 1.05-7.04 1.45.17 1.43.34 2.87.5 4.31-3.81-5.4-11.33-5.63-16.94-3.23-2.76 1.28-3.93 4.26-5.61 6.59-1.84-6.22-3.48-13.79.59-19.48 1.16-2.01 3.18-3.7 2.89-6.26 3.55-.94 8.17-1.56 9.38-5.68-3.7 1.39-7 3.66-10.86 4.66.12.9.27 1.8.34 2.7l-.65-1.86c-1.07.59-3.21 1.78-4.28 2.38.72.17 2.14.52 2.85.69-.9 2.09-1.76 4.2-2.78 6.25 0-1.83.04-3.65.12-5.47-.65.12-1.95.37-2.6.49 2.54-3.01 5.55-5.58 8.45-8.23 3.69-3.6 9.15-3.79 13.8-5.37m-8.07 13.89c1.87-.51 3.7-1.13 5.49-1.88-.32.59-.97 1.79-1.3 2.39 3.06-1.37 6.15-2.71 9.33-3.76 2.43-.47 5.19-.54 6.79-2.77-4.75.72-9.52 1.81-13.64 4.4-.45-.43-.91-.86-1.35-1.29 3.85-1.61 7.62-3.39 11.37-5.24.69-.52 1.38-1.04 2.08-1.56-7.23.53-13.79 4.65-18.77 9.71m20.56 3.24c1.02-2.62 2.12-5.2 3.17-7.8-2.49 1.86-3.27 4.81-3.17 7.8m-24.09 1.84c3.97.43 8.14.03 11.2-2.8-3.84.44-7.59 1.44-11.2 2.8zM101.62 139.64c7.59 1.07 12.65 7.15 18.57 11.38.31 2 .78 3.96 1.28 5.93-2.52-1.95-4.95-3.98-7.27-6.15-4.08-3.85-8.87-6.9-12.58-11.16zM101.22 167.12c.09-8.17.07-16.33.21-24.49 2.1 1.88 4.2 3.77 6.33 5.61-.07 5.47-.43 10.94-.3 16.42 5.05-.95 9.6-3.65 14.63-4.54 1.84 1.3 1.37 3.71 1.74 5.64-13.18 5.19-26.57 9.82-39.69 15.14-1.36-1.94-1.36-4.31-1.33-6.58 6.16-2.36 12.2-4.99 18.41-7.2z"/><path d="M166.91 155.62c1.82-4.01 5.37-7.28 9.89-7.75 6.7 2.06 12.8 5.75 18.16 10.23 2.6 2.12 6.47 2.44 8.46 5.34 1.2 2.11 1.76 4.54 3.21 6.52-.42 7.35-2.71 14.8-.84 22.14.92 4.57.67 9.24.5 13.86-.13 3.68.99 7.23 1.51 10.84 1.68 1.77 3.51 3.4 5.22 5.15 2.16 2.26 3.68 5.17 6.33 6.95 3.03 2.3 7.64 1.46 9.72 5.14-2.11.95-4.07 2.2-6.19 3.12-2.38-.25-4.73-.77-7.13-.71-2.49-1.08-4.86-2.84-7.68-2.76-3.55-.03-7.09.27-10.64.01-1.16-4.21-.12-8.55.25-12.79l1.24-1.56c-.47-4.31.15-8.68-.57-12.97-.63-2.84-2.59-5.16-3.33-7.96-1.02-4.98-1.59-10.07-1.19-15.16-.23-1.18-.47-2.36-.7-3.54.98-.78 4.09-.08 3.67-2.01-2.06-.91-4.28-1.38-6.31-2.34-2.28-1.31-4.13-3.29-6.57-4.32-3.06-1.49-6.55-1.4-9.87-1.31-3.42.23-6.48-1.53-9.52-2.82 1.5-3.61 1.58-7.53 2.38-11.3m27.53 5.91c.86 2.55 2.12 4.99 2.56 7.67-.63 1.38-1.55 2.68-2.98 3.31-3.38-.95-5.78-3.65-8.7-5.44 1.63 3.03 4.23 5.97 7.88 6.29 2.48.58 4.37-1.49 5.58-3.35.03-3.37-1.69-6.47-4.34-8.48m7.9 66.88c-.59-2.89-1.06-5.79-1.44-8.71-1.67 2.96-1.19 6.48 1.44 8.71zM109.36 149.27c3.36 3.37 6.97 6.48 10.75 9.36-3.76 1.16-7.4 2.68-11.1 4.02.1-4.46.23-8.92.35-13.38zM124.02 156.52c-1.66.62-1.55-2.73.06-2.11-.01.53-.04 1.58-.06 2.11z"/><path d="M151.35 167.06c1.49-.88 2.99-1.74 4.49-2.58 2.67 2.2 4.72 7.1 8.91 4.73 4 2.44 8.64 3.66 13.33 3.25 2.68-.33 4.07 2.55 3.86 4.85-8.98 3.3-18.18 6.01-27.57 7.84.08-2.8.25-5.69-.69-8.38-.89-3.23-2.91-6.23-2.33-9.71zM128.3 173.93c1.72-2.55 2.99-5.73 5.69-7.4 3.83-.96 7.99-.71 11.81.17 2.13 3.06 4.17 6.24 5.58 9.71 1.44 4.45.91 9.22.54 13.8l-.61-.06c.54-3.76.19-7.78-3.39-9.89l-4.1.03c-1.65 1.55-3.28 3.13-4.73 4.88 2.52-.65 4.43-2.46 5.93-4.5 1.64 1.04 3.26 2.12 4.8 3.3.03 1.98-.03 3.97-.3 5.93 1.49 4.03-2.04 7.24-2.61 11.06-.99 5.33-5.11 9.5-5.72 14.96-.13 2.54-1.19 5.7.96 7.7.7-5.15.54-10.61 3.52-15.13.23 3.21.54 6.46.12 9.67-.66 3.42-2.73 6.41-3.21 9.88-.56 4.27-.66 8.63.01 12.89-4.3.73-5.94 5.36-6.62 9.11 1.91-1.59 3.3-3.66 4.38-5.88.9-.48 1.78-.99 2.65-1.52.54 4.49 3.41 8.05 5.6 11.83 2.33 4.28 6.33 7.36 8.36 11.86-.74.21-2.21.63-2.94.84-2.2-.58-2.21-4.82-5.06-3.67-3.16.66-6.72-.39-9.48 1.67 3.22.56 6.51 1.11 9.72.21 1.43-.5 1.82 1.64 2.74 2.33-4.16 2.86-10.25 2.2-13.29-1.96-1.14-6.09-3.94-11.69-5.29-17.73.11-2.7.97-5.33.92-8.04-.1-6.2-2.5-12-3.61-18.03-1.23-6.22 1.27-12.38 3.59-18.05 1.38 2.81 1.57 6.46 4.31 8.41-1.19-6.3-4.21-12.48-3.14-19.02.52-7.15-2.48-14.04-7.13-19.36m14.03 22.36c.11.49.32 1.48.43 1.98.97.02 1.94.05 2.92.07.07-.49.21-1.49.29-1.98-1.22-.03-2.43-.06-3.64-.07z"/><path d="M126.92 177.09c1.39-.23 1.85.33 1.37 1.68-1.43.22-1.88-.34-1.37-1.68zM151.62 193.11c.78-2.4 1.63-4.96 3.81-6.47.36 10.17-.9 20.36-.35 30.56 6.79-1.74 13.24-4.62 20.05-6.26 1.63.28 3.14.99 4.69 1.54l-.87 4.02c-11.44 4.92-23.28 8.84-34.89 13.32 1.2-4.64 4-8.94 3.84-13.87.18-4.6-.96-9.36.66-13.81.8-3.09 2.18-5.97 3.06-9.03z"/></g><g fill="#333"><path d="M192.71 8.85c3.4-.46 7.09.35 9.48 2.96 3.99 4.26 5.55 10.15 6.52 15.76 4.14-1.25 8.37-2.38 12.68-2.82-.18.38-.56 1.14-.74 1.52-3.88 1.09-7.87 1.71-11.83 2.34l.12 3.06c3.98-.92 8.02-1.61 12.04-2.39-.08.44-.23 1.32-.31 1.76-3.86.43-7.66 1.33-11.52 1.74-.18 8.12-1.52 16.91-7.14 23.17-1.78 2.14-5.68 3.63-7.76 1.15 2.32-.91 5.17-.92 6.93-2.91 4.11-4.34 5.51-10.44 6.16-16.19.66-7.56-.27-15.54-4.18-22.17-1.57-2.92-4.69-4.29-7.4-5.9-.84.25-1.67.51-2.5.76-.14-.46-.41-1.38-.55-1.84z"/><path d="M173.24 16.32c2.21-3.62 6.8-4.93 10.8-4.55 7.36 3.19 10.31 11.83 10.61 19.29 0 6.95.8 14.13-1.41 20.85-1.08 3.68-2.66 7.66-6.28 9.5-2.37 3.64-7.96 3.42-10.99.75-5.27-4.5-6.91-11.69-8.39-18.15-3.25.66-6.51 1.32-9.74 2.08-.97-.23-1.94-.45-2.9-.67-.66-1.75-.86-3.8-2.28-5.15-3.58-1.84-7.26.29-10.63 1.49-4.01 1.05-6.83 4.65-11.03 5.2-14.32 2.93-28.63 5.91-42.96 8.81-3.35.61-6.55 1.8-9.85 2.58.52.88 1.05 1.76 1.57 2.64 4.95-1.69 10.17-2.3 15.25-3.43 8.6-2.16 17.33-3.71 25.99-5.59 5.41-.98 10.78-2.39 16.29-2.72.68-2.23.93-4.98 3.52-5.82-.44 2.7-1.42 5.31-1.67 8.05 2.9 1.91 5.96-.1 8.98-.39-1.19 1.29-2.63 2.31-4.02 3.37 2.57 5.15 2.15 11.21.17 16.47-1.8 4.33-.75 9.11-1.12 13.65.79-.13 2.37-.41 3.16-.55-1.73 3.03-4.16 5.52-6.35 8.2-2.41 5.11-2.52 11.01-1.44 16.49-1.31-.38-3.94-1.14-5.26-1.52 2.31 2.05 5.27 3.05 7.81 4.73 3.37 4.19 3.58 9.69 4.65 14.73 1.3 2.42 3.13 4.56 3.73 7.33 1.07.74 2.15 1.47 3.23 2.2 3.83-.29 6.67 2.59 7.84 5.98 6.32 1.41 14.04-.17 19.19 4.47 5.5 2.33 10.83 5.25 15.27 9.28 2.87 2.77 7.53 2.8 9.8 6.33 2.44 3.91 4.37 8.82 2.78 13.42-.79 5.69-.68 11.57.48 17.21.63 7.39-.16 14.93 1.59 22.2.46 2.88 3.56 3.94 5.2 6.06 2.28 2.89 5.05 5.33 8.08 7.41 3.32-.28 6.21 1.54 7.76 4.42-.19 3.02-3.5 3.91-5.71 5.1-3.1 1.92-6.67.1-10.03.52-3.2-1.94-6.68-4.21-10.61-3.13-3.38.86-6.8 0-9.56-2.04-1.36-8.04 3.61-15.47 2.14-23.48-.29-5.17-3.96-9.17-5.29-14.02-.46-5.81.8-11.53 1.26-17.29-3.68-.83-6.67-3.14-9.49-5.51.36 1.02.72 2.05 1.09 3.07-.89 1.46-1.41 3.46-3.27 3.94-7.84 2.78-15.9 4.93-24 6.81-.12 9.29-.09 18.58-.37 27.87 5.43-1.75 10.81-3.64 16.23-5.38 3.16-1.55 6.09 1.07 8.9 2.21-.81 2.78-.35 7.01-4.09 7.55-11.21 3.99-22.24 8.46-33.44 12.45-.24 5.09-.4 10.42 1.67 15.21 1.76 3.11 3.67 6.14 5.56 9.18 2.33 3.36 6.57 6.31 6.05 10.87-.37 2.11-2.74 2.03-4.36 2.53-4.6 3.25-11.39 2.43-15.64-1.11-2.94-1.89-1.68-5.83-3.15-8.55-2.15-3.7-1.81-8.05-3.03-12.04.2-3.57 1.22-7.11.76-10.71-.84-6.44-3.4-12.57-3.87-19.06.82-7.67 5.28-14.54 5.07-22.37 1.09-5.16-.77-10.28-3.36-14.68-1.76-.13-3.33-.86-4.7-1.93.67-3.89-.16-7.73-1.37-11.42-13.35 4.99-26.72 9.95-40 15.14-3.51-1.89-3.1-5.89-2.61-9.27 5.93-3.01 12.35-4.93 18.51-7.39-.02-8.07.13-16.14.27-24.21-3.36-4.1-7.24-7.82-11.19-11.37 1.09-.3 2.18-.57 3.28-.81 1.99 1.3 3.31 3.37 5.08 4.94 4.44 3.72 10.93 3.73 15.12 7.84 2.8 2.38 6.35 3.81 8.6 6.82 2.04-4.21 5.91-6.95 9.41-9.84 4.8-3.89 11.2-4.35 17.04-5.45-1.37-3.71-4.38-6.81-4.59-10.92-.24-3.97-1.62-8.06-4.4-10.97-2.29-.34-4.26 1.5-6.55 1-1.5.09-2.34-1.42-3.45-2.14 1.96.26 3.87.78 5.75 1.42.33-.77.6-1.56.87-2.35l-3.07-.8c.94-1.62 1.45-4.39 3.92-2.76-.29-2.35-.44-4.72-.61-7.09-1.45 1.56-2.7 3.27-4.11 4.85l-.57 1.14c-.45-.09-1.34-.26-1.79-.35-7.52 1.41-15.67-.57-22.74 3.1 3.15.8 7.46-1.22 9.85 1.42 2.11-.5 4.24-.96 6.42-1.04-2.04 1.83-4.9 1.69-7.36 2.48-3.72 2.43-5.02 7.56-9.55 8.85 2.5-4.11 5.88-7.62 9.93-10.21-3.81-.08-7.61.19-11.41.32-2.21-.69-4.27-1.76-6.39-2.66 1.7 4.33 2.31 8.95 3.12 13.5-.67.12-2.01.35-2.68.47l1.91 1.99c-3.58.45-6.61-1.86-7.24-5.36 1.48.97 2.89 2.03 4.28 3.13.39-.74.77-1.47 1.14-2.21-1.47-1.21-2.85-2.53-4.47-3.53-.46.43-1.37 1.28-1.83 1.7-1.52-5.36-3.55-10.51-5.87-15.57 4.29 1.77 5.05 6.9 6.57 10.74 1.73 1.4 3.71 2.48 5.56 3.72-.3-5.3-4.29-9.29-5.77-14.24-.88-3.15-4.12-4.24-6.55-5.9-.48.44-.97.88-1.44 1.34.03 1.04.09 3.13.13 4.18-2.9-1.21-6.19-2.02-8.21-4.63 2.68.28 5.02 1.64 7.38 2.84-.96-2.32-1.38-5.08-3.39-6.78-1.35-1.25-2.76-2.42-3.99-3.79 3.1.04 5.22 2.38 7 4.6.64-.17 1.92-.5 2.56-.67-.67-4.22-2.66-8.1-5.51-11.26-3.23-3.51-4.78-8.36-4.82-13.07.68-1.6 1.78-2.98 2.54-4.53.44-1.5-.63-2.89-.93-4.32.53-1.67.71-3.39-1.3-4.1-3.67-2.81-7.95-.19-11.68 1.04l.43 1.01c-.6-.07-1.79-.2-2.39-.27l-.14 1.05c.61.34 1.84 1.01 2.46 1.35 2.14 1.45.84 4.04.78 6.1.68 2.97 4.84 1.21 6.7 3.33-1.81.54-3.64 1.02-5.47 1.5 2.04 4.54.98 9.71 2.83 14.32.69 3.33 3.45 5.7 4.26 8.96.43 4.35 4.95 6.79 4.94 11.3 2.53 4.56 3.12 10.17 7.05 13.91 1.54 2.39 5.11 3.8 5.09 6.92-3.48-.32-5.45-3.58-7.45-6.03-5-6.53-4.78-15.64-10.25-21.8-1.08-5.89-5.99-10.18-6.38-16.31-.24-5.7-2.87-10.74-4.13-16.2-4.9 1.79-10.04 2.79-15.15 3.75-.27-.16-.79-.5-1.05-.67l-.6-.88c5.83-1.56 11.81-2.5 17.62-4.1l.52-2.76c-6.76 1.07-13.35 3.11-20.18 3.82 1.07 6.38-.04 12.95-1.48 19.18-1.82 6.29-5.56 13.12-12.31 15.01 1.93-3.67 5.89-5.61 7.91-9.21 3.95-6.46 4.73-14.31 4.48-21.74-.22-6.98-2.03-14.18-6.6-19.63-2.07-2.59-5.19-3.95-7.96-5.63 2.38-.37 4.96-.13 6.83 1.56 5.52 4.8 8.2 12.08 8.89 19.23 5.15-1.63 10.51-2.46 15.79-3.56.52-1.36.92-2.79 1.68-4.04 5.05-2.49 10.88-4.88 16.47-2.58.57.88 1.15 1.75 1.73 2.62 14.48-3.78 29.35-5.92 43.89-9.5 4.18-.68 8.32-1.68 12.55-2.01 1.01-2.04 2.29-4.43 4.89-4.5 4.03-.12 7.7-4.26 11.71-2.04 1.72.52 2.59 2.03 3.02 3.7l1.23-2.13c3.65-.61 7.23-1.55 10.89-2.06-.01-7.41 1.95-14.9 5.91-21.19m-4.64 20.75c2.71-.69 5.43-1.32 8.21-1.65-1.94 3.35-6.43 3.06-9.79 3.51-3.32 1.24-6.81 1.91-10.3 2.37a47.66 47.66 0 00-1.38 3.41c6.87-1.31 13.67-3.03 20.57-4.15.06.37.16 1.12.22 1.49-2.27.77-4.65 1.17-6.98 1.65 1.06 5.57 2.58 11.42 6.52 15.69 2.58 2.92 7.35 3.4 10.39.91 3.94-3.34 5.9-8.37 6.9-13.31 1.64-8.47 1.22-17.56-2.25-25.54-1.73-4.28-5.58-7.38-9.8-9-9.74 3.8-11.44 15.5-12.31 24.62M80.66 62.42c-.7 2.32-1.85 4.46-3.24 6.44.63 2.55 1.12 5.15 2.09 7.6 1.55 3.62 4.89 6.1 6.4 9.76 1.35 2.44 1.54 5.24 1.42 7.97 1.47 1 3.04 1.89 4.41 3.04 2.24 2.22 2.93 5.4 4.26 8.15 2.44.47 4.8 1.25 7.17 1.99 5.35-2.67 11.69-4.42 17.61-2.75 3.32-.49 6.69-.75 9.91-1.77 1.42-2.16 3.39-3.84 5.59-5.15.28-3.84 2.18-7.12 4.68-9.94 1.2-4.94-.93-10.32.78-15.27 1.99-5.57 3.25-12.08.29-17.55-1.83-1.4-4.17-2.21-5.44-4.26-18.72 3.54-37.25 7.96-55.93 11.74m63.82 73.79c-4.65 1.58-10.11 1.77-13.8 5.37-2.9 2.65-5.91 5.22-8.45 8.23.65-.12 1.95-.37 2.6-.49-.08 1.82-.12 3.64-.12 5.47 1.02-2.05 1.88-4.16 2.78-6.25-.71-.17-2.13-.52-2.85-.69 1.07-.6 3.21-1.79 4.28-2.38l.65 1.86c-.07-.9-.22-1.8-.34-2.7 3.86-1 7.16-3.27 10.86-4.66-1.21 4.12-5.83 4.74-9.38 5.68.29 2.56-1.73 4.25-2.89 6.26-4.07 5.69-2.43 13.26-.59 19.48 1.68-2.33 2.85-5.31 5.61-6.59 5.61-2.4 13.13-2.17 16.94 3.23-.16-1.44-.33-2.88-.5-4.31 2.36-.4 4.7-.9 7.04-1.45 2.62 1.11 5.26 2.64 6.03 5.61 2.14-4.98.29-11.15 4.02-15.43 1.86-2.98 4.75-5.02 7.72-6.78-5.28-.89-10.77-.63-15.86-2.45-.8-1.45-1.37-3.06-2.44-4.34-3.55-1.5-7.3-4.05-11.31-2.67m-42.86 3.43c3.71 4.26 8.5 7.31 12.58 11.16 2.32 2.17 4.75 4.2 7.27 6.15-.5-1.97-.97-3.93-1.28-5.93-5.92-4.23-10.98-10.31-18.57-11.38m-.4 27.48c-6.21 2.21-12.25 4.84-18.41 7.2-.03 2.27-.03 4.64 1.33 6.58 13.12-5.32 26.51-9.95 39.69-15.14-.37-1.93.1-4.34-1.74-5.64-5.03.89-9.58 3.59-14.63 4.54-.13-5.48.23-10.95.3-16.42-2.13-1.84-4.23-3.73-6.33-5.61-.14 8.16-.12 16.32-.21 24.49m65.69-11.5c-.8 3.77-.88 7.69-2.38 11.3 3.04 1.29 6.1 3.05 9.52 2.82 3.32-.09 6.81-.18 9.87 1.31 2.44 1.03 4.29 3.01 6.57 4.32 2.03.96 4.25 1.43 6.31 2.34.42 1.93-2.69 1.23-3.67 2.01.23 1.18.47 2.36.7 3.54-.4 5.09.17 10.18 1.19 15.16.74 2.8 2.7 5.12 3.33 7.96.72 4.29.1 8.66.57 12.97l-1.24 1.56c-.37 4.24-1.41 8.58-.25 12.79 3.55.26 7.09-.04 10.64-.01 2.82-.08 5.19 1.68 7.68 2.76 2.4-.06 4.75.46 7.13.71 2.12-.92 4.08-2.17 6.19-3.12-2.08-3.68-6.69-2.84-9.72-5.14-2.65-1.78-4.17-4.69-6.33-6.95-1.71-1.75-3.54-3.38-5.22-5.15-.52-3.61-1.64-7.16-1.51-10.84.17-4.62.42-9.29-.5-13.86-1.87-7.34.42-14.79.84-22.14-1.45-1.98-2.01-4.41-3.21-6.52-1.99-2.9-5.86-3.22-8.46-5.34-5.36-4.48-11.46-8.17-18.16-10.23-4.52.47-8.07 3.74-9.89 7.75m-57.55-6.35c-.12 4.46-.25 8.92-.35 13.38 3.7-1.34 7.34-2.86 11.1-4.02-3.78-2.88-7.39-5.99-10.75-9.36m14.66 7.25c.02-.53.05-1.58.06-2.11-1.61-.62-1.72 2.73-.06 2.11m27.33 10.54c-.58 3.48 1.44 6.48 2.33 9.71.94 2.69.77 5.58.69 8.38 9.39-1.83 18.59-4.54 27.57-7.84.21-2.3-1.18-5.18-3.86-4.85-4.69.41-9.33-.81-13.33-3.25-4.19 2.37-6.24-2.53-8.91-4.73-1.5.84-3 1.7-4.49 2.58m-23.05 6.87c4.65 5.32 7.65 12.21 7.13 19.36-1.07 6.54 1.95 12.72 3.14 19.02-2.74-1.95-2.93-5.6-4.31-8.41-2.32 5.67-4.82 11.83-3.59 18.05 1.11 6.03 3.51 11.83 3.61 18.03.05 2.71-.81 5.34-.92 8.04 1.35 6.04 4.15 11.64 5.29 17.73 3.04 4.16 9.13 4.82 13.29 1.96-.92-.69-1.31-2.83-2.74-2.33-3.21.9-6.5.35-9.72-.21 2.76-2.06 6.32-1.01 9.48-1.67 2.85-1.15 2.86 3.09 5.06 3.67.73-.21 2.2-.63 2.94-.84-2.03-4.5-6.03-7.58-8.36-11.86-2.19-3.78-5.06-7.34-5.6-11.83-.87.53-1.75 1.04-2.65 1.52-1.08 2.22-2.47 4.29-4.38 5.88.68-3.75 2.32-8.38 6.62-9.11-.67-4.26-.57-8.62-.01-12.89.48-3.47 2.55-6.46 3.21-9.88.42-3.21.11-6.46-.12-9.67-2.98 4.52-2.82 9.98-3.52 15.13-2.15-2-1.09-5.16-.96-7.7.61-5.46 4.73-9.63 5.72-14.96.57-3.82 4.1-7.03 2.61-11.06.27-1.96.33-3.95.3-5.93-1.54-1.18-3.16-2.26-4.8-3.3-1.5 2.04-3.41 3.85-5.93 4.5 1.45-1.75 3.08-3.33 4.73-4.88l4.1-.03c3.58 2.11 3.93 6.13 3.39 9.89l.61.06c.37-4.58.9-9.35-.54-13.8-1.41-3.47-3.45-6.65-5.58-9.71-3.82-.88-7.98-1.13-11.81-.17-2.7 1.67-3.97 4.85-5.69 7.4m-1.38 3.16c-.51 1.34-.06 1.9 1.37 1.68.48-1.35.02-1.91-1.37-1.68m24.7 16.02c-.88 3.06-2.26 5.94-3.06 9.03-1.62 4.45-.48 9.21-.66 13.81.16 4.93-2.64 9.23-3.84 13.87 11.61-4.48 23.45-8.4 34.89-13.32l.87-4.02c-1.55-.55-3.06-1.26-4.69-1.54-6.81 1.64-13.26 4.52-20.05 6.26-.55-10.2.71-20.39.35-30.56-2.18 1.51-3.03 4.07-3.81 6.47z"/><path d="M193.67 11.6c3.56.7 5.03 4.3 6.42 7.21 3.62 9.22 3.7 19.67.67 29.06-1.08 3-2.51 6.26-5.63 7.59 1.93-4.28 4.89-8.16 5.54-12.94 1.26-8.29 1.28-17.43-3.16-24.85-1.18-2.09-2.68-3.97-3.84-6.07zM175.55 34.94c.5-.72 1-1.45 1.51-2.17.37 3.77 3.5 1.02 5.4 1 1.56 2.22 1.92 4.95.4 7.3-1.72.16-3.42.4-5.12.66-.82-1.39-1.84-2.78-1.35-4.5.89 1.06 1.74 2.18 2.65 3.23.72-.48 2.16-1.44 2.89-1.92-.06-.61-.16-1.83-.21-2.44-1.35.24-2.69.47-4.03.71l.24-1.69c-.6-.04-1.79-.13-2.38-.18zM146.63 45.41c.76-.27 2.28-.8 3.04-1.07-1.76 2.36-4.71 3.27-6.66 5.43.3-1.54.53-3.08.8-4.62.71.07 2.11.19 2.82.26zM11.77 48.67c4.49-2.89 11.28-4.03 15.56-.09 4.99 4.59 6.29 11.55 7.99 17.81-.01 7.01.27 14.22-2.13 20.93-1.53 4.51-3.8 9.46-8.36 11.57-4.1.48-8.93 1.85-12.48-1.04-5.94-4.67-6.9-12.6-8.95-19.35-.85.33-2.55.98-3.4 1.3v-2.81l.02.7c5.57-1.05 11.16-2.01 16.64-3.48-.87-.65-1.31-2.35-2.6-2.1-4.73.58-9.38 1.76-14.06 2.65v-1.83c1.1-.14 2.19-.27 3.29-.41.73-8.38 2.24-17.67 8.48-23.85m-.07 2.05c-4.61 5.25-6.01 12.37-6.76 19.11-.36.59-1.07 1.77-1.42 2.36 4.19-.76 8.3-1.96 12.51-2.64.65 2.11 1.06 4.28 1.2 6.48-3.83 1.01-7.71 1.86-11.65 2.27.19 5.18 1.76 10.3 4.59 14.65 1.59 2.26 3.94 4.43 6.87 4.48 3.58-.15 7.94.37 10.41-2.84 5.42-6.57 6.63-15.59 6.45-23.85-.56-8.91-3.21-19.56-12.29-23.39-3.37.86-7.51.35-9.91 3.37zM149.63 51.16c3.33 1.34 4.2-3.09 6.42-4.64-.57 1.81-1.54 3.48-1.95 5.34.43 3.06 1.68 5.97 1.74 9.1.13 6.64 2.7 13.38.58 19.94-2.51 7.48-3.57 15.34-4.58 23.14-.81 5.11-4.48 8.94-8.08 12.35.53-4.75 5.7-7.38 5.84-12.28.41-6.12 3.01-11.95 2.36-18.14.43-.3 1.27-.88 1.69-1.18 1.72-6.27 1.86-12.87 1-19.3-.59-4.26-.61-8.7-2.41-12.69-.83-.61-1.7-1.16-2.61-1.64z"/><path d="M18.99 49.15c4.04.46 5.45 4.68 6.96 7.84 4.17 10.96 3.97 23.56-.59 34.36-.78 2.19-2.51 3.82-4.45 5.01C22.97 92 25.64 87.85 26.44 83c1.49-8.2 1.32-16.95-1.74-24.79-1.29-3.37-3.79-6.05-5.71-9.06zM70.01 60.77c2.45.28 4.84.92 7.28 1.26-2.49 1.48-5.77 1.62-7.28-1.26zM148.42 78.37c1.08-1.73 2.43-3.27 3.93-4.65-.66 3.6-4.04 6.38-3.21 10.26-.2 1.86 1.04 4.52-1.05 5.65-1.22-3.47-1.98-7.97.33-11.26zM90.24 93.24c1.64-2.61 4.95-3.71 7.89-3.01 4.06.8 8.01 2.18 11.76 3.91 2.17 1.81 2.13 4.98 2.36 7.57-2.01-2.54-2.42-6.81-6.07-7.59-3.96-1.15-8.32-3.61-12.41-1.65-1.13.42-2.28.96-3.53.77zM147.7 90.04c.76.6.67 1.86.64 2.74-.85 3.31-2.05 6.56-3.79 9.51-.09.56-.26 1.67-.35 2.23-1.59 1.89-3.13 3.84-5.06 5.39.92-3.43 4.47-5.43 4.93-9a67 67 0 013.63-10.87z"/><path d="M101.28 100.9c-1.4-2.48.57-4.92 1.95-6.88.7 2.47-1.01 4.74-1.95 6.88zM118.64 117.98c3.09-2.06 5.45-4.97 8.35-7.25-.08 4.25-4.91 5.11-7.39 7.64-1.12 3.03-.81 6.29.31 9.27-.7 1.28-1.44 2.54-2.24 3.77 4.84 1.62 9.57 4.63 14.87 3.17-1.37 2.3-4.22 2.2-6.44 3.08.89.56 2.65 1.7 3.54 2.26-1.47-.56-4.08-.06-4.43-2.15.33-.65.7-1.28 1.09-1.89-2.59-1.22-5.37-1.8-8.2-2.03-.86-.54-1.71-1.07-2.57-1.6.57-1.39 1.17-2.77 1.77-4.15-1-3.46-.05-6.94 1.34-10.12z"/><path d="M130.69 115.47c.65.24 1.31.49 1.97.73.2 1.81.42 3.61.56 5.43 2.66-1.16 5.6-1.47 8.3-.25-3.13.53-6.23 1.15-9.35 1.67l.45.91c-1.84.39-3.7.68-5.51 1.2-1.79 1.63-2.81 4.06-5.08 5.2 1.38-4.25 4.56-8.4 9.52-8.09-.13-2.29-.44-4.55-.86-6.8zM111.24 119.86c3.69-.8-.4 4.83-1.04 1.38.26-.34.78-1.04 1.04-1.38zM104.09 122c1.29.29 2.58.6 3.87.91.11.97.34 2.91.45 3.89 2.19-.86 4.25-2.29 6.68-2.27-3.17 1.95-4.31 6.64-8.51 6.73 1.25-1.01 2.59-1.9 3.92-2.8-1.84-.39-3.68-.73-5.52-1.13-.24.38-.73 1.14-.97 1.52 1.91 2.56 4.9 5.2 3.79 8.75-2.01-2.71-3.56-5.72-5.43-8.52 1.27-1.56 2.54-3.12 3.84-4.66-.75-.16-2.25-.49-3-.66l.88-1.76z"/><path d="M132.98 124.51c2.8.07 3.54 2.63 3.97 4.91-1.73-1.27-2.94-3.06-3.97-4.91zM110.24 134.67c1.58-1.16 3.54-1.25 5.43-1.18-1.5 1.38-3.55 1.25-5.43 1.18zM136.41 150.1c4.98-5.06 11.54-9.18 18.77-9.71-.7.52-1.39 1.04-2.08 1.56-3.75 1.85-7.52 3.63-11.37 5.24.44.43.9.86 1.35 1.29 4.12-2.59 8.89-3.68 13.64-4.4-1.6 2.23-4.36 2.3-6.79 2.77-3.18 1.05-6.27 2.39-9.33 3.76.33-.6.98-1.8 1.3-2.39-1.79.75-3.62 1.37-5.49 1.88zM156.97 153.34c-.1-2.99.68-5.94 3.17-7.8-1.05 2.6-2.15 5.18-3.17 7.8zM132.88 155.18c3.61-1.36 7.36-2.36 11.2-2.8-3.06 2.83-7.23 3.23-11.2 2.8zM194.44 161.53c2.65 2.01 4.37 5.11 4.34 8.48-1.21 1.86-3.1 3.93-5.58 3.35-3.65-.32-6.25-3.26-7.88-6.29 2.92 1.79 5.32 4.49 8.7 5.44 1.43-.63 2.35-1.93 2.98-3.31-.44-2.68-1.7-5.12-2.56-7.67zM142.33 196.29c1.21.01 2.42.04 3.64.07-.08.49-.22 1.49-.29 1.98-.98-.02-1.95-.05-2.92-.07-.11-.5-.32-1.49-.43-1.98zM202.34 228.41c-2.63-2.23-3.11-5.75-1.44-8.71.38 2.92.85 5.82 1.44 8.71z"/></g></svg>