<svg width="263pt" height="275pt" viewBox="0 0 263 275" xmlns="http://www.w3.org/2000/svg"><g fill="#FFF"><path d="M0 0h263v275H0V0m191.15 37.14c-4.19 7.33-4.64 16.24-3.56 24.45-6.03 1.28-11.68 3.88-17.7 5.17-6.17-2.15-14.23-1.11-18.07 4.7.77-.12 2.32-.35 3.1-.47 2.93-2.1 6.37-3.16 9.87-3.83.92 1.1 1.84 2.21 2.8 3.28.5 1.63.72 3.37 1.67 4.83 1.32 7.32 4.79 13.89 7.25 20.83.46 4.52 1.56 9.29.26 13.75-1.98 1.39-4.61.83-6.86.67-5.43-1.09-11.04-.8-16.41-2.3-.29.82-.4 1.65-.34 2.5 4.13 2.57 6.02 7.33 7.4 11.81-7.58.43-13.02 6.27-19.41 9.6-3.22 1.57-5.4 4.57-6.74 7.81-.33-.13-1.01-.4-1.34-.54.97.53 1.95 1.06 2.93 1.59-.72 1.2-1.45 2.4-2.17 3.61 2.42 3.12 2.75 7.17 4.81 10.45-.23 2.5-.12 5 .08 7.5-5.9-7.17-11.72-14.42-18.12-21.14-4.28-4.69-8.68-9.36-13.98-12.91.48 4.52 4.7 7.12 7.07 10.63-.39.01-1.17.04-1.57.05.94 9.5 1.99 18.99 3.77 28.38 2.94.34 5.27-1.68 7.7-2.99 2.22-1.21 4.11-3 5.16-5.34-4.15 1.27-7.58 4.03-11.15 6.37-.82-5.2-1.75-10.37-2.03-15.63-.17-3.5-2.71-7.06-1.01-10.48 3.5 4.12 8 7.3 11.25 11.65 3.54 4.79 7.41 9.35 11.73 13.45 3.16 2.67 3.45 7.6 7.52 9.41-2.22-6.07-5.98-12.76-3.59-19.28-1.72-3.22-3.14-6.58-4.87-9.78.38-2.39 1.2-4.68 1.63-7.06 2.01-2.93 5.1-4.68 8.17-6.3 3.09-1.53 4.98-4.71 8.2-6.04 4.51-1.99 9.65-1.55 14.36-.65 2.77.78.71 6.2 4.09 6.2 8.28.96 16.47 3.08 23.82 7.1-1.12 1.36-2.22 2.72-3.27 4.14-1.64-1.97-3.83-3.89-6.56-3.81-6.51 2.01-12.37 5.66-17.6 9.96-3.47 3.16-4.1 8.21-4.27 12.65-10.29-.73-17.01 9.16-19.65 17.9.42.11 1.25.34 1.67.45.33-1.15.66-2.3 1-3.45 2.18 5.46 7.42 9.23 8.81 15.02-.64 2.31-2.36 4.1-3.86 5.9l-.4-2.1c-3.31-.14-5.53-2.94-8.24-4.48-6.67-4.77-14.46-7.77-20.92-12.81-.32.83-.59 1.67-.85 2.53 5.65 3.43 10.87 7.58 16.83 10.49 4.4 2.37 8.72 4.86 13.12 7.21-1.6 2.55-2.46 5.45-3.66 8.19-8.69-6.62-18.3-11.93-28.02-16.88-3.7-1.92-7.17-4.3-11.09-5.78.87 1.02 1.7 2.12 2.87 2.83 6.35 4.15 13.18 7.51 19.42 11.85 5.31 3.28 10.36 6.99 15.82 10.03-1.5 8.31.15 17.09-3.06 25.09-1.19 3.61-3.59 7.05-3.24 10.97 1.3 4.05 6.02 4.77 8.85 7.34 3.68 3.4 6.92 7.5 11.61 9.58 6.42 2.14 15.05-.58 17.25-7.51-3.45 2.83-7.61 5.87-12.35 4.99-3.77-.21-8.9-1.4-9.93-5.54 1.33-3.8.07-7.79-.69-11.56-.69-2.49-.74-5.53-3.18-7.05.57 5.6 1.62 11.18 3.52 16.48-4.82-.57-9.44-3.62-13.12-6.78-.01-3.14 1.5-6.03 2.49-8.95 2.09-6.15 3.82-12.55 3.6-19.11-.28-5.37 1.79-10.45 3.91-15.27 1.36-3.11 3.34-6.11 6.46-7.7-1.63-3.31-3.14-6.75-5.49-9.63-2.09-2.61-4.39-5.18-5.56-8.37.35-2.64 2.45-4.77 4.17-6.7 3.07-2.69 7.76-5.57 11.75-3.09 3.14 2.17 5.51 5.82 5.23 9.77-.18 4.39 2.27 8.15 3.81 12.07 1.32 4.3-2.32 7.48-4.17 10.91-2.56 4.82-3.37 10.33-5.81 15.21-2.11 5.34-6.44 10.78-4.32 16.81 1.95 6.42 3.91 13.41 9.16 17.97 2.64 2.41 6.07 3.62 9.33 4.95-1.68-3.5-5.88-4.12-8.42-6.72-2.65-2.47-2.83-6.35-4.58-9.37 10.21-8.17 20.99-15.62 32.06-22.59 2.99-2.65 7.44-4.34 8.45-8.59 4.02 2.31 7.8 5.08 12.15 6.77 1.89-.84 3.91-1.51 5.54-2.83.67-1.99 1.11-4.07 1.23-6.16-1.36-3.03-5.13-3.51-7.27-5.77-2.74-2.86-4.15-7.25-8.37-8.39 3.16-3.28 6.41-6.55 8.68-10.54 1.82-3.37 4.94-5.8 6.66-9.23 1.8-3.4 5.14-6.28 4.92-10.45-.43-5.08-5.46-7.46-8.53-10.85-4.36-4.64-10.5-6.71-16.12-9.34-1.24-3.37-4.85-1.89-7.25-.98-.63-1.73-1.52-3.63-3.46-4.15-6.88-2.25-14.12-3.18-21.22-4.35-.2-1.84-.23-4.06-1.96-5.22-2.61-1.66-5.87-1.2-8.81-1.4.16-.7.47-2.1.63-2.8-2.02-2.74-3.92-5.59-5.13-8.79 3.96.21 7.96.54 11.76 1.72-.26 1.7.19 2.27 1.34 1.71l.48-.51c2.38-1.29 5.31-1.2 7.9-2.04 1.95-8.02.13-16.42-2.96-23.92-2.03-4.62-2.57-9.68-3.56-14.58 5.31-1.66 10.71-3.08 15.91-5.08 2.08 4.33 3.17 9.16 6.09 13.08 2.57 3.58 5.93 7.52 10.61 7.94 4.32-.33 9.64-.22 12.19-4.43 5.11-7.61 5.51-17.53 4.14-26.32 1.77-.88 3.69-1.37 5.59-1.9-1.9-1.82-3.96-.83-5.89.37-.16-1.07-.47-3.21-.62-4.28 4.61-.69 8.9-2.63 13.45-3.58.67.5 2.02 1.51 2.7 2.01-3.28 1.83-6.98 2.65-10.55 3.7.78.46 1.56.91 2.35 1.35 3.11-1.16 6.31-2.07 9.43-3.22-.63-2.07-.94-4.52-2.78-5.9-5.11 1.01-10.09 2.69-14.95 4.57-2.54-8.18-6.87-16.8-15.16-20.37-5.04-.77-11.09.95-13.76 5.66M83.5 82.9c.88 1.04 1.55 3.85 3.35 2.91.41-2.36-1.79-4.39-1.26-6.8.5-4.82 2.99-10.16 8.02-11.57 5.12-1.98 9.47 2.1 13.73 4.25 4.95 2.28 1.67 10.04 7.32 11.69-.71-4.43-.08-9.95-4.08-13.01-4.8-2.73-9.75-6.39-15.62-5.44-8.39.68-13.3 10.33-11.46 17.97m55.58-6.7c-8.64 2.84-17.43 5.21-26.13 7.86.78.52 1.56 1.05 2.35 1.56 13.37-4.1 26.78-8.05 40.06-12.42-.15-.27-.46-.82-.61-1.1-.95-.05-1.82.22-2.6.82l1.55-1.52c-4.67 2.18-9.73 3.24-14.62 4.8m13.87 1.27c-16.02 4.76-31.97 9.76-47.98 14.57-2.09.55-4.12 1.52-6.3 1.58-.42-.72-1.27-2.17-1.7-2.89 5.83-1.07 11.43-3.11 17.09-4.8-.82-.5-1.64-.99-2.47-1.46-4.82 1.61-9.68 3.09-14.51 4.67-2.21-1.18-4.46-2.85-7.1-2.59-3.93 1.55-8.31 2.13-11.76 4.73-.38 1.16-.53 2.39-.86 3.57-6.15 2.26-12.57 3.71-18.71 5.98-2.33-7.58-6.18-16.11-14-19.26-3.41-1.72-6.92.12-10.22 1.1-2.97 1.05-4.67 4-6 6.67-2.79 6.71-3.3 14.22-2.05 21.34-2.06.55-4.12 1.11-6.12 1.86l-3.59.27a52.004 52.004 0 00-3.17 5.08c.84 1.2 1.67 2.41 2.5 3.62 5.31-1.27 10.3-3.6 15.6-4.95 3.15-1.19 6.84-1.43 9.52-3.54.21-2.35-1.09-4.44-2.2-6.4-4.02 1.3-8.05 2.55-12.11 3.7 1.26-7.85-.17-16.72 5.04-23.44 2.07-3.26 6.2-3.36 9.5-4.51 2.93 1.35 6.11 2.54 8.28 5.06 4.69 5.13 6.86 11.98 8.56 18.58 1.45 8.44 1.2 17.72-2.91 25.4-2.28 4.61-7.94 4.71-12.39 4.83-5.34-1.41-8.72-6.43-10.87-11.21-1.27-2.4-1.66-5.48-4.23-6.94 1.98 8.16 6.14 17.38 14.6 20.41 4.71.12 10.78.05 13.62-4.45 5.24-7.61 5.17-17.48 4.04-26.29 4.17-.97 8.2-2.42 12.28-3.7l1.01.36c1.16-.61 3.47-1.84 4.62-2.45-1.61 2.82-.34 6-1 8.98-.8 4-2.05 7.96-2.09 12.08.63 3.7 2.79 7.06 2.69 10.92 0 3.65 1.96 6.84 2.87 10.29 3.42-.3 6.98-.3 10.26-1.41 3.16-2.15 5.65-5.32 7.39-8.7.21-4.07 0-8.17.66-12.21 1.07 1.58 1.75 3.36 2.35 5.16 2 7.45.5 15.4 2.22 22.94.06 6.98.98 13.92 1.27 20.88-8.12 4.26-16.39 8.27-24.3 12.92.24 2.87.06 5.77.47 8.62 1.67 3.09 4.78 5.02 7.91 6.4 7.03-4.29 15.14-7.42 20.5-13.93-4.25.89-7.41 3.99-11.19 5.9-3.07 1.61-5.92 3.63-9.07 5.09-2.11-.09-3.71-2.05-5.29-3.32-1.24-2.19-.98-4.91-1.43-7.33 8.02-3.75 15.68-8.25 23.38-12.6 1.97-.72 1.59-3.02 1.43-4.66-.69-5.36-1.1-10.75-1.97-16.09-1.33-8.92-.35-18.1-2.48-26.91 2.65 1.07 5.44 1.96 7.66 3.82 3.45 3.02 8.95 1.25 12.16 4.67 2.17 2.45 4.34 4.91 6.78 7.09.72 1.53 1.55 3.01 2.6 4.34.25-1.59.5-3.17.74-4.76-2.59-2.93-5.13-5.9-7.68-8.86-2.51-2.66-6.43-2.12-9.63-3.23-4.83-3.93-11.38-4.48-16.37-8.22-.25-.6-.74-1.8-.98-2.4-.35.49-1.04 1.48-1.39 1.98.03 4.18-.14 8.38-.28 12.56-1.26 3.91-4.82 6.3-7.22 9.44-2.32.36-4.65.62-6.98.91-.29-1.61-.59-3.2-.84-4.81l-.88.12c-.06-2.5.19-5.07-.57-7.5-.81-3-2.84-5.9-1.81-9.11.34-4.86 3.63-9.47 1.93-14.37.35-1.65.65-3.32.93-4.98 1.14-.54 2.27-1.1 3.4-1.66-1.5-.33-3.05-.87-4.56-.28-6.63 1.97-13.28 3.89-19.85 6.06-.16-.83-.49-2.5-.65-3.33 7.44-1.74 14.66-4.32 22-6.46.6-.78 1.21-1.55 1.81-2.32-1.29.15-2.59.29-3.88.43 2.68-4.02 8.29-3.24 12.32-5.05 1.63.83 3.66 1.28 4.71 2.93.15 1.75.1 3.51.15 5.27-.43 1.16-.83 2.32-1.22 3.49-3.34-.03-5.04 2.84-6.91 5.1.75 8.11 1.85 16.4 5.83 23.63l1.8-.16c-.09-3.04-.08-6.35-2-8.9-2.28-3.07-2.15-7.05-2.46-10.68 2.89-.59 5.74-1.48 8.71-1.47 1.44-1.24 2.86-2.49 4.26-3.77-1.07-.15-2.15-.3-3.22-.44-.21.47-.64 1.42-.85 1.9-2.97.57-5.95 1.08-8.84 1.97.61-1.17 1.22-2.33 1.83-3.5 3.77-.87 6.89-4.27 5.95-8.31 11.56-3.65 23.14-7.33 34.8-10.55 3.92.68 6.9 3.56 10.35 5.28 5.45-.6 11.41-.8 16.24 2.24.49 1.38.98 2.75 1.48 4.12-.81 2.12-1.67 4.22-2.5 6.34.97.09 1.93.19 2.9.28 1.48-5.51 1.15-11.2 1.39-16.84.05-1.81-.61-3.52-1.07-5.24-2.21-.58-4.88-.26-6.65-1.91-.29-1.92-.22-3.87-.2-5.8-.71 1.32-1.07 3.16-2.83 3.42m-52.9 7.3c3.45-1.5 4.26-6.1 5.72-9.29-2.72 2.49-4.55 5.83-5.72 9.29m-60.94-.25c1.98 2.81 4.72 5 6.54 7.94 7.57 12.57 8.58 28.78 2.32 42.11 4.17-2.22 4.97-7.28 5.56-11.51 1.13-11.4-.68-23.62-7.36-33.17-1.74-2.42-3.76-5.22-7.06-5.37m68.65 14.92c3.13.25 6.26-.1 9.34-.69 2.38-3.94 6.94-5.21 11.03-6.6 1.44-.62 3.58-.91 3.83-2.8-8.8 1.51-15.94 7.13-24.2 10.09m24.68-5.05c1.75 2.81 5.96 3.14 6.87 6.57.6 1.54 1.49 2.92 2.52 4.2.5 2.68.43 5.43.97 8.1 1.79 2.45 4.28 4.3 6.47 6.38.38-3.23-2.16-5.28-4.28-7.2-.49-3.55.55-7.74-2.27-10.54-1.03-4.83-5.84-6.91-10.28-7.51m10.96-.74c1.78 2.78 4.03 5.3 5.22 8.42.36 2.01.07 4.06-.04 6.09 1.25 2.08 2.58 4.12 4.16 5.97-.12-1.4-.34-2.78-.68-4.14-.38-.38-1.14-1.15-1.52-1.53.78-.49 1.56-1 2.32-1.52l-1.58.05c-.38-5.3-2.37-11.39-7.88-13.34m-19.05 12.6c-1.04 2.7 2.41 3.81 4.05 5.15-.38-1.29-.79-2.58-1.21-3.85 2.67-1.92 1.79-5.3 2.03-8.12.75-1.54 1.41-3.17 1-4.91-2.4 3.65-4.58 7.54-5.87 11.73m-9.03.23c.89.86 1.78 1.73 2.65 2.61l3.8-.2c-1.56-.82-3.19-1.5-4.8-2.2.19-2.4.39-4.79.65-7.18-2.44 1.62-2.68 4.27-2.3 6.97m-7.9 5.43c1.94 2.16 4.46 3.68 6.59 5.63 1.12 1.33 1.47 3.77 3.68 3.59-.15-1.67-.44-3.32-.68-4.98-3.04-1.76-5.99-3.85-9.59-4.24m13.86.19c-1.15-.18-2.87 1.64-1.12 2.19 1.96 1.14 4.07-2.49 1.12-2.19m3.69 7.06c3.55 2.31 8.41.11 11.84 2.86 1.84 1.96 2.75 4.57 3.74 7.02 1.22.15 2.45.29 3.68.41-.35-.48-1.06-1.45-1.42-1.93-.84-2.99-1.89-6.63-5.08-7.85-4.03-1.58-8.62-1.83-12.76-.51m25.59 1.99c.28 3.27 2.99-1.6 0 0m6.35 6.98c-3.4 1.44-7.52 3.03-8.46 7.05 4.44-4.09 9.86-6.83 15.8-7.94-2.48-.48-5.04-.13-7.34.89m-2.81 9.98c2.92-1.18 4.8-3.89 7.52-5.38 1.72-.99 3.52-1.84 5.22-2.86-5.48-.24-10.23 3.64-12.74 8.24m-1.66 6.14c2.3-1.22 4.41-2.77 6.71-4 3.47-2 8.3-2.33 9.82-6.64-6.13 2.22-13.43 4.28-16.53 10.64m-10.22-1.99c.6.48.6.48 0 0m2.69-.81c-.73 2.31-1.44 4.64-1.8 7.04 2.17-1.77 4.08-4.54 1.8-7.04m-25.1 35.58c1.29.09 2.57.15 3.86.19 3.25-2.27 6.83-4.04 10-6.41.26-.76.78-2.27 1.04-3.02-4.94 3.1-10.61 5.2-14.9 9.24m45.48 12.53c2.79-.39 3.36-3.29 3.37-5.63-1.89 1.3-2.5 3.64-3.37 5.63z"/><path d="M190.74 42.08c2.31-4.21 5.27-8.71 10.32-9.77 10.8 2.53 15.97 13.7 18.14 23.59 1.54 8.99 2.04 19.16-3.16 27.13-2.35 3.97-7.34 3.81-11.36 4.03-5.23-.75-8.55-5.64-10.81-9.98-1.51-2.68-2-6.06-4.59-8 .31-.29.93-.89 1.24-1.18 3.7-.99 7.3-2.37 11.04-3.22.94-2.44.1-4.84-.95-7.07-4.25.98-8.37 2.41-12.53 3.68 1.11-6.37 0-13.13 2.66-19.21m10.71-6.85c-.1.39-.3 1.15-.4 1.54 9.36 7.7 12.45 20.51 12.29 32.16-.03 5.83-2.04 11.29-4.27 16.58 1.7-1.16 3.48-2.49 4.07-4.58 3.42-9.31 2.31-19.59-.27-28.97-1.98-6.49-5.21-13.35-11.42-16.73z"/><path d="M169.15 69.1c9.66-2.68 19.07-6.19 28.73-8.86 1.85-1.26 4.44 1.99 2.05 2.8-10.27 3.51-20.82 6.17-31.13 9.58.11-1.17.23-2.35.35-3.52zM135.88 84.46c5.9-1.3 11.62-3.28 17.38-5.07.33 1.13.72 2.24 1.17 3.34 2.09.75 4.41.3 6.59.45.5 2.78.9 5.61.49 8.44-4.92-2.86-10.71-3.76-16.3-2.9-2.93-1.78-6.05-3.25-9.33-4.26zM18.05 115.07c6.92-1.78 13.63-4.35 20.57-6.03.27.61.81 1.84 1.08 2.45-3.16 1.99-7 2.49-10.5 3.67-4.44 1.13-8.63 3.05-13.03 4.34.38-1.57-.34-4.1 1.88-4.43zM193.52 149.04c-.39-4.43 3.47-8.48 7.51-9.57 3.91 1.52 7.63 3.49 11.44 5.24 4.94 2 8.03 6.57 12.06 9.83 2.18 1.7 2.82 4.85 1.83 7.36-2.57 4.47-5.39 8.75-8.67 12.72-2.7 5.37-7.16 9.46-10.44 14.43 2.72 1.59 4.72 4.04 6.15 6.82 1.84 3.47 5.25 5.52 8.56 7.36-.39 1.76-.58 3.57-1.22 5.27-1.5.53-3.07.86-4.61 1.26-3.48-2.22-7.04-4.41-11-5.66.48-1.19.97-2.38 1.46-3.57-2.06-1.6-4.43-2.89-7.03-3.24-2.47-.33-5.14.36-7.34-1.08 2.57-2.7 6.27-4.55 7.74-8.16.94-2.07 1.86-4.16 2.86-6.21 1.39-2.73.09-6.31 2.27-8.73 2.33-2.6 4.59-5.26 6.92-7.86 1.8.55 3.52 1.31 5.27 2.01.67-.6 1.35-1.19 2.02-1.78-2.73-.51-5.23-1.72-7.51-3.27-6.24 1.3-12.36-.97-18.27-2.72-.1-3.48-.09-6.97 0-10.45m8.41 3.9c1.2 2.08 2.18 5.11 5.11 5-1.14-2.18-2.92-3.9-5.11-5m8.97.18c1.37 3.28 3.63 6.24 6.66 8.15 2.12.93 4.5.28 6.73.16.06-.9.13-1.8.19-2.7-1.84.23-3.69.51-5.55.46-3.01-1.55-5.17-4.29-8.03-6.07m-4.06 26.98c-.09.3-.28.92-.37 1.23l1.79.04c1.86-1.92 3.65-3.96 4.78-6.41-2.61.96-4.16 3.39-6.2 5.14zM173.17 148.21c4.36-2.79 8.87-5.47 13.88-6.92 4.38-.54 4.22 4.68 4.32 7.68-.47 3.99.12 8.62-2.25 12.06-5.51 3.74-10.91 7.65-16.23 11.66-1.24-2.17-2.63-4.26-4.21-6.2 1.46-2.08 3.07-4.06 4.37-6.25 1.24-2.41 1.77-5.2 3.58-7.3 2.65-3.4 7.38-3.95 10.22-7.14-4.72-.04-9.06 2.63-12.08 6.1-2.97 3.38-2.86 8.15-4.47 12.16-1.06-1.4-3.74-2.33-2.97-4.48.99-4.09 1.78-9.16 5.84-11.37z"/><path d="M189.24 164.26c1.33-.8 2.28-2.04 3.31-3.16 5.28 2.23 11.02 3.19 16.71 3.54-2.55 3.14-6.54 5.65-7.35 9.86-.56 6.46-3.14 13.2-8.47 17.21-2.1 1.38-2.59 3.85-2.87 6.17.97-.06 2.9-.19 3.87-.25-3.66 2.95-7.8 5.28-12.08 7.21-2.78-2.97-4.99-6.4-7.01-9.91.36-.74.76-1.46 1.19-2.16.23-2.45 1.11-5.08-.22-7.38-1.79-3.46-2.52-7.28-2.67-11.15 5.09-3.49 10.4-6.65 15.59-9.98z"/><path d="M173.27 196.56c3.95 3.89 5.24 10.27 10.58 12.61 1.59 1.1 3.25 2.09 5.08 2.72-1.09-2.21-2.89-3.91-4.77-5.47 3.7-2.02 7.31-4.18 10.83-6.51 2.24-1.65 5.02-.04 7.25.86.2 2.19.53 4.37.92 6.54-1.45.69-2.88 1.44-4.17 2.42-6 4.45-12.38 8.35-18.52 12.61-5.7 4-11.88 7.49-16.47 12.83-1.13-3.25-2.96-6.72-1.79-10.22 2.37-2.99 5.58-5.18 8.31-7.82-1.41-1.17-2.82-2.35-4.21-3.53 1.02-2.46 1.87-4.99 2.67-7.53 1.91 3.16 4.05 6.19 6.56 8.91.48-.79.96-1.58 1.44-2.36-2.3-2.56-4.48-5.23-6.76-7.81 1.13-2.71 1.95-5.53 3.05-8.25z"/><path d="M165.15 215.94l1.75 1.48c-1.02.94-2.04 1.87-3.08 2.79.42-1.43.87-2.85 1.33-4.27z"/></g><g fill="#333"><path d="M191.15 37.14c2.67-4.71 8.72-6.43 13.76-5.66 8.29 3.57 12.62 12.19 15.16 20.37 4.86-1.88 9.84-3.56 14.95-4.57 1.84 1.38 2.15 3.83 2.78 5.9-3.12 1.15-6.32 2.06-9.43 3.22-.79-.44-1.57-.89-2.35-1.35 3.57-1.05 7.27-1.87 10.55-3.7-.68-.5-2.03-1.51-2.7-2.01-4.55.95-8.84 2.89-13.45 3.58.15 1.07.46 3.21.62 4.28 1.93-1.2 3.99-2.19 5.89-.37-1.9.53-3.82 1.02-5.59 1.9 1.37 8.79.97 18.71-4.14 26.32-2.55 4.21-7.87 4.1-12.19 4.43-4.68-.42-8.04-4.36-10.61-7.94-2.92-3.92-4.01-8.75-6.09-13.08-5.2 2-10.6 3.42-15.91 5.08.99 4.9 1.53 9.96 3.56 14.58 3.09 7.5 4.91 15.9 2.96 23.92-2.59.84-5.52.75-7.9 2.04l-.48.51c-1.15.56-1.6-.01-1.34-1.71-3.8-1.18-7.8-1.51-11.76-1.72 1.21 3.2 3.11 6.05 5.13 8.79-.16.7-.47 2.1-.63 2.8 2.94.2 6.2-.26 8.81 1.4 1.73 1.16 1.76 3.38 1.96 5.22 7.1 1.17 14.34 2.1 21.22 4.35 1.94.52 2.83 2.42 3.46 4.15 2.4-.91 6.01-2.39 7.25.98 5.62 2.63 11.76 4.7 16.12 9.34 3.07 3.39 8.1 5.77 8.53 10.85.22 4.17-3.12 7.05-4.92 10.45-1.72 3.43-4.84 5.86-6.66 9.23-2.27 3.99-5.52 7.26-8.68 10.54 4.22 1.14 5.63 5.53 8.37 8.39 2.14 2.26 5.91 2.74 7.27 5.77-.12 2.09-.56 4.17-1.23 6.16-1.63 1.32-3.65 1.99-5.54 2.83-4.35-1.69-8.13-4.46-12.15-6.77-1.01 4.25-5.46 5.94-8.45 8.59-11.07 6.97-21.85 14.42-32.06 22.59 1.75 3.02 1.93 6.9 4.58 9.37 2.54 2.6 6.74 3.22 8.42 6.72-3.26-1.33-6.69-2.54-9.33-4.95-5.25-4.56-7.21-11.55-9.16-17.97-2.12-6.03 2.21-11.47 4.32-16.81 2.44-4.88 3.25-10.39 5.81-15.21 1.85-3.43 5.49-6.61 4.17-10.91-1.54-3.92-3.99-7.68-3.81-12.07.28-3.95-2.09-7.6-5.23-9.77-3.99-2.48-8.68.4-11.75 3.09-1.72 1.93-3.82 4.06-4.17 6.7 1.17 3.19 3.47 5.76 5.56 8.37 2.35 2.88 3.86 6.32 5.49 9.63-3.12 1.59-5.1 4.59-6.46 7.7-2.12 4.82-4.19 9.9-3.91 15.27.22 6.56-1.51 12.96-3.6 19.11-.99 2.92-2.5 5.81-2.49 8.95 3.68 3.16 8.3 6.21 13.12 6.78-1.9-5.3-2.95-10.88-3.52-16.48 2.44 1.52 2.49 4.56 3.18 7.05.76 3.77 2.02 7.76.69 11.56 1.03 4.14 6.16 5.33 9.93 5.54 4.74.88 8.9-2.16 12.35-4.99-2.2 6.93-10.83 9.65-17.25 7.51-4.69-2.08-7.93-6.18-11.61-9.58-2.83-2.57-7.55-3.29-8.85-7.34-.35-3.92 2.05-7.36 3.24-10.97 3.21-8 1.56-16.78 3.06-25.09-5.46-3.04-10.51-6.75-15.82-10.03-6.24-4.34-13.07-7.7-19.42-11.85-1.17-.71-2-1.81-2.87-2.83 3.92 1.48 7.39 3.86 11.09 5.78 9.72 4.95 19.33 10.26 28.02 16.88 1.2-2.74 2.06-5.64 3.66-8.19-4.4-2.35-8.72-4.84-13.12-7.21-5.96-2.91-11.18-7.06-16.83-10.49.26-.86.53-1.7.85-2.53 6.46 5.04 14.25 8.04 20.92 12.81 2.71 1.54 4.93 4.34 8.24 4.48l.4 2.1c1.5-1.8 3.22-3.59 3.86-5.9-1.39-5.79-6.63-9.56-8.81-15.02-.34 1.15-.67 2.3-1 3.45-.42-.11-1.25-.34-1.67-.45 2.64-8.74 9.36-18.63 19.65-17.9.17-4.44.8-9.49 4.27-12.65 5.23-4.3 11.09-7.95 17.6-9.96 2.73-.08 4.92 1.84 6.56 3.81 1.05-1.42 2.15-2.78 3.27-4.14-7.35-4.02-15.54-6.14-23.82-7.1-3.38 0-1.32-5.42-4.09-6.2-4.71-.9-9.85-1.34-14.36.65-3.22 1.33-5.11 4.51-8.2 6.04-3.07 1.62-6.16 3.37-8.17 6.3-.43 2.38-1.25 4.67-1.63 7.06 1.73 3.2 3.15 6.56 4.87 9.78-2.39 6.52 1.37 13.21 3.59 19.28-4.07-1.81-4.36-6.74-7.52-9.41-4.32-4.1-8.19-8.66-11.73-13.45-3.25-4.35-7.75-7.53-11.25-11.65-1.7 3.42.84 6.98 1.01 10.48.28 5.26 1.21 10.43 2.03 15.63 3.57-2.34 7-5.1 11.15-6.37-1.05 2.34-2.94 4.13-5.16 5.34-2.43 1.31-4.76 3.33-7.7 2.99-1.78-9.39-2.83-18.88-3.77-28.38.4-.01 1.18-.04 1.57-.05-2.37-3.51-6.59-6.11-7.07-10.63 5.3 3.55 9.7 8.22 13.98 12.91 6.4 6.72 12.22 13.97 18.12 21.14-.2-2.5-.31-5-.08-7.5-2.06-3.28-2.39-7.33-4.81-10.45.72-1.21 1.45-2.41 2.17-3.61-.98-.53-1.96-1.06-2.93-1.59.33.14 1.01.41 1.34.54 1.34-3.24 3.52-6.24 6.74-7.81 6.39-3.33 11.83-9.17 19.41-9.6-1.38-4.48-3.27-9.24-7.4-11.81-.06-.85.05-1.68.34-2.5 5.37 1.5 10.98 1.21 16.41 2.3 2.25.16 4.88.72 6.86-.67 1.3-4.46.2-9.23-.26-13.75-2.46-6.94-5.93-13.51-7.25-20.83-.95-1.46-1.17-3.2-1.67-4.83-.96-1.07-1.88-2.18-2.8-3.28-3.5.67-6.94 1.73-9.87 3.83-.78.12-2.33.35-3.1.47 3.84-5.81 11.9-6.85 18.07-4.7 6.02-1.29 11.67-3.89 17.7-5.17-1.08-8.21-.63-17.12 3.56-24.45m-.41 4.94c-2.66 6.08-1.55 12.84-2.66 19.21 4.16-1.27 8.28-2.7 12.53-3.68 1.05 2.23 1.89 4.63.95 7.07-3.74.85-7.34 2.23-11.04 3.22-.31.29-.93.89-1.24 1.18 2.59 1.94 3.08 5.32 4.59 8 2.26 4.34 5.58 9.23 10.81 9.98 4.02-.22 9.01-.06 11.36-4.03 5.2-7.97 4.7-18.14 3.16-27.13-2.17-9.89-7.34-21.06-18.14-23.59-5.05 1.06-8.01 5.56-10.32 9.77M169.15 69.1c-.12 1.17-.24 2.35-.35 3.52 10.31-3.41 20.86-6.07 31.13-9.58 2.39-.81-.2-4.06-2.05-2.8-9.66 2.67-19.07 6.18-28.73 8.86m24.37 79.94c-.09 3.48-.1 6.97 0 10.45 5.91 1.75 12.03 4.02 18.27 2.72 2.28 1.55 4.78 2.76 7.51 3.27-.67.59-1.35 1.18-2.02 1.78-1.75-.7-3.47-1.46-5.27-2.01-2.33 2.6-4.59 5.26-6.92 7.86-2.18 2.42-.88 6-2.27 8.73-1 2.05-1.92 4.14-2.86 6.21-1.47 3.61-5.17 5.46-7.74 8.16 2.2 1.44 4.87.75 7.34 1.08 2.6.35 4.97 1.64 7.03 3.24-.49 1.19-.98 2.38-1.46 3.57 3.96 1.25 7.52 3.44 11 5.66 1.54-.4 3.11-.73 4.61-1.26.64-1.7.83-3.51 1.22-5.27-3.31-1.84-6.72-3.89-8.56-7.36-1.43-2.78-3.43-5.23-6.15-6.82 3.28-4.97 7.74-9.06 10.44-14.43 3.28-3.97 6.1-8.25 8.67-12.72.99-2.51.35-5.66-1.83-7.36-4.03-3.26-7.12-7.83-12.06-9.83-3.81-1.75-7.53-3.72-11.44-5.24-4.04 1.09-7.9 5.14-7.51 9.57m-20.35-.83c-4.06 2.21-4.85 7.28-5.84 11.37-.77 2.15 1.91 3.08 2.97 4.48 1.61-4.01 1.5-8.78 4.47-12.16 3.02-3.47 7.36-6.14 12.08-6.1-2.84 3.19-7.57 3.74-10.22 7.14-1.81 2.1-2.34 4.89-3.58 7.3-1.3 2.19-2.91 4.17-4.37 6.25 1.58 1.94 2.97 4.03 4.21 6.2 5.32-4.01 10.72-7.92 16.23-11.66 2.37-3.44 1.78-8.07 2.25-12.06-.1-3 .06-8.22-4.32-7.68-5.01 1.45-9.52 4.13-13.88 6.92m16.07 16.05c-5.19 3.33-10.5 6.49-15.59 9.98.15 3.87.88 7.69 2.67 11.15 1.33 2.3.45 4.93.22 7.38-.43.7-.83 1.42-1.19 2.16 2.02 3.51 4.23 6.94 7.01 9.91 4.28-1.93 8.42-4.26 12.08-7.21-.97.06-2.9.19-3.87.25.28-2.32.77-4.79 2.87-6.17 5.33-4.01 7.91-10.75 8.47-17.21.81-4.21 4.8-6.72 7.35-9.86-5.69-.35-11.43-1.31-16.71-3.54-1.03 1.12-1.98 2.36-3.31 3.16m-15.97 32.3c-1.1 2.72-1.92 5.54-3.05 8.25 2.28 2.58 4.46 5.25 6.76 7.81-.48.78-.96 1.57-1.44 2.36-2.51-2.72-4.65-5.75-6.56-8.91-.8 2.54-1.65 5.07-2.67 7.53 1.39 1.18 2.8 2.36 4.21 3.53-2.73 2.64-5.94 4.83-8.31 7.82-1.17 3.5.66 6.97 1.79 10.22 4.59-5.34 10.77-8.83 16.47-12.83 6.14-4.26 12.52-8.16 18.52-12.61 1.29-.98 2.72-1.73 4.17-2.42-.39-2.17-.72-4.35-.92-6.54-2.23-.9-5.01-2.51-7.25-.86-3.52 2.33-7.13 4.49-10.83 6.51 1.88 1.56 3.68 3.26 4.77 5.47-1.83-.63-3.49-1.62-5.08-2.72-5.34-2.34-6.63-8.72-10.58-12.61m-8.12 19.38c-.46 1.42-.91 2.84-1.33 4.27 1.04-.92 2.06-1.85 3.08-2.79l-1.75-1.48z"/><path d="M201.45 35.23c6.21 3.38 9.44 10.24 11.42 16.73 2.58 9.38 3.69 19.66.27 28.97-.59 2.09-2.37 3.42-4.07 4.58 2.23-5.29 4.24-10.75 4.27-16.58.16-11.65-2.93-24.46-12.29-32.16.1-.39.3-1.15.4-1.54zM83.5 82.9c-1.84-7.64 3.07-17.29 11.46-17.97 5.87-.95 10.82 2.71 15.62 5.44 4 3.06 3.37 8.58 4.08 13.01-5.65-1.65-2.37-9.41-7.32-11.69-4.26-2.15-8.61-6.23-13.73-4.25-5.03 1.41-7.52 6.75-8.02 11.57-.53 2.41 1.67 4.44 1.26 6.8-1.8.94-2.47-1.87-3.35-2.91zM139.08 76.2c4.89-1.56 9.95-2.62 14.62-4.8l-1.55 1.52c.78-.6 1.65-.87 2.6-.82.15.28.46.83.61 1.1-13.28 4.37-26.69 8.32-40.06 12.42-.79-.51-1.57-1.04-2.35-1.56 8.7-2.65 17.49-5.02 26.13-7.86z"/><path d="M152.95 77.47c1.76-.26 2.12-2.1 2.83-3.42-.02 1.93-.09 3.88.2 5.8 1.77 1.65 4.44 1.33 6.65 1.91.46 1.72 1.12 3.43 1.07 5.24-.24 5.64.09 11.33-1.39 16.84-.97-.09-1.93-.19-2.9-.28.83-2.12 1.69-4.22 2.5-6.34-.5-1.37-.99-2.74-1.48-4.12-4.83-3.04-10.79-2.84-16.24-2.24-3.45-1.72-6.43-4.6-10.35-5.28-11.66 3.22-23.24 6.9-34.8 10.55.94 4.04-2.18 7.44-5.95 8.31-.61 1.17-1.22 2.33-1.83 3.5 2.89-.89 5.87-1.4 8.84-1.97.21-.48.64-1.43.85-1.9 1.07.14 2.15.29 3.22.44-1.4 1.28-2.82 2.53-4.26 3.77-2.97-.01-5.82.88-8.71 1.47.31 3.63.18 7.61 2.46 10.68 1.92 2.55 1.91 5.86 2 8.9l-1.8.16c-3.98-7.23-5.08-15.52-5.83-23.63 1.87-2.26 3.57-5.13 6.91-5.1.39-1.17.79-2.33 1.22-3.49-.05-1.76 0-3.52-.15-5.27-1.05-1.65-3.08-2.1-4.71-2.93-4.03 1.81-9.64 1.03-12.32 5.05 1.29-.14 2.59-.28 3.88-.43-.6.77-1.21 1.54-1.81 2.32-7.34 2.14-14.56 4.72-22 6.46.16.83.49 2.5.65 3.33 6.57-2.17 13.22-4.09 19.85-6.06 1.51-.59 3.06-.05 4.56.28-1.13.56-2.26 1.12-3.4 1.66-.28 1.66-.58 3.33-.93 4.98 1.7 4.9-1.59 9.51-1.93 14.37-1.03 3.21 1 6.11 1.81 9.11.76 2.43.51 5 .57 7.5l.88-.12c.25 1.61.55 3.2.84 4.81 2.33-.29 4.66-.55 6.98-.91 2.4-3.14 5.96-5.53 7.22-9.44.14-4.18.31-8.38.28-12.56.35-.5 1.04-1.49 1.39-1.98.24.6.73 1.8.98 2.4 4.99 3.74 11.54 4.29 16.37 8.22 3.2 1.11 7.12.57 9.63 3.23 2.55 2.96 5.09 5.93 7.68 8.86-.24 1.59-.49 3.17-.74 4.76-1.05-1.33-1.88-2.81-2.6-4.34-2.44-2.18-4.61-4.64-6.78-7.09-3.21-3.42-8.71-1.65-12.16-4.67-2.22-1.86-5.01-2.75-7.66-3.82 2.13 8.81 1.15 17.99 2.48 26.91.87 5.34 1.28 10.73 1.97 16.09.16 1.64.54 3.94-1.43 4.66-7.7 4.35-15.36 8.85-23.38 12.6.45 2.42.19 5.14 1.43 7.33 1.58 1.27 3.18 3.23 5.29 3.32 3.15-1.46 6-3.48 9.07-5.09 3.78-1.91 6.94-5.01 11.19-5.9-5.36 6.51-13.47 9.64-20.5 13.93-3.13-1.38-6.24-3.31-7.91-6.4-.41-2.85-.23-5.75-.47-8.62 7.91-4.65 16.18-8.66 24.3-12.92-.29-6.96-1.21-13.9-1.27-20.88-1.72-7.54-.22-15.49-2.22-22.94-.6-1.8-1.28-3.58-2.35-5.16-.66 4.04-.45 8.14-.66 12.21-1.74 3.38-4.23 6.55-7.39 8.7-3.28 1.11-6.84 1.11-10.26 1.41-.91-3.45-2.87-6.64-2.87-10.29.1-3.86-2.06-7.22-2.69-10.92.04-4.12 1.29-8.08 2.09-12.08.66-2.98-.61-6.16 1-8.98-1.15.61-3.46 1.84-4.62 2.45l-1.01-.36c-4.08 1.28-8.11 2.73-12.28 3.7 1.13 8.81 1.2 18.68-4.04 26.29-2.84 4.5-8.91 4.57-13.62 4.45-8.46-3.03-12.62-12.25-14.6-20.41 2.57 1.46 2.96 4.54 4.23 6.94 2.15 4.78 5.53 9.8 10.87 11.21 4.45-.12 10.11-.22 12.39-4.83 4.11-7.68 4.36-16.96 2.91-25.4-1.7-6.6-3.87-13.45-8.56-18.58-2.17-2.52-5.35-3.71-8.28-5.06-3.3 1.15-7.43 1.25-9.5 4.51-5.21 6.72-3.78 15.59-5.04 23.44 4.06-1.15 8.09-2.4 12.11-3.7 1.11 1.96 2.41 4.05 2.2 6.4-2.68 2.11-6.37 2.35-9.52 3.54-5.3 1.35-10.29 3.68-15.6 4.95-.83-1.21-1.66-2.42-2.5-3.62.96-1.76 2.02-3.45 3.17-5.08l3.59-.27c2-.75 4.06-1.31 6.12-1.86-1.25-7.12-.74-14.63 2.05-21.34 1.33-2.67 3.03-5.62 6-6.67 3.3-.98 6.81-2.82 10.22-1.1 7.82 3.15 11.67 11.68 14 19.26 6.14-2.27 12.56-3.72 18.71-5.98.33-1.18.48-2.41.86-3.57 3.45-2.6 7.83-3.18 11.76-4.73 2.64-.26 4.89 1.41 7.1 2.59 4.83-1.58 9.69-3.06 14.51-4.67.83.47 1.65.96 2.47 1.46-5.66 1.69-11.26 3.73-17.09 4.8.43.72 1.28 2.17 1.7 2.89 2.18-.06 4.21-1.03 6.3-1.58 16.01-4.81 31.96-9.81 47.98-14.57m-17.07 6.99c3.28 1.01 6.4 2.48 9.33 4.26 5.59-.86 11.38.04 16.3 2.9.41-2.83.01-5.66-.49-8.44-2.18-.15-4.5.3-6.59-.45-.45-1.1-.84-2.21-1.17-3.34-5.76 1.79-11.48 3.77-17.38 5.07M18.05 115.07c-2.22.33-1.5 2.86-1.88 4.43 4.4-1.29 8.59-3.21 13.03-4.34 3.5-1.18 7.34-1.68 10.5-3.67-.27-.61-.81-1.84-1.08-2.45-6.94 1.68-13.65 4.25-20.57 6.03z"/><path d="M100.05 84.77c1.17-3.46 3-6.8 5.72-9.29-1.46 3.19-2.27 7.79-5.72 9.29zM39.11 84.52c3.3.15 5.32 2.95 7.06 5.37 6.68 9.55 8.49 21.77 7.36 33.17-.59 4.23-1.39 9.29-5.56 11.51 6.26-13.33 5.25-29.54-2.32-42.11-1.82-2.94-4.56-5.13-6.54-7.94zM107.76 99.44c8.26-2.96 15.4-8.58 24.2-10.09-.25 1.89-2.39 2.18-3.83 2.8-4.09 1.39-8.65 2.66-11.03 6.6-3.08.59-6.21.94-9.34.69zM132.44 94.39c4.44.6 9.25 2.68 10.28 7.51 2.82 2.8 1.78 6.99 2.27 10.54 2.12 1.92 4.66 3.97 4.28 7.2-2.19-2.08-4.68-3.93-6.47-6.38-.54-2.67-.47-5.42-.97-8.1-1.03-1.28-1.92-2.66-2.52-4.2-.91-3.43-5.12-3.76-6.87-6.57zM143.4 93.65c5.51 1.95 7.5 8.04 7.88 13.34l1.58-.05c-.76.52-1.54 1.03-2.32 1.52.38.38 1.14 1.15 1.52 1.53.34 1.36.56 2.74.68 4.14-1.58-1.85-2.91-3.89-4.16-5.97.11-2.03.4-4.08.04-6.09-1.19-3.12-3.44-5.64-5.22-8.42zM124.35 106.25c1.29-4.19 3.47-8.08 5.87-11.73.41 1.74-.25 3.37-1 4.91-.24 2.82.64 6.2-2.03 8.12.42 1.27.83 2.56 1.21 3.85-1.64-1.34-5.09-2.45-4.05-5.15zM115.32 106.48c-.38-2.7-.14-5.35 2.3-6.97-.26 2.39-.46 4.78-.65 7.18 1.61.7 3.24 1.38 4.8 2.2l-3.8.2c-.87-.88-1.76-1.75-2.65-2.61zM107.42 111.91c3.6.39 6.55 2.48 9.59 4.24.24 1.66.53 3.31.68 4.98-2.21.18-2.56-2.26-3.68-3.59-2.13-1.95-4.65-3.47-6.59-5.63zM121.28 112.1c2.95-.3.84 3.33-1.12 2.19-1.75-.55-.03-2.37 1.12-2.19zM124.97 119.16c4.14-1.32 8.73-1.07 12.76.51 3.19 1.22 4.24 4.86 5.08 7.85.36.48 1.07 1.45 1.42 1.93-1.23-.12-2.46-.26-3.68-.41-.99-2.45-1.9-5.06-3.74-7.02-3.43-2.75-8.29-.55-11.84-2.86zM150.56 121.15c2.99-1.6.28 3.27 0 0zM156.91 128.13c2.3-1.02 4.86-1.37 7.34-.89-5.94 1.11-11.36 3.85-15.8 7.94.94-4.02 5.06-5.61 8.46-7.05zM154.1 138.11c2.51-4.6 7.26-8.48 12.74-8.24-1.7 1.02-3.5 1.87-5.22 2.86-2.72 1.49-4.6 4.2-7.52 5.38zM152.44 144.25c3.1-6.36 10.4-8.42 16.53-10.64-1.52 4.31-6.35 4.64-9.82 6.64-2.3 1.23-4.41 2.78-6.71 4zM142.22 142.26c.6.48.6.48 0 0zM144.91 141.45c2.28 2.5.37 5.27-1.8 7.04.36-2.4 1.07-4.73 1.8-7.04zM201.93 152.94c2.19 1.1 3.97 2.82 5.11 5-2.93.11-3.91-2.92-5.11-5zM210.9 153.12c2.86 1.78 5.02 4.52 8.03 6.07 1.86.05 3.71-.23 5.55-.46-.06.9-.13 1.8-.19 2.7-2.23.12-4.61.77-6.73-.16-3.03-1.91-5.29-4.87-6.66-8.15zM119.81 177.03c4.29-4.04 9.96-6.14 14.9-9.24-.26.75-.78 2.26-1.04 3.02-3.17 2.37-6.75 4.14-10 6.41-1.29-.04-2.57-.1-3.86-.19zM206.84 180.1c2.04-1.75 3.59-4.18 6.2-5.14-1.13 2.45-2.92 4.49-4.78 6.41l-1.79-.04c.09-.31.28-.93.37-1.23zM165.29 189.56c.87-1.99 1.48-4.33 3.37-5.63-.01 2.34-.58 5.24-3.37 5.63z"/></g></svg>