<svg width="268pt" height="275pt" viewBox="0 0 268 275" xmlns="http://www.w3.org/2000/svg"><g fill="#FFF"><path d="M0 0h268v275H0V0m140.58 40.06c-2.93.16-3.89 3.86-6.94 3.73-.49 6.27-.95 12.82 1.57 18.75 1.32 2.98 4.07 4.92 6.77 6.55-.04-1.64-.3-3.26-1.77-4.22-5.69-4.55-5.08-12.77-3.78-19.19 1.3 6.51-1.16 15.05 5.86 19.05-1.33-3.87-3.08-7.65-3.28-11.81 1.27.9 3.18 1.39 3.54 3.13 2.44 5.41.88 11.51-.95 16.86-1.56 7.22-4.3 14.1-6.5 21.13-.79 2.18-1.24 4.54-2.57 6.49-2.3 4.04-7.66 3.58-11.68 3.93-6.01-1.23-12.31.11-17.68 2.94-2.37-.76-4.73-1.54-7.18-2-1.01-2.14-1.68-4.45-2.92-6.47-1.29-2.24-3.74-3.3-5.76-4.72.64-5.18-1.98-9.96-5.24-13.76 1.51-4.23 2.47-8.69 2.59-13.19l-.72-.41-.79-.05-.62.34c-.91 4.08-1.03 8.34-2.68 12.24-.33-1.5-.59-3.02-.76-4.54-.32-.42-.95-1.24-1.27-1.65.61.47 1.83 1.43 2.43 1.91.39-3.01.43-6.06.17-9.08-1.2 1.18-2.23 2.5-3.29 3.79.43-1.11.82-2.24 1.3-3.34.4-.1 1.21-.28 1.62-.37 1.32-3.25-.46-6.69-3.33-8.41l.8 4.28c-2.57-.27-5.11-.73-7.62-1.36 1.76 3.23 5.39 2.61 8.37 1.56-.62 2.36-1.88 4.46-2.71 6.74.3 4.53 1.69 9.17 4.84 12.55 2.85 3.18 4.9 7.08 5.53 11.33-.64.17-1.92.5-2.57.67-1.78-2.21-3.9-4.59-7.02-4.56 1.26 1.35 2.7 2.5 4.06 3.73 2.01 1.72 2.41 4.52 3.37 6.84-2.22-1.15-4.46-2.29-6.83-3.1.92 3.31 5.05 3.38 7.63 4.79-.04-1.03-.1-3.11-.13-4.14.48-.46.96-.9 1.45-1.35 1.65 1.14 3.5 1.98 5.05 3.27 1.83 2.47 2.46 5.57 4.01 8.21 1.56 2.69 3.16 5.47 3.3 8.68-1.89-1.22-3.79-2.42-5.75-3.54-1.14-3.99-2.18-9.07-6.4-10.89 2.39 5.01 4.22 10.21 5.92 15.48.47-.46 1.42-1.37 1.89-1.83 2.3 1.7 4.4 3.77 4.73 6.78-1.97-1.26-3.84-2.66-5.82-3.88.74 3.52 3.9 5.84 7.52 5.17l-1.93-1.11c.78-.6 1.58-1.18 2.38-1.76-.86-4.39-1.45-8.85-3.09-13.04 2.13.93 4.27 1.87 6.39 2.83 3.21-.24 6.65-1.05 9.75.13-2.54 3.17-6.24 5.78-8.22 9.61 4.5-1.32 5.81-6.4 9.51-8.85 2.45-.76 5.25-.69 7.34-2.38-2.1-.02-4.24.74-6.31.32l-.47-.39c-.64-.16-1.91-.46-2.55-.62-2.27.45-4.58.45-6.87.16 7.79-3.82 16.65-1.49 24.86-3.28 1.27-1.96 2.79-3.74 4.39-5.43.57 3.42-1.09 8 2.85 9.92-.77-5.7-.98-11.8 1.62-17.08 2.22-2.66 4.67-5.16 6.27-8.29-.81.2-2.41.59-3.22.79.34-6.24 1.09-12.47 2.48-18.57.86-3.91.12-7.89-1.3-11.56 1.23-1.17 2.66-2.13 3.81-3.4-2.9.04-6.61 2.91-8.77-.16.22-2.27.91-4.46 1.52-6.65-1.1-.33-2.2-.68-3.29-1.03 4.26-1.07 8.16-3.39 12.52-4.03 4.2-.61 2.25 6.11 6.38 5.4.54 2.06 1.1 4.11 1.82 6.12-.61 4.77-1.12 9.65-3.14 14.09.38-4.54.82-9.11-1.4-13.28.94-1.59 1.81-3.23 2.46-4.96-2.22 1.61-3.18 5.25-6.38 4.99.53.19 1.58.56 2.1.74 3 5.69 2.5 12.53 3.3 18.78-.14 5.12.46 11.11-3.1 15.27.43 5.96-1.98 11.58-2.4 17.47-.01 5.04-5.31 7.68-5.86 12.5 2.01-1.88 3.84-3.95 5.54-6.12 2.79-4.03 2.84-9.07 3.44-13.74 1.17-5 1.59-10.16 3.45-14.98 1.89-5 .67-10.34.15-15.45 1.09-2.28 2.88-4.34 2.92-6.99.46-6.05.99-12.35-.89-18.22-2.98-.73-5.46-2.69-8.38-3.54-3.34.05-6.11 2.45-9.44 2.73m6.15 5.34c-.75-.05-2.26-.13-3.02-.17-.19 1.62-.33 3.24-.49 4.86.44-.74.89-1.48 1.33-2.22 2.07-.6 3.86-1.77 5.11-3.54-.73.26-2.2.8-2.93 1.07M60.97 56.02c-.61 2.02-1.04 4.12-3.14 5.15-.6 6.02-.43 12.17 1.77 17.88.69 2.88 3.46 4.31 5.52 6.13.55.02 1.65.07 2.2.09 1.19 4.19 4.64 7.3 5.33 11.66.48 2.05 2.27 3.37 3.3 5.12 2.62 6.77 4 14.4 8.99 19.98 1.55 1.83 3.31 3.81 5.88 4.01.03-1.09-.35-1.98-1.13-2.68-3.08-3.22-6.58-6.36-8.04-10.71-1.16-3.63-2.94-7.03-3.94-10.72-.79-2.57-3.47-4.15-3.75-6.96-.53-3.72-3.69-6.26-4.5-9.89-1.81-4.67-.93-9.88-2.87-14.5 1.83-.47 3.67-.94 5.48-1.48-2.13-1.87-5.61-.75-7.12-3.41-.53.34-1.07.66-1.61.98-.07-1.86-.01-3.72.13-5.57.14 1.98.45 4.26 2.88 4.45-.18-2.97-.7-6.51-4.23-7.2l.08-1.04c.59.05 1.77.14 2.36.19l-.28-.99c2.27-.79 4.54-1.58 6.78-2.46 1.66.22 3.32.45 4.99.66.66 1.02 1.33 2.04 2.01 3.06 3.81.63 2.41 5.4 4.14 7.92.43-.18 1.27-.56 1.7-.74 1.62-3.03-.73-6.47-2.11-9.22-1.82-.31-3.61-.84-4.95-2.19-5.32-2.57-10.99.22-15.87 2.48M148 89.14c.34-.02 1.03-.08 1.37-.1-.03-2.65-.43-5.3-.2-7.95.77-2.58 2.65-4.71 3.24-7.39-4.64 3.53-7.13 10.2-4.41 15.44m-57.41 4.59c1.77-.69 3.48-1.54 5.32-2.06 2.27-.05 4.48.62 6.72.94.26.42.78 1.25 1.03 1.66-1.93 1.53-3.66 4.09-2.5 6.6 1.39-2.44 2.21-5.17 3.69-7.56 4.15.9 5.43 4.92 7.12 8.23.23-2.88-.09-6.93-3.33-7.99-3.75-1.4-7.51-2.96-11.51-3.42-2.59-.28-5.97.68-6.54 3.6m52.82 9.92c-1.84 1.77-3.45 3.79-4.28 6.24 1.88-1.57 3.46-3.47 5.04-5.33.09-.59.29-1.76.38-2.35 1.63-2.72 2.74-5.73 3.63-8.76.6-1.15.02-2.29-.54-3.3-1.84 4.26-3.23 8.9-4.23 13.5m-9.43 2.51c.58.68.58.68 0 0m-11.18 1.65c2.52.62 5.12.58 7.7.48l-.18 1.91c.17-.6.52-1.8.7-2.4 2.64 2.26 5.77 3.75 8.73 5.49 1.81 2.96 3.16 6.26 3.26 9.78.19 4.12 3.25 7.19 4.58 10.93-4.08.73-8.25 1.18-12.14 2.67-3.46 1.13-6.11 3.74-8.84 6.03-2.39 2.05-5.05 4.26-5.47 7.63 1.19-1.03 2.28-2.16 3.37-3.28 1.01.49 1.9 1.18 2.88 1.72-1.19 3.06-2.62 6.04-4.51 8.74.43-2.16 1.29-4.2 1.97-6.28-.88.02-1.73.28-2.21 1.07-.64-.05-1.47-1.98-1.78-.39-.08 1.69.07 3.37.47 5.03-6.55-5.8-13.55-11.12-19.73-17.32 2.81.98 6.09 1.29 8.4 3.37 3.06 2.69 6.67 4.71 9.4 7.78.52-.75.95-1.55 1.29-2.41-2.53-2.23-5.59-3.73-8.16-5.9-4.18-4.13-10.7-4.11-15.13-7.86-2.22-1.88-3.71-5.14-7.02-5.12-1.31-.82-2.62-1.63-3.95-2.41 4.1 13.13 8.43 26.18 12.54 39.3-5.81 2.41-11.89 4.19-17.5 7.05-.32 3.23-1.24 7.76 2.78 9.04 7.68-2.65 15.17-5.88 22.87-8.5 5.82-1.7 11.11-4.77 16.94-6.43 1.24 3.7 2.03 7.56 1.39 11.47 1.37 1.05 2.92 1.74 4.66 1.88 2.68 4.41 4.47 9.6 3.39 14.79.22 7.81-4.25 14.66-5.06 22.31.51 6.83 3.33 13.27 3.96 20.09.22 3.27-.7 6.47-.85 9.71 1.24 3.92.86 8.22 2.97 11.87 1.36 2.3.53 5.25 1.97 7.48 4.1 4.51 11.73 5.87 16.82 2.3 1.27-.39 2.66-.52 3.82-1.21.78-1.39.41-3.04.48-4.55-4.4-5.62-8.83-11.27-11.92-17.74-1.64-4.59-1.49-9.52-1.28-14.31 11.26-4 22.34-8.49 33.6-12.5 3.51-.55 3.28-4.56 3.78-7.27-1.92-1.48-4.27-2.6-6.67-2.96-6.19 1.7-12.19 4.03-18.31 5.94.24-9.3.3-18.61.39-27.92 8.08-1.83 16.09-4.03 23.91-6.75 1.88-.47 2.44-2.47 3.34-3.93-.37-1.05-.74-2.1-1.1-3.14 2.84 2.35 5.82 4.71 9.52 5.52-.42 5.77-1.72 11.48-1.25 17.3 1.36 4.85 5 8.88 5.3 14.06 1.49 7.98-3.51 15.39-2.16 23.4 1.62.91 3.21 2.09 5.11 2.33 3.04.33 6.08-.98 9.09-.21 2.15.68 4 2.01 5.96 3.08 3.2-.47 6.57 1.32 9.57-.31 2.59-1.11 5.29-2.37 6.54-5.09-1.99-2.66-4.56-5.04-8.15-4.62-3.03-2.09-5.81-4.52-8.08-7.43-1.65-2.13-4.81-3.17-5.2-6.11-1.84-7.51-.81-15.33-1.69-22.95-1.3-6.6-1.1-13.48.29-20.05-.55-4.5-2.13-9.52-6.05-12.24-2.35-1.28-5.12-1.86-7.1-3.77-4.27-4.03-9.59-6.64-14.79-9.24-5.61-4.4-13.14-3.37-19.75-4.56-1.16-3.41-4.01-6.32-7.86-5.98-1.09-.74-2.16-1.49-3.23-2.24-.6-2.61-2.14-4.75-3.58-6.93-1.28-5.11-1.24-10.76-4.72-15.06-2.31-1.56-5-2.5-7.12-4.33-3.74-.31-7.47-.02-11.2.15m-4.16 10.17c-1.35 3.21-2.35 6.68-1.31 10.15-.6 1.36-1.21 2.72-1.79 4.09.87.55 1.74 1.1 2.61 1.66 2.42.38 5.12.1 7.06 1.92l1.32-.23c-.3.46-.92 1.37-1.22 1.82l-.14.54c.99 1.31 2.61 1.75 4.05 2.37-.44-.56-1.32-1.66-1.76-2.21-.2-2.32 4.41-.98 5.11-3.51-5.32 1.59-10.05-1.56-14.9-3.17.79-1.24 1.53-2.5 2.23-3.79-1.29-3.07-1.14-6.38-.37-9.55 2.81-1.99 7.26-3.23 7.48-7.3-2.91 2.27-5.27 5.16-8.37 7.21m17.5-5.09c-2.36-.86-4.76-1.58-7.19-2.2.77 3.17 4.73 2.45 7.19 2.2m-5.45 2.57c.47 2.25.79 4.53.86 6.84-4.92-.25-8.17 3.77-9.48 8.07 2.16-1.2 3.25-3.47 4.94-5.16 1.98-.77 4.55-.48 6.04-2.24.51-2.25-.12-4.52-.41-6.75-.65-.25-1.3-.5-1.95-.76m-19.46 4.4c-.26.34-.77 1.04-1.03 1.39.67 3.45 4.71-2.23 1.03-1.39m24.63.54c-.54.73-1.07 1.46-1.6 2.19 2.42-.5 4.86-.83 7.29-1.29-1.86-.52-3.78-.73-5.69-.9m-33.33 2.6c1.19.55 2.38 1.09 3.59 1.6-1.28 1.47-2.51 2.98-3.75 4.49 1.89 2.77 3.42 5.78 5.41 8.48 1.11-3.53-1.9-6.16-3.79-8.72.25-.38.74-1.16.99-1.54 1.84.41 3.69.75 5.53 1.13-1.33.93-2.66 1.87-3.89 2.93 4.12-.31 5.3-4.86 8.45-6.85-2.42.03-4.49 1.43-6.67 2.29-.11-1.01-.35-3.03-.46-4.05-1.82-.39-3.66-.53-5.41.24m30.47 1.52c1.04 1.82 2.25 3.58 3.85 4.96-.27-2.31-1.06-4.88-3.85-4.96m-22.77 10.1c1.87.1 3.9.22 5.44-1.05-1.87-.1-3.85-.11-5.44 1.05z"/><path d="M60.73 61.23c1.63 5.08-.51 10.64 1.65 15.61 1.61 2.32 3.97 4.1 4.94 6.85-4.16-1.35-5.93-5.65-6.86-9.55-1.22-4.23-.6-8.68.27-12.91z"/><path d="M63.16 68.25c1.22 3.29 3.08 6.49 2.63 10.15-2.36-2.84-2.05-6.72-2.63-10.15zM91.87 132.93c2.76 2.99 5.88 5.67 8.39 8.86-.01 5.24-.18 10.48-.51 15.71-2.55-8.21-5.48-16.31-7.88-24.57zM136.51 138.35c2.85-.77 5.71-1.53 8.56-2.31 3.21-1 6.25.89 9.12 2.06 2.47.52 2.92 3.27 4.07 5.12 5.09 1.81 10.56 1.49 15.82 2.44-4.19 2.37-7.89 5.87-9.74 10.37-.48 3.97-.77 7.98-1.98 11.83-.82-2.93-3.43-4.49-6.06-5.57-2.32.55-4.65 1.05-7 1.45.17 1.43.34 2.86.5 4.3-3.83-5.38-11.35-5.64-16.96-3.21-2.78 1.27-3.93 4.27-5.61 6.6-1.88-6.22-3.47-13.77.49-19.51.84-1.5 2.01-2.76 3.12-4.06l-.64-2.15c3.65-.95 8.62-1.43 9.84-5.74-3.42 1.34-6.54 3.33-10 4.58-1.46 1.27-3.23 2.06-5.11 2.48 3.5-3.26 6.7-7.48 11.58-8.68m-.06 11.75a47.21 47.21 0 005.54-1.94l-1.52 2.52c4.12-2.03 8.45-3.85 13.03-4.54 1.3-.22 2.25-1.21 3.21-2.01-4.76.66-9.53 1.8-13.65 4.39-.45-.45-.89-.9-1.33-1.35 3.83-1.61 7.59-3.38 11.32-5.2.68-.53 1.36-1.05 2.05-1.57-7.18.58-13.71 4.66-18.65 9.7m20.52 3.22c1.01-2.59 2.08-5.15 3.06-7.74-2.38 1.9-3.12 4.8-3.06 7.74z"/><path d="M101.42 142.64c2.13 1.86 4.23 3.76 6.37 5.62-.12 5.36-.36 10.72-.38 16.09l3.16-.15c-.6-.87-1.43-1.64-1.57-2.74.07-4.07.27-8.15.36-12.22 1.85 1.79 3.85 3.47 5.42 5.54-.95 2.66-1.13 6.59-4.46 7.39.54.42 1.08.84 1.61 1.26-.9 2.59-1.77 5.18-2.54 7.81-8.32 3.45-16.99 6.03-25.24 9.67-1.47-1.91-1.38-4.32-1.35-6.61 6.15-2.45 12.33-4.83 18.45-7.31 1.12-2.56.07-5.31.09-7.95-.13-5.47.03-10.93.08-16.4zM166.74 156.14c1.58-4.31 5.4-7.75 10.05-8.33 6.69 2.12 12.8 5.78 18.17 10.27 3 2.36 7.83 2.72 9.22 6.8.92 2.85 3.28 5.59 2.27 8.74-.88 2.91-1.06 5.91-1.07 8.94-1.3 6.21 1.76 12.24 1.09 18.5-.57 5.3.23 10.55 1.34 15.72 1.55 1.63 3.19 3.15 4.79 4.72 2.42 2.34 3.96 5.53 6.81 7.42 3.03 2.27 7.62 1.44 9.68 5.13-2.12.94-4.08 2.19-6.17 3.17-2.39-.27-4.75-.87-7.17-.74-2.47-1.08-4.82-2.85-7.63-2.78-3.56-.03-7.13.26-10.69.01-1.33-4.88-.21-10.01 1.17-14.75.13-4.38.42-8.83-.4-13.15-1.26-3.58-3.74-6.76-3.78-10.72-1.18-5.09-.24-10.33-1.16-15.45 1.24-.29 2.48-.62 3.7-1.01-.2-1.62-2.26-1.47-3.4-2.09-4.05-.77-6.56-4.39-10.33-5.76-2.92-1.23-6.15-1.1-9.26-1.03-3.39.21-6.44-1.55-9.47-2.82 1.4-3.45 1.68-7.15 2.24-10.79m27.72 5.42c.86 2.51 2.11 4.92 2.54 7.57-.55 1.43-1.53 2.72-2.93 3.42-3.41-.91-5.81-3.66-8.72-5.49 1.69 3.3 4.72 6.38 8.68 6.34 2.17.14 3.62-1.83 4.74-3.41.02-3.35-1.69-6.43-4.31-8.43m7.84 66.86c-.58-2.88-1.02-5.79-1.42-8.7-1.37 2.94-1.12 6.48 1.42 8.7zM117.51 157.11c.96.46 1.91.92 2.86 1.39l-2.51.69c1.46.75 3.06 1.11 4.7 1.22.88 1.65 1.06 3.52 1.32 5.34-3.19 1.29-6.43 2.43-9.69 3.51 1.12-2.85 1.17-6.55 4.03-8.31-.86-1.11-.71-2.52-.71-3.84z"/><path d="M151.37 167c1.49-.86 2.99-1.7 4.5-2.53 2.64 2.22 4.69 7.07 8.88 4.72 3.98 2.42 8.6 3.68 13.27 3.25 2.71-.35 4.23 2.54 3.89 4.91-8.98 3.32-18.2 5.91-27.56 7.91.08-2.81.29-5.7-.66-8.4-.88-3.28-2.99-6.33-2.32-9.86zM128.28 173.93c1.72-2.54 2.99-5.71 5.66-7.41 3.86-.91 8.13-.8 11.92.25 2.22 3.21 4.43 6.54 5.74 10.25 1.14 4.6.92 9.49.03 14.12-.28-2.42-.15-4.86-.45-7.27-.73-1.43-2.04-2.42-3.16-3.53-1.36-.07-2.71-.13-4.06-.2-1.68 1.62-3.37 3.24-4.86 5.04 2.53-.67 4.43-2.49 5.91-4.56 1.62 1.06 3.24 2.13 4.78 3.31-.48 4.19.99 8.75-1.26 12.56-1.81 3.51-1.9 7.69-4.16 11-2.94 4.86-4.15 10.72-3.06 16.32 1.48-2 1.36-4.55 1.53-6.91.13-3.02 1.45-5.8 2.82-8.43.24 3.21.55 6.46.14 9.68-.63 3.44-2.74 6.43-3.21 9.91-.53 4.21-.64 8.48-.01 12.69-4.16 1.15-5.89 5.4-6.67 9.26 2-1.55 3.39-3.67 4.44-5.94.91-.43 1.79-.9 2.67-1.4.78 5.42 4.54 9.62 7.12 14.26 2.45 2.99 5.11 5.86 6.83 9.37-.74.24-2.24.71-2.99.95-1.62-.72-2.07-2.7-3.31-3.86-3.71.73-7.86-.38-11.19 1.76 3.45.72 6.95.92 10.4.17.56.49 1.67 1.46 2.23 1.94-4.05 3.75-10.26 2.41-13.68-1.47-.65-6.2-3.89-11.7-5.09-17.77.2-3.37 1.34-6.71.8-10.12-.55-6.75-3.7-13.03-3.85-19.82.31-4.95 2-9.69 3.98-14.19 1 2.44 1.89 4.92 2.68 7.44.43.08 1.27.23 1.7.3-1.74-5.94-4.17-12.06-3.23-18.35.5-7.15-2.48-14.03-7.14-19.35m14.07 22.38c.1.49.31 1.47.41 1.95.97.02 1.95.04 2.92.07.06-.5.18-1.49.23-1.99l-3.56-.03z"/><path d="M126.89 177.13c1.39-.28 1.87.26 1.44 1.63-1.42.27-1.9-.28-1.44-1.63zM149.17 200.07c2.13-4.44 2.24-10.16 6.28-13.44.37 10.16-.89 20.34-.37 30.51 6.82-1.83 13.44-4.33 20.17-6.48 1.53.64 3.05 1.29 4.58 1.93-.3 1.3-.58 2.61-.88 3.92-11.44 4.92-23.28 8.86-34.9 13.33 1-3.73 2.83-7.19 3.63-10.97.74-6.26-1.18-12.81 1.49-18.8z"/></g><g fill="#333"><path d="M140.58 40.06c3.33-.28 6.1-2.68 9.44-2.73 2.92.85 5.4 2.81 8.38 3.54 1.88 5.87 1.35 12.17.89 18.22-.04 2.65-1.83 4.71-2.92 6.99.52 5.11 1.74 10.45-.15 15.45-1.86 4.82-2.28 9.98-3.45 14.98-.6 4.67-.65 9.71-3.44 13.74-1.7 2.17-3.53 4.24-5.54 6.12.55-4.82 5.85-7.46 5.86-12.5.42-5.89 2.83-11.51 2.4-17.47 3.56-4.16 2.96-10.15 3.1-15.27-.8-6.25-.3-13.09-3.3-18.78-.52-.18-1.57-.55-2.1-.74 3.2.26 4.16-3.38 6.38-4.99-.65 1.73-1.52 3.37-2.46 4.96 2.22 4.17 1.78 8.74 1.4 13.28 2.02-4.44 2.53-9.32 3.14-14.09-.72-2.01-1.28-4.06-1.82-6.12-4.13.71-2.18-6.01-6.38-5.4-4.36.64-8.26 2.96-12.52 4.03 1.09.35 2.19.7 3.29 1.03-.61 2.19-1.3 4.38-1.52 6.65 2.16 3.07 5.87.2 8.77.16-1.15 1.27-2.58 2.23-3.81 3.4 1.42 3.67 2.16 7.65 1.3 11.56-1.39 6.1-2.14 12.33-2.48 18.57.81-.2 2.41-.59 3.22-.79-1.6 3.13-4.05 5.63-6.27 8.29-2.6 5.28-2.39 11.38-1.62 17.08-3.94-1.92-2.28-6.5-2.85-9.92-1.6 1.69-3.12 3.47-4.39 5.43-8.21 1.79-17.07-.54-24.86 3.28 2.29.29 4.6.29 6.87-.16.64.16 1.91.46 2.55.62l.47.39c2.07.42 4.21-.34 6.31-.32-2.09 1.69-4.89 1.62-7.34 2.38-3.7 2.45-5.01 7.53-9.51 8.85 1.98-3.83 5.68-6.44 8.22-9.61-3.1-1.18-6.54-.37-9.75-.13-2.12-.96-4.26-1.9-6.39-2.83 1.64 4.19 2.23 8.65 3.09 13.04-.8.58-1.6 1.16-2.38 1.76l1.93 1.11c-3.62.67-6.78-1.65-7.52-5.17 1.98 1.22 3.85 2.62 5.82 3.88-.33-3.01-2.43-5.08-4.73-6.78-.47.46-1.42 1.37-1.89 1.83-1.7-5.27-3.53-10.47-5.92-15.48 4.22 1.82 5.26 6.9 6.4 10.89 1.96 1.12 3.86 2.32 5.75 3.54-.14-3.21-1.74-5.99-3.3-8.68-1.55-2.64-2.18-5.74-4.01-8.21-1.55-1.29-3.4-2.13-5.05-3.27-.49.45-.97.89-1.45 1.35.03 1.03.09 3.11.13 4.14-2.58-1.41-6.71-1.48-7.63-4.79 2.37.81 4.61 1.95 6.83 3.1-.96-2.32-1.36-5.12-3.37-6.84-1.36-1.23-2.8-2.38-4.06-3.73 3.12-.03 5.24 2.35 7.02 4.56.65-.17 1.93-.5 2.57-.67-.63-4.25-2.68-8.15-5.53-11.33-3.15-3.38-4.54-8.02-4.84-12.55.83-2.28 2.09-4.38 2.71-6.74-2.98 1.05-6.61 1.67-8.37-1.56 2.51.63 5.05 1.09 7.62 1.36l-.8-4.28c2.87 1.72 4.65 5.16 3.33 8.41-.41.09-1.22.27-1.62.37-.48 1.1-.87 2.23-1.3 3.34 1.06-1.29 2.09-2.61 3.29-3.79.26 3.02.22 6.07-.17 9.08-.6-.48-1.82-1.44-2.43-1.91.32.41.95 1.23 1.27 1.65.17 1.52.43 3.04.76 4.54 1.65-3.9 1.77-8.16 2.68-12.24l.62-.34.79.05.72.41c-.12 4.5-1.08 8.96-2.59 13.19 3.26 3.8 5.88 8.58 5.24 13.76 2.02 1.42 4.47 2.48 5.76 4.72 1.24 2.02 1.91 4.33 2.92 6.47 2.45.46 4.81 1.24 7.18 2 5.37-2.83 11.67-4.17 17.68-2.94 4.02-.35 9.38.11 11.68-3.93 1.33-1.95 1.78-4.31 2.57-6.49 2.2-7.03 4.94-13.91 6.5-21.13 1.83-5.35 3.39-11.45.95-16.86-.36-1.74-2.27-2.23-3.54-3.13.2 4.16 1.95 7.94 3.28 11.81-7.02-4-4.56-12.54-5.86-19.05-1.3 6.42-1.91 14.64 3.78 19.19 1.47.96 1.73 2.58 1.77 4.22-2.7-1.63-5.45-3.57-6.77-6.55-2.52-5.93-2.06-12.48-1.57-18.75 3.05.13 4.01-3.57 6.94-3.73z"/><path d="M146.73 45.4c.73-.27 2.2-.81 2.93-1.07-1.25 1.77-3.04 2.94-5.11 3.54-.44.74-.89 1.48-1.33 2.22.16-1.62.3-3.24.49-4.86.76.04 2.27.12 3.02.17zM60.97 56.02c4.88-2.26 10.55-5.05 15.87-2.48 1.34 1.35 3.13 1.88 4.95 2.19 1.38 2.75 3.73 6.19 2.11 9.22-.43.18-1.27.56-1.7.74-1.73-2.52-.33-7.29-4.14-7.92-.68-1.02-1.35-2.04-2.01-3.06-1.67-.21-3.33-.44-4.99-.66-2.24.88-4.51 1.67-6.78 2.46l.28.99c-.59-.05-1.77-.14-2.36-.19l-.08 1.04c3.53.69 4.05 4.23 4.23 7.2-2.43-.19-2.74-2.47-2.88-4.45-.14 1.85-.2 3.71-.13 5.57.54-.32 1.08-.64 1.61-.98 1.51 2.66 4.99 1.54 7.12 3.41-1.81.54-3.65 1.01-5.48 1.48 1.94 4.62 1.06 9.83 2.87 14.5.81 3.63 3.97 6.17 4.5 9.89.28 2.81 2.96 4.39 3.75 6.96 1 3.69 2.78 7.09 3.94 10.72 1.46 4.35 4.96 7.49 8.04 10.71.78.7 1.16 1.59 1.13 2.68-2.57-.2-4.33-2.18-5.88-4.01-4.99-5.58-6.37-13.21-8.99-19.98-1.03-1.75-2.82-3.07-3.3-5.12-.69-4.36-4.14-7.47-5.33-11.66-.55-.02-1.65-.07-2.2-.09-2.06-1.82-4.83-3.25-5.52-6.13-2.2-5.71-2.37-11.86-1.77-17.88 2.1-1.03 2.53-3.13 3.14-5.15m-.24 5.21c-.87 4.23-1.49 8.68-.27 12.91.93 3.9 2.7 8.2 6.86 9.55-.97-2.75-3.33-4.53-4.94-6.85-2.16-4.97-.02-10.53-1.65-15.61m2.43 7.02c.58 3.43.27 7.31 2.63 10.15.45-3.66-1.41-6.86-2.63-10.15zM148 89.14c-2.72-5.24-.23-11.91 4.41-15.44-.59 2.68-2.47 4.81-3.24 7.39-.23 2.65.17 5.3.2 7.95-.34.02-1.03.08-1.37.1zM90.59 93.73c.57-2.92 3.95-3.88 6.54-3.6 4 .46 7.76 2.02 11.51 3.42 3.24 1.06 3.56 5.11 3.33 7.99-1.69-3.31-2.97-7.33-7.12-8.23-1.48 2.39-2.3 5.12-3.69 7.56-1.16-2.51.57-5.07 2.5-6.6-.25-.41-.77-1.24-1.03-1.66-2.24-.32-4.45-.99-6.72-.94-1.84.52-3.55 1.37-5.32 2.06zM143.41 103.65c1-4.6 2.39-9.24 4.23-13.5.56 1.01 1.14 2.15.54 3.3-.89 3.03-2 6.04-3.63 8.76-.09.59-.29 1.76-.38 2.35-1.58 1.86-3.16 3.76-5.04 5.33.83-2.45 2.44-4.47 4.28-6.24zM133.98 106.16c.58.68.58.68 0 0z"/><path d="M122.8 107.81c3.73-.17 7.46-.46 11.2-.15 2.12 1.83 4.81 2.77 7.12 4.33 3.48 4.3 3.44 9.95 4.72 15.06 1.44 2.18 2.98 4.32 3.58 6.93 1.07.75 2.14 1.5 3.23 2.24 3.85-.34 6.7 2.57 7.86 5.98 6.61 1.19 14.14.16 19.75 4.56 5.2 2.6 10.52 5.21 14.79 9.24 1.98 1.91 4.75 2.49 7.1 3.77 3.92 2.72 5.5 7.74 6.05 12.24-1.39 6.57-1.59 13.45-.29 20.05.88 7.62-.15 15.44 1.69 22.95.39 2.94 3.55 3.98 5.2 6.11 2.27 2.91 5.05 5.34 8.08 7.43 3.59-.42 6.16 1.96 8.15 4.62-1.25 2.72-3.95 3.98-6.54 5.09-3 1.63-6.37-.16-9.57.31-1.96-1.07-3.81-2.4-5.96-3.08-3.01-.77-6.05.54-9.09.21-1.9-.24-3.49-1.42-5.11-2.33-1.35-8.01 3.65-15.42 2.16-23.4-.3-5.18-3.94-9.21-5.3-14.06-.47-5.82.83-11.53 1.25-17.3-3.7-.81-6.68-3.17-9.52-5.52.36 1.04.73 2.09 1.1 3.14-.9 1.46-1.46 3.46-3.34 3.93-7.82 2.72-15.83 4.92-23.91 6.75-.09 9.31-.15 18.62-.39 27.92 6.12-1.91 12.12-4.24 18.31-5.94 2.4.36 4.75 1.48 6.67 2.96-.5 2.71-.27 6.72-3.78 7.27-11.26 4.01-22.34 8.5-33.6 12.5-.21 4.79-.36 9.72 1.28 14.31 3.09 6.47 7.52 12.12 11.92 17.74-.07 1.51.3 3.16-.48 4.55-1.16.69-2.55.82-3.82 1.21-5.09 3.57-12.72 2.21-16.82-2.3-1.44-2.23-.61-5.18-1.97-7.48-2.11-3.65-1.73-7.95-2.97-11.87.15-3.24 1.07-6.44.85-9.71-.63-6.82-3.45-13.26-3.96-20.09.81-7.65 5.28-14.5 5.06-22.31 1.08-5.19-.71-10.38-3.39-14.79-1.74-.14-3.29-.83-4.66-1.88.64-3.91-.15-7.77-1.39-11.47-5.83 1.66-11.12 4.73-16.94 6.43-7.7 2.62-15.19 5.85-22.87 8.5-4.02-1.28-3.1-5.81-2.78-9.04 5.61-2.86 11.69-4.64 17.5-7.05-4.11-13.12-8.44-26.17-12.54-39.3 1.33.78 2.64 1.59 3.95 2.41 3.31-.02 4.8 3.24 7.02 5.12 4.43 3.75 10.95 3.73 15.13 7.86 2.57 2.17 5.63 3.67 8.16 5.9-.34.86-.77 1.66-1.29 2.41-2.73-3.07-6.34-5.09-9.4-7.78-2.31-2.08-5.59-2.39-8.4-3.37 6.18 6.2 13.18 11.52 19.73 17.32-.4-1.66-.55-3.34-.47-5.03.31-1.59 1.14.34 1.78.39.48-.79 1.33-1.05 2.21-1.07-.68 2.08-1.54 4.12-1.97 6.28 1.89-2.7 3.32-5.68 4.51-8.74-.98-.54-1.87-1.23-2.88-1.72-1.09 1.12-2.18 2.25-3.37 3.28.42-3.37 3.08-5.58 5.47-7.63 2.73-2.29 5.38-4.9 8.84-6.03 3.89-1.49 8.06-1.94 12.14-2.67-1.33-3.74-4.39-6.81-4.58-10.93-.1-3.52-1.45-6.82-3.26-9.78-2.96-1.74-6.09-3.23-8.73-5.49-.18.6-.53 1.8-.7 2.4l.18-1.91c-2.58.1-5.18.14-7.7-.48m-30.93 25.12c2.4 8.26 5.33 16.36 7.88 24.57.33-5.23.5-10.47.51-15.71-2.51-3.19-5.63-5.87-8.39-8.86m44.64 5.42c-4.88 1.2-8.08 5.42-11.58 8.68 1.88-.42 3.65-1.21 5.11-2.48 3.46-1.25 6.58-3.24 10-4.58-1.22 4.31-6.19 4.79-9.84 5.74l.64 2.15c-1.11 1.3-2.28 2.56-3.12 4.06-3.96 5.74-2.37 13.29-.49 19.51 1.68-2.33 2.83-5.33 5.61-6.6 5.61-2.43 13.13-2.17 16.96 3.21-.16-1.44-.33-2.87-.5-4.3 2.35-.4 4.68-.9 7-1.45 2.63 1.08 5.24 2.64 6.06 5.57 1.21-3.85 1.5-7.86 1.98-11.83 1.85-4.5 5.55-8 9.74-10.37-5.26-.95-10.73-.63-15.82-2.44-1.15-1.85-1.6-4.6-4.07-5.12-2.87-1.17-5.91-3.06-9.12-2.06-2.85.78-5.71 1.54-8.56 2.31m-35.09 4.29c-.05 5.47-.21 10.93-.08 16.4-.02 2.64 1.03 5.39-.09 7.95-6.12 2.48-12.3 4.86-18.45 7.31-.03 2.29-.12 4.7 1.35 6.61 8.25-3.64 16.92-6.22 25.24-9.67.77-2.63 1.64-5.22 2.54-7.81-.53-.42-1.07-.84-1.61-1.26 3.33-.8 3.51-4.73 4.46-7.39-1.57-2.07-3.57-3.75-5.42-5.54-.09 4.07-.29 8.15-.36 12.22.14 1.1.97 1.87 1.57 2.74l-3.16.15c.02-5.37.26-10.73.38-16.09-2.14-1.86-4.24-3.76-6.37-5.62m65.32 13.5c-.56 3.64-.84 7.34-2.24 10.79 3.03 1.27 6.08 3.03 9.47 2.82 3.11-.07 6.34-.2 9.26 1.03 3.77 1.37 6.28 4.99 10.33 5.76 1.14.62 3.2.47 3.4 2.09-1.22.39-2.46.72-3.7 1.01.92 5.12-.02 10.36 1.16 15.45.04 3.96 2.52 7.14 3.78 10.72.82 4.32.53 8.77.4 13.15-1.38 4.74-2.5 9.87-1.17 14.75 3.56.25 7.13-.04 10.69-.01 2.81-.07 5.16 1.7 7.63 2.78 2.42-.13 4.78.47 7.17.74 2.09-.98 4.05-2.23 6.17-3.17-2.06-3.69-6.65-2.86-9.68-5.13-2.85-1.89-4.39-5.08-6.81-7.42-1.6-1.57-3.24-3.09-4.79-4.72-1.11-5.17-1.91-10.42-1.34-15.72.67-6.26-2.39-12.29-1.09-18.5.01-3.03.19-6.03 1.07-8.94 1.01-3.15-1.35-5.89-2.27-8.74-1.39-4.08-6.22-4.44-9.22-6.8-5.37-4.49-11.48-8.15-18.17-10.27-4.65.58-8.47 4.02-10.05 8.33m-49.23.97c0 1.32-.15 2.73.71 3.84-2.86 1.76-2.91 5.46-4.03 8.31 3.26-1.08 6.5-2.22 9.69-3.51-.26-1.82-.44-3.69-1.32-5.34-1.64-.11-3.24-.47-4.7-1.22l2.51-.69c-.95-.47-1.9-.93-2.86-1.39m33.86 9.89c-.67 3.53 1.44 6.58 2.32 9.86.95 2.7.74 5.59.66 8.4 9.36-2 18.58-4.59 27.56-7.91.34-2.37-1.18-5.26-3.89-4.91-4.67.43-9.29-.83-13.27-3.25-4.19 2.35-6.24-2.5-8.88-4.72-1.51.83-3.01 1.67-4.5 2.53m-23.09 6.93c4.66 5.32 7.64 12.2 7.14 19.35-.94 6.29 1.49 12.41 3.23 18.35-.43-.07-1.27-.22-1.7-.3-.79-2.52-1.68-5-2.68-7.44-1.98 4.5-3.67 9.24-3.98 14.19.15 6.79 3.3 13.07 3.85 19.82.54 3.41-.6 6.75-.8 10.12 1.2 6.07 4.44 11.57 5.09 17.77 3.42 3.88 9.63 5.22 13.68 1.47-.56-.48-1.67-1.45-2.23-1.94-3.45.75-6.95.55-10.4-.17 3.33-2.14 7.48-1.03 11.19-1.76 1.24 1.16 1.69 3.14 3.31 3.86.75-.24 2.25-.71 2.99-.95-1.72-3.51-4.38-6.38-6.83-9.37-2.58-4.64-6.34-8.84-7.12-14.26-.88.5-1.76.97-2.67 1.4-1.05 2.27-2.44 4.39-4.44 5.94.78-3.86 2.51-8.11 6.67-9.26-.63-4.21-.52-8.48.01-12.69.47-3.48 2.58-6.47 3.21-9.91.41-3.22.1-6.47-.14-9.68-1.37 2.63-2.69 5.41-2.82 8.43-.17 2.36-.05 4.91-1.53 6.91-1.09-5.6.12-11.46 3.06-16.32 2.26-3.31 2.35-7.49 4.16-11 2.25-3.81.78-8.37 1.26-12.56-1.54-1.18-3.16-2.25-4.78-3.31-1.48 2.07-3.38 3.89-5.91 4.56 1.49-1.8 3.18-3.42 4.86-5.04 1.35.07 2.7.13 4.06.2 1.12 1.11 2.43 2.1 3.16 3.53.3 2.41.17 4.85.45 7.27.89-4.63 1.11-9.52-.03-14.12-1.31-3.71-3.52-7.04-5.74-10.25-3.79-1.05-8.06-1.16-11.92-.25-2.67 1.7-3.94 4.87-5.66 7.41m-1.39 3.2c-.46 1.35.02 1.9 1.44 1.63.43-1.37-.05-1.91-1.44-1.63m22.28 22.94c-2.67 5.99-.75 12.54-1.49 18.8-.8 3.78-2.63 7.24-3.63 10.97 11.62-4.47 23.46-8.41 34.9-13.33.3-1.31.58-2.62.88-3.92-1.53-.64-3.05-1.29-4.58-1.93-6.73 2.15-13.35 4.65-20.17 6.48-.52-10.17.74-20.35.37-30.51-4.04 3.28-4.15 9-6.28 13.44z"/><path d="M118.64 117.98c3.1-2.05 5.46-4.94 8.37-7.21-.22 4.07-4.67 5.31-7.48 7.3-.77 3.17-.92 6.48.37 9.55-.7 1.29-1.44 2.55-2.23 3.79 4.85 1.61 9.58 4.76 14.9 3.17-.7 2.53-5.31 1.19-5.11 3.51.44.55 1.32 1.65 1.76 2.21-1.44-.62-3.06-1.06-4.05-2.37l.14-.54c.3-.45.92-1.36 1.22-1.82l-1.32.23c-1.94-1.82-4.64-1.54-7.06-1.92-.87-.56-1.74-1.11-2.61-1.66.58-1.37 1.19-2.73 1.79-4.09-1.04-3.47-.04-6.94 1.31-10.15zM136.14 112.89c-2.46.25-6.42.97-7.19-2.2 2.43.62 4.83 1.34 7.19 2.2z"/><path d="M130.69 115.46c.65.26 1.3.51 1.95.76.29 2.23.92 4.5.41 6.75-1.49 1.76-4.06 1.47-6.04 2.24-1.69 1.69-2.78 3.96-4.94 5.16 1.31-4.3 4.56-8.32 9.48-8.07-.07-2.31-.39-4.59-.86-6.84zM111.23 119.86c3.68-.84-.36 4.84-1.03 1.39.26-.35.77-1.05 1.03-1.39zM135.86 120.4c1.91.17 3.83.38 5.69.9-2.43.46-4.87.79-7.29 1.29.53-.73 1.06-1.46 1.6-2.19zM102.53 123c1.75-.77 3.59-.63 5.41-.24.11 1.02.35 3.04.46 4.05 2.18-.86 4.25-2.26 6.67-2.29-3.15 1.99-4.33 6.54-8.45 6.85 1.23-1.06 2.56-2 3.89-2.93-1.84-.38-3.69-.72-5.53-1.13-.25.38-.74 1.16-.99 1.54 1.89 2.56 4.9 5.19 3.79 8.72-1.99-2.7-3.52-5.71-5.41-8.48 1.24-1.51 2.47-3.02 3.75-4.49-1.21-.51-2.4-1.05-3.59-1.6zM133 124.52c2.79.08 3.58 2.65 3.85 4.96-1.6-1.38-2.81-3.14-3.85-4.96zM110.23 134.62c1.59-1.16 3.57-1.15 5.44-1.05-1.54 1.27-3.57 1.15-5.44 1.05zM136.45 150.1c4.94-5.04 11.47-9.12 18.65-9.7-.69.52-1.37 1.04-2.05 1.57-3.73 1.82-7.49 3.59-11.32 5.2.44.45.88.9 1.33 1.35 4.12-2.59 8.89-3.73 13.65-4.39-.96.8-1.91 1.79-3.21 2.01-4.58.69-8.91 2.51-13.03 4.54l1.52-2.52a47.21 47.21 0 01-5.54 1.94zM156.97 153.32c-.06-2.94.68-5.84 3.06-7.74-.98 2.59-2.05 5.15-3.06 7.74zM194.46 161.56c2.62 2 4.33 5.08 4.31 8.43-1.12 1.58-2.57 3.55-4.74 3.41-3.96.04-6.99-3.04-8.68-6.34 2.91 1.83 5.31 4.58 8.72 5.49 1.4-.7 2.38-1.99 2.93-3.42-.43-2.65-1.68-5.06-2.54-7.57zM142.35 196.31l3.56.03c-.05.5-.17 1.49-.23 1.99-.97-.03-1.95-.05-2.92-.07-.1-.48-.31-1.46-.41-1.95zM202.3 228.42c-2.54-2.22-2.79-5.76-1.42-8.7.4 2.91.84 5.82 1.42 8.7z"/></g></svg>