<svg width="368" height="300" viewBox="0 0 276 225" xmlns="http://www.w3.org/2000/svg"><g fill="#FFF"><path d="M0 0h276v133.5c-2.95 1.42-5.97 2.69-8.92 4.12-1.99-5.35-3.98-11.39-9.09-14.59-5.26-3.34-12.28-.27-15.74 4.27-4.3 6.69-5.36 15.01-4.85 22.81-12.41 5.65-24.88 11.16-37.34 16.69-5.27-2.64-5.18-9.2-4.39-14.25 1.62-8.4 1.45-17 .99-25.5-.87-4.28-4.7-6.98-7.42-10.1-5.34-6.35-14.16-7.3-21.73-9.1-5.48-2.35-9.1-9.16-15.94-7.88 1.84.98 3.76 1.79 5.61 2.75 3.61 1.68 4.98 6.32 9.14 7.08 5.6 2.43 12.89-.51 17.48 4.34 3.84 4.54 8.11 8.94 10.8 14.29 1.99 10.9-1.98 21.71-.91 32.62-.08 2.57.34 5.34 2.67 6.85 2.11 3.2 3.49 6.85 3.65 10.71-3.17 2.19-6.98 2.44-10.7 2.14-1.53.57-3.1.66-4.58-.16 1.26-1.05 2.55-2.05 3.82-3.08-.59-.03-1.76-.1-2.35-.13-4.38 3.11-10.01 3.66-14.63 6.41.18-1.15.37-2.29.56-3.43 4.74-1.58 9.26-3.73 13.81-5.78-.89-.47-1.8-.94-2.7-1.39 1.94-3.14 2.32-6.97 1.92-10.57-.76-5.8-1.99-11.52-2.98-17.28l-1.07-1.51c4.41-7.9 1-17.28-4.61-23.59l-.32-2.06c-2.95-1.64-6.03-3.25-9.51-3.16-.64-1.48-1.28-2.96-1.88-4.44-.28-.12-.82-.35-1.09-.46-.2 2.18.88 4.99-1.16 6.57a17.558 17.558 0 00-5.85 11.45c3.24-3.29 4.79-7.73 6.67-11.84 2.42.13 5.08-.29 7.24 1.1 2.33 1.56 3.95 3.93 5.99 5.84 1.88 1.83 4.3 3.75 3.89 6.72-.11 5.33 1.1 12.06-3.76 15.76-2.33 2.99-6.15 2.95-9.59 2.75-3.03-1.9-6.1-3.94-7.69-7.28-.23.74-.69 2.23-.91 2.97-.89-1.8-1.75-3.6-2.57-5.43.63-.15 1.9-.47 2.53-.63.35.51 1.05 1.52 1.41 2.02 1.03-.35 2.08-.69 3.12-1.03-1.38-.63-2.82-1.15-4.08-1.99-.85-1.59-1.24-3.36-1.76-5.07 1.03-1.32 2.06-2.65 3.05-4-3 1.62-4.84 4.46-5.84 7.65-2.44-2.49-4.94-4.91-7.43-7.35 1.27-3.78 2.54-7.85 6.2-10l2.81 1c0-.58.02-1.74.02-2.33l-.69 1.57c-.71-.55-1.43-1.1-2.14-1.65-4.44 1.4-6.39 5.79-8.03 9.75-7.8 1.83-15.52-.91-23.21-1.98.17.63.52 1.88.69 2.5 3.78.32 7.58.55 11.37.68 6.8.32 12.63 4.31 17.91 8.23 4.45 3.3 4.59 9.31 6.34 14.12.58 7.74.26 15.62 2.11 23.23.78 2.73 3.53 4.12 5.49 5.93 1.61-.39 3.21-.78 4.82-1.15.54 3.51.78 7.05 1.18 10.57-3.03 1.96-6.39 3.3-9.74 4.6-.96-.26-2.87-.79-3.82-1.05-.73.61-1.45 1.24-2.16 1.87 6.49 2.64 14.08-.41 18.51-5.43-.14-1.47-.26-2.93-.37-4.4 2.45-.84 4.94-1.58 7.49-2.07 3.38 2 7.39 2.25 11.21 2.62 3.8-.95 6.98-3.43 10.05-5.76-.4-2.23-.73-4.47-1.03-6.71 4.8-1.85 9.24-4.53 14.07-6.3 7.77-2.67 15.12-6.37 22.58-9.79 1.5 6.17 4.42 12.58 9.94 16.1 3.93 1.74 8.5-.09 12.13-1.84 7.84-6.63 7.44-17.95 7.07-27.28 2.75-1.26 5.55-2.43 8.24-3.82V225H121.08c2.19-5.36 2-11.19 2.19-16.86l-1.84-.64c.4 5.89-.06 11.89-2 17.5h-4.02c3.18-11.63.96-24.64-6.05-34.46-1.01-1.45-2.64-2.42-4.37-1.56 9.63 8.95 12.35 23.71 8.59 36.02H96.74c-.98-1.72-1.86-3.51-2.78-5.26 4-1.84 8.47-2.95 11.95-5.73-.16-1.99-.92-3.86-1.6-5.71-3.77 1.65-7.54 3.29-11.33 4.89.53-7 .58-14.5 4.54-20.6 1.94-3.53 6.13-4.44 9.48-6.09 8.84 2.47 13.06 11.73 14.09 20.13.45-.63.89-1.26 1.34-1.89l-.37 2.88c12.14-6.1 24.87-10.85 37.25-16.4.2-1.71.41-3.41.64-5.1-.31-.63-.92-1.89-1.22-2.52-1.75.16-3.49.38-5.23.63-.77-6.03-1.18-12.18-3.16-17.98-1.18-3.38-2.26-6.8-3.02-10.3-3.84-2.98-6.01-7.41-8.65-11.36-.96 5.94 4.8 9.38 6.08 14.68 1.5 4.88 2.86 9.8 4.49 14.63 1.67 5.13 2.13 11.22-1.34 15.72-8.96 3.27-17.35 7.89-26.3 11.2-1.84-5.33-4.05-11.11-9.01-14.31-4.58-3.07-10.52-.32-14.34 2.72-5.62 6.62-6.76 15.97-6.03 24.35-3.9 2.11-8.13 3.53-12.09 5.5-2.05 1.54-.77 4.08.07 5.91.7-1.66 1.06-3.43 1.54-5.15l-.12 3.04c.39.61.79 1.22 1.19 1.83 3.54-1.54 7.13-2.94 10.65-4.52.39 1.6.78 3.23 1.28 4.81H0V0m61.32 64.04c-.94 3.16-.35 6.54-.51 9.79-.52-.05-1.56-.15-2.08-.19-4.71-5.22-12.49-3.86-18.74-5.21-5.21-1.16-8.35 4.02-9.25 8.4 1.32 3.67-.02 7.43.06 11.18 0 5.36-.55 10.78.63 16.07.44 3.61 1.83 7.17 1.53 10.81-.45 3.79-4.77 4.6-7.89 4.99-2.88.1-5.84 1.13-7.58 3.56-.51 2.64-.18 6.19 2.63 7.44 5.19 2.79 10.28 5.95 15.99 7.61 3.49.97 7.02-.17 10.36-1.16 1.83-5.53-.2-11.09-1.76-16.38-.11-5.59.49-11.21 1.14-16.76 2.15 1.68 4.18 3.49 6.21 5.32 2.73 2.21 6.09 3.42 9.21 4.98.3 7.49.55 14.99.38 22.49-5.88 3.13-12.02 5.78-17.75 9.16-.45 2.77-.43 5.79.64 8.44 2.19 2.01 4.87 3.38 7.37 4.96 13.75-6.36 27.46-12.8 41.14-19.32 1.56-.67 3.08-1.58 4.8-1.8 3.32 1.36 6.09 3.74 9.19 5.52 4.68 3.13 10.02 5.14 14.6 8.42 3.16 2.27 7.02 3.67 9.57 6.72 1.08 8.82.05 17.78 1.32 26.6 1.15-2.05 2.01-4.3 1.81-6.69-.17-6.04-.29-12.08-.45-18.12a34.59 34.59 0 009.32 2.86c-3.62-3.88-8.97-5.41-12.69-9.18-2.62-2.63-6.28-3.68-9.23-5.84-4.51-3.71-9.93-6.03-14.93-8.97-9.91-4.26-18.25-11.26-27.81-16.14-9-6.52-19.17-11.22-28.03-17.93-3.15-2.61-6.75-4.58-10.22-6.7.22-1.52-.61-3.6 1.04-4.53 1.55-.84 3.35-3.53 5.18-1.84 3.55 3.21 6.49 7.28 11.07 9.18-.01.56-.01 1.7-.02 2.27 1 1.11 1.88 2.39 3.15 3.23 5.73 2.76 11.85 4.54 17.76 6.85 2.29.83 5.01.82 6.85 2.63 1.64 1.29 3.18 2.84 5.22 3.51 3.54.86 7.12-.23 10.51-1.18 1.97 4.67 5.86 7.97 9.16 11.66 2.13 2.4 5.37 3.24 7.8 5.24 2.29 2.45 3.11 6.21 6.41 7.7 4.26 2.31 9.05 3.53 13.64 5.07-.07-1.01-.15-2.01-.23-3.01-6.92 1.06-9.49-7.15-12.34-11.9.03 2.59.47 5.15 1.23 7.62-1.39-.64-2.74-1.36-4.04-2.16-1.48-2.22-2.13-5-4.08-6.88-2.74-1.94-5.99-3.21-8.25-5.78-2.43-2.95-5.49-5.34-7.6-8.55-1.42-2.01-4.29-1.42-6.39-1.69-2.08-3.88-2.23-8.14-1.03-12.33 4.07-6.19 10.28-11 17.75-12.05.43-.43 1.28-1.27 1.71-1.7 1.61-.05 3.22-.1 4.83-.14 3.92 3.79 9.17 5.05 14.32 6.09-.28 1.66-.62 3.31-.97 4.95-1.53-.8-3.06-1.59-4.59-2.39-2.79-.8-5.51-2.15-8.49-2-4.54.16-8.79-2.63-13.36-1.48 1.45 1.32 3.25 1.98 5.24 1.67.16.29.48.88.64 1.17-1.69 1.07-2.77 2.65-2.34 4.69 1.61-1.28 3.27-2.53 5.15-3.39-2.43.68-2.1-1.85-2.63-3.16l.93 2.37c3.91.11 8.07-.8 11.75.93 2.96 1.21 5.64 3.18 8.97 3.25.93-2.53 1.57-5.14 2.33-7.72 4.47.1 8.46 2.15 12.51 3.79-3.81-4.06-9.64-6.87-15.15-4.55-2.88-.73-5.87-.88-8.72-1.71-8.19-5.06-14.76-13.28-24.59-15.2-5.76-4.25-10.77-9.49-17.02-13.09-4.14-3.25-9.35-5.09-14.64-4.82-3.22-.29-5.82 2.09-7.65 4.45m39.21 39.89c3.23.86 6.28 2.23 9.16 3.91l-.36-1.96c-2.27-1.92-4.52-3.86-6.86-5.69-.71 1.22-1.28 2.5-1.94 3.74m18.45 2.61c3.48-.01 6.97-.11 10.44-.33l-.21-2.03c-3.43.67-6.81 1.6-10.23 2.36m-4.3 16.37c-1.91-1.35-3.85-2.67-5.89-3.82-1.02-.36-2.71-1.84-3.35-.11 2.55 2.21 5.35 4.36 8.61 5.39 3.74-.67 7.23-2.44 11.07-2.7 2.87.81 5.33 2.75 8.29 3.41-1.2-2.88-3.89-4.64-6.96-4.9l-.48-1.88-.24 1.64c-1.07-.11-3.22-.34-4.3-.45.35-1.35.73-2.7.99-4.07-1.07.02-2.12.21-3.18.16-1.63-1.52-2.25-3.78-3.26-5.7.27 4.49-2.75 8.57-1.3 13.03m15.22-10.84c-.02.96-.08 2.87-.11 3.83 3.57 2.73 4.46 7.85 8.26 10.21 1.04-1.45-.55-2.82-1.09-4.1-2.33-3.32-4.01-7.18-7.06-9.94m55.34 17.4c.6.85 1.21 1.7 1.84 2.55.54-2.28 1.07-4.58 1.11-6.93-1.32 1.21-2.2 2.77-2.95 4.38m-51.16 1.49c.36 2.08.84 4.15 1.32 6.21 4.51.8 9.01 1.76 13.3 3.39-.14 3.71-1.44 7.18-2.99 10.5.41 1.31.83 2.63 1.25 3.94l1.07-.1c-.25-5.39 1.74-10.54 2.2-15.82-4.27-2.07-8.99-2.93-13.63-3.74-.37-1.79.22-4.65-2.52-4.38m50.74.14c-.7 5-.23 10.03-.06 15.04.96-4.24 1.76-8.53 1.95-12.88-.63-.73-1.26-1.45-1.89-2.16z"/><path d="M64.35 63.19c4.29-3.15 9.77-1.47 14.1.65 5.31 2.6 10.37 5.83 14.44 10.17-2.81.65-5.79 1.08-8.31 2.57-1.63 1.57-2.98 3.4-4.38 5.17-3.49-1.22-7.18-1.67-10.84-1.21-.33-1.11-1.09-2.12-1.12-3.3.34-.25 1.03-.74 1.38-.99-1.12-1.11-3.28-3.11-3.78-.36-1.02.55-2.2.36-3.54-.57.54-2.54.93-5.1 1.21-7.68 1.99.43 2.86 1.97 3.4 3.74 4.03-.18 8.07-.85 12.07.01-5.01-2.63-11.8-.17-15.69-5.08.26-.78.8-2.34 1.06-3.12zM36.01 70.97c5.26-1.4 11.1-2 16.06.78 5.48 3.2 11.34 5.72 16.67 9.17-4.28 1.46-8.25 4.24-10.37 8.33-1.64 2.79-1.39 6.12-1.5 9.23-3.87-2.73-7.5-5.79-11.49-8.35-2.13 1.28-4.99 1.71-6.41 3.91-.43 1.97-.42 3.99-.57 5.99 1.66 1.18 3.49 2.16 4.94 3.61.29 3.77-.92 7.48-.58 11.24.56 6.93 2.86 13.71 1.97 20.73-3.91 1.5-8.02.7-11.72-.99-5.57-2.76-13.35-3.99-15.03-11.06 5.57-1.59 11.66-1.77 16.64-5.02.94-8.94-3.28-17.56-2.24-26.5-.35-5.73.78-11.36.98-17.06.61-1.48 1.44-2.93 2.65-4.01m2.9 3.94c-1.24.5-3.37-.05-3.77 1.61 2.7 1.39 7.14.67 6.43-3.16-.67.39-2 1.17-2.66 1.55M35.58 87.5c-2.31 9.21-1.57 19.36 3.18 27.69-.25-4.81-2.13-9.36-2.29-14.19-.62-4.54.54-9 1.06-13.48-.49 0-1.46-.01-1.95-.02M40 119.51c.11 1.37-.2 2.55-.92 3.53-2.42 1.42-5.24 1.71-7.92 2.36.97.75 1.93 1.49 2.89 2.24 1.61-.69 2.8-3.79 4.77-2.47.9 1.27 1.58 2.67 2.44 3.96.5-3 .74-6.04.69-9.08-.65-.2-1.29-.38-1.95-.54z"/><path d="M82.79 84.52c.15-3.18 2.01-5.73 3.96-8.09 3.48-.03 6.96.05 10.44-.03 2.63 2.73 5.7 4.93 9.66 4.81 3.38 2.31 6.68 4.75 10.24 6.8-.22.51-.65 1.52-.87 2.03-1.37-.26-2.74-.51-4.1-.77-3.27 2.34-7.49 2.76-10.58 5.39-3.06 2.46-7.06 4.43-8.36 8.42-.64 2.84-1.22 5.78-.96 8.71.78 2.11 2.86 3.37 4.24 5.06-9.16 1.14-16.46-5.21-24.5-8.33-3.55-.7-6.79-2.28-10.08-3.73-.63-2.97-1.99-5.78-2.12-8.84.24-5.87 3.53-11.99 9.32-13.99 4.65-.88 9.06 1.3 13 3.5 3.57 2.06 7.64.79 11.05-.89-3.24-1.74-6.89.41-10.34-.05m-1.9 17.84l2.63.12c3.29-1.66 6.68-3.19 10.33-3.9-.14-.49-.42-1.46-.56-1.94-4.38 1.28-8.92 2.61-12.4 5.72zM63.22 115.48c5.28 4.11 11.7 6.99 16.55 11.45-1.67 1.47-4.53 2.06-5.74 4.32 3.14-.36 5.96-1.84 8.8-3.13 4.02 3.05 8.13 5.98 12.23 8.93-13.61 6.49-27.31 12.82-40.93 19.3-2.85 1.69-5.55-1.21-7.74-2.77-.55-1.95-.65-4-.92-5.99 5.83-3.71 12.58-5.83 18.24-9.77.44-7.44-.07-14.91-.49-22.34zM116.2 122.01c.16-2.08-.21-4.48 1.88-5.8.56 1.06 1.01 2.17 1.46 3.29-1.12.84-2.23 1.67-3.34 2.51zM242.96 128.99c1.9-3.25 5.55-4.5 8.83-5.86 3.31 1.04 6.83 2.22 8.91 5.22 5.4 7.26 6.65 16.83 5.94 25.64-.91 6.35-3.25 13.92-10 16.2 6.2-8.95 6.72-20.63 3.97-30.88-1.61-5.31-3.98-11-8.8-14.13-.43.04-1.29.11-1.71.15 1.24 2.77 4.25 4.24 5.64 6.95 5.93 10.15 6.54 23.35 1.4 33.95-.44 1.08-.6 2.21-.48 3.4-2.52.86-5.52 2.06-8 .46-4.76-3.29-6.58-8.98-9.47-13.71 3.51-1.95 7.49-3.07 10.78-5.4 1.03-2.02-.11-4.04-.95-5.87-3.69 1.58-7.39 3.13-11 4.9 1.39-7.04.6-14.84 4.94-21.02zM267.19 138.79c3-1.03 6-2.13 8.81-3.63v2.56c-2.76 1.44-5.64 2.65-8.46 3.95-.09-.72-.27-2.16-.35-2.88zM177.27 148.63c.77-1.28 1.56-2.53 2.36-3.77 2.3 7.5 3.6 15.31 3.47 23.16-1.36 2.57-3.29 4.82-4.23 7.6-4.78 1.52-11.06 2.3-14.97-1.52-2.04-2.93-1.19-6.8-1.67-10.16.41-1.75-.74-3.01-2.14-3.73.35-4.44 1.2-9.2-.68-13.41 3.63 3.09 8.35 4.37 13.07 3.76-2.29 3.32-6.34 4.38-9.68 6.28-.94.45-2.45 1.65-1.6 2.83 1.13.28 2.29.36 3.48.22l-.45-1.06c4.19-2.43 10.7-3.6 11.11-9.48l1.93-.72z"/><path d="M241.42 150.4c2.47-.9 4.84-2.75 7.56-2.55.86 2.46-2.22 2.66-3.68 3.62-12.34 5.15-24.24 11.36-36.82 15.92-2.77 1.2-5.51 2.5-8.16 3.98-.86-.52-1.7-1.07-2.53-1.64 14.62-6.25 29.13-12.79 43.63-19.33zM154.14 186.12c.82 0 2.47-.02 3.29-.03-.27 1.43-.51 2.86-.93 4.26-5.61 2.64-11.33 5.06-17.17 7.13-5.76 2.25-11.15 5.47-17.06 7.28l-.32-2.76c12.07-3.55 23.29-9.4 34.75-14.5-.85-.48-1.7-.93-2.56-1.38zM83.33 219.4c7.06-2.3 13.42-6.39 20.57-8.41.06.51.17 1.54.23 2.06-6.51 3.23-13.37 5.73-19.77 9.23-.26-.72-.77-2.16-1.03-2.88z"/></g><g fill="#333"><path d="M61.32 64.04c1.83-2.36 4.43-4.74 7.65-4.45 5.29-.27 10.5 1.57 14.64 4.82 6.25 3.6 11.26 8.84 17.02 13.09 9.83 1.92 16.4 10.14 24.59 15.2 2.85.83 5.84.98 8.72 1.71 5.51-2.32 11.34.49 15.15 4.55-4.05-1.64-8.04-3.69-12.51-3.79-.76 2.58-1.4 5.19-2.33 7.72-3.33-.07-6.01-2.04-8.97-3.25-3.68-1.73-7.84-.82-11.75-.93l-.93-2.37c.53 1.31.2 3.84 2.63 3.16-1.88.86-3.54 2.11-5.15 3.39-.43-2.04.65-3.62 2.34-4.69-.16-.29-.48-.88-.64-1.17-1.99.31-3.79-.35-5.24-1.67 4.57-1.15 8.82 1.64 13.36 1.48 2.98-.15 5.7 1.2 8.49 2 1.53.8 3.06 1.59 4.59 2.39.35-1.64.69-3.29.97-4.95-5.15-1.04-10.4-2.3-14.32-6.09-1.61.04-3.22.09-4.83.14-.43.43-1.28 1.27-1.71 1.7-7.47 1.05-13.68 5.86-17.75 12.05-1.2 4.19-1.05 8.45 1.03 12.33 2.1.27 4.97-.32 6.39 1.69 2.11 3.21 5.17 5.6 7.6 8.55 2.26 2.57 5.51 3.84 8.25 5.78 1.95 1.88 2.6 4.66 4.08 6.88 1.3.8 2.65 1.52 4.04 2.16-.76-2.47-1.2-5.03-1.23-7.62 2.85 4.75 5.42 12.96 12.34 11.9.08 1 .16 2 .23 3.01-4.59-1.54-9.38-2.76-13.64-5.07-3.3-1.49-4.12-5.25-6.41-7.7-2.43-2-5.67-2.84-7.8-5.24-3.3-3.69-7.19-6.99-9.16-11.66-3.39.95-6.97 2.04-10.51 1.18-2.04-.67-3.58-2.22-5.22-3.51-1.84-1.81-4.56-1.8-6.85-2.63-5.91-2.31-12.03-4.09-17.76-6.85-1.27-.84-2.15-2.12-3.15-3.23.01-.57.01-1.71.02-2.27-4.58-1.9-7.52-5.97-11.07-9.18-1.83-1.69-3.63 1-5.18 1.84-1.65.93-.82 3.01-1.04 4.53 3.47 2.12 7.07 4.09 10.22 6.7 8.86 6.71 19.03 11.41 28.03 17.93 9.56 4.88 17.9 11.88 27.81 16.14 5 2.94 10.42 5.26 14.93 8.97 2.95 2.16 6.61 3.21 9.23 5.84 3.72 3.77 9.07 5.3 12.69 9.18a34.59 34.59 0 01-9.32-2.86c.16 6.04.28 12.08.45 18.12.2 2.39-.66 4.64-1.81 6.69-1.27-8.82-.24-17.78-1.32-26.6-2.55-3.05-6.41-4.45-9.57-6.72-4.58-3.28-9.92-5.29-14.6-8.42-3.1-1.78-5.87-4.16-9.19-5.52-1.72.22-3.24 1.13-4.8 1.8-13.68 6.52-27.39 12.96-41.14 19.32-2.5-1.58-5.18-2.95-7.37-4.96-1.07-2.65-1.09-5.67-.64-8.44 5.73-3.38 11.87-6.03 17.75-9.16.17-7.5-.08-15-.38-22.49-3.12-1.56-6.48-2.77-9.21-4.98-2.03-1.83-4.06-3.64-6.21-5.32-.65 5.55-1.25 11.17-1.14 16.76 1.56 5.29 3.59 10.85 1.76 16.38-3.34.99-6.87 2.13-10.36 1.16-5.71-1.66-10.8-4.82-15.99-7.61-2.81-1.25-3.14-4.8-2.63-7.44 1.74-2.43 4.7-3.46 7.58-3.56 3.12-.39 7.44-1.2 7.89-4.99.3-3.64-1.09-7.2-1.53-10.81-1.18-5.29-.63-10.71-.63-16.07-.08-3.75 1.26-7.51-.06-11.18.9-4.38 4.04-9.56 9.25-8.4 6.25 1.35 14.03-.01 18.74 5.21.52.04 1.56.14 2.08.19.16-3.25-.43-6.63.51-9.79m3.03-.85c-.26.78-.8 2.34-1.06 3.12 3.89 4.91 10.68 2.45 15.69 5.08-4-.86-8.04-.19-12.07-.01-.54-1.77-1.41-3.31-3.4-3.74-.28 2.58-.67 5.14-1.21 7.68 1.34.93 2.52 1.12 3.54.57.5-2.75 2.66-.75 3.78.36-.35.25-1.04.74-1.38.99.03 1.18.79 2.19 1.12 3.3 3.66-.46 7.35-.01 10.84 1.21 1.4-1.77 2.75-3.6 4.38-5.17 2.52-1.49 5.5-1.92 8.31-2.57-4.07-4.34-9.13-7.57-14.44-10.17-4.33-2.12-9.81-3.8-14.1-.65m-28.34 7.78c-1.21 1.08-2.04 2.53-2.65 4.01-.2 5.7-1.33 11.33-.98 17.06-1.04 8.94 3.18 17.56 2.24 26.5-4.98 3.25-11.07 3.43-16.64 5.02 1.68 7.07 9.46 8.3 15.03 11.06 3.7 1.69 7.81 2.49 11.72.99.89-7.02-1.41-13.8-1.97-20.73-.34-3.76.87-7.47.58-11.24-1.45-1.45-3.28-2.43-4.94-3.61.15-2 .14-4.02.57-5.99 1.42-2.2 4.28-2.63 6.41-3.91 3.99 2.56 7.62 5.62 11.49 8.35.11-3.11-.14-6.44 1.5-9.23 2.12-4.09 6.09-6.87 10.37-8.33-5.33-3.45-11.19-5.97-16.67-9.17-4.96-2.78-10.8-2.18-16.06-.78m46.78 13.55c3.45.46 7.1-1.69 10.34.05-3.41 1.68-7.48 2.95-11.05.89-3.94-2.2-8.35-4.38-13-3.5-5.79 2-9.08 8.12-9.32 13.99.13 3.06 1.49 5.87 2.12 8.84 3.29 1.45 6.53 3.03 10.08 3.73 8.04 3.12 15.34 9.47 24.5 8.33-1.38-1.69-3.46-2.95-4.24-5.06-.26-2.93.32-5.87.96-8.71 1.3-3.99 5.3-5.96 8.36-8.42 3.09-2.63 7.31-3.05 10.58-5.39 1.36.26 2.73.51 4.1.77.22-.51.65-1.52.87-2.03-3.56-2.05-6.86-4.49-10.24-6.8-3.96.12-7.03-2.08-9.66-4.81-3.48.08-6.96 0-10.44.03-1.95 2.36-3.81 4.91-3.96 8.09m-19.57 30.96c.42 7.43.93 14.9.49 22.34-5.66 3.94-12.41 6.06-18.24 9.77.27 1.99.37 4.04.92 5.99 2.19 1.56 4.89 4.46 7.74 2.77 13.62-6.48 27.32-12.81 40.93-19.3-4.1-2.95-8.21-5.88-12.23-8.93-2.84 1.29-5.66 2.77-8.8 3.13 1.21-2.26 4.07-2.85 5.74-4.32-4.85-4.46-11.27-7.34-16.55-11.45z"/><path d="M38.91 74.91c.66-.38 1.99-1.16 2.66-1.55.71 3.83-3.73 4.55-6.43 3.16.4-1.66 2.53-1.11 3.77-1.61zM35.58 87.5c.49.01 1.46.02 1.95.02-.52 4.48-1.68 8.94-1.06 13.48.16 4.83 2.04 9.38 2.29 14.19-4.75-8.33-5.49-18.48-3.18-27.69zM80.89 102.36c3.48-3.11 8.02-4.44 12.4-5.72.14.48.42 1.45.56 1.94-3.65.71-7.04 2.24-10.33 3.9l-2.63-.12zM100.53 103.93c.66-1.24 1.23-2.52 1.94-3.74 2.34 1.83 4.59 3.77 6.86 5.69l.36 1.96c-2.88-1.68-5.93-3.05-9.16-3.91zM151.57 99.97c6.84-1.28 10.46 5.53 15.94 7.88 7.57 1.8 16.39 2.75 21.73 9.1 2.72 3.12 6.55 5.82 7.42 10.1.46 8.5.63 17.1-.99 25.5-.79 5.05-.88 11.61 4.39 14.25 12.46-5.53 24.93-11.04 37.34-16.69-.51-7.8.55-16.12 4.85-22.81 3.46-4.54 10.48-7.61 15.74-4.27 5.11 3.2 7.1 9.24 9.09 14.59 2.95-1.43 5.97-2.7 8.92-4.12v1.66c-2.81 1.5-5.81 2.6-8.81 3.63.08.72.26 2.16.35 2.88 2.82-1.3 5.7-2.51 8.46-3.95v1.82c-2.69 1.39-5.49 2.56-8.24 3.82.37 9.33.77 20.65-7.07 27.28-3.63 1.75-8.2 3.58-12.13 1.84-5.52-3.52-8.44-9.93-9.94-16.1-7.46 3.42-14.81 7.12-22.58 9.79-4.83 1.77-9.27 4.45-14.07 6.3.3 2.24.63 4.48 1.03 6.71-3.07 2.33-6.25 4.81-10.05 5.76-3.82-.37-7.83-.62-11.21-2.62-2.55.49-5.04 1.23-7.49 2.07.11 1.47.23 2.93.37 4.4-4.43 5.02-12.02 8.07-18.51 5.43.71-.63 1.43-1.26 2.16-1.87.95.26 2.86.79 3.82 1.05 3.35-1.3 6.71-2.64 9.74-4.6-.4-3.52-.64-7.06-1.18-10.57-1.61.37-3.21.76-4.82 1.15-1.96-1.81-4.71-3.2-5.49-5.93-1.85-7.61-1.53-15.49-2.11-23.23-1.75-4.81-1.89-10.82-6.34-14.12-5.28-3.92-11.11-7.91-17.91-8.23-3.79-.13-7.59-.36-11.37-.68-.17-.62-.52-1.87-.69-2.5 7.69 1.07 15.41 3.81 23.21 1.98 1.64-3.96 3.59-8.35 8.03-9.75.71.55 1.43 1.1 2.14 1.65l.69-1.57c0 .59-.02 1.75-.02 2.33l-2.81-1c-3.66 2.15-4.93 6.22-6.2 10 2.49 2.44 4.99 4.86 7.43 7.35 1-3.19 2.84-6.03 5.84-7.65-.99 1.35-2.02 2.68-3.05 4 .52 1.71.91 3.48 1.76 5.07 1.26.84 2.7 1.36 4.08 1.99-1.04.34-2.09.68-3.12 1.03-.36-.5-1.06-1.51-1.41-2.02-.63.16-1.9.48-2.53.63.82 1.83 1.68 3.63 2.57 5.43.22-.74.68-2.23.91-2.97 1.59 3.34 4.66 5.38 7.69 7.28 3.44.2 7.26.24 9.59-2.75 4.86-3.7 3.65-10.43 3.76-15.76.41-2.97-2.01-4.89-3.89-6.72-2.04-1.91-3.66-4.28-5.99-5.84-2.16-1.39-4.82-.97-7.24-1.1-1.88 4.11-3.43 8.55-6.67 11.84.43-4.42 2.53-8.52 5.85-11.45 2.04-1.58.96-4.39 1.16-6.57.27.11.81.34 1.09.46.6 1.48 1.24 2.96 1.88 4.44 3.48-.09 6.56 1.52 9.51 3.16l.32 2.06c5.61 6.31 9.02 15.69 4.61 23.59l1.07 1.51c.99 5.76 2.22 11.48 2.98 17.28.4 3.6.02 7.43-1.92 10.57.9.45 1.81.92 2.7 1.39-4.55 2.05-9.07 4.2-13.81 5.78-.19 1.14-.38 2.28-.56 3.43 4.62-2.75 10.25-3.3 14.63-6.41.59.03 1.76.1 2.35.13-1.27 1.03-2.56 2.03-3.82 3.08 1.48.82 3.05.73 4.58.16 3.72.3 7.53.05 10.7-2.14-.16-3.86-1.54-7.51-3.65-10.71-2.33-1.51-2.75-4.28-2.67-6.85-1.07-10.91 2.9-21.72.91-32.62-2.69-5.35-6.96-9.75-10.8-14.29-4.59-4.85-11.88-1.91-17.48-4.34-4.16-.76-5.53-5.4-9.14-7.08-1.85-.96-3.77-1.77-5.61-2.75m91.39 29.02c-4.34 6.18-3.55 13.98-4.94 21.02 3.61-1.77 7.31-3.32 11-4.9.84 1.83 1.98 3.85.95 5.87-3.29 2.33-7.27 3.45-10.78 5.4 2.89 4.73 4.71 10.42 9.47 13.71 2.48 1.6 5.48.4 8-.46-.12-1.19.04-2.32.48-3.4 5.14-10.6 4.53-23.8-1.4-33.95-1.39-2.71-4.4-4.18-5.64-6.95.42-.04 1.28-.11 1.71-.15 4.82 3.13 7.19 8.82 8.8 14.13 2.75 10.25 2.23 21.93-3.97 30.88 6.75-2.28 9.09-9.85 10-16.2.71-8.81-.54-18.38-5.94-25.64-2.08-3-5.6-4.18-8.91-5.22-3.28 1.36-6.93 2.61-8.83 5.86m-65.69 19.64l-1.93.72c-.41 5.88-6.92 7.05-11.11 9.48l.45 1.06c-1.19.14-2.35.06-3.48-.22-.85-1.18.66-2.38 1.6-2.83 3.34-1.9 7.39-2.96 9.68-6.28-4.72.61-9.44-.67-13.07-3.76 1.88 4.21 1.03 8.97.68 13.41 1.4.72 2.55 1.98 2.14 3.73.48 3.36-.37 7.23 1.67 10.16 3.91 3.82 10.19 3.04 14.97 1.52.94-2.78 2.87-5.03 4.23-7.6.13-7.85-1.17-15.66-3.47-23.16-.8 1.24-1.59 2.49-2.36 3.77m64.15 1.77c-14.5 6.54-29.01 13.08-43.63 19.33.83.57 1.67 1.12 2.53 1.64 2.65-1.48 5.39-2.78 8.16-3.98 12.58-4.56 24.48-10.77 36.82-15.92 1.46-.96 4.54-1.16 3.68-3.62-2.72-.2-5.09 1.65-7.56 2.55zM118.98 106.54c3.42-.76 6.8-1.69 10.23-2.36l.21 2.03c-3.47.22-6.96.32-10.44.33z"/><path d="M114.68 122.91c-1.45-4.46 1.57-8.54 1.3-13.03 1.01 1.92 1.63 4.18 3.26 5.7 1.06.05 2.11-.14 3.18-.16-.26 1.37-.64 2.72-.99 4.07 1.08.11 3.23.34 4.3.45l.24-1.64.48 1.88c3.07.26 5.76 2.02 6.96 4.9-2.96-.66-5.42-2.6-8.29-3.41-3.84.26-7.33 2.03-11.07 2.7-3.26-1.03-6.06-3.18-8.61-5.39.64-1.73 2.33-.25 3.35.11 2.04 1.15 3.98 2.47 5.89 3.82m1.52-.9c1.11-.84 2.22-1.67 3.34-2.51-.45-1.12-.9-2.23-1.46-3.29-2.09 1.32-1.72 3.72-1.88 5.8zM129.9 112.07c3.05 2.76 4.73 6.62 7.06 9.94.54 1.28 2.13 2.65 1.09 4.1-3.8-2.36-4.69-7.48-8.26-10.21.03-.96.09-2.87.11-3.83zM40 119.51c.66.16 1.3.34 1.95.54.05 3.04-.19 6.08-.69 9.08-.86-1.29-1.54-2.69-2.44-3.96-1.97-1.32-3.16 1.78-4.77 2.47-.96-.75-1.92-1.49-2.89-2.24 2.68-.65 5.5-.94 7.92-2.36.72-.98 1.03-2.16.92-3.53zM185.24 129.47c.75-1.61 1.63-3.17 2.95-4.38-.04 2.35-.57 4.65-1.11 6.93-.63-.85-1.24-1.7-1.84-2.55zM134.08 130.96c2.74-.27 2.15 2.59 2.52 4.38 4.64.81 9.36 1.67 13.63 3.74-.46 5.28-2.45 10.43-2.2 15.82l-1.07.1c-.42-1.31-.84-2.63-1.25-3.94 1.55-3.32 2.85-6.79 2.99-10.5-4.29-1.63-8.79-2.59-13.3-3.39-.48-2.06-.96-4.13-1.32-6.21zM184.82 131.1c.63.71 1.26 1.43 1.89 2.16-.19 4.35-.99 8.64-1.95 12.88-.17-5.01-.64-10.04.06-15.04zM144.75 159.27c-1.28-5.3-7.04-8.74-6.08-14.68 2.64 3.95 4.81 8.38 8.65 11.36.76 3.5 1.84 6.92 3.02 10.3 1.98 5.8 2.39 11.95 3.16 17.98 1.74-.25 3.48-.47 5.23-.63.3.63.91 1.89 1.22 2.52-.23 1.69-.44 3.39-.64 5.1-12.38 5.55-25.11 10.3-37.25 16.4l.37-2.88c-.45.63-.89 1.26-1.34 1.89-1.03-8.4-5.25-17.66-14.09-20.13-3.35 1.65-7.54 2.56-9.48 6.09-3.96 6.1-4.01 13.6-4.54 20.6 3.79-1.6 7.56-3.24 11.33-4.89.68 1.85 1.44 3.72 1.6 5.71-3.48 2.78-7.95 3.89-11.95 5.73.92 1.75 1.8 3.54 2.78 5.26h-2c-.5-1.58-.89-3.21-1.28-4.81-3.52 1.58-7.11 2.98-10.65 4.52-.4-.61-.8-1.22-1.19-1.83l.12-3.04c-.48 1.72-.84 3.49-1.54 5.15-.84-1.83-2.12-4.37-.07-5.91 3.96-1.97 8.19-3.39 12.09-5.5-.73-8.38.41-17.73 6.03-24.35 3.82-3.04 9.76-5.79 14.34-2.72 4.96 3.2 7.17 8.98 9.01 14.31 8.95-3.31 17.34-7.93 26.3-11.2 3.47-4.5 3.01-10.59 1.34-15.72-1.63-4.83-2.99-9.75-4.49-14.63m9.39 26.85c.86.45 1.71.9 2.56 1.38-11.46 5.1-22.68 10.95-34.75 14.5l.32 2.76c5.91-1.81 11.3-5.03 17.06-7.28 5.84-2.07 11.56-4.49 17.17-7.13.42-1.4.66-2.83.93-4.26-.82.01-2.47.03-3.29.03M83.33 219.4c.26.72.77 2.16 1.03 2.88 6.4-3.5 13.26-6 19.77-9.23-.06-.52-.17-1.55-.23-2.06-7.15 2.02-13.51 6.11-20.57 8.41z"/><path d="M104.99 188.98c1.73-.86 3.36.11 4.37 1.56 7.01 9.82 9.23 22.83 6.05 34.46h-1.83c3.76-12.31 1.04-27.07-8.59-36.02zM121.43 207.5l1.84.64c-.19 5.67 0 11.5-2.19 16.86h-1.65c1.94-5.61 2.4-11.61 2-17.5z"/></g></svg>