<svg width="368" height="300" viewBox="0 0 276 225" xmlns="http://www.w3.org/2000/svg"><g fill="#FFF"><path d="M0 0h276v225H0V0m143.64 41.54c-2.17 2.54-.82 6.46 1.86 8.03 4.95 4.06 11.65 3.97 17.69 4.44-3.35 2.34-7.43 3.13-11.43 2.35-2.69 3.61-4.3 7.85-6.75 11.61-1.04 1.27-.95 2.88-.64 4.4-.32 1.17-.67 2.32-1.01 3.48-2.2 4.46-2.82 9.85-6.66 13.36.22 2.97.68 5.94 1.57 8.79 1.55-2.63.68-5.87 2.12-8.55.7 3.41 1.63 7 .53 10.44-1.35 4.19-.83 8.73-2.64 12.8-1.27-.01-2.77-.93-3.91-.03 1.75 2.96 5.78 2.67 7.76 5.34 2.25 2.79 3.88 6.24 3.65 9.9-1.56-.26-3.36.21-4.77-.64-1.52-1.51-2.68-3.33-4.14-4.9-.61 3.81 2.48 7.72 6.3 7.83 2.81-1.42 4.7-4.16 5.88-7.01 2.58-2.68 5.07-5.45 7.39-8.36-4.49.13-5.68 5.47-8.25 8.29-2.6-3.44-4.55-7.65-8.82-9.37 2.26-4.11 1.96-8.85 2.87-13.31.36-.15 1.06-.46 1.42-.61-.44-5.56-3.79-11.52-.65-16.81 1.35-3.13 4.16-6.55 1.7-10.01 5.11 5.62 13.23 5.18 20.14 5.14-.72-.57-1.44-1.13-2.17-1.68-4.84.24-10.2.21-14.27-2.8-1.09-.88-2.47-2.09-2.23-3.64 2.46-4.12 3.25-9.1 6.87-12.51.97.01 2.91.03 3.88.05-.13 3.08-.19 6.17-.29 9.25 1.59 1.28 3.37 2.62 5.55 2.42 4.18-2.09 1.84-7.6 1.93-11.25a19.27 19.27 0 01-1.54-2.27c.55-.37 1.63-1.12 2.18-1.5l-.56-.69c3.71-.51 7.4-1.76 10.37-4.09 3.01-2.29 2.49-7.36-.5-9.45-4.8-3.69-11.25-3.98-17.07-3.92-4.8.36-10.21 1.52-13.36 5.48m-6.69 16.4c-2.84 4.18-6.21 8.17-7.55 13.15-1.29 3.86-1.55 7.93-1.81 11.96-.63 2.91-1.54 5.76-2.26 8.65l-1.13.12c-6.49-3.97-11.77-9.69-18.71-12.94-1.74-.66-3.69-.76-5.31-1.68-3.56-2.91-7.14-5.8-10.61-8.81-5.97-3.97-11.97-9.16-19.62-8.82-3.57-.55-6.69 1.73-8.64 4.49-.92 3.14-.35 6.49-.51 9.73-.5-.03-1.49-.08-1.99-.1-4.7-5.29-12.5-3.91-18.77-5.27-4.82-1.1-8.4 3.49-9.05 7.76.65 5.61-.46 11.19-.27 16.81-.57 7.13 1.3 14.11 2.55 21.06-.49 1.27-.98 2.53-1.47 3.8-4.47 2.81-10.97.87-14.31 5.57-.57 2.63-.17 6.2 2.6 7.46 5.2 2.8 10.27 5.95 15.98 7.62 3.5 1.01 7.07-.17 10.43-1.15 1.79-5.55-.2-11.14-1.78-16.45-.05-5.57.44-11.18 1.16-16.72 2.61 2.06 4.96 4.42 7.61 6.42 2.51 1.43 5.13 2.67 7.76 3.89.31 7.47.53 14.93.42 22.4-5.94 3.12-11.95 6.11-17.96 9.1.08 2.86-.4 5.92.83 8.61 2.19 2.03 4.89 3.39 7.41 4.96 13.75-6.39 27.48-12.82 41.17-19.35 1.55-.65 3.04-1.6 4.75-1.76 3.33 1.35 6.1 3.74 9.2 5.52 4.66 3.12 9.97 5.12 14.53 8.39 3.15 2.29 7.08 3.65 9.58 6.75 1.14 8.84.06 17.83 1.34 26.67 1.13-2.09 2.04-4.36 1.83-6.79-.18-6.04-.3-12.08-.45-18.13 3.84 1.65 7.87 2.82 11.69 4.53-.95 9.46-2.93 19.2-.58 28.59 2.83-2.07.99-5.84 1.2-8.74 4.96-2.25 9.92-4.51 14.88-6.78 2.31 1.39 4.57 2.85 6.82 4.34.12 2.41.24 4.81.35 7.22-15.35 7.16-30.6 14.54-46.02 21.55-1.98-1.51-4.45-2.54-5.99-4.52-.2-1.98-.07-3.96-.01-5.94 2.7-1.24 5.39-2.53 8.14-3.7-1.08-.32-2.14-.64-3.21-.96-2.45 1.37-5.38 2.19-7.26 4.38-.07 2.6.29 5.21.86 7.74 1.96 2.29 4.9 3.52 7.34 5.26 8.93-3.72 17.43-8.36 26.3-12.21 7.36-3.58 14.9-6.8 22.09-10.71-.1-3.49-.3-7-1.12-10.41-3.26-1.39-6.4-5.79-10.17-3.48-4.22 2.14-8.57 4.03-12.87 6.01.3-5.84.18-11.68.16-17.51 6.62-1.68 12.87-4.39 19.24-6.74l-.68-.18c3.22-1.78 6.66-3.23 9.38-5.76.25-1.16.55-2.3.91-3.42 1.15-.46 2.33-.87 3.53-1.23-.29-.08-.86-.23-1.15-.31 2.91-3.36 5.6-7.34 5.81-11.92-.28-3.91-2.34-7.4-3.78-10.97-1.89-4.5-6.18-7.19-9.67-10.34-1.05.09-3.14.26-4.19.35.52-.42 1.57-1.26 2.09-1.68-1.34.11-2.67.18-4 .37.03.68.08 2.03.1 2.71 6.91-1.42 11.58 5.14 13.94 10.67 2.37 4.68 1.9 10 1.85 15.07-2.36 2.9-5 5.71-8.53 7.16-.69.65-1.38 1.32-2.04 2l2.64-1.27c-.16.86-.48 2.58-.65 3.44-3.48 1.51-6.96 3.03-10.46 4.49-5.48 2.71-11.66 5.46-17.87 4.38-4.7-2.02-9.1-4.81-12.91-8.22-3.14-2.81-7.37-3.92-10.5-6.74-9.52-6.46-20.46-10.49-29.86-17.15-4.1-3.1-8.89-5.08-13.13-7.94-8.59-6.19-18.37-10.55-26.7-17.13-2.97-2.38-6.27-4.29-9.54-6.21.3-1.47-.7-3.6.97-4.47 1.65-1.03 3.8-3.8 5.64-1.55 3.28 3.25 6.26 7 10.64 8.85-.01.57-.02 1.7-.03 2.27 1.03 1.13 1.91 2.45 3.23 3.27 5.71 2.76 11.82 4.53 17.71 6.84 2.28.83 5 .8 6.83 2.6 1.98 1.56 3.93 3.64 6.62 3.77 3.12.37 6.14-.6 9.11-1.42 1.96 4.67 5.86 7.96 9.16 11.65 2.81 3.07 7.21 3.85 10.21 6.7 3.32 3.41 8.41 3.56 12.79 4.49 1.9-.72 3.82-1.39 5.75-2.02-.77-.47-1.54-.93-2.32-1.39-4.52.73-8.93-.52-13.16-1.97-3.73-4.88-10.28-6.16-14.05-10.96-2.03-2.45-4.61-4.4-6.33-7.11-1.3-2.38-4.44-1.85-6.7-2.13-2.11-3.81-2.2-8.03-1.1-12.17 4.02-6.24 10.27-11.06 17.74-12.16l1.8-1.68c1.69-.05 3.39-.12 5.08-.19.26.5.79 1.48 1.06 1.97 1.38.2 2.77.37 4.16.54-1.49 3.05-3.45 5.96-4.17 9.32-.65 7.06-1.08 14.17.19 21.19l1.96.76c-.56 1.65-1.13 3.29-1.63 4.96 4.39-2.43 4.87-7.96 6.62-12.19-1.54 2.12-3.06 4.24-4.66 6.31.07-8.57-2.72-17.88 2.02-25.73.52 1.74.94 3.52 1.52 5.25.77-1.09 1.02-2.27.75-3.55-1.03-4.76.89-9.4 2.15-13.91.35-4.55.29-9.22 1.85-13.58 2.24-8.64 11.18-13.74 12.66-22.69-3.27 2.34-5.17 5.92-7.45 9.12m34.26 3.99c-.91-.03-2.73-.1-3.63-.14 3.48 1.8 7.4 3.43 9.3 7.13-2.83 4.21-7.55 6.9-12.63 7.14.72.52 1.45 1.04 2.19 1.56 4.15-.99 8.08-2.92 11.07-6.02-.22-1.72.08-3.62-.7-5.22-1.49-1.98-3.46-3.75-3.87-6.33-1.07-2.92.17-5.92.58-8.83-4 1.92-4.67 7.24-2.31 10.71m-34.45 6.66c5.43-2.48 6.44-8.84 7.98-13.96-2.93 4.49-5.48 9.23-7.98 13.96m39.55 11.31c-1.88 7.64 7.82 12.44 6.41 20.13-.85 3.82 1.07 7.29 1.78 10.93.24 4.33-2.15 8.11-4.57 11.48 2.43-1.01 5.06-2.58 5.74-5.32 1.7-4.7.57-9.74-1.34-14.17 2.72-5.77-1.47-11.21-4.27-15.99-.83-1.87-2.73-3.64-2.02-5.83.77-3.22.33-6.51-.4-9.69-1.92 2.47-.78 5.63-1.33 8.46m-10.11-2.39c.81 1.59 1.74 3.12 2.7 4.62-.33.71-1 2.13-1.34 2.83-1.39-2.36-2.28-5.24-4.77-6.74.46 2.82 1.71 5.39 3.02 7.89-2.43 5.95-1.16 12.43 1.29 18.16-2.47-1.63-4.64-3.75-7.36-4.97-2.25-1.08-4.77-.28-7.1.02-3.15-1.39-6.12-3.35-9.59-3.88 1.17 3.11 4.71 3.71 7.26 5.26-1.53 2.81-5.67 1.98-7.05 5.03 3.79-.73 7.71-.7 11.06 1.45 1 .9 2.03 1.75 3.1 2.56-.16-3.75-3.92-4.96-6.55-6.71 2.25-2.27 5.78-2.2 8.67-1.49 3.64 2.51 7.3 4.99 11.1 7.27-.37 1.6-.75 3.2-1.13 4.81.5 0 1.5.01 2.01.02.46-2.69.8-5.48 2.28-7.83.63-1.69 2.44-3.55 1.04-5.31-1.01 1.55-2.03 3.1-3.15 4.58l-.42 1.5c-3.6-3.17-3.68-8.31-4.62-12.68-.82-3.65 1.69-6.66 3.22-9.7 1.04.71 2.11 1.39 3.2 2.03-.98-3.71-3.38-7-6.87-8.72m8.71 11.51c-.47 4.63.12 12.14 6.03 12.66-1.4-2.43-3.93-4.59-3.7-7.65-.2-2.02.55-4.83-2.33-5.01m-43.29 1.66c-.19 3.17.09 6.34-.15 9.5-1.34 2.31-4.83 3.69-4.17 6.84-.15 2.92 2.39 4.55 4.66 5.71 1.52-1.78 3.04-3.55 4.6-5.29-.06-1.5-.12-3-.19-4.5-.9 2.89-1.57 6.1-4.39 7.77-1.83-1.27-4.3-4.32-1.73-6.09 4.28-3.25 4.38-9.81 1.37-13.94m-31.11 13.26c4.62 1.17 9.5 3.11 11.4 7.87-.95-1.99-1.9-3.98-2.76-6.01-2.17-1.93-4.37-3.83-6.64-5.64-.69 1.24-1.36 2.5-2 3.78m74.3 12.42c.28.42.84 1.28 1.12 1.7.33-.47.99-1.42 1.33-1.9.01-2.95.11-6-1.28-8.7-1.46 2.74-1.08 5.91-1.17 8.9m-60.11 6.52c-2.86-2.01-5.8-3.97-9.12-5.14.8 3.13 4.04 4.44 6.57 5.93 2.29 1.55 4.91-.16 7.22-.66l-.37-2.31-2.77.96c.02-1.82.02-3.64-.01-5.46-3.24.68-1.76 4.48-1.52 6.68m42 5.09c3.62-3.07 4.71-7.96 6.92-11.98-4.15 2.52-6.38 7.29-6.92 11.98m-22.22-1l1 2.99c-1.21 1.18-2.39 2.39-3.47 3.68 2.8.15 4.91-1.81 6.91-3.47-1.29-1.31-2.68-2.55-4.44-3.2m21.5 11.08c-1.61-.18-3.03-1.57-4.68-1.49-4.02 2.57-8.9.64-13.31 1.25 4.59 5.51 11.91 2.68 17.94 2.46.95 4.76 4.66 7.81 8.68 10.04 1.19.12 3.56.38 4.74.5-.06-.55-.2-1.65-.27-2.21-5.13-.81-8.44-5.16-11.37-9.03 1.03.03 3.09.08 4.12.11-2.45-1.98-4.32-4.47-4.57-7.71.99-1.26 1.98-2.52 2.93-3.81-3.57 1.65-6.98 6.09-4.21 9.89z"/><path d="M146.38 41.26c5.1-4.21 12.26-4.3 18.51-3.51 4.58.51 9.1 2.96 11.03 7.32-3.06 4.61-8.5 6.79-13.87 7-5.96.41-12.76-.65-16.88-5.38-.65-1.82-.59-4.27 1.21-5.43zM160.72 56.07c3.06 2.75 1.41 7.22 1.77 10.8-.96-.1-2.87-.3-3.83-.41-.05-2.21-.52-4.6.75-6.58-.11-1.42.18-2.78 1.31-3.81zM64.36 63.18c3.77-2.64 8.52-1.85 12.45-.03 5.96 2.62 11.61 6.14 16.09 10.91-1.93.34-3.85.68-5.77 1.04 2.53 1.77 5.81.95 8.5 2.32.3-.34.9-1.01 1.2-1.35 1.87 1.74 3.8 3.42 5.88 4.92 1.59-.01 3.41-.56 4.76.6 3.04 2.37 6.3 4.41 9.59 6.41-.21.51-.63 1.52-.83 2.03l-4.1-.78c-3.29 2.32-7.5 2.79-10.61 5.41-2.9 2.31-6.5 4.15-8.12 7.69-.87 2.82-1.25 5.8-1.29 8.74.22 2.61 2.92 3.91 4.41 5.74-9.22 1.17-16.55-5.26-24.64-8.35-3.53-.72-6.76-2.28-10.04-3.7-.71-3.87-2.91-7.72-1.67-11.72.91-5.1 4.53-9.87 9.64-11.26 4.21-.31 8.19 1.31 11.73 3.43 3.72 2.19 8.53 1.57 11.71-1.28-3.39-.37-6.73.55-10.12.6.03-.86.08-2.58.1-3.44 1.22-1.63 2.47-3.3 4.33-4.24-.69-.45-1.38-.9-2.07-1.34-1.86 1.99-3.61 4.07-5.31 6.19-3.52-1.26-7.25-1.53-10.95-1.36a20.98 20.98 0 01-1.04-3.17c2.39-.24 4.8.19 7.2.21-2.61-1.67-5.64-2.56-8.7-2.93-.22.36-.65 1.06-.86 1.42-1.03.52-2.2.33-3.53-.59 1.1-2.73-.31-7.26 3.15-8.45-.54-.12-1.62-.35-2.16-.47.27-.8.8-2.4 1.07-3.2m1.26 6.08l1.19 1.72c4.06 1 8.28.64 12.42.61-4.09-2.49-9.07-1.68-13.61-2.33m9.55 27.81c.25-1 .5-1.99.74-2.99 1.92-1.48 4.66-2.78 4.38-5.68-3.46 1.55-5.19 4.98-5.12 8.67m15.04-4.71l.36-2.21c-1.21 2.02-2.46 4.02-3.6 6.08l.85 1.01c-.03.22-.09.65-.13.87-2.35 1.27-4.75 2.5-6.81 4.22.65.05 1.95.13 2.61.18 3.31-1.65 6.69-3.21 10.35-3.93-.11-.44-.32-1.32-.43-1.76l-3.28.56-.3-.51c1.04-4.08 5.94-6.04 9.85-6.59.01-.24.02-.72.03-.96-3.22.84-6.91.6-9.5 3.04z"/><path d="M36.05 70.98c4.83-1.12 10.07-2.06 14.74.2 6.14 3.12 12.11 6.58 18.36 9.52-4.17 1.52-8.23 3.95-10.44 7.94-1.97 2.88-1.76 6.49-1.86 9.81-3.98-2.63-7.28-6.19-11.56-8.37-1.93 1.15-4.24 1.74-5.89 3.3-1.2 1.99-.96 4.54-.75 6.77 1.41 1.24 3.1 2.13 4.71 3.09.09 3.9-.85 7.76-.61 11.66.57 6.86 2.73 13.56 2.1 20.51-6.71 3.04-13.06-1.8-19.22-3.95-3.68-1.29-6.57-4.09-7.63-7.9 5.57-1.57 11.67-1.75 16.63-5.02.6-4.65-.59-9.32-1.23-13.9.34-.09 1.04-.26 1.39-.35.98 3.73 1.84 7.56 3.97 10.85-.23-4.79-2.08-9.33-2.27-14.12-.64-4.55.54-9.03 1.04-13.52-.49-.01-1.47-.02-1.96-.03-.8 4.23-1.54 8.49-1.35 12.82.18.69-.43 3.77-1.17 1.81-1.55-4.61-.39-9.43-.66-14.16-.14-3.7.88-7.32.81-11.02-.15-2.32 1.26-4.4 2.85-5.94m3.01 3.84c-1.31.52-3.39.09-3.98 1.7 2.26 1.03 4.68.49 6.84-.51-.19-.66-.57-1.96-.76-2.62-.53.36-1.57 1.08-2.1 1.43m5.49 4.98c3.29 1.31 6.69 2.32 10.09 3.3-1.63-3.64-6.65-5.03-10.09-3.3m-5.68 3.99c-.13.45-.37 1.35-.5 1.8 2.2.24 4.87-.44 6.42 1.58 2.66 2.72 5.84 4.94 9.51 6.02-1.1-3.81-5.94-4.23-8.02-7.41-1.57-2.76-4.74-2.23-7.41-1.99m1.14 35.7c.09 1.38-.22 2.57-.95 3.55-2.43 1.37-5.23 1.71-7.9 2.31.95.77 1.91 1.53 2.87 2.3 1.6-.67 2.82-3.69 4.75-2.45.85 1.27 1.63 2.59 2.6 3.78.42-2.95.64-5.92.61-8.89-.65-.23-1.31-.42-1.98-.6zM63.81 138.13c.23-7.6-.08-15.2-.57-22.79 5.26 4.31 11.45 7.3 16.81 11.49-2.07 1.39-4.71 2.14-5.98 4.49 3.12-.48 5.95-1.9 8.81-3.16 3.99 3.06 8.08 5.96 12.17 8.89-13.12 6.26-26.35 12.3-39.45 18.63-1.15.53-2.31 1.09-3.57 1.33-2.12-.76-3.9-2.19-5.79-3.37-.24-2.01-.47-4.03-.71-6.05 5.89-3.52 12.26-6.17 18.28-9.46z"/></g><g fill="#333"><path d="M143.64 41.54c3.15-3.96 8.56-5.12 13.36-5.48 5.82-.06 12.27.23 17.07 3.92 2.99 2.09 3.51 7.16.5 9.45-2.97 2.33-6.66 3.58-10.37 4.09l.56.69c-.55.38-1.63 1.13-2.18 1.5.46.79.97 1.55 1.54 2.27-.09 3.65 2.25 9.16-1.93 11.25-2.18.2-3.96-1.14-5.55-2.42.1-3.08.16-6.17.29-9.25-.97-.02-2.91-.04-3.88-.05-3.62 3.41-4.41 8.39-6.87 12.51-.24 1.55 1.14 2.76 2.23 3.64 4.07 3.01 9.43 3.04 14.27 2.8.73.55 1.45 1.11 2.17 1.68-6.91.04-15.03.48-20.14-5.14 2.46 3.46-.35 6.88-1.7 10.01-3.14 5.29.21 11.25.65 16.81-.36.15-1.06.46-1.42.61-.91 4.46-.61 9.2-2.87 13.31 4.27 1.72 6.22 5.93 8.82 9.37 2.57-2.82 3.76-8.16 8.25-8.29-2.32 2.91-4.81 5.68-7.39 8.36-1.18 2.85-3.07 5.59-5.88 7.01-3.82-.11-6.91-4.02-6.3-7.83 1.46 1.57 2.62 3.39 4.14 4.9 1.41.85 3.21.38 4.77.64.23-3.66-1.4-7.11-3.65-9.9-1.98-2.67-6.01-2.38-7.76-5.34 1.14-.9 2.64.02 3.91.03 1.81-4.07 1.29-8.61 2.64-12.8 1.1-3.44.17-7.03-.53-10.44-1.44 2.68-.57 5.92-2.12 8.55-.89-2.85-1.35-5.82-1.57-8.79 3.84-3.51 4.46-8.9 6.66-13.36.34-1.16.69-2.31 1.01-3.48-.31-1.52-.4-3.13.64-4.4 2.45-3.76 4.06-8 6.75-11.61 4 .78 8.08-.01 11.43-2.35-6.04-.47-12.74-.38-17.69-4.44-2.68-1.57-4.03-5.49-1.86-8.03m2.74-.28c-1.8 1.16-1.86 3.61-1.21 5.43 4.12 4.73 10.92 5.79 16.88 5.38 5.37-.21 10.81-2.39 13.87-7-1.93-4.36-6.45-6.81-11.03-7.32-6.25-.79-13.41-.7-18.51 3.51m14.34 14.81c-1.13 1.03-1.42 2.39-1.31 3.81-1.27 1.98-.8 4.37-.75 6.58.96.11 2.87.31 3.83.41-.36-3.58 1.29-8.05-1.77-10.8z"/><path d="M136.95 57.94c2.28-3.2 4.18-6.78 7.45-9.12-1.48 8.95-10.42 14.05-12.66 22.69-1.56 4.36-1.5 9.03-1.85 13.58-1.26 4.51-3.18 9.15-2.15 13.91.27 1.28.02 2.46-.75 3.55-.58-1.73-1-3.51-1.52-5.25-4.74 7.85-1.95 17.16-2.02 25.73 1.6-2.07 3.12-4.19 4.66-6.31-1.75 4.23-2.23 9.76-6.62 12.19.5-1.67 1.07-3.31 1.63-4.96l-1.96-.76c-1.27-7.02-.84-14.13-.19-21.19.72-3.36 2.68-6.27 4.17-9.32-1.39-.17-2.78-.34-4.16-.54-.27-.49-.8-1.47-1.06-1.97-1.69.07-3.39.14-5.08.19l-1.8 1.68c-7.47 1.1-13.72 5.92-17.74 12.16-1.1 4.14-1.01 8.36 1.1 12.17 2.26.28 5.4-.25 6.7 2.13 1.72 2.71 4.3 4.66 6.33 7.11 3.77 4.8 10.32 6.08 14.05 10.96 4.23 1.45 8.64 2.7 13.16 1.97.78.46 1.55.92 2.32 1.39-1.93.63-3.85 1.3-5.75 2.02-4.38-.93-9.47-1.08-12.79-4.49-3-2.85-7.4-3.63-10.21-6.7-3.3-3.69-7.2-6.98-9.16-11.65-2.97.82-5.99 1.79-9.11 1.42-2.69-.13-4.64-2.21-6.62-3.77-1.83-1.8-4.55-1.77-6.83-2.6-5.89-2.31-12-4.08-17.71-6.84-1.32-.82-2.2-2.14-3.23-3.27.01-.57.02-1.7.03-2.27-4.38-1.85-7.36-5.6-10.64-8.85-1.84-2.25-3.99.52-5.64 1.55-1.67.87-.67 3-.97 4.47 3.27 1.92 6.57 3.83 9.54 6.21 8.33 6.58 18.11 10.94 26.7 17.13 4.24 2.86 9.03 4.84 13.13 7.94 9.4 6.66 20.34 10.69 29.86 17.15 3.13 2.82 7.36 3.93 10.5 6.74 3.81 3.41 8.21 6.2 12.91 8.22 6.21 1.08 12.39-1.67 17.87-4.38 3.5-1.46 6.98-2.98 10.46-4.49.17-.86.49-2.58.65-3.44l-2.64 1.27c.66-.68 1.35-1.35 2.04-2 3.53-1.45 6.17-4.26 8.53-7.16.05-5.07.52-10.39-1.85-15.07-2.36-5.53-7.03-12.09-13.94-10.67-.02-.68-.07-2.03-.1-2.71 1.33-.19 2.66-.26 4-.37-.52.42-1.57 1.26-2.09 1.68 1.05-.09 3.14-.26 4.19-.35 3.49 3.15 7.78 5.84 9.67 10.34 1.44 3.57 3.5 7.06 3.78 10.97-.21 4.58-2.9 8.56-5.81 11.92.29.08.86.23 1.15.31-1.2.36-2.38.77-3.53 1.23a35.83 35.83 0 00-.91 3.42c-2.72 2.53-6.16 3.98-9.38 5.76l.68.18c-6.37 2.35-12.62 5.06-19.24 6.74.02 5.83.14 11.67-.16 17.51 4.3-1.98 8.65-3.87 12.87-6.01 3.77-2.31 6.91 2.09 10.17 3.48.82 3.41 1.02 6.92 1.12 10.41-7.19 3.91-14.73 7.13-22.09 10.71-8.87 3.85-17.37 8.49-26.3 12.21-2.44-1.74-5.38-2.97-7.34-5.26-.57-2.53-.93-5.14-.86-7.74 1.88-2.19 4.81-3.01 7.26-4.38 1.07.32 2.13.64 3.21.96-2.75 1.17-5.44 2.46-8.14 3.7-.06 1.98-.19 3.96.01 5.94 1.54 1.98 4.01 3.01 5.99 4.52 15.42-7.01 30.67-14.39 46.02-21.55-.11-2.41-.23-4.81-.35-7.22-2.25-1.49-4.51-2.95-6.82-4.34-4.96 2.27-9.92 4.53-14.88 6.78-.21 2.9 1.63 6.67-1.2 8.74-2.35-9.39-.37-19.13.58-28.59-3.82-1.71-7.85-2.88-11.69-4.53.15 6.05.27 12.09.45 18.13.21 2.43-.7 4.7-1.83 6.79-1.28-8.84-.2-17.83-1.34-26.67-2.5-3.1-6.43-4.46-9.58-6.75-4.56-3.27-9.87-5.27-14.53-8.39-3.1-1.78-5.87-4.17-9.2-5.52-1.71.16-3.2 1.11-4.75 1.76-13.69 6.53-27.42 12.96-41.17 19.35-2.52-1.57-5.22-2.93-7.41-4.96-1.23-2.69-.75-5.75-.83-8.61 6.01-2.99 12.02-5.98 17.96-9.1.11-7.47-.11-14.93-.42-22.4-2.63-1.22-5.25-2.46-7.76-3.89-2.65-2-5-4.36-7.61-6.42-.72 5.54-1.21 11.15-1.16 16.72 1.58 5.31 3.57 10.9 1.78 16.45-3.36.98-6.93 2.16-10.43 1.15-5.71-1.67-10.78-4.82-15.98-7.62-2.77-1.26-3.17-4.83-2.6-7.46 3.34-4.7 9.84-2.76 14.31-5.57.49-1.27.98-2.53 1.47-3.8-1.25-6.95-3.12-13.93-2.55-21.06-.19-5.62.92-11.2.27-16.81.65-4.27 4.23-8.86 9.05-7.76 6.27 1.36 14.07-.02 18.77 5.27.5.02 1.49.07 1.99.1.16-3.24-.41-6.59.51-9.73 1.95-2.76 5.07-5.04 8.64-4.49 7.65-.34 13.65 4.85 19.62 8.82 3.47 3.01 7.05 5.9 10.61 8.81 1.62.92 3.57 1.02 5.31 1.68 6.94 3.25 12.22 8.97 18.71 12.94l1.13-.12c.72-2.89 1.63-5.74 2.26-8.65.26-4.03.52-8.1 1.81-11.96 1.34-4.98 4.71-8.97 7.55-13.15m-72.59 5.24c-.27.8-.8 2.4-1.07 3.2.54.12 1.62.35 2.16.47-3.46 1.19-2.05 5.72-3.15 8.45 1.33.92 2.5 1.11 3.53.59.21-.36.64-1.06.86-1.42 3.06.37 6.09 1.26 8.7 2.93-2.4-.02-4.81-.45-7.2-.21.26 1.08.61 2.14 1.04 3.17 3.7-.17 7.43.1 10.95 1.36 1.7-2.12 3.45-4.2 5.31-6.19.69.44 1.38.89 2.07 1.34-1.86.94-3.11 2.61-4.33 4.24-.02.86-.07 2.58-.1 3.44 3.39-.05 6.73-.97 10.12-.6-3.18 2.85-7.99 3.47-11.71 1.28-3.54-2.12-7.52-3.74-11.73-3.43-5.11 1.39-8.73 6.16-9.64 11.26-1.24 4 .96 7.85 1.67 11.72 3.28 1.42 6.51 2.98 10.04 3.7 8.09 3.09 15.42 9.52 24.64 8.35-1.49-1.83-4.19-3.13-4.41-5.74.04-2.94.42-5.92 1.29-8.74 1.62-3.54 5.22-5.38 8.12-7.69 3.11-2.62 7.32-3.09 10.61-5.41l4.1.78c.2-.51.62-1.52.83-2.03-3.29-2-6.55-4.04-9.59-6.41-1.35-1.16-3.17-.61-4.76-.6-2.08-1.5-4.01-3.18-5.88-4.92-.3.34-.9 1.01-1.2 1.35-2.69-1.37-5.97-.55-8.5-2.32 1.92-.36 3.84-.7 5.77-1.04-4.48-4.77-10.13-8.29-16.09-10.91-3.93-1.82-8.68-2.61-12.45.03m-28.31 7.8c-1.59 1.54-3 3.62-2.85 5.94.07 3.7-.95 7.32-.81 11.02.27 4.73-.89 9.55.66 14.16.74 1.96 1.35-1.12 1.17-1.81-.19-4.33.55-8.59 1.35-12.82.49.01 1.47.02 1.96.03-.5 4.49-1.68 8.97-1.04 13.52.19 4.79 2.04 9.33 2.27 14.12-2.13-3.29-2.99-7.12-3.97-10.85-.35.09-1.05.26-1.39.35.64 4.58 1.83 9.25 1.23 13.9-4.96 3.27-11.06 3.45-16.63 5.02 1.06 3.81 3.95 6.61 7.63 7.9 6.16 2.15 12.51 6.99 19.22 3.95.63-6.95-1.53-13.65-2.1-20.51-.24-3.9.7-7.76.61-11.66-1.61-.96-3.3-1.85-4.71-3.09-.21-2.23-.45-4.78.75-6.77 1.65-1.56 3.96-2.15 5.89-3.3 4.28 2.18 7.58 5.74 11.56 8.37.1-3.32-.11-6.93 1.86-9.81 2.21-3.99 6.27-6.42 10.44-7.94-6.25-2.94-12.22-6.4-18.36-9.52-4.67-2.26-9.91-1.32-14.74-.2m27.76 67.15c-6.02 3.29-12.39 5.94-18.28 9.46.24 2.02.47 4.04.71 6.05 1.89 1.18 3.67 2.61 5.79 3.37 1.26-.24 2.42-.8 3.57-1.33 13.1-6.33 26.33-12.37 39.45-18.63-4.09-2.93-8.18-5.83-12.17-8.89-2.86 1.26-5.69 2.68-8.81 3.16 1.27-2.35 3.91-3.1 5.98-4.49-5.36-4.19-11.55-7.18-16.81-11.49.49 7.59.8 15.19.57 22.79zM171.21 61.93c-2.36-3.47-1.69-8.79 2.31-10.71-.41 2.91-1.65 5.91-.58 8.83.41 2.58 2.38 4.35 3.87 6.33.78 1.6.48 3.5.7 5.22-2.99 3.1-6.92 5.03-11.07 6.02-.74-.52-1.47-1.04-2.19-1.56 5.08-.24 9.8-2.93 12.63-7.14-1.9-3.7-5.82-5.33-9.3-7.13.9.04 2.72.11 3.63.14z"/><path d="M136.76 68.59c2.5-4.73 5.05-9.47 7.98-13.96-1.54 5.12-2.55 11.48-7.98 13.96zM65.62 69.26c4.54.65 9.52-.16 13.61 2.33-4.14.03-8.36.39-12.42-.61l-1.19-1.72zM176.31 79.9c.55-2.83-.59-5.99 1.33-8.46.73 3.18 1.17 6.47.4 9.69-.71 2.19 1.19 3.96 2.02 5.83 2.8 4.78 6.99 10.22 4.27 15.99 1.91 4.43 3.04 9.47 1.34 14.17-.68 2.74-3.31 4.31-5.74 5.32 2.42-3.37 4.81-7.15 4.57-11.48-.71-3.64-2.63-7.11-1.78-10.93 1.41-7.69-8.29-12.49-6.41-20.13zM39.06 74.82c.53-.35 1.57-1.07 2.1-1.43.19.66.57 1.96.76 2.62-2.16 1-4.58 1.54-6.84.51.59-1.61 2.67-1.18 3.98-1.7zM166.2 77.51c3.49 1.72 5.89 5.01 6.87 8.72-1.09-.64-2.16-1.32-3.2-2.03-1.53 3.04-4.04 6.05-3.22 9.7.94 4.37 1.02 9.51 4.62 12.68l.42-1.5c1.12-1.48 2.14-3.03 3.15-4.58 1.4 1.76-.41 3.62-1.04 5.31-1.48 2.35-1.82 5.14-2.28 7.83-.51-.01-1.51-.02-2.01-.02.38-1.61.76-3.21 1.13-4.81-3.8-2.28-7.46-4.76-11.1-7.27-2.89-.71-6.42-.78-8.67 1.49 2.63 1.75 6.39 2.96 6.55 6.71-1.07-.81-2.1-1.66-3.1-2.56-3.35-2.15-7.27-2.18-11.06-1.45 1.38-3.05 5.52-2.22 7.05-5.03-2.55-1.55-6.09-2.15-7.26-5.26 3.47.53 6.44 2.49 9.59 3.88 2.33-.3 4.85-1.1 7.1-.02 2.72 1.22 4.89 3.34 7.36 4.97-2.45-5.73-3.72-12.21-1.29-18.16-1.31-2.5-2.56-5.07-3.02-7.89 2.49 1.5 3.38 4.38 4.77 6.74.34-.7 1.01-2.12 1.34-2.83-.96-1.5-1.89-3.03-2.7-4.62zM44.55 79.8c3.44-1.73 8.46-.34 10.09 3.3-3.4-.98-6.8-1.99-10.09-3.3zM38.87 83.79c2.67-.24 5.84-.77 7.41 1.99 2.08 3.18 6.92 3.6 8.02 7.41-3.67-1.08-6.85-3.3-9.51-6.02-1.55-2.02-4.22-1.34-6.42-1.58.13-.45.37-1.35.5-1.8zM75.17 97.07c-.07-3.69 1.66-7.12 5.12-8.67.28 2.9-2.46 4.2-4.38 5.68-.24 1-.49 1.99-.74 2.99zM90.21 92.36c2.59-2.44 6.28-2.2 9.5-3.04-.01.24-.02.72-.03.96-3.91.55-8.81 2.51-9.85 6.59l.3.51 3.28-.56c.11.44.32 1.32.43 1.76-3.66.72-7.04 2.28-10.35 3.93-.66-.05-1.96-.13-2.61-.18 2.06-1.72 4.46-2.95 6.81-4.22.04-.22.1-.65.13-.87l-.85-1.01c1.14-2.06 2.39-4.06 3.6-6.08l-.36 2.21z"/><path d="M174.91 89.02c2.88.18 2.13 2.99 2.33 5.01-.23 3.06 2.3 5.22 3.7 7.65-5.91-.52-6.5-8.03-6.03-12.66zM131.62 90.68c3.01 4.13 2.91 10.69-1.37 13.94-2.57 1.77-.1 4.82 1.73 6.09 2.82-1.67 3.49-4.88 4.39-7.77.07 1.5.13 3 .19 4.5-1.56 1.74-3.08 3.51-4.6 5.29-2.27-1.16-4.81-2.79-4.66-5.71-.66-3.15 2.83-4.53 4.17-6.84.24-3.16-.04-6.33.15-9.5zM100.51 103.94c.64-1.28 1.31-2.54 2-3.78 2.27 1.81 4.47 3.71 6.64 5.64.86 2.03 1.81 4.02 2.76 6.01-1.9-4.76-6.78-6.7-11.4-7.87zM174.81 116.36c.09-2.99-.29-6.16 1.17-8.9 1.39 2.7 1.29 5.75 1.28 8.7-.34.48-1 1.43-1.33 1.9-.28-.42-.84-1.28-1.12-1.7zM114.7 122.88c-.24-2.2-1.72-6 1.52-6.68.03 1.82.03 3.64.01 5.46l2.77-.96.37 2.31c-2.31.5-4.93 2.21-7.22.66-2.53-1.49-5.77-2.8-6.57-5.93 3.32 1.17 6.26 3.13 9.12 5.14zM156.7 127.97c.54-4.69 2.77-9.46 6.92-11.98-2.21 4.02-3.3 8.91-6.92 11.98zM40.01 119.49c.67.18 1.33.37 1.98.6.03 2.97-.19 5.94-.61 8.89-.97-1.19-1.75-2.51-2.6-3.78-1.93-1.24-3.15 1.78-4.75 2.45-.96-.77-1.92-1.53-2.87-2.3 2.67-.6 5.47-.94 7.9-2.31.73-.98 1.04-2.17.95-3.55zM134.48 126.97c1.76.65 3.15 1.89 4.44 3.2-2 1.66-4.11 3.62-6.91 3.47 1.08-1.29 2.26-2.5 3.47-3.68l-1-2.99zM155.98 138.05c-2.77-3.8.64-8.24 4.21-9.89-.95 1.29-1.94 2.55-2.93 3.81.25 3.24 2.12 5.73 4.57 7.71-1.03-.03-3.09-.08-4.12-.11 2.93 3.87 6.24 8.22 11.37 9.03.07.56.21 1.66.27 2.21-1.18-.12-3.55-.38-4.74-.5-4.02-2.23-7.73-5.28-8.68-10.04-6.03.22-13.35 3.05-17.94-2.46 4.41-.61 9.29 1.32 13.31-1.25 1.65-.08 3.07 1.31 4.68 1.49z"/></g></svg>