<svg width="229pt" height="275pt" viewBox="0 0 229 275" xmlns="http://www.w3.org/2000/svg"><g fill="#FFF"><path d="M0 0h229v275H0V126.76c10.34-11.31 20.57-22.71 30.87-34.06 2.31-2.51 4.34-5.36 7.12-7.4 3.38.54 6.55 2.26 10.04 2.05 2.62.02 4.92-1.38 7.38-2.06l-3.55 1.94c7.12.82 14.27 1.59 21.26 3.22 5.01 1.2 9.89-1.33 14.92-1.21 3.83.17 7.44-1.18 10.87-2.72 1.89 3.95 4.67 7.45 6.16 11.59.51 3.66-.16 7.4.21 11.09-1.35 2.54-1.78 5.45-3.16 7.98-1.58 3.07-3.14 6.29-3.13 9.83.06 3.48-1.54 6.64-2.07 10.02.53 3.09 2.23 5.86 2.65 8.98.28 3.33-.11 6.68-.01 10.02.07 2.48 1.96 4.33 3.38 6.19.77 2.8 2 5.46 2.8 8.25.47 3.16-.22 6.35 0 9.52 1.23 9.12-7.03 16.09-7.09 25.03.25 5.69.17 11.42 1.33 17.02.78 3.72-.02 7.49-.97 11.09-1.03 2.44 1.17 4.49 1.69 6.78.36 2.67.15 5.39.57 8.05 2.48 3.39 4.92 6.92 7.98 9.82 5.2 1.2 11.77 3 15.98-1.43-4.96 1.1-10.15.98-14.66-1.57-.27-.52-.79-1.57-1.05-2.09-2.33-1.32-5.28-2.38-6.22-5.15-1.24-3.33 1.03-6.91-.26-10.22-1.95-4.28.43-8.89-.37-13.34-1.03-6.34-1.96-12.68-2.81-19.04-.6-6.38 5.11-10.6 6.96-16.23 2.28-4.62 1.14-9.8 1.02-14.7-.03-4.11-1.54-8.03-3.35-11.65 6.54 1.14 13.72 2.76 19.97-.35-.71 4.69-2.94 9.14-2.48 13.97.14 2.97-.07 6.01-1.31 8.75-1.81 4.18-2.55 8.74-2.44 13.28.01 4.39-1.62 8.53-3.3 12.51-2.06 5.94-3.16 12.2-3.61 18.46.69 5.18 5.24 8.59 7.3 13.19 1.95 4.24 4.87 7.94 8.41 10.97-.34 1.06-.67 2.13-1 3.21.89-.82 1.77-1.63 2.65-2.45-2.54-4.26-5.61-8.18-7.76-12.66-1.86-4.32-6.05-7.37-6.98-12.12-.25-7.66 1.05-15.5 4.86-22.24.99 5.81 2.17 12.45-1.31 17.7-1.87 2.77-2.58 6.64-.92 9.66 1.13 2.19 3.86 2.04 5.91 2.65 4.57.58 7.01 5.35 11.49 6.17 4 .15 8.54.45 11.57-2.7.24.45.71 1.35.95 1.79.57-1.99 1.13-3.98 1.67-5.98-3.14-3.82-8.2-5.37-11.1-9.43-1.82-2.6-3.69-5.4-4.13-8.61-.15-6.13 1.8-12.02 2.76-18.01.84-3.94.38-8 .9-11.98.64-2.85 3.14-5.12 2.93-8.19-.3-11.53 3.97-22.59 3.27-34.17-.05-2.43-.13-4.86-.3-7.29-.59-.63-1.19-1.26-1.78-1.89-.5-2.27-1.06-4.52-1.63-6.76.9-5.3.01-10.59-1.69-15.63 2.07-3.3 3.06-7.09 3.2-10.97 3.49-3.94 7.3-9.11 4.91-14.63 3.96.49 6.57 4.04 10.48 4.57 4.33.74 8.45 2.8 12.91 2.65 3.59-.71 7.12-1.69 10.73-2.31-.09 1.02-.23 2.04-.35 3.07 6.51-.16 12.55-3.54 16.61-8.54-1.3-1.62-2.67-3.17-4.09-4.68-1.33 1.27-2.58 2.63-3.62 4.15-5.31 3.88-11.87 5.43-18.3 6.16-5.08.93-9.75-1.86-14.7-2.46-3.25-1.9-6.57-3.7-10.43-3.91.57-1.34 1.14-2.68 1.71-4.01 2.22 1.56 4.52 3.58 7.43 3.43 2.33-.25 4.55-1.03 6.82-1.53l-.08-1.75c-4.57 1.67-9.48 1.4-13.76-.95 3.29-3.69.57-8.4-2.41-11.2 1.17 3.92 2.14 8.17-.1 11.93-2.4.25-5.02 1.13-7.19-.4-.64-3.9-.05-8.08-2.26-11.62-.34 3.16.4 6.37-.13 9.5-1.48 1.56-3.26 2.79-4.93 4.12.51.66 1.03 1.32 1.56 1.98-2.11.49-2.88 2.26-3.33 4.15 2.11-1.74 4.44-3.25 7.23-3.58-.28 1.97-.63 3.92-1.12 5.85.3.46.9 1.37 1.2 1.83-1.09 3.42-2.89 6.52-4.61 9.64.15.89.47 2.69.62 3.58l1.83-1.15c-.04-.7-.13-2.11-.17-2.81 2.32-3.75 4.42-7.9 3.78-12.46 1.33.65 2.63 1.36 3.95 2.04l-.6-2.08-3.05-.03c-.25-1.79-.41-3.59-.85-5.34-1.09-.08-3.27-.23-4.36-.31.78-1.57 1.99-2.88 3.88-2.93 1.87 1.83 4.14 3.03 6.79 2.15-.72 2.62.39 5.08 1.65 7.32-.89 3.54-3.28 6.35-5.02 9.46-1.05 4.27-1.86 8.61-3.21 12.8-2.6 2.62-6.51 3.4-10.03 2.49-5.4-1.22-11.38-1.77-15.72-5.57-2.22-1.92-4.33-4.66-3.87-7.77.83-5.94-1.03-12.1-4.94-16.64.02-1.03.05-2.07.07-3.11 3.31-3.02 6.57-6.44 7.44-11.02-2.59 2-4.58 4.61-6.58 7.16-2.87 3.71-7.52 5.3-11.92 6.34 2.39-3.35 4.74-6.84 8.38-8.98-2.06.85-4.11 1.73-6.14 2.64-1.41 2.15-2.77 4.79-5.47 5.5-4.31 1.25-8.61 3.75-13.25 2.66-4.38-1.02-8.87-1.36-13.32-1.87-.4-.53-1.19-1.57-1.58-2.09-.56.05-1.68.13-2.24.18 2.27-1.61 4.5-3.27 6.59-5.11 4.93 1.3 8.08-3.73 12.63-4.4 4.63-1.48 8.34 2.67 12.76 3.15a57.247 57.247 0 00-3.54-3.25c3.4-2.7 6.12-6.7 10.66-7.57 5.11-.68 10.21-1.73 15.39-1.17-1.93-1.19-3.9-3.29-6.38-2.4-2.74.48-5.36 1.44-8.01 2.23 2.53-5.46 7.97-9.54 14.1-9.6 2.83-2.49 6.08-4.53 9.92-4.91 1.15-3.06 3.14-5.82 3.85-9.02-.12-4.45-1.44-9.53 1.57-13.38 2.26-3.45 6.89-4.01 10.66-3.69 2.85 1.02 5.83 1.99 8.33 3.75 1.99 2.64 3.74 6.03 2.54 9.39-1.33 4.5-.56 9.69-3.57 13.59-1.34 1.32-3.51 1.83-5.26 1.05-3.33-1.21-5.85-3.91-9.17-5.17 1.04 2.98 3.51 4.93 6.05 6.57-1.27 2.54-1.13 5.14.67 7.4-.45.52-1.36 1.55-1.82 2.07.95-.69 1.87-1.41 2.77-2.17 1.53.62 3.07 1.23 4.62 1.81 1.96 3.13 2.75 7.3 6.19 9.23 3.21 1.82 5.85 4.42 7.96 7.43.95.42 1.91.84 2.87 1.26 0-.47-.01-1.43-.01-1.91 5.25.41 10.64.81 15.38 3.37 2.42 1.48 5.22.62 7.81.21.72-1.99 1.36-4 2.18-5.95-.5-.48-1.02-.95-1.54-1.4-.9 1.88-1.82 3.74-2.78 5.58-1.41-.08-2.81-.16-4.22-.23 2.3-2.7 5.05-4.96 8.25-6.5.36.29 1.07.88 1.42 1.18 2.49.64 5.78-.83 7.62 1.43 1.67 2.6 1.9 5.79 2.73 8.71.3-3.03.4-6.16-.43-9.12-3.58-1.84-7.51-2.96-11.36-4.09-4.16 1.97-7.96 4.67-10.51 8.58-5.41-1.36-10.68-3.83-16.4-3.33-2.17-3.11-5-5.64-8.05-7.87-2.56-1.88-3.3-5.2-5.54-7.36-1.9-1.9-4.47-2.84-6.79-4.07.32-.69.96-2.07 1.29-2.76 2.44-.42 5.6.32 7.42-1.71 2.59-4.38 2.32-9.68 3.49-14.49 1.25-4.51-.89-9.21-3.85-12.55-2.12-1.41-4.67-1.99-7.03-2.9-6.47-2.64-14.1 2.56-15.39 9.12-1.08 3.5.41 7.37-1.36 10.7-.88 2.01-1.84 4.27-4.11 5.03-2.76 1.13-4.84 3.26-6.71 5.53-4 .73-8.06 1.79-11.49 4.05-2.47 1.84-3.84 4.7-4.9 7.5-4.5 1.58-8 4.82-11.69 7.71-6.38-1.85-12.46 1.62-18.25 3.83.15-3.14 1.21-6.82-2.08-8.76.03-.47.1-1.42.13-1.9-1.41-.98-2.74-2.11-4.33-2.81-2.47-.06-4.82.98-7.24 1.35-4.18.91-9.09 1.25-11.96 4.86-3.13 3.2-2.64 7.98-2.7 12.09-12.14 13.3-24.3 26.59-36.22 40.09V0m125.79 48.23c.07 3.14-.18 6.63 2 9.18 1.28-3.13 1.09-7.18-2-9.18m-14.66 11.35c1.88-.34 3.71-.86 5.59-1.17 1.7 1.34 3.45 2.63 5.25 3.86 2.57-.11 5.18-.39 7.73.09 1.91 1.63 2.84 4.05 4.27 6.06.52-2.96-.67-6.4-3.45-7.81-3.68-1.96-8.4.58-11.59-2.59-2.16-1.96-6.91-1.21-7.8 1.56m.9 9.42c-1.78-.22-.34 1.65-.5 2.43 1.5-.48 3.01-.92 4.52-1.34.52 1.4 1.04 2.8 1.59 4.19.54-1.13 1.08-2.27 1.61-3.4-1.76-2.28-4.59-2.88-7.22-1.88m.28 3.73c2.29 3.09 4.83 6.03 6.53 9.52 1.22 3.08 5.14 2.81 7.71 1.77-1.8-.52-3.61-.97-5.42-1.42-1.6-4.3-4.03-8.63-8.82-9.87m-3.44 15.25c-.99 1.7-3.84 3.95-1.24 5.55 1.73 2.83 6.16 3.03 7.35-.37-1.06.49-2.11 1-3.15 1.53-.87-.19-2.61-.56-3.48-.74.44-1.42 1.07-2.76 1.93-3.97 1.62.74 3.31 1.04 5.06.91 2.39 1.4 4.8 3.77 7.8 2.92-2.19-1.48-4.64-2.48-7.08-3.46.03-1.06.1-2.11.11-3.17-1.03.99-2.07 1.99-3.1 2.99-3.53-1.82-.29-5.69-.38-8.48-2.02 1.59-3.49 3.7-3.82 6.29m17.76 6.47c-1.5.26-2.93.76-4.33 1.36.27 1.02.5 2.05.69 3.09-.96.96-2.09 1.73-3.15 2.57 1.12 2.56 2.23 5.14 2.87 7.87l-2.64-.28c.46.96.93 1.93 1.4 2.9-.18.8-.55 2.42-.73 3.22 1.02.3 3.06.88 4.08 1.18-.81-2.79-.06-5.53.36-8.29-.72-1.64-1.82-3.16-1.76-5.02-.6.14-1.81.43-2.42.57 2.08-2.02 4.37-4.12 4.92-7.13 2.32-1.76 5.98-2.24 7.06-5.26-2.23.83-4.29 2.03-6.35 3.22m33.52 3.54c-6.52 4.65-13.06 9.26-19.51 13.99-.05 1.05-.1 2.09-.14 3.14 4.97-3.13 9.61-6.75 14.44-10.1 3.68-2.68 7.62-5.04 10.87-8.26-1.91.12-4.09-.12-5.66 1.23m-71.91 51.26c-11.48 8.22-22.99 16.39-34.48 24.58-1.41.84-2.22 2.27-2.61 3.85 2.92-.34 5.11-2.34 7.4-3.96 12.92-9.26 25.89-18.45 38.82-27.7-.09-.91-.17-1.82-.25-2.73-3.16 1.68-5.97 3.9-8.88 5.96m30.46 22.1c-1.34 2.88-3.84 4.85-6.13 6.93 3.24-.55 5.8-2.82 7.33-5.64-.3-.32-.9-.96-1.2-1.29m-4.35 10.21c-.33 3.07 3.15 1.87 4.75 1.01-1.58-.35-3.14-.78-4.75-1.01m-3.16 31.4c1.51-4.31 1.33-8.96 2.3-13.38 1.39-3.97 3.48-7.66 4.81-11.66-6.74 6.29-8.16 16.3-7.11 25.04m-4.99 22.53c2.75-2.03 3.03-5.65 3.95-8.67-3.31 1.57-3.23 5.58-3.95 8.67z"/><path d="M38.93 72.96c3.6-3.62 8.57-5.36 13.37-6.75-.57 2.06-2.69 2.18-4.25 2.93-3.36 1.26-6.39 3.41-8.47 6.35.4 1.86.47 3.84 1.23 5.61 2.23 1.53 4.92 3.39 7.73 2.33 3.86-1.31 8.33-2.57 10.27-6.53 1.09.42 1.87 1.33 2.77 2.04-4.7 3.63-10.3 7.33-16.51 6.65-2.03-.24-3.89-1.16-5.78-1.89-1.66-3.32-2.27-7.38-.36-10.74z"/><path d="M51.97 68.3c2.3-.37 4.54-2.87 6.88-1.42 3.55 1.87 4.38 6.27 3.83 9.93-1.16-.7-2.33-1.4-3.51-2.09l-2.31 1.71c-.85 2.07-2.44 3.63-4.19 4.95-.01-3.68-1.27-7.23-2.8-10.54.72-.83 1.42-1.68 2.1-2.54zM41.3 76.91c1.62-2.55 4.52-3.83 6.84-5.62.7 3.38 1.82 6.68 3.44 9.73-3.41 1.6-7.02 1.51-10.46.06 0-1.39.06-2.78.18-4.17zM191.01 85.96c1.59-.09 1.73 1.45 2.15 2.59-2.95 2.43-6.33 4.2-9.7 5.95-1.11-.38-2.21-.79-3.28-1.26 3.92-1.8 9.03-2.85 10.83-7.28zM106.67 111.78c5.4 4.54 12.31 6.78 19.18 7.92 3.84.78 7.75-.63 10.57-3.25-.33 1.81-.04 3.61.45 5.37.71 2.7-.49 5.43-.23 8.16.31 4.57 2.94 8.54 3.62 13.03.75 3.57.04 7.22.59 10.8-1.95 2.11-4.62 2.95-7.46 2.73-.92-.77-1.87-1.5-2.85-2.19-.82-3.07-1.38-6.23-1.3-9.42 1.82-1.14 3.21-2.78 4.54-4.43-.35.07-1.05.2-1.4.27 1.02-2.09.73-4.17-.35-6.14-1.06 2.68-1.23 6.2-4.79 6.51.98 4.38-.59 8.53-1.46 12.76 1.01 1.02 2 2.05 2.99 3.1-2.27 1.85-4.88 3.27-7.63 4.26-4.08.9-8.24-.09-12.32-.49-2.95-.19-6.19-2.49-6.18-5.65-.19-5.09-.84-10.13-1.79-15.12-.86-1.55-1.75-3.21-.99-5 1.24-4.88-.34-10.64 3.28-14.72 1.16-1.73 3.48-2.45 4.24-4.43-.16-1.37-.46-2.72-.71-4.07m8.47 10.8c1.42 2.75-.45 5.27-1.36 7.81 2.39-2.03 3.75-4.86 5.03-7.65-1.22-.05-2.45-.11-3.67-.16m-1.27 9.01c4.14 3.02 9.61 1.22 13.44-1.48-4.43 1.09-8.84 2.31-13.44 1.48z"/><path d="M130.38 156.96c2.93 1.92 6.43 1 9.58.23-.21 2.25-.23 4.53-.55 6.77-1.95 3.75-3.3 7.95-6.41 10.96-.79.16-2.36.49-3.15.65 1.38.15 2.76.23 4.15.31 1.92-2.04 3.72-4.2 5.48-6.36-3.38 4.93-2.18 11.11-4.59 16.38.1 10.23-2.57 20.12-4.16 30.14-.1 2.07.07 4.26.89 6.18 1.56 1.91 3.9 3.03 5.36 5.04 1.03 1.62 1.4 3.56 2.36 5.21 2.3 2.27 5.13 4.06 6.69 6.99-3.22.82-6.61.56-9.76 1.64-5.31-2.99-10.87-5.49-16.39-8.05-1.87-1.3-1.86-3.96-1.55-5.98 1.17-2.68 3.58-4.84 3.8-7.92.3-3.96.12-7.95-.34-11.89-.82-1.13-2.01-1.87-3.08-2.72.97-.13 1.93-.25 2.91-.35-.42-2.4-1.03-4.78-1.19-7.21.4-2.33 1.11-4.6 1.59-6.92 3.35-4.41 2.06-9.98 2.33-15.09-.1-4.7 2.32-9.1 1.43-13.86 1.68-1.21 3.27-2.56 4.6-4.15m-.62 21.74c.2 3.34 1.5 6.58.49 9.96 1.08-1.48 2.06-3.01 3.03-4.55-1.09-1.86-2.17-3.73-3.52-5.41m-1.35 14.44c-.39 6.1-1.02 12.26-3.2 18.03 4.75-4.62 4.5-11.9 4.52-18.03h-1.32z"/></g><g fill="#333"><path d="M122.91 33.89c1.29-6.56 8.92-11.76 15.39-9.12 2.36.91 4.91 1.49 7.03 2.9 2.96 3.34 5.1 8.04 3.85 12.55-1.17 4.81-.9 10.11-3.49 14.49-1.82 2.03-4.98 1.29-7.42 1.71-.33.69-.97 2.07-1.29 2.76 2.32 1.23 4.89 2.17 6.79 4.07 2.24 2.16 2.98 5.48 5.54 7.36 3.05 2.23 5.88 4.76 8.05 7.87 5.72-.5 10.99 1.97 16.4 3.33 2.55-3.91 6.35-6.61 10.51-8.58 3.85 1.13 7.78 2.25 11.36 4.09.83 2.96.73 6.09.43 9.12-.83-2.92-1.06-6.11-2.73-8.71-1.84-2.26-5.13-.79-7.62-1.43-.35-.3-1.06-.89-1.42-1.18-3.2 1.54-5.95 3.8-8.25 6.5 1.41.07 2.81.15 4.22.23.96-1.84 1.88-3.7 2.78-5.58.52.45 1.04.92 1.54 1.4-.82 1.95-1.46 3.96-2.18 5.95-2.59.41-5.39 1.27-7.81-.21-4.74-2.56-10.13-2.96-15.38-3.37 0 .48.01 1.44.01 1.91-.96-.42-1.92-.84-2.87-1.26-2.11-3.01-4.75-5.61-7.96-7.43-3.44-1.93-4.23-6.1-6.19-9.23-1.55-.58-3.09-1.19-4.62-1.81-.9.76-1.82 1.48-2.77 2.17.46-.52 1.37-1.55 1.82-2.07-1.8-2.26-1.94-4.86-.67-7.4-2.54-1.64-5.01-3.59-6.05-6.57 3.32 1.26 5.84 3.96 9.17 5.17 1.75.78 3.92.27 5.26-1.05 3.01-3.9 2.24-9.09 3.57-13.59 1.2-3.36-.55-6.75-2.54-9.39-2.5-1.76-5.48-2.73-8.33-3.75-3.77-.32-8.4.24-10.66 3.69-3.01 3.85-1.69 8.93-1.57 13.38-.71 3.2-2.7 5.96-3.85 9.02-3.84.38-7.09 2.42-9.92 4.91-6.13.06-11.57 4.14-14.1 9.6 2.65-.79 5.27-1.75 8.01-2.23 2.48-.89 4.45 1.21 6.38 2.4-5.18-.56-10.28.49-15.39 1.17-4.54.87-7.26 4.87-10.66 7.57 1.22 1.04 2.41 2.11 3.54 3.25-4.42-.48-8.13-4.63-12.76-3.15-4.55.67-7.7 5.7-12.63 4.4-2.09 1.84-4.32 3.5-6.59 5.11.56-.05 1.68-.13 2.24-.18.39.52 1.18 1.56 1.58 2.09 4.45.51 8.94.85 13.32 1.87 4.64 1.09 8.94-1.41 13.25-2.66 2.7-.71 4.06-3.35 5.47-5.5 2.03-.91 4.08-1.79 6.14-2.64-3.64 2.14-5.99 5.63-8.38 8.98 4.4-1.04 9.05-2.63 11.92-6.34 2-2.55 3.99-5.16 6.58-7.16-.87 4.58-4.13 8-7.44 11.02-.02 1.04-.05 2.08-.07 3.11 3.91 4.54 5.77 10.7 4.94 16.64-.46 3.11 1.65 5.85 3.87 7.77 4.34 3.8 10.32 4.35 15.72 5.57 3.52.91 7.43.13 10.03-2.49 1.35-4.19 2.16-8.53 3.21-12.8 1.74-3.11 4.13-5.92 5.02-9.46-1.26-2.24-2.37-4.7-1.65-7.32-2.65.88-4.92-.32-6.79-2.15-1.89.05-3.1 1.36-3.88 2.93 1.09.08 3.27.23 4.36.31.44 1.75.6 3.55.85 5.34l3.05.03.6 2.08c-1.32-.68-2.62-1.39-3.95-2.04.64 4.56-1.46 8.71-3.78 12.46.04.7.13 2.11.17 2.81l-1.83 1.15c-.15-.89-.47-2.69-.62-3.58 1.72-3.12 3.52-6.22 4.61-9.64-.3-.46-.9-1.37-1.2-1.83.49-1.93.84-3.88 1.12-5.85-2.79.33-5.12 1.84-7.23 3.58.45-1.89 1.22-3.66 3.33-4.15-.53-.66-1.05-1.32-1.56-1.98 1.67-1.33 3.45-2.56 4.93-4.12.53-3.13-.21-6.34.13-9.5 2.21 3.54 1.62 7.72 2.26 11.62 2.17 1.53 4.79.65 7.19.4 2.24-3.76 1.27-8.01.1-11.93 2.98 2.8 5.7 7.51 2.41 11.2 4.28 2.35 9.19 2.62 13.76.95l.08 1.75c-2.27.5-4.49 1.28-6.82 1.53-2.91.15-5.21-1.87-7.43-3.43-.57 1.33-1.14 2.67-1.71 4.01 3.86.21 7.18 2.01 10.43 3.91 4.95.6 9.62 3.39 14.7 2.46 6.43-.73 12.99-2.28 18.3-6.16 1.04-1.52 2.29-2.88 3.62-4.15 1.42 1.51 2.79 3.06 4.09 4.68-4.06 5-10.1 8.38-16.61 8.54.12-1.03.26-2.05.35-3.07-3.61.62-7.14 1.6-10.73 2.31-4.46.15-8.58-1.91-12.91-2.65-3.91-.53-6.52-4.08-10.48-4.57 2.39 5.52-1.42 10.69-4.91 14.63-.14 3.88-1.13 7.67-3.2 10.97 1.7 5.04 2.59 10.33 1.69 15.63.57 2.24 1.13 4.49 1.63 6.76.59.63 1.19 1.26 1.78 1.89.17 2.43.25 4.86.3 7.29.7 11.58-3.57 22.64-3.27 34.17.21 3.07-2.29 5.34-2.93 8.19-.52 3.98-.06 8.04-.9 11.98-.96 5.99-2.91 11.88-2.76 18.01.44 3.21 2.31 6.01 4.13 8.61 2.9 4.06 7.96 5.61 11.1 9.43-.54 2-1.1 3.99-1.67 5.98-.24-.44-.71-1.34-.95-1.79-3.03 3.15-7.57 2.85-11.57 2.7-4.48-.82-6.92-5.59-11.49-6.17-2.05-.61-4.78-.46-5.91-2.65-1.66-3.02-.95-6.89.92-9.66 3.48-5.25 2.3-11.89 1.31-17.7-3.81 6.74-5.11 14.58-4.86 22.24.93 4.75 5.12 7.8 6.98 12.12 2.15 4.48 5.22 8.4 7.76 12.66-.88.82-1.76 1.63-2.65 2.45.33-1.08.66-2.15 1-3.21-3.54-3.03-6.46-6.73-8.41-10.97-2.06-4.6-6.61-8.01-7.3-13.19.45-6.26 1.55-12.52 3.61-18.46 1.68-3.98 3.31-8.12 3.3-12.51-.11-4.54.63-9.1 2.44-13.28 1.24-2.74 1.45-5.78 1.31-8.75-.46-4.83 1.77-9.28 2.48-13.97-6.25 3.11-13.43 1.49-19.97.35 1.81 3.62 3.32 7.54 3.35 11.65.12 4.9 1.26 10.08-1.02 14.7-1.85 5.63-7.56 9.85-6.96 16.23.85 6.36 1.78 12.7 2.81 19.04.8 4.45-1.58 9.06.37 13.34 1.29 3.31-.98 6.89.26 10.22.94 2.77 3.89 3.83 6.22 5.15.26.52.78 1.57 1.05 2.09 4.51 2.55 9.7 2.67 14.66 1.57-4.21 4.43-10.78 2.63-15.98 1.43-3.06-2.9-5.5-6.43-7.98-9.82-.42-2.66-.21-5.38-.57-8.05-.52-2.29-2.72-4.34-1.69-6.78.95-3.6 1.75-7.37.97-11.09-1.16-5.6-1.08-11.33-1.33-17.02.06-8.94 8.32-15.91 7.09-25.03-.22-3.17.47-6.36 0-9.52-.8-2.79-2.03-5.45-2.8-8.25-1.42-1.86-3.31-3.71-3.38-6.19-.1-3.34.29-6.69.01-10.02-.42-3.12-2.12-5.89-2.65-8.98.53-3.38 2.13-6.54 2.07-10.02-.01-3.54 1.55-6.76 3.13-9.83 1.38-2.53 1.81-5.44 3.16-7.98-.37-3.69.3-7.43-.21-11.09-1.49-4.14-4.27-7.64-6.16-11.59-3.43 1.54-7.04 2.89-10.87 2.72-5.03-.12-9.91 2.41-14.92 1.21-6.99-1.63-14.14-2.4-21.26-3.22l3.55-1.94c-2.46.68-4.76 2.08-7.38 2.06-3.49.21-6.66-1.51-10.04-2.05-2.78 2.04-4.81 4.89-7.12 7.4-10.3 11.35-20.53 22.75-30.87 34.06v-3.6c11.92-13.5 24.08-26.79 36.22-40.09.06-4.11-.43-8.89 2.7-12.09 2.87-3.61 7.78-3.95 11.96-4.86 2.42-.37 4.77-1.41 7.24-1.35 1.59.7 2.92 1.83 4.33 2.81-.03.48-.1 1.43-.13 1.9 3.29 1.94 2.23 5.62 2.08 8.76 5.79-2.21 11.87-5.68 18.25-3.83 3.69-2.89 7.19-6.13 11.69-7.71 1.06-2.8 2.43-5.66 4.9-7.5 3.43-2.26 7.49-3.32 11.49-4.05 1.87-2.27 3.95-4.4 6.71-5.53 2.27-.76 3.23-3.02 4.11-5.03 1.77-3.33.28-7.2 1.36-10.7M38.93 72.96c-1.91 3.36-1.3 7.42.36 10.74 1.89.73 3.75 1.65 5.78 1.89 6.21.68 11.81-3.02 16.51-6.65-.9-.71-1.68-1.62-2.77-2.04-1.94 3.96-6.41 5.22-10.27 6.53-2.81 1.06-5.5-.8-7.73-2.33-.76-1.77-.83-3.75-1.23-5.61 2.08-2.94 5.11-5.09 8.47-6.35 1.56-.75 3.68-.87 4.25-2.93-4.8 1.39-9.77 3.13-13.37 6.75m13.04-4.66c-.68.86-1.38 1.71-2.1 2.54 1.53 3.31 2.79 6.86 2.8 10.54 1.75-1.32 3.34-2.88 4.19-4.95l2.31-1.71c1.18.69 2.35 1.39 3.51 2.09.55-3.66-.28-8.06-3.83-9.93-2.34-1.45-4.58 1.05-6.88 1.42M41.3 76.91a48.46 48.46 0 00-.18 4.17c3.44 1.45 7.05 1.54 10.46-.06-1.62-3.05-2.74-6.35-3.44-9.73-2.32 1.79-5.22 3.07-6.84 5.62m149.71 9.05c-1.8 4.43-6.91 5.48-10.83 7.28 1.07.47 2.17.88 3.28 1.26 3.37-1.75 6.75-3.52 9.7-5.95-.42-1.14-.56-2.68-2.15-2.59m-84.34 25.82c.25 1.35.55 2.7.71 4.07-.76 1.98-3.08 2.7-4.24 4.43-3.62 4.08-2.04 9.84-3.28 14.72-.76 1.79.13 3.45.99 5 .95 4.99 1.6 10.03 1.79 15.12-.01 3.16 3.23 5.46 6.18 5.65 4.08.4 8.24 1.39 12.32.49 2.75-.99 5.36-2.41 7.63-4.26-.99-1.05-1.98-2.08-2.99-3.1.87-4.23 2.44-8.38 1.46-12.76 3.56-.31 3.73-3.83 4.79-6.51 1.08 1.97 1.37 4.05.35 6.14.35-.07 1.05-.2 1.4-.27-1.33 1.65-2.72 3.29-4.54 4.43-.08 3.19.48 6.35 1.3 9.42.98.69 1.93 1.42 2.85 2.19 2.84.22 5.51-.62 7.46-2.73-.55-3.58.16-7.23-.59-10.8-.68-4.49-3.31-8.46-3.62-13.03-.26-2.73.94-5.46.23-8.16-.49-1.76-.78-3.56-.45-5.37-2.82 2.62-6.73 4.03-10.57 3.25-6.87-1.14-13.78-3.38-19.18-7.92m23.71 45.18c-1.33 1.59-2.92 2.94-4.6 4.15.89 4.76-1.53 9.16-1.43 13.86-.27 5.11 1.02 10.68-2.33 15.09-.48 2.32-1.19 4.59-1.59 6.92.16 2.43.77 4.81 1.19 7.21-.98.1-1.94.22-2.91.35 1.07.85 2.26 1.59 3.08 2.72.46 3.94.64 7.93.34 11.89-.22 3.08-2.63 5.24-3.8 7.92-.31 2.02-.32 4.68 1.55 5.98 5.52 2.56 11.08 5.06 16.39 8.05 3.15-1.08 6.54-.82 9.76-1.64-1.56-2.93-4.39-4.72-6.69-6.99-.96-1.65-1.33-3.59-2.36-5.21-1.46-2.01-3.8-3.13-5.36-5.04-.82-1.92-.99-4.11-.89-6.18 1.59-10.02 4.26-19.91 4.16-30.14 2.41-5.27 1.21-11.45 4.59-16.38-1.76 2.16-3.56 4.32-5.48 6.36-1.39-.08-2.77-.16-4.15-.31.79-.16 2.36-.49 3.15-.65 3.11-3.01 4.46-7.21 6.41-10.96.32-2.24.34-4.52.55-6.77-3.15.77-6.65 1.69-9.58-.23z"/><path d="M125.79 48.23c3.09 2 3.28 6.05 2 9.18-2.18-2.55-1.93-6.04-2-9.18zM111.13 59.58c.89-2.77 5.64-3.52 7.8-1.56 3.19 3.17 7.91.63 11.59 2.59 2.78 1.41 3.97 4.85 3.45 7.81-1.43-2.01-2.36-4.43-4.27-6.06-2.55-.48-5.16-.2-7.73-.09-1.8-1.23-3.55-2.52-5.25-3.86-1.88.31-3.71.83-5.59 1.17zM112.03 69c2.63-1 5.46-.4 7.22 1.88-.53 1.13-1.07 2.27-1.61 3.4-.55-1.39-1.07-2.79-1.59-4.19-1.51.42-3.02.86-4.52 1.34.16-.78-1.28-2.65.5-2.43zM112.31 72.73c4.79 1.24 7.22 5.57 8.82 9.87 1.81.45 3.62.9 5.42 1.42-2.57 1.04-6.49 1.31-7.71-1.77-1.7-3.49-4.24-6.43-6.53-9.52zM108.87 87.98c.33-2.59 1.8-4.7 3.82-6.29.09 2.79-3.15 6.66.38 8.48 1.03-1 2.07-2 3.1-2.99-.01 1.06-.08 2.11-.11 3.17 2.44.98 4.89 1.98 7.08 3.46-3 .85-5.41-1.52-7.8-2.92-1.75.13-3.44-.17-5.06-.91-.86 1.21-1.49 2.55-1.93 3.97.87.18 2.61.55 3.48.74a91.42 91.42 0 013.15-1.53c-1.19 3.4-5.62 3.2-7.35.37-2.6-1.6.25-3.85 1.24-5.55zM126.63 94.45c2.06-1.19 4.12-2.39 6.35-3.22-1.08 3.02-4.74 3.5-7.06 5.26-.55 3.01-2.84 5.11-4.92 7.13.61-.14 1.82-.43 2.42-.57-.06 1.86 1.04 3.38 1.76 5.02-.42 2.76-1.17 5.5-.36 8.29-1.02-.3-3.06-.88-4.08-1.18.18-.8.55-2.42.73-3.22-.47-.97-.94-1.94-1.4-2.9l2.64.28c-.64-2.73-1.75-5.31-2.87-7.87 1.06-.84 2.19-1.61 3.15-2.57-.19-1.04-.42-2.07-.69-3.09 1.4-.6 2.83-1.1 4.33-1.36zM160.15 97.99c1.57-1.35 3.75-1.11 5.66-1.23-3.25 3.22-7.19 5.58-10.87 8.26-4.83 3.35-9.47 6.97-14.44 10.1.04-1.05.09-2.09.14-3.14 6.45-4.73 12.99-9.34 19.51-13.99zM115.14 122.58c1.22.05 2.45.11 3.67.16-1.28 2.79-2.64 5.62-5.03 7.65.91-2.54 2.78-5.06 1.36-7.81zM113.87 131.59c4.6.83 9.01-.39 13.44-1.48-3.83 2.7-9.3 4.5-13.44 1.48zM88.24 149.25c2.91-2.06 5.72-4.28 8.88-5.96.08.91.16 1.82.25 2.73-12.93 9.25-25.9 18.44-38.82 27.7-2.29 1.62-4.48 3.62-7.4 3.96.39-1.58 1.2-3.01 2.61-3.85 11.49-8.19 23-16.36 34.48-24.58zM118.7 171.35c.3.33.9.97 1.2 1.29-1.53 2.82-4.09 5.09-7.33 5.64 2.29-2.08 4.79-4.05 6.13-6.93zM129.76 178.7c1.35 1.68 2.43 3.55 3.52 5.41-.97 1.54-1.95 3.07-3.03 4.55 1.01-3.38-.29-6.62-.49-9.96zM114.35 181.56c1.61.23 3.17.66 4.75 1.01-1.6.86-5.08 2.06-4.75-1.01zM111.19 212.96c-1.05-8.74.37-18.75 7.11-25.04-1.33 4-3.42 7.69-4.81 11.66-.97 4.42-.79 9.07-2.3 13.38zM128.41 193.14h1.32c-.02 6.13.23 13.41-4.52 18.03 2.18-5.77 2.81-11.93 3.2-18.03zM106.2 235.49c.72-3.09.64-7.1 3.95-8.67-.92 3.02-1.2 6.64-3.95 8.67z"/></g></svg>