<svg width="368" height="300" viewBox="0 0 276 225" xmlns="http://www.w3.org/2000/svg"><g fill="#FFF"><path d="M0 0h276v225H0V0m212.46 47.67c-2.99 1.8-6.79 3-8.35 6.42-3.16 6.53-2.7 14.42-.11 21.06-1.58.8-3.14 1.6-4.71 2.41-1.35-1.43-2.64-2.92-4.19-4.14-3.74.77-7.41 2.18-10.71 4.08-2.47 3.04-4.73 6.56-4.74 10.62-4.57 2.73-9.66 4.47-14.02 7.56-2.92 2.12-6.44 2.97-9.73 4.28-9.1 5.26-17.89 11.16-27.76 14.93 1.76-2.12 3.46-4.32 5.45-6.24 2.6-2.16 6.1-2.55 9.35-2.53.81-.83 1.62-1.65 2.43-2.48-.29-.38-.86-1.14-1.15-1.52 2.78-1.47 5.87-1.75 8.96-1.53l2.23-1.63c-2.28-.47-4.57-.87-6.87-1.25-1.44-1.41-2.84-3-4.75-3.79-3.27-1.14-6.72-.17-9.98.48-3.62-2.01-7.89-1.75-11.71-3.11-2.9-.8-2.37-5.04-5.16-6.07-3.2-1.38-6.66-2.31-8.77-5.32-3.93-1.44-7.1-4.1-10.28-6.75-.01 1.08 0 2.15.01 3.23 2.94 2.03 5.71 4.36 9.13 5.57 1.24 1.3 2.51 2.57 3.86 3.76 1.76.32 3.49.72 5.21 1.21.63.74 1.26 1.48 1.9 2.22-4.05.69-8.35.82-11.92 3.11-4.19 1.29-7.46 4.34-10.79 7.04-1.67 2.33-2.08 5.32-3.26 7.91-1.41 3.1-.5 6.55-.46 9.82-7.08-1.71-13.32-5.6-19.67-9-2.51-.17-7.03-1.97-8.01 1.39 3 .11 6.46-.32 8.93 1.77 2.67 2.06 5.84 3.33 9.15 3.9 3.21.51 4.89 3.85 7.97 4.68 3.43 1.02 6.73 3.39 10.44 2.04-2.3-1.77-4.74-3.37-7.02-5.18-.02-3.6.08-7.25 1.19-10.7.99-5.31 5.66-8.87 10.29-11.01 5.98-2.32 13.41-4.26 19.07-.18 3.92.09 7.78.78 11.54 1.86-.87 1.44-1.82 2.83-2.77 4.21-6.08-3.97-13.57-3.47-20.32-5.41 1.94 1.64 4.29 2.66 6.53 3.82 2.72-.09 5.44-.21 8.16-.43 1.17 1.45 2.31 2.94 3.43 4.45-5.8 1.61-12.53.25-17.32 4.65-1.8-1.67-4-2.65-6.48-2.14-.55-.99-1.1-1.97-1.64-2.95-1.88-.37-4.53-1.81-4.57 1.12 3.57 1.13 5.38 4.5 8.26 6.56 1.33-1.88 3.33-2.28 5.57-1.87-1.15.85-2.31 1.68-3.48 2.49-.4 1.48-.79 2.95-1.13 4.45a54.62 54.62 0 003.23-2.64c1.4-1.71 2.51-3.71 4.25-5.11 3.54-1.91 7.67-.89 11.5-1.36 2.26-1.15 4.44-2.59 6.25-4.37.92-2.18 1.18-4.57 1.73-6.86 3.98.09 7.62 1.71 11.21 3.28-2.06 1.31-4.05 2.78-5.31 4.91-6 .97-12.04 4.61-14.18 10.52-.9 2.5-3.89 2.99-5.86 4.4-.08-.7-.23-2.08-.31-2.77-.77 1-.82 2.24-.84 3.46-1.38.71-2.74 1.49-4.23 1.97-1.35-.62-2.6-1.43-3.87-2.18-2.31.62-4.73.78-6.99 1.54-2.39 1.47-4.91 2.72-7.57 3.62.33 1.87.66 3.73 1.01 5.6l2.03-1.87c-.45-.42-1.35-1.25-1.81-1.67 3.76-1.9 7.21-4.36 10.97-6.25 3.82.88 4.5 5.41 6 8.43-2.52 1.79-5.02 3.59-7.62 5.26-1.73.09-3.57.24-3.99 2.3 1.61-.06 3.22-.13 4.84-.22-.01 3.56.29 7.11.16 10.67-.67 2.84-2.49 5.2-3.53 7.89.22.45.66 1.37.87 1.82 1.26-2.36 1.95-5.26 4.32-6.82 3.13-2.03 6.42-3.8 9.63-5.68-.23 1.1-.7 3.31-.93 4.41 3.69-1.19 2.56-5.8 4.75-8.31 4.4-5.15 10.78-9.85 10.6-17.35-.5.12-1.49.35-1.99.46-.48 2.27-1.08 4.52-1.72 6.75-.85-2.47-1.61-4.95-2.42-7.43 9.42-4.93 18.55-10.42 28.04-15.24 3.34-1.53 6.1-4.05 9.52-5.44 5.23-2.34 9.92-5.69 15.12-8.09.84 3.64-2.52 6.24-4.45 8.89-.38 1.08-.78 2.16-1.21 3.22-2.68.37-5.39.47-8.04 1.02-1.53-.68-2.86-2.34-4.65-2.11-.14.32-.41.96-.55 1.28 3.54 3.37 8.92 2.25 13.37 2.6 3.1-.35 5.64 1.66 8.5 2.42.78-3.45-4.28-3.48-6.45-4.73 1.51-3.92 4.2-7.24 5.79-11.12.6-1.91 1.56-4.15.3-6.01-1 1.2-1.8 2.69-3.34 3.28-21.29 10.61-41.74 22.84-63.19 33.14-.63-.39-1.24-.8-1.84-1.24 6.66-4.26 13.69-7.86 20.83-11.22 9.04-5.1 18.48-9.46 27.33-14.88 7.03-3.4 13.97-7.02 20.67-11.04-.91-.33-2.72-1-3.63-1.33.98-1.81 2.09-3.56 2.97-5.42 2.73-2.08 6.06-2.97 9.19-4.22 1.45 1.84 3 3.59 4.54 5.36-1.15 2.64-2.72 5.06-4.3 7.45-1.62 2.47-1.2 5.61-.28 8.26-.62 3.14.85 6.42-.63 9.4-1.61 3.59-2.23 9.16-6.97 9.79-2.76 1.63-5.48 3.35-8.41 4.67-1.86-1.85-3.66-3.78-4.67-6.25-.49-1.63-2.46-1.48-3.73-2.07-.05 1.55-.08 3.1-.09 4.65-3.46 2.53-8.91.36-11.53 4.18 1.99.1 3.99.11 5.99.1-4.29 4.98-3.66 11.78-4.5 17.88.35.48 1.04 1.44 1.39 1.91-1.6-.51-3.2-1.04-4.8-1.54-1.86 1.58-3.83 3.2-6.24 3.82-2.68.43-5.43.22-8.11.7a62.19 62.19 0 001.8 3.04c-.71 1.16-1.42 2.33-2.11 3.51-4.9 1.78-9.73 3.89-14.12 6.72-3.78 2.81-7.66 5.81-12.28 7.06-4.26-.31-8.47.49-12.43 2.05-1.72-2.37-3.14-5.1-1.98-8.08-.77.43-1.53.86-2.29 1.31 1.18-3.79 1.95-7.71 1.66-11.7-.31-1.73.61-3.19 1.72-4.41-.38.09-1.12.27-1.5.36 1.19-4.21 2.87-8.36 3.08-12.77-2 2.14-4.39 6.21-7.8 3.92 2.09-1.63 4.47-2.79 6.73-4.15-2.23-.8-4.55-.81-6.96-.05l.2 1.79c-3.26-4.95-7-10.19-12.84-12.24-2.44-1.05-5.12-.59-7.59.07-.31-.64-3.81-.93-2.63.67l.31.4c-4.23 2.66-6.29 7.35-7.52 12-.07-1.64-.09-3.28-.12-4.91l-1.16-.02c-.38 6.51-1.38 13.04-.46 19.56 2.81-4.46 1.08-9.8 2.06-14.65.14 4.76.23 9.55 1.75 14.12-3.4 1.96-6.94 3.66-10.37 5.57-1.05 1.27-1.76 2.77-2.7 4.12.05-7.78-.12-15.57.36-23.35.3-7.64-.68-15.28-.07-22.92 3.25 1.97 6.65 3.66 10.12 5.2-.32 2.4-.63 4.8-1.01 7.19l.98-.23c.15-2.13.44-4.25 1.01-6.3 1.56.97 2.75 2.56 4.5 3.23.26-.39.77-1.15 1.03-1.53-1.24-.75-2.43-1.56-3.61-2.4-.21.18-.64.55-.86.73-2.51-2.91-6.14-4.37-9.27-6.48-5.91-3.48-10.81-8.56-17.22-11.21-.08-1.39-.16-2.78-.23-4.17 1.95-.83 3.68-3.02 5.81-2.92 3.34 2.26 5.44 5.99 9 8.03 3.66 1.47 3.16 6.98 7.24 7.9.37-.35 1.1-1.05 1.46-1.4-6.44-7.31-4.15-21.23 5.55-24.69 6.28-1.28 11.41 3.22 17.04 5.06 2.49-.56 4.97-1.25 7.31-2.3-2.94-2.57-6.92-.1-10.32-.14.04-.86.13-2.57.17-3.43 1.19-1.53 2.39-3.05 3.6-4.56 3.45-1.79 7.46-.94 10.99-2.28-3.66-1.05-5.81-4.32-8.85-6.32-5.7-3.42-10.91-8.55-18.04-8.41-3.86-.73-7.46 1.36-9.66 4.42-.55 3.44-.3 6.95-.66 10.41-4.54-3.17-9.75-6.01-15.47-5.82-3.41.61-7.84 2.2-8.34 6.17-.97 5.7-2.19 11.38-2.61 17.16-.47 5.71 1.24 11.35.76 17.07-.09 3.07-.98 6.02-1.71 8.98-3.13.57-6.14 1.7-9.32 2.03-1.78.18-3.59.64-4.92 1.91-2.62 1.6-1.93 5.46-.57 7.68 2.97 2.7 6.95 3.86 10.67 5.16 2.64.81 4.68 2.83 7.24 3.81 3.42.87 6.86-.29 10.12-1.24 1.96-5.85-1.15-11.55-1.83-17.31.17-5.3.48-10.6 1.22-15.85 2.19 1.79 4.28 3.7 6.61 5.32-.11 5.01-1.13 10.07.06 15.03 1.39 6.08-.32 12.2.2 18.32.15 2.2.17 4.4-.17 6.58.38 5.01-1.11 9.94-.71 14.96-4.94 2.67-10.16 4.73-15.19 7.21.04 3.87.41 7.73.66 11.59 2.69.49 5.34 1.17 7.89 2.15 6.88-3.1 13.51-6.9 20.78-9.02 6.49 1.73 12.84 4.02 19.03 6.64 17.97 5.26 35.57 11.73 53.28 17.82 2.28-2.56 5.13-4.56 8.29-5.88.02-5.98-.81-11.95.05-17.92-.19-3.76-.15-7.52-.18-11.29 4.19.48 8.56.64 12.64-.6 4.43-2.01 8.34-5 12.57-7.39 2.56-1.27 4.21-3.74 4.99-6.43 3.99-2.36 8.78-5.07 9.38-10.19.71-6.55-1.63-13.15-5.16-18.61 1.48-1.1 2.86-2.32 4.1-3.68 1.95-.63 3.98-1.05 5.83-1.94 1.97-2.47 3.28-5.46 4.34-8.42 1.17-5.41.37-10.97.09-16.43 1.16-2.8 2.66-5.77 5.37-7.35 5.28-3.37 11-6.07 15.92-9.98 1.06-2.07-.98-3.75-1.98-5.33-3.4 1.85-7.04 3.24-10.16 5.57.01-6.26-2.24-12.82.56-18.83 1.12-3.74 4.95-5.17 8.04-6.87 3.31.68 6.9 1.07 9.55 3.4 6.5 5.25 10.1 13.35 11.6 21.41.59 5.86-.25 12.55-4.98 16.63-.49-.51-.96-1.02-1.43-1.53 2.77-4.14 2.72-9.5 1.74-14.2-1.65-9.09-6.38-18.15-14.35-23.18-.87-.7-3.81-1.4-2.77.63 6.76 3.7 11.87 10.1 13.97 17.52 2.84 7.04 1.83 14.88-.53 21.9-2.2.33-4.52 1.2-6.68.23-5.03-2.1-7.87-7-11.9-10.38 2.51 6.13 7.91 12.09 14.71 13.01 4.24-.87 9.59-1.72 11.69-6.08 3.95-7.07 1.54-15.4-.29-22.73 4.67-2.64 9.63-4.77 14.08-7.79-1.04-1.3-1.94-2.77-3.32-3.74-4.4 1.69-8.51 4.05-12.52 6.52-3.97-6.86-10.26-14.37-19.11-13.16M107.65 95.06c.29 3.27 3.03-1.64 0 0m-26.77 6.74c.95.37 1.87 2.01 2.95.89 3.31-2.05 7.04-3.1 10.7-4.33-4.54-2.1-9.87.81-13.65 3.44m40.11 13.19c1.38 1.27 3.55-1.09 2.26-2.37-1.39-1.2-3.65 1.03-2.26 2.37m-5.27-.61c-.14 1.53.04 3.17 1.25 4.26 2.71-.57 1.04-7.11-1.25-4.26m37.56.59c-1.09 1.69-2.19 3.43-3.76 4.72-5.13 3.68-6.65 10.29-8.34 16.01-1.83-.12-3.65-.29-5.47-.5-.46.85-.91 1.71-1.36 2.57 1.08-.55 2.16-1.11 3.24-1.67.47 2.61.95 5.21 1.23 7.84.37-.03 1.1-.11 1.47-.15-.03-2.09-.03-4.17-.01-6.26l3-.36c.03-1.33.05-2.65.08-3.97 2.54-3.08 3.26-7.09 4.74-10.69 1.84 3.33 3.39 6.81 5.13 10.19-2.43.08-5.23-.76-7.23 1.1 2.63.58 5.38.83 7.77 2.15 1.66.66 3.59 2.38 5.17.55-1.4-.86-2.85-1.64-4.2-2.57-.36-4.38-2.6-8.19-4.45-12.07 4.59-4.86 11.76-3 17.53-5l.28-1.21c-4.52-.64-8.83 1.23-13.32 1.19-.38-.47-1.12-1.41-1.5-1.87m-89.09 11.39c-1.49 3.06 3.35-.01 0 0m70.42 5.11c2.31.05 4.65-.07 6.83-.91-2.31-.35-5.13-1.28-6.83.91m-32.89 26.89c1.42 3.05 6.47 4.46 8.55 1.41-2.85-.46-5.68-1.05-8.55-1.41z"/><path d="M231.98 61.79a93.92 93.92 0 0011.38-5.84l2.01 1.92c-4.27 2.08-8.51 4.24-12.68 6.52-.18-.65-.53-1.95-.71-2.6zM63.45 62.54c7.74-3.6 15.33 1.69 22.15 4.88 2.95 1.25 4.7 4 6.51 6.48-2.59.62-5.15 1.38-7.67 2.24-1.42 1.88-2.97 3.65-4.47 5.47-3.44-1.14-7.06-1.39-10.65-1.23-.46-1.04-.84-2.1-1.13-3.19 2.21-.25 4.39.49 6.56.81-.11-.53-.33-1.57-.43-2.1-2.69-.38-5.34-.99-7.96-1.69-.1.44-.31 1.31-.41 1.75l-.39.79c-.82-.4-2.47-1.21-3.29-1.61 2.36-4.1-1.12-8.53 1.18-12.6m3.16 8.73c4.4.78 8.88.87 13.35.93-3.81-3.02-9.13-3.17-13.35-.93zM41.97 71.66c4.31-2.89 9.66-.58 13.81 1.44 3.92 3.13 8.27 5.59 12.83 7.65-3.86 1.76-7.78 4.03-9.89 7.87-1.96 2.9-1.77 6.51-1.85 9.84-2.16-1.51-4.26-3.11-6.38-4.68-.31-.68-.94-2.03-1.25-2.7 1.71.74 3.45 1.41 5.21 2.02-.73-2.41-3.2-3.23-5.06-4.56-1.96-1.26-3.47-3.06-5.06-4.73-1.56.59-3.14 1.14-4.74 1.65 3.85-.6 6.11 2.77 8.89 4.73-.51.35-1.03.7-1.54 1.05-1.81-2.06-4 .37-5.87.91-3.2 1.29-2.17 5.29-2.67 7.99 1.64 1.06 3.31 2.08 4.99 3.08.02 3.28-.54 6.52-.68 9.79.03 7.61 3.14 14.96 1.98 22.62-6.54 2.59-12.53-1.91-18.59-3.7-3.97-1.27-7.88-4.22-8.08-8.73 4.73-1.5 9.89-1.48 14.38-3.77 3.33-1.23 4-5.39 3.99-8.51l2.6 3.56c-.61-3.89-1.94-7.64-2.47-11.54-.54-6.68.72-13.32.77-19.99.02-4.09 1.08-8.88 4.68-11.29m2.49 7.24c1.08 2.25 3.55 2.56 5.71 3.03-1.61-1.54-3.14-3.67-5.71-3.03m-4.48 40.91c.1 1.28-.21 2.36-.93 3.24-2.47 1.15-5.1 1.92-7.64 2.89.66.32 2 .96 2.66 1.28 1.81-.25 2.82-3.13 4.75-2.06.87 1.3 1.62 2.67 2.44 4.01.51-3.12.63-6.28.92-9.42l-2.2.06zM205.01 76.84c3.5-1.68 6.46-4.55 10.44-5.13-.32 1.42-1.03 2.74-2.44 3.33-4.34 2.35-8.26 5.47-12.94 7.19-.46-3.31 2.73-4.09 4.94-5.39zM162.77 132.87c-1.22-6.23 3.26-12.83 9.15-14.76 3.2 2.46 6.82 4.65 8.88 8.25 2.81 3.89 2.8 8.89 3.44 13.46-1.05 2.06-1.83 4.29-3.24 6.16-2.19 1.95-5.02 3.13-7.87 3.74-3.55.92-6.62-1.5-9.72-2.79-.42-1.73-.85-3.46-1.27-5.18.31-.28.93-.85 1.24-1.14-1.81-2.35-1.66-5.1-.61-7.74zM81.11 124.74c-1.78-1.25-4.02-1.54-5.85-2.69 4.6-1.37 9.36.83 12.75 3.88 6.18 6.02 10.11 14.46 10.14 23.15.08 4.49-.52 9.82-4.26 12.82-3.25 1.62-7.08 3.62-10.74 2.1-5.47-2.06-8.45-7.38-12.32-11.39 3.56-1.98 7.52-3.4 10.68-6 .94-2.09-1.38-3.8-2.42-5.38-3.24 1.74-6.51 3.41-9.73 5.18-1.52-5.92-1.8-12.3-.26-18.24.58-2.54 2.82-3.94 4.88-5.21 14.51 6.34 21.57 24.72 16.35 39.44 1.03-.99 2.37-1.86 2.59-3.4 3.47-12.48-2.58-25.84-11.81-34.26zM118.7 127.02c2.97-1.39 5.94-2.79 8.81-4.38.62 2.5 1.61 4.87 2.27 7.36-2.33 2.33-4.31 4.97-6.19 7.68-2.89-1.49-5.44-3.53-7.68-5.88.86-.85 1.74-1.68 2.65-2.47 2.41.32 4.7 1.18 7.08 1.65.08-.48.23-1.44.31-1.91-2.43-.62-4.83-1.39-7.25-2.05zM112.41 133.76l1.32-.47c3.16 2.29 5.91 5.14 9.43 6.94-3.38 1.88-7.03 3.45-10.93 3.72.3-3.4-.16-6.81.18-10.19z"/><path d="M155.8 142.95c1.4.17 2.84.42 4.23-.01 1.63 2.97 2.79 6.73 6.06 8.31 2.75 1.65 6.1.75 9.13.98-3.41 3.08-7.9 4.51-11.43 7.42-3.29 2.7-7.44 4.76-11.81 4.16-6.43-.37-10.78-6.68-17.27-6.57 3.26 3.4 8.05 4.81 11.07 8.48-1.32 9.1-2.87 18.48-1.04 27.6-2.21 1.4-4.36 2.9-6.53 4.37-22.79-7.83-45.85-14.84-68.55-22.99-.15-.49-.46-1.48-.61-1.97-7.15 2.11-13.48 6.21-20.26 9.21-1.02.48-2.07.5-3.13.06-.01.28-.01.82-.01 1.09-2.13-.48-4.24-1.03-6.36-1.59-.05-2.95-.08-5.91-.05-8.87 4.92-2.42 10.15-4.12 15.16-6.33-.92-3.03-.45-6.17.15-9.21 1.63.48 3.14 1.27 4.63 2.07.72-.52 2.16-1.55 2.88-2.07 1.07 1.41 1.79 3 1.96 4.78 2.21-1.18 4.42-2.35 6.54-3.68-1.51-.27-3.05-.35-4.58-.38-.87-.55-1.73-1.1-2.59-1.66 2.51-.56 4.77-1.79 6.95-3.09 2.78 5.84 7.45 11.25 13.71 13.39 3.41 1.28 6.79-.87 9.92-2 1.73-.61 2.6-2.38 3.44-3.86.97 2.01 1.35 4.23 1.95 6.36-.38.19-1.12.55-1.49.74 2.39.02 4.81-.01 7.12-.72 3.62-1.08 7.41-.43 11.11-.7 4.52-1.43 8.45-4.17 12.16-7.04 4.49-2.85 9.4-5 14.36-6.88 1.74-1.53 2.57-3.8 3.71-5.77 3.54-.02 6.62-1.7 9.47-3.63M76.39 167.5c.02.83.05 1.66.08 2.5 11.88 1.9 22.86 7.04 34.27 10.6.64-.56 1.28-1.12 1.91-1.69-5.68-.64-10.67-3.63-16.15-5.02a98.519 98.519 0 01-15.15-5.3c.11-.46.35-1.37.47-1.82-1.81.24-3.62.51-5.43.73m55.92 17.41c-4.33-.82-8.43-2.48-12.73-3.41-1.68-.57-3.78-.47-4.92-2.06.1.96.19 1.93.28 2.9 6.72.83 12.93 3.91 19.49 5.51.28-6.65.44-13.36-.83-19.93-3.28 5.09-1.39 11.35-1.29 16.99z"/><path d="M60.02 153.19c6.78-2.29 12.33-7.43 19.24-9.22l.86 1.25c-5.92 3.99-12.69 6.57-18.55 10.7-.52-.91-1.04-1.82-1.55-2.73zM58.14 154.55c1.34.23 1.57.94.69 2.11-1.34-.24-1.58-.94-.69-2.11z"/></g><g fill="#333"><path d="M212.46 47.67c8.85-1.21 15.14 6.3 19.11 13.16 4.01-2.47 8.12-4.83 12.52-6.52 1.38.97 2.28 2.44 3.32 3.74-4.45 3.02-9.41 5.15-14.08 7.79 1.83 7.33 4.24 15.66.29 22.73-2.1 4.36-7.45 5.21-11.69 6.08-6.8-.92-12.2-6.88-14.71-13.01 4.03 3.38 6.87 8.28 11.9 10.38 2.16.97 4.48.1 6.68-.23 2.36-7.02 3.37-14.86.53-21.9-2.1-7.42-7.21-13.82-13.97-17.52-1.04-2.03 1.9-1.33 2.77-.63 7.97 5.03 12.7 14.09 14.35 23.18.98 4.7 1.03 10.06-1.74 14.2.47.51.94 1.02 1.43 1.53 4.73-4.08 5.57-10.77 4.98-16.63-1.5-8.06-5.1-16.16-11.6-21.41-2.65-2.33-6.24-2.72-9.55-3.4-3.09 1.7-6.92 3.13-8.04 6.87-2.8 6.01-.55 12.57-.56 18.83 3.12-2.33 6.76-3.72 10.16-5.57 1 1.58 3.04 3.26 1.98 5.33-4.92 3.91-10.64 6.61-15.92 9.98-2.71 1.58-4.21 4.55-5.37 7.35.28 5.46 1.08 11.02-.09 16.43-1.06 2.96-2.37 5.95-4.34 8.42-1.85.89-3.88 1.31-5.83 1.94a28.663 28.663 0 01-4.1 3.68c3.53 5.46 5.87 12.06 5.16 18.61-.6 5.12-5.39 7.83-9.38 10.19-.78 2.69-2.43 5.16-4.99 6.43-4.23 2.39-8.14 5.38-12.57 7.39-4.08 1.24-8.45 1.08-12.64.6.03 3.77-.01 7.53.18 11.29-.86 5.97-.03 11.94-.05 17.92-3.16 1.32-6.01 3.32-8.29 5.88-17.71-6.09-35.31-12.56-53.28-17.82-6.19-2.62-12.54-4.91-19.03-6.64-7.27 2.12-13.9 5.92-20.78 9.02-2.55-.98-5.2-1.66-7.89-2.15-.25-3.86-.62-7.72-.66-11.59 5.03-2.48 10.25-4.54 15.19-7.21-.4-5.02 1.09-9.95.71-14.96.34-2.18.32-4.38.17-6.58-.52-6.12 1.19-12.24-.2-18.32-1.19-4.96-.17-10.02-.06-15.03-2.33-1.62-4.42-3.53-6.61-5.32-.74 5.25-1.05 10.55-1.22 15.85.68 5.76 3.79 11.46 1.83 17.31-3.26.95-6.7 2.11-10.12 1.24-2.56-.98-4.6-3-7.24-3.81-3.72-1.3-7.7-2.46-10.67-5.16-1.36-2.22-2.05-6.08.57-7.68 1.33-1.27 3.14-1.73 4.92-1.91 3.18-.33 6.19-1.46 9.32-2.03.73-2.96 1.62-5.91 1.71-8.98.48-5.72-1.23-11.36-.76-17.07.42-5.78 1.64-11.46 2.61-17.16.5-3.97 4.93-5.56 8.34-6.17 5.72-.19 10.93 2.65 15.47 5.82.36-3.46.11-6.97.66-10.41 2.2-3.06 5.8-5.15 9.66-4.42 7.13-.14 12.34 4.99 18.04 8.41 3.04 2 5.19 5.27 8.85 6.32-3.53 1.34-7.54.49-10.99 2.28-1.21 1.51-2.41 3.03-3.6 4.56-.04.86-.13 2.57-.17 3.43 3.4.04 7.38-2.43 10.32.14-2.34 1.05-4.82 1.74-7.31 2.3-5.63-1.84-10.76-6.34-17.04-5.06-9.7 3.46-11.99 17.38-5.55 24.69-.36.35-1.09 1.05-1.46 1.4-4.08-.92-3.58-6.43-7.24-7.9-3.56-2.04-5.66-5.77-9-8.03-2.13-.1-3.86 2.09-5.81 2.92.07 1.39.15 2.78.23 4.17 6.41 2.65 11.31 7.73 17.22 11.21 3.13 2.11 6.76 3.57 9.27 6.48.22-.18.65-.55.86-.73 1.18.84 2.37 1.65 3.61 2.4-.26.38-.77 1.14-1.03 1.53-1.75-.67-2.94-2.26-4.5-3.23-.57 2.05-.86 4.17-1.01 6.3l-.98.23c.38-2.39.69-4.79 1.01-7.19-3.47-1.54-6.87-3.23-10.12-5.2-.61 7.64.37 15.28.07 22.92-.48 7.78-.31 15.57-.36 23.35.94-1.35 1.65-2.85 2.7-4.12 3.43-1.91 6.97-3.61 10.37-5.57-1.52-4.57-1.61-9.36-1.75-14.12-.98 4.85.75 10.19-2.06 14.65-.92-6.52.08-13.05.46-19.56l1.16.02c.03 1.63.05 3.27.12 4.91 1.23-4.65 3.29-9.34 7.52-12l-.31-.4c-1.18-1.6 2.32-1.31 2.63-.67 2.47-.66 5.15-1.12 7.59-.07 5.84 2.05 9.58 7.29 12.84 12.24l-.2-1.79c2.41-.76 4.73-.75 6.96.05-2.26 1.36-4.64 2.52-6.73 4.15 3.41 2.29 5.8-1.78 7.8-3.92-.21 4.41-1.89 8.56-3.08 12.77.38-.09 1.12-.27 1.5-.36-1.11 1.22-2.03 2.68-1.72 4.41.29 3.99-.48 7.91-1.66 11.7.76-.45 1.52-.88 2.29-1.31-1.16 2.98.26 5.71 1.98 8.08 3.96-1.56 8.17-2.36 12.43-2.05 4.62-1.25 8.5-4.25 12.28-7.06 4.39-2.83 9.22-4.94 14.12-6.72.69-1.18 1.4-2.35 2.11-3.51-.63-1-1.23-2.01-1.8-3.04 2.68-.48 5.43-.27 8.11-.7 2.41-.62 4.38-2.24 6.24-3.82 1.6.5 3.2 1.03 4.8 1.54-.35-.47-1.04-1.43-1.39-1.91.84-6.1.21-12.9 4.5-17.88-2 .01-4 0-5.99-.1 2.62-3.82 8.07-1.65 11.53-4.18.01-1.55.04-3.1.09-4.65 1.27.59 3.24.44 3.73 2.07 1.01 2.47 2.81 4.4 4.67 6.25 2.93-1.32 5.65-3.04 8.41-4.67 4.74-.63 5.36-6.2 6.97-9.79 1.48-2.98.01-6.26.63-9.4-.92-2.65-1.34-5.79.28-8.26 1.58-2.39 3.15-4.81 4.3-7.45-1.54-1.77-3.09-3.52-4.54-5.36-3.13 1.25-6.46 2.14-9.19 4.22-.88 1.86-1.99 3.61-2.97 5.42.91.33 2.72 1 3.63 1.33-6.7 4.02-13.64 7.64-20.67 11.04-8.85 5.42-18.29 9.78-27.33 14.88-7.14 3.36-14.17 6.96-20.83 11.22.6.44 1.21.85 1.84 1.24 21.45-10.3 41.9-22.53 63.19-33.14 1.54-.59 2.34-2.08 3.34-3.28 1.26 1.86.3 4.1-.3 6.01-1.59 3.88-4.28 7.2-5.79 11.12 2.17 1.25 7.23 1.28 6.45 4.73-2.86-.76-5.4-2.77-8.5-2.42-4.45-.35-9.83.77-13.37-2.6.14-.32.41-.96.55-1.28 1.79-.23 3.12 1.43 4.65 2.11 2.65-.55 5.36-.65 8.04-1.02.43-1.06.83-2.14 1.21-3.22 1.93-2.65 5.29-5.25 4.45-8.89-5.2 2.4-9.89 5.75-15.12 8.09-3.42 1.39-6.18 3.91-9.52 5.44-9.49 4.82-18.62 10.31-28.04 15.24.81 2.48 1.57 4.96 2.42 7.43.64-2.23 1.24-4.48 1.72-6.75.5-.11 1.49-.34 1.99-.46.18 7.5-6.2 12.2-10.6 17.35-2.19 2.51-1.06 7.12-4.75 8.31.23-1.1.7-3.31.93-4.41-3.21 1.88-6.5 3.65-9.63 5.68-2.37 1.56-3.06 4.46-4.32 6.82-.21-.45-.65-1.37-.87-1.82 1.04-2.69 2.86-5.05 3.53-7.89.13-3.56-.17-7.11-.16-10.67-1.62.09-3.23.16-4.84.22.42-2.06 2.26-2.21 3.99-2.3 2.6-1.67 5.1-3.47 7.62-5.26-1.5-3.02-2.18-7.55-6-8.43-3.76 1.89-7.21 4.35-10.97 6.25.46.42 1.36 1.25 1.81 1.67l-2.03 1.87c-.35-1.87-.68-3.73-1.01-5.6 2.66-.9 5.18-2.15 7.57-3.62 2.26-.76 4.68-.92 6.99-1.54 1.27.75 2.52 1.56 3.87 2.18 1.49-.48 2.85-1.26 4.23-1.97.02-1.22.07-2.46.84-3.46.08.69.23 2.07.31 2.77 1.97-1.41 4.96-1.9 5.86-4.4 2.14-5.91 8.18-9.55 14.18-10.52 1.26-2.13 3.25-3.6 5.31-4.91-3.59-1.57-7.23-3.19-11.21-3.28-.55 2.29-.81 4.68-1.73 6.86-1.81 1.78-3.99 3.22-6.25 4.37-3.83.47-7.96-.55-11.5 1.36-1.74 1.4-2.85 3.4-4.25 5.11-1.04.92-2.12 1.8-3.23 2.64.34-1.5.73-2.97 1.13-4.45 1.17-.81 2.33-1.64 3.48-2.49-2.24-.41-4.24-.01-5.57 1.87-2.88-2.06-4.69-5.43-8.26-6.56.04-2.93 2.69-1.49 4.57-1.12.54.98 1.09 1.96 1.64 2.95 2.48-.51 4.68.47 6.48 2.14 4.79-4.4 11.52-3.04 17.32-4.65-1.12-1.51-2.26-3-3.43-4.45-2.72.22-5.44.34-8.16.43-2.24-1.16-4.59-2.18-6.53-3.82 6.75 1.94 14.24 1.44 20.32 5.41.95-1.38 1.9-2.77 2.77-4.21-3.76-1.08-7.62-1.77-11.54-1.86-5.66-4.08-13.09-2.14-19.07.18-4.63 2.14-9.3 5.7-10.29 11.01-1.11 3.45-1.21 7.1-1.19 10.7 2.28 1.81 4.72 3.41 7.02 5.18-3.71 1.35-7.01-1.02-10.44-2.04-3.08-.83-4.76-4.17-7.97-4.68-3.31-.57-6.48-1.84-9.15-3.9-2.47-2.09-5.93-1.66-8.93-1.77.98-3.36 5.5-1.56 8.01-1.39 6.35 3.4 12.59 7.29 19.67 9-.04-3.27-.95-6.72.46-9.82 1.18-2.59 1.59-5.58 3.26-7.91 3.33-2.7 6.6-5.75 10.79-7.04 3.57-2.29 7.87-2.42 11.92-3.11-.64-.74-1.27-1.48-1.9-2.22-1.72-.49-3.45-.89-5.21-1.21-1.35-1.19-2.62-2.46-3.86-3.76-3.42-1.21-6.19-3.54-9.13-5.57-.01-1.08-.02-2.15-.01-3.23 3.18 2.65 6.35 5.31 10.28 6.75 2.11 3.01 5.57 3.94 8.77 5.32 2.79 1.03 2.26 5.27 5.16 6.07 3.82 1.36 8.09 1.1 11.71 3.11 3.26-.65 6.71-1.62 9.98-.48 1.91.79 3.31 2.38 4.75 3.79 2.3.38 4.59.78 6.87 1.25l-2.23 1.63c-3.09-.22-6.18.06-8.96 1.53.29.38.86 1.14 1.15 1.52-.81.83-1.62 1.65-2.43 2.48-3.25-.02-6.75.37-9.35 2.53-1.99 1.92-3.69 4.12-5.45 6.24 9.87-3.77 18.66-9.67 27.76-14.93 3.29-1.31 6.81-2.16 9.73-4.28 4.36-3.09 9.45-4.83 14.02-7.56.01-4.06 2.27-7.58 4.74-10.62 3.3-1.9 6.97-3.31 10.71-4.08 1.55 1.22 2.84 2.71 4.19 4.14 1.57-.81 3.13-1.61 4.71-2.41-2.59-6.64-3.05-14.53.11-21.06 1.56-3.42 5.36-4.62 8.35-6.42m19.52 14.12c.18.65.53 1.95.71 2.6 4.17-2.28 8.41-4.44 12.68-6.52l-2.01-1.92a93.92 93.92 0 01-11.38 5.84m-168.53.75c-2.3 4.07 1.18 8.5-1.18 12.6.82.4 2.47 1.21 3.29 1.61l.39-.79c.1-.44.31-1.31.41-1.75 2.62.7 5.27 1.31 7.96 1.69.1.53.32 1.57.43 2.1-2.17-.32-4.35-1.06-6.56-.81.29 1.09.67 2.15 1.13 3.19 3.59-.16 7.21.09 10.65 1.23 1.5-1.82 3.05-3.59 4.47-5.47 2.52-.86 5.08-1.62 7.67-2.24-1.81-2.48-3.56-5.23-6.51-6.48-6.82-3.19-14.41-8.48-22.15-4.88m-21.48 9.12c-3.6 2.41-4.66 7.2-4.68 11.29-.05 6.67-1.31 13.31-.77 19.99.53 3.9 1.86 7.65 2.47 11.54l-2.6-3.56c.01 3.12-.66 7.28-3.99 8.51-4.49 2.29-9.65 2.27-14.38 3.77.2 4.51 4.11 7.46 8.08 8.73 6.06 1.79 12.05 6.29 18.59 3.7 1.16-7.66-1.95-15.01-1.98-22.62.14-3.27.7-6.51.68-9.79-1.68-1-3.35-2.02-4.99-3.08.5-2.7-.53-6.7 2.67-7.99 1.87-.54 4.06-2.97 5.87-.91.51-.35 1.03-.7 1.54-1.05-2.78-1.96-5.04-5.33-8.89-4.73 1.6-.51 3.18-1.06 4.74-1.65 1.59 1.67 3.1 3.47 5.06 4.73 1.86 1.33 4.33 2.15 5.06 4.56-1.76-.61-3.5-1.28-5.21-2.02.31.67.94 2.02 1.25 2.7 2.12 1.57 4.22 3.17 6.38 4.68.08-3.33-.11-6.94 1.85-9.84 2.11-3.84 6.03-6.11 9.89-7.87-4.56-2.06-8.91-4.52-12.83-7.65-4.15-2.02-9.5-4.33-13.81-1.44m163.04 5.18c-2.21 1.3-5.4 2.08-4.94 5.39 4.68-1.72 8.6-4.84 12.94-7.19 1.41-.59 2.12-1.91 2.44-3.33-3.98.58-6.94 3.45-10.44 5.13m-42.24 56.03c-1.05 2.64-1.2 5.39.61 7.74-.31.29-.93.86-1.24 1.14.42 1.72.85 3.45 1.27 5.18 3.1 1.29 6.17 3.71 9.72 2.79 2.85-.61 5.68-1.79 7.87-3.74 1.41-1.87 2.19-4.1 3.24-6.16-.64-4.57-.63-9.57-3.44-13.46-2.06-3.6-5.68-5.79-8.88-8.25-5.89 1.93-10.37 8.53-9.15 14.76m-81.66-8.13c9.23 8.42 15.28 21.78 11.81 34.26-.22 1.54-1.56 2.41-2.59 3.4 5.22-14.72-1.84-33.1-16.35-39.44-2.06 1.27-4.3 2.67-4.88 5.21-1.54 5.94-1.26 12.32.26 18.24 3.22-1.77 6.49-3.44 9.73-5.18 1.04 1.58 3.36 3.29 2.42 5.38-3.16 2.6-7.12 4.02-10.68 6 3.87 4.01 6.85 9.33 12.32 11.39 3.66 1.52 7.49-.48 10.74-2.1 3.74-3 4.34-8.33 4.26-12.82-.03-8.69-3.96-17.13-10.14-23.15-3.39-3.05-8.15-5.25-12.75-3.88 1.83 1.15 4.07 1.44 5.85 2.69m37.59 2.28c2.42.66 4.82 1.43 7.25 2.05-.08.47-.23 1.43-.31 1.91-2.38-.47-4.67-1.33-7.08-1.65-.91.79-1.79 1.62-2.65 2.47 2.24 2.35 4.79 4.39 7.68 5.88 1.88-2.71 3.86-5.35 6.19-7.68-.66-2.49-1.65-4.86-2.27-7.36-2.87 1.59-5.84 2.99-8.81 4.38m-6.29 6.74c-.34 3.38.12 6.79-.18 10.19 3.9-.27 7.55-1.84 10.93-3.72-3.52-1.8-6.27-4.65-9.43-6.94l-1.32.47m43.39 9.19c-2.85 1.93-5.93 3.61-9.47 3.63-1.14 1.97-1.97 4.24-3.71 5.77-4.96 1.88-9.87 4.03-14.36 6.88-3.71 2.87-7.64 5.61-12.16 7.04-3.7.27-7.49-.38-11.11.7-2.31.71-4.73.74-7.12.72.37-.19 1.11-.55 1.49-.74-.6-2.13-.98-4.35-1.95-6.36-.84 1.48-1.71 3.25-3.44 3.86-3.13 1.13-6.51 3.28-9.92 2-6.26-2.14-10.93-7.55-13.71-13.39-2.18 1.3-4.44 2.53-6.95 3.09.86.56 1.72 1.11 2.59 1.66 1.53.03 3.07.11 4.58.38-2.12 1.33-4.33 2.5-6.54 3.68-.17-1.78-.89-3.37-1.96-4.78-.72.52-2.16 1.55-2.88 2.07-1.49-.8-3-1.59-4.63-2.07-.6 3.04-1.07 6.18-.15 9.21-5.01 2.21-10.24 3.91-15.16 6.33-.03 2.96 0 5.92.05 8.87 2.12.56 4.23 1.11 6.36 1.59 0-.27 0-.81.01-1.09 1.06.44 2.11.42 3.13-.06 6.78-3 13.11-7.1 20.26-9.21.15.49.46 1.48.61 1.97 22.7 8.15 45.76 15.16 68.55 22.99 2.17-1.47 4.32-2.97 6.53-4.37-1.83-9.12-.28-18.5 1.04-27.6-3.02-3.67-7.81-5.08-11.07-8.48 6.49-.11 10.84 6.2 17.27 6.57 4.37.6 8.52-1.46 11.81-4.16 3.53-2.91 8.02-4.34 11.43-7.42-3.03-.23-6.38.67-9.13-.98-3.27-1.58-4.43-5.34-6.06-8.31-1.39.43-2.83.18-4.23.01m-95.78 10.24c.51.91 1.03 1.82 1.55 2.73 5.86-4.13 12.63-6.71 18.55-10.7l-.86-1.25c-6.91 1.79-12.46 6.93-19.24 9.22m-1.88 1.36c-.89 1.17-.65 1.87.69 2.11.88-1.17.65-1.88-.69-2.11z"/><path d="M66.61 71.27c4.22-2.24 9.54-2.09 13.35.93-4.47-.06-8.95-.15-13.35-.93zM44.46 78.9c2.57-.64 4.1 1.49 5.71 3.03-2.16-.47-4.63-.78-5.71-3.03zM107.65 95.06c3.03-1.64.29 3.27 0 0zM80.88 101.8c3.78-2.63 9.11-5.54 13.65-3.44-3.66 1.23-7.39 2.28-10.7 4.33-1.08 1.12-2-.52-2.95-.89zM120.99 114.99c-1.39-1.34.87-3.57 2.26-2.37 1.29 1.28-.88 3.64-2.26 2.37zM115.72 114.38c2.29-2.85 3.96 3.69 1.25 4.26-1.21-1.09-1.39-2.73-1.25-4.26zM153.28 114.97c.38.46 1.12 1.4 1.5 1.87 4.49.04 8.8-1.83 13.32-1.19l-.28 1.21c-5.77 2-12.94.14-17.53 5 1.85 3.88 4.09 7.69 4.45 12.07 1.35.93 2.8 1.71 4.2 2.57-1.58 1.83-3.51.11-5.17-.55-2.39-1.32-5.14-1.57-7.77-2.15 2-1.86 4.8-1.02 7.23-1.1-1.74-3.38-3.29-6.86-5.13-10.19-1.48 3.6-2.2 7.61-4.74 10.69-.03 1.32-.05 2.64-.08 3.97l-3 .36c-.02 2.09-.02 4.17.01 6.26-.37.04-1.1.12-1.47.15-.28-2.63-.76-5.23-1.23-7.84-1.08.56-2.16 1.12-3.24 1.67.45-.86.9-1.72 1.36-2.57 1.82.21 3.64.38 5.47.5 1.69-5.72 3.21-12.33 8.34-16.01 1.57-1.29 2.67-3.03 3.76-4.72zM39.98 119.81l2.2-.06c-.29 3.14-.41 6.3-.92 9.42-.82-1.34-1.57-2.71-2.44-4.01-1.93-1.07-2.94 1.81-4.75 2.06-.66-.32-2-.96-2.66-1.28 2.54-.97 5.17-1.74 7.64-2.89.72-.88 1.03-1.96.93-3.24zM64.19 126.36c3.35-.01-1.49 3.06 0 0z"/><path d="M134.61 131.47c1.7-2.19 4.52-1.26 6.83-.91-2.18.84-4.52.96-6.83.91zM101.72 158.36c2.87.36 5.7.95 8.55 1.41-2.08 3.05-7.13 1.64-8.55-1.41zM76.39 167.5c1.81-.22 3.62-.49 5.43-.73-.12.45-.36 1.36-.47 1.82 4.89 2.17 9.96 3.95 15.15 5.3 5.48 1.39 10.47 4.38 16.15 5.02-.63.57-1.27 1.13-1.91 1.69-11.41-3.56-22.39-8.7-34.27-10.6-.03-.84-.06-1.67-.08-2.5zM132.31 184.91c-.1-5.64-1.99-11.9 1.29-16.99 1.27 6.57 1.11 13.28.83 19.93-6.56-1.6-12.77-4.68-19.49-5.51-.09-.97-.18-1.94-.28-2.9 1.14 1.59 3.24 1.49 4.92 2.06 4.3.93 8.4 2.59 12.73 3.41z"/></g></svg>