<svg width="368" height="300" viewBox="0 0 276 225" xmlns="http://www.w3.org/2000/svg"><g fill="#FFF"><path d="M0 0h276v225H0V0m212.45 6.65c-2.97 1.83-6.77 3.04-8.34 6.44-2.58 4.85-2.31 10.49-1.82 15.79.62 1.52 1.21 3.05 1.7 4.62.58-.54 1.16-1.09 1.74-1.64-.23-.95-.47-1.9-.71-2.85-2.55-4.49-1.68-10.19.3-14.74 1.3-3.28 4.9-4.4 7.68-6.07 3.32.67 6.89 1.12 9.56 3.41 6.51 5.27 10.11 13.39 11.59 21.48.58 5.83-.29 12.44-4.94 16.53-.5-.48-.99-.97-1.48-1.47 2.85-4.3 2.73-9.84 1.66-14.7-1.7-8.87-6.37-17.67-14.12-22.63-1.16-1.04-2.62-.4-3.94-.2 6.81 3.82 12.49 9.88 14.73 17.48 3.08 7.27 2.21 15.43-.28 22.72-2.7.54-5.76 1.23-8.18-.55-4.67-2.27-4.84-9.32-10.08-10.64 2.94 6 6.91 13.52 14.42 14 4.28-.76 9.54-1.71 11.66-6.02 3.99-7.08 1.57-15.43-.27-22.77 4.55-2.71 9.66-4.51 13.83-7.82-.74-1.43-1.67-2.83-3.06-3.69-4.42 1.64-8.51 4.07-12.53 6.5-3.97-6.88-10.27-14.35-19.12-13.18m-3.3 24.57c-3.2 2.73-7.33 3.91-10.94 5.96-1.43-.99-2.68-3.33-4.71-2.46-3.13.97-6.29 2.07-9.09 3.78-2.32 2.59-3.84 5.83-4.98 9.1-3.85 2.22-7.98 3.92-11.78 6.23-6.47 4.03-13.71 6.59-20.2 10.6-8.21 5.07-17.23 8.65-25.46 13.68-2.24 1.35-4.59 2.47-7.01 3.45-1.73-2.22-4.39-3.05-7.11-3.19-.52.47-1.58 1.42-2.1 1.9-2.13-2.11-4.24-4.24-6.43-6.29-1.64-.28-3.61.02-4.87-1.3-4.63-4.51-10.12-7.99-15.66-11.23-4.91-1.84-11.7-3.61-15.81.73-3.49 2.78-1.78 7.78-2.22 11.62-.47-.03-1.42-.1-1.89-.13-3-3.42-7.73-3.86-11.9-4.79-4.21-.55-9.91 1.69-10.31 6.52-.88 5.49-2.09 10.95-2.47 16.52-.46 5.38 1.07 10.69.78 16.07-.03 3.41-.96 6.7-1.69 10-4.16 1.09-8.43 1.75-12.58 2.8-3.81 1.19-4.34 5.76-2.33 8.74 2.98 2.82 7.08 3.93 10.85 5.28 2.59.86 4.62 2.82 7.16 3.77 3.44.88 6.9-.32 10.17-1.28 2.21-7.22-2.94-14.05-1.77-21.28.27-3.96.45-7.94 1.06-11.86 2.2 1.81 4.31 3.72 6.62 5.39-.13 3.4-.5 6.79-.55 10.2.41 4.73 1.66 9.45 1.04 14.23-.76 5.15.2 10.34-.39 15.5.3 5.03-1.07 9.97-.78 15.01-4.96 2.5-10.08 4.68-15.09 7.07.06 3.86-.05 7.78.85 11.56 2.56.81 5.22 1.29 7.74 2.22 6.79-3.17 13.42-6.76 20.58-9.04 9.33 2.15 17.83 6.79 27.13 8.99 15.13 5.03 30.22 10.17 45.25 15.49 2.35-2.54 5.23-4.52 8.38-5.95-.73-9.6.19-19.2-.21-28.82 5.01.36 10.45 1.1 14.94-1.77 4.47-3.05 9.24-5.66 13.54-8.95-.65-.56-1.3-1.11-1.96-1.65-3.51 2.69-7.6 4.49-11 7.35-4.62 3.52-10.67 2.89-16.11 2.7-4.67-3-9.84-5.13-14.46-8.22-7.3-3.89-13.84-9.07-21.42-12.45-7.77-5.79-16.44-10.18-24.53-15.48-6.58-3.63-12.44-8.5-19.3-11.59-.02-.62-.04-1.24-.04-1.85 3.52-2.1 7.2-3.86 10.93-5.57 1.57-.92 3.23-1.74 4.6-2.96.53-1.75-.94-3.1-1.74-4.48-1.77 1.25-2.48-.9-3.29-2.06.05.63.16 1.9.22 2.54-2.29 1.08-4.53 2.24-6.76 3.42-2.06-4.73-2-9.99-1.61-15.04.17-2.2 1.06-4.39 2.55-6.01 2.08-1.55 4.52-2.5 6.8-3.68 9.51 1.15 15.79 9.69 18.71 18.14 1.55 3.66 1.35 7.67 1.49 11.55-.01 1.61 1.53.21 1.4-.7 1.01-2.9.1-5.85-.3-8.76 1.35 2.79 2.44 5.7 3.23 8.7-.3.24-.89.72-1.18.96-.24 1.33.53 2.17 2.31 2.51 1 5.56 4.44 10.04 7.91 14.31-4.58-2.21-7.9-6.45-12.99-7.67.61-2.69 1.18-5.4 1.73-8.1-.79.26-2.39.77-3.18 1.03l1.24.06c-.93 3.37-1.78 7.68-5.37 9.23-3.36 1.52-7.51 2.79-10.89.64-4.49-2.45-6.8-7.19-9.74-11.12-.79 1.07-1.52 2.19-2.23 3.31.46.08 1.4.23 1.87.3 3.09 5.03 7.2 10.26 13.24 11.56 4.33-.49 8.66-2.19 11.99-5.04.33.23 1 .68 1.33.9 4.25.49 7.04 4.01 10.53 6.09 4.62 2.73 6.39 8.14 10.34 11.55 2.12 2.09 4.66 3.73 7.47 4.72 3.24 1.22 5.13 4.44 8.27 5.84 3.64 2.13 8.01 1.97 12.08 1.91 4.26-2.87 9.79-2.74 13.91-5.93 2.3 5.06 8.31 7.1 13.47 5.57.5.64 1.01 1.27 1.51 1.91.74-4.36 6.43-4.72 8.4-8.39 2.6-3.42 1.92-7.91 1.03-11.8-.48-.27-1.45-.83-1.93-1.1-.16-.69-.46-2.06-.62-2.74 2.14-7.45 4.49-14.97 8.6-21.59 3.6-6.07 3.13-13.38 5.16-19.96 2.03-6.79 2.18-13.96 1.85-20.98-1.26-5-2.3-10.04-3.14-15.13 1.54-2.44 3.19-4.82 5.32-6.78-.1-.65-.28-1.94-.37-2.59 5.61-2.73 11.42-5.25 16.38-9.09.92-2.11-1.18-3.72-2.14-5.35-1.82.93-3.68 1.78-5.33 2.99M76.28 81.64c.52 2.13 2.52 3 4.11 4.17 10.13 8.55 14.43 23.44 9.77 35.98.71-.46 2.13-1.38 2.84-1.85 2.38-10.21.18-21.31-6.13-29.71-2.82-3.6-5.74-7.77-10.59-8.59z"/><path d="M231.61 21.01c4.04-1.81 7.99-3.82 11.81-6.05.64.63 1.28 1.27 1.92 1.91-4.13 1.9-8 4.34-12.23 6.02-.38-.47-1.13-1.41-1.5-1.88zM202.62 36.66c4.2-2.19 8.27-4.86 12.95-5.93-.63 1.31-1.1 2.83-2.57 3.42a155.4 155.4 0 01-12.79 7.29c-.14-2.05.36-4 2.41-4.78zM182.64 44.84c1.97-3.56 5.02-6.71 9.28-7.19 2.83-1.09 5.52.91 6.84 3.3 1.07 4.21-2.88 7.05-5.28 9.84.92 10.24 5.67 20.44 2.45 30.76-.58.03-1.74.08-2.32.1 2.35 5.09-.65 10.19-.95 15.35-.36 6.67-4.87 12.1-5.92 18.62-.66 4.04-2.94 7.42-6.15 9.89-1.95-2.33-3.25-5.27-5.45-7.35-2.18.03-4.37.27-6.55.16-.78-.84-1.45-1.78-2.06-2.75l1.4 3.67c-1.92-1.12-3.84-2.26-5.73-3.42-2.54 1.12-5.25.82-7.9.35 0-1.49.18-3.2-1.23-4.15-2.7-2.85-6.22-4.97-10.14-5.59 2.51 3.66 7.15 4.9 9.96 8.33-1.45 3.19-2.91 6.52-3.09 10.06.84 3.29 3.01 6.2 3.14 9.7 1.61 1.56 3.74 3.98 6.07 2.11-1.4-.92-2.87-1.72-4.22-2.72-.47-4.16-2.38-7.93-4.49-11.49 1.3-1.32 2.64-2.59 3.99-3.86l-1.25-1.76c4.36 1.15 9.72-1.9 12.93 2.41-2.38.73-4.8 1.28-7.19 1.96 1.75.05 3.5.08 5.25.08-2.51 3.44-5.49 9.05-2.06 12.82.2-5.9 2.51-12.53 8.16-15.22 2.64-1.24 4.47 1.38 5.79 3.22 2.97 4.52 5.19 9.47 7.73 14.24 1.84 3.15-.85 6.38-2.25 9.13-2.6 2.86-6.64 4.3-10.45 4.47-5.87-1.11-11.29-4.9-13.7-10.5.05 1.67.08 3.34.08 5.01.58 0 1.74 0 2.31.01-4.15 3.64-10.08 3.62-15.22 4.85-3.43 1.03-7.02.16-10.23-1.15-2.38-1.61-3.82-4.3-6.31-5.77-2.81-1.94-6.57-2.96-8.11-6.29-2.28-4.21-6.09-7.42-7.73-12.01-2.53-2.52-4.8-5.46-5.69-8.98-1.12-4.57-2.29-9.21-4.77-13.26-.03-1.18-.06-2.36-.07-3.55 1.07-1.72 1.83-3.61 2.31-5.58-1.79-.88-3.63-1.68-5.49-2.4.59-1.56 1.22-3.09 1.89-4.61 1.45-.9 2.87-1.86 4.26-2.85.47-.11 1.39-.33 1.85-.43 1.37-.91 2.77-2.48 4.54-1.43 3.73.95 4.63 5.12 6.08 8.16-3.45 2.93-7.5 4.88-11.62 6.64.91.79 2.01 1.17 3.32 1.14.81 4.91 4.41 8.35 7.25 12.15 1.8 3.89 3.05 8.04 4.24 12.16 3.86.73 8.06.7 11.34 3.15 3.59 1.97 5.29 6.29 9.16 7.8 1.66-1.26 3.74-1.46 5.74-1.66.07-1.55.15-3.11.22-4.66-.07.71-.22 2.13-.3 2.83-.9-.12-2.71-.36-3.62-.47-.67-2.61-1.98-5.92-5.21-5.7.91 1.79 1.86 3.57 2.74 5.38-3.64-2.58-7.43-4.97-10.88-7.79-.21-2.26-.1-4.53-.12-6.79 1.91-1.82 3.39-4.13 5.65-5.54 3.38-2.04 7.94-.73 10.71-3.92-.35-.44-1.05-1.31-1.4-1.74 6.08-3.14 13.03-.9 19 1.38.87 1.77 1.9 3.45 2.89 5.15l2.35-.15c.31-.54.94-1.62 1.26-2.16 3.47-1.15 7.13-1.48 10.76-1.08.12-.37.36-1.12.49-1.49-1.56-.49-3.12-.99-4.67-1.47a319.7 319.7 0 01-.77-5.28c2.12-2.67 3.18-5.91 4.31-9.08 2.66-1.7 5.41-3.28 8.4-4.35-.26-.48-.78-1.43-1.04-1.91l-3.05 1.24c1.39-8.61 1.8-17.33 2.91-25.98.88-3.16-2.86-4.62-5.02-5.87-15.32 7.09-29.87 15.82-44.83 23.65-6.6 2.95-12.71 6.93-19.36 9.77l-1.92-1.24c12.67-7.78 26.36-13.65 39.23-21.07 9.32-5.56 19.31-9.84 28.66-15.33-.28-.5-.85-1.5-1.13-2m-38.96 91.58c1.64 3.03 2.88 6.25 4.22 9.42 1.06-3.58.36-8.97-4.22-9.42z"/><path d="M137.31 76.41c14.57-7.87 29.16-15.71 43.7-23.64 1.18.81 2.37 1.61 3.56 2.4.49 4.05 1.49 8.28.09 12.25-1.65 4.72-2.76 9.65-2.94 14.65.19 1.54-1.25 2.47-2.01 3.6-4.06 4.94-6.85 11.18-6.37 17.69a84.88 84.88 0 00-5.8 2.05c-3.42-1.4-6.44-3.51-9.57-5.42-3.53-2.31-8.43-.88-11.53-4.01-.44-.12-1.3-.35-1.74-.47-.31-3.45-3.71-1.17-5.76-1.67-7.34-1.13-14.75-2.88-21.12-6.86 5.68-4.94 13.25-6.52 19.49-10.57zM63.37 62.56c7.13-3.38 14.38.97 20.68 4.1 3.73 1.29 6.27 4.38 8.6 7.39-3.72.98-8.14 1.4-10.39 4.99-1.76-.12-3.51-.24-5.27-.34-3.49 2.04-7.94 3.49-9.39 7.7-3.39 5.94-1.1 12.84-1.17 19.23.42.05 1.26.14 1.67.19-.71.5-2.14 1.5-2.86 1.99l.04-2c-1.16-.26-2.33-.51-3.49-.75-.52-3.8-2.38-7.32-2.6-11.16 1.21-5.91 6.17-9.95 10.79-13.34-.8-.95-1.61-1.89-2.43-2.8.56-.35 1.12-.69 1.7-1.03 2.06.46 4.17.67 6.29.69-2.84-1.72-6.1-2.4-9.27-3.19-.12.65-.36 1.94-.47 2.58-.85-.4-2.53-1.21-3.37-1.62 1.24-4.19-.95-8.58.94-12.63m3.36 8.54c4.42.59 8.9.47 13.32 1.06-3.37-3.94-9.04-2.45-13.32-1.06z"/><path d="M41.75 71.75c3.27-.92 7.17-1.87 10.31-.02 5.56 3.12 11.21 6.11 16.95 8.89-4.04 1.75-8.17 4.05-10.33 8.07-1.93 2.88-1.71 6.48-1.88 9.79-3.84-2.74-7.25-6.07-11.38-8.41-1.97 1.12-4.29 1.72-5.97 3.28-1.1 2-1.01 4.52-.73 6.73 1.45 1.3 3.18 2.25 4.59 3.6.3 3.78-.9 7.51-.55 11.29.6 6.86 2.72 13.56 2.07 20.5-6.79 2.9-13.2-1.86-19.4-4.09-3.63-1.28-6.34-4.13-7.48-7.82 5.61-1.42 11.48-2 16.63-4.83.98-2.57 1.82-5.22 1.96-7.99.62 1.03 1.86 3.07 2.48 4.1-.65-4.69-2.62-9.15-2.62-13.92-.11-6 .78-11.96.89-17.95.03-4.05 1.06-8.69 4.46-11.22m-2.14 13.62c1.59.28 3.47 0 4.64 1.35 2.96 2.83 6.25 5.51 10.34 6.45-2.4-4.07-7.59-5.32-10.22-9.32-1.57.55-3.16 1.06-4.76 1.52m.52 34.44c-.09 1.23-.47 2.31-1.13 3.25-2.5 1.16-5.19 1.77-7.85 2.42.98.71 1.95 1.42 2.92 2.13 1.62-.67 2.83-3.71 4.76-2.46.84 1.33 1.63 2.69 2.48 4.03.46-3.14.59-6.31.89-9.46l-2.07.09zM86.82 76.65c2.64-1.01 5.4-2.37 8.31-1.62 4.3.16 5.99 5.79 10.52 5.36-3.84 1.36-6.84 4.23-10.41 6.08-.38.66-1.13 1.98-1.5 2.63-.37-.55-1.09-1.66-1.46-2.21-.06-1.42-.18-2.83-.37-4.24l-.32 3.21a40.127 40.127 0 00-7.45-6.13c.89-1.02 1.79-2.05 2.68-3.08zM118.65 89.85c4.94 2.69 10.38 4.25 15.37 6.83l-1.08 4.61c-1.56-.89-3.14-1.75-4.7-2.63-5.42.71-10.03-2.14-14.9-3.87 2.03 3.78 6.4 6.29 10.73 5.52 3.77-.59 6.59 2.8 10.38 2.56.05-2.75.26-5.55 2.21-7.68 3.96.2 7.66 1.65 11.22 3.29-2.08 1.3-4.03 2.82-5.4 4.9-4.74.71-9 3.26-12.2 6.76-1.98 2.92-2.8 6.46-2.92 9.95-1.42-.41-2.83-.82-4.23-1.25-.64-1.49-1.24-3.27-2.71-4.15-.23-1.62-.6-3.21-1.03-4.79 3.4-1.21 6.66-2.74 10.05-3.97-.09-.66-.18-1.31-.28-1.96-4.18.02-7.13 3.46-11.15 3.93-3.41-3.36-6.62-7.66-5.72-12.74 2.23-1.63 4.4-3.36 6.36-5.31m2.49 23.33l.07.69c.35.03 1.06.1 1.42.14l-.06-.95-.91-.43-.52.55z"/><path d="M40.27 98.89c-.9-3.56 1.99-5.54 4.78-6.92 2.14.44 3.38 2.61 4.89 4.03 3.43 4.12 8.91 5.83 12.11 10.19.72.7 1.44 1.4 2.17 2.09-2.72 1.63-5.72 2.77-8.3 4.61-.55 2.41 1.25 4.07 2.77 5.6 1.51-1.03 3.01-2.07 4.5-3.12.11 15.53-.26 31.07.61 46.59 3.7-2.05 7.67-3.6 11.23-5.89 2.73-1.77 6.29-2.17 9.31-.93 3.53.55 2.89 5.25 2.9 7.92-2.57 1.94-5.7 2.91-8.56 4.32-.57-.01-1.7-.04-2.26-.05l.03 2.63c12.52 2.07 24.02 7.68 36.16 11.12 7.31 2.2 14.55 4.63 21.87 6.8-.11-8.95-.12-17.91-.6-26.85 3.38 1.41 7.18 1.86 10.31 3.82 2.59 1.45.92 4.48.77 6.71-.87 7.19-1.78 14.58-.24 21.75-2.19 1.4-4.31 2.9-6.45 4.37-22.92-7.75-46-15.01-68.86-22.97.01-.55.01-1.63.02-2.18-8 2.54-15.12 7.1-22.82 10.36-.17-.46-.5-1.37-.67-1.83-.08.51-.24 1.52-.33 2.03-2.11-.49-4.21-1.03-6.3-1.6-.07-2.93-.1-5.87-.11-8.8 4.94-2.51 10.24-4.15 15.27-6.44-.6-12.07-.1-24.17.24-36.25.03-6.68-1.18-13.5.52-20.08-.12-1.38-1.69-1.85-2.55-2.7-3.95-3.04-8.06-5.89-12.41-8.33zM96.43 96.78c.55-3.05 3.37-3.91 6.08-3.59-1.39 2.09-3.62 3.26-6.08 3.59z"/><path d="M60.04 112.19c6.4-2.33 11.82-6.69 18.18-9.05.63.14 1.89.43 2.52.57-6.03 4.34-13.11 6.95-19.22 11.2-.49-.9-.99-1.81-1.48-2.72zM58.12 113.59c1.35.19 1.59.89.74 2.07-1.36-.2-1.61-.89-.74-2.07zM65.4 117.74c9.08 5.05 17.67 10.94 26.56 16.32 8.25 5.09 15.91 11.1 24.56 15.55 4.81 3.3 10.38 5.55 14.69 9.51.51 8.59.44 17.23 1.09 25.83-5.22-1.16-10.22-3.07-15.36-4.52-12-4-24.2-7.4-35.99-11.99 2.81-1.32 5.92-2.24 8.32-4.28.43-1.88.33-3.81.44-5.72-.59-1.14-1.18-2.29-1.75-3.44-2.3-1-4.52-2.28-6.98-2.83-5.31 1.65-10.21 4.4-15.35 6.5-.06-12.68-.81-25.39.28-38.02l-.51-2.91z"/></g><g fill="#333"><path d="M212.45 6.65c8.85-1.17 15.15 6.3 19.12 13.18 4.02-2.43 8.11-4.86 12.53-6.5 1.39.86 2.32 2.26 3.06 3.69-4.17 3.31-9.28 5.11-13.83 7.82 1.84 7.34 4.26 15.69.27 22.77-2.12 4.31-7.38 5.26-11.66 6.02-7.51-.48-11.48-8-14.42-14 5.24 1.32 5.41 8.37 10.08 10.64 2.42 1.78 5.48 1.09 8.18.55 2.49-7.29 3.36-15.45.28-22.72-2.24-7.6-7.92-13.66-14.73-17.48 1.32-.2 2.78-.84 3.94.2 7.75 4.96 12.42 13.76 14.12 22.63 1.07 4.86 1.19 10.4-1.66 14.7.49.5.98.99 1.48 1.47 4.65-4.09 5.52-10.7 4.94-16.53-1.48-8.09-5.08-16.21-11.59-21.48-2.67-2.29-6.24-2.74-9.56-3.41-2.78 1.67-6.38 2.79-7.68 6.07-1.98 4.55-2.85 10.25-.3 14.74.24.95.48 1.9.71 2.85-.58.55-1.16 1.1-1.74 1.64-.49-1.57-1.08-3.1-1.7-4.62-.49-5.3-.76-10.94 1.82-15.79 1.57-3.4 5.37-4.61 8.34-6.44m19.16 14.36c.37.47 1.12 1.41 1.5 1.88 4.23-1.68 8.1-4.12 12.23-6.02-.64-.64-1.28-1.28-1.92-1.91-3.82 2.23-7.77 4.24-11.81 6.05z"/><path d="M209.15 31.22c1.65-1.21 3.51-2.06 5.33-2.99.96 1.63 3.06 3.24 2.14 5.35-4.96 3.84-10.77 6.36-16.38 9.09.09.65.27 1.94.37 2.59-2.13 1.96-3.78 4.34-5.32 6.78.84 5.09 1.88 10.13 3.14 15.13.33 7.02.18 14.19-1.85 20.98-2.03 6.58-1.56 13.89-5.16 19.96-4.11 6.62-6.46 14.14-8.6 21.59.16.68.46 2.05.62 2.74.48.27 1.45.83 1.93 1.1.89 3.89 1.57 8.38-1.03 11.8-1.97 3.67-7.66 4.03-8.4 8.39-.5-.64-1.01-1.27-1.51-1.91-5.16 1.53-11.17-.51-13.47-5.57-4.12 3.19-9.65 3.06-13.91 5.93-4.07.06-8.44.22-12.08-1.91-3.14-1.4-5.03-4.62-8.27-5.84-2.81-.99-5.35-2.63-7.47-4.72-3.95-3.41-5.72-8.82-10.34-11.55-3.49-2.08-6.28-5.6-10.53-6.09-.33-.22-1-.67-1.33-.9-3.33 2.85-7.66 4.55-11.99 5.04-6.04-1.3-10.15-6.53-13.24-11.56-.47-.07-1.41-.22-1.87-.3.71-1.12 1.44-2.24 2.23-3.31 2.94 3.93 5.25 8.67 9.74 11.12 3.38 2.15 7.53.88 10.89-.64 3.59-1.55 4.44-5.86 5.37-9.23l-1.24-.06c.79-.26 2.39-.77 3.18-1.03-.55 2.7-1.12 5.41-1.73 8.1 5.09 1.22 8.41 5.46 12.99 7.67-3.47-4.27-6.91-8.75-7.91-14.31-1.78-.34-2.55-1.18-2.31-2.51.29-.24.88-.72 1.18-.96-.79-3-1.88-5.91-3.23-8.7.4 2.91 1.31 5.86.3 8.76.13.91-1.41 2.31-1.4.7-.14-3.88.06-7.89-1.49-11.55-2.92-8.45-9.2-16.99-18.71-18.14-2.28 1.18-4.72 2.13-6.8 3.68-1.49 1.62-2.38 3.81-2.55 6.01-.39 5.05-.45 10.31 1.61 15.04 2.23-1.18 4.47-2.34 6.76-3.42-.06-.64-.17-1.91-.22-2.54.81 1.16 1.52 3.31 3.29 2.06.8 1.38 2.27 2.73 1.74 4.48-1.37 1.22-3.03 2.04-4.6 2.96-3.73 1.71-7.41 3.47-10.93 5.57 0 .61.02 1.23.04 1.85 6.86 3.09 12.72 7.96 19.3 11.59 8.09 5.3 16.76 9.69 24.53 15.48 7.58 3.38 14.12 8.56 21.42 12.45 4.62 3.09 9.79 5.22 14.46 8.22 5.44.19 11.49.82 16.11-2.7 3.4-2.86 7.49-4.66 11-7.35.66.54 1.31 1.09 1.96 1.65-4.3 3.29-9.07 5.9-13.54 8.95-4.49 2.87-9.93 2.13-14.94 1.77.4 9.62-.52 19.22.21 28.82-3.15 1.43-6.03 3.41-8.38 5.95-15.03-5.32-30.12-10.46-45.25-15.49-9.3-2.2-17.8-6.84-27.13-8.99-7.16 2.28-13.79 5.87-20.58 9.04-2.52-.93-5.18-1.41-7.74-2.22-.9-3.78-.79-7.7-.85-11.56 5.01-2.39 10.13-4.57 15.09-7.07-.29-5.04 1.08-9.98.78-15.01.59-5.16-.37-10.35.39-15.5.62-4.78-.63-9.5-1.04-14.23.05-3.41.42-6.8.55-10.2-2.31-1.67-4.42-3.58-6.62-5.39-.61 3.92-.79 7.9-1.06 11.86-1.17 7.23 3.98 14.06 1.77 21.28-3.27.96-6.73 2.16-10.17 1.28-2.54-.95-4.57-2.91-7.16-3.77-3.77-1.35-7.87-2.46-10.85-5.28-2.01-2.98-1.48-7.55 2.33-8.74 4.15-1.05 8.42-1.71 12.58-2.8.73-3.3 1.66-6.59 1.69-10 .29-5.38-1.24-10.69-.78-16.07.38-5.57 1.59-11.03 2.47-16.52.4-4.83 6.1-7.07 10.31-6.52 4.17.93 8.9 1.37 11.9 4.79.47.03 1.42.1 1.89.13.44-3.84-1.27-8.84 2.22-11.62 4.11-4.34 10.9-2.57 15.81-.73 5.54 3.24 11.03 6.72 15.66 11.23 1.26 1.32 3.23 1.02 4.87 1.3 2.19 2.05 4.3 4.18 6.43 6.29.52-.48 1.58-1.43 2.1-1.9 2.72.14 5.38.97 7.11 3.19 2.42-.98 4.77-2.1 7.01-3.45 8.23-5.03 17.25-8.61 25.46-13.68 6.49-4.01 13.73-6.57 20.2-10.6 3.8-2.31 7.93-4.01 11.78-6.23 1.14-3.27 2.66-6.51 4.98-9.1 2.8-1.71 5.96-2.81 9.09-3.78 2.03-.87 3.28 1.47 4.71 2.46 3.61-2.05 7.74-3.23 10.94-5.96m-6.53 5.44c-2.05.78-2.55 2.73-2.41 4.78A155.4 155.4 0 00213 34.15c1.47-.59 1.94-2.11 2.57-3.42-4.68 1.07-8.75 3.74-12.95 5.93m-19.98 8.18c.28.5.85 1.5 1.13 2-9.35 5.49-19.34 9.77-28.66 15.33-12.87 7.42-26.56 13.29-39.23 21.07l1.92 1.24c6.65-2.84 12.76-6.82 19.36-9.77 14.96-7.83 29.51-16.56 44.83-23.65 2.16 1.25 5.9 2.71 5.02 5.87-1.11 8.65-1.52 17.37-2.91 25.98l3.05-1.24c.26.48.78 1.43 1.04 1.91-2.99 1.07-5.74 2.65-8.4 4.35-1.13 3.17-2.19 6.41-4.31 9.08.24 1.76.5 3.52.77 5.28 1.55.48 3.11.98 4.67 1.47-.13.37-.37 1.12-.49 1.49-3.63-.4-7.29-.07-10.76 1.08-.32.54-.95 1.62-1.26 2.16l-2.35.15c-.99-1.7-2.02-3.38-2.89-5.15-5.97-2.28-12.92-4.52-19-1.38.35.43 1.05 1.3 1.4 1.74-2.77 3.19-7.33 1.88-10.71 3.92-2.26 1.41-3.74 3.72-5.65 5.54.02 2.26-.09 4.53.12 6.79 3.45 2.82 7.24 5.21 10.88 7.79-.88-1.81-1.83-3.59-2.74-5.38 3.23-.22 4.54 3.09 5.21 5.7.91.11 2.72.35 3.62.47.08-.7.23-2.12.3-2.83-.07 1.55-.15 3.11-.22 4.66-2 .2-4.08.4-5.74 1.66-3.87-1.51-5.57-5.83-9.16-7.8-3.28-2.45-7.48-2.42-11.34-3.15-1.19-4.12-2.44-8.27-4.24-12.16-2.84-3.8-6.44-7.24-7.25-12.15-1.31.03-2.41-.35-3.32-1.14 4.12-1.76 8.17-3.71 11.62-6.64-1.45-3.04-2.35-7.21-6.08-8.16-1.77-1.05-3.17.52-4.54 1.43-.46.1-1.38.32-1.85.43-1.39.99-2.81 1.95-4.26 2.85-.67 1.52-1.3 3.05-1.89 4.61 1.86.72 3.7 1.52 5.49 2.4-.48 1.97-1.24 3.86-2.31 5.58.01 1.19.04 2.37.07 3.55 2.48 4.05 3.65 8.69 4.77 13.26.89 3.52 3.16 6.46 5.69 8.98 1.64 4.59 5.45 7.8 7.73 12.01 1.54 3.33 5.3 4.35 8.11 6.29 2.49 1.47 3.93 4.16 6.31 5.77 3.21 1.31 6.8 2.18 10.23 1.15 5.14-1.23 11.07-1.21 15.22-4.85-.57-.01-1.73-.01-2.31-.01 0-1.67-.03-3.34-.08-5.01 2.41 5.6 7.83 9.39 13.7 10.5 3.81-.17 7.85-1.61 10.45-4.47 1.4-2.75 4.09-5.98 2.25-9.13-2.54-4.77-4.76-9.72-7.73-14.24-1.32-1.84-3.15-4.46-5.79-3.22-5.65 2.69-7.96 9.32-8.16 15.22-3.43-3.77-.45-9.38 2.06-12.82-1.75 0-3.5-.03-5.25-.08 2.39-.68 4.81-1.23 7.19-1.96-3.21-4.31-8.57-1.26-12.93-2.41l1.25 1.76c-1.35 1.27-2.69 2.54-3.99 3.86 2.11 3.56 4.02 7.33 4.49 11.49 1.35 1 2.82 1.8 4.22 2.72-2.33 1.87-4.46-.55-6.07-2.11-.13-3.5-2.3-6.41-3.14-9.7.18-3.54 1.64-6.87 3.09-10.06-2.81-3.43-7.45-4.67-9.96-8.33 3.92.62 7.44 2.74 10.14 5.59 1.41.95 1.23 2.66 1.23 4.15 2.65.47 5.36.77 7.9-.35 1.89 1.16 3.81 2.3 5.73 3.42l-1.4-3.67c.61.97 1.28 1.91 2.06 2.75 2.18.11 4.37-.13 6.55-.16 2.2 2.08 3.5 5.02 5.45 7.35 3.21-2.47 5.49-5.85 6.15-9.89 1.05-6.52 5.56-11.95 5.92-18.62.3-5.16 3.3-10.26.95-15.35.58-.02 1.74-.07 2.32-.1 3.22-10.32-1.53-20.52-2.45-30.76 2.4-2.79 6.35-5.63 5.28-9.84-1.32-2.39-4.01-4.39-6.84-3.3-4.26.48-7.31 3.63-9.28 7.19m-45.33 31.57c-6.24 4.05-13.81 5.63-19.49 10.57 6.37 3.98 13.78 5.73 21.12 6.86 2.05.5 5.45-1.78 5.76 1.67.44.12 1.3.35 1.74.47 3.1 3.13 8 1.7 11.53 4.01 3.13 1.91 6.15 4.02 9.57 5.42a84.88 84.88 0 015.8-2.05c-.48-6.51 2.31-12.75 6.37-17.69.76-1.13 2.2-2.06 2.01-3.6.18-5 1.29-9.93 2.94-14.65 1.4-3.97.4-8.2-.09-12.25-1.19-.79-2.38-1.59-3.56-2.4-14.54 7.93-29.13 15.77-43.7 23.64M63.37 62.56c-1.89 4.05.3 8.44-.94 12.63.84.41 2.52 1.22 3.37 1.62.11-.64.35-1.93.47-2.58 3.17.79 6.43 1.47 9.27 3.19-2.12-.02-4.23-.23-6.29-.69-.58.34-1.14.68-1.7 1.03.82.91 1.63 1.85 2.43 2.8-4.62 3.39-9.58 7.43-10.79 13.34.22 3.84 2.08 7.36 2.6 11.16 1.16.24 2.33.49 3.49.75l-.04 2c.72-.49 2.15-1.49 2.86-1.99-.41-.05-1.25-.14-1.67-.19.07-6.39-2.22-13.29 1.17-19.23 1.45-4.21 5.9-5.66 9.39-7.7 1.76.1 3.51.22 5.27.34 2.25-3.59 6.67-4.01 10.39-4.99-2.33-3.01-4.87-6.1-8.6-7.39-6.3-3.13-13.55-7.48-20.68-4.1m-21.62 9.19c-3.4 2.53-4.43 7.17-4.46 11.22-.11 5.99-1 11.95-.89 17.95 0 4.77 1.97 9.23 2.62 13.92-.62-1.03-1.86-3.07-2.48-4.1-.14 2.77-.98 5.42-1.96 7.99-5.15 2.83-11.02 3.41-16.63 4.83 1.14 3.69 3.85 6.54 7.48 7.82 6.2 2.23 12.61 6.99 19.4 4.09.65-6.94-1.47-13.64-2.07-20.5-.35-3.78.85-7.51.55-11.29-1.41-1.35-3.14-2.3-4.59-3.6-.28-2.21-.37-4.73.73-6.73 1.68-1.56 4-2.16 5.97-3.28 4.13 2.34 7.54 5.67 11.38 8.41.17-3.31-.05-6.91 1.88-9.79 2.16-4.02 6.29-6.32 10.33-8.07-5.74-2.78-11.39-5.77-16.95-8.89-3.14-1.85-7.04-.9-10.31.02m45.07 4.9c-.89 1.03-1.79 2.06-2.68 3.08 2.71 1.74 5.22 3.78 7.45 6.13l.32-3.21c.19 1.41.31 2.82.37 4.24.37.55 1.09 1.66 1.46 2.21.37-.65 1.12-1.97 1.5-2.63 3.57-1.85 6.57-4.72 10.41-6.08-4.53.43-6.22-5.2-10.52-5.36-2.91-.75-5.67.61-8.31 1.62m31.83 13.2c-1.96 1.95-4.13 3.68-6.36 5.31-.9 5.08 2.31 9.38 5.72 12.74 4.02-.47 6.97-3.91 11.15-3.93.1.65.19 1.3.28 1.96-3.39 1.23-6.65 2.76-10.05 3.97.43 1.58.8 3.17 1.03 4.79 1.47.88 2.07 2.66 2.71 4.15 1.4.43 2.81.84 4.23 1.25.12-3.49.94-7.03 2.92-9.95 3.2-3.5 7.46-6.05 12.2-6.76 1.37-2.08 3.32-3.6 5.4-4.9-3.56-1.64-7.26-3.09-11.22-3.29-1.95 2.13-2.16 4.93-2.21 7.68-3.79.24-6.61-3.15-10.38-2.56-4.33.77-8.7-1.74-10.73-5.52 4.87 1.73 9.48 4.58 14.9 3.87 1.56.88 3.14 1.74 4.7 2.63l1.08-4.61c-4.99-2.58-10.43-4.14-15.37-6.83m-78.38 9.04c4.35 2.44 8.46 5.29 12.41 8.33.86.85 2.43 1.32 2.55 2.7-1.7 6.58-.49 13.4-.52 20.08-.34 12.08-.84 24.18-.24 36.25-5.03 2.29-10.33 3.93-15.27 6.44.01 2.93.04 5.87.11 8.8 2.09.57 4.19 1.11 6.3 1.6.09-.51.25-1.52.33-2.03.17.46.5 1.37.67 1.83 7.7-3.26 14.82-7.82 22.82-10.36-.01.55-.01 1.63-.02 2.18 22.86 7.96 45.94 15.22 68.86 22.97 2.14-1.47 4.26-2.97 6.45-4.37-1.54-7.17-.63-14.56.24-21.75.15-2.23 1.82-5.26-.77-6.71-3.13-1.96-6.93-2.41-10.31-3.82.48 8.94.49 17.9.6 26.85-7.32-2.17-14.56-4.6-21.87-6.8-12.14-3.44-23.64-9.05-36.16-11.12l-.03-2.63c.56.01 1.69.04 2.26.05 2.86-1.41 5.99-2.38 8.56-4.32-.01-2.67.63-7.37-2.9-7.92-3.02-1.24-6.58-.84-9.31.93-3.56 2.29-7.53 3.84-11.23 5.89-.87-15.52-.5-31.06-.61-46.59-1.49 1.05-2.99 2.09-4.5 3.12-1.52-1.53-3.32-3.19-2.77-5.6 2.58-1.84 5.58-2.98 8.3-4.61-.73-.69-1.45-1.39-2.17-2.09-3.2-4.36-8.68-6.07-12.11-10.19-1.51-1.42-2.75-3.59-4.89-4.03-2.79 1.38-5.68 3.36-4.78 6.92m56.16-2.11c2.46-.33 4.69-1.5 6.08-3.59-2.71-.32-5.53.54-6.08 3.59m-36.39 15.41c.49.91.99 1.82 1.48 2.72 6.11-4.25 13.19-6.86 19.22-11.2-.63-.14-1.89-.43-2.52-.57-6.36 2.36-11.78 6.72-18.18 9.05m-1.92 1.4c-.87 1.18-.62 1.87.74 2.07.85-1.18.61-1.88-.74-2.07m7.28 4.15l.51 2.91c-1.09 12.63-.34 25.34-.28 38.02 5.14-2.1 10.04-4.85 15.35-6.5 2.46.55 4.68 1.83 6.98 2.83.57 1.15 1.16 2.3 1.75 3.44-.11 1.91-.01 3.84-.44 5.72-2.4 2.04-5.51 2.96-8.32 4.28 11.79 4.59 23.99 7.99 35.99 11.99 5.14 1.45 10.14 3.36 15.36 4.52-.65-8.6-.58-17.24-1.09-25.83-4.31-3.96-9.88-6.21-14.69-9.51-8.65-4.45-16.31-10.46-24.56-15.55-8.89-5.38-17.48-11.27-26.56-16.32z"/><path d="M66.73 71.1c4.28-1.39 9.95-2.88 13.32 1.06-4.42-.59-8.9-.47-13.32-1.06zM76.28 81.64c4.85.82 7.77 4.99 10.59 8.59 6.31 8.4 8.51 19.5 6.13 29.71-.71.47-2.13 1.39-2.84 1.85 4.66-12.54.36-27.43-9.77-35.98-1.59-1.17-3.59-2.04-4.11-4.17zM39.61 85.37c1.6-.46 3.19-.97 4.76-1.52 2.63 4 7.82 5.25 10.22 9.32-4.09-.94-7.38-3.62-10.34-6.45-1.17-1.35-3.05-1.07-4.64-1.35zM121.14 113.18l.52-.55.91.43.06.95c-.36-.04-1.07-.11-1.42-.14l-.07-.69zM40.13 119.81l2.07-.09c-.3 3.15-.43 6.32-.89 9.46-.85-1.34-1.64-2.7-2.48-4.03-1.93-1.25-3.14 1.79-4.76 2.46-.97-.71-1.94-1.42-2.92-2.13 2.66-.65 5.35-1.26 7.85-2.42.66-.94 1.04-2.02 1.13-3.25zM143.68 136.42c4.58.45 5.28 5.84 4.22 9.42-1.34-3.17-2.58-6.39-4.22-9.42z"/></g></svg>