<svg width="151pt" height="275pt" viewBox="0 0 151 275" xmlns="http://www.w3.org/2000/svg"><g fill="#FFF"><path d="M0 0h151v275H0V0m91.32 83.17c-2.84 3.67-5.56 7.99-5.3 12.81.24 2.73-1.58 4.9-2.91 7.08-3.94-.23-8-.89-11.85.28-4.93-2.99-10.77.16-16.12-.91-3.98-1.01-8.1-.61-12.12-1.27-5.52-.7-10.71 1.72-16.12 2.23-3.3.48-7.35 1.33-8.98 4.57-1.44 8.02-1.28 16.53 1.93 24.13 3.48 6.3 7.48 12.8 7.71 20.21.55.7 1.09 1.41 1.64 2.12-1.86 1.02-3.68 2.11-5.22 3.59-3.41-3.07-7.42-5.56-10.12-9.36-1.28-.15-2.55-.33-3.84-.37 3.62 4.25 8.52 7.22 12.13 11.52 2.73 1.92 2.29 5.92 4.93 7.87 3.66 2.75 7.07 5.85 10.92 8.34-.22.38-.67 1.14-.9 1.52 1.24-1.08 2.62-3.18 4.51-2.15 2.47.71 5.32 3.46 7.55.85 3.12-2.29 2.37-6.49.35-9.23.68-2.74.49-5.69-.16-8.41-2.5-2.2-5.14-4.27-7.55-6.59-.64-2.96-1.79-5.82-2.02-8.85.2-3.04.73-6.08.58-9.14-.38-.88-1.34-.73-2.12-.75 1.26 4.28-1.37 8.55.07 12.76.52 2.15.61 4.37.71 6.57l-2.28.44c1.61.62 3.25 1.19 4.92 1.68 2.81 2.64 6.22 5.63 6.08 9.84-1.42-.19-2.72-1.03-4.07-1.51-1.88 1.42-3.81 2.79-5.99 3.74-.17.48-.5 1.44-.67 1.92.4.78 1.2 2.32 1.6 3.09-3.77-.23-6.72-2.91-9.72-4.9-.86-2.81-3.3-5.2-2.92-8.27a37.73 37.73 0 004.87-3.33c.1-5.98-2.03-11.87-5.32-16.79-3.53-4.02-5.37-9.27-5.89-14.55-.63-5-1.4-10.01-1.42-15.06 2.57-1.85 5.52-3.22 8.69-3.59 6.51-.79 12.98-1.89 19.48-2.75-.12 1.01-.23 2.02-.34 3.03-.99-.06-2.97-.17-3.96-.23-2.04.45-2.21 2.88-3.04 4.44.5-.12 1.51-.37 2.01-.5.69-1.21 1.39-2.42 2.09-3.62 2.96.26 5.69 1.47 8.48 2.4-1.16-1.75-3.12-2.62-5.02-3.3.36-.23 1.07-.7 1.43-.93 5.67.3 11.48 1.27 17.11-.09 2.64-.92 5.04.75 7.1 2.19 1.55-.79 3.12-1.56 4.76-2.15 2.68-.23 5.16 2.56 7.85.54-1.98 3.69-4.17 7.35-5.13 11.48-.65-.3-1.94-.91-2.59-1.21 2.72 2.33 4.13 5.7 6.08 8.63.85-.01 1.68-.17 2.52-.27 3.92.91 8.36 1.09 11.43 4.05.76 5.53-.25 11.49-2.5 16.52.87.15 1.73.26 2.61.38 1.3.54 2.65.95 4.05 1.22-.08.54-.22 1.61-.3 2.15.77.41 2.3 1.24 3.06 1.66l-1.93.5 1.8-.08c.18 3.56-1.84 6.6-3 9.82-1.24-2.21-2.8-4.2-4.5-6.07-.26-1.31.46-3.22-1.1-3.89-.39 1.09-.72 2.19-1 3.32-1.46 1.61-2.85 3.31-4.51 4.73-2.06.55-4.24.53-6.28 1.18-1.51 1.22-2.65 2.81-3.91 4.26-2.03-.54-3.86-1.59-5.51-2.86.77 1.19 1.62 2.33 2.52 3.43l-2.72.72c.52.4 1.57 1.22 2.1 1.62-.84.88-1.77 1.64-2.79 2.3.97 3.63.53 7.36-.5 10.92-4.56-.71-8.46-3.15-11.74-6.3.07-.65.13-1.31.2-1.96-1.33-6.12.89-12.29.12-18.47-1.04-1.55-2.23-3.15-2.37-5.08-.52-2.89 1.71-5.7.41-8.54-1.37-3.1-.86-6.62-2.18-9.72-.8 2.75.28 5.5.3 8.26.11 2.36-.36 4.7-.32 7.05.09 3.07 1.59 5.88 1.73 8.93.25 6.04-1.23 12.09-.16 18.11-.36.96-1.06 2.9-1.42 3.87.86-.36 1.72-.71 2.58-1.07 2.35 2.53 4.78 5.08 8.13 6.22 2 .6 3.99 1.24 5.96 1.94 2.43 1.14 4.26-.53 5.93-2.08l-5.03-.32c1.4-4.11 1.36-8.42.44-12.63l1.36.63c.04-.96.1-1.93.16-2.89 2.8-.78 4.39-3.68 7.26-4.32 3.39-.65 6.09-2.85 8.82-4.8.13 3.71-1.59 7.02-2.76 10.44 2.87-2.77 3.34-7.31 6.67-9.57 1.23 1.1 1.62 4.83 4.22 2.96-3.56 5.54-3.96 12.48-4.83 18.87-4.95 1.35-10 2.56-15.17 1.87-.64.66-1.28 1.33-1.91 2.01 3.95.21 7.91-.13 11.87-.03l1.2-2.04c2.08-1.88 4.31.36 6.14 1.43.67 1.12 1.36 2.22 2.06 3.32-1.01 2.06-2.45 3.97-2.96 6.24.28 3.6.84 7.19.63 10.82.64 6.3 1 12.71-.01 18.99-2.28 3.47-6.92 3.34-10.47 4.63-2.3.88-4.75.38-7.13.26-.28-.68-.83-2.03-1.1-2.71.44-1.64.9-3.28 1.34-4.92-1.64-5.88 4.32-8.88 7.43-12.68l-1.92-.04c-.6.46-1.82 1.39-2.43 1.85-.34-.39-.67-.78-1-1.17 1.03-.88 1.91-1.9 2.63-3.05-1.54.36-3.08.75-4.52 1.42.15 1.61.31 3.24.38 4.87-.36.09-1.09.29-1.45.39-1.72 4.68-1.87 9.8-3.68 14.46-2.54 2.03-6 2.48-9.15 2.11-4.62-.33-9.79-.01-13.73-2.87-1.99-3.79-3.27-8.21-1.93-12.43-.61-3.26-1.75-6.55-.82-9.87 1.32-5.07-.36-10.43 1.58-15.38l.92 3.32c1.03-3.34.89-7 3.05-9.94.22-1.4.47-2.78.71-4.17-1.17.75-2.87 1.19-2.76 2.92-.28 3.36-2.67 5.78-4.33 8.51-1.38 3.73-.5 7.76-.26 11.61-.12 3.68-.57 7.35-.99 11.01-1.8.09-3.63.03-5.41.36-1.24.9-2.14 2.16-3.19 3.25-.62 2.04-1.34 4.05-2.08 6.04-3.98-2.24-9.76-2.95-12.59 1.43-3.16 3.39-1.42 8.1-.43 12.02 2.27 6.5 1.28 13.87 5.23 19.79 3.52 3.77 8.8 4.91 13.53 6.45 1.65.76 3.06-.66 4.48-1.29 3.58 3.78 8.51 5.86 13.04 8.26 2.4 1.36 5.04.08 7.11-1.27 3.56-1.76 4.59-5.9 6.68-8.95 4.42 2.01 9.32 4.42 14.08 1.78 4.53-4.05 6.15-10.11 8.07-15.64 1.47-5.4-.6-11.3 1.97-16.48 2.13-4.3 1.25-9.28 2.17-13.88-.92-6.59-1.16-13.26-2.06-19.86 2.08-2.38 2.88-5.45 2.86-8.57-1.18-1.07-2.32-2.2-3.42-3.34.44-4.33.52-8.71 1.28-13 2.39-3.63 3.65-7.83 5.8-11.58.62 2.05.87 4.21 1.52 6.25 1.21 1.55 2.61 3.17 4.4 4.03 3.21.14 6.31.77 9.34 1.83 2.84-.62 5.52-2.76 5.62-5.88.68-2.34-1.8-3.45-2.92-5.05-.49-2.41.23-5.05-.95-7.31-1.04-1.98-2.71-3.52-4.18-5.16 2.32-4.57 3.18-9.68 4.99-14.45 1.51-4.83 4.04-9.75 2.94-14.95-.71-2.9-.78-5.89-1.17-8.84-1.29-2.97-4.53-2.93-7.12-1.96l-1.8-1.52c.87-4.32-1.22-8.42-2.56-12.41-2.38-3.37-4.65-7.7-9.07-8.58-4.48-.99-9.7-.57-13.29 2.54m-38.37 24.6c-.48 3.18-3.27 4.56-6.08 5.27-3.48-1.4-7.21-.17-10.82-.47-3.42.11-6.73-.96-10.15-.91 6.07 1.91 12.39 2.19 18.69 2.5 2.65-1.27 6.08-.15 8.28-2.37.97-.87 1.86-1.82 2.76-2.75-.26-.39-.78-1.16-1.04-1.55l-1.64.28m18.01.74c-.46 1.71-.24 3.46.29 5.13-.85.56-2.88.34-2.73 1.86 1.48.74 3.12 1.07 4.72 1.49v-1.91l1.28.48c-1.72-2.07-2.55-4.61-3.56-7.05m-20.83 8.13c-.24.56-.71 1.68-.94 2.23-5.09 3.11-11.34 2.87-17.06 2.31.22 2.75 1.09 5.37 2.24 7.85.06-1.68.11-3.37.14-5.05.94.78 1.88 1.57 2.82 2.35.08 2.3.29 4.57.66 6.85 1.42-1.76 1.95-3.94 2.34-6.11 4.86.79 9.79.96 14.69.63 2.54-.66 4.62-2.43 7.04-3.41.3.54.91 1.61 1.21 2.15 2.32.02 4.67.07 6.89-.76-.22 1.03-.34 2.07-.36 3.13 1.87 6.23 3.93 12.39 5.98 18.56.66 1.68 2.27 2.48 4 2.48-1.26-2.36-2.83-4.54-4.36-6.74-.12-5.8-2.39-11.51-4.95-16.64 2.66-.84 6.46.26 7.91-2.78-4.2 1.2-8.6.76-12.91.89-4.03-2.08-8.17-3.94-11.81-6.69l-.32-2.84c-1.12.42-2.2.95-3.21 1.59m28.51 16.13c2.08 4.12 5.65 7.15 8.38 10.8.56-.54 1.12-1.08 1.68-1.61-3.47-2.94-6.46-6.41-10.06-9.19m-14.99 8.85c3.25-.5 3.13-4.15 3.99-6.57-1.74 1.92-3.04 4.17-3.99 6.57m-47.26-.31c-.09.37-.25 1.1-.33 1.47 2.66 2.56 5.71 4.7 8.16 7.48.45.14 1.33.42 1.77.56a28.535 28.535 0 00-9.6-9.51m45.89 7.3c2.96-1.08 7.31 3.42 4.58 6.07-1.57-.04-3.1-.67-4.68-.52-.56 1.74 1.91 2.21 2.73 3.29 1.85-.73 3.65-1.53 5.46-2.35l-.24-2.48c1.04-.49 2.08-.97 3.13-1.45l.21-3.04c-1.84.68-3.91 2.31-5.82.92-3-1.22-2.83-5-1.27-7.3-2.45 1.61-2.2 4.86-4.1 6.86m15.97-6.65c1.88 2.74 5.05 4 7.79 5.67.86-.16 2.58-.48 3.45-.63.13.58.4 1.75.53 2.33.05-.5.15-1.49.21-1.99 1.99.01 3.48-1.44 4.96-2.53-1.59 0-3.19-.01-4.78-.02l-.2-1.47c-.65.53-1.3 1.07-1.94 1.61-3.4-.8-6.68-2-10.02-2.97m-4.16 10.75c.68 1.26 1.43 2.5 2.19 3.73 1.62.03 3.25.1 4.88.16-1.07-.37-2.14-.73-3.2-1.1-1.11-1.16-2.17-2.54-3.87-2.79m-7.13 8.27c1.44 2.5 3.25 4.9 5.92 6.17.11-3.27-3.05-5.49-5.92-6.17m19.48 15.42c2.75-2.68 3.97-6.56 3.69-10.35-2.44 2.86-2.57 6.89-3.69 10.35m6.92 1.27c1.52-3.27 1.81-6.97 2.69-10.44-2.64 2.71-1.89 6.98-2.69 10.44m-34.13-1.93c-.68 1.03-1.39 2.04-2.17 3 3.69-1.5 5.38 4.25 9.3 3.19-1.55-.79-3.16-1.45-4.79-2.08l.04-2.29c-.79-.61-1.59-1.22-2.38-1.82m7.48 6.02c-1.94 1.94-4.24 3.45-6.25 5.3.22 3.09 2.96-1.22 4.57-1.09-.93 2.11-4.98 3.36-3.59 5.92 3.41-2.15 6.02-5.51 7.8-9.09l-2.53-1.04m9.98 16.11c4.03-1.65 8.52-.8 12.45-2.8-4.29-.44-8.96.03-12.45 2.8z"/><path d="M91.23 85.11c1.85-2.97 5.67-2.99 8.77-3.3 5.51-.47 8.66 4.76 12.16 8.07 4.46 5.47 1.81 12.78-.83 18.46-2.3 3.75-4.62 7.68-8.25 10.31-5.12.12-7.69-4.65-10.29-8.25-1.25-2.73-.14-5.85-.36-8.74-1.73 3.18-3.47 7.56-1.09 10.85 1.36 2.23 2.85 4.47 4.82 6.22 2.51 1.01 5.24 1.29 7.88 1.84 2.15-1.69 4.42-3.34 5.85-5.73 2.1-2.83 3.92-5.84 5.68-8.88-.11-.82-.34-2.44-.46-3.26 2.71 3.87 4.61 9.58 1.21 13.62-3.71 5.54-2.86 12.48-5.16 18.52-1.32 2.9-3.06 5.64-5.25 7.97-.75 1.09-1.64 2.08-2.81 2.74.23-.62.69-1.88.92-2.51-2.27.99-4.52.45-6.57-.75.45-3.66 2.75-7.53 1.51-11.14-1.18-1.92-.77-4.37-1.72-6.38-1.78-1.49-4.09-2.21-6.38-1.66-3.18-1.55-6.37-3.06-9.6-4.47l-.76-2.51c2.76-3.01 3.51-7.19 6.27-10.18-.76-.68-1.52-1.35-2.25-2.05 1.14-2.02 2.56-3.87 3.68-5.9-.26-4.44-.1-9.38 3.03-12.89M89 111.2c.45 2.56 1.14 5.07 1.86 7.57l.9.04c-.61-2.57-1.32-5.11-1.79-7.71l-.97.1m11.19 22.64c1.36.42 2.81-1.7 2.34-2.95-1.39-.56-2.76 1.73-2.34 2.95z"/><path d="M117.4 103.13c1.83.1 3.78.5 5.02 1.99.47 4.28 1.79 8.46 1.84 12.79-.13 8.94-6.34 16.19-7.53 24.91l-1.82-.25c2.48 3.19 6.27 5.57 6.84 9.89-1.34.07-2.68.13-4.03.18-.13.39-.39 1.16-.52 1.54 2.63 1.05 4.82 2.95 6.48 5.22 2.06 2.32-.84 6.04-3.69 5.37-4.18-1.07-5.48-5.83-6.02-9.58-.64.07-1.93.2-2.57.26l.36 3.93c.79.87 1.58 1.75 2.36 2.64-1.78-.61-3.95-.74-5.34-2.13-.62-4.98-3.48-9.6-2.82-14.71 2.53-5.01 7.34-8.77 8.94-14.32.33-2.92.18-5.87.6-8.78 1.66-3.25 4.37-6.19 4.56-10.02.33-3.23-1.78-5.97-2.66-8.93zM38.17 123.83c4.5-.88 9.8-2.34 12.32-6.5 1.99 2.73 4.7 4.74 7.47 6.62-2.04.7-4.01 1.58-5.89 2.64-3.17-.38-6.42-.33-9.44-1.49-1.49-.41-2.98-.83-4.46-1.27zM40.61 170.44c-1.52-1.84.1-5.22 2.43-5.02 2.61 1.1 4.52 3.31 6.87 4.84-.44 2.11-1.25 4.09-2.96 5.48-2.4-1.38-5.34-2.45-6.34-5.3zM39.96 219.1c.02-4.79 3.93-8.07 8.11-9.54.74 4.34.02 8.99 2.08 13.03 2.16 7.93 1.32 16.24 1.86 24.35 1.1 3.16 3.05 6.05 3.22 9.49h1.69c.2-3.69-2.35-6.57-3.15-9.99-.16-6.69-.73-13.4.05-20.07 3.13.51 6.16 1.52 9.27 2.09 4.5.18 8.98-.64 13.47-.79.2 9.57-1.19 19.18-4.15 28.29-2.92 1.08-2.21 5.09-4.88 6.45-1.87.98-4.1 1.45-6.2 1.28-3.94-2.23-7.7-4.94-11.02-8.03-1.14-3.55-2.51-7.05-3.42-10.66-.37-6.66-1.35-13.25-2.3-19.84-.45-1.72-1.27-3.32-1.9-4.96-.68-.28-2.05-.83-2.73-1.1z"/><path d="M25.13 223.88c1.44-2.23 2.89-5.07 5.85-5.42 3.72 1.04 7.97 1.95 10.54 5.08 2.87 4.19 2.28 9.35 2.39 14.14-1.38-1.17-2.96-2.07-4.82-2.12-2.8-.21-5.17-1.72-7.35-3.36.04.62.13 1.87.17 2.49-.49.06-1.47.18-1.96.23 1.47.55 2.92 1.14 4.36 1.76.35 1.64 1.42 2.74 1.86.54 2.63-.15 4.57 1.57 6.38 3.21.52.14 1.55.42 2.06.56.28 3.81 1.44 7.44 2.39 11.11-.87 2.69-4.27 4.08-6.77 2.72-3.59-.68-5.9-3.55-8.71-5.58-4.09-4.12-2.39-10.13-4.16-15.14a47.11 47.11 0 01-2.23-10.22zM93.43 226.97c1.1-.97 2.31-1.8 3.64-2.42-.27 1.22-.56 2.45-.86 3.67.89 3.64-.61 7.26-1.35 10.8-1.19 4.04-1.08 8.62-3.87 12.01-1.43 1.81-2.34 4.65-4.96 4.95-3.79 1.46-7.04-1.54-10.51-2.57.72-2.23 1.44-4.47 1.98-6.76.62-2.54-.42-5.17.3-7.7.85-3.69 1.26-7.46 1.71-11.21 4.64.52 9.34.13 13.92-.77z"/></g><g fill="#333"><path d="M91.32 83.17c3.59-3.11 8.81-3.53 13.29-2.54 4.42.88 6.69 5.21 9.07 8.58 1.34 3.99 3.43 8.09 2.56 12.41l1.8 1.52c2.59-.97 5.83-1.01 7.12 1.96.39 2.95.46 5.94 1.17 8.84 1.1 5.2-1.43 10.12-2.94 14.95-1.81 4.77-2.67 9.88-4.99 14.45 1.47 1.64 3.14 3.18 4.18 5.16 1.18 2.26.46 4.9.95 7.31 1.12 1.6 3.6 2.71 2.92 5.05-.1 3.12-2.78 5.26-5.62 5.88-3.03-1.06-6.13-1.69-9.34-1.83-1.79-.86-3.19-2.48-4.4-4.03-.65-2.04-.9-4.2-1.52-6.25-2.15 3.75-3.41 7.95-5.8 11.58-.76 4.29-.84 8.67-1.28 13 1.1 1.14 2.24 2.27 3.42 3.34.02 3.12-.78 6.19-2.86 8.57.9 6.6 1.14 13.27 2.06 19.86-.92 4.6-.04 9.58-2.17 13.88-2.57 5.18-.5 11.08-1.97 16.48-1.92 5.53-3.54 11.59-8.07 15.64-4.76 2.64-9.66.23-14.08-1.78-2.09 3.05-3.12 7.19-6.68 8.95-2.07 1.35-4.71 2.63-7.11 1.27-4.53-2.4-9.46-4.48-13.04-8.26-1.42.63-2.83 2.05-4.48 1.29-4.73-1.54-10.01-2.68-13.53-6.45-3.95-5.92-2.96-13.29-5.23-19.79-.99-3.92-2.73-8.63.43-12.02 2.83-4.38 8.61-3.67 12.59-1.43.74-1.99 1.46-4 2.08-6.04 1.05-1.09 1.95-2.35 3.19-3.25 1.78-.33 3.61-.27 5.41-.36.42-3.66.87-7.33.99-11.01-.24-3.85-1.12-7.88.26-11.61 1.66-2.73 4.05-5.15 4.33-8.51-.11-1.73 1.59-2.17 2.76-2.92-.24 1.39-.49 2.77-.71 4.17-2.16 2.94-2.02 6.6-3.05 9.94l-.92-3.32c-1.94 4.95-.26 10.31-1.58 15.38-.93 3.32.21 6.61.82 9.87-1.34 4.22-.06 8.64 1.93 12.43 3.94 2.86 9.11 2.54 13.73 2.87 3.15.37 6.61-.08 9.15-2.11 1.81-4.66 1.96-9.78 3.68-14.46.36-.1 1.09-.3 1.45-.39-.07-1.63-.23-3.26-.38-4.87 1.44-.67 2.98-1.06 4.52-1.42-.72 1.15-1.6 2.17-2.63 3.05.33.39.66.78 1 1.17.61-.46 1.83-1.39 2.43-1.85l1.92.04c-3.11 3.8-9.07 6.8-7.43 12.68-.44 1.64-.9 3.28-1.34 4.92.27.68.82 2.03 1.1 2.71 2.38.12 4.83.62 7.13-.26 3.55-1.29 8.19-1.16 10.47-4.63 1.01-6.28.65-12.69.01-18.99.21-3.63-.35-7.22-.63-10.82.51-2.27 1.95-4.18 2.96-6.24-.7-1.1-1.39-2.2-2.06-3.32-1.83-1.07-4.06-3.31-6.14-1.43l-1.2 2.04c-3.96-.1-7.92.24-11.87.03.63-.68 1.27-1.35 1.91-2.01 5.17.69 10.22-.52 15.17-1.87.87-6.39 1.27-13.33 4.83-18.87-2.6 1.87-2.99-1.86-4.22-2.96-3.33 2.26-3.8 6.8-6.67 9.57 1.17-3.42 2.89-6.73 2.76-10.44-2.73 1.95-5.43 4.15-8.82 4.8-2.87.64-4.46 3.54-7.26 4.32-.06.96-.12 1.93-.16 2.89l-1.36-.63c.92 4.21.96 8.52-.44 12.63l5.03.32c-1.67 1.55-3.5 3.22-5.93 2.08-1.97-.7-3.96-1.34-5.96-1.94-3.35-1.14-5.78-3.69-8.13-6.22-.86.36-1.72.71-2.58 1.07.36-.97 1.06-2.91 1.42-3.87-1.07-6.02.41-12.07.16-18.11-.14-3.05-1.64-5.86-1.73-8.93-.04-2.35.43-4.69.32-7.05-.02-2.76-1.1-5.51-.3-8.26 1.32 3.1.81 6.62 2.18 9.72 1.3 2.84-.93 5.65-.41 8.54.14 1.93 1.33 3.53 2.37 5.08.77 6.18-1.45 12.35-.12 18.47-.07.65-.13 1.31-.2 1.96 3.28 3.15 7.18 5.59 11.74 6.3 1.03-3.56 1.47-7.29.5-10.92 1.02-.66 1.95-1.42 2.79-2.3-.53-.4-1.58-1.22-2.1-1.62l2.72-.72c-.9-1.1-1.75-2.24-2.52-3.43 1.65 1.27 3.48 2.32 5.51 2.86 1.26-1.45 2.4-3.04 3.91-4.26 2.04-.65 4.22-.63 6.28-1.18 1.66-1.42 3.05-3.12 4.51-4.73.28-1.13.61-2.23 1-3.32 1.56.67.84 2.58 1.1 3.89 1.7 1.87 3.26 3.86 4.5 6.07 1.16-3.22 3.18-6.26 3-9.82l-1.8.08 1.93-.5c-.76-.42-2.29-1.25-3.06-1.66.08-.54.22-1.61.3-2.15-1.4-.27-2.75-.68-4.05-1.22-.88-.12-1.74-.23-2.61-.38 2.25-5.03 3.26-10.99 2.5-16.52-3.07-2.96-7.51-3.14-11.43-4.05-.84.1-1.67.26-2.52.27-1.95-2.93-3.36-6.3-6.08-8.63.65.3 1.94.91 2.59 1.21.96-4.13 3.15-7.79 5.13-11.48-2.69 2.02-5.17-.77-7.85-.54-1.64.59-3.21 1.36-4.76 2.15-2.06-1.44-4.46-3.11-7.1-2.19-5.63 1.36-11.44.39-17.11.09-.36.23-1.07.7-1.43.93 1.9.68 3.86 1.55 5.02 3.3-2.79-.93-5.52-2.14-8.48-2.4-.7 1.2-1.4 2.41-2.09 3.62-.5.13-1.51.38-2.01.5.83-1.56 1-3.99 3.04-4.44.99.06 2.97.17 3.96.23.11-1.01.22-2.02.34-3.03-6.5.86-12.97 1.96-19.48 2.75-3.17.37-6.12 1.74-8.69 3.59.02 5.05.79 10.06 1.42 15.06.52 5.28 2.36 10.53 5.89 14.55 3.29 4.92 5.42 10.81 5.32 16.79a37.73 37.73 0 01-4.87 3.33c-.38 3.07 2.06 5.46 2.92 8.27 3 1.99 5.95 4.67 9.72 4.9-.4-.77-1.2-2.31-1.6-3.09.17-.48.5-1.44.67-1.92 2.18-.95 4.11-2.32 5.99-3.74 1.35.48 2.65 1.32 4.07 1.51.14-4.21-3.27-7.2-6.08-9.84a63.29 63.29 0 01-4.92-1.68l2.28-.44c-.1-2.2-.19-4.42-.71-6.57-1.44-4.21 1.19-8.48-.07-12.76.78.02 1.74-.13 2.12.75.15 3.06-.38 6.1-.58 9.14.23 3.03 1.38 5.89 2.02 8.85 2.41 2.32 5.05 4.39 7.55 6.59.65 2.72.84 5.67.16 8.41 2.02 2.74 2.77 6.94-.35 9.23-2.23 2.61-5.08-.14-7.55-.85-1.89-1.03-3.27 1.07-4.51 2.15.23-.38.68-1.14.9-1.52-3.85-2.49-7.26-5.59-10.92-8.34-2.64-1.95-2.2-5.95-4.93-7.87-3.61-4.3-8.51-7.27-12.13-11.52 1.29.04 2.56.22 3.84.37 2.7 3.8 6.71 6.29 10.12 9.36 1.54-1.48 3.36-2.57 5.22-3.59-.55-.71-1.09-1.42-1.64-2.12-.23-7.41-4.23-13.91-7.71-20.21-3.21-7.6-3.37-16.11-1.93-24.13 1.63-3.24 5.68-4.09 8.98-4.57 5.41-.51 10.6-2.93 16.12-2.23 4.02.66 8.14.26 12.12 1.27 5.35 1.07 11.19-2.08 16.12.91 3.85-1.17 7.91-.51 11.85-.28 1.33-2.18 3.15-4.35 2.91-7.08-.26-4.82 2.46-9.14 5.3-12.81m-.09 1.94C88.1 88.62 87.94 93.56 88.2 98c-1.12 2.03-2.54 3.88-3.68 5.9.73.7 1.49 1.37 2.25 2.05-2.76 2.99-3.51 7.17-6.27 10.18l.76 2.51c3.23 1.41 6.42 2.92 9.6 4.47 2.29-.55 4.6.17 6.38 1.66.95 2.01.54 4.46 1.72 6.38 1.24 3.61-1.06 7.48-1.51 11.14 2.05 1.2 4.3 1.74 6.57.75-.23.63-.69 1.89-.92 2.51 1.17-.66 2.06-1.65 2.81-2.74 2.19-2.33 3.93-5.07 5.25-7.97 2.3-6.04 1.45-12.98 5.16-18.52 3.4-4.04 1.5-9.75-1.21-13.62.12.82.35 2.44.46 3.26-1.76 3.04-3.58 6.05-5.68 8.88-1.43 2.39-3.7 4.04-5.85 5.73-2.64-.55-5.37-.83-7.88-1.84-1.97-1.75-3.46-3.99-4.82-6.22-2.38-3.29-.64-7.67 1.09-10.85.22 2.89-.89 6.01.36 8.74 2.6 3.6 5.17 8.37 10.29 8.25 3.63-2.63 5.95-6.56 8.25-10.31 2.64-5.68 5.29-12.99.83-18.46-3.5-3.31-6.65-8.54-12.16-8.07-3.1.31-6.92.33-8.77 3.3m26.17 18.02c.88 2.96 2.99 5.7 2.66 8.93-.19 3.83-2.9 6.77-4.56 10.02-.42 2.91-.27 5.86-.6 8.78-1.6 5.55-6.41 9.31-8.94 14.32-.66 5.11 2.2 9.73 2.82 14.71 1.39 1.39 3.56 1.52 5.34 2.13a201.1 201.1 0 00-2.36-2.64l-.36-3.93c.64-.06 1.93-.19 2.57-.26.54 3.75 1.84 8.51 6.02 9.58 2.85.67 5.75-3.05 3.69-5.37-1.66-2.27-3.85-4.17-6.48-5.22.13-.38.39-1.15.52-1.54 1.35-.05 2.69-.11 4.03-.18-.57-4.32-4.36-6.7-6.84-9.89l1.82.25c1.19-8.72 7.4-15.97 7.53-24.91-.05-4.33-1.37-8.51-1.84-12.79-1.24-1.49-3.19-1.89-5.02-1.99m-76.79 67.31c1 2.85 3.94 3.92 6.34 5.3 1.71-1.39 2.52-3.37 2.96-5.48-2.35-1.53-4.26-3.74-6.87-4.84-2.33-.2-3.95 3.18-2.43 5.02m-.65 48.66c.68.27 2.05.82 2.73 1.1.63 1.64 1.45 3.24 1.9 4.96.95 6.59 1.93 13.18 2.3 19.84.91 3.61 2.28 7.11 3.42 10.66 3.32 3.09 7.08 5.8 11.02 8.03 2.1.17 4.33-.3 6.2-1.28 2.67-1.36 1.96-5.37 4.88-6.45 2.96-9.11 4.35-18.72 4.15-28.29-4.49.15-8.97.97-13.47.79-3.11-.57-6.14-1.58-9.27-2.09-.78 6.67-.21 13.38-.05 20.07.8 3.42 3.35 6.3 3.15 9.99h-1.69c-.17-3.44-2.12-6.33-3.22-9.49-.54-8.11.3-16.42-1.86-24.35-2.06-4.04-1.34-8.69-2.08-13.03-4.18 1.47-8.09 4.75-8.11 9.54m-14.83 4.78c.37 3.48 1.1 6.9 2.23 10.22 1.77 5.01.07 11.02 4.16 15.14 2.81 2.03 5.12 4.9 8.71 5.58 2.5 1.36 5.9-.03 6.77-2.72-.95-3.67-2.11-7.3-2.39-11.11-.51-.14-1.54-.42-2.06-.56-1.81-1.64-3.75-3.36-6.38-3.21-.44 2.2-1.51 1.1-1.86-.54-1.44-.62-2.89-1.21-4.36-1.76.49-.05 1.47-.17 1.96-.23-.04-.62-.13-1.87-.17-2.49 2.18 1.64 4.55 3.15 7.35 3.36 1.86.05 3.44.95 4.82 2.12-.11-4.79.48-9.95-2.39-14.14-2.57-3.13-6.82-4.04-10.54-5.08-2.96.35-4.41 3.19-5.85 5.42m68.3 3.09c-4.58.9-9.28 1.29-13.92.77-.45 3.75-.86 7.52-1.71 11.21-.72 2.53.32 5.16-.3 7.7-.54 2.29-1.26 4.53-1.98 6.76 3.47 1.03 6.72 4.03 10.51 2.57 2.62-.3 3.53-3.14 4.96-4.95 2.79-3.39 2.68-7.97 3.87-12.01.74-3.54 2.24-7.16 1.35-10.8.3-1.22.59-2.45.86-3.67-1.33.62-2.54 1.45-3.64 2.42z"/><path d="M52.95 107.77l1.64-.28c.26.39.78 1.16 1.04 1.55-.9.93-1.79 1.88-2.76 2.75-2.2 2.22-5.63 1.1-8.28 2.37-6.3-.31-12.62-.59-18.69-2.5 3.42-.05 6.73 1.02 10.15.91 3.61.3 7.34-.93 10.82.47 2.81-.71 5.6-2.09 6.08-5.27zM70.96 108.51c1.01 2.44 1.84 4.98 3.56 7.05l-1.28-.48v1.91c-1.6-.42-3.24-.75-4.72-1.49-.15-1.52 1.88-1.3 2.73-1.86-.53-1.67-.75-3.42-.29-5.13zM89 111.2l.97-.1c.47 2.6 1.18 5.14 1.79 7.71l-.9-.04c-.72-2.5-1.41-5.01-1.86-7.57zM50.13 116.64c1.01-.64 2.09-1.17 3.21-1.59l.32 2.84c3.64 2.75 7.78 4.61 11.81 6.69 4.31-.13 8.71.31 12.91-.89-1.45 3.04-5.25 1.94-7.91 2.78 2.56 5.13 4.83 10.84 4.95 16.64 1.53 2.2 3.1 4.38 4.36 6.74-1.73 0-3.34-.8-4-2.48-2.05-6.17-4.11-12.33-5.98-18.56.02-1.06.14-2.1.36-3.13-2.22.83-4.57.78-6.89.76-.3-.54-.91-1.61-1.21-2.15-2.42.98-4.5 2.75-7.04 3.41-4.9.33-9.83.16-14.69-.63-.39 2.17-.92 4.35-2.34 6.11a54.38 54.38 0 01-.66-6.85c-.94-.78-1.88-1.57-2.82-2.35-.03 1.68-.08 3.37-.14 5.05-1.15-2.48-2.02-5.1-2.24-7.85 5.72.56 11.97.8 17.06-2.31.23-.55.7-1.67.94-2.23m-11.96 7.19c1.48.44 2.97.86 4.46 1.27 3.02 1.16 6.27 1.11 9.44 1.49 1.88-1.06 3.85-1.94 5.89-2.64-2.77-1.88-5.48-3.89-7.47-6.62-2.52 4.16-7.82 5.62-12.32 6.5zM100.19 133.84c-.42-1.22.95-3.51 2.34-2.95.47 1.25-.98 3.37-2.34 2.95z"/><path d="M78.64 132.77c3.6 2.78 6.59 6.25 10.06 9.19-.56.53-1.12 1.07-1.68 1.61-2.73-3.65-6.3-6.68-8.38-10.8zM63.65 141.62c.95-2.4 2.25-4.65 3.99-6.57-.86 2.42-.74 6.07-3.99 6.57zM16.39 141.31c3.91 2.35 7.21 5.62 9.6 9.51-.44-.14-1.32-.42-1.77-.56-2.45-2.78-5.5-4.92-8.16-7.48.08-.37.24-1.1.33-1.47zM62.28 148.61c1.9-2 1.65-5.25 4.1-6.86-1.56 2.3-1.73 6.08 1.27 7.3 1.91 1.39 3.98-.24 5.82-.92l-.21 3.04c-1.05.48-2.09.96-3.13 1.45l.24 2.48c-1.81.82-3.61 1.62-5.46 2.35-.82-1.08-3.29-1.55-2.73-3.29 1.58-.15 3.11.48 4.68.52 2.73-2.65-1.62-7.15-4.58-6.07z"/><path d="M78.25 141.96c3.34.97 6.62 2.17 10.02 2.97.64-.54 1.29-1.08 1.94-1.61l.2 1.47c1.59.01 3.19.02 4.78.02-1.48 1.09-2.97 2.54-4.96 2.53-.06.5-.16 1.49-.21 1.99-.13-.58-.4-1.75-.53-2.33-.87.15-2.59.47-3.45.63-2.74-1.67-5.91-2.93-7.79-5.67zM74.09 152.71c1.7.25 2.76 1.63 3.87 2.79 1.06.37 2.13.73 3.2 1.1-1.63-.06-3.26-.13-4.88-.16-.76-1.23-1.51-2.47-2.19-3.73zM66.96 160.98c2.87.68 6.03 2.9 5.92 6.17-2.67-1.27-4.48-3.67-5.92-6.17zM86.44 176.4c1.12-3.46 1.25-7.49 3.69-10.35.28 3.79-.94 7.67-3.69 10.35zM93.36 177.67c.8-3.46.05-7.73 2.69-10.44-.88 3.47-1.17 7.17-2.69 10.44zM59.23 175.74c.79.6 1.59 1.21 2.38 1.82l-.04 2.29c1.63.63 3.24 1.29 4.79 2.08-3.92 1.06-5.61-4.69-9.3-3.19.78-.96 1.49-1.97 2.17-3zM66.71 181.76l2.53 1.04c-1.78 3.58-4.39 6.94-7.8 9.09-1.39-2.56 2.66-3.81 3.59-5.92-1.61-.13-4.35 4.18-4.57 1.09 2.01-1.85 4.31-3.36 6.25-5.3zM76.69 197.87c3.49-2.77 8.16-3.24 12.45-2.8-3.93 2-8.42 1.15-12.45 2.8z"/></g></svg>