<svg width="263pt" height="275pt" viewBox="0 0 263 275" xmlns="http://www.w3.org/2000/svg"><g fill="#FFF"><path d="M0 0h263v275H0V0m126.73 1.76c-9.68 2.43-17.41 11.43-17.96 21.47 2.55-1.7 3.03-4.86 4.38-7.38 3.15-6.52 9.49-11.94 16.91-12.43 4.52 1.03 3.64 6.41 2.78 9.76.58.16 1.72.48 2.29.63.89-2.43 1.75-5.19.63-7.71-1.01-3.74-5.55-5.39-9.03-4.34M80.37 26.11c-1.36 3.93-.88 9.4 3.22 11.49 3.43 1.68 6.91-.77 10.29-1.4l1 2.44 1.32-.03c.2-4.77-.76-9.57.49-14.27 2.15-.91 4.26-1.97 6.51-2.63 1.23.61 2.14 1.99 3.58 2.08 1.66-1.56-.59-3.49-1.77-4.49-3.02.64-5.83 1.94-8.78 2.82-.98.83-1.96 1.66-2.93 2.5.27 2.8.41 5.61.51 8.42-2.59 1.55-5.54 3.55-8.7 2.56-2.67-.85-2.64-4.33-2.71-6.64 2.33-9.54 10.28-18.69 20.55-19.43 3.16.11 3.69 3.53 4.3 5.92-1.17 2.39-2.15 4.89 1.05 6.31.59-2.84 2.06-5.78 1.16-8.71-.83-4.04-5.47-6.64-9.37-5.58-9.27 2.12-16.74 9.75-19.72 18.64m45.19.83c.14 1.13.44 3.4.59 4.53 3.05-7.82 9.6-15.99 18.78-15.65 1.67 1.38 2.46 3.45 3.48 5.29-1.39 3.97-2.87 7.94-4.86 11.65-2.84 4.38-7.44 7.71-12.6 8.7-3.83-.23-5.36-4.2-6.08-7.38-.11 1.83-.88 3.69-.49 5.52 1.02 2.65 4.13 3.23 6.42 4.33 10.3-2.17 18.7-11.39 19.72-21.87.2-3.79-2.46-6.53-5.34-8.54-8.63-.23-15.62 6.36-19.62 13.42M122.02 17c-.35.67-1.04 1.99-1.39 2.65.49.86 1 1.71 1.54 2.55.94-1.42 1.71-2.95 2.73-4.32 2.73-1.02 5.82-1.1 8.25-2.88-3.68-1.86-7.85.13-11.13 2M96.59 39.69c-1.12 2.67 0 5.81-1.57 8.31-.13-1.51-.4-4.54-.54-6.05-.93 8.48-4.54 16.49-4.85 25.06-.21 4.29 2.23 8.46.83 12.72-1.01 3.3-1.07 6.74-.84 10.16-3.34 1.78-6.75 3.44-10.29 4.78-5.91 2.67-8.26 12.49-2.31 16.3 4.63 3.65 8.31 8.4 13.3 11.61 6.33 4.32 12.43 8.93 18.47 13.64-2.15 1.18-4.28 2.43-6.05 4.14 3.12.29 5.71-1.59 8.37-2.86 3.95 3.11 7.82 6.31 11.51 9.72-13.49 6.18-26.26 13.92-39.6 20.41-2.19-.56-3.9-2.41-5.54-3.9-.4-2.22-.27-4.49-.31-6.73 5.43-3.14 11.22-5.77 16.34-9.4.51-7.46.23-14.97.22-22.44l-1.98.03c-.08 7.09.19 14.2-.31 21.27-4.98 3.51-10.69 5.84-15.7 9.28-2.12 2.6 0 6.33-.11 9.37 2.35 1.77 4.73 3.5 7.14 5.2 13.55-7.33 27.28-14.34 40.75-21.82 5.06 3.93 10.15 7.83 15.01 12 .56 4.98 1.59 10.97 6.54 13.49-2.34-6.05-5.6-12.56-3.8-19.16-.82-4.75-6.7-9.03-3.48-13.93 3.37-7.72 10.71-12.89 18.33-15.92 4.41-1.73 9.32-1.2 13.72.26.71 1.78 1.01 3.69 1.67 5.49 8.7 1.4 17.52 3.06 25.3 7.46-5.18 5.17-6.54 12.57-7.18 19.56-5 .13-10.49.46-14.38-3.3 2.86-4.22 8.14-5.19 11.62-8.63-5.38-.2-9.84 3.39-13.14 7.25 0 .52-.01 1.56-.02 2.08-1.23.46-2.46.92-3.69 1.39l-.77-1.61c.61-.32 1.84-.96 2.45-1.28-.44-.42-.88-.82-1.33-1.22 2.17-3.31.73-7.26 1.01-10.92-.46.04-1.38.11-1.84.14-.39 3.56.85 7.41-1.41 10.54-2.01 3.29-2.33 7.48-.22 10.81-4.18-3.69-10.21-1.22-13.89 1.99-4.16 3.93-7.37 9.09-8.51 14.74.85-.5 1.7-.99 2.55-1.49 3.17 4.27 6.77 8.24 9.04 13.11-2.39 3.66-5.28 7.03-6.92 11.14-4.42 7.45-2.13 16.45-3.66 24.59-.5 5.61-4.19 10.32-4.9 15.84.06 4.32 4.85 5.69 7.84 7.66 4.31 3.44 7.57 8.29 12.8 10.49 5.51 1.89 11.58-.13 15.69-4.08.4-1.23.8-2.46 1.22-3.68-3.32 3.56-8.12 6.21-13.12 5.05-3.5-.22-8.85-1.9-8.77-6.09 1.24-3.28-.07-6.81-.62-10.11-.85-2.68-.65-6.2-3.44-7.73.69 5.55 1.62 11.13 3.57 16.4-3.56.03-6.59-2.58-9.69-4.13-1.63-1.05-4.36-2.33-3.19-4.73 2.16-7.23 5.31-14.3 5.77-21.94.28-4.04-.26-8.25 1.28-12.1 2.12-5.44 4.46-11.18 9.23-14.85-1.64-3.64-3.16-7.43-5.84-10.47-2.05-2.58-4.6-5.17-5.18-8.51 2.39-5.09 7.16-9.43 12.94-9.93 3.52.53 5.89 3.5 7.42 6.47 1.05 3.2.3 6.76 1.68 9.9 1.24 3.57 4.19 7.15 2.59 11.11-2.37 4.02-5.31 7.8-6.41 12.44-1.88 7.73-6.64 14.35-8.57 22.05 1.36 6.12 3.23 12.24 6.41 17.68 2.95 4.66 7.9 7.34 12.96 9.13-1.95-4.22-7.55-4.45-9.75-8.48-1.88-3.76-3.12-7.86-5.53-11.35-2.16-4.62-.12-9.56 1.21-14.11.7-3.11 3.96-4.47 6.18-6.38l.12-5.14c-1.18 2.44-2.37 4.9-4.08 7.02.77-2.77 1.7-5.47 2.55-8.21.58.44 1.74 1.33 2.33 1.78-.26-1.23-.53-2.46-.8-3.68.91-2.28 1.64-4.64 2.51-6.94 2.69 1.08 2.57-1.2 2.53-3.16l1.18-1.18c.18-2.24.39-4.48.54-6.72.66.01 1.96.02 2.62.03-.3 9.24-2.4 18.57-.37 27.77.52-.23 1.55-.7 2.07-.93-.38-2.4-.79-4.79-1.11-7.2 4.6-2.26 8.91-5.13 13.69-7.02 2.06 1.06 3.99 2.45 5.55 4.17.63 2.34.57 4.8.76 7.2-11.94 7.12-24.29 13.55-36.41 20.37.05.27.14.8.19 1.07 1.53 1.13 3-.76 4.43-1.26 11.14-6.62 22.81-12.34 33.84-19.15-.17-3.52-.53-7.04-1.19-10.51-2.19-1.52-4.35-3.08-6.44-4.72-4.85 2.33-9.49 5.06-14.27 7.53 1.34-5.89.13-11.84.03-17.77 7.06-2.03 13.04-6.23 19.06-10.26 3.54-2.74 3.12-7.73 2.82-11.7 2.25.3 4.52.52 6.79.61-2.88 3.5-7.55 6.39-7.55 11.42-.68 6.82-4.37 13.17-9.93 17.18 2.01-.26 4.39.04 5.88-1.64 2.45-2.48 3.23-6.03 4.87-9.02 1.84-2.9.31-6.87 2.67-9.52 2.28-2.64 4.72-5.13 6.85-7.9 1.87.78 3.75 1.52 5.67 2.19.36-.49 1.08-1.49 1.45-1.99-2.72-.36-5.13-1.66-7.37-3.16-6.19 1.32-12.25-.97-18.12-2.64.04-1.44-.48-2.6-1.55-3.47.28-3.9.64-7.97 2.51-11.47 1.33-2.5 3.8-4.04 6.19-5.38 4.65 2.38 9.53 4.32 14.13 6.79 3.57 2.38 6.26 5.8 9.54 8.52 2.16 1.68 2.85 4.79 1.88 7.29a88.302 88.302 0 01-8.69 12.79c-2.71 5.38-7.18 9.46-10.46 14.45 2.71 1.61 4.72 4.02 6.15 6.79 1.85 3.5 5.29 5.56 8.61 7.46-.41 1.72-.63 3.51-1.27 5.17-1.49.53-3.05.85-4.57 1.26-3.05-1.99-6.22-3.82-9.63-5.12 2.31 4.16 7.34 5.77 11.39 7.81 1.88-.85 3.92-1.49 5.54-2.82.71-1.99 1.15-4.1 1.26-6.21-1.52-3.27-5.73-3.6-7.82-6.35-2.35-2.86-3.93-6.78-7.89-7.78 5.87-5.03 9.23-12.07 14.26-17.81 1.84-4.23 6.23-7.46 6.05-12.42-.38-5.08-5.44-7.46-8.51-10.85-4.34-4.78-10.68-6.57-16.2-9.52l-1.44-2c-2 .05-3.95.53-5.83 1.18-.49-1.89-1.6-3.76-3.63-4.26-6.8-2.15-13.92-3.08-20.93-4.25.21-2.76-1.27-4.97-3.6-6.29-.53.22-1.58.67-2.1.89-1.3-.28-2.59-.54-3.88-.78-1.44-3.67-3.6-7.02-6.65-9.56-3.58-3.1-4.25-8.03-6.31-12.05-2.6-2.17-5.3-4.28-7.51-6.89-.44-2.59-1.44-5.02-4.18-5.86.74 1.89 1.59 3.75 2.37 5.63-2.68-2.96-4.6-6.77-8.47-8.4-1.23-7.28-2.55-16.66 3.57-22.17 3.25 5.99.2 12.81 1.97 19.13 1.64-4.52 1.43-9.37 1.6-14.1-.37-3.56-2.25-6.78-4.08-9.79-.92 1.81-1.8 3.64-2.71 5.45-.78-3.41-2.48-6.81-1.92-10.39.49-3.59 1.2-7.15 1.62-10.75-1.12 1.02-3.43 1.53-2.97 3.51-.12 6.69-2.16 13.91 1.85 19.95a23.352 23.352 0 00-1.76 15.79c-3.93 2.83-6.43 7.41-11.07 9.24 1.2-3.95 3.78-7.53 4.04-11.73-1.65-5.93-7.27-10.13-13.28-10.95-.11.2-.34.6-.45.8.48 1.89 2.99 1.73 4.37 2.7 3.35.92 5.1 4.18 6.38 7.14.02 3.27-1.6 6.21-2.59 9.24l1.63 1.38c-2.57.51-5.91 1.06-8.01-.7-1.53-4.17-.83-8.82-2.58-12.95-1.08-2.44-.81-5.14-.57-7.72 1.23-4.98 1.2-10.28-.05-15.26-.31.09-.93.26-1.24.35-.75 1.53-.04 3.22-.06 4.83.29 5.6-2.33 11.27-1.05 16.77 3.03 4.57 2.15 10.16 3.24 15.27.77 3.31-1.3 6.36-2.37 9.36-1.09 2.63-.54 5.48-.1 8.19 3.67-.54 7.29-1.44 11.01-1.59-.3 2.43-.53 4.86-.49 7.31 2.35-2.01 1.68-5.56 3.45-8.01-4.04-1.85-7.44-4.88-11.72-6.25 1.29-2.27.93-6.13 3.5-7.22 5.09-.17 11.34-.51 14.58 4.26-2.32 1.98-6.02 3.28-6.7 6.57 5.13-2.72 9.37-7.32 15.41-8.1.66-.68 1.31-1.35 1.98-2.02 2.22 2.52 5.48 3.69 8.1 5.72-2.21 1.19-4.68.46-7.01.14.62.81 1.24 1.62 1.87 2.42.81.05 2.42.14 3.22.18l.89-.11 1.97-1.09 1.08.07 1 .08 1.56.48c.35 3.1.31 6.38 2.06 9.12 1.03 2.43 3.31 3.88 4.99 5.81 1.64 2.15 2.9 4.56 4.22 6.92-2.74-.06-5.81-.49-7.9 1.7-4.86 1.57-9 4.81-12.52 8.44-3.08 3.11-4.28 7.44-6.53 11.1 1.48 2.55 3.05 5.11 3.36 8.11.89 1.33 1.73 2.74 1.67 4.42-3.44-.72-4.81-4.63-7.91-6.05-3.64-1.85-5.9-5.37-9.09-7.77-5.44-2.93-8.99-8.25-14.52-11.06-6.47-5.48-14.11-9.37-20.55-14.9-3.42-3.28-6.75-6.68-10.52-9.58-.31-2.6-1.27-5.59.48-7.89 2.66-4.68 8.51-5.03 12.84-7.38 2.99 5.29-.96 11.19.98 16.67.4 3.08 2.9 5.29 5.74 6.22-.02.56-.05 1.68-.07 2.25 1.89 2.8 3.61 5.85 6.46 7.82 5.52 3.89 12.69 3.73 18.43 7.17 3.82 4.03 7.5 8.18 11.11 12.4.54-6.6-5.8-10.29-9.88-14.35-2.99-2.85-7.25-2.69-10.97-3.77-7.58-1.86-11.88-9.02-16.58-14.64-3.14-3.44-3.04-8.36-2.82-12.71 1.19 1.79 2.42 3.69 4.71 4.11-1.25-2.43-3.2-4.59-3.49-7.41-.77-4.06-2.62-8.03-2.07-12.25.96-3.31 2.68-6.41 3.18-9.84-.47-2.14-1.83-3.99-2.16-6.15.27-6.78.59-13.89 4.59-19.67.96 4.49 6.16 6 10.09 4.65 9.98-2.79 16.3-12.37 18.82-21.94-.47-2.04-.73-4.16-1.62-6.07-1.13-1.89-3.22-2.85-4.81-4.28-10.82 0-19.59 9.22-22.66 19.03m45.84 1.87c3.77 7.05 1.79 15.17.1 22.48 1.08 4.64 2.51 9.22 3.16 13.95.61 5.72-4.25 11.08-1.6 16.69 1.85-5.45 2.85-11.14 4.08-16.76-1.14-5.07-2.35-10.15-3.04-15.31l.3.3c1.74-8.41 1.35-17.22-1.53-25.33-1.74.81-2.69 2.24-1.47 3.98M99.79 80.24c3.09 4.28 1.44 9.61 2.19 14.46 2.47-4.12 2.91-9.55.55-13.81-.64-3.57 1.35-7.22.54-10.88-2.1 3.02-2.3 6.79-3.28 10.23m.77 29.98c2.36-4.83 2.28-10.53 1.66-15.76-1.67 5.05-2.37 10.47-1.66 15.76m32.71-9.77c1.3 2.96 4.73 3.76 7.01 5.77.14 5.04 3.37 8.8 6.44 12.43.35.09 1.06.27 1.41.37-.07-2.19-1.23-4.14-2.66-5.72-2.59-2.73-1.82-7.43-5.1-9.7-2.24-1.31-4.68-2.23-7.1-3.15m-7.36 12.59c1.08 1.31 2.8 1.68 4.31 2.25-.6-.99-1.22-1.97-1.85-2.93.38-3.27 1.98-6.31 2.01-9.62-2.11 3.09-4.34 6.44-4.47 10.3m-14.07 3.15c2.5 2.31 4.02 5.41 6.08 8.08.08-2.44-.16-4.87-.65-7.25-3.99-2.06-7.28-5.35-11.63-6.72 1.86 2.17 4.12 3.94 6.2 5.89m17.56-.87c.95 1.65 2.18 3.17 3.77 4.25.76-.44 1.51-.91 2.24-1.41-1.97-1.02-3.96-2-6.01-2.84m-2.98 5.99c2.01 1.05 4.18 2.68 6.52 1.51 1.28 1.08 2.56 2.16 3.83 3.26 0 .45.01 1.36.01 1.82 1.65.31 3.3.65 4.95.97-1.6-3.05-4.09-5.58-6.78-7.68-2.84 0-5.69.03-8.53.12m22.23 11.77c5.3-1.71 10.05-4.89 15.63-5.8-5.82-1.16-11.25 2.36-15.63 5.8m6.21 3.36c3.88-2.61 8.21-4.38 12.31-6.59-5.11-.5-9.18 3.03-12.31 6.59m-2.47 7.86c3.19-1.73 6.11-3.96 9.51-5.31 2.33-.93 4.7-1.87 6.6-3.58l-.12-1.87c-5.46 3.31-13.14 4.26-15.99 10.76m-7.46-2.3c-.8 2.12-1.53 4.28-1.86 6.53 1.36-1.34 2.48-2.9 3.56-4.47-.43-.52-1.28-1.54-1.7-2.06m16.67 5.03c-.24 1.89-.51 3.77-.73 5.67 1.97-.48 2.54-1.64 1.7-3.48 1.51-.97 3.72-1.62 3.94-3.7-1.69.34-3.29.95-4.91 1.51m40.28 5.97c1.25 2.06 2.24 4.97 5.1 5.04-.99-2.3-2.81-4.06-5.1-5.04m9.21 1.45c1.91 2.45 3.71 5.16 6.42 6.82 2.14.99 4.56.31 6.81.17l.18-2.72c-1.83.2-3.66.47-5.5.43-2.85-1.28-4.86-3.8-7.17-5.82-.18.28-.56.84-.74 1.12m-4.29 25.67l-.32 1.27c.45-.01 1.35-.02 1.8-.02 1.77-1.82 3.55-3.72 4.64-6.05-2.81.1-4 3.34-6.12 4.8m-41.51 9.6c2.97-.68 3.56-3.76 3.04-6.34-1.23 2-2.25 4.13-3.04 6.34z"/><path d="M100.87 35.9c3.32-7.12 10.26-12.62 18.25-13.13 1.61 1.82 2.86 3.91 3.95 6.08-2.38 6.24-4.17 13.29-9.56 17.7-2.59 2.7-6.27 3.76-9.69 4.98-2.38-1.02-5.13-2.44-5.59-5.27-.89-3.71 1.15-7.12 2.64-10.36zM123.16 91.84c2.24-2.48 4.48-4.98 7.05-7.14.13.77.4 2.32.54 3.09l1.47-.64c1.26 1.62 2.62 3.16 3.85 4.81-2.53 1.7-5.29 3.01-8.01 4.38-1.37-1.77-3.03-3.27-4.9-4.5zM107.2 102.03c1.94 1.05 3.91 2.04 5.9 3.01-1.89.52-3.77 1.06-5.65 1.59-.09-1.53-.18-3.07-.25-4.6zM169.55 160.18c1.6-1.24 3.51-2.08 5.46-2.61 4.12 1.72 8.54 2.43 13.01 2.24 2.47.49 6.6 2.93 4.55-3.75-2.02 5.16 3.39 6.45 6.76 7.56 2.08 3.27 1.85 7.94-.83 10.82-6.4 5.65-14.98 7.32-22.94 9.61-2.02-5.74-2.47-12.19-6.31-17.15.28-2.23.21-4.48.3-6.72z"/></g><g fill="#333"><path d="M126.73 1.76c3.48-1.05 8.02.6 9.03 4.34 1.12 2.52.26 5.28-.63 7.71-.57-.15-1.71-.47-2.29-.63.86-3.35 1.74-8.73-2.78-9.76-7.42.49-13.76 5.91-16.91 12.43-1.35 2.52-1.83 5.68-4.38 7.38.55-10.04 8.28-19.04 17.96-21.47z"/><path d="M80.37 26.11c2.98-8.89 10.45-16.52 19.72-18.64 3.9-1.06 8.54 1.54 9.37 5.58.9 2.93-.57 5.87-1.16 8.71-3.2-1.42-2.22-3.92-1.05-6.31-.61-2.39-1.14-5.81-4.3-5.92-10.27.74-18.22 9.89-20.55 19.43.07 2.31.04 5.79 2.71 6.64 3.16.99 6.11-1.01 8.7-2.56-.1-2.81-.24-5.62-.51-8.42.97-.84 1.95-1.67 2.93-2.5 2.95-.88 5.76-2.18 8.78-2.82 1.18 1 3.43 2.93 1.77 4.49-1.44-.09-2.35-1.47-3.58-2.08-2.25.66-4.36 1.72-6.51 2.63-1.25 4.7-.29 9.5-.49 14.27l-1.32.03-1-2.44c-3.38.63-6.86 3.08-10.29 1.4-4.1-2.09-4.58-7.56-3.22-11.49zM125.56 26.94c4-7.06 10.99-13.65 19.62-13.42 2.88 2.01 5.54 4.75 5.34 8.54-1.02 10.48-9.42 19.7-19.72 21.87-2.29-1.1-5.4-1.68-6.42-4.33-.39-1.83.38-3.69.49-5.52.72 3.18 2.25 7.15 6.08 7.38 5.16-.99 9.76-4.32 12.6-8.7 1.99-3.71 3.47-7.68 4.86-11.65-1.02-1.84-1.81-3.91-3.48-5.29-9.18-.34-15.73 7.83-18.78 15.65-.15-1.13-.45-3.4-.59-4.53zM122.02 17c3.28-1.87 7.45-3.86 11.13-2-2.43 1.78-5.52 1.86-8.25 2.88-1.02 1.37-1.79 2.9-2.73 4.32-.54-.84-1.05-1.69-1.54-2.55.35-.66 1.04-1.98 1.39-2.65z"/><path d="M96.59 39.69c3.07-9.81 11.84-19.03 22.66-19.03 1.59 1.43 3.68 2.39 4.81 4.28.89 1.91 1.15 4.03 1.62 6.07-2.52 9.57-8.84 19.15-18.82 21.94-3.93 1.35-9.13-.16-10.09-4.65-4 5.78-4.32 12.89-4.59 19.67.33 2.16 1.69 4.01 2.16 6.15-.5 3.43-2.22 6.53-3.18 9.84-.55 4.22 1.3 8.19 2.07 12.25.29 2.82 2.24 4.98 3.49 7.41-2.29-.42-3.52-2.32-4.71-4.11-.22 4.35-.32 9.27 2.82 12.71 4.7 5.62 9 12.78 16.58 14.64 3.72 1.08 7.98.92 10.97 3.77 4.08 4.06 10.42 7.75 9.88 14.35-3.61-4.22-7.29-8.37-11.11-12.4-5.74-3.44-12.91-3.28-18.43-7.17-2.85-1.97-4.57-5.02-6.46-7.82.02-.57.05-1.69.07-2.25-2.84-.93-5.34-3.14-5.74-6.22-1.94-5.48 2.01-11.38-.98-16.67-4.33 2.35-10.18 2.7-12.84 7.38-1.75 2.3-.79 5.29-.48 7.89 3.77 2.9 7.1 6.3 10.52 9.58 6.44 5.53 14.08 9.42 20.55 14.9 5.53 2.81 9.08 8.13 14.52 11.06 3.19 2.4 5.45 5.92 9.09 7.77 3.1 1.42 4.47 5.33 7.91 6.05.06-1.68-.78-3.09-1.67-4.42-.31-3-1.88-5.56-3.36-8.11 2.25-3.66 3.45-7.99 6.53-11.1 3.52-3.63 7.66-6.87 12.52-8.44 2.09-2.19 5.16-1.76 7.9-1.7-1.32-2.36-2.58-4.77-4.22-6.92-1.68-1.93-3.96-3.38-4.99-5.81-1.75-2.74-1.71-6.02-2.06-9.12l-1.56-.48-1-.08-1.08-.07-1.97 1.09-.89.11c-.8-.04-2.41-.13-3.22-.18-.63-.8-1.25-1.61-1.87-2.42 2.33.32 4.8 1.05 7.01-.14-2.62-2.03-5.88-3.2-8.1-5.72-.67.67-1.32 1.34-1.98 2.02-6.04.78-10.28 5.38-15.41 8.1.68-3.29 4.38-4.59 6.7-6.57-3.24-4.77-9.49-4.43-14.58-4.26-2.57 1.09-2.21 4.95-3.5 7.22 4.28 1.37 7.68 4.4 11.72 6.25-1.77 2.45-1.1 6-3.45 8.01-.04-2.45.19-4.88.49-7.31-3.72.15-7.34 1.05-11.01 1.59-.44-2.71-.99-5.56.1-8.19 1.07-3 3.14-6.05 2.37-9.36-1.09-5.11-.21-10.7-3.24-15.27-1.28-5.5 1.34-11.17 1.05-16.77.02-1.61-.69-3.3.06-4.83.31-.09.93-.26 1.24-.35 1.25 4.98 1.28 10.28.05 15.26-.24 2.58-.51 5.28.57 7.72 1.75 4.13 1.05 8.78 2.58 12.95 2.1 1.76 5.44 1.21 8.01.7l-1.63-1.38c.99-3.03 2.61-5.97 2.59-9.24-1.28-2.96-3.03-6.22-6.38-7.14-1.38-.97-3.89-.81-4.37-2.7.11-.2.34-.6.45-.8 6.01.82 11.63 5.02 13.28 10.95-.26 4.2-2.84 7.78-4.04 11.73 4.64-1.83 7.14-6.41 11.07-9.24a23.352 23.352 0 011.76-15.79c-4.01-6.04-1.97-13.26-1.85-19.95-.46-1.98 1.85-2.49 2.97-3.51-.42 3.6-1.13 7.16-1.62 10.75-.56 3.58 1.14 6.98 1.92 10.39.91-1.81 1.79-3.64 2.71-5.45 1.83 3.01 3.71 6.23 4.08 9.79-.17 4.73.04 9.58-1.6 14.1-1.77-6.32 1.28-13.14-1.97-19.13-6.12 5.51-4.8 14.89-3.57 22.17 3.87 1.63 5.79 5.44 8.47 8.4-.78-1.88-1.63-3.74-2.37-5.63 2.74.84 3.74 3.27 4.18 5.86 2.21 2.61 4.91 4.72 7.51 6.89 2.06 4.02 2.73 8.95 6.31 12.05 3.05 2.54 5.21 5.89 6.65 9.56 1.29.24 2.58.5 3.88.78.52-.22 1.57-.67 2.1-.89 2.33 1.32 3.81 3.53 3.6 6.29 7.01 1.17 14.13 2.1 20.93 4.25 2.03.5 3.14 2.37 3.63 4.26 1.88-.65 3.83-1.13 5.83-1.18l1.44 2c5.52 2.95 11.86 4.74 16.2 9.52 3.07 3.39 8.13 5.77 8.51 10.85.18 4.96-4.21 8.19-6.05 12.42-5.03 5.74-8.39 12.78-14.26 17.81 3.96 1 5.54 4.92 7.89 7.78 2.09 2.75 6.3 3.08 7.82 6.35-.11 2.11-.55 4.22-1.26 6.21-1.62 1.33-3.66 1.97-5.54 2.82-4.05-2.04-9.08-3.65-11.39-7.81 3.41 1.3 6.58 3.13 9.63 5.12 1.52-.41 3.08-.73 4.57-1.26.64-1.66.86-3.45 1.27-5.17-3.32-1.9-6.76-3.96-8.61-7.46-1.43-2.77-3.44-5.18-6.15-6.79 3.28-4.99 7.75-9.07 10.46-14.45 3.27-4 6.16-8.27 8.69-12.79.97-2.5.28-5.61-1.88-7.29-3.28-2.72-5.97-6.14-9.54-8.52-4.6-2.47-9.48-4.41-14.13-6.79-2.39 1.34-4.86 2.88-6.19 5.38-1.87 3.5-2.23 7.57-2.51 11.47 1.07.87 1.59 2.03 1.55 3.47 5.87 1.67 11.93 3.96 18.12 2.64 2.24 1.5 4.65 2.8 7.37 3.16-.37.5-1.09 1.5-1.45 1.99-1.92-.67-3.8-1.41-5.67-2.19-2.13 2.77-4.57 5.26-6.85 7.9-2.36 2.65-.83 6.62-2.67 9.52-1.64 2.99-2.42 6.54-4.87 9.02-1.49 1.68-3.87 1.38-5.88 1.64 5.56-4.01 9.25-10.36 9.93-17.18 0-5.03 4.67-7.92 7.55-11.42a73.48 73.48 0 01-6.79-.61c.3 3.97.72 8.96-2.82 11.7-6.02 4.03-12 8.23-19.06 10.26.1 5.93 1.31 11.88-.03 17.77 4.78-2.47 9.42-5.2 14.27-7.53 2.09 1.64 4.25 3.2 6.44 4.72.66 3.47 1.02 6.99 1.19 10.51-11.03 6.81-22.7 12.53-33.84 19.15-1.43.5-2.9 2.39-4.43 1.26-.05-.27-.14-.8-.19-1.07 12.12-6.82 24.47-13.25 36.41-20.37-.19-2.4-.13-4.86-.76-7.2-1.56-1.72-3.49-3.11-5.55-4.17-4.78 1.89-9.09 4.76-13.69 7.02.32 2.41.73 4.8 1.11 7.2-.52.23-1.55.7-2.07.93-2.03-9.2.07-18.53.37-27.77-.66-.01-1.96-.02-2.62-.03-.15 2.24-.36 4.48-.54 6.72l-1.18 1.18c.04 1.96.16 4.24-2.53 3.16-.87 2.3-1.6 4.66-2.51 6.94.27 1.22.54 2.45.8 3.68-.59-.45-1.75-1.34-2.33-1.78-.85 2.74-1.78 5.44-2.55 8.21 1.71-2.12 2.9-4.58 4.08-7.02l-.12 5.14c-2.22 1.91-5.48 3.27-6.18 6.38-1.33 4.55-3.37 9.49-1.21 14.11 2.41 3.49 3.65 7.59 5.53 11.35 2.2 4.03 7.8 4.26 9.75 8.48-5.06-1.79-10.01-4.47-12.96-9.13-3.18-5.44-5.05-11.56-6.41-17.68 1.93-7.7 6.69-14.32 8.57-22.05 1.1-4.64 4.04-8.42 6.41-12.44 1.6-3.96-1.35-7.54-2.59-11.11-1.38-3.14-.63-6.7-1.68-9.9-1.53-2.97-3.9-5.94-7.42-6.47-5.78.5-10.55 4.84-12.94 9.93.58 3.34 3.13 5.93 5.18 8.51 2.68 3.04 4.2 6.83 5.84 10.47-4.77 3.67-7.11 9.41-9.23 14.85-1.54 3.85-1 8.06-1.28 12.1-.46 7.64-3.61 14.71-5.77 21.94-1.17 2.4 1.56 3.68 3.19 4.73 3.1 1.55 6.13 4.16 9.69 4.13-1.95-5.27-2.88-10.85-3.57-16.4 2.79 1.53 2.59 5.05 3.44 7.73.55 3.3 1.86 6.83.62 10.11-.08 4.19 5.27 5.87 8.77 6.09 5 1.16 9.8-1.49 13.12-5.05-.42 1.22-.82 2.45-1.22 3.68-4.11 3.95-10.18 5.97-15.69 4.08-5.23-2.2-8.49-7.05-12.8-10.49-2.99-1.97-7.78-3.34-7.84-7.66.71-5.52 4.4-10.23 4.9-15.84 1.53-8.14-.76-17.14 3.66-24.59 1.64-4.11 4.53-7.48 6.92-11.14-2.27-4.87-5.87-8.84-9.04-13.11-.85.5-1.7.99-2.55 1.49 1.14-5.65 4.35-10.81 8.51-14.74 3.68-3.21 9.71-5.68 13.89-1.99-2.11-3.33-1.79-7.52.22-10.81 2.26-3.13 1.02-6.98 1.41-10.54.46-.03 1.38-.1 1.84-.14-.28 3.66 1.16 7.61-1.01 10.92.45.4.89.8 1.33 1.22-.61.32-1.84.96-2.45 1.28l.77 1.61c1.23-.47 2.46-.93 3.69-1.39.01-.52.02-1.56.02-2.08 3.3-3.86 7.76-7.45 13.14-7.25-3.48 3.44-8.76 4.41-11.62 8.63 3.89 3.76 9.38 3.43 14.38 3.3.64-6.99 2-14.39 7.18-19.56-7.78-4.4-16.6-6.06-25.3-7.46-.66-1.8-.96-3.71-1.67-5.49-4.4-1.46-9.31-1.99-13.72-.26-7.62 3.03-14.96 8.2-18.33 15.92-3.22 4.9 2.66 9.18 3.48 13.93-1.8 6.6 1.46 13.11 3.8 19.16-4.95-2.52-5.98-8.51-6.54-13.49-4.86-4.17-9.95-8.07-15.01-12-13.47 7.48-27.2 14.49-40.75 21.82-2.41-1.7-4.79-3.43-7.14-5.2.11-3.04-2.01-6.77.11-9.37 5.01-3.44 10.72-5.77 15.7-9.28.5-7.07.23-14.18.31-21.27l1.98-.03c.01 7.47.29 14.98-.22 22.44-5.12 3.63-10.91 6.26-16.34 9.4.04 2.24-.09 4.51.31 6.73 1.64 1.49 3.35 3.34 5.54 3.9 13.34-6.49 26.11-14.23 39.6-20.41-3.69-3.41-7.56-6.61-11.51-9.72-2.66 1.27-5.25 3.15-8.37 2.86 1.77-1.71 3.9-2.96 6.05-4.14-6.04-4.71-12.14-9.32-18.47-13.64-4.99-3.21-8.67-7.96-13.3-11.61-5.95-3.81-3.6-13.63 2.31-16.3 3.54-1.34 6.95-3 10.29-4.78-.23-3.42-.17-6.86.84-10.16 1.4-4.26-1.04-8.43-.83-12.72.31-8.57 3.92-16.58 4.85-25.06.14 1.51.41 4.54.54 6.05 1.57-2.5.45-5.64 1.57-8.31m4.28-3.79c-1.49 3.24-3.53 6.65-2.64 10.36.46 2.83 3.21 4.25 5.59 5.27 3.42-1.22 7.1-2.28 9.69-4.98 5.39-4.41 7.18-11.46 9.56-17.7-1.09-2.17-2.34-4.26-3.95-6.08-7.99.51-14.93 6.01-18.25 13.13m22.29 55.94c1.87 1.23 3.53 2.73 4.9 4.5 2.72-1.37 5.48-2.68 8.01-4.38-1.23-1.65-2.59-3.19-3.85-4.81l-1.47.64c-.14-.77-.41-2.32-.54-3.09-2.57 2.16-4.81 4.66-7.05 7.14m-15.96 10.19c.07 1.53.16 3.07.25 4.6 1.88-.53 3.76-1.07 5.65-1.59-1.99-.97-3.96-1.96-5.9-3.01m62.35 58.15c-.09 2.24-.02 4.49-.3 6.72 3.84 4.96 4.29 11.41 6.31 17.15 7.96-2.29 16.54-3.96 22.94-9.61 2.68-2.88 2.91-7.55.83-10.82-3.37-1.11-8.78-2.4-6.76-7.56 2.05 6.68-2.08 4.24-4.55 3.75-4.47.19-8.89-.52-13.01-2.24-1.95.53-3.86 1.37-5.46 2.61z"/><path d="M142.43 41.56c-1.22-1.74-.27-3.17 1.47-3.98 2.88 8.11 3.27 16.92 1.53 25.33l-.3-.3c.69 5.16 1.9 10.24 3.04 15.31-1.23 5.62-2.23 11.31-4.08 16.76-2.65-5.61 2.21-10.97 1.6-16.69-.65-4.73-2.08-9.31-3.16-13.95 1.69-7.31 3.67-15.43-.1-22.48zM99.79 80.24c.98-3.44 1.18-7.21 3.28-10.23.81 3.66-1.18 7.31-.54 10.88 2.36 4.26 1.92 9.69-.55 13.81-.75-4.85.9-10.18-2.19-14.46zM100.56 110.22c-.71-5.29-.01-10.71 1.66-15.76.62 5.23.7 10.93-1.66 15.76zM133.27 100.45c2.42.92 4.86 1.84 7.1 3.15 3.28 2.27 2.51 6.97 5.1 9.7 1.43 1.58 2.59 3.53 2.66 5.72-.35-.1-1.06-.28-1.41-.37-3.07-3.63-6.3-7.39-6.44-12.43-2.28-2.01-5.71-2.81-7.01-5.77zM125.91 113.04c.13-3.86 2.36-7.21 4.47-10.3-.03 3.31-1.63 6.35-2.01 9.62.63.96 1.25 1.94 1.85 2.93-1.51-.57-3.23-.94-4.31-2.25zM111.84 116.19c-2.08-1.95-4.34-3.72-6.2-5.89 4.35 1.37 7.64 4.66 11.63 6.72.49 2.38.73 4.81.65 7.25-2.06-2.67-3.58-5.77-6.08-8.08zM129.4 115.32c2.05.84 4.04 1.82 6.01 2.84-.73.5-1.48.97-2.24 1.41-1.59-1.08-2.82-2.6-3.77-4.25zM126.42 121.31c2.84-.09 5.69-.12 8.53-.12 2.69 2.1 5.18 4.63 6.78 7.68-1.65-.32-3.3-.66-4.95-.97 0-.46-.01-1.37-.01-1.82-1.27-1.1-2.55-2.18-3.83-3.26-2.34 1.17-4.51-.46-6.52-1.51zM148.65 133.08c4.38-3.44 9.81-6.96 15.63-5.8-5.58.91-10.33 4.09-15.63 5.8zM154.86 136.44c3.13-3.56 7.2-7.09 12.31-6.59-4.1 2.21-8.43 3.98-12.31 6.59zM152.39 144.3c2.85-6.5 10.53-7.45 15.99-10.76l.12 1.87c-1.9 1.71-4.27 2.65-6.6 3.58-3.4 1.35-6.32 3.58-9.51 5.31zM144.93 142c.42.52 1.27 1.54 1.7 2.06-1.08 1.57-2.2 3.13-3.56 4.47.33-2.25 1.06-4.41 1.86-6.53zM161.6 147.03c1.62-.56 3.22-1.17 4.91-1.51-.22 2.08-2.43 2.73-3.94 3.7.84 1.84.27 3-1.7 3.48.22-1.9.49-3.78.73-5.67zM201.88 153c2.29.98 4.11 2.74 5.1 5.04-2.86-.07-3.85-2.98-5.1-5.04zM211.09 154.45c.18-.28.56-.84.74-1.12 2.31 2.02 4.32 4.54 7.17 5.82 1.84.04 3.67-.23 5.5-.43l-.18 2.72c-2.25.14-4.67.82-6.81-.17-2.71-1.66-4.51-4.37-6.42-6.82zM206.8 180.12c2.12-1.46 3.31-4.7 6.12-4.8-1.09 2.33-2.87 4.23-4.64 6.05-.45 0-1.35.01-1.8.02l.32-1.27zM165.29 189.72c.79-2.21 1.81-4.34 3.04-6.34.52 2.58-.07 5.66-3.04 6.34z"/></g></svg>