<svg width="263pt" height="275pt" viewBox="0 0 263 275" xmlns="http://www.w3.org/2000/svg"><g fill="#FFF"><path d="M0 0h263v275H0V137.84c2.42-2.88 4.86-5.76 7.1-8.78 21.36-28.28 42.99-56.36 64.28-84.69 3.5 1.69 7.13 4.19 11.21 3.65 4.56-1.06 8.71-3.38 12.69-5.78.73 4.6 1.77 9.15 3.1 13.61 1.73 5.86.27 12.02 1.16 17.98.8 2.51 2.62 4.58 3.32 7.15.91 3.27 1.49 6.63 2.39 9.9 1.01 3.14-.38 6.3-1.06 9.34l1.78.24c-.39.74-.78 1.48-1.16 2.23l1.98 3.6c3.56-.07 7.12-.19 10.68-.2-.83 2.86-1.23 5.83-.98 8.81 1.35-2.79 2.11-5.82 3.28-8.68a46.065 46.065 0 00-13.58-6.63c1.01-2.37-.06-7.21 3.66-6.99 5.36.11 11.52-.01 15.45 4.29-2.13 2.33-4.62 4.32-6.53 6.87 2.69-1.17 5.16-2.76 7.69-4.22 2.73-2.4 6.25-3.44 9.66-4.46.1-1.46.21-2.93.39-4.38.08.9.23 2.7.31 3.6 2.84 1.57 5.62 3.24 8.22 5.18-2.55.52-5.16.32-7.74.43 2.28 1.32 4.81 2.08 7.32 2.87l.28-2.87c1.62 2.41 3.56 4.72 4.34 7.58.87 5.95 5.95 10.07 10.63 13.27-1.31-4.19-5.29-6.54-7.41-10.2-.99-2.66-1.36-5.56-2.82-8.04-1.93-3.3-4.88-5.82-7.7-8.34-4.03-3.57-7.69-8.32-13.48-8.81-1.82-7.33-4.26-16.11 1.03-22.61-.2-.81-.61-2.42-.81-3.23-.87 1.48-1.72 2.97-2.56 4.47-.92-2.62-2.07-5.19-2.67-7.91-.65-4.66.05-9.35.12-14.02.08-3.11-1.34-5.95-2.3-8.83-3.64-1.77-7.1-3.93-10.91-5.36 2.03 3.7 6.15 5.01 9.28 7.48 2.96 10.18-.81 21.93 5.41 31.28-1.61 5.19-1.26 10.68.35 15.82-2.77 2.63-5.27 5.52-7.71 8.46-3.24-.22-6.65.18-9.77-.86-1.4-1.51-1.58-3.69-2.2-5.57-1.08-4.91-3.45-9.42-4.26-14.4 4.76 1.4 10.3 2.93 12.71 7.76 2.89 3.73-1.64 8.68.57 12.21.26-.06.78-.19 1.04-.26 1.59-4.05 4.21-9.43.6-13.18-3.23-4.62-8.52-7.25-14.09-7.64-.62-9.3-2.84-18.43-6.24-27.09 2-2.07 4.74-3.92 5.23-6.97.23-2.79.54-5.85-.96-8.37-1.79-3.27-4.7-5.69-7.34-8.24-1.36.39-2.71.78-4.06 1.17-.42-.43-1.25-1.3-1.67-1.73l.8 3.52-3.12-1.44c-4.24 1.31-7.65 4.42-10.71 7.51-3.22 3.29-3.51 8.09-4.12 12.39.21.51.63 1.55.84 2.07C47.19 72.78 23.66 103.92 0 134.96V0m107.82 12.98c3.33 2.43 7.15-.69 10.78-.73-2.86 1.69-6.3 2.01-9.11 3.84-.51 1.98-1.23 3.92-1.51 5.96.65 1.74 1.59 3.34 2.41 5-.8-3.48.51-6.8 1.98-9.9 1.9-.89 4.02-1.14 6.02-1.74 4 3.29 6.79 7.63 9.53 11.95-1.9-.14-3.8-.3-5.7-.43.18.56.53 1.67.7 2.23 4.54-.42 9.48 1.95 13.64-.6-.98-3.21-1.56-7.25-4.87-8.94.42 2.66 1.86 5.04 2.86 7.51-1.4.42-2.83.74-4.27 1.02-.68-7.3-7.81-10.58-12.08-15.59 1.29.57 2.6 1.1 3.92 1.6.67.06 2.01.17 2.67.23l.54.3c1.34.72 5.62 2.41-.55 1.69 2.07.78 3.84 2.29 6.01 2.8-.8-.69-2.38-2.05-3.18-2.73 2.98-.87 5.07 2.91 7.76 3.82.69 1.5 1.54 2.92 2.41 4.32-.33 1.92-.63 3.84-.98 5.76-4.63.72-9.27-.23-13.91.08 2.63.9 5.26 1.91 8.02 2.36 2.91.09 5.75-.72 8.6-1.19.41-2.61.39-5.26.03-7.88 20.23 8.52 40.66 16.55 60.94 24.95 2.2.96 4.5 1.71 6.88 2.12-.74-1.41-1.9-2.48-3.43-2.95-21.64-8.78-43.26-17.62-64.91-26.4-4.47-1.69-7.58-5.54-11.77-7.71-6.1-2.74-13.17-3.53-19.43-.75m15.56 2.4c.27.27.27.27 0 0m6.39 18.9c1.57 3.62 3.61 7.01 5.33 10.55 2.24 5.83 1.66 12.21.97 18.27 1.43 5.38 4.17 10.4 5.18 15.92.06 4-1.12 7.9-1.19 11.89a19.82 19.82 0 001.98 2.93c0-5.65 1.57-11.24 1.08-16.87-1.34-4.74-3.18-9.34-4.48-14.1.97-9.95-1.12-20.1-6.24-28.71l-2.63.12M84.94 48.86c-1.24 4.95-1.28 10.12-1.55 15.19-.24 4.18 1.69 7.96 2.68 11.91.39 3.69-.91 7.33-.69 11.02.62 4.1 2.95 7.78 3.02 11.98.05 3.69.1 7.5 1.62 10.95.9 2.73 3.57 4.14 5.84 5.58 1.11 3.93 3.59 7.44 6.82 9.92 5.58 4.01 12.96 3.62 18.67 7.37 4.54 3.2 7.11 8.32 10.87 12.28-.3-1.71.33-3.83-1.03-5.21-2.56-3.09-5.35-6-8.21-8.8-3.12-3-7.55-3.39-11.6-4.06-7.83-2.22-11.91-9.66-17.22-15.14-3.16-3.28-3.97-8.03-4.22-12.4 1.43 1.76 2.99 3.53 5.3 4.07-1.33-2.14-2.89-4.12-4.58-6-.56-4.68-3.33-8.83-3.49-13.57.45-3.36 1.71-6.58 2.03-9.96-.64-2.16-2.14-3.92-2.93-6.01-.34-3.34-.39-6.7-.61-10.05-.26-3.88 1.87-7.41 2.01-11.27-.68.55-2.05 1.65-2.73 2.2m49.07 35.94c.8-4.19-.57-8.35-.17-12.55.15-1.43.01-2.86-.48-4.22-2.74 5.14-2.2 11.8.65 16.77m-40.06-7.92c2.77 3.94 4.42 8.44 5.5 13.1 2.13-2.9.49-6.63-.99-9.42-1.89-2.76-.92-6.17-1.34-9.28-2.75-.75-2.08 3.95-3.17 5.6m-22.94 21.2c-1.54 3.83-.07 8.29 3.59 10.3 5.78 4.58 11.5 9.23 17.24 13.87-.13 8.05.12 16.14-.42 24.17-4.97 3.58-10.74 5.87-15.76 9.37-2 2.39-.34 6.01.01 8.78 1.73 2.53 4.71 3.91 7.12 5.75 9.84-5.36 19.84-10.43 29.67-15.81 4.17-2.07 8.1-4.67 12.46-6.3 3.99 2.78 7.6 6.07 11.65 8.79-4.09-7.05-11.02-11.56-17.76-15.76-13.16-10.15-26.01-20.69-39.08-30.96-3.29-2.96-8.22-5.64-7.54-10.83 3.67-3.69 8.58-5.51 12.97-8.12-.07-.31-.19-.94-.25-1.25-.31-.13-.94-.38-1.26-.51-4.35 2.58-9.9 3.88-12.64 8.51m27.8-2.37c.09 4.69-.08 9.41.88 14.04.6-.33 1.21-.65 1.82-.97-1.09-4.47-.81-9.08-1.14-13.63l-1.56.56m34.45 4.71c1.36 3.63 6.55 3.67 7.63 7.47 1.2 4.44 3.89 8.27 6.39 12.05.6-4.4-2.87-7.82-3.84-11.92-1.21-4.67-6.24-6.04-10.18-7.6m-2.96 2.34c-2.27 3.17-4 6.73-4.7 10.59 1.53.68 3.07 1.34 4.64 1.95-.56-.96-1.13-1.9-1.72-2.84.12-1.16.22-2.32.34-3.48.79-1.98 1.7-4.04 1.44-6.22m-24.76 7.51c1.94 2.17 4.22 3.98 6.33 5.97 2.49 2.32 4.01 5.42 6.06 8.09.03-2.45-.19-4.89-.61-7.3-4.02-2.11-7.38-5.39-11.78-6.76m23.8 5.05c1.01 1.75 2.37 3.36 4.19 4.31.58-.53 1.15-1.08 1.7-1.65-1.94-.95-3.88-1.88-5.89-2.66m17.88 4.75c1.62 1.46 3.23 3 4.18 5.02-4.08 2.58-8.32 5.12-11.48 8.84-2.78 3.12-4.05 7.2-6.08 10.79 1.59 2.52 3.15 5.16 3.26 8.23.41.45 1.21 1.36 1.62 1.82-.87 5 .99 9.9 2.14 14.7.46 2.21 2.53 3.33 4.2 4.57-2.16-6.15-5.9-12.8-3.58-19.39-1.59-3.53-3.84-6.92-4.85-10.61 2.81-9.86 11.88-16.6 21.3-19.6 3.9-1.41 8.06-.21 11.89.84.75 1.73 1.03 3.62 1.64 5.42 8.71 1.43 17.51 3.15 25.36 7.44-5.17 5.19-6.59 12.58-7.19 19.59-5.06.2-10.42.23-14.6-3.09 2.98-4.26 8.26-5.41 11.91-8.83-5.84-.1-11.59 4.02-13.71 9.37 1.88 1.28 3.48 3.05 5.63 3.9 4.06.65 8.17.82 12.24 1.4.36-.43 1.09-1.27 1.45-1.7.36 3.26 4.01 3.77 6.42 4.85.61.82 1.22 1.63 1.84 2.44-.18 3.31-.27 7.25-3.36 9.29-5.47 3.71-11.63 6.66-18.25 7.5-.23.58-.7 1.75-.93 2.33-1.26-.84-3.07-1.31-3.3-3.06-1.64-5.18-2.3-10.85-5.73-15.28.25-2.27.22-4.55.39-6.81 1.09-1.44 2.56-2.52 3.92-3.68-1.22.04-2.45.21-3.67.09-.07-.83-.19-2.5-.25-3.34.45.25 1.37.73 1.82.98-.72-.87-.88-1.8-.47-2.79.92-2.66.54-5.49.36-8.24.23-1.11-1.04-1.49-1.56-2.2-.88 3.75.72 7.88-1.63 11.24-2.05 3.32-2.2 7.38-.48 10.86-1.84-.9-3.68-2.29-5.84-1.78-5.55.86-9.92 5.07-12.68 9.75-1.54 2.79-3.78 5.69-2.99 9.08.86-1.15 1.59-2.38 2.34-3.6 1.99 5.37 7.1 9 8.5 14.63-.47 1.4-1.33 2.61-2.16 3.81-3.48 4.64-5.8 10.1-7.21 15.7-1.02 7.77.21 16.01-3.03 23.39-1.14 3.28-3.3 6.48-2.9 10.09 1.07 3.85 5.45 4.78 8.28 6.95 4 3.43 7.23 7.93 12.21 10.06 6.49 2.19 15.19-.65 17.33-7.68-3.65 3.2-8.31 6.2-13.4 4.98-3.49-.2-8.96-1.87-8.76-6.08 1.05-3.36-.07-6.86-.7-10.19-.78-2.73-.78-6.09-3.43-7.79.59 5.62 1.61 11.23 3.56 16.55-3.82-.17-7.01-2.79-10.3-4.51-1.07-.86-3.06-1.64-2.76-3.29 1.03-5.17 3.57-9.9 4.6-15.08 1.76-5.47 1.25-11.26 1.82-16.89 1.41-6.27 3.96-12.39 8.12-17.35.56-.03 1.69-.07 2.26-.1-1.8-3.46-3.34-7.12-5.81-10.18-2.11-2.63-4.38-5.24-5.62-8.42 1.62-5.59 7.01-10.23 12.89-10.8 3.5.39 6.01 3.34 7.42 6.35 1.22 5.28 2.59 10.57 4.81 15.55 1.74 3.37-1.08 6.62-2.78 9.34-3.93 5.24-4.52 12-7.42 17.75-2.07 5.23-6.24 10.47-4.43 16.41 1.93 6.37 3.8 13.32 8.88 17.98 2.69 2.65 6.33 3.97 9.77 5.37-1.99-4.21-7.56-4.47-9.77-8.51-1.87-3.77-3.24-7.81-5.59-11.33-2.12-5.15.04-10.62 1.72-15.57 1.47-2.14 3.88-3.43 5.92-4.98-.26-1.48-.35-3-.84-4.43-1.08 2.14-2.04 4.34-3.34 6.35.58-2.4 1.43-4.72 2.27-7.04.3-.14.91-.44 1.21-.58 1.6-4.27 2.39-8.83 4.43-12.96.87-.23 1.68-.57 2.44-1.04-.18-.38-.54-1.15-.73-1.53.52-1.52 1.04-3.03 1.52-4.56.57-.08 1.71-.25 2.28-.33-.2 9.15-2.33 18.38-.43 27.51.54-.13 1.64-.4 2.18-.54-.36-2.45-.76-4.9-1.09-7.36 4.6-2.23 8.87-5.18 13.67-6.97 2.09.99 3.96 2.45 5.52 4.15.57 2.34.57 4.76.77 7.15-11.96 7.13-24.33 13.57-36.46 20.41.06.27.18.8.24 1.06 1.55 1.13 3.05-.79 4.51-1.28 11.13-6.61 22.77-12.34 33.79-19.13-.18-3.51-.54-7.01-1.16-10.47-2.2-1.57-4.38-3.15-6.52-4.8-4.81 2.38-9.47 5.04-14.21 7.53 1.26-5.76.36-11.61-.06-17.41 3.82-2.34 8.41-3.1 12.08-5.73 3.3-2.2 6.7-4.33 9.48-7.21-.38 7.68-3.92 15.11-10.06 19.81 2.04-.55 4.65-.24 6.1-2.07 2.08-2.53 2.93-5.78 4.46-8.63 1.73-2.9.35-6.78 2.62-9.41 2.26-2.65 4.71-5.13 6.85-7.89 2.44 1.06 5.21 2.81 7.53.55-2.99-.67-5.53-2.6-8.42-3.38-6.16.89-12.13-1.25-17.95-2.95l.76-2.92c-.48.48-1.44 1.44-1.93 1.92-.01-7.14 1.25-16.01 8.72-19.15 4.7 2.34 9.59 4.31 14.21 6.8 3.57 2.41 6.29 5.83 9.58 8.58 2.09 1.68 2.79 4.74 1.79 7.19-2.48 4.52-5.4 8.76-8.65 12.77-2.73 5.37-7.19 9.49-10.49 14.47 2.69 1.65 4.74 4.05 6.18 6.84 1.84 3.48 5.27 5.54 8.59 7.42-.41 1.71-.65 3.48-1.27 5.13-1.49.55-3.04.88-4.57 1.29-3.06-2.02-6.25-3.86-9.71-5.1 2.43 4.13 7.4 5.78 11.49 7.82 2.09-1.21 5.66-1.51 6.05-4.37.2-1.95 1.62-4.41-.1-6.03-2.23-2.16-5.59-2.91-7.4-5.54-2.07-2.79-3.75-6.2-7.35-7.29 5.75-5.05 9.14-11.98 14.09-17.7 1.92-4.21 6.27-7.52 6.11-12.48-.38-5.07-5.43-7.45-8.49-10.84-4.36-4.67-10.52-6.73-16.15-9.39-1.27-3.24-4.78-1.95-7.17-1.02-1.24-4.73-6.67-5-10.58-6.01-4.72-.69-9.35-1.85-14.07-2.5-.37-1.94-.39-4.64-2.66-5.4-2.77-1.02-5.53-2.1-8.34-3.01-3.34.72-6.53 2.03-9.53 3.64-.8-1.19-1.62-2.36-2.41-3.55-.89-.3-1.79-.6-2.68-.89m-20.83.98c3.64 2.55 8.33 3.8 11.01 7.56.98 1.06 1.72 2.95 3.51 2.27-.13-1.9-.44-3.88-1.55-5.48-3.47-3.26-8.28-4.57-12.97-4.35m19.32 15.28l-1.7.57c-.73 2.2-1.59 4.35-2.53 6.47.9-.49 1.81-.98 2.75-1.43-.3 2.22-.78 4.42-.96 6.66 1.05-1.38 2.09-2.76 3.15-4.13-.32-1.76-.65-3.51-.98-5.26 2.24-2.31 4.3-4.81 6.74-6.93 3.42-2.91 7.93-3.82 12.13-5.03-7.31-1.12-14.11 3.73-18.6 9.08m8.5 2.19c4-3.28 7.97-6.62 12.85-8.55-5.58-.53-10.88 3.48-12.85 8.55m-1.83 5.77c4.08-2.35 8.01-5 12.52-6.51 2.13-.47 3.1-2.48 4.07-4.21-6.16 2.22-13.47 4.38-16.59 10.72m9.19 3.05c-.67 1.54-1.04 3.18-1.44 4.8.75-.01 2.27-.05 3.03-.06-.14-.7-.43-2.09-.57-2.79 1.67-1.03 3.27-2.19 4.61-3.64-1.93.27-4.03.47-5.63 1.69m40.3 5.57c1.21 2.16 2.26 5.09 5.22 5.13-1.12-2.27-2.94-4.04-5.22-5.13m9.02.16c1.34 3.33 3.58 6.37 6.69 8.23 2.11.98 4.51.29 6.74.18.06-.92.13-1.84.2-2.75-1.86.18-3.73.42-5.6.37-3.03-1.5-5.16-4.28-8.03-6.03m-4.08 27.03c-.08.31-.23.94-.31 1.25l1.82.04c1.76-1.86 3.53-3.78 4.64-6.11-2.81.18-4.06 3.32-6.15 4.82m-41.63 9.48c3.11-.31 3.38-3.57 3.55-6.01-1.56 1.76-2.71 3.82-3.55 6.01z"/><path d="M85.16 23.41c2.23-.9 4.46-1.79 6.68-2.72 2.61 2.75 5.23 5.49 7.98 8.09l-.16 2.83c-4.72 1.25-8.5 4.39-12.06 7.57-1.81-5.06-3.06-10.37-2.44-15.77z"/><path d="M74.92 29.96c1.98-2.72 4.78-4.67 7.3-6.85-.05 6.4 2.38 12.43 3.08 18.74-2.33-.18-5.1.44-7.05-1.1-1.12-2.19-1.37-4.7-2.25-6.99 1.97-2.54 4.66-4.76 5-8.19-2.83 2.09-5.99 4.75-6.38 8.5.05 2.55.22 5.19 1.53 7.45.62.25 1.85.74 2.47.99 5.33 3.87 10.36-1.75 14.28-4.9.29-.46.87-1.39 1.16-1.85l4.46-.6c-2.08 2.08-4.29 4.03-6.18 6.28-3.92 2.15-8.11 3.74-12.43 4.85-2.35-.86-4.72-1.63-7.1-2.4-.12-1.59-.28-3.19-.56-4.76.87-3.06 1.04-6.38 2.67-9.17zM120.62 91.1c1.63-2.25 3.32-4.48 5.36-6.37.42.56 1.24 1.68 1.66 2.24 3.23.91 7.31 1.95 7.46 6.07-2.63 1.05-5.17 2.28-7.68 3.6-.62-.83-1.24-1.65-1.87-2.47.33-1.37.73-2.73 1.17-4.06-1.23.86-2.43 1.74-3.63 2.63-.82-.55-1.65-1.09-2.47-1.64zM94.22 124.03c4.34 4.64 9.55 8.32 14.55 12.19-2.18 1.15-4.39 2.39-5.96 4.34 3.04-.13 5.68-1.71 8.34-3.01 3.8 3.05 7.61 6.11 11.24 9.37-13.14 6.94-26.23 14.01-39.47 20.76-2.03-.91-3.82-2.32-5.38-3.88-.48-2.22-.32-4.52-.38-6.77 5.44-3.15 11.24-5.78 16.36-9.42.27-7.85.62-15.72.7-23.58zM202.57 164.04c2.19.26 4.38.48 6.58.64-2.45 2.62-4.97 5.2-6.99 8.18.35-2.92.61-5.87.41-8.82z"/></g><g fill="#333"><path d="M107.82 12.98c6.26-2.78 13.33-1.99 19.43.75 4.19 2.17 7.3 6.02 11.77 7.71 21.65 8.78 43.27 17.62 64.91 26.4 1.53.47 2.69 1.54 3.43 2.95-2.38-.41-4.68-1.16-6.88-2.12-20.28-8.4-40.71-16.43-60.94-24.95.36 2.62.38 5.27-.03 7.88-2.85.47-5.69 1.28-8.6 1.19-2.76-.45-5.39-1.46-8.02-2.36 4.64-.31 9.28.64 13.91-.08.35-1.92.65-3.84.98-5.76-.87-1.4-1.72-2.82-2.41-4.32-2.69-.91-4.78-4.69-7.76-3.82.8.68 2.38 2.04 3.18 2.73-2.17-.51-3.94-2.02-6.01-2.8 6.17.72 1.89-.97.55-1.69l-.54-.3c-.66-.06-2-.17-2.67-.23-1.32-.5-2.63-1.03-3.92-1.6 4.27 5.01 11.4 8.29 12.08 15.59 1.44-.28 2.87-.6 4.27-1.02-1-2.47-2.44-4.85-2.86-7.51 3.31 1.69 3.89 5.73 4.87 8.94-4.16 2.55-9.1.18-13.64.6-.17-.56-.52-1.67-.7-2.23 1.9.13 3.8.29 5.7.43-2.74-4.32-5.53-8.66-9.53-11.95-2 .6-4.12.85-6.02 1.74-1.47 3.1-2.78 6.42-1.98 9.9-.82-1.66-1.76-3.26-2.41-5 .28-2.04 1-3.98 1.51-5.96 2.81-1.83 6.25-2.15 9.11-3.84-3.63.04-7.45 3.16-10.78.73z"/><path d="M123.38 15.38c.27.27.27.27 0 0zM87.25 17.75c.42.43 1.25 1.3 1.67 1.73 1.35-.39 2.7-.78 4.06-1.17 2.64 2.55 5.55 4.97 7.34 8.24 1.5 2.52 1.19 5.58.96 8.37-.49 3.05-3.23 4.9-5.23 6.97 3.4 8.66 5.62 17.79 6.24 27.09 5.57.39 10.86 3.02 14.09 7.64 3.61 3.75.99 9.13-.6 13.18-.26.07-.78.2-1.04.26-2.21-3.53 2.32-8.48-.57-12.21-2.41-4.83-7.95-6.36-12.71-7.76.81 4.98 3.18 9.49 4.26 14.4.62 1.88.8 4.06 2.2 5.57 3.12 1.04 6.53.64 9.77.86 2.44-2.94 4.94-5.83 7.71-8.46-1.61-5.14-1.96-10.63-.35-15.82-6.22-9.35-2.45-21.1-5.41-31.28-3.13-2.47-7.25-3.78-9.28-7.48 3.81 1.43 7.27 3.59 10.91 5.36.96 2.88 2.38 5.72 2.3 8.83-.07 4.67-.77 9.36-.12 14.02.6 2.72 1.75 5.29 2.67 7.91.84-1.5 1.69-2.99 2.56-4.47.2.81.61 2.42.81 3.23-5.29 6.5-2.85 15.28-1.03 22.61 5.79.49 9.45 5.24 13.48 8.81 2.82 2.52 5.77 5.04 7.7 8.34 1.46 2.48 1.83 5.38 2.82 8.04 2.12 3.66 6.1 6.01 7.41 10.2-4.68-3.2-9.76-7.32-10.63-13.27-.78-2.86-2.72-5.17-4.34-7.58l-.28 2.87c-2.51-.79-5.04-1.55-7.32-2.87 2.58-.11 5.19.09 7.74-.43-2.6-1.94-5.38-3.61-8.22-5.18-.08-.9-.23-2.7-.31-3.6-.18 1.45-.29 2.92-.39 4.38-3.41 1.02-6.93 2.06-9.66 4.46-2.53 1.46-5 3.05-7.69 4.22 1.91-2.55 4.4-4.54 6.53-6.87-3.93-4.3-10.09-4.18-15.45-4.29-3.72-.22-2.65 4.62-3.66 6.99 4.86 1.44 9.44 3.69 13.58 6.63-1.17 2.86-1.93 5.89-3.28 8.68-.25-2.98.15-5.95.98-8.81-3.56.01-7.12.13-10.68.2l-1.98-3.6c.38-.75.77-1.49 1.16-2.23l-1.78-.24c.68-3.04 2.07-6.2 1.06-9.34-.9-3.27-1.48-6.63-2.39-9.9-.7-2.57-2.52-4.64-3.32-7.15-.89-5.96.57-12.12-1.16-17.98-1.33-4.46-2.37-9.01-3.1-13.61-3.98 2.4-8.13 4.72-12.69 5.78-4.08.54-7.71-1.96-11.21-3.65C50.09 72.7 28.46 100.78 7.1 129.06c-2.24 3.02-4.68 5.9-7.1 8.78v-2.88c23.66-31.04 47.19-62.18 70.94-93.16-.21-.52-.63-1.56-.84-2.07.61-4.3.9-9.1 4.12-12.39 3.06-3.09 6.47-6.2 10.71-7.51l3.12 1.44-.8-3.52m-2.09 5.66c-.62 5.4.63 10.71 2.44 15.77 3.56-3.18 7.34-6.32 12.06-7.57l.16-2.83c-2.75-2.6-5.37-5.34-7.98-8.09-2.22.93-4.45 1.82-6.68 2.72m-10.24 6.55c-1.63 2.79-1.8 6.11-2.67 9.17.28 1.57.44 3.17.56 4.76 2.38.77 4.75 1.54 7.1 2.4 4.32-1.11 8.51-2.7 12.43-4.85 1.89-2.25 4.1-4.2 6.18-6.28l-4.46.6c-.29.46-.87 1.39-1.16 1.85-3.92 3.15-8.95 8.77-14.28 4.9-.62-.25-1.85-.74-2.47-.99-1.31-2.26-1.48-4.9-1.53-7.45.39-3.75 3.55-6.41 6.38-8.5-.34 3.43-3.03 5.65-5 8.19.88 2.29 1.13 4.8 2.25 6.99 1.95 1.54 4.72.92 7.05 1.1-.7-6.31-3.13-12.34-3.08-18.74-2.52 2.18-5.32 4.13-7.3 6.85m45.7 61.14c.82.55 1.65 1.09 2.47 1.64 1.2-.89 2.4-1.77 3.63-2.63-.44 1.33-.84 2.69-1.17 4.06.63.82 1.25 1.64 1.87 2.47 2.51-1.32 5.05-2.55 7.68-3.6-.15-4.12-4.23-5.16-7.46-6.07-.42-.56-1.24-1.68-1.66-2.24-2.04 1.89-3.73 4.12-5.36 6.37z"/><path d="M129.77 34.28l2.63-.12c5.12 8.61 7.21 18.76 6.24 28.71 1.3 4.76 3.14 9.36 4.48 14.1.49 5.63-1.08 11.22-1.08 16.87-.75-.92-1.41-1.9-1.98-2.93.07-3.99 1.25-7.89 1.19-11.89-1.01-5.52-3.75-10.54-5.18-15.92.69-6.06 1.27-12.44-.97-18.27-1.72-3.54-3.76-6.93-5.33-10.55zM84.94 48.86c.68-.55 2.05-1.65 2.73-2.2-.14 3.86-2.27 7.39-2.01 11.27.22 3.35.27 6.71.61 10.05.79 2.09 2.29 3.85 2.93 6.01-.32 3.38-1.58 6.6-2.03 9.96.16 4.74 2.93 8.89 3.49 13.57 1.69 1.88 3.25 3.86 4.58 6-2.31-.54-3.87-2.31-5.3-4.07.25 4.37 1.06 9.12 4.22 12.4 5.31 5.48 9.39 12.92 17.22 15.14 4.05.67 8.48 1.06 11.6 4.06 2.86 2.8 5.65 5.71 8.21 8.8 1.36 1.38.73 3.5 1.03 5.21-3.76-3.96-6.33-9.08-10.87-12.28-5.71-3.75-13.09-3.36-18.67-7.37-3.23-2.48-5.71-5.99-6.82-9.92-2.27-1.44-4.94-2.85-5.84-5.58-1.52-3.45-1.57-7.26-1.62-10.95-.07-4.2-2.4-7.88-3.02-11.98-.22-3.69 1.08-7.33.69-11.02-.99-3.95-2.92-7.73-2.68-11.91.27-5.07.31-10.24 1.55-15.19zM134.01 84.8c-2.85-4.97-3.39-11.63-.65-16.77.49 1.36.63 2.79.48 4.22-.4 4.2.97 8.36.17 12.55z"/><path d="M93.95 76.88c1.09-1.65.42-6.35 3.17-5.6.42 3.11-.55 6.52 1.34 9.28 1.48 2.79 3.12 6.52.99 9.42-1.08-4.66-2.73-9.16-5.5-13.1zM71.01 98.08c2.74-4.63 8.29-5.93 12.64-8.51.32.13.95.38 1.26.51.06.31.18.94.25 1.25-4.39 2.61-9.3 4.43-12.97 8.12-.68 5.19 4.25 7.87 7.54 10.83 13.07 10.27 25.92 20.81 39.08 30.96 6.74 4.2 13.67 8.71 17.76 15.76-4.05-2.72-7.66-6.01-11.65-8.79-4.36 1.63-8.29 4.23-12.46 6.3-9.83 5.38-19.83 10.45-29.67 15.81-2.41-1.84-5.39-3.22-7.12-5.75-.35-2.77-2.01-6.39-.01-8.78 5.02-3.5 10.79-5.79 15.76-9.37.54-8.03.29-16.12.42-24.17-5.74-4.64-11.46-9.29-17.24-13.87-3.66-2.01-5.13-6.47-3.59-10.3m23.21 25.95c-.08 7.86-.43 15.73-.7 23.58-5.12 3.64-10.92 6.27-16.36 9.42.06 2.25-.1 4.55.38 6.77 1.56 1.56 3.35 2.97 5.38 3.88 13.24-6.75 26.33-13.82 39.47-20.76-3.63-3.26-7.44-6.32-11.24-9.37-2.66 1.3-5.3 2.88-8.34 3.01 1.57-1.95 3.78-3.19 5.96-4.34-5-3.87-10.21-7.55-14.55-12.19z"/><path d="M98.81 95.71l1.56-.56c.33 4.55.05 9.16 1.14 13.63-.61.32-1.22.64-1.82.97-.96-4.63-.79-9.35-.88-14.04zM133.26 100.42c3.94 1.56 8.97 2.93 10.18 7.6.97 4.1 4.44 7.52 3.84 11.92-2.5-3.78-5.19-7.61-6.39-12.05-1.08-3.8-6.27-3.84-7.63-7.47zM130.3 102.76c.26 2.18-.65 4.24-1.44 6.22-.12 1.16-.22 2.32-.34 3.48.59.94 1.16 1.88 1.72 2.84-1.57-.61-3.11-1.27-4.64-1.95.7-3.86 2.43-7.42 4.7-10.59zM105.54 110.27c4.4 1.37 7.76 4.65 11.78 6.76.42 2.41.64 4.85.61 7.3-2.05-2.67-3.57-5.77-6.06-8.09-2.11-1.99-4.39-3.8-6.33-5.97zM129.34 115.32c2.01.78 3.95 1.71 5.89 2.66-.55.57-1.12 1.12-1.7 1.65-1.82-.95-3.18-2.56-4.19-4.31zM147.22 120.07c.89.29 1.79.59 2.68.89.79 1.19 1.61 2.36 2.41 3.55 3-1.61 6.19-2.92 9.53-3.64 2.81.91 5.57 1.99 8.34 3.01 2.27.76 2.29 3.46 2.66 5.4 4.72.65 9.35 1.81 14.07 2.5 3.91 1.01 9.34 1.28 10.58 6.01 2.39-.93 5.9-2.22 7.17 1.02 5.63 2.66 11.79 4.72 16.15 9.39 3.06 3.39 8.11 5.77 8.49 10.84.16 4.96-4.19 8.27-6.11 12.48-4.95 5.72-8.34 12.65-14.09 17.7 3.6 1.09 5.28 4.5 7.35 7.29 1.81 2.63 5.17 3.38 7.4 5.54 1.72 1.62.3 4.08.1 6.03-.39 2.86-3.96 3.16-6.05 4.37-4.09-2.04-9.06-3.69-11.49-7.82 3.46 1.24 6.65 3.08 9.71 5.1 1.53-.41 3.08-.74 4.57-1.29.62-1.65.86-3.42 1.27-5.13-3.32-1.88-6.75-3.94-8.59-7.42-1.44-2.79-3.49-5.19-6.18-6.84 3.3-4.98 7.76-9.1 10.49-14.47 3.25-4.01 6.17-8.25 8.65-12.77 1-2.45.3-5.51-1.79-7.19-3.29-2.75-6.01-6.17-9.58-8.58-4.62-2.49-9.51-4.46-14.21-6.8-7.47 3.14-8.73 12.01-8.72 19.15.49-.48 1.45-1.44 1.93-1.92l-.76 2.92c5.82 1.7 11.79 3.84 17.95 2.95 2.89.78 5.43 2.71 8.42 3.38-2.32 2.26-5.09.51-7.53-.55-2.14 2.76-4.59 5.24-6.85 7.89-2.27 2.63-.89 6.51-2.62 9.41-1.53 2.85-2.38 6.1-4.46 8.63-1.45 1.83-4.06 1.52-6.1 2.07 6.14-4.7 9.68-12.13 10.06-19.81-2.78 2.88-6.18 5.01-9.48 7.21-3.67 2.63-8.26 3.39-12.08 5.73.42 5.8 1.32 11.65.06 17.41 4.74-2.49 9.4-5.15 14.21-7.53 2.14 1.65 4.32 3.23 6.52 4.8.62 3.46.98 6.96 1.16 10.47-11.02 6.79-22.66 12.52-33.79 19.13-1.46.49-2.96 2.41-4.51 1.28-.06-.26-.18-.79-.24-1.06 12.13-6.84 24.5-13.28 36.46-20.41-.2-2.39-.2-4.81-.77-7.15-1.56-1.7-3.43-3.16-5.52-4.15-4.8 1.79-9.07 4.74-13.67 6.97.33 2.46.73 4.91 1.09 7.36-.54.14-1.64.41-2.18.54-1.9-9.13.23-18.36.43-27.51-.57.08-1.71.25-2.28.33-.48 1.53-1 3.04-1.52 4.56.19.38.55 1.15.73 1.53-.76.47-1.57.81-2.44 1.04-2.04 4.13-2.83 8.69-4.43 12.96-.3.14-.91.44-1.21.58-.84 2.32-1.69 4.64-2.27 7.04 1.3-2.01 2.26-4.21 3.34-6.35.49 1.43.58 2.95.84 4.43-2.04 1.55-4.45 2.84-5.92 4.98-1.68 4.95-3.84 10.42-1.72 15.57 2.35 3.52 3.72 7.56 5.59 11.33 2.21 4.04 7.78 4.3 9.77 8.51-3.44-1.4-7.08-2.72-9.77-5.37-5.08-4.66-6.95-11.61-8.88-17.98-1.81-5.94 2.36-11.18 4.43-16.41 2.9-5.75 3.49-12.51 7.42-17.75 1.7-2.72 4.52-5.97 2.78-9.34-2.22-4.98-3.59-10.27-4.81-15.55-1.41-3.01-3.92-5.96-7.42-6.35-5.88.57-11.27 5.21-12.89 10.8 1.24 3.18 3.51 5.79 5.62 8.42 2.47 3.06 4.01 6.72 5.81 10.18-.57.03-1.7.07-2.26.1-4.16 4.96-6.71 11.08-8.12 17.35-.57 5.63-.06 11.42-1.82 16.89-1.03 5.18-3.57 9.91-4.6 15.08-.3 1.65 1.69 2.43 2.76 3.29 3.29 1.72 6.48 4.34 10.3 4.51-1.95-5.32-2.97-10.93-3.56-16.55 2.65 1.7 2.65 5.06 3.43 7.79.63 3.33 1.75 6.83.7 10.19-.2 4.21 5.27 5.88 8.76 6.08 5.09 1.22 9.75-1.78 13.4-4.98-2.14 7.03-10.84 9.87-17.33 7.68-4.98-2.13-8.21-6.63-12.21-10.06-2.83-2.17-7.21-3.1-8.28-6.95-.4-3.61 1.76-6.81 2.9-10.09 3.24-7.38 2.01-15.62 3.03-23.39 1.41-5.6 3.73-11.06 7.21-15.7.83-1.2 1.69-2.41 2.16-3.81-1.4-5.63-6.51-9.26-8.5-14.63-.75 1.22-1.48 2.45-2.34 3.6-.79-3.39 1.45-6.29 2.99-9.08 2.76-4.68 7.13-8.89 12.68-9.75 2.16-.51 4 .88 5.84 1.78-1.72-3.48-1.57-7.54.48-10.86 2.35-3.36.75-7.49 1.63-11.24.52.71 1.79 1.09 1.56 2.2.18 2.75.56 5.58-.36 8.24-.41.99-.25 1.92.47 2.79-.45-.25-1.37-.73-1.82-.98.06.84.18 2.51.25 3.34 1.22.12 2.45-.05 3.67-.09-1.36 1.16-2.83 2.24-3.92 3.68-.17 2.26-.14 4.54-.39 6.81 3.43 4.43 4.09 10.1 5.73 15.28.23 1.75 2.04 2.22 3.3 3.06.23-.58.7-1.75.93-2.33 6.62-.84 12.78-3.79 18.25-7.5 3.09-2.04 3.18-5.98 3.36-9.29-.62-.81-1.23-1.62-1.84-2.44-2.41-1.08-6.06-1.59-6.42-4.85-.36.43-1.09 1.27-1.45 1.7-4.07-.58-8.18-.75-12.24-1.4-2.15-.85-3.75-2.62-5.63-3.9 2.12-5.35 7.87-9.47 13.71-9.37-3.65 3.42-8.93 4.57-11.91 8.83 4.18 3.32 9.54 3.29 14.6 3.09.6-7.01 2.02-14.4 7.19-19.59-7.85-4.29-16.65-6.01-25.36-7.44-.61-1.8-.89-3.69-1.64-5.42-3.83-1.05-7.99-2.25-11.89-.84-9.42 3-18.49 9.74-21.3 19.6 1.01 3.69 3.26 7.08 4.85 10.61-2.32 6.59 1.42 13.24 3.58 19.39-1.67-1.24-3.74-2.36-4.2-4.57-1.15-4.8-3.01-9.7-2.14-14.7-.41-.46-1.21-1.37-1.62-1.82-.11-3.07-1.67-5.71-3.26-8.23 2.03-3.59 3.3-7.67 6.08-10.79 3.16-3.72 7.4-6.26 11.48-8.84-.95-2.02-2.56-3.56-4.18-5.02m55.35 43.97c.2 2.95-.06 5.9-.41 8.82 2.02-2.98 4.54-5.56 6.99-8.18-2.2-.16-4.39-.38-6.58-.64zM126.39 121.05c4.69-.22 9.5 1.09 12.97 4.35 1.11 1.6 1.42 3.58 1.55 5.48-1.79.68-2.53-1.21-3.51-2.27-2.68-3.76-7.37-5.01-11.01-7.56z"/><path d="M145.71 136.33c4.49-5.35 11.29-10.2 18.6-9.08-4.2 1.21-8.71 2.12-12.13 5.03-2.44 2.12-4.5 4.62-6.74 6.93.33 1.75.66 3.5.98 5.26-1.06 1.37-2.1 2.75-3.15 4.13.18-2.24.66-4.44.96-6.66-.94.45-1.85.94-2.75 1.43.94-2.12 1.8-4.27 2.53-6.47l1.7-.57z"/><path d="M154.21 138.52c1.97-5.07 7.27-9.08 12.85-8.55-4.88 1.93-8.85 5.27-12.85 8.55zM152.38 144.29c3.12-6.34 10.43-8.5 16.59-10.72-.97 1.73-1.94 3.74-4.07 4.21-4.51 1.51-8.44 4.16-12.52 6.51zM161.57 147.34c1.6-1.22 3.7-1.42 5.63-1.69-1.34 1.45-2.94 2.61-4.61 3.64.14.7.43 2.09.57 2.79-.76.01-2.28.05-3.03.06.4-1.62.77-3.26 1.44-4.8zM201.87 152.91c2.28 1.09 4.1 2.86 5.22 5.13-2.96-.04-4.01-2.97-5.22-5.13zM210.89 153.07c2.87 1.75 5 4.53 8.03 6.03 1.87.05 3.74-.19 5.6-.37-.07.91-.14 1.83-.2 2.75-2.23.11-4.63.8-6.74-.18-3.11-1.86-5.35-4.9-6.69-8.23zM206.81 180.1c2.09-1.5 3.34-4.64 6.15-4.82-1.11 2.33-2.88 4.25-4.64 6.11l-1.82-.04c.08-.31.23-.94.31-1.25zM165.18 189.58c.84-2.19 1.99-4.25 3.55-6.01-.17 2.44-.44 5.7-3.55 6.01z"/></g></svg>