<svg width="263pt" height="275pt" viewBox="0 0 263 275" xmlns="http://www.w3.org/2000/svg"><g fill="#FFF"><path d="M0 0h263v275H0V0m154.82 71c-.59 4.24 1.62 9.62 6.32 10.24 2.32.05 5.56-.39 6.23-3.07-2.73.18-5.95 1.97-8.37-.08-2.51-3.11-2.12-7.56-.59-11.03 2.33-6.68 8.28-12.74 15.67-13.01 2.76.59 3.51 3.56 4.41 5.82-1.14 2.26-1.14 4.69 1.73 5.49.22-2.71.95-5.62-.24-8.21-1.35-3.44-5.41-6.05-9.11-4.96-8.61 2.07-14.86 10.24-16.05 18.81m11.28 2.89c1.87 2.98 4.19 6.58 1.97 10.07-4.02 4.41-9.72 7.06-13.05 12.19-5.88-2.42-12.47-3.49-17.57-7.54-4.13-3.25-9.44-3.89-14.5-4.4-5.83.64-11.5 2.22-17.13 3.76-3.54.99-5.58 4.2-8.46 6.18-3.97 1.58-6.46-2.31-9.22-4.4-3.71-2.88-2.32-8.34-.15-11.75 1.76-2.26 3.11-5.46 6.24-6-.29-.95-.62-1.89-1-2.8-3.47 2.6-6.47 5.9-8.24 9.88-1.56 3.71-.81 7.9.26 11.64.68.1 2.02.29 2.7.39-.2.5-.61 1.49-.81 1.99.61 1.73 1.22 3.46 1.92 5.16.37-1.77.39-3.54.07-5.31 1.44 1.49 3.18 2.63 5.14 3.33-2.33.81-4.87 1.5-6.68 3.27-2.59 2.8-3.09 6.77-4.89 10.01-5.7 3.37-10 9.14-11.04 15.74-2.51-.36-5.02-.77-7.56-.76-.21.64-.61 1.93-.82 2.57 5.32-.64 10.18 1.43 14.75 3.85-1.03-2.53-2.97-4.44-5.57-5.28 2.62-3.33 3.77-7.56 6.67-10.7 1.68-2.48 4.7-3.27 7.37-4.2-.5-4.04 1.02-8.61 4.56-10.88 2.48-1.26 5.38-1.4 7.81-2.78 3.23-2.16 4.83-6.4 8.79-7.51 3.79-1.06 7.71-1.6 11.43-2.91 3.59-1.43 7.39.18 11 .68 4.02.84 6.59 4.43 10.29 5.91 4.14 1.1 6.36 5.12 8.84 8.27.99 4.28 1.26 9.23 4.86 12.32 3.12 2.45 4.9 6.06 6.73 9.47-2.02-.01-4.04-.01-6.06.03-.4.45-1.2 1.35-1.6 1.79-4.87 1.01-8.74 4.48-12.26 7.79-3.41 3.13-4.6 7.76-7.02 11.57 1.54 2.6 3.25 5.22 3.21 8.37.57.63 1.14 1.26 1.71 1.9-.38 2.5-.31 5.03-.08 7.54-10.23-11.62-19.44-24.51-32.01-33.77.42 4.76 5.11 7.42 7.56 11.1-.83-.29-2.49-.88-3.32-1.17l1.52 1.07c-.29 5.53 1.25 10.9 1.51 16.39.43 3.75 1.15 7.47 2.01 11.13.48.16 1.45.49 1.94.65 2.74-1.47 5.52-2.94 8.02-4.8 1.11-.97 2.77-2.06 1.83-3.73-3.55 1.88-6.86 4.17-10.18 6.43-1.72-8.07-1.45-16.43-4.01-24.32.38-.58.77-1.14 1.16-1.7 3.53 4.23 8.17 7.43 11.41 11.92 3.78 5.27 8.24 10.01 12.85 14.56 1.95 2.82 2.7 6.67 6.41 7.79-1.15-2.2-2.45-4.37-3.08-6.8-.96-4.01-2.88-8.31-.86-12.34-1.73-3.19-3.09-6.57-4.9-9.72 1.71-9.83 10.69-16.58 19.5-20.08 4.6-1.89 9.66-1 14.26.37.54 1.89-.26 5.09 2.2 5.7 8.07.92 16.08 2.86 23.35 6.58.04.43.14 1.29.19 1.72a63.56 63.56 0 00-2.52 3.12c-1.5-2.15-3.79-3.94-6.52-3.92-6.71 2.13-12.81 5.88-18.11 10.46-2.88 3.27-3.88 8.01-3.52 12.26-6.71-.89-12.64 3.71-15.89 9.19-1.67 2.97-4.19 6.07-3.17 9.7.7-1.31 1.33-2.67 1.96-4.01 2.09 5.44 7.31 9.13 8.7 14.86-.6 2.21-2.2 3.94-3.42 5.82-6.25-4.65-12.72-9.03-19.58-12.74-3.36-2.08-7.13-3.55-10.06-6.26-.61.38-1.22.77-1.83 1.16 9.07 7.93 20.2 12.88 30.58 18.83-1.6 2.59-2.58 5.48-3.62 8.33-11.92-9.3-25.75-15.75-39.03-22.82.78 1.04 1.52 2.18 2.68 2.83 6.4 4.12 13.24 7.53 19.5 11.87 5.32 3.28 10.37 7 15.84 10.04-1.56 8.27.13 17.05-3.07 25.03-1.19 3.62-3.61 7.07-3.26 11.01 1.27 4.06 6.01 4.76 8.84 7.33 3.69 3.43 6.96 7.56 11.71 9.63 6.41 2.06 15.13-.65 17.11-7.69-3.12 2.81-6.99 5.73-11.45 5.21-4.21-.15-9.35-1.22-11.05-5.63 2-3.54.14-7.74-.42-11.46-.81-2.37-.53-5.75-3.26-6.88.79 5.48 1.69 11 3.59 16.22-4.35-.15-8.26-3.37-11.94-5.6-2.31-1.23-.72-3.95-.28-5.8 2.04-5.29 3.76-10.72 4.76-16.31.66-4 .13-8.09.71-12.09 1.55-6.26 4.01-12.44 8.23-17.4.56.02 1.67.07 2.23.1-2.14-4.41-4.3-8.88-7.65-12.52-1.47-2.18-3.79-4.37-3.69-7.15 2.38-5.03 7.11-9.46 12.87-9.86 3.58.38 5.96 3.49 7.54 6.44 1.17 3.16.21 6.74 1.63 9.85.89 2.88 3.05 5.41 3.05 8.53.27 2.77-1.9 4.84-3.19 7.06-3.45 4.88-4.08 11.01-6.63 16.31-1.78 4.88-5.39 9.29-5.25 14.7.83 5.38 2.96 10.48 5.27 15.37 2.74 5.36 8.14 8.45 13.58 10.49-1.38-3.68-5.81-4.08-8.25-6.75-2.67-2.45-2.7-6.39-4.61-9.33 7.94-6.36 16.25-12.25 24.7-17.91 5.18-3.02 10.14-6.45 14.63-10.43.28-.76.84-2.3 1.12-3.06 3.99 2.47 7.87 5.23 12.27 6.95 1.87-.83 3.88-1.49 5.5-2.79.69-2 1.15-4.11 1.26-6.23-1.52-3.24-5.71-3.55-7.79-6.28-2.36-2.88-3.96-6.82-7.93-7.83 3.27-3.27 6.55-6.61 8.83-10.68 1.69-3.19 4.69-5.43 6.33-8.65 1.77-3.69 5.5-6.54 5.21-11.04-.8-5.42-6.25-7.9-9.57-11.63-4.75-5.09-12.33-5.75-17.27-10.51-1.75-.52-3.33.68-4.78 1.45-1.03-1.76-1.76-4.08-4.01-4.58-6.85-2.08-13.98-3.25-21.05-4.2.01-2.1-.31-4.64-2.46-5.66-2.33-.3-4.7-.15-7.03-.41-1.69-5.32-5.66-9.22-9.45-13.1 4.62-1.24 10.59 2.91 14.11-1.51 2.85-4.48 4.91-9.52 8.71-13.36 3.65.53 7.47-.1 10.5-2.3 6.24-4.46 10.17-12.27 9.56-19.97-.51-3.66-3.05-6.92-6.55-8.16-3.44-.68-6.69 1.02-9.55 2.7-.91-.54-1.81-1.09-2.7-1.66-5.23-2.21-11.39 2.7-11.67 7.89m-68.18-3.66c5.17.21 9.87 2.81 13.9 5.87 2.71 2.35 2.03 6.37 2.73 9.52l2.12-2.16c-.84-3.44-1.55-7.3-4.26-9.83-5.13-4-11.97-6.56-18.46-4.58 1.2.73 2.55 1.18 3.97 1.18m6.38 15.94l2.16-.96c1.28-2.81 2.47-5.67 3.6-8.55-3.54 1.81-4.74 5.96-5.76 9.51m13.58 12.51c3.87.2 7-2.46 10.41-3.85-3.95-.99-7.41 1.65-10.41 3.85m18.14-1.8c.1.69.31 2.09.41 2.78l-3.02-1.14c2.22 2.17 4.5 4.35 6.14 7.02 1.44 2.94 1.5 6.56 3.96 8.96 1.53 1.45 2.18 4.1 4.46 4.53.44-4.01-4.07-5.91-4.48-9.67-.89-3.98-3.4-7.57-6.96-9.58.58-.41 1.17-.82 1.77-1.22 2.6.83 5.18 1.76 7.81 2.54-1.85-3.83-6.19-4.91-10.09-4.22M18.81 110.79c-1.71 4.11-2.87 8.95-.84 13.18 1.25 3.5 5.36 5.78 8.94 4.44 3.45-.53 6.03-3.55 9.61-3.41-1.13-1.92-2.39-3.77-3.81-5.49 1.66-1.62 3.36-3.21 5-4.85 2.53-.34 5.14-.34 7.49-1.47-4.97-3.98-11.35-.69-14.6 3.74-.11.84-.33 2.51-.43 3.34.95.72 1.91 1.45 2.87 2.17-2.65 1.88-5.51 4.55-9.01 4-3.51-.54-4.33-4.53-4.54-7.47.94-8.09 5.86-16.04 13.55-19.27 2.32-.68 5.12-1.73 7.3-.11 2.74 2.46 2.96 6.45 1.78 9.75 1.03.53 2.06 1.06 3.09 1.58.25-3.1.97-6.47-.6-9.36-1.7-3.89-6.49-6.12-10.55-4.75-6.96 1.85-12.4 7.52-15.25 13.98m109.43-6.48c-3.97 1.73-3.9 6.74-3.92 10.41 1.76 1.62 3.9 2.72 5.92 3.98-1.87.66-3.89 1.15-5.35 2.6 2.48.28 5.34-.52 7.5 1.12 3.06 2.26 5.79 4.96 9.03 7-1.06-4.71-5.72-7.59-9.49-10.15-.31-2.38-3-5.38-5.55-3.9.25-2.15.17-4.31.04-6.45 2.06-3.17 3.94-6.45 5.49-9.89-.72.02-2.18.07-2.9.09-2.65.31-1.2 3.62-.77 5.19m-29.21-.68c-3.89.92-7.69 2.71-10.52 5.59 4.18-.59 7.27-4.12 11.53-4.22 2.96-.31 5.02-2.97 7.95-3.42 2.75-.15 5.5.12 8.26.11-.2-.41-.6-1.23-.8-1.63-2.8-.6-5.73-.55-8.56-.22-2.88.71-4.93 3.21-7.86 3.79m16.93 7.02l.12-3.46c.67-.82 1.32-1.64 1.98-2.47-3.24-.98-5.94 4.86-2.1 5.93m-20.09 13.32c-1.57 2.28-3.34 4.58-5.89 5.82-5.11 2.59-9.18 6.69-13.62 10.22-4.36.08-8.85 1.21-13.15.04-2.46-.59-5.26-2.7-7.33-.15 5.22 3.06 11.42 4.83 17.39 2.95l2.92.76c5.15-3.22 8.88-8.37 14.56-10.76 4.16-2.06 7.07-5.9 9.59-9.68.74.66 1.51 1.28 2.2 2-1.25 6.24-.04 12.57-.01 18.85.68 8.95 1.6 17.9 2.07 26.86-8.11 4.32-16.41 8.27-24.31 12.96.23 2.88.07 5.78.47 8.65 1.72 3.03 4.78 4.99 7.92 6.34 6.97-4.3 15.06-7.38 20.4-13.83-3.82.67-6.67 3.4-9.98 5.18-3.21 1.74-6.3 3.7-9.51 5.44-1.78 1.08-3.27-1.03-4.66-1.84-2.94-1.8-2.18-5.74-2.7-8.64 8.03-3.57 15.55-8.19 23.24-12.43 1.65-.55 1.8-2.36 1.59-3.84-.85-7.94-1.83-15.87-2.7-23.81-.13-6.37-.75-12.71-1.2-19.06 4.85 1.9 9.62 4.35 14.85 5.03 5.61 3.66 9.35 9.29 14.32 13.67-.49-6.9-5.64-13.12-11.8-16.06-6.93-1.93-13.71-4.33-20.11-7.64.51-3.7 2.54-7.41 1.1-11.14-2.67 4.37-2.95 9.76-5.65 14.11m9.69-13.22l-.44 1.55c3.06-.2 6.02.59 8.77 1.89.11.8.33 2.38.44 3.17 1.25-.78 2.49-1.58 3.74-2.37-3.33-3.28-7.98-4.27-12.51-4.24m-56.26.92c-7.42 3.09-12.13 10.64-13.77 18.27-.94 4.83.04 11.11 4.75 13.67 4.02 2.48 8.88.56 12.49-1.77 7.26-5.3 12.02-14.78 10.1-23.79-1.36-5.78-8.18-9.43-13.57-6.38m32.06 14.67c2.32-.84 3.84-2.8 5.59-4.41 2.35-2.25 5.03-4.14 7.29-6.48-5.96.61-10.08 6.07-12.88 10.89m36.82-10.86c-1.3 2.61-1.29 6.95 2.31 7.44-.64-2.52-1.19-5.08-2.31-7.44m30.59 17.5c5.27-1.67 9.98-4.79 15.5-5.79-5.78-.92-11.12 2.41-15.5 5.79m6.53 3.01c3.78-2.27 7.81-4.05 11.76-6-4.81-.6-8.75 2.68-11.76 6m-2.78 8.19c4.22-2.54 8.41-5.19 13.12-6.76 1.84-.5 2.38-2.46 3.18-3.95-5.57 3.25-13.39 4.22-16.3 10.71m-9.44 4.21c2.02-1.51 3.92-4.03 2.23-6.55-1.07 2.06-1.93 4.23-2.23 6.55m-23.49 28.72c1.35.07 2.69.11 4.04.12 3.27-2.29 6.88-4.07 10.07-6.46.23-.73.69-2.21.92-2.95-4.99 3.12-10.61 5.34-15.03 9.29m45.73 12.31c2.94-.12 3.13-3.4 3.42-5.61-1.72 1.46-2.62 3.56-3.42 5.61z"/><path d="M181.05 70.15c2.51-2.15 5.81-2.9 8.96-3.55 2.12 2.24 5.15 4.99 4.04 8.42-1.41 5.09-2.27 10.78-6.45 14.46-2.76 2.68-7.39 5.69-11.11 3.19-3.06-2.02-3.96-6.19-2.87-9.53 1.32-4.84 3.33-9.83 7.43-12.99z"/><path d="M167.66 72.2c1.69-1.95 3.71-3.94 6.27-4.61 1.59.55 3.11 1.3 4.59 2.1-6.66 5.77-10.4 17.43-3.81 24.62-2.92 3.4-5.34 7.19-7.32 11.22-.81 1.11-1.56 3.28-3.31 2.7-3.61-.83-7.27-.28-10.8.65-.48-2.44-.68-4.93-1.21-7.36-.94-2.15-2.8-3.71-4.26-5.51 5.3-.72 7.74 4.6 10.76 7.86.63-.49 1.26-.98 1.89-1.48-1.3-1.9-2.61-3.8-4.06-5.59 3.62-4.6 8.98-7.27 12.94-11.48 1.28-2.55 1.65-5.53 2.18-8.31-1.22-1.65-2.74-3.07-3.86-4.81zM37.31 133.98c.94-9.79 7.62-20.89 18.51-21.16 2.55 1.17 3.66 3.99 5.17 6.17-1.45 7.66-3.11 16.29-10.01 21.01-2.69 1.38-5.93 3.59-9 2.02-3.03-1.44-4.7-4.76-4.67-8.04zM193.67 146.41c1.19-3.19 3.95-6.04 7.26-6.99 3.97 1.54 7.74 3.54 11.61 5.31 4.89 2 7.96 6.53 11.95 9.77 2.69 2.04 3.07 6.3 1.02 8.91-2.02 2.72-3.27 5.96-5.67 8.4-2.95 3.21-4.45 7.47-7.45 10.65-1.93 2.03-3.63 4.26-5.15 6.61 4.96 2.36 5.88 8.44 10.26 11.42 1.43.98 2.96 1.82 4.45 2.72-.38 1.77-.52 3.61-1.19 5.3-1.53.53-3.12.86-4.68 1.25-3.48-2.19-6.96-4.53-10.98-5.58.48-1.22.96-2.42 1.45-3.62-1.86-1.5-3.99-2.76-6.38-3.14-2.64-.59-5.6.45-7.94-1.25 2.55-2.72 6.3-4.51 7.73-8.14.93-2.09 1.86-4.18 2.87-6.22 1.41-2.75.02-6.37 2.3-8.77 2.33-2.64 4.76-5.2 6.92-7.99 1.7.76 3.41 1.52 5.12 2.28.71-.63 1.42-1.26 2.12-1.9-2.73-.41-5.21-1.64-7.46-3.21-6.26 1.3-12.4-.95-18.32-2.73-.06-4.36-.19-8.73.16-13.08m8.3 6.64c1.23 1.97 2.12 5.09 5.01 4.8-1.1-2.12-2.82-3.82-5.01-4.8m9.1.09c1.07 3.38 3.56 6.18 6.48 8.12 2.13.94 4.53.28 6.76.14.05-.9.1-1.8.16-2.7-1.85.26-3.7.57-5.57.53-2.93-1.59-5.08-4.24-7.83-6.09m.41 22.03c-1.76 2.18-3.77 4.12-5.51 6.31 3.32-.16 5.06-3.23 6.93-5.56-.36-.18-1.06-.56-1.42-.75zM170.96 149.89c4.82-3.7 10.24-6.8 16.07-8.6 4.35-.59 4.26 4.59 4.35 7.59-.46 4.02.13 8.67-2.24 12.15-5.53 3.74-10.94 7.67-16.26 11.7-1.23-2.16-2.57-4.25-4.15-6.16 1.93-2.97 4.43-5.66 5.49-9.1.85-2.6 2.35-5.06 4.64-6.62 2.59-1.73 5.79-2.57 7.89-5-4.9-.06-9.39 2.86-12.38 6.56-2.9 3.24-1.58 8.45-5.35 11.12-.48-.66-1.45-1.99-1.94-2.66.79-3.78 1.56-7.81 3.88-10.98z"/><path d="M189.2 164.28c1.35-.78 2.29-2.05 3.29-3.21 5.33 2.23 11.11 3.29 16.86 3.52-2.53 2.99-6.18 5.45-7.34 9.35-.51 6.86-3.28 13.96-8.97 18.14-1.91 1.32-2.12 3.72-2.44 5.82l3.82-.28c-3.67 2.99-7.8 5.39-12.17 7.21-2.68-3.04-4.91-6.43-6.95-9.92.38-.71.79-1.4 1.23-2.08.22-2.45 1.13-5.09-.2-7.4-1.8-3.48-2.56-7.33-2.67-11.24 5.1-3.43 10.35-6.61 15.54-9.91z"/><path d="M170.21 204.81c1.05-2.77 1.94-5.6 3.3-8.24 2.61 3.42 4.7 7.2 7.19 10.71 2.87 1.26 5.08 3.83 8.25 4.42-1.2-2.09-2.95-3.75-4.82-5.24 4.1-2.21 7.98-4.79 11.97-7.18 1.99-.1 4.5.01 5.91 1.65.56 2.09.8 4.26 1.24 6.38-1.51.68-3 1.43-4.32 2.46-5.99 4.47-12.38 8.35-18.51 12.62-5.68 3.98-11.85 7.47-16.42 12.8-1.13-3.37-3.31-7.2-1.49-10.7 2.43-2.7 5.36-4.88 8-7.36-1.42-1.18-2.83-2.36-4.22-3.56 1.03-2.45 1.89-4.97 2.69-7.5 1.91 3.16 4.06 6.17 6.55 8.9.48-.79.96-1.57 1.44-2.35-2.3-2.56-4.47-5.24-6.76-7.81z"/><path d="M165.19 215.91c.57.51 1.15 1.02 1.72 1.54-1.03.92-2.07 1.84-3.11 2.75.44-1.45.91-2.87 1.39-4.29z"/></g><g fill="#333"><path d="M154.82 71c1.19-8.57 7.44-16.74 16.05-18.81 3.7-1.09 7.76 1.52 9.11 4.96 1.19 2.59.46 5.5.24 8.21-2.87-.8-2.87-3.23-1.73-5.49-.9-2.26-1.65-5.23-4.41-5.82-7.39.27-13.34 6.33-15.67 13.01-1.53 3.47-1.92 7.92.59 11.03 2.42 2.05 5.64.26 8.37.08-.67 2.68-3.91 3.12-6.23 3.07-4.7-.62-6.91-6-6.32-10.24z"/><path d="M166.1 73.89c.28-5.19 6.44-10.1 11.67-7.89.89.57 1.79 1.12 2.7 1.66 2.86-1.68 6.11-3.38 9.55-2.7 3.5 1.24 6.04 4.5 6.55 8.16.61 7.7-3.32 15.51-9.56 19.97-3.03 2.2-6.85 2.83-10.5 2.3-3.8 3.84-5.86 8.88-8.71 13.36-3.52 4.42-9.49.27-14.11 1.51 3.79 3.88 7.76 7.78 9.45 13.1 2.33.26 4.7.11 7.03.41 2.15 1.02 2.47 3.56 2.46 5.66 7.07.95 14.2 2.12 21.05 4.2 2.25.5 2.98 2.82 4.01 4.58 1.45-.77 3.03-1.97 4.78-1.45 4.94 4.76 12.52 5.42 17.27 10.51 3.32 3.73 8.77 6.21 9.57 11.63.29 4.5-3.44 7.35-5.21 11.04-1.64 3.22-4.64 5.46-6.33 8.65-2.28 4.07-5.56 7.41-8.83 10.68 3.97 1.01 5.57 4.95 7.93 7.83 2.08 2.73 6.27 3.04 7.79 6.28-.11 2.12-.57 4.23-1.26 6.23-1.62 1.3-3.63 1.96-5.5 2.79-4.4-1.72-8.28-4.48-12.27-6.95-.28.76-.84 2.3-1.12 3.06-4.49 3.98-9.45 7.41-14.63 10.43-8.45 5.66-16.76 11.55-24.7 17.91 1.91 2.94 1.94 6.88 4.61 9.33 2.44 2.67 6.87 3.07 8.25 6.75-5.44-2.04-10.84-5.13-13.58-10.49-2.31-4.89-4.44-9.99-5.27-15.37-.14-5.41 3.47-9.82 5.25-14.7 2.55-5.3 3.18-11.43 6.63-16.31 1.29-2.22 3.46-4.29 3.19-7.06 0-3.12-2.16-5.65-3.05-8.53-1.42-3.11-.46-6.69-1.63-9.85-1.58-2.95-3.96-6.06-7.54-6.44-5.76.4-10.49 4.83-12.87 9.86-.1 2.78 2.22 4.97 3.69 7.15 3.35 3.64 5.51 8.11 7.65 12.52-.56-.03-1.67-.08-2.23-.1-4.22 4.96-6.68 11.14-8.23 17.4-.58 4-.05 8.09-.71 12.09-1 5.59-2.72 11.02-4.76 16.31-.44 1.85-2.03 4.57.28 5.8 3.68 2.23 7.59 5.45 11.94 5.6-1.9-5.22-2.8-10.74-3.59-16.22 2.73 1.13 2.45 4.51 3.26 6.88.56 3.72 2.42 7.92.42 11.46 1.7 4.41 6.84 5.48 11.05 5.63 4.46.52 8.33-2.4 11.45-5.21-1.98 7.04-10.7 9.75-17.11 7.69-4.75-2.07-8.02-6.2-11.71-9.63-2.83-2.57-7.57-3.27-8.84-7.33-.35-3.94 2.07-7.39 3.26-11.01 3.2-7.98 1.51-16.76 3.07-25.03-5.47-3.04-10.52-6.76-15.84-10.04-6.26-4.34-13.1-7.75-19.5-11.87-1.16-.65-1.9-1.79-2.68-2.83 13.28 7.07 27.11 13.52 39.03 22.82 1.04-2.85 2.02-5.74 3.62-8.33-10.38-5.95-21.51-10.9-30.58-18.83.61-.39 1.22-.78 1.83-1.16 2.93 2.71 6.7 4.18 10.06 6.26 6.86 3.71 13.33 8.09 19.58 12.74 1.22-1.88 2.82-3.61 3.42-5.82-1.39-5.73-6.61-9.42-8.7-14.86-.63 1.34-1.26 2.7-1.96 4.01-1.02-3.63 1.5-6.73 3.17-9.7 3.25-5.48 9.18-10.08 15.89-9.19-.36-4.25.64-8.99 3.52-12.26 5.3-4.58 11.4-8.33 18.11-10.46 2.73-.02 5.02 1.77 6.52 3.92a63.56 63.56 0 012.52-3.12c-.05-.43-.15-1.29-.19-1.72-7.27-3.72-15.28-5.66-23.35-6.58-2.46-.61-1.66-3.81-2.2-5.7-4.6-1.37-9.66-2.26-14.26-.37-8.81 3.5-17.79 10.25-19.5 20.08 1.81 3.15 3.17 6.53 4.9 9.72-2.02 4.03-.1 8.33.86 12.34.63 2.43 1.93 4.6 3.08 6.8-3.71-1.12-4.46-4.97-6.41-7.79-4.61-4.55-9.07-9.29-12.85-14.56-3.24-4.49-7.88-7.69-11.41-11.92-.39.56-.78 1.12-1.16 1.7 2.56 7.89 2.29 16.25 4.01 24.32 3.32-2.26 6.63-4.55 10.18-6.43.94 1.67-.72 2.76-1.83 3.73-2.5 1.86-5.28 3.33-8.02 4.8-.49-.16-1.46-.49-1.94-.65-.86-3.66-1.58-7.38-2.01-11.13-.26-5.49-1.8-10.86-1.51-16.39l-1.52-1.07c.83.29 2.49.88 3.32 1.17-2.45-3.68-7.14-6.34-7.56-11.1 12.57 9.26 21.78 22.15 32.01 33.77-.23-2.51-.3-5.04.08-7.54-.57-.64-1.14-1.27-1.71-1.9.04-3.15-1.67-5.77-3.21-8.37 2.42-3.81 3.61-8.44 7.02-11.57 3.52-3.31 7.39-6.78 12.26-7.79.4-.44 1.2-1.34 1.6-1.79 2.02-.04 4.04-.04 6.06-.03-1.83-3.41-3.61-7.02-6.73-9.47-3.6-3.09-3.87-8.04-4.86-12.32-2.48-3.15-4.7-7.17-8.84-8.27-3.7-1.48-6.27-5.07-10.29-5.91-3.61-.5-7.41-2.11-11-.68-3.72 1.31-7.64 1.85-11.43 2.91-3.96 1.11-5.56 5.35-8.79 7.51-2.43 1.38-5.33 1.52-7.81 2.78-3.54 2.27-5.06 6.84-4.56 10.88-2.67.93-5.69 1.72-7.37 4.2-2.9 3.14-4.05 7.37-6.67 10.7 2.6.84 4.54 2.75 5.57 5.28-4.57-2.42-9.43-4.49-14.75-3.85.21-.64.61-1.93.82-2.57 2.54-.01 5.05.4 7.56.76 1.04-6.6 5.34-12.37 11.04-15.74 1.8-3.24 2.3-7.21 4.89-10.01 1.81-1.77 4.35-2.46 6.68-3.27-1.96-.7-3.7-1.84-5.14-3.33.32 1.77.3 3.54-.07 5.31-.7-1.7-1.31-3.43-1.92-5.16.2-.5.61-1.49.81-1.99-.68-.1-2.02-.29-2.7-.39-1.07-3.74-1.82-7.93-.26-11.64 1.77-3.98 4.77-7.28 8.24-9.88.38.91.71 1.85 1 2.8-3.13.54-4.48 3.74-6.24 6-2.17 3.41-3.56 8.87.15 11.75 2.76 2.09 5.25 5.98 9.22 4.4 2.88-1.98 4.92-5.19 8.46-6.18 5.63-1.54 11.3-3.12 17.13-3.76 5.06.51 10.37 1.15 14.5 4.4 5.1 4.05 11.69 5.12 17.57 7.54 3.33-5.13 9.03-7.78 13.05-12.19 2.22-3.49-.1-7.09-1.97-10.07m14.95-3.74c-4.1 3.16-6.11 8.15-7.43 12.99-1.09 3.34-.19 7.51 2.87 9.53 3.72 2.5 8.35-.51 11.11-3.19 4.18-3.68 5.04-9.37 6.45-14.46 1.11-3.43-1.92-6.18-4.04-8.42-3.15.65-6.45 1.4-8.96 3.55m-13.39 2.05c1.12 1.74 2.64 3.16 3.86 4.81-.53 2.78-.9 5.76-2.18 8.31-3.96 4.21-9.32 6.88-12.94 11.48 1.45 1.79 2.76 3.69 4.06 5.59-.63.5-1.26.99-1.89 1.48-3.02-3.26-5.46-8.58-10.76-7.86 1.46 1.8 3.32 3.36 4.26 5.51.53 2.43.73 4.92 1.21 7.36 3.53-.93 7.19-1.48 10.8-.65 1.75.58 2.5-1.59 3.31-2.7 1.98-4.03 4.4-7.82 7.32-11.22-6.59-7.19-2.85-18.85 3.81-24.62-1.48-.8-3-1.55-4.59-2.1-2.56.67-4.58 2.66-6.27 4.61m26.01 74.21c-.35 4.35-.22 8.72-.16 13.08 5.92 1.78 12.06 4.03 18.32 2.73 2.25 1.57 4.73 2.8 7.46 3.21-.7.64-1.41 1.27-2.12 1.9-1.71-.76-3.42-1.52-5.12-2.28-2.16 2.79-4.59 5.35-6.92 7.99-2.28 2.4-.89 6.02-2.3 8.77-1.01 2.04-1.94 4.13-2.87 6.22-1.43 3.63-5.18 5.42-7.73 8.14 2.34 1.7 5.3.66 7.94 1.25 2.39.38 4.52 1.64 6.38 3.14-.49 1.2-.97 2.4-1.45 3.62 4.02 1.05 7.5 3.39 10.98 5.58 1.56-.39 3.15-.72 4.68-1.25.67-1.69.81-3.53 1.19-5.3-1.49-.9-3.02-1.74-4.45-2.72-4.38-2.98-5.3-9.06-10.26-11.42 1.52-2.35 3.22-4.58 5.15-6.61 3-3.18 4.5-7.44 7.45-10.65 2.4-2.44 3.65-5.68 5.67-8.4 2.05-2.61 1.67-6.87-1.02-8.91-3.99-3.24-7.06-7.77-11.95-9.77-3.87-1.77-7.64-3.77-11.61-5.31-3.31.95-6.07 3.8-7.26 6.99m-22.71 3.48c-2.32 3.17-3.09 7.2-3.88 10.98.49.67 1.46 2 1.94 2.66 3.77-2.67 2.45-7.88 5.35-11.12 2.99-3.7 7.48-6.62 12.38-6.56-2.1 2.43-5.3 3.27-7.89 5-2.29 1.56-3.79 4.02-4.64 6.62-1.06 3.44-3.56 6.13-5.49 9.1 1.58 1.91 2.92 4 4.15 6.16 5.32-4.03 10.73-7.96 16.26-11.7 2.37-3.48 1.78-8.13 2.24-12.15-.09-3 0-8.18-4.35-7.59-5.83 1.8-11.25 4.9-16.07 8.6m18.24 14.39c-5.19 3.3-10.44 6.48-15.54 9.91.11 3.91.87 7.76 2.67 11.24 1.33 2.31.42 4.95.2 7.4a29.1 29.1 0 00-1.23 2.08c2.04 3.49 4.27 6.88 6.95 9.92 4.37-1.82 8.5-4.22 12.17-7.21l-3.82.28c.32-2.1.53-4.5 2.44-5.82 5.69-4.18 8.46-11.28 8.97-18.14 1.16-3.9 4.81-6.36 7.34-9.35-5.75-.23-11.53-1.29-16.86-3.52-1 1.16-1.94 2.43-3.29 3.21m-18.99 40.53c2.29 2.57 4.46 5.25 6.76 7.81-.48.78-.96 1.56-1.44 2.35-2.49-2.73-4.64-5.74-6.55-8.9-.8 2.53-1.66 5.05-2.69 7.5 1.39 1.2 2.8 2.38 4.22 3.56-2.64 2.48-5.57 4.66-8 7.36-1.82 3.5.36 7.33 1.49 10.7 4.57-5.33 10.74-8.82 16.42-12.8 6.13-4.27 12.52-8.15 18.51-12.62 1.32-1.03 2.81-1.78 4.32-2.46-.44-2.12-.68-4.29-1.24-6.38-1.41-1.64-3.92-1.75-5.91-1.65-3.99 2.39-7.87 4.97-11.97 7.18 1.87 1.49 3.62 3.15 4.82 5.24-3.17-.59-5.38-3.16-8.25-4.42-2.49-3.51-4.58-7.29-7.19-10.71-1.36 2.64-2.25 5.47-3.3 8.24m-5.02 11.1c-.48 1.42-.95 2.84-1.39 4.29 1.04-.91 2.08-1.83 3.11-2.75-.57-.52-1.15-1.03-1.72-1.54z"/><path d="M97.92 70.23c-1.42 0-2.77-.45-3.97-1.18 6.49-1.98 13.33.58 18.46 4.58 2.71 2.53 3.42 6.39 4.26 9.83l-2.12 2.16c-.7-3.15-.02-7.17-2.73-9.52-4.03-3.06-8.73-5.66-13.9-5.87z"/><path d="M104.3 86.17c1.02-3.55 2.22-7.7 5.76-9.51-1.13 2.88-2.32 5.74-3.6 8.55l-2.16.96zM117.88 98.68c3-2.2 6.46-4.84 10.41-3.85-3.41 1.39-6.54 4.05-10.41 3.85zM136.02 96.88c3.9-.69 8.24.39 10.09 4.22-2.63-.78-5.21-1.71-7.81-2.54-.6.4-1.19.81-1.77 1.22 3.56 2.01 6.07 5.6 6.96 9.58.41 3.76 4.92 5.66 4.48 9.67-2.28-.43-2.93-3.08-4.46-4.53-2.46-2.4-2.52-6.02-3.96-8.96-1.64-2.67-3.92-4.85-6.14-7.02l3.02 1.14c-.1-.69-.31-2.09-.41-2.78zM18.81 110.79c2.85-6.46 8.29-12.13 15.25-13.98 4.06-1.37 8.85.86 10.55 4.75 1.57 2.89.85 6.26.6 9.36-1.03-.52-2.06-1.05-3.09-1.58 1.18-3.3.96-7.29-1.78-9.75-2.18-1.62-4.98-.57-7.3.11-7.69 3.23-12.61 11.18-13.55 19.27.21 2.94 1.03 6.93 4.54 7.47 3.5.55 6.36-2.12 9.01-4-.96-.72-1.92-1.45-2.87-2.17.1-.83.32-2.5.43-3.34 3.25-4.43 9.63-7.72 14.6-3.74-2.35 1.13-4.96 1.13-7.49 1.47-1.64 1.64-3.34 3.23-5 4.85 1.42 1.72 2.68 3.57 3.81 5.49-3.58-.14-6.16 2.88-9.61 3.41-3.58 1.34-7.69-.94-8.94-4.44-2.03-4.23-.87-9.07.84-13.18zM128.24 104.31c-.43-1.57-1.88-4.88.77-5.19.72-.02 2.18-.07 2.9-.09-1.55 3.44-3.43 6.72-5.49 9.89.13 2.14.21 4.3-.04 6.45 2.55-1.48 5.24 1.52 5.55 3.9 3.77 2.56 8.43 5.44 9.49 10.15-3.24-2.04-5.97-4.74-9.03-7-2.16-1.64-5.02-.84-7.5-1.12 1.46-1.45 3.48-1.94 5.35-2.6-2.02-1.26-4.16-2.36-5.92-3.98.02-3.67-.05-8.68 3.92-10.41zM99.03 103.63c2.93-.58 4.98-3.08 7.86-3.79 2.83-.33 5.76-.38 8.56.22.2.4.6 1.22.8 1.63-2.76.01-5.51-.26-8.26-.11-2.93.45-4.99 3.11-7.95 3.42-4.26.1-7.35 3.63-11.53 4.22 2.83-2.88 6.63-4.67 10.52-5.59zM115.96 110.65c-3.84-1.07-1.14-6.91 2.1-5.93-.66.83-1.31 1.65-1.98 2.47l-.12 3.46zM95.87 123.97c2.7-4.35 2.98-9.74 5.65-14.11 1.44 3.73-.59 7.44-1.1 11.14 6.4 3.31 13.18 5.71 20.11 7.64 6.16 2.94 11.31 9.16 11.8 16.06-4.97-4.38-8.71-10.01-14.32-13.67-5.23-.68-10-3.13-14.85-5.03.45 6.35 1.07 12.69 1.2 19.06.87 7.94 1.85 15.87 2.7 23.81.21 1.48.06 3.29-1.59 3.84-7.69 4.24-15.21 8.86-23.24 12.43.52 2.9-.24 6.84 2.7 8.64 1.39.81 2.88 2.92 4.66 1.84 3.21-1.74 6.3-3.7 9.51-5.44 3.31-1.78 6.16-4.51 9.98-5.18-5.34 6.45-13.43 9.53-20.4 13.83-3.14-1.35-6.2-3.31-7.92-6.34-.4-2.87-.24-5.77-.47-8.65 7.9-4.69 16.2-8.64 24.31-12.96-.47-8.96-1.39-17.91-2.07-26.86-.03-6.28-1.24-12.61.01-18.85-.69-.72-1.46-1.34-2.2-2-2.52 3.78-5.43 7.62-9.59 9.68-5.68 2.39-9.41 7.54-14.56 10.76l-2.92-.76c-5.97 1.88-12.17.11-17.39-2.95 2.07-2.55 4.87-.44 7.33.15 4.3 1.17 8.79.04 13.15-.04 4.44-3.53 8.51-7.63 13.62-10.22 2.55-1.24 4.32-3.54 5.89-5.82zM105.56 110.75c4.53-.03 9.18.96 12.51 4.24-1.25.79-2.49 1.59-3.74 2.37-.11-.79-.33-2.37-.44-3.17-2.75-1.3-5.71-2.09-8.77-1.89l.44-1.55z"/><path d="M49.3 111.67c5.39-3.05 12.21.6 13.57 6.38 1.92 9.01-2.84 18.49-10.1 23.79-3.61 2.33-8.47 4.25-12.49 1.77-4.71-2.56-5.69-8.84-4.75-13.67 1.64-7.63 6.35-15.18 13.77-18.27m-11.99 22.31c-.03 3.28 1.64 6.6 4.67 8.04 3.07 1.57 6.31-.64 9-2.02 6.9-4.72 8.56-13.35 10.01-21.01-1.51-2.18-2.62-5-5.17-6.17-10.89.27-17.57 11.37-18.51 21.16zM81.36 126.34c2.8-4.82 6.92-10.28 12.88-10.89-2.26 2.34-4.94 4.23-7.29 6.48-1.75 1.61-3.27 3.57-5.59 4.41zM118.18 115.48c1.12 2.36 1.67 4.92 2.31 7.44-3.6-.49-3.61-4.83-2.31-7.44zM148.77 132.98c4.38-3.38 9.72-6.71 15.5-5.79-5.52 1-10.23 4.12-15.5 5.79zM155.3 135.99c3.01-3.32 6.95-6.6 11.76-6-3.95 1.95-7.98 3.73-11.76 6zM152.52 144.18c2.91-6.49 10.73-7.46 16.3-10.71-.8 1.49-1.34 3.45-3.18 3.95-4.71 1.57-8.9 4.22-13.12 6.76zM143.08 148.39c.3-2.32 1.16-4.49 2.23-6.55 1.69 2.52-.21 5.04-2.23 6.55zM201.97 153.05c2.19.98 3.91 2.68 5.01 4.8-2.89.29-3.78-2.83-5.01-4.8zM211.07 153.14c2.75 1.85 4.9 4.5 7.83 6.09 1.87.04 3.72-.27 5.57-.53-.06.9-.11 1.8-.16 2.7-2.23.14-4.63.8-6.76-.14-2.92-1.94-5.41-4.74-6.48-8.12zM119.59 177.11c4.42-3.95 10.04-6.17 15.03-9.29-.23.74-.69 2.22-.92 2.95-3.19 2.39-6.8 4.17-10.07 6.46-1.35-.01-2.69-.05-4.04-.12zM211.48 175.17c.36.19 1.06.57 1.42.75-1.87 2.33-3.61 5.4-6.93 5.56 1.74-2.19 3.75-4.13 5.51-6.31zM165.32 189.42c.8-2.05 1.7-4.15 3.42-5.61-.29 2.21-.48 5.49-3.42 5.61z"/></g></svg>