<svg width="252" height="300" viewBox="0 0 189 225" xmlns="http://www.w3.org/2000/svg"><g fill="#FFF"><path d="M0 0h189v225H0V0m128.79 10.73c-2.88-.78-5.53-3.04-8.73-2.49-3.74.13-6.36 3.13-9.84 4.07-1.34 1.71-3.38 3.17-3.43 5.54-.42 5.19-.44 10.59 1.47 15.53l-3.17.32c-2.85-1.31-6.44-1.64-9.15.16-2.02 1.29-3.92 2.77-5.88 4.15-4.24-3.93-10.15-1.44-14.82.14.68.44 1.36.87 2.06 1.29 3.22-1.05 6.61-1.24 9.95-.72 2 2.04 4.35 1.04 6.53-.11.46-.79.92-1.58 1.38-2.38 1.58-.55 3.03-1.72 4.76-1.68 2.13.39 4.17 1.14 6.22 1.81.96-.56 1.91-1.11 2.87-1.66 1.37 4.04 5.16 8.47 9.92 6.98 4.15-1.56 6.04-6.17 7.18-10.13-1.41.55-1.69 1.98-2.1 3.24-2.38 2.7-5.53 7.49-9.67 5-3.18-2.7-4.41-6.97-5.82-10.75-.86-4.84-1.71-10.61 1.91-14.58 3.48-2.26 7.45-3.78 11.38-5.11 2.06 1.04 4.5 1.9 5.62 4.1 2.61 4.68 3.39 10.47 1.41 15.54.98 2.82 1.8 5.69 2.85 8.48 5.1 4.02 9.29 9.87 9.52 16.55-.57 3.53-.43 7.47-2.61 10.5-2.57 3.68-3.07 8.52-6.24 11.84-1.78 2.2-4.24 3.69-6.12 5.77-1.32 2.76-1.83 5.87-3.44 8.49-2.25 3.73-4.9 7.18-7.27 10.82-1.38-3.71-5.57-4.43-8.81-5.72.25-4.91 1.04-9.79 1.19-14.71.66-5.3.6-10.65 1.31-15.94 2.97 1.43 6.17 2.55 9.51 1.93 1.75-1.07 3.76-1.19 5.76-1.17-1.14 2.05-1.81 4.33-3.26 6.2l-2.06-1.05c-.03-.85-.08-2.54-.11-3.39-1.12.47-3.14 1.76-1.83 3.19.89 1.87 3.13 2.24 4.84 3.01-1.04.99-2.08 1.97-3.13 2.95-1.67-.9-3.31-1.84-5-2.69.12 2.47 2.63 3.48 4.63 4.16.43 1.79.96 3.55 1.49 5.32-.98 1.38-1.64 2.95-2.24 4.53.74-1.37 1.75-2.45 3.32-2.76.21-.63.62-1.89.82-2.52-.42-1.58-1.24-3.12-1.13-4.79 2.91-2.59 3.93-6.65 3.52-10.41 3.86-1.67 8.33-1.23 12.11-3.18 1.21-2.43 5.61-6.49 1.84-8.39-1.33 2.62-2.17 5.83-4.95 7.34-2.91 1.96-6.6 1.64-9.78.65 1.64-.71 3.36-1.25 5.1-1.64 1.3-2.28.57-6.47-2.63-6.29.51 1.06 1.04 2.12 1.58 3.17-2.27 2.8-5.91 3.83-8.52 6.25-3.74.46-6.63-2.2-9.79-3.69.37-3.51.94-7.16-.49-10.52.29-.77.59-1.53.9-2.29 2.48-.62 5.24-1.78 7.74-.61 2.17 1.28 4.21 2.8 6.56 3.76 1.57-1.02-.52-3.47.51-4.98 1.77-3.58 6.57-2.34 9.78-2.24.12-.25.35-.75.47-.99-3.22-3.46-8.06-.24-11.11 1.85-.09.87-.26 2.61-.35 3.47-1.95-1.55-4.25-2.5-6.54-3.42-3.34.87-6.77 1.7-9.76 3.48-2.5-2.93-5.36-.2-7.61 1.38-.43 1.3-.73 2.63-1.04 3.95l-.44-.69c-.17 2.31-.2 4.62-.07 6.93.33 12.47-2.01 24.79-3.4 37.13-.05 7.03-1.33 13.95-1.92 20.93-2.72-4.48-7.76-6.56-12.55-8.04 2.7-.13 5.24-1.05 7.78-1.88.38-.49 1.13-1.48 1.5-1.97-1.83.26-3.67.52-5.51.77-.22-2.19.93-5.14-1.47-6.49-.35 2.33-.49 4.68-.5 7.03-3.84-.08-5.83 2.99-7.5 5.93-.79.96-1.57 1.93-2.35 2.9-.81-3.51-1.01-7.28-2.79-10.49-1.82-2.11-4.15-3.8-5.51-6.29 2.87-.27 5.76.09 8.53.88 1.75-.59 3.45-1.34 4.89-2.53 1.09-.19 2.18-.38 3.28-.56.14-1.47-.35-3.13.44-4.46 2.6-1.6 5.81-.72 8.57-1.83 1.79.56 3.59 1.16 5.48 1.34-1.89-1.84-4.19-3.43-6.95-3.15.42-1.83.72-3.76 1.91-5.28 3.56-4.75 4.03-10.98 3.92-16.71.28-2.34 1.41-4.45 2.28-6.61-2.29.71-3.38 3.02-4.39 4.99-.32 4.53-.23 9.15-1.17 13.62-1.35 2.68-3.59 5.05-3.26 8.3l-.15.33c-1.22 1.83-3.87.44-5.36 1.87-1.85 1.07-2.88 2.92-3.68 4.82-2.18.36-4.14 1.34-6.08 2.32-2.76.38-5.67-.58-8.32.63-2.73 1.1-5.66 1.32-8.57 1.27.43.48 1.29 1.42 1.72 1.89-3.32.06-6.48 1.08-9.58 2.19-.84-8.12-4.36-15.67-4.63-23.88-2.42-10.4-3.71-21.11-7.78-31.06 4.51 2.57 10.91 3.59 15.2.01.91-1.37.43-3.19.76-4.73.71.14 2.13.41 2.84.55.16-1.68.28-3.36.38-5.05.96.19 2.86.56 3.81.74-.16.38-.49 1.15-.65 1.53 4.85-5.13 12.81-3.22 18.88-1.86-.41-.62-1.21-1.86-1.62-2.47-3.43-.63-6.83-2.25-10.38-1.47-2.34.68-4.46 2.07-6.91 2.36-2.25-.18-4.51-.41-6.69-1-2.14-1.08-3.82-3.05-6.21-3.6-2.74-.69-5.54-1.11-8.26-1.88-.91.39-1.82.79-2.73 1.18-1.05-.97-1.77-2.45-3.17-2.96-3.86-.87-7.27 2.85-7.79 6.41l-.8-.13c-.4 6.77 2.41 13.06 3.57 19.62 5.28 17.32 9.49 34.94 12.93 52.72-2.29 2.34-4.17 5.17-7.05 6.85-2.48 1.42-4.69 3.5-5.65 6.24-1.26 4.68 1.76 9.39.28 14.13 2.01 4.49 2.14 9.47 3.45 14.15 1.01 3.58 1.59 7.25 2.34 10.89.79 3.57-.36 7.64-3.38 9.83-3.57 2.98-6.12 7.5-10.81 8.88-2.81 1.13-5.05 3.36-7.11 5.51.87 1.97 2.61 4 4.97 3.91 4.67.32 9.43.13 14.06-.61 2.23-1.47 4.13-3.88 7.04-4.06 2.34-.05 4.68.22 7.02.1 3.03.15 5.16-2.33 7.44-3.94-1.08-2.48.68-5.25-.61-7.69-1.28-3.24-3.19-6.27-3.64-9.77-.4-3.42-2.07-6.82-1.14-10.29 1.7-7.32-1.69-14.46-2.28-21.7 4.43-2.45 9.54-2.68 14.49-2.61.46-.82.92-1.64 1.38-2.45-6.13-.29-11.98 1.49-17.82 3.07-.36.85-.72 1.7-1.08 2.56 1.84 6.06 2.71 12.42 3.32 18.7-1.81 9.5.91 19.06 5.4 27.4-.58 1.97-1.8 3.55-3.47 4.72-3.32.26-6.63-.13-9.95-.01-3.44.1-5.94 2.69-8.73 4.36-3.18-.13-6.39-.27-9.5.54-1.39.53-2.58-.33-3.67-1.06 1.48-2.58 3.84-4.57 6.71-5.39 2.71-.76 4.14-3.4 5.75-5.48 2.17-3.36 5.98-5.31 7.82-8.91.71-3.39.62-7.09-1.04-10.2-1.98-3.93-1.79-8.41-2.2-12.66-.17-3.17-3.34-5.41-2.75-8.73.36-3.78-.86-7.39-1.43-11.06.34-4.13 4.5-6.14 7.97-7.28 1.75-3.04 4.19-5.92 7.83-6.57 1.45-1.78 3.59-2.44 5.77-2.85 3.83-2.74 8.76-2.89 13.16-4.16 5.45 2.61 9.08 8.79 7.74 14.82-3.15 3.18-6.44 6.44-8.39 10.58-2.57 1.25-3.97 3.99-5.39 6.34.03 5.4-1.05 10.73-.72 16.13-.16 3.07-1.65 5.9-1.97 8.96.56 8.51 1.4 17.2-.49 25.62-5.09 5.33-7.97 12.69-14.43 16.63-1.97 1.39-2.41 3.88-3.31 5.96 2.35 2.54 5.87 3.03 9.06 3.84 3.56 1 7.55.32 10.77-1.43 4.55-4.17 9.81-7.9 12.79-13.47 2.01-4.59.37-9.6-.9-14.14.43-1.49 1.09-2.91 1.67-4.34 5.25 2.33 10.1 5.93 15.81 6.99 4.34.84 7.3-3.34 11.53-3.16l-.56-1.26 1.04.26c2.92-3.58 7.96-4.1 12.15-5.29 7.92-2.73 15.98-5.03 23.83-7.97 5.6-.86 10.79-3.15 16.32-4.26.26-2 .99-4.04.45-6.06-1.63-7.53-1.51-15.29-2.38-22.93-.76-5.36.94-10.68.47-16.04-.19-7.68-2.09-15.22-2.02-22.92.06-6.32-.04-12.65.02-18.98-.01-2.49.25-5.07-.73-7.44 4.07-13.41 9.73-26.28 13.74-39.71 2.11-5.24 2.34-10.94 1.68-16.51-2.27-1.39-4.54-2.83-7.04-3.78-4.69-.87-9.51-.66-14.19-1.64-3.2-.7-6.04 1.09-8.55 2.81M73.03 48c2.75-1.07 5.17-2.85 7-5.16 1.02-.42 2.03-.86 3.04-1.3-4.46-1.09-8.57 2.54-10.04 6.46m8.98-2.44c-.49 1.66-1.04 3.32-1.73 4.92-4.76-.1-9.53.77-14.28.08-1.35-.39-2.17-1.66-3.2-2.52-3.52-1.61-7.45-1.57-11.1-.43 2.33 1.83 5.35.53 8.02.99 2.43 1.38 4.48 3.35 6.98 4.63 3.84 1.17 8.09.71 11.48-1.51.98 1.59 1 3.53 1.81 5.16 3.38 3.39 8.65 3.74 13.15 4.2 1.12-.33 4.38.04 3.62-1.92-1.5-.74-3.19-.27-4.78-.34-3.51.23-6.71-1.44-9.96-2.44.25-3.81 1.88-7.3 3.06-10.87 3.93 1.09 7.82 2.3 11.66 3.68 1.22.69 2.54-.03 3.78-.22-5.07-3.84-12.45-6.03-18.51-3.41m13.82 12.22c0-.98-.01-2.95-.01-3.93.34-.28 3.22-1.37 1.26-1.82-.45-.13-1.34-.37-1.79-.49-1.31 1.77-2.77 5.99.54 6.24z"/><path d="M130.85 11.77c1.86-.99 3.68-2.81 5.94-2.4 4 .99 8.02 2.02 12.14 2.37 2.9.05 5.56 1.61 7.54 3.64 1.96 4.43-.37 9.13-2.13 13.22-6.07 18.64-12.09 37.3-19.28 55.55-2.17 5.85-4.09 11.79-6.35 17.6-.83 3.28-1.37 6.68-3.19 9.61-.98 3.07-2.52 5.92-4.28 8.6l-3.98-.06c.68-5.28.49-10.88-1.48-15.88 5.68-5.5 10.12-12.33 12.35-19.95.56-2.23 3.01-3 4.48-4.52 2.39-2.53 4.83-5.22 5.93-8.59 1.03-3.5 3.32-6.42 4.59-9.81.28-4.08.53-8.2.02-12.26-.91-2.28-2.57-4.15-3.89-6.19-3.37-3.7-8.35-7.04-7.85-12.72.82-4.81.54-9.7-.52-14.45-1.07-1.3-2.09-2.63-3.06-4l3.02.24zM24.7 33.28c2.19-.92 4.61-1.92 6.62-.01-1.7 3.06-4.07 6.06-3.85 9.78 2.02 2.61 5.51 3.3 8.18 5.05l-2.18.59c.3 4.44 2.55 8.42 3.28 12.77 2.09 9.87 4.49 19.68 6.17 29.63 1.11 4.28 3.07 8.42 3 12.92-2.34 1.13-4.62 2.37-6.72 3.91-1.49-9.42-3.93-18.68-5.57-28.08-2.7-13.89-8.33-27.11-9.9-41.23.39-1.76.7-3.54.97-5.33z"/><path d="M31.67 33.54c.56.28 1.67.84 2.23 1.12.54-.36 1.62-1.07 2.16-1.43 3.78 2.3 8.67 1.78 12.03 4.79 2.21 1.33 5.39 2.97 3.53 6.1a10.19 10.19 0 00-7.57-5.05c-2.17-1.07-3.18 1.67-4.35 2.88.22.67.66 2.03.88 2.71.91.75 1.81 1.49 2.72 2.25.68.08 2.05.26 2.73.35-.73.56-1.46 1.12-2.19 1.69-2.97-.57-6.61-.65-7.85-3.98-1.98-.34-3.94-.76-5.89-1.26-.38-3.49.61-6.86 1.57-10.17z"/><path d="M42.02 42.06c.91-3.34 3.91.74 6.01.38-.24 1.29-.31 4.33-2.37 3.22-.53-1.25-.96-2.54-1.53-3.78.74 5.45-2.43 2.75-2.11.18zM101.31 51.35c1.17-1.85 3.68-1.06 4.85.31 2.72 5.56.04 11.79.96 17.64.58 2.92-.03 5.85-.3 8.77-.07 10.72-3.13 21.17-3.13 31.91.13 8.13-2.83 15.89-2.98 24-1.12 12.11-2.31 24.23-3.77 36.3-.34.22-1.03.65-1.37.87-.44 3.58-.49 7.55-3.28 10.23-4.48.93-9.21 3.31-13.71 1.15-3.68-1.97-7.65-3.34-11.25-5.46 1.14-2.81 2.34-5.61 2.97-8.58 2.79 2.35 6 4.11 9.13 5.94 1.65 1.12 3.67 1 5.55.79.12.49.37 1.47.5 1.96 2.64-7.83 2.63-16.11 4.26-24.13.19-7.04.95-14.03 2.17-20.95 2.86-7.07 2.11-14.85 3.49-22.23 2.28-14.15 2.8-28.48 4.48-42.71.64-5.26-1.37-10.92 1.43-15.81zM138.83 80.48c1.15-2.34 1.22-5.21 3.1-7.16.78 11-.19 22.09.86 33.1.53 8.87.62 17.75.74 26.62.81 9.59 1.44 19.22 2.97 28.73-17.07 3.64-33.21 10.29-49.64 16.01.76-7.12 3.3-13.91 3.81-21.08 3.49-4.8 5.21-10.66 6.8-16.31-.44-.81-.88-1.62-1.33-2.43-1.83 4.59-3.41 9.29-4.52 14.1.14.61-1.37 2.56-1.32.98 1.24-5.11 1.19-10.4 1.94-15.59 4.16.36 8.31.21 12.46.03-3.15 8.55-5.07 17.52-8.35 26.04 11.44-.82 21.68-6.53 32.63-9.5-.35-.38-1.06-1.14-1.41-1.53-.17-10.49-.51-20.97-1.74-31.4.11-6.17-1.58-12.51.19-18.54-.57.48-1.16.95-1.77 1.4.5 5.68.05 11.39.12 17.08-.23 5.71 1.03 11.32 1.06 17.01-.05 5.19.96 10.3 1.26 15.47-4.42.34-8.7 1.63-12.76 3.39-5.34 2.4-11.22 3.43-16.39 6.27 1.24-1.86 2.1-3.93 2.65-6.09 2.2-6.5 4.65-12.95 6.14-19.67 2.16-1.7 3.9-3.86 5.04-6.37-.64-2.72.01-5.71-1.29-8.24l-.24 3.43c-.76-1.84-2.02-3.24-3.94-3.83.04-.2.1-.6.13-.8 2.9.89 5.97.7 8.35-1.33 4.1-7.04 5.73-15.14 7.65-22.97.21-.03.63-.07.84-.09 2 2 0 5.11.38 7.62.75-2.13 1.19-4.35 1.2-6.61l.94.47c-.13-.71-.39-2.13-.53-2.84-.29-.13-.88-.38-1.18-.51-.07-.51-.21-1.55-.28-2.07l1.23 1.72c-.37-5.22 2.51-9.77 4.2-14.51z"/><path d="M103.25 127.61c2.45-9.91 2.17-20.15 3.45-30.21 1.3.66 2.61 1.32 3.91 1.99 1.04 1.17 2.33 2.04 3.85 2.46-1.9 5.67 2.55 11.37.23 16.93-.75 2.04-1.54 4.12-2.81 5.91-2.83 1.14-6.08 1.05-8.63 2.92zM75.03 115.71c1.37-.66 2.72-1.34 4.06-2.06 5.87-.27 10.55 4.08 12.96 9.06-.3 6.9-6 11.53-11.02 15.42-3.41 2.15-7.73 2.64-10.38 5.99.15-1.78-.06-3.52-.63-5.19-3.67 6.39.59 13.33-.08 20.06.05 3.83-1.97 7.23-2.63 10.92-.71 4.52-3.5 8.52-3.47 13.19.09 3.65 1.07 7.21 1.39 10.85-.42 3.11-3.17 5.05-5.11 7.25-3.08 2.81-5.84 6.33-9.92 7.71-4.28 1.86-9.04.72-13.51.39.13-1.61.28-3.22.45-4.82 4.28-1.22 6-5.5 8.81-8.49 2.68-2.97 5.35-6.03 7.5-9.38 1.16-6.51.51-13.14 1.3-19.68.6-4.56-.83-9.52 1.64-13.7-.59-3.93-.15-7.9.91-11.7.72-2.66-.55-5.77 1.22-8.12 1.43-1.84 3.05-3.52 4.68-5.17.88-1.53 1.77-3.05 2.62-4.58 2.46-3.3 5.41-6.26 9.21-7.95zM103.36 130.26c3.82-3.1 10.04-1.23 12.68-6.11 2.31 1.67 3.34 4.08 2.97 6.91-1.49 1.46-2.53 4.1-5.03 3.63-3.82-.07-7.73-.63-11.39.87.26-1.77.52-3.54.77-5.3z"/><path d="M83.94 139.89c2.03-1.85 3.85-3.93 5.77-5.9-1.78 8.59-1 17.42-2.72 26-.8 5.1-1.36 10.24-1.77 15.38-.89-2.27-3.08-2.38-5.16-2.67-3.24-1.54-6.38-3.3-9.58-4.93.95-3.22 1.69-6.51 2.26-9.82.34-3.87-1.28-7.5-2.42-11.1 2.16-.87 3.86-2.44 5.65-3.87 2.32-1.81 5.49-1.64 7.97-3.09z"/></g><g fill="#333"><path d="M128.79 10.73c2.51-1.72 5.35-3.51 8.55-2.81 4.68.98 9.5.77 14.19 1.64 2.5.95 4.77 2.39 7.04 3.78.66 5.57.43 11.27-1.68 16.51-4.01 13.43-9.67 26.3-13.74 39.71.98 2.37.72 4.95.73 7.44-.06 6.33.04 12.66-.02 18.98-.07 7.7 1.83 15.24 2.02 22.92.47 5.36-1.23 10.68-.47 16.04.87 7.64.75 15.4 2.38 22.93.54 2.02-.19 4.06-.45 6.06-5.53 1.11-10.72 3.4-16.32 4.26-7.85 2.94-15.91 5.24-23.83 7.97-4.19 1.19-9.23 1.71-12.15 5.29l-1.04-.26.56 1.26c-4.23-.18-7.19 4-11.53 3.16-5.71-1.06-10.56-4.66-15.81-6.99-.58 1.43-1.24 2.85-1.67 4.34 1.27 4.54 2.91 9.55.9 14.14-2.98 5.57-8.24 9.3-12.79 13.47-3.22 1.75-7.21 2.43-10.77 1.43-3.19-.81-6.71-1.3-9.06-3.84.9-2.08 1.34-4.57 3.31-5.96 6.46-3.94 9.34-11.3 14.43-16.63 1.89-8.42 1.05-17.11.49-25.62.32-3.06 1.81-5.89 1.97-8.96-.33-5.4.75-10.73.72-16.13 1.42-2.35 2.82-5.09 5.39-6.34 1.95-4.14 5.24-7.4 8.39-10.58 1.34-6.03-2.29-12.21-7.74-14.82-4.4 1.27-9.33 1.42-13.16 4.16-2.18.41-4.32 1.07-5.77 2.85-3.64.65-6.08 3.53-7.83 6.57-3.47 1.14-7.63 3.15-7.97 7.28.57 3.67 1.79 7.28 1.43 11.06-.59 3.32 2.58 5.56 2.75 8.73.41 4.25.22 8.73 2.2 12.66 1.66 3.11 1.75 6.81 1.04 10.2-1.84 3.6-5.65 5.55-7.82 8.91-1.61 2.08-3.04 4.72-5.75 5.48-2.87.82-5.23 2.81-6.71 5.39 1.09.73 2.28 1.59 3.67 1.06 3.11-.81 6.32-.67 9.5-.54 2.79-1.67 5.29-4.26 8.73-4.36 3.32-.12 6.63.27 9.95.01 1.67-1.17 2.89-2.75 3.47-4.72-4.49-8.34-7.21-17.9-5.4-27.4-.61-6.28-1.48-12.64-3.32-18.7.36-.86.72-1.71 1.08-2.56 5.84-1.58 11.69-3.36 17.82-3.07-.46.81-.92 1.63-1.38 2.45-4.95-.07-10.06.16-14.49 2.61.59 7.24 3.98 14.38 2.28 21.7-.93 3.47.74 6.87 1.14 10.29.45 3.5 2.36 6.53 3.64 9.77 1.29 2.44-.47 5.21.61 7.69-2.28 1.61-4.41 4.09-7.44 3.94-2.34.12-4.68-.15-7.02-.1-2.91.18-4.81 2.59-7.04 4.06-4.63.74-9.39.93-14.06.61-2.36.09-4.1-1.94-4.97-3.91 2.06-2.15 4.3-4.38 7.11-5.51 4.69-1.38 7.24-5.9 10.81-8.88 3.02-2.19 4.17-6.26 3.38-9.83-.75-3.64-1.33-7.31-2.34-10.89-1.31-4.68-1.44-9.66-3.45-14.15 1.48-4.74-1.54-9.45-.28-14.13.96-2.74 3.17-4.82 5.65-6.24 2.88-1.68 4.76-4.51 7.05-6.85-3.44-17.78-7.65-35.4-12.93-52.72-1.16-6.56-3.97-12.85-3.57-19.62l.8.13c.52-3.56 3.93-7.28 7.79-6.41 1.4.51 2.12 1.99 3.17 2.96.91-.39 1.82-.79 2.73-1.18 2.72.77 5.52 1.19 8.26 1.88 2.39.55 4.07 2.52 6.21 3.6 2.18.59 4.44.82 6.69 1 2.45-.29 4.57-1.68 6.91-2.36 3.55-.78 6.95.84 10.38 1.47.41.61 1.21 1.85 1.62 2.47-6.07-1.36-14.03-3.27-18.88 1.86.16-.38.49-1.15.65-1.53-.95-.18-2.85-.55-3.81-.74-.1 1.69-.22 3.37-.38 5.05-.71-.14-2.13-.41-2.84-.55-.33 1.54.15 3.36-.76 4.73-4.29 3.58-10.69 2.56-15.2-.01 4.07 9.95 5.36 20.66 7.78 31.06.27 8.21 3.79 15.76 4.63 23.88 3.1-1.11 6.26-2.13 9.58-2.19-.43-.47-1.29-1.41-1.72-1.89 2.91.05 5.84-.17 8.57-1.27 2.65-1.21 5.56-.25 8.32-.63 1.94-.98 3.9-1.96 6.08-2.32.8-1.9 1.83-3.75 3.68-4.82 1.49-1.43 4.14-.04 5.36-1.87l.15-.33c-.33-3.25 1.91-5.62 3.26-8.3.94-4.47.85-9.09 1.17-13.62 1.01-1.97 2.1-4.28 4.39-4.99-.87 2.16-2 4.27-2.28 6.61.11 5.73-.36 11.96-3.92 16.71-1.19 1.52-1.49 3.45-1.91 5.28 2.76-.28 5.06 1.31 6.95 3.15-1.89-.18-3.69-.78-5.48-1.34-2.76 1.11-5.97.23-8.57 1.83-.79 1.33-.3 2.99-.44 4.46-1.1.18-2.19.37-3.28.56-1.44 1.19-3.14 1.94-4.89 2.53-2.77-.79-5.66-1.15-8.53-.88 1.36 2.49 3.69 4.18 5.51 6.29 1.78 3.21 1.98 6.98 2.79 10.49.78-.97 1.56-1.94 2.35-2.9 1.67-2.94 3.66-6.01 7.5-5.93.01-2.35.15-4.7.5-7.03 2.4 1.35 1.25 4.3 1.47 6.49 1.84-.25 3.68-.51 5.51-.77-.37.49-1.12 1.48-1.5 1.97-2.54.83-5.08 1.75-7.78 1.88 4.79 1.48 9.83 3.56 12.55 8.04.59-6.98 1.87-13.9 1.92-20.93 1.39-12.34 3.73-24.66 3.4-37.13-.13-2.31-.1-4.62.07-6.93l.44.69c.31-1.32.61-2.65 1.04-3.95 2.25-1.58 5.11-4.31 7.61-1.38 2.99-1.78 6.42-2.61 9.76-3.48 2.29.92 4.59 1.87 6.54 3.42.09-.86.26-2.6.35-3.47 3.05-2.09 7.89-5.31 11.11-1.85-.12.24-.35.74-.47.99-3.21-.1-8.01-1.34-9.78 2.24-1.03 1.51 1.06 3.96-.51 4.98-2.35-.96-4.39-2.48-6.56-3.76-2.5-1.17-5.26-.01-7.74.61-.31.76-.61 1.52-.9 2.29 1.43 3.36.86 7.01.49 10.52 3.16 1.49 6.05 4.15 9.79 3.69 2.61-2.42 6.25-3.45 8.52-6.25-.54-1.05-1.07-2.11-1.58-3.17 3.2-.18 3.93 4.01 2.63 6.29-1.74.39-3.46.93-5.1 1.64 3.18.99 6.87 1.31 9.78-.65 2.78-1.51 3.62-4.72 4.95-7.34 3.77 1.9-.63 5.96-1.84 8.39-3.78 1.95-8.25 1.51-12.11 3.18.41 3.76-.61 7.82-3.52 10.41-.11 1.67.71 3.21 1.13 4.79-.2.63-.61 1.89-.82 2.52-1.57.31-2.58 1.39-3.32 2.76.6-1.58 1.26-3.15 2.24-4.53-.53-1.77-1.06-3.53-1.49-5.32-2-.68-4.51-1.69-4.63-4.16 1.69.85 3.33 1.79 5 2.69 1.05-.98 2.09-1.96 3.13-2.95-1.71-.77-3.95-1.14-4.84-3.01-1.31-1.43.71-2.72 1.83-3.19.03.85.08 2.54.11 3.39l2.06 1.05c1.45-1.87 2.12-4.15 3.26-6.2-2-.02-4.01.1-5.76 1.17-3.34.62-6.54-.5-9.51-1.93-.71 5.29-.65 10.64-1.31 15.94-.15 4.92-.94 9.8-1.19 14.71 3.24 1.29 7.43 2.01 8.81 5.72 2.37-3.64 5.02-7.09 7.27-10.82 1.61-2.62 2.12-5.73 3.44-8.49 1.88-2.08 4.34-3.57 6.12-5.77 3.17-3.32 3.67-8.16 6.24-11.84 2.18-3.03 2.04-6.97 2.61-10.5-.23-6.68-4.42-12.53-9.52-16.55-1.05-2.79-1.87-5.66-2.85-8.48 1.98-5.07 1.2-10.86-1.41-15.54-1.12-2.2-3.56-3.06-5.62-4.1-3.93 1.33-7.9 2.85-11.38 5.11-3.62 3.97-2.77 9.74-1.91 14.58 1.41 3.78 2.64 8.05 5.82 10.75 4.14 2.49 7.29-2.3 9.67-5 .41-1.26.69-2.69 2.1-3.24-1.14 3.96-3.03 8.57-7.18 10.13-4.76 1.49-8.55-2.94-9.92-6.98-.96.55-1.91 1.1-2.87 1.66-2.05-.67-4.09-1.42-6.22-1.81-1.73-.04-3.18 1.13-4.76 1.68-.46.8-.92 1.59-1.38 2.38-2.18 1.15-4.53 2.15-6.53.11-3.34-.52-6.73-.33-9.95.72-.7-.42-1.38-.85-2.06-1.29 4.67-1.58 10.58-4.07 14.82-.14 1.96-1.38 3.86-2.86 5.88-4.15 2.71-1.8 6.3-1.47 9.15-.16l3.17-.32c-1.91-4.94-1.89-10.34-1.47-15.53.05-2.37 2.09-3.83 3.43-5.54 3.48-.94 6.1-3.94 9.84-4.07 3.2-.55 5.85 1.71 8.73 2.49m2.06 1.04l-3.02-.24c.97 1.37 1.99 2.7 3.06 4 1.06 4.75 1.34 9.64.52 14.45-.5 5.68 4.48 9.02 7.85 12.72 1.32 2.04 2.98 3.91 3.89 6.19.51 4.06.26 8.18-.02 12.26-1.27 3.39-3.56 6.31-4.59 9.81-1.1 3.37-3.54 6.06-5.93 8.59-1.47 1.52-3.92 2.29-4.48 4.52-2.23 7.62-6.67 14.45-12.35 19.95 1.97 5 2.16 10.6 1.48 15.88l3.98.06c1.76-2.68 3.3-5.53 4.28-8.6 1.82-2.93 2.36-6.33 3.19-9.61 2.26-5.81 4.18-11.75 6.35-17.6 7.19-18.25 13.21-36.91 19.28-55.55 1.76-4.09 4.09-8.79 2.13-13.22-1.98-2.03-4.64-3.59-7.54-3.64-4.12-.35-8.14-1.38-12.14-2.37-2.26-.41-4.08 1.41-5.94 2.4M24.7 33.28c-.27 1.79-.58 3.57-.97 5.33 1.57 14.12 7.2 27.34 9.9 41.23 1.64 9.4 4.08 18.66 5.57 28.08 2.1-1.54 4.38-2.78 6.72-3.91.07-4.5-1.89-8.64-3-12.92-1.68-9.95-4.08-19.76-6.17-29.63-.73-4.35-2.98-8.33-3.28-12.77l2.18-.59c-2.67-1.75-6.16-2.44-8.18-5.05-.22-3.72 2.15-6.72 3.85-9.78-2.01-1.91-4.43-.91-6.62.01m6.97.26c-.96 3.31-1.95 6.68-1.57 10.17 1.95.5 3.91.92 5.89 1.26 1.24 3.33 4.88 3.41 7.85 3.98.73-.57 1.46-1.13 2.19-1.69-.68-.09-2.05-.27-2.73-.35-.91-.76-1.81-1.5-2.72-2.25-.22-.68-.66-2.04-.88-2.71 1.17-1.21 2.18-3.95 4.35-2.88 3.16.4 5.98 2.26 7.57 5.05 1.86-3.13-1.32-4.77-3.53-6.1-3.36-3.01-8.25-2.49-12.03-4.79-.54.36-1.62 1.07-2.16 1.43-.56-.28-1.67-.84-2.23-1.12m10.35 8.52c-.32 2.57 2.85 5.27 2.11-.18.57 1.24 1 2.53 1.53 3.78 2.06 1.11 2.13-1.93 2.37-3.22-2.1.36-5.1-3.72-6.01-.38m59.29 9.29c-2.8 4.89-.79 10.55-1.43 15.81-1.68 14.23-2.2 28.56-4.48 42.71-1.38 7.38-.63 15.16-3.49 22.23-1.22 6.92-1.98 13.91-2.17 20.95-1.63 8.02-1.62 16.3-4.26 24.13-.13-.49-.38-1.47-.5-1.96-1.88.21-3.9.33-5.55-.79-3.13-1.83-6.34-3.59-9.13-5.94-.63 2.97-1.83 5.77-2.97 8.58 3.6 2.12 7.57 3.49 11.25 5.46 4.5 2.16 9.23-.22 13.71-1.15 2.79-2.68 2.84-6.65 3.28-10.23.34-.22 1.03-.65 1.37-.87 1.46-12.07 2.65-24.19 3.77-36.3.15-8.11 3.11-15.87 2.98-24 0-10.74 3.06-21.19 3.13-31.91.27-2.92.88-5.85.3-8.77-.92-5.85 1.76-12.08-.96-17.64-1.17-1.37-3.68-2.16-4.85-.31m37.52 29.13c-1.69 4.74-4.57 9.29-4.2 14.51l-1.23-1.72c.07.52.21 1.56.28 2.07.3.13.89.38 1.18.51.14.71.4 2.13.53 2.84l-.94-.47c-.01 2.26-.45 4.48-1.2 6.61-.38-2.51 1.62-5.62-.38-7.62-.21.02-.63.06-.84.09-1.92 7.83-3.55 15.93-7.65 22.97-2.38 2.03-5.45 2.22-8.35 1.33-.03.2-.09.6-.13.8 1.92.59 3.18 1.99 3.94 3.83l.24-3.43c1.3 2.53.65 5.52 1.29 8.24-1.14 2.51-2.88 4.67-5.04 6.37-1.49 6.72-3.94 13.17-6.14 19.67-.55 2.16-1.41 4.23-2.65 6.09 5.17-2.84 11.05-3.87 16.39-6.27 4.06-1.76 8.34-3.05 12.76-3.39-.3-5.17-1.31-10.28-1.26-15.47-.03-5.69-1.29-11.3-1.06-17.01-.07-5.69.38-11.4-.12-17.08.61-.45 1.2-.92 1.77-1.4-1.77 6.03-.08 12.37-.19 18.54 1.23 10.43 1.57 20.91 1.74 31.4.35.39 1.06 1.15 1.41 1.53-10.95 2.97-21.19 8.68-32.63 9.5 3.28-8.52 5.2-17.49 8.35-26.04-4.15.18-8.3.33-12.46-.03-.75 5.19-.7 10.48-1.94 15.59-.05 1.58 1.46-.37 1.32-.98 1.11-4.81 2.69-9.51 4.52-14.1.45.81.89 1.62 1.33 2.43-1.59 5.65-3.31 11.51-6.8 16.31-.51 7.17-3.05 13.96-3.81 21.08 16.43-5.72 32.57-12.37 49.64-16.01-1.53-9.51-2.16-19.14-2.97-28.73-.12-8.87-.21-17.75-.74-26.62-1.05-11.01-.08-22.1-.86-33.1-1.88 1.95-1.95 4.82-3.1 7.16m-35.58 47.13c2.55-1.87 5.8-1.78 8.63-2.92 1.27-1.79 2.06-3.87 2.81-5.91 2.32-5.56-2.13-11.26-.23-16.93-1.52-.42-2.81-1.29-3.85-2.46-1.3-.67-2.61-1.33-3.91-1.99-1.28 10.06-1 20.3-3.45 30.21m-28.22-11.9c-3.8 1.69-6.75 4.65-9.21 7.95-.85 1.53-1.74 3.05-2.62 4.58-1.63 1.65-3.25 3.33-4.68 5.17-1.77 2.35-.5 5.46-1.22 8.12-1.06 3.8-1.5 7.77-.91 11.7-2.47 4.18-1.04 9.14-1.64 13.7-.79 6.54-.14 13.17-1.3 19.68-2.15 3.35-4.82 6.41-7.5 9.38-2.81 2.99-4.53 7.27-8.81 8.49-.17 1.6-.32 3.21-.45 4.82 4.47.33 9.23 1.47 13.51-.39 4.08-1.38 6.84-4.9 9.92-7.71 1.94-2.2 4.69-4.14 5.11-7.25-.32-3.64-1.3-7.2-1.39-10.85-.03-4.67 2.76-8.67 3.47-13.19.66-3.69 2.68-7.09 2.63-10.92.67-6.73-3.59-13.67.08-20.06.57 1.67.78 3.41.63 5.19 2.65-3.35 6.97-3.84 10.38-5.99 5.02-3.89 10.72-8.52 11.02-15.42-2.41-4.98-7.09-9.33-12.96-9.06-1.34.72-2.69 1.4-4.06 2.06m28.33 14.55c-.25 1.76-.51 3.53-.77 5.3 3.66-1.5 7.57-.94 11.39-.87 2.5.47 3.54-2.17 5.03-3.63.37-2.83-.66-5.24-2.97-6.91-2.64 4.88-8.86 3.01-12.68 6.11m-19.42 9.63c-2.48 1.45-5.65 1.28-7.97 3.09-1.79 1.43-3.49 3-5.65 3.87 1.14 3.6 2.76 7.23 2.42 11.1-.57 3.31-1.31 6.6-2.26 9.82 3.2 1.63 6.34 3.39 9.58 4.93 2.08.29 4.27.4 5.16 2.67.41-5.14.97-10.28 1.77-15.38 1.72-8.58.94-17.41 2.72-26-1.92 1.97-3.74 4.05-5.77 5.9z"/><path d="M73.03 48c1.47-3.92 5.58-7.55 10.04-6.46-1.01.44-2.02.88-3.04 1.3a16.616 16.616 0 01-7 5.16z"/><path d="M82.01 45.56c6.06-2.62 13.44-.43 18.51 3.41-1.24.19-2.56.91-3.78.22-3.84-1.38-7.73-2.59-11.66-3.68-1.18 3.57-2.81 7.06-3.06 10.87 3.25 1 6.45 2.67 9.96 2.44 1.59.07 3.28-.4 4.78.34.76 1.96-2.5 1.59-3.62 1.92-4.5-.46-9.77-.81-13.15-4.2-.81-1.63-.83-3.57-1.81-5.16-3.39 2.22-7.64 2.68-11.48 1.51-2.5-1.28-4.55-3.25-6.98-4.63-2.67-.46-5.69.84-8.02-.99 3.65-1.14 7.58-1.18 11.1.43 1.03.86 1.85 2.13 3.2 2.52 4.75.69 9.52-.18 14.28-.08.69-1.6 1.24-3.26 1.73-4.92z"/><path d="M95.83 57.78c-3.31-.25-1.85-4.47-.54-6.24.45.12 1.34.36 1.79.49 1.96.45-.92 1.54-1.26 1.82 0 .98.01 2.95.01 3.93z"/></g></svg>