<svg width="263pt" height="275pt" viewBox="0 0 263 275" xmlns="http://www.w3.org/2000/svg"><g fill="#FFF"><path d="M0 0h263v275H0V0m126.83 1.72c-9.16 2.25-17.32 10.61-16.99 20.43.43 2.41 2.25 4.54 4.55 5.37 4.19.89 8.14-1.15 11.64-3.18-.03 2.57-.42 5.12-1.47 7.48-1.49 3.11-.07 6.6 1.06 9.58 3.74 3.66 9.24 1.8 13.12-.61 6.25-4.21 11.06-10.96 11.8-18.59.2-3.76-2.29-6.64-5.24-8.59-4.13-.31-7.95 1.31-11.42 3.37l-1.71-2.17c1.04-.52 2.1-1.02 3.17-1.49.67-2.32 1.49-4.86.44-7.22-1-3.7-5.48-5.38-8.95-4.38m15.59 39.92c3.72 6.9 1.92 14.98.05 22.14 1.11 5.35 3.56 10.76 2.12 16.31-.43 5.03-3.54 9.24-4.38 14.15-1.57-1.88-3.02-3.86-4.05-6.08 3.39-9.16 6.06-20.8-.85-29.02-.83 1.81-1.64 3.64-2.48 5.45-1.19-2.85-1.05-6.23-2.93-8.76-.32.14-.94.43-1.26.57-.11 3.69.88 7.34 2.78 10.5-1.8 3.45-2.54 7.27-2.75 11.12-3.04 2.27-5.48 5.16-7.28 8.48-1.04 2.29-3.74 2.55-5.81 3.39-1.38-3.6-.71-7.35-.63-11.05-.81-6.92-8.58-8.68-13.98-10.81-3.11-1.69-7.32-1.57-9.87 1.05-3.15 3.35-7.55 6.22-8.24 11.13.61 4.74 2.29 10.99 7.91 11.7.94.6 1.88 1.2 2.82 1.81-.19 1.28-.37 2.56-.59 3.84-1.71.49-3.42.97-5.13 1.42-1.36 1.56-2.75 3.08-4.25 4.5-1.34 3.35-.12 6.85-.12 10.3-2.41-2-4.74-4.08-7.17-6.05-.34-2.6-1.27-5.62.49-7.92 2.99-3.39 8.07-4.16 10.67-7.99-3.96-.1-6.73 3.32-10.42 4.27-3.27 3.15-4.31 7.92-2.81 12.19 2.66 3.01 6.05 5.26 8.91 8.08-.15 4.23.93 8.33 2.51 12.22l.94-.28c-1.06 4.71 3.08 7.9 4.82 11.79.36 2.11.37 4.31-.03 6.42-5.21 3.3-10.65 6.25-16.11 9.14-.82 3.13-.03 6.32.31 9.46 2.36 1.8 4.76 3.54 7.21 5.22 6.68-3.84 13.67-7.11 20.4-10.87 1.21-.57 2.12-1.55 2.97-2.55 3.79-1.09 9.99-3.31 9.11-8.23.97-.11 1.96-.32 2.95-.19.75 1.3 1.05 2.79 1.38 4.24 2.44 2.54 5.01 5.16 8.46 6.25 2.22 1.13 4.5-.4 6.78-.54 1.42.28 2.7 1 4.03 1.55-.29 5.13 1.14 11.43 6.15 13.89-1.69-3.92-3.22-7.92-3.99-12.14.21-.49.63-1.48.83-1.98-1.68-1.41-.92-3.29-.38-5.04-1.59-3.55-3.8-6.99-4.9-10.65 2.19-7.68 8.3-13.65 15.31-17.13 5.31-3.36 12.04-3.86 17.88-1.69 1.02 1.57.69 3.65 1.63 5.27 1.21.99 2.96.6 4.41.98 7.3 1.07 14.48 3.14 20.96 6.75-5.2 5.08-6.62 12.5-7.13 19.45-4.99.15-10.51.56-14.36-3.27 2.7-4.31 8.14-4.99 11.41-8.57-5.62.02-11.78 3.71-13.34 9.31-1.19.49-2.37.99-3.55 1.49l.48-1.28-1.39 1.41c.99-2.54 2.13-5.07 2.67-7.76-.02-2.51-.23-5.01-.18-7.51l-1.77.08c-.44 2.49-.26 5.01.07 7.5-2.57 4.08-4.95 9.52-1.7 13.93-4.39-3.94-10.79-1.11-14.5 2.4-3.8 3.92-7.1 8.81-7.89 14.31.82-.51 1.64-1.02 2.46-1.54 3.07 4.32 6.71 8.24 9 13.08-3.52 4.9-6.77 9.99-8.94 15.65-1.86 8.9.19 18.43-3.52 26.97-1.19 3.52-3.8 7.07-2.69 10.93 1.8 3.76 6.43 4.25 9.13 7.08 3.45 3.33 6.64 7.18 11.14 9.14 5.53 1.94 11.68-.08 15.77-4.1.38-1.21.77-2.42 1.17-3.63-4.54 5.54-12.69 6.67-18.88 3.4-1.37-1.03-3.63-2.51-3.08-4.47.16-.3.49-.89.65-1.19.08-4.64-1.23-9.18-2.32-13.65-.24-1.35-.95-2.46-2.38-2.72.92 5.43 1.66 10.95 3.64 16.11-1.86.59-3.53-1.03-5.21-1.62-2.61-1.68-5.89-2.68-7.77-5.27.39-5.53 3.63-10.49 4.54-15.99 2.15-6.09.79-12.65 2.25-18.82 2.18-5.8 4.47-12.16 9.68-15.95-1.78-3.9-3.42-7.98-6.4-11.16-1.88-2.39-4.22-4.85-4.66-7.95 2.4-5.03 7.1-9.35 12.84-9.84 3.56.39 5.9 3.48 7.48 6.41 1.12 3.31.2 7.04 1.8 10.26 1.55 3.75 4.6 8.19 1.73 12.11-3.29 4.31-5.38 9.29-6.76 14.5-1.8 6.44-6.27 11.9-7.24 18.58.18 3.14 1.24 6.15 2.25 9.1 1.59 4.03 2.98 8.36 6.2 11.44 2.73 3.21 6.75 4.75 10.53 6.34-1.65-4.37-7.5-4.41-9.61-8.5-1.95-3.93-3.17-8.25-5.76-11.84-1.85-5.13.55-10.27 2.04-15.14 1.4-2.02 3.64-3.28 5.58-4.73.01-1.02.02-3.08.03-4.1-1.34 1.91-2.56 3.9-4.03 5.73.91-2.75 1.86-5.48 2.74-8.24.54.75 1.64 2.26 2.19 3.01-.24-1.6-.46-3.18-.75-4.77.94-2.41 1.71-4.88 2.65-7.29l2.12.92c.05-1.19.08-2.38.11-3.56.34-.34 1.01-1.02 1.35-1.36.16-2.23.34-4.45.47-6.68.66.01 1.97.02 2.63.02-.31 9.31-2.45 18.74-.31 28 .5-.32 1.51-.94 2.01-1.25-.35-2.37-.74-4.73-1.06-7.11 4.58-2.24 8.88-5.06 13.6-7.01 2.08 1.06 4.03 2.46 5.61 4.19.58 2.32.54 4.73.74 7.1-11.86 7.18-24.2 13.58-36.3 20.34.03.29.08.87.11 1.16 1.57 1.12 3.01-.68 4.45-1.23 11.11-6.63 22.78-12.31 33.77-19.14-.09-3.56-.33-7.12-1.2-10.58-2.16-1.47-4.27-3-6.28-4.66-4.95 2.18-9.55 5.05-14.37 7.48 1.4-5.85.07-11.77.18-17.66 3.36-1.82 7.33-2.38 10.41-4.73 3.55-2.96 8.47-4.29 10.89-8.52-.17 7.88-3.7 15.77-10.24 20.37 1.75-.25 3.81.21 5.25-1.07 3.01-2.36 3.62-6.39 5.49-9.54 1.9-2.82.25-6.75 2.54-9.38 2.3-2.68 4.81-5.19 6.97-8.01 1.89.8 3.8 1.53 5.75 2.17.35-.53 1.03-1.6 1.37-2.13-3.06.2-5.24-2.34-8-2.92-6.44 1.13-12.63-1.46-18.74-3.11.92 2.86 4.1 3.48 6.56 4.41.59.83 1.18 1.65 1.78 2.47-.19 2.9.01 6.27-2.33 8.44-6.42 5.59-14.95 7.31-22.92 9.52-2-5.75-2.36-12.27-6.34-17.15.49-2.16.56-4.37.06-6.53 1.99-1.25 4.14-2.23 6.37-2.95 2.77 1.97 6.22 2.1 9.44 2.75 1.02-.23 2.04-.47 3.06-.7.59.41 1.78 1.24 2.37 1.66 2.84-1.32 1.49-4.69 1.84-7.15.13-5.95 2.58-12.43 8.57-14.68 4.42 2.28 9.03 4.16 13.45 6.42 3.15 1.69 5.32 4.64 7.99 6.94 1.88 1.72 4.44 3.44 4.39 6.3.52 3.3-2.35 5.51-3.63 8.21-1.69 3.51-4.94 5.91-6.64 9.41-2.37 4.73-6.63 8.06-9.28 12.6 2.78 1.49 4.74 3.93 6.16 6.7 1.84 3.53 5.33 5.57 8.64 7.51-.41 1.7-.63 3.47-1.25 5.12-1.51.53-3.07.85-4.61 1.24-3.01-1.96-6.15-3.72-9.44-5.17.25.53.75 1.6 1 2.13 3.18 2.26 6.56 4.33 10.21 5.76 1.89-.82 3.93-1.45 5.54-2.79.74-1.98 1.16-4.08 1.29-6.18-1.4-3.36-5.72-3.61-7.8-6.37-2.39-2.83-3.88-6.99-7.99-7.7 1.7-1.78 3.44-3.52 5.07-5.36 2.88-3.24 4.55-7.37 7.62-10.47 2.3-2.22 3.09-5.46 5.24-7.8 1.82-2.07 2.75-4.95 2.35-7.69-1-4.53-5.52-6.66-8.39-9.87-4.38-4.7-10.59-6.8-16.28-9.42-1.09-3.56-5.1-1.73-7.44-.79.04-1.85-1.1-3.53-2.83-4.2-4.58-1.66-9.41-2.48-14.22-3.15-2.42-.63-4.84-1.32-7.38-1.23 0-2.06-.26-4.62-2.36-5.64-2.35-.33-4.74-.2-7.1-.46-.77-1.7-1.43-3.46-2.45-5.03-2.38-3.88-6.96-5.93-8.57-10.35-3.05-4.75-5.65-10.07-10.06-13.72 2.19-5.25 4.81-10.44 5.45-16.18.29-6.07-3.32-11.89-1.67-17.97 1.23-7.46.55-15.13-1.93-22.27-2.02.5-2.78 2.1-1.55 3.85m-12.71 3.02c-.39 3.08-.5 6.19-.5 9.29l.73.21c.3-.14.91-.44 1.21-.59.34-3.43.9-6.84 1.33-10.26-.69.34-2.07 1.01-2.77 1.35m18.97 88.36c5.32-1.41 9.82-5.06 15.45-5.48-5.66-1.72-11.12 2.23-15.45 5.48m6.25 3.5c3.7-2.69 7.92-4.46 12.06-6.33-4.98-1.12-9.15 2.79-12.06 6.33m-2.31 7.78c4.1-2.69 8.32-5.23 12.99-6.8 1.93-.49 2.57-2.45 3.09-4.13-5.38 3.47-13.65 4.19-16.08 10.93m-9.55 4.04c2.17-1.31 4.07-4.06 2.28-6.49-1.2 1.99-2.06 4.17-2.28 6.49m18.53-1.16c-.25 1.76-.55 3.51-.81 5.27 2.35 0 2.91-1.08 1.69-3.24 1.44-.82 2.86-1.65 4.28-2.5-.52-.42-1.03-.83-1.54-1.24-1.21.56-2.4 1.16-3.62 1.71m40.44 5.84c1.06 1.99 2.01 5.44 4.93 4.72-1.11-2.06-2.78-3.76-4.93-4.72m9.06.1c.76 3.12 3.06 5.57 5.49 7.55 2.16 1.86 5.19.99 7.75.73.05-.92.11-1.83.18-2.74-1.82.24-3.65.54-5.49.47-3.08-1.34-5.09-4.27-7.93-6.01m.55 21.73c-1.45 1.89-3.03 3.67-4.84 5.21-.08.32-.24.96-.33 1.28.44.01 1.3.04 1.73.05 1.61-1.64 3.37-3.24 4.36-5.36-.23-.29-.69-.88-.92-1.18m-46.32 14.29c3.02.63 3.07-3.19 3.51-5.21-2.03 1.02-2.6 3.32-3.51 5.21z"/><path d="M114.34 12.94c3.91-4.79 9.26-9.14 15.68-9.51 4.41 1 4.78 7.52 1.25 9.86-3.35 2.1-8.61 1.29-10.31 5.77 1.35.06 2.7.12 4.05.17l-1.27-1.07c3.27-1.12 6.77-1.95 10.21-1.05a56.524 56.524 0 00-6.58 6.64c-.79-1.16-1.57-2.32-2.35-3.49l-2.96-.96c.19 1.78 1.65 4.12-.07 5.63-3.01 2.74-7.63 1.38-10.54-.85.1-3.84.16-8.11 2.89-11.14zM130.19 23.99c3.4-4.57 8.81-8.6 14.75-8.09 1.84 1.51 3.02 3.8 3.65 6.06-1.78 9.18-8.53 17.33-17.72 19.74-1.91-.8-3.58-2.01-4.97-3.54.56-4.91 1.08-10.17 4.29-14.17zM132.56 67.06c.4-1.68 1.76-2.89 3.29-3.58 2.65 4 1.54 9.02 1.48 13.52.24 3.89-1.8 7.49-4.46 10.17-2.51-6.45-2.12-13.54-.31-20.11z"/><path d="M90.01 70.8c3.75-.8 7.65-3.37 11.47-1.37 3.98 2.35 7.83 4.93 11.54 7.68-.37 4.2-1.12 8.56.66 12.57-1.37.59-2.75 1.17-4.12 1.77-3.34-1.21-6.75-3.17-10.43-2.52.03.39.08 1.17.1 1.57 2.76.72 5.58 1.21 8.26 2.2-2.79 1.32-5.13 3.36-7.89 4.74l-.27-1.45c-1.15.56-3.45 1.67-4.6 2.22 2.94 1.44 5.72.34 8.28-1.24 5.1-1.64 9.21-6.34 14.97-5.47 1.35-1.77 2.75-3.5 4.14-5.24 1.49-.23 2.98-.38 4.47-.57-1.48-2.59-1.03-5.39 1.62-7.02 2.14 2.56 1.31 6.13 2.53 9.09.37-.14 1.11-.41 1.48-.55 2.15 2.18 3.65 4.84 5.38 7.34 2.56 1.81 5.41 3.25 7.48 5.7-2.36-.27-4.73-.53-7.08-.92.6.86 1.21 1.72 1.84 2.57 2.38-.02 4.77-.04 7.16.07l-1.11.29c2.15 4.21 4.42 8.47 8.12 11.57 3.14 2.45 4.87 6.11 6.78 9.51-2.72-.05-5.89-.71-7.85 1.69-4.93 1.42-9 4.82-12.55 8.39-3.28 3.21-4.31 7.86-6.9 11.55-1.49-3.69-3.17-7.53-6.36-10.08-2.59-2.08-4.71-4.82-7.8-6.2-2.42-1.37-5.49-.46-7.8-2.05-2.35.25-4.12-1.54-6.06-2.54.1.66.31 1.97.41 2.63 3.72 2.74 8.66 2.44 12.65 4.6 2.68 1.2 4.63 3.55 7.36 4.68 1.06 1.64 2.05 3.33 3.11 4.98-1.78-.67-3.43-.41-4.75.96 4.85.03 8.42 3.59 9.62 8.09-2.47-.51-4.62-1.86-6.81-3.03-.37 2.01 1.51 3.01 2.59 4.36.9 2.03 1.4 4.21 2.06 6.32-4.3-.8-8.95-3.15-10.39-7.58-1.22-3.74-5.47-4.58-8.79-5.42-6.45-1.62-12.65-4.09-18.81-6.54-1.92-.71-1.99-3.04-2.84-4.61l2.47-.12c-.43-2.72-.57-5.55-1.49-8.16-.39-.12-1.17-.36-1.57-.47.17 1.81.5 5.43.66 7.24-3.2-5.32-7.51-11.76-4.46-18.16-1.25-3.33-2.21-7.27-.2-10.51 1.59-3.02 5.32-3.4 8.14-4.66.68-2.32 1.46-4.62 2.48-6.82-3.64-1-8.38-.59-10.61-4.26-3.22-5.67-1.48-12.95 3.71-16.82m13.88 13.67c-1.72.76-3.56 1.18-5.33 1.78 1.52 1.22 3.57 1.43 5.37.7 4.38-1.3 4.04-6.83 6.23-10.14-3.49 1.1-3.98 5.26-6.27 7.66m15.64 8.6c1.76.23 3.53.28 5.3.24-.67-.65-1.34-1.31-2.01-1.97-1.12.53-2.19 1.15-3.29 1.73m-21.42-.03c-1.67 2.93 3.33.28 0 0m31.76 2.32c-.11.49-.34 1.46-.46 1.95 2.15-1.19 6.27-.63 6.05-4.06-1.93.52-3.8 1.23-5.59 2.11m-12 9.47c-2.3 1.42-4.81 2.49-7.02 4.08 2.91-.3 6.14-.51 8.46-2.53 2.05-1.84 4.18-3.6 6.55-5.02-.32-.64-.63-1.28-.92-1.94-2.67 1.37-4.74 3.58-7.07 5.41m15.57-4.42c.88 3.2 4.67 3.7 6.84 5.8.57 2.91.85 6.14 3.17 8.26 1.62 1.35 2.11 4.4 4.47 4.52.51-2.92-1.98-4.94-3.54-7.04-1.19-2.81-1.28-6.38-3.94-8.32-2.22-1.3-4.64-2.22-7-3.22m-31.84 7.17c2.45-1.4 4.82-3.99 7.94-2.73-.41-1.13-.78-2.27-1.19-3.39-2.58 1.54-7.12 2.19-6.75 6.12m24.04 5.71c1.41.76 2.89 1.35 4.44 1.78-3.12-3.54-.42-7.94.83-11.63-3.56 1.85-4.34 6.31-5.27 9.85m-30.55-2.18c5.48 2.74 5.02 9.84 5.43 15.06l-1.44 1.2c3.28 3.34 7.63 5.32 10.77 8.81 2.34 2.63 6.03 3.01 9.18 4.14 1.58.26 3.26 1.61 4.8.56.04-.25.12-.75.15-1.01-4.46-2.24-10.04-2.29-13.5-6.29-2.7-3.13-7.76-4.04-8.79-8.48 1.27.5 2.55.99 3.82 1.5.8-3.27-2.93-4.15-3.97-6.62-.44-3.2-.83-6.84 1.2-9.6 2.77 1.31 5.85 1.08 8.59-.17-2.61-2.35-6.77-1.6-9.93-.9-.3 2.04-.41 4.09-.66 6.13-.79-1.99-1.53-4.12-3.47-5.29.85-1.62 1.69-3.25 2.48-4.91-2.24 1.37-4.34 3.08-4.66 5.87m22.01 1.51c-.62 2.1-1.85 3.75-4.05 4.33-1.03-1.24-2.05-2.48-3.12-3.69-.02 1.82-1.16 4.45 1.49 4.96-.1.73-.29 2.2-.39 2.93 1.41.57 2.83 1.1 4.27 1.59 1.36-.77 2.73-1.53 4.09-2.3.1-.71.3-2.15.4-2.87-1.85 1.67-3.95 3.18-6.53 3.29-.13-1.25-.24-2.5-.34-3.75l.23.97c1.5-.73 3.01-1.46 4.52-2.17 1.47-1.43 3.25-2.46 4.97-3.55-1.85.05-3.7.14-5.54.26m12.58 2.59c.46 2.29 3.75 6.14 5.55 2.89-1.83-1-3.67-1.98-5.55-2.89m-3.13 6.44c1.55.71 3.14 1.34 4.72 1.98.32-.31.95-.91 1.27-1.22 1.4 1.24 2.81 2.47 4.21 3.71.01.44.04 1.33.06 1.77 1.58.33 3.16.72 4.74 1.1-1.11-3.31-4.04-5.62-6.6-7.83-2.8.07-5.67-.25-8.4.49z"/><path d="M93.8 141.08c6.77 2.14 13.14 5.76 20.29 6.49-.49.29-1.47.86-1.96 1.15.76.58 2.29 1.75 3.05 2.34-3.38 1.53-6.82 3.04-9.82 5.27-7.76 3.29-15.02 7.64-22.48 11.56-1.87-1.29-3.8-2.54-5.41-4.17-.39-2.22-.26-4.48-.28-6.72 4.95-2.65 9.84-5.42 14.73-8.17 3.06-1.3 1.44-5.23 1.88-7.75zM133.86 144.99c1.66 2.31 2.82 4.93 3.3 7.74.93 1.26 1.6 2.67 1.94 4.2-2.39-.22-4.54-1.29-6.6-2.45-.09-.49-.28-1.47-.37-1.97 1.49-.52 2.97-1.06 4.47-1.58-.91-1.99-1.91-3.93-2.74-5.94zM202.04 163.76c2.35.6 4.77.87 7.2.81-2.51 2.65-5.04 5.29-7.11 8.31.17-3.02 1.26-6.21-.09-9.12z"/></g><g fill="#333"><path d="M126.83 1.72c3.47-1 7.95.68 8.95 4.38 1.05 2.36.23 4.9-.44 7.22-1.07.47-2.13.97-3.17 1.49l1.71 2.17c3.47-2.06 7.29-3.68 11.42-3.37 2.95 1.95 5.44 4.83 5.24 8.59-.74 7.63-5.55 14.38-11.8 18.59-3.88 2.41-9.38 4.27-13.12.61-1.13-2.98-2.55-6.47-1.06-9.58 1.05-2.36 1.44-4.91 1.47-7.48-3.5 2.03-7.45 4.07-11.64 3.18-2.3-.83-4.12-2.96-4.55-5.37-.33-9.82 7.83-18.18 16.99-20.43m-12.49 11.22c-2.73 3.03-2.79 7.3-2.89 11.14 2.91 2.23 7.53 3.59 10.54.85 1.72-1.51.26-3.85.07-5.63l2.96.96c.78 1.17 1.56 2.33 2.35 3.49 2-2.39 4.21-4.61 6.58-6.64-3.44-.9-6.94-.07-10.21 1.05l1.27 1.07c-1.35-.05-2.7-.11-4.05-.17 1.7-4.48 6.96-3.67 10.31-5.77 3.53-2.34 3.16-8.86-1.25-9.86-6.42.37-11.77 4.72-15.68 9.51m15.85 11.05c-3.21 4-3.73 9.26-4.29 14.17 1.39 1.53 3.06 2.74 4.97 3.54 9.19-2.41 15.94-10.56 17.72-19.74-.63-2.26-1.81-4.55-3.65-6.06-5.94-.51-11.35 3.52-14.75 8.09z"/><path d="M142.42 41.64c-1.23-1.75-.47-3.35 1.55-3.85a45.427 45.427 0 011.93 22.27c-1.65 6.08 1.96 11.9 1.67 17.97-.64 5.74-3.26 10.93-5.45 16.18 4.41 3.65 7.01 8.97 10.06 13.72 1.61 4.42 6.19 6.47 8.57 10.35 1.02 1.57 1.68 3.33 2.45 5.03 2.36.26 4.75.13 7.1.46 2.1 1.02 2.36 3.58 2.36 5.64 2.54-.09 4.96.6 7.38 1.23 4.81.67 9.64 1.49 14.22 3.15 1.73.67 2.87 2.35 2.83 4.2 2.34-.94 6.35-2.77 7.44.79 5.69 2.62 11.9 4.72 16.28 9.42 2.87 3.21 7.39 5.34 8.39 9.87.4 2.74-.53 5.62-2.35 7.69-2.15 2.34-2.94 5.58-5.24 7.8-3.07 3.1-4.74 7.23-7.62 10.47-1.63 1.84-3.37 3.58-5.07 5.36 4.11.71 5.6 4.87 7.99 7.7 2.08 2.76 6.4 3.01 7.8 6.37-.13 2.1-.55 4.2-1.29 6.18-1.61 1.34-3.65 1.97-5.54 2.79-3.65-1.43-7.03-3.5-10.21-5.76-.25-.53-.75-1.6-1-2.13 3.29 1.45 6.43 3.21 9.44 5.17 1.54-.39 3.1-.71 4.61-1.24.62-1.65.84-3.42 1.25-5.12-3.31-1.94-6.8-3.98-8.64-7.51-1.42-2.77-3.38-5.21-6.16-6.7 2.65-4.54 6.91-7.87 9.28-12.6 1.7-3.5 4.95-5.9 6.64-9.41 1.28-2.7 4.15-4.91 3.63-8.21.05-2.86-2.51-4.58-4.39-6.3-2.67-2.3-4.84-5.25-7.99-6.94-4.42-2.26-9.03-4.14-13.45-6.42-5.99 2.25-8.44 8.73-8.57 14.68-.35 2.46 1 5.83-1.84 7.15-.59-.42-1.78-1.25-2.37-1.66-1.02.23-2.04.47-3.06.7-3.22-.65-6.67-.78-9.44-2.75-2.23.72-4.38 1.7-6.37 2.95.5 2.16.43 4.37-.06 6.53 3.98 4.88 4.34 11.4 6.34 17.15 7.97-2.21 16.5-3.93 22.92-9.52 2.34-2.17 2.14-5.54 2.33-8.44-.6-.82-1.19-1.64-1.78-2.47-2.46-.93-5.64-1.55-6.56-4.41 6.11 1.65 12.3 4.24 18.74 3.11 2.76.58 4.94 3.12 8 2.92-.34.53-1.02 1.6-1.37 2.13-1.95-.64-3.86-1.37-5.75-2.17-2.16 2.82-4.67 5.33-6.97 8.01-2.29 2.63-.64 6.56-2.54 9.38-1.87 3.15-2.48 7.18-5.49 9.54-1.44 1.28-3.5.82-5.25 1.07 6.54-4.6 10.07-12.49 10.24-20.37-2.42 4.23-7.34 5.56-10.89 8.52-3.08 2.35-7.05 2.91-10.41 4.73-.11 5.89 1.22 11.81-.18 17.66 4.82-2.43 9.42-5.3 14.37-7.48 2.01 1.66 4.12 3.19 6.28 4.66.87 3.46 1.11 7.02 1.2 10.58-10.99 6.83-22.66 12.51-33.77 19.14-1.44.55-2.88 2.35-4.45 1.23-.03-.29-.08-.87-.11-1.16 12.1-6.76 24.44-13.16 36.3-20.34-.2-2.37-.16-4.78-.74-7.1-1.58-1.73-3.53-3.13-5.61-4.19-4.72 1.95-9.02 4.77-13.6 7.01.32 2.38.71 4.74 1.06 7.11-.5.31-1.51.93-2.01 1.25-2.14-9.26 0-18.69.31-28-.66 0-1.97-.01-2.63-.02-.13 2.23-.31 4.45-.47 6.68-.34.34-1.01 1.02-1.35 1.36-.03 1.18-.06 2.37-.11 3.56l-2.12-.92c-.94 2.41-1.71 4.88-2.65 7.29.29 1.59.51 3.17.75 4.77-.55-.75-1.65-2.26-2.19-3.01-.88 2.76-1.83 5.49-2.74 8.24 1.47-1.83 2.69-3.82 4.03-5.73-.01 1.02-.02 3.08-.03 4.1-1.94 1.45-4.18 2.71-5.58 4.73-1.49 4.87-3.89 10.01-2.04 15.14 2.59 3.59 3.81 7.91 5.76 11.84 2.11 4.09 7.96 4.13 9.61 8.5-3.78-1.59-7.8-3.13-10.53-6.34-3.22-3.08-4.61-7.41-6.2-11.44-1.01-2.95-2.07-5.96-2.25-9.1.97-6.68 5.44-12.14 7.24-18.58 1.38-5.21 3.47-10.19 6.76-14.5 2.87-3.92-.18-8.36-1.73-12.11-1.6-3.22-.68-6.95-1.8-10.26-1.58-2.93-3.92-6.02-7.48-6.41-5.74.49-10.44 4.81-12.84 9.84.44 3.1 2.78 5.56 4.66 7.95 2.98 3.18 4.62 7.26 6.4 11.16-5.21 3.79-7.5 10.15-9.68 15.95-1.46 6.17-.1 12.73-2.25 18.82-.91 5.5-4.15 10.46-4.54 15.99 1.88 2.59 5.16 3.59 7.77 5.27 1.68.59 3.35 2.21 5.21 1.62-1.98-5.16-2.72-10.68-3.64-16.11 1.43.26 2.14 1.37 2.38 2.72 1.09 4.47 2.4 9.01 2.32 13.65-.16.3-.49.89-.65 1.19-.55 1.96 1.71 3.44 3.08 4.47 6.19 3.27 14.34 2.14 18.88-3.4-.4 1.21-.79 2.42-1.17 3.63-4.09 4.02-10.24 6.04-15.77 4.1-4.5-1.96-7.69-5.81-11.14-9.14-2.7-2.83-7.33-3.32-9.13-7.08-1.11-3.86 1.5-7.41 2.69-10.93 3.71-8.54 1.66-18.07 3.52-26.97 2.17-5.66 5.42-10.75 8.94-15.65-2.29-4.84-5.93-8.76-9-13.08-.82.52-1.64 1.03-2.46 1.54.79-5.5 4.09-10.39 7.89-14.31 3.71-3.51 10.11-6.34 14.5-2.4-3.25-4.41-.87-9.85 1.7-13.93-.33-2.49-.51-5.01-.07-7.5l1.77-.08c-.05 2.5.16 5 .18 7.51-.54 2.69-1.68 5.22-2.67 7.76l1.39-1.41-.48 1.28c1.18-.5 2.36-1 3.55-1.49 1.56-5.6 7.72-9.29 13.34-9.31-3.27 3.58-8.71 4.26-11.41 8.57 3.85 3.83 9.37 3.42 14.36 3.27.51-6.95 1.93-14.37 7.13-19.45-6.48-3.61-13.66-5.68-20.96-6.75-1.45-.38-3.2.01-4.41-.98-.94-1.62-.61-3.7-1.63-5.27-5.84-2.17-12.57-1.67-17.88 1.69-7.01 3.48-13.12 9.45-15.31 17.13 1.1 3.66 3.31 7.1 4.9 10.65-.54 1.75-1.3 3.63.38 5.04-.2.5-.62 1.49-.83 1.98.77 4.22 2.3 8.22 3.99 12.14-5.01-2.46-6.44-8.76-6.15-13.89-1.33-.55-2.61-1.27-4.03-1.55-2.28.14-4.56 1.67-6.78.54-3.45-1.09-6.02-3.71-8.46-6.25-.33-1.45-.63-2.94-1.38-4.24-.99-.13-1.98.08-2.95.19.88 4.92-5.32 7.14-9.11 8.23-.85 1-1.76 1.98-2.97 2.55-6.73 3.76-13.72 7.03-20.4 10.87-2.45-1.68-4.85-3.42-7.21-5.22-.34-3.14-1.13-6.33-.31-9.46 5.46-2.89 10.9-5.84 16.11-9.14.4-2.11.39-4.31.03-6.42-1.74-3.89-5.88-7.08-4.82-11.79l-.94.28c-1.58-3.89-2.66-7.99-2.51-12.22-2.86-2.82-6.25-5.07-8.91-8.08-1.5-4.27-.46-9.04 2.81-12.19 3.69-.95 6.46-4.37 10.42-4.27-2.6 3.83-7.68 4.6-10.67 7.99-1.76 2.3-.83 5.32-.49 7.92 2.43 1.97 4.76 4.05 7.17 6.05 0-3.45-1.22-6.95.12-10.3 1.5-1.42 2.89-2.94 4.25-4.5 1.71-.45 3.42-.93 5.13-1.42.22-1.28.4-2.56.59-3.84-.94-.61-1.88-1.21-2.82-1.81-5.62-.71-7.3-6.96-7.91-11.7.69-4.91 5.09-7.78 8.24-11.13 2.55-2.62 6.76-2.74 9.87-1.05 5.4 2.13 13.17 3.89 13.98 10.81-.08 3.7-.75 7.45.63 11.05 2.07-.84 4.77-1.1 5.81-3.39 1.8-3.32 4.24-6.21 7.28-8.48.21-3.85.95-7.67 2.75-11.12-1.9-3.16-2.89-6.81-2.78-10.5.32-.14.94-.43 1.26-.57 1.88 2.53 1.74 5.91 2.93 8.76.84-1.81 1.65-3.64 2.48-5.45 6.91 8.22 4.24 19.86.85 29.02 1.03 2.22 2.48 4.2 4.05 6.08.84-4.91 3.95-9.12 4.38-14.15 1.44-5.55-1.01-10.96-2.12-16.31 1.87-7.16 3.67-15.24-.05-22.14m-9.86 25.42c-1.81 6.57-2.2 13.66.31 20.11 2.66-2.68 4.7-6.28 4.46-10.17.06-4.5 1.17-9.52-1.48-13.52-1.53.69-2.89 1.9-3.29 3.58M90.01 70.8c-5.19 3.87-6.93 11.15-3.71 16.82 2.23 3.67 6.97 3.26 10.61 4.26-1.02 2.2-1.8 4.5-2.48 6.82-2.82 1.26-6.55 1.64-8.14 4.66-2.01 3.24-1.05 7.18.2 10.51-3.05 6.4 1.26 12.84 4.46 18.16-.16-1.81-.49-5.43-.66-7.24.4.11 1.18.35 1.57.47.92 2.61 1.06 5.44 1.49 8.16l-2.47.12c.85 1.57.92 3.9 2.84 4.61 6.16 2.45 12.36 4.92 18.81 6.54 3.32.84 7.57 1.68 8.79 5.42 1.44 4.43 6.09 6.78 10.39 7.58-.66-2.11-1.16-4.29-2.06-6.32-1.08-1.35-2.96-2.35-2.59-4.36 2.19 1.17 4.34 2.52 6.81 3.03-1.2-4.5-4.77-8.06-9.62-8.09 1.32-1.37 2.97-1.63 4.75-.96-1.06-1.65-2.05-3.34-3.11-4.98-2.73-1.13-4.68-3.48-7.36-4.68-3.99-2.16-8.93-1.86-12.65-4.6-.1-.66-.31-1.97-.41-2.63 1.94 1 3.71 2.79 6.06 2.54 2.31 1.59 5.38.68 7.8 2.05 3.09 1.38 5.21 4.12 7.8 6.2 3.19 2.55 4.87 6.39 6.36 10.08 2.59-3.69 3.62-8.34 6.9-11.55 3.55-3.57 7.62-6.97 12.55-8.39 1.96-2.4 5.13-1.74 7.85-1.69-1.91-3.4-3.64-7.06-6.78-9.51-3.7-3.1-5.97-7.36-8.12-11.57l1.11-.29c-2.39-.11-4.78-.09-7.16-.07-.63-.85-1.24-1.71-1.84-2.57 2.35.39 4.72.65 7.08.92-2.07-2.45-4.92-3.89-7.48-5.7-1.73-2.5-3.23-5.16-5.38-7.34-.37.14-1.11.41-1.48.55-1.22-2.96-.39-6.53-2.53-9.09-2.65 1.63-3.1 4.43-1.62 7.02-1.49.19-2.98.34-4.47.57-1.39 1.74-2.79 3.47-4.14 5.24-5.76-.87-9.87 3.83-14.97 5.47-2.56 1.58-5.34 2.68-8.28 1.24 1.15-.55 3.45-1.66 4.6-2.22l.27 1.45c2.76-1.38 5.1-3.42 7.89-4.74-2.68-.99-5.5-1.48-8.26-2.2-.02-.4-.07-1.18-.1-1.57 3.68-.65 7.09 1.31 10.43 2.52 1.37-.6 2.75-1.18 4.12-1.77-1.78-4.01-1.03-8.37-.66-12.57-3.71-2.75-7.56-5.33-11.54-7.68-3.82-2-7.72.57-11.47 1.37m3.79 70.28c-.44 2.52 1.18 6.45-1.88 7.75-4.89 2.75-9.78 5.52-14.73 8.17.02 2.24-.11 4.5.28 6.72 1.61 1.63 3.54 2.88 5.41 4.17 7.46-3.92 14.72-8.27 22.48-11.56 3-2.23 6.44-3.74 9.82-5.27-.76-.59-2.29-1.76-3.05-2.34.49-.29 1.47-.86 1.96-1.15-7.15-.73-13.52-4.35-20.29-6.49m40.06 3.91c.83 2.01 1.83 3.95 2.74 5.94-1.5.52-2.98 1.06-4.47 1.58.09.5.28 1.48.37 1.97 2.06 1.16 4.21 2.23 6.6 2.45-.34-1.53-1.01-2.94-1.94-4.2-.48-2.81-1.64-5.43-3.3-7.74m68.18 18.77c1.35 2.91.26 6.1.09 9.12 2.07-3.02 4.6-5.66 7.11-8.31-2.43.06-4.85-.21-7.2-.81z"/><path d="M129.71 44.66c.7-.34 2.08-1.01 2.77-1.35-.43 3.42-.99 6.83-1.33 10.26-.3.15-.91.45-1.21.59l-.73-.21c0-3.1.11-6.21.5-9.29zM103.89 84.47c2.29-2.4 2.78-6.56 6.27-7.66-2.19 3.31-1.85 8.84-6.23 10.14-1.8.73-3.85.52-5.37-.7 1.77-.6 3.61-1.02 5.33-1.78zM119.53 93.07c1.1-.58 2.17-1.2 3.29-1.73.67.66 1.34 1.32 2.01 1.97-1.77.04-3.54-.01-5.3-.24zM98.11 93.04c3.33.28-1.67 2.93 0 0zM129.87 95.36c1.79-.88 3.66-1.59 5.59-2.11.22 3.43-3.9 2.87-6.05 4.06.12-.49.35-1.46.46-1.95zM117.87 104.83c2.33-1.83 4.4-4.04 7.07-5.41.29.66.6 1.3.92 1.94-2.37 1.42-4.5 3.18-6.55 5.02-2.32 2.02-5.55 2.23-8.46 2.53 2.21-1.59 4.72-2.66 7.02-4.08zM133.44 100.41c2.36 1 4.78 1.92 7 3.22 2.66 1.94 2.75 5.51 3.94 8.32 1.56 2.1 4.05 4.12 3.54 7.04-2.36-.12-2.85-3.17-4.47-4.52-2.32-2.12-2.6-5.35-3.17-8.26-2.17-2.1-5.96-2.6-6.84-5.8zM101.6 107.58c-.37-3.93 4.17-4.58 6.75-6.12.41 1.12.78 2.26 1.19 3.39-3.12-1.26-5.49 1.33-7.94 2.73zM125.64 113.29c.93-3.54 1.71-8 5.27-9.85-1.25 3.69-3.95 8.09-.83 11.63-1.55-.43-3.03-1.02-4.44-1.78z"/><path d="M95.09 111.11c.32-2.79 2.42-4.5 4.66-5.87-.79 1.66-1.63 3.29-2.48 4.91 1.94 1.17 2.68 3.3 3.47 5.29.25-2.04.36-4.09.66-6.13 3.16-.7 7.32-1.45 9.93.9-2.74 1.25-5.82 1.48-8.59.17-2.03 2.76-1.64 6.4-1.2 9.6 1.04 2.47 4.77 3.35 3.97 6.62-1.27-.51-2.55-1-3.82-1.5 1.03 4.44 6.09 5.35 8.79 8.48 3.46 4 9.04 4.05 13.5 6.29-.03.26-.11.76-.15 1.01-1.54 1.05-3.22-.3-4.8-.56-3.15-1.13-6.84-1.51-9.18-4.14-3.14-3.49-7.49-5.47-10.77-8.81l1.44-1.2c-.41-5.22.05-12.32-5.43-15.06z"/><path d="M117.1 112.62c1.84-.12 3.69-.21 5.54-.26-1.72 1.09-3.5 2.12-4.97 3.55-1.51.71-3.02 1.44-4.52 2.17l-.23-.97c.1 1.25.21 2.5.34 3.75 2.58-.11 4.68-1.62 6.53-3.29-.1.72-.3 2.16-.4 2.87-1.36.77-2.73 1.53-4.09 2.3-1.44-.49-2.86-1.02-4.27-1.59.1-.73.29-2.2.39-2.93-2.65-.51-1.51-3.14-1.49-4.96 1.07 1.21 2.09 2.45 3.12 3.69 2.2-.58 3.43-2.23 4.05-4.33zM129.68 115.21c1.88.91 3.72 1.89 5.55 2.89-1.8 3.25-5.09-.6-5.55-2.89zM126.55 121.65c2.73-.74 5.6-.42 8.4-.49 2.56 2.21 5.49 4.52 6.6 7.83-1.58-.38-3.16-.77-4.74-1.1-.02-.44-.05-1.33-.06-1.77-1.4-1.24-2.81-2.47-4.21-3.71-.32.31-.95.91-1.27 1.22-1.58-.64-3.17-1.27-4.72-1.98zM148.68 133.02c4.33-3.25 9.79-7.2 15.45-5.48-5.63.42-10.13 4.07-15.45 5.48zM154.93 136.52c2.91-3.54 7.08-7.45 12.06-6.33-4.14 1.87-8.36 3.64-12.06 6.33zM152.62 144.3c2.43-6.74 10.7-7.46 16.08-10.93-.52 1.68-1.16 3.64-3.09 4.13-4.67 1.57-8.89 4.11-12.99 6.8zM143.07 148.34c.22-2.32 1.08-4.5 2.28-6.49 1.79 2.43-.11 5.18-2.28 6.49zM161.6 147.18c1.22-.55 2.41-1.15 3.62-1.71.51.41 1.02.82 1.54 1.24-1.42.85-2.84 1.68-4.28 2.5 1.22 2.16.66 3.24-1.69 3.24.26-1.76.56-3.51.81-5.27zM202.04 153.02c2.15.96 3.82 2.66 4.93 4.72-2.92.72-3.87-2.73-4.93-4.72zM211.1 153.12c2.84 1.74 4.85 4.67 7.93 6.01 1.84.07 3.67-.23 5.49-.47-.07.91-.13 1.82-.18 2.74-2.56.26-5.59 1.13-7.75-.73-2.43-1.98-4.73-4.43-5.49-7.55zM211.65 174.85c.23.3.69.89.92 1.18-.99 2.12-2.75 3.72-4.36 5.36-.43-.01-1.29-.04-1.73-.05.09-.32.25-.96.33-1.28 1.81-1.54 3.39-3.32 4.84-5.21zM165.33 189.14c.91-1.89 1.48-4.19 3.51-5.21-.44 2.02-.49 5.84-3.51 5.21z"/></g></svg>