<svg width="368" height="300" viewBox="0 0 276 225" xmlns="http://www.w3.org/2000/svg"><g fill="#FFF"><path d="M0 0h276v225H0V0m61.24 63.96c-.55 3.33-.19 6.73-.32 10.09-.57-.06-1.7-.18-2.27-.25-2.86-3.46-7.56-4.43-11.78-5.12-3.98-.09-9.4 1.7-10.01 6.23-.86 4.37-1.6 8.77-2.2 13.19-1.67 9.72 2.49 19.84-1.26 29.32-3.36 1.46-6.88 2.6-10.57 2.77-2.7.5-6.41 2.56-5.51 5.85.25 5.98 7.65 6.06 11 9.71 2.89.94 5.62 2.36 8.54 3.21 3.3.6 6.46-.87 9.58-1.7 1.61-4.85-.52-9.87.53-14.77.56-5.11 1.7-10.13 2.33-15.23 1 .72 2 1.42 3 2.14 2.46 2.47 6.02 3.43 9.02 5.1.3 7.51.57 15.03.36 22.55-6.01 2.98-11.98 6.04-17.99 9.03 0 2.87.26 5.72.67 8.56 2.49 1.67 5.01 3.3 7.56 4.89 13.98-6.57 28-13.07 41.94-19.74 1.63-.59 3.51-2.1 5.22-.9 4.2 2.37 8.07 5.28 12.31 7.6 6.84 3.4 13.28 7.57 19.57 11.9.56 6.57.87 13.17.9 19.77-.01 4.26.99 8.55.28 12.79-5.71 3.46-12.15 5.6-17.75 9.24-.43 2.77-.17 5.63.35 8.37 2.09 2.14 4.77 3.65 7.38 5.06 3.57-.94 6.73-3.08 10.16-4.47 12.66-6.24 25.68-11.74 38.19-18.28-.12-3.47-.38-6.94-1.14-10.33-2.52-1.36-4.77-3.27-7.45-4.29-5.41 1.64-10.31 4.8-15.6 6.86.18-5.21.35-10.43.13-15.64l-1.01-.36c-.87 8.89-2.48 18.02-.46 26.87 3.04-1.99 1.13-5.58.68-8.39 5.08-2.56 10.3-4.82 15.46-7.2 2.28 1.42 4.75 2.63 6.72 4.47.41 2.36.44 4.77.56 7.17-15.4 7.19-30.7 14.62-46.19 21.63-1.86-1.32-3.8-2.52-5.57-3.95-.92-2.05-.29-4.45-.4-6.63 6.16-2.81 12.14-5.97 18.13-9.1.92-10.41-.44-20.81-.33-31.23 2.03 1 4.12 1.95 6.42 2.14l-.1-.92c-.16-.34-.48-1.01-.64-1.34-5.8-2.45-9.97-7.38-15.59-10.11-2.52-1.26-4.53-3.3-6.93-4.74-9.51-5.58-19.7-9.93-28.73-16.33-4.03-3.1-8.91-4.78-12.94-7.86-8.12-5.71-17.26-9.84-25.09-15.97-2.39-2.15-5.29-3.59-7.88-5.48l-2.48-.52c0-1.49-.05-2.98.08-4.46 1.53-1.21 3.25-2.16 4.82-3.32 4.79 2.42 7.3 7.88 12.51 9.82.16 5.97 6.77 6.73 10.99 8.81 5.02 1.63 9.87 3.76 15 5.01 2.67 1.39 4.56 4.05 7.53 4.92 2.97-.34 5.91-1.57 8.93-1.03 4.76 1.72 8.22 5.5 11.33 9.32.79.87.4 2.14.56 3.2 2.03 2.41 3.97 4.91 6.05 7.29 2.49 2.81 6.4 3.36 9.67 4.83 2.9 2.45 4.88 5.8 6.5 9.2 2.25 3.79 5.4 7.04 9.22 9.29-.26.18-.77.54-1.03.72-.02.2-.04.61-.06.81 3.44 1.18 6.35 3.6 9.98 4.24 3.46.41 5.42 3.91 8.78 4.54 5.78 1.22 11.57 2.42 17.25 4.1 7.38 2.34 15.28 2.47 22.61 5 3.6 1.55 7.25 4.05 11.37 3.29 3.37-.59 7.19-.65 9.73-3.29 2.37-2.3 5.99-4.16 5.77-7.98-2.49 2.4-4.92 4.89-7.71 6.96-2.24 1.79-5.24 1.88-7.93 2.48-3.96.99-7.12-2.26-10.8-3.03-3.81-1.89-8.03-2.79-12.11-3.83-5.88.67-11.34-2.01-16.97-3.19-4.23-1.25-9-1.2-12.65-3.96-6.91-4.97-14.98-8.42-20.96-14.62-3.3-3.94-5.19-8.88-8.57-12.77-3.04-1.76-6.73-2.09-9.66-4.08-2.9-2.66-5.06-6.02-6.54-9.66-3.41-6.7-10.64-9.77-16.46-13.95-.98-5.75-.8-13.03 4.25-16.93 4.84-4.39 11.71-4.74 17.61-6.93 3.19 1.61 6.64 2.9 9.23 5.46 2.61-1.52 6.81.13 5.58 3.76 1.14-1.38 2.08-2.91 2.89-4.51 5.94-.55 10.06 4.61 15.21 6.64.08-.81.16-1.63.23-2.44-4.02-.28-5.44-4.96-9.28-5.54-3.03-.79-6.14.08-9.11.72-1.43-.37-2.87-.72-4.31-1.05-3.84-2.09-8.39-3.36-10.88-7.25-3.16-1.75-6.18-3.72-9.01-5.99-5.33-1.92-10.12-4.91-15.15-7.44-4.28-4.36-9.64-7.31-14.65-10.71-5.82-2.91-14.39-4.29-18.64 1.89m45.71 30.79c.05.38.16 1.14.21 1.52 1.27-.18 2.53-.57 3.82-.43 6.26 2.23 13.12 2.26 19.19 5.16-2.04.45-4.07.88-6.1 1.34a14.41 14.41 0 00-13.47 2.48l-.08 1.91c1.81-1.03 3.6-2.06 5.4-3.11 2.45.19 4.91.35 7.36.02 2.53.1 5.07.32 7.61.21 3.04-1.01 5.39-3.38 7.44-5.74-.12-.25-.35-.75-.47-1-2.59.65-4.03 3.62-6.81 4.14-.34-1.28-.68-2.57-1.33-3.73-1.23-.04-2.36.89-3.62.43-6.4-1-12.67-2.82-19.15-3.2m-5.71 7.34c-.27 1.53 2.36 2.11 3.48 1.63.12-1.4-2.38-2.31-3.48-1.63m46.3 2.42c3.54.39 7.62-1.34 10.62 1.28 5.82 3.34 8.07 10.36 13.99 13.52.17-2.51-2.21-3.81-3.54-5.57 4.09 1.61 8.42 2.89 11.94 5.63 1.87 1.36 4.13 1.97 6.19 2.99 3.55 1.59 5.92 4.85 8.11 7.94 1.88 2.54 1.36 6.41 4.09 8.38 2.46 1.99 5.15 3.75 7.22 6.19 2.37 2.42 2.31 6.07 3.87 8.93 1.1 1.83 2.53 3.41 3.9 5.04-3.77.26-7.57.71-11.02 2.36-.89 1.08-2.12 1.69-3.36 2.26-1.15 1.43-2.51 2.85-4.54 2.41-8.63.83-15.13-6.42-23.43-7.21-3.4-.31-6.93-1.57-9.07-4.35 3.82 1.48 7.81 2.36 11.93 2.21 4.89-2.97 10.22-7.85 8.61-14.2 1.15.75 2.32 1.5 3.49 2.23 1.29 2.88 1.99 6.24 4.53 8.35 3.31 2.93 6.36 6.17 8.81 9.87.64-.65 1.27-1.29 1.9-1.95-3.86-5-9.42-9-11.38-15.23-1.97-1.92-3.37-4.59-6.19-5.39-2.5-4.9-1.59-12.16-7.58-14.6.61.04 1.85.11 2.47.15-6.23-1.93-12.47-8.33-19.21-4.3-.03-.4-.08-1.22-.1-1.63-2.02.03-4.03-.08-6.04-.21.66.76 1.32 1.51 2 2.25 1.24.12 2.5.32 3.71.61-4.7 1.9-4.55 7.4-4.63 11.61 2.43-2.6 1.42-6.8 4.06-9.19 1.77-1.94 4.28-3.79 7.06-3.05 6.57.79 11.42 6.08 14.56 11.52 2.32 4.43 1.59 9.73-.14 14.22-1.64 4.07-6.1 6.75-10.47 6.25-6.63.16-9.99-6.41-14.23-10.39-3.14-1.67-6.37-3.2-9.32-5.18.03.57.09 1.72.13 2.3 6.12 2.83 11.83 7.56 14.63 13.79l.67.06c-.45.05-1.36.16-1.82.21 1.23 3.62 5.42 3.82 8.51 4.77 5.95 1.17 11.34 4.01 16.77 6.57 3.51 1.69 7.49 1.93 11.32 2.31-.92 5.73 4.16 9.93 9.27 11 6.53 1.42 14.18.45 19.19-4.32 2.28-1.92 2.94-5.31 2.13-8.08-1.8-4.22-6.12-6.62-10.39-7.66-1.66-1.98-3.41-3.9-4.79-6.09-1.48-2.47-1.65-5.49-3.04-7.99-2.14-2.95-4.94-5.32-7.93-7.37-3.46-1.97-2.83-6.58-5.21-9.41-3.27-5.88-9.94-8.38-16.14-9.78.18-.88 1.54-1.99.6-2.82-.71-.82-1.71.18-2.49.35-2.8-3.5-7.35-4.17-11.27-5.72-2.54-1.69-3.95-4.68-6.62-6.25-3.55-2.82-8.78-1.87-12.33.38m-9.93 2.35c-3.7 1.91-7.89 3.77-10.05 7.55.11 4.35-.28 9.03 2.23 12.85.11.89 2.48 2.63 2.26.68-1.78-4.24-4.05-8.77-2.62-13.49 2.54-2.46 5.85-3.9 8.78-5.81 1.19.37 2.37.74 3.57 1.07-.38-2.02-2.03-3.57-4.17-2.85m-19.1 10.87c.22.04.67.1.89.13.05-4.33 2.93-7.49 4.82-11.1-4.91 1.25-6.62 6.43-5.71 10.97m-5.59-3.63c1.11-1.54 2.61-2.93 3.04-4.85-3.01-.65-3.27 2.72-3.04 4.85m33.48-1.49c1.1 3.36 5.07 5.62 4.58 9.44-.57 2.34-1.49 4.59-2.03 6.95-.38 2.79-3.76 4.6-2.65 7.63 1.83-1.9 4.24-3.75 4.59-6.57.4-2.77 1.45-5.36 2.34-7.99-.18-4.08-3.1-7.87-6.83-9.46m-16.33 2.82c-.91 1.23-.68 1.93.67 2.1.9-1.23.68-1.93-.67-2.1m52.91 9.92c-1 1.5 1.19 3.81 2.77 3.32.4-1.4-1.22-3.74-2.77-3.32m-62.24 1.98c4.1 2.57 8.46 4.7 12.29 7.68.51 1.24 1.02 2.49 1.53 3.74-1.62-.3-3.22-.6-4.83-.92-.41.21-1.24.64-1.65.85 5.42.23 9.24 4.27 13.86 6.51 1.93-.33 3.86-.63 5.81-.86-.7-.38-1.39-.76-2.08-1.15l-1.96 1.51c-.43-3.14-.85-6.39-2.25-9.28-1.14-1.4-2.7-2.35-4.11-3.44 1.52 3.33 4.55 6.73 3.03 10.62-2.77-2.75-4.37-6.36-6.01-9.84-2.3-1.51-4.4-3.34-6.91-4.51-2.15-.72-4.48-.68-6.72-.91m67.84 8.39c.69 2.29.06 6.28 3.3 6.46-.59-2.38-1.67-4.61-3.3-6.46m-33.79 19.74c1.42.4 2.85.77 4.3 1.1-.8-.9-1.62-1.78-2.48-2.61-.63.48-1.23.98-1.82 1.51m68.31 27.69c-.12 2.59 2.21 3.94 3.57 5.79.59 2.44-.33 4.81-1.13 7.07-5.28 3.21-12.14 5.36-18.03 2.56-2.91-2.01-6.18-5.05-5.48-8.96-.3-.1-.89-.31-1.19-.41-.27 2.19-.69 4.5.22 6.61 1.01 2.81 3.8 4.33 6.36 5.5 5.65 2.19 12.16 1.3 17.49-1.37 3.02-1.45 5.68-4.41 5.48-7.95.06-4.31-4.23-6.63-7.29-8.84z"/><path d="M62.46 66.87c-.83-2.96 2.17-4.76 4.41-5.82 7.4-.17 13.73 3.85 20.04 7.11 2.33 1.24 3.6 3.64 5.19 5.63-2.6.68-5.16 1.5-7.7 2.4-1.36 1.94-2.93 3.74-4.39 5.62-3.42-1.46-7.3-1.01-10.74-2.03-1.43-2.67-4.8-3.21-7.23-4.67 1.37-2.61 1.43-5.49.42-8.24m2.8 3.59c4.5 2.33 9.91 1.34 14.81 1.63-3.83-4.16-9.93-1.5-14.81-1.63m.13 5.15c3.05 1.2 6.27 1.85 9.46 2.57-.19-1.04-.38-2.08-.56-3.11l-.21 1.27c-2.8-.17-6.47-3.43-8.69-.73zM40.57 72.56c2.01-1.99 5.13-1.35 7.65-2.09 2.06.52 4.11 1.17 5.88 2.38 4.37 2.81 9.05 5.08 13.69 7.4.02.21.04.63.05.84-3.8 1.9-7.7 4.27-9.52 8.31-1.67 2.79-1.35 6.11-1.47 9.22-3.91-2.74-7.32-6.14-11.44-8.58-2.15 1.21-4.4 2.24-6.48 3.56-.03 2.15-.42 4.31-.16 6.45.85 1.43 2.73 1.75 4.08 2.56.14.39.41 1.17.54 1.56 1.57.21 3.13.52 4.67.91-.7 4.62-1.96 9.14-2.47 13.8-1.03 5.51-.47 11.14-.74 16.71-6.57 2.88-12.71-1.79-18.82-3.63-3.97-1.31-7.81-4.23-8.04-8.74 5.35-1.58 11.02-1.94 16.12-4.39 2.09-4.28 3.5-9.2 2.61-13.97-1.17-6.78.35-13.59.41-20.38 0-4.18.68-8.61 3.44-11.92m3.8 6.29c1.14 2.27 3.66 2.57 5.85 3.15-1.62-1.63-3.21-3.74-5.85-3.15m-4.65 6.56c1.76.35 3.92.1 5.12 1.71 2.58 2.6 5.63 4.86 9.16 5.96l.4-1.19c-3.54-2.32-7.25-4.45-9.89-7.87-1.62.35-3.2.91-4.79 1.39m.23 34.45c.45 2.93-1.2 6.82 1.16 9.07.94-2.9.5-6 .87-8.99l-2.03-.08m-8.38 5.75c.93.61 1.88 1.2 2.84 1.77 1.18-1.03 2.38-2.03 3.57-3.05-2.15.38-4.29.77-6.41 1.28z"/><path d="M82.56 84.52c.23-6.85 7.96-11.1 14.11-9.14 3.62 2.63 7.11 5.82 11.78 6.32l-.18 1.01 1.07-.44c.53 1.05 1.09 2.1 1.64 3.14 2.77.24 5.66 1.1 7.42 3.4-1.33.39-2.5 1.08-3.53 1.99-1.02.4-2.04.8-3.06 1.19-.71-.1-1.42-.19-2.12-.28-4.24.8-8.39 2.35-11.47 5.47-1.76 2.03-2.55 4.63-3.37 7.13-1.29 4.34 1.26 8.61-.04 12.97-6.56.63-11.96-3.96-17.73-6.34-4.05-2.79-9.18-2.75-13.29-5.37-2.9.3-2.26-2.67-2.73-4.55-.59.89-1.16 1.8-1.76 2.68.09-1.24.33-2.46.89-3.58-.94-5.66.19-12.37 5.08-15.97 3.59-3.34 9.23-2.56 13.32-.6 2.38 1.43 4.95 2.47 7.54 3.44 2.58-.64 5.26-1.19 7.42-2.86-3.63-1.24-7.31.55-10.99.39m-1.42 17.32l.92 1.16H83c3.41-1.98 7.34-3.03 10.48-5.46-4.41.23-9.01 1.18-12.34 4.3zM63.05 115.22c5.53 4.16 11.73 7.33 17.11 11.71-2.13 1.31-4.74 2.09-6.1 4.36 3.12-.53 5.96-1.96 8.86-3.12 3.94 3.07 8.2 5.7 12.01 8.94-14.23 6.93-28.66 13.43-42.92 20.3-2-1.46-4.58-2.4-6.02-4.48-.19-1.87-.67-3.89-.04-5.72 5.69-3.5 12.2-5.59 17.71-9.39.46-7.53.01-15.09-.61-22.6zM199.15 167.75c2.67-4.38 7.96-6.02 12.81-6.36 4.33-.18 9.38.86 11.99 4.65 2.04 2.87.38 7.07-2.77 8.34-3.89 1.61-7.71 4.57-12.16 3.75-3.53-.52-7.35-1.75-9.62-4.68-.41-1.87-.21-3.81-.25-5.7z"/></g><g fill="#333"><path d="M61.24 63.96c4.25-6.18 12.82-4.8 18.64-1.89 5.01 3.4 10.37 6.35 14.65 10.71 5.03 2.53 9.82 5.52 15.15 7.44 2.83 2.27 5.85 4.24 9.01 5.99 2.49 3.89 7.04 5.16 10.88 7.25 1.44.33 2.88.68 4.31 1.05 2.97-.64 6.08-1.51 9.11-.72 3.84.58 5.26 5.26 9.28 5.54-.07.81-.15 1.63-.23 2.44-5.15-2.03-9.27-7.19-15.21-6.64-.81 1.6-1.75 3.13-2.89 4.51 1.23-3.63-2.97-5.28-5.58-3.76-2.59-2.56-6.04-3.85-9.23-5.46-5.9 2.19-12.77 2.54-17.61 6.93-5.05 3.9-5.23 11.18-4.25 16.93 5.82 4.18 13.05 7.25 16.46 13.95 1.48 3.64 3.64 7 6.54 9.66 2.93 1.99 6.62 2.32 9.66 4.08 3.38 3.89 5.27 8.83 8.57 12.77 5.98 6.2 14.05 9.65 20.96 14.62 3.65 2.76 8.42 2.71 12.65 3.96 5.63 1.18 11.09 3.86 16.97 3.19 4.08 1.04 8.3 1.94 12.11 3.83 3.68.77 6.84 4.02 10.8 3.03 2.69-.6 5.69-.69 7.93-2.48 2.79-2.07 5.22-4.56 7.71-6.96.22 3.82-3.4 5.68-5.77 7.98-2.54 2.64-6.36 2.7-9.73 3.29-4.12.76-7.77-1.74-11.37-3.29-7.33-2.53-15.23-2.66-22.61-5-5.68-1.68-11.47-2.88-17.25-4.1-3.36-.63-5.32-4.13-8.78-4.54-3.63-.64-6.54-3.06-9.98-4.24.02-.2.04-.61.06-.81.26-.18.77-.54 1.03-.72-3.82-2.25-6.97-5.5-9.22-9.29-1.62-3.4-3.6-6.75-6.5-9.2-3.27-1.47-7.18-2.02-9.67-4.83-2.08-2.38-4.02-4.88-6.05-7.29-.16-1.06.23-2.33-.56-3.2-3.11-3.82-6.57-7.6-11.33-9.32-3.02-.54-5.96.69-8.93 1.03-2.97-.87-4.86-3.53-7.53-4.92-5.13-1.25-9.98-3.38-15-5.01-4.22-2.08-10.83-2.84-10.99-8.81-5.21-1.94-7.72-7.4-12.51-9.82-1.57 1.16-3.29 2.11-4.82 3.32-.13 1.48-.08 2.97-.08 4.46l2.48.52c2.59 1.89 5.49 3.33 7.88 5.48 7.83 6.13 16.97 10.26 25.09 15.97 4.03 3.08 8.91 4.76 12.94 7.86 9.03 6.4 19.22 10.75 28.73 16.33 2.4 1.44 4.41 3.48 6.93 4.74 5.62 2.73 9.79 7.66 15.59 10.11.16.33.48 1 .64 1.34l.1.92c-2.3-.19-4.39-1.14-6.42-2.14-.11 10.42 1.25 20.82.33 31.23-5.99 3.13-11.97 6.29-18.13 9.1.11 2.18-.52 4.58.4 6.63 1.77 1.43 3.71 2.63 5.57 3.95 15.49-7.01 30.79-14.44 46.19-21.63-.12-2.4-.15-4.81-.56-7.17-1.97-1.84-4.44-3.05-6.72-4.47-5.16 2.38-10.38 4.64-15.46 7.2.45 2.81 2.36 6.4-.68 8.39-2.02-8.85-.41-17.98.46-26.87l1.01.36c.22 5.21.05 10.43-.13 15.64 5.29-2.06 10.19-5.22 15.6-6.86 2.68 1.02 4.93 2.93 7.45 4.29.76 3.39 1.02 6.86 1.14 10.33-12.51 6.54-25.53 12.04-38.19 18.28-3.43 1.39-6.59 3.53-10.16 4.47-2.61-1.41-5.29-2.92-7.38-5.06-.52-2.74-.78-5.6-.35-8.37 5.6-3.64 12.04-5.78 17.75-9.24.71-4.24-.29-8.53-.28-12.79-.03-6.6-.34-13.2-.9-19.77-6.29-4.33-12.73-8.5-19.57-11.9-4.24-2.32-8.11-5.23-12.31-7.6-1.71-1.2-3.59.31-5.22.9-13.94 6.67-27.96 13.17-41.94 19.74-2.55-1.59-5.07-3.22-7.56-4.89-.41-2.84-.67-5.69-.67-8.56 6.01-2.99 11.98-6.05 17.99-9.03.21-7.52-.06-15.04-.36-22.55-3-1.67-6.56-2.63-9.02-5.1-1-.72-2-1.42-3-2.14-.63 5.1-1.77 10.12-2.33 15.23-1.05 4.9 1.08 9.92-.53 14.77-3.12.83-6.28 2.3-9.58 1.7-2.92-.85-5.65-2.27-8.54-3.21-3.35-3.65-10.75-3.73-11-9.71-.9-3.29 2.81-5.35 5.51-5.85 3.69-.17 7.21-1.31 10.57-2.77 3.75-9.48-.41-19.6 1.26-29.32.6-4.42 1.34-8.82 2.2-13.19.61-4.53 6.03-6.32 10.01-6.23 4.22.69 8.92 1.66 11.78 5.12.57.07 1.7.19 2.27.25.13-3.36-.23-6.76.32-10.09m1.22 2.91c1.01 2.75.95 5.63-.42 8.24 2.43 1.46 5.8 2 7.23 4.67 3.44 1.02 7.32.57 10.74 2.03 1.46-1.88 3.03-3.68 4.39-5.62 2.54-.9 5.1-1.72 7.7-2.4-1.59-1.99-2.86-4.39-5.19-5.63-6.31-3.26-12.64-7.28-20.04-7.11-2.24 1.06-5.24 2.86-4.41 5.82m-21.89 5.69c-2.76 3.31-3.44 7.74-3.44 11.92-.06 6.79-1.58 13.6-.41 20.38.89 4.77-.52 9.69-2.61 13.97-5.1 2.45-10.77 2.81-16.12 4.39.23 4.51 4.07 7.43 8.04 8.74 6.11 1.84 12.25 6.51 18.82 3.63.27-5.57-.29-11.2.74-16.71.51-4.66 1.77-9.18 2.47-13.8a41.4 41.4 0 00-4.67-.91c-.13-.39-.4-1.17-.54-1.56-1.35-.81-3.23-1.13-4.08-2.56-.26-2.14.13-4.3.16-6.45 2.08-1.32 4.33-2.35 6.48-3.56 4.12 2.44 7.53 5.84 11.44 8.58.12-3.11-.2-6.43 1.47-9.22 1.82-4.04 5.72-6.41 9.52-8.31-.01-.21-.03-.63-.05-.84-4.64-2.32-9.32-4.59-13.69-7.4-1.77-1.21-3.82-1.86-5.88-2.38-2.52.74-5.64.1-7.65 2.09m41.99 11.96c3.68.16 7.36-1.63 10.99-.39-2.16 1.67-4.84 2.22-7.42 2.86-2.59-.97-5.16-2.01-7.54-3.44-4.09-1.96-9.73-2.74-13.32.6-4.89 3.6-6.02 10.31-5.08 15.97-.56 1.12-.8 2.34-.89 3.58.6-.88 1.17-1.79 1.76-2.68.47 1.88-.17 4.85 2.73 4.55 4.11 2.62 9.24 2.58 13.29 5.37 5.77 2.38 11.17 6.97 17.73 6.34 1.3-4.36-1.25-8.63.04-12.97.82-2.5 1.61-5.1 3.37-7.13 3.08-3.12 7.23-4.67 11.47-5.47.7.09 1.41.18 2.12.28 1.02-.39 2.04-.79 3.06-1.19 1.03-.91 2.2-1.6 3.53-1.99-1.76-2.3-4.65-3.16-7.42-3.4-.55-1.04-1.11-2.09-1.64-3.14l-1.07.44.18-1.01c-4.67-.5-8.16-3.69-11.78-6.32-6.15-1.96-13.88 2.29-14.11 9.14m-19.51 30.7c.62 7.51 1.07 15.07.61 22.6-5.51 3.8-12.02 5.89-17.71 9.39-.63 1.83-.15 3.85.04 5.72 1.44 2.08 4.02 3.02 6.02 4.48 14.26-6.87 28.69-13.37 42.92-20.3-3.81-3.24-8.07-5.87-12.01-8.94-2.9 1.16-5.74 2.59-8.86 3.12 1.36-2.27 3.97-3.05 6.1-4.36-5.38-4.38-11.58-7.55-17.11-11.71z"/><path d="M65.26 70.46c4.88.13 10.98-2.53 14.81 1.63-4.9-.29-10.31.7-14.81-1.63zM65.39 75.61c2.22-2.7 5.89.56 8.69.73l.21-1.27c.18 1.03.37 2.07.56 3.11-3.19-.72-6.41-1.37-9.46-2.57zM44.37 78.85c2.64-.59 4.23 1.52 5.85 3.15-2.19-.58-4.71-.88-5.85-3.15zM39.72 85.41c1.59-.48 3.17-1.04 4.79-1.39 2.64 3.42 6.35 5.55 9.89 7.87l-.4 1.19c-3.53-1.1-6.58-3.36-9.16-5.96-1.2-1.61-3.36-1.36-5.12-1.71zM106.95 94.75c6.48.38 12.75 2.2 19.15 3.2 1.26.46 2.39-.47 3.62-.43.65 1.16.99 2.45 1.33 3.73 2.78-.52 4.22-3.49 6.81-4.14.12.25.35.75.47 1-2.05 2.36-4.4 4.73-7.44 5.74-2.54.11-5.08-.11-7.61-.21-2.45.33-4.91.17-7.36-.02-1.8 1.05-3.59 2.08-5.4 3.11l.08-1.91a14.41 14.41 0 0113.47-2.48c2.03-.46 4.06-.89 6.1-1.34-6.07-2.9-12.93-2.93-19.19-5.16-1.29-.14-2.55.25-3.82.43-.05-.38-.16-1.14-.21-1.52zM81.14 101.84c3.33-3.12 7.93-4.07 12.34-4.3-3.14 2.43-7.07 3.48-10.48 5.46h-.94l-.92-1.16zM101.24 102.09c1.1-.68 3.6.23 3.48 1.63-1.12.48-3.75-.1-3.48-1.63zM147.54 104.51c3.55-2.25 8.78-3.2 12.33-.38 2.67 1.57 4.08 4.56 6.62 6.25 3.92 1.55 8.47 2.22 11.27 5.72.78-.17 1.78-1.17 2.49-.35.94.83-.42 1.94-.6 2.82 6.2 1.4 12.87 3.9 16.14 9.78 2.38 2.83 1.75 7.44 5.21 9.41 2.99 2.05 5.79 4.42 7.93 7.37 1.39 2.5 1.56 5.52 3.04 7.99 1.38 2.19 3.13 4.11 4.79 6.09 4.27 1.04 8.59 3.44 10.39 7.66.81 2.77.15 6.16-2.13 8.08-5.01 4.77-12.66 5.74-19.19 4.32-5.11-1.07-10.19-5.27-9.27-11-3.83-.38-7.81-.62-11.32-2.31-5.43-2.56-10.82-5.4-16.77-6.57-3.09-.95-7.28-1.15-8.51-4.77.46-.05 1.37-.16 1.82-.21l-.67-.06c-2.8-6.23-8.51-10.96-14.63-13.79-.04-.58-.1-1.73-.13-2.3 2.95 1.98 6.18 3.51 9.32 5.18 4.24 3.98 7.6 10.55 14.23 10.39 4.37.5 8.83-2.18 10.47-6.25 1.73-4.49 2.46-9.79.14-14.22-3.14-5.44-7.99-10.73-14.56-11.52-2.78-.74-5.29 1.11-7.06 3.05-2.64 2.39-1.63 6.59-4.06 9.19.08-4.21-.07-9.71 4.63-11.61a27.33 27.33 0 00-3.71-.61c-.68-.74-1.34-1.49-2-2.25 2.01.13 4.02.24 6.04.21.02.41.07 1.23.1 1.63 6.74-4.03 12.98 2.37 19.21 4.3-.62-.04-1.86-.11-2.47-.15 5.99 2.44 5.08 9.7 7.58 14.6 2.82.8 4.22 3.47 6.19 5.39 1.96 6.23 7.52 10.23 11.38 15.23-.63.66-1.26 1.3-1.9 1.95-2.45-3.7-5.5-6.94-8.81-9.87-2.54-2.11-3.24-5.47-4.53-8.35-1.17-.73-2.34-1.48-3.49-2.23 1.61 6.35-3.72 11.23-8.61 14.2-4.12.15-8.11-.73-11.93-2.21 2.14 2.78 5.67 4.04 9.07 4.35 8.3.79 14.8 8.04 23.43 7.21 2.03.44 3.39-.98 4.54-2.41 1.24-.57 2.47-1.18 3.36-2.26 3.45-1.65 7.25-2.1 11.02-2.36-1.37-1.63-2.8-3.21-3.9-5.04-1.56-2.86-1.5-6.51-3.87-8.93-2.07-2.44-4.76-4.2-7.22-6.19-2.73-1.97-2.21-5.84-4.09-8.38-2.19-3.09-4.56-6.35-8.11-7.94-2.06-1.02-4.32-1.63-6.19-2.99-3.52-2.74-7.85-4.02-11.94-5.63 1.33 1.76 3.71 3.06 3.54 5.57-5.92-3.16-8.17-10.18-13.99-13.52-3-2.62-7.08-.89-10.62-1.28m51.61 63.24c.04 1.89-.16 3.83.25 5.7 2.27 2.93 6.09 4.16 9.62 4.68 4.45.82 8.27-2.14 12.16-3.75 3.15-1.27 4.81-5.47 2.77-8.34-2.61-3.79-7.66-4.83-11.99-4.65-4.85.34-10.14 1.98-12.81 6.36zM137.61 106.86c2.14-.72 3.79.83 4.17 2.85-1.2-.33-2.38-.7-3.57-1.07-2.93 1.91-6.24 3.35-8.78 5.81-1.43 4.72.84 9.25 2.62 13.49.22 1.95-2.15.21-2.26-.68-2.51-3.82-2.12-8.5-2.23-12.85 2.16-3.78 6.35-5.64 10.05-7.55zM118.51 117.73c-.91-4.54.8-9.72 5.71-10.97-1.89 3.61-4.77 6.77-4.82 11.1-.22-.03-.67-.09-.89-.13zM112.92 114.1c-.23-2.13.03-5.5 3.04-4.85-.43 1.92-1.93 3.31-3.04 4.85z"/><path d="M146.4 112.61c3.73 1.59 6.65 5.38 6.83 9.46-.89 2.63-1.94 5.22-2.34 7.99-.35 2.82-2.76 4.67-4.59 6.57-1.11-3.03 2.27-4.84 2.65-7.63.54-2.36 1.46-4.61 2.03-6.95.49-3.82-3.48-6.08-4.58-9.44zM130.07 115.43c1.35.17 1.57.87.67 2.1-1.35-.17-1.58-.87-.67-2.1zM39.95 119.86l2.03.08c-.37 2.99.07 6.09-.87 8.99-2.36-2.25-.71-6.14-1.16-9.07zM31.57 125.61c2.12-.51 4.26-.9 6.41-1.28-1.19 1.02-2.39 2.02-3.57 3.05-.96-.57-1.91-1.16-2.84-1.77zM182.98 125.35c1.55-.42 3.17 1.92 2.77 3.32-1.58.49-3.77-1.82-2.77-3.32zM120.74 127.33c2.24.23 4.57.19 6.72.91 2.51 1.17 4.61 3 6.91 4.51 1.64 3.48 3.24 7.09 6.01 9.84 1.52-3.89-1.51-7.29-3.03-10.62 1.41 1.09 2.97 2.04 4.11 3.44 1.4 2.89 1.82 6.14 2.25 9.28l1.96-1.51c.69.39 1.38.77 2.08 1.15-1.95.23-3.88.53-5.81.86-4.62-2.24-8.44-6.28-13.86-6.51.41-.21 1.24-.64 1.65-.85 1.61.32 3.21.62 4.83.92-.51-1.25-1.02-2.5-1.53-3.74-3.83-2.98-8.19-5.11-12.29-7.68zM188.58 135.72c1.63 1.85 2.71 4.08 3.3 6.46-3.24-.18-2.61-4.17-3.3-6.46zM154.79 155.46c.59-.53 1.19-1.03 1.82-1.51.86.83 1.68 1.71 2.48 2.61-1.45-.33-2.88-.7-4.3-1.1zM223.1 183.15c3.06 2.21 7.35 4.53 7.29 8.84.2 3.54-2.46 6.5-5.48 7.95-5.33 2.67-11.84 3.56-17.49 1.37-2.56-1.17-5.35-2.69-6.36-5.5-.91-2.11-.49-4.42-.22-6.61.3.1.89.31 1.19.41-.7 3.91 2.57 6.95 5.48 8.96 5.89 2.8 12.75.65 18.03-2.56.8-2.26 1.72-4.63 1.13-7.07-1.36-1.85-3.69-3.2-3.57-5.79z"/></g></svg>