<svg width="268pt" height="275pt" viewBox="0 0 268 275" xmlns="http://www.w3.org/2000/svg"><g fill="#FFF"><path d="M0 0h62.33c-.02 27.98.09 55.97.01 83.95-1.67 12.97.02 26.06-.88 39.07-.52 5.38 1.38 10.6 1.08 15.98-.24 22.31.11 44.62.03 66.93-.13 1.92.44 3.75 1.62 5.28.44-2.06.71-4.15.69-6.26-.22-24.03-.38-48.06-.25-72.09 1.33.76 3.78 1.01 3.53 3.09-.13 7.68-.79 15.39-.08 23.07.23 14.32.03 28.65.1 42.97.13 3.8-.69 7.92 1.33 11.37 1.11-14.74.04-29.58.43-44.36-.73-11.52-.59-23.05-.51-34.59 1.09-.48 2.18-.96 3.27-1.43.12 27.04-.15 54.08.17 81.12 1.65-.76 2.17-2.34 2.01-4.03.04-24.71-.09-49.42.01-74.12 1.16-6.83.95-13.74.91-20.63.91-.33 2.75-.99 3.66-1.32 0 3.34.25 6.67.74 9.98.76 5.02-.34 10.28 1.37 15.17 1.22 4.92 5.21 8.32 8.38 12.01 2.87 1.24 5.92-.11 8.1-2.05.12-2.99.29-5.99.56-8.97 1.69 1.34 3.36 2.73 4.99 4.16.04 12.43.04 24.92 1.36 37.3-6.65 3.02-13.76 4.89-20.36 7.98-1.18 4.53-1.72 10.82 3.47 13.05 6.22-1.81 12.37-4.55 17.87-8.05l.53-1.37c-6.08 1.88-11.85 4.8-17.66 7.44-1.17-1.21-2.33-2.43-3.49-3.64.05-1.79.1-3.59.13-5.37 6.43-2.65 13.01-4.96 19.32-7.88 1.05-.6 2.76-1.16 2.45-2.73.05-5.69-.49-11.35-.74-17.03-.3-5.92.35-11.93-1.13-17.74 2.62 2.65 7.96 4.09 7.26 8.71-1.1 6.31.02 12.64.3 18.97.13 2.74.63 5.52 2.48 7.67 1.19-1.36 2.52-2.9.23-4.09-.65-5.52-1.11-11.07-1-16.63-.14-2.26-.26-4.54-.38-6.8 2.55 2.05 5.28 3.85 7.8 5.94 2.23 1.61 1.38 4.64 1.49 6.98 1.15 2.82 2.5 5.57 4.26 8.08 1.84-2.96 3.2-6.61 6.26-8.53 3.61-1.08 7.44-.35 11.14-.28l4.23 3.69c.86-2.08 1.64-4.19 2.39-6.31-.65-.07-1.97-.22-2.63-.29.2 1.52.4 3.04.59 4.56-3.81-5.25-11.16-5.57-16.73-3.24-2.86 1.2-4.12 4.22-5.78 6.62-1.89-6.22-3.43-13.75.59-19.46.85-1.41 1.92-2.67 2.95-3.94-.11-.54-.34-1.62-.46-2.15 3.69-.93 8.49-1.53 9.82-5.77-5.27 1.92-10.06 4.91-15.23 7.05 2.92-2.71 5.61-5.9 9.2-7.75 4.52-1.69 9.26-2.87 14.04-3.55.02-.44.05-1.33.07-1.77 4.32-.23 8.67-.51 12.94.36 3.15.46 7.48.43 9.19-2.79.94-4.15 2.08-8.3 2.63-12.52-.51-6.6-1.27-13.19-1.94-19.78.68-1.93 2.14-4.36.53-6.23-.22 1.29-.45 2.57-.69 3.85l-3.14.12c-.82 2.71-1.2 5.55-.5 8.34.23-2.31.4-4.62.62-6.93 1.08.55 1.69 1.39 1.82 2.52.66 4.72.85 9.49 1.43 14.22.95 5.45-1.2 10.71-1.76 16.08-2.07.66-4.14 1.62-6.36 1.45-5.41-.57-10-4.02-15.41-4.62 2.01 1.43 4.13 2.69 6.18 4.06-1.96-.28-4.17.08-5.92-1.01-1.29-1.58-1.9-3.57-2.78-5.38 3.75 1.48 7.89 2.52 11.89 1.46 2.79-.73 4.39-3.57 4.95-6.21-.8-1.89-2.34-3.32-3.58-4.91 1.4-2.24 3.1-4.4 3.71-7.02-.16-2.41-.83-4.75-1.37-7.09 1.99-1.43 4-2.88 5.65-4.71-2.35.56-4.42 1.8-6.58 2.84-1.64.23-3.07-.86-4.31-1.78-.03-2.15.49-4.26.81-6.37 1.49-.25 2.99-.48 4.49-.7.65.61 1.31 1.22 1.97 1.84-1.1.04-3.3.11-4.41.15 1.04 3.91 4.81.99 6.76-.33-.95-.6-1.9-1.19-2.85-1.77.48-.55 1.43-1.66 1.9-2.22-2.42.22-4.82.58-7.25.63l.45-1.64c3.27-.4 6.59-.46 9.83-1.11 1.92 1.38 3.82 2.88 4.96 5.02.81-1.94 3.65-1.98 4.18-3.95-1.42-.51-2.86-.52-4.31-.02-1.55-1.17-2.94-2.71-4.86-3.24-3.49.51-6.96 1.3-10.32 2.38-1.77 1.46-1.63 4.9-4.35 5.19-13.35 2.71-26.68 5.53-40.04 8.17-.69-2.44-.77-5.95-3.72-6.8-4.13-1.59-8.36-3.35-12.83-3.53-5.21.62-8.62 5.45-10.63 9.88 4.18-1.47 5.4-6.9 9.84-7.95 2.76-.41 5.5.55 8.22.83-1 2.55-3.57 5.37-1.86 8.15 1.23-2.41 2.13-4.98 2.6-7.64 1.49.66 3.09 1.15 4.47 2.05 1.38 1.49 1.93 3.52 2.78 5.33-5.13 1.46-11.29.88-15.37 4.83-.29-1.55.23-3.86-1.45-4.83-3.69-1.93-7.83-.5-11.54.55-3.83.65-3.7 5.74-6.97 7.39-.47-8.19.51-16.45-1.02-24.57-.16-28-.06-56.01-.07-84.01H178.6c-.04 19.98.05 39.97 0 59.95-1.34 10.5-.61 21.11-.74 31.67-1.68.38-3.67.21-4.96 1.51.28 2.48 3.53.24 5.08.18-.38 5.26-.58 10.58.53 15.77.79 12.05-.39 24.18.39 36.23.55.2 1.67.6 2.22.8.1-12.46-.13-24.91.12-37.36.98.43 1.94.9 2.89 1.41.49 5.59-.4 11.22-.1 16.83.35 6.81.42 13.63.5 20.45.43.08 1.28.23 1.71.31.07-4.94-.26-9.86-.57-14.79-.15-7.48.08-14.96-.09-22.44 1.2-.53 2.39-1.06 3.6-1.58.04 12.03-.02 24.05-.1 36.07-.02 2.37.27 4.72.65 7.05-3.69-2.81-8.08-4.39-11.97-6.86-5.25-2.77-11.43-1.87-17.07-3.15-1.02-1.73-2.73-2.67-4.59-3.21.92 1.95 1.53 4.64 4.04 5.06 4.49 1.13 9.18 1.13 13.77 1.75-1.48 1.08-2.93 2.23-4.11 3.65 3.14-.17 6.36-1.7 9.46-.5 5.79 1.98 10.9 5.51 15.66 9.29 3 2.35 7.78 2.77 9.21 6.8.9 2.32 2.39 4.55 2.48 7.08-1.11 6.68-2.37 13.62-.83 20.34.8 4.18.66 8.47.48 12.7-.22 4.02.89 7.93 1.53 11.86 3.63 3.24 6.78 6.91 9.87 10.65 2.99 3.66 8.67 2.54 11.43 6.45-2.05.98-3.97 2.25-6.13 3-2.39-.06-4.74-.48-7.12-.58-1.9-.87-3.75-1.87-5.75-2.48-4.11-.73-8.34.47-12.43-.44-1.66-4.6-.44-9.97 1.18-14.48-.37-5.35.87-11.15-1.81-16.07-3.88-7.03-3.32-15.4-2.81-23.14 1.05-.56 2.08-1.15 3.1-1.78-5.26-2.12-10.59-4.29-16.21-5.26-1.68-2.92-.09-6.03.77-8.93.77-3.09 3.33-5.19 4.96-7.81-1.09.42-2.18.85-3.25 1.29-1-2.32-3.09-3.68-5.28-4.72-6.57 1.89-13.11 4.2-18.86 7.96-3.56 2.59-5.42 6.76-6.89 10.77-.6-.03-1.78-.1-2.38-.13.67 3.69 1.15 7.53 2.99 10.86-.16-.16-.48-.5-.64-.67.68 8.61.27 17.26.33 25.89-1.63-1-3.26-2.01-4.95-2.9-.02.4-.08 1.22-.11 1.62.92 2.5 4.21 2.79 6.12 4.28 1.4-8.96.33-18.11.58-27.15 2.98.57 5.95.18 8.72-1.05-.39 10.86.37 21.78-.34 32.61-1.99 1.88-4.53 3-7.02 4.05-3.68 2.21-6.95-1.79-9.43-4.08.8-2.27 1.43-4.62 1.32-7.05-2.68 2.6-1.48 6.37-2.03 9.62-.14 1.86-1.48 3.53-1.21 5.43.9-1.37 1.71-2.79 2.54-4.2 2.17 1.38 4.39 2.7 6.68 3.9 3.74-2.26 7.56-4.37 11.53-6.19.12-11.62-.11-23.24.03-34.85 4.38-2.54 9.31-4 13.93-5.93.3-.45.91-1.36 1.21-1.82 3.48 2.88 8.21 3.13 12.25 4.89.11 4.86-1.38 9.61-1.17 14.48-.6 6.12 4.87 10.57 5.3 16.52 1.33 6.35-1.54 12.35-2.18 18.55.06 2.18-.63 5.28 1.77 6.5 3.5 2.48 7.82.54 11.7.89 2.52.48 4.63 2.07 6.87 3.23 2.64-.03 5.28.55 7.91.3 3.26-1.05 6.6-2.62 8.3-5.77-1.22-1.23-2.32-2.6-3.73-3.62-2.34-.95-5.1-.98-7.04-2.79-3.62-3.07-6.58-6.84-10.14-9.98-2.92-8.3-1.12-17.33-2.51-25.88-1.17-6.25-.74-12.68.43-18.88-.47-5.15-2.66-11.25-7.97-13.16-3.53-1.2-6.32-3.71-8.98-6.22.03-13.95.08-27.9-.03-41.85 3.45 2.01 8.09 2.64 11.23-.32 5.45-5.08 7.63-12.76 8.33-19.98-.49.16-1.48.48-1.98.64.08 5.73-2.36 11.42-5.69 16-2.54 3.57-7.39 3.64-11.03 1.87.22-6.13.08-12.25.14-18.38 2.11-.68 4.55-.72 6.42-1.98 1.77-2.16.28-4.96-1.4-6.66-1.64.61-3.3 1.2-4.95 1.79-.19-6.87 0-13.74-.14-20.61 1.51-.77 3.03-1.52 4.55-2.28 2.74 1.65 5.93 3.03 7.56 5.96 2.76 4.5 4.54 9.66 4.85 14.95.34-.55.69-1.1 1.03-1.64 2.72 2.74 6.73-.29 10.04-.14-.11 4.37-5.61 3.09-8.44 4.63l.4 1.24c2.84.54 5.68-.9 8.44-1.46 2.11-1.93.77-4.72-.25-6.83-3.24.86-6.5 1.62-9.76 2.38-.88-6.63-3.12-13.67-8.23-18.25-3.19-2.96-7.58-1.08-11.16-.01.23-20.55.04-41.11.09-61.67H268v275H0V0m209.29 82c0 2.89-.01 5.78.29 8.66 2.92-1.89.68-5.86 1.67-8.62l-1.96-.04M37.19 94.22c-6.15 6.88-7.69 16.51-7.98 25.42 4.76-.83 9.52-1.6 14.22-2.7-.1.69-.31 2.06-.42 2.74-3.08 1.15-6.37 1.52-9.6 2 .3.79.67 1.55 1.13 2.26 2.99-1.15 6.2-1.53 9.33-2.16 2.33-1.4 1.92-5.13.11-6.82-4.33.73-8.6 1.76-12.86 2.81.24-8.05 1.7-17 7.79-22.81 1.98-1.29 4.57-3.89 6.98-2.06 6.64 3.11 9.78 10.33 11 17.17 1.66 8.73.92 18.04-2.6 26.23-2.05 4.33-6.03 9.36-11.46 8.19-5.62-1.39-8.42-7.44-9.91-12.52-.87-2.11-.44-5.26-2.88-6.35.29 6.17 2.52 12.21 6.2 17.17 1.67 2.32 4.35 3.77 7.09 4.41 3.86.4 7.62-2 9.7-5.15 5.5-8.04 6.76-18.22 5.95-27.73.09-1.17 1.49-1.37 2.04-2.23l-.1-.36-.38.07c-2.6.2-2.06-3.25-2.72-4.88-1.59-6.49-4.77-14.02-11.76-16.1-3.08.71-6.68.76-8.87 3.4m126.89 6.54c-.4 2.06-.76 5.41.43 6.99.37-2.08 1.34-5.62-.43-6.99M60.22 116.99c.62.62.62.62 0 0m-33.43 8.38c1.78-.51 3.57-.97 5.38-1.35 2.04-.8-1.27-2.04-1.91-1.7l.08-2.67c-.75.38-1.51.76-2.26 1.15-.09.55-.28 1.65-.37 2.2-1.16-1.78-.24-3.18 1.14-4.39l-1.71-.83c-2.94 1.59-2.1 5.43-.35 7.59m109.93 24.65l3.28-1.12c.64.34 1.24.73 1.88 1.08 2.56-.8 4.98-1.95 7.45-2.98 2.4-.91 6.01.11 7.03-3.01-4.55.97-9.24 1.77-13.16 4.45-.54-.43-1.07-.86-1.6-1.29 4.64-1.85 9.45-3.69 13.5-6.64-7.03.3-13.83 4.36-18.38 9.51m20.59 3.18c.69-2.57 1.71-5.02 2.8-7.43-2.68 1.59-3.32 4.54-2.8 7.43m-24.28 1.98c3.86.36 8.16.32 10.89-2.88-3.72.56-7.42 1.38-10.89 2.88m61.31 6.69c.97 2.36 2.21 4.66 2.65 7.21-.58 1.4-1.46 2.79-2.97 3.31-3.42-.69-5.63-3.71-8.67-5.19 1.67 3.21 4.65 6.16 8.47 6.24 2.35.24 3.7-2 5.24-3.36-.69-3.09-1.4-6.91-4.72-8.21m-76.77 17.49c2.4-.51 4.65-1.6 6.49-3.23-2.27.73-5.52.56-6.49 3.23m13.75-.15c-.58 1.29-.62 2.71-.7 4.1-4.02 2.06-8.81 3.09-12.45 5.5 4.38 3.84 9.14 7.26 14.32 9.94l-.24-2.75c-3.05-2.75-6.88-4.43-10.13-6.94 3.27-1.47 6.57-2.87 9.91-4.16 3.48 4.03 1.31 9.38 1.14 14.06-.27 2.68-.32 6.19-2.82 7.84-2.02-3.16-5.44-4.87-8.47-6.89-4.64-2.51-8.91-5.71-13.75-7.83.16 1.23.73 2.34 1.87 2.93 4.89 3.46 10.28 6.21 14.97 9.97 1.93 1.76 5.33 2.49 5.43 5.59-4.23 7.49-.12 15.68 1.3 23.32 1.29 4.59.3 9.3-.28 13.91 1.6 3.62.67 7.81 2.78 11.23 1.51 2.29.94 5.2 1.92 7.64 3.86 4.97 12.15 6.56 17.23 2.69 1.61-.34 3.93-.28 4.36-2.31.74-5.11-4.45-8.09-6.7-12.02-1.92-3.84-5.1-7.1-5.91-11.43-1.16-6.45-1.78-13.03-.87-19.55-3.48 4.97-1.44 11.8-2.23 17.03-3.65 1.12-5.86 5.23-5.77 8.85 2.35-1.9 3.48-4.74 4.93-7.29.39.08 1.18.26 1.58.34 1.53 5.35 4.91 9.84 7.74 14.55 2.45 2.58 4.66 5.38 6.37 8.52-1.13.89-2.37 1.19-3.73.9-.87-1.16-1.26-2.72-2.45-3.61-1.92-.04-3.8.58-5.73.51-1.8.1-4.24-.55-5.02 1.62 3.39.35 6.85.98 10.12-.39.42.62 1.28 1.85 1.71 2.46-4.35 3.79-13.24 1.73-13.73-4.5-1.17-6.69-6.17-13.02-3.91-20 1.23-8.59-3.49-16.53-3.78-24.99.49-4.82 1.75-9.66 4.1-13.92 1.14 2.7 1.46 5.92 3.64 8.08-.32-5.23-2.28-10.17-3.12-15.32 1.29-4.64.27-9.42-.95-13.94-.74-1.27-.9-3.56-2.68-3.74m12.07.98c-1.27 1.62-2.86 3.06-3.57 5.05 2.67-.91 4.82-5.66 7.8-3.08 3.17 1.86 2.33 5.91 1.62 8.87.89-1.92 2.6-3.75 2.04-6.04.17-2.24-2.02-3.36-3.35-4.74-1.52-.04-3.03-.07-4.54-.06m-1.14 15.95c.14.59.4 1.76.54 2.35 1.48-.17 3.07-.26 4.05-1.59-1.49-.44-3.04-.62-4.59-.76m-1.28 27.36c3.01-1.68 1.26-5.85 2.22-8.61.09-3.69 4.24-6.15 2.93-9.92-4.38 5.04-5.78 12.02-5.15 18.53m61.63 4.42c-.94-2.53-1.45-5.16-1.4-7.85-2.5 1.85-1.66 7 1.4 7.85z"/><path d="M64.19 0h4.33c-.67 29.27-.2 58.54-.26 87.81l-3.71-.16c-.47-29.21-.17-58.43-.36-87.65zM69.51 0h2.96c-.23 29.13.08 58.25-.12 87.38-.65.34-1.95 1.04-2.6 1.39-.15-29.59.11-59.18-.24-88.77zM180.38 0h4.06c-.2 21.35.11 42.7.01 64.05-1.23-.22-2.45-.45-3.67-.68-.34-21.12.17-42.26-.4-63.37zM185.87 0h2.79c-.05 20.67.23 41.35-.04 62.02.48 1.93-1.57 2.24-2.82 2.95.22-6 .49-12.01.13-18.02-.31-15.65.18-31.31-.06-46.95zM180.41 106.68c-.06-13.82-.13-27.64-.01-41.45 1.29.45 2.57.91 3.86 1.37.34 9.83-.7 19.67-.1 29.5.25 3.93.35 7.85.32 11.78-1.36-.39-2.72-.79-4.07-1.2zM185.77 66.81c1.34-.32 2.68-.63 4.02-.95.11 12.03-.08 24.05.06 36.08-.09 1.55.23 3.22-.37 4.7-.99.52-2.04.89-3.06 1.29-1.14-13.67-.49-27.41-.65-41.12zM192.12 85.8c1.64-.49 3.29-.97 4.94-1.44 1.07 3.41-2.33 3.87-4.74 4.38l-.2-2.94zM63.93 89.4c1.33.35 2.66.71 4 1.07.32 10.16-.58 20.36 0 30.53.25 3.59.25 7.2.24 10.8-1.33-.26-2.66-.54-3.98-.82-.36-13.85-.14-27.72-.26-41.58zM69.66 90.44c1.3-.12 2.61-.23 3.91-.34-.04 13.43-.1 26.86-.04 40.29-1.15.49-2.3.98-3.46 1.47-.87-13.79-.66-27.61-.41-41.42zM120.05 100.79c11.33-2.33 22.66-4.61 34-6.87.08.78.25 2.36.33 3.15-11.51 1.57-22.81 4.35-34.2 6.58-2.91.52-5.92.08-8.81.82-4.94.85-9.28 4.06-14.44 3.81l-.85-1.95c7.8-2.58 15.94-3.88 23.97-5.54z"/><path d="M153.63 98.23c1.49 2.3 3.91 3.59 6.5 4.31 1.17 4.4.34 8.93-2.21 12.68-2.99-2.18-6.73-3.05-10.07-1.06-2.42-3.83-5.79-8.98-11.03-8.02 3.64 2.69 8.02 4.85 9.67 9.43-1.34 0-2.67 0-4.01-.02-.27 2.87.19 5.73.63 8.56.38 3.74 3.35 6.39 4.58 9.81-6.32 1.1-13.3 1.71-18.24 6.28-3.08 2.99-7.61 5.31-8.22 10 1.15-.98 2.21-2.06 3.28-3.14.9.58 1.81 1.17 2.71 1.76-1.03 3-2.43 5.86-4.29 8.44.18-2.74 3.08-4.75 1.48-7.7-.71.93-1.32 1.93-1.82 3-.37-.57-.84-1.03-1.4-1.36-.98 1.81-.42 3.72.24 5.54-2.56-1.79-4.94-3.82-7.2-5.98-4.01-3.78-8.74-6.76-12.39-10.93 7.4.82 12.15 6.91 17.89 10.9.24-.56.73-1.69.97-2.25-3.13-2.99-7.13-4.82-10.29-7.79-3.81-2.19-8.29-2.98-11.98-5.45-1.26-4.64.43-10.07-2.5-14.18-1.68-1.01-3.66-1.56-4.95-3.14 2-1.44 5.17-1.99 5.68-4.82 1.65-.18 3.3-.33 4.96-.45-.2-.41-.6-1.22-.81-1.62 5.48-3.78 12.29-6.03 18.94-4.71.65.57 1.28 1.16 1.88 1.78-6.24.23-11.17 4.43-14.39 9.46-1.82.35-3.71.6-5.3 1.62 2.32.08 5.29.87 7.01-1.19 1.48-1.9 2.83-3.91 4.55-5.61 2.21-2.51 6.02-1.72 8.75-3.36-.59-1.03-.7-2.11-.22-3.21 3.49-.11 7.3-2.05 10.54.04l.28 1.04c-2.95.72-6.26-.47-8.87 1.59 2.66-.01 5.33-.17 7.99-.31 2.42 2.85 6.02 4.11 9.25 5.76-.22-3.64-4.55-3.38-6.08-5.71.24-.3.71-.9.95-1.21-1.5-1.31-3.06-2.55-4.62-3.79 5.86-1.26 11.74-2.43 17.66-3.43 1.58-.24 3.09-.8 4.5-1.56M119.6 116.9c-2.23 3.24-3.55 7.23-2.34 11.13-.57 1.38-1.16 2.77-1.71 4.16.82.6 1.64 1.22 2.45 1.84 2.33.46 5.45-.49 6.94 1.93l1.38-.43c-.32 1.09-.67 2.18-.92 3.29 1.24.57 2.59.83 3.92 1.13l-.99-1.39-2.26-.8c1.96-1.21 5.9-.36 5.95-3.41-5.15 2.12-9.56-1.93-14.38-2.99 1.07-1.15 1.72-2.58 2.33-4-.94-2.23-1.38-4.67-.86-7.06.78-4.4 8.26-4.53 7.64-9.47-2.58 1.8-4.21 4.78-7.15 6.07m9.39-5.09c1.95 1.48 4.77 1.94 6.95.68-2.2.02-5.03-2.47-6.95-.68m1.6 3.65c.52 2.27.93 4.59.73 6.94-4.81-.53-7.75 3.67-9.3 7.63 2.36-.49 3.21-2.81 4.55-4.5 1.98-1.21 4.95-.49 6.46-2.55.62-2.26-.06-4.57-.35-6.82-.7-.23-1.39-.47-2.09-.7m-19.25 4.38c-1.48.27-2.06 3.44.04 2.62 1.75-.12 2.16-3.48-.04-2.62m22.76 2.78c2.36-.52 4.77-.77 7.18-.94-2.12-1.84-5.86-1.84-7.18.94m-33.83 1.25c1.96.15 3.92.3 5.87.51-1.27 1.56-2.53 3.14-3.81 4.7 1.81 2.68 3.28 5.57 5.15 8.21.35-.88.71-1.75 1.06-2.62-1.62-2.02-3.15-4.11-4.76-6.15 1.9-1.62 4.37-.35 6.55-.29-1.28 1.06-2.58 2.09-3.78 3.24 1.21-.32 2.41-.7 3.59-1.13.96-2.28 2.76-3.96 4.81-5.28-2.15-1.73-4.37 1.44-6.67 1.57-.07-.93-.2-2.79-.27-3.72-2.68-.88-5.96-2.05-7.74.96m32.87 1.1c.99 1.63 1.89 3.46 3.79 4.19-.5-1.9-1.03-5.32-3.79-4.19m-22.46 9.89c1.56-.28 3.98.53 4.53-1.55-1.56.29-3.81-.39-4.53 1.55zM81.99 103.35c3.89-.81 7.87-2.76 11.84-1.17 1.37 2.67-2.88 2.24-4.24 3.56 1.52-.07 3.03-.13 4.54-.18 2.83.94 1.23 4.33 1.19 6.43-.11 2.81-3.49 3.11-5.39 4.38-1.96-.68-4-.74-5.86.28a9.838 9.838 0 00-3.97-1.33c3.28-2.13 3.19-6.46.35-8.89.51-1.03 1.03-2.05 1.54-3.08m4.84 2.28c-.03 2.2 1.69 3.52 3.27 4.7 1.27-.82 2.53-1.64 3.78-2.48-2.76.68-5.05-.44-7.05-2.22z"/><path d="M75.91 110.02c1.47-.83 3.21-.86 4.84-1.12l.16 3.18c-1.69.32-3.38.7-5.09.9-.07-.99-.08-1.98.09-2.96zM97.05 110.12c3-1.49.12 3.25 0 0zM143.17 116.91c2.72-.17 5.25-1.19 7.85-1.9 4.39-.82 7 3.55 9.58 6.29 1 1.94-1.34 2.83-2.7 3.49-3.18 1.52-6.66.47-9.9-.17-1.13-1.14-2.26-2.28-3.36-3.43-.11-1.54-.45-3.06-1.47-4.28zM80.49 115.72c1.26 1.22 2.48 2.48 3.75 3.69.27 1.69.41 3.46 1.25 4.98.37-2.55-1.52-6.09 1.81-7.36-.31 3.11.14 6.2 1.27 9.11 3.28-2.12-1.23-6.7 1.58-9.53.68 3.29.8 6.65 1.39 9.95.57 3.55 4.42 5.19 5.43 8.53 1.53 4.54-.24 9.23-.43 13.84-1.88.54-4.38 2.58-6.01.51-2.54-3.09-5.7-5.9-6.9-9.84-2.02-4.62-.75-9.74-1.64-14.56-.49-3.11-1.02-6.21-1.5-9.32z"/><path d="M92.04 121.29c4.77.42 4.7 6.13 3.68 9.6-2.34-2.68-3.31-6.12-3.68-9.6zM176.15 156.04c1.66-.76 3.41-.22 4.58 1.13-.15 6.14-2.72 11.89-5.27 17.37-5.21 2.51-10.63 4.56-15.94 6.84-2.21 1.41-3.95-1.11-5.42-2.42.3-3.29.54-6.63 1.55-9.79 1.56-2.64 3.18-5.37 5.46-7.43 4.7-2.6 9.8-4.52 15.04-5.7m-15.03 10.82c4.87-1.52 9.04-4.78 14.21-5.53.05-.52.16-1.55.22-2.07-5.55.56-10.97 3.15-14.43 7.6z"/></g><g fill="#333"><path d="M62.33 0h1.86c.19 29.22-.11 58.44.36 87.65l3.71.16c.06-29.27-.41-58.54.26-87.81h.99c.35 29.59.09 59.18.24 88.77.65-.35 1.95-1.05 2.6-1.39.2-29.13-.11-58.25.12-87.38h2.38c.01 28-.09 56.01.07 84.01 1.53 8.12.55 16.38 1.02 24.57 3.27-1.65 3.14-6.74 6.97-7.39 3.71-1.05 7.85-2.48 11.54-.55 1.68.97 1.16 3.28 1.45 4.83 4.08-3.95 10.24-3.37 15.37-4.83-.85-1.81-1.4-3.84-2.78-5.33-1.38-.9-2.98-1.39-4.47-2.05-.47 2.66-1.37 5.23-2.6 7.64-1.71-2.78.86-5.6 1.86-8.15-2.72-.28-5.46-1.24-8.22-.83-4.44 1.05-5.66 6.48-9.84 7.95 2.01-4.43 5.42-9.26 10.63-9.88 4.47.18 8.7 1.94 12.83 3.53 2.95.85 3.03 4.36 3.72 6.8 13.36-2.64 26.69-5.46 40.04-8.17 2.72-.29 2.58-3.73 4.35-5.19 3.36-1.08 6.83-1.87 10.32-2.38 1.92.53 3.31 2.07 4.86 3.24 1.45-.5 2.89-.49 4.31.02-.53 1.97-3.37 2.01-4.18 3.95-1.14-2.14-3.04-3.64-4.96-5.02-3.24.65-6.56.71-9.83 1.11l-.45 1.64c2.43-.05 4.83-.41 7.25-.63-.47.56-1.42 1.67-1.9 2.22.95.58 1.9 1.17 2.85 1.77-1.95 1.32-5.72 4.24-6.76.33 1.11-.04 3.31-.11 4.41-.15-.66-.62-1.32-1.23-1.97-1.84-1.5.22-3 .45-4.49.7-.32 2.11-.84 4.22-.81 6.37 1.24.92 2.67 2.01 4.31 1.78 2.16-1.04 4.23-2.28 6.58-2.84-1.65 1.83-3.66 3.28-5.65 4.71.54 2.34 1.21 4.68 1.37 7.09-.61 2.62-2.31 4.78-3.71 7.02 1.24 1.59 2.78 3.02 3.58 4.91-.56 2.64-2.16 5.48-4.95 6.21-4 1.06-8.14.02-11.89-1.46.88 1.81 1.49 3.8 2.78 5.38 1.75 1.09 3.96.73 5.92 1.01-2.05-1.37-4.17-2.63-6.18-4.06 5.41.6 10 4.05 15.41 4.62 2.22.17 4.29-.79 6.36-1.45.56-5.37 2.71-10.63 1.76-16.08-.58-4.73-.77-9.5-1.43-14.22-.13-1.13-.74-1.97-1.82-2.52-.22 2.31-.39 4.62-.62 6.93-.7-2.79-.32-5.63.5-8.34l3.14-.12c.24-1.28.47-2.56.69-3.85 1.61 1.87.15 4.3-.53 6.23.67 6.59 1.43 13.18 1.94 19.78-.55 4.22-1.69 8.37-2.63 12.52-1.71 3.22-6.04 3.25-9.19 2.79-4.27-.87-8.62-.59-12.94-.36-.02.44-.05 1.33-.07 1.77-4.78.68-9.52 1.86-14.04 3.55-3.59 1.85-6.28 5.04-9.2 7.75 5.17-2.14 9.96-5.13 15.23-7.05-1.33 4.24-6.13 4.84-9.82 5.77.12.53.35 1.61.46 2.15-1.03 1.27-2.1 2.53-2.95 3.94-4.02 5.71-2.48 13.24-.59 19.46 1.66-2.4 2.92-5.42 5.78-6.62 5.57-2.33 12.92-2.01 16.73 3.24-.19-1.52-.39-3.04-.59-4.56.66.07 1.98.22 2.63.29-.75 2.12-1.53 4.23-2.39 6.31l-4.23-3.69c-3.7-.07-7.53-.8-11.14.28-3.06 1.92-4.42 5.57-6.26 8.53-1.76-2.51-3.11-5.26-4.26-8.08-.11-2.34.74-5.37-1.49-6.98-2.52-2.09-5.25-3.89-7.8-5.94.12 2.26.24 4.54.38 6.8-.11 5.56.35 11.11 1 16.63 2.29 1.19.96 2.73-.23 4.09-1.85-2.15-2.35-4.93-2.48-7.67-.28-6.33-1.4-12.66-.3-18.97.7-4.62-4.64-6.06-7.26-8.71 1.48 5.81.83 11.82 1.13 17.74.25 5.68.79 11.34.74 17.03.31 1.57-1.4 2.13-2.45 2.73-6.31 2.92-12.89 5.23-19.32 7.88-.03 1.78-.08 3.58-.13 5.37 1.16 1.21 2.32 2.43 3.49 3.64 5.81-2.64 11.58-5.56 17.66-7.44l-.53 1.37c-5.5 3.5-11.65 6.24-17.87 8.05-5.19-2.23-4.65-8.52-3.47-13.05 6.6-3.09 13.71-4.96 20.36-7.98-1.32-12.38-1.32-24.87-1.36-37.3-1.63-1.43-3.3-2.82-4.99-4.16-.27 2.98-.44 5.98-.56 8.97-2.18 1.94-5.23 3.29-8.1 2.05-3.17-3.69-7.16-7.09-8.38-12.01-1.71-4.89-.61-10.15-1.37-15.17-.49-3.31-.74-6.64-.74-9.98-.91.33-2.75.99-3.66 1.32.04 6.89.25 13.8-.91 20.63-.1 24.7.03 49.41-.01 74.12.16 1.69-.36 3.27-2.01 4.03-.32-27.04-.05-54.08-.17-81.12-1.09.47-2.18.95-3.27 1.43-.08 11.54-.22 23.07.51 34.59-.39 14.78.68 29.62-.43 44.36-2.02-3.45-1.2-7.57-1.33-11.37-.07-14.32.13-28.65-.1-42.97-.71-7.68-.05-15.39.08-23.07.25-2.08-2.2-2.33-3.53-3.09-.13 24.03.03 48.06.25 72.09.02 2.11-.25 4.2-.69 6.26-1.18-1.53-1.75-3.36-1.62-5.28.08-22.31-.27-44.62-.03-66.93.3-5.38-1.6-10.6-1.08-15.98.9-13.01-.79-26.1.88-39.07.08-27.98-.03-55.97-.01-83.95m1.6 89.4c.12 13.86-.1 27.73.26 41.58 1.32.28 2.65.56 3.98.82.01-3.6.01-7.21-.24-10.8-.58-10.17.32-20.37 0-30.53-1.34-.36-2.67-.72-4-1.07m5.73 1.04c-.25 13.81-.46 27.63.41 41.42 1.16-.49 2.31-.98 3.46-1.47-.06-13.43 0-26.86.04-40.29-1.3.11-2.61.22-3.91.34m50.39 10.35c-8.03 1.66-16.17 2.96-23.97 5.54l.85 1.95c5.16.25 9.5-2.96 14.44-3.81 2.89-.74 5.9-.3 8.81-.82 11.39-2.23 22.69-5.01 34.2-6.58-.08-.79-.25-2.37-.33-3.15a5681.32 5681.32 0 00-34 6.87m33.58-2.56c-1.41.76-2.92 1.32-4.5 1.56-5.92 1-11.8 2.17-17.66 3.43 1.56 1.24 3.12 2.48 4.62 3.79-.24.31-.71.91-.95 1.21 1.53 2.33 5.86 2.07 6.08 5.71-3.23-1.65-6.83-2.91-9.25-5.76-2.66.14-5.33.3-7.99.31 2.61-2.06 5.92-.87 8.87-1.59l-.28-1.04c-3.24-2.09-7.05-.15-10.54-.04-.48 1.1-.37 2.18.22 3.21-2.73 1.64-6.54.85-8.75 3.36-1.72 1.7-3.07 3.71-4.55 5.61-1.72 2.06-4.69 1.27-7.01 1.19 1.59-1.02 3.48-1.27 5.3-1.62 3.22-5.03 8.15-9.23 14.39-9.46-.6-.62-1.23-1.21-1.88-1.78-6.65-1.32-13.46.93-18.94 4.71.21.4.61 1.21.81 1.62-1.66.12-3.31.27-4.96.45-.51 2.83-3.68 3.38-5.68 4.82 1.29 1.58 3.27 2.13 4.95 3.14 2.93 4.11 1.24 9.54 2.5 14.18 3.69 2.47 8.17 3.26 11.98 5.45 3.16 2.97 7.16 4.8 10.29 7.79-.24.56-.73 1.69-.97 2.25-5.74-3.99-10.49-10.08-17.89-10.9 3.65 4.17 8.38 7.15 12.39 10.93 2.26 2.16 4.64 4.19 7.2 5.98-.66-1.82-1.22-3.73-.24-5.54.56.33 1.03.79 1.4 1.36.5-1.07 1.11-2.07 1.82-3 1.6 2.95-1.3 4.96-1.48 7.7 1.86-2.58 3.26-5.44 4.29-8.44-.9-.59-1.81-1.18-2.71-1.76-1.07 1.08-2.13 2.16-3.28 3.14.61-4.69 5.14-7.01 8.22-10 4.94-4.57 11.92-5.18 18.24-6.28-1.23-3.42-4.2-6.07-4.58-9.81-.44-2.83-.9-5.69-.63-8.56 1.34.02 2.67.02 4.01.02-1.65-4.58-6.03-6.74-9.67-9.43 5.24-.96 8.61 4.19 11.03 8.02 3.34-1.99 7.08-1.12 10.07 1.06 2.55-3.75 3.38-8.28 2.21-12.68-2.59-.72-5.01-2.01-6.5-4.31m-71.64 5.12c-.51 1.03-1.03 2.05-1.54 3.08 2.84 2.43 2.93 6.76-.35 8.89 1.42.16 2.74.6 3.97 1.33 1.86-1.02 3.9-.96 5.86-.28 1.9-1.27 5.28-1.57 5.39-4.38.04-2.1 1.64-5.49-1.19-6.43-1.51.05-3.02.11-4.54.18 1.36-1.32 5.61-.89 4.24-3.56-3.97-1.59-7.95.36-11.84 1.17m-6.08 6.67c-.17.98-.16 1.97-.09 2.96 1.71-.2 3.4-.58 5.09-.9l-.16-3.18c-1.63.26-3.37.29-4.84 1.12m21.14.1c.12 3.25 3-1.49 0 0m46.12 6.79c1.02 1.22 1.36 2.74 1.47 4.28 1.1 1.15 2.23 2.29 3.36 3.43 3.24.64 6.72 1.69 9.9.17 1.36-.66 3.7-1.55 2.7-3.49-2.58-2.74-5.19-7.11-9.58-6.29-2.6.71-5.13 1.73-7.85 1.9m-62.68-1.19c.48 3.11 1.01 6.21 1.5 9.32.89 4.82-.38 9.94 1.64 14.56 1.2 3.94 4.36 6.75 6.9 9.84 1.63 2.07 4.13.03 6.01-.51.19-4.61 1.96-9.3.43-13.84-1.01-3.34-4.86-4.98-5.43-8.53-.59-3.3-.71-6.66-1.39-9.95-2.81 2.83 1.7 7.41-1.58 9.53-1.13-2.91-1.58-6-1.27-9.11-3.33 1.27-1.44 4.81-1.81 7.36-.84-1.52-.98-3.29-1.25-4.98-1.27-1.21-2.49-2.47-3.75-3.69m11.55 5.57c.37 3.48 1.34 6.92 3.68 9.6 1.02-3.47 1.09-9.18-3.68-9.6z"/><path d="M178.6 0h1.78c.57 21.11.06 42.25.4 63.37 1.22.23 2.44.46 3.67.68.1-21.35-.21-42.7-.01-64.05h1.43c.24 15.64-.25 31.3.06 46.95.36 6.01.09 12.02-.13 18.02 1.25-.71 3.3-1.02 2.82-2.95.27-20.67-.01-41.35.04-62.02h2.6c-.05 20.56.14 41.12-.09 61.67 3.58-1.07 7.97-2.95 11.16.01 5.11 4.58 7.35 11.62 8.23 18.25 3.26-.76 6.52-1.52 9.76-2.38 1.02 2.11 2.36 4.9.25 6.83-2.76.56-5.6 2-8.44 1.46l-.4-1.24c2.83-1.54 8.33-.26 8.44-4.63-3.31-.15-7.32 2.88-10.04.14-.34.54-.69 1.09-1.03 1.64-.31-5.29-2.09-10.45-4.85-14.95-1.63-2.93-4.82-4.31-7.56-5.96-1.52.76-3.04 1.51-4.55 2.28.14 6.87-.05 13.74.14 20.61 1.65-.59 3.31-1.18 4.95-1.79 1.68 1.7 3.17 4.5 1.4 6.66-1.87 1.26-4.31 1.3-6.42 1.98-.06 6.13.08 12.25-.14 18.38 3.64 1.77 8.49 1.7 11.03-1.87 3.33-4.58 5.77-10.27 5.69-16 .5-.16 1.49-.48 1.98-.64-.7 7.22-2.88 14.9-8.33 19.98-3.14 2.96-7.78 2.33-11.23.32.11 13.95.06 27.9.03 41.85 2.66 2.51 5.45 5.02 8.98 6.22 5.31 1.91 7.5 8.01 7.97 13.16-1.17 6.2-1.6 12.63-.43 18.88 1.39 8.55-.41 17.58 2.51 25.88 3.56 3.14 6.52 6.91 10.14 9.98 1.94 1.81 4.7 1.84 7.04 2.79 1.41 1.02 2.51 2.39 3.73 3.62-1.7 3.15-5.04 4.72-8.3 5.77-2.63.25-5.27-.33-7.91-.3-2.24-1.16-4.35-2.75-6.87-3.23-3.88-.35-8.2 1.59-11.7-.89-2.4-1.22-1.71-4.32-1.77-6.5.64-6.2 3.51-12.2 2.18-18.55-.43-5.95-5.9-10.4-5.3-16.52-.21-4.87 1.28-9.62 1.17-14.48-4.04-1.76-8.77-2.01-12.25-4.89-.3.46-.91 1.37-1.21 1.82-4.62 1.93-9.55 3.39-13.93 5.93-.14 11.61.09 23.23-.03 34.85-3.97 1.82-7.79 3.93-11.53 6.19-2.29-1.2-4.51-2.52-6.68-3.9-.83 1.41-1.64 2.83-2.54 4.2-.27-1.9 1.07-3.57 1.21-5.43.55-3.25-.65-7.02 2.03-9.62.11 2.43-.52 4.78-1.32 7.05 2.48 2.29 5.75 6.29 9.43 4.08 2.49-1.05 5.03-2.17 7.02-4.05.71-10.83-.05-21.75.34-32.61-2.77 1.23-5.74 1.62-8.72 1.05-.25 9.04.82 18.19-.58 27.15-1.91-1.49-5.2-1.78-6.12-4.28.03-.4.09-1.22.11-1.62 1.69.89 3.32 1.9 4.95 2.9-.06-8.63.35-17.28-.33-25.89.16.17.48.51.64.67-1.84-3.33-2.32-7.17-2.99-10.86.6.03 1.78.1 2.38.13 1.47-4.01 3.33-8.18 6.89-10.77 5.75-3.76 12.29-6.07 18.86-7.96 2.19 1.04 4.28 2.4 5.28 4.72 1.07-.44 2.16-.87 3.25-1.29-1.63 2.62-4.19 4.72-4.96 7.81-.86 2.9-2.45 6.01-.77 8.93 5.62.97 10.95 3.14 16.21 5.26-1.02.63-2.05 1.22-3.1 1.78-.51 7.74-1.07 16.11 2.81 23.14 2.68 4.92 1.44 10.72 1.81 16.07-1.62 4.51-2.84 9.88-1.18 14.48 4.09.91 8.32-.29 12.43.44 2 .61 3.85 1.61 5.75 2.48 2.38.1 4.73.52 7.12.58 2.16-.75 4.08-2.02 6.13-3-2.76-3.91-8.44-2.79-11.43-6.45-3.09-3.74-6.24-7.41-9.87-10.65-.64-3.93-1.75-7.84-1.53-11.86.18-4.23.32-8.52-.48-12.7-1.54-6.72-.28-13.66.83-20.34-.09-2.53-1.58-4.76-2.48-7.08-1.43-4.03-6.21-4.45-9.21-6.8-4.76-3.78-9.87-7.31-15.66-9.29-3.1-1.2-6.32.33-9.46.5 1.18-1.42 2.63-2.57 4.11-3.65-4.59-.62-9.28-.62-13.77-1.75-2.51-.42-3.12-3.11-4.04-5.06 1.86.54 3.57 1.48 4.59 3.21 5.64 1.28 11.82.38 17.07 3.15 3.89 2.47 8.28 4.05 11.97 6.86-.38-2.33-.67-4.68-.65-7.05.08-12.02.14-24.04.1-36.07-1.21.52-2.4 1.05-3.6 1.58.17 7.48-.06 14.96.09 22.44.31 4.93.64 9.85.57 14.79-.43-.08-1.28-.23-1.71-.31-.08-6.82-.15-13.64-.5-20.45-.3-5.61.59-11.24.1-16.83-.95-.51-1.91-.98-2.89-1.41-.25 12.45-.02 24.9-.12 37.36-.55-.2-1.67-.6-2.22-.8-.78-12.05.4-24.18-.39-36.23-1.11-5.19-.91-10.51-.53-15.77-1.55.06-4.8 2.3-5.08-.18 1.29-1.3 3.28-1.13 4.96-1.51.13-10.56-.6-21.17.74-31.67.05-19.98-.04-39.97 0-59.95m1.81 106.68c1.35.41 2.71.81 4.07 1.2.03-3.93-.07-7.85-.32-11.78-.6-9.83.44-19.67.1-29.5-1.29-.46-2.57-.92-3.86-1.37-.12 13.81-.05 27.63.01 41.45m5.36-39.87c.16 13.71-.49 27.45.65 41.12 1.02-.4 2.07-.77 3.06-1.29.6-1.48.28-3.15.37-4.7-.14-12.03.05-24.05-.06-36.08-1.34.32-2.68.63-4.02.95m6.35 18.99l.2 2.94c2.41-.51 5.81-.97 4.74-4.38-1.65.47-3.3.95-4.94 1.44m-15.97 70.24a57.045 57.045 0 00-15.04 5.7c-2.28 2.06-3.9 4.79-5.46 7.43-1.01 3.16-1.25 6.5-1.55 9.79 1.47 1.31 3.21 3.83 5.42 2.42 5.31-2.28 10.73-4.33 15.94-6.84 2.55-5.48 5.12-11.23 5.27-17.37-1.17-1.35-2.92-1.89-4.58-1.13z"/><path d="M209.29 82l1.96.04c-.99 2.76 1.25 6.73-1.67 8.62-.3-2.88-.29-5.77-.29-8.66zM37.19 94.22c2.19-2.64 5.79-2.69 8.87-3.4 6.99 2.08 10.17 9.61 11.76 16.1.66 1.63.12 5.08 2.72 4.88l.38-.07.1.36c-.55.86-1.95 1.06-2.04 2.23.81 9.51-.45 19.69-5.95 27.73-2.08 3.15-5.84 5.55-9.7 5.15-2.74-.64-5.42-2.09-7.09-4.41-3.68-4.96-5.91-11-6.2-17.17 2.44 1.09 2.01 4.24 2.88 6.35 1.49 5.08 4.29 11.13 9.91 12.52 5.43 1.17 9.41-3.86 11.46-8.19 3.52-8.19 4.26-17.5 2.6-26.23-1.22-6.84-4.36-14.06-11-17.17-2.41-1.83-5 .77-6.98 2.06-6.09 5.81-7.55 14.76-7.79 22.81 4.26-1.05 8.53-2.08 12.86-2.81 1.81 1.69 2.22 5.42-.11 6.82-3.13.63-6.34 1.01-9.33 2.16-.46-.71-.83-1.47-1.13-2.26 3.23-.48 6.52-.85 9.6-2 .11-.68.32-2.05.42-2.74-4.7 1.1-9.46 1.87-14.22 2.7.29-8.91 1.83-18.54 7.98-25.42zM164.08 100.76c1.77 1.37.8 4.91.43 6.99-1.19-1.58-.83-4.93-.43-6.99zM86.83 105.63c2 1.78 4.29 2.9 7.05 2.22-1.25.84-2.51 1.66-3.78 2.48-1.58-1.18-3.3-2.5-3.27-4.7zM119.6 116.9c2.94-1.29 4.57-4.27 7.15-6.07.62 4.94-6.86 5.07-7.64 9.47-.52 2.39-.08 4.83.86 7.06-.61 1.42-1.26 2.85-2.33 4 4.82 1.06 9.23 5.11 14.38 2.99-.05 3.05-3.99 2.2-5.95 3.41l2.26.8.99 1.39c-1.33-.3-2.68-.56-3.92-1.13.25-1.11.6-2.2.92-3.29l-1.38.43c-1.49-2.42-4.61-1.47-6.94-1.93-.81-.62-1.63-1.24-2.45-1.84.55-1.39 1.14-2.78 1.71-4.16-1.21-3.9.11-7.89 2.34-11.13zM128.99 111.81c1.92-1.79 4.75.7 6.95.68-2.18 1.26-5 .8-6.95-.68z"/><path d="M130.59 115.46c.7.23 1.39.47 2.09.7.29 2.25.97 4.56.35 6.82-1.51 2.06-4.48 1.34-6.46 2.55-1.34 1.69-2.19 4.01-4.55 4.5 1.55-3.96 4.49-8.16 9.3-7.63.2-2.35-.21-4.67-.73-6.94zM60.22 116.99c.62.62.62.62 0 0zM26.79 125.37c-1.75-2.16-2.59-6 .35-7.59l1.71.83c-1.38 1.21-2.3 2.61-1.14 4.39.09-.55.28-1.65.37-2.2.75-.39 1.51-.77 2.26-1.15l-.08 2.67c.64-.34 3.95.9 1.91 1.7-1.81.38-3.6.84-5.38 1.35zM111.34 119.84c2.2-.86 1.79 2.5.04 2.62-2.1.82-1.52-2.35-.04-2.62zM134.1 122.62c1.32-2.78 5.06-2.78 7.18-.94-2.41.17-4.82.42-7.18.94zM100.27 123.87c1.78-3.01 5.06-1.84 7.74-.96.07.93.2 2.79.27 3.72 2.3-.13 4.52-3.3 6.67-1.57-2.05 1.32-3.85 3-4.81 5.28-1.18.43-2.38.81-3.59 1.13 1.2-1.15 2.5-2.18 3.78-3.24-2.18-.06-4.65-1.33-6.55.29 1.61 2.04 3.14 4.13 4.76 6.15-.35.87-.71 1.74-1.06 2.62-1.87-2.64-3.34-5.53-5.15-8.21 1.28-1.56 2.54-3.14 3.81-4.7-1.95-.21-3.91-.36-5.87-.51zM133.14 124.97c2.76-1.13 3.29 2.29 3.79 4.19-1.9-.73-2.8-2.56-3.79-4.19zM110.68 134.86c.72-1.94 2.97-1.26 4.53-1.55-.55 2.08-2.97 1.27-4.53 1.55zM136.72 150.02c4.55-5.15 11.35-9.21 18.38-9.51-4.05 2.95-8.86 4.79-13.5 6.64.53.43 1.06.86 1.6 1.29 3.92-2.68 8.61-3.48 13.16-4.45-1.02 3.12-4.63 2.1-7.03 3.01-2.47 1.03-4.89 2.18-7.45 2.98-.64-.35-1.24-.74-1.88-1.08l-3.28 1.12zM157.31 153.2c-.52-2.89.12-5.84 2.8-7.43-1.09 2.41-2.11 4.86-2.8 7.43zM133.03 155.18c3.47-1.5 7.17-2.32 10.89-2.88-2.73 3.2-7.03 3.24-10.89 2.88zM161.12 166.86c3.46-4.45 8.88-7.04 14.43-7.6-.06.52-.17 1.55-.22 2.07-5.17.75-9.34 4.01-14.21 5.53zM194.34 161.87c3.32 1.3 4.03 5.12 4.72 8.21-1.54 1.36-2.89 3.6-5.24 3.36-3.82-.08-6.8-3.03-8.47-6.24 3.04 1.48 5.25 4.5 8.67 5.19 1.51-.52 2.39-1.91 2.97-3.31-.44-2.55-1.68-4.85-2.65-7.21zM117.57 179.36c.97-2.67 4.22-2.5 6.49-3.23-1.84 1.63-4.09 2.72-6.49 3.23zM131.32 179.21c1.78.18 1.94 2.47 2.68 3.74 1.22 4.52 2.24 9.3.95 13.94.84 5.15 2.8 10.09 3.12 15.32-2.18-2.16-2.5-5.38-3.64-8.08-2.35 4.26-3.61 9.1-4.1 13.92.29 8.46 5.01 16.4 3.78 24.99-2.26 6.98 2.74 13.31 3.91 20 .49 6.23 9.38 8.29 13.73 4.5-.43-.61-1.29-1.84-1.71-2.46-3.27 1.37-6.73.74-10.12.39.78-2.17 3.22-1.52 5.02-1.62 1.93.07 3.81-.55 5.73-.51 1.19.89 1.58 2.45 2.45 3.61 1.36.29 2.6-.01 3.73-.9-1.71-3.14-3.92-5.94-6.37-8.52-2.83-4.71-6.21-9.2-7.74-14.55-.4-.08-1.19-.26-1.58-.34-1.45 2.55-2.58 5.39-4.93 7.29-.09-3.62 2.12-7.73 5.77-8.85.79-5.23-1.25-12.06 2.23-17.03-.91 6.52-.29 13.1.87 19.55.81 4.33 3.99 7.59 5.91 11.43 2.25 3.93 7.44 6.91 6.7 12.02-.43 2.03-2.75 1.97-4.36 2.31-5.08 3.87-13.37 2.28-17.23-2.69-.98-2.44-.41-5.35-1.92-7.64-2.11-3.42-1.18-7.61-2.78-11.23.58-4.61 1.57-9.32.28-13.91-1.42-7.64-5.53-15.83-1.3-23.32-.1-3.1-3.5-3.83-5.43-5.59-4.69-3.76-10.08-6.51-14.97-9.97-1.14-.59-1.71-1.7-1.87-2.93 4.84 2.12 9.11 5.32 13.75 7.83 3.03 2.02 6.45 3.73 8.47 6.89 2.5-1.65 2.55-5.16 2.82-7.84.17-4.68 2.34-10.03-1.14-14.06-3.34 1.29-6.64 2.69-9.91 4.16 3.25 2.51 7.08 4.19 10.13 6.94l.24 2.75c-5.18-2.68-9.94-6.1-14.32-9.94 3.64-2.41 8.43-3.44 12.45-5.5.08-1.39.12-2.81.7-4.1zM143.39 180.19c1.51-.01 3.02.02 4.54.06 1.33 1.38 3.52 2.5 3.35 4.74.56 2.29-1.15 4.12-2.04 6.04.71-2.96 1.55-7.01-1.62-8.87-2.98-2.58-5.13 2.17-7.8 3.08.71-1.99 2.3-3.43 3.57-5.05zM142.25 196.14c1.55.14 3.1.32 4.59.76-.98 1.33-2.57 1.42-4.05 1.59-.14-.59-.4-1.76-.54-2.35z"/><path d="M140.97 223.5c-.63-6.51.77-13.49 5.15-18.53 1.31 3.77-2.84 6.23-2.93 9.92-.96 2.76.79 6.93-2.22 8.61zM202.6 227.92c-3.06-.85-3.9-6-1.4-7.85-.05 2.69.46 5.32 1.4 7.85z"/></g></svg>