<svg width="167pt" height="275pt" viewBox="0 0 167 275" xmlns="http://www.w3.org/2000/svg"><g fill="#FFF"><path d="M0 0h167v8.72c-13.94 2.74-28.06 4.43-41.97 7.38-5.58-6.29-15.38-4.27-21.02.82-3.93.59-9.04.42-10.8 4.84-5.56 1.03-11.13 1.98-16.71 2.84-1.3-1.34-2.61-2.67-3.94-3.98-4.66.57-9.53.73-13.66 3.26-.1 1.23-.21 2.45-.31 3.68C39.02 30.61 19.57 34.33 0 37.37V0zM125.12 17.32c14-2.08 27.94-4.48 41.88-6.91v2.3c-13.23 2.84-26.72 4.2-39.94 7.07-.65-.82-1.29-1.64-1.94-2.46z"/><path d="M98.01 26.05c3.31-8.31 13.09-13.21 21.72-11.67 7.02 5.05 10.64 15.64 5.68 23.32 1.98-1.68 3.61-3.72 4.64-6.11-.85-3.62-1-7.41-2.51-10.85 13.25-1.37 26.34-4.06 39.46-6.31V275H0V43.42c11.65-2.03 23.3-3.96 34.91-6.21 7.04-1.54 14.33-1.55 21.3-3.48 1.05 1.82 2.18 3.59 3.39 5.32-.36 2.54-.26 5.11 1.35 7.23.23-2.45.56-4.89.54-7.34.46-2.28-1.93-3.33-3.18-4.78.65-1.45 1.29-2.9 1.94-4.35 2.89-.2 5.98-.16 8.38-2.05-2.4-.19-4.81-.21-7.22-.16l.09-3.51c3.36-.73 6.82-.89 10.2-1.52 4.08 1.79 5.03 6.62 3.36 10.46-5.57 3.45-7.44 11.04-4.05 16.65-.75 2.29-1.24 4.7-2.44 6.82-2.02 2.35-4.82 3.95-6.58 6.54-.57 1.54-.41 3.22-.57 4.82 1.93-2.84 3.37-6.11 6.24-8.17 4.14-3 3.04-9.06 6.55-12.58 3.33-4.62 9.72-5.14 14.81-3.65 2.37-1.02 4.8-1.9 7.33-2.42 1.4-2.1 2.7-4.27 4-6.44.69.56 2.07 1.67 2.76 2.23-2.08-3.36-5.89-6.4-5.1-10.78m10.54 11.98c1.78.75 3.59 1.44 5.42 2.08-.44 1.62-.86 3.26-1.25 4.9.53-.26 1.59-.76 2.12-1.01.37-1.38.76-2.75 1.17-4.12.96.37 1.92.75 2.87 1.13 2.07-.41 3.69-1.66 5.17-3.09-2.05.02-4.03.66-6.08.7-3.16-.02-6.25-1.45-9.42-.59m-16.66 5.33c-.22.49-.67 1.49-.9 1.99 2.77-1.52 5.81-2.3 8.99-1.96 2.84.3 5.36-1.72 6.38-4.27-4.19 3.33-9.73 2.24-14.47 4.24m32.98-2.33c1.67 4.79 1.09 10.42-2.08 14.47-.46-.27-1.37-.82-1.82-1.09-.1 3.96-1.22 7.67-3.62 10.85.13 5.27-4.12 8.41-7.28 11.94.12 3.47-.16 6.94-.42 10.39-.46-.17-1.39-.52-1.85-.69-.02-2.29-1.94-3.56-3.44-4.95.81 3.1 1.72 6.16 2.63 9.23.31-.56.91-1.68 1.21-2.24 1.22 2.66 1.34 5.64 1.81 8.49-7.87 3.07-16.17 6.37-24.79 5.18-4.27-4.11-4.73-11.15-9.72-14.48-.62-2-1.6-3.97-1.55-6.11.32-.87-.32-3.99 1.39-2.59 2.4 5.73 3.05 12.18 6.49 17.48.86 1.73 2.43 2.82 4.16 3.59-3.35-6.12-5.66-12.68-8.36-19.09 2.35-.11 4.7-.45 6.89-1.36-3.13-1.76-7.82-.64-9.64-4.6.74-1.85 1.64-3.64 2.46-5.46.82.76 1.65 1.52 2.49 2.27 3.93-.94 8.31 1.05 11.81-1.46l-1.37-1.1c1.03.14 2.07.3 3.1.46.3 2.75 1.08 5.41 1.96 8.03.07-2.38-.04-4.79-.95-7.01 1.03-2.94 2.44-5.73 3.9-8.48-.65-.85-1.31-1.68-1.96-2.52-.91 2.53-1.75 5.11-3.16 7.42l.63.3c-1.11.22-2.21.45-3.31.69-.84.86-1.69 1.71-2.55 2.55-3.3-1.79-3.53-5.95-6.27-8.28.23 3.07 1.02 6.1 2.85 8.62-2.2-.72-4.79-.91-6.48-2.67-.35-2.5 1.16-4.79 1.63-7.19-3.19 3.67-3.44 8.98-6.86 12.56-1 3.27-3.98 6.74-7.75 5.44-1.93-4.54-7.38-7.13-7.55-12.48-.33-6.69 2.43-13.13 3.25-19.74-.76-.48-1.5-.98-2.23-1.5.31 5.52-1.58 10.78-2.81 16.07.29 2.99-.1 6.08.67 9 1.92 3.25 4.59 5.97 6.73 9.06.98 1.5 2.93 1.72 4.44 2.46 2.11-1.42 4.41-2.7 5.84-4.91-1.01 2.89-1.46 6.24.12 9.01 3.19 5.27 6.45 10.56 8.49 16.4 2 1.06 4.13 1.82 6.39 2.09-.39.62-.78 1.24-1.17 1.87 2.19.71 4.35 1.88 6.72 1.72 2.31-.36 4.45-1.37 6.68-2.07 2.54-.9 5.51-1.33 7.14-3.76-.98-.01-2.93-.04-3.9-.05 2.15-1.19 4.29-2.4 6.34-3.75.25 1.74.88 3.36 2.28 4.48 3.59 3.5 2.77 8.98 2.46 13.49-.61 5.28-.74 11.68 3.69 15.45-3.59 4.75-9.17 6.96-14.88 7.88l-1.77-2.01c-.9.31-1.8.63-2.7.94-1.28 6.74 4.33 12.12 3.71 18.73 0 1.81.04 3.63.11 5.45-4.44-1.8-9.2-2.76-13.99-2.74.34-2.64.64-5.3 1.41-7.86-.11-.45-.34-1.33-.45-1.77 1.65-2.07 2.74-4.5 4.25-6.65 1.9-1.81 3.38-3.98 4.58-6.3-3.7 1.98-7.62 4.29-11.99 3.82-4.88-.16-9.33-2.61-12.73-5.99.64-4.33 2.04-8.47 3.65-12.52 1.8-4.86 1.44-10.11 1.99-15.16 1.3-2.12 3.21-4.14 1.46-6.71-1.31 2.75-3.43 5.29-3.45 8.48-.52 5.49-1.1 11.03-3.47 16.09-.75 3.88-3.93 8.63-.56 12.02 4.44 5.35 11.69 7.05 18.38 6.47-1.63 3.39-3.93 6.36-6.56 9.03-.71-.02-1.42-.01-2.12.03-2.36 2.68-2.76 6.47-2.1 9.86 1.28-3.14 1.9-6.5 2.96-9.71.34.49 1.01 1.49 1.34 1.99.75-.82 2.25-2.46 3-3.29-.81 3.05-1.12 6.18-1.32 9.32 4.83 1.31 10.2 1.53 14.51 4.25 5.39 4.97 13.51 5.03 20.12 2.82-.92-.54-1.84-1.08-2.77-1.58.56-5.12-.66-10.23-.13-15.36.07-5.87 1.71-11.92-.39-17.61 1.31-3.66-1.14-7-1.73-10.52-.93-3.62.56-7.25.5-10.89-.16-7.9-6.75-14.02-7.01-21.85.37-4.63 1.75-9.24 1.08-13.9 3.96-2.9 7.57-6.88 7.85-12.03 1.79-2.37 2.96-5.12 3.44-8.05 4.51-3.72 5.4-9.66 4.76-15.18-.96-.36-3.72-3.79-2.74-.93m-3.55.88c.31 1.99 1.08 4.02.58 6.04-1 2.17-2.84 3.82-3.95 5.92-.93 2.48-.78 5.45-2.77 7.43-1.54 1.61-2.32 3.69-3.16 5.71-1.75 4.33-5.99 6.84-8.3 10.81 4.47-2.37 8.23-6.08 10.12-10.83 1.47-4.27 6.16-7.07 5.37-12.08 2.76-3.71 5.77-7.62 5.1-12.56-1-.14-2-.28-2.99-.44M109.96 45c.11 4.47 1.81 8.95.69 13.42-1.36 4.83-5.03 8.48-7.25 12.89-2.35 4.32-5.31 8.18-8.42 11.96 2.44-1.05 5.39-2.29 5.98-5.2.71-2.93 3.64-4.51 4.78-7.24 2.45-5.23 6.98-9.7 7.31-15.74-.1-3.54-1.01-7.18-3.09-10.09m-21.98 5.59c.5 5.41 6.68 7.47 11.22 8.41-4.04-2.42-7.89-5.06-11.22-8.41m-1.43 10.35c-1.61-.16-3.22-.35-4.81-.64-.48.16-1.45.49-1.93.65 3.52 1.8 9.42 2.53 10.87-2.29-1.4.72-2.78 1.48-4.13 2.28M82.94 84.1l4.33.06c.2-.62.59-1.86.79-2.47-1.71.79-3.42 1.59-5.12 2.41m3.89 5.02c2.93-1.72 6.48-3.92 6.16-7.86-2.36 2.36-4.26 5.13-6.16 7.86m12.21 8.22c.36-4.47.35-8.97.97-13.42-.25-.54-.74-1.61-.99-2.15-.99 5.11-2.33 10.61.02 15.57M87.8 92.29c-.48 1.37-.57 3.41.54 4.49 2-.26 1.3-4.66-.54-4.49m2.28 6.25c1.38-.15 1.57-2.47.95-3.45-1.3.23-1.66 2.47-.95 3.45m-2.71 16.25c1.61 2.45 3.63 4.78 6.67 5.35a67.043 67.043 0 00-6.67-5.35m12.02 13.32c-.69 2.5-.61 5.15-.4 7.71 2-2.08 1.35-5.15 2.25-7.68 1.58-2.1 3.61-3.99 4.04-6.73-2.16 2.05-4.24 4.23-5.89 6.7m-11.1-1.69c1.77 2.21 4.48 3.05 7.23 2.86-1.22-2.57-4.9-1.9-7.23-2.86m-16.58 32.7c.97 4.52-.4 9.7 2.55 13.68 4.92 3.69 11.19 3.91 16.63 6.38 5.06 1.4 10.42.84 15.52 2.09.14 4.24.36 8.47.5 12.71.43 3.24-2.35 5.81-2.07 9.04.12 3.64 1.85 6.95 3.12 10.29 1.86.57 3.8.81 5.75.87 2.51-1.96 5.64-3.7 6.49-7.02 1.46-5.08 2.06-10.91-.44-15.76-1.55-2.79-.65-6.03-.05-8.95-.73-2.06-1.78-4.35-4.12-4.92-2.92-1.44-6.09.22-8.53 1.84-4.07-2.2-8.82-1.06-13.21-1.88-4.85-.42-8.63-3.76-12.72-6.05.61.96 1.81 2.88 2.41 3.84-2.66-1.22-5.27-2.54-8-3.58-.82-2.14-2.38-4.22-1.79-6.63.58-3.39.19-6.78-.68-10.08-1.29-5.32 1.12-10.58.7-15.9-3.4 5.92-3.87 13.49-2.06 20.03m50.85 9.23c1.32.24 2.64.51 3.96.81 1.05 1.81 3.15 3.43 2.73 5.77-.09 3.13-1.52 6.01-1.83 9.1.74 3.61 1.84 7.31.44 10.94-1.77 1.68-3.21 3.69-5.13 5.22.4.44.81.88 1.22 1.32 1.59-1.42 3.22-2.79 4.94-4.04.97-2.07 1.98-4.18 2.15-6.49.38-2.76-1.92-5.26-.89-8.01.99-3.77 1.24-7.68.84-11.56-.77-1.19-1.51-2.41-2.22-3.63-1.91-.58-3.85-1.07-5.8-1.48-.1.51-.31 1.53-.41 2.05z"/><path d="M95.46 21.99c2.15-1.42 4.4-2.77 6.92-3.43-2.45 2.08-4.86 4.34-6.07 7.4-.28-1.33-.56-2.65-.85-3.97zM77.23 25.93c5.58-1.04 11.37-1.33 16.68-3.47.24 1.02.5 2.03.68 3.06-.78 0-2.33-.01-3.11-.01.36 1.36.78 2.7 1.25 4.03.56-.75 1.68-2.24 2.24-2.99.09.61.26 1.82.35 2.43 1.52 1.52 2.78 3.27 4.12 4.95-1.4 1.44-2.5 3.12-3.85 4.6-2.15 1.02-4.38 1.88-6.51 2.94-3.72-1.81-8.25-1.48-11.7.77-2.39 1.74-4.13 4.18-5.8 6.58-.31-3.72-.98-7.78.79-11.25 2.14-2.5 4.76-4.64 6.03-7.79 4.11-.59 8.17-1.64 12.35-1.79-.69-.54-1.38-1.09-2.08-1.63-3.47.67-6.93 1.4-10.42 1.97-.25-.6-.76-1.8-1.02-2.4zM0 39.27c19.84-3.05 39.46-7.58 59.47-9.48-.65.57-1.96 1.71-2.62 2.29-5.82 1.68-11.94 1.57-17.85 2.74C26.05 37.3 13 39.28.01 41.55L0 40.9v-1.63zM97.07 104.58c1.86-.69 3.7-1.52 5.7-1.76-3.97 2.48-9.05 4.73-13.75 3.08 2.47-1.39 5.46-.32 8.05-1.32zM99.77 141.02c5.95 2.51 12.7-.23 17.81-3.53.57 7.78-.21 15.53-.5 23.29-1.4 2.51-.49 5.21.58 7.64-4.3.92-8.41-.85-12.42-2.13.67-4.95 1.46-10.53-1.4-14.94-1.65-3.32-2.69-6.9-4.07-10.33zM108.46 180.9c1.55-.83 3.12-1.63 4.7-2.41 2.47.69 4.5 2.18 5.5 4.61-2.54 3.28-1.48 7.63-.01 11.12 1.56 6.57.4 15.56-6.54 18.62-.81-.27-2.42-.81-3.23-1.09-1.35-4.08-3.05-8.7-1.06-12.88 2.62-5.68.44-12 .64-17.97z"/></g><g fill="#333"><path d="M125.03 16.1c13.91-2.95 28.03-4.64 41.97-7.38v1.69c-13.94 2.43-27.88 4.83-41.88 6.91.65.82 1.29 1.64 1.94 2.46 13.22-2.87 26.71-4.23 39.94-7.07v1.72c-13.12 2.25-26.21 4.94-39.46 6.31 1.51 3.44 1.66 7.23 2.51 10.85-1.03 2.39-2.66 4.43-4.64 6.11 4.96-7.68 1.34-18.27-5.68-23.32-8.63-1.54-18.41 3.36-21.72 11.67-.79 4.38 3.02 7.42 5.1 10.78-.69-.56-2.07-1.67-2.76-2.23-1.3 2.17-2.6 4.34-4 6.44-2.53.52-4.96 1.4-7.33 2.42-5.09-1.49-11.48-.97-14.81 3.65-3.51 3.52-2.41 9.58-6.55 12.58-2.87 2.06-4.31 5.33-6.24 8.17.16-1.6 0-3.28.57-4.82 1.76-2.59 4.56-4.19 6.58-6.54 1.2-2.12 1.69-4.53 2.44-6.82-3.39-5.61-1.52-13.2 4.05-16.65 1.67-3.84.72-8.67-3.36-10.46-3.38.63-6.84.79-10.2 1.52l-.09 3.51c2.41-.05 4.82-.03 7.22.16-2.4 1.89-5.49 1.85-8.38 2.05-.65 1.45-1.29 2.9-1.94 4.35 1.25 1.45 3.64 2.5 3.18 4.78.02 2.45-.31 4.89-.54 7.34-1.61-2.12-1.71-4.69-1.35-7.23-1.21-1.73-2.34-3.5-3.39-5.32-6.97 1.93-14.26 1.94-21.3 3.48C23.3 39.46 11.65 41.39 0 43.42V40.9l.01.65C13 39.28 26.05 37.3 39 34.82c5.91-1.17 12.03-1.06 17.85-2.74.66-.58 1.97-1.72 2.62-2.29-20.01 1.9-39.63 6.43-59.47 9.48v-1.9c19.57-3.04 39.02-6.76 58.59-9.81.1-1.23.21-2.45.31-3.68 4.13-2.53 9-2.69 13.66-3.26 1.33 1.31 2.64 2.64 3.94 3.98 5.58-.86 11.15-1.81 16.71-2.84 1.76-4.42 6.87-4.25 10.8-4.84 5.64-5.09 15.44-7.11 21.02-.82m-29.57 5.89c.29 1.32.57 2.64.85 3.97 1.21-3.06 3.62-5.32 6.07-7.4-2.52.66-4.77 2.01-6.92 3.43m-18.23 3.94c.26.6.77 1.8 1.02 2.4 3.49-.57 6.95-1.3 10.42-1.97.7.54 1.39 1.09 2.08 1.63-4.18.15-8.24 1.2-12.35 1.79-1.27 3.15-3.89 5.29-6.03 7.79-1.77 3.47-1.1 7.53-.79 11.25 1.67-2.4 3.41-4.84 5.8-6.58 3.45-2.25 7.98-2.58 11.7-.77 2.13-1.06 4.36-1.92 6.51-2.94 1.35-1.48 2.45-3.16 3.85-4.6-1.34-1.68-2.6-3.43-4.12-4.95-.09-.61-.26-1.82-.35-2.43-.56.75-1.68 2.24-2.24 2.99-.47-1.33-.89-2.67-1.25-4.03.78 0 2.33.01 3.11.01-.18-1.03-.44-2.04-.68-3.06-5.31 2.14-11.1 2.43-16.68 3.47z"/><path d="M108.55 38.03c3.17-.86 6.26.57 9.42.59 2.05-.04 4.03-.68 6.08-.7-1.48 1.43-3.1 2.68-5.17 3.09-.95-.38-1.91-.76-2.87-1.13-.41 1.37-.8 2.74-1.17 4.12-.53.25-1.59.75-2.12 1.01.39-1.64.81-3.28 1.25-4.9-1.83-.64-3.64-1.33-5.42-2.08zM91.89 43.36c4.74-2 10.28-.91 14.47-4.24-1.02 2.55-3.54 4.57-6.38 4.27-3.18-.34-6.22.44-8.99 1.96.23-.5.68-1.5.9-1.99z"/><path d="M124.87 41.03c-.98-2.86 1.78.57 2.74.93.64 5.52-.25 11.46-4.76 15.18-.48 2.93-1.65 5.68-3.44 8.05-.28 5.15-3.89 9.13-7.85 12.03.67 4.66-.71 9.27-1.08 13.9.26 7.83 6.85 13.95 7.01 21.85.06 3.64-1.43 7.27-.5 10.89.59 3.52 3.04 6.86 1.73 10.52 2.1 5.69.46 11.74.39 17.61-.53 5.13.69 10.24.13 15.36.93.5 1.85 1.04 2.77 1.58-6.61 2.21-14.73 2.15-20.12-2.82-4.31-2.72-9.68-2.94-14.51-4.25.2-3.14.51-6.27 1.32-9.32-.75.83-2.25 2.47-3 3.29-.33-.5-1-1.5-1.34-1.99-1.06 3.21-1.68 6.57-2.96 9.71-.66-3.39-.26-7.18 2.1-9.86.7-.04 1.41-.05 2.12-.03 2.63-2.67 4.93-5.64 6.56-9.03-6.69.58-13.94-1.12-18.38-6.47-3.37-3.39-.19-8.14.56-12.02 2.37-5.06 2.95-10.6 3.47-16.09.02-3.19 2.14-5.73 3.45-8.48 1.75 2.57-.16 4.59-1.46 6.71-.55 5.05-.19 10.3-1.99 15.16-1.61 4.05-3.01 8.19-3.65 12.52 3.4 3.38 7.85 5.83 12.73 5.99 4.37.47 8.29-1.84 11.99-3.82-1.2 2.32-2.68 4.49-4.58 6.3-1.51 2.15-2.6 4.58-4.25 6.65.11.44.34 1.32.45 1.77-.77 2.56-1.07 5.22-1.41 7.86 4.79-.02 9.55.94 13.99 2.74-.07-1.82-.11-3.64-.11-5.45.62-6.61-4.99-11.99-3.71-18.73.9-.31 1.8-.63 2.7-.94l1.77 2.01c5.71-.92 11.29-3.13 14.88-7.88-4.43-3.77-4.3-10.17-3.69-15.45.31-4.51 1.13-9.99-2.46-13.49-1.4-1.12-2.03-2.74-2.28-4.48-2.05 1.35-4.19 2.56-6.34 3.75.97.01 2.92.04 3.9.05-1.63 2.43-4.6 2.86-7.14 3.76-2.23.7-4.37 1.71-6.68 2.07-2.37.16-4.53-1.01-6.72-1.72.39-.63.78-1.25 1.17-1.87-2.26-.27-4.39-1.03-6.39-2.09-2.04-5.84-5.3-11.13-8.49-16.4-1.58-2.77-1.13-6.12-.12-9.01-1.43 2.21-3.73 3.49-5.84 4.91-1.51-.74-3.46-.96-4.44-2.46-2.14-3.09-4.81-5.81-6.73-9.06-.77-2.92-.38-6.01-.67-9 1.23-5.29 3.12-10.55 2.81-16.07.73.52 1.47 1.02 2.23 1.5-.82 6.61-3.58 13.05-3.25 19.74.17 5.35 5.62 7.94 7.55 12.48 3.77 1.3 6.75-2.17 7.75-5.44 3.42-3.58 3.67-8.89 6.86-12.56-.47 2.4-1.98 4.69-1.63 7.19 1.69 1.76 4.28 1.95 6.48 2.67-1.83-2.52-2.62-5.55-2.85-8.62 2.74 2.33 2.97 6.49 6.27 8.28.86-.84 1.71-1.69 2.55-2.55 1.1-.24 2.2-.47 3.31-.69l-.63-.3c1.41-2.31 2.25-4.89 3.16-7.42.65.84 1.31 1.67 1.96 2.52-1.46 2.75-2.87 5.54-3.9 8.48.91 2.22 1.02 4.63.95 7.01-.88-2.62-1.66-5.28-1.96-8.03-1.03-.16-2.07-.32-3.1-.46l1.37 1.1c-3.5 2.51-7.88.52-11.81 1.46-.84-.75-1.67-1.51-2.49-2.27-.82 1.82-1.72 3.61-2.46 5.46 1.82 3.96 6.51 2.84 9.64 4.6-2.19.91-4.54 1.25-6.89 1.36 2.7 6.41 5.01 12.97 8.36 19.09-1.73-.77-3.3-1.86-4.16-3.59-3.44-5.3-4.09-11.75-6.49-17.48-1.71-1.4-1.07 1.72-1.39 2.59-.05 2.14.93 4.11 1.55 6.11 4.99 3.33 5.45 10.37 9.72 14.48 8.62 1.19 16.92-2.11 24.79-5.18-.47-2.85-.59-5.83-1.81-8.49-.3.56-.9 1.68-1.21 2.24-.91-3.07-1.82-6.13-2.63-9.23 1.5 1.39 3.42 2.66 3.44 4.95.46.17 1.39.52 1.85.69.26-3.45.54-6.92.42-10.39 3.16-3.53 7.41-6.67 7.28-11.94 2.4-3.18 3.52-6.89 3.62-10.85.45.27 1.36.82 1.82 1.09 3.17-4.05 3.75-9.68 2.08-14.47m-27.8 63.55c-2.59 1-5.58-.07-8.05 1.32 4.7 1.65 9.78-.6 13.75-3.08-2 .24-3.84 1.07-5.7 1.76m2.7 36.44c1.38 3.43 2.42 7.01 4.07 10.33 2.86 4.41 2.07 9.99 1.4 14.94 4.01 1.28 8.12 3.05 12.42 2.13-1.07-2.43-1.98-5.13-.58-7.64.29-7.76 1.07-15.51.5-23.29-5.11 3.3-11.86 6.04-17.81 3.53z"/><path d="M121.32 41.91c.99.16 1.99.3 2.99.44.67 4.94-2.34 8.85-5.1 12.56.79 5.01-3.9 7.81-5.37 12.08-1.89 4.75-5.65 8.46-10.12 10.83 2.31-3.97 6.55-6.48 8.3-10.81.84-2.02 1.62-4.1 3.16-5.71 1.99-1.98 1.84-4.95 2.77-7.43 1.11-2.1 2.95-3.75 3.95-5.92.5-2.02-.27-4.05-.58-6.04zM109.96 45c2.08 2.91 2.99 6.55 3.09 10.09-.33 6.04-4.86 10.51-7.31 15.74-1.14 2.73-4.07 4.31-4.78 7.24-.59 2.91-3.54 4.15-5.98 5.2 3.11-3.78 6.07-7.64 8.42-11.96 2.22-4.41 5.89-8.06 7.25-12.89 1.12-4.47-.58-8.95-.69-13.42zM87.98 50.59c3.33 3.35 7.18 5.99 11.22 8.41-4.54-.94-10.72-3-11.22-8.41zM86.55 60.94c1.35-.8 2.73-1.56 4.13-2.28-1.45 4.82-7.35 4.09-10.87 2.29.48-.16 1.45-.49 1.93-.65 1.59.29 3.2.48 4.81.64zM82.94 84.1c1.7-.82 3.41-1.62 5.12-2.41-.2.61-.59 1.85-.79 2.47l-4.33-.06zM86.83 89.12c1.9-2.73 3.8-5.5 6.16-7.86.32 3.94-3.23 6.14-6.16 7.86zM99.04 97.34c-2.35-4.96-1.01-10.46-.02-15.57.25.54.74 1.61.99 2.15-.62 4.45-.61 8.95-.97 13.42zM87.8 92.29c1.84-.17 2.54 4.23.54 4.49-1.11-1.08-1.02-3.12-.54-4.49zM90.08 98.54c-.71-.98-.35-3.22.95-3.45.62.98.43 3.3-.95 3.45zM87.37 114.79c2.33 1.63 4.56 3.43 6.67 5.35-3.04-.57-5.06-2.9-6.67-5.35zM99.39 128.11c1.65-2.47 3.73-4.65 5.89-6.7-.43 2.74-2.46 4.63-4.04 6.73-.9 2.53-.25 5.6-2.25 7.68-.21-2.56-.29-5.21.4-7.71zM88.29 126.42c2.33.96 6.01.29 7.23 2.86-2.75.19-5.46-.65-7.23-2.86zM71.71 159.12c-1.81-6.54-1.34-14.11 2.06-20.03.42 5.32-1.99 10.58-.7 15.9.87 3.3 1.26 6.69.68 10.08-.59 2.41.97 4.49 1.79 6.63 2.73 1.04 5.34 2.36 8 3.58-.6-.96-1.8-2.88-2.41-3.84 4.09 2.29 7.87 5.63 12.72 6.05 4.39.82 9.14-.32 13.21 1.88 2.44-1.62 5.61-3.28 8.53-1.84 2.34.57 3.39 2.86 4.12 4.92-.6 2.92-1.5 6.16.05 8.95 2.5 4.85 1.9 10.68.44 15.76-.85 3.32-3.98 5.06-6.49 7.02-1.95-.06-3.89-.3-5.75-.87-1.27-3.34-3-6.65-3.12-10.29-.28-3.23 2.5-5.8 2.07-9.04-.14-4.24-.36-8.47-.5-12.71-5.1-1.25-10.46-.69-15.52-2.09-5.44-2.47-11.71-2.69-16.63-6.38-2.95-3.98-1.58-9.16-2.55-13.68m36.75 21.78c-.2 5.97 1.98 12.29-.64 17.97-1.99 4.18-.29 8.8 1.06 12.88.81.28 2.42.82 3.23 1.09 6.94-3.06 8.1-12.05 6.54-18.62-1.47-3.49-2.53-7.84.01-11.12-1-2.43-3.03-3.92-5.5-4.61-1.58.78-3.15 1.58-4.7 2.41zM122.56 168.35c.1-.52.31-1.54.41-2.05 1.95.41 3.89.9 5.8 1.48.71 1.22 1.45 2.44 2.22 3.63.4 3.88.15 7.79-.84 11.56-1.03 2.75 1.27 5.25.89 8.01-.17 2.31-1.18 4.42-2.15 6.49-1.72 1.25-3.35 2.62-4.94 4.04-.41-.44-.82-.88-1.22-1.32 1.92-1.53 3.36-3.54 5.13-5.22 1.4-3.63.3-7.33-.44-10.94.31-3.09 1.74-5.97 1.83-9.1.42-2.34-1.68-3.96-2.73-5.77-1.32-.3-2.64-.57-3.96-.81z"/></g></svg>