<svg width="118pt" height="250pt" viewBox="0 0 118 250" xmlns="http://www.w3.org/2000/svg"><g fill="#FFF"><path d="M0 0h16.34c-.24 47.65-.02 95.3-.13 142.95 0 3.5-.2 7.08.83 10.47.89-5.75.62-11.58.83-17.38.82-30.67.68-61.35.55-92.03-.71-6.32.53-12.67-.38-18.96-.72-8.33-.92-16.7-1.29-25.05h9.42c-.1 10.92-.98 21.86-.4 32.76.96-1.78 1.8-3.7 1.72-5.77.05-9-.02-17.99 0-26.99h20.79c.66 10.34 1.46 20.67 2.18 31.01-1.53.21-3.07.43-4.6.65-1.51-1.3-2.91-2.93-4.88-3.5-2.77.41-5.48 1.3-8.32 1.14-2.42 1.39-4.77 3.12-5.83 5.81-2.72.17-5.4.7-7.99 1.55.15 2.15.3 4.31.46 6.46 3.25-.64 6.5-1.49 9.84-1.36.12-2.34.39-4.69 1.61-6.74 2.61.21 5.22.35 7.84.3-3.28-1.42-6.92-2.85-10.41-.86 3.35-2.86 7.83-4.62 12.25-4.15 5.05 1.3 4.12 7.58 4.19 11.59-1.09.34-2.18.68-3.27 1.03.23.4.68 1.21.9 1.62-.64 2.92-.96 5.97-.38 8.93 1.01 3.75 3.75 6.79 4.61 10.59.86 3.86 2.01 7.65 2.55 11.57l-4.64-1.08c-.05-1.04-.11-2.07-.16-3.1-1.21 3.94-2.76 7.78-3.8 11.78 1.63-2.27 2.88-4.78 4.01-7.33 3.59 1.82 6.35 5.11 7.25 9.06 1.09 5.36 3.67 10.55 2.86 16.15-2.97-1.06-5.9-2.24-8.94-3.07 3 3.08 7.29 4.15 10.73 6.56 1.77 1.98 3.11 4.29 4.65 6.44 2.94.17 5.86.56 8.78.87-1.43-3.56-5.74-2.48-8.67-2.87 2.22-.74 4.46-1.44 6.72-2.06-3.71-2.82-7.45-5.89-9.97-9.85-1.43-6.31 1-13.21 5.54-17.71 1.99-2.12 4.35-4.55 7.55-4.19 4.19-.17 7.58 3.04 9.32 6.58 1.69 3.54 3.13 7.65 1.89 11.57-.78 2.45-3 3.98-4.32 6.11-.42 3.6.36 7.19.92 10.74.92-1.75.57-5.09 3.2-5.17 1.82-.18 3.54.59 5.28 1.01 0 1.72.06 3.45.18 5.17-2.34 4.07-4.92 8.21-5.27 13.03 2.44-2.84 3.58-6.46 5.46-9.64 2.12-3.49 1.46-7.79 2.78-11.57-1.29.51-2.59.99-3.9 1.45l.04-1.57c-2.64-.69-5.25-.32-7.4 1.45-.06-3.66 2.65-5.89 4.67-8.51 1.84-5.61.92-12.3-2.93-16.89-2.03-2.57-4.83-4.34-7.41-6.31-.75 0-2.27.02-3.02.02-.49-4.72-2.18-9.18-3.13-13.79-.21-5.54.63-11.15-.84-16.59-.8-2.48 2.09-3.8 3.28-5.56a222.98 222.98 0 00-3.7 3.2c-.91-1.56-1.82-3.13-2.7-4.71 2-.88 2.33-2.87 2.63-4.77-.85-.73-1.69-1.47-2.53-2.21 1.78-1.12 3.56-2.21 5.35-3.29 3.33.12 6.71.15 9.91 1.16-1.76.6-3.54 1.18-5.32 1.75 2.34.29 4.69.41 7.01.84.26 3.6-2.97 6.12-4.27 9.24-1.7.67-3.35.23-4.99-.34.33.95.75 1.85 1.25 2.72.94.17 1.87-.31 2.81-.41.03 5.98 1.4 11.88 3.7 17.38 1.36 3.16 1.65 6.64.99 10.01 2.03 4.28 4.25 8.49 5.71 13.01.97 3.35 1.19 6.86 2.15 10.2 1.49 3.35 4.58 5.85 5.56 9.46.36 3.56-.62 7.15-.04 10.7.92 3.22 1.44 6.52 1.71 9.86 1.24-3.1 1.7-6.46.71-9.68-1.42-5.47.24-11.37-1.92-16.69-.86-2.18-3.03-3.32-4.85-4.58.12-7-2.74-13.51-5.57-19.75-1.57-3.05-.45-6.61-1.56-9.79-.76-3.54-3.18-6.47-3.79-10.05-.64-3.3-.97-6.65-1.5-9.97 1.95-2.65 3.7-5.44 5.71-8.05 1.76-.78 3.65-1.23 5.5-1.79-.07-1.58-.07-3.17-.31-4.73-1.38-.81-3.02-.25-4.51-.25-2.87.6-5.43-1.12-8.14-1.73-4.14-.79-8.45.1-12.2 1.94.11.78.33 2.33.43 3.1-3.48.94-7.03 1.62-10.6 2.09-.45-10.23-2.07-20.4-1.98-30.64H118v250H0V0m70.89 27.84v5.4c1.53.19 3.1.34 4.58-.2-.68-.43-2.06-1.28-2.74-1.71l.12-3.38c-.49-.03-1.47-.08-1.96-.11M27.6 43.07c.75 2.2 2.42 3.84 3.57 5.81-.45 5.61-.97 11.47 1.26 16.82.06 4.34-.04 8.96 2.28 12.82 1.1 2.78 2.28 5.59 2.67 8.57-.19 2.28-.8 4.51-1 6.8-.56 4.3 1.62 8.24 2.5 12.33.72 3.68 1.75 7.29 3.06 10.8 1.62 4.19 1.38 8.74 2.29 13.09.09 4.11 3.5 6.8 5.65 9.95.04.7.1 2.1.13 2.81 1.77 4.01 3.25 8.24 3.07 12.69-6.4 1.47-12.62 3.9-19.19 4.54-1.31-1.72-2.72-3.39-4.46-4.7-.08-1.11-.16-2.22-.23-3.33l1.19-1.91c6.26-1.49 12.83-1.74 18.9-3.96.12-.25.36-.74.48-.98-3.77-.89-7.92 1.16-11.86 1.46-5.57-2.13-13.21-1.07-16.52 4.37-1.51 5.53-.89 11.4.82 16.83-.12 3.79.14 7.59.53 11.37 2.62 8.43 4.78 17.04 6.57 25.69.53-.31 1.58-.93 2.11-1.24-.93-3.24-.95-6.7-2.27-9.82-4.13-10.85-5.08-22.47-7.1-33.81-.55-3.38.5-6.9 2.45-9.65 1.31-1.98 3.96-1.9 5.99-2.54-3.12 1.68-3.82 5.26-2.86 8.46 1.9 1.96 4.38 3.19 6.41 5 1.59 1.77 1.64 4.39.28 6.32-.01 3.69-.02 7.38.07 11.07.97 2.45 3.58 3.59 5.49 5.18-.87 3.78-2.41 8.45.71 11.64.23 5.66-.94 11.47.76 16.99 1.53 5.6 2.23 11.81.91 17.44-5.15 2.53-10.42-.73-14.68-3.49-3.05-2.23-6.97-2.09-10.48-3.03-2.43-.76-4.52-2.28-6.63-3.64 1.14-2.04 2.6-3.9 4.57-5.21 2.28.3 4.99 1.21 6.79-.76 2.98-2.66 7.02-3.45 10.28-5.64-.2-.81-.58-2.43-.78-3.24-.94.89-1.86 1.81-2.76 2.75-2.82 1.21-5.42 2.82-7.99 4.48-2.57.59-5.46.05-7.78 1.52-1.86 1.12-3.78 2.87-3.42 5.28-.36 2.68 2.64 3.76 4.38 5.08 3.49 2.55 8.16 1.95 11.73 4.25 3.89 2.21 7.96 4.77 12.55 4.9 2.51-.52 6.66-.91 6.8-4.23 2.19-9.17-2.94-17.9-2.96-27.01-.04-2-.24-4 .01-5.99 5.7 2.4 10.59 6.27 15.67 9.72 1.28.67 1 2.37 1.46 3.55 1.42 1.1 3.01 1.99 4.34 3.22.6 2.44.44 4.99.59 7.49.21 1.97-.37 4.7 2.14 5.4-.36-5.92-.01-11.89-.81-17.78 2.05-.63 4.11-1.24 6.19-1.79.8 2.3 1.49 4.71.96 7.15-.7 3.67.07 7.34.7 10.95l2-.78c-1.68-3.74-.61-2.9.59-1.02 1.8.88 3.65 1.66 5.51 2.41 2.1-1.23 4.71-2.55 4.91-5.32.73-5.63-.03-11.38-1.65-16.78 2.46-.59 4.96-.98 7.37-1.75 2.54-1.19 3.6-4.05 4.29-6.58.74-3.27-1.63-5.91-3.61-8.16.85-4.54 1.61-9.37.06-13.85-.75-2.03-.9-4.19-.97-6.34-2.68-2.54-3.25-6.35-3.51-9.85-.31-3.76 1.77-7.21 1.66-10.96-.02-2.58-.05-5.16.04-7.74 3.65-4.35 4.6-9.91 4.6-15.42-1.78-2.57-2.42-5.65-3.48-8.53-.35.4-1.05 1.21-1.4 1.61.97 4.35 2.61 8.56 3.16 13.02-1.16 2.4-2.29 4.82-3.38 7.25.4 3.24.25 6.54-.44 9.73-.71 3.29-.83 6.82-2.67 9.75.38 1.68.7 3.38.98 5.08-3.17 2-6.79 3.33-10.58 3.19-.56-7.02-1.33-14.31 1.24-21.04-4.23 3.92-2.99 10.41-2.4 15.53-.36.33-1.08 1-1.45 1.34.57 1.89 1.21 3.77 1.82 5.66-6.26.51-12.72-.14-18.66-2.22-1.33-1.58-2.53-3.26-3.91-4.8.71.43 1.42.87 2.12 1.33-.38-5.45-.89-10.99-3.35-15.96 5.07 4.03 3.84 11.45 8.09 16.02-.29-3.36-.98-6.69-1.8-9.96-1.44-6.18-7.51-9.44-11.08-14.21-1.53-4.27-1.15-8.99-1.94-13.42 2.2 2.41 3.9 6.38 7.85 5.77-4.35-5-10.07-9.92-10.72-16.95 1.53-2.9 3.75-7.73.79-10.28-.47 1.91-.87 3.84-1.3 5.78-1.19-2.13-2.55-4.2-3.37-6.51-.88-4.41.35-8.87.35-13.3-.92-4.76-3.6-8.95-5.19-13.5-1.19-8.71-1.07-17.53-.34-26.28.68-.18 2.05-.55 2.73-.73-.29 3.01-.67 6.16.32 9.09.21-3.47-.05-6.94-.07-10.4-.33-.05-1-.14-1.33-.18-.64.78-1.32 1.53-2.04 2.24-1.83-.86-3.55-1.93-5.37-2.82m-2.12.71c-.31 9.4-.23 18.8-.24 28.2.09 24.38-.2 48.75.14 73.12 2.77-.52 1.92-3.27 2.14-5.14-.25-26.67.53-53.35-.73-80 .04-5.32 2.54-11.72-1.31-16.18m49.58 28.67c.54-.04 1.64-.12 2.19-.17-.19-2.44.84-5.39-1.29-7.25-.46 2.45-.7 4.94-.9 7.42M43.3 83.33c1.49 4.04 3.83 7.74 4.82 11.97 1-3.89-1.06-7.41-2.67-10.79-.72-.4-1.43-.79-2.15-1.18m31.14 26.47c1.68 4.99.43 10.33 1.75 15.37.61 2.73.45 5.54.59 8.31 2.25-6.04.64-12.36.4-18.58.11-2.13-1.41-3.65-2.74-5.1m-22.77 8.83c2.31 1.97 3.35 5.4 6.41 6.39-.99-2.15-2.27-4.16-3.75-6.01 1.05-2.8 2.84-5.3 3.39-8.28-2.74 2.04-3.8 5.43-6.05 7.9m12.52 4.44c.92.82 1.14 1.74.65 2.76-3.34.83-5.98 2.99-8.78 4.87-1.1-.96-2.2-1.91-3.34-2.82.34 2.26 1.76 4.68 4.42 4.32 2.57-.7 4.53-2.71 6.43-4.47 1.52 1.49 3.09 2.93 4.77 4.24-1.24-2.24-4.12-5.19-.82-7.15-.6-.77-1.2-1.55-1.8-2.32-.38.14-1.15.43-1.53.57m19.02 8.39l.44 2.62c1.45-2.68 3.01-5.41 3.3-8.51-2.13 1.29-2.67 3.82-3.74 5.89m-35.06-1.96c-1.41 1.64 2.66 3.53 3.27 1.6-.05-1.48-2.07-2.34-3.27-1.6m36.27 5.62c-.82 1.7 3.04 2.92 3.38 1.13-.43-1.24-2.3-1.99-3.38-1.13m1.13 2.99c-.87 1.22 1.11 3.1 2.15 1.84.84-1.22-1.11-3.08-2.15-1.84M69.1 149.08c2.3-2.07 4.43-4.49 5.21-7.55-2.18 2.17-3.73 4.87-5.21 7.55m-8.08-4.02c-.24 2.93.45 5.81 1.73 8.44.04-2.91-.31-5.85-1.73-8.44m-23.76 73.17c-.39.52-1.16 1.57-1.55 2.09-1.02.08-2.04.17-3.05.26-.08.57-.23 1.71-.3 2.29 2.61.68 4.4-1.28 6.16-2.85-.32-.45-.95-1.34-1.26-1.79z"/><path d="M80.16 27.25c1.79-.18 3.57-.38 5.35-.61.13.63.38 1.9.5 2.54-2.26.39-5.94 1.86-5.85-1.93zM54.89 31.91c3.6-.09 6.99-2.35 10.6-1.14-1.28 2.45-4.18 2.65-6.57 3.24-4.24.76-8.45 1.63-12.69 2.33l-.15-2.81c2.95-.47 5.91-.9 8.81-1.62zM46.67 37.85c4.16-.74 8.35-1.37 12.5-2.18.52-.41 1.54-1.22 2.05-1.63.08 2.72 1.72 4.84 2.9 7.13 1.18 4.81 1.4 9.82 1.14 14.76-.7 6.02 3.72 11.08 3.71 17.04C60.6 76.51 54.98 85.87 56.39 95c-1.31-3.23-2.02-6.65-2.62-10.07-.4-3.06-2.58-5.38-4.11-7.93 2.58-4.42-1.67-8.52-1.41-13.02-.28-4.76-5.07-8.06-4.84-12.96.14-1.92-.54-4.12.71-5.8 1.49-2.21 2.77-4.6 2.55-7.37zM20.61 36.48c2.66.28 5.35.53 7.92 1.28-1.89 2.2-4.73 3.08-7.56 2.84l-.36-4.12zM55.74 98.01c2.09 3.05 5.02 5.35 7.42 8.12-.3.53-.92 1.59-1.22 2.11-1.9-2.77-3.86-5.62-6.9-7.26.24-.99.47-1.98.7-2.97zM36.74 162c5.17-1.34 10.33-2.72 15.49-4.08-1.31 1.43-2.84 2.66-3.99 4.23-.32 1.95-.28 3.93-.35 5.9.48 0 1.42 0 1.89.01.1-1.95.13-3.91.45-5.84 1.11-.47 2.29-.71 3.45-1 1.78 1.74 3.88 3.08 6.21 3.99 5.31.92 10.78 1.81 16.14.75 3.6-1.09 7.13-2.39 10.83-3.12.8 1.47 1.65 2.92 2.57 4.33.36 3.96 2.28 7.69 1.97 11.72-.23 3.32-.44 6.77-2.26 9.67-3.27.96-6.18 2.78-9.27 4.15-2.33 1.07-5.05.62-7.35 1.79-5 2.97-11.12 1.35-16.29-.31-4.09-2.54-7.58-5.99-10.78-9.57-.37.08-1.11.23-1.47.31-2.27-2.64-5.68-4.17-7.39-7.31-1.84-5.06-1.64-10.59.15-15.62m17.03 4.34c.66 1.17.91 3.02 2.64 2.96 4.6.32 8.81 2.98 13.48 2.08 3.91-.09 7.22-2.76 11.14-2.63 1.9-.07 3.77-.44 5.62-.9l-.52-2.17c-4.43 2.19-9.48 2.05-14.18 3.28-4.21 1.2-8.59.35-12.88.22a22.372 22.372 0 00-5.3-2.84m23.44 23.92c2.77-.86 5.36-2.35 7.27-4.57-2.91.59-6.23 1.4-7.27 4.57z"/><path d="M43.57 194.15c-3.2-1.4-2.84-6.42.04-8.03 2.79 1.96 4.49 5.09 7.49 6.79 3.86 3.33 8.88 4.97 13.92 5.26 5.64-.02 10.93-2.37 16.53-2.79 3.14-.17 5.48-2.41 7.98-4.02.68-1.11 1.38-2.2 2.1-3.29 3.65 3.14 2.58 10.34-2.58 10.95-9.12 1.46-17.67 5.12-26.67 7.05-5.81-4.63-12.12-8.69-18.81-11.92zM73.98 205.93c2.78-1.61 5.86-2.68 9.03-3.2.32 5.72 4.46 12.16.43 17.34-.76 1.87-2.79 2.04-4.48 1.47-2.76-1.73-4.36-4.78-5.03-7.89 3.27.51 6.68-1.44 6.51-5-.45-.1-1.36-.29-1.82-.38-.63 2.36-1.64 4.63-4.3 5.22-.18-2.52-.44-5.04-.34-7.56zM61.06 207.92c1.01-1.04 3.34.31 2.5 1.68-.97.98-3.3-.38-2.5-1.68z"/></g><g fill="#333"><path d="M16.34 0h.41c.37 8.35.57 16.72 1.29 25.05.91 6.29-.33 12.64.38 18.96.13 30.68.27 61.36-.55 92.03-.21 5.8.06 11.63-.83 17.38-1.03-3.39-.83-6.97-.83-10.47.11-47.65-.11-95.3.13-142.95zM26.17 0h1.32c-.02 9 .05 17.99 0 26.99.08 2.07-.76 3.99-1.72 5.77-.58-10.9.3-21.84.4-32.76z"/><path d="M48.28 0h2.11c-.09 10.24 1.53 20.41 1.98 30.64 3.57-.47 7.12-1.15 10.6-2.09-.1-.77-.32-2.32-.43-3.1 3.75-1.84 8.06-2.73 12.2-1.94 2.71.61 5.27 2.33 8.14 1.73 1.49 0 3.13-.56 4.51.25.24 1.56.24 3.15.31 4.73-1.85.56-3.74 1.01-5.5 1.79-2.01 2.61-3.76 5.4-5.71 8.05.53 3.32.86 6.67 1.5 9.97.61 3.58 3.03 6.51 3.79 10.05 1.11 3.18-.01 6.74 1.56 9.79 2.83 6.24 5.69 12.75 5.57 19.75 1.82 1.26 3.99 2.4 4.85 4.58 2.16 5.32.5 11.22 1.92 16.69.99 3.22.53 6.58-.71 9.68-.27-3.34-.79-6.64-1.71-9.86-.58-3.55.4-7.14.04-10.7-.98-3.61-4.07-6.11-5.56-9.46-.96-3.34-1.18-6.85-2.15-10.2-1.46-4.52-3.68-8.73-5.71-13.01.66-3.37.37-6.85-.99-10.01-2.3-5.5-3.67-11.4-3.7-17.38-.94.1-1.87.58-2.81.41-.5-.87-.92-1.77-1.25-2.72 1.64.57 3.29 1.01 4.99.34 1.3-3.12 4.53-5.64 4.27-9.24-2.32-.43-4.67-.55-7.01-.84 1.78-.57 3.56-1.15 5.32-1.75-3.2-1.01-6.58-1.04-9.91-1.16-1.79 1.08-3.57 2.17-5.35 3.29.84.74 1.68 1.48 2.53 2.21-.3 1.9-.63 3.89-2.63 4.77.88 1.58 1.79 3.15 2.7 4.71 1.23-1.08 2.45-2.15 3.7-3.2-1.19 1.76-4.08 3.08-3.28 5.56 1.47 5.44.63 11.05.84 16.59.95 4.61 2.64 9.07 3.13 13.79.75 0 2.27-.02 3.02-.02 2.58 1.97 5.38 3.74 7.41 6.31 3.85 4.59 4.77 11.28 2.93 16.89-2.02 2.62-4.73 4.85-4.67 8.51 2.15-1.77 4.76-2.14 7.4-1.45l-.04 1.57c1.31-.46 2.61-.94 3.9-1.45-1.32 3.78-.66 8.08-2.78 11.57-1.88 3.18-3.02 6.8-5.46 9.64.35-4.82 2.93-8.96 5.27-13.03-.12-1.72-.18-3.45-.18-5.17-1.74-.42-3.46-1.19-5.28-1.01-2.63.08-2.28 3.42-3.2 5.17-.56-3.55-1.34-7.14-.92-10.74 1.32-2.13 3.54-3.66 4.32-6.11 1.24-3.92-.2-8.03-1.89-11.57-1.74-3.54-5.13-6.75-9.32-6.58-3.2-.36-5.56 2.07-7.55 4.19-4.54 4.5-6.97 11.4-5.54 17.71 2.52 3.96 6.26 7.03 9.97 9.85-2.26.62-4.5 1.32-6.72 2.06 2.93.39 7.24-.69 8.67 2.87-2.92-.31-5.84-.7-8.78-.87-1.54-2.15-2.88-4.46-4.65-6.44-3.44-2.41-7.73-3.48-10.73-6.56 3.04.83 5.97 2.01 8.94 3.07.81-5.6-1.77-10.79-2.86-16.15-.9-3.95-3.66-7.24-7.25-9.06-1.13 2.55-2.38 5.06-4.01 7.33 1.04-4 2.59-7.84 3.8-11.78.05 1.03.11 2.06.16 3.1l4.64 1.08c-.54-3.92-1.69-7.71-2.55-11.57-.86-3.8-3.6-6.84-4.61-10.59-.58-2.96-.26-6.01.38-8.93-.22-.41-.67-1.22-.9-1.62 1.09-.35 2.18-.69 3.27-1.03-.07-4.01.86-10.29-4.19-11.59-4.42-.47-8.9 1.29-12.25 4.15 3.49-1.99 7.13-.56 10.41.86-2.62.05-5.23-.09-7.84-.3-1.22 2.05-1.49 4.4-1.61 6.74-3.34-.13-6.59.72-9.84 1.36-.16-2.15-.31-4.31-.46-6.46 2.59-.85 5.27-1.38 7.99-1.55 1.06-2.69 3.41-4.42 5.83-5.81 2.84.16 5.55-.73 8.32-1.14 1.97.57 3.37 2.2 4.88 3.5 1.53-.22 3.07-.44 4.6-.65-.72-10.34-1.52-20.67-2.18-31.01m31.88 27.25c-.09 3.79 3.59 2.32 5.85 1.93-.12-.64-.37-1.91-.5-2.54-1.78.23-3.56.43-5.35.61m-25.27 4.66c-2.9.72-5.86 1.15-8.81 1.62l.15 2.81c4.24-.7 8.45-1.57 12.69-2.33 2.39-.59 5.29-.79 6.57-3.24-3.61-1.21-7 1.05-10.6 1.14m-8.22 5.94c.22 2.77-1.06 5.16-2.55 7.37-1.25 1.68-.57 3.88-.71 5.8-.23 4.9 4.56 8.2 4.84 12.96-.26 4.5 3.99 8.6 1.41 13.02 1.53 2.55 3.71 4.87 4.11 7.93.6 3.42 1.31 6.84 2.62 10.07-1.41-9.13 4.21-18.49 12.58-22.03.01-5.96-4.41-11.02-3.71-17.04.26-4.94.04-9.95-1.14-14.76-1.18-2.29-2.82-4.41-2.9-7.13-.51.41-1.53 1.22-2.05 1.63-4.15.81-8.34 1.44-12.5 2.18m-26.06-1.37l.36 4.12c2.83.24 5.67-.64 7.56-2.84-2.57-.75-5.26-1-7.92-1.28m35.13 61.53c-.23.99-.46 1.98-.7 2.97 3.04 1.64 5 4.49 6.9 7.26.3-.52.92-1.58 1.22-2.11-2.4-2.77-5.33-5.07-7.42-8.12z"/><path d="M70.89 27.84c.49.03 1.47.08 1.96.11l-.12 3.38c.68.43 2.06 1.28 2.74 1.71-1.48.54-3.05.39-4.58.2v-5.4zM27.6 43.07c1.82.89 3.54 1.96 5.37 2.82.72-.71 1.4-1.46 2.04-2.24.33.04 1 .13 1.33.18.02 3.46.28 6.93.07 10.4-.99-2.93-.61-6.08-.32-9.09-.68.18-2.05.55-2.73.73-.73 8.75-.85 17.57.34 26.28 1.59 4.55 4.27 8.74 5.19 13.5 0 4.43-1.23 8.89-.35 13.3.82 2.31 2.18 4.38 3.37 6.51.43-1.94.83-3.87 1.3-5.78 2.96 2.55.74 7.38-.79 10.28.65 7.03 6.37 11.95 10.72 16.95-3.95.61-5.65-3.36-7.85-5.77.79 4.43.41 9.15 1.94 13.42 3.57 4.77 9.64 8.03 11.08 14.21.82 3.27 1.51 6.6 1.8 9.96-4.25-4.57-3.02-11.99-8.09-16.02 2.46 4.97 2.97 10.51 3.35 15.96-.7-.46-1.41-.9-2.12-1.33 1.38 1.54 2.58 3.22 3.91 4.8 5.94 2.08 12.4 2.73 18.66 2.22-.61-1.89-1.25-3.77-1.82-5.66.37-.34 1.09-1.01 1.45-1.34-.59-5.12-1.83-11.61 2.4-15.53-2.57 6.73-1.8 14.02-1.24 21.04 3.79.14 7.41-1.19 10.58-3.19-.28-1.7-.6-3.4-.98-5.08 1.84-2.93 1.96-6.46 2.67-9.75.69-3.19.84-6.49.44-9.73 1.09-2.43 2.22-4.85 3.38-7.25-.55-4.46-2.19-8.67-3.16-13.02.35-.4 1.05-1.21 1.4-1.61 1.06 2.88 1.7 5.96 3.48 8.53 0 5.51-.95 11.07-4.6 15.42-.09 2.58-.06 5.16-.04 7.74.11 3.75-1.97 7.2-1.66 10.96.26 3.5.83 7.31 3.51 9.85.07 2.15.22 4.31.97 6.34 1.55 4.48.79 9.31-.06 13.85 1.98 2.25 4.35 4.89 3.61 8.16-.69 2.53-1.75 5.39-4.29 6.58-2.41.77-4.91 1.16-7.37 1.75 1.62 5.4 2.38 11.15 1.65 16.78-.2 2.77-2.81 4.09-4.91 5.32-1.86-.75-3.71-1.53-5.51-2.41-1.2-1.88-2.27-2.72-.59 1.02l-2 .78c-.63-3.61-1.4-7.28-.7-10.95.53-2.44-.16-4.85-.96-7.15-2.08.55-4.14 1.16-6.19 1.79.8 5.89.45 11.86.81 17.78-2.51-.7-1.93-3.43-2.14-5.4-.15-2.5.01-5.05-.59-7.49-1.33-1.23-2.92-2.12-4.34-3.22-.46-1.18-.18-2.88-1.46-3.55-5.08-3.45-9.97-7.32-15.67-9.72-.25 1.99-.05 3.99-.01 5.99.02 9.11 5.15 17.84 2.96 27.01-.14 3.32-4.29 3.71-6.8 4.23-4.59-.13-8.66-2.69-12.55-4.9-3.57-2.3-8.24-1.7-11.73-4.25-1.74-1.32-4.74-2.4-4.38-5.08-.36-2.41 1.56-4.16 3.42-5.28 2.32-1.47 5.21-.93 7.78-1.52 2.57-1.66 5.17-3.27 7.99-4.48.9-.94 1.82-1.86 2.76-2.75.2.81.58 2.43.78 3.24-3.26 2.19-7.3 2.98-10.28 5.64-1.8 1.97-4.51 1.06-6.79.76-1.97 1.31-3.43 3.17-4.57 5.21 2.11 1.36 4.2 2.88 6.63 3.64 3.51.94 7.43.8 10.48 3.03 4.26 2.76 9.53 6.02 14.68 3.49 1.32-5.63.62-11.84-.91-17.44-1.7-5.52-.53-11.33-.76-16.99-3.12-3.19-1.58-7.86-.71-11.64-1.91-1.59-4.52-2.73-5.49-5.18-.09-3.69-.08-7.38-.07-11.07 1.36-1.93 1.31-4.55-.28-6.32-2.03-1.81-4.51-3.04-6.41-5-.96-3.2-.26-6.78 2.86-8.46-2.03.64-4.68.56-5.99 2.54-1.95 2.75-3 6.27-2.45 9.65 2.02 11.34 2.97 22.96 7.1 33.81 1.32 3.12 1.34 6.58 2.27 9.82-.53.31-1.58.93-2.11 1.24-1.79-8.65-3.95-17.26-6.57-25.69-.39-3.78-.65-7.58-.53-11.37-1.71-5.43-2.33-11.3-.82-16.83 3.31-5.44 10.95-6.5 16.52-4.37 3.94-.3 8.09-2.35 11.86-1.46-.12.24-.36.73-.48.98-6.07 2.22-12.64 2.47-18.9 3.96l-1.19 1.91c.07 1.11.15 2.22.23 3.33 1.74 1.31 3.15 2.98 4.46 4.7 6.57-.64 12.79-3.07 19.19-4.54.18-4.45-1.3-8.68-3.07-12.69-.03-.71-.09-2.11-.13-2.81-2.15-3.15-5.56-5.84-5.65-9.95-.91-4.35-.67-8.9-2.29-13.09a68.521 68.521 0 01-3.06-10.8c-.88-4.09-3.06-8.03-2.5-12.33.2-2.29.81-4.52 1-6.8-.39-2.98-1.57-5.79-2.67-8.57-2.32-3.86-2.22-8.48-2.28-12.82-2.23-5.35-1.71-11.21-1.26-16.82-1.15-1.97-2.82-3.61-3.57-5.81M36.74 162c-1.79 5.03-1.99 10.56-.15 15.62 1.71 3.14 5.12 4.67 7.39 7.31.36-.08 1.1-.23 1.47-.31 3.2 3.58 6.69 7.03 10.78 9.57 5.17 1.66 11.29 3.28 16.29.31 2.3-1.17 5.02-.72 7.35-1.79 3.09-1.37 6-3.19 9.27-4.15 1.82-2.9 2.03-6.35 2.26-9.67.31-4.03-1.61-7.76-1.97-11.72a63.18 63.18 0 01-2.57-4.33c-3.7.73-7.23 2.03-10.83 3.12-5.36 1.06-10.83.17-16.14-.75-2.33-.91-4.43-2.25-6.21-3.99-1.16.29-2.34.53-3.45 1-.32 1.93-.35 3.89-.45 5.84-.47-.01-1.41-.01-1.89-.01.07-1.97.03-3.95.35-5.9 1.15-1.57 2.68-2.8 3.99-4.23-5.16 1.36-10.32 2.74-15.49 4.08m6.83 32.15c6.69 3.23 13 7.29 18.81 11.92 9-1.93 17.55-5.59 26.67-7.05 5.16-.61 6.23-7.81 2.58-10.95-.72 1.09-1.42 2.18-2.1 3.29-2.5 1.61-4.84 3.85-7.98 4.02-5.6.42-10.89 2.77-16.53 2.79-5.04-.29-10.06-1.93-13.92-5.26-3-1.7-4.7-4.83-7.49-6.79-2.88 1.61-3.24 6.63-.04 8.03m30.41 11.78c-.1 2.52.16 5.04.34 7.56 2.66-.59 3.67-2.86 4.3-5.22.46.09 1.37.28 1.82.38.17 3.56-3.24 5.51-6.51 5 .67 3.11 2.27 6.16 5.03 7.89 1.69.57 3.72.4 4.48-1.47 4.03-5.18-.11-11.62-.43-17.34-3.17.52-6.25 1.59-9.03 3.2m-12.92 1.99c-.8 1.3 1.53 2.66 2.5 1.68.84-1.37-1.49-2.72-2.5-1.68z"/><path d="M25.48 43.78c3.85 4.46 1.35 10.86 1.31 16.18 1.26 26.65.48 53.33.73 80-.22 1.87.63 4.62-2.14 5.14-.34-24.37-.05-48.74-.14-73.12.01-9.4-.07-18.8.24-28.2zM75.06 72.45c.2-2.48.44-4.97.9-7.42 2.13 1.86 1.1 4.81 1.29 7.25-.55.05-1.65.13-2.19.17zM43.3 83.33c.72.39 1.43.78 2.15 1.18 1.61 3.38 3.67 6.9 2.67 10.79-.99-4.23-3.33-7.93-4.82-11.97zM74.44 109.8c1.33 1.45 2.85 2.97 2.74 5.1.24 6.22 1.85 12.54-.4 18.58-.14-2.77.02-5.58-.59-8.31-1.32-5.04-.07-10.38-1.75-15.37zM51.67 118.63c2.25-2.47 3.31-5.86 6.05-7.9-.55 2.98-2.34 5.48-3.39 8.28 1.48 1.85 2.76 3.86 3.75 6.01-3.06-.99-4.1-4.42-6.41-6.39zM64.19 123.07c.38-.14 1.15-.43 1.53-.57.6.77 1.2 1.55 1.8 2.32-3.3 1.96-.42 4.91.82 7.15-1.68-1.31-3.25-2.75-4.77-4.24-1.9 1.76-3.86 3.77-6.43 4.47-2.66.36-4.08-2.06-4.42-4.32 1.14.91 2.24 1.86 3.34 2.82 2.8-1.88 5.44-4.04 8.78-4.87.49-1.02.27-1.94-.65-2.76zM83.21 131.46c1.07-2.07 1.61-4.6 3.74-5.89-.29 3.1-1.85 5.83-3.3 8.51l-.44-2.62zM48.15 129.5c1.2-.74 3.22.12 3.27 1.6-.61 1.93-4.68.04-3.27-1.6zM84.42 135.12c1.08-.86 2.95-.11 3.38 1.13-.34 1.79-4.2.57-3.38-1.13zM85.55 138.11c1.04-1.24 2.99.62 2.15 1.84-1.04 1.26-3.02-.62-2.15-1.84zM69.1 149.08c1.48-2.68 3.03-5.38 5.21-7.55-.78 3.06-2.91 5.48-5.21 7.55zM61.02 145.06c1.42 2.59 1.77 5.53 1.73 8.44-1.28-2.63-1.97-5.51-1.73-8.44zM53.77 166.34c1.88.71 3.67 1.65 5.3 2.84 4.29.13 8.67.98 12.88-.22 4.7-1.23 9.75-1.09 14.18-3.28l.52 2.17c-1.85.46-3.72.83-5.62.9-3.92-.13-7.23 2.54-11.14 2.63-4.67.9-8.88-1.76-13.48-2.08-1.73.06-1.98-1.79-2.64-2.96zM77.21 190.26c1.04-3.17 4.36-3.98 7.27-4.57-1.91 2.22-4.5 3.71-7.27 4.57zM37.26 218.23c.31.45.94 1.34 1.26 1.79-1.76 1.57-3.55 3.53-6.16 2.85.07-.58.22-1.72.3-2.29 1.01-.09 2.03-.18 3.05-.26.39-.52 1.16-1.57 1.55-2.09z"/></g></svg>