<svg width="215pt" height="275pt" viewBox="0 0 215 275" xmlns="http://www.w3.org/2000/svg"><g fill="#FFF"><path d="M0 0h215v275H0v-19.28c0-.03.01-.11.01-.14l-.01.08V60.58c1.87.28 3.75.47 5.64.66.32 7.96 1.45 16.33 5.9 23.14 2.6 4.24 8 4.5 12.44 4.67 7.73-1.23 11.31-9 14.13-15.38.19 4.11.82 8.19.88 12.31.08 56-.13 112.01.21 168.01-.17 2.08.44 4.08 1.61 5.81.57-4.25.42-8.55.39-12.83-.1-32.32-.2-64.64-.14-96.96-.48-21.99-.24-44-.33-66-.42-2.19 1.04-3.43 2.89-4.23.53 18.71-.46 37.46.61 56.15-1.12 13.34-.17 26.73-.74 40.09.52 27.69.26 55.4.11 83.09l1.59-.05c.26-22.02.11-44.04.11-66.06-.7-12.63-.51-25.31-.51-37.96.65-7.66.51-15.35-.16-23 1.26-17.52.02-35.11.76-52.65.67.86 1.94 1.5 1.88 2.76.41 16.6-.28 33.23.36 49.83.26 42.56-.28 85.14.28 127.69 1.89-.92 1.53-2.98 1.65-4.63-.1-56.37 0-112.74-.06-169.1.38-5.74 1.07-11.46.9-17.23 2.26 1.02 5.11 2.34 5.09 5.27 1.97 9.11-3.04 18.12-.82 27.21 1.43 2.99 3.66 5.72 6.46 7.53 6.03-1.24 10.37-5.92 15.37-9.14.84 2.39 2.43 4.73 2.01 7.36-.53 6.33-1.08 12.67-2.41 18.9-2.13 1.57-4.53 3.32-5.11 6.08-.93 3.88-1.77 7.79-3.37 11.48-1.95 3.76.81 7.7.61 11.61.11 5.24-1.48 11.46 2.31 15.81 1.31 4.97 2.85 9.98 2.28 15.19.34 6.18-2.67 11.87-2.79 17.99-.53 7.96 4.66 14.97 4.24 22.94-.35 4.95-2.62 9.46-3.87 14.21-.91 2.57 1.17 4.95 3.03 6.47 3.31 2.18 7.17 3.33 10.67 5.17 3.24 1.46 6.12 4.11 9.87 4.05 4.28.17 9.25-.33 12.23-3.78-.91-2.67-2.22-5.16-3.58-7.61-4.81-1.51-7.01-6.36-10.33-9.72-3.06-3.12-5.33-7.23-5.22-11.69.09-5.06.77-10.12.31-15.18-.66-6.39.96-12.73 2.54-18.87.73-3.35-.22-6.86.88-10.14.91-3.22 1.89-6.47 1.74-9.85 3.2 2.4 6.96 1.69 10.57.91-.48 3.62-1.45 7.15-2.59 10.61-.82 2.41.51 4.92.09 7.39-.82 4.39-2.8 8.58-2.7 13.12.12 6.69-.06 13.38.05 20.07-.06 2.4 1.91 4.09 3.46 5.64 3.7 3.31 6.55 7.41 10.09 10.87 1.4 1.43 2.95 2.79 3.86 4.61 1.68 1.71-1.07 2.76-2.34 3.11-2.04.44-3.82-.77-5.55-1.63-3.05-1.68-6.26-3.02-9.5-4.28 1.83 4.35 6.77 5.2 10.16 7.92 1.57.06 3.15.21 4.72.08 1.49-.97 2.78-2.19 4.12-3.36.18-.92.36-1.83.55-2.74-2.56-3.02-5.9-5.24-8.35-8.34-2.71-3.38-5.51-6.69-8.26-10.03-1.79-1.9-.81-4.64-.86-6.94.73-8.14-1.48-16.59 1.53-24.43 1.27-3.35.55-6.93.78-10.39 1.63-7.69 5.87-15.22 4.37-23.26-1.38-5.3 1.79-10.38 1.41-15.71-1.15-6.99.46-14.01.65-21.03 1.54-5.88 4.28-11.38 6.09-17.17.96-3.01-1.04-6.95 1.9-9.15 4.28-3.26 5-8.74 6.5-13.54 3.95.69 7.95 1.08 11.96 1.19-.18 6.16-.1 12.33.48 18.47.25 41.01-.04 82.03.24 123.04.58 5.04-1.03 10.56 1.61 15.18.8-4.7.54-9.48.51-14.22.03-32.32-.41-64.65-.23-96.98-.13-9.86-.48-19.74-.01-29.6-1.31-11.88-.26-23.9-.54-35.83l3.41-1.04c-.6 11.04-.23 22.07-.24 33.12-.85.95-1.68 1.91-2.5 2.89l2.72-.23c0 16.87-.14 33.75-.17 50.62-.55 10.71.4 21.41.1 32.13.14 19.45-.01 38.91-.18 58.36l1.63.01c.23-21.48.09-42.97.1-64.46-.59-14.64-.67-29.32-.29-43.97.89-7.35-.95-14.67-.24-22.03.27-3.9.36-7.81.75-11.7.98 1.05 2.05 2.16 1.8 3.74.54 14.67.27 29.34.39 44.01-.07 27.99-.05 55.98-.02 83.97-.02 3.81-.07 7.63.29 11.43 1.62-1.42 1.61-3.51 1.6-5.45-.12-42.88.05-85.77-.09-128.66 3.64.81 7.72 2.24 11.21.18 6.13-3.34 8.25-10.53 10.37-16.68 5.01 1.15 10.13 3.42 15.31 1.85l.03-3.26c-4.26-3.05-9.59-3.45-14.61-4.15.62-7.36.35-15.48-4.24-21.65-2.21-2.88-6.17-2.88-9.46-2.88-3.22-.14-5.58 2.39-8.02 4.08-1.23-12.15-.21-24.42-.54-36.62l-1.84.04c-.41 11.16-.41 22.34-.28 33.51-.53.07-1.58.19-2.11.25-.68-11.01-.09-22.07-1.09-33.07-.91 10.98-.08 22.03-.62 33.04l-2.92.72c-.08-9.9-.05-19.81-.06-29.72.14-1.6-.6-3.04-1.3-4.42-1.11 11.41.12 22.93-.64 34.36-.75 5.13-.47 10.31-.23 15.46-4.32-1.29-9.32-.79-13-3.72-3.39-2.33-7.79-1.27-11.65-1.58 2.67-4.18 7.76-5.62 11-9.04.46-7.83-.84-16.44-5.55-22.96-2.9-1.21-5.91-2.82-9.16-2.06-4.76.39-8.63 3.33-12.06 6.4-.31 2.52-.75 5.07-.47 7.61.47 2.99 2.19 5.57 3.2 8.38-.1 1.24-1.2 2.17-1.76 3.25-3.26.62-6.37 2-9.69 2.25-6.15-.67-12.37-1.26-18.27-3.22-2.59-3.31-7.21-2.93-10.97-3.06-2.37-.26-4.22 2.28-6.56 1.48-.31-4.03.05-8.07-.11-12.11-1.47-13.59-.5-27.3-.76-40.95a211.2 211.2 0 01-1.79 3.31c-.54 10.83-.06 21.67-.55 32.49-1.31-.92-2.18-2.22-2.06-3.86-.71-9.11-.14-18.27-.57-27.39-.46 10.09-.88 20.19-.87 30.3l-2.99.88c-.08-9.26-.03-18.53-.03-27.8.09-1.63-.41-3.18-1.16-4.6-1.17 10.28-.08 20.69-.67 31.02-1.35-4.3-3.54-9.08-7.94-10.95-4.28-.57-9.2-1.47-12.94 1.34-6.68 4.64-8.84 12.99-10.99 20.37C5.4 55.37 2.14 53 0 52.99V0m92.81 184.04c3.45 2.22 7.25-1.55 6.41-5.18-1.85 2.06-3.78 4.11-6.41 5.18m.98 1.39c.48 2.52 1.03 5.04 1.38 7.59.5.03 1.51.08 2.01.11.14-2.94-.34-6.38-3.39-7.7z"/><path d="M17.7 35.53c2.78-2.62 6.77-2.03 10.25-1.98 3.04-.28 5.34 2.15 6.92 4.43 2.16 3.58 3.56 7.76 3.36 11.98-.1 7.19 1.14 14.66-1.53 21.55-1.82 6.78-6.21 12.89-12.63 15.96-3.48-.85-7.83 0-10.35-3.11-3.3-4.03-5.17-9.19-5.48-14.37-.31-2.92-.14-6.09-2.11-8.51 4.47.78 8.89 1.86 13.43 2.21 1.01-2.21 1.52-4.58 1.65-6.99-3.98-1.24-8.15-1.68-12.28-2.08.67-7.02 3.44-14.28 8.77-19.09m8.56-.37c3.18 4.7 4.96 10.21 5.62 15.82.32 10.11-.56 20.95-6.63 29.43-1.14 1.76-3.36 3.11-3.05 5.48 3.74-1.65 5.55-5.51 7.33-8.92 4.83-11.23 5.84-24.22 2.13-35.92-.97-2.47-2.07-6.08-5.4-5.89zM95.39 47.82c3.32-4.59 8.27-9.59 14.5-8.37 3.43-.16 6.26 2.23 7.42 5.32 2.51 4.08 2.67 8.93 3.89 13.43-.87 1.99-.76 4.89-3.26 5.58-4.07 1.75-7.11 5.17-9.72 8.63.4.36 1.22 1.08 1.63 1.44-1.6-.33-4.11.88-4.96-1.01-.61-2.48-.86-5.18-2.68-7.13-.33 2.18.03 4.36.75 6.43-3.8-1.45-8.39-.38-11.55-3.35-1.11-.52-2.2-1.07-3.28-1.66 3.24-.92 6.55-1.56 9.91-1.85 1.74-3.31 1.51-6.9-.21-10.16-.51-.34-1.52-1.02-2.02-1.36-.16-1.98-.29-3.96-.42-5.94m6.87 10.3c.65 1.16 1.02 2.55 2.04 3.46 3.26 1.19 6.65 2.02 10.07 2.6-1.87-2.59-5.32-2.57-8.09-3.49-.85-1.19-1.71-2.36-2.57-3.55-.36.25-1.09.74-1.45.98zM40.42 47.06c-.42-2.03 2.16-1.72 3.38-2.37-.52 11.28-.14 22.56-.19 33.84-1.09.16-2.18.31-3.28.46.12-10.65-.01-21.29.09-31.93zM45.63 44.42c.63.4 1.9 1.2 2.53 1.6.32 10.86.08 21.73.23 32.6-1.02-.02-2.03-.03-3.05-.04-.79-4.16-.51-8.39-.29-12.58.19-7.19-.3-14.42.58-21.58z"/><path d="M0 55.22c6.51 1.03 13.05 1.94 19.54 3.09l-.36 2.81C12.75 60.45 6.37 59.33 0 58.2v-2.98zM55.65 64.36c-.84-1.37-.03-2.68.53-3.95 2.81 1.16 5.85 1.4 8.84 1.75.55.99 1.1 1.99 1.67 2.98 4.66-.67 8.88 1.74 13.41 2.24-2.06 1.28-3.96 3.14-6.55 3.09.71-1.56.38-2.77-.99-3.61-1.85 2.3-3.88 4.49-6.76 5.47-.06 4.62-.46 9.45 1.41 13.8 1.06 2.73.67 5.7.79 8.55.39-.07 1.16-.22 1.55-.3.24-4.04-3.3-8.82.16-12.22 2.42-.41 4.79-1.37 7.28-1.12 1.63-.4 3.21-1 4.61-1.96-2.08.08-4.14.45-6.07 1.22l-2.74-.85c2.12-4.16 4.12-9.49 9.18-10.68 3.79-.08 8.4.2 10.66 3.71-.17 1.01-.53 3.01-.7 4.02 1.27-1 1.99-2.44 2.57-3.9 4.13.03 7.87 1.74 11.42 3.68-.55 2.35.83 4 2.96 4.75-.75-1.85-1.66-3.62-2.62-5.37 1.89.14 3.78.29 5.67.41 3.37 4.59 5.63 11.11 2.55 16.43.32.05.95.14 1.27.18.54-.84 1.1-1.67 1.67-2.48.11-5.93-1.23-11.84-5.24-16.39 3.62.78 8.58.03 11.08 3.25-1.27 5.8-3.19 11.64-6.78 16.49-1.17.15-2.34.29-3.52.41-.29 3.04-.61 6.2.59 9.11-1.13 3.85-3.05 7.41-3.95 11.33-.52 2.2-1.35 4.3-2.65 6.15-.25 1.82-.45 3.73-2.08 4.89-.07.58-.22 1.72-.29 2.29.29-.08.88-.25 1.18-.33.06 4.53-.83 9.14.37 13.59 1.04 2.95-.28 5.93-.59 8.88-1.23 5.85 1.4 12.19-.9 17.8-2.81 2.13-6.7 2.13-10.07 2.52.25-3.4.4-6.84-.27-10.21.3-1.18.61-2.36.91-3.54 2.76-1.03 4.56-3.49 6.42-5.63.28-1.21-.23-1.76-1.51-1.64-2.12 1.65-3.85 3.73-5.69 5.68-.12-1.92-1.11-3.04-2.97-3.37 1.03 5.15 1.26 10.4 1.51 15.64-.3.49-.92 1.45-1.23 1.93-7.06 1.07-14.09-.59-21.06-1.62-.98-3.05-1.45-6.26-.79-9.43.8-4.03-.76-7.95-.85-11.94.62-4.55 3.96-8.34 3.77-13.07-.52-4.95 7.05-5.04 6.42-10.03 1.56 1.64 3.24 3.39 5.55 3.88 6.24 1.47 12.95 3.54 19.23 1.09-1.2-.65-2.36-1.8-3.87-1.36-5.25.32-10.79.3-15.58-2.19-1.6-1.06-3.54-2.09-4.05-4.1-1.75-7.16 1.84-14.98-1.94-21.73 2.9-4.53 5.49-9.27 6.19-14.71 1.9 2.29 3.89 4.65 6.7 5.84 2.97 1.21 4.92 3.85 7.6 5.51-1.66-3.19-3.78-6.42-7.15-7.96-2.03-.96-3.61-2.54-5.09-4.18-1.07.17-2.15.34-3.22.5-.6 2.01-1.28 3.99-1.97 5.96-1.63 2.67-3.3 5.36-5.75 7.38-4.6 3.56-9.12 7.41-14.61 9.54-2.48-1.97-4.73-4.43-5.59-7.54-.48-3.63-.4-7.4.82-10.88 1.66-4.87 1.7-10.05 1.56-15.13-1.09-.97-2.18-1.94-3.26-2.92.52-1.82 1.87-3.7.85-5.6m28.07 16.05c1.94-.25 3.87-.56 5.8-.9-1.51-3.01-4.24-.75-5.8.9M70.97 93.73c1.06.15 2.13.29 3.19.44.19-.49.56-1.46.74-1.95 2.16-2.05 3.43-4.8 4.24-7.62-3.06 2.74-4.69 6.75-8.17 9.13m30.4-1.95c-.06.29-.2.88-.26 1.17 2.39-.12 6 1.42 7.24-1.42-2.32.24-4.65.34-6.98.25M86.2 96.69c-.9 1.99-1.85 3.96-2.89 5.89.24.01.72.02.96.03.04-.43.11-1.29.14-1.72 1.96.44 3.97.52 5.98.42 1.17 1.83 2.74 4.67 5.36 3.18-1.85-1.62-4.14-2.88-5.24-5.2-1.44.43-2.91.78-4.38 1.12.5-1.09 1-2.18 1.51-3.26 1.54-.1 3.08-.24 4.61-.44-1.89-1.25-4.05-.64-6.05-.02m18.28 1.65c-2.16 3.13-7.65 3.47-7.5 8.13-1.65 1.95-2.91 4.37-2.33 7.01.71 3.44-.89 7.95 2.34 10.4-.01-2.99-.22-5.99-.08-8.98-.2-.42-.58-1.24-.78-1.66 1.28-2.6 2.23-5.36 2.98-8.15 1.13-.9 2.25-1.79 3.37-2.7 1.76-.84 3.19-2.1 3.86-3.99.87-.58 2.19-.82 2.41-2.04-1.61-1.08-3.15 1.02-4.27 1.98m-12.35-.3c1.79 1.14 3.55 3.56 5.89 2.3-1.83-1.04-3.59-3.12-5.89-2.3m15.55 8.03c-1.71 2.84-3.56 5.68-4.67 8.82.11 2.47.23 4.93.14 7.4l.73-.01c.44-2.5 1.25-4.99.96-7.55 1.32-2.41 1.69-5.51 3.97-7.26.89-2.47 1.05-5.1.73-7.7-1.09 1.94-1.65 4.1-1.86 6.3m-27.74 21.85c2.77 2.94 7.1 3.22 10.62 4.85.64-.35 1.93-1.05 2.58-1.4-4.51-.71-8.9-1.93-13.2-3.45m-3.12 10c1.26.45 2.48 1.39 3.86.67 2.53-1.55 4.65-3.69 6.77-5.75-4.13.34-6.6 4.31-10.63 5.08m11.9.74c4.48.32 9.12.14 13.29-1.69.12-.59.37-1.77.49-2.36-4.35 2.29-9.49 1.81-13.78 4.05m-2.29 3.15c1.09 3.1 4.87 2.49 7.45 3.04 2.35.69 5-.55 5.55-3.04-1.28.11-2.49.46-3.63 1.05-3.16.19-6.4.21-9.37-1.05zM148.37 65.73c1.5-2.38 4.53-4.41 7.43-3.56 5.01 5.16 6.32 12.85 5.66 19.79-.5 7.83-3.01 16.12-9.16 21.37 0 .65-.02 1.94-.03 2.59-1.8-.8-4.75-.18-5.74-2.31-.57-2.9.74-5.72.73-8.61.06-2.96-.01-5.92.1-8.88.87.14 2.62.42 3.49.55 1.33-2.05 2.26-4.35.57-6.51-.74.63-1.49 1.26-2.22 1.9l2.41.66c-1.17 2.58-4.42 2.28-4.71-.62l2.94-2.04-2.37-.67c-.25-4.52-.86-9.36.9-13.66z"/><path d="M157.46 63.39c.18-.46.55-1.37.73-1.82 2.61.83 5.36 2.08 6.4 4.84 4.83 10.4 3.25 23.05-2.32 32.86-2.07 3.75-5.9 6.07-9.93 7.21 9.64-9.26 12.92-23.8 9.89-36.6-.95-2.5-1.62-5.99-4.77-6.49zM142.5 62.23c3.75.99 2.5 4.95 2.71 7.81-.16 9.01.28 18.02-.12 27.02-1.47-.45-3.83-.86-3.3-3.04.27-10.59-.47-21.23.71-31.79zM51.24 67.97c-1.21-1.31-.87-3.12-.95-4.73 1.6.88 3.18 1.82 4.73 2.79-1.07 1.01-2.1 2.39-3.78 1.94zM68.09 74.06c.93-2.85 4.3-1.68 6.52-2.08-1.54 2.57-3.1 5.16-4.33 7.9-.55.46-1.65 1.36-2.2 1.81-.05-2.53-.47-5.11.01-7.63zM124.23 80.93c.52-1.17 1.03-2.33 1.54-3.5 3.07.58 6.21.89 9.2 1.85.14.6.43 1.8.58 2.4-3.76-.4-7.52-1.01-11.32-.75zM167.74 88.37c-.46-3.04 2.57-1.98 4.16-1.9 3.1.79 7.46.25 8.83 3.9-4.41-.08-8.65-1.39-12.99-2zM72.41 170.3c6.2.67 12.43 3.29 18.62.86.22 5.89-3.85 10.94-3.12 16.9-1.68 8.15-3.12 16.47-2.64 24.85.27 5.75-1.44 11.81.89 17.3 1.57 5.11 5.92 8.65 8.35 13.33 1.05 2.44 3.82 2.81 5.9 4 1.74 1.35 2.79 3.46 4.86 4.42-5.77 3.69-13.49 3.67-19.22-.09-4.01-2.98-9.6-3.16-12.96-7.09-1.57-2.36-.43-5.32.07-7.83.03-1.49 1.4-2 2.6-2.35-.11 2.72 1.11 5.1 4.03 5.29-2.36-3.49-2.07-7.92-3.61-11.77-2.02-11.48-6.37-23.8-1.65-35.14.63.53 1.9 1.6 2.54 2.13-1.48-3.88-3.61-7.9-2.56-12.17 1.28-4.41-2.39-8.19-2.1-12.64m10.52 11.14c-.7-.11-2.1-.33-2.81-.44-.83 5.09 1.08 9.89 2.04 14.8.45.2 1.36.59 1.81.79.73-3.04-.36-5.77-2.3-8.07.16-1.74.04-3.47-.36-5.18 1.27-.05 2.55-.12 3.82-.2.18-1.09.35-2.18.53-3.27-.92.52-1.82 1.04-2.73 1.57m-6.56 19.51c-.03 3.76-.92 7.84 1.03 11.29-.17-.55-.52-1.66-.7-2.21-.3-4.19.95-8.24 1.1-12.39-.62 1.02-1.54 2.02-1.43 3.31m4.94 16.1c.3 4.08.73 8.21 2.32 12.02.96-5.54-.94-11.08-.83-16.65-1.18 1.24-1.7 2.93-1.49 4.63z"/></g><g fill="#333"><path d="M47.73 11.34c.61-1.1 1.2-2.2 1.79-3.31.26 13.65-.71 27.36.76 40.95.16 4.04-.2 8.08.11 12.11 2.34.8 4.19-1.74 6.56-1.48 3.76.13 8.38-.25 10.97 3.06 5.9 1.96 12.12 2.55 18.27 3.22 3.32-.25 6.43-1.63 9.69-2.25.56-1.08 1.66-2.01 1.76-3.25-1.01-2.81-2.73-5.39-3.2-8.38-.28-2.54.16-5.09.47-7.61 3.43-3.07 7.3-6.01 12.06-6.4 3.25-.76 6.26.85 9.16 2.06 4.71 6.52 6.01 15.13 5.55 22.96-3.24 3.42-8.33 4.86-11 9.04 3.86.31 8.26-.75 11.65 1.58 3.68 2.93 8.68 2.43 13 3.72-.24-5.15-.52-10.33.23-15.46.76-11.43-.47-22.95.64-34.36.7 1.38 1.44 2.82 1.3 4.42.01 9.91-.02 19.82.06 29.72l2.92-.72c.54-11.01-.29-22.06.62-33.04 1 11 .41 22.06 1.09 33.07.53-.06 1.58-.18 2.11-.25-.13-11.17-.13-22.35.28-33.51l1.84-.04c.33 12.2-.69 24.47.54 36.62 2.44-1.69 4.8-4.22 8.02-4.08 3.29 0 7.25 0 9.46 2.88 4.59 6.17 4.86 14.29 4.24 21.65 5.02.7 10.35 1.1 14.61 4.15l-.03 3.26c-5.18 1.57-10.3-.7-15.31-1.85-2.12 6.15-4.24 13.34-10.37 16.68-3.49 2.06-7.57.63-11.21-.18.14 42.89-.03 85.78.09 128.66.01 1.94.02 4.03-1.6 5.45-.36-3.8-.31-7.62-.29-11.43-.03-27.99-.05-55.98.02-83.97-.12-14.67.15-29.34-.39-44.01.25-1.58-.82-2.69-1.8-3.74-.39 3.89-.48 7.8-.75 11.7-.71 7.36 1.13 14.68.24 22.03-.38 14.65-.3 29.33.29 43.97-.01 21.49.13 42.98-.1 64.46l-1.63-.01c.17-19.45.32-38.91.18-58.36.3-10.72-.65-21.42-.1-32.13.03-16.87.17-33.75.17-50.62l-2.72.23c.82-.98 1.65-1.94 2.5-2.89.01-11.05-.36-22.08.24-33.12l-3.41 1.04c.28 11.93-.77 23.95.54 35.83-.47 9.86-.12 19.74.01 29.6-.18 32.33.26 64.66.23 96.98.03 4.74.29 9.52-.51 14.22-2.64-4.62-1.03-10.14-1.61-15.18-.28-41.01.01-82.03-.24-123.04-.58-6.14-.66-12.31-.48-18.47-4.01-.11-8.01-.5-11.96-1.19-1.5 4.8-2.22 10.28-6.5 13.54-2.94 2.2-.94 6.14-1.9 9.15-1.81 5.79-4.55 11.29-6.09 17.17-.19 7.02-1.8 14.04-.65 21.03.38 5.33-2.79 10.41-1.41 15.71 1.5 8.04-2.74 15.57-4.37 23.26-.23 3.46.49 7.04-.78 10.39-3.01 7.84-.8 16.29-1.53 24.43.05 2.3-.93 5.04.86 6.94 2.75 3.34 5.55 6.65 8.26 10.03 2.45 3.1 5.79 5.32 8.35 8.34-.19.91-.37 1.82-.55 2.74-1.34 1.17-2.63 2.39-4.12 3.36-1.57.13-3.15-.02-4.72-.08-3.39-2.72-8.33-3.57-10.16-7.92 3.24 1.26 6.45 2.6 9.5 4.28 1.73.86 3.51 2.07 5.55 1.63 1.27-.35 4.02-1.4 2.34-3.11-.91-1.82-2.46-3.18-3.86-4.61-3.54-3.46-6.39-7.56-10.09-10.87-1.55-1.55-3.52-3.24-3.46-5.64-.11-6.69.07-13.38-.05-20.07-.1-4.54 1.88-8.73 2.7-13.12.42-2.47-.91-4.98-.09-7.39 1.14-3.46 2.11-6.99 2.59-10.61-3.61.78-7.37 1.49-10.57-.91.15 3.38-.83 6.63-1.74 9.85-1.1 3.28-.15 6.79-.88 10.14-1.58 6.14-3.2 12.48-2.54 18.87.46 5.06-.22 10.12-.31 15.18-.11 4.46 2.16 8.57 5.22 11.69 3.32 3.36 5.52 8.21 10.33 9.72 1.36 2.45 2.67 4.94 3.58 7.61-2.98 3.45-7.95 3.95-12.23 3.78-3.75.06-6.63-2.59-9.87-4.05-3.5-1.84-7.36-2.99-10.67-5.17-1.86-1.52-3.94-3.9-3.03-6.47 1.25-4.75 3.52-9.26 3.87-14.21.42-7.97-4.77-14.98-4.24-22.94.12-6.12 3.13-11.81 2.79-17.99.57-5.21-.97-10.22-2.28-15.19-3.79-4.35-2.2-10.57-2.31-15.81.2-3.91-2.56-7.85-.61-11.61 1.6-3.69 2.44-7.6 3.37-11.48.58-2.76 2.98-4.51 5.11-6.08 1.33-6.23 1.88-12.57 2.41-18.9.42-2.63-1.17-4.97-2.01-7.36-5 3.22-9.34 7.9-15.37 9.14-2.8-1.81-5.03-4.54-6.46-7.53-2.22-9.09 2.79-18.1.82-27.21.02-2.93-2.83-4.25-5.09-5.27.17 5.77-.52 11.49-.9 17.23.06 56.36-.04 112.73.06 169.1-.12 1.65.24 3.71-1.65 4.63-.56-42.55-.02-85.13-.28-127.69-.64-16.6.05-33.23-.36-49.83.06-1.26-1.21-1.9-1.88-2.76-.74 17.54.5 35.13-.76 52.65.67 7.65.81 15.34.16 23 0 12.65-.19 25.33.51 37.96 0 22.02.15 44.04-.11 66.06l-1.59.05c.15-27.69.41-55.4-.11-83.09.57-13.36-.38-26.75.74-40.09-1.07-18.69-.08-37.44-.61-56.15-1.85.8-3.31 2.04-2.89 4.23.09 22-.15 44.01.33 66-.06 32.32.04 64.64.14 96.96.03 4.28.18 8.58-.39 12.83-1.17-1.73-1.78-3.73-1.61-5.81-.34-56-.13-112.01-.21-168.01-.06-4.12-.69-8.2-.88-12.31-2.82 6.38-6.4 14.15-14.13 15.38-4.44-.17-9.84-.43-12.44-4.67-4.45-6.81-5.58-15.18-5.9-23.14-1.89-.19-3.77-.38-5.64-.66V58.2c6.37 1.13 12.75 2.25 19.18 2.92l.36-2.81C13.05 57.16 6.51 56.25 0 55.22v-2.23c2.14.01 5.4 2.38 6.96.15 2.15-7.38 4.31-15.73 10.99-20.37 3.74-2.81 8.66-1.91 12.94-1.34 4.4 1.87 6.59 6.65 7.94 10.95.59-10.33-.5-20.74.67-31.02.75 1.42 1.25 2.97 1.16 4.6 0 9.27-.05 18.54.03 27.8l2.99-.88c-.01-10.11.41-20.21.87-30.3.43 9.12-.14 18.28.57 27.39-.12 1.64.75 2.94 2.06 3.86.49-10.82.01-21.66.55-32.49M17.7 35.53c-5.33 4.81-8.1 12.07-8.77 19.09 4.13.4 8.3.84 12.28 2.08-.13 2.41-.64 4.78-1.65 6.99-4.54-.35-8.96-1.43-13.43-2.21 1.97 2.42 1.8 5.59 2.11 8.51.31 5.18 2.18 10.34 5.48 14.37 2.52 3.11 6.87 2.26 10.35 3.11 6.42-3.07 10.81-9.18 12.63-15.96 2.67-6.89 1.43-14.36 1.53-21.55.2-4.22-1.2-8.4-3.36-11.98-1.58-2.28-3.88-4.71-6.92-4.43-3.48-.05-7.47-.64-10.25 1.98m77.69 12.29c.13 1.98.26 3.96.42 5.94.5.34 1.51 1.02 2.02 1.36 1.72 3.26 1.95 6.85.21 10.16-3.36.29-6.67.93-9.91 1.85 1.08.59 2.17 1.14 3.28 1.66 3.16 2.97 7.75 1.9 11.55 3.35-.72-2.07-1.08-4.25-.75-6.43 1.82 1.95 2.07 4.65 2.68 7.13.85 1.89 3.36.68 4.96 1.01-.41-.36-1.23-1.08-1.63-1.44 2.61-3.46 5.65-6.88 9.72-8.63 2.5-.69 2.39-3.59 3.26-5.58-1.22-4.5-1.38-9.35-3.89-13.43-1.16-3.09-3.99-5.48-7.42-5.32-6.23-1.22-11.18 3.78-14.5 8.37m-54.97-.76c-.1 10.64.03 21.28-.09 31.93 1.1-.15 2.19-.3 3.28-.46.05-11.28-.33-22.56.19-33.84-1.22.65-3.8.34-3.38 2.37m5.21-2.64c-.88 7.16-.39 14.39-.58 21.58-.22 4.19-.5 8.42.29 12.58 1.02.01 2.03.02 3.05.04-.15-10.87.09-21.74-.23-32.6-.63-.4-1.9-1.2-2.53-1.6m10.02 19.94c1.02 1.9-.33 3.78-.85 5.6 1.08.98 2.17 1.95 3.26 2.92.14 5.08.1 10.26-1.56 15.13-1.22 3.48-1.3 7.25-.82 10.88.86 3.11 3.11 5.57 5.59 7.54 5.49-2.13 10.01-5.98 14.61-9.54 2.45-2.02 4.12-4.71 5.75-7.38.69-1.97 1.37-3.95 1.97-5.96 1.07-.16 2.15-.33 3.22-.5 1.48 1.64 3.06 3.22 5.09 4.18 3.37 1.54 5.49 4.77 7.15 7.96-2.68-1.66-4.63-4.3-7.6-5.51-2.81-1.19-4.8-3.55-6.7-5.84-.7 5.44-3.29 10.18-6.19 14.71 3.78 6.75.19 14.57 1.94 21.73.51 2.01 2.45 3.04 4.05 4.1 4.79 2.49 10.33 2.51 15.58 2.19 1.51-.44 2.67.71 3.87 1.36-6.28 2.45-12.99.38-19.23-1.09-2.31-.49-3.99-2.24-5.55-3.88.63 4.99-6.94 5.08-6.42 10.03.19 4.73-3.15 8.52-3.77 13.07.09 3.99 1.65 7.91.85 11.94-.66 3.17-.19 6.38.79 9.43 6.97 1.03 14 2.69 21.06 1.62.31-.48.93-1.44 1.23-1.93-.25-5.24-.48-10.49-1.51-15.64 1.86.33 2.85 1.45 2.97 3.37 1.84-1.95 3.57-4.03 5.69-5.68 1.28-.12 1.79.43 1.51 1.64-1.86 2.14-3.66 4.6-6.42 5.63-.3 1.18-.61 2.36-.91 3.54.67 3.37.52 6.81.27 10.21 3.37-.39 7.26-.39 10.07-2.52 2.3-5.61-.33-11.95.9-17.8.31-2.95 1.63-5.93.59-8.88-1.2-4.45-.31-9.06-.37-13.59-.3.08-.89.25-1.18.33.07-.57.22-1.71.29-2.29 1.63-1.16 1.83-3.07 2.08-4.89 1.3-1.85 2.13-3.95 2.65-6.15.9-3.92 2.82-7.48 3.95-11.33-1.2-2.91-.88-6.07-.59-9.11 1.18-.12 2.35-.26 3.52-.41 3.59-4.85 5.51-10.69 6.78-16.49-2.5-3.22-7.46-2.47-11.08-3.25 4.01 4.55 5.35 10.46 5.24 16.39-.57.81-1.13 1.64-1.67 2.48-.32-.04-.95-.13-1.27-.18 3.08-5.32.82-11.84-2.55-16.43-1.89-.12-3.78-.27-5.67-.41.96 1.75 1.87 3.52 2.62 5.37-2.13-.75-3.51-2.4-2.96-4.75-3.55-1.94-7.29-3.65-11.42-3.68-.58 1.46-1.3 2.9-2.57 3.9.17-1.01.53-3.01.7-4.02-2.26-3.51-6.87-3.79-10.66-3.71-5.06 1.19-7.06 6.52-9.18 10.68l2.74.85c1.93-.77 3.99-1.14 6.07-1.22-1.4.96-2.98 1.56-4.61 1.96-2.49-.25-4.86.71-7.28 1.12-3.46 3.4.08 8.18-.16 12.22-.39.08-1.16.23-1.55.3-.12-2.85.27-5.82-.79-8.55-1.87-4.35-1.47-9.18-1.41-13.8 2.88-.98 4.91-3.17 6.76-5.47 1.37.84 1.7 2.05.99 3.61 2.59.05 4.49-1.81 6.55-3.09-4.53-.5-8.75-2.91-13.41-2.24-.57-.99-1.12-1.99-1.67-2.98-2.99-.35-6.03-.59-8.84-1.75-.56 1.27-1.37 2.58-.53 3.95m92.72 1.37c-1.76 4.3-1.15 9.14-.9 13.66l2.37.67-2.94 2.04c.29 2.9 3.54 3.2 4.71.62l-2.41-.66c.73-.64 1.48-1.27 2.22-1.9 1.69 2.16.76 4.46-.57 6.51-.87-.13-2.62-.41-3.49-.55-.11 2.96-.04 5.92-.1 8.88.01 2.89-1.3 5.71-.73 8.61.99 2.13 3.94 1.51 5.74 2.31.01-.65.03-1.94.03-2.59 6.15-5.25 8.66-13.54 9.16-21.37.66-6.94-.65-14.63-5.66-19.79-2.9-.85-5.93 1.18-7.43 3.56m9.09-2.34c3.15.5 3.82 3.99 4.77 6.49 3.03 12.8-.25 27.34-9.89 36.6 4.03-1.14 7.86-3.46 9.93-7.21 5.57-9.81 7.15-22.46 2.32-32.86-1.04-2.76-3.79-4.01-6.4-4.84-.18.45-.55 1.36-.73 1.82m-14.96-1.16c-1.18 10.56-.44 21.2-.71 31.79-.53 2.18 1.83 2.59 3.3 3.04.4-9-.04-18.01.12-27.02-.21-2.86 1.04-6.82-2.71-7.81m-91.26 5.74c1.68.45 2.71-.93 3.78-1.94-1.55-.97-3.13-1.91-4.73-2.79.08 1.61-.26 3.42.95 4.73m16.85 6.09c-.48 2.52-.06 5.1-.01 7.63.55-.45 1.65-1.35 2.2-1.81 1.23-2.74 2.79-5.33 4.33-7.9-2.22.4-5.59-.77-6.52 2.08m56.14 6.87c3.8-.26 7.56.35 11.32.75-.15-.6-.44-1.8-.58-2.4-2.99-.96-6.13-1.27-9.2-1.85-.51 1.17-1.02 2.33-1.54 3.5m43.51 7.44c4.34.61 8.58 1.92 12.99 2-1.37-3.65-5.73-3.11-8.83-3.9-1.59-.08-4.62-1.14-4.16 1.9M72.41 170.3c-.29 4.45 3.38 8.23 2.1 12.64-1.05 4.27 1.08 8.29 2.56 12.17-.64-.53-1.91-1.6-2.54-2.13-4.72 11.34-.37 23.66 1.65 35.14 1.54 3.85 1.25 8.28 3.61 11.77-2.92-.19-4.14-2.57-4.03-5.29-1.2.35-2.57.86-2.6 2.35-.5 2.51-1.64 5.47-.07 7.83 3.36 3.93 8.95 4.11 12.96 7.09 5.73 3.76 13.45 3.78 19.22.09-2.07-.96-3.12-3.07-4.86-4.42-2.08-1.19-4.85-1.56-5.9-4-2.43-4.68-6.78-8.22-8.35-13.33-2.33-5.49-.62-11.55-.89-17.3-.48-8.38.96-16.7 2.64-24.85-.73-5.96 3.34-11.01 3.12-16.9-6.19 2.43-12.42-.19-18.62-.86z"/><path d="M26.26 35.16c3.33-.19 4.43 3.42 5.4 5.89 3.71 11.7 2.7 24.69-2.13 35.92-1.78 3.41-3.59 7.27-7.33 8.92-.31-2.37 1.91-3.72 3.05-5.48 6.07-8.48 6.95-19.32 6.63-29.43-.66-5.61-2.44-11.12-5.62-15.82zM102.26 58.12c.36-.24 1.09-.73 1.45-.98.86 1.19 1.72 2.36 2.57 3.55 2.77.92 6.22.9 8.09 3.49-3.42-.58-6.81-1.41-10.07-2.6-1.02-.91-1.39-2.3-2.04-3.46zM83.72 80.41c1.56-1.65 4.29-3.91 5.8-.9-1.93.34-3.86.65-5.8.9zM70.97 93.73c3.48-2.38 5.11-6.39 8.17-9.13-.81 2.82-2.08 5.57-4.24 7.62-.18.49-.55 1.46-.74 1.95-1.06-.15-2.13-.29-3.19-.44zM101.37 91.78c2.33.09 4.66-.01 6.98-.25-1.24 2.84-4.85 1.3-7.24 1.42.06-.29.2-.88.26-1.17zM86.2 96.69c2-.62 4.16-1.23 6.05.02-1.53.2-3.07.34-4.61.44-.51 1.08-1.01 2.17-1.51 3.26 1.47-.34 2.94-.69 4.38-1.12 1.1 2.32 3.39 3.58 5.24 5.2-2.62 1.49-4.19-1.35-5.36-3.18-2.01.1-4.02.02-5.98-.42-.03.43-.1 1.29-.14 1.72-.24-.01-.72-.02-.96-.03 1.04-1.93 1.99-3.9 2.89-5.89zM104.48 98.34c1.12-.96 2.66-3.06 4.27-1.98-.22 1.22-1.54 1.46-2.41 2.04-.67 1.89-2.1 3.15-3.86 3.99-1.12.91-2.24 1.8-3.37 2.7-.75 2.79-1.7 5.55-2.98 8.15.2.42.58 1.24.78 1.66-.14 2.99.07 5.99.08 8.98-3.23-2.45-1.63-6.96-2.34-10.4-.58-2.64.68-5.06 2.33-7.01-.15-4.66 5.34-5 7.5-8.13z"/><path d="M92.13 98.04c2.3-.82 4.06 1.26 5.89 2.3-2.34 1.26-4.1-1.16-5.89-2.3zM107.68 106.07c.21-2.2.77-4.36 1.86-6.3.32 2.6.16 5.23-.73 7.7-2.28 1.75-2.65 4.85-3.97 7.26.29 2.56-.52 5.05-.96 7.55l-.73.01c.09-2.47-.03-4.93-.14-7.4 1.11-3.14 2.96-5.98 4.67-8.82zM79.94 127.92c4.3 1.52 8.69 2.74 13.2 3.45-.65.35-1.94 1.05-2.58 1.4-3.52-1.63-7.85-1.91-10.62-4.85zM76.82 137.92c4.03-.77 6.5-4.74 10.63-5.08-2.12 2.06-4.24 4.2-6.77 5.75-1.38.72-2.6-.22-3.86-.67zM88.72 138.66c4.29-2.24 9.43-1.76 13.78-4.05-.12.59-.37 1.77-.49 2.36-4.17 1.83-8.81 2.01-13.29 1.69zM86.43 141.81c2.97 1.26 6.21 1.24 9.37 1.05 1.14-.59 2.35-.94 3.63-1.05-.55 2.49-3.2 3.73-5.55 3.04-2.58-.55-6.36.06-7.45-3.04zM92.81 184.04c2.63-1.07 4.56-3.12 6.41-5.18.84 3.63-2.96 7.4-6.41 5.18zM82.93 181.44c.91-.53 1.81-1.05 2.73-1.57-.18 1.09-.35 2.18-.53 3.27-1.27.08-2.55.15-3.82.2.4 1.71.52 3.44.36 5.18 1.94 2.3 3.03 5.03 2.3 8.07-.45-.2-1.36-.59-1.81-.79-.96-4.91-2.87-9.71-2.04-14.8.71.11 2.11.33 2.81.44zM93.79 185.43c3.05 1.32 3.53 4.76 3.39 7.7-.5-.03-1.51-.08-2.01-.11-.35-2.55-.9-5.07-1.38-7.59zM76.37 200.95c-.11-1.29.81-2.29 1.43-3.31-.15 4.15-1.4 8.2-1.1 12.39.18.55.53 1.66.7 2.21-1.95-3.45-1.06-7.53-1.03-11.29zM81.31 217.05c-.21-1.7.31-3.39 1.49-4.63-.11 5.57 1.79 11.11.83 16.65-1.59-3.81-2.02-7.94-2.32-12.02zM0 255.66l.01-.08c0 .03-.01.11-.01.14v-.06z"/></g></svg>