<svg width="316" height="250pt" viewBox="0 0 237 250" xmlns="http://www.w3.org/2000/svg"><g fill="#FFF"><path d="M0 0h237v250H0V0m154.18 23.35c-5.37 1.91-7.95 8.35-6.13 13.6 1.06 2.65.07 5.3-1.17 7.66-3.94 1.04-7.65 2.74-11.52 3.95-3.41 3.3-6.26 7.54-7 12.33.53 1.68 1.37 3.32 1.47 5.11-.3 3.08-2.07 5.76-2.49 8.82-.43 2.64-1.03 5.25-2.05 7.74-1.4 2.94-3.59 5.41-5.11 8.28 1.44-.95 2.83-1.99 4.17-3.09a53.52 53.52 0 00-1.82 4.01c3.16-2.87 5.57-6.49 7.83-10.08-2.01 1.48-3.78 3.25-5.61 4.95 1.06-2.11 2.46-4.01 4.05-5.76-.85-6.15 3.36-11.7 2.39-17.86-.98-5.58 2.56-10.78 6.88-13.93 1.19 2.17 1.84 4.58 2.62 6.92-.63 2.95-3.98 4.6-3.72 7.8-.72-.89-1.46-1.75-2.09-2.7.27-1.97 1-3.82 1.64-5.69l-1.48-.6c-.66 2.79-2.81 5.78-.95 8.53 1.21.34 2.43.67 3.64 1.04 2.1-3.6 4.32-7.11 5.2-11.27-1.32-.92-2.61-1.87-3.9-2.82 2.06-2.95 5.57-3.58 8.91-3.97.9-2.11 2.23-4.05 2.8-6.28-.24-2.03-1.24-3.85-2.01-5.71.36-3.49 1.5-7.29 4.66-9.22 3.65-2.44 8.99-3.15 12.62-.31 2 1.78 3.64 3.96 5.02 6.26 2.1 4.41.96 9.4.24 14-.94 1.46-1.82 2.96-2.59 4.51-1.14.11-2.28.2-3.41.3-1.77-2.01-4.02-3.45-6.7-3.83 1.62 1.92 3.48 3.62 5.16 5.51 2.21 2.86 6.54 2.19 8.86 4.99 3.29 4.83 3.24 10.91 4.34 16.45 4.94 6.78 6.3 16.28 2.1 23.76-1.77 1.24-4-.27-6.01-.05-3.04-1.02-6.04-2.2-9.23-2.63 1.1-1.77 2.06-3.61 3.01-5.45 2.55 2.11 5.03 4.32 7.82 6.14-.03-.22-.07-.65-.1-.86-.9-.81-1.77-1.64-2.64-2.48-1.84-.96-2.98-2.71-4.2-4.31-.19-6.84-2.64-13.34-3.2-20.14 1.8.59 3.59 1.23 5.37 1.87-1.7-2.35-4.15-4.04-7.18-3.52-.34-.15-1.02-.44-1.36-.59-.4-1.84-.84-3.71-2.38-4.97.05 3.03.72 6.39 3.82 7.71.35 1.36.71 2.71 1.1 4.06-1.41-.5-2.83-.94-4.27-1.35-.78.39-1.56.77-2.34 1.15 2.33.33 4.63.81 6.97 1.09-.5 1.68-.79 3.47-1.68 5.01-2.96 2.15-6.2 3.87-9.39 5.64-1.77 2.99-3.73 5.86-5.26 8.99 2.99-2.43 5.41-5.42 7.9-8.32 3.33-1.9 6.84-3.63 9.15-6.85.7 3.95 2.27 8.9-.84 12.25-1.88 2.99-4.57 5.3-7.41 7.34-2.78.83-5.15 2.41-7.29 4.33-.58 1.56-1.08 3.13-1.6 4.71-2.74-3.86-5.96-7.47-10.28-9.61 1.4-2.99 3.4-5.65 4.67-8.7-.13-3.15-.19-6.32-.76-9.42-1.64 4.45-.42 9.44-2.06 13.98-1.51.84-2.41 2.21-2.31 3.96-1.73-.82-3.46-1.63-5.22-2.4 3.34-5.83 6.44-11.85 8.04-18.42-1.02 1.02-1.63 3.2-3.43 2.69-3.35-.72-5.45 2.7-7.37 4.81 2.03-1.13 3.84-2.58 5.63-4.05.73.52 1.46 1.04 2.2 1.56-2.79 4.37-6.63 7.93-9.36 12.34.99-.31 2.95-.91 3.94-1.22l.19 2.61c-3.32-.83-6.74-1.58-10.18-1.01 7.92 1.35 15.86 4.62 21.13 10.92 2.07 2.38 1.69 6.02 4.12 8.16l-.47-1.9c1.15.02 2.29.05 3.44.1 3.59 2.72 7.69 4.75 10.98 7.86.5 3.14 2.39 5.98 2.16 9.23-.04 3.22.2 6.46-.28 9.65-1.18 1.93-3.83 2.56-5.8 1.53-1.77-.56-3.63-2.57-5.41-.96-3.49 2.57-5.52 6.59-8.52 9.67-4.71 4.99-8.39 10.94-13.87 15.18-3.61-.5-6.97-2.05-10-4.03-3.21-2.39-7.34-2.72-11.13-3.52 5.23-2.15 10.54-4.8 13.47-9.91l1.41-.04c.85-.55 1.67-1.14 2.45-1.78-.48-2.44-1.96-4.53-2.51-6.96-.79-4.14-4.4-6.77-7.61-9.08-3.15-2.66-7.49-2.72-11.34-3.53 2.64-2.31 5.12-4.93 6.67-8.12.8-2.38-.05-4.89-.38-7.26-2.2 2.1-1.54 5.47-3.28 7.82-1.43 2.09-2.92 4.15-4.1 6.4-3.05-.76-6.14-.63-9.08.5 3.13-2.95 5.26-6.7 7.74-10.17.44-.02 1.33-.07 1.78-.1l-1.36-.1c.56-3.72.38-8.18 3.75-10.68 4.25-3.48 8.66-8.23 14.64-7.76.11-.25.33-.74.44-.99-.69-.23-2.08-.68-2.77-.91-3.23 1.35-7.03 1.66-9.63 4.22-2.79 2.51-5.5 5.24-7.2 8.63-1.38 2.97-.7 6.67-2.87 9.31-2.28 2.57-4.56 5.15-6.4 8.06.45.81.91 1.62 1.38 2.43-2.83 2.85-3.69 6.84-5.21 10.41-3.43 3.59-7.4 6.79-11.9 8.97-9.15 4.69-15.66 13.78-17.85 23.76 4.42-2.2 4.6-7.62 6.77-11.51 3.57-6.93 11.09-10.15 17.91-13.02 1.79-2.76 4.93-4.12 7.09-6.52 1.42-4.36 3.02-8.66 5.4-12.61 2.23-.54 4.54-.55 6.8-.15-3.62 3.83-7.22 7.98-8.83 13.09-1.06 3.11-1.71 6.61-4.31 8.88-2.92 2.54-6.44 4.28-9.76 6.23-3.24 2.32-6.32 4.91-8.86 8.01-2.69 3.75-3.82 8.32-5.04 12.71-6.59-2.64-10.29-9.78-17.54-10.97-7.35 1.32-13.4 8.76-12.83 16.23.06 2.45 2.42 3.83 3.84 5.53-1.01.98-2.03 1.94-3.07 2.89-.87 4.46-1.18 9.01-1.08 13.55-.04 2.9-2.84 5.13-2.62 8.03 1.74 2.24 4.26 3.76 5.8 6.18 1.13 1.82 2.87 3.14 5.11 3.16-2.08-3.47-3.97-7.4-8.08-8.84-.54-3.12 2.27-5.48 1.79-8.59-.04-4.09.51-8.14.71-12.22 1.31-.81 2.67-2.16 4.33-1.36 2.19 1.36 3.52 3.68 5.25 5.53-.58.18-1.73.56-2.31.75-1.02 1.67-2.71 3.22-2.57 5.35.52 3.36 2.17 6.52 1.98 9.99.2 3.83-.76 7.86.45 11.55 2.9 3 5.08 7.1 9.48 8.12.84-.27 2.51-.81 3.34-1.08 1.13-3.5 1.37-7.03-.08-10.46 1.78-3.98 3.97-7.8 5.45-11.92 1.17.21 2.35.43 3.52.65 2.55 5.83 5.14 11.83 9.11 16.83 6.01 1.79 12.03-1.54 17.96-2.34 7.06-.6 13.67-3.37 20.67-4.3 7.31-2.24 14.74-4.08 21.98-6.5 3.54-.9 7.27-.96 10.68-2.38.72.22 1.45.45 2.18.68-.39-9.38-3.47-18.45-3.15-27.87.61-9.72-2.04-19.28-1.92-28.99.89-2.54 3.29-4.27 4.47-6.7 1.27-2.01 3.52-5.15 6.23-3.69 3.16 1.82 6.82.88 9.97-.43.3-4.37.37-8.75.56-13.13.17-4.85-2.13-9.96-6.58-12.23-3.65-1.84-6.96-5.19-11.37-4.55 2.53-4.5 5.19-9.76 10.71-11.02 1.56-1.17 3.08-2.39 4.58-3.64 5.34 1.61 10.46 5.38 16.29 3.78 3.84-.79 3.14-5.56 4.86-8.24.94-5.94-1.37-11.52-4.21-16.59-2.21-3.63-1.17-8.04-1.85-12.02-.58-2.13-1.5-4.19-2.82-5.96-1.83-2.73-5.4-2.94-8.18-4.15 2.45-.11 4.36-1.56 5.29-3.78 2-5.45 3.17-11.47 1.58-17.19-2.04-2.51-3.77-5.39-6.55-7.19-3.88-2.06-8.47-1.18-12.43.12m-2.69 15.82c2.12.6 4.27 1.08 6.33 1.85.03 1.4-.49 2.67-1.18 3.86.12.61.26 1.21.39 1.81.61-.61 1.23-1.23 1.85-1.84-.11-.73-.32-2.19-.43-2.93l.61-.16c-.74-1.01-1.41-2.06-2.09-3.1-1.83.18-3.67.23-5.48.51m-10.35 26.01c-.98 2.32-.9 4.86.28 7.09l-.16-3.35c1.84-6.08 3.49-12.32 6.77-17.83 1.58-2.06 3.62-3.74 4.99-5.98-7.84 3.41-9.94 12.6-11.88 20.07m9.66-10.34c-.05 1.33-.09 2.67-.13 4l-1.59-.5c1.01.77 2.02 1.53 3.03 2.31.09-.83.28-2.48.37-3.3 1.02.52 2.03 1.04 3.05 1.56 2.54-1.3 5.23-2.29 7.68-3.76-2.95-.8-5.51.8-8.14 1.83l-2.35-2.71c-.48.14-1.44.43-1.92.57m-1.15 5.93c-.58 3.1-.58 6.77 2.77 8.19l-.1.72c1.44-.04 2.88-.08 4.32-.11l.32-2.08c-1.86.15-3.71.29-5.57.43-.09-2.5 1.23-5.79-1.74-7.15m-7.03 17.95c3.69-1.4 6.59-4.17 8.85-7.34-.39-.61-1.17-1.84-1.56-2.46-.98 4.25-4.69 6.64-7.29 9.8m-7.38 49.62c-3.92 3.73-8.52 7.36-10.12 12.75 6.15-3.89 9.35-10.61 14.14-15.84 2.68-2.83 4.54-6.28 6.42-9.65-4.39 3.36-8.28 7.58-10.44 12.74m15.42-8.68c-5.18 4.2-9.5 9.41-12.72 15.26 5.49-3.9 8.13-10.7 13.98-14.23 2.38-1.82 5.47-1.12 8.23-1.29-2.92-1.89-6.68-1.83-9.49.26m-65.27 27.35c4.5-.83 5.73-6.1 6.43-9.89-2.4 3.11-4.56 6.42-6.43 9.89z"/><path d="M102.48 125c5.78-1.02 9.86 3.51 14.51 5.98 1.47 1.17 2.59 2.7 3.88 4.05.06 2.28.04 4.59.64 6.82-3.16 5.44-9.12 7.73-14.55 10.16-2.77.86-3.59 3.78-5.22 5.83-2.72 3.68-8.22 4.13-10.46 8.25-3.55 6.06-8.86 10.76-13.87 15.57-4.37-1.52-9.05-3.72-11.01-8.21 1.86-1.65 3.31-3.72 3.09-6.33-.27-4.33 3.27-7.06 5.7-10.1 6.28-4.11 13.24-7.44 17.98-13.47 1.64-.82 3.22-1.74 4.8-2.67l-.27-1.39c.67.5 1.33 1.02 2 1.54-3.14 4.87-6.92 9.33-10.64 13.78-.54.01-1.62.04-2.16.06.85.21 1.7.42 2.56.64 3.1-2.4 5.35-5.59 7.53-8.8.19-.39.57-1.17.77-1.55 2-1.77 3.74-3.81 4.96-6.19-1.87.12-3.73.31-5.61.24-.79.48-2.39 1.43-3.19 1.91 1.48-6.03 5.33-10.96 8.56-16.12m-22.94 43.47c-2.17 1.77-4.34 3.61-5.93 5.94 5.94-4.04 12.05-8.31 15.64-14.72-3.94 2.1-6.32 6.02-9.71 8.78zM134.2 161.45c2.65-3.1 4.52-6.77 7.32-9.75.07 8.14 1.46 16.18 1.88 24.29.11 9.5 1.96 18.87 3.75 28.17-5.72 1.25-11.52 2.21-17.05 4.17-8.84 1.85-17.53 4.34-26.31 6.42-8.27 2.94-16.99 4.16-25.3 6.9-1.14-1.47-2.7-2.7-3.34-4.5-1.65-4.33-4-8.36-6.34-12.35 1.74-.99 3.58-1.77 5.39-2.61 3.42 2.84 4.98 7.18 7.53 10.71 3.93-.98 8.06-1.05 11.87-2.49 5.14-1.89 10.57-2.66 15.9-3.79 8.9-2.5 18-4.22 26.73-7.29.2-4.63.26-9.26-.65-13.82.05-3.86.52-7.94-.92-11.61-.33-4.14-.7-8.29-.46-12.45z"/><path d="M106.15 155.77c2.47.49 5.01.78 7.37 1.7 4.39 2.49 8.45 5.88 13.51 6.94 2.31.18 4.52-.7 6.72-1.28-.05 4.47-.11 8.94-.24 13.41.22-.1.66-.3.88-.39-.06 7.05 1.05 14.03 1.22 21.08-5.94 2.03-12.22 2.87-18.11 5.11-12.1 2.37-24.24 4.94-35.82 9.31-.87-4.45-3.62-8.19-6.33-11.7 2.49-3.03 6.96-5.53 6.43-10.04-.39-2.32-1.12-4.57-2.01-6.74 5.49-5.3 9.86-11.6 14.25-17.8 4.74-2.16 10.03-4.42 12.13-9.6z"/><path d="M41.56 167.45c2.48-2.86 6.81-4.3 10.35-2.61 8.91 8.37 18.96 15.43 27.87 23.8.07 3.59-2.56 5.96-4.83 8.32-2.38 2.9-5.86 4.52-9.24 5.94-2.94-1.84-5.51-4.31-8.78-5.59-3.91-4.79-8.97-8.48-13.4-12.78-2.07-2.22-5.36-3.46-6.46-6.46.31-3.87 1.46-7.97 4.49-10.62zM44.11 197.95c-.45-2.7 2.77-4.03 4.92-4.31 4.14 2.56 8.9 4.96 11.05 9.59-.5 3.85-2.36 7.27-3.58 10.88.21 3.22.08 6.47-.95 9.57-.97 1.07-2.73 1.61-3.93.56-2.04-1.87-3.63-4.17-5.55-6.18-.07-3.67.3-7.34.3-11.01-.54-3.09-2.04-5.95-2.26-9.1z"/></g><g fill="#333"><path d="M154.18 23.35c3.96-1.3 8.55-2.18 12.43-.12 2.78 1.8 4.51 4.68 6.55 7.19 1.59 5.72.42 11.74-1.58 17.19-.93 2.22-2.84 3.67-5.29 3.78 2.78 1.21 6.35 1.42 8.18 4.15 1.32 1.77 2.24 3.83 2.82 5.96.68 3.98-.36 8.39 1.85 12.02 2.84 5.07 5.15 10.65 4.21 16.59-1.72 2.68-1.02 7.45-4.86 8.24-5.83 1.6-10.95-2.17-16.29-3.78-1.5 1.25-3.02 2.47-4.58 3.64-5.52 1.26-8.18 6.52-10.71 11.02 4.41-.64 7.72 2.71 11.37 4.55 4.45 2.27 6.75 7.38 6.58 12.23-.19 4.38-.26 8.76-.56 13.13-3.15 1.31-6.81 2.25-9.97.43-2.71-1.46-4.96 1.68-6.23 3.69-1.18 2.43-3.58 4.16-4.47 6.7-.12 9.71 2.53 19.27 1.92 28.99-.32 9.42 2.76 18.49 3.15 27.87-.73-.23-1.46-.46-2.18-.68-3.41 1.42-7.14 1.48-10.68 2.38-7.24 2.42-14.67 4.26-21.98 6.5-7 .93-13.61 3.7-20.67 4.3-5.93.8-11.95 4.13-17.96 2.34-3.97-5-6.56-11-9.11-16.83-1.17-.22-2.35-.44-3.52-.65-1.48 4.12-3.67 7.94-5.45 11.92 1.45 3.43 1.21 6.96.08 10.46-.83.27-2.5.81-3.34 1.08-4.4-1.02-6.58-5.12-9.48-8.12-1.21-3.69-.25-7.72-.45-11.55.19-3.47-1.46-6.63-1.98-9.99-.14-2.13 1.55-3.68 2.57-5.35.58-.19 1.73-.57 2.31-.75-1.73-1.85-3.06-4.17-5.25-5.53-1.66-.8-3.02.55-4.33 1.36-.2 4.08-.75 8.13-.71 12.22.48 3.11-2.33 5.47-1.79 8.59 4.11 1.44 6 5.37 8.08 8.84-2.24-.02-3.98-1.34-5.11-3.16-1.54-2.42-4.06-3.94-5.8-6.18-.22-2.9 2.58-5.13 2.62-8.03-.1-4.54.21-9.09 1.08-13.55 1.04-.95 2.06-1.91 3.07-2.89-1.42-1.7-3.78-3.08-3.84-5.53-.57-7.47 5.48-14.91 12.83-16.23 7.25 1.19 10.95 8.33 17.54 10.97 1.22-4.39 2.35-8.96 5.04-12.71 2.54-3.1 5.62-5.69 8.86-8.01 3.32-1.95 6.84-3.69 9.76-6.23 2.6-2.27 3.25-5.77 4.31-8.88 1.61-5.11 5.21-9.26 8.83-13.09-2.26-.4-4.57-.39-6.8.15-2.38 3.95-3.98 8.25-5.4 12.61-2.16 2.4-5.3 3.76-7.09 6.52-6.82 2.87-14.34 6.09-17.91 13.02-2.17 3.89-2.35 9.31-6.77 11.51 2.19-9.98 8.7-19.07 17.85-23.76 4.5-2.18 8.47-5.38 11.9-8.97 1.52-3.57 2.38-7.56 5.21-10.41-.47-.81-.93-1.62-1.38-2.43 1.84-2.91 4.12-5.49 6.4-8.06 2.17-2.64 1.49-6.34 2.87-9.31 1.7-3.39 4.41-6.12 7.2-8.63 2.6-2.56 6.4-2.87 9.63-4.22.69.23 2.08.68 2.77.91-.11.25-.33.74-.44.99-5.98-.47-10.39 4.28-14.64 7.76-3.37 2.5-3.19 6.96-3.75 10.68l1.36.1c-.45.03-1.34.08-1.78.1-2.48 3.47-4.61 7.22-7.74 10.17 2.94-1.13 6.03-1.26 9.08-.5 1.18-2.25 2.67-4.31 4.1-6.4 1.74-2.35 1.08-5.72 3.28-7.82.33 2.37 1.18 4.88.38 7.26-1.55 3.19-4.03 5.81-6.67 8.12 3.85.81 8.19.87 11.34 3.53 3.21 2.31 6.82 4.94 7.61 9.08.55 2.43 2.03 4.52 2.51 6.96-.78.64-1.6 1.23-2.45 1.78l-1.41.04c-2.93 5.11-8.24 7.76-13.47 9.91 3.79.8 7.92 1.13 11.13 3.52 3.03 1.98 6.39 3.53 10 4.03 5.48-4.24 9.16-10.19 13.87-15.18 3-3.08 5.03-7.1 8.52-9.67 1.78-1.61 3.64.4 5.41.96 1.97 1.03 4.62.4 5.8-1.53.48-3.19.24-6.43.28-9.65.23-3.25-1.66-6.09-2.16-9.23-3.29-3.11-7.39-5.14-10.98-7.86-1.15-.05-2.29-.08-3.44-.1l.47 1.9c-2.43-2.14-2.05-5.78-4.12-8.16-5.27-6.3-13.21-9.57-21.13-10.92 3.44-.57 6.86.18 10.18 1.01l-.19-2.61c-.99.31-2.95.91-3.94 1.22 2.73-4.41 6.57-7.97 9.36-12.34-.74-.52-1.47-1.04-2.2-1.56-1.79 1.47-3.6 2.92-5.63 4.05 1.92-2.11 4.02-5.53 7.37-4.81 1.8.51 2.41-1.67 3.43-2.69-1.6 6.57-4.7 12.59-8.04 18.42 1.76.77 3.49 1.58 5.22 2.4-.1-1.75.8-3.12 2.31-3.96 1.64-4.54.42-9.53 2.06-13.98.57 3.1.63 6.27.76 9.42-1.27 3.05-3.27 5.71-4.67 8.7 4.32 2.14 7.54 5.75 10.28 9.61.52-1.58 1.02-3.15 1.6-4.71 2.14-1.92 4.51-3.5 7.29-4.33 2.84-2.04 5.53-4.35 7.41-7.34 3.11-3.35 1.54-8.3.84-12.25-2.31 3.22-5.82 4.95-9.15 6.85-2.49 2.9-4.91 5.89-7.9 8.32 1.53-3.13 3.49-6 5.26-8.99 3.19-1.77 6.43-3.49 9.39-5.64.89-1.54 1.18-3.33 1.68-5.01-2.34-.28-4.64-.76-6.97-1.09.78-.38 1.56-.76 2.34-1.15 1.44.41 2.86.85 4.27 1.35-.39-1.35-.75-2.7-1.1-4.06-3.1-1.32-3.77-4.68-3.82-7.71 1.54 1.26 1.98 3.13 2.38 4.97.34.15 1.02.44 1.36.59 3.03-.52 5.48 1.17 7.18 3.52-1.78-.64-3.57-1.28-5.37-1.87.56 6.8 3.01 13.3 3.2 20.14 1.22 1.6 2.36 3.35 4.2 4.31.87.84 1.74 1.67 2.64 2.48.03.21.07.64.1.86-2.79-1.82-5.27-4.03-7.82-6.14-.95 1.84-1.91 3.68-3.01 5.45 3.19.43 6.19 1.61 9.23 2.63 2.01-.22 4.24 1.29 6.01.05 4.2-7.48 2.84-16.98-2.1-23.76-1.1-5.54-1.05-11.62-4.34-16.45-2.32-2.8-6.65-2.13-8.86-4.99-1.68-1.89-3.54-3.59-5.16-5.51 2.68.38 4.93 1.82 6.7 3.83 1.13-.1 2.27-.19 3.41-.3.77-1.55 1.65-3.05 2.59-4.51.72-4.6 1.86-9.59-.24-14-1.38-2.3-3.02-4.48-5.02-6.26-3.63-2.84-8.97-2.13-12.62.31-3.16 1.93-4.3 5.73-4.66 9.22.77 1.86 1.77 3.68 2.01 5.71-.57 2.23-1.9 4.17-2.8 6.28-3.34.39-6.85 1.02-8.91 3.97 1.29.95 2.58 1.9 3.9 2.82-.88 4.16-3.1 7.67-5.2 11.27-1.21-.37-2.43-.7-3.64-1.04-1.86-2.75.29-5.74.95-8.53l1.48.6c-.64 1.87-1.37 3.72-1.64 5.69.63.95 1.37 1.81 2.09 2.7-.26-3.2 3.09-4.85 3.72-7.8-.78-2.34-1.43-4.75-2.62-6.92-4.32 3.15-7.86 8.35-6.88 13.93.97 6.16-3.24 11.71-2.39 17.86-1.59 1.75-2.99 3.65-4.05 5.76 1.83-1.7 3.6-3.47 5.61-4.95-2.26 3.59-4.67 7.21-7.83 10.08.55-1.36 1.16-2.7 1.82-4.01-1.34 1.1-2.73 2.14-4.17 3.09 1.52-2.87 3.71-5.34 5.11-8.28 1.02-2.49 1.62-5.1 2.05-7.74.42-3.06 2.19-5.74 2.49-8.82-.1-1.79-.94-3.43-1.47-5.11.74-4.79 3.59-9.03 7-12.33 3.87-1.21 7.58-2.91 11.52-3.95 1.24-2.36 2.23-5.01 1.17-7.66-1.82-5.25.76-11.69 6.13-13.6M102.48 125c-3.23 5.16-7.08 10.09-8.56 16.12.8-.48 2.4-1.43 3.19-1.91 1.88.07 3.74-.12 5.61-.24-1.22 2.38-2.96 4.42-4.96 6.19-.2.38-.58 1.16-.77 1.55-2.18 3.21-4.43 6.4-7.53 8.8-.86-.22-1.71-.43-2.56-.64.54-.02 1.62-.05 2.16-.06 3.72-4.45 7.5-8.91 10.64-13.78-.67-.52-1.33-1.04-2-1.54l.27 1.39c-1.58.93-3.16 1.85-4.8 2.67-4.74 6.03-11.7 9.36-17.98 13.47-2.43 3.04-5.97 5.77-5.7 10.1.22 2.61-1.23 4.68-3.09 6.33 1.96 4.49 6.64 6.69 11.01 8.21 5.01-4.81 10.32-9.51 13.87-15.57 2.24-4.12 7.74-4.57 10.46-8.25 1.63-2.05 2.45-4.97 5.22-5.83 5.43-2.43 11.39-4.72 14.55-10.16-.6-2.23-.58-4.54-.64-6.82-1.29-1.35-2.41-2.88-3.88-4.05-4.65-2.47-8.73-7-14.51-5.98m31.72 36.45c-.24 4.16.13 8.31.46 12.45 1.44 3.67.97 7.75.92 11.61.91 4.56.85 9.19.65 13.82-8.73 3.07-17.83 4.79-26.73 7.29-5.33 1.13-10.76 1.9-15.9 3.79-3.81 1.44-7.94 1.51-11.87 2.49-2.55-3.53-4.11-7.87-7.53-10.71-1.81.84-3.65 1.62-5.39 2.61 2.34 3.99 4.69 8.02 6.34 12.35.64 1.8 2.2 3.03 3.34 4.5 8.31-2.74 17.03-3.96 25.3-6.9 8.78-2.08 17.47-4.57 26.31-6.42 5.53-1.96 11.33-2.92 17.05-4.17-1.79-9.3-3.64-18.67-3.75-28.17-.42-8.11-1.81-16.15-1.88-24.29-2.8 2.98-4.67 6.65-7.32 9.75m-28.05-5.68c-2.1 5.18-7.39 7.44-12.13 9.6-4.39 6.2-8.76 12.5-14.25 17.8.89 2.17 1.62 4.42 2.01 6.74.53 4.51-3.94 7.01-6.43 10.04 2.71 3.51 5.46 7.25 6.33 11.7 11.58-4.37 23.72-6.94 35.82-9.31 5.89-2.24 12.17-3.08 18.11-5.11-.17-7.05-1.28-14.03-1.22-21.08-.22.09-.66.29-.88.39.13-4.47.19-8.94.24-13.41-2.2.58-4.41 1.46-6.72 1.28-5.06-1.06-9.12-4.45-13.51-6.94-2.36-.92-4.9-1.21-7.37-1.7m-64.59 11.68c-3.03 2.65-4.18 6.75-4.49 10.62 1.1 3 4.39 4.24 6.46 6.46 4.43 4.3 9.49 7.99 13.4 12.78 3.27 1.28 5.84 3.75 8.78 5.59 3.38-1.42 6.86-3.04 9.24-5.94 2.27-2.36 4.9-4.73 4.83-8.32-8.91-8.37-18.96-15.43-27.87-23.8-3.54-1.69-7.87-.25-10.35 2.61m2.55 30.5c.22 3.15 1.72 6.01 2.26 9.1 0 3.67-.37 7.34-.3 11.01 1.92 2.01 3.51 4.31 5.55 6.18 1.2 1.05 2.96.51 3.93-.56 1.03-3.1 1.16-6.35.95-9.57 1.22-3.61 3.08-7.03 3.58-10.88-2.15-4.63-6.91-7.03-11.05-9.59-2.15.28-5.37 1.61-4.92 4.31z"/><path d="M151.49 39.17c1.81-.28 3.65-.33 5.48-.51.68 1.04 1.35 2.09 2.09 3.1l-.61.16c.11.74.32 2.2.43 2.93-.62.61-1.24 1.23-1.85 1.84-.13-.6-.27-1.2-.39-1.81.69-1.19 1.21-2.46 1.18-3.86-2.06-.77-4.21-1.25-6.33-1.85zM141.14 65.18c1.94-7.47 4.04-16.66 11.88-20.07-1.37 2.24-3.41 3.92-4.99 5.98-3.28 5.51-4.93 11.75-6.77 17.83l.16 3.35c-1.18-2.23-1.26-4.77-.28-7.09zM150.8 54.84c.48-.14 1.44-.43 1.92-.57l2.35 2.71c2.63-1.03 5.19-2.63 8.14-1.83-2.45 1.47-5.14 2.46-7.68 3.76-1.02-.52-2.03-1.04-3.05-1.56-.09.82-.28 2.47-.37 3.3-1.01-.78-2.02-1.54-3.03-2.31l1.59.5c.04-1.33.08-2.67.13-4zM149.65 60.77c2.97 1.36 1.65 4.65 1.74 7.15 1.86-.14 3.71-.28 5.57-.43l-.32 2.08c-1.44.03-2.88.07-4.32.11l.1-.72c-3.35-1.42-3.35-5.09-2.77-8.19zM142.62 78.72c2.6-3.16 6.31-5.55 7.29-9.8.39.62 1.17 1.85 1.56 2.46-2.26 3.17-5.16 5.94-8.85 7.34zM135.24 128.34c2.16-5.16 6.05-9.38 10.44-12.74-1.88 3.37-3.74 6.82-6.42 9.65-4.79 5.23-7.99 11.95-14.14 15.84 1.6-5.39 6.2-9.02 10.12-12.75zM150.66 119.66c2.81-2.09 6.57-2.15 9.49-.26-2.76.17-5.85-.53-8.23 1.29-5.85 3.53-8.49 10.33-13.98 14.23 3.22-5.85 7.54-11.06 12.72-15.26zM85.39 147.01c1.87-3.47 4.03-6.78 6.43-9.89-.7 3.79-1.93 9.06-6.43 9.89zM79.54 168.47c3.39-2.76 5.77-6.68 9.71-8.78-3.59 6.41-9.7 10.68-15.64 14.72 1.59-2.33 3.76-4.17 5.93-5.94z"/></g></svg>