<svg width="400" height="100pt" viewBox="0 0 300 100" xmlns="http://www.w3.org/2000/svg"><g fill="#FFF"><path d="M0 0h300v100H0V0m199.09 43.95c-4.15-1.28-8.06-3.33-12.31-4.26-4.36-.1-7.32 3.73-11.22 5.08-4.1 2.36-9.05 1.07-13.4 2.56-3.09.95-6.19 1.89-9.26 2.94.05.62.14 1.85.19 2.47-1.13 2.59-1.6 5.43-1.15 8.24.54 4.34.34 9.43 3.76 12.69-2.4.05-4.77.51-7.12.97.1-.44.31-1.32.41-1.75-2.97.28-5.09-2.14-7.63-3.2 1.34 3.27 4.9 4.33 7.44 6.4-6.88.96-13.9 1.1-20.78.07-3.36-.15-6.67 1.21-10.04.61-1.13-1.69-2.49-3.2-3.81-4.74.04-1.95.02-3.9.05-5.85.84-2.26 1.77-4.62 1.3-7.08 2.79-.31 5.61-.15 8.4-.4 1.84-1.32 3.29-3.11 4.58-4.96-3.23 1.94-6.73 3.27-10.57 2.53.09-1.63.2-3.25.33-4.87 4.01-.55 8.09-.92 11.85-2.52 5.78-2.43 13.42-2.38 17.62 2.9.02 3.04-1.48 7.36 1.78 9.25.16-3.12-.32-6.28.2-9.38l2.28-1.36-.4-1.13c-.85.28-1.71.55-2.56.83-5.99-5.81-15.7-5.51-22.66-1.64-3.93.9-8.03 1.03-11.96 2.03-3.28 1.6-6.77 2.92-10.38 3.56-7.59-.26-14.35-4.98-22.02-4.68-5.7.68-11.28 2.48-17.06 2.3-2.79-1.58-4.47-5.31-8.02-5.24-2.97-.46-6.47.99-6.85 4.27-4.56 4.14-6.39 10.47-11.52 14.04-3.29 2.34-4.45 6.33-6.02 9.84-1.28 2.19 1.47 4.09 3.45 3.84 8.09-.59 13.04-8.64 20.99-9.63 7.92-.21 14.98 4.08 22.7 5.04.03-.74.26-1.79-.76-1.95-6.93-2.02-13.76-4.62-20.99-5.42-5.02.24-9.6 2.73-13.55 5.71-2.03 3.25-6.04 4.12-9.42 5.25 1.35-3.55 1.7-7.9 5.04-10.28 4.66-3.5 5.95-9.93 11.04-12.95 4.47-1.97 8.53 1.38 10.98 4.82 5.03-.22 9.96 1.29 14.99.92 3.04-.13 6.07-1.25 9.11-.46 4.98.74 9.62 2.79 14.53 3.85 4.75.56 9.18-1.67 13.38-3.56-2.19 4.71-3.79 10.72-.85 15.45-2.77-1.36-5.72-2.34-8.35-3.97-3.4-.32-7.18-.65-10.06 1.6-4.88 1.44-10.5-1.81-15.04 1.23 4.56.48 9.27-.07 13.7 1.39 4.82 1.46 9.9 4.4 14.86 1.5-3.6-1.91-8-.53-11.6-2.68.16-.25.49-.74.65-.98 2.43-.69 4.91-1.23 7.43-1.45l-.89 1.05c.83.31 2.48.92 3.3 1.23.53 1 1.09 2 1.65 2.99 11.33 1.52 22.75 1.48 34.16 1.56 4.22.51 7.69-2.22 11.51-3.47 4.43.78 8.96 1.33 13.44.58 5.86-1.65 11.92 2.56 17.68-.19 3.53-2.09 8.11-1.47 11.18-4.39 2.79 1.9 5.63 3.73 8.68 5.19 4.17 2.03 8.94.98 13.34 2.03 3.5.78 6.62-1.74 10.12-1.55 6.78-.03 12.92-3.08 19.2-5.2 7.53 1.93 15.64 1.34 22.41-2.66-1.02-3.71-5.01-4.53-8.29-5.03.45-.22 1.34-.66 1.79-.88l.66-.33.37-.61c-3.58-2.97-8.58-3.48-12.92-4.81-6-.47-11.88-1.75-17.58-3.68-4.34-1.48-8.94-.71-13.32.09 1.36-4.25 4.72-9.34 1.57-13.58-3.44-4.22-9.32-6.88-14.76-5.91-4.95 1-6.12 6.39-8.98 9.78M69.47 61.82c1.02.42 3.06 1.28 4.08 1.71-.77.27-2.31.81-3.08 1.09 1.22.71 2.47 1.38 3.74 2.03l.04-2.36c6.09 2.05 12.75 4.6 19.18 2.51-6.19-1.84-12.66-2.4-18.86-4.16.1-.51.3-1.51.41-2.01-.44.38-1.31 1.16-1.74 1.55-1.26-.15-2.51-.29-3.77-.36m27.92 5.53c3.83.79 8.92 2.1 11.67-1.58-3.89.56-7.82.82-11.67 1.58m51.82-1.6c.11 2.58.28 5.64 2.95 6.93-.79-2.39-1.78-4.7-2.95-6.93m-72.99 2.66c4.88 3.26 11.64 4.46 17.19 2.36-5.77-.51-11.42-1.89-17.19-2.36z"/><path d="M207.2 36.23c4.01-1.88 8.45.12 11.78 2.47 2.26 1.51 4.15 4.37 3.26 7.17-1.55 5.15-3.96 10.8-9.03 13.36-2.11-.92-3.96-2.32-5.97-3.42.58 1.8 1.86 3.23 2.88 4.78-3.33 1.4-2.87-2.27-3.95-3.93-2.45-4.17-7.69-5.78-12.25-4.51-1.55-3.3-6.03-2.29-8.6-.82 2.44.37 4.89.56 7.35.76l.02.8c-1.06.13-3.18.37-4.24.5l1.48 1.12c4.07-.05 8.58-2.83 12.24.09 2.93 1.37 3.65 4.83 3.48 7.77 5.85-3.16 11.51 2.75 17.29 3.37 4.36-.23 8.68-1.38 13.09-.8 5.29 1.78 10.76.54 15.91-1 5.33.53 10.55 2.08 15.68 3.59.1.35.3 1.06.41 1.41-3.14 1.43-6.7 1.16-10.04 1.64-3.4.59-6.58-1.01-9.89-1.41-3.4.56-6.28 2.59-9.54 3.56-5.79 1.76-12.02 1.39-17.65 3.77-7.5-1.71-15.77-1.61-22.29-6.25-2.6-1.97-5.69-3.19-8.98-3.21 1.72 1.49 3.81 2.4 5.75 3.54-6.72.91-13.16 4.98-20.08 2.98-5.6-1.77-11.52.77-17.12-.68-4.5-5.82-6.5-14.12-3.57-21.09 5.14-1.3 10.05-3.56 15.4-3.92 3.33-.28 6.47-1.45 9.64-2.43l-.18 1.41c.87-.22 2.62-.65 3.49-.87-.39.72-1.15 2.16-1.53 2.89-5.76 1.39-12.45-.31-17.3 3.99 4.59-.83 9.17-1.74 13.85-1.77 3.41.1 5.94-2.53 9.09-3.37 4.41-.36 9.16-1.66 13.11 1.08 1.84-1.52 3.95-2.74 6.45-2.1-1.3-1.18-2.6-2.38-3.86-3.61 1.08-2.46 1.77-5.59 4.42-6.86m-19.35 23.35c-.58-.31-1.75-.93-2.33-1.24.89 2.24 3.6 2.43 5.56 1.64 2.46-.96 5.18-2.09 6.33-4.67-3.22 1.34-6.24 3.15-9.56 4.27m-7.05-2.18c-.13 3.79 2.51 6.86 6.01 8-4.18 1.59-8.37-1.09-12.26-2.42 1.64 4.65 7.39 4.83 11.49 5.3 2.2.45 3.17-1.71 4.41-3.04l-2.24.24-.56-1.69c-3.48-.62-4.92-3.88-6.85-6.39m-22.27 6.58c4.7 2.93 10.61 1.52 14.97-1.35-5.03-.4-9.99.84-14.97 1.35m31.24.02c4.49 2.1 9.42.12 13.94-.82-4.64-.87-9.39-.27-13.94.82m40.19 3.08c-3.85.6-6.23 4.21-10.03 5.01 1.03.39 2.07.73 3.15 1.03 1.81-1.04 3.19-2.69 4.99-3.76 2.74-.91 5.8-.87 8.27-2.53-2.13-.26-4.29-.26-6.38.25m-26.83 3.05c2.35.32 4.65-.15 6.53-1.64 3.3 1.19 5.86 4.4 9.56 4.26-2.17-3.57-6.3-4.75-10.05-5.9-1.93 1.24-4.01 2.23-6.04 3.28z"/><path d="M179.69 44.93c2.78-2.88 6.67-3.51 10.51-3.3 1.29.75 2.58 1.49 3.86 2.25 3.02 1.35 6.24.52 9.36 1.01-2.6 2.33-5.62 1.41-8.57.59-3.44.16-6.83 1.07-10.3 1.16-.23-1.02-.38-2.06-.51-3.09-1.45.48-2.9.94-4.35 1.38zM52.62 49.2c3.66-2.42 7.89-.25 9.37 3.52 5.92 1.98 12.1.45 18.01-.69 7.61-1.46 14.45 3.4 21.93 3.78 4.37 1.15 8.5-.86 12.11-3.12-.09 1.94-.16 3.88-.19 5.83-4.22 1-8.42 2.68-12.82 2.44-5.14-.71-10.24-1.81-15.1-3.67-3.6-1.58-7.27.52-10.96.22-4.17-.24-8.32-.67-12.5-.58-1.5-4.41-5.82-6.26-9.85-7.73zM220.51 54.69c4.88-.37 9.98-.43 14.66 1.2 4.25 2.06 8.84 4.05 13.67 3.69 4.36-.76 8.76.63 12.71 2.38.06.57.04 1.13-.07 1.69-4.43-1-9.14-2.57-13.61-.87-7.46 2.37-15.26-.24-22.84 1.12-4.25 1.03-7.86-1.95-11.75-3.09 3.04-1.24 5.42-3.43 7.23-6.12m.37.71c1.13 1.64 2.38 3.18 3.6 4.76-.61 1.07-1.21 2.15-1.8 3.23 2.66-1.31 5.57-2.51 7.36-4.99-1.16.42-2.31.87-3.45 1.35-1.63-1.78-3.28-3.69-5.71-4.35m-.57 4.64c.12 3.37 2.95-1.56 0 0z"/></g><g fill="#333"><path d="M199.09 43.95c2.86-3.39 4.03-8.78 8.98-9.78 5.44-.97 11.32 1.69 14.76 5.91 3.15 4.24-.21 9.33-1.57 13.58 4.38-.8 8.98-1.57 13.32-.09 5.7 1.93 11.58 3.21 17.58 3.68 4.34 1.33 9.34 1.84 12.92 4.81l-.37.61-.66.33c-.45.22-1.34.66-1.79.88 3.28.5 7.27 1.32 8.29 5.03-6.77 4-14.88 4.59-22.41 2.66-6.28 2.12-12.42 5.17-19.2 5.2-3.5-.19-6.62 2.33-10.12 1.55-4.4-1.05-9.17 0-13.34-2.03-3.05-1.46-5.89-3.29-8.68-5.19-3.07 2.92-7.65 2.3-11.18 4.39-5.76 2.75-11.82-1.46-17.68.19-4.48.75-9.01.2-13.44-.58-3.82 1.25-7.29 3.98-11.51 3.47-11.41-.08-22.83-.04-34.16-1.56-.56-.99-1.12-1.99-1.65-2.99-.82-.31-2.47-.92-3.3-1.23l.89-1.05c-2.52.22-5 .76-7.43 1.45-.16.24-.49.73-.65.98 3.6 2.15 8 .77 11.6 2.68-4.96 2.9-10.04-.04-14.86-1.5-4.43-1.46-9.14-.91-13.7-1.39 4.54-3.04 10.16.21 15.04-1.23 2.88-2.25 6.66-1.92 10.06-1.6 2.63 1.63 5.58 2.61 8.35 3.97-2.94-4.73-1.34-10.74.85-15.45-4.2 1.89-8.63 4.12-13.38 3.56-4.91-1.06-9.55-3.11-14.53-3.85-3.04-.79-6.07.33-9.11.46-5.03.37-9.96-1.14-14.99-.92-2.45-3.44-6.51-6.79-10.98-4.82-5.09 3.02-6.38 9.45-11.04 12.95-3.34 2.38-3.69 6.73-5.04 10.28 3.38-1.13 7.39-2 9.42-5.25 3.95-2.98 8.53-5.47 13.55-5.71 7.23.8 14.06 3.4 20.99 5.42 1.02.16.79 1.21.76 1.95-7.72-.96-14.78-5.25-22.7-5.04-7.95.99-12.9 9.04-20.99 9.63-1.98.25-4.73-1.65-3.45-3.84 1.57-3.51 2.73-7.5 6.02-9.84 5.13-3.57 6.96-9.9 11.52-14.04.38-3.28 3.88-4.73 6.85-4.27 3.55-.07 5.23 3.66 8.02 5.24 5.78.18 11.36-1.62 17.06-2.3 7.67-.3 14.43 4.42 22.02 4.68 3.61-.64 7.1-1.96 10.38-3.56 3.93-1 8.03-1.13 11.96-2.03 6.96-3.87 16.67-4.17 22.66 1.64.85-.28 1.71-.55 2.56-.83l.4 1.13-2.28 1.36c-.52 3.1-.04 6.26-.2 9.38-3.26-1.89-1.76-6.21-1.78-9.25-4.2-5.28-11.84-5.33-17.62-2.9-3.76 1.6-7.84 1.97-11.85 2.52-.13 1.62-.24 3.24-.33 4.87 3.84.74 7.34-.59 10.57-2.53-1.29 1.85-2.74 3.64-4.58 4.96-2.79.25-5.61.09-8.4.4.47 2.46-.46 4.82-1.3 7.08-.03 1.95-.01 3.9-.05 5.85 1.32 1.54 2.68 3.05 3.81 4.74 3.37.6 6.68-.76 10.04-.61 6.88 1.03 13.9.89 20.78-.07-2.54-2.07-6.1-3.13-7.44-6.4 2.54 1.06 4.66 3.48 7.63 3.2-.1.43-.31 1.31-.41 1.75 2.35-.46 4.72-.92 7.12-.97-3.42-3.26-3.22-8.35-3.76-12.69-.45-2.81.02-5.65 1.15-8.24-.05-.62-.14-1.85-.19-2.47 3.07-1.05 6.17-1.99 9.26-2.94 4.35-1.49 9.3-.2 13.4-2.56 3.9-1.35 6.86-5.18 11.22-5.08 4.25.93 8.16 2.98 12.31 4.26m8.11-7.72c-2.65 1.27-3.34 4.4-4.42 6.86 1.26 1.23 2.56 2.43 3.86 3.61-2.5-.64-4.61.58-6.45 2.1-3.95-2.74-8.7-1.44-13.11-1.08-3.15.84-5.68 3.47-9.09 3.37-4.68.03-9.26.94-13.85 1.77 4.85-4.3 11.54-2.6 17.3-3.99.38-.73 1.14-2.17 1.53-2.89-.87.22-2.62.65-3.49.87l.18-1.41c-3.17.98-6.31 2.15-9.64 2.43-5.35.36-10.26 2.62-15.4 3.92-2.93 6.97-.93 15.27 3.57 21.09 5.6 1.45 11.52-1.09 17.12.68 6.92 2 13.36-2.07 20.08-2.98-1.94-1.14-4.03-2.05-5.75-3.54 3.29.02 6.38 1.24 8.98 3.21 6.52 4.64 14.79 4.54 22.29 6.25 5.63-2.38 11.86-2.01 17.65-3.77 3.26-.97 6.14-3 9.54-3.56 3.31.4 6.49 2 9.89 1.41 3.34-.48 6.9-.21 10.04-1.64-.11-.35-.31-1.06-.41-1.41-5.13-1.51-10.35-3.06-15.68-3.59-5.15 1.54-10.62 2.78-15.91 1-4.41-.58-8.73.57-13.09.8-5.78-.62-11.44-6.53-17.29-3.37.17-2.94-.55-6.4-3.48-7.77-3.66-2.92-8.17-.14-12.24-.09l-1.48-1.12c1.06-.13 3.18-.37 4.24-.5l-.02-.8c-2.46-.2-4.91-.39-7.35-.76 2.57-1.47 7.05-2.48 8.6.82 4.56-1.27 9.8.34 12.25 4.51 1.08 1.66.62 5.33 3.95 3.93-1.02-1.55-2.3-2.98-2.88-4.78 2.01 1.1 3.86 2.5 5.97 3.42 5.07-2.56 7.48-8.21 9.03-13.36.89-2.8-1-5.66-3.26-7.17-3.33-2.35-7.77-4.35-11.78-2.47m-27.51 8.7c1.45-.44 2.9-.9 4.35-1.38.13 1.03.28 2.07.51 3.09 3.47-.09 6.86-1 10.3-1.16 2.95.82 5.97 1.74 8.57-.59-3.12-.49-6.34.34-9.36-1.01-1.28-.76-2.57-1.5-3.86-2.25-3.84-.21-7.73.42-10.51 3.3M52.62 49.2c4.03 1.47 8.35 3.32 9.85 7.73 4.18-.09 8.33.34 12.5.58 3.69.3 7.36-1.8 10.96-.22 4.86 1.86 9.96 2.96 15.1 3.67 4.4.24 8.6-1.44 12.82-2.44.03-1.95.1-3.89.19-5.83-3.61 2.26-7.74 4.27-12.11 3.12-7.48-.38-14.32-5.24-21.93-3.78-5.91 1.14-12.09 2.67-18.01.69-1.48-3.77-5.71-5.94-9.37-3.52m167.89 5.49c-1.81 2.69-4.19 4.88-7.23 6.12 3.89 1.14 7.5 4.12 11.75 3.09 7.58-1.36 15.38 1.25 22.84-1.12 4.47-1.7 9.18-.13 13.61.87.11-.56.13-1.12.07-1.69-3.95-1.75-8.35-3.14-12.71-2.38-4.83.36-9.42-1.63-13.67-3.69-4.68-1.63-9.78-1.57-14.66-1.2z"/><path d="M187.85 59.58c3.32-1.12 6.34-2.93 9.56-4.27-1.15 2.58-3.87 3.71-6.33 4.67-1.96.79-4.67.6-5.56-1.64.58.31 1.75.93 2.33 1.24zM220.88 55.4c2.43.66 4.08 2.57 5.71 4.35 1.14-.48 2.29-.93 3.45-1.35-1.79 2.48-4.7 3.68-7.36 4.99.59-1.08 1.19-2.16 1.8-3.23-1.22-1.58-2.47-3.12-3.6-4.76zM180.8 57.4c1.93 2.51 3.37 5.77 6.85 6.39l.56 1.69 2.24-.24c-1.24 1.33-2.21 3.49-4.41 3.04-4.1-.47-9.85-.65-11.49-5.3 3.89 1.33 8.08 4.01 12.26 2.42-3.5-1.14-6.14-4.21-6.01-8z"/><path d="M220.31 60.04c2.95-1.56.12 3.37 0 0zM69.47 61.82c1.26.07 2.51.21 3.77.36.43-.39 1.3-1.17 1.74-1.55-.11.5-.31 1.5-.41 2.01 6.2 1.76 12.67 2.32 18.86 4.16-6.43 2.09-13.09-.46-19.18-2.51l-.04 2.36a78.83 78.83 0 01-3.74-2.03c.77-.28 2.31-.82 3.08-1.09-1.02-.43-3.06-1.29-4.08-1.71zM158.53 63.98c4.98-.51 9.94-1.75 14.97-1.35-4.36 2.87-10.27 4.28-14.97 1.35zM189.77 64c4.55-1.09 9.3-1.69 13.94-.82-4.52.94-9.45 2.92-13.94.82zM97.39 67.35c3.85-.76 7.78-1.02 11.67-1.58-2.75 3.68-7.84 2.37-11.67 1.58zM149.21 65.75c1.17 2.23 2.16 4.54 2.95 6.93-2.67-1.29-2.84-4.35-2.95-6.93zM229.96 67.08c2.09-.51 4.25-.51 6.38-.25-2.47 1.66-5.53 1.62-8.27 2.53-1.8 1.07-3.18 2.72-4.99 3.76-1.08-.3-2.12-.64-3.15-1.03 3.8-.8 6.18-4.41 10.03-5.01zM203.13 70.13c2.03-1.05 4.11-2.04 6.04-3.28 3.75 1.15 7.88 2.33 10.05 5.9-3.7.14-6.26-3.07-9.56-4.26-1.88 1.49-4.18 1.96-6.53 1.64zM76.22 68.41c5.77.47 11.42 1.85 17.19 2.36-5.55 2.1-12.31.9-17.19-2.36z"/></g></svg>