<svg width="218pt" height="125pt" viewBox="0 0 218 125" xmlns="http://www.w3.org/2000/svg"><g fill="#FFF"><path d="M0 0h218v125H0V0m134.48 36.55c-3.32 3.64-7.19 6.7-10.6 10.25-6.15 5.95-9.33 14.06-13.75 21.21-2.44 2.11-4.92 4.17-6.74 6.89-3.71-1.01-7.5-.32-11.25-.11-1.37-.86-2.49-2.05-3.64-3.17-3.04-.6-5.72-2.13-7.65-4.57-1.81-.48-3.62-.95-5.42-1.43-2.89.16-5.77.53-8.41 1.79-1.88-.78-3.86-2.11-5.94-1.2-5.61 1.38-9.29 5.9-13.03 9.92-.39 1.42-.8 2.83-1.21 4.24-1.23-.41-2.46-.81-3.69-1.2-1.58-2.92-2.48-6.15-4.14-9.03-4.33-.34-8.94-1.39-13.09.35-4.06 1.6-8.67 2.47-11.77 5.79-3.32 5.79-5.95 12.96-2.98 19.48 2.25 3.08 6.38 3.89 9.94 4.44 4.29.9 7.66-2.72 11.68-3.35 2.49.25 4.91.92 7.37 1.41.2.31.62.93.83 1.24 2.55 3.98 3.9 9.61 9.05 11.06 5.68.77 11.13 2.56 16.43 4.71 4.06 1.92 8.6-.49 12.73 1.04 2.25.82 4.32 2.32 6.82 2.26 5.98.09 12.01-.3 17.85-1.63 2.9-.5 5.9-1.42 8.8-.45 1.35-3.11 4.43-.39 6.44.56 4.73 2.4 9.99.62 14.96.46 4.01.08 8.21-1.43 10.17-5.15l-1.12-2.69c-3.66-1.8-7.58-4.57-11.85-3.75 3.73 3.02 8.91 3.37 12.29 6.93-2.32 1.52-4.92 2.46-7.48 3.46-3.86-.2-7.71.42-11.57.32-3.48-.03-5.97-2.91-9.22-3.7-9.82.39-19.41 3.5-29.28 3.24-3.01.05-5.27-2.23-8.11-2.81-3.28-.97-6.66.37-9.98-.08-4.99-2-10.26-3.14-15.44-4.54-1.95-.58-4.67-.3-5.6-2.53-2.1-4.2-3.91-8.67-7.22-12.1-.63 4.7-5.14-.15-7.72 1.12-5.53 2.68-12.21 3.22-17.9.8-2.88-4.98-1.04-11.27.75-16.36 3.37-5.03 9.7-6.07 15.25-6.87.22-.51.65-1.52.87-2.03 2.33.42 4.72.63 6.98 1.38.83 1.42 1.4 2.98 2.1 4.46l-.44 1.57c-2.38 3.04-3.66 7.05-7.29 8.93.49.27.99.54 1.48.81 4.15-1.33 5.39-5.48 5.85-9.38.63 3.52 3.57 3.25 6.3 3.2 5.8-3.23 7.36-10.8 13.69-13.31 2.65-.72 5.23-.02 7.68 1.03 5.17-2.08 11.97-2.1 16.01 2.26 2.86 2.02 5.91 3.76 8.81 5.71 4.12-.08 8.3-1.35 12.35.11.33 5.49.95 10.97.88 16.48-.11 2.52 1.07 4.83 1.71 7.21.5-3.86-.26-8.43 3.09-11.19.24 3.65.1 7.32.34 10.97 2.21-6.04.01-12.47.34-18.69-.54.06-1.63.19-2.17.25.32 2.05.65 4.09 1.01 6.13-.58.75-1.17 1.48-1.77 2.22.11-4.49-.32-8.96-.52-13.43-.39-.44-1.17-1.33-1.56-1.78 1.61-1.12 3.23-2.21 4.93-3.2l-.79 2.58c1.57-3.34 5.2-3.84 8.35-4.76 2.97-2.65 4.05-6.69 6.27-9.91 1 7.01 7.9 10.03 11.88 15.1 1.76 1.59 2.93 4.71 5.78 4.3-1.35 2.68-2.54 5.5-4.68 7.68-2.46 2.38-2.4 6.03-3.76 8.98-1.46 2.08-3.51 3.65-5.82 4.69-2.12 1.53-4.67.88-7.09.82-2.92.5-5.66 1.81-8.25 3.2 5.28.03 10.42-1.87 15.75-.85.27-.38.8-1.13 1.07-1.5 5.33-2.29 6.75-8.59 8.98-13.37 2.67-3.15 5.56-6.52 5.39-10.95 1.39-1.87 2.79-3.75 3.76-5.88-.46-.77-.92-1.53-1.39-2.28-.86 3.18-3.22 5.57-5.2 8.08-2.44-3.9-5.39-7.48-9.07-10.26-2.97-2.15-4.03-5.78-5.88-8.78 1.85-1.63 3.46-3.5 4.95-5.45 2.75-3.6 6.77-6.05 9.1-10 2.84-5.05 8.15-8.7 14.03-8.86 1.79 2.47 3.63 4.92 5.34 7.45 2.05 3.18 2.33 7.03 3.26 10.6 3.53 11.04 3.77 22.75 6.18 34.03.88 2.79 3.01 5.13 5.63 6.43 3.4 1.96 6.12 6.27 10.52 5.6 2.6.75 6 .7 7.1 3.73-4.35 3.2-9.79 3.74-15 3.92-5.77.65-11.56 2.26-17.38 1.32-1.42-.25-2.44-1.75-2.41-3.15-.57-5.23 3.26-9.78 2.51-15.01-.52-4.71-1.44-9.43-2.94-13.94-1.68-3.21-2.92-6.64-3.45-10.23-1-4.82.85-9.56 1.13-14.35-4.54 5.36-6.77 12.12-8.15 18.9.58-.17 1.72-.52 2.29-.7l-1.5.6c.8 3.11 1.25 6.51.1 9.6-1.3 3.6-2.98 7.19-2.96 11.11-.06 2.29-.23 5.26 2.1 6.56 2.97 1.44 6.44.39 9.42-.5-.36 4.07-1.77 9.15 1.79 12.26 2.33 1.23 5.11.87 7.62 1.45 5.55-.88 11.06-2.36 16.72-2.25 2.88.05 5.5-1.4 8.06-2.54 1.74-1.07 4.35-2.38 3.63-4.89-1.05-3.12-4.93-3.13-7.65-3.63-4.23-.34-7.59-3.11-10.75-5.66 2.29-.88 4.75-1.93 4.31-4.88-.94-.98-1.85-1.98-2.76-2.99-2.22-.58-4.5-.83-6.79-.9l.39-.15c-2.09-3.24-1.5-7.33-2.11-10.98-.37-10.25-4.03-19.95-6.44-29.8-2.47-3.08-5.41-5.76-7.89-8.84-2.74.17-5.45.65-8.13 1.21-1.21-.37-2.42-.73-3.64-1.06.04-.27.12-.81.16-1.07-2.83 1.01-5.86 1.87-7.92 4.21m8.79 5.82c1.56.01 3.13 0 4.7-.03-1.26-.67-2.55-1.25-3.85-1.8-.21.45-.64 1.37-.85 1.83m12.38-.27c-.54 1.65-.02 2.26 1.56 1.84.54-1.64.02-2.25-1.56-1.84m-7.59 10.96c-1.27 2.19-1.68 4.93-.27 7.16.65-4.29 2.95-7.72 6.02-10.63-2 .96-4.22 1.79-5.75 3.47m-1.88 5.76c-1.25 3.4-2.08 6.97-3.77 10.2-.93.92-1.82 1.89-2.62 2.92 2.03-1.19 4.51-2.28 5.38-4.64 1.08-2.71 3.17-5.75 1.01-8.48m-68.1 13.96c3.54 2.53 7.37 5.84 7.77 10.47 2.26 2.02 5.21 2.82 8.14 3.17 2.89-.53 5.72-1.47 8.7-1.36-.97-.6-1.92-1.21-2.88-1.82l-.2 1.23c-.78-.12-2.35-.36-3.13-.49-.57.35-1.72 1.03-2.29 1.37-2.08-1.15-4.34-1.92-6.7-2.18-.49-1.21-.98-2.41-1.44-3.63-2.18-2.59-3.75-7.6-7.97-6.76m-20.36 14.1c-2.9-1.09-6.17-1.52-8.89.28 4.04.15 8.18.8 11.12 3.83 2.96 1.73 3.78 5.56 6.95 6.94-.45-1.97-1.13-3.85-1.74-5.76-1.42-1.06-2.83-2.14-4.24-3.22 1.04-3.63 3.97-6.18 5.58-9.51-4.02.87-6.05 4.77-8.78 7.44m54.07-7.17c2.16 2.49 4.95 4.46 6.31 7.58-.3-1.45-.47-2.94-.97-4.33-1.4-1.58-3.47-2.37-5.34-3.25m-40.7 9.43c-.05.79-.16 2.36-.21 3.14-1.81-.21-3.53.05-5.19.8 1.45 1.19 3.31 1.36 4.94.47 1.84 3.02 6.01 2.9 9.07 3.88 1.93 1.7 3.98 3.27 6.04 4.82-1.87.36-3.74.75-5.58 1.23 4.81 3.3 10.2-1.8 15.27-.12 3.49 1.18 7.18 1 10.8.86.04-.35.1-1.05.13-1.4-.54-.2-1.63-.58-2.17-.78-5.37 1.46-10.47-2.34-15.79-.59-.7-.6-1.4-1.21-2.1-1.82-3.13-1-6.12-2.38-9.19-3.57 1.23-2.44 2.98-4.57 4.31-6.95-1.35.83-2.66 1.74-3.94 2.67-.39-.02-1.17-.05-1.55-.06-.04.97-.1 2.9-.14 3.87-1.27-.33-2.54-.68-3.81-1.04.39-1.53.81-3.05 1.23-4.57 2.31-.91 4.07-2.68 5.12-4.92-2.39 1.4-4.67 3.01-7.24 4.08m14.61 8.68c3.26-.54 5.49-3.14 7.64-5.4-3.51.09-5.95 2.56-7.64 5.4m77.37-4.59c.15 1.82.18 3.65.52 5.45 1.06 1.71 3.21 1.7 4.97 1.5-1.47-1.03-2.96-2.01-4.46-2.99.24-1.31.47-2.61.7-3.91-.43-.01-1.3-.04-1.73-.05m-97.89 10.98c.75 2.68-1.34 4.35-2.98 6.04 2.61-.18 5.03-.98 5.32-3.95 3.34 1.8 6.67 3.6 10.03 5.35-.27-.76-.83-2.27-1.1-3.02-3.41-2.18-7.37-3.44-11.27-4.42z"/><path d="M137.52 36.27c2.67-1.45 5.65-.75 8.53-.91-2.5 1.66-4.69 3.78-6.3 6.33-1.96 3.04-4.96 5.13-7.46 7.68-3.56 3.45-5.56 8.32-9.9 11-1.63-1.19-3.28-2.35-4.88-3.59 3.65-5.08 8.47-9.14 13.32-13.03 2.26-2.46 4.28-5.14 6.69-7.48zM117.42 58.79c1.38.87 2.75 1.75 4.13 2.61-1.41 2.41-2.59 4.95-4.14 7.28-2.01.64-4.18.62-6.21 1.22 2.45-3.49 3.98-7.5 6.22-11.11zM150.38 76.85c1.04-3.95-1.62-7.83-.23-11.75 4.19 7.37 5.74 15.77 7.2 24.01.19 1.63-.37 3.24-.78 4.8-2.38 1.72-5.23 3.51-8.31 2.97-1.98-.74-2.09-3.07-1.81-4.84.37-5.3 3.49-9.91 3.93-15.19zM169.88 84.61c2.67.25 7.45-.33 7.68 3.44-.58 2.17-2.99 1.79-4.71 2.18-1.17-1.77-2.54-3.48-2.97-5.62z"/></g><g fill="#333"><path d="M134.48 36.55c2.06-2.34 5.09-3.2 7.92-4.21-.04.26-.12.8-.16 1.07 1.22.33 2.43.69 3.64 1.06 2.68-.56 5.39-1.04 8.13-1.21 2.48 3.08 5.42 5.76 7.89 8.84 2.41 9.85 6.07 19.55 6.44 29.8.61 3.65.02 7.74 2.11 10.98l-.39.15c2.29.07 4.57.32 6.79.9.91 1.01 1.82 2.01 2.76 2.99.44 2.95-2.02 4-4.31 4.88 3.16 2.55 6.52 5.32 10.75 5.66 2.72.5 6.6.51 7.65 3.63.72 2.51-1.89 3.82-3.63 4.89-2.56 1.14-5.18 2.59-8.06 2.54-5.66-.11-11.17 1.37-16.72 2.25-2.51-.58-5.29-.22-7.62-1.45-3.56-3.11-2.15-8.19-1.79-12.26-2.98.89-6.45 1.94-9.42.5-2.33-1.3-2.16-4.27-2.1-6.56-.02-3.92 1.66-7.51 2.96-11.11 1.15-3.09.7-6.49-.1-9.6l1.5-.6c-.57.18-1.71.53-2.29.7 1.38-6.78 3.61-13.54 8.15-18.9-.28 4.79-2.13 9.53-1.13 14.35.53 3.59 1.77 7.02 3.45 10.23 1.5 4.51 2.42 9.23 2.94 13.94.75 5.23-3.08 9.78-2.51 15.01-.03 1.4.99 2.9 2.41 3.15 5.82.94 11.61-.67 17.38-1.32 5.21-.18 10.65-.72 15-3.92-1.1-3.03-4.5-2.98-7.1-3.73-4.4.67-7.12-3.64-10.52-5.6-2.62-1.3-4.75-3.64-5.63-6.43-2.41-11.28-2.65-22.99-6.18-34.03-.93-3.57-1.21-7.42-3.26-10.6-1.71-2.53-3.55-4.98-5.34-7.45-5.88.16-11.19 3.81-14.03 8.86-2.33 3.95-6.35 6.4-9.1 10-1.49 1.95-3.1 3.82-4.95 5.45 1.85 3 2.91 6.63 5.88 8.78 3.68 2.78 6.63 6.36 9.07 10.26 1.98-2.51 4.34-4.9 5.2-8.08.47.75.93 1.51 1.39 2.28-.97 2.13-2.37 4.01-3.76 5.88.17 4.43-2.72 7.8-5.39 10.95-2.23 4.78-3.65 11.08-8.98 13.37-.27.37-.8 1.12-1.07 1.5-5.33-1.02-10.47.88-15.75.85 2.59-1.39 5.33-2.7 8.25-3.2 2.42.06 4.97.71 7.09-.82 2.31-1.04 4.36-2.61 5.82-4.69 1.36-2.95 1.3-6.6 3.76-8.98 2.14-2.18 3.33-5 4.68-7.68-2.85.41-4.02-2.71-5.78-4.3-3.98-5.07-10.88-8.09-11.88-15.1-2.22 3.22-3.3 7.26-6.27 9.91-3.15.92-6.78 1.42-8.35 4.76l.79-2.58c-1.7.99-3.32 2.08-4.93 3.2.39.45 1.17 1.34 1.56 1.78.2 4.47.63 8.94.52 13.43.6-.74 1.19-1.47 1.77-2.22-.36-2.04-.69-4.08-1.01-6.13.54-.06 1.63-.19 2.17-.25-.33 6.22 1.87 12.65-.34 18.69-.24-3.65-.1-7.32-.34-10.97-3.35 2.76-2.59 7.33-3.09 11.19-.64-2.38-1.82-4.69-1.71-7.21.07-5.51-.55-10.99-.88-16.48-4.05-1.46-8.23-.19-12.35-.11-2.9-1.95-5.95-3.69-8.81-5.71-4.04-4.36-10.84-4.34-16.01-2.26-2.45-1.05-5.03-1.75-7.68-1.03-6.33 2.51-7.89 10.08-13.69 13.31-2.73.05-5.67.32-6.3-3.2-.46 3.9-1.7 8.05-5.85 9.38-.49-.27-.99-.54-1.48-.81 3.63-1.88 4.91-5.89 7.29-8.93l.44-1.57c-.7-1.48-1.27-3.04-2.1-4.46-2.26-.75-4.65-.96-6.98-1.38-.22.51-.65 1.52-.87 2.03-5.55.8-11.88 1.84-15.25 6.87-1.79 5.09-3.63 11.38-.75 16.36 5.69 2.42 12.37 1.88 17.9-.8 2.58-1.27 7.09 3.58 7.72-1.12 3.31 3.43 5.12 7.9 7.22 12.1.93 2.23 3.65 1.95 5.6 2.53 5.18 1.4 10.45 2.54 15.44 4.54 3.32.45 6.7-.89 9.98.08 2.84.58 5.1 2.86 8.11 2.81 9.87.26 19.46-2.85 29.28-3.24 3.25.79 5.74 3.67 9.22 3.7 3.86.1 7.71-.52 11.57-.32 2.56-1 5.16-1.94 7.48-3.46-3.38-3.56-8.56-3.91-12.29-6.93 4.27-.82 8.19 1.95 11.85 3.75l1.12 2.69c-1.96 3.72-6.16 5.23-10.17 5.15-4.97.16-10.23 1.94-14.96-.46-2.01-.95-5.09-3.67-6.44-.56-2.9-.97-5.9-.05-8.8.45-5.84 1.33-11.87 1.72-17.85 1.63-2.5.06-4.57-1.44-6.82-2.26-4.13-1.53-8.67.88-12.73-1.04-5.3-2.15-10.75-3.94-16.43-4.71-5.15-1.45-6.5-7.08-9.05-11.06-.21-.31-.63-.93-.83-1.24-2.46-.49-4.88-1.16-7.37-1.41-4.02.63-7.39 4.25-11.68 3.35-3.56-.55-7.69-1.36-9.94-4.44-2.97-6.52-.34-13.69 2.98-19.48 3.1-3.32 7.71-4.19 11.77-5.79 4.15-1.74 8.76-.69 13.09-.35 1.66 2.88 2.56 6.11 4.14 9.03 1.23.39 2.46.79 3.69 1.2.41-1.41.82-2.82 1.21-4.24 3.74-4.02 7.42-8.54 13.03-9.92 2.08-.91 4.06.42 5.94 1.2 2.64-1.26 5.52-1.63 8.41-1.79 1.8.48 3.61.95 5.42 1.43 1.93 2.44 4.61 3.97 7.65 4.57 1.15 1.12 2.27 2.31 3.64 3.17 3.75-.21 7.54-.9 11.25.11 1.82-2.72 4.3-4.78 6.74-6.89 4.42-7.15 7.6-15.26 13.75-21.21 3.41-3.55 7.28-6.61 10.6-10.25m3.04-.28c-2.41 2.34-4.43 5.02-6.69 7.48-4.85 3.89-9.67 7.95-13.32 13.03 1.6 1.24 3.25 2.4 4.88 3.59 4.34-2.68 6.34-7.55 9.9-11 2.5-2.55 5.5-4.64 7.46-7.68 1.61-2.55 3.8-4.67 6.3-6.33-2.88.16-5.86-.54-8.53.91m-20.1 22.52c-2.24 3.61-3.77 7.62-6.22 11.11 2.03-.6 4.2-.58 6.21-1.22 1.55-2.33 2.73-4.87 4.14-7.28-1.38-.86-2.75-1.74-4.13-2.61m32.96 18.06c-.44 5.28-3.56 9.89-3.93 15.19-.28 1.77-.17 4.1 1.81 4.84 3.08.54 5.93-1.25 8.31-2.97.41-1.56.97-3.17.78-4.8-1.46-8.24-3.01-16.64-7.2-24.01-1.39 3.92 1.27 7.8.23 11.75m19.5 7.76c.43 2.14 1.8 3.85 2.97 5.62 1.72-.39 4.13-.01 4.71-2.18-.23-3.77-5.01-3.19-7.68-3.44z"/><path d="M143.27 42.37c.21-.46.64-1.38.85-1.83 1.3.55 2.59 1.13 3.85 1.8-1.57.03-3.14.04-4.7.03zM155.65 42.1c1.58-.41 2.1.2 1.56 1.84-1.58.42-2.1-.19-1.56-1.84zM148.06 53.06c1.53-1.68 3.75-2.51 5.75-3.47-3.07 2.91-5.37 6.34-6.02 10.63-1.41-2.23-1-4.97.27-7.16zM146.18 58.82c2.16 2.73.07 5.77-1.01 8.48-.87 2.36-3.35 3.45-5.38 4.64.8-1.03 1.69-2 2.62-2.92 1.69-3.23 2.52-6.8 3.77-10.2zM78.08 72.78c4.22-.84 5.79 4.17 7.97 6.76.46 1.22.95 2.42 1.44 3.63 2.36.26 4.62 1.03 6.7 2.18.57-.34 1.72-1.02 2.29-1.37.78.13 2.35.37 3.13.49l.2-1.23c.96.61 1.91 1.22 2.88 1.82-2.98-.11-5.81.83-8.7 1.36-2.93-.35-5.88-1.15-8.14-3.17-.4-4.63-4.23-7.94-7.77-10.47zM57.72 86.88c2.73-2.67 4.76-6.57 8.78-7.44-1.61 3.33-4.54 5.88-5.58 9.51 1.41 1.08 2.82 2.16 4.24 3.22.61 1.91 1.29 3.79 1.74 5.76-3.17-1.38-3.99-5.21-6.95-6.94-2.94-3.03-7.08-3.68-11.12-3.83 2.72-1.8 5.99-1.37 8.89-.28zM111.79 79.71c1.87.88 3.94 1.67 5.34 3.25.5 1.39.67 2.88.97 4.33-1.36-3.12-4.15-5.09-6.31-7.58z"/><path d="M71.09 89.14c2.57-1.07 4.85-2.68 7.24-4.08-1.05 2.24-2.81 4.01-5.12 4.92-.42 1.52-.84 3.04-1.23 4.57 1.27.36 2.54.71 3.81 1.04.04-.97.1-2.9.14-3.87.38.01 1.16.04 1.55.06 1.28-.93 2.59-1.84 3.94-2.67-1.33 2.38-3.08 4.51-4.31 6.95 3.07 1.19 6.06 2.57 9.19 3.57.7.61 1.4 1.22 2.1 1.82 5.32-1.75 10.42 2.05 15.79.59.54.2 1.63.58 2.17.78-.03.35-.09 1.05-.13 1.4-3.62.14-7.31.32-10.8-.86-5.07-1.68-10.46 3.42-15.27.12 1.84-.48 3.71-.87 5.58-1.23-2.06-1.55-4.11-3.12-6.04-4.82-3.06-.98-7.23-.86-9.07-3.88-1.63.89-3.49.72-4.94-.47a9.642 9.642 0 015.19-.8c.05-.78.16-2.35.21-3.14z"/><path d="M85.7 97.82c1.69-2.84 4.13-5.31 7.64-5.4-2.15 2.26-4.38 4.86-7.64 5.4zM163.07 93.23c.43.01 1.3.04 1.73.05-.23 1.3-.46 2.6-.7 3.91 1.5.98 2.99 1.96 4.46 2.99-1.76.2-3.91.21-4.97-1.5-.34-1.8-.37-3.63-.52-5.45zM65.18 104.21c3.9.98 7.86 2.24 11.27 4.42.27.75.83 2.26 1.1 3.02-3.36-1.75-6.69-3.55-10.03-5.35-.29 2.97-2.71 3.77-5.32 3.95 1.64-1.69 3.73-3.36 2.98-6.04z"/></g></svg>