<svg width="218pt" height="125pt" viewBox="0 0 218 125" xmlns="http://www.w3.org/2000/svg"><g fill="#FFF"><path d="M0 0h218v125H0V0m134.17 35.75c-2.8 1.22-6.13-.13-8.77 1.56-4.52 2.68-8.29 6.42-12.49 9.52-2.12.4-4.36.22-6.43.86-2.66 1.58-3.78 4.89-6.74 6.08-3.6 2.56-8.23 3.4-11.38 6.58-1.96 2.08-4.97 2.42-7.37 3.78-4.37-1.25-9.3-.98-13.07 1.75-2.59 2.15-6.08-.44-8.9 1.01-5.99 2.45-9.16 8.44-12.56 13.54-1.12-.45-2.24-.87-3.37-1.26-1.65-2.87-2.29-6.21-4.15-8.97-3.66-.43-7.45-.98-11.1-.32-4.63 1.88-10.02 2.65-13.63 6.41-3.42 5.9-6.26 13.57-2.6 20.06 3.28 3.22 8.15 3.67 12.49 4.07 2.82-1.31 5.58-2.86 8.6-3.64 2.52.31 4.99.92 7.47 1.44.21.33.62.98.83 1.3 2.68 4.11 4.17 10.24 9.83 11.19 6.33.61 12.09 3.41 18.08 5.26 4.01.31 8.32-1.22 12.03 1.03 3.63 2.27 8.04 1.48 12.07 1.37 5.91-.11 11.61-1.84 17.44-2.58.77.23 1.54.5 2.29.81-.09-.47-.27-1.39-.36-1.85 3.68-.43 6.1 2.77 9.54 3.13 4.5 1.11 9.02-.62 13.57-.53 3.97-.14 9.73-2.62 7.95-7.56-1.84-.91-3.67-1.82-5.55-2.64-2.93-.81-5.36-2.67-8.04-4-2.97-.72-6.03-.99-9.07-1.17-2.63.58-5.03 2.19-7.82 1.99-3.8.28-7.23-2.12-11.03-1.67-4.53.62-8.86-2.58-13.34-.76-1.57-1.26-3.12-2.54-4.7-3.76 1.46-.19 2.92-.38 4.39-.55 2.3-2.03 4.43-4.25 6.72-6.28 2.12-1.01 4.49-1.43 6.51-2.66 3.46-2.64 5.95-6.83 10.67-7.26 2.22.54 4.42 1.51 6.75 1.26 4.22.16 7.85-2.32 11.94-2.91 2.22-1.59 3.93-3.71 5.38-6 4.07-1.27 8.48-2.55 11.05-6.25.71 4.31 1.38 8.9-.21 13.11-1.41 3.76-2.91 7.66-2.69 11.75-.08 1.99.07 4.43 2.03 5.52 2.98 1.52 6.49.39 9.48-.49-.36 2.84-.71 5.72-.42 8.59.51 2.47 2.74 4.97 5.48 4.54 4.98-.53 10-.43 14.97-1.03 2.8-1.28 5.88-.24 8.79-.47-.96-3.02-5.25-1.97-7.65-1.56-6.05.46-12.03 1.98-18.13 1.21-3.3-3.65-.98-8.75.3-12.79 1.21-5.8 1.42-12.09-.81-17.69-1.62-3.77-2.25-7.85-2.81-11.88.13-4.32.8-8.62 1.5-12.88 1.39-2.65 4.98-3.16 6.6-5.72-2.69.82-6.2.88-7.54 3.81-2.28 3.87-6.16 6.32-8.89 9.83l-.5-.56c.39 1.53 2.09 5.08-.26 5.42-.47-1.57-.05-3.4-.12-5.06l-.06.07c-.63-2.39-2-4.47-2.86-6.76-.57-4.62-5.11-6.94-7.71-10.37 5.4-2.07 10.46-5.34 16.36-5.77 4.54-.23 8.27-4.18 12.96-3.17 3.82 1.89 4.85 7.31 3.37 11.02-1.46-1.19-3.11-1.85-4.96-1.99 1.45 2.09 3.55 3.57 5.68 4.92l-.9-2.33c.75-.07 1.66-.27 2.1.55.47 6.37-.82 12.72-.11 19.08.85 7.84-.93 15.75.15 23.57 2.25 5.9 9.18 7.78 14.67 9.42 2.11.7 4.25 1.32 6.45 1.71.82 3.71-3.56 4.46-6.14 5.17-.03.67 0 1.34.02 2.01 2.75-1.12 5.48-2.3 8.05-3.8.49-2.33-.28-4.48-1.71-6.32-6.64.57-12.96-2.02-18.36-5.68 2.11-.57 4.13-1.39 6.06-2.4-.04-.97-.09-1.95-.13-2.92-.83-.92-1.64-1.85-2.44-2.78-1.63-.37-3.27-.72-4.91-1.04-.01-5.03.83-10.03.46-15.06.06-4.71-1.04-9.36-.74-14.07.26-5.29-1.62-10.31-2.19-15.51-.35-4.22-5.53-5.72-9.07-4.8-2.95-4.25-8.27-3.3-12.65-2.53-4.93.35-9 3.43-13.64 4.75m29.4 63c1.04.92 2.4 1.37 3.61 2.02.18-.45.53-1.33.7-1.78-1.27-.53-2.53-1.06-3.79-1.61.32-1.9.65-3.8.92-5.72-2.42 1.63-1.76 4.65-1.44 7.09z"/><path d="M147.98 33.14c3.51-.5 7.66-1.97 10.55.93-5.87 2.46-12.58 2.13-18.17 5.38-2.24.84-3.79 3.7-6.43 2.99-.96-1.32-1.56-2.86-1.92-4.44 5.66-.19 10.47-3.86 15.97-4.86zM116.74 46.65c4.27-2.12 7.48-5.87 11.8-7.98 1.42 1.3 2.71 2.71 3.96 4.18-3.79 2.6-7.98 4.51-12.44 5.61 2.98.6 6.72.98 9.1-1.33 1.68-1.46 3.8-2.22 5.84-3.02 2.45 6.1 7.31 11.11 8.49 17.72.35 1.52.65 3.05.96 4.59-.59.79-1.17 1.58-1.75 2.37-2.8.82-5.6 1.73-8.29 2.87-1.81 1.17-2.59 3.49-4.5 4.56-2.1 1.17-4.31 2.33-6.76 2.52.07.15.19.46.25.62-.59.18-1.77.55-2.35.74l-3.11.32c-2.41-2.09-5.49-1.91-8.45-1.86-2.09-1.66-3.86-3.67-5.31-5.9.46-.26 1.38-.79 1.84-1.05-1.34-2.07-2.27-4.36-3.2-6.63-.33.78-.65 1.57-.94 2.37.68 2.13.47 4.38.37 6.58 1.25 1.54 5.18 2.96 2.61 5.15.53.46 1.6 1.37 2.13 1.82-4.07 3.47-8.57 6.42-13.48 8.55-4.3 1.5-6.46 5.88-10.39 7.97-4.34-1.85-8.73-3.65-13.36-4.63l2.21-.84c-.74-.57-1.49-1.13-2.23-1.69-1.17 1.07-2.33 2.15-3.5 3.23-2.18-2.08-4.24-4.27-6.46-6.3-3.32-1.69-7.78-2.53-10.98-.12 2.41.31 4.82.59 7.22.92 2.28 1.78 4.69 3.41 6.7 5.52 1.29 1.54 1.92 3.79 4.13 4.34-.2-.78-.6-2.33-.81-3.1 4.58-.49 8.72 1.65 13.16 2.23 2.13 1.89 4.4 3.62 6.69 5.32-1.82.29-3.63.59-5.44.95 4.2 3.82 9.84-1.67 14.6 0 4.2 1.56 8.73.46 12.97 1.68 6.28 2.15 12.5-2.1 18.87-.67 3.57-.41 5.44 3 8.5 4.04 2.83 1.09 6 1.94 7.86 4.54-1.04.79-2.07 1.59-3.11 2.39-1.22.13-2.43.26-3.65.41l.1.79c-4.22-.35-8.43.41-12.64.19-3.63-.07-6.09-3.9-9.78-3.55-9.39.54-18.58 3.31-28.02 3.18-3.28.08-5.7-2.61-8.87-2.97-3.36-.85-6.88.88-10.2-.23-6.24-2.61-13.15-3.47-19.44-5.68-2.74-4.37-4.4-9.45-7.91-13.37-.3.64-.91 1.91-1.21 2.54-2.58-.65-5.41-2.3-8.01-.77-5.07 2.53-11.34 2.35-16.5.29-2.94-5.01-1-11.31.75-16.45 3.43-5.03 9.78-6.05 15.36-6.87.17-.52.51-1.55.69-2.07 2.39.48 4.84.72 7.19 1.42.84 1.58 1.52 3.27 1.93 5.01-2.18 3.63-3.79 8.08-7.87 10.01l1.61.64c1.23-.62 2.45-1.24 3.68-1.84 1.16-2.83 1.98-5.77 2.63-8.74.23 1.02.68 3.05.91 4.07 1.82.86 4 .08 5.97.27-.02.36-.05 1.07-.07 1.42 1.23-1.42 2.45-2.85 3.59-4.34 3.92-2.99 5.53-8.29 10.35-10.25 1.78.23 3.54.54 5.33.72 2.82-.89 4.86-3.67 8.02-3.71 2.77-.12 6.62-.2 7.68 3.04-.88-.07-2.63-.21-3.51-.27.69.2 2.06.61 2.75.82.34 1.11.69 2.22 1.06 3.33.3-.16.92-.46 1.23-.62-.76-1.73-.87-3.6-.79-5.47 1.75-1.46 3.78-2.52 6.05-2.91 1.76-2.56 4.64-3.85 7.24-5.39.5 5.68 2.66 11.09 6.24 15.53.25-3.29-1.9-5.97-3.17-8.82-.78-2.58-.32-5.93-3.03-7.43 3.87.37 6.52-3.43 10.39-3.28.39-1.21.79-2.42 1.19-3.63.46-.22 1.37-.66 1.83-.88 2.84.17 6.45.69 7.5-2.72m-16.63 10.58c.09 2.89.41 5.77.91 8.62.48-.71.96-1.42 1.44-2.14-.23-2.17-.36-4.35-.48-6.53-.47.01-1.4.03-1.87.05M88.45 76c3.44-2.01 6.27-4.8 8.94-7.71-4.26.27-8.96 2.93-8.94 7.71m-17.26-6.19c3.14.8 4.71 3.42 5.81 6.21 3.99.22 7.36 2.27 10.28 4.84-.26-4.28-4.73-5.1-8.12-5.7-1.6-1.8-3.1-3.69-4.27-5.79-1.22.25-2.46.42-3.7.44m-4.29 5.73c-.3.93-.89 2.79-1.18 3.71h-2.33c-1.19 1.76-2.36 3.52-3.49 5.31.68.64 1.36 1.28 2.04 1.91 2.12-2.79 4.23-5.58 6.51-8.22-.51-.91-1.02-1.81-1.55-2.71m11.17 14.2c-2.47-.09-4.96-.15-7.41.22 2.97 2.52 6.89 1.12 10.38 1.07 1.28-1.11 2.52-2.26 3.71-3.46-2.71-1.3-4.05 2.66-6.68 2.17m-13.11 14.6c1.27 2.63-1.08 4.19-2.75 5.74 1.39-.2 2.78-.42 4.16-.64.33-1.11.65-2.21.97-3.32 3.34 1.88 6.74 3.62 10.1 5.45-.36-1.39-.61-3.22-2.24-3.71-3.32-1.39-6.62-3.13-10.24-3.52zM149.02 62.66c1.42-1.14 2.83-2.31 4.23-3.47-1.33 8.96 4.68 16.9 4.49 25.77-.14 3.09-.05 6.43-1.39 9.26-2.71 1.63-6.7 4.36-9.56 1.62-1.21-3.79.24-7.81 1.67-11.34 1.58-3.27 1.96-6.96 2.29-10.52-.43-3.79-1.23-7.53-1.73-11.32zM171.76 83.86c2.07 1.19 5.64 1.11 5.93 4.09-.72 2.39-3.28 2.15-5.26 2.24-.28-2.11-.48-4.22-.67-6.33z"/></g><g fill="#333"><path d="M134.17 35.75c4.64-1.32 8.71-4.4 13.64-4.75 4.38-.77 9.7-1.72 12.65 2.53 3.54-.92 8.72.58 9.07 4.8.57 5.2 2.45 10.22 2.19 15.51-.3 4.71.8 9.36.74 14.07.37 5.03-.47 10.03-.46 15.06 1.64.32 3.28.67 4.91 1.04.8.93 1.61 1.86 2.44 2.78.04.97.09 1.95.13 2.92-1.93 1.01-3.95 1.83-6.06 2.4 5.4 3.66 11.72 6.25 18.36 5.68 1.43 1.84 2.2 3.99 1.71 6.32-2.57 1.5-5.3 2.68-8.05 3.8-.02-.67-.05-1.34-.02-2.01 2.58-.71 6.96-1.46 6.14-5.17-2.2-.39-4.34-1.01-6.45-1.71-5.49-1.64-12.42-3.52-14.67-9.42-1.08-7.82.7-15.73-.15-23.57-.71-6.36.58-12.71.11-19.08-.44-.82-1.35-.62-2.1-.55l.9 2.33c-2.13-1.35-4.23-2.83-5.68-4.92 1.85.14 3.5.8 4.96 1.99 1.48-3.71.45-9.13-3.37-11.02-4.69-1.01-8.42 2.94-12.96 3.17-5.9.43-10.96 3.7-16.36 5.77 2.6 3.43 7.14 5.75 7.71 10.37.86 2.29 2.23 4.37 2.86 6.76l.06-.07c.07 1.66-.35 3.49.12 5.06 2.35-.34.65-3.89.26-5.42l.5.56c2.73-3.51 6.61-5.96 8.89-9.83 1.34-2.93 4.85-2.99 7.54-3.81-1.62 2.56-5.21 3.07-6.6 5.72-.7 4.26-1.37 8.56-1.5 12.88.56 4.03 1.19 8.11 2.81 11.88 2.23 5.6 2.02 11.89.81 17.69-1.28 4.04-3.6 9.14-.3 12.79 6.1.77 12.08-.75 18.13-1.21 2.4-.41 6.69-1.46 7.65 1.56-2.91.23-5.99-.81-8.79.47-4.97.6-9.99.5-14.97 1.03-2.74.43-4.97-2.07-5.48-4.54-.29-2.87.06-5.75.42-8.59-2.99.88-6.5 2.01-9.48.49-1.96-1.09-2.11-3.53-2.03-5.52-.22-4.09 1.28-7.99 2.69-11.75 1.59-4.21.92-8.8.21-13.11-2.57 3.7-6.98 4.98-11.05 6.25-1.45 2.29-3.16 4.41-5.38 6-4.09.59-7.72 3.07-11.94 2.91-2.33.25-4.53-.72-6.75-1.26-4.72.43-7.21 4.62-10.67 7.26-2.02 1.23-4.39 1.65-6.51 2.66-2.29 2.03-4.42 4.25-6.72 6.28-1.47.17-2.93.36-4.39.55 1.58 1.22 3.13 2.5 4.7 3.76 4.48-1.82 8.81 1.38 13.34.76 3.8-.45 7.23 1.95 11.03 1.67 2.79.2 5.19-1.41 7.82-1.99 3.04.18 6.1.45 9.07 1.17 2.68 1.33 5.11 3.19 8.04 4 1.88.82 3.71 1.73 5.55 2.64 1.78 4.94-3.98 7.42-7.95 7.56-4.55-.09-9.07 1.64-13.57.53-3.44-.36-5.86-3.56-9.54-3.13.09.46.27 1.38.36 1.85-.75-.31-1.52-.58-2.29-.81-5.83.74-11.53 2.47-17.44 2.58-4.03.11-8.44.9-12.07-1.37-3.71-2.25-8.02-.72-12.03-1.03-5.99-1.85-11.75-4.65-18.08-5.26-5.66-.95-7.15-7.08-9.83-11.19-.21-.32-.62-.97-.83-1.3-2.48-.52-4.95-1.13-7.47-1.44-3.02.78-5.78 2.33-8.6 3.64-4.34-.4-9.21-.85-12.49-4.07-3.66-6.49-.82-14.16 2.6-20.06 3.61-3.76 9-4.53 13.63-6.41 3.65-.66 7.44-.11 11.1.32 1.86 2.76 2.5 6.1 4.15 8.97 1.13.39 2.25.81 3.37 1.26 3.4-5.1 6.57-11.09 12.56-13.54 2.82-1.45 6.31 1.14 8.9-1.01 3.77-2.73 8.7-3 13.07-1.75 2.4-1.36 5.41-1.7 7.37-3.78 3.15-3.18 7.78-4.02 11.38-6.58 2.96-1.19 4.08-4.5 6.74-6.08 2.07-.64 4.31-.46 6.43-.86 4.2-3.1 7.97-6.84 12.49-9.52 2.64-1.69 5.97-.34 8.77-1.56m13.81-2.61c-5.5 1-10.31 4.67-15.97 4.86.36 1.58.96 3.12 1.92 4.44 2.64.71 4.19-2.15 6.43-2.99 5.59-3.25 12.3-2.92 18.17-5.38-2.89-2.9-7.04-1.43-10.55-.93m-31.24 13.51c-1.05 3.41-4.66 2.89-7.5 2.72-.46.22-1.37.66-1.83.88-.4 1.21-.8 2.42-1.19 3.63-3.87-.15-6.52 3.65-10.39 3.28 2.71 1.5 2.25 4.85 3.03 7.43 1.27 2.85 3.42 5.53 3.17 8.82a28.745 28.745 0 01-6.24-15.53c-2.6 1.54-5.48 2.83-7.24 5.39-2.27.39-4.3 1.45-6.05 2.91-.08 1.87.03 3.74.79 5.47-.31.16-.93.46-1.23.62-.37-1.11-.72-2.22-1.06-3.33-.69-.21-2.06-.62-2.75-.82.88.06 2.63.2 3.51.27-1.06-3.24-4.91-3.16-7.68-3.04-3.16.04-5.2 2.82-8.02 3.71-1.79-.18-3.55-.49-5.33-.72-4.82 1.96-6.43 7.26-10.35 10.25-1.14 1.49-2.36 2.92-3.59 4.34.02-.35.05-1.06.07-1.42-1.97-.19-4.15.59-5.97-.27-.23-1.02-.68-3.05-.91-4.07-.65 2.97-1.47 5.91-2.63 8.74-1.23.6-2.45 1.22-3.68 1.84l-1.61-.64c4.08-1.93 5.69-6.38 7.87-10.01-.41-1.74-1.09-3.43-1.93-5.01-2.35-.7-4.8-.94-7.19-1.42-.18.52-.52 1.55-.69 2.07-5.58.82-11.93 1.84-15.36 6.87-1.75 5.14-3.69 11.44-.75 16.45 5.16 2.06 11.43 2.24 16.5-.29 2.6-1.53 5.43.12 8.01.77.3-.63.91-1.9 1.21-2.54 3.51 3.92 5.17 9 7.91 13.37 6.29 2.21 13.2 3.07 19.44 5.68 3.32 1.11 6.84-.62 10.2.23 3.17.36 5.59 3.05 8.87 2.97 9.44.13 18.63-2.64 28.02-3.18 3.69-.35 6.15 3.48 9.78 3.55 4.21.22 8.42-.54 12.64-.19l-.1-.79c1.22-.15 2.43-.28 3.65-.41 1.04-.8 2.07-1.6 3.11-2.39-1.86-2.6-5.03-3.45-7.86-4.54-3.06-1.04-4.93-4.45-8.5-4.04-6.37-1.43-12.59 2.82-18.87.67-4.24-1.22-8.77-.12-12.97-1.68-4.76-1.67-10.4 3.82-14.6 0 1.81-.36 3.62-.66 5.44-.95-2.29-1.7-4.56-3.43-6.69-5.32-4.44-.58-8.58-2.72-13.16-2.23.21.77.61 2.32.81 3.1-2.21-.55-2.84-2.8-4.13-4.34-2.01-2.11-4.42-3.74-6.7-5.52-2.4-.33-4.81-.61-7.22-.92 3.2-2.41 7.66-1.57 10.98.12 2.22 2.03 4.28 4.22 6.46 6.3 1.17-1.08 2.33-2.16 3.5-3.23.74.56 1.49 1.12 2.23 1.69l-2.21.84c4.63.98 9.02 2.78 13.36 4.63 3.93-2.09 6.09-6.47 10.39-7.97 4.91-2.13 9.41-5.08 13.48-8.55-.53-.45-1.6-1.36-2.13-1.82 2.57-2.19-1.36-3.61-2.61-5.15.1-2.2.31-4.45-.37-6.58.29-.8.61-1.59.94-2.37.93 2.27 1.86 4.56 3.2 6.63-.46.26-1.38.79-1.84 1.05 1.45 2.23 3.22 4.24 5.31 5.9 2.96-.05 6.04-.23 8.45 1.86l3.11-.32c.58-.19 1.76-.56 2.35-.74-.06-.16-.18-.47-.25-.62 2.45-.19 4.66-1.35 6.76-2.52 1.91-1.07 2.69-3.39 4.5-4.56 2.69-1.14 5.49-2.05 8.29-2.87.58-.79 1.16-1.58 1.75-2.37-.31-1.54-.61-3.07-.96-4.59-1.18-6.61-6.04-11.62-8.49-17.72-2.04.8-4.16 1.56-5.84 3.02-2.38 2.31-6.12 1.93-9.1 1.33 4.46-1.1 8.65-3.01 12.44-5.61-1.25-1.47-2.54-2.88-3.96-4.18-4.32 2.11-7.53 5.86-11.8 7.98m32.28 16.01c.5 3.79 1.3 7.53 1.73 11.32-.33 3.56-.71 7.25-2.29 10.52-1.43 3.53-2.88 7.55-1.67 11.34 2.86 2.74 6.85.01 9.56-1.62 1.34-2.83 1.25-6.17 1.39-9.26.19-8.87-5.82-16.81-4.49-25.77-1.4 1.16-2.81 2.33-4.23 3.47m22.74 21.2c.19 2.11.39 4.22.67 6.33 1.98-.09 4.54.15 5.26-2.24-.29-2.98-3.86-2.9-5.93-4.09z"/><path d="M100.11 57.23c.47-.02 1.4-.04 1.87-.05.12 2.18.25 4.36.48 6.53-.48.72-.96 1.43-1.44 2.14-.5-2.85-.82-5.73-.91-8.62zM88.45 76c-.02-4.78 4.68-7.44 8.94-7.71-2.67 2.91-5.5 5.7-8.94 7.71zM71.19 69.81c1.24-.02 2.48-.19 3.7-.44 1.17 2.1 2.67 3.99 4.27 5.79 3.39.6 7.86 1.42 8.12 5.7-2.92-2.57-6.29-4.62-10.28-4.84-1.1-2.79-2.67-5.41-5.81-6.21zM66.9 75.54c.53.9 1.04 1.8 1.55 2.71-2.28 2.64-4.39 5.43-6.51 8.22-.68-.63-1.36-1.27-2.04-1.91 1.13-1.79 2.3-3.55 3.49-5.31h2.33c.29-.92.88-2.78 1.18-3.71zM78.07 89.74c2.63.49 3.97-3.47 6.68-2.17-1.19 1.2-2.43 2.35-3.71 3.46-3.49.05-7.41 1.45-10.38-1.07 2.45-.37 4.94-.31 7.41-.22zM163.57 98.75c-.32-2.44-.98-5.46 1.44-7.09-.27 1.92-.6 3.82-.92 5.72 1.26.55 2.52 1.08 3.79 1.61-.17.45-.52 1.33-.7 1.78-1.21-.65-2.57-1.1-3.61-2.02zM64.96 104.34c3.62.39 6.92 2.13 10.24 3.52 1.63.49 1.88 2.32 2.24 3.71-3.36-1.83-6.76-3.57-10.1-5.45-.32 1.11-.64 2.21-.97 3.32-1.38.22-2.77.44-4.16.64 1.67-1.55 4.02-3.11 2.75-5.74z"/></g></svg>