<svg width="184pt" height="275pt" viewBox="0 0 184 275" xmlns="http://www.w3.org/2000/svg"><g fill="#FFF"><path d="M0 0h184v275H0V0m87.8 85.9c-2.58 3.93-1.27 8.8-.79 13.12.05 2.1 1.95 3.39 2.81 5.15.24 2.05-.15 4.1-.09 6.15 1.44-1.29.94-3.37 1.47-5.05l1-.16c2.09 6.42 8.71 10.21 15.3 9.67.46 2.07.52 4.21.88 6.3-3.34 3.07-7.32-.64-11.13-.26l.6-2.44c-1.18-2.48-2.91-4.54-4.88-6.42 1.39 2.9 3.01 5.72 3.83 8.86-2.65.74-5.3 1.47-8.03 1.85 2.14 1.88 4.82.47 7.29.24 3.05-.68 5.98.82 8.97 1.17 2.07.18 2.63-1.97 3.68-3.27 3.43-1.66 7.23-2.44 10.93-1.24-.12-.44-.36-1.33-.48-1.78-3.23-.95-6.54-.68-9.52.97-.48-1.29-.63-2.69-.85-4.03 3.15 1.06 6.47 1.83 9.75.79-2.63-1.39-5.7-1.32-8.56-1.89 1.98-4.28 2.42-9.03 3.02-13.66.39-3.81-1.42-7.37-1.84-11.11-.02-3.89-3.29-7.33-7.11-7.82-5.65-1.5-12.96-.48-16.25 4.86m-8.71 34.15c-4.08 1.99-8.4 3.99-11.37 7.55-2.5 3.67-2 8.19-1.83 12.38-1.25 5.25-3.06 10.48-2.98 15.97-.17 3.92 2.7 6.99 3.7 10.61.84 2.41.04 4.93-.33 7.34-.99 6.14-.75 12.51.99 18.5-2.06 1.12-4.3 2.17-5.51 4.31-4.12 6.61-5.13 15.33-2.02 22.54.86 1.57 1.64 3.68 3.67 4.01-.82.46-1.62.96-2.41 1.47 1.69 1.45 3.29 3.06 5.28 4.12 3.4 2.09 7.69 1.71 11.15 3.7 3.65 1.72 6.82 4.25 9.54 7.21-.31-2.79 2.12-7.59-1.96-8.45.37 1.46.66 2.93.84 4.43-4.13-3.14-8.57-6.6-13.97-6.89-3.04-.16-5.6-1.89-7.68-3.98 2.15.15 5.23 1.11 6.25-1.59-2.61-.16-5.79.29-7.55-2.13-4.38-5.22-4.01-12.94-2.08-19.1 1.04-3.88 4.32-6.31 7.11-8.92 1.18 5.29-.89 10.86 1.18 15.96 1.57 3.92-.17 9.04 3.81 11.81 2.48.51 4.97.98 7.44 1.54-.85-3.89-5.91-2.3-8.08-4.79-.37-3.22-.59-6.48-1.68-9.55-1.28-3.62-.08-7.5-.75-11.22-.92-5.3-2.91-10.46-2.75-15.91-.12-5.75 1.7-11.27 2.53-16.89-.65.53-1.29 1.07-1.92 1.63-.82-2.92-2.03-5.72-2.71-8.68-.45-4.69.96-9.29 1.2-13.95.94.69 1.75 1.51 2.43 2.45-.19-3.84-1.26-7.59-1.29-11.43.43-5.71 5.77-9.25 10.6-11.24 2.85-1.01 3.77-4.28 6.08-6.02 1.83-1.79 4.78-2.88 5.09-5.75-4.02 2.17-7.33 5.29-10.02 8.96m39.66-5.81c.84 1.22 2.24 1.73 3.57 2.23 5.82 1.49 8.85 7.8 8.37 13.45-.5 3.65 1.68 6.77 2.61 10.15.92 2.58.02 5.54 1.37 8 1.54 3.38 4.94 5.53 6.23 9.07 1.3 3.48 1.78 7.21 3.15 10.68 1.33 3.16 1.59 7.03 4.43 9.33-.22-4.39-2.02-8.42-3.11-12.62-.82-3.02-1.43-6.14-2.84-8.96-1.27-2.89-4.06-4.66-5.78-7.23-.98-1.78-1.02-3.88-1.44-5.83-.44-3.35-2.15-6.33-3.08-9.54-.27-4.09.27-8.48-2.1-12.09-1.82-4.46-6.89-6.38-11.38-6.64m-36.23 14.3c-.51 1.19-1.19 2.5-.5 3.79.99-1.21 1.96-2.45 2.69-3.84-.55.01-1.64.03-2.19.05m25.61.45c.14 3.91 2.73 7.78.41 11.53-2.45 1.37-5.6 1.26-7.58 3.46-2.4 2.44-6.93 2.97-9.44.41a39.807 39.807 0 00-9.16-6.38c.18.86.36 1.72.55 2.58 4.42 1.33 6.71 5.97 11.12 7.3 2.67.49 5.62-.25 7.57-2.19 2.42-2.44 6.17-2.5 8.75-4.74l-.96-1.21c1.03.07 2.06.15 3.09.24 2.78 2.64 7.88 1.75 10.19-1.05-3.05.05-7.38 2.64-9.42-.84-.5.12-1.5.35-2 .47.7-3.54-1-6.88-3.12-9.58m14.92 11.18c-.59 5.29 3.44 10.25 1.56 15.54-1.21 2.28-2.44 4.55-3.5 6.91-.87-.07-2.63-.22-3.5-.29.01-.8.03-2.41.05-3.21-.68-1.05-1.15-2.26-2.12-3.09.26 2.56.45 5.32-1.02 7.6-2.81.59-5.9-.16-8.32 1.77-1.4-.4-2.8-.79-4.17-1.25 1.03 1.26 2.08 2.87 3.89 2.95 3.67-1.46 7.93-.94 11.08-3.62.91.39 1.84.78 2.77 1.16.34-.35 1.03-1.04 1.37-1.38l.76.15c-.32 4.15.78 8.23.67 12.36-3.52 2.22-7.73 2.6-11.65 3.71-.56-.8-1.11-1.61-1.76-2.33-2.17-1.95-3.94-4.32-6.24-6.11.22 3.28 2.79 6.53 6.02 7.22-1.26.37-2.41 1.52-3.81.88-4.07-1-8.36-.41-12.36-1.73-.38.66-.8 1.28-1.26 1.88 4.42 1.35 9.06 1.27 13.58 2.03 4.31.87 8.65-.35 12.85-1.27 2.78-.52 5.24-2.05 7.29-3.94.31 1.54.73 3.05 1.25 4.53-1.58 1.42-3.27 2.75-4.53 4.48 1.55-.29 2.87-1.1 4.04-2.13 3.32-2.93 7.92-3.27 12.08-4.07-1.68 2-3.52 3.98-4.26 6.56-1.36 3.97-3.64 7.6-4.63 11.7-.96 3.2.92 6.42 3.05 8.68 2 .54 4.11.3 6.15.37-2.57 2.4-5.83-.14-8.61-.75-4.84-.78-10.21-2.35-14.47 1-.67-.44-1.34-.89-2-1.35 4.68-3.36 8.59-7.6 12.98-11.3-3.36.7-5.51 3.46-8.12 5.41-2.65 1.97-4.75 4.55-6.79 7.13.72.51 1.54.9 2.2 1.5-2.47 2.82-2.84 6.58-2.83 10.16-2.96 2.29-6.49 5.64-10.49 4.71 1.52-7.07 2.36-15.36-2.42-21.46-2.21-2.19-6.12-3.95-9-2.02l-.63-.55c.45-4.55-.32-9.12.02-13.65 1.27-2.35 2.72-4.62 3.7-7.12-2.54 1.03-4.24 3.35-5.17 5.84-1.96 5.23.97 10.84-1 16.11l1.62-.04c-.66.91-1.97 2.73-2.62 3.64-1.3-1.66-2.83-3.25-2.86-5.5-1.56-5.12 1.98-9.83 1.49-14.94.25-4.51-1.16-8.81-2.33-13.09.55-3.54 2.18-6.87 2.28-10.51 2.1 2.15 3.75 4.73 4.49 7.67.48 3.76-.64 7.96 1.72 11.29.87-.4 1.75-.78 2.62-1.17-3.64-1.71-2.47-5.97-2.94-9.11.17-3.06-1.44-5.71-2.66-8.38 2.36-1.49 5.27-.5 7.87-.44-.97-.95-1.78-2.04-2.51-3.18-.48.42-1.44 1.27-1.92 1.7-.92-.32-2.75-.94-3.66-1.26l-.16 2.03c-.8-.37-2.41-1.11-3.21-1.48.07-3.38.85-6.84.07-10.18-.44-1.3-1.04-3.25-2.81-2.74-.9 1.96 1.74 3.7 1.38 5.79-.39 3.34-.7 6.67-.4 10.03.67 5.19-3.14 9.32-4.02 14.21.86-1.04 1.89-1.9 2.81-2.87 1.59 5.66 2.49 11.8.8 17.54-.71 2.43-.8 5.5-3.38 6.78-.44 2.66.17 5.25 1.81 7.4-.18-2.46-.23-4.95-.7-7.48l1.43.32c-.15 3.45 1.63 6.44 3.23 9.34-2.64 5.19-3.02 11.21-2.08 16.88.82 4.57 3.84 9.14 8.6 10.23.04.44.11 1.3.15 1.74.1-.44.31-1.32.42-1.76 4.46-.68 7.29-4.42 9.14-8.22.45.24 1.36.7 1.81.94 2.68-.44 5.12-1.62 7.43-3-1.04 4.95-3.07 9.77-2.77 14.92.19 6.15-1.28 12.33-4.21 17.74-2.7 2.66-6.6 4.86-10.52 4.09-8.69-3.59-15.76-10.16-21.79-17.23-3.07-4.15-8.56-6.68-13.54-4.47 1.46.32 2.94.59 4.42.82.77 2.89 1.38 5.84 2.45 8.64.79-2.69-.15-5.35-.68-8 3.72 2.31 6.08 6.11 9.21 9.08 3.11 3.72 7.38 6.09 11.23 8.94 2.92 2.17 6.62 2.55 9.83 4.09 5.48.49 9.82-3.43 12.6-7.7 3.85-7.38 1.04-16.02 3.54-23.73.85-2.69 1.33-5.46 1.35-8.28 1.25-1.43 2.63-2.78 3.6-4.42-.2-3.09.04-6.15 1.77-8.81 1.58-.63 3.21-1.13 4.81-1.68 5.1.59 10.09 1.71 15.02 3.07 5.01.58 7.56-4.29 11.04-6.84-.45 4.48.43 9.03 2.98 12.79-1.29 6.29-.34 12.77-1.57 19.05-.53 4.18-4.07 6.86-5.87 10.45-1.88 3.17-2.75 6.77-3.63 10.31 1.85 4.73 7.89 4.16 12.07 4.33 3.44-.01 5.31 3.29 7.96 4.91 3.54 2.5 8.1 1.8 12.05 3.17 2.23.83 4.35-.94 5.57-2.63.41.16 1.24.47 1.66.63.04-1.49.4-3.02-.12-4.47-.72-3.89-6-3.22-7.62-6.47-2.58-4.31-6.91-7.58-8.17-12.61-.21-6.39 3.48-11.84 5.96-17.45 2.46-4.91 1.19-10.64 3.18-15.69 1.41-3.44 2.46-7.11 1.84-10.86 2.77-5 2.03-11.99-2.51-15.72-1.35-1.15-3.27-.93-4.86-1.55-3.5-1.25-6.89-3.47-10.78-2.98-2.2-.26-4.45.65-6.59-.01-3.59-2.27-7.9.18-11.75.34-4.58-3.68-6.28-9.36-9.53-14.01 1.15 5.22 3.15 10.41 7.08 14.18-1.53.09-2.96.72-4.34 1.33-1.15-2.31-2.83-4.24-5.08-5.53-.19-3.56-.29-7.14-.14-10.7.28-3.56 2.77-6.5 3.14-10.04-.87-5.23-2.77-10.43-1.43-15.77-1.47.18-2.04 1.65-2.47 2.87m7.13.4c-.42 4.24 2.22 7.89 2.59 12-.2 3.03-.91 6.04-.52 9.1 1.19-2.75 2.11-5.75 1.92-8.77-.75-4.27-2.38-8.32-3.99-12.33m-55.65 3.13c-.17 1.18-.36 2.37-.55 3.56 1.95-1.31 3.26-3.28 4.94-4.88-1.5.28-3.18.26-4.39 1.32m40.25 2.02c-.69.04-2.08.13-2.77.17.88.32 1.78.63 2.68.91-.04 1.6.32 3.24-.12 4.81-1.29.53-2.71.55-4.04.89-1.18 1.25-2.64 2.11-4.22 2.72-.77.62-1.56 1.2-2.37 1.75-2.12.24-3.61-1.67-5.4-2.43.29 2.58 2.51 3.7 4.83 4.02.27.24.81.73 1.09.97.71-.92 1.37-1.89 2-2.87 2.57-.83 4.75-2.57 7.48-2.92l1.59-1.23c2.85.02 5.64.88 8.46 1.31-1.14-3.03-4.81-2.97-7.51-3-.6-1.35-1.13-2.74-1.56-4.16.55-.43 1.64-1.3 2.19-1.74 1.28.32 2.57.63 3.85.93-1.01-.89-1.98-1.82-3.08-2.59-1.65-.59-2.24 1.59-3.1 2.46m-8.9 2.12c-1.08 1.96-3.58 2.89-3.95 5.24 1.64-.96 3.23-2.01 4.81-3.09.81-2.14 2.47-3.69 4.2-5.12-2.35-1.65-4.04 1.13-5.06 2.97m-19.75 2.95c.15.65.44 1.96.59 2.61 2.48 1.79 5.51 1.87 8.34.84-.39-.7-.78-1.41-1.17-2.11-.99.37-1.98.74-2.96 1.11l-2.93-.6c.03-.54.11-1.64.15-2.19.58-.39 1.75-1.18 2.34-1.58-1.81-.32-3 1.08-4.36 1.92m-19.91 1.63c.27 2.94.69 5.91 1.9 8.63 1.01-3.07 1.47-6.88-1.9-8.63m30.46 8.95c.74 2.28 3.29 1.92 5.16 1.84.32-.59.95-1.77 1.27-2.36-2.15.17-4.29.33-6.43.52m-5.99 1.08c.2 3.47 3.7 4.34 6.28 5.59.33-.46 1-1.39 1.33-1.86-2.52-1.29-5.1-2.43-7.61-3.73m15.11 8.19c.51-1.2-.61-2.83-1.89-2.91-2.03.75.37 3.9 1.89 2.91m9.59 2.85c.8-1.38 1.55-2.77 2.28-4.18-1.63.6-4.36 2.42-2.28 4.18m-15.82 8.68c-1.73 2.58-3.27 5.58-6.38 6.68.06.21.17.62.23.83 3.86-.79 6.72-3.36 8.17-6.99-.5-.13-1.51-.39-2.02-.52m17.42 6.67c-5.82 1.23-12.2 1.16-17.22 4.77 6.54-.84 13.11-1.88 19.55-3.44-5.21 3.1-10.97 5.34-15.64 9.26 6.14-1.55 11.12-5.65 17-7.82.25-.38.76-1.12 1.02-1.49 1.22-.57 2.49-1.01 3.8-1.33-2.68-1.55-5.69-.41-8.51.05m2.06 13.94c2.64-.48 5.05-1.69 7.02-3.52-2.64.46-4.94 1.88-7.02 3.52m-46.54-2.68c-.64 1.02-.85 3.11.46 3.69 2.04-.25 1.69-4.98-.46-3.69m-22.25 18.16c-3.17 3.84-2.23 9.15-2.29 13.76.3 3.78-.93 7.42-1.24 11.15-.22 2.78 1.05 5.31 2.17 7.76 4.31 1.49 8.59 3.59 13.28 3.27 2.21.28 3.98-1.38 5.02-3.15-.59-.6-1.78-1.8-2.37-2.4-.35.65-1.03 1.94-1.37 2.59-4.77 1.06-9.24-1.25-13.87-1.9-.4-2.12-1.24-4.17-1.45-6.3.64-3.68 1.99-7.29 1.69-11.07.08-3.45-.45-7.07.71-10.39 2.28-2.13 5.81-4.02 8.55-1.4-1.14-1.01-.82-4.7-3.15-4.01-2.02.18-4.08.79-5.68 2.09m39.59 16.48c-.12 4.46.26 8.92.89 13.34 2.36-4.07.69-9.24-.89-13.34m-18.97 2.4c2.77 4.73 7 10.99 13.3 9.96.07-2.57-2.8-2.8-4.56-3.68-3.54-1.1-6.11-3.84-8.74-6.28m15.48 13.15c1.23-2.4 1.79-5.02 1.17-7.67-1.56 2.25-1.17 5.08-1.17 7.67z"/><path d="M90.65 85.68c3.74-3.87 9.52-3.47 14.45-3.39 1.96 1.89 4.51 3.74 4.76 6.7.67 4.65 2.45 9.29 1.3 14.02-.79 3.43-.38 8.12-4.19 9.8-2.75.19-5.28-1.59-7.85-2.42-2.9-.85-3.93-3.86-5.2-6.26-1.63-1.1-3.51-1.96-4.71-3.58-.01-1.74.35-3.51 1.15-5.06-.63.27-1.89.81-2.51 1.08-.08-3.76-.17-8.09 2.8-10.89zM141.27 179.3c2.21-.44 4.49-.21 6.72-.44-1.12.86-2.12 1.86-3.11 2.89 3.27-.91 6.47-2.32 9.92-2.35 3.25.2 6.12 1.89 9.24 2.65 5.34.53 9.05 6.83 7.25 11.81-1.16 4.01-.43 8.3-1.87 12.25-2.47 7.24-2.42 15.28-6.22 22.06-2.3 4.24-3.5 9.04-3.39 13.87 1.12 5.22 5.56 8.64 7.77 13.33 1.31 3 4.6 4.03 7.55 4.59.4 1.44.65 2.91.89 4.38-2.63-.68-5.18.81-7.77.25-2.76-.58-5.54-1.04-8.31-1.58-2.31-1.17-3.59-3.94-6.23-4.64-4.4-2.07-9.45-.73-13.92-2.5-.2-6.45 4.64-11.24 7.51-16.56 2.56-5.91 2.65-12.51 2.85-18.84.09-4.81 3.09-8.8 4.87-13.09.33-.21.98-.62 1.31-.82.01.63.02 1.88.03 2.51 1.34-3.36 3.95-5.89 6.78-8.04-4.22-1.19-8.66-.42-12.94-1.23-5.9 1.08-10.94 5.47-17.22 5.08-.85-1.9-2.24-3.63-2.42-5.76.64-4.29 3.03-8 4.5-12.01 1.15-3.19 3.32-6.03 6.21-7.81m5.97 8.05c.41 2.05 3.38.2 4.8.54l.68-1.96c-1.83.45-3.66.94-5.48 1.42m19.61-1.65c-.82 1.79-1.08 4.07-2.87 5.24-1.82 1.24-4.62 2.77-6.34.54-2.04-2.28-5.31-3.55-8.06-1.67l3.53.2c1.93 1.83 3.86 4.29 6.83 4.08 2.71.31 5.12-1.12 7.14-2.75-.12-1.79 1.6-4.37-.23-5.64m-29.92 6.09c5.57 1.74 10.53 5.42 16.35 6.2-1.44-1.19-3.09-2.08-4.78-2.86.35-.61 1.04-1.84 1.39-2.45-1.38.2-2.21 1-2.48 2.4-3.22-1.79-6.66-3.93-10.48-3.29m27.47 2.04c.04 2.41 2.67 3.83 4.82 3.26-1.5-1.24-3.08-2.39-4.82-3.26m-12.19 32.2c2.23-3.88 4.43-7.86 5.41-12.27-3.98 2.6-5.62 7.69-5.41 12.27m7-10.76c2.42 6.39-3.48 11.78-4.95 17.66 3.93-4.72 7.89-10.21 8.01-16.58-1.02-.38-2.04-.73-3.06-1.08zM83.45 208.51c1.43-4.5 5.16-7.59 9.41-9.32 2.85 1.85 5.67 4.17 6.43 7.67 1.78 6.71 1.04 14.57-3.37 20.15-2.09 2.44-6.13 4.47-8.94 1.95-5.97-4.82-5.78-13.79-3.53-20.45z"/><path d="M146.99 202.05c4-.41 8.03-1.36 11.94.14-.81 1.43-1.6 2.88-2.15 4.44-.46-.9-.93-1.79-1.38-2.69-1.66 3.3-4.38 5.93-5.86 9.33-1.72-3.5-2.21-7.38-2.55-11.22z"/></g><g fill="#333"><path d="M87.8 85.9c3.29-5.34 10.6-6.36 16.25-4.86 3.82.49 7.09 3.93 7.11 7.82.42 3.74 2.23 7.3 1.84 11.11-.6 4.63-1.04 9.38-3.02 13.66 2.86.57 5.93.5 8.56 1.89-3.28 1.04-6.6.27-9.75-.79.22 1.34.37 2.74.85 4.03 2.98-1.65 6.29-1.92 9.52-.97.12.45.36 1.34.48 1.78-3.7-1.2-7.5-.42-10.93 1.24-1.05 1.3-1.61 3.45-3.68 3.27-2.99-.35-5.92-1.85-8.97-1.17-2.47.23-5.15 1.64-7.29-.24 2.73-.38 5.38-1.11 8.03-1.85-.82-3.14-2.44-5.96-3.83-8.86 1.97 1.88 3.7 3.94 4.88 6.42l-.6 2.44c3.81-.38 7.79 3.33 11.13.26-.36-2.09-.42-4.23-.88-6.3-6.59.54-13.21-3.25-15.3-9.67l-1 .16c-.53 1.68-.03 3.76-1.47 5.05-.06-2.05.33-4.1.09-6.15-.86-1.76-2.76-3.05-2.81-5.15-.48-4.32-1.79-9.19.79-13.12m2.85-.22c-2.97 2.8-2.88 7.13-2.8 10.89.62-.27 1.88-.81 2.51-1.08-.8 1.55-1.16 3.32-1.15 5.06 1.2 1.62 3.08 2.48 4.71 3.58 1.27 2.4 2.3 5.41 5.2 6.26 2.57.83 5.1 2.61 7.85 2.42 3.81-1.68 3.4-6.37 4.19-9.8 1.15-4.73-.63-9.37-1.3-14.02-.25-2.96-2.8-4.81-4.76-6.7-4.93-.08-10.71-.48-14.45 3.39z"/><path d="M79.09 120.05c2.69-3.67 6-6.79 10.02-8.96-.31 2.87-3.26 3.96-5.09 5.75-2.31 1.74-3.23 5.01-6.08 6.02-4.83 1.99-10.17 5.53-10.6 11.24.03 3.84 1.1 7.59 1.29 11.43-.68-.94-1.49-1.76-2.43-2.45-.24 4.66-1.65 9.26-1.2 13.95.68 2.96 1.89 5.76 2.71 8.68.63-.56 1.27-1.1 1.92-1.63-.83 5.62-2.65 11.14-2.53 16.89-.16 5.45 1.83 10.61 2.75 15.91.67 3.72-.53 7.6.75 11.22 1.09 3.07 1.31 6.33 1.68 9.55 2.17 2.49 7.23.9 8.08 4.79-2.47-.56-4.96-1.03-7.44-1.54-3.98-2.77-2.24-7.89-3.81-11.81-2.07-5.1 0-10.67-1.18-15.96-2.79 2.61-6.07 5.04-7.11 8.92-1.93 6.16-2.3 13.88 2.08 19.1 1.76 2.42 4.94 1.97 7.55 2.13-1.02 2.7-4.1 1.74-6.25 1.59 2.08 2.09 4.64 3.82 7.68 3.98 5.4.29 9.84 3.75 13.97 6.89-.18-1.5-.47-2.97-.84-4.43 4.08.86 1.65 5.66 1.96 8.45-2.72-2.96-5.89-5.49-9.54-7.21-3.46-1.99-7.75-1.61-11.15-3.7-1.99-1.06-3.59-2.67-5.28-4.12.79-.51 1.59-1.01 2.41-1.47-2.03-.33-2.81-2.44-3.67-4.01-3.11-7.21-2.1-15.93 2.02-22.54 1.21-2.14 3.45-3.19 5.51-4.31-1.74-5.99-1.98-12.36-.99-18.5.37-2.41 1.17-4.93.33-7.34-1-3.62-3.87-6.69-3.7-10.61-.08-5.49 1.73-10.72 2.98-15.97-.17-4.19-.67-8.71 1.83-12.38 2.97-3.56 7.29-5.56 11.37-7.55zM118.75 114.24c4.49.26 9.56 2.18 11.38 6.64 2.37 3.61 1.83 8 2.1 12.09.93 3.21 2.64 6.19 3.08 9.54.42 1.95.46 4.05 1.44 5.83 1.72 2.57 4.51 4.34 5.78 7.23 1.41 2.82 2.02 5.94 2.84 8.96 1.09 4.2 2.89 8.23 3.11 12.62-2.84-2.3-3.1-6.17-4.43-9.33-1.37-3.47-1.85-7.2-3.15-10.68-1.29-3.54-4.69-5.69-6.23-9.07-1.35-2.46-.45-5.42-1.37-8-.93-3.38-3.11-6.5-2.61-10.15.48-5.65-2.55-11.96-8.37-13.45-1.33-.5-2.73-1.01-3.57-2.23z"/><path d="M82.52 128.54c.55-.02 1.64-.04 2.19-.05-.73 1.39-1.7 2.63-2.69 3.84-.69-1.29-.01-2.6.5-3.79zM108.13 128.99c2.12 2.7 3.82 6.04 3.12 9.58.5-.12 1.5-.35 2-.47 2.04 3.48 6.37.89 9.42.84-2.31 2.8-7.41 3.69-10.19 1.05-1.03-.09-2.06-.17-3.09-.24l.96 1.21c-2.58 2.24-6.33 2.3-8.75 4.74-1.95 1.94-4.9 2.68-7.57 2.19-4.41-1.33-6.7-5.97-11.12-7.3-.19-.86-.37-1.72-.55-2.58 3.35 1.69 6.41 3.83 9.16 6.38 2.51 2.56 7.04 2.03 9.44-.41 1.98-2.2 5.13-2.09 7.58-3.46 2.32-3.75-.27-7.62-.41-11.53z"/><path d="M123.05 140.17c.43-1.22 1-2.69 2.47-2.87-1.34 5.34.56 10.54 1.43 15.77-.37 3.54-2.86 6.48-3.14 10.04-.15 3.56-.05 7.14.14 10.7 2.25 1.29 3.93 3.22 5.08 5.53 1.38-.61 2.81-1.24 4.34-1.33-3.93-3.77-5.93-8.96-7.08-14.18 3.25 4.65 4.95 10.33 9.53 14.01 3.85-.16 8.16-2.61 11.75-.34 2.14.66 4.39-.25 6.59.01 3.89-.49 7.28 1.73 10.78 2.98 1.59.62 3.51.4 4.86 1.55 4.54 3.73 5.28 10.72 2.51 15.72.62 3.75-.43 7.42-1.84 10.86-1.99 5.05-.72 10.78-3.18 15.69-2.48 5.61-6.17 11.06-5.96 17.45 1.26 5.03 5.59 8.3 8.17 12.61 1.62 3.25 6.9 2.58 7.62 6.47.52 1.45.16 2.98.12 4.47-.42-.16-1.25-.47-1.66-.63-1.22 1.69-3.34 3.46-5.57 2.63-3.95-1.37-8.51-.67-12.05-3.17-2.65-1.62-4.52-4.92-7.96-4.91-4.18-.17-10.22.4-12.07-4.33.88-3.54 1.75-7.14 3.63-10.31 1.8-3.59 5.34-6.27 5.87-10.45 1.23-6.28.28-12.76 1.57-19.05-2.55-3.76-3.43-8.31-2.98-12.79-3.48 2.55-6.03 7.42-11.04 6.84-4.93-1.36-9.92-2.48-15.02-3.07-1.6.55-3.23 1.05-4.81 1.68-1.73 2.66-1.97 5.72-1.77 8.81-.97 1.64-2.35 2.99-3.6 4.42-.02 2.82-.5 5.59-1.35 8.28-2.5 7.71.31 16.35-3.54 23.73-2.78 4.27-7.12 8.19-12.6 7.7-3.21-1.54-6.91-1.92-9.83-4.09-3.85-2.85-8.12-5.22-11.23-8.94-3.13-2.97-5.49-6.77-9.21-9.08.53 2.65 1.47 5.31.68 8-1.07-2.8-1.68-5.75-2.45-8.64-1.48-.23-2.96-.5-4.42-.82 4.98-2.21 10.47.32 13.54 4.47 6.03 7.07 13.1 13.64 21.79 17.23 3.92.77 7.82-1.43 10.52-4.09 2.93-5.41 4.4-11.59 4.21-17.74-.3-5.15 1.73-9.97 2.77-14.92-2.31 1.38-4.75 2.56-7.43 3-.45-.24-1.36-.7-1.81-.94-1.85 3.8-4.68 7.54-9.14 8.22-.11.44-.32 1.32-.42 1.76-.04-.44-.11-1.3-.15-1.74-4.76-1.09-7.78-5.66-8.6-10.23-.94-5.67-.56-11.69 2.08-16.88-1.6-2.9-3.38-5.89-3.23-9.34l-1.43-.32c.47 2.53.52 5.02.7 7.48-1.64-2.15-2.25-4.74-1.81-7.4 2.58-1.28 2.67-4.35 3.38-6.78 1.69-5.74.79-11.88-.8-17.54-.92.97-1.95 1.83-2.81 2.87.88-4.89 4.69-9.02 4.02-14.21-.3-3.36.01-6.69.4-10.03.36-2.09-2.28-3.83-1.38-5.79 1.77-.51 2.37 1.44 2.81 2.74.78 3.34 0 6.8-.07 10.18.8.37 2.41 1.11 3.21 1.48l.16-2.03c.91.32 2.74.94 3.66 1.26.48-.43 1.44-1.28 1.92-1.7.73 1.14 1.54 2.23 2.51 3.18-2.6-.06-5.51-1.05-7.87.44 1.22 2.67 2.83 5.32 2.66 8.38.47 3.14-.7 7.4 2.94 9.11-.87.39-1.75.77-2.62 1.17-2.36-3.33-1.24-7.53-1.72-11.29-.74-2.94-2.39-5.52-4.49-7.67-.1 3.64-1.73 6.97-2.28 10.51 1.17 4.28 2.58 8.58 2.33 13.09.49 5.11-3.05 9.82-1.49 14.94.03 2.25 1.56 3.84 2.86 5.5.65-.91 1.96-2.73 2.62-3.64l-1.62.04c1.97-5.27-.96-10.88 1-16.11.93-2.49 2.63-4.81 5.17-5.84-.98 2.5-2.43 4.77-3.7 7.12-.34 4.53.43 9.1-.02 13.65l.63.55c2.88-1.93 6.79-.17 9 2.02 4.78 6.1 3.94 14.39 2.42 21.46 4 .93 7.53-2.42 10.49-4.71-.01-3.58.36-7.34 2.83-10.16-.66-.6-1.48-.99-2.2-1.5 2.04-2.58 4.14-5.16 6.79-7.13 2.61-1.95 4.76-4.71 8.12-5.41-4.39 3.7-8.3 7.94-12.98 11.3.66.46 1.33.91 2 1.35 4.26-3.35 9.63-1.78 14.47-1 2.78.61 6.04 3.15 8.61.75-2.04-.07-4.15.17-6.15-.37-2.13-2.26-4.01-5.48-3.05-8.68.99-4.1 3.27-7.73 4.63-11.7.74-2.58 2.58-4.56 4.26-6.56-4.16.8-8.76 1.14-12.08 4.07-1.17 1.03-2.49 1.84-4.04 2.13 1.26-1.73 2.95-3.06 4.53-4.48-.52-1.48-.94-2.99-1.25-4.53-2.05 1.89-4.51 3.42-7.29 3.94-4.2.92-8.54 2.14-12.85 1.27-4.52-.76-9.16-.68-13.58-2.03.46-.6.88-1.22 1.26-1.88 4 1.32 8.29.73 12.36 1.73 1.4.64 2.55-.51 3.81-.88-3.23-.69-5.8-3.94-6.02-7.22 2.3 1.79 4.07 4.16 6.24 6.11.65.72 1.2 1.53 1.76 2.33 3.92-1.11 8.13-1.49 11.65-3.71.11-4.13-.99-8.21-.67-12.36l-.76-.15c-.34.34-1.03 1.03-1.37 1.38-.93-.38-1.86-.77-2.77-1.16-3.15 2.68-7.41 2.16-11.08 3.62-1.81-.08-2.86-1.69-3.89-2.95 1.37.46 2.77.85 4.17 1.25 2.42-1.93 5.51-1.18 8.32-1.77 1.47-2.28 1.28-5.04 1.02-7.6.97.83 1.44 2.04 2.12 3.09-.02.8-.04 2.41-.05 3.21.87.07 2.63.22 3.5.29 1.06-2.36 2.29-4.63 3.5-6.91 1.88-5.29-2.15-10.25-1.56-15.54m18.22 39.13c-2.89 1.78-5.06 4.62-6.21 7.81-1.47 4.01-3.86 7.72-4.5 12.01.18 2.13 1.57 3.86 2.42 5.76 6.28.39 11.32-4 17.22-5.08 4.28.81 8.72.04 12.94 1.23-2.83 2.15-5.44 4.68-6.78 8.04-.01-.63-.02-1.88-.03-2.51-.33.2-.98.61-1.31.82-1.78 4.29-4.78 8.28-4.87 13.09-.2 6.33-.29 12.93-2.85 18.84-2.87 5.32-7.71 10.11-7.51 16.56 4.47 1.77 9.52.43 13.92 2.5 2.64.7 3.92 3.47 6.23 4.64 2.77.54 5.55 1 8.31 1.58 2.59.56 5.14-.93 7.77-.25-.24-1.47-.49-2.94-.89-4.38-2.95-.56-6.24-1.59-7.55-4.59-2.21-4.69-6.65-8.11-7.77-13.33-.11-4.83 1.09-9.63 3.39-13.87 3.8-6.78 3.75-14.82 6.22-22.06 1.44-3.95.71-8.24 1.87-12.25 1.8-4.98-1.91-11.28-7.25-11.81-3.12-.76-5.99-2.45-9.24-2.65-3.45.03-6.65 1.44-9.92 2.35.99-1.03 1.99-2.03 3.11-2.89-2.23.23-4.51 0-6.72.44m-57.82 29.21c-2.25 6.66-2.44 15.63 3.53 20.45 2.81 2.52 6.85.49 8.94-1.95 4.41-5.58 5.15-13.44 3.37-20.15-.76-3.5-3.58-5.82-6.43-7.67-4.25 1.73-7.98 4.82-9.41 9.32m63.54-6.46c.34 3.84.83 7.72 2.55 11.22 1.48-3.4 4.2-6.03 5.86-9.33.45.9.92 1.79 1.38 2.69.55-1.56 1.34-3.01 2.15-4.44-3.91-1.5-7.94-.55-11.94-.14z"/><path d="M130.18 140.57c1.61 4.01 3.24 8.06 3.99 12.33.19 3.02-.73 6.02-1.92 8.77-.39-3.06.32-6.07.52-9.1-.37-4.11-3.01-7.76-2.59-12zM74.53 143.7c1.21-1.06 2.89-1.04 4.39-1.32-1.68 1.6-2.99 3.57-4.94 4.88.19-1.19.38-2.38.55-3.56zM114.78 145.72c.86-.87 1.45-3.05 3.1-2.46 1.1.77 2.07 1.7 3.08 2.59-1.28-.3-2.57-.61-3.85-.93-.55.44-1.64 1.31-2.19 1.74.43 1.42.96 2.81 1.56 4.16 2.7.03 6.37-.03 7.51 3-2.82-.43-5.61-1.29-8.46-1.31l-1.59 1.23c-2.73.35-4.91 2.09-7.48 2.92-.63.98-1.29 1.95-2 2.87-.28-.24-.82-.73-1.09-.97-2.32-.32-4.54-1.44-4.83-4.02 1.79.76 3.28 2.67 5.4 2.43.81-.55 1.6-1.13 2.37-1.75 1.58-.61 3.04-1.47 4.22-2.72 1.33-.34 2.75-.36 4.04-.89.44-1.57.08-3.21.12-4.81-.9-.28-1.8-.59-2.68-.91.69-.04 2.08-.13 2.77-.17z"/><path d="M105.88 147.84c1.02-1.84 2.71-4.62 5.06-2.97-1.73 1.43-3.39 2.98-4.2 5.12-1.58 1.08-3.17 2.13-4.81 3.09.37-2.35 2.87-3.28 3.95-5.24zM86.13 150.79c1.36-.84 2.55-2.24 4.36-1.92-.59.4-1.76 1.19-2.34 1.58-.04.55-.12 1.65-.15 2.19l2.93.6c.98-.37 1.97-.74 2.96-1.11.39.7.78 1.41 1.17 2.11-2.83 1.03-5.86.95-8.34-.84-.15-.65-.44-1.96-.59-2.61zM66.22 152.42c3.37 1.75 2.91 5.56 1.9 8.63-1.21-2.72-1.63-5.69-1.9-8.63zM96.68 161.37c2.14-.19 4.28-.35 6.43-.52-.32.59-.95 1.77-1.27 2.36-1.87.08-4.42.44-5.16-1.84zM90.69 162.45c2.51 1.3 5.09 2.44 7.61 3.73-.33.47-1 1.4-1.33 1.86-2.58-1.25-6.08-2.12-6.28-5.59zM105.8 170.64c-1.52.99-3.92-2.16-1.89-2.91 1.28.08 2.4 1.71 1.89 2.91zM115.39 173.49c-2.08-1.76.65-3.58 2.28-4.18-.73 1.41-1.48 2.8-2.28 4.18zM99.57 182.17c.51.13 1.52.39 2.02.52-1.45 3.63-4.31 6.2-8.17 6.99-.06-.21-.17-.62-.23-.83 3.11-1.1 4.65-4.1 6.38-6.68zM147.24 187.35c1.82-.48 3.65-.97 5.48-1.42l-.68 1.96c-1.42-.34-4.39 1.51-4.8-.54zM166.85 185.7c1.83 1.27.11 3.85.23 5.64-2.02 1.63-4.43 3.06-7.14 2.75-2.97.21-4.9-2.25-6.83-4.08l-3.53-.2c2.75-1.88 6.02-.61 8.06 1.67 1.72 2.23 4.52.7 6.34-.54 1.79-1.17 2.05-3.45 2.87-5.24zM116.99 188.84c2.82-.46 5.83-1.6 8.51-.05-1.31.32-2.58.76-3.8 1.33-.26.37-.77 1.11-1.02 1.49-5.88 2.17-10.86 6.27-17 7.82 4.67-3.92 10.43-6.16 15.64-9.26-6.44 1.56-13.01 2.6-19.55 3.44 5.02-3.61 11.4-3.54 17.22-4.77zM136.93 191.79c3.82-.64 7.26 1.5 10.48 3.29.27-1.4 1.1-2.2 2.48-2.4-.35.61-1.04 1.84-1.39 2.45 1.69.78 3.34 1.67 4.78 2.86-5.82-.78-10.78-4.46-16.35-6.2zM164.4 193.83c1.74.87 3.32 2.02 4.82 3.26-2.15.57-4.78-.85-4.82-3.26zM119.05 202.78c2.08-1.64 4.38-3.06 7.02-3.52a13.923 13.923 0 01-7.02 3.52zM72.51 200.1c2.15-1.29 2.5 3.44.46 3.69-1.31-.58-1.1-2.67-.46-3.69zM152.21 226.03c-.21-4.58 1.43-9.67 5.41-12.27-.98 4.41-3.18 8.39-5.41 12.27zM159.21 215.27c1.02.35 2.04.7 3.06 1.08-.12 6.37-4.08 11.86-8.01 16.58 1.47-5.88 7.37-11.27 4.95-17.66zM50.26 218.26c1.6-1.3 3.66-1.91 5.68-2.09 2.33-.69 2.01 3 3.15 4.01-2.74-2.62-6.27-.73-8.55 1.4-1.16 3.32-.63 6.94-.71 10.39.3 3.78-1.05 7.39-1.69 11.07.21 2.13 1.05 4.18 1.45 6.3 4.63.65 9.1 2.96 13.87 1.9.34-.65 1.02-1.94 1.37-2.59.59.6 1.78 1.8 2.37 2.4-1.04 1.77-2.81 3.43-5.02 3.15-4.69.32-8.97-1.78-13.28-3.27-1.12-2.45-2.39-4.98-2.17-7.76.31-3.73 1.54-7.37 1.24-11.15.06-4.61-.88-9.92 2.29-13.76zM89.85 234.74c1.58 4.1 3.25 9.27.89 13.34-.63-4.42-1.01-8.88-.89-13.34zM70.88 237.14c2.63 2.44 5.2 5.18 8.74 6.28 1.76.88 4.63 1.11 4.56 3.68-6.3 1.03-10.53-5.23-13.3-9.96zM86.36 250.29c0-2.59-.39-5.42 1.17-7.67.62 2.65.06 5.27-1.17 7.67z"/></g></svg>