<svg width="288" height="400" viewBox="0 0 216 300" xmlns="http://www.w3.org/2000/svg"><g fill="#FFF"><path d="M0 0h216v300H0V0m147.79 34.07c.09 10.32-.02 20.63.07 30.95.02 2.22.01 4.49-.78 6.61-.21 3.06-.19 6.13-.17 9.2-3.94.04-8.63-.39-11.07 3.42-8.11-.08-16.94.45-24.12-3.99-2.49-1.43-5.98-.77-7.82-3.29-3.67-3.61-2.9-9.34-2.04-13.94-.04-3.98-.58-9.19-4.87-10.85-5.3-2.3-11.89-3.14-17.12-.26-4.13 2.36-4.33 7.77-4.81 11.97.71 5.09-.28 11.04 3.65 15.02 3.05-.03 5.86 1.02 8.39 2.69-1.77 1.12-3.5 2.33-5.43 3.16-2.62.36-5.3-.13-7.9.52.17.6.5 1.78.67 2.37-1.69 2.39-2.7 5.24-2.31 8.2.25.26.76.79 1.01 1.06-.56 2.33-2.09 4.55-1.78 7.1.58 3.43 2.48 6.48 3.21 9.87-1.74 4.69-1.38 9.66.55 14.23-1.08.59-2.18 1.16-3.29 1.69-1.53-.71-1.43-2.43-1.76-3.83-.38-3.35-3.09-5.69-4.38-8.68-2.36-5.48-1.69-11.59-1.75-17.39-1.71-4.59.23-9.8-2.83-13.91.81-1.32 1.62-2.63 2.41-3.96 3.17-.43 6.38-.51 9.56-.26 1.77.44 2.74 2.84 4.77 2.18.06-1.61-1.24-2.76-2-4.04-3.66-.43-7.36-.21-11.02.12-2.43.22-3.72 2.59-5.72 3.68-1.61.26-3.26.21-4.86.53-.19 2.2 3.61 1.22 5.02 2.04.29.81.58 1.62.86 2.44-1.95.12-3.9.27-5.85.46 2.29 1.36 4.95 1.57 7.55 1.33-.68 1.75-1.48 3.64-.67 5.51 1.45 4.9.5 10.03.88 15.03.38 3.85 2.29 7.31 4.15 10.62 1.73 2.9 1.91 6.37 3.31 9.41 1.49-.04 2.99-.07 4.48-.1.54-.59 1.61-1.77 2.14-2.36 2.83 3.52 2.65 8.12 3.35 12.33 2.88 4.37 8.33 5.08 13.13 5.41 6.74 1.36 13.84 1.05 20.31-1.37 1.41-.61 2.27-2 3.38-3 .15 3.96 4.95 5.05 5.28 8.87.62 4.26.95 8.62.84 12.91-1.89 6.39.67 12.81 1.51 19.16a57.26 57.26 0 01-13.74 4.77c-3.97.94-7.63-1.14-11.3-2.24.72 2.66 1.43 5.39 3.07 7.67.13-.93.4-2.8.53-3.73 6.7 1.28 13.4-.37 19.53-3.07.45 12.05-4.26 23.72-3 35.78.7 5.02 3.09 9.74 2.84 14.9.43 6.42-2.27 12.54-1.91 18.95.1 3.26-.25 6.57.34 9.8 2.42 1.02 1.71 4.31 2.74 6.27l1.59-2.4c-1.25-5.11-2.41-10.32-2.25-15.61-.13-5.43 2.48-10.51 1.97-15.98.5-5.86-1.96-11.31-2.87-16.99-1.05-12.05 3.69-23.63 2.9-35.69.47-.33 1.4-1 1.87-1.33-1.77-4.13-1.21-8.76-2.54-13-1.16-3.31 1.06-6.64.44-10.02-.72-4.22.09-8.66-1.38-12.74-1.44-2.64-4.7-4.05-5.1-7.32-1.31-6.43-1.18-13.46 1.96-19.39 2.62 6.08 8.01 10.21 13.52 13.53 3.2-.38 5.64-2.96 7.16-5.64 2.47-4.9 5.22-9.66 7.46-14.67.17 57.08.02 114.17.08 171.25-.25 1.58.41 2.82 1.88 3.45.43-6.47.17-12.97.24-19.46.16-51.23-.47-102.48.36-153.71.88.31 1.75.62 2.63.92.15 4.73.29 9.47.71 14.18.53 5.56-.95 11.06-.65 16.63.17 7.66.73 15.31.51 22.98-.13 11.32.44 22.66-.47 33.95-.07 28.01-.1 56.01.09 84.01.46.01 1.4.02 1.87.03-.22-23.35-.54-46.7-.26-70.06-.4-14.99.73-29.96.01-44.94.33-18.37-.59-36.72-.03-55.08-.37-2.3 2.38-2.32 3.82-3.07.17 12.05.15 24.11-.19 36.16.28 41.98-.37 83.96-.36 125.94.01 3.94-.17 7.9.42 11.81.99-1.37 1.9-2.92 1.79-4.67.34-55.72.13-111.44.43-167.16.82-4.86 1.08-9.97-1.33-14.48-.35 3.48-.33 6.99-.45 10.49-1.39.4-2.78.79-4.18 1.17.35-13.03.43-26.06.09-39.09-.75-2.78 2.35-3.09 4.18-3.88.15 8.94 0 17.88.06 26.82.32-.11.96-.33 1.29-.44.65 7.47 2.82 15.84 9.61 20.06 4.36-.63 9.46.68 12.97-2.74 5.27-5.15 7.73-12.6 8.69-19.76 4.38.5 8.84.32 13.14 1.36.9-1.42 1.73-2.88 2.56-4.35-1.16-1.07-1.58-3.7-3.63-3.18-1.08 1.42-1.89 3.05-2.2 4.83-7.35-.32-14.65-1.31-21.96-2.03.49-.87 1.02-1.71 1.6-2.52 6.2.68 12.41 1.38 18.65 1.63.67-.67 1.34-1.33 2.01-1.99-3.1-.07-6.18-.27-9.26-.42-.19-4.62-.79-9.24-2.27-13.64-1.44-4.02-3.3-8.68-7.57-10.38-4.16-.89-9.01-1.22-12.49 1.7-5.39 4.46-7.48 11.52-9.05 18.06-1.04-5.03 1.09-10.14-.17-15.19-.71-12.33-.02-24.72-.3-37.07.14-1.49-.57-2.78-1.45-3.91-.79 13.78-.06 27.6-.51 41.4-1.29.42-2.57.84-3.86 1.27-.3-13.99.01-27.99-.61-41.97-.86 9.76-1.03 19.56-.98 29.35-.04 4.48.29 9.02-.7 13.43-3.37-2.06-1.89-6.22-2.18-9.43-.2-11.9.41-23.85-.78-35.72-2.22 1.57-1.69 4.39-1.76 6.75m-106.1.91c.05 8.16-.04 16.33.07 24.49-4.59-2.92-11.33-3.05-15.39.9-5.04 4.76-7.08 11.69-8.46 18.27-4.23-.41-8.45-.83-12.68-1.19-.57 2.18-1.01 4.39-1.27 6.63 4.44.3 8.89.55 13.34.48-.09 5.63.14 11.46 2.42 16.71 1.3 3.07 3.22 6.19 6.38 7.61 5.36.93 11.38-.32 14.89-4.81.43 1.94.76 3.91.73 5.9-.06 46.69.03 93.38-.04 140.06.1 3.01-.55 6.36 1.64 8.85.51-7.64.12-15.29.25-22.94 0-28.95-.12-57.91.06-86.86.62-14.16.03-28.35.4-42.52.53.33 1.58 1 2.1 1.34.83 12.36-.32 24.8.36 37.18.93 8.43-1.01 16.86-.04 25.31.22 15.2.49 30.43-.35 45.62.3 15.21-.51 30.46.32 45.65.94-1.36 1.41-2.95 1.27-4.6-.07-13.36.05-26.72-.01-40.08-.23-8.32.64-16.63.16-24.96-.54-13 .39-26.03-.45-39.03.55-14.68.03-29.38.33-44.06-.24-1.84 2.06-1.96 3.17-2.7.22 7.26.07 14.53.11 21.79-.2 42.34.03 84.68-.45 127.01.17 1.95-.58 4.59 1.76 5.62.82-15.51.09-31.07.51-46.59-.21-34.34.13-68.69.05-103.04-.07-4.67 1.07-9.29.68-13.97-.42-8.7-.06-17.38-.11-26.08-.98-11.96-.4-23.98-.5-35.97-.47 0-1.42 0-1.89.01-.01 10.59.01 21.19-.05 31.79-.84.27-2.51.82-3.35 1.1-.21-11.13.33-22.3-.53-33.4-1.47 11.26-.19 22.71-.93 34.04-1.38-.76-2.59-1.76-2.23-3.5-.13-10-.1-20.01-.11-30.02l-2.16-.04m35.09 114.57c.08 2.32 1.07 4.51 1.73 6.73-.51 2.32-1.86 4.66-1.13 7.08.82 5.59-1.07 11.16-1.34 16.71 1.27 7.56 1.3 15.43 4.31 22.6.97 2.01-.19 4.14-.31 6.21-.73 4.02 1.49 7.67 3.35 11.05-.69 2.67-.25 5.39.01 8.09-.2 3.32-.67 6.64-.48 9.98-.17 7.04 3.76 13.67 2.02 20.77-3.31 2.81-5.95 6.26-8.65 9.63-2.77 3.58-7.1 5.77-9.24 9.85-.81 2.24 1.04 4.24 3.04 4.92 3.83 1.17 8.04 1.16 11.82-.22 3.07-1.4 5.34-4.7 8.97-4.74 3.74.01 7.15-1.49 10.51-2.96-1.43 1.94-3.51 3.17-5.27 4.75-1.56 1.89-2.72 4.09-4.31 5.97 2.84 6.32 10.84 4.53 16.34 4.14 6.89-2.28 11.53-8.25 17.2-12.46.12-2.32.38-4.71-.39-6.97-1.12 1.84-1.29 4.04-2.26 5.94-1.82 2.25-4.74 3.22-6.62 5.41-5.25 6.54-14.83 7.35-22.39 5.14 1.23-2.77 2.32-5.93 5.17-7.45 2.89-1.82 4.29-5.05 6.34-7.65 2.6-3.15 4.29-7.12 4.55-11.21l2.83-.15c.79-3.51 1.07-7.11.69-10.69-.49-6.74.75-14.14-2.88-20.21.2 4.07 1.06 8.06 1.46 12.1.21 5.72-.14 11.46.34 17.16-.45.09-1.35.25-1.81.33.68-6.01-1.3-11.7-2.71-17.43-.67-6.69.02-13.51-1.61-20.11-.99-3.57-1.1-7.28-1.03-10.96.98.09 2.94.28 3.92.38-.83-2.45-3.82-2.83-5.67-4.26-1.16-4.14-2.54-8.38-1.93-12.73-.44-.72-.88-1.42-1.34-2.11-.62 3.95-.36 7.95.22 11.89-2.84 4.88-1.05 11.01-3.32 16.18-1.78-2.11-2.79 1.28-3.53 2.53 1.31.09 2.27-1.04 3.39-1.54 1.21 4.95 2.74 9.82 3.55 14.86-2.41 8.64-4.24 17.92-2.59 26.86l-1 .4c-1 3.53-4.12 5.87-5.08 9.44.48-.2 1.45-.6 1.94-.8.93-1.5 2.02-2.87 3.13-4.24.48-.88.98-1.75 1.5-2.6.18.04.55.1.73.13.67 2.53 2 5.48.66 8-3.38 2.09-7.52 2.07-11.22 3.2-2.6 1.11-4.71 3.08-7.29 4.22-2.53 1.15-5.37.73-8.06.81-1.67.38-2.67-1.11-3.8-2.01.58-.99 1.16-1.98 1.75-2.96 6.13-5.05 10.05-12.2 16.05-17.42 1.01-9.15-3.32-17.84-2.16-26.99.63-4.29-.21-8.59.12-12.88-1.34-1.89-2.8-3.9-3.02-6.27-.64-4.3 1.18-8.71-.31-12.91-1.4-4.6-2.43-9.32-2.73-14.13 4.39 2.02 9.31 2.37 14.07 2.26 2.19 0 3.91-1.31 5.28-2.87-6.58 1.2-13.59 1.34-19.72-1.74-.42-2.56-.76-5.21-.01-7.75 1.36-5.42.54-11.13 1.69-16.54 1.76-3.12-.89-6.09-1.67-9.06.81-1.63 1.57-3.28 2.28-4.95-.3-.65-.91-1.94-1.21-2.59-.91 2.3-2.24 4.44-2.87 6.84m39.16 51.52c.66-3.84.42-7.78-.32-11.59-1.2 3.77-.97 7.87.32 11.59m-11.88-10.4c-.46 4.14.92 8.8 4.42 11.3-1.39-3.8-2.69-7.64-4.42-11.3m-11.44 3.49c.73 3.28.94 6.66.51 10-3.55 1.13-6.77-.75-9.37-2.99.72 2.16 1.58 4.28 2.98 6.11 2.08-.17 4.17-.4 6.18-1.02 1.95-3.58 3.08-8.11.7-11.76-.25-.09-.75-.26-1-.34m21.55 16.42c-.53 1.6.04 2.12 1.7 1.55.52-1.6-.05-2.12-1.7-1.55m-21.06 2.12c-1.57 1.19-2.98 2.58-4.27 4.08.41 1.94.75 3.89 1.19 5.84.06-1.34-.02-2.69-.07-4.02 1.19-1.89 2.51-3.73 3.15-5.9m18.59 6.03c.94 1.72 1.8 3.49 3.01 5.04-.35-2.85-.54-5.72 0-8.57-1.06 1.13-2.04 2.32-3.01 3.53m-17.78 30.7c-.03-4.56-2-8.88-1.85-13.44.35-3.8 1.24-7.53 1.46-11.34-2.92 7.96-3.13 16.98.39 24.78m20.52-21.72c1.25 7.32 2.37 14.67 3 22.08 1.14-3.19.71-6.61.43-9.9-.68-4.16-.96-8.61-3.43-12.18m-32.92 46.73c3.38-2.64 5.55-6.47 7.93-9.96-3.49 2.49-6.44 5.9-7.93 9.96m32.45-8.06c-1.9 4.83-3.8 9.74-4.49 14.92 1.89-2.69 2.38-6 3.64-8.98.71-1.89 1.71-3.92.85-5.94m6.38.75c-1.17 2.38-2.48 4.7-3.68 7.08 2.22-1.5 6.37-4.18 3.68-7.08z"/><path d="M78.38 57.12c.37-4.1 4.84-6.27 8.58-5.79 4.09.3 9.61-.41 11.9 3.88 2.78 5.64.49 12.06.64 18.04.93 2.13 2.54 4.23 3.26 6.6 3.39.71 6.78 1.55 9.92 3.08-2.17 1.89-4.54 3.66-5.85 6.32 2.02-1.27 3.92-2.71 5.96-3.94l-.12-1.76c2.33 1.78 5.39 1.45 7.93 2.66 4.52 3.33 6.66 9.2 6.55 14.68-4.07-2.41-8.69-3.83-13.43-3.85 4.7 2.58 9.9 4.07 14.69 6.52 2.87.85 3.49 4.09 4.51 6.49-2.51 2.58-4.84 5.39-6.29 8.71 2.97-2.75 5.27-6.17 8.54-8.61 3.53-2.61 5.2-6.91 5.64-11.15.99-3.48-3.67-3.9-5.7-5.52.04-2.76-.24-5.91 2.64-7.39-.15-.51-.45-1.55-.6-2.06.92-.67 1.84-1.34 2.76-2 2.29.11 4.59.1 6.88.1.21 8.63.08 17.27.13 25.9.16 4.85-1.77 9.49-4.31 13.53-2.69 4.25-3.81 9.69-8.3 12.57-2.73-2.13-5.48-4.23-8.18-6.41-2.86-2.38-3.71-6.19-5.66-9.22-1.33-2.04-2.65-4.09-3.71-6.28 2.99 2.33 7.05 4.88 10.7 2.31-5.92-.61-10.58-4.72-14.63-8.75 1.45 4.79 2.67 9.8 6.02 13.69-1.66 3.26-2.81 6.77-3.47 10.37-.57 3.38-.02 6.85-.73 10.21-.84 2.33-3.21 3.57-5.44 4.24-8.32 3.44-17.42.58-25.7-1.55-.22-3.05-.56-6.09-1.14-9.1.07 3.09.39 6.16.41 9.25-3.55-2.67-1.57-7.42-2.77-11.04-1.24-2.79-3.25-5.25-3.71-8.35-.98-3.43.16-6.9.72-10.29-1.99-4.03-4.98-8.28-3.78-13.02 1.01-4.21 5.3-6.34 7.08-10.13-2.42 1.18-3.71 4.02-6.16 4.94-.18-2.49.64-5.52 3.04-6.73 3.43-1.93 7.33-2.94 10.51-5.34 1.58 1.05 3.2 2.1 5.1 2.48-1.88-2.34-3.91-4.64-6.53-6.17 3.52-1.45 7.5-3.35 8-7.62-3.18 4.54-8.59 6.58-13.98 6.86-4.1-6.32-3.17-14.33-1.92-21.36m2.3 31.89c2.46.35 4.61 1.55 6.7 2.82.24-3.93-4.05-3.64-6.7-2.82m10.66.44c-1.22 1.04-1.91 2.53-2.68 3.9 1.38-.93 2.7-1.97 3.98-3.03 4.17-.37 8.37-1.23 12.56-.51l1.05-1.82c-5-.18-10.12-.14-14.91 1.46m14.31 10.43c1.15-.51 2.28-1.06 3.4-1.63.92.16 2.77.47 3.7.63-1.13-1.03-2.13-2.45-3.76-2.68-1.78.44-2.94 1.95-3.34 3.68m-1.52 9.24c-4.3 2.9-9.85 2.32-14.77 1.84-1.23-1.71-2.58-3.38-4.46-4.42.56 2.3 1.24 5.02 3.84 5.76 5.29 1.62 11.23.95 16.23-1.36 2.43-2.76 4.62-6.03 5.11-9.76-2.67 2.1-3.95 5.32-5.95 7.94m-26.67 1.73c2.28.2 4.57.19 6.86.21l.15-2.32c-2.41.42-4.85.9-7.01 2.11m3.07 5.38c-.79 1.74-1.72 3.42-2.55 5.14 1.93-1.5 3.26-3.56 4.19-5.8.34.5.66 1 .98 1.51-2.1 7.79 3.89 14.49 5.67 21.72.19-1.91.22-3.82.24-5.73-3.87-4.73-6.63-11.76-3.83-17.64-.78-.37-1.55-.74-2.32-1.11-.8.63-1.59 1.27-2.38 1.91m6.21-1.23c.98.79 1.98 1.56 2.99 2.32.49.77.98 1.55 1.47 2.33 1.75.73 3.51 1.47 5.25 2.24.37 3.51 1.74 6.97 5.03 8.71-1.28-2.86-2.52-5.74-3.88-8.55-.94-1.95-3.39-2.27-5.12-3.27-1.34-2.01-3.31-3.45-5.74-3.78m18.05-.27c.2 1.21.37 2.42.49 3.64-1.53 1.3-3.18 2.46-4.64 3.83 2.22-.81 4.35-1.91 6.14-3.47 1.37.03 2.74.07 4.12.12 0-.31.01-.92.01-1.23-2.51.17-4.64-.88-6.12-2.89m1.88 8.07c-1.3 1.33-2.63 2.65-3.89 4.02 1.63-.68 3.23-1.43 4.83-2.18 2.56 1.01 4.53-.11 5.88-2.29-1.29.36-2.59.7-3.9 1.02-1.02-.81-1.86-1.82-2.76-2.75l-.16 2.18zM24.53 65.4c1.8-2.71 4.55-4.86 7.52-6.11 2.94.1 6.67-.71 8.79 1.9 1.32 1.45.79 3.52.62 5.27-.74 4.4-.39 8.88-.41 13.32-1.64-.09-3.27-.18-4.91-.26-1.01 2.11-1.44 4.37-.54 6.61 1.8.08 3.6.17 5.4.27-.11 4.85.31 9.72-.19 14.55-1.6 2.9-4.52 5.44-7.98 5.51-2.1.87-3.04-1.4-3.15-2.99-6-8.93-5.67-20.67-2.51-30.56 1.26-4.64 4.61-8.25 6.34-12.65-6.87 4.41-8.77 13.31-9.87 20.86-.47 7.78-.42 16.64 4.61 23.09.42.71 1.27 2.13 1.69 2.84-5.34.25-8.23-4.82-9.6-9.2-2.97-10.79-1.53-22.8 4.19-32.45zM174.99 66.29c3.18.56 7.09-.42 9.48 2.29 5.38 5.54 5.5 13.6 7.29 20.64-3.92-.59-7.84-1.14-11.79-1.38-.72 2.04-1.65 4.16-1.28 6.39 3.75 1.78 8.11 1.25 12.14 1.78-2.29 5.79-3.31 12.38-7.77 17.04-3.17 3.7-8.62 3.35-12.97 2.78-4.9-2.73-6.8-8.55-7.61-13.78-.58-5.65-1.72-11.51.26-17.01 1.35-7.58 5.19-15.07 12.25-18.75m-5.05 10.56c-3.78 10.67-4.74 22.87-.34 33.51.75 2.22 2.47 3.89 4.58 4.84-1.79-3.63-4.1-7.07-4.79-11.14-1.65-8.3-1.3-17.11 1.48-25.13 1.34-4.12 4.33-7.34 6.44-11.05-4.17 1.06-5.76 5.46-7.37 8.97zM42.94 68.8c.97.78 3.58.39 3.47 2.09.1 11.68.58 23.41-.65 35.06-.88-.91-2.97-1.16-2.76-2.76-.15-11.46-.27-22.93-.06-34.39zM47.79 69.74c1.19-.42 2.37-.85 3.56-1.27.1 11.54 0 23.08 0 34.62.2 1.92-2.48 1.88-3.6 2.73-.26-5.93.36-11.84.27-17.77-.02-6.1-.46-12.2-.23-18.31zM149.24 72.73c1.45.72 4.47.3 4.08 2.65.13 13.28.37 26.57-.52 39.83-1.46-.78-4.18-.81-3.62-3.14.03-13.11-.15-26.23.06-39.34zM6.44 82.35c-1.06-2.35 1.97-2.87 3.57-2.61 2.59.03 5.16.39 7.74.6-.07.77-.22 2.3-.29 3.06-3.61-.9-7.35-.72-11.02-1.05z"/><path d="M35.89 83.72c.27-2.42 2.79-2.73 4.73-2.28.24 1.13.44 2.26.6 3.41-1.79-.32-3.6-.55-5.33-1.13zM124.6 86c3.52 0 7.04-.02 10.55.08-1.26 3.73-5.15 3.19-8.25 3.87-.76-1.32-1.53-2.64-2.3-3.95zM127.07 91.08c1.95-.08 3.89-.17 5.84-.24.49 1.52.33 3.4 1.43 4.66 1.51.93 3.2 1.53 4.83 2.24-.02 4.4-1.69 8.72-5.18 11.52-.45-3.36-2.48-6.05-4.79-8.38-.29-3.35-1.14-6.6-2.13-9.8zM100.95 206.62c1.37 2.91 1.86 6.11 1.95 9.3-.01 3.83 2.21 7.25 2.18 11.09.25 4.66-1.14 9.6.88 14.04-.64 5.88 3.2 11.06 2.47 16.92-.31 5.54-2.51 10.85-5.95 15.18.64-4.8-1.74-9.21-2.56-13.82-1.58-6.52.72-13.02 2.13-19.33.53-6.55-2.75-12.65-3.16-19.1.85-4.73 1.74-9.47 2.06-14.28z"/></g><g fill="#333"><path d="M147.79 34.07c.07-2.36-.46-5.18 1.76-6.75 1.19 11.87.58 23.82.78 35.72.29 3.21-1.19 7.37 2.18 9.43.99-4.41.66-8.95.7-13.43-.05-9.79.12-19.59.98-29.35.62 13.98.31 27.98.61 41.97 1.29-.43 2.57-.85 3.86-1.27.45-13.8-.28-27.62.51-41.4.88 1.13 1.59 2.42 1.45 3.91.28 12.35-.41 24.74.3 37.07 1.26 5.05-.87 10.16.17 15.19 1.57-6.54 3.66-13.6 9.05-18.06 3.48-2.92 8.33-2.59 12.49-1.7 4.27 1.7 6.13 6.36 7.57 10.38 1.48 4.4 2.08 9.02 2.27 13.64 3.08.15 6.16.35 9.26.42-.67.66-1.34 1.32-2.01 1.99-6.24-.25-12.45-.95-18.65-1.63-.58.81-1.11 1.65-1.6 2.52 7.31.72 14.61 1.71 21.96 2.03.31-1.78 1.12-3.41 2.2-4.83 2.05-.52 2.47 2.11 3.63 3.18-.83 1.47-1.66 2.93-2.56 4.35-4.3-1.04-8.76-.86-13.14-1.36-.96 7.16-3.42 14.61-8.69 19.76-3.51 3.42-8.61 2.11-12.97 2.74-6.79-4.22-8.96-12.59-9.61-20.06-.33.11-.97.33-1.29.44-.06-8.94.09-17.88-.06-26.82-1.83.79-4.93 1.1-4.18 3.88.34 13.03.26 26.06-.09 39.09 1.4-.38 2.79-.77 4.18-1.17.12-3.5.1-7.01.45-10.49 2.41 4.51 2.15 9.62 1.33 14.48-.3 55.72-.09 111.44-.43 167.16.11 1.75-.8 3.3-1.79 4.67-.59-3.91-.41-7.87-.42-11.81-.01-41.98.64-83.96.36-125.94.34-12.05.36-24.11.19-36.16-1.44.75-4.19.77-3.82 3.07-.56 18.36.36 36.71.03 55.08.72 14.98-.41 29.95-.01 44.94-.28 23.36.04 46.71.26 70.06-.47-.01-1.41-.02-1.87-.03-.19-28-.16-56-.09-84.01.91-11.29.34-22.63.47-33.95.22-7.67-.34-15.32-.51-22.98-.3-5.57 1.18-11.07.65-16.63-.42-4.71-.56-9.45-.71-14.18-.88-.3-1.75-.61-2.63-.92-.83 51.23-.2 102.48-.36 153.71-.07 6.49.19 12.99-.24 19.46-1.47-.63-2.13-1.87-1.88-3.45-.06-57.08.09-114.17-.08-171.25-2.24 5.01-4.99 9.77-7.46 14.67-1.52 2.68-3.96 5.26-7.16 5.64-5.51-3.32-10.9-7.45-13.52-13.53-3.14 5.93-3.27 12.96-1.96 19.39.4 3.27 3.66 4.68 5.1 7.32 1.47 4.08.66 8.52 1.38 12.74.62 3.38-1.6 6.71-.44 10.02 1.33 4.24.77 8.87 2.54 13-.47.33-1.4 1-1.87 1.33.79 12.06-3.95 23.64-2.9 35.69.91 5.68 3.37 11.13 2.87 16.99.51 5.47-2.1 10.55-1.97 15.98-.16 5.29 1 10.5 2.25 15.61l-1.59 2.4c-1.03-1.96-.32-5.25-2.74-6.27-.59-3.23-.24-6.54-.34-9.8-.36-6.41 2.34-12.53 1.91-18.95.25-5.16-2.14-9.88-2.84-14.9-1.26-12.06 3.45-23.73 3-35.78-6.13 2.7-12.83 4.35-19.53 3.07-.13.93-.4 2.8-.53 3.73-1.64-2.28-2.35-5.01-3.07-7.67 3.67 1.1 7.33 3.18 11.3 2.24a57.26 57.26 0 0013.74-4.77c-.84-6.35-3.4-12.77-1.51-19.16.11-4.29-.22-8.65-.84-12.91-.33-3.82-5.13-4.91-5.28-8.87-1.11 1-1.97 2.39-3.38 3-6.47 2.42-13.57 2.73-20.31 1.37-4.8-.33-10.25-1.04-13.13-5.41-.7-4.21-.52-8.81-3.35-12.33-.53.59-1.6 1.77-2.14 2.36-1.49.03-2.99.06-4.48.1-1.4-3.04-1.58-6.51-3.31-9.41-1.86-3.31-3.77-6.77-4.15-10.62-.38-5 .57-10.13-.88-15.03-.81-1.87-.01-3.76.67-5.51-2.6.24-5.26.03-7.55-1.33 1.95-.19 3.9-.34 5.85-.46-.28-.82-.57-1.63-.86-2.44-1.41-.82-5.21.16-5.02-2.04 1.6-.32 3.25-.27 4.86-.53 2-1.09 3.29-3.46 5.72-3.68 3.66-.33 7.36-.55 11.02-.12.76 1.28 2.06 2.43 2 4.04-2.03.66-3-1.74-4.77-2.18a44.96 44.96 0 00-9.56.26c-.79 1.33-1.6 2.64-2.41 3.96 3.06 4.11 1.12 9.32 2.83 13.91.06 5.8-.61 11.91 1.75 17.39 1.29 2.99 4 5.33 4.38 8.68.33 1.4.23 3.12 1.76 3.83 1.11-.53 2.21-1.1 3.29-1.69-1.93-4.57-2.29-9.54-.55-14.23-.73-3.39-2.63-6.44-3.21-9.87-.31-2.55 1.22-4.77 1.78-7.1-.25-.27-.76-.8-1.01-1.06-.39-2.96.62-5.81 2.31-8.2-.17-.59-.5-1.77-.67-2.37 2.6-.65 5.28-.16 7.9-.52 1.93-.83 3.66-2.04 5.43-3.16-2.53-1.67-5.34-2.72-8.39-2.69-3.93-3.98-2.94-9.93-3.65-15.02.48-4.2.68-9.61 4.81-11.97 5.23-2.88 11.82-2.04 17.12.26 4.29 1.66 4.83 6.87 4.87 10.85-.86 4.6-1.63 10.33 2.04 13.94 1.84 2.52 5.33 1.86 7.82 3.29 7.18 4.44 16.01 3.91 24.12 3.99 2.44-3.81 7.13-3.38 11.07-3.42-.02-3.07-.04-6.14.17-9.2.79-2.12.8-4.39.78-6.61-.09-10.32.02-20.63-.07-30.95M78.38 57.12c-1.25 7.03-2.18 15.04 1.92 21.36 5.39-.28 10.8-2.32 13.98-6.86-.5 4.27-4.48 6.17-8 7.62 2.62 1.53 4.65 3.83 6.53 6.17-1.9-.38-3.52-1.43-5.1-2.48-3.18 2.4-7.08 3.41-10.51 5.34-2.4 1.21-3.22 4.24-3.04 6.73 2.45-.92 3.74-3.76 6.16-4.94-1.78 3.79-6.07 5.92-7.08 10.13-1.2 4.74 1.79 8.99 3.78 13.02-.56 3.39-1.7 6.86-.72 10.29.46 3.1 2.47 5.56 3.71 8.35 1.2 3.62-.78 8.37 2.77 11.04-.02-3.09-.34-6.16-.41-9.25.58 3.01.92 6.05 1.14 9.1 8.28 2.13 17.38 4.99 25.7 1.55 2.23-.67 4.6-1.91 5.44-4.24.71-3.36.16-6.83.73-10.21.66-3.6 1.81-7.11 3.47-10.37-3.35-3.89-4.57-8.9-6.02-13.69 4.05 4.03 8.71 8.14 14.63 8.75-3.65 2.57-7.71.02-10.7-2.31 1.06 2.19 2.38 4.24 3.71 6.28 1.95 3.03 2.8 6.84 5.66 9.22 2.7 2.18 5.45 4.28 8.18 6.41 4.49-2.88 5.61-8.32 8.3-12.57 2.54-4.04 4.47-8.68 4.31-13.53-.05-8.63.08-17.27-.13-25.9-2.29 0-4.59.01-6.88-.1-.92.66-1.84 1.33-2.76 2 .15.51.45 1.55.6 2.06-2.88 1.48-2.6 4.63-2.64 7.39 2.03 1.62 6.69 2.04 5.7 5.52-.44 4.24-2.11 8.54-5.64 11.15-3.27 2.44-5.57 5.86-8.54 8.61 1.45-3.32 3.78-6.13 6.29-8.71-1.02-2.4-1.64-5.64-4.51-6.49-4.79-2.45-9.99-3.94-14.69-6.52 4.74.02 9.36 1.44 13.43 3.85.11-5.48-2.03-11.35-6.55-14.68-2.54-1.21-5.6-.88-7.93-2.66l.12 1.76c-2.04 1.23-3.94 2.67-5.96 3.94 1.31-2.66 3.68-4.43 5.85-6.32-3.14-1.53-6.53-2.37-9.92-3.08-.72-2.37-2.33-4.47-3.26-6.6-.15-5.98 2.14-12.4-.64-18.04-2.29-4.29-7.81-3.58-11.9-3.88-3.74-.48-8.21 1.69-8.58 5.79m96.61 9.17c-7.06 3.68-10.9 11.17-12.25 18.75-1.98 5.5-.84 11.36-.26 17.01.81 5.23 2.71 11.05 7.61 13.78 4.35.57 9.8.92 12.97-2.78 4.46-4.66 5.48-11.25 7.77-17.04-4.03-.53-8.39 0-12.14-1.78-.37-2.23.56-4.35 1.28-6.39 3.95.24 7.87.79 11.79 1.38-1.79-7.04-1.91-15.1-7.29-20.64-2.39-2.71-6.3-1.73-9.48-2.29m-25.75 6.44c-.21 13.11-.03 26.23-.06 39.34-.56 2.33 2.16 2.36 3.62 3.14.89-13.26.65-26.55.52-39.83.39-2.35-2.63-1.93-4.08-2.65M124.6 86c.77 1.31 1.54 2.63 2.3 3.95 3.1-.68 6.99-.14 8.25-3.87-3.51-.1-7.03-.08-10.55-.08m2.47 5.08c.99 3.2 1.84 6.45 2.13 9.8 2.31 2.33 4.34 5.02 4.79 8.38 3.49-2.8 5.16-7.12 5.18-11.52-1.63-.71-3.32-1.31-4.83-2.24-1.1-1.26-.94-3.14-1.43-4.66-1.95.07-3.89.16-5.84.24zM41.69 34.98l2.16.04c.01 10.01-.02 20.02.11 30.02-.36 1.74.85 2.74 2.23 3.5.74-11.33-.54-22.78.93-34.04.86 11.1.32 22.27.53 33.4.84-.28 2.51-.83 3.35-1.1.06-10.6.04-21.2.05-31.79.47-.01 1.42-.01 1.89-.01.1 11.99-.48 24.01.5 35.97.05 8.7-.31 17.38.11 26.08.39 4.68-.75 9.3-.68 13.97.08 34.35-.26 68.7-.05 103.04-.42 15.52.31 31.08-.51 46.59-2.34-1.03-1.59-3.67-1.76-5.62.48-42.33.25-84.67.45-127.01-.04-7.26.11-14.53-.11-21.79-1.11.74-3.41.86-3.17 2.7-.3 14.68.22 29.38-.33 44.06.84 13-.09 26.03.45 39.03.48 8.33-.39 16.64-.16 24.96.06 13.36-.06 26.72.01 40.08.14 1.65-.33 3.24-1.27 4.6-.83-15.19-.02-30.44-.32-45.65.84-15.19.57-30.42.35-45.62-.97-8.45.97-16.88.04-25.31-.68-12.38.47-24.82-.36-37.18-.52-.34-1.57-1.01-2.1-1.34-.37 14.17.22 28.36-.4 42.52-.18 28.95-.06 57.91-.06 86.86-.13 7.65.26 15.3-.25 22.94-2.19-2.49-1.54-5.84-1.64-8.85.07-46.68-.02-93.37.04-140.06.03-1.99-.3-3.96-.73-5.9-3.51 4.49-9.53 5.74-14.89 4.81-3.16-1.42-5.08-4.54-6.38-7.61-2.28-5.25-2.51-11.08-2.42-16.71-4.45.07-8.9-.18-13.34-.48.26-2.24.7-4.45 1.27-6.63 4.23.36 8.45.78 12.68 1.19 1.38-6.58 3.42-13.51 8.46-18.27 4.06-3.95 10.8-3.82 15.39-.9-.11-8.16-.02-16.33-.07-24.49M24.53 65.4c-5.72 9.65-7.16 21.66-4.19 32.45 1.37 4.38 4.26 9.45 9.6 9.2-.42-.71-1.27-2.13-1.69-2.84-5.03-6.45-5.08-15.31-4.61-23.09 1.1-7.55 3-16.45 9.87-20.86-1.73 4.4-5.08 8.01-6.34 12.65-3.16 9.89-3.49 21.63 2.51 30.56.11 1.59 1.05 3.86 3.15 2.99 3.46-.07 6.38-2.61 7.98-5.51.5-4.83.08-9.7.19-14.55-1.8-.1-3.6-.19-5.4-.27-.9-2.24-.47-4.5.54-6.61 1.64.08 3.27.17 4.91.26.02-4.44-.33-8.92.41-13.32.17-1.75.7-3.82-.62-5.27-2.12-2.61-5.85-1.8-8.79-1.9-2.97 1.25-5.72 3.4-7.52 6.11m18.41 3.4c-.21 11.46-.09 22.93.06 34.39-.21 1.6 1.88 1.85 2.76 2.76 1.23-11.65.75-23.38.65-35.06.11-1.7-2.5-1.31-3.47-2.09m4.85.94c-.23 6.11.21 12.21.23 18.31.09 5.93-.53 11.84-.27 17.77 1.12-.85 3.8-.81 3.6-2.73 0-11.54.1-23.08 0-34.62-1.19.42-2.37.85-3.56 1.27M6.44 82.35c3.67.33 7.41.15 11.02 1.05.07-.76.22-2.29.29-3.06-2.58-.21-5.15-.57-7.74-.6-1.6-.26-4.63.26-3.57 2.61m29.45 1.37c1.73.58 3.54.81 5.33 1.13-.16-1.15-.36-2.28-.6-3.41-1.94-.45-4.46-.14-4.73 2.28z"/><path d="M169.94 76.85c1.61-3.51 3.2-7.91 7.37-8.97-2.11 3.71-5.1 6.93-6.44 11.05-2.78 8.02-3.13 16.83-1.48 25.13.69 4.07 3 7.51 4.79 11.14-2.11-.95-3.83-2.62-4.58-4.84-4.4-10.64-3.44-22.84.34-33.51zM80.68 89.01c2.65-.82 6.94-1.11 6.7 2.82-2.09-1.27-4.24-2.47-6.7-2.82zM91.34 89.45c4.79-1.6 9.91-1.64 14.91-1.46l-1.05 1.82c-4.19-.72-8.39.14-12.56.51-1.28 1.06-2.6 2.1-3.98 3.03.77-1.37 1.46-2.86 2.68-3.9zM105.65 99.88c.4-1.73 1.56-3.24 3.34-3.68 1.63.23 2.63 1.65 3.76 2.68-.93-.16-2.78-.47-3.7-.63-1.12.57-2.25 1.12-3.4 1.63zM104.13 109.12c2-2.62 3.28-5.84 5.95-7.94-.49 3.73-2.68 7-5.11 9.76-5 2.31-10.94 2.98-16.23 1.36-2.6-.74-3.28-3.46-3.84-5.76 1.88 1.04 3.23 2.71 4.46 4.42 4.92.48 10.47 1.06 14.77-1.84zM77.46 110.85c2.16-1.21 4.6-1.69 7.01-2.11l-.15 2.32c-2.29-.02-4.58-.01-6.86-.21zM80.53 116.23c.79-.64 1.58-1.28 2.38-1.91.77.37 1.54.74 2.32 1.11-2.8 5.88-.04 12.91 3.83 17.64-.02 1.91-.05 3.82-.24 5.73-1.78-7.23-7.77-13.93-5.67-21.72-.32-.51-.64-1.01-.98-1.51-.93 2.24-2.26 4.3-4.19 5.8.83-1.72 1.76-3.4 2.55-5.14zM86.74 115c2.43.33 4.4 1.77 5.74 3.78 1.73 1 4.18 1.32 5.12 3.27 1.36 2.81 2.6 5.69 3.88 8.55-3.29-1.74-4.66-5.2-5.03-8.71-1.74-.77-3.5-1.51-5.25-2.24-.49-.78-.98-1.56-1.47-2.33-1.01-.76-2.01-1.53-2.99-2.32zM104.79 114.73c1.48 2.01 3.61 3.06 6.12 2.89 0 .31-.01.92-.01 1.23-1.38-.05-2.75-.09-4.12-.12-1.79 1.56-3.92 2.66-6.14 3.47 1.46-1.37 3.11-2.53 4.64-3.83a55.79 55.79 0 00-.49-3.64zM106.67 122.8l.16-2.18c.9.93 1.74 1.94 2.76 2.75 1.31-.32 2.61-.66 3.9-1.02-1.35 2.18-3.32 3.3-5.88 2.29-1.6.75-3.2 1.5-4.83 2.18 1.26-1.37 2.59-2.69 3.89-4.02zM76.78 149.55c.63-2.4 1.96-4.54 2.87-6.84.3.65.91 1.94 1.21 2.59-.71 1.67-1.47 3.32-2.28 4.95.78 2.97 3.43 5.94 1.67 9.06-1.15 5.41-.33 11.12-1.69 16.54-.75 2.54-.41 5.19.01 7.75 6.13 3.08 13.14 2.94 19.72 1.74-1.37 1.56-3.09 2.87-5.28 2.87-4.76.11-9.68-.24-14.07-2.26.3 4.81 1.33 9.53 2.73 14.13 1.49 4.2-.33 8.61.31 12.91.22 2.37 1.68 4.38 3.02 6.27-.33 4.29.51 8.59-.12 12.88-1.16 9.15 3.17 17.84 2.16 26.99-6 5.22-9.92 12.37-16.05 17.42-.59.98-1.17 1.97-1.75 2.96 1.13.9 2.13 2.39 3.8 2.01 2.69-.08 5.53.34 8.06-.81 2.58-1.14 4.69-3.11 7.29-4.22 3.7-1.13 7.84-1.11 11.22-3.2 1.34-2.52.01-5.47-.66-8-.18-.03-.55-.09-.73-.13-.52.85-1.02 1.72-1.5 2.6-1.11 1.37-2.2 2.74-3.13 4.24-.49.2-1.46.6-1.94.8.96-3.57 4.08-5.91 5.08-9.44l1-.4c-1.65-8.94.18-18.22 2.59-26.86-.81-5.04-2.34-9.91-3.55-14.86-1.12.5-2.08 1.63-3.39 1.54.74-1.25 1.75-4.64 3.53-2.53 2.27-5.17.48-11.3 3.32-16.18-.58-3.94-.84-7.94-.22-11.89.46.69.9 1.39 1.34 2.11-.61 4.35.77 8.59 1.93 12.73 1.85 1.43 4.84 1.81 5.67 4.26-.98-.1-2.94-.29-3.92-.38-.07 3.68.04 7.39 1.03 10.96 1.63 6.6.94 13.42 1.61 20.11 1.41 5.73 3.39 11.42 2.71 17.43.46-.08 1.36-.24 1.81-.33-.48-5.7-.13-11.44-.34-17.16-.4-4.04-1.26-8.03-1.46-12.1 3.63 6.07 2.39 13.47 2.88 20.21.38 3.58.1 7.18-.69 10.69l-2.83.15c-.26 4.09-1.95 8.06-4.55 11.21-2.05 2.6-3.45 5.83-6.34 7.65-2.85 1.52-3.94 4.68-5.17 7.45 7.56 2.21 17.14 1.4 22.39-5.14 1.88-2.19 4.8-3.16 6.62-5.41.97-1.9 1.14-4.1 2.26-5.94.77 2.26.51 4.65.39 6.97-5.67 4.21-10.31 10.18-17.2 12.46-5.5.39-13.5 2.18-16.34-4.14 1.59-1.88 2.75-4.08 4.31-5.97 1.76-1.58 3.84-2.81 5.27-4.75-3.36 1.47-6.77 2.97-10.51 2.96-3.63.04-5.9 3.34-8.97 4.74-3.78 1.38-7.99 1.39-11.82.22-2-.68-3.85-2.68-3.04-4.92 2.14-4.08 6.47-6.27 9.24-9.85 2.7-3.37 5.34-6.82 8.65-9.63 1.74-7.1-2.19-13.73-2.02-20.77-.19-3.34.28-6.66.48-9.98-.26-2.7-.7-5.42-.01-8.09-1.86-3.38-4.08-7.03-3.35-11.05.12-2.07 1.28-4.2.31-6.21-3.01-7.17-3.04-15.04-4.31-22.6.27-5.55 2.16-11.12 1.34-16.71-.73-2.42.62-4.76 1.13-7.08-.66-2.22-1.65-4.41-1.73-6.73m24.17 57.07c-.32 4.81-1.21 9.55-2.06 14.28.41 6.45 3.69 12.55 3.16 19.1-1.41 6.31-3.71 12.81-2.13 19.33.82 4.61 3.2 9.02 2.56 13.82 3.44-4.33 5.64-9.64 5.95-15.18.73-5.86-3.11-11.04-2.47-16.92-2.02-4.44-.63-9.38-.88-14.04.03-3.84-2.19-7.26-2.18-11.09-.09-3.19-.58-6.39-1.95-9.3zM115.94 201.07c-1.29-3.72-1.52-7.82-.32-11.59.74 3.81.98 7.75.32 11.59zM104.06 190.67c1.73 3.66 3.03 7.5 4.42 11.3-3.5-2.5-4.88-7.16-4.42-11.3z"/><path d="M92.62 194.16c.25.08.75.25 1 .34 2.38 3.65 1.25 8.18-.7 11.76-2.01.62-4.1.85-6.18 1.02-1.4-1.83-2.26-3.95-2.98-6.11 2.6 2.24 5.82 4.12 9.37 2.99.43-3.34.22-6.72-.51-10zM114.17 210.58c1.65-.57 2.22-.05 1.7 1.55-1.66.57-2.23.05-1.7-1.55zM93.11 212.7c-.64 2.17-1.96 4.01-3.15 5.9.05 1.33.13 2.68.07 4.02-.44-1.95-.78-3.9-1.19-5.84 1.29-1.5 2.7-2.89 4.27-4.08zM111.7 218.73c.97-1.21 1.95-2.4 3.01-3.53-.54 2.85-.35 5.72 0 8.57-1.21-1.55-2.07-3.32-3.01-5.04zM93.92 249.43c-3.52-7.8-3.31-16.82-.39-24.78-.22 3.81-1.11 7.54-1.46 11.34-.15 4.56 1.82 8.88 1.85 13.44zM114.44 227.71c2.47 3.57 2.75 8.02 3.43 12.18.28 3.29.71 6.71-.43 9.9-.63-7.41-1.75-14.76-3-22.08zM81.52 274.44c1.49-4.06 4.44-7.47 7.93-9.96-2.38 3.49-4.55 7.32-7.93 9.96zM113.97 266.38c.86 2.02-.14 4.05-.85 5.94-1.26 2.98-1.75 6.29-3.64 8.98.69-5.18 2.59-10.09 4.49-14.92zM120.35 267.13c2.69 2.9-1.46 5.58-3.68 7.08 1.2-2.38 2.51-4.7 3.68-7.08z"/></g></svg>