<svg width="288" height="400" viewBox="0 0 216 300" xmlns="http://www.w3.org/2000/svg"><g fill="#FFF"><path d="M0 0h216v300H0V0m147.79 28.02c-.11 33-.04 65.99-.04 98.99-.12 2.87.48 5.93-.81 8.62-.24 4.29-.02 8.6-.28 12.89-3.21-.34-6.37-1.07-9.57-1.36-2.61 1-3.01 4.14-3.62 6.49 1.3-1.49 2.52-3.06 3.78-4.6 3.18.51 6.38.83 9.59 1.12.25 11.56.19 24.03-6.76 33.88-2.68 3.31-4.38 7.47-7.88 10.04-2.49-1.49-5.36-2.6-7.09-5.05-2.25-3.14-6.22-4.39-8.48-7.5-2.69-3.38-3.64-7.69-5.59-11.46-1 1.19-1.63 2.63-2.21 4.07.89.42 1.79.83 2.69 1.25 1.09 4.52 4.13 8.12 7.26 11.41.59 3.33 1.29 6.68.8 10.07-5.26 6.04-13.84 6.38-21.25 6.31-2.58-2.98-6.41-4.76-8.35-8.28-1.42-2.87-4.92-3.78-6.56-6.49-.22-1.92-.02-3.92-.98-5.68 1.06-.61 2.15-1.17 3.24-1.71-.09-.35-.26-1.03-.35-1.38l-2.74.15c-.5.56-1.01 1.12-1.51 1.68-1.69-2.01-4-3.73-4.77-6.35-.33-2.12-.12-4.28-.15-6.41 1.53-1.83 2.77-3.89 3.55-6.15-2.51 1.05-3.85 3.52-5.68 5.38.01 2.85-.61 5.89.67 8.57 1.19 2.21 3.09 3.91 4.89 5.62-2.89 2.54-5.76 5.19-9.36 6.68-2.67-2.98-6.25-5.29-7.87-9.08-1.28-3.11-2.85-6.28-2.67-9.73.21-5.67.54-11.54-1.49-16.95-.78-1.89-.19-3.91-.09-5.86a7.86 7.86 0 00-3.97-.06c-.02.99.41 1.79 1.29 2.4-.65 2.33-.36 4.72.14 7.04l1.13-.31c1.52 6.5.9 13.26 2.5 19.74 1.07 5.36 4.64 9.75 8.22 13.69 1.68 1.87 4.26.52 6.18-.18 3.45-1.12 5.04-4.62 7.2-7.22.42 2.31.17 4.75.9 7 1.24 2.31 3.77 3.52 5.27 5.63 1.23 1.79 2.56 3.52 4.1 5.06-.88 1.01-1.73 2.05-2.56 3.1-3.69.45-7.41.58-11.11.91l.06.98c3.9-.31 7.81.13 11.71 0 1.34-.08 1.93-1.6 2.9-2.32 3.61.78 7.22 1.65 10.88 2.2 4.85.24 9.53-1.42 14.13-2.75-2.22 1.37-4.73 2.41-6.44 4.46 3.09-1.36 8.01-1.71 7.79-6.11.9-.82 1.8-1.63 2.7-2.43.16.77.49 2.32.65 3.09 1.34.97 2.67 1.95 3.99 2.96.54 3.65 1.35 7.25 2.02 10.88.74 3.24-1.26 6.11-2.01 9.14-.58 2.09-2.03 4.33-4.31 4.73 2.52-5.57-3.2-10.09-6.6-13.75-3.95-5.22-12.19-7.12-17.38-2.61-4.69 2.47-4.93 8.13-6.76 12.49-3.95 1.16-8.19 1.77-11.54 4.36 2.63 4.45 6.4 8.41 7.56 13.58 1.05 4.42 3.11 8.49 4.63 12.75 1.87 5.44 8.13 8.73 7.7 15.05-4.76 2.6-10.92 2.38-14.76 6.62-2.25 2.77-5.87 3.26-9.13 4.02L70 280.2l-1.47-2.63c1.63-3.86 5.56-5.77 8.14-8.86 1.66-1.99 3.58-3.72 5.26-5.67 1.43-5.03-2.64-9.05-5.2-12.88-4.04-4.44-5.02-10.69-8.95-15.2-2.32-3.9-6.58-7.91-5.07-12.86.64-4.17 5.03-5.83 7.19-9.06 2.54-3.55 6.21-6.68 10.9-6.02 2.56 2.16 5.85 3.67 7.47 6.76 1.51 2.28 1.65 5.06 2.06 7.68 3.04-2.22 1.81-6.31.11-8.98-3.7-4.15-8.67-8.29-14.65-6.94-2.67 2.35-5.61 4.46-7.68 7.42-2.07 2.88-5.77 4.39-7.12 7.8-1.41 8.9 6.66 14.88 10 22.26 2.9 6.61 9.75 12.13 8.86 19.93-1.56 1.82-3.26 3.52-4.58 5.54-2.33 3.37-5.75 5.83-7.92 9.33.43 1.15.92 2.29 1.48 3.4 5.37 2.07 11.6 2.33 16.58-.83 1.88-1.76 3.25-4.19 5.76-5.14 2.91-.94 6.01-1.18 8.87-2.3.59-1.96 1.55-3.97.78-6.02-.73-4.46-5.36-6.64-6.87-10.72-1.95-4.64-3.64-9.39-4.91-14.27-1.43-5.19-4.91-9.45-8.71-13.12 3.53-.41 6.99-1.25 10.48-1.85 1 3.09 2.03 6.18 3.14 9.23 1.01 2.94 4.06 4.67 4.8 7.74 1.93 7.43 6.94 13.67 8.5 21.24 1.14 4.71-2.82 8.29-5.04 11.97-3.78 3.84-9.2 6.53-10.51 12.24 5.51 3.9 12.74 5.22 19.19 3.05 2.52-.72 3.77-3.23 5.49-4.99 2.81-3.58 7.38-5.88 8.78-10.46.98-3.17-1.22-6.01-2.36-8.81-2.73-5.27-2.36-11.36-3.28-17.08-.55-6.91-3.92-13.48-9.27-17.89 1.34-.43 2.68-.81 4.04-1.17 1.24.96 2.8 1.5 4.27.68 3.77-1.2 6.88-3.88 9.34-6.91.8-3.63 3.01-7.05 2.1-10.91-.97-5.25-.94-12.02-6.6-14.59-2.25-3.96-1.2-8.63-3.05-12.75 3.38 3.37 6.74 7.06 11.51 8.41 4.36-2.05 5.79-6.95 8.97-10.23a24.3 24.3 0 005.74-10.87c.41 2.72 1.17 5.41 1.17 8.18 0 35.22-.02 70.45.01 105.67.53.04 1.59.12 2.12.15.06-36.2.22-72.4-.06-108.6 1.23.41 2.46.83 3.69 1.25.02 8.18.13 16.36-.51 24.51-.07 27.66-.22 55.33.17 82.97.47-.01 1.4-.02 1.87-.03-.48-36-.6-72.03.1-108.03 1.07-.26 2.14-.52 3.21-.77.07 26.63-.1 53.26-.43 79.89.48 9.65-.47 19.3.25 28.94.36 0 1.08.01 1.44.01.31-1.65.66-3.29.68-4.97.23-28-.04-56 .33-84-.19-8.7-.47-17.43.67-26.07 1.68 2.02 1.96 4.96 3.57 7.11 1.64 2.34 3.82 5.25 7.02 5.04 3.57.03 7.63 1.05 10.57-1.64 5.59-4.8 8.24-12.34 9.11-19.48 4.46.51 8.91 1.17 13.35 1.85 2.19-1.91 2.12-4.86.63-7.15-4.35-.32-9-.33-12.94-2.39.08 1.08.15 2.16.2 3.24 3.09.03 6.15.46 9.2.9l-.4 2.59c-7.43-.69-14.79-1.99-22.13-3.31.74-.85 1.15-2.86 2.72-2.16 2.99.49 5.97 1.05 8.98 1.43.87-2.95 1.59-6.01.66-9.07-1.38-6.17-2.86-13.56-8.7-17.08-4.02-1.34-8.95-2.07-12.63.6-5.53 3.92-7.61 10.84-9.3 17.08-1.25-3.12.3-6.36.21-9.57.38-4.03-.72-7.98-.82-11.98.06-32.01.04-64.03.09-96.04-.2-1.66.45-4.03-1.72-4.74-.55 35.06-.08 70.13-.48 105.19l-3.99 1.35c.13-6.93.25-13.87.2-20.8-.15-28.46.48-56.94-.49-85.38-1.07 10.08-.93 20.27-.97 30.41-.12 19.02.18 38.05-.12 57.08-.11 6.27.41 12.52.66 18.78-.91-.18-2.73-.54-3.64-.73-.05-4.69.41-9.37.29-14.07-.34-30.8.5-61.61-.44-92.4-.55-.15-1.64-.46-2.18-.61M41.63 35c.1 28.22-.14 56.44.12 84.66-2.52-2.26-5.93-2.16-9.02-2.94-3.12 1.28-6.56 2.45-8.64 5.28-3.46 4.48-5.23 10.04-6.17 15.56-4.18-1.17-8.53-1.5-12.85-1.67-.57 2.04-.88 4.13-1.04 6.25 4.44.32 8.84 1.09 13.28 1.35-.29 7.96.66 16.84 6.3 22.95 2.65 3.03 6.91 1.97 10.42 1.88 3.03-.1 5.08-2.62 7.33-4.29.44 4.3.26 8.63.28 12.94 0 25.66-.01 51.31 0 76.97-.12 2.26 1.01 4.28 1.81 6.32.43-31.58-.12-63.17.19-94.75.65.34 1.96 1.01 2.62 1.35 1.14 31.6-1.04 63.23.16 94.82.77-1.08 1.46-2.26 1.28-3.65-.01-16.37.01-32.74 0-49.11.78-13.96-.58-27.94.16-41.91.66-.48 1.99-1.43 2.65-1.91.72 31.75-.12 63.54.17 95.3 3.02-.27 1.62-3.51 2-5.39.05-28.98.11-57.96.09-86.94 1.16-6.98.85-14.03.56-21.07.18-8.32.51-16.68-.46-24.96-.04-29.01-.01-58.02.04-87.03-.46-.01-1.36-.01-1.82-.01-.01 30.27-.2 60.54-.22 90.82-.81.26-2.42.79-3.23 1.06.11-30.6.14-61.21-.17-91.8l-.85-.04c-.57 30.77-.07 61.55-.33 92.32-3.08-.63-2.33-4.02-2.45-6.32.4-13.37.4-26.76.03-40.14.61-15.3-.33-30.6-.05-45.9h-2.19m35.63 91.34c-4.47 3.13-4.76 9.07-4.96 14.03-3.58-1.39-7.52-.96-11.26-.7-1.76-.02-2.64 1.76-3.82 2.77-.82-.06-2.46-.19-3.28-.25-.02.5-.07 1.51-.09 2.02 1.39.07 2.79.11 4.18.11 1.92-.41 2.63-3.13 4.8-2.86 3.21-.07 6.6-.07 9.49 1.51.13 2.21 0 4.54.94 6.6 1.02 1.84 3.05 2.67 4.82 3.62-4.14 2.49-6.03 7.26-6.4 11.89l1.12-.28c1.38-4.72 4.47-10.27 10.04-10.44 3.16-2.65 7.92-4.02 9.02-8.46-3.01 1.1-4.81 4.13-7.84 5.16-2.73 1.1-5.69.6-8.51.26-.62-6.94-2.93-14.31.91-20.78 1.03-3.75 5.27-3.97 8.45-4.6 5.55-.98 11.01 4.51 10.4 10.03.01 2.2-1.12 4.38-.69 6.57.74 2.19 2.04 4.13 3.15 6.14 3.09.58 6.37.72 9.11 2.42 2.94 1.92 6.53 2.09 9.7 3.44 3.02 2.55 3.96 6.66 3.97 10.45-2.57-.21-5.15-.41-7.73-.18 2.99 1.24 6.39 1.43 9.13 3.25 3 2.04 5.64 4.56 7.79 7.48-1.37 1.72-2.75 3.45-4.05 5.24 5.44-3.74 11.73-8.55 11.84-15.78.22-3.47-3.32-5.06-5.17-7.41-.33-1.44-.38-2.91-.53-4.37l-1.36 1.16c-4.93-1.02-10.2.46-14.87-1.76-3.04-1.15-6.67-.79-9.08-3.32 7.26.46 14.46 1.64 21.73 1.96 1.8.02 3.73.2 5.33-.8-6.7-1.65-13.68-1.1-20.46-2.16-4.69-.44-9.4-.98-14.11-.7-1.45-1.95-2.57-4.12-3.41-6.4 1.25-3.29 1.41-6.98.46-10.37-1.13-2.28-3.24-3.95-5.35-5.29-4.3-1.76-9.25-1-13.41.8m-10.12 29.64c-.18 4.13.72 8.53 4 11.33-1.61-3.61-2.55-7.43-2.14-11.41 1.57-1.84 3.93-3.37 4.2-5.96l-1.23-.2c-1.71 1.98-3.74 3.83-4.83 6.24m16.85-1.11c1.64.84 3.27 1.73 4.99 2.44-.77-1.3-1.62-2.55-2.48-3.78-.84.43-1.68.88-2.51 1.34m6.36 4.79c-.89 1.12-1.73 2.28-2.57 3.44 3.08-2.65 7.07-2.88 10.84-3.73 2.21-1.46 5.49-1.79 6.7-4.38-5.08 1.32-9.6 4.39-14.97 4.67M79 158.23c2.06 2.05 4.42 3.92 7.23 4.79-1.06-3.15-4.13-4.51-7.23-4.79m22.6 2.47c.99 3.5 4.58 5.54 8.01 4.17-1.34-.42-2.69-.82-4.04-1.19-1.28-1.05-2.59-2.06-3.97-2.98m-29.99 6.52c-2.6 3.76-3.49 8.38-2.38 12.83 1.63-2.07 1.26-4.81 1.97-7.2.74-2 1.87-3.85 2.39-5.94l-.7-.13-1.28.44m36.58 7.97c-1.82 2.03-3.8 4.06-6.34 5.17-4.09 1.27-8.4.39-12.59.57 6.43 3.93 15.71 2.76 20.29-3.53-.45-.74-.9-1.48-1.36-2.21m-21.51 9.71c-.61 1.05-1.22 2.1-1.8 3.17 3.17-1.52 6.53-2.72 10.11-2.28 2.41 2.5 4.93 5.06 8.28 6.26-1.12-2.53-3.62-3.93-5.55-5.74-2.93-3.11-7.36-1.23-11.04-1.41m16.03 7.61c.59.96 1.77 2.89 2.36 3.86-2.14-.06-4.23-.51-6.27-1.13-2.09.26-4.18.56-6.26.9 3.1.64 6.28.79 9.31 1.73 2.89 1.15 5.33-1.25 7.7-2.49 1.15-.73 2.29-1.49 3.38-2.31-1.64.48-3.22 1.15-4.89 1.57-1.9-.36-3.59-1.35-5.33-2.13M77 220.96c-2.91 3.65-7.02.5-10.04-1.18 1.14 4.08 6.17 5.6 9.67 3.74 3.95-2.95 4.26-8.26 5.19-12.69-2.26 3.04-3.31 6.71-4.82 10.13m4.29 4.3c2.35-2.18 4.68-4.53 5.84-7.58-3.06 1.48-4.77 4.49-5.84 7.58m-9.41 6.73c-.29-1.84-.85-3.62-1.47-5.37-1.54 1.53-1.31 6.08 1.47 5.37m4.88 3.98c.09 4.11 1.62 8.07 3.95 11.41 2.07 2.98 4 6.32 7.34 8.05-1.7-2.72-4.11-4.91-5.84-7.61-2.38-3.7-2.62-8.39-5.45-11.85m14.3 24.53c.5 1.39 1.06 2.76 1.64 4.13-.33 1.48-.64 2.97-.94 4.46.47.19 1.41.57 1.88.75.72-3.35 1.42-7.77-2.58-9.34m-7.92 10.22c1.75-2.96 4.82-5.98 3.46-9.72-1.49 3.1-2.67 6.37-3.46 9.72z"/><path d="M24.62 124.51c1.73-2.63 4.62-4.08 7.13-5.82 2.33.39 4.68.66 7.04.79 1.16 1.32 3.24 2.49 2.77 4.55-.73 5.22-.48 10.5-.47 15.75-1.67-.14-3.35-.27-5.03-.4-1.02 2.18-1.44 4.48-.32 6.73 1.73.11 3.46.25 5.19.38.06 4.8.45 9.65-.14 14.44-1.81 3.98-6.25 5.6-10.42 5.08.21-.76.65-2.29.86-3.05l-.66 1.35c-2.25-3.92-4.74-7.88-5.15-12.49-.69-7.52-.35-15.37 2.87-22.32 1.28-3.46 4.04-6.1 5.28-9.56-3.19 1.19-4.75 4.38-6.35 7.15-4.43 9.33-4.86 20.25-2.29 30.17.89 3.63 3.31 6.54 5.73 9.27-5.7.34-8.84-4.93-10.24-9.65-3.01-10.76-1.67-22.8 4.2-32.37zM42.86 128.16c1.18.21 2.37.43 3.55.65 0 11.93.5 23.89-.53 35.8-.68-.25-2.05-.75-2.73-1.01-.56-11.8-.27-23.63-.29-35.44zM47.81 128.62c1.19-.23 2.39-.47 3.59-.7-.14 11.77.14 23.55-.18 35.3-1.14.56-2.3 1.07-3.49 1.53-.06-3.56-.05-7.13.16-10.69.62-8.47-.52-16.96-.08-25.44zM174.99 134.19c3.1.66 6.88-.01 9.2 2.6 4.94 5.01 5.8 12.33 6.99 18.93-.33.71-.66 1.41-1 2.12-3.33-.92-6.74-1.44-10.14-1.94-.75 2.05-3.03 5.87-.17 7.13 3.56 1.02 7.29 1.25 10.95 1.72-2.73 6.59-3.78 15.31-10.95 18.74-4.3.59-9.96 1.48-12.81-2.68-5.03-6.42-4.98-15.05-5.48-22.81 1.11-6.48 2.53-13.34 6.7-18.65 1.74-2.29 4.33-3.66 6.71-5.16m-4.89 9.82c-4.23 11.1-5.03 24-.02 34.99.73 1.84 2.34 3.05 3.94 4.09-1.32-3.81-3.85-7.15-4.51-11.2-1.79-8.78-1.49-18.22 1.87-26.59 1.33-3.52 4.24-6.11 5.81-9.5-3.98.84-5.5 4.95-7.09 8.21zM149.27 137.02c1.35.25 2.7.5 4.05.77-.03 13.76.51 27.55-.58 41.28-1.16-.39-2.31-.79-3.46-1.19-.02-13.62-.08-27.24-.01-40.86zM154.88 137.65c1.33-.45 2.67-.9 4.01-1.34 0 8.57-.01 17.14-.03 25.71.04 1.74-.07 3.82 1.49 5.01.23 1.57.75 3.15.46 4.75-.25.02-.74.05-.99.07-.25-.75-.74-2.24-.99-2.98.05 3.02.05 6.04-.03 9.06-1.38.38-2.76.74-4.14 1.1-.02-4.35.08-8.7.33-13.03.46-9.45-.53-18.9-.11-28.35zM6.58 138.26c3.71-.06 7.41.38 11.12.42-.06.77-.19 2.31-.25 3.08-3.72-.43-7.42-.92-11.14-1.33.07-.54.2-1.63.27-2.17z"/><path d="M36.99 141.2l3.83.42c.07.8.22 2.41.29 3.21-1.66-.31-3.33-.58-4.95-1.06.21-.88.49-1.74.83-2.57zM119.72 155.04c3.4-.01 6.82.19 10.14 1.01.35 3.46 3.16 5.61 5.25 8.06.85 3.83-1.75 7.15-3.89 10.02-1.98-3.33-5.02-5.75-7.85-8.31-.36-3.82-1.42-7.61-3.65-10.78zM102.72 211.06c2.74.03 5.73.32 7.87 2.24 3.9 3.77 7.73 7.82 9.51 13.07-3.19 3.53-7.82 4.87-12.39 5.47 4.54 7.1 9.66 14.38 10.12 23.1.17 6.3 2.68 12.42 1.86 18.73.29.11.88.33 1.17.43.31-.82.92-2.47 1.23-3.3 1 1.99 1.61 4.12 1.68 6.36-2.77 3.46-6.71 5.69-9.5 9.12-3.13 4.4-9.28 6.26-14.4 4.77-2.1-.54-4.16-1.23-6.19-1.99 2.32-4.38 6.37-7.27 10.29-10.08 2.4-3.71 4.1-7.89 7.26-11.08-.47-.07-1.41-.2-1.88-.26 1.28-5.61-.64-11.34-2.22-16.7-1.25-3.58-2.53-7.35-5.32-10.06 1.08 4.32 3.4 8.21 4.41 12.56-2.75-3.3-4.16-7.39-5.37-11.44-.73-2.59-3.68-3.73-4.4-6.35-.94-3.48-4.09-6.01-4.4-9.69.66-2.51 2.98-4.25 3.37-6.88.42-4.04 4.49-5.77 7.3-8.02m-4.05 6.67c1.86 1.58 3.6 3.32 5.65 4.67-.37-1.69-1.63-2.84-2.77-4.04-.72-.16-2.16-.47-2.88-.63M104.4 231c1.73-.78 3.36-1.75 5.1-2.51 2.96-.75 6.71-.48 8.35-3.63-4.55 1.98-11.48.25-13.45 6.14m-4.5 2.84c1.06.52 2.12 1.05 3.18 1.59-.8-2.54-1.48-5.12-2.43-7.6-.86 1.89-.93 3.97-.75 6.01m7.44 6.75c2.16 3.94 3.98 8.06 5.63 12.24-.57-4.48-2.77-8.49-4.36-12.66-.32.1-.95.31-1.27.42m3.81 40.84c1.66-2.93 2.43-6.27 2.99-9.56-1.82 2.86-3.13 6.11-2.99 9.56z"/></g><g fill="#333"><path d="M147.79 28.02c.54.15 1.63.46 2.18.61.94 30.79.1 61.6.44 92.4.12 4.7-.34 9.38-.29 14.07.91.19 2.73.55 3.64.73-.25-6.26-.77-12.51-.66-18.78.3-19.03 0-38.06.12-57.08.04-10.14-.1-20.33.97-30.41.97 28.44.34 56.92.49 85.38.05 6.93-.07 13.87-.2 20.8l3.99-1.35c.4-35.06-.07-70.13.48-105.19 2.17.71 1.52 3.08 1.72 4.74-.05 32.01-.03 64.03-.09 96.04.1 4 1.2 7.95.82 11.98.09 3.21-1.46 6.45-.21 9.57 1.69-6.24 3.77-13.16 9.3-17.08 3.68-2.67 8.61-1.94 12.63-.6 5.84 3.52 7.32 10.91 8.7 17.08.93 3.06.21 6.12-.66 9.07-3.01-.38-5.99-.94-8.98-1.43-1.57-.7-1.98 1.31-2.72 2.16 7.34 1.32 14.7 2.62 22.13 3.31l.4-2.59c-3.05-.44-6.11-.87-9.2-.9-.05-1.08-.12-2.16-.2-3.24 3.94 2.06 8.59 2.07 12.94 2.39 1.49 2.29 1.56 5.24-.63 7.15-4.44-.68-8.89-1.34-13.35-1.85-.87 7.14-3.52 14.68-9.11 19.48-2.94 2.69-7 1.67-10.57 1.64-3.2.21-5.38-2.7-7.02-5.04-1.61-2.15-1.89-5.09-3.57-7.11-1.14 8.64-.86 17.37-.67 26.07-.37 28-.1 56-.33 84-.02 1.68-.37 3.32-.68 4.97-.36 0-1.08-.01-1.44-.01-.72-9.64.23-19.29-.25-28.94.33-26.63.5-53.26.43-79.89-1.07.25-2.14.51-3.21.77-.7 36-.58 72.03-.1 108.03-.47.01-1.4.02-1.87.03-.39-27.64-.24-55.31-.17-82.97.64-8.15.53-16.33.51-24.51-1.23-.42-2.46-.84-3.69-1.25.28 36.2.12 72.4.06 108.6-.53-.03-1.59-.11-2.12-.15-.03-35.22-.01-70.45-.01-105.67 0-2.77-.76-5.46-1.17-8.18a24.3 24.3 0 01-5.74 10.87c-3.18 3.28-4.61 8.18-8.97 10.23-4.77-1.35-8.13-5.04-11.51-8.41 1.85 4.12.8 8.79 3.05 12.75 5.66 2.57 5.63 9.34 6.6 14.59.91 3.86-1.3 7.28-2.1 10.91-2.46 3.03-5.57 5.71-9.34 6.91-1.47.82-3.03.28-4.27-.68-1.36.36-2.7.74-4.04 1.17 5.35 4.41 8.72 10.98 9.27 17.89.92 5.72.55 11.81 3.28 17.08 1.14 2.8 3.34 5.64 2.36 8.81-1.4 4.58-5.97 6.88-8.78 10.46-1.72 1.76-2.97 4.27-5.49 4.99-6.45 2.17-13.68.85-19.19-3.05 1.31-5.71 6.73-8.4 10.51-12.24 2.22-3.68 6.18-7.26 5.04-11.97-1.56-7.57-6.57-13.81-8.5-21.24-.74-3.07-3.79-4.8-4.8-7.74-1.11-3.05-2.14-6.14-3.14-9.23-3.49.6-6.95 1.44-10.48 1.85 3.8 3.67 7.28 7.93 8.71 13.12 1.27 4.88 2.96 9.63 4.91 14.27 1.51 4.08 6.14 6.26 6.87 10.72.77 2.05-.19 4.06-.78 6.02-2.86 1.12-5.96 1.36-8.87 2.3-2.51.95-3.88 3.38-5.76 5.14-4.98 3.16-11.21 2.9-16.58.83-.56-1.11-1.05-2.25-1.48-3.4 2.17-3.5 5.59-5.96 7.92-9.33 1.32-2.02 3.02-3.72 4.58-5.54.89-7.8-5.96-13.32-8.86-19.93-3.34-7.38-11.41-13.36-10-22.26 1.35-3.41 5.05-4.92 7.12-7.8 2.07-2.96 5.01-5.07 7.68-7.42 5.98-1.35 10.95 2.79 14.65 6.94 1.7 2.67 2.93 6.76-.11 8.98-.41-2.62-.55-5.4-2.06-7.68-1.62-3.09-4.91-4.6-7.47-6.76-4.69-.66-8.36 2.47-10.9 6.02-2.16 3.23-6.55 4.89-7.19 9.06-1.51 4.95 2.75 8.96 5.07 12.86 3.93 4.51 4.91 10.76 8.95 15.2 2.56 3.83 6.63 7.85 5.2 12.88-1.68 1.95-3.6 3.68-5.26 5.67-2.58 3.09-6.51 5-8.14 8.86L70 280.2l5.19 1.14c3.26-.76 6.88-1.25 9.13-4.02 3.84-4.24 10-4.02 14.76-6.62.43-6.32-5.83-9.61-7.7-15.05-1.52-4.26-3.58-8.33-4.63-12.75-1.16-5.17-4.93-9.13-7.56-13.58 3.35-2.59 7.59-3.2 11.54-4.36 1.83-4.36 2.07-10.02 6.76-12.49 5.19-4.51 13.43-2.61 17.38 2.61 3.4 3.66 9.12 8.18 6.6 13.75 2.28-.4 3.73-2.64 4.31-4.73.75-3.03 2.75-5.9 2.01-9.14-.67-3.63-1.48-7.23-2.02-10.88-1.32-1.01-2.65-1.99-3.99-2.96-.16-.77-.49-2.32-.65-3.09-.9.8-1.8 1.61-2.7 2.43.22 4.4-4.7 4.75-7.79 6.11 1.71-2.05 4.22-3.09 6.44-4.46-4.6 1.33-9.28 2.99-14.13 2.75-3.66-.55-7.27-1.42-10.88-2.2-.97.72-1.56 2.24-2.9 2.32-3.9.13-7.81-.31-11.71 0l-.06-.98c3.7-.33 7.42-.46 11.11-.91.83-1.05 1.68-2.09 2.56-3.1-1.54-1.54-2.87-3.27-4.1-5.06-1.5-2.11-4.03-3.32-5.27-5.63-.73-2.25-.48-4.69-.9-7-2.16 2.6-3.75 6.1-7.2 7.22-1.92.7-4.5 2.05-6.18.18-3.58-3.94-7.15-8.33-8.22-13.69-1.6-6.48-.98-13.24-2.5-19.74l-1.13.31c-.5-2.32-.79-4.71-.14-7.04-.88-.61-1.31-1.41-1.29-2.4a7.86 7.86 0 013.97.06c-.1 1.95-.69 3.97.09 5.86 2.03 5.41 1.7 11.28 1.49 16.95-.18 3.45 1.39 6.62 2.67 9.73 1.62 3.79 5.2 6.1 7.87 9.08 3.6-1.49 6.47-4.14 9.36-6.68-1.8-1.71-3.7-3.41-4.89-5.62-1.28-2.68-.66-5.72-.67-8.57 1.83-1.86 3.17-4.33 5.68-5.38-.78 2.26-2.02 4.32-3.55 6.15.03 2.13-.18 4.29.15 6.41.77 2.62 3.08 4.34 4.77 6.35.5-.56 1.01-1.12 1.51-1.68l2.74-.15c.09.35.26 1.03.35 1.38-1.09.54-2.18 1.1-3.24 1.71.96 1.76.76 3.76.98 5.68 1.64 2.71 5.14 3.62 6.56 6.49 1.94 3.52 5.77 5.3 8.35 8.28 7.41.07 15.99-.27 21.25-6.31.49-3.39-.21-6.74-.8-10.07-3.13-3.29-6.17-6.89-7.26-11.41-.9-.42-1.8-.83-2.69-1.25.58-1.44 1.21-2.88 2.21-4.07 1.95 3.77 2.9 8.08 5.59 11.46 2.26 3.11 6.23 4.36 8.48 7.5 1.73 2.45 4.6 3.56 7.09 5.05 3.5-2.57 5.2-6.73 7.88-10.04 6.95-9.85 7.01-22.32 6.76-33.88-3.21-.29-6.41-.61-9.59-1.12-1.26 1.54-2.48 3.11-3.78 4.6.61-2.35 1.01-5.49 3.62-6.49 3.2.29 6.36 1.02 9.57 1.36.26-4.29.04-8.6.28-12.89 1.29-2.69.69-5.75.81-8.62 0-33-.07-65.99.04-98.99m27.2 106.17c-2.38 1.5-4.97 2.87-6.71 5.16-4.17 5.31-5.59 12.17-6.7 18.65.5 7.76.45 16.39 5.48 22.81 2.85 4.16 8.51 3.27 12.81 2.68 7.17-3.43 8.22-12.15 10.95-18.74-3.66-.47-7.39-.7-10.95-1.72-2.86-1.26-.58-5.08.17-7.13 3.4.5 6.81 1.02 10.14 1.94.34-.71.67-1.41 1-2.12-1.19-6.6-2.05-13.92-6.99-18.93-2.32-2.61-6.1-1.94-9.2-2.6m-25.72 2.83c-.07 13.62-.01 27.24.01 40.86 1.15.4 2.3.8 3.46 1.19 1.09-13.73.55-27.52.58-41.28-1.35-.27-2.7-.52-4.05-.77m5.61.63c-.42 9.45.57 18.9.11 28.35-.25 4.33-.35 8.68-.33 13.03 1.38-.36 2.76-.72 4.14-1.1.08-3.02.08-6.04.03-9.06.25.74.74 2.23.99 2.98.25-.02.74-.05.99-.07.29-1.6-.23-3.18-.46-4.75-1.56-1.19-1.45-3.27-1.49-5.01.02-8.57.03-17.14.03-25.71-1.34.44-2.68.89-4.01 1.34m-52.16 73.41c-2.81 2.25-6.88 3.98-7.3 8.02-.39 2.63-2.71 4.37-3.37 6.88.31 3.68 3.46 6.21 4.4 9.69.72 2.62 3.67 3.76 4.4 6.35 1.21 4.05 2.62 8.14 5.37 11.44-1.01-4.35-3.33-8.24-4.41-12.56 2.79 2.71 4.07 6.48 5.32 10.06 1.58 5.36 3.5 11.09 2.22 16.7.47.06 1.41.19 1.88.26-3.16 3.19-4.86 7.37-7.26 11.08-3.92 2.81-7.97 5.7-10.29 10.08 2.03.76 4.09 1.45 6.19 1.99 5.12 1.49 11.27-.37 14.4-4.77 2.79-3.43 6.73-5.66 9.5-9.12-.07-2.24-.68-4.37-1.68-6.36-.31.83-.92 2.48-1.23 3.3-.29-.1-.88-.32-1.17-.43.82-6.31-1.69-12.43-1.86-18.73-.46-8.72-5.58-16-10.12-23.1 4.57-.6 9.2-1.94 12.39-5.47-1.78-5.25-5.61-9.3-9.51-13.07-2.14-1.92-5.13-2.21-7.87-2.24zM41.63 35h2.19c-.28 15.3.66 30.6.05 45.9.37 13.38.37 26.77-.03 40.14.12 2.3-.63 5.69 2.45 6.32.26-30.77-.24-61.55.33-92.32l.85.04c.31 30.59.28 61.2.17 91.8.81-.27 2.42-.8 3.23-1.06.02-30.28.21-60.55.22-90.82.46 0 1.36 0 1.82.01-.05 29.01-.08 58.02-.04 87.03.97 8.28.64 16.64.46 24.96.29 7.04.6 14.09-.56 21.07.02 28.98-.04 57.96-.09 86.94-.38 1.88 1.02 5.12-2 5.39-.29-31.76.55-63.55-.17-95.3-.66.48-1.99 1.43-2.65 1.91-.74 13.97.62 27.95-.16 41.91.01 16.37-.01 32.74 0 49.11.18 1.39-.51 2.57-1.28 3.65-1.2-31.59.98-63.22-.16-94.82-.66-.34-1.97-1.01-2.62-1.35-.31 31.58.24 63.17-.19 94.75-.8-2.04-1.93-4.06-1.81-6.32-.01-25.66 0-51.31 0-76.97-.02-4.31.16-8.64-.28-12.94-2.25 1.67-4.3 4.19-7.33 4.29-3.51.09-7.77 1.15-10.42-1.88-5.64-6.11-6.59-14.99-6.3-22.95-4.44-.26-8.84-1.03-13.28-1.35.16-2.12.47-4.21 1.04-6.25 4.32.17 8.67.5 12.85 1.67.94-5.52 2.71-11.08 6.17-15.56 2.08-2.83 5.52-4 8.64-5.28 3.09.78 6.5.68 9.02 2.94-.26-28.22-.02-56.44-.12-84.66m-17.01 89.51c-5.87 9.57-7.21 21.61-4.2 32.37 1.4 4.72 4.54 9.99 10.24 9.65-2.42-2.73-4.84-5.64-5.73-9.27-2.57-9.92-2.14-20.84 2.29-30.17 1.6-2.77 3.16-5.96 6.35-7.15-1.24 3.46-4 6.1-5.28 9.56-3.22 6.95-3.56 14.8-2.87 22.32.41 4.61 2.9 8.57 5.15 12.49l.66-1.35c-.21.76-.65 2.29-.86 3.05 4.17.52 8.61-1.1 10.42-5.08.59-4.79.2-9.64.14-14.44-1.73-.13-3.46-.27-5.19-.38-1.12-2.25-.7-4.55.32-6.73 1.68.13 3.36.26 5.03.4-.01-5.25-.26-10.53.47-15.75.47-2.06-1.61-3.23-2.77-4.55-2.36-.13-4.71-.4-7.04-.79-2.51 1.74-5.4 3.19-7.13 5.82m18.24 3.65c.02 11.81-.27 23.64.29 35.44.68.26 2.05.76 2.73 1.01 1.03-11.91.53-23.87.53-35.8-1.18-.22-2.37-.44-3.55-.65m4.95.46c-.44 8.48.7 16.97.08 25.44-.21 3.56-.22 7.13-.16 10.69 1.19-.46 2.35-.97 3.49-1.53.32-11.75.04-23.53.18-35.3-1.2.23-2.4.47-3.59.7m-41.23 9.64c-.07.54-.2 1.63-.27 2.17 3.72.41 7.42.9 11.14 1.33.06-.77.19-2.31.25-3.08-3.71-.04-7.41-.48-11.12-.42m30.41 2.94c-.34.83-.62 1.69-.83 2.57 1.62.48 3.29.75 4.95 1.06-.07-.8-.22-2.41-.29-3.21l-3.83-.42z"/><path d="M77.26 126.34c4.16-1.8 9.11-2.56 13.41-.8 2.11 1.34 4.22 3.01 5.35 5.29.95 3.39.79 7.08-.46 10.37.84 2.28 1.96 4.45 3.41 6.4 4.71-.28 9.42.26 14.11.7 6.78 1.06 13.76.51 20.46 2.16-1.6 1-3.53.82-5.33.8-7.27-.32-14.47-1.5-21.73-1.96 2.41 2.53 6.04 2.17 9.08 3.32 4.67 2.22 9.94.74 14.87 1.76l1.36-1.16c.15 1.46.2 2.93.53 4.37 1.85 2.35 5.39 3.94 5.17 7.41-.11 7.23-6.4 12.04-11.84 15.78 1.3-1.79 2.68-3.52 4.05-5.24a32.006 32.006 0 00-7.79-7.48c-2.74-1.82-6.14-2.01-9.13-3.25 2.58-.23 5.16-.03 7.73.18-.01-3.79-.95-7.9-3.97-10.45-3.17-1.35-6.76-1.52-9.7-3.44-2.74-1.7-6.02-1.84-9.11-2.42-1.11-2.01-2.41-3.95-3.15-6.14-.43-2.19.7-4.37.69-6.57.61-5.52-4.85-11.01-10.4-10.03-3.18.63-7.42.85-8.45 4.6-3.84 6.47-1.53 13.84-.91 20.78 2.82.34 5.78.84 8.51-.26 3.03-1.03 4.83-4.06 7.84-5.16-1.1 4.44-5.86 5.81-9.02 8.46-5.57.17-8.66 5.72-10.04 10.44l-1.12.28c.37-4.63 2.26-9.4 6.4-11.89-1.77-.95-3.8-1.78-4.82-3.62-.94-2.06-.81-4.39-.94-6.6-2.89-1.58-6.28-1.58-9.49-1.51-2.17-.27-2.88 2.45-4.8 2.86-1.39 0-2.79-.04-4.18-.11.02-.51.07-1.52.09-2.02.82.06 2.46.19 3.28.25 1.18-1.01 2.06-2.79 3.82-2.77 3.74-.26 7.68-.69 11.26.7.2-4.96.49-10.9 4.96-14.03m42.46 28.7c2.23 3.17 3.29 6.96 3.65 10.78 2.83 2.56 5.87 4.98 7.85 8.31 2.14-2.87 4.74-6.19 3.89-10.02-2.09-2.45-4.9-4.6-5.25-8.06-3.32-.82-6.74-1.02-10.14-1.01zM170.1 144.01c1.59-3.26 3.11-7.37 7.09-8.21-1.57 3.39-4.48 5.98-5.81 9.5-3.36 8.37-3.66 17.81-1.87 26.59.66 4.05 3.19 7.39 4.51 11.2-1.6-1.04-3.21-2.25-3.94-4.09-5.01-10.99-4.21-23.89.02-34.99z"/><path d="M67.14 155.98c1.09-2.41 3.12-4.26 4.83-6.24l1.23.2c-.27 2.59-2.63 4.12-4.2 5.96-.41 3.98.53 7.8 2.14 11.41-3.28-2.8-4.18-7.2-4-11.33zM83.99 154.87c.83-.46 1.67-.91 2.51-1.34.86 1.23 1.71 2.48 2.48 3.78-1.72-.71-3.35-1.6-4.99-2.44zM90.35 159.66c5.37-.28 9.89-3.35 14.97-4.67-1.21 2.59-4.49 2.92-6.7 4.38-3.77.85-7.76 1.08-10.84 3.73.84-1.16 1.68-2.32 2.57-3.44zM79 158.23c3.1.28 6.17 1.64 7.23 4.79-2.81-.87-5.17-2.74-7.23-4.79zM101.6 160.7c1.38.92 2.69 1.93 3.97 2.98 1.35.37 2.7.77 4.04 1.19-3.43 1.37-7.02-.67-8.01-4.17zM71.61 167.22l1.28-.44.7.13c-.52 2.09-1.65 3.94-2.39 5.94-.71 2.39-.34 5.13-1.97 7.2-1.11-4.45-.22-9.07 2.38-12.83zM108.19 175.19c.46.73.91 1.47 1.36 2.21-4.58 6.29-13.86 7.46-20.29 3.53 4.19-.18 8.5.7 12.59-.57 2.54-1.11 4.52-3.14 6.34-5.17zM86.68 184.9c3.68.18 8.11-1.7 11.04 1.41 1.93 1.81 4.43 3.21 5.55 5.74-3.35-1.2-5.87-3.76-8.28-6.26-3.58-.44-6.94.76-10.11 2.28.58-1.07 1.19-2.12 1.8-3.17zM102.71 192.51c1.74.78 3.43 1.77 5.33 2.13 1.67-.42 3.25-1.09 4.89-1.57-1.09.82-2.23 1.58-3.38 2.31-2.37 1.24-4.81 3.64-7.7 2.49-3.03-.94-6.21-1.09-9.31-1.73 2.08-.34 4.17-.64 6.26-.9 2.04.62 4.13 1.07 6.27 1.13-.59-.97-1.77-2.9-2.36-3.86zM77 220.96c1.51-3.42 2.56-7.09 4.82-10.13-.93 4.43-1.24 9.74-5.19 12.69-3.5 1.86-8.53.34-9.67-3.74 3.02 1.68 7.13 4.83 10.04 1.18zM81.29 225.26c1.07-3.09 2.78-6.1 5.84-7.58-1.16 3.05-3.49 5.4-5.84 7.58zM98.67 217.73c.72.16 2.16.47 2.88.63 1.14 1.2 2.4 2.35 2.77 4.04-2.05-1.35-3.79-3.09-5.65-4.67zM104.4 231c1.97-5.89 8.9-4.16 13.45-6.14-1.64 3.15-5.39 2.88-8.35 3.63-1.74.76-3.37 1.73-5.1 2.51zM71.88 231.99c-2.78.71-3.01-3.84-1.47-5.37.62 1.75 1.18 3.53 1.47 5.37zM99.9 233.84c-.18-2.04-.11-4.12.75-6.01.95 2.48 1.63 5.06 2.43 7.6-1.06-.54-2.12-1.07-3.18-1.59zM76.76 235.97c2.83 3.46 3.07 8.15 5.45 11.85 1.73 2.7 4.14 4.89 5.84 7.61-3.34-1.73-5.27-5.07-7.34-8.05-2.33-3.34-3.86-7.3-3.95-11.41zM107.34 240.59c.32-.11.95-.32 1.27-.42 1.59 4.17 3.79 8.18 4.36 12.66-1.65-4.18-3.47-8.3-5.63-12.24zM91.06 260.5c4 1.57 3.3 5.99 2.58 9.34-.47-.18-1.41-.56-1.88-.75.3-1.49.61-2.98.94-4.46-.58-1.37-1.14-2.74-1.64-4.13zM83.14 270.72c.79-3.35 1.97-6.62 3.46-9.72 1.36 3.74-1.71 6.76-3.46 9.72zM111.15 281.43c-.14-3.45 1.17-6.7 2.99-9.56-.56 3.29-1.33 6.63-2.99 9.56z"/></g></svg>