<svg width="184pt" height="275pt" viewBox="0 0 184 275" xmlns="http://www.w3.org/2000/svg"><g fill="#FFF"><path d="M0 0h184v275H0V0m47.44 19.42c-3.13 3.88-2.12 9.03-1.52 13.55-.05 2.21 1.66 3.75 2.84 5.41-.14 3.61.05 7.23.73 10.79.01-3.61.31-7.21.09-10.82 2.71 1.83 3.43 5.17 5.54 7.47 3.32 2.15 7.23 3.26 11.17 3.35.44 1.47.96 2.92 1.53 4.35-.86 1.21-1.44 2.8-2.93 3.37-2.73-.72-5.44-1.48-8.26-1.79.46-3.47-2.01-6.16-3.85-8.79-.05.09-.16.28-.22.37 1.26 2.83 2.3 5.75 3.22 8.71-2.71.53-5.42 1-8.12 1.58 2.55 1.86 5.5.22 8.29.06 3.41-.36 6.57 1.39 9.97 1.22.45-1.03.91-2.05 1.37-3.08 3.29-1.08 6.65-2.01 10.14-2.09-2.64-3.24-6.48-.69-9.52.33.05-1.45.09-2.91.11-4.36 2.74.84 5.58 1.26 8.44 1.32l.06-1.54c-2.5-.14-5-.35-7.46-.81 1.79-4.08 2.19-8.56 2.99-12.89.73-4.19-1.63-8.04-1.93-12.15-.17-4.13-4.04-7.52-8.08-7.62-5.07-.47-11.19-.37-14.6 4.06m-8.89 38.4c-4.1 1.94-8.14 4.23-11.24 7.6-2.63 3.61-2.35 8.27-1.84 12.46-1.64 5.18-2.79 10.59-2.73 16.04-.06 5.28 5.05 9.56 3.51 14.97-1.54 6.66-1.57 13.69.39 20.27-8.17 4.12-10.24 14.59-8.63 22.88.99 5.11 5.19 11.01 11.11 9.55.12-.49.35-1.46.46-1.95-1.81.01-3.87.64-5.42-.63-3.61-2.76-5.42-7.5-5.18-11.98-.33-6.5 2.8-12.93 8.08-16.71 1.44 4.27.34 8.73.81 13.08 1.17 3.85 1.9 7.81 2.1 11.84 2.49 2.88 6.26 3.61 9.79 4.45-.25-.81-.51-1.61-.76-2.41-2.25-.78-4.99-.79-6.79-2.46-.54-4.07-1.43-8.06-2.73-11.96.41-5.39-.23-10.75-1.76-15.93-2.23-8.2-.43-16.64 1.33-24.73-.43.22-1.3.65-1.73.86-1.33-3.81-2.91-7.59-3.29-11.65.59.17 1.78.52 2.37.69-.11 2.21.13 4.44 1.09 6.45.4-1.68 1.08-3.35.99-5.11-.35-2.22-3.24-2.73-3.62-4.89.08-2.71.52-5.41 1.31-8.01l2 2.8c-.25-5-2.45-10.34-.32-15.19 2.71-4.14 7.35-6.37 11.5-8.75 3.1-3.49 6.95-6.36 9.58-10.25-4.54 1.37-7.08 5.62-10.38 8.67m39.93-8.64c3.97 2.25 9.18 3.6 10.9 8.35 2.51 3.88.1 8.8 2.39 12.7 1.57 3.02 2.35 6.37 2.37 9.78.22 5.23 5.8 7.7 7.12 12.52 1.88 5.96 3.73 11.96 5.39 17.99.31 4.63 2.12 8.9 3.28 13.34.43 0 1.29.01 1.72.02-5.21 5.59-7.31 13.64-5.83 21.1.65 3.64 2.18 7.63 5.63 9.44 2.78 1.47 6.27.63 8.43-1.55 4.69-4.58 6.36-11.52 5.83-17.9-.49-4.17-1.87-8.78-5.59-11.18-2.32-1.13-5.62-1.94-7.54.39-2.14-4.2-4.09-8.58-4.37-13.36-.31-5.68-2.97-10.82-3.87-16.39-.7-3.92-3.34-7-6.08-9.71-2.73-2.51-2.57-6.44-3.37-9.77-.44-2.78-1.96-5.2-2.67-7.89-.24-3.77.2-7.86-1.99-11.18-1.97-4.42-6.98-7.18-11.75-6.7M67.02 63.3c.58 3.85 2.3 7.64.73 11.52-3.71.96-7.1 2.61-10.26 4.75-4.81 2.05-8.34-2.56-11.96-4.84.56 3.77 4.39 5.85 7.62 7.11 4.93 1.42 7.99-3.6 12.38-4.52 2.39-.35 3.62-2.42 4.28-4.53 1.74-3.34-.77-6.92-2.79-9.49m15 11.56c.55 4.71 2.61 9.31 1.83 14.12-.76 2.73-2.53 5.02-3.89 7.48-.82-.03-2.48-.09-3.3-.11 0-.81.01-2.43.01-3.24-.66-1.04-1.31-2.08-1.94-3.14-.03 2.55.19 5.26-1.13 7.57-2.81.8-6.04-.18-8.49 1.9-1.3-.46-2.61-.9-3.92-1.32 1.29 1.22 2.48 3.72 4.65 2.72 3.45-1.01 7.28-.96 10.18-3.36l2.88 1.23 1.71-2.35c.19 4.43 1.13 8.79 1.19 13.22-5.97 2.64-12.74 4.67-19.26 3-4.63-.76-9.53-.18-13.62-2.98-.75-5.44-.28-11.19-3.33-16.06 2.62-.92 5.49-.49 8.21-.67-.76-.73-1.55-1.41-2.38-2.04-2.03.34-4.06.85-6.05-.08-.79 1.22-1.29 2.57-1.67 3.97l-.89.49c.03-3.1.45-6.19.24-9.29-.22-2.11-.98-4.87-3.73-4.25.61 2.41 2.38 4.63 1.88 7.23-.49 4.07-.1 8.18-.49 12.26-1.23 3.73-3.59 7.09-3.94 11.11.82-1.15 1.64-2.3 2.45-3.45 2.62 5.9 3.03 12.89.65 18.93-.97 2.69-.29 5.73-1.7 8.29-.18-1.19-.54-3.57-.72-4.75-.99 2.95-.36 6 .69 8.84.4-1.73.85-3.44 1.56-5.06.48 2.29 1.45 4.44 2.73 6.4.76-3.57-1.55-6.91-1.21-10.5.53-3.36 2.15-6.51 2.02-9.96.28-4.81-1.02-9.51-2.86-13.9 1.57-3.56 2.33-7.39 3.66-11.04l.39-.68c3.01 4.53 2.44 9.94 2.81 15.08-1.03 1.64-2.14 3.25-3.01 4.99-.34 7.7-.17 15.42-.41 23.13 3.16-5.32 2.65-11.91 1.1-17.65-.93-2.57.48-5.12 1.04-7.59l2.15.6-.12-2.96c2.56 1.29 5.02 3.17 8.01 3.16 4.35.09 8.59 1.3 12.93 1.26 4.26-.59 8.53-1.53 12.52-3.17 1.12 1.25 2.31 2.42 3.56 3.53.09 2.74-.66 5.38-1.03 8.06 1.65 4.54 4.17 8.81 4.75 13.68.16 2.21 1.34 4.09 2.51 5.91-4.38 1.72-7.16 6.12-11.9 7.1-3.41 1.2-6.81-.56-10.12-1.23 1.49 2.14 4.11 3.6 6.75 3.41 5.33-.23 10.36-2.76 14.08-6.52.06 4.71.41 9.41.5 14.12-.47-.21-1.41-.64-1.88-.86-.75 2.41-.79 6.05-3.68 6.93-2.57-.8-3.79-3.34-5.08-5.46.52 2.5 1.18 5.29 3.51 6.74 3.36.8 5.11-2.86 6.53-5.18.71 1.53 1.72 2.99 1.97 4.68-.06 2.96-1.39 5.76-1.28 8.74.12 3.37-1.13 6.73-.21 10.07 1.13 4.94 1.4 10.04 1.02 15.1-.41 4.42 1.01 8.7 2.04 12.93.93 1.54 2.5 2.55 3.73 3.83 2.8 2.51 4.56 6.05 7.77 8.13 2.92 2.3 7.67 1.23 9.5 5-1.88 1.06-3.64 2.34-5.62 3.2-2.67.14-5.33-.45-8.01-.34-2.68-1.7-5.55-3.53-8.89-3.06-3.23-.27-7.18 1.42-9.87-1-.87-4.93.7-9.94 1.67-14.76.21-6.01.88-12.7-2.93-17.82-2.3-5.96-2.82-12.75-1.41-19.02.35 1.54.72 3.07 1.11 4.61 3.33-3.1-.21-6.78-1.38-9.97-1.61-3.05-.37-6.78-2.19-9.73-2.33-3.79-3.95-8.4-8.18-10.52.11-1.92.18-3.84.25-5.76 2.02-.92 4.12-1.72 6.36-1.95 1.93-2.41 3.29-5.25 3.75-8.32-1.76 1.98-3.19 4.21-4.5 6.5-2.43.59-5.03 1.02-7.13 2.46-1.46 2.27.56 6.15-2.23 7.75-1.52 1.13-3.27 1.89-4.91 2.83 1.36-6.55.8-14.33-4.18-19.29-2.52-1.64-6.22-2.63-8.77-.52-5.22 4.27-7.23 11.34-7.41 17.85.59 4.27 1.33 9.23 4.97 12.05-3.38 5.69-3.31 12.46-4.13 18.82-1.75 5.23-3.93 10.43-4.53 15.97-.01 6.24 2.46 12.11 3.51 18.19.53 4.04.29 8.2-.7 12.15.65 2.26 1.47 4.51 1.57 6.89.16 3.13 2.41 5.67 2.75 8.78-.09 6.31 7.09 9.61 12.61 8.98 3.1.07 5.07-2.82 8.09-3.03 2.52-.19 2.13-3.06 1.75-4.83-1.3-2.25-2.7-4.49-4.61-6.29-2.72-2.54-3.99-6.13-5.98-9.19-3.79-6.17-3.03-13.8-2.19-20.67.34-3.45 2.45-6.42 2.87-9.85.29-4.38-.17-8.78.07-13.16.48-4.45 2.4-8.55 3.64-12.81.66-2.79 2.87-4.8 3.94-7.41 1.7-4.18 2.14-8.72 2.39-13.18.84-.78 1.69-1.56 2.53-2.34 1.93 5.09 6.83 9.07 6.47 14.88-.42 3.82 3.68 6.61 2.56 10.41-1.05 4.48-.93 9.09-1.38 13.63 1.91 5 5.26 9.5 5.93 14.93 1.57 8.04-4.55 15.62-1.97 23.63 2.8 2.32 6.58 2.38 9.96 1.63 4.45-1.27 7.55 3.43 11.82 3.36 2.8.11 5.78 1.03 8.38-.46 1.85-.97 4.55-1.23 5.32-3.48 1.56-2.28-1.5-3.95-2.63-5.65-5.45.31-9.32-3.7-12.44-7.61-1.66-2.39-5.23-3.35-5.71-6.47-2.41-9.17.31-18.93-2.59-28.03.08-4.68-.5-9.52 1.08-14.03 1.3-3.47-1.9-6.44-1.57-9.88.22-4.69-.19-9.37-.9-14 1.04-.49 2.09-.99 3.13-1.5-1.02-2.25-2.82-4.16-3.22-6.67-.86-6.13-4.93-11.39-4.89-17.71.59.74 1.18 1.5 1.76 2.26 1.73-1.71 4.11-3.05 4.74-5.58-1.96.84-3.68 2.13-4.95 3.86-.48-1.99-.57-4.04-.82-6.06-1.07-1.19-2.68-2.15-2.85-3.89-.97-4.54-.88-9.22-.75-13.85.05-3.47 2.55-6.32 2.86-9.74-.57-4.86-2.61-9.58-1.62-14.54 1.58.44 3.17.88 4.78 1.23-1-1.21-2.12-2.31-3.26-3.39-.19-.67-.58-2.03-.77-2.7-1 2.37-1.95 4.77-3.02 7.12m-11.25-2.68c.58 5.39 8.79 4.24 11.02.62-2.13.25-4.19.84-6.21 1.53-1.59-.74-3.18-1.5-4.81-2.15m19.03 3.19c.28 3.74 2.15 7.05 3.03 10.64.28 3.52-.86 7-.41 10.54 1.24-2.92 2.07-6.1 1.93-9.28-.64-4.23-2.36-8.25-4.55-11.9m-16.25 5c-.5-.26-1.5-.79-1.99-1.05.71.82 1.44 1.63 2.19 2.43.01 1.24.05 2.5-.08 3.74-3.05.65-5.75 2.09-8.34 3.77-1.06.62-1.95 1.85-3.3 1.76-1.66-.67-3.16-1.67-4.76-2.46.75 2.97 3.53 3.77 6.15 4.26 2-1.96 4.56-3.11 6.86-4.66.67-.05 2-.13 2.67-.17.38-.4 1.15-1.18 1.53-1.58 3.05.47 6.11.93 9.16 1.35-2.01-2.54-5.21-2.99-8.26-2.72-.42-1.45-.88-2.88-1.36-4.31.54-.52 1.6-1.57 2.13-2.09 1.3.45 2.62.87 3.94 1.25-1.15-.86-2.18-1.96-3.56-2.44-1.73-.11-2.19 1.79-2.98 2.92m-10.12 3.51c-1.15.85-1.97 2.03-2.64 3.28 1.68-.93 3.29-1.99 4.87-3.09 1.05-2.15 2.77-3.85 4.19-5.74-3.5-.63-4.68 3.38-6.42 5.55m-29.71-2.59c.01 1.16.02 2.31.02 3.47 1.58-1.6 3.22-3.15 4.72-4.83-1.59.4-3.17.88-4.74 1.36m11.54 5.98c2.82 1.91 6.09 1.99 9.24.87-1.72-3.75-7.62 1.52-8.04-3.6.68-.17 2.05-.49 2.73-.65l-1.39-1.55c-1.47 1.3-2.53 2.91-2.54 4.93m13.83 8.05c-.92-.05-2.76-.15-3.68-.19 1.47 3.39 6.5 2.75 7.04-.93-1.13.36-2.24.73-3.36 1.12m-8.63 1.12c-1.38 3.51 4.51 5.97 7.25 4.24-2.44-1.37-4.78-2.92-7.25-4.24m36.01 2.39c.75 2.99 1.7 5.96 3.11 8.7 2.21 2.82 4.93 5.31 6.52 8.58 1.37 3.31 1.81 6.99 1.22 10.52-.4-.06-1.2-.18-1.59-.24.05 3.68-1.05 7.52.81 10.97.53 2.71 2.25 4.67 4.98 5.31.5.72 1.01 1.43 1.52 2.15.48-.95.97-1.91 1.46-2.86-1.47-.63-3.03-1.1-4.43-1.89-1.1-2.27-2.38-4.56-2.83-7.06.35-3.74 2.36-7.2 1.86-11.03.09-4.79-2.36-9.1-5.6-12.45-3.27-2.92-4.15-7.46-7.03-10.7m-23.92 3.11c-.76 1.18.93 3.14 2.18 2.47.63-1.15-.91-3.32-2.18-2.47m13.03 1.4c-1.57.09-3.13 2.93-1.48 3.8 1.22-.29 3.2-3.17 1.48-3.8m-13.56 1.51c.52 3.71 3.33 7.72 7.49 7.4-2.58-2.38-5-4.93-7.49-7.4m-28.49 2.25c-.79.87.12 3.07 1.41 2.51.89-.88-.15-2.99-1.41-2.51M66.01 118c-5.07.46-9.74-1.74-14.51-3.06-1.34 2.92-3.69 6.29-1.74 9.48.45-2.71 1.33-5.31 2.82-7.63 1.83.66 3.67 1.32 5.49 2.03-1.69 5.06-7.21 6.32-10.36 10.05 4.96-1.26 10.61-4.14 11.67-9.67 7.06 1.83 14.51.3 21.08-2.55.19-.59.58-1.76.78-2.35-4.77 2.18-9.93 3.87-15.23 3.7m1.99 6.23c-3.01.82-6.36 1.41-8.36 4.07 6.82-1.39 13.39-4.35 20.46-4.28l-.05.37c-5.53 2.14-11.94 3.85-15.81 8.64 5.4-2.57 10.83-5.07 16.37-7.34.06-1.18.11-2.37.17-3.55-4.3.44-8.59 1.03-12.78 2.09m-9.79 10.44c-.03.34-.08 1.04-.1 1.38 4.38.31 8.62-1.1 12.99-1.07 4.46-.5 9.7-.26 12.84-4.07-8.39 2.36-17.14 2.63-25.73 3.76m-23.96 4.25c-.34-.46-1.02-1.39-1.36-1.85-3.39.77.81 6.08 1.36 1.85m-23.02 30.35c.61.48.61.48 0 0m73.88 47.97c-.47 2.99-.15 6.08 2.24 8.18-.5-2.64-1.24-5.27-1.04-7.98l-1.2-.2z"/><path d="M50.97 19.11c3.74-2.7 8.52-2.71 12.92-2.46 1.88 1.9 4.44 3.58 4.85 6.45.8 4.94 2.7 9.92 1.32 14.96-.78 3.26-.41 8.93-5.03 8.95-4.04-.92-9.24-1.79-10.83-6.24-.93-2.98-4.41-3.52-6.15-5.84.28-1.69.83-3.31 1.25-4.96l-2.47.88c-.28-4.18.3-9.26 4.14-11.74zM110.24 128.39c1.59-2.58 4.53-3.71 7.03-5.19 9.4 5.67 9.18 19.82 2.48 27.48-1.88 2.43-5.46 3.33-8.16 1.75-2.61-1.64-3.62-4.8-4.36-7.62-.81-5.57-.35-11.7 3.01-16.42zM45.2 141.1c1.66-2.66 4.62-3.98 7.2-5.56 7.96 4.74 8.77 15.47 5.68 23.38-1.4 3.82-4.57 7.98-9.12 7.49-4.07-.69-5.96-4.96-6.74-8.56-.75-5.68-.38-11.9 2.98-16.75z"/><path d="M60.22 156.63c1.44.08 2.89.14 4.34.15-.6 6.03-2.18 12-5.73 17-1.24-1.85-2.29-3.82-3.23-5.84-.88.65-1.75 1.3-2.62 1.96l-4.26.09c-.16 1.87-.3 3.73-.21 5.61.48-1.15.95-2.29 1.39-3.45 1.98-.44 3.95-.91 5.9-1.45.2.7.6 2.1.8 2.81.47.16 1.4.5 1.86.67-2.28 6.36-3.55 13.17-7.15 18.97-2.6 4.32-2.74 9.52-2.12 14.39 1.41-2.28 1.5-4.99 1.67-7.58.18-2.94 1.77-5.51 2.97-8.12.36 4.65 1.04 9.62-1.14 13.97-3.06 6.02-3.24 13.15-1.93 19.67 1.14 5.72 4.64 10.47 7.46 15.45 2.45 3.03 5.34 5.79 6.97 9.4-1.86 1.92-4.23.79-5.26-1.27-.87-2.04-3.27-.97-4.91-1-2.53.44-5.44-.53-7.55 1.34 3.48.72 7.03.85 10.54.28.54.38 1.61 1.16 2.14 1.54-2.06 1.34-4.31 3.45-6.99 2.61-2.83-.5-5.18-2.25-6.93-4.45-.29-6.15-3.86-11.47-5.04-17.43.21-2.65 1.08-5.24.94-7.92.18-7.93-4.52-15.07-4.13-23.02.23-4.96 2.08-9.71 4.37-14.06 1.32 2.92 1.53 6.65 4.25 8.74-1.23-5.57-3.26-11.01-3.61-16.74.18-3.37 1.24-6.64 2.47-9.76 1.33-2.28 4.37-.44 6.44-1.16 4.73-1.78 7.1-6.81 8.3-11.4m-9.7 22.66c-1.2 3.17 3.18 2.16 4.81 1.47-1.55-.65-3.14-1.25-4.81-1.47m-6.76 54.77c2.93-2.15 4.27-5.59 5.65-8.81-3.5 1.44-4.68 5.49-5.65 8.81z"/></g><g fill="#333"><path d="M47.44 19.42c3.41-4.43 9.53-4.53 14.6-4.06 4.04.1 7.91 3.49 8.08 7.62.3 4.11 2.66 7.96 1.93 12.15-.8 4.33-1.2 8.81-2.99 12.89 2.46.46 4.96.67 7.46.81l-.06 1.54c-2.86-.06-5.7-.48-8.44-1.32-.02 1.45-.06 2.91-.11 4.36 3.04-1.02 6.88-3.57 9.52-.33-3.49.08-6.85 1.01-10.14 2.09-.46 1.03-.92 2.05-1.37 3.08-3.4.17-6.56-1.58-9.97-1.22-2.79.16-5.74 1.8-8.29-.06 2.7-.58 5.41-1.05 8.12-1.58-.92-2.96-1.96-5.88-3.22-8.71.06-.09.17-.28.22-.37 1.84 2.63 4.31 5.32 3.85 8.79 2.82.31 5.53 1.07 8.26 1.79 1.49-.57 2.07-2.16 2.93-3.37-.57-1.43-1.09-2.88-1.53-4.35-3.94-.09-7.85-1.2-11.17-3.35-2.11-2.3-2.83-5.64-5.54-7.47.22 3.61-.08 7.21-.09 10.82-.68-3.56-.87-7.18-.73-10.79-1.18-1.66-2.89-3.2-2.84-5.41-.6-4.52-1.61-9.67 1.52-13.55m3.53-.31c-3.84 2.48-4.42 7.56-4.14 11.74l2.47-.88c-.42 1.65-.97 3.27-1.25 4.96 1.74 2.32 5.22 2.86 6.15 5.84 1.59 4.45 6.79 5.32 10.83 6.24 4.62-.02 4.25-5.69 5.03-8.95 1.38-5.04-.52-10.02-1.32-14.96-.41-2.87-2.97-4.55-4.85-6.45-4.4-.25-9.18-.24-12.92 2.46z"/><path d="M38.55 57.82c3.3-3.05 5.84-7.3 10.38-8.67-2.63 3.89-6.48 6.76-9.58 10.25-4.15 2.38-8.79 4.61-11.5 8.75-2.13 4.85.07 10.19.32 15.19l-2-2.8c-.79 2.6-1.23 5.3-1.31 8.01.38 2.16 3.27 2.67 3.62 4.89.09 1.76-.59 3.43-.99 5.11-.96-2.01-1.2-4.24-1.09-6.45-.59-.17-1.78-.52-2.37-.69.38 4.06 1.96 7.84 3.29 11.65.43-.21 1.3-.64 1.73-.86-1.76 8.09-3.56 16.53-1.33 24.73 1.53 5.18 2.17 10.54 1.76 15.93 1.3 3.9 2.19 7.89 2.73 11.96 1.8 1.67 4.54 1.68 6.79 2.46.25.8.51 1.6.76 2.41-3.53-.84-7.3-1.57-9.79-4.45-.2-4.03-.93-7.99-2.1-11.84-.47-4.35.63-8.81-.81-13.08-5.28 3.78-8.41 10.21-8.08 16.71-.24 4.48 1.57 9.22 5.18 11.98 1.55 1.27 3.61.64 5.42.63-.11.49-.34 1.46-.46 1.95-5.92 1.46-10.12-4.44-11.11-9.55-1.61-8.29.46-18.76 8.63-22.88-1.96-6.58-1.93-13.61-.39-20.27 1.54-5.41-3.57-9.69-3.51-14.97-.06-5.45 1.09-10.86 2.73-16.04-.51-4.19-.79-8.85 1.84-12.46 3.1-3.37 7.14-5.66 11.24-7.6zM78.48 49.18c4.77-.48 9.78 2.28 11.75 6.7 2.19 3.32 1.75 7.41 1.99 11.18.71 2.69 2.23 5.11 2.67 7.89.8 3.33.64 7.26 3.37 9.77 2.74 2.71 5.38 5.79 6.08 9.71.9 5.57 3.56 10.71 3.87 16.39.28 4.78 2.23 9.16 4.37 13.36 1.92-2.33 5.22-1.52 7.54-.39 3.72 2.4 5.1 7.01 5.59 11.18.53 6.38-1.14 13.32-5.83 17.9-2.16 2.18-5.65 3.02-8.43 1.55-3.45-1.81-4.98-5.8-5.63-9.44-1.48-7.46.62-15.51 5.83-21.1-.43-.01-1.29-.02-1.72-.02-1.16-4.44-2.97-8.71-3.28-13.34-1.66-6.03-3.51-12.03-5.39-17.99-1.32-4.82-6.9-7.29-7.12-12.52-.02-3.41-.8-6.76-2.37-9.78-2.29-3.9.12-8.82-2.39-12.7-1.72-4.75-6.93-6.1-10.9-8.35m31.76 79.21c-3.36 4.72-3.82 10.85-3.01 16.42.74 2.82 1.75 5.98 4.36 7.62 2.7 1.58 6.28.68 8.16-1.75 6.7-7.66 6.92-21.81-2.48-27.48-2.5 1.48-5.44 2.61-7.03 5.19z"/><path d="M67.02 63.3c2.02 2.57 4.53 6.15 2.79 9.49-.66 2.11-1.89 4.18-4.28 4.53-4.39.92-7.45 5.94-12.38 4.52-3.23-1.26-7.06-3.34-7.62-7.11 3.62 2.28 7.15 6.89 11.96 4.84 3.16-2.14 6.55-3.79 10.26-4.75 1.57-3.88-.15-7.67-.73-11.52z"/><path d="M82.02 74.86c1.07-2.35 2.02-4.75 3.02-7.12.19.67.58 2.03.77 2.7 1.14 1.08 2.26 2.18 3.26 3.39-1.61-.35-3.2-.79-4.78-1.23-.99 4.96 1.05 9.68 1.62 14.54-.31 3.42-2.81 6.27-2.86 9.74-.13 4.63-.22 9.31.75 13.85.17 1.74 1.78 2.7 2.85 3.89.25 2.02.34 4.07.82 6.06 1.27-1.73 2.99-3.02 4.95-3.86-.63 2.53-3.01 3.87-4.74 5.58-.58-.76-1.17-1.52-1.76-2.26-.04 6.32 4.03 11.58 4.89 17.71.4 2.51 2.2 4.42 3.22 6.67-1.04.51-2.09 1.01-3.13 1.5.71 4.63 1.12 9.31.9 14-.33 3.44 2.87 6.41 1.57 9.88-1.58 4.51-1 9.35-1.08 14.03 2.9 9.1.18 18.86 2.59 28.03.48 3.12 4.05 4.08 5.71 6.47 3.12 3.91 6.99 7.92 12.44 7.61 1.13 1.7 4.19 3.37 2.63 5.65-.77 2.25-3.47 2.51-5.32 3.48-2.6 1.49-5.58.57-8.38.46-4.27.07-7.37-4.63-11.82-3.36-3.38.75-7.16.69-9.96-1.63-2.58-8.01 3.54-15.59 1.97-23.63-.67-5.43-4.02-9.93-5.93-14.93.45-4.54.33-9.15 1.38-13.63 1.12-3.8-2.98-6.59-2.56-10.41.36-5.81-4.54-9.79-6.47-14.88-.84.78-1.69 1.56-2.53 2.34-.25 4.46-.69 9-2.39 13.18-1.07 2.61-3.28 4.62-3.94 7.41-1.24 4.26-3.16 8.36-3.64 12.81-.24 4.38.22 8.78-.07 13.16-.42 3.43-2.53 6.4-2.87 9.85-.84 6.87-1.6 14.5 2.19 20.67 1.99 3.06 3.26 6.65 5.98 9.19 1.91 1.8 3.31 4.04 4.61 6.29.38 1.77.77 4.64-1.75 4.83-3.02.21-4.99 3.1-8.09 3.03-5.52.63-12.7-2.67-12.61-8.98-.34-3.11-2.59-5.65-2.75-8.78-.1-2.38-.92-4.63-1.57-6.89.99-3.95 1.23-8.11.7-12.15-1.05-6.08-3.52-11.95-3.51-18.19.6-5.54 2.78-10.74 4.53-15.97.82-6.36.75-13.13 4.13-18.82-3.64-2.82-4.38-7.78-4.97-12.05.18-6.51 2.19-13.58 7.41-17.85 2.55-2.11 6.25-1.12 8.77.52 4.98 4.96 5.54 12.74 4.18 19.29 1.64-.94 3.39-1.7 4.91-2.83 2.79-1.6.77-5.48 2.23-7.75 2.1-1.44 4.7-1.87 7.13-2.46 1.31-2.29 2.74-4.52 4.5-6.5-.46 3.07-1.82 5.91-3.75 8.32-2.24.23-4.34 1.03-6.36 1.95-.07 1.92-.14 3.84-.25 5.76 4.23 2.12 5.85 6.73 8.18 10.52 1.82 2.95.58 6.68 2.19 9.73 1.17 3.19 4.71 6.87 1.38 9.97-.39-1.54-.76-3.07-1.11-4.61-1.41 6.27-.89 13.06 1.41 19.02 3.81 5.12 3.14 11.81 2.93 17.82-.97 4.82-2.54 9.83-1.67 14.76 2.69 2.42 6.64.73 9.87 1 3.34-.47 6.21 1.36 8.89 3.06 2.68-.11 5.34.48 8.01.34 1.98-.86 3.74-2.14 5.62-3.2-1.83-3.77-6.58-2.7-9.5-5-3.21-2.08-4.97-5.62-7.77-8.13-1.23-1.28-2.8-2.29-3.73-3.83-1.03-4.23-2.45-8.51-2.04-12.93.38-5.06.11-10.16-1.02-15.1-.92-3.34.33-6.7.21-10.07-.11-2.98 1.22-5.78 1.28-8.74-.25-1.69-1.26-3.15-1.97-4.68-1.42 2.32-3.17 5.98-6.53 5.18-2.33-1.45-2.99-4.24-3.51-6.74 1.29 2.12 2.51 4.66 5.08 5.46 2.89-.88 2.93-4.52 3.68-6.93.47.22 1.41.65 1.88.86-.09-4.71-.44-9.41-.5-14.12-3.72 3.76-8.75 6.29-14.08 6.52-2.64.19-5.26-1.27-6.75-3.41 3.31.67 6.71 2.43 10.12 1.23 4.74-.98 7.52-5.38 11.9-7.1-1.17-1.82-2.35-3.7-2.51-5.91-.58-4.87-3.1-9.14-4.75-13.68.37-2.68 1.12-5.32 1.03-8.06a43.913 43.913 0 01-3.56-3.53c-3.99 1.64-8.26 2.58-12.52 3.17-4.34.04-8.58-1.17-12.93-1.26-2.99.01-5.45-1.87-8.01-3.16l.12 2.96-2.15-.6c-.56 2.47-1.97 5.02-1.04 7.59 1.55 5.74 2.06 12.33-1.1 17.65.24-7.71.07-15.43.41-23.13.87-1.74 1.98-3.35 3.01-4.99-.37-5.14.2-10.55-2.81-15.08l-.39.68c-1.33 3.65-2.09 7.48-3.66 11.04 1.84 4.39 3.14 9.09 2.86 13.9.13 3.45-1.49 6.6-2.02 9.96-.34 3.59 1.97 6.93 1.21 10.5-1.28-1.96-2.25-4.11-2.73-6.4-.71 1.62-1.16 3.33-1.56 5.06-1.05-2.84-1.68-5.89-.69-8.84.18 1.18.54 3.56.72 4.75 1.41-2.56.73-5.6 1.7-8.29 2.38-6.04 1.97-13.03-.65-18.93-.81 1.15-1.63 2.3-2.45 3.45.35-4.02 2.71-7.38 3.94-11.11.39-4.08 0-8.19.49-12.26.5-2.6-1.27-4.82-1.88-7.23 2.75-.62 3.51 2.14 3.73 4.25.21 3.1-.21 6.19-.24 9.29l.89-.49c.38-1.4.88-2.75 1.67-3.97 1.99.93 4.02.42 6.05.08.83.63 1.62 1.31 2.38 2.04-2.72.18-5.59-.25-8.21.67 3.05 4.87 2.58 10.62 3.33 16.06 4.09 2.8 8.99 2.22 13.62 2.98 6.52 1.67 13.29-.36 19.26-3-.06-4.43-1-8.79-1.19-13.22l-1.71 2.35-2.88-1.23c-2.9 2.4-6.73 2.35-10.18 3.36-2.17 1-3.36-1.5-4.65-2.72 1.31.42 2.62.86 3.92 1.32 2.45-2.08 5.68-1.1 8.49-1.9 1.32-2.31 1.1-5.02 1.13-7.57.63 1.06 1.28 2.1 1.94 3.14 0 .81-.01 2.43-.01 3.24.82.02 2.48.08 3.3.11 1.36-2.46 3.13-4.75 3.89-7.48.78-4.81-1.28-9.41-1.83-14.12M45.2 141.1c-3.36 4.85-3.73 11.07-2.98 16.75.78 3.6 2.67 7.87 6.74 8.56 4.55.49 7.72-3.67 9.12-7.49 3.09-7.91 2.28-18.64-5.68-23.38-2.58 1.58-5.54 2.9-7.2 5.56m15.02 15.53c-1.2 4.59-3.57 9.62-8.3 11.4-2.07.72-5.11-1.12-6.44 1.16-1.23 3.12-2.29 6.39-2.47 9.76.35 5.73 2.38 11.17 3.61 16.74-2.72-2.09-2.93-5.82-4.25-8.74-2.29 4.35-4.14 9.1-4.37 14.06-.39 7.95 4.31 15.09 4.13 23.02.14 2.68-.73 5.27-.94 7.92 1.18 5.96 4.75 11.28 5.04 17.43 1.75 2.2 4.1 3.95 6.93 4.45 2.68.84 4.93-1.27 6.99-2.61-.53-.38-1.6-1.16-2.14-1.54-3.51.57-7.06.44-10.54-.28 2.11-1.87 5.02-.9 7.55-1.34 1.64.03 4.04-1.04 4.91 1 1.03 2.06 3.4 3.19 5.26 1.27-1.63-3.61-4.52-6.37-6.97-9.4-2.82-4.98-6.32-9.73-7.46-15.45-1.31-6.52-1.13-13.65 1.93-19.67 2.18-4.35 1.5-9.32 1.14-13.97-1.2 2.61-2.79 5.18-2.97 8.12-.17 2.59-.26 5.3-1.67 7.58-.62-4.87-.48-10.07 2.12-14.39 3.6-5.8 4.87-12.61 7.15-18.97-.46-.17-1.39-.51-1.86-.67-.2-.71-.6-2.11-.8-2.81-1.95.54-3.92 1.01-5.9 1.45-.44 1.16-.91 2.3-1.39 3.45-.09-1.88.05-3.74.21-5.61l4.26-.09c.87-.66 1.74-1.31 2.62-1.96.94 2.02 1.99 3.99 3.23 5.84 3.55-5 5.13-10.97 5.73-17-1.45-.01-2.9-.07-4.34-.15z"/><path d="M70.77 72.18c1.63.65 3.22 1.41 4.81 2.15 2.02-.69 4.08-1.28 6.21-1.53-2.23 3.62-10.44 4.77-11.02-.62zM89.8 75.37c2.19 3.65 3.91 7.67 4.55 11.9.14 3.18-.69 6.36-1.93 9.28-.45-3.54.69-7.02.41-10.54-.88-3.59-2.75-6.9-3.03-10.64zM73.55 80.37c.79-1.13 1.25-3.03 2.98-2.92 1.38.48 2.41 1.58 3.56 2.44-1.32-.38-2.64-.8-3.94-1.25-.53.52-1.59 1.57-2.13 2.09.48 1.43.94 2.86 1.36 4.31 3.05-.27 6.25.18 8.26 2.72-3.05-.42-6.11-.88-9.16-1.35-.38.4-1.15 1.18-1.53 1.58-.67.04-2 .12-2.67.17-2.3 1.55-4.86 2.7-6.86 4.66-2.62-.49-5.4-1.29-6.15-4.26 1.6.79 3.1 1.79 4.76 2.46 1.35.09 2.24-1.14 3.3-1.76 2.59-1.68 5.29-3.12 8.34-3.77.13-1.24.09-2.5.08-3.74-.75-.8-1.48-1.61-2.19-2.43.49.26 1.49.79 1.99 1.05z"/><path d="M63.43 83.88c1.74-2.17 2.92-6.18 6.42-5.55-1.42 1.89-3.14 3.59-4.19 5.74-1.58 1.1-3.19 2.16-4.87 3.09.67-1.25 1.49-2.43 2.64-3.28zM33.72 81.29c1.57-.48 3.15-.96 4.74-1.36-1.5 1.68-3.14 3.23-4.72 4.83 0-1.16-.01-2.31-.02-3.47zM45.26 87.27c.01-2.02 1.07-3.63 2.54-4.93l1.39 1.55c-.68.16-2.05.48-2.73.65.42 5.12 6.32-.15 8.04 3.6-3.15 1.12-6.42 1.04-9.24-.87zM59.09 95.32c1.12-.39 2.23-.76 3.36-1.12-.54 3.68-5.57 4.32-7.04.93.92.04 2.76.14 3.68.19zM50.46 96.44c2.47 1.32 4.81 2.87 7.25 4.24-2.74 1.73-8.63-.73-7.25-4.24zM86.47 98.83c2.88 3.24 3.76 7.78 7.03 10.7 3.24 3.35 5.69 7.66 5.6 12.45.5 3.83-1.51 7.29-1.86 11.03.45 2.5 1.73 4.79 2.83 7.06 1.4.79 2.96 1.26 4.43 1.89-.49.95-.98 1.91-1.46 2.86-.51-.72-1.02-1.43-1.52-2.15-2.73-.64-4.45-2.6-4.98-5.31-1.86-3.45-.76-7.29-.81-10.97.39.06 1.19.18 1.59.24.59-3.53.15-7.21-1.22-10.52-1.59-3.27-4.31-5.76-6.52-8.58-1.41-2.74-2.36-5.71-3.11-8.7zM62.55 101.94c1.27-.85 2.81 1.32 2.18 2.47-1.25.67-2.94-1.29-2.18-2.47zM75.58 103.34c1.72.63-.26 3.51-1.48 3.8-1.65-.87-.09-3.71 1.48-3.8zM62.02 104.85c2.49 2.47 4.91 5.02 7.49 7.4-4.16.32-6.97-3.69-7.49-7.4zM33.53 107.1c1.26-.48 2.3 1.63 1.41 2.51-1.29.56-2.2-1.64-1.41-2.51zM66.01 118c5.3.17 10.46-1.52 15.23-3.7-.2.59-.59 1.76-.78 2.35-6.57 2.85-14.02 4.38-21.08 2.55-1.06 5.53-6.71 8.41-11.67 9.67 3.15-3.73 8.67-4.99 10.36-10.05-1.82-.71-3.66-1.37-5.49-2.03-1.49 2.32-2.37 4.92-2.82 7.63-1.95-3.19.4-6.56 1.74-9.48 4.77 1.32 9.44 3.52 14.51 3.06zM68 124.23c4.19-1.06 8.48-1.65 12.78-2.09-.06 1.18-.11 2.37-.17 3.55-5.54 2.27-10.97 4.77-16.37 7.34 3.87-4.79 10.28-6.5 15.81-8.64l.05-.37c-7.07-.07-13.64 2.89-20.46 4.28 2-2.66 5.35-3.25 8.36-4.07zM58.21 134.67c8.59-1.13 17.34-1.4 25.73-3.76-3.14 3.81-8.38 3.57-12.84 4.07-4.37-.03-8.61 1.38-12.99 1.07.02-.34.07-1.04.1-1.38zM34.25 138.92c-.55 4.23-4.75-1.08-1.36-1.85.34.46 1.02 1.39 1.36 1.85zM11.23 169.27c.61.48.61.48 0 0zM50.52 179.29c1.67.22 3.26.82 4.81 1.47-1.63.69-6.01 1.7-4.81-1.47zM85.11 217.24l1.2.2c-.2 2.71.54 5.34 1.04 7.98-2.39-2.1-2.71-5.19-2.24-8.18zM43.76 234.06c.97-3.32 2.15-7.37 5.65-8.81-1.38 3.22-2.72 6.66-5.65 8.81z"/></g></svg>