<svg width="316" height="275pt" viewBox="0 0 237 275" xmlns="http://www.w3.org/2000/svg"><g fill="#FFF"><path d="M0 0h237v275H0V0m110.93 43.97c-2.5 3.86-2.26 8.81-1.42 13.15-.57 4.18 1.19 8.46-.89 12.45-1.29.23-2.57.76-3.89.73-5.47-2.42-12.33-3.28-17.58.13 2.09 2.25 4.12 4.55 6.03 6.96-3.77-1.44-7.78 1.19-11.36-.66-3.92-1.86-8.45-.53-12.36-2.44 4.61-4.17 11.06-3.55 16.8-3.59-5.24-1.83-11.3-2.94-16.32.16-4.44-.88-8.31-3.76-12.92-3.86-4.65-.58-9.47-.68-13.91-2.29-2.13-.62-2.59-3.1-3.72-4.72 1.23-.51 2.45-1.06 3.65-1.64-.16-3.38 1.01-7.77-2.41-9.94-5.43-2.06-12.98-3.04-17.07 2-.77 2.46-.44 5.16-.64 7.72.59.4 1.78 1.22 2.37 1.62.21-3.23-1.58-7.75 1.68-9.94 3.91-2.26 8.8-1.4 12.69.44 2.06 1.83.71 4.91.9 7.31-.36.44-1.1 1.31-1.47 1.74-.4-.46-1.2-1.39-1.61-1.86-3.42-.76-6.9-.39-10.31.18-2.1 3.4-.92 7.54-1.19 11.3l1.96 2.4c-5.38 1.2-6.32 9.75-1.64 12.34 4.02 1.4 8.38.97 12.51.34.54-.49 1.61-1.48 2.14-1.97.14-2.65.22-5.31.28-7.96-2.76 2.01-2.83 5.51-3.51 8.55-4.25.14-9.68 1.55-12.73-2.32.02-1.86.05-3.71.08-5.56 4.32-1.73 9.13-1.92 13.55-.44.9-.36 1.98-1.26 2.84-.3 6.57 3.74 12.88 8.83 20.66 9.58 3.79 1.05 7.56-1.4 11.37-.22 4.18.44 6.96 4.18 11.07 4.78 2.78.03 5.57-.26 8.34.12 1.07 2.24 2.04 4.57 3.61 6.53 1.55 2.06 1.04 4.83 1.61 7.21.91 2.42 2.56 4.5 3.42 6.94.21 3.04-.15 6.14.55 9.13.19 1.57 1.08 3.16.6 4.75-1.39 2.15-3.7 3.78-4.36 6.35-.23 2.53.73 5.19-.34 7.61-1.47 3.93-2.53 8.01-2.84 12.2.01 2.01-1.54 4.37.22 6.03 1.26-8.13 4.95-15.77 5.06-24.07-.25-3.52 2.71-5.99 4.47-8.69 3.66 1.03 7.5.62 11.22 1.31 1.84.33 3.74.38 5.6.06 3.91-.77 7.96-.31 11.82-1.44 2.13 3.64 3.8 7.55 5.57 11.37.4 7.47 1.16 15.34 5.01 21.92-6.95-.9-13.41 2.65-20.31 2.25-1.11-2.11-2.28-4.19-3.72-6.09 2.16-2.35 4.52-4.5 6.62-6.91-3.66-.54-4.97 4.59-8.68 3.49-2.09-1.29-3.73-3.52-6.39-3.55 1.94 2.4 4.24 4.49 6.27 6.82-1.24 2.14-2.42 4.31-3.53 6.52-4.7-1.32-9.47-2.84-14.41-2.62-2.79.15-5.86-.45-8.29 1.26l1.84 2.48c-.76 4.61-.64 9.28.52 13.8-.31 5.03-.19 10.18-1.77 15.03-.47 4.14-2.33 7.97-2.51 12.15-.46 5.29-1.51 10.52-1.53 15.85-.3 5.53.27 11.3-1.77 16.56-2.13 2.82-4.39 5.55-6.83 8.1-1.66 1.77-4.1 2.53-5.76 4.29-.33 1.55-.35 3.14-.5 4.72 2.47 1.9 5.39 3.58 8.61 3.48 4.27.12 7.9-2.51 11.28-4.78 3.07-.92 6.47-1.39 8.5-4.21-.67-3-2.19-5.87-2.06-9 .17-3.73-1.22-7.48-.21-11.16 1.03-3.88 2.62-7.59 4.02-11.35 3.5-5.96 1.14-13.08 1.66-19.58-.68-4.86 3.83-8.26 3.99-13.01.56-6.75 2.88-13.17 5.8-19.24.47-.07 1.42-.2 1.9-.27.39-3.16 1.44-6.22 1.46-9.43l1.68.09c-.14 3.08.72 6.07 1.1 9.11.84.28 1.67.56 2.51.84.9 2.37 1.86 4.71 2.7 7.11 1.64-2.68.21-5.55-.94-8.07 1.11-.28 2.23-.57 3.35-.85-.68 3.22 1.7 8.08-2.3 9.61 1.96 4.53 2.16 9.54 3.4 14.28.65 2.41 2.39 4.35 3.11 6.73.52 6.04-.46 12.11.06 18.14 1.67 5.41 4.25 10.51 5.81 15.96.56 3.32.15 6.7-.26 10.02 1.3 3.77-2.74 6.9-1.41 10.72 2.19 3.16 6.66 2.23 9.37 4.62 3.87 2.86 9.11 5 13.81 2.9 2.38-.65 5.03-2.4 4.17-5.27.49-3.82-4.14-4.09-6.07-6.44-2.42-2.86-5.05-5.6-7.11-8.74-1.12-3.85-1.23-7.89-1.27-11.87-.41-10.99-1.17-22.03-4.24-32.64-1.44-3.9-.63-8.14-1.47-12.15-.67-2.79.97-5.43.71-8.22.13-3.36-1.1-7.07.98-10.06-1.35-2.49-3.25-4.92-3-7.92-.01-4.43-2.32-8.52-1.81-12.99.71-5.17-3.58-9-5.88-13.21.42-3.95 1.46-7.82 1.4-11.82-.14-2.52 1.17-4.71 2.34-6.82 2.52-5 1.03-11.06 3.95-15.89 3.74-.65 7.77.78 11.28-1.02 2.54-1.2 4.66-3.3 7.55-3.7 4.14-1.51 8.32 1.21 12.46-.01 7.85-.74 13.9-6.33 20.79-9.55 1.92 1.03 3.94-.26 5.92-.44 3.39-.73 6.79.17 9.99 1.23-.25 2.35.75 5.33-1.36 7.06-3.48 1.82-7.61 1-11.36.81-.56-2.55-.89-5.15-1.71-7.64-.35.05-1.05.17-1.4.22-.74 2.2-.14 4.58-.12 6.84.54.49 1.61 1.47 2.14 1.96 4.61.89 9.44.82 13.86-.9 2.63-3.79 2.19-10.5-2.98-11.77.49-.61 1.47-1.81 1.95-2.42-.27-3.75.89-7.88-1.17-11.28-3.42-.59-6.92-.95-10.35-.19-.4.48-1.21 1.43-1.61 1.9l-1.47-1.83c.16-2.37-.96-5.33.94-7.21 4.32-2.16 10.73-3.23 14.16.99.61 2.78.33 5.64.21 8.44.59-.39 1.76-1.19 2.35-1.59-.43-3.3.92-7.8-2.69-9.7-4.64-2.67-10.28-1.82-15.06-.01-3.36 2.19-2.21 6.55-2.37 9.91 1.19.59 2.42 1.11 3.65 1.64-1.15 1.75-1.72 4.32-4.04 4.86-5.34 1.74-11.04 1.7-16.55 2.54-3.37 1.01-6.51 2.71-9.97 3.48-4.63-2.9-10.22-2.07-15.13-.45 5.44-.49 11.27.32 15.61 3.88-4.76 1.94-10.21.73-14.87 3.18 3.4.64 6.85-.08 10.27-.23 2.55-.17 4.33-2.29 6.34-3.61-.24-.41-.71-1.24-.94-1.65 2.72-.64 5.27-1.82 7.93-2.66 5.98-1.17 12.36-.42 18.13-2.66 3.23-.97 3.45-4.73 5.27-7.05 2.43-1.7 5.52-1.26 7.27 1.16-.79 1.37-1.6 2.73-2.46 4.06.81-.07 1.63-.14 2.44-.2.48-1.81.95-3.63 1.4-5.45l.6.04c-.02 4.13.31 8.31-.62 12.37-2.74-.09-5.49-.06-8.23-.35-4.54-.58-8.49 2.41-11.93 4.96-5.47 4.72-12.98 7.2-20.17 5.66 2.1-.99 3.84-2.52 4.48-4.8-3.82 2.47-7.86 5.23-12.68 4.47-4.32 5.77-12.29 4.95-18.67 5.06-1.27 5.44-.98 11.05-2.27 16.48-.35-.43-1.05-1.31-1.4-1.74-.34.27-1.03.82-1.37 1.1l-1.9-1.82c-.99 1.62-2.39 2.53-4.34 2.01-2.54 5.48-2.2 11.67-3.58 17.47 4.8-3.9 2.26-10.57 5.04-15.4 2.19-1.08 4.41-2.23 6.94-1.86-3.06 5.23-1.42 11.65-3.78 17.16-4.58 1.95-9.65 1.16-14.46 1.88-4.76-.75-9.77.09-14.27-1.92-1.62-5.03-3.17-10.5-2.54-15.76.74-.54 1.49-1.05 2.26-1.54 1.36.83 2.74 1.63 4.16 2.38.42 1.36.86 2.71 1.32 4.06-.5 2.97.47 5.84 1.15 8.68.79.67 1.59 1.33 2.38 2-.38-3.88-2.13-7.61-1.65-11.55-.7-1.94-1.43-3.88-2.13-5.83-.74.14-1.47.28-2.2.42-.71-.77-1.48-1.47-2.29-2.11-.46.48-1.38 1.43-1.84 1.9-.24-.23-.71-.7-.95-.93-.53.09-1.58.29-2.11.39-.27-1.81-.5-3.61-.72-5.42 1.07-.86 2.06-1.81 2.95-2.86-1.61-.33-2.58.88-3.66 1.72l.21-1c-2.91-1.45-2.61-5.17-3.11-7.88-6.39-.17-14.35.71-18.69-5.09-4.81.77-8.85-1.98-12.65-4.46.56 2.45 2.59 3.83 4.7 4.89-4.59.51-9.43.55-13.67-1.56-5.91-2.35-9.99-8.25-16.51-9.22-3.47.11-6.93.42-10.4.41-.92-4.26-.8-8.68-.32-12.99.62 2 1.18 4.03 1.73 6.05.7.03 2.1.07 2.79.1-.36-.27-1.1-.79-1.46-1.06-.31-.78-.91-2.33-1.22-3.11 1.36-1.15 2.75-2.74 4.72-1.87 4.31.21 3.42 6.02 6.82 7.54 5.03 2.41 10.82 2 16.23 2.65 3.77.19 7.03 2.33 10.67 3.08-.23.41-.71 1.24-.94 1.65 2.02 1.32 3.8 3.48 6.38 3.6 6.46.11 12.71 2.34 19.22 1.39.21-.59.65-1.76.87-2.35-1.22-1.81-2.6-3.51-4.03-5.14 3.16-.94 6.52-1.32 9.77-.6 2.26.74 4.05 2.35 5.96 3.7 2.36-.2 4.69-.9 7.07-.74 1.3.89 2.47 1.96 3.69 2.96.11-.69 1.24-1.53.33-2.11-1.43-2.1-3.96-2.57-6.27-3.02-1.34.19-2.68.34-4.02.46.84-.27 2.52-.82 3.36-1.1.57-1.42 1.13-2.84 1.82-4.2 2.39-.25 4.54 1.65 6.95 1.01 1.46-.34 2.9-.75 4.33-1.21l1.36-1.72c.03.95.1 2.85.13 3.8 1.24 1.48 2.71 2.73 4.36 3.74-3.83-1.28-10.07-.7-10.37 4.41 1.52-.92 2.94-2 4.47-2.9 2.37-.51 4.77.44 7.1.8 3.79-4.61 10.26-5.09 15.6-3.31-2.57 2.84-4.49 6.17-6.71 9.28 1.05-.63 2.08-1.27 3.1-1.93 3.15.21 6.29.47 9.43.68-1.38-3.36-5.62-1.76-8.38-2.34 1.72-2.58 4.23-4.71 7.52-4.48-5.05-5.39-13.89-5.23-19.84-1.51-1.52-.75-3.04-1.5-4.56-2.26-.06-2.5-.15-5-.29-7.5 1.59-4.49 2.63-9.27 2.03-14.05-.77-3.09-3.37-5.8-6.65-6.09-3.67-.22-8.21-.36-10.53 3.07M26.75 55.58c4.55.12 9.08.42 13.61.83-3.76-2.48-10-4.42-13.61-.83m168.91.85c4.37-.37 8.75-.94 13.15-.58-.19-.43-.58-1.28-.77-1.71-4.2-1.01-8.88-.33-12.38 2.29m-63.45 18.76c2.09 2.27 3.23 5.99 6.44 6.73-3.31 3.05-5.44 7.12-8.73 10.19-.47-.46-1.39-1.38-1.85-1.83-2.03.11-4.06.33-6.08.12-2.01-.51-2.84-2.48-3.47-4.23-1.24 1.8-2.82 3.31-4.51 4.69 2.57.79 4.17-1 5.15-3.17l-.29 3.24c3.98-.44 8.93-.86 11.69 2.69 1.86-3.64 6.29-5.35 7.22-9.53 4.12.34 8.78-.9 11.07-4.62-2.94 1.11-5.72 2.6-8.72 3.56-2.57-2.65-3.51-7.85-7.92-7.84M26.72 80.74c3.61.42 7.24.77 10.88.79-3.09-1.94-7.69-3.04-10.88-.79m171.72.81c3.62-.06 7.24-.39 10.84-.81-3.17-2.22-7.8-1.2-10.84.81m-109.76-.2c2.78 1.73 5.97 3.74 9.29 2.09-3.07-.82-6.15-1.61-9.29-2.09m9.03 1.21c.6 4.95 5.37 7.27 7.87 11.11.85-.93 1.74-1.82 2.63-2.71-.62.18-1.86.55-2.48.74-2.55-3.15-4.97-6.45-8.02-9.14m18.02 11.48c-2.39 1.9-5.39 2.88-7.51 5.14-.69-.99-1.46-1.92-2.31-2.77-1.2.93-2.39 1.88-3.55 2.85.94-.23 2.81-.7 3.75-.94 1.13.95 2.26 1.92 3.38 2.89 1.85-3.6 6.19-4.34 8.73-7.31-.62.04-1.87.11-2.49.14m4.1.4c.6.3 1.81.9 2.42 1.2 2.57 1.57 5.21 3.08 7.04 5.57 1.04-1.03 2.11-2.03 3.19-3.01 1.29.41 2.59.75 3.92 1.02-1.4-1.04-2.9-1.92-4.4-2.79l-1.6 2.52c-1.83-1.39-3.72-2.79-5.95-3.46-.44-.43-1.31-1.28-1.74-1.71-.97.21-1.93.43-2.88.66m-1.71 18.25c.76-1.22 1.53-2.45 2.32-3.66 1.12-.24 2.13-.73 3.03-1.45l-3.48-.04c-.14-4.32 1.37-9.07-1.12-13-.52 6.04-1.14 12.09-.75 18.15m11.73-2.35c2.13-1.07 3.9-2.77 4.58-5.11-2.15 1.05-4.32 2.5-4.58 5.11m-26.02-4.75c1.08 1.51 2.29 2.92 3.54 4.3l1.64-.76c-1.43-1.57-2.93-3.27-5.18-3.54m18.15 20.74c-5.65.44-11.84-1.31-16.96 1.82 8.64-1.05 17.36-.14 26.03-.34 1.24-.92 2.26-2.1 3.35-3.19-4.21.08-8.18 1.91-12.42 1.71m-11.56 6.29c2.81-.05 7.01 1.88 8.77-1.18-2.95-.03-6.01 0-8.77 1.18z"/><path d="M113.24 43.84c3.78-2.09 8.53-1.62 12.07.75.77 7.25 1.33 16.21-5.09 21.21-2.2-.27-4.98.62-6.54-1.42-1.65-1.52-2.54-3.62-3.4-5.65.36-.37 1.08-1.12 1.44-1.49-.43-4.41-1.83-9.78 1.52-13.4zM95.53 157.5c3.2-.94 6.62-.29 9.87.05 2.4 1.19 4.97 1.99 7.51 2.81-1.08 2.24-1.91 4.58-2.82 6.9-.45.05-1.36.17-1.82.22.08 4.88-.24 9.81-1.46 14.55-.79 2.83-2.59 5.24-3.54 8.01-.53 4.99.22 9.99.15 14.99.14 3.65-2.19 6.68-3.07 10.1-1.08 4.6-3.49 9.01-3.04 13.86.03 2.2.83 4.48.24 6.64-1.25 1.21-2.81 2.21-3.42 3.94-.49 1.3-.94 2.63-1.34 3.97 2.49-1.26 3.25-4.04 4.46-6.32 1.51 1.73 2.12 3.96 2.79 6.11-2.39 3.32-7.06 2.14-9.87 4.77-4.16 3.57-10.89 4.01-15.01.12.19-1.22.39-2.44.6-3.65 7.92-1.64 10.16-10.44 15.76-15.2-.66.06-1.99.2-2.66.27 3.42-9.65-.62-20.31 2.58-30.04 1.18-3.69 2.33-7.37 2.97-11.19.34-.38 1.02-1.14 1.36-1.51-.8-4.67-.56-9.51 1.24-13.92-2.05-4.77-3.79-10.51-1.48-15.48m10.03 10.66c-.21-3.31.93-7.35-1.67-9.97-.65 3.44.19 6.86 1.67 9.97m-7.62.78c.4 3.51-1.27 8.6 3.08 10.17 4.93 1.31 7.32-4.92 5.39-8.68-1.15 2.08-1.28 4.48-1.6 6.78-1.52.35-3.28 1.14-4.32-.55-2.77-3.6.16-8.19-.41-12.28-1.04 1.35-2.51 2.67-2.14 4.56m1.73 20.39c.38-2.14.87-4.27 1.13-6.43-3.31.56-3.47 4.55-1.13 6.43M93.7 205.8c-1.34 6.47.92 13.14-.91 19.57.46.88.94 1.78 1.42 2.67-.41-6.36 1.12-12.62.83-18.98-.15-3.91.98-7.76.69-11.67-1.34 2.61-1.51 5.58-2.03 8.41m-7.23 36.94c2.4-2.04 3.77-4.96 4.59-7.94-2.1 2.26-3.9 4.88-4.59 7.94zM133.78 157.03c2.91.08 5.85-.17 8.73.34 2.36 5.08.42 10.68-1.25 15.65 1.64 4.44 1.86 9.18 1.26 13.85 2.64 1.78 1.67 5.21 2.68 7.79 1.32 3.67 2.16 7.49 3.18 11.25-.3 7.83-1.11 15.84.68 23.56-.62-.02-1.85-.05-2.47-.06 5.78 4.53 7.79 13.5 15.68 15.09.24 1.55 1.44 3.47-.32 4.56-4.08 3.09-10.24 2.21-14.03-1-2.76-2.54-7.38-1.4-9.64-4.73.68-2.18 1.4-4.35 2.41-6.4 1.27 2.35 2.01 5.24 4.53 6.61-.54-3.37-2.41-6.21-4.88-8.47.18-3.55 1.49-7.18.29-10.7-1.54-4.51-2.55-9.2-4.39-13.6-3.12-5.53-.69-11.96-1.25-17.92 1.35 1.21 2.61 2.86 4.65 2.62-2.86-4.26-6.87-7.92-8.1-13.09-2.9-7.54-.76-15.62-1.14-23.41.92-.54 1.85-1.07 2.78-1.61 1.22 3.29 3.53 6.01 5.45 8.91.37-3.82-2.19-6.86-4.85-9.24m-2 13.63c-.5 2.41-.29 4.87.19 7.26 2.02.68 4.52 2.29 6.45.53 1.85-1.36 1.7-3.79 1.78-5.81-1.25 1.94-2.53 3.86-3.99 5.65-3.63-.82-3.26-4.89-4.43-7.63m6.22 15.68c.03.79.08 2.37.1 3.16 2.52-1.86 1.98-4.73.59-7.14-1.67.99-1.53 2.46-.69 3.98m-.67 11.1c.4 4.97 1.08 9.92 1.55 14.89.29.44.87 1.31 1.16 1.75.75-4.39-.27-8.77-1.02-13.08-.12-1.37-.85-2.53-1.69-3.56m5.19.14c.12 5.83.59 11.64.5 17.48.88 4.38 1.73 8.72 1.5 13.22 1.35-4.34-.15-8.89.4-13.33.63-5.92-.6-11.76-2.4-17.37m4.43 37.08c1.09 2.94 2.37 5.96 4.74 8.12-.99-2.99-2.31-6.01-4.74-8.12z"/></g><g fill="#333"><path d="M110.93 43.97c2.32-3.43 6.86-3.29 10.53-3.07 3.28.29 5.88 3 6.65 6.09.6 4.78-.44 9.56-2.03 14.05.14 2.5.23 5 .29 7.5 1.52.76 3.04 1.51 4.56 2.26 5.95-3.72 14.79-3.88 19.84 1.51-3.29-.23-5.8 1.9-7.52 4.48 2.76.58 7-1.02 8.38 2.34-3.14-.21-6.28-.47-9.43-.68-1.02.66-2.05 1.3-3.1 1.93 2.22-3.11 4.14-6.44 6.71-9.28-5.34-1.78-11.81-1.3-15.6 3.31-2.33-.36-4.73-1.31-7.1-.8-1.53.9-2.95 1.98-4.47 2.9.3-5.11 6.54-5.69 10.37-4.41a17.753 17.753 0 01-4.36-3.74c-.03-.95-.1-2.85-.13-3.8l-1.36 1.72c-1.43.46-2.87.87-4.33 1.21-2.41.64-4.56-1.26-6.95-1.01-.69 1.36-1.25 2.78-1.82 4.2-.84.28-2.52.83-3.36 1.1 1.34-.12 2.68-.27 4.02-.46 2.31.45 4.84.92 6.27 3.02.91.58-.22 1.42-.33 2.11-1.22-1-2.39-2.07-3.69-2.96-2.38-.16-4.71.54-7.07.74-1.91-1.35-3.7-2.96-5.96-3.7-3.25-.72-6.61-.34-9.77.6 1.43 1.63 2.81 3.33 4.03 5.14-.22.59-.66 1.76-.87 2.35-6.51.95-12.76-1.28-19.22-1.39-2.58-.12-4.36-2.28-6.38-3.6.23-.41.71-1.24.94-1.65-3.64-.75-6.9-2.89-10.67-3.08-5.41-.65-11.2-.24-16.23-2.65-3.4-1.52-2.51-7.33-6.82-7.54-1.97-.87-3.36.72-4.72 1.87.31.78.91 2.33 1.22 3.11.36.27 1.1.79 1.46 1.06-.69-.03-2.09-.07-2.79-.1-.55-2.02-1.11-4.05-1.73-6.05-.48 4.31-.6 8.73.32 12.99 3.47.01 6.93-.3 10.4-.41 6.52.97 10.6 6.87 16.51 9.22 4.24 2.11 9.08 2.07 13.67 1.56-2.11-1.06-4.14-2.44-4.7-4.89 3.8 2.48 7.84 5.23 12.65 4.46 4.34 5.8 12.3 4.92 18.69 5.09.5 2.71.2 6.43 3.11 7.88l-.21 1c1.08-.84 2.05-2.05 3.66-1.72-.89 1.05-1.88 2-2.95 2.86.22 1.81.45 3.61.72 5.42.53-.1 1.58-.3 2.11-.39.24.23.71.7.95.93.46-.47 1.38-1.42 1.84-1.9.81.64 1.58 1.34 2.29 2.11.73-.14 1.46-.28 2.2-.42.7 1.95 1.43 3.89 2.13 5.83-.48 3.94 1.27 7.67 1.65 11.55-.79-.67-1.59-1.33-2.38-2-.68-2.84-1.65-5.71-1.15-8.68-.46-1.35-.9-2.7-1.32-4.06-1.42-.75-2.8-1.55-4.16-2.38-.77.49-1.52 1-2.26 1.54-.63 5.26.92 10.73 2.54 15.76 4.5 2.01 9.51 1.17 14.27 1.92 4.81-.72 9.88.07 14.46-1.88 2.36-5.51.72-11.93 3.78-17.16-2.53-.37-4.75.78-6.94 1.86-2.78 4.83-.24 11.5-5.04 15.4 1.38-5.8 1.04-11.99 3.58-17.47 1.95.52 3.35-.39 4.34-2.01l1.9 1.82c.34-.28 1.03-.83 1.37-1.1.35.43 1.05 1.31 1.4 1.74 1.29-5.43 1-11.04 2.27-16.48 6.38-.11 14.35.71 18.67-5.06 4.82.76 8.86-2 12.68-4.47-.64 2.28-2.38 3.81-4.48 4.8 7.19 1.54 14.7-.94 20.17-5.66 3.44-2.55 7.39-5.54 11.93-4.96 2.74.29 5.49.26 8.23.35.93-4.06.6-8.24.62-12.37l-.6-.04c-.45 1.82-.92 3.64-1.4 5.45-.81.06-1.63.13-2.44.2.86-1.33 1.67-2.69 2.46-4.06-1.75-2.42-4.84-2.86-7.27-1.16-1.82 2.32-2.04 6.08-5.27 7.05-5.77 2.24-12.15 1.49-18.13 2.66-2.66.84-5.21 2.02-7.93 2.66.23.41.7 1.24.94 1.65-2.01 1.32-3.79 3.44-6.34 3.61-3.42.15-6.87.87-10.27.23 4.66-2.45 10.11-1.24 14.87-3.18-4.34-3.56-10.17-4.37-15.61-3.88 4.91-1.62 10.5-2.45 15.13.45 3.46-.77 6.6-2.47 9.97-3.48 5.51-.84 11.21-.8 16.55-2.54 2.32-.54 2.89-3.11 4.04-4.86-1.23-.53-2.46-1.05-3.65-1.64.16-3.36-.99-7.72 2.37-9.91 4.78-1.81 10.42-2.66 15.06.01 3.61 1.9 2.26 6.4 2.69 9.7-.59.4-1.76 1.2-2.35 1.59.12-2.8.4-5.66-.21-8.44-3.43-4.22-9.84-3.15-14.16-.99-1.9 1.88-.78 4.84-.94 7.21l1.47 1.83c.4-.47 1.21-1.42 1.61-1.9 3.43-.76 6.93-.4 10.35.19 2.06 3.4.9 7.53 1.17 11.28-.48.61-1.46 1.81-1.95 2.42 5.17 1.27 5.61 7.98 2.98 11.77-4.42 1.72-9.25 1.79-13.86.9-.53-.49-1.6-1.47-2.14-1.96-.02-2.26-.62-4.64.12-6.84.35-.05 1.05-.17 1.4-.22.82 2.49 1.15 5.09 1.71 7.64 3.75.19 7.88 1.01 11.36-.81 2.11-1.73 1.11-4.71 1.36-7.06-3.2-1.06-6.6-1.96-9.99-1.23-1.98.18-4 1.47-5.92.44-6.89 3.22-12.94 8.81-20.79 9.55-4.14 1.22-8.32-1.5-12.46.01-2.89.4-5.01 2.5-7.55 3.7-3.51 1.8-7.54.37-11.28 1.02-2.92 4.83-1.43 10.89-3.95 15.89-1.17 2.11-2.48 4.3-2.34 6.82.06 4-.98 7.87-1.4 11.82 2.3 4.21 6.59 8.04 5.88 13.21-.51 4.47 1.8 8.56 1.81 12.99-.25 3 1.65 5.43 3 7.92-2.08 2.99-.85 6.7-.98 10.06.26 2.79-1.38 5.43-.71 8.22.84 4.01.03 8.25 1.47 12.15 3.07 10.61 3.83 21.65 4.24 32.64.04 3.98.15 8.02 1.27 11.87 2.06 3.14 4.69 5.88 7.11 8.74 1.93 2.35 6.56 2.62 6.07 6.44.86 2.87-1.79 4.62-4.17 5.27-4.7 2.1-9.94-.04-13.81-2.9-2.71-2.39-7.18-1.46-9.37-4.62-1.33-3.82 2.71-6.95 1.41-10.72.41-3.32.82-6.7.26-10.02-1.56-5.45-4.14-10.55-5.81-15.96-.52-6.03.46-12.1-.06-18.14-.72-2.38-2.46-4.32-3.11-6.73-1.24-4.74-1.44-9.75-3.4-14.28 4-1.53 1.62-6.39 2.3-9.61-1.12.28-2.24.57-3.35.85 1.15 2.52 2.58 5.39.94 8.07-.84-2.4-1.8-4.74-2.7-7.11-.84-.28-1.67-.56-2.51-.84-.38-3.04-1.24-6.03-1.1-9.11l-1.68-.09c-.02 3.21-1.07 6.27-1.46 9.43-.48.07-1.43.2-1.9.27-2.92 6.07-5.24 12.49-5.8 19.24-.16 4.75-4.67 8.15-3.99 13.01-.52 6.5 1.84 13.62-1.66 19.58-1.4 3.76-2.99 7.47-4.02 11.35-1.01 3.68.38 7.43.21 11.16-.13 3.13 1.39 6 2.06 9-2.03 2.82-5.43 3.29-8.5 4.21-3.38 2.27-7.01 4.9-11.28 4.78-3.22.1-6.14-1.58-8.61-3.48.15-1.58.17-3.17.5-4.72 1.66-1.76 4.1-2.52 5.76-4.29 2.44-2.55 4.7-5.28 6.83-8.1 2.04-5.26 1.47-11.03 1.77-16.56.02-5.33 1.07-10.56 1.53-15.85.18-4.18 2.04-8.01 2.51-12.15 1.58-4.85 1.46-10 1.77-15.03-1.16-4.52-1.28-9.19-.52-13.8l-1.84-2.48c2.43-1.71 5.5-1.11 8.29-1.26 4.94-.22 9.71 1.3 14.41 2.62 1.11-2.21 2.29-4.38 3.53-6.52-2.03-2.33-4.33-4.42-6.27-6.82 2.66.03 4.3 2.26 6.39 3.55 3.71 1.1 5.02-4.03 8.68-3.49-2.1 2.41-4.46 4.56-6.62 6.91 1.44 1.9 2.61 3.98 3.72 6.09 6.9.4 13.36-3.15 20.31-2.25-3.85-6.58-4.61-14.45-5.01-21.92-1.77-3.82-3.44-7.73-5.57-11.37-3.86 1.13-7.91.67-11.82 1.44-1.86.32-3.76.27-5.6-.06-3.72-.69-7.56-.28-11.22-1.31-1.76 2.7-4.72 5.17-4.47 8.69-.11 8.3-3.8 15.94-5.06 24.07-1.76-1.66-.21-4.02-.22-6.03.31-4.19 1.37-8.27 2.84-12.2 1.07-2.42.11-5.08.34-7.61.66-2.57 2.97-4.2 4.36-6.35.48-1.59-.41-3.18-.6-4.75-.7-2.99-.34-6.09-.55-9.13-.86-2.44-2.51-4.52-3.42-6.94-.57-2.38-.06-5.15-1.61-7.21-1.57-1.96-2.54-4.29-3.61-6.53-2.77-.38-5.56-.09-8.34-.12-4.11-.6-6.89-4.34-11.07-4.78-3.81-1.18-7.58 1.27-11.37.22-7.78-.75-14.09-5.84-20.66-9.58-.86-.96-1.94-.06-2.84.3-4.42-1.48-9.23-1.29-13.55.44-.03 1.85-.06 3.7-.08 5.56 3.05 3.87 8.48 2.46 12.73 2.32.68-3.04.75-6.54 3.51-8.55-.06 2.65-.14 5.31-.28 7.96-.53.49-1.6 1.48-2.14 1.97-4.13.63-8.49 1.06-12.51-.34-4.68-2.59-3.74-11.14 1.64-12.34l-1.96-2.4c.27-3.76-.91-7.9 1.19-11.3 3.41-.57 6.89-.94 10.31-.18.41.47 1.21 1.4 1.61 1.86.37-.43 1.11-1.3 1.47-1.74-.19-2.4 1.16-5.48-.9-7.31-3.89-1.84-8.78-2.7-12.69-.44-3.26 2.19-1.47 6.71-1.68 9.94-.59-.4-1.78-1.22-2.37-1.62.2-2.56-.13-5.26.64-7.72 4.09-5.04 11.64-4.06 17.07-2 3.42 2.17 2.25 6.56 2.41 9.94-1.2.58-2.42 1.13-3.65 1.64 1.13 1.62 1.59 4.1 3.72 4.72 4.44 1.61 9.26 1.71 13.91 2.29 4.61.1 8.48 2.98 12.92 3.86 5.02-3.1 11.08-1.99 16.32-.16-5.74.04-12.19-.58-16.8 3.59 3.91 1.91 8.44.58 12.36 2.44 3.58 1.85 7.59-.78 11.36.66-1.91-2.41-3.94-4.71-6.03-6.96 5.25-3.41 12.11-2.55 17.58-.13 1.32.03 2.6-.5 3.89-.73 2.08-3.99.32-8.27.89-12.45-.84-4.34-1.08-9.29 1.42-13.15m2.31-.13c-3.35 3.62-1.95 8.99-1.52 13.4-.36.37-1.08 1.12-1.44 1.49.86 2.03 1.75 4.13 3.4 5.65 1.56 2.04 4.34 1.15 6.54 1.42 6.42-5 5.86-13.96 5.09-21.21-3.54-2.37-8.29-2.84-12.07-.75M95.53 157.5c-2.31 4.97-.57 10.71 1.48 15.48-1.8 4.41-2.04 9.25-1.24 13.92-.34.37-1.02 1.13-1.36 1.51-.64 3.82-1.79 7.5-2.97 11.19-3.2 9.73.84 20.39-2.58 30.04.67-.07 2-.21 2.66-.27-5.6 4.76-7.84 13.56-15.76 15.2-.21 1.21-.41 2.43-.6 3.65 4.12 3.89 10.85 3.45 15.01-.12 2.81-2.63 7.48-1.45 9.87-4.77-.67-2.15-1.28-4.38-2.79-6.11-1.21 2.28-1.97 5.06-4.46 6.32.4-1.34.85-2.67 1.34-3.97.61-1.73 2.17-2.73 3.42-3.94.59-2.16-.21-4.44-.24-6.64-.45-4.85 1.96-9.26 3.04-13.86.88-3.42 3.21-6.45 3.07-10.1.07-5-.68-10-.15-14.99.95-2.77 2.75-5.18 3.54-8.01 1.22-4.74 1.54-9.67 1.46-14.55.46-.05 1.37-.17 1.82-.22.91-2.32 1.74-4.66 2.82-6.9-2.54-.82-5.11-1.62-7.51-2.81-3.25-.34-6.67-.99-9.87-.05m38.25-.47c2.66 2.38 5.22 5.42 4.85 9.24-1.92-2.9-4.23-5.62-5.45-8.91-.93.54-1.86 1.07-2.78 1.61.38 7.79-1.76 15.87 1.14 23.41 1.23 5.17 5.24 8.83 8.1 13.09-2.04.24-3.3-1.41-4.65-2.62.56 5.96-1.87 12.39 1.25 17.92 1.84 4.4 2.85 9.09 4.39 13.6 1.2 3.52-.11 7.15-.29 10.7 2.47 2.26 4.34 5.1 4.88 8.47-2.52-1.37-3.26-4.26-4.53-6.61-1.01 2.05-1.73 4.22-2.41 6.4 2.26 3.33 6.88 2.19 9.64 4.73 3.79 3.21 9.95 4.09 14.03 1 1.76-1.09.56-3.01.32-4.56-7.89-1.59-9.9-10.56-15.68-15.09.62.01 1.85.04 2.47.06-1.79-7.72-.98-15.73-.68-23.56-1.02-3.76-1.86-7.58-3.18-11.25-1.01-2.58-.04-6.01-2.68-7.79.6-4.67.38-9.41-1.26-13.85 1.67-4.97 3.61-10.57 1.25-15.65-2.88-.51-5.82-.26-8.73-.34z"/><path d="M26.75 55.58c3.61-3.59 9.85-1.65 13.61.83-4.53-.41-9.06-.71-13.61-.83zM195.66 56.43c3.5-2.62 8.18-3.3 12.38-2.29.19.43.58 1.28.77 1.71-4.4-.36-8.78.21-13.15.58zM132.21 75.19c4.41-.01 5.35 5.19 7.92 7.84 3-.96 5.78-2.45 8.72-3.56-2.29 3.72-6.95 4.96-11.07 4.62-.93 4.18-5.36 5.89-7.22 9.53-2.76-3.55-7.71-3.13-11.69-2.69l.29-3.24c-.98 2.17-2.58 3.96-5.15 3.17 1.69-1.38 3.27-2.89 4.51-4.69.63 1.75 1.46 3.72 3.47 4.23 2.02.21 4.05-.01 6.08-.12.46.45 1.38 1.37 1.85 1.83 3.29-3.07 5.42-7.14 8.73-10.19-3.21-.74-4.35-4.46-6.44-6.73zM26.72 80.74c3.19-2.25 7.79-1.15 10.88.79-3.64-.02-7.27-.37-10.88-.79zM198.44 81.55c3.04-2.01 7.67-3.03 10.84-.81-3.6.42-7.22.75-10.84.81zM88.68 81.35c3.14.48 6.22 1.27 9.29 2.09-3.32 1.65-6.51-.36-9.29-2.09z"/><path d="M97.71 82.56c3.05 2.69 5.47 5.99 8.02 9.14.62-.19 1.86-.56 2.48-.74-.89.89-1.78 1.78-2.63 2.71-2.5-3.84-7.27-6.16-7.87-11.11zM115.73 94.04c.62-.03 1.87-.1 2.49-.14-2.54 2.97-6.88 3.71-8.73 7.31-1.12-.97-2.25-1.94-3.38-2.89-.94.24-2.81.71-3.75.94 1.16-.97 2.35-1.92 3.55-2.85.85.85 1.62 1.78 2.31 2.77 2.12-2.26 5.12-3.24 7.51-5.14zM119.83 94.44c.95-.23 1.91-.45 2.88-.66.43.43 1.3 1.28 1.74 1.71 2.23.67 4.12 2.07 5.95 3.46l1.6-2.52c1.5.87 3 1.75 4.4 2.79-1.33-.27-2.63-.61-3.92-1.02-1.08.98-2.15 1.98-3.19 3.01-1.83-2.49-4.47-4-7.04-5.57-.61-.3-1.82-.9-2.42-1.2zM118.12 112.69c-.39-6.06.23-12.11.75-18.15 2.49 3.93.98 8.68 1.12 13l3.48.04c-.9.72-1.91 1.21-3.03 1.45-.79 1.21-1.56 2.44-2.32 3.66zM129.85 110.34c.26-2.61 2.43-4.06 4.58-5.11-.68 2.34-2.45 4.04-4.58 5.11zM103.83 105.59c2.25.27 3.75 1.97 5.18 3.54l-1.64.76c-1.25-1.38-2.46-2.79-3.54-4.3zM121.98 126.33c4.24.2 8.21-1.63 12.42-1.71-1.09 1.09-2.11 2.27-3.35 3.19-8.67.2-17.39-.71-26.03.34 5.12-3.13 11.31-1.38 16.96-1.82zM110.42 132.62c2.76-1.18 5.82-1.21 8.77-1.18-1.76 3.06-5.96 1.13-8.77 1.18zM105.56 168.16c-1.48-3.11-2.32-6.53-1.67-9.97 2.6 2.62 1.46 6.66 1.67 9.97zM97.94 168.94c-.37-1.89 1.1-3.21 2.14-4.56.57 4.09-2.36 8.68.41 12.28 1.04 1.69 2.8.9 4.32.55.32-2.3.45-4.7 1.6-6.78 1.93 3.76-.46 9.99-5.39 8.68-4.35-1.57-2.68-6.66-3.08-10.17zM131.78 170.66c1.17 2.74.8 6.81 4.43 7.63 1.46-1.79 2.74-3.71 3.99-5.65-.08 2.02.07 4.45-1.78 5.81-1.93 1.76-4.43.15-6.45-.53-.48-2.39-.69-4.85-.19-7.26zM99.67 189.33c-2.34-1.88-2.18-5.87 1.13-6.43-.26 2.16-.75 4.29-1.13 6.43zM138 186.34c-.84-1.52-.98-2.99.69-3.98 1.39 2.41 1.93 5.28-.59 7.14-.02-.79-.07-2.37-.1-3.16zM93.7 205.8c.52-2.83.69-5.8 2.03-8.41.29 3.91-.84 7.76-.69 11.67.29 6.36-1.24 12.62-.83 18.98-.48-.89-.96-1.79-1.42-2.67 1.83-6.43-.43-13.1.91-19.57zM137.33 197.44c.84 1.03 1.57 2.19 1.69 3.56.75 4.31 1.77 8.69 1.02 13.08-.29-.44-.87-1.31-1.16-1.75-.47-4.97-1.15-9.92-1.55-14.89zM142.52 197.58c1.8 5.61 3.03 11.45 2.4 17.37-.55 4.44.95 8.99-.4 13.33.23-4.5-.62-8.84-1.5-13.22.09-5.84-.38-11.65-.5-17.48zM86.47 242.74c.69-3.06 2.49-5.68 4.59-7.94-.82 2.98-2.19 5.9-4.59 7.94zM146.95 234.66c2.43 2.11 3.75 5.13 4.74 8.12-2.37-2.16-3.65-5.18-4.74-8.12z"/></g></svg>