<svg width="194pt" height="400" viewBox="0 0 194 300" xmlns="http://www.w3.org/2000/svg"><g fill="#FFF"><path d="M0 0h194v300H0v-72.64c2.56 1.85 5.8 2.14 8.79 2.82-.34 7.71.42 16.73 7.12 21.74 4.22.53 8.63 2.37 12.84.95 5.64-3.08 7.87-9.83 8.84-15.81 9.53 2.42 19.09 4.8 28.72 6.81.83 1.49 1.68 2.98 2.55 4.45 2.68.4 5.29 1.14 7.86 2.01-2.22 6.58-3.33 13.56-6.48 19.8-.95 2.15-2.22 4.5-1.42 6.91 1.17 3.82 4.73 6.06 7.3 8.87 2.07 1.99 3.59 4.59 6.04 6.16 6.64 2.81 14.38 1.29 20.26-2.62-1.49-5.63-6.7-8.47-10.54-12.29-2.53-3.58-5.98-7.4-5.22-12.12.69-5.29 4.31-9.5 6.07-14.41l-1.64.36c-2.9 2.96-4.34 7.1-6.31 10.71-1.12 1.75-.49 3.84-.37 5.76-.36.18-1.07.52-1.43.69 2.98 3.19 4.64 7.26 7.09 10.8 3.83 2.92 7.84 5.81 10.29 10.09-5.9 2.55-13.52 4.08-18.72-.77-3.49-4.13-7.89-7.32-11.58-11.25.51-2.11 1.11-4.2 1.77-6.26a594 594 0 011.32 3.36c.27-.07.8-.21 1.06-.28-.35-3.66.27-7.29 1.12-10.83 1.79-3.61 2.33-7.62 3.06-11.52 1.86-.47 3.7-.96 5.55-1.47-.75-.47-1.5-.92-2.26-1.36-4.79.26-9.64-1.24-13.36-4.28-.11-1.24-.21-2.49-.32-3.73-.35.55-1.04 1.65-1.38 2.2-12.2-3.96-24.99-5.86-37.27-9.48-.31-.29-.94-.86-1.25-1.15 2.29-1.99 5.35.3 7.92.54 10.03 2.08 19.84 5.35 30.01 6.67-1.17-1-2.49-1.85-4.03-2.16-7.82-1.9-15.65-3.83-23.54-5.46.14-6.17-.7-12.77-4.43-17.88-2.29-3.3-6.65-3.31-10.23-3.8-.49-.29-1.49-.88-1.99-1.17-7.49 1.57-10.97 9.22-12.36 16.01-2.52-.65-5.05-1.24-7.59-1.76a203.1 203.1 0 00-1.86 3.6V0m105.58 122.76c-4.07.14-7.19 3.22-9.38 6.36-1.2 3.59-1.01 7.6.29 11.15-1.24 2.56-2.7 5.01-4.19 7.44-1.99.2-4.05.03-6 .51-5.68 2.98-12.77 4.15-16.77 9.61-2.82 4.31-.27 9.67-2.63 14.07-3.3 8.35-1.81 17.39-2.07 26.11 1.49 7.01-1.47 14-.46 21.05.01 3.82 3.01 6.99 2.56 10.87-.17 3.04-.33 6.09-.04 9.13.54.27 1.63.81 2.17 1.08-.94-4.31.19-8.63.28-12.94-.83-2.44-2.21-4.68-2.59-7.25-1.71-6.85 1.23-13.73.41-20.64.36-5.73.19-11.45-1.39-17 .46-.26 1.38-.78 1.84-1.03.39 2.72-.01 5.77 1.91 8.01.66-2.46.98-5.02-.19-7.38-.93-.57-1.86-1.13-2.74-1.75.81-2.8 1.35-5.66 2.15-8.46l2.15 2.27c-.69-4.87-1.87-10.27.37-14.89 4.05-4.88 10.48-6.21 15.94-8.87 2.51-1.26 5.86-.79 7.6-3.38 1.36-1.9 4.13-3.86 3.25-6.48-.79-3.03-1.11-6.23-.47-9.31 1.71-3.5 5.17-6.95 9.37-6.57 2.81.3 5.91.61 8.28 2.26 5.5 6.84 4.02 16.1 2.35 24.03-1.84 1.26-4.39.89-6.51.66-4.16-.42-6.74-3.94-9.75-6.39-1 4.27 3.89 5.97 6.83 7.63-1.12 1.5-2.21 3.03-3.16 4.64 2.25-.88 4.3-2.26 6.63-2.93 1.68-.57 2.96 1.05 4.35 1.71l-2.31-2.71c4.07.27 8.03 2.95 9.44 6.84 1.43 3.22-.11 7 1.68 10.11 1.39 2.74 2.28 5.7 2.28 8.8l-1.23-3.09c-.52 1.22-.96 2.46-1.33 3.74.89-.13 1.78-.25 2.67-.38.55 1.92 1.17 3.82 2.02 5.63l-.78 1.26c.69 2.03.12 4.01-.83 5.84-2.13-1.11-4.11-2.95-6.69-2.66-1.7-3.1-3.22-6.3-4.69-9.51l1.99-.8c-.04-3.24-.2-6.57 1.79-9.35 2.19 1.74 3.25 4.31 4.11 6.89.47-.67.95-1.34 1.42-2.02-1.35-2.52-2.84-4.97-4.72-7.14-2.87 1.94-4.08 5.36-4.38 8.68-1.88 3.14-5.39 3.73-8.73 4.07 1.85 1.92 4.66.61 7 .89 1.96 5 4.95 9.54 6.39 14.75.99-1.46 1.28-3.2 1.44-4.92 2.47 1.62 5.01 3.11 7.67 4.38-.22-2.4-.47-4.81-.77-7.2.51-.58 1.03-1.14 1.55-1.71 1.04 1.87 2.52 3.54 3.13 5.62 1.46 6.65 3.51 13.14 4.83 19.82 1.59 2.96 1.77 7.7 4.94 9.18l.51-.26c-.49-3.39-2.51-6.18-3.93-9.21-1.69-3.69-1.19-7.89-2.42-11.71-.94-2.91-1.75-5.85-2.46-8.81-1.22-4.34-5.36-7.03-6.85-11.21-.67-3.16-.95-6.44-2.36-9.4-1.97-3.62-.34-8.03-2.27-11.68-1.23-3.47-4.39-5.54-7.99-5.89 1.37-.98 2.74-1.96 4.12-2.93 1.37-6.85 2.06-14.52-.71-21.1-2.16-5.5-8.74-6.41-13.92-6.13m-20.15 29.55c1.24 1.43 2.61 2.74 3.98 4.05-.64.3-1.93.88-2.58 1.17-.02 1.01-.05 2.02-.07 3.03.94.78 1.89 1.55 2.82 2.34-.54.65-1.61 1.96-2.14 2.61 1.99-.57 3.43-2.02 4.74-3.52-2.28-.92-3.54-2.8-3.05-5.32l2.16-.09c-1.5-1.99-3.38-3.65-5.86-4.27m5.95 3.42c2.7 6.11 10.63 3.19 14.91 7.35-1.13-1.6-2.29-3.64-4.49-3.79-3.67-.56-7.07-2.01-10.42-3.56m16.48 7.36c2.74-1 5.1-2.79 7.19-4.78-3.13.11-6.33 1.5-7.19 4.78m-25.27 6.11c.58 1.38 1.15 2.77 1.72 4.16.01-1.23.03-2.46.05-3.69 1.42 1.68 2.68 3.58 4.63 4.71.21-2.35-.6-4.42-2.49-5.83-1.22.75-2.52.97-3.91.65m-5.98 3.51l-1.4 3.08c2.3-.2 3.96-1.81 5.29-3.55-1.3.15-2.6.3-3.89.47m4.8 1.24c2.63 5.53.29 11.33.36 17.08.18 3.21-1.42 6.05-3.33 8.49-1.13-2.27-1.12-6.09-4.29-6.5.93 4.7 3.6 8.96 3.69 13.84.46 3.22.57 6.48-.15 9.67-1.1 5.36-.39 10.88.82 16.16-.56-.39-1.67-1.18-2.23-1.58.48.81.96 1.63 1.44 2.44l.83-.37c-.99 5.17 8.21 6.5 5.27 11.62-.99 1.37-1.01 3.82 1.29 3.35.02-.7.07-2.1.09-2.8.32-.19.95-.58 1.26-.77 15.35 4.15 30.99 7.2 46.35 11.29.17.56.53 1.69.7 2.26-10.68-2.4-21.3-5.08-31.98-7.48-5.35-1.19-10.62-2.84-16.09-3.42l1.2 1.45c5.29 1.51 10.67 3.18 16.2 3.43-2.19 1.27-2.32 3.97-3.66 5.89-2.02 2.92-5.31 5.15-6.03 8.83-.79 2.1.19 4.16.8 6.16 2.6.96 5.35 1.33 8.03 2.02 4.28.94 5.53 6.44 10.04 6.93 4.34 1.84 8.97.69 13.24-.72 2.27-2.82.32-6.35-2.15-8.22-3.58-2.86-5.67-7.06-9.14-10 .04-2.54.55-5.01 1.36-7.41 5.61 1.34 11.19 2.83 16.86 3.93-.3 6.02.33 12.44 3.5 17.69 1.42 1.86 3.29 4.78 6.04 3.57.49.39.99.8 1.49 1.21 3.42.28 7.27 1.78 10.28-.61 4.67-3.45 6.52-9.37 7.8-14.78 3.47.59 6.94 1.23 10.28 2.37 1.43-1.35 2.31-3.96.92-5.52-3.5-1.12-7.22-1.57-10.76-2.59.53-6.87-.68-14.87-6.15-19.61-3.37-1.63-7.27-2.13-10.95-2.59-7.28 1.09-10.03 9.2-11.73 15.36-4.91-1.07-9.71-2.62-14.66-3.49l-.11-.46 1.9-.08c2.34-5.34 4.92-10.72 9.12-14.85 1.5-3.87 4.49-8.08 2.81-12.31-.32 1.59-.64 3.19-.94 4.78-2.31 3.18-4.33 6.55-6.84 9.58-2.69 4.22-4.62 8.88-7.48 13.01-1.54-.42-3.07-.86-4.6-1.3 2.65-3.49 5.56-7.88 4.55-12.44-2.21 3.95-3.19 8.41-5.16 12.48-2-.55-4.03-.98-6.1-1.1 1.08-1.42 1.17-3.16 1.11-4.86 2.16-4.83 5.61-8.92 8.07-13.55-2.98-3.03-7.45-3.19-11.26-4.49-.63-1.73-1.31-3.46-1.95-5.18.65.34 1.96 1.04 2.61 1.38.26-2.93.71-5.84.74-8.79 3.3-.91 5.85-3.25 8.46-5.32 2.12.19 4.5-.09 6.29 1.29 3.01 2.29 5 5.6 7.8 8.12-1.55-5.75-6.57-9.58-12.17-10.97l.71-1.14c-3.18-.26-6.43-.19-9.53-.95-1.26-1.01-2.39-2.15-3.61-3.19 2.47-2.09 3.87-5.13 6.41-7.13 2.56-1.93 4.1-5.04 4.35-8.2.8-1.05-.5-3.46-1.81-2.4-1.78 1.53-.61 4.09-1.15 6.09-1.64 2.59-4.98 3.51-6.42 6.23-1.96 3.59-5.79 5.49-8.51 8.42-4.93-.08-9.91-.21-14.65-1.74.75-2.45 1.62-4.86 2.51-7.26 2.55 1.75 5.21 4.92 8.66 3.71 2.99-.89 6.16-.93 9.14-1.87-2.01-.3-4.03-.55-6.05-.84-1.88.56-3.78 1.15-5.76 1.23.37-1.37.96-2.66 1.75-3.87-2.04.95-4.14 1.77-6.3 2.44-2.32-6.35 1.6-13.5-.84-19.91-.64-.29-1.94-.86-2.59-1.14m3.82 1.22c-.03.28-.07.83-.1 1.11 2.52 8.03 13.48 8.48 19.61 4.65-3.88-.18-7.83.54-11.66-.32-3.26-.75-5.14-3.82-7.85-5.44m11.02 11.14c-1.91 1.83-4.52 3.17-5.46 5.78 4.49-.99 6.38-6.98 11.29-6.27 2.52.07 4.75 1.43 7.08 2.24-.61-1.07-1.22-2.13-1.84-3.18-3.7.17-8.15-1.7-11.07 1.43m25.17 10.99c.81 6.25 7.32 8.9 9.9 14.21.64 2.23.07 4.73 1.16 6.86 1.15 2.85 4.46 4.1 5.48 7.04.94 1.83 1.48 3.99 3.03 5.44 2.53 1.52 5.67 2.64 8.59 1.63.05-3.46-1.43-6.64-3.36-9.44l-1.04.16c-.67 2.43 1.95 4.32 2.64 6.57-.73.97-2.1.62-3.14.9-.36-2.34-.7-4.68-1.1-7.01-.92 1.23-1.79 2.51-2.65 3.79-.74-2.08-1.17-4.27-2.06-6.3-1.61-1.93-4.23-2.76-5.54-5.01.2-1.96 1.04-4.33-.46-6-3.68-4.66-7.97-9.04-9.87-14.81-.54.65-1.07 1.3-1.58 1.97m-53.17.83c1.82 4.27 3.87 8.47 6.35 12.4.68-4.04-2.41-7.29-3.39-11.01-.98-.48-1.97-.94-2.96-1.39m43.9 12.72c.93 4.46 1.29 9.79 5.26 12.74 3.55 1.7 8.56.27 9.65-3.87-3.01 1.69-7.15 4.9-10.03 1.2-1.55-3.39-2.52-7.09-4.88-10.07m-5.32 6.86c1.05 2.63 2.99 4.72 4.83 6.81.29.04.85.12 1.13.15-1.4-2.75-2.99-5.63-5.96-6.96m22.12 1.21c-1.23.99 0 3.79 1.57 2.7 1.13-.97-.04-3.78-1.57-2.7m-5.32 7.64c-.69 1.88-1.24 3.81-1.69 5.78 3-.12 3.2-3.89 1.69-5.78m-52.41 4.74c-.95.89-.76 3.11.69 3.38 2.17-.2 1.42-4.44-.69-3.38m8.31 10.45c-.14 2.03.06 4.06.76 5.99.87-.59 1.73-1.18 2.59-1.78l-2.1-.38c.18-1.75 1.5-2.72 2.74-3.72-.99-.03-2.99-.08-3.99-.11m.47 30.69c.48 3.09 1.21 6.24 2.85 8.96.15-3.24-.88-6.41-2.85-8.96z"/><path d="M82.65 205.52c-1.46-1.03-2.92-2.07-4.23-3.27 4 1.68 8.33 2.89 12.7 2.63 3.63-.56 7.2-1.43 10.8-2.16 2.67 3.97 8.03 2.15 12.03 2.26-5.83 2.63-13.11 7.27-12.03 14.72-1.5-4.93-5.87-8.57-10.77-9.78-4.12-.42-8.32 1.17-11.2 4.14.74-3.25-.17-6.43-1.1-9.52 1.26.73 2.51 1.47 3.77 2.2.01-.3.02-.91.03-1.22zM10.3 228.13c.89-7.38 4.38-15.85 12.32-17.83-3.15 3.04-6.42 6.28-7.71 10.61-2.92 9.59-3.41 20.69 1.95 29.55-6.76-5.15-7.42-14.54-6.56-22.33z"/><path d="M79 217.93c3.01-3.52 6.77-7.68 11.93-6.74 3.09 1.71 6.91 3.79 7.58 7.6.66 3.82 5.53 7.04 2.15 11.01-4.03 4.07-5.14 9.74-6.09 15.17-2.71-.7-5.44-1.37-8.24-1.65-.31-2.45-1.31-4.69-3.23-6.29 1.03-1.3 2.29-2.48 2.88-4.07.25-2 .3-4.03.81-5.99-1.33-.18-2.66-.37-3.99-.6.68 1.07 1.34 2.15 1.99 3.23-1.58-.14-4.04 1.56-4.96-.59-.88-3.62-.92-7.38-.83-11.08m10.69 2.96c.21.64.65 1.92.87 2.56 1.46.55 2.94 1.05 4.44 1.47-.78-2.35-4.05-3.44-2.34-6.41-.74.6-2.23 1.79-2.97 2.38m2.62 5.42c.14 1.81.31 3.62.47 5.44l1.92.08-.48-5.22c-.48-.07-1.43-.23-1.91-.3zM24.2 212.25c2.4-1.96 4.64 3.02 6.83.43 5.53 4.65 5.82 12.26 6.65 18.88-3.12-.77-6.23-1.52-9.37-2.19-.69 1.73-1.13 3.55-.45 5.37 1.91.63 4.92.47 4.88 3.23-.04-.53-.13-1.58-.18-2.11 1.43.44 2.86.89 4.29 1.34-2.01 5.22-3.49 12.02-9.36 14.19-2.71.39-5.39-.82-8.09-1.07-5.56-5.84-6.01-14.6-4.95-22.17 1.02-6.17 3.57-13.24 9.75-15.9m-3.07 6.86c-3.17 7.08-3.99 15.15-2.57 22.75.71 3.44 1.67 7.3 5.1 9.02-5.5-9.19-5.8-20.91-1.42-30.6 1.31-2.68 3.46-4.82 4.88-7.43-3.01.81-4.72 3.63-5.99 6.26zM1.16 226.75c1.86-3.32 5.66-.56 8.44-.45l-.24 2.73c-2.75-.68-5.52-1.34-8.2-2.28zM103.31 226.96c3.41.67 6.79 1.47 10.25 1.9-5.27 4.77-8.9 11.19-9.94 18.25-2.45-.62-4.9-1.21-7.36-1.73 1.1-3.47 1.72-7.12 3.21-10.46 2.14-2.16 2.9-5.17 3.84-7.96zM134.19 255.21c1.22-6.64 4.78-14.32 12.2-15.52-6 4.07-9.12 11.18-9.74 18.23-1.36 7.59-.04 15.69 4.07 22.26-7.52-5.85-8-16.34-6.53-24.97z"/><path d="M148.3 241.21c1.66-.85 3.04 1.01 4.38 1.68.66-.33 1.31-.66 1.97-.98 5.23 4.79 5.95 12.16 6.53 18.8-3.01-.67-6-1.43-8.98-2.22-1.02 1.62-1.36 3.49-1.45 5.39 3.27.89 6.54 1.81 9.89 2.35-2.04 4.33-3.01 9.41-6.72 12.74-1.73 1.5-4.5 2.67-6.63 1.37-6.62-11.17-6.16-26.73 2.45-36.73.17-.42.5-1.26.67-1.67-6.04 3.18-7.62 10.68-8.67 16.86-.69 7.23-.57 15.6 4.53 21.34-3.77.28-5.78-3.28-7.02-6.25-2.21-6.15-2.13-12.95-.75-19.27 1.4-5.43 4.14-11.38 9.8-13.41zM103.51 253c.81.05 2.43.15 3.25.19-.15.64-.44 1.92-.58 2.56 2-3.2 5.73-.41 8.62-.51-3.57 1.26-4.19 7.11-1.34 9.37 4.64 3.98 6.95 9.97 12 13.53-2.49 3.72-7.59 3.36-11.33 2.07-3.27-.83-4.95-4.19-7.94-5.51-3.61-1.71-7.69-2.13-11.25-3.99-.3-7.24 7.62-10.8 8.57-17.71m-3.13 16.98c.44-.23 1.33-.68 1.77-.91-.87-2.93-.61-5.83.69-8.58-3.96 1.67-3.2 6.12-2.46 9.49m7-9c-1.35 3.73 1.61 6.82 3.48 9.72-.75-3.37-1.93-6.64-3.48-9.72z"/><path d="M151.65 262.49c.35-.46 1.06-1.38 1.41-1.84 5.64.96 11.12 2.72 16.79 3.59-.24.57-.73 1.7-.97 2.26-5.81-1.03-11.43-2.91-17.23-4.01z"/></g><g fill="#333"><path d="M105.58 122.76c5.18-.28 11.76.63 13.92 6.13 2.77 6.58 2.08 14.25.71 21.1-1.38.97-2.75 1.95-4.12 2.93 3.6.35 6.76 2.42 7.99 5.89 1.93 3.65.3 8.06 2.27 11.68 1.41 2.96 1.69 6.24 2.36 9.4 1.49 4.18 5.63 6.87 6.85 11.21.71 2.96 1.52 5.9 2.46 8.81 1.23 3.82.73 8.02 2.42 11.71 1.42 3.03 3.44 5.82 3.93 9.21l-.51.26c-3.17-1.48-3.35-6.22-4.94-9.18-1.32-6.68-3.37-13.17-4.83-19.82-.61-2.08-2.09-3.75-3.13-5.62-.52.57-1.04 1.13-1.55 1.71.3 2.39.55 4.8.77 7.2-2.66-1.27-5.2-2.76-7.67-4.38-.16 1.72-.45 3.46-1.44 4.92-1.44-5.21-4.43-9.75-6.39-14.75-2.34-.28-5.15 1.03-7-.89 3.34-.34 6.85-.93 8.73-4.07.3-3.32 1.51-6.74 4.38-8.68 1.88 2.17 3.37 4.62 4.72 7.14-.47.68-.95 1.35-1.42 2.02-.86-2.58-1.92-5.15-4.11-6.89-1.99 2.78-1.83 6.11-1.79 9.35l-1.99.8c1.47 3.21 2.99 6.41 4.69 9.51 2.58-.29 4.56 1.55 6.69 2.66.95-1.83 1.52-3.81.83-5.84l.78-1.26c-.85-1.81-1.47-3.71-2.02-5.63-.89.13-1.78.25-2.67.38.37-1.28.81-2.52 1.33-3.74l1.23 3.09c0-3.1-.89-6.06-2.28-8.8-1.79-3.11-.25-6.89-1.68-10.11-1.41-3.89-5.37-6.57-9.44-6.84l2.31 2.71c-1.39-.66-2.67-2.28-4.35-1.71-2.33.67-4.38 2.05-6.63 2.93.95-1.61 2.04-3.14 3.16-4.64-2.94-1.66-7.83-3.36-6.83-7.63 3.01 2.45 5.59 5.97 9.75 6.39 2.12.23 4.67.6 6.51-.66 1.67-7.93 3.15-17.19-2.35-24.03-2.37-1.65-5.47-1.96-8.28-2.26-4.2-.38-7.66 3.07-9.37 6.57-.64 3.08-.32 6.28.47 9.31.88 2.62-1.89 4.58-3.25 6.48-1.74 2.59-5.09 2.12-7.6 3.38-5.46 2.66-11.89 3.99-15.94 8.87-2.24 4.62-1.06 10.02-.37 14.89l-2.15-2.27c-.8 2.8-1.34 5.66-2.15 8.46.88.62 1.81 1.18 2.74 1.75 1.17 2.36.85 4.92.19 7.38-1.92-2.24-1.52-5.29-1.91-8.01-.46.25-1.38.77-1.84 1.03 1.58 5.55 1.75 11.27 1.39 17 .82 6.91-2.12 13.79-.41 20.64.38 2.57 1.76 4.81 2.59 7.25-.09 4.31-1.22 8.63-.28 12.94-.54-.27-1.63-.81-2.17-1.08-.29-3.04-.13-6.09.04-9.13.45-3.88-2.55-7.05-2.56-10.87-1.01-7.05 1.95-14.04.46-21.05.26-8.72-1.23-17.76 2.07-26.11 2.36-4.4-.19-9.76 2.63-14.07 4-5.46 11.09-6.63 16.77-9.61 1.95-.48 4.01-.31 6-.51 1.49-2.43 2.95-4.88 4.19-7.44-1.3-3.55-1.49-7.56-.29-11.15 2.19-3.14 5.31-6.22 9.38-6.36z"/><path d="M85.43 152.31c2.48.62 4.36 2.28 5.86 4.27l-2.16.09c-.49 2.52.77 4.4 3.05 5.32-1.31 1.5-2.75 2.95-4.74 3.52.53-.65 1.6-1.96 2.14-2.61-.93-.79-1.88-1.56-2.82-2.34.02-1.01.05-2.02.07-3.03.65-.29 1.94-.87 2.58-1.17-1.37-1.31-2.74-2.62-3.98-4.05zM91.38 155.73c3.35 1.55 6.75 3 10.42 3.56 2.2.15 3.36 2.19 4.49 3.79-4.28-4.16-12.21-1.24-14.91-7.35zM107.86 163.09c.86-3.28 4.06-4.67 7.19-4.78-2.09 1.99-4.45 3.78-7.19 4.78zM82.59 169.2c1.39.32 2.69.1 3.91-.65 1.89 1.41 2.7 3.48 2.49 5.83-1.95-1.13-3.21-3.03-4.63-4.71-.02 1.23-.04 2.46-.05 3.69-.57-1.39-1.14-2.78-1.72-4.16zM76.61 172.71c1.29-.17 2.59-.32 3.89-.47-1.33 1.74-2.99 3.35-5.29 3.55l1.4-3.08zM81.41 173.95c.65.28 1.95.85 2.59 1.14 2.44 6.41-1.48 13.56.84 19.91 2.16-.67 4.26-1.49 6.3-2.44-.79 1.21-1.38 2.5-1.75 3.87 1.98-.08 3.88-.67 5.76-1.23 2.02.29 4.04.54 6.05.84-2.98.94-6.15.98-9.14 1.87-3.45 1.21-6.11-1.96-8.66-3.71-.89 2.4-1.76 4.81-2.51 7.26 4.74 1.53 9.72 1.66 14.65 1.74 2.72-2.93 6.55-4.83 8.51-8.42 1.44-2.72 4.78-3.64 6.42-6.23.54-2-.63-4.56 1.15-6.09 1.31-1.06 2.61 1.35 1.81 2.4-.25 3.16-1.79 6.27-4.35 8.2-2.54 2-3.94 5.04-6.41 7.13 1.22 1.04 2.35 2.18 3.61 3.19 3.1.76 6.35.69 9.53.95l-.71 1.14c5.6 1.39 10.62 5.22 12.17 10.97-2.8-2.52-4.79-5.83-7.8-8.12-1.79-1.38-4.17-1.1-6.29-1.29-2.61 2.07-5.16 4.41-8.46 5.32-.03 2.95-.48 5.86-.74 8.79-.65-.34-1.96-1.04-2.61-1.38.64 1.72 1.32 3.45 1.95 5.18 3.81 1.3 8.28 1.46 11.26 4.49-2.46 4.63-5.91 8.72-8.07 13.55.06 1.7-.03 3.44-1.11 4.86 2.07.12 4.1.55 6.1 1.1 1.97-4.07 2.95-8.53 5.16-12.48 1.01 4.56-1.9 8.95-4.55 12.44 1.53.44 3.06.88 4.6 1.3 2.86-4.13 4.79-8.79 7.48-13.01 2.51-3.03 4.53-6.4 6.84-9.58.3-1.59.62-3.19.94-4.78 1.68 4.23-1.31 8.44-2.81 12.31-4.2 4.13-6.78 9.51-9.12 14.85l-1.9.08.11.46c4.95.87 9.75 2.42 14.66 3.49 1.7-6.16 4.45-14.27 11.73-15.36 3.68.46 7.58.96 10.95 2.59 5.47 4.74 6.68 12.74 6.15 19.61 3.54 1.02 7.26 1.47 10.76 2.59 1.39 1.56.51 4.17-.92 5.52-3.34-1.14-6.81-1.78-10.28-2.37-1.28 5.41-3.13 11.33-7.8 14.78-3.01 2.39-6.86.89-10.28.61-.5-.41-1-.82-1.49-1.21-2.75 1.21-4.62-1.71-6.04-3.57-3.17-5.25-3.8-11.67-3.5-17.69-5.67-1.1-11.25-2.59-16.86-3.93-.81 2.4-1.32 4.87-1.36 7.41 3.47 2.94 5.56 7.14 9.14 10 2.47 1.87 4.42 5.4 2.15 8.22-4.27 1.41-8.9 2.56-13.24.72-4.51-.49-5.76-5.99-10.04-6.93-2.68-.69-5.43-1.06-8.03-2.02-.61-2-1.59-4.06-.8-6.16.72-3.68 4.01-5.91 6.03-8.83 1.34-1.92 1.47-4.62 3.66-5.89-5.53-.25-10.91-1.92-16.2-3.43l-1.2-1.45c5.47.58 10.74 2.23 16.09 3.42 10.68 2.4 21.3 5.08 31.98 7.48-.17-.57-.53-1.7-.7-2.26-15.36-4.09-31-7.14-46.35-11.29-.31.19-.94.58-1.26.77-.02.7-.07 2.1-.09 2.8-2.3.47-2.28-1.98-1.29-3.35 2.94-5.12-6.26-6.45-5.27-11.62l-.83.37c-.48-.81-.96-1.63-1.44-2.44.56.4 1.67 1.19 2.23 1.58-1.21-5.28-1.92-10.8-.82-16.16.72-3.19.61-6.45.15-9.67-.09-4.88-2.76-9.14-3.69-13.84 3.17.41 3.16 4.23 4.29 6.5 1.91-2.44 3.51-5.28 3.33-8.49-.07-5.75 2.27-11.55-.36-17.08m1.24 31.57c-.01.31-.02.92-.03 1.22-1.26-.73-2.51-1.47-3.77-2.2.93 3.09 1.84 6.27 1.1 9.52 2.88-2.97 7.08-4.56 11.2-4.14 4.9 1.21 9.27 4.85 10.77 9.78-1.08-7.45 6.2-12.09 12.03-14.72-4-.11-9.36 1.71-12.03-2.26-3.6.73-7.17 1.6-10.8 2.16-4.37.26-8.7-.95-12.7-2.63 1.31 1.2 2.77 2.24 4.23 3.27M79 217.93c-.09 3.7-.05 7.46.83 11.08.92 2.15 3.38.45 4.96.59-.65-1.08-1.31-2.16-1.99-3.23 1.33.23 2.66.42 3.99.6-.51 1.96-.56 3.99-.81 5.99-.59 1.59-1.85 2.77-2.88 4.07 1.92 1.6 2.92 3.84 3.23 6.29 2.8.28 5.53.95 8.24 1.65.95-5.43 2.06-11.1 6.09-15.17 3.38-3.97-1.49-7.19-2.15-11.01-.67-3.81-4.49-5.89-7.58-7.6-5.16-.94-8.92 3.22-11.93 6.74m24.31 9.03c-.94 2.79-1.7 5.8-3.84 7.96-1.49 3.34-2.11 6.99-3.21 10.46 2.46.52 4.91 1.11 7.36 1.73 1.04-7.06 4.67-13.48 9.94-18.25-3.46-.43-6.84-1.23-10.25-1.9m30.88 28.25c-1.47 8.63-.99 19.12 6.53 24.97-4.11-6.57-5.43-14.67-4.07-22.26.62-7.05 3.74-14.16 9.74-18.23-7.42 1.2-10.98 8.88-12.2 15.52m14.11-14c-5.66 2.03-8.4 7.98-9.8 13.41-1.38 6.32-1.46 13.12.75 19.27 1.24 2.97 3.25 6.53 7.02 6.25-5.1-5.74-5.22-14.11-4.53-21.34 1.05-6.18 2.63-13.68 8.67-16.86-.17.41-.5 1.25-.67 1.67-8.61 10-9.07 25.56-2.45 36.73 2.13 1.3 4.9.13 6.63-1.37 3.71-3.33 4.68-8.41 6.72-12.74-3.35-.54-6.62-1.46-9.89-2.35.09-1.9.43-3.77 1.45-5.39 2.98.79 5.97 1.55 8.98 2.22-.58-6.64-1.3-14.01-6.53-18.8-.66.32-1.31.65-1.97.98-1.34-.67-2.72-2.53-4.38-1.68M103.51 253c-.95 6.91-8.87 10.47-8.57 17.71 3.56 1.86 7.64 2.28 11.25 3.99 2.99 1.32 4.67 4.68 7.94 5.51 3.74 1.29 8.84 1.65 11.33-2.07-5.05-3.56-7.36-9.55-12-13.53-2.85-2.26-2.23-8.11 1.34-9.37-2.89.1-6.62-2.69-8.62.51.14-.64.43-1.92.58-2.56-.82-.04-2.44-.14-3.25-.19m48.14 9.49c5.8 1.1 11.42 2.98 17.23 4.01.24-.56.73-1.69.97-2.26-5.67-.87-11.15-2.63-16.79-3.59-.35.46-1.06 1.38-1.41 1.84z"/><path d="M85.23 175.17c2.71 1.62 4.59 4.69 7.85 5.44 3.83.86 7.78.14 11.66.32-6.13 3.83-17.09 3.38-19.61-4.65.03-.28.07-.83.1-1.11zM96.25 186.31c2.92-3.13 7.37-1.26 11.07-1.43.62 1.05 1.23 2.11 1.84 3.18-2.33-.81-4.56-2.17-7.08-2.24-4.91-.71-6.8 5.28-11.29 6.27.94-2.61 3.55-3.95 5.46-5.78zM121.42 197.3c.51-.67 1.04-1.32 1.58-1.97 1.9 5.77 6.19 10.15 9.87 14.81 1.5 1.67.66 4.04.46 6 1.31 2.25 3.93 3.08 5.54 5.01.89 2.03 1.32 4.22 2.06 6.3.86-1.28 1.73-2.56 2.65-3.79.4 2.33.74 4.67 1.1 7.01 1.04-.28 2.41.07 3.14-.9-.69-2.25-3.31-4.14-2.64-6.57l1.04-.16c1.93 2.8 3.41 5.98 3.36 9.44-2.92 1.01-6.06-.11-8.59-1.63-1.55-1.45-2.09-3.61-3.03-5.44-1.02-2.94-4.33-4.19-5.48-7.04-1.09-2.13-.52-4.63-1.16-6.86-2.58-5.31-9.09-7.96-9.9-14.21zM68.25 198.13c.99.45 1.98.91 2.96 1.39.98 3.72 4.07 6.97 3.39 11.01-2.48-3.93-4.53-8.13-6.35-12.4zM9.45 224.97c1.39-6.79 4.87-14.44 12.36-16.01.5.29 1.5.88 1.99 1.17 3.58.49 7.94.5 10.23 3.8 3.73 5.11 4.57 11.71 4.43 17.88 7.89 1.63 15.72 3.56 23.54 5.46 1.54.31 2.86 1.16 4.03 2.16-10.17-1.32-19.98-4.59-30.01-6.67-2.57-.24-5.63-2.53-7.92-.54.31.29.94.86 1.25 1.15 12.28 3.62 25.07 5.52 37.27 9.48.34-.55 1.03-1.65 1.38-2.2.11 1.24.21 2.49.32 3.73 3.72 3.04 8.57 4.54 13.36 4.28.76.44 1.51.89 2.26 1.36-1.85.51-3.69 1-5.55 1.47-.73 3.9-1.27 7.91-3.06 11.52-.85 3.54-1.47 7.17-1.12 10.83-.26.07-.79.21-1.06.28a594 594 0 00-1.32-3.36c-.66 2.06-1.26 4.15-1.77 6.26 3.69 3.93 8.09 7.12 11.58 11.25 5.2 4.85 12.82 3.32 18.72.77-2.45-4.28-6.46-7.17-10.29-10.09-2.45-3.54-4.11-7.61-7.09-10.8.36-.17 1.07-.51 1.43-.69-.12-1.92-.75-4.01.37-5.76 1.97-3.61 3.41-7.75 6.31-10.71l1.64-.36c-1.76 4.91-5.38 9.12-6.07 14.41-.76 4.72 2.69 8.54 5.22 12.12 3.84 3.82 9.05 6.66 10.54 12.29-5.88 3.91-13.62 5.43-20.26 2.62-2.45-1.57-3.97-4.17-6.04-6.16-2.57-2.81-6.13-5.05-7.3-8.87-.8-2.41.47-4.76 1.42-6.91 3.15-6.24 4.26-13.22 6.48-19.8-2.57-.87-5.18-1.61-7.86-2.01-.87-1.47-1.72-2.96-2.55-4.45-9.63-2.01-19.19-4.39-28.72-6.81-.97 5.98-3.2 12.73-8.84 15.81-4.21 1.42-8.62-.42-12.84-.95-6.7-5.01-7.46-14.03-7.12-21.74-2.99-.68-6.23-.97-8.79-2.82v-.55a203.1 203.1 0 011.86-3.6c2.54.52 5.07 1.11 7.59 1.76m.85 3.16c-.86 7.79-.2 17.18 6.56 22.33-5.36-8.86-4.87-19.96-1.95-29.55 1.29-4.33 4.56-7.57 7.71-10.61-7.94 1.98-11.43 10.45-12.32 17.83m13.9-15.88c-6.18 2.66-8.73 9.73-9.75 15.9-1.06 7.57-.61 16.33 4.95 22.17 2.7.25 5.38 1.46 8.09 1.07 5.87-2.17 7.35-8.97 9.36-14.19-1.43-.45-2.86-.9-4.29-1.34.05.53.14 1.58.18 2.11.04-2.76-2.97-2.6-4.88-3.23-.68-1.82-.24-3.64.45-5.37 3.14.67 6.25 1.42 9.37 2.19-.83-6.62-1.12-14.23-6.65-18.88-2.19 2.59-4.43-2.39-6.83-.43m-23.04 14.5c2.68.94 5.45 1.6 8.2 2.28l.24-2.73c-2.78-.11-6.58-2.87-8.44.45zM112.15 210.85c2.36 2.98 3.33 6.68 4.88 10.07 2.88 3.7 7.02.49 10.03-1.2-1.09 4.14-6.1 5.57-9.65 3.87-3.97-2.95-4.33-8.28-5.26-12.74z"/><path d="M21.13 219.11c1.27-2.63 2.98-5.45 5.99-6.26-1.42 2.61-3.57 4.75-4.88 7.43-4.38 9.69-4.08 21.41 1.42 30.6-3.43-1.72-4.39-5.58-5.1-9.02-1.42-7.6-.6-15.67 2.57-22.75zM106.83 217.71c2.97 1.33 4.56 4.21 5.96 6.96-.28-.03-.84-.11-1.13-.15-1.84-2.09-3.78-4.18-4.83-6.81zM128.95 218.92c1.53-1.08 2.7 1.73 1.57 2.7-1.57 1.09-2.8-1.71-1.57-2.7zM89.69 220.89c.74-.59 2.23-1.78 2.97-2.38-1.71 2.97 1.56 4.06 2.34 6.41-1.5-.42-2.98-.92-4.44-1.47-.22-.64-.66-1.92-.87-2.56zM92.31 226.31c.48.07 1.43.23 1.91.3l.48 5.22-1.92-.08c-.16-1.82-.33-3.63-.47-5.44zM123.63 226.56c1.51 1.89 1.31 5.66-1.69 5.78.45-1.97 1-3.9 1.69-5.78zM71.22 231.3c2.11-1.06 2.86 3.18.69 3.38-1.45-.27-1.64-2.49-.69-3.38zM79.53 241.75c1 .03 3 .08 3.99.11-1.24 1-2.56 1.97-2.74 3.72l2.1.38c-.86.6-1.72 1.19-2.59 1.78-.7-1.93-.9-3.96-.76-5.99zM100.38 269.98c-.74-3.37-1.5-7.82 2.46-9.49-1.3 2.75-1.56 5.65-.69 8.58-.44.23-1.33.68-1.77.91zM107.38 260.98c1.55 3.08 2.73 6.35 3.48 9.72-1.87-2.9-4.83-5.99-3.48-9.72zM80 272.44c1.97 2.55 3 5.72 2.85 8.96-1.64-2.72-2.37-5.87-2.85-8.96z"/></g></svg>