<svg width="316" height="275pt" viewBox="0 0 237 275" xmlns="http://www.w3.org/2000/svg"><g fill="#FFF"><path d="M0 0h237v100.55c-7.12-.45-14.24-.57-21.37-.6-1.32-1.9-3.15-3.48-5.64-2.82-2.87-.49-3.25 2.9-4.15 4.78-2.36-.02-4.72-.05-7.08-.07-2.84-4.13-8.2-4.38-12.71-3.77-2.12.3-3.47 2.07-4.8 3.55-41.43-.64-82.86-.7-124.28-.06-1.41-1.45-2.81-3.17-4.93-3.51-4.52-.58-9.83-.31-12.73 3.74-3.61.04-7.22.07-10.82.16-.76-1.7-1.55-3.38-2.38-5.03-2.92.04-6.03.22-7.67 3.02-6.15.07-12.3.11-18.44.46V0z"/><path d="M20.95 98.99c.75-.1 2.23-.29 2.97-.39-1.32 3.47-1.26 7.34.09 10.79l-2.98-.56c-.19-3.28-.21-6.56-.08-9.84zM210.66 98.26c4.05.37 2.73 4.96 2.83 7.75.1 1.94-1.04 3.32-2.91 3.72.6-3.8.59-7.66.08-11.47zM25.07 108.72c-.47-3.34-1.18-7.01.69-10.07.25 3.33.16 6.69.76 9.98l-1.45.09z"/><path d="M41.11 101.96c3.03-2.73 7.19-2.38 10.97-2.58 2.26 1.98 5.87 3.93 4.81 7.54-.04 2.74-3.02 1.77-4.76 1.61 1 2.49 1.74 5.52 4.36 6.84 4.3 2.55 8.9 5.2 11.4 9.74 1.65 3.06 4.19 5.5 7.2 7.2-.98-2.03-2.18-3.95-3.41-5.85 2.5.29 5.28-.16 7.48 1.32 4.18 2.61 8.88 4.36 12.76 7.45l.27 1.86c-1.04.78-2.06 1.58-3.07 2.39 2.04-.15 4.08-.36 6.11-.6.43 1.11.85 2.22 1.28 3.34-.4.46-1.2 1.39-1.61 1.85 1.2 1.09 2.41 2.16 3.63 3.22 2.2 4.95 3.6 10.33 6.75 14.79-.68-4.07-1.82-8.05-2.59-12.1-.31-2.73-2.91-4.1-4.79-5.7.07-1.86.05-3.72-.02-5.57-2.31-1.9-4.4-4.03-6.43-6.21 4.25-3.58 11.81-2.83 14.44 2.41-1.49.37-2.99.74-4.48 1.12 5.72 1.96 12.68 2.27 16.83 7.22l1.33.52c4.05-5.41 11.33-5.8 17.27-7.77-1.54-.34-3.09-.65-4.64-.95 2.59-5.21 9.34-5.8 14.01-3.18-.87 1.62-1.73 3.24-2.57 4.87-1.39.82-2.78 1.64-4.14 2.51 1.61-.28 3.32-.35 4.81-1.1 2.13-1.73 3.38-4.46 5.96-5.66 5.34-2.3 9.98-6.81 16.21-6.01-1.2 1.86-2.4 3.73-3.38 5.71 3.26-1.63 5.75-4.35 7.49-7.52 2.57-4.49 7.26-6.94 11.5-9.57 2.43-1.33 2.82-4.33 3.89-6.64-1.65-.06-4.16 1.33-4.7-1.01-1.57-3.72 2.33-6.03 4.69-8.06 3.8.21 8.04-.26 11.03 2.6-.01 2.3.01 4.61 0 6.91-5.27 4.83-9.18 10.9-14.39 15.77-3.24 3.26-8.04 4.39-10.98 8-3.35 3.94-8.38 5.53-13.03 7.34 1.08.1 3.23.29 4.31.39-1.76 1.76-3.6 3.46-5.67 4.85.77.45 1.55.9 2.34 1.35 3.03-2.28 5.17-5.5 8.22-7.75a35.25 35.25 0 005.23-4.91c1.77-2.13 4.71-2.57 6.91-4.12 3.9-2.69 6.85-6.48 9.7-10.2 3.25-4.33 7.76-7.69 10.08-12.69 2.78.07 5.56.25 8.32.57.18-2.96.15-5.93.35-8.89 1.68 3.15 1.33 6.78.58 10.14-.86-.09-2.58-.26-3.44-.35 2.29 3.92 7.34 3.22 9.98.15 7.16-.1 14.33.15 21.49-.12V275H0V108.52c4.98.06 9.97-.01 14.95-.02 4.16-.64 7.08 3.22 11.23 2.92.81-1.45 1.58-2.93 2.31-4.42 3.31 0 6.61-.01 9.91-.01 2.45 5.11 7.16 8.52 10.45 13.02 3.96 5.38 8.72 10.65 15.33 12.62 3.65 5.33 9.85 8.11 13.34 13.62 1.16-.23 2.31-.48 3.46-.74-2.09-1.57-4-3.36-5.84-5.2 2.43.16 4.87.34 7.3.43-4.77-1.78-10.01-2.84-14.02-6.17-1.86-1.51-2.47-3.94-3.57-5.96-.49.25-1.47.73-1.95.97-9.48-4.32-14.38-13.98-21.8-20.77.01-2.28.05-4.56.01-6.85m36.35 30.38c.72 1.24 1.11 2.9 2.57 3.51 3.21 1.48 6.24 3.31 9.39 4.89-1.63-5.17-7.77-6.08-11.96-8.4m82.59.2c-4.22 1.55-8.72 3.09-11.34 7.04 4.02-1.26 7.9-3.1 10.93-6.1.1-.24.31-.7.41-.94m-17.39 9.12c-.06 2.45 2.85 3.95 2.18 6.5 0 1.33-1.04 2.28-1.67 3.34-1.92 4.28-4.13 8.42-5.56 12.9-3.98 4.77-2.84 11.41-4.27 16.99-3.71 4.11-9.74 6.01-15.17 4.88-4.83 1-10.21-1.42-13.23-5.22-1.3-4.16-.7-8.75-2.06-12.95-3.64-6.69-7.65-13.31-9.43-20.79-.11-.72-.33-2.16-.45-2.89-.5.34-1.51 1-2.01 1.33-3.06-.11-6.13-.09-9.18-.43-.65.73-1.23 2.24.14 2.63l.93.13c2.89.22 5.79.13 8.68-.08 1 3.38 1.73 6.93 3.39 10.06 2.91 3.52 3.87 8.06 6.11 11.99.95 4.22 1.26 8.58 2.38 12.79-.62.99-1.27 1.95-1.96 2.9-3.2.83-6.64.9-9.65 2.42-4.42 2.33-9.83 1.8-14.06 4.54-3.79 3.52-6.23 9.21-4.72 14.35 3.04 7.49 8.96 13.48 11.76 21.08-4.18 3.4-6.94 8.11-9.99 12.46-.85.91-1.72 1.81-2.58 2.72-.34 1.62-.77 3.23-1.26 4.82 4.69 5.17 13.02 6.69 18.96 2.83 1.37-2.3 2.43-4.78 3.66-7.16 1.31-.51 2.62-1.03 3.94-1.54.59-2.36.25-4.74-.49-7.02.64-1.05 1.5-2.01 1.92-3.17-.78-3.36-4.22-5.51-4.13-9.11-.54-3.59.38-7.36-.85-10.83-.97-1.54-2.46-2.63-3.72-3.92 4.52.16 8.17 5.52 12.6 2.51 4.08-1.35 4.35-6.49 2.3-9.67-3.04-4.84-7.78-8.22-11.93-12.03 3.18-.8 6.4-1.43 9.63-1.96.47-.98.95-1.96 1.44-2.93 2.99 1.92 6.17 3.85 9.77 4.25 2.64.13 5.28-.01 7.92.07 4.34.27 8.33-1.9 11.88-4.16 1.75 4.61 7.49 3.14 11.23 4.78-5.36 5.08-13.12 9.54-13.63 17.73-4.01-1.82-8.15-3.49-12.55-4.04-4.45 1.06-9.57 1.85-12.68 5.56 4.9-1.23 9.8-3.51 14.97-2.73 3.74.33 7.22 1.8 10.83 2.72 2.35 2.05 5.18 3.53 8.36 3.59.44-.45 1.3-1.35 1.73-1.8 1.91-.92 4.04-1.22 6.08-1.74-.99.74-2 1.46-3.01 2.17-2.91 4.85-.39 10.75-2.7 15.78-1.12 1.85-2.37 3.64-3.15 5.67 2.05 2.38 1.7 5.21 1.22 8.07-.51 2.67 2.74 3 4.43 4.02 1.17 2.62 2.31 5.28 3.95 7.65 6.29 2.51 13.94 1.56 18.56-3.67-.35-.61-1.06-1.83-1.41-2.44.01-.55.04-1.64.05-2.18-4.55-4.58-7.31-10.64-12.11-14.99.1-1.11.21-2.23.32-3.34 1.63-1.99 2.98-4.19 4.1-6.5 2.57-3.01 4.08-6.69 6.2-10 1.85-3.04 1.73-7.12-.31-10.03-1.96-2.7-3.91-5.79-7.33-6.72-6.2-3.18-13.03-5.06-19.95-5.82l-2.18-3.11c.72-4.48 2.01-8.87 2.33-13.41 3.51-7.09 7.77-13.92 10.09-21.51 3.23.42 6.52.41 9.67-.56l.44 1.24c-.33-1.12-.63-2.24-1.06-3.32-2.93.45-5.89.67-8.86.69-1.41-1.65-2.6-3.77-4.85-4.39m3.72 1.34c2.87 1.22 5.9 2.09 9.01 2.4-2.16-2.79-5.75-4.13-9.01-2.4m-9.22 4.03c-1.75 4.65-3.32 9.43-4.03 14.36 3.52-3.76 4.15-9.26 6.24-13.83.62-.9 1.23-1.8 1.83-2.72-1.29.69-3.48.57-4.04 2.19m-28.71 13.68c3.38.56 7.15 1.4 10.31-.39-3.33.4-7.59-2.15-10.31.39m11.19-.2c2.99 1.3 6.29.78 9.44.54.18-.4.53-1.21.71-1.62-3.39.28-6.79.59-10.15 1.08m-15.55 7.38c1.92-1.66 4.06-3.32 4.9-5.83-2.99.55-4.79 2.84-4.9 5.83m6.18.32c-1.29 1-1.59 2.62-1.56 4.15 3.11-3.41 7.75-5.41 9.9-9.63-3.03 1.42-5.71 3.44-8.34 5.48m9.81-5.38c1.25 3.91 5.56 5.2 7.92 8.24.78 1.25 2.39 1.04 1.93-.65-2.53-3.35-6.3-5.49-9.85-7.59m-1.59 2.7c.4 3.89-.32 7.78-.47 11.67-2.03.4-4.1-.06-6.14-.02 3.53 2.81 8.48 1.47 12.64 1.54-1.38-1.08-2.86-2.01-4.35-2.91.05-3.56.37-7.13-.02-10.68-.42.1-1.24.3-1.66.4m-10.97 7.26c.6 2.81 2.15 5.46 1.71 8.42.39.33 1.18.99 1.57 1.31.08-1.54.17-3.07.27-4.61-1.04-1.8-1.93-3.75-3.55-5.12m19.83 9.71c.43-.3 1.28-.92 1.71-1.22-.15-2.94 1-5.68 1.65-8.49-2.63 2.59-3.95 6.01-3.36 9.71z"/><path d="M0 101.96c6.36.03 12.72-.26 19.08-.41.02 1.8.05 3.61.07 5.42H0v-5.01zM57.89 103.08c27.02-.18 54.03-1.16 81.05-.52 13.97.44 27.97.12 41.93.76-1.04 1.07-2.25 1.97-3.84 1.66-19.66-.02-39.33-.13-59-.46-19.74.3-39.49.43-59.23.48-.23-.48-.69-1.44-.91-1.92zM214.94 101.54c7.35.2 14.7.46 22.06.48v4.95h-22.12l.06-5.43zM27.15 103.61c3.92-.76 7.99-.21 11.97-.42l-.08 1.81c-4.23.02-8.45.13-12.67.01l.78-1.4zM199.02 103.22c2.73.6 7.11-1.47 8.48 1.76-2.83.12-5.67.08-8.5.05.01-.46.01-1.36.02-1.81zM59.45 106.71c39.66-.96 79.38-.81 119.05.02 2.18.85 3.09 3.75 4.62 5.5-2.52 2.22-5.73 3.44-8.34 5.53-2.59 1.99-4.44 4.76-7 6.77-7.15-.67-13.15 3.66-19.54 6.08-3.21-1.01-6.62-2.51-10.03-1.48-2.46.86-4.66 2.28-6.9 3.59l-3.43-.8c-2.94-4.5 1.05-9.12.46-13.92.04-3.72-.52-8.4-4.41-10.06-4.59-2-11.78-1.14-13.45 4.37-2.47 6.38 1.4 12.75.36 19.23-1.28.39-2.55.79-3.82 1.2-2.33-1.33-4.62-2.78-7.17-3.65-3.4-.95-6.76.55-9.96 1.52-3.52-1.57-7.09-3.02-10.48-4.85-2.73-1.62-6.02-1-9.03-1.04-4.33-5.18-9.67-9.35-15.7-12.38 1.75-1.7 2.86-4.24 4.77-5.63z"/><path d="M113.48 110.23c3.11-1.76 6.96-1.22 10.31-.54 3.5 2.09 2.53 6.79 2.55 10.23-1.07 5.25-2.06 11.58-7.25 14.41-4.94-2.61-5.76-8.47-7.15-13.33-.57-3.54-.83-7.81 1.54-10.77z"/><path d="M113.58 132.3c3.3 3.78 10.13 3.45 12-1.58 1.17 2.11 2.91 3.79 5.09 4.84-2.18.46-4.26 1.27-6.27 2.22-.32-.41-.95-1.25-1.27-1.66-1.36 1.85-2.78 3.65-4.19 5.47-1.28-2.23-2.52-4.48-4.07-6.54-.1.73-.31 2.19-.42 2.92-2.41-.98-4.83-1.91-7.31-2.71 2.13-.99 4.14-2.44 6.44-2.96zM79.02 194.02c3.74-1.97 8.03-2.49 11.98-3.92 3.13 2.27 5.77 5.12 8.82 7.47-1.85 1.42-3.61 2.97-5.09 4.77 2.39-.89 4.71-1.98 7.17-2.7 2.08 2.89 3.31 6.41 1.85 9.88-2.06.26-4.13.47-6.19.68l.02-.73c1.62-.47 3.32-.86 4.66-1.95-2.08-.07-4.16.1-6.24.09-3.04-.26-5.95-1.89-9.06-1.32-1.46.25-3.48.44-3.64 2.44 1.68-.27 3.35-.57 5.02-.83.4 3.11 3.98 4.49 4.36 7.66.58 4.41.01 9.04 1.41 13.32 1.17 1.26 2.56 2.29 3.84 3.43-.66.3-1.99.89-2.65 1.18-1.02 2.12-1.15 4.31.77 5.97-.19.85-.38 1.71-.58 2.56-4.05.01-5.09 3.98-6.97 6.75-2.4 1.63-5.44 1.95-8.26 2.31-.04-.48-.11-1.43-.15-1.9l-.44 1.87c-1.96-1.21-3.95-2.37-5.84-3.69 1.16-3.13 2.49-6.28 5.07-8.52 3.17-2.74 4.37-7.28 8.12-9.38 1.96-.02 3.62 1.26 5.44 1.85-1.2-2.03-3.04-3.42-5.39-3.76-3.43-7.78-9.95-13.99-11.95-22.43-.81-4.06 1.14-8.24 3.92-11.1m2.63 3.26c.6 1.19 1.2 2.38 1.81 3.56-1.26 1.38-2.48 2.8-3.66 4.25.61 1.03 1.21 2.06 1.83 3.08.25-2.36.79-4.66 2.12-6.66 2.55-.01 6.74.13 7.24-3.19-1.18.49-2.34 1.02-3.49 1.59-2.04-.65-3.99-1.56-5.85-2.63m3.58 12.77c-1.07 5.66 2.01 12.02 7.13 14.63-1.46-2.81-3.34-5.38-4.68-8.25-1-2.06-1.05-4.5-2.45-6.38m3.94 22.26c-.82 3.54-3.24 7.53-1.12 10.99.7-2.65 1.42-5.28 2.08-7.93.52-1.2-.03-2.27-.96-3.06zM142.12 194.24c1.96-1.6 3.91-3.23 5.89-4.81 3.88 2.08 8.17 3.39 11.95 5.63 2.53 3.09 4.94 7.3 3.4 11.38-2.37 3.7-3.74 7.96-6.42 11.47-1.84 3.18-4.53 5.94-5.35 9.62-2.25.42-4.33 1.43-5.54 3.45 1.7-.53 3.35-1.25 5.1-1.62 1.73 1 3.14 2.48 4.22 4.15 2.72 4.82 7.8 8.02 9.2 13.62-3.1 2.99-7.6 4.89-11.78 2.99-3.76-.33-4.56-4.41-6.25-7.08-1.26-.32-2.53-.63-3.8-.92-.59-1.45-.59-2.91.45-4.17 1.64-2.2-.51-4.7-2.38-5.85 1.35-1.34 2.9-2.49 4.04-4.03.44-4 .2-8.03.62-12.02.39-3.3 4.38-4.81 4.3-8.19 1.78.28 3.55.6 5.34.83-1.03-2.11-3.51-2.5-5.34-3.62-3.7-1.89-6.34-5.26-9.95-7.27 1.97 3.56 5.17 6.19 8.36 8.62-3.8 1.48-7.85.78-11.73 1.53 1.53.22 2.67.82 3.43 1.8-1.84.54-3.72-.09-5.56-.27-.12-2.04-.54-4.12-.1-6.13 1.67-3.46 4.68-5.97 7.53-8.43 3.5 2.59 6.69 6.34 11.33 6.68 3.12.14 6.12-1.44 6.99-4.58-3.78 2.62-9.23 2.76-12.79-.31a10.888 10.888 0 00-5.16-2.47m14.67 8.36c-.48 2.61-.52 5.27.22 7.83.78-1.3 1.55-2.61 2.31-3.92-.82-1.32-1.64-2.63-2.53-3.91m-4.16 8.77c-1.13 3.5-2.65 6.84-4.94 9.74l.79.79c3.86-1.99 4.95-6.56 5.89-10.44-.34-.25-1-.76-1.34-1.01l-.4.92m-4.68 21.12c.44 3.67 1.1 7.38 2.61 10.78 1.06-3.11-.19-6.25-.64-9.34-.49-.36-1.48-1.08-1.97-1.44z"/></g><g fill="#333"><path d="M18.44 99.94c1.64-2.8 4.75-2.98 7.67-3.02.83 1.65 1.62 3.33 2.38 5.03 3.6-.09 7.21-.12 10.82-.16 2.9-4.05 8.21-4.32 12.73-3.74 2.12.34 3.52 2.06 4.93 3.51 41.42-.64 82.85-.58 124.28.06 1.33-1.48 2.68-3.25 4.8-3.55 4.51-.61 9.87-.36 12.71 3.77 2.36.02 4.72.05 7.08.07.9-1.88 1.28-5.27 4.15-4.78 2.49-.66 4.32.92 5.64 2.82 7.13.03 14.25.15 21.37.6v1.47c-7.36-.02-14.71-.28-22.06-.48l-.06 5.43H237v1.46c-7.16.27-14.33.02-21.49.12-2.64 3.07-7.69 3.77-9.98-.15.86.09 2.58.26 3.44.35.75-3.36 1.1-6.99-.58-10.14-.2 2.96-.17 5.93-.35 8.89-2.76-.32-5.54-.5-8.32-.57-2.32 5-6.83 8.36-10.08 12.69-2.85 3.72-5.8 7.51-9.7 10.2-2.2 1.55-5.14 1.99-6.91 4.12a35.25 35.25 0 01-5.23 4.91c-3.05 2.25-5.19 5.47-8.22 7.75-.79-.45-1.57-.9-2.34-1.35 2.07-1.39 3.91-3.09 5.67-4.85-1.08-.1-3.23-.29-4.31-.39 4.65-1.81 9.68-3.4 13.03-7.34 2.94-3.61 7.74-4.74 10.98-8 5.21-4.87 9.12-10.94 14.39-15.77.01-2.3-.01-4.61 0-6.91-2.99-2.86-7.23-2.39-11.03-2.6-2.36 2.03-6.26 4.34-4.69 8.06.54 2.34 3.05.95 4.7 1.01-1.07 2.31-1.46 5.31-3.89 6.64-4.24 2.63-8.93 5.08-11.5 9.57-1.74 3.17-4.23 5.89-7.49 7.52.98-1.98 2.18-3.85 3.38-5.71-6.23-.8-10.87 3.71-16.21 6.01-2.58 1.2-3.83 3.93-5.96 5.66-1.49.75-3.2.82-4.81 1.1 1.36-.87 2.75-1.69 4.14-2.51.84-1.63 1.7-3.25 2.57-4.87-4.67-2.62-11.42-2.03-14.01 3.18 1.55.3 3.1.61 4.64.95-5.94 1.97-13.22 2.36-17.27 7.77l-1.33-.52c-4.15-4.95-11.11-5.26-16.83-7.22 1.49-.38 2.99-.75 4.48-1.12-2.63-5.24-10.19-5.99-14.44-2.41 2.03 2.18 4.12 4.31 6.43 6.21.07 1.85.09 3.71.02 5.57 1.88 1.6 4.48 2.97 4.79 5.7.77 4.05 1.91 8.03 2.59 12.1-3.15-4.46-4.55-9.84-6.75-14.79a219.76 219.76 0 01-3.63-3.22c.41-.46 1.21-1.39 1.61-1.85-.43-1.12-.85-2.23-1.28-3.34-2.03.24-4.07.45-6.11.6 1.01-.81 2.03-1.61 3.07-2.39l-.27-1.86c-3.88-3.09-8.58-4.84-12.76-7.45-2.2-1.48-4.98-1.03-7.48-1.32 1.23 1.9 2.43 3.82 3.41 5.85-3.01-1.7-5.55-4.14-7.2-7.2-2.5-4.54-7.1-7.19-11.4-9.74-2.62-1.32-3.36-4.35-4.36-6.84 1.74.16 4.72 1.13 4.76-1.61 1.06-3.61-2.55-5.56-4.81-7.54-3.78.2-7.94-.15-10.97 2.58.04 2.29 0 4.57-.01 6.85 7.42 6.79 12.32 16.45 21.8 20.77.48-.24 1.46-.72 1.95-.97 1.1 2.02 1.71 4.45 3.57 5.96 4.01 3.33 9.25 4.39 14.02 6.17-2.43-.09-4.87-.27-7.3-.43 1.84 1.84 3.75 3.63 5.84 5.2-1.15.26-2.3.51-3.46.74-3.49-5.51-9.69-8.29-13.34-13.62-6.61-1.97-11.37-7.24-15.33-12.62-3.29-4.5-8-7.91-10.45-13.02-3.3 0-6.6.01-9.91.01-.73 1.49-1.5 2.97-2.31 4.42-4.15.3-7.07-3.56-11.23-2.92-4.98.01-9.97.08-14.95.02v-1.55h19.15c-.02-1.81-.05-3.62-.07-5.42-6.36.15-12.72.44-19.08.41v-1.56c6.14-.35 12.29-.39 18.44-.46m2.51-.95c-.13 3.28-.11 6.56.08 9.84l2.98.56c-1.35-3.45-1.41-7.32-.09-10.79-.74.1-2.22.29-2.97.39m189.71-.73c.51 3.81.52 7.67-.08 11.47 1.87-.4 3.01-1.78 2.91-3.72-.1-2.79 1.22-7.38-2.83-7.75M25.07 108.72l1.45-.09c-.6-3.29-.51-6.65-.76-9.98-1.87 3.06-1.16 6.73-.69 10.07m32.82-5.64c.22.48.68 1.44.91 1.92 19.74-.05 39.49-.18 59.23-.48 19.67.33 39.34.44 59 .46 1.59.31 2.8-.59 3.84-1.66-13.96-.64-27.96-.32-41.93-.76-27.02-.64-54.03.34-81.05.52m-30.74.53l-.78 1.4c4.22.12 8.44.01 12.67-.01l.08-1.81c-3.98.21-8.05-.34-11.97.42m171.87-.39c-.01.45-.01 1.35-.02 1.81 2.83.03 5.67.07 8.5-.05-1.37-3.23-5.75-1.16-8.48-1.76m-139.57 3.49c-1.91 1.39-3.02 3.93-4.77 5.63 6.03 3.03 11.37 7.2 15.7 12.38 3.01.04 6.3-.58 9.03 1.04 3.39 1.83 6.96 3.28 10.48 4.85 3.2-.97 6.56-2.47 9.96-1.52 2.55.87 4.84 2.32 7.17 3.65 1.27-.41 2.54-.81 3.82-1.2 1.04-6.48-2.83-12.85-.36-19.23 1.67-5.51 8.86-6.37 13.45-4.37 3.89 1.66 4.45 6.34 4.41 10.06.59 4.8-3.4 9.42-.46 13.92l3.43.8c2.24-1.31 4.44-2.73 6.9-3.59 3.41-1.03 6.82.47 10.03 1.48 6.39-2.42 12.39-6.75 19.54-6.08 2.56-2.01 4.41-4.78 7-6.77 2.61-2.09 5.82-3.31 8.34-5.53-1.53-1.75-2.44-4.65-4.62-5.5-39.67-.83-79.39-.98-119.05-.02m54.03 3.52c-2.37 2.96-2.11 7.23-1.54 10.77 1.39 4.86 2.21 10.72 7.15 13.33 5.19-2.83 6.18-9.16 7.25-14.41-.02-3.44.95-8.14-2.55-10.23-3.35-.68-7.2-1.22-10.31.54m.1 22.07c-2.3.52-4.31 1.97-6.44 2.96 2.48.8 4.9 1.73 7.31 2.71.11-.73.32-2.19.42-2.92 1.55 2.06 2.79 4.31 4.07 6.54 1.41-1.82 2.83-3.62 4.19-5.47.32.41.95 1.25 1.27 1.66 2.01-.95 4.09-1.76 6.27-2.22-2.18-1.05-3.92-2.73-5.09-4.84-1.87 5.03-8.7 5.36-12 1.58z"/><path d="M77.46 132.34c4.19 2.32 10.33 3.23 11.96 8.4-3.15-1.58-6.18-3.41-9.39-4.89-1.46-.61-1.85-2.27-2.57-3.51zM160.05 132.54c-.1.24-.31.7-.41.94-3.03 3-6.91 4.84-10.93 6.1 2.62-3.95 7.12-5.49 11.34-7.04zM142.66 141.66c2.25.62 3.44 2.74 4.85 4.39 2.97-.02 5.93-.24 8.86-.69.43 1.08.73 2.2 1.06 3.32l-.44-1.24c-3.15.97-6.44.98-9.67.56-2.32 7.59-6.58 14.42-10.09 21.51-.32 4.54-1.61 8.93-2.33 13.41l2.18 3.11c6.92.76 13.75 2.64 19.95 5.82 3.42.93 5.37 4.02 7.33 6.72 2.04 2.91 2.16 6.99.31 10.03-2.12 3.31-3.63 6.99-6.2 10-1.12 2.31-2.47 4.51-4.1 6.5-.11 1.11-.22 2.23-.32 3.34 4.8 4.35 7.56 10.41 12.11 14.99-.01.54-.04 1.63-.05 2.18.35.61 1.06 1.83 1.41 2.44-4.62 5.23-12.27 6.18-18.56 3.67-1.64-2.37-2.78-5.03-3.95-7.65-1.69-1.02-4.94-1.35-4.43-4.02.48-2.86.83-5.69-1.22-8.07.78-2.03 2.03-3.82 3.15-5.67 2.31-5.03-.21-10.93 2.7-15.78 1.01-.71 2.02-1.43 3.01-2.17-2.04.52-4.17.82-6.08 1.74-.43.45-1.29 1.35-1.73 1.8-3.18-.06-6.01-1.54-8.36-3.59-3.61-.92-7.09-2.39-10.83-2.72-5.17-.78-10.07 1.5-14.97 2.73 3.11-3.71 8.23-4.5 12.68-5.56 4.4.55 8.54 2.22 12.55 4.04.51-8.19 8.27-12.65 13.63-17.73-3.74-1.64-9.48-.17-11.23-4.78-3.55 2.26-7.54 4.43-11.88 4.16-2.64-.08-5.28.06-7.92-.07-3.6-.4-6.78-2.33-9.77-4.25-.49.97-.97 1.95-1.44 2.93-3.23.53-6.45 1.16-9.63 1.96 4.15 3.81 8.89 7.19 11.93 12.03 2.05 3.18 1.78 8.32-2.3 9.67-4.43 3.01-8.08-2.35-12.6-2.51 1.26 1.29 2.75 2.38 3.72 3.92 1.23 3.47.31 7.24.85 10.83-.09 3.6 3.35 5.75 4.13 9.11-.42 1.16-1.28 2.12-1.92 3.17.74 2.28 1.08 4.66.49 7.02-1.32.51-2.63 1.03-3.94 1.54-1.23 2.38-2.29 4.86-3.66 7.16-5.94 3.86-14.27 2.34-18.96-2.83.49-1.59.92-3.2 1.26-4.82.86-.91 1.73-1.81 2.58-2.72 3.05-4.35 5.81-9.06 9.99-12.46-2.8-7.6-8.72-13.59-11.76-21.08-1.51-5.14.93-10.83 4.72-14.35 4.23-2.74 9.64-2.21 14.06-4.54 3.01-1.52 6.45-1.59 9.65-2.42.69-.95 1.34-1.91 1.96-2.9-1.12-4.21-1.43-8.57-2.38-12.79-2.24-3.93-3.2-8.47-6.11-11.99-1.66-3.13-2.39-6.68-3.39-10.06-2.89.21-5.79.3-8.68.08l-.93-.13c-1.37-.39-.79-1.9-.14-2.63 3.05.34 6.12.32 9.18.43.5-.33 1.51-.99 2.01-1.33.12.73.34 2.17.45 2.89 1.78 7.48 5.79 14.1 9.43 20.79 1.36 4.2.76 8.79 2.06 12.95 3.02 3.8 8.4 6.22 13.23 5.22 5.43 1.13 11.46-.77 15.17-4.88 1.43-5.58.29-12.22 4.27-16.99 1.43-4.48 3.64-8.62 5.56-12.9.63-1.06 1.67-2.01 1.67-3.34.67-2.55-2.24-4.05-2.18-6.5m-63.64 52.36c-2.78 2.86-4.73 7.04-3.92 11.1 2 8.44 8.52 14.65 11.95 22.43 2.35.34 4.19 1.73 5.39 3.76-1.82-.59-3.48-1.87-5.44-1.85-3.75 2.1-4.95 6.64-8.12 9.38-2.58 2.24-3.91 5.39-5.07 8.52 1.89 1.32 3.88 2.48 5.84 3.69l.44-1.87c.04.47.11 1.42.15 1.9 2.82-.36 5.86-.68 8.26-2.31 1.88-2.77 2.92-6.74 6.97-6.75.2-.85.39-1.71.58-2.56-1.92-1.66-1.79-3.85-.77-5.97.66-.29 1.99-.88 2.65-1.18-1.28-1.14-2.67-2.17-3.84-3.43-1.4-4.28-.83-8.91-1.41-13.32-.38-3.17-3.96-4.55-4.36-7.66-1.67.26-3.34.56-5.02.83.16-2 2.18-2.19 3.64-2.44 3.11-.57 6.02 1.06 9.06 1.32 2.08.01 4.16-.16 6.24-.09-1.34 1.09-3.04 1.48-4.66 1.95l-.02.73c2.06-.21 4.13-.42 6.19-.68 1.46-3.47.23-6.99-1.85-9.88-2.46.72-4.78 1.81-7.17 2.7 1.48-1.8 3.24-3.35 5.09-4.77-3.05-2.35-5.69-5.2-8.82-7.47-3.95 1.43-8.24 1.95-11.98 3.92m63.1.22c1.92.35 3.68 1.2 5.16 2.47 3.56 3.07 9.01 2.93 12.79.31-.87 3.14-3.87 4.72-6.99 4.58-4.64-.34-7.83-4.09-11.33-6.68-2.85 2.46-5.86 4.97-7.53 8.43-.44 2.01-.02 4.09.1 6.13 1.84.18 3.72.81 5.56.27-.76-.98-1.9-1.58-3.43-1.8 3.88-.75 7.93-.05 11.73-1.53-3.19-2.43-6.39-5.06-8.36-8.62 3.61 2.01 6.25 5.38 9.95 7.27 1.83 1.12 4.31 1.51 5.34 3.62-1.79-.23-3.56-.55-5.34-.83.08 3.38-3.91 4.89-4.3 8.19-.42 3.99-.18 8.02-.62 12.02-1.14 1.54-2.69 2.69-4.04 4.03 1.87 1.15 4.02 3.65 2.38 5.85-1.04 1.26-1.04 2.72-.45 4.17 1.27.29 2.54.6 3.8.92 1.69 2.67 2.49 6.75 6.25 7.08 4.18 1.9 8.68 0 11.78-2.99-1.4-5.6-6.48-8.8-9.2-13.62-1.08-1.67-2.49-3.15-4.22-4.15-1.75.37-3.4 1.09-5.1 1.62 1.21-2.02 3.29-3.03 5.54-3.45.82-3.68 3.51-6.44 5.35-9.62 2.68-3.51 4.05-7.77 6.42-11.47 1.54-4.08-.87-8.29-3.4-11.38-3.78-2.24-8.07-3.55-11.95-5.63-1.98 1.58-3.93 3.21-5.89 4.81z"/><path d="M146.38 143c3.26-1.73 6.85-.39 9.01 2.4-3.11-.31-6.14-1.18-9.01-2.4zM137.16 147.03c.56-1.62 2.75-1.5 4.04-2.19-.6.92-1.21 1.82-1.83 2.72-2.09 4.57-2.72 10.07-6.24 13.83.71-4.93 2.28-9.71 4.03-14.36zM108.45 160.71c2.72-2.54 6.98.01 10.31-.39-3.16 1.79-6.93.95-10.31.39zM119.64 160.51c3.36-.49 6.76-.8 10.15-1.08-.18.41-.53 1.22-.71 1.62-3.15.24-6.45.76-9.44-.54zM104.09 167.89c.11-2.99 1.91-5.28 4.9-5.83-.84 2.51-2.98 4.17-4.9 5.83zM110.27 168.21c2.63-2.04 5.31-4.06 8.34-5.48-2.15 4.22-6.79 6.22-9.9 9.63-.03-1.53.27-3.15 1.56-4.15zM120.08 162.83c3.55 2.1 7.32 4.24 9.85 7.59.46 1.69-1.15 1.9-1.93.65-2.36-3.04-6.67-4.33-7.92-8.24zM118.49 165.53c.42-.1 1.24-.3 1.66-.4.39 3.55.07 7.12.02 10.68 1.49.9 2.97 1.83 4.35 2.91-4.16-.07-9.11 1.27-12.64-1.54 2.04-.04 4.11.42 6.14.02.15-3.89.87-7.78.47-11.67zM107.52 172.79c1.62 1.37 2.51 3.32 3.55 5.12-.1 1.54-.19 3.07-.27 4.61-.39-.32-1.18-.98-1.57-1.31.44-2.96-1.11-5.61-1.71-8.42zM127.35 182.5c-.59-3.7.73-7.12 3.36-9.71-.65 2.81-1.8 5.55-1.65 8.49-.43.3-1.28.92-1.71 1.22zM81.65 197.28c1.86 1.07 3.81 1.98 5.85 2.63 1.15-.57 2.31-1.1 3.49-1.59-.5 3.32-4.69 3.18-7.24 3.19-1.33 2-1.87 4.3-2.12 6.66-.62-1.02-1.22-2.05-1.83-3.08 1.18-1.45 2.4-2.87 3.66-4.25-.61-1.18-1.21-2.37-1.81-3.56zM156.79 202.6c.89 1.28 1.71 2.59 2.53 3.91-.76 1.31-1.53 2.62-2.31 3.92-.74-2.56-.7-5.22-.22-7.83zM85.23 210.05c1.4 1.88 1.45 4.32 2.45 6.38 1.34 2.87 3.22 5.44 4.68 8.25-5.12-2.61-8.2-8.97-7.13-14.63zM152.63 211.37l.4-.92c.34.25 1 .76 1.34 1.01-.94 3.88-2.03 8.45-5.89 10.44l-.79-.79c2.29-2.9 3.81-6.24 4.94-9.74zM89.17 232.31c.93.79 1.48 1.86.96 3.06-.66 2.65-1.38 5.28-2.08 7.93-2.12-3.46.3-7.45 1.12-10.99zM147.95 232.49c.49.36 1.48 1.08 1.97 1.44.45 3.09 1.7 6.23.64 9.34-1.51-3.4-2.17-7.11-2.61-10.78z"/></g></svg>