<svg width="288" height="400" viewBox="0 0 216 300" xmlns="http://www.w3.org/2000/svg"><g fill="#FFF"><path d="M0 0h216v300H0V0m77.67 53.79c-3.7 6.34-2.36 13.98-1.54 20.9.63 3.35 3.75 5.05 6.97 4.71 1.29.75 2.59 1.48 3.91 2.2-1.84 1.18-3.63 2.45-5.18 4-1.11-.37-2.21-.74-3.32-1.11-.9-2.44-2.65-5.19-5.64-4.91-4.15.31-9.18-.59-12.29 2.88-.47.02-1.4.07-1.87.09-5.37 6.99-3.86 17.09-.46 24.64 1.19.79 2.37 1.59 3.56 2.38.41 4.14 2.02 8 4.02 11.6-.86 5.91-.13 11.89-.14 17.83.98 10 .77 20.07 1.1 30.11l.46.64c.21 7.76.2 15.52.58 23.27 1.12 9.84.23 19.8 1.35 29.65.45 7.43.19 14.9.68 22.33.88 7.19.34 14.46.97 21.67-2.45 3.3-5.71 5.82-8.65 8.65-1.39 1.54-3.34 3.84-1.7 5.89 2.73 3.39 7.8 2.68 11.66 2.44 3.28-.13 5.5-2.75 8.14-4.31 7.07-.03 14.15.5 21.21.14-2.26 2.19-3.61 5.06-5.6 7.47.46.83.87 1.7 1.43 2.48 4.51 2.6 9.89 1.94 14.84 1.57 6.83-2.55 11.64-8.29 16.81-13.13-.53-3.14-.7-6.34-1.58-9.41l1.04.08c-1.22-2.32-2.28-4.84-1.63-7.51 4.97-42 9.95-84.01 14.98-126.01.54-3.08.75-6.21.42-9.32 2.51-4.43 4.74-9.01 6.31-13.86 1.97-.68 4.08-1.26 5.5-2.88 4.17-3.33 4.48-9.17 5.39-14.01-.15-3.38.8-7.37-1.43-10.23-1.94 2.44-.94 5.52-.79 8.33.27 6.61-2.25 13.33-7.52 17.49-.27-1.23-.58-2.44-.93-3.65-1.42 1.67-1.51 4.09-2.25 6.09-1.4 5.55-5.11 10.06-7.34 15.26-1 2.43-2.63 4.51-4.93 5.84-2.88-2.21-5.75-4.44-8.58-6.71-2.65-2.61-3.4-6.43-5.51-9.4-1.29-1.86-2.48-3.8-3.38-5.87 2.98 2.62 7.13 4.8 10.98 2.53-5.98-.64-10.82-4.64-14.85-8.81 1.47 4.74 2.57 9.78 6 13.57-2.19 4.54-3.84 9.51-3.68 14.61-.14 3.19.21 7.26-3.08 9.06-8.95 4.88-19.57 2.35-28.74-.47-.06-3.07-.07-6.15-.57-9.19-.3 3.16-.11 6.34-.05 9.5-4.39-3.07-.53-9.19-3.72-12.98-3.7-4.86-3.53-11.16-2.09-16.79-1.99-4-4.86-8.25-3.67-12.94.84-4.29 5.28-6.33 7.05-10.1-2.22 1.59-4.12 3.58-6.37 5.13.21-1.02.64-3.08.86-4.1 2.58-4.94 9.04-4.8 12.9-8.31 1.52 1.17 3.13 2.25 5.06 2.58-1.92-2.32-3.88-4.73-6.58-6.18 3.5-1.43 8.09-3.31 7.76-7.9-2.44 5.16-8.3 6.69-13.52 7.28-4.06-5.4-3.03-12.45-2.72-18.75.46-3.43 1.79-6.62 4.95-8.38 5.07.3 11.29-1.36 15.36 2.5 4.09 5.12 1.33 11.77 1.59 17.64-.46 3.17 2.64 5.31 3.08 8.33 3.49.59 6.97 1.42 10.12 3.08-2.21 1.79-4.69 3.43-5.92 6.11 2.61-1.39 4.75-3.46 6.99-5.36 1.54 2.2 4.73 1.01 6.75 2.44 4.52 3.34 6.65 9.26 6.59 14.74-3.54-2.13-7.51-3.23-11.52-4.04-.56.35-1.12.71-1.67 1.07 5.7.91 10.39 4.42 15.88 5.91.7 1.21 1.36 2.44 2.03 3.67a2.6 2.6 0 001.69-.38c-1.68-3.09-4.88-5.56-4.89-9.33-.48-5.02-3.53-9.24-6.6-13.03-1.9-2.31-5.36-1.47-7.69-3.13-2.72-1.69-5.78-2.69-8.96-3.05-1.46-1.78-3.73-3.24-3.89-5.73-1.36-5.02 1.19-10.11-.33-15.1-.55-4.55-5.32-6.63-9.32-7.23-4.86-.68-10.77-.82-14.28 3.22m62.98 26.96c-1.9 1.05-3.78 2.14-5.7 3.16-3.74 7.65-3.01 16.75-.01 24.52-.51.37-1.52 1.12-2.02 1.49-2.31 2.77-4.6 5.57-6.63 8.57.4-.1 1.19-.31 1.59-.41 2.03-3.3 4.79-6.06 7.89-8.36 3.28-2.55 4.1-6.82 5.47-10.49-3.18 1.02-2.98 4.87-4.41 7.36-.42-1.56-.78-3.12-1.09-4.7.42-.12 1.26-.36 1.68-.49 1.6-1.75.64-4.4.8-6.53.51 1.52 1.02 3.03 1.56 4.54l1.6-.45c-.41-1.92-1.86-3.13-3.12-4.45.05-4.05.51-8.1.35-12.15 3.95-.31 7.9-.08 11.85.07.82.85 1.64 1.71 2.46 2.58-.53 2.66-.78 5.4.1 8.02-.61.6-1.82 1.82-2.42 2.42l.97.93c-1.11-.25-2.17-.84-3.3-.92.25 2.76.81 5.52.91 8.32.21.08.65.24.86.32-.03-3.55 1.55-6.7 3.57-9.51-.09 2.19-.23 4.4-.71 6.54-.41 2.87-4.98 3.63-3.4 7.05 2.29-2.42 5.33-4.74 5.79-8.28 1.17-4.27-.78-8.91 1.18-13-.93-1.19-1.8-2.43-2.85-3.52-3.23-3.67-8.68-2.12-12.97-2.63m-60.19 8.3c2.67.15 4.92 1.49 7.18 2.76-.32-3.8-4.37-3.75-7.18-2.76m11.65.15c-1.84.51-2.52 2.59-3.29 4.12 1.24-.88 2.4-1.86 3.55-2.87 4.23-.57 8.53-1.46 12.8-.66l1.04-1.72c-4.72-.51-9.51-.05-14.1 1.13m13.88 10.7c1-.56 1.99-1.13 2.98-1.71.96.2 2.89.61 3.85.82-.96-.83-1.64-2.07-2.86-2.55-2.06-.63-4.2 1.36-3.97 3.44m-4.86 10.65c-3.83 1.38-7.94.81-11.89.45-1.11-1.7-2.26-3.5-4.24-4.28.43 2.27 1.25 4.81 3.71 5.57 5.31 1.82 11.21.85 16.26-1.33 2.31-2.71 4.42-5.83 5.13-9.39-4.11 1.96-4.05 8.3-8.97 8.98m-22.82-.67c.08.38.25 1.14.33 1.52 2.16-.31 4.42-.35 6.46-1.22-1.56-2.21-4.57-.3-6.79-.3m2.14 6.02c-.22 2.09-1.67 3.64-2.76 5.33 2.01-.92 2.97-2.87 4.05-4.65 2.23-1.2.83 2.31.85 3.46.37 4.6 1.91 9.22 4.51 13.08.5 1.92.55 4.03 1.91 5.63-.08-2.28.73-4.97-.9-6.89-3.26-4.7-5.69-11.37-2.75-16.8-1.75-.52-3.55-.57-4.91.84m6.48-1.06c1.46 1.45 3.05 2.79 4.13 4.56 1.76.9 3.58 1.68 5.39 2.49.44 3.47 1.69 7.11 5.17 8.63-.78-1.66-1.7-3.24-2.61-4.82-.34-3.73-3.2-5.92-6.57-6.88-1.28-2.01-3.18-3.43-5.51-3.98m17.57-.15c.39 1.22.79 2.45 1.2 3.67-1.79 1.14-3.6 2.27-5.09 3.8 2.17-.8 4.48-1.66 5.96-3.55 1.42.05 2.85.12 4.27.19.03-.31.1-.94.13-1.25-2.71.5-4.72-1.01-6.47-2.86m-1.59 12.19c1.59-.73 3.15-1.52 4.7-2.31 2.48.88 4.92.16 5.64-2.52-1.25.56-2.48 1.13-3.71 1.71-.75-.99-1.48-1.99-2.19-3-.97 2.39-2.73 4.25-4.44 6.12z"/><path d="M62.06 84.22c1.76-3.93 6.65-2.34 10.02-2.58 2.33-.29 3.54 2.18 5.34 3.2l-3.79.6c1.48 2.12-.5 3.93-1.04 5.94-.42 1.95-.59 3.95-1.02 5.9.53-.23 1.6-.7 2.13-.94-1.6 2.94-3.2 6.5-1.79 9.85.91 3.49 3.82 6.94 1.98 10.6-1.3 3.8 0 7.74 1.28 11.35-1.42.84-2.93 1.51-4.62 1.32.38-4.82-2.87-8.39-4.98-12.33-1.86-5.16-1.98-10.81-1.55-16.22-.2-3.01-1.75-5.91-1.08-8.97.94-2.71-2.68-5.22-.88-7.72z"/><path d="M59.56 85.33c.34.03 1.01.1 1.34.13-.63 2.01-1.41 3.96-2.01 5.98.73-.06 2.19-.17 2.92-.23l-.77-1.6 1.35 1.77c-1.17.81-2.35 1.6-3.54 2.38.01 3.13.51 6.22 1.09 9.29.44.35 1.33 1.03 1.77 1.38.02.72.05 2.16.07 2.88-3.38-3.66-3.79-8.71-4.43-13.4.69-2.87 1.38-5.75 2.21-8.58zM133.43 94.2c3.73-1.82 1.56-7.28 4.94-9.5-2.14 5.43-1.83 11.21-2.24 16.91-.99-2.26-1.49-4.69-1.62-7.15-.27-.06-.81-.19-1.08-.26zM119.68 121.47c2.38 6.41 8.29 10.12 13.59 13.91 2-.92 3.87-2.1 5.61-3.44-4.34 33.41-7.82 66.94-12.06 100.37-.67-1.45-1.3-2.9-1.91-4.36-1.92-5.44-1.71-11.24-2.02-16.9 1.58-8.18 2.84-16.55 2.01-24.88.53-.68 1.07-1.35 1.61-2.02-2.05-4.63-1.46-9.89-3.67-14.46.45-3.21 1.73-6.4 1.16-9.68-.6-3.46-.14-7.03-.83-10.47-.75-3.6-5.15-4.8-5.55-8.61-1.5-6.43-1.07-13.54 2.06-19.46zM67.03 124.47c.17-.02.5-.05.66-.06.32 1.96.58 3.94.86 5.92 2.68 1.15 6.03 1.16 7.6-1.73 3.56 5.7 4.62 13.72 1.02 19.67-1.18 2.65.79 5.41 1.42 7.98-.62 2.01-1.24 4.03-2 5.99.37.44 1.1 1.3 1.46 1.73-.64 2.66-1.32 5.31-1.92 7.98-2.63 7.66-.72 15.71-.53 23.56.07 3.56 3.38 7.41.95 10.65-1.01 4.78.29 9.43 2.45 13.68-1.55 3.26.09 6.87-1.03 10.21-1.72 6.53-.97 13.39.18 19.95.62 3.16-.22 6.34-.78 9.45a84.733 84.733 0 00-4.11 3.93c.15-3.36-.24-6.68-.52-10.01-.39-8.53-.05-17.1-.99-25.6-.3-6.76-.21-13.53-.52-20.28-1.01-8.78-.51-17.63-1.06-26.44-1.1-9.74-.24-19.59-1.33-29.33-.79-9.06.53-18.4-1.81-27.25z"/><path d="M79.56 144.42c.46-.77.92-1.54 1.4-2.3l2.46 2.62c4.75 1.33 9.7 1.59 14.55 2.34 4.62.63 9.22-.49 13.67-1.62 2.06-.4 3.3-2.18 4.68-3.56-.13 3.86 4.44 4.75 5.06 8.19 1.28 5.4.99 11.03 1.25 16.55l-1.29-.27c-.62 5.91 2.59 11.42 2.46 17.28-3.32 2.23-7.23 3.34-10.94 4.72-4.47 1.55-9.04.14-13.38-1.04.78 2.12 1.85 4.27 1.7 6.59-.63 4.98.35 9.98.92 14.9l1.51 1.11c1.4 4.31.93 9.03 2.82 13.21 3.03 6.71-.53 14.24 2.42 21.01.42 1.58.79 3.18 1.16 4.77.48.93.98 1.86 1.48 2.79.1 3.14.05 6.27-.14 9.41-.56 1.25-1.1 2.51-1.62 3.78-.09 1.78-.2 3.56-.28 5.34-1.88 2.43-3.74 4.89-5.29 7.55-4.59-.64-9.23-.85-13.85-1.13 2.13-1.7 4.8-2.97 6.33-5.3-2.39-3.87-3.16-8.45-5.31-12.42.13-6.32 2.67-12.18 4.74-18.04 1.24-6.7-2.27-13.22-1.65-19.87 1.8-4.97 2.25-10.26 2.12-15.51-2.33 2.94-1.46 6.9-2.54 10.28-.63 2.63-2.14 5.2-1.52 7.99.81 5.4 2.39 10.78 2.09 16.3-.57 2.81-2.45 5.18-3.12 7.98-1.06 3.31-.55 6.95-2.01 10.14.61 1.64 1.29 3.25 1.93 4.88-.3.04-.9.11-1.21.15l-.62.06c-.47 3.74-4.1 5.81-4.89 9.46 3.54-1.48 5.04-5.51 7.21-8.44 1.14 2.78 2.3 5.63 2.06 8.71-3.45 2.53-7.77 2.44-11.8 3.14-4.15 1.5-7.33 5.7-12.11 5.35-2.19-.43-5.34 1.12-6.76-1.2.16-1.25.34-2.5.54-3.74 2.74-1.13 5.17-2.81 7.39-4.76-.39-.3-1.15-.91-1.54-1.22 3.25-3.64 6.1-7.65 9.88-10.79 2-9.3-1.85-18.59 0-27.9 1-4.21.43-8.55 1.14-12.79-3.92-4.75-2.79-11.08-.79-16.38.8 1.09 1.58 2.21 2.32 3.35 2.31 1.23 5.62 2.1 7.62-.14 2.51-3.14 3.24-8.05.65-11.35-.06 3.27.01 6.54-.24 9.81-2.02.18-4.25.75-6.02-.59-2.78-1.3-3.1-4.67-4.42-7.1l-1.76 1.85c-.21-4.43-.89-8.82-1.04-13.26 4.52 2.65 9.9 3.21 15.04 3.25 1.81.2 3.12-1.03 4.25-2.24-6.6.64-13.51.17-19.33-3.3-.81-6.32 2.12-12.23 2.97-18.4-.87-2.68.04-5.37 1.28-7.76-.95-2.2-1.89-4.41-2.64-6.68.95-1.82 1.78-3.69 2.55-5.59l-1.54-.17m5.35 72.61c-.51 1.93-.26 3.99.32 5.88.05-1.05.16-3.15.22-4.2 1.46-1.68 3.07-3.34 3.7-5.53-1.6 1.03-3.48 1.98-4.24 3.85m-10.39 57.32c3.41-2.54 5.39-6.43 8.01-9.7-3.68 2.16-6.41 5.79-8.01 9.7z"/><path d="M103.37 191.14c6.7.77 13.22-1.26 19.16-4.17.11 6.68.58 13.44-.68 20.06-.77 3.9-.25 7.88-.64 11.81-.53 4.85 2.23 9.11 3.43 13.63 2.3 8.47-1.13 17-.88 25.54-.62 5.31-.55 10.85-2.55 15.88.16.45.49 1.35.66 1.8-.39 2.82-.96 5.61-1.63 8.38-2.48 2.03-5.23 3.67-7.9 5.41-2.48.07-5 .03-7.42.71-2.46-.49-4.85-1.25-7.21-2.1 1.1-2.18 1.72-4.87 3.74-6.39 5.46-3.02 7.07-9.67 12.03-13.31-.19-2.59 1.39-4.3 3.61-5.38l-1.73.13c.6-.62 1.2-1.23 1.81-1.84.21-2.77.46-5.57.16-8.35-.89-7.4-.31-15.27-3.84-22.09-.08 5.46 1.99 10.68 1.96 16.15-.02 5.12 1.67 10.55-.72 15.4-1.24 1.1-2.47 2.21-3.69 3.33.3-1.14.9-3.44 1.2-4.59 1.38-7-1.09-13.74-2.94-20.38-1.3-3.55.52-7.17.25-10.8.31-4.85-2.5-9.18-2.47-14 1.08-1.55 2.44-2.86 3.67-4.28l-.48-1.64c-1.72-.44-3.4-.98-5.08-1.54-2.56-5.43-3.78-11.54-1.82-17.37m13.72 11.91c.31-4.15 1-8.71-1.08-12.52-.63 4.21.09 8.43 1.08 12.52m-12.27-10.73c.12 3.92 1.17 8.87 5.04 10.76-1.73-3.57-2.95-7.38-5.04-10.76m9.35 27.42c.59 1.37 1.16 2.74 1.72 4.13l1.63-.2c-.95-2.37-1.37-4.86-.6-7.36-1.45.67-2.05 2.12-2.75 3.43m3.16 8.97c1.39 7.24 2.53 14.57 4.08 21.77.67-4.12.22-8.35-.79-12.37-.78-3.22-1.17-6.71-3.29-9.4m-4.02 53.36c1.43-1.07 1.8-2.86 2.3-4.47.97-3.63 2.93-6.97 3.22-10.77-2.96 4.58-4.23 10-5.52 15.24zM78.12 199.34c.73-.87 1.5-.81 2.3.16-.25.27-.76.8-1.02 1.07-.32-.31-.96-.92-1.28-1.23zM126.22 266.24c.14 3.62 1.59 6.99 2.15 10.55-1.26 1.09-2.54 2.17-3.83 3.24.51-4.6 1.23-9.19 1.68-13.79z"/></g><g fill="#333"><path d="M77.67 53.79c3.51-4.04 9.42-3.9 14.28-3.22 4 .6 8.77 2.68 9.32 7.23 1.52 4.99-1.03 10.08.33 15.1.16 2.49 2.43 3.95 3.89 5.73 3.18.36 6.24 1.36 8.96 3.05 2.33 1.66 5.79.82 7.69 3.13 3.07 3.79 6.12 8.01 6.6 13.03.01 3.77 3.21 6.24 4.89 9.33a2.6 2.6 0 01-1.69.38c-.67-1.23-1.33-2.46-2.03-3.67-5.49-1.49-10.18-5-15.88-5.91.55-.36 1.11-.72 1.67-1.07 4.01.81 7.98 1.91 11.52 4.04.06-5.48-2.07-11.4-6.59-14.74-2.02-1.43-5.21-.24-6.75-2.44-2.24 1.9-4.38 3.97-6.99 5.36 1.23-2.68 3.71-4.32 5.92-6.11-3.15-1.66-6.63-2.49-10.12-3.08-.44-3.02-3.54-5.16-3.08-8.33-.26-5.87 2.5-12.52-1.59-17.64-4.07-3.86-10.29-2.2-15.36-2.5-3.16 1.76-4.49 4.95-4.95 8.38-.31 6.3-1.34 13.35 2.72 18.75 5.22-.59 11.08-2.12 13.52-7.28.33 4.59-4.26 6.47-7.76 7.9 2.7 1.45 4.66 3.86 6.58 6.18-1.93-.33-3.54-1.41-5.06-2.58-3.86 3.51-10.32 3.37-12.9 8.31-.22 1.02-.65 3.08-.86 4.1 2.25-1.55 4.15-3.54 6.37-5.13-1.77 3.77-6.21 5.81-7.05 10.1-1.19 4.69 1.68 8.94 3.67 12.94-1.44 5.63-1.61 11.93 2.09 16.79 3.19 3.79-.67 9.91 3.72 12.98-.06-3.16-.25-6.34.05-9.5.5 3.04.51 6.12.57 9.19 9.17 2.82 19.79 5.35 28.74.47 3.29-1.8 2.94-5.87 3.08-9.06-.16-5.1 1.49-10.07 3.68-14.61-3.43-3.79-4.53-8.83-6-13.57 4.03 4.17 8.87 8.17 14.85 8.81-3.85 2.27-8 .09-10.98-2.53.9 2.07 2.09 4.01 3.38 5.87 2.11 2.97 2.86 6.79 5.51 9.4 2.83 2.27 5.7 4.5 8.58 6.71 2.3-1.33 3.93-3.41 4.93-5.84 2.23-5.2 5.94-9.71 7.34-15.26.74-2 .83-4.42 2.25-6.09.35 1.21.66 2.42.93 3.65 5.27-4.16 7.79-10.88 7.52-17.49-.15-2.81-1.15-5.89.79-8.33 2.23 2.86 1.28 6.85 1.43 10.23-.91 4.84-1.22 10.68-5.39 14.01-1.42 1.62-3.53 2.2-5.5 2.88-1.57 4.85-3.8 9.43-6.31 13.86.33 3.11.12 6.24-.42 9.32-5.03 42-10.01 84.01-14.98 126.01-.65 2.67.41 5.19 1.63 7.51l-1.04-.08c.88 3.07 1.05 6.27 1.58 9.41-5.17 4.84-9.98 10.58-16.81 13.13-4.95.37-10.33 1.03-14.84-1.57-.56-.78-.97-1.65-1.43-2.48 1.99-2.41 3.34-5.28 5.6-7.47-7.06.36-14.14-.17-21.21-.14-2.64 1.56-4.86 4.18-8.14 4.31-3.86.24-8.93.95-11.66-2.44-1.64-2.05.31-4.35 1.7-5.89 2.94-2.83 6.2-5.35 8.65-8.65-.63-7.21-.09-14.48-.97-21.67-.49-7.43-.23-14.9-.68-22.33-1.12-9.85-.23-19.81-1.35-29.65-.38-7.75-.37-15.51-.58-23.27l-.46-.64c-.33-10.04-.12-20.11-1.1-30.11.01-5.94-.72-11.92.14-17.83-2-3.6-3.61-7.46-4.02-11.6-1.19-.79-2.37-1.59-3.56-2.38-3.4-7.55-4.91-17.65.46-24.64.47-.02 1.4-.07 1.87-.09 3.11-3.47 8.14-2.57 12.29-2.88 2.99-.28 4.74 2.47 5.64 4.91 1.11.37 2.21.74 3.32 1.11 1.55-1.55 3.34-2.82 5.18-4-1.32-.72-2.62-1.45-3.91-2.2-3.22.34-6.34-1.36-6.97-4.71-.82-6.92-2.16-14.56 1.54-20.9M62.06 84.22c-1.8 2.5 1.82 5.01.88 7.72-.67 3.06.88 5.96 1.08 8.97-.43 5.41-.31 11.06 1.55 16.22 2.11 3.94 5.36 7.51 4.98 12.33 1.69.19 3.2-.48 4.62-1.32-1.28-3.61-2.58-7.55-1.28-11.35 1.84-3.66-1.07-7.11-1.98-10.6-1.41-3.35.19-6.91 1.79-9.85-.53.24-1.6.71-2.13.94.43-1.95.6-3.95 1.02-5.9.54-2.01 2.52-3.82 1.04-5.94l3.79-.6c-1.8-1.02-3.01-3.49-5.34-3.2-3.37.24-8.26-1.35-10.02 2.58m-2.5 1.11c-.83 2.83-1.52 5.71-2.21 8.58.64 4.69 1.05 9.74 4.43 13.4-.02-.72-.05-2.16-.07-2.88-.44-.35-1.33-1.03-1.77-1.38-.58-3.07-1.08-6.16-1.09-9.29 1.19-.78 2.37-1.57 3.54-2.38l-1.35-1.77.77 1.6c-.73.06-2.19.17-2.92.23.6-2.02 1.38-3.97 2.01-5.98-.33-.03-1-.1-1.34-.13m60.12 36.14c-3.13 5.92-3.56 13.03-2.06 19.46.4 3.81 4.8 5.01 5.55 8.61.69 3.44.23 7.01.83 10.47.57 3.28-.71 6.47-1.16 9.68 2.21 4.57 1.62 9.83 3.67 14.46-.54.67-1.08 1.34-1.61 2.02.83 8.33-.43 16.7-2.01 24.88.31 5.66.1 11.46 2.02 16.9.61 1.46 1.24 2.91 1.91 4.36 4.24-33.43 7.72-66.96 12.06-100.37-1.74 1.34-3.61 2.52-5.61 3.44-5.3-3.79-11.21-7.5-13.59-13.91m-52.65 3c2.34 8.85 1.02 18.19 1.81 27.25 1.09 9.74.23 19.59 1.33 29.33.55 8.81.05 17.66 1.06 26.44.31 6.75.22 13.52.52 20.28.94 8.5.6 17.07.99 25.6.28 3.33.67 6.65.52 10.01 1.32-1.36 2.7-2.66 4.11-3.93.56-3.11 1.4-6.29.78-9.45-1.15-6.56-1.9-13.42-.18-19.95 1.12-3.34-.52-6.95 1.03-10.21-2.16-4.25-3.46-8.9-2.45-13.68 2.43-3.24-.88-7.09-.95-10.65-.19-7.85-2.1-15.9.53-23.56.6-2.67 1.28-5.32 1.92-7.98-.36-.43-1.09-1.29-1.46-1.73.76-1.96 1.38-3.98 2-5.99-.63-2.57-2.6-5.33-1.42-7.98 3.6-5.95 2.54-13.97-1.02-19.67-1.57 2.89-4.92 2.88-7.6 1.73-.28-1.98-.54-3.96-.86-5.92-.16.01-.49.04-.66.06m12.53 19.95l1.54.17c-.77 1.9-1.6 3.77-2.55 5.59.75 2.27 1.69 4.48 2.64 6.68-1.24 2.39-2.15 5.08-1.28 7.76-.85 6.17-3.78 12.08-2.97 18.4 5.82 3.47 12.73 3.94 19.33 3.3-1.13 1.21-2.44 2.44-4.25 2.24-5.14-.04-10.52-.6-15.04-3.25.15 4.44.83 8.83 1.04 13.26l1.76-1.85c1.32 2.43 1.64 5.8 4.42 7.1 1.77 1.34 4 .77 6.02.59.25-3.27.18-6.54.24-9.81 2.59 3.3 1.86 8.21-.65 11.35-2 2.24-5.31 1.37-7.62.14-.74-1.14-1.52-2.26-2.32-3.35-2 5.3-3.13 11.63.79 16.38-.71 4.24-.14 8.58-1.14 12.79-1.85 9.31 2 18.6 0 27.9-3.78 3.14-6.63 7.15-9.88 10.79.39.31 1.15.92 1.54 1.22-2.22 1.95-4.65 3.63-7.39 4.76-.2 1.24-.38 2.49-.54 3.74 1.42 2.32 4.57.77 6.76 1.2 4.78.35 7.96-3.85 12.11-5.35 4.03-.7 8.35-.61 11.8-3.14.24-3.08-.92-5.93-2.06-8.71-2.17 2.93-3.67 6.96-7.21 8.44.79-3.65 4.42-5.72 4.89-9.46l.62-.06c.31-.04.91-.11 1.21-.15-.64-1.63-1.32-3.24-1.93-4.88 1.46-3.19.95-6.83 2.01-10.14.67-2.8 2.55-5.17 3.12-7.98.3-5.52-1.28-10.9-2.09-16.3-.62-2.79.89-5.36 1.52-7.99 1.08-3.38.21-7.34 2.54-10.28.13 5.25-.32 10.54-2.12 15.51-.62 6.65 2.89 13.17 1.65 19.87-2.07 5.86-4.61 11.72-4.74 18.04 2.15 3.97 2.92 8.55 5.31 12.42-1.53 2.33-4.2 3.6-6.33 5.3 4.62.28 9.26.49 13.85 1.13 1.55-2.66 3.41-5.12 5.29-7.55.08-1.78.19-3.56.28-5.34.52-1.27 1.06-2.53 1.62-3.78.19-3.14.24-6.27.14-9.41-.5-.93-1-1.86-1.48-2.79-.37-1.59-.74-3.19-1.16-4.77-2.95-6.77.61-14.3-2.42-21.01-1.89-4.18-1.42-8.9-2.82-13.21l-1.51-1.11c-.57-4.92-1.55-9.92-.92-14.9.15-2.32-.92-4.47-1.7-6.59 4.34 1.18 8.91 2.59 13.38 1.04 3.71-1.38 7.62-2.49 10.94-4.72.13-5.86-3.08-11.37-2.46-17.28l1.29.27c-.26-5.52.03-11.15-1.25-16.55-.62-3.44-5.19-4.33-5.06-8.19-1.38 1.38-2.62 3.16-4.68 3.56-4.45 1.13-9.05 2.25-13.67 1.62-4.85-.75-9.8-1.01-14.55-2.34l-2.46-2.62c-.48.76-.94 1.53-1.4 2.3m23.81 46.72c-1.96 5.83-.74 11.94 1.82 17.37 1.68.56 3.36 1.1 5.08 1.54l.48 1.64c-1.23 1.42-2.59 2.73-3.67 4.28-.03 4.82 2.78 9.15 2.47 14 .27 3.63-1.55 7.25-.25 10.8 1.85 6.64 4.32 13.38 2.94 20.38-.3 1.15-.9 3.45-1.2 4.59 1.22-1.12 2.45-2.23 3.69-3.33 2.39-4.85.7-10.28.72-15.4.03-5.47-2.04-10.69-1.96-16.15 3.53 6.82 2.95 14.69 3.84 22.09.3 2.78.05 5.58-.16 8.35-.61.61-1.21 1.22-1.81 1.84l1.73-.13c-2.22 1.08-3.8 2.79-3.61 5.38-4.96 3.64-6.57 10.29-12.03 13.31-2.02 1.52-2.64 4.21-3.74 6.39 2.36.85 4.75 1.61 7.21 2.1 2.42-.68 4.94-.64 7.42-.71 2.67-1.74 5.42-3.38 7.9-5.41.67-2.77 1.24-5.56 1.63-8.38-.17-.45-.5-1.35-.66-1.8 2-5.03 1.93-10.57 2.55-15.88-.25-8.54 3.18-17.07.88-25.54-1.2-4.52-3.96-8.78-3.43-13.63.39-3.93-.13-7.91.64-11.81 1.26-6.62.79-13.38.68-20.06-5.94 2.91-12.46 4.94-19.16 4.17m-25.25 8.2c.32.31.96.92 1.28 1.23.26-.27.77-.8 1.02-1.07-.8-.97-1.57-1.03-2.3-.16m48.1 66.9c-.45 4.6-1.17 9.19-1.68 13.79 1.29-1.07 2.57-2.15 3.83-3.24-.56-3.56-2.01-6.93-2.15-10.55z"/><path d="M140.65 80.75c4.29.51 9.74-1.04 12.97 2.63 1.05 1.09 1.92 2.33 2.85 3.52-1.96 4.09-.01 8.73-1.18 13-.46 3.54-3.5 5.86-5.79 8.28-1.58-3.42 2.99-4.18 3.4-7.05.48-2.14.62-4.35.71-6.54-2.02 2.81-3.6 5.96-3.57 9.51-.21-.08-.65-.24-.86-.32-.1-2.8-.66-5.56-.91-8.32 1.13.08 2.19.67 3.3.92l-.97-.93c.6-.6 1.81-1.82 2.42-2.42-.88-2.62-.63-5.36-.1-8.02-.82-.87-1.64-1.73-2.46-2.58-3.95-.15-7.9-.38-11.85-.07.16 4.05-.3 8.1-.35 12.15 1.26 1.32 2.71 2.53 3.12 4.45l-1.6.45c-.54-1.51-1.05-3.02-1.56-4.54-.16 2.13.8 4.78-.8 6.53-.42.13-1.26.37-1.68.49.31 1.58.67 3.14 1.09 4.7 1.43-2.49 1.23-6.34 4.41-7.36-1.37 3.67-2.19 7.94-5.47 10.49-3.1 2.3-5.86 5.06-7.89 8.36-.4.1-1.19.31-1.59.41 2.03-3 4.32-5.8 6.63-8.57.5-.37 1.51-1.12 2.02-1.49-3-7.77-3.73-16.87.01-24.52 1.92-1.02 3.8-2.11 5.7-3.16m-7.22 13.45c.27.07.81.2 1.08.26.13 2.46.63 4.89 1.62 7.15.41-5.7.1-11.48 2.24-16.91-3.38 2.22-1.21 7.68-4.94 9.5zM80.46 89.05c2.81-.99 6.86-1.04 7.18 2.76-2.26-1.27-4.51-2.61-7.18-2.76zM92.11 89.2c4.59-1.18 9.38-1.64 14.1-1.13l-1.04 1.72c-4.27-.8-8.57.09-12.8.66-1.15 1.01-2.31 1.99-3.55 2.87.77-1.53 1.45-3.61 3.29-4.12zM105.99 99.9c-.23-2.08 1.91-4.07 3.97-3.44 1.22.48 1.9 1.72 2.86 2.55-.96-.21-2.89-.62-3.85-.82-.99.58-1.98 1.15-2.98 1.71zM101.13 110.55c4.92-.68 4.86-7.02 8.97-8.98-.71 3.56-2.82 6.68-5.13 9.39-5.05 2.18-10.95 3.15-16.26 1.33-2.46-.76-3.28-3.3-3.71-5.57 1.98.78 3.13 2.58 4.24 4.28 3.95.36 8.06.93 11.89-.45zM78.31 109.88c2.22 0 5.23-1.91 6.79.3-2.04.87-4.3.91-6.46 1.22-.08-.38-.25-1.14-.33-1.52zM80.45 115.9c1.36-1.41 3.16-1.36 4.91-.84-2.94 5.43-.51 12.1 2.75 16.8 1.63 1.92.82 4.61.9 6.89-1.36-1.6-1.41-3.71-1.91-5.63-2.6-3.86-4.14-8.48-4.51-13.08-.02-1.15 1.38-4.66-.85-3.46-1.08 1.78-2.04 3.73-4.05 4.65 1.09-1.69 2.54-3.24 2.76-5.33zM86.93 114.84c2.33.55 4.23 1.97 5.51 3.98 3.37.96 6.23 3.15 6.57 6.88.91 1.58 1.83 3.16 2.61 4.82-3.48-1.52-4.73-5.16-5.17-8.63-1.81-.81-3.63-1.59-5.39-2.49-1.08-1.77-2.67-3.11-4.13-4.56zM104.5 114.69c1.75 1.85 3.76 3.36 6.47 2.86-.03.31-.1.94-.13 1.25-1.42-.07-2.85-.14-4.27-.19-1.48 1.89-3.79 2.75-5.96 3.55 1.49-1.53 3.3-2.66 5.09-3.8-.41-1.22-.81-2.45-1.2-3.67zM102.91 126.88c1.71-1.87 3.47-3.73 4.44-6.12.71 1.01 1.44 2.01 2.19 3 1.23-.58 2.46-1.15 3.71-1.71-.72 2.68-3.16 3.4-5.64 2.52-1.55.79-3.11 1.58-4.7 2.31zM117.09 203.05c-.99-4.09-1.71-8.31-1.08-12.52 2.08 3.81 1.39 8.37 1.08 12.52zM104.82 192.32c2.09 3.38 3.31 7.19 5.04 10.76-3.87-1.89-4.92-6.84-5.04-10.76zM84.91 217.03c.76-1.87 2.64-2.82 4.24-3.85-.63 2.19-2.24 3.85-3.7 5.53-.06 1.05-.17 3.15-.22 4.2-.58-1.89-.83-3.95-.32-5.88zM114.17 219.74c.7-1.31 1.3-2.76 2.75-3.43-.77 2.5-.35 4.99.6 7.36l-1.63.2c-.56-1.39-1.13-2.76-1.72-4.13zM117.33 228.71c2.12 2.69 2.51 6.18 3.29 9.4 1.01 4.02 1.46 8.25.79 12.37-1.55-7.2-2.69-14.53-4.08-21.77zM74.52 274.35c1.6-3.91 4.33-7.54 8.01-9.7-2.62 3.27-4.6 7.16-8.01 9.7zM113.31 282.07c1.29-5.24 2.56-10.66 5.52-15.24-.29 3.8-2.25 7.14-3.22 10.77-.5 1.61-.87 3.4-2.3 4.47z"/></g></svg>