<svg width="284pt" height="208pt" viewBox="0 0 284 208" xmlns="http://www.w3.org/2000/svg"><g fill="#FFF"><path d="M0 0h284v208H0V0m169.21 57.87c-5.84 8.43-6.79 19.37-4.22 29.13.43.28 1.28.84 1.7 1.12.12 2.31.64 4.56 1.29 6.76-1.36 3.19-2.85 6.52-2.53 10.07.08 3.9 2.85 6.89 4.62 10.14-.76 2.96-3.25 5.56-2.38 8.78.9 3.22-2.04 5.69-2.63 8.69.73.92 1.48 1.82 2.26 2.71 1.72-2.68.7-6.29 2.97-8.74-.27-2.04-.78-4.05-.85-6.11 1.76-1.53 4.04-2.24 6.2-3.02-.7 3.08-1.62 6.12-1.91 9.28-.33 2.92-2.83 5.92-1.06 8.81-1.92-.22-4-1.28-5.8-.01l2.93.59c-.73.47-1.47.94-2.21 1.41-2.39-1.91-5.21-4.65-8.55-3.71-.99.94-1.81 2.04-2.7 3.08-3.12.06-6.21.85-9.34.53-1.75-.51-3.36-1.38-5.1-1.92-2.94.2-5.79 1.39-8.78 1.05-4.35-.43-8.83-.68-13.03.79-3.91 1.4-8.18-.21-12.11 1.14-2.67 1.18-4.97 3.13-7.83 3.91-3.59 1.38-7.46.42-11.18.55-6.37-.27-12.64 1.01-18.9 1.99-6.46.64-11.21-4.34-16.53-7.08-.59-3.73-1.63-7.36-2.38-11.05-2.28-1.07-4.76-1.61-7.29-1.39-1.46-1.14-2.93-2.25-4.41-3.36-1.45.35-2.92.61-4.3 1.19-1.49 1.49-2.38 3.45-3.59 5.15-3.54-.33-7.09-.65-10.64-.77l-.48 2.08c3.49-.2 6.99.16 10.48.17-.13 2.39-.3 4.78-.39 7.18 1.31 3.2 2.14 6.67 4.65 9.22.35-.83.69-1.67 1.03-2.51-2.33-3.74-5.37-8.72-2.39-12.95 1.57-2.01 1.76-4.55 1.92-7 .83-.16 2.51-.47 3.34-.63 3.45 3.87 6.83 7.84 9.48 12.31 2.57 4.25 7.28 6.22 11.36 8.64 3.58 3.15 8.66 2.47 13.06 2.41 8.66-.77 17.37-.93 26.05-.51 5.21-4.22 11.99-7.13 18.81-5.82 5.83-2.6 12.49-2.1 18.67-1.34 3.73.94 4.27 5.03 4.63 8.24-6.23.91-12.71 1.59-18.2 4.93-4.13.17-8.49-.11-12.33 1.7-3.44 1.26-6.83 3.25-10.61 3.02-5.67-.28-11.34-.04-17.01.08-6.5-.39-13.49-.67-19.21 2.99-4.39 2.63-9.19 8-14.73 5.24-3.63-.99-4.52-4.98-5.52-8.07-.46-4.87-4.31-8.37-6.98-12.16-.26.96-.53 2.03.1 2.92 1.41 2.93 2.78 5.91 3.54 9.1 3.01 3.1 3.8 7.8 7.29 10.49.85.78 4.06-.2 3.33 1.55-4.71 1.87-10.54 3.41-14.81-.27-.25-1.5-.45-3.03-.61-4.55-.18.13-.53.39-.7.52.61-4.52 1.28-9.04 1.55-13.6.28-2.05-1.13-3.61-2.34-5.04 1.02 5.8-1.23 11.37-1.49 17.1-.32 3.32 1.74 6.31 4.08 8.45 3.79 2.1 8.34 2.28 12.52 1.43 5.94-1.23 12.02-2.05 18.1-1.75 2.84.68 5.01 2.86 7.77 3.75 5.82 1.98 11.71 4.84 18.02 3.61 5.38.14 9.9-3.33 15.18-3.69 3.78-.43 7.64.47 11.37-.5 2.8-.7 5.62-1.98 8.56-1.25 3.96.78 7.86 1.97 11.96 1.75 3.28-.79 4.11 3.48 7.04 3.84 4.42.85 8.66-.87 12.95-1.59 3.65.52 7.08 2.03 10.76 2.43.95 1.84 1.09.78.9-.67 4.96-1.28 10.39-1.4 14.38-5.04 1.42-2.31 3.23-4.39 4.49-6.8.99-3.14 1.1-6.73 3.61-9.15l.12-2.69c3.88-3.19 6.76-7.33 10.04-11.09 1.87 1.58 5.12 2.87 4.58 5.87.04 1.41.07 2.83.09 4.25 5.24 1.24 12.97.84 14.75-5.32 4.33.81 7.2 4.46 10.78 6.71 5.33 3.48 10.19 7.69 15.81 10.72-.67-2.91-3.6-4.09-5.73-5.75-5.87-3.93-11.29-8.47-17.18-12.36 1.92-.66 3.96-1.1 5.72-2.16 1.27-1.33 2.32-2.86 3.52-4.26.04-4.56 1.94-8.9 1.93-13.5 2.15-3.73 3.12-7.99 5.08-11.82 2.19-4.52.99-9.59 2.1-14.33.4-2.12.35-4.28.42-6.43-4.73-2.22-9.46-4.5-14.37-6.26-.13.21-.39.63-.52.83 2.67 4.5 9.05 3.56 12.79 6.84-.4 5.56-.1 11.37-2.29 16.62-1.32 3.16-1.88 6.57-3.13 9.76-2.33 5.43-2.82 11.4-3.89 17.16-.43-.35-1.29-1.06-1.72-1.41l-.2 3.75c-2.75 1.95-6.2 2.36-9.3 3.46-2.16 1.55-3.34 4.05-4.82 6.19-2.61.06-5.21.17-7.81.1-.84-3.55.1-7.01 1.18-10.38 2.02-.76 3.75-1.98 4.07-4.29 3.12-2.22 7.07-2.47 10.73-1.78 1.9.57 3.69 2.13 5.77 1.21-2.11-1.33-4.34-2.45-6.54-3.62.96-4.14 4.85-7.29 4.3-11.79.37-4.39-1.55-8.43-2.88-12.5 1.1-1.41 2.17-2.85 3.21-4.31-2.74-.14-5.41-.72-8.06-1.37 1.45 1.04 2.97 1.97 4.47 2.95-3.99 2.23-9.34 3.15-13.09-.07 1.77-1.73 3.57-3.48 4.74-5.69-3.26-.55-5.15 2.24-7.09 4.31-3.44.57-6.98.53-10.26-.77-2.14-1.47-3.99-3.3-6.06-4.87-.52-.96-1.05-1.9-1.59-2.84-.04 2.26-.01 4.84 1.82 6.48 4.16 3.19 9.39 4.19 14.25 5.84 4.26-3.17 7.62 3.37 12.05 2.33.94-.36 2.82-1.07 3.76-1.43.43 3.02 1.18 5.97 2.12 8.87 1.2 5.14-1.79 9.68-3.51 14.29-4.44-.13-8.81 1.32-12.06 4.4-1.19-.89-2.37-1.77-3.59-2.61 2.11-7.41 3.31-15.1 6.45-22.15.93-1.24-.22-3.76-1.91-2.94-1.88 3.42-2.65 7.44-4.17 11.08-1.35 11.46-6.55 22.22-14.01 30.95-.86 1.33-2.52 1.35-3.88 1.76-2.23-5.63-7.52-8.77-12.65-11.38-.77.47-1.53.95-2.29 1.43.59.43 1.77 1.3 2.35 1.73.05 5.01-.36 10.05.26 15.05 1.01-4.52 1.09-9.22 2.61-13.62 4.47 2.22 6.89 6.65 9.72 10.52-1.54 5.36-3.64 10.93-8.03 14.63-2.71 2.71-6.66 3.28-9.86 5.21-4.5-.49-8.62-2.94-13.2-2.71-3.03 0-5.65 1.75-8.46 2.64-1.54-5.12 4.55-9.09 2.68-14.21-1.49-4.84-3.61-9.49-5.86-14.02 2.94.51 5.92.68 8.89.25-.3-.78-.6-1.55-.89-2.32.23-.98 3.2-2.73.58-2.97-2.03-1.35-2.87 2.33-4.25 3.31-2.95.3-5.93.56-8.8-.42-.01-1.67-.05-3.34-.08-5-1.31-1.49-2.63-2.96-4.02-4.36 2.71.74 5.41 1.57 8.21 1.95 3.31.43 6.64-.82 9.9.18.51-1.48 1.31-2.82 2.32-4.01 1.62 1.41 3.39 2.72 5.57 3.04 3.86.64 6.96 3.21 10.64 4.39l-2.23-3.22c-1.46-.48-2.93-.93-4.41-1.32.11-.69.33-2.07.45-2.76 1.77.15 3.52.44 5.28.7-.4-.7-1.21-2.1-1.61-2.8.83-2.36 1.85-4.64 2.94-6.89 3.34 1.47 3.24 6.03 6.59 7.31-.32-4.17-3.36-7.64-7.44-8.49.09-2.03.24-4.07.45-6.1 1.48 1.18 2.96 2.38 4.32 3.71.72.03 2.15.11 2.87.14-1.49-2.42-3.93-3.92-6.36-5.26-.4-1.01-.79-2.02-1.17-3.03-1.39.6-2.77 1.23-4.12 1.9 1.64-3.76-2.58-5.62-3.26-8.93-.56-3.74-.24-7.56.71-11.21.77-2.81-.59-5.59-1.06-8.33.88 0 2.64.01 3.52.02 1.8 1.77 1.65 4.75 3.33 6.71.09.85.27 2.53.37 3.37 1.74-2.81.61-6.34-1.17-8.84 3.18-3.31 9.37-4.65 9.42-10.11-3.68 4.87-10.11 8.46-16.21 6.54-3.78-5.22-1.71-12.08-1.41-18.01 1.21-3.93 3.14-8.02 6.83-10.19a15.32 15.32 0 0112.27-.38c.44-1.07.75-2.18 1.09-3.28l-.45 1.36c-5.51-3.24-11.82-.94-16.77 2.17m17.01-.11c2.46 2.06 4.92 4.71 5.15 8.08-.49 3.54-.31 7.23-1.61 10.62.77 2.1 1.48 4.24 2.65 6.17 2.27.84 4.79.8 7.03 1.77 2.28 1.22 3.6 3.9 6.16 4.63.1-2.02-1.01-3.75-1.75-5.54-3.02-.82-6.04-1.66-9.12-2.24-.87-1.55-1.76-3.09-2.65-4.63 1.34-3.41 1.82-7.07 2.03-10.71-.47-3.7-2.96-6.81-5.55-9.34-.78.39-1.56.78-2.34 1.19m-2.07 26.58c-1.84 3.07-3.67 6.19-4.83 9.58 4.28-.81 5.27-5.88 4.83-9.58m22.42 2.26c1.79.29 3.59.41 5.38.72 3.01.96 5.73 3.13 9.05 2.82 3.35-.27 7.04.99 10.05-.99-3.86-1.35-7.92-1.29-11.92-1.59-4.12-1.21-8.36-3.29-12.56-.96m-6.04 9.59c3.01-1.9 5.72-4.34 7.85-7.19-3.87.58-6.6 3.64-7.85 7.19m-10.32-1.45l.08-1.07c-3.06.76-6.33.29-9.3 1.35-1.46 1.26-2.65 2.79-3.92 4.23.62.14 1.86.43 2.48.57 1.33-1.05 2.65-2.12 3.94-3.23 5.73-.47 11.19-2.99 16.98-2.39-1.82-.21-2.89-1.09-3.21-2.65-2.38 1.01-4.73 2.06-7.05 3.19m33.3-1.57c.75 1.58 1.36 3.24 2.36 4.68 3.46.45 6.99.46 10.43-.22 1.09.94 2.2 1.86 3.35 2.74-1.67 6.09-1.35 12.86-5.35 18.12 2.54-1.6 3.79-4.4 5.27-6.89 1.77-3.18 1.02-6.94 1.13-10.4-1.38-1.89-2.49-3.99-4.06-5.74-3.03.66-6.08 1.25-9.2 1.02a11.619 11.619 0 00-3.93-3.31m-46.95 22.32c1.32.85 2.59 1.78 3.78 2.81 3.66 1.51 8.2 2.53 11.51-.34-.61-.49-1.22-.98-1.82-1.46-2.79 1.8-6.22.72-9.17-.01-1.51-1.74-2.89-3.58-4.49-5.24.06-1.94.09-3.88.02-5.81-1.72 3.25-1.64 6.86.17 10.05m15.47.19c.39.64.76 1.28 1.13 1.92-.96 1.23-1.9 2.48-2.78 3.77 3.8-1.46 6.69-4.5 8.75-7.94.45.54.9 1.08 1.36 1.62-2.07 4.18 1.77 7.92.63 12.07-.34 2.49-.4 5-.47 7.51l1.25-.05c.18-3.71.71-7.44 2.59-10.69-2.83-3.35-2.25-7.68-1.94-11.71l.27-.21-2.43.52c-3.7-3.46-4.29 4.81-8.36 3.19m-7.72 11.72c2.88 3.56 8.03 2.33 10.72-.8 2.18-.04 4.43-.3 6.21-1.73-2.41-.36-4.83-.51-7.26-.68-2.2 3.36-6.06 3.48-9.67 3.21m-171 5.75c.06 10.29.52 20.57.46 30.86.71 9.12.58 18.29.94 27.43h1.57c-.04-9.19.11-18.38-.73-27.54 1.05-1.38 1.68-3.43.04-4.62-.48-7.43-.24-14.88-.42-22.31.07-1.83-.22-3.76.45-5.5.71-2.07 3.41-.79 4.92-1.29-.52-.66-1.03-1.32-1.55-1.98-2.92-.13-5.63 1.94-5.68 4.95m171.71-.12c3.59 1.21 7.19.21 10.04-2.12 1.55 1.06 3.08 2.68 5.13 1.74a189.56 189.56 0 01-4.23-4.28c-3.2 2.59-7.2 3.28-10.94 4.66m-3.4 7.53c3.37-2.27 7.98-3.33 10.19-6.93-4.21.83-8.06 3.11-10.19 6.93m-67.12 4.47c-1.12-.01-2.24-.03-3.35-.04l2.72.07-3.09 3.41c1.18-.91 2.27-1.95 3.34-2.99-.76 3.34 1.72 6.37 5.18 5.47-1.4-1.32-3.18-2.32-4.07-4.1 1.73-2.27 4.21-3.75 6.44-5.46l.16-1.9c-2.78 1.32-5.97 2.54-7.33 5.54m48.77-4c2.75 4.27 6.06 8.43 10.61 10.87-.15-.57-.46-1.69-.62-2.25-2.86-3.34-6.04-6.57-9.99-8.62m-60.98 7.61c2.47.58 5.16 1.01 7.45-.37-2.43-1.29-5.07-.64-7.45.37m-51.47 1.61c-.47 1.21-.94 2.43-1.42 3.65 1.23 1.8 2.54 3.55 3.84 5.31-.78-3-1.67-5.96-2.42-8.96m166.88 4.24c6.62 6.54 14.42 11.73 21.29 17.99.56-.04 1.67-.11 2.23-.15-4.71-4.87-10.4-8.64-15.49-13.08-2.53-1.79-4.62-4.79-8.03-4.76M62.87 171.24c-.06.94-.16 2.81-.21 3.74 1.39 5.4 3.16 10.69 4.55 16.08.64 2.16.96 4.73 3.15 5.96.63-4.55-1.68-8.76-2.68-13.09-1.54-4.25-1.61-9.23-4.81-12.69z"/><path d="M45.06 126.74c1.45.34 2.91.68 4.37 1.01.79 2.86 1.55 5.72 2.32 8.58-1.44-3.72-4.22-6.55-6.69-9.59zM204.71 142.25c1.1-1.82 2.13-3.69 3.37-5.43 1.48.9 2.88 1.95 4.28 2.99-.75.71-1.5 1.41-2.24 2.12-.24 1.35-.48 2.71-.74 4.06-1.55-1.26-3.09-2.53-4.67-3.74zM124.83 154.19c5.87-3.31 12.4-5.82 19.27-5.14 2.91 3.92 6.48 7.9 7 12.97.8 3.04.03 6.11-.58 9.11-2.87.5-5.66 1.46-8.58 1.66-4.75-.05-9.29-1.7-14.01-2.01-5.01-.57-9.85 1.4-14.85 1.19-2.56.07-5.22-.3-7.68.61-7.23 2.94-15.34 3.13-22.94 1.73-6.8-1.36-12.48-6.21-19.56-6.52-3.61-1-6.43 2.92-9.95 2.1-.2-.35-.59-1.06-.78-1.41 6.63-1.23 11.07-7.18 17.72-8.31 3.03-.52 5.96-2.01 9.09-1.71 5.34.38 10.68-.51 16.02.07 3.63-.03 7.34 1.98 10.86.34 3.12-1.3 6.42-2.17 9.47-3.64 3.28-1.6 7.26-1.33 10.42.42-1.94 1.07-3.45 2.69-5.12 4.11-3.13.42-6.32-.06-9.46.38 3.45 1.53 7.26 1.49 10.95 1.66 1.41-1.5 2.74-3.08 4.09-4.63 2.09-1.24 3.66-3.11 5.27-4.88-1.24.54-3.73 1.63-4.97 2.17l1.08.87c-.92-.38-1.85-.76-2.76-1.14m-47.43 9.23c6.98 2.17 14.39 1.14 21.54 2.07 2.08.25 4.19.27 6.28.17-4.04-2.14-8.76-2.16-13.21-2.28-4.87-.01-9.74-.16-14.61.04m39.32.57c4.45.91 9.04 1 13.57 1.2-3.97-2.63-9.13-1.89-13.57-1.2m13.7 2.97c2.3.86 4.69 1.45 7.11 1.87l.12-.96c-2.41-.28-4.8-1.83-7.23-.91m-25.37 1.06c2.33 2.61 6.09 2.21 9.26 2.61-2.64-2.03-6.1-2.21-9.26-2.61zM144.33 174.65c2.14-.96 4.22-2.06 6.35-3.06-.65 2.19-2.34 3.65-3.95 5.13l-2.4-2.07z"/></g><g fill="#333"><path d="M169.21 57.87c4.95-3.11 11.26-5.41 16.77-2.17l.45-1.36c-.34 1.1-.65 2.21-1.09 3.28a15.32 15.32 0 00-12.27.38c-3.69 2.17-5.62 6.26-6.83 10.19-.3 5.93-2.37 12.79 1.41 18.01 6.1 1.92 12.53-1.67 16.21-6.54-.05 5.46-6.24 6.8-9.42 10.11 1.78 2.5 2.91 6.03 1.17 8.84-.1-.84-.28-2.52-.37-3.37-1.68-1.96-1.53-4.94-3.33-6.71-.88-.01-2.64-.02-3.52-.02.47 2.74 1.83 5.52 1.06 8.33-.95 3.65-1.27 7.47-.71 11.21.68 3.31 4.9 5.17 3.26 8.93 1.35-.67 2.73-1.3 4.12-1.9.38 1.01.77 2.02 1.17 3.03 2.43 1.34 4.87 2.84 6.36 5.26-.72-.03-2.15-.11-2.87-.14-1.36-1.33-2.84-2.53-4.32-3.71-.21 2.03-.36 4.07-.45 6.1 4.08.85 7.12 4.32 7.44 8.49-3.35-1.28-3.25-5.84-6.59-7.31-1.09 2.25-2.11 4.53-2.94 6.89.4.7 1.21 2.1 1.61 2.8-1.76-.26-3.51-.55-5.28-.7-.12.69-.34 2.07-.45 2.76 1.48.39 2.95.84 4.41 1.32l2.23 3.22c-3.68-1.18-6.78-3.75-10.64-4.39-2.18-.32-3.95-1.63-5.57-3.04-1.01 1.19-1.81 2.53-2.32 4.01-3.26-1-6.59.25-9.9-.18-2.8-.38-5.5-1.21-8.21-1.95 1.39 1.4 2.71 2.87 4.02 4.36.03 1.66.07 3.33.08 5 2.87.98 5.85.72 8.8.42 1.38-.98 2.22-4.66 4.25-3.31 2.62.24-.35 1.99-.58 2.97.29.77.59 1.54.89 2.32-2.97.43-5.95.26-8.89-.25 2.25 4.53 4.37 9.18 5.86 14.02 1.87 5.12-4.22 9.09-2.68 14.21 2.81-.89 5.43-2.64 8.46-2.64 4.58-.23 8.7 2.22 13.2 2.71 3.2-1.93 7.15-2.5 9.86-5.21 4.39-3.7 6.49-9.27 8.03-14.63-2.83-3.87-5.25-8.3-9.72-10.52-1.52 4.4-1.6 9.1-2.61 13.62-.62-5-.21-10.04-.26-15.05-.58-.43-1.76-1.3-2.35-1.73.76-.48 1.52-.96 2.29-1.43 5.13 2.61 10.42 5.75 12.65 11.38 1.36-.41 3.02-.43 3.88-1.76 7.46-8.73 12.66-19.49 14.01-30.95 1.52-3.64 2.29-7.66 4.17-11.08 1.69-.82 2.84 1.7 1.91 2.94-3.14 7.05-4.34 14.74-6.45 22.15 1.22.84 2.4 1.72 3.59 2.61 3.25-3.08 7.62-4.53 12.06-4.4 1.72-4.61 4.71-9.15 3.51-14.29-.94-2.9-1.69-5.85-2.12-8.87-.94.36-2.82 1.07-3.76 1.43-4.43 1.04-7.79-5.5-12.05-2.33-4.86-1.65-10.09-2.65-14.25-5.84-1.83-1.64-1.86-4.22-1.82-6.48.54.94 1.07 1.88 1.59 2.84 2.07 1.57 3.92 3.4 6.06 4.87 3.28 1.3 6.82 1.34 10.26.77 1.94-2.07 3.83-4.86 7.09-4.31-1.17 2.21-2.97 3.96-4.74 5.69 3.75 3.22 9.1 2.3 13.09.07-1.5-.98-3.02-1.91-4.47-2.95 2.65.65 5.32 1.23 8.06 1.37-1.04 1.46-2.11 2.9-3.21 4.31 1.33 4.07 3.25 8.11 2.88 12.5.55 4.5-3.34 7.65-4.3 11.79 2.2 1.17 4.43 2.29 6.54 3.62-2.08.92-3.87-.64-5.77-1.21-3.66-.69-7.61-.44-10.73 1.78-.32 2.31-2.05 3.53-4.07 4.29-1.08 3.37-2.02 6.83-1.18 10.38 2.6.07 5.2-.04 7.81-.1 1.48-2.14 2.66-4.64 4.82-6.19 3.1-1.1 6.55-1.51 9.3-3.46l.2-3.75c.43.35 1.29 1.06 1.72 1.41 1.07-5.76 1.56-11.73 3.89-17.16 1.25-3.19 1.81-6.6 3.13-9.76 2.19-5.25 1.89-11.06 2.29-16.62-3.74-3.28-10.12-2.34-12.79-6.84.13-.2.39-.62.52-.83 4.91 1.76 9.64 4.04 14.37 6.26-.07 2.15-.02 4.31-.42 6.43-1.11 4.74.09 9.81-2.1 14.33-1.96 3.83-2.93 8.09-5.08 11.82.01 4.6-1.89 8.94-1.93 13.5-1.2 1.4-2.25 2.93-3.52 4.26-1.76 1.06-3.8 1.5-5.72 2.16 5.89 3.89 11.31 8.43 17.18 12.36 2.13 1.66 5.06 2.84 5.73 5.75-5.62-3.03-10.48-7.24-15.81-10.72-3.58-2.25-6.45-5.9-10.78-6.71-1.78 6.16-9.51 6.56-14.75 5.32-.02-1.42-.05-2.84-.09-4.25.54-3-2.71-4.29-4.58-5.87-3.28 3.76-6.16 7.9-10.04 11.09l-.12 2.69c-2.51 2.42-2.62 6.01-3.61 9.15-1.26 2.41-3.07 4.49-4.49 6.8-3.99 3.64-9.42 3.76-14.38 5.04.19 1.45.05 2.51-.9.67-3.68-.4-7.11-1.91-10.76-2.43-4.29.72-8.53 2.44-12.95 1.59-2.93-.36-3.76-4.63-7.04-3.84-4.1.22-8-.97-11.96-1.75-2.94-.73-5.76.55-8.56 1.25-3.73.97-7.59.07-11.37.5-5.28.36-9.8 3.83-15.18 3.69-6.31 1.23-12.2-1.63-18.02-3.61-2.76-.89-4.93-3.07-7.77-3.75-6.08-.3-12.16.52-18.1 1.75-4.18.85-8.73.67-12.52-1.43-2.34-2.14-4.4-5.13-4.08-8.45.26-5.73 2.51-11.3 1.49-17.1 1.21 1.43 2.62 2.99 2.34 5.04-.27 4.56-.94 9.08-1.55 13.6.17-.13.52-.39.7-.52.16 1.52.36 3.05.61 4.55 4.27 3.68 10.1 2.14 14.81.27.73-1.75-2.48-.77-3.33-1.55-3.49-2.69-4.28-7.39-7.29-10.49-.76-3.19-2.13-6.17-3.54-9.1-.63-.89-.36-1.96-.1-2.92 2.67 3.79 6.52 7.29 6.98 12.16 1 3.09 1.89 7.08 5.52 8.07 5.54 2.76 10.34-2.61 14.73-5.24 5.72-3.66 12.71-3.38 19.21-2.99 5.67-.12 11.34-.36 17.01-.08 3.78.23 7.17-1.76 10.61-3.02 3.84-1.81 8.2-1.53 12.33-1.7 5.49-3.34 11.97-4.02 18.2-4.93-.36-3.21-.9-7.3-4.63-8.24-6.18-.76-12.84-1.26-18.67 1.34-6.82-1.31-13.6 1.6-18.81 5.82-8.68-.42-17.39-.26-26.05.51-4.4.06-9.48.74-13.06-2.41-4.08-2.42-8.79-4.39-11.36-8.64-2.65-4.47-6.03-8.44-9.48-12.31-.83.16-2.51.47-3.34.63-.16 2.45-.35 4.99-1.92 7-2.98 4.23.06 9.21 2.39 12.95-.34.84-.68 1.68-1.03 2.51-2.51-2.55-3.34-6.02-4.65-9.22.09-2.4.26-4.79.39-7.18-3.49-.01-6.99-.37-10.48-.17l.48-2.08c3.55.12 7.1.44 10.64.77 1.21-1.7 2.1-3.66 3.59-5.15 1.38-.58 2.85-.84 4.3-1.19 1.48 1.11 2.95 2.22 4.41 3.36 2.53-.22 5.01.32 7.29 1.39.75 3.69 1.79 7.32 2.38 11.05 5.32 2.74 10.07 7.72 16.53 7.08 6.26-.98 12.53-2.26 18.9-1.99 3.72-.13 7.59.83 11.18-.55 2.86-.78 5.16-2.73 7.83-3.91 3.93-1.35 8.2.26 12.11-1.14 4.2-1.47 8.68-1.22 13.03-.79 2.99.34 5.84-.85 8.78-1.05 1.74.54 3.35 1.41 5.1 1.92 3.13.32 6.22-.47 9.34-.53.89-1.04 1.71-2.14 2.7-3.08 3.34-.94 6.16 1.8 8.55 3.71.74-.47 1.48-.94 2.21-1.41l-2.93-.59c1.8-1.27 3.88-.21 5.8.01-1.77-2.89.73-5.89 1.06-8.81.29-3.16 1.21-6.2 1.91-9.28-2.16.78-4.44 1.49-6.2 3.02.07 2.06.58 4.07.85 6.11-2.27 2.45-1.25 6.06-2.97 8.74-.78-.89-1.53-1.79-2.26-2.71.59-3 3.53-5.47 2.63-8.69-.87-3.22 1.62-5.82 2.38-8.78-1.77-3.25-4.54-6.24-4.62-10.14-.32-3.55 1.17-6.88 2.53-10.07-.65-2.2-1.17-4.45-1.29-6.76-.42-.28-1.27-.84-1.7-1.12-2.57-9.76-1.62-20.7 4.22-29.13M45.06 126.74c2.47 3.04 5.25 5.87 6.69 9.59-.77-2.86-1.53-5.72-2.32-8.58-1.46-.33-2.92-.67-4.37-1.01m159.65 15.51c1.58 1.21 3.12 2.48 4.67 3.74.26-1.35.5-2.71.74-4.06.74-.71 1.49-1.41 2.24-2.12-1.4-1.04-2.8-2.09-4.28-2.99-1.24 1.74-2.27 3.61-3.37 5.43m-79.88 11.94c.91.38 1.84.76 2.76 1.14l-1.08-.87c1.24-.54 3.73-1.63 4.97-2.17-1.61 1.77-3.18 3.64-5.27 4.88-1.35 1.55-2.68 3.13-4.09 4.63-3.69-.17-7.5-.13-10.95-1.66 3.14-.44 6.33.04 9.46-.38 1.67-1.42 3.18-3.04 5.12-4.11-3.16-1.75-7.14-2.02-10.42-.42-3.05 1.47-6.35 2.34-9.47 3.64-3.52 1.64-7.23-.37-10.86-.34-5.34-.58-10.68.31-16.02-.07-3.13-.3-6.06 1.19-9.09 1.71-6.65 1.13-11.09 7.08-17.72 8.31.19.35.58 1.06.78 1.41 3.52.82 6.34-3.1 9.95-2.1 7.08.31 12.76 5.16 19.56 6.52 7.6 1.4 15.71 1.21 22.94-1.73 2.46-.91 5.12-.54 7.68-.61 5 .21 9.84-1.76 14.85-1.19 4.72.31 9.26 1.96 14.01 2.01 2.92-.2 5.71-1.16 8.58-1.66.61-3 1.38-6.07.58-9.11-.52-5.07-4.09-9.05-7-12.97-6.87-.68-13.4 1.83-19.27 5.14m19.5 20.46l2.4 2.07c1.61-1.48 3.3-2.94 3.95-5.13-2.13 1-4.21 2.1-6.35 3.06z"/><path d="M186.22 57.76c.78-.41 1.56-.8 2.34-1.19 2.59 2.53 5.08 5.64 5.55 9.34-.21 3.64-.69 7.3-2.03 10.71.89 1.54 1.78 3.08 2.65 4.63 3.08.58 6.1 1.42 9.12 2.24.74 1.79 1.85 3.52 1.75 5.54-2.56-.73-3.88-3.41-6.16-4.63-2.24-.97-4.76-.93-7.03-1.77-1.17-1.93-1.88-4.07-2.65-6.17 1.3-3.39 1.12-7.08 1.61-10.62-.23-3.37-2.69-6.02-5.15-8.08zM184.15 84.34c.44 3.7-.55 8.77-4.83 9.58 1.16-3.39 2.99-6.51 4.83-9.58zM206.57 86.6c4.2-2.33 8.44-.25 12.56.96 4 .3 8.06.24 11.92 1.59-3.01 1.98-6.7.72-10.05.99-3.32.31-6.04-1.86-9.05-2.82-1.79-.31-3.59-.43-5.38-.72zM200.53 96.19c1.25-3.55 3.98-6.61 7.85-7.19-2.13 2.85-4.84 5.29-7.85 7.19zM190.21 94.74c2.32-1.13 4.67-2.18 7.05-3.19.32 1.56 1.39 2.44 3.21 2.65-5.79-.6-11.25 1.92-16.98 2.39-1.29 1.11-2.61 2.18-3.94 3.23-.62-.14-1.86-.43-2.48-.57 1.27-1.44 2.46-2.97 3.92-4.23 2.97-1.06 6.24-.59 9.3-1.35l-.08 1.07zM223.51 93.17c1.55.8 2.87 1.92 3.93 3.31 3.12.23 6.17-.36 9.2-1.02 1.57 1.75 2.68 3.85 4.06 5.74-.11 3.46.64 7.22-1.13 10.4-1.48 2.49-2.73 5.29-5.27 6.89 4-5.26 3.68-12.03 5.35-18.12-1.15-.88-2.26-1.8-3.35-2.74-3.44.68-6.97.67-10.43.22-1-1.44-1.61-3.1-2.36-4.68zM176.56 115.49c-1.81-3.19-1.89-6.8-.17-10.05.07 1.93.04 3.87-.02 5.81 1.6 1.66 2.98 3.5 4.49 5.24 2.95.73 6.38 1.81 9.17.01.6.48 1.21.97 1.82 1.46-3.31 2.87-7.85 1.85-11.51.34a33.35 33.35 0 00-3.78-2.81z"/><path d="M192.03 115.68c4.07 1.62 4.66-6.65 8.36-3.19l2.43-.52-.27.21c-.31 4.03-.89 8.36 1.94 11.71-1.88 3.25-2.41 6.98-2.59 10.69l-1.25.05c.07-2.51.13-5.02.47-7.51 1.14-4.15-2.7-7.89-.63-12.07-.46-.54-.91-1.08-1.36-1.62-2.06 3.44-4.95 6.48-8.75 7.94.88-1.29 1.82-2.54 2.78-3.77-.37-.64-.74-1.28-1.13-1.92z"/><path d="M184.31 127.4c3.61.27 7.47.15 9.67-3.21 2.43.17 4.85.32 7.26.68-1.78 1.43-4.03 1.69-6.21 1.73-2.69 3.13-7.84 4.36-10.72.8zM13.31 133.15c.05-3.01 2.76-5.08 5.68-4.95.52.66 1.03 1.32 1.55 1.98-1.51.5-4.21-.78-4.92 1.29-.67 1.74-.38 3.67-.45 5.5.18 7.43-.06 14.88.42 22.31 1.64 1.19 1.01 3.24-.04 4.62.84 9.16.69 18.35.73 27.54h-1.57c-.36-9.14-.23-18.31-.94-27.43.06-10.29-.4-20.57-.46-30.86zM185.02 133.03c3.74-1.38 7.74-2.07 10.94-4.66 1.38 1.45 2.8 2.87 4.23 4.28-2.05.94-3.58-.68-5.13-1.74-2.85 2.33-6.45 3.33-10.04 2.12z"/><path d="M181.62 140.56c2.13-3.82 5.98-6.1 10.19-6.93-2.21 3.6-6.82 4.66-10.19 6.93zM114.5 145.03c1.36-3 4.55-4.22 7.33-5.54l-.16 1.9c-2.23 1.71-4.71 3.19-6.44 5.46.89 1.78 2.67 2.78 4.07 4.1-3.46.9-5.94-2.13-5.18-5.47-1.07 1.04-2.16 2.08-3.34 2.99l3.09-3.41-2.72-.07c1.11.01 2.23.03 3.35.04zM163.27 141.03c3.95 2.05 7.13 5.28 9.99 8.62.16.56.47 1.68.62 2.25-4.55-2.44-7.86-6.6-10.61-10.87zM102.29 148.64c2.38-1.01 5.02-1.66 7.45-.37-2.29 1.38-4.98.95-7.45.37zM50.82 150.25c.75 3 1.64 5.96 2.42 8.96-1.3-1.76-2.61-3.51-3.84-5.31.48-1.22.95-2.44 1.42-3.65zM217.7 154.49c3.41-.03 5.5 2.97 8.03 4.76 5.09 4.44 10.78 8.21 15.49 13.08-.56.04-1.67.11-2.23.15-6.87-6.26-14.67-11.45-21.29-17.99zM77.4 163.42c4.87-.2 9.74-.05 14.61-.04 4.45.12 9.17.14 13.21 2.28-2.09.1-4.2.08-6.28-.17-7.15-.93-14.56.1-21.54-2.07zM116.72 163.99c4.44-.69 9.6-1.43 13.57 1.2-4.53-.2-9.12-.29-13.57-1.2zM130.42 166.96c2.43-.92 4.82.63 7.23.91l-.12.96c-2.42-.42-4.81-1.01-7.11-1.87zM105.05 168.02c3.16.4 6.62.58 9.26 2.61-3.17-.4-6.93 0-9.26-2.61zM62.87 171.24c3.2 3.46 3.27 8.44 4.81 12.69 1 4.33 3.31 8.54 2.68 13.09-2.19-1.23-2.51-3.8-3.15-5.96-1.39-5.39-3.16-10.68-4.55-16.08.05-.93.15-2.8.21-3.74z"/></g></svg>