<svg width="368" height="300" viewBox="0 0 276 225" xmlns="http://www.w3.org/2000/svg"><g fill="#FFF"><path d="M0 0h276v225H0V0m63.64 62.37c.25.05.75.14 1.01.18.77-1.06 1.77-2.32 3.28-1.66 9.62 1.09 18.32 6.42 25.07 13.16-2.85.64-5.86 1.1-8.42 2.57-1.61 1.58-2.96 3.41-4.36 5.17-3.44-1.18-7.06-1.53-10.67-1.43-.49-.67-1.48-1.99-1.97-2.66 2.18-2.09 5.15.1 7.65.27-3.09-1.03-6.14-2.17-9.02-3.69-.1.65-.29 1.95-.38 2.6-.91-.42-2.73-1.24-3.64-1.66 1.18-4.28 1.55-8.8.19-13.09-2.18 3.56-1.41 7.79-1.51 11.74-.52-.02-1.57-.07-2.1-.09-2.74-3.38-7.35-4.05-11.37-4.87-4.07-.24-8.37-1.25-12.3.29-2.08 2-4.19 4.68-3.88 7.76.41 5.02-.68 10-.38 15.03-.68 8.67 1.51 17.23 1.01 25.91-2.82 1.3-5.83 2.04-8.92 2.34-2.76.39-6.41 2.48-5.55 5.78-.01 1.97.83 3.96 2.71 4.8 5.22 2.8 10.34 5.97 16.06 7.65 3.48.92 6.99-.18 10.32-1.17 2.02-6.5-2.31-12.67-1.86-19.17.33-4.71.49-9.43 1.18-14.1 4.62 4.28 9.55 8.24 15.53 10.48.27 7.5.52 15.01.35 22.52-5.81 3.14-12.02 5.64-17.61 9.15-1.02 2.59.04 5.75.33 8.5 2.49 1.66 5 3.28 7.54 4.85 13.48-6.36 27.03-12.58 40.45-19.05 1.79-.77 3.51-1.81 5.46-2.1 3.38 1.34 6.16 3.78 9.31 5.57 4.63 3.1 9.93 5.07 14.46 8.35 3.16 2.25 6.94 3.68 9.56 6.64.75 4.28.47 8.68.64 13.01-.09 6.36.79 12.68.52 19.03-5.62 2.94-11.46 5.46-16.98 8.56-2.28 1.11-1.12 3.78-1.09 5.71.45 2.2-.07 5.78 4.15 4.55l-3.11 1.57c.59-.18 1.78-.55 2.37-.74 1.95 1.21 4.05 4.05 6.51 2.3 15.39-7.32 30.9-14.4 46.22-21.87-.02-3.52-.24-7.05-1.05-10.49-2.5-1.41-4.78-3.31-7.48-4.32-2.97.43-5.41 2.4-8 3.78-2.61.8-5.1 1.91-7.58 3.04.35-5.93.09-11.88.26-17.82 9.26-1.89 17.74-6.13 25.91-10.73 1.94-.97 2.36-3.1 2.57-5.06 1.23-.43 2.47-.85 3.72-1.25-.26-.11-.79-.34-1.05-.45 2.22-2.3 3.84-5.09 4.95-8.08 8.65 12.19 17.77 24.03 26.52 36.15 1.33 1.79 2.59 3.89 4.97 4.36-1.31-3.23-3.57-5.92-5.62-8.69-7.97-10.73-15.88-21.49-23.85-32.22-2.46-2.99-1.99-7.12-3.41-10.57-2.4-4.99.91-10.59-1.57-15.56 3.03-1.51 3.4-4.63 3.11-7.68-.91 1.78-.51 4.64-2.69 5.5-3.36 1.54-6.71 4.03-10.61 3.34l.2-2.95c.93-1.75 1.99-3.56 1.79-5.64-1.46-.67-3.02-1.07-4.55-1.53-2.7 2.65-6.06 4.13-9.69 5.02-3.46-.94-8.33.63-10.08-3.42-5.37-6.69-3.67-16.76-10.21-22.71-3.47-1.83-6.35-4.85-10.23-5.82-1.09 1.44-2.23 2.87-2.87 4.58-1.25 3.3-4.11 5.7-5.02 9.17-1.79-2.44-4.67-3.48-7.45-4.33.11-.63.32-1.9.43-2.53-2.59-1.27-5.14-2.62-7.79-3.76.15 3.39 4.2 3.64 6.54 5.01.43 1.31.86 2.61 1.29 3.92-1.5 1.01-3.08 1.93-4.81 2.48-4.09 1.24-7.16 4.39-10.59 6.76-3.89 2.84-4.1 8.07-4.27 12.45.02 2.72 2.93 3.92 4.58 5.58-2.35.33-4.7.71-7.04 1.08-.41-.39-1.21-1.17-1.61-1.56-5.65-2.02-10.7-5.38-16.25-7.58-3.52-.71-6.73-2.29-10.04-3.62-.66-3.36-2.31-6.56-2.11-10.05.69-4.49 2.6-9.18 6.67-11.62 3.75-2.88 8.65-1.03 12.62.36 3.96 3.54 9.7 3.59 14.14.94-3.23-1.6-6.78.39-10.18.06.07-.87.22-2.61.29-3.48 1.15-1.59 2.32-3.16 3.49-4.73 2.51-.02 5.01.01 7.52.09 2.45 2.61 6.02 3.44 9.26 4.63-2.45-3.37-5.71-6.03-9.06-8.45a77.12 77.12 0 00-16.55-11.54c-4.53-1.36-10.94-3.37-14.28 1.25m94.73 7.79c-1.08 3.29-3.09 6.9-2.34 10.29 3.06-2.62 3.07-7.38 4.56-10.97 1.02-1.97 3.56-1.33 5.34-1.23 2.27 1.97 3.55 4.89 5.55 7.16 3.25 6.57-.94 14.29 1.81 20.93-.81.67-1.61 1.34-2.41 2.02 2.47.56 4.94-.01 7.32-.73 2.85 2.07 4.98 4.88 6.7 7.93 2.56-1.68 7.23-2.92 6.63-6.76-2.06-3.51-5.78-1.23-8.46.06-1.89-1.21-3.53-2.75-5.31-4.11-1.03-4.3-3.64-8.24-3.5-12.77-.21-2.66.64-5.75-1.18-8.01-2.06-2.58-4.16-5.16-6.54-7.45-3.07-.28-6.94.36-8.17 3.64m-92.32-1.49c.1.6.31 1.8.42 2.41 4.07.91 8.56-.48 12.36 1.39-.17-1.17-1.63-.96-2.46-1.31-3.36-1.17-6.94-1.4-10.32-2.49m90.72 14.56c-.34 3.27 2.14 6.87 3.73 9.97l-1.3.76c.94 2.75 2.35 5.33 3.12 8.13.43 1.27-.38 3.08.69 4.04 2.4.17 2.89-2.71 4.14-4.2-3.32-6.28-6.1-13.07-10.38-18.7M75.2 97.07c.17-.75.52-2.26.69-3.02 1.91-1.51 4.64-2.79 4.42-5.68-3.41 1.62-5.18 5.01-5.11 8.7m14.93-4.6c.11-.59.34-1.76.46-2.35-1.18 2.05-2.42 4.06-3.56 6.13.2.25.6.74.8.98l-.04.89c-2.39 1.27-4.81 2.52-6.9 4.28 2.74.71 4.92-1.27 7.33-2.14 2.08-.89 4.55-1.1 6.18-2.83-1.66.07-3.19-.12-4.61-.57 1.01-4.1 5.98-6.13 9.92-6.65-.01-.21-.02-.64-.03-.85-3.24.88-6.94.65-9.55 3.11m52.61 1.61c1.01 2.01 2.7 3.45 4.61 4.56-.81.85-1.62 1.7-2.43 2.56 5.45-1.98 10.65.81 15.62 2.73-1.55-2.97-4.74-3.89-7.77-4.53-1.92-3.65-6.46-4.28-10.03-5.32z"/><path d="M36.11 70.96c4.4-.78 9.18-3.26 13.46-.67 6.43 3.65 12.98 7.09 19.59 10.42-4.1 1.62-8.19 3.97-10.41 7.94-2.01 2.93-1.68 6.61-1.68 9.98-4.07-2.64-7.49-6.17-11.77-8.5-2.06 1.32-4.84 1.76-6.28 3.87-.55 1.95-.66 4.09-.27 6.08 1.98 1.69 4.21 3.06 6.15 4.81-.7 4.01-2.57 7.97-1.84 12.12.7 6.17 2.46 12.24 1.77 18.5-4.29 1.97-8.82.55-12.85-1.29-3.64-1.79-7.71-2.77-10.92-5.33-1.89-1.3-2.17-3.74-2.92-5.73 5.45-.85 10.97-1.72 15.99-4.15-.41-7.66.28-15.57-1.92-23.01.45-5.07-.61-10.31.92-15.25-.23-3.48-.24-7.61 2.98-9.79m4.9 2.49c-1.24 1.87-3.21 2.73-5.29 3.28 1.5.11 2.99.24 4.49.39 1.05-1.03 1.81-2.29.8-3.67m3.61 5.68c2.85 2.34 6.69 2.69 10.01 4.07-1.51-3.9-6.4-4.39-10.01-4.07m-4.96 4.56c-.42.42-1.26 1.26-1.68 1.69 1.93.19 3.87.29 5.8.42.95 1.07 1.92 2.11 2.91 3.14-1.13-1.81-2.35-3.56-3.55-5.32-1.16.02-2.32.04-3.48.07m-4.09 3.87c-.54 3.78-1.62 7.6-.85 11.43.5 5.56.88 11.42 4.11 16.21-.43-4.81-2.21-9.4-2.35-14.24-.67-4.55.43-9.05.99-13.54-.48.04-1.42.1-1.9.14m4.3 32.29l.04 3.02c-2.88 1-5.77 1.96-8.72 2.69.98.67 1.95 1.34 2.93 2.02 1.29-1.05 2.53-2.15 3.77-3.25 1.29.95 1.89 2.48 2.56 3.87.28.08.84.23 1.12.31.15-2.92.22-5.84.5-8.75l-2.2.09z"/><path d="M122.75 84.93c1.61-1.61 2.84-4.34 5.27-4.63 4.09 1.23 7.69 4.13 9.89 7.8 2.67 7.11 4.32 14.83 8.79 21.13-.19 1.35-.39 2.71-.58 4.06 1.63-1 3.21-2.12 4.95-2.94 2.28-.87 4.23.83 6.03 1.96 4.2-1.6 7.8-4.83 12.41-5.19-1.14 3.53-4.92 4.12-7.7 5.74-2.53 2.32-2.88 6.16-5.27 8.57-2.88 1.63-5.66 3.48-8.72 4.76-2.04.29-4.12.14-6.16.46 3.83 3.51 9.01 1.1 12.55-1.51.71 1.8 1.91 3.29 3.37 4.55-2.05 2.55-3.79 5.88-1.47 8.95-1.92-1.75-3.87-3.47-5.79-5.21-1.02.25-2.03.52-3.04.8 1.39 1.14 2.76 2.31 4.11 3.49-1.76-.06-3.51-.18-5.26-.36 1.26.62 2.51 1.27 3.74 1.96-3.47-.25-6.94-1.14-10.43-.65 4.86 4.37 11.25-.75 16.73 1.9 1.44 7.46 9.64 11.02 16.59 10.05-3.02 3.41-7.44 4.88-11.33 7-5.26 2.96-11.25 5.33-17.37 5-8.38-2.21-13.81-9.69-21.61-13.07-9.88-7.66-21.94-11.71-32.16-18.87-4.1-3.06-8.74-5.2-13.06-7.89-8.76-6.37-18.77-10.84-27.3-17.54-3.03-2.44-6.41-4.39-9.77-6.31.01-1.26.08-2.51.2-3.76 1.42-1.21 2.95-2.32 4.6-3.18 1.57-.08 2.53 1.54 3.6 2.46 2.55 2.98 5.53 5.64 9.09 7.35l-.08 2.17c1.29 1.49 2.51 3.24 4.47 3.91 7.03 2.84 14.13 5.56 21.44 7.61 2.55 1.25 4.28 3.83 7.06 4.74 3.48.87 7.02-.25 10.37-1.14 2.53 3.44 6.12 6.02 8.11 9.86 1.3 2.68 3.96 4.24 6.73 5.04 3.87 3.52 7.71 7.77 13.16 8.57 3.78.47 8.73 1.17 11.07-2.67-3.61.62-7.19 1.37-10.83 1.72-4.51-2.68-8.63-5.86-12.49-9.39-3.65-1.54-6.11-4.58-8.28-7.76-3.66-3.42-6.39-7.82-10.91-10.24l-.24-.19c-1.15-1.13-3.19-2.09-2.81-4.03.38-5.22 2.32-10.84 6.94-13.77 5.14-2.95 11.06-4.56 17.02-3.85-.32 1.6-.61 3.2-.88 4.8-3.25-1.42-6.87-2.5-10.44-1.94 1.08 2.81 5.26 1.43 7.58 2.29-1.78 1.69-4.2 2.94-5.02 5.42 2.05-1.29 3.97-2.8 5.55-4.64.51.03 1.52.1 2.03.14-.04 1.75-.05 3.5-.06 5.26l-2.38.24c.47.09 1.42.26 1.89.34-.14 4.55.1 9.11-.28 13.66.6 1.11 1.2 2.23 1.79 3.35-1.89.44-3.76.95-5.63 1.47-.03.49-.1 1.48-.13 1.97 2-.5 3.99-1.1 6.04-1.33 1.78 2.29 1.69 5.6 2.46 8.36.43-.05 1.29-.17 1.72-.22-.31-5.1-2.49-9.75-3.84-14.6-.94-6.68-.86-13.54.64-20.14.33-4.18 2.67-7.79 3.33-11.89m1.08 7.05c-.13 3.38-.45 6.99 1.19 10.09 2.98 2.11 6.27 3.87 8.55 6.84 1.03 3.95 1.13 8.03.24 12.03 1.28-.69 3.83-2.06 5.11-2.75-2.72 2.52-6.24 5-5.59 9.17.62.23 1.87.68 2.49.91-.21.52-.63 1.57-.83 2.1 2.44.7 4.52 2.13 6.44 3.74-1.43-2.01-2.98-3.94-4.42-5.94 2.52-1.24 5.06-2.5 7.78-3.27-.22-3.97-1.6-7.77-1.64-11.75-1.33.8-2.64 1.63-3.93 2.48-1.23-7.41-9.88-9.8-12.46-16.46-.91-2.42-1.73-4.89-2.93-7.19m-23.29 9.79c-.24 3.04 2.79 2.87 4.9 3.23-.82-2.08-3.08-2.49-4.9-3.23m42.38 26.65c-.23 2.36-.45 4.72-.66 7.08l1.95.05c.05-.93.14-2.8.18-3.74l2.29-2.13c-.94-.32-2.82-.94-3.76-1.26m-12.67 16.15c2.97 4.25 8.17 5.61 12.68 7.58 3.82 1.82 8.14 2.63 12.25 1.23.13-.41.4-1.23.53-1.64-3.95.34-8.02.11-11.67-1.56-4.52-2.05-8.92-4.47-13.79-5.61zM184.14 100.89c1.08-1.58 3.09-1.43 4.78-1.57-.93 1.56-1.96 3.06-3 4.54-.63-.97-1.23-1.96-1.78-2.97z"/><path d="M165.94 113.54c.25-.09.74-.26.98-.35 1.13 4.84 5.72 7.44 9.28 10.32 1.63 3.57 4.61 6.63 4.85 10.72-5.12-6.83-10.3-13.63-15.11-20.69zM160.65 117.72c.98-1.16 1.96-2.31 2.95-3.45 5.62 7.53 11.49 14.91 16.68 22.74 1.14 4.76-2.9 8.61-6.48 11.07-2.13.84-4.52.28-6.76.36-3.92-2.17-6.98-5.33-9.47-9.01 1.12.08 3.35.24 4.47.33-1.52-1.45-3.48-2.63-4.24-4.68-.63-1.82.11-3.63.51-5.39.97-2.1-1.41-3.48-2.34-5.04 1.36-1.19 2.7-2.4 4.06-3.59.06.46.17 1.37.23 1.82.1-1.72.25-3.44.39-5.16zM171.52 116.88c2.06-.98 4.1-2.01 6.13-3.07.62 2.66.66 5.38.31 8.07-2.11-1.72-4.3-3.33-6.44-5zM63.14 115.27c5.49 4.25 11.67 7.51 17.22 11.69-2.17 1.08-4.43 2.04-6.37 3.52 3.12 1.24 5.97-1.44 8.82-2.4 4.06 3.05 8.2 6 12.33 8.96-13.63 6.53-27.36 12.85-41 19.35-2.85 1.64-5.57-1.16-7.72-2.78-.91-1.87-.62-4.09-.95-6.1 5.85-3.63 12.54-5.8 18.19-9.71.42-7.51-.02-15.04-.52-22.53zM135.68 126.27c.44-3.29 3.19-5.3 6.33-5.69 1.33 3.74-3.73 4.79-6.33 5.69zM133.81 160.75c3.84 1.65 7.83 2.93 11.75 4.38-.69 9.58-2.79 19.36-.62 28.88 3-2.01 1.11-5.61.75-8.42 5.04-2.58 10.24-4.84 15.39-7.18 2.2 1.33 4.48 2.56 6.49 4.17.86 2.36.58 4.97.8 7.44-15.4 7.21-30.74 14.59-46.2 21.67-2.03-1.45-4.01-2.98-6.03-4.43 0-2.06.03-4.12.08-6.17 6.15-2.83 12.14-5.99 18.15-9.11.33-10.41-.33-20.82-.56-31.23z"/></g><g fill="#333"><path d="M63.64 62.37c3.34-4.62 9.75-2.61 14.28-1.25a77.12 77.12 0 0116.55 11.54c3.35 2.42 6.61 5.08 9.06 8.45-3.24-1.19-6.81-2.02-9.26-4.63-2.51-.08-5.01-.11-7.52-.09-1.17 1.57-2.34 3.14-3.49 4.73-.07.87-.22 2.61-.29 3.48 3.4.33 6.95-1.66 10.18-.06-4.44 2.65-10.18 2.6-14.14-.94-3.97-1.39-8.87-3.24-12.62-.36-4.07 2.44-5.98 7.13-6.67 11.62-.2 3.49 1.45 6.69 2.11 10.05 3.31 1.33 6.52 2.91 10.04 3.62 5.55 2.2 10.6 5.56 16.25 7.58.4.39 1.2 1.17 1.61 1.56 2.34-.37 4.69-.75 7.04-1.08-1.65-1.66-4.56-2.86-4.58-5.58.17-4.38.38-9.61 4.27-12.45 3.43-2.37 6.5-5.52 10.59-6.76 1.73-.55 3.31-1.47 4.81-2.48-.43-1.31-.86-2.61-1.29-3.92-2.34-1.37-6.39-1.62-6.54-5.01 2.65 1.14 5.2 2.49 7.79 3.76-.11.63-.32 1.9-.43 2.53 2.78.85 5.66 1.89 7.45 4.33.91-3.47 3.77-5.87 5.02-9.17.64-1.71 1.78-3.14 2.87-4.58 3.88.97 6.76 3.99 10.23 5.82 6.54 5.95 4.84 16.02 10.21 22.71 1.75 4.05 6.62 2.48 10.08 3.42 3.63-.89 6.99-2.37 9.69-5.02 1.53.46 3.09.86 4.55 1.53.2 2.08-.86 3.89-1.79 5.64l-.2 2.95c3.9.69 7.25-1.8 10.61-3.34 2.18-.86 1.78-3.72 2.69-5.5.29 3.05-.08 6.17-3.11 7.68 2.48 4.97-.83 10.57 1.57 15.56 1.42 3.45.95 7.58 3.41 10.57 7.97 10.73 15.88 21.49 23.85 32.22 2.05 2.77 4.31 5.46 5.62 8.69-2.38-.47-3.64-2.57-4.97-4.36-8.75-12.12-17.87-23.96-26.52-36.15-1.11 2.99-2.73 5.78-4.95 8.08.26.11.79.34 1.05.45-1.25.4-2.49.82-3.72 1.25-.21 1.96-.63 4.09-2.57 5.06-8.17 4.6-16.65 8.84-25.91 10.73-.17 5.94.09 11.89-.26 17.82 2.48-1.13 4.97-2.24 7.58-3.04 2.59-1.38 5.03-3.35 8-3.78 2.7 1.01 4.98 2.91 7.48 4.32.81 3.44 1.03 6.97 1.05 10.49-15.32 7.47-30.83 14.55-46.22 21.87-2.46 1.75-4.56-1.09-6.51-2.3-.59.19-1.78.56-2.37.74l3.11-1.57c-4.22 1.23-3.7-2.35-4.15-4.55-.03-1.93-1.19-4.6 1.09-5.71 5.52-3.1 11.36-5.62 16.98-8.56.27-6.35-.61-12.67-.52-19.03-.17-4.33.11-8.73-.64-13.01-2.62-2.96-6.4-4.39-9.56-6.64-4.53-3.28-9.83-5.25-14.46-8.35-3.15-1.79-5.93-4.23-9.31-5.57-1.95.29-3.67 1.33-5.46 2.1-13.42 6.47-26.97 12.69-40.45 19.05-2.54-1.57-5.05-3.19-7.54-4.85-.29-2.75-1.35-5.91-.33-8.5 5.59-3.51 11.8-6.01 17.61-9.15.17-7.51-.08-15.02-.35-22.52-5.98-2.24-10.91-6.2-15.53-10.48-.69 4.67-.85 9.39-1.18 14.1-.45 6.5 3.88 12.67 1.86 19.17-3.33.99-6.84 2.09-10.32 1.17-5.72-1.68-10.84-4.85-16.06-7.65-1.88-.84-2.72-2.83-2.71-4.8-.86-3.3 2.79-5.39 5.55-5.78 3.09-.3 6.1-1.04 8.92-2.34.5-8.68-1.69-17.24-1.01-25.91-.3-5.03.79-10.01.38-15.03-.31-3.08 1.8-5.76 3.88-7.76 3.93-1.54 8.23-.53 12.3-.29 4.02.82 8.63 1.49 11.37 4.87.53.02 1.58.07 2.1.09.1-3.95-.67-8.18 1.51-11.74 1.36 4.29.99 8.81-.19 13.09.91.42 2.73 1.24 3.64 1.66.09-.65.28-1.95.38-2.6 2.88 1.52 5.93 2.66 9.02 3.69-2.5-.17-5.47-2.36-7.65-.27.49.67 1.48 1.99 1.97 2.66 3.61-.1 7.23.25 10.67 1.43 1.4-1.76 2.75-3.59 4.36-5.17 2.56-1.47 5.57-1.93 8.42-2.57-6.75-6.74-15.45-12.07-25.07-13.16-1.51-.66-2.51.6-3.28 1.66-.26-.04-.76-.13-1.01-.18m-27.53 8.59c-3.22 2.18-3.21 6.31-2.98 9.79-1.53 4.94-.47 10.18-.92 15.25 2.2 7.44 1.51 15.35 1.92 23.01-5.02 2.43-10.54 3.3-15.99 4.15.75 1.99 1.03 4.43 2.92 5.73 3.21 2.56 7.28 3.54 10.92 5.33 4.03 1.84 8.56 3.26 12.85 1.29.69-6.26-1.07-12.33-1.77-18.5-.73-4.15 1.14-8.11 1.84-12.12-1.94-1.75-4.17-3.12-6.15-4.81-.39-1.99-.28-4.13.27-6.08 1.44-2.11 4.22-2.55 6.28-3.87 4.28 2.33 7.7 5.86 11.77 8.5 0-3.37-.33-7.05 1.68-9.98 2.22-3.97 6.31-6.32 10.41-7.94-6.61-3.33-13.16-6.77-19.59-10.42-4.28-2.59-9.06-.11-13.46.67m86.64 13.97c-.66 4.1-3 7.71-3.33 11.89-1.5 6.6-1.58 13.46-.64 20.14 1.35 4.85 3.53 9.5 3.84 14.6-.43.05-1.29.17-1.72.22-.77-2.76-.68-6.07-2.46-8.36-2.05.23-4.04.83-6.04 1.33.03-.49.1-1.48.13-1.97 1.87-.52 3.74-1.03 5.63-1.47-.59-1.12-1.19-2.24-1.79-3.35.38-4.55.14-9.11.28-13.66-.47-.08-1.42-.25-1.89-.34l2.38-.24c.01-1.76.02-3.51.06-5.26-.51-.04-1.52-.11-2.03-.14-1.58 1.84-3.5 3.35-5.55 4.64.82-2.48 3.24-3.73 5.02-5.42-2.32-.86-6.5.52-7.58-2.29 3.57-.56 7.19.52 10.44 1.94.27-1.6.56-3.2.88-4.8-5.96-.71-11.88.9-17.02 3.85-4.62 2.93-6.56 8.55-6.94 13.77-.38 1.94 1.66 2.9 2.81 4.03l.24.19c4.52 2.42 7.25 6.82 10.91 10.24 2.17 3.18 4.63 6.22 8.28 7.76 3.86 3.53 7.98 6.71 12.49 9.39 3.64-.35 7.22-1.1 10.83-1.72-2.34 3.84-7.29 3.14-11.07 2.67-5.45-.8-9.29-5.05-13.16-8.57-2.77-.8-5.43-2.36-6.73-5.04-1.99-3.84-5.58-6.42-8.11-9.86-3.35.89-6.89 2.01-10.37 1.14-2.78-.91-4.51-3.49-7.06-4.74-7.31-2.05-14.41-4.77-21.44-7.61-1.96-.67-3.18-2.42-4.47-3.91l.08-2.17c-3.56-1.71-6.54-4.37-9.09-7.35-1.07-.92-2.03-2.54-3.6-2.46-1.65.86-3.18 1.97-4.6 3.18-.12 1.25-.19 2.5-.2 3.76 3.36 1.92 6.74 3.87 9.77 6.31 8.53 6.7 18.54 11.17 27.3 17.54 4.32 2.69 8.96 4.83 13.06 7.89 10.22 7.16 22.28 11.21 32.16 18.87 7.8 3.38 13.23 10.86 21.61 13.07 6.12.33 12.11-2.04 17.37-5 3.89-2.12 8.31-3.59 11.33-7-6.95.97-15.15-2.59-16.59-10.05-5.48-2.65-11.87 2.47-16.73-1.9 3.49-.49 6.96.4 10.43.65-1.23-.69-2.48-1.34-3.74-1.96 1.75.18 3.5.3 5.26.36a171.89 171.89 0 00-4.11-3.49c1.01-.28 2.02-.55 3.04-.8 1.92 1.74 3.87 3.46 5.79 5.21-2.32-3.07-.58-6.4 1.47-8.95-1.46-1.26-2.66-2.75-3.37-4.55-3.54 2.61-8.72 5.02-12.55 1.51 2.04-.32 4.12-.17 6.16-.46 3.06-1.28 5.84-3.13 8.72-4.76 2.39-2.41 2.74-6.25 5.27-8.57 2.78-1.62 6.56-2.21 7.7-5.74-4.61.36-8.21 3.59-12.41 5.19-1.8-1.13-3.75-2.83-6.03-1.96-1.74.82-3.32 1.94-4.95 2.94.19-1.35.39-2.71.58-4.06-4.47-6.3-6.12-14.02-8.79-21.13-2.2-3.67-5.8-6.57-9.89-7.8-2.43.29-3.66 3.02-5.27 4.63m43.19 28.61c4.81 7.06 9.99 13.86 15.11 20.69-.24-4.09-3.22-7.15-4.85-10.72-3.56-2.88-8.15-5.48-9.28-10.32-.24.09-.73.26-.98.35m-5.29 4.18c-.14 1.72-.29 3.44-.39 5.16-.06-.45-.17-1.36-.23-1.82-1.36 1.19-2.7 2.4-4.06 3.59.93 1.56 3.31 2.94 2.34 5.04-.4 1.76-1.14 3.57-.51 5.39.76 2.05 2.72 3.23 4.24 4.68-1.12-.09-3.35-.25-4.47-.33 2.49 3.68 5.55 6.84 9.47 9.01 2.24-.08 4.63.48 6.76-.36 3.58-2.46 7.62-6.31 6.48-11.07-5.19-7.83-11.06-15.21-16.68-22.74-.99 1.14-1.97 2.29-2.95 3.45m10.87-.84c2.14 1.67 4.33 3.28 6.44 5 .35-2.69.31-5.41-.31-8.07-2.03 1.06-4.07 2.09-6.13 3.07m-108.38-1.61c.5 7.49.94 15.02.52 22.53-5.65 3.91-12.34 6.08-18.19 9.71.33 2.01.04 4.23.95 6.1 2.15 1.62 4.87 4.42 7.72 2.78 13.64-6.5 27.37-12.82 41-19.35-4.13-2.96-8.27-5.91-12.33-8.96-2.85.96-5.7 3.64-8.82 2.4 1.94-1.48 4.2-2.44 6.37-3.52-5.55-4.18-11.73-7.44-17.22-11.69m70.67 45.48c.23 10.41.89 20.82.56 31.23-6.01 3.12-12 6.28-18.15 9.11-.05 2.05-.08 4.11-.08 6.17 2.02 1.45 4 2.98 6.03 4.43 15.46-7.08 30.8-14.46 46.2-21.67-.22-2.47.06-5.08-.8-7.44-2.01-1.61-4.29-2.84-6.49-4.17-5.15 2.34-10.35 4.6-15.39 7.18.36 2.81 2.25 6.41-.75 8.42-2.17-9.52-.07-19.3.62-28.88-3.92-1.45-7.91-2.73-11.75-4.38zM158.37 70.16c1.23-3.28 5.1-3.92 8.17-3.64 2.38 2.29 4.48 4.87 6.54 7.45 1.82 2.26.97 5.35 1.18 8.01-.14 4.53 2.47 8.47 3.5 12.77 1.78 1.36 3.42 2.9 5.31 4.11 2.68-1.29 6.4-3.57 8.46-.06.6 3.84-4.07 5.08-6.63 6.76-1.72-3.05-3.85-5.86-6.7-7.93-2.38.72-4.85 1.29-7.32.73.8-.68 1.6-1.35 2.41-2.02-2.75-6.64 1.44-14.36-1.81-20.93-2-2.27-3.28-5.19-5.55-7.16-1.78-.1-4.32-.74-5.34 1.23-1.49 3.59-1.5 8.35-4.56 10.97-.75-3.39 1.26-7 2.34-10.29m25.77 30.73c.55 1.01 1.15 2 1.78 2.97 1.04-1.48 2.07-2.98 3-4.54-1.69.14-3.7-.01-4.78 1.57z"/><path d="M66.05 68.67c3.38 1.09 6.96 1.32 10.32 2.49.83.35 2.29.14 2.46 1.31-3.8-1.87-8.29-.48-12.36-1.39-.11-.61-.32-1.81-.42-2.41zM41.01 73.45c1.01 1.38.25 2.64-.8 3.67-1.5-.15-2.99-.28-4.49-.39 2.08-.55 4.05-1.41 5.29-3.28zM44.62 79.13c3.61-.32 8.5.17 10.01 4.07-3.32-1.38-7.16-1.73-10.01-4.07zM39.66 83.69c1.16-.03 2.32-.05 3.48-.07 1.2 1.76 2.42 3.51 3.55 5.32-.99-1.03-1.96-2.07-2.91-3.14-1.93-.13-3.87-.23-5.8-.42.42-.43 1.26-1.27 1.68-1.69zM156.77 83.23c4.28 5.63 7.06 12.42 10.38 18.7-1.25 1.49-1.74 4.37-4.14 4.2-1.07-.96-.26-2.77-.69-4.04-.77-2.8-2.18-5.38-3.12-8.13l1.3-.76c-1.59-3.1-4.07-6.7-3.73-9.97zM35.57 87.56c.48-.04 1.42-.1 1.9-.14-.56 4.49-1.66 8.99-.99 13.54.14 4.84 1.92 9.43 2.35 14.24-3.23-4.79-3.61-10.65-4.11-16.21-.77-3.83.31-7.65.85-11.43zM75.2 97.07c-.07-3.69 1.7-7.08 5.11-8.7.22 2.89-2.51 4.17-4.42 5.68-.17.76-.52 2.27-.69 3.02zM90.13 92.47c2.61-2.46 6.31-2.23 9.55-3.11.01.21.02.64.03.85-3.94.52-8.91 2.55-9.92 6.65 1.42.45 2.95.64 4.61.57-1.63 1.73-4.1 1.94-6.18 2.83-2.41.87-4.59 2.85-7.33 2.14 2.09-1.76 4.51-3.01 6.9-4.28l.04-.89c-.2-.24-.6-.73-.8-.98 1.14-2.07 2.38-4.08 3.56-6.13-.12.59-.35 1.76-.46 2.35zM123.83 91.98c1.2 2.3 2.02 4.77 2.93 7.19 2.58 6.66 11.23 9.05 12.46 16.46 1.29-.85 2.6-1.68 3.93-2.48.04 3.98 1.42 7.78 1.64 11.75-2.72.77-5.26 2.03-7.78 3.27 1.44 2 2.99 3.93 4.42 5.94-1.92-1.61-4-3.04-6.44-3.74.2-.53.62-1.58.83-2.1-.62-.23-1.87-.68-2.49-.91-.65-4.17 2.87-6.65 5.59-9.17-1.28.69-3.83 2.06-5.11 2.75.89-4 .79-8.08-.24-12.03-2.28-2.97-5.57-4.73-8.55-6.84-1.64-3.1-1.32-6.71-1.19-10.09m11.85 34.29c2.6-.9 7.66-1.95 6.33-5.69-3.14.39-5.89 2.4-6.33 5.69zM142.74 94.08c3.57 1.04 8.11 1.67 10.03 5.32 3.03.64 6.22 1.56 7.77 4.53-4.97-1.92-10.17-4.71-15.62-2.73.81-.86 1.62-1.71 2.43-2.56-1.91-1.11-3.6-2.55-4.61-4.56zM100.54 101.77c1.82.74 4.08 1.15 4.9 3.23-2.11-.36-5.14-.19-4.9-3.23zM39.87 119.85l2.2-.09c-.28 2.91-.35 5.83-.5 8.75-.28-.08-.84-.23-1.12-.31-.67-1.39-1.27-2.92-2.56-3.87-1.24 1.1-2.48 2.2-3.77 3.25-.98-.68-1.95-1.35-2.93-2.02 2.95-.73 5.84-1.69 8.72-2.69l-.04-3.02z"/><path d="M142.92 128.42c.94.32 2.82.94 3.76 1.26l-2.29 2.13c-.04.94-.13 2.81-.18 3.74l-1.95-.05c.21-2.36.43-4.72.66-7.08zM130.25 144.57c4.87 1.14 9.27 3.56 13.79 5.61 3.65 1.67 7.72 1.9 11.67 1.56-.13.41-.4 1.23-.53 1.64-4.11 1.4-8.43.59-12.25-1.23-4.51-1.97-9.71-3.33-12.68-7.58z"/></g></svg>