<svg width="368" height="300" viewBox="0 0 276 225" xmlns="http://www.w3.org/2000/svg"><g fill="#FFF"><path d="M0 0h276v225H0V0m197.32 15.37c-3.29 5.93-4.4 12.88-4.08 19.59-5.62-.45-11.27-.86-16.75-2.3-2.06-.65-3.85.91-5.64 1.65-.59-.85-1.19-1.7-1.78-2.55-3.65.61-7.37.85-10.99 1.6-3.28 1.51-4.36 5.79-7.96 6.75-1.94.77-3.92 1.46-5.78 2.42 5.07.68 9.83-1.26 14.61-2.56-1.15-1.09-2.34-2.14-3.52-3.19 3.22-2.01 7.05-2.42 10.71-3.08.63.17 1.9.53 2.54.7 2.68 5.28 1.11 11.44 4.06 16.67-.1-.71-.29-2.13-.39-2.85.59-2.51.6-5.11.63-7.68 6.98-1.25 13.93.74 20.88 1.27 1.14 6.46 3.57 13.33 9.29 17.11 3.32 1.29 7.14.44 10.46-.43 7.72-6.19 8.83-16.78 9-25.99 4.59-1.7 9.33-2.95 13.99-4.43-.17-2.06-.22-4.71-2.43-5.67-4.22 1.03-8.28 2.63-12.51 3.63-1.71-6.15-3.77-13.53-10.11-16.39-5.22-1.48-11.67.74-14.23 5.73M126 43.92c-1.46 2.8-2.37 6.3-5.46 7.78-4.64 2.52-9.13 5.28-13.56 8.14-1.26-6.2-3.75-12.78-9.39-16.25-3.24-1.87-7.09-.82-10.26.62-5.89 3.78-7.88 11.04-8.72 17.58-5.26-2.9-13.13-3.79-16.98 1.79-1.51 3.14-.55 6.86-.84 10.24-.49-.05-1.47-.14-1.96-.19-3.2-3.63-8.32-4-12.81-4.49-2.89-.19-5.76-1.04-8.65-.66-4.04.44-5.57 4.92-6.65 8.24 1.23 3.7.05 7.48.09 11.25.04 4.69-.53 9.43.28 14.09.67 5.21 2.76 10.48 1.07 15.72-3.77 2.07-8.25 1.68-12.09 3.36-4.08 1.57-3.57 7.93.01 9.72 5.2 2.83 10.31 5.97 16.03 7.64 3.52 1 7.09-.19 10.45-1.19 2.17-6.88-2.56-13.41-1.83-20.28.31-4.3.46-8.61 1.14-12.87 2.19 1.81 4.3 3.73 6.61 5.39-.15 4.77-.97 9.58-.04 14.32 1.03 6.28.11 12.65.18 18.97.61 7.09-.86 14.13-.92 21.22-7 3.14-14.32 5.51-21.32 8.65.71 4.07-.67 9.75 4.05 11.74 4.1 3.69 9.17.03 13.15-1.93 5.55-3.29 12.2-3.75 17.87-6.7-1.85-.22-3.71-.5-5.57-.44-6.76 1.68-12.77 5.33-19.05 8.2-2.41 1.01-4.76-.76-7.02-1.43-.53-2.96-.89-5.95-1.23-8.94 7.16-2.92 15-3.92 21.98-7.32-.59-11.96-.28-23.94.15-35.9-.14-6.32-.59-12.63-.2-18.95 3.29 1.92 6.69 3.62 10.13 5.26-.44 2.2-.84 4.42-.88 6.68-.55 13.2-1.3 26.56.71 39.68 6.51-.35 12.54-2.9 18.72-4.7 1.35.59 2.69 1.17 4.04 1.75.16 2.09.33 4.19.54 6.28-1.62 1.11-3.28 2.17-4.95 3.21-4.08-1.02-7.94-3.02-12.21-3.17 4.94 3.08 10.49 5.01 16.11 6.42 10.53 2.91 20.5 7.73 31.33 9.61 4.17.84 8.01 2.76 12.1 3.88-5.04-3.23-10.62-5.49-16.54-6.48-9.56-2.97-18.97-6.43-28.45-9.69 1.74-1.02 3.46-2.07 5.21-3.08-1.32-2.57-.4-5.18.73-7.57-1.58-1.09-3.16-2.18-4.59-3.46-1.81-.18-3.71-.61-5.37.39-4.97 2.21-10.06 4.15-15.35 5.48-.17-5.72-.62-11.5 0-17.2 3.22-2.68 8.35-5.35 7.89-10.19-1.68-3.19-2.63-6.66-4.06-9.95-.78 1.51-1.5 3.04-2.21 4.59 1.21 1.74 2.37 3.52 3.5 5.31-1.25 2.85-2.89 5.53-5.32 7.53-.46-8.15.72-16.34-.4-24.45 6.54 3.49 12.3 8.21 18.71 11.92 5.42 3.69 10.5 7.9 16.5 10.67 9.45 6.36 19.89 11.08 29.16 17.7.86.68 1.85 1.45 1.79 2.68.8 8.63.02 17.35 1.13 25.95.43.65 1.28 1.93 1.71 2.57.77-9.19-.37-18.42-.31-27.64 4.11 1.44 8.27 2.76 12.16 4.74 5.08-1.88 10.49-2.9 15.32-5.42 4.44-2.32 9.15-4.24 13.16-7.3.2-1.24.41-2.48.63-3.72 1.23-.37 2.47-.73 3.71-1.09-.27-.08-.82-.24-1.09-.33 4.24-4.14 4.9-10.35 4.9-15.97-.84-5.26-4.62-9.27-7-13.85-2.48-1.51-5.1-2.83-7.93-3.54-.54-.97-1.08-1.94-1.64-2.9.07 1.52.15 3.04.25 4.56l-1.92-.24c.11-.46.33-1.37.44-1.82-3.87 3.52-7.41 7.74-8.09 13.13 3.02-3.22 4.85-7.27 7.3-10.89 4.53-.81 8.81 1.7 10.98 5.61 4.41 5.66 5.7 13.03 4.65 20.01-1.42 2.43-3.55 4.43-5.88 5.99-2.1.91-4.5.31-6.73.42-3.77-2.12-6.78-5.17-9.28-8.68 1.79-.09 3.58-.23 5.36-.43-1.37-.8-3.04-1.18-4.19-2.31-1.06-1.91-1.68-4.02-2.62-5.98-1.4 2.35-1.77 4.92-.44 7.38-.95-.74-1.9-1.47-2.84-2.2-4.26.87-8.45 2.15-12.81 2.41-3.48 2.06-7.49 2.24-11.42 2.16-4.19-3.01-7.54-7.11-12.13-9.56-6.23-3.05-10.17-9.02-14.9-13.85-2.29-2.07-5.21-3.46-7.2-5.83-.32-2.5.45-4.97.69-7.44 3.12-4.09 6.63-8.28 11.58-10.15 2.72-1.04 5.35-2.34 8.13-3.23 2.24.11 4.19 1.52 6.32 2.09-2.1-1.81-4.23-3.57-6.41-5.26-.41.44-1.23 1.33-1.64 1.77-.55.13-1.66.38-2.21.5-5.86 2.49-11.59 5.48-16.1 10.09-2.47 2.76-2.53 6.7-2.84 10.19-.49 3.2 2.76 4.83 4.64 6.79-9.28 1.16-16.7-5.17-24.83-8.34-3.61-.82-6.92-2.5-10.46-3.54-2.6-3.04-2.37-7.27-2.16-11.01-.15-5.72 4.93-9.78 9.65-11.95 4.2-.75 8.6.74 12.27 2.77 2.1 2.16 3.71 4.76 5.82 6.93 1.62.37 3.35.53 4.76 1.52 2.18-.44 4.39-.72 6.62-.84 3.12-2.52 5.63-5.7 7.16-9.42 1.98 1.15 3.96 2.31 5.83 3.62.14-.85.27-1.7.41-2.55-1.92-.89-3.84-1.79-5.77-2.64 1.37-4.8 1.79-9.79 1.71-14.77 6.44-3.8 12.71-8.09 20.14-9.75.67 1.47 1.37 2.92 2.11 4.36-1.03 7.95-5.74 14.83-7.15 22.68-.43 4.42-.07 8.89.44 13.3-4.89-.02-9.54-1.68-14.35-2.22-.63.26-1.88.78-2.5 1.04 1.99.62 4.03 1.06 6.09 1.4-1.4 1.63-2.65 3.4-2.94 5.58 2.04-1.4 4.03-2.88 5.93-4.46 2.24.16 4.49.24 6.74.27-.57 3.31-1.22 6.65-2.92 9.59-2.53 4.74-1.67 10.25-.88 15.31.51-.02 1.54-.05 2.05-.07-.71-5.51-.8-11.36 1.46-16.55 2.23-4.39 2.5-9.4 4.15-14 2.2 3.56 1.54 8.01.59 11.86-1.33 2.49-3.05 4.8-3.87 7.54 2.55-2.02 4.4-4.8 5.9-7.66 1.02-3.8.99-7.91-.27-11.66-.56.01-1.69.03-2.25.05-1.37-5.97-1.07-12.5 1.41-18.15 2.03-5.19 5.44-10.11 5.17-15.91-3.68-1.15-2.51-5.02-2.92-7.93-1.08-1.28-2.69-1.89-4.08-2.74 2.22-4.1 6.67-6.02 11.14-6.44 2.01.61 3.84 1.68 5.74 2.56-.21 1.78-.48 3.56-.63 5.34 1.2-.29 2.42-.52 3.65-.68-.86 2.6-2.68 4.61-5.23 5.61-1.04 6.27-.46 12.67-1.69 18.9-.62 5.46-.5 10.98-1.53 16.4-.47.32-1.4.96-1.87 1.29 3.03 8.27.35 17.05-.61 25.43-.23 3.09 1.64 5.51 3.94 7.3-.27-2.88-.94-5.74-2.54-8.19 2.23-4.04 1.68-8.75 2.27-13.17.53-3.96-.83-7.92-.26-11.88.49-2.24 1.47-4.33 2.05-6.54 1.49-5.74-.89-11.84 1.13-17.5 1.26-3.43 1.3-7.11 2.08-10.64 1.82-2.38 3.82-4.63 5.18-7.33 1.32-.65 2.76-1.02 4.16-1.49 1.85 1.95 4.57 2.21 6.99 3 .68-.5 1.36-1 2.03-1.51l-2.34-2.18c-1.45.03-2.9.06-4.35.06 2.01-1.36 4.1-2.69 5.54-4.7-5.66.35-10.63 3.4-15.93 5.14-.13-1.31-.27-2.61-.44-3.92-1.13-.99-2.25-2-3.35-3.03-5.27-.47-10.45.86-14.98 3.56m33.87 22.18c-1.13 4.4-.06 8.92 1.51 13.06 1.29 2.61-.42 5.22-.99 7.75-1.01 3.25-.08 6.63.14 9.91-3.24-.61-6.5-.36-9.63.61-2.52-1.43-5.03-2.96-7.85-3.7-1.27-.1-5.74-1.44-3.87 1.09 2.78 1.37 5.77 2.32 8.42 3.97-2.78 1.56-5.65 3-8.24 4.87 5.83-.69 10.72-4.84 16.67-5.23 3.49.2 6.48 1.91 9.15 4.06-1.56-4.7-2.33-9.61-2.64-14.54.29-3.65 2.4-6.83 4.38-9.8 1.27.83 2.54 1.64 3.84 2.43-1.68-3.78-4.34-7-6.22-10.68-1.85 3.41 3.05 7.39-.64 9.91a31.113 31.113 0 01-1.05-16.78c.94-4.72.34-9.53-.95-14.13-1.04 5.69-.7 11.54-2.03 17.2m13.38-14.79c.27 4.3.3 8.64 1.14 12.89.55 5.03 1.72 10.28-.54 15.08.82 1.2 1.65 2.38 2.48 3.57.03 5.56 2.17 11.08.17 16.57 3.53 5.7 2.92 12.43 1.84 18.72 1.43-1.52 3.18-2.95 3.62-5.1 1.12-3.53-.59-7.04-1.7-10.33-1.92-4.74.05-10.02-1.63-14.82-1.33-4.15-2.49-8.53-1.55-12.89 1.35-8.12-.97-16.17-3.83-23.69M74.18 97.36c3.34-1.83 4.83-5.71 6.35-8.99-3.7 1.56-5.57 5.27-6.35 8.99m13.35-4.68c-.07.78-.22 2.35-.29 3.13.36.73.72 1.47 1.08 2.2a25.4 25.4 0 00-7.54 4.45c1.41.01 2.9.13 4.16-.65 3.08-1.57 6.42-2.54 9.63-3.81a6.49 6.49 0 00-3.86-.52c-.45-2.02-1.24-3.83-3.18-4.8m12.87 9.01c-.01 3.1 3 3.06 5.26 3.27-1.19-1.88-3.3-2.56-5.26-3.27m65.89.43c-1.71.24-2.01 3.34-.18 3.62 1.62-.22 1.93-3.39.18-3.62m-19.87 21.68c-.66.03-1.98.09-2.64.11.52.06 1.55.18 2.07.23-.29 1.85-.51 3.71-.68 5.58 3.03-1.89 3-5.81 4.74-8.61 1-1.02 2.19-1.81 3.29-2.71.7.23 2.08.68 2.77.91.01-.6.02-1.8.03-2.4l-.72 1.63c-.66-.5-1.32-.99-1.97-1.49-3.15 1.04-7.27 2.67-6.89 6.75m-96.85 19.26c-1.38 1.45 1.3 2.52 2.09 1.14 1.42-1.49-1.28-2.57-2.09-1.14m95.85 23.11c-.97 9.44-2.4 19.02-.66 28.46a69.08 69.08 0 00-2.77 3.38c1.84-.23 3.68-.56 5.46-1.14-2.12-10.17-.59-20.52-.89-30.79l-1.14.09m-79.92 8.68c2.98 2.34 6.77 3.25 10.44 3.81 4.49 2.2 8.97 4.68 13.95 5.52 5.75 1.31 11.4 3.06 16.96 5.04 4.99 2.42 10.68 2.76 15.66 5.22 5.12 2.35 10.94 2.73 15.94 5.37.87-.36 1.75-.72 2.63-1.07-7.47-2.43-14.92-4.91-22.29-7.58-6.77-1.32-12.93-4.45-19.57-6.2-5.57-2.13-11.68-2.51-17.02-5.24-5.52-1.77-10.81-4.55-16.7-4.87z"/><path d="M201.71 12.66c2.35-.44 4.67-1.06 6.89-1.95 7.79 2.49 10.7 10.98 11.72 18.31.81 8.08.54 17-4.19 23.94-1.31 2.15-3.7 3.09-5.94 3.94 6.47-7.31 6.74-17.7 5.98-26.91-.76-5.67-2.41-11.52-6.12-15.99-.84-1.27-2.42-1.37-3.74-1.71 8.26 9.32 10.34 22.85 7.04 34.64-.94 3.24-2.78 6.16-3.35 9.51-2.52.69-5.44 1.15-7.56-.79-4.19-3.43-6.01-8.84-7.18-13.94 2.82-2.12 6.4-2.7 9.68-3.81.37-.98.74-1.97 1.11-2.95-.54-1.17-1.07-2.34-1.61-3.51-3.47 1.04-6.93 2.12-10.36 3.28.85-7.73 1.42-16.49 7.63-22.06zM222.05 27.95c3.74-1.04 7.27-2.78 11.11-3.41.67.36 1.99 1.08 2.65 1.44-4.36 2.18-9.12 3.27-13.73 4.78 0-.71-.02-2.11-.03-2.81z"/><path d="M192.05 37.08c4.18-.66 7.93-3.08 12.24-3.08-.12.45-.34 1.37-.45 1.83-3.48 1.67-7.22 2.8-10.97 3.67-6.99-.28-14.06-2.78-21.01-.77-.4-1.53-.74-3.18 1.29-3.46 6.33-.52 12.57 1.65 18.9 1.81zM87.05 46.47c2.28-.64 4.47-1.56 6.75-2.17 4.3 1.85 8.1 5.28 9.66 9.77 3.04 8.03 3.38 17.04 1.29 25.35-1.2 4.3-3.31 9.42-8.28 10.29 5.91-9.34 6.28-21.22 3.7-31.7-1.47-4.79-3.27-10.69-8.56-12.43 1.39 3.32 4.24 5.78 5.53 9.16 2.99 6.79 3.24 14.41 2.44 21.67-.56 4.97-3.24 9.25-4.76 13.92-2.9.73-6.09.45-8.1-2.01-3.71-3.73-4.97-8.99-7.04-13.66 3.82-.87 7.76-1.72 11.22-3.62.72-2.03-.36-3.96-.97-5.86-3.65.71-7.18 1.87-10.65 3.17.97-7.71 1.47-16.39 7.77-21.88zM112.71 58.74c4.4-2.47 8.39-5.79 13.25-7.33l1.56 1.41c-6.8 3.92-13.65 7.77-20.45 11.7.01-3.31 3.37-4.24 5.64-5.78z"/><path d="M64.38 63.41c3.98-3.87 9.41-.75 14.06-.58-.02 1.92-.02 3.84 0 5.77-2.68.64-5.36 1.28-7.95 2.21-.06.72.05 1.43.33 2.11 5.83-1.53 11.5-3.74 17.42-4.94.62.22 1.87.64 2.5.86-6.12 2.73-12.81 3.86-18.96 6.54-1.15-.3-2.3-.61-3.45-.91-.37.4-1.11 1.19-1.48 1.59.77-1.14 3.52-3.07 1.26-4.17-3.09-.53-2.26 3.76-2.62 5.55-.76-.65-2.27-1.95-3.03-2.6.83-3.78.72-7.75 1.92-11.43zM38.14 70.11c3.9-.66 8.07-.74 11.8.78 5.76 2.25 10.67 6.47 16.77 7.89l2.25 1.83c-3.99 1.8-8.11 4.04-10.26 8.04-1.93 2.88-1.73 6.46-1.89 9.77-3.8-2.78-7.81-5.28-11.4-8.33-2.12 1.3-5.01 1.71-6.42 3.93-.59 1.97-.61 4.12-.3 6.14 1.43 1.25 3.11 2.17 4.71 3.17-.02 4.58-1.2 9.14-.41 13.71.64 6.06 2.6 12.04 1.74 18.19-5.99 3.36-12.11-1.21-17.73-3.19-4.15-1.34-7.83-4.12-9.04-8.49 5.71-1.43 11.7-2.02 16.91-4.98-.05-4.74-.66-9.45-1.47-14.11.53-.01 1.06 0 1.58.02.65 3.77 1.8 7.46 3.83 10.73-.36-4.81-2.1-9.39-2.32-14.21-.63-4.53.48-9.01 1.05-13.48l-1.98-.04c-1 4.78-1.43 9.63-1.47 14.5l-1 1.96c-1.76-9.69-.26-19.5.17-29.23 1.57-1.56 2.5-4.18 4.88-4.6m-3.23 6.37c2.3.99 4.7.48 6.95-.34-.12-.6-.37-1.8-.49-2.4-2.16.88-4.56 1.32-6.46 2.74m2.73 8.89c1.89.22 3.79.32 5.69.38 1.14 1.02 2.26 2.06 3.39 3.09-.58-1.64-1.08-3.32-1.87-4.87-2.5-.94-5.25-.4-7.21 1.4m2.68 33.99c-.17 1.37-.61 2.6-1.32 3.69-2.48 1.2-5.18 1.77-7.84 2.39l2.9 2.18c1.62-.65 2.88-3.83 4.79-2.47.54 1 1.04 2.02 1.5 3.06.31.08.94.26 1.25.35.16-2.78.36-5.55.33-8.33-.53-.31-1.07-.6-1.61-.87zM67.58 78.62c3.55-1.12 7.21-1.88 10.66-3.32 1.2 2.41 1.92 5.03 2.86 7.55-1.9-1.06-3.82-2.32-6.08-2.33-2.56-.33-5.49.33-7.44-1.9z"/><path d="M40.32 98.25c-1.12-3.46 2.51-4.88 4.85-6.36 4.59 2.72 7.29 7.95 12.45 9.98-.02.56-.06 1.67-.07 2.23 2.34 3.68 6.63 4.72 10.55 5.86 4.44 1.16 8.29 3.91 12.8 4.87 4.15.59 6.83 4.57 11.02 5.01 3.05.64 6.12-.22 9.14-.63 1.66 4.26 5.66 6.75 8.19 10.41 1.74 2.51 4.54 3.85 7.18 5.19 3.86 1.86 6.61 5.37 10.45 7.26 4.5 1.75 9.81 1.41 13.67-1.67 5.17.92 10.32-1.56 15.42.08 1.6 7.47 9.77 10.93 16.77 10.24-4.07 3.98-9.64 5.67-14.46 8.5-4.41 2.02-9.28 3.67-14.18 3.37-8.36-2.23-13.81-9.62-21.55-13.06-9.91-7.63-21.96-11.71-32.18-18.86-4.11-3.05-8.75-5.22-13.08-7.9-9.21-6.64-19.73-11.31-28.57-18.49-2.62-2.24-6.23-3.35-8.4-6.03m89.8 46.31c1.81 2.35 4.29 4.11 7.02 5.25 5.71 2.3 11.73 5.84 18.06 3.65.13-.42.41-1.28.54-1.7-9.42 1.6-16.88-5.38-25.62-7.2z"/></g><g fill="#333"><path d="M197.32 15.37c2.56-4.99 9.01-7.21 14.23-5.73 6.34 2.86 8.4 10.24 10.11 16.39 4.23-1 8.29-2.6 12.51-3.63 2.21.96 2.26 3.61 2.43 5.67-4.66 1.48-9.4 2.73-13.99 4.43-.17 9.21-1.28 19.8-9 25.99-3.32.87-7.14 1.72-10.46.43-5.72-3.78-8.15-10.65-9.29-17.11-6.95-.53-13.9-2.52-20.88-1.27-.03 2.57-.04 5.17-.63 7.68.1.72.29 2.14.39 2.85-2.95-5.23-1.38-11.39-4.06-16.67-.64-.17-1.91-.53-2.54-.7-3.66.66-7.49 1.07-10.71 3.08 1.18 1.05 2.37 2.1 3.52 3.19-4.78 1.3-9.54 3.24-14.61 2.56 1.86-.96 3.84-1.65 5.78-2.42 3.6-.96 4.68-5.24 7.96-6.75 3.62-.75 7.34-.99 10.99-1.6.59.85 1.19 1.7 1.78 2.55 1.79-.74 3.58-2.3 5.64-1.65 5.48 1.44 11.13 1.85 16.75 2.3-.32-6.71.79-13.66 4.08-19.59m4.39-2.71c-6.21 5.57-6.78 14.33-7.63 22.06 3.43-1.16 6.89-2.24 10.36-3.28.54 1.17 1.07 2.34 1.61 3.51-.37.98-.74 1.97-1.11 2.95-3.28 1.11-6.86 1.69-9.68 3.81 1.17 5.1 2.99 10.51 7.18 13.94 2.12 1.94 5.04 1.48 7.56.79.57-3.35 2.41-6.27 3.35-9.51 3.3-11.79 1.22-25.32-7.04-34.64 1.32.34 2.9.44 3.74 1.71 3.71 4.47 5.36 10.32 6.12 15.99.76 9.21.49 19.6-5.98 26.91 2.24-.85 4.63-1.79 5.94-3.94 4.73-6.94 5-15.86 4.19-23.94-1.02-7.33-3.93-15.82-11.72-18.31-2.22.89-4.54 1.51-6.89 1.95m20.34 15.29c.01.7.03 2.1.03 2.81 4.61-1.51 9.37-2.6 13.73-4.78-.66-.36-1.98-1.08-2.65-1.44-3.84.63-7.37 2.37-11.11 3.41m-30 9.13c-6.33-.16-12.57-2.33-18.9-1.81-2.03.28-1.69 1.93-1.29 3.46 6.95-2.01 14.02.49 21.01.77 3.75-.87 7.49-2 10.97-3.67.11-.46.33-1.38.45-1.83-4.31 0-8.06 2.42-12.24 3.08z"/><path d="M126 43.92c4.53-2.7 9.71-4.03 14.98-3.56 1.1 1.03 2.22 2.04 3.35 3.03.17 1.31.31 2.61.44 3.92 5.3-1.74 10.27-4.79 15.93-5.14-1.44 2.01-3.53 3.34-5.54 4.7 1.45 0 2.9-.03 4.35-.06l2.34 2.18c-.67.51-1.35 1.01-2.03 1.51-2.42-.79-5.14-1.05-6.99-3-1.4.47-2.84.84-4.16 1.49-1.36 2.7-3.36 4.95-5.18 7.33-.78 3.53-.82 7.21-2.08 10.64-2.02 5.66.36 11.76-1.13 17.5-.58 2.21-1.56 4.3-2.05 6.54-.57 3.96.79 7.92.26 11.88-.59 4.42-.04 9.13-2.27 13.17 1.6 2.45 2.27 5.31 2.54 8.19-2.3-1.79-4.17-4.21-3.94-7.3.96-8.38 3.64-17.16.61-25.43.47-.33 1.4-.97 1.87-1.29 1.03-5.42.91-10.94 1.53-16.4 1.23-6.23.65-12.63 1.69-18.9 2.55-1 4.37-3.01 5.23-5.61-1.23.16-2.45.39-3.65.68.15-1.78.42-3.56.63-5.34-1.9-.88-3.73-1.95-5.74-2.56-4.47.42-8.92 2.34-11.14 6.44 1.39.85 3 1.46 4.08 2.74.41 2.91-.76 6.78 2.92 7.93.27 5.8-3.14 10.72-5.17 15.91-2.48 5.65-2.78 12.18-1.41 18.15.56-.02 1.69-.04 2.25-.05 1.26 3.75 1.29 7.86.27 11.66-1.5 2.86-3.35 5.64-5.9 7.66.82-2.74 2.54-5.05 3.87-7.54.95-3.85 1.61-8.3-.59-11.86-1.65 4.6-1.92 9.61-4.15 14-2.26 5.19-2.17 11.04-1.46 16.55-.51.02-1.54.05-2.05.07-.79-5.06-1.65-10.57.88-15.31 1.7-2.94 2.35-6.28 2.92-9.59-2.25-.03-4.5-.11-6.74-.27-1.9 1.58-3.89 3.06-5.93 4.46.29-2.18 1.54-3.95 2.94-5.58-2.06-.34-4.1-.78-6.09-1.4.62-.26 1.87-.78 2.5-1.04 4.81.54 9.46 2.2 14.35 2.22-.51-4.41-.87-8.88-.44-13.3 1.41-7.85 6.12-14.73 7.15-22.68-.74-1.44-1.44-2.89-2.11-4.36-7.43 1.66-13.7 5.95-20.14 9.75.08 4.98-.34 9.97-1.71 14.77 1.93.85 3.85 1.75 5.77 2.64-.14.85-.27 1.7-.41 2.55-1.87-1.31-3.85-2.47-5.83-3.62-1.53 3.72-4.04 6.9-7.16 9.42-2.23.12-4.44.4-6.62.84-1.41-.99-3.14-1.15-4.76-1.52-2.11-2.17-3.72-4.77-5.82-6.93-3.67-2.03-8.07-3.52-12.27-2.77-4.72 2.17-9.8 6.23-9.65 11.95-.21 3.74-.44 7.97 2.16 11.01 3.54 1.04 6.85 2.72 10.46 3.54 8.13 3.17 15.55 9.5 24.83 8.34-1.88-1.96-5.13-3.59-4.64-6.79.31-3.49.37-7.43 2.84-10.19 4.51-4.61 10.24-7.6 16.1-10.09.55-.12 1.66-.37 2.21-.5.41-.44 1.23-1.33 1.64-1.77 2.18 1.69 4.31 3.45 6.41 5.26-2.13-.57-4.08-1.98-6.32-2.09-2.78.89-5.41 2.19-8.13 3.23-4.95 1.87-8.46 6.06-11.58 10.15-.24 2.47-1.01 4.94-.69 7.44 1.99 2.37 4.91 3.76 7.2 5.83 4.73 4.83 8.67 10.8 14.9 13.85 4.59 2.45 7.94 6.55 12.13 9.56 3.93.08 7.94-.1 11.42-2.16 4.36-.26 8.55-1.54 12.81-2.41.94.73 1.89 1.46 2.84 2.2-1.33-2.46-.96-5.03.44-7.38.94 1.96 1.56 4.07 2.62 5.98 1.15 1.13 2.82 1.51 4.19 2.31-1.78.2-3.57.34-5.36.43 2.5 3.51 5.51 6.56 9.28 8.68 2.23-.11 4.63.49 6.73-.42 2.33-1.56 4.46-3.56 5.88-5.99 1.05-6.98-.24-14.35-4.65-20.01-2.17-3.91-6.45-6.42-10.98-5.61-2.45 3.62-4.28 7.67-7.3 10.89.68-5.39 4.22-9.61 8.09-13.13-.11.45-.33 1.36-.44 1.82l1.92.24c-.1-1.52-.18-3.04-.25-4.56.56.96 1.1 1.93 1.64 2.9 2.83.71 5.45 2.03 7.93 3.54 2.38 4.58 6.16 8.59 7 13.85 0 5.62-.66 11.83-4.9 15.97.27.09.82.25 1.09.33-1.24.36-2.48.72-3.71 1.09-.22 1.24-.43 2.48-.63 3.72-4.01 3.06-8.72 4.98-13.16 7.3-4.83 2.52-10.24 3.54-15.32 5.42-3.89-1.98-8.05-3.3-12.16-4.74-.06 9.22 1.08 18.45.31 27.64-.43-.64-1.28-1.92-1.71-2.57-1.11-8.6-.33-17.32-1.13-25.95.06-1.23-.93-2-1.79-2.68-9.27-6.62-19.71-11.34-29.16-17.7-6-2.77-11.08-6.98-16.5-10.67-6.41-3.71-12.17-8.43-18.71-11.92 1.12 8.11-.06 16.3.4 24.45 2.43-2 4.07-4.68 5.32-7.53-1.13-1.79-2.29-3.57-3.5-5.31.71-1.55 1.43-3.08 2.21-4.59 1.43 3.29 2.38 6.76 4.06 9.95.46 4.84-4.67 7.51-7.89 10.19-.62 5.7-.17 11.48 0 17.2 5.29-1.33 10.38-3.27 15.35-5.48 1.66-1 3.56-.57 5.37-.39 1.43 1.28 3.01 2.37 4.59 3.46-1.13 2.39-2.05 5-.73 7.57-1.75 1.01-3.47 2.06-5.21 3.08 9.48 3.26 18.89 6.72 28.45 9.69 5.92.99 11.5 3.25 16.54 6.48-4.09-1.12-7.93-3.04-12.1-3.88-10.83-1.88-20.8-6.7-31.33-9.61-5.62-1.41-11.17-3.34-16.11-6.42 4.27.15 8.13 2.15 12.21 3.17 1.67-1.04 3.33-2.1 4.95-3.21-.21-2.09-.38-4.19-.54-6.28-1.35-.58-2.69-1.16-4.04-1.75-6.18 1.8-12.21 4.35-18.72 4.7-2.01-13.12-1.26-26.48-.71-39.68.04-2.26.44-4.48.88-6.68-3.44-1.64-6.84-3.34-10.13-5.26-.39 6.32.06 12.63.2 18.95-.43 11.96-.74 23.94-.15 35.9-6.98 3.4-14.82 4.4-21.98 7.32.34 2.99.7 5.98 1.23 8.94 2.26.67 4.61 2.44 7.02 1.43 6.28-2.87 12.29-6.52 19.05-8.2 1.86-.06 3.72.22 5.57.44-5.67 2.95-12.32 3.41-17.87 6.7-3.98 1.96-9.05 5.62-13.15 1.93-4.72-1.99-3.34-7.67-4.05-11.74 7-3.14 14.32-5.51 21.32-8.65.06-7.09 1.53-14.13.92-21.22-.07-6.32.85-12.69-.18-18.97-.93-4.74-.11-9.55.04-14.32-2.31-1.66-4.42-3.58-6.61-5.39-.68 4.26-.83 8.57-1.14 12.87-.73 6.87 4 13.4 1.83 20.28-3.36 1-6.93 2.19-10.45 1.19-5.72-1.67-10.83-4.81-16.03-7.64-3.58-1.79-4.09-8.15-.01-9.72 3.84-1.68 8.32-1.29 12.09-3.36 1.69-5.24-.4-10.51-1.07-15.72-.81-4.66-.24-9.4-.28-14.09-.04-3.77 1.14-7.55-.09-11.25 1.08-3.32 2.61-7.8 6.65-8.24 2.89-.38 5.76.47 8.65.66 4.49.49 9.61.86 12.81 4.49.49.05 1.47.14 1.96.19.29-3.38-.67-7.1.84-10.24 3.85-5.58 11.72-4.69 16.98-1.79.84-6.54 2.83-13.8 8.72-17.58 3.17-1.44 7.02-2.49 10.26-.62 5.64 3.47 8.13 10.05 9.39 16.25 4.43-2.86 8.92-5.62 13.56-8.14 3.09-1.48 4-4.98 5.46-7.78m-38.95 2.55c-6.3 5.49-6.8 14.17-7.77 21.88 3.47-1.3 7-2.46 10.65-3.17.61 1.9 1.69 3.83.97 5.86-3.46 1.9-7.4 2.75-11.22 3.62 2.07 4.67 3.33 9.93 7.04 13.66 2.01 2.46 5.2 2.74 8.1 2.01 1.52-4.67 4.2-8.95 4.76-13.92.8-7.26.55-14.88-2.44-21.67-1.29-3.38-4.14-5.84-5.53-9.16 5.29 1.74 7.09 7.64 8.56 12.43 2.58 10.48 2.21 22.36-3.7 31.7 4.97-.87 7.08-5.99 8.28-10.29 2.09-8.31 1.75-17.32-1.29-25.35-1.56-4.49-5.36-7.92-9.66-9.77-2.28.61-4.47 1.53-6.75 2.17m25.66 12.27c-2.27 1.54-5.63 2.47-5.64 5.78 6.8-3.93 13.65-7.78 20.45-11.7l-1.56-1.41c-4.86 1.54-8.85 4.86-13.25 7.33m-48.33 4.67c-1.2 3.68-1.09 7.65-1.92 11.43.76.65 2.27 1.95 3.03 2.6.36-1.79-.47-6.08 2.62-5.55 2.26 1.1-.49 3.03-1.26 4.17.37-.4 1.11-1.19 1.48-1.59 1.15.3 2.3.61 3.45.91 6.15-2.68 12.84-3.81 18.96-6.54-.63-.22-1.88-.64-2.5-.86-5.92 1.2-11.59 3.41-17.42 4.94-.28-.68-.39-1.39-.33-2.11 2.59-.93 5.27-1.57 7.95-2.21-.02-1.93-.02-3.85 0-5.77-4.65-.17-10.08-3.29-14.06.58m-26.24 6.7c-2.38.42-3.31 3.04-4.88 4.6-.43 9.73-1.93 19.54-.17 29.23l1-1.96c.04-4.87.47-9.72 1.47-14.5l1.98.04c-.57 4.47-1.68 8.95-1.05 13.48.22 4.82 1.96 9.4 2.32 14.21-2.03-3.27-3.18-6.96-3.83-10.73-.52-.02-1.05-.03-1.58-.02.81 4.66 1.42 9.37 1.47 14.11-5.21 2.96-11.2 3.55-16.91 4.98 1.21 4.37 4.89 7.15 9.04 8.49 5.62 1.98 11.74 6.55 17.73 3.19.86-6.15-1.1-12.13-1.74-18.19-.79-4.57.39-9.13.41-13.71-1.6-1-3.28-1.92-4.71-3.17-.31-2.02-.29-4.17.3-6.14 1.41-2.22 4.3-2.63 6.42-3.93 3.59 3.05 7.6 5.55 11.4 8.33.16-3.31-.04-6.89 1.89-9.77 2.15-4 6.27-6.24 10.26-8.04l-2.25-1.83c-6.1-1.42-11.01-5.64-16.77-7.89-3.73-1.52-7.9-1.44-11.8-.78m29.44 8.51c1.95 2.23 4.88 1.57 7.44 1.9 2.26.01 4.18 1.27 6.08 2.33-.94-2.52-1.66-5.14-2.86-7.55-3.45 1.44-7.11 2.2-10.66 3.32M40.32 98.25c2.17 2.68 5.78 3.79 8.4 6.03 8.84 7.18 19.36 11.85 28.57 18.49 4.33 2.68 8.97 4.85 13.08 7.9 10.22 7.15 22.27 11.23 32.18 18.86 7.74 3.44 13.19 10.83 21.55 13.06 4.9.3 9.77-1.35 14.18-3.37 4.82-2.83 10.39-4.52 14.46-8.5-7 .69-15.17-2.77-16.77-10.24-5.1-1.64-10.25.84-15.42-.08-3.86 3.08-9.17 3.42-13.67 1.67-3.84-1.89-6.59-5.4-10.45-7.26-2.64-1.34-5.44-2.68-7.18-5.19-2.53-3.66-6.53-6.15-8.19-10.41-3.02.41-6.09 1.27-9.14.63-4.19-.44-6.87-4.42-11.02-5.01-4.51-.96-8.36-3.71-12.8-4.87-3.92-1.14-8.21-2.18-10.55-5.86.01-.56.05-1.67.07-2.23-5.16-2.03-7.86-7.26-12.45-9.98-2.34 1.48-5.97 2.9-4.85 6.36z"/><path d="M159.87 66.1c1.33-5.66.99-11.51 2.03-17.2 1.29 4.6 1.89 9.41.95 14.13a31.113 31.113 0 001.05 16.78c3.69-2.52-1.21-6.5.64-9.91 1.88 3.68 4.54 6.9 6.22 10.68-1.3-.79-2.57-1.6-3.84-2.43-1.98 2.97-4.09 6.15-4.38 9.8.31 4.93 1.08 9.84 2.64 14.54-2.67-2.15-5.66-3.86-9.15-4.06-5.95.39-10.84 4.54-16.67 5.23 2.59-1.87 5.46-3.31 8.24-4.87-2.65-1.65-5.64-2.6-8.42-3.97-1.87-2.53 2.6-1.19 3.87-1.09 2.82.74 5.33 2.27 7.85 3.7 3.13-.97 6.39-1.22 9.63-.61-.22-3.28-1.15-6.66-.14-9.91.57-2.53 2.28-5.14.99-7.75-1.57-4.14-2.64-8.66-1.51-13.06zM173.25 51.31c2.86 7.52 5.18 15.57 3.83 23.69-.94 4.36.22 8.74 1.55 12.89 1.68 4.8-.29 10.08 1.63 14.82 1.11 3.29 2.82 6.8 1.7 10.33-.44 2.15-2.19 3.58-3.62 5.1 1.08-6.29 1.69-13.02-1.84-18.72 2-5.49-.14-11.01-.17-16.57-.83-1.19-1.66-2.37-2.48-3.57 2.26-4.8 1.09-10.05.54-15.08-.84-4.25-.87-8.59-1.14-12.89zM34.91 76.48c1.9-1.42 4.3-1.86 6.46-2.74.12.6.37 1.8.49 2.4-2.25.82-4.65 1.33-6.95.34zM37.64 85.37a6.962 6.962 0 017.21-1.4c.79 1.55 1.29 3.23 1.87 4.87-1.13-1.03-2.25-2.07-3.39-3.09-1.9-.06-3.8-.16-5.69-.38zM74.18 97.36c.78-3.72 2.65-7.43 6.35-8.99-1.52 3.28-3.01 7.16-6.35 8.99zM87.53 92.68c1.94.97 2.73 2.78 3.18 4.8a6.49 6.49 0 013.86.52c-3.21 1.27-6.55 2.24-9.63 3.81-1.26.78-2.75.66-4.16.65a25.4 25.4 0 017.54-4.45c-.36-.73-.72-1.47-1.08-2.2.07-.78.22-2.35.29-3.13zM100.4 101.69c1.96.71 4.07 1.39 5.26 3.27-2.26-.21-5.27-.17-5.26-3.27zM166.29 102.12c1.75.23 1.44 3.4-.18 3.62-1.83-.28-1.53-3.38.18-3.62zM146.42 123.8c-.38-4.08 3.74-5.71 6.89-6.75.65.5 1.31.99 1.97 1.49l.72-1.63c-.01.6-.02 1.8-.03 2.4-.69-.23-2.07-.68-2.77-.91-1.1.9-2.29 1.69-3.29 2.71-1.74 2.8-1.71 6.72-4.74 8.61.17-1.87.39-3.73.68-5.58-.52-.05-1.55-.17-2.07-.23.66-.02 1.98-.08 2.64-.11zM40.32 119.36c.54.27 1.08.56 1.61.87.03 2.78-.17 5.55-.33 8.33-.31-.09-.94-.27-1.25-.35a43.3 43.3 0 00-1.5-3.06c-1.91-1.36-3.17 1.82-4.79 2.47l-2.9-2.18c2.66-.62 5.36-1.19 7.84-2.39.71-1.09 1.15-2.32 1.32-3.69zM49.57 143.06c.81-1.43 3.51-.35 2.09 1.14-.79 1.38-3.47.31-2.09-1.14zM130.12 144.56c8.74 1.82 16.2 8.8 25.62 7.2-.13.42-.41 1.28-.54 1.7-6.33 2.19-12.35-1.35-18.06-3.65-2.73-1.14-5.21-2.9-7.02-5.25zM145.42 166.17l1.14-.09c.3 10.27-1.23 20.62.89 30.79-1.78.58-3.62.91-5.46 1.14a69.08 69.08 0 012.77-3.38c-1.74-9.44-.31-19.02.66-28.46zM65.5 174.85c5.89.32 11.18 3.1 16.7 4.87 5.34 2.73 11.45 3.11 17.02 5.24 6.64 1.75 12.8 4.88 19.57 6.2 7.37 2.67 14.82 5.15 22.29 7.58-.88.35-1.76.71-2.63 1.07-5-2.64-10.82-3.02-15.94-5.37-4.98-2.46-10.67-2.8-15.66-5.22-5.56-1.98-11.21-3.73-16.96-5.04-4.98-.84-9.46-3.32-13.95-5.52-3.67-.56-7.46-1.47-10.44-3.81z"/></g></svg>