<svg width="368" height="300" viewBox="0 0 276 225" xmlns="http://www.w3.org/2000/svg"><g fill="#FFF"><path d="M0 0h276v225H0V0m61.32 64.08c-.91 3.15-.36 6.51-.54 9.76-.5-.05-1.49-.14-1.98-.18-4.78-5.15-12.53-4.01-18.84-5.23-4.99-1.05-8.89 4.01-8.85 8.57.24 1.49-.57 4.12 1.65 4.22 1.49-1.7-.78-5.36 1.22-7.23 1.03-1.13 2.17-2.16 3.27-3.23 1.02.06 2.05.12 3.07.17 3.65-2.4 8.21-.88 11.79.86 5.64 3.08 11.31 6.13 17.1 8.91-4.17 1.54-8.28 3.94-10.49 7.95-1.96 2.89-1.76 6.51-1.86 9.85-2.54-1.8-4.96-3.75-7.44-5.63.56-.39 1.11-.76 1.67-1.14.85.35 2.54 1.04 3.38 1.38-1.12-3.06-4.65-3.71-6.74-5.88-1.77-1.42-3.05-4.08-5.69-3.69-1.66-.22-3.01.81-4.23 1.76 1.76.24 3.54.34 5.3.61 1.94 1.22 3.51 2.95 5.37 4.28-.5.35-1.01.69-1.52 1.03-1.84-1.93-3.99.35-5.85.92-3.17 1.27-2.7 5.32-2.4 8.06 1.42 1.23 3.1 2.1 4.7 3.08-.23 5.17-.89 10.32-.69 15.51.46.18 1.4.54 1.86.71.41-5.11.49-10.26 1.25-15.35 2.24 1.81 4.37 3.74 6.69 5.45-.16 4.75-1.03 9.56-.07 14.28 1.03 6.29.1 12.66.18 18.98.64 7.09-.87 14.13-.91 21.22-7.02 3.11-14.32 5.52-21.34 8.63.26 3.04.45 6.09.99 9.1 1.7 2.01 4.08 3.44 6.51 4.39 5.17-.4 9.24-4.02 14.01-5.66 4.46-1.9 9.38-2.46 13.73-4.67-1.9-.26-3.82-.53-5.75-.49-6.75 1.7-12.77 5.36-19.06 8.21-2.41 1-4.76-.76-7.01-1.44-.52-2.97-.9-5.96-1.24-8.94 7.16-2.96 15.04-3.88 22-7.35-.62-11.96-.27-23.95.13-35.92-.14-6.3-.58-12.61-.17-18.92 3.26 1.94 6.65 3.65 10.11 5.2-.46 2.25-.86 4.53-.87 6.85-.5 13.17-1.32 26.49.74 39.56 5.96-.28 11.49-2.51 17.13-4.21 1.98-.8 3.81.65 5.64 1.21.13 2.12.3 4.24.5 6.35-1.61 1.13-3.26 2.19-4.92 3.23-4.07-.95-7.9-3.07-12.15-3.08 9.27 5.63 20.29 6.8 30.16 11.03 8.58 3.49 17.87 4.49 26.5 7.78-4.99-4.75-12.28-4.38-18.32-6.84-7.92-2.96-16.02-5.39-23.93-8.37 1.74-.98 3.47-2 5.23-2.96-1.17-2.6-.52-5.22.74-7.62-1.59-1.09-3.15-2.21-4.59-3.49-1.76-.15-3.63-.62-5.25.36-5 2.25-10.14 4.18-15.46 5.52-.16-5.74-.64-11.55.01-17.27 3.27-2.63 8.23-5.27 7.94-10.12-2.04-3.04-2.26-6.83-4.29-9.82a147.8 147.8 0 00-1.97 4.47c1.14 1.68 2.41 3.31 3.19 5.2-.6 3.12-2.76 5.59-5.13 7.58-.34-8.15.7-16.33-.34-24.44 8.51 4.85 16.27 10.88 24.77 15.75-.36 3.52-.64 7.06-.53 10.61-3.81 1.64-7.73 3-11.68 4.26-1.6 1.84-1.68 4.79.08 6.57 3.95-.87 7.69-2.5 11.43-4.01 2.36 5.47 3.59 11.99 8.91 15.54 3.34 2.61 7.44.34 11.12.16 5.2-3.88 7.63-10.06 8.97-16.19 3.91 3.66 9.36 5.26 12.95 9.26 1.07 8.95.09 18.02 1.28 26.96.43.63 1.3 1.9 1.73 2.54.68-9.22-.37-18.48-.36-27.71 3.83 1.63 7.95 2.56 11.6 4.61-.85 9.86-2.49 19.82-.65 29.67-2.25.77-4.37 2.51-6.81 2.38-8.82-2.13-17-6.27-25.9-8.11-8.07-3.2-16.4-5.8-24.89-7.68-6.69-2.67-13.45-5.28-20.43-7.12-.12.36-.37 1.09-.49 1.45 3.19.95 6.34 2.13 9.65 2.55 3.39 1.75 6.84 3.42 10.43 4.7 8.15 1.87 16.27 4.04 23.99 7.29 4.03 1.21 8.24 1.91 12.05 3.76 5.09 2.43 10.96 2.67 15.93 5.37 2.96-1.24 6.1-1.96 9.11-3.06-2.24-10.29-.46-20.81-.95-31.23 9.94-2.57 19.57-6.63 28.04-12.47.17-1.22.34-2.43.53-3.64 1.28-.39 2.56-.77 3.85-1.14-.3-.08-.91-.25-1.22-.34 3.08-3.19 5.28-7.36 4.98-11.91.44-4.84-3.13-9.04-2.26-13.89.45-2.98.55-6.03-.68-8.86 2.9-1.56 3.4-4.58 3.14-7.61-.92 1.75-.74 4.42-2.82 5.32-3.06 1.69-6.28 3.23-9.75 3.88.58-2.29 3.18-5.77.46-7.58-2.58-2.24-5.26 1.33-7.62 2.3 1.58-2.45 2.74-5.13 3.92-7.79-2.43-4.8-4.67-9.7-7.49-14.29-1.13-2-2.8-3.99-2.47-6.45.39-2.74 1.74-5.23 2.42-7.9.62-1.67.59-3.93 2.4-4.85 1.81-.08 4.3-.71 5.29 1.33 1.44 2.24 3.21 4.25 4.61 6.5 2.38 6.5-.89 13.56 1.19 20.06-.61.81-1.23 1.61-1.79 2.46 2.33.29 4.63-.31 6.9-.81 1.11.43 2.23.84 3.36 1.24-.83-1.8-2.17-3.25-3.68-4.5-1.32-4.46-3.88-8.7-3.54-13.49-.13-2.36.49-5.11-1.18-7.09-2.04-2.59-4.16-5.16-6.55-7.44-3.1-.32-6.97.32-8.19 3.65-1.26 3.72-3.46 7.64-2.22 11.66.39 3.58 1.94 6.85 3.34 10.13-.32 4.72 3.04 8.54 3.48 13.15-1.47 2.54-2.99 5.04-4.49 7.55 3.88-.77 7.61-2.18 11-4.22.16.96.33 1.93.49 2.9-3.71 1.74-7.31 3.73-11.04 5.42-.89 1.73-1.06 4.17-3.03 5.07-4.32 2.24-8.75 6.31-13.92 3.81.7.95 1.41 1.89 2.13 2.84-.07.71-.2 2.13-.27 2.85 1.88.08 2.48-.9 1.79-2.93 3.23.22 5.99-1.47 8.57-3.19.74 1.73 1.89 3.21 3.28 4.47-1.06 1.7-2 3.47-2.89 5.26.55 1.16 1.09 2.33 1.63 3.5-2.87-1.98-5.25-5.96-9.29-4.58 1.21.93 2.46 1.82 3.73 2.69-3.57 1.18-7.22 2.1-11 2.11 4.59 4.54 11.09-.7 16.45 1.93 1.5 7.45 9.62 11.05 16.62 10.09-4.16 4.27-10.11 5.89-15.1 8.94-4.56 1.77-9.58 3.75-14.53 2.79-4.79-1.98-9.23-4.87-13.11-8.31-3.46-2.87-7.76-4.43-11.45-6.97.14-2.59.23-5.18.3-7.76 5.66-3.58 11.24-7.29 16.8-11.01-.11.62-.32 1.85-.43 2.46 2.46.45 4.47 1.91 6.48 3.29-1.53-1.94-3.11-3.82-4.63-5.75 1.23-.69 2.49-1.35 3.67-2.14-.52-2.53-1.57-5.03-4.15-6-.43-1.9-.89-3.79-1.4-5.66-.67 2.97-1.08 6.02-2.19 8.88-.83-2.85-1.54-5.75-2.25-8.63-1.12 2.95.04 5.87 1.28 8.57-4.85 2.87-9.43 6.17-14.03 9.42-1.18-6.23-3.98-12.72-9.83-15.85-2.37-.76-4.91.11-7.29-.45-1.13-.61-2.18-1.36-3.26-2.05-1.03-.96-2.14-1.85-3-2.97-.29-2.46.48-4.89.72-7.32 4.88-7.69 13.59-13.34 22.98-11.7-.26 1.49-.52 2.97-.76 4.46-3.46-.6-7.79-3.45-10.88-.78 3.36.97 6.82 1.58 10.25 2.24 0 1.8-.03 3.59-.04 5.39-.52.05-1.57.16-2.09.22l1.85.36c-.1 4.75 0 9.51-.17 14.26l1.99.48c.27-6-.84-12.03.25-17.98.52-5.61 2.68-10.78 4.09-16.17 1.62-1.61 2.85-4.27 5.26-4.63 4.87 1.72 9.62 5.44 10.87 10.67 1.83 5.94 3.89 11.87 6.96 17.31 1.16 1.51.33 3.45.41 5.16 1.54-1.08 3.04-2.24 4.74-3.07 2.79-.99 4.87 1.98 7.6 1.91.86-3.22-3.86-4.36-6.03-2.89-2.35-.81-4.8-1.84-5.85-4.29-4.42-5.92-3.54-14.04-7.92-19.97-1.68-2.71-4.89-3.68-7.3-5.56-1.39-1.16-3.06-1.85-4.77-2.35-2.43 2.6-3.22 6.18-5.42 8.94-1.02 1.4-1.79 2.97-2.56 4.52-2.06-2.02-4.71-3.18-7.29-4.38.17 1.92-.08 4.22-2.35 4.67-5.24 1.47-9.53 4.92-13.62 8.37-2.89 2.75-3.05 6.98-3.33 10.69-.58 3.27 2.72 4.89 4.7 6.79-9.09 1.28-16.47-4.77-24.36-8.09-3.68-.9-7.19-2.31-10.63-3.88-.72-3.3-2.31-6.48-2.11-9.92.56-6.58 5.91-14.37 13.3-12.98 4.79.32 8.34 4.21 13.08 4.68 2.5.03 4.8-1.07 7-2.12-3.01-1.45-6.29.17-9.45-.15l-.42-3.27c1.17-1.52 2.35-3.04 3.51-4.57 2.47-.04 4.93-.04 7.4.01 2.53 2.56 6.03 3.55 9.3 4.76-3.29-5.24-8.94-8.2-13.31-12.4-6.13-4.12-12.26-9.56-20.15-9.3-3.59-.57-6.76 1.71-8.72 4.5M34.75 76.04c2.24 1.42 4.79 1.1 7.11.03-.13-.58-.39-1.76-.51-2.35-2.16.89-4.39 1.57-6.6 2.32m173.69 5.42c-3.35 6.13-4.54 13.28-4.17 20.22-6.54-.08-13.06-.7-19.59-.92-.11.49-.33 1.47-.43 1.96 5.6.46 11.22.7 16.84.96 5.01.48 8.93-3.87 13.87-3.82l.54 1.29c-3.63 2.27-7.69 3.84-11.78 5.03-6.12-.08-12.24-1.07-18.38-.52l-.08 2.02c6.57-.45 13.1.63 19.67.67 1.02 6.12 3.33 12.69 8.85 16.15 3.32 1.75 6.99-.35 10.45-.45 8.74-7.9 9.99-20.52 8.8-31.57 3.93-1.53 7.69-3.66 11.88-4.41 1.22.15 1.28 2.68-.1 2.65-3.73 1.59-7.58 2.87-11.39 4.24.58.49 1.15.98 1.74 1.46 4.07-1.97 8.39-3.34 12.53-5.13-.24-1.85-.49-3.81-1.84-5.23-4.59.84-8.78 3.09-13.15 4.68-1.65-5.93-3.59-13.16-9.85-15.75-5.42-1.5-11.79 1.51-14.41 6.47M44.57 79.32c3.04 1.94 6.62 2.71 10 3.83-1.51-3.93-6.39-4.42-10-3.83m66 7.86c-.09-.42-.26-1.26-.34-1.68.66-.07 1.99-.23 2.65-.3-2.74-1.94-5.7-3.57-8.79-4.87 0 3.93 5.48 3.35 6.48 6.85m-79.71-4.23c-.12 3.73.02 7.46-.16 11.19-.37 6.77 1.39 13.4 2.69 19.99-.83 1.5-1.1 3.63-2.93 4.28-3.36 2.02-7.73.84-10.94 3.12-3.61 1.78-2.69 7.79.65 9.37 5.18 2.8 10.26 5.93 15.95 7.59 3.5.97 7.05-.18 10.39-1.18 1.86-5.73-1.23-11.32-1.56-17.02-.46.69-.91 1.39-1.35 2.09 1.35 4.24 1.41 8.68 1.23 13.08-6.8 2.99-13.2-1.91-19.43-4.08-3.63-1.29-6.37-4.12-7.43-7.85 5.59-1.54 11.68-1.75 16.67-5 .56-4.35-.68-8.65-.97-12.97.35-.86.75-1.7 1.2-2.52.46 4.25 1.65 8.41 3.84 12.11-.19-4.82-2.1-9.38-2.24-14.2-.6-4.52.5-8.98 1.05-13.44-.48 0-1.45-.01-1.93-.01-.82 4.67-1.91 9.4-1.06 14.16-.49.72-.99 1.43-1.49 2.14-1.78-6.78.35-13.86-1.18-20.59-.25-.07-.75-.19-1-.26M74.2 97.27c3.38-1.61 4.74-5.65 6.24-8.83-3.63 1.54-5.42 5.19-6.24 8.83m16.39-4.94c-.11-.81-.32-2.43-.42-3.23-2.36 1.62-2.46 4.7-3.13 7.21.19.23.59.7.78.94-.9 2.65-5.84 2.35-6.15 5.87 4.22-1.82 8.42-3.64 12.8-5.06-1.53-.51-3.09-.92-4.63-1.37 1.44-4.45 6.56-5.64 10.56-6.78-3.39-1.6-7.41-.33-9.81 2.42m33.23-.38c-.1 4.02-.89 9.54 3.27 11.91 3.73 2.3 7.85 5.1 8.49 9.83.49.12 1.47.37 1.95.49-.14 2.1-.17 4.26 1.05 6.07 1.07-2.12 2.75-3.78 4.61-5.22.05-.49.16-1.48.22-1.97-1.36.77-2.7 1.58-4.02 2.42-1.74-6.81-9.19-9.59-12.27-15.55-1.12-2.66-1.94-5.44-3.3-7.98m18.87 2.09c1.05 1.99 2.72 3.49 4.57 4.71-.79.81-1.58 1.63-2.36 2.45 5.48-1.91 10.71.86 15.7 2.8-1.53-3.01-4.74-3.99-7.8-4.64-2.01-3.62-6.49-4.3-10.11-5.32m-32.96 8.93c1.21-1.31 4.32-1.8 4.11-3.84-2.54-1.88-4.14 1.71-4.11 3.84m-9.23-1.2c-.15 3.02 2.83 2.91 4.97 3.22-.93-2.02-3.08-2.54-4.97-3.22m-60.67 18.07c.37 3.01-1.2 6.96 1.53 9.19.42-3.09.48-6.22.79-9.32-.77.04-1.54.08-2.32.13m-8.73 5.58c.98.72 1.95 1.44 2.93 2.16 1.46-1.02 2.9-2.07 4.31-3.16-2.45-.03-4.88.32-7.24 1m91.91 13.91c1.77 1.4 3.56 3.08 5.93 3.3 3.81.68 8.73 1.06 11.06-2.75-3.57.59-7.12 1.33-10.72 1.67-1.79-1.49-3.95-2.24-6.27-2.22m-73.82 4.47c0 1.76 2.74 1 2.85-.36.04-1.82-2.74-.98-2.85.36m81.04.76c3.32 4.7 9.22 6.02 14.2 8.22 3.72 1.55 8.81 2.62 11.78-.92-3.56-.03-7.24.22-10.61-1.15-5.17-1.93-9.9-5.01-15.37-6.15z"/><path d="M64.14 63.27c2.7-1.69 6-2.47 9.08-1.39 7.39 2.31 14.21 6.53 19.6 12.09-3.33.98-7.49 1.1-9.71 4.15-1.01 1.18-1.96 2.4-2.9 3.62-3.4-1.17-6.98-1.49-10.56-1.44-.96-1.36-1.95-2.7-2.95-4.02 2.92.63 5.89 1.3 8.91.97-2.96-1.42-6.13-2.34-9.36-2.91.15.76.44 2.28.59 3.04-1.48-.76-2.97-1.5-4.47-2.23 1.02-3.91.41-8.06 1.77-11.88m.03 3.86c-1.07 1.56.95 2.82 1.98 3.75 4.5 1.2 9.29.41 13.87 1.28-2.84-3.58-7.51-1.93-11.42-2.67-1.71-.31-2.68-2.29-4.43-2.36zM210.74 80.82c1.98-2.92 5.79-3.15 8.69-4.71 7.38 1.6 10.5 9.22 11.66 15.9 1.05 7.1.9 14.57-1.63 21.36-1.51 3.71-3.78 7.79-8.13 8.54.34-.58 1.01-1.75 1.35-2.34 3.56-3.88 4.1-9.51 4.64-14.53.58-8.51-.36-17.65-5.46-24.77-.98-1.55-2.75-2.19-4.37-2.82 1.59 3.57 4.73 6.22 5.95 9.99 4.03 10.98 2.98 23.81-3.07 33.86-1.19 2.22-4.4 1.67-6.27.69-4.85-3.04-6.57-8.86-7.99-14.05 3.01-1.89 6.45-2.85 9.6-4.44 1.76-1.81.79-4.25.03-6.27-3.61 1.13-7.13 2.54-10.63 3.97.78-6.98 1.21-14.56 5.63-20.38zM40.28 98.92c-.97-3.63 2.04-5.56 4.83-7.01 4.66 2.59 7.31 7.98 12.53 9.93-.02.54-.08 1.61-.1 2.15 2.53 4.13 7.5 4.94 11.58 6.78 4.97 1.69 9.88 3.55 14.9 5.03 3.14 2.54 6.46 5.55 10.87 4.73 1.31-1.03 2.65-2.03 4.05-2.95-4.28 4.09-7.91 9.07-8.58 15.14-1.79-5.42-8.27-6.44-12.44-9.52-8.82-6.42-18.84-10.96-27.5-17.59-3.14-2.58-6.65-4.64-10.14-6.69zM160.74 118.3c2.12-1 4.18-2.11 6.38-2.93 2.4 2.13 4.26 4.87 7.03 6.58.94.64 2.01 1.23 2.47 2.34 1.75 3.8 5.23 7.17 4.26 11.72.06 5.3-3.12 10.08-7.85 12.34-1.98.23-3.97.09-5.95.06-3.86-2.14-6.91-5.25-9.38-8.87 1.47.05 2.95.08 4.43.1-2.76-1.68-4.61-4.26-4.82-7.55.57-1.25 1.13-2.49 1.67-3.75-1.01-1.23-2.02-2.47-3.02-3.7 1.37-1.18 2.72-2.38 4.09-3.55.04.46.13 1.38.17 1.83.15-1.54.32-3.08.52-4.62zM171.43 116.84c2.11-.92 4.19-1.91 6.27-2.92.47 2.62.53 5.28.28 7.92-2.12-1.75-4.35-3.37-6.55-5zM102.21 118.94c4.17-1.98 8.3 2.05 10.65 5.17 4.45 7.71 4.98 17.2 3.47 25.82-1.06 5.83-3.61 12.46-9.81 14.44 6.1-8.02 6.89-18.74 5.6-28.39-1.13-6.54-3.22-14.17-9.91-17.04z"/><path d="M98.45 120.56c3.82-1.13 7.18 3.02 8.89 6.05 5.15 10.82 5.13 24.48-.93 34.94.03.61.09 1.81.11 2.42-2.4.41-5.18 1.65-7.36-.11-4.75-3.24-6.74-9.2-7.67-14.63 3.57-1.16 7.51-2 10.49-4.37 1.12-3.13-1.62-5.47-3.73-7.26l1.68 2.04c-3.24 1.17-6.44 2.48-9.67 3.69 1.02-7.97 1.47-17.25 8.19-22.77zM122.82 131.77c4.84-3.23 9.57-6.61 14.48-9.73l.45 2.88c-6.64 3.93-13.04 8.26-19.49 12.5-.48-3.08 2.55-4.16 4.56-5.65z"/><path d="M80.89 148.68c6.96-1.89 13.34-5.85 20.57-6.62-.8 1.25-1.87 2.31-3.33 2.72-5.68 2.12-11.43 4.1-16.89 6.79-.08-.73-.26-2.17-.35-2.89z"/></g><g fill="#333"><path d="M61.32 64.08c1.96-2.79 5.13-5.07 8.72-4.5 7.89-.26 14.02 5.18 20.15 9.3 4.37 4.2 10.02 7.16 13.31 12.4-3.27-1.21-6.77-2.2-9.3-4.76-2.47-.05-4.93-.05-7.4-.01-1.16 1.53-2.34 3.05-3.51 4.57l.42 3.27c3.16.32 6.44-1.3 9.45.15-2.2 1.05-4.5 2.15-7 2.12-4.74-.47-8.29-4.36-13.08-4.68-7.39-1.39-12.74 6.4-13.3 12.98-.2 3.44 1.39 6.62 2.11 9.92 3.44 1.57 6.95 2.98 10.63 3.88 7.89 3.32 15.27 9.37 24.36 8.09-1.98-1.9-5.28-3.52-4.7-6.79.28-3.71.44-7.94 3.33-10.69 4.09-3.45 8.38-6.9 13.62-8.37 2.27-.45 2.52-2.75 2.35-4.67 2.58 1.2 5.23 2.36 7.29 4.38.77-1.55 1.54-3.12 2.56-4.52 2.2-2.76 2.99-6.34 5.42-8.94 1.71.5 3.38 1.19 4.77 2.35 2.41 1.88 5.62 2.85 7.3 5.56 4.38 5.93 3.5 14.05 7.92 19.97 1.05 2.45 3.5 3.48 5.85 4.29 2.17-1.47 6.89-.33 6.03 2.89-2.73.07-4.81-2.9-7.6-1.91-1.7.83-3.2 1.99-4.74 3.07-.08-1.71.75-3.65-.41-5.16-3.07-5.44-5.13-11.37-6.96-17.31-1.25-5.23-6-8.95-10.87-10.67-2.41.36-3.64 3.02-5.26 4.63-1.41 5.39-3.57 10.56-4.09 16.17-1.09 5.95.02 11.98-.25 17.98l-1.99-.48c.17-4.75.07-9.51.17-14.26l-1.85-.36c.52-.06 1.57-.17 2.09-.22.01-1.8.04-3.59.04-5.39-3.43-.66-6.89-1.27-10.25-2.24 3.09-2.67 7.42.18 10.88.78.24-1.49.5-2.97.76-4.46-9.39-1.64-18.1 4.01-22.98 11.7-.24 2.43-1.01 4.86-.72 7.32.86 1.12 1.97 2.01 3 2.97 1.08.69 2.13 1.44 3.26 2.05 2.38.56 4.92-.31 7.29.45 5.85 3.13 8.65 9.62 9.83 15.85 4.6-3.25 9.18-6.55 14.03-9.42-1.24-2.7-2.4-5.62-1.28-8.57.71 2.88 1.42 5.78 2.25 8.63 1.11-2.86 1.52-5.91 2.19-8.88.51 1.87.97 3.76 1.4 5.66 2.58.97 3.63 3.47 4.15 6-1.18.79-2.44 1.45-3.67 2.14 1.52 1.93 3.1 3.81 4.63 5.75-2.01-1.38-4.02-2.84-6.48-3.29.11-.61.32-1.84.43-2.46-5.56 3.72-11.14 7.43-16.8 11.01-.07 2.58-.16 5.17-.3 7.76 3.69 2.54 7.99 4.1 11.45 6.97 3.88 3.44 8.32 6.33 13.11 8.31 4.95.96 9.97-1.02 14.53-2.79 4.99-3.05 10.94-4.67 15.1-8.94-7 .96-15.12-2.64-16.62-10.09-5.36-2.63-11.86 2.61-16.45-1.93 3.78-.01 7.43-.93 11-2.11a84.18 84.18 0 01-3.73-2.69c4.04-1.38 6.42 2.6 9.29 4.58-.54-1.17-1.08-2.34-1.63-3.5.89-1.79 1.83-3.56 2.89-5.26-1.39-1.26-2.54-2.74-3.28-4.47-2.58 1.72-5.34 3.41-8.57 3.19.69 2.03.09 3.01-1.79 2.93.07-.72.2-2.14.27-2.85-.72-.95-1.43-1.89-2.13-2.84 5.17 2.5 9.6-1.57 13.92-3.81 1.97-.9 2.14-3.34 3.03-5.07 3.73-1.69 7.33-3.68 11.04-5.42-.16-.97-.33-1.94-.49-2.9-3.39 2.04-7.12 3.45-11 4.22 1.5-2.51 3.02-5.01 4.49-7.55-.44-4.61-3.8-8.43-3.48-13.15-1.4-3.28-2.95-6.55-3.34-10.13-1.24-4.02.96-7.94 2.22-11.66 1.22-3.33 5.09-3.97 8.19-3.65 2.39 2.28 4.51 4.85 6.55 7.44 1.67 1.98 1.05 4.73 1.18 7.09-.34 4.79 2.22 9.03 3.54 13.49 1.51 1.25 2.85 2.7 3.68 4.5-1.13-.4-2.25-.81-3.36-1.24-2.27.5-4.57 1.1-6.9.81.56-.85 1.18-1.65 1.79-2.46-2.08-6.5 1.19-13.56-1.19-20.06-1.4-2.25-3.17-4.26-4.61-6.5-.99-2.04-3.48-1.41-5.29-1.33-1.81.92-1.78 3.18-2.4 4.85-.68 2.67-2.03 5.16-2.42 7.9-.33 2.46 1.34 4.45 2.47 6.45 2.82 4.59 5.06 9.49 7.49 14.29-1.18 2.66-2.34 5.34-3.92 7.79 2.36-.97 5.04-4.54 7.62-2.3 2.72 1.81.12 5.29-.46 7.58 3.47-.65 6.69-2.19 9.75-3.88 2.08-.9 1.9-3.57 2.82-5.32.26 3.03-.24 6.05-3.14 7.61 1.23 2.83 1.13 5.88.68 8.86-.87 4.85 2.7 9.05 2.26 13.89.3 4.55-1.9 8.72-4.98 11.91.31.09.92.26 1.22.34-1.29.37-2.57.75-3.85 1.14-.19 1.21-.36 2.42-.53 3.64-8.47 5.84-18.1 9.9-28.04 12.47.49 10.42-1.29 20.94.95 31.23-3.01 1.1-6.15 1.82-9.11 3.06-4.97-2.7-10.84-2.94-15.93-5.37-3.81-1.85-8.02-2.55-12.05-3.76-7.72-3.25-15.84-5.42-23.99-7.29-3.59-1.28-7.04-2.95-10.43-4.7-3.31-.42-6.46-1.6-9.65-2.55.12-.36.37-1.09.49-1.45 6.98 1.84 13.74 4.45 20.43 7.12 8.49 1.88 16.82 4.48 24.89 7.68 8.9 1.84 17.08 5.98 25.9 8.11 2.44.13 4.56-1.61 6.81-2.38-1.84-9.85-.2-19.81.65-29.67-3.65-2.05-7.77-2.98-11.6-4.61-.01 9.23 1.04 18.49.36 27.71-.43-.64-1.3-1.91-1.73-2.54-1.19-8.94-.21-18.01-1.28-26.96-3.59-4-9.04-5.6-12.95-9.26-1.34 6.13-3.77 12.31-8.97 16.19-3.68.18-7.78 2.45-11.12-.16-5.32-3.55-6.55-10.07-8.91-15.54-3.74 1.51-7.48 3.14-11.43 4.01-1.76-1.78-1.68-4.73-.08-6.57 3.95-1.26 7.87-2.62 11.68-4.26-.11-3.55.17-7.09.53-10.61-8.5-4.87-16.26-10.9-24.77-15.75 1.04 8.11 0 16.29.34 24.44 2.37-1.99 4.53-4.46 5.13-7.58-.78-1.89-2.05-3.52-3.19-5.2.63-1.5 1.29-2.99 1.97-4.47 2.03 2.99 2.25 6.78 4.29 9.82.29 4.85-4.67 7.49-7.94 10.12-.65 5.72-.17 11.53-.01 17.27 5.32-1.34 10.46-3.27 15.46-5.52 1.62-.98 3.49-.51 5.25-.36 1.44 1.28 3 2.4 4.59 3.49-1.26 2.4-1.91 5.02-.74 7.62-1.76.96-3.49 1.98-5.23 2.96 7.91 2.98 16.01 5.41 23.93 8.37 6.04 2.46 13.33 2.09 18.32 6.84-8.63-3.29-17.92-4.29-26.5-7.78-9.87-4.23-20.89-5.4-30.16-11.03 4.25.01 8.08 2.13 12.15 3.08 1.66-1.04 3.31-2.1 4.92-3.23-.2-2.11-.37-4.23-.5-6.35-1.83-.56-3.66-2.01-5.64-1.21-5.64 1.7-11.17 3.93-17.13 4.21-2.06-13.07-1.24-26.39-.74-39.56.01-2.32.41-4.6.87-6.85-3.46-1.55-6.85-3.26-10.11-5.2-.41 6.31.03 12.62.17 18.92-.4 11.97-.75 23.96-.13 35.92-6.96 3.47-14.84 4.39-22 7.35.34 2.98.72 5.97 1.24 8.94 2.25.68 4.6 2.44 7.01 1.44 6.29-2.85 12.31-6.51 19.06-8.21 1.93-.04 3.85.23 5.75.49-4.35 2.21-9.27 2.77-13.73 4.67-4.77 1.64-8.84 5.26-14.01 5.66-2.43-.95-4.81-2.38-6.51-4.39-.54-3.01-.73-6.06-.99-9.1 7.02-3.11 14.32-5.52 21.34-8.63.04-7.09 1.55-14.13.91-21.22-.08-6.32.85-12.69-.18-18.98-.96-4.72-.09-9.53.07-14.28-2.32-1.71-4.45-3.64-6.69-5.45-.76 5.09-.84 10.24-1.25 15.35-.46-.17-1.4-.53-1.86-.71-.2-5.19.46-10.34.69-15.51-1.6-.98-3.28-1.85-4.7-3.08-.3-2.74-.77-6.79 2.4-8.06 1.86-.57 4.01-2.85 5.85-.92.51-.34 1.02-.68 1.52-1.03-1.86-1.33-3.43-3.06-5.37-4.28-1.76-.27-3.54-.37-5.3-.61 1.22-.95 2.57-1.98 4.23-1.76 2.64-.39 3.92 2.27 5.69 3.69 2.09 2.17 5.62 2.82 6.74 5.88-.84-.34-2.53-1.03-3.38-1.38-.56.38-1.11.75-1.67 1.14 2.48 1.88 4.9 3.83 7.44 5.63.1-3.34-.1-6.96 1.86-9.85 2.21-4.01 6.32-6.41 10.49-7.95-5.79-2.78-11.46-5.83-17.1-8.91-3.58-1.74-8.14-3.26-11.79-.86-1.02-.05-2.05-.11-3.07-.17-1.1 1.07-2.24 2.1-3.27 3.23-2 1.87.27 5.53-1.22 7.23-2.22-.1-1.41-2.73-1.65-4.22-.04-4.56 3.86-9.62 8.85-8.57 6.31 1.22 14.06.08 18.84 5.23.49.04 1.48.13 1.98.18.18-3.25-.37-6.61.54-9.76m2.82-.81c-1.36 3.82-.75 7.97-1.77 11.88 1.5.73 2.99 1.47 4.47 2.23-.15-.76-.44-2.28-.59-3.04 3.23.57 6.4 1.49 9.36 2.91-3.02.33-5.99-.34-8.91-.97 1 1.32 1.99 2.66 2.95 4.02 3.58-.05 7.16.27 10.56 1.44.94-1.22 1.89-2.44 2.9-3.62 2.22-3.05 6.38-3.17 9.71-4.15-5.39-5.56-12.21-9.78-19.6-12.09-3.08-1.08-6.38-.3-9.08 1.39M40.28 98.92c3.49 2.05 7 4.11 10.14 6.69 8.66 6.63 18.68 11.17 27.5 17.59 4.17 3.08 10.65 4.1 12.44 9.52.67-6.07 4.3-11.05 8.58-15.14-1.4.92-2.74 1.92-4.05 2.95-4.41.82-7.73-2.19-10.87-4.73-5.02-1.48-9.93-3.34-14.9-5.03-4.08-1.84-9.05-2.65-11.58-6.78.02-.54.08-1.61.1-2.15-5.22-1.95-7.87-7.34-12.53-9.93-2.79 1.45-5.8 3.38-4.83 7.01m120.46 19.38c-.2 1.54-.37 3.08-.52 4.62-.04-.45-.13-1.37-.17-1.83-1.37 1.17-2.72 2.37-4.09 3.55 1 1.23 2.01 2.47 3.02 3.7-.54 1.26-1.1 2.5-1.67 3.75.21 3.29 2.06 5.87 4.82 7.55-1.48-.02-2.96-.05-4.43-.1 2.47 3.62 5.52 6.73 9.38 8.87 1.98.03 3.97.17 5.95-.06 4.73-2.26 7.91-7.04 7.85-12.34.97-4.55-2.51-7.92-4.26-11.72-.46-1.11-1.53-1.7-2.47-2.34-2.77-1.71-4.63-4.45-7.03-6.58-2.2.82-4.26 1.93-6.38 2.93m10.69-1.46c2.2 1.63 4.43 3.25 6.55 5 .25-2.64.19-5.3-.28-7.92-2.08 1.01-4.16 2-6.27 2.92m-69.22 2.1c6.69 2.87 8.78 10.5 9.91 17.04 1.29 9.65.5 20.37-5.6 28.39 6.2-1.98 8.75-8.61 9.81-14.44 1.51-8.62.98-18.11-3.47-25.82-2.35-3.12-6.48-7.15-10.65-5.17m-3.76 1.62c-6.72 5.52-7.17 14.8-8.19 22.77 3.23-1.21 6.43-2.52 9.67-3.69l-1.68-2.04c2.11 1.79 4.85 4.13 3.73 7.26-2.98 2.37-6.92 3.21-10.49 4.37.93 5.43 2.92 11.39 7.67 14.63 2.18 1.76 4.96.52 7.36.11-.02-.61-.08-1.81-.11-2.42 6.06-10.46 6.08-24.12.93-34.94-1.71-3.03-5.07-7.18-8.89-6.05m24.37 11.21c-2.01 1.49-5.04 2.57-4.56 5.65 6.45-4.24 12.85-8.57 19.49-12.5l-.45-2.88c-4.91 3.12-9.64 6.5-14.48 9.73m-41.93 16.91c.09.72.27 2.16.35 2.89 5.46-2.69 11.21-4.67 16.89-6.79 1.46-.41 2.53-1.47 3.33-2.72-7.23.77-13.61 4.73-20.57 6.62z"/><path d="M64.17 67.13c1.75.07 2.72 2.05 4.43 2.36 3.91.74 8.58-.91 11.42 2.67-4.58-.87-9.37-.08-13.87-1.28-1.03-.93-3.05-2.19-1.98-3.75zM34.75 76.04c2.21-.75 4.44-1.43 6.6-2.32.12.59.38 1.77.51 2.35-2.32 1.07-4.87 1.39-7.11-.03zM208.44 81.46c2.62-4.96 8.99-7.97 14.41-6.47 6.26 2.59 8.2 9.82 9.85 15.75 4.37-1.59 8.56-3.84 13.15-4.68 1.35 1.42 1.6 3.38 1.84 5.23-4.14 1.79-8.46 3.16-12.53 5.13-.59-.48-1.16-.97-1.74-1.46 3.81-1.37 7.66-2.65 11.39-4.24 1.38.03 1.32-2.5.1-2.65-4.19.75-7.95 2.88-11.88 4.41 1.19 11.05-.06 23.67-8.8 31.57-3.46.1-7.13 2.2-10.45.45-5.52-3.46-7.83-10.03-8.85-16.15-6.57-.04-13.1-1.12-19.67-.67l.08-2.02c6.14-.55 12.26.44 18.38.52 4.09-1.19 8.15-2.76 11.78-5.03l-.54-1.29c-4.94-.05-8.86 4.3-13.87 3.82-5.62-.26-11.24-.5-16.84-.96.1-.49.32-1.47.43-1.96 6.53.22 13.05.84 19.59.92-.37-6.94.82-14.09 4.17-20.22m2.3-.64c-4.42 5.82-4.85 13.4-5.63 20.38 3.5-1.43 7.02-2.84 10.63-3.97.76 2.02 1.73 4.46-.03 6.27-3.15 1.59-6.59 2.55-9.6 4.44 1.42 5.19 3.14 11.01 7.99 14.05 1.87.98 5.08 1.53 6.27-.69 6.05-10.05 7.1-22.88 3.07-33.86-1.22-3.77-4.36-6.42-5.95-9.99 1.62.63 3.39 1.27 4.37 2.82 5.1 7.12 6.04 16.26 5.46 24.77-.54 5.02-1.08 10.65-4.64 14.53-.34.59-1.01 1.76-1.35 2.34 4.35-.75 6.62-4.83 8.13-8.54 2.53-6.79 2.68-14.26 1.63-21.36-1.16-6.68-4.28-14.3-11.66-15.9-2.9 1.56-6.71 1.79-8.69 4.71zM44.57 79.32c3.61-.59 8.49-.1 10 3.83-3.38-1.12-6.96-1.89-10-3.83zM110.57 87.18c-1-3.5-6.48-2.92-6.48-6.85 3.09 1.3 6.05 2.93 8.79 4.87-.66.07-1.99.23-2.65.3.08.42.25 1.26.34 1.68zM30.86 82.95c.25.07.75.19 1 .26 1.53 6.73-.6 13.81 1.18 20.59.5-.71 1-1.42 1.49-2.14-.85-4.76.24-9.49 1.06-14.16.48 0 1.45.01 1.93.01-.55 4.46-1.65 8.92-1.05 13.44.14 4.82 2.05 9.38 2.24 14.2-2.19-3.7-3.38-7.86-3.84-12.11-.45.82-.85 1.66-1.2 2.52.29 4.32 1.53 8.62.97 12.97-4.99 3.25-11.08 3.46-16.67 5 1.06 3.73 3.8 6.56 7.43 7.85 6.23 2.17 12.63 7.07 19.43 4.08.18-4.4.12-8.84-1.23-13.08.44-.7.89-1.4 1.35-2.09.33 5.7 3.42 11.29 1.56 17.02-3.34 1-6.89 2.15-10.39 1.18-5.69-1.66-10.77-4.79-15.95-7.59-3.34-1.58-4.26-7.59-.65-9.37 3.21-2.28 7.58-1.1 10.94-3.12 1.83-.65 2.1-2.78 2.93-4.28-1.3-6.59-3.06-13.22-2.69-19.99.18-3.73.04-7.46.16-11.19zM74.2 97.27c.82-3.64 2.61-7.29 6.24-8.83-1.5 3.18-2.86 7.22-6.24 8.83zM90.59 92.33c2.4-2.75 6.42-4.02 9.81-2.42-4 1.14-9.12 2.33-10.56 6.78 1.54.45 3.1.86 4.63 1.37-4.38 1.42-8.58 3.24-12.8 5.06.31-3.52 5.25-3.22 6.15-5.87-.19-.24-.59-.71-.78-.94.67-2.51.77-5.59 3.13-7.21.1.8.31 2.42.42 3.23zM123.82 91.95c1.36 2.54 2.18 5.32 3.3 7.98 3.08 5.96 10.53 8.74 12.27 15.55 1.32-.84 2.66-1.65 4.02-2.42-.06.49-.17 1.48-.22 1.97-1.86 1.44-3.54 3.1-4.61 5.22-1.22-1.81-1.19-3.97-1.05-6.07-.48-.12-1.46-.37-1.95-.49-.64-4.73-4.76-7.53-8.49-9.83-4.16-2.37-3.37-7.89-3.27-11.91zM142.69 94.04c3.62 1.02 8.1 1.7 10.11 5.32 3.06.65 6.27 1.63 7.8 4.64-4.99-1.94-10.22-4.71-15.7-2.8.78-.82 1.57-1.64 2.36-2.45-1.85-1.22-3.52-2.72-4.57-4.71zM109.73 102.97c-.03-2.13 1.57-5.72 4.11-3.84.21 2.04-2.9 2.53-4.11 3.84zM100.5 101.77c1.89.68 4.04 1.2 4.97 3.22-2.14-.31-5.12-.2-4.97-3.22z"/><path d="M39.83 119.84c.78-.05 1.55-.09 2.32-.13-.31 3.1-.37 6.23-.79 9.32-2.73-2.23-1.16-6.18-1.53-9.19zM31.1 125.42c2.36-.68 4.79-1.03 7.24-1-1.41 1.09-2.85 2.14-4.31 3.16-.98-.72-1.95-1.44-2.93-2.16zM123.01 139.33c2.32-.02 4.48.73 6.27 2.22 3.6-.34 7.15-1.08 10.72-1.67-2.33 3.81-7.25 3.43-11.06 2.75-2.37-.22-4.16-1.9-5.93-3.3zM49.19 143.8c.11-1.34 2.89-2.18 2.85-.36-.11 1.36-2.85 2.12-2.85.36zM130.23 144.56c5.47 1.14 10.2 4.22 15.37 6.15 3.37 1.37 7.05 1.12 10.61 1.15-2.97 3.54-8.06 2.47-11.78.92-4.98-2.2-10.88-3.52-14.2-8.22z"/></g></svg>