<svg width="300" height="296" viewBox="0 0 225 222" xmlns="http://www.w3.org/2000/svg"><g fill="#FFF"><path d="M0 0h225v222H0V0m132.78 18.35c4.7 2.89 6.72 8.55 7.48 13.75-2.4-2.7-4.91-6.88-9.12-6.1.53.5 1.58 1.49 2.11 1.98 7.31 3.81 10.13 14.12 6.75 21.42 1.49 6.61-1.86 13.06-.34 19.65 1.29 9.17-2.19 18.1-1.98 27.2-4.82-2.93-10.7-4.34-16.11-2.19l-.2-2.71c-.5 1.15-.96 2.31-1.43 3.48.77.02 2.32.07 3.09.09 5.71-2.18 11.25 2.06 16.65 3.53-.12.87-.34 2.61-.45 3.48-2.5-.04-4.78-1.04-7.07-1.92.61.46 1.81 1.39 2.42 1.85.31 1.34-.71 3.3.43 4.29 2.06-.2 1.91-2.84 2.93-4.21 1.87 2.12 2.46 4.92 3.69 7.4.9-4.88-.15-9.8-1.31-14.53-1.43-4.35 1.21-8.56 1.41-12.9.42 2.49.88 4.98 1.16 7.5.65.48 1.3.97 1.95 1.45.18-6.16-3.42-11.68-2.71-17.86-.96-7.03-.41-14.08.87-21.03-.3-.89-.6-1.77-.9-2.65 2.38-5.58.31-11.59-1.82-16.87.31-.64.93-1.94 1.25-2.59 2.23 1.42 5.36 2.54 6.22 5.29.29 3.93.63 7.88.37 11.82 1.27 4.92 3.21 9.64 4.55 14.53.36 4.92 2.2 10.09-.25 14.78 1.22 5.48 2.86 11.05 2.14 16.72-.1 2.77-1.24 5.71.17 8.32 2.55 5.38 1.88 11.76-.39 17.12-.94 2.01-3.23 2.61-5.28 2.42-3.96-.23-7.36 2.05-11.06 3.04-6.19 1.97-13.2 1.46-18.88-1.76 2.88-.41 5.92-.42 8.67-1.47 2.31-2.28 4.98-4.13 7.34-6.35 1.42-.54 2.85-1.06 4.28-1.57-1.78-.3-3.56-.66-5.33-.99-.41-.82-.81-1.65-1.22-2.48 1.4-.35 2.05-1.05 1.94-2.11-2.27.1-3.61 2.56-5.63 3.44-1.66-1.89-4.25-1.82-6.52-2.13 1.54 1.08 3.22 1.93 4.99 2.59-.02 2.03.75 3.89 1.94 5.52-.92.74-1.85 1.47-2.77 2.21-3.02.44-5.94 1.32-8.79 2.4.09.63.26 1.89.35 2.52-3.78.21-7.51 1.11-10.86 2.9 1.66-4.29-.4-8.7-2.63-12.33 2.71.5 5.45.94 8.22.66-2.76-1.48-5.88-1.94-8.94-2.34.17.52.53 1.58.7 2.1-2.86-4.89-8.74-6.23-13.36-8.87 1.6-.72 3.21-1.42 4.85-2.07L94.53 105c.47.44.94.87 1.41 1.31 1.48-.87 3.04-1.58 4.61-2.25.01-.4.05-1.2.07-1.59 5.21-3.39 9.93-9.8 16.92-8.19.3 1.21.55 2.42.76 3.64 1.11.86 3.14 1.28 3.02 3.05-.42 1.58-1.05 3.1-1.59 4.65-1.7 1.33-3.15 2.95-3.88 5.02 3.73-1.72 7.15-4.79 7.57-9.1-.21-2.23-2.2-3.59-3.61-5.09-.53-1.4-1.07-2.8-1.64-4.17-.59-2.75-1.47-5.43-1.84-8.22.32-2.76 1.15-5.44 1.82-8.13.54.63 1.6 1.91 2.14 2.54-.34-2.86-1.19-5.62-2.19-8.31.61-1.71 1.15-3.44 1.68-5.18-2.46-6.27-.72-13.13 1.85-19.05-.52.28-1.56.85-2.08 1.14 4.11-8.29 1.2-19.67-6.69-24.67-2.88-1.28-6.61-.45-8.06 2.53-2.99 7.71.06 16.94 6.17 22.24 2.2 2.04 5.33 1.91 7.81.44-1.92 5.11-3.68 11.13-1.14 16.33-1.54 4.48-.28 9.34-2.02 13.77-1.8 4.92-.44 10.25 1.05 15.05-8.82-1.71-13.14 8.77-21.1 10.11-2.52.34-4.79 1.51-6.85 2.94-3.27-.38-6.54-1.12-9.85-.85-2.99.48-5.75 2.06-8.84 1.98-3.08.17-6.09-.66-9.16-.69-1.99.61-3.8 1.83-5.91 2.03-8.97.79-17.56 4.39-24.69 9.84-4.06 1.44-5.77 5.85-5.72 9.87.68 7.34 1.25 14.68 1.58 22.05.44 7.39 4.15 14.44 3.07 21.93-1.03 5.86-6.87 8.49-10.05 12.98-2.18 3.4-6.55 4.13-9.06 7.16-.56 1.45-.83 3-1.04 4.54 1.23 1.73 3.16 3.31 5.42 2.56 3.53-1.02 7.35-.76 10.79-1.96 3.84-2.96 7.88-5.82 12.91-6.23-2.62 3.05-4.97 6.99-9.18 7.98-3.01.78-5.46 2.77-8.16 4.22-.61 1.16-1.2 2.33-1.78 3.51 4.32 2.57 8.52 6.27 13.9 5.88 4.32-1.42 8.8-2.48 12.8-4.71 4.7-2.78 10.27-2.97 15.5-4.05 4.27-3.68 3.39-9.86 1.11-14.38-4.51-8.41-4.55-18.29-3.91-27.57.25-7.21-4.32-13.69-3.21-20.91l.51.42.5.43 1.37.16c3.34-1.32 6.91-.96 10.41-.99 3.69-.01 7.15-2.21 10.85-1.4 2.42-.78 4.79-1.73 7.27-2.27 3.68-.56 7.51.19 11.09-1.02 2.96-.65 5.15-2.82 7.44-4.63.09-.54.28-1.61.37-2.15 1.78-.3 3.47-.92 4.66-2.33 3.85-1.5 8.15-2.67 12.19-1.16 7.58 2.47 15.6.29 22.84-2.28 3.18-1.56 7.13-.34 9.89-2.9.47-.88.95-1.75 1.43-2.61 4.28 1.54 9.36-1.12 10.84-5.35 2.17-4.69.75-9.97-.08-14.82-1.23-4.43-6.3-5.92-10.42-5.65-.7-4.8-.8-9.67-1.45-14.47-.67-5.8.6-11.7-.82-17.42-1-4.59-2.75-9-3.38-13.68-1.22-5.14-.16-10.67-2.46-15.58-2.46-.63-4.82-2.57-7.46-1.78 1.18-2.59 2.62-5.08 4.66-7.09 9.45 4 13.89 17.39 6.86 25.46 2.83-1.01 6.69-1.66 7.36-5.16 1.94-7.54-.9-16.61-7.52-21.01-2.07-1.66-4.69.13-7 .26-1.98.84-3.59 2.26-4.94 3.9-1.78-4.79-5.22-10.35-11.04-10.14 1.09 1.01 2.34 1.8 3.57 2.62m-8.8-.25c-1.56 1.05-1.78 3.07-2.46 4.68-.81-.03-2.43-.09-3.24-.13 2.54 2.13 5.71 3.07 8.96 3.32a75.899 75.899 0 00-4.51-2.85c.96-2.09 2.4-3.89 3.93-5.58 3.72 1.7 6.93 4.31 8.76 8.04l-1.3.29c1.22.19 2.43.38 3.66.57-2.19-3.94-4.88-7.6-8.72-10.07-1.7.54-3.5.86-5.08 1.73m-3.04 11.99c2.09 3.84 1.05 8.34 2.43 12.38.98 3.78 3.48 6.87 5.98 9.77-.4 4.35 1.09 8.74-.1 13.03-.62 1.65.16 3.25.63 4.81-.46.2-1.39.58-1.85.77 2.95 6.58 2.03 13.95 3.58 20.83 2.95-10.12-2.12-20.5.26-30.66-.27-2.49-.76-4.96-.91-7.46 3.61 1.3 7.34-.45 8.49-4.09 2.38-7.61-.94-15.87-6.2-21.49-3.79-1.96-8.33-1.19-10.44 2.78-1.38-4.84-5.2-10.07-10.68-10.06 3.24 2.79 7.34 5.08 8.81 9.39m.47 15.51c1.39.49 2.14-1.79 1.44-2.75-1.25-.4-2.11 1.84-1.44 2.75m.95 18.12c.98 4.7 2.22 9.4 1.81 14.25.97-.38 1.94-.77 2.92-1.14-.42.02-1.27.07-1.69.1.69-4.6 1.39-10.19-3.04-13.21m27.54 5.93c-.81 2.09-1.44 4.24-1.98 6.41 2.72 4.33 3.54 9.35 2.42 14.36-.71.12-2.13.38-2.84.5.54 1.82 2.85 3.63 4.69 2.46.6-4.82-.08-9.64-1.43-14.28-1.14-3.06.12-6.36-.86-9.45m-29.51 9.37c1.41 4 2.74 8.49 6.09 11.3-.53-4.27-2.39-8.84-6.09-11.3m-10.65 23.01c-.92.5-1.84 1.01-2.75 1.51-1.79-.62-3.6-1.15-5.46-1.47 1.09.91 2.26 1.72 3.45 2.52 2.36-.84 4.72-1.69 7.05-2.61.43-1.65.85-3.3 1.23-4.96-1.31 1.57-2.45 3.27-3.52 5.01m22.09.08c-.63-.69-1.26-1.39-1.9-2.08-.57-.08-1.7-.22-2.27-.3-.6-.39-1.82-1.18-2.42-1.58.51 3.31 3.83 3.64 6.59 3.96m-6.26 2.01c1.04 2.23 2.89 4.43 5.6 3.4-1.84-1.18-3.68-2.35-5.6-3.4m-18.61.55c2.21 1.52 4.42 3.11 6.99 3.97-1.24-2.92-3.71-4.54-6.99-3.97m.76 6.58c2.57 1.13 5.23 1.99 7.92 2.8-.14-.51-.43-1.53-.57-2.03-2.42-.48-4.88-.79-7.35-.77m12.86-.83c1.11 2.54 3.31 4.2 6.2 3.78-1.83-1.62-3.97-2.83-6.2-3.78m-3.23 2.94c-.65 1.5 1.22 3.86 2.85 3.24.64-1.42-1.38-3.69-2.85-3.24m19.77 17.11c-20.31 5.43-40.6 10.92-60.76 16.88-3.23.91-6.11 2.73-9.38 3.52-4.25 1.21-7.31-3.17-11.33-3.66 2.2 3.07 5.74 4.8 9.26 5.87 4.49.91 7.5-3.11 11.45-4.31.15 12.75.04 25.51.12 38.27 3.34 2.43 6.74 4.77 10.19 7.04 14.87-10.97 29.91-21.78 45.34-31.94 5.65.78 10.2 5.2 15.83 6.21 2.21-.73 4.07-2.23 6-3.49 1.23-.96 3.07-1.84 2.67-3.73-.21-2.18.09-5.5-2.59-6.21-4.26-1.81-8.65-3.31-12.95-5.03-.66-6.01-.56-12.06-.8-18.1 4.27.15 8.32-1.37 12.45-2.25 3.74-.94 8.12-2.05 10.02-5.81-7.97 4.02-17.03 4.42-25.52 6.74z"/><path d="M105.19 29.08c.34-2.72 2.33-4.74 4.06-6.71 6.88 2.91 10.92 10.28 10.57 17.59.1 2.54-.92 5.31-3.24 6.58-1.65 1.04-3.58-.01-5.03-.9-5-3.83-6.62-10.54-6.36-16.56zM148.64 21.72c8.83 3.64 13.01 15.79 7.9 23.94 2.62-8.71-.57-18.52-7.9-23.94zM128.09 28c6.92 1.81 10.26 9.39 10.5 15.98.03 3.13-.89 7.49-4.61 8.01-4.34-.38-7.03-4.56-8.71-8.15-1.34-5.13-3.04-12.84 2.82-15.84zM156.41 94.15c4.21-.03 8.65 2.28 9.33 6.77.1 4.58 1.48 10.07-2.04 13.76-1.62 2.06-4.45 2.17-6.81 2.61 1.58-5.29 2.4-11.25.01-16.43-.99-2.11-.47-4.48-.49-6.71zM74.15 108.08c8.83-2.88 18.57-.26 26.39 4.26 3.16 3.02 5.24 7.33 5.58 11.68-.81 3.33-3.12 6.16-5.55 8.49-3.16 2.92-7.67 1.95-11.55 2.54-3.36.63-6.52 1.98-9.7 3.19 1.76-7.47-1.95-15.1-6.96-20.5-1.21-1.17-2.5-2.88-4.36-2.78-5.78.75-11.01 3.46-16.33 5.66-3.65 1.43-6.04 4.72-9.39 6.64-4.87 2.38-6.72 8.71-4.93 13.64 1.44 4.29.76 8.96 2.33 13.21 1.86 5.15 1.72 10.72 3.27 15.94.88 4.2 2.71 8.61 1.12 12.87-.62 2.48-2.55 4.29-4.08 6.24-3.58.42-7.43.38-10.54 2.45-2.84 1.54-5.02 4.6-8.52 4.56-3.73.15-7.4 2.68-11.02.63 1.64-1.19 3.37-2.23 4.97-3.47-1.19.19-3.58.56-4.78.75 1.67-1.75 3.5-3.4 5.81-4.22 3.31-1.11 4.68-4.59 7.08-6.84 2.25-2.4 5.71-3.86 6.78-7.2 2.5-6.98.3-14.48-1.46-21.36-3.28-8.85.43-18.49-2.13-27.43 0-3.44 2.12-6.46 5.34-7.66 8.06-5.54 17.56-10.07 27.58-9.25 2.22.48 1.2 4.54 3.65 4.75.7-1.79.36-3.76.57-5.63-.44-.32-1.32-.96-1.77-1.28 4.26.32 8.53.7 12.81.65-.13.5-.38 1.5-.51 1.99l-.71-.47c-.63 1.47-1.26 2.94-1.85 4.43 2.97.11 5.94.21 8.91.01-.04.38-.12 1.15-.15 1.53 4.2-.82 9 2.19 8.51 6.82.52-1.21 1.06-2.41 1.63-3.6-.71-1.38-1.17-3.06-2.61-3.87-2.28-1.37-5.22-.9-7.41-2.46-2.26-.01-4.53.02-6.79 0 1.54-1.09 3.11-2.13 4.66-3.21-1.32-.51-2.64-1.03-3.89-1.7m5.26 2.04c4.03 2.34 8.52 3.77 12.86 5.42-2.4-4.58-8.37-4.66-12.86-5.42m-45.79 11.17c1.23 1.4 2.08 3.59 4.14 3.9 1.58.6 3.05-.3 4.44-.93-2.95-.3-6.04-.84-7.25-3.94-.33.25-.99.73-1.33.97m-3.8 4.53c.04 2.57.62 5.08.98 7.62.1 1.5.21 2.99.34 4.49.85-1.91 1.56-3.89 2.34-5.83l-1.04-.12c.77-2.45-.19-5.15-2.62-6.16m10.21 49.37c.33.89.67 1.78 1 2.67-1.24 3.45-3.3 6.5-5.17 9.63 4.05-2.02 6.82-6.66 6.26-11.2-.52-.28-1.57-.83-2.09-1.1m-14.05 12.8c2.6-1.93 4.95-4.2 6.93-6.76-3.13 1.25-5.45 3.78-6.93 6.76zM129.68 113.98c-.55-1.45.54-2.66 1.33-3.72 1.04 1.62 2.35 3.03 3.67 4.42-1.68-.1-3.39-.16-5-.7z"/><path d="M52.17 122.08c5.65-2.27 11.19-5.65 17.53-5.17 4.92 5.19 9.6 12.29 8.15 19.74-5.33 3.08-11.79 3.74-17.79 2.77-2.67-.63-5.16.62-7.58 1.53.91 4.79 2.38 9.43 3.68 14.11 1.6 5.49.25 11.22.61 16.81.75 5.69.89 11.59 3.55 16.8 1.12 3.92 4.31 8.96 1.08 12.6-5.37 2.55-11.81 2-17 5.13-3.83 2.28-8.17 3.35-12.47 4.33-3.09-.22-6.27-1.08-8.05-3.84l-3.35-.16c2.21-4.56 7.8-5.38 12.02-7.21 4.55-2.76 6.43-8.15 10.48-11.44 1.88-1.5 3.88-3.5 3.51-6.14-.65-8.16-3.45-15.98-3.96-24.16-.13-3.76-2.73-6.94-2.42-10.76.26-3.96-1.32-7.66-2.04-11.48 1.42-2.39 2.11-5.53 4.84-6.82 3.38-1.8 5.57-5.26 9.21-6.64m5.44 8.16c5.28-1.06 9.11-5.23 13.52-8.04-5.23 1.16-9.92 4.12-13.52 8.04m-10.05-.83c.76 1.71 2.3 2.64 4.1 2.98.33-.39 1-1.15 1.34-1.54-1.82-.45-3.62-.98-5.44-1.44m-5.11 11.95c.83-.75 1.67-1.51 2.5-2.27.04-1.28.09-2.57.14-3.85a66.36 66.36 0 001.96-3.24c-4.37 1.03-3.75 5.92-4.6 9.36m7.25 15.11c1.09 5.43 1.48 11.14 4.15 16.11-.43-7.62-3.37-14.87-3.62-22.54-.45 2.1-.94 4.28-.53 6.43m-3.1-4.29c-.44 6.43.63 12.89 2.61 19-.38-4.74-1.28-9.43-1.4-14.19.05-1.7-.47-3.31-1.21-4.81m7.93 42.05c-1.14.84-2.24 1.72-3.26 2.7 2.53-.44 6.85-1.91 5.16-5.27-.64.85-1.27 1.71-1.9 2.57m-13.02 7.14c2.22-2.07 4.03-4.57 5.22-7.37-2.48 1.81-4.53 4.31-5.22 7.37M26.4 204c2.51 1.52 5.21 2.87 8.21 2.88-1.84-2.64-5.15-3.66-8.21-2.88zM130.9 133.95c2.27-.57 4.55-1.14 6.81-1.75.22 6.31.42 12.67.97 18.94 5.09 1.89 10.18 3.77 15.23 5.76.29 1.62.59 3.23.89 4.84-2.45 1.8-5 3.51-7.82 4.67-5.14-2.93-10.87-4.48-16.16-7.08-13.89 10.3-28.21 20.01-42.08 30.32-1.06.61-2.21 1.06-3.33 1.54-2.35-1.86-4.96-3.42-7.1-5.54-.19-12.4-.05-24.82 0-37.23 2.54-.83 5.11-1.59 7.7-2.29.32 11.77.11 23.57-.35 35.34 1.25-.25 2.52-.54 3.52-1.4 9.45-6.95 19.29-13.36 28.87-20.13 1.95-1.26 3.23-3.22 4.52-5.09-2.95-1.51-6.09-2.68-8.85-4.53-.35-.98-.66-1.97-.91-2.97 2.29-1.27 4.57-2.55 6.9-3.76 3.52 1.38 7.12 2.65 10.89 3.15.22-4.26.2-8.52.3-12.79z"/><path d="M94.6 143.54c11.47-2.95 22.9-6.08 34.32-9.2.03 3.53.05 7.05.08 10.58-3.94-1.02-8.21-4.74-12.19-2.11-2.04 1.22-4.45 2.14-5.9 4.1.16 1.63.56 3.22.92 4.82 2.9 1.44 5.83 2.83 8.75 4.24-10.86 7.14-21.36 14.81-32.1 22.15.01-10.72-.27-21.45-.79-32.14 2.16-1.15 4.56-1.76 6.91-2.44z"/></g><g fill="#333"><path d="M132.78 18.35c-1.23-.82-2.48-1.61-3.57-2.62 5.82-.21 9.26 5.35 11.04 10.14 1.35-1.64 2.96-3.06 4.94-3.9 2.31-.13 4.93-1.92 7-.26 6.62 4.4 9.46 13.47 7.52 21.01-.67 3.5-4.53 4.15-7.36 5.16 7.03-8.07 2.59-21.46-6.86-25.46-2.04 2.01-3.48 4.5-4.66 7.09 2.64-.79 5 1.15 7.46 1.78 2.3 4.91 1.24 10.44 2.46 15.58.63 4.68 2.38 9.09 3.38 13.68 1.42 5.72.15 11.62.82 17.42.65 4.8.75 9.67 1.45 14.47 4.12-.27 9.19 1.22 10.42 5.65.83 4.85 2.25 10.13.08 14.82-1.48 4.23-6.56 6.89-10.84 5.35-.48.86-.96 1.73-1.43 2.61-2.76 2.56-6.71 1.34-9.89 2.9-7.24 2.57-15.26 4.75-22.84 2.28-4.04-1.51-8.34-.34-12.19 1.16-1.19 1.41-2.88 2.03-4.66 2.33-.09.54-.28 1.61-.37 2.15-2.29 1.81-4.48 3.98-7.44 4.63-3.58 1.21-7.41.46-11.09 1.02-2.48.54-4.85 1.49-7.27 2.27-3.7-.81-7.16 1.39-10.85 1.4-3.5.03-7.07-.33-10.41.99l-1.37-.16-.5-.43-.51-.42c-1.11 7.22 3.46 13.7 3.21 20.91-.64 9.28-.6 19.16 3.91 27.57 2.28 4.52 3.16 10.7-1.11 14.38-5.23 1.08-10.8 1.27-15.5 4.05-4 2.23-8.48 3.29-12.8 4.71-5.38.39-9.58-3.31-13.9-5.88.58-1.18 1.17-2.35 1.78-3.51 2.7-1.45 5.15-3.44 8.16-4.22 4.21-.99 6.56-4.93 9.18-7.98-5.03.41-9.07 3.27-12.91 6.23-3.44 1.2-7.26.94-10.79 1.96-2.26.75-4.19-.83-5.42-2.56.21-1.54.48-3.09 1.04-4.54 2.51-3.03 6.88-3.76 9.06-7.16 3.18-4.49 9.02-7.12 10.05-12.98 1.08-7.49-2.63-14.54-3.07-21.93-.33-7.37-.9-14.71-1.58-22.05-.05-4.02 1.66-8.43 5.72-9.87 7.13-5.45 15.72-9.05 24.69-9.84 2.11-.2 3.92-1.42 5.91-2.03 3.07.03 6.08.86 9.16.69 3.09.08 5.85-1.5 8.84-1.98 3.31-.27 6.58.47 9.85.85 2.06-1.43 4.33-2.6 6.85-2.94 7.96-1.34 12.28-11.82 21.1-10.11-1.49-4.8-2.85-10.13-1.05-15.05 1.74-4.43.48-9.29 2.02-13.77-2.54-5.2-.78-11.22 1.14-16.33-2.48 1.47-5.61 1.6-7.81-.44-6.11-5.3-9.16-14.53-6.17-22.24 1.45-2.98 5.18-3.81 8.06-2.53 7.89 5 10.8 16.38 6.69 24.67.52-.29 1.56-.86 2.08-1.14-2.57 5.92-4.31 12.78-1.85 19.05-.53 1.74-1.07 3.47-1.68 5.18 1 2.69 1.85 5.45 2.19 8.31-.54-.63-1.6-1.91-2.14-2.54-.67 2.69-1.5 5.37-1.82 8.13.37 2.79 1.25 5.47 1.84 8.22.57 1.37 1.11 2.77 1.64 4.17 1.41 1.5 3.4 2.86 3.61 5.09-.42 4.31-3.84 7.38-7.57 9.1.73-2.07 2.18-3.69 3.88-5.02.54-1.55 1.17-3.07 1.59-4.65.12-1.77-1.91-2.19-3.02-3.05-.21-1.22-.46-2.43-.76-3.64-6.99-1.61-11.71 4.8-16.92 8.19-.02.39-.06 1.19-.07 1.59-1.57.67-3.13 1.38-4.61 2.25-.47-.44-.94-.87-1.41-1.31l1.82-1.23c-1.64.65-3.25 1.35-4.85 2.07 4.62 2.64 10.5 3.98 13.36 8.87-.17-.52-.53-1.58-.7-2.1 3.06.4 6.18.86 8.94 2.34-2.77.28-5.51-.16-8.22-.66 2.23 3.63 4.29 8.04 2.63 12.33 3.35-1.79 7.08-2.69 10.86-2.9-.09-.63-.26-1.89-.35-2.52 2.85-1.08 5.77-1.96 8.79-2.4.92-.74 1.85-1.47 2.77-2.21-1.19-1.63-1.96-3.49-1.94-5.52-1.77-.66-3.45-1.51-4.99-2.59 2.27.31 4.86.24 6.52 2.13 2.02-.88 3.36-3.34 5.63-3.44.11 1.06-.54 1.76-1.94 2.11.41.83.81 1.66 1.22 2.48 1.77.33 3.55.69 5.33.99-1.43.51-2.86 1.03-4.28 1.57-2.36 2.22-5.03 4.07-7.34 6.35-2.75 1.05-5.79 1.06-8.67 1.47 5.68 3.22 12.69 3.73 18.88 1.76 3.7-.99 7.1-3.27 11.06-3.04 2.05.19 4.34-.41 5.28-2.42 2.27-5.36 2.94-11.74.39-17.12-1.41-2.61-.27-5.55-.17-8.32.72-5.67-.92-11.24-2.14-16.72 2.45-4.69.61-9.86.25-14.78-1.34-4.89-3.28-9.61-4.55-14.53.26-3.94-.08-7.89-.37-11.82-.86-2.75-3.99-3.87-6.22-5.29-.32.65-.94 1.95-1.25 2.59 2.13 5.28 4.2 11.29 1.82 16.87.3.88.6 1.76.9 2.65-1.28 6.95-1.83 14-.87 21.03-.71 6.18 2.89 11.7 2.71 17.86-.65-.48-1.3-.97-1.95-1.45-.28-2.52-.74-5.01-1.16-7.5-.2 4.34-2.84 8.55-1.41 12.9 1.16 4.73 2.21 9.65 1.31 14.53-1.23-2.48-1.82-5.28-3.69-7.4-1.02 1.37-.87 4.01-2.93 4.21-1.14-.99-.12-2.95-.43-4.29-.61-.46-1.81-1.39-2.42-1.85 2.29.88 4.57 1.88 7.07 1.92.11-.87.33-2.61.45-3.48-5.4-1.47-10.94-5.71-16.65-3.53-.77-.02-2.32-.07-3.09-.09.47-1.17.93-2.33 1.43-3.48l.2 2.71c5.41-2.15 11.29-.74 16.11 2.19-.21-9.1 3.27-18.03 1.98-27.2-1.52-6.59 1.83-13.04.34-19.65 3.38-7.3.56-17.61-6.75-21.42-.53-.49-1.58-1.48-2.11-1.98 4.21-.78 6.72 3.4 9.12 6.1-.76-5.2-2.78-10.86-7.48-13.75m-27.59 10.73c-.26 6.02 1.36 12.73 6.36 16.56 1.45.89 3.38 1.94 5.03.9 2.32-1.27 3.34-4.04 3.24-6.58.35-7.31-3.69-14.68-10.57-17.59-1.73 1.97-3.72 3.99-4.06 6.71m43.45-7.36c7.33 5.42 10.52 15.23 7.9 23.94 5.11-8.15.93-20.3-7.9-23.94m7.77 72.43c.02 2.23-.5 4.6.49 6.71 2.39 5.18 1.57 11.14-.01 16.43 2.36-.44 5.19-.55 6.81-2.61 3.52-3.69 2.14-9.18 2.04-13.76-.68-4.49-5.12-6.8-9.33-6.77m-82.26 13.93c1.25.67 2.57 1.19 3.89 1.7-1.55 1.08-3.12 2.12-4.66 3.21 2.26.02 4.53-.01 6.79 0 2.19 1.56 5.13 1.09 7.41 2.46 1.44.81 1.9 2.49 2.61 3.87-.57 1.19-1.11 2.39-1.63 3.6.49-4.63-4.31-7.64-8.51-6.82.03-.38.11-1.15.15-1.53-2.97.2-5.94.1-8.91-.01.59-1.49 1.22-2.96 1.85-4.43l.71.47c.13-.49.38-1.49.51-1.99-4.28.05-8.55-.33-12.81-.65.45.32 1.33.96 1.77 1.28-.21 1.87.13 3.84-.57 5.63-2.45-.21-1.43-4.27-3.65-4.75-10.02-.82-19.52 3.71-27.58 9.25-3.22 1.2-5.34 4.22-5.34 7.66 2.56 8.94-1.15 18.58 2.13 27.43 1.76 6.88 3.96 14.38 1.46 21.36-1.07 3.34-4.53 4.8-6.78 7.2-2.4 2.25-3.77 5.73-7.08 6.84-2.31.82-4.14 2.47-5.81 4.22 1.2-.19 3.59-.56 4.78-.75-1.6 1.24-3.33 2.28-4.97 3.47 3.62 2.05 7.29-.48 11.02-.63 3.5.04 5.68-3.02 8.52-4.56 3.11-2.07 6.96-2.03 10.54-2.45 1.53-1.95 3.46-3.76 4.08-6.24 1.59-4.26-.24-8.67-1.12-12.87-1.55-5.22-1.41-10.79-3.27-15.94-1.57-4.25-.89-8.92-2.33-13.21-1.79-4.93.06-11.26 4.93-13.64 3.35-1.92 5.74-5.21 9.39-6.64 5.32-2.2 10.55-4.91 16.33-5.66 1.86-.1 3.15 1.61 4.36 2.78 5.01 5.4 8.72 13.03 6.96 20.5 3.18-1.21 6.34-2.56 9.7-3.19 3.88-.59 8.39.38 11.55-2.54 2.43-2.33 4.74-5.16 5.55-8.49-.34-4.35-2.42-8.66-5.58-11.68-7.82-4.52-17.56-7.14-26.39-4.26m55.53 5.9c1.61.54 3.32.6 5 .7-1.32-1.39-2.63-2.8-3.67-4.42-.79 1.06-1.88 2.27-1.33 3.72m-77.51 8.1c-3.64 1.38-5.83 4.84-9.21 6.64-2.73 1.29-3.42 4.43-4.84 6.82.72 3.82 2.3 7.52 2.04 11.48-.31 3.82 2.29 7 2.42 10.76.51 8.18 3.31 16 3.96 24.16.37 2.64-1.63 4.64-3.51 6.14-4.05 3.29-5.93 8.68-10.48 11.44-4.22 1.83-9.81 2.65-12.02 7.21l3.35.16c1.78 2.76 4.96 3.62 8.05 3.84 4.3-.98 8.64-2.05 12.47-4.33 5.19-3.13 11.63-2.58 17-5.13 3.23-3.64.04-8.68-1.08-12.6-2.66-5.21-2.8-11.11-3.55-16.8-.36-5.59.99-11.32-.61-16.81-1.3-4.68-2.77-9.32-3.68-14.11 2.42-.91 4.91-2.16 7.58-1.53 6 .97 12.46.31 17.79-2.77 1.45-7.45-3.23-14.55-8.15-19.74-6.34-.48-11.88 2.9-17.53 5.17z"/><path d="M123.98 18.1c1.58-.87 3.38-1.19 5.08-1.73 3.84 2.47 6.53 6.13 8.72 10.07-1.23-.19-2.44-.38-3.66-.57l1.3-.29c-1.83-3.73-5.04-6.34-8.76-8.04-1.53 1.69-2.97 3.49-3.93 5.58 1.53.9 3.04 1.84 4.51 2.85-3.25-.25-6.42-1.19-8.96-3.32.81.04 2.43.1 3.24.13.68-1.61.9-3.63 2.46-4.68z"/><path d="M120.94 30.09c-1.47-4.31-5.57-6.6-8.81-9.39 5.48-.01 9.3 5.22 10.68 10.06 2.11-3.97 6.65-4.74 10.44-2.78 5.26 5.62 8.58 13.88 6.2 21.49-1.15 3.64-4.88 5.39-8.49 4.09.15 2.5.64 4.97.91 7.46-2.38 10.16 2.69 20.54-.26 30.66-1.55-6.88-.63-14.25-3.58-20.83.46-.19 1.39-.57 1.85-.77-.47-1.56-1.25-3.16-.63-4.81 1.19-4.29-.3-8.68.1-13.03-2.5-2.9-5-5.99-5.98-9.77-1.38-4.04-.34-8.54-2.43-12.38m7.15-2.09c-5.86 3-4.16 10.71-2.82 15.84 1.68 3.59 4.37 7.77 8.71 8.15 3.72-.52 4.64-4.88 4.61-8.01-.24-6.59-3.58-14.17-10.5-15.98z"/><path d="M121.41 45.6c-.67-.91.19-3.15 1.44-2.75.7.96-.05 3.24-1.44 2.75zM122.36 63.72c4.43 3.02 3.73 8.61 3.04 13.21.42-.03 1.27-.08 1.69-.1-.98.37-1.95.76-2.92 1.14.41-4.85-.83-9.55-1.81-14.25zM149.9 69.65c.98 3.09-.28 6.39.86 9.45 1.35 4.64 2.03 9.46 1.43 14.28-1.84 1.17-4.15-.64-4.69-2.46.71-.12 2.13-.38 2.84-.5 1.12-5.01.3-10.03-2.42-14.36.54-2.17 1.17-4.32 1.98-6.41zM120.39 79.02c3.7 2.46 5.56 7.03 6.09 11.3-3.35-2.81-4.68-7.3-6.09-11.3zM109.74 102.03c1.07-1.74 2.21-3.44 3.52-5.01-.38 1.66-.8 3.31-1.23 4.96-2.33.92-4.69 1.77-7.05 2.61-1.19-.8-2.36-1.61-3.45-2.52 1.86.32 3.67.85 5.46 1.47.91-.5 1.83-1.01 2.75-1.51zM131.83 102.11c-2.76-.32-6.08-.65-6.59-3.96.6.4 1.82 1.19 2.42 1.58.57.08 1.7.22 2.27.3.64.69 1.27 1.39 1.9 2.08zM125.57 104.12c1.92 1.05 3.76 2.22 5.6 3.4-2.71 1.03-4.56-1.17-5.6-3.4zM106.96 104.67c3.28-.57 5.75 1.05 6.99 3.97-2.57-.86-4.78-2.45-6.99-3.97zM79.41 110.12c4.49.76 10.46.84 12.86 5.42-4.34-1.65-8.83-3.08-12.86-5.42zM107.72 111.25c2.47-.02 4.93.29 7.35.77.14.5.43 1.52.57 2.03-2.69-.81-5.35-1.67-7.92-2.8zM120.58 110.42c2.23.95 4.37 2.16 6.2 3.78-2.89.42-5.09-1.24-6.2-3.78zM117.35 113.36c1.47-.45 3.49 1.82 2.85 3.24-1.63.62-3.5-1.74-2.85-3.24zM33.62 121.29c.34-.24 1-.72 1.33-.97 1.21 3.1 4.3 3.64 7.25 3.94-1.39.63-2.86 1.53-4.44.93-2.06-.31-2.91-2.5-4.14-3.9zM57.61 130.24c3.6-3.92 8.29-6.88 13.52-8.04-4.41 2.81-8.24 6.98-13.52 8.04zM137.12 130.47c8.49-2.32 17.55-2.72 25.52-6.74-1.9 3.76-6.28 4.87-10.02 5.81-4.13.88-8.18 2.4-12.45 2.25.24 6.04.14 12.09.8 18.1 4.3 1.72 8.69 3.22 12.95 5.03 2.68.71 2.38 4.03 2.59 6.21.4 1.89-1.44 2.77-2.67 3.73-1.93 1.26-3.79 2.76-6 3.49-5.63-1.01-10.18-5.43-15.83-6.21-15.43 10.16-30.47 20.97-45.34 31.94-3.45-2.27-6.85-4.61-10.19-7.04-.08-12.76.03-25.52-.12-38.27-3.95 1.2-6.96 5.22-11.45 4.31-3.52-1.07-7.06-2.8-9.26-5.87 4.02.49 7.08 4.87 11.33 3.66 3.27-.79 6.15-2.61 9.38-3.52 20.16-5.96 40.45-11.45 60.76-16.88m-6.22 3.48c-.1 4.27-.08 8.53-.3 12.79-3.77-.5-7.37-1.77-10.89-3.15-2.33 1.21-4.61 2.49-6.9 3.76.25 1 .56 1.99.91 2.97 2.76 1.85 5.9 3.02 8.85 4.53-1.29 1.87-2.57 3.83-4.52 5.09-9.58 6.77-19.42 13.18-28.87 20.13-1 .86-2.27 1.15-3.52 1.4.46-11.77.67-23.57.35-35.34-2.59.7-5.16 1.46-7.7 2.29-.05 12.41-.19 24.83 0 37.23 2.14 2.12 4.75 3.68 7.1 5.54 1.12-.48 2.27-.93 3.33-1.54 13.87-10.31 28.19-20.02 42.08-30.32 5.29 2.6 11.02 4.15 16.16 7.08 2.82-1.16 5.37-2.87 7.82-4.67-.3-1.61-.6-3.22-.89-4.84-5.05-1.99-10.14-3.87-15.23-5.76-.55-6.27-.75-12.63-.97-18.94-2.26.61-4.54 1.18-6.81 1.75m-36.3 9.59c-2.35.68-4.75 1.29-6.91 2.44.52 10.69.8 21.42.79 32.14 10.74-7.34 21.24-15.01 32.1-22.15-2.92-1.41-5.85-2.8-8.75-4.24-.36-1.6-.76-3.19-.92-4.82 1.45-1.96 3.86-2.88 5.9-4.1 3.98-2.63 8.25 1.09 12.19 2.11-.03-3.53-.05-7.05-.08-10.58-11.42 3.12-22.85 6.25-34.32 9.2zM29.82 125.82c2.43 1.01 3.39 3.71 2.62 6.16l1.04.12c-.78 1.94-1.49 3.92-2.34 5.83-.13-1.5-.24-2.99-.34-4.49-.36-2.54-.94-5.05-.98-7.62zM47.56 129.41c1.82.46 3.62.99 5.44 1.44-.34.39-1.01 1.15-1.34 1.54-1.8-.34-3.34-1.27-4.1-2.98zM42.45 141.36c.85-3.44.23-8.33 4.6-9.36a66.36 66.36 0 01-1.96 3.24c-.05 1.28-.1 2.57-.14 3.85-.83.76-1.67 1.52-2.5 2.27zM49.7 156.47c-.41-2.15.08-4.33.53-6.43.25 7.67 3.19 14.92 3.62 22.54-2.67-4.97-3.06-10.68-4.15-16.11zM46.6 152.18c.74 1.5 1.26 3.11 1.21 4.81.12 4.76 1.02 9.45 1.4 14.19-1.98-6.11-3.05-12.57-2.61-19zM40.03 175.19c.52.27 1.57.82 2.09 1.1.56 4.54-2.21 9.18-6.26 11.2 1.87-3.13 3.93-6.18 5.17-9.63-.33-.89-.67-1.78-1-2.67zM25.98 187.99c1.48-2.98 3.8-5.51 6.93-6.76a35.51 35.51 0 01-6.93 6.76zM54.53 194.23c.63-.86 1.26-1.72 1.9-2.57 1.69 3.36-2.63 4.83-5.16 5.27 1.02-.98 2.12-1.86 3.26-2.7zM41.51 201.37c.69-3.06 2.74-5.56 5.22-7.37-1.19 2.8-3 5.3-5.22 7.37zM26.4 204c3.06-.78 6.37.24 8.21 2.88-3-.01-5.7-1.36-8.21-2.88z"/></g></svg>