<svg width="300" height="296" viewBox="0 0 225 222" xmlns="http://www.w3.org/2000/svg"><g fill="#FFF"><path d="M0 0h225v222H0V0m151.34 64.55c-.59 1.74-1.55 3.41-1.73 5.26.41 1.4 1.31 2.57 2 3.84-2.54-1.71-5.29-3.06-7.98-4.49-2.98-.73-5.73-2.1-8.48-3.42-2.04-1.05-4.03.65-5.31 2.09-2.8 3.23-4.89 7.05-8.09 9.94-4.13 3.68-5.09 9.37-6.12 14.52-4.15.73-8.47 2.15-11.05 5.71-2.29 1.4-4.4 3.06-6.76 4.33-3.2.67-6.46 1.39-9.08 3.48-3.25-.37-6.5-1.11-9.79-.86-3.31.54-6.41 2.33-9.86 1.95-2.7.09-6.35-1.15-7.96 1.82-.64-.9-.88-1.98-1.13-3.02-1.09 1.11-2.25 2.45-3.94 2.48-6.98.45-13.8 2.65-19.92 5.99-2.98 2-5.93 4.03-9 5.89-3.04 3.65-2.83 8.69-2.05 13.1-.02 4.95.97 9.83.9 14.79-.03 8.13 4.29 15.77 3.22 23.94-1 5.89-6.85 8.54-10.04 13.03-2.14 3.44-6.6 4.09-9.03 7.2-.57 1.53-.89 3.13-1.33 4.7 1.64 1.25 3.36 3.17 5.65 2.4 3.54-1.04 7.38-.76 10.84-1.98 3.82-2.97 7.85-5.81 12.87-6.21-2.45 2.74-4.49 6.32-8.14 7.61-4.36 1.39-9.22 3.55-11.09 8.04 4.36 2.56 8.59 6.3 13.99 5.94 4.32-1.42 8.8-2.47 12.8-4.71 4.72-2.78 10.3-2.98 15.54-4.06 1.44-1.72 3.06-3.61 2.98-5.99.52-6.47-4.56-11.59-5.17-17.84-.56-4.68-1.42-9.39-.8-14.11.78-6.23-.96-12.37-2.79-18.25-.74-2.19-.35-4.5-.13-6.73l.45.44.45.44c2.62.34 5.12-1.2 7.79-.79 5.25.57 10.2-1.62 15.4-1.73 3.5-.79 6.83-2.54 10.53-2.2 5.95.43 12.94-1.64 15.5-7.53 1.59-.42 3.09-1.09 4.22-2.32 4.32-1.93 9.25-2.58 13.73-.78 5.32.98 12.02 1.45 16.36-2.19-4.55.03-9.18 1.45-13.77.42-6.08-1.29-12.67-1.22-18.27 1.74 1.23-4.28-.59-8.55-2.86-12.12 2.71.49 5.45.91 8.21.64-2.77-1.5-5.91-1.94-8.98-2.34.21.52.61 1.57.81 2.1-2.95-4.84-8.77-6.25-13.42-8.87 1.6-.71 3.2-1.41 4.83-2.05l-1.81 1.22c.47.43.94.87 1.41 1.3 1.48-.85 3.04-1.57 4.6-2.24.03-.41.1-1.24.13-1.65 5.31-3.58 10.24-9.85 17.43-8.11.01.68.04 2.04.05 2.72.2 1.82 3.3 1.95 3.19 3.95-.63 2.27-1.65 4.39-2.54 6.56 2.8.83 3.34-2.59 4.3-4.45 1.35-3.3-2.38-5.54-4.33-7.51 3.7-.51 7.55-2.32 11.21-.63 3.23.75 6.46 3.36 9.86 1.92 0-.17.01-.51.02-.69-2.49-.26-4.84-1.09-7.07-2.19-.27-.18-.83-.55-1.11-.73 2.48-2.41 2.78-6 2.55-9.24 2.53.1 5.06.08 7.59.01l-.24 1.29c1.3-.68 2.63-1.33 4.16-1.25-5.51 7.15-5.62 16.54-4.77 25.12l-2.29-.28c.34.61 1.02 1.81 1.37 2.42-.69.27-2.05.83-2.73 1.1l-3.27-.72c-.36-.76-.72-1.51-1.08-2.26.89-.93 1.73-1.9 2.54-2.9-2.58 1.09-4.55 3.12-7.01 4.4l-.51-1.77c-1.58-.25-3.15-.52-4.71-.8.2.38.62 1.15.83 1.53 1.19.32 2.38.63 3.57.94-.13 2.12.65 4.06 1.9 5.74-.93.73-1.86 1.47-2.78 2.21-2.34.38-4.65.95-6.9 1.68 2.37 1.9 5.89 1.19 8.32-.12 2.84-3.53 7.11-5.13 11.01-7.13-.42 1.38-.78 2.78-1.09 4.19 1.3-1.76 2.02-3.85 2.86-5.84.82 1.49 1.94 2.7 3.37 3.62-2.84-6.28-2.94-13.39-1.68-20.08.92-4.92 4.23-8.82 6.12-13.36 1.85-3.63 4.19-8.02 8.68-8.61 3.84.03 7.47 2.71 11.34 1.3 1.58-.53 1.68 1.83 2.38 2.7 2.52 2.12 5.07 4.23 7.81 6.06 2.48 1.85 5.97.58 8.43 2.45 1.72 1.07 2.8 2.86 3.8 4.58-.91 2.72-2.36 5.22-3.64 7.78-2.91-1.97-5.86-3.89-9-5.47-1.38-1.66-2.92-3.29-4.99-4.08-3.57-1.78-7.64-.62-11.42-.45-.11-.71-.32-2.14-.43-2.85-3.94 3.14-1.89 8.57-4.21 12.52-.94 2.29-3.08 4.43-2.3 7.09.82 4.85 1.86 10.74-2.08 14.58-2.91 3.77-9.23.88-12.14 4.42 2.59.27 5.08-.7 7.55-1.38 2.87-1.05 6.36-1.91 7.73-4.98 2.67-4.8-.1-10.25.89-15.3 1.19-2.54 2.39-5.08 3.4-7.69 1.57.71 3.76.76 4.69 2.43.94 4.69.62 9.5.7 14.25-1.04 1.59-1.89 3.38-3.41 4.59-2.06 1.08-4.62 1.2-6.23 3.03 6.36 1.17 11.86-4.51 11.68-10.68-.38-4.63-.07-10.06-3.61-13.6.42-1.78.8-3.56 1.08-5.37 2.87.37 5.71.96 8.57 1.44-1.3.06-2.61.12-3.9.2-.94 2.32-2.73 5.28-.32 7.39 4.58 4.25 10.17 7.53 16.04 9.66a3.582 3.582 0 005.06-2.67c1.29-2.2-.72-4.22-1.89-5.91 1.36-2.91 2.65-5.85 4.04-8.75 1.57.36 3.16.54 4.77.53 2.03-1.3 3.54-4.64 1.52-6.54-1.94-2.42-4.64-4.06-7.25-5.65-3.96-2.25-8.26-4.44-12.94-4.23-.66 1.66-1.3 3.33-1.86 5.03-1.27-.88-2.55-1.73-3.83-2.57a31.864 31.864 0 00-8.8-7.8c-4.06-2.43-8.47-5-13.38-4.66m4.53 16.04c.27 4.17-.33 8.3-2 12.15-3.4.55-5.62 3.36-5.09 6.86.97-1.57 1.82-3.19 2.65-4.83 1.2.26 2.4.53 3.6.8.36-4.89 4.69-10.6.84-14.98m-46.08 21.35c-.89.55-1.78 1.11-2.67 1.67-1.84-.66-3.72-1.22-5.67-1.49 2.8 3.65 7.27 1.38 10.59-.15.43-1.64.84-3.3 1.22-4.95-1.29 1.54-2.43 3.2-3.47 4.92m15.16-3.42c1.21 2.93 4.22 3.31 7.03 3.57-.67-.63-1.35-1.26-2.02-1.89-1.69-.51-3.34-1.11-5.01-1.68m7.87 1.08c1.43 2.38 2 5.11 3.14 7.62.06-1.19.19-3.58.26-4.77.72.18 2.17.53 2.89.71-.41-.53-1.22-1.6-1.63-2.13-.47.43-.94.85-1.41 1.28-1.07-.92-2.16-1.82-3.25-2.71m-7.22 4.52c.99 2.23 2.86 4.48 5.55 3.39-1.82-1.18-3.65-2.34-5.55-3.39m26.71.39c-2.21 2.37-4.02 5.11-5.63 7.91 3.28-1.67 5.41-4.73 6.8-8.04-.29.03-.88.1-1.17.13m-45.35.17c2.2 1.51 4.41 3.07 6.94 3.99-.72-1.2-1.44-2.41-2.31-3.5-1.53-.27-3.07-.43-4.63-.49m.69 6.49c2.58 1.18 5.27 2.07 7.98 2.9-.14-.51-.43-1.55-.58-2.07-2.44-.47-4.91-.78-7.4-.83m12.92-.74c1.13 2.54 3.32 4.2 6.21 3.76-1.83-1.62-3.96-2.82-6.21-3.76m-1.42 4.66c-1.32 3.08 3.33-.04 0 0m42.46 8.33c-1.84 1.46-3.85 2.75-6.21 3.16-9.18 1.91-18.43 3.61-27.42 6.34-17.28 4.63-34.53 9.37-51.69 14.45-3.17.89-6.02 2.68-9.22 3.48-4.28 1.26-7.37-3.11-11.4-3.65 2.17 3.11 5.75 4.84 9.28 5.89 4.48.87 7.47-3.1 11.4-4.32.16 12.76.03 25.52.14 38.28 3.33 2.44 6.74 4.77 10.19 7.04 14.87-11 29.93-21.79 45.37-31.97 5.64.86 10.19 5.24 15.81 6.22 3.21-1.21 5.83-3.59 8.72-5.4-.24-2.42.03-5.05-1.18-7.25-4.61-2.38-9.65-3.81-14.43-5.82-.62-6.01-.58-12.04-.8-18.07 4.77.07 9.3-1.61 13.9-2.64 3.02-.61 5.66-2.21 8.14-3.96-.15-.44-.45-1.33-.6-1.78z"/><path d="M152.32 65.93c6.21.09 11.14 4.32 16.25 7.27-.55.31-1.11.62-1.66.92-1.58-.67-3.22-1.19-4.86-1.69a49.88 49.88 0 00-2.93-2.89c.5.66 1.49 1.99 1.99 2.65-2.7-.47-5.44-.28-8.02.66-.67-.94-1.39-1.85-1.96-2.86.29-1.38.78-2.71 1.19-4.06zM132.58 66.66c6.24 2.57 12.69 4.75 18.38 8.47-1.95 2.46-3.56 5.19-4.35 8.25-3.8-.91-7.71-.86-11.56-.4.42-1.63.84-3.26 1.16-4.91-4.91 3.51-2.36 10.17-5.4 14.76-2.21 1.3-3.8-1.13-4.59-2.87-.97 1.27-2.02 2.49-3.07 3.7-1.97-.27-3.93-.57-5.89-.88 1.42-4.97 2-10.72 6.09-14.37 3.77-3.33 6.28-7.75 9.23-11.75m.09 8.95c-1.12 1.2-2.22 2.42-3.32 3.64.48.95.96 1.9 1.43 2.85 2.09-3.27 4.77-6.58 4.36-10.73-.9 1.36-1.71 2.79-2.47 4.24m2.95-.11c.25 2.72 2.56 4.37 4.77 5.55-1.21-2.14-2.89-3.98-4.77-5.55zM180.45 75.82c4.22.15 7.99 2.21 11.55 4.28 2.99 1.84 6.4 3.76 7.37 7.44-.73-.37-2.19-1.12-2.92-1.49.58 1.03 1.14 2.06 1.7 3.1-1.71-.08-3.42-.08-5.1-.37-2.62-1.9-4.67-4.8-8.09-5.34-2.66-.39-4.7-2.1-6.33-4.11.61-1.17 1.22-2.34 1.82-3.51zM161.15 89.39l2.91.2c-.55 1.47-1.11 2.92-1.65 4.39-.41-.27-1.21-.81-1.62-1.07l.36-3.52zM171.47 91.83c5.77.72 10.87 3.9 15.41 7.36 1.71 1.23 2.82 3.04 3.49 5.02-.68-.3-2.03-.88-2.7-1.17.48 1.03.97 2.06 1.44 3.1-7.63-.13-14.22-5.11-19.45-10.25.61-1.35 1.21-2.71 1.81-4.06zM74.16 108.07c8.84-2.85 18.53-.24 26.36 4.25 3.17 3.04 5.28 7.38 5.58 11.75-1.66 5.22-6.03 10.94-12.1 10.64-5.14-.22-9.99 1.62-14.67 3.52 1.8-7.78-2.23-15.64-7.55-21.12-1.09-.96-2.25-2.35-3.85-2.16-5.74.83-10.98 3.46-16.27 5.67-3.89 1.56-6.41 5.11-10.05 7.07-3 1.49-4.25 4.84-4.94 7.9-.25 3.9 1.7 7.53 1.75 11.41.04 5.24 2.66 9.96 3.01 15.15.55 5.74 2.78 11.16 3.29 16.9.14 3.96-2.12 7.36-4.74 10.1-3.55.42-7.38.39-10.47 2.42-2.86 1.53-5.04 4.62-8.56 4.6-3.75.21-7.36 2.46-11.12.87 1.66-1.31 3.43-2.46 5.09-3.76l-4.77.72c1.68-1.73 3.52-3.33 5.82-4.16 3.28-1.12 4.62-4.6 7.02-6.81 2.25-2.42 5.73-3.87 6.79-7.22 2.44-6.76.39-14.03-1.29-20.71-3.05-8-.56-16.7-1.62-24.94-1.13-2.95-.66-6.45 1.48-8.82 4.87-2.86 9.38-6.42 14.74-8.36 5.15-2.37 10.88-3.05 16.5-3.03 1.23 1.54 1 4.4 3.15 5.02.68-1.79.41-3.75.57-5.62-.36-.34-1.07-1.02-1.43-1.36 4.22.32 8.44.67 12.68.68-1.21 1.89-2.41 3.79-3.43 5.79 2.92.16 5.85.21 8.73.76.15.14.45.44.6.58 4.1-.08 8.73 2.61 8.04 7.27.53-1.26 1.09-2.51 1.68-3.74-.85-4.24-5.29-5.09-8.89-5.66l-.54-.38c-2.4-.57-4.9-.24-7.34-.33 1.52-1.07 3.08-2.09 4.61-3.16-1.31-.53-2.62-1.05-3.86-1.73m5.24 2.07c4.1 2.32 8.61 3.9 13.09 5.36-2.78-4.36-8.46-4.73-13.09-5.36m-45.8 11.08c1.24 1.45 2.09 3.7 4.21 3.98 1.57.6 3.04-.31 4.4-.99-2.94-.27-6.03-.74-7.23-3.85-.34.21-1.04.64-1.38.86m-3.78 4.31c.11 2.49.51 4.95.64 7.43l1-1.1c-.39 2.04-.55 4.1-.49 6.17 1.04-2.02 1.79-4.16 2.63-6.27l-1.21.33c1.09-2.67-.5-5.04-2.57-6.56m10.19 49.7c.34.87.68 1.74 1.03 2.61-1.25 3.45-3.32 6.49-5.16 9.63 4.07-2.01 6.84-6.68 6.23-11.23-.52-.25-1.57-.75-2.1-1.01m-14.06 12.74c2.64-1.88 5-4.16 6.91-6.78-3.08 1.32-5.4 3.82-6.91 6.78zM129.68 113.01c-1.33-2.22 1.69-1.8 2.78-2.46l-1.04 1.41c.83.52 2.5 1.56 3.33 2.08-1.6.26-4.88 1.42-5.07-1.03z"/><path d="M52.11 122.11c5.67-2.27 11.22-5.68 17.58-5.19 4.92 5.18 9.61 12.28 8.14 19.73-5.29 3.06-11.72 3.73-17.69 2.77-2.7-.66-5.22.6-7.67 1.53.96 5.15 2.66 10.11 3.94 15.17 1.24 5.2-.02 10.53.36 15.79.74 5.67.87 11.55 3.54 16.75 1.1 3.93 4.37 9.03 1.04 12.65-5.15 2.41-11.27 1.95-16.32 4.76-5.63 2.81-12.32 6.16-18.56 3.39-.95-.76-1.74-1.7-2.59-2.57-.83-.04-2.5-.11-3.33-.15 2.18-4.57 7.78-5.39 12-7.21 4.14-2.5 6.06-7.21 9.43-10.48 1.8-1.82 4.47-3.33 4.58-6.2-.36-8.48-3.5-16.56-3.97-25.04-.12-3.77-2.69-6.96-2.43-10.76.3-3.97-1.31-7.68-2.04-11.51 1.42-2.39 2.12-5.53 4.85-6.83 3.35-1.79 5.54-5.2 9.14-6.6m5.43 8.05c5.36-.84 9.13-5.22 13.61-7.91-5.29 1.04-9.87 4.14-13.61 7.91m-9.92-.77c.69 1.81 2.33 2.67 4.14 3 .3-.39.88-1.16 1.18-1.54-1.79-.46-3.54-1-5.32-1.46m-5.17 11.97l2.48-2.24c.06-1.3.12-2.6.19-3.9.67-1.06 1.32-2.13 1.92-3.22-4.35 1.04-3.77 5.92-4.59 9.36m2.78 8.87c.5.61.5.61 0 0m4.46 6.24c1.09 5.42 1.48 11.14 4.16 16.09-.42-7.57-3.35-14.79-3.62-22.41-.46 2.06-.95 4.2-.54 6.32m-3.1-4.26c-.43 6.4.62 12.85 2.62 18.93-.38-4.71-1.27-9.36-1.38-14.09.05-1.71-.46-3.34-1.24-4.84m9.48 39.65c-.36.59-1.09 1.77-1.46 2.37-1.17.81-2.31 1.7-3.34 2.7 2.28-.34 7.36-2.12 4.8-5.07M41.5 201.4c2.22-2.08 4.04-4.59 5.24-7.4-2.51 1.81-4.55 4.33-5.24 7.4M26.4 204c2.5 1.52 5.22 2.87 8.22 2.89-1.84-2.65-5.16-3.67-8.22-2.89zM130.91 133.95c2.27-.57 4.55-1.13 6.81-1.75.25 6.32.29 12.76 1.05 18.99 5.07 1.87 10.14 3.75 15.17 5.73.27 1.65.54 3.31.8 4.97-2.48 1.69-5 3.35-7.78 4.51-5.14-2.92-10.86-4.49-16.15-7.07-11.85 8.61-23.71 17.2-35.75 25.56-3.16 2.18-5.9 5.09-9.64 6.3-2.36-1.85-4.94-3.41-7.09-5.51-.24-12.39-.05-24.81-.03-37.21 2.51-.85 5.04-1.63 7.57-2.41.61 11.67.16 23.41-.19 35.1.45.06 1.36.19 1.81.25 10.03-7.72 20.79-14.44 31.05-21.84 1.74-1.21 2.84-3.05 4.05-4.73-2.95-1.5-6.11-2.66-8.86-4.53-.36-.97-.67-1.95-.93-2.95 2.29-1.28 4.58-2.55 6.91-3.76 3.54 1.39 7.14 2.68 10.93 3.12.18-4.25.16-8.51.27-12.77z"/><path d="M94.64 143.53c11.46-2.93 22.87-6.08 34.28-9.18.03 3.52.05 7.04.08 10.56-3.94-1.03-8.21-4.73-12.19-2.11-2.01 1.25-4.55 2.11-5.89 4.16.15 1.62.55 3.2.91 4.79 2.9 1.43 5.82 2.81 8.73 4.21-10.84 7.16-21.34 14.82-32.07 22.14.01-10.73-.29-21.46-.78-32.16 2.19-1.11 4.58-1.73 6.93-2.41z"/></g><g fill="#333"><path d="M151.34 64.55c4.91-.34 9.32 2.23 13.38 4.66 3.39 2.03 6.38 4.68 8.8 7.8 1.28.84 2.56 1.69 3.83 2.57.56-1.7 1.2-3.37 1.86-5.03 4.68-.21 8.98 1.98 12.94 4.23 2.61 1.59 5.31 3.23 7.25 5.65 2.02 1.9.51 5.24-1.52 6.54a20.7 20.7 0 01-4.77-.53c-1.39 2.9-2.68 5.84-4.04 8.75 1.17 1.69 3.18 3.71 1.89 5.91a3.582 3.582 0 01-5.06 2.67c-5.87-2.13-11.46-5.41-16.04-9.66-2.41-2.11-.62-5.07.32-7.39 1.29-.08 2.6-.14 3.9-.2-2.86-.48-5.7-1.07-8.57-1.44-.28 1.81-.66 3.59-1.08 5.37 3.54 3.54 3.23 8.97 3.61 13.6.18 6.17-5.32 11.85-11.68 10.68 1.61-1.83 4.17-1.95 6.23-3.03 1.52-1.21 2.37-3 3.41-4.59-.08-4.75.24-9.56-.7-14.25-.93-1.67-3.12-1.72-4.69-2.43-1.01 2.61-2.21 5.15-3.4 7.69-.99 5.05 1.78 10.5-.89 15.3-1.37 3.07-4.86 3.93-7.73 4.98-2.47.68-4.96 1.65-7.55 1.38 2.91-3.54 9.23-.65 12.14-4.42 3.94-3.84 2.9-9.73 2.08-14.58-.78-2.66 1.36-4.8 2.3-7.09 2.32-3.95.27-9.38 4.21-12.52.11.71.32 2.14.43 2.85 3.78-.17 7.85-1.33 11.42.45 2.07.79 3.61 2.42 4.99 4.08 3.14 1.58 6.09 3.5 9 5.47 1.28-2.56 2.73-5.06 3.64-7.78-1-1.72-2.08-3.51-3.8-4.58-2.46-1.87-5.95-.6-8.43-2.45-2.74-1.83-5.29-3.94-7.81-6.06-.7-.87-.8-3.23-2.38-2.7-3.87 1.41-7.5-1.27-11.34-1.3-4.49.59-6.83 4.98-8.68 8.61-1.89 4.54-5.2 8.44-6.12 13.36-1.26 6.69-1.16 13.8 1.68 20.08a9.923 9.923 0 01-3.37-3.62c-.84 1.99-1.56 4.08-2.86 5.84.31-1.41.67-2.81 1.09-4.19-3.9 2-8.17 3.6-11.01 7.13-2.43 1.31-5.95 2.02-8.32.12 2.25-.73 4.56-1.3 6.9-1.68.92-.74 1.85-1.48 2.78-2.21-1.25-1.68-2.03-3.62-1.9-5.74-1.19-.31-2.38-.62-3.57-.94-.21-.38-.63-1.15-.83-1.53 1.56.28 3.13.55 4.71.8l.51 1.77c2.46-1.28 4.43-3.31 7.01-4.4-.81 1-1.65 1.97-2.54 2.9.36.75.72 1.5 1.08 2.26l3.27.72c.68-.27 2.04-.83 2.73-1.1-.35-.61-1.03-1.81-1.37-2.42l2.29.28c-.85-8.58-.74-17.97 4.77-25.12-1.53-.08-2.86.57-4.16 1.25l.24-1.29c-2.53.07-5.06.09-7.59-.01.23 3.24-.07 6.83-2.55 9.24.28.18.84.55 1.11.73 2.23 1.1 4.58 1.93 7.07 2.19-.01.18-.02.52-.02.69-3.4 1.44-6.63-1.17-9.86-1.92-3.66-1.69-7.51.12-11.21.63 1.95 1.97 5.68 4.21 4.33 7.51-.96 1.86-1.5 5.28-4.3 4.45.89-2.17 1.91-4.29 2.54-6.56.11-2-2.99-2.13-3.19-3.95-.01-.68-.04-2.04-.05-2.72-7.19-1.74-12.12 4.53-17.43 8.11-.03.41-.1 1.24-.13 1.65-1.56.67-3.12 1.39-4.6 2.24-.47-.43-.94-.87-1.41-1.3l1.81-1.22c-1.63.64-3.23 1.34-4.83 2.05 4.65 2.62 10.47 4.03 13.42 8.87-.2-.53-.6-1.58-.81-2.1 3.07.4 6.21.84 8.98 2.34-2.76.27-5.5-.15-8.21-.64 2.27 3.57 4.09 7.84 2.86 12.12 5.6-2.96 12.19-3.03 18.27-1.74 4.59 1.03 9.22-.39 13.77-.42-4.34 3.64-11.04 3.17-16.36 2.19-4.48-1.8-9.41-1.15-13.73.78-1.13 1.23-2.63 1.9-4.22 2.32-2.56 5.89-9.55 7.96-15.5 7.53-3.7-.34-7.03 1.41-10.53 2.2-5.2.11-10.15 2.3-15.4 1.73-2.67-.41-5.17 1.13-7.79.79l-.45-.44-.45-.44c-.22 2.23-.61 4.54.13 6.73 1.83 5.88 3.57 12.02 2.79 18.25-.62 4.72.24 9.43.8 14.11.61 6.25 5.69 11.37 5.17 17.84.08 2.38-1.54 4.27-2.98 5.99-5.24 1.08-10.82 1.28-15.54 4.06-4 2.24-8.48 3.29-12.8 4.71-5.4.36-9.63-3.38-13.99-5.94 1.87-4.49 6.73-6.65 11.09-8.04 3.65-1.29 5.69-4.87 8.14-7.61-5.02.4-9.05 3.24-12.87 6.21-3.46 1.22-7.3.94-10.84 1.98-2.29.77-4.01-1.15-5.65-2.4.44-1.57.76-3.17 1.33-4.7 2.43-3.11 6.89-3.76 9.03-7.2 3.19-4.49 9.04-7.14 10.04-13.03 1.07-8.17-3.25-15.81-3.22-23.94.07-4.96-.92-9.84-.9-14.79-.78-4.41-.99-9.45 2.05-13.1 3.07-1.86 6.02-3.89 9-5.89 6.12-3.34 12.94-5.54 19.92-5.99 1.69-.03 2.85-1.37 3.94-2.48.25 1.04.49 2.12 1.13 3.02 1.61-2.97 5.26-1.73 7.96-1.82 3.45.38 6.55-1.41 9.86-1.95 3.29-.25 6.54.49 9.79.86 2.62-2.09 5.88-2.81 9.08-3.48 2.36-1.27 4.47-2.93 6.76-4.33 2.58-3.56 6.9-4.98 11.05-5.71 1.03-5.15 1.99-10.84 6.12-14.52 3.2-2.89 5.29-6.71 8.09-9.94 1.28-1.44 3.27-3.14 5.31-2.09 2.75 1.32 5.5 2.69 8.48 3.42 2.69 1.43 5.44 2.78 7.98 4.49-.69-1.27-1.59-2.44-2-3.84.18-1.85 1.14-3.52 1.73-5.26m.98 1.38c-.41 1.35-.9 2.68-1.19 4.06.57 1.01 1.29 1.92 1.96 2.86 2.58-.94 5.32-1.13 8.02-.66-.5-.66-1.49-1.99-1.99-2.65 1.01.92 1.99 1.88 2.93 2.89 1.64.5 3.28 1.02 4.86 1.69.55-.3 1.11-.61 1.66-.92-5.11-2.95-10.04-7.18-16.25-7.27m-19.74.73c-2.95 4-5.46 8.42-9.23 11.75-4.09 3.65-4.67 9.4-6.09 14.37 1.96.31 3.92.61 5.89.88 1.05-1.21 2.1-2.43 3.07-3.7.79 1.74 2.38 4.17 4.59 2.87 3.04-4.59.49-11.25 5.4-14.76-.32 1.65-.74 3.28-1.16 4.91 3.85-.46 7.76-.51 11.56.4.79-3.06 2.4-5.79 4.35-8.25-5.69-3.72-12.14-5.9-18.38-8.47m47.87 9.16c-.6 1.17-1.21 2.34-1.82 3.51 1.63 2.01 3.67 3.72 6.33 4.11 3.42.54 5.47 3.44 8.09 5.34 1.68.29 3.39.29 5.1.37-.56-1.04-1.12-2.07-1.7-3.1.73.37 2.19 1.12 2.92 1.49-.97-3.68-4.38-5.6-7.37-7.44-3.56-2.07-7.33-4.13-11.55-4.28m-19.3 13.57l-.36 3.52c.41.26 1.21.8 1.62 1.07.54-1.47 1.1-2.92 1.65-4.39l-2.91-.2m10.32 2.44c-.6 1.35-1.2 2.71-1.81 4.06 5.23 5.14 11.82 10.12 19.45 10.25-.47-1.04-.96-2.07-1.44-3.1.67.29 2.02.87 2.7 1.17-.67-1.98-1.78-3.79-3.49-5.02-4.54-3.46-9.64-6.64-15.41-7.36m-97.31 16.24c1.24.68 2.55 1.2 3.86 1.73-1.53 1.07-3.09 2.09-4.61 3.16 2.44.09 4.94-.24 7.34.33l.54.38c3.6.57 8.04 1.42 8.89 5.66-.59 1.23-1.15 2.48-1.68 3.74.69-4.66-3.94-7.35-8.04-7.27-.15-.14-.45-.44-.6-.58-2.88-.55-5.81-.6-8.73-.76 1.02-2 2.22-3.9 3.43-5.79-4.24-.01-8.46-.36-12.68-.68.36.34 1.07 1.02 1.43 1.36-.16 1.87.11 3.83-.57 5.62-2.15-.62-1.92-3.48-3.15-5.02-5.62-.02-11.35.66-16.5 3.03-5.36 1.94-9.87 5.5-14.74 8.36-2.14 2.37-2.61 5.87-1.48 8.82 1.06 8.24-1.43 16.94 1.62 24.94 1.68 6.68 3.73 13.95 1.29 20.71-1.06 3.35-4.54 4.8-6.79 7.22-2.4 2.21-3.74 5.69-7.02 6.81-2.3.83-4.14 2.43-5.82 4.16l4.77-.72c-1.66 1.3-3.43 2.45-5.09 3.76 3.76 1.59 7.37-.66 11.12-.87 3.52.02 5.7-3.07 8.56-4.6 3.09-2.03 6.92-2 10.47-2.42 2.62-2.74 4.88-6.14 4.74-10.1-.51-5.74-2.74-11.16-3.29-16.9-.35-5.19-2.97-9.91-3.01-15.15-.05-3.88-2-7.51-1.75-11.41.69-3.06 1.94-6.41 4.94-7.9 3.64-1.96 6.16-5.51 10.05-7.07 5.29-2.21 10.53-4.84 16.27-5.67 1.6-.19 2.76 1.2 3.85 2.16 5.32 5.48 9.35 13.34 7.55 21.12 4.68-1.9 9.53-3.74 14.67-3.52 6.07.3 10.44-5.42 12.1-10.64-.3-4.37-2.41-8.71-5.58-11.75-7.83-4.49-17.52-7.1-26.36-4.25m55.52 4.94c.19 2.45 3.47 1.29 5.07 1.03-.83-.52-2.5-1.56-3.33-2.08l1.04-1.41c-1.09.66-4.11.24-2.78 2.46m-77.57 9.1c-3.6 1.4-5.79 4.81-9.14 6.6-2.73 1.3-3.43 4.44-4.85 6.83.73 3.83 2.34 7.54 2.04 11.51-.26 3.8 2.31 6.99 2.43 10.76.47 8.48 3.61 16.56 3.97 25.04-.11 2.87-2.78 4.38-4.58 6.2-3.37 3.27-5.29 7.98-9.43 10.48-4.22 1.82-9.82 2.64-12 7.21.83.04 2.5.11 3.33.15.85.87 1.64 1.81 2.59 2.57 6.24 2.77 12.93-.58 18.56-3.39 5.05-2.81 11.17-2.35 16.32-4.76 3.33-3.62.06-8.72-1.04-12.65-2.67-5.2-2.8-11.08-3.54-16.75-.38-5.26.88-10.59-.36-15.79-1.28-5.06-2.98-10.02-3.94-15.17 2.45-.93 4.97-2.19 7.67-1.53 5.97.96 12.4.29 17.69-2.77 1.47-7.45-3.22-14.55-8.14-19.73-6.36-.49-11.91 2.92-17.58 5.19z"/><path d="M132.67 75.61c.76-1.45 1.57-2.88 2.47-4.24.41 4.15-2.27 7.46-4.36 10.73-.47-.95-.95-1.9-1.43-2.85 1.1-1.22 2.2-2.44 3.32-3.64zM135.62 75.5c1.88 1.57 3.56 3.41 4.77 5.55-2.21-1.18-4.52-2.83-4.77-5.55zM155.87 80.59c3.85 4.38-.48 10.09-.84 14.98-1.2-.27-2.4-.54-3.6-.8-.83 1.64-1.68 3.26-2.65 4.83-.53-3.5 1.69-6.31 5.09-6.86 1.67-3.85 2.27-7.98 2-12.15zM109.79 101.94c1.04-1.72 2.18-3.38 3.47-4.92-.38 1.65-.79 3.31-1.22 4.95-3.32 1.53-7.79 3.8-10.59.15 1.95.27 3.83.83 5.67 1.49.89-.56 1.78-1.12 2.67-1.67zM124.95 98.52c1.67.57 3.32 1.17 5.01 1.68.67.63 1.35 1.26 2.02 1.89-2.81-.26-5.82-.64-7.03-3.57zM132.82 99.6c1.09.89 2.18 1.79 3.25 2.71.47-.43.94-.85 1.41-1.28.41.53 1.22 1.6 1.63 2.13-.72-.18-2.17-.53-2.89-.71-.07 1.19-.2 3.58-.26 4.77-1.14-2.51-1.71-5.24-3.14-7.62zM125.6 104.12c1.9 1.05 3.73 2.21 5.55 3.39-2.69 1.09-4.56-1.16-5.55-3.39zM152.31 104.51c.29-.03.88-.1 1.17-.13-1.39 3.31-3.52 6.37-6.8 8.04 1.61-2.8 3.42-5.54 5.63-7.91zM106.96 104.68c1.56.06 3.1.22 4.63.49.87 1.09 1.59 2.3 2.31 3.5-2.53-.92-4.74-2.48-6.94-3.99zM79.4 110.14c4.63.63 10.31 1 13.09 5.36-4.48-1.46-8.99-3.04-13.09-5.36zM107.65 111.17c2.49.05 4.96.36 7.4.83.15.52.44 1.56.58 2.07-2.71-.83-5.4-1.72-7.98-2.9zM120.57 110.43c2.25.94 4.38 2.14 6.21 3.76-2.89.44-5.08-1.22-6.21-3.76zM119.15 115.09c3.33-.04-1.32 3.08 0 0zM33.6 121.22c.34-.22 1.04-.65 1.38-.86 1.2 3.11 4.29 3.58 7.23 3.85-1.36.68-2.83 1.59-4.4.99-2.12-.28-2.97-2.53-4.21-3.98zM57.54 130.16c3.74-3.77 8.32-6.87 13.61-7.91-4.48 2.69-8.25 7.07-13.61 7.91zM161.61 123.42c.15.45.45 1.34.6 1.78-2.48 1.75-5.12 3.35-8.14 3.96-4.6 1.03-9.13 2.71-13.9 2.64.22 6.03.18 12.06.8 18.07 4.78 2.01 9.82 3.44 14.43 5.82 1.21 2.2.94 4.83 1.18 7.25-2.89 1.81-5.51 4.19-8.72 5.4-5.62-.98-10.17-5.36-15.81-6.22-15.44 10.18-30.5 20.97-45.37 31.97-3.45-2.27-6.86-4.6-10.19-7.04-.11-12.76.02-25.52-.14-38.28-3.93 1.22-6.92 5.19-11.4 4.32-3.53-1.05-7.11-2.78-9.28-5.89 4.03.54 7.12 4.91 11.4 3.65 3.2-.8 6.05-2.59 9.22-3.48 17.16-5.08 34.41-9.82 51.69-14.45 8.99-2.73 18.24-4.43 27.42-6.34 2.36-.41 4.37-1.7 6.21-3.16m-30.7 10.53c-.11 4.26-.09 8.52-.27 12.77-3.79-.44-7.39-1.73-10.93-3.12-2.33 1.21-4.62 2.48-6.91 3.76.26 1 .57 1.98.93 2.95 2.75 1.87 5.91 3.03 8.86 4.53-1.21 1.68-2.31 3.52-4.05 4.73-10.26 7.4-21.02 14.12-31.05 21.84-.45-.06-1.36-.19-1.81-.25.35-11.69.8-23.43.19-35.1-2.53.78-5.06 1.56-7.57 2.41-.02 12.4-.21 24.82.03 37.21 2.15 2.1 4.73 3.66 7.09 5.51 3.74-1.21 6.48-4.12 9.64-6.3 12.04-8.36 23.9-16.95 35.75-25.56 5.29 2.58 11.01 4.15 16.15 7.07 2.78-1.16 5.3-2.82 7.78-4.51-.26-1.66-.53-3.32-.8-4.97-5.03-1.98-10.1-3.86-15.17-5.73-.76-6.23-.8-12.67-1.05-18.99-2.26.62-4.54 1.18-6.81 1.75m-36.27 9.58c-2.35.68-4.74 1.3-6.93 2.41.49 10.7.79 21.43.78 32.16 10.73-7.32 21.23-14.98 32.07-22.14-2.91-1.4-5.83-2.78-8.73-4.21-.36-1.59-.76-3.17-.91-4.79 1.34-2.05 3.88-2.91 5.89-4.16 3.98-2.62 8.25 1.08 12.19 2.11-.03-3.52-.05-7.04-.08-10.56-11.41 3.1-22.82 6.25-34.28 9.18zM29.82 125.53c2.07 1.52 3.66 3.89 2.57 6.56l1.21-.33c-.84 2.11-1.59 4.25-2.63 6.27-.06-2.07.1-4.13.49-6.17l-1 1.1c-.13-2.48-.53-4.94-.64-7.43zM47.62 129.39c1.78.46 3.53 1 5.32 1.46-.3.38-.88 1.15-1.18 1.54-1.81-.33-3.45-1.19-4.14-3zM42.45 141.36c.82-3.44.24-8.32 4.59-9.36-.6 1.09-1.25 2.16-1.92 3.22-.07 1.3-.13 2.6-.19 3.9l-2.48 2.24zM45.23 150.23c.5.61.5.61 0 0zM49.69 156.47c-.41-2.12.08-4.26.54-6.32.27 7.62 3.2 14.84 3.62 22.41-2.68-4.95-3.07-10.67-4.16-16.09zM46.59 152.21c.78 1.5 1.29 3.13 1.24 4.84.11 4.73 1 9.38 1.38 14.09-2-6.08-3.05-12.53-2.62-18.93zM40.01 175.23c.53.26 1.58.76 2.1 1.01.61 4.55-2.16 9.22-6.23 11.23 1.84-3.14 3.91-6.18 5.16-9.63-.35-.87-.69-1.74-1.03-2.61zM25.95 187.97c1.51-2.96 3.83-5.46 6.91-6.78-1.91 2.62-4.27 4.9-6.91 6.78zM56.07 191.86c2.56 2.95-2.52 4.73-4.8 5.07 1.03-1 2.17-1.89 3.34-2.7.37-.6 1.1-1.78 1.46-2.37zM41.5 201.4c.69-3.07 2.73-5.59 5.24-7.4-1.2 2.81-3.02 5.32-5.24 7.4zM26.4 204c3.06-.78 6.38.24 8.22 2.89-3-.02-5.72-1.37-8.22-2.89z"/></g></svg>