<svg width="212pt" height="275pt" viewBox="0 0 212 275" xmlns="http://www.w3.org/2000/svg"><g fill="#FFF"><path d="M0 0h212v275H0V0m81.55 66.38c-.21 2.78-.93 8.16 3.45 7.54-.16-1.71-2.17-2.48-3.03-3.8 1.8.71 3.59 1.45 5.39 2.14-1.12 1.71-2.59 3.51-2.3 5.7.31 6.3 2.57 12.38 1.57 18.73 1.64-2.3 1.42-5.22 1.67-7.9.89 3.02 2.41 6.26 5.79 7.01 3.96 2.23 8.3.22 12.41-.21-2.38 2.59-5.4 4.49-7.75 7.13-1.13-.4-2.27-.78-3.41-1.15-1.34-2.13-2.65-4.34-4.65-5.92.91 2.2 2.37 4.09 3.87 5.92-2.8.74-5.38 2.09-7.88 3.53.12-1.83.19-3.66.19-5.49-.83 1.3-1.3 2.79-2.18 4.06-1.65.68-3.51.59-5.22 1.07 1.36.4 2.74.7 4.12 1 .03 1.27.09 2.55.17 3.82 2.58-1.75 4.86-4 7.79-5.17 2.55-.82 5.3-.45 7.72.63.03-.51.1-1.52.13-2.03 1.85-1.26 3.81-2.38 5.55-3.8 2.76-2.17 3.89-5.61 5.82-8.43-2.4 7.01.66 14.22 1.25 21.28-1.06 2.08-4 1.93-5.9 2.94.2.43.6 1.28.8 1.71-.2.36-.59 1.08-.79 1.45 1.9.48 3.77 1.1 5.65 1.67-.87-1.8-2.45-2.95-4.11-3.95 2.33-.76 4.83-.95 6.78.82-.12-4.66-1.63-9.09-2.32-13.66-.6-3.65 2.53-6.08 4.2-8.9-1.92 1.02-3.65 2.32-5.34 3.68.72-3.23 1.2-6.52 2.09-9.71.65-2.59 3.26-3.82 5.17-5.39.63.42 1.88 1.26 2.5 1.68-1.35 2.6-2.63 5.26-3.24 8.14 2.01-1.98 3.01-4.66 4.17-7.18-.29-.47-.57-.95-.84-1.42.52-3.11 1.34-6.15 2.17-9.18-2.01 1.54-3.9 3.22-5.95 4.72.81.49 1.61 1 2.41 1.52-4.6.57-9.27-.9-13.8.57-.12-1.47-.24-2.95-.35-4.42-.41-.14-1.24-.43-1.66-.57.42 4.46.62 8.98.13 13.45-.45 2.08-1.94 3.88-3.81 4.86-3.99.87-9.96-1.51-8.97-6.48-1.58-1.31-3-2.78-4.29-4.38.3-.72.59-1.44.89-2.17-1.95-2.99-.97-7.4 1.8-9.55 4.86-2.68 11.49-.37 14.1 4.45.25-.82.38-1.66.38-2.51-2.51-3.27-6.87-5.07-10.96-4.18-2.06.11-4.24 1.47-6.23.39-1.64-.72-3.1-1.76-4.58-2.74 1.98-2.26 4.83-3.51 7.8-3.7 5.22-.45 11.34-.56 15.18 3.66l-3.6 3.75 2.78-.48c-.02.48-.07 1.44-.1 1.92.29.14.86.41 1.14.55 1.81-1.7 1.07-4.32 1.06-6.48-1.56-3.06-5.51-3.58-8.55-4.19-5.54-1.11-12.05-.39-16.28 3.65m23.78 7.67c-.04.2-.13.59-.17.79 3.92.28 6.91-3.57 10.84-3.92 4.61-.54 9.39.04 13.79 1.53-.42 7.86-1.58 15.87-5.14 22.98-2.23 4.27-6.46 6.86-9.53 10.44.33.38 1.01 1.14 1.34 1.52-.07 1.91-.05 3.82-.1 5.72.11 2.13-1.99 3.71-1.84 5.82.58 2.35 1.52 4.58 2.13 6.91-2.19-2.04-5.05-5.48-8.3-3.11-1.3-2.13-3.57-3.1-5.76-4.05-2.02 1.66-2.69 4.08-2.58 6.63 1-1.51 1.87-3.1 2.71-4.7 1.59.96 3.07 2.07 4.43 3.33-3.26.52-5.3 2.89-7.33 5.23-1.38-.13-2.57-.9-3.81-1.45-1.66-.08-3.33-.17-4.99-.31a34.982 34.982 0 01-4.24 3.34c-.07-1.15-.2-3.45-.26-4.59-.62 1.25-2.33 2.83-.66 4.04 1.59 2.59 4.4.62 6.12-.64 2.51.01 4.95.57 7.23 1.6 2.4-1.75 4.53-3.8 6.75-5.76 1.88 1.97 2.59 5.12.85 7.42-1.46.38-2.96.13-4.37-.31 1.43 1.78.35 3.17-1.22 4.35-1.46-1.22-2.77-2.6-4.3-3.74-1.94-.53-3.97-.6-5.95-.97-1.58 1.02-3.24 1.93-4.92 2.78-.13-.93-.38-2.79-.51-3.72-.36.65-1.09 1.95-1.45 2.6a87.633 87.633 0 00-5.01-4.2c.72-4.72 4.02-9.3 2.21-14.11 2.16.3 4.31.72 6.5.76 1.09-1.33-.82-1.86-1.64-2.52-2.61 1.06-5.25 2-8.06 2.44-2.37.46-3.34 2.82-4.02 4.85 2.08-1.55 4.05-3.26 6.28-4.6-.35 4.66-2.09 9.02-3.58 13.4-1.03 3.12-3.46 5.39-5.73 7.63 1.05-.37 2.1-.74 3.16-1.11.98 4.35.81 8.89-.66 13.11-1.72 4.8-.94 10.16 1.27 14.66 1.55 2.31 3.87 4.15 4.49 7-1.91 1.14-3.66 2.51-5.52 3.72-2.66-1.11-5.62-2.26-7.42-4.62.46-1.69 1.14-3.3 1.86-4.89-1.1-3.98-.99-8.17-1.94-12.18-1.46-6.1-1.34-12.44-.97-18.65 1.02-3.71.7-7.58 1.27-11.32 1.76-4.01 2.27-8.33 2.9-12.61.67-4.01 5.17-4.88 7.78-7.27 2.78-2.69 6.61-3.93 9.3-6.72-5.66 1.13-10.05 5.08-14.71 8.18-4.1 2.71-5.8 8.28-4.21 12.87-1.85 2.4-3.4 5.24-3.15 8.37.33 4.17-.67 8.25-1.38 12.32-.54.19-1.64.58-2.19.77-.93 3.24.04 6.38 2.78 8.4-.18 7.27 4.08 14.58 1.14 21.71.39 1.2.8 2.41 1.25 3.6 2.44 1.74 4.87 3.73 7.85 4.41.93-.56 2.77-1.7 3.69-2.26-.19.65-.58 1.96-.77 2.61 3.79-1.92 7.92-3.04 11.81-4.73.93 2.89 1.01 5.91 1.3 8.9 1.77 1.21 4.27 1.76 4.85 4.14 2.27 4.25 1.37 9.11.9 13.67-1.14 4.47-3.18 8.74-3.72 13.36.21 4.81 2.17 9.32 2.9 14.05.39 3.29.08 6.62-.37 9.88.81 3.15.84 6.49 2.24 9.47.87 1.82 1.14 3.82 1.32 5.81 3.32 4.31 9.9 5.53 14.37 2.36 2.66.07 3.77-1.87 3.67-4.31-3.74-4.42-7.27-9.04-9.82-14.27-1.82-4.24-1.14-8.93-1.31-13.4.69.5 1.39 1.01 2.09 1.52 9.18-3.72 18.67-6.66 27.74-10.64.25-1.74.53-3.47.82-5.19-2.08-.91-4.19-2.92-6.6-1.94-4.53 1.41-8.96 3.13-13.47 4.64.17-7.51.51-15.01.44-22.52 6.7-1.49 13.33-3.35 19.77-5.72 2.25-.6 1.49-3.43 1.68-5.16 2.04 1.94 4.58 3.16 6.97 4.59-.64 4.56-2.1 9.28-1.07 13.86 2.16 5.04 5.57 10.17 4.31 15.93-1.28 4.61-2.47 9.34-1.82 14.17 2.54 1.19 5.32 1.64 8.1 1.15 3.04-.66 5.63 1.24 8.22 2.47 4.73.9 10.42.2 13.07-4.36-1.08-1.05-1.99-2.31-3.26-3.12-1.94-.77-4.19-.92-5.78-2.37-2.8-2.35-4.75-5.59-7.94-7.48-2.36-6.54-.49-13.57-1.69-20.28-.94-4.93-.8-10.04.1-14.96.61-2.81-.89-5.46-1.94-7.97-2.15-3.66-6.84-4.2-9.74-7.05-3.29-2.98-7.46-4.59-11.25-6.76-4.5-3.34-10.44-2.88-15.73-3.38-1.13-2.3-3.11-4.5-2.4-7.23.7-4.16-.58-8.61 1.41-12.5 1.69-3.93 1.17-8.35.19-12.38.89-4.54.59-9.15.96-13.73 2.11-4.72 7.36-7.3 9.26-12.11 1.64-7.49 3.88-15.04 2.87-22.8-3.56-1.67-7.57-1.53-11.4-1.87-5.01-.35-9.31 2.61-13.58 4.75m7.79 30.27c3.06-2.17 5.68-5.73 4.71-9.68-1.93 3.03-3.32 6.37-4.71 9.68M101 106.58c.76 2.95 1.91 5.81 2.27 8.86-3.08 1.41-6.85 2.7-8.24 6.11-2.62-.35-5.28-.35-7.88-.86-1.44-.81-2.74-1.83-4.15-2.69.6 1.35.81 3.15 2.42 3.7 3.19 1.52 6.55 2.67 9.88 3.84-.3-.54-.89-1.62-1.19-2.16 3.57-2.66 7.43-4.92 11.24-7.22-.96-3.39-2.2-6.75-4.35-9.58m-46.73 70.7c-.13 2.82-.52 5.99 2.28 7.68 5.11-2.11 10.42-3.71 15.48-5.96-5.74-.61-10.57 3.23-16.05 4.21-.11-1.72-.18-3.44-.22-5.15 3.32-1.49 7.23-2.11 10.07-4.39l-.42-.34c-3.88.73-7.5 2.45-11.14 3.95z"/><path d="M106.23 83.03c2.86-.88 5.85-.73 8.79-.48-2.86 4.55-5.59 9.19-9.99 12.48.7-3.97 1.12-7.98 1.2-12zM84.08 105.96c3.06-1.42.01 3.34 0 0zM107.49 125.35c.64-.52 1.91-1.56 2.54-2.08 2.61.51 4.25 2.97 6.75 3.81-.22 3.06-1.4 5.91-2.9 8.56-.35-.55-.7-1.1-1.04-1.65 1.28-2.1 1.93-4.48 2.42-6.86-3.05 1.72-3.23 5.43-3.75 8.5.46.12 1.37.36 1.82.48-.28 2.35-.45 4.71-.63 7.07.39.35 1.16 1.05 1.55 1.4-3.24 1-6.5 1.99-9.86 2.49-3.73-4.27-6.86-9.75-12.73-11.27 1.46 1.81 3.4 3.15 5.55 4.03.98 3.41 3.35 5.93 6.58 7.38-5.13-.95-10.42-.98-15.43-2.48-.42-1.82-.86-3.64-1.3-5.45.44-.37 1.31-1.12 1.75-1.5-1.3-.74-2.68-1.36-4.01-2.04 2.44-.2 4.95-.42 7.14-1.63 3.26-.42 5.5 1.83 7.59 3.96 1.49-.43 2.99-.81 4.51-1.16 1.02-.86 2.04-1.72 3.08-2.56.34 2.85-.35 6.15 1.66 8.52.54-2.74-.1-5.47-.52-8.17.27-1.58.9-3.08 1.16-4.67-.32-1.67-1.26-3.14-1.93-4.68zM75.28 135.83c.74-1.66 1.93-3.09 2.9-4.62 1.74 1.52 3.49 3.01 5.32 4.42.54.83 1.09 1.66 1.64 2.49.33 2.43.86 4.82 1.46 7.19a52.812 52.812 0 01-3.71 5.08c-.34 4.69 2.06 8.83 3.42 13.15-3.82-2.81-7.14-6.23-11.01-8.98-.16-.63-.49-1.88-.65-2.51 2.33-5.18 1.12-10.81.63-16.22zM62.32 140.1c.3-.01.9-.02 1.19-.03.06 1.73.14 3.46.23 5.18-.57-.72-1.14-1.45-1.71-2.18.07-.74.22-2.23.29-2.97z"/><path d="M87.92 146.06c4.07 2.2 8.73 2.53 13.22 3.17 3.31.49 6.46-.82 9.61-1.59 1.2.61 2.41 1.2 3.62 1.8.8 1.2 1.38 2.67 2.65 3.49 3.69 1.24 7.69.88 11.43 1.92-3.06 2.03-6.06 4.63-7.35 8.18-.41 2.92-.74 5.86-1.24 8.78-1.5-1.43-2.98-3.05-5.01-3.71-2.01.16-3.97.64-5.96.95.04.78.13 2.35.17 3.13-4.8-5.59-15.43-4.12-17.84 3.13-1.44-3.86-1.78-8.13-1.2-12.19 1.33-3.95 4.15-7.13 6.47-10.52 2.71.12 5.43-.06 7.88-1.34-4.96-.08-9.84-.79-14.54-2.42-.67 1.36-1.33 2.72-2 4.09.1.87.31 2.62.41 3.49.74-2.07 1.5-4.13 2.33-6.16 1.49.54 2.98 1.1 4.46 1.67-1.92 3.76-5.79 5.55-9.17 7.69-.31-3.6-2.01-7.21-.72-10.8.97-.88 1.89-1.81 2.78-2.76m10.59 12.41c5.44-2.11 10.19-5.71 15.6-7.98-6.08.19-11.68 3.44-15.6 7.98m3.9-.29c4.23-1.71 9.21-2.06 12.86-4.89-4.54.77-9.23 1.89-12.86 4.89m-6.56 4.33c3.17.11 6.48-.2 9.01-2.34-3.12.21-6.16 1.06-9.01 2.34zM75.73 160.43c-1.5.25-1.61-3.3-.05-3.06.78 1 .8 2.02.05 3.06z"/><path d="M123.12 162.75c1.75-2.96 4.24-6.12 8.06-6.01 7.83 1.48 13.18 7.84 20.14 11.1 2.46 1.6 2.79 4.87 4.17 7.27-.79 4.61-1.55 9.3-1.33 13.98 1.86 7.75-.09 15.82 2.31 23.49 2.96 2.36 5.31 5.32 7.8 8.14 2.46 2.8 6.88 2.19 9.17 5.21-3.96 3.33-9.43 2.68-13.83.61-3.02-1.52-6.44-.41-9.64-.58-1.44.16-2.98-1.43-2.5-2.89.21-3.08.54-6.18 1.51-9.12 0-4.46.94-9.31-1.41-13.36-3.09-5.49-2.29-11.99-2.82-18.01 1.13-.52 2.24-1.07 3.33-1.64-2.96-1.26-6.16-2.13-8.57-4.39-5.2-4.38-12.7-.79-18.11-4.76 1.07-2.9 1.67-5.95 1.72-9.04m22.38 4.63c.68 2.04 1.48 4.03 2.3 6.02-.53.97-1.1 1.91-1.7 2.84-3.19-.28-5.5-2.67-8.08-4.29 1.42 2.14 3.14 4.71 5.98 4.85 1.99.22 3.65-1.09 5.36-1.88-.28-2.93-1.33-5.82-3.86-7.54m4.79 47.94c-.94 1.53-.69 5.04 1.31 5.43.01-1.6.09-4.6-1.31-5.43zM90.03 159c.57-.59.57-.59 0 0zM77.06 158.26c2.77 2.42 5.52 4.86 8.36 7.2-1.6.76-3.19 1.55-4.77 2.36-1.19-1.34-2.49-2.6-3.48-4.11-.45-1.78-.05-3.64-.11-5.45zM88.34 162.54c-.38-1.15.08-3.86 1.69-3.54.61 1.14-.31 3.62-1.69 3.54zM81.06 168.65c2.39-.61 4.7-1.48 6.93-2.53 0 1.81.03 3.63.11 5.44-3.04 1.05-6.08 2.14-8.97 3.56-.55-.28-1.11-.56-1.66-.85 1.36-.83 2.68-1.71 3.98-2.61-.09-.75-.29-2.26-.39-3.01z"/><path d="M111.3 171.31c.96-.46 1.93-.88 2.92-1.27 1.62.95 2.6 2.6 3.63 4.11 1.22-.06 2.45-.13 3.67-.23 4.16 2.35 8.97 2.6 13.63 2.31.12 1.46.32 2.91.5 4.36-7.36 2.85-15.1 4.46-22.62 6.79.55-4.57-.49-9.06-2.53-13.13.2-.74.6-2.21.8-2.94zM96.57 171.57c2.94-.99 6.2-.56 9.2-.03 4.21 4.45 5.82 10.54 5.98 16.53-1.01-2.56-2.6-4.83-5.05-6.18a45.64 45.64 0 002.12 3.72c.24 1.14.47 2.27.71 3.41.45.15 1.34.46 1.78.62-.56-.11-1.69-.34-2.26-.45.97 4.56-1.92 8.58-2.96 12.86-2.49 4.9-5.14 10.18-3.8 15.88 2.26-3.76 1.21-8.52 3.53-12.3.33 3.47.8 7.17-.66 10.48-2.02 4.67-2.79 9.92-1.7 14.94-2.91 1.65-4.51 4.56-5.62 7.61 2.75-1.1 3.52-4.06 4.8-6.42.35.28 1.05.85 1.41 1.13 1.62 7.07 6.82 12.5 11.01 18.18-.54.38-1.63 1.13-2.17 1.51-1.31-1.18-2.11-3.73-4.24-3.23-2.86.43-6.05-.19-8.64 1.34.12-5.05-3.48-9.21-3.89-14.18.2-2.71.95-5.4.51-8.13-.48-5.06-2.67-9.78-3.04-14.86-.1-4.22 1.54-8.21 2.92-12.12 1.22 2.31 2.22 4.75 3.77 6.86-.62-5.27-3.41-10.3-2.6-15.71.48-5.86-2.06-11.29-5.73-15.71 1.44-1.98 2.58-4.31 4.62-5.75m3.9 15c2.65-.52 4.35-2.61 5.52-4.87a23.964 23.964 0 00-5.52 4.87m2.69 9.69c.13 1.67 3.1 1.75 3.31.09-.23-1.56-3.11-1.74-3.31-.09zM91.24 180.27c.6.53.6.53 0 0z"/><path d="M108.57 199.88c1.4-4.25 2.77-8.54 4.73-12.58 1.9 2.95.87 6.42.8 9.66-.17 5.32-.23 10.64-.07 15.96 5.1-1.3 10-3.26 15-4.85 1.72-.76 3.38.47 4.99.95-.35 1.17-.7 2.35-1.06 3.52-8.66 3.3-17.44 6.28-25.99 9.88-.52-.51-1.03-1.02-1.54-1.53.77-2.24 1.73-4.43 2.28-6.74.96-4.71-.69-9.64.86-14.27zM100.86 252.37c1.11-.3 2.22-.56 3.34-.78 2.43.35 5.19-.76 7.16 1.23-3.22 2.27-7.49 2.15-10.5-.45z"/></g><g fill="#333"><path d="M81.55 66.38c4.23-4.04 10.74-4.76 16.28-3.65 3.04.61 6.99 1.13 8.55 4.19.01 2.16.75 4.78-1.06 6.48-.28-.14-.85-.41-1.14-.55.03-.48.08-1.44.1-1.92l-2.78.48 3.6-3.75c-3.84-4.22-9.96-4.11-15.18-3.66-2.97.19-5.82 1.44-7.8 3.7 1.48.98 2.94 2.02 4.58 2.74 1.99 1.08 4.17-.28 6.23-.39 4.09-.89 8.45.91 10.96 4.18 0 .85-.13 1.69-.38 2.51-2.61-4.82-9.24-7.13-14.1-4.45-2.77 2.15-3.75 6.56-1.8 9.55-.3.73-.59 1.45-.89 2.17a30.63 30.63 0 004.29 4.38c-.99 4.97 4.98 7.35 8.97 6.48 1.87-.98 3.36-2.78 3.81-4.86.49-4.47.29-8.99-.13-13.45.42.14 1.25.43 1.66.57.11 1.47.23 2.95.35 4.42 4.53-1.47 9.2 0 13.8-.57-.8-.52-1.6-1.03-2.41-1.52 2.05-1.5 3.94-3.18 5.95-4.72-.83 3.03-1.65 6.07-2.17 9.18.27.47.55.95.84 1.42-1.16 2.52-2.16 5.2-4.17 7.18.61-2.88 1.89-5.54 3.24-8.14-.62-.42-1.87-1.26-2.5-1.68-1.91 1.57-4.52 2.8-5.17 5.39-.89 3.19-1.37 6.48-2.09 9.71 1.69-1.36 3.42-2.66 5.34-3.68-1.67 2.82-4.8 5.25-4.2 8.9.69 4.57 2.2 9 2.32 13.66-1.95-1.77-4.45-1.58-6.78-.82 1.66 1 3.24 2.15 4.11 3.95-1.88-.57-3.75-1.19-5.65-1.67.2-.37.59-1.09.79-1.45-.2-.43-.6-1.28-.8-1.71 1.9-1.01 4.84-.86 5.9-2.94-.59-7.06-3.65-14.27-1.25-21.28-1.93 2.82-3.06 6.26-5.82 8.43-1.74 1.42-3.7 2.54-5.55 3.8-.03.51-.1 1.52-.13 2.03-2.42-1.08-5.17-1.45-7.72-.63-2.93 1.17-5.21 3.42-7.79 5.17-.08-1.27-.14-2.55-.17-3.82-1.38-.3-2.76-.6-4.12-1 1.71-.48 3.57-.39 5.22-1.07.88-1.27 1.35-2.76 2.18-4.06 0 1.83-.07 3.66-.19 5.49 2.5-1.44 5.08-2.79 7.88-3.53-1.5-1.83-2.96-3.72-3.87-5.92 2 1.58 3.31 3.79 4.65 5.92 1.14.37 2.28.75 3.41 1.15 2.35-2.64 5.37-4.54 7.75-7.13-4.11.43-8.45 2.44-12.41.21-3.38-.75-4.9-3.99-5.79-7.01-.25 2.68-.03 5.6-1.67 7.9 1-6.35-1.26-12.43-1.57-18.73-.29-2.19 1.18-3.99 2.3-5.7-1.8-.69-3.59-1.43-5.39-2.14.86 1.32 2.87 2.09 3.03 3.8-4.38.62-3.66-4.76-3.45-7.54m24.68 16.65c-.08 4.02-.5 8.03-1.2 12 4.4-3.29 7.13-7.93 9.99-12.48-2.94-.25-5.93-.4-8.79.48m-22.15 22.93c.01 3.34 3.06-1.42 0 0z"/><path d="M105.33 74.05c4.27-2.14 8.57-5.1 13.58-4.75 3.83.34 7.84.2 11.4 1.87 1.01 7.76-1.23 15.31-2.87 22.8-1.9 4.81-7.15 7.39-9.26 12.11-.37 4.58-.07 9.19-.96 13.73.98 4.03 1.5 8.45-.19 12.38-1.99 3.89-.71 8.34-1.41 12.5-.71 2.73 1.27 4.93 2.4 7.23 5.29.5 11.23.04 15.73 3.38 3.79 2.17 7.96 3.78 11.25 6.76 2.9 2.85 7.59 3.39 9.74 7.05 1.05 2.51 2.55 5.16 1.94 7.97-.9 4.92-1.04 10.03-.1 14.96 1.2 6.71-.67 13.74 1.69 20.28 3.19 1.89 5.14 5.13 7.94 7.48 1.59 1.45 3.84 1.6 5.78 2.37 1.27.81 2.18 2.07 3.26 3.12-2.65 4.56-8.34 5.26-13.07 4.36-2.59-1.23-5.18-3.13-8.22-2.47-2.78.49-5.56.04-8.1-1.15-.65-4.83.54-9.56 1.82-14.17 1.26-5.76-2.15-10.89-4.31-15.93-1.03-4.58.43-9.3 1.07-13.86-2.39-1.43-4.93-2.65-6.97-4.59-.19 1.73.57 4.56-1.68 5.16-6.44 2.37-13.07 4.23-19.77 5.72.07 7.51-.27 15.01-.44 22.52 4.51-1.51 8.94-3.23 13.47-4.64 2.41-.98 4.52 1.03 6.6 1.94-.29 1.72-.57 3.45-.82 5.19-9.07 3.98-18.56 6.92-27.74 10.64-.7-.51-1.4-1.02-2.09-1.52.17 4.47-.51 9.16 1.31 13.4 2.55 5.23 6.08 9.85 9.82 14.27.1 2.44-1.01 4.38-3.67 4.31-4.47 3.17-11.05 1.95-14.37-2.36-.18-1.99-.45-3.99-1.32-5.81-1.4-2.98-1.43-6.32-2.24-9.47.45-3.26.76-6.59.37-9.88-.73-4.73-2.69-9.24-2.9-14.05.54-4.62 2.58-8.89 3.72-13.36.47-4.56 1.37-9.42-.9-13.67-.58-2.38-3.08-2.93-4.85-4.14-.29-2.99-.37-6.01-1.3-8.9-3.89 1.69-8.02 2.81-11.81 4.73.19-.65.58-1.96.77-2.61-.92.56-2.76 1.7-3.69 2.26-2.98-.68-5.41-2.67-7.85-4.41-.45-1.19-.86-2.4-1.25-3.6 2.94-7.13-1.32-14.44-1.14-21.71-2.74-2.02-3.71-5.16-2.78-8.4.55-.19 1.65-.58 2.19-.77.71-4.07 1.71-8.15 1.38-12.32-.25-3.13 1.3-5.97 3.15-8.37-1.59-4.59.11-10.16 4.21-12.87 4.66-3.1 9.05-7.05 14.71-8.18-2.69 2.79-6.52 4.03-9.3 6.72-2.61 2.39-7.11 3.26-7.78 7.27-.63 4.28-1.14 8.6-2.9 12.61-.57 3.74-.25 7.61-1.27 11.32-.37 6.21-.49 12.55.97 18.65.95 4.01.84 8.2 1.94 12.18-.72 1.59-1.4 3.2-1.86 4.89 1.8 2.36 4.76 3.51 7.42 4.62 1.86-1.21 3.61-2.58 5.52-3.72-.62-2.85-2.94-4.69-4.49-7-2.21-4.5-2.99-9.86-1.27-14.66 1.47-4.22 1.64-8.76.66-13.11-1.06.37-2.11.74-3.16 1.11 2.27-2.24 4.7-4.51 5.73-7.63 1.49-4.38 3.23-8.74 3.58-13.4-2.23 1.34-4.2 3.05-6.28 4.6.68-2.03 1.65-4.39 4.02-4.85 2.81-.44 5.45-1.38 8.06-2.44.82.66 2.73 1.19 1.64 2.52-2.19-.04-4.34-.46-6.5-.76 1.81 4.81-1.49 9.39-2.21 14.11 1.72 1.34 3.4 2.74 5.01 4.2.36-.65 1.09-1.95 1.45-2.6.13.93.38 2.79.51 3.72 1.68-.85 3.34-1.76 4.92-2.78 1.98.37 4.01.44 5.95.97 1.53 1.14 2.84 2.52 4.3 3.74 1.57-1.18 2.65-2.57 1.22-4.35 1.41.44 2.91.69 4.37.31 1.74-2.3 1.03-5.45-.85-7.42-2.22 1.96-4.35 4.01-6.75 5.76-2.28-1.03-4.72-1.59-7.23-1.6-1.72 1.26-4.53 3.23-6.12.64-1.67-1.21.04-2.79.66-4.04.06 1.14.19 3.44.26 4.59 1.5-1 2.91-2.12 4.24-3.34 1.66.14 3.33.23 4.99.31 1.24.55 2.43 1.32 3.81 1.45 2.03-2.34 4.07-4.71 7.33-5.23a27.155 27.155 0 00-4.43-3.33c-.84 1.6-1.71 3.19-2.71 4.7-.11-2.55.56-4.97 2.58-6.63 2.19.95 4.46 1.92 5.76 4.05 3.25-2.37 6.11 1.07 8.3 3.11-.61-2.33-1.55-4.56-2.13-6.91-.15-2.11 1.95-3.69 1.84-5.82.05-1.9.03-3.81.1-5.72-.33-.38-1.01-1.14-1.34-1.52 3.07-3.58 7.3-6.17 9.53-10.44 3.56-7.11 4.72-15.12 5.14-22.98-4.4-1.49-9.18-2.07-13.79-1.53-3.93.35-6.92 4.2-10.84 3.92.04-.2.13-.59.17-.79m2.16 51.3c.67 1.54 1.61 3.01 1.93 4.68-.26 1.59-.89 3.09-1.16 4.67.42 2.7 1.06 5.43.52 8.17-2.01-2.37-1.32-5.67-1.66-8.52-1.04.84-2.06 1.7-3.08 2.56-1.52.35-3.02.73-4.51 1.16-2.09-2.13-4.33-4.38-7.59-3.96-2.19 1.21-4.7 1.43-7.14 1.63 1.33.68 2.71 1.3 4.01 2.04-.44.38-1.31 1.13-1.75 1.5.44 1.81.88 3.63 1.3 5.45 5.01 1.5 10.3 1.53 15.43 2.48-3.23-1.45-5.6-3.97-6.58-7.38-2.15-.88-4.09-2.22-5.55-4.03 5.87 1.52 9 7 12.73 11.27 3.36-.5 6.62-1.49 9.86-2.49-.39-.35-1.16-1.05-1.55-1.4.18-2.36.35-4.72.63-7.07-.45-.12-1.36-.36-1.82-.48.52-3.07.7-6.78 3.75-8.5-.49 2.38-1.14 4.76-2.42 6.86.34.55.69 1.1 1.04 1.65 1.5-2.65 2.68-5.5 2.9-8.56-2.5-.84-4.14-3.3-6.75-3.81-.63.52-1.9 1.56-2.54 2.08m-32.21 10.48c.49 5.41 1.7 11.04-.63 16.22.16.63.49 1.88.65 2.51 3.87 2.75 7.19 6.17 11.01 8.98-1.36-4.32-3.76-8.46-3.42-13.15 1.34-1.61 2.57-3.32 3.71-5.08-.6-2.37-1.13-4.76-1.46-7.19-.55-.83-1.1-1.66-1.64-2.49-1.83-1.41-3.58-2.9-5.32-4.42-.97 1.53-2.16 2.96-2.9 4.62m-12.96 4.27c-.07.74-.22 2.23-.29 2.97.57.73 1.14 1.46 1.71 2.18-.09-1.72-.17-3.45-.23-5.18-.29.01-.89.02-1.19.03m25.6 5.96c-.89.95-1.81 1.88-2.78 2.76-1.29 3.59.41 7.2.72 10.8 3.38-2.14 7.25-3.93 9.17-7.69-1.48-.57-2.97-1.13-4.46-1.67-.83 2.03-1.59 4.09-2.33 6.16-.1-.87-.31-2.62-.41-3.49.67-1.37 1.33-2.73 2-4.09 4.7 1.63 9.58 2.34 14.54 2.42-2.45 1.28-5.17 1.46-7.88 1.34-2.32 3.39-5.14 6.57-6.47 10.52-.58 4.06-.24 8.33 1.2 12.19 2.41-7.25 13.04-8.72 17.84-3.13-.04-.78-.13-2.35-.17-3.13 1.99-.31 3.95-.79 5.96-.95 2.03.66 3.51 2.28 5.01 3.71.5-2.92.83-5.86 1.24-8.78 1.29-3.55 4.29-6.15 7.35-8.18-3.74-1.04-7.74-.68-11.43-1.92-1.27-.82-1.85-2.29-2.65-3.49-1.21-.6-2.42-1.19-3.62-1.8-3.15.77-6.3 2.08-9.61 1.59-4.49-.64-9.15-.97-13.22-3.17m-12.19 14.37c.75-1.04.73-2.06-.05-3.06-1.56-.24-1.45 3.31.05 3.06m47.39 2.32c-.05 3.09-.65 6.14-1.72 9.04 5.41 3.97 12.91.38 18.11 4.76 2.41 2.26 5.61 3.13 8.57 4.39-1.09.57-2.2 1.12-3.33 1.64.53 6.02-.27 12.52 2.82 18.01 2.35 4.05 1.41 8.9 1.41 13.36-.97 2.94-1.3 6.04-1.51 9.12-.48 1.46 1.06 3.05 2.5 2.89 3.2.17 6.62-.94 9.64.58 4.4 2.07 9.87 2.72 13.83-.61-2.29-3.02-6.71-2.41-9.17-5.21-2.49-2.82-4.84-5.78-7.8-8.14-2.4-7.67-.45-15.74-2.31-23.49-.22-4.68.54-9.37 1.33-13.98-1.38-2.4-1.71-5.67-4.17-7.27-6.96-3.26-12.31-9.62-20.14-11.1-3.82-.11-6.31 3.05-8.06 6.01M90.03 159c.57-.59.57-.59 0 0m-12.97-.74c.06 1.81-.34 3.67.11 5.45.99 1.51 2.29 2.77 3.48 4.11 1.58-.81 3.17-1.6 4.77-2.36-2.84-2.34-5.59-4.78-8.36-7.2m11.28 4.28c1.38.08 2.3-2.4 1.69-3.54-1.61-.32-2.07 2.39-1.69 3.54m-7.28 6.11c.1.75.3 2.26.39 3.01-1.3.9-2.62 1.78-3.98 2.61.55.29 1.11.57 1.66.85 2.89-1.42 5.93-2.51 8.97-3.56-.08-1.81-.11-3.63-.11-5.44-2.23 1.05-4.54 1.92-6.93 2.53m30.24 2.66c-.2.73-.6 2.2-.8 2.94 2.04 4.07 3.08 8.56 2.53 13.13 7.52-2.33 15.26-3.94 22.62-6.79-.18-1.45-.38-2.9-.5-4.36-4.66.29-9.47.04-13.63-2.31-1.22.1-2.45.17-3.67.23-1.03-1.51-2.01-3.16-3.63-4.11-.99.39-1.96.81-2.92 1.27m-14.73.26c-2.04 1.44-3.18 3.77-4.62 5.75 3.67 4.42 6.21 9.85 5.73 15.71-.81 5.41 1.98 10.44 2.6 15.71-1.55-2.11-2.55-4.55-3.77-6.86-1.38 3.91-3.02 7.9-2.92 12.12.37 5.08 2.56 9.8 3.04 14.86.44 2.73-.31 5.42-.51 8.13.41 4.97 4.01 9.13 3.89 14.18 2.59-1.53 5.78-.91 8.64-1.34 2.13-.5 2.93 2.05 4.24 3.23.54-.38 1.63-1.13 2.17-1.51-4.19-5.68-9.39-11.11-11.01-18.18-.36-.28-1.06-.85-1.41-1.13-1.28 2.36-2.05 5.32-4.8 6.42 1.11-3.05 2.71-5.96 5.62-7.61-1.09-5.02-.32-10.27 1.7-14.94 1.46-3.31.99-7.01.66-10.48-2.32 3.78-1.27 8.54-3.53 12.3-1.34-5.7 1.31-10.98 3.8-15.88 1.04-4.28 3.93-8.3 2.96-12.86.57.11 1.7.34 2.26.45-.44-.16-1.33-.47-1.78-.62-.24-1.14-.47-2.27-.71-3.41a45.64 45.64 0 01-2.12-3.72c2.45 1.35 4.04 3.62 5.05 6.18-.16-5.99-1.77-12.08-5.98-16.53-3-.53-6.26-.96-9.2.03m-5.33 8.7c.6.53.6.53 0 0m17.33 19.61c-1.55 4.63.1 9.56-.86 14.27-.55 2.31-1.51 4.5-2.28 6.74.51.51 1.02 1.02 1.54 1.53 8.55-3.6 17.33-6.58 25.99-9.88.36-1.17.71-2.35 1.06-3.52-1.61-.48-3.27-1.71-4.99-.95-5 1.59-9.9 3.55-15 4.85-.16-5.32-.1-10.64.07-15.96.07-3.24 1.1-6.71-.8-9.66-1.96 4.04-3.33 8.33-4.73 12.58m-7.71 52.49c3.01 2.6 7.28 2.72 10.5.45-1.97-1.99-4.73-.88-7.16-1.23-1.12.22-2.23.48-3.34.78z"/><path d="M113.12 104.32c1.39-3.31 2.78-6.65 4.71-9.68.97 3.95-1.65 7.51-4.71 9.68zM101 106.58c2.15 2.83 3.39 6.19 4.35 9.58-3.81 2.3-7.67 4.56-11.24 7.22.3.54.89 1.62 1.19 2.16-3.33-1.17-6.69-2.32-9.88-3.84-1.61-.55-1.82-2.35-2.42-3.7 1.41.86 2.71 1.88 4.15 2.69 2.6.51 5.26.51 7.88.86 1.39-3.41 5.16-4.7 8.24-6.11-.36-3.05-1.51-5.91-2.27-8.86zM98.51 158.47c3.92-4.54 9.52-7.79 15.6-7.98-5.41 2.27-10.16 5.87-15.6 7.98zM102.41 158.18c3.63-3 8.32-4.12 12.86-4.89-3.65 2.83-8.63 3.18-12.86 4.89zM95.85 162.51c2.85-1.28 5.89-2.13 9.01-2.34-2.53 2.14-5.84 2.45-9.01 2.34zM145.5 167.38c2.53 1.72 3.58 4.61 3.86 7.54-1.71.79-3.37 2.1-5.36 1.88-2.84-.14-4.56-2.71-5.98-4.85 2.58 1.62 4.89 4.01 8.08 4.29.6-.93 1.17-1.87 1.7-2.84-.82-1.99-1.62-3.98-2.3-6.02zM54.27 177.28c3.64-1.5 7.26-3.22 11.14-3.95l.42.34c-2.84 2.28-6.75 2.9-10.07 4.39.04 1.71.11 3.43.22 5.15 5.48-.98 10.31-4.82 16.05-4.21-5.06 2.25-10.37 3.85-15.48 5.96-2.8-1.69-2.41-4.86-2.28-7.68zM100.47 186.57c1.58-1.9 3.44-3.54 5.52-4.87-1.17 2.26-2.87 4.35-5.52 4.87zM103.16 196.26c.2-1.65 3.08-1.47 3.31.09-.21 1.66-3.18 1.58-3.31-.09zM150.29 215.32c1.4.83 1.32 3.83 1.31 5.43-2-.39-2.25-3.9-1.31-5.43z"/></g></svg>