<svg width="212pt" height="275pt" viewBox="0 0 212 275" xmlns="http://www.w3.org/2000/svg"><g fill="#FFF"><path d="M0 0h212v275H0V0m105.94 32.53c-.57 3.33.53 6.56 1.81 9.59 1.59 3.86 5.05 6.44 7.58 9.64 1.39 2.52 2.54 5.23 4.67 7.25 3.72 3.67 4.39 9.11 5.79 13.9 1.73 5.36-1.63 10.79-.45 16.2.5 2.65.5 5.67-1.4 7.8-2.51 3.03-3.77 7.01-6.98 9.46-.41 3.04-.21 6.13-.61 9.18-.66-.54-1.3-1.1-1.93-1.67-.1-5.29-2.93-10.44-1.31-15.74 2.6-.17 3.29-2.92 4.49-4.72.37.12 1.09.37 1.45.5-1.59-4.82 1.49-9.26 1.22-14.08-.29-2.88 2.47-4.48 4.09-6.41-3.11-1.15-4.83 2.69-5.46 5.12.08 4.79.1 9.73-1.81 14.24-1.22.83-2.2 1.92-3.1 3.07.25-4.36 0-8.78-1.31-12.98 1.06-2.14 2.33-4.17 3.7-6.13-1.59-4.49-2.63-9.14-3.61-13.8-.61-3.15-2.9-5.56-4.54-8.21.52-.24 1.56-.72 2.08-.95-.46-.91-.93-1.81-1.39-2.71-.58.59-1.17 1.18-1.76 1.77-1.37 0-2.75.02-4.12.06-.58-1.27-2.18-2.33-1.78-3.87.29-2.91 4.02-3.62 4.91-6.12-1.3.18-2.49.66-3.58 1.44-2.58-1.92-6.12-6.01-9.37-3.11-1.59 1.1-3.91 2.44-3.18 4.78 1.47 6.87 5.52 13.74 11.98 16.92 3.11.43 6.08-2.42 7.07-5.23 1.93 4.63 2.86 9.56 4.08 14.4 2.28 5.82-3.07 11.24-1.46 17.19-2.49 1.28-3.81 3.91-6.22 5.27 1.38-6.48 1.04-13.19-.44-19.62-2.59-2.82-6.01-5.33-10.06-4.92-4.21-.51-8.48 2.73-9.01 6.93-.09 6.57 2.8 12.86 1.5 19.46 1.68-2.22 1.55-5.06 1.76-7.69.67 1.89 1.4 3.8 2.82 5.28-.29.64-.56 1.29-.82 1.96l.14.62c1.39 1.46 2.69 3 3.99 4.55-2.59.69-5.01 1.83-7.36 3.1-2.43-.84-5.12-1.28-7.39.22 2.22.4 4.45.67 6.68 1.07-.89.25-2.68.75-3.57.99.53.68 1.06 1.36 1.59 2.05 3.37-3.01 7.28-5.51 11.99-5.46.52.36 1.56 1.09 2.09 1.46 1.22-3.47 4.99-4.45 7.3-6.93 1.54-1.6 2.38-3.69 3.44-5.6.62.07 1.85.22 2.46.29.03 1.36.08 2.72.13 4.08-4.06 4.84.05 10.72-.64 16.11-1.66.42-3.31.86-4.95 1.35-.02 1.19-.06 2.38-.1 3.56 1.66.39 3.26 1 4.84 1.65-.39-2.21-2.38-3.17-4.29-3.92 1.59-.3 3.18-.61 4.77-.93.72.89 1.62 1.56 2.74 1.84-.68 2.22.16 4.26 1.28 6.14-.07 1.02-.23 3.07-.3 4.09-.92-1.5-1.49-3.23-2.61-4.59-1.3-.52-2.63-.88-4.01-1.1l.13 2.01c.54-.09 1.63-.29 2.17-.38-.1.32-.3.96-.41 1.28 1.7 1.31 3.28 2.85 5.41 3.45-.16 3.09-1.33 5.95-2.85 8.59-.37-.51-.73-1.03-1.08-1.56 1.25-2.08 1.95-4.41 2.43-6.78-3.33 1.69-3.2 5.78-3.81 8.95.5-.17 1.5-.51 1.99-.68-.41 2.53-.6 5.1-.73 7.66.38.36 1.14 1.08 1.51 1.44-3.2.96-6.41 1.85-9.66 2.62-3.75-4.3-6.94-9.83-12.84-11.38 1.41 1.83 3.33 3.16 5.49 3.95.85 3.6 3.57 5.77 6.66 7.44-5.15-1.05-10.5-.91-15.52-2.53-.44-1.93-.92-3.86-1.39-5.78.57-.24 1.71-.71 2.28-.95-1.49-.76-3-1.48-4.49-2.23 2.83-.06 5.5-.96 8.22-1.62 2.91-.29 4.63 2.36 6.65 3.96 1.47-.43 2.95-.82 4.44-1.18 1.02-.87 2.04-1.74 3.08-2.59.31 2.87-.36 6.14 1.51 8.6.68-2.81.33-5.71-.76-8.36 1.16-1.92 1.72-4.08 1.29-6.3-.59-.84-1.16-1.69-1.71-2.55.47-.49 1.41-1.45 1.88-1.93-.37-4.32-4.94-5.1-8.15-6.57 1.67.18 3.73-.49 4.39-2.17-.29-2.85-1.69-5.4-3.05-7.86-.28 0-.83.01-1.11.01 1.23 2.29 2.09 4.75 2.63 7.3-2.83 1.67-7.28 2.52-7.97 6.26-2.78-.38-5.58-.59-8.37-.85a46.708 46.708 0 00-3.58-2.86c.14 3.62 3.75 4.75 6.73 5.4l-.91 1.43c1.85.56 3.7 1.1 5.57 1.59l-2.14-2.38c2.46-1.14 4.6-2.79 6.75-4.42.39.47.79.95 1.17 1.44-.57 1.7-1.12 3.42-1.56 5.16 1.58-1.5 2.54-3.47 3.23-5.5 1.36.75 2.72 1.53 4.06 2.34-.29.79-.58 1.58-.87 2.38-3.01.11-4.83 2.47-5.69 5.12-1.5-.58-2.99-1.2-4.44-1.88-1.69-.08-3.37-.18-5.05-.32-1.28 1.27-2.69 2.4-4.27 3.29-.02-1.11-.07-3.34-.1-4.46-.84 1.11-2.4 2.8-.75 4.02 1.61 2.5 4.35.62 6.06-.67 2.54-.02 5 .54 7.31 1.6 2.3-1.65 4.24-3.73 6.48-5.47 2.63 1.15 2.59 5.05 1.08 7.11-1.55.47-3.12.07-4.64-.25.5.67 1.01 1.34 1.52 2.02-.65.54-1.93 1.63-2.58 2.17-1.41-1.19-2.69-2.55-4.2-3.63-1.96-.52-4-.63-5.99-1.04-1.4 1.16-2.95 2.14-4.74 2.55-.22-.86-.66-2.59-.88-3.46-.27.68-.83 2.05-1.1 2.73-1.65-1.5-3.37-2.93-5.13-4.31.75-3.21 1.86-6.3 3.42-9.21 1.22-1.95.08-4.11-.43-6.09-3.03.87-6.3 2.4-6.78 5.89 1.15-.87 2.23-1.83 3.28-2.83.7-.36 2.12-1.07 2.83-1.42-.31 2.24-.55 4.54-1.62 6.58-1.81 2.63-2.27 5.87-3.59 8.73-1.15 2.48-3.25 4.29-5.1 6.24 1.04-.38 2.07-.76 3.1-1.13 1.03 4.33.83 8.86-.63 13.07-1.75 4.86-.92 10.29 1.32 14.84 1.57 2.25 3.94 4.03 4.38 6.92-1.96 1.06-3.73 2.42-5.43 3.85-2.68-1.3-5.29-2.75-7.63-4.59.62-1.71 1.46-3.34 1.91-5.09-1.37-11.4-4.72-22.9-2.15-34.38.72-2.84-.52-6.14 1.53-8.55 2.96-4.16 2.05-9.55 3.85-14.12.88-1.76 2.76-2.61 4.34-3.62 2.48-1.41 4.48-3.54 6.98-4.93 1.73-.97 3.49-1.97 4.7-3.59-5.64 1.46-10.16 5.26-14.82 8.54-3.62 2.71-4.83 7.7-3.61 11.95-1.11 1.9-2.15 3.84-3.21 5.78-1.97 2.03-.95 4.91-1.21 7.42-.28 2.83-.88 5.62-1.36 8.42-.55.2-1.64.62-2.19.82-.98 3.24-.01 6.39 2.77 8.37-.25 7.25 4.11 14.57 1.12 21.65.39 1.24.8 2.48 1.21 3.72-3.96 1.39-7.95 2.73-11.78 4.47-.13 2.83-.53 6.05 2.37 7.66 5.09-2.09 10.28-3.88 15.45-5.74-5.73-1.09-10.59 3.09-16.07 3.99-.13-1.72-.2-3.44-.26-5.16 3.76-1.46 7.73-2.54 11.11-4.82 2.18 1.7 4.45 3.45 7.21 4.06 2.56-1.77 4.89-3.85 7.35-5.75l-.32-2.92c2.39-.57 4.69-1.44 6.88-2.55.01 1.83.05 3.66.14 5.5-3.63 1.53-8.01 2.04-10.73 5.16 3.91-.82 7.6-2.39 11.26-3.93.81 2.63 1.11 5.35 1.17 8.1-.08 1.82 2.38 1.86 3.61 2.35 5.01 7.5 2.53 16.87-.34 24.67-2.56 6.01.53 12.16 1.66 18.1 1.06 4.68-.85 9.48.41 14.13.18 4.19 2.97 7.7 2.91 11.92 3.28 4.35 9.98 5.63 14.4 2.34 2.68.2 3.82-1.89 3.61-4.31-3.73-4.42-7.26-9.04-9.79-14.27-1.82-4.3-1.12-9.05-1.29-13.57l1.53 2.01c8.64-3.47 17.43-6.54 26.13-9.83 2.89-.55 2.35-4 3.13-6.13-2.08-.97-4.2-3.02-6.65-2.09-4.56 1.39-9.02 3.13-13.54 4.67.14-7.51.49-15.01.42-22.52 6.69-1.49 13.31-3.35 19.74-5.72 2.3-.6 1.56-3.47 1.68-5.23 1.91 1.92 4.23 3.37 6.83 4.15-.44 4.47-1.48 8.91-1.21 13.43.99 3.52 3.41 6.46 4.21 10.06 2.29 7.02-2.95 13.76-1.43 20.9 2.51 1.28 5.28 1.74 8.06 1.22 3.1-.7 5.72 1.27 8.37 2.5 4.67.82 10.45.2 12.92-4.45-1.04-1.04-1.96-2.24-3.18-3.07-1.97-.75-4.25-.88-5.84-2.39-2.78-2.35-4.72-5.6-7.93-7.48-2.38-6.74-.36-13.98-1.76-20.87-.94-5.13-.56-10.41.37-15.5-.44-3.84-1.92-8.21-5.63-10.07-2.36-1.17-4.73-2.36-6.68-4.16-3.16-2.81-7.17-4.28-10.77-6.37-4.45-3.37-10.38-2.86-15.64-3.41-.86-1.47-1.75-2.93-2.69-4.34.46-4.14.42-8.31.55-12.46 2.27-5.06 2.87-10.82 1.36-16.18 1.42-4.03-.9-8.86 2.33-12.2 2.87-3.91 5.52-8.13 6.71-12.88.53-4.2.25-8.46 1.01-12.64.71-3.08-.65-6.1-.34-9.18.44-2.85-1.35-5.3-2.04-7.94-1.34-4.52-4.89-7.8-7.75-11.38 2.73.29 4.79-1.58 6.98-2.85.2-2.24.45-4.6-.52-6.72-2.27-5.85-6.2-11.84-12.55-13.64-1.93.63-3.49 2.04-5.24 3.03m8.02 70.49c1.64.55 3.76-2.91 2.08-3.82-1.36.5-2.68 2.39-2.08 3.82m-27.64-2.81c-1.44.95-.06 3.73 1.45 2.32 1.42-.95.03-3.81-1.45-2.32m-2.8 14.9c1.95.12 3.9.28 5.86.39-.78-1.19-1.69-2.47-3.23-2.65-.93.69-1.78 1.48-2.63 2.26z"/><path d="M109.97 30.83c4.84.18 7.72 4.54 10.19 8.12 2.06 2.94 3.08 6.53 2.66 10.12-3.73.13-6.47-2.73-8.56-5.45-2.75-3.68-4.78-8.1-4.29-12.79z"/><path d="M107.31 32.15c1.72 4.03 2.71 8.47 5.49 11.98 1.87 2.93 4.65 5.03 7.36 7.13-3.84-.62-6.8-3.38-8.96-6.45-2.56-3.67-4.4-8.09-3.89-12.66zM94.3 41.42c3.04.06 5.35 2.04 7.65 3.75-.49.43-1.48 1.29-1.97 1.71a146.4 146.4 0 01-1.28 4.21c2.19 1.86 4.19 4.41 7.32 4.5.54.38 1.62 1.15 2.16 1.53-1.05.91-2.11 1.82-3.17 2.71-6.43-3.78-11.07-10.77-10.71-18.41z"/><path d="M91.98 43.02l.52.02c.71 7.44 5.67 13.64 11.4 18.07-3.5.17-5.88-2.7-7.95-5.11-2.94-3.64-4.47-8.29-3.97-12.98zM90.56 72.33c4.75-2.24 11.32-.16 13.5 4.75.82 3.91.7 7.98.36 11.95-.16 2.6-2.09 4.75-4.36 5.84-3.78.22-9.36-1.94-8.16-6.66a30.95 30.95 0 01-4.37-4.42c.36-.66.72-1.32 1.07-1.98-2.33-2.84-.91-7.53 1.96-9.48zM96.06 101.27c-.75-2.07-3.91-4.03-2.51-6.32 4.27 2.57 9.01.97 13.52.26-2.39 2.53-5.47 4.33-7.57 7.13-1.14-.36-2.29-.72-3.44-1.07zM75.13 135.6c1.05-1.44 2.09-2.89 3.13-4.34 1.69 1.5 3.42 2.98 5.21 4.36l1.68 2.55c.31 2.4.85 4.76 1.45 7.11a47.504 47.504 0 01-3.71 5.11c-.09 3.26.6 6.55 2.27 9.39.36 1.23.7 2.46 1.02 3.71-3.7-2.82-6.98-6.15-10.79-8.84-.25-.86-.51-1.7-.76-2.55 2.3-5.27 1.32-11.03.5-16.5zM62.36 140.03c.28.02.85.04 1.13.05.08 1.72.18 3.44.29 5.16-.59-.72-1.17-1.44-1.76-2.15.08-.77.25-2.29.34-3.06z"/><path d="M87.75 145.97c4.1 2.28 8.83 2.61 13.38 3.26 3.29.5 6.44-.8 9.57-1.58 1.22.6 2.45 1.19 3.67 1.77.8 1.21 1.36 2.7 2.63 3.5 3.71 1.29 7.75.85 11.51 1.95-3.14 1.94-6.09 4.6-7.4 8.13-.41 2.96-.76 5.93-1.25 8.88-1.49-1.49-2.96-3.16-5.05-3.78-1.99.16-3.94.63-5.92.93.04.8.13 2.4.17 3.2-3.08-3.91-8.75-4.06-13.07-2.39-2.5.86-3.43 3.54-4.82 5.54-1.5-5.05-2.58-11.1.48-15.79 1.52-2.49 3.42-4.72 4.83-7.27 2.72.79 5.42.16 7.87-1.11-4.98 0-9.88-.74-14.58-2.42-1.27 2.39-2.19 4.98-1.84 7.74.94-2.07 1.79-4.19 2.7-6.27 1.46.55 2.92 1.1 4.38 1.67-1.64 3.84-5.97 4.91-8.34 8.05-1.13-2.63-1.7-5.43-2.45-8.18.7-2.22 2.1-4.04 3.53-5.83m25.72 4.54c-5.82.37-11.1 3.58-14.91 7.88 2.97-.57 5.23-2.7 7.86-4.03 2.37-1.24 4.86-2.29 7.05-3.85m-10.97 7.66c3.27-.88 6.37-2.27 9.67-3.03 1.26-.16 2.17-1.02 2.99-1.9-4.45.9-9.12 1.87-12.66 4.93m-6.63 4.3c3.17.16 6.48-.14 8.98-2.31-3.11.22-6.13 1.06-8.98 2.31zM75.14 157.32c1.45-.12 1.31 2.42.56 3.19-1.39.05-1.31-2.43-.56-3.19z"/><path d="M125.43 159.45c1.43-1.71 3.59-2.65 5.8-2.7 5.33 1.22 10 4.3 14.22 7.67 2.11 1.75 4.86 2.47 6.95 4.24 1.36 1.95 2 4.29 3.07 6.41-.82 5.62-2.1 11.42-.8 17.06 1.14 6.77-.65 13.87 1.99 20.4 2.65 2.63 5.21 5.34 7.61 8.2 2.43 2.84 6.95 2.1 9.13 5.24-3.99 3.3-9.49 2.64-13.88.52-3.88-2.11-8.74 1.11-12.28-1.89.48-3.55.59-7.2 1.73-10.62.13-3.33.35-6.69-.07-10-.63-2.81-2.66-5.11-3.05-7.99-1.13-4.43-.56-9.04-1.27-13.52 1.24-.49 2.47-.99 3.7-1.51-3.06-1.17-6.3-2.1-8.75-4.41-5.21-4.41-12.73-.75-18.13-4.78 1.89-3.98.65-9.07 4.03-12.32m20.08 8.01c.68 2.01 1.48 3.98 2.29 5.94-.53.96-1.09 1.91-1.68 2.83-3.2-.21-5.49-2.65-8.01-4.31 1.18 2 2.62 4.17 5.03 4.77 2.27.62 4.29-.78 6.19-1.77-.25-2.9-1.24-5.83-3.82-7.46m4.81 47.81c-.96 1.56-.57 3.82.51 5.24 1.23 1.14 1.01-1.25.67-1.79-.53-.97.18-3.24-1.18-3.45zM77.09 158.26c2.74 2.44 5.49 4.87 8.34 7.2-1.6.76-3.19 1.54-4.76 2.35-1.19-1.32-2.48-2.56-3.47-4.05-.52-1.79-.08-3.68-.11-5.5zM90.06 158.94c.57-.6.57-.6 0 0zM88.33 162.59c-.35-1.2.11-3.89 1.73-3.65.52 1.19-.35 3.66-1.73 3.65z"/><path d="M111.28 171.35c.95-.46 1.9-.9 2.88-1.31 1.69.85 2.62 2.57 3.62 4.09 1.25-.05 2.51-.13 3.77-.22 4.31 2.56 9.38 2.46 14.22 2.43l-.87.65c.28 1.13.61 2.27.76 3.44-7.24 3.27-15.2 4.42-22.65 7.03.58-4.57-.42-9.08-2.5-13.15.19-.74.58-2.22.77-2.96zM91.96 177.45c1.51-2.11 2.61-4.83 5.03-6.06 2.87-.66 5.9-.41 8.77.15 4.25 4.48 5.9 10.62 5.9 16.68-.83-2.66-2.4-4.97-4.92-6.27.64 1.26 1.35 2.48 2.09 3.69.24 1.13.47 2.27.7 3.41.45.15 1.35.45 1.81.6-.58-.11-1.73-.34-2.31-.45.78 2.89-.34 5.61-1.41 8.24-1.65 6.9-7.3 12.93-5.31 20.47 2.1-3.49 1.46-7.8 2.87-11.55l.87-.01c.04 3.25.48 6.69-.9 9.76-2.01 4.67-2.79 9.93-1.68 14.93-2.92 1.68-4.56 4.59-5.64 7.69 1.86-.85 3.01-2.47 3.73-4.33.81-.6 1.61-1.22 2.4-1.84 1.15 7.47 6.84 13.07 11.08 19-.57.4-1.72 1.18-2.29 1.58-.77-1.11-1.52-2.23-2.25-3.36-3.48.52-7.35-.35-10.49 1.43.15-5.05-3.44-9.21-3.9-14.16.2-2.73.97-5.45.52-8.19-.48-5.07-2.67-9.8-3.04-14.88-.09-4.21 1.55-8.17 2.9-12.07 1.22 2.28 2.2 4.71 3.81 6.77-.66-5.24-3.44-10.24-2.62-15.62.47-5.8-1.94-11.3-5.72-15.61m8.55 9.08c2.63-.47 4.29-2.55 5.45-4.78-2.07 1.28-3.91 2.9-5.45 4.78m2.63 9.71c.15 1.66 3.11 1.76 3.35.11-.23-1.55-3.1-1.73-3.35-.11zM91.21 180.26c.6.51.6.51 0 0z"/><path d="M108.57 199.87c1.4-4.2 2.73-8.45 4.69-12.43 2.08 2.84.83 6.32.84 9.5-.16 5.33-.25 10.67-.06 16 5.11-1.34 10.03-3.29 15.05-4.89 1.7-.83 3.33.59 4.94.97-.37 1.19-.73 2.37-1.11 3.56-8.65 3.25-17.41 6.25-25.94 9.83l-1.56-1.53c.78-2.24 1.75-4.42 2.3-6.74.95-4.71-.71-9.64.85-14.27zM100.81 252.35c1.07-.26 2.14-.51 3.22-.75 2.47.46 5.36-.99 7.25 1.28-3.23 2.25-7.46 2.02-10.47-.53z"/></g><g fill="#333"><path d="M105.94 32.53c1.75-.99 3.31-2.4 5.24-3.03 6.35 1.8 10.28 7.79 12.55 13.64.97 2.12.72 4.48.52 6.72-2.19 1.27-4.25 3.14-6.98 2.85 2.86 3.58 6.41 6.86 7.75 11.38.69 2.64 2.48 5.09 2.04 7.94-.31 3.08 1.05 6.1.34 9.18-.76 4.18-.48 8.44-1.01 12.64-1.19 4.75-3.84 8.97-6.71 12.88-3.23 3.34-.91 8.17-2.33 12.2 1.51 5.36.91 11.12-1.36 16.18-.13 4.15-.09 8.32-.55 12.46.94 1.41 1.83 2.87 2.69 4.34 5.26.55 11.19.04 15.64 3.41 3.6 2.09 7.61 3.56 10.77 6.37 1.95 1.8 4.32 2.99 6.68 4.16 3.71 1.86 5.19 6.23 5.63 10.07-.93 5.09-1.31 10.37-.37 15.5 1.4 6.89-.62 14.13 1.76 20.87 3.21 1.88 5.15 5.13 7.93 7.48 1.59 1.51 3.87 1.64 5.84 2.39 1.22.83 2.14 2.03 3.18 3.07-2.47 4.65-8.25 5.27-12.92 4.45-2.65-1.23-5.27-3.2-8.37-2.5-2.78.52-5.55.06-8.06-1.22-1.52-7.14 3.72-13.88 1.43-20.9-.8-3.6-3.22-6.54-4.21-10.06-.27-4.52.77-8.96 1.21-13.43-2.6-.78-4.92-2.23-6.83-4.15-.12 1.76.62 4.63-1.68 5.23-6.43 2.37-13.05 4.23-19.74 5.72.07 7.51-.28 15.01-.42 22.52 4.52-1.54 8.98-3.28 13.54-4.67 2.45-.93 4.57 1.12 6.65 2.09-.78 2.13-.24 5.58-3.13 6.13-8.7 3.29-17.49 6.36-26.13 9.83l-1.53-2.01c.17 4.52-.53 9.27 1.29 13.57 2.53 5.23 6.06 9.85 9.79 14.27.21 2.42-.93 4.51-3.61 4.31-4.42 3.29-11.12 2.01-14.4-2.34.06-4.22-2.73-7.73-2.91-11.92-1.26-4.65.65-9.45-.41-14.13-1.13-5.94-4.22-12.09-1.66-18.1 2.87-7.8 5.35-17.17.34-24.67-1.23-.49-3.69-.53-3.61-2.35-.06-2.75-.36-5.47-1.17-8.1-3.66 1.54-7.35 3.11-11.26 3.93 2.72-3.12 7.1-3.63 10.73-5.16-.09-1.84-.13-3.67-.14-5.5a31.272 31.272 0 01-6.88 2.55l.32 2.92c-2.46 1.9-4.79 3.98-7.35 5.75-2.76-.61-5.03-2.36-7.21-4.06-3.38 2.28-7.35 3.36-11.11 4.82.06 1.72.13 3.44.26 5.16 5.48-.9 10.34-5.08 16.07-3.99-5.17 1.86-10.36 3.65-15.45 5.74-2.9-1.61-2.5-4.83-2.37-7.66 3.83-1.74 7.82-3.08 11.78-4.47-.41-1.24-.82-2.48-1.21-3.72 2.99-7.08-1.37-14.4-1.12-21.65-2.78-1.98-3.75-5.13-2.77-8.37.55-.2 1.64-.62 2.19-.82.48-2.8 1.08-5.59 1.36-8.42.26-2.51-.76-5.39 1.21-7.42 1.06-1.94 2.1-3.88 3.21-5.78-1.22-4.25-.01-9.24 3.61-11.95 4.66-3.28 9.18-7.08 14.82-8.54-1.21 1.62-2.97 2.62-4.7 3.59-2.5 1.39-4.5 3.52-6.98 4.93-1.58 1.01-3.46 1.86-4.34 3.62-1.8 4.57-.89 9.96-3.85 14.12-2.05 2.41-.81 5.71-1.53 8.55-2.57 11.48.78 22.98 2.15 34.38-.45 1.75-1.29 3.38-1.91 5.09 2.34 1.84 4.95 3.29 7.63 4.59 1.7-1.43 3.47-2.79 5.43-3.85-.44-2.89-2.81-4.67-4.38-6.92-2.24-4.55-3.07-9.98-1.32-14.84 1.46-4.21 1.66-8.74.63-13.07-1.03.37-2.06.75-3.1 1.13 1.85-1.95 3.95-3.76 5.1-6.24 1.32-2.86 1.78-6.1 3.59-8.73 1.07-2.04 1.31-4.34 1.62-6.58-.71.35-2.13 1.06-2.83 1.42-1.05 1-2.13 1.96-3.28 2.83.48-3.49 3.75-5.02 6.78-5.89.51 1.98 1.65 4.14.43 6.09-1.56 2.91-2.67 6-3.42 9.21 1.76 1.38 3.48 2.81 5.13 4.31.27-.68.83-2.05 1.1-2.73.22.87.66 2.6.88 3.46 1.79-.41 3.34-1.39 4.74-2.55 1.99.41 4.03.52 5.99 1.04 1.51 1.08 2.79 2.44 4.2 3.63.65-.54 1.93-1.63 2.58-2.17-.51-.68-1.02-1.35-1.52-2.02 1.52.32 3.09.72 4.64.25 1.51-2.06 1.55-5.96-1.08-7.11-2.24 1.74-4.18 3.82-6.48 5.47-2.31-1.06-4.77-1.62-7.31-1.6-1.71 1.29-4.45 3.17-6.06.67-1.65-1.22-.09-2.91.75-4.02.03 1.12.08 3.35.1 4.46 1.58-.89 2.99-2.02 4.27-3.29 1.68.14 3.36.24 5.05.32 1.45.68 2.94 1.3 4.44 1.88.86-2.65 2.68-5.01 5.69-5.12.29-.8.58-1.59.87-2.38-1.34-.81-2.7-1.59-4.06-2.34-.69 2.03-1.65 4-3.23 5.5.44-1.74.99-3.46 1.56-5.16-.38-.49-.78-.97-1.17-1.44-2.15 1.63-4.29 3.28-6.75 4.42l2.14 2.38c-1.87-.49-3.72-1.03-5.57-1.59l.91-1.43c-2.98-.65-6.59-1.78-6.73-5.4 1.24.89 2.43 1.85 3.58 2.86 2.79.26 5.59.47 8.37.85.69-3.74 5.14-4.59 7.97-6.26-.54-2.55-1.4-5.01-2.63-7.3.28 0 .83-.01 1.11-.01 1.36 2.46 2.76 5.01 3.05 7.86-.66 1.68-2.72 2.35-4.39 2.17 3.21 1.47 7.78 2.25 8.15 6.57-.47.48-1.41 1.44-1.88 1.93.55.86 1.12 1.71 1.71 2.55.43 2.22-.13 4.38-1.29 6.3 1.09 2.65 1.44 5.55.76 8.36-1.87-2.46-1.2-5.73-1.51-8.6-1.04.85-2.06 1.72-3.08 2.59-1.49.36-2.97.75-4.44 1.18-2.02-1.6-3.74-4.25-6.65-3.96-2.72.66-5.39 1.56-8.22 1.62 1.49.75 3 1.47 4.49 2.23-.57.24-1.71.71-2.28.95.47 1.92.95 3.85 1.39 5.78 5.02 1.62 10.37 1.48 15.52 2.53-3.09-1.67-5.81-3.84-6.66-7.44-2.16-.79-4.08-2.12-5.49-3.95 5.9 1.55 9.09 7.08 12.84 11.38 3.25-.77 6.46-1.66 9.66-2.62-.37-.36-1.13-1.08-1.51-1.44.13-2.56.32-5.13.73-7.66-.49.17-1.49.51-1.99.68.61-3.17.48-7.26 3.81-8.95-.48 2.37-1.18 4.7-2.43 6.78.35.53.71 1.05 1.08 1.56 1.52-2.64 2.69-5.5 2.85-8.59-2.13-.6-3.71-2.14-5.41-3.45.11-.32.31-.96.41-1.28-.54.09-1.63.29-2.17.38l-.13-2.01c1.38.22 2.71.58 4.01 1.1 1.12 1.36 1.69 3.09 2.61 4.59.07-1.02.23-3.07.3-4.09-1.12-1.88-1.96-3.92-1.28-6.14-1.12-.28-2.02-.95-2.74-1.84-1.59.32-3.18.63-4.77.93 1.91.75 3.9 1.71 4.29 3.92-1.58-.65-3.18-1.26-4.84-1.65.04-1.18.08-2.37.1-3.56 1.64-.49 3.29-.93 4.95-1.35.69-5.39-3.42-11.27.64-16.11-.05-1.36-.1-2.72-.13-4.08-.61-.07-1.84-.22-2.46-.29-1.06 1.91-1.9 4-3.44 5.6-2.31 2.48-6.08 3.46-7.3 6.93-.53-.37-1.57-1.1-2.09-1.46-4.71-.05-8.62 2.45-11.99 5.46-.53-.69-1.06-1.37-1.59-2.05.89-.24 2.68-.74 3.57-.99-2.23-.4-4.46-.67-6.68-1.07 2.27-1.5 4.96-1.06 7.39-.22 2.35-1.27 4.77-2.41 7.36-3.1-1.3-1.55-2.6-3.09-3.99-4.55l-.14-.62c.26-.67.53-1.32.82-1.96-1.42-1.48-2.15-3.39-2.82-5.28-.21 2.63-.08 5.47-1.76 7.69 1.3-6.6-1.59-12.89-1.5-19.46.53-4.2 4.8-7.44 9.01-6.93 4.05-.41 7.47 2.1 10.06 4.92 1.48 6.43 1.82 13.14.44 19.62 2.41-1.36 3.73-3.99 6.22-5.27-1.61-5.95 3.74-11.37 1.46-17.19-1.22-4.84-2.15-9.77-4.08-14.4-.99 2.81-3.96 5.66-7.07 5.23-6.46-3.18-10.51-10.05-11.98-16.92-.73-2.34 1.59-3.68 3.18-4.78 3.25-2.9 6.79 1.19 9.37 3.11a7.935 7.935 0 013.58-1.44c-.89 2.5-4.62 3.21-4.91 6.12-.4 1.54 1.2 2.6 1.78 3.87 1.37-.04 2.75-.06 4.12-.06.59-.59 1.18-1.18 1.76-1.77.46.9.93 1.8 1.39 2.71-.52.23-1.56.71-2.08.95 1.64 2.65 3.93 5.06 4.54 8.21.98 4.66 2.02 9.31 3.61 13.8-1.37 1.96-2.64 3.99-3.7 6.13 1.31 4.2 1.56 8.62 1.31 12.98.9-1.15 1.88-2.24 3.1-3.07 1.91-4.51 1.89-9.45 1.81-14.24.63-2.43 2.35-6.27 5.46-5.12-1.62 1.93-4.38 3.53-4.09 6.41.27 4.82-2.81 9.26-1.22 14.08-.36-.13-1.08-.38-1.45-.5-1.2 1.8-1.89 4.55-4.49 4.72-1.62 5.3 1.21 10.45 1.31 15.74.63.57 1.27 1.13 1.93 1.67.4-3.05.2-6.14.61-9.18 3.21-2.45 4.47-6.43 6.98-9.46 1.9-2.13 1.9-5.15 1.4-7.8-1.18-5.41 2.18-10.84.45-16.2-1.4-4.79-2.07-10.23-5.79-13.9-2.13-2.02-3.28-4.73-4.67-7.25-2.53-3.2-5.99-5.78-7.58-9.64-1.28-3.03-2.38-6.26-1.81-9.59m4.03-1.7c-.49 4.69 1.54 9.11 4.29 12.79 2.09 2.72 4.83 5.58 8.56 5.45.42-3.59-.6-7.18-2.66-10.12-2.47-3.58-5.35-7.94-10.19-8.12m-2.66 1.32c-.51 4.57 1.33 8.99 3.89 12.66 2.16 3.07 5.12 5.83 8.96 6.45-2.71-2.1-5.49-4.2-7.36-7.13-2.78-3.51-3.77-7.95-5.49-11.98M94.3 41.42c-.36 7.64 4.28 14.63 10.71 18.41 1.06-.89 2.12-1.8 3.17-2.71-.54-.38-1.62-1.15-2.16-1.53-3.13-.09-5.13-2.64-7.32-4.5.45-1.39.87-2.8 1.28-4.21.49-.42 1.48-1.28 1.97-1.71-2.3-1.71-4.61-3.69-7.65-3.75m-2.32 1.6c-.5 4.69 1.03 9.34 3.97 12.98 2.07 2.41 4.45 5.28 7.95 5.11-5.73-4.43-10.69-10.63-11.4-18.07l-.52-.02m-1.42 29.31c-2.87 1.95-4.29 6.64-1.96 9.48-.35.66-.71 1.32-1.07 1.98a30.95 30.95 0 004.37 4.42c-1.2 4.72 4.38 6.88 8.16 6.66 2.27-1.09 4.2-3.24 4.36-5.84.34-3.97.46-8.04-.36-11.95-2.18-4.91-8.75-6.99-13.5-4.75m5.5 28.94c1.15.35 2.3.71 3.44 1.07 2.1-2.8 5.18-4.6 7.57-7.13-4.51.71-9.25 2.31-13.52-.26-1.4 2.29 1.76 4.25 2.51 6.32M75.13 135.6c.82 5.47 1.8 11.23-.5 16.5.25.85.51 1.69.76 2.55 3.81 2.69 7.09 6.02 10.79 8.84-.32-1.25-.66-2.48-1.02-3.71-1.67-2.84-2.36-6.13-2.27-9.39 1.36-1.62 2.58-3.33 3.71-5.11-.6-2.35-1.14-4.71-1.45-7.11l-1.68-2.55c-1.79-1.38-3.52-2.86-5.21-4.36-1.04 1.45-2.08 2.9-3.13 4.34m-12.77 4.43c-.09.77-.26 2.29-.34 3.06.59.71 1.17 1.43 1.76 2.15-.11-1.72-.21-3.44-.29-5.16-.28-.01-.85-.03-1.13-.05m25.39 5.94c-1.43 1.79-2.83 3.61-3.53 5.83.75 2.75 1.32 5.55 2.45 8.18 2.37-3.14 6.7-4.21 8.34-8.05-1.46-.57-2.92-1.12-4.38-1.67-.91 2.08-1.76 4.2-2.7 6.27-.35-2.76.57-5.35 1.84-7.74 4.7 1.68 9.6 2.42 14.58 2.42-2.45 1.27-5.15 1.9-7.87 1.11-1.41 2.55-3.31 4.78-4.83 7.27-3.06 4.69-1.98 10.74-.48 15.79 1.39-2 2.32-4.68 4.82-5.54 4.32-1.67 9.99-1.52 13.07 2.39-.04-.8-.13-2.4-.17-3.2 1.98-.3 3.93-.77 5.92-.93 2.09.62 3.56 2.29 5.05 3.78.49-2.95.84-5.92 1.25-8.88 1.31-3.53 4.26-6.19 7.4-8.13-3.76-1.1-7.8-.66-11.51-1.95-1.27-.8-1.83-2.29-2.63-3.5-1.22-.58-2.45-1.17-3.67-1.77-3.13.78-6.28 2.08-9.57 1.58-4.55-.65-9.28-.98-13.38-3.26m-12.61 11.35c-.75.76-.83 3.24.56 3.19.75-.77.89-3.31-.56-3.19m50.29 2.13c-3.38 3.25-2.14 8.34-4.03 12.32 5.4 4.03 12.92.37 18.13 4.78 2.45 2.31 5.69 3.24 8.75 4.41-1.23.52-2.46 1.02-3.7 1.51.71 4.48.14 9.09 1.27 13.52.39 2.88 2.42 5.18 3.05 7.99.42 3.31.2 6.67.07 10-1.14 3.42-1.25 7.07-1.73 10.62 3.54 3 8.4-.22 12.28 1.89 4.39 2.12 9.89 2.78 13.88-.52-2.18-3.14-6.7-2.4-9.13-5.24-2.4-2.86-4.96-5.57-7.61-8.2-2.64-6.53-.85-13.63-1.99-20.4-1.3-5.64-.02-11.44.8-17.06-1.07-2.12-1.71-4.46-3.07-6.41-2.09-1.77-4.84-2.49-6.95-4.24-4.22-3.37-8.89-6.45-14.22-7.67-2.21.05-4.37.99-5.8 2.7m-48.34-1.19c.03 1.82-.41 3.71.11 5.5.99 1.49 2.28 2.73 3.47 4.05 1.57-.81 3.16-1.59 4.76-2.35-2.85-2.33-5.6-4.76-8.34-7.2m12.97.68c.57-.6.57-.6 0 0m-1.73 3.65c1.38.01 2.25-2.46 1.73-3.65-1.62-.24-2.08 2.45-1.73 3.65m22.95 8.76c-.19.74-.58 2.22-.77 2.96 2.08 4.07 3.08 8.58 2.5 13.15 7.45-2.61 15.41-3.76 22.65-7.03-.15-1.17-.48-2.31-.76-3.44l.87-.65c-4.84.03-9.91.13-14.22-2.43-1.26.09-2.52.17-3.77.22-1-1.52-1.93-3.24-3.62-4.09-.98.41-1.93.85-2.88 1.31m-19.32 6.1c3.78 4.31 6.19 9.81 5.72 15.61-.82 5.38 1.96 10.38 2.62 15.62-1.61-2.06-2.59-4.49-3.81-6.77-1.35 3.9-2.99 7.86-2.9 12.07.37 5.08 2.56 9.81 3.04 14.88.45 2.74-.32 5.46-.52 8.19.46 4.95 4.05 9.11 3.9 14.16 3.14-1.78 7.01-.91 10.49-1.43.73 1.13 1.48 2.25 2.25 3.36.57-.4 1.72-1.18 2.29-1.58-4.24-5.93-9.93-11.53-11.08-19-.79.62-1.59 1.24-2.4 1.84-.72 1.86-1.87 3.48-3.73 4.33 1.08-3.1 2.72-6.01 5.64-7.69-1.11-5-.33-10.26 1.68-14.93 1.38-3.07.94-6.51.9-9.76l-.87.01c-1.41 3.75-.77 8.06-2.87 11.55-1.99-7.54 3.66-13.57 5.31-20.47 1.07-2.63 2.19-5.35 1.41-8.24.58.11 1.73.34 2.31.45-.46-.15-1.36-.45-1.81-.6-.23-1.14-.46-2.28-.7-3.41-.74-1.21-1.45-2.43-2.09-3.69 2.52 1.3 4.09 3.61 4.92 6.27 0-6.06-1.65-12.2-5.9-16.68-2.87-.56-5.9-.81-8.77-.15-2.42 1.23-3.52 3.95-5.03 6.06m-.75 2.81c.6.51.6.51 0 0m17.36 19.61c-1.56 4.63.1 9.56-.85 14.27-.55 2.32-1.52 4.5-2.3 6.74l1.56 1.53c8.53-3.58 17.29-6.58 25.94-9.83.38-1.19.74-2.37 1.11-3.56-1.61-.38-3.24-1.8-4.94-.97-5.02 1.6-9.94 3.55-15.05 4.89-.19-5.33-.1-10.67.06-16-.01-3.18 1.24-6.66-.84-9.5-1.96 3.98-3.29 8.23-4.69 12.43m-7.76 52.48c3.01 2.55 7.24 2.78 10.47.53-1.89-2.27-4.78-.82-7.25-1.28-1.08.24-2.15.49-3.22.75z"/><path d="M113.96 103.02c-.6-1.43.72-3.32 2.08-3.82 1.68.91-.44 4.37-2.08 3.82zM86.32 100.21c1.48-1.49 2.87 1.37 1.45 2.32-1.51 1.41-2.89-1.37-1.45-2.32zM83.52 115.11c.85-.78 1.7-1.57 2.63-2.26 1.54.18 2.45 1.46 3.23 2.65-1.96-.11-3.91-.27-5.86-.39zM113.47 150.51c-2.19 1.56-4.68 2.61-7.05 3.85-2.63 1.33-4.89 3.46-7.86 4.03 3.81-4.3 9.09-7.51 14.91-7.88zM102.5 158.17c3.54-3.06 8.21-4.03 12.66-4.93-.82.88-1.73 1.74-2.99 1.9-3.3.76-6.4 2.15-9.67 3.03zM95.87 162.47c2.85-1.25 5.87-2.09 8.98-2.31-2.5 2.17-5.81 2.47-8.98 2.31zM145.51 167.46c2.58 1.63 3.57 4.56 3.82 7.46-1.9.99-3.92 2.39-6.19 1.77-2.41-.6-3.85-2.77-5.03-4.77 2.52 1.66 4.81 4.1 8.01 4.31.59-.92 1.15-1.87 1.68-2.83-.81-1.96-1.61-3.93-2.29-5.94zM100.51 186.53c1.54-1.88 3.38-3.5 5.45-4.78-1.16 2.23-2.82 4.31-5.45 4.78zM103.14 196.24c.25-1.62 3.12-1.44 3.35.11-.24 1.65-3.2 1.55-3.35-.11zM150.32 215.27c1.36.21.65 2.48 1.18 3.45.34.54.56 2.93-.67 1.79-1.08-1.42-1.47-3.68-.51-5.24z"/></g></svg>