<svg width="368" height="300" viewBox="0 0 276 225" xmlns="http://www.w3.org/2000/svg"><g fill="#FFF"><path d="M0 0h204.91c.11.44.32 1.32.42 1.76 1.16-.48 2.33-.97 3.49-1.46 3.5 1.56 7.14 3.35 9.22 6.74 5.07 7.85 6.58 17.68 5.43 26.85-1.03 5.68-3.3 12.86-9.89 13.99.25-.55.75-1.65 1-2.19 3.58-3.94 4.37-9.57 4.53-14.69.31-9.01-1.84-18.42-7.31-25.72-1.15-1.74-3.06-2.64-4.89-3.45 1.83 3.75 5.33 6.37 6.95 10.24 5.02 10.83 5.33 24.34-1.11 34.67-1.35 2.26-4.81 1.75-6.73.5-4.98-3.69-7.22-9.71-9.58-15.2 3.53-1.25 7.36-1.98 10.54-4.03 1.05-2.02-.29-4.05-.93-5.94-3.67 1.2-7.34 2.39-10.97 3.72 1.13-5.54.6-11.42 2.86-16.72 1.24-3.15 3.27-6.25 6.73-7.24-.73-.48-1.45-.96-2.17-1.44-7.46 6.08-8.61 16.6-8.14 25.58-12.29 4.23-24.62 8.35-36.91 12.58-.37-.53-1.13-1.59-1.5-2.13-3.8.29-7.7.22-11.39 1.26-3.08 2.08-4.05 6.58-8.12 7.32-4.74-3.63-10.78-.9-15.71.83-2.72.83-3.83 3.55-4.43 6.07-8.11 2.63-16.14 5.46-24.23 8.14-4.46 1.37-9.42 4.66-13.81 1.23l.44 3.49c-1.94-6.1-4.46-12.78-10.16-16.31-3.74-2.38-8.33-.66-11.99.99-4.2 2.72-5.71 7.94-6.81 12.55-.62 3.54-1.5 7.39-.11 10.84 1.42-6.47.77-13.74 4.98-19.35 1.93-3.4 6.13-3.72 9.45-4.92 4.59 1.97 8.56 5.35 10.52 10.04 4.49 8.91 5.23 19.63 2.04 29.09-1.32 3.96-4.11 7.69-8.51 8.44 6.9-9.03 6.82-21.4 3.74-31.87-1.66-4.43-3.34-9.1-6.59-12.63-.84-1.21-2.26-.75-3.45-.63 12.11 11.56 13.62 31.97 4.63 45.86-2.4-.5-5.05-.7-6.97-2.39-4.08-3.42-5.88-8.63-7.92-13.37-.33-.07-.98-.2-1.3-.26 4.05-1.54 8.3-2.6 12.25-4.42.82-2.09-.48-4.16-1.15-6.09-3.25 1.01-6.62.7-9.95.61.69.41 2.07 1.21 2.76 1.61-3.92 1.15-7.85 2.37-11.52 4.17-.86.28-1.35 1.02-1.77 1.76 7.04-.95 13.25-4.89 20.28-5.82-.08.57-.22 1.72-.3 2.29-5.74 2.34-11.8 3.84-17.58 6.08.65.51 1.3 1.03 1.95 1.54 1.69-.55 3.37-1.09 5.06-1.62.79 2.75 1.79 5.44 3.02 8.03-.43.53-.87 1.06-1.32 1.58-3.67-1.77-5.73-7.08-10.3-6.39l.87-1.59c-1.34-2.35-2.59-5.9-6.06-4.34.42 1.19 1.53 1.49 2.67 1.36.46 5.67-1.38 1.54-2.6-.06-2.05 2.59 1.2 4.27 2.46 6.09 1.75.24 3.89-.36 5.24 1.1 2.85 2.69 6 5.07 9.68 6.49-.07-.84-.23-2.52-.31-3.36 1.25 1.91 2.54 3.8 3.86 5.65.88.43 1.75.89 2.61 1.35 2.53 3.04 6.67 1.86 9.96 1.05 1.85-.4 3.28-1.72 4.82-2.72.2.43.62 1.3.82 1.73-.14-.68-.43-2.04-.57-2.71 2.37-1.32 5.07-2.72 5.36-5.77-1.2.88-2.37 1.81-3.52 2.76 1.13-2.4 1.96-4.94 2.26-7.58 3.85 3.75 9.65 3.46 14.06.92-3.43-1.39-7.09.11-10.62.02.45-3.13 2.1-5.81 4.09-8.18 2.45.03 4.9.08 7.35.19 4.45 2.83 9.07 5.56 14.03 7.4-1.65-3.07-5.09-4.24-7.62-6.38-3.89-3.39-7.98-6.52-11.86-9.91 7.43-2.14 14.56-5.57 22.33-6.34 2.31-.2 4.41-1.24 6.49-2.17 1.02 2.2 2.93 4.28 2.47 6.88-.56 5.46-2.97 10.51-3.96 15.88-1.15 4.59-.01 9.28.65 13.85-.5.56-1 1.13-1.49 1.7-1.51-2.59-4.79-2.3-7.35-2.66-.14.4-.43 1.18-.58 1.58 2.11.57 4.28.84 6.44 1.16-2.12 1.19-3.92 2.85-4.02 5.43 1.81-1.22 3.56-2.5 5.34-3.76l-.92-.97c.73-.23 2.17-.69 2.89-.91-.52 2.7-.93 5.42-1.28 8.15-.42 3.22-2.29 6.16-2.08 9.48.13 3.12.88 6.17 1.38 9.24l2.55.33c-1.3-5.01-2.09-10.35-.6-15.42 1.66-4.97 1.87-10.25 3.06-15.33-.35-.44-1.07-1.33-1.42-1.78-.08-3.37-.48-6.74-.29-10.11.73-6.9 5.43-12.99 4.51-20.13-1.25-.85-2.48-1.72-3.71-2.6.6-1.29 1.2-2.57 1.79-3.87-6.82 1.99-13.43 4.64-20.29 6.5-7.21 1.83-14.14 4.55-21.15 6.99-.12-.75-.35-2.26-.46-3.01 10.34-2.39 20.38-5.88 30.34-9.51 4-1.51 8.43-2.16 11.87-4.87-.76-.31-2.27-.93-3.03-1.23 3.17-2.67 7.15-3.91 10.84-5.64 2.03.58 4.19 1.19 5.3 3.19 2.63-.79 5.24-1.65 7.86-2.48.11-1.43-.89-3.4.78-4.27 3.62-2.01 8-2.24 12.06-2.48 3.22 3.5 2.59 8.77 4.88 12.78 2.09 3.63 2.98 7.75 3.71 11.84 1.21 6.22 4.15 12.46 2.48 18.88 3.04 4.04 3.58 9.18 5.12 13.86l2.13-.01c-1.28-5.67-5.1-10.72-4.65-16.75.38-6.46-1.64-12.65-3.1-18.85-1.6-4.87-4.47-9.28-5.17-14.45 3.22-2.71 6.99-4.68 11.09-5.67 8.37-1.96 16.37-5.13 24.47-7.94.85 6.83 4.51 13.52 10.15 17.54 3.68 1.47 8.05.47 11.64-.86 8.05-6.25 7.28-17.59 7.07-26.71 4.96-1.68 10-3.14 14.9-4.98-.59-1.69-1.21-3.38-1.86-5.05-4.69 1.12-9.3 2.56-13.76 4.38-2.17-6.21-4.56-13.3-10.83-16.51H276v225H0V0m142.9 42.42c.36 2.06 1.72 4.62-.62 6.02.35 1.55.68 3.1 1.01 4.66 1.15.11 2.31.21 3.47.32 1.6 2 3.02 4.21 3.66 6.72.75 3.91-.07 7.87-.1 11.8.09 4.33 2.1 8.24 4.19 11.91-1.85 4.88-1.44 10.13-.09 15.07-2.09-.25-4.22-.78-6.33-.42-3.61.91-6.67 3.14-9.92 4.84l-2.82.28-.04 2.18c4.3-2.47 8.97-4.25 13.8-5.35 1.76-.4 3.43.65 5.13.98.31-.18.94-.54 1.26-.72 1.44 3.34 5.32 3.63 8.31 4.79-.11-.17-.31-.52-.41-.69-1.84-1.05-4.19-1.76-5.04-3.91-1.56-3.45-2.03-7.29-2.87-10.97.19-3.14 1.82-5.93 3.25-8.66 1.33.66 2.7 1.29 4.18 1.56-2.53-3.27-5.2-6.4-7.4-9.9-.01 1.41-.38 2.94.41 4.22.67 1.68 2.88 4.23-.12 5.17-1.91-4.5-3.26-9.34-2.72-14.27.41-6.09-.1-13.26-5-17.55-1.36.06-2.71.12-4.07.17.76-1.9 1.64-3.77 2.15-5.76.1-1.84-1.81-2.41-3.27-2.49m-8.79 10.52c-.26 2.54-1.89 4.31-4.37 4.88-.23 6.11 1.12 12.16.52 18.26-.33 6 1.75 12.34-1.02 18.02 2.96 7.34 2.58 15.68 1.14 23.3.57 3.26 2.43 6.01 5.38 7.58-.6-2.83-1.56-5.61-3.53-7.79 2-3.85.66-8.14.96-12.23.14-3.4-1.12-6.66-1.16-10.06 2.41 1.67 1.4 4.8 1.9 7.23 1.67-1.74 1.64-4.23 2.35-6.38 3.27-1.01 6.55.87 9.79 1.27-.15-.58-.43-1.76-.57-2.34-4.5-2.65-9.65-.38-14.37.12.41-3 1.41-5.87 1.98-8.84.46-5.73-2.59-11.4-.86-17.08.85-3.22.23-6.58.78-9.83 1.65-1.98 3.87-3.77 3.67-6.63 1.14-.78 2.21-1.68 2.24-3.17-2.06.54-4.67 1.07-4.83 3.69M31.06 75.98c.65 9.81-1.67 19.79.63 29.52.48 3.96 2.47 8.48.07 12.16-4.24 3.37-11.05.87-14.27 5.81-.49 2.6-.17 6.13 2.57 7.38 5.2 2.77 10.26 5.96 15.96 7.63 3.52 1 7.1-.11 10.45-1.19 1.83-5.52-.18-11.1-1.79-16.37 0-5.58.46-11.2 1.19-16.74 2.19 1.76 4.3 3.62 6.4 5.47 2.71 2.08 5.93 3.33 8.98 4.82.32 7.51.59 15.03.37 22.55-5.87 3.07-11.96 5.74-17.69 9.07-.5 2.79-.47 5.87.64 8.52 2.19 2.01 4.88 3.36 7.38 4.94 13.76-6.43 27.53-12.84 41.23-19.38 1.55-.64 3.03-1.64 4.74-1.73 3.51 1.48 6.44 4.02 9.75 5.88 4.48 2.98 9.62 4.85 13.97 8.05 3.13 2.27 6.98 3.61 9.52 6.64.83 5.62.49 11.35.7 17.02-.04 4.97.96 9.96.23 14.91-5.74 3.42-12.16 5.6-17.75 9.27l-.34 2.8c1.04-.66 2.06-1.35 3.06-2.07 5.72-3.1 11.63-5.83 17.34-8.95.36-10.37-.41-20.72-.51-31.08 3.81 1.55 7.73 2.8 11.59 4.22-.68 9.5-2.7 19.15-.7 28.6.67-.5 1.35-1 2.02-1.5-.28-2.34-.48-4.7-.6-7.05 4.99-2.17 9.91-4.49 14.86-6.73 2.27 1.42 4.76 2.6 6.72 4.47.4 2.35.4 4.74.49 7.12-15.38 7.14-30.62 14.58-46.08 21.55-1.89-1.35-3.92-2.51-5.7-4.01-.39-1.75-.51-3.53-.35-5.36-.65.68-1.31 1.36-1.96 2.05.17 1.57.35 3.14.54 4.72 2.45 1.61 4.92 3.2 7.37 4.82 8.96-3.73 17.5-8.37 26.4-12.25 7.33-3.57 14.88-6.75 22.01-10.72-.12-3.46-.29-6.94-1.13-10.32-3.16-1.27-5.98-5.46-9.65-3.74-4.4 2.24-8.9 4.25-13.41 6.23.33-5.82.21-11.64.16-17.46 6.35-2 12.86-3.69 18.64-7.13 3.37-2.17 8.73-2.9 9.74-7.41.06-2.24 2.5-2.19 4.08-2.84l-1.23-.24c1.5-1.81 2.86-3.73 4.05-5.76-.28-.3-.85-.88-1.13-1.17-.33-4.36 1.72-8.77.35-13.1-.85-3.64-3.76-6.18-6.04-8.95.77-.63 1.55-1.25 2.33-1.87.91-3.45.65-7.11-1.32-10.17-2.13-3.23-2.77-7.04-2.91-10.84l-1.79-.08c-.01 2.39-1.15 5.12.48 7.25 2.72 4.11 3.56 9.09 2.99 13.94-2.26-1-4.56-1.94-6.96-2.58-.67-1.53-1.44-3.03-2.27-4.47-1.71 2.06-1.08 5.27-3.37 6.9-2.46 2.03-3.75 5.01-4.81 7.93 1.92-1.62 3.57-3.53 4.88-5.68.96-1.25 1.85-3.25 3.76-3.02 5.7-.39 8.93 5.09 11.38 9.36 2.86 4.95 2.98 10.8 2.42 16.33-1.38 2.48-3.59 4.44-5.88 6.07-2.12.89-4.51.3-6.74.37-3.94-2.03-6.89-5.23-9.41-8.81 1.82.19 3.68.12 5.4-.54-3.06-.43-4.95-2.62-6.02-5.36-.5-.13-1.51-.38-2.01-.51-.27 1.78.27 3.5.88 5.15-.96-.69-1.91-1.39-2.86-2.08-2.44.44-4.88.93-7.24 1.69-2.39.92-5.27-.34-7.35 1.44-2.76 1.86-6.28 1.18-9.41 1.27-4.59-1.83-10.79-3.4-11.76-9.12-5.69-2.18-9.02-7.47-13.24-11.54-2.25-3.73-6.64-5.26-9.44-8.42-.54-2.46.48-5.02.69-7.5 4.22-6.35 10.78-11.5 18.63-12.01-.36-.67-1.09-2.02-1.46-2.69-1.99.38-3.56 1.81-5.48 2.4-4.1 1.22-7.19 4.32-10.59 6.74-3.93 2.9-4.13 8.19-4.32 12.63.24 2.56 2.87 3.87 4.29 5.72-9.12 1.09-16.42-5.16-24.39-8.33-3.65-.62-6.91-2.32-10.26-3.78-.31-3.32-1.67-6.58-4.31-8.72l-.78 2.36c-3.84-2.62-7.11-6.02-11.22-8.26-1.85.95-3.83 1.66-5.58 2.78-1.82 1.87-1.41 4.86-1.19 7.24 1.48 1.3 3.39 2.08 4.67 3.61.24 3.11-.63 6.15-.66 9.25.01 7.61 3.16 14.94 2 22.59-6.8 2.76-13.06-2.07-19.26-4.19-3.66-1.36-6.86-4.14-7.15-8.28 5.57-.88 11.43-1.49 16.33-4.56.58-4.4-.49-8.82-1.14-13.15.49-.74.97-1.48 1.46-2.21.37 4.18 1.6 8.25 3.71 11.87-.05-4.8-2.08-9.3-2.17-14.1-.66-4.53.58-8.98 1.04-13.46-.49 0-1.45-.01-1.94-.02-.78 4.67-1.94 9.41-1.04 14.16-.49.72-.99 1.42-1.5 2.13-1.35-7.13-.61-14.41-.38-21.61 1.02-2.27.2-4.8.68-7.16.63-1.5 1.47-2.95 2.67-4.06 4.06-.97 8.24-1.2 12.4-1.44-3.46-.36-6.9-1.14-10.38-1.11-3.93.08-6.26 4.16-6.97 7.58m4.29.59c2.23 1.41 6.83.3 6.38-2.92-1.74 1.41-5.73.62-6.38 2.92m54.93 15.35l.3-1.76c-.94 2.31-4.07 4.49-2.82 7.13-.04.23-.11.68-.14.91-2.32 1.21-4.7 2.35-6.62 4.16 3.03 1 5.27-1.73 8.03-2.38 1.8-.81 4.31-.68 5.25-2.75-1.73.29-3.22.17-4.47-.37 1.1-4.09 5.96-6.05 9.92-6.58-.02-.23-.05-.71-.06-.94-3.17.75-6.52.92-9.39 2.58m31.01 2.95c.14 3.74.76 7.47.44 11.21-1.16 2.46-2.73 4.76-3.33 7.45.39-.11 1.17-.35 1.56-.47 1.25-2.68 3.15-5.05 4.03-7.89-.09-3.58.16-7.65-2.7-10.3m-20.62 6.9c-.56 3.09 2.53 2.86 4.6 3.26-.42-2.25-2.9-2.46-4.6-3.26m43.95 27.49c.54-.16 1.62-.5 2.15-.67 1.82-3.66 2.26-8.32 6.48-10.18.68.22 2.04.67 2.72.89-.01-.58-.02-1.75-.02-2.33l-.66 1.55c-.66-.49-1.32-.97-1.98-1.46-5.63 1.19-7.16 7.47-8.69 12.2M39.89 119.6c.27 1.37.03 2.53-.72 3.47-2.34 1.69-5.36 1.44-8 2.34.96.75 1.91 1.49 2.87 2.23 1.64-.85 2.79-3.52 4.93-2.68.59.98.94 2.03 1.06 3.17l1.51.48c.22-2.88.41-5.77.44-8.67-.69-.13-1.39-.25-2.09-.34z"/><path d="M235.22 14.32c1.52-.87 2.28.98 3.18 1.81-4.62 1.53-9.3 2.88-13.91 4.45l-.28-2.91c3.76-.81 7.33-2.25 11.01-3.35zM157.51 40.3c15.68-4.77 31.04-10.57 46.65-15.58 2-1.21 2.76 2.22.8 2.4-7.43 2.7-15.01 4.95-22.41 7.75-8.26 3.02-16.86 4.94-25.08 8.08l.04-2.65zM79.91 70.68c2.39-.7 4.75-1.46 7.11-2.23 1.93 1.84 3.89 3.65 5.76 5.55-2.77.69-5.71 1.13-8.21 2.57-1.9 1.76-3.34 3.95-4.6 6.19.11-4.03.11-8.06-.06-12.08zM40.29 84.27c.54.57.54.57 0 0zM40.43 95.2c1.41-1.24 2.96-2.34 4.61-3.24 1.72.26 2.78 1.86 3.94 3 2.4 2.8 5.23 5.28 8.63 6.8-.01.55-.04 1.66-.05 2.22 2.62 4.42 8.03 5.02 12.28 7.09 4.15 1.04 7.93 3.2 12.15 4 3.44.58 5.2 4.19 8.48 5.17 3.59.94 7.24-.17 10.67-1.23 1.13 2.44 2.23 4.89 3.31 7.35 4.42.81 5.69 5.97 9.85 7.33 4.55 1.7 7.8 5.39 11.8 7.97 4.56 2.27 10.2 1.87 14.36-1.11 5.21.59 10.39-1.76 15.51-.06 1.61 7.37 9.64 10.94 16.61 10.2-4.02 4.37-10.08 5.81-14.99 8.91-5.44 2.07-12.15 4.91-17.6 1.39-3.3-1.92-6.67-3.8-9.47-6.44-3.39-3.25-8.15-4.41-11.58-7.62-9.66-6.24-20.51-10.42-29.9-17.13-3.88-2.92-8.44-4.72-12.43-7.46-8.59-6.22-18.4-10.57-26.74-17.17-2.95-2.38-6.23-4.28-9.51-6.16-.04-1.27-.01-2.54.07-3.81m89.91 49.41c3.22 4.79 9.25 5.93 14.17 8.2 3.62 1.46 8.89 2.79 11.54-1.01-2.66 0-5.36.25-7.97-.39-6.22-1.46-11.43-5.6-17.74-6.8zM63.23 115.49c5.43 4.1 11.57 7.16 16.86 11.47-2.04 1.34-4.88 1.86-5.92 4.35 3.08-.48 5.86-1.91 8.66-3.18 4.01 3.05 8.14 5.94 12.2 8.92-14.28 6.84-28.67 13.45-42.96 20.28-1.91-1.19-3.91-2.26-5.64-3.7-.6-1.99-1.28-4.54-.29-6.44 5.62-3.52 12.1-5.56 17.56-9.31.46-7.46-.06-14.94-.47-22.39z"/></g><g fill="#333"><path d="M204.91 0h8.34c6.27 3.21 8.66 10.3 10.83 16.51 4.46-1.82 9.07-3.26 13.76-4.38.65 1.67 1.27 3.36 1.86 5.05-4.9 1.84-9.94 3.3-14.9 4.98.21 9.12.98 20.46-7.07 26.71-3.59 1.33-7.96 2.33-11.64.86-5.64-4.02-9.3-10.71-10.15-17.54-8.1 2.81-16.1 5.98-24.47 7.94-4.1.99-7.87 2.96-11.09 5.67.7 5.17 3.57 9.58 5.17 14.45 1.46 6.2 3.48 12.39 3.1 18.85-.45 6.03 3.37 11.08 4.65 16.75l-2.13.01c-1.54-4.68-2.08-9.82-5.12-13.86 1.67-6.42-1.27-12.66-2.48-18.88-.73-4.09-1.62-8.21-3.71-11.84-2.29-4.01-1.66-9.28-4.88-12.78-4.06.24-8.44.47-12.06 2.48-1.67.87-.67 2.84-.78 4.27-2.62.83-5.23 1.69-7.86 2.48-1.11-2-3.27-2.61-5.3-3.19-3.69 1.73-7.67 2.97-10.84 5.64.76.3 2.27.92 3.03 1.23-3.44 2.71-7.87 3.36-11.87 4.87-9.96 3.63-20 7.12-30.34 9.51.11.75.34 2.26.46 3.01 7.01-2.44 13.94-5.16 21.15-6.99 6.86-1.86 13.47-4.51 20.29-6.5-.59 1.3-1.19 2.58-1.79 3.87 1.23.88 2.46 1.75 3.71 2.6.92 7.14-3.78 13.23-4.51 20.13-.19 3.37.21 6.74.29 10.11.35.45 1.07 1.34 1.42 1.78-1.19 5.08-1.4 10.36-3.06 15.33-1.49 5.07-.7 10.41.6 15.42l-2.55-.33c-.5-3.07-1.25-6.12-1.38-9.24-.21-3.32 1.66-6.26 2.08-9.48.35-2.73.76-5.45 1.28-8.15-.72.22-2.16.68-2.89.91l.92.97c-1.78 1.26-3.53 2.54-5.34 3.76.1-2.58 1.9-4.24 4.02-5.43-2.16-.32-4.33-.59-6.44-1.16.15-.4.44-1.18.58-1.58 2.56.36 5.84.07 7.35 2.66.49-.57.99-1.14 1.49-1.7-.66-4.57-1.8-9.26-.65-13.85.99-5.37 3.4-10.42 3.96-15.88.46-2.6-1.45-4.68-2.47-6.88-2.08.93-4.18 1.97-6.49 2.17-7.77.77-14.9 4.2-22.33 6.34 3.88 3.39 7.97 6.52 11.86 9.91 2.53 2.14 5.97 3.31 7.62 6.38-4.96-1.84-9.58-4.57-14.03-7.4-2.45-.11-4.9-.16-7.35-.19-1.99 2.37-3.64 5.05-4.09 8.18 3.53.09 7.19-1.41 10.62-.02-4.41 2.54-10.21 2.83-14.06-.92-.3 2.64-1.13 5.18-2.26 7.58 1.15-.95 2.32-1.88 3.52-2.76-.29 3.05-2.99 4.45-5.36 5.77.14.67.43 2.03.57 2.71-.2-.43-.62-1.3-.82-1.73-1.54 1-2.97 2.32-4.82 2.72-3.29.81-7.43 1.99-9.96-1.05-.86-.46-1.73-.92-2.61-1.35-1.32-1.85-2.61-3.74-3.86-5.65.08.84.24 2.52.31 3.36-3.68-1.42-6.83-3.8-9.68-6.49-1.35-1.46-3.49-.86-5.24-1.1-1.26-1.82-4.51-3.5-2.46-6.09 1.22 1.6 3.06 5.73 2.6.06-1.14.13-2.25-.17-2.67-1.36 3.47-1.56 4.72 1.99 6.06 4.34l-.87 1.59c4.57-.69 6.63 4.62 10.3 6.39.45-.52.89-1.05 1.32-1.58a52.492 52.492 0 01-3.02-8.03c-1.69.53-3.37 1.07-5.06 1.62-.65-.51-1.3-1.03-1.95-1.54 5.78-2.24 11.84-3.74 17.58-6.08.08-.57.22-1.72.3-2.29-7.03.93-13.24 4.87-20.28 5.82.42-.74.91-1.48 1.77-1.76 3.67-1.8 7.6-3.02 11.52-4.17-.69-.4-2.07-1.2-2.76-1.61 3.33.09 6.7.4 9.95-.61.67 1.93 1.97 4 1.15 6.09-3.95 1.82-8.2 2.88-12.25 4.42.32.06.97.19 1.3.26 2.04 4.74 3.84 9.95 7.92 13.37 1.92 1.69 4.57 1.89 6.97 2.39 8.99-13.89 7.48-34.3-4.63-45.86 1.19-.12 2.61-.58 3.45.63 3.25 3.53 4.93 8.2 6.59 12.63 3.08 10.47 3.16 22.84-3.74 31.87 4.4-.75 7.19-4.48 8.51-8.44 3.19-9.46 2.45-20.18-2.04-29.09-1.96-4.69-5.93-8.07-10.52-10.04-3.32 1.2-7.52 1.52-9.45 4.92-4.21 5.61-3.56 12.88-4.98 19.35-1.39-3.45-.51-7.3.11-10.84 1.1-4.61 2.61-9.83 6.81-12.55 3.66-1.65 8.25-3.37 11.99-.99 5.7 3.53 8.22 10.21 10.16 16.31l-.44-3.49c4.39 3.43 9.35.14 13.81-1.23 8.09-2.68 16.12-5.51 24.23-8.14.6-2.52 1.71-5.24 4.43-6.07 4.93-1.73 10.97-4.46 15.71-.83 4.07-.74 5.04-5.24 8.12-7.32 3.69-1.04 7.59-.97 11.39-1.26.37.54 1.13 1.6 1.5 2.13 12.29-4.23 24.62-8.35 36.91-12.58-.47-8.98.68-19.5 8.14-25.58.72.48 1.44.96 2.17 1.44-3.46.99-5.49 4.09-6.73 7.24-2.26 5.3-1.73 11.18-2.86 16.72 3.63-1.33 7.3-2.52 10.97-3.72.64 1.89 1.98 3.92.93 5.94-3.18 2.05-7.01 2.78-10.54 4.03 2.36 5.49 4.6 11.51 9.58 15.2 1.92 1.25 5.38 1.76 6.73-.5 6.44-10.33 6.13-23.84 1.11-34.67-1.62-3.87-5.12-6.49-6.95-10.24 1.83.81 3.74 1.71 4.89 3.45 5.47 7.3 7.62 16.71 7.31 25.72-.16 5.12-.95 10.75-4.53 14.69-.25.54-.75 1.64-1 2.19 6.59-1.13 8.86-8.31 9.89-13.99 1.15-9.17-.36-19-5.43-26.85-2.08-3.39-5.72-5.18-9.22-6.74-1.16.49-2.33.98-3.49 1.46-.1-.44-.31-1.32-.42-1.76m30.31 14.32c-3.68 1.1-7.25 2.54-11.01 3.35l.28 2.91c4.61-1.57 9.29-2.92 13.91-4.45-.9-.83-1.66-2.68-3.18-1.81M157.51 40.3l-.04 2.65c8.22-3.14 16.82-5.06 25.08-8.08 7.4-2.8 14.98-5.05 22.41-7.75 1.96-.18 1.2-3.61-.8-2.4-15.61 5.01-30.97 10.81-46.65 15.58m-77.6 30.38c.17 4.02.17 8.05.06 12.08 1.26-2.24 2.7-4.43 4.6-6.19 2.5-1.44 5.44-1.88 8.21-2.57-1.87-1.9-3.83-3.71-5.76-5.55-2.36.77-4.72 1.53-7.11 2.23M40.29 84.27c.54.57.54.57 0 0z"/><path d="M142.9 42.42c1.46.08 3.37.65 3.27 2.49-.51 1.99-1.39 3.86-2.15 5.76 1.36-.05 2.71-.11 4.07-.17 4.9 4.29 5.41 11.46 5 17.55-.54 4.93.81 9.77 2.72 14.27 3-.94.79-3.49.12-5.17-.79-1.28-.42-2.81-.41-4.22 2.2 3.5 4.87 6.63 7.4 9.9-1.48-.27-2.85-.9-4.18-1.56-1.43 2.73-3.06 5.52-3.25 8.66.84 3.68 1.31 7.52 2.87 10.97.85 2.15 3.2 2.86 5.04 3.91.1.17.3.52.41.69-2.99-1.16-6.87-1.45-8.31-4.79-.32.18-.95.54-1.26.72-1.7-.33-3.37-1.38-5.13-.98-4.83 1.1-9.5 2.88-13.8 5.35l.04-2.18 2.82-.28c3.25-1.7 6.31-3.93 9.92-4.84 2.11-.36 4.24.17 6.33.42-1.35-4.94-1.76-10.19.09-15.07-2.09-3.67-4.1-7.58-4.19-11.91.03-3.93.85-7.89.1-11.8-.64-2.51-2.06-4.72-3.66-6.72-1.16-.11-2.32-.21-3.47-.32-.33-1.56-.66-3.11-1.01-4.66 2.34-1.4.98-3.96.62-6.02z"/><path d="M134.11 52.94c.16-2.62 2.77-3.15 4.83-3.69-.03 1.49-1.1 2.39-2.24 3.17.2 2.86-2.02 4.65-3.67 6.63-.55 3.25.07 6.61-.78 9.83-1.73 5.68 1.32 11.35.86 17.08-.57 2.97-1.57 5.84-1.98 8.84 4.72-.5 9.87-2.77 14.37-.12.14.58.42 1.76.57 2.34-3.24-.4-6.52-2.28-9.79-1.27-.71 2.15-.68 4.64-2.35 6.38-.5-2.43.51-5.56-1.9-7.23.04 3.4 1.3 6.66 1.16 10.06-.3 4.09 1.04 8.38-.96 12.23 1.97 2.18 2.93 4.96 3.53 7.79-2.95-1.57-4.81-4.32-5.38-7.58 1.44-7.62 1.82-15.96-1.14-23.3 2.77-5.68.69-12.02 1.02-18.02.6-6.1-.75-12.15-.52-18.26 2.48-.57 4.11-2.34 4.37-4.88z"/><path d="M31.06 75.98c.71-3.42 3.04-7.5 6.97-7.58 3.48-.03 6.92.75 10.38 1.11-4.16.24-8.34.47-12.4 1.44-1.2 1.11-2.04 2.56-2.67 4.06-.48 2.36.34 4.89-.68 7.16-.23 7.2-.97 14.48.38 21.61.51-.71 1.01-1.41 1.5-2.13-.9-4.75.26-9.49 1.04-14.16.49.01 1.45.02 1.94.02-.46 4.48-1.7 8.93-1.04 13.46.09 4.8 2.12 9.3 2.17 14.1-2.11-3.62-3.34-7.69-3.71-11.87-.49.73-.97 1.47-1.46 2.21.65 4.33 1.72 8.75 1.14 13.15-4.9 3.07-10.76 3.68-16.33 4.56.29 4.14 3.49 6.92 7.15 8.28 6.2 2.12 12.46 6.95 19.26 4.19 1.16-7.65-1.99-14.98-2-22.59.03-3.1.9-6.14.66-9.25-1.28-1.53-3.19-2.31-4.67-3.61-.22-2.38-.63-5.37 1.19-7.24 1.75-1.12 3.73-1.83 5.58-2.78 4.11 2.24 7.38 5.64 11.22 8.26l.78-2.36c2.64 2.14 4 5.4 4.31 8.72 3.35 1.46 6.61 3.16 10.26 3.78 7.97 3.17 15.27 9.42 24.39 8.33-1.42-1.85-4.05-3.16-4.29-5.72.19-4.44.39-9.73 4.32-12.63 3.4-2.42 6.49-5.52 10.59-6.74 1.92-.59 3.49-2.02 5.48-2.4.37.67 1.1 2.02 1.46 2.69-7.85.51-14.41 5.66-18.63 12.01-.21 2.48-1.23 5.04-.69 7.5 2.8 3.16 7.19 4.69 9.44 8.42 4.22 4.07 7.55 9.36 13.24 11.54.97 5.72 7.17 7.29 11.76 9.12 3.13-.09 6.65.59 9.41-1.27 2.08-1.78 4.96-.52 7.35-1.44 2.36-.76 4.8-1.25 7.24-1.69.95.69 1.9 1.39 2.86 2.08-.61-1.65-1.15-3.37-.88-5.15.5.13 1.51.38 2.01.51 1.07 2.74 2.96 4.93 6.02 5.36-1.72.66-3.58.73-5.4.54 2.52 3.58 5.47 6.78 9.41 8.81 2.23-.07 4.62.52 6.74-.37 2.29-1.63 4.5-3.59 5.88-6.07.56-5.53.44-11.38-2.42-16.33-2.45-4.27-5.68-9.75-11.38-9.36-1.91-.23-2.8 1.77-3.76 3.02a23.283 23.283 0 01-4.88 5.68c1.06-2.92 2.35-5.9 4.81-7.93 2.29-1.63 1.66-4.84 3.37-6.9.83 1.44 1.6 2.94 2.27 4.47 2.4.64 4.7 1.58 6.96 2.58.57-4.85-.27-9.83-2.99-13.94-1.63-2.13-.49-4.86-.48-7.25l1.79.08c.14 3.8.78 7.61 2.91 10.84 1.97 3.06 2.23 6.72 1.32 10.17-.78.62-1.56 1.24-2.33 1.87 2.28 2.77 5.19 5.31 6.04 8.95 1.37 4.33-.68 8.74-.35 13.1.28.29.85.87 1.13 1.17a43.548 43.548 0 01-4.05 5.76l1.23.24c-1.58.65-4.02.6-4.08 2.84-1.01 4.51-6.37 5.24-9.74 7.41-5.78 3.44-12.29 5.13-18.64 7.13.05 5.82.17 11.64-.16 17.46 4.51-1.98 9.01-3.99 13.41-6.23 3.67-1.72 6.49 2.47 9.65 3.74.84 3.38 1.01 6.86 1.13 10.32-7.13 3.97-14.68 7.15-22.01 10.72-8.9 3.88-17.44 8.52-26.4 12.25-2.45-1.62-4.92-3.21-7.37-4.82-.19-1.58-.37-3.15-.54-4.72.65-.69 1.31-1.37 1.96-2.05-.16 1.83-.04 3.61.35 5.36 1.78 1.5 3.81 2.66 5.7 4.01 15.46-6.97 30.7-14.41 46.08-21.55-.09-2.38-.09-4.77-.49-7.12-1.96-1.87-4.45-3.05-6.72-4.47-4.95 2.24-9.87 4.56-14.86 6.73.12 2.35.32 4.71.6 7.05-.67.5-1.35 1-2.02 1.5-2-9.45.02-19.1.7-28.6-3.86-1.42-7.78-2.67-11.59-4.22.1 10.36.87 20.71.51 31.08-5.71 3.12-11.62 5.85-17.34 8.95-1 .72-2.02 1.41-3.06 2.07l.34-2.8c5.59-3.67 12.01-5.85 17.75-9.27.73-4.95-.27-9.94-.23-14.91-.21-5.67.13-11.4-.7-17.02-2.54-3.03-6.39-4.37-9.52-6.64-4.35-3.2-9.49-5.07-13.97-8.05-3.31-1.86-6.24-4.4-9.75-5.88-1.71.09-3.19 1.09-4.74 1.73-13.7 6.54-27.47 12.95-41.23 19.38-2.5-1.58-5.19-2.93-7.38-4.94-1.11-2.65-1.14-5.73-.64-8.52 5.73-3.33 11.82-6 17.69-9.07.22-7.52-.05-15.04-.37-22.55-3.05-1.49-6.27-2.74-8.98-4.82-2.1-1.85-4.21-3.71-6.4-5.47-.73 5.54-1.19 11.16-1.19 16.74 1.61 5.27 3.62 10.85 1.79 16.37-3.35 1.08-6.93 2.19-10.45 1.19-5.7-1.67-10.76-4.86-15.96-7.63-2.74-1.25-3.06-4.78-2.57-7.38 3.22-4.94 10.03-2.44 14.27-5.81 2.4-3.68.41-8.2-.07-12.16-2.3-9.73.02-19.71-.63-29.52m9.37 19.22c-.08 1.27-.11 2.54-.07 3.81 3.28 1.88 6.56 3.78 9.51 6.16 8.34 6.6 18.15 10.95 26.74 17.17 3.99 2.74 8.55 4.54 12.43 7.46 9.39 6.71 20.24 10.89 29.9 17.13 3.43 3.21 8.19 4.37 11.58 7.62 2.8 2.64 6.17 4.52 9.47 6.44 5.45 3.52 12.16.68 17.6-1.39 4.91-3.1 10.97-4.54 14.99-8.91-6.97.74-15-2.83-16.61-10.2-5.12-1.7-10.3.65-15.51.06-4.16 2.98-9.8 3.38-14.36 1.11-4-2.58-7.25-6.27-11.8-7.97-4.16-1.36-5.43-6.52-9.85-7.33-1.08-2.46-2.18-4.91-3.31-7.35-3.43 1.06-7.08 2.17-10.67 1.23-3.28-.98-5.04-4.59-8.48-5.17-4.22-.8-8-2.96-12.15-4-4.25-2.07-9.66-2.67-12.28-7.09.01-.56.04-1.67.05-2.22-3.4-1.52-6.23-4-8.63-6.8-1.16-1.14-2.22-2.74-3.94-3-1.65.9-3.2 2-4.61 3.24m22.8 20.29c.41 7.45.93 14.93.47 22.39-5.46 3.75-11.94 5.79-17.56 9.31-.99 1.9-.31 4.45.29 6.44 1.73 1.44 3.73 2.51 5.64 3.7 14.29-6.83 28.68-13.44 42.96-20.28-4.06-2.98-8.19-5.87-12.2-8.92-2.8 1.27-5.58 2.7-8.66 3.18 1.04-2.49 3.88-3.01 5.92-4.35-5.29-4.31-11.43-7.37-16.86-11.47z"/><path d="M35.35 76.57c.65-2.3 4.64-1.51 6.38-2.92.45 3.22-4.15 4.33-6.38 2.92zM90.28 91.92c2.87-1.66 6.22-1.83 9.39-2.58.01.23.04.71.06.94-3.96.53-8.82 2.49-9.92 6.58 1.25.54 2.74.66 4.47.37-.94 2.07-3.45 1.94-5.25 2.75-2.76.65-5 3.38-8.03 2.38 1.92-1.81 4.3-2.95 6.62-4.16.03-.23.1-.68.14-.91-1.25-2.64 1.88-4.82 2.82-7.13l-.3 1.76zM121.29 94.87c2.86 2.65 2.61 6.72 2.7 10.3-.88 2.84-2.78 5.21-4.03 7.89-.39.12-1.17.36-1.56.47.6-2.69 2.17-4.99 3.33-7.45.32-3.74-.3-7.47-.44-11.21zM100.67 101.77c1.7.8 4.18 1.01 4.6 3.26-2.07-.4-5.16-.17-4.6-3.26zM144.62 129.26c1.53-4.73 3.06-11.01 8.69-12.2.66.49 1.32.97 1.98 1.46l.66-1.55c0 .58.01 1.75.02 2.33-.68-.22-2.04-.67-2.72-.89-4.22 1.86-4.66 6.52-6.48 10.18-.53.17-1.61.51-2.15.67zM39.89 119.6c.7.09 1.4.21 2.09.34-.03 2.9-.22 5.79-.44 8.67l-1.51-.48a7.594 7.594 0 00-1.06-3.17c-2.14-.84-3.29 1.83-4.93 2.68-.96-.74-1.91-1.48-2.87-2.23 2.64-.9 5.66-.65 8-2.34.75-.94.99-2.1.72-3.47zM130.34 144.61c6.31 1.2 11.52 5.34 17.74 6.8 2.61.64 5.31.39 7.97.39-2.65 3.8-7.92 2.47-11.54 1.01-4.92-2.27-10.95-3.41-14.17-8.2z"/></g></svg>