<svg width="300" height="296" viewBox="0 0 225 222" xmlns="http://www.w3.org/2000/svg"><g fill="#FFF"><path d="M0 0h225v222H0V0m133.97 23.42c-1.62 1.42-3.81 2.96-6.06 2.08-2.62-.83-5.64-1.58-7.95.54 2.61.22 5.21.57 7.72 1.37l-.4 2.4c-2.18-.23-4.38-.24-6.57-.21 2.21 1.05 4.48 2 6.72 2.99 1.59 2.82 3.17 5.73 5.65 7.88-.57 4.77-4.58 7.85-6.7 11.88-.57 2.18-.74 4.46-1.26 6.66-.59 2.27 1 4.63 0 6.84-.81 2.26-1.58 4.57-1.5 7-.96 3.12-2.55 6-3.5 9.11-.63 4.31-.08 8.68.31 12.98.67-.01 1.99-.04 2.65-.05 3.71-1.61 8.05-.08 11.24 2.02 2.18.3 4.38.55 6.58.76.9 4.62 1.14 9.29.64 13.97-1.39.36-2.77.7-4.15 1.03-.84-.26-2.51-.76-3.34-1.02-.44-.84-.88-1.69-1.31-2.54 1.3-.36 2.14-1.19 2.51-2.48-2.41 1.24-4.34 3.24-6.88 4.25l-.4-1.65c-1.58-.27-3.16-.55-4.73-.85.22.38.67 1.13.9 1.51 1.22.32 2.46.62 3.69.91-.45 2.16.45 4.09 1.9 5.65-.97.8-1.94 1.6-2.9 2.4-3.01.38-5.91 1.26-8.72 2.35.05.63.15 1.91.21 2.55-3.95.13-7.68 1.49-11.4 2.65.98-1.47 2.52-2.28 4.12-2.88-.4-.18-1.21-.53-1.62-.71-1.65-3.19-3.32-6.38-5.5-9.24.56-.58 1.12-1.15 1.67-1.72l-2.29.55c-3.28-1.94-6.29-4.33-9.83-5.84 1.63 3.05 5.02 4.2 7.35 6.52 2.89 3.17 4.65 7.15 6.27 11.08-1.01.38-2.02.75-3.03 1.12l2.06.08c-2.6 3.64-5.01 8.52-9.95 9.21-4.19.17-8.42.38-12.37 1.94 7.45 1.09 18.21 1.19 21.58-7.07 1.64-.23 3.18-.8 4.19-2.19 2.7-1.02 5.5-2.01 8.43-1.95 3.1.04 5.91 1.7 9.02 1.74 6.66.5 13.13-1.62 19.31-3.86 1.77-.7 3.71-.37 5.55-.65 2.01-.73 3.15-2.72 4.43-4.31 3.27 1.31 6.89-.28 9.13-2.75 2.46-3.26 3.03-7.55 2.32-11.5-.56-2.86-.32-6.17-2.37-8.48-1.57-1.87-4.07-2.38-6.28-3.07 1.6-6.33-.2-13 1.8-19.29 1.08-1.85 1.95-3.91 1.55-6.11-.49-4.59-.27-9.35-1.64-13.8-.29-.29-.87-.86-1.17-1.15-.07 6.86 1.73 13.54 1.29 20.4-.47.13-1.43.38-1.91.51-.56 3.32-.45 6.68-.23 10.02-.21 8.18-1.63 16.37-4.82 23.93.55-.77 1.66-2.31 2.21-3.08.17 4.9.34 10.1-1.84 14.63-.92 1.85-2.98 2.64-4.95 2.37-4.99-.26-9.17 3.01-13.99 3.73-5.31.94-11.4.67-15.95-2.46 2.87-.67 6.25-.24 8.82-1.81 2.02-2.64 5.28-3.85 7.28-6.47 1.92-.48 3.83-1.02 5.75-1.49.43.39 1.28 1.18 1.7 1.57.45-5.21 1.08-10.41 1.1-15.64l-2.38 1.94c.89-3.77 1.89-7.64.99-11.51-.75 2.77-1.29 5.58-1.84 8.4-6.16-2.19-12.7-6.03-19.29-2.95.71-3.31-.69-6.59-.33-9.9.68-2.83 1.97-5.47 3-8.19.47.68 1.41 2.03 1.87 2.71-.15-2.6-.71-5.14-.95-7.73.4-2.77 2.76-5.19 1.91-8.14-.82-3.59.82-7.02 1.29-10.54 2.11-4 6.37-7 6.2-11.99.61-.63 1.22-1.26 1.83-1.88-3.81-1.24-5.08-5.4-4.71-9.03-.86.91-1.68 1.85-2.51 2.79-.02-.77-.04-2.31-.05-3.07 1.99-1.06 4.21-1.99 5.38-4.04 2.44.94 5.01 1.43 7.61 1.63.17.97.5 2.92.67 3.89-2.35-.84-4.79-1-7.13-.09 0 1.85.01 3.71.03 5.56 1.78.58 3.56 1.16 5.36 1.7-.58 2.31-1.26 4.63-1.24 7.04-.06 5.1-1.53 10.06-1.47 15.17.05 2.61-1.01 5.03-1.92 7.42.23 1.15.44 2.3.65 3.46-.54.01-1.63.04-2.18.05 2.24 6.66.49 13.75.24 20.57 1.85-2.26 1.87-5.23 2.35-7.97 1.09-4.56-.05-9.29 1.01-13.85-.31-1.63-.45-3.31.48-4.79 1.82-3.42.61-7.42 1.71-11.03 1.42-5.13-.08-10.72 2.49-15.56.87 3.46 3.91 5.4 6.13 7.92.91 2.09.91 4.46.93 6.71-.61 6.28-5.92 11.64-4.04 18.22 1.38 3.63-.61 7.24-.78 10.9 3.05 1.13 1.58 5.43 1.87 7.94.35.21 1.05.63 1.39.84.36-3.98.14-8-.91-11.86.88-4.91-.64-9.91.46-14.8 1.37-3.73 2.28-7.61 3.63-11.35-.39-2.62-2.07-5.08-1.26-7.85-1.37-1.43-2.87-2.73-4.41-3.96.1-1.23.16-2.47.21-3.7.36-1.74.59-3.51.77-5.28 1.24-.71 2.45-1.51 3.79-2.02 3.28.61 6.36 2.09 8.94 4.2.02.81.08 2.44.11 3.25-1.2-.43-2.38-.86-3.58-1.28-.89.53-1.78 1.07-2.66 1.6-.05 1.67-.1 3.35-.13 5.02 1.8.71 3.65 1.33 5.37 2.24.64 2.09-1.41 4.94.93 6.41 2.25.88 2.85 3.5 4.38 5.17 11.17 14.45 22.16 29.05 33.43 43.42-.06.64-.19 1.93-.25 2.57.36.4 1.08 1.21 1.44 1.61.46-.01 1.38-.02 1.83-.03 1.17 1.74 1.92 3.92 3.68 5.18 6.53 1.02 9.51-7.47 8.2-12.61-.35-3.55-4.38-4.27-7.29-4.38-3.46 1.17-3.61 5.32-4.62 8.25-2.49-3.64 1.37-7.02 3.21-9.86-3.33.44-5.02 3.37-5.87 6.27-12.05-15.06-23.49-30.6-35.38-45.79-1.36-1.48-1.59-3.5-1.98-5.39 1.89.58 4.04 2.17 5.95.73 2.01-1.59 1.62-4.55.51-6.6-1.81-.54-3.61-1.14-5.41-1.73-.24-2-.48-3.99-.81-5.98-3.52-1.82-7.09-3.75-11.09-4.2-2.28.9-4.18 2.54-6.18 3.91.31-1.77.59-3.55.86-5.32-3.48-1.23-6.91-2.69-10.58-3.3m-12.01 3.92l-.61.68c.84 2.3 2.9-1.14.61-.68m8.54 37.15c.29 4.74.81 9.57-.64 14.19.97-.96 1.95-1.14 2.9-.07-.43-.75-.87-1.48-1.31-2.21.51-2.17 1.01-4.34 1.73-6.45-.67-1.91-1.18-3.99-2.68-5.46m23.24 12.53c.74 1.63 1.61 3.22 2.09 4.95-.08 3.24-1.07 6.37-1.6 9.55-.68-.23-2.05-.7-2.74-.94.09 2.24 2.05 3.06 3.74 3.94 1.22-3.4 1.68-7.02 2.09-10.59.46-2.73-1.18-5.22-1.2-7.91.87-3.5 2.37-6.85 2.78-10.47-2.5 3.43-3.94 7.45-5.16 11.47m-96.11-2.31c-4.24 1.82-4.91 6.79-7.43 10.15-2.36 3-3.46 6.69-5.33 9.97-3.89 6.66-6.08 14.17-10.22 20.7-2.47 3.95-7.61 4.29-11.18 6.79-3.23 2.32-6.55 4.64-10.41 5.76-2.32.53-4.14 2.68-4.26 5.05.52 1.32 1.63 2.26 2.53 3.31.47 1.79.66 3.84 2.26 5.03 4.53 4.58 11.36 5.24 17.42 5.84 6.04-.58 12.55 2.07 18.21-1.01 3.87-3.13 3.67-8.86 3.28-13.36 1.44-6.21 5.3-11.35 9.64-15.87 1.54 4.11 3.53 8.05 4.57 12.33 2.99 2.99 5.8 7.25 10.43 7.48-2.1-2.57-4.86-4.48-7.18-6.83-1.55-3.12-2.69-6.44-4.24-9.56.67-.12 2.01-.36 2.69-.48 3.19 5.39 10.17 4.8 15.5 4.01 4.73-2.28 7.09-7.3 10.57-10.96 2.78 2.2 2.91 7.42 7.49 7.35-.54-.77-1.63-2.29-2.17-3.05l3.09 1.04-2.21-3.18c-.56.88-1.13 1.76-1.71 2.63-.27-1.47-.44-2.92-.59-4.39-2.76-2.64-5.29-5.68-6.3-9.44-1.08-3.97-2.48-7.88-4.73-11.36-1.98-3.89-6.13-5.99-8.1-9.9-1.45-2.82-4.48-3.98-7.35-4.77-3.9-2.98-9.55-6.69-14.27-3.28m68.41 5.2c.93 3.55 2.24 6.99 3.34 10.5 1.84-1.3.99-3.57.37-5.29-.85-1.98-1.27-4.6-3.71-5.21m18.68 7.83c1.25-.91 2.13-3.02 1.35-4.47-1.72-.15-2.86 3.69-1.35 4.47m-32.69 5.27c-6.11 1.83-9.59 8.4-15.87 9.73-.94.43-3.35-.56-2.96 1.12 1.15.57 2.37 1 3.58 1.46 1.25-.35 2.51-.68 3.77-.99.02-.48.04-1.44.06-1.92 5.41-3.61 10.44-10 17.74-8.05-.07.66-.22 1.99-.3 2.66.41 1.82 3.38 1.93 3.3 3.94-.43 1.63-1.09 3.18-1.65 4.76-1.64 1.23-3.05 2.72-3.73 4.68 3.79-1.46 7.02-4.69 7.42-8.87-.15-2.34-2.28-3.66-3.86-5.07-.19-1.2-.39-2.4-.58-3.59-2.29-.28-4.75-1.02-6.92.14m-2.21 9.04c-.97.52-1.94 1.03-2.9 1.54-1.71-.69-3.48-1.22-5.33-1.35 1.05.94 2.29 1.63 3.51 2.34 2.3-.83 4.6-1.68 6.87-2.6.46-1.6.91-3.2 1.32-4.81-1.41 1.44-2.52 3.12-3.47 4.88m22.06-.06c-.65-.57-1.29-1.14-1.94-1.7-1.6-.54-3.15-1.2-4.67-1.9.64 3.21 3.92 3.37 6.61 3.6m.52-2.08l2.06 1.9c.24 1.76.12 3.71 1.38 5.14.25-.77.76-2.31 1.02-3.08 1.24-2.06 3.11.27 4.45.95-.21-2.01-2.19-2.64-3.73-3.4-.57.09-1.13.14-1.7.15-1.16-.55-2.32-1.11-3.48-1.66m-6.64 4.26c.83 2.12 2.76 4.65 5.25 3.16-1.75-1.06-3.48-2.14-5.25-3.16m-18.64.54c2.1 1.44 4.1 3.27 6.74 3.57-1.33-2.65-3.7-4.08-6.74-3.57m.67 6.59c2.69 1.15 5.46 2.22 8.4 2.45-2.01-2.57-5.42-2.57-8.4-2.45m12.93-.76c.99 2.49 3.15 3.95 5.88 3.64-1.64-1.68-3.72-2.78-5.88-3.64m-13.75 3.78c1.42.83 3.39 1.11 4.92.43-.55-1.51-3.27-1.31-4.71-1.7-.05.32-.16.95-.21 1.27m10.4-.99c-.67 1.51 1.16 3.83 2.8 3.28.73-1.39-1.34-3.69-2.8-3.28m30.04 14.88c-15.63 3.34-30.88 8.23-46.38 12.12-11.15 3.28-22.31 6.5-33.27 10.34-4.56 1.89-7.89-2.89-12.22-3.34-.78-1.97-1.37-4-2.18-5.95.06 2.94.57 5.87 1.75 8.58.16-.49.48-1.47.65-1.96 3.85 2.29 7.88 6.35 12.76 4.76 10.15-3.44 20.48-6.3 30.72-9.47 18.12-4.55 36.06-9.79 54.27-14 3.32-.97 7.47-1.93 8.9-5.53-4.67 2.5-9.81 3.65-15 4.45z"/><path d="M136.93 34.2c1.43-4.22 6.56-.51 9.15.85-2.42 3.39-6.16-.27-9.15-.85zM155.95 39.2c3.1-.37 6.05.98 8.79 2.25 1.87.36 1.82 4.36-.61 3.28-2.96-.83-5.85-2.01-8.53-3.52.09-.5.26-1.51.35-2.01zM59.18 75.97c3.74-2.06 7.39.92 10.59 2.61-3.28 1.47-6.79 3.33-8.36 6.76-3.78 8.83-10.71 15.94-14.06 24.99-2.19 5.68-4.72 11.67-9.36 15.75-4.58 1.51-8.55 4.35-13.01 6.07-4.43.42-8.8 1.22-12.99 2.76-.37-1.11-1.57-2.41-.68-3.57 3.33-1.75 7.15-2.48 10.18-4.83 3.32-2.65 7.42-3.83 11.11-5.79 2.83-2.98 5.28-6.43 7.14-10.11 3.7-9.48 8.32-18.6 13.53-27.33 1.38-2.86 2.41-6.42 5.91-7.31M44.47 109.9c2.89-4.7 5.22-9.8 7.18-14.96-4.01 4.02-5.19 9.83-7.18 14.96z"/><path d="M63.26 86.31c2-4.01 6.2-6.99 10.77-6.89 3.57 3.06 5.54 7.45 9.03 10.59 5.55 5.77 6.65 13.93 9.5 21.09-.3 3.8-3.77 6.56-6.1 9.37-2.12 2.62-5.57 2.3-8.59 2.5-2.63-2.36-4.76-5.37-5.06-8.99-.31-3.87-1.4-7.63-3.39-10.98.52-1.69 1.02-3.39 1.52-5.09 1.04 2.35 1.85 5.04 4.33 6.27-.42-3.41-3.34-6.09-2.89-9.61-3.98 1.3-3.35 5.72-4.78 8.88-1.83 4.59-3.63 9.34-7.02 13.05-3.08 3.97-7.07 7.51-8.62 12.44-.53.84-.45 2.72-1.65 2.78-.45-.47-1.34-1.41-1.78-1.88-.61 3.71-2.44 6.91-5.56 9.05 3.48 1.25 6.14-3.87 6.26-6.91 2.23 4.08.7 9.08-1.56 12.82-4.73 1.88-9.83-.45-14.73-.01-7.09.43-15.04-.8-19.63-6.8 1.94-3.13 6.26-3.99 9.75-3.61 3.36.49 5.86-2.19 8.7-3.48 2.86-1.59 6.5-1.75 8.82-4.25 4.81-4.42 6.49-10.98 9.04-16.76 3.2-8.61 9.79-15.32 13.64-23.58m2.31 3.65c2.44-.54 5.32-1.1 6.33-3.74-2.47.53-4.79 1.7-6.33 3.74m-2.2 4.32c-1.26.03-2.37 1.63-1.72 2.79 1.5 1.3 3.8-2.24 1.72-2.79M51.5 117.07c4.48-5.1 6.89-11.59 10.57-17.24-5.11 4.57-8.31 10.87-10.57 17.24zM206.75 92.61c.66.21 1.99.62 2.65.83 2.72 4.27 2.55 11.01-1.74 14.15-3.08 2.05-3.82-2.6-4.67-4.6-1.59-3.92 1-7.79 3.76-10.38zM159.37 93.78c1.66 1.23 3.63 2.14 4.95 3.78 2.45 3.71 1.53 8.38 1.61 12.56-.47 4.44-4.78 7.29-9.05 7.15 1.59-4.91 2.11-10.28.38-15.21.8-2.74 2.01-5.38 2.11-8.28z"/><path d="M68.97 105.19c1.55 6.07 1.16 13.02 6.02 17.76-2.69-1.79-5.67-2.98-8.65-4.16-3.15-4.44 1.31-9.31 2.63-13.6zM128.83 112.96c.37-2 4.24-3.06 3.91.13l1.83-.15c-.78.7-1.57 1.39-2.35 2.08-1.14-.68-2.27-1.36-3.39-2.06z"/></g><g fill="#333"><path d="M133.97 23.42c3.67.61 7.1 2.07 10.58 3.3-.27 1.77-.55 3.55-.86 5.32 2-1.37 3.9-3.01 6.18-3.91 4 .45 7.57 2.38 11.09 4.2.33 1.99.57 3.98.81 5.98 1.8.59 3.6 1.19 5.41 1.73 1.11 2.05 1.5 5.01-.51 6.6-1.91 1.44-4.06-.15-5.95-.73.39 1.89.62 3.91 1.98 5.39 11.89 15.19 23.33 30.73 35.38 45.79.85-2.9 2.54-5.83 5.87-6.27-1.84 2.84-5.7 6.22-3.21 9.86 1.01-2.93 1.16-7.08 4.62-8.25 2.91.11 6.94.83 7.29 4.38 1.31 5.14-1.67 13.63-8.2 12.61-1.76-1.26-2.51-3.44-3.68-5.18-.45.01-1.37.02-1.83.03-.36-.4-1.08-1.21-1.44-1.61.06-.64.19-1.93.25-2.57-11.27-14.37-22.26-28.97-33.43-43.42-1.53-1.67-2.13-4.29-4.38-5.17-2.34-1.47-.29-4.32-.93-6.41-1.72-.91-3.57-1.53-5.37-2.24.03-1.67.08-3.35.13-5.02.88-.53 1.77-1.07 2.66-1.6 1.2.42 2.38.85 3.58 1.28-.03-.81-.09-2.44-.11-3.25-2.58-2.11-5.66-3.59-8.94-4.2-1.34.51-2.55 1.31-3.79 2.02-.18 1.77-.41 3.54-.77 5.28-.05 1.23-.11 2.47-.21 3.7 1.54 1.23 3.04 2.53 4.41 3.96-.81 2.77.87 5.23 1.26 7.85-1.35 3.74-2.26 7.62-3.63 11.35-1.1 4.89.42 9.89-.46 14.8 1.05 3.86 1.27 7.88.91 11.86-.34-.21-1.04-.63-1.39-.84-.29-2.51 1.18-6.81-1.87-7.94.17-3.66 2.16-7.27.78-10.9-1.88-6.58 3.43-11.94 4.04-18.22-.02-2.25-.02-4.62-.93-6.71-2.22-2.52-5.26-4.46-6.13-7.92-2.57 4.84-1.07 10.43-2.49 15.56-1.1 3.61.11 7.61-1.71 11.03-.93 1.48-.79 3.16-.48 4.79-1.06 4.56.08 9.29-1.01 13.85-.48 2.74-.5 5.71-2.35 7.97.25-6.82 2-13.91-.24-20.57.55-.01 1.64-.04 2.18-.05-.21-1.16-.42-2.31-.65-3.46.91-2.39 1.97-4.81 1.92-7.42-.06-5.11 1.41-10.07 1.47-15.17-.02-2.41.66-4.73 1.24-7.04-1.8-.54-3.58-1.12-5.36-1.7-.02-1.85-.03-3.71-.03-5.56 2.34-.91 4.78-.75 7.13.09-.17-.97-.5-2.92-.67-3.89-2.6-.2-5.17-.69-7.61-1.63-1.17 2.05-3.39 2.98-5.38 4.04.01.76.03 2.3.05 3.07.83-.94 1.65-1.88 2.51-2.79-.37 3.63.9 7.79 4.71 9.03-.61.62-1.22 1.25-1.83 1.88.17 4.99-4.09 7.99-6.2 11.99-.47 3.52-2.11 6.95-1.29 10.54.85 2.95-1.51 5.37-1.91 8.14.24 2.59.8 5.13.95 7.73-.46-.68-1.4-2.03-1.87-2.71-1.03 2.72-2.32 5.36-3 8.19-.36 3.31 1.04 6.59.33 9.9 6.59-3.08 13.13.76 19.29 2.95.55-2.82 1.09-5.63 1.84-8.4.9 3.87-.1 7.74-.99 11.51l2.38-1.94c-.02 5.23-.65 10.43-1.1 15.64-.42-.39-1.27-1.18-1.7-1.57-1.92.47-3.83 1.01-5.75 1.49-2 2.62-5.26 3.83-7.28 6.47-2.57 1.57-5.95 1.14-8.82 1.81 4.55 3.13 10.64 3.4 15.95 2.46 4.82-.72 9-3.99 13.99-3.73 1.97.27 4.03-.52 4.95-2.37 2.18-4.53 2.01-9.73 1.84-14.63-.55.77-1.66 2.31-2.21 3.08 3.19-7.56 4.61-15.75 4.82-23.93-.22-3.34-.33-6.7.23-10.02.48-.13 1.44-.38 1.91-.51.44-6.86-1.36-13.54-1.29-20.4.3.29.88.86 1.17 1.15 1.37 4.45 1.15 9.21 1.64 13.8.4 2.2-.47 4.26-1.55 6.11-2 6.29-.2 12.96-1.8 19.29 2.21.69 4.71 1.2 6.28 3.07 2.05 2.31 1.81 5.62 2.37 8.48.71 3.95.14 8.24-2.32 11.5-2.24 2.47-5.86 4.06-9.13 2.75-1.28 1.59-2.42 3.58-4.43 4.31-1.84.28-3.78-.05-5.55.65-6.18 2.24-12.65 4.36-19.31 3.86-3.11-.04-5.92-1.7-9.02-1.74-2.93-.06-5.73.93-8.43 1.95-1.01 1.39-2.55 1.96-4.19 2.19-3.37 8.26-14.13 8.16-21.58 7.07 3.95-1.56 8.18-1.77 12.37-1.94 4.94-.69 7.35-5.57 9.95-9.21l-2.06-.08c1.01-.37 2.02-.74 3.03-1.12-1.62-3.93-3.38-7.91-6.27-11.08-2.33-2.32-5.72-3.47-7.35-6.52 3.54 1.51 6.55 3.9 9.83 5.84l2.29-.55c-.55.57-1.11 1.14-1.67 1.72 2.18 2.86 3.85 6.05 5.5 9.24.41.18 1.22.53 1.62.71-1.6.6-3.14 1.41-4.12 2.88 3.72-1.16 7.45-2.52 11.4-2.65-.06-.64-.16-1.92-.21-2.55 2.81-1.09 5.71-1.97 8.72-2.35.96-.8 1.93-1.6 2.9-2.4-1.45-1.56-2.35-3.49-1.9-5.65-1.23-.29-2.47-.59-3.69-.91-.23-.38-.68-1.13-.9-1.51 1.57.3 3.15.58 4.73.85l.4 1.65c2.54-1.01 4.47-3.01 6.88-4.25-.37 1.29-1.21 2.12-2.51 2.48.43.85.87 1.7 1.31 2.54.83.26 2.5.76 3.34 1.02 1.38-.33 2.76-.67 4.15-1.03.5-4.68.26-9.35-.64-13.97-2.2-.21-4.4-.46-6.58-.76-3.19-2.1-7.53-3.63-11.24-2.02-.66.01-1.98.04-2.65.05-.39-4.3-.94-8.67-.31-12.98.95-3.11 2.54-5.99 3.5-9.11-.08-2.43.69-4.74 1.5-7 1-2.21-.59-4.57 0-6.84.52-2.2.69-4.48 1.26-6.66 2.12-4.03 6.13-7.11 6.7-11.88-2.48-2.15-4.06-5.06-5.65-7.88-2.24-.99-4.51-1.94-6.72-2.99 2.19-.03 4.39-.02 6.57.21l.4-2.4c-2.51-.8-5.11-1.15-7.72-1.37 2.31-2.12 5.33-1.37 7.95-.54 2.25.88 4.44-.66 6.06-2.08m2.96 10.78c2.99.58 6.73 4.24 9.15.85-2.59-1.36-7.72-5.07-9.15-.85m19.02 5c-.09.5-.26 1.51-.35 2.01 2.68 1.51 5.57 2.69 8.53 3.52 2.43 1.08 2.48-2.92.61-3.28-2.74-1.27-5.69-2.62-8.79-2.25m50.8 53.41c-2.76 2.59-5.35 6.46-3.76 10.38.85 2 1.59 6.65 4.67 4.6 4.29-3.14 4.46-9.88 1.74-14.15-.66-.21-1.99-.62-2.65-.83m-47.38 1.17c-.1 2.9-1.31 5.54-2.11 8.28 1.73 4.93 1.21 10.3-.38 15.21 4.27.14 8.58-2.71 9.05-7.15-.08-4.18.84-8.85-1.61-12.56-1.32-1.64-3.29-2.55-4.95-3.78m-30.54 19.18c1.12.7 2.25 1.38 3.39 2.06.78-.69 1.57-1.38 2.35-2.08l-1.83.15c.33-3.19-3.54-2.13-3.91-.13z"/><path d="M121.96 27.34c2.29-.46.23 2.98-.61.68l.61-.68zM130.5 64.49c1.5 1.47 2.01 3.55 2.68 5.46-.72 2.11-1.22 4.28-1.73 6.45.44.73.88 1.46 1.31 2.21-.95-1.07-1.93-.89-2.9.07 1.45-4.62.93-9.45.64-14.19zM153.74 77.02c1.22-4.02 2.66-8.04 5.16-11.47-.41 3.62-1.91 6.97-2.78 10.47.02 2.69 1.66 5.18 1.2 7.91-.41 3.57-.87 7.19-2.09 10.59-1.69-.88-3.65-1.7-3.74-3.94.69.24 2.06.71 2.74.94.53-3.18 1.52-6.31 1.6-9.55-.48-1.73-1.35-3.32-2.09-4.95zM57.63 74.71c4.72-3.41 10.37.3 14.27 3.28 2.87.79 5.9 1.95 7.35 4.77 1.97 3.91 6.12 6.01 8.1 9.9 2.25 3.48 3.65 7.39 4.73 11.36 1.01 3.76 3.54 6.8 6.3 9.44.15 1.47.32 2.92.59 4.39.58-.87 1.15-1.75 1.71-2.63l2.21 3.18-3.09-1.04c.54.76 1.63 2.28 2.17 3.05-4.58.07-4.71-5.15-7.49-7.35-3.48 3.66-5.84 8.68-10.57 10.96-5.33.79-12.31 1.38-15.5-4.01-.68.12-2.02.36-2.69.48 1.55 3.12 2.69 6.44 4.24 9.56 2.32 2.35 5.08 4.26 7.18 6.83-4.63-.23-7.44-4.49-10.43-7.48-1.04-4.28-3.03-8.22-4.57-12.33-4.34 4.52-8.2 9.66-9.64 15.87.39 4.5.59 10.23-3.28 13.36-5.66 3.08-12.17.43-18.21 1.01-6.06-.6-12.89-1.26-17.42-5.84-1.6-1.19-1.79-3.24-2.26-5.03-.9-1.05-2.01-1.99-2.53-3.31.12-2.37 1.94-4.52 4.26-5.05 3.86-1.12 7.18-3.44 10.41-5.76 3.57-2.5 8.71-2.84 11.18-6.79 4.14-6.53 6.33-14.04 10.22-20.7 1.87-3.28 2.97-6.97 5.33-9.97 2.52-3.36 3.19-8.33 7.43-10.15m1.55 1.26c-3.5.89-4.53 4.45-5.91 7.31-5.21 8.73-9.83 17.85-13.53 27.33a42.915 42.915 0 01-7.14 10.11c-3.69 1.96-7.79 3.14-11.11 5.79-3.03 2.35-6.85 3.08-10.18 4.83-.89 1.16.31 2.46.68 3.57 4.19-1.54 8.56-2.34 12.99-2.76 4.46-1.72 8.43-4.56 13.01-6.07 4.64-4.08 7.17-10.07 9.36-15.75 3.35-9.05 10.28-16.16 14.06-24.99 1.57-3.43 5.08-5.29 8.36-6.76-3.2-1.69-6.85-4.67-10.59-2.61m4.08 10.34c-3.85 8.26-10.44 14.97-13.64 23.58-2.55 5.78-4.23 12.34-9.04 16.76-2.32 2.5-5.96 2.66-8.82 4.25-2.84 1.29-5.34 3.97-8.7 3.48-3.49-.38-7.81.48-9.75 3.61 4.59 6 12.54 7.23 19.63 6.8 4.9-.44 10 1.89 14.73.01 2.26-3.74 3.79-8.74 1.56-12.82-.12 3.04-2.78 8.16-6.26 6.91 3.12-2.14 4.95-5.34 5.56-9.05.44.47 1.33 1.41 1.78 1.88 1.2-.06 1.12-1.94 1.65-2.78 1.55-4.93 5.54-8.47 8.62-12.44 3.39-3.71 5.19-8.46 7.02-13.05 1.43-3.16.8-7.58 4.78-8.88-.45 3.52 2.47 6.2 2.89 9.61-2.48-1.23-3.29-3.92-4.33-6.27-.5 1.7-1 3.4-1.52 5.09 1.99 3.35 3.08 7.11 3.39 10.98.3 3.62 2.43 6.63 5.06 8.99 3.02-.2 6.47.12 8.59-2.5 2.33-2.81 5.8-5.57 6.1-9.37-2.85-7.16-3.95-15.32-9.5-21.09-3.49-3.14-5.46-7.53-9.03-10.59-4.57-.1-8.77 2.88-10.77 6.89m5.71 18.88c-1.32 4.29-5.78 9.16-2.63 13.6 2.98 1.18 5.96 2.37 8.65 4.16-4.86-4.74-4.47-11.69-6.02-17.76zM126.04 79.91c2.44.61 2.86 3.23 3.71 5.21.62 1.72 1.47 3.99-.37 5.29-1.1-3.51-2.41-6.95-3.34-10.5zM144.72 87.74c-1.51-.78-.37-4.62 1.35-4.47.78 1.45-.1 3.56-1.35 4.47z"/><path d="M65.57 89.96c1.54-2.04 3.86-3.21 6.33-3.74-1.01 2.64-3.89 3.2-6.33 3.74zM112.03 93.01c2.17-1.16 4.63-.42 6.92-.14.19 1.19.39 2.39.58 3.59 1.58 1.41 3.71 2.73 3.86 5.07-.4 4.18-3.63 7.41-7.42 8.87.68-1.96 2.09-3.45 3.73-4.68.56-1.58 1.22-3.13 1.65-4.76.08-2.01-2.89-2.12-3.3-3.94.08-.67.23-2 .3-2.66-7.3-1.95-12.33 4.44-17.74 8.05-.02.48-.04 1.44-.06 1.92-1.26.31-2.52.64-3.77.99-1.21-.46-2.43-.89-3.58-1.46-.39-1.68 2.02-.69 2.96-1.12 6.28-1.33 9.76-7.9 15.87-9.73zM63.37 94.28c2.08.55-.22 4.09-1.72 2.79-.65-1.16.46-2.76 1.72-2.79zM44.47 109.9c1.99-5.13 3.17-10.94 7.18-14.96-1.96 5.16-4.29 10.26-7.18 14.96z"/><path d="M109.82 102.05c.95-1.76 2.06-3.44 3.47-4.88-.41 1.61-.86 3.21-1.32 4.81-2.27.92-4.57 1.77-6.87 2.6-1.22-.71-2.46-1.4-3.51-2.34 1.85.13 3.62.66 5.33 1.35.96-.51 1.93-1.02 2.9-1.54zM131.88 101.99c-2.69-.23-5.97-.39-6.61-3.6 1.52.7 3.07 1.36 4.67 1.9.65.56 1.29 1.13 1.94 1.7zM51.5 117.07c2.26-6.37 5.46-12.67 10.57-17.24-3.68 5.65-6.09 12.14-10.57 17.24zM132.4 99.91c1.16.55 2.32 1.11 3.48 1.66.57-.01 1.13-.06 1.7-.15 1.54.76 3.52 1.39 3.73 3.4-1.34-.68-3.21-3.01-4.45-.95-.26.77-.77 2.31-1.02 3.08-1.26-1.43-1.14-3.38-1.38-5.14l-2.06-1.9zM125.76 104.17c1.77 1.02 3.5 2.1 5.25 3.16-2.49 1.49-4.42-1.04-5.25-3.16zM107.12 104.71c3.04-.51 5.41.92 6.74 3.57-2.64-.3-4.64-2.13-6.74-3.57zM107.79 111.3c2.98-.12 6.39-.12 8.4 2.45-2.94-.23-5.71-1.3-8.4-2.45zM120.72 110.54c2.16.86 4.24 1.96 5.88 3.64-2.73.31-4.89-1.15-5.88-3.64zM106.97 114.32c.05-.32.16-.95.21-1.27 1.44.39 4.16.19 4.71 1.7-1.53.68-3.5.4-4.92-.43zM117.37 113.33c1.46-.41 3.53 1.89 2.8 3.28-1.64.55-3.47-1.77-2.8-3.28zM147.41 128.21c5.19-.8 10.33-1.95 15-4.45-1.43 3.6-5.58 4.56-8.9 5.53-18.21 4.21-36.15 9.45-54.27 14-10.24 3.17-20.57 6.03-30.72 9.47-4.88 1.59-8.91-2.47-12.76-4.76-.17.49-.49 1.47-.65 1.96-1.18-2.71-1.69-5.64-1.75-8.58.81 1.95 1.4 3.98 2.18 5.95 4.33.45 7.66 5.23 12.22 3.34 10.96-3.84 22.12-7.06 33.27-10.34 15.5-3.89 30.75-8.78 46.38-12.12z"/></g></svg>