<svg width="275pt" height="175pt" viewBox="0 0 275 175" xmlns="http://www.w3.org/2000/svg"><g fill="#FFF"><path d="M0 0h275v175H0V0m151.08 21.32c-.45.22-1.35.68-1.8.9.23.87.47 1.73.71 2.6-2.15 4.45-1.31 9.76-.31 14.42-2.14.09-4.27.55-6.42.37-5.83-.95-12.03.86-16.89 4.09 3.33.32 6.57-.53 9.57-1.91 3.04-1.65 6.4.42 9.56-.35 3.75-.93 7.72.21 11.3-1.57l-.71-.8c6.29-1.13 12.69-1.28 19.04-1.91 2.48-.07 4.28-1.89 4.39-4.35.62-.25 1.84-.73 2.46-.97-5.42-1.04-11.12-1.25-16.23-3.69 5.27-1.29 10.3 2.58 15.63 1.11 1.77.9 2.93-1.5 4.68-1.23 2.09.37 4.02 1.31 6 2.05l-.96 1.53 2.09 1.33c.07-1.59.18-3.18.29-4.77-3.71-.97-7.5-1.51-11.27-2.16-1.04.22-4.06 3.45-4.02 1.22.2-.23.6-.68.81-.9l-1.2-.21c.11-4.47.16-9.46-2.86-13.1-1.78-2.38-4.86-2.99-7.55-3.73-.74.63-1.46 1.26-2.17 1.9 1.96.26 3.92.48 5.89.66 4.68 3.5 5.56 9.74 4.93 15.17l-.35.89c-2.36-3.34-6.12-2.02-9.49-1.87-1.29.93-2.64 2.29-1.35 3.89 4.14 1.59 8.53 2.48 12.74 3.89-3.7 3.13-8.99 1.82-13.46 2.03-2.81-.07-5.32 1.3-7.76 2.49-2.15-4.1-1.26-8.94-.29-13.25 1.36-5.77 7.02-8.81 10.55-13.12-5.18.21-7.91 5.48-9.99 9.56-2.87 5.33-2.29 11.5-2.07 17.32-.71.19-2.13.56-2.85.74-2.22-7.24-1.01-15.4 3.32-21.62 1.95-3.14 5.04-5.46 8.58-6.51.26-.6.77-1.79 1.02-2.39-6.42 1.31-11.03 6.47-13.56 12.25m-8.78-.92c-.39 1.54-.72 3.09-1.01 4.65 2.16.53 4.32 1.08 6.48 1.63-.26-.51-.77-1.51-1.03-2.01-1.44-.44-2.85-.98-4.21-1.62l4.78.12c-.04-.39-.11-1.16-.14-1.54-1.63-.41-3.24-.85-4.87-1.23m71.63 18.04c-1-1.39-1.73-2.95-2.06-4.64-3.75-2.49-8.84-4.39-13.12-2.05-.88-.07-2.63-.19-3.51-.26-.66.54-1.31 1.1-1.95 1.66l2.05-.16c.15.58.44 1.74.58 2.33-2.33-.62-5.11-.41-7-2.1l1.96-2.68c-2.47-.42-4.5 1.41-4.19 3.84.98.74 1.99 1.42 3.04 2.06-4.45 3.14-9.5 5.2-14.02 8.2-3.03 1.92-6.53 2.88-9.71 4.48 3.88.14 7.38-1.67 10.76-3.34 2.42-1.8 5-3.35 7.54-4.97.68-.01 2.02-.02 2.69-.03 1.97-1.36 3.94-2.75 5.46-4.62.36 1.72.79 3.44 1.31 5.13-3.33 2.51-7.54 2.5-11.46 3.2-3.21 1.62-5.86 4.21-8.37 6.75-2.41.73-4.82 1.52-7.33 1.83-.32-1.76-.27-3.82-1.75-5.09-4.35-4.34-10.8-6.63-16.89-5.86-4.11.53-6.01 4.62-7.93 7.77-4.5-1.58-8.87-4.17-13.78-4.12-2.7.39-5.45.95-8.12.07-5-1.51-10.32 1.37-13.5 5.15-2.29 1.39-4.42 3.04-6.76 4.35-3.21.66-6.5 1.35-9.1 3.48-2.61-.31-5.19-.79-7.82-.91-3.79-.34-7.12 2.15-10.89 2.04-3.04.15-6.01-.62-9.02-.71-2.08.55-3.92 1.88-6.09 2.06-6.62.55-13.08 2.76-18.89 5.93-2.95 2-5.9 4.02-8.95 5.86-2.98 3.68-2.8 8.67-2 13.07-.04 4.97.98 9.85.89 14.83.03 7.18 3.25 13.87 3.42 21.02.23 4.02-1.82 7.95-4.93 10.42-2.83 2.23-4.9 5.21-7.4 7.77-2.83 2.16-7.56 3.28-7.72 7.55-1.21 2.75 2.49 5.31 5.04 4.48 3.54-1.05 7.37-.8 10.84-1.96 3.84-3.01 7.92-5.84 12.96-6.28-2.66 3.04-4.99 7.05-9.23 8.02-3 .77-5.42 2.76-8.12 4.18-.62 1.16-1.23 2.34-1.83 3.52 4.32 2.56 8.49 6.2 13.84 5.93 4.33-1.44 8.84-2.49 12.85-4.74 4.71-2.78 10.29-2.97 15.51-4.05 1.46-1.69 3.08-3.58 3.01-5.95.54-6.48-4.55-11.59-5.17-17.85-.54-4.63-1.4-9.28-.81-13.95.76-6.07-.78-12.1-2.61-17.83-.8-2.25-.66-4.67-.36-6.99.32.24.94.73 1.25.98 2.75-.88 5.59-1.52 8.5-1.25 4.4.31 8.71-.87 12.83-2.32-.14.43-.4 1.28-.54 1.71 2.89-1.18 5.77-2.42 8.83-3.08 3.67-.54 7.48.2 11.05-1 2.94-.66 5.15-2.79 7.43-4.6.11-.55.33-1.66.43-2.22 1.75-.27 3.45-.79 4.57-2.26 2.4-.91 4.87-1.74 7.44-1.92 3.73-.18 7.13 1.94 10.87 1.76 5.85.52 11.29-2.02 17.01-2.66 3.36.6 6.84.91 10.09-.42 3.28-.66 4.79-3.87 7.16-5.85 3.53-1.53 7.69-.93 11.03-3.05 2.36-1.56 5.21-1.94 7.72-3.15 3.53-2.56 7.75-3.95 11.19-6.65 6.54-4.42 11.51-10.68 17.84-15.35-.69-.4-1.39-.79-2.09-1.17l-1.32.78c-2.23-1.07-4.18-2.83-6.8-2.87 1.71 1.45 3.49 2.8 5.24 4.2-2 2.31-4.11 4.53-6.32 6.65-.41.02-1.22.06-1.63.09 1.82-1.87 4.02-3.48 5.12-5.94-2.31 1.51-4.41 3.32-6.46 5.16.31.68 1.53 1.55.68 2.32-4 5.25-10.91 6.81-15.8 10.99l1.41-2.92c-.09-.81-.26-2.42-.34-3.23-.71 1.35-1.31 2.74-1.89 4.14-.54.26-1.63.77-2.18 1.02.97.47 1.94.95 2.91 1.43-2.51.68-5.16 1.11-7.39 2.54-3.31 2.05-7.32 2.31-11.07 2.95-5.07-.94-10.27-1.7-15.22-3.08 1.93-2.89 6.27-3.23 9.43-4.46-.36-1.83-2.66-1.93-3.92-2.9 4.73-3.02 10.4-4.21 15.93-4.69-.23.63-.69 1.9-.92 2.54 2.07-1.17 4.07-2.45 6-3.84.3.28.89.83 1.18 1.11 1.04-1.4 2.1-2.79 3.11-4.2 2.69-2.23 5.79-3.99 9.4-3.86 3.69.18 6.66-2.2 8.99-4.79.82-.57 1.65-1.14 2.48-1.71-.93.05-2.78.16-3.71.22l.12-3.69c.59-.1 1.77-.31 2.36-.41 2.05-2.04 4.76-2.98 7.62-3.08 2.28.94 4.58 1.91 6.45 3.57-2.27-.16-5-2.79-7-.57 3.34 2.15 7.72 2.67 10.42 5.75-4.32-.1-7.79-3.74-12.17-3.09 2.9 2.7 6.99 3.19 10.23 5.34-.91 5.81-.64 12.71 4.07 16.9 4.22 3.08 9.86 4.49 14.94 2.85 6.36-1.85 10.85-7.35 13.49-13.19 2.87.91 5.88 1.61 8.87.9 0-1.38.01-2.75.02-4.12-2.55-.98-5.18-1.7-7.84-2.29 1.73-4.64.98-10.05-1.53-14.26-3.39-4.79-9.56-6.09-15.06-5.64-7.35 1.62-12.48 7.69-15.87 14.04m-21.33 8.03c3.04-.77 5.4-2.95 6.8-5.7-2.73 1.27-4.9 3.41-6.8 5.7m-13.1 7.22c2.11 1.51 4.62.96 6.71-.28-2.24-.14-4.49-.04-6.71.28m-11.23 4.06c-.01.28-.05.85-.06 1.13 2.23.12 4.46.16 6.69.14-.03-.42-.1-1.25-.13-1.67-2.16.22-4.33.36-6.5.4m-29.3 25.34c-23.82 6.53-47.84 12.44-71.19 20.56-4.49 1.9-7.86-2.76-12.03-3.45 2.1 3.16 5.72 4.82 9.22 5.89 4.8.16 9.09-2.54 13.68-3.56.23 8.21.1 16.43.96 24.61.12 1.15.59 2.16 1.41 3.03.5-9.36-.02-18.75-.72-28.1 17.18-5.78 34.92-9.77 52.42-14.52.27 4.96-.04 9.96.4 14.91.49.27 1.46.82 1.94 1.1.17-5.48-.29-10.94-.72-16.39 2.4-.79 4.84-1.42 7.3-1.99.11 2.7.21 5.4.39 8.11 1.84-2.48 1.83-5.61 1.56-8.53 5.43-1.73 11.42-2.03 16.39-5.01 1.43-.6 1.81-2.14 2.32-3.45-6.81 4.92-15.57 4.46-23.33 6.79m4.71 16.73c.47-2.04.63-4.54-.01-6.55-1.54 1.18-1.34 5.37.01 6.55m-56.08.6c.8 5.53-.67 11.74 2.3 16.77.32-5.64.62-11.45-1.06-16.91-.31.03-.93.1-1.24.14z"/><path d="M218.44 35.07c2.83-4.93 8.13-7.62 13.28-9.48 3.21 1.38 7.34.91 9.77 3.79 4.08 3.84 3.55 9.86 4.07 14.96-3.91-.75-7.7-2.09-11.66-2.5-1.32 1.03-3.35 2.64-2.33 4.51 3.7 1.54 7.73 2.3 11.71 2.67-.19.72-.38 1.45-.58 2.17-3.64 5.39-8.74 10.47-15.72 10.48-3.85-.69-8.42-1.52-10.54-5.24-3.57-6.72-1.95-15.16 2-21.36m11.63-7.24c-4.32 2.95-7.97 6.97-10.37 11.63-1.89 5.33-3.22 11.56-.21 16.76-2.28-6.04.69-12.28 2.85-17.92 1.8-4.7 6.68-6.78 10.34-9.77 1.1-2.21-1.61-1.51-2.61-.7zM142.78 47.94c1.78-1.45 3.13-3.52 5.26-4.48 2.62-.41 5.2.42 7.77.76-.11.25-.32.74-.43.99 4.19.07 8.5 2.93 9.18 7.26-5.12 1.77-11.13 2.17-15.08 6.29-3.21.77-7.63.97-9.11 4.48-.34 1.4-1.62 1.94-2.82 2.44-.88-.26-2.63-.78-3.5-1.04-.39-.76-.77-1.52-1.15-2.28.93-.68 1.69-1.5 2.28-2.47-2.78.68-5.05 4.88-8.06 2.16-1.39-.21-2.79-.41-4.19-.6 1.15.89 2.31 1.76 3.49 2.62.47-.1 1.42-.3 1.9-.4-1.57 2.11.1 3.98 1.25 5.66-.83.96-1.95 1.8-2.12 3.15-3.29-1.01-6.4.75-9.45 1.74l.4 2.51c-3.74.15-7.41 1.13-10.77 2.78 1.7-3.92-1.05-7.58-1.45-11.33 1.95-.64 4.04-.02 6.04-.08l.04-.99c-2.4-.47-4.8-.98-7.18-1.54-.18.71-.38 1.41-.6 2.11-2.32-5.3-8.73-5.76-12.92-8.91 1.57-.68 3.14-1.36 4.74-1.97l-1.76 1.19c.46.44.92.88 1.39 1.32 1.46-.89 3.02-1.58 4.6-2.22.03-.42.09-1.25.11-1.67 5.35-3.61 10.34-9.9 17.59-8.1-1.17 2.81 1.01 4.4 3.02 5.77.18 1.95-1.03 3.71-1.53 5.55a32.085 32.085 0 00-3.79 3.94c.38.12 1.12.38 1.49.51 1.31-1.18 2.82-2.16 4-3.49.76-1.61.57-3.48.81-5.2.42.03 1.25.09 1.67.13-1.41-2.28-3.19-4.28-4.93-6.31 2.68-.17 5.29-.86 7.96-1.03 4.19.67 7.92 2.96 12.16 3.43 4.23.32 6.86 4.1 10.67 5.38 1.04-3.06-3.33-3.97-5.21-5.47-.58-.88-1.18-1.73-1.77-2.59m5.78-2.36c.16 2.44.09 5.08 1.71 7.09.39-2.55.33-5.23-1.71-7.09m-38.82 9.68c-2.62 1.68-5.48.33-8.26.01 1.12.82 2.3 1.53 3.49 2.25 2.35-.86 4.73-1.62 7.06-2.52.43-1.64.84-3.28 1.22-4.93-1.4 1.57-2.53 3.34-3.51 5.19m15.3-3.75c1.1 2.99 4.15 3.3 6.93 3.55-.66-.61-1.33-1.22-2.01-1.83-1.65-.52-3.28-1.13-4.92-1.72m7.71 1.41c1.76 1.89 1.89 4.53 2.87 6.76.92-1.37 1.4-2.96 2.15-4.42 1.45 1.29 3.05 2.43 4.86 3.16-.97-2.06-2.94-3.12-4.95-3.91-1.83.48-3.34-.95-4.93-1.59m-25.69 4.76c2.12 1.5 4.22 3.22 6.86 3.7-1.31-2.77-3.74-4.17-6.86-3.7m19.18.23c.23.59.71 1.78.95 2.37 1.33.25 2.69.36 4.03.12-1.65-.86-3.31-1.68-4.98-2.49m-18.55 6.23c2.56 1.24 5.27 2.11 8 2.87-.15-.49-.46-1.47-.61-1.95a41.83 41.83 0 00-7.39-.92m12.96-.65c1.06 2.51 3.24 4.09 6.07 3.7-1.76-1.63-3.87-2.8-6.07-3.7m-3.3 2.82c-.68 1.51 1.17 3.86 2.81 3.29.7-1.41-1.34-3.67-2.81-3.29z"/><path d="M232.59 44.1c6.17.07 12.2 1.86 18.16 3.32.34.39 1.02 1.19 1.37 1.59-3.78-.35-7.41-1.45-11.12-2.15-2.88-.65-5.95-.95-8.41-2.76zM74.11 61.09c8.84-2.94 18.6-.26 26.43 4.24 3.15 3.04 5.25 7.35 5.6 11.7-1.68 5.23-6.03 10.97-12.12 10.69-5.17-.25-10.04 1.63-14.74 3.56 1.94-8.84-3.12-18.33-10.35-23.28-5.95.34-11.42 3.27-16.89 5.45-4.07 1.52-6.66 5.22-10.42 7.24-2.98 1.47-4.22 4.8-4.93 7.82-.32 3.93 1.75 7.57 1.75 11.48.06 5.54 2.88 10.55 3.13 16.07.48 7.06 5.05 14.15 2.05 21.16-.83 1.91-2.41 3.35-3.68 4.96-3.55.39-7.38.38-10.47 2.42-2.85 1.53-5.01 4.63-8.53 4.57-3.75.18-7.34 2.52-11.1.87 1.65-1.32 3.42-2.46 5.07-3.77-1.21.22-3.61.65-4.82.86 1.64-1.83 3.5-3.5 5.87-4.3 2.88-.9 4.21-3.8 6.14-5.87 2.51-3.13 7-4.73 7.95-8.98 2.39-8.35-.99-16.83-2.9-24.91-.48-5.99-.09-12.02.05-18.02-.3-2.67-1.79-5.41-.38-8.02.66-3.24 4.19-4.1 6.55-5.78 7.59-5.44 16.87-8.64 26.26-8.31 1.32 1.72 1.03 5.03 3.32 5.67.17-2.13.14-4.26.29-6.39-.43-.31-1.28-.94-1.71-1.25 4.35.48 8.9.03 13.07 1.56-1.68 1.25-2.63 3.1-3.42 4.99 3.03.16 6.07.26 9.1.02-.07.39-.21 1.19-.28 1.59 4.34-.97 9.14 2.31 8.58 7 .49-1.27 1-2.53 1.55-3.77-.65-1.4-1.07-3.11-2.54-3.9-2.27-1.39-5.23-.89-7.41-2.47-2.27-.01-4.54.02-6.82 0 1.54-1.1 3.11-2.15 4.65-3.25-1.33-.49-2.65-1-3.9-1.65m5.35 2.07c4.06 2.32 8.55 3.86 12.99 5.33-2.73-4.36-8.4-4.69-12.99-5.33m-45.2 9.94c-.82 4.27 4.91 6.91 7.92 4.04-3.34.18-5.97-1.46-7.92-4.04m-4.4 5.81c.03 2.35.49 4.66.59 7l1.09-1.02c-.46 2-.64 4.03-.56 6.09 1.05-1.97 1.77-4.1 2.59-6.17l-1.23.24c.96-2.39-.01-5.23-2.48-6.14m6.02 61.5c4.36-2.12 8.42-8.28 4.78-12.73.86 4.91-2.4 8.81-4.78 12.73m-9.89.52c2.54-1.87 4.93-3.99 6.78-6.56-3.14 1.07-5.27 3.72-6.78 6.56zM142.55 62.24c2.52-.75 5.1-1.26 7.72-1.54-2.57 1.69-5.17 3.74-5.29 7.11 5.3.14 10.21 2.28 15.43 2.91-3.24 3.97-8.38 6.16-13.48 5.18-5.49-1.16-10.49 2.29-15.92 2.14-4.14.17-8.31-.91-11.93-2.9 2.61-.34 5.32-.4 7.84-1.26 2.59-2.35 5.83-3.97 8.15-6.61 1.32-.46 2.66-.91 4-1.34 1.36-.11 2.72-.29 4.08-.5l-2.01-.65c.35-.64 1.06-1.91 1.41-2.54z"/><path d="M129.27 66.15a10.89 10.89 0 011.78-2.91c.95 1.62 2.25 2.98 3.53 4.33-1.81-.18-4.18.49-5.31-1.42zM52.13 75.09c5.68-2.26 11.22-5.7 17.58-5.17 4.88 5.2 9.68 12.32 8.09 19.77-5.32 3.04-11.76 3.7-17.75 2.73-2.67-.64-5.15.62-7.56 1.55 1.22 7.73 5.2 15.02 4.44 23.02-.73 6.4.38 12.78 1.31 19.1 1.52 5.24 4.78 10.21 4.49 15.82-.42 3.31-4.25 3.38-6.78 4.07-4.99.76-9.87 2.16-14.22 4.77-5.51 2.41-13.64 5.2-17.84-.88-.82-.02-2.46-.04-3.28-.06 1.35-3.81 5.9-4.98 9.32-6.3 5.36-1.23 7.78-6.67 11.07-10.48 1.92-2.31 5.34-3.8 5.55-7.16-.24-6.25-2.04-12.3-3.18-18.42-.63-4.23-.56-8.67-2.36-12.64-1.3-2.56-.65-5.47-.94-8.21-.64-2.69-1.38-5.36-1.96-8.07 1.44-2.37 2.08-5.53 4.82-6.81 3.4-1.76 5.57-5.25 9.2-6.63m5.5 8.05c5.29-.89 9.08-5.17 13.46-7.92-5.21 1.12-9.8 4.12-13.46 7.92m-9.89-.76c.5 1.93 2.26 2.65 4.05 2.97.29-.37.86-1.13 1.14-1.5-1.74-.45-3.46-.98-5.19-1.47m-5.22 12.14c2.05-1.57 2.79-3.89 2.71-6.4.62-1.01 1.23-2.03 1.81-3.06-4.42.97-3.78 6-4.52 9.46m2.75 8.69c.47.63.47.63 0 0m4.43 6.25c1.07 5.4 1.55 11.03 4 16.05-.11-7.56-3.33-14.72-3.45-22.32-.48 2.04-.98 4.17-.55 6.27m-3.12-4.16c-.38 6.36.64 12.77 2.63 18.82-.39-4.71-1.3-9.38-1.4-14.11.06-1.68-.43-3.26-1.23-4.71m9.51 39.55c-.36.6-1.1 1.82-1.46 2.42-1.21.72-2.35 1.56-3.21 2.69 2.31-.52 7.12-2.14 4.67-5.11m-14.54 9.5c2.19-2.07 3.97-4.55 5.18-7.31-2.49 1.78-4.54 4.26-5.18 7.31m-15.09 2.7c2.46 1.46 5.09 2.72 7.99 2.91-1.57-2.8-5.02-3.75-7.99-2.91z"/></g><g fill="#333"><path d="M151.08 21.32c2.53-5.78 7.14-10.94 13.56-12.25-.25.6-.76 1.79-1.02 2.39-3.54 1.05-6.63 3.37-8.58 6.51-4.33 6.22-5.54 14.38-3.32 21.62.72-.18 2.14-.55 2.85-.74-.22-5.82-.8-11.99 2.07-17.32 2.08-4.08 4.81-9.35 9.99-9.56-3.53 4.31-9.19 7.35-10.55 13.12-.97 4.31-1.86 9.15.29 13.25 2.44-1.19 4.95-2.56 7.76-2.49 4.47-.21 9.76 1.1 13.46-2.03-4.21-1.41-8.6-2.3-12.74-3.89-1.29-1.6.06-2.96 1.35-3.89 3.37-.15 7.13-1.47 9.49 1.87l.35-.89c.63-5.43-.25-11.67-4.93-15.17-1.97-.18-3.93-.4-5.89-.66.71-.64 1.43-1.27 2.17-1.9 2.69.74 5.77 1.35 7.55 3.73 3.02 3.64 2.97 8.63 2.86 13.1l1.2.21c-.21.22-.61.67-.81.9-.04 2.23 2.98-1 4.02-1.22 3.77.65 7.56 1.19 11.27 2.16-.11 1.59-.22 3.18-.29 4.77l-2.09-1.33.96-1.53c-1.98-.74-3.91-1.68-6-2.05-1.75-.27-2.91 2.13-4.68 1.23-5.33 1.47-10.36-2.4-15.63-1.11 5.11 2.44 10.81 2.65 16.23 3.69-.62.24-1.84.72-2.46.97-.11 2.46-1.91 4.28-4.39 4.35-6.35.63-12.75.78-19.04 1.91l.71.8c-3.58 1.78-7.55.64-11.3 1.57-3.16.77-6.52-1.3-9.56.35-3 1.38-6.24 2.23-9.57 1.91 4.86-3.23 11.06-5.04 16.89-4.09 2.15.18 4.28-.28 6.42-.37-1-4.66-1.84-9.97.31-14.42-.24-.87-.48-1.73-.71-2.6.45-.22 1.35-.68 1.8-.9z"/><path d="M142.3 20.4c1.63.38 3.24.82 4.87 1.23.03.38.1 1.15.14 1.54l-4.78-.12c1.36.64 2.77 1.18 4.21 1.62.26.5.77 1.5 1.03 2.01-2.16-.55-4.32-1.1-6.48-1.63.29-1.56.62-3.11 1.01-4.65zM213.93 38.44c3.39-6.35 8.52-12.42 15.87-14.04 5.5-.45 11.67.85 15.06 5.64 2.51 4.21 3.26 9.62 1.53 14.26 2.66.59 5.29 1.31 7.84 2.29-.01 1.37-.02 2.74-.02 4.12-2.99.71-6 .01-8.87-.9-2.64 5.84-7.13 11.34-13.49 13.19-5.08 1.64-10.72.23-14.94-2.85-4.71-4.19-4.98-11.09-4.07-16.9-3.24-2.15-7.33-2.64-10.23-5.34 4.38-.65 7.85 2.99 12.17 3.09-2.7-3.08-7.08-3.6-10.42-5.75 2-2.22 4.73.41 7 .57-1.87-1.66-4.17-2.63-6.45-3.57-2.86.1-5.57 1.04-7.62 3.08-.59.1-1.77.31-2.36.41l-.12 3.69c.93-.06 2.78-.17 3.71-.22-.83.57-1.66 1.14-2.48 1.71-2.33 2.59-5.3 4.97-8.99 4.79-3.61-.13-6.71 1.63-9.4 3.86-1.01 1.41-2.07 2.8-3.11 4.2-.29-.28-.88-.83-1.18-1.11a64.916 64.916 0 01-6 3.84c.23-.64.69-1.91.92-2.54-5.53.48-11.2 1.67-15.93 4.69 1.26.97 3.56 1.07 3.92 2.9-3.16 1.23-7.5 1.57-9.43 4.46 4.95 1.38 10.15 2.14 15.22 3.08 3.75-.64 7.76-.9 11.07-2.95 2.23-1.43 4.88-1.86 7.39-2.54-.97-.48-1.94-.96-2.91-1.43.55-.25 1.64-.76 2.18-1.02.58-1.4 1.18-2.79 1.89-4.14.08.81.25 2.42.34 3.23l-1.41 2.92c4.89-4.18 11.8-5.74 15.8-10.99.85-.77-.37-1.64-.68-2.32 2.05-1.84 4.15-3.65 6.46-5.16-1.1 2.46-3.3 4.07-5.12 5.94.41-.03 1.22-.07 1.63-.09 2.21-2.12 4.32-4.34 6.32-6.65-1.75-1.4-3.53-2.75-5.24-4.2 2.62.04 4.57 1.8 6.8 2.87l1.32-.78c.7.38 1.4.77 2.09 1.17-6.33 4.67-11.3 10.93-17.84 15.35-3.44 2.7-7.66 4.09-11.19 6.65-2.51 1.21-5.36 1.59-7.72 3.15-3.34 2.12-7.5 1.52-11.03 3.05-2.37 1.98-3.88 5.19-7.16 5.85-3.25 1.33-6.73 1.02-10.09.42-5.72.64-11.16 3.18-17.01 2.66-3.74.18-7.14-1.94-10.87-1.76-2.57.18-5.04 1.01-7.44 1.92-1.12 1.47-2.82 1.99-4.57 2.26-.1.56-.32 1.67-.43 2.22-2.28 1.81-4.49 3.94-7.43 4.6-3.57 1.2-7.38.46-11.05 1-3.06.66-5.94 1.9-8.83 3.08.14-.43.4-1.28.54-1.71-4.12 1.45-8.43 2.63-12.83 2.32-2.91-.27-5.75.37-8.5 1.25-.31-.25-.93-.74-1.25-.98-.3 2.32-.44 4.74.36 6.99 1.83 5.73 3.37 11.76 2.61 17.83-.59 4.67.27 9.32.81 13.95.62 6.26 5.71 11.37 5.17 17.85.07 2.37-1.55 4.26-3.01 5.95-5.22 1.08-10.8 1.27-15.51 4.05-4.01 2.25-8.52 3.3-12.85 4.74-5.35.27-9.52-3.37-13.84-5.93.6-1.18 1.21-2.36 1.83-3.52 2.7-1.42 5.12-3.41 8.12-4.18 4.24-.97 6.57-4.98 9.23-8.02-5.04.44-9.12 3.27-12.96 6.28-3.47 1.16-7.3.91-10.84 1.96-2.55.83-6.25-1.73-5.04-4.48.16-4.27 4.89-5.39 7.72-7.55 2.5-2.56 4.57-5.54 7.4-7.77 3.11-2.47 5.16-6.4 4.93-10.42-.17-7.15-3.39-13.84-3.42-21.02.09-4.98-.93-9.86-.89-14.83-.8-4.4-.98-9.39 2-13.07 3.05-1.84 6-3.86 8.95-5.86 5.81-3.17 12.27-5.38 18.89-5.93 2.17-.18 4.01-1.51 6.09-2.06 3.01.09 5.98.86 9.02.71 3.77.11 7.1-2.38 10.89-2.04 2.63.12 5.21.6 7.82.91 2.6-2.13 5.89-2.82 9.1-3.48 2.34-1.31 4.47-2.96 6.76-4.35 3.18-3.78 8.5-6.66 13.5-5.15 2.67.88 5.42.32 8.12-.07 4.91-.05 9.28 2.54 13.78 4.12 1.92-3.15 3.82-7.24 7.93-7.77 6.09-.77 12.54 1.52 16.89 5.86 1.48 1.27 1.43 3.33 1.75 5.09 2.51-.31 4.92-1.1 7.33-1.83 2.51-2.54 5.16-5.13 8.37-6.75 3.92-.7 8.13-.69 11.46-3.2-.52-1.69-.95-3.41-1.31-5.13-1.52 1.87-3.49 3.26-5.46 4.62-.67.01-2.01.02-2.69.03-2.54 1.62-5.12 3.17-7.54 4.97-3.38 1.67-6.88 3.48-10.76 3.34 3.18-1.6 6.68-2.56 9.71-4.48 4.52-3 9.57-5.06 14.02-8.2-1.05-.64-2.06-1.32-3.04-2.06-.31-2.43 1.72-4.26 4.19-3.84l-1.96 2.68c1.89 1.69 4.67 1.48 7 2.1-.14-.59-.43-1.75-.58-2.33l-2.05.16c.64-.56 1.29-1.12 1.95-1.66.88.07 2.63.19 3.51.26 4.28-2.34 9.37-.44 13.12 2.05.33 1.69 1.06 3.25 2.06 4.64m4.51-3.37c-3.95 6.2-5.57 14.64-2 21.36 2.12 3.72 6.69 4.55 10.54 5.24 6.98-.01 12.08-5.09 15.72-10.48.2-.72.39-1.45.58-2.17-3.98-.37-8.01-1.13-11.71-2.67-1.02-1.87 1.01-3.48 2.33-4.51 3.96.41 7.75 1.75 11.66 2.5-.52-5.1.01-11.12-4.07-14.96-2.43-2.88-6.56-2.41-9.77-3.79-5.15 1.86-10.45 4.55-13.28 9.48m-75.66 12.87c.59.86 1.19 1.71 1.77 2.59 1.88 1.5 6.25 2.41 5.21 5.47-3.81-1.28-6.44-5.06-10.67-5.38-4.24-.47-7.97-2.76-12.16-3.43-2.67.17-5.28.86-7.96 1.03 1.74 2.03 3.52 4.03 4.93 6.31-.42-.04-1.25-.1-1.67-.13-.24 1.72-.05 3.59-.81 5.2-1.18 1.33-2.69 2.31-4 3.49-.37-.13-1.11-.39-1.49-.51 1.15-1.43 2.42-2.73 3.79-3.94.5-1.84 1.71-3.6 1.53-5.55-2.01-1.37-4.19-2.96-3.02-5.77-7.25-1.8-12.24 4.49-17.59 8.1-.02.42-.08 1.25-.11 1.67-1.58.64-3.14 1.33-4.6 2.22-.47-.44-.93-.88-1.39-1.32l1.76-1.19c-1.6.61-3.17 1.29-4.74 1.97 4.19 3.15 10.6 3.61 12.92 8.91.22-.7.42-1.4.6-2.11 2.38.56 4.78 1.07 7.18 1.54l-.04.99c-2 .06-4.09-.56-6.04.08.4 3.75 3.15 7.41 1.45 11.33 3.36-1.65 7.03-2.63 10.77-2.78l-.4-2.51c3.05-.99 6.16-2.75 9.45-1.74.17-1.35 1.29-2.19 2.12-3.15-1.15-1.68-2.82-3.55-1.25-5.66-.48.1-1.43.3-1.9.4-1.18-.86-2.34-1.73-3.49-2.62 1.4.19 2.8.39 4.19.6 3.01 2.72 5.28-1.48 8.06-2.16-.59.97-1.35 1.79-2.28 2.47.38.76.76 1.52 1.15 2.28.87.26 2.62.78 3.5 1.04 1.2-.5 2.48-1.04 2.82-2.44 1.48-3.51 5.9-3.71 9.11-4.48 3.95-4.12 9.96-4.52 15.08-6.29-.68-4.33-4.99-7.19-9.18-7.26.11-.25.32-.74.43-.99-2.57-.34-5.15-1.17-7.77-.76-2.13.96-3.48 3.03-5.26 4.48m89.81-3.84c2.46 1.81 5.53 2.11 8.41 2.76 3.71.7 7.34 1.8 11.12 2.15-.35-.4-1.03-1.2-1.37-1.59-5.96-1.46-11.99-3.25-18.16-3.32M74.11 61.09c1.25.65 2.57 1.16 3.9 1.65-1.54 1.1-3.11 2.15-4.65 3.25 2.28.02 4.55-.01 6.82 0 2.18 1.58 5.14 1.08 7.41 2.47 1.47.79 1.89 2.5 2.54 3.9-.55 1.24-1.06 2.5-1.55 3.77.56-4.69-4.24-7.97-8.58-7 .07-.4.21-1.2.28-1.59-3.03.24-6.07.14-9.1-.02.79-1.89 1.74-3.74 3.42-4.99-4.17-1.53-8.72-1.08-13.07-1.56.43.31 1.28.94 1.71 1.25-.15 2.13-.12 4.26-.29 6.39-2.29-.64-2-3.95-3.32-5.67-9.39-.33-18.67 2.87-26.26 8.31-2.36 1.68-5.89 2.54-6.55 5.78-1.41 2.61.08 5.35.38 8.02-.14 6-.53 12.03-.05 18.02 1.91 8.08 5.29 16.56 2.9 24.91-.95 4.25-5.44 5.85-7.95 8.98-1.93 2.07-3.26 4.97-6.14 5.87-2.37.8-4.23 2.47-5.87 4.3 1.21-.21 3.61-.64 4.82-.86-1.65 1.31-3.42 2.45-5.07 3.77 3.76 1.65 7.35-.69 11.1-.87 3.52.06 5.68-3.04 8.53-4.57 3.09-2.04 6.92-2.03 10.47-2.42 1.27-1.61 2.85-3.05 3.68-4.96 3-7.01-1.57-14.1-2.05-21.16-.25-5.52-3.07-10.53-3.13-16.07 0-3.91-2.07-7.55-1.75-11.48.71-3.02 1.95-6.35 4.93-7.82 3.76-2.02 6.35-5.72 10.42-7.24 5.47-2.18 10.94-5.11 16.89-5.45 7.23 4.95 12.29 14.44 10.35 23.28 4.7-1.93 9.57-3.81 14.74-3.56 6.09.28 10.44-5.46 12.12-10.69-.35-4.35-2.45-8.66-5.6-11.7-7.83-4.5-17.59-7.18-26.43-4.24m68.44 1.15c-.35.63-1.06 1.9-1.41 2.54l2.01.65c-1.36.21-2.72.39-4.08.5-1.34.43-2.68.88-4 1.34-2.32 2.64-5.56 4.26-8.15 6.61-2.52.86-5.23.92-7.84 1.26 3.62 1.99 7.79 3.07 11.93 2.9 5.43.15 10.43-3.3 15.92-2.14 5.1.98 10.24-1.21 13.48-5.18-5.22-.63-10.13-2.77-15.43-2.91.12-3.37 2.72-5.42 5.29-7.11-2.62.28-5.2.79-7.72 1.54m-13.28 3.91c1.13 1.91 3.5 1.24 5.31 1.42-1.28-1.35-2.58-2.71-3.53-4.33-.75.88-1.34 1.85-1.78 2.91m-77.14 8.94c-3.63 1.38-5.8 4.87-9.2 6.63-2.74 1.28-3.38 4.44-4.82 6.81.58 2.71 1.32 5.38 1.96 8.07.29 2.74-.36 5.65.94 8.21 1.8 3.97 1.73 8.41 2.36 12.64 1.14 6.12 2.94 12.17 3.18 18.42-.21 3.36-3.63 4.85-5.55 7.16-3.29 3.81-5.71 9.25-11.07 10.48-3.42 1.32-7.97 2.49-9.32 6.3.82.02 2.46.04 3.28.06 4.2 6.08 12.33 3.29 17.84.88 4.35-2.61 9.23-4.01 14.22-4.77 2.53-.69 6.36-.76 6.78-4.07.29-5.61-2.97-10.58-4.49-15.82-.93-6.32-2.04-12.7-1.31-19.1.76-8-3.22-15.29-4.44-23.02 2.41-.93 4.89-2.19 7.56-1.55 5.99.97 12.43.31 17.75-2.73 1.59-7.45-3.21-14.57-8.09-19.77-6.36-.53-11.9 2.91-17.58 5.17z"/><path d="M230.07 27.83c1-.81 3.71-1.51 2.61.7-3.66 2.99-8.54 5.07-10.34 9.77-2.16 5.64-5.13 11.88-2.85 17.92-3.01-5.2-1.68-11.43.21-16.76 2.4-4.66 6.05-8.68 10.37-11.63zM192.6 46.47c1.9-2.29 4.07-4.43 6.8-5.7-1.4 2.75-3.76 4.93-6.8 5.7zM148.56 45.58c2.04 1.86 2.1 4.54 1.71 7.09-1.62-2.01-1.55-4.65-1.71-7.09zM109.74 55.26c.98-1.85 2.11-3.62 3.51-5.19-.38 1.65-.79 3.29-1.22 4.93-2.33.9-4.71 1.66-7.06 2.52-1.19-.72-2.37-1.43-3.49-2.25 2.78.32 5.64 1.67 8.26-.01zM125.04 51.51c1.64.59 3.27 1.2 4.92 1.72.68.61 1.35 1.22 2.01 1.83-2.78-.25-5.83-.56-6.93-3.55zM132.75 52.92c1.59.64 3.1 2.07 4.93 1.59 2.01.79 3.98 1.85 4.95 3.91-1.81-.73-3.41-1.87-4.86-3.16-.75 1.46-1.23 3.05-2.15 4.42-.98-2.23-1.11-4.87-2.87-6.76zM179.5 53.69c2.22-.32 4.47-.42 6.71-.28-2.09 1.24-4.6 1.79-6.71.28zM168.27 57.75c2.17-.04 4.34-.18 6.5-.4.03.42.1 1.25.13 1.67-2.23.02-4.46-.02-6.69-.14.01-.28.05-.85.06-1.13zM107.06 57.68c3.12-.47 5.55.93 6.86 3.7-2.64-.48-4.74-2.2-6.86-3.7zM126.24 57.91c1.67.81 3.33 1.63 4.98 2.49-1.34.24-2.7.13-4.03-.12-.24-.59-.72-1.78-.95-2.37zM79.46 63.16c4.59.64 10.26.97 12.99 5.33-4.44-1.47-8.93-3.01-12.99-5.33zM107.69 64.14c2.48.08 4.96.4 7.39.92.15.48.46 1.46.61 1.95-2.73-.76-5.44-1.63-8-2.87zM120.65 63.49c2.2.9 4.31 2.07 6.07 3.7-2.83.39-5.01-1.19-6.07-3.7zM117.35 66.31c1.47-.38 3.51 1.88 2.81 3.29-1.64.57-3.49-1.78-2.81-3.29zM34.26 73.1c1.95 2.58 4.58 4.22 7.92 4.04-3.01 2.87-8.74.23-7.92-4.04zM57.63 83.14c3.66-3.8 8.25-6.8 13.46-7.92-4.38 2.75-8.17 7.03-13.46 7.92zM138.97 83.09c7.76-2.33 16.52-1.87 23.33-6.79-.51 1.31-.89 2.85-2.32 3.45-4.97 2.98-10.96 3.28-16.39 5.01.27 2.92.28 6.05-1.56 8.53-.18-2.71-.28-5.41-.39-8.11-2.46.57-4.9 1.2-7.3 1.99.43 5.45.89 10.91.72 16.39-.48-.28-1.45-.83-1.94-1.1-.44-4.95-.13-9.95-.4-14.91-17.5 4.75-35.24 8.74-52.42 14.52.7 9.35 1.22 18.74.72 28.1-.82-.87-1.29-1.88-1.41-3.03-.86-8.18-.73-16.4-.96-24.61-4.59 1.02-8.88 3.72-13.68 3.56-3.5-1.07-7.12-2.73-9.22-5.89 4.17.69 7.54 5.35 12.03 3.45 23.35-8.12 47.37-14.03 71.19-20.56zM29.86 78.91c2.47.91 3.44 3.75 2.48 6.14l1.23-.24c-.82 2.07-1.54 4.2-2.59 6.17-.08-2.06.1-4.09.56-6.09l-1.09 1.02c-.1-2.34-.56-4.65-.59-7zM47.74 82.38c1.73.49 3.45 1.02 5.19 1.47-.28.37-.85 1.13-1.14 1.5-1.79-.32-3.55-1.04-4.05-2.97zM42.52 94.52c.74-3.46.1-8.49 4.52-9.46-.58 1.03-1.19 2.05-1.81 3.06.08 2.51-.66 4.83-2.71 6.4z"/><path d="M143.68 99.82c-1.35-1.18-1.55-5.37-.01-6.55.64 2.01.48 4.51.01 6.55zM87.6 100.42c.31-.04.93-.11 1.24-.14 1.68 5.46 1.38 11.27 1.06 16.91-2.97-5.03-1.5-11.24-2.3-16.77zM45.27 103.21c.47.63.47.63 0 0zM49.7 109.46c-.43-2.1.07-4.23.55-6.27.12 7.6 3.34 14.76 3.45 22.32-2.45-5.02-2.93-10.65-4-16.05zM46.58 105.3c.8 1.45 1.29 3.03 1.23 4.71.1 4.73 1.01 9.4 1.4 14.11-1.99-6.05-3.01-12.46-2.63-18.82zM35.88 140.41c2.38-3.92 5.64-7.82 4.78-12.73 3.64 4.45-.42 10.61-4.78 12.73zM25.99 140.93c1.51-2.84 3.64-5.49 6.78-6.56-1.85 2.57-4.24 4.69-6.78 6.56zM56.09 144.85c2.45 2.97-2.36 4.59-4.67 5.11.86-1.13 2-1.97 3.21-2.69.36-.6 1.1-1.82 1.46-2.42zM41.55 154.35c.64-3.05 2.69-5.53 5.18-7.31-1.21 2.76-2.99 5.24-5.18 7.31zM26.46 157.05c2.97-.84 6.42.11 7.99 2.91-2.9-.19-5.53-1.45-7.99-2.91z"/></g></svg>