<svg width="368" height="300" viewBox="0 0 276 225" xmlns="http://www.w3.org/2000/svg"><g fill="#FFF"><path d="M0 0h276v225H0V0m62.98 62.2c-3.54 2.76-1.68 7.84-2.2 11.68-.51-.07-1.53-.19-2.04-.26-3.12-3.69-8.3-3.97-12.77-4.43-2.85-.16-5.67-1.09-8.54-.71-3.31.28-5.1 3.63-6.14 6.39.2 10.44-1.84 21.03.52 31.36.47 3.74 2.59 8.08-.11 11.45-4.22 3.3-10.86.95-14.2 5.71-.53 2.67-.17 6.24 2.66 7.5 5.16 2.8 10.25 5.91 15.92 7.6 3.52.98 7.09-.18 10.45-1.19.54-2.73.96-5.56.36-8.32-.48-3.68-2.72-7.04-2.25-10.85.33-4.67.51-9.37 1.22-14 2.2 1.79 4.3 3.69 6.42 5.57 2.82 1.92 5.93 3.36 8.99 4.82.3 7.49.57 14.98.37 22.48-5.87 3.12-12.01 5.74-17.72 9.13-.46 2.77-.46 5.8.63 8.43 2.18 2.04 4.88 3.4 7.38 4.99 8.31-3.97 16.74-7.69 25.01-11.75-.21 2.2-.93 4.77.89 6.55 3.93-.91 7.68-2.5 11.4-4.03 2.39 5.41 3.58 11.9 8.83 15.46 3.32 2.66 7.5.45 11.19.25 5.27-3.85 7.63-10.1 9.04-16.22 3.88 3.69 9.29 5.29 12.91 9.24.95 7.58.31 15.26.93 22.87.15 2.99.45 6.02-.03 8.99-5.95 3.56-12.58 5.86-18.39 9.68.36 2.6.43 5.27 1.12 7.82 2.31 1.89 4.62 3.87 7.3 5.22 4.02-1.17 7.63-3.41 11.46-5.06 12.12-6.05 24.72-11.17 36.63-17.59.48-3.49-.13-7.02-.84-10.43-2.51-1.43-4.8-3.31-7.5-4.34-1.8.13-3.3 1.2-4.86 1.98-3.42 1.94-7.14 3.22-10.73 4.81.36-5.82.21-11.66.19-17.48 5.22-1.73 10.67-2.9 15.54-5.53 4.18-2.22 8.71-3.92 12.37-6.99.03-2.78 1.57-4.48 4.31-4.85-.25-.07-.73-.2-.98-.27 3.03-3.2 5.23-7.32 4.96-11.84.49-4.88-3.13-9.1-2.26-13.97.46-2.99.54-6.04-.65-8.88 2.89-1.57 3.38-4.58 3.11-7.6-.63 1.5-.85 3.2-1.75 4.58-3.33 2.23-7.13 4-11.15 4.5 1.02-1.99 2.64-4.09 1.81-6.46-.69-.92-1.74-1.52-2.79-1.94-2.19.81-3.99 2.36-6.01 3.48 1.69-2.49 2.88-5.25 4.06-8-2.4-4.82-4.66-9.73-7.48-14.33-1.11-1.98-2.75-3.94-2.47-6.36.41-2.87 1.82-5.48 2.53-8.28.55-1.59.58-3.67 2.29-4.53a14.3 14.3 0 014.08.01c2.1 2.17 3.58 4.85 5.47 7.19 3.09 6.53-.66 14 1.55 20.69-.62.8-1.24 1.59-1.8 2.43 2.32.37 4.62-.29 6.86-.8 1.14.42 2.29.83 3.45 1.21-.86-1.76-2.21-3.19-3.7-4.43-1-3.26-2.52-6.34-3.3-9.67-.66-3.21.24-6.58-.68-9.74-1.98-3.22-4.86-5.76-7.08-8.79-2.68.35-6.15-.04-7.76 2.64-1.64 2.92-2.53 6.24-3.29 9.48-.2 4.75 1.99 9.18 3.75 13.47-.31 4.71 3.01 8.52 3.49 13.11-1.46 2.56-2.99 5.09-4.51 7.62 3.96-.85 7.7-2.42 11.4-4.01-.02.68-.05 2.06-.07 2.74-3.66 1.72-7.21 3.69-10.9 5.35-.88 1.75-1.03 4.21-3.03 5.08-4.28 2.24-8.6 6.13-13.74 3.89l2.09 2.86-.56 3.09c1.84-.36 2.5-1.45 1.96-3.28 3.23.21 5.98-1.48 8.57-3.19.76 1.72 1.9 3.2 3.29 4.46-1.86 2.57-3.65 5.76-1.5 8.83-1.89-1.75-3.81-3.45-5.74-5.15-1.05.36-2.09.74-3.13 1.14 1.21.64 2.43 1.28 3.64 1.92-3.56 1.33-7.25 2.26-11.09 2.23 4.55 4.73 11.15-1.14 16.35 2.14 1.3 2.6 2.25 5.65 4.99 7.14 3.31 2.66 7.66 2.89 11.72 2.77-3.23 3.48-7.86 4.97-11.91 7.22-4.77 2.76-10.19 4.57-15.7 4.81-4.93-.74-9.04-4.06-13.02-6.85-3.87-3.88-9.1-5.73-13.54-8.8.13-2.58.22-5.16.29-7.74 5.43-3.35 10.69-6.98 16.05-10.43.13 2.6 2.99 2.37 4.78 3.13-.83-1.26-1.67-2.52-2.51-3.77 1.21-.68 2.45-1.3 3.59-2.09-.53-2.53-1.66-4.96-4.19-5.99-.42-1.88-.86-3.74-1.35-5.6-.71 2.95-1.11 5.98-2.21 8.83-.83-2.8-1.55-5.63-2.22-8.47-1.18 2.89.03 5.76 1.24 8.42-4.88 2.73-9.13 6.43-14.09 8.99-1.26-6.09-4.07-12.42-9.84-15.42-2.36-.75-4.88.12-7.26-.42-2.21-1.45-4.47-2.97-6.22-4.98-.35-2.49.48-4.98.74-7.45 4.89-7.68 13.61-13.27 22.99-11.64-.28 1.48-.55 2.97-.81 4.46-3.14-.93-6.33-1.86-9.62-2.06-.18.38-.54 1.14-.71 1.51 3.18.86 6.45 1.34 9.68 2 .02 1.79.02 3.58.03 5.37-.46.07-1.39.2-1.85.27.39.09 1.19.27 1.59.36-.03 4.53-.21 9.06-.04 13.59.4.52 1.2 1.56 1.59 2.08.62-4.01.15-8.02-.36-12.01.78-8.28 2.31-16.57 5.77-24.19 1.29-1.34 2.51-3.35 4.51-3.53 4.13 1.5 7.98 4.35 10 8.33 2.22 6.67 4.22 13.49 7.76 19.62 1.17 1.47.34 3.39.39 5.06 2.5-1.45 5.4-4.5 8.4-2.38 1.2.43 4.16 2.78 4.19-.03-1.33-1.96-4.18-2.88-6.27-1.52-2.35-.81-4.8-1.81-5.83-4.28-4.42-5.94-3.55-14.1-7.97-20.02-1.56-2.52-4.51-3.47-6.78-5.17-1.54-1.05-3.1-2.77-5.17-2.24-2.72 1.62-2.9 5.1-4.72 7.43a27.485 27.485 0 00-3.3 5.64c-1.97-2.03-4.54-3.22-7.17-4.14.04-.61.13-1.84.17-2.46-2.58-1.29-5.13-2.64-7.8-3.75.27 3.62 4.7 3.82 7.17 5.44.12.92.36 2.75.47 3.66-2.88 2.1-6.6 2.54-9.43 4.72-2.28 1.69-4.65 3.29-6.74 5.2-2.84 2.75-3 6.93-3.32 10.61-.55 3.16 2.71 4.85 4.43 6.89-9.22 1.09-16.57-5.23-24.65-8.37-3.54-.75-6.83-2.25-10.09-3.77-.92-4.1-3.11-8.32-1.48-12.54 1.22-5.66 6.46-11.55 12.72-10.28 4.77.33 8.33 4.2 13.05 4.67 2.51-.03 4.83-1.11 7.08-2.11-3.23-1.42-6.7.25-10.05.11.01-.9.04-2.68.05-3.58 1.06-1.27 2.15-2.51 3.35-3.65.18-.54.54-1.62.73-2.16-3.25 1.07-5.04 4.06-7.11 6.53-3.54-1.26-7.29-1.52-11.02-1.37-.38-1.04-.71-2.11-.97-3.18 2.4-.18 4.8.17 7.21.16-2.71-1.61-5.8-2.29-8.81-3.05-.28.59-.83 1.78-1.1 2.37-.81-.35-2.41-1.03-3.22-1.38.85-2.87.12-6.66 2.9-8.59l-1.88-.28c.27-.82.8-2.46 1.07-3.29 2.59-1.48 5.64-2.29 8.56-1.33 7.57 2.29 14.55 6.6 20.04 12.3-1.94.32-3.87.64-5.8.98 2.09 1.53 4.72 1.35 7.17 1.55 2.5 2.5 5.99 3.37 9.21 4.51-2.54-3.62-6.09-6.32-9.59-8.95-4.62-4.34-10.01-7.78-15.5-10.9-4.86-1.69-11.47-3.38-15.47.91m2.51 7.14l1.4 1.6c4.01 1.07 8.21.65 12.31.57-4.18-2.3-9.13-1.68-13.71-2.17m142.98 12.08c-3.38 6.13-4.57 13.31-4.19 20.26-6.54-.07-13.05-.7-19.59-.93-.11.5-.34 1.48-.45 1.97 5.57.62 11.18.63 16.77.96 5.15.52 9.14-4.04 14.25-3.83.56 1.77-1.43 2.29-2.55 2.91-2.92 1.27-5.84 2.62-8.93 3.42-5.26.11-10.5-.98-15.77-.66-1.57-.16-2.67.73-3.42 2 6.79-.12 13.55.68 20.34.82 1.02 6.15 3.34 12.74 8.9 16.19 3.3 1.7 6.96-.39 10.39-.48 8.76-7.89 9.97-20.54 8.84-31.6 4.14-1.45 8.04-4.17 12.54-4.23l.32 1.72c-3.63 2.35-8.04 3.06-11.91 4.95.05.23.15.71.2.94 4.7-.22 9.04-3.03 13.5-4.57-.27-1.83-.53-3.77-1.84-5.19-4.6.8-8.79 3.09-13.16 4.66-1.67-5.9-3.58-13.08-9.79-15.71-5.41-1.56-11.82 1.45-14.45 6.4M75.41 96.71c.56-1.05 1.11-2.11 1.62-3.19 1.53-1.43 3.4-2.8 3.31-5.16-2.96 1.65-5.89 4.68-4.93 8.35m17.49-6.26c-.6.47-1.8 1.42-2.4 1.89l-.08-1.98c-1.1 1.92-2.26 3.79-3.35 5.71.35.65.69 1.31 1.02 1.98-2.55 1.2-5.07 2.51-7.26 4.3 1.4.16 2.89.33 4.11-.53 2.8-1.56 5.85-2.54 8.96-3.28-.15-.42-.44-1.25-.58-1.67-.82.15-2.46.46-3.28.61l-.2-.59c1.08-4.61 6.68-5.85 10.67-7.2-2.55.04-5.07.56-7.61.76m30.92 1.53c-.08 3.52-.66 7.57 1.61 10.57 2.67 2.37 6.23 3.72 8.32 6.75 1.44 1.67 1.09 4.8 3.74 5.24-.01 1.93.04 3.87.51 5.75 2.08-2.25 4.28-4.43 6.04-6.96-1.62.45-3.19 1.03-4.77 1.6-2.08-6.45-9.17-9.22-12.18-15.06-1.11-2.63-1.9-5.38-3.27-7.89m18.86 2.08c1.03 2.12 2.83 3.61 4.92 4.61-.93.82-1.84 1.65-2.75 2.49 5.49-1.83 10.7.88 15.72 2.79-1.54-2.96-4.67-3.93-7.71-4.55-2.06-3.62-6.52-4.36-10.18-5.34m-32.97 8.93c1.21-1.32 4.32-1.82 4.14-3.86-2.53-1.88-4.24 1.73-4.14 3.86m-9.18-1.29c-.26 3.08 2.8 2.99 4.96 3.33-.87-2.07-3.1-2.57-4.96-3.33m22.49 37.58c1.75 1.44 3.54 3.14 5.92 3.34 3.82.67 8.72 1.06 11.08-2.74-3.57.58-7.11 1.32-10.72 1.67-1.8-1.47-3.96-2.23-6.28-2.27m7.22 5.28c3.32 4.71 9.24 6.02 14.22 8.23 3.74 1.55 8.8 2.61 11.78-.93-3.56-.02-7.25.22-10.62-1.15-5.18-1.92-9.91-5.01-15.38-6.15z"/><path d="M36.03 70.96c5.07-1.23 10.6-2.07 15.42.49 5.83 3.15 11.68 6.28 17.61 9.23-4.07 1.66-8.14 3.98-10.33 7.95-1.97 2.89-1.75 6.52-1.89 9.85-2.53-1.78-4.94-3.73-7.4-5.6a96.5 96.5 0 011.64-1.16c.84.35 2.54 1.05 3.39 1.4-1.12-3.08-4.68-3.72-6.76-5.92-1.63-1.18-2.66-3.57-4.88-3.64-1.92-.32-3.63.71-5.26 1.55 2 .47 4.13.37 6.05 1.11 1.67 1.23 3.15 2.7 4.82 3.95-.47.36-.95.72-1.43 1.09-1.85-2.06-4.06.35-5.95.9-3.12 1.3-2.63 5.29-2.37 8.01 1.43 1.24 3.11 2.13 4.72 3.11.07 4.24-1.09 8.45-.54 12.69.64 6.56 2.76 12.99 1.86 19.64-6.82 2.67-13.13-2.02-19.32-4.22-3.67-1.33-6.63-4.15-7.23-8.13 5.59-1.12 11.56-1.58 16.48-4.75.46-4.7-.61-9.38-1.31-14.01.56-.02 1.11-.01 1.67.03.66 3.71 1.76 7.36 3.7 10.61-.21-4.81-2.1-9.36-2.25-14.19-.6-4.5.49-8.95 1.05-13.39-.48-.03-1.44-.08-1.92-.11-1.05 4.78-1.44 9.65-1.5 14.54-.25.46-.76 1.38-1.01 1.84-1.4-6.55-.64-13.24-.55-19.86 1.01-4.39-.51-9.83 3.49-13.01m-1.44 5.19c2.54 1.42 7.58 1.62 7.15-2.47-2.38.85-4.79 1.6-7.15 2.47m9.92 3.6c3.29 1.32 6.7 2.33 10.1 3.33-1.68-3.66-6.6-4.86-10.1-3.33m-5.65 43.1c-2.06 1.97-5.11 1.79-7.69 2.54l2.85 2.22c1.62-.96 2.82-3.12 4.94-2.82.84.76 1.19 1.89 1.05 3.37l1.56.4c.19-3.1.3-6.21.53-9.31-1.74.51-2.47 2.12-3.24 3.6zM210.71 80.85c1.97-2.93 5.79-3.16 8.69-4.74 7.41 1.56 10.52 9.22 11.7 15.89 1.03 7.1.88 14.56-1.63 21.35-1.51 3.69-3.76 7.78-8.09 8.55.32-.57.95-1.72 1.26-2.29 2.36-2.25 3.15-5.53 3.84-8.6 1.35-5.86.97-11.93.63-17.88-.57.71-1.14 1.43-1.69 2.16.67 5.53.52 11.21-1 16.6-.95 3.65-3.11 6.86-3.85 10.58-2.36.07-5.06.76-7.06-.86-4.25-3.2-6.35-8.54-7.14-13.64 2.73-2.2 6.28-2.82 9.33-4.44 1.8-1.83.8-4.29 0-6.32-3.59 1.18-7.1 2.57-10.59 3.98.78-6.96 1.2-14.53 5.6-20.34m6.73-3.29c3.23 5.04 7.28 9.93 7.6 16.23.55-.74 1.1-1.47 1.65-2.21-1.64-5.23-3.12-12.48-9.25-14.02z"/><path d="M41.22 94.53c1.7-1.08 3.84-3.85 5.75-1.58 3.26 3.26 6.29 6.93 10.63 8.85-.01.57-.03 1.7-.03 2.27 1.28 1.45 2.5 3.13 4.4 3.83 7.21 3.02 14.63 5.57 22.07 7.91 3.12 2.54 6.41 5.51 10.8 4.73 1.31-1 2.65-1.98 4.04-2.87-2.57 2.83-5.53 5.5-6.88 9.17-1.93 5.22-2.95 10.85-2.47 16.42 1.56-2.47 1.35-5.5 1.86-8.28.73-5.85 3.19-12.02 8.42-15.21 6.98 2.83 9.81 10.41 10.82 17.32.89 8.31.33 17.21-4.22 24.46l.16 2.42c-2.43.39-5.22 1.66-7.42-.1-4.73-3.25-6.75-9.19-7.64-14.63 3.53-1.22 7.55-1.93 10.44-4.4 1.15-3.04-1.47-5.35-3.59-7.03.39.46 1.18 1.38 1.57 1.84-7.16 2.34-13.96 5.85-21.33 7.47 3.38-2.53 8.8-2.58 10.51-6.91-11.88 4.86-23.29 10.8-34.96 16.14-2.87 1.69-5.56-1.19-7.76-2.76-.68-1.84-.71-3.85-.72-5.79 5.38-4.27 12.47-5.88 18.02-9.94.47-7.52-.04-15.06-.51-22.57 5.41 4.31 11.6 7.51 17.14 11.64-2.3 1.14-4.88 2.07-6.34 4.36 3.14-.42 5.97-1.86 8.8-3.16 2.32 1.77 4.68 3.48 7.25 4.85-.17-.71-.51-2.13-.68-2.83-3.8-3.31-8.69-4.92-12.75-7.82-8.59-6.18-18.36-10.56-26.69-17.12-2.99-2.4-6.32-4.34-9.63-6.28.32-1.43-.62-3.51.94-4.4zM160.8 121.15c-.87-3.93 3.91-4.34 6.35-5.98 1.96 2.19 3.83 4.53 6.25 6.26 3.84 1.86 4.72 6.4 7.04 9.64 1.28 5.5.11 12.29-4.89 15.67-2.17 2.43-5.56 1.64-8.43 1.68-3.86-2.12-6.93-5.21-9.38-8.84 1.04.03 3.13.09 4.18.13-2.48-1.93-4.44-4.37-4.62-7.65.58-1.22 1.15-2.44 1.7-3.68-1.02-1.24-2.04-2.47-3.08-3.7 1.11-.95 2.21-1.9 3.34-2.83.95 1.04 1.89.89 1.54-.7zM171.65 116.83c2.02-.94 4.01-1.93 6.01-2.94.52 2.63.59 5.3.31 7.96-2.09-1.7-4.25-3.31-6.32-5.02z"/><path d="M102.22 118.94c4.2-1.99 8.36 2.12 10.71 5.27 4.38 7.74 4.91 17.19 3.39 25.81-1.06 5.78-3.61 12.32-9.72 14.33 5.98-8.09 6.83-18.76 5.51-28.43-1.14-6.52-3.24-14.1-9.89-16.98zM118.3 134.74c6.43-4.03 12.51-8.59 18.91-12.67.17.67.52 2.01.69 2.68-6.47 4.07-12.97 8.11-19.22 12.5-.13-.84-.26-1.68-.38-2.51zM80.67 148.75c6.25-1.89 12.19-4.71 18.45-6.55l2.59.68c-6.46 3.51-13.67 5.31-20.29 8.5-.19-.66-.56-1.97-.75-2.63zM133.87 160.96c3.88 1.52 8.01 2.46 11.62 4.6-.69 9.43-2.82 19.06-.59 28.44 3.2-2.06.53-6.04 1.71-8.79 4.67-2.58 9.67-4.48 14.48-6.76 2.27 1.45 4.84 2.59 6.7 4.57.39 2.3.41 4.65.53 6.98-15.28 7.13-30.44 14.52-45.81 21.43-1.7-.79-3.47-1.44-5.29-1.88-1.11-2.68-1.2-5.57-1.03-8.42 6.18-2.82 12.19-5.99 18.21-9.14.34-10.35-.39-20.68-.53-31.03z"/></g><g fill="#333"><path d="M62.98 62.2c4-4.29 10.61-2.6 15.47-.91 5.49 3.12 10.88 6.56 15.5 10.9 3.5 2.63 7.05 5.33 9.59 8.95-3.22-1.14-6.71-2.01-9.21-4.51-2.45-.2-5.08-.02-7.17-1.55 1.93-.34 3.86-.66 5.8-.98-5.49-5.7-12.47-10.01-20.04-12.3-2.92-.96-5.97-.15-8.56 1.33-.27.83-.8 2.47-1.07 3.29l1.88.28c-2.78 1.93-2.05 5.72-2.9 8.59.81.35 2.41 1.03 3.22 1.38.27-.59.82-1.78 1.1-2.37 3.01.76 6.1 1.44 8.81 3.05-2.41.01-4.81-.34-7.21-.16.26 1.07.59 2.14.97 3.18 3.73-.15 7.48.11 11.02 1.37 2.07-2.47 3.86-5.46 7.11-6.53-.19.54-.55 1.62-.73 2.16-1.2 1.14-2.29 2.38-3.35 3.65-.01.9-.04 2.68-.05 3.58 3.35.14 6.82-1.53 10.05-.11-2.25 1-4.57 2.08-7.08 2.11-4.72-.47-8.28-4.34-13.05-4.67-6.26-1.27-11.5 4.62-12.72 10.28-1.63 4.22.56 8.44 1.48 12.54 3.26 1.52 6.55 3.02 10.09 3.77 8.08 3.14 15.43 9.46 24.65 8.37-1.72-2.04-4.98-3.73-4.43-6.89.32-3.68.48-7.86 3.32-10.61 2.09-1.91 4.46-3.51 6.74-5.2 2.83-2.18 6.55-2.62 9.43-4.72-.11-.91-.35-2.74-.47-3.66-2.47-1.62-6.9-1.82-7.17-5.44 2.67 1.11 5.22 2.46 7.8 3.75-.04.62-.13 1.85-.17 2.46 2.63.92 5.2 2.11 7.17 4.14.87-2.01 1.98-3.89 3.3-5.64 1.82-2.33 2-5.81 4.72-7.43 2.07-.53 3.63 1.19 5.17 2.24 2.27 1.7 5.22 2.65 6.78 5.17 4.42 5.92 3.55 14.08 7.97 20.02 1.03 2.47 3.48 3.47 5.83 4.28 2.09-1.36 4.94-.44 6.27 1.52-.03 2.81-2.99.46-4.19.03-3-2.12-5.9.93-8.4 2.38-.05-1.67.78-3.59-.39-5.06-3.54-6.13-5.54-12.95-7.76-19.62-2.02-3.98-5.87-6.83-10-8.33-2 .18-3.22 2.19-4.51 3.53-3.46 7.62-4.99 15.91-5.77 24.19.51 3.99.98 8 .36 12.01-.39-.52-1.19-1.56-1.59-2.08-.17-4.53.01-9.06.04-13.59-.4-.09-1.2-.27-1.59-.36.46-.07 1.39-.2 1.85-.27-.01-1.79-.01-3.58-.03-5.37-3.23-.66-6.5-1.14-9.68-2 .17-.37.53-1.13.71-1.51 3.29.2 6.48 1.13 9.62 2.06.26-1.49.53-2.98.81-4.46-9.38-1.63-18.1 3.96-22.99 11.64-.26 2.47-1.09 4.96-.74 7.45 1.75 2.01 4.01 3.53 6.22 4.98 2.38.54 4.9-.33 7.26.42 5.77 3 8.58 9.33 9.84 15.42 4.96-2.56 9.21-6.26 14.09-8.99-1.21-2.66-2.42-5.53-1.24-8.42.67 2.84 1.39 5.67 2.22 8.47 1.1-2.85 1.5-5.88 2.21-8.83.49 1.86.93 3.72 1.35 5.6 2.53 1.03 3.66 3.46 4.19 5.99-1.14.79-2.38 1.41-3.59 2.09.84 1.25 1.68 2.51 2.51 3.77-1.79-.76-4.65-.53-4.78-3.13-5.36 3.45-10.62 7.08-16.05 10.43-.07 2.58-.16 5.16-.29 7.74 4.44 3.07 9.67 4.92 13.54 8.8 3.98 2.79 8.09 6.11 13.02 6.85 5.51-.24 10.93-2.05 15.7-4.81 4.05-2.25 8.68-3.74 11.91-7.22-4.06.12-8.41-.11-11.72-2.77-2.74-1.49-3.69-4.54-4.99-7.14-5.2-3.28-11.8 2.59-16.35-2.14 3.84.03 7.53-.9 11.09-2.23-1.21-.64-2.43-1.28-3.64-1.92 1.04-.4 2.08-.78 3.13-1.14 1.93 1.7 3.85 3.4 5.74 5.15-2.15-3.07-.36-6.26 1.5-8.83-1.39-1.26-2.53-2.74-3.29-4.46-2.59 1.71-5.34 3.4-8.57 3.19.54 1.83-.12 2.92-1.96 3.28l.56-3.09-2.09-2.86c5.14 2.24 9.46-1.65 13.74-3.89 2-.87 2.15-3.33 3.03-5.08 3.69-1.66 7.24-3.63 10.9-5.35.02-.68.05-2.06.07-2.74-3.7 1.59-7.44 3.16-11.4 4.01 1.52-2.53 3.05-5.06 4.51-7.62-.48-4.59-3.8-8.4-3.49-13.11-1.76-4.29-3.95-8.72-3.75-13.47.76-3.24 1.65-6.56 3.29-9.48 1.61-2.68 5.08-2.29 7.76-2.64 2.22 3.03 5.1 5.57 7.08 8.79.92 3.16.02 6.53.68 9.74.78 3.33 2.3 6.41 3.3 9.67 1.49 1.24 2.84 2.67 3.7 4.43-1.16-.38-2.31-.79-3.45-1.21-2.24.51-4.54 1.17-6.86.8.56-.84 1.18-1.63 1.8-2.43-2.21-6.69 1.54-14.16-1.55-20.69-1.89-2.34-3.37-5.02-5.47-7.19a14.3 14.3 0 00-4.08-.01c-1.71.86-1.74 2.94-2.29 4.53-.71 2.8-2.12 5.41-2.53 8.28-.28 2.42 1.36 4.38 2.47 6.36 2.82 4.6 5.08 9.51 7.48 14.33-1.18 2.75-2.37 5.51-4.06 8 2.02-1.12 3.82-2.67 6.01-3.48 1.05.42 2.1 1.02 2.79 1.94.83 2.37-.79 4.47-1.81 6.46 4.02-.5 7.82-2.27 11.15-4.5.9-1.38 1.12-3.08 1.75-4.58.27 3.02-.22 6.03-3.11 7.6 1.19 2.84 1.11 5.89.65 8.88-.87 4.87 2.75 9.09 2.26 13.97.27 4.52-1.93 8.64-4.96 11.84.25.07.73.2.98.27-2.74.37-4.28 2.07-4.31 4.85-3.66 3.07-8.19 4.77-12.37 6.99-4.87 2.63-10.32 3.8-15.54 5.53.02 5.82.17 11.66-.19 17.48 3.59-1.59 7.31-2.87 10.73-4.81 1.56-.78 3.06-1.85 4.86-1.98 2.7 1.03 4.99 2.91 7.5 4.34.71 3.41 1.32 6.94.84 10.43-11.91 6.42-24.51 11.54-36.63 17.59-3.83 1.65-7.44 3.89-11.46 5.06-2.68-1.35-4.99-3.33-7.3-5.22-.69-2.55-.76-5.22-1.12-7.82 5.81-3.82 12.44-6.12 18.39-9.68.48-2.97.18-6 .03-8.99-.62-7.61.02-15.29-.93-22.87-3.62-3.95-9.03-5.55-12.91-9.24-1.41 6.12-3.77 12.37-9.04 16.22-3.69.2-7.87 2.41-11.19-.25-5.25-3.56-6.44-10.05-8.83-15.46-3.72 1.53-7.47 3.12-11.4 4.03-1.82-1.78-1.1-4.35-.89-6.55-8.27 4.06-16.7 7.78-25.01 11.75-2.5-1.59-5.2-2.95-7.38-4.99-1.09-2.63-1.09-5.66-.63-8.43 5.71-3.39 11.85-6.01 17.72-9.13.2-7.5-.07-14.99-.37-22.48-3.06-1.46-6.17-2.9-8.99-4.82-2.12-1.88-4.22-3.78-6.42-5.57-.71 4.63-.89 9.33-1.22 14-.47 3.81 1.77 7.17 2.25 10.85.6 2.76.18 5.59-.36 8.32-3.36 1.01-6.93 2.17-10.45 1.19-5.67-1.69-10.76-4.8-15.92-7.6-2.83-1.26-3.19-4.83-2.66-7.5 3.34-4.76 9.98-2.41 14.2-5.71 2.7-3.37.58-7.71.11-11.45-2.36-10.33-.32-20.92-.52-31.36 1.04-2.76 2.83-6.11 6.14-6.39 2.87-.38 5.69.55 8.54.71 4.47.46 9.65.74 12.77 4.43.51.07 1.53.19 2.04.26.52-3.84-1.34-8.92 2.2-11.68m-26.95 8.76c-4 3.18-2.48 8.62-3.49 13.01-.09 6.62-.85 13.31.55 19.86.25-.46.76-1.38 1.01-1.84.06-4.89.45-9.76 1.5-14.54.48.03 1.44.08 1.92.11-.56 4.44-1.65 8.89-1.05 13.39.15 4.83 2.04 9.38 2.25 14.19-1.94-3.25-3.04-6.9-3.7-10.61-.56-.04-1.11-.05-1.67-.03.7 4.63 1.77 9.31 1.31 14.01-4.92 3.17-10.89 3.63-16.48 4.75.6 3.98 3.56 6.8 7.23 8.13 6.19 2.2 12.5 6.89 19.32 4.22.9-6.65-1.22-13.08-1.86-19.64-.55-4.24.61-8.45.54-12.69-1.61-.98-3.29-1.87-4.72-3.11-.26-2.72-.75-6.71 2.37-8.01 1.89-.55 4.1-2.96 5.95-.9.48-.37.96-.73 1.43-1.09-1.67-1.25-3.15-2.72-4.82-3.95-1.92-.74-4.05-.64-6.05-1.11 1.63-.84 3.34-1.87 5.26-1.55 2.22.07 3.25 2.46 4.88 3.64 2.08 2.2 5.64 2.84 6.76 5.92-.85-.35-2.55-1.05-3.39-1.4-.55.38-1.1.77-1.64 1.16 2.46 1.87 4.87 3.82 7.4 5.6.14-3.33-.08-6.96 1.89-9.85 2.19-3.97 6.26-6.29 10.33-7.95-5.93-2.95-11.78-6.08-17.61-9.23-4.82-2.56-10.35-1.72-15.42-.49m5.19 23.57c-1.56.89-.62 2.97-.94 4.4 3.31 1.94 6.64 3.88 9.63 6.28 8.33 6.56 18.1 10.94 26.69 17.12 4.06 2.9 8.95 4.51 12.75 7.82.17.7.51 2.12.68 2.83-2.57-1.37-4.93-3.08-7.25-4.85-2.83 1.3-5.66 2.74-8.8 3.16 1.46-2.29 4.04-3.22 6.34-4.36-5.54-4.13-11.73-7.33-17.14-11.64.47 7.51.98 15.05.51 22.57-5.55 4.06-12.64 5.67-18.02 9.94.01 1.94.04 3.95.72 5.79 2.2 1.57 4.89 4.45 7.76 2.76 11.67-5.34 23.08-11.28 34.96-16.14-1.71 4.33-7.13 4.38-10.51 6.91 7.37-1.62 14.17-5.13 21.33-7.47-.39-.46-1.18-1.38-1.57-1.84 2.12 1.68 4.74 3.99 3.59 7.03-2.89 2.47-6.91 3.18-10.44 4.4.89 5.44 2.91 11.38 7.64 14.63 2.2 1.76 4.99.49 7.42.1l-.16-2.42c4.55-7.25 5.11-16.15 4.22-24.46-1.01-6.91-3.84-14.49-10.82-17.32-5.23 3.19-7.69 9.36-8.42 15.21-.51 2.78-.3 5.81-1.86 8.28-.48-5.57.54-11.2 2.47-16.42 1.35-3.67 4.31-6.34 6.88-9.17-1.39.89-2.73 1.87-4.04 2.87-4.39.78-7.68-2.19-10.8-4.73-7.44-2.34-14.86-4.89-22.07-7.91-1.9-.7-3.12-2.38-4.4-3.83 0-.57.02-1.7.03-2.27-4.34-1.92-7.37-5.59-10.63-8.85-1.91-2.27-4.05.5-5.75 1.58m119.58 26.62c.35 1.59-.59 1.74-1.54.7-1.13.93-2.23 1.88-3.34 2.83 1.04 1.23 2.06 2.46 3.08 3.7-.55 1.24-1.12 2.46-1.7 3.68.18 3.28 2.14 5.72 4.62 7.65-1.05-.04-3.14-.1-4.18-.13 2.45 3.63 5.52 6.72 9.38 8.84 2.87-.04 6.26.75 8.43-1.68 5-3.38 6.17-10.17 4.89-15.67-2.32-3.24-3.2-7.78-7.04-9.64-2.42-1.73-4.29-4.07-6.25-6.26-2.44 1.64-7.22 2.05-6.35 5.98m10.85-4.32c2.07 1.71 4.23 3.32 6.32 5.02.28-2.66.21-5.33-.31-7.96-2 1.01-3.99 2-6.01 2.94m-69.43 2.11c6.65 2.88 8.75 10.46 9.89 16.98 1.32 9.67.47 20.34-5.51 28.43 6.11-2.01 8.66-8.55 9.72-14.33 1.52-8.62.99-18.07-3.39-25.81-2.35-3.15-6.51-7.26-10.71-5.27m16.08 15.8c.12.83.25 1.67.38 2.51 6.25-4.39 12.75-8.43 19.22-12.5-.17-.67-.52-2.01-.69-2.68-6.4 4.08-12.48 8.64-18.91 12.67m-37.63 14.01c.19.66.56 1.97.75 2.63 6.62-3.19 13.83-4.99 20.29-8.5l-2.59-.68c-6.26 1.84-12.2 4.66-18.45 6.55m53.2 12.21c.14 10.35.87 20.68.53 31.03-6.02 3.15-12.03 6.32-18.21 9.14-.17 2.85-.08 5.74 1.03 8.42 1.82.44 3.59 1.09 5.29 1.88 15.37-6.91 30.53-14.3 45.81-21.43-.12-2.33-.14-4.68-.53-6.98-1.86-1.98-4.43-3.12-6.7-4.57-4.81 2.28-9.81 4.18-14.48 6.76-1.18 2.75 1.49 6.73-1.71 8.79-2.23-9.38-.1-19.01.59-28.44-3.61-2.14-7.74-3.08-11.62-4.6z"/><path d="M65.49 69.34c4.58.49 9.53-.13 13.71 2.17-4.1.08-8.3.5-12.31-.57l-1.4-1.6zM34.59 76.15c2.36-.87 4.77-1.62 7.15-2.47.43 4.09-4.61 3.89-7.15 2.47zM208.47 81.42c2.63-4.95 9.04-7.96 14.45-6.4 6.21 2.63 8.12 9.81 9.79 15.71 4.37-1.57 8.56-3.86 13.16-4.66 1.31 1.42 1.57 3.36 1.84 5.19-4.46 1.54-8.8 4.35-13.5 4.57-.05-.23-.15-.71-.2-.94 3.87-1.89 8.28-2.6 11.91-4.95l-.32-1.72c-4.5.06-8.4 2.78-12.54 4.23 1.13 11.06-.08 23.71-8.84 31.6-3.43.09-7.09 2.18-10.39.48-5.56-3.45-7.88-10.04-8.9-16.19-6.79-.14-13.55-.94-20.34-.82.75-1.27 1.85-2.16 3.42-2 5.27-.32 10.51.77 15.77.66 3.09-.8 6.01-2.15 8.93-3.42 1.12-.62 3.11-1.14 2.55-2.91-5.11-.21-9.1 4.35-14.25 3.83-5.59-.33-11.2-.34-16.77-.96.11-.49.34-1.47.45-1.97 6.54.23 13.05.86 19.59.93-.38-6.95.81-14.13 4.19-20.26m2.24-.57c-4.4 5.81-4.82 13.38-5.6 20.34 3.49-1.41 7-2.8 10.59-3.98.8 2.03 1.8 4.49 0 6.32-3.05 1.62-6.6 2.24-9.33 4.44.79 5.1 2.89 10.44 7.14 13.64 2 1.62 4.7.93 7.06.86.74-3.72 2.9-6.93 3.85-10.58 1.52-5.39 1.67-11.07 1-16.6.55-.73 1.12-1.45 1.69-2.16.34 5.95.72 12.02-.63 17.88-.69 3.07-1.48 6.35-3.84 8.6-.31.57-.94 1.72-1.26 2.29 4.33-.77 6.58-4.86 8.09-8.55 2.51-6.79 2.66-14.25 1.63-21.35-1.18-6.67-4.29-14.33-11.7-15.89-2.9 1.58-6.72 1.81-8.69 4.74z"/><path d="M217.44 77.56c6.13 1.54 7.61 8.79 9.25 14.02-.55.74-1.1 1.47-1.65 2.21-.32-6.3-4.37-11.19-7.6-16.23zM44.51 79.75c3.5-1.53 8.42-.33 10.1 3.33-3.4-1-6.81-2.01-10.1-3.33zM75.41 96.71c-.96-3.67 1.97-6.7 4.93-8.35.09 2.36-1.78 3.73-3.31 5.16-.51 1.08-1.06 2.14-1.62 3.19zM92.9 90.45c2.54-.2 5.06-.72 7.61-.76-3.99 1.35-9.59 2.59-10.67 7.2l.2.59c.82-.15 2.46-.46 3.28-.61.14.42.43 1.25.58 1.67-3.11.74-6.16 1.72-8.96 3.28-1.22.86-2.71.69-4.11.53 2.19-1.79 4.71-3.1 7.26-4.3-.33-.67-.67-1.33-1.02-1.98 1.09-1.92 2.25-3.79 3.35-5.71l.08 1.98c.6-.47 1.8-1.42 2.4-1.89zM123.82 91.98c1.37 2.51 2.16 5.26 3.27 7.89 3.01 5.84 10.1 8.61 12.18 15.06 1.58-.57 3.15-1.15 4.77-1.6-1.76 2.53-3.96 4.71-6.04 6.96-.47-1.88-.52-3.82-.51-5.75-2.65-.44-2.3-3.57-3.74-5.24-2.09-3.03-5.65-4.38-8.32-6.75-2.27-3-1.69-7.05-1.61-10.57zM142.68 94.06c3.66.98 8.12 1.72 10.18 5.34 3.04.62 6.17 1.59 7.71 4.55-5.02-1.91-10.23-4.62-15.72-2.79.91-.84 1.82-1.67 2.75-2.49-2.09-1-3.89-2.49-4.92-4.61zM109.71 102.99c-.1-2.13 1.61-5.74 4.14-3.86.18 2.04-2.93 2.54-4.14 3.86zM100.53 101.7c1.86.76 4.09 1.26 4.96 3.33-2.16-.34-5.22-.25-4.96-3.33zM38.86 122.85c.77-1.48 1.5-3.09 3.24-3.6-.23 3.1-.34 6.21-.53 9.31l-1.56-.4c.14-1.48-.21-2.61-1.05-3.37-2.12-.3-3.32 1.86-4.94 2.82l-2.85-2.22c2.58-.75 5.63-.57 7.69-2.54zM123.02 139.28c2.32.04 4.48.8 6.28 2.27 3.61-.35 7.15-1.09 10.72-1.67-2.36 3.8-7.26 3.41-11.08 2.74-2.38-.2-4.17-1.9-5.92-3.34zM130.24 144.56c5.47 1.14 10.2 4.23 15.38 6.15 3.37 1.37 7.06 1.13 10.62 1.15-2.98 3.54-8.04 2.48-11.78.93-4.98-2.21-10.9-3.52-14.22-8.23z"/></g></svg>