<svg width="368" height="300" viewBox="0 0 276 225" xmlns="http://www.w3.org/2000/svg"><g fill="#FFF"><path d="M0 0h276v225H0V0m143.24 41.33c-1.82 3.55 1.54 7.76-1.07 10.99-3.12 4.9-5.94 9.99-8.97 14.95-4.33 7.09-5.57 15.59-5.42 23.76-2.11-.25-4.44-.14-6.28-1.37-1.47-1.56-2.36-3.77-4.53-4.51-2.75-1.1-4.83-3.26-7.23-4.91-3.44-1.47-7.17-2.44-10.02-5.02-3.9-.94-6.75-3.7-9.58-6.34-6.26-3.94-12.22-9.63-20.16-9.25-3.59-.59-6.53 1.77-8.7 4.32-.59 3.47-.22 7.01-.48 10.51-4.93-2.94-10.24-6.44-16.3-5.68-3.25.73-7.37 2.37-7.65 6.24-1.47 8.22-3.48 16.57-2.26 24.95.72 6.02.65 12.18-1.27 17.98-3.48.75-6.85 1.96-10.41 2.28-2.75.42-6.33 2.52-5.53 5.79.05 5.97 7.59 6.13 10.92 9.71 4.4 1.42 8.78 4.6 13.59 2.91 1.67-.68 4.25-.63 4.88-2.66.63-2.29.25-4.7.08-7.02-.8-5.53 1.21-10.94 1.52-16.42-.35-.95-.78-1.85-1.29-2.72-1.94 8.48-2.33 17.15-2.25 25.81-6.55 2.75-12.62-1.82-18.71-3.65-4-1.27-7.92-4.24-8.14-8.78 5.36-1.82 11.59-1.46 16.28-4.96 2.29-3.98 3.29-8.88 2.46-13.42-1.06-6.99.31-14.01.46-21.02 0-4 .8-8.2 3.46-11.33 2.05-1.88 5.12-1.28 7.62-2 7.43 2.18 13.36 7.71 20.73 10.16-3.78 1.66-7.61 3.77-9.86 7.38-2.27 3.05-2.33 6.96-2.11 10.59-2.25-1.51-4.4-3.18-6.58-4.8-.32-.7-.97-2.09-1.29-2.78 1.88.83 3.79 1.91 5.92 1.4-3.71-2.57-7.69-4.79-10.58-8.36-1.64.35-3.24.88-4.86 1.33 3.88-.48 6.15 2.8 8.92 4.83-.53.34-1.06.67-1.59 1-1.06-1.7-2.47-.49-3.66-.07-1.51.77-3.4 1.24-4.25 2.86-.36 1.95-.5 3.95-.42 5.93 1.02 1.4 2.78 1.92 4.22 2.77.15.37.45 1.12.59 1.49 1.5.16 3.06.24 4.38 1.05l-.32 3.46c.49.77.99 1.53 1.49 2.29l.36-3.77c3.42 3.05 7.48 5.12 11.5 7.23.54-.42 1.08-.85 1.62-1.28-8.17-3.48-14.26-10.31-22.26-14.1-.14-1.34-.21-2.69-.24-4.04 1.71-.99 3.36-2.05 4.96-3.2 4.75 2.5 7.38 7.77 12.47 9.93.39 5.81 6.79 6.75 11.04 8.7 4.8 1.55 9.43 3.59 14.34 4.81 2.04.57 3.48 2.26 5.12 3.5 4.36.44 8.75.44 13.1-.06.21.44.63 1.31.84 1.74 1.96.82 3.79 1.96 5.18 3.59 2.07 2.36 5.15 4.48 4.87 7.98 3.37 5.5 9.49 7.97 14.45 11.71 3.75 3.05 8.92 3.07 13.41 1.97 3.77-1.02 7.28 2.11 11.06 1.14 1.78-.36 3.55-.8 5.32-1.19 4.66 2.98 9.31 6.86 15.15 6.78-5.18 2.14-10.2 4.64-15.22 7.12-.98.4-.81 1.45-.74 2.31 7.94-3.74 16.24-6.8 23.77-11.36 4.84-3.02 4.62-9.47 4.69-14.48.45-3.07-1.56-5.54-2.61-8.22 1.6-5.91 5.07-11.44 5.02-17.73.05-3.56-2.1-6.73-1.98-10.3-.13-3.44-.26-7.05-1.81-10.18-1.67-2.89-3.33-5.77-5.01-8.65 1.16-3.83.67-7.82.78-11.75-.43 0-1.28-.02-1.71-.03.81-5.16-3.93-8.74-4.2-13.68-.26-2.26.68-4.43.98-6.63-1.13 1.35-2.51 2.57-3.27 4.18-.48 2.32-.07 4.77-1 7.01 2.72 1.85 3.75 4.96 5.62 7.45-.62.17-1.25.33-1.87.48-1.72 5.5-8.49 6.48-13.4 6.99-5.34.38-9.18-3.62-11.72-7.79 1.44-3.16 3.25-6.13 5.21-9 1.32-.01 2.64-.03 3.96-.05 3.05 3.04 4.33 7.12 5.23 11.22 2.52-3.97-.66-8.32-3.21-11.38l1.13-1.85c-2.68.35-5.4.46-8.07.89-2.34 3.79-5.32 7.54-5.82 12.11-2.19 7.28-3.59 14.8-5.84 22.06-1.83 3.18-2.32 6.82-2.84 10.39.29.08.85.24 1.14.32.11-2.39.31-4.78.69-7.15 2.49 3.13 2.76 7.36 2.5 11.2-.45 4.53-.9 9.09-2.22 13.47-.28.39-.85 1.18-1.14 1.57 3.89 1.98 5.86 5.85 7.78 9.54-.86 1.92-2.41 3.31-4.13 4.45-1.93-1.73-3.47-3.8-5.16-5.74-.63 3.26 1.89 5.31 4.09 7.15-.57-.04-1.7-.13-2.27-.17-.57 2.78-1.06 5.61.02 8.36-3.71-.18-7.82-.01-10.97-2.32-3.74-2.52-7.7-4.89-10.68-8.35-2.35-2.57-2.98-6.21-5.31-8.8-3.84-5.37-10.98-7.02-14.91-12.24-.09-5.38-.05-11.92 4.7-15.48 3.93-3.72 9.5-4.23 14.38-6 3.64-1.44 6.97 1.21 10.5 1.83-.24 1.6-.46 3.22-.65 4.83-6.18-1.38-12.4-2.87-18.75-3.24l.08 1.41c1.87-.2 3.84-.64 5.64.15 4.06 1.58 8.56 1.29 12.59 2.99-1.45 3.65-3.57 7.09-4.24 11.01-.26 3.63-.02 7.28-.24 10.92 2.2 4.6 2.39 10.24 5.72 14.2.27-6.3-2.22-12.25-3.17-18.41-1.54-4.07.01-8.34 1.9-11.99.39-.22 1.15-.67 1.54-.89 1.01-4.38 1.55-8.88 3.13-13.11.17-4.76-.04-9.59 1.46-14.19 2.16-9.87 10.99-16.66 12.99-26.59 7.11 6.27 18.79 6.12 26.01.17 3.26-2.32 4.12-7.39 1.64-10.57-3.52-5.06-10.29-6.39-16.06-5.69-4.88.64-10.18 2.59-12.71 7.12m-6.59 31.03c5.52-3.67 6.55-10.66 8.13-16.58-2.85 5.45-5.54 11.01-8.13 16.58m-92.28 6.49c1.19 2.25 3.69 2.59 5.92 3.06-1.7-1.53-3.31-3.62-5.92-3.06m87.2 17.68c-.19 3.16.17 6.33-.04 9.48-.68 3.01-4.54 4.65-4.25 8.03-.01 2.46 1.91 5.89 4.69 5.26 2.96-2.7 5.35-6.35 4.6-10.55-1.32 2.95-1.35 6.9-4.56 8.57-2.14-.13-3.11-2.37-2.99-4.26 1.16-2.19 3.32-3.74 4.14-6.13.44-3.49.83-7.5-1.59-10.4m-20.92 8.25l-.16 1.94c1.81-1.01 3.61-2.04 5.41-3.09 2.07-.09 7.63 1.29 6.91-1.97-4.33-.38-8.71.3-12.16 3.12m-49.26 11c.19 7.06.51 14.12.37 21.19-5.85 3.18-12.04 5.73-17.73 9.16-.83 2.75.04 5.75.36 8.55 2.49 1.64 4.99 3.27 7.53 4.84 13.5-6.36 27.06-12.6 40.51-19.06 1.77-.77 3.49-1.79 5.41-2.1 4.82 2.22 8.93 5.72 13.63 8.17 6.82 3.32 12.98 7.76 19.44 11.69 1.01 10.9 1.05 21.84 1.44 32.76-5.94 3.2-12.31 5.65-18.01 9.26-.39 2.75-.13 5.59.42 8.3 2.07 2.2 4.82 3.71 7.47 5.13 14.97-6.64 29.69-13.91 44.56-20.81 1.16-.71 2.78-1.06 3.48-2.28.29-3.38-.28-6.76-.94-10.06-2.53-1.38-4.82-3.21-7.49-4.3-5.39 1.74-10.29 4.8-15.55 6.91.29-5.94.09-11.89.29-17.83 2.15-.55 4.3-1.09 6.46-1.57.68-.68 1.37-1.35 2.06-2.02-.82-.32-1.64-.63-2.46-.94-3.78 1.46-8.13 2.49-11.86.29-8.21-4.52-16.13-9.6-23.59-15.27-4.79-2.6-9.47-5.46-14.45-7.72-8.46-4.21-15.83-10.26-24.29-14.48-4.57-3.25-9.42-6.09-14.12-9.15-.36 2.3 2.04 3.46 3.73 4.36 4.47 2.18 8.14 5.61 12.41 8.14-2.33 1.17-5.05 1.98-6.47 4.35 3.15-.49 5.99-1.96 8.92-3.11 4.04 3 8.15 5.92 12.2 8.91-14.35 6.8-28.77 13.48-43.1 20.31-1.97-1.47-4.62-2.35-5.97-4.44-.12-1.89-.99-4.17.12-5.86 5.63-3.46 12.07-5.54 17.52-9.28.63-6.71-.43-13.45-.04-20.17-.27-.82-.56-1.64-.87-2.44-.34.14-1.04.43-1.39.57m-21.49 4.05c0 2.79-.01 5.58.01 8.36l1.66.32c.11-2.87.14-5.75.36-8.61-.51-.02-1.52-.05-2.03-.07m-8.32 5.81c.76.58 1.55 1.12 2.38 1.62 1.47-.81 2.79-1.83 4.1-2.87-2.18.32-4.35.71-6.48 1.25z"/><path d="M154.6 36.79c5.14-1.11 11.36-.43 15.03 3.7 2.27 2.58 1.29 6.86-1.66 8.48-4.58 2.26-9.46 5.42-14.8 3.84-3.7-.93-9.17-2.98-8.1-7.79-.15-5.16 5.4-7.2 9.53-8.23zM62.68 67.84c-1.48-3.43 1.91-6.75 5.28-6.6 6.79-.28 12.53 3.79 18.39 6.59 2.59 1.23 4.05 3.76 5.75 5.93-2.6.69-5.16 1.52-7.69 2.43-1.37 1.93-2.93 3.71-4.39 5.56-3.35-1.14-6.87-1.51-10.39-1.43-1.21-3.11-4.95-3.64-7.54-5.23 1.09-2.3 1.53-4.81.59-7.25m3.85 3.45c4.48.73 9.01.88 13.54.81-3.46-3.74-9.35-2.54-13.54-.81m-.81 2.94c1.3 3.59 6.05 2.77 9.04 3.89-.13-.75-.26-1.5-.38-2.25-2.94-.22-5.79-1.02-8.66-1.64zM175.44 70.44c1.49 3.3.56 6.97.91 10.43 1.04 4.57 3.41 8.69 4.85 13.13.93 3.37.42 6.98 1.55 10.31.63 2.51 1.93 5.04 1.35 7.68-.88 4.78-2.63 9.34-4.44 13.83-2.84-1.68-5.62-3.91-9.13-3.73-.91-.69-1.82-1.39-2.72-2.1-2.92-.61-6.14-1.06-8.63.99-1.84 3.32-3.22 7.02-3.45 10.84-.46.06-1.36.17-1.82.23l1.87.04c.15 1.48.3 2.97.52 4.45.5-4.62 2.06-9.05 4.2-13.16 1.77-2.63 5.5-1.54 8.07-1.02 5.17 2.16 10.51 5.39 12.94 10.66.4 4.99.82 10.75-2.62 14.86-3.39 3.22-8.71 3.43-12.64 1.05-3.05-2-7.5-1.74-9.28-5.38-1.82-.38-3.64-.74-5.48-1.02.31.52.92 1.54 1.23 2.05-4.78.2-9.44-.94-14.2-1.11.93-2.06 1.45-4.33 2.69-6.25 1.84-1.44 3.94-2.51 5.86-3.83.47-1.75 1.06-3.45 1.62-5.16.76-.79 1.5-1.62 2.21-2.46-1.01.74-2.01 1.5-2.98 2.28-1.1-1.14-2.19-2.3-3.26-3.46.54-.15 1.61-.43 2.15-.58-.24-.45-.72-1.37-.96-1.83-.38.19-1.13.56-1.51.75-1.11-.87-2.22-1.73-3.34-2.59 2.21-5.86 2.55-12.12 2.48-18.31-.24-4.07-1.67-7.99-1.78-12.06 2.11-6.16 5.1-12.13 5.33-18.79 2.55 4.05 7.34 6.04 11.98 6.27 4.9-.24 3.81 6.08 6.77 8.45-.37 3.63-.8 7.3-.36 10.94.74 3.75 1.75 7.45 2.5 11.2-2.93-.3-5.65-1.43-8.17-2.9-2.41-1.55-5.39-1.26-8.01-2.14-2.43-1.05-4.67-4.08-7.58-2.86-.03.26-.11.77-.14 1.02 1.87.9 3.76 1.74 5.61 2.69-1.2.79-2.51 1.46-3.43 2.6-.5.21-1.5.62-2 .83.25 1.56 2.14 1.7 3.28 2.37 3.7 1.34 6 4.72 8.54 7.51-1.55 3.04-4.01 5.77-4 9.38 2.31-2.53 4.27-5.35 6.52-7.93-1.04-2.12-2.21-4.16-3.56-6.09 1.07-.89 2.12-1.79 3.16-2.72-1.71.18-3.39.52-5.06.89-1.93-1.38-4-2.54-6.14-3.57 2.86-1.07 5.89-2.66 9-1.5 4.71 1.73 9.57 4.5 11.89 9.17-.87.21-1.74.41-2.62.59 2.58.75 4.67 2.5 7 3.77-.54-1.28-1.12-2.53-1.77-3.75.9-1.71 1.41-3.57 1.74-5.46.69-3.42 2.88-6.36 3.21-9.89-2.4 2.32-3.44 5.58-5.34 8.26.1-.89.29-2.67.39-3.56-.37-.43-1.12-1.28-1.49-1.71-.81-2.65-1.71-5.28-2.27-8 .06-2.3.52-4.58.69-6.88.9-1.51 1.67-3.09 2.42-4.67.74.57 2.21 1.72 2.94 2.29-.6-2.94-2.44-5.34-4.6-7.33-.05-.89-.08-1.78-.1-2.67 3.2-.46 6.02-2.37 7.41-5.34m-.42 17.08c-.98 5.09-.42 11.56 5.06 13.85-.36-2.44-2.13-4.26-3.06-6.47-.65-2.49.28-5.54-2-7.38m-.23 21.2c-.02 3.06-.02 6.11-.08 9.16.47-.05 1.42-.17 1.89-.22.12-3.12.12-6.24.03-9.35-.46.1-1.38.31-1.84.41m-27.82 30.76c-.4 1.82 2.64 3.09 4.13 2.52.04-1.57-2.7-2.81-4.13-2.52z"/><path d="M82.47 84.49c.5-6.78 7.83-10.96 14.09-9.2 2.85 1.94 5.41 4.38 8.68 5.65 2.64.2 5.05 1.3 6.27 3.78 2.4 1.12 4.88 2.15 7.03 3.74-2.14.31-4.3.36-6.43.68-4.94 1.12-8.87 4.45-12.96 7.21-2.49 1.93-3.35 5.15-4.3 8-1.28 4.33 1.29 8.6-.05 12.93-1.27.05-2.53.03-3.79-.05-8.05-2.29-14.75-7.98-22.98-9.77-2.13-.7-4.1-1.83-6.2-2.61-.6-3-1.95-5.84-2.06-8.93.08-5.87 3.47-11.99 9.25-13.91 6.33-1.33 11.45 3.12 17.09 4.98 2.61-.64 5.31-1.21 7.51-2.85-3.67-1.3-7.41.59-11.15.35m-1.62 17.39c.93.3 1.86 1.72 2.86.81 3.24-1.86 6.84-3.01 9.98-5.05-4.65-.08-9.21 1.29-12.84 4.24zM163.5 78.33c.38-.52 1.15-1.56 1.53-2.08 1.3 1.79 2.58 3.62 3.63 5.58-.35.81-1.04 2.43-1.38 3.25-1.15-2.31-2.32-4.62-3.78-6.75z"/><path d="M111.23 91.17c3.14-1.39-.08 3.27 0 0zM166.43 108.96c1.23.49 2.49.91 3.67 1.53-.04.95-.14 2.84-.19 3.79-1.17-1.77-2.29-3.57-3.48-5.32zM134 160.81c3.73 1.9 7.71 3.23 11.63 4.68-1.06 9.44-2.69 19.1-.73 28.52 2.89-2.11 1.14-5.84 1.25-8.82 5-2.22 9.96-4.54 14.94-6.8 2.28 1.43 4.77 2.62 6.73 4.5.37 2.36.4 4.75.54 7.13-15.39 7.22-30.69 14.6-46.16 21.64-1.96-1.52-4.38-2.56-5.95-4.51-.26-2.01-.12-4.03-.07-6.04 6.15-2.84 12.15-5.99 18.15-9.13.94-10.4-.5-20.77-.33-31.17z"/></g><g fill="#333"><path d="M143.24 41.33c2.53-4.53 7.83-6.48 12.71-7.12 5.77-.7 12.54.63 16.06 5.69 2.48 3.18 1.62 8.25-1.64 10.57-7.22 5.95-18.9 6.1-26.01-.17-2 9.93-10.83 16.72-12.99 26.59-1.5 4.6-1.29 9.43-1.46 14.19-1.58 4.23-2.12 8.73-3.13 13.11-.39.22-1.15.67-1.54.89-1.89 3.65-3.44 7.92-1.9 11.99.95 6.16 3.44 12.11 3.17 18.41-3.33-3.96-3.52-9.6-5.72-14.2.22-3.64-.02-7.29.24-10.92.67-3.92 2.79-7.36 4.24-11.01-4.03-1.7-8.53-1.41-12.59-2.99-1.8-.79-3.77-.35-5.64-.15l-.08-1.41c6.35.37 12.57 1.86 18.75 3.24.19-1.61.41-3.23.65-4.83-3.53-.62-6.86-3.27-10.5-1.83-4.88 1.77-10.45 2.28-14.38 6-4.75 3.56-4.79 10.1-4.7 15.48 3.93 5.22 11.07 6.87 14.91 12.24 2.33 2.59 2.96 6.23 5.31 8.8 2.98 3.46 6.94 5.83 10.68 8.35 3.15 2.31 7.26 2.14 10.97 2.32-1.08-2.75-.59-5.58-.02-8.36.57.04 1.7.13 2.27.17-2.2-1.84-4.72-3.89-4.09-7.15 1.69 1.94 3.23 4.01 5.16 5.74 1.72-1.14 3.27-2.53 4.13-4.45-1.92-3.69-3.89-7.56-7.78-9.54.29-.39.86-1.18 1.14-1.57 1.32-4.38 1.77-8.94 2.22-13.47.26-3.84-.01-8.07-2.5-11.2-.38 2.37-.58 4.76-.69 7.15-.29-.08-.85-.24-1.14-.32.52-3.57 1.01-7.21 2.84-10.39 2.25-7.26 3.65-14.78 5.84-22.06.5-4.57 3.48-8.32 5.82-12.11 2.67-.43 5.39-.54 8.07-.89l-1.13 1.85c2.55 3.06 5.73 7.41 3.21 11.38-.9-4.1-2.18-8.18-5.23-11.22-1.32.02-2.64.04-3.96.05-1.96 2.87-3.77 5.84-5.21 9 2.54 4.17 6.38 8.17 11.72 7.79 4.91-.51 11.68-1.49 13.4-6.99.62-.15 1.25-.31 1.87-.48-1.87-2.49-2.9-5.6-5.62-7.45.93-2.24.52-4.69 1-7.01.76-1.61 2.14-2.83 3.27-4.18-.3 2.2-1.24 4.37-.98 6.63.27 4.94 5.01 8.52 4.2 13.68.43.01 1.28.03 1.71.03-.11 3.93.38 7.92-.78 11.75 1.68 2.88 3.34 5.76 5.01 8.65 1.55 3.13 1.68 6.74 1.81 10.18-.12 3.57 2.03 6.74 1.98 10.3.05 6.29-3.42 11.82-5.02 17.73 1.05 2.68 3.06 5.15 2.61 8.22-.07 5.01.15 11.46-4.69 14.48-7.53 4.56-15.83 7.62-23.77 11.36-.07-.86-.24-1.91.74-2.31 5.02-2.48 10.04-4.98 15.22-7.12-5.84.08-10.49-3.8-15.15-6.78-1.77.39-3.54.83-5.32 1.19-3.78.97-7.29-2.16-11.06-1.14-4.49 1.1-9.66 1.08-13.41-1.97-4.96-3.74-11.08-6.21-14.45-11.71.28-3.5-2.8-5.62-4.87-7.98-1.39-1.63-3.22-2.77-5.18-3.59-.21-.43-.63-1.3-.84-1.74-4.35.5-8.74.5-13.1.06-1.64-1.24-3.08-2.93-5.12-3.5-4.91-1.22-9.54-3.26-14.34-4.81-4.25-1.95-10.65-2.89-11.04-8.7-5.09-2.16-7.72-7.43-12.47-9.93-1.6 1.15-3.25 2.21-4.96 3.2.03 1.35.1 2.7.24 4.04 8 3.79 14.09 10.62 22.26 14.1-.54.43-1.08.86-1.62 1.28-4.02-2.11-8.08-4.18-11.5-7.23l-.36 3.77c-.5-.76-1-1.52-1.49-2.29l.32-3.46c-1.32-.81-2.88-.89-4.38-1.05-.14-.37-.44-1.12-.59-1.49-1.44-.85-3.2-1.37-4.22-2.77-.08-1.98.06-3.98.42-5.93.85-1.62 2.74-2.09 4.25-2.86 1.19-.42 2.6-1.63 3.66.07.53-.33 1.06-.66 1.59-1-2.77-2.03-5.04-5.31-8.92-4.83 1.62-.45 3.22-.98 4.86-1.33 2.89 3.57 6.87 5.79 10.58 8.36-2.13.51-4.04-.57-5.92-1.4.32.69.97 2.08 1.29 2.78 2.18 1.62 4.33 3.29 6.58 4.8-.22-3.63-.16-7.54 2.11-10.59 2.25-3.61 6.08-5.72 9.86-7.38-7.37-2.45-13.3-7.98-20.73-10.16-2.5.72-5.57.12-7.62 2-2.66 3.13-3.46 7.33-3.46 11.33-.15 7.01-1.52 14.03-.46 21.02.83 4.54-.17 9.44-2.46 13.42-4.69 3.5-10.92 3.14-16.28 4.96.22 4.54 4.14 7.51 8.14 8.78 6.09 1.83 12.16 6.4 18.71 3.65-.08-8.66.31-17.33 2.25-25.81.51.87.94 1.77 1.29 2.72-.31 5.48-2.32 10.89-1.52 16.42.17 2.32.55 4.73-.08 7.02-.63 2.03-3.21 1.98-4.88 2.66-4.81 1.69-9.19-1.49-13.59-2.91-3.33-3.58-10.87-3.74-10.92-9.71-.8-3.27 2.78-5.37 5.53-5.79 3.56-.32 6.93-1.53 10.41-2.28 1.92-5.8 1.99-11.96 1.27-17.98-1.22-8.38.79-16.73 2.26-24.95.28-3.87 4.4-5.51 7.65-6.24 6.06-.76 11.37 2.74 16.3 5.68.26-3.5-.11-7.04.48-10.51 2.17-2.55 5.11-4.91 8.7-4.32 7.94-.38 13.9 5.31 20.16 9.25 2.83 2.64 5.68 5.4 9.58 6.34 2.85 2.58 6.58 3.55 10.02 5.02 2.4 1.65 4.48 3.81 7.23 4.91 2.17.74 3.06 2.95 4.53 4.51 1.84 1.23 4.17 1.12 6.28 1.37-.15-8.17 1.09-16.67 5.42-23.76 3.03-4.96 5.85-10.05 8.97-14.95 2.61-3.23-.75-7.44 1.07-10.99m11.36-4.54c-4.13 1.03-9.68 3.07-9.53 8.23-1.07 4.81 4.4 6.86 8.1 7.79 5.34 1.58 10.22-1.58 14.8-3.84 2.95-1.62 3.93-5.9 1.66-8.48-3.67-4.13-9.89-4.81-15.03-3.7M62.68 67.84c.94 2.44.5 4.95-.59 7.25 2.59 1.59 6.33 2.12 7.54 5.23 3.52-.08 7.04.29 10.39 1.43 1.46-1.85 3.02-3.63 4.39-5.56 2.53-.91 5.09-1.74 7.69-2.43-1.7-2.17-3.16-4.7-5.75-5.93-5.86-2.8-11.6-6.87-18.39-6.59-3.37-.15-6.76 3.17-5.28 6.6m112.76 2.6c-1.39 2.97-4.21 4.88-7.41 5.34.02.89.05 1.78.1 2.67 2.16 1.99 4 4.39 4.6 7.33-.73-.57-2.2-1.72-2.94-2.29-.75 1.58-1.52 3.16-2.42 4.67-.17 2.3-.63 4.58-.69 6.88.56 2.72 1.46 5.35 2.27 8 .37.43 1.12 1.28 1.49 1.71-.1.89-.29 2.67-.39 3.56 1.9-2.68 2.94-5.94 5.34-8.26-.33 3.53-2.52 6.47-3.21 9.89-.33 1.89-.84 3.75-1.74 5.46.65 1.22 1.23 2.47 1.77 3.75-2.33-1.27-4.42-3.02-7-3.77.88-.18 1.75-.38 2.62-.59-2.32-4.67-7.18-7.44-11.89-9.17-3.11-1.16-6.14.43-9 1.5 2.14 1.03 4.21 2.19 6.14 3.57 1.67-.37 3.35-.71 5.06-.89-1.04.93-2.09 1.83-3.16 2.72 1.35 1.93 2.52 3.97 3.56 6.09-2.25 2.58-4.21 5.4-6.52 7.93-.01-3.61 2.45-6.34 4-9.38-2.54-2.79-4.84-6.17-8.54-7.51-1.14-.67-3.03-.81-3.28-2.37.5-.21 1.5-.62 2-.83.92-1.14 2.23-1.81 3.43-2.6-1.85-.95-3.74-1.79-5.61-2.69.03-.25.11-.76.14-1.02 2.91-1.22 5.15 1.81 7.58 2.86 2.62.88 5.6.59 8.01 2.14 2.52 1.47 5.24 2.6 8.17 2.9-.75-3.75-1.76-7.45-2.5-11.2-.44-3.64-.01-7.31.36-10.94-2.96-2.37-1.87-8.69-6.77-8.45-4.64-.23-9.43-2.22-11.98-6.27-.23 6.66-3.22 12.63-5.33 18.79.11 4.07 1.54 7.99 1.78 12.06.07 6.19-.27 12.45-2.48 18.31 1.12.86 2.23 1.72 3.34 2.59.38-.19 1.13-.56 1.51-.75.24.46.72 1.38.96 1.83-.54.15-1.61.43-2.15.58 1.07 1.16 2.16 2.32 3.26 3.46.97-.78 1.97-1.54 2.98-2.28-.71.84-1.45 1.67-2.21 2.46-.56 1.71-1.15 3.41-1.62 5.16-1.92 1.32-4.02 2.39-5.86 3.83-1.24 1.92-1.76 4.19-2.69 6.25 4.76.17 9.42 1.31 14.2 1.11-.31-.51-.92-1.53-1.23-2.05 1.84.28 3.66.64 5.48 1.02 1.78 3.64 6.23 3.38 9.28 5.38 3.93 2.38 9.25 2.17 12.64-1.05 3.44-4.11 3.02-9.87 2.62-14.86-2.43-5.27-7.77-8.5-12.94-10.66-2.57-.52-6.3-1.61-8.07 1.02-2.14 4.11-3.7 8.54-4.2 13.16-.22-1.48-.37-2.97-.52-4.45l-1.87-.04c.46-.06 1.36-.17 1.82-.23.23-3.82 1.61-7.52 3.45-10.84 2.49-2.05 5.71-1.6 8.63-.99.9.71 1.81 1.41 2.72 2.1 3.51-.18 6.29 2.05 9.13 3.73 1.81-4.49 3.56-9.05 4.44-13.83.58-2.64-.72-5.17-1.35-7.68-1.13-3.33-.62-6.94-1.55-10.31-1.44-4.44-3.81-8.56-4.85-13.13-.35-3.46.58-7.13-.91-10.43M82.47 84.49c3.74.24 7.48-1.65 11.15-.35-2.2 1.64-4.9 2.21-7.51 2.85-5.64-1.86-10.76-6.31-17.09-4.98-5.78 1.92-9.17 8.04-9.25 13.91.11 3.09 1.46 5.93 2.06 8.93 2.1.78 4.07 1.91 6.2 2.61 8.23 1.79 14.93 7.48 22.98 9.77 1.26.08 2.52.1 3.79.05 1.34-4.33-1.23-8.6.05-12.93.95-2.85 1.81-6.07 4.3-8 4.09-2.76 8.02-6.09 12.96-7.21 2.13-.32 4.29-.37 6.43-.68-2.15-1.59-4.63-2.62-7.03-3.74-1.22-2.48-3.63-3.58-6.27-3.78-3.27-1.27-5.83-3.71-8.68-5.65-6.26-1.76-13.59 2.42-14.09 9.2m81.03-6.16c1.46 2.13 2.63 4.44 3.78 6.75.34-.82 1.03-2.44 1.38-3.25-1.05-1.96-2.33-3.79-3.63-5.58-.38.52-1.15 1.56-1.53 2.08m-52.27 12.84c-.08 3.27 3.14-1.39 0 0m55.2 17.79c1.19 1.75 2.31 3.55 3.48 5.32.05-.95.15-2.84.19-3.79-1.18-.62-2.44-1.04-3.67-1.53z"/><path d="M136.65 72.36c2.59-5.57 5.28-11.13 8.13-16.58-1.58 5.92-2.61 12.91-8.13 16.58zM66.53 71.29c4.19-1.73 10.08-2.93 13.54.81-4.53.07-9.06-.08-13.54-.81zM65.72 74.23c2.87.62 5.72 1.42 8.66 1.64.12.75.25 1.5.38 2.25-2.99-1.12-7.74-.3-9.04-3.89zM44.37 78.85c2.61-.56 4.22 1.53 5.92 3.06-2.23-.47-4.73-.81-5.92-3.06zM175.02 87.52c2.28 1.84 1.35 4.89 2 7.38.93 2.21 2.7 4.03 3.06 6.47-5.48-2.29-6.04-8.76-5.06-13.85zM80.85 101.88c3.63-2.95 8.19-4.32 12.84-4.24-3.14 2.04-6.74 3.19-9.98 5.05-1 .91-1.93-.51-2.86-.81zM131.57 96.53c2.42 2.9 2.03 6.91 1.59 10.4-.82 2.39-2.98 3.94-4.14 6.13-.12 1.89.85 4.13 2.99 4.26 3.21-1.67 3.24-5.62 4.56-8.57.75 4.2-1.64 7.85-4.6 10.55-2.78.63-4.7-2.8-4.69-5.26-.29-3.38 3.57-5.02 4.25-8.03.21-3.15-.15-6.32.04-9.48zM110.65 104.78c3.45-2.82 7.83-3.5 12.16-3.12.72 3.26-4.84 1.88-6.91 1.97-1.8 1.05-3.6 2.08-5.41 3.09l.16-1.94zM174.79 108.72c.46-.1 1.38-.31 1.84-.41.09 3.11.09 6.23-.03 9.35-.47.05-1.42.17-1.89.22.06-3.05.06-6.1.08-9.16zM61.39 115.78c.35-.14 1.05-.43 1.39-.57.31.8.6 1.62.87 2.44-.39 6.72.67 13.46.04 20.17-5.45 3.74-11.89 5.82-17.52 9.28-1.11 1.69-.24 3.97-.12 5.86 1.35 2.09 4 2.97 5.97 4.44 14.33-6.83 28.75-13.51 43.1-20.31-4.05-2.99-8.16-5.91-12.2-8.91-2.93 1.15-5.77 2.62-8.92 3.11 1.42-2.37 4.14-3.18 6.47-4.35-4.27-2.53-7.94-5.96-12.41-8.14-1.69-.9-4.09-2.06-3.73-4.36 4.7 3.06 9.55 5.9 14.12 9.15 8.46 4.22 15.83 10.27 24.29 14.48 4.98 2.26 9.66 5.12 14.45 7.72 7.46 5.67 15.38 10.75 23.59 15.27 3.73 2.2 8.08 1.17 11.86-.29.82.31 1.64.62 2.46.94-.69.67-1.38 1.34-2.06 2.02-2.16.48-4.31 1.02-6.46 1.57-.2 5.94 0 11.89-.29 17.83 5.26-2.11 10.16-5.17 15.55-6.91 2.67 1.09 4.96 2.92 7.49 4.3.66 3.3 1.23 6.68.94 10.06-.7 1.22-2.32 1.57-3.48 2.28-14.87 6.9-29.59 14.17-44.56 20.81-2.65-1.42-5.4-2.93-7.47-5.13-.55-2.71-.81-5.55-.42-8.3 5.7-3.61 12.07-6.06 18.01-9.26-.39-10.92-.43-21.86-1.44-32.76-6.46-3.93-12.62-8.37-19.44-11.69-4.7-2.45-8.81-5.95-13.63-8.17-1.92.31-3.64 1.33-5.41 2.1-13.45 6.46-27.01 12.7-40.51 19.06-2.54-1.57-5.04-3.2-7.53-4.84-.32-2.8-1.19-5.8-.36-8.55 5.69-3.43 11.88-5.98 17.73-9.16.14-7.07-.18-14.13-.37-21.19M134 160.81c-.17 10.4 1.27 20.77.33 31.17-6 3.14-12 6.29-18.15 9.13-.05 2.01-.19 4.03.07 6.04 1.57 1.95 3.99 2.99 5.95 4.51 15.47-7.04 30.77-14.42 46.16-21.64-.14-2.38-.17-4.77-.54-7.13-1.96-1.88-4.45-3.07-6.73-4.5-4.98 2.26-9.94 4.58-14.94 6.8-.11 2.98 1.64 6.71-1.25 8.82-1.96-9.42-.33-19.08.73-28.52-3.92-1.45-7.9-2.78-11.63-4.68zM39.9 119.83c.51.02 1.52.05 2.03.07-.22 2.86-.25 5.74-.36 8.61l-1.66-.32c-.02-2.78-.01-5.57-.01-8.36zM31.58 125.64c2.13-.54 4.3-.93 6.48-1.25-1.31 1.04-2.63 2.06-4.1 2.87-.83-.5-1.62-1.04-2.38-1.62zM146.97 139.48c1.43-.29 4.17.95 4.13 2.52-1.49.57-4.53-.7-4.13-2.52z"/></g></svg>