<svg width="200pt" height="300" viewBox="0 0 200 225" xmlns="http://www.w3.org/2000/svg"><g fill="#FFF"><path d="M0 0h200v225H0V0m110.3 41.91c1.05 3.42 4.92 3.85 7.83 4.8 1.81.9 2.97-.99 4.14-1.99-2.53.09-5.68.81-7.09-1.96-4.37-7.31-1.37-18.5 6.81-21.78 1.74 1.61 3.38 3.31 4.81 5.19-.87.65-1.73 1.29-2.6 1.93-3.11.87-3.77 4.44-4.75 7.08-1.1 2.52 1.97 3.79 3.47 5.16.81 2.06 2.04 4.3.91 6.5-1.43 3.04-3.4 5.79-4.73 8.89.5 3.07-.5 6.24.47 9.25 1.23 3.31-.51 6.68-.26 10.07-.01 4.49-2.8 8.64-1.9 13.16.54 3.22.7 6.76 2.8 9.42 2.72.98 5.49-1.21 8.22-.13 4.16 1.18 8.12 3.13 12.52 3.33.36 1.93.32 4.07 1.74 5.62-.17 2.74-.79 5.41-1.21 8.12-1.39.42-2.77.83-4.16 1.23-1.78-.69-3.55-1.47-4.6-3.15.97-.98 1.91-1.98 2.81-3.02-2.65.96-4.58 3.1-7.09 4.32l-.44-1.74c-1.58-.27-3.16-.55-4.74-.84.21.38.64 1.14.85 1.52 1.2.32 2.4.64 3.6.94-.17 2.13.59 4.08 1.9 5.74-.93.74-1.86 1.49-2.78 2.24-2.91.38-5.75 1.16-8.4 2.44-.41.85-.85 1.7-1.31 2.53-3.27.37-6.46 1.26-9.43 2.68 1.36-4.3-.6-8.59-2.82-12.2 2.69.48 5.49 1.23 8.18.29-2.79-.91-5.67-1.47-8.56-1.97.03.64.08 1.91.11 2.55l-.36-1.96c-3.62-3.44-8.55-4.7-12.62-7.42 1.51-.67 3.01-1.35 4.55-1.95l-1.66 1.16c.47.46.95.91 1.44 1.36 1.45-.89 3-1.59 4.57-2.25.05-.43.14-1.29.19-1.71 2.7-1.9 5.26-3.98 7.85-6.03 3-2.22 6.8-2.46 10.39-2.2-1.3-1.22-2.97-2.24-4.83-1.78-3.6.99-7.21 2.6-9.52 5.65-2.28 1.39-4.39 3.04-6.73 4.33-3.21.68-6.51 1.37-9.13 3.5-3.28-.38-6.54-1.14-9.85-.87-3.01.47-5.79 2.08-8.89 1.99-3.05.15-6.03-.65-9.07-.7-2 .58-3.8 1.81-5.9 2.03-8.98.77-17.58 4.37-24.72 9.82-5.13 1.85-6.44 8.08-5.44 12.9.41 6.34 1.04 12.65 1.27 19 .41 7.39 4.14 14.44 3.07 21.93-1.03 5.9-6.9 8.54-10.09 13.06-2.17 3.39-6.54 4.08-9.03 7.12-.56 1.46-.83 3.01-1.03 4.56 1.22 1.69 3.1 3.28 5.33 2.56 3.57-1.06 7.45-.77 10.93-2.01 3.8-2.99 7.84-5.81 12.85-6.19-2.64 3.04-4.98 7.01-9.2 7.98-3 .78-5.44 2.76-8.13 4.2-.61 1.16-1.2 2.34-1.79 3.52 4.32 2.55 8.48 6.23 13.85 5.9 4.84-1.51 9.76-2.86 14.18-5.42 4.44-2.5 9.85-1.84 14.44-3.85 4.23-3.39 2.87-9.66.82-13.91-4.5-8.39-4.52-18.24-3.89-27.49.24-7.26-4.34-13.8-3.2-21.07l.61.31-.7 1.84c2.82-1.05 5.68-2.47 8.79-2.05 4.36.35 8.72-.43 12.8-1.96.13.4.4 1.2.54 1.6 4.25-2.16 8.88-3.93 13.74-3.55 5.63.26 12.07-2.04 14.43-7.55 1.59-.38 3.09-1.03 4.2-2.28 3.86-1.56 8.2-2.72 12.27-1.21 3.25 1.11 6.71 1.2 10.11.97 6.88-.45 12.99-4.41 19.9-4.48 1.97-.8 3.12-2.74 4.39-4.34 4.14 1.69 9.12-1.21 10.55-5.25 2.2-4.72.76-10.02-.07-14.89-.63-2.79-3.39-4.06-5.59-5.43.63-2.96.04-6.09 1.21-8.93 3.73-10.2 3.2-21.23 2.81-31.89 1.93.64 3.78 1.59 5.8 1.93 3.83-.18 6.38-3.58 7.83-6.79 2.3-5.45 2.82-12.24-.54-17.37-1.81-2.75-5.33-2.9-8.26-2.39l-.52-1.33c-2.81 1.34-5 3.56-6.79 6.07-1.1-2.12-1.84-4.48-3.35-6.36-1.59-1.45-3.92-1.56-5.85-2.29-6.35 3.91-7.99 11.7-7.83 18.64.43.14 1.3.44 1.74.58-1.08-6.87 1.02-15.73 8.43-18.08 2.08 1.31 3.75 3.17 4.93 5.32-2.25.61-4.69.44-6.85 1.32-1.7 2.62-5.05 5.38-3.97 8.81 2.21 2.33 4.12 4.88 4.69 8.12-3.68.86-6.44-2.11-6.86-5.58-.41.63-.82 1.26-1.22 1.89.71 1.4 1.42 2.79 2.12 4.19 1.73.71 3.48 1.37 5.26 1.95.35 5.14-2.61 9.48-4.45 14.03-1.68 3.94.49 8.28-.87 12.27-.86 2.61-.46 5.59-2 7.96-2.51 3.91-3.4 8.53-5.12 12.79-2.59-1.17-5.32-1.98-7.91-3.15 1.67-5.3 1.68-11 1.07-16.48-.94-3.68-.07-7.57-1.38-11.18 2.17-6.08-.03-12.59.91-18.88-.52-.38-1.55-1.15-2.07-1.53-.08 4.28-.46 8.59.18 12.84.81 3.9-1.58 7.77.07 11.59-.43.05-1.28.15-1.71.19 2.94 7.39 2.29 15.37 2.01 23.1-3.92-1.66-8.04-.83-11.98.21-.21-2.5-.88-4.92-1.45-7.35-.81-3.4.37-6.78 1.12-10.06.56-.04 1.68-.11 2.24-.15-.58-1.85-1.34-3.65-1.6-5.58-.05-2.73 1.69-5.37.76-8.08-1.13-3.47-.53-7.12-.37-10.69.95-3.04 3.55-5.33 4.43-8.43.27-1.9.26-3.82.37-5.73-2.08-2.2-4.21-4.59-4.34-7.78.66-.97 1.31-1.93 1.96-2.9l4.33-.12c-1.2 4.04-1.36 8.26-1.34 12.44.54-.65 1.07-1.31 1.6-1.98-.41-4.41.06-9.19 2.86-12.81-.42-.53-.85-1.05-1.28-1.56-.31.73-.92 2.2-1.23 2.94-1.22-2.62-1.8-5.88-4.21-7.71-2.5-1.13-5.3-1.18-7.93-1.86-7.55 4.11-9.43 14.64-6.37 22.13m21.67-17.09c-.05.89.37 1.24 1.26 1.05.83-.76 2.55-1.46 2.4-2.76-1.38-.35-2.79.75-3.66 1.71m2.25 1.34c-5.4 6.22-4.76 15.03-2.55 22.41 2.88 1.37 6.04 1.71 9.19 1.95.8-1.81 1.68-3.58 2.52-5.37.67 2.87 2.19 5.45 4.69 7.11-2.52-4.62-4.9-9.8-3.48-15.18.56-5.08 4.53-8.54 8.3-11.46-2.77.22-4.96 1.91-6.73 3.91-1.21-2.33-2.61-5.99-5.93-5.32 1.92 1.83 3.85 3.66 5.57 5.7-2.58 4.63-3.26 9.97-2.7 15.19-1.85 1.44-3.63 3.26-6.02 3.71-2.42-.57-4.31-2.47-4.99-4.84-1.58-5.14-.83-11.11 2.26-15.55 1.19-1.83 3.49-2.56 4.67-4.35-1.64-1.57-3.69.92-4.8 2.09m-6.31 17.15c.09 1.69 1.05 4.43 2.89 4.66.22-1.68-1.23-3.13-1.76-4.66h-1.13m-9.79 54.22c-.01 1.15-.01 2.3-.01 3.44l2.68 1.44c1.34 2.02-.66 4.2-1.06 6.23-1.35 1.2-2.63 2.48-3.81 3.85.38.15 1.14.46 1.52.61 2.84-2.08 5.64-4.86 5.96-8.56-.53-3.02-3.49-4.73-5.28-7.01m-8.35 7.49c-.93.5-1.85 1-2.78 1.5-1.79-.61-3.62-1.11-5.5-1.37 1.11.87 2.29 1.65 3.48 2.41 2.37-.82 4.73-1.66 7.06-2.58.43-1.64.84-3.29 1.22-4.94-1.32 1.55-2.44 3.24-3.48 4.98m21.91.11c-.43-.53-1.29-1.57-1.72-2.1-.57-.07-1.72-.22-2.29-.29-.63-.4-1.87-1.19-2.49-1.59.64 3.16 3.72 3.71 6.5 3.98m1.26-2.55c1.37 2.41 1.8 5.19 3.06 7.65.09-1.27.28-3.82.37-5.09 1.53.8 3.06 1.62 4.54 2.51.09-.35.26-1.05.35-1.4-1.3-.69-2.59-1.37-3.88-2.07l-1.32 1.08c-1.04-.9-2.08-1.79-3.12-2.68m-7.3 4.54c.98 2.34 2.87 4.35 5.62 3.52-1.83-1.24-3.69-2.44-5.62-3.52m-18.45.6c2.09 1.54 4.22 3.09 6.72 3.92-.72-1.18-1.45-2.35-2.32-3.42-1.44-.31-2.91-.48-4.4-.5m.53 6.54c2.75 1.21 5.6 2.27 8.61 2.53-2.14-2.52-5.54-2.68-8.61-2.53m12.88-.79c1.11 2.51 3.29 4.12 6.14 3.73-1.78-1.64-3.91-2.83-6.14-3.73m-3.24 2.88c-.67 1.5 1.17 3.84 2.8 3.25.72-1.4-1.33-3.69-2.8-3.25m36.65 13.56c-17.97 3.21-35.33 8.99-53.02 13.41-11.13 3.28-22.28 6.49-33.23 10.34-4.52 1.91-7.85-2.89-12.1-3.39 1.56 2.08 3.73 3.61 6.12 4.62 5.55 3.24 11.35-1.3 16.87-2.37.25 9.19.08 18.41 1.34 27.54.36-.75 1.28-1.23 1.22-2.15.08-8.63-.19-17.27-.91-25.87 2.33-.75 4.69-1.44 7.03-2.19l-1.09-.42c5.49-.2 10.48-2.68 15.76-3.88 10.3-2.43 20.43-5.5 30.71-8.01.29 4.95-.02 9.93.41 14.88.48.29 1.46.88 1.94 1.18.17-5.49-.29-10.96-.7-16.43 2.39-.8 4.84-1.43 7.3-2 .38 5.37-.3 11.13 2.09 16.13 1.01-5.45.23-11.02-.32-16.48 4.21-1.25 8.56-1.98 12.75-3.3 2.61-.79 5.18-2.23 6.4-4.79-2.83 1.14-5.55 2.63-8.57 3.18M87.6 150.42c.78 5.54-.65 11.74 2.29 16.79.33-5.64.65-11.46-1.05-16.93-.31.03-.93.1-1.24.14z"/><path d="M114.28 45.09c-6.99-6.98-4.72-20.72 4.4-24.86-6.93 6.15-8.73 16.72-4.4 24.86zM166.36 38.49c1.05-3.85 4.4-6.13 7.46-8.29 7.5 4.44 6.96 15.4 2.38 21.75-1.57 2.51-5.39 4.19-7.8 1.82-4.08-3.86-3.49-10.34-2.04-15.28z"/><path d="M165.89 54.65c-6.04-7.13-4.52-20.01 4.06-24.52-6.26 6.47-7.59 16.36-4.06 24.52z"/><path d="M152.16 40.97c1.15-2.24 2.2-5.29 4.94-5.94 1.85-.81 3.86.09 5.76.14-2.5 6.07-2.89 13.36.82 19.03-.73 7.01.42 13.99-.02 21-.58.33-1.75.98-2.34 1.31.27 1.89.54 3.79.95 5.66-2.26-.16-4.51-.29-6.77-.34 1.19.99 2.4 1.95 3.64 2.88l.83-2.29c.46.57.91 1.15 1.36 1.74-2.53 4.74-1.1 10.3-2.8 15.27-2.13 6.57-7.13 11.68-9.49 18.18 3.03-3.17 5.53-6.79 7.65-10.63-.6 4.61-.19 9.46-2.03 13.83-.7 1.87-2.6 3.3-4.64 3.03-5.7-.43-10.44 3.45-16 3.98-5.07.94-9.98-.81-14.91-1.67 2.76-2.66 7.66-.58 10.13-3.76 1.78-1.92 4.17-3.15 5.86-5.16 2.03-.71 4.08-1.36 6.16-1.92.47.43 1.41 1.28 1.88 1.71 1.14-4.57 1.38-9.29 2.13-13.92.96-3.96 4.35-7.06 4.22-11.34-3.43 3.25-4.57 8.01-6.91 11.96 1.24-5.73 3.8-11.09 6.6-16.21.42-3.19.81-6.4 1.84-9.47-.78-4.68-.52-9.76 1.94-13.92 2.77-5 4.29-11.01 2.93-16.65-.61-2.52-3.51-3.93-3.73-6.5m1.64 40.5c2.11-1.14 3.6-3.02 4.45-5.24-2.24 1.01-3.86 2.84-4.45 5.24z"/><path d="M160.99 97.55c2.73 1.96 5.17 4.86 4.95 8.44-.09 3.73.93 8.04-1.78 11.13-1.56 2.48-4.67 2.76-7.28 3.18 1.33-3.93 1.69-8.09 1.31-12.2-.63-3.8 1.93-7 2.8-10.55zM74.15 111.08c8.83-2.9 18.56-.25 26.38 4.25 3.18 3.01 5.22 7.34 5.61 11.69-1.66 5.23-6.04 10.99-12.13 10.69-5.16-.23-10.02 1.64-14.71 3.55 1.91-8.45-2.79-17.09-9.07-22.49-1.97-1.87-4.62-.09-6.72.48-.88-2.21-.24-4.65-.25-6.94-.39-.34-1.17-1.01-1.55-1.35 4.27.35 8.56.66 12.85.74-.27.41-.81 1.22-1.09 1.63a56.86 56.86 0 00-2.32 4.18c2.98.16 5.96.26 8.94.08.01.37.02 1.13.03 1.51 4.24-.83 9.03 2.3 8.43 6.94.5-1.24 1.03-2.47 1.6-3.68-.68-1.39-1.1-3.1-2.56-3.89-2.27-1.4-5.23-.91-7.42-2.48-2.27-.01-4.54.02-6.8 0 1.53-1.09 3.11-2.12 4.65-3.21-1.31-.51-2.63-1.03-3.87-1.7m5.26 2.1c4.13 2.23 8.59 3.91 13.08 5.27-2.86-4.25-8.44-4.72-13.08-5.27zM34.04 120.82c7.43-5.22 16.48-8.19 25.6-7.88 1.43 2.02 1.47 4.53 1.83 6.89-5.52 1.91-11.43 3.67-15.7 7.88-2.77 2.63-7.19 3.79-8.2 7.94-2.45 4.68.87 9.56.87 14.37.01 5.22 2.67 9.92 3 15.1.53 5.75 2.79 11.18 3.29 16.93.15 3.98-2.15 7.37-4.77 10.13-3.56.39-7.4.38-10.5 2.43-2.84 1.53-5 4.61-8.52 4.56-3.73.09-7.43 2.79-11.02.57 1.62-1.14 3.33-2.16 4.9-3.37-1.16.16-3.47.46-4.63.61 1.63-1.73 3.43-3.34 5.72-4.13 3.32-1.08 4.65-4.6 7.06-6.82 2.24-2.4 5.7-3.84 6.78-7.16 2.47-6.79.41-14.11-1.28-20.83-2.88-7.68-.9-16.01-1.41-23.95-1.19-3.22-1.19-7.1 1.27-9.74 1.8-1.34 3.87-2.26 5.71-3.53m8.14 6.39c-3.22-.13-6.2-1.12-7.64-4.24-1.41 4.31 4.59 7.02 7.64 4.24m-12.32 1.76c-.04 2.52.59 4.99.96 7.48.09 1.49.19 2.99.31 4.48.93-2.06 1.69-4.19 2.56-6.27-.32.11-.98.33-1.31.44.79-2.38.08-5.33-2.52-6.13m10.57 49.2c1.31 4.75-2.49 8.43-4.55 12.28 3.31-1.33 4.67-4.7 6.42-7.51-.14-1.23-.29-2.47-.44-3.7l-1.43-1.07m-14.44 12.78c2.61-1.92 4.95-4.19 6.98-6.71-3.16 1.19-5.48 3.74-6.98 6.71zM129.96 117.04c-1.57-1.27.51-2.65 1.06-3.8 1.02 1.57 2.25 2.97 3.49 4.37-1.52-.1-3.12.05-4.55-.57z"/><path d="M58.53 122.33c3.48-1.71 7.31-2.56 11.19-2.41 4.88 5.2 9.64 12.31 8.1 19.75-5.32 3.07-11.79 3.71-17.79 2.75-2.65-.63-5.13.62-7.55 1.53 1.14 7.44 4.95 14.41 4.48 22.07-.59 9.13.06 18.64 3.88 27.06 1.06 3.5 3.56 8.06.56 11.21-5.38 2.52-11.81 1.99-17.01 5.11-3.83 2.29-8.17 3.35-12.47 4.34-3.09-.24-6.26-1.08-8.03-3.84l-3.36-.16c2.17-4.57 7.77-5.39 11.99-7.2 4.57-2.76 6.45-8.17 10.51-11.48 1.61-1.36 3.45-2.92 3.53-5.22-.31-8.11-3.35-15.82-3.82-23.92-.04-4.54-3.15-8.39-2.6-12.99.24-3.61-1.85-6.92-1.78-10.49.73-1.89 1.52-3.81 2.76-5.42 2.04-1.61 4.44-2.76 6.25-4.67 2.97-3.2 7.39-4.13 11.16-6.02m-.91 10.88c5.28-1.01 9.1-5.2 13.48-8.01-5.21 1.17-9.86 4.13-13.48 8.01m-9.97-.82c.64 1.83 2.3 2.62 4.08 3 .3-.39.89-1.15 1.19-1.53-1.77-.46-3.51-1-5.27-1.47m-5.12 12.11c2.06-1.56 2.76-3.9 2.72-6.41.62-1.01 1.23-2.02 1.81-3.05-4.44.98-3.8 5.99-4.53 9.46m2.73 8.75c.63.47.63.47 0 0m4.43 6.15c1.12 5.41 1.42 11.16 4.18 16.08-.48-7.49-3.37-14.61-3.61-22.16-.49 1.98-.98 4.04-.57 6.08m-3.1-4.09c-.39 6.4.64 12.85 2.66 18.93-.42-4.76-1.34-9.46-1.44-14.24.06-1.66-.44-3.24-1.22-4.69m9.48 39.52c-.36.61-1.06 1.81-1.42 2.42-1.2.77-2.35 1.63-3.32 2.69 2.34-.45 7.26-2.12 4.74-5.11m-14.55 9.55c2.21-2.08 4.01-4.58 5.21-7.38-2.49 1.81-4.53 4.32-5.21 7.38m-15.1 2.63c2.46 1.48 5.11 2.73 8.01 2.99-1.52-2.88-5.02-3.74-8.01-2.99z"/></g><g fill="#333"><path d="M110.3 41.91c-3.06-7.49-1.18-18.02 6.37-22.13 2.63.68 5.43.73 7.93 1.86 2.41 1.83 2.99 5.09 4.21 7.71.31-.74.92-2.21 1.23-2.94.43.51.86 1.03 1.28 1.56-2.8 3.62-3.27 8.4-2.86 12.81-.53.67-1.06 1.33-1.6 1.98-.02-4.18.14-8.4 1.34-12.44l-4.33.12c-.65.97-1.3 1.93-1.96 2.9.13 3.19 2.26 5.58 4.34 7.78-.11 1.91-.1 3.83-.37 5.73-.88 3.1-3.48 5.39-4.43 8.43-.16 3.57-.76 7.22.37 10.69.93 2.71-.81 5.35-.76 8.08.26 1.93 1.02 3.73 1.6 5.58-.56.04-1.68.11-2.24.15-.75 3.28-1.93 6.66-1.12 10.06.57 2.43 1.24 4.85 1.45 7.35 3.94-1.04 8.06-1.87 11.98-.21.28-7.73.93-15.71-2.01-23.1.43-.04 1.28-.14 1.71-.19-1.65-3.82.74-7.69-.07-11.59-.64-4.25-.26-8.56-.18-12.84.52.38 1.55 1.15 2.07 1.53-.94 6.29 1.26 12.8-.91 18.88 1.31 3.61.44 7.5 1.38 11.18.61 5.48.6 11.18-1.07 16.48 2.59 1.17 5.32 1.98 7.91 3.15 1.72-4.26 2.61-8.88 5.12-12.79 1.54-2.37 1.14-5.35 2-7.96 1.36-3.99-.81-8.33.87-12.27 1.84-4.55 4.8-8.89 4.45-14.03-1.78-.58-3.53-1.24-5.26-1.95-.7-1.4-1.41-2.79-2.12-4.19.4-.63.81-1.26 1.22-1.89.42 3.47 3.18 6.44 6.86 5.58-.57-3.24-2.48-5.79-4.69-8.12-1.08-3.43 2.27-6.19 3.97-8.81 2.16-.88 4.6-.71 6.85-1.32-1.18-2.15-2.85-4.01-4.93-5.32-7.41 2.35-9.51 11.21-8.43 18.08-.44-.14-1.31-.44-1.74-.58-.16-6.94 1.48-14.73 7.83-18.64 1.93.73 4.26.84 5.85 2.29 1.51 1.88 2.25 4.24 3.35 6.36 1.79-2.51 3.98-4.73 6.79-6.07l.52 1.33c2.93-.51 6.45-.36 8.26 2.39 3.36 5.13 2.84 11.92.54 17.37-1.45 3.21-4 6.61-7.83 6.79-2.02-.34-3.87-1.29-5.8-1.93.39 10.66.92 21.69-2.81 31.89-1.17 2.84-.58 5.97-1.21 8.93 2.2 1.37 4.96 2.64 5.59 5.43.83 4.87 2.27 10.17.07 14.89-1.43 4.04-6.41 6.94-10.55 5.25-1.27 1.6-2.42 3.54-4.39 4.34-6.91.07-13.02 4.03-19.9 4.48-3.4.23-6.86.14-10.11-.97-4.07-1.51-8.41-.35-12.27 1.21-1.11 1.25-2.61 1.9-4.2 2.28-2.36 5.51-8.8 7.81-14.43 7.55-4.86-.38-9.49 1.39-13.74 3.55-.14-.4-.41-1.2-.54-1.6-4.08 1.53-8.44 2.31-12.8 1.96-3.11-.42-5.97 1-8.79 2.05l.7-1.84-.61-.31c-1.14 7.27 3.44 13.81 3.2 21.07-.63 9.25-.61 19.1 3.89 27.49 2.05 4.25 3.41 10.52-.82 13.91-4.59 2.01-10 1.35-14.44 3.85-4.42 2.56-9.34 3.91-14.18 5.42-5.37.33-9.53-3.35-13.85-5.9.59-1.18 1.18-2.36 1.79-3.52 2.69-1.44 5.13-3.42 8.13-4.2 4.22-.97 6.56-4.94 9.2-7.98-5.01.38-9.05 3.2-12.85 6.19-3.48 1.24-7.36.95-10.93 2.01-2.23.72-4.11-.87-5.33-2.56.2-1.55.47-3.1 1.03-4.56 2.49-3.04 6.86-3.73 9.03-7.12 3.19-4.52 9.06-7.16 10.09-13.06 1.07-7.49-2.66-14.54-3.07-21.93-.23-6.35-.86-12.66-1.27-19-1-4.82.31-11.05 5.44-12.9 7.14-5.45 15.74-9.05 24.72-9.82 2.1-.22 3.9-1.45 5.9-2.03 3.04.05 6.02.85 9.07.7 3.1.09 5.88-1.52 8.89-1.99 3.31-.27 6.57.49 9.85.87 2.62-2.13 5.92-2.82 9.13-3.5 2.34-1.29 4.45-2.94 6.73-4.33 2.31-3.05 5.92-4.66 9.52-5.65 1.86-.46 3.53.56 4.83 1.78-3.59-.26-7.39-.02-10.39 2.2-2.59 2.05-5.15 4.13-7.85 6.03-.05.42-.14 1.28-.19 1.71-1.57.66-3.12 1.36-4.57 2.25-.49-.45-.97-.9-1.44-1.36l1.66-1.16c-1.54.6-3.04 1.28-4.55 1.95 4.07 2.72 9 3.98 12.62 7.42l.36 1.96c-.03-.64-.08-1.91-.11-2.55 2.89.5 5.77 1.06 8.56 1.97-2.69.94-5.49.19-8.18-.29 2.22 3.61 4.18 7.9 2.82 12.2 2.97-1.42 6.16-2.31 9.43-2.68.46-.83.9-1.68 1.31-2.53 2.65-1.28 5.49-2.06 8.4-2.44.92-.75 1.85-1.5 2.78-2.24-1.31-1.66-2.07-3.61-1.9-5.74-1.2-.3-2.4-.62-3.6-.94-.21-.38-.64-1.14-.85-1.52 1.58.29 3.16.57 4.74.84l.44 1.74c2.51-1.22 4.44-3.36 7.09-4.32-.9 1.04-1.84 2.04-2.81 3.02 1.05 1.68 2.82 2.46 4.6 3.15 1.39-.4 2.77-.81 4.16-1.23.42-2.71 1.04-5.38 1.21-8.12-1.42-1.55-1.38-3.69-1.74-5.62-4.4-.2-8.36-2.15-12.52-3.33-2.73-1.08-5.5 1.11-8.22.13-2.1-2.66-2.26-6.2-2.8-9.42-.9-4.52 1.89-8.67 1.9-13.16-.25-3.39 1.49-6.76.26-10.07-.97-3.01.03-6.18-.47-9.25 1.33-3.1 3.3-5.85 4.73-8.89 1.13-2.2-.1-4.44-.91-6.5-1.5-1.37-4.57-2.64-3.47-5.16.98-2.64 1.64-6.21 4.75-7.08.87-.64 1.73-1.28 2.6-1.93-1.43-1.88-3.07-3.58-4.81-5.19-8.18 3.28-11.18 14.47-6.81 21.78 1.41 2.77 4.56 2.05 7.09 1.96-1.17 1-2.33 2.89-4.14 1.99-2.91-.95-6.78-1.38-7.83-4.8m3.98 3.18c-4.33-8.14-2.53-18.71 4.4-24.86-9.12 4.14-11.39 17.88-4.4 24.86m52.08-6.6c-1.45 4.94-2.04 11.42 2.04 15.28 2.41 2.37 6.23.69 7.8-1.82 4.58-6.35 5.12-17.31-2.38-21.75-3.06 2.16-6.41 4.44-7.46 8.29m-.47 16.16c-3.53-8.16-2.2-18.05 4.06-24.52-8.58 4.51-10.1 17.39-4.06 24.52m-13.73-13.68c.22 2.57 3.12 3.98 3.73 6.5 1.36 5.64-.16 11.65-2.93 16.65-2.46 4.16-2.72 9.24-1.94 13.92-1.03 3.07-1.42 6.28-1.84 9.47-2.8 5.12-5.36 10.48-6.6 16.21 2.34-3.95 3.48-8.71 6.91-11.96.13 4.28-3.26 7.38-4.22 11.34-.75 4.63-.99 9.35-2.13 13.92-.47-.43-1.41-1.28-1.88-1.71-2.08.56-4.13 1.21-6.16 1.92-1.69 2.01-4.08 3.24-5.86 5.16-2.47 3.18-7.37 1.1-10.13 3.76 4.93.86 9.84 2.61 14.91 1.67 5.56-.53 10.3-4.41 16-3.98 2.04.27 3.94-1.16 4.64-3.03 1.84-4.37 1.43-9.22 2.03-13.83-2.12 3.84-4.62 7.46-7.65 10.63 2.36-6.5 7.36-11.61 9.49-18.18 1.7-4.97.27-10.53 2.8-15.27-.45-.59-.9-1.17-1.36-1.74l-.83 2.29c-1.24-.93-2.45-1.89-3.64-2.88 2.26.05 4.51.18 6.77.34-.41-1.87-.68-3.77-.95-5.66.59-.33 1.76-.98 2.34-1.31.44-7.01-.71-13.99.02-21-3.71-5.67-3.32-12.96-.82-19.03-1.9-.05-3.91-.95-5.76-.14-2.74.65-3.79 3.7-4.94 5.94m8.83 56.58c-.87 3.55-3.43 6.75-2.8 10.55.38 4.11.02 8.27-1.31 12.2 2.61-.42 5.72-.7 7.28-3.18 2.71-3.09 1.69-7.4 1.78-11.13.22-3.58-2.22-6.48-4.95-8.44m-86.84 13.53c1.24.67 2.56 1.19 3.87 1.7-1.54 1.09-3.12 2.12-4.65 3.21 2.26.02 4.53-.01 6.8 0 2.19 1.57 5.15 1.08 7.42 2.48 1.46.79 1.88 2.5 2.56 3.89-.57 1.21-1.1 2.44-1.6 3.68.6-4.64-4.19-7.77-8.43-6.94-.01-.38-.02-1.14-.03-1.51-2.98.18-5.96.08-8.94-.08a56.86 56.86 0 012.32-4.18c.28-.41.82-1.22 1.09-1.63-4.29-.08-8.58-.39-12.85-.74.38.34 1.16 1.01 1.55 1.35.01 2.29-.63 4.73.25 6.94 2.1-.57 4.75-2.35 6.72-.48 6.28 5.4 10.98 14.04 9.07 22.49 4.69-1.91 9.55-3.78 14.71-3.55 6.09.3 10.47-5.46 12.13-10.69-.39-4.35-2.43-8.68-5.61-11.69-7.82-4.5-17.55-7.15-26.38-4.25m-40.11 9.74c-1.84 1.27-3.91 2.19-5.71 3.53-2.46 2.64-2.46 6.52-1.27 9.74.51 7.94-1.47 16.27 1.41 23.95 1.69 6.72 3.75 14.04 1.28 20.83-1.08 3.32-4.54 4.76-6.78 7.16-2.41 2.22-3.74 5.74-7.06 6.82-2.29.79-4.09 2.4-5.72 4.13 1.16-.15 3.47-.45 4.63-.61-1.57 1.21-3.28 2.23-4.9 3.37 3.59 2.22 7.29-.48 11.02-.57 3.52.05 5.68-3.03 8.52-4.56 3.1-2.05 6.94-2.04 10.5-2.43 2.62-2.76 4.92-6.15 4.77-10.13-.5-5.75-2.76-11.18-3.29-16.93-.33-5.18-2.99-9.88-3-15.1 0-4.81-3.32-9.69-.87-14.37 1.01-4.15 5.43-5.31 8.2-7.94 4.27-4.21 10.18-5.97 15.7-7.88-.36-2.36-.4-4.87-1.83-6.89-9.12-.31-18.17 2.66-25.6 7.88m95.92-3.78c1.43.62 3.03.47 4.55.57-1.24-1.4-2.47-2.8-3.49-4.37-.55 1.15-2.63 2.53-1.06 3.8m-71.43 5.29c-3.77 1.89-8.19 2.82-11.16 6.02-1.81 1.91-4.21 3.06-6.25 4.67-1.24 1.61-2.03 3.53-2.76 5.42-.07 3.57 2.02 6.88 1.78 10.49-.55 4.6 2.56 8.45 2.6 12.99.47 8.1 3.51 15.81 3.82 23.92-.08 2.3-1.92 3.86-3.53 5.22-4.06 3.31-5.94 8.72-10.51 11.48-4.22 1.81-9.82 2.63-11.99 7.2l3.36.16c1.77 2.76 4.94 3.6 8.03 3.84 4.3-.99 8.64-2.05 12.47-4.34 5.2-3.12 11.63-2.59 17.01-5.11 3-3.15.5-7.71-.56-11.21-3.82-8.42-4.47-17.93-3.88-27.06.47-7.66-3.34-14.63-4.48-22.07 2.42-.91 4.9-2.16 7.55-1.53 6 .96 12.47.32 17.79-2.75 1.54-7.44-3.22-14.55-8.1-19.75-3.88-.15-7.71.7-11.19 2.41z"/><path d="M131.97 24.82c.87-.96 2.28-2.06 3.66-1.71.15 1.3-1.57 2-2.4 2.76-.89.19-1.31-.16-1.26-1.05zM134.22 26.16c1.11-1.17 3.16-3.66 4.8-2.09-1.18 1.79-3.48 2.52-4.67 4.35-3.09 4.44-3.84 10.41-2.26 15.55.68 2.37 2.57 4.27 4.99 4.84 2.39-.45 4.17-2.27 6.02-3.71-.56-5.22.12-10.56 2.7-15.19-1.72-2.04-3.65-3.87-5.57-5.7 3.32-.67 4.72 2.99 5.93 5.32 1.77-2 3.96-3.69 6.73-3.91-3.77 2.92-7.74 6.38-8.3 11.46-1.42 5.38.96 10.56 3.48 15.18-2.5-1.66-4.02-4.24-4.69-7.11-.84 1.79-1.72 3.56-2.52 5.37-3.15-.24-6.31-.58-9.19-1.95-2.21-7.38-2.85-16.19 2.55-22.41zM127.91 43.31h1.13c.53 1.53 1.98 2.98 1.76 4.66-1.84-.23-2.8-2.97-2.89-4.66zM153.8 81.47c.59-2.4 2.21-4.23 4.45-5.24-.85 2.22-2.34 4.1-4.45 5.24zM118.12 97.53c1.79 2.28 4.75 3.99 5.28 7.01-.32 3.7-3.12 6.48-5.96 8.56-.38-.15-1.14-.46-1.52-.61 1.18-1.37 2.46-2.65 3.81-3.85.4-2.03 2.4-4.21 1.06-6.23l-2.68-1.44c0-1.14 0-2.29.01-3.44zM109.77 105.02c1.04-1.74 2.16-3.43 3.48-4.98-.38 1.65-.79 3.3-1.22 4.94-2.33.92-4.69 1.76-7.06 2.58-1.19-.76-2.37-1.54-3.48-2.41 1.88.26 3.71.76 5.5 1.37.93-.5 1.85-1 2.78-1.5zM131.68 105.13c-2.78-.27-5.86-.82-6.5-3.98.62.4 1.86 1.19 2.49 1.59.57.07 1.72.22 2.29.29.43.53 1.29 1.57 1.72 2.1zM132.94 102.58c1.04.89 2.08 1.78 3.12 2.68l1.32-1.08c1.29.7 2.58 1.38 3.88 2.07-.09.35-.26 1.05-.35 1.4-1.48-.89-3.01-1.71-4.54-2.51-.09 1.27-.28 3.82-.37 5.09-1.26-2.46-1.69-5.24-3.06-7.65zM125.64 107.12c1.93 1.08 3.79 2.28 5.62 3.52-2.75.83-4.64-1.18-5.62-3.52zM107.19 107.72c1.49.02 2.96.19 4.4.5.87 1.07 1.6 2.24 2.32 3.42-2.5-.83-4.63-2.38-6.72-3.92zM79.41 113.18c4.64.55 10.22 1.02 13.08 5.27-4.49-1.36-8.95-3.04-13.08-5.27zM107.72 114.26c3.07-.15 6.47.01 8.61 2.53-3.01-.26-5.86-1.32-8.61-2.53zM120.6 113.47c2.23.9 4.36 2.09 6.14 3.73-2.85.39-5.03-1.22-6.14-3.73zM117.36 116.35c1.47-.44 3.52 1.85 2.8 3.25-1.63.59-3.47-1.75-2.8-3.25zM42.18 127.21c-3.05 2.78-9.05.07-7.64-4.24 1.44 3.12 4.42 4.11 7.64 4.24zM57.62 133.21c3.62-3.88 8.27-6.84 13.48-8.01-4.38 2.81-8.2 7-13.48 8.01zM154.01 129.91c3.02-.55 5.74-2.04 8.57-3.18-1.22 2.56-3.79 4-6.4 4.79-4.19 1.32-8.54 2.05-12.75 3.3.55 5.46 1.33 11.03.32 16.48-2.39-5-1.71-10.76-2.09-16.13-2.46.57-4.91 1.2-7.3 2 .41 5.47.87 10.94.7 16.43-.48-.3-1.46-.89-1.94-1.18-.43-4.95-.12-9.93-.41-14.88-10.28 2.51-20.41 5.58-30.71 8.01-5.28 1.2-10.27 3.68-15.76 3.88l1.09.42c-2.34.75-4.7 1.44-7.03 2.19.72 8.6.99 17.24.91 25.87.06.92-.86 1.4-1.22 2.15-1.26-9.13-1.09-18.35-1.34-27.54-5.52 1.07-11.32 5.61-16.87 2.37-2.39-1.01-4.56-2.54-6.12-4.62 4.25.5 7.58 5.3 12.1 3.39 10.95-3.85 22.1-7.06 33.23-10.34 17.69-4.42 35.05-10.2 53.02-13.41zM29.86 128.97c2.6.8 3.31 3.75 2.52 6.13.33-.11.99-.33 1.31-.44-.87 2.08-1.63 4.21-2.56 6.27-.12-1.49-.22-2.99-.31-4.48-.37-2.49-1-4.96-.96-7.48zM47.65 132.39c1.76.47 3.5 1.01 5.27 1.47-.3.38-.89 1.14-1.19 1.53-1.78-.38-3.44-1.17-4.08-3zM42.53 144.5c.73-3.47.09-8.48 4.53-9.46-.58 1.03-1.19 2.04-1.81 3.05.04 2.51-.66 4.85-2.72 6.41z"/><path d="M87.6 150.42c.31-.04.93-.11 1.24-.14 1.7 5.47 1.38 11.29 1.05 16.93-2.94-5.05-1.51-11.25-2.29-16.79zM45.26 153.25c.63.47.63.47 0 0zM49.69 159.4c-.41-2.04.08-4.1.57-6.08.24 7.55 3.13 14.67 3.61 22.16-2.76-4.92-3.06-10.67-4.18-16.08zM46.59 155.31c.78 1.45 1.28 3.03 1.22 4.69.1 4.78 1.02 9.48 1.44 14.24-2.02-6.08-3.05-12.53-2.66-18.93zM40.43 178.17l1.43 1.07c.15 1.23.3 2.47.44 3.7-1.75 2.81-3.11 6.18-6.42 7.51 2.06-3.85 5.86-7.53 4.55-12.28zM25.99 190.95c1.5-2.97 3.82-5.52 6.98-6.71a37.602 37.602 0 01-6.98 6.71zM56.07 194.83c2.52 2.99-2.4 4.66-4.74 5.11.97-1.06 2.12-1.92 3.32-2.69.36-.61 1.06-1.81 1.42-2.42zM41.52 204.38c.68-3.06 2.72-5.57 5.21-7.38-1.2 2.8-3 5.3-5.21 7.38zM26.42 207.01c2.99-.75 6.49.11 8.01 2.99-2.9-.26-5.55-1.51-8.01-2.99z"/></g></svg>