<svg width="200pt" height="300" viewBox="0 0 200 225" xmlns="http://www.w3.org/2000/svg"><g fill="#FFF"><path d="M0 0h200v225H0V0m143.17 37.89c-.62 5.11.27 11.36 4.94 14.41-2.31-4.35-4.78-9.07-3.69-14.18.28-5.52 4.4-9.45 8.53-12.54-6.16.54-8.85 7.02-9.78 12.31m2.57 7.16c.43.08 1.29.24 1.73.31-1.19-7.03 1.28-15.08 8.16-18.23 2.03 1.58 3.96 3.32 5.22 5.59-2.76.95-6.83-.16-8.26 3.09-1.53 2.29-4.47 5.6-1.72 8.12 2.1 1.87 3.18 4.43 3.82 7.11-3.67.72-6.42-2.17-6.86-5.64-.41.63-.81 1.26-1.21 1.89.72 1.4 1.44 2.8 2.14 4.21 1.73.71 3.48 1.37 5.27 1.96.33 5.63-3.26 10.23-4.95 15.33-.46 3.72.32 7.46 0 11.19-5.38.52-10.7 1.76-16.11 1.81-4.11-.27-7.93 1.54-11.85 2.45-2.32 3.58-4.16 7.41-6.19 11.15-2.98.93-6.29 1.58-8.61 3.83-2.55 2.38-5.42 4.42-8.47 6.11-3.21.67-6.48 1.41-9.13 3.48-3.27-.37-6.54-1.11-9.85-.85-3.01.48-5.79 2.1-8.91 1.98-3 .15-5.93-.62-8.91-.69-2.08.55-3.95 1.81-6.13 2.03-6.59.6-13.03 2.75-18.83 5.93-2.96 1.98-5.89 4.02-8.95 5.86-2.71 3.34-2.96 7.93-2.15 12 .18 5.65.99 11.25 1.1 16.91.15 7.76 4.2 15.1 3.12 22.93-1.02 5.92-6.91 8.58-10.11 13.11-2.18 3.36-6.53 4.06-9.01 7.09-.56 1.46-.83 3.01-1.06 4.56 1.18 1.46 2.77 3.23 4.87 2.61 3.71-.97 7.67-.86 11.3-2 3.88-2.96 7.92-5.86 12.98-6.26-2.63 3.02-4.96 6.96-9.14 7.96-3.03.79-5.5 2.78-8.21 4.24-.61 1.16-1.2 2.33-1.78 3.51 4.32 2.58 8.55 6.27 13.93 5.88 4.3-1.42 8.77-2.47 12.76-4.72 4.71-2.79 10.29-2.95 15.52-4.05 1.46-1.73 3.09-3.65 2.99-6.06.48-6.45-4.58-11.53-5.18-17.77-.55-4.61-1.4-9.26-.81-13.91.8-6.28-.9-12.49-2.78-18.42-.82-2.3-.35-4.75-.04-7.1.23.51.68 1.51.9 2.01 2.44-1 5-1.93 7.68-1.6 4.74.42 9.4-.68 13.82-2.29l-.48 1.63c4.37-1.74 8.86-3.66 13.67-3.25 5.66.28 11.98-2.06 14.47-7.49 1.58-.47 3.07-1.17 4.23-2.37 3.68-1.45 7.76-2.62 11.67-1.33 4.32 1.46 9.02 1.54 13.48.7 5.76-.9 10.97-4.04 16.87-4.04 2.1-.63 3.25-2.74 4.58-4.32 4.17 1.61 9.14-1.25 10.57-5.33 2.18-4.69.74-9.98-.09-14.83-.64-2.94-3.66-4.19-5.91-5.69.37-.87.75-1.73 1.13-2.59 1.12-.49 2.24-.99 3.35-1.49 1.2-3.54 1.44-7.32.19-10.88-.97-2.18 1.23-4.17.75-6.33-1.57-6.1-.51-12.44-1.08-18.64l-1.64-.32c-.37 5.7-.12 11.38.36 17.07-2.07 1.39-4.26 2.62-6.61 3.47-2.76 1.03-4.6 3.48-6.67 5.45.44-5.4-.93-11.29 1.91-16.25 2.87-5.1 4.63-11.13 3.43-16.97-.57-2.71-3.38-4.25-3.93-6.89 1.26-3.11 3.43-5.77 6.72-6.8 1.2.73 2.4 1.47 3.63 2.16-2.31 6.45-2.75 15.61 3.96 19.63-3.47-4.9-5.29-11.11-3.38-16.99.78-4.55 4.8-7.2 7.85-10.18-3 .46-5.56 2.26-6.85 5-.75.07-1.49.13-2.24.18-.55-2.07-.98-4.48-2.82-5.84-1.64-1.04-3.63-1.29-5.43-1.91-6.34 3.98-8.02 11.8-7.79 18.79m25.33-15.07c-6.19 4.26-8.16 12.65-6.68 19.7.73 3.03 2.45 6.41 5.82 7.01 3.31.37 6.1-2.11 7.64-4.81 3.09-5.36 3.94-12.3 1.29-18.01-1.35-3.02-4.88-4.65-8.07-3.89m-33.23 103.38c-20.27 5.61-40.68 10.72-60.72 17.13-4 1.28-7.88 3.17-12.09 3.63-3.39-.56-5.98-3.35-9.42-3.92 1.56 2.12 3.75 3.66 6.15 4.69 5.56 3.27 11.35-1.29 16.89-2.34.11 4.41.24 8.82.18 13.24.73-.62 1.47-1.22 2.21-1.83-.18-3.99-.48-7.97-.72-11.96 3.11-.95 6.24-1.79 9.37-2.7l-3.64-.25c5.26.62 9.99-2.14 14.99-3.24 10.61-2.53 21.07-5.66 31.67-8.26.27 4.93-.01 9.88.39 14.8.49.33 1.47.99 1.97 1.32.16-5.53-.3-11.03-.68-16.53 2.39-.77 4.82-1.38 7.27-1.97.38 5.39-.32 11.18 2.12 16.2.95-5.49.2-11.07-.33-16.55 6.42-2.41 15.14-1.67 19.22-8.11-7.74 3.99-16.57 4.32-24.83 6.65m-50.23 17.03c.72 5.59-.6 11.76 2.27 16.88.35-5.66.66-11.5-1.04-16.98-.31.02-.93.07-1.23.1m-8.64 16.72c.62 4.34-.56 9.32 2.04 13.13.48-5.02.01-10.07.11-15.1-.71.66-1.43 1.32-2.15 1.97z"/><path d="M169.05 33.92c1.47-1.42 3.2-2.5 4.8-3.76 6.64 3.94 6.82 13.06 3.83 19.36-1.36 2.83-4.07 6.18-7.61 5.22-3.48-1.32-4.63-5.41-4.77-8.78-.05-4.24.78-8.83 3.75-12.04zM152.33 82.29c4.03-3.17 8.62-5.51 12.82-8.46-.76 1.72-1.69 3.35-2.62 4.97 2.48 3.6 1.5 8.23.62 12.2-3.87.25-7.3-1.56-10.91-2.49-7.74 3.25-17.22 7.8-25.22 2.84.73 1.4 1.47 2.79 2.19 4.2-2.83.39-5.61 1.06-8.4 1.66-.26-1.65-.61-3.28-1.07-4.89.84-2.09 1.68-4.19 2.55-6.28 7.56-2.74 15.71-3.79 23.72-3.12 2.08-.04 4.53.81 6.32-.63z"/><path d="M146.91 92.82c3.95-2.22 8.5-1.53 12.77-.98-.25 5.07-1.41 10.25-4.41 14.43-2.6 3.53-4.44 7.53-6.26 11.49a54.77 54.77 0 007.68-10.81c-.72 5.03-.03 10.57-2.73 15.11-2.45 3.22-7.02.87-10.19 2.75-7.67 3.63-17.1 4.77-24.69.33 2.9-.42 5.97-.39 8.73-1.49 2.34-2.28 5.03-4.17 7.43-6.39 1.95-.81 3.98-1.39 6.02-1.96.47.44 1.42 1.31 1.9 1.75 1.27-4.96 1.23-10.15 2.45-15.1.73-3.02 4.11-5.58 3.21-8.76-.25.01-.75.02-1 .03-1.92 3.5-3.47 7.18-5.23 10.76.74-3.9 1.96-7.92 4.32-11.16z"/><path d="M117.92 97.35c-.08-1.54-.07-3.08.01-4.62.84 1.82 1.24 4.04 2.91 5.34 2.32.08 4.56-1.33 6.86-.61 4.47 1.06 8.68 3.14 13.34 3.37.17 1.37.33 2.75.5 4.12 2.35 2.93.1 6.56-.17 9.8-1.3.3-2.6.59-3.89.88-.87-.25-2.59-.76-3.46-1.01-.35-.7-.7-1.39-1.05-2.09a5.69 5.69 0 001.84-2.3c-2.47.3-4 2.82-6.27 3.75l-.57-1.91c-1.78-.16-3.57-.37-5.36-.46 1.6.95 3.28 1.77 5 2.47.02 2.03.83 3.87 1.96 5.53-.92.72-1.83 1.46-2.74 2.19-3.03.43-5.97 1.33-8.83 2.4.1.63.29 1.89.39 2.52-3.7.16-7.3 1.14-10.65 2.69 1.25-4.28-.63-8.54-2.85-12.12 2.72.5 5.48.93 8.27.66-2.82-1.48-5.98-1.94-9.09-2.33.26.54.78 1.64 1.04 2.19-3.1-4.81-8.86-6.39-13.63-8.96 1.62-.72 3.26-1.43 4.92-2.08l-1.85 1.25c.46.43.92.86 1.39 1.29 1.48-.86 3.03-1.59 4.6-2.28.02-.39.06-1.17.07-1.56 5.29-3.53 10.16-9.9 17.31-8.12m3.43 5.86c-.22 1.87-1.02 3.61-1.59 5.39-1.73 1.34-3.18 2.98-3.95 5.06 3.73-1.72 7.2-4.8 7.6-9.12-.59-3-3.48-4.78-5.16-7.16-1.22 2.82 1.18 4.28 3.1 5.83m-11.61 1.81c-.91.51-1.82 1.01-2.73 1.51-1.81-.6-3.64-1.13-5.51-1.47 1.1.89 2.25 1.71 3.42 2.51 2.39-.82 4.77-1.66 7.12-2.6.43-1.66.84-3.32 1.23-4.99-1.31 1.59-2.46 3.29-3.53 5.04m15.3-3.8c.86 3.09 3.89 3.63 6.68 3.94-.44-.53-1.32-1.6-1.76-2.13-.56-.07-1.67-.22-2.23-.3-.89-.52-1.79-1.02-2.69-1.51m7.14 1.76c.56.45 1.67 1.37 2.23 1.82.52 1.35-.23 3.71 1.4 4.3.76-1.24 1.34-2.58 2.02-3.87a54.67 54.67 0 003.68 2.91c-.53-1.53-1.6-2.75-2.81-3.77l-.65-.09c-2.07.94-3.95-.78-5.87-1.3m-6.63 4.11c1.06 2.38 2.98 4.29 5.77 3.64-1.87-1.29-3.78-2.54-5.77-3.64m-18.54.7c2.2 1.41 4.37 2.88 6.77 3.93-.66-1.23-1.36-2.45-2.05-3.67-1.57-.09-3.14-.18-4.72-.26m.67 6.4c2.59 1.16 5.28 2.05 8 2.86-.16-.51-.48-1.53-.64-2.05-2.43-.46-4.89-.77-7.36-.81m12.85-.79c1.17 2.53 3.35 4.23 6.28 3.81-1.86-1.62-4.02-2.85-6.28-3.81m-3.15 2.94c-.73 1.49 1.16 3.84 2.78 3.28.74-1.41-1.31-3.65-2.78-3.28zM131.32 95.82c4.28.31 8.49-.81 12.62-1.81-.8 2.13-1.57 4.28-2.38 6.42-2.65-1.16-5.47-1.91-8.02-3.3l-2.4-.56c.05-.19.13-.56.18-.75zM160.99 97.53c2.69 1.99 5.16 4.84 4.94 8.41-.09 3.74.94 8.07-1.77 11.17-1.55 2.49-4.69 2.74-7.29 3.21 1.35-3.93 1.69-8.11 1.32-12.24-.63-3.8 1.95-7 2.8-10.55z"/><path d="M74.14 111.07c8.85-2.87 18.6-.25 26.42 4.29 3.16 3.02 5.22 7.34 5.57 11.69-1.67 5.25-6.07 10.98-12.17 10.67-5.14-.22-9.98 1.63-14.65 3.53 1.9-8.45-2.8-17.07-9.08-22.47-1.97-1.88-4.63-.1-6.74.47-.77-2.27-.33-4.74-.28-7.09-.43-.3-1.3-.9-1.73-1.2 4.36.33 8.72.68 13.09.71-1.22 1.9-2.44 3.8-3.46 5.82 2.92.17 5.84.28 8.77.13.09.36.26 1.09.35 1.45 4.21-.72 8.87 2.36 8.33 6.95.51-1.26 1.05-2.51 1.61-3.75-.72-1.35-1.18-3.02-2.6-3.82-2.3-1.36-5.23-.93-7.44-2.46-2.26-.01-4.53.02-6.79.01 1.55-1.09 3.15-2.11 4.7-3.19-1.32-.53-2.64-1.06-3.9-1.74m5.3 2.07c4.1 2.34 8.63 3.9 13.1 5.39-2.83-4.33-8.44-4.76-13.1-5.39zM31.46 122.4c8.07-5.55 17.58-10.07 27.62-9.3 2.66.99 1.75 4.5 2.37 6.72-5.53 1.93-11.45 3.71-15.73 7.92-2.5 2.5-6.61 3.44-7.81 7.1-1.74 2.99-1.39 6.51-.41 9.68 1.29 4.1.65 8.55 2.18 12.59 1.84 5.13 1.73 10.68 3.26 15.89.88 4.24 2.73 8.69 1.11 12.98-.63 2.47-2.55 4.26-4.08 6.19-3.56.4-7.39.38-10.49 2.42-2.83 1.51-4.98 4.57-8.45 4.57-3.8.23-7.45 2.46-11.26.9 1.7-1.32 3.52-2.47 5.22-3.79l-4.94.84c1.71-1.75 3.56-3.44 5.91-4.27 3.07-1.03 4.43-4.19 6.57-6.35 2.49-2.82 6.6-4.44 7.5-8.43 2.34-8.1-.72-16.41-2.73-24.25-1.35-7.88 1.1-16.02-1.12-23.78.01-3.41 2.07-6.44 5.28-7.63m10.76 4.91c-3.26-.25-6.26-1.34-7.9-4.36-.85 4.4 4.6 6.92 7.9 4.36m-12.35 1.54c.01 2.38.48 4.74.64 7.12l.92-1.12c-.34 2.06-.5 4.13-.49 6.21 1.04-2.03 1.82-4.18 2.68-6.28-.29.07-.87.23-1.16.3.67-2.47-.13-5.18-2.59-6.23m10.14 49.31c.34.9.68 1.8 1.03 2.7-1.26 3.46-3.33 6.51-5.17 9.66 3.25-1.42 4.69-4.72 6.42-7.56-.12-1.23-.25-2.46-.38-3.68-.47-.28-1.42-.84-1.9-1.12m-14.02 12.86c2.58-1.99 4.96-4.25 6.95-6.84-3.13 1.3-5.49 3.82-6.95 6.84zM129.67 115.98c-1.3-2.19 1.74-1.77 2.81-2.44l-.97 1.21c.58.51 1.73 1.54 2.31 2.05-1.02 1.13-4.32 1.17-4.15-.82z"/><path d="M52.17 125.08c5.65-2.27 11.18-5.64 17.52-5.17 4.91 5.19 9.64 12.3 8.14 19.75-5.32 3.06-11.78 3.73-17.78 2.76-2.66-.64-5.15.63-7.58 1.52.92 4.8 2.4 9.45 3.71 14.15 1.79 6.22-.2 12.7.84 19 .54 3.25.59 6.6 1.44 9.81 1.5 4.04 3.31 8 4.22 12.23.33 1.97.18 4.64-1.95 5.56-5.34 1.93-11.32 1.81-16.33 4.71-3.83 2.28-8.17 3.36-12.48 4.33-3.08-.23-6.25-1.09-8.04-3.83-.85-.05-2.55-.16-3.4-.22 2.37-4.44 7.79-5.37 12.05-7.16 4.58-2.76 6.47-8.19 10.55-11.49 1.84-1.47 3.79-3.44 3.47-6.01-.62-8.16-3.47-15.96-3.95-24.14-.12-3.79-2.72-7.01-2.44-10.85.27-3.96-1.32-7.66-2.04-11.49 1.4-2.36 2.08-5.45 4.75-6.76 3.42-1.81 5.63-5.3 9.3-6.7m5.4 8.21c5.29-1.15 9.18-5.26 13.6-8.11-5.26 1.19-9.98 4.14-13.6 8.11m-10.16-.82c1.02 1.5 2.45 2.58 4.25 2.95.33-.4.98-1.2 1.3-1.6-1.86-.43-3.69-.95-5.55-1.35m-4.9 12.16c1.99-1.65 2.78-3.98 2.75-6.52a97.17 97.17 0 001.81-3.12c-4.47 1.06-3.82 6.1-4.56 9.64m2.67 8.66c.59.52.59.52 0 0m4.51 6.16c1.1 5.45 1.5 11.2 4.19 16.18-.49-7.62-3.38-14.88-3.67-22.56-.43 2.09-.91 4.25-.52 6.38m-3.08-4.25c-.47 6.46.64 12.96 2.64 19.1-.42-4.78-1.31-9.51-1.44-14.31.03-1.69-.49-3.29-1.2-4.79m9.65 39.54c-.41.62-1.24 1.86-1.65 2.48-1.19.84-2.33 1.73-3.41 2.71 2.42-.36 7.11-1.94 5.06-5.19m-14.81 9.71c2.26-2.12 4.09-4.66 5.3-7.52-2.49 1.89-4.55 4.43-5.3 7.52m-15.1 2.53c2.54 1.52 5.27 2.9 8.32 2.88-1.94-2.58-5.22-3.64-8.32-2.88z"/></g><g fill="#333"><path d="M143.17 37.89c.93-5.29 3.62-11.77 9.78-12.31-4.13 3.09-8.25 7.02-8.53 12.54-1.09 5.11 1.38 9.83 3.69 14.18-4.67-3.05-5.56-9.3-4.94-14.41z"/><path d="M145.74 45.05c-.23-6.99 1.45-14.81 7.79-18.79 1.8.62 3.79.87 5.43 1.91 1.84 1.36 2.27 3.77 2.82 5.84.75-.05 1.49-.11 2.24-.18 1.29-2.74 3.85-4.54 6.85-5-3.05 2.98-7.07 5.63-7.85 10.18-1.91 5.88-.09 12.09 3.38 16.99-6.71-4.02-6.27-13.18-3.96-19.63-1.23-.69-2.43-1.43-3.63-2.16-3.29 1.03-5.46 3.69-6.72 6.8.55 2.64 3.36 4.18 3.93 6.89 1.2 5.84-.56 11.87-3.43 16.97-2.84 4.96-1.47 10.85-1.91 16.25 2.07-1.97 3.91-4.42 6.67-5.45 2.35-.85 4.54-2.08 6.61-3.47-.48-5.69-.73-11.37-.36-17.07l1.64.32c.57 6.2-.49 12.54 1.08 18.64.48 2.16-1.72 4.15-.75 6.33 1.25 3.56 1.01 7.34-.19 10.88-1.11.5-2.23 1-3.35 1.49-.38.86-.76 1.72-1.13 2.59 2.25 1.5 5.27 2.75 5.91 5.69.83 4.85 2.27 10.14.09 14.83-1.43 4.08-6.4 6.94-10.57 5.33-1.33 1.58-2.48 3.69-4.58 4.32-5.9 0-11.11 3.14-16.87 4.04-4.46.84-9.16.76-13.48-.7-3.91-1.29-7.99-.12-11.67 1.33-1.16 1.2-2.65 1.9-4.23 2.37-2.49 5.43-8.81 7.77-14.47 7.49-4.81-.41-9.3 1.51-13.67 3.25l.48-1.63c-4.42 1.61-9.08 2.71-13.82 2.29-2.68-.33-5.24.6-7.68 1.6-.22-.5-.67-1.5-.9-2.01-.31 2.35-.78 4.8.04 7.1 1.88 5.93 3.58 12.14 2.78 18.42-.59 4.65.26 9.3.81 13.91.6 6.24 5.66 11.32 5.18 17.77.1 2.41-1.53 4.33-2.99 6.06-5.23 1.1-10.81 1.26-15.52 4.05-3.99 2.25-8.46 3.3-12.76 4.72-5.38.39-9.61-3.3-13.93-5.88.58-1.18 1.17-2.35 1.78-3.51 2.71-1.46 5.18-3.45 8.21-4.24 4.18-1 6.51-4.94 9.14-7.96-5.06.4-9.1 3.3-12.98 6.26-3.63 1.14-7.59 1.03-11.3 2-2.1.62-3.69-1.15-4.87-2.61.23-1.55.5-3.1 1.06-4.56 2.48-3.03 6.83-3.73 9.01-7.09 3.2-4.53 9.09-7.19 10.11-13.11 1.08-7.83-2.97-15.17-3.12-22.93-.11-5.66-.92-11.26-1.1-16.91-.81-4.07-.56-8.66 2.15-12 3.06-1.84 5.99-3.88 8.95-5.86 5.8-3.18 12.24-5.33 18.83-5.93 2.18-.22 4.05-1.48 6.13-2.03 2.98.07 5.91.84 8.91.69 3.12.12 5.9-1.5 8.91-1.98 3.31-.26 6.58.48 9.85.85 2.65-2.07 5.92-2.81 9.13-3.48 3.05-1.69 5.92-3.73 8.47-6.11 2.32-2.25 5.63-2.9 8.61-3.83 2.03-3.74 3.87-7.57 6.19-11.15 3.92-.91 7.74-2.72 11.85-2.45 5.41-.05 10.73-1.29 16.11-1.81.32-3.73-.46-7.47 0-11.19 1.69-5.1 5.28-9.7 4.95-15.33-1.79-.59-3.54-1.25-5.27-1.96-.7-1.41-1.42-2.81-2.14-4.21.4-.63.8-1.26 1.21-1.89.44 3.47 3.19 6.36 6.86 5.64-.64-2.68-1.72-5.24-3.82-7.11-2.75-2.52.19-5.83 1.72-8.12 1.43-3.25 5.5-2.14 8.26-3.09-1.26-2.27-3.19-4.01-5.22-5.59-6.88 3.15-9.35 11.2-8.16 18.23-.44-.07-1.3-.23-1.73-.31m6.59 37.24c-1.79 1.44-4.24.59-6.32.63-8.01-.67-16.16.38-23.72 3.12-.87 2.09-1.71 4.19-2.55 6.28.46 1.61.81 3.24 1.07 4.89 2.79-.6 5.57-1.27 8.4-1.66-.72-1.41-1.46-2.8-2.19-4.2 8 4.96 17.48.41 25.22-2.84 3.61.93 7.04 2.74 10.91 2.49.88-3.97 1.86-8.6-.62-12.2.93-1.62 1.86-3.25 2.62-4.97-4.2 2.95-8.79 5.29-12.82 8.46m-5.42 10.53c-2.36 3.24-3.58 7.26-4.32 11.16 1.76-3.58 3.31-7.26 5.23-10.76.25-.01.75-.02 1-.03.9 3.18-2.48 5.74-3.21 8.76-1.22 4.95-1.18 10.14-2.45 15.1-.48-.44-1.43-1.31-1.9-1.75-2.04.57-4.07 1.15-6.02 1.96-2.4 2.22-5.09 4.11-7.43 6.39-2.76 1.1-5.83 1.07-8.73 1.49 7.59 4.44 17.02 3.3 24.69-.33 3.17-1.88 7.74.47 10.19-2.75 2.7-4.54 2.01-10.08 2.73-15.11a54.77 54.77 0 01-7.68 10.81c1.82-3.96 3.66-7.96 6.26-11.49 3-4.18 4.16-9.36 4.41-14.43-4.27-.55-8.82-1.24-12.77.98m-28.99 4.53c-7.15-1.78-12.02 4.59-17.31 8.12-.01.39-.05 1.17-.07 1.56-1.57.69-3.12 1.42-4.6 2.28-.47-.43-.93-.86-1.39-1.29l1.85-1.25c-1.66.65-3.3 1.36-4.92 2.08 4.77 2.57 10.53 4.15 13.63 8.96-.26-.55-.78-1.65-1.04-2.19 3.11.39 6.27.85 9.09 2.33-2.79.27-5.55-.16-8.27-.66 2.22 3.58 4.1 7.84 2.85 12.12 3.35-1.55 6.95-2.53 10.65-2.69-.1-.63-.29-1.89-.39-2.52 2.86-1.07 5.8-1.97 8.83-2.4.91-.73 1.82-1.47 2.74-2.19-1.13-1.66-1.94-3.5-1.96-5.53-1.72-.7-3.4-1.52-5-2.47 1.79.09 3.58.3 5.36.46l.57 1.91c2.27-.93 3.8-3.45 6.27-3.75a5.69 5.69 0 01-1.84 2.3c.35.7.7 1.39 1.05 2.09.87.25 2.59.76 3.46 1.01 1.29-.29 2.59-.58 3.89-.88.27-3.24 2.52-6.87.17-9.8-.17-1.37-.33-2.75-.5-4.12-4.66-.23-8.87-2.31-13.34-3.37-2.3-.72-4.54.69-6.86.61-1.67-1.3-2.07-3.52-2.91-5.34-.08 1.54-.09 3.08-.01 4.62m13.4-1.53c-.05.19-.13.56-.18.75l2.4.56c2.55 1.39 5.37 2.14 8.02 3.3.81-2.14 1.58-4.29 2.38-6.42-4.13 1-8.34 2.12-12.62 1.81m29.67 1.71c-.85 3.55-3.43 6.75-2.8 10.55.37 4.13.03 8.31-1.32 12.24 2.6-.47 5.74-.72 7.29-3.21 2.71-3.1 1.68-7.43 1.77-11.17.22-3.57-2.25-6.42-4.94-8.41m-86.85 13.54c1.26.68 2.58 1.21 3.9 1.74-1.55 1.08-3.15 2.1-4.7 3.19 2.26.01 4.53-.02 6.79-.01 2.21 1.53 5.14 1.1 7.44 2.46 1.42.8 1.88 2.47 2.6 3.82-.56 1.24-1.1 2.49-1.61 3.75.54-4.59-4.12-7.67-8.33-6.95-.09-.36-.26-1.09-.35-1.45-2.93.15-5.85.04-8.77-.13 1.02-2.02 2.24-3.92 3.46-5.82-4.37-.03-8.73-.38-13.09-.71.43.3 1.3.9 1.73 1.2-.05 2.35-.49 4.82.28 7.09 2.11-.57 4.77-2.35 6.74-.47 6.28 5.4 10.98 14.02 9.08 22.47 4.67-1.9 9.51-3.75 14.65-3.53 6.1.31 10.5-5.42 12.17-10.67-.35-4.35-2.41-8.67-5.57-11.69-7.82-4.54-17.57-7.16-26.42-4.29M31.46 122.4c-3.21 1.19-5.27 4.22-5.28 7.63 2.22 7.76-.23 15.9 1.12 23.78 2.01 7.84 5.07 16.15 2.73 24.25-.9 3.99-5.01 5.61-7.5 8.43-2.14 2.16-3.5 5.32-6.57 6.35-2.35.83-4.2 2.52-5.91 4.27l4.94-.84c-1.7 1.32-3.52 2.47-5.22 3.79 3.81 1.56 7.46-.67 11.26-.9 3.47 0 5.62-3.06 8.45-4.57 3.1-2.04 6.93-2.02 10.49-2.42 1.53-1.93 3.45-3.72 4.08-6.19 1.62-4.29-.23-8.74-1.11-12.98-1.53-5.21-1.42-10.76-3.26-15.89-1.53-4.04-.89-8.49-2.18-12.59-.98-3.17-1.33-6.69.41-9.68 1.2-3.66 5.31-4.6 7.81-7.1 4.28-4.21 10.2-5.99 15.73-7.92-.62-2.22.29-5.73-2.37-6.72-10.04-.77-19.55 3.75-27.62 9.3m98.21-6.42c-.17 1.99 3.13 1.95 4.15.82-.58-.51-1.73-1.54-2.31-2.05l.97-1.21c-1.07.67-4.11.25-2.81 2.44m-77.5 9.1c-3.67 1.4-5.88 4.89-9.3 6.7-2.67 1.31-3.35 4.4-4.75 6.76.72 3.83 2.31 7.53 2.04 11.49-.28 3.84 2.32 7.06 2.44 10.85.48 8.18 3.33 15.98 3.95 24.14.32 2.57-1.63 4.54-3.47 6.01-4.08 3.3-5.97 8.73-10.55 11.49-4.26 1.79-9.68 2.72-12.05 7.16.85.06 2.55.17 3.4.22 1.79 2.74 4.96 3.6 8.04 3.83 4.31-.97 8.65-2.05 12.48-4.33 5.01-2.9 10.99-2.78 16.33-4.71 2.13-.92 2.28-3.59 1.95-5.56-.91-4.23-2.72-8.19-4.22-12.23-.85-3.21-.9-6.56-1.44-9.81-1.04-6.3.95-12.78-.84-19-1.31-4.7-2.79-9.35-3.71-14.15 2.43-.89 4.92-2.16 7.58-1.52 6 .97 12.46.3 17.78-2.76 1.5-7.45-3.23-14.56-8.14-19.75-6.34-.47-11.87 2.9-17.52 5.17z"/><path d="M171.07 29.98c3.19-.76 6.72.87 8.07 3.89 2.65 5.71 1.8 12.65-1.29 18.01-1.54 2.7-4.33 5.18-7.64 4.81-3.37-.6-5.09-3.98-5.82-7.01-1.48-7.05.49-15.44 6.68-19.7m-2.02 3.94c-2.97 3.21-3.8 7.8-3.75 12.04.14 3.37 1.29 7.46 4.77 8.78 3.54.96 6.25-2.39 7.61-5.22 2.99-6.3 2.81-15.42-3.83-19.36-1.6 1.26-3.33 2.34-4.8 3.76zM121.35 103.21c-1.92-1.55-4.32-3.01-3.1-5.83 1.68 2.38 4.57 4.16 5.16 7.16-.4 4.32-3.87 7.4-7.6 9.12.77-2.08 2.22-3.72 3.95-5.06.57-1.78 1.37-3.52 1.59-5.39zM109.74 105.02c1.07-1.75 2.22-3.45 3.53-5.04-.39 1.67-.8 3.33-1.23 4.99-2.35.94-4.73 1.78-7.12 2.6-1.17-.8-2.32-1.62-3.42-2.51 1.87.34 3.7.87 5.51 1.47.91-.5 1.82-1 2.73-1.51zM125.04 101.22c.9.49 1.8.99 2.69 1.51.56.08 1.67.23 2.23.3.44.53 1.32 1.6 1.76 2.13-2.79-.31-5.82-.85-6.68-3.94zM132.18 102.98c1.92.52 3.8 2.24 5.87 1.3l.65.09c1.21 1.02 2.28 2.24 2.81 3.77a54.67 54.67 0 01-3.68-2.91c-.68 1.29-1.26 2.63-2.02 3.87-1.63-.59-.88-2.95-1.4-4.3-.56-.45-1.67-1.37-2.23-1.82zM125.55 107.09c1.99 1.1 3.9 2.35 5.77 3.64-2.79.65-4.71-1.26-5.77-3.64zM107.01 107.79c1.58.08 3.15.17 4.72.26.69 1.22 1.39 2.44 2.05 3.67-2.4-1.05-4.57-2.52-6.77-3.93zM79.44 113.14c4.66.63 10.27 1.06 13.1 5.39-4.47-1.49-9-3.05-13.1-5.39zM107.68 114.19c2.47.04 4.93.35 7.36.81.16.52.48 1.54.64 2.05-2.72-.81-5.41-1.7-8-2.86zM120.53 113.4c2.26.96 4.42 2.19 6.28 3.81-2.93.42-5.11-1.28-6.28-3.81zM117.38 116.34c1.47-.37 3.52 1.87 2.78 3.28-1.62.56-3.51-1.79-2.78-3.28zM42.22 127.31c-3.3 2.56-8.75.04-7.9-4.36 1.64 3.02 4.64 4.11 7.9 4.36zM57.57 133.29c3.62-3.97 8.34-6.92 13.6-8.11-4.42 2.85-8.31 6.96-13.6 8.11zM137.84 133.36c8.26-2.33 17.09-2.66 24.83-6.65-4.08 6.44-12.8 5.7-19.22 8.11.53 5.48 1.28 11.06.33 16.55-2.44-5.02-1.74-10.81-2.12-16.2-2.45.59-4.88 1.2-7.27 1.97.38 5.5.84 11 .68 16.53-.5-.33-1.48-.99-1.97-1.32-.4-4.92-.12-9.87-.39-14.8-10.6 2.6-21.06 5.73-31.67 8.26-5 1.1-9.73 3.86-14.99 3.24l3.64.25c-3.13.91-6.26 1.75-9.37 2.7.24 3.99.54 7.97.72 11.96-.74.61-1.48 1.21-2.21 1.83.06-4.42-.07-8.83-.18-13.24-5.54 1.05-11.33 5.61-16.89 2.34-2.4-1.03-4.59-2.57-6.15-4.69 3.44.57 6.03 3.36 9.42 3.92 4.21-.46 8.09-2.35 12.09-3.63 20.04-6.41 40.45-11.52 60.72-17.13zM29.87 128.85c2.46 1.05 3.26 3.76 2.59 6.23.29-.07.87-.23 1.16-.3-.86 2.1-1.64 4.25-2.68 6.28-.01-2.08.15-4.15.49-6.21l-.92 1.12c-.16-2.38-.63-4.74-.64-7.12zM47.41 132.47c1.86.4 3.69.92 5.55 1.35-.32.4-.97 1.2-1.3 1.6-1.8-.37-3.23-1.45-4.25-2.95zM42.51 144.63c.74-3.54.09-8.58 4.56-9.64a97.17 97.17 0 01-1.81 3.12c.03 2.54-.76 4.87-2.75 6.52z"/><path d="M87.61 150.39c.3-.03.92-.08 1.23-.1 1.7 5.48 1.39 11.32 1.04 16.98-2.87-5.12-1.55-11.29-2.27-16.88zM45.18 153.29c.59.52.59.52 0 0zM49.69 159.45c-.39-2.13.09-4.29.52-6.38.29 7.68 3.18 14.94 3.67 22.56-2.69-4.98-3.09-10.73-4.19-16.18zM46.61 155.2c.71 1.5 1.23 3.1 1.2 4.79.13 4.8 1.02 9.53 1.44 14.31-2-6.14-3.11-12.64-2.64-19.1zM78.97 167.11c.72-.65 1.44-1.31 2.15-1.97-.1 5.03.37 10.08-.11 15.1-2.6-3.81-1.42-8.79-2.04-13.13zM40.01 178.16c.48.28 1.43.84 1.9 1.12.13 1.22.26 2.45.38 3.68-1.73 2.84-3.17 6.14-6.42 7.56 1.84-3.15 3.91-6.2 5.17-9.66-.35-.9-.69-1.8-1.03-2.7zM25.99 191.02c1.46-3.02 3.82-5.54 6.95-6.84-1.99 2.59-4.37 4.85-6.95 6.84zM56.26 194.74c2.05 3.25-2.64 4.83-5.06 5.19 1.08-.98 2.22-1.87 3.41-2.71.41-.62 1.24-1.86 1.65-2.48zM41.45 204.45c.75-3.09 2.81-5.63 5.3-7.52-1.21 2.86-3.04 5.4-5.3 7.52zM26.35 206.98c3.1-.76 6.38.3 8.32 2.88-3.05.02-5.78-1.36-8.32-2.88z"/></g></svg>