<svg width="300" height="296" viewBox="0 0 225 222" xmlns="http://www.w3.org/2000/svg"><g fill="#FFF"><path d="M0 0h225v222H0V0m150.08 68.58c-2.64 1.12-3.83 3.86-5.61 5.89-5.71 1.66-11.76 1.55-17.6 2.53-3.23.6-5.75 2.81-8.33 4.68-2 1.48-4.49 2.01-6.64 3.22-1.8 1.64-3.01 3.82-4.01 6.02 2.38-1.21 3.67-3.68 5.85-5.13 2.28-1.15 4.86-1.61 7.04-2.99 2.37-1.15 4.14-3.34 6.75-4.05 5.98-1.85 12.35-1.56 18.46-2.71 2.42-2.51 3.34-6.77 7.6-6.69 1.34-1.52 2.76-3.01 4.63-3.89-.57 1.91-1.51 3.67-2.48 5.41.5.31 1.49.94 1.98 1.25.2 3.42 1.83 7.13.2 10.39-4.14 1.52-8.13-1.65-12.28-.51-3.12 3.19-7.6 4.2-11.56 5.92-3.76 1.69-8.08 1.11-11.8-.39 1.04 1.36 2.31 2.63 2.84 4.3-3.9.36-7.99-.95-11.71.73-1.98.89-4.14.97-6.27.9.59.91 1.19 1.82 1.78 2.73-3.98 1.52-7.52 3.88-11.09 6.15-3.19.65-6.47 1.33-9.06 3.48-3.25-.38-6.51-1.12-9.8-.87-3.04.43-5.82 2.09-8.94 1.99-3.08.17-6.09-.67-9.16-.71-1.98.61-3.75 1.85-5.85 2.04-9.01.75-17.63 4.41-24.8 9.87-3.79 1.33-5.45 5.28-5.69 9.03.56 7.62 1.31 15.22 1.58 22.86.46 7.4 4.18 14.46 3.07 21.96-1.03 5.87-6.9 8.46-10.05 12.98-2.13 3.42-6.59 4.03-8.99 7.14-.59 1.52-.89 3.14-1.31 4.71 1.62 1.26 3.32 3.2 5.61 2.42 3.55-1.09 7.43-.77 10.89-2 3.8-3 7.86-5.79 12.86-6.22-2.79 3.3-5.44 7.44-10.06 8.26-3.47 1.58-8.29 3.33-8.85 7.63 1.05.67 2.13 1.29 3.24 1.87 2.9 2.44 6.65 3.97 10.46 3.85 4.3-1.46 8.8-2.48 12.79-4.74 4.67-2.75 10.2-2.97 15.4-3.99 1.54-1.7 3.18-3.64 3.08-6.08.45-5.71-3.48-10.4-4.8-15.7-1.13-6.3-1.77-12.71-.98-19.09.59-7.63-4.31-14.48-3.24-22.07.26.21.78.64 1.03.85l1.33.12c4.65-1.6 9.62-.26 14.32-1.5 2.28-.5 4.57-1.5 6.92-.78 3.94-1.37 7.92-2.97 12.18-2.57 5.62.28 12.2-1.99 14.43-7.59 1.62-.3 3.13-.92 4.19-2.23 3.44-1.31 7.21-2.55 10.9-1.58 6.42 1.93 14.31 2.64 19.91-1.75-4.93.6-9.92 1.73-14.88.69-5.96-1.26-12.43-1.08-17.9 1.86 1.05-3.66.29-7.96-2.34-10.79l-.43-.54c-.26-.5-.77-1.49-1.03-1.98-2.43-2.78-5.94-4.33-9.35-5.54-.9-.67-1.79-1.35-2.69-2.03 1.37-.59 2.73-1.18 4.11-1.74l-1.47 1.03c.48.49.98.97 1.48 1.45 1.43-.93 3.01-1.6 4.61-2.21.02-.41.07-1.24.1-1.66 2.94-2.23 5.76-4.72 9.22-6.15-.08-.32-.23-.97-.3-1.3 3.51-.29 6.78-2.69 10.38-1.53a53.704 53.704 0 0016.21 1.81l-2.28-.94c.63-3.46 3.07-5.56 6.36-6.34.49 1.5 1 2.99 1.5 4.48-.4 1.29-.77 2.59-1.12 3.9-1.45-.27-2.89-.55-4.33-.84-.72.46-1.42.93-2.11 1.41 2.25.22 4.5.51 6.75.81-.45 3.72-.41 7.48.04 11.2h-1.86l.44 2.79c1-.5 2.02-.97 2.99-1.53-.89-6.2-.91-12.66 1.14-18.65-1.04-2.39-.89-5.79 1.87-6.95 3.17-1.21 6.71-.22 10.02-.37.03 2.95-.63 5.82-1.71 8.55-3.27.39-5.69 3.14-4.82 6.5.77-1.38 1.47-2.81 2.29-4.16 1.19-.69 2.51.25 3.74.38 1.1-4.22 1.24-9.13 4.49-12.38 2.36-2.66 1.21-6.64.49-9.7 3.39 1.04 7.04 1.41 10.15 3.21 3.29 2.04 6.03 4.85 9.34 6.86 2.41 1.45 5.61.32 7.88 2.11 1.72 1.08 2.84 2.85 3.82 4.59-.9 2.73-2.36 5.23-3.63 7.79-2.9-1.98-5.86-3.9-9.01-5.46-3.54-5.6-10.67-5.54-16.45-4.54l-.28-2.8c-2.05 1.69-3.04 4.17-2.9 6.81.14 4.06-2.6 7.26-3.92 10.88.53 5.22 2.51 11.37-1.33 15.83-3 4.61-9.79 1.4-13.33 5.32 4.55-.32 9.01-1.67 13.12-3.63 3.47-2.03 4.43-6.58 3.9-10.3-.07-3.09-1.23-6.5.4-9.35 1.05-1.98 1.87-4.07 2.65-6.17 1.66.56 4.08.4 4.85 2.34.83 4.6.83 9.34.52 13.99-.98 4.09-4.86 5.95-8.68 6.59-.53 2.11 2.3 1.24 3.47.98 5.44-1.35 8.01-7.43 7.36-12.59-.5-3.99-.41-8.53-3.55-11.51-.15-1.19 2.55-5.78-.23-4.23-.71 1.22-1.34 2.48-1.96 3.75l-1.45-1.05c.13-1.21.27-2.41.41-3.62 4.32-.16 8.63.29 12.81 1.37-1.28.02-2.56.06-3.84.1-.97 2.32-2.72 5.29-.31 7.39 4.37 4.12 9.75 7.16 15.29 9.43 2.27 1.18 5.32.37 5.79-2.38 1.29-2.22-.59-4.27-1.87-5.92 1.35-2.96 2.65-5.95 4.11-8.86 1.55.44 3.13.62 4.73.55 1.64-.96 2.37-2.89 2.5-4.71-1.38-3.34-4.76-5.2-7.64-7.08-4.17-2.36-8.69-4.96-13.66-4.54-.56 1.63-1.18 3.24-1.66 4.9-3.54-2.27-7.65-3.38-11.26-5.52-2-1.3-4.41-.88-6.66-.97-.27-.69-.81-2.08-1.08-2.78 1.38-2.31 1.67-4.95-.28-7.04-2.59 1.96-5.09 4.08-8.09 5.38m-32.59 26.35c.27 1.08.53 2.17.8 3.25.96.39 1.93.78 2.9 1.17.19 2.85-1.23 5.39-2.38 7.89 2.81 1.68 3.35-2.57 4.36-4.37 1.17-3.9-3.36-5.75-5.68-7.94m-7.73 7.11c-.93.49-1.86.98-2.8 1.47-1.77-.62-3.59-1.12-5.46-1.31 1.1.91 2.33 1.65 3.55 2.39 2.33-.85 4.66-1.69 6.96-2.59.45-1.62.88-3.25 1.28-4.88-1.4 1.47-2.53 3.16-3.53 4.92m15.38-3.58c.86 3.16 4.1 3.31 6.83 3.61-.68-.62-1.35-1.24-2.03-1.85-1.62-.53-3.2-1.16-4.8-1.76m7.38 1.3c2.02 1.99 2.23 4.83 3.16 7.35.3-.79.89-2.36 1.19-3.14.46-.42 1.37-1.25 1.82-1.67-.25-.2-.76-.61-1.02-.81-.61.06-1.22.08-1.83.05-1.12-.57-2.22-1.17-3.32-1.78m-6.82 4.37c.87 2.32 2.84 4.54 5.54 3.37-1.82-1.16-3.65-2.31-5.54-3.37m21.03 8.22c3.33-1.68 5.7-4.77 6.54-8.4-2.73 2.32-4.86 5.26-6.54 8.4m-39.57-7.53c2.09 1.45 4.19 2.94 6.61 3.77-.66-1.2-1.36-2.39-2.06-3.57-1.51-.08-3.03-.14-4.55-.2m21.22 6.09l-.38-1.79c-1.75-.24-3.49-.45-5.24-.62 1.47 1.17 3.16 1.99 4.96 2.51-.22 2.08.62 3.94 1.92 5.52-.95.76-1.9 1.51-2.85 2.27-2.41.33-4.77.94-6.99 1.96 1.95 1.14 4.21.93 6.32.49 2.43-.21 3.47-2.72 5.32-3.94 2.54-1.63 5.34-2.76 7.99-4.18-.54 1.35-1.02 2.72-1.46 4.11 1.26-1.21 2-2.8 2.75-4.36-1.9-1.49-4.39-.84-6.6-.97-.41-.87-.81-1.74-1.2-2.6a8.463 8.463 0 002.5-2.69c-2.62.98-4.49 3.18-7.04 4.29m-20.64.36c2.57 1.14 5.24 2 7.94 2.76-.16-.5-.47-1.5-.63-2-2.4-.52-4.85-.83-7.31-.76m12.9-.76c1.07 2.49 3.24 4.08 6.05 3.67-1.72-1.66-3.84-2.81-6.05-3.67m-16.58 2.26c2.23 2.44 5.94 2.83 8.93 1.7-2.9-.91-5.89-1.55-8.93-1.7m37.61-.53c-.8 2.94 4.27 2.41 2-.13-.5.03-1.5.1-2 .13m-22.42 2.78c-1.74 2.85 3.31.44 0 0m36.14 11.56c-9.17 1.91-18.41 3.6-27.39 6.34-17.5 4.69-34.98 9.47-52.34 14.65-3.84 1.11-7.38 3.92-11.56 3.43-2.82-1.12-5.3-2.96-8.2-3.91 1.77 3.39 5.6 4.86 9.01 5.99 4.54.98 7.45-3.2 11.46-4.26.11 12.76.01 25.51.13 38.26 3.34 2.42 6.74 4.75 10.19 7.01 14.85-11 29.92-21.78 45.34-31.96 5.64.85 10.2 5.2 15.81 6.22 3.21-1.18 5.81-3.6 8.72-5.37-.45-2.67.65-6.97-2.62-8.07-4.27-1.81-8.66-3.31-12.95-5.04-.66-6-.58-12.04-.84-18.07 2.64.05 5.25-.38 7.78-1.11 4.27-1.18 8.91-1.69 12.62-4.3 1.16-.64 1.24-2.07 1.7-3.17-2.16 1.36-4.29 2.9-6.86 3.36z"/><path d="M180.42 75.86c6.59.53 12.6 4.34 17.45 8.64l1.45 3.02c-.72-.36-2.17-1.08-2.89-1.44.58 1.01 1.15 2.02 1.72 3.05-1.7-.07-3.4-.05-5.07-.34-2.54-1.7-4.35-4.6-7.56-5.18-2.84-.47-5.24-2.01-6.88-4.35.6-1.13 1.2-2.26 1.78-3.4zM126.53 93.31c1.02-3.01 4.69-2.31 7.11-3.14l-.96 3.31c-2.05-.06-4.1-.1-6.15-.17zM171.43 91.87c5.55.56 10.43 3.64 14.84 6.85 1.91 1.33 3.45 3.18 4.05 5.47-.66-.28-1.97-.85-2.63-1.13.48 1.02.95 2.03 1.41 3.06-7.62-.08-14.21-5.1-19.43-10.23.59-1.34 1.18-2.68 1.76-4.02zM74.18 108.08c8.84-2.87 18.56-.23 26.38 4.28 3.12 3.05 5.26 7.35 5.53 11.7-1.63 5.2-5.97 10.89-12 10.64-5.17-.24-10.02 1.62-14.73 3.48 1.79-8.82-3.19-18.25-10.41-23.19-5.88.3-11.28 3.21-16.68 5.34-4.17 1.49-6.81 5.26-10.63 7.33-4.47 2.51-5.96 8.58-4.3 13.24 1.45 4.3.75 8.99 2.35 13.25 1.8 5.12 1.71 10.65 3.24 15.84.9 4.27 2.76 8.79 1.07 13.11-.61 2.44-2.54 4.16-4.05 6.06-3.32.4-6.87.34-9.85 2.06-2.31 1.24-4.21 3.1-6.46 4.44-3.24.61-6.53.97-9.69 1.97-1.12.61-5.18-.73-2.58-1.91 1.19-.8 2.39-1.57 3.53-2.45l-4.65.76c1.57-1.8 3.38-3.41 5.68-4.17 3.12-.98 4.44-4.21 6.6-6.37 2.5-2.82 6.63-4.43 7.52-8.44 2.45-8.39-1-16.9-2.89-25.03-.33-5.37-.16-10.78 0-16.16.57-3.32-2.05-6.6-.33-9.8.65-3.25 4.18-4.12 6.55-5.8 7.44-5.19 16.49-8.77 25.69-8.16 2.27 1.03 1.8 4.5 3.77 6.03.16-2.71 1.04-5.81-.63-8.24 4.09.55 8.23.74 12.35.81-.27.41-.83 1.23-1.11 1.65-.85 1.33-1.57 2.75-2.27 4.17 3.05.2 6.1.31 9.15-.01-.1.42-.3 1.26-.4 1.67 4.29-1.07 9.27 2.23 8.58 6.94.51-1.25 1.06-2.48 1.65-3.69-.58-1.23-.87-2.72-2-3.58-2.25-1.92-5.61-1.11-7.93-2.87-2.09-.02-4.19 0-6.28.02l.15-.88c1.36-.7 2.68-1.47 3.95-2.34-1.32-.52-2.63-1.03-3.87-1.7m5.32 2.03c3.97 2.45 8.5 3.89 12.92 5.34-2.7-4.35-8.37-4.62-12.92-5.34M33.63 121.2c1.38 3.33 5.47 5.72 8.54 2.92-2.97-.12-6.02-.7-7.19-3.81-.33.22-1.01.66-1.35.89m-3.99 5.7c.46 1.97.79 3.98.75 6.02l1.19-1.01c-.51 1.98-.71 4-.59 6.05 1.03-1.88 1.73-3.91 2.52-5.9-.29-.02-.87-.06-1.16-.09 1.01-2.22-.3-4.19-1.35-6.06-.34.25-1.02.74-1.36.99m10.42 48.27c.31.88.63 1.77.95 2.65-1.18 3.46-3.26 6.47-5.12 9.58 4.11-1.91 6.85-6.65 6.19-11.16-.51-.27-1.52-.8-2.02-1.07m-13.98 12.81c2.54-1.95 4.87-4.17 6.82-6.7-3.14 1.16-5.47 3.67-6.82 6.7zM129.78 113.99c-.74-1.49.35-2.77 1.36-3.72.69 1.65 1.98 2.83 3.4 3.83-1.57.38-3.26.74-4.76-.11z"/><path d="M52.15 122.1c5.66-2.25 11.19-5.7 17.54-5.16 4.92 5.17 9.65 12.31 8.09 19.74-5.3 3.02-11.71 3.72-17.67 2.73-2.7-.68-5.21.61-7.64 1.57 1.14 7.41 4.92 14.36 4.49 21.99-.61 9.16.04 18.71 3.89 27.17 1.05 3.48 3.57 8.09.47 11.18-4.91 2.32-10.71 1.92-15.6 4.41-5.78 3.02-12.44 6.14-19.02 4.07-.94-.98-1.85-1.98-2.76-2.98-.82.01-2.45.04-3.26.05 1.22-3.88 5.86-5.01 9.24-6.34 5.39-1.24 7.82-6.7 11.12-10.53 1.93-2.3 5.37-3.8 5.52-7.18-.37-8.47-3.49-16.53-3.96-25-.1-3.79-2.73-7-2.43-10.82.31-3.96-1.35-7.65-2.05-11.47 1.42-2.38 2.1-5.52 4.82-6.8 3.4-1.78 5.57-5.26 9.21-6.63m5.5 8.06c5.28-.91 9.06-5.17 13.43-7.93-5.19 1.12-9.84 4.07-13.43 7.93m-9.87-.81c.4 2.03 2.24 2.72 4.07 2.99.27-.38.82-1.14 1.09-1.52-1.74-.44-3.45-.97-5.16-1.47m-5.27 12.14c2.08-1.53 2.83-3.84 2.71-6.37.64-1 1.26-2.01 1.86-3.03-4.48.86-3.83 5.95-4.57 9.4m2.72 8.78c.61.5.61.5 0 0m4.56 6.85c1.08 5.18 1.42 10.67 4.06 15.38-.38-7.52-3.41-14.65-3.54-22.23-.66 2.21-1.09 4.57-.52 6.85m-3.27-4.73c-.26 6.34.64 12.73 2.72 18.73-.47-5.04-1.39-10.04-1.46-15.12.1-1.35-.66-2.49-1.26-3.61m7.83 41.89c-1.08.77-2.09 1.63-2.91 2.68 2.14-.62 5.03-1.27 5.63-3.8-.9-2.11-1.87.36-2.72 1.12m-12.78 7.05c2.19-2.05 3.98-4.52 5.15-7.29-2.5 1.75-4.54 4.24-5.15 7.29m-15.08 2.79c2.46 1.42 5.09 2.67 7.98 2.82-1.57-2.76-5.04-3.83-7.98-2.82zM130.99 133.92c2.24-.55 4.49-1.11 6.73-1.72.06 6.25.64 12.47.75 18.71 5.06 2.23 10.37 3.91 15.49 6.03l.75 4.95c-3.01 1.69-6.34 5.65-10.02 3.36-4.47-2.34-9.37-3.63-13.86-5.93-9.35 6.71-18.6 13.57-28.05 20.15-4.17 2.95-8.46 5.74-12.39 9-1.45 1.29-3.27 2.02-5.08 2.66-2.3-1.85-4.87-3.39-6.99-5.46-.2-12.4-.06-24.82-.01-37.23 2.54-.85 5.11-1.61 7.7-2.29.25 11.54.16 23.12-.38 34.65.57.24 1.15.49 1.72.73 7.58-5.95 15.74-11.12 23.61-16.67 4.11-3.04 9.1-5.33 11.61-10.04-2.98-1.5-6.12-2.69-8.91-4.52-.31-1-.56-2.01-.75-3.03 2.27-1.24 4.54-2.49 6.84-3.67 3.51 1.42 7.11 2.68 10.88 3.14.19-4.27.16-8.55.36-12.82z"/><path d="M105.53 140.72c7.75-2.28 15.63-4.13 23.39-6.36.03 3.52.05 7.04.08 10.56-3.93-1.04-8.18-4.75-12.15-2.14-1.92 1.05-3.88 2.07-5.56 3.48-.85 1.74.38 3.74.59 5.55 2.89 1.38 5.79 2.76 8.68 4.16-10.85 7.13-21.34 14.8-32.07 22.13-.02-10.72-.24-21.43-.79-32.12 5.64-2.62 11.89-3.52 17.83-5.26z"/></g><g fill="#333"><path d="M150.08 68.58c3-1.3 5.5-3.42 8.09-5.38 1.95 2.09 1.66 4.73.28 7.04.27.7.81 2.09 1.08 2.78 2.25.09 4.66-.33 6.66.97 3.61 2.14 7.72 3.25 11.26 5.52.48-1.66 1.1-3.27 1.66-4.9 4.97-.42 9.49 2.18 13.66 4.54 2.88 1.88 6.26 3.74 7.64 7.08-.13 1.82-.86 3.75-2.5 4.71-1.6.07-3.18-.11-4.73-.55-1.46 2.91-2.76 5.9-4.11 8.86 1.28 1.65 3.16 3.7 1.87 5.92-.47 2.75-3.52 3.56-5.79 2.38-5.54-2.27-10.92-5.31-15.29-9.43-2.41-2.1-.66-5.07.31-7.39 1.28-.04 2.56-.08 3.84-.1a44.57 44.57 0 00-12.81-1.37c-.14 1.21-.28 2.41-.41 3.62l1.45 1.05c.62-1.27 1.25-2.53 1.96-3.75 2.78-1.55.08 3.04.23 4.23 3.14 2.98 3.05 7.52 3.55 11.51.65 5.16-1.92 11.24-7.36 12.59-1.17.26-4 1.13-3.47-.98 3.82-.64 7.7-2.5 8.68-6.59.31-4.65.31-9.39-.52-13.99-.77-1.94-3.19-1.78-4.85-2.34-.78 2.1-1.6 4.19-2.65 6.17-1.63 2.85-.47 6.26-.4 9.35.53 3.72-.43 8.27-3.9 10.3-4.11 1.96-8.57 3.31-13.12 3.63 3.54-3.92 10.33-.71 13.33-5.32 3.84-4.46 1.86-10.61 1.33-15.83 1.32-3.62 4.06-6.82 3.92-10.88-.14-2.64.85-5.12 2.9-6.81l.28 2.8c5.78-1 12.91-1.06 16.45 4.54 3.15 1.56 6.11 3.48 9.01 5.46 1.27-2.56 2.73-5.06 3.63-7.79-.98-1.74-2.1-3.51-3.82-4.59-2.27-1.79-5.47-.66-7.88-2.11-3.31-2.01-6.05-4.82-9.34-6.86-3.11-1.8-6.76-2.17-10.15-3.21.72 3.06 1.87 7.04-.49 9.7-3.25 3.25-3.39 8.16-4.49 12.38-1.23-.13-2.55-1.07-3.74-.38-.82 1.35-1.52 2.78-2.29 4.16-.87-3.36 1.55-6.11 4.82-6.5 1.08-2.73 1.74-5.6 1.71-8.55-3.31.15-6.85-.84-10.02.37-2.76 1.16-2.91 4.56-1.87 6.95-2.05 5.99-2.03 12.45-1.14 18.65-.97.56-1.99 1.03-2.99 1.53l-.44-2.79h1.86c-.45-3.72-.49-7.48-.04-11.2-2.25-.3-4.5-.59-6.75-.81.69-.48 1.39-.95 2.11-1.41 1.44.29 2.88.57 4.33.84.35-1.31.72-2.61 1.12-3.9-.5-1.49-1.01-2.98-1.5-4.48-3.29.78-5.73 2.88-6.36 6.34l2.28.94c-5.48.22-10.92-.38-16.21-1.81-3.6-1.16-6.87 1.24-10.38 1.53.07.33.22.98.3 1.3-3.46 1.43-6.28 3.92-9.22 6.15-.03.42-.08 1.25-.1 1.66-1.6.61-3.18 1.28-4.61 2.21-.5-.48-1-.96-1.48-1.45l1.47-1.03c-1.38.56-2.74 1.15-4.11 1.74.9.68 1.79 1.36 2.69 2.03 3.41 1.21 6.92 2.76 9.35 5.54.26.49.77 1.48 1.03 1.98l.43.54c2.63 2.83 3.39 7.13 2.34 10.79 5.47-2.94 11.94-3.12 17.9-1.86 4.96 1.04 9.95-.09 14.88-.69-5.6 4.39-13.49 3.68-19.91 1.75-3.69-.97-7.46.27-10.9 1.58-1.06 1.31-2.57 1.93-4.19 2.23-2.23 5.6-8.81 7.87-14.43 7.59-4.26-.4-8.24 1.2-12.18 2.57-2.35-.72-4.64.28-6.92.78-4.7 1.24-9.67-.1-14.32 1.5l-1.33-.12c-.25-.21-.77-.64-1.03-.85-1.07 7.59 3.83 14.44 3.24 22.07-.79 6.38-.15 12.79.98 19.09 1.32 5.3 5.25 9.99 4.8 15.7.1 2.44-1.54 4.38-3.08 6.08-5.2 1.02-10.73 1.24-15.4 3.99-3.99 2.26-8.49 3.28-12.79 4.74-3.81.12-7.56-1.41-10.46-3.85-1.11-.58-2.19-1.2-3.24-1.87.56-4.3 5.38-6.05 8.85-7.63 4.62-.82 7.27-4.96 10.06-8.26-5 .43-9.06 3.22-12.86 6.22-3.46 1.23-7.34.91-10.89 2-2.29.78-3.99-1.16-5.61-2.42.42-1.57.72-3.19 1.31-4.71 2.4-3.11 6.86-3.72 8.99-7.14 3.15-4.52 9.02-7.11 10.05-12.98 1.11-7.5-2.61-14.56-3.07-21.96-.27-7.64-1.02-15.24-1.58-22.86.24-3.75 1.9-7.7 5.69-9.03 7.17-5.46 15.79-9.12 24.8-9.87 2.1-.19 3.87-1.43 5.85-2.04 3.07.04 6.08.88 9.16.71 3.12.1 5.9-1.56 8.94-1.99 3.29-.25 6.55.49 9.8.87 2.59-2.15 5.87-2.83 9.06-3.48 3.57-2.27 7.11-4.63 11.09-6.15-.59-.91-1.19-1.82-1.78-2.73 2.13.07 4.29-.01 6.27-.9 3.72-1.68 7.81-.37 11.71-.73-.53-1.67-1.8-2.94-2.84-4.3 3.72 1.5 8.04 2.08 11.8.39 3.96-1.72 8.44-2.73 11.56-5.92 4.15-1.14 8.14 2.03 12.28.51 1.63-3.26 0-6.97-.2-10.39-.49-.31-1.48-.94-1.98-1.25.97-1.74 1.91-3.5 2.48-5.41-1.87.88-3.29 2.37-4.63 3.89-4.26-.08-5.18 4.18-7.6 6.69-6.11 1.15-12.48.86-18.46 2.71-2.61.71-4.38 2.9-6.75 4.05-2.18 1.38-4.76 1.84-7.04 2.99-2.18 1.45-3.47 3.92-5.85 5.13 1-2.2 2.21-4.38 4.01-6.02 2.15-1.21 4.64-1.74 6.64-3.22 2.58-1.87 5.1-4.08 8.33-4.68 5.84-.98 11.89-.87 17.6-2.53 1.78-2.03 2.97-4.77 5.61-5.89m30.34 7.28a219.6 219.6 0 01-1.78 3.4c1.64 2.34 4.04 3.88 6.88 4.35 3.21.58 5.02 3.48 7.56 5.18 1.67.29 3.37.27 5.07.34-.57-1.03-1.14-2.04-1.72-3.05.72.36 2.17 1.08 2.89 1.44l-1.45-3.02c-4.85-4.3-10.86-8.11-17.45-8.64m-53.89 17.45c2.05.07 4.1.11 6.15.17l.96-3.31c-2.42.83-6.09.13-7.11 3.14m44.9-1.44c-.58 1.34-1.17 2.68-1.76 4.02 5.22 5.13 11.81 10.15 19.43 10.23-.46-1.03-.93-2.04-1.41-3.06.66.28 1.97.85 2.63 1.13-.6-2.29-2.14-4.14-4.05-5.47-4.41-3.21-9.29-6.29-14.84-6.85m-97.25 16.21c1.24.67 2.55 1.18 3.87 1.7-1.27.87-2.59 1.64-3.95 2.34l-.15.88c2.09-.02 4.19-.04 6.28-.02 2.32 1.76 5.68.95 7.93 2.87 1.13.86 1.42 2.35 2 3.58-.59 1.21-1.14 2.44-1.65 3.69.69-4.71-4.29-8.01-8.58-6.94.1-.41.3-1.25.4-1.67-3.05.32-6.1.21-9.15.01.7-1.42 1.42-2.84 2.27-4.17.28-.42.84-1.24 1.11-1.65-4.12-.07-8.26-.26-12.35-.81 1.67 2.43.79 5.53.63 8.24-1.97-1.53-1.5-5-3.77-6.03-9.2-.61-18.25 2.97-25.69 8.16-2.37 1.68-5.9 2.55-6.55 5.8-1.72 3.2.9 6.48.33 9.8-.16 5.38-.33 10.79 0 16.16 1.89 8.13 5.34 16.64 2.89 25.03-.89 4.01-5.02 5.62-7.52 8.44-2.16 2.16-3.48 5.39-6.6 6.37-2.3.76-4.11 2.37-5.68 4.17l4.65-.76c-1.14.88-2.34 1.65-3.53 2.45-2.6 1.18 1.46 2.52 2.58 1.91 3.16-1 6.45-1.36 9.69-1.97 2.25-1.34 4.15-3.2 6.46-4.44 2.98-1.72 6.53-1.66 9.85-2.06 1.51-1.9 3.44-3.62 4.05-6.06 1.69-4.32-.17-8.84-1.07-13.11-1.53-5.19-1.44-10.72-3.24-15.84-1.6-4.26-.9-8.95-2.35-13.25-1.66-4.66-.17-10.73 4.3-13.24 3.82-2.07 6.46-5.84 10.63-7.33 5.4-2.13 10.8-5.04 16.68-5.34 7.22 4.94 12.2 14.37 10.41 23.19 4.71-1.86 9.56-3.72 14.73-3.48 6.03.25 10.37-5.44 12-10.64-.27-4.35-2.41-8.65-5.53-11.7-7.82-4.51-17.54-7.15-26.38-4.28M52.15 122.1c-3.64 1.37-5.81 4.85-9.21 6.63-2.72 1.28-3.4 4.42-4.82 6.8.7 3.82 2.36 7.51 2.05 11.47-.3 3.82 2.33 7.03 2.43 10.82.47 8.47 3.59 16.53 3.96 25-.15 3.38-3.59 4.88-5.52 7.18-3.3 3.83-5.73 9.29-11.12 10.53-3.38 1.33-8.02 2.46-9.24 6.34.81-.01 2.44-.04 3.26-.05.91 1 1.82 2 2.76 2.98 6.58 2.07 13.24-1.05 19.02-4.07 4.89-2.49 10.69-2.09 15.6-4.41 3.1-3.09.58-7.7-.47-11.18-3.85-8.46-4.5-18.01-3.89-27.17.43-7.63-3.35-14.58-4.49-21.99 2.43-.96 4.94-2.25 7.64-1.57 5.96.99 12.37.29 17.67-2.73 1.56-7.43-3.17-14.57-8.09-19.74-6.35-.54-11.88 2.91-17.54 5.16z"/><path d="M117.49 94.93c2.32 2.19 6.85 4.04 5.68 7.94-1.01 1.8-1.55 6.05-4.36 4.37 1.15-2.5 2.57-5.04 2.38-7.89-.97-.39-1.94-.78-2.9-1.17-.27-1.08-.53-2.17-.8-3.25zM109.76 102.04c1-1.76 2.13-3.45 3.53-4.92-.4 1.63-.83 3.26-1.28 4.88-2.3.9-4.63 1.74-6.96 2.59-1.22-.74-2.45-1.48-3.55-2.39 1.87.19 3.69.69 5.46 1.31.94-.49 1.87-.98 2.8-1.47zM125.14 98.46c1.6.6 3.18 1.23 4.8 1.76.68.61 1.35 1.23 2.03 1.85-2.73-.3-5.97-.45-6.83-3.61zM132.52 99.76c1.1.61 2.2 1.21 3.32 1.78.61.03 1.22.01 1.83-.05.26.2.77.61 1.02.81-.45.42-1.36 1.25-1.82 1.67-.3.78-.89 2.35-1.19 3.14-.93-2.52-1.14-5.36-3.16-7.35zM125.7 104.13c1.89 1.06 3.72 2.21 5.54 3.37-2.7 1.17-4.67-1.05-5.54-3.37zM146.73 112.35c1.68-3.14 3.81-6.08 6.54-8.4-.84 3.63-3.21 6.72-6.54 8.4zM107.16 104.82c1.52.06 3.04.12 4.55.2.7 1.18 1.4 2.37 2.06 3.57-2.42-.83-4.52-2.32-6.61-3.77z"/><path d="M128.38 110.91c2.55-1.11 4.42-3.31 7.04-4.29a8.463 8.463 0 01-2.5 2.69c.39.86.79 1.73 1.2 2.6 2.21.13 4.7-.52 6.6.97-.75 1.56-1.49 3.15-2.75 4.36.44-1.39.92-2.76 1.46-4.11-2.65 1.42-5.45 2.55-7.99 4.18-1.85 1.22-2.89 3.73-5.32 3.94-2.11.44-4.37.65-6.32-.49 2.22-1.02 4.58-1.63 6.99-1.96.95-.76 1.9-1.51 2.85-2.27-1.3-1.58-2.14-3.44-1.92-5.52-1.8-.52-3.49-1.34-4.96-2.51 1.75.17 3.49.38 5.24.62l.38 1.79m1.4 3.08c1.5.85 3.19.49 4.76.11-1.42-1-2.71-2.18-3.4-3.83-1.01.95-2.1 2.23-1.36 3.72zM79.5 110.11c4.55.72 10.22.99 12.92 5.34-4.42-1.45-8.95-2.89-12.92-5.34zM107.74 111.27c2.46-.07 4.91.24 7.31.76.16.5.47 1.5.63 2-2.7-.76-5.37-1.62-7.94-2.76z"/><path d="M120.64 110.51c2.21.86 4.33 2.01 6.05 3.67-2.81.41-4.98-1.18-6.05-3.67zM104.06 112.77c3.04.15 6.03.79 8.93 1.7-2.99 1.13-6.7.74-8.93-1.7zM141.67 112.24c.5-.03 1.5-.1 2-.13 2.27 2.54-2.8 3.07-2 .13zM119.25 115.02c3.31.44-1.74 2.85 0 0zM33.63 121.2c.34-.23 1.02-.67 1.35-.89 1.17 3.11 4.22 3.69 7.19 3.81-3.07 2.8-7.16.41-8.54-2.92zM57.65 130.16c3.59-3.86 8.24-6.81 13.43-7.93-4.37 2.76-8.15 7.02-13.43 7.93zM155.39 126.58c2.57-.46 4.7-2 6.86-3.36-.46 1.1-.54 2.53-1.7 3.17-3.71 2.61-8.35 3.12-12.62 4.3-2.53.73-5.14 1.16-7.78 1.11.26 6.03.18 12.07.84 18.07 4.29 1.73 8.68 3.23 12.95 5.04 3.27 1.1 2.17 5.4 2.62 8.07-2.91 1.77-5.51 4.19-8.72 5.37-5.61-1.02-10.17-5.37-15.81-6.22-15.42 10.18-30.49 20.96-45.34 31.96-3.45-2.26-6.85-4.59-10.19-7.01-.12-12.75-.02-25.5-.13-38.26-4.01 1.06-6.92 5.24-11.46 4.26-3.41-1.13-7.24-2.6-9.01-5.99 2.9.95 5.38 2.79 8.2 3.91 4.18.49 7.72-2.32 11.56-3.43 17.36-5.18 34.84-9.96 52.34-14.65 8.98-2.74 18.22-4.43 27.39-6.34m-24.4 7.34c-.2 4.27-.17 8.55-.36 12.82-3.77-.46-7.37-1.72-10.88-3.14-2.3 1.18-4.57 2.43-6.84 3.67.19 1.02.44 2.03.75 3.03 2.79 1.83 5.93 3.02 8.91 4.52-2.51 4.71-7.5 7-11.61 10.04-7.87 5.55-16.03 10.72-23.61 16.67-.57-.24-1.15-.49-1.72-.73.54-11.53.63-23.11.38-34.65-2.59.68-5.16 1.44-7.7 2.29-.05 12.41-.19 24.83.01 37.23 2.12 2.07 4.69 3.61 6.99 5.46 1.81-.64 3.63-1.37 5.08-2.66 3.93-3.26 8.22-6.05 12.39-9 9.45-6.58 18.7-13.44 28.05-20.15 4.49 2.3 9.39 3.59 13.86 5.93 3.68 2.29 7.01-1.67 10.02-3.36l-.75-4.95c-5.12-2.12-10.43-3.8-15.49-6.03-.11-6.24-.69-12.46-.75-18.71-2.24.61-4.49 1.17-6.73 1.72m-25.46 6.8c-5.94 1.74-12.19 2.64-17.83 5.26.55 10.69.77 21.4.79 32.12 10.73-7.33 21.22-15 32.07-22.13-2.89-1.4-5.79-2.78-8.68-4.16-.21-1.81-1.44-3.81-.59-5.55 1.68-1.41 3.64-2.43 5.56-3.48 3.97-2.61 8.22 1.1 12.15 2.14-.03-3.52-.05-7.04-.08-10.56-7.76 2.23-15.64 4.08-23.39 6.36zM29.64 126.9c.34-.25 1.02-.74 1.36-.99 1.05 1.87 2.36 3.84 1.35 6.06.29.03.87.07 1.16.09-.79 1.99-1.49 4.02-2.52 5.9-.12-2.05.08-4.07.59-6.05l-1.19 1.01c.04-2.04-.29-4.05-.75-6.02zM47.78 129.35c1.71.5 3.42 1.03 5.16 1.47-.27.38-.82 1.14-1.09 1.52-1.83-.27-3.67-.96-4.07-2.99zM42.51 141.49c.74-3.45.09-8.54 4.57-9.4-.6 1.02-1.22 2.03-1.86 3.03.12 2.53-.63 4.84-2.71 6.37zM45.23 150.27c.61.5.61.5 0 0zM49.79 157.12c-.57-2.28-.14-4.64.52-6.85.13 7.58 3.16 14.71 3.54 22.23-2.64-4.71-2.98-10.2-4.06-15.38zM46.52 152.39c.6 1.12 1.36 2.26 1.26 3.61.07 5.08.99 10.08 1.46 15.12-2.08-6-2.98-12.39-2.72-18.73zM40.06 175.17c.5.27 1.51.8 2.02 1.07.66 4.51-2.08 9.25-6.19 11.16 1.86-3.11 3.94-6.12 5.12-9.58-.32-.88-.64-1.77-.95-2.65zM26.08 187.98c1.35-3.03 3.68-5.54 6.82-6.7-1.95 2.53-4.28 4.75-6.82 6.7zM54.35 194.28c.85-.76 1.82-3.23 2.72-1.12-.6 2.53-3.49 3.18-5.63 3.8.82-1.05 1.83-1.91 2.91-2.68zM41.57 201.33c.61-3.05 2.65-5.54 5.15-7.29-1.17 2.77-2.96 5.24-5.15 7.29zM26.49 204.12c2.94-1.01 6.41.06 7.98 2.82-2.89-.15-5.52-1.4-7.98-2.82z"/></g></svg>