<svg width="364" height="280pt" viewBox="0 0 273 280" xmlns="http://www.w3.org/2000/svg"><g fill="#FFF"><path d="M0 0h273v280H0V0m197.78 63.4c-3.92-1.09-8.68-.18-11.32 3.1-3.81 4.46-5.23 10.36-6.66 15.91.43-.21 1.28-.63 1.71-.84 1.09-4.76 2.36-9.67 5.43-13.58 1.72-2.21 4.39-3.23 6.73-4.6 2.69 1.89 5.81 3.37 7.77 6.11 2.37 3.42 3.71 7.46 4.46 11.53 1.48 8.66.92 17.99-3.01 25.96-1.9 3.67-5.41 7.6-9.97 6.98-4.27-.38-6.95-4.38-8.73-7.88.1 4.91 3.74 9.7 8.81 10.12 4.62.51 8.43-3.04 10.51-6.81 4.51-8.5 5.54-18.58 3.86-27.98-.97-5.98-2.68-12.8-7.96-16.45.39-1.52 1.71-2.16 3.17-2.33l-.53.84c8.03 3.41 10.65 12.66 11.4 20.59.63 8.51-.32 17.83-5.48 24.92-2.03 3.06-6.08 3.47-8.38 6.22 4.53.59 8.37-2.62 10.6-6.23 3.54-6.23 4.96-13.49 4.88-20.61 3.36-.31 6.63-1.22 9.99-1.44 1.41-2.36 1.16-5.12-.78-7.1-3.11 1.07-6.37 1.66-9.49 2.71-.94-6.19-2.37-12.86-6.86-17.52-2.31-2.75-5.84-3.48-9.27-3.16-.22.39-.66 1.16-.88 1.54M183.7 87.97c-8.39.53-16.52 2.69-24.73 4.26-2.76.64-3.96-3.66-6.84-2.58-4.15 1.1-9 .69-12.43 3.66.35 1.37.88 2.7 2.09 3.53-7.29 1.13-14.41 3.16-21.74 4.04l-3.39-3.45c-4.29-.03-8.87.16-12.6 2.55-.7 1.35-.91 3.15-2.23 4.07-3.33 1.42-6.93 2-10.44 2.78-.99.45-1.93-.13-2.83-.45.57-1.81.74-3.69.84-5.56 1.93-3.32 4.36-7.26 8.63-7.56 4.79.08 9 3.1 13.85 2.75-4.42-1.89-8.99-3.91-13.86-4.13-3.31-.25-5.73 2.35-8.1 4.23-.14 1.06-.28 2.12-.41 3.19l-1.52.16c-.45 2.27-.53 4.6-.78 6.9l1.31.11c-.23.45-.67 1.34-.9 1.79-4.07.76-8.47.89-12.14 2.98-1.81.93-6.12-.06-5.78 2.83 2.44.39 4.75-.77 6.91-1.74 3.97-1.12 8.18-1.39 12.02-2.98 5.75-1.49 11.66-2.31 17.37-3.96 0 .88 0 2.63-.01 3.51-11.99 2.2-23.77 5.33-35.55 8.44-.42.52-1.26 1.56-1.67 2.07-.3-5.42-.8-11.03-3.32-15.94-2.03-4.86-5.02-10.03-10.56-11.31-1.42.5-2.85.97-4.27 1.47 6.91-.67 11.59 6.04 14.04 11.67 3.47 9.76 3.48 20.79.21 30.61-2.09 5.13-5.57 10.65-11.49 11.66-.01-2.61 2.64-4.27 3.54-6.6 3.62-7.71 4.6-16.57 3.3-24.95-.03-8.42-3.89-16.69-10.58-21.83-3.21-1.44-7.26-.4-10.06 1.52-6.84 5.95-8.66 15.47-9.2 24.1-.42 1.35-2.05 1.18-3.13 1.43-1.34 2.08-1.45 5.34.77 6.79 5.71-1.54 11.63-2.17 17.37-3.57 2.41-1.97 1.33-5.31-.93-6.87-4.13 1.51-8.53 2.03-12.79 3.06.35-10.06 3.17-22.31 13.55-26.47 8.68 3.53 12.93 12.93 13.73 21.76.76 9.37.23 19.71-5.7 27.47-1.78 2.22-4.07 4.77-7.17 4.65-5.18.52-8.44-4.55-10.77-8.42-2.25-3.43-1.4-8.32-4.42-11.22.61 7.57 3.36 15.44 9.4 20.37 3.3 2.61 7.81 1.79 11.28.01l-1.04-1.18c1.26.35 2.49.81 3.32 1.88 3.6-.09 6.55-2.4 8.42-5.31 5.39-6.91 6.45-16.01 6.66-24.49 2.01-.43 4.05-.74 5.98-1.47 4.55-2.02 9.67-2.03 14.26-3.95.6.79 1.21 1.58 1.81 2.38-1.68 1.74-3.14 3.67-4.78 5.45-.95 5.71 1.67 11.04 3.27 16.36 1.56 5.2 5.33 9.28 9.45 12.64 4.04 3.15 9.45 3.06 14.09 4.85 2.18.9 3.69-1.42 5.19-2.57.09-2.11.06-4.29.9-6.27 1.99-4.86 2.71-10.33 1.33-15.46.38-.4 1.15-1.2 1.53-1.6-.99-3.11-.87-6.35-1.05-9.56-.54 1.62-1.04 3.26-1.5 4.91.05-4.54-.95-8.96-1.88-13.37 2.69.17 6.36.74 7.26-2.6-1.74.72-3.46 1.5-5.14 2.33-.82-1.45-.98-2.98.52-4.09 3.64-.31 7.31-.35 10.92-.91 2.31-.53 4.12 1.28 5.84 2.48 1.72.18 3.4.6 5.06 1.1 1.38 2.69 2.03 5.63 2 8.65-.4-.21-1.2-.64-1.59-.86.03 1.53.07 3.07.11 4.61-2.26-.3-4.66-.15-6.03 1.94 1.95-.39 3.93-.73 5.93-.82 1.92 3.33 3.76 6.94 7.06 9.12.03-3.87-2.7-6.83-5.36-9.28-.03-1-.1-2.98-.13-3.98 1.42 5.63 6.5 9.11 8.83 14.26-3.99.36-7.86 1.42-11.4 3.33-2.11 1.23-5.2.91-6.6 3.14-1.3-1.19-1.23-2.51.02-3.77-1.29.4-2.58.81-3.87 1.22-3.21-.63-5.94-2.51-9.09-3.28.99 1.09 2.24 1.87 3.58 2.49 2.51 1.45 5.29 2.46 8.26 2.1-.25.64-.75 1.94-1 2.59-3.96 2.94-7.55 6.65-8.56 11.67-1.31-2.15-3.04-4.01-5.39-5.01.88 3.95 3.86 7.4 7.92 8.19-.24 1.32-.69 2.56-1.36 3.72l.36-3.22c-.68-.23-2.04-.68-2.71-.9.26.89.78 2.67 1.04 3.57-2.13-1.6-4.27-3.56-7.19-2.97 1.78 1.66 3.65 3.23 5.57 4.74-3.87 1.1-7.58 2.68-11.36 4.02.07-2.96.16-5.92.22-8.88-.39.14-1.16.4-1.55.53-.36 3.43-.29 6.9-.2 10.34 5-1.06 9.66-3.2 14.51-4.77.65.64 1.3 1.29 1.95 1.93 0 1.36.01 2.73.03 4.09-13.31 5.17-26.79 9.91-40.03 15.23-.42-.41-1.26-1.23-1.69-1.64.06-1.7.11-3.39.17-5.08 6.26-2.36 12.42-5 18.71-7.3 0-3.36.08-6.72.09-10.08-.11-1.23.26-2.82-1.14-3.52-.28 4.18-.2 8.37-.23 12.55-6.31 2.34-12.59 4.74-18.83 7.27-.1 2.46-.13 4.93-.12 7.41 1.01.71 2.02 1.44 3.03 2.16 13.34-5.43 26.97-10.09 40.39-15.33.94 3.09 1.87 6.23 1.62 9.51-.47 1.76.99 2.84 1.97 4.02l2.71.04c2.39 4.56 4.8 9.65 3.46 14.91.21 8.04-4.38 15.08-5.18 22.96.5 6.8 3.25 13.2 3.98 19.96.62 5.06-2.21 10.17.49 14.94-.72 2.76.6 5.23 1.79 7.62 1.4 2.51.14 5.95 2.38 8.06 4.29 4.13 11.86 5.38 16.72 1.61 1.59-.33 3.87-.2 4.31-2.2.76-4.47-3.31-7.61-5.81-10.71-1.93-3.14-3.8-6.32-5.79-9.41-2.39-5.02-2.1-10.72-1.87-16.12 3.93-1.18 7.78-2.58 11.54-4.22 8.38-3.28 16.96-6.02 25.27-9.46.42-2.27.87-4.53 1.23-6.79-2.18-.86-4.26-2.11-6.58-2.55-6.36 1.7-12.52 4.1-18.81 6.05.21-9.49.28-18.98.39-28.48 8.23-1.93 16.42-4.09 24.4-6.89 2.94-.8 3.81-4.77 1.87-6.96 2.36.52 3.73 3.15 6.08 3.93 1.66.73 4.68 1.03 4.16 3.57-1.19 4.95-1.34 10.02-1.69 15.07 1.54 5.01 5.18 9.21 5.68 14.55 1.73 8.24-3.71 15.9-2.12 24.18 2.77 2 6.2 2.82 9.56 1.93 4.05-1.12 7.66 1.31 10.94 3.32 2.37-.32 4.72.14 7.08.34 2.58-.52 4.93-1.86 7.21-3.14 1.08-.99 2.44-2.77.88-4.02-1.53-2.51-4.26-3.61-7.12-3.43-2.91-2.06-5.78-4.24-7.87-7.16-1.64-2.39-5.13-3.32-5.63-6.41-1.91-7.59-1-15.5-1.73-23.21-1.52-6.88-1.15-14.05.25-20.89-.59-4.48-2.17-9.39-5.96-12.21-2.08-1.37-4.72-1.65-6.63-3.31-1.87-1.54-3.67-3.16-5.59-4.63-1.36.06-2.71.13-4.06.21 3.14 1.33 5.86 3.36 8.39 5.62 2.58 2.33 6.51 2.52 8.75 5.32 1.5 2.16 1.86 4.91 3.47 7.03.5 3.41-1.34 6.58-1.13 9.97.18 3.37-.94 6.74-.13 10.1 1.19 5.18 1.28 10.53.93 15.82-.26 4.03 1.07 7.9 1.56 11.85 2.74 2.77 5.8 5.25 8.01 8.49 2.44 3.64 6.59 5.88 10.96 6.04.84 1.02 1.67 2.06 2.49 3.11-2.18.86-4.13 2.18-6.23 3.22-2.36-.35-4.67-1.24-7.09-.8-1.96-.93-3.85-2.04-5.91-2.74-3.61-.72-7.27.58-10.88 0-1.62.1-3.11-1.39-2.68-3.04.21-3.13.25-6.31 1.01-9.36 1.85-3.99.85-8.55.99-12.8.24-5.1-4.23-8.79-4.28-13.82-1.25-5.41-.59-10.93-.72-16.42 1.47-.07 2.65-.65 3.53-1.74-2.28-.77-4.67-1.25-6.84-2.3-2.46-1.41-4.38-3.69-7.1-4.65-3.48-1.63-7.39-1.14-11.1-1.18-2.89-.33-5.59-1.57-8.12-2.94 2.02-4.79.49-10.84 4.38-14.77 1.38-2.11 3.58-3.35 5.87-4.25.01-1.39.02-2.77.05-4.15-2.96-.63-5.96-1.18-8.99-1.11l-.12-2.37c-2.87-3.48-6.36-7.12-11.36-6.38.95-1.82 2.02-3.66 2.21-5.75.91-8.74-4.39-16.39-5.58-24.86 1.54-2.21 2.84-4.57 4.08-6.96 8.2-1.4 16.31-3.49 24.64-4.11 4.57-.17 8.76-2.25 13.22-3.06.06-2.39.36-5.12-1.77-6.76-3.43 1.29-6.98 2.5-10.68 2.61m-57.15 22.34c2.37-.26 5.65.88 7.44-.98-2.52-.44-5.18-.29-7.44.98m8.64-.14c.86 3.24 5.68 3.65 8.15 5.44l-.86-2.17c-2.29-1.19-4.63-3.57-7.29-3.27m-6.52 2.75c-2.05 2.3-4.25 4.44-6.27 6.75 2.38-1.64 7.53-3.05 6.27-6.75m2.48.15c1.63 2.25 4.88 2.76 7.27 1.46-2.39-.65-4.81-1.2-7.27-1.46m2.24 4.43c.34 2.37.58 4.74.63 7.14-1.92.39-4.25.09-5.72 1.63-1.71 1.71-2.83 3.88-4.05 5.94 2.56-.56 3.58-3.13 4.97-5.07 2-.24 3.99-.55 5.97-.95.7-2.65.27-5.35-.3-7.98-.37-.17-1.13-.53-1.5-.71m2.36 9.29c.84 1.87 1.98 3.59 3.5 4.98-.27-2.09-.8-4.95-3.5-4.98m62.41 38.03c1 2.49 2.03 4.96 2.84 7.51-1.14 1.23-1.98 3.22-3.97 3.09-3.16-.9-5.35-3.53-8.05-5.25 1.54 3.49 4.89 6.45 8.88 6.32 2.14.1 3.32-2.03 4.81-3.21-.65-3.13-1.33-6.92-4.51-8.46m7.99 67.78c-.66-2.93-1.14-5.89-1.5-8.86-1.64 3.03-1.08 6.56 1.5 8.86z"/><path d="M215 83.48c3.02-.23 5.98-.89 8.93-1.55.02.78.05 2.35.07 3.13-3.02.83-6.28.98-9 2.66v-4.24zM182.27 89.75c4.16.8 7.99-1.71 12.06-2.17l-.32 3.25c-7.81 2.54-16.17 2.44-24.14 4.26-3.95.89-7.93 1.65-11.87 2.59v-3.35c8.07-1.67 16.12-3.37 24.27-4.58zM143.92 93.07c3.02-.31 5.98-1.03 8.93-1.73 1.36 1.8 3.37 3.3 3.98 5.55-.27 2.98-2.11 5.54-3.78 7.93-2.02-.28-4.31.05-5.28 2.1 1.63-.04 3.07-.75 4.44-1.57 1.31 6.36 3.5 12.49 5.42 18.68.63 4.13.22 8.34-.32 12.46-.63-.39-1.89-1.16-2.52-1.55-.02-6.04-6.42-8.98-8.52-14.11-.54-2.99-.82-6.02-1.5-8.98 1.93-2.98-.87-6.05-2.51-8.39 1.45-1.06 2.87-2.16 4.27-3.28-.38-.98-.75-1.96-1.12-2.93-1.45-.75-2.89-1.49-4.21-2.43-.13-1.52 1.66-1.56 2.72-1.75m3.99 22.15c.93 2.52 3.25 4.07 5.11 5.87-2.19-3.18-3.86-6.68-5.14-10.32-.04 1.48-.22 2.98.03 4.45z"/><path d="M132.15 100.57c4.36-.94 8.83-1.58 12.91-3.48-.97 1.42-1.1 4.03-3.15 4.41-7.16 1.93-14.68 2.47-21.63 5.13.09-1.05.26-3.15.35-4.2 3.91-.05 7.7-1.14 11.52-1.86zM106.27 100.31c3.18-.79 6.36-1.63 9.63-1.94 1.34 1.6 2.67 3.2 3.98 4.82-1.61 3.14-3.58 6.24-4.19 9.77 1.1 10.24 5.47 20.59 3.06 30.93a24.427 24.427 0 00-2.53 10.52c-4.72-1.27-10.36-.71-13.83-4.73-3.66-.1-5.58-3.76-8.05-5.93-3.02-2.38-2.59-6.46-3.37-9.83-1.2-2.61-3.96-4.74-3.51-7.9.2-5.28 4.8-9.49 9.8-10.44l-1.23-.57c1.3.01 2.6.03 3.91.05l-.32.39c1.49 2.34 1.21 5.22 1.78 7.83.36-3.19.47-6.44-.12-9.62-2.8.3-5.79.15-8.18 1.92L92 114.2c2.59-1.02 5.28-1.96 8.09-2.12 1.8.24 3.3 1.41 4.89 2.2.56 4.82.77 9.67 1.15 14.5-1.26-1.35-2.75-2.44-4.34-3.36-.65.7-1.3 1.41-1.95 2.12.79.16 2.36.49 3.15.65.71.94 1.45 1.87 2.06 2.89-.4 1.29-.99 2.51-1.51 3.76-1.67-.99-3.58-1.24-5.47-1.33 1.24.9 2.56 1.72 3.75 2.7-.28 2.84-.43 5.69.11 8.51 2.85-.84.5-4.22 1.62-6.16 1.89-3.61 3.78-7.34 4.3-11.44-.37-4.02-.85-8.04-.72-12.09-.75-.91-1.5-1.81-2.24-2.72-1.29-.2-2.58-.41-3.86-.64 1.6-.27 3.21-.52 4.83-.76 1.02-1.67 1.56-3.54 1.83-5.46-1.17-.73-2.33-1.44-3.52-2.13.7-1 1.4-2.01 2.1-3.01m8.68 34.74c.01 3.79-1.62 7.28-2.55 10.89 4.96-4.63 3.66-12.03 4.13-18.11-.66 2.37-1.58 4.72-1.58 7.22m-6.84 5.53c-.03 2.12.09 4.24.22 6.36.91 1.28 1.74 2.6 2.44 4.01-1.04-3.42.26-7.71-2.66-10.37m-12.95 2.27l.7 1.8c.41-.35 1.21-1.05 1.61-1.4 2.03 1.97 3.37 5.13 6.35 5.8-.12-1.09-.25-2.18-.39-3.27-1.65-.93-3.27-1.91-4.85-2.96-.85.01-2.57.02-3.42.03zM133.96 105.1c2.4-.55 4.82-1.07 7.23-1.62.64 2.31 1.79 4.41 2.77 6.58-1.54-1.11-3.08-2.21-4.59-3.36-.47-.06-1.41-.19-1.88-.25l.22 2.3c-1.24-1.23-2.49-2.45-3.75-3.65zM32.36 121.96c4.14-.48 8.19-1.44 12.31-2.01-.01.67-.04 2-.05 2.67-4.48 1.23-9.06 2.01-13.58 3.08-.48-1.09-.56-3.88 1.32-3.74zM28.25 123.27c1.55-.54 1.56 2.81 0 2.26v-2.26zM137.17 140.14c4.53-.43 8.48-2.91 12.93-3.66 2.11-.58 3.93.84 5.84 1.48 2.12.8 4.54.58 6.61 1.53 1.84 1.59 3 3.97 5.38 4.9-1.46.53-2.99.73-4.53.61-.28-.53-.83-1.59-1.11-2.12-1.02-.08-2.03-.16-3.05-.23 3.32 6.75 12.2 3.65 18.05 5.65-3.53 2.03-6.61 4.74-8.69 8.27-2.71 4.24-1.16 9.75-3.17 14.34-.81-3.06-3.59-4.63-6.34-5.66-2.31.58-4.64 1.06-6.99 1.38.15 1.5.29 3.01.41 4.52-1.49-1.39-2.96-2.8-4.46-4.17-4.27-.72-8.9-1.1-12.89.94-2.85 1.31-3.89 4.46-5.54 6.88-1.65-4.73-2.22-9.78-1.85-14.76.64-3.86 3.5-6.75 5.41-9.97-.19-.45-.56-1.36-.75-1.82 3.69-.84 8.92-1.23 10.19-5.59-2.83.62-5 2.68-7.72 3.55-1.38.59-3.09.83-3.82 2.32-.62.35-1.87 1.05-2.49 1.4.3.36.89 1.09 1.18 1.46-.8 1.98-1.55 4-2.43 5.95 0-1.63.1-3.25.21-4.87l-1.23.34c1.15-5.88 6.67-9.07 10.85-12.67m1.81 12.23c2.33.63 4.21-1.12 6.01-2.3 4.09-2.89 8.97-4.29 13.28-6.8-7.52-.25-13.66 4.77-19.29 9.1m4.67.37c2.61-.61 5.08-1.63 7.52-2.71 2.73-1.31 6.38-.53 8.38-3.23-5.6 1.01-11.42 2.18-15.9 5.94m16.5 3.45c.7-2.64 1.66-5.19 3.05-7.54-2.98 1.38-3.28 4.64-3.05 7.54m-24.27 1.91c3.74.19 7.76-.09 10.69-2.72-3.71.23-7.32 1.17-10.69 2.72z"/><path d="M154.35 169.96c1.45-.84 2.91-1.67 4.37-2.48 2.72 1.9 4.95 7.66 8.9 4.52 4.25 2.81 9.55 4.43 14.61 3.25 1.26 1.03 2.9 1.88 3.25 3.63-.2 2.79-3.49 2.56-5.41 3.49-7.45 2.77-15.21 4.54-22.95 6.26.84-5.24-.7-10.44-3.12-15.05.11-1.21.23-2.42.35-3.62zM136.5 169.55c3.74-1.04 7.72-.56 11.52-.05 3.02 3.23 5.3 7.43 6.69 11.66.52 4.42 1.19 9.24-.82 13.39.25-2.52.41-5.05.39-7.58-1.6-1.51-3.29-2.93-5.28-3.89 1.1 2.25 3.79 3.75 3.71 6.48.12 1.66-.47 3.31-.1 4.97.9 3.48-2.35 6.12-2.72 9.45-.87 5.73-5.4 10.11-5.95 15.94-.11 2.63-1.03 5.62.7 7.92.99-5.37.55-11.15 3.85-15.85.14 2.68.43 5.38.34 8.07-.07 4.54-3.2 8.29-3.63 12.76-.51 5.41-.57 10.98.99 16.24.9 3.91 3.64 6.97 5.47 10.46 1.96 3.93 5.94 6.44 7.61 10.58.97 1.93-2.11 2.17-3.3 1.91-.52-.93-.98-1.87-1.4-2.84-.39-.3-1.15-.9-1.54-1.2-3.25 1.22-6.71.45-10.01 1.12.01.3.03.91.03 1.21 2.74.37 5.52.71 8.24 0 1.58-.75 2.71.49 3.28 1.87-3.21 3.47-9.15 2.73-12.31-.45-2.05-1.57-1.56-4.48-2.39-6.66-1.51-4.04-3.07-8.08-4.08-12.29.08-3.55 1.33-7.05.69-10.62-.44-6.86-3.77-13.21-3.83-20.11.28-5.07 2.04-9.91 4.02-14.52 1.7 2.73 1.74 6.46 4.36 8.56-1.35-7.02-4.73-13.99-3-21.24-.87-3.43-.67-7.17-2.4-10.34-1.38-2.64-3.25-4.98-4.91-7.45 1.64-2.66 3.03-5.79 5.78-7.5m5.34 18.78c2.92-.61 5.13-2.94 6.28-5.59-2.4 1.47-4.45 3.46-6.28 5.59m2.95 11.5c.3.61.9 1.85 1.2 2.46 1.25-.49 2.57-.92 3.45-2-1.55-.19-3.1-.35-4.65-.46m-6.63 54.12c3.6-.93 4.29-5.2 5.89-8.06-3.57 1.11-4.27 5.16-5.89 8.06z"/><path d="M129 180.05c1.54-.29 2.13.37 1.77 1.98-1.59.32-2.18-.33-1.77-1.98zM156.55 191.23c.67-.23 1.35-.46 2.03-.68-.16 10.17-.98 20.35-.53 30.53 6.98-1.87 13.74-4.44 20.63-6.58 1.48.64 2.97 1.29 4.47 1.93-.28 1.31-.45 2.65-.9 3.92-5.9 3.1-12.37 4.87-18.54 7.33-5.72 1.88-11.18 4.43-16.88 6.34 1-4.74 3.99-9.01 3.81-13.99.19-4.84-1.02-9.86.75-14.54 1.61-4.79 3.22-9.59 5.16-14.26z"/></g><g fill="#333"><path d="M197.78 63.4c.22-.38.66-1.15.88-1.54 3.43-.32 6.96.41 9.27 3.16 4.49 4.66 5.92 11.33 6.86 17.52 3.12-1.05 6.38-1.64 9.49-2.71 1.94 1.98 2.19 4.74.78 7.1-3.36.22-6.63 1.13-9.99 1.44.08 7.12-1.34 14.38-4.88 20.61-2.23 3.61-6.07 6.82-10.6 6.23 2.3-2.75 6.35-3.16 8.38-6.22 5.16-7.09 6.11-16.41 5.48-24.92-.75-7.93-3.37-17.18-11.4-20.59l.53-.84c-1.46.17-2.78.81-3.17 2.33 5.28 3.65 6.99 10.47 7.96 16.45 1.68 9.4.65 19.48-3.86 27.98-2.08 3.77-5.89 7.32-10.51 6.81-5.07-.42-8.71-5.21-8.81-10.12 1.78 3.5 4.46 7.5 8.73 7.88 4.56.62 8.07-3.31 9.97-6.98 3.93-7.97 4.49-17.3 3.01-25.96-.75-4.07-2.09-8.11-4.46-11.53-1.96-2.74-5.08-4.22-7.77-6.11-2.34 1.37-5.01 2.39-6.73 4.6-3.07 3.91-4.34 8.82-5.43 13.58-.43.21-1.28.63-1.71.84 1.43-5.55 2.85-11.45 6.66-15.91 2.64-3.28 7.4-4.19 11.32-3.1M215 83.48v4.24c2.72-1.68 5.98-1.83 9-2.66-.02-.78-.05-2.35-.07-3.13-2.95.66-5.91 1.32-8.93 1.55z"/><path d="M183.7 87.97c3.7-.11 7.25-1.32 10.68-2.61 2.13 1.64 1.83 4.37 1.77 6.76-4.46.81-8.65 2.89-13.22 3.06-8.33.62-16.44 2.71-24.64 4.11-1.24 2.39-2.54 4.75-4.08 6.96 1.19 8.47 6.49 16.12 5.58 24.86-.19 2.09-1.26 3.93-2.21 5.75 5-.74 8.49 2.9 11.36 6.38l.12 2.37c3.03-.07 6.03.48 8.99 1.11-.03 1.38-.04 2.76-.05 4.15-2.29.9-4.49 2.14-5.87 4.25-3.89 3.93-2.36 9.98-4.38 14.77 2.53 1.37 5.23 2.61 8.12 2.94 3.71.04 7.62-.45 11.1 1.18 2.72.96 4.64 3.24 7.1 4.65 2.17 1.05 4.56 1.53 6.84 2.3-.88 1.09-2.06 1.67-3.53 1.74.13 5.49-.53 11.01.72 16.42.05 5.03 4.52 8.72 4.28 13.82-.14 4.25.86 8.81-.99 12.8-.76 3.05-.8 6.23-1.01 9.36-.43 1.65 1.06 3.14 2.68 3.04 3.61.58 7.27-.72 10.88 0 2.06.7 3.95 1.81 5.91 2.74 2.42-.44 4.73.45 7.09.8 2.1-1.04 4.05-2.36 6.23-3.22-.82-1.05-1.65-2.09-2.49-3.11-4.37-.16-8.52-2.4-10.96-6.04-2.21-3.24-5.27-5.72-8.01-8.49-.49-3.95-1.82-7.82-1.56-11.85.35-5.29.26-10.64-.93-15.82-.81-3.36.31-6.73.13-10.1-.21-3.39 1.63-6.56 1.13-9.97-1.61-2.12-1.97-4.87-3.47-7.03-2.24-2.8-6.17-2.99-8.75-5.32-2.53-2.26-5.25-4.29-8.39-5.62 1.35-.08 2.7-.15 4.06-.21 1.92 1.47 3.72 3.09 5.59 4.63 1.91 1.66 4.55 1.94 6.63 3.31 3.79 2.82 5.37 7.73 5.96 12.21-1.4 6.84-1.77 14.01-.25 20.89.73 7.71-.18 15.62 1.73 23.21.5 3.09 3.99 4.02 5.63 6.41 2.09 2.92 4.96 5.1 7.87 7.16 2.86-.18 5.59.92 7.12 3.43 1.56 1.25.2 3.03-.88 4.02-2.28 1.28-4.63 2.62-7.21 3.14-2.36-.2-4.71-.66-7.08-.34-3.28-2.01-6.89-4.44-10.94-3.32-3.36.89-6.79.07-9.56-1.93-1.59-8.28 3.85-15.94 2.12-24.18-.5-5.34-4.14-9.54-5.68-14.55.35-5.05.5-10.12 1.69-15.07.52-2.54-2.5-2.84-4.16-3.57-2.35-.78-3.72-3.41-6.08-3.93 1.94 2.19 1.07 6.16-1.87 6.96-7.98 2.8-16.17 4.96-24.4 6.89-.11 9.5-.18 18.99-.39 28.48 6.29-1.95 12.45-4.35 18.81-6.05 2.32.44 4.4 1.69 6.58 2.55-.36 2.26-.81 4.52-1.23 6.79-8.31 3.44-16.89 6.18-25.27 9.46-3.76 1.64-7.61 3.04-11.54 4.22-.23 5.4-.52 11.1 1.87 16.12 1.99 3.09 3.86 6.27 5.79 9.41 2.5 3.1 6.57 6.24 5.81 10.71-.44 2-2.72 1.87-4.31 2.2-4.86 3.77-12.43 2.52-16.72-1.61-2.24-2.11-.98-5.55-2.38-8.06-1.19-2.39-2.51-4.86-1.79-7.62-2.7-4.77.13-9.88-.49-14.94-.73-6.76-3.48-13.16-3.98-19.96.8-7.88 5.39-14.92 5.18-22.96 1.34-5.26-1.07-10.35-3.46-14.91l-2.71-.04c-.98-1.18-2.44-2.26-1.97-4.02.25-3.28-.68-6.42-1.62-9.51-13.42 5.24-27.05 9.9-40.39 15.33-1.01-.72-2.02-1.45-3.03-2.16-.01-2.48.02-4.95.12-7.41 6.24-2.53 12.52-4.93 18.83-7.27.03-4.18-.05-8.37.23-12.55 1.4.7 1.03 2.29 1.14 3.52-.01 3.36-.09 6.72-.09 10.08-6.29 2.3-12.45 4.94-18.71 7.3-.06 1.69-.11 3.38-.17 5.08.43.41 1.27 1.23 1.69 1.64 13.24-5.32 26.72-10.06 40.03-15.23-.02-1.36-.03-2.73-.03-4.09-.65-.64-1.3-1.29-1.95-1.93-4.85 1.57-9.51 3.71-14.51 4.77-.09-3.44-.16-6.91.2-10.34.39-.13 1.16-.39 1.55-.53-.06 2.96-.15 5.92-.22 8.88 3.78-1.34 7.49-2.92 11.36-4.02a87.032 87.032 0 01-5.57-4.74c2.92-.59 5.06 1.37 7.19 2.97-.26-.9-.78-2.68-1.04-3.57.67.22 2.03.67 2.71.9l-.36 3.22c.67-1.16 1.12-2.4 1.36-3.72-4.06-.79-7.04-4.24-7.92-8.19 2.35 1 4.08 2.86 5.39 5.01 1.01-5.02 4.6-8.73 8.56-11.67.25-.65.75-1.95 1-2.59-2.97.36-5.75-.65-8.26-2.1-1.34-.62-2.59-1.4-3.58-2.49 3.15.77 5.88 2.65 9.09 3.28 1.29-.41 2.58-.82 3.87-1.22-1.25 1.26-1.32 2.58-.02 3.77 1.4-2.23 4.49-1.91 6.6-3.14 3.54-1.91 7.41-2.97 11.4-3.33-2.33-5.15-7.41-8.63-8.83-14.26.03 1 .1 2.98.13 3.98 2.66 2.45 5.39 5.41 5.36 9.28-3.3-2.18-5.14-5.79-7.06-9.12-2 .09-3.98.43-5.93.82 1.37-2.09 3.77-2.24 6.03-1.94-.04-1.54-.08-3.08-.11-4.61.39.22 1.19.65 1.59.86.03-3.02-.62-5.96-2-8.65-1.66-.5-3.34-.92-5.06-1.1-1.72-1.2-3.53-3.01-5.84-2.48-3.61.56-7.28.6-10.92.91-1.5 1.11-1.34 2.64-.52 4.09 1.68-.83 3.4-1.61 5.14-2.33-.9 3.34-4.57 2.77-7.26 2.6.93 4.41 1.93 8.83 1.88 13.37.46-1.65.96-3.29 1.5-4.91.18 3.21.06 6.45 1.05 9.56-.38.4-1.15 1.2-1.53 1.6 1.38 5.13.66 10.6-1.33 15.46-.84 1.98-.81 4.16-.9 6.27-1.5 1.15-3.01 3.47-5.19 2.57-4.64-1.79-10.05-1.7-14.09-4.85-4.12-3.36-7.89-7.44-9.45-12.64-1.6-5.32-4.22-10.65-3.27-16.36 1.64-1.78 3.1-3.71 4.78-5.45-.6-.8-1.21-1.59-1.81-2.38-4.59 1.92-9.71 1.93-14.26 3.95-1.93.73-3.97 1.04-5.98 1.47-.21 8.48-1.27 17.58-6.66 24.49-1.87 2.91-4.82 5.22-8.42 5.31-.83-1.07-2.06-1.53-3.32-1.88l1.04 1.18c-3.47 1.78-7.98 2.6-11.28-.01-6.04-4.93-8.79-12.8-9.4-20.37 3.02 2.9 2.17 7.79 4.42 11.22 2.33 3.87 5.59 8.94 10.77 8.42 3.1.12 5.39-2.43 7.17-4.65 5.93-7.76 6.46-18.1 5.7-27.47-.8-8.83-5.05-18.23-13.73-21.76-10.38 4.16-13.2 16.41-13.55 26.47 4.26-1.03 8.66-1.55 12.79-3.06 2.26 1.56 3.34 4.9.93 6.87-5.74 1.4-11.66 2.03-17.37 3.57-2.22-1.45-2.11-4.71-.77-6.79 1.08-.25 2.71-.08 3.13-1.43.54-8.63 2.36-18.15 9.2-24.1 2.8-1.92 6.85-2.96 10.06-1.52 6.69 5.14 10.55 13.41 10.58 21.83 1.3 8.38.32 17.24-3.3 24.95-.9 2.33-3.55 3.99-3.54 6.6 5.92-1.01 9.4-6.53 11.49-11.66 3.27-9.82 3.26-20.85-.21-30.61-2.45-5.63-7.13-12.34-14.04-11.67 1.42-.5 2.85-.97 4.27-1.47 5.54 1.28 8.53 6.45 10.56 11.31 2.52 4.91 3.02 10.52 3.32 15.94.41-.51 1.25-1.55 1.67-2.07 11.78-3.11 23.56-6.24 35.55-8.44.01-.88.01-2.63.01-3.51-5.71 1.65-11.62 2.47-17.37 3.96-3.84 1.59-8.05 1.86-12.02 2.98-2.16.97-4.47 2.13-6.91 1.74-.34-2.89 3.97-1.9 5.78-2.83 3.67-2.09 8.07-2.22 12.14-2.98.23-.45.67-1.34.9-1.79l-1.31-.11c.25-2.3.33-4.63.78-6.9l1.52-.16c.13-1.07.27-2.13.41-3.19 2.37-1.88 4.79-4.48 8.1-4.23 4.87.22 9.44 2.24 13.86 4.13-4.85.35-9.06-2.67-13.85-2.75-4.27.3-6.7 4.24-8.63 7.56-.1 1.87-.27 3.75-.84 5.56.9.32 1.84.9 2.83.45 3.51-.78 7.11-1.36 10.44-2.78 1.32-.92 1.53-2.72 2.23-4.07 3.73-2.39 8.31-2.58 12.6-2.55l3.39 3.45c7.33-.88 14.45-2.91 21.74-4.04-1.21-.83-1.74-2.16-2.09-3.53 3.43-2.97 8.28-2.56 12.43-3.66 2.88-1.08 4.08 3.22 6.84 2.58 8.21-1.57 16.34-3.73 24.73-4.26m-1.43 1.78c-8.15 1.21-16.2 2.91-24.27 4.58v3.35c3.94-.94 7.92-1.7 11.87-2.59 7.97-1.82 16.33-1.72 24.14-4.26l.32-3.25c-4.07.46-7.9 2.97-12.06 2.17m-38.35 3.32c-1.06.19-2.85.23-2.72 1.75 1.32.94 2.76 1.68 4.21 2.43.37.97.74 1.95 1.12 2.93-1.4 1.12-2.82 2.22-4.27 3.28 1.64 2.34 4.44 5.41 2.51 8.39.68 2.96.96 5.99 1.5 8.98 2.1 5.13 8.5 8.07 8.52 14.11.63.39 1.89 1.16 2.52 1.55.54-4.12.95-8.33.32-12.46-1.92-6.19-4.11-12.32-5.42-18.68-1.37.82-2.81 1.53-4.44 1.57.97-2.05 3.26-2.38 5.28-2.1 1.67-2.39 3.51-4.95 3.78-7.93-.61-2.25-2.62-3.75-3.98-5.55-2.95.7-5.91 1.42-8.93 1.73m-11.77 7.5c-3.82.72-7.61 1.81-11.52 1.86-.09 1.05-.26 3.15-.35 4.2 6.95-2.66 14.47-3.2 21.63-5.13 2.05-.38 2.18-2.99 3.15-4.41-4.08 1.9-8.55 2.54-12.91 3.48m-25.88-.26c-.7 1-1.4 2.01-2.1 3.01 1.19.69 2.35 1.4 3.52 2.13-.27 1.92-.81 3.79-1.83 5.46-1.62.24-3.23.49-4.83.76 1.28.23 2.57.44 3.86.64.74.91 1.49 1.81 2.24 2.72-.13 4.05.35 8.07.72 12.09-.52 4.1-2.41 7.83-4.3 11.44-1.12 1.94 1.23 5.32-1.62 6.16-.54-2.82-.39-5.67-.11-8.51-1.19-.98-2.51-1.8-3.75-2.7 1.89.09 3.8.34 5.47 1.33.52-1.25 1.11-2.47 1.51-3.76-.61-1.02-1.35-1.95-2.06-2.89-.79-.16-2.36-.49-3.15-.65.65-.71 1.3-1.42 1.95-2.12 1.59.92 3.08 2.01 4.34 3.36-.38-4.83-.59-9.68-1.15-14.5-1.59-.79-3.09-1.96-4.89-2.2-2.81.16-5.5 1.1-8.09 2.12l1.1 1.38c2.39-1.77 5.38-1.62 8.18-1.92.59 3.18.48 6.43.12 9.62-.57-2.61-.29-5.49-1.78-7.83l.32-.39c-1.31-.02-2.61-.04-3.91-.05l1.23.57c-5 .95-9.6 5.16-9.8 10.44-.45 3.16 2.31 5.29 3.51 7.9.78 3.37.35 7.45 3.37 9.83 2.47 2.17 4.39 5.83 8.05 5.93 3.47 4.02 9.11 3.46 13.83 4.73.05-3.68.91-7.23 2.53-10.52 2.41-10.34-1.96-20.69-3.06-30.93.61-3.53 2.58-6.63 4.19-9.77a363.13 363.13 0 00-3.98-4.82c-3.27.31-6.45 1.15-9.63 1.94m27.69 4.79c1.26 1.2 2.51 2.42 3.75 3.65l-.22-2.3c.47.06 1.41.19 1.88.25 1.51 1.15 3.05 2.25 4.59 3.36-.98-2.17-2.13-4.27-2.77-6.58-2.41.55-4.83 1.07-7.23 1.62m-101.6 16.86c-1.88-.14-1.8 2.65-1.32 3.74 4.52-1.07 9.1-1.85 13.58-3.08.01-.67.04-2 .05-2.67-4.12.57-8.17 1.53-12.31 2.01m-4.11 1.31v2.26c1.56.55 1.55-2.8 0-2.26m108.92 16.87c-4.18 3.6-9.7 6.79-10.85 12.67l1.23-.34c-.11 1.62-.21 3.24-.21 4.87.88-1.95 1.63-3.97 2.43-5.95-.29-.37-.88-1.1-1.18-1.46.62-.35 1.87-1.05 2.49-1.4.73-1.49 2.44-1.73 3.82-2.32 2.72-.87 4.89-2.93 7.72-3.55-1.27 4.36-6.5 4.75-10.19 5.59.19.46.56 1.37.75 1.82-1.91 3.22-4.77 6.11-5.41 9.97-.37 4.98.2 10.03 1.85 14.76 1.65-2.42 2.69-5.57 5.54-6.88 3.99-2.04 8.62-1.66 12.89-.94 1.5 1.37 2.97 2.78 4.46 4.17-.12-1.51-.26-3.02-.41-4.52 2.35-.32 4.68-.8 6.99-1.38 2.75 1.03 5.53 2.6 6.34 5.66 2.01-4.59.46-10.1 3.17-14.34 2.08-3.53 5.16-6.24 8.69-8.27-5.85-2-14.73 1.1-18.05-5.65 1.02.07 2.03.15 3.05.23.28.53.83 1.59 1.11 2.12 1.54.12 3.07-.08 4.53-.61-2.38-.93-3.54-3.31-5.38-4.9-2.07-.95-4.49-.73-6.61-1.53-1.91-.64-3.73-2.06-5.84-1.48-4.45.75-8.4 3.23-12.93 3.66m17.18 29.82c-.12 1.2-.24 2.41-.35 3.62 2.42 4.61 3.96 9.81 3.12 15.05 7.74-1.72 15.5-3.49 22.95-6.26 1.92-.93 5.21-.7 5.41-3.49-.35-1.75-1.99-2.6-3.25-3.63-5.06 1.18-10.36-.44-14.61-3.25-3.95 3.14-6.18-2.62-8.9-4.52-1.46.81-2.92 1.64-4.37 2.48m-17.85-.41c-2.75 1.71-4.14 4.84-5.78 7.5 1.66 2.47 3.53 4.81 4.91 7.45 1.73 3.17 1.53 6.91 2.4 10.34-1.73 7.25 1.65 14.22 3 21.24-2.62-2.1-2.66-5.83-4.36-8.56-1.98 4.61-3.74 9.45-4.02 14.52.06 6.9 3.39 13.25 3.83 20.11.64 3.57-.61 7.07-.69 10.62 1.01 4.21 2.57 8.25 4.08 12.29.83 2.18.34 5.09 2.39 6.66 3.16 3.18 9.1 3.92 12.31.45-.57-1.38-1.7-2.62-3.28-1.87-2.72.71-5.5.37-8.24 0 0-.3-.02-.91-.03-1.21 3.3-.67 6.76.1 10.01-1.12.39.3 1.15.9 1.54 1.2.42.97.88 1.91 1.4 2.84 1.19.26 4.27.02 3.3-1.91-1.67-4.14-5.65-6.65-7.61-10.58-1.83-3.49-4.57-6.55-5.47-10.46-1.56-5.26-1.5-10.83-.99-16.24.43-4.47 3.56-8.22 3.63-12.76.09-2.69-.2-5.39-.34-8.07-3.3 4.7-2.86 10.48-3.85 15.85-1.73-2.3-.81-5.29-.7-7.92.55-5.83 5.08-10.21 5.95-15.94.37-3.33 3.62-5.97 2.72-9.45-.37-1.66.22-3.31.1-4.97.08-2.73-2.61-4.23-3.71-6.48 1.99.96 3.68 2.38 5.28 3.89.02 2.53-.14 5.06-.39 7.58 2.01-4.15 1.34-8.97.82-13.39-1.39-4.23-3.67-8.43-6.69-11.66-3.8-.51-7.78-.99-11.52.05m-7.5 10.5c-.41 1.65.18 2.3 1.77 1.98.36-1.61-.23-2.27-1.77-1.98m27.55 11.18c-1.94 4.67-3.55 9.47-5.16 14.26-1.77 4.68-.56 9.7-.75 14.54.18 4.98-2.81 9.25-3.81 13.99 5.7-1.91 11.16-4.46 16.88-6.34 6.17-2.46 12.64-4.23 18.54-7.33.45-1.27.62-2.61.9-3.92-1.5-.64-2.99-1.29-4.47-1.93-6.89 2.14-13.65 4.71-20.63 6.58-.45-10.18.37-20.36.53-30.53-.68.22-1.36.45-2.03.68z"/><path d="M126.55 110.31c2.26-1.27 4.92-1.42 7.44-.98-1.79 1.86-5.07.72-7.44.98zM135.19 110.17c2.66-.3 5 2.08 7.29 3.27l.86 2.17c-2.47-1.79-7.29-2.2-8.15-5.44zM147.91 115.22c-.25-1.47-.07-2.97-.03-4.45 1.28 3.64 2.95 7.14 5.14 10.32-1.86-1.8-4.18-3.35-5.11-5.87zM128.67 112.92c1.26 3.7-3.89 5.11-6.27 6.75 2.02-2.31 4.22-4.45 6.27-6.75zM131.15 113.07c2.46.26 4.88.81 7.27 1.46-2.39 1.3-5.64.79-7.27-1.46zM133.39 117.5c.37.18 1.13.54 1.5.71.57 2.63 1 5.33.3 7.98-1.98.4-3.97.71-5.97.95-1.39 1.94-2.41 4.51-4.97 5.07 1.22-2.06 2.34-4.23 4.05-5.94 1.47-1.54 3.8-1.24 5.72-1.63-.05-2.4-.29-4.77-.63-7.14zM135.75 126.79c2.7.03 3.23 2.89 3.5 4.98-1.52-1.39-2.66-3.11-3.5-4.98zM114.95 135.05c0-2.5.92-4.85 1.58-7.22-.47 6.08.83 13.48-4.13 18.11.93-3.61 2.56-7.1 2.55-10.89zM108.11 140.58c2.92 2.66 1.62 6.95 2.66 10.37-.7-1.41-1.53-2.73-2.44-4.01-.13-2.12-.25-4.24-.22-6.36zM95.16 142.85c.85-.01 2.57-.02 3.42-.03 1.58 1.05 3.2 2.03 4.85 2.96.14 1.09.27 2.18.39 3.27-2.98-.67-4.32-3.83-6.35-5.8-.4.35-1.2 1.05-1.61 1.4l-.7-1.8zM138.98 152.37c5.63-4.33 11.77-9.35 19.29-9.1-4.31 2.51-9.19 3.91-13.28 6.8-1.8 1.18-3.68 2.93-6.01 2.3zM143.65 152.74c4.48-3.76 10.3-4.93 15.9-5.94-2 2.7-5.65 1.92-8.38 3.23-2.44 1.08-4.91 2.1-7.52 2.71zM160.15 156.19c-.23-2.9.07-6.16 3.05-7.54-1.39 2.35-2.35 4.9-3.05 7.54zM135.88 158.1c3.37-1.55 6.98-2.49 10.69-2.72-2.93 2.63-6.95 2.91-10.69 2.72zM198.16 164.82c3.18 1.54 3.86 5.33 4.51 8.46-1.49 1.18-2.67 3.31-4.81 3.21-3.99.13-7.34-2.83-8.88-6.32 2.7 1.72 4.89 4.35 8.05 5.25 1.99.13 2.83-1.86 3.97-3.09-.81-2.55-1.84-5.02-2.84-7.51zM141.84 188.33c1.83-2.13 3.88-4.12 6.28-5.59-1.15 2.65-3.36 4.98-6.28 5.59zM144.79 199.83c1.55.11 3.1.27 4.65.46-.88 1.08-2.2 1.51-3.45 2-.3-.61-.9-1.85-1.2-2.46zM206.15 232.6c-2.58-2.3-3.14-5.83-1.5-8.86.36 2.97.84 5.93 1.5 8.86zM138.16 253.95c1.62-2.9 2.32-6.95 5.89-8.06-1.6 2.86-2.29 7.13-5.89 8.06z"/></g></svg>