<svg width="227pt" height="400" viewBox="0 0 227 300" xmlns="http://www.w3.org/2000/svg"><g fill="#FFF"><path d="M0 0h227v300H0V0m163.46 1.7c-2.73.72-6.11.22-8.2 2.47-3.48 3.76-5.5 8.77-5.9 13.85-.01 1.52-.5 3.53-2.18 3.98-4.65.6-9.34 1.01-13.99 1.66-2.28-1.05-4.75-.74-7.14-.35-1.59-.97-3.45-.95-5.22-.6 3.26 2.37 7.56.63 10.87 2.64 2.48 2.9-1.13 6.91 1.51 9.65 2.36 3.22 5.96 5.29 8.27 8.57 2.98 4.24 4.25 9.45 4.37 14.58 2.06 4.73-.14 9.41-1.53 13.95-1.23 3.14.12 6.53-.82 9.71-1.29 3.9-3.58 7.38-5.98 10.68-1.98 2.72-5 5.14-4.81 8.83-1.87 5.17-.28 10.92-1.87 16.22-.62-.21-1.86-.63-2.48-.83 1.01 2.64 1.41 5.43.57 8.18l-2.64-.44c-.09-1.22-.19-2.44-.28-3.66-1.19.01-2.38.06-3.57.21-.97.52-1.96 1-2.98 1.41-.37-1.29-.74-2.57-1.12-3.85.24-.66.46-1.33.66-1.99-.75-.01-2.24-.01-2.99-.01 1.32 2.3 2.43 4.77 2.23 7.5 1.73-.61 3.48-1.17 5.22-1.77 2.2 1.31 3.11 3.53 3.32 5.98l1.19-.05c-.75 2.79.22 6.59-2.3 8.59-1.48.76-1.99-1.29-2.67-2.11-.53.66-1.07 1.31-1.6 1.97 1.01.61 2.04 1.21 3.04 1.84 2.71 1.16 1.62 4.65 2.14 6.95-3.52 2.44-7.84 2.81-11.8 4.11-.53-1.1-.96-2.25-1.37-3.39-1.23-.12-2.46-.23-3.69-.33.6.64 1.81 1.92 2.41 2.55l.58-.93c.22.58.67 1.73.89 2.3-3.5-.81-7.04-1.52-10.64-1.55-3.21.12-5.86-1.92-8.62-3.24-.37-4.34-.52-8.72-1.23-13.02-1.1-1.69-3.02-2.55-4.67-3.58-1.58-4.94-5.23-9.06-5.76-14.37-2.87-3.1-1.58-7.68-3.01-11.39-7.52-4.54-6.59-14.25-8.6-21.67-3.31-7.45-4.11-15.84-3.29-23.9.22-4.96 2.1-9.76 1.27-14.77.61-.88 1.23-1.75 1.86-2.62-2.85.84-3.4-2.2-3.38-4.3-6.35.31-12.67 1.22-18.97 2.1-.02-.57-.07-1.7-.1-2.27 5.92.09 11.87-2.46 17.71-1.07.32-1.45.61-2.91.9-4.36 3.63-1.89 7.87-2.78 11.91-1.88 1.97.1 2.65 1.65 2.45 3.44 12.74-1.6 25.54-2.74 38.26-4.55-1.01-1.13-2.32-1.5-3.93-1.08.67-.6 2.01-1.79 2.68-2.38-2.14-.21-3.56.62-4.24 2.47-2.39.45-4.8.78-7.22.91-5.4.2-10.69 1.96-16.12 1.43-2.75.41-5.51.76-8.29.75-.82-.79-1.2-2.62-2.68-2.35-5.23-.14-10.38 1.09-15.08 3.37-.1.45-.3 1.36-.41 1.81-5.29.65-10.61 1.12-15.86 2.08-.76-5.17-2.13-10.62-5.89-14.47-3.22-3.1-8.49-3.18-12.23-1.05-5.26 4.4-6.88 11.63-7.34 18.18-3.3.57-6.62.95-9.95 1.34-1.55.05-1.46 2.12-2.19 3.11.81.9 1.35 2.85 2.97 2.21 3.07-.32 6.12-.74 9.21-.89.87 6.42 2.47 14.54 9.19 17.25 3.18.18 7.06 1 9.56-1.54 5.2-4.8 6.17-12.28 6.91-18.94 5.19-.44 10.38-.89 15.52-1.77.6 1.19 1.39 2.25 2.4 3.12.78 4.87.34 9.82-.61 14.63-1.27 5.95.43 12-.05 18-.4 3.42 2.92 5.78 3.15 9.1.64 5.42 1.62 10.82 2.97 16.11 1.83 3.07 4.56 5.49 6.64 8.39-.32 2.22-.34 4.59 1.46 6.24.26 3.97 1.29 7.99 3.75 11.2 2.33 3.02 3.26 7.09 6.67 9.21.4 3.91 1.05 7.79 1.26 11.72l2.16 1.36c-3.41 4.57-2.54 10.31-3.17 15.64.89.82 1.41 1.81 1.55 2.97 1.33-.57 2.79-.66 4.21-.88.84-.76 1.69-1.5 2.55-2.22a108.8 108.8 0 01-3.43 7.34c.32-1.65.77-3.28 1.13-4.91-1.36.45-2.71.92-4.03 1.47l.87 2.62c-6.62-4.61-12.35-10.43-18.64-15.49-3.58-2.44-6.95-5.19-10.13-8.14.02-1.24.03-2.49.05-3.73 3.78-1.36 7.73-2.18 11.65-3.04-.25-.44-.74-1.3-.98-1.74-3.45.78-6.96 1.31-10.37 2.25-2.21.95-2 3.77-2.73 5.68 2.54 4.58 7.28 7.2 11.2 10.43-.62 7.89-.07 15.81-.67 23.69-4.32 1.8-8.77 3.22-13.19 4.74-1.51.6-3.24 1.1-4.26 2.46-.33 2-.37 4.07-.06 6.08.87 1.01 1.99 1.74 3.02 2.57 12.62-4.9 25.44-9.31 37.98-14.45.89 2.94 1.53 5.96 1.16 9.05-.18 2.27 2.35 3.51 4.34 3.06 1.92 3.06 2.93 6.54 3.71 10.04-.97 4.6-.12 9.51-2.1 13.88-1.2 3.71-2.45 7.42-3.15 11.26-.01 6.21 2.99 11.97 3.48 18.13.37 3.63-.23 7.25-.45 10.87.86 4.8 1.56 9.6 3.69 14.04-.15 8.55 11.86 11.99 17.67 6.87 1.54-.23 3.5-.14 4.17-1.9.88-3.36-1.94-5.87-3.79-8.25-2.96-2.9-4.6-6.76-6.75-10.23-2.95-4.71-2.45-10.45-2.55-15.75 3.8.44 7.04-1.95 10.51-3.09 7.82-2.83 15.62-5.72 23.38-8.72 2.75-1.15 1.98-4.75 2.69-7.1-2.4-1.04-4.8-3.59-7.58-2.51-5.52 1.74-10.91 3.88-16.38 5.76.42-8.92.63-17.84.54-26.76 8.44-1.85 16.65-4.56 24.85-7.28.73-1.94 1.1-3.98.47-6.03 3.44 2.94 7.5 6.28 12.36 5.57-.38-3.9-5.57-2.19-7.63-4.78-3.84-4.27-9.81-5.01-15.23-4.67-3.11.28-5.82-1.38-8.42-2.82-.91-7.29 3.07-14.76 9.39-18.39 7.52 1.4 14.19 5.53 19.98 10.37 2.23 1.9 5.28 2.44 7.51 4.31 1.6 2.56 2.81 5.46 3.39 8.43-.87 6.98-2.28 14.18-.4 21.13.66 7.68-.57 15.61 2.16 23.02 1.7 1.96 3.94 3.4 5.55 5.46 2.17 2.7 4.4 5.77 7.84 6.91 2.02.73 4.64.55 5.96 2.56.18 2.18-2.69 2.36-4.08 3.32-4.76.92-9.6-.83-14-2.56-3.94-1.18-9.72 2.39-12.2-1.98 0-4.14.73-8.25 1.82-12.23.45-3.53.31-7.13.07-10.68-.13-4.09-3.76-7.01-3.96-11.09-1.21-5.05-.11-10.3-1.24-15.36-1.66 3.6-1.55 7.68-1.61 11.56-.16 5.61 3.75 10.19 4.73 15.56 2.3 8.18-3.5 15.92-1.66 24.16 2.96 2.2 6.66 2.11 10.14 1.57 4.44-1.07 7.53 4.19 11.95 2.98 4.62 1.7 10.45-.74 12.68-5.1a80.082 80.082 0 00-3.62-4.17c-7.83.54-10.56-8.08-16.43-11.39-2.73-7.28-.9-15.12-1.76-22.65-1.45-6.93-1.27-14.19.24-21.08-.62-2.81-1.58-5.57-2.89-8.13-2.58-4.12-7.89-4.55-11.18-7.79-3.99-3.62-8.93-6.05-13.93-7.95-.32-.45-.96-1.35-1.29-1.79-5.35-1.69-10.96-2.37-16.56-2.43 2.51 4.06 8.17 1.56 11.95 3.27-3.76 2.48-7.33 5.67-8.99 9.96-.23 3.66-.72 7.3-1.6 10.88-1.43-2.24-3.38-4.04-5.82-5.1-2.29.6-4.63.98-6.98 1.24.08 1.38.16 2.76.23 4.15-1.09-1.09-2.17-2.2-3.23-3.31-3.88.05-7.81-.46-11.65.26-2.97 1.06-4.69 4-6.35 6.5-2.11-4.26-1.77-9.11-1.63-13.72.82-5.45 5.82-8.9 7.58-13.92 3.15 1.02 6.4.62 9.36-.82-3.76-1.04-7.8-.25-11.48-1.7-1.92-.33-3.98-1.63-5.91-.87-1.69 2.52-2.45 5.6-1.63 8.58.86-2.26 1.38-4.67 2.67-6.74 1.76-.61 3.63.88 5.36 1.23-1.7 3.79-5.21 6.1-8.87 7.72l.39 1.71c-.53-.26-1.6-.8-2.13-1.06-.97-4.02-2.32-8.22-1-12.32 1.5-.55 2.64-1.54 3.01-3.15 1.25.76 2.5 1.52 3.75 2.29 4.95.21 9.75 1.55 14.67 1.87 4.7-.59 9.26-2.23 13.44-4.44 1.6 1.51 3.03 3.22 3.74 5.34.43.34 1.3 1.02 1.73 1.36.04-3.28-1.03-6.37-4.12-7.9-.25-.52-.76-1.57-1.02-2.1-.03-2.38-.19-4.76-.28-7.14 3.99-5.58 2.42-12.65 3.94-18.92 2.47-4.98 1.84-10.69 1.81-16.06 3.44-6.61 8.57-12.31 11.18-19.36 1.14-4.49 1.15-9.23 2.8-13.6.81-3.4 2.75-7.02 1.55-10.52-2.66-4.06-1.1-9.39-3.88-13.41-2.51-5.06-8.4-7.22-10.84-12.32-.94-1.19-1.02-2.45-.24-3.79 5.27-.84 10.6-1.29 15.91-1.9-.9 3.9.58 7.75 2.13 11.26 1.34 2.95 3.74 5.86 7.12 6.35 2.81.08 6.15.93 8.39-1.29 5.57-4.79 6.75-12.75 6.98-19.71 4.29-.25 8.84.04 12.9-1.58.29-1.67-.44-4.93-2.62-4.43-3.44.49-6.88.99-10.34 1.18-.77-6.8-3.32-15.11-10.76-17.11m-68.3 30.05c-3.81.3-7.6 1.49-11.44.72-.5.95-.94 1.94-1.38 2.92-1.77 1.91-3.25 4.05-4.78 6.15.11 4.78.92 9.61 2.9 13.99 2.04 3.95 1.68 8.89-.01 12.9l-2.63.04v1.52c-.85-.11-2.55-.35-3.4-.47-.33.31-.97.94-1.3 1.25 2.44-.11 5.57-1.65 7.4.7 3.01 3.62-2.56 8 .15 11.7 2.09 4.62 5.31 9.67 3.01 14.84.77.57 1.55 1.15 2.32 1.73-.28-1.48-.56-2.96-.85-4.44 1.38.62 2.77 1.22 4.17 1.8-1.34-1.87-3.07-3.42-4.56-5.16-.42-3.73-.66-7.63-2.91-10.81-.14-1.67-.3-3.34-.47-5 1.16.01 2.33.03 3.49.04l-2.05-.77c-2.42-6.95 2.79-14.64-1.12-21.26-1.89-3.63-2.56-7.76-2.43-11.82 2.15-2.58 4.35-5.11 6.57-7.64 9.28-.99 18.55-2.18 27.82-3.38.08 5.02 6.56 3.88 8.53 7.59 3.93 3.78 4.85 9.24 6.44 14.21-.72-3.41-.6-6.96-1.45-10.34-1.39-3.02-3.11-6.01-5.6-8.26-1.85-1.13-4.06-1.46-6.07-2.18.79-1.42 2.3-2.08 3.58-2.94-8.02.27-15.93 1.78-23.93 2.37m27.45.17c-.16.56-.49 1.66-.65 2.22 1.1-.84 2.19-1.68 3.29-2.52 1.26 2.47 2.85 4.74 4.62 6.87.58.04 1.74.13 2.32.18-2.06-2.79-4.36-5.39-6.22-8.31-.74 1.18-2.14 1.25-3.36 1.56M99.05 55.98c-3.7 3.78-2.36 9.43-1.87 14.11.21 2.1 1.95 3.53 3.12 5.14-.4 3.05-.82 6.12-1.81 9.05-1.5.59-3 1.18-4.51 1.73-.33.39-.98 1.18-1.3 1.57-1.43-.91-2.87-1.78-4.34-2.62-.97-2.85-2.43-5.5-3.34-8.37-.55.48-1.09.97-1.63 1.45 2.41 4.2 4.08 8.71 5.16 13.42.14-.64.43-1.91.58-2.55 2.16.76 4.26-.35 6.29-1 .8.32 1.61.64 2.42.95 3.47-3.32 3.96-8.26 4.77-12.72.93 2.04 1.72 4.23 3.27 5.9 3.81 3.1 8.87 3.45 13.58 3.71.49.64 1 1.27 1.51 1.89.61-.46 1.82-1.4 2.43-1.87 1.2-1.95 2.37-3.92 3.32-6.01-.04 6.46.7 13.01-1.12 19.33-.68 1.64.74 2.77 1.66 3.9-.3 3.26-1.25 6.43-1.31 9.71 2.07-3.34 2.98-7.93 1.58-11.71-.06-2.3.59-4.57.74-6.87.88-1.58 1.32-3.32 1.41-5.11.05-2.86 2.04-5.58 4.9-6.14.4-1.83.2-3.74.24-5.6-.85 1.82-1.58 3.69-2.23 5.59-2.56-.93-3.24 2.04-4.59 3.45-.02-2.44.3-4.85.87-7.22.81-3.3-.49-6.71.22-10.01 1.29-2.64 3.44-4.75 4.92-7.29-.49-.01-1.46-.04-1.94-.06-.47-1.72-.95-3.43-1.46-5.13.1 2.43.19 4.86.25 7.3-.25-.1-.75-.31-1-.41-.72 4.87-4.24 9.12-3.34 14.34-2.57 1.87-4.15 4.62-5.67 7.34l-.48-1.33c1.2-6.13 3.69-12.6 1.61-18.81-.79-2.48-.85-5.12-1.62-7.6-1.41-3.17-4.83-5.25-8.29-5.18-4.55-.4-9.87-.08-13 3.73m38.15 9.07c.07 3.93-1.29 7.63-2.21 11.4 3.1-3.86 3.25-8.77 4.23-13.37.54-2.55 6.45-2.96 3.14-5.76-2.23 2.16-4.95 4.37-5.16 7.73M113.33 86.4c-.05.61-.17 1.81-.23 2.41 1.17.14 2.29-1.84 2.24-2.88-.5.12-1.5.36-2.01.47m4.77.92c-2.76 2.45-6.41 4.34-7.22 8.27l1.8-.6c1.13-2.97 4.1-4.5 6.7-5.98-.43-.57-.86-1.13-1.28-1.69m10.66 9.39c.54-.18 1.62-.56 2.16-.74 1.18-2.33 2.53-4.72 2.12-7.44-1.73 2.55-3.22 5.28-4.28 8.18M95.88 91.1c.8.97 1.76 1.82 3.09 1.95 3.79.98 7.59 1.94 11.43 2.75-1.1-1.28-2-3.08-3.9-3.2-3.54-.5-7.04-1.44-10.62-1.5m17.86 13.01c.35 1.98.11 3.99.07 5.98-1.53.81-3.02 1.69-4.51 2.57-2.44-.13-4.9-.13-7.32.23 1.56.82 3.27 1.79 5.1 1.22 2.27-.76 5.38-.06 6.9-2.29 3.6.33 7.19-.37 10.03-2.71-2.59.29-5.11 2.39-7.72 1.28-.54-4.55-.99-9.86-4.43-13.23-.46 2.54 1.21 4.64 1.88 6.95m-28.35-.65c1.57 3.91 3.17 7.81 4.96 11.63.64-4.02-1.21-7.66-2.44-11.34-.84-.11-1.68-.2-2.52-.29m6.31 2.03c1.68 4.06 3.51 9.18 7.9 10.95-.61-2.73-2.87-4.5-4.33-6.75-1.06-1.51-1.91-3.25-3.57-4.2m17.95 14.61c1.48.71 2.52-1.8 1.82-2.88-1.31-.32-2.63 1.78-1.82 2.88m-16.48 2.03c-.19.49-.56 1.46-.74 1.95 2.24.27 4.52.1 6.65-.7 1.34.98 2.74 1.92 4.5 1.87-1.29-1.66-2.78-3.23-4.61-4.25-1.86.74-3.81 1.11-5.8 1.13m19.28 1.07c-1.51 1.58-2.81 3.35-4.32 4.94 1.69-.77 3.25-1.77 4.83-2.73 1.73-.47 3.91-.44 4.57-2.51-1.67.03-3.55-.57-5.08.3m5.69 1.74c.63 4.07.07 8.28-.36 12.35-1.85.71-3.89-1.26-5.89-1.38 1.19 1.65 2.86 2.47 4.91 2.21.1.6.3 1.8.41 2.4 3.61-4.28 3.49-10.54 1.98-15.65l-1.05.07m-22.83 3.01c-.77-.05-2.3-.16-3.07-.21l.71 1.3c1.63.07 3.26.16 4.9.17 1.85.9 3.73 1.78 5.36 3.06.42-.86.81-1.75 1.21-2.62l-1.2 1.42c-1.71-1.73-3.56-3.31-5.47-4.81-.82.56-1.63 1.12-2.44 1.69m2.45 5.5c.59 1.08 1.18 2.15 1.78 3.23 1.34.08 2.68.16 4.02.26-1.17-1.08-2.47-2.01-3.78-2.91-.5-.15-1.51-.44-2.02-.58m8.03 2.87c2.02 1.87 3.66 4.69 6.68 4.92-1.05-1.42-2.27-2.72-3.47-4.01l2.53.21c-1.86-.61-3.81-.86-5.74-1.12m-2.86 2.63c.44 2.78 1.29 5.81 3.81 7.42-.64-2.69-.49-6.59-3.81-7.42m5.62 23.32c2.9.03 4.97-2.12 7.29-3.51 3.19-2.22 6.96-3.33 10.39-5.08-6.9-.89-13.16 3.85-17.68 8.59m4.6.03c3.37-.67 6.49-2.15 9.62-3.54 1.51-.14 3.02-.29 4.52-.45-.05-.78-.09-1.55-.12-2.33-4.79 1.84-10.11 2.7-14.02 6.32m-6.8 4.51c-.01.21-.02.64-.02.85 3.26-.41 7.24-.13 9.2-3.35-3.18.36-6.23 1.31-9.18 2.5m58.02 6.85c.97 2.42 1.93 4.86 2.71 7.36-1.33.77-2.32 3.01-4.13 2.33-2.53-1.16-4.64-3.02-6.99-4.48 1.22 3.28 4.45 6 8.07 5.87 2.2.31 3.43-1.94 4.98-3.09-.44-3.03-1.3-6.98-4.64-7.99m7.58 64.05a87.2 87.2 0 01-1.14-8.37c-2.25 2.48-1.27 6.36 1.14 8.37z"/><path d="M155.7 5.8c1.64-2.38 4.61-2.28 7.17-2.35-.44 1.42-.51 2.86.56 4 4.31 5.89 4.65 13.54 4.14 20.54-.84 3.73-1.56 7.69-3.86 10.84-.9 1.25-1.6 2.63-2.18 4.06-8.22.28-10.51-9.36-11.54-15.75 2.9-.62 5.87-.83 8.78-1.4 1.54-1.35.66-3.43.47-5.12-3.27.12-6.51.59-9.72 1.25 1.6-5.51 1.85-11.78 6.18-16.07z"/><path d="M162.85 2.7c6.53 3.12 9.84 10.33 10 17.29.61 8.06-.71 17.41-7.49 22.71-.66-.53-1.32-1.06-1.97-1.59 2.12-.91 2.83-3.16 3.55-5.13 3.11-8.51 3.14-18.2-.33-26.61-1.1-2.31-3.02-4.18-3.76-6.67zM24.92 30.95c1.45-5.67 4.55-13.53 11.75-12.66-.55 3.43 2.57 5.61 3.52 8.62 2.41 6.72 2.02 14.09.47 20.95-1.01 3.83-3.41 7.08-5.91 10.06-6.18-.49-8.39-6.81-9.75-11.88-.19-1.96-2.42-4.07-.77-5.89-2.97.47-5.93.91-8.89 1.38-.01-.66-.01-1.98-.01-2.63 5.68-.22 11.31-1.36 16.96-1.48.29.37.85 1.1 1.13 1.47-2.76.51-5.53.93-8.34 1.13.75.56 1.5 1.13 2.25 1.69 2.07-.38 4.21-.47 6.21-1.15 1.23-1.59 0-3.66-.54-5.3-3.13.49-6.28.87-9.43 1.22.46-1.84.91-3.68 1.35-5.53z"/><path d="M36.94 17.46c3.97 2.17 7.3 5.53 8.67 9.93 2.42 7.32 2.11 15.45-.44 22.7-1.55 3.46-3.91 7.32-7.99 8 .35-.69 1.04-2.09 1.38-2.79 3.06-2.88 3.44-7.31 4.35-11.18 1.31-8.49.31-17.98-5.31-24.84l-.66-1.82zM174.62 19.88c3.43 0 6.82-.67 10.25-.78.37.45 1.13 1.35 1.5 1.81-3.95 1.02-8.02 1.36-12.06 1.81.08-.71.23-2.13.31-2.84zM140.99 24.07c5.46-.42 10.91-.95 16.33-1.74.41.44 1.24 1.33 1.66 1.77-5.98.98-12.01 1.46-17.98 2.44-2.5.46-5.07.36-7.53-.25 2.04-1.86 4.96-1.81 7.52-2.22zM101.48 56.64c3.49-3.1 8.39-3.13 12.78-3.02 1.64 1.35 3.54 2.56 4.58 4.48 2.62 7.49 3.09 15.76.48 23.33-.59 1.28-2.12 1.67-3.19 2.43-2.88-1.06-5.89-1.84-8.63-3.26-1.88-1.31-2.28-3.73-3.59-5.46-1.63-1.29-3.36-2.45-4.84-3.91.16-1.37 2.08-3.05.9-4.3l-2.03.6c-.11-3.86.3-8.3 3.54-10.89zM75.39 155.83c1.92 1.76 3.99 3.37 5.72 5.32-.06 5.12-.58 10.23-.42 15.36 5.28-.67 10.57-2.43 15.15-5.14.05 2.24.12 4.48.26 6.72-12.77 4.47-25.3 9.54-38.05 14.05-.39-2-.53-4.03-.6-6.06 5.51-2.1 10.92-4.46 16.53-6.27.33-.43.98-1.29 1.31-1.72.05-7.42.1-14.84.1-22.26z"/><path d="M83.02 162.34c3.12 2.94 6.37 5.74 9.75 8.38-3.08 1.69-6.5 2.59-9.77 3.81 0-4.06-.01-8.13.02-12.19zM123.5 178.28c1.18-.75 2.37-1.5 3.55-2.27 1.74 1.41 3.22 3.11 4.11 5.19 1.46.1 2.96.14 4.31-.51 4.81 3.03 10.52 3.54 16.06 3.14.24 1.76 2.6 4.61-.05 5.42-5.62 2.16-11.42 3.89-17.28 5.31-2.9.82-6.43.76-8.49 3.35 1.13-5.74-.45-11.5-3.14-16.55.23-.77.69-2.31.93-3.08zM106.05 178.24c3.62-1.12 7.42-.38 11.12-.17 2.27 3.4 4.91 6.73 5.86 10.8.76 2.86.57 5.85.7 8.78-1.17-3.26-3.47-8.59-7.81-6.9-1.78 1.58-3.66 3.1-5.02 5.08 3.28.57 4.15-4.18 6.88-3.74 3.17 1.55 4.33 5.31 2.91 8.48l1.08 1.44c-2.53 6.12-3.87 12.71-7.25 18.46-2.11 3.67-2.11 7.97-2.07 12.07.43-.08 1.28-.25 1.71-.33.58-4.23.79-8.55 2.19-12.62l1.08.06c.12 4.2.33 8.56-1.44 12.49-3.12 7.08-2.75 15.16-.41 22.4 2.86 7.19 8.07 12.97 12.6 19.12-1 .51-2.01 1.01-3.03 1.5-1.02-1.41-2.02-2.83-3.03-4.24-3.11.78-6.31.95-9.5.65-.09.48-.27 1.46-.37 1.94 3.11.13 6.19.5 9.25-.33.45.5 1.34 1.51 1.79 2.01-3.44 2.2-8.18 2.37-11.39-.34-2.35-1.61-1.53-4.86-2.64-7.16-1.49-3.56-2.51-7.28-3.86-10.89.48-2.93 1.21-5.86 1.02-8.86-.25-6.84-3.75-13.1-3.89-19.96.14-4.71 1.75-9.21 3.53-13.52 2.01 2.19 1.72 6.24 4.65 7.45-1.39-6.51-4.84-13.12-2.76-19.85-.86-6.23-3.99-11.7-7.23-16.97 1.54-2.42 2.81-5.29 5.33-6.85m7.92 28.36c.28.84.62 1.65 1.04 2.43 1.63.41 2.58-.67 3.29-1.98-1.44-.18-2.88-.33-4.33-.45M108 258.18c2.97-1.66 4.59-5.01 4.8-8.32-2.85 1.8-4.11 5.18-4.8 8.32z"/><path d="M123.54 202c.83-1.4 1.09-3.34 2.75-4.04 2.42 2.37.51 6.02.64 8.97.07 6.74-.54 13.51 0 20.23 1.38.38 2.7-.38 3.99-.75 4.69-1.73 9.45-3.26 14.21-4.81 2.03-.92 3.9.69 5.53 1.69-.29.87-.87 2.63-1.15 3.5-10.11 4.1-20.47 7.52-30.57 11.64l-1.27 1.34c-1.99-2.95.34-6.24 1.06-9.23 1.98-5.73-.37-11.88 1.41-17.64.74-3.76 2.9-7.08 3.4-10.9z"/></g><g fill="#333"><path d="M163.46 1.7c7.44 2 9.99 10.31 10.76 17.11 3.46-.19 6.9-.69 10.34-1.18 2.18-.5 2.91 2.76 2.62 4.43-4.06 1.62-8.61 1.33-12.9 1.58-.23 6.96-1.41 14.92-6.98 19.71-2.24 2.22-5.58 1.37-8.39 1.29-3.38-.49-5.78-3.4-7.12-6.35-1.55-3.51-3.03-7.36-2.13-11.26-5.31.61-10.64 1.06-15.91 1.9-.78 1.34-.7 2.6.24 3.79 2.44 5.1 8.33 7.26 10.84 12.32 2.78 4.02 1.22 9.35 3.88 13.41 1.2 3.5-.74 7.12-1.55 10.52-1.65 4.37-1.66 9.11-2.8 13.6-2.61 7.05-7.74 12.75-11.18 19.36.03 5.37.66 11.08-1.81 16.06-1.52 6.27.05 13.34-3.94 18.92.09 2.38.25 4.76.28 7.14.26.53.77 1.58 1.02 2.1 3.09 1.53 4.16 4.62 4.12 7.9-.43-.34-1.3-1.02-1.73-1.36-.71-2.12-2.14-3.83-3.74-5.34-4.18 2.21-8.74 3.85-13.44 4.44-4.92-.32-9.72-1.66-14.67-1.87-1.25-.77-2.5-1.53-3.75-2.29-.37 1.61-1.51 2.6-3.01 3.15-1.32 4.1.03 8.3 1 12.32.53.26 1.6.8 2.13 1.06l-.39-1.71c3.66-1.62 7.17-3.93 8.87-7.72-1.73-.35-3.6-1.84-5.36-1.23-1.29 2.07-1.81 4.48-2.67 6.74-.82-2.98-.06-6.06 1.63-8.58 1.93-.76 3.99.54 5.91.87 3.68 1.45 7.72.66 11.48 1.7-2.96 1.44-6.21 1.84-9.36.82-1.76 5.02-6.76 8.47-7.58 13.92-.14 4.61-.48 9.46 1.63 13.72 1.66-2.5 3.38-5.44 6.35-6.5 3.84-.72 7.77-.21 11.65-.26 1.06 1.11 2.14 2.22 3.23 3.31-.07-1.39-.15-2.77-.23-4.15 2.35-.26 4.69-.64 6.98-1.24 2.44 1.06 4.39 2.86 5.82 5.1.88-3.58 1.37-7.22 1.6-10.88 1.66-4.29 5.23-7.48 8.99-9.96-3.78-1.71-9.44.79-11.95-3.27 5.6.06 11.21.74 16.56 2.43.33.44.97 1.34 1.29 1.79 5 1.9 9.94 4.33 13.93 7.95 3.29 3.24 8.6 3.67 11.18 7.79 1.31 2.56 2.27 5.32 2.89 8.13-1.51 6.89-1.69 14.15-.24 21.08.86 7.53-.97 15.37 1.76 22.65 5.87 3.31 8.6 11.93 16.43 11.39 1.25 1.34 2.46 2.74 3.62 4.17-2.23 4.36-8.06 6.8-12.68 5.1-4.42 1.21-7.51-4.05-11.95-2.98-3.48.54-7.18.63-10.14-1.57-1.84-8.24 3.96-15.98 1.66-24.16-.98-5.37-4.89-9.95-4.73-15.56.06-3.88-.05-7.96 1.61-11.56 1.13 5.06.03 10.31 1.24 15.36.2 4.08 3.83 7 3.96 11.09.24 3.55.38 7.15-.07 10.68-1.09 3.98-1.82 8.09-1.82 12.23 2.48 4.37 8.26.8 12.2 1.98 4.4 1.73 9.24 3.48 14 2.56 1.39-.96 4.26-1.14 4.08-3.32-1.32-2.01-3.94-1.83-5.96-2.56-3.44-1.14-5.67-4.21-7.84-6.91-1.61-2.06-3.85-3.5-5.55-5.46-2.73-7.41-1.5-15.34-2.16-23.02-1.88-6.95-.47-14.15.4-21.13-.58-2.97-1.79-5.87-3.39-8.43-2.23-1.87-5.28-2.41-7.51-4.31-5.79-4.84-12.46-8.97-19.98-10.37-6.32 3.63-10.3 11.1-9.39 18.39 2.6 1.44 5.31 3.1 8.42 2.82 5.42-.34 11.39.4 15.23 4.67 2.06 2.59 7.25.88 7.63 4.78-4.86.71-8.92-2.63-12.36-5.57.63 2.05.26 4.09-.47 6.03-8.2 2.72-16.41 5.43-24.85 7.28.09 8.92-.12 17.84-.54 26.76 5.47-1.88 10.86-4.02 16.38-5.76 2.78-1.08 5.18 1.47 7.58 2.51-.71 2.35.06 5.95-2.69 7.1-7.76 3-15.56 5.89-23.38 8.72-3.47 1.14-6.71 3.53-10.51 3.09.1 5.3-.4 11.04 2.55 15.75 2.15 3.47 3.79 7.33 6.75 10.23 1.85 2.38 4.67 4.89 3.79 8.25-.67 1.76-2.63 1.67-4.17 1.9-5.81 5.12-17.82 1.68-17.67-6.87-2.13-4.44-2.83-9.24-3.69-14.04.22-3.62.82-7.24.45-10.87-.49-6.16-3.49-11.92-3.48-18.13.7-3.84 1.95-7.55 3.15-11.26 1.98-4.37 1.13-9.28 2.1-13.88-.78-3.5-1.79-6.98-3.71-10.04-1.99.45-4.52-.79-4.34-3.06.37-3.09-.27-6.11-1.16-9.05-12.54 5.14-25.36 9.55-37.98 14.45-1.03-.83-2.15-1.56-3.02-2.57-.31-2.01-.27-4.08.06-6.08 1.02-1.36 2.75-1.86 4.26-2.46 4.42-1.52 8.87-2.94 13.19-4.74.6-7.88.05-15.8.67-23.69-3.92-3.23-8.66-5.85-11.2-10.43.73-1.91.52-4.73 2.73-5.68 3.41-.94 6.92-1.47 10.37-2.25.24.44.73 1.3.98 1.74-3.92.86-7.87 1.68-11.65 3.04-.02 1.24-.03 2.49-.05 3.73 3.18 2.95 6.55 5.7 10.13 8.14 6.29 5.06 12.02 10.88 18.64 15.49l-.87-2.62c1.32-.55 2.67-1.02 4.03-1.47-.36 1.63-.81 3.26-1.13 4.91a108.8 108.8 0 003.43-7.34c-.86.72-1.71 1.46-2.55 2.22-1.42.22-2.88.31-4.21.88-.14-1.16-.66-2.15-1.55-2.97.63-5.33-.24-11.07 3.17-15.64l-2.16-1.36c-.21-3.93-.86-7.81-1.26-11.72-3.41-2.12-4.34-6.19-6.67-9.21-2.46-3.21-3.49-7.23-3.75-11.2-1.8-1.65-1.78-4.02-1.46-6.24-2.08-2.9-4.81-5.32-6.64-8.39-1.35-5.29-2.33-10.69-2.97-16.11-.23-3.32-3.55-5.68-3.15-9.1.48-6-1.22-12.05.05-18 .95-4.81 1.39-9.76.61-14.63-1.01-.87-1.8-1.93-2.4-3.12-5.14.88-10.33 1.33-15.52 1.77-.74 6.66-1.71 14.14-6.91 18.94-2.5 2.54-6.38 1.72-9.56 1.54-6.72-2.71-8.32-10.83-9.19-17.25-3.09.15-6.14.57-9.21.89-1.62.64-2.16-1.31-2.97-2.21.73-.99.64-3.06 2.19-3.11 3.33-.39 6.65-.77 9.95-1.34.46-6.55 2.08-13.78 7.34-18.18 3.74-2.13 9.01-2.05 12.23 1.05 3.76 3.85 5.13 9.3 5.89 14.47 5.25-.96 10.57-1.43 15.86-2.08.11-.45.31-1.36.41-1.81 4.7-2.28 9.85-3.51 15.08-3.37 1.48-.27 1.86 1.56 2.68 2.35 2.78.01 5.54-.34 8.29-.75 5.43.53 10.72-1.23 16.12-1.43 2.42-.13 4.83-.46 7.22-.91.68-1.85 2.1-2.68 4.24-2.47-.67.59-2.01 1.78-2.68 2.38 1.61-.42 2.92-.05 3.93 1.08-12.72 1.81-25.52 2.95-38.26 4.55.2-1.79-.48-3.34-2.45-3.44-4.04-.9-8.28-.01-11.91 1.88-.29 1.45-.58 2.91-.9 4.36-5.84-1.39-11.79 1.16-17.71 1.07.03.57.08 1.7.1 2.27 6.3-.88 12.62-1.79 18.97-2.1-.02 2.1.53 5.14 3.38 4.3-.63.87-1.25 1.74-1.86 2.62.83 5.01-1.05 9.81-1.27 14.77-.82 8.06-.02 16.45 3.29 23.9 2.01 7.42 1.08 17.13 8.6 21.67 1.43 3.71.14 8.29 3.01 11.39.53 5.31 4.18 9.43 5.76 14.37 1.65 1.03 3.57 1.89 4.67 3.58.71 4.3.86 8.68 1.23 13.02 2.76 1.32 5.41 3.36 8.62 3.24 3.6.03 7.14.74 10.64 1.55-.22-.57-.67-1.72-.89-2.3l-.58.93c-.6-.63-1.81-1.91-2.41-2.55 1.23.1 2.46.21 3.69.33.41 1.14.84 2.29 1.37 3.39 3.96-1.3 8.28-1.67 11.8-4.11-.52-2.3.57-5.79-2.14-6.95-1-.63-2.03-1.23-3.04-1.84.53-.66 1.07-1.31 1.6-1.97.68.82 1.19 2.87 2.67 2.11 2.52-2 1.55-5.8 2.3-8.59l-1.19.05c-.21-2.45-1.12-4.67-3.32-5.98-1.74.6-3.49 1.16-5.22 1.77.2-2.73-.91-5.2-2.23-7.5.75 0 2.24 0 2.99.01-.2.66-.42 1.33-.66 1.99.38 1.28.75 2.56 1.12 3.85 1.02-.41 2.01-.89 2.98-1.41 1.19-.15 2.38-.2 3.57-.21.09 1.22.19 2.44.28 3.66l2.64.44c.84-2.75.44-5.54-.57-8.18.62.2 1.86.62 2.48.83 1.59-5.3 0-11.05 1.87-16.22-.19-3.69 2.83-6.11 4.81-8.83 2.4-3.3 4.69-6.78 5.98-10.68.94-3.18-.41-6.57.82-9.71 1.39-4.54 3.59-9.22 1.53-13.95-.12-5.13-1.39-10.34-4.37-14.58-2.31-3.28-5.91-5.35-8.27-8.57-2.64-2.74.97-6.75-1.51-9.65-3.31-2.01-7.61-.27-10.87-2.64 1.77-.35 3.63-.37 5.22.6 2.39-.39 4.86-.7 7.14.35 4.65-.65 9.34-1.06 13.99-1.66 1.68-.45 2.17-2.46 2.18-3.98.4-5.08 2.42-10.09 5.9-13.85 2.09-2.25 5.47-1.75 8.2-2.47m-7.76 4.1c-4.33 4.29-4.58 10.56-6.18 16.07 3.21-.66 6.45-1.13 9.72-1.25.19 1.69 1.07 3.77-.47 5.12-2.91.57-5.88.78-8.78 1.4 1.03 6.39 3.32 16.03 11.54 15.75.58-1.43 1.28-2.81 2.18-4.06 2.3-3.15 3.02-7.11 3.86-10.84.51-7 .17-14.65-4.14-20.54-1.07-1.14-1-2.58-.56-4-2.56.07-5.53-.03-7.17 2.35m7.15-3.1c.74 2.49 2.66 4.36 3.76 6.67 3.47 8.41 3.44 18.1.33 26.61-.72 1.97-1.43 4.22-3.55 5.13.65.53 1.31 1.06 1.97 1.59 6.78-5.3 8.1-14.65 7.49-22.71-.16-6.96-3.47-14.17-10-17.29M24.92 30.95c-.44 1.85-.89 3.69-1.35 5.53 3.15-.35 6.3-.73 9.43-1.22.54 1.64 1.77 3.71.54 5.3-2 .68-4.14.77-6.21 1.15-.75-.56-1.5-1.13-2.25-1.69 2.81-.2 5.58-.62 8.34-1.13-.28-.37-.84-1.1-1.13-1.47-5.65.12-11.28 1.26-16.96 1.48 0 .65 0 1.97.01 2.63 2.96-.47 5.92-.91 8.89-1.38-1.65 1.82.58 3.93.77 5.89 1.36 5.07 3.57 11.39 9.75 11.88 2.5-2.98 4.9-6.23 5.91-10.06 1.55-6.86 1.94-14.23-.47-20.95-.95-3.01-4.07-5.19-3.52-8.62-7.2-.87-10.3 6.99-11.75 12.66m12.02-13.49l.66 1.82c5.62 6.86 6.62 16.35 5.31 24.84-.91 3.87-1.29 8.3-4.35 11.18-.34.7-1.03 2.1-1.38 2.79 4.08-.68 6.44-4.54 7.99-8 2.55-7.25 2.86-15.38.44-22.7-1.37-4.4-4.7-7.76-8.67-9.93m137.68 2.42c-.08.71-.23 2.13-.31 2.84 4.04-.45 8.11-.79 12.06-1.81-.37-.46-1.13-1.36-1.5-1.81-3.43.11-6.82.78-10.25.78m-33.63 4.19c-2.56.41-5.48.36-7.52 2.22 2.46.61 5.03.71 7.53.25 5.97-.98 12-1.46 17.98-2.44a269.1 269.1 0 01-1.66-1.77c-5.42.79-10.87 1.32-16.33 1.74m-65.6 131.76c0 7.42-.05 14.84-.1 22.26-.33.43-.98 1.29-1.31 1.72-5.61 1.81-11.02 4.17-16.53 6.27.07 2.03.21 4.06.6 6.06 12.75-4.51 25.28-9.58 38.05-14.05-.14-2.24-.21-4.48-.26-6.72-4.58 2.71-9.87 4.47-15.15 5.14-.16-5.13.36-10.24.42-15.36-1.73-1.95-3.8-3.56-5.72-5.32m7.63 6.51c-.03 4.06-.02 8.13-.02 12.19 3.27-1.22 6.69-2.12 9.77-3.81a138.86 138.86 0 01-9.75-8.38m40.48 15.94c-.24.77-.7 2.31-.93 3.08 2.69 5.05 4.27 10.81 3.14 16.55 2.06-2.59 5.59-2.53 8.49-3.35 5.86-1.42 11.66-3.15 17.28-5.31 2.65-.81.29-3.66.05-5.42-5.54.4-11.25-.11-16.06-3.14-1.35.65-2.85.61-4.31.51-.89-2.08-2.37-3.78-4.11-5.19-1.18.77-2.37 1.52-3.55 2.27m-17.45-.04c-2.52 1.56-3.79 4.43-5.33 6.85 3.24 5.27 6.37 10.74 7.23 16.97-2.08 6.73 1.37 13.34 2.76 19.85-2.93-1.21-2.64-5.26-4.65-7.45-1.78 4.31-3.39 8.81-3.53 13.52.14 6.86 3.64 13.12 3.89 19.96.19 3-.54 5.93-1.02 8.86 1.35 3.61 2.37 7.33 3.86 10.89 1.11 2.3.29 5.55 2.64 7.16 3.21 2.71 7.95 2.54 11.39.34-.45-.5-1.34-1.51-1.79-2.01-3.06.83-6.14.46-9.25.33.1-.48.28-1.46.37-1.94 3.19.3 6.39.13 9.5-.65 1.01 1.41 2.01 2.83 3.03 4.24 1.02-.49 2.03-.99 3.03-1.5-4.53-6.15-9.74-11.93-12.6-19.12-2.34-7.24-2.71-15.32.41-22.4 1.77-3.93 1.56-8.29 1.44-12.49l-1.08-.06c-1.4 4.07-1.61 8.39-2.19 12.62-.43.08-1.28.25-1.71.33-.04-4.1-.04-8.4 2.07-12.07 3.38-5.75 4.72-12.34 7.25-18.46l-1.08-1.44c1.42-3.17.26-6.93-2.91-8.48-2.73-.44-3.6 4.31-6.88 3.74 1.36-1.98 3.24-3.5 5.02-5.08 4.34-1.69 6.64 3.64 7.81 6.9-.13-2.93.06-5.92-.7-8.78-.95-4.07-3.59-7.4-5.86-10.8-3.7-.21-7.5-.95-11.12.17M123.54 202c-.5 3.82-2.66 7.14-3.4 10.9-1.78 5.76.57 11.91-1.41 17.64-.72 2.99-3.05 6.28-1.06 9.23l1.27-1.34c10.1-4.12 20.46-7.54 30.57-11.64.28-.87.86-2.63 1.15-3.5-1.63-1-3.5-2.61-5.53-1.69-4.76 1.55-9.52 3.08-14.21 4.81-1.29.37-2.61 1.13-3.99.75-.54-6.72.07-13.49 0-20.23-.13-2.95 1.78-6.6-.64-8.97-1.66.7-1.92 2.64-2.75 4.04z"/><path d="M95.16 31.75c8-.59 15.91-2.1 23.93-2.37-1.28.86-2.79 1.52-3.58 2.94 2.01.72 4.22 1.05 6.07 2.18 2.49 2.25 4.21 5.24 5.6 8.26.85 3.38.73 6.93 1.45 10.34-1.59-4.97-2.51-10.43-6.44-14.21-1.97-3.71-8.45-2.57-8.53-7.59-9.27 1.2-18.54 2.39-27.82 3.38-2.22 2.53-4.42 5.06-6.57 7.64-.13 4.06.54 8.19 2.43 11.82 3.91 6.62-1.3 14.31 1.12 21.26l2.05.77c-1.16-.01-2.33-.03-3.49-.04.17 1.66.33 3.33.47 5 2.25 3.18 2.49 7.08 2.91 10.81 1.49 1.74 3.22 3.29 4.56 5.16-1.4-.58-2.79-1.18-4.17-1.8.29 1.48.57 2.96.85 4.44-.77-.58-1.55-1.16-2.32-1.73 2.3-5.17-.92-10.22-3.01-14.84-2.71-3.7 2.86-8.08-.15-11.7-1.83-2.35-4.96-.81-7.4-.7.33-.31.97-.94 1.3-1.25.85.12 2.55.36 3.4.47v-1.52l2.63-.04c1.69-4.01 2.05-8.95.01-12.9-1.98-4.38-2.79-9.21-2.9-13.99 1.53-2.1 3.01-4.24 4.78-6.15.44-.98.88-1.97 1.38-2.92 3.84.77 7.63-.42 11.44-.72z"/><path d="M122.61 31.92c1.22-.31 2.62-.38 3.36-1.56 1.86 2.92 4.16 5.52 6.22 8.31-.58-.05-1.74-.14-2.32-.18-1.77-2.13-3.36-4.4-4.62-6.87-1.1.84-2.19 1.68-3.29 2.52.16-.56.49-1.66.65-2.22zM99.05 55.98c3.13-3.81 8.45-4.13 13-3.73 3.46-.07 6.88 2.01 8.29 5.18.77 2.48.83 5.12 1.62 7.6 2.08 6.21-.41 12.68-1.61 18.81l.48 1.33c1.52-2.72 3.1-5.47 5.67-7.34-.9-5.22 2.62-9.47 3.34-14.34.25.1.75.31 1 .41-.06-2.44-.15-4.87-.25-7.3.51 1.7.99 3.41 1.46 5.13.48.02 1.45.05 1.94.06-1.48 2.54-3.63 4.65-4.92 7.29-.71 3.3.59 6.71-.22 10.01-.57 2.37-.89 4.78-.87 7.22 1.35-1.41 2.03-4.38 4.59-3.45.65-1.9 1.38-3.77 2.23-5.59-.04 1.86.16 3.77-.24 5.6-2.86.56-4.85 3.28-4.9 6.14-.09 1.79-.53 3.53-1.41 5.11-.15 2.3-.8 4.57-.74 6.87 1.4 3.78.49 8.37-1.58 11.71.06-3.28 1.01-6.45 1.31-9.71-.92-1.13-2.34-2.26-1.66-3.9 1.82-6.32 1.08-12.87 1.12-19.33-.95 2.09-2.12 4.06-3.32 6.01-.61.47-1.82 1.41-2.43 1.87-.51-.62-1.02-1.25-1.51-1.89-4.71-.26-9.77-.61-13.58-3.71-1.55-1.67-2.34-3.86-3.27-5.9-.81 4.46-1.3 9.4-4.77 12.72-.81-.31-1.62-.63-2.42-.95-2.03.65-4.13 1.76-6.29 1-.15.64-.44 1.91-.58 2.55-1.08-4.71-2.75-9.22-5.16-13.42.54-.48 1.08-.97 1.63-1.45.91 2.87 2.37 5.52 3.34 8.37 1.47.84 2.91 1.71 4.34 2.62.32-.39.97-1.18 1.3-1.57 1.51-.55 3.01-1.14 4.51-1.73.99-2.93 1.41-6 1.81-9.05-1.17-1.61-2.91-3.04-3.12-5.14-.49-4.68-1.83-10.33 1.87-14.11m2.43.66c-3.24 2.59-3.65 7.03-3.54 10.89l2.03-.6c1.18 1.25-.74 2.93-.9 4.3 1.48 1.46 3.21 2.62 4.84 3.91 1.31 1.73 1.71 4.15 3.59 5.46 2.74 1.42 5.75 2.2 8.63 3.26 1.07-.76 2.6-1.15 3.19-2.43 2.61-7.57 2.14-15.84-.48-23.33-1.04-1.92-2.94-3.13-4.58-4.48-4.39-.11-9.29-.08-12.78 3.02zM137.2 65.05c.21-3.36 2.93-5.57 5.16-7.73 3.31 2.8-2.6 3.21-3.14 5.76-.98 4.6-1.13 9.51-4.23 13.37.92-3.77 2.28-7.47 2.21-11.4z"/><path d="M113.33 86.4c.51-.11 1.51-.35 2.01-.47.05 1.04-1.07 3.02-2.24 2.88.06-.6.18-1.8.23-2.41zM118.1 87.32c.42.56.85 1.12 1.28 1.69-2.6 1.48-5.57 3.01-6.7 5.98l-1.8.6c.81-3.93 4.46-5.82 7.22-8.27zM128.76 96.71c1.06-2.9 2.55-5.63 4.28-8.18.41 2.72-.94 5.11-2.12 7.44-.54.18-1.62.56-2.16.74zM95.88 91.1c3.58.06 7.08 1 10.62 1.5 1.9.12 2.8 1.92 3.9 3.2-3.84-.81-7.64-1.77-11.43-2.75-1.33-.13-2.29-.98-3.09-1.95zM113.74 104.11c-.67-2.31-2.34-4.41-1.88-6.95 3.44 3.37 3.89 8.68 4.43 13.23 2.61 1.11 5.13-.99 7.72-1.28-2.84 2.34-6.43 3.04-10.03 2.71-1.52 2.23-4.63 1.53-6.9 2.29-1.83.57-3.54-.4-5.1-1.22 2.42-.36 4.88-.36 7.32-.23 1.49-.88 2.98-1.76 4.51-2.57.04-1.99.28-4-.07-5.98zM85.39 103.46c.84.09 1.68.18 2.52.29 1.23 3.68 3.08 7.32 2.44 11.34-1.79-3.82-3.39-7.72-4.96-11.63zM91.7 105.49c1.66.95 2.51 2.69 3.57 4.2 1.46 2.25 3.72 4.02 4.33 6.75-4.39-1.77-6.22-6.89-7.9-10.95zM109.65 120.1c-.81-1.1.51-3.2 1.82-2.88.7 1.08-.34 3.59-1.82 2.88zM93.17 122.13c1.99-.02 3.94-.39 5.8-1.13 1.83 1.02 3.32 2.59 4.61 4.25-1.76.05-3.16-.89-4.5-1.87-2.13.8-4.41.97-6.65.7.18-.49.55-1.46.74-1.95zM112.45 123.2c1.53-.87 3.41-.27 5.08-.3-.66 2.07-2.84 2.04-4.57 2.51-1.58.96-3.14 1.96-4.83 2.73 1.51-1.59 2.81-3.36 4.32-4.94zM118.14 124.94l1.05-.07c1.51 5.11 1.63 11.37-1.98 15.65-.11-.6-.31-1.8-.41-2.4-2.05.26-3.72-.56-4.91-2.21 2 .12 4.04 2.09 5.89 1.38.43-4.07.99-8.28.36-12.35zM95.31 127.95c.81-.57 1.62-1.13 2.44-1.69 1.91 1.5 3.76 3.08 5.47 4.81l1.2-1.42c-.4.87-.79 1.76-1.21 2.62-1.63-1.28-3.51-2.16-5.36-3.06-1.64-.01-3.27-.1-4.9-.17l-.71-1.3c.77.05 2.3.16 3.07.21zM97.76 133.45c.51.14 1.52.43 2.02.58 1.31.9 2.61 1.83 3.78 2.91-1.34-.1-2.68-.18-4.02-.26-.6-1.08-1.19-2.15-1.78-3.23zM105.79 136.32c1.93.26 3.88.51 5.74 1.12l-2.53-.21c1.2 1.29 2.42 2.59 3.47 4.01-3.02-.23-4.66-3.05-6.68-4.92zM102.93 138.95c3.32.83 3.17 4.73 3.81 7.42-2.52-1.61-3.37-4.64-3.81-7.42zM108.55 162.27c4.52-4.74 10.78-9.48 17.68-8.59-3.43 1.75-7.2 2.86-10.39 5.08-2.32 1.39-4.39 3.54-7.29 3.51zM113.15 162.3c3.91-3.62 9.23-4.48 14.02-6.32.03.78.07 1.55.12 2.33-1.5.16-3.01.31-4.52.45-3.13 1.39-6.25 2.87-9.62 3.54zM106.35 166.81c2.95-1.19 6-2.14 9.18-2.5-1.96 3.22-5.94 2.94-9.2 3.35 0-.21.01-.64.02-.85zM164.37 173.66c3.34 1.01 4.2 4.96 4.64 7.99-1.55 1.15-2.78 3.4-4.98 3.09-3.62.13-6.85-2.59-8.07-5.87 2.35 1.46 4.46 3.32 6.99 4.48 1.81.68 2.8-1.56 4.13-2.33-.78-2.5-1.74-4.94-2.71-7.36zM113.97 206.6c1.45.12 2.89.27 4.33.45-.71 1.31-1.66 2.39-3.29 1.98-.42-.78-.76-1.59-1.04-2.43zM171.95 237.71c-2.41-2.01-3.39-5.89-1.14-8.37.24 2.81.63 5.6 1.14 8.37zM108 258.18c.69-3.14 1.95-6.52 4.8-8.32-.21 3.31-1.83 6.66-4.8 8.32z"/></g></svg>