<svg width="227pt" height="400" viewBox="0 0 227 300" xmlns="http://www.w3.org/2000/svg"><g fill="#FFF"><path d="M0 0h227v300H0V0m90.17 52.15c-2.95 1.06-6.22 2.27-7.72 5.27-1.26.68-2.88 1.12-3.48 2.58-1.4 2.98-3.01 5.92-3.86 9.13-.98 4.47 2.37 8.35 2.47 12.74.02 3.42.89 6.74 1.27 10.1-1.79 6.51-1.96 13.74 1.79 19.62-1.03 6.42 3.25 11.8 5.07 17.64.71 2.67 2.92 4.34 4.71 6.25 1.1 2.54 1.45 5.35 2.41 7.96-.14.38-.43 1.14-.57 1.53l1.84 1.32c-.94 2.23-2.59 4.32-2.56 6.84.02 3.99-1.5 8.2.97 11.79 2.33-.87 4.63-1.79 6.86-2.89-1.22 2.41-2.37 4.86-3.65 7.24.32-1.27.67-2.56 1.05-3.8-1.22-.4-2.49-.37-3.73-.08.09.78.25 2.35.33 3.13-5.5-4.87-11.21-9.51-16.68-14.41-3.85-3.1-8.2-5.67-11.48-9.4-.15-1.27-.22-2.54-.22-3.81 4.04-1.47 8.41-1.92 12.35-3.69-1.14-.36-2.29-.95-3.51-.59-3.48.68-7.12 1.1-10.26 2.86-.11 2.33-1.19 5.1.63 7.04 2.88 3.03 6.37 5.43 9.66 8.01-.6 7.88-.11 15.8-.61 23.68-4.62 1.99-9.45 3.4-14.16 5.14-1.19.53-2.61.97-3.35 2.11-.33 2-.38 4.08-.03 6.08.85.95 1.92 1.69 2.92 2.49 12.66-4.85 25.46-9.32 38.02-14.43.94 3.19 1.81 6.51.97 9.84 1.07 1.67 2.67 2.56 4.7 2.39 1.94 3.78 3.89 7.95 3.25 12.31-.4 3.89-.14 7.95-1.81 11.6-1.19 4.03-2.82 8.05-3.15 12.27.57 6.14 3.25 11.92 3.6 18.11.21 3.29-.35 6.56-.52 9.83.45 2.67 1.08 5.3 1.36 8 1.24 3.23 2.73 6.38 3.02 9.88 3.33 5.63 11.87 7.14 16.9 3 1.67-.26 3.87-.25 4.23-2.34.55-4.42-3.92-7.19-6.11-10.48-2.27-3.87-5.04-7.6-6.33-11.94-1.31-6.97-.88-14.35 1.76-20.97 1.83-4.87.56-10.1.96-15.13.87-5.31 3.06-10.27 4.8-15.33 3.44-6.03 1.36-13.38-1.72-19.1.3-1.09.59-2.19.89-3.28 1.2-.76 2.41-1.53 3.62-2.29 1.67 1.43 3.11 3.1 4.16 5.04.74.13 2.22.41 2.96.54.26-.27.8-.82 1.07-1.09 4.81 3.25 10.68 3.72 16.31 3.29.45 1.5.94 2.98 1.31 4.51-2.44 2.1-5.83 2.45-8.76 3.56-5.83 2.05-11.95 3.02-17.84 4.85 1.97 3.88.83 8.17.69 12.28.75.61 1.49 1.22 2.24 1.84-.02-4.18.05-8.36.02-12.54 7.92-1.77 15.66-4.2 23.35-6.77 2.69-.91 2.39-4.29 2.03-6.51 3.42 2.96 7.52 6.23 12.35 5.54-.71-3.72-5.66-2.24-7.78-4.79-3.59-3.93-9.07-4.91-14.17-4.58-3.43.4-6.51-1.21-9.41-2.79-.05-3.05-.06-6.12 1.03-9.01 2.11-3.74 4.47-7.44 8.39-9.5 7.53 1.42 14.19 5.53 20 10.37 2.63 2.43 7.25 2.49 8.63 6.19 1.07 2.73 2.78 5.52 2.11 8.57-.91 6.32-1.95 12.85-.22 19.13.68 7.69-.69 15.71 2.26 23.07 1.83 2.13 4.24 3.7 5.91 5.99 2.13 2.78 4.61 5.73 8.19 6.55 1.77.57 4.03.54 5.11 2.33.28 2.24-2.71 2.38-4.08 3.4-4.71.85-9.52-.79-13.86-2.56-3.99-1.23-9.67 2.29-12.36-1.9-.08-4.16.72-8.28 1.79-12.28.44-3.57.34-7.2.09-10.78-.14-4.07-3.74-6.99-3.95-11.06-1.21-5.09-.14-10.36-1.26-15.44-1.94 6.37-2.52 13.66.53 19.79 2.48 5.18 4.29 11.19 2.6 16.9-1.41 4.77-2.38 9.75-1.57 14.74 3.02 2.04 6.66 1.98 10.12 1.47 4.43-.97 7.51 4.02 11.93 3.03 3.88 1.67 7.48-.67 10.93-2.26.53-1 1.08-2 1.63-2.99a95.91 95.91 0 00-3.5-4.02c-7.69.4-10.78-7.76-16.27-11.51-3.42-7.42-.61-15.9-2.16-23.7-1.14-4.56-.66-9.28-.64-13.92.1-2.62 1.65-5.22.65-7.81-1.06-2.97-1.7-6.43-4.41-8.41-2.52-2.38-6.2-2.87-8.71-5.26-4.04-3.84-9.17-6.22-14.22-8.44-1.12-.97-2.19-2.13-3.72-2.41-4.69-1.22-9.57-1.75-14.42-1.44 3.19 3.28 8.18 1.48 12.12 2.84-3.66 2.6-7.39 5.68-9 10.01-.32 3.68-.79 7.35-1.63 10.96-1.48-2.21-3.42-4.02-5.85-5.13-2.3.59-4.64 1.01-6.99 1.39.09 1.35.18 2.71.25 4.06-1.11-1.12-2.21-2.25-3.29-3.39-4.13.11-8.38-.6-12.4.59-2.4 1.44-3.86 3.94-5.66 6.01-1.91-3.88-1.69-8.31-1.78-12.51.49-5.93 5.8-9.7 7.86-14.96 3.17.98 6.43.57 9.39-.9-3.6-.77-7.37-.2-10.89-1.4-2.13-.5-4.25-1.53-6.49-1.22-1.65 2.6-2.48 5.68-1.75 8.73.87-2.3 1.47-4.72 2.67-6.89 1.92-.26 3.67.81 5.45 1.35-1.67 3.5-4.74 6.04-8.35 7.35-.76.52-1.53 1.05-2.29 1.59-.73-4.22-2.54-8.51-1.03-12.77 1.36-.73 2.5-1.74 3.13-3.18 3.82 3.13 8.87 2.39 13.39 3.46 6.39 1.68 12.81-1.1 18.45-3.9 1.98 2.18 3.52 4.69 5.24 7.08.23-3.38-.8-6.61-3.98-8.19-.27-.51-.8-1.51-1.06-2.02-.92-5.77 1.22-12.06-1.6-17.41-2.12 6.18 1.17 12.79.05 19.02-3.34 2.4-7.6 2.51-11.37 3.85a38.87 38.87 0 01-1.27-3.14c-1.73-1.16-3.41-2.58-5.58-2.75 1.31 1.7 2.79 3.25 4.32 4.77l.5-1.11c.24.62.71 1.85.95 2.47-3.5-.82-7.04-1.56-10.66-1.58-3.24.12-5.92-1.93-8.72-3.22-.35-2.63-1.03-5.18-1.74-7.72.45-.33 1.34-.97 1.79-1.3-.43-.47-1.31-1.42-1.74-1.89.14-.92.42-2.75.57-3.67-.46.7-1.38 2.12-1.84 2.82-1.73-1.72-3.07-3.83-3.36-6.31-.5-3.87-4.01-6.44-4.72-10.24-.36-2.04-.54-4.11-.83-6.16-1.19-2.15-2.18-4.4-3.2-6.63.44-2.33.74-4.69.96-7.05 1.78 4.21 3.95 8.32 6.87 11.87 0-.83-.02-2.47-.02-3.3-.82-1.36-1.56-2.76-2.29-4.17-2.76-6.1-5.14-12.57-5.15-19.36 0-4.85-4.35-9.57-1.35-14.21.45 1.96.87 3.92 1.4 5.86.41-3.83.21-7.68.16-11.52.05-2.28 3.07-2.12 4.52-3.09 5.36 1.1 7.02 6.87 11.02 9.79-.47-1.6-1.11-3.13-1.76-4.65l2.11-.44c-3.87-2.32-7.41-5.38-11.91-6.41 5.15-5.22 13.04-4.52 19.74-4.25-2.7 2.27-6.69 4.06-6.85 8.11-.05 4.89-.32 10.58 3.69 14.13-.43 3.02-.85 6.06-1.79 8.98-1.19.54-2.38 1.09-3.56 1.64.14-4.96.2-9.93-1.08-14.76-1.08-1.43-2.23-2.8-3.47-4.1.77 3.44 2.04 6.73 2.96 10.13.01 3.67-.16 7.34-.31 11.01 1.43.07 2.87.16 4.31.28 1.44-.73 2.91-1.38 4.4-2.01-.39-.23-1.15-.69-1.54-.92 1.01-3.08 1.81-6.23 2.31-9.44.97 2.08 1.75 4.34 3.37 6.02 4.11 3.28 9.52 3.57 14.55 3.26-1.21.42-2.41.86-3.61 1.3 1.9.41 3.81.64 5.75.69-3.01 2.44-6.5 4.64-8.19 8.3 2.5-.58 3.57-3.1 5.63-4.36 2.03-1.74 5.29-2.4 5.94-5.36.21-.02.63-.05.84-.06.03 1.57.81 2.95 1.47 4.33.86-3.42-.86-6.86-.05-10.3 1.31-7.25 7.13-12.34 9.95-18.94-4.14 2.07-6.03 6.63-8.85 10.06-2.09-.44-4.7-1.73-6.01.76 1.56.33 3.14.64 4.7.95-.95 3.74-2.96 7.52-1.88 11.46-1.16.87-2.39 1.65-3.36 2.74 1.15-2.59 2.23-5.22 2.98-7.95-2.62 1.23-3.46 4.2-5.1 6.35-.78-1.76.22-3.47.5-5.19.69-3.34 1.34-6.7 1.62-10.1-.09-3.43-1.68-6.6-1.86-10.03.06-2.75-1.66-4.94-3.1-7.1-4.27-.95-8.69-.67-13.03-.49-4.68-1.76-9.91-1.69-14.67-.25m44.84 1.63c-4.92.24-9.51 2.82-12.83 6.37 1.84-.81 3.58-1.79 5.31-2.8 1.47-.67 2.93-1.37 4.39-2.07 3.45.22 6.8-.55 10.08-1.56 1.58-.17 2.01 1.66 2.85 2.6 1.35 1.97 3.01 4.05 2.45 6.61.37 8.75-2.83 17.12-6.61 24.85-2.14 4.6-6.35 8.1-7.62 13.11-.13 5.37-.66 10.79-2.11 15.99l-2.46.12c1.24 2.79 1.25 5.79.13 8.63.24 1.98.44 3.96.78 5.93 1.78-4.35.92-9.25 1.68-13.82 3.66-4.72 4.2-11.05 3.84-16.81-.22-3.4 2.54-5.94 4.66-8.24 3.35-4 5.34-8.92 7.27-13.71 2.4-6.06 2.04-12.63 2.96-18.96-1.53-2.7-2.35-6.13-5.03-7.98-3.38-.99-6.47 1.32-9.74 1.74m-3.09 32.38c1.52-4.88 3.38-9.62 5.34-14.33-4.74 2.98-5.98 9.11-5.34 14.33m-39.84 17.31c.93-2.21 1.63-4.51 2.33-6.8 1.06-2.36.83-5 .61-7.5-3.08 4.03-1.74 9.61-2.94 14.3m4.29-13.8c.55 2.71 3.2 4.12 5.69 4.49 3.82.72 7.58 1.78 11.46 2.15-4.67-4.48-11.75-3.55-17.15-6.64m15.16 10.05c.78 3.33 1.88 6.59 2.17 10.02 2.54-3.2.82-7.79-2.17-10.02m16.35-.17c-.64 4.46-1.68 8.87-2.01 13.37 2.36-3.85 2.79-8.95 2.01-13.37m-33.89 5.02c1.86 4.31 5.1 7.95 8.36 11.25-1.15-4.59-4.55-8.62-8.36-11.25m20.71 4.25c-1.99 3.72-7.93 2.62-9.73 6.89 2.42-.89 4.64-2.35 7.23-2.78 3.28 2.73 6.39 6.56 6.13 11.09 1.65-.58 3.3-1.13 4.97-1.67.95.65 1.9 1.3 2.85 1.97-.02-.88-.08-2.62-.11-3.49-1.2 0-2.4.01-3.6.07-.63.48-1.9 1.45-2.54 1.93-.57-1.36-1.06-2.74-1.61-4.11 1.13-2.47.82-5.2.19-7.75 1.95 1.01 3.96 1.43 5.66-.11-2.34-.68-4.74-.99-7.15-1.21 1.7 2.03 1.05 4.73.33 7a22.103 22.103 0 01-2.62-7.83m6.52 5.51c-.08.33-.22.98-.29 1.31 1.22.45 2.43.91 3.66 1.36-.15-.49-.44-1.48-.59-1.98-.93-.23-1.86-.46-2.78-.69m-29.39 6.65c1.87 2.1 4.38 4.16 7.26 2.45 1.4.91 2.83 1.8 4.56 1.95-1.03-1.96-2.79-3.32-4.28-4.89-1.6.82-3.29 1.48-5.05 1.85-.42-2.17-.03-4.33.45-6.44-1.22 1.51-2.98 2.96-2.94 5.08m19.66-4.72c-1.29.41-2.85 3.1-1.29 3.88 1.08-.49 2.8-3.25 1.29-3.88m1.47 6.65c-1.77 1.41-3 3.38-4.59 4.97.41.49.82.99 1.23 1.49 1-1.35 1.96-2.72 2.88-4.13 1.76-.39 4.47.15 4.84-2.26-1.44-.18-2.94-.45-4.36-.07m-22.51 3.97c1.85 2.09 4.54 2.59 7.2 2.29 1.92.99 5.18 2.16 6.03-.81-.65.16-1.96.5-2.61.66-1.05-.91-2.1-1.84-3.14-2.76-.66.42-1.97 1.27-2.63 1.69-.79-.05-2.38-.14-3.17-.19-.1-1.01-.29-3.03-.39-4.04-.43 1.05-.86 2.1-1.29 3.16m27.5-2.1c.06 4.4.88 8.88-.36 13.19-1.89-.78-3.78-1.58-5.76-2.13 1.24 1.6 2.94 2.51 4.99 2.42.12.59.36 1.75.48 2.33 3.26-4.14 2.97-9.66 2.71-14.62-.51-.3-1.55-.89-2.06-1.19m-12.28 6.28c.36.83 1.08 2.48 1.44 3.3l-2.95-.88c2.02 3.26 4.27 6.94 8.27 7.94-.63-.94-1.26-1.87-1.91-2.78-.42-2.35-1.59-4.45-2.63-6.58-.56-.25-1.67-.75-2.22-1m-7.86 3.71c1.91.9 3.84 1.77 5.84 2.47-1.48-1.58-3.33-2.71-5.06-3.97-.2.38-.59 1.12-.78 1.5m10.76 27.59c3.07-.25 5.28-2.51 7.82-3.98 3.05-2.02 6.6-3.06 9.83-4.77-6.91-.66-13.2 3.9-17.65 8.75m4.53-.08c2.92-.5 5.56-1.89 8.31-2.91 2.32-.91 5.52-.35 6.55-3.16-5.26 1.12-10.6 2.62-14.86 6.07m-7.42 5.18c3.54-.01 7.59.03 9.95-3.09-3.52.24-6.87 1.41-9.95 3.09m58.83 6.89c.97 2.12 2.21 4.25 2.34 6.64-.76 1.03-1.66 1.91-2.7 2.64-3.19-.65-5.55-3.14-8.26-4.77 1.52 3.91 5.54 6.29 9.69 5.93 1.13-1.08 2.26-2.17 3.38-3.26-.24-2.95-1.68-5.53-3.28-7.93-.29.19-.88.56-1.17.75m-37.32 53.26c5.97-2.05 11.93-4.12 17.94-6.03 2.06-.94 3.94.71 5.58 1.72-.29.87-.87 2.63-1.16 3.51-5 2.03-10.04 3.97-15.16 5.71-5.24 1.78-10.22 4.31-15.59 5.7-.37.64-1.1 1.93-1.47 2.57 10.75-3.36 21.17-7.78 31.79-11.55 3.46-.76 2.88-4.82 3.51-7.46-2.13-.96-4.15-2.83-6.57-2.73-5.89 1.71-11.56 4.09-17.39 6-.51-4.71 1.66-9.9-.7-14.18-1.98 5.3-1.32 11.23-.78 16.74m44.78 9.9c-.51-2.75-.95-5.51-1.36-8.27-1.59 2.75-1.3 6.29 1.36 8.27z"/><path d="M101.48 56.58c3.56-3.13 8.5-3.12 12.95-3.02 2.23 1.76 4.71 3.7 5.2 6.7.73 4.54 2.3 9.13 1.3 13.77-.73 3.64-.51 8.44-4.71 9.87-2.95-1.02-5.98-1.86-8.76-3.29-1.78-1.35-2.32-3.64-3.55-5.4-1.59-1.33-3.32-2.48-4.84-3.89.38-1.43 1.45-2.81 1.15-4.36-.59.14-1.75.42-2.33.56-.04-3.86.32-8.33 3.59-10.94zM108.19 136.29c.58.54.58.54 0 0zM75.37 155.78c1.97 1.77 4.04 3.45 5.82 5.42-.09 5.13-.68 10.26-.45 15.41 5.15-1.1 10.61-2.26 14.93-5.43.17 2.32.31 4.63.54 6.94-12.89 4.36-25.42 9.71-38.32 14.02-.26-2.01-.38-4.04-.48-6.06 5.6-2.18 11.11-4.63 16.89-6.34.52-1.53 1.07-3.09.99-4.74.09-6.4.04-12.81.08-19.22z"/><path d="M83.02 162.26c3.12 3.04 6.49 5.81 9.83 8.6-3.21 1.44-6.55 2.57-9.88 3.72-.03-4.11.05-8.22.05-12.32zM100.67 185.07c1.94-2.81 3.44-7.11 7.43-7.31 2.98-.46 6.02-.05 8.98.43 4.8 5.23 7.48 12.39 6.48 19.53-.6-3.4-2.93-5.77-5.62-7.69-2.8 1.32-5.2 3.36-7.12 5.78 2.26-.04 3.9-1.47 4.93-3.36.91-.39 1.83-.77 2.76-1.14 1.81 2.73 3.81 5.98 2.24 9.33.27.34.8 1.03 1.07 1.38-1.11 3.52-2.77 6.85-3.7 10.43-1.11 4.5-4.33 8.16-5.26 12.73-.42 2.45-.34 4.95-.38 7.42.42-.12 1.27-.37 1.69-.5.49-4.23.77-8.52 2.18-12.57l1.12.03c.04 4 .41 8.15-1.21 11.92-4.14 9.46-3.07 21.02 2.77 29.53 2.44 4.62 6.2 8.3 9.24 12.52-1 .54-1.93 1.26-3.06 1.5-1.12-1.25-2-2.71-3.23-3.86-3.12.39-6.25.71-9.39.45-.06.53-.19 1.6-.25 2.13.73-.15 1.46-.3 2.2-.44 2.98 1.79 6.92-1.97 8.94 1.78-4.22 3.31-13.02 2.13-13.44-4.11-.95-5.13-3.81-9.73-4.54-14.9.23-2.37.96-4.68.9-7.07.04-7.23-3.73-13.82-3.91-21.02.15-4.78 1.8-9.34 3.59-13.72 1.69 2.53 2.11 5.88 4.49 7.92-1.04-5.11-2.6-10.11-3.68-15.21.36-1.64.71-3.27 1.07-4.9-.97-6.22-4-11.75-7.29-17.01m13.25 21.5c.46 1.06.66 2.49 2.12 2.58.88-.53 1.69-1.14 2.45-1.82-1.51-.33-3.04-.57-4.57-.76m-5.93 51.73c2.87-1.88 4.57-5.17 4.77-8.56-2.73 2.02-4.02 5.36-4.77 8.56z"/></g><g fill="#333"><path d="M90.17 52.15c4.76-1.44 9.99-1.51 14.67.25 4.34-.18 8.76-.46 13.03.49 1.44 2.16 3.16 4.35 3.1 7.1.18 3.43 1.77 6.6 1.86 10.03-.28 3.4-.93 6.76-1.62 10.1-.28 1.72-1.28 3.43-.5 5.19 1.64-2.15 2.48-5.12 5.1-6.35-.75 2.73-1.83 5.36-2.98 7.95.97-1.09 2.2-1.87 3.36-2.74-1.08-3.94.93-7.72 1.88-11.46-1.56-.31-3.14-.62-4.7-.95 1.31-2.49 3.92-1.2 6.01-.76 2.82-3.43 4.71-7.99 8.85-10.06-2.82 6.6-8.64 11.69-9.95 18.94-.81 3.44.91 6.88.05 10.3-.66-1.38-1.44-2.76-1.47-4.33-.21.01-.63.04-.84.06-.65 2.96-3.91 3.62-5.94 5.36-2.06 1.26-3.13 3.78-5.63 4.36 1.69-3.66 5.18-5.86 8.19-8.3-1.94-.05-3.85-.28-5.75-.69 1.2-.44 2.4-.88 3.61-1.3-5.03.31-10.44.02-14.55-3.26-1.62-1.68-2.4-3.94-3.37-6.02-.5 3.21-1.3 6.36-2.31 9.44.39.23 1.15.69 1.54.92-1.49.63-2.96 1.28-4.4 2.01-1.44-.12-2.88-.21-4.31-.28.15-3.67.32-7.34.31-11.01-.92-3.4-2.19-6.69-2.96-10.13 1.24 1.3 2.39 2.67 3.47 4.1 1.28 4.83 1.22 9.8 1.08 14.76 1.18-.55 2.37-1.1 3.56-1.64.94-2.92 1.36-5.96 1.79-8.98-4.01-3.55-3.74-9.24-3.69-14.13.16-4.05 4.15-5.84 6.85-8.11-6.7-.27-14.59-.97-19.74 4.25 4.5 1.03 8.04 4.09 11.91 6.41l-2.11.44c.65 1.52 1.29 3.05 1.76 4.65-4-2.92-5.66-8.69-11.02-9.79-1.45.97-4.47.81-4.52 3.09.05 3.84.25 7.69-.16 11.52-.53-1.94-.95-3.9-1.4-5.86-3 4.64 1.35 9.36 1.35 14.21.01 6.79 2.39 13.26 5.15 19.36.73 1.41 1.47 2.81 2.29 4.17 0 .83.02 2.47.02 3.3-2.92-3.55-5.09-7.66-6.87-11.87-.22 2.36-.52 4.72-.96 7.05 1.02 2.23 2.01 4.48 3.2 6.63.29 2.05.47 4.12.83 6.16.71 3.8 4.22 6.37 4.72 10.24.29 2.48 1.63 4.59 3.36 6.31.46-.7 1.38-2.12 1.84-2.82-.15.92-.43 2.75-.57 3.67.43.47 1.31 1.42 1.74 1.89-.45.33-1.34.97-1.79 1.3.71 2.54 1.39 5.09 1.74 7.72 2.8 1.29 5.48 3.34 8.72 3.22 3.62.02 7.16.76 10.66 1.58-.24-.62-.71-1.85-.95-2.47l-.5 1.11c-1.53-1.52-3.01-3.07-4.32-4.77 2.17.17 3.85 1.59 5.58 2.75.38 1.06.8 2.12 1.27 3.14 3.77-1.34 8.03-1.45 11.37-3.85 1.12-6.23-2.17-12.84-.05-19.02 2.82 5.35.68 11.64 1.6 17.41.26.51.79 1.51 1.06 2.02 3.18 1.58 4.21 4.81 3.98 8.19-1.72-2.39-3.26-4.9-5.24-7.08-5.64 2.8-12.06 5.58-18.45 3.9-4.52-1.07-9.57-.33-13.39-3.46-.63 1.44-1.77 2.45-3.13 3.18-1.51 4.26.3 8.55 1.03 12.77.76-.54 1.53-1.07 2.29-1.59 3.61-1.31 6.68-3.85 8.35-7.35-1.78-.54-3.53-1.61-5.45-1.35-1.2 2.17-1.8 4.59-2.67 6.89-.73-3.05.1-6.13 1.75-8.73 2.24-.31 4.36.72 6.49 1.22 3.52 1.2 7.29.63 10.89 1.4-2.96 1.47-6.22 1.88-9.39.9-2.06 5.26-7.37 9.03-7.86 14.96.09 4.2-.13 8.63 1.78 12.51 1.8-2.07 3.26-4.57 5.66-6.01 4.02-1.19 8.27-.48 12.4-.59 1.08 1.14 2.18 2.27 3.29 3.39-.07-1.35-.16-2.71-.25-4.06 2.35-.38 4.69-.8 6.99-1.39 2.43 1.11 4.37 2.92 5.85 5.13.84-3.61 1.31-7.28 1.63-10.96 1.61-4.33 5.34-7.41 9-10.01-3.94-1.36-8.93.44-12.12-2.84 4.85-.31 9.73.22 14.42 1.44 1.53.28 2.6 1.44 3.72 2.41 5.05 2.22 10.18 4.6 14.22 8.44 2.51 2.39 6.19 2.88 8.71 5.26 2.71 1.98 3.35 5.44 4.41 8.41 1 2.59-.55 5.19-.65 7.81-.02 4.64-.5 9.36.64 13.92 1.55 7.8-1.26 16.28 2.16 23.7 5.49 3.75 8.58 11.91 16.27 11.51a95.91 95.91 0 013.5 4.02c-.55.99-1.1 1.99-1.63 2.99-3.45 1.59-7.05 3.93-10.93 2.26-4.42.99-7.5-4-11.93-3.03-3.46.51-7.1.57-10.12-1.47-.81-4.99.16-9.97 1.57-14.74 1.69-5.71-.12-11.72-2.6-16.9-3.05-6.13-2.47-13.42-.53-19.79 1.12 5.08.05 10.35 1.26 15.44.21 4.07 3.81 6.99 3.95 11.06.25 3.58.35 7.21-.09 10.78-1.07 4-1.87 8.12-1.79 12.28 2.69 4.19 8.37.67 12.36 1.9 4.34 1.77 9.15 3.41 13.86 2.56 1.37-1.02 4.36-1.16 4.08-3.4-1.08-1.79-3.34-1.76-5.11-2.33-3.58-.82-6.06-3.77-8.19-6.55-1.67-2.29-4.08-3.86-5.91-5.99-2.95-7.36-1.58-15.38-2.26-23.07-1.73-6.28-.69-12.81.22-19.13.67-3.05-1.04-5.84-2.11-8.57-1.38-3.7-6-3.76-8.63-6.19-5.81-4.84-12.47-8.95-20-10.37-3.92 2.06-6.28 5.76-8.39 9.5-1.09 2.89-1.08 5.96-1.03 9.01 2.9 1.58 5.98 3.19 9.41 2.79 5.1-.33 10.58.65 14.17 4.58 2.12 2.55 7.07 1.07 7.78 4.79-4.83.69-8.93-2.58-12.35-5.54.36 2.22.66 5.6-2.03 6.51-7.69 2.57-15.43 5-23.35 6.77.03 4.18-.04 8.36-.02 12.54-.75-.62-1.49-1.23-2.24-1.84.14-4.11 1.28-8.4-.69-12.28 5.89-1.83 12.01-2.8 17.84-4.85 2.93-1.11 6.32-1.46 8.76-3.56-.37-1.53-.86-3.01-1.31-4.51-5.63.43-11.5-.04-16.31-3.29-.27.27-.81.82-1.07 1.09-.74-.13-2.22-.41-2.96-.54-1.05-1.94-2.49-3.61-4.16-5.04-1.21.76-2.42 1.53-3.62 2.29-.3 1.09-.59 2.19-.89 3.28 3.08 5.72 5.16 13.07 1.72 19.1-1.74 5.06-3.93 10.02-4.8 15.33-.4 5.03.87 10.26-.96 15.13-2.64 6.62-3.07 14-1.76 20.97 1.29 4.34 4.06 8.07 6.33 11.94 2.19 3.29 6.66 6.06 6.11 10.48-.36 2.09-2.56 2.08-4.23 2.34-5.03 4.14-13.57 2.63-16.9-3-.29-3.5-1.78-6.65-3.02-9.88-.28-2.7-.91-5.33-1.36-8 .17-3.27.73-6.54.52-9.83-.35-6.19-3.03-11.97-3.6-18.11.33-4.22 1.96-8.24 3.15-12.27 1.67-3.65 1.41-7.71 1.81-11.6.64-4.36-1.31-8.53-3.25-12.31-2.03.17-3.63-.72-4.7-2.39.84-3.33-.03-6.65-.97-9.84-12.56 5.11-25.36 9.58-38.02 14.43-1-.8-2.07-1.54-2.92-2.49-.35-2-.3-4.08.03-6.08.74-1.14 2.16-1.58 3.35-2.11 4.71-1.74 9.54-3.15 14.16-5.14.5-7.88.01-15.8.61-23.68-3.29-2.58-6.78-4.98-9.66-8.01-1.82-1.94-.74-4.71-.63-7.04 3.14-1.76 6.78-2.18 10.26-2.86 1.22-.36 2.37.23 3.51.59-3.94 1.77-8.31 2.22-12.35 3.69 0 1.27.07 2.54.22 3.81 3.28 3.73 7.63 6.3 11.48 9.4 5.47 4.9 11.18 9.54 16.68 14.41-.08-.78-.24-2.35-.33-3.13 1.24-.29 2.51-.32 3.73.08a78.72 78.72 0 00-1.05 3.8c1.28-2.38 2.43-4.83 3.65-7.24-2.23 1.1-4.53 2.02-6.86 2.89-2.47-3.59-.95-7.8-.97-11.79-.03-2.52 1.62-4.61 2.56-6.84l-1.84-1.32c.14-.39.43-1.15.57-1.53-.96-2.61-1.31-5.42-2.41-7.96-1.79-1.91-4-3.58-4.71-6.25-1.82-5.84-6.1-11.22-5.07-17.64-3.75-5.88-3.58-13.11-1.79-19.62-.38-3.36-1.25-6.68-1.27-10.1-.1-4.39-3.45-8.27-2.47-12.74.85-3.21 2.46-6.15 3.86-9.13.6-1.46 2.22-1.9 3.48-2.58 1.5-3 4.77-4.21 7.72-5.27m11.31 4.43c-3.27 2.61-3.63 7.08-3.59 10.94.58-.14 1.74-.42 2.33-.56.3 1.55-.77 2.93-1.15 4.36 1.52 1.41 3.25 2.56 4.84 3.89 1.23 1.76 1.77 4.05 3.55 5.4 2.78 1.43 5.81 2.27 8.76 3.29 4.2-1.43 3.98-6.23 4.71-9.87 1-4.64-.57-9.23-1.3-13.77-.49-3-2.97-4.94-5.2-6.7-4.45-.1-9.39-.11-12.95 3.02m-26.11 99.2c-.04 6.41.01 12.82-.08 19.22.08 1.65-.47 3.21-.99 4.74-5.78 1.71-11.29 4.16-16.89 6.34.1 2.02.22 4.05.48 6.06 12.9-4.31 25.43-9.66 38.32-14.02-.23-2.31-.37-4.62-.54-6.94-4.32 3.17-9.78 4.33-14.93 5.43-.23-5.15.36-10.28.45-15.41-1.78-1.97-3.85-3.65-5.82-5.42m7.65 6.48c0 4.1-.08 8.21-.05 12.32 3.33-1.15 6.67-2.28 9.88-3.72-3.34-2.79-6.71-5.56-9.83-8.6m17.65 22.81c3.29 5.26 6.32 10.79 7.29 17.01-.36 1.63-.71 3.26-1.07 4.9 1.08 5.1 2.64 10.1 3.68 15.21-2.38-2.04-2.8-5.39-4.49-7.92-1.79 4.38-3.44 8.94-3.59 13.72.18 7.2 3.95 13.79 3.91 21.02.06 2.39-.67 4.7-.9 7.07.73 5.17 3.59 9.77 4.54 14.9.42 6.24 9.22 7.42 13.44 4.11-2.02-3.75-5.96.01-8.94-1.78-.74.14-1.47.29-2.2.44.06-.53.19-1.6.25-2.13 3.14.26 6.27-.06 9.39-.45 1.23 1.15 2.11 2.61 3.23 3.86 1.13-.24 2.06-.96 3.06-1.5-3.04-4.22-6.8-7.9-9.24-12.52-5.84-8.51-6.91-20.07-2.77-29.53 1.62-3.77 1.25-7.92 1.21-11.92l-1.12-.03c-1.41 4.05-1.69 8.34-2.18 12.57-.42.13-1.27.38-1.69.5.04-2.47-.04-4.97.38-7.42.93-4.57 4.15-8.23 5.26-12.73.93-3.58 2.59-6.91 3.7-10.43-.27-.35-.8-1.04-1.07-1.38 1.57-3.35-.43-6.6-2.24-9.33-.93.37-1.85.75-2.76 1.14-1.03 1.89-2.67 3.32-4.93 3.36 1.92-2.42 4.32-4.46 7.12-5.78 2.69 1.92 5.02 4.29 5.62 7.69 1-7.14-1.68-14.3-6.48-19.53-2.96-.48-6-.89-8.98-.43-3.99.2-5.49 4.5-7.43 7.31z"/><path d="M135.01 53.78c3.27-.42 6.36-2.73 9.74-1.74 2.68 1.85 3.5 5.28 5.03 7.98-.92 6.33-.56 12.9-2.96 18.96-1.93 4.79-3.92 9.71-7.27 13.71-2.12 2.3-4.88 4.84-4.66 8.24.36 5.76-.18 12.09-3.84 16.81-.76 4.57.1 9.47-1.68 13.82-.34-1.97-.54-3.95-.78-5.93 1.12-2.84 1.11-5.84-.13-8.63l2.46-.12c1.45-5.2 1.98-10.62 2.11-15.99 1.27-5.01 5.48-8.51 7.62-13.11 3.78-7.73 6.98-16.1 6.61-24.85.56-2.56-1.1-4.64-2.45-6.61-.84-.94-1.27-2.77-2.85-2.6-3.28 1.01-6.63 1.78-10.08 1.56-1.46.7-2.92 1.4-4.39 2.07-1.73 1.01-3.47 1.99-5.31 2.8 3.32-3.55 7.91-6.13 12.83-6.37z"/><path d="M131.92 86.16c-.64-5.22.6-11.35 5.34-14.33-1.96 4.71-3.82 9.45-5.34 14.33zM92.08 103.47c1.2-4.69-.14-10.27 2.94-14.3.22 2.5.45 5.14-.61 7.5-.7 2.29-1.4 4.59-2.33 6.8zM96.37 89.67c5.4 3.09 12.48 2.16 17.15 6.64-3.88-.37-7.64-1.43-11.46-2.15-2.49-.37-5.14-1.78-5.69-4.49zM111.53 99.72c2.99 2.23 4.71 6.82 2.17 10.02-.29-3.43-1.39-6.69-2.17-10.02zM127.88 99.55c.78 4.42.35 9.52-2.01 13.37.33-4.5 1.37-8.91 2.01-13.37zM93.99 104.57c3.81 2.63 7.21 6.66 8.36 11.25-3.26-3.3-6.5-6.94-8.36-11.25z"/><path d="M114.7 108.82c.38 2.75 1.26 5.42 2.62 7.83.72-2.27 1.37-4.97-.33-7 2.41.22 4.81.53 7.15 1.21-1.7 1.54-3.71 1.12-5.66.11.63 2.55.94 5.28-.19 7.75.55 1.37 1.04 2.75 1.61 4.11.64-.48 1.91-1.45 2.54-1.93 1.2-.06 2.4-.07 3.6-.07.03.87.09 2.61.11 3.49-.95-.67-1.9-1.32-2.85-1.97-1.67.54-3.32 1.09-4.97 1.67.26-4.53-2.85-8.36-6.13-11.09-2.59.43-4.81 1.89-7.23 2.78 1.8-4.27 7.74-3.17 9.73-6.89z"/><path d="M121.22 114.33c.92.23 1.85.46 2.78.69.15.5.44 1.49.59 1.98-1.23-.45-2.44-.91-3.66-1.36.07-.33.21-.98.29-1.31zM91.83 120.98c-.04-2.12 1.72-3.57 2.94-5.08-.48 2.11-.87 4.27-.45 6.44 1.76-.37 3.45-1.03 5.05-1.85 1.49 1.57 3.25 2.93 4.28 4.89-1.73-.15-3.16-1.04-4.56-1.95-2.88 1.71-5.39-.35-7.26-2.45zM111.49 116.26c1.51.63-.21 3.39-1.29 3.88-1.56-.78 0-3.47 1.29-3.88zM112.96 122.91c1.42-.38 2.92-.11 4.36.07-.37 2.41-3.08 1.87-4.84 2.26-.92 1.41-1.88 2.78-2.88 4.13-.41-.5-.82-1-1.23-1.49 1.59-1.59 2.82-3.56 4.59-4.97zM90.45 126.88c.43-1.06.86-2.11 1.29-3.16.1 1.01.29 3.03.39 4.04.79.05 2.38.14 3.17.19.66-.42 1.97-1.27 2.63-1.69 1.04.92 2.09 1.85 3.14 2.76.65-.16 1.96-.5 2.61-.66-.85 2.97-4.11 1.8-6.03.81-2.66.3-5.35-.2-7.2-2.29zM117.95 124.78c.51.3 1.55.89 2.06 1.19.26 4.96.55 10.48-2.71 14.62-.12-.58-.36-1.74-.48-2.33-2.05.09-3.75-.82-4.99-2.42 1.98.55 3.87 1.35 5.76 2.13 1.24-4.31.42-8.79.36-13.19zM105.67 131.06c.55.25 1.66.75 2.22 1 1.04 2.13 2.21 4.23 2.63 6.58.65.91 1.28 1.84 1.91 2.78-4-1-6.25-4.68-8.27-7.94l2.95.88c-.36-.82-1.08-2.47-1.44-3.3m2.52 5.23c.58.54.58.54 0 0zM97.81 134.77c.19-.38.58-1.12.78-1.5 1.73 1.26 3.58 2.39 5.06 3.97-2-.7-3.93-1.57-5.84-2.47zM108.57 162.36c4.45-4.85 10.74-9.41 17.65-8.75-3.23 1.71-6.78 2.75-9.83 4.77-2.54 1.47-4.75 3.73-7.82 3.98zM113.1 162.28c4.26-3.45 9.6-4.95 14.86-6.07-1.03 2.81-4.23 2.25-6.55 3.16-2.75 1.02-5.39 2.41-8.31 2.91zM105.68 167.46c3.08-1.68 6.43-2.85 9.95-3.09-2.36 3.12-6.41 3.08-9.95 3.09zM164.51 174.35c.29-.19.88-.56 1.17-.75 1.6 2.4 3.04 4.98 3.28 7.93-1.12 1.09-2.25 2.18-3.38 3.26-4.15.36-8.17-2.02-9.69-5.93 2.71 1.63 5.07 4.12 8.26 4.77 1.04-.73 1.94-1.61 2.7-2.64-.13-2.39-1.37-4.52-2.34-6.64zM113.92 206.57c1.53.19 3.06.43 4.57.76-.76.68-1.57 1.29-2.45 1.82-1.46-.09-1.66-1.52-2.12-2.58zM127.19 227.61c-.54-5.51-1.2-11.44.78-16.74 2.36 4.28.19 9.47.7 14.18 5.83-1.91 11.5-4.29 17.39-6 2.42-.1 4.44 1.77 6.57 2.73-.63 2.64-.05 6.7-3.51 7.46-10.62 3.77-21.04 8.19-31.79 11.55.37-.64 1.1-1.93 1.47-2.57 5.37-1.39 10.35-3.92 15.59-5.7 5.12-1.74 10.16-3.68 15.16-5.71.29-.88.87-2.64 1.16-3.51-1.64-1.01-3.52-2.66-5.58-1.72-6.01 1.91-11.97 3.98-17.94 6.03zM171.97 237.51c-2.66-1.98-2.95-5.52-1.36-8.27.41 2.76.85 5.52 1.36 8.27zM107.99 258.3c.75-3.2 2.04-6.54 4.77-8.56-.2 3.39-1.9 6.68-4.77 8.56z"/></g></svg>