<svg width="227pt" height="400" viewBox="0 0 227 300" xmlns="http://www.w3.org/2000/svg"><g fill="#FFF"><path d="M0 0h227v300H0V0m115.53 58.09c-4-.07-5.53-4.63-9.36-5.11-3.1-.53-6.19.45-9.19 1.09-2.71.43-4.87 2.52-5.93 4.97-1.54 4.17.7 8.46.18 12.72 1.46 2.84 1.61 6.06 1.55 9.19-7.96 2.67-13.68 9.1-17.74 16.18-.49 4.18.61 8.36 1.2 12.48 2.29 4.67 1.89 10.78 6.31 14.22 1.72 5.09 4.7 9.45 8.09 13.57.1 3.32 1.29 6.46 1.75 9.72-1.4 1.97-3.41 3.52-4.39 5.76-.55 3.48 1.22 6.75 1.16 10.2.16 4.78-1.94 9.22-2.16 13.96 0 3.15-1.68 5.87-3 8.62 1.54 1.47 2.95 4.85 5.3 2.4-1.42 5.69 1.35 11.68-1.12 17.17-1.74 4.76-1.63 9.88-2.37 14.83-1.53 4.97-3.62 9.86-4.14 15.08-.26 7.79 4 14.94 3.69 22.73-.09 2.46-.54 4.88-.72 7.33.27 2.33 1.15 4.56 1.19 6.94.1 2.86 2.02 5.21 2.54 7.97-.09 8.67 12.08 11.77 18.21 7.2 1.63-.36 3.19-.97 4.59-1.9-.17-1.29-.33-2.58-.49-3.86-4.55-5.87-9.17-11.8-12.1-18.67-2.05-7.96-1.33-16.67 1.88-24.22 1.73-6.37-.68-13.21 1.48-19.53 1.69-5.14 3.11-10.46 6.16-15 3.1-5.09.67-12 5.03-16.37a65.71 65.71 0 005.13 8.91c2.03 2.63 1.16 6.15 2.02 9.16.7 1.8 1.67 3.47 2.53 5.21-1.28 5.16-1.82 10.49-1.66 15.8 1.37 4.55 4.77 8.26 5.36 13.08 2.08 8.37-3.5 16.21-2.02 24.61 1.49.77 2.93 1.7 4.59 2.07 2.91.5 5.82-.88 8.73-.3 2.43.78 4.64 2.09 6.96 3.14 2.45-.38 4.84.39 7.28.4 2.47-1.01 5.3-1.68 7.24-3.56 2.18-2.27-.65-4.77-2.47-6.12-2.55-.62-5.34-.82-7.32-2.76-3.37-3.03-6.13-6.67-9.7-9.5-3.27-7.93-.82-16.77-2.23-25.04-1.34-6.17-1.27-12.69.24-18.82.81-3.21-1.91-5.97-1.57-9.17.2-4.53-.18-9.06-.83-13.53.88-.46 1.76-.92 2.65-1.38l-.2-2.3c-1.02-1.24-2.4-2.4-2.54-4.11-.57-5.46-3.59-10.19-5.06-15.39.44-2.36 1.7-4.71.96-7.15-.29-1.68-1.9-2.65-2.83-3.97.37-4.25.76-8.56.06-12.8 3.2-5.86 4.05-13.05 1.69-19.36 1.42-4.89.9-9.94 1.06-14.97-.22-3.43 2.76-5.62 4.54-8.14 2.48-2.48 4.98-4.97 6.96-7.87-1.99-3.33 1.03-6.2 3.68-7.81.67-3.95 1.68-7.82 3.05-11.59.8-2.11-.93-3.9-2.19-5.34-.21-1.67-.42-3.34-.64-5.01-4.07-2.17-8.81-1.49-13.22-2.2-6.59-.75-12.36 3.09-17.85 6.14m-29.76 75.49c-3.09 17.32-5.64 34.75-8.48 52.11.58.74 1.16 1.48 1.75 2.22 2.4-17.52 5.55-34.94 8.2-52.43-.09-.33-.28-.98-.37-1.31-.27-.15-.82-.44-1.1-.59m-9.01 52.65c-.02 4.7-1.13 9.29-1.81 13.92-1.53 8.6-2.31 17.34-4.4 25.82-.56 1.57.57 4.3-1.17 5.11-.94-.07-2.81-.22-3.75-.3.18 1.49 1.87 2.04 2.87 2.93.75 1.7 2.13 3.24 2.13 5.2-.49-.59-1.04-.88-1.68-.88l-.36.18c-1.14-1.85-2.07-3.89-3.84-5.25-.6-.07-1.81-.23-2.41-.31.84-.5 1.06-1.01.68-1.54-2.07.62-3.99 1.64-6.02 2.39-1.91-7.46-2.92-15.17-5.43-22.47-.52 1.15-1.18 2.38-.76 3.69 1.26 5.81 2.62 11.59 3.95 17.38 1.64 5.45-1.3 11.42 1.28 16.69 1.41 1.85 3.21 3.35 4.95 4.88 3.45-.07 5.96-2.45 8.37-4.59-.45-3.4.79-6.68 1.78-9.86.41 2.22.23 4.47-.6 6.59.5.7 1 1.4 1.52 2.1 2.56-4.78.83-10.14-.31-15.01 2.06-14.5 4.67-28.93 6.85-43.42-.62-1.08-1.26-2.15-1.84-3.25z"/><path d="M97.03 54.58c6.16-1.73 14.03.61 16.58 6.9.9 5.39.81 10.94.15 16.36-.71 2.81-2.88 5.4-5.72 6.21-4.41.1-9.53-1.68-11.01-6.28.4-.38 1.19-1.14 1.59-1.52-2.41-1.74-4.66-3.72-6.3-6.23.58-1.18 1.17-2.35 1.76-3.52-.52.02-1.55.07-2.07.1.06-4.34.4-10.03 5.02-12.02z"/><path d="M125.62 54.59c4.94-2.06 10.29-.83 15.41-.42 2 .04 3.77 1.02 5.58 1.76-.29 2.7-.88 5.35-1.41 8.01.68-.39 2.02-1.18 2.7-1.57-.29.54-.59 1.08-.88 1.63-1.95 3.3-1.43 7.32-2.8 10.81-1.4 2.6-4.01 4.2-6.63 5.35-1.53 3.13-4.75 4.8-6.92 7.41-4.18 4.86-8.24 10.01-13.66 13.58-2.39 1.36-3.82 4.74-6.91 4.42-2.9-.32-5.27 1.39-7.64 2.76-2.66 1.51-5.75 1.46-8.71 1.48.1.25.32.75.43 1 .49.31 1.48.92 1.97 1.23 1.41 1.43 2.82 2.87 4.39 4.13-1.05 0-2.1.08-3.14.24-.27.5-.83 1.49-1.11 1.99-.52 1.27-.94 2.58-1.33 3.9 2.46-1.18 3.29-3.92 4.9-5.93 1.51.85 3.07 1.6 4.67 2.26-1.68-2.5-3.81-4.65-5.81-6.89 4.3-.74 7.74-3.5 11.59-5.33.41.3 1.23.89 1.64 1.18 7.8-5.19 15.04-11.4 20.55-19.02 2.27-2.37 4.73-4.55 7.13-6.8.59.29 1.19.59 1.79.89-3.47 5.6-8.73 9.57-12.97 14.5.3.5.9 1.5 1.19 2-.68 3.94 1.44 8.55-1.76 11.73-2.45-3.42-.69-8.72-3.67-11.69-.86 1.65-.11 3.51-.01 5.24-.35.8-.7 1.59-1.06 2.38-2.2.51-4.38 1.14-6.38 2.2-4.78.34-9.14 2.75-12.74 5.79 1.61-.07 3.22-.18 4.83-.34 1.71-1.91 4.24-2.61 6.48-3.67l-1.23-.88c3.64.15 7.22-.51 10.72-1.48.1.61.31 1.85.42 2.47.6-.06 1.79-.19 2.39-.25-2.42 4.07 3.24 7.37 1.12 11.2-2.06-2.8-6.09-6.2-9.39-3.08-1.2-3.01-4.12-4.1-6.95-5.09-2.82 1.45-3.12 4.69-3.72 7.45.8-.71 1.59-1.41 2.38-2.12.09-1.06.18-2.13.28-3.19 1.5.45 2.99.93 4.48 1.39.58 1.21 1.14 2.42 1.69 3.65-.96.05-2.87.17-3.82.23-1.6 1.68-3 3.53-4.37 5.4.38.23 1.13.68 1.5.91 1.09-1.36 2.15-2.75 3.2-4.14 2.61-.61 5.86-1.18 6.6-4.3 3.78-.26 5.61 3.32 8.41 5.13 2.12 2.96-1.08 6.67-2.11 9.59l-1.45-1.87c.76-2.45 2.5-4.93 1.81-7.59-3.14 2.75-3.3 7.29-3.88 11.13.56-.29 1.69-.86 2.25-1.15-.56 3.37-.59 6.8-.6 10.2l1.72.27c-.03 1.38-.04 2.75-.02 4.13 1.1 1.24 2.89 2.28 2.8 4.17-.07 2.06-.82 4.02-1.04 6.06.74 2.55 2.03 4.91 3 7.38 1.9 3.94 1.17 8.88 4.4 12.21-4.05 1.56-6.83 5.26-11 6.6-3.93 1.74-8.06-.44-12-1 1.2-3.38 4.87-3.52 7.7-4.67 1.8-2.22 2.81-5.03 3.06-7.86-1.66 2.02-3.01 4.26-4.18 6.6-2.4.5-4.84 1.01-7.02 2.17-1.54 2.44.26 6.63-2.94 8.22-4.03 2.16-9.19 3.28-13.49 1.2-1.5-.61-2.97-1.28-4.46-1.93.02-1.69.04-3.38.07-5.07l-1.97.08c-.57 1.39-1.16 2.78-1.77 4.16-.49-.59-1.46-1.77-1.95-2.35 1.62-2.66 2.74-5.59 2.99-8.7.2-3.49 2.42-6.55 2.19-10.08.13-3.4-.14-6.79-1.19-10.03-.77-2.29.57-4.5 1.17-6.64l2.21-.04c.07-.62.2-1.85.27-2.46 4.78 3.54 10.8 2.81 16.28 4.13 5.09 1.04 9.81-1.66 14.77-2.26.29-.64.89-1.93 1.19-2.57-5.25 1.27-10.54 3.78-16.04 2.48-5.08-1.31-10.51-.47-15.35-2.76-.66-2.56-1.28-5.13-2.09-7.65.79-.15 2.37-.47 3.16-.62-1.89-1.07-3.88-1.96-5.8-2.96 4.66.72 8.71-3.34 13.22-1.67 2.3.42 3.24 2.96 5.04 4.2 3.68-.24 7.32-1.26 9.66-4.33.6 3.24.69 6.54 1.01 9.81 1.73.56 1.3-1.57 1.5-2.59.2-2.38-.6-4.65-1.52-6.8 2.54-3.35 2.56-7.92-.36-11.04.24 2.83.76 5.72-.16 8.5-1.2.36-2.39.74-3.58 1.12-.62-.41-1.87-1.23-2.5-1.64.53 1.13 1.08 2.24 1.64 3.36-1.19.74-2.36 1.5-3.61 2.12-2.05-1.08-3.18-3.25-5.15-4.43-1.91-.61-3.96-.32-5.93-.35-.29-.44-.86-1.34-1.15-1.79-.48.87-.96 1.74-1.43 2.61-1.63.63-3.26 1.26-4.88 1.9-.35-1.61-.69-3.21-1.1-4.8-.26 1.03-.78 3.07-1.04 4.1-2.26-2.49-3.21-5.77-4.84-8.64-1.21-2.14.28-4.56.52-6.77-.46.19-1.4.56-1.86.75-.37.93-.74 1.87-1.11 2.81-1.66-3.34-2.17-7.08-3.51-10.53-1.62-4.25-1.81-8.91-1.35-13.38.98-2.73 4.05-3.58 6.22-5.09-.48-.55-.99-1.06-1.52-1.55 2.99-3.26 7.07-5.77 11.61-5.8.68-3.01.62-6.12.65-9.19 1.17 2.51 1.7 5.55 3.89 7.42 4.2 2.52 9.31 4.16 14.14 2.4-.55.81-1.65 2.43-2.19 3.24-2.9.03-5.79.28-8.68.29-1.3-1.42-2.4-3-3.72-4.39.71 2.03 1.72 3.93 2.74 5.81-.93.49-1.83 1.04-2.81 1.42-1.08-.86-2.02-1.89-2.9-2.95-1.81-.03-3.6.25-5.4.45-2.27-.22-4.47.26-6.31 1.67 3.88.68 7.68-.69 11.56-.45.12 1.53.32 3.07.32 4.61-1.44 1.95-3.32 3.55-4.65 5.6 6.16-1.26 8.54-9.15 14.85-10.4 1.91-.09 3.8.31 5.7.37 1.69-.97 2.29-3.13 3.28-4.72 4.64-3.18 9.69-5.65 14.65-8.26 1.89-.88 2.8-2.91 3.62-4.7-2.18-3.85-4.89-7.36-7.17-11.14.72-.22 2.15-.65 2.87-.86.72 1.42 1.42 2.84 2.11 4.28 3.27 1.3 6.79 2.34 10.35 2 1.49-1.08 2.61-2.58 3.9-3.87-3.01 1.63-6.32 2.64-9.77 2.29.34-2.72 1.93-4.95 3.32-7.21-2.11 1.56-4 3.4-5.95 5.15-1.03-1.34-2.06-2.66-3.14-3.95-1.8.03-3.59.06-5.39.13.67 2.18 1.36 4.36 2.09 6.53-3.15-.33-6.29.11-9.3 1.05-.32-2.57-.87-5.11-1.61-7.59 3.87-1.27 7.36-3.39 11.02-5.14M115.6 97.18c-5.44-.51-11.09-.57-16.17 1.76.75 1.25 1.52 2.49 2.34 3.7.22-.77.65-2.33.86-3.11 4.72-.89 9.81.49 14.28-1.64 1.76-2.41 1.99-5.58 3.85-7.92.81-1.14 1.7-2.27 1.99-3.68-4.86 1.14-5.65 6.93-7.15 10.89M81.93 109.1c0 .5-.01 1.51-.01 2.01 2.26-.61 4.57-.97 6.9-1.1-.05 2.69-.26 5.37-.39 8.06 2-1.45 2.04-3.96 2.47-6.12.57-.31 1.69-.93 2.25-1.24-1.49-1.71-4.07-1.83-6.08-2.65-1.71.41-3.42.75-5.14 1.04m34.28 3.46c2.56.21 4.91 1.14 7.14 2.35-.43-3.55-4.81-5.54-7.14-2.35m-25.19 11.41c-.17.91-.34 1.82-.5 2.73.81.81 1.59 1.66 2.49 2.39 2.27.76 4.09-1 5.81-2.15 1.67.08 3.35.13 5.03.19 1.74.75 3.55 1.42 5.5 1.31-1.56-1.31-3.09-2.71-4.9-3.67-2.24-.25-4.54-.04-6.75-.62-1.23 2.05-3.08 3.51-5.45 4.03.06-1.59.14-3.17.25-4.75-.37.14-1.11.4-1.48.54m7.92 11.31c1.82 1.9 4.06 3.32 6.35 4.57-1.14-2.45-3.36-4.98-6.35-4.57m6.85 2.75c.37 2.4.94 4.85 2.28 6.92 1.72 2.03 4.42 2.9 6.93 3.45-1.54-1.57-3.44-2.74-4.96-4.31-1.36-2.06-2.5-4.28-4.25-6.06m3.19 15.43c-4.28-.13-8.3-1.77-12.41-2.8-1.43 2.99-3.29 6.26-1.72 9.58.67-2.73 1.47-5.42 2.59-7.99 1.93.7 3.85 1.4 5.73 2.22-2.01 4.49-6.47 6.57-10.41 9 5.11.37 10.32-3.66 11.67-8.61 6.52 1.1 13.29.4 19.42-2.09 1.22-.66 1.95-1.9 2.88-2.87-5.63 2.25-11.64 3.86-17.75 3.56m-4.32 9.95c5.07-.79 9.91-2.72 15.03-3.18.28-.5.84-1.5 1.11-1.99-5.47 1.09-11.79 1.27-16.14 5.17m16.54-4.21c1.26.61 3.66.8 4.39-.58-.96-.94-4.61-1.36-4.39.58m-11.8 7.47c-.12.92-.22 1.83-.31 2.75-2.33.18-4.65.45-6.93.93 4.44 2.12 9.18-.38 13.79-.25 4.33-.32 9.56-.07 12.43-3.98-5.86 1.69-12.13 2.83-18.14 2.65 4.21-4.79 11.58-4.99 16.44-8.97-6.27.78-11.82 3.94-17.28 6.87z"/><path d="M116.61 68.99c3.41-1.27 7.25-1.46 10.69-.2-1.96 2.62-3.33 5.58-4.79 8.5-2.26 1.8-4.7 3.38-7.06 5.05.84-4.4.85-8.89 1.16-13.35zM124.33 77.64c.71-2.85 1.96-5.62 4.49-7.3.06.9.17 2.69.22 3.59-.86 1.85-3.2 2.49-4.71 3.71zM118.38 187.46c5.9 1.05 11.61-2.15 16.02-5.8.4 4.4.59 8.82.66 13.24-.43-.11-1.3-.35-1.73-.46-.85 2.39-1.25 5.27-3.37 6.92-2.89-.43-3.86-3.57-5.24-5.71.7 2.42.82 5.74 3.37 7.04 3.52.61 4.98-3.35 6.63-5.65.65 2.21 1.94 4.46 1.42 6.84-1.58 6.91-2.02 14.2-.35 21.14.41 7.77-.4 15.62 1.79 23.21 3.99 3.4 7.05 7.71 10.94 11.21 2.88 2.8 8.1 1.51 9.97 5.53-1.8 1-3.5 2.21-5.42 2.97-3.37-.25-7.03.09-10.12-1.51-3.25-2.18-7.2-1.74-10.88-1.47-1.93-.01-4.83.52-5.64-1.83.11-4.35.13-8.89 1.85-12.96-.12-6.27 1.04-13.09-2.76-18.58-1.98-5.69-3.14-12.26-1.22-18.13l1.18 3.84c.32-.83.94-2.49 1.26-3.32-1.24-3.68-3.85-6.97-3.77-11.01.09-4.2-2.69-7.54-4.77-10.91-1.24-2.11-3.18-3.62-5.19-4.93.6-3.87 3.45.12 5.37.33m13.42 72.04c-.43-2.93-.93-5.84-1.4-8.75-1.65 2.98-1.09 6.41 1.4 8.75zM90.68 189.57c2.74 1.13 5.28 2.81 8.22 3.38 3.53.28 6.98-.77 10.4-1.49-.62 4.75-1.21 9.74-3.77 13.91-4.2 6.57-4.72 14.75-8.73 21.43-2.4 4.54-3.29 9.84-2.43 14.91 1.69-1.82 1.53-4.4 1.69-6.7-.02-3.1 1.39-5.93 2.73-8.64.42 4.47 1.08 9.24-.99 13.43-3.1 6.64-2.95 14.36-1.47 21.4.73 4.14 3.54 7.41 5.41 11.06 2.05 4.37 6.25 7.26 8.15 11.74-1.02.71-2.26.9-3.43 1.22-.82-1.26-1.47-2.63-2.52-3.71-3.33.2-6.65.58-10 .49-.15.37-.46 1.12-.62 1.5 3.3.33 6.59.27 9.88-.09.49.46 1.47 1.38 1.96 1.85-3.9 3.32-10.7 2.71-13.29-1.89-1.23-6.02-4.25-11.48-5.63-17.46.15-2.65 1.04-5.22.88-7.89.06-7.23-3.29-13.89-4.01-21 .05-5.42 2.01-10.67 4.22-15.56.99 2.52 1.91 5.06 2.76 7.63.48.15 1.43.45 1.9.6-2.52-7.6-5.98-16.09-2.12-23.87 2.76-5.06.8-10.85.81-16.25m3.21 15.39c-.16 1.83-.29 3.68-.16 5.53.49-1.18.95-2.37 1.39-3.57 1.79-.43 3.56-.9 5.32-1.42.7 1.09 1.48 2.12 2.33 3.1-.51-1.85-1.14-3.66-1.77-5.46-2.24 1.04-4.64 1.63-7.11 1.82m1.9 11.08c.83 0 2.49-.02 3.32-.03l.48-1.56c-1.28-.18-2.57-.35-3.85-.53.03.71.05 1.41.05 2.12m-7.19 51.75c3.49-1.55 4.56-5.36 6.15-8.48-3.59 1.28-4.59 5.41-6.15 8.48zM57.25 239.99c-.1-2.82 2.23-4.74 3.89-6.7 1.3.9 2.61 1.77 3.93 2.64 1.98 3.77 3.38 8.5 1.27 12.53-1.05 2.26-4.39 3.43-6.34 1.59-2.98-2.38-2.91-6.6-2.75-10.06z"/></g><g fill="#333"><path d="M115.53 58.09c5.49-3.05 11.26-6.89 17.85-6.14 4.41.71 9.15.03 13.22 2.2.22 1.67.43 3.34.64 5.01 1.26 1.44 2.99 3.23 2.19 5.34a66.377 66.377 0 00-3.05 11.59c-2.65 1.61-5.67 4.48-3.68 7.81-1.98 2.9-4.48 5.39-6.96 7.87-1.78 2.52-4.76 4.71-4.54 8.14-.16 5.03.36 10.08-1.06 14.97 2.36 6.31 1.51 13.5-1.69 19.36.7 4.24.31 8.55-.06 12.8.93 1.32 2.54 2.29 2.83 3.97.74 2.44-.52 4.79-.96 7.15 1.47 5.2 4.49 9.93 5.06 15.39.14 1.71 1.52 2.87 2.54 4.11l.2 2.3c-.89.46-1.77.92-2.65 1.38.65 4.47 1.03 9 .83 13.53-.34 3.2 2.38 5.96 1.57 9.17-1.51 6.13-1.58 12.65-.24 18.82 1.41 8.27-1.04 17.11 2.23 25.04 3.57 2.83 6.33 6.47 9.7 9.5 1.98 1.94 4.77 2.14 7.32 2.76 1.82 1.35 4.65 3.85 2.47 6.12-1.94 1.88-4.77 2.55-7.24 3.56-2.44-.01-4.83-.78-7.28-.4-2.32-1.05-4.53-2.36-6.96-3.14-2.91-.58-5.82.8-8.73.3-1.66-.37-3.1-1.3-4.59-2.07-1.48-8.4 4.1-16.24 2.02-24.61-.59-4.82-3.99-8.53-5.36-13.08-.16-5.31.38-10.64 1.66-15.8-.86-1.74-1.83-3.41-2.53-5.21-.86-3.01.01-6.53-2.02-9.16a65.71 65.71 0 01-5.13-8.91c-4.36 4.37-1.93 11.28-5.03 16.37-3.05 4.54-4.47 9.86-6.16 15-2.16 6.32.25 13.16-1.48 19.53-3.21 7.55-3.93 16.26-1.88 24.22 2.93 6.87 7.55 12.8 12.1 18.67.16 1.28.32 2.57.49 3.86-1.4.93-2.96 1.54-4.59 1.9-6.13 4.57-18.3 1.47-18.21-7.2-.52-2.76-2.44-5.11-2.54-7.97-.04-2.38-.92-4.61-1.19-6.94.18-2.45.63-4.87.72-7.33.31-7.79-3.95-14.94-3.69-22.73.52-5.22 2.61-10.11 4.14-15.08.74-4.95.63-10.07 2.37-14.83 2.47-5.49-.3-11.48 1.12-17.17-2.35 2.45-3.76-.93-5.3-2.4 1.32-2.75 3-5.47 3-8.62.22-4.74 2.32-9.18 2.16-13.96.06-3.45-1.71-6.72-1.16-10.2.98-2.24 2.99-3.79 4.39-5.76-.46-3.26-1.65-6.4-1.75-9.72-3.39-4.12-6.37-8.48-8.09-13.57-4.42-3.44-4.02-9.55-6.31-14.22-.59-4.12-1.69-8.3-1.2-12.48 4.06-7.08 9.78-13.51 17.74-16.18.06-3.13-.09-6.35-1.55-9.19.52-4.26-1.72-8.55-.18-12.72 1.06-2.45 3.22-4.54 5.93-4.97 3-.64 6.09-1.62 9.19-1.09 3.83.48 5.36 5.04 9.36 5.11m-18.5-3.51c-4.62 1.99-4.96 7.68-5.02 12.02.52-.03 1.55-.08 2.07-.1-.59 1.17-1.18 2.34-1.76 3.52 1.64 2.51 3.89 4.49 6.3 6.23-.4.38-1.19 1.14-1.59 1.52 1.48 4.6 6.6 6.38 11.01 6.28 2.84-.81 5.01-3.4 5.72-6.21.66-5.42.75-10.97-.15-16.36-2.55-6.29-10.42-8.63-16.58-6.9m28.59.01c-3.66 1.75-7.15 3.87-11.02 5.14.74 2.48 1.29 5.02 1.61 7.59 3.01-.94 6.15-1.38 9.3-1.05-.73-2.17-1.42-4.35-2.09-6.53 1.8-.07 3.59-.1 5.39-.13 1.08 1.29 2.11 2.61 3.14 3.95 1.95-1.75 3.84-3.59 5.95-5.15-1.39 2.26-2.98 4.49-3.32 7.21 3.45.35 6.76-.66 9.77-2.29-1.29 1.29-2.41 2.79-3.9 3.87-3.56.34-7.08-.7-10.35-2-.69-1.44-1.39-2.86-2.11-4.28-.72.21-2.15.64-2.87.86 2.28 3.78 4.99 7.29 7.17 11.14-.82 1.79-1.73 3.82-3.62 4.7-4.96 2.61-10.01 5.08-14.65 8.26-.99 1.59-1.59 3.75-3.28 4.72-1.9-.06-3.79-.46-5.7-.37-6.31 1.25-8.69 9.14-14.85 10.4 1.33-2.05 3.21-3.65 4.65-5.6 0-1.54-.2-3.08-.32-4.61-3.88-.24-7.68 1.13-11.56.45 1.84-1.41 4.04-1.89 6.31-1.67 1.8-.2 3.59-.48 5.4-.45.88 1.06 1.82 2.09 2.9 2.95.98-.38 1.88-.93 2.81-1.42-1.02-1.88-2.03-3.78-2.74-5.81 1.32 1.39 2.42 2.97 3.72 4.39 2.89-.01 5.78-.26 8.68-.29.54-.81 1.64-2.43 2.19-3.24-4.83 1.76-9.94.12-14.14-2.4-2.19-1.87-2.72-4.91-3.89-7.42-.03 3.07.03 6.18-.65 9.19-4.54.03-8.62 2.54-11.61 5.8.53.49 1.04 1 1.52 1.55-2.17 1.51-5.24 2.36-6.22 5.09-.46 4.47-.27 9.13 1.35 13.38 1.34 3.45 1.85 7.19 3.51 10.53.37-.94.74-1.88 1.11-2.81.46-.19 1.4-.56 1.86-.75-.24 2.21-1.73 4.63-.52 6.77 1.63 2.87 2.58 6.15 4.84 8.64.26-1.03.78-3.07 1.04-4.1.41 1.59.75 3.19 1.1 4.8 1.62-.64 3.25-1.27 4.88-1.9.47-.87.95-1.74 1.43-2.61.29.45.86 1.35 1.15 1.79 1.97.03 4.02-.26 5.93.35 1.97 1.18 3.1 3.35 5.15 4.43 1.25-.62 2.42-1.38 3.61-2.12-.56-1.12-1.11-2.23-1.64-3.36.63.41 1.88 1.23 2.5 1.64 1.19-.38 2.38-.76 3.58-1.12.92-2.78.4-5.67.16-8.5 2.92 3.12 2.9 7.69.36 11.04.92 2.15 1.72 4.42 1.52 6.8-.2 1.02.23 3.15-1.5 2.59-.32-3.27-.41-6.57-1.01-9.81-2.34 3.07-5.98 4.09-9.66 4.33-1.8-1.24-2.74-3.78-5.04-4.2-4.51-1.67-8.56 2.39-13.22 1.67 1.92 1 3.91 1.89 5.8 2.96-.79.15-2.37.47-3.16.62.81 2.52 1.43 5.09 2.09 7.65 4.84 2.29 10.27 1.45 15.35 2.76 5.5 1.3 10.79-1.21 16.04-2.48-.3.64-.9 1.93-1.19 2.57-4.96.6-9.68 3.3-14.77 2.26-5.48-1.32-11.5-.59-16.28-4.13-.07.61-.2 1.84-.27 2.46l-2.21.04c-.6 2.14-1.94 4.35-1.17 6.64 1.05 3.24 1.32 6.63 1.19 10.03.23 3.53-1.99 6.59-2.19 10.08-.25 3.11-1.37 6.04-2.99 8.7.49.58 1.46 1.76 1.95 2.35.61-1.38 1.2-2.77 1.77-4.16l1.97-.08c-.03 1.69-.05 3.38-.07 5.07 1.49.65 2.96 1.32 4.46 1.93 4.3 2.08 9.46.96 13.49-1.2 3.2-1.59 1.4-5.78 2.94-8.22 2.18-1.16 4.62-1.67 7.02-2.17 1.17-2.34 2.52-4.58 4.18-6.6-.25 2.83-1.26 5.64-3.06 7.86-2.83 1.15-6.5 1.29-7.7 4.67 3.94.56 8.07 2.74 12 1 4.17-1.34 6.95-5.04 11-6.6-3.23-3.33-2.5-8.27-4.4-12.21-.97-2.47-2.26-4.83-3-7.38.22-2.04.97-4 1.04-6.06.09-1.89-1.7-2.93-2.8-4.17-.02-1.38-.01-2.75.02-4.13l-1.72-.27c.01-3.4.04-6.83.6-10.2-.56.29-1.69.86-2.25 1.15.58-3.84.74-8.38 3.88-11.13.69 2.66-1.05 5.14-1.81 7.59l1.45 1.87c1.03-2.92 4.23-6.63 2.11-9.59-2.8-1.81-4.63-5.39-8.41-5.13-.74 3.12-3.99 3.69-6.6 4.3a182.56 182.56 0 01-3.2 4.14c-.37-.23-1.12-.68-1.5-.91 1.37-1.87 2.77-3.72 4.37-5.4.95-.06 2.86-.18 3.82-.23-.55-1.23-1.11-2.44-1.69-3.65-1.49-.46-2.98-.94-4.48-1.39-.1 1.06-.19 2.13-.28 3.19-.79.71-1.58 1.41-2.38 2.12.6-2.76.9-6 3.72-7.45 2.83.99 5.75 2.08 6.95 5.09 3.3-3.12 7.33.28 9.39 3.08 2.12-3.83-3.54-7.13-1.12-11.2-.6.06-1.79.19-2.39.25-.11-.62-.32-1.86-.42-2.47-3.5.97-7.08 1.63-10.72 1.48l1.23.88c-2.24 1.06-4.77 1.76-6.48 3.67-1.61.16-3.22.27-4.83.34 3.6-3.04 7.96-5.45 12.74-5.79 2-1.06 4.18-1.69 6.38-2.2.36-.79.71-1.58 1.06-2.38-.1-1.73-.85-3.59.01-5.24 2.98 2.97 1.22 8.27 3.67 11.69 3.2-3.18 1.08-7.79 1.76-11.73-.29-.5-.89-1.5-1.19-2 4.24-4.93 9.5-8.9 12.97-14.5-.6-.3-1.2-.6-1.79-.89-2.4 2.25-4.86 4.43-7.13 6.8-5.51 7.62-12.75 13.83-20.55 19.02-.41-.29-1.23-.88-1.64-1.18-3.85 1.83-7.29 4.59-11.59 5.33 2 2.24 4.13 4.39 5.81 6.89-1.6-.66-3.16-1.41-4.67-2.26-1.61 2.01-2.44 4.75-4.9 5.93.39-1.32.81-2.63 1.33-3.9.28-.5.84-1.49 1.11-1.99 1.04-.16 2.09-.24 3.14-.24-1.57-1.26-2.98-2.7-4.39-4.13-.49-.31-1.48-.92-1.97-1.23-.11-.25-.33-.75-.43-1 2.96-.02 6.05.03 8.71-1.48 2.37-1.37 4.74-3.08 7.64-2.76 3.09.32 4.52-3.06 6.91-4.42 5.42-3.57 9.48-8.72 13.66-13.58 2.17-2.61 5.39-4.28 6.92-7.41 2.62-1.15 5.23-2.75 6.63-5.35 1.37-3.49.85-7.51 2.8-10.81.29-.55.59-1.09.88-1.63-.68.39-2.02 1.18-2.7 1.57.53-2.66 1.12-5.31 1.41-8.01-1.81-.74-3.58-1.72-5.58-1.76-5.12-.41-10.47-1.64-15.41.42m-9.01 14.4c-.31 4.46-.32 8.95-1.16 13.35 2.36-1.67 4.8-3.25 7.06-5.05 1.46-2.92 2.83-5.88 4.79-8.5-3.44-1.26-7.28-1.07-10.69.2m7.72 8.65c1.51-1.22 3.85-1.86 4.71-3.71-.05-.9-.16-2.69-.22-3.59-2.53 1.68-3.78 4.45-4.49 7.3m-5.95 109.82c-1.92-.21-4.77-4.2-5.37-.33 2.01 1.31 3.95 2.82 5.19 4.93 2.08 3.37 4.86 6.71 4.77 10.91-.08 4.04 2.53 7.33 3.77 11.01-.32.83-.94 2.49-1.26 3.32l-1.18-3.84c-1.92 5.87-.76 12.44 1.22 18.13 3.8 5.49 2.64 12.31 2.76 18.58-1.72 4.07-1.74 8.61-1.85 12.96.81 2.35 3.71 1.82 5.64 1.83 3.68-.27 7.63-.71 10.88 1.47 3.09 1.6 6.75 1.26 10.12 1.51 1.92-.76 3.62-1.97 5.42-2.97-1.87-4.02-7.09-2.73-9.97-5.53-3.89-3.5-6.95-7.81-10.94-11.21-2.19-7.59-1.38-15.44-1.79-23.21-1.67-6.94-1.23-14.23.35-21.14.52-2.38-.77-4.63-1.42-6.84-1.65 2.3-3.11 6.26-6.63 5.65-2.55-1.3-2.67-4.62-3.37-7.04 1.38 2.14 2.35 5.28 5.24 5.71 2.12-1.65 2.52-4.53 3.37-6.92.43.11 1.3.35 1.73.46-.07-4.42-.26-8.84-.66-13.24-4.41 3.65-10.12 6.85-16.02 5.8m-27.7 2.11c-.01 5.4 1.95 11.19-.81 16.25-3.86 7.78-.4 16.27 2.12 23.87-.47-.15-1.42-.45-1.9-.6-.85-2.57-1.77-5.11-2.76-7.63-2.21 4.89-4.17 10.14-4.22 15.56.72 7.11 4.07 13.77 4.01 21 .16 2.67-.73 5.24-.88 7.89 1.38 5.98 4.4 11.44 5.63 17.46 2.59 4.6 9.39 5.21 13.29 1.89-.49-.47-1.47-1.39-1.96-1.85-3.29.36-6.58.42-9.88.09.16-.38.47-1.13.62-1.5 3.35.09 6.67-.29 10-.49 1.05 1.08 1.7 2.45 2.52 3.71 1.17-.32 2.41-.51 3.43-1.22-1.9-4.48-6.1-7.37-8.15-11.74-1.87-3.65-4.68-6.92-5.41-11.06-1.48-7.04-1.63-14.76 1.47-21.4 2.07-4.19 1.41-8.96.99-13.43-1.34 2.71-2.75 5.54-2.73 8.64-.16 2.3 0 4.88-1.69 6.7-.86-5.07.03-10.37 2.43-14.91 4.01-6.68 4.53-14.86 8.73-21.43 2.56-4.17 3.15-9.16 3.77-13.91-3.42.72-6.87 1.77-10.4 1.49-2.94-.57-5.48-2.25-8.22-3.38z"/><path d="M115.6 97.18c1.5-3.96 2.29-9.75 7.15-10.89-.29 1.41-1.18 2.54-1.99 3.68-1.86 2.34-2.09 5.51-3.85 7.92-4.47 2.13-9.56.75-14.28 1.64-.21.78-.64 2.34-.86 3.11-.82-1.21-1.59-2.45-2.34-3.7 5.08-2.33 10.73-2.27 16.17-1.76zM81.93 109.1c1.72-.29 3.43-.63 5.14-1.04 2.01.82 4.59.94 6.08 2.65-.56.31-1.68.93-2.25 1.24-.43 2.16-.47 4.67-2.47 6.12.13-2.69.34-5.37.39-8.06-2.33.13-4.64.49-6.9 1.1 0-.5.01-1.51.01-2.01zM116.21 112.56c2.33-3.19 6.71-1.2 7.14 2.35-2.23-1.21-4.58-2.14-7.14-2.35zM91.02 123.97c.37-.14 1.11-.4 1.48-.54-.11 1.58-.19 3.16-.25 4.75 2.37-.52 4.22-1.98 5.45-4.03 2.21.58 4.51.37 6.75.62 1.81.96 3.34 2.36 4.9 3.67-1.95.11-3.76-.56-5.5-1.31-1.68-.06-3.36-.11-5.03-.19-1.72 1.15-3.54 2.91-5.81 2.15-.9-.73-1.68-1.58-2.49-2.39.16-.91.33-1.82.5-2.73zM85.77 133.58c.28.15.83.44 1.1.59.09.33.28.98.37 1.31-2.65 17.49-5.8 34.91-8.2 52.43-.59-.74-1.17-1.48-1.75-2.22 2.84-17.36 5.39-34.79 8.48-52.11zM98.94 135.28c2.99-.41 5.21 2.12 6.35 4.57-2.29-1.25-4.53-2.67-6.35-4.57zM105.79 138.03c1.75 1.78 2.89 4 4.25 6.06 1.52 1.57 3.42 2.74 4.96 4.31-2.51-.55-5.21-1.42-6.93-3.45-1.34-2.07-1.91-4.52-2.28-6.92zM108.98 153.46c6.11.3 12.12-1.31 17.75-3.56-.93.97-1.66 2.21-2.88 2.87-6.13 2.49-12.9 3.19-19.42 2.09-1.35 4.95-6.56 8.98-11.67 8.61 3.94-2.43 8.4-4.51 10.41-9-1.88-.82-3.8-1.52-5.73-2.22-1.12 2.57-1.92 5.26-2.59 7.99-1.57-3.32.29-6.59 1.72-9.58 4.11 1.03 8.13 2.67 12.41 2.8zM104.66 163.41c4.35-3.9 10.67-4.08 16.14-5.17-.27.49-.83 1.49-1.11 1.99-5.12.46-9.96 2.39-15.03 3.18zM121.2 159.2c-.22-1.94 3.43-1.52 4.39-.58-.73 1.38-3.13 1.19-4.39.58zM109.4 166.67c5.46-2.93 11.01-6.09 17.28-6.87-4.86 3.98-12.23 4.18-16.44 8.97 6.01.18 12.28-.96 18.14-2.65-2.87 3.91-8.1 3.66-12.43 3.98-4.61-.13-9.35 2.37-13.79.25 2.28-.48 4.6-.75 6.93-.93.09-.92.19-1.83.31-2.75zM76.76 186.23c.58 1.1 1.22 2.17 1.84 3.25-2.18 14.49-4.79 28.92-6.85 43.42 1.14 4.87 2.87 10.23.31 15.01-.52-.7-1.02-1.4-1.52-2.1.83-2.12 1.01-4.37.6-6.59-.99 3.18-2.23 6.46-1.78 9.86-2.41 2.14-4.92 4.52-8.37 4.59-1.74-1.53-3.54-3.03-4.95-4.88-2.58-5.27.36-11.24-1.28-16.69-1.33-5.79-2.69-11.57-3.95-17.38-.42-1.31.24-2.54.76-3.69 2.51 7.3 3.52 15.01 5.43 22.47 2.03-.75 3.95-1.77 6.02-2.39.38.53.16 1.04-.68 1.54.6.08 1.81.24 2.41.31 1.77 1.36 2.7 3.4 3.84 5.25l.36-.18c.64 0 1.19.29 1.68.88 0-1.96-1.38-3.5-2.13-5.2-1-.89-2.69-1.44-2.87-2.93.94.08 2.81.23 3.75.3 1.74-.81.61-3.54 1.17-5.11 2.09-8.48 2.87-17.22 4.4-25.82.68-4.63 1.79-9.22 1.81-13.92m-19.51 53.76c-.16 3.46-.23 7.68 2.75 10.06 1.95 1.84 5.29.67 6.34-1.59 2.11-4.03.71-8.76-1.27-12.53-1.32-.87-2.63-1.74-3.93-2.64-1.66 1.96-3.99 3.88-3.89 6.7zM93.89 204.96c2.47-.19 4.87-.78 7.11-1.82.63 1.8 1.26 3.61 1.77 5.46-.85-.98-1.63-2.01-2.33-3.1-1.76.52-3.53.99-5.32 1.42-.44 1.2-.9 2.39-1.39 3.57-.13-1.85 0-3.7.16-5.53zM95.79 216.04c0-.71-.02-1.41-.05-2.12 1.28.18 2.57.35 3.85.53l-.48 1.56c-.83.01-2.49.03-3.32.03zM131.8 259.5c-2.49-2.34-3.05-5.77-1.4-8.75.47 2.91.97 5.82 1.4 8.75zM88.6 267.79c1.56-3.07 2.56-7.2 6.15-8.48-1.59 3.12-2.66 6.93-6.15 8.48z"/></g></svg>