<svg width="227pt" height="400" viewBox="0 0 227 300" xmlns="http://www.w3.org/2000/svg"><g fill="#FFF"><path d="M0 0h227v300H0V0m105.68 26.02c-5.04.14-4.57 6.43-5.21 10.02.95 4.82 3.93 10.24 9.4 10.75-.41 2.31-.85 4.63-1.16 6.96-5.08-1.61-11.93-2.41-15.72 2.2-3.31 3.23-2.81 8.28-1.61 12.33l-.3 3.37c1.51 2.75 2.04 5.99 1.55 9.09-3.18 2.14-7.05 3.28-9.79 6.07-2.3 2.4-4.25 5.08-6.25 7.72-3.54 4.11-.81 9.79-.51 14.52 2.13 5.36 2.37 11.78 7.06 15.76 1.3 4.9 4.41 8.9 7.65 12.67-.01.68-.05 2.03-.06 2.7-1.38 2.76-2.04 5.78-2.59 8.79-3.03 14.38-6.1 28.75-9.2 43.11-.55 1.77.17 3.61.95 5.19 2.86-13.17 5.34-26.44 8.58-39.53 2.07 6.87-1.14 13.54-1.59 20.35-.09 2.65-1.77 4.83-2.68 7.23.97 1.87 2.69 5.08 5.05 2.87-.75 4.23-.07 8.5.06 12.75-.47 3.1-1.95 5.94-2.34 9.06-.66 3.53-.56 7.17-1.32 10.68-1.56 4.57-3.3 9.14-3.94 13.96-.47 6.67 2.7 12.84 3.43 19.37.56 3.76.02 7.58-.68 11.29.64 2.22 1.31 4.45 1.38 6.78.05 2.9 2.03 5.27 2.53 8.08-.04 8.65 12.1 11.71 18.21 7.16 1.63-.37 3.19-.97 4.59-1.88l-.48-3.89c-1.18-1.55-2.24-3.2-3.51-4.69-3.37-3.47-5.19-8.04-7.83-12.02-3.32-8.6-2.1-18.49 1.33-26.87 1.24-6.56-.87-13.5 1.56-19.91 1.58-4.02 2.38-8.4 4.8-12.04 2.9-4.47 3.34-9.98 3.61-15.16.87-.98 1.73-1.96 2.58-2.94 1.43 3.06 3.13 5.98 5.03 8.77 2.03 2.62 1.16 6.14 2.01 9.14.7 1.79 1.67 3.47 2.53 5.2-1.27 5.18-1.84 10.51-1.64 15.84 1.37 4.54 4.77 8.27 5.36 13.09 2.07 8.36-3.53 16.19-2.03 24.59 1.51.77 2.97 1.7 4.65 2.07 2.91.47 5.82-.93 8.72-.3 2.41.8 4.6 2.08 6.9 3.12 2.43-.33 4.81.33 7.22.42 2.43-.84 4.76-1.98 7.16-2.91 1.96-2.61.05-5.31-2.31-6.79-2.77-.59-5.73-1.01-7.81-3.15-3.09-3.02-5.85-6.38-9.21-9.12-3.6-8.86-.33-18.75-2.78-27.87-.6-5.29-.57-10.77.77-15.95.85-3.19-1.86-5.93-1.55-9.11.27-4.39-.41-8.75-.55-13.12.97-1.22 2.07-2.38 2.56-3.9-1.17-1.29-2.79-2.48-2.93-4.37-.58-5.47-3.6-10.2-5.07-15.42.6-2.66 1.86-5.41.68-8.11-.87-1.14-1.88-2.16-2.83-3.22l.68-1.6c-.08-3.67.06-7.34-.16-11.01 2.86-5.98 3.94-13.04 1.5-19.36.75-3.61 1.77-7.29.38-10.92 1.54-3.96 4.67-6.98 6.74-10.65 1.95-3.03 2.99-6.5 4.68-9.66-.09-.6-.26-1.78-.34-2.38 1.26-2.1 2.91-3.89 4.92-5.3-.83-4.47.45-8.84 1.04-13.24-1.31-1.37-2.06-4.22-4.41-3.76l-.58.26c.98 1.51 2.28 2.85 2.94 4.56-.46 3.58-1.92 7.1-.9 10.73-1.83 2.46-4.1 4.6-7.02 5.66-1.42 2.93-4.33 4.57-6.45 6.9-4.23 4.77-8.12 10-13.47 13.61-2.09 1.37-3.69 3.33-5.72 4.78-2.38.25-5-.06-7.04 1.48-2.9 1.96-6.37 3.22-9.91 2.77-.36.18-1.09.54-1.45.71-3.59-1.76-9.83-4.03-12.31.4 2.52-.18 5.03-.47 7.56-.63-.09 3-.32 5.99-.48 8.99 1.54-2.37 1.99-5.28 3.46-7.64 4.01-1.46 6.16 2.76 8.88 4.74-1.1-.04-2.18.01-3.26.15l-.4.55c-.81 1.78-1.6 3.58-1.95 5.52 2.64-1.13 2.62-5.33 5.66-5.54 1.28.53 2.56 1.05 3.85 1.56-1.76-2.39-3.83-4.54-5.81-6.74 4.28-.78 7.73-3.51 11.58-5.34.41.3 1.23.88 1.64 1.17 6.49-4.23 12.38-9.35 17.53-15.11 2.72-4.18 6.6-7.35 10.18-10.75.64.36 1.27.73 1.91 1.11-1.49 2.06-3.02 4.1-4.5 6.16-2.26 3.4-3.7 7.55-7.24 9.91-.68 3.68.31 7.5-.79 11.11-.63-.03-1.91-.1-2.54-.13-.04-3.52.14-8.03-2.3-10.69-.85 1.64-.11 3.48-.02 5.2-.33.8-.67 1.6-1.01 2.39-2.29.52-4.59 1.14-6.55 2.49l-2.34-.2c-3.67 1.45-7.3 3.07-10.28 5.72 1.62-.06 3.24-.16 4.85-.32 1.68-1.95 4.24-2.61 6.48-3.68l-1.29-.94c3.53.32 6.98-.41 10.37-1.3 3.15 2.41 2.67 6.53 4.47 9.72 1.03 1.5.11 3.08-.6 4.45-.45-3.95-5.83-7-8.96-3.92-1-1.3-1.53-3.27-3.3-3.72-1.69-.35-3.83-2-5.24-.28-1.47 1.77-1.47 4.23-2.12 6.34.8-.7 1.6-1.41 2.39-2.11l.3-3.2c1.49.44 2.97.92 4.45 1.38.59 1.21 1.16 2.42 1.72 3.64-.95.05-2.84.16-3.79.21-1.98 1.88-3.65 4.12-4.37 6.8 1.93-1.14 3.31-2.89 4.9-4.42 2.42-1.05 5.66-1.4 6.39-4.49 3.12-.06 5.53 2.04 6.86 4.71.61.01 1.82.05 2.43.07.19 4.38-2.14 8.1-4.34 11.66-.88 2.83-.35 5.92-.6 8.86.44.13 1.32.38 1.75.51-.01 1.35-.02 2.69 0 4.04 1.1 1.23 2.85 2.29 2.8 4.16-.09 2.06-.82 4.02-1.04 6.06 1.34 4.41 4.04 8.39 4.58 13.05.22 2.44 1.26 4.66 2.8 6.54-4.02 1.6-6.82 5.25-10.97 6.6-3.93 1.76-8.07-.43-12-1 1.21-3.36 4.88-3.5 7.7-4.66 1.81-2.23 2.77-5.05 3.11-7.87-1.7 2-3.06 4.24-4.23 6.58-2.47.53-4.94 1.11-7.22 2.23-.89 2.28-.12 5.04-1.5 7.16-2.29 2.27-5.67 2.81-8.72 3.3-3.78.5-7.13-1.65-10.48-3.03.03-1.83.04-3.65.02-5.48-2.38.37-2.77 2.9-3.82 4.61-.45-.57-1.35-1.72-1.8-2.3 1.63-2.67 2.73-5.62 2.99-8.75.31-3.74 2.65-7.08 2.17-10.93.57-5.34-2.77-10.53-.18-15.69.59-.03 1.76-.08 2.35-.11.08-.61.23-1.83.3-2.45 4.8 3.57 10.86 2.81 16.37 4.15 5.08 1 9.79-1.69 14.73-2.3.27-.64.81-1.92 1.07-2.56-5.19 1.28-10.46 3.78-15.93 2.49-5.12-1.34-10.62-.41-15.47-2.85-.6-2.54-1.21-5.07-2-7.55.78-.16 2.36-.48 3.15-.64-1.9-1.09-3.91-2-5.82-3.08 3.5.13 6.83-.88 10.07-2.09 3.71-.32 5.95 2.36 8.23 4.76 3.67-.25 7.29-1.28 9.64-4.32.58 3.14.61 6.34 1.03 9.5.24.16.73.47.97.62 1-3.24.44-6.72-1.02-9.73 2.55-3.33 2.57-7.95-.36-11.05.23 2.85.76 5.76-.19 8.54-1.18.35-2.35.71-3.52 1.07-.9-.53-1.8-1.04-2.71-1.55.6 1.03 1.21 2.06 1.83 3.08-1.2.88-2.42 1.73-3.63 2.58-1.79-1.48-3.2-3.41-5.16-4.68-1.9-.61-3.94-.31-5.91-.34-.28-.45-.85-1.36-1.14-1.82-.48.87-.96 1.74-1.43 2.61-1.66.65-3.31 1.31-4.96 1.97-.21-1.6-.43-3.18-.64-4.77-.54 1.31-1.06 2.63-1.57 3.95-2.28-2.7-3.02-6.34-5.37-9 .35-2.15.75-4.29 1.15-6.43-.45.22-1.35.67-1.8.89-.29.68-.86 2.04-1.15 2.72-1.8-4.58-3.11-9.34-4.44-14.07-.42-3.97-1.37-8.49.93-12.07 2.02-.98 3.8-2.37 5.7-3.57 3.36-.62 6.81-.83 10.24-.85.12 1.53.29 3.06.32 4.6-1.43 1.93-3.26 3.52-4.69 5.46 1.15-.14 2.5 0 3.27-1.07 3.21-2.92 5.96-6.46 9.78-8.64 2.48-1.39 5.39.18 7.99-.37 1.63-1.83 2.43-4.42 4.62-5.71 4.08-2.72 8.56-4.74 12.86-7.08 2.52-1.34 4.35-4.54 2.69-7.27-.7.5-1.39 1.01-2.07 1.53.11 2.5-1.88 3.87-3.59 5.26-.26-3.75-.88-7.46-1.04-11.21 1.2 1.53 2.37 3.1 3.46 4.72.46-.56.92-1.13 1.37-1.7-1.69-2.41-2.97-5.06-4.16-7.74 2.78-.52 3.87 1.94 4.9 3.96 3.08 1.38 6.46 2.24 9.85 2.06 2.02-.72 3.09-2.89 4.59-4.33l-2.7-3.6c-.11 1.07-.35 3.22-.47 4.29-1.29 2.5-4.29 1.94-6.62 2.08l-.52-3.84c1.82-1.69 3.66-3.43 4.66-5.77-4.26.03-5.58 4.66-7.16 7.78-4.99-5.82-5.91-13.52-7.52-20.72-.62-3.96-3.56-6.87-5.6-10.14.74-.52 2.21-1.56 2.95-2.09-.6-.4-1.8-1.21-2.4-1.61.64-.62 1.91-1.87 2.54-2.49a77.22 77.22 0 00-4.27 3.38c-2.2.84-4.47 1.48-6.8 1.84-.71-1.92-1.46-3.82-2.24-5.71 2.36-1.24 4.67-2.84 7.4-3.09 3.1-.16 6.17.47 9.17 1.16 1.98 3.15 3.69 6.46 5.47 9.72 1.81 3.47 5.51 5.58 6.93 9.31 1.33 3.37 1.92 6.99 3.54 10.26-.84 1.85-.52 3.01.96 3.48 1.4-1.11.47-3.34.9-4.9-1.57-2.98-2.4-6.25-3.54-9.4-2-5.42-7.19-8.79-9.41-14.08-1.29-2.2-2.26-4.84-4.39-6.35-2.99-.9-6.15-1.09-9.24-1.34-4 .38-7.35 2.83-10.62 4.94m9.92 71.16c-5.4-.51-11-.58-16.04 1.69.34.8 1.02 2.4 1.37 3.2 1.03-.84 1.91-1.85 2.95-2.67 4.27-.49 8.61-.13 12.86-.86.9-1.9 1.76-3.82 2.5-5.79.74-2.38 2.98-3.98 3.51-6.45-4.87 1.11-5.65 6.92-7.15 10.88m.56 15.95l3.71-.24c1.08.79 2.17 1.57 3.3 2.3.26-3.94-5.37-6.18-7.01-2.06m-25.14 10.8c-.17.93-.33 1.86-.5 2.8.83.81 1.62 1.66 2.54 2.38 2.97.89 4.88-2.72 7.85-2.09 2.91-.34 5.48 1.67 8.4 1.23-1.66-1.3-3.38-2.52-5.1-3.74-2.18.14-4.39.25-6.51-.37-1.23 2.07-3.09 3.52-5.46 4.05.08-1.57.18-3.13.3-4.69-.38.11-1.14.32-1.52.43m32.84 10.84c1.75-3.2 3.84-6.7 3.54-10.48-3.1 2.37-3.67 6.82-3.54 10.48m-18.51 5.07c-1.15-2.6-3.53-4.2-6.05-5.3.5 2.94 3.89 3.84 6.05 5.3m.44-1.82c.11 5.26 3.75 10 9.21 10.38-1.54-1.6-3.47-2.75-4.99-4.36-1.35-2.05-2.48-4.25-4.22-6.02m3.18 15.44c-4.28-.13-8.29-1.77-12.39-2.81-1.44 2.99-3.32 6.26-1.72 9.57.67-2.71 1.47-5.4 2.59-7.96 1.91.69 3.84 1.39 5.71 2.2-1.93 4.52-6.51 6.36-10.19 9.09 5 .12 10.14-3.75 11.47-8.67 6.51 1.07 13.29.4 19.41-2.11 1.28-.66 2-2 2.97-3-5.61 2.43-11.71 3.95-17.85 3.69m-4.31 9.96c5.08-.81 9.94-2.73 15.08-3.2.26-.5.77-1.5 1.03-2-5.46 1.13-11.79 1.28-16.11 5.2m16.54-4.22c1.26.6 3.68.79 4.41-.58-.98-.92-4.62-1.37-4.41.58m-11.78 7.45c-.13.93-.26 1.85-.37 2.78-2.32.17-4.63.45-6.9.91 4.44 2.14 9.2-.37 13.81-.23 4.35-.31 9.55-.11 12.46-3.99-5.88 1.66-12.16 2.83-18.18 2.65 4.21-4.77 11.57-4.98 16.42-8.96-6.25.75-11.78 3.93-17.24 6.84m-31.15 30.73c-.79 1.08-.8 2.17-.03 3.25 1.46.1 1.52-3.39.03-3.25m-1.96 4.61c.31 2.88-.56 5.66-1.7 8.26.92-.02 1.83-.03 2.75-.03.24-2.9.91-5.74 1.49-8.59-.7.27-2.7-.92-2.54.36m-1.35 8.26c-.89 4.75-1.53 9.6-3.37 14.1.93-.05 1.85-.1 2.78-.13.39-4.05 1.45-7.99 2.3-11.95-.57-.68-1.14-1.35-1.71-2.02m-24.29 2.94c.35 4.05 1.79 7.93 2.41 11.95.51-.87.97-1.77 1.38-2.7-.64-3.85-1.53-7.67-2.8-11.37-.25.53-.74 1.59-.99 2.12m4.25 10.65c-3.17 3.98 1.09 8.68.4 13.12-.56 3.78-.64 7.68.41 11.39 1.41 2.07 3.39 3.65 5.23 5.32 2.93-.14 5.28-1.83 7.55-3.5.61-3.07 1.14-6.17 2.12-9.15-2.11-.94-2.65-3.01-2.93-5.12-1.31-1.3-2.65-2.72-4.49-3.22-.9-.1-.6-1.2-.96-1.77-1.74.92-3.45 1.88-5.16 2.85-.8-3.3-1.52-6.6-2.17-9.92m16.9 1.98c-.64.75.38 4.24 1.27 2.17.71-.77-.21-3.81-1.27-2.17m-1.52 4.19c.19.63.55 1.9.73 2.54-1.97-1.41-4.09-2.7-6.65-2.44 1.58 1.81 4 3 4.95 5.32.53 1.15.99 2.38 2.07 3.14.91 2.32-.42 4.92-.86 7.23.5.71 1.01 1.42 1.53 2.11 3.37-5.96-1.1-12.4.78-18.58l-2.55.68z"/><path d="M103.01 38.87c-1.69-3.62.62-7.37 1.81-10.8.49.35 1.47 1.05 1.97 1.39-1.16 3.12-2.55 6.37-1.99 9.77.61 1.89 2.32 3.32 4.17 3.9 4.18.9 8.4-1.1 11.43-3.87-1.09 1.53-2.04 3.33-3.8 4.2-2.7 1.32-5.81 1.05-8.72 1.47-1.88-1.78-4.2-3.41-4.87-6.06z"/><path d="M107.95 31.2c.92.83 1.84 1.66 2.75 2.5 2.06-.12 4.12-.47 6.19-.42 1.06.72 1.97 1.65 2.95 2.49-.84 1.24-1.68 2.48-2.5 3.74-2.43.86-4.89 2.04-7.54 1.75-1.43-.72-2.51-1.94-3.68-2.99.55-2.37 1.2-4.72 1.83-7.07zM120.49 43.32c.33-.84.65-1.68.97-2.51 2.07 6.07 2.96 12.46 4.71 18.63-.68.11-2.05.32-2.74.42.41 1.39.84 2.77 1.29 4.15-1.11 4.26-2.38 8.66-1.32 13.08-2.79 1.49-5.33 3.37-7.92 5.18 1.36-7.91 1.06-16.15-1.17-23.88-1.41-1.31-2.81-2.66-4.21-3.98.75-2.58 1.33-5.2 1.91-7.81 3.17-.03 5.98-1.44 8.48-3.28z"/><path d="M95.49 55.59c6.12-3.56 15.14-.77 18.06 5.73 1 5.44.85 11.06.2 16.54-.7 2.79-2.84 5.31-5.63 6.17-4.41.15-9.58-1.63-11.08-6.23.41-.41 1.23-1.24 1.64-1.65-2.42-1.75-4.75-3.65-6.41-6.16.65-1.18 1.31-2.35 1.98-3.51-.56.03-1.67.1-2.22.14.16-3.78.08-8.54 3.46-11.03z"/><path d="M94.17 75.5c1.19 2.51 1.72 5.56 3.92 7.44 4.2 2.51 9.3 4.15 14.13 2.4l-2.19 3.23c-2.83.03-5.67.04-8.45.67-1.26-1.62-2.5-3.27-4.01-4.66.73 1.88 1.7 3.66 2.71 5.41-.59.49-1.77 1.45-2.36 1.94-1.18-1.02-2.27-2.16-3.55-3.05-3.67-.09-7.35.52-11.04.43 2.55-2.97 6.48-4.29 10.26-4.74.67-2.98.56-6.04.58-9.07zM90.81 148.34c-.7-1.56-.24-3.79.8-5.07.9 1.23 1.46 5.22-.8 5.07zM113.78 185.06c6.37 5.42 15.17 1.33 20.62-3.39.39 4.4.6 8.81.65 13.23-.43-.11-1.3-.35-1.73-.46-.85 2.43-1.26 5.36-3.47 6.99-2.75-.71-3.8-3.59-5.14-5.76.72 2.41.82 5.76 3.41 7.01 3.5.64 4.95-3.36 6.6-5.63.66 2.23 1.96 4.5 1.4 6.91-1.57 6.86-1.99 14.1-.34 21 .44 7.78-.41 15.65 1.78 23.26 6.15 4.9 10 13.9 18.92 14.06.59.89 1.17 1.79 1.68 2.75-1.62 1.1-3.25 2.23-5.1 2.92-2.03.07-4.04-.25-6.06-.4-3.61.01-6.36-3.24-10.05-2.81-3.35-.3-7.35 1.41-10.19-.88-.66-4.48-.09-9.39 1.52-13.68-.05-4.09.25-8.2-.2-12.28-.42-3.58-3.29-6.3-3.73-9.86-.57-4.78-2.11-9.79.05-14.42l1.04 3.67c.33-.8.99-2.41 1.31-3.21-1.2-3.73-3.86-7.04-3.78-11.13.11-4.24-2.74-7.57-4.83-10.99-1.18-1.97-2.98-3.43-4.88-4.67l.52-2.23m18.01 74.43c-.42-2.93-.91-5.86-1.41-8.78-1.57 3.02-1.12 6.43 1.41 8.78zM90.7 189.58c2.74 1.13 5.3 2.85 8.26 3.38 3.51.26 6.93-.78 10.33-1.5-.61 4.77-1.21 9.77-3.79 13.95-4.17 6.56-4.71 14.7-8.69 21.36-2.41 4.54-3.28 9.83-2.49 14.9 1.77-1.79 1.59-4.39 1.74-6.71-.02-3.07 1.4-5.88 2.73-8.57.28 3.95 1.05 8.1-.42 11.92-4.64 10.05-4.29 22.84 2.26 31.98 2.14 5.21 6.87 8.64 9.25 13.69-1.01.73-2.25.92-3.42 1.23-.83-1.25-1.45-2.66-2.56-3.7-3.32.2-6.63.57-9.96.49-.16.37-.48 1.1-.64 1.46 3.32.3 6.68.69 9.92-.34.43.6 1.3 1.8 1.73 2.4-3.42 2.38-8.25 2.58-11.5-.22-2.43-1.71-1.97-5-3.09-7.44-1.74-3.88-2.8-7.99-4.3-11.95 2.5-7.99.04-16.18-2.07-23.93-2.27-6.95.52-14.17 3.35-20.51.98 2.52 1.9 5.07 2.75 7.63l1.92.56c-1.86-5.42-3.86-10.94-3.97-16.72.13-5.17 4.1-9.56 3.24-14.81-.18-2.85-.44-5.7-.58-8.55m3.2 15.38c-.19 1.81-.38 3.65-.05 5.46l1.2-3.48c1.79-.44 3.57-.9 5.34-1.43.75 1.05 1.52 2.1 2.36 3.09-.49-1.85-1.11-3.66-1.72-5.47a20.794 20.794 0 01-7.13 1.83m1.88 11.09c.83-.01 2.49-.04 3.32-.05.13-.37.41-1.12.55-1.49-1.3-.22-2.6-.42-3.89-.63 0 .72.01 1.44.02 2.17m-7.19 51.74c3.48-1.56 4.58-5.35 6.16-8.47-3.59 1.28-4.61 5.39-6.16 8.47zM57.26 239.92c-.1-2.86 2.34-4.73 3.98-6.71 5.37 2.72 7.71 9.79 5.13 15.19-1.04 2.31-4.42 3.51-6.38 1.64-2.98-2.42-2.9-6.65-2.73-10.12z"/></g><g fill="#333"><path d="M105.68 26.02c3.27-2.11 6.62-4.56 10.62-4.94 3.09.25 6.25.44 9.24 1.34 2.13 1.51 3.1 4.15 4.39 6.35 2.22 5.29 7.41 8.66 9.41 14.08 1.14 3.15 1.97 6.42 3.54 9.4-.43 1.56.5 3.79-.9 4.9-1.48-.47-1.8-1.63-.96-3.48-1.62-3.27-2.21-6.89-3.54-10.26-1.42-3.73-5.12-5.84-6.93-9.31-1.78-3.26-3.49-6.57-5.47-9.72-3-.69-6.07-1.32-9.17-1.16-2.73.25-5.04 1.85-7.4 3.09.78 1.89 1.53 3.79 2.24 5.71 2.33-.36 4.6-1 6.8-1.84a77.22 77.22 0 014.27-3.38c-.63.62-1.9 1.87-2.54 2.49.6.4 1.8 1.21 2.4 1.61-.74.53-2.21 1.57-2.95 2.09 2.04 3.27 4.98 6.18 5.6 10.14 1.61 7.2 2.53 14.9 7.52 20.72 1.58-3.12 2.9-7.75 7.16-7.78-1 2.34-2.84 4.08-4.66 5.77l.52 3.84c2.33-.14 5.33.42 6.62-2.08.12-1.07.36-3.22.47-4.29l2.7 3.6c-1.5 1.44-2.57 3.61-4.59 4.33-3.39.18-6.77-.68-9.85-2.06-1.03-2.02-2.12-4.48-4.9-3.96 1.19 2.68 2.47 5.33 4.16 7.74-.45.57-.91 1.14-1.37 1.7a80.468 80.468 0 00-3.46-4.72c.16 3.75.78 7.46 1.04 11.21 1.71-1.39 3.7-2.76 3.59-5.26.68-.52 1.37-1.03 2.07-1.53 1.66 2.73-.17 5.93-2.69 7.27-4.3 2.34-8.78 4.36-12.86 7.08-2.19 1.29-2.99 3.88-4.62 5.71-2.6.55-5.51-1.02-7.99.37-3.82 2.18-6.57 5.72-9.78 8.64-.77 1.07-2.12.93-3.27 1.07 1.43-1.94 3.26-3.53 4.69-5.46-.03-1.54-.2-3.07-.32-4.6-3.43.02-6.88.23-10.24.85-1.9 1.2-3.68 2.59-5.7 3.57-2.3 3.58-1.35 8.1-.93 12.07 1.33 4.73 2.64 9.49 4.44 14.07.29-.68.86-2.04 1.15-2.72.45-.22 1.35-.67 1.8-.89-.4 2.14-.8 4.28-1.15 6.43 2.35 2.66 3.09 6.3 5.37 9 .51-1.32 1.03-2.64 1.57-3.95.21 1.59.43 3.17.64 4.77 1.65-.66 3.3-1.32 4.96-1.97.47-.87.95-1.74 1.43-2.61.29.46.86 1.37 1.14 1.82 1.97.03 4.01-.27 5.91.34 1.96 1.27 3.37 3.2 5.16 4.68 1.21-.85 2.43-1.7 3.63-2.58-.62-1.02-1.23-2.05-1.83-3.08.91.51 1.81 1.02 2.71 1.55 1.17-.36 2.34-.72 3.52-1.07.95-2.78.42-5.69.19-8.54 2.93 3.1 2.91 7.72.36 11.05 1.46 3.01 2.02 6.49 1.02 9.73-.24-.15-.73-.46-.97-.62-.42-3.16-.45-6.36-1.03-9.5-2.35 3.04-5.97 4.07-9.64 4.32-2.28-2.4-4.52-5.08-8.23-4.76-3.24 1.21-6.57 2.22-10.07 2.09 1.91 1.08 3.92 1.99 5.82 3.08-.79.16-2.37.48-3.15.64.79 2.48 1.4 5.01 2 7.55 4.85 2.44 10.35 1.51 15.47 2.85 5.47 1.29 10.74-1.21 15.93-2.49-.26.64-.8 1.92-1.07 2.56-4.94.61-9.65 3.3-14.73 2.3-5.51-1.34-11.57-.58-16.37-4.15-.07.62-.22 1.84-.3 2.45-.59.03-1.76.08-2.35.11-2.59 5.16.75 10.35.18 15.69.48 3.85-1.86 7.19-2.17 10.93-.26 3.13-1.36 6.08-2.99 8.75.45.58 1.35 1.73 1.8 2.3 1.05-1.71 1.44-4.24 3.82-4.61.02 1.83.01 3.65-.02 5.48 3.35 1.38 6.7 3.53 10.48 3.03 3.05-.49 6.43-1.03 8.72-3.3 1.38-2.12.61-4.88 1.5-7.16 2.28-1.12 4.75-1.7 7.22-2.23 1.17-2.34 2.53-4.58 4.23-6.58-.34 2.82-1.3 5.64-3.11 7.87-2.82 1.16-6.49 1.3-7.7 4.66 3.93.57 8.07 2.76 12 1 4.15-1.35 6.95-5 10.97-6.6-1.54-1.88-2.58-4.1-2.8-6.54-.54-4.66-3.24-8.64-4.58-13.05.22-2.04.95-4 1.04-6.06.05-1.87-1.7-2.93-2.8-4.16-.02-1.35-.01-2.69 0-4.04-.43-.13-1.31-.38-1.75-.51.25-2.94-.28-6.03.6-8.86 2.2-3.56 4.53-7.28 4.34-11.66-.61-.02-1.82-.06-2.43-.07-1.33-2.67-3.74-4.77-6.86-4.71-.73 3.09-3.97 3.44-6.39 4.49-1.59 1.53-2.97 3.28-4.9 4.42.72-2.68 2.39-4.92 4.37-6.8.95-.05 2.84-.16 3.79-.21-.56-1.22-1.13-2.43-1.72-3.64-1.48-.46-2.96-.94-4.45-1.38l-.3 3.2c-.79.7-1.59 1.41-2.39 2.11.65-2.11.65-4.57 2.12-6.34 1.41-1.72 3.55-.07 5.24.28 1.77.45 2.3 2.42 3.3 3.72 3.13-3.08 8.51-.03 8.96 3.92.71-1.37 1.63-2.95.6-4.45-1.8-3.19-1.32-7.31-4.47-9.72-3.39.89-6.84 1.62-10.37 1.3l1.29.94c-2.24 1.07-4.8 1.73-6.48 3.68-1.61.16-3.23.26-4.85.32 2.98-2.65 6.61-4.27 10.28-5.72l2.34.2c1.96-1.35 4.26-1.97 6.55-2.49.34-.79.68-1.59 1.01-2.39-.09-1.72-.83-3.56.02-5.2 2.44 2.66 2.26 7.17 2.3 10.69.63.03 1.91.1 2.54.13 1.1-3.61.11-7.43.79-11.11 3.54-2.36 4.98-6.51 7.24-9.91 1.48-2.06 3.01-4.1 4.5-6.16-.64-.38-1.27-.75-1.91-1.11-3.58 3.4-7.46 6.57-10.18 10.75-5.15 5.76-11.04 10.88-17.53 15.11-.41-.29-1.23-.87-1.64-1.17-3.85 1.83-7.3 4.56-11.58 5.34 1.98 2.2 4.05 4.35 5.81 6.74-1.29-.51-2.57-1.03-3.85-1.56-3.04.21-3.02 4.41-5.66 5.54.35-1.94 1.14-3.74 1.95-5.52l.4-.55c1.08-.14 2.16-.19 3.26-.15-2.72-1.98-4.87-6.2-8.88-4.74-1.47 2.36-1.92 5.27-3.46 7.64.16-3 .39-5.99.48-8.99-2.53.16-5.04.45-7.56.63 2.48-4.43 8.72-2.16 12.31-.4.36-.17 1.09-.53 1.45-.71 3.54.45 7.01-.81 9.91-2.77 2.04-1.54 4.66-1.23 7.04-1.48 2.03-1.45 3.63-3.41 5.72-4.78 5.35-3.61 9.24-8.84 13.47-13.61 2.12-2.33 5.03-3.97 6.45-6.9 2.92-1.06 5.19-3.2 7.02-5.66-1.02-3.63.44-7.15.9-10.73-.66-1.71-1.96-3.05-2.94-4.56l.58-.26c2.35-.46 3.1 2.39 4.41 3.76-.59 4.4-1.87 8.77-1.04 13.24-2.01 1.41-3.66 3.2-4.92 5.3.08.6.25 1.78.34 2.38-1.69 3.16-2.73 6.63-4.68 9.66-2.07 3.67-5.2 6.69-6.74 10.65 1.39 3.63.37 7.31-.38 10.92 2.44 6.32 1.36 13.38-1.5 19.36.22 3.67.08 7.34.16 11.01l-.68 1.6c.95 1.06 1.96 2.08 2.83 3.22 1.18 2.7-.08 5.45-.68 8.11 1.47 5.22 4.49 9.95 5.07 15.42.14 1.89 1.76 3.08 2.93 4.37-.49 1.52-1.59 2.68-2.56 3.9.14 4.37.82 8.73.55 13.12-.31 3.18 2.4 5.92 1.55 9.11-1.34 5.18-1.37 10.66-.77 15.95 2.45 9.12-.82 19.01 2.78 27.87 3.36 2.74 6.12 6.1 9.21 9.12 2.08 2.14 5.04 2.56 7.81 3.15 2.36 1.48 4.27 4.18 2.31 6.79-2.4.93-4.73 2.07-7.16 2.91-2.41-.09-4.79-.75-7.22-.42-2.3-1.04-4.49-2.32-6.9-3.12-2.9-.63-5.81.77-8.72.3-1.68-.37-3.14-1.3-4.65-2.07-1.5-8.4 4.1-16.23 2.03-24.59-.59-4.82-3.99-8.55-5.36-13.09-.2-5.33.37-10.66 1.64-15.84-.86-1.73-1.83-3.41-2.53-5.2-.85-3 .02-6.52-2.01-9.14-1.9-2.79-3.6-5.71-5.03-8.77-.85.98-1.71 1.96-2.58 2.94-.27 5.18-.71 10.69-3.61 15.16-2.42 3.64-3.22 8.02-4.8 12.04-2.43 6.41-.32 13.35-1.56 19.91-3.43 8.38-4.65 18.27-1.33 26.87 2.64 3.98 4.46 8.55 7.83 12.02 1.27 1.49 2.33 3.14 3.51 4.69l.48 3.89c-1.4.91-2.96 1.51-4.59 1.88-6.11 4.55-18.25 1.49-18.21-7.16-.5-2.81-2.48-5.18-2.53-8.08-.07-2.33-.74-4.56-1.38-6.78.7-3.71 1.24-7.53.68-11.29-.73-6.53-3.9-12.7-3.43-19.37.64-4.82 2.38-9.39 3.94-13.96.76-3.51.66-7.15 1.32-10.68.39-3.12 1.87-5.96 2.34-9.06-.13-4.25-.81-8.52-.06-12.75-2.36 2.21-4.08-1-5.05-2.87.91-2.4 2.59-4.58 2.68-7.23.45-6.81 3.66-13.48 1.59-20.35-3.24 13.09-5.72 26.36-8.58 39.53-.78-1.58-1.5-3.42-.95-5.19 3.1-14.36 6.17-28.73 9.2-43.11.55-3.01 1.21-6.03 2.59-8.79.01-.67.05-2.02.06-2.7-3.24-3.77-6.35-7.77-7.65-12.67-4.69-3.98-4.93-10.4-7.06-15.76-.3-4.73-3.03-10.41.51-14.52 2-2.64 3.95-5.32 6.25-7.72 2.74-2.79 6.61-3.93 9.79-6.07.49-3.1-.04-6.34-1.55-9.09l.3-3.37c-1.2-4.05-1.7-9.1 1.61-12.33 3.79-4.61 10.64-3.81 15.72-2.2.31-2.33.75-4.65 1.16-6.96-5.47-.51-8.45-5.93-9.4-10.75.64-3.59.17-9.88 5.21-10.02m-2.67 12.85c.67 2.65 2.99 4.28 4.87 6.06 2.91-.42 6.02-.15 8.72-1.47 1.76-.87 2.71-2.67 3.8-4.2-3.03 2.77-7.25 4.77-11.43 3.87-1.85-.58-3.56-2.01-4.17-3.9-.56-3.4.83-6.65 1.99-9.77-.5-.34-1.48-1.04-1.97-1.39-1.19 3.43-3.5 7.18-1.81 10.8m4.94-7.67c-.63 2.35-1.28 4.7-1.83 7.07 1.17 1.05 2.25 2.27 3.68 2.99 2.65.29 5.11-.89 7.54-1.75.82-1.26 1.66-2.5 2.5-3.74-.98-.84-1.89-1.77-2.95-2.49-2.07-.05-4.13.3-6.19.42-.91-.84-1.83-1.67-2.75-2.5m12.54 12.12c-2.5 1.84-5.31 3.25-8.48 3.28-.58 2.61-1.16 5.23-1.91 7.81 1.4 1.32 2.8 2.67 4.21 3.98 2.23 7.73 2.53 15.97 1.17 23.88 2.59-1.81 5.13-3.69 7.92-5.18-1.06-4.42.21-8.82 1.32-13.08-.45-1.38-.88-2.76-1.29-4.15.69-.1 2.06-.31 2.74-.42-1.75-6.17-2.64-12.56-4.71-18.63-.32.83-.64 1.67-.97 2.51m-25 12.27c-3.38 2.49-3.3 7.25-3.46 11.03.55-.04 1.66-.11 2.22-.14-.67 1.16-1.33 2.33-1.98 3.51 1.66 2.51 3.99 4.41 6.41 6.16-.41.41-1.23 1.24-1.64 1.65 1.5 4.6 6.67 6.38 11.08 6.23 2.79-.86 4.93-3.38 5.63-6.17.65-5.48.8-11.1-.2-16.54-2.92-6.5-11.94-9.29-18.06-5.73M94.17 75.5c-.02 3.03.09 6.09-.58 9.07-3.78.45-7.71 1.77-10.26 4.74 3.69.09 7.37-.52 11.04-.43 1.28.89 2.37 2.03 3.55 3.05.59-.49 1.77-1.45 2.36-1.94-1.01-1.75-1.98-3.53-2.71-5.41 1.51 1.39 2.75 3.04 4.01 4.66 2.78-.63 5.62-.64 8.45-.67l2.19-3.23c-4.83 1.75-9.93.11-14.13-2.4-2.2-1.88-2.73-4.93-3.92-7.44m-3.36 72.84c2.26.15 1.7-3.84.8-5.07-1.04 1.28-1.5 3.51-.8 5.07m22.97 36.72l-.52 2.23c1.9 1.24 3.7 2.7 4.88 4.67 2.09 3.42 4.94 6.75 4.83 10.99-.08 4.09 2.58 7.4 3.78 11.13-.32.8-.98 2.41-1.31 3.21l-1.04-3.67c-2.16 4.63-.62 9.64-.05 14.42.44 3.56 3.31 6.28 3.73 9.86.45 4.08.15 8.19.2 12.28-1.61 4.29-2.18 9.2-1.52 13.68 2.84 2.29 6.84.58 10.19.88 3.69-.43 6.44 2.82 10.05 2.81 2.02.15 4.03.47 6.06.4 1.85-.69 3.48-1.82 5.1-2.92-.51-.96-1.09-1.86-1.68-2.75-8.92-.16-12.77-9.16-18.92-14.06-2.19-7.61-1.34-15.48-1.78-23.26-1.65-6.9-1.23-14.14.34-21 .56-2.41-.74-4.68-1.4-6.91-1.65 2.27-3.1 6.27-6.6 5.63-2.59-1.25-2.69-4.6-3.41-7.01 1.34 2.17 2.39 5.05 5.14 5.76 2.21-1.63 2.62-4.56 3.47-6.99.43.11 1.3.35 1.73.46-.05-4.42-.26-8.83-.65-13.23-5.45 4.72-14.25 8.81-20.62 3.39m-23.08 4.52c.14 2.85.4 5.7.58 8.55.86 5.25-3.11 9.64-3.24 14.81.11 5.78 2.11 11.3 3.97 16.72l-1.92-.56c-.85-2.56-1.77-5.11-2.75-7.63-2.83 6.34-5.62 13.56-3.35 20.51 2.11 7.75 4.57 15.94 2.07 23.93 1.5 3.96 2.56 8.07 4.3 11.95 1.12 2.44.66 5.73 3.09 7.44 3.25 2.8 8.08 2.6 11.5.22-.43-.6-1.3-1.8-1.73-2.4-3.24 1.03-6.6.64-9.92.34.16-.36.48-1.09.64-1.46 3.33.08 6.64-.29 9.96-.49 1.11 1.04 1.73 2.45 2.56 3.7 1.17-.31 2.41-.5 3.42-1.23-2.38-5.05-7.11-8.48-9.25-13.69-6.55-9.14-6.9-21.93-2.26-31.98 1.47-3.82.7-7.97.42-11.92-1.33 2.69-2.75 5.5-2.73 8.57-.15 2.32.03 4.92-1.74 6.71-.79-5.07.08-10.36 2.49-14.9 3.98-6.66 4.52-14.8 8.69-21.36 2.58-4.18 3.18-9.18 3.79-13.95-3.4.72-6.82 1.76-10.33 1.5-2.96-.53-5.52-2.25-8.26-3.38z"/><path d="M115.6 97.18c1.5-3.96 2.28-9.77 7.15-10.88-.53 2.47-2.77 4.07-3.51 6.45-.74 1.97-1.6 3.89-2.5 5.79-4.25.73-8.59.37-12.86.86-1.04.82-1.92 1.83-2.95 2.67-.35-.8-1.03-2.4-1.37-3.2 5.04-2.27 10.64-2.2 16.04-1.69zM116.16 113.13c1.64-4.12 7.27-1.88 7.01 2.06-1.13-.73-2.22-1.51-3.3-2.3l-3.71.24zM91.02 123.93c.38-.11 1.14-.32 1.52-.43-.12 1.56-.22 3.12-.3 4.69 2.37-.53 4.23-1.98 5.46-4.05 2.12.62 4.33.51 6.51.37 1.72 1.22 3.44 2.44 5.1 3.74-2.92.44-5.49-1.57-8.4-1.23-2.97-.63-4.88 2.98-7.85 2.09-.92-.72-1.71-1.57-2.54-2.38.17-.94.33-1.87.5-2.8zM123.86 134.77c-.13-3.66.44-8.11 3.54-10.48.3 3.78-1.79 7.28-3.54 10.48zM105.35 139.84c-2.16-1.46-5.55-2.36-6.05-5.3 2.52 1.1 4.9 2.7 6.05 5.3zM105.79 138.02c1.74 1.77 2.87 3.97 4.22 6.02 1.52 1.61 3.45 2.76 4.99 4.36-5.46-.38-9.1-5.12-9.21-10.38zM108.97 153.46c6.14.26 12.24-1.26 17.85-3.69-.97 1-1.69 2.34-2.97 3-6.12 2.51-12.9 3.18-19.41 2.11-1.33 4.92-6.47 8.79-11.47 8.67 3.68-2.73 8.26-4.57 10.19-9.09-1.87-.81-3.8-1.51-5.71-2.2-1.12 2.56-1.92 5.25-2.59 7.96-1.6-3.31.28-6.58 1.72-9.57 4.1 1.04 8.11 2.68 12.39 2.81zM104.66 163.42c4.32-3.92 10.65-4.07 16.11-5.2-.26.5-.77 1.5-1.03 2-5.14.47-10 2.39-15.08 3.2zM121.2 159.2c-.21-1.95 3.43-1.5 4.41-.58-.73 1.37-3.15 1.18-4.41.58zM109.42 166.65c5.46-2.91 10.99-6.09 17.24-6.84-4.85 3.98-12.21 4.19-16.42 8.96 6.02.18 12.3-.99 18.18-2.65-2.91 3.88-8.11 3.68-12.46 3.99-4.61-.14-9.37 2.37-13.81.23 2.27-.46 4.58-.74 6.9-.91.11-.93.24-1.85.37-2.78zM78.27 197.38c1.49-.14 1.43 3.35-.03 3.25-.77-1.08-.76-2.17.03-3.25zM76.31 201.99c-.16-1.28 1.84-.09 2.54-.36-.58 2.85-1.25 5.69-1.49 8.59-.92 0-1.83.01-2.75.03 1.14-2.6 2.01-5.38 1.7-8.26zM93.9 204.96c2.47-.19 4.87-.79 7.13-1.83.61 1.81 1.23 3.62 1.72 5.47-.84-.99-1.61-2.04-2.36-3.09-1.77.53-3.55.99-5.34 1.43l-1.2 3.48c-.33-1.81-.14-3.65.05-5.46zM74.96 210.25c.57.67 1.14 1.34 1.71 2.02-.85 3.96-1.91 7.9-2.3 11.95-.93.03-1.85.08-2.78.13 1.84-4.5 2.48-9.35 3.37-14.1zM50.67 213.19c.25-.53.74-1.59.99-2.12 1.27 3.7 2.16 7.52 2.8 11.37-.41.93-.87 1.83-1.38 2.7-.62-4.02-2.06-7.9-2.41-11.95zM95.78 216.05c-.01-.73-.02-1.45-.02-2.17 1.29.21 2.59.41 3.89.63-.14.37-.42 1.12-.55 1.49-.83.01-2.49.04-3.32.05zM54.92 223.84c.65 3.32 1.37 6.62 2.17 9.92 1.71-.97 3.42-1.93 5.16-2.85.36.57.06 1.67.96 1.77 1.84.5 3.18 1.92 4.49 3.22.28 2.11.82 4.18 2.93 5.12-.98 2.98-1.51 6.08-2.12 9.15-2.27 1.67-4.62 3.36-7.55 3.5-1.84-1.67-3.82-3.25-5.23-5.32-1.05-3.71-.97-7.61-.41-11.39.69-4.44-3.57-9.14-.4-13.12m2.34 16.08c-.17 3.47-.25 7.7 2.73 10.12 1.96 1.87 5.34.67 6.38-1.64 2.58-5.4.24-12.47-5.13-15.19-1.64 1.98-4.08 3.85-3.98 6.71zM71.82 225.82c1.06-1.64 1.98 1.4 1.27 2.17-.89 2.07-1.91-1.42-1.27-2.17z"/><path d="M70.3 230.01l2.55-.68c-1.88 6.18 2.59 12.62-.78 18.58-.52-.69-1.03-1.4-1.53-2.11.44-2.31 1.77-4.91.86-7.23-1.08-.76-1.54-1.99-2.07-3.14-.95-2.32-3.37-3.51-4.95-5.32 2.56-.26 4.68 1.03 6.65 2.44-.18-.64-.54-1.91-.73-2.54zM131.79 259.49c-2.53-2.35-2.98-5.76-1.41-8.78.5 2.92.99 5.85 1.41 8.78zM88.59 267.79c1.55-3.08 2.57-7.19 6.16-8.47-1.58 3.12-2.68 6.91-6.16 8.47z"/></g></svg>