<svg width="224" height="250pt" viewBox="0 0 168 250" xmlns="http://www.w3.org/2000/svg"><g fill="#FFF"><path d="M0 0h168v250H0V0m41.68 35.7c-1.45 1.57-2.37 3.56-3.41 5.41-1.54 2.25-.04 5.21-1.61 7.44-3.25 6.67-6.83 13.82-5.95 21.47.44 3.52-.91 6.9-.97 10.4 2.63 3.41 1.54 7.82 2.59 11.72.61 3.57 2.68 6.79 2.49 10.49-2.72 2.93-5.36 6.01-7.47 9.42-1.12 1.62.05 3.49.39 5.14-1.36 1.63-2.83 3.21-3.89 5.07-3.12 5.11-.31 11.29 1.31 16.48 1.48 3.29.66 6.86.74 10.3 1.17 3.07 1.35 6.53-.24 9.5-2.05 5.04.06 10.34.71 15.45-1.04 1.56-2.17 3.11-2.78 4.92.46 2.26 2.03 4.1 3.08 6.12-.25.76-.74 2.28-.99 3.04 1.66 3.85 2.81 8.08 1.44 12.22l2.36 1.48c-2.18 4.7.23 9.75 1.29 14.42.67 3.79 4.06 6.01 6.16 8.97.64 1.28 2.02.43 2.97.11-2.33-2.51-4.29-5.39-5.99-8.35-1.87-4.7-2.2-9.82-2.49-14.82 6.74-.22 13.56-.23 20.14-1.87-.07 2.31.46 4.55 1.15 6.74.1 3.05-.5 6.08-.44 9.14.11 2.47-1.46 5.11.11 7.39-.16-2.7.81-5.15 1.84-7.58.68-6.3.17-12.62-.38-18.91.6.27 1.8.8 2.4 1.07 1.89-4.7-2.01-9.71.64-14.21 1.49-3.45 2.34-7.2 2.05-10.96-.43-3.25-1.88-6.25-2.57-9.44-.41-.38-1.24-1.13-1.65-1.5-.15-5.31-1.59-10.55-1.21-15.88.97-3.55 3.69-6.39 4.32-10.07.51-4.91 5.92-7.18 6.91-11.91.61-4.14 1.54-8.81-1.43-12.32 1.58-4.34-.15-8.55-1.37-12.65 3.09-6.78 2.74-14.38 1.54-21.56-1.7-2.92-4.91-4.99-8.3-5.3-1.92-.48-4.25-.7-5.48 1.17 3.97.35 7.44 2.25 10.82 4.19 2.15 4.49 1.82 9.61.93 14.36-.66 1.35-1.28 2.72-1.89 4.1-2.43-1.19-4.34-3.24-5.77-5.49-1.05-4.56-1.32-9.45-3.96-13.47-2.79-3.7 0-8.42-1.59-12.45-1.29-3.54-.95-7.37-1.12-11.06l-1.24.8c-.82 3.87-1.58 8.49.82 11.95-.57-.06-1.7-.16-2.27-.22-1.19 3.91-5.26 5.46-7.21 8.83.01 1.93.38 3.83.64 5.73 3.94 1.25 6.27 5.02 7.61 8.7l-3 .04c-1.49 4.14-.41 8.53 2.26 11.88 1.77.35 3.55.65 5.33.96-.2-.6-.59-1.79-.79-2.38-3.98.24-7.14-4.44-4.93-7.92 1.52 1.34 2.79 1.31 3.81-.1-1.46-6.11-5.62-10.83-9.28-15.7 1.12-1.6 2.22-3.24 3.72-4.52 1.03-1.04 2.76-2.09 1.98-3.9l2.77.03c-.6 3.59-1.39 7.65.7 10.93 2.54 3.95 3 8.69 3.85 13.19.74 3.41-.57 6.87.19 10.28 3-1.25.87-5.69 1.66-8.19 2.31 3.09 5.36 5.59 7.33 8.91 1.44 2.48.32 5.35.41 8.01 2.07 3.4 1.12 7.45 1.1 11.19.06 4.97-5.33 7.42-6.59 11.88-.96 3.94-2.85 7.56-5 10.97-1.83 2.97-2.01 6.53-2.43 9.9-1.62 4.23-6.71 6.93-11.13 5.8l.26-1.28c-2.44.93-3.67-1.35-5.45-2.43-.01 1.54.52 2.89 1.58 4.03-2.07-.13-4.15-.19-6.23-.2 1.5-1.96.44-4.45 1.03-6.68.46-2.06-.62-4.05-.62-6.11-.05-3 .44-6.13-.96-8.93-.69-2.62-3.06-5.65-.8-8.11 1.26 1.06 2.5 2.14 3.72 3.25 1.01 1.69 2.28 3.22 3.61 4.67.02 1.57-.22 3.41 1.87 3.74-.17-2.47.4-5.19-.96-7.41 1.87-.85 3.33-2.27 4.72-3.74 1.45.09 2.85-.15 4.19-.71.8 1.66 1.67 3.3 2.22 5.06-.32 2.64-1.02 5.22-1.1 7.89.46.03 1.39.07 1.85.1-.05-2.86 1.26-5.58 1.18-8.4-1.15-2.29-2.49-4.53-2.9-7.1-.75-2.62.51-5.16 1.01-7.69.35-1.42.5-3.11 1.83-4-.34-1-.79-2.78.9-2.66 2.24 2.03 3.12 4.97 4.28 7.66.35.12 1.04.37 1.38.5-.83-3.47-1.21-7.63-4.57-9.66-3.01-3.33-7.2-5.44-9.56-9.35-2.45-3.07-3.06-7.14-5.55-10.19-.4-2.19-.02-4.45-.07-6.67 1.98 2.14 3.27 6.26 6.47 6.45-.92-3.55-4.16-5.69-5.64-8.94-3.46-2.51-3.74-7.05-2.08-10.69-2.05-9.72 3.12-18.59 7.3-26.96-.8-2.1-1.7-4.87.16-6.71 1.65-1.25 3.27-2.55 4.71-4.04 3.41 1.89 6.36 4.5 8.8 7.53-.68 2.71-.38 5.5-.11 8.24-2.51-.09-4.93-.73-6.95-2.26-1.65 1.38-1.58 3.32-.96 5.24 1.02-.87 2.04-1.74 3.07-2.61 1.9.05 3.8.01 5.7-.13 1.2 4.6 4.11 8.43 5.96 12.76 2.35 5.17 6.17 9.4 10.39 13.12-3.77-.32-2.57 4.04-2.68 6.41 1.4 2.4 3.42 4.34 5.3 6.36l-1.48.03c1.67.3 2.73 1.62 3.86 2.75 1.88-.6 3.82-.99 5.81-1.01.35 3.45 3.2 5.75 4.49 8.8 2.08 3.71 2.81 8.1 5.57 11.42 2.3 2.9 5.79 4.35 8.95 6.08 3.03 1.49 2.99 5.49 5.68 7.33 3.51 2.81 5.89 6.93 10.03 8.94-1.76 2.19-3.61 4.33-4.94 6.82-.48 1.53.36 3.1.02 4.65-1.66 2.48-4.15 4.96-3.61 8.22-.03 3.96.3 8.15 3.09 11.25-.89 3.21.19 6.37 1.56 9.25-.32 2.03-.76 4.06-1.75 5.88l.9 2.19c-.28.59-.83 1.76-1.11 2.35 2.66 5.02-.38 10.92 2.2 16.07.38.25 1.12.76 1.49 1.01-1.2 5.34 1.12 10.5.9 15.78-.47.56-1.41 1.67-1.88 2.23.93 2.15 2.4 2.57 4.28.89-.41 2.51.74 4.74 2.06 6.76.59-.46 1.76-1.37 2.34-1.83-2.04-1.08-2.88-3.02-2.67-5.3 5.41.95 10.52-1.15 15.78-1.97.11.75.32 2.24.43 2.98 1.12-.04 2.23-.26 3.28-.66l-2.72-.76c.68-1.67 2.34-2.02 3.94-2.25.48-1.8-.07-3.47-1.15-4.91-.2.83-.61 2.51-.81 3.34.07-.8.22-2.41.29-3.21-2.64 3.16-6.71 3.44-10.38 4.49-3.88 1.49-8.1.57-12.13 1.04.69-.28 2.07-.83 2.76-1.1.36-3.36-2.2-6.19-1.66-9.58-.37-2.59 2.62-5.72-.32-7.52-1.66-4.2-4.54-11.1.43-13.96-1.49-.44-2.97-.9-4.43-1.41 1.26-2.41 3.98-1.68 6.18-1.8 5.08.05 10.12-1.21 14.78-3.16.12 1.58 1.16 2.76 2.11 3.94-.14.67-.28 1.35-.42 2.03 4.13 2.25 5.66 7.39 4.93 11.83-.02 4.95-2.19 9.56-2.31 14.49.69.33 2.08 1 2.77 1.33.14-1.83-.83-3.94.24-5.62 4.83-7.92 2.92-18.9-3.81-25.09.96-2.91 1.13-5.96 1.26-8.99.07-3.62 3.42-5.82 4.29-9.16 1.33-4.83 4.55-9.01 4.96-14.09.34-.41 1.03-1.21 1.37-1.61.48-6.44-.4-12.84-1.19-19.21-.45-2.45-2.33-4.51-2.12-7.09 1.78-3.71 3.8-7.29 5.6-10.99 1.37-5.12-.76-11.12-5.6-13.6-4.92-3.99-12.36-3.47-17.27.22-4.19 4.14-3.75 10.54-5.95 15.67.89.88 1.76 1.78 2.64 2.66 1.36-5.61 1.32-11.93 4.78-16.81 3.69-2.53 8.71-3.16 12.75-1.03 4.13 1.55 5.95 6.02 6.92 9.98-.1 3.83-2.97 6.63-4.88 9.69-.64 2.1-.73 4.32-1.06 6.48 4.05 7.35 2.75 15.89 2.94 23.91-.7 4.7-2.58 9.17-4.69 13.4-.61-.56-1.21-1.13-1.8-1.7 2.26-1.49 1.22-3.98 1.02-6.13-.53-.33-1.6-.99-2.14-1.33 1.31-2.11 2.47-4.3 3.58-6.52-.4-2.45-1.64-5.06-4.25-5.73 1.18 2.56 2.28 5.19 2.23 8.07-1.79 1.15-3.6 2.43-5.8 2.54.92 1.53 1.92 3.21 4.08 2.51-.23 3.04-.54 6.07-.94 9.08 1.32-.25 2.64-.5 3.97-.74-1.54 3.65-5.4 6.2-5.62 10.38.51 1.99.87 5.32-1.84 5.8.51-2.04 1.01-4.08 1.34-6.16-3.12.4-2.81 4.07-3.44 6.34-4.13 1.69-10.72 3.84-13.82-.54 1.38-4.4.91-9.57 4.47-13.04-1.35-.16-2.74-.4-3.8-1.32.09-1.85-.7-4.28 1.25-5.5 1.21-1.66 3.37-1.68 5.17-2.23.74 1.79 2.34 3.52 1.63 5.59-.1 1.74-1.65 5.18 1.33 5.16.19-2.33.63-4.62.92-6.93-1.96-3.72-4.01-7.85-2.16-12.11 1.11 1.31 2.02 5.65 4.3 3.63-2.21-3.07-1.71-7.51-4.71-9.95-.95 2.53-1.12 5.23-1.61 7.87-1.44 1.77-4.59.71-3.9-1.79-1.06.37-1.75 1.1-2.09 2.19 1.08 1.76 3.37 2.35 5.26 1.61.04 1.17.09 2.33.15 3.5-.71 0-2.11-.01-2.82-.01.12-.67.36-2.01.47-2.68-2.57.23-3.35 2.37-1.66 4.18-1.08.74-2.09 1.58-3.06 2.46-1.73-1.81-5.63-2.83-4.07-6.03-.78.17-2.34.52-3.12.69.18-2.67 1.37-4.96 3.29-6.79-.92-4.36 1.83-8.41 5.02-11.16 1.9 1.48 3.96 2.74 6.09 3.87-3.49 1.63-6.51 4.03-9.74 6.09.09.52.26 1.56.34 2.09 1.08-.02 1.74-.97 2.55-1.54 2.45-2.22 5.5-3.56 8.19-5.44 3.62 1.3 5.96 4.32 6.74 8.06.36-.14 1.09-.42 1.46-.56-.58-2.58-1.13-5.55-3.48-7.14-3.82-3.25-7.9-6.6-12.74-8.12-6.28-3.79-10.34-10.03-14.88-15.59.63-.16 1.89-.47 2.52-.63-.11-.73-.32-2.19-.42-2.92 1.25.75 2.66 1.57 4.18 1.7-1.08-1.05-2.17-2.08-3.27-3.1-.28-2.31-.7-4.6-1.28-6.85.71.04 2.15.13 2.87.18.79 3.74 4.23 6.03 7.95 6 2.22 2.19 4.24 4.6 6.76 6.48 1.19 3.19 2.98 6.07 4.9 8.86.22 1.6.07 3.63 2.07 4.09-.21-3.68-.41-7.67-3.72-9.98 4.39.76 8.89 2.5 11.66 6.18 2.27 2.71 2.53 6.38 2.75 9.75 1.76.79 4.51 3.03 5.21-.16-1.08-.28-2.14-.55-3.21-.82.41-7.06-4.6-13.97-11.45-15.71 1.65-.52 4.51-1.57 3.34-3.83-2.03.93-4.04 2.6-6.43 2.07-1.81-.49-3.36-1.61-5.11-2.24l.84-.85c-3.91-4.2-9.91-5.59-13.68-9.82-1.4-3.79-3.31-7.52-6.49-10.14-5.45-4.25-10.65-8.83-16.4-12.7-2.9-2.44-2.04-6.59-2.49-9.92-3.99-.98-8.71-1.92-10.65-6-5.48-5.04-9.83-11.21-13.25-17.81-.99-2.03-2.56-3.68-4.14-5.26-.16-.95-.31-1.89-.46-2.84-2.93-2.55-5.77-5.27-8.83-7.64-1.91.47-3.82 1.14-5.49 2.19M37.7 70.98c1.55-1.52 1.32-3.87 1.84-5.82.4-2.54 1.53-4.86 2.5-7.21-5.14 1.71-5.05 8.61-4.34 13.03m75.06 44.13c2.08 2.08 4.19 4.19 5.35 6.95-.47.28-1.4.83-1.87 1.1-2.27 2.36 2.37 3.7 3.9 4.71a75.8 75.8 0 01-1.45-2.84c2.46-4.24-1.27-9.65-5.93-9.92M32.89 155.9l1.42-.51c.95-3.39 1.07-7.09 2.8-10.22.62-1.21 2.59-2.11 1.69-3.66-5.76 1.84-5.91 9.38-5.91 14.39m82-.09c1.92-.99 4.53-1.7 4.92-4.2-1.95.83-4.39 1.93-4.92 4.2m18.44 3.66c-2.38 2.7-2.75 6.49-3.58 9.85.29.34.86 1.03 1.15 1.38 1.7-3.1 2.21-6.65 3.43-9.93-.25-.32-.75-.97-1-1.3z"/><path d="M54.77 46.86c3.68.61 4.79 4.8 6.77 7.46 1.91 4.27 5.67 7.19 8.19 11.05 2.6 3.35 4.24 7.36 7.2 10.45-.93.69-1.87 1.37-2.8 2.06-1.96-3.4-5.74-5.07-7.9-8.31-2.96-3.58-4.31-8.09-6.57-12.09-1.93-3.41-2.52-7.42-4.89-10.62z"/><path d="M78.95 73.56l2.91 1.47c.31 1.89.43 3.84 1.07 5.66 2.87 5.77 8.93 8.71 13.83 12.49 4.65 3.04 10.32 6.11 11.14 12.25l-3.36-.51c.02-1.98-1.11-3.59-2.32-5.04-.92 4.67 2.75 9.12 1.56 13.89-.56 1.23-1.85 1.76-2.89 2.49-1.94-1.51-4.04-2.87-5.74-4.67-4.95-5.67-5.56-13.98-11.41-19.03-.65-2.38.87-6.03-1.9-7.3-.13 1.48-.23 2.96-.3 4.45-1.74.78-3.62.37-5.44.2-2.04-2.13-3.47-4.72-5.13-7.14-1.33-1.44-.19-3.53.74-4.85.65 4.74 4.87 1.17 6.67-.54.18-1.28.37-2.55.57-3.82m6.91 19.34c-.14 1.06 1.9 2.77 2.35 1.2.21-1.14-1.88-2.81-2.35-1.2m8.67 8.81c2.14 2.06 2.98 6.09 6.47 6.15-1.28-2.06-2.9-3.86-4.25-5.86-1.25-1.97-1.28-4.32-1.83-6.51-2.33 1.59-.82 4.08-.39 6.22m-5.74-5.42c-.3 1.42 1.79 3.21 3.18 2.53.68-1.57-1.85-2.93-3.18-2.53zM32.74 107.77c1.13-1.57 2.36-3.3 4.4-3.66 1.42 2.53 3.7 4.34 5.64 6.43.18 1.36-1.55 1.33-2.37 1.91-3.32 1.24-5.88 3.8-9.02 5.37.15.85-.27 2.2 1.01 2.2 3.78-3.28 8.17-5.73 12.6-8.01 1.9.19.62 2.32.29 3.27-1.35 2.44-1.32 5.29-1.97 7.94-1.66 2.29-6.07.51-4.89-2.42-.79.56-2.3.9-1.95 2.19.67 2.56 4.07 2.83 6.2 2.1-.03 1.56-.05 3.13-.08 4.69-1.5.13-3 .1-4.36-.62l1.45-2.53c-2.69-.43-4.63 2.46-2.05 4.22-.47.17-1.43.51-1.9.68-.23 1.1-1.29 3.14-2.68 2.42-1.55-1.41-3.06-2.88-4.86-3.99l.52-2.99c-.92.2-2.76.58-3.68.78.05-3.48 1.67-6.5 4.4-8.59-1.39-4.23 1.25-7.92 3.3-11.39m-2.69 21.44c2.36.47 6.17-1.47 5.65-4.17-1.77 1.53-3.72 2.84-5.65 4.17zM49.19 159.26c1.44-3.53.79-7.5 2.42-10.98.08 3.18-.15 6.38.22 9.56-.91.43-1.79.9-2.64 1.42zM111.08 156.76c3.37 2.02 6.57 5.16 7.22 9.18.57-.06 1.7-.17 2.26-.23-4.27 3.36-2.04 8.97-3.48 13.42.23.45.69 1.36.91 1.81-1.31.19-2.62.38-3.93.58 1.2-5.68-1.21-11.16-.22-16.8-.95-2.64-3.34-4.89-2.76-7.96zM46.99 163.62c2.08-.59 3.79-2.02 5.63-3.1-.02.54-.08 1.61-.11 2.15 3.87 4.46 5.53 10.98 4.27 16.76-.5 2.74-2.4 4.94-3.13 7.59-.08 2.67.52 5.3.65 7.96-2.79 2.75-7.02 3.32-10.76 3.8-4.45.45-8.96.93-13.4.02.88-4.64-1.99-9.3-.33-13.79-.9-2.27-2.27-4.3-3.84-6.16.91-1.98 2.01-3.85 2.88-5.85-.02-2.65-.84-5.22-2.34-7.39 1.01-.89 1.8-2.62 3.42-2.29 5.68.34 11.37.13 17.06.3z"/></g><g fill="#333"><path d="M41.68 35.7c1.67-1.05 3.58-1.72 5.49-2.19 3.06 2.37 5.9 5.09 8.83 7.64.15.95.3 1.89.46 2.84 1.58 1.58 3.15 3.23 4.14 5.26 3.42 6.6 7.77 12.77 13.25 17.81 1.94 4.08 6.66 5.02 10.65 6 .45 3.33-.41 7.48 2.49 9.92 5.75 3.87 10.95 8.45 16.4 12.7 3.18 2.62 5.09 6.35 6.49 10.14 3.77 4.23 9.77 5.62 13.68 9.82l-.84.85c1.75.63 3.3 1.75 5.11 2.24 2.39.53 4.4-1.14 6.43-2.07 1.17 2.26-1.69 3.31-3.34 3.83 6.85 1.74 11.86 8.65 11.45 15.71 1.07.27 2.13.54 3.21.82-.7 3.19-3.45.95-5.21.16-.22-3.37-.48-7.04-2.75-9.75-2.77-3.68-7.27-5.42-11.66-6.18 3.31 2.31 3.51 6.3 3.72 9.98-2-.46-1.85-2.49-2.07-4.09-1.92-2.79-3.71-5.67-4.9-8.86-2.52-1.88-4.54-4.29-6.76-6.48-3.72.03-7.16-2.26-7.95-6-.72-.05-2.16-.14-2.87-.18.58 2.25 1 4.54 1.28 6.85 1.1 1.02 2.19 2.05 3.27 3.1-1.52-.13-2.93-.95-4.18-1.7.1.73.31 2.19.42 2.92-.63.16-1.89.47-2.52.63 4.54 5.56 8.6 11.8 14.88 15.59 4.84 1.52 8.92 4.87 12.74 8.12 2.35 1.59 2.9 4.56 3.48 7.14-.37.14-1.1.42-1.46.56-.78-3.74-3.12-6.76-6.74-8.06-2.69 1.88-5.74 3.22-8.19 5.44-.81.57-1.47 1.52-2.55 1.54-.08-.53-.25-1.57-.34-2.09 3.23-2.06 6.25-4.46 9.74-6.09-2.13-1.13-4.19-2.39-6.09-3.87-3.19 2.75-5.94 6.8-5.02 11.16-1.92 1.83-3.11 4.12-3.29 6.79.78-.17 2.34-.52 3.12-.69-1.56 3.2 2.34 4.22 4.07 6.03.97-.88 1.98-1.72 3.06-2.46-1.69-1.81-.91-3.95 1.66-4.18-.11.67-.35 2.01-.47 2.68.71 0 2.11.01 2.82.01-.06-1.17-.11-2.33-.15-3.5-1.89.74-4.18.15-5.26-1.61.34-1.09 1.03-1.82 2.09-2.19-.69 2.5 2.46 3.56 3.9 1.79.49-2.64.66-5.34 1.61-7.87 3 2.44 2.5 6.88 4.71 9.95-2.28 2.02-3.19-2.32-4.3-3.63-1.85 4.26.2 8.39 2.16 12.11-.29 2.31-.73 4.6-.92 6.93-2.98.02-1.43-3.42-1.33-5.16.71-2.07-.89-3.8-1.63-5.59-1.8.55-3.96.57-5.17 2.23-1.95 1.22-1.16 3.65-1.25 5.5 1.06.92 2.45 1.16 3.8 1.32-3.56 3.47-3.09 8.64-4.47 13.04 3.1 4.38 9.69 2.23 13.82.54.63-2.27.32-5.94 3.44-6.34-.33 2.08-.83 4.12-1.34 6.16 2.71-.48 2.35-3.81 1.84-5.8.22-4.18 4.08-6.73 5.62-10.38-1.33.24-2.65.49-3.97.74.4-3.01.71-6.04.94-9.08-2.16.7-3.16-.98-4.08-2.51 2.2-.11 4.01-1.39 5.8-2.54.05-2.88-1.05-5.51-2.23-8.07 2.61.67 3.85 3.28 4.25 5.73-1.11 2.22-2.27 4.41-3.58 6.52.54.34 1.61 1 2.14 1.33.2 2.15 1.24 4.64-1.02 6.13.59.57 1.19 1.14 1.8 1.7 2.11-4.23 3.99-8.7 4.69-13.4-.19-8.02 1.11-16.56-2.94-23.91.33-2.16.42-4.38 1.06-6.48 1.91-3.06 4.78-5.86 4.88-9.69-.97-3.96-2.79-8.43-6.92-9.98-4.04-2.13-9.06-1.5-12.75 1.03-3.46 4.88-3.42 11.2-4.78 16.81-.88-.88-1.75-1.78-2.64-2.66 2.2-5.13 1.76-11.53 5.95-15.67 4.91-3.69 12.35-4.21 17.27-.22 4.84 2.48 6.97 8.48 5.6 13.6-1.8 3.7-3.82 7.28-5.6 10.99-.21 2.58 1.67 4.64 2.12 7.09.79 6.37 1.67 12.77 1.19 19.21-.34.4-1.03 1.2-1.37 1.61-.41 5.08-3.63 9.26-4.96 14.09-.87 3.34-4.22 5.54-4.29 9.16-.13 3.03-.3 6.08-1.26 8.99 6.73 6.19 8.64 17.17 3.81 25.09-1.07 1.68-.1 3.79-.24 5.62-.69-.33-2.08-1-2.77-1.33.12-4.93 2.29-9.54 2.31-14.49.73-4.44-.8-9.58-4.93-11.83.14-.68.28-1.36.42-2.03-.95-1.18-1.99-2.36-2.11-3.94-4.66 1.95-9.7 3.21-14.78 3.16-2.2.12-4.92-.61-6.18 1.8 1.46.51 2.94.97 4.43 1.41-4.97 2.86-2.09 9.76-.43 13.96 2.94 1.8-.05 4.93.32 7.52-.54 3.39 2.02 6.22 1.66 9.58-.69.27-2.07.82-2.76 1.1 4.03-.47 8.25.45 12.13-1.04 3.67-1.05 7.74-1.33 10.38-4.49-.07.8-.22 2.41-.29 3.21.2-.83.61-2.51.81-3.34 1.08 1.44 1.63 3.11 1.15 4.91-1.6.23-3.26.58-3.94 2.25l2.72.76c-1.05.4-2.16.62-3.28.66-.11-.74-.32-2.23-.43-2.98-5.26.82-10.37 2.92-15.78 1.97-.21 2.28.63 4.22 2.67 5.3-.58.46-1.75 1.37-2.34 1.83-1.32-2.02-2.47-4.25-2.06-6.76-1.88 1.68-3.35 1.26-4.28-.89.47-.56 1.41-1.67 1.88-2.23.22-5.28-2.1-10.44-.9-15.78-.37-.25-1.11-.76-1.49-1.01-2.58-5.15.46-11.05-2.2-16.07.28-.59.83-1.76 1.11-2.35l-.9-2.19c.99-1.82 1.43-3.85 1.75-5.88-1.37-2.88-2.45-6.04-1.56-9.25-2.79-3.1-3.12-7.29-3.09-11.25-.54-3.26 1.95-5.74 3.61-8.22.34-1.55-.5-3.12-.02-4.65 1.33-2.49 3.18-4.63 4.94-6.82-4.14-2.01-6.52-6.13-10.03-8.94-2.69-1.84-2.65-5.84-5.68-7.33-3.16-1.73-6.65-3.18-8.95-6.08-2.76-3.32-3.49-7.71-5.57-11.42-1.29-3.05-4.14-5.35-4.49-8.8-1.99.02-3.93.41-5.81 1.01-1.13-1.13-2.19-2.45-3.86-2.75l1.48-.03c-1.88-2.02-3.9-3.96-5.3-6.36.11-2.37-1.09-6.73 2.68-6.41-4.22-3.72-8.04-7.95-10.39-13.12-1.85-4.33-4.76-8.16-5.96-12.76-1.9.14-3.8.18-5.7.13-1.03.87-2.05 1.74-3.07 2.61-.62-1.92-.69-3.86.96-5.24 2.02 1.53 4.44 2.17 6.95 2.26-.27-2.74-.57-5.53.11-8.24-2.44-3.03-5.39-5.64-8.8-7.53-1.44 1.49-3.06 2.79-4.71 4.04-1.86 1.84-.96 4.61-.16 6.71-4.18 8.37-9.35 17.24-7.3 26.96-1.66 3.64-1.38 8.18 2.08 10.69 1.48 3.25 4.72 5.39 5.64 8.94-3.2-.19-4.49-4.31-6.47-6.45.05 2.22-.33 4.48.07 6.67 2.49 3.05 3.1 7.12 5.55 10.19 2.36 3.91 6.55 6.02 9.56 9.35 3.36 2.03 3.74 6.19 4.57 9.66-.34-.13-1.03-.38-1.38-.5-1.16-2.69-2.04-5.63-4.28-7.66-1.69-.12-1.24 1.66-.9 2.66-1.33.89-1.48 2.58-1.83 4-.5 2.53-1.76 5.07-1.01 7.69.41 2.57 1.75 4.81 2.9 7.1.08 2.82-1.23 5.54-1.18 8.4-.46-.03-1.39-.07-1.85-.1.08-2.67.78-5.25 1.1-7.89-.55-1.76-1.42-3.4-2.22-5.06-1.34.56-2.74.8-4.19.71-1.39 1.47-2.85 2.89-4.72 3.74 1.36 2.22.79 4.94.96 7.41-2.09-.33-1.85-2.17-1.87-3.74-1.33-1.45-2.6-2.98-3.61-4.67-1.22-1.11-2.46-2.19-3.72-3.25-2.26 2.46.11 5.49.8 8.11 1.4 2.8.91 5.93.96 8.93 0 2.06 1.08 4.05.62 6.11-.59 2.23.47 4.72-1.03 6.68 2.08.01 4.16.07 6.23.2-1.06-1.14-1.59-2.49-1.58-4.03 1.78 1.08 3.01 3.36 5.45 2.43l-.26 1.28c4.42 1.13 9.51-1.57 11.13-5.8.42-3.37.6-6.93 2.43-9.9 2.15-3.41 4.04-7.03 5-10.97 1.26-4.46 6.65-6.91 6.59-11.88.02-3.74.97-7.79-1.1-11.19-.09-2.66 1.03-5.53-.41-8.01-1.97-3.32-5.02-5.82-7.33-8.91-.79 2.5 1.34 6.94-1.66 8.19-.76-3.41.55-6.87-.19-10.28-.85-4.5-1.31-9.24-3.85-13.19-2.09-3.28-1.3-7.34-.7-10.93l-2.77-.03c.78 1.81-.95 2.86-1.98 3.9-1.5 1.28-2.6 2.92-3.72 4.52 3.66 4.87 7.82 9.59 9.28 15.7-1.02 1.41-2.29 1.44-3.81.1-2.21 3.48.95 8.16 4.93 7.92.2.59.59 1.78.79 2.38-1.78-.31-3.56-.61-5.33-.96-2.67-3.35-3.75-7.74-2.26-11.88l3-.04c-1.34-3.68-3.67-7.45-7.61-8.7-.26-1.9-.63-3.8-.64-5.73 1.95-3.37 6.02-4.92 7.21-8.83.57.06 1.7.16 2.27.22-2.4-3.46-1.64-8.08-.82-11.95l1.24-.8c.17 3.69-.17 7.52 1.12 11.06 1.59 4.03-1.2 8.75 1.59 12.45 2.64 4.02 2.91 8.91 3.96 13.47 1.43 2.25 3.34 4.3 5.77 5.49.61-1.38 1.23-2.75 1.89-4.1.89-4.75 1.22-9.87-.93-14.36-3.38-1.94-6.85-3.84-10.82-4.19 1.23-1.87 3.56-1.65 5.48-1.17 3.39.31 6.6 2.38 8.3 5.3 1.2 7.18 1.55 14.78-1.54 21.56 1.22 4.1 2.95 8.31 1.37 12.65 2.97 3.51 2.04 8.18 1.43 12.32-.99 4.73-6.4 7-6.91 11.91-.63 3.68-3.35 6.52-4.32 10.07-.38 5.33 1.06 10.57 1.21 15.88.41.37 1.24 1.12 1.65 1.5.69 3.19 2.14 6.19 2.57 9.44.29 3.76-.56 7.51-2.05 10.96-2.65 4.5 1.25 9.51-.64 14.21-.6-.27-1.8-.8-2.4-1.07.55 6.29 1.06 12.61.38 18.91-1.03 2.43-2 4.88-1.84 7.58-1.57-2.28 0-4.92-.11-7.39-.06-3.06.54-6.09.44-9.14-.69-2.19-1.22-4.43-1.15-6.74-6.58 1.64-13.4 1.65-20.14 1.87.29 5 .62 10.12 2.49 14.82 1.7 2.96 3.66 5.84 5.99 8.35-.95.32-2.33 1.17-2.97-.11-2.1-2.96-5.49-5.18-6.16-8.97-1.06-4.67-3.47-9.72-1.29-14.42l-2.36-1.48c1.37-4.14.22-8.37-1.44-12.22.25-.76.74-2.28.99-3.04-1.05-2.02-2.62-3.86-3.08-6.12.61-1.81 1.74-3.36 2.78-4.92-.65-5.11-2.76-10.41-.71-15.45 1.59-2.97 1.41-6.43.24-9.5-.08-3.44.74-7.01-.74-10.3-1.62-5.19-4.43-11.37-1.31-16.48 1.06-1.86 2.53-3.44 3.89-5.07-.34-1.65-1.51-3.52-.39-5.14 2.11-3.41 4.75-6.49 7.47-9.42.19-3.7-1.88-6.92-2.49-10.49-1.05-3.9.04-8.31-2.59-11.72.06-3.5 1.41-6.88.97-10.4-.88-7.65 2.7-14.8 5.95-21.47 1.57-2.23.07-5.19 1.61-7.44 1.04-1.85 1.96-3.84 3.41-5.41m13.09 11.16c2.37 3.2 2.96 7.21 4.89 10.62 2.26 4 3.61 8.51 6.57 12.09 2.16 3.24 5.94 4.91 7.9 8.31.93-.69 1.87-1.37 2.8-2.06-2.96-3.09-4.6-7.1-7.2-10.45-2.52-3.86-6.28-6.78-8.19-11.05-1.98-2.66-3.09-6.85-6.77-7.46m24.18 26.7c-.2 1.27-.39 2.54-.57 3.82-1.8 1.71-6.02 5.28-6.67.54-.93 1.32-2.07 3.41-.74 4.85 1.66 2.42 3.09 5.01 5.13 7.14 1.82.17 3.7.58 5.44-.2.07-1.49.17-2.97.3-4.45 2.77 1.27 1.25 4.92 1.9 7.3 5.85 5.05 6.46 13.36 11.41 19.03 1.7 1.8 3.8 3.16 5.74 4.67 1.04-.73 2.33-1.26 2.89-2.49 1.19-4.77-2.48-9.22-1.56-13.89 1.21 1.45 2.34 3.06 2.32 5.04l3.36.51c-.82-6.14-6.49-9.21-11.14-12.25-4.9-3.78-10.96-6.72-13.83-12.49-.64-1.82-.76-3.77-1.07-5.66l-2.91-1.47m-46.21 34.21c-2.05 3.47-4.69 7.16-3.3 11.39-2.73 2.09-4.35 5.11-4.4 8.59.92-.2 2.76-.58 3.68-.78l-.52 2.99c1.8 1.11 3.31 2.58 4.86 3.99 1.39.72 2.45-1.32 2.68-2.42.47-.17 1.43-.51 1.9-.68-2.58-1.76-.64-4.65 2.05-4.22l-1.45 2.53c1.36.72 2.86.75 4.36.62.03-1.56.05-3.13.08-4.69-2.13.73-5.53.46-6.2-2.1-.35-1.29 1.16-1.63 1.95-2.19-1.18 2.93 3.23 4.71 4.89 2.42.65-2.65.62-5.5 1.97-7.94.33-.95 1.61-3.08-.29-3.27-4.43 2.28-8.82 4.73-12.6 8.01-1.28 0-.86-1.35-1.01-2.2 3.14-1.57 5.7-4.13 9.02-5.37.82-.58 2.55-.55 2.37-1.91-1.94-2.09-4.22-3.9-5.64-6.43-2.04.36-3.27 2.09-4.4 3.66m16.45 51.49c.85-.52 1.73-.99 2.64-1.42-.37-3.18-.14-6.38-.22-9.56-1.63 3.48-.98 7.45-2.42 10.98m61.89-2.5c-.58 3.07 1.81 5.32 2.76 7.96-.99 5.64 1.42 11.12.22 16.8 1.31-.2 2.62-.39 3.93-.58-.22-.45-.68-1.36-.91-1.81 1.44-4.45-.79-10.06 3.48-13.42-.56.06-1.69.17-2.26.23-.65-4.02-3.85-7.16-7.22-9.18m-64.09 6.86c-5.69-.17-11.38.04-17.06-.3-1.62-.33-2.41 1.4-3.42 2.29 1.5 2.17 2.32 4.74 2.34 7.39-.87 2-1.97 3.87-2.88 5.85 1.57 1.86 2.94 3.89 3.84 6.16-1.66 4.49 1.21 9.15.33 13.79 4.44.91 8.95.43 13.4-.02 3.74-.48 7.97-1.05 10.76-3.8-.13-2.66-.73-5.29-.65-7.96.73-2.65 2.63-4.85 3.13-7.59 1.26-5.78-.4-12.3-4.27-16.76.03-.54.09-1.61.11-2.15-1.84 1.08-3.55 2.51-5.63 3.1z"/><path d="M37.7 70.98c-.71-4.42-.8-11.32 4.34-13.03-.97 2.35-2.1 4.67-2.5 7.21-.52 1.95-.29 4.3-1.84 5.82zM85.86 92.9c.47-1.61 2.56.06 2.35 1.2-.45 1.57-2.49-.14-2.35-1.2zM94.53 101.71c-.43-2.14-1.94-4.63.39-6.22.55 2.19.58 4.54 1.83 6.51 1.35 2 2.97 3.8 4.25 5.86-3.49-.06-4.33-4.09-6.47-6.15zM88.79 96.29c1.33-.4 3.86.96 3.18 2.53-1.39.68-3.48-1.11-3.18-2.53zM112.76 115.11c4.66.27 8.39 5.68 5.93 9.92.46.96.95 1.9 1.45 2.84-1.53-1.01-6.17-2.35-3.9-4.71.47-.27 1.4-.82 1.87-1.1-1.16-2.76-3.27-4.87-5.35-6.95zM30.05 129.21c1.93-1.33 3.88-2.64 5.65-4.17.52 2.7-3.29 4.64-5.65 4.17zM32.89 155.9c0-5.01.15-12.55 5.91-14.39.9 1.55-1.07 2.45-1.69 3.66-1.73 3.13-1.85 6.83-2.8 10.22l-1.42.51zM114.89 155.81c.53-2.27 2.97-3.37 4.92-4.2-.39 2.5-3 3.21-4.92 4.2zM133.33 159.47c.25.33.75.98 1 1.3-1.22 3.28-1.73 6.83-3.43 9.93-.29-.35-.86-1.04-1.15-1.38.83-3.36 1.2-7.15 3.58-9.85z"/></g></svg>