<svg width="235pt" height="200pt" viewBox="0 0 235 200" xmlns="http://www.w3.org/2000/svg"><g fill="#FFF"><path d="M0 0h235v200H0V0m174.26 24.74c-1.25 2.33-2.68 4.62-3.17 7.26-.39 3.09-2.84 5.23-4.38 7.76-.39 1.24-.78 2.48-1.17 3.71.05 1.78.09 3.56.2 5.34-6.23.12-11.1 4.41-16.78 6.31-3.14 1.11-5.08 3.95-7.44 6.09-3.44 1.34-6.92 2.61-10.3 4.1-2.22 1.25-3.84 3.44-6.29 4.28-2.67.2-5.02-2.24-7.7-1.34-3.99 1.21-8.13 1.77-12.18 2.72-4.37 1.72-6.28 6.42-9.39 9.61-2.57 2.54-4.29 5.82-7.14 8.08-2.43 1.87-4.4 4.24-6.43 6.53.22.34.67 1.03.9 1.37-4.03 4.9-7.06 10.49-10.61 15.71-4.65 3.01-7.92 7.77-12.96 10.21-4.41 2.16-7.88 5.74-11.09 9.38-5.36-.88-11.92.83-14.02 6.37-1.88 6.83-4.47 13.5-8.35 19.46l2.61-.52c-3.69 3.87-8.36 7.45-9.79 12.85-.75 4.67 3.94 7.16 7.06 9.54 4.04.45 7.81-.54 11.57-1.87 2.35-3.07 2.31-6.95 2.82-10.59 2.34-4.82 7.04-9.93 4.67-15.63-2.01 3.99-2.69 8.53-5.06 12.36-2.2 3.34-2.26 7.42-3.01 11.22-3.88.55-7.65 2.2-11.62 1.53-1.4-1.69-3.2-3.19-3.97-5.3.58-2.42 1.41-4.93 3.18-6.76 4.72-4.8 9.55-9.5 14.33-14.22-1.84.78-3.58 1.78-5.33 2.74.82-1.63 1.65-3.24 2.37-4.91 2.01-1.5 4.23-2.73 6.11-4.39 2.84-3.31 5.21-6.98 7.49-10.68 3.85-3.79 7.7-7.75 12.57-10.23 3.27-1.54 5.14-4.8 8.01-6.86 7.7-4.58 9.42-14.59 16.05-20.27 2.49.93 5.04 1.75 7.45 2.9 2.59 3.04 5.41 5.96 7.41 9.45-3.64 5.78-9.24 10.23-15.8 12.2-2.01 2.31-3.4 5.51-6.54 6.49-2.41 1.24-5.74.9-7.32 3.48-2.4 4.11-5.26 8.12-9.2 10.87-5.15 2.87-10.72 5.05-15.23 8.96.43.26 1.27.78 1.7 1.04-1.05 2.18-2 4.41-2.92 6.65 4.37-2.7 6.49-7.7 9.91-11.43 3.66-1.27 6.98-3.26 10.39-5.06 3.64 1.26 7.54.67 11.07-.65 7.66-1.87 15.55-3.9 22.12-8.37 4.64-1.99 9.71-3.29 13.45-6.91 1.18 2.93-1.58 5.61-1.12 8.58.52 4.6 1.01 9.28 2.79 13.6 2.38 4.25 5.35 8.14 8.39 11.94 3.4 2.93 7.33 5.43 11.56 6.98 5.95.94 11.77 3.11 17.86 2.71 5.72-.19 11.5.45 17.17-.51 6.49-1.63 12.9-3.68 19.01-6.44 3-1.48 5.84-3.64 7.4-6.67 2.43-4.58 5.22-9.2 5.7-14.47.28-6.15.77-12.35-.18-18.46-1.34-6.58-4.16-12.9-8.45-18.08-1.96-2.63-5.27-3.47-8.09-4.82 1.52-2.2 2.19-4.89 1.9-7.54-.57-3.66.57-7.26.74-10.9 6.58.31 13.31-1.23 18.42-5.56 4.5-2.92 2.17-8.88 2.32-13.25 3.44-3.39 3.45-8.53 2.62-12.97-3.08-4.81-7.63-8.5-10.43-13.52-4.39-6.98-12.88-8.86-19.67-12.58-2.08.36-4.15.82-6.19 1.38M45.3 147.52c6.8-3.08 9.72-10.69 16.13-14.26 2.05-1.43 4.78-2.46 5.5-5.11-9.58 3.18-15.67 11.79-21.63 19.37z"/><path d="M173.47 30.1c.47-2.77 2.9-4.57 5.55-5.07 7.41 2.83 16.05 5.45 20.21 12.83 2.63 4.27 6.48 7.56 9.46 11.55.33 1 .97 2.98 1.3 3.97-2.76-3.16-6.63-4.54-10.56-5.54-2.15-1.91-4.07-4.83-7.26-4.76-2.27-.18-4.53-.28-6.79-.51-.41-2.2-.89-4.38-1.44-6.55-.42-.22-1.25-.67-1.67-.89.55 2.85 1.53 5.88.53 8.75-.9 2.09-2.06 4.07-3.11 6.09.87.06 2.6.16 3.47.22.25 5-1.12 10.74-5.43 13.77-.21 2.24-.1 4.56-.86 6.71-1.06 1.95-2.92 3.25-4.42 4.81 1.41-.52 2.81-1.06 4.21-1.62 2.85-3.74 1.8-9.31 5.73-12.32 2.41-.19 4.83.16 7.25.23-5.06 2.85-11.04 8.17-8.66 14.63.92 1.09 1.79 2.22 2.59 3.4.8.35 1.61.71 2.42 1.08-.71 2.49-1.29 5.02-1.85 7.55-.69 2 1.33 3.98.34 5.95-1.28 3.98-4.13 7.21-7.68 9.33-2.55.13-5.07.55-7.57 1.03.6.73 1.21 1.46 1.82 2.18 1.72-1.43 3.9-1.65 6.02-1.95 2.82-.23 4.72-2.57 6.84-4.17 2.38 1.73 5.04 3.08 7.27 5.01 8.29 9.35 10.51 22.9 7.52 34.81-1.78 4.17-2.81 8.6-4.21 12.89-4.68 6.51-13 8.59-20.3 10.7-9.09 3.15-18.86 1.89-28.28 1.75-6.26-.97-12.68-2.28-18.09-5.77-5.38-1.9-6.8-7.81-9.66-12.12-4.33-6.64-5.1-15.09-2.89-22.63-.6-.47-1.2-.94-1.79-1.42 3.61.57 5.65-2.62 8.02-4.66 2.04-1.97 2.81-4.91 5.02-6.73 4.93-4.57 11.31-7.8 14.5-14 3.68-.14 6.95-1.87 10.15-3.49 1.41 3.48 2.79 7.03 2.76 10.85 4.6 1.38 9.38 1.5 14.15 1.5.12-.56.37-1.68.49-2.25-4.31.58-8.8.71-12.88-.99.13-3.68-1.56-6.92-2.65-10.31.77-3.96 1.08-8.03 2.32-11.89l.42-.03c.44 2.42.02 4.86-.17 7.28l1.2.19c.17-3.69.47-7.39 1.53-10.94-.55.33-1.64.98-2.19 1.3-.91-1.4-.34-3.02-.23-4.55-2.93-4.61-6.45-9.4-6.34-15.12-.43-.32-1.28-.94-1.71-1.25-.71 5.6 3.21 10.07 5.07 15.03-2.02-.85-4.32-1.5-5.73-3.29-1.34-1.52-2.14-3.68-4.29-4.23.84 2.51 2.07 4.87 3.3 7.21 3.06.93 6.18 1.54 9.34 2.05-.64.5-1.92 1.51-2.56 2.01-.01.77-.02 2.3-.02 3.06-2.26.76-4.58 1.33-6.96 1.43-1.2 1.1-2.38 2.21-3.5 3.4 1.43-.32 2.85-.69 4.24-1.18 2.1-.42 4.16-1.03 6.14-1.87-.68 3.08-.68 6.28-1.39 9.35-2.5 2.55-6.14 3.51-9.19 5.23a86.63 86.63 0 01-4.22-1.72c4.52-.63 8.74-2.52 12.69-4.74-4.45.68-8.72 2.18-13.15 2.94-3.42-7.22-8.38-14.97-6.36-23.29-.52-.2-1.55-.59-2.07-.78 3.82-3.32 8.81-4.57 13.36-6.49 2.35-1.38 3.52-4.27 6.18-5.22 1.95-.84 3.93-1.66 6.01-2.09 3.51 1.77 5.3 5.31 7.5 8.36.59-2.24.85-4.59 1.98-6.65.32 3.2.52 6.41.48 9.62.01 3.16-2.57 5.7-2.38 8.9.08 3.35-.5 6.69-.38 10.04 1.38 3.23 3.01 6.35 3.94 9.77.63 1.07 1.27 2.13 1.93 3.18.12-1.66.23-3.32.33-4.97 1.81.25 3.61.53 5.43.77 1-2.13 1.99-4.28 2.75-6.52-1.69.8-2.72 2.33-3.78 3.78-1.88-.02-3.75-.03-5.63-.04-1.07-2.21-2.4-4.28-3.34-6.55-.36-1.72.31-3.48.44-5.2 2.88-.04 5.52-1.1 7.94-2.59.01-.6.05-1.81.07-2.42-2.73 1.17-5.42 2.43-8.06 3.79-.08-3.88.83-7.69 2.51-11.18-.55-3.88-.41-7.8-.61-11.7-1.58.77-3.09 1.64-4.58 2.57a68.489 68.489 0 00-5.41-4.19c3.07-2.32 6.57-4.1 10.35-4.87.52 2.1 1.08 4.19 1.78 6.24 1.23-5-2.33-10.52.41-15.32 2.21-3.22 4.26-6.57 5.04-10.46m2.67 24.41c-4.44.93-5.49 5.83-8.77 8.33l1.11 1.32c1.91-1.7 3.68-3.56 5.39-5.47 2.44-2.41 5.81-3.91 7.36-7.14-2.13.15-3.77 1.38-5.09 2.96m-42.97 23.87c4.69-.81 8.32-5.09 10.41-9.07-4.2 2.1-6.81 6.19-10.41 9.07m41.25-3.02c1.93 4.16 3.03 9.45 7.42 11.78-.41-2.89-2.57-5.14-3.27-7.96-.47-2.04-2.36-3.08-4.15-3.82z"/><path d="M183.03 48.17c.61-1.63 1.27-3.23 1.95-4.83 1.12.36 2.23.71 3.35 1.06 3.18-.94 5.96.94 8.49 2.62-3.38.53-7.07.83-9.82 3.07-1.28 1.51-1.11 3.69-1.7 5.49.73 1.59 1.51 3.15 2.32 4.7-1.28-.4-2.55-.82-3.81-1.25 1.01-3.62 1.36-7.55-.78-10.86z"/><path d="M186.99 54.09c.98-2.08 2.84-3.8 5.14-4.28 5.26-1.31 11.31-.11 15.31 3.66 1.77 2.4 1.36 5.2-.61 7.29-1.01-.93-2.02-1.85-3.02-2.78-5.19-.38-10.37.41-15.26 2.15l1.24-1.37c-1.22-1.35-2.47-2.82-2.8-4.67m4.31-.74c4.83.46 9.58 1.37 14.29 2.52-3.69-3.75-9.52-3.71-14.29-2.52z"/><path d="M189.75 62c2.43-.63 4.79-1.54 7.27-2.01 2.74.25 5.22 1.67 7.88 2.31 1.99 3.43 3.53 8.65.18 11.72-5.23 5.26-13.48 6.62-20.52 4.86-1.16-2.39-3.19-5.02-1.81-7.77 1.01-3.96 5.81-5.24 7-9.11zM108.69 71.83c3.54.05 6.94-.91 10.17-2.27 3.09 1.33 6.47 2.41 9.76.93.25 2.58-.01 5.18.06 7.77-2.47-.74-4.97-1.31-7.48-1.88-1.39-.99-2.82-1.95-4.34-2.74 1.46 2.67 4.15 4.16 6.68 5.65 1.74.09 3.49.19 5.24.22 1.63 7.38 7.33 12.78 9.98 19.69-3.97 2.84-8.54 5.17-11.28 9.37-2.3 1.76-4.75 3.53-5.82 6.34-1.36 3.08-4.31 4.89-6.75 7-2.8-4.8-6.04-11.41-12.64-10.81 0 .84-.14 1.92.91 2.18 4.31 2.06 7.8 5.48 10.16 9.62-5.44 5.04-12.8 6.64-18.98 10.42-4.69-.14-8.61 2.41-12.67 4.32-5.18.73-9.96 4.16-15.32 2.75 2.23-2.77 4.53-5.47 6.62-8.35 2.71-2.14 6.29-2.88 8.87-5.25 2.48-1.84 3.41-5.42 6.69-6.19 4.19-1.4 7.76-4.21 10.46-7.68 1.33-.94 2.26-2.48 3.93-2.89 3.59-1.06 5.31-4.77 7.55-7.46 2.73-.15 6.34 1.74 8.27-1.02-3.21-.35-6.51-.83-9.71-.18-2.29 2.5-4.06 5.45-6.23 8.06.39-5.84-5.3-9.02-8.43-13.15-3.1-.79-5.88-2.65-9.18-2.62 3.1-2.03 6.08-4.23 8.92-6.61.03-3.85 3.59-5.77 6.16-7.96 1.66-3.61 4.78-5.86 8.4-7.26zM37.39 136.42c2.45-2.47 6.28-3.52 9.7-2.95-1.6 2.73-3.52 5.28-4.9 8.14-1.6 1.29-3.22 2.56-4.93 3.72-3 1.93-4.35 5.37-6.49 8.08 3.27-5.25 3.55-11.67 6.62-16.99z"/></g><g fill="#333"><path d="M174.26 24.74c2.04-.56 4.11-1.02 6.19-1.38 6.79 3.72 15.28 5.6 19.67 12.58 2.8 5.02 7.35 8.71 10.43 13.52.83 4.44.82 9.58-2.62 12.97-.15 4.37 2.18 10.33-2.32 13.25-5.11 4.33-11.84 5.87-18.42 5.56-.17 3.64-1.31 7.24-.74 10.9.29 2.65-.38 5.34-1.9 7.54 2.82 1.35 6.13 2.19 8.09 4.82 4.29 5.18 7.11 11.5 8.45 18.08.95 6.11.46 12.31.18 18.46-.48 5.27-3.27 9.89-5.7 14.47-1.56 3.03-4.4 5.19-7.4 6.67-6.11 2.76-12.52 4.81-19.01 6.44-5.67.96-11.45.32-17.17.51-6.09.4-11.91-1.77-17.86-2.71-4.23-1.55-8.16-4.05-11.56-6.98-3.04-3.8-6.01-7.69-8.39-11.94-1.78-4.32-2.27-9-2.79-13.6-.46-2.97 2.3-5.65 1.12-8.58-3.74 3.62-8.81 4.92-13.45 6.91-6.57 4.47-14.46 6.5-22.12 8.37-3.53 1.32-7.43 1.91-11.07.65-3.41 1.8-6.73 3.79-10.39 5.06-3.42 3.73-5.54 8.73-9.91 11.43.92-2.24 1.87-4.47 2.92-6.65-.43-.26-1.27-.78-1.7-1.04 4.51-3.91 10.08-6.09 15.23-8.96 3.94-2.75 6.8-6.76 9.2-10.87 1.58-2.58 4.91-2.24 7.32-3.48 3.14-.98 4.53-4.18 6.54-6.49 6.56-1.97 12.16-6.42 15.8-12.2-2-3.49-4.82-6.41-7.41-9.45-2.41-1.15-4.96-1.97-7.45-2.9-6.63 5.68-8.35 15.69-16.05 20.27-2.87 2.06-4.74 5.32-8.01 6.86-4.87 2.48-8.72 6.44-12.57 10.23-2.28 3.7-4.65 7.37-7.49 10.68-1.88 1.66-4.1 2.89-6.11 4.39-.72 1.67-1.55 3.28-2.37 4.91 1.75-.96 3.49-1.96 5.33-2.74-4.78 4.72-9.61 9.42-14.33 14.22-1.77 1.83-2.6 4.34-3.18 6.76.77 2.11 2.57 3.61 3.97 5.3 3.97.67 7.74-.98 11.62-1.53.75-3.8.81-7.88 3.01-11.22 2.37-3.83 3.05-8.37 5.06-12.36 2.37 5.7-2.33 10.81-4.67 15.63-.51 3.64-.47 7.52-2.82 10.59-3.76 1.33-7.53 2.32-11.57 1.87-3.12-2.38-7.81-4.87-7.06-9.54 1.43-5.4 6.1-8.98 9.79-12.85l-2.61.52c3.88-5.96 6.47-12.63 8.35-19.46 2.1-5.54 8.66-7.25 14.02-6.37 3.21-3.64 6.68-7.22 11.09-9.38 5.04-2.44 8.31-7.2 12.96-10.21 3.55-5.22 6.58-10.81 10.61-15.71-.23-.34-.68-1.03-.9-1.37 2.03-2.29 4-4.66 6.43-6.53 2.85-2.26 4.57-5.54 7.14-8.08 3.11-3.19 5.02-7.89 9.39-9.61 4.05-.95 8.19-1.51 12.18-2.72 2.68-.9 5.03 1.54 7.7 1.34 2.45-.84 4.07-3.03 6.29-4.28 3.38-1.49 6.86-2.76 10.3-4.1 2.36-2.14 4.3-4.98 7.44-6.09 5.68-1.9 10.55-6.19 16.78-6.31-.11-1.78-.15-3.56-.2-5.34.39-1.23.78-2.47 1.17-3.71 1.54-2.53 3.99-4.67 4.38-7.76.49-2.64 1.92-4.93 3.17-7.26m-.79 5.36c-.78 3.89-2.83 7.24-5.04 10.46-2.74 4.8.82 10.32-.41 15.32-.7-2.05-1.26-4.14-1.78-6.24-3.78.77-7.28 2.55-10.35 4.87 1.87 1.31 3.68 2.7 5.41 4.19 1.49-.93 3-1.8 4.58-2.57.2 3.9.06 7.82.61 11.7-1.68 3.49-2.59 7.3-2.51 11.18 2.64-1.36 5.33-2.62 8.06-3.79-.02.61-.06 1.82-.07 2.42-2.42 1.49-5.06 2.55-7.94 2.59-.13 1.72-.8 3.48-.44 5.2.94 2.27 2.27 4.34 3.34 6.55 1.88.01 3.75.02 5.63.04 1.06-1.45 2.09-2.98 3.78-3.78-.76 2.24-1.75 4.39-2.75 6.52-1.82-.24-3.62-.52-5.43-.77-.1 1.65-.21 3.31-.33 4.97-.66-1.05-1.3-2.11-1.93-3.18-.93-3.42-2.56-6.54-3.94-9.77-.12-3.35.46-6.69.38-10.04-.19-3.2 2.39-5.74 2.38-8.9.04-3.21-.16-6.42-.48-9.62-1.13 2.06-1.39 4.41-1.98 6.65-2.2-3.05-3.99-6.59-7.5-8.36-2.08.43-4.06 1.25-6.01 2.09-2.66.95-3.83 3.84-6.18 5.22-4.55 1.92-9.54 3.17-13.36 6.49.52.19 1.55.58 2.07.78-2.02 8.32 2.94 16.07 6.36 23.29 4.43-.76 8.7-2.26 13.15-2.94-3.95 2.22-8.17 4.11-12.69 4.74 1.39.6 2.79 1.19 4.22 1.72 3.05-1.72 6.69-2.68 9.19-5.23.71-3.07.71-6.27 1.39-9.35-1.98.84-4.04 1.45-6.14 1.87-1.39.49-2.81.86-4.24 1.18 1.12-1.19 2.3-2.3 3.5-3.4 2.38-.1 4.7-.67 6.96-1.43 0-.76.01-2.29.02-3.06.64-.5 1.92-1.51 2.56-2.01-3.16-.51-6.28-1.12-9.34-2.05-1.23-2.34-2.46-4.7-3.3-7.21 2.15.55 2.95 2.71 4.29 4.23 1.41 1.79 3.71 2.44 5.73 3.29-1.86-4.96-5.78-9.43-5.07-15.03.43.31 1.28.93 1.71 1.25-.11 5.72 3.41 10.51 6.34 15.12-.11 1.53-.68 3.15.23 4.55.55-.32 1.64-.97 2.19-1.3-1.06 3.55-1.36 7.25-1.53 10.94l-1.2-.19c.19-2.42.61-4.86.17-7.28l-.42.03c-1.24 3.86-1.55 7.93-2.32 11.89 1.09 3.39 2.78 6.63 2.65 10.31 4.08 1.7 8.57 1.57 12.88.99-.12.57-.37 1.69-.49 2.25-4.77 0-9.55-.12-14.15-1.5.03-3.82-1.35-7.37-2.76-10.85-3.2 1.62-6.47 3.35-10.15 3.49-3.19 6.2-9.57 9.43-14.5 14-2.21 1.82-2.98 4.76-5.02 6.73-2.37 2.04-4.41 5.23-8.02 4.66.59.48 1.19.95 1.79 1.42-2.21 7.54-1.44 15.99 2.89 22.63 2.86 4.31 4.28 10.22 9.66 12.12 5.41 3.49 11.83 4.8 18.09 5.77 9.42.14 19.19 1.4 28.28-1.75 7.3-2.11 15.62-4.19 20.3-10.7 1.4-4.29 2.43-8.72 4.21-12.89 2.99-11.91.77-25.46-7.52-34.81-2.23-1.93-4.89-3.28-7.27-5.01-2.12 1.6-4.02 3.94-6.84 4.17-2.12.3-4.3.52-6.02 1.95-.61-.72-1.22-1.45-1.82-2.18 2.5-.48 5.02-.9 7.57-1.03 3.55-2.12 6.4-5.35 7.68-9.33.99-1.97-1.03-3.95-.34-5.95.56-2.53 1.14-5.06 1.85-7.55-.81-.37-1.62-.73-2.42-1.08-.8-1.18-1.67-2.31-2.59-3.4-2.38-6.46 3.6-11.78 8.66-14.63-2.42-.07-4.84-.42-7.25-.23-3.93 3.01-2.88 8.58-5.73 12.32-1.4.56-2.8 1.1-4.21 1.62 1.5-1.56 3.36-2.86 4.42-4.81.76-2.15.65-4.47.86-6.71 4.31-3.03 5.68-8.77 5.43-13.77-.87-.06-2.6-.16-3.47-.22 1.05-2.02 2.21-4 3.11-6.09 1-2.87.02-5.9-.53-8.75.42.22 1.25.67 1.67.89.55 2.17 1.03 4.35 1.44 6.55 2.26.23 4.52.33 6.79.51 3.19-.07 5.11 2.85 7.26 4.76 3.93 1 7.8 2.38 10.56 5.54-.33-.99-.97-2.97-1.3-3.97-2.98-3.99-6.83-7.28-9.46-11.55-4.16-7.38-12.8-10-20.21-12.83-2.65.5-5.08 2.3-5.55 5.07m9.56 18.07c2.14 3.31 1.79 7.24.78 10.86 1.26.43 2.53.85 3.81 1.25-.81-1.55-1.59-3.11-2.32-4.7.59-1.8.42-3.98 1.7-5.49 2.75-2.24 6.44-2.54 9.82-3.07-2.53-1.68-5.31-3.56-8.49-2.62-1.12-.35-2.23-.7-3.35-1.06-.68 1.6-1.34 3.2-1.95 4.83m3.96 5.92c.33 1.85 1.58 3.32 2.8 4.67l-1.24 1.37c4.89-1.74 10.07-2.53 15.26-2.15 1 .93 2.01 1.85 3.02 2.78 1.97-2.09 2.38-4.89.61-7.29-4-3.77-10.05-4.97-15.31-3.66-2.3.48-4.16 2.2-5.14 4.28m2.76 7.91c-1.19 3.87-5.99 5.15-7 9.11-1.38 2.75.65 5.38 1.81 7.77 7.04 1.76 15.29.4 20.52-4.86 3.35-3.07 1.81-8.29-.18-11.72-2.66-.64-5.14-2.06-7.88-2.31-2.48.47-4.84 1.38-7.27 2.01m-81.06 9.83c-3.62 1.4-6.74 3.65-8.4 7.26-2.57 2.19-6.13 4.11-6.16 7.96a94.315 94.315 0 01-8.92 6.61c3.3-.03 6.08 1.83 9.18 2.62 3.13 4.13 8.82 7.31 8.43 13.15 2.17-2.61 3.94-5.56 6.23-8.06 3.2-.65 6.5-.17 9.71.18-1.93 2.76-5.54.87-8.27 1.02-2.24 2.69-3.96 6.4-7.55 7.46-1.67.41-2.6 1.95-3.93 2.89-2.7 3.47-6.27 6.28-10.46 7.68-3.28.77-4.21 4.35-6.69 6.19-2.58 2.37-6.16 3.11-8.87 5.25-2.09 2.88-4.39 5.58-6.62 8.35 5.36 1.41 10.14-2.02 15.32-2.75 4.06-1.91 7.98-4.46 12.67-4.32 6.18-3.78 13.54-5.38 18.98-10.42-2.36-4.14-5.85-7.56-10.16-9.62-1.05-.26-.91-1.34-.91-2.18 6.6-.6 9.84 6.01 12.64 10.81 2.44-2.11 5.39-3.92 6.75-7 1.07-2.81 3.52-4.58 5.82-6.34 2.74-4.2 7.31-6.53 11.28-9.37-2.65-6.91-8.35-12.31-9.98-19.69-1.75-.03-3.5-.13-5.24-.22-2.53-1.49-5.22-2.98-6.68-5.65 1.52.79 2.95 1.75 4.34 2.74 2.51.57 5.01 1.14 7.48 1.88-.07-2.59.19-5.19-.06-7.77-3.29 1.48-6.67.4-9.76-.93-3.23 1.36-6.63 2.32-10.17 2.27m-71.3 64.59c-3.07 5.32-3.35 11.74-6.62 16.99 2.14-2.71 3.49-6.15 6.49-8.08 1.71-1.16 3.33-2.43 4.93-3.72 1.38-2.86 3.3-5.41 4.9-8.14-3.42-.57-7.25.48-9.7 2.95z"/><path d="M176.14 54.51c1.32-1.58 2.96-2.81 5.09-2.96-1.55 3.23-4.92 4.73-7.36 7.14-1.71 1.91-3.48 3.77-5.39 5.47l-1.11-1.32c3.28-2.5 4.33-7.4 8.77-8.33zM191.3 53.35c4.77-1.19 10.6-1.23 14.29 2.52-4.71-1.15-9.46-2.06-14.29-2.52zM133.17 78.38c3.6-2.88 6.21-6.97 10.41-9.07-2.09 3.98-5.72 8.26-10.41 9.07zM174.42 75.36c1.79.74 3.68 1.78 4.15 3.82.7 2.82 2.86 5.07 3.27 7.96-4.39-2.33-5.49-7.62-7.42-11.78zM45.3 147.52c5.96-7.58 12.05-16.19 21.63-19.37-.72 2.65-3.45 3.68-5.5 5.11-6.41 3.57-9.33 11.18-16.13 14.26z"/></g></svg>