<svg width="221pt" height="275pt" viewBox="0 0 221 275" xmlns="http://www.w3.org/2000/svg"><g fill="#FFF"><path d="M0 0h221v114.44c-4.02 1.12-8.1 1.99-12.18 2.79-.35.42-1.05 1.26-1.39 1.68-1.69-6.98-3.64-15.22-10.45-18.96-3.4-2.12-7.45-.99-10.96.13-4.08 1.39-6.28 5.5-7.68 9.29-1.98 5.15-2.65 10.69-2.22 16.17-5.39 1.13-10.79 2.28-16.05 3.95-1.24-1.41-2.34-3.02-3.97-4.02-2.6.24-5.02 1.32-7.51 2.03-1.38-1.8-3.09-3.42-4-5.51-.56-3.16-.17-6.66-2.02-9.46-1.69-2.65-3.42-5.28-4.67-8.18-.5.66-.99 1.32-1.48 1.98 2.17 4.51 5.7 8.52 6.4 13.61.36 4.05 2.94 7.34 4.39 11.03.89 2.28 3.87 1.73 5.75 2.15-1.6-1.22-3.29-2.32-4.97-3.44 2.27-.86 4.54-1.69 6.82-2.49 1.4 2.09 4.4 3.8 3.89 6.66-1.46 5.15-7.04 7.37-11.72 8.65-1.39-.99-2.27-2.48-3.29-3.81-10.79 3.07-21.94 4.62-32.76 7.61-4.83 1.08-9.46 3.04-14.42 3.47l.16-2.46c3.63-.9 7.43-1.15 10.86-2.76 4.95-2.09 10.34-2.55 15.51-3.8 6.58-2.14 13.58-2.64 20.04-5.21-.33-1.05-.66-2.1-.98-3.14-.91.66-1.82 1.33-2.72 2-2.15-3.92-5.47-7.13-7.1-11.35-.82-2.25-2.12-4.25-3.56-6.15-.65-3.44-1.3-6.93-2.81-10.12-1.72-7.15-2.81-14.42-3.96-21.68.77-.65 1.55-1.3 2.32-1.96-.33-1.43-.67-2.86-1-4.29-.86 2.13-1.7 4.27-2.54 6.4-.79-.37-1.58-.74-2.37-1.1-1.4.4-2.8.79-4.21 1.17-1.87-.68-3.81-1.41-5.79-.66 1.56.83 3.11 1.71 4.8 2.25 2.46-.19 4.79-1.03 7.16-1.65.78 6.8 4.41 14.97-1.48 20.58-1.04.63-2.12 1.19-3.19 1.75-.58-2.31-1.2-4.61-1.84-6.9-.63 2.57-.09 5.87-2.22 7.78-2.7.34-5.48.3-8.01 1.47-1.34-.28-2.67-.56-4.01-.81 1.1.93 2.13 1.99 3.42 2.65 3.84-.83 7.88-1.32 11.34-3.31.82.24 1.63.49 2.45.73.52-.36 1.55-1.08 2.06-1.44l.52.09c.34 4.06.49 8.13.9 12.19-5.8 2.64-12.39 4.7-18.77 3.18-4.67-.86-10.13 0-13.88-3.57-.78-5.16-.3-10.63-3.23-15.25 2.66-.4 5.36-.35 8.04-.37-.73-.79-1.45-1.57-2.18-2.35-1.68.37-3.39.64-5.11.76-.67.27-1.34.53-2.01.8 2.33 7.49 4.83 16.31-.13 23.33l-1.55-1.73c-.11-5.71-3.33-11.52-.87-17.09.95-4.55.61-9.25 1-13.86-.95-.6-1.89-1.19-2.83-1.8.5 1.88.94 3.81.68 5.76-.45 4.93-.04 10.1-2.43 14.63l-1.58-1.58c.12-3.72-.07-7.79-3.15-10.36.44 4.09 1.36 8.14 1.44 12.28.52-.07 1.57-.19 2.1-.25-.55 1.88-1.13 3.75-1.65 5.64.71-1.22 1.39-2.47 2.08-3.71.52.41 1.57 1.21 2.09 1.62 2.52 8.9-1.81 19.63 5.39 26.99-1.04-.25-3.11-.77-4.15-1.03.07.59.2 1.78.27 2.37 2.19-.16 4.39-.24 6.59-.3.09-.44.28-1.3.38-1.73l-2.7.04c-2.31-4.72-3.13-9.9-3.2-15.11l1.45-1.05c.23.69.7 2.08.93 2.78.51-1.66 1.03-3.31 1.56-4.96.52.08 1.55.22 2.06.29.04-.68.11-2.04.14-2.73 4.99 3.54 11.2 3.19 16.94 4.3 5.46.81 10.62-1.66 15.78-3 1.14 1.13 2.28 2.26 3.45 3.37-.07 2.69-.48 5.36-1.17 7.96.85 1.4 1.71 2.8 2.58 4.2-7.83 1.49-15.59 3.32-23.26 5.49-3.82 1.18-7.83.45-11.66-.28-.15.24-.45.71-.6.95 1.54.45 3.09.83 4.57 1.45.86 3.31 2.07 7.92-1.17 10.34-3.99 1.67-8.58.39-12.63 1.99 6.41 2.06 15.64 1.05 17.77-6.5 5.71-1.43 11.25-3.52 17.07-4.48 4.02-.69 7.94-1.84 11.81-3.1.26 3.29.89 6.61 3.02 9.25-4.42 2.15-7.86 6.24-12.85 7.18-3.44.3-6.76-1-10.09-1.64 1.55-3.1 4.99-3.56 7.86-4.73 1.57-1.6 1.92-3.96 2.5-6.03-1.63 1.41-2.85 3.19-4.05 4.96-2.29.53-4.63 1.03-6.74 2.12-.94 2.29-.87 4.84-1.27 7.27-5.07 3.63-11.38 3.18-17.28 3.34 4.77 3.03 10.42 1.63 15.51.39-.79 4.95-1.42 10.13-4.18 14.46-3.72 6.17-4.46 13.6-7.88 19.9-2.49 4.85-4.8 10.82-2.42 16.14 1.33-5.31.86-11.14 4.13-15.85.16 3.28.45 6.6-.03 9.86-.76 3.42-2.64 6.49-3.21 9.96-1.32 8.14-.36 17.02 4.52 23.88 2.26 5.06 6.54 8.73 9.25 13.48-.04 1.55-1.79 1.51-2.86 2.04-.94-1.26-1.68-2.69-2.87-3.73-3.8.25-8.02-.44-11.41 1.64 4.27 1.33 9.33-1.2 12.97 1.85-3.94 3.31-10.83 3.04-13.58-1.59-1.3-5.19-3.3-10.15-4.89-15.25-1.06-2.63-.13-5.42.14-8.1 1.1-9.27-4.98-17.76-3.6-27.02.73-4.05 2.18-7.94 3.82-11.7 1.03 2.59 1.98 5.22 2.91 7.85.38.08 1.14.25 1.52.33-1.53-4.81-2.94-9.69-3.62-14.7-.4-4.84 2.22-9.17 3.08-13.81.27-3.67-.23-7.46-1.8-10.81-1 4.84.75 9.91-1.11 14.61-1.68 4.68-1.8 9.68-2.37 14.57-1.34 5.19-3.7 10.14-4.25 15.52-.3 7.52 3.72 14.43 3.69 21.92 0 2.78-.31 5.55-.85 8.28 1.23 6.67 3.06 13.15 4.99 19.63 3.92 5.06 11.69 5.79 17.06 2.68 1.74-.69 4.67-.95 4.46-3.5-.29-4.56-4.64-7.29-6.78-10.99-2.51-4.53-5.97-8.78-6.49-14.11-.81-6.65.01-13.57 2.56-19.78 2.22-5.98-.29-12.46 1.31-18.53.77-3.29 2.01-6.43 3.06-9.63 1-3.24 3.31-5.86 4.36-9.07 1.22-3.6 1.42-7.42 1.63-11.19.87-.89 1.73-1.78 2.6-2.68 1.5 3.12 3.44 5.98 5.19 8.96 1.72 2.92.96 6.56 2.31 9.62.97 2.25 1.91 4.55 1.82 7.07l2.56-1-2.05.88c.86.9 2.57 2.71 3.43 3.62.36-3-.64-5.79-1.99-8.4-2.13-4.11-1.06-9.2-3.92-13.03-1.83-4.09-5.79-6.63-7.7-10.64 2.77.86 5.34 2.84 8.37 2.56 4.98-.28 9.37-3.02 13.22-5.98.25 4.28.41 8.57.73 12.85l-1.92.12c-.8 2.34-1.49 4.78-3.02 6.77-2.77-.32-3.93-2.96-5.07-5.11-.17.06-.51.18-.67.24 1.18 2.21 1.48 5.87 4.47 6.3 2.97-.48 4.06-3.65 5.73-5.71.79 2.19 1.9 4.44 1.36 6.84-1.07 6.3-2.06 12.84-.65 19.17 1.75 8.28-1.03 17.16 2.56 25.1 2.89 3.1 5.97 6.02 8.61 9.34 2.34 3 6.1 4.14 9.7 4.72.71.94 1.41 1.88 2.11 2.83-1.73.89-3.37 1.97-5.21 2.63-2.62.26-5.25-.23-7.87-.34-2.79-1.43-5.71-3.06-8.97-2.7-3.23-.22-7.11 1.32-9.8-1.03-.52-4.65.38-9.36 1.61-13.83.14-3.13.21-6.27.36-9.4-.6-.07-1.2-.12-1.8-.17 1.44 7.82-3.3 15.06-2.32 22.82-.07 1.33 1.09 2.03 2.12 2.57 4.42 2.51 9.78-1.19 14.14 1.71 6.37 3.48 15.58 3.46 20.04-3.05-1.2-1.43-2.41-2.85-3.64-4.25-2.56-.47-5.36-.72-7.38-2.57-3.06-2.64-5.37-6.03-8.5-8.61-1.82-1.42-2.34-3.78-2.74-5.92-.89-7.01.12-14.15-1.08-21.13-1.18-5.72-.96-11.67.25-17.37.74-3.26-1.28-6.26-1.27-9.49-.06-4.47-.22-8.94-.77-13.38 1.07-1.04 2.01-2.21 2.67-3.56-2.84-2.17-3.18-5.74-3.86-8.97 4.59-.62 9.1-1.68 13.6-2.77 1.97 1.22 3.88 2.96 6.3 3.11 4.89-1.36 10.57-3.08 12.49-8.35 5.11-1.42 10.3-2.49 15.42-3.84 2.33 7.32 4.47 16.23 12.13 19.74 4.6.67 10.6.77 13.66-3.43 5.44-6.88 6.32-16.11 6.3-24.58 4.36-.82 8.73-1.66 12.95-3.05V275H0V0m85.81 31.89c-3.24 4.4-1.3 10.01-.78 14.93l2.69 3.08c-.14 3.04-.14 6.08.06 9.11-2.96 2.97-7.01 4.26-10.5 6.44.02.53.05 1.59.07 2.12-4.07.26-6.89 3.54-9.33 6.43-3.53 4.29-2.14 10.28-4.48 15.07-2.27 4.95-1.45 10.6.74 15.42 2.14 5.14-1.13 10.39-.05 15.61.43 2.67.67 5.36.91 8.05.48 4.99 2.99 9.44 4.51 14.15.57 2.94.54 6.08 2.19 8.71-6.73 1.82-13.59 3.09-20.32 4.94-.95-4.91-2.76-9.74-5.73-13.8-2.16-2.95-5.33-5.67-9.22-5.42-3.49.59-7.57.95-9.84 4.06-5.27 6.31-6.43 14.98-6.32 22.94-3.85.77-7.63 1.9-11.51 2.53-3.62.04-3.94 5.99-.9 7.17 8.61-2.06 17.4-3.7 25.75-6.63.47-2.06.16-4.6-1.57-5.98-3.82.73-7.55 1.87-11.34 2.73 1.85-7.31 1.34-15.88 6.94-21.72 2.26-2.89 6.18-2.81 9.41-3.79 3.24 1.89 6.73 3.78 8.6 7.21 6.03 10.69 7.02 24.3 1.88 35.54-1.67 3.76-4.74 7.63-9.32 7.43 1.85-2.16 3.98-4.22 4.83-7.03 3.8-10.74 3.32-22.89-1.02-33.41-1.52-3.14-3.27-6.99-7.12-7.62 1.8 3.09 4.56 5.56 5.87 8.93 3.79 9.07 4.22 19.49 1.61 28.92-.79 3.84-3.68 6.69-4.88 10.36-2.21-.27-4.73.12-6.64-1.29-3.97-2.67-5.96-7.27-7.34-11.68-.62-1.65-.66-3.75-2.48-4.57.66 4.68 2.14 9.3 4.62 13.33 2.1 3.11 5.12 6.44 9.21 6.29 3.57-.39 7.93.13 10.41-3.05 7.19-8.11 7.46-19.68 6.56-29.91 8.1-1.58 16.08-3.72 24.13-5.57 1.99-.62 4.71-.53 5.48-2.94-.88 0-2.65-.02-3.53-.03.17-.99.5-2.98.66-3.97-.62-.49-1.25-.98-1.88-1.46-.86 2.63-1.31 5.46-2.94 7.77-2.17-3.86-1.81-8.5-3.8-12.43-2.27-5.05-3.26-10.5-3.54-16-1.65-6.58 2.14-13.37-.78-19.79-2.42-5.02-1.96-10.98.31-15.96 1.78-3.31.77-7.32 2.55-10.6 1.7-2.63 4.11-4.77 6.92-6.13 2.33-.97 2.56-4.02 4.71-5.25 2.33-1.74 5.77-1.87 7.56-4.27 1.13-3.52 1.01-7.28.83-10.92 2.86 2.4 3.35 6.96 7.05 8.39 2.83 1.48 5.97 2.22 9.16 2.12.53 2.42 1.6 5.86-1.01 7.52-2.84-.29-5.56-1.37-8.45-1.45.4-3.52-1.96-6.3-4.25-8.63 1.13 2.92 2.36 5.79 3.5 8.69-2.43.5-4.86 1.05-7.35 1.21.04.43.1 1.29.13 1.72 4.12-.58 8.37-2.36 12.45-.57 2.05 1.08 4.24.59 5.76-1.14.59-.73 1.18-1.47 1.76-2.21 2.79-.64 6.07-.38 8.32-2.42-3.08-.61-6.15.09-8.89 1.54-.09-1.4-.22-2.79-.4-4.18 3.21 1.03 6.91 2.21 10 .21-2.97-.51-5.97-.8-8.93-1.38.49-1.22.97-2.44 1.44-3.67-1.72.97-3.35 2.09-5.01 3.15-2.69-.83-5.37-1.69-7.95-2.82-2.31-1.11-3.13-3.74-4.12-5.91-1.67-1.02-3.37-2-4.84-3.3-.14-1.69.63-3.28 1.03-4.89l-2.43.56c-.39-3.97.16-8.72 3.83-11.07 3.6-2.94 8.4-2.95 12.8-2.8 1.58 1.43 3.38 2.73 4.46 4.62.95 3.16 1.48 6.44 2.13 9.68.77 4.13-1.15 8.16-.68 12.3 4.16-7.24 1.59-15.68-.25-23.17-1.61-2.77-4.63-4.82-7.91-4.74-5.05-.56-11.01.16-14.2 4.59m30.83 29.64c2.7 1.48 5.94 1.81 8.42 3.73 2.45 2.02 4.27 4.79 5.18 7.84 1.17 3.17.14 6.56.41 9.83 1.61 2.91 3.78 5.67 4.18 9.07.93 4.37-.6 9.26 2.15 13.15 1.86-5.47-.79-10.96-1.26-16.43-.28-2.89-2.31-5.12-4.08-7.26 2.79-5.14.2-11.06-2.4-15.7-2.65-4.18-8.14-4.58-12.6-4.23m.3 3.94c1.74 1.56 3.84 2.63 6.07 3.3-1.36-2.13-3.51-3.36-6.07-3.3m-39.2 6.94c2.59-.21 4.97.64 6.97 2.27-.19 4.62-1.5 9.06-4.15 12.87-1.07 1.44.53 2.33 1.67 2.83-.27-4.27 3.45-7.24 3.77-11.38.41-2.4.79-5.97-1.97-7.1-2.04-.39-4.77-1.46-6.29.51m27.57 2.39c.85 3.65 2.48 7.4.81 11.09-2.67.93-5.57 1.51-7.78 3.41-1.77 1.67-4.23 1.69-6.51 1.75-2.63-1.52-4.77-4.12-7.75-4.86-.28 1.62 1.4 2.42 2.37 3.39 2.48 1.84 5.38 4.18 8.69 3.27 2.23-.27 3.85-1.9 5.55-3.19 2.22-1.46 5.77-1.18 6.93-4.01 2.57-3.4.95-8.54-2.31-10.85M74.16 91.66c.56-.07 1.66-.2 2.21-.27.25-1.59.5-3.19.69-4.79-1.4 1.41-2.2 3.23-2.9 5.06m50.01-4.25c.57 3.61 1.35 7.25 2.89 10.59.33-.11.99-.32 1.32-.43-.37-3.35-1.59-6.51-2.36-9.77-.47-.1-1.39-.29-1.85-.39m-9.98.88c-1.03 1.5-2.18 2.96-4.21 2.36 1.84 1.57 2.68 3.8 2.16 6.19-1.32.07-2.64.13-3.96.19-2.06 2.04-4.67 3.36-6.84 5.25-1.83-.84-3.5-1.98-5.22-3.01.46 2.97 3.15 4.09 5.78 4.63 1.37-1.46 2.89-2.81 4.93-3.21.35-.35 1.06-1.07 1.42-1.43 1.83-.34 3.6-.94 5.19-1.93 2.68.23 5.34.58 7.99 1.09-1.49-2.84-4.75-2.55-7.48-2.65-.45-1.4-1.09-2.73-1.81-4.01l2.42-2.06c1.28.37 2.56.75 3.87 1.03-1.26-1.06-2.66-1.94-4.24-2.44m-8.06.82c-2.2 2.94-4.63 5.71-6.6 8.81 4.21-1.46 5.82-5.75 9.17-8.26-.65-.14-1.93-.41-2.57-.55M84.17 95.1l.18 3.13c2.66 1.76 5.68 1.63 8.62.76-.26-.49-.79-1.47-1.05-1.96-1.9.75-3.95 1.21-5.92.44-.44-1.68.28-2.84 2.17-3.47-1.42.03-2.73.52-4 1.1m45.27 7.34c1.86 2.03 3.27 5.01 6.41 5.15-.39-1.74-.74-3.48-1.06-5.23l-.65 2.05c-1.15-.97-2.28-1.95-3.41-2.95-.32.25-.97.74-1.29.98m-35.11 3.74c1.5 3 5.48 2.27 6.64-.58-2.22.14-4.43.35-6.64.58m-5.34.96c-.24 3.86 4.41 5.62 7.59 4.67a52.778 52.778 0 00-7.59-4.67m12.16 5.71c-.36 1.62.25 2.25 1.84 1.91.37-1.63-.25-2.27-1.84-1.91m10.95 5.38c1.25-1.32 2.32-2.82 3.11-4.46-2 .67-3.52 2.18-3.11 4.46m-11.37-2.73c.11 3.43 3.16 7.78 7.02 6.88-2.45-2.18-4.81-4.45-7.02-6.88m4.26 12.97c-5 .31-9.75-1.44-14.46-2.83-1.55 2.6-2.89 5.41-3.1 8.49.43.11 1.28.35 1.71.47.02-2.64.96-5.08 2.22-7.37 1.83.73 3.66 1.43 5.46 2.23-1.55 4.43-6.42 5.68-8.87 9.28 4.45-1.33 9.12-3.94 10.17-8.86 6.38 1.16 12.9.1 18.99-1.9 1.47-.42 2.32-1.82 3.32-2.84-5.04 1.53-10.1 3.41-15.44 3.33m-3.93 7.93c-1.04.36-1.67 1.33-2.43 2.07 6.2-.87 12.24-4.26 18.55-3.3-4.99 2.18-10.65 3.57-14.43 7.75 5.64-2.06 10.97-4.93 16.67-6.91-.03-1.04-.06-2.08-.07-3.12-6.23.2-12.42 1.4-18.29 3.51m-19.49 12.52c3.16.56 7.24-.64 6.99-4.6-2.23 1.69-4.59 3.17-6.99 4.6m-27.91 11.55c-.16.36-.49 1.08-.66 1.44l1.71.28c7.01-1.77 13.97-3.79 21.06-5.24 1.25 1.39 2.61 2.69 4.34 3.47-.09-2.06-1.13-3.61-3.05-4.36 1.93-.1 5.13.48 4.77-2.44-9.43 2.07-18.88 4.21-28.17 6.85m33.85 19.35c-.2 1.81-.4 3.61-.56 5.42.75-1.12 1.47-2.26 2.19-3.39 1.68-.42 3.35-.86 5.02-1.34a55.36 55.36 0 002.28 3.07c-.46-1.88-1.06-3.71-1.67-5.54-2.26 1.16-4.7 1.84-7.26 1.78m1.37 9.25c.32 2.29 4.02 2.96 4.61.61-1.49-.46-3.06-.53-4.61-.61m27.03-.64c-.61 3.53-1.06 7.1-1.08 10.69-.48 5.93 5.02 10.15 5.39 15.97 2.8-3.54-.45-6.96-1.76-10.32-.79-4.81-1.98-9.73-1.04-14.62-.49-.59-1-1.16-1.51-1.72m9.73 45.94c-.61-2.84-1.09-5.71-1.36-8.6-1.98 2.76-1.29 6.54 1.36 8.6m-43.05 8.39c3.06-1.85 4.07-5.39 5.69-8.34-3.68.87-4.53 5.29-5.69 8.34z"/><path d="M184.52 102.48c3.47-1.79 8.19-3.38 11.6-.63 5.95 3.11 8.04 10.09 9.48 16.17 1.29 8.31 1.2 17.21-2.35 24.98-1.81 3.96-5.56 7.39-10.19 7.03-4.5 1.19-8.31-2.21-10.73-5.59-2.39-3.89-3.91-8.34-4.51-12.86 3.72-.57 7.38-1.51 10.97-2.62.32-.97.64-1.94.97-2.91-.48-1.16-.96-2.32-1.43-3.48-3.95.8-7.85 1.83-11.78 2.67 1.53-7.79 1.33-17.23 7.97-22.76m6.22-.83c.2.45.59 1.35.78 1.8 10.46 12.36 11.19 31.55 2.41 45.05 4-1.33 4.93-5.93 6.19-9.43 2.2-9.55 1.87-19.99-2.28-28.99-1.45-3.41-3.33-7.17-7.1-8.43zM122.63 102.81c1.94 6.18 2.32 13.04 6.09 18.49 1.72 2.64 2.7 5.73 4.81 8.1 1.62 1.85 3.06 3.84 4.33 5.95-4.08.95-8.28 1.28-12.3 2.47-.45-1.61-1.13-3.15-1.43-4.79.64-2.61 1.23-5.23.9-7.94-1.13-1.21-2.89-2.15-2.96-3.99-1.05-6.02-1.9-12.5.56-18.29zM207.34 119.34c4.53-1.23 9.14-2.15 13.66-3.44v3.7c-4.38 1.14-8.84 1.96-13.19 3.19-.16-1.15-.32-2.3-.47-3.45z"/><path d="M160.89 131c8.38-2.02 16.68-4.42 25.11-6.2 2.21-1.23 3.19 2.74.91 2.8-8.6 2.53-17.35 4.48-26.07 6.52.01-.78.04-2.34.05-3.12zM10.4 167.46c7.35-.84 14.36-3.4 21.64-4.52.18.56.53 1.68.71 2.24-7.1 2.48-14.62 3.48-21.73 5.96-.15-.92-.46-2.76-.62-3.68zM8.16 168.38c1.44-.19 1.37 2.27.56 2.97-1.41.17-1.46-2.31-.56-2.97z"/></g><g fill="#333"><path d="M85.81 31.89c3.19-4.43 9.15-5.15 14.2-4.59 3.28-.08 6.3 1.97 7.91 4.74 1.84 7.49 4.41 15.93.25 23.17-.47-4.14 1.45-8.17.68-12.3-.65-3.24-1.18-6.52-2.13-9.68-1.08-1.89-2.88-3.19-4.46-4.62-4.4-.15-9.2-.14-12.8 2.8-3.67 2.35-4.22 7.1-3.83 11.07l2.43-.56c-.4 1.61-1.17 3.2-1.03 4.89 1.47 1.3 3.17 2.28 4.84 3.3.99 2.17 1.81 4.8 4.12 5.91 2.58 1.13 5.26 1.99 7.95 2.82 1.66-1.06 3.29-2.18 5.01-3.15-.47 1.23-.95 2.45-1.44 3.67 2.96.58 5.96.87 8.93 1.38-3.09 2-6.79.82-10-.21.18 1.39.31 2.78.4 4.18 2.74-1.45 5.81-2.15 8.89-1.54-2.25 2.04-5.53 1.78-8.32 2.42-.58.74-1.17 1.48-1.76 2.21-1.52 1.73-3.71 2.22-5.76 1.14-4.08-1.79-8.33-.01-12.45.57-.03-.43-.09-1.29-.13-1.72 2.49-.16 4.92-.71 7.35-1.21-1.14-2.9-2.37-5.77-3.5-8.69 2.29 2.33 4.65 5.11 4.25 8.63 2.89.08 5.61 1.16 8.45 1.45 2.61-1.66 1.54-5.1 1.01-7.52-3.19.1-6.33-.64-9.16-2.12-3.7-1.43-4.19-5.99-7.05-8.39.18 3.64.3 7.4-.83 10.92-1.79 2.4-5.23 2.53-7.56 4.27-2.15 1.23-2.38 4.28-4.71 5.25-2.81 1.36-5.22 3.5-6.92 6.13-1.78 3.28-.77 7.29-2.55 10.6-2.27 4.98-2.73 10.94-.31 15.96 2.92 6.42-.87 13.21.78 19.79.28 5.5 1.27 10.95 3.54 16 1.99 3.93 1.63 8.57 3.8 12.43 1.63-2.31 2.08-5.14 2.94-7.77.63.48 1.26.97 1.88 1.46-.16.99-.49 2.98-.66 3.97.88.01 2.65.03 3.53.03-.77 2.41-3.49 2.32-5.48 2.94-8.05 1.85-16.03 3.99-24.13 5.57.9 10.23.63 21.8-6.56 29.91-2.48 3.18-6.84 2.66-10.41 3.05-4.09.15-7.11-3.18-9.21-6.29-2.48-4.03-3.96-8.65-4.62-13.33 1.82.82 1.86 2.92 2.48 4.57 1.38 4.41 3.37 9.01 7.34 11.68 1.91 1.41 4.43 1.02 6.64 1.29 1.2-3.67 4.09-6.52 4.88-10.36 2.61-9.43 2.18-19.85-1.61-28.92-1.31-3.37-4.07-5.84-5.87-8.93 3.85.63 5.6 4.48 7.12 7.62 4.34 10.52 4.82 22.67 1.02 33.41-.85 2.81-2.98 4.87-4.83 7.03 4.58.2 7.65-3.67 9.32-7.43 5.14-11.24 4.15-24.85-1.88-35.54-1.87-3.43-5.36-5.32-8.6-7.21-3.23.98-7.15.9-9.41 3.79-5.6 5.84-5.09 14.41-6.94 21.72 3.79-.86 7.52-2 11.34-2.73 1.73 1.38 2.04 3.92 1.57 5.98-8.35 2.93-17.14 4.57-25.75 6.63-3.04-1.18-2.72-7.13.9-7.17 3.88-.63 7.66-1.76 11.51-2.53-.11-7.96 1.05-16.63 6.32-22.94 2.27-3.11 6.35-3.47 9.84-4.06 3.89-.25 7.06 2.47 9.22 5.42 2.97 4.06 4.78 8.89 5.73 13.8 6.73-1.85 13.59-3.12 20.32-4.94-1.65-2.63-1.62-5.77-2.19-8.71-1.52-4.71-4.03-9.16-4.51-14.15-.24-2.69-.48-5.38-.91-8.05-1.08-5.22 2.19-10.47.05-15.61-2.19-4.82-3.01-10.47-.74-15.42 2.34-4.79.95-10.78 4.48-15.07 2.44-2.89 5.26-6.17 9.33-6.43-.02-.53-.05-1.59-.07-2.12 3.49-2.18 7.54-3.47 10.5-6.44-.2-3.03-.2-6.07-.06-9.11l-2.69-3.08c-.52-4.92-2.46-10.53.78-14.93M10.4 167.46c.16.92.47 2.76.62 3.68 7.11-2.48 14.63-3.48 21.73-5.96-.18-.56-.53-1.68-.71-2.24-7.28 1.12-14.29 3.68-21.64 4.52m-2.24.92c-.9.66-.85 3.14.56 2.97.81-.7.88-3.16-.56-2.97zM116.64 61.53c4.46-.35 9.95.05 12.6 4.23 2.6 4.64 5.19 10.56 2.4 15.7 1.77 2.14 3.8 4.37 4.08 7.26.47 5.47 3.12 10.96 1.26 16.43-2.75-3.89-1.22-8.78-2.15-13.15-.4-3.4-2.57-6.16-4.18-9.07-.27-3.27.76-6.66-.41-9.83-.91-3.05-2.73-5.82-5.18-7.84-2.48-1.92-5.72-2.25-8.42-3.73z"/><path d="M116.94 65.47c2.56-.06 4.71 1.17 6.07 3.3-2.23-.67-4.33-1.74-6.07-3.3zM77.74 72.41c1.52-1.97 4.25-.9 6.29-.51 2.76 1.13 2.38 4.7 1.97 7.1-.32 4.14-4.04 7.11-3.77 11.38-1.14-.5-2.74-1.39-1.67-2.83 2.65-3.81 3.96-8.25 4.15-12.87-2-1.63-4.38-2.48-6.97-2.27zM105.31 74.8c3.26 2.31 4.88 7.45 2.31 10.85-1.16 2.83-4.71 2.55-6.93 4.01-1.7 1.29-3.32 2.92-5.55 3.19-3.31.91-6.21-1.43-8.69-3.27-.97-.97-2.65-1.77-2.37-3.39 2.98.74 5.12 3.34 7.75 4.86 2.28-.06 4.74-.08 6.51-1.75 2.21-1.9 5.11-2.48 7.78-3.41 1.67-3.69.04-7.44-.81-11.09z"/><path d="M120.73 85.25c.84-2.13 1.68-4.27 2.54-6.4.33 1.43.67 2.86 1 4.29-.77.66-1.55 1.31-2.32 1.96 1.15 7.26 2.24 14.53 3.96 21.68 1.51 3.19 2.16 6.68 2.81 10.12 1.44 1.9 2.74 3.9 3.56 6.15 1.63 4.22 4.95 7.43 7.1 11.35.9-.67 1.81-1.34 2.72-2 .32 1.04.65 2.09.98 3.14-6.46 2.57-13.46 3.07-20.04 5.21-5.17 1.25-10.56 1.71-15.51 3.8-3.43 1.61-7.23 1.86-10.86 2.76l-.16 2.46c4.96-.43 9.59-2.39 14.42-3.47 10.82-2.99 21.97-4.54 32.76-7.61 1.02 1.33 1.9 2.82 3.29 3.81 4.68-1.28 10.26-3.5 11.72-8.65.51-2.86-2.49-4.57-3.89-6.66-2.28.8-4.55 1.63-6.82 2.49 1.68 1.12 3.37 2.22 4.97 3.44-1.88-.42-4.86.13-5.75-2.15-1.45-3.69-4.03-6.98-4.39-11.03-.7-5.09-4.23-9.1-6.4-13.61.49-.66.98-1.32 1.48-1.98 1.25 2.9 2.98 5.53 4.67 8.18 1.85 2.8 1.46 6.3 2.02 9.46.91 2.09 2.62 3.71 4 5.51 2.49-.71 4.91-1.79 7.51-2.03 1.63 1 2.73 2.61 3.97 4.02 5.26-1.67 10.66-2.82 16.05-3.95-.43-5.48.24-11.02 2.22-16.17 1.4-3.79 3.6-7.9 7.68-9.29 3.51-1.12 7.56-2.25 10.96-.13 6.81 3.74 8.76 11.98 10.45 18.96.34-.42 1.04-1.26 1.39-1.68 4.08-.8 8.16-1.67 12.18-2.79v1.46c-4.52 1.29-9.13 2.21-13.66 3.44.15 1.15.31 2.3.47 3.45 4.35-1.23 8.81-2.05 13.19-3.19v1.35c-4.22 1.39-8.59 2.23-12.95 3.05.02 8.47-.86 17.7-6.3 24.58-3.06 4.2-9.06 4.1-13.66 3.43-7.66-3.51-9.8-12.42-12.13-19.74-5.12 1.35-10.31 2.42-15.42 3.84-1.92 5.27-7.6 6.99-12.49 8.35-2.42-.15-4.33-1.89-6.3-3.11-4.5 1.09-9.01 2.15-13.6 2.77.68 3.23 1.02 6.8 3.86 8.97-.66 1.35-1.6 2.52-2.67 3.56.55 4.44.71 8.91.77 13.38-.01 3.23 2.01 6.23 1.27 9.49-1.21 5.7-1.43 11.65-.25 17.37 1.2 6.98.19 14.12 1.08 21.13.4 2.14.92 4.5 2.74 5.92 3.13 2.58 5.44 5.97 8.5 8.61 2.02 1.85 4.82 2.1 7.38 2.57 1.23 1.4 2.44 2.82 3.64 4.25-4.46 6.51-13.67 6.53-20.04 3.05-4.36-2.9-9.72.8-14.14-1.71-1.03-.54-2.19-1.24-2.12-2.57-.98-7.76 3.76-15 2.32-22.82.6.05 1.2.1 1.8.17-.15 3.13-.22 6.27-.36 9.4-1.23 4.47-2.13 9.18-1.61 13.83 2.69 2.35 6.57.81 9.8 1.03 3.26-.36 6.18 1.27 8.97 2.7 2.62.11 5.25.6 7.87.34 1.84-.66 3.48-1.74 5.21-2.63-.7-.95-1.4-1.89-2.11-2.83-3.6-.58-7.36-1.72-9.7-4.72-2.64-3.32-5.72-6.24-8.61-9.34-3.59-7.94-.81-16.82-2.56-25.1-1.41-6.33-.42-12.87.65-19.17.54-2.4-.57-4.65-1.36-6.84-1.67 2.06-2.76 5.23-5.73 5.71-2.99-.43-3.29-4.09-4.47-6.3.16-.06.5-.18.67-.24 1.14 2.15 2.3 4.79 5.07 5.11 1.53-1.99 2.22-4.43 3.02-6.77l1.92-.12c-.32-4.28-.48-8.57-.73-12.85-3.85 2.96-8.24 5.7-13.22 5.98-3.03.28-5.6-1.7-8.37-2.56 1.91 4.01 5.87 6.55 7.7 10.64 2.86 3.83 1.79 8.92 3.92 13.03 1.35 2.61 2.35 5.4 1.99 8.4-.86-.91-2.57-2.72-3.43-3.62l2.05-.88-2.56 1c.09-2.52-.85-4.82-1.82-7.07-1.35-3.06-.59-6.7-2.31-9.62-1.75-2.98-3.69-5.84-5.19-8.96-.87.9-1.73 1.79-2.6 2.68-.21 3.77-.41 7.59-1.63 11.19-1.05 3.21-3.36 5.83-4.36 9.07-1.05 3.2-2.29 6.34-3.06 9.63-1.6 6.07.91 12.55-1.31 18.53-2.55 6.21-3.37 13.13-2.56 19.78.52 5.33 3.98 9.58 6.49 14.11 2.14 3.7 6.49 6.43 6.78 10.99.21 2.55-2.72 2.81-4.46 3.5-5.37 3.11-13.14 2.38-17.06-2.68-1.93-6.48-3.76-12.96-4.99-19.63.54-2.73.85-5.5.85-8.28.03-7.49-3.99-14.4-3.69-21.92.55-5.38 2.91-10.33 4.25-15.52.57-4.89.69-9.89 2.37-14.57 1.86-4.7.11-9.77 1.11-14.61 1.57 3.35 2.07 7.14 1.8 10.81-.86 4.64-3.48 8.97-3.08 13.81.68 5.01 2.09 9.89 3.62 14.7-.38-.08-1.14-.25-1.52-.33-.93-2.63-1.88-5.26-2.91-7.85-1.64 3.76-3.09 7.65-3.82 11.7-1.38 9.26 4.7 17.75 3.6 27.02-.27 2.68-1.2 5.47-.14 8.1 1.59 5.1 3.59 10.06 4.89 15.25 2.75 4.63 9.64 4.9 13.58 1.59-3.64-3.05-8.7-.52-12.97-1.85 3.39-2.08 7.61-1.39 11.41-1.64 1.19 1.04 1.93 2.47 2.87 3.73 1.07-.53 2.82-.49 2.86-2.04-2.71-4.75-6.99-8.42-9.25-13.48-4.88-6.86-5.84-15.74-4.52-23.88.57-3.47 2.45-6.54 3.21-9.96.48-3.26.19-6.58.03-9.86-3.27 4.71-2.8 10.54-4.13 15.85-2.38-5.32-.07-11.29 2.42-16.14 3.42-6.3 4.16-13.73 7.88-19.9 2.76-4.33 3.39-9.51 4.18-14.46-5.09 1.24-10.74 2.64-15.51-.39 5.9-.16 12.21.29 17.28-3.34.4-2.43.33-4.98 1.27-7.27 2.11-1.09 4.45-1.59 6.74-2.12 1.2-1.77 2.42-3.55 4.05-4.96-.58 2.07-.93 4.43-2.5 6.03-2.87 1.17-6.31 1.63-7.86 4.73 3.33.64 6.65 1.94 10.09 1.64 4.99-.94 8.43-5.03 12.85-7.18-2.13-2.64-2.76-5.96-3.02-9.25-3.87 1.26-7.79 2.41-11.81 3.1-5.82.96-11.36 3.05-17.07 4.48-2.13 7.55-11.36 8.56-17.77 6.5 4.05-1.6 8.64-.32 12.63-1.99 3.24-2.42 2.03-7.03 1.17-10.34-1.48-.62-3.03-1-4.57-1.45.15-.24.45-.71.6-.95 3.83.73 7.84 1.46 11.66.28 7.67-2.17 15.43-4 23.26-5.49-.87-1.4-1.73-2.8-2.58-4.2.69-2.6 1.1-5.27 1.17-7.96-1.17-1.11-2.31-2.24-3.45-3.37-5.16 1.34-10.32 3.81-15.78 3-5.74-1.11-11.95-.76-16.94-4.3-.03.69-.1 2.05-.14 2.73-.51-.07-1.54-.21-2.06-.29-.53 1.65-1.05 3.3-1.56 4.96-.23-.7-.7-2.09-.93-2.78l-1.45 1.05c.07 5.21.89 10.39 3.2 15.11l2.7-.04c-.1.43-.29 1.29-.38 1.73-2.2.06-4.4.14-6.59.3-.07-.59-.2-1.78-.27-2.37 1.04.26 3.11.78 4.15 1.03-7.2-7.36-2.87-18.09-5.39-26.99-.52-.41-1.57-1.21-2.09-1.62-.69 1.24-1.37 2.49-2.08 3.71.52-1.89 1.1-3.76 1.65-5.64-.53.06-1.58.18-2.1.25-.08-4.14-1-8.19-1.44-12.28 3.08 2.57 3.27 6.64 3.15 10.36l1.58 1.58c2.39-4.53 1.98-9.7 2.43-14.63.26-1.95-.18-3.88-.68-5.76.94.61 1.88 1.2 2.83 1.8-.39 4.61-.05 9.31-1 13.86-2.46 5.57.76 11.38.87 17.09l1.55 1.73c4.96-7.02 2.46-15.84.13-23.33.67-.27 1.34-.53 2.01-.8 1.72-.12 3.43-.39 5.11-.76.73.78 1.45 1.56 2.18 2.35-2.68.02-5.38-.03-8.04.37 2.93 4.62 2.45 10.09 3.23 15.25 3.75 3.57 9.21 2.71 13.88 3.57 6.38 1.52 12.97-.54 18.77-3.18-.41-4.06-.56-8.13-.9-12.19l-.52-.09c-.51.36-1.54 1.08-2.06 1.44-.82-.24-1.63-.49-2.45-.73-3.46 1.99-7.5 2.48-11.34 3.31-1.29-.66-2.32-1.72-3.42-2.65 1.34.25 2.67.53 4.01.81 2.53-1.17 5.31-1.13 8.01-1.47 2.13-1.91 1.59-5.21 2.22-7.78.64 2.29 1.26 4.59 1.84 6.9 1.07-.56 2.15-1.12 3.19-1.75 5.89-5.61 2.26-13.78 1.48-20.58-2.37.62-4.7 1.46-7.16 1.65-1.69-.54-3.24-1.42-4.8-2.25 1.98-.75 3.92-.02 5.79.66 1.41-.38 2.81-.77 4.21-1.17.79.36 1.58.73 2.37 1.1m63.79 17.23c-6.64 5.53-6.44 14.97-7.97 22.76 3.93-.84 7.83-1.87 11.78-2.67.47 1.16.95 2.32 1.43 3.48-.33.97-.65 1.94-.97 2.91-3.59 1.11-7.25 2.05-10.97 2.62.6 4.52 2.12 8.97 4.51 12.86 2.42 3.38 6.23 6.78 10.73 5.59 4.63.36 8.38-3.07 10.19-7.03 3.55-7.77 3.64-16.67 2.35-24.98-1.44-6.08-3.53-13.06-9.48-16.17-3.41-2.75-8.13-1.16-11.6.63m-61.89.33c-2.46 5.79-1.61 12.27-.56 18.29.07 1.84 1.83 2.78 2.96 3.99.33 2.71-.26 5.33-.9 7.94.3 1.64.98 3.18 1.43 4.79 4.02-1.19 8.22-1.52 12.3-2.47-1.27-2.11-2.71-4.1-4.33-5.95-2.11-2.37-3.09-5.46-4.81-8.1-3.77-5.45-4.15-12.31-6.09-18.49M160.89 131c-.01.78-.04 2.34-.05 3.12 8.72-2.04 17.47-3.99 26.07-6.52 2.28-.06 1.3-4.03-.91-2.8-8.43 1.78-16.73 4.18-25.11 6.2zM74.16 91.66c.7-1.83 1.5-3.65 2.9-5.06-.19 1.6-.44 3.2-.69 4.79-.55.07-1.65.2-2.21.27z"/><path d="M124.17 87.41c.46.1 1.38.29 1.85.39.77 3.26 1.99 6.42 2.36 9.77-.33.11-.99.32-1.32.43-1.54-3.34-2.32-6.98-2.89-10.59zM114.19 88.29c1.58.5 2.98 1.38 4.24 2.44-1.31-.28-2.59-.66-3.87-1.03l-2.42 2.06c.72 1.28 1.36 2.61 1.81 4.01 2.73.1 5.99-.19 7.48 2.65-2.65-.51-5.31-.86-7.99-1.09-1.59.99-3.36 1.59-5.19 1.93-.36.36-1.07 1.08-1.42 1.43-2.04.4-3.56 1.75-4.93 3.21-2.63-.54-5.32-1.66-5.78-4.63 1.72 1.03 3.39 2.17 5.22 3.01 2.17-1.89 4.78-3.21 6.84-5.25 1.32-.06 2.64-.12 3.96-.19.52-2.39-.32-4.62-2.16-6.19 2.03.6 3.18-.86 4.21-2.36z"/><path d="M106.13 89.11c.64.14 1.92.41 2.57.55-3.35 2.51-4.96 6.8-9.17 8.26 1.97-3.1 4.4-5.87 6.6-8.81zM84.17 95.1c1.27-.58 2.58-1.07 4-1.1-1.89.63-2.61 1.79-2.17 3.47 1.97.77 4.02.31 5.92-.44.26.49.79 1.47 1.05 1.96-2.94.87-5.96 1-8.62-.76l-.18-3.13zM129.44 102.44c.32-.24.97-.73 1.29-.98 1.13 1 2.26 1.98 3.41 2.95l.65-2.05c.32 1.75.67 3.49 1.06 5.23-3.14-.14-4.55-3.12-6.41-5.15zM190.74 101.65c3.77 1.26 5.65 5.02 7.1 8.43 4.15 9 4.48 19.44 2.28 28.99-1.26 3.5-2.19 8.1-6.19 9.43 8.78-13.5 8.05-32.69-2.41-45.05-.19-.45-.58-1.35-.78-1.8zM94.33 106.18c2.21-.23 4.42-.44 6.64-.58-1.16 2.85-5.14 3.58-6.64.58zM88.99 107.14c2.65 1.34 5.2 2.9 7.59 4.67-3.18.95-7.83-.81-7.59-4.67zM101.15 112.85c1.59-.36 2.21.28 1.84 1.91-1.59.34-2.2-.29-1.84-1.91zM112.1 118.23c-.41-2.28 1.11-3.79 3.11-4.46-.79 1.64-1.86 3.14-3.11 4.46zM100.73 115.5c2.21 2.43 4.57 4.7 7.02 6.88-3.86.9-6.91-3.45-7.02-6.88zM104.99 128.47c5.34.08 10.4-1.8 15.44-3.33-1 1.02-1.85 2.42-3.32 2.84-6.09 2-12.61 3.06-18.99 1.9-1.05 4.92-5.72 7.53-10.17 8.86 2.45-3.6 7.32-4.85 8.87-9.28-1.8-.8-3.63-1.5-5.46-2.23-1.26 2.29-2.2 4.73-2.22 7.37-.43-.12-1.28-.36-1.71-.47.21-3.08 1.55-5.89 3.1-8.49 4.71 1.39 9.46 3.14 14.46 2.83zM101.06 136.4a59.849 59.849 0 0118.29-3.51c.01 1.04.04 2.08.07 3.12-5.7 1.98-11.03 4.85-16.67 6.91 3.78-4.18 9.44-5.57 14.43-7.75-6.31-.96-12.35 2.43-18.55 3.3.76-.74 1.39-1.71 2.43-2.07zM81.57 148.92c2.4-1.43 4.76-2.91 6.99-4.6.25 3.96-3.83 5.16-6.99 4.6zM53.66 160.47c9.29-2.64 18.74-4.78 28.17-6.85.36 2.92-2.84 2.34-4.77 2.44 1.92.75 2.96 2.3 3.05 4.36-1.73-.78-3.09-2.08-4.34-3.47-7.09 1.45-14.05 3.47-21.06 5.24l-1.71-.28c.17-.36.5-1.08.66-1.44zM87.51 179.82c2.56.06 5-.62 7.26-1.78.61 1.83 1.21 3.66 1.67 5.54-.8-1-1.56-2.03-2.28-3.07-1.67.48-3.34.92-5.02 1.34-.72 1.13-1.44 2.27-2.19 3.39.16-1.81.36-3.61.56-5.42zM88.88 189.07c1.55.08 3.12.15 4.61.61-.59 2.35-4.29 1.68-4.61-.61zM115.91 188.43c.51.56 1.02 1.13 1.51 1.72-.94 4.89.25 9.81 1.04 14.62 1.31 3.36 4.56 6.78 1.76 10.32-.37-5.82-5.87-10.04-5.39-15.97.02-3.59.47-7.16 1.08-10.69zM125.64 234.37c-2.65-2.06-3.34-5.84-1.36-8.6.27 2.89.75 5.76 1.36 8.6zM82.59 242.76c1.16-3.05 2.01-7.47 5.69-8.34-1.62 2.95-2.63 6.49-5.69 8.34z"/></g></svg>