<svg width="221pt" height="275pt" viewBox="0 0 221 275" xmlns="http://www.w3.org/2000/svg"><g fill="#FFF"><path d="M0 0h221v275H0V0m85.82 31.88c-3.27 4.4-1.3 10.02-.81 14.96.71.75 1.41 1.5 2.12 2.25.44 3.49.88 7.16-.39 10.54-1.09 1.9-3.51 2.19-5.3 3.13-3.57 1.45-4.88 5.53-8.04 7.55-3.28 2.92-8.1 4.95-8.97 9.73-1.35 3.45.66 7.2-.69 10.6-1.46 4.28-2.08 8.83-2.23 13.34-.19 5.3 4.87 9.51 3.6 14.89-1.46 6.65-1.75 13.69.33 20.24-5.43 2.52-7.87 8.5-8.82 14.06-.85 5.59.31 11.95 4.38 16.1 1.96 2.08 6.31 3.28 7.76-.02-2.43-.11-5.35.31-7.12-1.78-4.49-5.12-4.23-12.85-2.2-18.97 1.02-3.49 3.78-5.97 6.45-8.24 1.8 5.02-.44 10.4 1.42 15.37 1.04 3.02.88 6.28 1.7 9.34 1.73 3.67 6.37 3.45 9.75 4.25-1.02-3.51-5.27-2.94-7.99-4.13-.58-3.41-.69-6.92-1.89-10.19-1.34-3.22-.17-6.71-.65-10.04-.63-5.03-2.72-9.81-2.73-14.93-.42-6.08 1.55-11.91 2.25-17.88-.42.4-1.25 1.2-1.66 1.6-1.06-4.23-3.79-8.28-2.8-12.81.52-2.93.78-5.9 1.32-8.82.88.5 1.71 1.08 2.55 1.65-.71-4.82-2.54-10.1-.43-14.78 2.64-3.76 6.77-6.11 10.89-7.93-.04-5.33 6.26-6.93 9.83-9.56 1.96-3.29.42-7.62 2.3-10.98 1.29 2.28 2.19 4.89 4.06 6.79 2.81 1.99 6.22 2.88 9.56 3.54l1.53-2.09c1.13-.18 2.26-.35 3.4-.52 1.18-5.87 3.23-12.03 1.44-17.98-.75-2.69-.91-5.52-1.84-8.15-1.59-2.75-4.59-4.76-7.83-4.71-5.06-.57-11.04.13-14.25 4.58m28.3 27.54c-1.6-.24-3.2-.35-4.82-.34 1.12 1.69 2.81 1.74 4.57 1.02-1.33 1.76-2.28 3.76-3.08 5.81 1.05 4.09 4.28 6.74 7.59 9.06-.04-.49-.11-1.47-.14-1.95.9-.22 2.7-.67 3.6-.89-.54 1.79-.51 3.55.1 5.3 1.45-1.22 2.86-2.48 4.29-3.73-3.18-1.21-5.22-6.15-2.46-8.78 2.11.06 4.28-.27 6.35.31.34 1.08.63 2.18.89 3.29l.1.1c.86 1.63 1.76 3.23 2.72 4.8l-4.53-1.92c.42 1.1.85 2.2 1.29 3.29 3.82-.65 8.45-1.85 11.67 1.01 2.36 1.85 2.24 5.58.44 7.78-3.13 5.1-9.29 6.7-14.78 7.72-3.01-.55-6.33-1.3-7.79-4.33-.5-4.46 2.87-8.07 6.4-10.21-.59-.36-1.18-.72-1.77-1.07-2.74 2.34-5.15 5.12-6.28 8.6-1.54.37-3.07.76-4.59 1.15-1.33-.62-2.65-1.25-3.97-1.87-.21.42-.62 1.28-.82 1.71 3.12 2.18 6.69 1.54 10.04.32.42 1.83 1.08 3.58 2.01 5.21.65 2.35 1.17 4.76 1.16 7.21-.08 3.59-2.42 6.49-4.21 9.41-.67-.11-2.02-.34-2.69-.45-.36-2.19-.99-4.32-1.68-6.43-.36 2.31-.27 4.77-1.22 6.95-1.33 2.2-4.32.72-6.38 1.57-2.13.93-4.4.59-6.62.43 2.12 2.01 4.95 3.38 7.43 1.03 2.68.17 5.31-.39 7.35-2.23.98.4 1.97.81 2.96 1.22.53-.6 1.59-1.79 2.11-2.39.09 1.43.25 4.28.33 5.7-.43-.06-1.29-.17-1.72-.23 2.79 1.34 1.84 4.87 2.33 7.36-4.39 2.41-9.38 3.33-14.29 3.97-3.36-.37-6.64-1.35-10.04-1.32-3.11.09-6.41-1.04-8.55-3.29-.49-5.05.01-10.4-3.16-14.77 2.63-.89 5.46-.42 8.19-.41-.82-.95-1.62-1.88-2.44-2.82-.94.53-1.88 1.05-2.82 1.56-1.16-.57-2.32-1.14-3.49-1.69l1.03 1.59c-.68.14-2.05.42-2.74.56.89 3.09 2.69 5.8 3.63 8.86.21 2.34.14 4.7.19 7.05.22 3.2-2.66 5.41-4.05 7.99 1.66-1.14 3.26-2.4 5.06-3.34.07-.56.22-1.69.29-2.25 4.17 3.19 9.38 3.19 14.34 3.9 6.24 1.86 12.4-.93 18.33-2.6 1.09 1.13 2.19 2.25 3.32 3.35.22 2.65-.27 5.27-1.06 7.79 2.02 4.5 4.34 8.98 4.99 13.93.15 2.15 1.37 3.94 2.6 5.62-3.93 1.55-6.67 5.08-10.68 6.48-3.99 1.91-8.23-.36-12.25-.89.95-1.53 2.27-2.74 3.73-3.76 5.05.71 6.46-4.96 7.27-8.8-1.87 1.92-3.11 4.3-4.61 6.5-2.26.82-4.7 1.16-6.87 2.26-1.18 2.16-.76 4.85-1.28 7.22-2.01 1.1-4.08 2.08-6.14 3.08 1.07-5.96.78-12.72-2.97-17.74-1.57-2.3-4.59-2.45-6.97-3.35-5.51 2.03-8.53 7.81-9.58 13.28-.81 5.23-.66 10.96 2.15 15.62 1.67 2.51 4.36 5.22 7.68 4.48 5.13-1.63 8.09-6.55 9.54-11.43 1.48.02 2.96.02 4.44.01-.75 4.4-1.16 9.04-3.38 13.01-3.75 5.75-4.96 12.65-7.44 18.96-2.88 5.39-6.47 12.25-3.55 18.27 1.36-5.27.66-11.1 4.1-15.71.12 3.27.38 6.58-.02 9.84-.77 3.42-2.75 6.48-3.27 9.98-1.28 8.14-.41 17.08 4.59 23.9 2.33 5.37 6.9 9.17 9.68 14.25-1.16.4-2.34.77-3.51 1.13-.93-1.36-1.86-2.71-2.87-4-3.17.83-6.46.58-9.67.9-.32.39-.97 1.19-1.29 1.59 1.03-.11 2.06-.21 3.09-.31 2.49 1.02 5.1.21 7.61-.29.35.64 1.05 1.91 1.41 2.55-4.28 2.95-10.36 1.88-13.41-2.29-.54-6.09-3.89-11.42-5.08-17.36.16-3.75 1.55-7.47.61-11.25-.73-7.28-4.69-14.14-3.49-21.59.78-4.04 2.12-7.96 3.83-11.69 1.36 3 1.92 6.48 4.26 8.95-.95-5.49-2.99-10.77-3.55-16.34.24-3.64 1.4-7.13 2.2-10.67l-.52-.88c-.23-.08-.68-.25-.91-.34-2.01 5.53-2.24 11.5-2.82 17.3-1.55 5.43-3.99 10.72-4.37 16.43.18 6.17 2.76 11.93 3.58 18.01.32 3.79.26 7.69-.83 11.37.51 1.58 1.04 3.16 1.55 4.74-.92 3.98 2.26 7.17 2.59 10.99.15 2.26.89 4.62 3.04 5.75 3.5 3.07 8.45 2.61 12.75 2.19.66-.58 1.33-1.17 2-1.74 1.24-.13 2.45-.4 3.63-.81 1.42-1.12.87-3.1 1-4.66-4.6-5.73-8.94-11.68-12.1-18.36-2.53-8.23-1.42-17.3 1.82-25.18 1.45-4.95.04-10.16.5-15.21.7-4.6 2.65-8.85 3.93-13.29 1.44-3.21 3.88-5.99 4.47-9.55 1.26-3.88.16-8.37 2.78-11.79 2.45 2.48 4.33 5.45 6.11 8.43 1.88 2.95.86 6.72 2.29 9.83.78 1.74 1.54 3.5 2.05 5.36 2.12 1.1 2.75 3.35 3.42 5.49 1.13-3.15-.24-6.05-1.69-8.76-1.69-2.99-1.27-6.52-2.16-9.72-2.19-5.07-6.06-9.1-8.83-13.81 2.54.89 4.93 2.89 7.79 2.47 4.95-.32 9.39-2.93 13.15-6.01.28 4.33.5 8.65.8 12.98-.5-.02-1.48-.06-1.97-.09-.77 2.38-1.27 5-3.09 6.84-2.95-.4-4.01-3.43-5.41-5.59.66 2.62 1.03 6.54 4.29 7.06 2.97-.46 4.03-3.56 5.53-5.72.79 1.9 2.03 3.78 1.67 5.95-1.1 6.57-2.33 13.42-.78 20.03 1.73 8.32-.99 17.16 2.49 25.17 2.81 2.86 5.78 5.56 8.19 8.8 2.4 3.18 6.25 4.77 10.13 5.15.72.93 1.44 1.87 2.15 2.82-1.73.92-3.36 2.01-5.14 2.8-2.64.18-5.25-.41-7.88-.38-2.58-1.25-5.14-2.99-8.15-2.77-3.67-.21-7.85 1.38-11-1.2.38-4.51.33-9.18 2.03-13.44.05-4.08.3-8.18-.15-12.25-.44-3.57-3.42-6.24-3.75-9.84-.56-4.21-1.64-8.47-.66-12.7-.46-.8-.92-1.59-1.4-2.38-.87 4.44-1.4 8.98-1.2 13.51 1.23 5.13 5.31 9.23 5.55 14.7 1.67 7.92-4.09 15.44-1.92 23.32 2.82 2.88 7 2.36 10.59 1.75 4.03-.68 7.04 3.08 10.94 3.11 1.93.1 3.82.63 5.75.56 3.25-1.23 6.95-2.27 8.65-5.63-1.66-1.68-2.87-4.41-5.55-4.49-6.97-.71-9.73-8.13-14.95-11.76-3.81-7.66-1.17-16.64-2.55-24.82-1.43-6.34-1.34-13.01.17-19.32.58-3.07-1.71-5.77-1.48-8.83.06-4.49-.08-8.99-.82-13.42 1.32-.89 2.38-2.04 2.75-3.62-1.06-1.2-2.66-2.21-2.77-3.97-.62-5.62-3.71-10.49-5.1-15.88.63-2.62 1.23-5.25.95-7.96-.91-.89-1.86-1.72-2.64-2.72-1.11-4.37-1.49-8.92-1.31-13.42.01-3.56 2.12-6.6 2.87-9.99.36-2.7-.48-5.38-1.53-7.83 6.13 2.54 12.79.07 18.14-3.16 1.44 2.58 3.14 5.04 4.22 7.81-.48 3.54-2.12 6.79-3.38 10.1-1.11.28-2.21.57-3.34.73-3.2-2.53-6.26-5.31-8.87-8.46-.07-1.83-.17-3.66-.28-5.5l-2.74.03c-.09 7.41 6.23 12.65 11.69 16.64 2.34-.77 5.36-1.53 6.04-4.3 1.04-4.26 4.01-8.52 2.09-12.95-1.55-1.54-2.95-3.22-4.45-4.81 2.6-2.92 6-7.32 3.38-11.25-2.1-3.63-6.67-3.76-10.36-3.8-.3-3.35-1.15-6.78-3.09-9.57-4.12.01-8.52.9-11.63 3.78.45 1.87.81 3.76 1.05 5.67-3.45-.24-6.6-1.6-8.94-4.17 1.17-8.95 11.2-14.29 19.52-12.47 3.48.81 4.72 4.25 5.1 7.42 2.77-3.15-.13-7.82-3.67-8.73-6.64-1.85-13.7.95-18.82 5.2M90.9 57.45c1.29 3.05 2.59 6.1 3.73 9.21-2.45.43-4.89.92-7.37 1.2l.24 1.66c3.71-.46 7.47-2.19 11.21-.91 1.77.26 3.73 1.65 5.43.49 1.62-1.07 2.41-3.04 2.44-4.92-.31.8-.94 2.42-1.25 3.23-3.31 1.09-6.5-.98-9.84-.9.27-3.71-2.32-6.49-4.59-9.06m37.01 18.65c1.28-1.33 1.01-2.18-.8-2.56-.87 1.09-.61 1.94.8 2.56m-44.41-.74c-1.58 3.48-3.54 6.9-3.86 10.79 3.27-2.53 3.93-6.85 5.73-10.34-.47-.11-1.41-.33-1.87-.45m21.86-.74c.7 3.72 2.43 7.47.8 11.23-2.7.98-5.62 1.58-7.87 3.48-1.77 1.61-4.2 1.66-6.45 1.72-2.77-1.81-5.29-3.97-8.08-5.75.4 3.42 3.64 5.08 6.26 6.69 3.02 2.02 7.11.88 9.6-1.48 2.42-2.46 7.22-1.7 8.32-5.56 2.29-3.41.16-7.87-2.58-10.33m4.68 16.29c2.03 1.36 2.41 3.64 2.16 5.94-1.44.06-2.88.11-4.32.14-.33.49-.99 1.45-1.32 1.93-.96.26-1.91.52-2.86.77l-2.16 2.79c-1.88-.99-3.65-2.17-5.47-3.25.55 2.95 3.16 4.18 5.84 4.67 1.37-1.47 2.93-2.75 4.92-3.24.36-.34 1.07-1.02 1.42-1.36 1.84-.42 3.61-1.06 5.26-1.97 2.79.24 5.54.72 8.27 1.34-1.61-2.85-4.83-2.93-7.73-2.93-.6-1.37-1.26-2.7-1.93-4.02.86-.67 1.73-1.33 2.59-2 1.22.42 2.44.81 3.68 1.18-1.09-.84-2.01-2.14-3.41-2.45-1.65.84-3.11 2.03-4.94 2.46m-3.89-1.79c-2.34 2.89-4.55 5.87-6.78 8.83 4.36-1.37 5.91-5.86 9.47-8.25-.68-.15-2.02-.43-2.69-.58m-33.68 2.75c-.03.89-.1 2.68-.14 3.57 1.63-1.57 3.31-3.09 4.86-4.73-1.59.33-3.16.73-4.72 1.16m5.37 1.05c.87 1.95 2.49 3.83 1.98 6.11-.7 3.91-.18 7.87-.4 11.8-.73 4.13-3.74 7.56-3.81 11.88.57-.9 1.73-2.71 2.3-3.61 2.53 5.99 2.84 12.98.53 19.09-1.13 4.34-.33 9.72 2.99 12.93-.42-3.39-1.73-6.66-1.65-10.12.53-3.65 2.24-7.14 1.78-10.91.26-4.46-1.51-8.63-2.32-12.9 1.1-3.54 1.89-7.17 3.08-10.68-.32-.4-.98-1.19-1.31-1.59.66-4.26 1.32-8.81-1.06-12.7-.53.17-1.59.52-2.11.7m6.08 1.78c.01.81.05 2.43.06 3.24 2.77 1.86 5.92 2.04 9.07 1.17-.28-.52-.84-1.54-1.12-2.06-2.33.99-5.36 1.51-6.91-1.06l3.49-2.17c-1.54.24-3.07.56-4.59.88m-19.33 5.49c.24 2.48.6 4.95.81 7.43l1.74.14c.64-2.88-.26-5.7-2.55-7.57m29.6 6.05c1.18 1.55 2.98 1.93 4.82 2.1.63-.93 1.27-1.85 1.9-2.78-2.24.22-4.48.42-6.72.68m-4.93 1.01c-.98 3.79 4.44 5.37 7.36 4.69-2.31-1.77-4.75-3.4-7.36-4.69m11.95 5.75c-.28 1.42.26 1.96 1.63 1.6.26-1.43-.28-1.96-1.63-1.6m11.33 5.45a43.16 43.16 0 002.62-4.94c-1.89 1.06-3.81 2.56-2.62 4.94m-11.91-3.04c.25 3.77 3.31 7.55 7.35 7.23-2.57-2.29-4.99-4.73-7.35-7.23m-13.31 15.94c0 .67.02 2.01.03 2.68.39-.16 1.18-.47 1.58-.62.64-2.09 1.43-4.12 2.29-6.12 1.86.65 3.74 1.31 5.57 2.07-1.28 2.11-2.46 4.66-4.88 5.68-2.11.91-4.4 1.74-5.74 3.75 5.03-1.12 10.79-3.21 12-8.9 6.09.94 12.4.53 18.19-1.65 2.02-.39 3.12-2.27 4.39-3.67-5.77 2.79-12.25 4.22-18.66 3.85-3.99-.23-7.74-1.74-11.56-2.74-1.06 1.89-2.06 3.82-3.21 5.67m-4.66-1.32c.08 6.26-.27 12.5-.46 18.75 1.23-2.34 2.29-4.86 2.14-7.56-.09-3.77.45-7.83-1.68-11.19m23.83 4.69c-2.89.79-6.02 1.42-8.15 3.71 6.45-.8 12.58-4.09 19.15-3.45-5.05 2.52-11.49 3.51-14.84 8.51 5.4-2.92 11.04-5.33 16.79-7.47-.06-1.08-.12-2.16-.16-3.24-4.32.16-8.6.93-12.79 1.94m-10.83 10.65c4.67 2.02 9.54-.37 14.34-.28 4.28-.29 9.36-.18 12.16-4.04-8.56 2.91-17.73 2.42-26.5 4.32m-20.11-3.22c-.18 2.83.52 5.54 1.94 7.98-.16-2.71-.52-5.41-.86-8.1l-1.08.12m-4.09 7.96c1.52-.2 1.35-2.85-.01-3.2-1.53.19-1.29 2.81.01 3.2m15.83 29.83c-.14.8-.43 2.4-.57 3.19.2.52.6 1.54.8 2.05l1.38-3.48c1.63-.49 3.26-1.01 4.88-1.56.89 1.19 1.8 2.37 2.81 3.46-.57-2.05-1.4-4.01-2.26-5.95-2.3.93-4.7 1.51-7.04 2.29m1.56 9.93c1.26 1.97 3.84 1.29 5.03-.39-1.66-.02-3.61-.87-5.03.39m35.17 35.78c-.45 1.58-.86 3.16-1.24 4.76.9 1.39 1.81 2.78 2.81 4.1-.54-2.95-.95-5.92-1.57-8.86m-41.51 17.18c1.08-.94 2.14-1.9 3.17-2.89.72-1.97 1.69-3.83 2.58-5.71-3.58 1.29-4.57 5.4-5.75 8.6z"/><path d="M88.97 31.79c3.64-3.25 8.72-3.36 13.33-3.18 1.41 1.29 2.93 2.48 4.05 4.04 2.93 7.64 3.6 16.43.49 24.15-1.91 3.66-6.16.82-8.97.01-3.29-.71-4.95-3.82-6-6.72a119.65 119.65 0 01-5.03-3.24c.35-1.68.78-3.35 1.21-5.01l-2.45.68c-.24-3.78.04-8.28 3.37-10.73zM90.4 145.55c3.18 1.96 6.23 4.59 7 8.45 1.26 6.96.82 15.62-5.29 20.27-2.63 2.51-7.17 1.83-9.04-1.25-5.61-8.96-2.84-23.02 7.33-27.47z"/></g><g fill="#333"><path d="M85.82 31.88c3.21-4.45 9.19-5.15 14.25-4.58 3.24-.05 6.24 1.96 7.83 4.71.93 2.63 1.09 5.46 1.84 8.15 1.79 5.95-.26 12.11-1.44 17.98-1.14.17-2.27.34-3.4.52l-1.53 2.09c-3.34-.66-6.75-1.55-9.56-3.54-1.87-1.9-2.77-4.51-4.06-6.79-1.88 3.36-.34 7.69-2.3 10.98-3.57 2.63-9.87 4.23-9.83 9.56-4.12 1.82-8.25 4.17-10.89 7.93-2.11 4.68-.28 9.96.43 14.78-.84-.57-1.67-1.15-2.55-1.65-.54 2.92-.8 5.89-1.32 8.82-.99 4.53 1.74 8.58 2.8 12.81.41-.4 1.24-1.2 1.66-1.6-.7 5.97-2.67 11.8-2.25 17.88.01 5.12 2.1 9.9 2.73 14.93.48 3.33-.69 6.82.65 10.04 1.2 3.27 1.31 6.78 1.89 10.19 2.72 1.19 6.97.62 7.99 4.13-3.38-.8-8.02-.58-9.75-4.25-.82-3.06-.66-6.32-1.7-9.34-1.86-4.97.38-10.35-1.42-15.37-2.67 2.27-5.43 4.75-6.45 8.24-2.03 6.12-2.29 13.85 2.2 18.97 1.77 2.09 4.69 1.67 7.12 1.78-1.45 3.3-5.8 2.1-7.76.02-4.07-4.15-5.23-10.51-4.38-16.1.95-5.56 3.39-11.54 8.82-14.06-2.08-6.55-1.79-13.59-.33-20.24 1.27-5.38-3.79-9.59-3.6-14.89.15-4.51.77-9.06 2.23-13.34 1.35-3.4-.66-7.15.69-10.6.87-4.78 5.69-6.81 8.97-9.73 3.16-2.02 4.47-6.1 8.04-7.55 1.79-.94 4.21-1.23 5.3-3.13 1.27-3.38.83-7.05.39-10.54-.71-.75-1.41-1.5-2.12-2.25-.49-4.94-2.46-10.56.81-14.96m3.15-.09c-3.33 2.45-3.61 6.95-3.37 10.73l2.45-.68c-.43 1.66-.86 3.33-1.21 5.01 1.65 1.12 3.32 2.2 5.03 3.24 1.05 2.9 2.71 6.01 6 6.72 2.81.81 7.06 3.65 8.97-.01 3.11-7.72 2.44-16.51-.49-24.15-1.12-1.56-2.64-2.75-4.05-4.04-4.61-.18-9.69-.07-13.33 3.18z"/><path d="M114.12 59.42c5.12-4.25 12.18-7.05 18.82-5.2 3.54.91 6.44 5.58 3.67 8.73-.38-3.17-1.62-6.61-5.1-7.42-8.32-1.82-18.35 3.52-19.52 12.47 2.34 2.57 5.49 3.93 8.94 4.17-.24-1.91-.6-3.8-1.05-5.67 3.11-2.88 7.51-3.77 11.63-3.78 1.94 2.79 2.79 6.22 3.09 9.57 3.69.04 8.26.17 10.36 3.8 2.62 3.93-.78 8.33-3.38 11.25 1.5 1.59 2.9 3.27 4.45 4.81 1.92 4.43-1.05 8.69-2.09 12.95-.68 2.77-3.7 3.53-6.04 4.3-5.46-3.99-11.78-9.23-11.69-16.64l2.74-.03c.11 1.84.21 3.67.28 5.5 2.61 3.15 5.67 5.93 8.87 8.46 1.13-.16 2.23-.45 3.34-.73 1.26-3.31 2.9-6.56 3.38-10.1-1.08-2.77-2.78-5.23-4.22-7.81-5.35 3.23-12.01 5.7-18.14 3.16 1.05 2.45 1.89 5.13 1.53 7.83-.75 3.39-2.86 6.43-2.87 9.99-.18 4.5.2 9.05 1.31 13.42.78 1 1.73 1.83 2.64 2.72.28 2.71-.32 5.34-.95 7.96 1.39 5.39 4.48 10.26 5.1 15.88.11 1.76 1.71 2.77 2.77 3.97-.37 1.58-1.43 2.73-2.75 3.62.74 4.43.88 8.93.82 13.42-.23 3.06 2.06 5.76 1.48 8.83-1.51 6.31-1.6 12.98-.17 19.32 1.38 8.18-1.26 17.16 2.55 24.82 5.22 3.63 7.98 11.05 14.95 11.76 2.68.08 3.89 2.81 5.55 4.49-1.7 3.36-5.4 4.4-8.65 5.63-1.93.07-3.82-.46-5.75-.56-3.9-.03-6.91-3.79-10.94-3.11-3.59.61-7.77 1.13-10.59-1.75-2.17-7.88 3.59-15.4 1.92-23.32-.24-5.47-4.32-9.57-5.55-14.7-.2-4.53.33-9.07 1.2-13.51.48.79.94 1.58 1.4 2.38-.98 4.23.1 8.49.66 12.7.33 3.6 3.31 6.27 3.75 9.84.45 4.07.2 8.17.15 12.25-1.7 4.26-1.65 8.93-2.03 13.44 3.15 2.58 7.33.99 11 1.2 3.01-.22 5.57 1.52 8.15 2.77 2.63-.03 5.24.56 7.88.38 1.78-.79 3.41-1.88 5.14-2.8-.71-.95-1.43-1.89-2.15-2.82-3.88-.38-7.73-1.97-10.13-5.15-2.41-3.24-5.38-5.94-8.19-8.8-3.48-8.01-.76-16.85-2.49-25.17-1.55-6.61-.32-13.46.78-20.03.36-2.17-.88-4.05-1.67-5.95-1.5 2.16-2.56 5.26-5.53 5.72-3.26-.52-3.63-4.44-4.29-7.06 1.4 2.16 2.46 5.19 5.41 5.59 1.82-1.84 2.32-4.46 3.09-6.84.49.03 1.47.07 1.97.09-.3-4.33-.52-8.65-.8-12.98-3.76 3.08-8.2 5.69-13.15 6.01-2.86.42-5.25-1.58-7.79-2.47 2.77 4.71 6.64 8.74 8.83 13.81.89 3.2.47 6.73 2.16 9.72 1.45 2.71 2.82 5.61 1.69 8.76-.67-2.14-1.3-4.39-3.42-5.49-.51-1.86-1.27-3.62-2.05-5.36-1.43-3.11-.41-6.88-2.29-9.83-1.78-2.98-3.66-5.95-6.11-8.43-2.62 3.42-1.52 7.91-2.78 11.79-.59 3.56-3.03 6.34-4.47 9.55-1.28 4.44-3.23 8.69-3.93 13.29-.46 5.05.95 10.26-.5 15.21-3.24 7.88-4.35 16.95-1.82 25.18 3.16 6.68 7.5 12.63 12.1 18.36-.13 1.56.42 3.54-1 4.66-1.18.41-2.39.68-3.63.81-.67.57-1.34 1.16-2 1.74-4.3.42-9.25.88-12.75-2.19-2.15-1.13-2.89-3.49-3.04-5.75-.33-3.82-3.51-7.01-2.59-10.99-.51-1.58-1.04-3.16-1.55-4.74 1.09-3.68 1.15-7.58.83-11.37-.82-6.08-3.4-11.84-3.58-18.01.38-5.71 2.82-11 4.37-16.43.58-5.8.81-11.77 2.82-17.3.23.09.68.26.91.34l.52.88c-.8 3.54-1.96 7.03-2.2 10.67.56 5.57 2.6 10.85 3.55 16.34-2.34-2.47-2.9-5.95-4.26-8.95-1.71 3.73-3.05 7.65-3.83 11.69-1.2 7.45 2.76 14.31 3.49 21.59.94 3.78-.45 7.5-.61 11.25 1.19 5.94 4.54 11.27 5.08 17.36 3.05 4.17 9.13 5.24 13.41 2.29-.36-.64-1.06-1.91-1.41-2.55-2.51.5-5.12 1.31-7.61.29-1.03.1-2.06.2-3.09.31.32-.4.97-1.2 1.29-1.59 3.21-.32 6.5-.07 9.67-.9 1.01 1.29 1.94 2.64 2.87 4 1.17-.36 2.35-.73 3.51-1.13-2.78-5.08-7.35-8.88-9.68-14.25-5-6.82-5.87-15.76-4.59-23.9.52-3.5 2.5-6.56 3.27-9.98.4-3.26.14-6.57.02-9.84-3.44 4.61-2.74 10.44-4.1 15.71-2.92-6.02.67-12.88 3.55-18.27 2.48-6.31 3.69-13.21 7.44-18.96 2.22-3.97 2.63-8.61 3.38-13.01-1.48.01-2.96.01-4.44-.01-1.45 4.88-4.41 9.8-9.54 11.43-3.32.74-6.01-1.97-7.68-4.48-2.81-4.66-2.96-10.39-2.15-15.62 1.05-5.47 4.07-11.25 9.58-13.28 2.38.9 5.4 1.05 6.97 3.35 3.75 5.02 4.04 11.78 2.97 17.74 2.06-1 4.13-1.98 6.14-3.08.52-2.37.1-5.06 1.28-7.22 2.17-1.1 4.61-1.44 6.87-2.26 1.5-2.2 2.74-4.58 4.61-6.5-.81 3.84-2.22 9.51-7.27 8.8-1.46 1.02-2.78 2.23-3.73 3.76 4.02.53 8.26 2.8 12.25.89 4.01-1.4 6.75-4.93 10.68-6.48-1.23-1.68-2.45-3.47-2.6-5.62-.65-4.95-2.97-9.43-4.99-13.93.79-2.52 1.28-5.14 1.06-7.79-1.13-1.1-2.23-2.22-3.32-3.35-5.93 1.67-12.09 4.46-18.33 2.6-4.96-.71-10.17-.71-14.34-3.9-.07.56-.22 1.69-.29 2.25-1.8.94-3.4 2.2-5.06 3.34 1.39-2.58 4.27-4.79 4.05-7.99-.05-2.35.02-4.71-.19-7.05-.94-3.06-2.74-5.77-3.63-8.86.69-.14 2.06-.42 2.74-.56l-1.03-1.59c1.17.55 2.33 1.12 3.49 1.69.94-.51 1.88-1.03 2.82-1.56.82.94 1.62 1.87 2.44 2.82-2.73-.01-5.56-.48-8.19.41 3.17 4.37 2.67 9.72 3.16 14.77 2.14 2.25 5.44 3.38 8.55 3.29 3.4-.03 6.68.95 10.04 1.32 4.91-.64 9.9-1.56 14.29-3.97-.49-2.49.46-6.02-2.33-7.36.43.06 1.29.17 1.72.23-.08-1.42-.24-4.27-.33-5.7-.52.6-1.58 1.79-2.11 2.39-.99-.41-1.98-.82-2.96-1.22-2.04 1.84-4.67 2.4-7.35 2.23-2.48 2.35-5.31.98-7.43-1.03 2.22.16 4.49.5 6.62-.43 2.06-.85 5.05.63 6.38-1.57.95-2.18.86-4.64 1.22-6.95.69 2.11 1.32 4.24 1.68 6.43.67.11 2.02.34 2.69.45 1.79-2.92 4.13-5.82 4.21-9.41.01-2.45-.51-4.86-1.16-7.21-.93-1.63-1.59-3.38-2.01-5.21-3.35 1.22-6.92 1.86-10.04-.32.2-.43.61-1.29.82-1.71 1.32.62 2.64 1.25 3.97 1.87 1.52-.39 3.05-.78 4.59-1.15 1.13-3.48 3.54-6.26 6.28-8.6.59.35 1.18.71 1.77 1.07-3.53 2.14-6.9 5.75-6.4 10.21 1.46 3.03 4.78 3.78 7.79 4.33 5.49-1.02 11.65-2.62 14.78-7.72 1.8-2.2 1.92-5.93-.44-7.78-3.22-2.86-7.85-1.66-11.67-1.01-.44-1.09-.87-2.19-1.29-3.29l4.53 1.92c-.96-1.57-1.86-3.17-2.72-4.8l-.1-.1c-.26-1.11-.55-2.21-.89-3.29-2.07-.58-4.24-.25-6.35-.31-2.76 2.63-.72 7.57 2.46 8.78-1.43 1.25-2.84 2.51-4.29 3.73-.61-1.75-.64-3.51-.1-5.3-.9.22-2.7.67-3.6.89.03.48.1 1.46.14 1.95-3.31-2.32-6.54-4.97-7.59-9.06.8-2.05 1.75-4.05 3.08-5.81-1.76.72-3.45.67-4.57-1.02 1.62-.01 3.22.1 4.82.34M90.4 145.55c-10.17 4.45-12.94 18.51-7.33 27.47 1.87 3.08 6.41 3.76 9.04 1.25 6.11-4.65 6.55-13.31 5.29-20.27-.77-3.86-3.82-6.49-7-8.45z"/><path d="M90.9 57.45c2.27 2.57 4.86 5.35 4.59 9.06 3.34-.08 6.53 1.99 9.84.9.31-.81.94-2.43 1.25-3.23-.03 1.88-.82 3.85-2.44 4.92-1.7 1.16-3.66-.23-5.43-.49-3.74-1.28-7.5.45-11.21.91l-.24-1.66c2.48-.28 4.92-.77 7.37-1.2-1.14-3.11-2.44-6.16-3.73-9.21zM127.91 76.1c-1.41-.62-1.67-1.47-.8-2.56 1.81.38 2.08 1.23.8 2.56zM83.5 75.36c.46.12 1.4.34 1.87.45-1.8 3.49-2.46 7.81-5.73 10.34.32-3.89 2.28-7.31 3.86-10.79zM105.36 74.62c2.74 2.46 4.87 6.92 2.58 10.33-1.1 3.86-5.9 3.1-8.32 5.56-2.49 2.36-6.58 3.5-9.6 1.48-2.62-1.61-5.86-3.27-6.26-6.69 2.79 1.78 5.31 3.94 8.08 5.75 2.25-.06 4.68-.11 6.45-1.72 2.25-1.9 5.17-2.5 7.87-3.48 1.63-3.76-.1-7.51-.8-11.23zM110.04 90.91c1.83-.43 3.29-1.62 4.94-2.46 1.4.31 2.32 1.61 3.41 2.45-1.24-.37-2.46-.76-3.68-1.18-.86.67-1.73 1.33-2.59 2 .67 1.32 1.33 2.65 1.93 4.02 2.9 0 6.12.08 7.73 2.93-2.73-.62-5.48-1.1-8.27-1.34-1.65.91-3.42 1.55-5.26 1.97-.35.34-1.06 1.02-1.42 1.36-1.99.49-3.55 1.77-4.92 3.24-2.68-.49-5.29-1.72-5.84-4.67 1.82 1.08 3.59 2.26 5.47 3.25l2.16-2.79c.95-.25 1.9-.51 2.86-.77.33-.48.99-1.44 1.32-1.93 1.44-.03 2.88-.08 4.32-.14.25-2.3-.13-4.58-2.16-5.94z"/><path d="M106.15 89.12c.67.15 2.01.43 2.69.58-3.56 2.39-5.11 6.88-9.47 8.25 2.23-2.96 4.44-5.94 6.78-8.83zM72.47 91.87c1.56-.43 3.13-.83 4.72-1.16-1.55 1.64-3.23 3.16-4.86 4.73.04-.89.11-2.68.14-3.57zM77.84 92.92c.52-.18 1.58-.53 2.11-.7 2.38 3.89 1.72 8.44 1.06 12.7.33.4.99 1.19 1.31 1.59-1.19 3.51-1.98 7.14-3.08 10.68.81 4.27 2.58 8.44 2.32 12.9.46 3.77-1.25 7.26-1.78 10.91-.08 3.46 1.23 6.73 1.65 10.12-3.32-3.21-4.12-8.59-2.99-12.93 2.31-6.11 2-13.1-.53-19.09-.57.9-1.73 2.71-2.3 3.61.07-4.32 3.08-7.75 3.81-11.88.22-3.93-.3-7.89.4-11.8.51-2.28-1.11-4.16-1.98-6.11zM83.92 94.7c1.52-.32 3.05-.64 4.59-.88l-3.49 2.17c1.55 2.57 4.58 2.05 6.91 1.06.28.52.84 1.54 1.12 2.06-3.15.87-6.3.69-9.07-1.17-.01-.81-.05-2.43-.06-3.24zM64.59 100.19c2.29 1.87 3.19 4.69 2.55 7.57l-1.74-.14c-.21-2.48-.57-4.95-.81-7.43zM94.19 106.24c2.24-.26 4.48-.46 6.72-.68-.63.93-1.27 1.85-1.9 2.78-1.84-.17-3.64-.55-4.82-2.1zM89.26 107.25c2.61 1.29 5.05 2.92 7.36 4.69-2.92.68-8.34-.9-7.36-4.69zM101.21 113c1.35-.36 1.89.17 1.63 1.6-1.37.36-1.91-.18-1.63-1.6zM112.54 118.45c-1.19-2.38.73-3.88 2.62-4.94a43.16 43.16 0 01-2.62 4.94zM100.63 115.41c2.36 2.5 4.78 4.94 7.35 7.23-4.04.32-7.1-3.46-7.35-7.23zM87.32 131.35c1.15-1.85 2.15-3.78 3.21-5.67 3.82 1 7.57 2.51 11.56 2.74 6.41.37 12.89-1.06 18.66-3.85-1.27 1.4-2.37 3.28-4.39 3.67-5.79 2.18-12.1 2.59-18.19 1.65-1.21 5.69-6.97 7.78-12 8.9 1.34-2.01 3.63-2.84 5.74-3.75 2.42-1.02 3.6-3.57 4.88-5.68-1.83-.76-3.71-1.42-5.57-2.07-.86 2-1.65 4.03-2.29 6.12-.4.15-1.19.46-1.58.62-.01-.67-.03-2.01-.03-2.68zM82.66 130.03c2.13 3.36 1.59 7.42 1.68 11.19.15 2.7-.91 5.22-2.14 7.56.19-6.25.54-12.49.46-18.75zM106.49 134.72c4.19-1.01 8.47-1.78 12.79-1.94.04 1.08.1 2.16.16 3.24-5.75 2.14-11.39 4.55-16.79 7.47 3.35-5 9.79-5.99 14.84-8.51-6.57-.64-12.7 2.65-19.15 3.45 2.13-2.29 5.26-2.92 8.15-3.71zM95.66 145.37c8.77-1.9 17.94-1.41 26.5-4.32-2.8 3.86-7.88 3.75-12.16 4.04-4.8-.09-9.67 2.3-14.34.28zM75.55 142.15l1.08-.12c.34 2.69.7 5.39.86 8.1-1.42-2.44-2.12-5.15-1.94-7.98zM71.46 150.11c-1.3-.39-1.54-3.01-.01-3.2 1.36.35 1.53 3 .01 3.2zM87.29 179.94c2.34-.78 4.74-1.36 7.04-2.29.86 1.94 1.69 3.9 2.26 5.95-1.01-1.09-1.92-2.27-2.81-3.46-1.62.55-3.25 1.07-4.88 1.56l-1.38 3.48c-.2-.51-.6-1.53-.8-2.05.14-.79.43-2.39.57-3.19zM88.85 189.87c1.42-1.26 3.37-.41 5.03-.39-1.19 1.68-3.77 2.36-5.03.39zM124.02 225.65c.62 2.94 1.03 5.91 1.57 8.86-1-1.32-1.91-2.71-2.81-4.1.38-1.6.79-3.18 1.24-4.76zM82.51 242.83c1.18-3.2 2.17-7.31 5.75-8.6-.89 1.88-1.86 3.74-2.58 5.71-1.03.99-2.09 1.95-3.17 2.89z"/></g></svg>