<svg width="240" height="250pt" viewBox="0 0 180 250" xmlns="http://www.w3.org/2000/svg"><g fill="#FFF"><path d="M0 0h180v250H0V0m72.21 25.99c-.93 3.24.23 6.56.54 9.8.41 3.85 3.72 6.77 3.31 10.81-3.09 1.25-6.49 2.13-8.94 4.54-3.4 2.79-5.39 6.78-7.82 10.36-2.45 3.39-2.24 7.78-3.43 11.65.15.63.46 1.89.62 2.52-5.04 3.16-3.8 9.6-2.6 14.44 2.73-1.86.6-5.26.89-7.89.15-4.31 4.78-5.8 7.66-8.06 2.92 5.17 2.87 11.39 5.88 16.49 1.82 2.81 1.35 6.33 2.7 9.3 1.82 4.08 3.08 8.37 4.04 12.73-3.08.21-6.17.2-9.25-.05-4.07-7.61-7.76-15.5-10.21-23.8-2.55 1.21-1.98 4.32-2.17 6.61l1.43-1.7c1.12 2.95 1.6 6.14 3.17 8.91 2.11 3.91 3.25 8.59 7.01 11.35 3.03 2.7 7.47 1.5 10.87.22.96 1.61 2.06 3.18 2.62 5 1.11 4.6 3.1 9.39 1.47 14.13-2.92-.1-6.57 2.4-4.74 5.62-1.27 1.28-2.55 2.56-3.58 4.05 1.84-.19 3.27-1.34 4.63-2.48 1.56.59 3.21.86 4.86 1.11.12 3.9 1.25 8.09-.62 11.75-1.62 3.6-1.97 7.7-4.16 11.05-2.58 4.38-4.52 10.08-2.41 14.99 2.09-4.41.77-9.76 3.8-13.83.22 3.09.54 6.25-.12 9.3-.67 2.87-2.22 5.46-2.79 8.36-.7 4.5-.77 9.14.27 13.6.79 4.81 4.01 8.65 6.22 12.85 2.3 3.14 5.04 5.95 7.1 9.28-1.1.16-2.79 1.76-3.61.26-1.14-1.05-1.86-3.41-3.82-2.73-2.46.48-4.95.66-7.43.16-.21.46-.64 1.38-.85 1.83 3.68 1.16 7.99-1.24 11.12 1.38-4 3.84-12.83 2.26-13.09-3.99-1.07-4.77-3.55-9.1-4.52-13.91.15-2.36.98-4.62 1.01-6.99-.18-6.9-3.28-13.29-3.84-20.12.02-4.86 1.82-9.46 3.44-13.96 1.32 2.52 2.33 5.19 3.43 7.82.22-.4.67-1.19.9-1.58-1.08-4.7-3.26-9.29-3.24-14.16 1.7-7.42-1.75-14.75-6.39-20.38 1.59-2.39 2.91-5.25 5.45-6.78 3.94-1.36 8.19-.11 12.25-.2-1.79-4.04-7.56-3.14-11.17-2.48-3.85.49-5.65 4.02-7.43 6.99-1.5-3.22-1.42-6.78-1.75-10.24-1.61-2.83-3.56-5.47-5.44-8.12-.54-4.87-.44-9.83 1.35-14.45-.63-.77-1.26-1.53-1.89-2.29-.08 2.46-1.17 4.66-1.92 6.94-.3 2.3-.2 4.63-.25 6.94-.49.32-1.49.97-1.99 1.29-3.22.13-6.81 1.31-7.99 4.64-.59 3.85-.13 8.4 3.3 10.84 3.43 2.32 6.27 5.33 8.92 8.48l3.23.2c.89-.51 1.78-1.02 2.68-1.53-.03 1.41-.25 2.82-.07 4.23.83 1.66 2.8 1.79 4.38 2.2 1.6 2.98 3.06 6.15 3.35 9.56-.3 3.38-.47 6.78-.83 10.15-1.59 4.95-3.65 9.84-4.28 15.03.39 5.78 2.82 11.2 3.55 16.92.47 3.61-.37 7.21-.5 10.81 1.09 3.57.81 7.45 2.57 10.82 1.48 2.6.59 6.25 3.09 8.28 3.83 3.9 10.71 4.56 15.04 1.17 1.6-.29 4.1-.36 4.23-2.51.41-4.45-4.15-7.07-6.2-10.51-2.31-4.13-5.68-7.95-6.13-12.84-.56-3.74-.31-7.53-.02-11.27.24-3.79 2.33-7.1 3-10.78.52-4-.33-8.02-.04-12.01 1.14-6.43 4.45-12.22 5.71-18.63l1.8-.16c.74 10.22-.58 20.47.11 30.7.5-.83.99-1.66 1.47-2.49-.14-10.34.7-20.67.28-31-.27.57-.82 1.69-1.09 2.26-.91-.46-2.73-1.37-3.64-1.82 1.64-1.92 4.22-.29 6.33-.83 6.97-1.69 13.87-4.69 21.14-4.49l-1.16 1.39c.71.15 2.14.43 2.85.58-.13-.78-.39-2.32-.52-3.09 1.15-.1 2.31-.11 3.47-.11 1.76 1.57 3.99 2.41 5.92 3.73-1.28 4.84-2.39 9.81-1.89 14.85 1.33 4.47 4.46 8.26 5.13 12.97 1.12 4.13-.1 8.29-1.27 12.25-2.97-13.26-7.46-26.16-10.19-39.47-1.07-.02-2.13-.05-3.2-.09 1.44 1.39 1.69 3.48 2.28 5.3 3.15 11.89 6.42 23.75 9.64 35.62.67 2.73.57 5.56.8 8.34.98 1.27 2.16 2.49 2.54 4.11 1.54 5.42 2.87 10.89 4.47 16.3 1.38 4.06.2 8.54 1.91 12.54.82 2.49 3.09 4.02 4.93 5.73 2.77.08 5.07-1.31 6.94-3.22l-.76 1.02c7.71 2.56 15.09 5.99 22.68 8.82 1.19.68 2.21.23 2.94-.85-7.53-3.12-15.12-6.09-22.68-9.11 4.81-4.24 4.16-11.94 1.05-16.98-1.14-2.05-3.36-2.49-5.53-2.26 2.51 2.11 5.14 4.5 5.53 7.97 1.28 3.67-.5 7.28-2.61 10.21 2.12-5.81.87-13.04-4.26-16.89l.7-1.51c-.91.36-2.75 1.08-3.67 1.43-.66.1-1.97.29-2.63.38-.81 1.21-1.62 2.41-2.42 3.62-1.49-6.2-3.17-12.34-4.97-18.45 2.93-.11 5.88-.81 8.81-.34 2.1.8 4.07 1.91 6.08 2.9 2.32-.11 4.61.31 6.92.4 2.91-1.11 7.03-2.03 7.71-5.6-.8-1.46-1.86-2.83-3.23-3.78-2.13-.72-4.62-.63-6.37-2.23-3.41-2.93-6.07-6.62-9.62-9.39-2.97-7.78-.19-16.3-2.11-24.27-1.07-4.39-.16-8.92-.7-13.36-.49.19-1.47.57-1.95.76.54 3.69-.58 7.39.03 11.06 2.23 8.73-.25 17.92 2.66 26.57 3.83 2.91 6.55 6.93 10.02 10.2 2.64 2.89 7.55 1.44 9.46 5.23-2.19 1.01-4.2 3.13-6.79 2.71-2.99-.37-6.11-.49-8.8-1.99-3.81-2.09-8.2-.3-12.26-.84-2.28-3.85-1.51-8.49-1.03-12.7.54.73 1.06 1.46 1.59 2.19-.02 2.11.81 4.04 2.53 5.31-.5-2.36-.97-4.73-.85-7.15-.76-.47-1.52-.93-2.28-1.39-.18-3.73.13-7.47-.31-11.18-.31-2.92-2.26-5.26-3.31-7.92-1.48-5.74-1-11.68-1.27-17.54 1.26-.52 2.62-.98 3.17-2.37-3.1-.36-6.14-1.04-9.05-2.17 1.53-.29 3.07-.54 4.62-.76 5.52 3.7 12.86.84 17.17-3.5 3.05-1.17 6.19-2.08 9.41-2.67.13-1.84.84-4.3-1.2-5.39-1.7-1.71-4.14-.36-6.12-.05-2.84-2.15-6.01-4.09-9.68-4.2-.53-5.29-4.42-9.73-3.83-15.25 1.15-.5 3-.27 3.39-1.81 1.14-2.89 2.22-6.13 1.2-9.23-1.65-4.91-2.23-10.07-3.31-15.11-.77-2.8-1.38-6.16-4.21-7.65-1.85-1.41-4.17-.8-6.22-.33.53-4.83.07-10.18-3.47-13.87-2.45-1.91-5.47-3.05-7.62-5.36-2.12-2.37-5.07-3.64-8.05-4.55 1.09-7.64.5-15.97-3.64-22.67-3.11-4.39-8.88-4.7-13.75-4.25-4.72.34-8.74 4.2-9.72 8.75m2.54 127.37c-.01.58-.04 1.74-.05 2.32 1.48-.09 2.95-.28 4.39-.61-1.17-1.2-2.77-1.49-4.34-1.71m-6.46 49.82c3.62-.25 4.77-4.6 5.1-7.62-2.47 1.95-3.71 4.89-5.1 7.62z"/><path d="M75.38 23.46c4.37-5.06 13.36-5.36 18.14-.84 4.08 6.25 4.14 14.14 3.86 21.35.11 2.69-1.92 4.9-4.5 5.31-5.1 1.47-9.88-2.19-12.23-6.46.5-.64.98-1.3 1.46-1.96-3.25-.26-6.02-2-7.52-4.9 0-4.17-1.79-8.73.79-12.5z"/><path d="M77.81 41.63c2.42 2.8 3.41 6.9 6.91 8.68 2.7 1.72 5.99 1.71 9.04 1.15-.55 2.86-1.24 5.71-1.38 8.63 1.59-2.47 3.01-5.1 3.48-8.03.02-1.47 1.15-2.35 2.1-3.27.16-.5.5-1.51.66-2.02 2.84.56 5.91 1.27 7.57 3.89 2.04 3.49 6.8 4.14 8.36 7.99 1.39 2.86 1.27 6.17 2.1 9.2-1.69-1.9-4.65-1.1-6.25-3.02l.12 1.7c-2.03-.28-4.77-.87-4.9 1.96-8.67.61-17.22 2.17-25.83 3.3 1.23-3.78 2.61-7.69 1.23-11.68-.48.7-.95 1.41-1.4 2.13.31 2.07-.23 4.07-.94 5.99-3.06 1.12-5.54 3.34-7.33 6.02 2.52.28 4.11-1.8 5.87-3.15 2.61 3.72 4.4 8.18 4.46 12.77.53 3.93 2.42 8.29-.41 11.85-1.6-2.16-3.61-3.94-5.6-5.72-.53-2.61-1.32-5.21-3-7.32.8 2.89 1.28 5.86 1.59 8.85 2.7 1.82 4.59 4.86 7.91 5.66.04 1.8.48 3.55 1.43 5.08.35-2.91.18-5.86.55-8.78 2.92 4.6 4.51 10.13 3.71 15.58-.74 5.33 1.05 10.67 4.25 14.89 2.07 1.59 4.42 2.79 6.59 4.23.05 2.25.39 4.47.82 6.67-3.29 1.59-6.81 2.61-10.34 3.51-1.17-.68-2.36-1.34-3.57-1.95 3.27-.31 6.78-1.26 8.9-3.96-.39-.82-.86-1.59-1.4-2.32-.4.69-1.2 2.06-1.61 2.75-2.34 1.17-4.92 1.25-7.45.75l.92-3.03-2.26.14c1.22-2 2.69-3.86 4.66-5.17-.9-3.49-.74-8.77-4.72-10.15.44 3.54 4.05 7.89.62 10.89-2-4.39-3.53-8.98-5.48-13.39-1.1-3.77-1.96-7.62-3.68-11.17-1.82-3.32-1.09-7.42-3.14-10.63-2.09-3.51-4.53-7.06-4.95-11.23-.42-4.05-2.19-8.03-5.24-10.78.34 1.73.7 3.45 1.08 5.16-1.69.66-3.02-.23-4.24-1.11 1.28-2.82 1.42-5.94 2.15-8.9 3.95-6.48 8.73-12.99 16-15.94-.51 1.53-.96 3.09-1.36 4.66 3.93-2.49 3.45-7.32 3.4-11.36m.81 9.8c.14 3.11-.48 6.22.04 9.31.94-.78 1.85-1.6 2.79-2.4-.05-1.88-.09-3.77-.11-5.65 1.08 1.88 2.19 3.76 3.49 5.51-.03-2.11-1.08-3.91-2.19-5.63a92.13 92.13 0 01-4.02-1.14m19.33-.34c-.03 1.59-.03 3.18.02 4.77.92 1.15 1.69 2.41 2.17 3.81-1.02.02-2.04.03-3.07.03-1.67 1.36-4.25 2.64-3.94 5.2 2.49.45 3.74-2 5.19-3.5.63.14 1.91.42 2.55.56.36-1.29.68-2.59 1.18-3.83 1.47-1.52 3.66-2.36 4.33-4.54-2.42 0-4.36 1.39-6.04 2.98-.4-1.99-.76-4.09-2.39-5.48m-30.2 9.97c1.63.23 3.27.43 4.9.61-.05-.51-.16-1.55-.22-2.07-1.77-.18-3.54-.09-4.68 1.46m13.53-1.13c1.09 2.31 3.65 2.73 5.67 3.85 1.66 1.22 3.07 2.74 4.63 4.08-.61-5.05-5.81-7.38-10.3-7.93z"/><path d="M105.32 69.31c1.63-1.96 3.91-2.67 5.92-.82.84-.18 1.68-.34 2.53-.49 4.34 3.17 5.14 9.13 5.49 14.12.43 2.86-.98 5.54-1.8 8.2-1.86-1.1-3.55-5-6.14-3.3 2.86 2.05 5.49 4.41 7.78 7.09.24-1.73.48-3.47.73-5.2 3.53 2.36 4.48 6.59 5.76 10.35 1.21 5.33.33 11.13 3.29 16 1.73 4.16 6.71 4.66 9.57 7.7a168.7 168.7 0 00-3.71 3.38l2.22-.15-.6 3.24c-4.06 2.2-8.79 3.42-13.41 2.53 1.27-1.46 2.62-2.83 4.01-4.16-1.24-1.89-2.99-3.18-5.33-3.19.29-.9.6-1.8.91-2.69.7-.94 1.38-1.9 2.03-2.88-1.09.22-2.18.45-3.26.69-2.41-5.71-5-11.34-7.87-16.83-1.87-3.56-1.47-7.68-2.49-11.47-.92-4.93-3.56-9.42-3.78-14.49-.11-2.65-.88-5.19-1.85-7.63m16.71 42.19c.6 2.15 1.32 4.26 2 6.38.48-.07 1.45-.21 1.93-.29-.81-2.26-.85-5.8-3.93-6.09z"/><path d="M118.03 69.35c2.17.28 4.96.05 6.2 2.29 3.2 6.01 4.4 12.79 5.82 19.37 1.01 3.28-.55 6.58-1.91 9.5-1.18-3.52-1.11-7.78-4.05-10.46-2.86-2.56-2.94-6.64-3.26-10.18-.24-3.66-1.49-7.13-2.8-10.52zM82.04 73.52c7.32-.83 14.62-1.8 21.94-2.62.33 5.35 1.23 10.68 3.72 15.49.57 6.21.76 12.77 3.93 18.34-6.26-.05-12.35 2.13-18.33 3.72-.4.5-1.18 1.5-1.58 2 3.16-.49 6.28-1.23 9.27-2.37-2.18 2.49-4.68 4.91-5.84 8.07-.35 2.52-.3 5.08-.49 7.61-6.04-4.76-3.71-13.07-4.15-19.66-1.16-4.29-2.22-8.91-5.3-12.29.22-6.26-1.59-12.31-3.17-18.29z"/><path d="M102.75 107.57c3.41-.23 6.69-1.26 10.05-1.88.4.94.77 1.88 1.13 2.83-2.44-.57-4.96-.66-7.45-.65 2.7 1.63 6.02 2.08 8.51 4.03 1.51 2.15 2.69 4.53 3.65 6.97.52 2.63-.02 5.36.39 8.02-3.84 1.01-7.77 1.59-11.7 2.17.24.18.71.54.94.73 5.59-.21 11.01-1.91 16.52-2.84-1.93 4.25-6.89 4.05-10.79 4.84-3.03.34-5.91 1.31-8.86 1.97-2.2.39-3.86-1.34-5.09-2.9 2.01.08 4.03.19 6.04.33-.08-.34-.23-1.02-.31-1.36-1.55-.31-3.07-.7-4.59-1.14-1.18-1.76-3.04-2.81-4.73-4 1.21-3.99.3-8.74 3.24-12.05 1.69-2.59 4.69-3.73 7.58-4.37-1.13-.17-3.4-.52-4.53-.7zM42.42 116c1.49-3.25 5.4-4.63 8.72-4.94 1.65 3.12 3.21 6.37 5.61 9 .13 3.64.75 7.23 1.7 10.74-1.2.66-2.4 1.31-3.6 1.98-2.93-2.65-5.37-5.82-8.73-7.97-2.91-1.84-4.17-5.5-3.7-8.81zM140.39 126.49c-1.65-3.5 2.54-3.4 4.78-3.86 1.08.44 1.37 1.6 1.83 2.54-2.84.83-5.69 1.65-8.52 2.5-.03-.31-.1-.94-.13-1.26l2.04.08zM77.29 135.63c2.15-.23 4.3-.41 6.46-.54.01.77.02 2.33.03 3.11-2.03.24-4.07.37-6.11.49-.13-1.02-.26-2.04-.38-3.06zM84.14 143.48c-1.63.26-2.5-4.69-.26-3.28.65 1.06.73 2.15.26 3.28zM134.3 212.05c-.06-2.59 2.53-3.92 3.99-5.68 1.22.85 2.46 1.71 3.71 2.53 1.93 3.57 3.4 7.94 1.64 11.88-.79 2.68-4.53 4.32-6.7 2.21-3.18-2.63-2.8-7.23-2.64-10.94z"/></g><g fill="#333"><path d="M72.21 25.99c.98-4.55 5-8.41 9.72-8.75 4.87-.45 10.64-.14 13.75 4.25 4.14 6.7 4.73 15.03 3.64 22.67 2.98.91 5.93 2.18 8.05 4.55 2.15 2.31 5.17 3.45 7.62 5.36 3.54 3.69 4 9.04 3.47 13.87 2.05-.47 4.37-1.08 6.22.33 2.83 1.49 3.44 4.85 4.21 7.65 1.08 5.04 1.66 10.2 3.31 15.11 1.02 3.1-.06 6.34-1.2 9.23-.39 1.54-2.24 1.31-3.39 1.81-.59 5.52 3.3 9.96 3.83 15.25 3.67.11 6.84 2.05 9.68 4.2 1.98-.31 4.42-1.66 6.12.05 2.04 1.09 1.33 3.55 1.2 5.39-3.22.59-6.36 1.5-9.41 2.67-4.31 4.34-11.65 7.2-17.17 3.5-1.55.22-3.09.47-4.62.76 2.91 1.13 5.95 1.81 9.05 2.17-.55 1.39-1.91 1.85-3.17 2.37.27 5.86-.21 11.8 1.27 17.54 1.05 2.66 3 5 3.31 7.92.44 3.71.13 7.45.31 11.18.76.46 1.52.92 2.28 1.39-.12 2.42.35 4.79.85 7.15-1.72-1.27-2.55-3.2-2.53-5.31-.53-.73-1.05-1.46-1.59-2.19-.48 4.21-1.25 8.85 1.03 12.7 4.06.54 8.45-1.25 12.26.84 2.69 1.5 5.81 1.62 8.8 1.99 2.59.42 4.6-1.7 6.79-2.71-1.91-3.79-6.82-2.34-9.46-5.23-3.47-3.27-6.19-7.29-10.02-10.2-2.91-8.65-.43-17.84-2.66-26.57-.61-3.67.51-7.37-.03-11.06.48-.19 1.46-.57 1.95-.76.54 4.44-.37 8.97.7 13.36 1.92 7.97-.86 16.49 2.11 24.27 3.55 2.77 6.21 6.46 9.62 9.39 1.75 1.6 4.24 1.51 6.37 2.23 1.37.95 2.43 2.32 3.23 3.78-.68 3.57-4.8 4.49-7.71 5.6-2.31-.09-4.6-.51-6.92-.4-2.01-.99-3.98-2.1-6.08-2.9-2.93-.47-5.88.23-8.81.34 1.8 6.11 3.48 12.25 4.97 18.45.8-1.21 1.61-2.41 2.42-3.62.66-.09 1.97-.28 2.63-.38.92-.35 2.76-1.07 3.67-1.43l-.7 1.51c5.13 3.85 6.38 11.08 4.26 16.89 2.11-2.93 3.89-6.54 2.61-10.21-.39-3.47-3.02-5.86-5.53-7.97 2.17-.23 4.39.21 5.53 2.26 3.11 5.04 3.76 12.74-1.05 16.98 7.56 3.02 15.15 5.99 22.68 9.11-.73 1.08-1.75 1.53-2.94.85-7.59-2.83-14.97-6.26-22.68-8.82l.76-1.02c-1.87 1.91-4.17 3.3-6.94 3.22-1.84-1.71-4.11-3.24-4.93-5.73-1.71-4-.53-8.48-1.91-12.54-1.6-5.41-2.93-10.88-4.47-16.3-.38-1.62-1.56-2.84-2.54-4.11-.23-2.78-.13-5.61-.8-8.34-3.22-11.87-6.49-23.73-9.64-35.62-.59-1.82-.84-3.91-2.28-5.3 1.07.04 2.13.07 3.2.09 2.73 13.31 7.22 26.21 10.19 39.47 1.17-3.96 2.39-8.12 1.27-12.25-.67-4.71-3.8-8.5-5.13-12.97-.5-5.04.61-10.01 1.89-14.85-1.93-1.32-4.16-2.16-5.92-3.73-1.16 0-2.32.01-3.47.11.13.77.39 2.31.52 3.09-.71-.15-2.14-.43-2.85-.58l1.16-1.39c-7.27-.2-14.17 2.8-21.14 4.49-2.11.54-4.69-1.09-6.33.83.91.45 2.73 1.36 3.64 1.82.27-.57.82-1.69 1.09-2.26.42 10.33-.42 20.66-.28 31-.48.83-.97 1.66-1.47 2.49-.69-10.23.63-20.48-.11-30.7l-1.8.16c-1.26 6.41-4.57 12.2-5.71 18.63-.29 3.99.56 8.01.04 12.01-.67 3.68-2.76 6.99-3 10.78-.29 3.74-.54 7.53.02 11.27.45 4.89 3.82 8.71 6.13 12.84 2.05 3.44 6.61 6.06 6.2 10.51-.13 2.15-2.63 2.22-4.23 2.51-4.33 3.39-11.21 2.73-15.04-1.17-2.5-2.03-1.61-5.68-3.09-8.28-1.76-3.37-1.48-7.25-2.57-10.82.13-3.6.97-7.2.5-10.81-.73-5.72-3.16-11.14-3.55-16.92.63-5.19 2.69-10.08 4.28-15.03.36-3.37.53-6.77.83-10.15-.29-3.41-1.75-6.58-3.35-9.56-1.58-.41-3.55-.54-4.38-2.2-.18-1.41.04-2.82.07-4.23-.9.51-1.79 1.02-2.68 1.53l-3.23-.2c-2.65-3.15-5.49-6.16-8.92-8.48-3.43-2.44-3.89-6.99-3.3-10.84 1.18-3.33 4.77-4.51 7.99-4.64.5-.32 1.5-.97 1.99-1.29.05-2.31-.05-4.64.25-6.94.75-2.28 1.84-4.48 1.92-6.94.63.76 1.26 1.52 1.89 2.29-1.79 4.62-1.89 9.58-1.35 14.45 1.88 2.65 3.83 5.29 5.44 8.12.33 3.46.25 7.02 1.75 10.24 1.78-2.97 3.58-6.5 7.43-6.99 3.61-.66 9.38-1.56 11.17 2.48-4.06.09-8.31-1.16-12.25.2-2.54 1.53-3.86 4.39-5.45 6.78 4.64 5.63 8.09 12.96 6.39 20.38-.02 4.87 2.16 9.46 3.24 14.16-.23.39-.68 1.18-.9 1.58-1.1-2.63-2.11-5.3-3.43-7.82-1.62 4.5-3.42 9.1-3.44 13.96.56 6.83 3.66 13.22 3.84 20.12-.03 2.37-.86 4.63-1.01 6.99.97 4.81 3.45 9.14 4.52 13.91.26 6.25 9.09 7.83 13.09 3.99-3.13-2.62-7.44-.22-11.12-1.38.21-.45.64-1.37.85-1.83 2.48.5 4.97.32 7.43-.16 1.96-.68 2.68 1.68 3.82 2.73.82 1.5 2.51-.1 3.61-.26-2.06-3.33-4.8-6.14-7.1-9.28-2.21-4.2-5.43-8.04-6.22-12.85-1.04-4.46-.97-9.1-.27-13.6.57-2.9 2.12-5.49 2.79-8.36.66-3.05.34-6.21.12-9.3-3.03 4.07-1.71 9.42-3.8 13.83-2.11-4.91-.17-10.61 2.41-14.99 2.19-3.35 2.54-7.45 4.16-11.05 1.87-3.66.74-7.85.62-11.75-1.65-.25-3.3-.52-4.86-1.11-1.36 1.14-2.79 2.29-4.63 2.48 1.03-1.49 2.31-2.77 3.58-4.05-1.83-3.22 1.82-5.72 4.74-5.62 1.63-4.74-.36-9.53-1.47-14.13-.56-1.82-1.66-3.39-2.62-5-3.4 1.28-7.84 2.48-10.87-.22-3.76-2.76-4.9-7.44-7.01-11.35-1.57-2.77-2.05-5.96-3.17-8.91l-1.43 1.7c.19-2.29-.38-5.4 2.17-6.61 2.45 8.3 6.14 16.19 10.21 23.8 3.08.25 6.17.26 9.25.05-.96-4.36-2.22-8.65-4.04-12.73-1.35-2.97-.88-6.49-2.7-9.3-3.01-5.1-2.96-11.32-5.88-16.49-2.88 2.26-7.51 3.75-7.66 8.06-.29 2.63 1.84 6.03-.89 7.89-1.2-4.84-2.44-11.28 2.6-14.44-.16-.63-.47-1.89-.62-2.52 1.19-3.87.98-8.26 3.43-11.65 2.43-3.58 4.42-7.57 7.82-10.36 2.45-2.41 5.85-3.29 8.94-4.54.41-4.04-2.9-6.96-3.31-10.81-.31-3.24-1.47-6.56-.54-9.8m3.17-2.53c-2.58 3.77-.79 8.33-.79 12.5 1.5 2.9 4.27 4.64 7.52 4.9-.48.66-.96 1.32-1.46 1.96 2.35 4.27 7.13 7.93 12.23 6.46 2.58-.41 4.61-2.62 4.5-5.31.28-7.21.22-15.1-3.86-21.35-4.78-4.52-13.77-4.22-18.14.84m2.43 18.17c.05 4.04.53 8.87-3.4 11.36.4-1.57.85-3.13 1.36-4.66-7.27 2.95-12.05 9.46-16 15.94-.73 2.96-.87 6.08-2.15 8.9 1.22.88 2.55 1.77 4.24 1.11-.38-1.71-.74-3.43-1.08-5.16 3.05 2.75 4.82 6.73 5.24 10.78.42 4.17 2.86 7.72 4.95 11.23 2.05 3.21 1.32 7.31 3.14 10.63 1.72 3.55 2.58 7.4 3.68 11.17 1.95 4.41 3.48 9 5.48 13.39 3.43-3-.18-7.35-.62-10.89 3.98 1.38 3.82 6.66 4.72 10.15-1.97 1.31-3.44 3.17-4.66 5.17l2.26-.14-.92 3.03c2.53.5 5.11.42 7.45-.75.41-.69 1.21-2.06 1.61-2.75.54.73 1.01 1.5 1.4 2.32-2.12 2.7-5.63 3.65-8.9 3.96 1.21.61 2.4 1.27 3.57 1.95 3.53-.9 7.05-1.92 10.34-3.51-.43-2.2-.77-4.42-.82-6.67-2.17-1.44-4.52-2.64-6.59-4.23-3.2-4.22-4.99-9.56-4.25-14.89.8-5.45-.79-10.98-3.71-15.58-.37 2.92-.2 5.87-.55 8.78-.95-1.53-1.39-3.28-1.43-5.08-3.32-.8-5.21-3.84-7.91-5.66-.31-2.99-.79-5.96-1.59-8.85 1.68 2.11 2.47 4.71 3 7.32 1.99 1.78 4 3.56 5.6 5.72 2.83-3.56.94-7.92.41-11.85-.06-4.59-1.85-9.05-4.46-12.77-1.76 1.35-3.35 3.43-5.87 3.15 1.79-2.68 4.27-4.9 7.33-6.02.71-1.92 1.25-3.92.94-5.99.45-.72.92-1.43 1.4-2.13 1.38 3.99 0 7.9-1.23 11.68 8.61-1.13 17.16-2.69 25.83-3.3.13-2.83 2.87-2.24 4.9-1.96l-.12-1.7c1.6 1.92 4.56 1.12 6.25 3.02-.83-3.03-.71-6.34-2.1-9.2-1.56-3.85-6.32-4.5-8.36-7.99-1.66-2.62-4.73-3.33-7.57-3.89-.16.51-.5 1.52-.66 2.02-.95.92-2.08 1.8-2.1 3.27-.47 2.93-1.89 5.56-3.48 8.03.14-2.92.83-5.77 1.38-8.63-3.05.56-6.34.57-9.04-1.15-3.5-1.78-4.49-5.88-6.91-8.68m27.51 27.68c.97 2.44 1.74 4.98 1.85 7.63.22 5.07 2.86 9.56 3.78 14.49 1.02 3.79.62 7.91 2.49 11.47 2.87 5.49 5.46 11.12 7.87 16.83 1.08-.24 2.17-.47 3.26-.69-.65.98-1.33 1.94-2.03 2.88-.31.89-.62 1.79-.91 2.69 2.34.01 4.09 1.3 5.33 3.19-1.39 1.33-2.74 2.7-4.01 4.16 4.62.89 9.35-.33 13.41-2.53l.6-3.24-2.22.15a168.7 168.7 0 013.71-3.38c-2.86-3.04-7.84-3.54-9.57-7.7-2.96-4.87-2.08-10.67-3.29-16-1.28-3.76-2.23-7.99-5.76-10.35-.25 1.73-.49 3.47-.73 5.2-2.29-2.68-4.92-5.04-7.78-7.09 2.59-1.7 4.28 2.2 6.14 3.3.82-2.66 2.23-5.34 1.8-8.2-.35-4.99-1.15-10.95-5.49-14.12-.85.15-1.69.31-2.53.49-2.01-1.85-4.29-1.14-5.92.82m12.71.04c1.31 3.39 2.56 6.86 2.8 10.52.32 3.54.4 7.62 3.26 10.18 2.94 2.68 2.87 6.94 4.05 10.46 1.36-2.92 2.92-6.22 1.91-9.5-1.42-6.58-2.62-13.36-5.82-19.37-1.24-2.24-4.03-2.01-6.2-2.29m-35.99 4.17c1.58 5.98 3.39 12.03 3.17 18.29 3.08 3.38 4.14 8 5.3 12.29.44 6.59-1.89 14.9 4.15 19.66.19-2.53.14-5.09.49-7.61 1.16-3.16 3.66-5.58 5.84-8.07-2.99 1.14-6.11 1.88-9.27 2.37.4-.5 1.18-1.5 1.58-2 5.98-1.59 12.07-3.77 18.33-3.72-3.17-5.57-3.36-12.13-3.93-18.34-2.49-4.81-3.39-10.14-3.72-15.49-7.32.82-14.62 1.79-21.94 2.62m20.71 34.05c1.13.18 3.4.53 4.53.7-2.89.64-5.89 1.78-7.58 4.37-2.94 3.31-2.03 8.06-3.24 12.05 1.69 1.19 3.55 2.24 4.73 4 1.52.44 3.04.83 4.59 1.14.08.34.23 1.02.31 1.36-2.01-.14-4.03-.25-6.04-.33 1.23 1.56 2.89 3.29 5.09 2.9 2.95-.66 5.83-1.63 8.86-1.97 3.9-.79 8.86-.59 10.79-4.84-5.51.93-10.93 2.63-16.52 2.84-.23-.19-.7-.55-.94-.73 3.93-.58 7.86-1.16 11.7-2.17-.41-2.66.13-5.39-.39-8.02-.96-2.44-2.14-4.82-3.65-6.97-2.49-1.95-5.81-2.4-8.51-4.03 2.49-.01 5.01.08 7.45.65-.36-.95-.73-1.89-1.13-2.83-3.36.62-6.64 1.65-10.05 1.88M42.42 116c-.47 3.31.79 6.97 3.7 8.81 3.36 2.15 5.8 5.32 8.73 7.97 1.2-.67 2.4-1.32 3.6-1.98-.95-3.51-1.57-7.1-1.7-10.74-2.4-2.63-3.96-5.88-5.61-9-3.32.31-7.23 1.69-8.72 4.94m97.97 10.49l-2.04-.08c.03.32.1.95.13 1.26 2.83-.85 5.68-1.67 8.52-2.5-.46-.94-.75-2.1-1.83-2.54-2.24.46-6.43.36-4.78 3.86m-63.1 9.14c.12 1.02.25 2.04.38 3.06 2.04-.12 4.08-.25 6.11-.49-.01-.78-.02-2.34-.03-3.11-2.16.13-4.31.31-6.46.54m6.85 7.85c.47-1.13.39-2.22-.26-3.28-2.24-1.41-1.37 3.54.26 3.28m50.16 68.57c-.16 3.71-.54 8.31 2.64 10.94 2.17 2.11 5.91.47 6.7-2.21 1.76-3.94.29-8.31-1.64-11.88-1.25-.82-2.49-1.68-3.71-2.53-1.46 1.76-4.05 3.09-3.99 5.68z"/><path d="M78.62 51.43c1.33.41 2.67.79 4.02 1.14 1.11 1.72 2.16 3.52 2.19 5.63-1.3-1.75-2.41-3.63-3.49-5.51.02 1.88.06 3.77.11 5.65-.94.8-1.85 1.62-2.79 2.4-.52-3.09.1-6.2-.04-9.31zM97.95 51.09c1.63 1.39 1.99 3.49 2.39 5.48 1.68-1.59 3.62-2.98 6.04-2.98-.67 2.18-2.86 3.02-4.33 4.54-.5 1.24-.82 2.54-1.18 3.83-.64-.14-1.92-.42-2.55-.56-1.45 1.5-2.7 3.95-5.19 3.5-.31-2.56 2.27-3.84 3.94-5.2 1.03 0 2.05-.01 3.07-.03-.48-1.4-1.25-2.66-2.17-3.81-.05-1.59-.05-3.18-.02-4.77zM67.75 61.06c1.14-1.55 2.91-1.64 4.68-1.46.06.52.17 1.56.22 2.07-1.63-.18-3.27-.38-4.9-.61zM81.28 59.93c4.49.55 9.69 2.88 10.3 7.93-1.56-1.34-2.97-2.86-4.63-4.08-2.02-1.12-4.58-1.54-5.67-3.85zM122.03 111.5c3.08.29 3.12 3.83 3.93 6.09-.48.08-1.45.22-1.93.29-.68-2.12-1.4-4.23-2-6.38zM74.75 153.36c1.57.22 3.17.51 4.34 1.71-1.44.33-2.91.52-4.39.61.01-.58.04-1.74.05-2.32zM68.29 203.18c1.39-2.73 2.63-5.67 5.1-7.62-.33 3.02-1.48 7.37-5.1 7.62z"/></g></svg>