<svg width="221pt" height="275pt" viewBox="0 0 221 275" xmlns="http://www.w3.org/2000/svg"><g fill="#FFF"><path d="M0 0h221v275H0V0m85.8 31.91c-3.27 4.4-1.25 10.01-.8 14.95 1.56 1.84 3.33 3.48 5.23 4.96 1.69 1.93 2.18 5.01 4.74 6.14 2.87 1.73 6.17 2.43 9.47 2.68l.04-1.82c-3.1-.75-6.2-1.64-9.04-3.11-1.94-1.29-2.65-3.59-3.55-5.61-1.71-1.05-3.4-2.15-5.08-3.26.38-1.64.83-3.27 1.26-4.91-.6.12-1.8.37-2.39.49-.5-3.98.19-8.74 3.87-11.07 3.57-2.89 8.32-2.85 12.66-2.72 2.06 1.83 4.75 3.57 5.07 6.57.84 4.48 2.39 8.98 1.45 13.58-.24 3.02-1.7 5.93-1.55 8.94.28.05.82.16 1.1.22 1.17-3.47 1.48-7.16 2.07-10.76.77-4.24-1.28-8.23-1.7-12.38-.34-4.22-4.42-7.53-8.56-7.52-5.07-.55-11.1.14-14.29 4.63m1.79 19.23c-.26 3.41.88 8.74-3.13 10.35-2.91.92-5.34 2.75-7.92 4.32.18.26.55.78.73 1.04-3.27 3.25-7.12 5.81-10.6 8.81-3.24 3.54-2.84 8.7-2.36 13.12-1.76 4.89-2.69 10.06-2.8 15.26-.17 5.3 4.92 9.51 3.58 14.91-1.46 6.64-1.75 13.71.39 20.24-2.24 1.07-4.31 2.59-5.55 4.8-3.44 5.79-4.75 13.16-2.38 19.6.97 2.92 2.76 5.77 5.6 7.18 1.94.86 5.3 1.01 5.39-1.85-2.4.39-5.21.55-6.94-1.5-4.44-5.13-4.19-12.82-2.15-18.91 1.02-3.49 3.74-5.98 6.44-8.22 1.89 5.12-.6 10.64 1.53 15.66 1.01 2.93.75 6.11 1.57 9.07 1.76 3.54 6.21 3.42 9.53 4.17-.6-3.58-5.02-2.9-7.67-4-.41-2.06-.65-4.15-.91-6.24-.39-3.07-2.25-5.88-1.69-9.06.97-6.84-2.73-13.15-2.74-19.92-.42-6.08 1.49-11.93 2.29-17.89-.44.36-1.32 1.09-1.76 1.46-.98-4.19-3.76-8.16-2.75-12.62.49-2.58.75-5.2 1.08-7.8.2-1.97 2.13-.14 2.54.76-.19-4.95-2.36-10.21-.19-14.96 2.69-3.8 6.87-6.26 11.12-7.99-.06-.52-.18-1.54-.23-2.05 2.31-3.56 6.32-5.27 9.8-7.4 1.71-3.04 1.16-6.85 1.57-10.22l-1.39-.12m3.45 6.79c1.2 2.78 2.38 5.57 3.6 8.35 2.2-3.09-1.62-6.24-3.6-8.35m15.05 1.1l-.81.07c1.03 5.27 7.83 4.66 11.59 7.02 3.07 2.52 7.57.67 10.56 3.51 6.06 3.59 2.99 11.27 4.22 16.88 1.65 3.67 3.5 7.29 3.82 11.39-2.38-3.84-6.5-5.47-10.7-6.47.45-4.04 1.57-10.03-3.13-12.03-4-2.4-8.5.17-11.92 2.39-.66-1.24-1.38-2.44-2.21-3.56 1.31-3.05-.26-6.22.2-9.28 2.43-1.1 4.5 1.75 6.74 2.42.75-1.7 1.57-3.37 2.37-5.04-1.33.42-2.65.85-3.97 1.29-2.8-.13-6.33 2.2-8.28-.85.87-.05 2.6-.16 3.47-.21-1.34-1.63-2.91-1.23-4.39-.34-6.33-2.45-12.31 2.82-15.87 7.55-3.31 3.93-3.81 9.22-3.36 14.15 1.43 1.12 2.8 2.32 4.06 3.63 2.18.49 4.4.81 6.61 1.1.58-.89 1.74-2.67 2.31-3.57-2.01.55-4.01 1.14-6.04 1.63-1.52-.47-3.04-.9-4.57-1.33-1.82-5.78-.36-12.39 4.04-16.63 2.99-3.24 7.61-6.43 12.16-4.44 3.27 1.51 2.73 5.58 2.9 8.55-1.23-.86-2.44-1.75-3.76-2.48-3.62 2.22-7.69 5.17-8.56 9.6.87 1.9 2.8 3.14 4.13 4.73.76-.59 1.52-1.19 2.28-1.8-1.28-1.15-2.74-2.04-4.12-3.05.15-1.09.34-2.17.56-3.25 1.86-1.14 3.72-2.28 5.63-3.33 2.12 2.44 4.94 4.06 7.38 6.16-1.17-.12-2.33-.22-3.49-.3-1.35 1.46 1.18 2.16 1.88 3.08 2.76-3.09 6.58-6.18 10.99-5.66 3.81.51 5.64 4.93 4.7 8.34-.85 5.65-4.91 10.2-9.41 13.41-2.36 1.75-5.43 1.6-8.19 1.19-.74-.7-1.49-1.39-2.26-2.06-1.33-4.15.07-8.31 1.49-12.22-3.14 1-3.28 4.9-4.38 7.53.45 1.91.75 3.84 1.01 5.79-2.01-.84-3.72-2.17-5.52-3.36.14 3.3 3.29 4.2 5.98 4.84l.37-1.68c2.61 3.24 7.26 4.35 10.84 1.96.58.92 1.72 2.76 2.29 3.68-2.28-1.33-3.99 1.09-6.19.79-3.41-.48-6.42 2.2-9.75.35 1.15 1.16 2.16 2.81 4 2.83 3.58-1.97 7.89-1.25 11.26-3.8 2.17.81 4.27 2.09 5.3 4.26-.54.1-1.64.28-2.18.37 2.53 1.28 2.04 4.85 1.75 7.19-3.14 2.28-7.09 2.68-10.77 3.5-4.07 1.3-8.06-.91-12.15-.82-3.44.12-7.44-.71-9.61-3.54-.43-4.95.02-10.2-3.09-14.47 2.53-1.06 5.36-.53 8.03-.7-.8-.87-1.59-1.75-2.38-2.63-.95.54-1.91 1.08-2.86 1.62-1.01-.6-2.01-1.2-3.02-1.8l.6 1.59c-.66.15-1.97.47-2.62.63 1.28 4.59 4.65 8.61 3.72 13.66.89 3.99-1.81 7.12-3.88 10.2 1.7-.97 2.87-2.94 4.97-3.05.07-.63.19-1.88.25-2.5 1.96.97 3.8 2.29 5.94 2.85 2.99.51 6.08.37 9.03 1.17 6.05 1.65 11.95-1.2 17.7-2.72 1.06 1.1 2.14 2.2 3.23 3.27.39 2.66-.15 5.3-1 7.82 2.2 4.82 4.66 9.68 5.21 15.04.18 1.81 1.49 3.16 2.5 4.57-4.35 1.48-7.14 5.64-11.66 6.78-3.76 1.44-7.49-.97-11.27-1.01.82-3.4 4.28-3.93 7.16-4.58 2.22-1.98 3.22-5.1 3.7-7.98-2.02 1.68-3.09 4.11-4.47 6.27-2.35.92-4.87 1.35-7.26 2.16-.39 2.47-.65 4.96-1.05 7.42-1.96 1.04-3.97 1.97-5.97 2.91.9-5.98.69-12.73-3.12-17.72-1.55-2.26-4.54-2.36-6.89-3.23-5.29 1.77-8.22 7.22-9.43 12.34-1.13 5.92-.97 12.68 2.77 17.71 1.79 2.22 4.87 4.39 7.8 2.95 4.65-1.91 7.27-6.54 8.62-11.15 1.48.03 2.97.08 4.45.14-.55 3.43-1.08 6.89-2.13 10.21-.93 2.91-3.19 5.19-4.07 8.13-.84 3.07-2.36 5.92-3.07 9.04-1.15 5.29-5.08 9.5-5.81 14.94-.21 2.51-1.35 5.72.85 7.66 1.22-5.14.38-10.95 4-15.28.11 2.56.18 5.12.1 7.68.01 3.96-2.57 7.28-3.3 11.08-1.23 6.81-.88 14.1 1.91 20.49 2.05 3.24 3.85 6.63 5.8 9.92 2.46 2.58 4.7 5.39 6.38 8.55-1.19.36-2.37.76-3.55 1.18-.86-1.48-1.75-2.96-3.02-4.12-3.15 1.12-6.5.63-9.74 1.02-.17.43-.52 1.27-.69 1.7.95-.19 1.9-.37 2.85-.55 2.42 1.22 5.02.3 7.49-.24l1.4 2.56c-4.21 3.06-10.46 1.86-13.39-2.39-.47-6.03-3.84-11.3-5.05-17.17.15-3.75 1.61-7.45.64-11.22-.7-7.34-4.73-14.25-3.49-21.75.81-3.97 2.05-7.86 3.82-11.5 1.71 2.57 1.29 6.9 4.48 8.26-1.62-5.16-3.07-10.39-3.77-15.76.14-4.31 2.21-8.32 2.12-12.65l-1.71 1.55c-1.58 5.36-1.98 10.98-2.43 16.53-2.03 6.93-5.77 14.04-3.79 21.44 1.83 7.86 4.82 16.13 2.09 24.17.54 1.66 1.09 3.3 1.63 4.96-1.12 3.97 2.37 7.1 2.56 10.94.06 2.31.92 4.61 3.05 5.76 3.54 3.07 8.51 2.64 12.83 2.15.63-.6 1.26-1.19 1.9-1.77 1.76-.15 4.04-.19 4.67-2.22.63-3.16-1.8-5.66-3.56-7.94-3.57-3.16-4.75-7.99-7.78-11.56-2.87-6.49-2.4-13.74-1.21-20.56.59-3.02 2.32-5.7 2.74-8.76.7-5.66-1.07-11.51.89-17.03 1.6-4.46 2.39-9.31 5.17-13.24 2.83-4.48 3.31-9.95 3.41-15.11.92-.91 1.84-1.83 2.75-2.74 1.31 3.21 3.33 6.05 5.16 8.97 1.84 2.91.73 6.64 2.17 9.7 1.62 3.45 3.09 6.97 4.83 10.37 2.61-2.93-.19-6.19-1.34-9.04-1.83-3.45-.5-7.78-2.86-11.03-2.25-3.43-3.87-7.8-7.93-9.49l.22-2.48c1.91.89 3.67 2.24 5.76 2.66 5.63.39 10.83-2.53 15.07-5.97.29 4.29.49 8.58.82 12.87-.51.01-1.54.02-2.06.02-.73 2.28-1.06 4.96-2.95 6.64-3.02-.03-4.04-3.33-5.52-5.41.61 2.5 1.04 5.72 3.63 6.96 3.32.27 4.72-3.38 6.42-5.58 2.24 3.63 1.38 7.8.45 11.67-.01 4.39-1.18 8.81.04 13.13 1.05 4.61 1.04 9.37.73 14.06-.29 4.1.89 8.08 1.61 12.07 3.13 2.72 6.06 5.67 8.56 8.99 2.38 3.13 6.19 4.79 10.04 5.07.77.91 1.52 1.84 2.26 2.78-1.7.99-3.35 2.05-5.12 2.91-2.05.16-4.09-.21-6.13-.36-3.3.08-5.77-2.84-9.06-2.79-3.31-.11-6.62.31-9.93.26-.65-.63-1.3-1.26-1.95-1.88.54-4.31.14-8.93 2.13-12.91-.1-4.13.19-8.28-.23-12.39-.4-3.59-3.5-6.22-3.77-9.83-.48-4.2-1.71-8.44-.65-12.66-.46-.82-.93-1.62-1.41-2.42-.9 4.43-1.36 8.96-1.22 13.49 1.07 4.84 4.97 8.64 5.4 13.71 2.12 8.13-3.63 15.79-1.95 23.9 2.46 3.38 7.09 2.85 10.7 2.18 4.06-.79 7.06 3.14 10.98 3.1 2-.03 3.95.81 5.93.52 3.19-1.25 7-2.16 8.44-5.67a72.29 72.29 0 00-2.53-2.98c-1.58-2.04-4.55-1.15-6.59-2.43-4.24-2.31-6.31-6.98-10.19-9.73-2-1.31-2.35-3.88-2.84-6.03-.86-8.27.35-16.72-1.75-24.86.07-4.51-.4-9.13.99-13.5 1.12-3.35-1.67-6.3-1.39-9.63.11-4.53-.03-9.07-.84-13.54 1.69-.64 2.71-1.95 2.63-3.79-1.06-1.05-2.62-1.95-2.63-3.64-.51-5.68-3.75-10.54-5.1-15.97.7-2.62 1.29-5.27.91-8-4.96-3.04-2.44-9.63-4.99-14.1 3.66.96 7.23 2.56 11.03 2.85 2.67.29 4.9-2.21 4.92-4.76.76-5.81 2.45-11.88.31-17.61-1.06-3.17-3.83-5.84-3.53-9.38-.36-3.72.75-8.51-2.7-11.08-2.9-2.44-5.39-6.7-9.78-5.65-2.93-1.7-6.22-2.53-9.39-3.65-1.8-.49-2.92-2.3-4.79-2.64M80.08 82.99c-.81 1.02.06 2 .48 2.95 1.97-3.06 3.42-6.46 4.34-9.98-.24-.17-.73-.51-.97-.68-1.94 2.15-2.63 5.13-3.85 7.71m18.73 8.72l2.49 1.07c.61-1.53 1.25-3.04 1.9-4.55 1.01.4 2.02.8 3.03 1.19.74-1.76.31-3.03-1.28-3.83-2.93.97-5 3.33-6.14 6.12m-26.4.37c-.02.77-.08 2.32-.1 3.1 1.6-1.42 3.82-2.48 4.47-4.67a87.61 87.61 0 00-4.37 1.57m5.64 1.08c.91 2.14 2.45 4.26 1.7 6.73-1.06 4.55.75 9.41-1.14 13.8-1.17 2.8-3.04 5.49-2.72 8.69l1.8-3.2c2.54 4.16 2.34 9.23 2.16 13.91-.55 3.35-2.49 6.49-1.85 9.99.57 2.75.76 6.27 3.5 7.81-.81-4.33-2.71-8.85-1-13.23 2.41-6.74.51-13.91-1.33-20.5 1.52-3.34 1.49-7.22 3.3-10.4-.37-.46-1.09-1.38-1.45-1.84.65-4.35 1.43-9.12-1.34-12.96-.41.3-1.22.9-1.63 1.2m6.12 1.46c-.07.81-.19 2.44-.25 3.26 2.77 1.95 5.93 2.23 9.08 1.06-.28-.47-.85-1.41-1.13-1.88-1.79.75-3.68.95-5.58.58-.73-.99-1.44-2-2.12-3.02m-19.7 6.06c.42 2.31.77 4.64.94 7l1.66.05c.51-2.58.34-6.05-2.6-7.05m29.94 5.46c1.32 3.11 5.51 2.36 6.51-.59-2.17.19-4.34.39-6.51.59m-5.3.98c-.6 3.83 4.32 5.64 7.38 4.7-2.17-1.97-4.89-3.19-7.38-4.7m12.03 5.72c-.36 1.6.26 2.26 1.86 1.97.34-1.64-.28-2.3-1.86-1.97m10.87 5.27c1.44-1.12 2.46-2.64 3.11-4.34-1.93.66-3.39 2.17-3.11 4.34m-11.22-2.61c-.03 3.35 3.11 7.9 6.88 6.81-2.36-2.2-4.78-4.34-6.88-6.81M87.3 131.31c.03.74.07 2.22.09 2.96 2.53-1.44 2.58-4.73 3.93-7.05 1.84.73 3.69 1.43 5.48 2.28-1.36 2.08-2.57 4.64-5.02 5.61-1.93.92-4.59 1.29-5.19 3.72 4.77-1.38 10.53-3.29 11.5-8.94 6.08.95 12.37.54 18.16-1.6 1.82-.37 3.1-1.72 4.16-3.17-5.33 1.75-10.79 3.49-16.47 3.35-4.61.13-8.97-1.54-13.32-2.85-1.05 1.92-2.18 3.81-3.32 5.69m-4.83-.69c.62 5.97-.48 11.93-.03 17.87 2.37-3.93 1.94-8.56 1.82-12.93-.26-1.72.02-3.96-1.79-4.94m18.6 5.75c-1.1.31-1.67 1.35-2.37 2.14 4.77-1.12 9.49-2.43 14.27-3.5 1.43-.39 2.83-.31 4.21.24-4.96 2.13-10.95 3.34-14.35 7.9 5.5-2.46 10.94-5.08 16.62-7.17-.05-1.04-.1-2.08-.13-3.12-6.22.11-12.38 1.51-18.25 3.51m-5.28 9.27c5.04 1.6 10.08-.8 15.18-.6 3.91-.33 8.66-.27 11.07-3.97-8.46 3.08-17.69 2.03-26.25 4.57m-18.25 4.33a66.9 66.9 0 00-1.14-8.46c-1.79 2.73-.45 5.99 1.14 8.46m-6.81-2.9c-.91.87-.19 3.56 1.3 2.69 1.04-.85.19-3.64-1.3-2.69m16.64 32.68c-.99 1.72-.13 3.71.02 5.54.52-1.19 1.04-2.38 1.54-3.58 1.67-.53 3.33-1.07 4.99-1.6.7 1.21 1.35 2.56 2.75 3.1-.71-1.93-1.57-3.79-2.45-5.63-2.15 1.11-4.51 1.66-6.85 2.17m2.11 11.55c1.78.16 3.11-.35 3.99-1.53-1.7-1.04-4.83-1.36-3.99 1.53m36.25 42.96c-.76-2.72-1.25-5.49-1.25-8.32-2.46 2.36-1.51 6.62 1.25 8.32m-43.08 8.42c3.1-1.72 3.86-5.36 5.71-8.11-3.77.39-4.59 5.16-5.71 8.11z"/><path d="M124.09 92.87c3.64 1.38 8.4 2.26 9.09 6.88.67-.14 2.03-.42 2.71-.57-.18 2.09-.48 4.19-1.42 6.09.24 1.27.5 2.53.77 3.8-.23.64-.69 1.92-.92 2.55-1.84.46-3.75.41-5.4-.59-3.26-1.77-7.28-.35-10.55-2.01-1.44-1.73-1.98-3.98-2.87-6 3.85-2.42 6.54-6.17 8.59-10.15zM82.7 172.44c-5.03-8.94-2.36-22.79 7.87-26.79 3.17 1.93 6.06 4.64 6.85 8.42 1.3 7.13.7 16.15-5.88 20.6-2.87 2.33-7.24.9-8.84-2.23z"/></g><g fill="#333"><path d="M85.8 31.91c3.19-4.49 9.22-5.18 14.29-4.63 4.14-.01 8.22 3.3 8.56 7.52.42 4.15 2.47 8.14 1.7 12.38-.59 3.6-.9 7.29-2.07 10.76-.28-.06-.82-.17-1.1-.22-.15-3.01 1.31-5.92 1.55-8.94.94-4.6-.61-9.1-1.45-13.58-.32-3-3.01-4.74-5.07-6.57-4.34-.13-9.09-.17-12.66 2.72-3.68 2.33-4.37 7.09-3.87 11.07.59-.12 1.79-.37 2.39-.49-.43 1.64-.88 3.27-1.26 4.91 1.68 1.11 3.37 2.21 5.08 3.26.9 2.02 1.61 4.32 3.55 5.61 2.84 1.47 5.94 2.36 9.04 3.11l-.04 1.82c-3.3-.25-6.6-.95-9.47-2.68-2.56-1.13-3.05-4.21-4.74-6.14-1.9-1.48-3.67-3.12-5.23-4.96-.45-4.94-2.47-10.55.8-14.95z"/><path d="M87.59 51.14l1.39.12c-.41 3.37.14 7.18-1.57 10.22-3.48 2.13-7.49 3.84-9.8 7.4.05.51.17 1.53.23 2.05-4.25 1.73-8.43 4.19-11.12 7.99-2.17 4.75 0 10.01.19 14.96-.41-.9-2.34-2.73-2.54-.76-.33 2.6-.59 5.22-1.08 7.8-1.01 4.46 1.77 8.43 2.75 12.62.44-.37 1.32-1.1 1.76-1.46-.8 5.96-2.71 11.81-2.29 17.89.01 6.77 3.71 13.08 2.74 19.92-.56 3.18 1.3 5.99 1.69 9.06.26 2.09.5 4.18.91 6.24 2.65 1.1 7.07.42 7.67 4-3.32-.75-7.77-.63-9.53-4.17-.82-2.96-.56-6.14-1.57-9.07-2.13-5.02.36-10.54-1.53-15.66-2.7 2.24-5.42 4.73-6.44 8.22-2.04 6.09-2.29 13.78 2.15 18.91 1.73 2.05 4.54 1.89 6.94 1.5-.09 2.86-3.45 2.71-5.39 1.85-2.84-1.41-4.63-4.26-5.6-7.18-2.37-6.44-1.06-13.81 2.38-19.6 1.24-2.21 3.31-3.73 5.55-4.8-2.14-6.53-1.85-13.6-.39-20.24 1.34-5.4-3.75-9.61-3.58-14.91.11-5.2 1.04-10.37 2.8-15.26-.48-4.42-.88-9.58 2.36-13.12 3.48-3 7.33-5.56 10.6-8.81-.18-.26-.55-.78-.73-1.04 2.58-1.57 5.01-3.4 7.92-4.32 4.01-1.61 2.87-6.94 3.13-10.35zM91.04 57.93c1.98 2.11 5.8 5.26 3.6 8.35-1.22-2.78-2.4-5.57-3.6-8.35z"/><path d="M106.09 59.03c1.87.34 2.99 2.15 4.79 2.64 3.17 1.12 6.46 1.95 9.39 3.65 4.39-1.05 6.88 3.21 9.78 5.65 3.45 2.57 2.34 7.36 2.7 11.08-.3 3.54 2.47 6.21 3.53 9.38 2.14 5.73.45 11.8-.31 17.61-.02 2.55-2.25 5.05-4.92 4.76-3.8-.29-7.37-1.89-11.03-2.85 2.55 4.47.03 11.06 4.99 14.1.38 2.73-.21 5.38-.91 8 1.35 5.43 4.59 10.29 5.1 15.97.01 1.69 1.57 2.59 2.63 3.64.08 1.84-.94 3.15-2.63 3.79.81 4.47.95 9.01.84 13.54-.28 3.33 2.51 6.28 1.39 9.63-1.39 4.37-.92 8.99-.99 13.5 2.1 8.14.89 16.59 1.75 24.86.49 2.15.84 4.72 2.84 6.03 3.88 2.75 5.95 7.42 10.19 9.73 2.04 1.28 5.01.39 6.59 2.43.87.97 1.71 1.96 2.53 2.98-1.44 3.51-5.25 4.42-8.44 5.67-1.98.29-3.93-.55-5.93-.52-3.92.04-6.92-3.89-10.98-3.1-3.61.67-8.24 1.2-10.7-2.18-1.68-8.11 4.07-15.77 1.95-23.9-.43-5.07-4.33-8.87-5.4-13.71-.14-4.53.32-9.06 1.22-13.49.48.8.95 1.6 1.41 2.42-1.06 4.22.17 8.46.65 12.66.27 3.61 3.37 6.24 3.77 9.83.42 4.11.13 8.26.23 12.39-1.99 3.98-1.59 8.6-2.13 12.91.65.62 1.3 1.25 1.95 1.88 3.31.05 6.62-.37 9.93-.26 3.29-.05 5.76 2.87 9.06 2.79 2.04.15 4.08.52 6.13.36 1.77-.86 3.42-1.92 5.12-2.91-.74-.94-1.49-1.87-2.26-2.78-3.85-.28-7.66-1.94-10.04-5.07-2.5-3.32-5.43-6.27-8.56-8.99-.72-3.99-1.9-7.97-1.61-12.07.31-4.69.32-9.45-.73-14.06-1.22-4.32-.05-8.74-.04-13.13.93-3.87 1.79-8.04-.45-11.67-1.7 2.2-3.1 5.85-6.42 5.58-2.59-1.24-3.02-4.46-3.63-6.96 1.48 2.08 2.5 5.38 5.52 5.41 1.89-1.68 2.22-4.36 2.95-6.64.52 0 1.55-.01 2.06-.02-.33-4.29-.53-8.58-.82-12.87-4.24 3.44-9.44 6.36-15.07 5.97-2.09-.42-3.85-1.77-5.76-2.66l-.22 2.48c4.06 1.69 5.68 6.06 7.93 9.49 2.36 3.25 1.03 7.58 2.86 11.03 1.15 2.85 3.95 6.11 1.34 9.04-1.74-3.4-3.21-6.92-4.83-10.37-1.44-3.06-.33-6.79-2.17-9.7-1.83-2.92-3.85-5.76-5.16-8.97-.91.91-1.83 1.83-2.75 2.74-.1 5.16-.58 10.63-3.41 15.11-2.78 3.93-3.57 8.78-5.17 13.24-1.96 5.52-.19 11.37-.89 17.03-.42 3.06-2.15 5.74-2.74 8.76-1.19 6.82-1.66 14.07 1.21 20.56 3.03 3.57 4.21 8.4 7.78 11.56 1.76 2.28 4.19 4.78 3.56 7.94-.63 2.03-2.91 2.07-4.67 2.22-.64.58-1.27 1.17-1.9 1.77-4.32.49-9.29.92-12.83-2.15-2.13-1.15-2.99-3.45-3.05-5.76-.19-3.84-3.68-6.97-2.56-10.94-.54-1.66-1.09-3.3-1.63-4.96 2.73-8.04-.26-16.31-2.09-24.17-1.98-7.4 1.76-14.51 3.79-21.44.45-5.55.85-11.17 2.43-16.53l1.71-1.55c.09 4.33-1.98 8.34-2.12 12.65.7 5.37 2.15 10.6 3.77 15.76-3.19-1.36-2.77-5.69-4.48-8.26-1.77 3.64-3.01 7.53-3.82 11.5-1.24 7.5 2.79 14.41 3.49 21.75.97 3.77-.49 7.47-.64 11.22 1.21 5.87 4.58 11.14 5.05 17.17 2.93 4.25 9.18 5.45 13.39 2.39l-1.4-2.56c-2.47.54-5.07 1.46-7.49.24-.95.18-1.9.36-2.85.55.17-.43.52-1.27.69-1.7 3.24-.39 6.59.1 9.74-1.02 1.27 1.16 2.16 2.64 3.02 4.12 1.18-.42 2.36-.82 3.55-1.18-1.68-3.16-3.92-5.97-6.38-8.55-1.95-3.29-3.75-6.68-5.8-9.92-2.79-6.39-3.14-13.68-1.91-20.49.73-3.8 3.31-7.12 3.3-11.08.08-2.56.01-5.12-.1-7.68-3.62 4.33-2.78 10.14-4 15.28-2.2-1.94-1.06-5.15-.85-7.66.73-5.44 4.66-9.65 5.81-14.94.71-3.12 2.23-5.97 3.07-9.04.88-2.94 3.14-5.22 4.07-8.13 1.05-3.32 1.58-6.78 2.13-10.21-1.48-.06-2.97-.11-4.45-.14-1.35 4.61-3.97 9.24-8.62 11.15-2.93 1.44-6.01-.73-7.8-2.95-3.74-5.03-3.9-11.79-2.77-17.71 1.21-5.12 4.14-10.57 9.43-12.34 2.35.87 5.34.97 6.89 3.23 3.81 4.99 4.02 11.74 3.12 17.72 2-.94 4.01-1.87 5.97-2.91.4-2.46.66-4.95 1.05-7.42 2.39-.81 4.91-1.24 7.26-2.16 1.38-2.16 2.45-4.59 4.47-6.27-.48 2.88-1.48 6-3.7 7.98-2.88.65-6.34 1.18-7.16 4.58 3.78.04 7.51 2.45 11.27 1.01 4.52-1.14 7.31-5.3 11.66-6.78-1.01-1.41-2.32-2.76-2.5-4.57-.55-5.36-3.01-10.22-5.21-15.04.85-2.52 1.39-5.16 1-7.82-1.09-1.07-2.17-2.17-3.23-3.27-5.75 1.52-11.65 4.37-17.7 2.72-2.95-.8-6.04-.66-9.03-1.17-2.14-.56-3.98-1.88-5.94-2.85-.06.62-.18 1.87-.25 2.5-2.1.11-3.27 2.08-4.97 3.05 2.07-3.08 4.77-6.21 3.88-10.2.93-5.05-2.44-9.07-3.72-13.66.65-.16 1.96-.48 2.62-.63l-.6-1.59c1.01.6 2.01 1.2 3.02 1.8.95-.54 1.91-1.08 2.86-1.62.79.88 1.58 1.76 2.38 2.63-2.67.17-5.5-.36-8.03.7 3.11 4.27 2.66 9.52 3.09 14.47 2.17 2.83 6.17 3.66 9.61 3.54 4.09-.09 8.08 2.12 12.15.82 3.68-.82 7.63-1.22 10.77-3.5.29-2.34.78-5.91-1.75-7.19.54-.09 1.64-.27 2.18-.37-1.03-2.17-3.13-3.45-5.3-4.26-3.37 2.55-7.68 1.83-11.26 3.8-1.84-.02-2.85-1.67-4-2.83 3.33 1.85 6.34-.83 9.75-.35 2.2.3 3.91-2.12 6.19-.79-.57-.92-1.71-2.76-2.29-3.68-3.58 2.39-8.23 1.28-10.84-1.96l-.37 1.68c-2.69-.64-5.84-1.54-5.98-4.84 1.8 1.19 3.51 2.52 5.52 3.36-.26-1.95-.56-3.88-1.01-5.79 1.1-2.63 1.24-6.53 4.38-7.53-1.42 3.91-2.82 8.07-1.49 12.22.77.67 1.52 1.36 2.26 2.06 2.76.41 5.83.56 8.19-1.19 4.5-3.21 8.56-7.76 9.41-13.41.94-3.41-.89-7.83-4.7-8.34-4.41-.52-8.23 2.57-10.99 5.66-.7-.92-3.23-1.62-1.88-3.08 1.16.08 2.32.18 3.49.3-2.44-2.1-5.26-3.72-7.38-6.16-1.91 1.05-3.77 2.19-5.63 3.33-.22 1.08-.41 2.16-.56 3.25 1.38 1.01 2.84 1.9 4.12 3.05-.76.61-1.52 1.21-2.28 1.8-1.33-1.59-3.26-2.83-4.13-4.73.87-4.43 4.94-7.38 8.56-9.6 1.32.73 2.53 1.62 3.76 2.48-.17-2.97.37-7.04-2.9-8.55-4.55-1.99-9.17 1.2-12.16 4.44-4.4 4.24-5.86 10.85-4.04 16.63 1.53.43 3.05.86 4.57 1.33 2.03-.49 4.03-1.08 6.04-1.63-.57.9-1.73 2.68-2.31 3.57-2.21-.29-4.43-.61-6.61-1.1-1.26-1.31-2.63-2.51-4.06-3.63-.45-4.93.05-10.22 3.36-14.15 3.56-4.73 9.54-10 15.87-7.55 1.48-.89 3.05-1.29 4.39.34-.87.05-2.6.16-3.47.21 1.95 3.05 5.48.72 8.28.85 1.32-.44 2.64-.87 3.97-1.29-.8 1.67-1.62 3.34-2.37 5.04-2.24-.67-4.31-3.52-6.74-2.42-.46 3.06 1.11 6.23-.2 9.28.83 1.12 1.55 2.32 2.21 3.56 3.42-2.22 7.92-4.79 11.92-2.39 4.7 2 3.58 7.99 3.13 12.03 4.2 1 8.32 2.63 10.7 6.47-.32-4.1-2.17-7.72-3.82-11.39-1.23-5.61 1.84-13.29-4.22-16.88-2.99-2.84-7.49-.99-10.56-3.51-3.76-2.36-10.56-1.75-11.59-7.02l.81-.07m18 33.84c-2.05 3.98-4.74 7.73-8.59 10.15.89 2.02 1.43 4.27 2.87 6 3.27 1.66 7.29.24 10.55 2.01 1.65 1 3.56 1.05 5.4.59.23-.63.69-1.91.92-2.55-.27-1.27-.53-2.53-.77-3.8.94-1.9 1.24-4 1.42-6.09-.68.15-2.04.43-2.71.57-.69-4.62-5.45-5.5-9.09-6.88M82.7 172.44c1.6 3.13 5.97 4.56 8.84 2.23 6.58-4.45 7.18-13.47 5.88-20.6-.79-3.78-3.68-6.49-6.85-8.42-10.23 4-12.9 17.85-7.87 26.79zM80.08 82.99c1.22-2.58 1.91-5.56 3.85-7.71.24.17.73.51.97.68-.92 3.52-2.37 6.92-4.34 9.98-.42-.95-1.29-1.93-.48-2.95z"/><path d="M98.81 91.71c1.14-2.79 3.21-5.15 6.14-6.12 1.59.8 2.02 2.07 1.28 3.83-1.01-.39-2.02-.79-3.03-1.19-.65 1.51-1.29 3.02-1.9 4.55l-2.49-1.07zM72.41 92.08c1.45-.56 2.9-1.09 4.37-1.57-.65 2.19-2.87 3.25-4.47 4.67.02-.78.08-2.33.1-3.1zM78.05 93.16c.41-.3 1.22-.9 1.63-1.2 2.77 3.84 1.99 8.61 1.34 12.96.36.46 1.08 1.38 1.45 1.84-1.81 3.18-1.78 7.06-3.3 10.4 1.84 6.59 3.74 13.76 1.33 20.5-1.71 4.38.19 8.9 1 13.23-2.74-1.54-2.93-5.06-3.5-7.81-.64-3.5 1.3-6.64 1.85-9.99.18-4.68.38-9.75-2.16-13.91l-1.8 3.2c-.32-3.2 1.55-5.89 2.72-8.69 1.89-4.39.08-9.25 1.14-13.8.75-2.47-.79-4.59-1.7-6.73zM84.17 94.62c.68 1.02 1.39 2.03 2.12 3.02 1.9.37 3.79.17 5.58-.58.28.47.85 1.41 1.13 1.88-3.15 1.17-6.31.89-9.08-1.06.06-.82.18-2.45.25-3.26zM64.47 100.68c2.94 1 3.11 4.47 2.6 7.05l-1.66-.05c-.17-2.36-.52-4.69-.94-7zM94.41 106.14c2.17-.2 4.34-.4 6.51-.59-1 2.95-5.19 3.7-6.51.59zM89.11 107.12c2.49 1.51 5.21 2.73 7.38 4.7-3.06.94-7.98-.87-7.38-4.7zM101.14 112.84c1.58-.33 2.2.33 1.86 1.97-1.6.29-2.22-.37-1.86-1.97zM112.01 118.11c-.28-2.17 1.18-3.68 3.11-4.34-.65 1.7-1.67 3.22-3.11 4.34zM100.79 115.5c2.1 2.47 4.52 4.61 6.88 6.81-3.77 1.09-6.91-3.46-6.88-6.81zM87.3 131.31c1.14-1.88 2.27-3.77 3.32-5.69 4.35 1.31 8.71 2.98 13.32 2.85 5.68.14 11.14-1.6 16.47-3.35-1.06 1.45-2.34 2.8-4.16 3.17-5.79 2.14-12.08 2.55-18.16 1.6-.97 5.65-6.73 7.56-11.5 8.94.6-2.43 3.26-2.8 5.19-3.72 2.45-.97 3.66-3.53 5.02-5.61-1.79-.85-3.64-1.55-5.48-2.28-1.35 2.32-1.4 5.61-3.93 7.05-.02-.74-.06-2.22-.09-2.96zM82.47 130.62c1.81.98 1.53 3.22 1.79 4.94.12 4.37.55 9-1.82 12.93-.45-5.94.65-11.9.03-17.87zM101.07 136.37c5.87-2 12.03-3.4 18.25-3.51.03 1.04.08 2.08.13 3.12-5.68 2.09-11.12 4.71-16.62 7.17 3.4-4.56 9.39-5.77 14.35-7.9a6.473 6.473 0 00-4.21-.24c-4.78 1.07-9.5 2.38-14.27 3.5.7-.79 1.27-1.83 2.37-2.14zM95.79 145.64c8.56-2.54 17.79-1.49 26.25-4.57-2.41 3.7-7.16 3.64-11.07 3.97-5.1-.2-10.14 2.2-15.18.6zM77.54 149.97c-1.59-2.47-2.93-5.73-1.14-8.46a66.9 66.9 0 011.14 8.46zM70.73 147.07c1.49-.95 2.34 1.84 1.3 2.69-1.49.87-2.21-1.82-1.3-2.69zM87.37 179.75c2.34-.51 4.7-1.06 6.85-2.17.88 1.84 1.74 3.7 2.45 5.63-1.4-.54-2.05-1.89-2.75-3.1-1.66.53-3.32 1.07-4.99 1.6-.5 1.2-1.02 2.39-1.54 3.58-.15-1.83-1.01-3.82-.02-5.54zM89.48 191.3c-.84-2.89 2.29-2.57 3.99-1.53-.88 1.18-2.21 1.69-3.99 1.53zM125.73 234.26c-2.76-1.7-3.71-5.96-1.25-8.32 0 2.83.49 5.6 1.25 8.32zM82.65 242.68c1.12-2.95 1.94-7.72 5.71-8.11-1.85 2.75-2.61 6.39-5.71 8.11z"/></g></svg>