<svg width="221pt" height="275pt" viewBox="0 0 221 275" xmlns="http://www.w3.org/2000/svg"><g fill="#FFF"><path d="M0 0h221v275H0V0m83.84 37.02c.26 4.32-.04 9.31 3.68 12.35-.23 3.53.23 7.1-.39 10.61-4.23 1.48-7.01 5.11-9.72 8.45-4.47 1.31-8.1 4.36-11.39 7.54-2.42 3.49-2.48 8.07-1.56 12.08-2 4.7-2.63 9.81-3.07 14.86-.6 5.75 5.05 10.25 3.64 16.03-1.46 6.65-1.78 13.77.43 20.3-5.41 2.1-7.62 8.02-8.8 13.25-1.22 5.98.07 12.99 4.55 17.37 1.89 1.7 6.77 2.95 7.18-.59-3.56 1.15-7.39-.75-8.73-4.21-3.7-8.38-1.52-19.42 6.16-24.85 1.33 4.17.56 8.47.63 12.73 1.34 3.74 1.86 7.64 2.24 11.57 1.17 4.24 6.4 4.16 9.9 4.79-.82-4.06-6.51-1.74-8.13-4.97-.54-3.08-.32-6.31-1.64-9.21-1.35-2.83-.31-5.98-.52-8.95-.35-5.51-2.89-10.66-2.87-16.22-.43-6.11 1.53-11.99 2.32-17.98-.44.4-1.31 1.18-1.75 1.58-.9-4.22-3.77-8.12-2.85-12.59.66-3.28.72-6.66 1.73-9.85.54.64 1.61 1.94 2.15 2.59-.48-4.98-2.51-10.25-.45-15.12 2.36-3.35 5.88-5.84 9.62-7.48 2.53-.95 3.68-3.58 5.56-5.33 1.6-1.73 3.86-2.87 5.11-4.91 1.15-3.67 2.11-7.6 1.22-11.45.58.49 1.74 1.46 2.32 1.95 1.69 6.14 8.66 8.66 14.47 8.37-.13 1.48.21 2.84 1.03 4.07l-.68 2.13c-2.97 3.06-6.82-1.17-10.45-.05 1.31-3.42-1.84-5.85-3.49-8.43-.2-.13-.61-.4-.81-.54 1.53 2.85 2.33 6.02 3.89 8.85-2.6.55-5.21 1.12-7.82 1.65 1.29 2.04 3.73.61 5.55.42 3.32-.99 6.83-.15 9.87 1.31 1.82-.44 3.04-1.75 3.75-3.44 2.77-.84 5.53-2.12 8.5-1.83 2.06.38 3.41 2.42 5.47 2.67-2.15-1.13-4.34-2.32-5.67-4.45-2.74-.16-5.29.86-7.77 1.87-.04-1.42-.09-2.83-.15-4.24 2.92 1.02 5.99 1.75 9.07 1-1.51-2.7-5.53-.37-7.74-2.26 1.51-3.65 1.89-7.61 2.59-11.47.86-5.15-1.4-10.07-2.06-15.1-2.19-5.81-9.58-6.61-14.87-5.52-5.14.63-9.72 5.31-9.25 10.65m32.29 24.37c4.75-.6 9.7 2.65 11.46 7.06 1.71 3.12.82 6.74 1.19 10.1 1.5 3.33 3.48 6.67 3.28 10.47-.37 3.22 1.47 6.07 3.71 8.2 2.74 2.56 3.83 6.28 4.63 9.83 1.32 5.69 3.89 11.06 4.53 16.91.61 3.59 1.61 7.4 3.93 10.27l.39.59c-6.75 6.08-7.79 16.98-4.1 24.98 1.58 3.91 6.39 6.91 10.4 4.53 5.02-3.36 7.37-9.61 7.65-15.46.24-4.86-.52-10.31-4.13-13.88-2.38-2.28-5.96-2.24-8.86-1.23-1.5-3.88-4.08-7.41-4.14-11.72-.06-5.92-2.96-11.2-3.95-16.94-.45-2.09-1.15-4.14-2.22-6-1.59-2.69-4.94-4.1-5.79-7.26-.9-3.98-1.07-8.19-3.06-11.84-1.34-2.1-.84-4.63-.98-6.97.07-3.72-1.82-7.17-4.14-9.95-2.12-1.61-4.66-2.55-7.13-3.46-.89.59-1.77 1.19-2.67 1.77m-10.82 12.63c-.11 2.46 1.26 4.62 1.63 6.99-.24 1.36-.69 2.66-1.04 4-2.48 1.18-5.34 1.67-7.43 3.57-2.18 1.88-5.61 2.76-8.22 1.21-2.17-1.1-3.51-3.35-5.71-4.38-.07.36-.23 1.07-.31 1.43 2.88 4.55 9.65 7.74 14.35 3.84 1.88-2.26 4.84-2.52 7.31-3.75 1.53-1.66 2.19-3.88 3.11-5.9-.98-2.45-1.62-5.21-3.69-7.01m15.39 9.83l-2.5.36.7-1.05c-1.68.53-3.36 1.05-5.04 1.58-1.53-.59-2.99-1.5-4.66-1.59-.64 1.84 1.58 2.25 2.81 2.83 2.79.29 5.48-1 8.28-1.03-.22 4.51 2.2 8.65 1.68 13.15-.23 3.15-2.23 5.77-3.69 8.46-.96.1-1.92.21-2.87.32-.37-2.5-1.41-4.78-2.63-6.97.18 2.74.35 5.59-.94 8.12-2.97-.02-6.2-.38-8.53 1.87-1.05-.56-2.09-1.12-3.14-1.67l.24 1.94.66-1c.06 1.22.11 2.44.16 3.66l-1.25-.27c1 .89 2.02 1.76 3.05 2.62-.14-1.36-.31-2.72-.5-4.07 1.34.18 2.57-.14 3.68-.94 2.22-.08 4.56-.02 6.42-1.44 1.33-1.41 2.94-.37 4.41.16.51-.49 1.53-1.47 2.05-1.96-.04 4.29.76 8.53.83 12.82-4.16 2.55-9.13 2.67-13.67 4.18.26-.69.77-2.06 1.02-2.75-2.76-.99-4.58-3.32-5.84-5.87-.23.28-.7.84-.93 1.12.78 2.66 3.08 6.15 6.24 5.58-.71.53-1.41 1.07-2.11 1.6-5.63-2.08-12.38.17-17.21-4.01-.88-4.84.06-10.22-2.92-14.57.49-.53.99-1.04 1.49-1.56 1.95-.1 3.92-.12 5.87.07-.99-1.05-1.69-3.48-3.51-2.22-1.36.9-2.81.09-4.16-.33l.55 2.27-3.12-.32c1.02 3.15 3.33 5.81 3.76 9.15-.01 2.65.09 5.31.29 7.96-.45 2.64-2.51 4.66-3.74 6.96 2.33-.32 2.42-3.7 5.1-3.55-.21-.59-.63-1.77-.84-2.37 2.8 1.52 5.53 3.57 8.89 3.4 4.98-.1 9.93 2.22 14.86.72 3.24-.8 6.62-1.19 9.65-2.7 1.17 1.85 3.99 2.91 3.42 5.5-.04 2.03-.93 3.92-1.07 5.94 1.74 4.44 4.27 8.67 4.79 13.5.09 2.32 1.33 4.28 2.64 6.11-4.34 1.25-6.95 5.54-11.42 6.54-3.47 1.43-7.06-.18-10.4-1.16.22.38.66 1.14.88 1.53 6.25 4.55 14.52.25 19.58-4.21.13 4.56.42 9.11.53 13.67-.49-.11-1.46-.34-1.95-.46-.48 2.32-.93 4.84-2.79 6.5-2.6.33-4.43-2.3-4.72-4.62l-.86.04c.68 2.14 1.16 4.8 3.3 5.98 3.23.63 5.27-2.61 6.17-5.23.91 1.58 2.25 3.1 2.26 5.01.01 3.11-1.87 5.98-1.29 9.12.39 2.65-1.21 5.19-.51 7.84 1.14 5.22 1.83 10.56 1.33 15.9-.62 4.68 1.05 9.19 2.08 13.68 2.04 2.49 4.97 4.18 6.7 6.97 2.51 3.85 6.76 6.81 11.52 6.58.83 1.06 1.61 2.16 2.38 3.27-2.06 1.09-4 2.48-6.27 3.12-3.45-.68-7.21-.25-10.28-2.24-4.83-3.1-10.56.72-15.56-1.69-.17-4.64-.08-9.37 1.52-13.79.63-4.21.4-8.54-.03-12.77-.32-3.03-2.3-5.49-3.29-8.29-1.01-4.99-1.85-10.1-1.1-15.19.38.51 1.16 1.55 1.55 2.07.35-.16 1.07-.48 1.42-.64.53-4.77-3.97-8.23-3.71-13 .31-4.49-2.89-7.9-5.08-11.47-1.51-2.54-5.27-4.17-4.31-7.65-.48-2.25 1.99-2.79 3.42-3.75 4.49.65 5.38-4.2 7.06-7.19-.23-.25-.69-.76-.93-1.01-1.25 2.02-2.48 4.05-3.68 6.1-2.44.36-4.78 1.15-7.1 1.95-.66 2.21-.65 4.53-1 6.8-1.33 2.13-4.01 2.79-5.99 4.16 1.38-6.27.91-13.58-3.46-18.61-1.54-1.85-4.16-1.8-6.25-2.59-1.65.62-3.39 1.23-4.55 2.64-5.27 5.57-6.59 13.86-5.15 21.18.9 4.15 3.37 8.25 7.59 9.67.54.62 1.09 1.24 1.63 1.87l-1.27-.45c-.23 1.75-1.12 3.71-.09 5.39.24-.79.73-2.37.97-3.16 1.89-.49 3.76-1.03 5.66-1.51.67 1.11 1.5 2.08 2.49 2.9-.56-2-1.08-4.19-2.74-5.59-1.02 1.28-2.3 1.77-3.83 1.46-.21-.3-.62-.91-.83-1.22 5.52-1.01 8.4-6.49 9.8-11.41 1.01-.05 3.04-.13 4.05-.17-.7 5.37-1.52 11.01-4.75 15.53-3.33 6.41-4.16 13.93-8.13 20.07-2.03 3.64-2.51 7.87-2.65 11.96-.15 1.13.26 2.01 1.25 2.65.84-5.15.26-10.76 3.65-15.17.13 2.81.54 5.62.32 8.44-.36 3.61-2.42 6.71-3.32 10.17-1.16 8.8-.98 18.75 5.04 25.87 2.09 5.06 6.92 8.28 8.94 13.36-1.84 3.14-4.89.06-5.39-2.42-2.05.06-4.04.54-6.06.77-1.92-.05-4.39-1.04-5.36 1.33 3.46.37 6.98.58 10.39-.39.52.79 1.04 1.59 1.55 2.39-4.03 3.37-11.11 2.32-13.39-2.56-.72-6.03-4.07-11.29-5.13-17.25.21-3.36 1.36-6.68.72-10.06-.44-5.5-2.46-10.67-3.47-16.05-1.24-6.28 1.25-12.38 3.44-18.13 2.17 2.33 1.72 6.28 4.54 8.03-.77-4.21-2.47-8.2-3-12.47-1.59-4.99.78-10.06 2.42-14.72-.48-.15-1.42-.44-1.89-.58-2.17 5.67-2.61 11.71-3.07 17.7-1.71 5.31-3.91 10.56-4.55 16.15.51 6.29 2.81 12.27 3.84 18.48.52 3.86-.13 7.72-.82 11.51.94 2.52 1.54 5.09 1.34 7.81.96 2.71 2.85 5.15 2.73 8.16-.17 3.91 3.8 6.23 6.99 7.37 3.48.76 8.48 1.39 10.74-2.01 1.34-.1 2.79.06 4.02-.61 1.04-1.37.47-3.17.43-4.73-1.73-1.76-2.42-4.28-4.35-5.85-2.48-2.06-3.33-5.32-5.16-7.87-4.87-5.55-4.01-13.56-3.53-20.39.03-4.93 3.76-8.95 3.52-13.9.04-2.35-.13-4.69-.21-7.04-.41-6.42 2.8-12.29 4.43-18.3 4.08-5.31 5.24-12.1 5.4-18.64.76-.55 1.6-.86 2.51-.94 2.04 2.44 3.31 5.39 5.18 7.96 2.04 2.85.52 6.76 2.22 9.77.9 1.98 2.51 3.99 1.66 6.28-1.1 4.36-1.02 8.87-1.29 13.32 1.39 5.03 5.16 9.23 5.53 14.58 1.53 8.13-3.48 15.7-2.13 23.87 3.09 2.74 7.22 2.37 11.04 1.92 3.45-.58 6.16 1.84 9.16 3.02 2.42.08 4.83.43 7.25.49 3.31-1.14 7.38-1.92 8.87-5.53-1.15-1.81-2.51-3.48-4.14-4.87-7.95 1.04-10.64-8.12-16.6-11.34-3.08-8.34-.94-17.41-2.29-26.02-.62-2.5-1.39-4.98-1.32-7.59.24-.53.71-1.61.94-2.15-2.3-3.6 1.22-7.08.77-10.83-.16-2.42-2.28-4.34-1.88-6.85.36-4.7-.21-9.37-.84-14.02 1.03-.64 2.07-1.24 3.13-1.82-.74-1.55-1.69-2.98-2.87-4.22-.57-6.03-3.54-11.34-5.43-16.99.12-2.48 1.9-4.74 1.11-7.28-.3-1.67-2.06-2.5-2.94-3.85-.31-1.38-.31-2.81-.74-4.17-.22-3.62-.25-7.25-.13-10.88.19-3.48 2.86-6.38 2.82-9.88-.65-4.34-2.27-8.53-1.93-12.98 1.17-1.86 3.17.35 4.7.37-.68-2.22-3.24-3.16-3.63-5.55-1.07 1.51-1.62 3.29-2.32 4.99m10.32 13.08c-.1 3.12-.91 6.19-.82 9.32 4.77-6.35.53-14.2-1.92-20.59-.75 4.05 2.01 7.46 2.74 11.27m-21.44-6.37c.72.57 1.45 1.14 2.17 1.71.16.72.48 2.17.65 2.9-1.27 1.19-2.94 1.35-4.56 1.65-1.33 1.15-2.69 2.25-4.49 2.48-.62.77-1.24 1.55-1.85 2.33-1.88-.84-3.69-1.83-5.58-2.65.72 2.73 3.36 3.87 5.83 4.58 1.01-1.99 2.84-3.08 4.9-3.76 1.88-1.63 4.55-1.62 6.51-3.11 2.72.33 5.5.49 7.99 1.76-.79-3.6-5.15-3.36-7.97-2.84.58-1.87-.38-3.36-1.74-4.53.73-.45 2.19-1.33 2.92-1.77 1.25.38 2.5.76 3.76 1.15-.86-.84-1.72-1.68-2.57-2.53-2.49.02-3.41 3.02-5.97 2.63m-6 .97c-.89 2.23-2.88 3.57-4.48 5.24 1.74-.11 3.16-1.19 4.64-1.99 1.13-2.31 2.77-4.31 4.68-6.01-2.09-.29-4.03.83-4.84 2.76m-31.02.23c-.13 1.15-.24 2.31-.31 3.46 1.55-1.59 3.42-2.88 4.72-4.7-1.5.26-3.03.54-4.41 1.24m5.77.64c-.76 1.99 2.14 3.46 1.6 5.56-.59 3.66-.63 7.36-.39 11.06.28 4.89-4.24 8.59-3.65 13.5.42-.86 1.26-2.57 1.69-3.43 2.54 3.41 2.27 7.94 2.36 11.98.36 3.82-2.31 7.12-2.02 10.92.07 3.16 1.23 6.16 2.53 9l.91-.84c-.76-3.9-2.48-7.97-.99-11.93 2.58-6.91.77-14.36-1.2-21.15 1.58-3.23 1.38-7.15 3.2-10.16-2.81-3.53.5-7.94-1.06-11.83-.39-1.33-1.17-3.78-2.98-2.68m5.57 2.58l.16 2.66c2.73 1.91 5.96 1.6 8.96.57-.95-.64-1.83-2.11-3.12-1.23-1.96 1.01-4.59.18-4.86-2.21.66-.08 1.98-.25 2.64-.33-.2-.38-.58-1.16-.78-1.54-1 .69-2 1.38-3 2.08m-19.68 5.53c1.18 2.38-.07 6.06 2.34 7.6l.9-4.01c-.88-1.34-1.28-3.52-3.24-3.59m30.39 6.62c2.23.84 5.6.86 5.8-2.3-.85.21-2.54.62-3.39.82-1.5-.34-2.84-.41-2.41 1.48m1.43 3.43c-2.58-.97-4.99-2.31-7.22-3.93-1.04 3.59 4.82 6.66 7.22 3.93m28.47-1.41c.76 3.12 1.81 6.21 3.3 9.06 2.3 2.47 4.59 4.99 6.26 7.95 1.44 3.13 1.61 6.68 1.58 10.08-1.67-.35-2.98-.07-1.55 1.34-.35 2.28-1.31 4.66-.49 6.95 1.17 3.17 1.67 7.59 5.84 8.02.35.56 1.06 1.69 1.42 2.25.35-.7 1.06-2.12 1.42-2.82-1.44-.64-2.98-1.11-4.32-1.93-.92-2-1.65-4.09-2.78-5.98-.01-4.14 2.52-7.86 1.9-12.06.21-5.91-3.85-10.6-7.74-14.54-1.57-2.8-2.6-5.94-4.84-8.32m-11.96 5.27c-1.17.57-.95 3.65.65 2.27 1.91-.98 1.68-4.75-.65-2.27M102.97 128c-4.59.16-8.75-2.12-13.24-2.7-1.15 2.93-3.78 6.46-1.44 9.48.43-2.75 1.02-5.51 2.59-7.87 1.75.57 3.52 1.06 5.3 1.51-.52 5.44-6.38 6.92-9.98 9.85 2.77.77 5.04-1.52 7.37-2.61 2.56-1.17 3.75-3.86 3.94-6.53 6.4 1.82 13.1.5 19.26-1.56 1.67-.5 2.48-2.17 3.5-3.42-5.35 2.57-11.35 4.04-17.3 3.85m22.16 4.17c1.88-1.31 5.34-2.4 4.75-5.23-2.19 1.08-4.26 2.69-4.75 5.23m-42.71-1.39c.69 6.09-.13 12.16-.25 18.25 3.16-5.23 2.58-11.77 1.41-17.49l-1.16-.76m19.35 5.01c-1.42.3-2.56 1.19-3.35 2.39 5.34-.99 10.51-2.78 15.86-3.67 1.75-.42 4.95.86 5.2-1.9-6.03.03-11.99 1.33-17.71 3.18m6.54 2.71c-2.1 1.12-4.5 2.14-5.62 4.4 3.41-1.22 6.38-3.42 9.84-4.52 2.44-1.12 5.48-1.42 7.17-3.72-4.01.51-7.77 2.11-11.39 3.84m-12.1 6.22c.17.33.51.99.68 1.33 1.39.02 2.78-.02 4.17-.13 5.8-1.26 11.83-.73 17.6-2.28 1.26-.61 2.1-1.79 3.08-2.74-8.27 2.6-17.02 2.54-25.53 3.82m-18.7 5.34c-.18-2.83-.53-5.66-1.13-8.44-1.77 2.68-.46 6.01 1.13 8.44m-6.78-2.92c-.55 1.01-.62 2.79.44 3.49 2.01-.07 1.56-4.52-.44-3.49m-18.42 5.1c.4.66.4.66 0 0M88.78 189c-.59 2.81 3.68 2.77 4.27.49-1.42-.18-2.85-.35-4.27-.49m34.54 37.32c-.6 2.69-.49 5.45 1.07 7.81.33-.12.98-.35 1.3-.47-.54-1.18-1.07-2.37-1.6-3.56.15-1.34.84-2.99-.77-3.78m-40.85 16.4c2.48-.35 3.2-3.12 3.92-5.12.55-.91 1.1-1.83 1.63-2.76-3.59.55-4.49 4.96-5.55 7.88z"/><path d="M87.71 31.66c3.45-3.98 9.28-4.65 14.19-3.81 1.92 1.13 3.61 2.73 4.73 4.67.78 2.47.9 5.1 1.62 7.59 1.5 4.57-.1 9.28-.93 13.81-.23 2.59-3.2 5.01-5.71 3.55-3.24-1.56-7.66-2.21-9.15-5.95-.8-3.19-4.75-3.51-6.1-6.37.57-1.33 1.12-2.67 1.65-4.01l-2.72.52c-.34-3.47.03-7.27 2.42-10zM147.73 138.84c1.74-2.48 4.54-3.78 7.05-5.3 2.4 1.48 4.87 3.23 5.83 6.01 2.49 6.45 1.74 14.27-2.27 19.95-1.66 2.18-4.34 4.43-7.27 3.53-4.08-1.56-6.05-6.02-6.31-10.13-.33-4.79.09-10.04 2.97-14.06zM80.6 166.83c-1.41-8.09 1.66-17.95 10-20.97 3.55 1.66 6.17 4.85 7.01 8.69 1.2 5.87.64 12.42-2.76 17.5-1.94 2.68-5.33 5.05-8.76 3.76-3.38-1.64-4.92-5.47-5.49-8.98z"/></g><g fill="#333"><path d="M83.84 37.02c-.47-5.34 4.11-10.02 9.25-10.65 5.29-1.09 12.68-.29 14.87 5.52.66 5.03 2.92 9.95 2.06 15.1-.7 3.86-1.08 7.82-2.59 11.47 2.21 1.89 6.23-.44 7.74 2.26-3.08.75-6.15.02-9.07-1 .06 1.41.11 2.82.15 4.24 2.48-1.01 5.03-2.03 7.77-1.87 1.33 2.13 3.52 3.32 5.67 4.45-2.06-.25-3.41-2.29-5.47-2.67-2.97-.29-5.73.99-8.5 1.83-.71 1.69-1.93 3-3.75 3.44-3.04-1.46-6.55-2.3-9.87-1.31-1.82.19-4.26 1.62-5.55-.42 2.61-.53 5.22-1.1 7.82-1.65-1.56-2.83-2.36-6-3.89-8.85.2.14.61.41.81.54 1.65 2.58 4.8 5.01 3.49 8.43 3.63-1.12 7.48 3.11 10.45.05l.68-2.13c-.82-1.23-1.16-2.59-1.03-4.07-5.81.29-12.78-2.23-14.47-8.37-.58-.49-1.74-1.46-2.32-1.95.89 3.85-.07 7.78-1.22 11.45-1.25 2.04-3.51 3.18-5.11 4.91-1.88 1.75-3.03 4.38-5.56 5.33-3.74 1.64-7.26 4.13-9.62 7.48-2.06 4.87-.03 10.14.45 15.12-.54-.65-1.61-1.95-2.15-2.59-1.01 3.19-1.07 6.57-1.73 9.85-.92 4.47 1.95 8.37 2.85 12.59.44-.4 1.31-1.18 1.75-1.58-.79 5.99-2.75 11.87-2.32 17.98-.02 5.56 2.52 10.71 2.87 16.22.21 2.97-.83 6.12.52 8.95 1.32 2.9 1.1 6.13 1.64 9.21 1.62 3.23 7.31.91 8.13 4.97-3.5-.63-8.73-.55-9.9-4.79-.38-3.93-.9-7.83-2.24-11.57-.07-4.26.7-8.56-.63-12.73-7.68 5.43-9.86 16.47-6.16 24.85 1.34 3.46 5.17 5.36 8.73 4.21-.41 3.54-5.29 2.29-7.18.59-4.48-4.38-5.77-11.39-4.55-17.37 1.18-5.23 3.39-11.15 8.8-13.25-2.21-6.53-1.89-13.65-.43-20.3 1.41-5.78-4.24-10.28-3.64-16.03.44-5.05 1.07-10.16 3.07-14.86-.92-4.01-.86-8.59 1.56-12.08 3.29-3.18 6.92-6.23 11.39-7.54 2.71-3.34 5.49-6.97 9.72-8.45.62-3.51.16-7.08.39-10.61-3.72-3.04-3.42-8.03-3.68-12.35m3.87-5.36c-2.39 2.73-2.76 6.53-2.42 10l2.72-.52c-.53 1.34-1.08 2.68-1.65 4.01 1.35 2.86 5.3 3.18 6.1 6.37 1.49 3.74 5.91 4.39 9.15 5.95 2.51 1.46 5.48-.96 5.71-3.55.83-4.53 2.43-9.24.93-13.81-.72-2.49-.84-5.12-1.62-7.59-1.12-1.94-2.81-3.54-4.73-4.67-4.91-.84-10.74-.17-14.19 3.81z"/><path d="M116.13 61.39c.9-.58 1.78-1.18 2.67-1.77 2.47.91 5.01 1.85 7.13 3.46 2.32 2.78 4.21 6.23 4.14 9.95.14 2.34-.36 4.87.98 6.97 1.99 3.65 2.16 7.86 3.06 11.84.85 3.16 4.2 4.57 5.79 7.26 1.07 1.86 1.77 3.91 2.22 6 .99 5.74 3.89 11.02 3.95 16.94.06 4.31 2.64 7.84 4.14 11.72 2.9-1.01 6.48-1.05 8.86 1.23 3.61 3.57 4.37 9.02 4.13 13.88-.28 5.85-2.63 12.1-7.65 15.46-4.01 2.38-8.82-.62-10.4-4.53-3.69-8-2.65-18.9 4.1-24.98l-.39-.59c-2.32-2.87-3.32-6.68-3.93-10.27-.64-5.85-3.21-11.22-4.53-16.91-.8-3.55-1.89-7.27-4.63-9.83-2.24-2.13-4.08-4.98-3.71-8.2.2-3.8-1.78-7.14-3.28-10.47-.37-3.36.52-6.98-1.19-10.1-1.76-4.41-6.71-7.66-11.46-7.06m31.6 77.45c-2.88 4.02-3.3 9.27-2.97 14.06.26 4.11 2.23 8.57 6.31 10.13 2.93.9 5.61-1.35 7.27-3.53 4.01-5.68 4.76-13.5 2.27-19.95-.96-2.78-3.43-4.53-5.83-6.01-2.51 1.52-5.31 2.82-7.05 5.3zM105.31 74.02c2.07 1.8 2.71 4.56 3.69 7.01-.92 2.02-1.58 4.24-3.11 5.9-2.47 1.23-5.43 1.49-7.31 3.75-4.7 3.9-11.47.71-14.35-3.84.08-.36.24-1.07.31-1.43 2.2 1.03 3.54 3.28 5.71 4.38 2.61 1.55 6.04.67 8.22-1.21 2.09-1.9 4.95-2.39 7.43-3.57.35-1.34.8-2.64 1.04-4-.37-2.37-1.74-4.53-1.63-6.99z"/><path d="M120.7 83.85c.7-1.7 1.25-3.48 2.32-4.99.39 2.39 2.95 3.33 3.63 5.55-1.53-.02-3.53-2.23-4.7-.37-.34 4.45 1.28 8.64 1.93 12.98.04 3.5-2.63 6.4-2.82 9.88-.12 3.63-.09 7.26.13 10.88.43 1.36.43 2.79.74 4.17.88 1.35 2.64 2.18 2.94 3.85.79 2.54-.99 4.8-1.11 7.28 1.89 5.65 4.86 10.96 5.43 16.99 1.18 1.24 2.13 2.67 2.87 4.22-1.06.58-2.1 1.18-3.13 1.82.63 4.65 1.2 9.32.84 14.02-.4 2.51 1.72 4.43 1.88 6.85.45 3.75-3.07 7.23-.77 10.83-.23.54-.7 1.62-.94 2.15-.07 2.61.7 5.09 1.32 7.59 1.35 8.61-.79 17.68 2.29 26.02 5.96 3.22 8.65 12.38 16.6 11.34 1.63 1.39 2.99 3.06 4.14 4.87-1.49 3.61-5.56 4.39-8.87 5.53-2.42-.06-4.83-.41-7.25-.49-3-1.18-5.71-3.6-9.16-3.02-3.82.45-7.95.82-11.04-1.92-1.35-8.17 3.66-15.74 2.13-23.87-.37-5.35-4.14-9.55-5.53-14.58.27-4.45.19-8.96 1.29-13.32.85-2.29-.76-4.3-1.66-6.28-1.7-3.01-.18-6.92-2.22-9.77-1.87-2.57-3.14-5.52-5.18-7.96-.91.08-1.75.39-2.51.94-.16 6.54-1.32 13.33-5.4 18.64-1.63 6.01-4.84 11.88-4.43 18.3.08 2.35.25 4.69.21 7.04.24 4.95-3.49 8.97-3.52 13.9-.48 6.83-1.34 14.84 3.53 20.39 1.83 2.55 2.68 5.81 5.16 7.87 1.93 1.57 2.62 4.09 4.35 5.85.04 1.56.61 3.36-.43 4.73-1.23.67-2.68.51-4.02.61-2.26 3.4-7.26 2.77-10.74 2.01-3.19-1.14-7.16-3.46-6.99-7.37.12-3.01-1.77-5.45-2.73-8.16.2-2.72-.4-5.29-1.34-7.81.69-3.79 1.34-7.65.82-11.51-1.03-6.21-3.33-12.19-3.84-18.48.64-5.59 2.84-10.84 4.55-16.15.46-5.99.9-12.03 3.07-17.7.47.14 1.41.43 1.89.58-1.64 4.66-4.01 9.73-2.42 14.72.53 4.27 2.23 8.26 3 12.47-2.82-1.75-2.37-5.7-4.54-8.03-2.19 5.75-4.68 11.85-3.44 18.13 1.01 5.38 3.03 10.55 3.47 16.05.64 3.38-.51 6.7-.72 10.06 1.06 5.96 4.41 11.22 5.13 17.25 2.28 4.88 9.36 5.93 13.39 2.56-.51-.8-1.03-1.6-1.55-2.39-3.41.97-6.93.76-10.39.39.97-2.37 3.44-1.38 5.36-1.33 2.02-.23 4.01-.71 6.06-.77.5 2.48 3.55 5.56 5.39 2.42-2.02-5.08-6.85-8.3-8.94-13.36-6.02-7.12-6.2-17.07-5.04-25.87.9-3.46 2.96-6.56 3.32-10.17.22-2.82-.19-5.63-.32-8.44-3.39 4.41-2.81 10.02-3.65 15.17-.99-.64-1.4-1.52-1.25-2.65.14-4.09.62-8.32 2.65-11.96 3.97-6.14 4.8-13.66 8.13-20.07 3.23-4.52 4.05-10.16 4.75-15.53-1.01.04-3.04.12-4.05.17-1.4 4.92-4.28 10.4-9.8 11.41.21.31.62.92.83 1.22 1.53.31 2.81-.18 3.83-1.46 1.66 1.4 2.18 3.59 2.74 5.59-.99-.82-1.82-1.79-2.49-2.9-1.9.48-3.77 1.02-5.66 1.51-.24.79-.73 2.37-.97 3.16-1.03-1.68-.14-3.64.09-5.39l1.27.45c-.54-.63-1.09-1.25-1.63-1.87-4.22-1.42-6.69-5.52-7.59-9.67-1.44-7.32-.12-15.61 5.15-21.18 1.16-1.41 2.9-2.02 4.55-2.64 2.09.79 4.71.74 6.25 2.59 4.37 5.03 4.84 12.34 3.46 18.61 1.98-1.37 4.66-2.03 5.99-4.16.35-2.27.34-4.59 1-6.8 2.32-.8 4.66-1.59 7.1-1.95 1.2-2.05 2.43-4.08 3.68-6.1.24.25.7.76.93 1.01-1.68 2.99-2.57 7.84-7.06 7.19-1.43.96-3.9 1.5-3.42 3.75-.96 3.48 2.8 5.11 4.31 7.65 2.19 3.57 5.39 6.98 5.08 11.47-.26 4.77 4.24 8.23 3.71 13-.35.16-1.07.48-1.42.64-.39-.52-1.17-1.56-1.55-2.07-.75 5.09.09 10.2 1.1 15.19.99 2.8 2.97 5.26 3.29 8.29.43 4.23.66 8.56.03 12.77-1.6 4.42-1.69 9.15-1.52 13.79 5 2.41 10.73-1.41 15.56 1.69 3.07 1.99 6.83 1.56 10.28 2.24 2.27-.64 4.21-2.03 6.27-3.12-.77-1.11-1.55-2.21-2.38-3.27-4.76.23-9.01-2.73-11.52-6.58-1.73-2.79-4.66-4.48-6.7-6.97-1.03-4.49-2.7-9-2.08-13.68.5-5.34-.19-10.68-1.33-15.9-.7-2.65.9-5.19.51-7.84-.58-3.14 1.3-6.01 1.29-9.12-.01-1.91-1.35-3.43-2.26-5.01-.9 2.62-2.94 5.86-6.17 5.23-2.14-1.18-2.62-3.84-3.3-5.98l.86-.04c.29 2.32 2.12 4.95 4.72 4.62 1.86-1.66 2.31-4.18 2.79-6.5.49.12 1.46.35 1.95.46-.11-4.56-.4-9.11-.53-13.67-5.06 4.46-13.33 8.76-19.58 4.21-.22-.39-.66-1.15-.88-1.53 3.34.98 6.93 2.59 10.4 1.16 4.47-1 7.08-5.29 11.42-6.54-1.31-1.83-2.55-3.79-2.64-6.11-.52-4.83-3.05-9.06-4.79-13.5.14-2.02 1.03-3.91 1.07-5.94.57-2.59-2.25-3.65-3.42-5.5-3.03 1.51-6.41 1.9-9.65 2.7-4.93 1.5-9.88-.82-14.86-.72-3.36.17-6.09-1.88-8.89-3.4.21.6.63 1.78.84 2.37-2.68-.15-2.77 3.23-5.1 3.55 1.23-2.3 3.29-4.32 3.74-6.96-.2-2.65-.3-5.31-.29-7.96-.43-3.34-2.74-6-3.76-9.15l3.12.32-.55-2.27c1.35.42 2.8 1.23 4.16.33 1.82-1.26 2.52 1.17 3.51 2.22-1.95-.19-3.92-.17-5.87-.07-.5.52-1 1.03-1.49 1.56 2.98 4.35 2.04 9.73 2.92 14.57 4.83 4.18 11.58 1.93 17.21 4.01.7-.53 1.4-1.07 2.11-1.6-3.16.57-5.46-2.92-6.24-5.58.23-.28.7-.84.93-1.12 1.26 2.55 3.08 4.88 5.84 5.87-.25.69-.76 2.06-1.02 2.75 4.54-1.51 9.51-1.63 13.67-4.18-.07-4.29-.87-8.53-.83-12.82-.52.49-1.54 1.47-2.05 1.96-1.47-.53-3.08-1.57-4.41-.16-1.86 1.42-4.2 1.36-6.42 1.44-1.11.8-2.34 1.12-3.68.94.19 1.35.36 2.71.5 4.07-1.03-.86-2.05-1.73-3.05-2.62l1.25.27c-.05-1.22-.1-2.44-.16-3.66l-.66 1-.24-1.94c1.05.55 2.09 1.11 3.14 1.67 2.33-2.25 5.56-1.89 8.53-1.87 1.29-2.53 1.12-5.38.94-8.12 1.22 2.19 2.26 4.47 2.63 6.97.95-.11 1.91-.22 2.87-.32 1.46-2.69 3.46-5.31 3.69-8.46.52-4.5-1.9-8.64-1.68-13.15-2.8.03-5.49 1.32-8.28 1.03-1.23-.58-3.45-.99-2.81-2.83 1.67.09 3.13 1 4.66 1.59 1.68-.53 3.36-1.05 5.04-1.58l-.7 1.05 2.5-.36m-40.1 82.98c.57 3.51 2.11 7.34 5.49 8.98 3.43 1.29 6.82-1.08 8.76-3.76 3.4-5.08 3.96-11.63 2.76-17.5-.84-3.84-3.46-7.03-7.01-8.69-8.34 3.02-11.41 12.88-10 20.97z"/><path d="M131.02 96.93c-.73-3.81-3.49-7.22-2.74-11.27 2.45 6.39 6.69 14.24 1.92 20.59-.09-3.13.72-6.2.82-9.32zM109.58 90.56c2.56.39 3.48-2.61 5.97-2.63.85.85 1.71 1.69 2.57 2.53-1.26-.39-2.51-.77-3.76-1.15-.73.44-2.19 1.32-2.92 1.77 1.36 1.17 2.32 2.66 1.74 4.53 2.82-.52 7.18-.76 7.97 2.84-2.49-1.27-5.27-1.43-7.99-1.76-1.96 1.49-4.63 1.48-6.51 3.11-2.06.68-3.89 1.77-4.9 3.76-2.47-.71-5.11-1.85-5.83-4.58 1.89.82 3.7 1.81 5.58 2.65.61-.78 1.23-1.56 1.85-2.33 1.8-.23 3.16-1.33 4.49-2.48 1.62-.3 3.29-.46 4.56-1.65-.17-.73-.49-2.18-.65-2.9-.72-.57-1.45-1.14-2.17-1.71z"/><path d="M103.58 91.53c.81-1.93 2.75-3.05 4.84-2.76-1.91 1.7-3.55 3.7-4.68 6.01-1.48.8-2.9 1.88-4.64 1.99 1.6-1.67 3.59-3.01 4.48-5.24zM72.56 91.76c1.38-.7 2.91-.98 4.41-1.24-1.3 1.82-3.17 3.11-4.72 4.7.07-1.15.18-2.31.31-3.46zM78.33 92.4c1.81-1.1 2.59 1.35 2.98 2.68 1.56 3.89-1.75 8.3 1.06 11.83-1.82 3.01-1.62 6.93-3.2 10.16 1.97 6.79 3.78 14.24 1.2 21.15-1.49 3.96.23 8.03.99 11.93l-.91.84c-1.3-2.84-2.46-5.84-2.53-9-.29-3.8 2.38-7.1 2.02-10.92-.09-4.04.18-8.57-2.36-11.98-.43.86-1.27 2.57-1.69 3.43-.59-4.91 3.93-8.61 3.65-13.5-.24-3.7-.2-7.4.39-11.06.54-2.1-2.36-3.57-1.6-5.56zM83.9 94.98c1-.7 2-1.39 3-2.08.2.38.58 1.16.78 1.54-.66.08-1.98.25-2.64.33.27 2.39 2.9 3.22 4.86 2.21 1.29-.88 2.17.59 3.12 1.23-3 1.03-6.23 1.34-8.96-.57l-.16-2.66zM64.22 100.51c1.96.07 2.36 2.25 3.24 3.59l-.9 4.01c-2.41-1.54-1.16-5.22-2.34-7.6zM94.61 107.13c-.43-1.89.91-1.82 2.41-1.48.85-.2 2.54-.61 3.39-.82-.2 3.16-3.57 3.14-5.8 2.3zM96.04 110.56c-2.4 2.73-8.26-.34-7.22-3.93 2.23 1.62 4.64 2.96 7.22 3.93zM124.51 109.15c2.24 2.38 3.27 5.52 4.84 8.32 3.89 3.94 7.95 8.63 7.74 14.54.62 4.2-1.91 7.92-1.9 12.06 1.13 1.89 1.86 3.98 2.78 5.98 1.34.82 2.88 1.29 4.32 1.93-.36.7-1.07 2.12-1.42 2.82-.36-.56-1.07-1.69-1.42-2.25-4.17-.43-4.67-4.85-5.84-8.02-.82-2.29.14-4.67.49-6.95-1.43-1.41-.12-1.69 1.55-1.34.03-3.4-.14-6.95-1.58-10.08-1.67-2.96-3.96-5.48-6.26-7.95-1.49-2.85-2.54-5.94-3.3-9.06zM112.55 114.42c2.33-2.48 2.56 1.29.65 2.27-1.6 1.38-1.82-1.7-.65-2.27zM102.97 128c5.95.19 11.95-1.28 17.3-3.85-1.02 1.25-1.83 2.92-3.5 3.42-6.16 2.06-12.86 3.38-19.26 1.56-.19 2.67-1.38 5.36-3.94 6.53-2.33 1.09-4.6 3.38-7.37 2.61 3.6-2.93 9.46-4.41 9.98-9.85a81.91 81.91 0 01-5.3-1.51c-1.57 2.36-2.16 5.12-2.59 7.87-2.34-3.02.29-6.55 1.44-9.48 4.49.58 8.65 2.86 13.24 2.7z"/><path d="M125.13 132.17c.49-2.54 2.56-4.15 4.75-5.23.59 2.83-2.87 3.92-4.75 5.23zM82.42 130.78l1.16.76c1.17 5.72 1.75 12.26-1.41 17.49.12-6.09.94-12.16.25-18.25zM101.77 135.79c5.72-1.85 11.68-3.15 17.71-3.18-.25 2.76-3.45 1.48-5.2 1.9-5.35.89-10.52 2.68-15.86 3.67.79-1.2 1.93-2.09 3.35-2.39zM108.31 138.5c3.62-1.73 7.38-3.33 11.39-3.84-1.69 2.3-4.73 2.6-7.17 3.72-3.46 1.1-6.43 3.3-9.84 4.52 1.12-2.26 3.52-3.28 5.62-4.4zM96.21 144.72c8.51-1.28 17.26-1.22 25.53-3.82-.98.95-1.82 2.13-3.08 2.74-5.77 1.55-11.8 1.02-17.6 2.28-1.39.11-2.78.15-4.17.13-.17-.34-.51-1-.68-1.33zM77.51 150.06c-1.59-2.43-2.9-5.76-1.13-8.44.6 2.78.95 5.61 1.13 8.44zM70.73 147.14c2-1.03 2.45 3.42.44 3.49-1.06-.7-.99-2.48-.44-3.49zM52.31 152.24c.4.66.4.66 0 0zM88.78 189c1.42.14 2.85.31 4.27.49-.59 2.28-4.86 2.32-4.27-.49zM123.32 226.32c1.61.79.92 2.44.77 3.78.53 1.19 1.06 2.38 1.6 3.56-.32.12-.97.35-1.3.47-1.56-2.36-1.67-5.12-1.07-7.81zM82.47 242.72c1.06-2.92 1.96-7.33 5.55-7.88-.53.93-1.08 1.85-1.63 2.76-.72 2-1.44 4.77-3.92 5.12z"/></g></svg>