<svg width="208pt" height="300" viewBox="0 0 208 225" xmlns="http://www.w3.org/2000/svg"><g fill="#FFF"><path d="M0 0h208v225H0V0m145.93 10.12c-.55 22.63-.11 45.29-.23 67.94l1.17-.28c1.17-1.33.77-3.17.88-4.78-.06-19.34-.04-38.67-.01-58-.07-1.77.23-3.96-1.81-4.88M98.49 73.69c-.7 1.69-1.6 3.45-1.03 5.34 1.28 6.52 3.82 12.79 7.57 18.3l.72 1.95-.04.55c-2.43 2.08-5.06 3.95-7.87 5.49-3.2.68-6.47 1.4-9.1 3.49-3.26-.38-6.52-1.12-9.83-.85-3.02.46-5.8 2.08-8.92 1.98-3.03.16-6-.65-9.01-.69-2.05.57-3.88 1.82-6.03 2.03-8.95.79-17.52 4.38-24.65 9.81-5.13 1.87-6.42 8.09-5.44 12.92.34 6 1.06 11.97 1.18 17.99.23 7.79 4.29 15.17 3.14 23.03-1.06 5.83-6.88 8.45-10.05 12.94-1.81 2.79-5.09 3.78-7.6 5.74-3.05 2.13-3.38 7.88.98 8.62 4.07-.32 8.1-1.3 12.16-1.78 4.19-2.84 8.22-6.18 13.54-6.58-2.49 2.78-4.54 6.44-8.27 7.71-4.38 1.38-9.18 3.57-11.07 8.06 1.22.69 2.45 1.37 3.69 2.02 2.82 2.49 6.57 3.9 10.32 3.88 2.48-.76 4.94-1.58 7.42-2.34 4.02-1.25 7.44-4.01 11.64-4.79 3.08-.57 6.17-1.12 9.27-1.63 1.42-1.69 3.11-3.5 3.03-5.87.61-6.54-4.54-11.68-5.16-17.98-.57-4.71-1.42-9.45-.79-14.2.74-6.21-.97-12.33-2.81-18.19-.69-2.07-.45-4.26-.18-6.37.31.24.93.73 1.24.98 6.83-2.34 14.42-.07 21.03-3.53-1.26.83-.44 2.47.49 1.59 4.02-2.04 8.42-3.6 13-3.23 5.66.27 11.98-2.07 14.45-7.51 1.59-.4 3.08-1.11 4.2-2.35 2.34-.88 4.75-1.68 7.26-1.89 3.81-.23 7.27 1.97 11.08 1.76 8.08.54 15.41-3.45 23.13-5.04 2.2-.47 3.5-2.52 5.09-3.9.71.24 2.12.73 2.83.98 2.23-.99 4.76-1.73 6.37-3.68 2.47-3.27 3-7.57 2.32-11.53-.57-3.46-.48-7.81-3.97-9.78-4.97-2.75-11.01-3.75-16.61-2.81 4.86 2.03 10.69 1.04 15.1 4.37 4.51 2.83 3.64 8.83 3.67 13.39.14 4.88-4.53 8.4-9.19 8.16.31-1.18.63-2.37.97-3.54-.33-1.67-.65-3.33-1.01-4.99-.51 2.94-.89 5.99-2.33 8.65-3.54 3.88-9.15 3.37-13.57 5.55-6.21 2.71-13.17 2.61-19.55.58-.67-.47-1.33-.95-1.99-1.43 2.84-.28 5.78-.4 8.49-1.38 1.95-1.79 3.77-3.76 6.17-4.97.71-.84 1.32-1.75 2.05-2.58-1.71-1.56-3.22-3.34-4.9-4.93-.06 2.81 1.58 4.74 3.58 6.41-1.96.1-3.86-.37-5.64-1.13.66-1.2 1.32-2.39 1.99-3.58-.75.14-2.24.43-2.99.57l-.06-1.41c-1.78-.17-3.56-.36-5.35-.45 1.59.96 3.27 1.77 5 2.44-.04 2.05.75 3.9 1.93 5.54-.93.73-1.86 1.47-2.78 2.21-3.02.42-5.94 1.31-8.79 2.38.09.64.27 1.9.36 2.53-3.71.15-7.32 1.14-10.67 2.73 1.33-4.29-.57-8.58-2.82-12.17 2.71.51 5.46.95 8.23.67-2.78-1.51-5.94-1.94-9.03-2.34.25.58.74 1.73.99 2.3-2.92-5.02-8.92-6.36-13.59-9.18 1.64-.63 3.29-1.26 4.97-1.81l-1.92 1.1c.47.43.94.86 1.42 1.28 1.48-.84 3.03-1.57 4.6-2.25l.08-1.6c5.37-3.69 10.45-10.01 17.78-8.11-.15.93-.43 2.8-.58 3.73 1.16.44 2.32.88 3.48 1.33-.3 2.12-.87 4.17-1.5 6.21-1.78 1.27-3.26 2.9-3.75 5.08 3.49-1.88 6.66-4.67 7.39-8.77-.18-2.87-2.87-4.53-4.51-6.6.96-.14 2.87-.41 3.83-.55l-.04-.93c-2.83-.72-5.7-1.54-8.65-1.5-2.5.6-4.73 1.96-7.02 3.08-.58-.51-1.16-1.02-1.73-1.54l3.28.69c-1.36-1.66-3.08-3.03-4.2-4.88-1.49-3.08-1.89-6.58-3.48-9.62-.92-2.13-2.75-4.5-1.5-6.87 3.25-2.75 7.84-2.54 11.84-2.73-4.23-1.15-8.55-.55-12.78.22m16.57.08c2.81 1.11 6.6 1.03 8.49 3.68-1.3.51-2.61 1-3.92 1.47.02 1.73.04 3.47.07 5.21-1.64.56-3.27 1.14-4.88 1.76 1.49 1.09 2.98 2.19 4.47 3.28.01-.85.04-2.56.05-3.41.32 1.35.54 2.72.78 4.09l.32-.17c.82 2.37 1.71 4.75 3.1 6.86.12.52.37 1.54.49 2.06 2.75 8.25 9.31 14.36 16.63 18.68.21.56.62 1.69.83 2.25 2-.04 4-.05 6 0-.12-.63-.25-1.26-.38-1.89-1.8-.32-3.76-.4-5.33-1.45-5.41-3.76-11.23-7.76-13.9-14.05-1.96-4.98-5.23-9.46-6.08-14.85.93-2 .47-4.1-.36-6.03 3.77-2.38 8.19-2.16 12.47-2.12 5.39-1.19 10.26 2.62 15.57 3.03 6.27.47 13.21.7 17.99 5.43-1.86-.38-3.72-.76-5.57-1.16-.21 1.96-.46 3.91-.67 5.87-3.49-.89-6.5-3.61-10.27-3.2-4.7.12-9.43.58-13.93 2.03 1.35.89 2.71 1.79 4.09 2.63 3.77 1.69 3.8 5.81 3.62 9.33 4.28 1.87 8.37 4.19 11.42 7.83-.61-4.81-5.14-6.69-8.67-9.09-.93-3.49-1.17-8.25-5.28-9.5 3.46.97 6.47-1.36 9.78-1.78 2.4.94 4.38 2.81 6.93 3.38 3.29.61 6.69.55 9.96-.09 2.51.82 5 1.93 7.7 1.75-.03-1.53-.17-3.06-.4-4.57-2.35-1.24-4.97-1.83-7.51-2.58-.44-1.74-.45-3.89-2.15-4.96-6.93-4.7-15.85-1.88-23.22-5.28l.13-.91c-4.53.08-9.07.38-13.59-.02-4.87-1.34-9.55-4.53-14.78-3.51m-5.92 11.95c1.83 2.72 3.91 5.27 5.67 8.03.56-.33 1.13-.67 1.69-1.01-2.44-2.35-4.48-5.16-7.36-7.02m22 5.01c1.5 2.28 3.21 4.42 4.84 6.61-.3 1.51-.68 3.01-.75 4.55.5 1.71 2.17 2.64 3.36 3.81-.56-1.72-1.31-3.37-2.14-4.97.88-.81 1.76-1.62 2.65-2.42-2.68-2.51-4.86-5.56-7.96-7.58m17.44 6.19c.37 1.95.26 4.44 2.83 4.79-.85-1.66-1.79-3.25-2.83-4.79m-38.83 8.1c-.9.52-1.8 1.04-2.71 1.56-1.81-.66-3.69-1.18-5.61-1.4 2.86 3.55 7.26 1.28 10.6-.2.44-1.65.86-3.31 1.24-4.98-1.31 1.57-2.46 3.27-3.52 5.02m34.8.24c.48 3.42 1.67 6.69 2.53 10.02.68-1.89 1.39-3.94.39-5.88-.67-1.47-.92-3.97-2.92-4.14m-18.37 2.37c-.22 1.84 2.21 3.85 4.01 3.29.01-1.67-2.57-2.9-4.01-3.29m-19.3.14c2.24 1.39 4.44 2.87 6.89 3.87-.66-1.21-1.36-2.4-2.06-3.6-1.61-.1-3.22-.19-4.83-.27m.75 6.34c2.58 1.22 5.28 2.13 8.01 2.95-.14-.51-.43-1.53-.57-2.04-2.46-.48-4.94-.81-7.44-.91m12.31.04c1.15.86 2.29 1.74 3.42 2.64.81.05 2.44.16 3.26.21-1.32-.97-2.67-1.89-4.03-2.79l-2.65-.06m-2.57 2.17c-.71 1.5 1.19 3.87 2.82 3.3.68-1.43-1.35-3.65-2.82-3.3m37.47 13.4c-8.3 1.67-16.63 3.26-24.73 5.74-20.39 5.64-40.98 10.7-60.94 17.78-1.62.45-3.31 1.07-5.02.78-2.94-1.07-5.39-3.28-8.57-3.72 1.67 2.02 3.83 3.6 6.25 4.62 5.54 3.2 11.3-1.34 16.82-2.36.27 8.9.04 17.84 1.21 26.69.33-.02 1-.07 1.33-.1.14-9.04-.14-18.09-.89-27.1 2.69-.86 5.4-1.63 8.1-2.45l-2.24-.39c5.22.31 9.92-2.28 14.89-3.4 10.62-2.5 21.06-5.67 31.66-8.26.28 4.94-.01 9.9.39 14.82.49.32 1.47.95 1.96 1.27.17-5.51-.28-11.01-.69-16.49 2.39-.77 4.83-1.37 7.28-1.96.2 4.58.12 9.22 1.05 13.73.18.86.89 1.44 1.37 2.13.4-5.42-.03-10.85-.61-16.25 5.49-1.72 11.48-2.09 16.53-5.03 1.44-.62 1.81-2.23 2.38-3.53-2.37 1.43-4.74 3.01-7.53 3.48m-67.09 23.02c.35 4.83-.4 10.14 2.12 14.51.42-5.47.51-11.05-.75-16.42-.85-1.94-2.11 1.26-1.37 1.91z"/><path d="M162.85 90.17c2.89-2.8 6.26-.27 9.27.83 1.26.2 1.55 1.39 1.93 2.4-3.85-.61-7.63-1.66-11.2-3.23zM74.16 111.07c8.84-2.86 18.56-.25 26.37 4.27 3.17 3.03 5.28 7.37 5.59 11.74-1.69 5.19-6.01 10.89-12.06 10.63-5.18-.23-10.06 1.61-14.76 3.55 1.93-8.45-2.79-17.07-9.05-22.48-1.98-1.88-4.66-.1-6.78.45-.48-1.97-.48-4.02-.77-6.03l1.08-.58-2.32-1.68c4.37.36 8.73.71 13.11.72-1.22 1.89-2.43 3.79-3.42 5.81 3.22.32 6.66-.2 9.67 1.26 2.16.32 4.38.85 6.04 2.37 1.68 1.09 1.35 3.36 1.76 5.08.48-1.32.99-2.62 1.53-3.91-.93-4.01-5.25-5.63-8.99-5.11-.09-.35-.26-1.06-.35-1.42-2.48.21-4.97.27-7.46.29 1.53-1.13 3.14-2.14 4.69-3.23-1.31-.53-2.63-1.05-3.88-1.73m5.27 2.03c4.02 2.17 8.33 4.2 12.81 5.08-2.74-4.15-8.36-4.32-12.81-5.08zM43.02 116.01c5.18-2.4 10.94-3.08 16.59-3.06 1.64 2.07 1.61 4.73 1.62 7.23-6.66 1.36-12.77 4.69-17.73 9.29-5.14 2.2-8.11 8.31-6.33 13.67 1.63 5.43 1.07 11.26 3.27 16.56 1.11 6.53 2.3 13.04 3.91 19.47 1.36 4.82-.97 9.66-4.39 13-3.53.4-7.34.37-10.43 2.39-2.86 1.52-5.03 4.62-8.53 4.6-3.75.13-7.46 2.72-11.08.62 1.67-1.19 3.42-2.24 5.03-3.5-1.24.23-3.72.67-4.95.89 1.73-1.75 3.56-3.48 5.92-4.31 3.33-1.13 4.69-4.64 7.11-6.89 2.26-2.38 5.72-3.84 6.76-7.19 2.42-6.74.38-13.99-1.29-20.65-2.89-7.74-.91-16.12-1.46-24.12-1.18-3.21-1.14-7.07 1.32-9.68 4.85-2.84 9.33-6.39 14.66-8.32m-.79 11.25c-3.38-.09-6.27-1.44-7.93-4.45-.94 4.45 4.6 7.14 7.93 4.45m-12.38 1.58c.02 2.15.45 4.26.58 6.4.51 1.82.59 3.72.87 5.58.91-2.19 1.63-4.46 2.5-6.67-.21-.07-.63-.22-.84-.29-.36-2.04-1-4.2-3.11-5.02m10.14 49.36c.35.87.7 1.73 1.05 2.6-1.22 3.48-3.31 6.54-5.18 9.68 3.28-1.36 4.69-4.67 6.43-7.49-.13-1.27-.27-2.54-.41-3.8-.48-.25-1.42-.74-1.89-.99M26.03 191c2.55-1.98 4.89-4.22 6.94-6.72-3.2 1.14-5.52 3.71-6.94 6.72z"/><path d="M52.16 125.09c5.65-2.27 11.19-5.66 17.53-5.17 4.91 5.18 9.64 12.29 8.13 19.74-5.31 3.05-11.75 3.73-17.73 2.76-2.68-.64-5.19.61-7.62 1.52 1.22 7.75 5.22 15.05 4.46 23.07-.72 6.4.37 12.77 1.3 19.09 1.41 4.34 3.5 8.48 4.44 12.98.34 1.98.2 4.71-1.97 5.62-5.33 1.91-11.3 1.79-16.3 4.69-3.83 2.28-8.17 3.37-12.47 4.34-3.1-.24-6.28-1.1-8.07-3.86l-3.32-.12c2.17-4.59 7.79-5.39 12.01-7.22 3.93-2.39 5.9-6.77 8.97-10.03 1.87-2.03 4.83-3.51 5.06-6.6-.4-8.5-3.5-16.59-3.99-25.09-.12-3.78-2.73-6.97-2.43-10.79.26-3.95-1.31-7.65-2.04-11.47 1.41-2.37 2.08-5.49 4.78-6.79 3.41-1.8 5.61-5.28 9.26-6.67m5.44 8.1c5.32-.94 9.09-5.25 13.57-7.93-5.28 1.04-9.91 4.08-13.57 7.93m-10.06-.77c.83 1.63 2.3 2.63 4.09 2.97.35-.39 1.05-1.16 1.4-1.54-1.84-.45-3.65-.99-5.49-1.43m-5.02 12.2c1.97-1.64 2.78-3.95 2.72-6.48a74.71 74.71 0 001.79-3.14c-4.42 1.1-3.79 6.09-4.51 9.62m2.84 8.58c.4.67.4.67 0 0m4.33 6.25c1.09 5.44 1.49 11.18 4.17 16.17-.43-7.58-3.35-14.79-3.62-22.42-.48 2.04-.96 4.15-.55 6.25m-3.1-4.23c-.42 6.41.63 12.87 2.63 18.96-.4-4.76-1.29-9.47-1.41-14.25.06-1.67-.47-3.25-1.22-4.71m7.96 42.03c-1.16.82-2.29 1.7-3.36 2.64 2.59-.34 6.93-1.86 5.24-5.25-.64.86-1.26 1.73-1.88 2.61m-13.08 7.18c2.24-2.1 4.06-4.63 5.27-7.44-2.51 1.82-4.54 4.36-5.27 7.44m-15.08 2.58c2.49 1.49 5.18 2.76 8.12 2.98-1.63-2.85-5.09-3.74-8.12-2.98z"/></g><g fill="#333"><path d="M145.93 10.12c2.04.92 1.74 3.11 1.81 4.88-.03 19.33-.05 38.66.01 58-.11 1.61.29 3.45-.88 4.78l-1.17.28c.12-22.65-.32-45.31.23-67.94zM98.49 73.69c4.23-.77 8.55-1.37 12.78-.22-4 .19-8.59-.02-11.84 2.73-1.25 2.37.58 4.74 1.5 6.87 1.59 3.04 1.99 6.54 3.48 9.62 1.12 1.85 2.84 3.22 4.2 4.88l-3.28-.69c.57.52 1.15 1.03 1.73 1.54 2.29-1.12 4.52-2.48 7.02-3.08 2.95-.04 5.82.78 8.65 1.5l.04.93c-.96.14-2.87.41-3.83.55 1.64 2.07 4.33 3.73 4.51 6.6-.73 4.1-3.9 6.89-7.39 8.77.49-2.18 1.97-3.81 3.75-5.08.63-2.04 1.2-4.09 1.5-6.21-1.16-.45-2.32-.89-3.48-1.33.15-.93.43-2.8.58-3.73-7.33-1.9-12.41 4.42-17.78 8.11l-.08 1.6c-1.57.68-3.12 1.41-4.6 2.25-.48-.42-.95-.85-1.42-1.28l1.92-1.1c-1.68.55-3.33 1.18-4.97 1.81 4.67 2.82 10.67 4.16 13.59 9.18-.25-.57-.74-1.72-.99-2.3 3.09.4 6.25.83 9.03 2.34-2.77.28-5.52-.16-8.23-.67 2.25 3.59 4.15 7.88 2.82 12.17 3.35-1.59 6.96-2.58 10.67-2.73-.09-.63-.27-1.89-.36-2.53 2.85-1.07 5.77-1.96 8.79-2.38.92-.74 1.85-1.48 2.78-2.21-1.18-1.64-1.97-3.49-1.93-5.54-1.73-.67-3.41-1.48-5-2.44 1.79.09 3.57.28 5.35.45l.06 1.41c.75-.14 2.24-.43 2.99-.57-.67 1.19-1.33 2.38-1.99 3.58 1.78.76 3.68 1.23 5.64 1.13-2-1.67-3.64-3.6-3.58-6.41 1.68 1.59 3.19 3.37 4.9 4.93-.73.83-1.34 1.74-2.05 2.58-2.4 1.21-4.22 3.18-6.17 4.97-2.71.98-5.65 1.1-8.49 1.38.66.48 1.32.96 1.99 1.43 6.38 2.03 13.34 2.13 19.55-.58 4.42-2.18 10.03-1.67 13.57-5.55 1.44-2.66 1.82-5.71 2.33-8.65.36 1.66.68 3.32 1.01 4.99-.34 1.17-.66 2.36-.97 3.54 4.66.24 9.33-3.28 9.19-8.16-.03-4.56.84-10.56-3.67-13.39-4.41-3.33-10.24-2.34-15.1-4.37 5.6-.94 11.64.06 16.61 2.81 3.49 1.97 3.4 6.32 3.97 9.78.68 3.96.15 8.26-2.32 11.53-1.61 1.95-4.14 2.69-6.37 3.68-.71-.25-2.12-.74-2.83-.98-1.59 1.38-2.89 3.43-5.09 3.9-7.72 1.59-15.05 5.58-23.13 5.04-3.81.21-7.27-1.99-11.08-1.76-2.51.21-4.92 1.01-7.26 1.89-1.12 1.24-2.61 1.95-4.2 2.35-2.47 5.44-8.79 7.78-14.45 7.51-4.58-.37-8.98 1.19-13 3.23-.93.88-1.75-.76-.49-1.59-6.61 3.46-14.2 1.19-21.03 3.53-.31-.25-.93-.74-1.24-.98-.27 2.11-.51 4.3.18 6.37 1.84 5.86 3.55 11.98 2.81 18.19-.63 4.75.22 9.49.79 14.2.62 6.3 5.77 11.44 5.16 17.98.08 2.37-1.61 4.18-3.03 5.87-3.1.51-6.19 1.06-9.27 1.63-4.2.78-7.62 3.54-11.64 4.79-2.48.76-4.94 1.58-7.42 2.34-3.75.02-7.5-1.39-10.32-3.88-1.24-.65-2.47-1.33-3.69-2.02 1.89-4.49 6.69-6.68 11.07-8.06 3.73-1.27 5.78-4.93 8.27-7.71-5.32.4-9.35 3.74-13.54 6.58-4.06.48-8.09 1.46-12.16 1.78-4.36-.74-4.03-6.49-.98-8.62 2.51-1.96 5.79-2.95 7.6-5.74 3.17-4.49 8.99-7.11 10.05-12.94 1.15-7.86-2.91-15.24-3.14-23.03-.12-6.02-.84-11.99-1.18-17.99-.98-4.83.31-11.05 5.44-12.92 7.13-5.43 15.7-9.02 24.65-9.81 2.15-.21 3.98-1.46 6.03-2.03 3.01.04 5.98.85 9.01.69 3.12.1 5.9-1.52 8.92-1.98 3.31-.27 6.57.47 9.83.85 2.63-2.09 5.9-2.81 9.1-3.49 2.81-1.54 5.44-3.41 7.87-5.49l.04-.55-.72-1.95c-3.75-5.51-6.29-11.78-7.57-18.3-.57-1.89.33-3.65 1.03-5.34m-24.33 37.38c1.25.68 2.57 1.2 3.88 1.73-1.55 1.09-3.16 2.1-4.69 3.23 2.49-.02 4.98-.08 7.46-.29.09.36.26 1.07.35 1.42 3.74-.52 8.06 1.1 8.99 5.11-.54 1.29-1.05 2.59-1.53 3.91-.41-1.72-.08-3.99-1.76-5.08-1.66-1.52-3.88-2.05-6.04-2.37-3.01-1.46-6.45-.94-9.67-1.26.99-2.02 2.2-3.92 3.42-5.81-4.38-.01-8.74-.36-13.11-.72l2.32 1.68-1.08.58c.29 2.01.29 4.06.77 6.03 2.12-.55 4.8-2.33 6.78-.45 6.26 5.41 10.98 14.03 9.05 22.48 4.7-1.94 9.58-3.78 14.76-3.55 6.05.26 10.37-5.44 12.06-10.63-.31-4.37-2.42-8.71-5.59-11.74-7.81-4.52-17.53-7.13-26.37-4.27m-31.14 4.94c-5.33 1.93-9.81 5.48-14.66 8.32-2.46 2.61-2.5 6.47-1.32 9.68.55 8-1.43 16.38 1.46 24.12 1.67 6.66 3.71 13.91 1.29 20.65-1.04 3.35-4.5 4.81-6.76 7.19-2.42 2.25-3.78 5.76-7.11 6.89-2.36.83-4.19 2.56-5.92 4.31 1.23-.22 3.71-.66 4.95-.89-1.61 1.26-3.36 2.31-5.03 3.5 3.62 2.1 7.33-.49 11.08-.62 3.5.02 5.67-3.08 8.53-4.6 3.09-2.02 6.9-1.99 10.43-2.39 3.42-3.34 5.75-8.18 4.39-13-1.61-6.43-2.8-12.94-3.91-19.47-2.2-5.3-1.64-11.13-3.27-16.56-1.78-5.36 1.19-11.47 6.33-13.67 4.96-4.6 11.07-7.93 17.73-9.29-.01-2.5.02-5.16-1.62-7.23-5.65-.02-11.41.66-16.59 3.06m9.14 9.08c-3.65 1.39-5.85 4.87-9.26 6.67-2.7 1.3-3.37 4.42-4.78 6.79.73 3.82 2.3 7.52 2.04 11.47-.3 3.82 2.31 7.01 2.43 10.79.49 8.5 3.59 16.59 3.99 25.09-.23 3.09-3.19 4.57-5.06 6.6-3.07 3.26-5.04 7.64-8.97 10.03-4.22 1.83-9.84 2.63-12.01 7.22l3.32.12c1.79 2.76 4.97 3.62 8.07 3.86 4.3-.97 8.64-2.06 12.47-4.34 5-2.9 10.97-2.78 16.3-4.69 2.17-.91 2.31-3.64 1.97-5.62-.94-4.5-3.03-8.64-4.44-12.98-.93-6.32-2.02-12.69-1.3-19.09.76-8.02-3.24-15.32-4.46-23.07 2.43-.91 4.94-2.16 7.62-1.52 5.98.97 12.42.29 17.73-2.76 1.51-7.45-3.22-14.56-8.13-19.74-6.34-.49-11.88 2.9-17.53 5.17z"/><path d="M115.06 73.77c5.23-1.02 9.91 2.17 14.78 3.51 4.52.4 9.06.1 13.59.02l-.13.91c7.37 3.4 16.29.58 23.22 5.28 1.7 1.07 1.71 3.22 2.15 4.96 2.54.75 5.16 1.34 7.51 2.58.23 1.51.37 3.04.4 4.57-2.7.18-5.19-.93-7.7-1.75-3.27.64-6.67.7-9.96.09-2.55-.57-4.53-2.44-6.93-3.38-3.31.42-6.32 2.75-9.78 1.78 4.11 1.25 4.35 6.01 5.28 9.5 3.53 2.4 8.06 4.28 8.67 9.09-3.05-3.64-7.14-5.96-11.42-7.83.18-3.52.15-7.64-3.62-9.33-1.38-.84-2.74-1.74-4.09-2.63 4.5-1.45 9.23-1.91 13.93-2.03 3.77-.41 6.78 2.31 10.27 3.2.21-1.96.46-3.91.67-5.87 1.85.4 3.71.78 5.57 1.16-4.78-4.73-11.72-4.96-17.99-5.43-5.31-.41-10.18-4.22-15.57-3.03-4.28-.04-8.7-.26-12.47 2.12.83 1.93 1.29 4.03.36 6.03.85 5.39 4.12 9.87 6.08 14.85 2.67 6.29 8.49 10.29 13.9 14.05 1.57 1.05 3.53 1.13 5.33 1.45.13.63.26 1.26.38 1.89-2-.05-4-.04-6 0-.21-.56-.62-1.69-.83-2.25-7.32-4.32-13.88-10.43-16.63-18.68-.12-.52-.37-1.54-.49-2.06-1.39-2.11-2.28-4.49-3.1-6.86l-.32.17c-.24-1.37-.46-2.74-.78-4.09-.01.85-.04 2.56-.05 3.41-1.49-1.09-2.98-2.19-4.47-3.28 1.61-.62 3.24-1.2 4.88-1.76-.03-1.74-.05-3.48-.07-5.21 1.31-.47 2.62-.96 3.92-1.47-1.89-2.65-5.68-2.57-8.49-3.68m47.79 16.4c3.57 1.57 7.35 2.62 11.2 3.23-.38-1.01-.67-2.2-1.93-2.4-3.01-1.1-6.38-3.63-9.27-.83zM109.14 85.72c2.88 1.86 4.92 4.67 7.36 7.02-.56.34-1.13.68-1.69 1.01-1.76-2.76-3.84-5.31-5.67-8.03z"/><path d="M131.14 90.73c3.1 2.02 5.28 5.07 7.96 7.58-.89.8-1.77 1.61-2.65 2.42.83 1.6 1.58 3.25 2.14 4.97-1.19-1.17-2.86-2.1-3.36-3.81.07-1.54.45-3.04.75-4.55-1.63-2.19-3.34-4.33-4.84-6.61zM148.58 96.92c1.04 1.54 1.98 3.13 2.83 4.79-2.57-.35-2.46-2.84-2.83-4.79zM109.75 105.02c1.06-1.75 2.21-3.45 3.52-5.02-.38 1.67-.8 3.33-1.24 4.98-3.34 1.48-7.74 3.75-10.6.2 1.92.22 3.8.74 5.61 1.4.91-.52 1.81-1.04 2.71-1.56zM144.55 105.26c2 .17 2.25 2.67 2.92 4.14 1 1.94.29 3.99-.39 5.88-.86-3.33-2.05-6.6-2.53-10.02zM126.18 107.63c1.44.39 4.02 1.62 4.01 3.29-1.8.56-4.23-1.45-4.01-3.29zM106.88 107.77c1.61.08 3.22.17 4.83.27.7 1.2 1.4 2.39 2.06 3.6-2.45-1-4.65-2.48-6.89-3.87zM79.43 113.1c4.45.76 10.07.93 12.81 5.08-4.48-.88-8.79-2.91-12.81-5.08zM107.63 114.11c2.5.1 4.98.43 7.44.91.14.51.43 1.53.57 2.04-2.73-.82-5.43-1.73-8.01-2.95zM119.94 114.15l2.65.06c1.36.9 2.71 1.82 4.03 2.79-.82-.05-2.45-.16-3.26-.21-1.13-.9-2.27-1.78-3.42-2.64zM117.37 116.32c1.47-.35 3.5 1.87 2.82 3.3-1.63.57-3.53-1.8-2.82-3.3zM42.23 127.26c-3.33 2.69-8.87 0-7.93-4.45 1.66 3.01 4.55 4.36 7.93 4.45zM57.6 133.19c3.66-3.85 8.29-6.89 13.57-7.93-4.48 2.68-8.25 6.99-13.57 7.93zM154.84 129.72c2.79-.47 5.16-2.05 7.53-3.48-.57 1.3-.94 2.91-2.38 3.53-5.05 2.94-11.04 3.31-16.53 5.03.58 5.4 1.01 10.83.61 16.25-.48-.69-1.19-1.27-1.37-2.13-.93-4.51-.85-9.15-1.05-13.73-2.45.59-4.89 1.19-7.28 1.96.41 5.48.86 10.98.69 16.49-.49-.32-1.47-.95-1.96-1.27-.4-4.92-.11-9.88-.39-14.82-10.6 2.59-21.04 5.76-31.66 8.26-4.97 1.12-9.67 3.71-14.89 3.4l2.24.39c-2.7.82-5.41 1.59-8.1 2.45.75 9.01 1.03 18.06.89 27.1-.33.03-1 .08-1.33.1-1.17-8.85-.94-17.79-1.21-26.69-5.52 1.02-11.28 5.56-16.82 2.36-2.42-1.02-4.58-2.6-6.25-4.62 3.18.44 5.63 2.65 8.57 3.72 1.71.29 3.4-.33 5.02-.78 19.96-7.08 40.55-12.14 60.94-17.78 8.1-2.48 16.43-4.07 24.73-5.74zM29.85 128.84c2.11.82 2.75 2.98 3.11 5.02.21.07.63.22.84.29-.87 2.21-1.59 4.48-2.5 6.67-.28-1.86-.36-3.76-.87-5.58-.13-2.14-.56-4.25-.58-6.4zM47.54 132.42c1.84.44 3.65.98 5.49 1.43-.35.38-1.05 1.15-1.4 1.54-1.79-.34-3.26-1.34-4.09-2.97zM42.52 144.62c.72-3.53.09-8.52 4.51-9.62a74.71 74.71 0 01-1.79 3.14c.06 2.53-.75 4.84-2.72 6.48z"/><path d="M87.75 152.74c-.74-.65.52-3.85 1.37-1.91 1.26 5.37 1.17 10.95.75 16.42-2.52-4.37-1.77-9.68-2.12-14.51zM45.36 153.2c.4.67.4.67 0 0zM49.69 159.45c-.41-2.1.07-4.21.55-6.25.27 7.63 3.19 14.84 3.62 22.42-2.68-4.99-3.08-10.73-4.17-16.17zM46.59 155.22c.75 1.46 1.28 3.04 1.22 4.71.12 4.78 1.01 9.49 1.41 14.25-2-6.09-3.05-12.55-2.63-18.96zM39.99 178.2c.47.25 1.41.74 1.89.99.14 1.26.28 2.53.41 3.8-1.74 2.82-3.15 6.13-6.43 7.49 1.87-3.14 3.96-6.2 5.18-9.68-.35-.87-.7-1.73-1.05-2.6zM26.03 191c1.42-3.01 3.74-5.58 6.94-6.72-2.05 2.5-4.39 4.74-6.94 6.72zM54.55 197.25c.62-.88 1.24-1.75 1.88-2.61 1.69 3.39-2.65 4.91-5.24 5.25 1.07-.94 2.2-1.82 3.36-2.64zM41.47 204.43c.73-3.08 2.76-5.62 5.27-7.44-1.21 2.81-3.03 5.34-5.27 7.44zM26.39 207.01c3.03-.76 6.49.13 8.12 2.98-2.94-.22-5.63-1.49-8.12-2.98z"/></g></svg>