<svg width="240" height="250pt" viewBox="0 0 180 250" xmlns="http://www.w3.org/2000/svg"><g fill="#FFF"><path d="M0 0h180v250H0V0m36.47 28.66c-5.83 5.19-6.49 14.13-4.36 21.22 1.49 4.58 6.53 7.05 11.1 5.61.1-.52.28-1.55.38-2.06-2.39.11-5.18 1.02-7.16-.82-4.3-3.48-4.18-9.69-3.33-14.65 1.05-4.9 4.75-8.52 8.98-10.88 2.87 1.6 5.67 3.57 6.78 6.83-2.17 2.12-1.91 5.3-2.85 7.97-.93 2.61-.85 5.4-.92 8.13.98 8.96.39 18.11 2.63 26.92 1.06 4.29 5.2 6.62 7.95 9.76 3.5-.34 6.77-2.64 10.36-1.44.28-.95.52-1.91.72-2.88 1.32-.91 2.57-1.95 3.39-3.34-5.38 1.89-10.06 6.38-16.17 5.67-1.95-3.78-4.8-7.3-5.12-11.7-.93-10.73-2.63-21.57-1.04-32.32.64-1.74 1.2-3.51 1.67-5.29 2.07.15 4.14.21 6.21.19-3.35 6.74-3.1 15.12 1.54 21.21.37 7.94 7.17 13.4 8.46 21.06 4.57-2.12 9.91-.6 14.38-3.23-.56 3.09-1.51 6.09-2.54 9.05-2.06-4.26-7.06.4-10.38-.64.73.53 1.47 1.07 2.21 1.6 2.43-.47 4.84-.97 7.24-1.56-.33 1.9-.6 3.81-.91 5.71l-1.65.72c-1.25 2.5-3.72 1.76-6 1.75-2.66.88-4.39 3.28-6.47 5.02-.64-.11-1.93-.34-2.57-.45-4.46.96-9.05 1.39-13.43 2.72 5.32.58 10.62-.26 15.93-.45 2.97-.22 4.93-2.67 6.98-4.51 2.38.01 4.77-.16 7.06-.84-.05-.8-.15-2.41-.21-3.21 2.14-.19 4.28-.39 6.39-.75 3.87.96 7.94 1.19 11.68 2.63 2.27 1.44 4.53 2.94 6.74 4.5 3.01 2.05 4.04 5.83 6.85 8.1-.49 1-.97 1.99-1.47 2.98.24.95.47 1.91.71 2.86-2.02 3.67-1.26 8.74-4.93 11.42-2.92 1.82-6 3.36-8.74 5.46-.88-5.47-2.47-10.92-5.58-15.56-1.92-2.94-5.49-3.8-8.56-4.94-.14.78-.37 1.82.65 2.1 7.09 2.68 9.27 10.73 11.1 17.29-3.62.36-9.04.26-10.4 4.47-3.13 6.03.6 12.5.89 18.75 1.24 8.36-3.82 15.86-3.88 24.11-.4 4.37.44 8.9-.97 13.14-.76 2.99-3.23 5.09-4.37 7.92l3.36-.82c-4.3 3.92-6.94 9.25-11.29 13.09-3.63-.41-7 1.31-10.54 1.48-3.38-.78-6.61-2.14-10.06-2.63-.3-.49-.88-1.47-1.18-1.96 2.51-2.41 4.71-5.47 8.21-6.47 4.22-1.51 6.23-5.83 8.67-9.23 2.49-3.21 5.63-5.84 8.16-9.02l-3.8.68c1.46-4.08 2.55-8.31 4.39-12.25.43-3.97.46-7.99 1.43-11.9.88-3.34-.61-6.6-.83-9.91-.2-1.63-.03-3.46-1.39-4.65-.62 6.42.06 12.87.2 19.31-4.26-5.93-2.13-13.13-2.47-19.77-.75-3.92-1.34-7.9-2.55-11.73-.75-2.57-1.19-5.64.53-7.93 2.33-3.28 4.31-7.06 7.66-9.42 2.9-1.25 6.13-2.12 7.87-5.02-2.38.03-6.06-1.84-7.23 1.49.84.01 2.51.01 3.35.01-3.91.66-7.75 2.41-9.93 5.86-2.18 3.59-5.2 7.29-4.65 11.75.09 3.06 1.39 5.89 2.34 8.74-5.04-3.38-11.48-1.55-17.08-3.26-.01-.88-.04-2.64-.06-3.52 4.05-1.35 7.62-3.72 11.23-5.94 1.81-1.55 2.83-3.86 3.75-6.01.52-3.24-1.09-6.36-2.31-9.27-2.55-4.46-8.23-4.7-12.2-7.22-.55.28-1.09.56-1.64.84-3.45.41-6.19 2.72-9.31 4.06-3.4 1.57-6.64 3.66-8.87 6.74-2.65 3.98-8.05 5.72-9.17 10.78 2.03 4.82 4.33 9.68 4.81 14.96 4.9 4.98 3.97 12.42 7.01 18.3 1.42 3.59 4.32 6.35 5.7 9.95.29 2.94.16 5.94-.3 8.86-1.81 3.2-4.45 5.85-6.37 8.99-2.19 3.74-6.41 5.32-9.41 8.24-.43 1.52-.9 3.04-1.43 4.55.97 1.73 1.79 3.57 3.06 5.11 2.59.91 5.42.2 7.79-1 2.42-1.17 5.29-1.11 7.58-2.56 2.98-2.44 5.5-6.04 9.63-6.46 3.51-.61 7.1-1.75 9.54-4.51.07-3.19.19-6.4-.43-9.56 2.65.75 5.24 1.7 7.82 2.69-.51 1.34-1.03 2.68-1.55 4.01-3.76 3.1-5.49 7.83-8.78 11.29-4.55 2.59-9.71 5.66-11.14 11.09.68 1.09 1.39 2.15 2.15 3.18 4.09-.56 7.24 2.72 11.22 2.78 5.21.99 9.75-2.26 13.89-4.91 3.02-2.94 5.55-6.37 8.38-9.49 1.12-4.12 1.43-8.49 3.52-12.33 1.43.49 2.86.98 4.29 1.49 2.4-1.51 4.82-2.97 7.22-4.46.53.06 1.59.19 2.12.26.11-2.67.35-5.34.98-7.95-3.88-3.4-9.24-3.79-14.08-4.87.21-1.01.62-3.04.82-4.05 1.55-.47 3.09-1.01 4.46-1.9 12.32-7.67 24.81-15.07 37.2-22.62 2.46-1.55 4.96-3.04 7.6-4.26.06-11.92.18-23.84.29-35.76 3.08 1.67 6.48 2.94 10.05 2.6 2-2.22 3.62-4.73 5.25-7.24 2.19-3.75 3.76-8.03 2.56-12.41-1.33-4.68-2-9.49-2.13-14.35 4.73-.05 8.42-3.47 10.84-7.23 1.14-4.03 2.26-8.12 2.22-12.35.24-4.63-2.66-8.7-6.3-11.27-1.53.04-3.06.07-4.59.08-2.45 1.29-4.62 3.03-6.36 5.19-2.33-.56-4.7-.94-7.03-1.49.26-1.77.51-3.55.72-5.32-2.8-4.12-6.01-8.4-10.68-10.47-5.53-.16-10.93 2.51-14.85 6.29-2.1 2.84-4.47 7-1.65 10.13-.3 1.82-.57 3.65-.8 5.49-3.22-.26-6.22.91-9.01 2.38-7.84-1.72-17.8 1.85-19.92 10.27-4.87 1.2-11.84 2.07-13.21 7.89-1.43-1.3-2.83-2.62-4.33-3.84l.06-3.76-1.65-2.13c2.76-.06 5.85.47 8.28-1.15 3.13-2.19 4.83-5.75 6.28-9.16.82-4.38 1.02-8.79-.32-13.09-1.38-3.4-4.23-6.71-8.35-5.95 2.21 1.95 5.45 3.04 6.5 6.03 2.88 7.31 1.17 16.93-5.87 21.25-3.43 1.36-7.29-.59-8.67-3.91-2.61-6.33-1.78-14.57 3.27-19.49 1.39-1.56 4.27-1.97 4.12-4.53-3.9.97-6.33 4.22-8.82 7.08l-1.28-1.84c-1.1.34-2.2.68-3.3 1.03-1.13-3.01-2.2-6.71-5.67-7.74-2.86-.65-6.31-.56-8.51 1.7m34.56 98.21c-1.8 2.26-2.62 4.95-2.35 7.84.35-.1 1.06-.28 1.41-.37.73-2.67 1.72-5.26 2.78-7.81-.46.09-1.38.26-1.84.34m3.71 16.05c.25 3.4.86 6.79.68 10.22-1.24 3.83-1.1 7.89-1.51 11.86.16-.87.47-2.6.63-3.46h.78c1.34-6.16 1.32-12.57-.58-18.62m-7.28 35.28c.71 2.64 1.33 5.3 1.36 8.05.43.12 1.28.35 1.71.46.53-3.23.39-6.96-3.07-8.51m-18.34 25.84c.77-.22 2.31-.65 3.08-.87 3.92.76 7.89-.21 11.79-.69-3.06-2.89-7.34-.42-11.02-1.28-1.94-.39-2.77 1.71-3.85 2.84z"/><path d="M107.4 39.25c1.67-5.2 5.7-9.33 10.53-11.75 2.99-.78 6.34-.25 8.68 1.85 3.07 2.75 6.28 5.69 7.78 9.62-1.98-2.1-4.16-4.85-7.44-4.36-6.08-.35-9.13 5.8-11.62 10.32.8.36 1.61.65 2.45.89 1.48-4.22 4.07-8.03 8.34-9.77 3.37.62 5.71 3.02 6.78 6.23-4.32.79-7.33 5.65-6.31 9.89.44 3.82-.15 7.67-1 11.39-3.1-1.15-6.72-2.14-8.21-5.46-.54-3.33.02-6.71-.41-10.04-.78-.82-1.7-1-2.77-.52-.13-.08-.38-.23-.5-.3-1.9.22-3.78.53-5.64.93.84-2.38 1.17-4.89 1.34-7.39-.5-.38-1.5-1.15-2-1.53zM144.53 41.56c1.74-1.72 4.38-1.22 6.59-1.62 1.86 1.43 3.89 2.87 4.82 5.13 1.75 3.43-.05 7.27-.48 10.8-.68 4.35-3.38 8.55-7.64 10.11-3.23 1.65-6.75-1.16-7.93-4.12-2.88-6.79-.99-15.46 4.64-20.3z"/><path d="M127.88 52.16c-.48-3.57 2.74-5.74 4.98-7.89 2.38.13 4.75.39 7.14.36-2.89 5.14-3.85 11.61-1.72 17.21-.43.65-.87 1.29-1.31 1.93l-.65-2.37c.37 3.13 0 6.35.82 9.43.58 3.09 4.06 4.52 5.58 7.01-1.08-4.27-6.24-8.93-3.07-13.52.72 1.82 2.49 2.77 3.98 3.85-.47 6.42 2.05 12.51 2.58 18.84-.46 5.75-5.8 9.2-8.28 14.04-2.33-.94-4.72-1.85-6.69-3.45-1.45-2.94-3.24-5.71-4.71-8.64-.02-4.88-1.41-9.81-.24-14.64-.42-.73-.85-1.44-1.29-2.14-.52 5.69-.63 11.47-.12 17.15 1.56 3.72 3.18 7.5 2.94 11.63-.14 10.99-.01 22.03-.64 32.99-15.08 9.48-30.6 18.29-45.7 27.76 1.14-2.74 1.2-5.72 1.41-8.64 12.88-7.51 25.97-14.71 38.67-22.49.46-11.49-.11-23.05-.1-34.57-.31-4.58.77-9.13.26-13.7-.96.02-1.92.05-2.88.09.67 2.45.8 5 .85 7.53.18 13.05-.13 26.11.41 39.14-1.24 1.5-3.07 2.29-4.69 3.3-10.9 6.17-21.64 12.61-32.58 18.7.13-5.52-2.27-10.68-2.35-16.15-.04-2.19 1.71-3.74 2.88-5.39 2.35-.77 4.69-1.61 7.01-2.48-.32 1.04-.98 3.12-1.3 4.16 3.13-2.29 5.94-5.12 9.57-6.63 2.63-1.17 5.32-2.55 7.02-4.97 2.62-2.91 1.77-7.12 3-10.6-.68-.83-1.35-1.66-2.03-2.5 1.49-2.74 2.75-5.64 4.75-8.06 2.95-3.31 4.9-7.33 7.94-10.57.01-.66.02-1.98.03-2.64-2.08 1.69-4.19 3.48-5.43 5.91-1.9 3.54-4.66 6.52-6.68 9.99-2.35-4.21-5.79-7.65-9.86-10.22 2.74-3.09 7.23-4.08 9.46-7.65l-2.42.5c.3-1.18.61-2.36.91-3.53.51-.18 1.54-.54 2.05-.71-.25-2.96-.52-5.93-1.08-8.84-.5-.41-1.5-1.22-2-1.62.16-1.88-.34-3.7-1.66-5.09 1.21-5.27 7 3.66 8.84-.82-2.93-1.52-6.19-1.9-9.43-2.05l.59-.65c-1.45-1.4-2.87-2.82-4.23-4.3-.06 2.55.67 4.89 2.99 6.29l.45-1.3.84 2.57c-2.92-1.15-6.13.05-9.02-1.13-2.45.85-4.8 1.96-7.05 3.25 0-.62-.01-1.86-.01-2.49-.51-1.14-1.01-2.3-1.48-3.46 3.97-3.55 8.65-6.12 13.39-8.48 3.96-2.24 8.82-.08 12.8-2.38 1.13.57 2.26 1.16 3.36 1.8-.49 2.68 1.42 6.02.12 8.32l-.41.31c1.93 1.02 3.91 1.93 5.74 3.13-2.61.57-6.15-1.02-8.13 1.46 2.57.28 5.35.73 7.75-.53 1.94.41 3.89.71 5.85 1 .29 2.84-.36 5.96 1.32 8.47.44-3.3.63-6.62.64-9.95.03-3.63 1.06-7.26.32-10.88m-37.05 8.22c1.92.3 3.85.46 5.8.48l-.4-2.34c-1.81.58-3.64 1.14-5.4 1.86m19.26 12.85c1.54.02 3.08.06 4.62.15 2.1 1.85 5.24 1.89 7.59.5-2.84-.71-5.83-1.14-8.21-2.96l-3.71-.2c-.1.83-.19 1.67-.29 2.51m-1.39 3.39c2.19 3.25 6.62 3.16 9.95 4.56a86.43 86.43 0 00-2.24-2.75c-.1-.7-.31-2.08-.41-2.78-1.01.51-2.01 1.01-3.01 1.53-1.43-.2-2.86-.4-4.29-.56z"/><path d="M79.81 60.61c2.82-5.59 8.21-10.02 14.81-9.64-4.61 2.65-11.78 6.67-9.34 13.16-1.28 1.1-2.68 2.04-3.97 3.12 1.04.01 3.11.01 4.15.02-1.31 1.93-2.69 3.91-2.99 6.3 1.79 1.07 1.61-1.51 2.17-2.55.69-4.35 5.77-5.03 9.08-6.6-1.77 4.32-2.85 8.85-3.63 13.44-1.28 2.07-2.83 3.99-3.88 6.21 2.08-1.44 3.85-3.25 5.55-5.11.29-4.39 1.23-8.76 3.27-12.69 1.93-.61 3.94-.93 5.88-1.52.89.98 1.8 1.94 2.71 2.9-.15 1.97 1.34 3.34 2.4 4.8-.41 1.59-.79 3.19-1.08 4.81-1.09 2.23-2.02 4.56-1.88 7.1-3 .73-4.89 3.35-5.95 6.08-4.46-2.14-9.5-2-14.2-3.26-1.98-.57-4.09-.3-6.12-.43.69-.82 1.39-1.62 2.1-2.4 2.18-5.06.48-11.2 4.52-15.52-.38-.33-1.15-.99-1.54-1.33-1.15 2.03-1.97 4.42-3.95 5.82-3.65 1.23-7.54 1.3-11.29 2.06-.3-.65-.9-1.96-1.2-2.61 1.82-3.61 5.48-5.5 8.71-7.63-2.41.59-4.69 1.59-7.03 2.42.29-2.98 3.71-3.37 5.92-4.23 3-1.18 6.23-.64 9.36-.9.04-.43.11-1.28.15-1.7l-2.73-.12zM31.91 106.95c3.72-2.66 9.2-2.65 11.69-6.88 3.69 1.33 7.95 2.56 10.17 6.08 2.02 3.49 4.05 7.69 2.49 11.75-1.34 2.15-4.06 2.82-5.99 4.32-3.6 2.83-8.55 2.3-12.37 4.76-.65 1.73-2.19 3.47-1.35 5.41 1.47 4.99 3.07 9.96 5.18 14.72 1.86 3.3.78 7.2.97 10.79 1.83 2.12 1.25 5.16 2.53 7.53 2.45 5.09 6.53 9.98 5.92 15.98-.72 4.35-5.65 5.02-9.11 6.03-4.36 1.27-7.04 5.17-10.58 7.69-3.38.62-7.1.3-9.81 2.87-1.68-.52-2.92-1.78-3.97-3.14.72-1.38 1.31-2.83 2.1-4.17 2.49-2.51 6.36-3.48 8.13-6.72 1.79-3.15 4.03-5.98 6.32-8.77 2.61-3.21.86-7.56 1.65-11.27-3.37-7.21-7.38-14.21-9.11-22.06-.71-3.67-3.96-6.25-4.25-10.04-.8-4.07-3.17-7.65-3.71-11.79-.07-1.67 1.66-2.45 2.73-3.39 4.13-2.51 5.82-7.69 10.37-9.7m-4.25 10.6c-.02.44-.05 1.32-.07 1.76 2.58 1.78 6.14 3 8.99 1.07 1.34-.45 1.5-1.79.94-2.93-2.76 1.34-6.16 3.56-8.53.23-.33-.04-1-.1-1.33-.13m-1.31 11.94c1.73 1.08 3.36 2.34 5.22 3.21.88-1.97-1.64-3.16-2.48-4.67.09-1.42.11-2.84.05-4.26-1.46 1.62-2.26 3.64-2.79 5.72m18.14 41.2c.04 3.7.02 7.47-1.65 10.88-1.05 1.04-2.03 2.16-2.98 3.3 1.79-.4 3.56-.92 5.31-1.51-.04-.81-.11-2.45-.15-3.26 2.69-2.71 2-6.86-.53-9.41m-8.26 5.38c-1.53 2.98-3.47 5.8-4.3 9.08 3.34-3.04 5.14-7.34 7.23-11.25-1.13.5-2.52.83-2.93 2.17z"/><path d="M37.47 129.09c.82-.4 2.45-1.19 3.27-1.59-.01.67-.03 2.01-.03 2.68 1.5 1.32 3.05 2.85 5.22 2.75 4.5.28 8.96 1.13 13.06 3.06-.74.5-1.48 1-2.23 1.51 2.03 7.86.38 16.13.6 24.17-3.73-.89-7.43-1.96-11.29-2.11-.81-4.46.1-9.25-2.03-13.42-2.6-5.52-4.31-11.39-6.57-17.05z"/><path d="M58.52 138.17c.53-.76 1.06-1.51 1.6-2.25 2.69 1.93 1.96 5.33 1.71 8.14-.74 5.54-.5 11.29 1.38 16.6 1.1 5.16.15 10.52-1.74 15.39-2.55-2.15-5.97-1.66-9.04-2.14-2.04-4.32-5.47-8.08-5.81-13.06 3.9 1.91 8.15 3.06 12.52 2.79.35-7.51.6-15.03.5-22.54l-1.12-2.93zM78.39 181.7c-.2-4.27.08-8.54.55-12.78 3 3.45 7.82 3.59 11.89 4.88-.15 2.2-.38 4.38-.55 6.58-2.9-.88-5.16 1.57-7.46 2.87-1.48-.51-2.95-1.04-4.43-1.55z"/></g><g fill="#333"><path d="M36.47 28.66c2.2-2.26 5.65-2.35 8.51-1.7 3.47 1.03 4.54 4.73 5.67 7.74 1.1-.35 2.2-.69 3.3-1.03l1.28 1.84c2.49-2.86 4.92-6.11 8.82-7.08.15 2.56-2.73 2.97-4.12 4.53-5.05 4.92-5.88 13.16-3.27 19.49 1.38 3.32 5.24 5.27 8.67 3.91 7.04-4.32 8.75-13.94 5.87-21.25-1.05-2.99-4.29-4.08-6.5-6.03 4.12-.76 6.97 2.55 8.35 5.95 1.34 4.3 1.14 8.71.32 13.09-1.45 3.41-3.15 6.97-6.28 9.16-2.43 1.62-5.52 1.09-8.28 1.15l1.65 2.13-.06 3.76c1.5 1.22 2.9 2.54 4.33 3.84 1.37-5.82 8.34-6.69 13.21-7.89C80.06 51.85 90.02 48.28 97.86 50c2.79-1.47 5.79-2.64 9.01-2.38.23-1.84.5-3.67.8-5.49-2.82-3.13-.45-7.29 1.65-10.13 3.92-3.78 9.32-6.45 14.85-6.29 4.67 2.07 7.88 6.35 10.68 10.47a193.9 193.9 0 01-.72 5.32c2.33.55 4.7.93 7.03 1.49 1.74-2.16 3.91-3.9 6.36-5.19 1.53-.01 3.06-.04 4.59-.08 3.64 2.57 6.54 6.64 6.3 11.27.04 4.23-1.08 8.32-2.22 12.35-2.42 3.76-6.11 7.18-10.84 7.23.13 4.86.8 9.67 2.13 14.35 1.2 4.38-.37 8.66-2.56 12.41-1.63 2.51-3.25 5.02-5.25 7.24-3.57.34-6.97-.93-10.05-2.6-.11 11.92-.23 23.84-.29 35.76-2.64 1.22-5.14 2.71-7.6 4.26-12.39 7.55-24.88 14.95-37.2 22.62-1.37.89-2.91 1.43-4.46 1.9-.2 1.01-.61 3.04-.82 4.05 4.84 1.08 10.2 1.47 14.08 4.87-.63 2.61-.87 5.28-.98 7.95-.53-.07-1.59-.2-2.12-.26-2.4 1.49-4.82 2.95-7.22 4.46-1.43-.51-2.86-1-4.29-1.49-2.09 3.84-2.4 8.21-3.52 12.33-2.83 3.12-5.36 6.55-8.38 9.49-4.14 2.65-8.68 5.9-13.89 4.91-3.98-.06-7.13-3.34-11.22-2.78-.76-1.03-1.47-2.09-2.15-3.18 1.43-5.43 6.59-8.5 11.14-11.09 3.29-3.46 5.02-8.19 8.78-11.29.52-1.33 1.04-2.67 1.55-4.01-2.58-.99-5.17-1.94-7.82-2.69.62 3.16.5 6.37.43 9.56-2.44 2.76-6.03 3.9-9.54 4.51-4.13.42-6.65 4.02-9.63 6.46-2.29 1.45-5.16 1.39-7.58 2.56-2.37 1.2-5.2 1.91-7.79 1-1.27-1.54-2.09-3.38-3.06-5.11.53-1.51 1-3.03 1.43-4.55 3-2.92 7.22-4.5 9.41-8.24 1.92-3.14 4.56-5.79 6.37-8.99.46-2.92.59-5.92.3-8.86-1.38-3.6-4.28-6.36-5.7-9.95-3.04-5.88-2.11-13.32-7.01-18.3-.48-5.28-2.78-10.14-4.81-14.96 1.12-5.06 6.52-6.8 9.17-10.78 2.23-3.08 5.47-5.17 8.87-6.74 3.12-1.34 5.86-3.65 9.31-4.06.55-.28 1.09-.56 1.64-.84 3.97 2.52 9.65 2.76 12.2 7.22 1.22 2.91 2.83 6.03 2.31 9.27-.92 2.15-1.94 4.46-3.75 6.01-3.61 2.22-7.18 4.59-11.23 5.94.02.88.05 2.64.06 3.52 5.6 1.71 12.04-.12 17.08 3.26-.95-2.85-2.25-5.68-2.34-8.74-.55-4.46 2.47-8.16 4.65-11.75 2.18-3.45 6.02-5.2 9.93-5.86-.84 0-2.51 0-3.35-.01 1.17-3.33 4.85-1.46 7.23-1.49-1.74 2.9-4.97 3.77-7.87 5.02-3.35 2.36-5.33 6.14-7.66 9.42-1.72 2.29-1.28 5.36-.53 7.93 1.21 3.83 1.8 7.81 2.55 11.73.34 6.64-1.79 13.84 2.47 19.77-.14-6.44-.82-12.89-.2-19.31 1.36 1.19 1.19 3.02 1.39 4.65.22 3.31 1.71 6.57.83 9.91-.97 3.91-1 7.93-1.43 11.9-1.84 3.94-2.93 8.17-4.39 12.25l3.8-.68c-2.53 3.18-5.67 5.81-8.16 9.02-2.44 3.4-4.45 7.72-8.67 9.23-3.5 1-5.7 4.06-8.21 6.47.3.49.88 1.47 1.18 1.96 3.45.49 6.68 1.85 10.06 2.63 3.54-.17 6.91-1.89 10.54-1.48 4.35-3.84 6.99-9.17 11.29-13.09l-3.36.82c1.14-2.83 3.61-4.93 4.37-7.92 1.41-4.24.57-8.77.97-13.14.06-8.25 5.12-15.75 3.88-24.11-.29-6.25-4.02-12.72-.89-18.75 1.36-4.21 6.78-4.11 10.4-4.47-1.83-6.56-4.01-14.61-11.1-17.29-1.02-.28-.79-1.32-.65-2.1 3.07 1.14 6.64 2 8.56 4.94 3.11 4.64 4.7 10.09 5.58 15.56 2.74-2.1 5.82-3.64 8.74-5.46 3.67-2.68 2.91-7.75 4.93-11.42-.24-.95-.47-1.91-.71-2.86.5-.99.98-1.98 1.47-2.98-2.81-2.27-3.84-6.05-6.85-8.1-2.21-1.56-4.47-3.06-6.74-4.5-3.74-1.44-7.81-1.67-11.68-2.63-2.11.36-4.25.56-6.39.75.06.8.16 2.41.21 3.21-2.29.68-4.68.85-7.06.84-2.05 1.84-4.01 4.29-6.98 4.51-5.31.19-10.61 1.03-15.93.45 4.38-1.33 8.97-1.76 13.43-2.72.64.11 1.93.34 2.57.45 2.08-1.74 3.81-4.14 6.47-5.02 2.28.01 4.75.75 6-1.75l1.65-.72c.31-1.9.58-3.81.91-5.71-2.4.59-4.81 1.09-7.24 1.56-.74-.53-1.48-1.07-2.21-1.6 3.32 1.04 8.32-3.62 10.38.64 1.03-2.96 1.98-5.96 2.54-9.05-4.47 2.63-9.81 1.11-14.38 3.23-1.29-7.66-8.09-13.12-8.46-21.06-4.64-6.09-4.89-14.47-1.54-21.21-2.07.02-4.14-.04-6.21-.19-.47 1.78-1.03 3.55-1.67 5.29-1.59 10.75.11 21.59 1.04 32.32.32 4.4 3.17 7.92 5.12 11.7 6.11.71 10.79-3.78 16.17-5.67-.82 1.39-2.07 2.43-3.39 3.34-.2.97-.44 1.93-.72 2.88-3.59-1.2-6.86 1.1-10.36 1.44-2.75-3.14-6.89-5.47-7.95-9.76-2.24-8.81-1.65-17.96-2.63-26.92.07-2.73-.01-5.52.92-8.13.94-2.67.68-5.85 2.85-7.97-1.11-3.26-3.91-5.23-6.78-6.83-4.23 2.36-7.93 5.98-8.98 10.88-.85 4.96-.97 11.17 3.33 14.65 1.98 1.84 4.77.93 7.16.82-.1.51-.28 1.54-.38 2.06-4.57 1.44-9.61-1.03-11.1-5.61-2.13-7.09-1.47-16.03 4.36-21.22m70.93 10.59c.5.38 1.5 1.15 2 1.53-.17 2.5-.5 5.01-1.34 7.39 1.86-.4 3.74-.71 5.64-.93.12.07.37.22.5.3 1.07-.48 1.99-.3 2.77.52.43 3.33-.13 6.71.41 10.04 1.49 3.32 5.11 4.31 8.21 5.46.85-3.72 1.44-7.57 1-11.39-1.02-4.24 1.99-9.1 6.31-9.89-1.07-3.21-3.41-5.61-6.78-6.23-4.27 1.74-6.86 5.55-8.34 9.77-.84-.24-1.65-.53-2.45-.89 2.49-4.52 5.54-10.67 11.62-10.32 3.28-.49 5.46 2.26 7.44 4.36-1.5-3.93-4.71-6.87-7.78-9.62-2.34-2.1-5.69-2.63-8.68-1.85-4.83 2.42-8.86 6.55-10.53 11.75m37.13 2.31c-5.63 4.84-7.52 13.51-4.64 20.3 1.18 2.96 4.7 5.77 7.93 4.12 4.26-1.56 6.96-5.76 7.64-10.11.43-3.53 2.23-7.37.48-10.8-.93-2.26-2.96-3.7-4.82-5.13-2.21.4-4.85-.1-6.59 1.62m-16.65 10.6c.74 3.62-.29 7.25-.32 10.88-.01 3.33-.2 6.65-.64 9.95-1.68-2.51-1.03-5.63-1.32-8.47-1.96-.29-3.91-.59-5.85-1-2.4 1.26-5.18.81-7.75.53 1.98-2.48 5.52-.89 8.13-1.46-1.83-1.2-3.81-2.11-5.74-3.13l.41-.31c1.3-2.3-.61-5.64-.12-8.32a63.85 63.85 0 00-3.36-1.8c-3.98 2.3-8.84.14-12.8 2.38-4.74 2.36-9.42 4.93-13.39 8.48.47 1.16.97 2.32 1.48 3.46 0 .63.01 1.87.01 2.49 2.25-1.29 4.6-2.4 7.05-3.25 2.89 1.18 6.1-.02 9.02 1.13l-.84-2.57-.45 1.3c-2.32-1.4-3.05-3.74-2.99-6.29 1.36 1.48 2.78 2.9 4.23 4.3l-.59.65c3.24.15 6.5.53 9.43 2.05-1.84 4.48-7.63-4.45-8.84.82 1.32 1.39 1.82 3.21 1.66 5.09.5.4 1.5 1.21 2 1.62.56 2.91.83 5.88 1.08 8.84-.51.17-1.54.53-2.05.71-.3 1.17-.61 2.35-.91 3.53l2.42-.5c-2.23 3.57-6.72 4.56-9.46 7.65 4.07 2.57 7.51 6.01 9.86 10.22 2.02-3.47 4.78-6.45 6.68-9.99 1.24-2.43 3.35-4.22 5.43-5.91-.01.66-.02 1.98-.03 2.64-3.04 3.24-4.99 7.26-7.94 10.57-2 2.42-3.26 5.32-4.75 8.06.68.84 1.35 1.67 2.03 2.5-1.23 3.48-.38 7.69-3 10.6-1.7 2.42-4.39 3.8-7.02 4.97-3.63 1.51-6.44 4.34-9.57 6.63.32-1.04.98-3.12 1.3-4.16-2.32.87-4.66 1.71-7.01 2.48-1.17 1.65-2.92 3.2-2.88 5.39.08 5.47 2.48 10.63 2.35 16.15 10.94-6.09 21.68-12.53 32.58-18.7 1.62-1.01 3.45-1.8 4.69-3.3-.54-13.03-.23-26.09-.41-39.14-.05-2.53-.18-5.08-.85-7.53.96-.04 1.92-.07 2.88-.09.51 4.57-.57 9.12-.26 13.7-.01 11.52.56 23.08.1 34.57-12.7 7.78-25.79 14.98-38.67 22.49-.21 2.92-.27 5.9-1.41 8.64 15.1-9.47 30.62-18.28 45.7-27.76.63-10.96.5-22 .64-32.99.24-4.13-1.38-7.91-2.94-11.63-.51-5.68-.4-11.46.12-17.15.44.7.87 1.41 1.29 2.14-1.17 4.83.22 9.76.24 14.64 1.47 2.93 3.26 5.7 4.71 8.64 1.97 1.6 4.36 2.51 6.69 3.45 2.48-4.84 7.82-8.29 8.28-14.04-.53-6.33-3.05-12.42-2.58-18.84-1.49-1.08-3.26-2.03-3.98-3.85-3.17 4.59 1.99 9.25 3.07 13.52-1.52-2.49-5-3.92-5.58-7.01-.82-3.08-.45-6.3-.82-9.43l.65 2.37c.44-.64.88-1.28 1.31-1.93-2.13-5.6-1.17-12.07 1.72-17.21-2.39.03-4.76-.23-7.14-.36-2.24 2.15-5.46 4.32-4.98 7.89m-48.07 8.45l2.73.12c-.04.42-.11 1.27-.15 1.7-3.13.26-6.36-.28-9.36.9-2.21.86-5.63 1.25-5.92 4.23 2.34-.83 4.62-1.83 7.03-2.42-3.23 2.13-6.89 4.02-8.71 7.63.3.65.9 1.96 1.2 2.61 3.75-.76 7.64-.83 11.29-2.06 1.98-1.4 2.8-3.79 3.95-5.82.39.34 1.16 1 1.54 1.33-4.04 4.32-2.34 10.46-4.52 15.52-.71.78-1.41 1.58-2.1 2.4 2.03.13 4.14-.14 6.12.43 4.7 1.26 9.74 1.12 14.2 3.26 1.06-2.73 2.95-5.35 5.95-6.08-.14-2.54.79-4.87 1.88-7.1.29-1.62.67-3.22 1.08-4.81-1.06-1.46-2.55-2.83-2.4-4.8-.91-.96-1.82-1.92-2.71-2.9-1.94.59-3.95.91-5.88 1.52-2.04 3.93-2.98 8.3-3.27 12.69-1.7 1.86-3.47 3.67-5.55 5.11 1.05-2.22 2.6-4.14 3.88-6.21.78-4.59 1.86-9.12 3.63-13.44-3.31 1.57-8.39 2.25-9.08 6.6-.56 1.04-.38 3.62-2.17 2.55.3-2.39 1.68-4.37 2.99-6.3-1.04-.01-3.11-.01-4.15-.02 1.29-1.08 2.69-2.02 3.97-3.12-2.44-6.49 4.73-10.51 9.34-13.16-6.6-.38-11.99 4.05-14.81 9.64m-47.9 46.34c-4.55 2.01-6.24 7.19-10.37 9.7-1.07.94-2.8 1.72-2.73 3.39.54 4.14 2.91 7.72 3.71 11.79.29 3.79 3.54 6.37 4.25 10.04 1.73 7.85 5.74 14.85 9.11 22.06-.79 3.71.96 8.06-1.65 11.27-2.29 2.79-4.53 5.62-6.32 8.77-1.77 3.24-5.64 4.21-8.13 6.72-.79 1.34-1.38 2.79-2.1 4.17 1.05 1.36 2.29 2.62 3.97 3.14 2.71-2.57 6.43-2.25 9.81-2.87 3.54-2.52 6.22-6.42 10.58-7.69 3.46-1.01 8.39-1.68 9.11-6.03.61-6-3.47-10.89-5.92-15.98-1.28-2.37-.7-5.41-2.53-7.53-.19-3.59.89-7.49-.97-10.79-2.11-4.76-3.71-9.73-5.18-14.72-.84-1.94.7-3.68 1.35-5.41 3.82-2.46 8.77-1.93 12.37-4.76 1.93-1.5 4.65-2.17 5.99-4.32 1.56-4.06-.47-8.26-2.49-11.75-2.22-3.52-6.48-4.75-10.17-6.08-2.49 4.23-7.97 4.22-11.69 6.88m5.56 22.14c2.26 5.66 3.97 11.53 6.57 17.05 2.13 4.17 1.22 8.96 2.03 13.42 3.86.15 7.56 1.22 11.29 2.11-.22-8.04 1.43-16.31-.6-24.17.75-.51 1.49-1.01 2.23-1.51-4.1-1.93-8.56-2.78-13.06-3.06-2.17.1-3.72-1.43-5.22-2.75 0-.67.02-2.01.03-2.68-.82.4-2.45 1.19-3.27 1.59m21.05 9.08l1.12 2.93c.1 7.51-.15 15.03-.5 22.54-4.37.27-8.62-.88-12.52-2.79.34 4.98 3.77 8.74 5.81 13.06 3.07.48 6.49-.01 9.04 2.14 1.89-4.87 2.84-10.23 1.74-15.39-1.88-5.31-2.12-11.06-1.38-16.6.25-2.81.98-6.21-1.71-8.14-.54.74-1.07 1.49-1.6 2.25m19.87 43.53c1.48.51 2.95 1.04 4.43 1.55 2.3-1.3 4.56-3.75 7.46-2.87.17-2.2.4-4.38.55-6.58-4.07-1.29-8.89-1.43-11.89-4.88-.47 4.24-.75 8.51-.55 12.78z"/><path d="M90.83 60.38c1.76-.72 3.59-1.28 5.4-1.86l.4 2.34c-1.95-.02-3.88-.18-5.8-.48zM110.09 73.23c.1-.84.19-1.68.29-2.51l3.71.2c2.38 1.82 5.37 2.25 8.21 2.96-2.35 1.39-5.49 1.35-7.59-.5-1.54-.09-3.08-.13-4.62-.15zM108.7 76.62c1.43.16 2.86.36 4.29.56 1-.52 2-1.02 3.01-1.53.1.7.31 2.08.41 2.78.76.9 1.51 1.81 2.24 2.75-3.33-1.4-7.76-1.31-9.95-4.56zM27.66 117.55c.33.03 1 .09 1.33.13 2.37 3.33 5.77 1.11 8.53-.23.56 1.14.4 2.48-.94 2.93-2.85 1.93-6.41.71-8.99-1.07.02-.44.05-1.32.07-1.76zM26.35 129.49c.53-2.08 1.33-4.1 2.79-5.72.06 1.42.04 2.84-.05 4.26.84 1.51 3.36 2.7 2.48 4.67-1.86-.87-3.49-2.13-5.22-3.21zM71.03 126.87c.46-.08 1.38-.25 1.84-.34-1.06 2.55-2.05 5.14-2.78 7.81-.35.09-1.06.27-1.41.37-.27-2.89.55-5.58 2.35-7.84zM74.74 142.92c1.9 6.05 1.92 12.46.58 18.62h-.78c-.16.86-.47 2.59-.63 3.46.41-3.97.27-8.03 1.51-11.86.18-3.43-.43-6.82-.68-10.22zM44.49 170.69c2.53 2.55 3.22 6.7.53 9.41.04.81.11 2.45.15 3.26-1.75.59-3.52 1.11-5.31 1.51.95-1.14 1.93-2.26 2.98-3.3 1.67-3.41 1.69-7.18 1.65-10.88zM36.23 176.07c.41-1.34 1.8-1.67 2.93-2.17-2.09 3.91-3.89 8.21-7.23 11.25.83-3.28 2.77-6.1 4.3-9.08zM67.46 178.2c3.46 1.55 3.6 5.28 3.07 8.51-.43-.11-1.28-.34-1.71-.46-.03-2.75-.65-5.41-1.36-8.05zM49.12 204.04c1.08-1.13 1.91-3.23 3.85-2.84 3.68.86 7.96-1.61 11.02 1.28-3.9.48-7.87 1.45-11.79.69-.77.22-2.31.65-3.08.87z"/></g></svg>