<svg width="208pt" height="300" viewBox="0 0 208 225" xmlns="http://www.w3.org/2000/svg"><g fill="#FFF"><path d="M0 0h133.55c-1.85 11.43-2.44 23.06-4.12 34.52-.52.04-1.57.13-2.1.18-.7-1.06-1.39-2.11-2.08-3.17-3.72-.08-7.43-.3-11.15-.37l-.99 3.09c-5.28-.17-10.56-.46-15.84-.67-.42 1.8-.59 3.64-.58 5.48 4.66.58 9.33.96 13.99 1.44-1.16 4.5-1.49 9.18-3.06 13.56-.91 4.35-2.63 8.55-2.74 13.04-.13 3.73-2.01 7.18-1.91 10.94.44 2.95 1.82 5.81 1.21 8.86-.68 4.44.63 8.8 1.89 13-2.7 1.87-5.38 3.78-8.19 5.5-3.21.58-6.52 1.16-9.03 3.44-4.58-.54-9.4-1.82-13.82.17-4.57 1.85-9.47.5-14.17.18-1.98.65-3.74 2.04-5.88 2.14-6.39.37-12.52 2.66-18.21 5.47-3.25 2.02-6.27 4.41-9.65 6.23-2.92 3.7-2.9 8.67-1.98 13.07-.31 4.68 1.12 9.21.83 13.88-.19 7.52 3.24 14.52 3.46 22 .21 3.99-1.77 7.95-4.88 10.41-2.21 1.8-4.14 3.9-5.87 6.16-2.09 3.12-6.41 3.53-8.55 6.6-.55 1.49-.84 3.05-1.24 4.59 1.45 1.12 2.79 3.09 4.89 2.6 3.07-.61 6.13-1.35 9.28-1.46 2.78-.12 4.54-2.61 6.76-3.96 2.35-1.89 5.46-2.17 8.29-2.81-2.84 3.61-5.85 7.74-10.76 8.42-3.07 1.77-7.72 3.23-8 7.36 4.23 2.53 8.32 5.98 13.56 5.79 4.52-1.64 9.31-2.62 13.47-5.13 4.62-2.85 10.34-2.12 15.18-4.21 4.6-3.88 2.46-10.64.21-15.22-2.83-4.88-3-10.57-3.64-16.02-.4-4.75.93-9.52-.07-14.24-.54-5.82-4.31-11.24-2.52-17.19.01.57.04 1.71.06 2.27 5.11-3.31 11.17-1.02 16.69-2.59 1.61-.39 3.2-.87 4.82-1.28.13.39.38 1.17.51 1.56 2.89-1.72 6.08-2.96 9.42-3.43 3.42-.28 6.96.21 10.28-.91 2.89-.67 5.1-2.73 7.29-4.6.14-.62.41-1.87.55-2.49l2.89-.12c.33-.46.98-1.39 1.31-1.85 4.26-1.57 9-2.81 13.39-.96 9.99 3 19.58-2.37 29.14-4.42 1.91-1.13 3.56-2.68 5.64-3.54-.77-.37-1.54-.74-2.3-1.12-4.3 3.77-10.12 3.79-15.13 6.01-6.35 2.54-13.64 2.49-19.88-.35.01-.19.02-.58.03-.77 2.53-.51 5.15-.59 7.64-1.33 1.84-1.94 3.58-4.09 6.24-4.94.14-.4.41-1.2.55-1.6 1.83-.53 3.64-1.1 5.45-1.71-.93.06-1.85.13-2.77.21l-3.23-1.04c-.28-.45-.86-1.35-1.14-1.8.34-.98.68-1.97 1.01-2.95-1.23.92-2.37 1.97-3.06 3.38-2.66-.66-5.27-1.55-7.99-1.88 2.05 2.72 5.5 2.27 8.48 2.22.51 1.47 1.68 2.45 2.93 3.28-1.28.63-2.51 1.36-3.52 2.37-.25-.2-.75-.62-1-.82-.08.33-.25 1-.33 1.33-.92.68-1.84 1.35-2.76 2.03-2.93.38-5.78 1.21-8.5 2.37-.02.43-.05 1.3-.06 1.73l-.27.73c-3.46.5-6.91 1.16-10.09 2.67 1.09-4.29-.73-8.51-2.97-12.08 2.6.51 5.23.93 7.89.72-2.49-1.69-5.56-1.84-8.43-2.3.1.55.31 1.66.41 2.22-2.36-5.28-8.79-6.05-13.02-9.25 1.23-.49 2.46-.98 3.73-1.37-.07.41-.19 1.25-.26 1.66 1.88-.01 3.53-1.16 5.29-1.68l.24-1.91c5.39-3.52 10.39-10 17.63-7.9-.52 1.74-.57 3.86 1.5 4.48 2.98 1.41.36 4.68-.17 6.82-1.56 1.17-2.97 2.56-3.62 4.44 3.9-1.1 6.9-4.67 7.36-8.67-.12-2.9-3.65-3.82-4.16-6.51 2.28-.01 4.52-.43 6.76-.8 2.42.22 4.8.83 7.25.73-.61 2.48.46 5.05 1.91 7.04 2.58 3.64 5.08 7.34 7.49 11.09 1.62-3.41-.38-6.61-2.66-9.09-3.66-4.07-6.55-9.36-5.84-15 .48-6.11-3.46-12-1.44-18.1.16-4.66-1.82-9.24-1.31-13.99.81-8.68-.99-17.49 1.1-26.06 3.74-1.4 7.99-1.33 11.76-.09-1.73 1.33-3.41 2.7-4.98 4.21 1.57 2 3.44 3.73 5.64 5.02-1.79 1.04-3.72 1.75-5.81 1.69-1.81 10.92 7.19 20.31 5.63 31.31-.02 3.31-2.4 7.71.69 10.18.19-1.16.81-2.02 1.85-2.58-2.67-1.41-.75-4.56.06-6.53-.19-5.1-1.98-9.93-2.76-14.94-1.75-4.23-3.43-8.53-4.12-13.09.18-2.37 3.34-2.32 4.78-3.74 1.98-1.84 4.58-2.7 6.76-4.25-2.69-.27-5.46-.02-8.1-.69-.14-.64-.43-1.93-.57-2.58 6.05.68 12.17.31 18.2 1.27.08.33.22 1.01.3 1.35-2.89.58-5.67 1.7-8.66.73-.69.68-1.38 1.36-2.06 2.05 4.09.01 8.16.57 12.25.58.01-2.28.01-4.55-.01-6.83-5.62-.16-11.23-.49-16.84-.91-.41-1.5-1.02-2.93-1.73-4.31-4.37-1.09-9.1-2.11-13.28.24 2.03-10.55 2.34-21.34 4.19-31.91H208v225H0V0m138.71 71.05c-.62-.14-1.86-.43-2.48-.58 1.03.42 2.06.82 3.1 1.22.47 2.49-.15 4.99-.13 7.49.29 2.79-1.97 4.97-2.02 7.73.2 1.71 1.91 2.34 3.16 3.14.3 2.08 1.22 3.98 1.8 5.98-.84.58-1.68 1.17-2.52 1.76-.15 1.71-1.17 3.85.39 5.2 1.6 1.64 2.86 3.93 5.23 4.53.91-3.83-5.51-4.77-3.87-8.86 1.21-.43 2.88-.34 3.47-1.74-.78-4.12-4-7.11-5.29-11 2.36-2.78 1.79-6.56 1.79-9.93.06-2.51-1.66-4.51-2.83-6.57l.2 1.63m8.84 15.16c3.44 4.36 2.65 10.25 3.55 15.42-.03 2.98 2.25 5.1 3.83 7.38.19 2.74.16 5.5-.02 8.24.53-.3 1.58-.9 2.1-1.2 1.82-4.44-.61-8.88-3.42-12.22-.35-2.6-.28-5.23-.49-7.83 4-.17 8.01 1.37 10.91 4.11 2.85 3.71 1.82 8.6 1.95 12.93-.31 3.92-3.91 6.05-7 7.78 2.31 1.56 4.89-.82 6.51-2.36 4-5.28 2.36-12.21 1.13-18.14-2.41-5.14-8.76-4.98-13.33-6.58-1.41-3.14-1.74-6.75-4.26-9.38-.5.6-.99 1.22-1.46 1.85m-37.65 18.85c-.99.49-1.98.98-2.96 1.47-1.56-.64-3.15-1.19-4.83-1.4-.1 1.82 1.94 1.63 3.06 2.22 2.32-.65 4.64-1.34 6.79-2.43.46-1.46.92-2.92 1.36-4.38-1.94.75-2.47 2.9-3.42 4.52m21.69-.16c-1.33-2.26-4.28-2.03-6.16-3.6.17 3.27 3.58 3.52 6.16 3.6m-5.65 2.27c.25 2.07 3.29 5.37 4.83 2.74-1.75-.64-3.28-1.73-4.83-2.74m-18.44.69c1.94 1.18 3.66 3.7 6.2 3.08-1.22-2.44-3.44-3.68-6.2-3.08m.97 6.34c.96.78 2.69 3.2 4.13 1.94.97-2.22-2.78-2.64-4.13-1.94m12.53-.23c1.23 1.54 2.62 3.93 4.94 2.74-1.41-1.27-2.98-2.53-4.94-2.74m34.9 15.49c-8.34 1.85-16.81 3.25-24.98 5.79-14.59 4.12-29.34 7.64-43.79 12.23-6.86 1.6-13.33 4.47-20.11 6.36-4.16 1.46-7.02-3.01-10.84-3.5.8 2.52 3.55 3.44 5.68 4.57 5.54 3.27 11.25-1.4 16.78-2.34.19 8.94.25 17.88 1.14 26.79l1.53-.14c-.1-9.1-.3-18.19-.94-27.26 2.14-.86 4.82-.81 6.5-2.53 4.95-.33 9.48-2.52 14.26-3.67 10.58-2.48 20.99-5.59 31.53-8.25.4 5.07.03 10.16.47 15.22.49.12 1.47.37 1.95.49.1-5.27-.23-10.54-.81-15.79 2.27-1.31 4.89-1.67 7.43-2.17.47 5.14-.54 10.91 1.94 15.59 1.46-5.21-.01-10.76-.1-16.1 4.73-1.41 9.7-2.03 14.31-3.85 1.87-.96 4.69-2.03 4-4.7-1.76 1.48-3.59 2.96-5.95 3.26m-68.15 23.42c.16 3.42.13 6.86.64 10.26.29 1.29.05 3.07 1.67 3.61.19-5.85.09-11.74-.95-17.52-.91.97-1.85 2.2-1.36 3.65z"/><path d="M114.53 41.23c-1.81-2.73-.4-5.55 1.17-8.01 2.83.02 5.65.19 8.45.59-1.03 1.85-2.08 3.7-2.84 5.68.61.82 1.22 1.65 1.83 2.47-1.12.26-2.23.53-3.34.8-3.19 5.98-1.28 13-.47 19.34-.77 3.86-.91 7.85-2.42 11.54-.59.08-1.75.24-2.34.31-.55 5.06 2.35 9.65 1.79 14.73l1.86.37c.07-2.71.08-5.42.25-8.12 1.46 2.52 3.09 5.07 3.51 8.02.45 2.68 1.12 5.66 3.73 7.03-4.28 1.96-8.39-1.26-12.76-.66.47-1.49 1.61-2.21 3.41-2.16-.46-2.91-2.14-5.42-3.86-7.73-.7-1.28-2.26-1.08-3.48-1.26.82 1.27 2.02 2.16 3.32 2.9.2 1.76 1.04 3.34 1.53 5.02-.25 1.22-1 2.27-1.23 3.51-1.5.94-3.06 1.8-4.64 2.6-1.52-2.86-2.28-6.05-1.83-9.28.51-4.4-1.95-8.51-1.56-12.89.29-2.57 2.74-4.45 2.46-7.17-.26-9.44 4.16-18.1 4.94-27.42.63-.05 1.89-.16 2.52-.21m-5.35 30.1c1.12 2.1 2.15 4.28 3.68 6.13l1.3-.39c-.62-2.29-1.88-7.38-4.98-5.74zM98.3 36.65c.16-.29.49-.86.65-1.14 4.38-.12 8.74.58 13.11.9-.64 1.07-1.55 2.47-3.06 1.86-3.52-.71-7.65.62-10.7-1.62z"/><path d="M123 38.14c1.96-2 4.79-1.43 7.3-1.5.9 4.32-5.16 2.81-7.3 1.5zM123.18 44.19c.47-3.7 4.1-2.92 6.77-2.41.39 10.03-.75 20.23.36 30.3.11 3.88-.38 7.91 1.21 11.58 2.02 4.54-.79 9.5 1.23 14.08-.95-.49-1.9-.99-2.84-1.49-1.26-.22-2.52-.41-3.79-.57-1.31-3.34-1.31-7.01-2.59-10.35-1.27-2.74-3.65-4.71-6.28-6.07 2.51-3.96 3.04-8.7 3.68-13.24 1-6.35-2.03-12.61-.92-18.93.55-1.42 2.02-2.06 3.17-2.9zM74.34 111.01c5.36-2.26 11.14-.71 16.63-.01 3 1.3 6.07 2.45 8.99 3.9 3.48 2.63 5.14 6.98 6.23 11.08.01 3.47-2.71 5.99-4.59 8.63-2.42 2.67-6.11 3.45-9.57 3.16-4.49-.07-8.53 2.15-12.77 3.29 2.01-8.38-2.9-16.9-9.04-22.32-2.12-2.04-4.91.54-7.16.05.45-2.06-1.08-4.53.41-6.24-.38-.39-1.13-1.18-1.51-1.57 4.2.28 8.4.77 12.62.61-1.16 1.94-2.64 3.71-3.24 5.93 3.09.05 6.28.7 9.27-.42-1.42 2.58 2.08 1.61 3.29 2.22 3.02.93 4.99 3.52 4.6 6.73.45-1.14.96-2.26 1.53-3.34-.19-4.46-5.54-6.35-9.29-5.35l.21-1.51c-2.42.1-4.85.17-7.28.12.74-1.92 3.51-1.49 4.27-3.53-1.29-.22-2.6-.54-3.6-1.43m5.52 2.08c.26.28.76.82 1.01 1.1 3.59 1.29 7.18 2.6 10.57 4.37.05-.33.16-1 .22-1.33-3.03-3.07-7.77-3.35-11.8-4.14zM31.57 122.38c7.97-5.67 17.49-9.91 27.48-9.35 2.4 1.1 2.8 4.49 1.91 6.7-5.06 2.51-11.2 3.62-15.18 8.01-2.43 2.67-6.85 3.3-7.88 7.21-3.06 4.82.56 10.01.57 15.03-.11 5.58 3.02 10.56 3.1 16.14.51 6.94 4.91 13.86 2.2 20.79-.78 2.07-2.49 3.58-3.85 5.27-3.74.39-7.77.44-10.97 2.72-2.66 1.42-4.59 4.58-7.95 4.29-3.57-.53-6.79 2.96-10.26.94-1.05-2.65 3.86-1.31 3.38-3.94-.87.23-2.62.68-3.49.9 1.25-3.31 4.69-3.76 7.37-5.22 2.67-2.9 4.76-6.4 8.16-8.59 4.13-2.54 4.86-7.93 4.73-12.36-.46-5.62-1.79-11.14-3.5-16.5-1.24-4.08.22-8.34-.46-12.5-.41-3.17 1.15-6.41-.23-9.46-1.63-3.93.78-8.84 4.87-10.08m2.91.95c-1.52 3.72 5.41 7.25 7.37 3.49-1.83-.18-4.13.47-5.39-1.28-.71-.67-.79-2.23-1.98-2.21m-4.86 6.79c.55 1.82 1.11 3.64.6 5.55l1.53-.42a9.033 9.033 0 00-.74 5.35c1.78-1.42 1.45-3.99 2.55-5.85l-1.51.18c2.16-1.53-.72-7.44-2.43-4.81m10.66 48.06c1.78 4.59-2.27 8.25-4.32 11.9 3.63-.63 4.33-4.59 6.34-7.07-.12-1.82-.07-3.99-2.02-4.83m-14.18 12.6c2.36-1.85 5.16-3.68 6.48-6.44-2.92 1.22-5.09 3.65-6.48 6.44z"/><path d="M51.54 125.33c5.94-2.17 11.61-6.17 18.26-5.31 4.43 4.57 8.13 10.49 8.42 16.97.58 4.13-4.47 4.31-7.28 5.2-6.07 2.23-12.79-1.97-18.43 1.9.91 5.11 2.66 10.01 3.93 15.03 1.49 6.27-.67 12.73.76 19.01.56 2.91.4 5.95 1.22 8.8 1.63 3.63 2.89 7.4 4.1 11.19.5 2.25.65 5.38-1.76 6.61-3.98 1.37-8.22 1.71-12.26 2.89-4.06 1.18-7.37 4.26-11.64 4.82-1.69.29-3.27.99-4.92 1.43-3.03-.57-6.44-.94-7.92-4.07-.75.04-2.26.11-3.01.15-.84-2.55 2.17-3.02 3.69-4.22 2.35-1.74 5.32-2.01 7.92-3.17 3.16-2.21 5.35-5.47 7.54-8.58 1.92-2.93 6.11-4.23 6.44-8.12-.43-6.05-1.87-11.98-3.19-17.89-.76-4.72-.45-9.79-2.86-14.09-1.13-2.85.38-6.02-.85-8.84-.78-2.12-1.13-4.37-1.55-6.59 1.53-2.32 1.97-5.67 4.82-6.81 3.42-1.33 5.12-5.02 8.57-6.31m6.35 7.57c2.76.33 4.75-1.79 6.85-3.2 2.02-1.51 4.29-2.69 6.17-4.39-5.01 1.04-9.52 3.93-13.02 7.59m-9.52-.75c-1.3 2.86 3.74 4.11 4.7 1.43-1.79.45-3.25-.56-4.7-1.43m-5.97 11.99c2.63-1.01 2.85-3.69 2.71-6.15.75-.8 1.57-1.6 1.69-2.75-4.28.78-3.31 5.74-4.4 8.9m2.86 9.09c.56.6.56.6 0 0m4.32 5.71c1.37 5.41 1.28 11.34 4.18 16.28-.06-7.24-3.67-14.06-3.16-21.39-1.53 1.15-1.06 3.45-1.02 5.11m5 38.59c-1.25.43-2.86.66-2.51 2.39 1.9-.68 5.88-1.95 4.51-4.55-1.34-.25-1.43 1.34-2 2.16m-12.68 6.58c1.89-2 3.57-4.24 4.75-6.74-2.52 1.13-4.64 3.97-4.75 6.74m-15.04 3.32c2.28 1.05 4.53 2.43 7.13 2.44-.53-2.57-5.08-4.29-7.13-2.44z"/></g><g fill="#333"><path d="M133.55 0h2.15c-1.85 10.57-2.16 21.36-4.19 31.91 4.18-2.35 8.91-1.33 13.28-.24.71 1.38 1.32 2.81 1.73 4.31 5.61.42 11.22.75 16.84.91.02 2.28.02 4.55.01 6.83-4.09-.01-8.16-.57-12.25-.58.68-.69 1.37-1.37 2.06-2.05 2.99.97 5.77-.15 8.66-.73-.08-.34-.22-1.02-.3-1.35-6.03-.96-12.15-.59-18.2-1.27.14.65.43 1.94.57 2.58 2.64.67 5.41.42 8.1.69-2.18 1.55-4.78 2.41-6.76 4.25-1.44 1.42-4.6 1.37-4.78 3.74.69 4.56 2.37 8.86 4.12 13.09.78 5.01 2.57 9.84 2.76 14.94-.81 1.97-2.73 5.12-.06 6.53-1.04.56-1.66 1.42-1.85 2.58-3.09-2.47-.71-6.87-.69-10.18 1.56-11-7.44-20.39-5.63-31.31 2.09.06 4.02-.65 5.81-1.69-2.2-1.29-4.07-3.02-5.64-5.02 1.57-1.51 3.25-2.88 4.98-4.21-3.77-1.24-8.02-1.31-11.76.09-2.09 8.57-.29 17.38-1.1 26.06-.51 4.75 1.47 9.33 1.31 13.99-2.02 6.1 1.92 11.99 1.44 18.1-.71 5.64 2.18 10.93 5.84 15 2.28 2.48 4.28 5.68 2.66 9.09-2.41-3.75-4.91-7.45-7.49-11.09-1.45-1.99-2.52-4.56-1.91-7.04-2.45.1-4.83-.51-7.25-.73-2.24.37-4.48.79-6.76.8.51 2.69 4.04 3.61 4.16 6.51-.46 4-3.46 7.57-7.36 8.67.65-1.88 2.06-3.27 3.62-4.44.53-2.14 3.15-5.41.17-6.82-2.07-.62-2.02-2.74-1.5-4.48-7.24-2.1-12.24 4.38-17.63 7.9l-.24 1.91c-1.76.52-3.41 1.67-5.29 1.68.07-.41.19-1.25.26-1.66-1.27.39-2.5.88-3.73 1.37 4.23 3.2 10.66 3.97 13.02 9.25-.1-.56-.31-1.67-.41-2.22 2.87.46 5.94.61 8.43 2.3-2.66.21-5.29-.21-7.89-.72 2.24 3.57 4.06 7.79 2.97 12.08 3.18-1.51 6.63-2.17 10.09-2.67l.27-.73c.01-.43.04-1.3.06-1.73 2.72-1.16 5.57-1.99 8.5-2.37.92-.68 1.84-1.35 2.76-2.03.08-.33.25-1 .33-1.33.25.2.75.62 1 .82 1.01-1.01 2.24-1.74 3.52-2.37-1.25-.83-2.42-1.81-2.93-3.28-2.98.05-6.43.5-8.48-2.22 2.72.33 5.33 1.22 7.99 1.88.69-1.41 1.83-2.46 3.06-3.38-.33.98-.67 1.97-1.01 2.95.28.45.86 1.35 1.14 1.8l3.23 1.04c.92-.08 1.84-.15 2.77-.21-1.81.61-3.62 1.18-5.45 1.71-.14.4-.41 1.2-.55 1.6-2.66.85-4.4 3-6.24 4.94-2.49.74-5.11.82-7.64 1.33-.01.19-.02.58-.03.77 6.24 2.84 13.53 2.89 19.88.35 5.01-2.22 10.83-2.24 15.13-6.01.76.38 1.53.75 2.3 1.12-2.08.86-3.73 2.41-5.64 3.54-9.56 2.05-19.15 7.42-29.14 4.42-4.39-1.85-9.13-.61-13.39.96-.33.46-.98 1.39-1.31 1.85l-2.89.12c-.14.62-.41 1.87-.55 2.49-2.19 1.87-4.4 3.93-7.29 4.6-3.32 1.12-6.86.63-10.28.91-3.34.47-6.53 1.71-9.42 3.43-.13-.39-.38-1.17-.51-1.56-1.62.41-3.21.89-4.82 1.28-5.52 1.57-11.58-.72-16.69 2.59-.02-.56-.05-1.7-.06-2.27-1.79 5.95 1.98 11.37 2.52 17.19 1 4.72-.33 9.49.07 14.24.64 5.45.81 11.14 3.64 16.02 2.25 4.58 4.39 11.34-.21 15.22-4.84 2.09-10.56 1.36-15.18 4.21-4.16 2.51-8.95 3.49-13.47 5.13-5.24.19-9.33-3.26-13.56-5.79.28-4.13 4.93-5.59 8-7.36 4.91-.68 7.92-4.81 10.76-8.42-2.83.64-5.94.92-8.29 2.81-2.22 1.35-3.98 3.84-6.76 3.96-3.15.11-6.21.85-9.28 1.46-2.1.49-3.44-1.48-4.89-2.6.4-1.54.69-3.1 1.24-4.59 2.14-3.07 6.46-3.48 8.55-6.6 1.73-2.26 3.66-4.36 5.87-6.16 3.11-2.46 5.09-6.42 4.88-10.41-.22-7.48-3.65-14.48-3.46-22 .29-4.67-1.14-9.2-.83-13.88-.92-4.4-.94-9.37 1.98-13.07 3.38-1.82 6.4-4.21 9.65-6.23 5.69-2.81 11.82-5.1 18.21-5.47 2.14-.1 3.9-1.49 5.88-2.14 4.7.32 9.6 1.67 14.17-.18 4.42-1.99 9.24-.71 13.82-.17 2.51-2.28 5.82-2.86 9.03-3.44 2.81-1.72 5.49-3.63 8.19-5.5-1.26-4.2-2.57-8.56-1.89-13 .61-3.05-.77-5.91-1.21-8.86-.1-3.76 1.78-7.21 1.91-10.94.11-4.49 1.83-8.69 2.74-13.04 1.57-4.38 1.9-9.06 3.06-13.56-4.66-.48-9.33-.86-13.99-1.44-.01-1.84.16-3.68.58-5.48 5.28.21 10.56.5 15.84.67l.99-3.09c3.72.07 7.43.29 11.15.37.69 1.06 1.38 2.11 2.08 3.17.53-.05 1.58-.14 2.1-.18 1.68-11.46 2.27-23.09 4.12-34.52m-19.02 41.23c-.63.05-1.89.16-2.52.21-.78 9.32-5.2 17.98-4.94 27.42.28 2.72-2.17 4.6-2.46 7.17-.39 4.38 2.07 8.49 1.56 12.89-.45 3.23.31 6.42 1.83 9.28 1.58-.8 3.14-1.66 4.64-2.6.23-1.24.98-2.29 1.23-3.51-.49-1.68-1.33-3.26-1.53-5.02-1.3-.74-2.5-1.63-3.32-2.9 1.22.18 2.78-.02 3.48 1.26 1.72 2.31 3.4 4.82 3.86 7.73-1.8-.05-2.94.67-3.41 2.16 4.37-.6 8.48 2.62 12.76.66-2.61-1.37-3.28-4.35-3.73-7.03-.42-2.95-2.05-5.5-3.51-8.02-.17 2.7-.18 5.41-.25 8.12l-1.86-.37c.56-5.08-2.34-9.67-1.79-14.73.59-.07 1.75-.23 2.34-.31 1.51-3.69 1.65-7.68 2.42-11.54-.81-6.34-2.72-13.36.47-19.34 1.11-.27 2.22-.54 3.34-.8-.61-.82-1.22-1.65-1.83-2.47.76-1.98 1.81-3.83 2.84-5.68-2.8-.4-5.62-.57-8.45-.59-1.57 2.46-2.98 5.28-1.17 8.01M98.3 36.65c3.05 2.24 7.18.91 10.7 1.62 1.51.61 2.42-.79 3.06-1.86-4.37-.32-8.73-1.02-13.11-.9-.16.28-.49.85-.65 1.14m24.7 1.49c2.14 1.31 8.2 2.82 7.3-1.5-2.51.07-5.34-.5-7.3 1.5m.18 6.05c-1.15.84-2.62 1.48-3.17 2.9-1.11 6.32 1.92 12.58.92 18.93-.64 4.54-1.17 9.28-3.68 13.24 2.63 1.36 5.01 3.33 6.28 6.07 1.28 3.34 1.28 7.01 2.59 10.35 1.27.16 2.53.35 3.79.57.94.5 1.89 1 2.84 1.49-2.02-4.58.79-9.54-1.23-14.08-1.59-3.67-1.1-7.7-1.21-11.58-1.11-10.07.03-20.27-.36-30.3-2.67-.51-6.3-1.29-6.77 2.41m-48.84 66.82c1 .89 2.31 1.21 3.6 1.43-.76 2.04-3.53 1.61-4.27 3.53 2.43.05 4.86-.02 7.28-.12l-.21 1.51c3.75-1 9.1.89 9.29 5.35-.57 1.08-1.08 2.2-1.53 3.34.39-3.21-1.58-5.8-4.6-6.73-1.21-.61-4.71.36-3.29-2.22-2.99 1.12-6.18.47-9.27.42.6-2.22 2.08-3.99 3.24-5.93-4.22.16-8.42-.33-12.62-.61.38.39 1.13 1.18 1.51 1.57-1.49 1.71.04 4.18-.41 6.24 2.25.49 5.04-2.09 7.16-.05 6.14 5.42 11.05 13.94 9.04 22.32 4.24-1.14 8.28-3.36 12.77-3.29 3.46.29 7.15-.49 9.57-3.16 1.88-2.64 4.6-5.16 4.59-8.63-1.09-4.1-2.75-8.45-6.23-11.08-2.92-1.45-5.99-2.6-8.99-3.9-5.49-.7-11.27-2.25-16.63.01m-42.77 11.37c-4.09 1.24-6.5 6.15-4.87 10.08 1.38 3.05-.18 6.29.23 9.46.68 4.16-.78 8.42.46 12.5 1.71 5.36 3.04 10.88 3.5 16.5.13 4.43-.6 9.82-4.73 12.36-3.4 2.19-5.49 5.69-8.16 8.59-2.68 1.46-6.12 1.91-7.37 5.22.87-.22 2.62-.67 3.49-.9.48 2.63-4.43 1.29-3.38 3.94 3.47 2.02 6.69-1.47 10.26-.94 3.36.29 5.29-2.87 7.95-4.29 3.2-2.28 7.23-2.33 10.97-2.72 1.36-1.69 3.07-3.2 3.85-5.27 2.71-6.93-1.69-13.85-2.2-20.79-.08-5.58-3.21-10.56-3.1-16.14-.01-5.02-3.63-10.21-.57-15.03 1.03-3.91 5.45-4.54 7.88-7.21 3.98-4.39 10.12-5.5 15.18-8.01.89-2.21.49-5.6-1.91-6.7-9.99-.56-19.51 3.68-27.48 9.35m19.97 2.95c-3.45 1.29-5.15 4.98-8.57 6.31-2.85 1.14-3.29 4.49-4.82 6.81.42 2.22.77 4.47 1.55 6.59 1.23 2.82-.28 5.99.85 8.84 2.41 4.3 2.1 9.37 2.86 14.09 1.32 5.91 2.76 11.84 3.19 17.89-.33 3.89-4.52 5.19-6.44 8.12-2.19 3.11-4.38 6.37-7.54 8.58-2.6 1.16-5.57 1.43-7.92 3.17-1.52 1.2-4.53 1.67-3.69 4.22.75-.04 2.26-.11 3.01-.15 1.48 3.13 4.89 3.5 7.92 4.07 1.65-.44 3.23-1.14 4.92-1.43 4.27-.56 7.58-3.64 11.64-4.82 4.04-1.18 8.28-1.52 12.26-2.89 2.41-1.23 2.26-4.36 1.76-6.61-1.21-3.79-2.47-7.56-4.1-11.19-.82-2.85-.66-5.89-1.22-8.8-1.43-6.28.73-12.74-.76-19.01-1.27-5.02-3.02-9.92-3.93-15.03 5.64-3.87 12.36.33 18.43-1.9 2.81-.89 7.86-1.07 7.28-5.2-.29-6.48-3.99-12.4-8.42-16.97-6.65-.86-12.32 3.14-18.26 5.31z"/><path d="M138.71 71.05l-.2-1.63c1.17 2.06 2.89 4.06 2.83 6.57 0 3.37.57 7.15-1.79 9.93 1.29 3.89 4.51 6.88 5.29 11-.59 1.4-2.26 1.31-3.47 1.74-1.64 4.09 4.78 5.03 3.87 8.86-2.37-.6-3.63-2.89-5.23-4.53-1.56-1.35-.54-3.49-.39-5.2.84-.59 1.68-1.18 2.52-1.76-.58-2-1.5-3.9-1.8-5.98-1.25-.8-2.96-1.43-3.16-3.14.05-2.76 2.31-4.94 2.02-7.73-.02-2.5.6-5 .13-7.49-1.04-.4-2.07-.8-3.1-1.22.62.15 1.86.44 2.48.58zM109.18 71.33c3.1-1.64 4.36 3.45 4.98 5.74l-1.3.39c-1.53-1.85-2.56-4.03-3.68-6.13zM147.55 86.21c.47-.63.96-1.25 1.46-1.85 2.52 2.63 2.85 6.24 4.26 9.38 4.57 1.6 10.92 1.44 13.33 6.58 1.23 5.93 2.87 12.86-1.13 18.14-1.62 1.54-4.2 3.92-6.51 2.36 3.09-1.73 6.69-3.86 7-7.78-.13-4.33.9-9.22-1.95-12.93-2.9-2.74-6.91-4.28-10.91-4.11.21 2.6.14 5.23.49 7.83 2.81 3.34 5.24 7.78 3.42 12.22-.52.3-1.57.9-2.1 1.2.18-2.74.21-5.5.02-8.24-1.58-2.28-3.86-4.4-3.83-7.38-.9-5.17-.11-11.06-3.55-15.42zM109.9 105.06c.95-1.62 1.48-3.77 3.42-4.52-.44 1.46-.9 2.92-1.36 4.38-2.15 1.09-4.47 1.78-6.79 2.43-1.12-.59-3.16-.4-3.06-2.22 1.68.21 3.27.76 4.83 1.4.98-.49 1.97-.98 2.96-1.47zM131.59 104.9c-2.58-.08-5.99-.33-6.16-3.6 1.88 1.57 4.83 1.34 6.16 3.6zM125.94 107.17c1.55 1.01 3.08 2.1 4.83 2.74-1.54 2.63-4.58-.67-4.83-2.74zM107.5 107.86c2.76-.6 4.98.64 6.2 3.08-2.54.62-4.26-1.9-6.2-3.08zM79.86 113.09c4.03.79 8.77 1.07 11.8 4.14-.06.33-.17 1-.22 1.33-3.39-1.77-6.98-3.08-10.57-4.37-.25-.28-.75-.82-1.01-1.1zM108.47 114.2c1.35-.7 5.1-.28 4.13 1.94-1.44 1.26-3.17-1.16-4.13-1.94zM121 113.97c1.96.21 3.53 1.47 4.94 2.74-2.32 1.19-3.71-1.2-4.94-2.74zM34.48 123.33c1.19-.02 1.27 1.54 1.98 2.21 1.26 1.75 3.56 1.1 5.39 1.28-1.96 3.76-8.89.23-7.37-3.49zM57.89 132.9c3.5-3.66 8.01-6.55 13.02-7.59-1.88 1.7-4.15 2.88-6.17 4.39-2.1 1.41-4.09 3.53-6.85 3.2zM155.9 129.46c2.36-.3 4.19-1.78 5.95-3.26.69 2.67-2.13 3.74-4 4.7-4.61 1.82-9.58 2.44-14.31 3.85.09 5.34 1.56 10.89.1 16.1-2.48-4.68-1.47-10.45-1.94-15.59-2.54.5-5.16.86-7.43 2.17.58 5.25.91 10.52.81 15.79-.48-.12-1.46-.37-1.95-.49-.44-5.06-.07-10.15-.47-15.22-10.54 2.66-20.95 5.77-31.53 8.25-4.78 1.15-9.31 3.34-14.26 3.67-1.68 1.72-4.36 1.67-6.5 2.53.64 9.07.84 18.16.94 27.26l-1.53.14c-.89-8.91-.95-17.85-1.14-26.79-5.53.94-11.24 5.61-16.78 2.34-2.13-1.13-4.88-2.05-5.68-4.57 3.82.49 6.68 4.96 10.84 3.5 6.78-1.89 13.25-4.76 20.11-6.36 14.45-4.59 29.2-8.11 43.79-12.23 8.17-2.54 16.64-3.94 24.98-5.79zM29.62 130.12c1.71-2.63 4.59 3.28 2.43 4.81l1.51-.18c-1.1 1.86-.77 4.43-2.55 5.85-.3-1.86-.05-3.65.74-5.35l-1.53.42c.51-1.91-.05-3.73-.6-5.55zM48.37 132.15c1.45.87 2.91 1.88 4.7 1.43-.96 2.68-6 1.43-4.7-1.43zM42.4 144.14c1.09-3.16.12-8.12 4.4-8.9-.12 1.15-.94 1.95-1.69 2.75.14 2.46-.08 5.14-2.71 6.15z"/><path d="M87.75 152.88c-.49-1.45.45-2.68 1.36-3.65 1.04 5.78 1.14 11.67.95 17.52-1.62-.54-1.38-2.32-1.67-3.61-.51-3.4-.48-6.84-.64-10.26zM45.26 153.23c.56.6.56.6 0 0zM49.58 158.94c-.04-1.66-.51-3.96 1.02-5.11-.51 7.33 3.1 14.15 3.16 21.39-2.9-4.94-2.81-10.87-4.18-16.28zM40.28 178.18c1.95.84 1.9 3.01 2.02 4.83-2.01 2.48-2.71 6.44-6.34 7.07 2.05-3.65 6.1-7.31 4.32-11.9zM26.1 190.78c1.39-2.79 3.56-5.22 6.48-6.44-1.32 2.76-4.12 4.59-6.48 6.44zM54.58 197.53c.57-.82.66-2.41 2-2.16 1.37 2.6-2.61 3.87-4.51 4.55-.35-1.73 1.26-1.96 2.51-2.39zM41.9 204.11c.11-2.77 2.23-5.61 4.75-6.74-1.18 2.5-2.86 4.74-4.75 6.74zM26.86 207.43c2.05-1.85 6.6-.13 7.13 2.44-2.6-.01-4.85-1.39-7.13-2.44z"/></g></svg>