<svg width="240" height="250pt" viewBox="0 0 180 250" xmlns="http://www.w3.org/2000/svg"><g fill="#FFF"><path d="M0 0h180v250H0V0m56.84 20.88c-3.69 3.77-3.23 9.43-2.22 14.17.25 4.13 3.66 7.27 3.47 11.49-2.84 1.22-5.98 1.99-8.36 4.05-4.15 3.35-6.67 8.15-9.42 12.61-1.56 3.94-2.32 8.29-2.09 12.54-4.76 3.46-3.54 9.75-2.26 14.62 2.18-1.69 1.01-4.42.96-6.66-.8-3.82 2.62-7.8 6.5-7.62l.99-1.75c3.14 5.63 3.19 12.36 6.62 17.86 1.22 7.06 4.68 13.45 6.02 20.5-3.07.18-6.16.18-9.23-.06-4.13-7.67-7.71-15.66-10.34-23.97-1.25 1.38-1.89 3.11-2.47 4.85 1.07.56 2.12 1.16 3.2 1.72l-3.07-.18c5.74 5.16 5.84 14.06 11.86 18.94 3.06 2.79 7.52 1.4 10.99.29 3.36 5.21 4.55 11.56 4.71 17.67-.26.32-.78.95-1.04 1.27-2.86.34-5.99 2.53-4.52 5.81-1.25 1.3-2.5 2.61-3.62 4.03 1.79-.32 3.33-1.28 4.78-2.33 1.59.33 3.19.61 4.8.88.25 3.9 1.25 8.1-.56 11.79-1.57 3.62-2.02 7.67-4.17 11.04-2.61 4.45-4.5 10.16-2.41 15.15 2.02-4.51.89-9.87 3.85-14.04.07 3.75.61 7.7-.75 11.3-4.17 9.1-3.77 20.53 1.97 28.88 2.35 4.94 6.39 8.69 9.44 13.16-1 .42-2.01.83-3.02 1.24-.93-1.22-1.75-2.54-2.86-3.61-3.01.09-6.02.57-9.04.23-.2.46-.59 1.36-.79 1.81 3.71.97 7.94-1.1 11.17 1.35-3.81 3.27-9.79 2.47-12.81-1.47-.32-5.8-3.75-10.78-4.83-16.42.19-2.69 1.14-5.3.97-8.02-.45-6.5-3.25-12.56-3.81-19.04-.02-4.9 1.83-9.55 3.48-14.09 1.53 2.43 1.56 6.29 4.58 7.5-1.12-4.81-3.12-9.44-3.48-14.4.28-3.02.73-6.06-.16-9.03-.51-4.77-3.67-8.53-6.29-12.33 1.73-2.46 3.05-5.7 5.97-6.96 3.94-.94 8 .08 11.99-.04-2.49-3.94-8.24-3.29-12.18-2.24-3.52.66-4.94 4.13-6.76 6.76-1.33-3.28-1.36-6.81-1.7-10.27-1.62-2.87-3.79-5.41-5.28-8.36-.99-4.66-.33-9.52 1.14-14.02-.61-.78-1.22-1.57-1.83-2.35-.84 4.42-3.04 8.63-1.71 13.25-.89.46-1.65 1.05-2.27 1.78.53.82 1.31 1.32 2.34 1.47 1.67 2.92 3.31 5.89 5.44 8.52.14 3.61.8 7.16 1.69 10.66-1.2.64-2.41 1.29-3.62 1.94-2.87-2.7-5.38-5.79-8.69-7.98-2.86-1.85-4.15-5.44-3.67-8.74.73-2.87 4.36-2.88 5.74-5.09-3.26-1.74-8.15 2.34-7.57 6.11-.59 4.2 1.8 8.03 5.33 10.11 3.7 2.14 5.35 7.31 10.12 7.45.94-.6 1.89-1.19 2.84-1.78-.03 1.42-.21 2.86-.04 4.29.85 1.65 2.85 1.78 4.42 2.26 2.28 4.1 3.99 8.79 2.96 13.54.4 7.42-4.13 13.82-4.77 21.07.31 5.64 2.66 10.93 3.49 16.49.51 3.76-.31 7.52-.4 11.28.86 3.62.91 7.44 2.5 10.86 1.39 2.84.72 6.8 3.68 8.74 3.86 3.55 10.24 3.74 14.49.8 1.56-.44 4.1-.51 4.23-2.65.42-4.22-3.8-6.83-5.85-10.02-2.5-4.26-5.94-8.28-6.49-13.35-.64-4.84-.2-9.75.48-14.56 4.66 5.77 9.85 11.08 14.43 16.92.5-.47.99-.95 1.48-1.42-5.16-5.58-9.86-11.6-15.31-16.9 3.42-6.24 1.17-13.39 2.28-20.04 1.69-6.06 4.18-11.87 6.08-17.86-.4-.36-1.2-1.1-1.6-1.46 1.02-.93 2.03-1.86 3.02-2.81-.49-.38-1.48-1.14-1.97-1.52 3.33-.5 6.57-1.67 8.85-4.25-.41-.42-1.24-1.26-1.65-1.67-1.22 1.64-2.76 2.96-4.92 2.9-1.39.14-2.79.25-4.19.34.22-.79.64-2.38.85-3.17l-2.31.01c1.41-2.06 3.53-3.63 4.7-5.82-.86-3.35-1.01-8.03-4.67-9.56.4 3.67 3.83 7.86.74 11.16-2.65-6.21-5.51-12.4-7.13-18.97-.98-3.59-3.09-6.82-3.54-10.56-.43-6.33-6.22-10.65-6.7-16.98-.37-4.1-2.32-7.86-5.06-10.87.15 1 .46 3.01.61 4.01-.81.96-2.17 1.16-3.32.78-.2-3.11.88-6.24 1.43-9.3 3.81-6.56 8.65-13.11 15.9-16.08-.42 1.51-.82 3.03-1.16 4.57 3.84-2.57 3.48-7.33 3.39-11.39 2.39 3.05 3.66 7.32 7.47 9 2.57 1.48 5.6 1.26 8.43.91-.55 2.86-1.21 5.71-1.42 8.62 2.99-3.31 2.66-8.29 5.63-11.44.19-.5.58-1.49.77-1.99 2.56.66 5.44 1.14 7.05 3.5 1.8 2.52 4.47 4.09 6.93 5.87 3.26 3.02 2.97 7.75 3.85 11.76-.83-.27-2.49-.82-3.33-1.09 4.83 4.47 5.91 11.05 6.27 17.26-.64 2.06-1.32 4.1-2.03 6.14-1.91-1.29-3.4-4.21-6.1-3.62 2.51 2.62 5.44 4.81 7.74 7.62.25-1.75.51-3.51.78-5.26 3.43 2.43 4.45 6.61 5.71 10.38 1.18 5.1.33 10.64 3 15.37 1.59 4.47 6.7 5.3 9.87 8.23-.84.78-1.68 1.57-2.5 2.37-.68.33-1.35.67-2.02 1.01l3.12.04c-.2.77-.61 2.33-.81 3.11-3.98 2.32-8.7 3.21-13.27 2.61 1.23-1.43 2.58-2.75 3.76-4.22-.74-2.37-3.12-3.37-5.45-2.67.98-2.25 2.15-4.39 3.29-6.56-.79.32-2.36.95-3.15 1.27-1.66-3.84-3.39-7.64-5.16-11.43-1.62-3.38-3.82-6.61-4.26-10.42-.41-4.23-1.24-8.43-2.7-12.43-2.33-5.64-2.22-11.86-3.9-17.68-1.49.64-2.97 1.31-4.43 2 .77.39 2.31 1.16 3.08 1.55.2 5.18 1.33 10.27 3.6 14.94.49 6.11 1.09 12.33 3.47 18.05-1.23.11-2.46.23-3.69.34-.5-6.69-3.62-12.73-5.94-18.91-.22 1.05-.41 2.1-.56 3.15 1.3 6.42 5.59 12.13 5.36 18.87-2.29 4.06-.18 8.91-.72 13.31-3.73-2.62-3.06-7.42-3.93-11.34-.62-2.72 1.52-5.46.29-8.07-1.66-4.35-3.08-8.78-4.64-13.16.77-.66 1.55-1.32 2.32-1.97-.86-.34-1.73-.67-2.59-1.01-.57.36-1.71 1.07-2.28 1.42 1.74 6.47 5.08 12.57 5.86 19.23-2.77.78-5.56 1.49-8.26 2.5.69 4.49.9 9.06.88 13.61-4.45-5.47-2-12.64-2.82-18.97-1.19-4.09-2.27-8.42-5.17-11.68.14-6.23-1.55-12.27-3.16-18.22 4.64-.51 9.26-1.21 13.92-1.6 1.58-.3 4.13-.02 3.97-2.59-6.8.03-13.42 1.72-20.15 2.44 1.17-3.8 2.68-7.7 1.18-11.69-.46.72-.91 1.44-1.34 2.18.15 2-.27 3.96-.91 5.84a16.386 16.386 0 00-7.49 6.25c2.47-.06 4.23-1.79 6.02-3.22 2.05 2.66 3.17 5.88 4.04 9.08.15 5.35 2.66 10.63.68 15.93-1.99-2.17-4.13-4.18-6.28-6.19-.61-2.61-1.42-5.23-3.04-7.41.84 2.91.92 6.01 1.79 8.89 2.29 1.91 4.11 4.97 7.34 5.22.43 1.96.91 3.92 1.78 5.74.38-2.98.29-6 .63-8.98 1.22 1.99 2.06 4.17 2.81 6.37 1.66 4.22.55 8.83.8 13.22-.12 3.09 1.37 5.87 2.7 8.55 1.58 3.31 5.28 4.61 8.13 6.56.12 2.37.45 4.73.82 7.08-3.09.98-6.16 2.03-9.29 2.85l.12 1.66c3.92-.1 7.83-1.32 10.6-4.21 3.95 1.44 7.88.04 11.6-1.24-.66 14.55 1.19 29.12 1.28 43.69.15 6.25 1.47 12.65.84 18.82-3.44 1.9-7.11 3.51-11.07 3.89l.12 1.15-4.14-.48c-1.14-6.73-1.18-13.56-1.4-20.37-.77-6.65-.75-13.35-1.01-20.03-.85-7.3-.79-14.65-1.01-21.98-.53.25-1.61.75-2.15 1 .51 11 .99 22.04 1.69 33.05-.29 9.09 1.87 18.04 1.54 27.13-.58-.44-1.72-1.31-2.29-1.75-.5.58-1.01 1.17-1.51 1.76.94.9 1.87 1.8 2.8 2.71.41-.19 1.22-.56 1.62-.74l1.92 1.36c6.04.38 12.38-1.7 16.75-5.93.24-6.16-.24-12.37-.4-18.54-.99-8.33-.45-16.75-1.32-25.09-.5-6.6-.52-13.22-.54-19.84.88.16 1.76.32 2.65.49 1.51 1.19 3.22 2.09 5.03 2.75.11.61.35 1.81.47 2.41-1.91 5.45-1.5 11.46.19 16.89 1.79 4.27 3.92 8.59 3.81 13.34.29 6.22-3.84 11.78-2.42 18.07.82.88 1.63 1.76 2.44 2.65 3.48-.21 7.01-.6 10.49-.23 2.18.79 4.21 1.92 6.3 2.91 2.99-.29 6.15 1.15 8.95-.34 2.3-.96 5.13-2.08 5.63-4.85-1.33-3.13-4.37-4.59-7.61-4.91-4.75-2.39-7.42-7.42-11.63-10.57-2.95-7.53-.33-15.79-1.99-23.55-1.16-4.59-.36-9.33-.79-13.99-.5.16-1.49.5-1.98.66.37 4.11-.73 8.27.2 12.33 1.93 7.54-.31 15.45 1.88 22.96.17 2.67 2.61 4.07 4.27 5.82 2.44 2.24 4.14 5.19 6.82 7.19 2.67 2.39 7.11 1.32 9.01 4.79-1.95.92-3.71 2.54-5.9 2.78-3.27-.34-6.69-.48-9.67-2.01-4.17-2.31-8.94-.05-13.34-.83-3.98-3.62-.12-8.6.14-12.84 1.59 2.34 1.44 5.8 4.14 7.29-.62-2.23-1.14-4.5-1.04-6.83-.75-.48-1.5-.95-2.25-1.42-.18-3.95.23-7.95-.43-11.87-.61-3.28-3.27-5.79-3.57-9.15-1.24-5.39-.3-10.95-1.27-16.36 1.54.38 2.81-.09 3.8-1.41-2.34-1.07-6.87-.02-7.67-2.99 3.22-.47 5.93 2.04 9.16 1.47 4.06.37 7.24-2.44 10.59-4.22 2.12-.07 2.14-1.71 1.73-3.3l-2.06.41c.61-1.28 1.2-2.57 1.78-3.87 1.88-.17 3.94-1.44 5.76-.64 2.31.56.33 3.79-1.58 2.97.79.55 1.58 1.08 2.38 1.62 2.5-1 2.96-4.46.75-6.04-1.66-1.87-4.18-.42-6.23-.17-2.85-2.1-6-4-9.63-4.2-.85-4.98-3.86-9.35-4.05-14.49 4.84-1.67 5.78-7.86 4.62-12.23-2.29-6.45-2.12-13.53-4.9-19.81-1.37-2.66-4.48-3.49-7.25-3.62-.1.59-.31 1.78-.42 2.38 1.71.18 3.82.41 4.69 2.15 3.63 6.67 4.52 14.3 6.37 21.55-.65 2.51-1.35 5.02-2.39 7.41-1.16-3.39-1.09-7.43-3.72-10.13-5.48-5.22-2.11-13.85-6.25-19.85.04-4.48 1.26-9.32-1.13-13.45-1.65-4.46-6.9-5.3-9.83-8.62-2.13-2.28-5.02-3.51-7.93-4.46.5-3.99.78-8.05.06-12.03-.85-5.44-2.7-11.7-8.17-14.16-5.45-1.27-12.41-1.82-16.39 2.95m46.62 13.9c-.37.45-1.11 1.34-1.48 1.79-1.38.03-2.76.06-4.13.08-2.46 3.98-5.42 7.99-5.88 12.8 3.43-2.4 4.05-6.88 6.49-10.06 1.17-2 3.89-.47 5.68-.75-.13-1.08.16-1.94.87-2.56l.87-.02c6.73.76 13.43-.64 20.16-.68 5.73-.24 11.37 1.11 16.92 2.4 2.24.79 4.73 1.28 6.59 2.82 2.4 38.8 4.7 77.59 7.11 116.38.04 4.75.38 9.52 1.37 14.18 1.42-1.39 1.4-3.35 1.31-5.18-2.92-42.37-4.99-84.8-8.04-127.16-6.71-2.98-13.92-4.88-21.26-5.22-8.87-.01-17.78-.01-26.58 1.18m2.48 4.65c3.13-.04 6.03 1.19 8.98 2.06 5.57 1.7 11.15 3.41 16.73 5.09 1.56 35.81 3.74 71.61 5.36 107.42.89 9.51.64 19.07 1.73 28.56 3.85-1.04 7.7-2.12 11.41-3.59 3.25-1.67 6.01-4.14 8.63-6.66-.42-.21-1.26-.64-1.68-.85-2.62 2-5.11 4.22-8.01 5.82-2.83 1.13-5.88 1.49-8.77 2.45.04-3.76-.06-7.53-.5-11.27-.68-6.46-.25-12.98-1-19.44-.68-6.66-.25-13.38-1.04-20.04-.64-6.26-.22-12.58-.96-18.83-.66-6.38-.26-12.8-.98-19.17-.71-6.61-.24-13.28-1.02-19.88-.87-8.57-.03-17.39-1.88-25.8-2.63-1.48-5.64-2.09-8.5-3-6.36-1.77-12.54-4.19-19.06-5.35l.56 2.48M60.66 51.45c.03 3.1-.44 6.19-.09 9.28.99-.78 1.96-1.58 2.94-2.38-.1-1.88-.19-3.75-.28-5.63 1.18 1.92 2.37 3.84 3.85 5.55-.37-2.06-1.32-3.91-2.34-5.71-1.37-.35-2.73-.72-4.08-1.11m19.32-.46c-.05 1.62-.08 3.25-.08 4.88.79 1.07 1.56 2.16 2.32 3.26-3.37.51-6.51 2.29-7.67 5.66 1.19-.07 2.38-.16 3.57-.27.27-.75.81-2.25 1.09-3 1.22.03 2.45.11 3.67.24.62-1.55.67-3.56 2.23-4.51 1.03-1.15 3.87-1.87 2.39-3.76-2.02.34-3.56 1.76-5.11 2.98-.45-1.97-.99-3.96-2.41-5.48m-28.71 8.4c-.35.44-1.05 1.31-1.4 1.74 1.6.19 3.19.38 4.79.56-.06-.47-.16-1.43-.22-1.9-1.05-.13-2.11-.27-3.17-.4m11.71.23c1.22 2.41 3.81 3.07 6.02 4.19 1.64 1.21 3 2.76 4.5 4.13-.49-5.13-6.24-7.2-10.52-8.32m41.05 51.71c.55 2.23 1.29 4.4 1.99 6.59.51-.1 1.51-.29 2.02-.39-.89-2.31-1.06-5.58-4.01-6.2m21.09 15.7c-.44-.1-1.32-.28-1.76-.38-1.47 1.63 2.86 2.55 1.76.38m-69.09 26.5c.62.81 1.23 1.64 1.94 2.38.81-.25 2.45-.74 3.27-.98-1.52-1.14-3.37-1.39-5.21-1.4m-5.59 48.93c.39.29 1.16.89 1.55 1.18 1.56-2.47 2.89-5.09 3.81-7.85-2.86 1.17-3.79 4.28-5.36 6.67z"/><path d="M57.44 23.4c3.81-4.5 10.55-4.63 15.68-2.64 3.26 1.52 4.24 5.24 5.2 8.39 1.29 5.14 1.34 10.53.93 15.78-.3 3.53-4.35 4.86-7.36 4.59-4.13-.19-7.25-3.41-9.28-6.73.42-.46 1.25-1.37 1.66-1.83-3.2-.47-6.09-1.97-7.65-4.9-.02-4.21-1.77-8.86.82-12.66zM89.19 106.24c1.2-.01 2.41-.01 3.61 0 .1 6.91.2 13.83 1.09 20.69-1.59-1.81-3.98-3.32-4.25-5.91-.51-4.91-.31-9.86-.45-14.78z"/><path d="M75.16 110.34c2.38-.62 4.76-1.24 7.12-1.92.56 5.62.18 11.29.72 16.9 1.2 1.24 2.64 2.2 3.96 3.31.47-.49.94-.99 1.41-1.49-1.73-1.46-2.9-3.41-3.73-5.48 4.15 1.7 6.85 5.37 9.79 8.56 4.08-1.01 8.13-2.13 12.17-3.28-1.7 4.25-6.81 3.91-10.53 4.78-4.53.2-9.23 3.73-13.43.55l.44-2.4c-.7-2.83-3.7-3.96-5.51-5.95-1.4-4.43-.08-9.41-2.41-13.58m13.28 19.39c-.8.1-2.4.32-3.21.42-.1.33-.32.97-.43 1.3 2.47.08 4.93-.17 7.39-.3-.49-.69-1.48-2.07-1.97-2.76-.59.44-1.19.89-1.78 1.34z"/><path d="M94.77 110.43c2.75 1.3 3.93 4.18 5.16 6.75 1.62 3 .68 6.48.92 9.71-1.78.42-3.56.81-5.35 1.13-.27-5.86-.1-11.74-.73-17.59zM59.38 136.03c1.87-1.13 4.13-.82 6.21-.99.12.84.36 2.54.48 3.39-2.15.21-4.31.26-6.47.28-.1-.89-.17-1.79-.22-2.68zM66.13 143.38c-1.75.46-2.47-4.67-.27-3.11.67 1 .76 2.04.27 3.11z"/></g><g fill="#333"><path d="M56.84 20.88c3.98-4.77 10.94-4.22 16.39-2.95 5.47 2.46 7.32 8.72 8.17 14.16.72 3.98.44 8.04-.06 12.03 2.91.95 5.8 2.18 7.93 4.46 2.93 3.32 8.18 4.16 9.83 8.62 2.39 4.13 1.17 8.97 1.13 13.45 4.14 6 .77 14.63 6.25 19.85 2.63 2.7 2.56 6.74 3.72 10.13 1.04-2.39 1.74-4.9 2.39-7.41-1.85-7.25-2.74-14.88-6.37-21.55-.87-1.74-2.98-1.97-4.69-2.15.11-.6.32-1.79.42-2.38 2.77.13 5.88.96 7.25 3.62 2.78 6.28 2.61 13.36 4.9 19.81 1.16 4.37.22 10.56-4.62 12.23.19 5.14 3.2 9.51 4.05 14.49 3.63.2 6.78 2.1 9.63 4.2 2.05-.25 4.57-1.7 6.23.17 2.21 1.58 1.75 5.04-.75 6.04-.8-.54-1.59-1.07-2.38-1.62 1.91.82 3.89-2.41 1.58-2.97-1.82-.8-3.88.47-5.76.64-.58 1.3-1.17 2.59-1.78 3.87l2.06-.41c.41 1.59.39 3.23-1.73 3.3-3.35 1.78-6.53 4.59-10.59 4.22-3.23.57-5.94-1.94-9.16-1.47.8 2.97 5.33 1.92 7.67 2.99-.99 1.32-2.26 1.79-3.8 1.41.97 5.41.03 10.97 1.27 16.36.3 3.36 2.96 5.87 3.57 9.15.66 3.92.25 7.92.43 11.87.75.47 1.5.94 2.25 1.42-.1 2.33.42 4.6 1.04 6.83-2.7-1.49-2.55-4.95-4.14-7.29-.26 4.24-4.12 9.22-.14 12.84 4.4.78 9.17-1.48 13.34.83 2.98 1.53 6.4 1.67 9.67 2.01 2.19-.24 3.95-1.86 5.9-2.78-1.9-3.47-6.34-2.4-9.01-4.79-2.68-2-4.38-4.95-6.82-7.19-1.66-1.75-4.1-3.15-4.27-5.82-2.19-7.51.05-15.42-1.88-22.96-.93-4.06.17-8.22-.2-12.33.49-.16 1.48-.5 1.98-.66.43 4.66-.37 9.4.79 13.99 1.66 7.76-.96 16.02 1.99 23.55 4.21 3.15 6.88 8.18 11.63 10.57 3.24.32 6.28 1.78 7.61 4.91-.5 2.77-3.33 3.89-5.63 4.85-2.8 1.49-5.96.05-8.95.34-2.09-.99-4.12-2.12-6.3-2.91-3.48-.37-7.01.02-10.49.23-.81-.89-1.62-1.77-2.44-2.65-1.42-6.29 2.71-11.85 2.42-18.07.11-4.75-2.02-9.07-3.81-13.34-1.69-5.43-2.1-11.44-.19-16.89-.12-.6-.36-1.8-.47-2.41-1.81-.66-3.52-1.56-5.03-2.75-.89-.17-1.77-.33-2.65-.49.02 6.62.04 13.24.54 19.84.87 8.34.33 16.76 1.32 25.09.16 6.17.64 12.38.4 18.54-4.37 4.23-10.71 6.31-16.75 5.93l-1.92-1.36c-.4.18-1.21.55-1.62.74-.93-.91-1.86-1.81-2.8-2.71.5-.59 1.01-1.18 1.51-1.76.57.44 1.71 1.31 2.29 1.75.33-9.09-1.83-18.04-1.54-27.13-.7-11.01-1.18-22.05-1.69-33.05.54-.25 1.62-.75 2.15-1 .22 7.33.16 14.68 1.01 21.98.26 6.68.24 13.38 1.01 20.03.22 6.81.26 13.64 1.4 20.37l4.14.48-.12-1.15c3.96-.38 7.63-1.99 11.07-3.89.63-6.17-.69-12.57-.84-18.82-.09-14.57-1.94-29.14-1.28-43.69-3.72 1.28-7.65 2.68-11.6 1.24-2.77 2.89-6.68 4.11-10.6 4.21l-.12-1.66c3.13-.82 6.2-1.87 9.29-2.85-.37-2.35-.7-4.71-.82-7.08-2.85-1.95-6.55-3.25-8.13-6.56-1.33-2.68-2.82-5.46-2.7-8.55-.25-4.39.86-9-.8-13.22-.75-2.2-1.59-4.38-2.81-6.37-.34 2.98-.25 6-.63 8.98-.87-1.82-1.35-3.78-1.78-5.74-3.23-.25-5.05-3.31-7.34-5.22-.87-2.88-.95-5.98-1.79-8.89 1.62 2.18 2.43 4.8 3.04 7.41 2.15 2.01 4.29 4.02 6.28 6.19 1.98-5.3-.53-10.58-.68-15.93-.87-3.2-1.99-6.42-4.04-9.08-1.79 1.43-3.55 3.16-6.02 3.22 1.8-2.8 4.42-4.97 7.49-6.25.64-1.88 1.06-3.84.91-5.84.43-.74.88-1.46 1.34-2.18 1.5 3.99-.01 7.89-1.18 11.69 6.73-.72 13.35-2.41 20.15-2.44.16 2.57-2.39 2.29-3.97 2.59-4.66.39-9.28 1.09-13.92 1.6 1.61 5.95 3.3 11.99 3.16 18.22 2.9 3.26 3.98 7.59 5.17 11.68.82 6.33-1.63 13.5 2.82 18.97.02-4.55-.19-9.12-.88-13.61 2.7-1.01 5.49-1.72 8.26-2.5-.78-6.66-4.12-12.76-5.86-19.23.57-.35 1.71-1.06 2.28-1.42.86.34 1.73.67 2.59 1.01-.77.65-1.55 1.31-2.32 1.97 1.56 4.38 2.98 8.81 4.64 13.16 1.23 2.61-.91 5.35-.29 8.07.87 3.92.2 8.72 3.93 11.34.54-4.4-1.57-9.25.72-13.31.23-6.74-4.06-12.45-5.36-18.87.15-1.05.34-2.1.56-3.15 2.32 6.18 5.44 12.22 5.94 18.91 1.23-.11 2.46-.23 3.69-.34-2.38-5.72-2.98-11.94-3.47-18.05-2.27-4.67-3.4-9.76-3.6-14.94-.77-.39-2.31-1.16-3.08-1.55 1.46-.69 2.94-1.36 4.43-2 1.68 5.82 1.57 12.04 3.9 17.68 1.46 4 2.29 8.2 2.7 12.43.44 3.81 2.64 7.04 4.26 10.42 1.77 3.79 3.5 7.59 5.16 11.43.79-.32 2.36-.95 3.15-1.27-1.14 2.17-2.31 4.31-3.29 6.56 2.33-.7 4.71.3 5.45 2.67-1.18 1.47-2.53 2.79-3.76 4.22 4.57.6 9.29-.29 13.27-2.61.2-.78.61-2.34.81-3.11l-3.12-.04c.67-.34 1.34-.68 2.02-1.01.82-.8 1.66-1.59 2.5-2.37-3.17-2.93-8.28-3.76-9.87-8.23-2.67-4.73-1.82-10.27-3-15.37-1.26-3.77-2.28-7.95-5.71-10.38-.27 1.75-.53 3.51-.78 5.26-2.3-2.81-5.23-5-7.74-7.62 2.7-.59 4.19 2.33 6.1 3.62.71-2.04 1.39-4.08 2.03-6.14-.36-6.21-1.44-12.79-6.27-17.26.84.27 2.5.82 3.33 1.09-.88-4.01-.59-8.74-3.85-11.76-2.46-1.78-5.13-3.35-6.93-5.87-1.61-2.36-4.49-2.84-7.05-3.5-.19.5-.58 1.49-.77 1.99-2.97 3.15-2.64 8.13-5.63 11.44.21-2.91.87-5.76 1.42-8.62-2.83.35-5.86.57-8.43-.91-3.81-1.68-5.08-5.95-7.47-9 .09 4.06.45 8.82-3.39 11.39.34-1.54.74-3.06 1.16-4.57-7.25 2.97-12.09 9.52-15.9 16.08-.55 3.06-1.63 6.19-1.43 9.3 1.15.38 2.51.18 3.32-.78-.15-1-.46-3.01-.61-4.01 2.74 3.01 4.69 6.77 5.06 10.87.48 6.33 6.27 10.65 6.7 16.98.45 3.74 2.56 6.97 3.54 10.56 1.62 6.57 4.48 12.76 7.13 18.97 3.09-3.3-.34-7.49-.74-11.16 3.66 1.53 3.81 6.21 4.67 9.56-1.17 2.19-3.29 3.76-4.7 5.82l2.31-.01c-.21.79-.63 2.38-.85 3.17 1.4-.09 2.8-.2 4.19-.34 2.16.06 3.7-1.26 4.92-2.9.41.41 1.24 1.25 1.65 1.67-2.28 2.58-5.52 3.75-8.85 4.25.49.38 1.48 1.14 1.97 1.52-.99.95-2 1.88-3.02 2.81.4.36 1.2 1.1 1.6 1.46-1.9 5.99-4.39 11.8-6.08 17.86-1.11 6.65 1.14 13.8-2.28 20.04 5.45 5.3 10.15 11.32 15.31 16.9-.49.47-.98.95-1.48 1.42-4.58-5.84-9.77-11.15-14.43-16.92-.68 4.81-1.12 9.72-.48 14.56.55 5.07 3.99 9.09 6.49 13.35 2.05 3.19 6.27 5.8 5.85 10.02-.13 2.14-2.67 2.21-4.23 2.65-4.25 2.94-10.63 2.75-14.49-.8-2.96-1.94-2.29-5.9-3.68-8.74-1.59-3.42-1.64-7.24-2.5-10.86.09-3.76.91-7.52.4-11.28-.83-5.56-3.18-10.85-3.49-16.49.64-7.25 5.17-13.65 4.77-21.07 1.03-4.75-.68-9.44-2.96-13.54-1.57-.48-3.57-.61-4.42-2.26-.17-1.43.01-2.87.04-4.29-.95.59-1.9 1.18-2.84 1.78-4.77-.14-6.42-5.31-10.12-7.45-3.53-2.08-5.92-5.91-5.33-10.11-.58-3.77 4.31-7.85 7.57-6.11-1.38 2.21-5.01 2.22-5.74 5.09-.48 3.3.81 6.89 3.67 8.74 3.31 2.19 5.82 5.28 8.69 7.98 1.21-.65 2.42-1.3 3.62-1.94-.89-3.5-1.55-7.05-1.69-10.66-2.13-2.63-3.77-5.6-5.44-8.52-1.03-.15-1.81-.65-2.34-1.47.62-.73 1.38-1.32 2.27-1.78-1.33-4.62.87-8.83 1.71-13.25.61.78 1.22 1.57 1.83 2.35-1.47 4.5-2.13 9.36-1.14 14.02 1.49 2.95 3.66 5.49 5.28 8.36.34 3.46.37 6.99 1.7 10.27 1.82-2.63 3.24-6.1 6.76-6.76 3.94-1.05 9.69-1.7 12.18 2.24-3.99.12-8.05-.9-11.99.04-2.92 1.26-4.24 4.5-5.97 6.96 2.62 3.8 5.78 7.56 6.29 12.33.89 2.97.44 6.01.16 9.03.36 4.96 2.36 9.59 3.48 14.4-3.02-1.21-3.05-5.07-4.58-7.5-1.65 4.54-3.5 9.19-3.48 14.09.56 6.48 3.36 12.54 3.81 19.04.17 2.72-.78 5.33-.97 8.02 1.08 5.64 4.51 10.62 4.83 16.42 3.02 3.94 9 4.74 12.81 1.47-3.23-2.45-7.46-.38-11.17-1.35.2-.45.59-1.35.79-1.81 3.02.34 6.03-.14 9.04-.23 1.11 1.07 1.93 2.39 2.86 3.61 1.01-.41 2.02-.82 3.02-1.24-3.05-4.47-7.09-8.22-9.44-13.16-5.74-8.35-6.14-19.78-1.97-28.88 1.36-3.6.82-7.55.75-11.3-2.96 4.17-1.83 9.53-3.85 14.04-2.09-4.99-.2-10.7 2.41-15.15 2.15-3.37 2.6-7.42 4.17-11.04 1.81-3.69.81-7.89.56-11.79-1.61-.27-3.21-.55-4.8-.88-1.45 1.05-2.99 2.01-4.78 2.33 1.12-1.42 2.37-2.73 3.62-4.03-1.47-3.28 1.66-5.47 4.52-5.81.26-.32.78-.95 1.04-1.27-.16-6.11-1.35-12.46-4.71-17.67-3.47 1.11-7.93 2.5-10.99-.29-6.02-4.88-6.12-13.78-11.86-18.94l3.07.18c-1.08-.56-2.13-1.16-3.2-1.72.58-1.74 1.22-3.47 2.47-4.85 2.63 8.31 6.21 16.3 10.34 23.97 3.07.24 6.16.24 9.23.06-1.34-7.05-4.8-13.44-6.02-20.5-3.43-5.5-3.48-12.23-6.62-17.86l-.99 1.75c-3.88-.18-7.3 3.8-6.5 7.62.05 2.24 1.22 4.97-.96 6.66-1.28-4.87-2.5-11.16 2.26-14.62-.23-4.25.53-8.6 2.09-12.54 2.75-4.46 5.27-9.26 9.42-12.61 2.38-2.06 5.52-2.83 8.36-4.05.19-4.22-3.22-7.36-3.47-11.49-1.01-4.74-1.47-10.4 2.22-14.17m.6 2.52c-2.59 3.8-.84 8.45-.82 12.66 1.56 2.93 4.45 4.43 7.65 4.9-.41.46-1.24 1.37-1.66 1.83 2.03 3.32 5.15 6.54 9.28 6.73 3.01.27 7.06-1.06 7.36-4.59.41-5.25.36-10.64-.93-15.78-.96-3.15-1.94-6.87-5.2-8.39-5.13-1.99-11.87-1.86-15.68 2.64m31.75 82.84c.14 4.92-.06 9.87.45 14.78.27 2.59 2.66 4.1 4.25 5.91-.89-6.86-.99-13.78-1.09-20.69-1.2-.01-2.41-.01-3.61 0m-14.03 4.1c2.33 4.17 1.01 9.15 2.41 13.58 1.81 1.99 4.81 3.12 5.51 5.95l-.44 2.4c4.2 3.18 8.9-.35 13.43-.55 3.72-.87 8.83-.53 10.53-4.78-4.04 1.15-8.09 2.27-12.17 3.28-2.94-3.19-5.64-6.86-9.79-8.56.83 2.07 2 4.02 3.73 5.48-.47.5-.94 1-1.41 1.49-1.32-1.11-2.76-2.07-3.96-3.31-.54-5.61-.16-11.28-.72-16.9-2.36.68-4.74 1.3-7.12 1.92m19.61.09c.63 5.85.46 11.73.73 17.59 1.79-.32 3.57-.71 5.35-1.13-.24-3.23.7-6.71-.92-9.71-1.23-2.57-2.41-5.45-5.16-6.75m-35.39 25.6c.05.89.12 1.79.22 2.68 2.16-.02 4.32-.07 6.47-.28-.12-.85-.36-2.55-.48-3.39-2.08.17-4.34-.14-6.21.99m6.75 7.35c.49-1.07.4-2.11-.27-3.11-2.2-1.56-1.48 3.57.27 3.11z"/><path d="M103.46 34.78c8.8-1.19 17.71-1.19 26.58-1.18 7.34.34 14.55 2.24 21.26 5.22 3.05 42.36 5.12 84.79 8.04 127.16.09 1.83.11 3.79-1.31 5.18-.99-4.66-1.33-9.43-1.37-14.18-2.41-38.79-4.71-77.58-7.11-116.38-1.86-1.54-4.35-2.03-6.59-2.82-5.55-1.29-11.19-2.64-16.92-2.4-6.73.04-13.43 1.44-20.16.68l-.87.02c-.71.62-1 1.48-.87 2.56-1.79.28-4.51-1.25-5.68.75-2.44 3.18-3.06 7.66-6.49 10.06.46-4.81 3.42-8.82 5.88-12.8 1.37-.02 2.75-.05 4.13-.08.37-.45 1.11-1.34 1.48-1.79z"/><path d="M105.94 39.43l-.56-2.48c6.52 1.16 12.7 3.58 19.06 5.35 2.86.91 5.87 1.52 8.5 3 1.85 8.41 1.01 17.23 1.88 25.8.78 6.6.31 13.27 1.02 19.88.72 6.37.32 12.79.98 19.17.74 6.25.32 12.57.96 18.83.79 6.66.36 13.38 1.04 20.04.75 6.46.32 12.98 1 19.44.44 3.74.54 7.51.5 11.27 2.89-.96 5.94-1.32 8.77-2.45 2.9-1.6 5.39-3.82 8.01-5.82.42.21 1.26.64 1.68.85-2.62 2.52-5.38 4.99-8.63 6.66-3.71 1.47-7.56 2.55-11.41 3.59-1.09-9.49-.84-19.05-1.73-28.56-1.62-35.81-3.8-71.61-5.36-107.42-5.58-1.68-11.16-3.39-16.73-5.09-2.95-.87-5.85-2.1-8.98-2.06zM60.66 51.45c1.35.39 2.71.76 4.08 1.11 1.02 1.8 1.97 3.65 2.34 5.71-1.48-1.71-2.67-3.63-3.85-5.55.09 1.88.18 3.75.28 5.63-.98.8-1.95 1.6-2.94 2.38-.35-3.09.12-6.18.09-9.28zM79.98 50.99c1.42 1.52 1.96 3.51 2.41 5.48 1.55-1.22 3.09-2.64 5.11-2.98 1.48 1.89-1.36 2.61-2.39 3.76-1.56.95-1.61 2.96-2.23 4.51-1.22-.13-2.45-.21-3.67-.24-.28.75-.82 2.25-1.09 3-1.19.11-2.38.2-3.57.27 1.16-3.37 4.3-5.15 7.67-5.66-.76-1.1-1.53-2.19-2.32-3.26 0-1.63.03-3.26.08-4.88zM51.27 59.39c1.06.13 2.12.27 3.17.4.06.47.16 1.43.22 1.9-1.6-.18-3.19-.37-4.79-.56.35-.43 1.05-1.3 1.4-1.74z"/><path d="M62.98 59.62c4.28 1.12 10.03 3.19 10.52 8.32-1.5-1.37-2.86-2.92-4.5-4.13-2.21-1.12-4.8-1.78-6.02-4.19zM104.03 111.33c2.95.62 3.12 3.89 4.01 6.2-.51.1-1.51.29-2.02.39-.7-2.19-1.44-4.36-1.99-6.59zM125.12 127.03c1.1 2.17-3.23 1.25-1.76-.38.44.1 1.32.28 1.76.38zM88.44 129.73c.59-.45 1.19-.9 1.78-1.34.49.69 1.48 2.07 1.97 2.76-2.46.13-4.92.38-7.39.3.11-.33.33-.97.43-1.3.81-.1 2.41-.32 3.21-.42zM56.03 153.53c1.84.01 3.69.26 5.21 1.4-.82.24-2.46.73-3.27.98-.71-.74-1.32-1.57-1.94-2.38zM50.44 202.46c1.57-2.39 2.5-5.5 5.36-6.67-.92 2.76-2.25 5.38-3.81 7.85-.39-.29-1.16-.89-1.55-1.18z"/></g></svg>