<svg width="240" height="250pt" viewBox="0 0 180 250" xmlns="http://www.w3.org/2000/svg"><g fill="#FFF"><path d="M0 0h180v250H0V0m54.43 25.13c-1.29 3.49-.07 7.16.31 10.7.42 3.82 3.67 6.73 3.33 10.73-3.08 1.28-6.5 2.14-8.95 4.55-3.39 2.81-5.41 6.79-7.83 10.38-2.65 3.87-2.51 8.79-3.54 13.21l1.7-1.07c1.18 1.25 1.83 3.89 4.28 2.56-.73 5.97-1.24 12.1.3 17.99 1.62 4.63 5.81 7.56 9.13 10.92 2.56 2.47 5.86-.39 6.88-2.94 1.98-4.91 5.02-9.41 6.11-14.66 1.23-4.76.95-9.71 1.68-14.55 4.08-.24 8.04-1.23 12.02-2.07-.35 5.7-.33 11.8-3.02 16.98 2.02 6.1 4.9 12.06 5.81 18.44-8.14 2.36-16.5 3.81-24.73 5.81-3.28.91-6.7.83-10.06.52-4.2-7.9-8.16-16.08-10.45-24.76-.25-3.79-1.49-9.14 3.09-10.85-.54-.61-1.1-1.21-1.65-1.81-1.41 1.38-3.12 2.67-3.63 4.68-1.68 4.28 1.68 8.79-.07 13.05-.79 2.17-.19 4.61-1.29 6.7-1.47 2.96-.91 6.35-1.15 9.54-2.78.94-5.98 1.28-8.27 3.23-2.53 2.18-1.88 5.82-1.5 8.75 1.27 4.66 6.45 6.16 9.13 9.78 1.5 2.02 3.42 3.75 6.12 3.61.9-.58 1.81-1.15 2.72-1.71-.02 1.41-.23 2.83-.05 4.24.77 1.6 2.55 2.02 4.18 1.9 2.43 4.19 4.3 9.03 3.2 13.93.4 7.4-4.07 13.79-4.78 21.02.35 5.64 2.65 10.95 3.5 16.52.4 3.65.09 7.35-.62 10.95.97 2.78 1.16 5.71 1.71 8.57 1.35 2.94 2.08 6.07 2.78 9.21 3.33 5.33 11.46 6.67 16.41 2.89 1.55-.35 4.02-.34 4.21-2.43.54-4.52-4.13-7.19-6.2-10.67-2.14-3.87-5.24-7.4-5.97-11.89-.88-5.11-.35-10.34.28-15.46 4.75 5.69 9.89 11.04 14.45 16.88l1.55-1.4c-5.24-5.53-9.83-11.7-15.41-16.9.49-1.28.96-2.55 1.43-3.83l.7.29c.01-4.83-.25-9.67-.1-14.51.98-7.63 6.04-14.34 5.73-22.22.09-4.98-2.04-9.56-4.48-13.77-.09-4.51-.46-9.12 1.01-13.48 3.66-.91 7.27-1.95 10.97-2.7-1.79 7.24.11 14.67.19 21.98.01 9.36 1.29 18.65 1.21 28.01 1.09 9.32.54 18.73 1.76 28.03.52 4.01.74 8.05.62 12.09-.57-.43-1.72-1.28-2.3-1.71-.5.59-.99 1.19-1.49 1.79.94.89 1.88 1.78 2.81 2.68.41-.18 1.21-.55 1.62-.73.47.34 1.41 1.01 1.89 1.35 6.06.3 12.93-1.61 16.92-6.37-.02-12.74-1.35-25.42-1.46-38.15-.86-8.74-1-17.52-.93-26.29 2.43 2.35 5.52 3.7 8.36 5.42-1.05 5.07-2.52 10.28-1.62 15.51 1.67 4.47 4.61 8.5 5.17 13.36 1.05 4.83-1.27 9.35-2.07 14-.42 3.31-1.09 7.5 2.4 9.41 3.49.27 7-.22 10.48.09 2.16.82 4.17 1.95 6.24 2.95 2.3-.21 4.56.3 6.85.35 3.17-.98 6.54-2.33 8.01-5.55-.79-.95-1.57-1.9-2.42-2.8-1.67-2.19-4.94-1.21-6.97-2.88-3.83-2.76-6.17-7.1-10.23-9.59-2.4-7.1-.76-14.65-1.6-21.94-1.44-6.57-1.42-13.46.19-19.98-.2-2.94-1.53-5.69-2.73-8.34-2.32-4.01-7.41-4.36-10.52-7.43-3.34-3.18-7.64-4.95-11.44-7.47.08-.51.25-1.54.33-2.05 5.06-1.12 10.11-2.29 15.16-3.47 1.32-.37 3-.75 3.36-2.29 1.9-4.2 1.74-8.97.16-13.24-1.79-4.98-1.81-10.42-3.86-15.33-.96-2.04-3.16-3.15-4.23-5.12-.52-3.29-.63-6.64-1.45-9.88 2.44-.29 5.49-.29 6.88-2.74.69-1.99-1.4-3.5-2.31-5.05-3.11.83-6.37 1.6-9.57.77-2.63-.76-5.21.2-7.64 1.12-2.57-3.07-5.92-5.37-9.83-6.34 1.11-7.65.49-15.98-3.65-22.67-3.14-4.35-8.92-4.74-13.8-4.26-4.39.33-8.22 3.74-9.46 7.91m48.7 9.74c-.25.43-.74 1.29-.99 1.72-1.43.02-2.85.03-4.28.04-2.56 3.79-4.68 7.87-6.42 12.1.58-.14 1.74-.43 2.32-.57 1.95-3.16 2.94-6.95 5.53-9.69 1.46-.07 2.93-.03 4.39.1.76-.51 1.51-1.02 2.27-1.54l-2.03-.61c3.05-.08 6.11-.19 9.16.08.14-.62.41-1.85.55-2.47-3.49.28-7.08.05-10.5.84m13.1 1.01c11.27-1.24 22.92-.28 33.37 4.36 2.34 41.59 5.12 83.15 7.47 124.75.48 1.98-.29 4.92 2.14 5.8.58-7.26-1.04-14.43-.92-21.67-2.54-36.76-4.28-73.56-7-110.3-6.4-2.88-13.27-4.66-20.27-5.19-5.64-.14-11.28.08-16.91.17.7.69 1.41 1.39 2.12 2.08m-11.15 3.11c9.06 1.72 17.69 5.16 26.58 7.58-.01 4.13.07 8.27.55 12.38.68 6.3.2 12.66.94 18.95 1.94 34.88 3.34 69.79 5.6 104.66 3.84-1.02 7.67-2.15 11.39-3.57 3.15-1.65 5.78-4.12 8.56-6.3l-1.52-1.31c-2.43 1.89-4.77 3.89-7.38 5.53-2.93 1.63-6.46 1.49-9.45 2.98.01-3.69-.07-7.39-.49-11.06-2.19-41.11-4.08-82.23-6.45-123.34-8.41-3.47-17.31-5.63-26.02-8.24l-2.31 1.74z"/><path d="M57.42 23.42c3.82-4.5 10.56-4.67 15.7-2.65 3.49 1.67 4.41 5.75 5.4 9.13 1.05 4.93 1.14 10.05.73 15.07-.33 3.49-4.34 4.81-7.33 4.56-4.15-.2-7.31-3.42-9.3-6.79.41-.44 1.25-1.32 1.67-1.76-3.24-.46-6.18-2.01-7.68-5.03-.03-4.17-1.76-8.76.81-12.53z"/><path d="M59.83 41.66c2.36 2.83 3.41 6.86 6.88 8.65 2.7 1.73 5.99 1.74 9.04 1.17-.49 2.6-1.02 5.2-1.54 7.8-1.51-.17-3.02-.37-4.52-.57.11-4.85-6.14-5.01-9.57-6.06-.53-.52-1.05-1.05-1.57-1.57 1.61-2.89 1.19-6.26 1.28-9.42z"/><path d="M80.64 46.79c3.92.34 7.28 2.53 9.15 5.99a11.72 11.72 0 0110.03-1.46c1.15 1.24 1.56 2.97 2.36 4.43.16 10.2 3.91 20.05 2.96 30.31-.74 2.68-1.75 5.28-2.22 8.04-.02 1.5-1.6 2.43-2.99 2.18-3.57-.95-7.12-3-8.66-6.52-1.2-3.02-3.1-5.72-4.26-8.75-1.64-4.14.46-8.68-1.09-12.83-.76-1.84-1.71-3.58-2.57-5.37 2.16-.48 4.34-.82 6.54-1.09 1.63 1.23 3.26 2.45 4.87 3.72.11.69.23 1.38.35 2.06-2-1.34-4.31-1.99-6.72-1.98v1.66c2.82.57 5.4 1.87 7.63 3.68-.65 3.96-2.78 7.39-4.04 11.13-.67 1.48.61 2.75 1.09 4.07 1.48-6.31 6.86-12.08 4.51-18.92-.43-3.14-3.5-4.48-5.54-6.46-.21-1.54 1.83-2.46 2.52-3.71-1.39-1.7-3.25-2.73-5.49-2.68-.43 1.09-1.02 2.24-.5 3.41 1.29-1.19 2.68-2.14 3.76-.35l-2.77 2.44c-3.13.67-6.3 1.17-9.44 1.81 1.63 2.63 3.69 5.31 3.77 8.53.23 4.96-.2 9.93-.17 14.89l.46.19c1.21-.52 1.68-1.57 1.44-3.13 2.66 4.49 3.48 10.24 7.8 13.6 2.31 1.52 4.87 3.01 7.69 3.19 2.45-.21 3.38-2.77 3.78-4.83 1.63-7.79 3.48-15.98 1.29-23.85 2.66 7.06 4.86 14.31 5.76 21.82 0 2.92.26 7.06-3.17 8.21-6.33 2-12.95 2.94-19.36 4.69-.47-6.23-3.01-12.1-5.54-17.73-.21-.02-.64-.05-.85-.06-.52 2.11-1.32 4.15-2.34 6.07-1.11-4.05.4-8.07.86-12.09.65-4.06.65-8.26-.37-12.26-.97-2.36-2.32-4.58-2.65-7.16-3.1.95-6.3 1.66-9.56 1.43.2-.55.59-1.65.78-2.2 6.18.38 12-2.11 18.04-2.94-.8-.51-1.61-1-2.41-1.51 1.2-.67 3.01-1.43 2.46-3.25-2.09.66-3.82 1.98-5.49 3.32-.38-1.98-.77-4.04-2.36-5.44-.06 1.61-.1 3.23-.12 4.85.6.48 1.2.97 1.81 1.45-2.22.38-4.42.88-6.6 1.42 2.74-2.87 1.81-7.55 4.89-10.02l.68-2zM41.82 64.22c3.94-6.48 8.74-12.95 16-15.9-.76 1.78-1.46 3.6-1.86 5.51-1.93 1.76-3.77 3.61-5.32 5.72-2.13.89-4.19 1.95-6.13 3.23.38 1.79-.41 4.14 1.22 5.44 2.9.5 5.58-.93 8.21-1.91 2.78 5.75-.53 11.45-2.35 16.88-.92-1.7-1.45-3.93-3.59-4.46.39 1.93.9 3.84 1.46 5.74-1.11 1.17-2.21 2.35-3.29 3.55.59.46 1.19.91 1.78 1.37 2-2.94 5.8-4.59 6.6-8.3 1-3.02 2.29-5.92 3.65-8.8-1.29-2.09-1.83-4.51-2.53-6.83 2.03-2.68-.97-5.03-2.9-6.54 1.3-1.32 2.62-2.62 3.95-3.91 3.92.61 8.54-.35 11.64 2.68-.59.31-1.78.94-2.38 1.25.52 3.01 1.34 6.09.64 9.14-1.05 4.95-1.4 10.01-1.88 15.04-.64 6.5-4.06 12.22-6.64 18.09-.65 1.35-1.89 4.04-3.55 2.14-3.38-3.4-8.71-6.7-8.06-12.2-.44-.59-.88-1.19-1.32-1.78-.06-5.41.63-10.85.07-16.24-.05-1.51-.93-2.75-1.81-3.9-.27 1.75-.53 3.49-.79 5.23-.86-.45-1.72-.9-2.57-1.37.75-2.92.9-5.98 1.75-8.87zM101.65 52.04c2.3-.06 6.35-2.39 7.1.89-1.21.77-2.46 1.47-3.7 2.18-1.14-1.02-2.28-2.04-3.4-3.07z"/><path d="M46.58 63.63c2.55-1.18 5.84-2.93 8.38-.75-2.46 1.86-5.29 3.31-8.47 3 .02-.56.07-1.69.09-2.25zM67.94 71.23c.36-2.48.88-4.94 1.6-7.34 1.31 1.34 2.6 2.69 3.94 3.99-.24-.95-.49-1.9-.74-2.86 1.44-.29 2.88-.59 4.32-.9.68 1.51 1.35 3.01 2.03 4.52-3.55 1.48-7.33 2.24-11.15 2.59zM83.7 91.09c1.23 5.74 4.97 10.89 4.58 16.92-1.58 2.01-.98 4.6-.89 6.95.22 2.85.29 5.7.32 8.56-.6.07-1.79.22-2.39.29-.4-4.66-.84-9.32-1.68-13.92-.5-2.33.8-4.55.7-6.85-.79-2.48-1.82-4.88-2.67-7.33.76-1.5 1.45-3.04 2.03-4.62zM37.1 95.94c1.69 4.42 3.91 8.6 5.85 12.91 1.15 2.88 3.72 4.79 6 6.74 4.41.23 8.67-.93 12.81-2.3-.07 3.51-.3 7.02-.59 10.52-4.06-1.06-8.43-1.91-12.46-.22-3.19.83-4.35 4.11-6.06 6.54-1.45-3.24-1.39-6.8-1.72-10.26-1.64-2.82-3.57-5.46-5.44-8.13-.75-5.34-.02-10.69 1.61-15.8z"/><path d="M89.19 106.24c1.2-.01 2.41-.01 3.61 0 .14 6.59.15 13.18 1 19.73.43 10.66.8 21.33 1.03 32 .67 6.67.88 13.37.94 20.07.39 6.01.92 12.02 1.2 18.04-3.39 3.14-8.57 4.08-12.96 5.54-2.5.75-2.8-2.15-3.38-3.78.08-11.96-1.36-23.85-1.45-35.8-1.03-8.97-.64-18.01-1.61-26.97-.23-8.47-.55-16.94-1.6-25.35 2.15-.19 4.26-.64 6.33-1.22.66 6.01-.11 12.13 1.08 18.07 2.07-.52 4.13-1.06 6.2-1.55.05-6.26-.45-12.51-.39-18.78zM24.44 115.97c1.36-3.55 5.59-3.79 8.69-4.88 1.75 3.04 2.9 6.62 5.62 8.98.1 3.64.76 7.23 1.68 10.76-1.2.64-2.4 1.27-3.6 1.91-2.91-2.61-5.31-5.78-8.64-7.92-2.95-1.82-4.24-5.5-3.75-8.85zM94.7 110.67c3.9 1.82 7.59 4.07 10.85 6.88 2.38 2.1 5.61 2.85 8.06 4.85 1.6 2.34 2.28 5.16 3.68 7.62-1.45 6.47-2.49 13.3-.99 19.86 1.32 6.99-.51 14.24 1.53 21.16.31 3.44 3.84 4.9 5.75 7.37 2.78 3.35 5.73 7.34 10.46 7.76 1.79 0 2.77 1.57 3.85 2.73-2.19 1.02-4.2 3.16-6.79 2.72-2.97-.38-6.07-.48-8.76-1.97-3.89-2.01-8.35-.54-12.48-.66-.63-.63-1.25-1.26-1.88-1.89.26-4.11.4-8.32 1.9-12.21.07-3.67.29-7.36-.16-11.01-.32-2.72-2.02-4.97-3.1-7.41-1.82-5.9-1.13-12.15-1.56-18.21.72-.18 2.14-.54 2.86-.72-.07-.43-.19-1.29-.26-1.73-4.85-.48-8.41-3.79-12.14-6.55-.31-6.2-.03-12.42-.82-18.59m10.78 11c1.42 2.9 4.22 6.99.35 9.28-3.5-.06-5.8-3.18-8.62-4.84 1.24 4.05 5.32 6.12 9.31 6.41 1.23-1.13 2.57-2.19 3.5-3.6.17-2.74-1.46-5.07-2.77-7.31-.44.01-1.33.05-1.77.06m7.31 62.22c-.19-2.81-.47-5.6-.84-8.39-2.06 2.61-1.31 6.1.84 8.39zM48.33 126.25c2.3-1.42 5.19-1 7.75-.92 1.66.22 3.88.01 4.7 1.86 3.79 5.01 5.92 11.18 4.96 17.5-.31-2.8-2.08-4.95-4.1-6.75-.13.4-.4 1.21-.54 1.61 3.1 2.75 2.39 7.04 2.45 10.75-1.46 4.02-2.62 8.14-4.1 12.15-2.89 4.97-6.07 11.32-3.39 16.96 1.92-4.43.77-9.75 3.76-13.79.15 4.25.61 8.75-1.31 12.71-2.28 4.84-2.48 10.36-1.91 15.58 1.12 9.84 8.16 17.39 13.87 24.96-1.02.43-2.05.86-3.08 1.28-1.24-1.35-2-4.32-4.38-3.62-2.5.44-5.04.54-7.56.18-.13.45-.41 1.37-.54 1.82 2.87.28 5.8.88 8.59-.22.55.43 1.64 1.3 2.19 1.73-3.78 3.2-9.68 2.23-12.6-1.65-.29-5.79-3.73-10.75-4.81-16.38.19-2.69 1.2-5.3.98-8.03-.46-6.5-3.26-12.56-3.81-19.04 0-4.85 1.81-9.45 3.39-13.96 1.21 2.32 2.12 4.78 3.28 7.12.31-.13.95-.39 1.26-.52-1.4-5.74-4.41-11.52-2.97-17.54.35-6.55-2.87-12.46-6.82-17.43 1.41-2.24 2.74-4.6 4.74-6.36m9.49 12.25c-1.37 1.35-3.07 2.48-3.88 4.29 2.87.4 4.21-2.71 5.93-4.43-.51.04-1.54.11-2.05.14m-1.09 14.85c-.01.58-.02 1.76-.03 2.34 1.5-.06 2.99-.27 4.44-.66-1.23-1.14-2.83-1.44-4.41-1.68m-4.39 45.79c-.63 1.51-2.52 3.24-.77 4.76 1.91-2.34 3.18-5.1 4.27-7.89-1.65.41-2.84 1.59-3.5 3.13z"/></g><g fill="#333"><path d="M54.43 25.13c1.24-4.17 5.07-7.58 9.46-7.91 4.88-.48 10.66-.09 13.8 4.26 4.14 6.69 4.76 15.02 3.65 22.67 3.91.97 7.26 3.27 9.83 6.34 2.43-.92 5.01-1.88 7.64-1.12 3.2.83 6.46.06 9.57-.77.91 1.55 3 3.06 2.31 5.05-1.39 2.45-4.44 2.45-6.88 2.74.82 3.24.93 6.59 1.45 9.88 1.07 1.97 3.27 3.08 4.23 5.12 2.05 4.91 2.07 10.35 3.86 15.33 1.58 4.27 1.74 9.04-.16 13.24-.36 1.54-2.04 1.92-3.36 2.29-5.05 1.18-10.1 2.35-15.16 3.47-.08.51-.25 1.54-.33 2.05 3.8 2.52 8.1 4.29 11.44 7.47 3.11 3.07 8.2 3.42 10.52 7.43 1.2 2.65 2.53 5.4 2.73 8.34-1.61 6.52-1.63 13.41-.19 19.98.84 7.29-.8 14.84 1.6 21.94 4.06 2.49 6.4 6.83 10.23 9.59 2.03 1.67 5.3.69 6.97 2.88.85.9 1.63 1.85 2.42 2.8-1.47 3.22-4.84 4.57-8.01 5.55-2.29-.05-4.55-.56-6.85-.35-2.07-1-4.08-2.13-6.24-2.95-3.48-.31-6.99.18-10.48-.09-3.49-1.91-2.82-6.1-2.4-9.41.8-4.65 3.12-9.17 2.07-14-.56-4.86-3.5-8.89-5.17-13.36-.9-5.23.57-10.44 1.62-15.51-2.84-1.72-5.93-3.07-8.36-5.42-.07 8.77.07 17.55.93 26.29.11 12.73 1.44 25.41 1.46 38.15-3.99 4.76-10.86 6.67-16.92 6.37-.48-.34-1.42-1.01-1.89-1.35-.41.18-1.21.55-1.62.73-.93-.9-1.87-1.79-2.81-2.68.5-.6.99-1.2 1.49-1.79.58.43 1.73 1.28 2.3 1.71.12-4.04-.1-8.08-.62-12.09-1.22-9.3-.67-18.71-1.76-28.03.08-9.36-1.2-18.65-1.21-28.01-.08-7.31-1.98-14.74-.19-21.98-3.7.75-7.31 1.79-10.97 2.7-1.47 4.36-1.1 8.97-1.01 13.48 2.44 4.21 4.57 8.79 4.48 13.77.31 7.88-4.75 14.59-5.73 22.22-.15 4.84.11 9.68.1 14.51l-.7-.29c-.47 1.28-.94 2.55-1.43 3.83 5.58 5.2 10.17 11.37 15.41 16.9L74 198.5c-4.56-5.84-9.7-11.19-14.45-16.88-.63 5.12-1.16 10.35-.28 15.46.73 4.49 3.83 8.02 5.97 11.89 2.07 3.48 6.74 6.15 6.2 10.67-.19 2.09-2.66 2.08-4.21 2.43-4.95 3.78-13.08 2.44-16.41-2.89-.7-3.14-1.43-6.27-2.78-9.21-.55-2.86-.74-5.79-1.71-8.57.71-3.6 1.02-7.3.62-10.95-.85-5.57-3.15-10.88-3.5-16.52.71-7.23 5.18-13.62 4.78-21.02 1.1-4.9-.77-9.74-3.2-13.93-1.63.12-3.41-.3-4.18-1.9-.18-1.41.03-2.83.05-4.24-.91.56-1.82 1.13-2.72 1.71-2.7.14-4.62-1.59-6.12-3.61-2.68-3.62-7.86-5.12-9.13-9.78-.38-2.93-1.03-6.57 1.5-8.75 2.29-1.95 5.49-2.29 8.27-3.23.24-3.19-.32-6.58 1.15-9.54 1.1-2.09.5-4.53 1.29-6.7 1.75-4.26-1.61-8.77.07-13.05.51-2.01 2.22-3.3 3.63-4.68.55.6 1.11 1.2 1.65 1.81-4.58 1.71-3.34 7.06-3.09 10.85 2.29 8.68 6.25 16.86 10.45 24.76 3.36.31 6.78.39 10.06-.52 8.23-2 16.59-3.45 24.73-5.81-.91-6.38-3.79-12.34-5.81-18.44 2.69-5.18 2.67-11.28 3.02-16.98-3.98.84-7.94 1.83-12.02 2.07-.73 4.84-.45 9.79-1.68 14.55-1.09 5.25-4.13 9.75-6.11 14.66-1.02 2.55-4.32 5.41-6.88 2.94-3.32-3.36-7.51-6.29-9.13-10.92-1.54-5.89-1.03-12.02-.3-17.99-2.45 1.33-3.1-1.31-4.28-2.56l-1.7 1.07c1.03-4.42.89-9.34 3.54-13.21 2.42-3.59 4.44-7.57 7.83-10.38 2.45-2.41 5.87-3.27 8.95-4.55.34-4-2.91-6.91-3.33-10.73-.38-3.54-1.6-7.21-.31-10.7m2.99-1.71c-2.57 3.77-.84 8.36-.81 12.53 1.5 3.02 4.44 4.57 7.68 5.03-.42.44-1.26 1.32-1.67 1.76 1.99 3.37 5.15 6.59 9.3 6.79 2.99.25 7-1.07 7.33-4.56.41-5.02.32-10.14-.73-15.07-.99-3.38-1.91-7.46-5.4-9.13-5.14-2.02-11.88-1.85-15.7 2.65m2.41 18.24c-.09 3.16.33 6.53-1.28 9.42.52.52 1.04 1.05 1.57 1.57 3.43 1.05 9.68 1.21 9.57 6.06 1.5.2 3.01.4 4.52.57.52-2.6 1.05-5.2 1.54-7.8-3.05.57-6.34.56-9.04-1.17-3.47-1.79-4.52-5.82-6.88-8.65m20.81 5.13l-.68 2c-3.08 2.47-2.15 7.15-4.89 10.02 2.18-.54 4.38-1.04 6.6-1.42-.61-.48-1.21-.97-1.81-1.45.02-1.62.06-3.24.12-4.85 1.59 1.4 1.98 3.46 2.36 5.44 1.67-1.34 3.4-2.66 5.49-3.32.55 1.82-1.26 2.58-2.46 3.25.8.51 1.61 1 2.41 1.51-6.04.83-11.86 3.32-18.04 2.94-.19.55-.58 1.65-.78 2.2 3.26.23 6.46-.48 9.56-1.43.33 2.58 1.68 4.8 2.65 7.16 1.02 4 1.02 8.2.37 12.26-.46 4.02-1.97 8.04-.86 12.09 1.02-1.92 1.82-3.96 2.34-6.07.21.01.64.04.85.06 2.53 5.63 5.07 11.5 5.54 17.73 6.41-1.75 13.03-2.69 19.36-4.69 3.43-1.15 3.17-5.29 3.17-8.21-.9-7.51-3.1-14.76-5.76-21.82 2.19 7.87.34 16.06-1.29 23.85-.4 2.06-1.33 4.62-3.78 4.83-2.82-.18-5.38-1.67-7.69-3.19-4.32-3.36-5.14-9.11-7.8-13.6.24 1.56-.23 2.61-1.44 3.13l-.46-.19c-.03-4.96.4-9.93.17-14.89-.08-3.22-2.14-5.9-3.77-8.53 3.14-.64 6.31-1.14 9.44-1.81l2.77-2.44c-1.08-1.79-2.47-.84-3.76.35-.52-1.17.07-2.32.5-3.41 2.24-.05 4.1.98 5.49 2.68-.69 1.25-2.73 2.17-2.52 3.71 2.04 1.98 5.11 3.32 5.54 6.46 2.35 6.84-3.03 12.61-4.51 18.92-.48-1.32-1.76-2.59-1.09-4.07 1.26-3.74 3.39-7.17 4.04-11.13-2.23-1.81-4.81-3.11-7.63-3.68v-1.66c2.41-.01 4.72.64 6.72 1.98-.12-.68-.24-1.37-.35-2.06-1.61-1.27-3.24-2.49-4.87-3.72-2.2.27-4.38.61-6.54 1.09.86 1.79 1.81 3.53 2.57 5.37 1.55 4.15-.55 8.69 1.09 12.83 1.16 3.03 3.06 5.73 4.26 8.75 1.54 3.52 5.09 5.57 8.66 6.52 1.39.25 2.97-.68 2.99-2.18.47-2.76 1.48-5.36 2.22-8.04.95-10.26-2.8-20.11-2.96-30.31-.8-1.46-1.21-3.19-2.36-4.43a11.72 11.72 0 00-10.03 1.46c-1.87-3.46-5.23-5.65-9.15-5.99M41.82 64.22c-.85 2.89-1 5.95-1.75 8.87.85.47 1.71.92 2.57 1.37.26-1.74.52-3.48.79-5.23.88 1.15 1.76 2.39 1.81 3.9.56 5.39-.13 10.83-.07 16.24.44.59.88 1.19 1.32 1.78-.65 5.5 4.68 8.8 8.06 12.2 1.66 1.9 2.9-.79 3.55-2.14 2.58-5.87 6-11.59 6.64-18.09.48-5.03.83-10.09 1.88-15.04.7-3.05-.12-6.13-.64-9.14.6-.31 1.79-.94 2.38-1.25-3.1-3.03-7.72-2.07-11.64-2.68a242.71 242.71 0 00-3.95 3.91c1.93 1.51 4.93 3.86 2.9 6.54.7 2.32 1.24 4.74 2.53 6.83-1.36 2.88-2.65 5.78-3.65 8.8-.8 3.71-4.6 5.36-6.6 8.3-.59-.46-1.19-.91-1.78-1.37 1.08-1.2 2.18-2.38 3.29-3.55-.56-1.9-1.07-3.81-1.46-5.74 2.14.53 2.67 2.76 3.59 4.46 1.82-5.43 5.13-11.13 2.35-16.88-2.63.98-5.31 2.41-8.21 1.91-1.63-1.3-.84-3.65-1.22-5.44 1.94-1.28 4-2.34 6.13-3.23 1.55-2.11 3.39-3.96 5.32-5.72.4-1.91 1.1-3.73 1.86-5.51-7.26 2.95-12.06 9.42-16 15.9m59.83-12.18c1.12 1.03 2.26 2.05 3.4 3.07 1.24-.71 2.49-1.41 3.7-2.18-.75-3.28-4.8-.95-7.1-.89M46.58 63.63c-.02.56-.07 1.69-.09 2.25 3.18.31 6.01-1.14 8.47-3-2.54-2.18-5.83-.43-8.38.75m21.36 7.6c3.82-.35 7.6-1.11 11.15-2.59-.68-1.51-1.35-3.01-2.03-4.52-1.44.31-2.88.61-4.32.9.25.96.5 1.91.74 2.86-1.34-1.3-2.63-2.65-3.94-3.99a51.08 51.08 0 00-1.6 7.34M83.7 91.09a43.13 43.13 0 01-2.03 4.62c.85 2.45 1.88 4.85 2.67 7.33.1 2.3-1.2 4.52-.7 6.85.84 4.6 1.28 9.26 1.68 13.92.6-.07 1.79-.22 2.39-.29-.03-2.86-.1-5.71-.32-8.56-.09-2.35-.69-4.94.89-6.95.39-6.03-3.35-11.18-4.58-16.92m-46.6 4.85c-1.63 5.11-2.36 10.46-1.61 15.8 1.87 2.67 3.8 5.31 5.44 8.13.33 3.46.27 7.02 1.72 10.26 1.71-2.43 2.87-5.71 6.06-6.54 4.03-1.69 8.4-.84 12.46.22.29-3.5.52-7.01.59-10.52-4.14 1.37-8.4 2.53-12.81 2.3-2.28-1.95-4.85-3.86-6-6.74-1.94-4.31-4.16-8.49-5.85-12.91m52.09 10.3c-.06 6.27.44 12.52.39 18.78-2.07.49-4.13 1.03-6.2 1.55-1.19-5.94-.42-12.06-1.08-18.07-2.07.58-4.18 1.03-6.33 1.22 1.05 8.41 1.37 16.88 1.6 25.35.97 8.96.58 18 1.61 26.97.09 11.95 1.53 23.84 1.45 35.8.58 1.63.88 4.53 3.38 3.78 4.39-1.46 9.57-2.4 12.96-5.54-.28-6.02-.81-12.03-1.2-18.04-.06-6.7-.27-13.4-.94-20.07-.23-10.67-.6-21.34-1.03-32-.85-6.55-.86-13.14-1-19.73-1.2-.01-2.41-.01-3.61 0m-64.75 9.73c-.49 3.35.8 7.03 3.75 8.85 3.33 2.14 5.73 5.31 8.64 7.92 1.2-.64 2.4-1.27 3.6-1.91-.92-3.53-1.58-7.12-1.68-10.76-2.72-2.36-3.87-5.94-5.62-8.98-3.1 1.09-7.33 1.33-8.69 4.88m70.26-5.3c.79 6.17.51 12.39.82 18.59 3.73 2.76 7.29 6.07 12.14 6.55.07.44.19 1.3.26 1.73-.72.18-2.14.54-2.86.72.43 6.06-.26 12.31 1.56 18.21 1.08 2.44 2.78 4.69 3.1 7.41.45 3.65.23 7.34.16 11.01-1.5 3.89-1.64 8.1-1.9 12.21.63.63 1.25 1.26 1.88 1.89 4.13.12 8.59-1.35 12.48.66 2.69 1.49 5.79 1.59 8.76 1.97 2.59.44 4.6-1.7 6.79-2.72-1.08-1.16-2.06-2.73-3.85-2.73-4.73-.42-7.68-4.41-10.46-7.76-1.91-2.47-5.44-3.93-5.75-7.37-2.04-6.92-.21-14.17-1.53-21.16-1.5-6.56-.46-13.39.99-19.86-1.4-2.46-2.08-5.28-3.68-7.62-2.45-2-5.68-2.75-8.06-4.85-3.26-2.81-6.95-5.06-10.85-6.88m-46.37 15.58c-2 1.76-3.33 4.12-4.74 6.36 3.95 4.97 7.17 10.88 6.82 17.43-1.44 6.02 1.57 11.8 2.97 17.54-.31.13-.95.39-1.26.52-1.16-2.34-2.07-4.8-3.28-7.12-1.58 4.51-3.39 9.11-3.39 13.96.55 6.48 3.35 12.54 3.81 19.04.22 2.73-.79 5.34-.98 8.03 1.08 5.63 4.52 10.59 4.81 16.38 2.92 3.88 8.82 4.85 12.6 1.65-.55-.43-1.64-1.3-2.19-1.73-2.79 1.1-5.72.5-8.59.22.13-.45.41-1.37.54-1.82 2.52.36 5.06.26 7.56-.18 2.38-.7 3.14 2.27 4.38 3.62 1.03-.42 2.06-.85 3.08-1.28-5.71-7.57-12.75-15.12-13.87-24.96-.57-5.22-.37-10.74 1.91-15.58 1.92-3.96 1.46-8.46 1.31-12.71-2.99 4.04-1.84 9.36-3.76 13.79-2.68-5.64.5-11.99 3.39-16.96 1.48-4.01 2.64-8.13 4.1-12.15-.06-3.71.65-8-2.45-10.75.14-.4.41-1.21.54-1.61 2.02 1.8 3.79 3.95 4.1 6.75.96-6.32-1.17-12.49-4.96-17.5-.82-1.85-3.04-1.64-4.7-1.86-2.56-.08-5.45-.5-7.75.92z"/><path d="M103.13 34.87c3.42-.79 7.01-.56 10.5-.84-.14.62-.41 1.85-.55 2.47-3.05-.27-6.11-.16-9.16-.08l2.03.61c-.76.52-1.51 1.03-2.27 1.54-1.46-.13-2.93-.17-4.39-.1-2.59 2.74-3.58 6.53-5.53 9.69-.58.14-1.74.43-2.32.57 1.74-4.23 3.86-8.31 6.42-12.1 1.43-.01 2.85-.02 4.28-.04.25-.43.74-1.29.99-1.72zM116.23 35.88c-.71-.69-1.42-1.39-2.12-2.08 5.63-.09 11.27-.31 16.91-.17 7 .53 13.87 2.31 20.27 5.19 2.72 36.74 4.46 73.54 7 110.3-.12 7.24 1.5 14.41.92 21.67-2.43-.88-1.66-3.82-2.14-5.8-2.35-41.6-5.13-83.16-7.47-124.75-10.45-4.64-22.1-5.6-33.37-4.36z"/><path d="M105.08 38.99l2.31-1.74c8.71 2.61 17.61 4.77 26.02 8.24 2.37 41.11 4.26 82.23 6.45 123.34.42 3.67.5 7.37.49 11.06 2.99-1.49 6.52-1.35 9.45-2.98 2.61-1.64 4.95-3.64 7.38-5.53l1.52 1.31c-2.78 2.18-5.41 4.65-8.56 6.3-3.72 1.42-7.55 2.55-11.39 3.57-2.26-34.87-3.66-69.78-5.6-104.66-.74-6.29-.26-12.65-.94-18.95-.48-4.11-.56-8.25-.55-12.38-8.89-2.42-17.52-5.86-26.58-7.58zM105.48 121.67c.44-.01 1.33-.05 1.77-.06 1.31 2.24 2.94 4.57 2.77 7.31-.93 1.41-2.27 2.47-3.5 3.6-3.99-.29-8.07-2.36-9.31-6.41 2.82 1.66 5.12 4.78 8.62 4.84 3.87-2.29 1.07-6.38-.35-9.28zM57.82 138.5c.51-.03 1.54-.1 2.05-.14-1.72 1.72-3.06 4.83-5.93 4.43.81-1.81 2.51-2.94 3.88-4.29zM56.73 153.35c1.58.24 3.18.54 4.41 1.68-1.45.39-2.94.6-4.44.66.01-.58.02-1.76.03-2.34zM112.79 183.89c-2.15-2.29-2.9-5.78-.84-8.39.37 2.79.65 5.58.84 8.39zM52.34 199.14c.66-1.54 1.85-2.72 3.5-3.13-1.09 2.79-2.36 5.55-4.27 7.89-1.75-1.52.14-3.25.77-4.76z"/></g></svg>