<svg width="221pt" height="275pt" viewBox="0 0 221 275" xmlns="http://www.w3.org/2000/svg"><g fill="#FFF"><path d="M0 0h221v275H0V0m92 30.04c-3.87 2.16-4.49 6.94-4.81 10.94.75 3.31 2.25 6.41 2.84 9.77.58-.87 1.13-1.76 1.66-2.65 2.33 2.43 4.14 5.43 4.48 8.84 4.15 2.55 8.93 3.74 13.79 2.97-3.51 1.6-4.45 7.14-1.98 9.89.03-2.89.08-5.83 1.29-8.51 2.94.26 5.25 2.12 7.53 3.8 2.03.05 4.09-.03 6.1.39 3.42 2.79 6.63 6.8 5.99 11.52-1.05 4.94 4.65 7.88 4.19 12.78-1.13 1.97-2.35 3.88-3.47 5.85-4.07-.69-4.1-5.69-7.41-7.23-.24-2.05-.23-4.13 1.99-5.08-.45-1.37-.9-2.73-1.39-4.09-.62 2.02-1.22 4.03-1.76 6.07-1.9-1.93-5.17-.97-6.56 1.1 2.04-.08 4.87-1.6 6.15.8.37 3.31 1.33 6.5 1.69 9.81.31 3.4-1.61 6.38-3.28 9.17-2.54.88-3.68 3.51-2.68 5.99 1.18 2.86-1.47 7.36 1.7 8.98.23-3.91 1.55-8.37-.71-11.91.5-.47 1.49-1.4 1.98-1.87.22 4.38.95 8.75.71 13.14-1.06.62-2.12 1.24-3.17 1.88-4.78.35-9.52 1.24-14.15 2.48-.29-1.55-.6-3.1-.85-4.66-2.63-2.99-4.33-6.78-8.11-8.57.87 1.92 1.89 3.83 3.85 4.85.15.7.3 1.4.46 2.1 1.63 1.84 2.95 3.97 3.09 6.5-1.92 0-3.84-.1-5.75-.26-.43.59-.86 1.17-1.29 1.76-.31-.89-.93-2.67-1.24-3.57-1.27-2.66-4.68-2.34-7.06-3.22-.08-2.42-1.17-4.58-2.05-6.77-.92-2.1-.54-4.46-1.04-6.64-1.83-2.08-3.41-4.39-3.95-7.16-1.92-2.43-4.7-4.84-4.84-8.11 3.68-3.57 3.98-9.75 9.05-11.91-.42-.24-1.26-.73-1.68-.97-2.25 1.42-4.33 3.23-5.22 5.83-1.92 5-5.59 9.05-9.4 12.7-1.06-1.92-2.29-3.81-4.39-4.71 2.79 4.1 2.36 9.24 4.15 13.75 1.34 5.27 5.64 8.98 9.87 12.06 2.36 1.72 5.43 1.15 8.16 1.19.3 2.5 2.4 3.12 4.6 3.11 1.74 2.35 3.32 4.83 4.48 7.52-.29 1.24-.58 2.48-.85 3.73-1.21.32-2.42.65-3.63.97-1.91.03-3.81-.02-5.71.08 2.26.82 4.63 1.29 7 1.69-1.31.85-2.67 1.63-3.82 2.71 4 .57 5.68-4.15 9.36-4.47.67-1.18 1.31-2.38 1.92-3.59-.7.73-2.1 2.17-2.8 2.89.26-2.22.24-4.47-.05-6.69 2.01.03 4.03.09 6.05.17.45-.3 1.36-.91 1.81-1.22 5.85 1.01 11.32-1.62 16.91-2.82l-1.2 2.76c-4.14 1.03-8.24 2.46-12.55 2.52-2.7.11-5.47-.25-8.04.81 6.18 2.37 13.09.82 19.13-1.29 2.18-.5 2.61-2.97 3.75-4.57 3.09 2.93 2.64 7.06 1.2 10.67 1.31 2.7 2.46 5.47 3.59 8.25 1.67 3.72 1.13 8.26 4.16 11.34-4.37 1.52-7.18 5.68-11.72 6.83-3.77 1.39-7.5-.91-11.27-1.02.67-3.48 4.32-3.91 7.14-4.59 2.18-2.02 3.19-5.11 3.67-7.98-1.96 1.89-3.29 4.28-4.56 6.66-2.48.44-5.47.6-7.26 2.57-.38 2.14-.5 4.33-.82 6.49-2.9 2.11-6.42 3.27-9.99 3.43-3.57.16-6.68-1.87-9.93-3.03.02-1.82.03-3.64.02-5.46-2.27.45-2.51 3.05-3.61 4.7-3.06-2.57.46-5.35.72-8.29.46-5.62 3.44-10.83 2.35-16.57-.35.15-1.06.44-1.41.59-.14 4.95-2.23 9.58-2.39 14.53-.05 2.46-1 4.79-3.12 6.18-.14 2.44 1.98 3.94 3.31 5.68l2.16-1.44c-.72 3.67-.36 7.4-.07 11.1.44 3.5-1.58 6.59-2.1 9.95-.77 3.49-.79 7.08-1.18 10.61-2.01 6.93-5.75 14.05-3.77 21.45 1.88 7.87 4.77 16.12 2.12 24.19.51 1.64 1.06 3.26 1.6 4.89-.84 2.95.86 5.56 1.94 8.17.94 2.1.37 4.66 1.62 6.63 4.02 4.88 12.19 6.12 17.22 2.17 3.48.68 4.91-2.55 4.03-5.4-1.35-1.72-2.45-3.64-3.97-5.21-3.23-3.1-4.35-7.66-7.26-11.02-3.42-8.6-2.51-18.52 1-26.93 1.54-5.04.06-10.34.56-15.47.59-3.76 1.95-7.32 3.21-10.89.77-4.42 4.57-7.55 5.21-12.03 1.07-3.21.5-6.74 1.54-9.9.55-2.5 2.75-.64 3.45.42 1.58 2.5 3.32 4.91 4.64 7.56.96 2.74.3 5.85 1.57 8.52 1.6 3.43 3.05 6.93 4.78 10.31 2.61-2.89-.2-6.12-1.34-8.94-1.54-2.81-.91-6.12-1.85-9.09-2.4-4.8-5.49-9.24-8.99-13.31 2.51-.18 4.4 2.11 6.89 1.99 5.36.07 10.23-2.75 14.26-6.04.29 4.33.48 8.67.78 13.01-.5-.01-1.52-.04-2.03-.05-.72 2.32-1.08 4.99-2.97 6.69-2.7.03-4.18-2.69-4.82-4.95-.2.02-.59.08-.79.11.96 2.2 1.27 5.17 3.67 6.32 3.42.3 4.68-3.41 6.44-5.6 2.31 3.64 1.42 7.88.47 11.77.01 4.35-1.14 8.75.07 13.04 2.05 8.68-.8 17.86 2.63 26.32 2.68 2.68 5.61 5.16 7.82 8.28 2.43 3.41 6.42 5.35 10.56 5.61.72.96 1.44 1.95 2.15 2.94-1.72.89-3.33 1.96-5.1 2.76-2.64.25-5.28-.52-7.94-.34-2.36-1.09-4.61-2.79-7.32-2.79-2.97-.16-5.93.42-8.9.22-1.12-.04-2.58-.75-2.75-1.96-.12-4.42.45-8.88 1.79-13.09.34-4.02.24-8.11-.13-12.12-.36-3.58-3.43-6.19-3.72-9.77-.54-4.2-1.66-8.46-.64-12.69-.46-.83-.92-1.64-1.39-2.45-.84 4.66-1.54 9.44-1.09 14.17 1.55 4.82 5.22 8.84 5.46 14.09 1.68 7.92-4.15 15.46-1.87 23.31 2.79 2.85 6.93 2.3 10.48 1.71 4.05-.77 7.02 3.14 10.93 3.09 1.99-.04 3.95.81 5.92.51 3.16-1.24 6.98-2.12 8.39-5.62-.81-1.02-1.64-2.01-2.5-2.97-1.56-2.05-4.52-1.13-6.54-2.41-4.24-2.28-6.32-6.93-10.17-9.68-1.86-1.15-2.25-3.42-2.77-5.35-1.03-6.84-.15-13.8-.96-20.65-1.42-6.29-1.39-12.94.18-19.18.68-3.12-1.82-5.81-1.51-8.92.12-4.57-.05-9.16-.89-13.67.56-.29 1.7-.87 2.26-1.16-2.02-2.66-4.01-5.62-3.84-9.13.34-4.65-2.45-8.63-3.49-12.99.46-2.36 1.58-4.72.89-7.16-.73-1.47-1.96-2.59-2.76-4-1.17-5.88-1.62-12-.42-17.92l2.34-.3-.25 1.62c2.13 2.53 5.26 3.95 7.89 5.91 2.25 1.68 5.44.91 7.13-1.2 7.51-5.61 10.52-15.16 11.75-24.08.13 1.71.24 3.44-.08 5.14.61.16 1.81.47 2.41.63-.44-2.71-.95-5.41-1.3-8.13 1.56-1.62 4.15-2.31 4.95-4.64 1.49-3.86 2.36-8.46.03-12.19-.03-.93-.06-1.85-.08-2.78-2.32.28-4.08-1.11-5.86-2.35-3.36-.77-7.86-1.12-10.39 1.65 2.61-.23 5.08-1.25 7.71-1.35 2.1 1.31 3.7 3.2 5.17 5.15-.39 1.64-1.24 3.23-1.23 4.94-.09 1.28 2.45 1.36 1.82 2.61-1.86-.83-4.98-.12-2.96 3-2.57.37-5.08-.31-7.56-.92-1.4-3.11-1.54-7.39-5.22-8.78.79-1.68 1.63-3.35 2.04-5.17-2.21 1.75-3.78 4.14-5.33 6.45-.93 4.63 1.93 8.71 5.2 11.63-.7 2.49-1.71 4.88-3.24 6.98-.56-.28-1.67-.86-2.22-1.14-.89-2.62-2.4-4.95-3.94-7.23 1.45-4.96-.93-10.18-4.14-13.91-2.38-2.86-6.39-2.33-9.66-3.07-1.92-.77-3.72-1.78-5.61-2.61 1.66-2.25 2.38-5.02 2.88-7.73-.2-3.65-.77-7.33-.15-10.99-.68-3.82-.98-8.14-3.84-11.07-5.3-3.41-13.06-4.78-18.03 0m-1.36 21c-.3 5.32-5.86 7.05-8.81 10.66-3.54 1.35-7.72 1.01-10.87 3.23-3.1 3.38-4.43 7.98-7.34 11.53-6.01 2.35-9.53 8.74-11.31 14.67-1.43 3.8-5.64 7.36-3.92 11.73 2.69 3.7 5 7.65 6.67 11.92 1.8 1.68 3.58 3.39 5.55 4.87-.11-.58-.34-1.73-.45-2.31l1.17.52.75.9 2.96 1.52c-.57.46-1.7 1.39-2.27 1.86l3.28-.6c-.27.31-.81.93-1.07 1.24 2.12 1.27 4.31 2.43 6.53 3.52 1.75 1.36 4.42 1.82 5.13 4.19 1.09 2.63 3.53 4.5 6.37 4.77-1.94-2.17-3.77-4.43-5.34-6.88l-.69-3.72c.94-1.06 1.85-2.13 2.77-3.19-.41-.14-1.24-.4-1.65-.53-.92 1.67-1.74 3.39-2.51 5.13-1.65-.92-3.27-1.86-4.88-2.83-2.94-.56-4.47-3.39-6.88-4.88-1.74-1.36-4.08-1.9-5.44-3.71-1.44-2.02-2.75-4.13-3.84-6.36-1.16-2.6-3.66-4.19-5.4-6.37 2.25-7.31 5.74-14.27 10.31-20.43 1.98-1.76 4.16-3.28 6.22-4.94 2.56-4.35 4.17-9.78 9.36-11.71.47.12 1.42.34 1.89.45 1.64-.51 3.3-.93 4.95-1.41 2.02-3.08 5.56-4.45 8.16-6.91 1.98-1.46 1.74-4.28 2.43-6.38-.46.11-1.38.34-1.83.45m1.48 1.92c2.03 4.52 3.82 9.23 7.02 13.09-.89-2.79-2.89-5.05-3.68-7.87-.78-1.92-1.28-4.23-3.34-5.22M81.41 64.98c2.44 1.79 5.44 2.64 7.87 4.49-.99 1.89-2.19 3.67-3.22 5.54 2.71-.47 4.01-3.36 3.92-5.88.31-.14.93-.42 1.24-.55 3.52.27 7.08-.05 10.57.57 1.88 1.24 3.27 3.1 5.23 4.24-.15-1.79-.63-3.95-2.49-4.7-4.76-2.38-10.13-1.57-15.1-.52l.85-.99c-2.67-1.64-5.7-2.66-8.87-2.2m26.43 5.15c2.17-1.1 5.74-.36 6.66-3.14-.84-.01-2.53-.01-3.37-.02-1.09 1.06-2.2 2.1-3.29 3.16m-3.4 17.52c-2.83 1.02-5.85 1.36-8.85 1.34-.8-2.02-2.88-2.06-4.73-2.1 1.63 1.48 3.3 3.31 5.67 3.38 3.62.66 7.02-.93 10.53-1.42 1.32-1.96 4.47-4.38 1.87-6.66-1.22 2-2 4.67-4.49 5.46m-21.63-3.78c3.81 3.9 8.14 7.31 11.71 11.43.38-.2 1.13-.59 1.51-.78-1.48-2.66-4.57-3.76-6.49-6.03-1.84-2.07-4.02-3.86-6.73-4.62m27.01 3.01c1.89.95 3.9 1.65 5.96 2.13-.72.49-1.44.98-2.17 1.45 1.13 1.24 2.19 2.54 3.43 3.67-.35-.53-1.06-1.59-1.42-2.13.69-.65 1.43-1.26 2.16-1.86-1.16-.92-2.26-1.91-3.11-3.12-1.62-.11-3.23-.17-4.85-.14m-2.93 3.1c.68 1.66 2.24 2.67 3.17 4.16 1.19 1.6.04 3.23-.87 4.61-3.79-.81-6.07 2.38-8.37 4.75-.68-.21-2.04-.62-2.72-.83-1.89-2.15-4.49-3.51-6.26-5.79-1.03.56-2.05 1.16-3.03 1.8-1.55-.47-3.11-.89-4.68-1.28 1.78 2.19 5.09 4.18 7.69 2.12 2.84 2.1 5.8 4.13 9.1 5.45 2 .47 2.99-1.81 4.17-2.97 1.16-2.09 4.04-1.56 5.54-3.26l.63.44c.66-.7 1.34-1.4 2.02-2.09.11 2.6 1.95 3.24 4.18 2.86-1.72-2.53-5.51-3.02-6.09-6.47-.28-2.36-2.5-3.04-4.48-3.5m-3.95 4.67c-2.51 1.11-5.63 2.58-5.16 5.93 2.25-1.82 4.2-4.19 7.2-4.72.3-1.52 1.51-3.17.69-4.69-1.92-.27-1.85 2.32-2.73 3.48m49.37 2c1.56-.33 1.02-3.18.38-4.3-1.53.33-.99 3.17-.38 4.3m-35.71-.98c.37 2.35 3.06 2.45 4.76 3.29-.41-2.36-2.74-2.97-4.76-3.29m35.47 1.68c2.96 17.89 6.17 35.75 8.95 53.67.54-.79 1.08-1.59 1.61-2.39-2.57-15.01-5.07-30.02-7.65-45.02-.39-1.88-.65-3.78-.54-5.7l-2.37-.56m-68.14 6.55c2.07 1.75 4.72 2.18 7.33 1.6 1.89 1.14 3.79 2.31 5.92 2.95-1.49-1.88-3.11-3.65-4.53-5.59-1.88.04-3.69.56-5.48 1.09-2.25-.18-3.18-2.19-3.08-4.25-.47 1.35-.24 2.8-.16 4.2m27.45-2.5c-.48 2.93-.55 6.09-2.42 8.57-3.3-2.57-6.2.86-8.18 3.3 1.62-.23 2.94-1.18 4.32-1.95 1.67-.11 3.49.5 5-.5 3.07-2.02 3.89-6.69 1.28-9.42m-14.44 8.18c-.46 1.38.94 3.23 2.25 3.69 1.68-1.09-.5-4.32-2.25-3.69m13.2 10.57c1.61-1.18 2.87-2.75 3.98-4.4-2.55-.14-3.45 2.39-3.98 4.4m-47.49.18c.39.41.39.41 0 0m18.09 4.77c-.47 1.54-.88 3.12-.64 4.74.4-.21 1.18-.63 1.58-.84.38-2.65 2.53-4.31 4.05-6.32-1.69.74-3.31 1.64-4.99 2.42m20.29 11.31c-1.06.29-1.59 1.33-2.29 2.08 4.75-1.15 9.47-2.43 14.24-3.52 1.44-.42 2.84-.32 4.21.3-4.93 2.17-10.98 3.31-14.32 7.91 5.42-2.61 10.9-5.1 16.55-7.2-.05-1.05-.08-2.1-.11-3.15-6.23.21-12.39 1.57-18.28 3.58M96 145.39c4.51 2.1 9.31-.56 13.99-.31 4.2-.37 9.36-.09 12.04-4.01-8.38 2.98-17.44 2.32-26.03 4.32m65.34 6.97c.63 5.12 2.24 10.15 2.2 15.33.6.31 1.8.94 2.4 1.26-.79-6.35-2.19-12.6-2.96-18.96-.55.79-1.1 1.58-1.64 2.37m3.98 21.29c1.56-.33 1.02-3.18.38-4.3-1.53.34-.99 3.17-.38 4.3m1.72.45c-.64.73-1.29 1.45-1.92 2.18 1.77 7.24 2.82 14.65 3.84 22.02.48.12 1.44.37 1.92.49-.88-8.29-2.84-16.42-3.84-24.69m-43.78 52.69c-.32 2.73-.12 5.85 2.45 7.46-.7-2.6-1.37-5.21-1.11-7.93-.34.12-1 .36-1.34.47z"/><path d="M96.71 28.78c2.89-1.94 6.38.17 9.48.33 2.37 2.11 5.74 4.26 5.55 7.85.11 6.37-.46 12.76.2 19.12-1.07 1.07-2.2 2.08-3.31 3.09-3.51-1.05-7.75-.56-10.49-3.4-1.13-1.12-1.46-2.77-2.11-4.17.34-.69 1.03-2.05 1.38-2.73l-3.51.16c-.97-1.78-1.91-3.57-2.88-5.34-.1.64-.31 1.92-.42 2.56-.53-3.49-2.48-7.04-1.06-10.58.59-3.71 4.42-5.05 7.17-6.89zM154.71 66.8c2.15 1.84 1.98 4.75 2.55 7.26-.76 1.66-1.29 3.45-2.27 5-2.19 1.9-5.32 1.87-8.06 2-1.87-.1-4.16.04-5.42-1.64-2.43-2.82-5.89-5.56-5.33-9.72 1.24.5 2.16 1.36 2.77 2.6l.6-.23c.7 2.14 1.26 4.74 3.47 5.84 3.42 1.67 8.48 1.86 10.8-1.68.28-.11.84-.34 1.13-.46-.7-2.95-.4-5.98-.24-8.97zM141.16 81.85c1.02.49 2.04.97 3.07 1.44-.43 4.2-1.55 8.58-.01 12.69-.34-4.38 1.41-8.58 1.03-12.98l3.87.24c-.98 5.36-1.45 10.88-4.05 15.78-1.5 4.61-5.36 7.62-8.52 11.04-4.2 1.06-6.71-3.11-10.27-4.47-.58-1.11-1.14-2.24-1.7-3.36l-1.62.85c1.82-4.19.78-8.64-.3-12.84 1.74 2.24 3.55 4.42 5.51 6.48-.67 1.74-1.16 3.57-1.23 5.45 2.78-7.18 9.92-10.99 14.08-17.22.03-.77.1-2.32.14-3.1zM66.82 98.27c2.22-1.49 4.25-3.27 5.9-5.39.4 2.68 2.06 4.84 4.04 6.58.56 2.12 1.31 4.2 2.57 6.02 2.18 3.14 2.66 7.03 3.74 10.62-5.32-.05-11.41-2.43-13.57-7.63-1.72-3.13-2.06-6.74-2.68-10.2zM84.02 164.72c2.66.89 5.16 2.23 7.85 3.06 3.79.67 7.56-.6 11.24-1.37-.75 5.48-1.56 11.21-4.91 15.8-2.38 5.05-3.85 10.49-5.61 15.78-2.26 4.12-4.53 8.42-4.86 13.2-.08 1.86-.57 4.1 1.15 5.43 1.1-5.2.45-10.98 3.98-15.4.04 4.59.85 9.49-1.38 13.74-2.92 6.27-2.91 13.53-1.62 20.21.84 5.6 4.84 9.86 7.2 14.83 2.42 2.91 5.02 5.7 6.76 9.12-1.24.4-2.48.78-3.74 1.12-.98-1.54-1.69-4.5-4.15-3.65-2.77.53-5.62.25-8.4.61-.2.4-.6 1.22-.8 1.62.96-.17 1.92-.35 2.88-.52 3.03 1.99 7.34-2.09 9.21 1.94-4.07 3.69-10.8 2.39-13.77-2.04-.2-7.35-6.39-13.76-4.5-21.23 1.42-7.33-1.71-14.46-3.2-21.52-1.36-6.52 1.01-13.06 3.69-18.9 1.68 2.65 1.37 6.76 4.4 8.4-1.52-5.21-3.01-10.45-3.76-15.84.1-4.56 2.35-8.64 3.28-13.01.07-3.82-.69-7.58-.94-11.38m3.5 15.1c-.2 1.81-.38 3.62-.5 5.44.72-1.15 1.41-2.3 2.1-3.46 1.73-.38 3.43-.85 5.12-1.39a52.21 52.21 0 002.03 3.13c-.24-1.91-.89-3.72-1.57-5.5-2.21 1.26-4.64 1.88-7.18 1.78m1.7 9.3c.16.55.48 1.64.64 2.18 1.41-.28 3.17-.17 3.51-1.94-1.39-.1-2.77-.18-4.15-.24m-6.51 53.61c1.02-.93 2.03-1.89 2.99-2.88.55-1.92 1.61-3.62 2.63-5.31-3.67.58-4.64 5.16-5.62 8.19z"/></g><g fill="#333"><path d="M92 30.04c4.97-4.78 12.73-3.41 18.03 0 2.86 2.93 3.16 7.25 3.84 11.07-.62 3.66-.05 7.34.15 10.99-.5 2.71-1.22 5.48-2.88 7.73 1.89.83 3.69 1.84 5.61 2.61 3.27.74 7.28.21 9.66 3.07 3.21 3.73 5.59 8.95 4.14 13.91 1.54 2.28 3.05 4.61 3.94 7.23.55.28 1.66.86 2.22 1.14 1.53-2.1 2.54-4.49 3.24-6.98-3.27-2.92-6.13-7-5.2-11.63 1.55-2.31 3.12-4.7 5.33-6.45-.41 1.82-1.25 3.49-2.04 5.17 3.68 1.39 3.82 5.67 5.22 8.78 2.48.61 4.99 1.29 7.56.92-2.02-3.12 1.1-3.83 2.96-3 .63-1.25-1.91-1.33-1.82-2.61-.01-1.71.84-3.3 1.23-4.94-1.47-1.95-3.07-3.84-5.17-5.15-2.63.1-5.1 1.12-7.71 1.35 2.53-2.77 7.03-2.42 10.39-1.65 1.78 1.24 3.54 2.63 5.86 2.35.02.93.05 1.85.08 2.78 2.33 3.73 1.46 8.33-.03 12.19-.8 2.33-3.39 3.02-4.95 4.64.35 2.72.86 5.42 1.3 8.13-.6-.16-1.8-.47-2.41-.63.32-1.7.21-3.43.08-5.14-1.23 8.92-4.24 18.47-11.75 24.08-1.69 2.11-4.88 2.88-7.13 1.2-2.63-1.96-5.76-3.38-7.89-5.91l.25-1.62-2.34.3c-1.2 5.92-.75 12.04.42 17.92.8 1.41 2.03 2.53 2.76 4 .69 2.44-.43 4.8-.89 7.16 1.04 4.36 3.83 8.34 3.49 12.99-.17 3.51 1.82 6.47 3.84 9.13-.56.29-1.7.87-2.26 1.16.84 4.51 1.01 9.1.89 13.67-.31 3.11 2.19 5.8 1.51 8.92-1.57 6.24-1.6 12.89-.18 19.18.81 6.85-.07 13.81.96 20.65.52 1.93.91 4.2 2.77 5.35 3.85 2.75 5.93 7.4 10.17 9.68 2.02 1.28 4.98.36 6.54 2.41.86.96 1.69 1.95 2.5 2.97-1.41 3.5-5.23 4.38-8.39 5.62-1.97.3-3.93-.55-5.92-.51-3.91.05-6.88-3.86-10.93-3.09-3.55.59-7.69 1.14-10.48-1.71-2.28-7.85 3.55-15.39 1.87-23.31-.24-5.25-3.91-9.27-5.46-14.09-.45-4.73.25-9.51 1.09-14.17.47.81.93 1.62 1.39 2.45-1.02 4.23.1 8.49.64 12.69.29 3.58 3.36 6.19 3.72 9.77.37 4.01.47 8.1.13 12.12-1.34 4.21-1.91 8.67-1.79 13.09.17 1.21 1.63 1.92 2.75 1.96 2.97.2 5.93-.38 8.9-.22 2.71 0 4.96 1.7 7.32 2.79 2.66-.18 5.3.59 7.94.34 1.77-.8 3.38-1.87 5.1-2.76-.71-.99-1.43-1.98-2.15-2.94-4.14-.26-8.13-2.2-10.56-5.61-2.21-3.12-5.14-5.6-7.82-8.28-3.43-8.46-.58-17.64-2.63-26.32-1.21-4.29-.06-8.69-.07-13.04.95-3.89 1.84-8.13-.47-11.77-1.76 2.19-3.02 5.9-6.44 5.6-2.4-1.15-2.71-4.12-3.67-6.32.2-.03.59-.09.79-.11.64 2.26 2.12 4.98 4.82 4.95 1.89-1.7 2.25-4.37 2.97-6.69.51.01 1.53.04 2.03.05-.3-4.34-.49-8.68-.78-13.01-4.03 3.29-8.9 6.11-14.26 6.04-2.49.12-4.38-2.17-6.89-1.99 3.5 4.07 6.59 8.51 8.99 13.31.94 2.97.31 6.28 1.85 9.09 1.14 2.82 3.95 6.05 1.34 8.94-1.73-3.38-3.18-6.88-4.78-10.31-1.27-2.67-.61-5.78-1.57-8.52-1.32-2.65-3.06-5.06-4.64-7.56-.7-1.06-2.9-2.92-3.45-.42-1.04 3.16-.47 6.69-1.54 9.9-.64 4.48-4.44 7.61-5.21 12.03-1.26 3.57-2.62 7.13-3.21 10.89-.5 5.13.98 10.43-.56 15.47-3.51 8.41-4.42 18.33-1 26.93 2.91 3.36 4.03 7.92 7.26 11.02 1.52 1.57 2.62 3.49 3.97 5.21.88 2.85-.55 6.08-4.03 5.4-5.03 3.95-13.2 2.71-17.22-2.17-1.25-1.97-.68-4.53-1.62-6.63-1.08-2.61-2.78-5.22-1.94-8.17-.54-1.63-1.09-3.25-1.6-4.89 2.65-8.07-.24-16.32-2.12-24.19-1.98-7.4 1.76-14.52 3.77-21.45.39-3.53.41-7.12 1.18-10.61.52-3.36 2.54-6.45 2.1-9.95-.29-3.7-.65-7.43.07-11.1l-2.16 1.44c-1.33-1.74-3.45-3.24-3.31-5.68 2.12-1.39 3.07-3.72 3.12-6.18.16-4.95 2.25-9.58 2.39-14.53.35-.15 1.06-.44 1.41-.59 1.09 5.74-1.89 10.95-2.35 16.57-.26 2.94-3.78 5.72-.72 8.29 1.1-1.65 1.34-4.25 3.61-4.7.01 1.82 0 3.64-.02 5.46 3.25 1.16 6.36 3.19 9.93 3.03 3.57-.16 7.09-1.32 9.99-3.43.32-2.16.44-4.35.82-6.49 1.79-1.97 4.78-2.13 7.26-2.57 1.27-2.38 2.6-4.77 4.56-6.66-.48 2.87-1.49 5.96-3.67 7.98-2.82.68-6.47 1.11-7.14 4.59 3.77.11 7.5 2.41 11.27 1.02 4.54-1.15 7.35-5.31 11.72-6.83-3.03-3.08-2.49-7.62-4.16-11.34-1.13-2.78-2.28-5.55-3.59-8.25 1.44-3.61 1.89-7.74-1.2-10.67-1.14 1.6-1.57 4.07-3.75 4.57-6.04 2.11-12.95 3.66-19.13 1.29 2.57-1.06 5.34-.7 8.04-.81 4.31-.06 8.41-1.49 12.55-2.52l1.2-2.76c-5.59 1.2-11.06 3.83-16.91 2.82-.45.31-1.36.92-1.81 1.22-2.02-.08-4.04-.14-6.05-.17.29 2.22.31 4.47.05 6.69.7-.72 2.1-2.16 2.8-2.89-.61 1.21-1.25 2.41-1.92 3.59-3.68.32-5.36 5.04-9.36 4.47 1.15-1.08 2.51-1.86 3.82-2.71-2.37-.4-4.74-.87-7-1.69 1.9-.1 3.8-.05 5.71-.08 1.21-.32 2.42-.65 3.63-.97.27-1.25.56-2.49.85-3.73-1.16-2.69-2.74-5.17-4.48-7.52-2.2.01-4.3-.61-4.6-3.11-2.73-.04-5.8.53-8.16-1.19-4.23-3.08-8.53-6.79-9.87-12.06-1.79-4.51-1.36-9.65-4.15-13.75 2.1.9 3.33 2.79 4.39 4.71 3.81-3.65 7.48-7.7 9.4-12.7.89-2.6 2.97-4.41 5.22-5.83.42.24 1.26.73 1.68.97-5.07 2.16-5.37 8.34-9.05 11.91.14 3.27 2.92 5.68 4.84 8.11.54 2.77 2.12 5.08 3.95 7.16.5 2.18.12 4.54 1.04 6.64.88 2.19 1.97 4.35 2.05 6.77 2.38.88 5.79.56 7.06 3.22.31.9.93 2.68 1.24 3.57.43-.59.86-1.17 1.29-1.76 1.91.16 3.83.26 5.75.26-.14-2.53-1.46-4.66-3.09-6.5-.16-.7-.31-1.4-.46-2.1-1.96-1.02-2.98-2.93-3.85-4.85 3.78 1.79 5.48 5.58 8.11 8.57.25 1.56.56 3.11.85 4.66 4.63-1.24 9.37-2.13 14.15-2.48 1.05-.64 2.11-1.26 3.17-1.88.24-4.39-.49-8.76-.71-13.14-.49.47-1.48 1.4-1.98 1.87 2.26 3.54.94 8 .71 11.91-3.17-1.62-.52-6.12-1.7-8.98-1-2.48.14-5.11 2.68-5.99 1.67-2.79 3.59-5.77 3.28-9.17-.36-3.31-1.32-6.5-1.69-9.81-1.28-2.4-4.11-.88-6.15-.8 1.39-2.07 4.66-3.03 6.56-1.1.54-2.04 1.14-4.05 1.76-6.07.49 1.36.94 2.72 1.39 4.09-2.22.95-2.23 3.03-1.99 5.08 3.31 1.54 3.34 6.54 7.41 7.23 1.12-1.97 2.34-3.88 3.47-5.85.46-4.9-5.24-7.84-4.19-12.78.64-4.72-2.57-8.73-5.99-11.52-2.01-.42-4.07-.34-6.1-.39-2.28-1.68-4.59-3.54-7.53-3.8-1.21 2.68-1.26 5.62-1.29 8.51-2.47-2.75-1.53-8.29 1.98-9.89-4.86.77-9.64-.42-13.79-2.97-.34-3.41-2.15-6.41-4.48-8.84-.53.89-1.08 1.78-1.66 2.65-.59-3.36-2.09-6.46-2.84-9.77.32-4 .94-8.78 4.81-10.94m4.71-1.26c-2.75 1.84-6.58 3.18-7.17 6.89-1.42 3.54.53 7.09 1.06 10.58.11-.64.32-1.92.42-2.56.97 1.77 1.91 3.56 2.88 5.34l3.51-.16c-.35.68-1.04 2.04-1.38 2.73.65 1.4.98 3.05 2.11 4.17 2.74 2.84 6.98 2.35 10.49 3.4 1.11-1.01 2.24-2.02 3.31-3.09-.66-6.36-.09-12.75-.2-19.12.19-3.59-3.18-5.74-5.55-7.85-3.1-.16-6.59-2.27-9.48-.33m58 38.02c-.16 2.99-.46 6.02.24 8.97-.29.12-.85.35-1.13.46-2.32 3.54-7.38 3.35-10.8 1.68-2.21-1.1-2.77-3.7-3.47-5.84l-.6.23c-.61-1.24-1.53-2.1-2.77-2.6-.56 4.16 2.9 6.9 5.33 9.72 1.26 1.68 3.55 1.54 5.42 1.64 2.74-.13 5.87-.1 8.06-2 .98-1.55 1.51-3.34 2.27-5-.57-2.51-.4-5.42-2.55-7.26m-13.55 15.05c-.04.78-.11 2.33-.14 3.1-4.16 6.23-11.3 10.04-14.08 17.22.07-1.88.56-3.71 1.23-5.45-1.96-2.06-3.77-4.24-5.51-6.48 1.08 4.2 2.12 8.65.3 12.84l1.62-.85c.56 1.12 1.12 2.25 1.7 3.36 3.56 1.36 6.07 5.53 10.27 4.47 3.16-3.42 7.02-6.43 8.52-11.04 2.6-4.9 3.07-10.42 4.05-15.78l-3.87-.24c.38 4.4-1.37 8.6-1.03 12.98-1.54-4.11-.42-8.49.01-12.69-1.03-.47-2.05-.95-3.07-1.44M66.82 98.27c.62 3.46.96 7.07 2.68 10.2 2.16 5.2 8.25 7.58 13.57 7.63-1.08-3.59-1.56-7.48-3.74-10.62-1.26-1.82-2.01-3.9-2.57-6.02-1.98-1.74-3.64-3.9-4.04-6.58-1.65 2.12-3.68 3.9-5.9 5.39m17.2 66.45c.25 3.8 1.01 7.56.94 11.38-.93 4.37-3.18 8.45-3.28 13.01.75 5.39 2.24 10.63 3.76 15.84-3.03-1.64-2.72-5.75-4.4-8.4-2.68 5.84-5.05 12.38-3.69 18.9 1.49 7.06 4.62 14.19 3.2 21.52-1.89 7.47 4.3 13.88 4.5 21.23 2.97 4.43 9.7 5.73 13.77 2.04-1.87-4.03-6.18.05-9.21-1.94-.96.17-1.92.35-2.88.52.2-.4.6-1.22.8-1.62 2.78-.36 5.63-.08 8.4-.61 2.46-.85 3.17 2.11 4.15 3.65 1.26-.34 2.5-.72 3.74-1.12-1.74-3.42-4.34-6.21-6.76-9.12-2.36-4.97-6.36-9.23-7.2-14.83-1.29-6.68-1.3-13.94 1.62-20.21 2.23-4.25 1.42-9.15 1.38-13.74-3.53 4.42-2.88 10.2-3.98 15.4-1.72-1.33-1.23-3.57-1.15-5.43.33-4.78 2.6-9.08 4.86-13.2 1.76-5.29 3.23-10.73 5.61-15.78 3.35-4.59 4.16-10.32 4.91-15.8-3.68.77-7.45 2.04-11.24 1.37-2.69-.83-5.19-2.17-7.85-3.06z"/><path d="M90.64 51.04c.45-.11 1.37-.34 1.83-.45-.69 2.1-.45 4.92-2.43 6.38-2.6 2.46-6.14 3.83-8.16 6.91-1.65.48-3.31.9-4.95 1.41-.47-.11-1.42-.33-1.89-.45-5.19 1.93-6.8 7.36-9.36 11.71-2.06 1.66-4.24 3.18-6.22 4.94-4.57 6.16-8.06 13.12-10.31 20.43 1.74 2.18 4.24 3.77 5.4 6.37 1.09 2.23 2.4 4.34 3.84 6.36 1.36 1.81 3.7 2.35 5.44 3.71 2.41 1.49 3.94 4.32 6.88 4.88 1.61.97 3.23 1.91 4.88 2.83.77-1.74 1.59-3.46 2.51-5.13.41.13 1.24.39 1.65.53-.92 1.06-1.83 2.13-2.77 3.19l.69 3.72c1.57 2.45 3.4 4.71 5.34 6.88-2.84-.27-5.28-2.14-6.37-4.77-.71-2.37-3.38-2.83-5.13-4.19-2.22-1.09-4.41-2.25-6.53-3.52.26-.31.8-.93 1.07-1.24l-3.28.6c.57-.47 1.7-1.4 2.27-1.86l-2.96-1.52-.75-.9-1.17-.52c.11.58.34 1.73.45 2.31-1.97-1.48-3.75-3.19-5.55-4.87-1.67-4.27-3.98-8.22-6.67-11.92-1.72-4.37 2.49-7.93 3.92-11.73 1.78-5.93 5.3-12.32 11.31-14.67 2.91-3.55 4.24-8.15 7.34-11.53 3.15-2.22 7.33-1.88 10.87-3.23 2.95-3.61 8.51-5.34 8.81-10.66z"/><path d="M92.12 52.96c2.06.99 2.56 3.3 3.34 5.22.79 2.82 2.79 5.08 3.68 7.87-3.2-3.86-4.99-8.57-7.02-13.09zM81.41 64.98c3.17-.46 6.2.56 8.87 2.2l-.85.99c4.97-1.05 10.34-1.86 15.1.52 1.86.75 2.34 2.91 2.49 4.7-1.96-1.14-3.35-3-5.23-4.24-3.49-.62-7.05-.3-10.57-.57-.31.13-.93.41-1.24.55.09 2.52-1.21 5.41-3.92 5.88 1.03-1.87 2.23-3.65 3.22-5.54-2.43-1.85-5.43-2.7-7.87-4.49zM107.84 70.13c1.09-1.06 2.2-2.1 3.29-3.16.84.01 2.53.01 3.37.02-.92 2.78-4.49 2.04-6.66 3.14zM104.44 87.65c2.49-.79 3.27-3.46 4.49-5.46 2.6 2.28-.55 4.7-1.87 6.66-3.51.49-6.91 2.08-10.53 1.42-2.37-.07-4.04-1.9-5.67-3.38 1.85.04 3.93.08 4.73 2.1 3 .02 6.02-.32 8.85-1.34zM82.81 83.87c2.71.76 4.89 2.55 6.73 4.62 1.92 2.27 5.01 3.37 6.49 6.03-.38.19-1.13.58-1.51.78-3.57-4.12-7.9-7.53-11.71-11.43zM109.82 86.88c1.62-.03 3.23.03 4.85.14.85 1.21 1.95 2.2 3.11 3.12-.73.6-1.47 1.21-2.16 1.86.36.54 1.07 1.6 1.42 2.13-1.24-1.13-2.3-2.43-3.43-3.67.73-.47 1.45-.96 2.17-1.45a26.81 26.81 0 01-5.96-2.13z"/><path d="M106.89 89.98c1.98.46 4.2 1.14 4.48 3.5.58 3.45 4.37 3.94 6.09 6.47-2.23.38-4.07-.26-4.18-2.86-.68.69-1.36 1.39-2.02 2.09l-.63-.44c-1.5 1.7-4.38 1.17-5.54 3.26-1.18 1.16-2.17 3.44-4.17 2.97-3.3-1.32-6.26-3.35-9.1-5.45-2.6 2.06-5.91.07-7.69-2.12 1.57.39 3.13.81 4.68 1.28.98-.64 2-1.24 3.03-1.8 1.77 2.28 4.37 3.64 6.26 5.79.68.21 2.04.62 2.72.83 2.3-2.37 4.58-5.56 8.37-4.75.91-1.38 2.06-3.01.87-4.61-.93-1.49-2.49-2.5-3.17-4.16z"/><path d="M102.94 94.65c.88-1.16.81-3.75 2.73-3.48.82 1.52-.39 3.17-.69 4.69-3 .53-4.95 2.9-7.2 4.72-.47-3.35 2.65-4.82 5.16-5.93zM152.31 96.65c-.61-1.13-1.15-3.97.38-4.3.64 1.12 1.18 3.97-.38 4.3zM116.6 95.67c2.02.32 4.35.93 4.76 3.29-1.7-.84-4.39-.94-4.76-3.29zM152.07 97.35l2.37.56c-.11 1.92.15 3.82.54 5.7 2.58 15 5.08 30.01 7.65 45.02-.53.8-1.07 1.6-1.61 2.39-2.78-17.92-5.99-35.78-8.95-53.67zM83.93 103.9c-.08-1.4-.31-2.85.16-4.2-.1 2.06.83 4.07 3.08 4.25 1.79-.53 3.6-1.05 5.48-1.09 1.42 1.94 3.04 3.71 4.53 5.59-2.13-.64-4.03-1.81-5.92-2.95-2.61.58-5.26.15-7.33-1.6zM111.38 101.4c2.61 2.73 1.79 7.4-1.28 9.42-1.51 1-3.33.39-5 .5-1.38.77-2.7 1.72-4.32 1.95 1.98-2.44 4.88-5.87 8.18-3.3 1.87-2.48 1.94-5.64 2.42-8.57zM96.94 109.58c1.75-.63 3.93 2.6 2.25 3.69-1.31-.46-2.71-2.31-2.25-3.69zM110.14 120.15c.53-2.01 1.43-4.54 3.98-4.4-1.11 1.65-2.37 3.22-3.98 4.4zM62.65 120.33c.39.41.39.41 0 0zM80.74 125.1c1.68-.78 3.3-1.68 4.99-2.42-1.52 2.01-3.67 3.67-4.05 6.32-.4.21-1.18.63-1.58.84-.24-1.62.17-3.2.64-4.74zM101.03 136.41c5.89-2.01 12.05-3.37 18.28-3.58.03 1.05.06 2.1.11 3.15-5.65 2.1-11.13 4.59-16.55 7.2 3.34-4.6 9.39-5.74 14.32-7.91-1.37-.62-2.77-.72-4.21-.3-4.77 1.09-9.49 2.37-14.24 3.52.7-.75 1.23-1.79 2.29-2.08zM96 145.39c8.59-2 17.65-1.34 26.03-4.32-2.68 3.92-7.84 3.64-12.04 4.01-4.68-.25-9.48 2.41-13.99.31zM161.34 152.36c.54-.79 1.09-1.58 1.64-2.37.77 6.36 2.17 12.61 2.96 18.96-.6-.32-1.8-.95-2.4-1.26.04-5.18-1.57-10.21-2.2-15.33zM165.32 173.65c-.61-1.13-1.15-3.96.38-4.3.64 1.12 1.18 3.97-.38 4.3zM167.04 174.1c1 8.27 2.96 16.4 3.84 24.69-.48-.12-1.44-.37-1.92-.49-1.02-7.37-2.07-14.78-3.84-22.02.63-.73 1.28-1.45 1.92-2.18zM87.52 179.82c2.54.1 4.97-.52 7.18-1.78.68 1.78 1.33 3.59 1.57 5.5a52.21 52.21 0 01-2.03-3.13 56.93 56.93 0 01-5.12 1.39c-.69 1.16-1.38 2.31-2.1 3.46.12-1.82.3-3.63.5-5.44zM89.22 189.12c1.38.06 2.76.14 4.15.24-.34 1.77-2.1 1.66-3.51 1.94-.16-.54-.48-1.63-.64-2.18zM123.26 226.79c.34-.11 1-.35 1.34-.47-.26 2.72.41 5.33 1.11 7.93-2.57-1.61-2.77-4.73-2.45-7.46zM82.71 242.73c.98-3.03 1.95-7.61 5.62-8.19-1.02 1.69-2.08 3.39-2.63 5.31-.96.99-1.97 1.95-2.99 2.88z"/></g></svg>