<svg width="240" height="250pt" viewBox="0 0 180 250" xmlns="http://www.w3.org/2000/svg"><g fill="#FFF"><path d="M0 0h180v250H0V0m72.22 25.91c-.88 3.01.09 6.1.42 9.12.27 4.12 3.6 7.29 3.48 11.5-3.15 1.25-6.49 2.3-9.01 4.68-1.85 2.06-5.33 1.64-6.75 4.13-2.12 3.76-2.56 8.15-2.98 12.37l-.79-.39c-.65 2.68-1.44 5.32-2.09 8-4.68 5.43-1.34 12.6-.55 18.77-.76 2.13-1.53 4.25-2.43 6.33-1.24 2.6-.39 5.55-.21 8.27-2.76 1.14-5.74 1.82-8.35 3.29-2.95 2.04-2.53 5.99-2.03 9.08.76 3.17 3.62 5.01 6.03 6.87 2.33 1.73 3.87 4.27 6.13 6.07 1.95.99 4.02-.29 5.9-.84-.07 1.31-.29 2.62-.14 3.93.86 1.66 2.9 1.76 4.46 2.31 2.25 4.11 3.98 8.78 2.94 13.52.36 7.4-4.06 13.82-4.78 21.06.34 5.45 2.53 10.58 3.41 15.94.64 3.78-.08 7.58-.31 11.36.5 6.17 2.82 11.89 4.29 17.86 3.25 5.44 11.32 6.54 16.38 3.02 1.52-.47 4.01-.53 4.2-2.58.62-2.78-1.73-4.84-3.19-6.88-3.16-3.32-5.27-7.41-7.59-11.32-2.45-5.11-1.93-11.01-1.56-16.49.25-3.5 2.02-6.62 2.84-9.98.99-5.27-.79-10.76.83-15.95 1.87-6.6 5.63-12.9 5.08-19.99-.06-4.4-2.08-8.34-4.02-12.16-1.05-4.62-.58-9.53.48-14.12 2.09-.43 4.16-.94 6.24-1.41-.51 20.84-1.1 41.68-.94 62.53.56-.67 1.04-1.39 1.55-2.09-.2-10.55.83-21.11.1-31.65 0-3.97.31-7.93.41-11.89 2.01.56 4.07.92 6.13.32 4.62 2.86 10.05 2.85 15.28 2.78 4.09 1.68 7.21 5.15 11.55 6.37-.73 4.1-1.93 8.15-1.86 12.35-.6 5.23 3.68 9.18 4.73 14.06 3 8.18-3.02 16.01-1.6 24.31 2.56 2.18 5.91 2.68 9.15 2.04 3.71-.86 6.9 1.43 10.08 2.93 2.32-.1 4.61.4 6.93.37 2.61-.95 5.77-1.74 7.27-4.3.94-1.3-.4-2.53-1.14-3.5-1.7-2.61-5.27-1.69-7.55-3.41-3.82-2.76-6.19-7.07-10.23-9.59-2.5-7.47-.51-15.42-1.77-23.05-1.25-5.88-1.12-12.04.16-17.9.54-3.04-1.14-5.88-2.16-8.63-2.09-4.48-7.59-4.93-10.89-8.1-4.63-3.69-9.87-7.63-16.08-7.54.15.36.46 1.08.61 1.44 8.42 1.6 14.02 8.66 21.57 12.05 3.3 1.65 3.83 5.75 5.19 8.82-.46 5.78-2.17 11.6-1.18 17.44 2.04 8.57-.3 17.55 2.54 26.03 3.8 2.95 6.58 6.93 10.03 10.22 2.69 2.8 7.44 1.63 9.56 5.19-1.67.94-3.3 1.96-5.06 2.72-2.01.28-4-.33-5.99-.51-3.17-.18-5.74-2.64-8.96-2.47-3.35-.14-7.16 1.29-10.01-1.1.05-4.56.85-9.04 1.84-13.47.17-4.99.84-10.47-1.87-14.95-3.73-6.28-2.18-13.92-2.96-20.84.73-.18 2.17-.54 2.9-.71-.05-.41-.14-1.24-.19-1.65-1.83-.51-3.7-.93-5.44-1.72-2.52-1.45-4.47-3.88-7.36-4.67-3.21-1.23-6.7-.66-10.04-.91-2.57-.15-4.8-1.56-7.05-2.64 1.34-3.32 1.53-6.9 2.18-10.37 1.46-3.61 4.7-6.85 8.86-6.84-1.24-.53-2.51-.97-3.81-1.33 7.44-.59 14.57-3.11 21.88-4.5 2.4-.74 6.08-.65 6.53-3.79 1.8-4.05 1.24-8.58-.18-12.65-2.16-5.89-1.5-12.85-5.71-17.91 4.64.1 7.52-4.37 7.72-8.56.6-6.45.53-14-4.54-18.77-2.09-2.58-6-2.66-8.72-1.13-2.61 1.53-2.68 4.87-3.93 7.33-1.58.47-3.14.97-4.7 1.49-2.28-2.86-4.86-6.35-9.05-5.79 3.08 2.75 7.09 4.9 8.48 9.07 2.26 3.93 1.36 8.49.9 12.75-.72 2.49-1.93 5.36-4.63 6.21-2.21.69-4.62-.43-6-2.19-4.15-4.91-4.45-11.9-3.4-17.95.6-3.12 3.06-5.26 5.74-6.68-1.4-.26-2.79-.53-4.16-.93 1.3-7.16.34-14.85-3.14-21.29-2.96-4.83-9.12-5.46-14.24-4.88-4.68.33-8.64 4.17-9.66 8.66m51.35 95.64c.9 2.07 1.97 4.09 2.4 6.32-.29 1.6-1.86 2.56-2.78 3.81-2.77-1.77-5.39-3.76-8.14-5.54 1.54 3.95 5.43 5.95 9.45 6.42 1.38-1.59 4.23-2.91 3.37-5.41-.46-2.01-1.6-3.76-2.6-5.52l-1.7-.08m7.19 62.46c-.18-2.85-.43-5.7-.87-8.53-1.83 2.77-1.22 6.09.87 8.53z"/><path d="M75.41 23.42c3.82-4.53 10.59-4.68 15.74-2.66 2.63 1.22 3.84 4.02 4.64 6.63 2.22 6.3 1.67 13.09 1.38 19.65-1.43 1-3.56 1.3-4.43 2.93.05 1.48 1.05 2 2.98 1.58a96.14 96.14 0 00-.38 5.63c-1.1-2.84-2.35-5.83-4.96-7.61-1.67-1.76-4.27-1.55-6.37-2.44-1.34-1.25-2.3-2.83-3.38-4.29.48-.63.97-1.25 1.46-1.88-3.15-.46-5.92-2.05-7.48-4.88-.02-4.2-1.79-8.86.8-12.66zM118.67 45.47c.42-2.55 2.57-3.96 4.46-5.41 6.28 2.57 9.28 9.52 8.9 15.99.16 4.64-1.99 10.26-7.22 10.88 0-4.37-.16-8.76.5-13.09-.49-1.3-.95-2.6-1.4-3.91a43.77 43.77 0 00-6.4-2.88c.39-.52.78-1.05 1.16-1.58zM77.78 41.6c1.68 2.11 2.91 4.52 4.41 6.75-.91 1.39-1.76 2.81-2.47 4.31-2.36.05-4.87.09-6.5 2.07-.36.11-1.07.34-1.42.46-1.15-.92-2.32-1.81-3.48-2.71 2.43-1.4 4.92-2.68 7.35-4.08-.32 1.16-.96 3.5-1.28 4.67 3.93-2.57 3.45-7.39 3.39-11.47z"/><path d="M80.25 54.17c1.46-2.16 3.35-3.93 5.45-5.44 8.56 4.04 11.12 15.8 6.8 23.74-1.33 2.8-4.52 2.75-7.17 2.87 1.86-6.01 1.45-12.35 1.04-18.52-1.9-1.18-3.93-2.14-6.12-2.65zM112.18 50.56c2.23-.55 4.47-1.1 6.73-1.51 1.31 1.27 2.96 2.33 3.76 4.02.61 4.31-.61 8.72.44 12.99.47 2.6 1.79 5.14 1.25 7.85-.64 4.01-.77 8.08-1.29 12.11-.81 3.1-1.98 6.12-2.14 9.36-4.01 2.08-8.69-1.02-10.97-4.38-2.81-5.78-6.76-11.42-6.32-18.18 1.06.52 2.13 1.06 3.19 1.6 2.05-1.37 3.82-3.1 5.33-5.05.45.42 1.36 1.26 1.82 1.68-.69 3.53-2.31 6.73-3.68 10.01-.99 1.73.02 3.45.66 5.08 1.31-5.14 4.83-9.55 5.19-14.96.24-2.77.16-5.56.19-8.34-.48-.29-1.45-.87-1.93-1.16-1.54-3.52-1.85-7.34-2.23-11.12zM60.1 60.13c.52-3.05 2.74-5.24 5.1-7.01 4.42 1.61 7.65 5.44 8.65 10.01.98 4.9 1.32 10.61-1.69 14.9-1.67 2.52-5.7 2.9-7.74.64-4.85-4.71-5.52-12.22-4.32-18.54z"/><path d="M72.73 56.7c2.12-2.34 5.46-1.28 8.22-1.24 1.25.95 2.51 1.88 3.78 2.8.18 3.89.41 7.82-.42 11.65-.94 4.58-1.05 9.27-1.65 13.89-.74 5.95-3.76 11.2-6.16 16.58-.62 1.41-1.35 2.8-2.52 3.84-1.96-1-3.41-2.7-5-4.17-2.42-2.36-5.12-5.2-4.53-8.9-.42-.59-.84-1.18-1.26-1.76.18-2.98-.19-5.98.22-8.94 1.44.84 2.91 1.61 4.43 2.29 1.48-.44 2.96-.85 4.45-1.24 4.34-5.12 4.92-12.31 3.39-18.62-.58-2.21-1.22-4.55-2.95-6.18m-4.76 26.21c-1.03 1.85-2.37 3.49-3.67 5.15l1.62 1.32c2.11-2.64 4.9-4.67 6.82-7.48-1.6.28-3.19.62-4.77 1.01z"/><path d="M95.96 64.18c1.47 3.08 3.36 5.94 5.84 8.31-.22 3.22-.04 6.55 1.66 9.4 2.52 4.16 3.45 9.23 6.88 12.82 2.12 2 4.86 3.29 7.65 4.05 2.14.59 4.05-1.19 4.47-3.18 1.99-7.42 2.92-15.13 2.8-22.81 2.13 6.26 3.82 12.68 4.72 19.24.2 3.27-.1 7.81-4.1 8.55-16.93 4.09-33.92 8.01-50.93 11.77-3 .73-6.1.54-9.14.31-4.67-8.79-8.81-17.96-11.48-27.56-1.26-4.14 1.28-7.58 4-10.33l-2.25.16c.43-1.01 1.31-3.05 1.74-4.06 1.25 2.72 2.28 5.57 4.14 7.96-1.66 4.53-.91 9.43-.22 14.07.77 4.3 4.25 7.27 7.24 10.14 1.48 1.39 3.28 3.78 5.6 2.81 3.56-1.75 4.2-6.05 5.99-9.19 3.25-5.65 4.49-12.16 4.76-18.6 1.71-1.99 4.87-.21 6.72-1.98 1.11-.98 2.06-2.11 3.05-3.21.44-1.69.96-3.37 1.54-5.02l-.68-3.65z"/><path d="M55.07 95.93c3 6.23 5.02 13.17 9.84 18.31 4.75 2.75 10.1.39 14.88-.96-.1 3.51-.32 7.01-.59 10.52-4.1-.99-8.5-1.92-12.55-.17-3.16.85-4.31 4.14-6.01 6.56-1.4-3.27-1.36-6.83-1.76-10.29-1.58-2.88-3.76-5.41-5.25-8.35-1.25-5.23.06-10.56 1.44-15.62zM90.44 110.86a252.4 252.4 0 0010.12-2.44c-1.88 2.47-4.37 4.68-5.38 7.7-.29 3.56-.68 7.11-1.6 10.57-1.08-1.52-2.28-2.97-3.26-4.56-.27-3.76.01-7.52.12-11.27zM42.66 115.48c1.55-3.13 5.52-3.29 8.41-4.46 1.65 3.17 3.21 6.49 5.67 9.14.17 3.63.83 7.21 1.69 10.73-1.23.61-2.46 1.23-3.69 1.84-2.85-2.72-5.37-5.8-8.68-7.99-2.94-1.95-4.43-5.89-3.4-9.26z"/><path d="M66.31 126.24c2.31-1.42 5.21-1 7.78-.91 1.63.23 3.85-.03 4.66 1.8 3.55 4.7 5.53 10.37 5.53 16.28-1.52-2.19-3.28-4.24-5.61-5.59 3.01 4.6 4.02 10.59 1.82 15.73-1.57 3.8-2.13 8-4.44 11.49-2.55 4.12-3.36 9.1-2.79 13.87.3-.14.91-.42 1.21-.57 1.28-4.24.7-9.02 3.3-12.88.18 4.06.66 8.36-.98 12.2-3.12 6.62-3.02 14.37-1.13 21.32 2.76 7.52 8.01 13.66 12.84 19.91-1 .44-2 .86-3 1.26-.93-1.26-1.84-2.53-2.94-3.64-3.01.21-6.03.52-9.06.28-.17.44-.51 1.32-.68 1.77 3.72.87 7.91-1.03 11.19 1.33-3.62 3.02-9.82 2.84-12.55-1.27-1.02-5.78-3.96-10.97-5.18-16.7.17-2.64 1.11-5.2.96-7.87-.41-5.49-2.37-10.69-3.41-16.06-1.32-5.89 1.15-11.69 3.09-17.14 1.17 2.47 2.18 5.01 3.15 7.56.34-.26 1.02-.76 1.36-1.02-1.76-5.59-4.26-11.4-3.03-17.36.32-6.55-2.87-12.46-6.84-17.43 1.43-2.22 2.77-4.57 4.75-6.36m9.48 12.25c-1.49 1.48-3 2.94-4.34 4.56 2.96-.14 4.68-2.62 6.45-4.64l-2.11.08m-1.01 14.7c-.01.66-.01 1.98-.02 2.65 1.54-.25 3.08-.53 4.58-.94-1.48-.68-3.02-1.21-4.56-1.71m-6.44 50.35c3.64-.75 4.22-4.94 5.43-7.85-3.04 1.54-4.21 4.91-5.43 7.85z"/></g><g fill="#333"><path d="M72.22 25.91c1.02-4.49 4.98-8.33 9.66-8.66 5.12-.58 11.28.05 14.24 4.88 3.48 6.44 4.44 14.13 3.14 21.29 1.37.4 2.76.67 4.16.93-2.68 1.42-5.14 3.56-5.74 6.68-1.05 6.05-.75 13.04 3.4 17.95 1.38 1.76 3.79 2.88 6 2.19 2.7-.85 3.91-3.72 4.63-6.21.46-4.26 1.36-8.82-.9-12.75-1.39-4.17-5.4-6.32-8.48-9.07 4.19-.56 6.77 2.93 9.05 5.79 1.56-.52 3.12-1.02 4.7-1.49 1.25-2.46 1.32-5.8 3.93-7.33 2.72-1.53 6.63-1.45 8.72 1.13 5.07 4.77 5.14 12.32 4.54 18.77-.2 4.19-3.08 8.66-7.72 8.56 4.21 5.06 3.55 12.02 5.71 17.91 1.42 4.07 1.98 8.6.18 12.65-.45 3.14-4.13 3.05-6.53 3.79-7.31 1.39-14.44 3.91-21.88 4.5 1.3.36 2.57.8 3.81 1.33-4.16-.01-7.4 3.23-8.86 6.84-.65 3.47-.84 7.05-2.18 10.37 2.25 1.08 4.48 2.49 7.05 2.64 3.34.25 6.83-.32 10.04.91 2.89.79 4.84 3.22 7.36 4.67 1.74.79 3.61 1.21 5.44 1.72.05.41.14 1.24.19 1.65-.73.17-2.17.53-2.9.71.78 6.92-.77 14.56 2.96 20.84 2.71 4.48 2.04 9.96 1.87 14.95-.99 4.43-1.79 8.91-1.84 13.47 2.85 2.39 6.66.96 10.01 1.1 3.22-.17 5.79 2.29 8.96 2.47 1.99.18 3.98.79 5.99.51 1.76-.76 3.39-1.78 5.06-2.72-2.12-3.56-6.87-2.39-9.56-5.19-3.45-3.29-6.23-7.27-10.03-10.22-2.84-8.48-.5-17.46-2.54-26.03-.99-5.84.72-11.66 1.18-17.44-1.36-3.07-1.89-7.17-5.19-8.82-7.55-3.39-13.15-10.45-21.57-12.05-.15-.36-.46-1.08-.61-1.44 6.21-.09 11.45 3.85 16.08 7.54 3.3 3.17 8.8 3.62 10.89 8.1 1.02 2.75 2.7 5.59 2.16 8.63-1.28 5.86-1.41 12.02-.16 17.9 1.26 7.63-.73 15.58 1.77 23.05 4.04 2.52 6.41 6.83 10.23 9.59 2.28 1.72 5.85.8 7.55 3.41.74.97 2.08 2.2 1.14 3.5-1.5 2.56-4.66 3.35-7.27 4.3-2.32.03-4.61-.47-6.93-.37-3.18-1.5-6.37-3.79-10.08-2.93-3.24.64-6.59.14-9.15-2.04-1.42-8.3 4.6-16.13 1.6-24.31-1.05-4.88-5.33-8.83-4.73-14.06-.07-4.2 1.13-8.25 1.86-12.35-4.34-1.22-7.46-4.69-11.55-6.37-5.23.07-10.66.08-15.28-2.78-2.06.6-4.12.24-6.13-.32-.1 3.96-.41 7.92-.41 11.89.73 10.54-.3 21.1-.1 31.65-.51.7-.99 1.42-1.55 2.09-.16-20.85.43-41.69.94-62.53-2.08.47-4.15.98-6.24 1.41-1.06 4.59-1.53 9.5-.48 14.12 1.94 3.82 3.96 7.76 4.02 12.16.55 7.09-3.21 13.39-5.08 19.99-1.62 5.19.16 10.68-.83 15.95-.82 3.36-2.59 6.48-2.84 9.98-.37 5.48-.89 11.38 1.56 16.49 2.32 3.91 4.43 8 7.59 11.32 1.46 2.04 3.81 4.1 3.19 6.88-.19 2.05-2.68 2.11-4.2 2.58-5.06 3.52-13.13 2.42-16.38-3.02-1.47-5.97-3.79-11.69-4.29-17.86.23-3.78.95-7.58.31-11.36-.88-5.36-3.07-10.49-3.41-15.94.72-7.24 5.14-13.66 4.78-21.06 1.04-4.74-.69-9.41-2.94-13.52-1.56-.55-3.6-.65-4.46-2.31-.15-1.31.07-2.62.14-3.93-1.88.55-3.95 1.83-5.9.84-2.26-1.8-3.8-4.34-6.13-6.07-2.41-1.86-5.27-3.7-6.03-6.87-.5-3.09-.92-7.04 2.03-9.08 2.61-1.47 5.59-2.15 8.35-3.29-.18-2.72-1.03-5.67.21-8.27.9-2.08 1.67-4.2 2.43-6.33-.79-6.17-4.13-13.34.55-18.77.65-2.68 1.44-5.32 2.09-8l.79.39c.42-4.22.86-8.61 2.98-12.37 1.42-2.49 4.9-2.07 6.75-4.13 2.52-2.38 5.86-3.43 9.01-4.68.12-4.21-3.21-7.38-3.48-11.5-.33-3.02-1.3-6.11-.42-9.12m3.19-2.49c-2.59 3.8-.82 8.46-.8 12.66 1.56 2.83 4.33 4.42 7.48 4.88-.49.63-.98 1.25-1.46 1.88 1.08 1.46 2.04 3.04 3.38 4.29 2.1.89 4.7.68 6.37 2.44 2.61 1.78 3.86 4.77 4.96 7.61.07-1.88.2-3.76.38-5.63-1.93.42-2.93-.1-2.98-1.58.87-1.63 3-1.93 4.43-2.93.29-6.56.84-13.35-1.38-19.65-.8-2.61-2.01-5.41-4.64-6.63-5.15-2.02-11.92-1.87-15.74 2.66m43.26 22.05c-.38.53-.77 1.06-1.16 1.58 2.21.78 4.35 1.76 6.4 2.88.45 1.31.91 2.61 1.4 3.91-.66 4.33-.5 8.72-.5 13.09 5.23-.62 7.38-6.24 7.22-10.88.38-6.47-2.62-13.42-8.9-15.99-1.89 1.45-4.04 2.86-4.46 5.41M77.78 41.6c.06 4.08.54 8.9-3.39 11.47.32-1.17.96-3.51 1.28-4.67-2.43 1.4-4.92 2.68-7.35 4.08 1.16.9 2.33 1.79 3.48 2.71.35-.12 1.06-.35 1.42-.46 1.63-1.98 4.14-2.02 6.5-2.07.71-1.5 1.56-2.92 2.47-4.31-1.5-2.23-2.73-4.64-4.41-6.75m2.47 12.57c2.19.51 4.22 1.47 6.12 2.65.41 6.17.82 12.51-1.04 18.52 2.65-.12 5.84-.07 7.17-2.87 4.32-7.94 1.76-19.7-6.8-23.74-2.1 1.51-3.99 3.28-5.45 5.44m31.93-3.61c.38 3.78.69 7.6 2.23 11.12.48.29 1.45.87 1.93 1.16-.03 2.78.05 5.57-.19 8.34-.36 5.41-3.88 9.82-5.19 14.96-.64-1.63-1.65-3.35-.66-5.08 1.37-3.28 2.99-6.48 3.68-10.01-.46-.42-1.37-1.26-1.82-1.68-1.51 1.95-3.28 3.68-5.33 5.05-1.06-.54-2.13-1.08-3.19-1.6-.44 6.76 3.51 12.4 6.32 18.18 2.28 3.36 6.96 6.46 10.97 4.38.16-3.24 1.33-6.26 2.14-9.36.52-4.03.65-8.1 1.29-12.11.54-2.71-.78-5.25-1.25-7.85-1.05-4.27.17-8.68-.44-12.99-.8-1.69-2.45-2.75-3.76-4.02-2.26.41-4.5.96-6.73 1.51M60.1 60.13c-1.2 6.32-.53 13.83 4.32 18.54 2.04 2.26 6.07 1.88 7.74-.64 3.01-4.29 2.67-10 1.69-14.9-1-4.57-4.23-8.4-8.65-10.01-2.36 1.77-4.58 3.96-5.1 7.01m12.63-3.43c1.73 1.63 2.37 3.97 2.95 6.18 1.53 6.31.95 13.5-3.39 18.62-1.49.39-2.97.8-4.45 1.24-1.52-.68-2.99-1.45-4.43-2.29-.41 2.96-.04 5.96-.22 8.94.42.58.84 1.17 1.26 1.76-.59 3.7 2.11 6.54 4.53 8.9 1.59 1.47 3.04 3.17 5 4.17 1.17-1.04 1.9-2.43 2.52-3.84 2.4-5.38 5.42-10.63 6.16-16.58.6-4.62.71-9.31 1.65-13.89.83-3.83.6-7.76.42-11.65-1.27-.92-2.53-1.85-3.78-2.8-2.76-.04-6.1-1.1-8.22 1.24m23.23 7.48l.68 3.65a63.16 63.16 0 00-1.54 5.02c-.99 1.1-1.94 2.23-3.05 3.21-1.85 1.77-5.01-.01-6.72 1.98-.27 6.44-1.51 12.95-4.76 18.6-1.79 3.14-2.43 7.44-5.99 9.19-2.32.97-4.12-1.42-5.6-2.81-2.99-2.87-6.47-5.84-7.24-10.14-.69-4.64-1.44-9.54.22-14.07-1.86-2.39-2.89-5.24-4.14-7.96-.43 1.01-1.31 3.05-1.74 4.06l2.25-.16c-2.72 2.75-5.26 6.19-4 10.33 2.67 9.6 6.81 18.77 11.48 27.56 3.04.23 6.14.42 9.14-.31 17.01-3.76 34-7.68 50.93-11.77 4-.74 4.3-5.28 4.1-8.55-.9-6.56-2.59-12.98-4.72-19.24.12 7.68-.81 15.39-2.8 22.81-.42 1.99-2.33 3.77-4.47 3.18-2.79-.76-5.53-2.05-7.65-4.05-3.43-3.59-4.36-8.66-6.88-12.82-1.7-2.85-1.88-6.18-1.66-9.4-2.48-2.37-4.37-5.23-5.84-8.31M55.07 95.93c-1.38 5.06-2.69 10.39-1.44 15.62 1.49 2.94 3.67 5.47 5.25 8.35.4 3.46.36 7.02 1.76 10.29 1.7-2.42 2.85-5.71 6.01-6.56 4.05-1.75 8.45-.82 12.55.17.27-3.51.49-7.01.59-10.52-4.78 1.35-10.13 3.71-14.88.96-4.82-5.14-6.84-12.08-9.84-18.31m35.37 14.93c-.11 3.75-.39 7.51-.12 11.27.98 1.59 2.18 3.04 3.26 4.56.92-3.46 1.31-7.01 1.6-10.57 1.01-3.02 3.5-5.23 5.38-7.7a252.4 252.4 0 01-10.12 2.44m-47.78 4.62c-1.03 3.37.46 7.31 3.4 9.26 3.31 2.19 5.83 5.27 8.68 7.99 1.23-.61 2.46-1.23 3.69-1.84-.86-3.52-1.52-7.1-1.69-10.73-2.46-2.65-4.02-5.97-5.67-9.14-2.89 1.17-6.86 1.33-8.41 4.46m23.65 10.76c-1.98 1.79-3.32 4.14-4.75 6.36 3.97 4.97 7.16 10.88 6.84 17.43-1.23 5.96 1.27 11.77 3.03 17.36-.34.26-1.02.76-1.36 1.02-.97-2.55-1.98-5.09-3.15-7.56-1.94 5.45-4.41 11.25-3.09 17.14 1.04 5.37 3 10.57 3.41 16.06.15 2.67-.79 5.23-.96 7.87 1.22 5.73 4.16 10.92 5.18 16.7 2.73 4.11 8.93 4.29 12.55 1.27-3.28-2.36-7.47-.46-11.19-1.33.17-.45.51-1.33.68-1.77 3.03.24 6.05-.07 9.06-.28 1.1 1.11 2.01 2.38 2.94 3.64 1-.4 2-.82 3-1.26-4.83-6.25-10.08-12.39-12.84-19.91-1.89-6.95-1.99-14.7 1.13-21.32 1.64-3.84 1.16-8.14.98-12.2-2.6 3.86-2.02 8.64-3.3 12.88-.3.15-.91.43-1.21.57-.57-4.77.24-9.75 2.79-13.87 2.31-3.49 2.87-7.69 4.44-11.49 2.2-5.14 1.19-11.13-1.82-15.73 2.33 1.35 4.09 3.4 5.61 5.59 0-5.91-1.98-11.58-5.53-16.28-.81-1.83-3.03-1.57-4.66-1.8-2.57-.09-5.47-.51-7.78.91z"/><path d="M67.97 82.91c1.58-.39 3.17-.73 4.77-1.01-1.92 2.81-4.71 4.84-6.82 7.48l-1.62-1.32c1.3-1.66 2.64-3.3 3.67-5.15zM123.57 121.55l1.7.08c1 1.76 2.14 3.51 2.6 5.52.86 2.5-1.99 3.82-3.37 5.41-4.02-.47-7.91-2.47-9.45-6.42 2.75 1.78 5.37 3.77 8.14 5.54.92-1.25 2.49-2.21 2.78-3.81-.43-2.23-1.5-4.25-2.4-6.32zM75.79 138.49l2.11-.08c-1.77 2.02-3.49 4.5-6.45 4.64 1.34-1.62 2.85-3.08 4.34-4.56zM74.78 153.19c1.54.5 3.08 1.03 4.56 1.71-1.5.41-3.04.69-4.58.94.01-.67.01-1.99.02-2.65zM130.76 184.01c-2.09-2.44-2.7-5.76-.87-8.53.44 2.83.69 5.68.87 8.53zM68.34 203.54c1.22-2.94 2.39-6.31 5.43-7.85-1.21 2.91-1.79 7.1-5.43 7.85z"/></g></svg>