<svg width="221pt" height="275pt" viewBox="0 0 221 275" xmlns="http://www.w3.org/2000/svg"><g fill="#FFF"><path d="M0 0h221v275H0V0m85.29 31.35c-2.91 4.7-.7 10.37-.27 15.45.91 1.04 1.83 2.08 2.74 3.12-.3 3.22.22 6.73-1.1 9.72-3.97 1.47-6.52 5.08-10.36 6.78-4.44 2.05-7.33 6.64-7.93 11.41-1.1 4.13 2.27 7.92 1.27 12.04-1.66 6.48-1.6 13.46.72 19.77 1.66 3.33 5.61 4.38 8.16 6.88 1.98 2.16 4.98 1.93 7.65 1.85-.32 3.06-1.96 5.66-3.62 8.16-1.86 2.65-.36 5.91.13 8.75 1.35 5.88-1.87 11.42-1.98 17.26 0 2.95-2 5.2-3.43 7.6 1.24 1.41 2.48 2.82 3.74 4.22.49-.35 1.48-1.05 1.97-1.4-.46 3.43-.4 6.89-.06 10.32-.42.05-1.26.14-1.68.19.48.6.98 1.2 1.47 1.79.22.63.67 1.88.89 2.51l-1.2-.33c-2.06 5.59-2.41 11.52-2.95 17.39-1.61 5.34-3.92 10.56-4.52 16.15.45 6.81 3.26 13.21 3.96 19.98.59 4.98-2.15 9.98.45 14.69-.76 4.72 3.32 8.47 2.99 13.25 2.77 6.15 12.68 8.28 17.61 3.56 1.4-.15 2.8-.31 4.2-.47.09-1.6.13-3.19.13-4.78-1.81-2.65-3.6-5.3-5.84-7.61-2.04-3.23-3.92-6.57-6.06-9.74-2.66-8.45-2.15-18.05 1.5-26.14 1.39-3.73.6-7.78.6-11.65-.47-5.98 2.45-11.43 3.93-17.06 1.11-2.93 3.41-5.3 4.15-8.39 1.65-4.29.77-9.31 3.47-13.19 2.66 2.35 4.06 5.64 5.9 8.59 1.95 2.91.73 6.74 2.31 9.79.79 1.99 2.41 3.93 1.64 6.18-.97 4.42-1.2 8.94-1.24 13.45 1.32 5.07 5.13 9.27 5.49 14.65 1.47 8.12-3.47 15.7-2.17 23.86 4.89 4.41 11.78-.16 16.98 3.29 6.04 3.46 15.43 2.79 19.48-3.41-1.16-1.54-2.22-3.21-3.74-4.43-2.04-.68-4.4-.4-6.21-1.7-4.23-2.77-6.59-7.53-10.9-10.23-3.57-9.44-.17-19.87-3.19-29.42-.66-2.09-.17-4.25.24-6.33-1.18-3.02.33-5.91.94-8.85.74-3.13-1.98-5.71-1.77-8.78.24-4.51.28-9.06-.55-13.52 1.38-.84 2.42-2.01 2.74-3.63-1.49-1.3-2.95-2.8-2.96-4.92-.65-5.29-3.71-9.84-4.88-14.96.64-2.6 1.21-5.22.93-7.92-1.14-1.23-2.91-2.22-2.99-4.09-.82-4.27-1.22-8.65-.88-12.99.28-3.54 2.65-6.53 2.91-10.06-.16-2.18-.99-4.24-1.76-6.26-.37 2.38-.25 4.79-.32 7.19-.08 2.98-2.36 5.18-3.76 7.62-.92.12-1.83.23-2.75.35-.56-2.42-1.52-4.7-2.63-6.9.07 2.69.04 5.42-.89 7.98-3.07.01-6.31-.18-8.82 1.9-1.01-.62-2.02-1.24-3.02-1.86.51 1.54.97 3.1 1.38 4.68l-1.63.01c1.15.87 2.31 1.71 3.48 2.55-.32-1.34-.66-2.67-1.01-4 1.36-.22 2.69-.54 3.99-.97 3.91.66 7.01-3.45 10.76-1.54.51-.45 1.51-1.36 2.02-1.81.11 4.2.48 8.38 1.24 12.52-4.21 2.67-9.24 3.07-13.94 4.37.18-.63.52-1.9.7-2.54-2.81-1.42-4.59-4.05-6.69-6.27.13 3.29 2.61 7.4 6.26 7.02-.68.52-1.36 1.03-2.04 1.55-3.5-.83-7.07-1.29-10.67-1.34-3.23-.05-6.33-1.91-7.82-4.79 2.11-2.94 4.77-5.45 6.89-8.37 1.18-3.16 1.67-6.55 2.96-9.68 1.25 2.03 3.09 3.46 5.39 4.14 1.62-2.51 5-2.94 6.39-5.59-2.6.53-5.04 1.54-6.67 3.71-1-.63-1.98-1.28-2.95-1.95-.43-.29-1.31-.88-1.75-1.17 3.14-1.55 6.82-2.57 8.91-5.63-3.22-.43-5.96 1.79-8.87 2.81.92-.89 1.86-1.75 2.8-2.61-2.2-4.07-1.56-9.18-4.41-13-1.76-3.26-5.41-4.38-8.58-5.74-.22.33-.64 1-.86 1.34-1.81 1.01-4.09 1.71-5.12 3.68-2.57 4.54-2.42 9.98-1.63 14.98-.57.14-1.72.4-2.29.54l2.46.44c1.72 5.37 6.6 11.62 12.98 9.26-1.08 5.28-4.59 9.6-9.39 12-3.29-3.51-8.74-4.59-10.85-9.2-2.73-5.33-1.49-11.44-.29-16.99-1.12-4.71-1.8-9.66-.81-14.46 1.03-4.61 5.45-7.1 9.47-8.75 2.74-2.67 6.52-4.58 7.85-8.39 1.38-2.78.95-5.97.82-8.95.99 1.15 1.98 2.31 2.76 3.62 2.48 4.79 8.43 6.27 13.43 6.29.12 2.02 1.41 4.2.08 6.05-2.76 2.92-6.61-.82-10.05-.05 1.09-3.79-2.41-6.35-4.26-9.18 1.2 3.06 2.3 6.16 3.68 9.14-2.1.45-4.19.95-6.28 1.44-1.62 1.14-3.45 2.42-5.23.37-.16 1.49.93 1.95 2.36 1.97-.45.73-1.34 2.19-1.79 2.93 3.08.34 3.08-4.05 6.01-4.12 4.29-1.34 8.95-1.2 12.98.89 1.36-.93 2.65-1.95 3.77-3.15 2.84-2.07 6.49-2.08 9.81-2.73-3.01-2.27-6.58-.65-9.65.56-.04-1.38-.08-2.77-.14-4.15 3.05 1.01 6.28 1.77 9.45.79-2.47-1.47-5.47-1.23-8.2-1.79 1.45-3.76 2.02-7.77 2.64-11.72.88-4.61-1.07-9.05-1.7-13.55-.42-4.04-4.35-7.02-8.26-7.21-5.25-.91-11.77.17-14.75 5.07m57.68 37.51c-.07-4.26 2.84-7.4 6.13-9.66 2.15 1.34 4.77 2.17 6.37 4.25 3.76 4.57 4.36 11.08 2.91 16.64-1.06 3.94-4.66 6.93-8.88 6.04-.67-1.06-1.35-2.1-2.04-3.14 1.82-1.81 3.73-3.6 4.88-5.94-.25-2.61-1.47-5-2.23-7.48-4.35-1.68-8.99-.23-12.98 1.71-1.95-3.77-5.6-8.18-10.4-6.72-2.36-3.12-6.87-6.01-10.63-3.5 3.73-.07 6.77 2.3 10.2 3.38-4.11.94-4.57 5.34-6.69 8.27-.37 2.79-.45 5.6-.58 8.41-.63-6.19-5.55-11.96-12.11-11.66-1.31.75-2.63 1.49-3.94 2.23-.89 2.56-1.82 5.11-2.51 7.73-1.77.12-3.53.27-5.28.49 1.47 2.19 3.89 1.78 6.12 1.35 1.09 1.03 2.17 2.07 3.22 3.12.65 1.22 1.44 2.34 2.32 3.39-.12.93-.25 1.87-.37 2.81-.74-.25-1.47-.5-2.2-.75-1.59.73-3.15 1.5-4.69 2.32 2.55.16 5.1.28 7.65.52 1.25-2.39 3.14-5.5.35-7.59-1.45-2.58-2.76-5.66-5.89-6.52 1.03-3.54 3.41-6.28 6.34-8.4 1.84 1.09 3.86 1.92 5.51 3.3 3.29 3.25 4.73 7.99 4.52 12.54.15 3.94-1.24 8.26-4.65 10.53-2.07 1.2-4.47.29-6.66.07.84.99 1.69 1.97 2.53 2.97 3.18-.68 7.05-1.61 8.08-5.21.37 1.05.69 2.1 1.01 3.17 1 .31 2 .62 3.01.93-1.17-1.61-2.39-3.19-3.58-4.78l2.86-.91c-.57.13-1.72.37-2.3.5 1.51-4.21.99-8.66.77-13.01 1.01 4.52 2.11 9.65 6.35 12.3 2.7 2.47 7.03 1.9 9.49-.63 2.75-2.4 2.44-6.36 3.65-9.52 3.53 2.19-1.39 7.52 2.17 9.8.4-2.5.65-5.02 1.17-7.5l-.32-2.58c1.89.15 3.78.3 5.68.42-.64.53-1.92 1.58-2.56 2.11-.3 5.78.85 11.86-1.69 17.29-.68 2.41-2.11 5.36-5.17 4.69-3.46-3.45-8.63-6.09-9.17-11.48-.65-.19-1.95-.56-2.6-.75 1.12 6.57 6.63 11.25 11.72 14.99 2.34-.77 5.37-1.49 6.06-4.26 1.04-3.36 2.37-6.67 2.94-10.16-.32-3.22-.84-6.47-.16-9.69 1.25.95 2.5 1.91 3.73 2.9 4.05.07 7.94-2.57 9.04-6.52 2.28-7.32 1.3-17-5.4-21.74-5.45-3.85-14.07 2.57-11.1 8.93m-70.02 23.8c1.04.81 3.43-.34 2.8-1.74-1.05-.85-3.45.33-2.8 1.74m.72 9.18l.15 3.96 1.44.04c.61-2.85 2.89-5.23 2.63-8.25-.86.87-2.58 2.63-3.44 3.5.27-2.26-.96-3.89-2.74-5.03-.13 2.13.62 4.14 1.96 5.78m24.74 3.29c-1.23.13-2.54 2.49-.66 2.69 2.26.58 3.69-3.8.66-2.69m14.12 11.84c1.2-.36 2.39-1.87 1.9-3.15-1.53-.92-3.84 2.5-1.9 3.15z"/><path d="M89.25 30.23c3.55-2.91 8.42-2.76 12.75-2.61 1.95 1.9 4.65 3.58 5.06 6.5.79 4.86 2.71 9.77 1.28 14.71-.74 3.29-.68 8.88-5.18 9.07-4.07-1.45-9.21-2.53-11.04-6.97-.9-2.18-3.52-2.6-5.12-4.12.06-1.88.53-3.72.87-5.56l-2.39.44c-.81-4.12.2-8.9 3.77-11.46zM121.29 71.45c.69-3.08 3.52-4.77 5.9-6.46 10.43 2.78 13.69 17.39 7.08 25.24-2.17 2.66-6.47 2.69-8.84.29-5.17-4.71-5.85-12.65-4.14-19.07z"/><path d="M137.21 72.51c3.01-.44 5.87-1.49 8.84-2.1 3.2-.15 3.25 3.87 4.54 5.89-1.18 1.67-2.39 3.32-3.74 4.84-.59-1.13-1.16-2.27-1.74-3.41-.58-.16-1.74-.49-2.32-.66-.39.23-1.18.67-1.57.89.76.66 1.53 1.33 2.29 2-1.71.46-3.43.91-5.15 1.35-.11-2.97-.61-5.89-1.15-8.8zM80.41 95.16c-2.05-6.72-1.34-15.81 5.79-19.23 9.55 2.58 12.51 14.8 8.68 22.97-1.52 2.25-3.84 4.94-6.89 4.34-3.93-.7-6.41-4.54-7.58-8.08zM87.07 121.57c4.26 3.41 9.8 2.81 14.86 3.68 6 1.37 11.98-.97 17.7-2.56 1.11 1.23 2.26 2.44 3.44 3.61.29 2.64-.24 5.26-1.03 7.78 2.02 4.51 4.36 9 4.99 13.96.14 2.15 1.38 3.92 2.62 5.59-3.96 1.53-6.67 5.12-10.7 6.49-3.96 1.92-8.19-.38-12.2-.84 1.09-3.57 4.93-3.54 7.75-4.82 1.72-2.24 2.68-4.99 3.2-7.74-1.95 1.94-3.34 4.34-4.66 6.74-2.34.36-4.7.86-6.81 1.98-1.16 2.15-.8 4.82-1.3 7.19-3.48 2.34-7.74 3.75-11.96 3.27-2.76-.59-5.28-1.92-7.9-2.93 0-1.9-.01-3.79-.05-5.68-1.96.89-2.49 3.05-3.45 4.77-.43-.57-1.31-1.7-1.75-2.27 1.31-2.42 2.47-4.95 2.72-7.72.37-4.14 2.53-7.97 2.19-12.19.27-3.7-.92-7.24-1.31-10.87.35-2.06.71-5.13 3.46-5 .04-.61.14-1.83.19-2.44m11.8 6.02c-2.84-.7-5.63-1.61-8.49-2.23-.94 3.07-4.52 6.86-1.45 9.74.31-2.79 1.15-5.46 2.28-8.01 1.72.49 3.44.96 5.15 1.45-1.2 5.18-6.31 7.32-9.97 10.46 4.99-.78 10.65-4.36 11.24-9.81 3.76.87 7.66 1.13 11.46.35 4.09-.87 8.81-1.4 11.34-5.17-6.83 2.6-14.23 4.62-21.56 3.22m2.16 8.51c-1.21.3-1.7 1.59-2.48 2.42 5.5-1.11 10.74-3.49 16.37-4.01 1.69-.37 4.35.69 4.83-1.88-6.38.01-12.74 1.31-18.72 3.47m11.05.97c-3.33 1.69-7.22 2.95-9.34 6.26 5.61-3.2 12.1-4.75 17.34-8.57-2.83.08-5.51 1.02-8 2.31m-16.26 8.61c4.73 1.42 9.45-.6 14.2-.59 4.29-.27 9.22-.27 12.21-3.87-8.58 2.72-17.8 1.94-26.41 4.46z"/><path d="M107.35 160.06c6.55 5.35 15.27 1.38 20.83-3.38.34 4.41.35 8.84.33 13.27-.45-.11-1.36-.35-1.81-.47-.62 2.32-1.12 4.85-2.95 6.58-2.66.13-4.1-2.47-4.88-4.63-.19.01-.57.02-.77.02.94 2 1.29 4.83 3.44 5.88 3.36.76 5.08-2.87 6.44-5.25 1 2.2 2.58 4.53 1.73 7.05-1.36 3.83-.85 7.89-1.52 11.82-.52 3.38.87 6.63 1.16 9.97.61 4.35-.03 8.72.09 13.08.42 3.24 1.23 6.44 2.14 9.58 1.03 1.56 2.66 2.6 3.94 3.94 2.61 2.39 4.17 5.82 7.26 7.72 2.06 1.52 4.64 1.88 7.12 2.12.77 1.03 1.53 2.07 2.27 3.13-2.05 1.1-3.99 2.52-6.28 3.09-2.5-.26-5.02-.54-7.5-.96-2.74-1.03-5.34-2.88-8.41-2.52-3.31.32-6.67.88-9.9-.3-.08-3.26-.2-6.55.41-9.76 2.12-7.73 2.51-16.64-1.63-23.78-2-5.63-2.27-11.8-1.67-17.71.5.96 1.49 2.88 1.99 3.84 2.3-3.64-.76-6.97-1.97-10.34-1.33-3.14-.26-6.91-2.31-9.8-1.9-3.05-3.27-6.53-6.12-8.87l.89-.79c-.65-.21-1.94-.61-2.58-.82l.26-1.71M123.52 226c-.99 3.08-.84 6.53 1.94 8.6-.33-1.52-.73-3.01-1.13-4.51-.03-1.4-.16-2.82-.81-4.09zM84.06 164.67c2.96 1.04 5.7 2.76 8.82 3.32 3.48.19 6.88-.81 10.24-1.55-1.07 4.6-1.5 9.51-3.95 13.65-4.16 6.54-4.81 14.62-8.83 21.23-2.46 4.19-3.22 9.2-2.92 13.99.32.33.96 1 1.28 1.34.41-5.24.34-10.72 3.43-15.26.18 3.5.95 7.11-.02 10.56-.99 3.72-3.26 7.1-3.25 11.05-.65 7.65-.13 16.08 4.9 22.29 2.55 5.38 7.39 9.18 9.76 14.66-1.04.28-2.08.52-3.13.71-1.38-.88-1.9-2.56-2.81-3.83-3.13.47-6.25.85-9.42.68-.51.32-1.54.97-2.06 1.29 3.58.7 7.19.41 10.78.09.41.52 1.24 1.57 1.65 2.1-3.42 2.35-8.2 2.82-11.53.04-2.74-1.67-2.3-5.22-3.28-7.85-1.17-3.23-2.51-6.4-3.4-9.72-1.15-3.07.3-6.26.33-9.39.08-6.24-2.15-12.15-3.47-18.17-1.52-6.58.91-13.16 3.49-19.13 1.47 2.83 2.03 6.24 4.42 8.51-1.21-5.43-3.06-10.71-3.7-16.26.47-4.29 1.85-8.42 3.27-12.48.91 1.15 2.67 1.84 3 3.37l-.17.13c-.44 1.76-.73 3.56-.71 5.38.56-1.15 1.1-2.3 1.61-3.46 1.8-.48 3.6-.97 5.38-1.51.83 1.04 1.69 2.05 2.59 3.03-.52-1.81-1.08-3.62-2.01-5.26-1.45.35-2.84 1.08-4.37.97l-1.73-1.41 1.3.52c2.91-1.43 5.5-3.52 7.07-6.41-2.31 1.19-4.33 2.87-6.68 3.99-2 .81-3.97-.25-5.77-1.05.77-3.37.2-6.79-.11-10.16M88.52 189c.21 2.93 3.48 2.33 4.86.65-1.62-.27-3.24-.48-4.86-.65m-6.24 54.19c2.08-1.27 3.58-3.2 4.18-5.58.54-1 1.08-2 1.6-3.01-3.78 1.06-4.42 5.45-5.78 8.59z"/></g><g fill="#333"><path d="M85.29 31.35c2.98-4.9 9.5-5.98 14.75-5.07 3.91.19 7.84 3.17 8.26 7.21.63 4.5 2.58 8.94 1.7 13.55-.62 3.95-1.19 7.96-2.64 11.72 2.73.56 5.73.32 8.2 1.79-3.17.98-6.4.22-9.45-.79.06 1.38.1 2.77.14 4.15 3.07-1.21 6.64-2.83 9.65-.56-3.32.65-6.97.66-9.81 2.73-1.12 1.2-2.41 2.22-3.77 3.15-4.03-2.09-8.69-2.23-12.98-.89-2.93.07-2.93 4.46-6.01 4.12.45-.74 1.34-2.2 1.79-2.93-1.43-.02-2.52-.48-2.36-1.97 1.78 2.05 3.61.77 5.23-.37 2.09-.49 4.18-.99 6.28-1.44-1.38-2.98-2.48-6.08-3.68-9.14 1.85 2.83 5.35 5.39 4.26 9.18 3.44-.77 7.29 2.97 10.05.05 1.33-1.85.04-4.03-.08-6.05-5-.02-10.95-1.5-13.43-6.29-.78-1.31-1.77-2.47-2.76-3.62.13 2.98.56 6.17-.82 8.95-1.33 3.81-5.11 5.72-7.85 8.39-4.02 1.65-8.44 4.14-9.47 8.75-.99 4.8-.31 9.75.81 14.46-1.2 5.55-2.44 11.66.29 16.99 2.11 4.61 7.56 5.69 10.85 9.2 4.8-2.4 8.31-6.72 9.39-12-6.38 2.36-11.26-3.89-12.98-9.26l-2.46-.44c.57-.14 1.72-.4 2.29-.54-.79-5-.94-10.44 1.63-14.98 1.03-1.97 3.31-2.67 5.12-3.68.22-.34.64-1.01.86-1.34 3.17 1.36 6.82 2.48 8.58 5.74 2.85 3.82 2.21 8.93 4.41 13-.94.86-1.88 1.72-2.8 2.61 2.91-1.02 5.65-3.24 8.87-2.81-2.09 3.06-5.77 4.08-8.91 5.63.44.29 1.32.88 1.75 1.17.97.67 1.95 1.32 2.95 1.95 1.63-2.17 4.07-3.18 6.67-3.71-1.39 2.65-4.77 3.08-6.39 5.59-2.3-.68-4.14-2.11-5.39-4.14-1.29 3.13-1.78 6.52-2.96 9.68-2.12 2.92-4.78 5.43-6.89 8.37 1.49 2.88 4.59 4.74 7.82 4.79 3.6.05 7.17.51 10.67 1.34.68-.52 1.36-1.03 2.04-1.55-3.65.38-6.13-3.73-6.26-7.02 2.1 2.22 3.88 4.85 6.69 6.27-.18.64-.52 1.91-.7 2.54 4.7-1.3 9.73-1.7 13.94-4.37-.76-4.14-1.13-8.32-1.24-12.52-.51.45-1.51 1.36-2.02 1.81-3.75-1.91-6.85 2.2-10.76 1.54-1.3.43-2.63.75-3.99.97.35 1.33.69 2.66 1.01 4-1.17-.84-2.33-1.68-3.48-2.55l1.63-.01c-.41-1.58-.87-3.14-1.38-4.68 1 .62 2.01 1.24 3.02 1.86 2.51-2.08 5.75-1.89 8.82-1.9.93-2.56.96-5.29.89-7.98 1.11 2.2 2.07 4.48 2.63 6.9.92-.12 1.83-.23 2.75-.35 1.4-2.44 3.68-4.64 3.76-7.62.07-2.4-.05-4.81.32-7.19.77 2.02 1.6 4.08 1.76 6.26-.26 3.53-2.63 6.52-2.91 10.06-.34 4.34.06 8.72.88 12.99.08 1.87 1.85 2.86 2.99 4.09.28 2.7-.29 5.32-.93 7.92 1.17 5.12 4.23 9.67 4.88 14.96.01 2.12 1.47 3.62 2.96 4.92-.32 1.62-1.36 2.79-2.74 3.63.83 4.46.79 9.01.55 13.52-.21 3.07 2.51 5.65 1.77 8.78-.61 2.94-2.12 5.83-.94 8.85-.41 2.08-.9 4.24-.24 6.33 3.02 9.55-.38 19.98 3.19 29.42 4.31 2.7 6.67 7.46 10.9 10.23 1.81 1.3 4.17 1.02 6.21 1.7 1.52 1.22 2.58 2.89 3.74 4.43-4.05 6.2-13.44 6.87-19.48 3.41-5.2-3.45-12.09 1.12-16.98-3.29-1.3-8.16 3.64-15.74 2.17-23.86-.36-5.38-4.17-9.58-5.49-14.65.04-4.51.27-9.03 1.24-13.45.77-2.25-.85-4.19-1.64-6.18-1.58-3.05-.36-6.88-2.31-9.79-1.84-2.95-3.24-6.24-5.9-8.59-2.7 3.88-1.82 8.9-3.47 13.19-.74 3.09-3.04 5.46-4.15 8.39-1.48 5.63-4.4 11.08-3.93 17.06 0 3.87.79 7.92-.6 11.65-3.65 8.09-4.16 17.69-1.5 26.14 2.14 3.17 4.02 6.51 6.06 9.74 2.24 2.31 4.03 4.96 5.84 7.61 0 1.59-.04 3.18-.13 4.78-1.4.16-2.8.32-4.2.47-4.93 4.72-14.84 2.59-17.61-3.56.33-4.78-3.75-8.53-2.99-13.25-2.6-4.71.14-9.71-.45-14.69-.7-6.77-3.51-13.17-3.96-19.98.6-5.59 2.91-10.81 4.52-16.15.54-5.87.89-11.8 2.95-17.39l1.2.33c-.22-.63-.67-1.88-.89-2.51-.49-.59-.99-1.19-1.47-1.79.42-.05 1.26-.14 1.68-.19-.34-3.43-.4-6.89.06-10.32-.49.35-1.48 1.05-1.97 1.4-1.26-1.4-2.5-2.81-3.74-4.22 1.43-2.4 3.43-4.65 3.43-7.6.11-5.84 3.33-11.38 1.98-17.26-.49-2.84-1.99-6.1-.13-8.75 1.66-2.5 3.3-5.1 3.62-8.16-2.67.08-5.67.31-7.65-1.85-2.55-2.5-6.5-3.55-8.16-6.88-2.32-6.31-2.38-13.29-.72-19.77 1-4.12-2.37-7.91-1.27-12.04.6-4.77 3.49-9.36 7.93-11.41 3.84-1.7 6.39-5.31 10.36-6.78 1.32-2.99.8-6.5 1.1-9.72-.91-1.04-1.83-2.08-2.74-3.12-.43-5.08-2.64-10.75.27-15.45m3.96-1.12c-3.57 2.56-4.58 7.34-3.77 11.46l2.39-.44c-.34 1.84-.81 3.68-.87 5.56 1.6 1.52 4.22 1.94 5.12 4.12 1.83 4.44 6.97 5.52 11.04 6.97 4.5-.19 4.44-5.78 5.18-9.07 1.43-4.94-.49-9.85-1.28-14.71-.41-2.92-3.11-4.6-5.06-6.5-4.33-.15-9.2-.3-12.75 2.61m-8.84 64.93c1.17 3.54 3.65 7.38 7.58 8.08 3.05.6 5.37-2.09 6.89-4.34 3.83-8.17.87-20.39-8.68-22.97-7.13 3.42-7.84 12.51-5.79 19.23m6.66 26.41c-.05.61-.15 1.83-.19 2.44-2.75-.13-3.11 2.94-3.46 5 .39 3.63 1.58 7.17 1.31 10.87.34 4.22-1.82 8.05-2.19 12.19-.25 2.77-1.41 5.3-2.72 7.72.44.57 1.32 1.7 1.75 2.27.96-1.72 1.49-3.88 3.45-4.77.04 1.89.05 3.78.05 5.68 2.62 1.01 5.14 2.34 7.9 2.93 4.22.48 8.48-.93 11.96-3.27.5-2.37.14-5.04 1.3-7.19 2.11-1.12 4.47-1.62 6.81-1.98 1.32-2.4 2.71-4.8 4.66-6.74-.52 2.75-1.48 5.5-3.2 7.74-2.82 1.28-6.66 1.25-7.75 4.82 4.01.46 8.24 2.76 12.2.84 4.03-1.37 6.74-4.96 10.7-6.49-1.24-1.67-2.48-3.44-2.62-5.59-.63-4.96-2.97-9.45-4.99-13.96.79-2.52 1.32-5.14 1.03-7.78a90.044 90.044 0 01-3.44-3.61c-5.72 1.59-11.7 3.93-17.7 2.56-5.06-.87-10.6-.27-14.86-3.68m20.28 38.49l-.26 1.71c.64.21 1.93.61 2.58.82l-.89.79c2.85 2.34 4.22 5.82 6.12 8.87 2.05 2.89.98 6.66 2.31 9.8 1.21 3.37 4.27 6.7 1.97 10.34-.5-.96-1.49-2.88-1.99-3.84-.6 5.91-.33 12.08 1.67 17.71 4.14 7.14 3.75 16.05 1.63 23.78-.61 3.21-.49 6.5-.41 9.76 3.23 1.18 6.59.62 9.9.3 3.07-.36 5.67 1.49 8.41 2.52 2.48.42 5 .7 7.5.96 2.29-.57 4.23-1.99 6.28-3.09-.74-1.06-1.5-2.1-2.27-3.13-2.48-.24-5.06-.6-7.12-2.12-3.09-1.9-4.65-5.33-7.26-7.72-1.28-1.34-2.91-2.38-3.94-3.94-.91-3.14-1.72-6.34-2.14-9.58-.12-4.36.52-8.73-.09-13.08-.29-3.34-1.68-6.59-1.16-9.97.67-3.93.16-7.99 1.52-11.82.85-2.52-.73-4.85-1.73-7.05-1.36 2.38-3.08 6.01-6.44 5.25-2.15-1.05-2.5-3.88-3.44-5.88.2 0 .58-.01.77-.02.78 2.16 2.22 4.76 4.88 4.63 1.83-1.73 2.33-4.26 2.95-6.58.45.12 1.36.36 1.81.47.02-4.43.01-8.86-.33-13.27-5.56 4.76-14.28 8.73-20.83 3.38m-23.29 4.61c.31 3.37.88 6.79.11 10.16 1.8.8 3.77 1.86 5.77 1.05 2.35-1.12 4.37-2.8 6.68-3.99-1.57 2.89-4.16 4.98-7.07 6.41l-1.3-.52 1.73 1.41c1.53.11 2.92-.62 4.37-.97.93 1.64 1.49 3.45 2.01 5.26-.9-.98-1.76-1.99-2.59-3.03-1.78.54-3.58 1.03-5.38 1.51a97.98 97.98 0 01-1.61 3.46c-.02-1.82.27-3.62.71-5.38l.17-.13c-.33-1.53-2.09-2.22-3-3.37-1.42 4.06-2.8 8.19-3.27 12.48.64 5.55 2.49 10.83 3.7 16.26-2.39-2.27-2.95-5.68-4.42-8.51-2.58 5.97-5.01 12.55-3.49 19.13 1.32 6.02 3.55 11.93 3.47 18.17-.03 3.13-1.48 6.32-.33 9.39.89 3.32 2.23 6.49 3.4 9.72.98 2.63.54 6.18 3.28 7.85 3.33 2.78 8.11 2.31 11.53-.04-.41-.53-1.24-1.58-1.65-2.1-3.59.32-7.2.61-10.78-.09.52-.32 1.55-.97 2.06-1.29 3.17.17 6.29-.21 9.42-.68.91 1.27 1.43 2.95 2.81 3.83 1.05-.19 2.09-.43 3.13-.71-2.37-5.48-7.21-9.28-9.76-14.66-5.03-6.21-5.55-14.64-4.9-22.29-.01-3.95 2.26-7.33 3.25-11.05.97-3.45.2-7.06.02-10.56-3.09 4.54-3.02 10.02-3.43 15.26-.32-.34-.96-1.01-1.28-1.34-.3-4.79.46-9.8 2.92-13.99 4.02-6.61 4.67-14.69 8.83-21.23 2.45-4.14 2.88-9.05 3.95-13.65-3.36.74-6.76 1.74-10.24 1.55-3.12-.56-5.86-2.28-8.82-3.32z"/><path d="M142.97 68.86c-2.97-6.36 5.65-12.78 11.1-8.93 6.7 4.74 7.68 14.42 5.4 21.74-1.1 3.95-4.99 6.59-9.04 6.52-1.23-.99-2.48-1.95-3.73-2.9-.68 3.22-.16 6.47.16 9.69-.57 3.49-1.9 6.8-2.94 10.16-.69 2.77-3.72 3.49-6.06 4.26-5.09-3.74-10.6-8.42-11.72-14.99.65.19 1.95.56 2.6.75.54 5.39 5.71 8.03 9.17 11.48 3.06.67 4.49-2.28 5.17-4.69 2.54-5.43 1.39-11.51 1.69-17.29.64-.53 1.92-1.58 2.56-2.11-1.9-.12-3.79-.27-5.68-.42l.32 2.58c-.52 2.48-.77 5-1.17 7.5-3.56-2.28 1.36-7.61-2.17-9.8-1.21 3.16-.9 7.12-3.65 9.52-2.46 2.53-6.79 3.1-9.49.63-4.24-2.65-5.34-7.78-6.35-12.3.22 4.35.74 8.8-.77 13.01.58-.13 1.73-.37 2.3-.5l-2.86.91c1.19 1.59 2.41 3.17 3.58 4.78-1.01-.31-2.01-.62-3.01-.93-.32-1.07-.64-2.12-1.01-3.17-1.03 3.6-4.9 4.53-8.08 5.21-.84-1-1.69-1.98-2.53-2.97 2.19.22 4.59 1.13 6.66-.07 3.41-2.27 4.8-6.59 4.65-10.53.21-4.55-1.23-9.29-4.52-12.54-1.65-1.38-3.67-2.21-5.51-3.3-2.93 2.12-5.31 4.86-6.34 8.4 3.13.86 4.44 3.94 5.89 6.52 2.79 2.09.9 5.2-.35 7.59-2.55-.24-5.1-.36-7.65-.52 1.54-.82 3.1-1.59 4.69-2.32.73.25 1.46.5 2.2.75.12-.94.25-1.88.37-2.81-.88-1.05-1.67-2.17-2.32-3.39-1.05-1.05-2.13-2.09-3.22-3.12-2.23.43-4.65.84-6.12-1.35 1.75-.22 3.51-.37 5.28-.49.69-2.62 1.62-5.17 2.51-7.73 1.31-.74 2.63-1.48 3.94-2.23 6.56-.3 11.48 5.47 12.11 11.66.13-2.81.21-5.62.58-8.41 2.12-2.93 2.58-7.33 6.69-8.27-3.43-1.08-6.47-3.45-10.2-3.38 3.76-2.51 8.27.38 10.63 3.5 4.8-1.46 8.45 2.95 10.4 6.72 3.99-1.94 8.63-3.39 12.98-1.71.76 2.48 1.98 4.87 2.23 7.48-1.15 2.34-3.06 4.13-4.88 5.94.69 1.04 1.37 2.08 2.04 3.14 4.22.89 7.82-2.1 8.88-6.04 1.45-5.56.85-12.07-2.91-16.64-1.6-2.08-4.22-2.91-6.37-4.25-3.29 2.26-6.2 5.4-6.13 9.66m-21.68 2.59c-1.71 6.42-1.03 14.36 4.14 19.07 2.37 2.4 6.67 2.37 8.84-.29 6.61-7.85 3.35-22.46-7.08-25.24-2.38 1.69-5.21 3.38-5.9 6.46m15.92 1.06c.54 2.91 1.04 5.83 1.15 8.8 1.72-.44 3.44-.89 5.15-1.35-.76-.67-1.53-1.34-2.29-2 .39-.22 1.18-.66 1.57-.89.58.17 1.74.5 2.32.66.58 1.14 1.15 2.28 1.74 3.41 1.35-1.52 2.56-3.17 3.74-4.84-1.29-2.02-1.34-6.04-4.54-5.89-2.97.61-5.83 1.66-8.84 2.1zM72.95 92.66c-.65-1.41 1.75-2.59 2.8-1.74.63 1.4-1.76 2.55-2.8 1.74zM73.67 101.84c-1.34-1.64-2.09-3.65-1.96-5.78 1.78 1.14 3.01 2.77 2.74 5.03.86-.87 2.58-2.63 3.44-3.5.26 3.02-2.02 5.4-2.63 8.25l-1.44-.04-.15-3.96zM98.41 105.13c3.03-1.11 1.6 3.27-.66 2.69-1.88-.2-.57-2.56.66-2.69zM112.53 116.97c-1.94-.65.37-4.07 1.9-3.15.49 1.28-.7 2.79-1.9 3.15zM98.87 127.59c7.33 1.4 14.73-.62 21.56-3.22-2.53 3.77-7.25 4.3-11.34 5.17-3.8.78-7.7.52-11.46-.35-.59 5.45-6.25 9.03-11.24 9.81 3.66-3.14 8.77-5.28 9.97-10.46-1.71-.49-3.43-.96-5.15-1.45-1.13 2.55-1.97 5.22-2.28 8.01-3.07-2.88.51-6.67 1.45-9.74 2.86.62 5.65 1.53 8.49 2.23zM101.03 136.1c5.98-2.16 12.34-3.46 18.72-3.47-.48 2.57-3.14 1.51-4.83 1.88-5.63.52-10.87 2.9-16.37 4.01.78-.83 1.27-2.12 2.48-2.42zM112.08 137.07c2.49-1.29 5.17-2.23 8-2.31-5.24 3.82-11.73 5.37-17.34 8.57 2.12-3.31 6.01-4.57 9.34-6.26zM95.82 145.68c8.61-2.52 17.83-1.74 26.41-4.46-2.99 3.6-7.92 3.6-12.21 3.87-4.75-.01-9.47 2.01-14.2.59zM88.52 189c1.62.17 3.24.38 4.86.65-1.38 1.68-4.65 2.28-4.86-.65zM123.52 226c.65 1.27.78 2.69.81 4.09.4 1.5.8 2.99 1.13 4.51-2.78-2.07-2.93-5.52-1.94-8.6zM82.28 243.19c1.36-3.14 2-7.53 5.78-8.59-.52 1.01-1.06 2.01-1.6 3.01-.6 2.38-2.1 4.31-4.18 5.58z"/></g></svg>