<svg width="167pt" height="275pt" viewBox="0 0 167 275" xmlns="http://www.w3.org/2000/svg"><g fill="#FFF"><path d="M0 0h167v275H0V0m37.52 8.49c-2.44 5.85-3.48 13.08.66 18.44 1.72 1.91 4.36 1.89 6.72 1.87-.17 2.74-.61 5.47-1.38 8.11-1.2 4.26-.48 8.71-.59 13.07.04 3.67-1.31 7.44.15 11 3.07 8.7 1.3 18.59 5.97 26.81 2.19 3.07.58 6.91 1.12 10.37.1 3.81 2.66 7.02 2.77 10.84.07 2.74 1.11 5.32 2.88 7.4-.34 3.33.82 6.45 3.19 8.79.14 3.93-1.63 8.2.59 11.81-1.12 2.3-2.68 4.37-3.62 6.76-.33 3.44 1.71 6.99-.06 10.28-1.86 4.45-1.8 9.28-1.66 14.01-2.17 4.53-2.14 9.73-1.45 14.61.67 7.27-.36 14.8 2.22 21.8 3.39 1.97 6.52 5.85 10.9 4.47 3.65-1.41 6.15-4.87 8.02-8.15.5-5.86-.41-11.78.1-17.66-3.7 4.81-1.79 11.4-1.7 16.96-1.32 2.27-2.76 4.76-5.13 6.06-2.82 1.77-5.95-.74-8.51-1.91-4.21-6.41-3.04-14.6-3.24-21.9 5.99 1.51 12.29 1.15 18.39.71l-2.79-1.43c1.94-.05 4.39 1.23 5.5-1.16.1-2.71.6-5.38.93-8.06 1.23.03 2.46.06 3.69.1.25 2.76.08 5.57.6 8.31.68.12 2.04.37 2.73.49-.46 4.54 2.23 8.6 2.8 13.03-4.27.02-8.8.51-12.48 2.82 4.29 1.01 8.25-1.51 12.54-1.17.7 4.29 1.81 8.48 4.51 11.98 3.76 1.61 8.6 1.88 11.72-1.18 2.61-1.57 2.5-4.82 2.9-7.46.06.34.19 1 .25 1.33 6.71 1.83 12.55 6.2 17.07 11.37 3.38 5.71 5.24 12.48 5.03 19.13-.9 4.37-2.4 8.64-3.81 12.85-8.1 10.75-22.33 13.49-34.92 14.88-5.51-.82-10.63 2.15-16.09 1.15-8.28-1.38-16.67-2.97-24.17-6.88-5.66-4.53-10.14-10.37-12.89-17.07-.18-7.86-1.3-17.2 4.68-23.37 3.38-4.4 8.79-6.74 11.79-11.46-1.07.31-2.14.63-3.21.96-3 2.69-6.86 4.38-9.24 7.77-8.86 9.62-10.35 25.75-1.97 36.12 3.05 3.23 5.55 7.33 9.82 9.06 2.65 1.2 5.16 2.85 8.03 3.49 6.44 1.1 12.5 4.09 19.16 3.97 3.81.58 7.26-1.53 11.03-1.43 5.45.04 10.6-2.09 16.02-2.33 3.93-.24 7.56-2.15 10.31-4.91-.22.88-.65 2.65-.86 3.54 3.72-4.23 10.15-4.91 13.29-9.78 2.08-3.26 4.2-6.7 4.73-10.6.74-5.17.28-10.43-.34-15.59-2.76-11.64-13.01-19.66-23.61-24.03.2-.35.6-1.04.79-1.38-1.03-4.97-1.78-10-2.6-15-.47-.43-1.41-1.3-1.88-1.73 1.08-1.81 2.85-3.9 1.86-6.14-2.19-4.93-3.65-10.13-5.86-15.05-1.54-3.21-.36-6.77-.42-10.15-.49-3.63-3.44-6.15-5.12-9.24l2.28-1.24c-2.69-6.85-.96-14.36 2.94-20.35 2.95 3.45 5.77 7.79 10.39 9.01 3.04.78 5.25-1.63 6.51-4.05.18-3.54 2.3-6.62 2.54-10.17.62-6.31-1.34-12.53-2.44-18.64.72-.47 1.43-.94 2.15-1.42l-1.34.07c1.39-2.49 2.73-5.01 3.89-7.62-1.14-1.48-2.27-2.97-3.4-4.46 2.16-1.16 4.61-.41 6.82.13 4.03 4.58 2.96 13.92-3.67 15.6-.62-.67-1.85-2.02-2.46-2.7-.41 1.25-.78 2.51-1.11 3.78l.53-.61c2.87 2.16 6.16.5 8.85-.96 2.25-5.42 3.28-12.43-.94-17.14-3.4-.84-7.53-1.09-9.97 1.91-1.39-.04-2.77-.1-4.15-.15-2.08-4.09-7.15-5.43-11.38-5.17-4.58 1.18-4.75 6.52-5.7 10.29-1.75-1.32-3.62-2.5-5.58-3.47-1.04-3.8-.29-7.59.44-11.35.27-6.4-1.23-15.25-8.54-17.01-4.37-1.68-9.04 1.05-10.98 5-1.52 6.93.38 14.25 4.12 20.17-1.07.66-2.1 1.4-3.25 1.92-1.99-1.45-3.91-2.99-5.94-4.37-3.33-2.08-2.37-6.72-4.02-9.87-.71-3.35-4.16-4.85-5.48-7.86 1.2-3.23 2.12-6.62 2.16-10.09.34-6.47-2.28-12.62-2.36-19.07 2.23.07 4.47.32 6.69.05 3.84-4.98 4.72-12.52.62-17.61-2.52-2.04-6.4-2.34-9.12-.49C49.6 5.64 42 5.07 37.52 8.49m82.81 72.09c1.32 4 .84 8-.8 11.8 1.22 1.08 1.87-.52 2.45-1.41 1.32-2.36.97-5.18 1.13-7.77-.92-.87-1.84-1.76-2.78-2.62z"/><path d="M39.59 8.31c3.03-.13 6.33-.9 9.17.5 1.71 2.26 2.41 5.06 3.68 7.55-.7 3.58-1.17 7.53-4.16 10.01-2.43.31-4.86.6-7.3.3-5.44-4.71-4.78-12.65-1.39-18.36m4.25 1c.74 2.21 2.13 4.25 2.38 6.6-.43 3.3-1.55 6.46-2.41 9.66 6.27-2.73 6.39-13.33.03-16.26zM52.17 13.22c1.28-.76 2.42-1.88 3.92-2.2 1.63.39 3.16 1.11 4.73 1.72 1.36 4.71 1.5 9.69-.67 14.19-1.92.02-3.84.04-5.75.05 1.75-1.32 3.5-2.64 5.23-3.98-.51-2.44-.93-4.9-1.09-7.39-2.36-.12-4.94-.18-6.37-2.39z"/><path d="M53.61 15.52c2.98.73 2.69 4.13 3.46 6.45-1.36 1.24-2.88 2.28-4.43 3.26-.55 6.64.49 13.2 1.57 19.72 1.01 5.58-2.55 10.89-.75 16.4 4.29 2.45 4.95 7.58 6.71 11.74 1.3 4.96-.55 10.16.79 15.18 1.69 4.43 3.42 8.89 3.28 13.73 2.05-3.73 1.31-8.23-.48-11.9-.56-.23-1.7-.69-2.27-.92.19-4.03.02-8.05-.03-12.08 3.43.4 5.01 3.26 6.45 5.98 3.12 2.82 7.69 3.39 10.68 6.49.42-.92.83-1.83 1.28-2.74-2.91-1.84-6.94-1.59-9.2-4.39 1.88-1.07 3.53-2.46 4.49-4.44 3.25 1.75 7.31 3.21 10.59.67-.4 3.35 3.06 4.74 4.88 6.89l.59-1.11c-.27 1.18-.55 2.37-.88 3.53-3 .07-6.62-.27-8.43 2.66 3.66.07 7.41-.17 10.85-1.55l-1.8-1.38c1.01-.32 2.03-.61 3.05-.87-.4 5.81 6.3 9.87 11.67 9.37.86 6.06-1.09 11.89-1.37 17.9.73-3.3 2.5-6.16 4.13-9.05-.2-3.72-.49-7.45-1.38-11.07.59-1.78 2.39-2.97 2.65-4.9.43-2.51.75-5.04 1.06-7.57 1.68.24 3.36.49 5.05.7.62 1.16 1.25 2.31 1.87 3.47-1.56 2.7-3.11 5.41-4.21 8.34 1.11 4.59 1.83 9.28 2.47 13.96.63 4.81-1.72 9.28-2.24 13.98-.35 1.63-2.4 3.51-4.11 2.55-3.62-1.41-6.2-4.59-8.59-7.52-2.03-2.53-1.88-6.02-3.72-8.61-.07 2.21.18 4.41.17 6.62-.73 3.21-3.59 5.5-4.08 8.79-.62 4.21-1.05 8.55-.06 12.74-6.64 4.33-14.81 3.26-22.31 4.4-.02-7.14 1.25-15.25-3.46-21.32.79-1.79.86-4.28 2.91-5.15 2.22-1.2 3.81-3.18 5.61-4.88.67.3 2.01.89 2.67 1.19-.3 2.12-.6 4.23-.95 6.34-.74-.71-2.23-2.12-2.97-2.82-1.88.7-3.65 1.65-5.28 2.82 1.47-.15 2.93-.33 4.39-.54 1.2.34 2.4.68 3.6 1-1.49 4.41-.37 9.02 0 13.51 2.34-2.66.88-6.11.68-9.22.63-3.78 3.59-7.8.62-11.36 2.01.32 4.04.41 6.04.78.95 3.35 2.84 6.2 5.16 8.77.6-.91 1.2-1.82 1.84-2.71 1.32-.32 2.28-1.24 3.17-2.21-1.21.1-2.41.21-3.62.33-.41.8-.81 1.6-1.21 2.4-1.56-3.4-2.65-7.17-5.58-9.69-1.32.7-3.5.48-3.79 2.37-1.08-1.44-1.74-3.65-3.89-3.68-2.07.36-3.12 2.36-4.48 3.72-1.96 2.32-5.4 3.35-6.45 6.4-.03 4.87 3.48 9.11 3.01 14.06-.17 2.6.53 5.27-.18 7.81-2.68 1.72-5.22-1.99-7.74-2.87-.05-3.96-.04-7.92-.06-11.88-2.86-1.89-3.77-5.1-3.59-8.38-3.85-3.23-1.55-8.59-3.55-12.67-1.66-3.64-1.71-7.68-1.43-11.6.98.77 1.95 1.54 2.92 2.32.41-.67.83-1.34 1.25-2.01-.43-.06-1.29-.17-1.72-.22-1.72-2.36-3.73-4.5-5.47-6.85-.64-4.52-3.04-9.31-1.16-13.81-1.33-6.6-4.33-13.11-3.2-19.97-.31-7.42-.06-15 2.6-22.03 1.07-1.09 2.59-1.58 3.89-2.33 1.53-3.49 1.44-7.34 2.02-11.04m-4.76 49c3.29 4.72 5.8 9.9 6.78 15.61.08-1.72.31-3.44.21-5.16-1.55-3.89-2.98-8.42-6.99-10.45m4.39 18.71c1.76-3.98-2.12-6.69-3.97-9.69-1.9 4.05 3.24 6.07 3.97 9.69m27.45 15.16c-.71 1.17-1.42 2.36-2.12 3.54-3.28.48-7.48-1.26-10.02 1.42 2.81.69 5.72.79 8.59 1.1 1.39-.82 2.75-1.69 4.11-2.56-.15-1.17-.35-2.34-.56-3.5m1.61 4.94c2.55 5.36 12.55 7.36 15.73 1.3-2.4.48-4.67 1.7-7.14 1.75-2.87-.96-5.42-3.34-8.59-3.05m-19.04 1.85c-.9 1.17-1.56 2.5-2.16 3.84.49 1.21.95 2.44 1.39 3.67.72 0 2.17-.01 2.89-.02-.94-.88-1.89-1.75-2.87-2.58.66-.51 1.97-1.53 2.62-2.04.48.49 1.44 1.48 1.91 1.97.6-.68 1.19-1.36 1.78-2.04-1.82-.96-3.46-2.62-5.56-2.8m26.04 9.17c3.19.16 4.02-3.03 4.7-5.46-1.92 1.49-3.43 3.41-4.7 5.46m-29.54 1.2c.06 1.88 1.34 3.17 2.59 4.38-.33-1.76-.44-3.88-2.59-4.38m20.78 3.73c1.85.12 3.7-.02 5.55-.1-1.77-1.15-4.12-2.04-5.55.1m5.79 18.25c.4-.1 1.21-.28 1.61-.38.57-3.8 2.07-7.47 1.93-11.37-3.01 3.11-3.16 7.69-3.54 11.75z"/><path d="M74.37 55.19c2.74-2.22 6.51-.44 8.76 1.64 3.02 2.86 2.5 7.39 3.53 11.1.97 3.21-.48 6.38-1.75 9.27-3.31 1.15-7.1.26-10.25-.98-3.05-4.07-4.46-9.28-5.08-14.3-.54-3.26 2.58-5.08 4.79-6.73zM100.28 93.8c-5.58-4.06-6.39-14.56.58-17.6 2.32.61 4.65 1.18 6.92 1.98 1.11 4.03.56 8.24-.04 12.31-.81 3.15-4.57 4.74-7.46 3.31m.88-16.4c1.99 5.21 2.16 10.89.05 16.09 1.69-1.84 4.1-3.68 3.71-6.49.04-3.47.53-8.47-3.76-9.6zM60.74 139.34c1.42.69 2.87 1.31 4.41 1.71-1.82 3.3-3.37 6.75-5.37 9.95 4.94.07 7.44-5.41 5.82-9.63 1.81 1.34 4 2.35 6.3 2.13 6.28-.71 12.97.05 18.54-3.49 3.17 2.06 5 5.6 6.53 8.93-.45 2.08-1.31 4.04-1.64 6.15.59 1.95 1.65 3.73 2.17 5.71 1.2 5.39 4.49 10.05 5.38 15.55a9.618 9.618 0 01-2.35 3.01c-1.24-.43-2.27-1.25-3.3-2.02l-.89.93c-3.83-.09-7.59.46-11.32 1.21-1.73-1.84-.78-5.29-1.88-7.71.35-.28 1.05-.86 1.4-1.14.52-1.94 1.02-3.88 1.32-5.87-1.48 1.78-2.91 3.62-4.65 5.16-2.44-.36-4.75.27-6.72 1.71-.09 3.22-.32 6.44-1.11 9.57-1.52-.97-3.23-2.7-4.58-.47-4.83.9-9.82.34-14.55-.86-.3-5.23 2.8-9.75 2.48-14.91.11-4.06.62-8.13 1.97-11.98.91-2.29-.04-4.65-.48-6.92-1.15-2.62 1.45-4.59 2.52-6.72m24.23 11.02c-3.74.2-7.36 1.23-10.97 2.15-1.46.1-1.84 1.66-2.56 2.65 3.23-.46 6.35-1.45 9.45-2.45 3.34-1.12 7.17-.71 10.22-2.69 1.14-.56 1.38-1.39.71-2.51-2.32.86-4.28 2.76-6.85 2.85m-15.91 4.69c-.01 1.09.47 1.86 1.42 2.31 3.79 2.22 8.33 2.3 12.57 2.87 1.46.33 2.59-.48 3.35-1.66-1.85.11-3.69.36-5.5.75-2.57-.7-5.41-.81-7.65-2.41-1.37-.69-2.53-2.07-4.19-1.86zM97.14 180.68c2.01.06 4-.27 5.95-.76.78 5.93 2.75 11.92 1.32 17.92-.71 2.65-1.2 5.45-2.73 7.79-2.19.91-4.64.68-6.94 1.04-3.99-2.87-4.12-8.24-5.21-12.6-.76-4.51-3.99-8.17-4.37-12.78 3.98-.34 7.98-.49 11.98-.61z"/></g><g fill="#333"><path d="M37.52 8.49C42 5.07 49.6 5.64 52.48 10.85c2.72-1.85 6.6-1.55 9.12.49 4.1 5.09 3.22 12.63-.62 17.61-2.22.27-4.46.02-6.69-.05.08 6.45 2.7 12.6 2.36 19.07-.04 3.47-.96 6.86-2.16 10.09 1.32 3.01 4.77 4.51 5.48 7.86 1.65 3.15.69 7.79 4.02 9.87 2.03 1.38 3.95 2.92 5.94 4.37 1.15-.52 2.18-1.26 3.25-1.92-3.74-5.92-5.64-13.24-4.12-20.17 1.94-3.95 6.61-6.68 10.98-5 7.31 1.76 8.81 10.61 8.54 17.01-.73 3.76-1.48 7.55-.44 11.35 1.96.97 3.83 2.15 5.58 3.47.95-3.77 1.12-9.11 5.7-10.29 4.23-.26 9.3 1.08 11.38 5.17 1.38.05 2.76.11 4.15.15 2.44-3 6.57-2.75 9.97-1.91 4.22 4.71 3.19 11.72.94 17.14-2.69 1.46-5.98 3.12-8.85.96l-.53.61c.33-1.27.7-2.53 1.11-3.78.61.68 1.84 2.03 2.46 2.7 6.63-1.68 7.7-11.02 3.67-15.6-2.21-.54-4.66-1.29-6.82-.13 1.13 1.49 2.26 2.98 3.4 4.46-1.16 2.61-2.5 5.13-3.89 7.62l1.34-.07c-.72.48-1.43.95-2.15 1.42 1.1 6.11 3.06 12.33 2.44 18.64-.24 3.55-2.36 6.63-2.54 10.17-1.26 2.42-3.47 4.83-6.51 4.05-4.62-1.22-7.44-5.56-10.39-9.01-3.9 5.99-5.63 13.5-2.94 20.35l-2.28 1.24c1.68 3.09 4.63 5.61 5.12 9.24.06 3.38-1.12 6.94.42 10.15 2.21 4.92 3.67 10.12 5.86 15.05.99 2.24-.78 4.33-1.86 6.14.47.43 1.41 1.3 1.88 1.73.82 5 1.57 10.03 2.6 15-.19.34-.59 1.03-.79 1.38 10.6 4.37 20.85 12.39 23.61 24.03.62 5.16 1.08 10.42.34 15.59-.53 3.9-2.65 7.34-4.73 10.6-3.14 4.87-9.57 5.55-13.29 9.78.21-.89.64-2.66.86-3.54-2.75 2.76-6.38 4.67-10.31 4.91-5.42.24-10.57 2.37-16.02 2.33-3.77-.1-7.22 2.01-11.03 1.43-6.66.12-12.72-2.87-19.16-3.97-2.87-.64-5.38-2.29-8.03-3.49-4.27-1.73-6.77-5.83-9.82-9.06-8.38-10.37-6.89-26.5 1.97-36.12 2.38-3.39 6.24-5.08 9.24-7.77 1.07-.33 2.14-.65 3.21-.96-3 4.72-8.41 7.06-11.79 11.46-5.98 6.17-4.86 15.51-4.68 23.37 2.75 6.7 7.23 12.54 12.89 17.07 7.5 3.91 15.89 5.5 24.17 6.88 5.46 1 10.58-1.97 16.09-1.15 12.59-1.39 26.82-4.13 34.92-14.88 1.41-4.21 2.91-8.48 3.81-12.85.21-6.65-1.65-13.42-5.03-19.13-4.52-5.17-10.36-9.54-17.07-11.37-.06-.33-.19-.99-.25-1.33-.4 2.64-.29 5.89-2.9 7.46-3.12 3.06-7.96 2.79-11.72 1.18-2.7-3.5-3.81-7.69-4.51-11.98-4.29-.34-8.25 2.18-12.54 1.17 3.68-2.31 8.21-2.8 12.48-2.82-.57-4.43-3.26-8.49-2.8-13.03-.69-.12-2.05-.37-2.73-.49-.52-2.74-.35-5.55-.6-8.31-1.23-.04-2.46-.07-3.69-.1-.33 2.68-.83 5.35-.93 8.06-1.11 2.39-3.56 1.11-5.5 1.16l2.79 1.43c-6.1.44-12.4.8-18.39-.71.2 7.3-.97 15.49 3.24 21.9 2.56 1.17 5.69 3.68 8.51 1.91 2.37-1.3 3.81-3.79 5.13-6.06-.09-5.56-2-12.15 1.7-16.96-.51 5.88.4 11.8-.1 17.66-1.87 3.28-4.37 6.74-8.02 8.15-4.38 1.38-7.51-2.5-10.9-4.47-2.58-7-1.55-14.53-2.22-21.8-.69-4.88-.72-10.08 1.45-14.61-.14-4.73-.2-9.56 1.66-14.01 1.77-3.29-.27-6.84.06-10.28.94-2.39 2.5-4.46 3.62-6.76-2.22-3.61-.45-7.88-.59-11.81-2.37-2.34-3.53-5.46-3.19-8.79-1.77-2.08-2.81-4.66-2.88-7.4-.11-3.82-2.67-7.03-2.77-10.84-.54-3.46 1.07-7.3-1.12-10.37-4.67-8.22-2.9-18.11-5.97-26.81-1.46-3.56-.11-7.33-.15-11 .11-4.36-.61-8.81.59-13.07.77-2.64 1.21-5.37 1.38-8.11-2.36.02-5 .04-6.72-1.87-4.14-5.36-3.1-12.59-.66-18.44m2.07-.18c-3.39 5.71-4.05 13.65 1.39 18.36 2.44.3 4.87.01 7.3-.3 2.99-2.48 3.46-6.43 4.16-10.01-1.27-2.49-1.97-5.29-3.68-7.55-2.84-1.4-6.14-.63-9.17-.5m12.58 4.91c1.43 2.21 4.01 2.27 6.37 2.39.16 2.49.58 4.95 1.09 7.39-1.73 1.34-3.48 2.66-5.23 3.98 1.91-.01 3.83-.03 5.75-.05 2.17-4.5 2.03-9.48.67-14.19-1.57-.61-3.1-1.33-4.73-1.72-1.5.32-2.64 1.44-3.92 2.2m1.44 2.3c-.58 3.7-.49 7.55-2.02 11.04-1.3.75-2.82 1.24-3.89 2.33-2.66 7.03-2.91 14.61-2.6 22.03-1.13 6.86 1.87 13.37 3.2 19.97-1.88 4.5.52 9.29 1.16 13.81 1.74 2.35 3.75 4.49 5.47 6.85.43.05 1.29.16 1.72.22-.42.67-.84 1.34-1.25 2.01-.97-.78-1.94-1.55-2.92-2.32-.28 3.92-.23 7.96 1.43 11.6 2 4.08-.3 9.44 3.55 12.67-.18 3.28.73 6.49 3.59 8.38.02 3.96.01 7.92.06 11.88 2.52.88 5.06 4.59 7.74 2.87.71-2.54.01-5.21.18-7.81.47-4.95-3.04-9.19-3.01-14.06 1.05-3.05 4.49-4.08 6.45-6.4 1.36-1.36 2.41-3.36 4.48-3.72 2.15.03 2.81 2.24 3.89 3.68.29-1.89 2.47-1.67 3.79-2.37 2.93 2.52 4.02 6.29 5.58 9.69.4-.8.8-1.6 1.21-2.4 1.21-.12 2.41-.23 3.62-.33-.89.97-1.85 1.89-3.17 2.21-.64.89-1.24 1.8-1.84 2.71-2.32-2.57-4.21-5.42-5.16-8.77-2-.37-4.03-.46-6.04-.78 2.97 3.56.01 7.58-.62 11.36.2 3.11 1.66 6.56-.68 9.22-.37-4.49-1.49-9.1 0-13.51-1.2-.32-2.4-.66-3.6-1-1.46.21-2.92.39-4.39.54 1.63-1.17 3.4-2.12 5.28-2.82.74.7 2.23 2.11 2.97 2.82.35-2.11.65-4.22.95-6.34-.66-.3-2-.89-2.67-1.19-1.8 1.7-3.39 3.68-5.61 4.88-2.05.87-2.12 3.36-2.91 5.15 4.71 6.07 3.44 14.18 3.46 21.32 7.5-1.14 15.67-.07 22.31-4.4-.99-4.19-.56-8.53.06-12.74.49-3.29 3.35-5.58 4.08-8.79.01-2.21-.24-4.41-.17-6.62 1.84 2.59 1.69 6.08 3.72 8.61 2.39 2.93 4.97 6.11 8.59 7.52 1.71.96 3.76-.92 4.11-2.55.52-4.7 2.87-9.17 2.24-13.98-.64-4.68-1.36-9.37-2.47-13.96 1.1-2.93 2.65-5.64 4.21-8.34-.62-1.16-1.25-2.31-1.87-3.47-1.69-.21-3.37-.46-5.05-.7-.31 2.53-.63 5.06-1.06 7.57-.26 1.93-2.06 3.12-2.65 4.9.89 3.62 1.18 7.35 1.38 11.07-1.63 2.89-3.4 5.75-4.13 9.05.28-6.01 2.23-11.84 1.37-17.9-5.37.5-12.07-3.56-11.67-9.37-1.02.26-2.04.55-3.05.87l1.8 1.38c-3.44 1.38-7.19 1.62-10.85 1.55 1.81-2.93 5.43-2.59 8.43-2.66.33-1.16.61-2.35.88-3.53l-.59 1.11c-1.82-2.15-5.28-3.54-4.88-6.89-3.28 2.54-7.34 1.08-10.59-.67-.96 1.98-2.61 3.37-4.49 4.44 2.26 2.8 6.29 2.55 9.2 4.39-.45.91-.86 1.82-1.28 2.74-2.99-3.1-7.56-3.67-10.68-6.49-1.44-2.72-3.02-5.58-6.45-5.98.05 4.03.22 8.05.03 12.08.57.23 1.71.69 2.27.92 1.79 3.67 2.53 8.17.48 11.9.14-4.84-1.59-9.3-3.28-13.73-1.34-5.02.51-10.22-.79-15.18-1.76-4.16-2.42-9.29-6.71-11.74-1.8-5.51 1.76-10.82.75-16.4-1.08-6.52-2.12-13.08-1.57-19.72 1.55-.98 3.07-2.02 4.43-3.26-.77-2.32-.48-5.72-3.46-6.45m20.76 39.67c-2.21 1.65-5.33 3.47-4.79 6.73.62 5.02 2.03 10.23 5.08 14.3 3.15 1.24 6.94 2.13 10.25.98 1.27-2.89 2.72-6.06 1.75-9.27-1.03-3.71-.51-8.24-3.53-11.1-2.25-2.08-6.02-3.86-8.76-1.64m25.91 38.61c2.89 1.43 6.65-.16 7.46-3.31.6-4.07 1.15-8.28.04-12.31-2.27-.8-4.6-1.37-6.92-1.98-6.97 3.04-6.16 13.54-.58 17.6m-39.54 45.54c-1.07 2.13-3.67 4.1-2.52 6.72.44 2.27 1.39 4.63.48 6.92-1.35 3.85-1.86 7.92-1.97 11.98.32 5.16-2.78 9.68-2.48 14.91 4.73 1.2 9.72 1.76 14.55.86 1.35-2.23 3.06-.5 4.58.47.79-3.13 1.02-6.35 1.11-9.57 1.97-1.44 4.28-2.07 6.72-1.71 1.74-1.54 3.17-3.38 4.65-5.16-.3 1.99-.8 3.93-1.32 5.87-.35.28-1.05.86-1.4 1.14 1.1 2.42.15 5.87 1.88 7.71 3.73-.75 7.49-1.3 11.32-1.21l.89-.93c1.03.77 2.06 1.59 3.3 2.02.98-.84 1.76-1.84 2.35-3.01-.89-5.5-4.18-10.16-5.38-15.55-.52-1.98-1.58-3.76-2.17-5.71.33-2.11 1.19-4.07 1.64-6.15-1.53-3.33-3.36-6.87-6.53-8.93-5.57 3.54-12.26 2.78-18.54 3.49-2.3.22-4.49-.79-6.3-2.13 1.62 4.22-.88 9.7-5.82 9.63 2-3.2 3.55-6.65 5.37-9.95-1.54-.4-2.99-1.02-4.41-1.71m36.4 41.34c-4 .12-8 .27-11.98.61.38 4.61 3.61 8.27 4.37 12.78 1.09 4.36 1.22 9.73 5.21 12.6 2.3-.36 4.75-.13 6.94-1.04 1.53-2.34 2.02-5.14 2.73-7.79 1.43-6-.54-11.99-1.32-17.92-1.95.49-3.94.82-5.95.76z"/><path d="M43.84 9.31c6.36 2.93 6.24 13.53-.03 16.26.86-3.2 1.98-6.36 2.41-9.66-.25-2.35-1.64-4.39-2.38-6.6zM48.85 64.52c4.01 2.03 5.44 6.56 6.99 10.45.1 1.72-.13 3.44-.21 5.16-.98-5.71-3.49-10.89-6.78-15.61zM53.24 83.23c-.73-3.62-5.87-5.64-3.97-9.69 1.85 3 5.73 5.71 3.97 9.69zM101.16 77.4c4.29 1.13 3.8 6.13 3.76 9.6.39 2.81-2.02 4.65-3.71 6.49 2.11-5.2 1.94-10.88-.05-16.09zM120.33 80.58c.94.86 1.86 1.75 2.78 2.62-.16 2.59.19 5.41-1.13 7.77-.58.89-1.23 2.49-2.45 1.41 1.64-3.8 2.12-7.8.8-11.8zM80.69 98.39c.21 1.16.41 2.33.56 3.5-1.36.87-2.72 1.74-4.11 2.56-2.87-.31-5.78-.41-8.59-1.1 2.54-2.68 6.74-.94 10.02-1.42.7-1.18 1.41-2.37 2.12-3.54zM82.3 103.33c3.17-.29 5.72 2.09 8.59 3.05 2.47-.05 4.74-1.27 7.14-1.75-3.18 6.06-13.18 4.06-15.73-1.3zM63.26 105.18c2.1.18 3.74 1.84 5.56 2.8-.59.68-1.18 1.36-1.78 2.04-.47-.49-1.43-1.48-1.91-1.97-.65.51-1.96 1.53-2.62 2.04.98.83 1.93 1.7 2.87 2.58-.72.01-2.17.02-2.89.02-.44-1.23-.9-2.46-1.39-3.67.6-1.34 1.26-2.67 2.16-3.84zM89.3 114.35c1.27-2.05 2.78-3.97 4.7-5.46-.68 2.43-1.51 5.62-4.7 5.46zM59.76 115.55c2.15.5 2.26 2.62 2.59 4.38-1.25-1.21-2.53-2.5-2.59-4.38zM80.54 119.28c1.43-2.14 3.78-1.25 5.55-.1-1.85.08-3.7.22-5.55.1zM86.33 137.53c.38-4.06.53-8.64 3.54-11.75.14 3.9-1.36 7.57-1.93 11.37-.4.1-1.21.28-1.61.38zM84.97 150.36c2.57-.09 4.53-1.99 6.85-2.85.67 1.12.43 1.95-.71 2.51-3.05 1.98-6.88 1.57-10.22 2.69-3.1 1-6.22 1.99-9.45 2.45.72-.99 1.1-2.55 2.56-2.65 3.61-.92 7.23-1.95 10.97-2.15zM69.06 155.05c1.66-.21 2.82 1.17 4.19 1.86 2.24 1.6 5.08 1.71 7.65 2.41 1.81-.39 3.65-.64 5.5-.75-.76 1.18-1.89 1.99-3.35 1.66-4.24-.57-8.78-.65-12.57-2.87-.95-.45-1.43-1.22-1.42-2.31z"/></g></svg>