<svg width="221pt" height="275pt" viewBox="0 0 221 275" xmlns="http://www.w3.org/2000/svg"><g fill="#FFF"><path d="M0 0h221v275H0V0m83.93 35.54c-.02 4.95-.55 10.85 3.59 14.44-.09 3.04-.09 6.09-.06 9.13.77-3 1.24-6.09.66-9.17 2.47 1.67 3.2 4.68 5.1 6.82 3.22 2.46 7.28 3.71 11.32 3.57.08 1.46.58 2.74 1.5 3.84 0-.99-.01-2.98-.01-3.97 1.93.63 3.88 1.22 5.81 1.88-1.92.81-3.87 1.55-5.78 2.38-.75 1.24-1.52 2.58-2.92 3.19-2.77-.59-5.5-1.37-8.33-1.6.92-3.51-2.36-5.88-3.89-8.62-.03.14-.08.42-.1.55 1.11 2.74 2.13 5.5 3.32 8.2-2.6.49-5.2 1.05-7.77 1.69 3.24 2.32 7.18-.89 10.72.3 2.29.15 5.25 2.51 6.94-.07 2.5-3.36 7.12-3.67 10.97-3.8 1.27.9 2.55 1.79 3.85 2.65-2.19-1.58-4.41-3.18-6.09-5.33 1.61.19 3.19 1 4.84.65 2.78-.59 4.97 1.74 7.39 2.7 1.33 2.56 3.37 5.01 3.37 8.04.22 2.64-.53 5.51.96 7.88 1.72 3.17 2.62 6.68 2.43 10.3l-2.12.04c-.47-1.85-1.08-3.67-2-5.36.16 3.24 1.02 6.47 2.74 9.23.55 3.83-.48 7.61-.6 11.43 1.97-2.1 1.9-5.07 2.53-7.7-.47-1.86-.96-3.72-1.58-5.54.36-.67.73-1.34 1.1-2.01.75 5.2 6.59 7.5 7.34 12.71 1.39 7.13 4.59 13.8 5.41 21.06.83 3.52 1.69 7.58 4.78 9.84-1.42.64-2.71 1.58-3.48 2.96-3.35 5.46-4.13 12.35-2.51 18.51 1.02 3.46 3.04 7.13 6.67 8.36 3.2 1.25 6.36-1.11 8.21-3.54 4.5-5.6 5.03-13.23 3.87-20.06-1.27-2.64-2.22-5.9-5.12-7.21-2.25-.88-4.9-1.43-7.13-.09-.12-.58-.35-1.74-.47-2.32-2.81-2.81-3.58-6.82-3.86-10.62-.31-5.18-2.69-9.89-3.72-14.92-.24-1.71-1.7-2.76-2.73-3.99.16-.49.49-1.46.65-1.94-1.4-3.46-5.92-5.02-6.23-9.07-.41-4.48-1.81-8.73-3.6-12.83-.29-3.96.29-8.3-2.22-11.72-1.83-3.96-6.25-5.35-10.09-6.55l.27 1.74c-1.37-.13-2.74-.24-4.11-.32l1.08-1.36c-2.55-.11-5.1-.29-7.64-.56 1.47-3.97 2.16-8.17 2.74-12.35.7-4.49-1.26-8.74-1.82-13.12-.64-4.34-5.05-6.75-9.11-6.98-6.12-1.19-14.04 1.83-15.07 8.63m-4.89 31.42c-1.78 2.92-5.64 2.87-7.98 5.15-2.28 1.99-5.35 3.55-6.21 6.7-1.39 3.19-.73 6.66-.52 9.99-1.72 4.89-2.69 10.05-2.8 15.23-.17 5.29 4.91 9.49 3.61 14.86-1.49 6.65-1.73 13.74.37 20.29-5.75 2.49-8.12 8.96-8.97 14.73-.96 6.26 1.27 13.49 7.29 16.44-1.43.64-3.04 1.16-4.46.11-3.19-2.37-5.42-5.77-8.37-8.39-3.1-1.64-7.46-3.3-10.4-.47-3.59 2.62-3.81 7.37-4.57 11.38-.21 3.76-2.41 6.91-3.72 10.34-9.33 4.45-17.39 12.06-21.22 21.78-3.14 8.81-3.6 18.38-2.76 27.62 1.6 5.4 3.66 11.12 8.13 14.83 5.45 4.96 12.03 9.46 19.62 9.91 7.97.6 16.36.61 23.64-3.15 4.45.48 8.86-.73 13.24-1.41 9.49-2.63 19.35-8.13 23.08-17.77 2.38-6 3.37-12.49 4.11-18.87.06-5.37-1.85-10.6-4.37-15.28-.56-.21-1.68-.64-2.24-.85 5.12 8.38 4.72 18.66 2.82 27.95-2.07 8.48-8.21 15.46-15.79 19.58-5.56 3.67-12.41 3.49-18.59 5.38-10.99 1.1-22.45 2.46-33.1-1.34-7.42-3.15-14.6-8.46-17.49-16.27-2.29-4.45-1.72-9.6-1.81-14.43.64-5.64 1-11.57 3.79-16.65 3.95-6.81 9.44-12.73 15.86-17.27 3.15-2.44 8.18-1.59 10.33-5.27-1.89.29-3.73.77-5.57 1.27 2.12-3.41 3.71-7.2 4.24-11.21.6-3.07.74-6.83 3.66-8.73 2.12-1.96 5.46-1.2 7.7.13 2.57 2.15 4.09 5.21 6.35 7.62 8.22 5.39 19.34 3.27 26.95 9.98-.21 1.76-.39 3.52-.49 5.29 2.9-1.62 1.88-5.89 3.13-8.65 6.8 2.01 11.49-5.25 13.09-10.87 2.32.05 4.61-.4 6.78-1.21-.26 9.63-3.32 19.09-8.61 27.14-1.41 2.37-4.08 3.84-6.78 4.15-1.64-.48-3.17-1.28-4.73-1.96-5.27-2.56-11.26-2.95-16.67-5.16-3.13-1.06-5.64-3.32-8.68-4.59-5.46-2.59-11.56-4.36-17.64-3.49.04.4.12 1.22.17 1.62 3.2-.73 6.46-.37 9.51.79 7.18 1.89 12.35 7.91 19.57 9.73 3.73.81 7.28 2.14 10.57 4.09.75-.22 1.51-.45 2.26-.67 4.03 2.61 9.69 1.53 13.15-1.54 5.65-4.88 5.81-12.86 8.42-19.37 1.7-4.08-.08-8.47.93-12.63 1.38 3.49 3.35 6.64 5.67 9.56.54 2.87.1 5.99 1.57 8.63.65 1.67 2.08 3.26 1.58 5.17-1.03 4.55-1.24 9.22-1.28 13.87.54 3.29 2.64 6.05 3.9 9.09 1.63 3.47 1.66 7.38 1.55 11.13-.04 4.79-2.49 9.21-2.31 14.02.19 1.67-.43 4.03 1.44 4.95 3.16 2.43 7.33.92 10.96 1.18 2.92-.18 5.28 1.8 7.78 3 5.69.83 12.83.38 16.11-5.12-1.59-1.92-2.87-4.82-5.75-4.85-7.09-.44-9.44-8.41-15.16-11.41-1.92-7.15-1.48-14.57-1.6-21.89.09-3.69-1.83-7.14-1.41-10.83.21-1.68.26-3.36.13-5.05-.25-3.2 2.04-6.21 1.08-9.42-.8-2.36-2.47-4.6-1.44-7.21-1.18.47-2.36.94-3.54 1.4-.74 2.06-.89 5.04-3.18 6.01-2.61-.32-3.51-3.14-4.86-5 .67 2.39.99 5.76 3.82 6.59 3-.39 4.38-3.25 5.97-5.43.59 1.99 1.94 3.96 1.46 6.12-1.16 4.93-1.27 10.01-1.6 15.03.98 5.57 1.95 11.22 1.24 16.89-.67 4.37 1.39 8.48 1.77 12.77 3.9 3.32 6.94 7.44 10.53 11.03 2.94 3.15 8.63 1.44 10.32 5.99-1.95 1.04-3.82 2.27-5.93 2.97-1.92.07-3.8-.46-5.7-.64-3.54-.12-6.33-3.04-9.93-2.78-3.41.15-6.88 1.01-10.18-.3-.26-4.58-.06-9.24 1.35-13.64.72-4.02.46-8.16.12-12.21-.26-3.35-2.46-6.06-3.44-9.19-1.06-5.25-1.88-10.65-.78-15.98.48.99 1.43 2.99 1.91 3.99 2.25-3.55-.79-6.78-1.99-10.04-1.45-3.29-.26-7.31-2.56-10.32-1.66-3.41-5.21-5.98-5.38-9.98 6.71 1.95 13.61-1.09 18.54-5.58.07 3.9.14 7.81.23 11.71.59-.72 1.19-1.44 1.79-2.15-.19-3.24-.62-6.47-1.18-9.66 1.09-.58 2.19-1.16 3.29-1.74-1.07-2.11-2.85-3.92-3.27-6.32-.79-5.23-3.28-9.98-5.16-14.88.88-2.62 1.65-5.33 1.07-8.11-1.8-1.4-3.37-3.19-3.19-5.64-.43-5.63-1.44-11.68 1.04-16.99 3.36-6-1.57-12.38-.48-18.7 1.31.16 2.54.66 3.78 1.06.17-.38.49-1.14.65-1.52-.67-.33-2.02-1-2.69-1.33-.08-.64-.25-1.92-.33-2.55-.29.15-.88.46-1.17.61-.58 1.75-1.2 3.49-1.83 5.23-.69-.32-2.08-.96-2.77-1.28-2.85 1.58-5.79.73-8.49-.62.93 5.25 7.38 2.56 10.71 1.75.42 2.41.73 4.85 1.34 7.24.26 1.53 1.21 3.37-.13 4.66-2.42-.6-4.79-1.57-7.37-1.29-.63-1.79-1.49-3.49-2.48-5.11 2.32-.13 4.64-.21 6.97-.18-1.05-.63-2.07-1.32-3.16-1.86-1.84.25-3.27 1.68-4.91 2.45 1.41 1.23 2.32 2.77 2.02 4.73-1.92 1.36-4.6 1.14-6.31 2.94-1.82.58-3.2 1.86-4.46 3.25-1.8-.86-3.56-1.81-5.34-2.69.6 2.8 3.16 3.94 5.68 4.58 1.95-2.85 5.34-4 8.37-5.33 3.52-1.72 7.82-1.41 11.13.66l.59.58c-.87 2.46-2.17 4.72-3.39 7.01-1.07.15-2.14.28-3.21.41-.31-2.43-1.25-4.69-2.23-6.92-.17 2.56.42 5.39-1.04 7.68-2.86.89-6.18.02-8.66 2.21-1.16-.56-2.32-1.12-3.5-1.65 1.02 2.89 4.1 3.94 6.6 2.06 3.96.66 7.12-3.52 10.93-1.44.31-.59.93-1.79 1.24-2.38.54 4.42 1.14 8.84 1.41 13.29-3.67 2.06-7.85 2.64-11.85 3.75-.54-.77-1.06-1.56-1.56-2.35-1.99-1.49-3.65-3.34-5.11-5.34.72-.46 1.44-.93 2.16-1.39-.62-.71-1.88-2.14-2.5-2.86-.07.79-.05 1.57.06 2.35-1.52 3.11.73 6.13 3.35 7.7.43.51 1.27 1.55 1.7 2.06-4-.54-7.97-1.42-12.03-1.39-2.51 0-4.77-1.33-6.74-2.77-.44-5.08-.13-10.44-3-14.94 2.35-1.1 4.98-1.2 7.53-1.12-.75-.84-1.51-1.69-2.27-2.52-1.69 1.02-3.57.88-5.41.51l.6 1.22c-.65.16-1.95.46-2.6.62.53 1.91 1.35 3.72 2.19 5.52 1.96 3.53.66 7.66 1.54 11.45-1.29 2.72-3.22 5.15-3.88 8.16 1.46-1.93 2.48-4.37 4.92-5.26-.18-.53-.52-1.6-.69-2.13 5.38 4.44 12.55 3.28 18.95 4.6 4.85-.08 9.64-1.5 14.2-3.08 1.09 1.47 2.83 2.56 3.39 4.36.17 2.39-.7 4.68-1.18 6.98 2.15 4.53 4.35 9.13 4.98 14.17.17 1.96 1.47 3.51 2.53 5.08-4.11 1.6-6.9 5.45-11.18 6.67-3.1 1.02-6.93.83-9.4-1.5l-2.35-.2c1.67-2.3 4.39-3.32 7.13-3.34 2-2.33 3.34-5.16 3.83-8.19-1.67 1.84-2.92 4-4.44 5.96-2.53 1.13-5.65 1.27-7.67 3.35.07 1.78 1.84 2.81 2.2 4.5a7.37 7.37 0 01-2.76 3.91l.36-3.16c-1.47 2.16-3.82 3.38-5.99 4.71 1.13-6.04.97-12.91-2.96-17.95-1.55-2.28-4.58-2.37-6.93-3.28-7.16 2.73-10.07 11.19-9.98 18.29.1 4.78.95 10.83 5.64 13.28-.68.43-1.37.85-2.06 1.26-3.38-1.49-6.64-3.71-10.47-3.78-3.12-.06-6.18-.66-9.02-1.98 1.91-1.06 4.99-.07 5.69-2.71-2.42.28-5.32.5-7.08-1.56-4.41-5.15-4.18-12.82-2.19-18.94 1.01-3.55 3.84-6.02 6.53-8.34 1.83 5.12-.54 10.61 1.5 15.64 1 2.94.84 6.11 1.58 9.11 1.77 3.59 6.28 3.45 9.64 4.23-.81-3.58-5.2-2.83-7.85-4.01-.63-3.37-.69-6.86-1.89-10.1-1.41-3.37-.16-7.04-.71-10.53-.72-4.91-2.72-9.6-2.72-14.62-.46-6.08 1.6-11.89 2.22-17.87-.42.43-1.25 1.3-1.67 1.73-.9-4.32-3.76-8.36-2.75-12.93.59-3.01.6-6.15 1.6-9.06.76.65 1.5 1.32 2.23 2.01-.63-3.56-1.31-7.15-1.41-10.78-.07-5.43 5.16-8.61 9.35-10.92 3.63-1.11 5.15-4.84 7.96-7.05 1.62-1.37 3.59-2.62 3.96-4.89a24.293 24.293 0 00-7.92 6.79m26.05 7.56c.4 3.62 2.9 7.46.32 10.84-3.66 1.11-6.71 3.37-10.06 5.06-4.78 2.01-7.73-3.14-11.55-4.84 1.7 5.82 9.96 9.67 14.88 5.16 2.56-2.68 7.5-2.16 8.76-6.15 2.41-3.34.14-7.52-2.35-10.07m-23.25 3.1c-.72 2.16-1.39 4.34-1.74 6.6 2.86-.94 2.82-4.32 3.61-6.72l-1.87.12m17.79 18.46c.03.43.08 1.3.11 1.73.67-.62 1.35-1.24 2.04-1.85 2.71-1.67 4.18-4.63 6.14-7.04-4.44-.14-4.84 5.41-8.29 7.16m-27.19-4.14c-.01.82-.03 2.47-.03 3.29 1.59-1.44 3.21-2.85 4.68-4.41-1.56.32-3.11.71-4.65 1.12m5.55.95c.89 2.23 2.48 4.41 1.78 6.95-.65 3.65-.06 7.34-.31 11.01-.73 4.06-3.71 7.42-3.78 11.66.77-1.15 1.53-2.32 2.27-3.49 2.7 6.36 2.7 13.71.25 20.13-.57 4.02.02 9.04 3.26 11.85-.62-4.23-2.69-8.58-1.12-12.85 2.24-6.37 1.18-13.37-.94-19.63-.6-1.49.37-2.92.7-4.34.86-2.49 1.07-5.17 2.24-7.54-.33-.42-.99-1.27-1.33-1.69.3-3.82 1.55-8.07-.61-11.58-.42-1.32-1.46-.95-2.41-.48m6.31 2.17c-2.68 4.36 8.36 6.41 7.33 1.64-2.32 1.09-6.34 1.79-6.62-1.83.77-.18 2.3-.53 3.07-.71-1.39-1.02-2.91-.55-3.78.9m-19.82 6.18c.7 2.4.27 5.31 2.13 7.23.93-2.51.71-5.13-.65-7.43l-1.48.2m29.98 4.5c.05.42.16 1.25.21 1.67 2.35.69 4.8.35 5.94-2.07-2.05.16-4.1.33-6.15.4m-.54 6.43c.51-.34 1.53-1.03 2.05-1.37-2.54-1.05-4.95-2.35-7.14-4.01-1.13 3.31 2.76 4.3 5.09 5.38m30.42-2.56c.66 2.87 1.76 5.61 2.73 8.38 3.57 3.57 7.3 7.65 7.86 12.91 1.5 4.32-2.66 7.91-2.09 12.2.63 2.57 1.55 5.08 2.74 7.44 2 1.22 4.58 4.65 6.63 1.73-1.52-.88-3.26-1.43-4.62-2.56-1.04-2.18-2.21-4.35-2.69-6.74.21-3.77 2.5-7.2 1.89-11.07.09-4.94-2.84-9.11-6.1-12.53-2.89-2.72-3.6-6.91-6.35-9.76m-9.48 3.65c-2 .81-3.7 2.12-3.25 4.52 1.33-1.32 2.39-2.86 3.25-4.52M89.7 125.29c-1.18 2.9-3.47 6.15-1.64 9.28.63-2.65 1.38-5.27 2.57-7.72 1.87.61 3.75 1.19 5.63 1.77-1 5.44-7 6.43-10.01 10.23 4.74-1.53 10.91-3.86 11.27-9.7 7.4 1.55 16.26.89 22.29-4.04-5.29.8-10.32 3.21-15.75 2.89-4.99.46-9.57-1.81-14.36-2.71m35.23 7.06c2.02-1.44 4.29-2.88 5.15-5.33-2.48.83-4.97 2.43-5.15 5.33m-42.3-2.08c.18 6.07-.21 12.13-.39 18.19 2.67-3.81 2.09-8.57 2-12.96-.06-1.86-.5-3.71-1.61-5.23m30.77 2.69c-.14 2.98 4.36.91 6.09 1.25-1.07-2.62-4.07-1.17-6.09-1.25m-3.72.73c-3.96 1.02-8.62 1.28-11.6 4.43 4.61-.84 9.08-2.27 13.69-3.13-.68-.57-2.3-4.28-2.09-1.3m-.69 4.34c-2.43 1.19-5.11 2.39-6.45 4.9 2.84-1.18 5.41-2.94 8.3-4.03 2.96-1.26 6.18-2.06 8.78-4.05-3.77.12-7.25 1.66-10.63 3.18m-13.24 6.89c3.73 2.55 8.22-.3 12.32.01 4.55-.62 10.23.13 13.35-4-8.36 2.5-17.16 2.31-25.67 3.99m-18.27 5.14c-.14-2.92-.54-5.82-1.25-8.66-1.17 2.98-.4 6.04 1.25 8.66m-6.02-.11c1.55-.18 1.32-2.88-.08-3.14-1.48.23-1.27 2.83.08 3.14m-20.35 25.34c3.45 2.63 7.07 5.41 11.4 6.31-.04-.23-.13-.69-.17-.93-3.31-2.55-7.35-3.92-11.23-5.38m13.6 7.53c3.92 4.7 10.12 6.69 16.07 6.84-.09-.49-.29-1.46-.39-1.94-5.65-.23-10.57-2.88-15.68-4.9m57.92 43.56c-.31 2.77.12 5.59 2.36 7.49-.27-1.74-.7-3.45-1.17-5.15.22-.75.45-1.5.68-2.24-.47-.03-1.4-.07-1.87-.1z"/><path d="M89 31.03c3.63-3 8.61-2.77 13.03-2.55 1.97 1.89 4.54 3.65 4.97 6.56.73 4.59 2.41 9.23 1.25 13.9-.78 3.55-.65 8.55-5.03 9.62-2.81-1.05-5.68-2.02-8.31-3.47-1.9-1.15-2.53-3.42-3.84-5.07-1.56-1.34-3.27-2.52-4.81-3.89.66-1.53 1.03-3.15 1.65-4.69-.65.27-1.96.81-2.62 1.08-.59-4.09.15-8.9 3.71-11.49zM147.11 138.97c1.71-2.6 4.62-3.95 7.21-5.49 3.59 1.99 5.77 5.44 6.97 9.27.22 5.07.14 10.44-2.55 14.93-1.69 2.93-4.71 6.27-8.49 5.04-3.42-1.59-5.22-5.28-5.75-8.84-.57-5.06-.18-10.5 2.61-14.91zM90.34 145.61c3.67 1.92 6.77 5.16 7.32 9.43.54 5.38.64 11.31-2.48 16-1.94 2.95-5.44 5.81-9.18 4.48-3.91-1.95-5.22-6.64-5.69-10.65-.29-5.09.65-10.58 3.91-14.66 1.6-2.04 3.98-3.22 6.12-4.6z"/></g><g fill="#333"><path d="M83.93 35.54c1.03-6.8 8.95-9.82 15.07-8.63 4.06.23 8.47 2.64 9.11 6.98.56 4.38 2.52 8.63 1.82 13.12-.58 4.18-1.27 8.38-2.74 12.35 2.54.27 5.09.45 7.64.56l-1.08 1.36c1.37.08 2.74.19 4.11.32l-.27-1.74c3.84 1.2 8.26 2.59 10.09 6.55 2.51 3.42 1.93 7.76 2.22 11.72 1.79 4.1 3.19 8.35 3.6 12.83.31 4.05 4.83 5.61 6.23 9.07-.16.48-.49 1.45-.65 1.94 1.03 1.23 2.49 2.28 2.73 3.99 1.03 5.03 3.41 9.74 3.72 14.92.28 3.8 1.05 7.81 3.86 10.62.12.58.35 1.74.47 2.32 2.23-1.34 4.88-.79 7.13.09 2.9 1.31 3.85 4.57 5.12 7.21 1.16 6.83.63 14.46-3.87 20.06-1.85 2.43-5.01 4.79-8.21 3.54-3.63-1.23-5.65-4.9-6.67-8.36-1.62-6.16-.84-13.05 2.51-18.51.77-1.38 2.06-2.32 3.48-2.96-3.09-2.26-3.95-6.32-4.78-9.84-.82-7.26-4.02-13.93-5.41-21.06-.75-5.21-6.59-7.51-7.34-12.71-.37.67-.74 1.34-1.1 2.01.62 1.82 1.11 3.68 1.58 5.54-.63 2.63-.56 5.6-2.53 7.7.12-3.82 1.15-7.6.6-11.43-1.72-2.76-2.58-5.99-2.74-9.23.92 1.69 1.53 3.51 2 5.36l2.12-.04c.19-3.62-.71-7.13-2.43-10.3-1.49-2.37-.74-5.24-.96-7.88 0-3.03-2.04-5.48-3.37-8.04-2.42-.96-4.61-3.29-7.39-2.7-1.65.35-3.23-.46-4.84-.65 1.68 2.15 3.9 3.75 6.09 5.33-1.3-.86-2.58-1.75-3.85-2.65-3.85.13-8.47.44-10.97 3.8-1.69 2.58-4.65.22-6.94.07-3.54-1.19-7.48 2.02-10.72-.3 2.57-.64 5.17-1.2 7.77-1.69-1.19-2.7-2.21-5.46-3.32-8.2.02-.13.07-.41.1-.55 1.53 2.74 4.81 5.11 3.89 8.62 2.83.23 5.56 1.01 8.33 1.6 1.4-.61 2.17-1.95 2.92-3.19 1.91-.83 3.86-1.57 5.78-2.38-1.93-.66-3.88-1.25-5.81-1.88 0 .99.01 2.98.01 3.97-.92-1.1-1.42-2.38-1.5-3.84-4.04.14-8.1-1.11-11.32-3.57-1.9-2.14-2.63-5.15-5.1-6.82.58 3.08.11 6.17-.66 9.17-.03-3.04-.03-6.09.06-9.13-4.14-3.59-3.61-9.49-3.59-14.44M89 31.03c-3.56 2.59-4.3 7.4-3.71 11.49.66-.27 1.97-.81 2.62-1.08-.62 1.54-.99 3.16-1.65 4.69 1.54 1.37 3.25 2.55 4.81 3.89 1.31 1.65 1.94 3.92 3.84 5.07 2.63 1.45 5.5 2.42 8.31 3.47 4.38-1.07 4.25-6.07 5.03-9.62 1.16-4.67-.52-9.31-1.25-13.9-.43-2.91-3-4.67-4.97-6.56-4.42-.22-9.4-.45-13.03 2.55m58.11 107.94c-2.79 4.41-3.18 9.85-2.61 14.91.53 3.56 2.33 7.25 5.75 8.84 3.78 1.23 6.8-2.11 8.49-5.04 2.69-4.49 2.77-9.86 2.55-14.93-1.2-3.83-3.38-7.28-6.97-9.27-2.59 1.54-5.5 2.89-7.21 5.49z"/><path d="M79.04 66.96c2.11-2.81 4.83-5.13 7.92-6.79-.37 2.27-2.34 3.52-3.96 4.89-2.81 2.21-4.33 5.94-7.96 7.05-4.19 2.31-9.42 5.49-9.35 10.92.1 3.63.78 7.22 1.41 10.78a60.34 60.34 0 00-2.23-2.01c-1 2.91-1.01 6.05-1.6 9.06-1.01 4.57 1.85 8.61 2.75 12.93.42-.43 1.25-1.3 1.67-1.73-.62 5.98-2.68 11.79-2.22 17.87 0 5.02 2 9.71 2.72 14.62.55 3.49-.7 7.16.71 10.53 1.2 3.24 1.26 6.73 1.89 10.1 2.65 1.18 7.04.43 7.85 4.01-3.36-.78-7.87-.64-9.64-4.23-.74-3-.58-6.17-1.58-9.11-2.04-5.03.33-10.52-1.5-15.64-2.69 2.32-5.52 4.79-6.53 8.34-1.99 6.12-2.22 13.79 2.19 18.94 1.76 2.06 4.66 1.84 7.08 1.56-.7 2.64-3.78 1.65-5.69 2.71 2.84 1.32 5.9 1.92 9.02 1.98 3.83.07 7.09 2.29 10.47 3.78.69-.41 1.38-.83 2.06-1.26-4.69-2.45-5.54-8.5-5.64-13.28-.09-7.1 2.82-15.56 9.98-18.29 2.35.91 5.38 1 6.93 3.28 3.93 5.04 4.09 11.91 2.96 17.95 2.17-1.33 4.52-2.55 5.99-4.71l-.36 3.16a7.37 7.37 0 002.76-3.91c-.36-1.69-2.13-2.72-2.2-4.5 2.02-2.08 5.14-2.22 7.67-3.35 1.52-1.96 2.77-4.12 4.44-5.96-.49 3.03-1.83 5.86-3.83 8.19-2.74.02-5.46 1.04-7.13 3.34l2.35.2c2.47 2.33 6.3 2.52 9.4 1.5 4.28-1.22 7.07-5.07 11.18-6.67-1.06-1.57-2.36-3.12-2.53-5.08-.63-5.04-2.83-9.64-4.98-14.17.48-2.3 1.35-4.59 1.18-6.98-.56-1.8-2.3-2.89-3.39-4.36-4.56 1.58-9.35 3-14.2 3.08-6.4-1.32-13.57-.16-18.95-4.6.17.53.51 1.6.69 2.13-2.44.89-3.46 3.33-4.92 5.26.66-3.01 2.59-5.44 3.88-8.16-.88-3.79.42-7.92-1.54-11.45-.84-1.8-1.66-3.61-2.19-5.52.65-.16 1.95-.46 2.6-.62l-.6-1.22c1.84.37 3.72.51 5.41-.51.76.83 1.52 1.68 2.27 2.52-2.55-.08-5.18.02-7.53 1.12 2.87 4.5 2.56 9.86 3 14.94 1.97 1.44 4.23 2.77 6.74 2.77 4.06-.03 8.03.85 12.03 1.39-.43-.51-1.27-1.55-1.7-2.06-2.62-1.57-4.87-4.59-3.35-7.7-.11-.78-.13-1.56-.06-2.35.62.72 1.88 2.15 2.5 2.86-.72.46-1.44.93-2.16 1.39 1.46 2 3.12 3.85 5.11 5.34.5.79 1.02 1.58 1.56 2.35 4-1.11 8.18-1.69 11.85-3.75-.27-4.45-.87-8.87-1.41-13.29-.31.59-.93 1.79-1.24 2.38-3.81-2.08-6.97 2.1-10.93 1.44-2.5 1.88-5.58.83-6.6-2.06 1.18.53 2.34 1.09 3.5 1.65 2.48-2.19 5.8-1.32 8.66-2.21 1.46-2.29.87-5.12 1.04-7.68.98 2.23 1.92 4.49 2.23 6.92 1.07-.13 2.14-.26 3.21-.41 1.22-2.29 2.52-4.55 3.39-7.01l-.59-.58c-3.31-2.07-7.61-2.38-11.13-.66-3.03 1.33-6.42 2.48-8.37 5.33-2.52-.64-5.08-1.78-5.68-4.58 1.78.88 3.54 1.83 5.34 2.69 1.26-1.39 2.64-2.67 4.46-3.25 1.71-1.8 4.39-1.58 6.31-2.94.3-1.96-.61-3.5-2.02-4.73 1.64-.77 3.07-2.2 4.91-2.45 1.09.54 2.11 1.23 3.16 1.86-2.33-.03-4.65.05-6.97.18.99 1.62 1.85 3.32 2.48 5.11 2.58-.28 4.95.69 7.37 1.29 1.34-1.29.39-3.13.13-4.66-.61-2.39-.92-4.83-1.34-7.24-3.33.81-9.78 3.5-10.71-1.75 2.7 1.35 5.64 2.2 8.49.62.69.32 2.08.96 2.77 1.28.63-1.74 1.25-3.48 1.83-5.23.29-.15.88-.46 1.17-.61.08.63.25 1.91.33 2.55.67.33 2.02 1 2.69 1.33-.16.38-.48 1.14-.65 1.52-1.24-.4-2.47-.9-3.78-1.06-1.09 6.32 3.84 12.7.48 18.7-2.48 5.31-1.47 11.36-1.04 16.99-.18 2.45 1.39 4.24 3.19 5.64.58 2.78-.19 5.49-1.07 8.11 1.88 4.9 4.37 9.65 5.16 14.88.42 2.4 2.2 4.21 3.27 6.32-1.1.58-2.2 1.16-3.29 1.74.56 3.19.99 6.42 1.18 9.66-.6.71-1.2 1.43-1.79 2.15-.09-3.9-.16-7.81-.23-11.71-4.93 4.49-11.83 7.53-18.54 5.58.17 4 3.72 6.57 5.38 9.98 2.3 3.01 1.11 7.03 2.56 10.32 1.2 3.26 4.24 6.49 1.99 10.04-.48-1-1.43-3-1.91-3.99-1.1 5.33-.28 10.73.78 15.98.98 3.13 3.18 5.84 3.44 9.19.34 4.05.6 8.19-.12 12.21-1.41 4.4-1.61 9.06-1.35 13.64 3.3 1.31 6.77.45 10.18.3 3.6-.26 6.39 2.66 9.93 2.78 1.9.18 3.78.71 5.7.64 2.11-.7 3.98-1.93 5.93-2.97-1.69-4.55-7.38-2.84-10.32-5.99-3.59-3.59-6.63-7.71-10.53-11.03-.38-4.29-2.44-8.4-1.77-12.77.71-5.67-.26-11.32-1.24-16.89.33-5.02.44-10.1 1.6-15.03.48-2.16-.87-4.13-1.46-6.12-1.59 2.18-2.97 5.04-5.97 5.43-2.83-.83-3.15-4.2-3.82-6.59 1.35 1.86 2.25 4.68 4.86 5 2.29-.97 2.44-3.95 3.18-6.01 1.18-.46 2.36-.93 3.54-1.4-1.03 2.61.64 4.85 1.44 7.21.96 3.21-1.33 6.22-1.08 9.42.13 1.69.08 3.37-.13 5.05-.42 3.69 1.5 7.14 1.41 10.83.12 7.32-.32 14.74 1.6 21.89 5.72 3 8.07 10.97 15.16 11.41 2.88.03 4.16 2.93 5.75 4.85-3.28 5.5-10.42 5.95-16.11 5.12-2.5-1.2-4.86-3.18-7.78-3-3.63-.26-7.8 1.25-10.96-1.18-1.87-.92-1.25-3.28-1.44-4.95-.18-4.81 2.27-9.23 2.31-14.02.11-3.75.08-7.66-1.55-11.13-1.26-3.04-3.36-5.8-3.9-9.09.04-4.65.25-9.32 1.28-13.87.5-1.91-.93-3.5-1.58-5.17-1.47-2.64-1.03-5.76-1.57-8.63-2.32-2.92-4.29-6.07-5.67-9.56-1.01 4.16.77 8.55-.93 12.63-2.61 6.51-2.77 14.49-8.42 19.37-3.46 3.07-9.12 4.15-13.15 1.54-.75.22-1.51.45-2.26.67-3.29-1.95-6.84-3.28-10.57-4.09-7.22-1.82-12.39-7.84-19.57-9.73-3.05-1.16-6.31-1.52-9.51-.79-.05-.4-.13-1.22-.17-1.62 6.08-.87 12.18.9 17.64 3.49 3.04 1.27 5.55 3.53 8.68 4.59 5.41 2.21 11.4 2.6 16.67 5.16 1.56.68 3.09 1.48 4.73 1.96 2.7-.31 5.37-1.78 6.78-4.15 5.29-8.05 8.35-17.51 8.61-27.14-2.17.81-4.46 1.26-6.78 1.21-1.6 5.62-6.29 12.88-13.09 10.87-1.25 2.76-.23 7.03-3.13 8.65.1-1.77.28-3.53.49-5.29-7.61-6.71-18.73-4.59-26.95-9.98-2.26-2.41-3.78-5.47-6.35-7.62-2.24-1.33-5.58-2.09-7.7-.13-2.92 1.9-3.06 5.66-3.66 8.73-.53 4.01-2.12 7.8-4.24 11.21 1.84-.5 3.68-.98 5.57-1.27-2.15 3.68-7.18 2.83-10.33 5.27-6.42 4.54-11.91 10.46-15.86 17.27-2.79 5.08-3.15 11.01-3.79 16.65.09 4.83-.48 9.98 1.81 14.43 2.89 7.81 10.07 13.12 17.49 16.27 10.65 3.8 22.11 2.44 33.1 1.34 6.18-1.89 13.03-1.71 18.59-5.38 7.58-4.12 13.72-11.1 15.79-19.58 1.9-9.29 2.3-19.57-2.82-27.95.56.21 1.68.64 2.24.85 2.52 4.68 4.43 9.91 4.37 15.28-.74 6.38-1.73 12.87-4.11 18.87-3.73 9.64-13.59 15.14-23.08 17.77-4.38.68-8.79 1.89-13.24 1.41-7.28 3.76-15.67 3.75-23.64 3.15-7.59-.45-14.17-4.95-19.62-9.91-4.47-3.71-6.53-9.43-8.13-14.83-.84-9.24-.38-18.81 2.76-27.62 3.83-9.72 11.89-17.33 21.22-21.78 1.31-3.43 3.51-6.58 3.72-10.34.76-4.01.98-8.76 4.57-11.38 2.94-2.83 7.3-1.17 10.4.47 2.95 2.62 5.18 6.02 8.37 8.39 1.42 1.05 3.03.53 4.46-.11-6.02-2.95-8.25-10.18-7.29-16.44.85-5.77 3.22-12.24 8.97-14.73-2.1-6.55-1.86-13.64-.37-20.29 1.3-5.37-3.78-9.57-3.61-14.86.11-5.18 1.08-10.34 2.8-15.23-.21-3.33-.87-6.8.52-9.99.86-3.15 3.93-4.71 6.21-6.7 2.34-2.28 6.2-2.23 7.98-5.15m11.3 78.65c-2.14 1.38-4.52 2.56-6.12 4.6-3.26 4.08-4.2 9.57-3.91 14.66.47 4.01 1.78 8.7 5.69 10.65 3.74 1.33 7.24-1.53 9.18-4.48 3.12-4.69 3.02-10.62 2.48-16-.55-4.27-3.65-7.51-7.32-9.43z"/><path d="M105.09 74.52c2.49 2.55 4.76 6.73 2.35 10.07-1.26 3.99-6.2 3.47-8.76 6.15-4.92 4.51-13.18.66-14.88-5.16 3.82 1.7 6.77 6.85 11.55 4.84 3.35-1.69 6.4-3.95 10.06-5.06 2.58-3.38.08-7.22-.32-10.84zM81.84 77.62l1.87-.12c-.79 2.4-.75 5.78-3.61 6.72.35-2.26 1.02-4.44 1.74-6.6zM99.63 96.08c3.45-1.75 3.85-7.3 8.29-7.16-1.96 2.41-3.43 5.37-6.14 7.04-.69.61-1.37 1.23-2.04 1.85-.03-.43-.08-1.3-.11-1.73zM72.44 91.94c1.54-.41 3.09-.8 4.65-1.12-1.47 1.56-3.09 2.97-4.68 4.41 0-.82.02-2.47.03-3.29zM77.99 92.89c.95-.47 1.99-.84 2.41.48 2.16 3.51.91 7.76.61 11.58.34.42 1 1.27 1.33 1.69-1.17 2.37-1.38 5.05-2.24 7.54-.33 1.42-1.3 2.85-.7 4.34 2.12 6.26 3.18 13.26.94 19.63-1.57 4.27.5 8.62 1.12 12.85-3.24-2.81-3.83-7.83-3.26-11.85 2.45-6.42 2.45-13.77-.25-20.13-.74 1.17-1.5 2.34-2.27 3.49.07-4.24 3.05-7.6 3.78-11.66.25-3.67-.34-7.36.31-11.01.7-2.54-.89-4.72-1.78-6.95zM84.3 95.06c.87-1.45 2.39-1.92 3.78-.9-.77.18-2.3.53-3.07.71.28 3.62 4.3 2.92 6.62 1.83 1.03 4.77-10.01 2.72-7.33-1.64zM64.48 101.24l1.48-.2c1.36 2.3 1.58 4.92.65 7.43-1.86-1.92-1.43-4.83-2.13-7.23zM94.46 105.74c2.05-.07 4.1-.24 6.15-.4-1.14 2.42-3.59 2.76-5.94 2.07-.05-.42-.16-1.25-.21-1.67zM93.92 112.17c-2.33-1.08-6.22-2.07-5.09-5.38 2.19 1.66 4.6 2.96 7.14 4.01-.52.34-1.54 1.03-2.05 1.37zM124.34 109.61c2.75 2.85 3.46 7.04 6.35 9.76 3.26 3.42 6.19 7.59 6.1 12.53.61 3.87-1.68 7.3-1.89 11.07.48 2.39 1.65 4.56 2.69 6.74 1.36 1.13 3.1 1.68 4.62 2.56-2.05 2.92-4.63-.51-6.63-1.73a35.148 35.148 0 01-2.74-7.44c-.57-4.29 3.59-7.88 2.09-12.2-.56-5.26-4.29-9.34-7.86-12.91-.97-2.77-2.07-5.51-2.73-8.38zM114.86 113.26c-.86 1.66-1.92 3.2-3.25 4.52-.45-2.4 1.25-3.71 3.25-4.52zM89.7 125.29c4.79.9 9.37 3.17 14.36 2.71 5.43.32 10.46-2.09 15.75-2.89-6.03 4.93-14.89 5.59-22.29 4.04-.36 5.84-6.53 8.17-11.27 9.7 3.01-3.8 9.01-4.79 10.01-10.23-1.88-.58-3.76-1.16-5.63-1.77-1.19 2.45-1.94 5.07-2.57 7.72-1.83-3.13.46-6.38 1.64-9.28z"/><path d="M124.93 132.35c.18-2.9 2.67-4.5 5.15-5.33-.86 2.45-3.13 3.89-5.15 5.33zM82.63 130.27c1.11 1.52 1.55 3.37 1.61 5.23.09 4.39.67 9.15-2 12.96.18-6.06.57-12.12.39-18.19zM113.4 132.96c2.02.08 5.02-1.37 6.09 1.25-1.73-.34-6.23 1.73-6.09-1.25zM109.68 133.69c-.21-2.98 1.41.73 2.09 1.3-4.61.86-9.08 2.29-13.69 3.13 2.98-3.15 7.64-3.41 11.6-4.43zM108.99 138.03c3.38-1.52 6.86-3.06 10.63-3.18-2.6 1.99-5.82 2.79-8.78 4.05-2.89 1.09-5.46 2.85-8.3 4.03 1.34-2.51 4.02-3.71 6.45-4.9zM95.75 144.92c8.51-1.68 17.31-1.49 25.67-3.99-3.12 4.13-8.8 3.38-13.35 4-4.1-.31-8.59 2.54-12.32-.01zM77.48 150.06c-1.65-2.62-2.42-5.68-1.25-8.66.71 2.84 1.11 5.74 1.25 8.66zM71.46 149.95c-1.35-.31-1.56-2.91-.08-3.14 1.4.26 1.63 2.96.08 3.14zM51.11 175.29c3.88 1.46 7.92 2.83 11.23 5.38.04.24.13.7.17.93-4.33-.9-7.95-3.68-11.4-6.31zM64.71 182.82c5.11 2.02 10.03 4.67 15.68 4.9.1.48.3 1.45.39 1.94-5.95-.15-12.15-2.14-16.07-6.84zM122.63 226.38c.47.03 1.4.07 1.87.1-.23.74-.46 1.49-.68 2.24.47 1.7.9 3.41 1.17 5.15-2.24-1.9-2.67-4.72-2.36-7.49z"/></g></svg>