<svg width="184pt" height="275pt" viewBox="0 0 184 275" xmlns="http://www.w3.org/2000/svg"><g fill="#FFF"><path d="M0 0h184v275H0V0m86.48 78.47c-2.22 3.86-.86 8.4-.48 12.55-.08 2.02 1.66 3.28 2.91 4.58-.05 2.06-.14 4.11-.24 6.17.27-.01.82-.02 1.09-.03-.02-1.83-.24-3.77 1.04-5.26 1.52 2.86 2.88 6.21 5.88 7.83 2.91 1.91 6.41 2.54 9.84 2.46.32 2.05.88 4.09.94 6.18-1 .65-2.03 1.27-3.07 1.85-2.45-1.17-5.1-1.75-7.8-1.95.57-3.75-2.22-6.57-4.61-9.02 1.48 2.92 2.81 5.92 3.83 9.04-2.72.76-5.5 1.29-8.22 2.03 3.66 1.89 7.59-1.02 11.4.1 2.26.12 5.22 2.32 7 .07 2.84-4.02 8.21-4.74 12.69-3.57l-.52-1.73c-3.57-1.17-7.17-.21-10.51 1.21.13-1.05.37-3.14.5-4.18 3.04 1.13 6.32 1.69 9.5.7-2.73-1.19-5.74-1.31-8.62-1.86 1.74-3.97 2.27-8.29 2.86-12.54.76-4.48-1.42-8.67-1.84-13.07-.34-4.04-4.23-6.97-8.12-7.2-5.54-1.26-12.63.22-15.45 5.64m-8.45 33.6c-3.9 1.86-7.86 3.85-10.92 7-2.89 3.72-2.42 8.6-2.23 13-1.45 5.87-3.54 11.84-2.8 18 .88 3.43 3.25 6.33 3.86 9.86.23 2.37-.54 4.68-.83 7.02-.75 5.79-.5 11.76 1.14 17.39-5.84 2.34-8.3 8.75-9.09 14.54-.7 5.73.18 12.31 4.57 16.45 2.05 2.11 6.05 2.85 7.89.11-2.7-.36-6.04.17-7.82-2.42-4.3-5.27-3.9-12.97-1.93-19.11 1.05-3.8 4.25-6.17 7.03-8.68 1.19 5.27-.83 10.81 1.21 15.91 1.51 3.9-.09 8.91 3.74 11.74 2.58.49 5.13 1.11 7.73 1.52-1.23-3.16-4.93-3.03-7.72-3.76-1.09-3.15-.98-6.55-2.02-9.72-1.59-4.2-.2-8.76-1.17-13.07-.92-4.59-2.5-9.09-2.56-13.82-.28-6.1 1.57-11.99 2.53-17.95-.46.44-1.38 1.33-1.84 1.78-1.03-3.95-3.29-7.7-2.88-11.92.29-3.63 1-7.22 1.32-10.85.82.76 1.65 1.51 2.48 2.25-.37-3.75-1.34-7.44-1.37-11.21.38-5.71 5.72-9.23 10.52-11.23 2.32-.79 3.33-3.16 4.92-4.82 2.05-2.48 5.59-3.69 6.53-7.01-4.2 2.02-7.47 5.36-10.29 9m39.83-5.73c2.23 2.27 5.67 2.72 8.19 4.6 2.43 3.11 4.04 7 3.65 11.02-.48 4.97 3.36 9.09 3.15 14.06-.3 3.82 2.49 6.75 4.79 9.43 3.26 3.66 3.38 8.79 5.01 13.2 1.54 4.28 3.26 8.59 3.36 13.21-3.65-.23-7.39-.01-10.98-.81-3.96-4.65-6.57-10.17-9.77-15.32 1.35 5.72 3.36 12.04 8.95 14.97-1.64.42-3.29.81-4.94 1.18-.79-.91-1.59-1.81-2.4-2.69-1.22-1.26-2.56-2.38-3.91-3.47-.11-3.56-.41-7.13-.12-10.69.3-3.51 2.68-6.42 3.12-9.9-.33-2.61-1.01-5.15-1.59-7.71-.61-2.83.04-5.73-.18-8.59-4.37 3.84-.82 9.46-.23 14.08.94 4.39-2.22 7.85-3.87 11.59-.86-.06-2.59-.17-3.46-.22.02-.79.06-2.38.09-3.17-.7-1.01-1.39-2.01-2.05-3.03.06 2.55.26 5.24-1.09 7.53-2.85.53-5.97-.11-8.43 1.78-1.41-.42-2.82-.84-4.24-1.2 1.37 1.26 2.77 3.58 4.96 2.66 3.44-.99 7.21-1.07 10.16-3.33.82.32 1.65.66 2.47 1 .59-.33 1.78-.97 2.37-1.29.02 4.2.47 8.37.9 12.55-4.11 2.27-8.8 2.8-13.26 3.96.12-.59.34-1.77.46-2.36-2.72-1.46-4.41-4.09-6.5-6.25-1.21 2.39 1.56 4.11 2.49 6.09.77.52 2.56 1.22 1.29 2.27-4.53-.94-9.16-1.14-13.74-1.69-.34.11-1 .33-1.34.43 1.76 2.59 5.96 2.15 8.87 2.57 8.25 1.52 17.78.79 24.45-4.76.01.65.02 1.95.02 2.6l1.08-.66c.25.66.73 1.98.98 2.64-1.76 1.39-3.41 2.93-4.73 4.75 1.25-.54 2.49-1.12 3.56-1.96 3.48-2.96 8.38-2.04 12.59-2.41-2.24 2.12-4.19 4.65-4.88 7.73-1.74 3.62-4.1 7.21-4.2 11.36.35 2.91 2.19 5.41 4.16 7.47 1.91-.01 3.77.43 5.52 1.17-3.61.44-6.96-1.59-10.58-1.19-4.99-.31-10.22-.29-14.89-2.26 4.95-3.12 8.17-8.23 13.21-11.2l-2.83.36c-3.76 4.03-8.78 6.78-11.66 11.62.51.65 1.03 1.3 1.54 1.97-2.23 2.88-2.67 6.54-2.66 10.06-3.4 3.05-7.57 5.18-12.12 5.81 2.2-5.43 1.64-11.31 1.62-17.02-1.14-1.86-2.07-3.85-3.42-5.57-1.48-2.02-4.13-2.29-6.34-3.03-1.07.41-2.16.59-3.27.55.18-3.94.12-7.88-.11-11.81-.37-2.48 1.42-4.47 3.12-5.99-.26-1.02-.61-2.01-1.04-2.96-1.73 2.76-4.01 5.48-4.08 8.91-.06 3.94.68 7.87.18 11.81.16.46.47 1.39.62 1.85-.52.69-1.58 2.07-2.1 2.76-3.36-3.07-3.85-8.24-2.67-12.41 1.96-5.83 1.59-12.27-.27-18.07-1.99-4.52 1.54-8.92 1.63-13.5 1.43 1.76 2.83 3.59 3.67 5.72 1.73 3.58-.03 7.78 1.4 11.42.63.84 3.14 2.21 2.46-.02-2.21-2.29-1.39-5.66-1.78-8.51.08-3.05-1.46-5.74-2.69-8.41 2.52-1.17 5.38-.41 8.05-.36-.9-1.03-1.81-2.04-2.72-3.05-.48.41-1.44 1.23-1.92 1.63-.97-.34-2.9-1.03-3.87-1.37l.4 2.31c-.88-.42-2.62-1.26-3.49-1.68-.01-3.9 1.28-8.11-.6-11.76-.13-1.06-2.62-2.07-2.4-.32.5 1.96 1.99 3.73 1.56 5.84-.56 3.35-.45 6.72-.32 10.09.18 4.81-3.1 8.72-4.14 13.26.98-.9 1.92-1.83 2.87-2.76 1.54 4.62 2.01 9.55 1.57 14.39-.56 2.73-1.53 5.37-1.86 8.15-.75.55-1.51 1.09-2.29 1.6-.4 2.67.23 5.25 1.88 7.38-.11-2.46-.4-4.91-.69-7.35.35.08 1.05.24 1.4.31.13 2.78 1.18 5.37 1.82 8.04.51-.1 1.52-.31 2.03-.41-4.2 8.62-5.36 21.21 2.94 27.81l-.36 4.59c-3.57-2-7.24-4.03-11.3-4.79-3.19-.5-6.67.17-9.59-1.48-2.76-1.67-5.14-3.87-7.71-5.82-2.78.71-6.51 1.05-7.68 4.17-2.57 5.96-.1 12.65-1.76 18.81-1 4.08-1.08 9.22 2.28 12.25 4.44 1.99 9.35 3.68 14.29 2.93 1.38-.63 2.38-1.84 3.51-2.81-1.26-1.92-2.51-3.84-3.85-5.69-.82-3.66-1.25-7.43-.05-11.06 7.91 7.52 17.68 12.51 27.15 17.72 4.13 1.61 8.81-.63 11.51-3.87 5.46-4.8 4.88-12.67 5.07-19.26-.12-5.53 2.62-10.59 2.56-16.1 1.18-1.46 2.65-2.74 3.51-4.42.06-2.87-.24-5.94 1.85-8.24 6.56 1.23 13.29.83 19.82 2.29 3.33.96 6.35-1.03 8.79-3.03 3.46.57 6.87 1.37 10.31 2.09-1.49 3.75-3.41 7.37-4.27 11.34-.65 3.85.23 7.83-.79 11.64-1.07 4.02-1.75 8.12-2.41 12.22-1.04 2.4-3.06 4.23-4.33 6.51-2.35 3.51-3.43 7.62-4.41 11.67 2.11 4.55 7.95 4.07 12.16 4.19 3.64.11 5.52 3.71 8.49 5.26 3.17 2.02 7.1 1.48 10.57 2.63 2.53 1.1 5.45-.32 6.46-2.81.43.29 1.29.87 1.71 1.16.13-2.23.35-4.79-1.12-6.66-2.12-1.59-5.14-1.98-6.63-4.37-2.78-4.25-6.58-7.8-8.44-12.61.15-9.41 8.03-16.45 8-25.84-.12-6.31 4.43-11.81 3.22-18.19 3.48-6.31 1.22-16.42-6.22-18.68-3.8-1.41-6.94-4.4-11.06-4.99-2.21-.38-4.7-.04-6.61-1.45-1.73-3.33-1.61-7.24-2.71-10.79-1.38-4.77-2.06-9.78-4.18-14.31-1.72-3.94-6.63-5.99-6.8-10.68-.4-4.17-2.18-7.97-3.46-11.9-.36-4.06.25-8.46-2.11-12.06-1.81-4.36-6.82-6.56-11.3-6.59m-36.53 14.21c-.31 1.3-.6 2.61-.58 3.95 1.03-1.3 2.04-2.62 3.02-3.95h-2.44m25.74.34c.23 3.92 2.77 7.87.47 11.63-2.48 1.29-5.56 1.36-7.58 3.47-2.46 2.38-6.88 2.97-9.42.41-2.77-2.54-5.84-4.71-9.2-6.4.18.84.36 1.67.55 2.51 4.35 1.49 6.75 5.96 11.11 7.37 3.01.67 6.09-.59 8.25-2.68 2.25-2.44 7.16-1.53 7.77-5.46.81.1 1.61.21 2.42.34 3.04 2.62 7.68 1.39 10.43-1.06-3.57.17-7.99 2.31-10.64-1.25-1.37-2.96-1.9-6.37-4.16-8.88m21.95 11.66c-.12 4.22 2.34 7.91 2.72 12.03-.15 3-.83 5.98-.58 9 4.11-6.77.85-14.56-2.14-21.03m-55.43 3.11c-.26 1.22-.47 2.45-.62 3.69 1.78-1.61 3.65-3.2 4.8-5.35-1.42.49-2.87.92-4.18 1.66m39.97 2.13c-.52-.06-1.56-.17-2.08-.23.99 1.34 2.45 2.65 2.46 4.43.24 2.48-2.76 1.95-4.35 2.57-1.34 1.11-2.83 2.03-4.46 2.65-.75.75-1.5 1.49-2.25 2.25-1.88-.92-3.7-1.95-5.57-2.87.67 2.42 2.7 3.65 5.05 4.03.27.22.82.67 1.1.89.65-.94 1.32-1.86 2-2.79 2.52-1.01 4.87-2.47 7.55-3.06.39-.3 1.15-.92 1.53-1.23 2.96.43 5.92.9 8.89 1.3-2.1-2.53-5.23-3.14-8.38-2.96-.14-1.86-.31-3.72-.24-5.58 1.73.03 3.45.23 5.17.4-1.27-.92-2.51-1.89-3.89-2.63-.89.89-1.74 1.84-2.53 2.83m-10.14 4.07c-1.33.7-2.18 1.88-2.71 3.24 1.71-.91 3.34-1.98 4.95-3.06.97-2.13 2.64-3.79 4.3-5.39-3.5-1.3-4.8 3.12-6.54 5.21m-18.28.79c.15.71.44 2.12.59 2.83 2.56 1.76 5.54 1.64 8.42.8-.44-.72-.87-1.43-1.31-2.14-.96.36-1.93.73-2.89 1.1-.74-.15-2.22-.44-2.96-.59.03-.5.11-1.5.14-2.01.59-.51 1.77-1.55 2.35-2.07-1.56.45-2.97 1.24-4.34 2.08m-19.92 1.66c.4 3 .67 6.07 1.86 8.89 1.1-3.16 1.44-6.95-1.86-8.89m30.21 9.2c1.22 1.8 3.38 1.84 5.33 1.79.34-.62 1-1.86 1.33-2.48-2.22.24-4.44.44-6.66.69m-5.6 1.32c.11 3.29 3.83 3.92 6.13 5.23.34-.46 1.02-1.38 1.36-1.83-2.57-.96-4.76-2.98-7.49-3.4m14.93 7.76c.51-1.16-.56-2.83-1.83-2.87-2.08.75.29 3.91 1.83 2.87m8.28 1.66c.41.23 1.24.69 1.65.91.66-1.34 1.32-2.67 1.92-4.04-1.31.9-2.5 1.96-3.57 3.13m-14.44 9.92c-1.78 2.95-3.94 5.67-6.97 7.41 1.84-.45 3.77-.78 5.41-1.78 1.6-1.37 2.41-3.41 3.59-5.11l-2.03-.52m-.03 11.18c1.86.02 3.74.13 5.56-.27 5.05-1.2 10.29-1.4 15.27-2.91-5.24 2.93-10.8 5.39-15.59 9.06 6.07-1.32 10.98-5.3 16.62-7.65 1.6-1.27 3.34-2.36 4.95-3.62-2.11-.01-4.24.06-6.31.48-6.88 1.4-14.07 1.9-20.5 4.91m21.12 8.44c2.34-.2 4.55-1.06 6.5-2.36-2.44-.12-4.76.6-6.5 2.36m-48.16-1.68c-.73.97-.85 3.11.49 3.6 2.09-.2 1.68-4.81-.49-3.6z"/><path d="M89.66 77.67c3.74-3.84 9.51-3.47 14.44-3.38 1.99 1.85 4.42 3.74 4.76 6.64.64 4.64 2.45 9.28 1.31 14-.77 3.6-.46 9.23-5.11 10.02-2.61-.69-5.08-1.81-7.56-2.84-2.52-1-3.38-3.79-4.57-5.97-1.67-1.03-3.41-2.05-4.74-3.53-.1-1.77.77-3.43 1.08-5.14-.61.27-1.82.81-2.43 1.08-.08-3.75-.14-8.08 2.82-10.88zM135.23 180.26c1.14-2.89 3.44-5.55 6.5-6.43 6.2.26 12.52 1.31 18.04 4.29 3.68 2.26 8.82 2.95 10.58 7.46 3.2 4.5-.07 9.66.1 14.53-.02 3.45-1.3 6.69-2.16 9.98-1.45 6.06-1.97 12.52-5.08 18.04-2.26 4.27-3.56 9.08-3.39 13.93 1.18 5.25 5.6 8.76 7.86 13.48 1.35 2.9 4.58 3.79 7.42 4.51.35 1.19.68 2.38 1 3.59-5.33 1.89-10.77.51-16.09-.65-2.37-1.16-3.7-3.87-6.34-4.64-4.41-2.05-9.46-.75-13.93-2.51-.09-6.45 4.71-11.23 7.56-16.57 2.95-6.72 3.78-14.13 4.33-21.38.83-6.02 4.17-11.28 5.52-17.17-4.68-1.32-9.33-3.09-14.23-3.26-3.22.09-6.53 1.72-9.69.39-1.63-1.42-2.17-3.79-2.66-5.82.59-4.24 3.12-7.84 4.66-11.77m32.03 3.64c-1.24 2.31-2.11 5.59-5.24 5.88-4.24 1.14-5.97-4.09-9.79-4.93 1.44 1.85 2.67 3.92 4.53 5.41 2.01 1.49 4.66 1.33 6.99 1.97l2.16 2.16c-.31-1.03-.61-2.06-.89-3.09.5-.35 1.51-1.04 2.02-1.39.19-2 .77-4.03.22-6.01m-30.43 1.47c5.4 3.06 10.41 7.15 16.45 8.85-1.59-1.3-3.35-2.38-5.11-3.44-3.62-2.1-6.99-5.02-11.34-5.41m28.58 9.61c-.87 1.79 2.64 3.77 3.5 1.93-.36-1.26-2.24-2.59-3.5-1.93m-6.08 20.29c2.04 6.46-3.41 11.83-5.15 17.65 4.1-4.6 7.79-10.16 8.15-16.49-1-.39-2-.77-3-1.16zM82.44 216.45c-3.55-9.06-.63-21.89 9.45-25.26 2.42 1.82 5.5 3.61 5.91 6.93.85 5.13 2.01 10.62.03 15.64-1.23 3.71-3.85 7.37-7.85 8.3-3.54.54-6.16-2.77-7.54-5.61z"/><path d="M100.56 216.69c2.96.33 5.63-1.11 8.08-2.57-.93 4.62-2.87 9.08-2.73 13.87.16 5.45-.68 10.93-2.88 15.94-1.24 4.15-5.79 6.76-9.92 6.92-8.62-3.8-16.87-8.67-23.79-15.13-3.54-3.53-9.12-5.41-13.64-2.55 1.64.39 3.57.04 5 1.04.22 4.98-.95 10.63 2.79 14.69.14.58.43 1.74.57 2.33-4.95.86-9.65-.82-14.37-2.03-.47-2.06-1.48-4.04-1.48-6.18.54-3.7 1.97-7.3 1.64-11.09.08-3.44-.45-7.08.73-10.36 1.82-1.87 5.01-3.49 7.4-1.66 3.87 2.59 8.12 5.07 12.94 4.99 5.47.11 10.22 3.03 14.6 6 .1 2.15.29 4.32-.1 6.46-5.27-.18-10.42-2.5-14.58-5.75-.11.11-.34.31-.45.42 2.93 4.33 7.64 6.63 12.4 8.38.23.39.69 1.18.93 1.57-.16-.51-.46-1.54-.61-2.05.8-.56 2.41-1.68 3.21-2.24.4 1.45.8 2.9 1.19 4.36-.63-3.38.51-6.76-.03-10.15-.27-2.78-.23-5.58-.09-8.36.34.21 1.02.63 1.36.85.22.3.65.92.87 1.22.12-.29.37-.86.5-1.15 3.75-1.52 6.55-4.52 8.27-8.13l2.19.36m-10.66 9.93c-.2 4.37.17 8.75.83 13.07 2.59-3.92.4-9-.83-13.07z"/></g><g fill="#333"><path d="M86.48 78.47c2.82-5.42 9.91-6.9 15.45-5.64 3.89.23 7.78 3.16 8.12 7.2.42 4.4 2.6 8.59 1.84 13.07-.59 4.25-1.12 8.57-2.86 12.54 2.88.55 5.89.67 8.62 1.86-3.18.99-6.46.43-9.5-.7-.13 1.04-.37 3.13-.5 4.18 3.34-1.42 6.94-2.38 10.51-1.21l.52 1.73c-4.48-1.17-9.85-.45-12.69 3.57-1.78 2.25-4.74.05-7-.07-3.81-1.12-7.74 1.79-11.4-.1 2.72-.74 5.5-1.27 8.22-2.03-1.02-3.12-2.35-6.12-3.83-9.04 2.39 2.45 5.18 5.27 4.61 9.02 2.7.2 5.35.78 7.8 1.95 1.04-.58 2.07-1.2 3.07-1.85-.06-2.09-.62-4.13-.94-6.18-3.43.08-6.93-.55-9.84-2.46-3-1.62-4.36-4.97-5.88-7.83-1.28 1.49-1.06 3.43-1.04 5.26-.27.01-.82.02-1.09.03.1-2.06.19-4.11.24-6.17-1.25-1.3-2.99-2.56-2.91-4.58-.38-4.15-1.74-8.69.48-12.55m3.18-.8c-2.96 2.8-2.9 7.13-2.82 10.88.61-.27 1.82-.81 2.43-1.08-.31 1.71-1.18 3.37-1.08 5.14 1.33 1.48 3.07 2.5 4.74 3.53 1.19 2.18 2.05 4.97 4.57 5.97 2.48 1.03 4.95 2.15 7.56 2.84 4.65-.79 4.34-6.42 5.11-10.02 1.14-4.72-.67-9.36-1.31-14-.34-2.9-2.77-4.79-4.76-6.64-4.93-.09-10.7-.46-14.44 3.38z"/><path d="M78.03 112.07c2.82-3.64 6.09-6.98 10.29-9-.94 3.32-4.48 4.53-6.53 7.01-1.59 1.66-2.6 4.03-4.92 4.82-4.8 2-10.14 5.52-10.52 11.23.03 3.77 1 7.46 1.37 11.21-.83-.74-1.66-1.49-2.48-2.25-.32 3.63-1.03 7.22-1.32 10.85-.41 4.22 1.85 7.97 2.88 11.92.46-.45 1.38-1.34 1.84-1.78-.96 5.96-2.81 11.85-2.53 17.95.06 4.73 1.64 9.23 2.56 13.82.97 4.31-.42 8.87 1.17 13.07 1.04 3.17.93 6.57 2.02 9.72 2.79.73 6.49.6 7.72 3.76-2.6-.41-5.15-1.03-7.73-1.52-3.83-2.83-2.23-7.84-3.74-11.74-2.04-5.1-.02-10.64-1.21-15.91-2.78 2.51-5.98 4.88-7.03 8.68-1.97 6.14-2.37 13.84 1.93 19.11 1.78 2.59 5.12 2.06 7.82 2.42-1.84 2.74-5.84 2-7.89-.11-4.39-4.14-5.27-10.72-4.57-16.45.79-5.79 3.25-12.2 9.09-14.54-1.64-5.63-1.89-11.6-1.14-17.39.29-2.34 1.06-4.65.83-7.02-.61-3.53-2.98-6.43-3.86-9.86-.74-6.16 1.35-12.13 2.8-18-.19-4.4-.66-9.28 2.23-13 3.06-3.15 7.02-5.14 10.92-7z"/><path d="M117.86 106.34c4.48.03 9.49 2.23 11.3 6.59 2.36 3.6 1.75 8 2.11 12.06 1.28 3.93 3.06 7.73 3.46 11.9.17 4.69 5.08 6.74 6.8 10.68 2.12 4.53 2.8 9.54 4.18 14.31 1.1 3.55.98 7.46 2.71 10.79 1.91 1.41 4.4 1.07 6.61 1.45 4.12.59 7.26 3.58 11.06 4.99 7.44 2.26 9.7 12.37 6.22 18.68 1.21 6.38-3.34 11.88-3.22 18.19.03 9.39-7.85 16.43-8 25.84 1.86 4.81 5.66 8.36 8.44 12.61 1.49 2.39 4.51 2.78 6.63 4.37 1.47 1.87 1.25 4.43 1.12 6.66-.42-.29-1.28-.87-1.71-1.16-1.01 2.49-3.93 3.91-6.46 2.81-3.47-1.15-7.4-.61-10.57-2.63-2.97-1.55-4.85-5.15-8.49-5.26-4.21-.12-10.05.36-12.16-4.19.98-4.05 2.06-8.16 4.41-11.67 1.27-2.28 3.29-4.11 4.33-6.51.66-4.1 1.34-8.2 2.41-12.22 1.02-3.81.14-7.79.79-11.64.86-3.97 2.78-7.59 4.27-11.34-3.44-.72-6.85-1.52-10.31-2.09-2.44 2-5.46 3.99-8.79 3.03-6.53-1.46-13.26-1.06-19.82-2.29-2.09 2.3-1.79 5.37-1.85 8.24-.86 1.68-2.33 2.96-3.51 4.42.06 5.51-2.68 10.57-2.56 16.1-.19 6.59.39 14.46-5.07 19.26-2.7 3.24-7.38 5.48-11.51 3.87-9.47-5.21-19.24-10.2-27.15-17.72-1.2 3.63-.77 7.4.05 11.06 1.34 1.85 2.59 3.77 3.85 5.69-1.13.97-2.13 2.18-3.51 2.81-4.94.75-9.85-.94-14.29-2.93-3.36-3.03-3.28-8.17-2.28-12.25 1.66-6.16-.81-12.85 1.76-18.81 1.17-3.12 4.9-3.46 7.68-4.17 2.57 1.95 4.95 4.15 7.71 5.82 2.92 1.65 6.4.98 9.59 1.48 4.06.76 7.73 2.79 11.3 4.79l.36-4.59c-8.3-6.6-7.14-19.19-2.94-27.81-.51.1-1.52.31-2.03.41-.64-2.67-1.69-5.26-1.82-8.04-.35-.07-1.05-.23-1.4-.31.29 2.44.58 4.89.69 7.35-1.65-2.13-2.28-4.71-1.88-7.38.78-.51 1.54-1.05 2.29-1.6.33-2.78 1.3-5.42 1.86-8.15.44-4.84-.03-9.77-1.57-14.39-.95.93-1.89 1.86-2.87 2.76 1.04-4.54 4.32-8.45 4.14-13.26-.13-3.37-.24-6.74.32-10.09.43-2.11-1.06-3.88-1.56-5.84-.22-1.75 2.27-.74 2.4.32 1.88 3.65.59 7.86.6 11.76.87.42 2.61 1.26 3.49 1.68l-.4-2.31c.97.34 2.9 1.03 3.87 1.37.48-.4 1.44-1.22 1.92-1.63.91 1.01 1.82 2.02 2.72 3.05-2.67-.05-5.53-.81-8.05.36 1.23 2.67 2.77 5.36 2.69 8.41.39 2.85-.43 6.22 1.78 8.51.68 2.23-1.83.86-2.46.02-1.43-3.64.33-7.84-1.4-11.42-.84-2.13-2.24-3.96-3.67-5.72-.09 4.58-3.62 8.98-1.63 13.5 1.86 5.8 2.23 12.24.27 18.07-1.18 4.17-.69 9.34 2.67 12.41.52-.69 1.58-2.07 2.1-2.76-.15-.46-.46-1.39-.62-1.85.5-3.94-.24-7.87-.18-11.81.07-3.43 2.35-6.15 4.08-8.91.43.95.78 1.94 1.04 2.96-1.7 1.52-3.49 3.51-3.12 5.99.23 3.93.29 7.87.11 11.81 1.11.04 2.2-.14 3.27-.55 2.21.74 4.86 1.01 6.34 3.03 1.35 1.72 2.28 3.71 3.42 5.57.02 5.71.58 11.59-1.62 17.02 4.55-.63 8.72-2.76 12.12-5.81-.01-3.52.43-7.18 2.66-10.06-.51-.67-1.03-1.32-1.54-1.97 2.88-4.84 7.9-7.59 11.66-11.62l2.83-.36c-5.04 2.97-8.26 8.08-13.21 11.2 4.67 1.97 9.9 1.95 14.89 2.26 3.62-.4 6.97 1.63 10.58 1.19-1.75-.74-3.61-1.18-5.52-1.17-1.97-2.06-3.81-4.56-4.16-7.47.1-4.15 2.46-7.74 4.2-11.36.69-3.08 2.64-5.61 4.88-7.73-4.21.37-9.11-.55-12.59 2.41-1.07.84-2.31 1.42-3.56 1.96 1.32-1.82 2.97-3.36 4.73-4.75-.25-.66-.73-1.98-.98-2.64l-1.08.66c0-.65-.01-1.95-.02-2.6-6.67 5.55-16.2 6.28-24.45 4.76-2.91-.42-7.11.02-8.87-2.57.34-.1 1-.32 1.34-.43 4.58.55 9.21.75 13.74 1.69 1.27-1.05-.52-1.75-1.29-2.27-.93-1.98-3.7-3.7-2.49-6.09 2.09 2.16 3.78 4.79 6.5 6.25-.12.59-.34 1.77-.46 2.36 4.46-1.16 9.15-1.69 13.26-3.96-.43-4.18-.88-8.35-.9-12.55-.59.32-1.78.96-2.37 1.29-.82-.34-1.65-.68-2.47-1-2.95 2.26-6.72 2.34-10.16 3.33-2.19.92-3.59-1.4-4.96-2.66 1.42.36 2.83.78 4.24 1.2 2.46-1.89 5.58-1.25 8.43-1.78 1.35-2.29 1.15-4.98 1.09-7.53.66 1.02 1.35 2.02 2.05 3.03-.03.79-.07 2.38-.09 3.17.87.05 2.6.16 3.46.22 1.65-3.74 4.81-7.2 3.87-11.59-.59-4.62-4.14-10.24.23-14.08.22 2.86-.43 5.76.18 8.59.58 2.56 1.26 5.1 1.59 7.71-.44 3.48-2.82 6.39-3.12 9.9-.29 3.56.01 7.13.12 10.69 1.35 1.09 2.69 2.21 3.91 3.47.81.88 1.61 1.78 2.4 2.69 1.65-.37 3.3-.76 4.94-1.18-5.59-2.93-7.6-9.25-8.95-14.97 3.2 5.15 5.81 10.67 9.77 15.32 3.59.8 7.33.58 10.98.81-.1-4.62-1.82-8.93-3.36-13.21-1.63-4.41-1.75-9.54-5.01-13.2-2.3-2.68-5.09-5.61-4.79-9.43.21-4.97-3.63-9.09-3.15-14.06.39-4.02-1.22-7.91-3.65-11.02-2.52-1.88-5.96-2.33-8.19-4.6m17.37 73.92c-1.54 3.93-4.07 7.53-4.66 11.77.49 2.03 1.03 4.4 2.66 5.82 3.16 1.33 6.47-.3 9.69-.39 4.9.17 9.55 1.94 14.23 3.26-1.35 5.89-4.69 11.15-5.52 17.17-.55 7.25-1.38 14.66-4.33 21.38-2.85 5.34-7.65 10.12-7.56 16.57 4.47 1.76 9.52.46 13.93 2.51 2.64.77 3.97 3.48 6.34 4.64 5.32 1.16 10.76 2.54 16.09.65-.32-1.21-.65-2.4-1-3.59-2.84-.72-6.07-1.61-7.42-4.51-2.26-4.72-6.68-8.23-7.86-13.48-.17-4.85 1.13-9.66 3.39-13.93 3.11-5.52 3.63-11.98 5.08-18.04.86-3.29 2.14-6.53 2.16-9.98-.17-4.87 3.1-10.03-.1-14.53-1.76-4.51-6.9-5.2-10.58-7.46-5.52-2.98-11.84-4.03-18.04-4.29-3.06.88-5.36 3.54-6.5 6.43m-52.79 36.19c1.38 2.84 4 6.15 7.54 5.61 4-.93 6.62-4.59 7.85-8.3 1.98-5.02.82-10.51-.03-15.64-.41-3.32-3.49-5.11-5.91-6.93-10.08 3.37-13 16.2-9.45 25.26m18.12.24l-2.19-.36c-1.72 3.61-4.52 6.61-8.27 8.13-.13.29-.38.86-.5 1.15-.22-.3-.65-.92-.87-1.22-.34-.22-1.02-.64-1.36-.85-.14 2.78-.18 5.58.09 8.36.54 3.39-.6 6.77.03 10.15-.39-1.46-.79-2.91-1.19-4.36-.8.56-2.41 1.68-3.21 2.24.15.51.45 1.54.61 2.05-.24-.39-.7-1.18-.93-1.57-4.76-1.75-9.47-4.05-12.4-8.38.11-.11.34-.31.45-.42 4.16 3.25 9.31 5.57 14.58 5.75.39-2.14.2-4.31.1-6.46-4.38-2.97-9.13-5.89-14.6-6-4.82.08-9.07-2.4-12.94-4.99-2.39-1.83-5.58-.21-7.4 1.66-1.18 3.28-.65 6.92-.73 10.36.33 3.79-1.1 7.39-1.64 11.09 0 2.14 1.01 4.12 1.48 6.18 4.72 1.21 9.42 2.89 14.37 2.03-.14-.59-.43-1.75-.57-2.33-3.74-4.06-2.57-9.71-2.79-14.69-1.43-1-3.36-.65-5-1.04 4.52-2.86 10.1-.98 13.64 2.55 6.92 6.46 15.17 11.33 23.79 15.13 4.13-.16 8.68-2.77 9.92-6.92 2.2-5.01 3.04-10.49 2.88-15.94-.14-4.79 1.8-9.25 2.73-13.87-2.45 1.46-5.12 2.9-8.08 2.57zM81.33 120.55h2.44c-.98 1.33-1.99 2.65-3.02 3.95-.02-1.34.27-2.65.58-3.95z"/><path d="M107.07 120.89c2.26 2.51 2.79 5.92 4.16 8.88 2.65 3.56 7.07 1.42 10.64 1.25-2.75 2.45-7.39 3.68-10.43 1.06-.81-.13-1.61-.24-2.42-.34-.61 3.93-5.52 3.02-7.77 5.46-2.16 2.09-5.24 3.35-8.25 2.68-4.36-1.41-6.76-5.88-11.11-7.37-.19-.84-.37-1.67-.55-2.51 3.36 1.69 6.43 3.86 9.2 6.4 2.54 2.56 6.96 1.97 9.42-.41 2.02-2.11 5.1-2.18 7.58-3.47 2.3-3.76-.24-7.71-.47-11.63zM129.02 132.55c2.99 6.47 6.25 14.26 2.14 21.03-.25-3.02.43-6 .58-9-.38-4.12-2.84-7.81-2.72-12.03zM73.59 135.66c1.31-.74 2.76-1.17 4.18-1.66-1.15 2.15-3.02 3.74-4.8 5.35.15-1.24.36-2.47.62-3.69zM113.56 137.79c.79-.99 1.64-1.94 2.53-2.83 1.38.74 2.62 1.71 3.89 2.63-1.72-.17-3.44-.37-5.17-.4-.07 1.86.1 3.72.24 5.58 3.15-.18 6.28.43 8.38 2.96-2.97-.4-5.93-.87-8.89-1.3-.38.31-1.14.93-1.53 1.23-2.68.59-5.03 2.05-7.55 3.06-.68.93-1.35 1.85-2 2.79-.28-.22-.83-.67-1.1-.89-2.35-.38-4.38-1.61-5.05-4.03 1.87.92 3.69 1.95 5.57 2.87.75-.76 1.5-1.5 2.25-2.25 1.63-.62 3.12-1.54 4.46-2.65 1.59-.62 4.59-.09 4.35-2.57-.01-1.78-1.47-3.09-2.46-4.43.52.06 1.56.17 2.08.23z"/><path d="M103.42 141.86c1.74-2.09 3.04-6.51 6.54-5.21-1.66 1.6-3.33 3.26-4.3 5.39-1.61 1.08-3.24 2.15-4.95 3.06.53-1.36 1.38-2.54 2.71-3.24zM85.14 142.65c1.37-.84 2.78-1.63 4.34-2.08-.58.52-1.76 1.56-2.35 2.07-.03.51-.11 1.51-.14 2.01.74.15 2.22.44 2.96.59.96-.37 1.93-.74 2.89-1.1.44.71.87 1.42 1.31 2.14-2.88.84-5.86.96-8.42-.8-.15-.71-.44-2.12-.59-2.83zM65.22 144.31c3.3 1.94 2.96 5.73 1.86 8.89-1.19-2.82-1.46-5.89-1.86-8.89zM95.43 153.51c2.22-.25 4.44-.45 6.66-.69-.33.62-.99 1.86-1.33 2.48-1.95.05-4.11.01-5.33-1.79zM89.83 154.83c2.73.42 4.92 2.44 7.49 3.4-.34.45-1.02 1.37-1.36 1.83-2.3-1.31-6.02-1.94-6.13-5.23zM104.76 162.59c-1.54 1.04-3.91-2.12-1.83-2.87 1.27.04 2.34 1.71 1.83 2.87zM113.04 164.25c1.07-1.17 2.26-2.23 3.57-3.13-.6 1.37-1.26 2.7-1.92 4.04-.41-.22-1.24-.68-1.65-.91zM98.6 174.17l2.03.52c-1.18 1.7-1.99 3.74-3.59 5.11-1.64 1-3.57 1.33-5.41 1.78 3.03-1.74 5.19-4.46 6.97-7.41zM98.57 185.35c6.43-3.01 13.62-3.51 20.5-4.91 2.07-.42 4.2-.49 6.31-.48-1.61 1.26-3.35 2.35-4.95 3.62-5.64 2.35-10.55 6.33-16.62 7.65 4.79-3.67 10.35-6.13 15.59-9.06-4.98 1.51-10.22 1.71-15.27 2.91-1.82.4-3.7.29-5.56.27zM167.26 183.9c.55 1.98-.03 4.01-.22 6.01-.51.35-1.52 1.04-2.02 1.39.28 1.03.58 2.06.89 3.09l-2.16-2.16c-2.33-.64-4.98-.48-6.99-1.97-1.86-1.49-3.09-3.56-4.53-5.41 3.82.84 5.55 6.07 9.79 4.93 3.13-.29 4-3.57 5.24-5.88zM136.83 185.37c4.35.39 7.72 3.31 11.34 5.41 1.76 1.06 3.52 2.14 5.11 3.44-6.04-1.7-11.05-5.79-16.45-8.85zM119.69 193.79c1.74-1.76 4.06-2.48 6.5-2.36-1.95 1.3-4.16 2.16-6.5 2.36zM71.53 192.11c2.17-1.21 2.58 3.4.49 3.6-1.34-.49-1.22-2.63-.49-3.6zM165.41 194.98c1.26-.66 3.14.67 3.5 1.93-.86 1.84-4.37-.14-3.5-1.93zM159.33 215.27c1 .39 2 .77 3 1.16-.36 6.33-4.05 11.89-8.15 16.49 1.74-5.82 7.19-11.19 5.15-17.65zM89.9 226.62c1.23 4.07 3.42 9.15.83 13.07-.66-4.32-1.03-8.7-.83-13.07z"/></g></svg>