<svg width="304" height="200pt" viewBox="0 0 228 200" xmlns="http://www.w3.org/2000/svg"><g fill="#FFF"><path d="M0 0h228v200H0V0m75.46 15.23c-2.93 1.7-3.92 5.1-5.19 8.01-1.3 4.31.79 8.56 2 12.63-1.9 3.02-3.09 6.39-4.54 9.63-1.87 2.2-4.37 3.98-5.22 6.88-2.2 6.48-.93 13.47-1.99 20.14 1.19 2.75 2.66 5.41 3.14 8.41.58 3.73 3.2 6.63 5.33 9.6.18 4.26.74 8.49.84 12.75-1.34 1.96-1.43 4.29-.99 6.55-1.91 1.46-2.49 3.7-2.77 5.98-6.19-.51-12.72-1.43-18.67.92-4.47 1.72-9.32 3.29-12.47 7.13-8.63 8.38-14.85 20.89-11.87 33.08 2.57 7.96 9.24 13.59 16.12 17.88 3.53 2.01 7.64 2.68 11.08 4.87.54-.93 1.02-1.88 1.51-2.83-2.92-1.03-6.01-1.62-8.85-2.86-4.78-3.01-10.15-5.51-13.43-10.33-5.57-6.09-5.08-14.95-4-22.55 2.18-6.94 6.32-13.23 11.89-17.93 8.48-4.94 18.6-7.6 28.39-5.73-.15 2.35-1.76 4.83-.52 7.08 2.37 6.66 9.18 10.04 15.02 13.14 3.98.84 7.65 3.06 11.81 2.95 2.99-.17 4.81 3.31 7.91 2.82 5.98 0 14.64 1.06 17.4-5.74-.67-2.15-1.72-4.55-.36-6.68 3-7.73 4.74-18.13-1.53-24.7 6.91-2.11 14.2-3.41 21.42-2.52 3.2.48 6.8-.28 9.69 1.45 1.44 3.12 2.48 6.42 3.37 9.74.53 2.11 2.38 3.66 2.6 5.87.29 2.78 1.07 5.47 2.58 7.85 4.42 7.75 5.77 16.75 9.72 24.71 1.28 2.31 2.71 4.52 4.02 6.81 3.69 1.17 6.46 3.94 9.56 6.1 2.99.51 6.02.93 9.06.82 1.56 1.03 2.52 2.58 1.3 4.32-3.76 3.27-8.97 3.81-13.7 2.88-6.28-1.36-11.69 3.81-18.03 2.24.07 1.43 1.37 2.66 2.86 2.46 6.01-.81 11.95-2.82 18.09-2.21 5.62.27 12.45-1.11 14.97-6.8-1.59-1.78-3.1-3.84-5.46-4.61-3.85-1.29-8.07-1.15-11.8-2.88 2.55-.92 6.18-.34 7.36-3.41 2.2-2.68-.19-6.13-3.13-6.73-4.63-.9-9.35-1.49-13.75-3.28.37.57 1.1 1.72 1.46 2.29 4.24 2.01 9.07 2.26 13.57 3.44-.22 1.23-.44 2.47-.66 3.71-2.51.53-4.99 1.19-7.48 1.8-9.93-7.75-10.15-21.29-15.84-31.65-2.12-3.24-1.14-7.48-3.34-10.67-2.66-3.77-2.66-8.62-4.24-12.84-1.84-1.44-4.36-2.05-5.65-4.16a11.724 11.724 0 00-8.12-5.35c-5.41-1.06-10.5 2.15-15.9 1.71-4.18-.43-8.19.95-12.1 2.22-.35-.14-1.06-.44-1.42-.59a34.512 34.512 0 01-6.7 2.73c-.46-3.6-1.04-7.27-.33-10.89.54-3.62 2.22-7.06 2.11-10.76-.61-2.72-1.88-5.35-1.79-8.19.15-2.81.53-5.74-.45-8.45-1.78-3.11-3.52-6.3-5.88-9.01-2.36-1.99-5.54-3.15-6.57-6.38.81-.84 1.61-1.68 2.42-2.53 2.4-.28 4.75-.95 6.73-2.38 3.82-5.34 2.87-12 3.15-18.16.62-5.39-4.24-9.59-9.08-10.67-4.86-.37-10.16-1.73-14.66.87m51.83 111.09c-3.06 2.83-7.03 4.22-10.57 6.29 6.61.56 12.04-3.56 15.8-8.53 1.19-.24 2.39-.49 3.59-.72.61 4.31 2.12 8.41 3.35 12.57 1.74 4.21 5.17 7.38 7.6 11.16 1.03 4.42-1.4 8.63-1.41 13.01.89 2.49 3.41 3.71 5.4 5.19l.69-3.12c-.31.22-.94.66-1.25.88-.81-1.01-1.62-2-2.44-2.99.69-2.43 1.38-4.87 1.88-7.34.84 3.02 1.7 6.07 1.62 9.24l.98-.32c-1.06 5.47-2.49 11.89 2.21 16.19.64-.56 1.27-1.12 1.91-1.68-.95-.98-1.88-1.98-2.79-3 .9-4.37 1.65-8.8 1.8-13.27-.75-3.19-2.45-6.06-3.49-9.15-2.17-6.37-9.31-9.93-10.35-16.8-.8-3.89-2.39-7.55-3.68-11.28.96-.68 1.93-1.36 2.9-2.03-.88-.28-1.76-.56-2.64-.83-4.22 1.14-8.66 2.58-11.11 6.53m-19.8 18.24c1.97 6.19.31 12.91-2.41 18.61-1.45 2.76-2.55 5.94-5.27 7.74-4 2.55-8.04 5.44-12.84 6.17-6.6.99-13.27 1.74-19.95 1.56-4.98-.18-10.15.7-14.87-1.38-.26 1.7 1.44 2.33 2.52 3.24 3.3.19 6.64.04 9.87.85 9.35.98 19.09.89 27.92-2.72 3.62-1.48 7.64-2.87 9.88-6.32 2.76-3.24 4.17-7.31 5.49-11.29.92-5.57 2.79-10.97 3.14-16.63-.27-.14-.81-.4-1.07-.53-.84.11-1.64.34-2.41.7z"/><path d="M77.89 16.56c5.6-2.43 12.21-1.09 17.02 2.4 2.5 4.53 2.03 10.02 2.06 15.04.11 2.95-1.27 5.63-2.27 8.32-3.18.48-6.53.89-9.58-.42-1.58-1.02-2.96-2.31-4.54-3.33 1.62 2.81 4.44 4.5 6.89 6.47-1.25 1.67-2.4 3.42-3.5 5.2.59.54 1.76 1.62 2.35 2.17-.72-.46-2.16-1.39-2.87-1.85-1.43.21-2.85.49-4.26.81-1.7 4.56-7.73 4.21-9.55 8.63 3.95-2.14 9.36-3.01 11.39-7.45 4.45 1 5.55 5.78 6.44 9.59 1.38 5.07-3.24 8.75-4.37 13.37 1.03-.57 2.06-1.14 3.08-1.72 2.36 4.12 3.23 8.83 4.36 13.37.79 3.83-1.05 7.47-1.72 11.17-1.09-1.83-2.81-2.98-4.87-3.45 1.58 2.99 3.71 5.62 5.68 8.35-.01-1.04-.03-2.08-.05-3.12.8-.75 1.6-1.5 2.39-2.26 1.76 4.06 2.22 8.52 1.87 12.91-4.42 3.76-6.59 9.75-6.5 15.47-1.28-4.21-4.39-7.53-5.75-11.66-.47-3.88-.15-7.81-.38-11.71-3.06-3.63-.87-7.99.12-11.96.84-2.66.16-5.41-.13-8.09-1.68-.14-3.37-.19-5.05-.18 3.9 1.73 6.33 6.84 3.19 10.39-2.23-3.67-4.31-7.43-6.6-11.07-.79-3.71.49-7.95-2.53-10.94 2.16.96 4.26 2.08 6.51 2.83l-.28-1.63c-2.65-2.1-5.98-3.19-9.18-4.15.77 1.21 1.58 2.41 2.42 3.58.31 3.2-.64 6.66 1.05 9.59 2.24 4.34 4.51 8.65 6.83 12.94.26 2.22-.23 4.51.56 6.68 1.61 5.08.17 10.61 2.15 15.6 1.31 3.94 3.92 7.31 5.04 11.34 1.03 1.13 2.05 2.28 3.05 3.45-1.55 1.99-3.45 3.7-4.73 5.89-5.05-4.72-12.96-6.42-15.89-13.2-.87-4.62-.46-10.11 3.9-12.86-.35-.41-1.07-1.23-1.43-1.64.03-1.29.07-3.89.09-5.18 1.91 2.93 5.29 3.28 8.38 4.01-.27-.82-.8-2.47-1.06-3.29-1.69-.83-3.58-1.07-5.38-1.5-3.16-5.16-1.28-11.75-3.48-17.2-2.28-3.2-2.7-7.17-4-10.78-1.06-1.09-2.73-1.95-2.9-3.63.57-3.27 2-6.43 1.69-9.82.1-4.25.36-9 2.98-12.54 3.59-3.85 5.25-8.97 7.71-13.53.68-4.31-3.31-8.62-1.39-13.02 1.25-2.37 2.22-5.47 5.04-6.39z"/><path d="M87.02 53.33c4.31 1.32 6.35 5.47 9.09 8.65 2.18 2.46 1.65 5.96 1.68 8.99-2.4-.2-4.87-1.45-7.19-.18 2.21.94 4.52 1.62 6.87 2.12.72 3.63 3.44 7.14 1.91 10.93-2.11 5.45-3.19 11.46-1.7 17.22-.59.61-1.18 1.23-1.77 1.84.18-.66.53-1.98.7-2.64-2-1.07-3.02-3.09-4.19-4.92 1.49-5.94-1.39-11.63-1.93-17.48-.09-2.16-2.08-3.69-2.22-5.79.62-2.32 1.8-4.54 1.64-7.01.42-4.2-2.24-7.73-2.89-11.73zM124.93 99.68c5.58-1.81 12.6-2.56 17.21 1.84-5.06.02-10.28-1.04-15.22.48-4.05 1.19-8.24 1.85-12.24 3.17l-2.15-1.88-1.28 2.16c-4.99 1.32-10.03 2.47-15.03 3.76.05-2.41 1.06-4.43 2.76-6.07 2.6.45 5.16.02 7.49-1.2 1.66.78 3.34 1.51 5.04 2.19l-.44-3.03c4.65.09 9.42.19 13.86-1.42zM105.24 108c2.8-.3 5.6-.75 8.43-.55 3.63 3.01 3.72 7.99 5.4 12.07-1.74-2.64-2.65-6.21-5.59-7.86-2.55-1.6-5.27-3.01-8.24-3.66z"/><path d="M91.62 132.28c-5.49-7.68-.41-21.26 9.56-21.85 4.94-.69 10.27 1.21 13.39 5.18 4.42 6.44 2.59 16.9-4.87 20.24-5.52 2.92-11.67-.11-16.8-2.37a11.377 11.377 0 01-6.22 4.24c.73-1.61 1.61-3.15 2.36-4.75l.37-.56c.55-.03 1.66-.1 2.21-.13z"/><path d="M92.74 136.56c4.33 1.14 8.44 3.45 13.04 3.26 3.45-1.15 6.85-2.71 10.57-2.76-1.66 3.01-5.3 3.39-8.33 4.01-5.42.68-11.49-.16-15.28-4.51z"/></g><g fill="#333"><path d="M75.46 15.23c4.5-2.6 9.8-1.24 14.66-.87 4.84 1.08 9.7 5.28 9.08 10.67-.28 6.16.67 12.82-3.15 18.16-1.98 1.43-4.33 2.1-6.73 2.38-.81.85-1.61 1.69-2.42 2.53 1.03 3.23 4.21 4.39 6.57 6.38 2.36 2.71 4.1 5.9 5.88 9.01.98 2.71.6 5.64.45 8.45-.09 2.84 1.18 5.47 1.79 8.19.11 3.7-1.57 7.14-2.11 10.76-.71 3.62-.13 7.29.33 10.89 2.32-.68 4.57-1.58 6.7-2.73.36.15 1.07.45 1.42.59 3.91-1.27 7.92-2.65 12.1-2.22 5.4.44 10.49-2.77 15.9-1.71 3.34.52 6.33 2.48 8.12 5.35 1.29 2.11 3.81 2.72 5.65 4.16 1.58 4.22 1.58 9.07 4.24 12.84 2.2 3.19 1.22 7.43 3.34 10.67 5.69 10.36 5.91 23.9 15.84 31.65 2.49-.61 4.97-1.27 7.48-1.8.22-1.24.44-2.48.66-3.71-4.5-1.18-9.33-1.43-13.57-3.44-.36-.57-1.09-1.72-1.46-2.29 4.4 1.79 9.12 2.38 13.75 3.28 2.94.6 5.33 4.05 3.13 6.73-1.18 3.07-4.81 2.49-7.36 3.41 3.73 1.73 7.95 1.59 11.8 2.88 2.36.77 3.87 2.83 5.46 4.61-2.52 5.69-9.35 7.07-14.97 6.8-6.14-.61-12.08 1.4-18.09 2.21-1.49.2-2.79-1.03-2.86-2.46 6.34 1.57 11.75-3.6 18.03-2.24 4.73.93 9.94.39 13.7-2.88 1.22-1.74.26-3.29-1.3-4.32-3.04.11-6.07-.31-9.06-.82-3.1-2.16-5.87-4.93-9.56-6.1-1.31-2.29-2.74-4.5-4.02-6.81-3.95-7.96-5.3-16.96-9.72-24.71-1.51-2.38-2.29-5.07-2.58-7.85-.22-2.21-2.07-3.76-2.6-5.87-.89-3.32-1.93-6.62-3.37-9.74-2.89-1.73-6.49-.97-9.69-1.45-7.22-.89-14.51.41-21.42 2.52 6.27 6.57 4.53 16.97 1.53 24.7-1.36 2.13-.31 4.53.36 6.68-2.76 6.8-11.42 5.74-17.4 5.74-3.1.49-4.92-2.99-7.91-2.82-4.16.11-7.83-2.11-11.81-2.95-5.84-3.1-12.65-6.48-15.02-13.14-1.24-2.25.37-4.73.52-7.08-9.79-1.87-19.91.79-28.39 5.73-5.57 4.7-9.71 10.99-11.89 17.93-1.08 7.6-1.57 16.46 4 22.55 3.28 4.82 8.65 7.32 13.43 10.33 2.84 1.24 5.93 1.83 8.85 2.86-.49.95-.97 1.9-1.51 2.83-3.44-2.19-7.55-2.86-11.08-4.87-6.88-4.29-13.55-9.92-16.12-17.88-2.98-12.19 3.24-24.7 11.87-33.08 3.15-3.84 8-5.41 12.47-7.13 5.95-2.35 12.48-1.43 18.67-.92.28-2.28.86-4.52 2.77-5.98-.44-2.26-.35-4.59.99-6.55-.1-4.26-.66-8.49-.84-12.75-2.13-2.97-4.75-5.87-5.33-9.6-.48-3-1.95-5.66-3.14-8.41 1.06-6.67-.21-13.66 1.99-20.14.85-2.9 3.35-4.68 5.22-6.88 1.45-3.24 2.64-6.61 4.54-9.63-1.21-4.07-3.3-8.32-2-12.63 1.27-2.91 2.26-6.31 5.19-8.01m2.43 1.33c-2.82.92-3.79 4.02-5.04 6.39-1.92 4.4 2.07 8.71 1.39 13.02-2.46 4.56-4.12 9.68-7.71 13.53-2.62 3.54-2.88 8.29-2.98 12.54.31 3.39-1.12 6.55-1.69 9.82.17 1.68 1.84 2.54 2.9 3.63 1.3 3.61 1.72 7.58 4 10.78 2.2 5.45.32 12.04 3.48 17.2 1.8.43 3.69.67 5.38 1.5.26.82.79 2.47 1.06 3.29-3.09-.73-6.47-1.08-8.38-4.01-.02 1.29-.06 3.89-.09 5.18.36.41 1.08 1.23 1.43 1.64-4.36 2.75-4.77 8.24-3.9 12.86 2.93 6.78 10.84 8.48 15.89 13.2 1.28-2.19 3.18-3.9 4.73-5.89-1-1.17-2.02-2.32-3.05-3.45-1.12-4.03-3.73-7.4-5.04-11.34-1.98-4.99-.54-10.52-2.15-15.6-.79-2.17-.3-4.46-.56-6.68-2.32-4.29-4.59-8.6-6.83-12.94-1.69-2.93-.74-6.39-1.05-9.59-.84-1.17-1.65-2.37-2.42-3.58 3.2.96 6.53 2.05 9.18 4.15l.28 1.63c-2.25-.75-4.35-1.87-6.51-2.83 3.02 2.99 1.74 7.23 2.53 10.94 2.29 3.64 4.37 7.4 6.6 11.07 3.14-3.55.71-8.66-3.19-10.39 1.68-.01 3.37.04 5.05.18.29 2.68.97 5.43.13 8.09-.99 3.97-3.18 8.33-.12 11.96.23 3.9-.09 7.83.38 11.71 1.36 4.13 4.47 7.45 5.75 11.66-.09-5.72 2.08-11.71 6.5-15.47.35-4.39-.11-8.85-1.87-12.91-.79.76-1.59 1.51-2.39 2.26.02 1.04.04 2.08.05 3.12-1.97-2.73-4.1-5.36-5.68-8.35 2.06.47 3.78 1.62 4.87 3.45.67-3.7 2.51-7.34 1.72-11.17-1.13-4.54-2-9.25-4.36-13.37-1.02.58-2.05 1.15-3.08 1.72 1.13-4.62 5.75-8.3 4.37-13.37-.89-3.81-1.99-8.59-6.44-9.59C79 56.99 73.59 57.86 69.64 60c1.82-4.42 7.85-4.07 9.55-8.63 1.41-.32 2.83-.6 4.26-.81.71.46 2.15 1.39 2.87 1.85-.59-.55-1.76-1.63-2.35-2.17 1.1-1.78 2.25-3.53 3.5-5.2-2.45-1.97-5.27-3.66-6.89-6.47 1.58 1.02 2.96 2.31 4.54 3.33 3.05 1.31 6.4.9 9.58.42 1-2.69 2.38-5.37 2.27-8.32-.03-5.02.44-10.51-2.06-15.04-4.81-3.49-11.42-4.83-17.02-2.4m9.13 36.77c.65 4 3.31 7.53 2.89 11.73.16 2.47-1.02 4.69-1.64 7.01.14 2.1 2.13 3.63 2.22 5.79.54 5.85 3.42 11.54 1.93 17.48 1.17 1.83 2.19 3.85 4.19 4.92-.17.66-.52 1.98-.7 2.64.59-.61 1.18-1.23 1.77-1.84-1.49-5.76-.41-11.77 1.7-17.22 1.53-3.79-1.19-7.3-1.91-10.93-2.35-.5-4.66-1.18-6.87-2.12 2.32-1.27 4.79-.02 7.19.18-.03-3.03.5-6.53-1.68-8.99-2.74-3.18-4.78-7.33-9.09-8.65m37.91 46.35c-4.44 1.61-9.21 1.51-13.86 1.42l.44 3.03a93.52 93.52 0 01-5.04-2.19c-2.33 1.22-4.89 1.65-7.49 1.2-1.7 1.64-2.71 3.66-2.76 6.07 5-1.29 10.04-2.44 15.03-3.76l1.28-2.16 2.15 1.88c4-1.32 8.19-1.98 12.24-3.17 4.94-1.52 10.16-.46 15.22-.48-4.61-4.4-11.63-3.65-17.21-1.84M105.24 108c2.97.65 5.69 2.06 8.24 3.66 2.94 1.65 3.85 5.22 5.59 7.86-1.68-4.08-1.77-9.06-5.4-12.07-2.83-.2-5.63.25-8.43.55m-13.62 24.28c-.55.03-1.66.1-2.21.13l-.37.56c-.75 1.6-1.63 3.14-2.36 4.75 2.5-.67 4.67-2.15 6.22-4.24 5.13 2.26 11.28 5.29 16.8 2.37 7.46-3.34 9.29-13.8 4.87-20.24-3.12-3.97-8.45-5.87-13.39-5.18-9.97.59-15.05 14.17-9.56 21.85m1.12 4.28c3.79 4.35 9.86 5.19 15.28 4.51 3.03-.62 6.67-1 8.33-4.01-3.72.05-7.12 1.61-10.57 2.76-4.6.19-8.71-2.12-13.04-3.26z"/><path d="M127.29 126.32c2.45-3.95 6.89-5.39 11.11-6.53.88.27 1.76.55 2.64.83-.97.67-1.94 1.35-2.9 2.03 1.29 3.73 2.88 7.39 3.68 11.28 1.04 6.87 8.18 10.43 10.35 16.8 1.04 3.09 2.74 5.96 3.49 9.15-.15 4.47-.9 8.9-1.8 13.27.91 1.02 1.84 2.02 2.79 3-.64.56-1.27 1.12-1.91 1.68-4.7-4.3-3.27-10.72-2.21-16.19l-.98.32c.08-3.17-.78-6.22-1.62-9.24-.5 2.47-1.19 4.91-1.88 7.34.82.99 1.63 1.98 2.44 2.99.31-.22.94-.66 1.25-.88l-.69 3.12c-1.99-1.48-4.51-2.7-5.4-5.19.01-4.38 2.44-8.59 1.41-13.01-2.43-3.78-5.86-6.95-7.6-11.16-1.23-4.16-2.74-8.26-3.35-12.57-1.2.23-2.4.48-3.59.72-3.76 4.97-9.19 9.09-15.8 8.53 3.54-2.07 7.51-3.46 10.57-6.29zM107.49 144.56c.77-.36 1.57-.59 2.41-.7.26.13.8.39 1.07.53-.35 5.66-2.22 11.06-3.14 16.63-1.32 3.98-2.73 8.05-5.49 11.29-2.24 3.45-6.26 4.84-9.88 6.32-8.83 3.61-18.57 3.7-27.92 2.72-3.23-.81-6.57-.66-9.87-.85-1.08-.91-2.78-1.54-2.52-3.24 4.72 2.08 9.89 1.2 14.87 1.38 6.68.18 13.35-.57 19.95-1.56 4.8-.73 8.84-3.62 12.84-6.17 2.72-1.8 3.82-4.98 5.27-7.74 2.72-5.7 4.38-12.42 2.41-18.61z"/></g></svg>