<svg width="257pt" height="200pt" viewBox="0 0 257 200" xmlns="http://www.w3.org/2000/svg"><g fill="#FFF"><path d="M0 0h257v200H0V0m174.17 35.95c-.62 2.68-1.61 5.25-2.32 7.91.25 3.18.65 6.35.92 9.53-4.08.96-8.66 1.73-10.84 5.84-3.57-3.27-8.72-2.06-12.39.36-.6 1.27-1.17 2.55-1.76 3.83-4.94 2.56-8.39 7.47-9.99 12.71-1.23 3.91-.73 9.43 3.36 11.47 2.21 1.38 4.71.09 6.95-.45.02 2.92.43 5.82.79 8.71-.01.97 1.02.87 1.69.99.12-3.83-1.79-8.35 1.22-11.54-.16-.98-.32-1.96-.48-2.93.46-2.41.6-4.85.82-7.28 1.13-.8 2.27-1.59 3.42-2.35 1.78.31 3.57.57 5.37.73.03 1.1.06 2.19.08 3.29l-.64-.67c-5.21 5.18-9.71 12.92-7.04 20.41 1.17 3.76 5.37 5.49 9.05 4.83 1.96 3.91 5.29 7.01 8.66 9.72-.76-1.85-1.67-3.64-2.74-5.34 2.19-1.34 4.46-2.68 6.12-4.69-1.58.46-3.11 1.09-4.62 1.75-.49-1.51-1.01-3.01-1.55-4.5-.72 1.12-2.17 3.36-2.89 4.48l2.18-1.2c.53.42 1.58 1.28 2.1 1.7-.65.44-1.95 1.31-2.61 1.75-1.3-1.26-2.57-2.56-3.84-3.85 4.96-1.99 8.61-6.09 11.06-10.73 1.89.53 3.68.03 5.22-1.1-1.76-.81-3.44-.68-5.05.37 1.87-4.66 2.09-9.96-.61-14.35 1.83-.99 3.63-2.05 5.34-3.22-1.81.2-3.6.51-5.41.73 2.98-1.97 6.05-4.11 9.76-4.27 1.31 1.37 2.83 2.52 4.52 3.41 1.16 1.29 1.89 3.89 4.09 3.34 2.94-.64 4.95 1.79 7.06 3.38.68-.05 2.05-.16 2.74-.21-1.23 2.77-1.6 5.77-1.55 8.78-.72.73-1.43 1.46-2.14 2.2-2.39.64-6 .23-6.62 3.36 2.63-.7 5.24-1.47 7.91-2.01-1.06 1.35-2.21 2.63-3.12 4.08-2.68 3.84-5.35 7.69-7.82 11.67-5.22 7.92-13.54 12.98-21.8 17.23-1.6.14-3.19.38-4.78.63-2.7-3.21-5.07-6.68-7.86-9.81-3.46-5.32-1.73-12.03-3.22-17.9-.62 1.22-1.07 2.51-1.47 3.81-.77.31-2.3.94-3.06 1.25-1.32-.93-2.61-1.89-3.87-2.88-.07-.62-.2-1.85-.27-2.46-3.3-2.93-5.56-7.29-9.9-8.82-3.56-3.81-7.36-7.34-11.34-10.7-3.63-3.98-8.42-6.58-13.45-8.32-3.09-1.54-6.65-.61-9.64.68-3.36 1.36-7.38 1.89-9.64 5.03-2.8 3.72-6.45 6.65-9.63 10.03-5.08 3.23-9.46 7.41-13.77 11.57-2.1 2.09-4.78 3.71-7.8 3.91-8.37.32-16.75-.82-25.12-.55-1.84-.13-2.49 1.99-3.45 3.15-2.26.94-4.14 2.52-5.83 4.27-.23 3.74-.2 8.08 2.76 10.85 3.82 3.88 9.87 2.99 14.14 6.07 4.45 2.96 9.53 7.01 15.22 5.13 3.62-1.96 5.39-5.85 6.99-9.43 2-2.19 3.42-4.86 5.57-6.91 4.91-3.79 10.51-6.57 16.23-8.9 4.09-3.67 6.95-8.5 11.11-12.15 2.69 2.84 5.07 6.02 6.27 9.8 1.52 4.38 4.45 8.05 7.78 11.2-1.35 2.03-2.69 4.07-4.18 6.01 2.6 1.01 5.38.96 8.11 1.27 2.63 1.59 4.78 3.84 7.24 5.67-6.88 1.37-11.66 6.89-14.92 12.72-2.81 7.42-.59 16.37 5.55 21.44 5.61 4.11 12.84 5.09 19.49 6.55 7.85 2.12 16.02 1.1 24.04 1.63 7.95.44 16.13.21 23.63-2.74 2.86-1.49 5.66-3.1 8.49-4.65.56-.9 1.12-1.8 1.67-2.71l.45.01c3.75-5.34 6.28-12.23 4.02-18.68-2.74-8.53-10.63-14.21-19.01-16.54 7.53-4.1 14.58-9.66 18.92-17.18 3.84-7.36 10.65-13.43 11.38-22.13-.27-3.03-.02-6.04.54-9.02-.25-7.15-5-13.6-3.7-20.89.88-4.65 1.31-9.49.2-14.13-.99-2.33-2.84-4.21-4.71-5.86-4.86-3-10.72-1.21-16.04-1.19-2.19.59-5.19 1.46-5.74 4m6.99 39.18c-3.15 3.24-2.75 8.23-3.75 12.34.28.36.85 1.07 1.13 1.43.95-2.87 1.63-5.83 2.2-8.8.36-3.44 4.04-4.78 5.93-7.27-1.91.5-4.14.67-5.51 2.3m6.88 28.5c2.51-1.53 3.46-4.3 3.69-7.06-2.09 1.8-2.86 4.54-3.69 7.06m-15.68 12.85c3.12-1.36 4.1-4.8 6.2-7.2 2.31.14 4.7.23 6.75-1.01-1.35-.87-2.7-1.76-4.05-2.64-3.99 2.6-7.08 6.45-8.9 10.85z"/><path d="M177.59 35.75c2.67-2.98 6.89-2.14 10.44-2.35 1.98.11 4.11-.24 5.97.55 1.78 1.51 3.41 3.23 4.88 5.05 1.36 6.94-1.84 14.1.49 20.94 1.83 5.68 3 11.58 2.89 17.57-.89-.18-1.79-.38-2.67-.58-2.19-1.54-4.75-4.72-7.56-2.15-.65-1.07-1.3-2.14-1.93-3.21-1.66-.96-3.36-1.85-4.88-3-.64-2.01-1.17-4.06-2-6 1.8-.94 3.47-2.1 5.12-3.29.21-.5.65-1.49.86-1.98.4.02 1.19.05 1.59.07-1.12 3.56-2.34 7.09-3.46 10.65 1.54-2.71 3.46-5.25 4.54-8.2.25-2.75-1.36-5.25-.53-8.04-1.95 3.82-4.63 7.23-8.35 9.43-2.24-.12-4.56.05-6.73-.64-1.94-2.72-1.99-6.3-2.31-9.52.05-5.2-.16-11.24 3.64-15.3m15.16 31.98c1.36-1.06 3.24-1.88 3.69-3.72.22-1.36 1.71-3.38-.16-4.2-1.2 2.63-2.34 5.29-3.53 7.92z"/><path d="M171.38 54.42l1.84.52c.01 2.23-.28 4.78 1.36 6.58 1.3 2 3.88 1.54 5.87 2.2 1.59 1 2.78 2.51 4.18 3.76-4.46-1.96-8.61 1.07-11.86 3.79.41-1.42.75-2.85 1.03-4.29-.78-2.62-2.92-4.46-4.87-6.21-.98.56-1.95 1.13-2.92 1.7 1.52.96 3.19 1.76 4.5 3.02.46 1.41.58 2.9.84 4.35-.53.97-1.06 1.94-1.58 2.92 1.01.62 2.03 1.23 3.02 1.89-3.2-1.91-6.77-1.54-9.99.18-.14-2.11-.32-4.22-.37-6.33l-1.41.13c.13-.39.37-1.16.5-1.55-2.35-3.82-6.61-7.13-11.32-4.97.29-.82.72-1.58 1.13-2.34 3.48-1.14 7.14-1.31 10.25.88 2.06 3.83 3.59 7.9 3.78 12.29 2.13.14 1.44-2.61 1.47-3.94-.02-3.34-1.79-6.25-3.59-8.93 1.76-3.08 4.94-4.35 8.35-4.53l-.21-1.12z"/><path d="M139.34 78.92c1.24-6.45 5.39-12.69 11.75-14.99 1.79-.51 4.03-1.25 5.68.05 1.32 1.29 1.82 3.15 2.58 4.78-.21.61-.63 1.83-.85 2.44-3.22-.05-6.19 1.28-8.46 3.51-.38 3.23-.99 6.44-.98 9.71-2.06 1.15-4.48 2.96-6.91 1.73-2.65-1.19-3.09-4.68-2.81-7.23zM99.86 70.66c1.39-.57 2.78-1.13 4.19-1.68 10.7 3.86 20.73 10.6 26.84 20.36-1.53 1.41-2.98 2.9-4.51 4.3-3.83-4.2-7.18-8.82-11.05-12.96-2.94-3.39-7.71-4.03-10.88-7.06-1.57-.92-3.1-1.92-4.59-2.96z"/><path d="M92.78 73.64c4.64-2.29 9.39.77 13.32 3.1 3.29 2.42 7.13 4.22 9.76 7.43 3.35 3.62 5.75 8.08 9.64 11.19-2.2 3.18-5.62 5.16-8.05 8.12-2.21 2.63-4.6 5.1-7.1 7.46-2.28-4.14-6.58-6.84-8.11-11.41-1.82-4.21-5.2-7.43-8.51-10.49-1.59 3.99-5.78 6.05-8.09 9.59-2.76 4-7.94 4.57-11.52 7.51-4.99 3.57-11.76 6.12-13.48 12.66-2.03 3.08-4.38 6.17-7.65 8-4 .14-7.76-1.54-10.77-4.08-4.57-3.85-11.32-3.02-15.76-7.11-.71-2.19-1.37-4.44-3-6.17 1.14-1.94 2.39-3.83 4.2-5.21 6.55 3.33 14.19 4.32 21.31 2.41 8.39.43 14.61-6.08 19.99-11.63 4.89-5.46 11.29-9.31 16.1-14.84 3.04-1.63 4.89-4.66 7.72-6.53zM168.24 75.1c3.14-.6 5.21 3.25 5.62 5.86-.93 5.95-2.52 12.44-7.6 16.27-2.56 1.7-6.09 3.77-9.02 1.68-3.33-2.15-3.76-6.77-2.36-10.18 1.6-6.42 6.39-12.84 13.36-13.63z"/><path d="M131.6 87.44c2.48 4.32 6.56 7.39 9.06 11.69 1.46 2.56 4.18 3.92 6.51 5.56.76-.56 1.53-1.11 2.3-1.67.22 3.81.95 7.55 1.38 11.34-1.68-2.38-3.02-4.95-4.65-7.35 1.27 3.44 2.02 8.08 6.23 8.96 2.32 2.7 3.99 5.88 6.3 8.59-3.6 1.34-4.75 5.31-7.53 7.63-7.05 2.94-15.18 2.49-22.23-.14-4.7-1.95-5.92-7.47-9.96-10.19-1.44-1.18-2.44-2.81-3.9-3.98-2.35-.78-4.83-1.01-7.26-1.41 2.53-3.94 6.22-6.87 9.47-10.18 3.43-3.67 7.24-6.97 10.76-10.56 2.93 3.1 5.82 6.25 8.78 9.34 1.05 3.97-.8 8.41 1.24 12.11 1-4.17.88-8.49.53-12.74l1.99-2.39c-2.1-.45-4.23-.72-6.33-1.14l-.52-2.32c-2.36-1.29-4.2-3.3-4.43-6.09 1.7-1.25 2.45-2.93 2.26-5.06zM31.53 99.75c2.54.04 4.98.78 7.44 1.34 5.93.86 11.95.66 17.91 1.22-1.55.81-3.04 1.93-4.86 1.92-4.28.12-8.4 1.87-12.7 1.47-2.93-.8-5.9-1.42-8.76-2.44.24-.88.73-2.63.97-3.51z"/><path d="M163.75 127.3c2.57-2.27 5.85-3.42 9.12-4.24 2.05 1.09 4.06 2.31 6.36 2.82 4.14 3.09 8.68 6.26 10.33 11.44 1.9 3.37 1.22 7.24.68 10.86-1.64 2.97-3.5 5.8-5.22 8.71-5.36 3.73-11.7 5.52-18.04 6.7-7.21 1.82-14.73.88-22.04.33-4.28-.32-8.67.22-12.86-.97-5.8-1.39-11.79-2.22-17.23-4.78-9.03-3.6-11.98-17.37-4.78-24.09 2.83-3.11 6.27-5.63 10.19-7.19 2.73 3.16 5.53 6.3 8.63 9.11 2.33-.1 4.65-.71 6.98-.3 6.32.97 13.36.66 18.63-3.38 1.81-1.93 3.02-4.33 4.3-6.62 1.63.58 3.27 1.15 4.95 1.6z"/></g><g fill="#333"><path d="M174.17 35.95c.55-2.54 3.55-3.41 5.74-4 5.32-.02 11.18-1.81 16.04 1.19 1.87 1.65 3.72 3.53 4.71 5.86 1.11 4.64.68 9.48-.2 14.13-1.3 7.29 3.45 13.74 3.7 20.89-.56 2.98-.81 5.99-.54 9.02-.73 8.7-7.54 14.77-11.38 22.13-4.34 7.52-11.39 13.08-18.92 17.18 8.38 2.33 16.27 8.01 19.01 16.54 2.26 6.45-.27 13.34-4.02 18.68l-.45-.01c-.55.91-1.11 1.81-1.67 2.71-2.83 1.55-5.63 3.16-8.49 4.65-7.5 2.95-15.68 3.18-23.63 2.74-8.02-.53-16.19.49-24.04-1.63-6.65-1.46-13.88-2.44-19.49-6.55-6.14-5.07-8.36-14.02-5.55-21.44 3.26-5.83 8.04-11.35 14.92-12.72-2.46-1.83-4.61-4.08-7.24-5.67-2.73-.31-5.51-.26-8.11-1.27 1.49-1.94 2.83-3.98 4.18-6.01-3.33-3.15-6.26-6.82-7.78-11.2-1.2-3.78-3.58-6.96-6.27-9.8-4.16 3.65-7.02 8.48-11.11 12.15-5.72 2.33-11.32 5.11-16.23 8.9-2.15 2.05-3.57 4.72-5.57 6.91-1.6 3.58-3.37 7.47-6.99 9.43-5.69 1.88-10.77-2.17-15.22-5.13-4.27-3.08-10.32-2.19-14.14-6.07-2.96-2.77-2.99-7.11-2.76-10.85 1.69-1.75 3.57-3.33 5.83-4.27.96-1.16 1.61-3.28 3.45-3.15 8.37-.27 16.75.87 25.12.55 3.02-.2 5.7-1.82 7.8-3.91 4.31-4.16 8.69-8.34 13.77-11.57 3.18-3.38 6.83-6.31 9.63-10.03 2.26-3.14 6.28-3.67 9.64-5.03 2.99-1.29 6.55-2.22 9.64-.68 5.03 1.74 9.82 4.34 13.45 8.32 3.98 3.36 7.78 6.89 11.34 10.7 4.34 1.53 6.6 5.89 9.9 8.82.07.61.2 1.84.27 2.46 1.26.99 2.55 1.95 3.87 2.88.76-.31 2.29-.94 3.06-1.25.4-1.3.85-2.59 1.47-3.81 1.49 5.87-.24 12.58 3.22 17.9 2.79 3.13 5.16 6.6 7.86 9.81 1.59-.25 3.18-.49 4.78-.63 8.26-4.25 16.58-9.31 21.8-17.23 2.47-3.98 5.14-7.83 7.82-11.67.91-1.45 2.06-2.73 3.12-4.08-2.67.54-5.28 1.31-7.91 2.01.62-3.13 4.23-2.72 6.62-3.36.71-.74 1.42-1.47 2.14-2.2-.05-3.01.32-6.01 1.55-8.78-.69.05-2.06.16-2.74.21-2.11-1.59-4.12-4.02-7.06-3.38-2.2.55-2.93-2.05-4.09-3.34-1.69-.89-3.21-2.04-4.52-3.41-3.71.16-6.78 2.3-9.76 4.27 1.81-.22 3.6-.53 5.41-.73-1.71 1.17-3.51 2.23-5.34 3.22 2.7 4.39 2.48 9.69.61 14.35 1.61-1.05 3.29-1.18 5.05-.37-1.54 1.13-3.33 1.63-5.22 1.1-2.45 4.64-6.1 8.74-11.06 10.73 1.27 1.29 2.54 2.59 3.84 3.85.66-.44 1.96-1.31 2.61-1.75-.52-.42-1.57-1.28-2.1-1.7l-2.18 1.2c.72-1.12 2.17-3.36 2.89-4.48.54 1.49 1.06 2.99 1.55 4.5 1.51-.66 3.04-1.29 4.62-1.75-1.66 2.01-3.93 3.35-6.12 4.69 1.07 1.7 1.98 3.49 2.74 5.34-3.37-2.71-6.7-5.81-8.66-9.72-3.68.66-7.88-1.07-9.05-4.83-2.67-7.49 1.83-15.23 7.04-20.41l.64.67c-.02-1.1-.05-2.19-.08-3.29-1.8-.16-3.59-.42-5.37-.73-1.15.76-2.29 1.55-3.42 2.35-.22 2.43-.36 4.87-.82 7.28.16.97.32 1.95.48 2.93-3.01 3.19-1.1 7.71-1.22 11.54-.67-.12-1.7-.02-1.69-.99-.36-2.89-.77-5.79-.79-8.71-2.24.54-4.74 1.83-6.95.45-4.09-2.04-4.59-7.56-3.36-11.47 1.6-5.24 5.05-10.15 9.99-12.71.59-1.28 1.16-2.56 1.76-3.83 3.67-2.42 8.82-3.63 12.39-.36 2.18-4.11 6.76-4.88 10.84-5.84-.27-3.18-.67-6.35-.92-9.53.71-2.66 1.7-5.23 2.32-7.91m3.42-.2c-3.8 4.06-3.59 10.1-3.64 15.3.32 3.22.37 6.8 2.31 9.52 2.17.69 4.49.52 6.73.64 3.72-2.2 6.4-5.61 8.35-9.43-.83 2.79.78 5.29.53 8.04-1.08 2.95-3 5.49-4.54 8.2 1.12-3.56 2.34-7.09 3.46-10.65-.4-.02-1.19-.05-1.59-.07-.21.49-.65 1.48-.86 1.98-1.65 1.19-3.32 2.35-5.12 3.29.83 1.94 1.36 3.99 2 6 1.52 1.15 3.22 2.04 4.88 3 .63 1.07 1.28 2.14 1.93 3.21 2.81-2.57 5.37.61 7.56 2.15.88.2 1.78.4 2.67.58.11-5.99-1.06-11.89-2.89-17.57-2.33-6.84.87-14-.49-20.94-1.47-1.82-3.1-3.54-4.88-5.05-1.86-.79-3.99-.44-5.97-.55-3.55.21-7.77-.63-10.44 2.35m-6.21 18.67l.21 1.12c-3.41.18-6.59 1.45-8.35 4.53 1.8 2.68 3.57 5.59 3.59 8.93-.03 1.33.66 4.08-1.47 3.94-.19-4.39-1.72-8.46-3.78-12.29-3.11-2.19-6.77-2.02-10.25-.88-.41.76-.84 1.52-1.13 2.34 4.71-2.16 8.97 1.15 11.32 4.97-.13.39-.37 1.16-.5 1.55l1.41-.13c.05 2.11.23 4.22.37 6.33 3.22-1.72 6.79-2.09 9.99-.18-.99-.66-2.01-1.27-3.02-1.89.52-.98 1.05-1.95 1.58-2.92-.26-1.45-.38-2.94-.84-4.35-1.31-1.26-2.98-2.06-4.5-3.02.97-.57 1.94-1.14 2.92-1.7 1.95 1.75 4.09 3.59 4.87 6.21-.28 1.44-.62 2.87-1.03 4.29 3.25-2.72 7.4-5.75 11.86-3.79-1.4-1.25-2.59-2.76-4.18-3.76-1.99-.66-4.57-.2-5.87-2.2-1.64-1.8-1.35-4.35-1.36-6.58l-1.84-.52m-32.04 24.5c-.28 2.55.16 6.04 2.81 7.23 2.43 1.23 4.85-.58 6.91-1.73-.01-3.27.6-6.48.98-9.71 2.27-2.23 5.24-3.56 8.46-3.51.22-.61.64-1.83.85-2.44-.76-1.63-1.26-3.49-2.58-4.78-1.65-1.3-3.89-.56-5.68-.05-6.36 2.3-10.51 8.54-11.75 14.99m-39.48-8.26c1.49 1.04 3.02 2.04 4.59 2.96 3.17 3.03 7.94 3.67 10.88 7.06 3.87 4.14 7.22 8.76 11.05 12.96 1.53-1.4 2.98-2.89 4.51-4.3-6.11-9.76-16.14-16.5-26.84-20.36-1.41.55-2.8 1.11-4.19 1.68m-7.08 2.98c-2.83 1.87-4.68 4.9-7.72 6.53-4.81 5.53-11.21 9.38-16.1 14.84-5.38 5.55-11.6 12.06-19.99 11.63-7.12 1.91-14.76.92-21.31-2.41-1.81 1.38-3.06 3.27-4.2 5.21 1.63 1.73 2.29 3.98 3 6.17 4.44 4.09 11.19 3.26 15.76 7.11 3.01 2.54 6.77 4.22 10.77 4.08 3.27-1.83 5.62-4.92 7.65-8 1.72-6.54 8.49-9.09 13.48-12.66 3.58-2.94 8.76-3.51 11.52-7.51 2.31-3.54 6.5-5.6 8.09-9.59 3.31 3.06 6.69 6.28 8.51 10.49 1.53 4.57 5.83 7.27 8.11 11.41 2.5-2.36 4.89-4.83 7.1-7.46 2.43-2.96 5.85-4.94 8.05-8.12-3.89-3.11-6.29-7.57-9.64-11.19-2.63-3.21-6.47-5.01-9.76-7.43-3.93-2.33-8.68-5.39-13.32-3.1m75.46 1.46c-6.97.79-11.76 7.21-13.36 13.63-1.4 3.41-.97 8.03 2.36 10.18 2.93 2.09 6.46.02 9.02-1.68 5.08-3.83 6.67-10.32 7.6-16.27-.41-2.61-2.48-6.46-5.62-5.86M131.6 87.44c.19 2.13-.56 3.81-2.26 5.06.23 2.79 2.07 4.8 4.43 6.09l.52 2.32c2.1.42 4.23.69 6.33 1.14l-1.99 2.39c.35 4.25.47 8.57-.53 12.74-2.04-3.7-.19-8.14-1.24-12.11-2.96-3.09-5.85-6.24-8.78-9.34-3.52 3.59-7.33 6.89-10.76 10.56-3.25 3.31-6.94 6.24-9.47 10.18 2.43.4 4.91.63 7.26 1.41 1.46 1.17 2.46 2.8 3.9 3.98 4.04 2.72 5.26 8.24 9.96 10.19 7.05 2.63 15.18 3.08 22.23.14 2.78-2.32 3.93-6.29 7.53-7.63-2.31-2.71-3.98-5.89-6.3-8.59-4.21-.88-4.96-5.52-6.23-8.96 1.63 2.4 2.97 4.97 4.65 7.35-.43-3.79-1.16-7.53-1.38-11.34-.77.56-1.54 1.11-2.3 1.67-2.33-1.64-5.05-3-6.51-5.56-2.5-4.3-6.58-7.37-9.06-11.69M31.53 99.75c-.24.88-.73 2.63-.97 3.51 2.86 1.02 5.83 1.64 8.76 2.44 4.3.4 8.42-1.35 12.7-1.47 1.82.01 3.31-1.11 4.86-1.92-5.96-.56-11.98-.36-17.91-1.22-2.46-.56-4.9-1.3-7.44-1.34m132.22 27.55c-1.68-.45-3.32-1.02-4.95-1.6-1.28 2.29-2.49 4.69-4.3 6.62-5.27 4.04-12.31 4.35-18.63 3.38-2.33-.41-4.65.2-6.98.3-3.1-2.81-5.9-5.95-8.63-9.11-3.92 1.56-7.36 4.08-10.19 7.19-7.2 6.72-4.25 20.49 4.78 24.09 5.44 2.56 11.43 3.39 17.23 4.78 4.19 1.19 8.58.65 12.86.97 7.31.55 14.83 1.49 22.04-.33 6.34-1.18 12.68-2.97 18.04-6.7 1.72-2.91 3.58-5.74 5.22-8.71.54-3.62 1.22-7.49-.68-10.86-1.65-5.18-6.19-8.35-10.33-11.44-2.3-.51-4.31-1.73-6.36-2.82-3.27.82-6.55 1.97-9.12 4.24z"/><path d="M192.75 67.73c1.19-2.63 2.33-5.29 3.53-7.92 1.87.82.38 2.84.16 4.2-.45 1.84-2.33 2.66-3.69 3.72zM181.16 75.13c1.37-1.63 3.6-1.8 5.51-2.3-1.89 2.49-5.57 3.83-5.93 7.27-.57 2.97-1.25 5.93-2.2 8.8-.28-.36-.85-1.07-1.13-1.43 1-4.11.6-9.1 3.75-12.34zM188.04 103.63c.83-2.52 1.6-5.26 3.69-7.06-.23 2.76-1.18 5.53-3.69 7.06zM172.36 116.48c1.82-4.4 4.91-8.25 8.9-10.85 1.35.88 2.7 1.77 4.05 2.64-2.05 1.24-4.44 1.15-6.75 1.01-2.1 2.4-3.08 5.84-6.2 7.2z"/></g></svg>