<svg width="175pt" height="250pt" viewBox="0 0 175 250" xmlns="http://www.w3.org/2000/svg"><g fill="#FFF"><path d="M0 0h175v250H0V0m102.16 34.17c-4.68 7.26-4.14 16.77-.57 24.38 1.25 2.39 3.92 3.53 6.54 3.35 1.33 1.34 2.87 2.5 4.85 2.53-.71 1.05-1.41 2.11-2.07 3.18-1.73.97-3.75 1.66-4.83 3.44-2.65 3.92-6.76 6.93-8.06 11.67-1.27 3.7-.03 7.51.82 11.15-1.89 3.13-1.7 6.82-1.48 10.33.51 2.86 2.86 4.88 4.61 7.03-.73.26-2.19.77-2.92 1.03-2.67-5.32-9.02-11.03-15.25-8.12-5.96 1.78-9.64 7.71-10.52 13.61-3 .04-5.8 1.13-8.54 2.23.17-4.85.65-10.32 4.38-13.88 4.22-3.65 10.07-3.18 15.26-3.55-1.46-1.46-3.22-2.46-5.36-2.07-4.96-.8-10.16 1.51-12.72 5.88-2.33 4.27-4.3 9.54-1.95 14.23-1.99 2.23-3.14 5.23-3.07 8.21.84 4.34.05 8.87 1.17 13.16 2 5.3 1.81 11.07 2.58 16.61-1.84-1.37-3.48-3.01-4.75-4.94-1.4-2.3-4.27-3.29-5.33-5.83-.95-2.17-2.67-4.23-2.15-6.76.59-4.49 5.43-6.5 7.49-10.03-.07-.37-.2-1.12-.27-1.49-3.58 1.43-6.05 4.56-8.19 7.63-2.32 4.09-.18 8.72 1.13 12.77 2.3 1.33 4.51 2.9 5.86 5.25 1.67 2.9 5.44 3.84 6.81 6.94 2.56 4.92 3.16 10.5 3.34 15.96-2.64 4.55-4.65 9.47-7.67 13.8-5.57-4.63-11.22-9.18-17.31-13.11-4.31.32-8.61-.1-12.91-.06-2.22.17-4.74.49-6.19 2.38-.57 4.54-.82 9.6 1.71 13.64.39-4.51.38-9.04.44-13.56 5.92-.38 12.05-1.15 17.88-.15 4.65 3.96 9.61 7.53 14.42 11.3-1.73.72-3.5 1.36-5.3 1.87-.85.94-1.71 1.86-2.58 2.79 1.7 3.13 3.52 7.01 7.46 7.6 3.95 1.57 8.02-.23 11.99-.7 1.83 1.32 3.38 2.98 5.05 4.5-6.69.45-13.39.91-20.04 1.86a59.317 59.317 0 00-8.44-9.67c-5.54-5.87-11.51-11.33-17.57-16.64 3.66 5.66 9.66 9.31 13.76 14.64 3.54 4.68 8.41 8.31 11.2 13.55 7.51-1.25 15.15-.57 22.67-1.76.48 5.03.19 10.06.2 15.1-7.87.75-15.78 1.16-23.68 1.58-6.57-6.82-12.45-14.28-19.13-21.01-3.23-3.02-5.59-6.94-9.24-9.5-.5.41-.91.9-1.33 1.39 4.88 4.09 8.13 9.71 12.79 14.04 5.74 5.36 10.48 11.66 15.86 17.37 7.96-1.26 16.05-.86 24.06-1.38l1.5-1.82c.32.18.97.56 1.29.74.01-5.27.6-10.55.03-15.81-1.64-3.71-5.38-5.78-8.23-8.46 1.06-2.24 2.53-4.23 4.31-5.95 2.29 1.78 4.91 3.92 8.05 3.18 3.69-1.15 8.52-.56 10.41-4.68 6.36 7.31 11.46 15.62 17.98 22.79 4.38-.92 8.77-.57 13.17-.39.19-3.81.03-7.7 1.18-11.39-2.63-2.29-5.56-4.35-7.51-7.29-2.24-3.09-4.34-6.48-7.77-8.37-1.68-.75-.6-2.84-.71-4.2.01-3.74.1-7.5-.49-11.21-.81-5.16.51-10.35-.03-15.53 17.29-.15 34.53-1.54 51.82-1.57 3.51-.77 7.1-.86 10.67-1.18.35-.4 1.04-1.2 1.39-1.6-6.69-.79-13.42-.49-20.14-.47-17.05-.23-33.91 2.88-50.96 2.99-4.01-.09-8.4 1.41-12-1.02-3.27-.98-5.4-4.45-9.01-4.35 4.1 4.43 9.77 8.22 15.98 8.3l-.36 4.47c-2.66-.69-5.52-1.36-7.65-3.2-2.24-2.59-4.04-5.77-7.31-7.23 1.39 2.94 3.51 5.44 5.39 8.07 2.4 3.17 6.43 4.13 10.14 4.73-.34 4.83.07 9.67-.11 14.51-3.23 4.13-5.17 9-7.55 13.62-2.89.86-5.92 1.35-8.57 2.9-1.5-1.11-2.92-2.36-4.64-3.14 3.04-1.74 6.33-3.03 9.25-4.97 2.45-1.68 2.03-4.98 2.01-7.55-.15-4-3.37-6.84-5.17-10.15-3-9.94.34-20.58-3.28-30.43 1.76.49 3.53.97 5.32 1.34 4.52 3.04 10.31 4.34 15.67 3.35.03.57.08 1.71.1 2.28 2.65-.21 5.13-1.2 7.73-1.66 5.67.67 11.49 1.96 17.19.73 5.04-1.45 6.38-7.04 7.61-11.46-.52-6.19-2.78-12.03-4.47-17.97-1.36-.05-2.71-.05-4.06-.05.08-.48.26-1.44.34-1.92.7.29 1.42.56 2.14.82 1.52-2.16 4.14-3.77 4.51-6.57.81-7.11 2.86-14 3.86-21.08.31-3.12-.09-6.27.29-9.39.07-3.05.78-6.34-.74-9.15-1.26-2.68-2.08-5.76-4.49-7.69-2.96-2.34-5.7-5.39-9.71-5.8 1.81 3.07 4.53 5.43 7.53 7.27-3.87 1.66-8.27 1.62-12.1 3.44-1.62.98-2.37 2.81-3.11 4.45 3.78-3.11 8.47-5.05 13.38-5.31 1.2.07 2.07-.79 3-1.38 1.85 2.54 3.63 5.21 4.16 8.38 2.62 9.1-1.1 18.11-2.08 27.14-.64 3.86-1.81 7.62-2.82 11.4-4.84 2.56-9.65 5.9-15.31 6.12-4.64.87-9.81-.66-13.93 2.25.55-2.96-.31-5.89-1.01-8.73 6.29-.2 12.56-2.47 17.24-6.73 2.03-2.05 6.05-1.81 6.55-5.24-1.34.46-2.68.95-4 1.47.29-3.85.27-7.75 1.03-11.55.36-2.38 2.57-5.08-.06-6.86-2.23-3.22-5.28-.44-6.97 1.69 1.12-.35 2.24-.71 3.35-1.09.8.08 2.39.25 3.19.33-.65 3.47-1.34 6.94-1.93 10.42-3 .58-6.13 1.82-7.75 4.58 2.61-.49 4.98-1.77 7.58-2.34.03 1.07.11 3.2.15 4.26-.11 2.06-2.75 1.32-4.08 1.94l.28 1.61-.47.24c-1.37 1.29-2.97 2.3-4.51 3.35.5-3.21-1.4-5.87-2.54-8.68-1.12-1.18-2.28-2.33-3.68-3.17-.04.36-.13 1.07-.18 1.43 2.12 2.62 4.48 5.14 5.03 8.62-.1.95-.21 1.89-.32 2.84-.98.15-2.94.45-3.93.6-1.63-3.04-4.01-5.61-5.48-8.73 1.38-3.76 3.7-7.47 2.95-11.65 5.93 3.45 13.17.98 17.79-3.53-4.75.08-8.83 3.45-13.65 3.61-.57-.62-1.69-1.86-2.26-2.48.09.29.25.87.34 1.16-1.23.06-2.46.1-3.69.12-.09-4.88 2.27-9.34 5.06-13.17 2.16-2.91 5.51-4.48 8.21-6.78.97-1.76 1.28-3.79 2.02-5.65-1.52-1.49-3.02-3.1-4.95-4.07-1.59-.43-3.22.46-4.79.65-1.1-1.68-2.5-3.28-2.75-5.34-1.19-6.35-2.34-13.67 1.81-19.22 3.07-2.67 7.16-4.01 11.23-3.65 3.58-.45 7.27 1.73 8.64 5.04.53 3.16-.05 6.36-1.09 9.35-1.24 4.41-1.31 10.4 3.42 12.8-.95-3.27-4.04-6.62-2-10.12 2.14-4.39 2.44-9.79.21-14.22-1.26-4.1-6.16-5.76-10.05-5.09-4.14.65-8.89 1.14-11.94 4.33m14.55 17.65c-.67 3.19-3.42 5.12-5.19 7.66 2.43-1.41 4.96-2.96 6.53-5.36 1.31-2.38 2.06-5.02 2.81-7.62-2.09 1.07-3.66 3.01-4.15 5.32m.75 23.58c.77 4.15 3.65 7.39 6.47 10.34-.05-.8.58-1.8-.15-2.48-1.82-2.53-3.88-4.97-4.6-8.09-.43.06-1.29.17-1.72.23m11.16 23.56c.11 1.52.26 3.04.43 4.56 1.91-2.89 2.22-6.51 2.36-9.88-1.54 1.42-2.09 3.44-2.79 5.32m13.46 35.51c-2.27.23-5.02-.94-6.94.68-.11.33-.34 1.01-.45 1.35 5.82-.03 11.63-.36 17.43-.83 2.51-.29 5.35.39 7.51-1.27-5.77-1.75-11.71-.22-17.55.07m-47.71 18.94c-1.47.92-.02 3.66 1.47 2.39 1.35-.96.06-3.79-1.47-2.39m-39.87 59.6c-.18 4.05.01 8.11.36 12.15l1.76.52c-.96-4.17.91-9.19-2.12-12.67z"/><path d="M78.8 109.87c3.15-4.06 9.11-4.67 13.77-3.57 3.34 2.4 5.17 6.66 6.13 10.57 1.22 5.25-2.53 9.6-5.05 13.77-4.25 1.36-9.24 2.95-13.33.3-1.78-1.98-3.66-3.91-5.15-6.11-.04-5.11-.58-11.22 3.63-14.96z"/><path d="M68.43 120.25c.61-.05 1.83-.16 2.43-.21.44.29 1.32.89 1.76 1.19.44 6.17 4.46 12.23 10.5 14.09 4.17.57 8.41-1.05 11.92-3.23 2.31-2.57 3.73-5.78 5.07-8.93 6.97-2.02 14.37-.9 21.28-2.98 2.14.02 4.26.29 6.39.4.86.97 1.72 1.94 2.58 2.92-1.43 6.34 2.5 13.12-.63 19.33-.59 2.13-3.17 1.9-4.85 2.45-4.58 1.21-9.43 1.5-14.05.33-1.97-.65-3.96.05-5.86.58-.09-.39-.25-1.17-.34-1.55-3.86.31-7.84.87-11.64-.2-6.06-1.12-10.51-6.24-16.48-7.43 1.33 5.34 3.55 10.51 3.99 16.05.12 6.33-.13 12.67.17 19.01 1.78 2.38 2.58 5.4 4.77 7.48 3.03 2.6 2.16 7.74-.69 10.13-2.68 1.52-5.92 1.92-8.27 4.02-3.26 2.38-5.15 6.11-8.32 8.55-3.59.85-7.32.68-10.75-.75-1.38-1.9-2.79-3.77-4.03-5.77 3.5.24 6.82-.9 9.45-3.19 2.83-4.5 5.67-8.99 8.18-13.68 1.71-10.04-4.89-18.94-4.66-28.86.48-4.02-2.71-7.16-2.94-11.06-.27-5.12-.19-10.37 1.44-15.29.67-1.58 2.32-2.36 3.58-3.4m32.94 2.71c.83 2.81 2.53 5.43 2.48 8.44.33 3.09-.17 6.58 1.65 9.29 1.06-4.1.72-8.38.3-12.53-.84-2.2-1.5-5.15-4.43-5.2m-33.05 15.48c1.24-1.48.85-3.31.48-5.02 1.77-1.8 2.59-4.2 2.17-6.71-2.8 3.21-3.18 7.66-2.65 11.73m12.49 42.96c-1 2.28-2.18 4.48-2.86 6.89 2.55-1.06 5.27-4.39 2.86-6.89z"/><path d="M100 160.27c2.9-.14 5.79-.39 8.66-.82-.64 9.86-.68 19.78.2 29.63.93 3.26 3.69 5.63 5.49 8.43 2.47 3.81 6.67 5.92 9.39 9.49.45 2.65-.25 5.37-.33 8.05-3.3-.22-6.53.49-9.76 1.03-5.47-7.89-10.32-17.35-19.36-21.64.57-1.69.98-3.42 1.08-5.2.71-1.37 1.41-2.74 2.07-4.12.71 1.51 1.57 2.94 2.58 4.28 2.08-4.18.46-8.94.88-13.39.76-5.3-1.24-10.43-.9-15.74z"/></g><g fill="#333"><path d="M102.16 34.17c3.05-3.19 7.8-3.68 11.94-4.33 3.89-.67 8.79.99 10.05 5.09 2.23 4.43 1.93 9.83-.21 14.22-2.04 3.5 1.05 6.85 2 10.12-4.73-2.4-4.66-8.39-3.42-12.8 1.04-2.99 1.62-6.19 1.09-9.35-1.37-3.31-5.06-5.49-8.64-5.04-4.07-.36-8.16.98-11.23 3.65-4.15 5.55-3 12.87-1.81 19.22.25 2.06 1.65 3.66 2.75 5.34 1.57-.19 3.2-1.08 4.79-.65 1.93.97 3.43 2.58 4.95 4.07-.74 1.86-1.05 3.89-2.02 5.65-2.7 2.3-6.05 3.87-8.21 6.78-2.79 3.83-5.15 8.29-5.06 13.17 1.23-.02 2.46-.06 3.69-.12-.09-.29-.25-.87-.34-1.16.57.62 1.69 1.86 2.26 2.48 4.82-.16 8.9-3.53 13.65-3.61-4.62 4.51-11.86 6.98-17.79 3.53.75 4.18-1.57 7.89-2.95 11.65 1.47 3.12 3.85 5.69 5.48 8.73.99-.15 2.95-.45 3.93-.6.11-.95.22-1.89.32-2.84-.55-3.48-2.91-6-5.03-8.62.05-.36.14-1.07.18-1.43 1.4.84 2.56 1.99 3.68 3.17 1.14 2.81 3.04 5.47 2.54 8.68 1.54-1.05 3.14-2.06 4.51-3.35l.47-.24-.28-1.61c1.33-.62 3.97.12 4.08-1.94-.04-1.06-.12-3.19-.15-4.26-2.6.57-4.97 1.85-7.58 2.34 1.62-2.76 4.75-4 7.75-4.58.59-3.48 1.28-6.95 1.93-10.42-.8-.08-2.39-.25-3.19-.33-1.11.38-2.23.74-3.35 1.09 1.69-2.13 4.74-4.91 6.97-1.69 2.63 1.78.42 4.48.06 6.86-.76 3.8-.74 7.7-1.03 11.55 1.32-.52 2.66-1.01 4-1.47-.5 3.43-4.52 3.19-6.55 5.24-4.68 4.26-10.95 6.53-17.24 6.73.7 2.84 1.56 5.77 1.01 8.73 4.12-2.91 9.29-1.38 13.93-2.25 5.66-.22 10.47-3.56 15.31-6.12 1.01-3.78 2.18-7.54 2.82-11.4.98-9.03 4.7-18.04 2.08-27.14-.53-3.17-2.31-5.84-4.16-8.38-.93.59-1.8 1.45-3 1.38-4.91.26-9.6 2.2-13.38 5.31.74-1.64 1.49-3.47 3.11-4.45 3.83-1.82 8.23-1.78 12.1-3.44-3-1.84-5.72-4.2-7.53-7.27 4.01.41 6.75 3.46 9.71 5.8 2.41 1.93 3.23 5.01 4.49 7.69 1.52 2.81.81 6.1.74 9.15-.38 3.12.02 6.27-.29 9.39-1 7.08-3.05 13.97-3.86 21.08-.37 2.8-2.99 4.41-4.51 6.57-.72-.26-1.44-.53-2.14-.82-.08.48-.26 1.44-.34 1.92 1.35 0 2.7 0 4.06.05 1.69 5.94 3.95 11.78 4.47 17.97-1.23 4.42-2.57 10.01-7.61 11.46-5.7 1.23-11.52-.06-17.19-.73-2.6.46-5.08 1.45-7.73 1.66-.02-.57-.07-1.71-.1-2.28-5.36.99-11.15-.31-15.67-3.35-1.79-.37-3.56-.85-5.32-1.34 3.62 9.85.28 20.49 3.28 30.43 1.8 3.31 5.02 6.15 5.17 10.15.02 2.57.44 5.87-2.01 7.55-2.92 1.94-6.21 3.23-9.25 4.97 1.72.78 3.14 2.03 4.64 3.14 2.65-1.55 5.68-2.04 8.57-2.9 2.38-4.62 4.32-9.49 7.55-13.62.18-4.84-.23-9.68.11-14.51-3.71-.6-7.74-1.56-10.14-4.73-1.88-2.63-4-5.13-5.39-8.07 3.27 1.46 5.07 4.64 7.31 7.23 2.13 1.84 4.99 2.51 7.65 3.2l.36-4.47c-6.21-.08-11.88-3.87-15.98-8.3 3.61-.1 5.74 3.37 9.01 4.35 3.6 2.43 7.99.93 12 1.02 17.05-.11 33.91-3.22 50.96-2.99 6.72-.02 13.45-.32 20.14.47-.35.4-1.04 1.2-1.39 1.6-3.57.32-7.16.41-10.67 1.18-17.29.03-34.53 1.42-51.82 1.57.54 5.18-.78 10.37.03 15.53.59 3.71.5 7.47.49 11.21.11 1.36-.97 3.45.71 4.2 3.43 1.89 5.53 5.28 7.77 8.37 1.95 2.94 4.88 5 7.51 7.29-1.15 3.69-.99 7.58-1.18 11.39-4.4-.18-8.79-.53-13.17.39-6.52-7.17-11.62-15.48-17.98-22.79-1.89 4.12-6.72 3.53-10.41 4.68-3.14.74-5.76-1.4-8.05-3.18-1.78 1.72-3.25 3.71-4.31 5.95 2.85 2.68 6.59 4.75 8.23 8.46.57 5.26-.02 10.54-.03 15.81-.32-.18-.97-.56-1.29-.74l-1.5 1.82c-8.01.52-16.1.12-24.06 1.38-5.38-5.71-10.12-12.01-15.86-17.37-4.66-4.33-7.91-9.95-12.79-14.04.42-.49.83-.98 1.33-1.39 3.65 2.56 6.01 6.48 9.24 9.5 6.68 6.73 12.56 14.19 19.13 21.01 7.9-.42 15.81-.83 23.68-1.58-.01-5.04.28-10.07-.2-15.1-7.52 1.19-15.16.51-22.67 1.76-2.79-5.24-7.66-8.87-11.2-13.55-4.1-5.33-10.1-8.98-13.76-14.64 6.06 5.31 12.03 10.77 17.57 16.64 3.16 2.91 5.98 6.15 8.44 9.67 6.65-.95 13.35-1.41 20.04-1.86-1.67-1.52-3.22-3.18-5.05-4.5-3.97.47-8.04 2.27-11.99.7-3.94-.59-5.76-4.47-7.46-7.6.87-.93 1.73-1.85 2.58-2.79 1.8-.51 3.57-1.15 5.3-1.87-4.81-3.77-9.77-7.34-14.42-11.3-5.83-1-11.96-.23-17.88.15-.06 4.52-.05 9.05-.44 13.56-2.53-4.04-2.28-9.1-1.71-13.64 1.45-1.89 3.97-2.21 6.19-2.38 4.3-.04 8.6.38 12.91.06 6.09 3.93 11.74 8.48 17.31 13.11 3.02-4.33 5.03-9.25 7.67-13.8-.18-5.46-.78-11.04-3.34-15.96-1.37-3.1-5.14-4.04-6.81-6.94-1.35-2.35-3.56-3.92-5.86-5.25-1.31-4.05-3.45-8.68-1.13-12.77 2.14-3.07 4.61-6.2 8.19-7.63.07.37.2 1.12.27 1.49-2.06 3.53-6.9 5.54-7.49 10.03-.52 2.53 1.2 4.59 2.15 6.76 1.06 2.54 3.93 3.53 5.33 5.83 1.27 1.93 2.91 3.57 4.75 4.94-.77-5.54-.58-11.31-2.58-16.61-1.12-4.29-.33-8.82-1.17-13.16-.07-2.98 1.08-5.98 3.07-8.21-2.35-4.69-.38-9.96 1.95-14.23 2.56-4.37 7.76-6.68 12.72-5.88 2.14-.39 3.9.61 5.36 2.07-5.19.37-11.04-.1-15.26 3.55-3.73 3.56-4.21 9.03-4.38 13.88 2.74-1.1 5.54-2.19 8.54-2.23.88-5.9 4.56-11.83 10.52-13.61 6.23-2.91 12.58 2.8 15.25 8.12.73-.26 2.19-.77 2.92-1.03-1.75-2.15-4.1-4.17-4.61-7.03-.22-3.51-.41-7.2 1.48-10.33-.85-3.64-2.09-7.45-.82-11.15 1.3-4.74 5.41-7.75 8.06-11.67 1.08-1.78 3.1-2.47 4.83-3.44.66-1.07 1.36-2.13 2.07-3.18-1.98-.03-3.52-1.19-4.85-2.53-2.62.18-5.29-.96-6.54-3.35-3.57-7.61-4.11-17.12.57-24.38m-23.36 75.7c-4.21 3.74-3.67 9.85-3.63 14.96 1.49 2.2 3.37 4.13 5.15 6.11 4.09 2.65 9.08 1.06 13.33-.3 2.52-4.17 6.27-8.52 5.05-13.77-.96-3.91-2.79-8.17-6.13-10.57-4.66-1.1-10.62-.49-13.77 3.57m-10.37 10.38c-1.26 1.04-2.91 1.82-3.58 3.4-1.63 4.92-1.71 10.17-1.44 15.29.23 3.9 3.42 7.04 2.94 11.06-.23 9.92 6.37 18.82 4.66 28.86-2.51 4.69-5.35 9.18-8.18 13.68-2.63 2.29-5.95 3.43-9.45 3.19 1.24 2 2.65 3.87 4.03 5.77 3.43 1.43 7.16 1.6 10.75.75 3.17-2.44 5.06-6.17 8.32-8.55 2.35-2.1 5.59-2.5 8.27-4.02 2.85-2.39 3.72-7.53.69-10.13-2.19-2.08-2.99-5.1-4.77-7.48-.3-6.34-.05-12.68-.17-19.01-.44-5.54-2.66-10.71-3.99-16.05 5.97 1.19 10.42 6.31 16.48 7.43 3.8 1.07 7.78.51 11.64.2.09.38.25 1.16.34 1.55 1.9-.53 3.89-1.23 5.86-.58 4.62 1.17 9.47.88 14.05-.33 1.68-.55 4.26-.32 4.85-2.45 3.13-6.21-.8-12.99.63-19.33-.86-.98-1.72-1.95-2.58-2.92-2.13-.11-4.25-.38-6.39-.4-6.91 2.08-14.31.96-21.28 2.98-1.34 3.15-2.76 6.36-5.07 8.93-3.51 2.18-7.75 3.8-11.92 3.23-6.04-1.86-10.06-7.92-10.5-14.09-.44-.3-1.32-.9-1.76-1.19-.6.05-1.82.16-2.43.21M100 160.27c-.34 5.31 1.66 10.44.9 15.74-.42 4.45 1.2 9.21-.88 13.39a24.216 24.216 0 01-2.58-4.28c-.66 1.38-1.36 2.75-2.07 4.12-.1 1.78-.51 3.51-1.08 5.2 9.04 4.29 13.89 13.75 19.36 21.64 3.23-.54 6.46-1.25 9.76-1.03.08-2.68.78-5.4.33-8.05-2.72-3.57-6.92-5.68-9.39-9.49-1.8-2.8-4.56-5.17-5.49-8.43-.88-9.85-.84-19.77-.2-29.63-2.87.43-5.76.68-8.66.82z"/><path d="M116.71 51.82c.49-2.31 2.06-4.25 4.15-5.32-.75 2.6-1.5 5.24-2.81 7.62-1.57 2.4-4.1 3.95-6.53 5.36 1.77-2.54 4.52-4.47 5.19-7.66zM117.46 75.4c.43-.06 1.29-.17 1.72-.23.72 3.12 2.78 5.56 4.6 8.09.73.68.1 1.68.15 2.48-2.82-2.95-5.7-6.19-6.47-10.34zM128.62 98.96c.7-1.88 1.25-3.9 2.79-5.32-.14 3.37-.45 6.99-2.36 9.88-.17-1.52-.32-3.04-.43-4.56zM101.37 122.96c2.93.05 3.59 3 4.43 5.2.42 4.15.76 8.43-.3 12.53-1.82-2.71-1.32-6.2-1.65-9.29.05-3.01-1.65-5.63-2.48-8.44zM68.32 138.44c-.53-4.07-.15-8.52 2.65-11.73.42 2.51-.4 4.91-2.17 6.71.37 1.71.76 3.54-.48 5.02zM142.08 134.47c5.84-.29 11.78-1.82 17.55-.07-2.16 1.66-5 .98-7.51 1.27-5.8.47-11.61.8-17.43.83.11-.34.34-1.02.45-1.35 1.92-1.62 4.67-.45 6.94-.68zM94.37 153.41c1.53-1.4 2.82 1.43 1.47 2.39-1.49 1.27-2.94-1.47-1.47-2.39zM80.81 181.4c2.41 2.5-.31 5.83-2.86 6.89.68-2.41 1.86-4.61 2.86-6.89zM54.5 213.01c3.03 3.48 1.16 8.5 2.12 12.67l-1.76-.52c-.35-4.04-.54-8.1-.36-12.15z"/></g></svg>