<svg width="208" height="250pt" viewBox="0 0 156 250" xmlns="http://www.w3.org/2000/svg"><g fill="#FFF"><path d="M0 0h156v250H0v-35.54c11.16-.88 21.94-4.22 32.98-5.88 5.59-.68 11.09-2.18 16.13-4.71 1.8 3.57 3.97 6.94 6.53 10.01 3.34-.27 6.71.06 10.05-.33 1.59-.96 2.74-2.48 4.05-3.76a175.7 175.7 0 01-.22-3.93c-2.29-3.48-4.64-7.08-8.24-9.33 1.84 4.18 4.29 8.08 7.35 11.47-3.64 2.94-8.28 3.32-12.77 3.52-3.32-7.37-8.77-13.38-14.03-19.38-4.49-3.61-8.33-7.93-12.61-11.77 1.78 4.44 5.22 7.81 8.43 11.23-12.67 1.11-25.18 3.54-37.65 5.97V159.8c14.95-.7 29.89-1.87 44.87-1.43-2.43 3.04-5.73 5.2-8.28 8.13-1.48-.86-2.75-2.59-4.61-2.49-1.83.55-3.45 1.59-5.15 2.44 1.24 3.12 2.09 6.78 5.06 8.77 2.97 2.03 5.7 4.95 9.53 5.1.25 1.18.46 2.38.63 3.58 1.24-.45 2.43-1.01 3.64-1.53 3.12.7 6.28 1.18 9.43 1.71.05-.47.16-1.4.22-1.87 2.36-2.64 5-4.98 7.72-7.24 2.4-1.9 1.59-5.35 1.55-8-.69-4.94-.19-9.96-1.18-14.86-1.21-6.03-.51-12.26-1.82-18.28-1.1-5.41-.83-11.15.88-16.39 1.86-3.75 6.02-4.44 9.81-4.48 3.53 3.78 6.16 9.07 11.68 10.24 3.83.38 7.69.33 11.53.37.32-.95.64-1.91.96-2.86.88 5.16 2.03 10.85-.23 15.8-2.34 3.71-7.36 1.61-10.16-.41-2.7-2.91-6.47-4.47-10.42-4.65-.19-.54-.56-1.62-.75-2.16-.82 1.99-2.11 4.08-1.27 6.3 1.64 6.66 3.17 13.66 1.75 20.51-.98 4.24-1.22 8.61-1.11 12.95.13 3.12 2.01 5.79 2.47 8.84.67 2.95.37 5.97.1 8.95-3.98 1.61-8.53 1.56-12.24 3.88-2.83 1.82-5.89 3.23-8.96 4.62-2.73-1.22-5.43-2.54-8.13-3.84 2.48 2.7 5.32 6.24 9.44 5.71 3.49.08 5.69-3.02 8.37-4.74 3.06-1.03 6.3-1.49 9.24-2.88 5.44-2.78 12.67.2 17.44-4.15-3.59-2.53-6.77-5.55-9.97-8.54.09-2.29.18-4.57.26-6.86 2.39-.2 4.77-.44 7.14-.75 1.6 2.33 3.42 4.53 5.66 6.27.06 2.24.1 4.49.2 6.73.8-1.1 2.2-1.91 2.1-3.46.91-8.42.09-16.87-.03-25.3 3.08.12 6.17.17 9.26.14-.41 2.39-.82 4.79-.76 7.23.2 8.43-.84 16.88.39 25.27 6.39 5.39 12.49 11.16 18.11 17.36-.27 2.45-.52 4.9-.77 7.35-3.3-.15-6.59.17-9.84.73-3.94-5.84-8.8-11.17-14.69-15.09.3-.51.91-1.53 1.21-2.04-2.41-.12-4.86-.16-7.22.44-7.18 1.71-14.5 2.78-21.64 4.66-1.4.4-3 .7-3.83 2.05 10.47.57 20.33-3.43 30.41-5.49 3.4 6.57 8.71 11.9 14.15 16.8 4.34 2.52 9.65 1.25 14.05-.46-.06-3.5-.01-7-.01-10.5-2.4-2.05-4.57-4.36-6.36-6.96-3.05-4.29-7.57-7.13-11.58-10.4-1.16-2.97-.63-6.4-.53-9.54.82-7.12-.04-14.29.4-21.42 6.83.05 13.65-1.5 19.35-5.36 1.99-6.28-2.65-11.83-7.88-14.6.26-3.11.92-6.28.29-9.39-.87-2.4-2.11-4.66-2.89-7.1 1.37.02 2.74.04 4.12.08 2.09-2.07 3.87-4.53 4.52-7.45.97-4.44 4.44-7.98 4.3-12.73-.54.33-1.63.99-2.18 1.33.09 3.85-2.38 6.96-3.77 10.36-.88 2.22-1.69 4.47-2.65 6.65-5.04-1.03-10.58-.08-15.18-2.81-3.2-1.69-5.88-4.34-9.36-5.5-3.03-1.02-6.13-1.8-9.11-2.98-4.01-1.12-9.65-1.7-10.55-6.69 1.56-3.97 2.81-8.36 6.9-10.49 2.4.53 5.61.41 6.79 3.05 1.69 3.7 4.06 7.56 8.27 8.67 5.45 2.68 11.4.05 17.12.62-.91-1.07-1.79-2.15-2.66-3.24 1.49.6 2.96 1.26 4.44 1.88-1.6-2.46-4.21-4.71-3.83-7.93-.14-3.82 2.36-7.2 2.02-11.03-1.28-1.89-3.13-3.29-4.83-4.78-1.85 2.94 2.66 4.97 1.48 7.46-.42.07-1.27.2-1.7.27-2.59 1.25-5.23 2.37-7.91 3.41-3.28-2.05-6.83-3.71-10.78-3.83-1.63-.62-3.35-1-5.09-1.13.7-2.16 1.16-4.47 2.55-6.33 3.01-4.08 5.36-8.64 8.88-12.35 1.38.17 2.75.32 4.13.47-1.15 1.51-2.27 3.05-3.29 4.65 2.35-1.37 4.41-3.18 6.74-4.59 1.91-.49 3.86.6 5.76.86-.22.54-.65 1.63-.87 2.17 1.6-1 3.17-2.1 4.93-2.82 2.54-.31 5.25.11 7.52-1.37-3.66-1.67-7.84-2.3-11.33.14-1.67-.43-3.34-.84-5.02-1.22-.45-1.73-.92-3.46-1.43-5.17 4.66-1.73 8.96-5.74 8.59-11.1-2.51 3.91-5.02 9.65-10.59 9.21-3.2.36-4.69-3.1-5.58-5.56-1.54-5.45-1.7-11.49.28-16.85 1.6-4.17 6.57-4.89 10.31-6.14 2.96 1.39 7.27 1.4 8.78 4.78 1.59 4.08 2.33 8.65 1.13 12.94-.77 2.69.19 5.37.72 8.01 1.31 8.99 10.59 14.51 10.87 23.88-.38 7.81-.58 15.63-1.74 23.38 4.31-5.44 2.52-12.93 3.23-19.34.9-6.03-.95-12.35-5.03-16.88-4.38-5.21-7.65-12.26-5.92-19.15 1.5-5.39.48-11.55-3.09-15.92-3.99-2.52-9.07-4.02-13.75-2.59-6.25.79-9.7 7.71-9.25 13.5.36 5.08 1.15 10.25 3.21 14.95.99 2.76 4.45 2.36 6.73 3.05.08 2.23.14 4.46.19 6.69-1.55-.57-3.11-2.47-4.9-1.36-7 3.03-9.86 10.74-13.73 16.75.32 1.58.61 3.16.88 4.75l-.79-.93c-.73 1.76-1.41 3.55-2.26 5.26-2.39-1.06-4.58-2.5-6.91-3.68-1.2-2.48-2.41-4.97-3.91-7.29.03-.64.1-1.92.13-2.55-1.18-.9-2.26-1.99-3.65-2.54-3.09 1.77-6.25 3.48-9.07 5.66-1.64 3.36-1.83 7.2-2.71 10.79-3.76-.92-6.98.77-9.75 3.15.59 2.88.85 5.88-.24 8.68.06.51.2 1.53.26 2.04-1.57 3.35-3.86 6.82-3.07 10.71.79 3.63-.05 7.24-.44 10.84.57 4.03 1.97 7.97 1.78 12.09-.12 3.24.16 6.59 2.11 9.31 1.11-4.82-.69-9.57-.68-14.39 0-3.89-1.65-7.74-.63-11.62 1.18-3.47-.87-6.95-.29-10.46.73-2.37 2.69-4.02 4.34-5.76.73.33 1.46.67 2.19 1 .61 3.47 3.45 5.42 6.64 6.34.89-1.82 1.67-3.7 2.34-5.62 1.26.66 2.53 1.31 3.79 1.95-1.02 2.4-1.88 4.93-.89 7.51-2.16 1.9-4.64 3.87-5.23 6.86-.96 4.17-2.55 8.47-1.35 12.78.9 3.85 1.02 7.8.94 11.73-19.96.98-39.94 1.38-59.91 2.05V0m122.16 105.65c1.12.19 1.81-.29 2.09-1.42 1.49-3.23 3.13-6.56 3.17-10.19-3.42 2.84-3.89 7.64-5.26 11.61m-55.35 20.23c2.28-1.52 4.21-3.6 4.58-6.44-3.2.39-3.54 4.02-4.58 6.44m3.97 1.6c2.03.31 4.07.55 6.12.77 1.46 1.14 2.98 2.21 4.53 3.24.83-5.98-7.07-7.04-10.65-4.01m-4.92 10.61c-.51 7.53.13 15.12 1.81 22.48.38 1.11 1.61 1.6 2.37 2.42-2.47-8.1-2.2-16.69-4.18-24.9m5.41 19.94c1.52-4.56.86-9.38.1-14.01-.61 4.61-1.56 9.48-.1 14.01m-46.08 13.83l.24 2.66c4.33 2.98 7.53 7.17 11.41 10.65 4.79 4.49 8.24 10.23 13.3 14.44.37-.27 1.11-.81 1.49-1.08-2.35-3.26-5.03-6.26-7.76-9.18 1.16.44 3.5 1.34 4.66 1.78-1.68-2.26-3.68-4.34-4.79-6.99-.35.69-.71 1.39-1.06 2.09.4.71 1.18 2.12 1.57 2.83-1.81-1.55-3.56-3.2-5.05-5.06-3.62-5.08-8.63-9.05-14.01-12.14m41.49 2.4c-.74 2.23-1.97 4.23-3.28 6.17.86-.14 1.71-.27 2.57-.39a56.01 56.01 0 002.87-4.44c-.72-.45-1.44-.89-2.16-1.34z"/><path d="M66.33 75.32c2.69 2.07 1.64-2.32 3.54-3.27.93 1.08 1.25 2.3.96 3.68-1.36 1.33-3.4 1.17-5.09 1.76 2 1.93 4.53.9 6.7.16.84 1.78 1.5 3.67 2.55 5.35 1.74 1.59 4.21 1.96 6.36 2.71-3.23 1.77-3.68 5.54-4.19 8.8-2.99-1.65-6.14-2.98-9.21-4.48-3.1-.29-6.05-1.35-9.09-1.99 2.28 3.18 6.02 4.55 9.83 3.47 1.87 2.46 4.82 3.88 7.91 3.92-.51 2.18-.37 4.41-.01 6.6 3.83 2.35 8.02 5.65 12.7 3.28 2.06 2.77 5.62 3.16 8.66 4.19-1.05 3.65-2.58 7.14-3.76 10.74-3.76.82-7.8.16-11.65.04-3.94-1.41-5.46-5.71-8.6-8.13-2.16-1.18-4.7-1.11-7.07-1.51a34.84 34.84 0 012.24-6.05c-2.02-1.69-4.26-3.08-6.54-4.38-2.47 1.15-3.65 3.56-4.58 5.98-.96-1.71-1.46-3.76-2.93-5.13-1.48-.97-3.15-1.56-4.71-2.36.62-2.88 1.41-5.79 1.06-8.77.48-.49 1.42-1.46 1.89-1.95.88.29 1.75.58 2.62.88 1.32-.72 2.64-1.43 3.97-2.12 1.22-2.88 1.44-6.01 1.62-9.1 1.6-.78 3.21-1.54 4.82-2.32M52.64 90.04c1.17 2.06 3.38 3.09 5.17 4.52.64-.14 1.28-.26 1.93-.39 3.44 3.5 8.45 4.71 11.93 8.16 3.02 2.42 6.62 4 9.55 6.55 3.76 3.26 9.01 2.5 13.61 2.77-1.82-4.18-6.91-2.21-10.33-3.29-3.47-2.13-6.87-4.41-10.28-6.63-4.56-3.87-10.06-6.38-15.5-8.73-1.94-1.16-3.94-2.23-6.08-2.96zM88.36 82.3c.83.79 1.65 1.58 2.48 2.37-.48.76-1.42 2.27-1.9 3.03-.71-.34-2.14-1.02-2.85-1.36a320.5 320.5 0 002.27-4.04zM103.48 87.04c3.34-.69 6.23-2.69 9.29-3.87-.25 4.78-.25 9.6-.23 14.41-5.69.23-13.46 1.78-16.91-4.11-.55-2.68-1.39-5.23-4.31-6.07 1.02-1.31 2.04-2.63 3.04-3.95 3.05 1.19 6.03 2.51 9.12 3.59m-.64 6.31c.83.21 2.48.63 3.3.85.84-1.01 1.61-2.07 2.01-3.33-1.85.65-3.59 1.54-5.31 2.48m1.91 2.58c.16 1.84 3.96.75 3-.92-1.25-.58-2.25-.27-3 .92zM97.93 115.31c.65-1.48 1.29-2.95 1.92-4.42 4.27 3.52 9.54 5.87 15.1 6.23.45 2.23 1.48 4.26 2.29 6.37.44 2.77.19 5.61.24 8.42-1.98 3.62-4.49 7.03-7.9 9.42-1.64 1.23-3.7.42-5.55.49-4.66 0-9.3.73-13.96.47-1.32.1-1.76-1.37-2.51-2.13 2.79.19 5.53.91 8.31.96 5.97-5.85 5.85-15.6 1.31-22.24l.12-2.39c1.75.66 3.58 1.1 5.31 1.83 2.64 2.16 2.47 6.75 6.61 7.21-.51-3.35-2.66-5.98-4.35-8.79-2.33-.38-4.65-.83-6.94-1.43m6.66.39c2.15 2.91 4.3 5.86 6.98 8.32.55-4.12-3.69-6.93-6.98-8.32z"/><path d="M74.92 133.11c4.21.78 7.74 3.2 10.98 5.86-.77 2.65 1.25 5.69 4.14 5.41 5.97-.2 11.95-.26 17.91.21 5.08-.54 7.7-5.62 10.61-9.19 3.94 3.09 7.35 7.8 6.23 13.09-1.23.44-2.48.83-3.74 1.16-9.25.01-18.43 2.16-27.69 1.47-6.01-.4-8.95-6.93-14.68-8.22 2 2.71 4.36 5.15 6.95 7.3 3.23 2.67 7.86 1.61 11.29 3.85-6.33 1.56-12.87.06-19.27 1.09 2.21-4.66.07-9.47-.57-14.2-.4-2.7-1.34-5.25-2.16-7.83zM41.09 146.27c6.25-.51 12.68 1.1 18.79-.84.44 3.58.94 7.15 1.12 10.75l1.14-1.83c-.15.55-.47 1.66-.62 2.22.34 2.48.59 4.97.83 7.47l-1.86 1.29c-.18.61-.53 1.82-.71 2.43-3.4 1.19-7.32 1.32-10.19 3.72-2.43 1.83-4.1 5.02-7.41 5.35-3.34 1.05-5.8-2.22-8.63-3.41-3.14-1.45-2.26-5.5-2.65-8.26 1.47.92 2.92 1.87 4.34 2.86 4.77-2.59 9.99-5.19 12.53-10.28 4.56.34 9.16.63 13.67-.33l-1.35-2.52c-8.72.28-17.44.63-26.1 1.69-11.33.36-22.67.3-33.99.83v-9.61c13.71-.03 27.39-.9 41.09-1.53zM77.07 157.21c5.63-.08 11.31.15 16.9-.7.5-.31 1.51-.93 2.02-1.24-.47 5.7-.87 11.41-.37 17.13a50.742 50.742 0 00-6.46-4.86c-3.36.21-6.73.45-10.02 1.18.31.24.93.74 1.24.99-.17 2.85-.52 5.72-.21 8.58 2.58 1.92 4.69 4.38 7.07 6.53-2.63.63-5.3 1.11-7.95 1.67.46-4.69-.05-9.49-2-13.81-2.29-4.89-.7-10.37-.22-15.47zM51.46 173.44c3.75-1.32 7.67-2.25 11.02-4.52-.47 1.66.31 4.04-1.48 5.09-3.13 2.09-5.82 4.71-8.03 7.75-3.33-.06-6.55-2.94-9.75-.98.28-.66.85-1.99 1.14-2.66l-.13 1.34c2.64-1.74 4.87-3.96 7.23-6.02zM0 199.21c13.26-2.38 26.47-5.45 39.98-6.09 2.67 3.57 5.59 6.93 8.81 10.01-12.91 2.46-25.99 4.03-38.8 7-3.32.67-6.66 1.21-9.98 1.84l-.01-.93v-11.83z"/></g><g fill="#333"><path d="M94.88 37.01c-.45-5.79 3-12.71 9.25-13.5 4.68-1.43 9.76.07 13.75 2.59 3.57 4.37 4.59 10.53 3.09 15.92-1.73 6.89 1.54 13.94 5.92 19.15 4.08 4.53 5.93 10.85 5.03 16.88-.71 6.41 1.08 13.9-3.23 19.34 1.16-7.75 1.36-15.57 1.74-23.38-.28-9.37-9.56-14.89-10.87-23.88-.53-2.64-1.49-5.32-.72-8.01 1.2-4.29.46-8.86-1.13-12.94-1.51-3.38-5.82-3.39-8.78-4.78-3.74 1.25-8.71 1.97-10.31 6.14-1.98 5.36-1.82 11.4-.28 16.85.89 2.46 2.38 5.92 5.58 5.56 5.57.44 8.08-5.3 10.59-9.21.37 5.36-3.93 9.37-8.59 11.1.51 1.71.98 3.44 1.43 5.17 1.68.38 3.35.79 5.02 1.22 3.49-2.44 7.67-1.81 11.33-.14-2.27 1.48-4.98 1.06-7.52 1.37-1.76.72-3.33 1.82-4.93 2.82.22-.54.65-1.63.87-2.17-1.9-.26-3.85-1.35-5.76-.86-2.33 1.41-4.39 3.22-6.74 4.59 1.02-1.6 2.14-3.14 3.29-4.65-1.38-.15-2.75-.3-4.13-.47-3.52 3.71-5.87 8.27-8.88 12.35-1.39 1.86-1.85 4.17-2.55 6.33 1.74.13 3.46.51 5.09 1.13 3.95.12 7.5 1.78 10.78 3.83 2.68-1.04 5.32-2.16 7.91-3.41.43-.07 1.28-.2 1.7-.27 1.18-2.49-3.33-4.52-1.48-7.46 1.7 1.49 3.55 2.89 4.83 4.78.34 3.83-2.16 7.21-2.02 11.03-.38 3.22 2.23 5.47 3.83 7.93-1.48-.62-2.95-1.28-4.44-1.88.87 1.09 1.75 2.17 2.66 3.24-5.72-.57-11.67 2.06-17.12-.62-4.21-1.11-6.58-4.97-8.27-8.67-1.18-2.64-4.39-2.52-6.79-3.05-4.09 2.13-5.34 6.52-6.9 10.49.9 4.99 6.54 5.57 10.55 6.69 2.98 1.18 6.08 1.96 9.11 2.98 3.48 1.16 6.16 3.81 9.36 5.5 4.6 2.73 10.14 1.78 15.18 2.81.96-2.18 1.77-4.43 2.65-6.65 1.39-3.4 3.86-6.51 3.77-10.36.55-.34 1.64-1 2.18-1.33.14 4.75-3.33 8.29-4.3 12.73-.65 2.92-2.43 5.38-4.52 7.45-1.38-.04-2.75-.06-4.12-.08.78 2.44 2.02 4.7 2.89 7.1.63 3.11-.03 6.28-.29 9.39 5.23 2.77 9.87 8.32 7.88 14.6-5.7 3.86-12.52 5.41-19.35 5.36-.44 7.13.42 14.3-.4 21.42-.1 3.14-.63 6.57.53 9.54 4.01 3.27 8.53 6.11 11.58 10.4 1.79 2.6 3.96 4.91 6.36 6.96 0 3.5-.05 7 .01 10.5-4.4 1.71-9.71 2.98-14.05.46-5.44-4.9-10.75-10.23-14.15-16.8-10.08 2.06-19.94 6.06-30.41 5.49.83-1.35 2.43-1.65 3.83-2.05 7.14-1.88 14.46-2.95 21.64-4.66 2.36-.6 4.81-.56 7.22-.44-.3.51-.91 1.53-1.21 2.04 5.89 3.92 10.75 9.25 14.69 15.09 3.25-.56 6.54-.88 9.84-.73.25-2.45.5-4.9.77-7.35-5.62-6.2-11.72-11.97-18.11-17.36-1.23-8.39-.19-16.84-.39-25.27-.06-2.44.35-4.84.76-7.23-3.09.03-6.18-.02-9.26-.14.12 8.43.94 16.88.03 25.3.1 1.55-1.3 2.36-2.1 3.46-.1-2.24-.14-4.49-.2-6.73-2.24-1.74-4.06-3.94-5.66-6.27-2.37.31-4.75.55-7.14.75-.08 2.29-.17 4.57-.26 6.86 3.2 2.99 6.38 6.01 9.97 8.54-4.77 4.35-12 1.37-17.44 4.15-2.94 1.39-6.18 1.85-9.24 2.88-2.68 1.72-4.88 4.82-8.37 4.74-4.12.53-6.96-3.01-9.44-5.71 2.7 1.3 5.4 2.62 8.13 3.84 3.07-1.39 6.13-2.8 8.96-4.62 3.71-2.32 8.26-2.27 12.24-3.88.27-2.98.57-6-.1-8.95-.46-3.05-2.34-5.72-2.47-8.84-.11-4.34.13-8.71 1.11-12.95 1.42-6.85-.11-13.85-1.75-20.51-.84-2.22.45-4.31 1.27-6.3.19.54.56 1.62.75 2.16 3.95.18 7.72 1.74 10.42 4.65 2.8 2.02 7.82 4.12 10.16.41 2.26-4.95 1.11-10.64.23-15.8-.32.95-.64 1.91-.96 2.86-3.84-.04-7.7.01-11.53-.37-5.52-1.17-8.15-6.46-11.68-10.24-3.79.04-7.95.73-9.81 4.48-1.71 5.24-1.98 10.98-.88 16.39 1.31 6.02.61 12.25 1.82 18.28.99 4.9.49 9.92 1.18 14.86.04 2.65.85 6.1-1.55 8-2.72 2.26-5.36 4.6-7.72 7.24-.06.47-.17 1.4-.22 1.87-3.15-.53-6.31-1.01-9.43-1.71-1.21.52-2.4 1.08-3.64 1.53-.17-1.2-.38-2.4-.63-3.58-3.83-.15-6.56-3.07-9.53-5.1-2.97-1.99-3.82-5.65-5.06-8.77 1.7-.85 3.32-1.89 5.15-2.44 1.86-.1 3.13 1.63 4.61 2.49 2.55-2.93 5.85-5.09 8.28-8.13-14.98-.44-29.92.73-44.87 1.43v-2.39c11.32-.53 22.66-.47 33.99-.83 8.66-1.06 17.38-1.41 26.1-1.69l1.35 2.52c-4.51.96-9.11.67-13.67.33-2.54 5.09-7.76 7.69-12.53 10.28-1.42-.99-2.87-1.94-4.34-2.86.39 2.76-.49 6.81 2.65 8.26 2.83 1.19 5.29 4.46 8.63 3.41 3.31-.33 4.98-3.52 7.41-5.35 2.87-2.4 6.79-2.53 10.19-3.72.18-.61.53-1.82.71-2.43l1.86-1.29c-.24-2.5-.49-4.99-.83-7.47.15-.56.47-1.67.62-2.22L61 156.18c-.18-3.6-.68-7.17-1.12-10.75-6.11 1.94-12.54.33-18.79.84-13.7.63-27.38 1.5-41.09 1.53v-2.05c19.97-.67 39.95-1.07 59.91-2.05.08-3.93-.04-7.88-.94-11.73-1.2-4.31.39-8.61 1.35-12.78.59-2.99 3.07-4.96 5.23-6.86-.99-2.58-.13-5.11.89-7.51-1.26-.64-2.53-1.29-3.79-1.95a51.19 51.19 0 01-2.34 5.62c-3.19-.92-6.03-2.87-6.64-6.34-.73-.33-1.46-.67-2.19-1-1.65 1.74-3.61 3.39-4.34 5.76-.58 3.51 1.47 6.99.29 10.46-1.02 3.88.63 7.73.63 11.62-.01 4.82 1.79 9.57.68 14.39-1.95-2.72-2.23-6.07-2.11-9.31.19-4.12-1.21-8.06-1.78-12.09.39-3.6 1.23-7.21.44-10.84-.79-3.89 1.5-7.36 3.07-10.71-.06-.51-.2-1.53-.26-2.04 1.09-2.8.83-5.8.24-8.68 2.77-2.38 5.99-4.07 9.75-3.15.88-3.59 1.07-7.43 2.71-10.79 2.82-2.18 5.98-3.89 9.07-5.66 1.39.55 2.47 1.64 3.65 2.54-.03.63-.1 1.91-.13 2.55 1.5 2.32 2.71 4.81 3.91 7.29 2.33 1.18 4.52 2.62 6.91 3.68.85-1.71 1.53-3.5 2.26-5.26l.79.93c-.27-1.59-.56-3.17-.88-4.75 3.87-6.01 6.73-13.72 13.73-16.75 1.79-1.11 3.35.79 4.9 1.36-.05-2.23-.11-4.46-.19-6.69-2.28-.69-5.74-.29-6.73-3.05-2.06-4.7-2.85-9.87-3.21-14.95M66.33 75.32c-1.61.78-3.22 1.54-4.82 2.32-.18 3.09-.4 6.22-1.62 9.1-1.33.69-2.65 1.4-3.97 2.12-.87-.3-1.74-.59-2.62-.88-.47.49-1.41 1.46-1.89 1.95.35 2.98-.44 5.89-1.06 8.77 1.56.8 3.23 1.39 4.71 2.36 1.47 1.37 1.97 3.42 2.93 5.13.93-2.42 2.11-4.83 4.58-5.98 2.28 1.3 4.52 2.69 6.54 4.38a34.84 34.84 0 00-2.24 6.05c2.37.4 4.91.33 7.07 1.51 3.14 2.42 4.66 6.72 8.6 8.13 3.85.12 7.89.78 11.65-.04 1.18-3.6 2.71-7.09 3.76-10.74-3.04-1.03-6.6-1.42-8.66-4.19-4.68 2.37-8.87-.93-12.7-3.28-.36-2.19-.5-4.42.01-6.6-3.09-.04-6.04-1.46-7.91-3.92-3.81 1.08-7.55-.29-9.83-3.47 3.04.64 5.99 1.7 9.09 1.99 3.07 1.5 6.22 2.83 9.21 4.48.51-3.26.96-7.03 4.19-8.8-2.15-.75-4.62-1.12-6.36-2.71-1.05-1.68-1.71-3.57-2.55-5.35-2.17.74-4.7 1.77-6.7-.16 1.69-.59 3.73-.43 5.09-1.76.29-1.38-.03-2.6-.96-3.68-1.9.95-.85 5.34-3.54 3.27m22.03 6.98c-.75 1.35-1.5 2.7-2.27 4.04.71.34 2.14 1.02 2.85 1.36.48-.76 1.42-2.27 1.9-3.03-.83-.79-1.65-1.58-2.48-2.37m15.12 4.74c-3.09-1.08-6.07-2.4-9.12-3.59-1 1.32-2.02 2.64-3.04 3.95 2.92.84 3.76 3.39 4.31 6.07 3.45 5.89 11.22 4.34 16.91 4.11-.02-4.81-.02-9.63.23-14.41-3.06 1.18-5.95 3.18-9.29 3.87m-5.55 28.27c2.29.6 4.61 1.05 6.94 1.43 1.69 2.81 3.84 5.44 4.35 8.79-4.14-.46-3.97-5.05-6.61-7.21-1.73-.73-3.56-1.17-5.31-1.83l-.12 2.39c4.54 6.64 4.66 16.39-1.31 22.24-2.78-.05-5.52-.77-8.31-.96.75.76 1.19 2.23 2.51 2.13 4.66.26 9.3-.47 13.96-.47 1.85-.07 3.91.74 5.55-.49 3.41-2.39 5.92-5.8 7.9-9.42-.05-2.81.2-5.65-.24-8.42-.81-2.11-1.84-4.14-2.29-6.37-5.56-.36-10.83-2.71-15.1-6.23-.63 1.47-1.27 2.94-1.92 4.42m-23.01 17.8c.82 2.58 1.76 5.13 2.16 7.83.64 4.73 2.78 9.54.57 14.2 6.4-1.03 12.94.47 19.27-1.09-3.43-2.24-8.06-1.18-11.29-3.85-2.59-2.15-4.95-4.59-6.95-7.3 5.73 1.29 8.67 7.82 14.68 8.22 9.26.69 18.44-1.46 27.69-1.47 1.26-.33 2.51-.72 3.74-1.16 1.12-5.29-2.29-10-6.23-13.09-2.91 3.57-5.53 8.65-10.61 9.19-5.96-.47-11.94-.41-17.91-.21-2.89.28-4.91-2.76-4.14-5.41-3.24-2.66-6.77-5.08-10.98-5.86m2.15 24.1c-.48 5.1-2.07 10.58.22 15.47 1.95 4.32 2.46 9.12 2 13.81 2.65-.56 5.32-1.04 7.95-1.67-2.38-2.15-4.49-4.61-7.07-6.53-.31-2.86.04-5.73.21-8.58-.31-.25-.93-.75-1.24-.99 3.29-.73 6.66-.97 10.02-1.18 2.28 1.44 4.43 3.07 6.46 4.86-.5-5.72-.1-11.43.37-17.13-.51.31-1.52.93-2.02 1.24-5.59.85-11.27.62-16.9.7m-25.61 16.23c-2.36 2.06-4.59 4.28-7.23 6.02l.13-1.34c-.29.67-.86 2-1.14 2.66 3.2-1.96 6.42.92 9.75.98 2.21-3.04 4.9-5.66 8.03-7.75 1.79-1.05 1.01-3.43 1.48-5.09-3.35 2.27-7.27 3.2-11.02 4.52z"/><path d="M52.64 90.04c2.14.73 4.14 1.8 6.08 2.96 5.44 2.35 10.94 4.86 15.5 8.73 3.41 2.22 6.81 4.5 10.28 6.63 3.42 1.08 8.51-.89 10.33 3.29-4.6-.27-9.85.49-13.61-2.77-2.93-2.55-6.53-4.13-9.55-6.55-3.48-3.45-8.49-4.66-11.93-8.16-.65.13-1.29.25-1.93.39-1.79-1.43-4-2.46-5.17-4.52zM102.84 93.35c1.72-.94 3.46-1.83 5.31-2.48-.4 1.26-1.17 2.32-2.01 3.33-.82-.22-2.47-.64-3.3-.85zM104.75 95.93c.75-1.19 1.75-1.5 3-.92.96 1.67-2.84 2.76-3 .92zM122.16 105.65c1.37-3.97 1.84-8.77 5.26-11.61-.04 3.63-1.68 6.96-3.17 10.19-.28 1.13-.97 1.61-2.09 1.42zM104.59 115.7c3.29 1.39 7.53 4.2 6.98 8.32-2.68-2.46-4.83-5.41-6.98-8.32zM66.81 125.88c1.04-2.42 1.38-6.05 4.58-6.44-.37 2.84-2.3 4.92-4.58 6.44zM70.78 127.48c3.58-3.03 11.48-1.97 10.65 4.01-1.55-1.03-3.07-2.1-4.53-3.24-2.05-.22-4.09-.46-6.12-.77zM65.86 138.09c1.98 8.21 1.71 16.8 4.18 24.9-.76-.82-1.99-1.31-2.37-2.42-1.68-7.36-2.32-14.95-1.81-22.48zM71.27 158.03c-1.46-4.53-.51-9.4.1-14.01.76 4.63 1.42 9.45-.1 14.01zM25.19 171.86c5.38 3.09 10.39 7.06 14.01 12.14 1.49 1.86 3.24 3.51 5.05 5.06-.39-.71-1.17-2.12-1.57-2.83.35-.7.71-1.4 1.06-2.09 1.11 2.65 3.11 4.73 4.79 6.99-1.16-.44-3.5-1.34-4.66-1.78 2.73 2.92 5.41 5.92 7.76 9.18-.38.27-1.12.81-1.49 1.08-5.06-4.21-8.51-9.95-13.3-14.44-3.88-3.48-7.08-7.67-11.41-10.65l-.24-2.66zM66.68 174.26c.72.45 1.44.89 2.16 1.34-.88 1.53-1.85 3-2.87 4.44-.86.12-1.71.25-2.57.39 1.31-1.94 2.54-3.94 3.28-6.17z"/><path d="M29.22 180.37c4.28 3.84 8.12 8.16 12.61 11.77 5.26 6 10.71 12.01 14.03 19.38 4.49-.2 9.13-.58 12.77-3.52-3.06-3.39-5.51-7.29-7.35-11.47 3.6 2.25 5.95 5.85 8.24 9.33.06 1.31.13 2.61.22 3.93-1.31 1.28-2.46 2.8-4.05 3.76-3.34.39-6.71.06-10.05.33-2.56-3.07-4.73-6.44-6.53-10.01-5.04 2.53-10.54 4.03-16.13 4.71-11.04 1.66-21.82 5-32.98 5.88v-3.42l.01.93c3.32-.63 6.66-1.17 9.98-1.84 12.81-2.97 25.89-4.54 38.8-7-3.22-3.08-6.14-6.44-8.81-10.01-13.51.64-26.72 3.71-39.98 6.09v-1.64c12.47-2.43 24.98-4.86 37.65-5.97-3.21-3.42-6.65-6.79-8.43-11.23z"/></g></svg>