<svg width="277pt" height="125pt" viewBox="0 0 277 125" xmlns="http://www.w3.org/2000/svg"><g fill="#FFF"><path d="M0 0h277v125H0V0m148.42 7.47c-5.71 3.53-12.18 5.58-18.08 8.75-4.95 2.58-8 7.51-12.64 10.51-1.98 1.47-4.4 2.1-6.62 3.09-2.36-4.27-6.01-7.98-6.98-12.9-.47-3.55-3.08-6.4-5.98-8.24-1.71.75-3.18 1.91-4.62 3.06-4.62 1.49-7.69 6.45-7.55 11.19 1.26 4.64 2.14 10 6.55 12.79.53 1.27 1.06 2.53 1.59 3.8-9.9 3.25-18.72 9.65-29.24 11.04-5.09.53-10.68 1.55-15.34-1.2-4.42-2.58-9.29-4.17-14.03-6.04-1.85-.64-2.62-2.63-3.8-4.04-3.78-2.1-7.51-4.34-11.74-5.43l-2.64.8c-.96 2.8-3.1 5.81-1.56 8.8 1.06 2.36 1.11 4.96 1.76 7.43 2.35 5.14 8.16 6.89 11.88 10.71 2.52 5.1 1.99 11.47 5.78 16.03 2.08 3.01 5.82 3.79 8.84 5.51 4.46-.95 8.29-3.53 11.78-6.35 4.46-4.78 10.44-8.75 17.18-8.95 9.03-.41 18.06-1.27 27.11-1.01 2.58-.2 4.96-1.28 7.39-2.1 3.51-1.29 7.35-2.34 9.99-5.18 3.2-2.53 5.28-6.25 9.12-7.98 2.67 3.61 1 8.67 3.69 12.12.9-4.26.36-8.78-2.87-11.95.88-.78 1.75-1.58 2.58-2.43-4.63.16-8.38 3.11-11.76 5.97-5.5 4.59-11.94 8.4-19.09 9.55-8.86-.08-17.7.61-26.54 1.05-6.77.71-12.98 4.3-17.71 9.1-3.72 3.68-8.84 6.54-14.24 5.76-2-2.4-4.68-4.48-5.47-7.65-1.43-4.08-1.08-8.88-3.85-12.41-3.09-3.34-7.42-5.21-10.64-8.4-1.53-1.28-1.29-3.35-1.59-5.12-.22-2.17-1.75-3.97-1.92-6.16.03-1.9.93-3.63 1.59-5.36-.08 2.6-.44 5.39 1.56 7.41.51-2.36.9-4.79 2.15-6.91 4.16 2.42 8.41 4.84 11.49 8.63 6.4 1.44 11.76 5.63 17.95 7.65 6.63 1.07 13.48.35 19.95-1.34 6.76-2.18 13.14-5.36 19.62-8.23 5.14-2.23 10.88-2.8 15.81-5.57 2.28-1.28 4.95-1.56 7.3-2.67 2.16-1.38 4.02-3.31 6.57-4 3.83-1.41 8.03-.12 11.45 1.78 2.34 2.37 3.89 5.39 6.13 7.87 3.59 4.75 8.62 8.2 11.92 13.19 2.39 3.63 4.24 7.59 6.5 11.3 1.31 2.58 3.35 5.6 2.01 8.56-2.36 2.64-5.17 4.9-8.13 6.82-5.47 2.59-12 3.39-17.76 1.22-1.31-.7-2.56.14-3.61.88-1.05-1.03-2.33-2.01-2.36-3.61.43.45 1.28 1.36 1.71 1.82 1.22-.76 2.46-1.48 3.66-2.26-2.01-.8-4.19-1.68-5.16-3.78-3.69-4.98-2.19-11.57-4.53-17.09-.53.62-1.06 1.24-1.58 1.87.41 2.57.73 5.16.95 7.76.25 3.52 2.39 6.47 4.03 9.46-.48 1.13-.87 2.28-1.17 3.46 1.33 1.97 3.26 3.95 5.8 4.05 3.33.26 6.63.92 9.97.98 3.79-.59 7.54-1.48 11.1-2.88 4.47-1.89 7.91-5.64 10.08-9.92 1.61 4.61 4.49 9.79 2.32 14.68-1.52 2.42-3.8 4.23-5.62 6.41 4.11-.93 7.29-3.59 9.28-7.26-.08 3.78-1.45 7.32-2.41 10.93 2.87-.98 3.1-4.22 4.28-6.55.91 3.83.69 7.79.49 11.69 1.06-.36 2.16-.66 3.29-.56-1.4 2.74-2.47 6.59-5.8 7.58-4.06 1.26-7.47 4.61-11.95 4.32-6.73-1.14-13.6-2.53-19.57-6-.8-1.31-1.07-2.84-1.53-4.28-4.79-2.27-10.28-4.03-13.5-8.52-2.67-3.44-2.73-8.15-2.17-12.27 1.46-4.51 3.19-9.04 2.82-13.89-2.73 1.96-1.85 5.76-3.22 8.5-2.51 5.64-2.78 12.48.51 17.87 2.85 5.22 8.29 8 13.54 10.23 1.11 2.19 2.49 4.43 4.97 5.22 7.01 2.79 14.51 6.11 22.22 4.54 3.44-1 6.4-3.2 9.81-4.32 2.74-.88 3.28-4.27 5.51-5.74 12-3.17 22.56-10.58 30.86-19.68 3.2-3.71 4.21-8.69 7.09-12.61 2.26-3.01 3.07-6.72 4.1-10.26 1.28-3.25 3.1-6.46 2.92-10.07-.24-5.37-1.23-11.58-6.05-14.83.32-.38.95-1.14 1.27-1.52 3.52-3.87 1.63-9.38.24-13.74-.51-2.21-2.63-3.33-4.24-4.66-.95-1.63-1.7-3.43-3.07-4.76-6.14-4.11-13.87-5.04-21.04-3.74-3.18.8-4.91 3.81-6.46 6.43-5.46-1.43-10.56.94-15.6 2.66-1.59-4.06-3.19-8.58-6.95-11.15-3.18-1.52-7.01-.71-10.08.74M49.79 64.35c2.6 1.8 5.66 2.73 8.66 1.28.15-.77.44-2.33.59-3.1-1.76.96-3.52 1.92-5.3 2.84-1.35-.68-2.7-1.35-4.05-2.03.03.25.07.76.1 1.01z"/><path d="M149.22 9.14c2.66-1.55 6.26-2.39 8.94-.42 3.07 1.25 3.66 4.8 4.99 7.46 1.13 2.08.49 4.43.53 6.66.64 7.8-.7 15.6-2.2 23.23-5.35-.68-10.6-2.49-16.07-1.6-2.73-2.57-5.26-5.31-7.8-8.06 3.2-.61 6.49-1.46 8.96-3.72 3.05-2.06 4.25-5.73 6.83-8.24 1.12-1.15 2.2-2.33 3.09-3.68-6.75 1.43-7.72 9.64-13.47 12.45-2.01 1.14-4.38 1.33-6.58 1.85-.48-1.22-.94-2.44-1.39-3.67-3.16-1.68-6.49-3.39-10.14-3.51-3.14-.21-5.87 1.56-8.74 2.52 1.98-1.79 4.15-3.35 6.37-4.84 3.5-2.32 5.83-6.07 9.56-8.08 5.62-2.96 11.69-5.02 17.12-8.35zM182.49 15.44c1.79-2.11 3.13-5.66 6.47-5.42 6.89-.5 15.52.05 19.69 6.4-8.39 4.75-17.43-.84-26.16-.98zM94.75 15.13c.76-2.33 2.61-3.73 4.88-4.44 2.89 3.66 2.47 8.68 5.09 12.47 2.02 2.93 3.89 5.95 5.66 9.04 1.14-.38 3.42-1.14 4.56-1.53l-.25-.99c.6.4 1.2.8 1.8 1.21-2.72 1.84-5.87 2.65-8.97 3.58-3.71 1.71-7.45 3.36-11.42 4.39-.55-2.41-1.75-4.6-3.74-6.1-2.4-1.69-2.38-4.86-3.6-7.29-1.79-3.66.57-7.74 3.24-10.25.69-.02 2.06-.07 2.75-.09z"/><path d="M166.72 18.6c2.81-.53 5.52-1.48 8.31-2.11 5.98.35 12.05.86 17.75 2.82 5.66 1.85 11.7 1.3 17.26-.53 4.44 1.21 5.13 6.4 5.62 10.25.47 3.21-1.64 5.73-3.94 7.62l.62-1.28c-3.28-2.09-7.06-2.97-10.7-4.09-5.78-4.33-12.29-9.6-20.02-8.48 5.59 1.75 11.66 3.21 15.71 7.82 1.91 2.73 3.43 5.84 6.24 7.79-.57-1.62-1.21-3.22-1.82-4.82 5.56.29 10.53 3.46 14.21 7.44 2.72 5.21 3.64 11.72 1.03 17.17-2.05 3.93-2.14 8.56-4.49 12.35-2.99 4.95-5.07 10.6-9.4 14.61-8.14 7.5-16.97 14.82-27.83 17.91 2.5-4.94 2.17-10.88-.55-15.64-2.18-3.09-5.06-5.62-8.08-7.87-1.42-4.76-2.9-9.81-6.52-13.4 1.6-.97 3.48-1.99 3.3-4.18 2.01-2.31 3.52-4.99 5.23-7.51-3.76.1-5.2 3.66-5.63 6.83-.48-.65-1.44-1.97-1.92-2.63-.18 2.34-.3 4.71-.98 6.98-4.61-6.93-7.85-14.75-13.86-20.7 5.31.79 10.36 2.74 15.75 3.13-1.02 1.88-2.09 3.73-3.34 5.47.77 1.78 1.68 3.49 2.66 5.16 1.05-1.43 2.04-2.91 3.23-4.24 2.17-2.71 6.69-1.23 8.64-4.23 1.93-2.81 4.76-4.77 7.89-6.06 1.69.98 3.4 1.93 5.11 2.88-1.42.44-2.83.91-4.24 1.39 3.32.37 6.57 1.54 9.94 1.25 2.72.65 5.43 1.39 8.18 1.96-2.26 2.06-2.63 5.49-5.19 7.22-.87-.75-1.62-1.6-2.24-2.55.73-.92 1.46-1.85 2.17-2.78-.86-1.36-1.93-.15-2.76.5-1.58 1.41-2.65 3.31-4.38 4.57-3.61 1.18-7.76 1.19-10.62 4.04-1.9-.03-3.79-.03-5.68-.05-.05-3.88 1.14-7.53 2.84-10.97-3.9 2.66-4.84 7.4-4.61 11.83-1.92 2.12-4 4.11-5.77 6.36 1.8-.48 3.4-1.37 4.06-3.22 2.12-1.52 4.45-2.85 7.17-2.37 2.79.57 4.68-1.8 6.88-3.02 2.53.26 4.96-.53 7.36-1.21.51-.94 1.02-1.87 1.55-2.8 1.27 1.29 2.6 2.52 3.98 3.69-.77 1.14-1.56 2.29-2.33 3.43-1.92-.63-3.64-1.69-5.37-2.69.11.51.34 1.52.45 2.03-5.53-.51-10.79 2.31-13.76 6.92 2.41-.74 4.16-2.6 6.2-3.97 2.96-.47 6.09.06 8.91-1.23.84.16 2.52.46 3.36.62.27 3.69 1.94 7.04 2.84 10.59.35-.04 1.07-.13 1.43-.17-.48-2.51-1.29-4.94-1.92-7.42-.3-2.87 1.08-5.55 2.21-8.1.67 1.16 1.35 2.32 2.06 3.46.06-4.21.62-8.44 2.68-12.18 3.01 1.37 5.93 3.03 9.2 3.68-3.96-4.28-9.88-5.65-15.27-7.21-6.56-1.79-12.72-5-17.87-9.46-6-4.02-11.21-9.94-12.73-17.16.47-1.21 1.16-2.31 1.79-3.44m36.35 21.45c-.13 4.05 2.23 8.02 6.1 9.44-2.01-3.16-4.13-6.25-6.1-9.44m-.6 13.43c-.23 2.63-.04 5.27.17 7.9 1.43 1.08 3.04 1.81 4.88 1.49-2.3-2.79-3.53-6.17-5.05-9.39m-29.13 18.96c2.44-.02 4.99-.74 7.4-.02 2.02.44 4.2 2.03 6.06.29-3.7-3.18-9.81-3.97-13.46-.27m-5.17 5.4c2.39.11 4.45-1.88 6.91-1.6 1.83-.29 4.74 1.42 5.35-1.18-3.68-2.47-10.1-.45-12.26 2.78m26.65.83c-2.55 3.46-4.69 7.29-7.93 10.19-1.4 1.26-2.76 2.57-3.89 4.08 4.69-1.91 8.18-5.84 11.08-9.86 1.04-1.25.73-2.92.74-4.41z"/><path d="M165.22 28.93c3.22 6.52 9.87 9.9 15.02 14.61-2.09.76-4.52.94-6.23 2.51-1.94 1.68-3.19 4.4-5.99 4.8-3.32.73-5.1 3.91-7.35 6.12-.19-4.03 4.43-7.52 2.33-11.37 1.75-5.37 2.04-11.06 2.22-16.67m6.03 10.18c-.39 2.89-.17 5.83.9 8.56 1.62-2.63 1.02-6.24-.9-8.56zM166.84 80.88c6.21 4.56 8.89 12.46 7.22 19.93-.6-.69-1.19-1.38-1.78-2.08-.01-2.95.28-6.11-1.16-8.81-1.63-2.94-4.18-5.44-4.28-9.04z"/></g><g fill="#333"><path d="M148.42 7.47c3.07-1.45 6.9-2.26 10.08-.74 3.76 2.57 5.36 7.09 6.95 11.15 5.04-1.72 10.14-4.09 15.6-2.66 1.55-2.62 3.28-5.63 6.46-6.43 7.17-1.3 14.9-.37 21.04 3.74 1.37 1.33 2.12 3.13 3.07 4.76 1.61 1.33 3.73 2.45 4.24 4.66 1.39 4.36 3.28 9.87-.24 13.74-.32.38-.95 1.14-1.27 1.52 4.82 3.25 5.81 9.46 6.05 14.83.18 3.61-1.64 6.82-2.92 10.07-1.03 3.54-1.84 7.25-4.1 10.26-2.88 3.92-3.89 8.9-7.09 12.61-8.3 9.1-18.86 16.51-30.86 19.68-2.23 1.47-2.77 4.86-5.51 5.74-3.41 1.12-6.37 3.32-9.81 4.32-7.71 1.57-15.21-1.75-22.22-4.54-2.48-.79-3.86-3.03-4.97-5.22-5.25-2.23-10.69-5.01-13.54-10.23-3.29-5.39-3.02-12.23-.51-17.87 1.37-2.74.49-6.54 3.22-8.5.37 4.85-1.36 9.38-2.82 13.89-.56 4.12-.5 8.83 2.17 12.27 3.22 4.49 8.71 6.25 13.5 8.52.46 1.44.73 2.97 1.53 4.28 5.97 3.47 12.84 4.86 19.57 6 4.48.29 7.89-3.06 11.95-4.32 3.33-.99 4.4-4.84 5.8-7.58-1.13-.1-2.23.2-3.29.56.2-3.9.42-7.86-.49-11.69-1.18 2.33-1.41 5.57-4.28 6.55.96-3.61 2.33-7.15 2.41-10.93-1.99 3.67-5.17 6.33-9.28 7.26 1.82-2.18 4.1-3.99 5.62-6.41 2.17-4.89-.71-10.07-2.32-14.68-2.17 4.28-5.61 8.03-10.08 9.92-3.56 1.4-7.31 2.29-11.1 2.88-3.34-.06-6.64-.72-9.97-.98-2.54-.1-4.47-2.08-5.8-4.05.3-1.18.69-2.33 1.17-3.46-1.64-2.99-3.78-5.94-4.03-9.46-.22-2.6-.54-5.19-.95-7.76.52-.63 1.05-1.25 1.58-1.87 2.34 5.52.84 12.11 4.53 17.09.97 2.1 3.15 2.98 5.16 3.78-1.2.78-2.44 1.5-3.66 2.26-.43-.46-1.28-1.37-1.71-1.82.03 1.6 1.31 2.58 2.36 3.61 1.05-.74 2.3-1.58 3.61-.88 5.76 2.17 12.29 1.37 17.76-1.22 2.96-1.92 5.77-4.18 8.13-6.82 1.34-2.96-.7-5.98-2.01-8.56-2.26-3.71-4.11-7.67-6.5-11.3-3.3-4.99-8.33-8.44-11.92-13.19-2.24-2.48-3.79-5.5-6.13-7.87-3.42-1.9-7.62-3.19-11.45-1.78-2.55.69-4.41 2.62-6.57 4-2.35 1.11-5.02 1.39-7.3 2.67-4.93 2.77-10.67 3.34-15.81 5.57-6.48 2.87-12.86 6.05-19.62 8.23-6.47 1.69-13.32 2.41-19.95 1.34-6.19-2.02-11.55-6.21-17.95-7.65-3.08-3.79-7.33-6.21-11.49-8.63-1.25 2.12-1.64 4.55-2.15 6.91-2-2.02-1.64-4.81-1.56-7.41-.66 1.73-1.56 3.46-1.59 5.36.17 2.19 1.7 3.99 1.92 6.16.3 1.77.06 3.84 1.59 5.12 3.22 3.19 7.55 5.06 10.64 8.4 2.77 3.53 2.42 8.33 3.85 12.41.79 3.17 3.47 5.25 5.47 7.65 5.4.78 10.52-2.08 14.24-5.76 4.73-4.8 10.94-8.39 17.71-9.1 8.84-.44 17.68-1.13 26.54-1.05 7.15-1.15 13.59-4.96 19.09-9.55 3.38-2.86 7.13-5.81 11.76-5.97-.83.85-1.7 1.65-2.58 2.43 3.23 3.17 3.77 7.69 2.87 11.95-2.69-3.45-1.02-8.51-3.69-12.12-3.84 1.73-5.92 5.45-9.12 7.98-2.64 2.84-6.48 3.89-9.99 5.18-2.43.82-4.81 1.9-7.39 2.1-9.05-.26-18.08.6-27.11 1.01-6.74.2-12.72 4.17-17.18 8.95-3.49 2.82-7.32 5.4-11.78 6.35-3.02-1.72-6.76-2.5-8.84-5.51-3.79-4.56-3.26-10.93-5.78-16.03-3.72-3.82-9.53-5.57-11.88-10.71-.65-2.47-.7-5.07-1.76-7.43-1.54-2.99.6-6 1.56-8.8l2.64-.8c4.23 1.09 7.96 3.33 11.74 5.43 1.18 1.41 1.95 3.4 3.8 4.04 4.74 1.87 9.61 3.46 14.03 6.04 4.66 2.75 10.25 1.73 15.34 1.2 10.52-1.39 19.34-7.79 29.24-11.04-.53-1.27-1.06-2.53-1.59-3.8-4.41-2.79-5.29-8.15-6.55-12.79-.14-4.74 2.93-9.7 7.55-11.19 1.44-1.15 2.91-2.31 4.62-3.06 2.9 1.84 5.51 4.69 5.98 8.24.97 4.92 4.62 8.63 6.98 12.9 2.22-.99 4.64-1.62 6.62-3.09 4.64-3 7.69-7.93 12.64-10.51 5.9-3.17 12.37-5.22 18.08-8.75m.8 1.67c-5.43 3.33-11.5 5.39-17.12 8.35-3.73 2.01-6.06 5.76-9.56 8.08-2.22 1.49-4.39 3.05-6.37 4.84 2.87-.96 5.6-2.73 8.74-2.52 3.65.12 6.98 1.83 10.14 3.51.45 1.23.91 2.45 1.39 3.67 2.2-.52 4.57-.71 6.58-1.85 5.75-2.81 6.72-11.02 13.47-12.45-.89 1.35-1.97 2.53-3.09 3.68-2.58 2.51-3.78 6.18-6.83 8.24-2.47 2.26-5.76 3.11-8.96 3.72 2.54 2.75 5.07 5.49 7.8 8.06 5.47-.89 10.72.92 16.07 1.6 1.5-7.63 2.84-15.43 2.2-23.23-.04-2.23.6-4.58-.53-6.66-1.33-2.66-1.92-6.21-4.99-7.46-2.68-1.97-6.28-1.13-8.94.42m33.27 6.3c8.73.14 17.77 5.73 26.16.98-4.17-6.35-12.8-6.9-19.69-6.4-3.34-.24-4.68 3.31-6.47 5.42m-87.74-.31c-.69.02-2.06.07-2.75.09-2.67 2.51-5.03 6.59-3.24 10.25 1.22 2.43 1.2 5.6 3.6 7.29 1.99 1.5 3.19 3.69 3.74 6.1 3.97-1.03 7.71-2.68 11.42-4.39 3.1-.93 6.25-1.74 8.97-3.58-.6-.41-1.2-.81-1.8-1.21l.25.99c-1.14.39-3.42 1.15-4.56 1.53-1.77-3.09-3.64-6.11-5.66-9.04-2.62-3.79-2.2-8.81-5.09-12.47-2.27.71-4.12 2.11-4.88 4.44m71.97 3.47c-.63 1.13-1.32 2.23-1.79 3.44 1.52 7.22 6.73 13.14 12.73 17.16 5.15 4.46 11.31 7.67 17.87 9.46 5.39 1.56 11.31 2.93 15.27 7.21-3.27-.65-6.19-2.31-9.2-3.68-2.06 3.74-2.62 7.97-2.68 12.18-.71-1.14-1.39-2.3-2.06-3.46-1.13 2.55-2.51 5.23-2.21 8.1.63 2.48 1.44 4.91 1.92 7.42-.36.04-1.08.13-1.43.17-.9-3.55-2.57-6.9-2.84-10.59-.84-.16-2.52-.46-3.36-.62-2.82 1.29-5.95.76-8.91 1.23-2.04 1.37-3.79 3.23-6.2 3.97 2.97-4.61 8.23-7.43 13.76-6.92-.11-.51-.34-1.52-.45-2.03 1.73 1 3.45 2.06 5.37 2.69.77-1.14 1.56-2.29 2.33-3.43-1.38-1.17-2.71-2.4-3.98-3.69-.53.93-1.04 1.86-1.55 2.8-2.4.68-4.83 1.47-7.36 1.21-2.2 1.22-4.09 3.59-6.88 3.02-2.72-.48-5.05.85-7.17 2.37-.66 1.85-2.26 2.74-4.06 3.22 1.77-2.25 3.85-4.24 5.77-6.36-.23-4.43.71-9.17 4.61-11.83-1.7 3.44-2.89 7.09-2.84 10.97 1.89.02 3.78.02 5.68.05 2.86-2.85 7.01-2.86 10.62-4.04 1.73-1.26 2.8-3.16 4.38-4.57.83-.65 1.9-1.86 2.76-.5-.71.93-1.44 1.86-2.17 2.78.62.95 1.37 1.8 2.24 2.55 2.56-1.73 2.93-5.16 5.19-7.22-2.75-.57-5.46-1.31-8.18-1.96-3.37.29-6.62-.88-9.94-1.25 1.41-.48 2.82-.95 4.24-1.39-1.71-.95-3.42-1.9-5.11-2.88-3.13 1.29-5.96 3.25-7.89 6.06-1.95 3-6.47 1.52-8.64 4.23-1.19 1.33-2.18 2.81-3.23 4.24-.98-1.67-1.89-3.38-2.66-5.16 1.25-1.74 2.32-3.59 3.34-5.47-5.39-.39-10.44-2.34-15.75-3.13 6.01 5.95 9.25 13.77 13.86 20.7.68-2.27.8-4.64.98-6.98.48.66 1.44 1.98 1.92 2.63.43-3.17 1.87-6.73 5.63-6.83-1.71 2.52-3.22 5.2-5.23 7.51.18 2.19-1.7 3.21-3.3 4.18 3.62 3.59 5.1 8.64 6.52 13.4 3.02 2.25 5.9 4.78 8.08 7.87 2.72 4.76 3.05 10.7.55 15.64 10.86-3.09 19.69-10.41 27.83-17.91 4.33-4.01 6.41-9.66 9.4-14.61 2.35-3.79 2.44-8.42 4.49-12.35 2.61-5.45 1.69-11.96-1.03-17.17-3.68-3.98-8.65-7.15-14.21-7.44.61 1.6 1.25 3.2 1.82 4.82-2.81-1.95-4.33-5.06-6.24-7.79-4.05-4.61-10.12-6.07-15.71-7.82 7.73-1.12 14.24 4.15 20.02 8.48 3.64 1.12 7.42 2 10.7 4.09l-.62 1.28c2.3-1.89 4.41-4.41 3.94-7.62-.49-3.85-1.18-9.04-5.62-10.25-5.56 1.83-11.6 2.38-17.26.53-5.7-1.96-11.77-2.47-17.75-2.82-2.79.63-5.5 1.58-8.31 2.11m-1.5 10.33c-.18 5.61-.47 11.3-2.22 16.67 2.1 3.85-2.52 7.34-2.33 11.37 2.25-2.21 4.03-5.39 7.35-6.12 2.8-.4 4.05-3.12 5.99-4.8 1.71-1.57 4.14-1.75 6.23-2.51-5.15-4.71-11.8-8.09-15.02-14.61m1.62 51.95c.1 3.6 2.65 6.1 4.28 9.04 1.44 2.7 1.15 5.86 1.16 8.81.59.7 1.18 1.39 1.78 2.08 1.67-7.47-1.01-15.37-7.22-19.93z"/><path d="M171.25 39.11c1.92 2.32 2.52 5.93.9 8.56-1.07-2.73-1.29-5.67-.9-8.56zM203.07 40.05c1.97 3.19 4.09 6.28 6.1 9.44-3.87-1.42-6.23-5.39-6.1-9.44zM202.47 53.48c1.52 3.22 2.75 6.6 5.05 9.39-1.84.32-3.45-.41-4.88-1.49-.21-2.63-.4-5.27-.17-7.9zM49.79 64.35c-.03-.25-.07-.76-.1-1.01 1.35.68 2.7 1.35 4.05 2.03 1.78-.92 3.54-1.88 5.3-2.84-.15.77-.44 2.33-.59 3.1-3 1.45-6.06.52-8.66-1.28zM173.34 72.44c3.65-3.7 9.76-2.91 13.46.27-1.86 1.74-4.04.15-6.06-.29-2.41-.72-4.96 0-7.4.02zM168.17 77.84c2.16-3.23 8.58-5.25 12.26-2.78-.61 2.6-3.52.89-5.35 1.18-2.46-.28-4.52 1.71-6.91 1.6zM194.82 78.67c-.01 1.49.3 3.16-.74 4.41-2.9 4.02-6.39 7.95-11.08 9.86 1.13-1.51 2.49-2.82 3.89-4.08 3.24-2.9 5.38-6.73 7.93-10.19z"/></g></svg>