<svg width="317pt" height="300" viewBox="0 0 317 225" xmlns="http://www.w3.org/2000/svg"><g fill="#FFF"><path d="M0 0h317v225H0V0m93 71.05c-2.88.77-5.4 2.44-8.06 3.74-.77-.75-1.54-1.5-2.3-2.25-3.27-.63-6.89-1.97-9.93.14-4.95 2.04-7.14 7.23-8.96 11.88-2.61-1.98-5.22-4.33-8.64-4.67-4.02-.89-8.01.63-11.3 2.87-.39-.62-1.18-1.86-1.58-2.48-2.35.48-4.36 1.76-6.01 3.47.97 1.36 1.96 2.71 2.96 4.04-5.6 10.11-5.52 23.81 2.08 32.89 4.75 4.87 11.67 8.64 18.66 7.01 1.77-.25 2.92-1.69 3.98-2.98-6.08 1.53-12.79 1.39-18.26-1.98-9.19-8.16-10.83-23.08-4.48-33.44 1.94-3.27 5.08-5.85 8.72-6.99 4.59-.73 9.35-.29 13.47 1.99-.7 3.64.11 7.36 1.64 10.69 1.63 3.26 5.16 4.82 7.97 6.87-1.34 3.53-.69 7.44-1.91 10.99-.58 1.9-1.2 3.79-1.71 5.72 1.32-.35 2.55-.94 2.59-2.51 1.16-3.55 1.95-7.28 1.41-11.03.69-.59 1.4-1.16 2.12-1.72-.47 7.96-1.34 15.89-.58 23.86-1.67.94-3.32 1.92-4.93 2.96-4.79-7.57-10.09-14.8-14.74-22.45-1.46-1.61.88-3.76 2.25-2.13 4.95 7.04 9.29 14.52 14.41 21.44.24-.04.73-.11.97-.15.05-.28.16-.83.21-1.11-5-7.95-10.27-15.78-15.64-23.5-1.86 1.21-5.16 1.9-4.59 4.78.62 2.24 2.25 4.02 3.41 5.99 4.54 6.57 8.72 13.37 13.19 19.99 1.44-1.21 2.89-2.41 4.38-3.56.28.82.84 2.46 1.12 3.27 2.19-4.62 1.5-9.73 1.04-14.63.62-4.73.93-9.48.99-14.25 2.68 2.52 1.45 6.54 2.57 9.74-1.43 2.07-1.82 4.57-1.86 7.03 3.07-4.47 2.67-9.91 2.71-15.06 4.66.27 6.13-5.05 10.37-5.42.32 5.2-.21 10.51-2.13 15.39-1.18 2.98-3.5 5.43-4.3 8.57-.86 4.67-1.73 10.42 2.59 13.74-.83 2.15-1.68 4.29-2.51 6.44-1.3-1.52-2.05-3.66-3.94-4.59-3.33.45-4.44 4.18-3.78 7.05-4.3-2.5-7.06-7.36-7.01-12.33-.58 1.63-1.15 3.27-1.7 4.91 2.37 2.9 3.97 6.54 7.17 8.68 1.31.9 2.71-.41 3.93-.83 2.55 4.27 4.96 8.62 7.85 12.67-1.09 3.03-1.5 6.23-2.06 9.38 3.45 3.15 6.14 7 9.15 10.54 2.07-.32 4.16-.61 6.26-.73 1.95 4.22 4.7 8.03 7.58 11.65-6.24 8.99-7.09 21.04-3.81 31.3.69 1.67 1.59 4.38 4.18 2.96-4.81-8.3-4.57-18.86-1.03-27.58 2.67-6.48 8.45-12.46 15.83-12.68 5.55-.63 10.47 2.58 14.93 5.44 6.64 5.91 9.1 15.33 8.39 23.97-.3 2.01.37 3.86 1.68 5.4 1.37-7.83.5-16.16-3.06-23.32-3.25-6.37-9.37-10.82-15.98-13.22-5.44-1.6-11.44-.91-16.06 2.47-2.23-3.48-4.63-6.85-6.86-10.34 3.13-2.01 4.25-5.5 5.68-8.72-.37-.46-.73-.92-1.09-1.38 1.97-3.71 4.1-7.3 6.82-10.51 2.71-3.22 3.74-7.33 4.38-11.39.68-4.67 4.87-8.16 4.37-13.11-.17-5.96.79-11.81 1.53-17.69 3.19.43 6.4.86 9.63.87 6.33-4.81 14.4-2.1 21.61-2.57 1.44 1.49 3.42 1.59 5.36 1.63 2.78 1.56 5.46 3.45 8.62 4.19 2.35.31 4.61-.73 6.95-.85 4.78-.04 9.4 1.41 14.12 1.86 4.03.45 7.32-2.41 11.2-2.92 3.74-.52 6.88-3.23 10.74-3 5.73-.07 9.4-5.69 15.01-6.29 4.09-.98 8.67-.91 12.28-3.29-.69 1.79-1.45 3.55-2.46 5.18 1.29 2.8 2.19 6.07 5.1 7.64-.93-2.53-2-5.01-2.92-7.54 1.67-2.12 1.76-4.8 1.99-7.36 1.61-.48 3.26-.82 4.91-1.17 1.21 2.3 2.46 4.59 3.53 6.96-1.49 2.63-3.53 4.83-5.58 7.01-.21 1.39-.1 2.81-.09 4.22 3.79 1.11 8.02 2.54 11.86.87 2.8-1.03 6.32-2.54 7.04-5.76.53-4.95.01-9.99 1.08-14.89.46-4.46 1.64-9.58-1.4-13.44-1.86-3.18-6.06-1.76-8.96-1.27-1.14-1.49-2.33-2.93-3.53-4.37-1.57-.24-3.13-.57-4.72-.62-2.99.41-5.24 2.82-8.18 3.36-4.5.52-9.05.01-13.42-1.12-3.8-1.06-7.75-.32-11.59.07-4.51.47-7.98 5.34-12.72 4.02-4.29-1.2-8.65-2.16-13.13-2.14-3.47-2.1-7.4-3.08-11.44-3.1-1.48-3.09-4.84-4.1-7.79-5.2-6.49-2.39-14.29-1.49-19.9 2.57-1.08-.01-2.16-.01-3.24-.02-2.81 2.12-6.39 2.09-9.74 1.95-5.46-1.11-10.18-4.81-15.88-4.95-5.18-.01-9.9-2.72-15.09-2.64-2.33.11-4.52 1.05-6.84 1.25-2.37-.13-4.77-.97-7.15-.33m30.73 143.03c1.46 3.1 3.67 6.08 6.79 7.67-1.28-2.71-3.13-5.09-4.55-7.72.48-.55 1.46-1.66 1.94-2.21 2.2 2.9 3.78 6.25 6.22 8.96.46.01 1.38.01 1.85.02-1.76-4.02-4.54-7.48-7.06-11.04-1.86 1.17-4.68 1.86-5.19 4.32z"/><path d="M102.93 72.58c3.6-1.09 7.36-.35 10.89.6 4.65 1.29 9.68.77 14.13 2.83 4.61 1.53 9.53 5.16 14.41 2.46 1.93.98 3.82 2.03 5.65 3.18-2.96 1.02-6.05.95-9.05.17-.59.41-1.17.83-1.77 1.24-3.58-2.91-8.5-2.78-12.81-3.7 3.88 2.5 8.51 3.3 12.61 5.36-1.6 3.37 2.84 5.81 4.96 7.8-.67-2.14-2.09-3.86-3.55-5.51-.08-1.16.31-2.34-.16-3.49 3.45.73 7.18 1.1 10.33-.86 3.68.53 6.46 3.08 8.97 5.62-4.22.77-8.49.37-12.74.26 2.34.58 4.72.97 7.11 1.28-.02.28-.07.85-.09 1.14 2.28-.28 4.56-.56 6.85-.8 1.48-2.96-.93-5.23-3.4-6.48-2.22-.2-.71-1.47-.42-2.32 2.77 2.52 6.23 4.22 8.81 6.95 3.2 5.8 3.22 13.2-.55 18.77-.72 2.55-3.5 1.29-5.37 1.48 1.57-1.63 3.78-3.18 3.8-5.69.11-3.39.74-6.93-.55-10.18-.27 3.74.07 7.58-.95 11.24-.84 1.67-2.56 2.66-3.95 3.84-7.61-.88-15.08.86-22.11 3.66-.16-2.13-.37-4.26-.69-6.36l2.54-.4c1.06.95 2.13 1.9 3.23 2.82a60.54 60.54 0 00-2.34-6.92c-.29.92-.86 2.74-1.15 3.65-1.02-.07-2.03-.14-3.04-.22-.05-.59-.13-1.77-.18-2.36 3.65-1.27 7.11-3.06 10.85-4.05 2.39-.23 4.81.05 7.18-.45-1.6-1.84-4.15-1.58-6.32-1.43-3.9.7-7.58 2.3-11.03 4.2 1.27-1.67 2.34-3.51 2.56-5.65-3.32 2.75-5.84 6.28-8.9 9.29-.91-1.82-1.84-3.63-2.64-5.5-.56-1.12-1.03-2.35-2.05-3.16-.29 1.05-.72 2.2-.09 3.23 2.34 5.63 4.23 11.74 3.13 17.9-1.04 6.62-.75 13.38-2.13 19.95-1.07-1.62-1.42-3.54-1.68-5.44-2.28 2.92-3.58 6.44-4.03 10.1.79-1.02 1.53-2.07 2.21-3.16.62-.32 1.87-.98 2.49-1.31-2.52 4.84-2.26 10.5-4.69 15.37-.67-.55-1.34-1.1-1.99-1.65-3.51 3.11-5.99 7.3-7.24 11.8 3.58-2.5 4.69-6.98 7.08-10.43.42.69.83 1.4 1.24 2.11-3.72 4.05-7.46 8.76-7.26 14.59a70.634 70.634 0 01-3.63 5.12c-1.46-.81-2.94-1.6-4.42-2.38-1.9 1.57-3.53 3.54-2.78 6.23l-3.16.66c-2.5-2.97-4.06-7.26-8.13-8.39.36-2.15.59-4.32 1.08-6.44 4.12-1.45 8.48-1.29 12.73-.7 1.62.73 3.24 1.46 4.91 2.05-1.12-1.31-2.34-2.54-3.56-3.76 1.9-4.87 5.16-9.58 4.56-15.05.68-.34 1.36-.67 2.04-1.01.95-2.24 2.06-4.41 3.08-6.62-1.54 1.06-2.8 2.45-3.92 3.93l-1.12.01c.82-5.4 3.29-10.36 4.07-15.76.85-4.35.26-8.82.93-13.19-2.6.59-4.19-1.45-5.74-3.16-.68-.04-2.04-.1-2.72-.13.24-.78.71-2.33.95-3.11-.42-2-.78-4.01-1.09-6.02-.47.01-1.4.05-1.87.06.26 2.34.58 4.67.93 6.99-1.93-1.24-3.93-2.41-5.75-3.82-1.74-1.38-1.62-3.86-2.27-5.79 1.13-1.26 2.28-2.51 3.44-3.74.77 1.31 1.52 2.63 2.26 3.96l1.24-1.06c-2.32-2.93-3.57-6.42-3.97-10.12-2.67-.18-5.24-.94-7.85-1.39 1.99 1.12 4.19 1.88 6.11 3.14.54 1.27 1.03 2.55 1.48 3.86-2.69 1.99-4.38 4.86-6.31 7.52-2.34.06-.99-3.25-1.35-4.77-.32.18-.96.54-1.29.72-1.43 3.45-3.19 8.57-7.88 7.95-4.45-1.16-8.13-4.28-11.31-7.49-2.67-2.63-4.24-6.47-3.78-10.23-.03-3.95 2.92-6.91 5.52-9.5 2.66-2.02 6.01-3.98 9.49-3.24 2.79 1.85 4.87 4.58 7.26 6.9 2.62-.12 5.69.38 7.57-1.92-3.14-.36-6.57.03-9.08-2.26 2.13-1.11 4.09-2.6 6.41-3.34 3.59-.87 7.25 1.18 10.81-.08m-.74 3.92c-3.35.08-5.75 2.66-7.51 5.23 1.89-1.07 3.62-2.46 5.62-3.33 5.04-.98 10.17-1.61 15.31-1.22 1.86.86 3.85 1.37 5.9 1.42-4.91-5.61-12.99-2.67-19.32-2.1m-13.81-.12c.26.26.26.26 0 0m15.42 10.96c.13 1.94.31 3.94 1.54 5.54-.07-1.38-.18-2.76-.32-4.13 1.64-1.81 3.1-3.88 5.24-5.13 2.25-.37 4.54-.24 6.81-.34-.03.97-.09 2.93-.11 3.9-.42 1.55-.79 3.1-1.07 4.68 1.7-2.1 2.28-4.75 2.92-7.3-.77-.64-1.54-1.27-2.31-1.91-2.02.07-4.04.07-6.06.05-3.06-.33-4.55 3-6.64 4.64m8.72 5.07c-1.9 1.3-3.91 2.52-6.27 2.63.15 1.33.29 2.67.42 4.01 2.34-2.41 4.83-4.76 7.98-6.09-.72-.18-1.43-.37-2.13-.55m28.07 13.24c.89-.16 1.78-.35 2.67-.57-.35-1.48-.77-2.94-1.24-4.38-1.38 1.31-1.37 3.19-1.43 4.95m-24.31 3.58c1.71-2 3.1-4.25 3.91-6.76-2.58 1.34-3.93 3.9-3.91 6.76m-7.9-1.29c.48.61 1.43 1.81 1.9 2.41.23-1.76.43-3.53.61-5.29-.84.95-1.68 1.91-2.51 2.88m10.2 16.57c-1.38-4.82-2.02-9.8-2.56-14.78-1.12 5.05-1.61 10.92 2.56 14.78m-.17-10.79c-.02 4.1.85 8.18 3.2 11.6-.16-3.26-.71-6.49-1.21-9.7.62.02 1.87.07 2.5.1-.03-.48-.1-1.44-.13-1.92-1.45-.03-2.91-.06-4.36-.08m-6.97 22.3c3.88-2.15 9.33-3.61 10.22-8.66-3.7 2.49-7.88 4.7-10.22 8.66z"/><path d="M156.03 74.82c6.34-1.89 13.21-1.19 18.82 2.43-.57.6-1.13 1.19-1.69 1.79 2.8.57 5.71.96 8.25 2.36 3.19 1.79 5.47 4.85 8.75 6.49 2.39.51 4.87.59 7.23 1.29 1.08 2.35 2.24 4.67 3.35 7.02.85 5.87.62 11.89-1.18 17.57-1.88 1.31-4.32 1.46-6.53 1.23-6.3-.78-12.68-2.08-19.03-1.13-2.17.57-3.91-.93-5.39-2.26-2.57-.5-5.09-1.19-7.61-1.84 5.31-3.42 7.91-10.23 6.33-16.33-1.82-7.19-8.31-12.11-15.11-14.29.15.73.44 2.18.59 2.91-2.2-1.27-4.35-2.63-6.57-3.86.92-.61 1.84-1.22 2.75-1.83 2.68 1.21 5.24.86 7.04-1.55z"/><path d="M182.88 79.81c3.26 1.41 6.68 3.03 7.88 6.68-2.59-2.28-5.03-4.72-7.88-6.68zM232.49 82.71c6.23 1.98 11.78-2.02 17.58-3.37 2.9-1 4.58 2.02 5.79 4.08-4.41 3.36-10.42 3.35-15.58 2.07-.71.48-1.42.96-2.11 1.44 3.61.41 7.15 1.89 10.83 1.32 5.09-.8 8.98-4.93 14.09-5.6 2.15.92 3.27 3.21 3.48 5.44-.11 6.68-1.52 13.27-1.48 19.96.39 3.81-3.21 6.33-6.2 7.86-3.02 1.9-6.5.08-9.64-.39a21.05 21.05 0 013.27-3.78c-.2.75-.59 2.25-.79 3 2.57-2.33 6.12-1.41 9.23-1.95-2.09-1.56-4.69-1.14-7-.4-.4-.4-.79-.8-1.17-1.21 3.3-3.53 1.55-9.44-1.21-12.86 1.5.11 3 .21 4.51.32-.17-.54-.52-1.61-.69-2.15-4.78.24-10.07-.13-14.03 3.06-5.3 3.73-12.15 3.25-17.82 6.05-2.56 1.88-5.02 4.03-8.29 4.54 1.25-1.84 2.54-3.66 3.64-5.6-3.6 1.26-5.69 4.69-8.92 6.54-2.58 1.38-5.54 1.82-8.42 2.01.52-1.58 1.05-3.17 1.57-4.75 2.38-.06 4.76-.13 7.15-.16.17-.54.53-1.61.7-2.14-2.65.3-5.29.74-7.8 1.69.26-2.87.18-5.74-.05-8.6 3.19.04 6.35.55 9.45 1.31-.29-.82-.58-1.63-.86-2.44-3-.91-6.21-1.71-9.1-.04-.76-2.65-1.45-5.31-2.14-7.98 3.85.41 8.06 2.57 11.66 1.86-.28-1.49-2.05-1.32-3.17-1.73-2.88-.56-5.81-.81-8.74-.98-2.87-2.63-8.3-1.72-9.01-6.35 4.62.76 9 3.08 13.75 2.91 3.83-1.21 7.62-2.7 11-4.91 5.61-.82 11.27-.19 16.52 1.93m-19.54 4.3c-1.95.37-3.9.81-5.72 1.64 5.68 1 11.33-1.62 15.42-5.43-3.62.08-6.65 2.11-9.7 3.79m13.85-.2c-3.91 2.42-8.6 2.51-12.83 4.02l.24 1c6.87-.18 13.4-3.85 20.37-3l.03-1.18c-.81-.13-2.43-.4-3.25-.54 2.66-.51 5.53-.47 7.83-2.09-4.19-.75-8.69-.47-12.39 1.79m19.78 4.71c3.67-.46 7.3-1.16 10.99-1.37-2.02-.42-4.02-.93-6.01-1.45-1.73.81-3.41 1.72-4.98 2.82m-18.22 5.23l.04.66c5.74.21 12.31-.35 16.32-5.02-5.31 1.92-10.6 4.34-16.36 4.36m-12.97-1.09c.12.41.37 1.24.5 1.66 2.92-.19 5.85-.37 8.75-.85-3.04-.68-6.16-.74-9.25-.81m12.14 5.87c3.61.44 7.21-.62 9.92-3.06-3.42.62-6.8 1.54-9.92 3.06zM40.65 82.31c.75.5 1.5 1 2.24 1.5-.86.97-1.73 1.95-2.58 2.92-.58-.93-1.15-1.86-1.72-2.79.51-.41 1.54-1.22 2.06-1.63zM91.54 99.4c1.18 1.19 2.31 2.44 3.43 3.69.01.6.02 1.82.03 2.42 3.11 1.52 6.08 3.37 9.37 4.5.91 1.87 1.43 3.88 1.36 5.98-.11 4.45 1.49 8.69 1.97 13.07-.77 4.35-2.72 8.46-2.9 12.92-.51 6.32-.73 13.16-4.94 18.32-1.4-.32-2.81-.6-4.22-.86-2.81-4.26-5.67-8.48-8.56-12.67-.09-3.19.22-6.41 1.94-9.19-1.65-2.1-2.84-4.5-3.72-7.02.25-3.44.2-7.09 2.37-9.99 4.02-6.16 6.25-13.97 3.87-21.17zM126.88 105.86c1.19-1.07 2.36-2.16 3.54-3.25.67 2.31 1.04 4.83 2.81 6.64-.47.37-.94.75-1.41 1.12-1.55.02-3.1.06-4.64.13-.09-1.55-.19-3.1-.3-4.64zM107.86 113.62c1.67 4.28 1.12 9.04 1.66 13.53-2.47-4.06-2.17-9-1.66-13.53zM77.63 145.09c.87-1.32 1.08-4.2 3.19-3.97 1.91 1.58 3.01 3.82 4.22 5.93 2.39 4.46 5.46 8.5 8.27 12.69-1.24.08-2.48.16-3.71.25-3.08-4.85-6.39-9.55-9.29-14.52-.67-.09-2.01-.28-2.68-.38zM100.21 175.62c.35-.89.77-1.75 1.23-2.59 3.96 4.11 6.46 9.31 10.03 13.72-.8.79-1.59 1.59-2.37 2.38-2.84-4.58-6.15-8.87-8.89-13.51z"/></g><g fill="#333"><path d="M93 71.05c2.38-.64 4.78.2 7.15.33 2.32-.2 4.51-1.14 6.84-1.25 5.19-.08 9.91 2.63 15.09 2.64 5.7.14 10.42 3.84 15.88 4.95 3.35.14 6.93.17 9.74-1.95 1.08.01 2.16.01 3.24.02 5.61-4.06 13.41-4.96 19.9-2.57 2.95 1.1 6.31 2.11 7.79 5.2 4.04.02 7.97 1 11.44 3.1 4.48-.02 8.84.94 13.13 2.14 4.74 1.32 8.21-3.55 12.72-4.02 3.84-.39 7.79-1.13 11.59-.07 4.37 1.13 8.92 1.64 13.42 1.12 2.94-.54 5.19-2.95 8.18-3.36 1.59.05 3.15.38 4.72.62 1.2 1.44 2.39 2.88 3.53 4.37 2.9-.49 7.1-1.91 8.96 1.27 3.04 3.86 1.86 8.98 1.4 13.44-1.07 4.9-.55 9.94-1.08 14.89-.72 3.22-4.24 4.73-7.04 5.76-3.84 1.67-8.07.24-11.86-.87-.01-1.41-.12-2.83.09-4.22 2.05-2.18 4.09-4.38 5.58-7.01-1.07-2.37-2.32-4.66-3.53-6.96-1.65.35-3.3.69-4.91 1.17-.23 2.56-.32 5.24-1.99 7.36.92 2.53 1.99 5.01 2.92 7.54-2.91-1.57-3.81-4.84-5.1-7.64 1.01-1.63 1.77-3.39 2.46-5.18-3.61 2.38-8.19 2.31-12.28 3.29-5.61.6-9.28 6.22-15.01 6.29-3.86-.23-7 2.48-10.74 3-3.88.51-7.17 3.37-11.2 2.92-4.72-.45-9.34-1.9-14.12-1.86-2.34.12-4.6 1.16-6.95.85-3.16-.74-5.84-2.63-8.62-4.19-1.94-.04-3.92-.14-5.36-1.63-7.21.47-15.28-2.24-21.61 2.57-3.23-.01-6.44-.44-9.63-.87-.74 5.88-1.7 11.73-1.53 17.69.5 4.95-3.69 8.44-4.37 13.11-.64 4.06-1.67 8.17-4.38 11.39-2.72 3.21-4.85 6.8-6.82 10.51.36.46.72.92 1.09 1.38-1.43 3.22-2.55 6.71-5.68 8.72 2.23 3.49 4.63 6.86 6.86 10.34 4.62-3.38 10.62-4.07 16.06-2.47 6.61 2.4 12.73 6.85 15.98 13.22 3.56 7.16 4.43 15.49 3.06 23.32-1.31-1.54-1.98-3.39-1.68-5.4.71-8.64-1.75-18.06-8.39-23.97-4.46-2.86-9.38-6.07-14.93-5.44-7.38.22-13.16 6.2-15.83 12.68-3.54 8.72-3.78 19.28 1.03 27.58-2.59 1.42-3.49-1.29-4.18-2.96-3.28-10.26-2.43-22.31 3.81-31.3-2.88-3.62-5.63-7.43-7.58-11.65-2.1.12-4.19.41-6.26.73-3.01-3.54-5.7-7.39-9.15-10.54.56-3.15.97-6.35 2.06-9.38-2.89-4.05-5.3-8.4-7.85-12.67-1.22.42-2.62 1.73-3.93.83-3.2-2.14-4.8-5.78-7.17-8.68.55-1.64 1.12-3.28 1.7-4.91-.05 4.97 2.71 9.83 7.01 12.33-.66-2.87.45-6.6 3.78-7.05 1.89.93 2.64 3.07 3.94 4.59.83-2.15 1.68-4.29 2.51-6.44-4.32-3.32-3.45-9.07-2.59-13.74.8-3.14 3.12-5.59 4.3-8.57 1.92-4.88 2.45-10.19 2.13-15.39-4.24.37-5.71 5.69-10.37 5.42-.04 5.15.36 10.59-2.71 15.06.04-2.46.43-4.96 1.86-7.03-1.12-3.2.11-7.22-2.57-9.74-.06 4.77-.37 9.52-.99 14.25.46 4.9 1.15 10.01-1.04 14.63-.28-.81-.84-2.45-1.12-3.27-1.49 1.15-2.94 2.35-4.38 3.56-4.47-6.62-8.65-13.42-13.19-19.99-1.16-1.97-2.79-3.75-3.41-5.99-.57-2.88 2.73-3.57 4.59-4.78 5.37 7.72 10.64 15.55 15.64 23.5-.05.28-.16.83-.21 1.11-.24.04-.73.11-.97.15-5.12-6.92-9.46-14.4-14.41-21.44-1.37-1.63-3.71.52-2.25 2.13 4.65 7.65 9.95 14.88 14.74 22.45 1.61-1.04 3.26-2.02 4.93-2.96-.76-7.97.11-15.9.58-23.86-.72.56-1.43 1.13-2.12 1.72.54 3.75-.25 7.48-1.41 11.03-.04 1.57-1.27 2.16-2.59 2.51.51-1.93 1.13-3.82 1.71-5.72 1.22-3.55.57-7.46 1.91-10.99-2.81-2.05-6.34-3.61-7.97-6.87-1.53-3.33-2.34-7.05-1.64-10.69-4.12-2.28-8.88-2.72-13.47-1.99-3.64 1.14-6.78 3.72-8.72 6.99-6.35 10.36-4.71 25.28 4.48 33.44 5.47 3.37 12.18 3.51 18.26 1.98-1.06 1.29-2.21 2.73-3.98 2.98-6.99 1.63-13.91-2.14-18.66-7.01-7.6-9.08-7.68-22.78-2.08-32.89-1-1.33-1.99-2.68-2.96-4.04 1.65-1.71 3.66-2.99 6.01-3.47.4.62 1.19 1.86 1.58 2.48 3.29-2.24 7.28-3.76 11.3-2.87 3.42.34 6.03 2.69 8.64 4.67 1.82-4.65 4.01-9.84 8.96-11.88 3.04-2.11 6.66-.77 9.93-.14.76.75 1.53 1.5 2.3 2.25 2.66-1.3 5.18-2.97 8.06-3.74m9.93 1.53c-3.56 1.26-7.22-.79-10.81.08-2.32.74-4.28 2.23-6.41 3.34 2.51 2.29 5.94 1.9 9.08 2.26-1.88 2.3-4.95 1.8-7.57 1.92-2.39-2.32-4.47-5.05-7.26-6.9-3.48-.74-6.83 1.22-9.49 3.24-2.6 2.59-5.55 5.55-5.52 9.5-.46 3.76 1.11 7.6 3.78 10.23 3.18 3.21 6.86 6.33 11.31 7.49 4.69.62 6.45-4.5 7.88-7.95.33-.18.97-.54 1.29-.72.36 1.52-.99 4.83 1.35 4.77 1.93-2.66 3.62-5.53 6.31-7.52-.45-1.31-.94-2.59-1.48-3.86-1.92-1.26-4.12-2.02-6.11-3.14 2.61.45 5.18 1.21 7.85 1.39.4 3.7 1.65 7.19 3.97 10.12l-1.24 1.06c-.74-1.33-1.49-2.65-2.26-3.96-1.16 1.23-2.31 2.48-3.44 3.74.65 1.93.53 4.41 2.27 5.79 1.82 1.41 3.82 2.58 5.75 3.82-.35-2.32-.67-4.65-.93-6.99.47-.01 1.4-.05 1.87-.06.31 2.01.67 4.02 1.09 6.02-.24.78-.71 2.33-.95 3.11.68.03 2.04.09 2.72.13 1.55 1.71 3.14 3.75 5.74 3.16-.67 4.37-.08 8.84-.93 13.19-.78 5.4-3.25 10.36-4.07 15.76l1.12-.01c1.12-1.48 2.38-2.87 3.92-3.93-1.02 2.21-2.13 4.38-3.08 6.62-.68.34-1.36.67-2.04 1.01.6 5.47-2.66 10.18-4.56 15.05 1.22 1.22 2.44 2.45 3.56 3.76-1.67-.59-3.29-1.32-4.91-2.05-4.25-.59-8.61-.75-12.73.7-.49 2.12-.72 4.29-1.08 6.44 4.07 1.13 5.63 5.42 8.13 8.39l3.16-.66c-.75-2.69.88-4.66 2.78-6.23 1.48.78 2.96 1.57 4.42 2.38 1.28-1.65 2.5-3.36 3.63-5.12-.2-5.83 3.54-10.54 7.26-14.59-.41-.71-.82-1.42-1.24-2.11-2.39 3.45-3.5 7.93-7.08 10.43 1.25-4.5 3.73-8.69 7.24-11.8.65.55 1.32 1.1 1.99 1.65 2.43-4.87 2.17-10.53 4.69-15.37-.62.33-1.87.99-2.49 1.31-.68 1.09-1.42 2.14-2.21 3.16.45-3.66 1.75-7.18 4.03-10.1.26 1.9.61 3.82 1.68 5.44 1.38-6.57 1.09-13.33 2.13-19.95 1.1-6.16-.79-12.27-3.13-17.9-.63-1.03-.2-2.18.09-3.23 1.02.81 1.49 2.04 2.05 3.16.8 1.87 1.73 3.68 2.64 5.5 3.06-3.01 5.58-6.54 8.9-9.29-.22 2.14-1.29 3.98-2.56 5.65 3.45-1.9 7.13-3.5 11.03-4.2 2.17-.15 4.72-.41 6.32 1.43-2.37.5-4.79.22-7.18.45-3.74.99-7.2 2.78-10.85 4.05.05.59.13 1.77.18 2.36 1.01.08 2.02.15 3.04.22.29-.91.86-2.73 1.15-3.65.92 2.26 1.7 4.57 2.34 6.92-1.1-.92-2.17-1.87-3.23-2.82l-2.54.4c.32 2.1.53 4.23.69 6.36 7.03-2.8 14.5-4.54 22.11-3.66 1.39-1.18 3.11-2.17 3.95-3.84 1.02-3.66.68-7.5.95-11.24 1.29 3.25.66 6.79.55 10.18-.02 2.51-2.23 4.06-3.8 5.69 1.87-.19 4.65 1.07 5.37-1.48 3.77-5.57 3.75-12.97.55-18.77-2.58-2.73-6.04-4.43-8.81-6.95-.29.85-1.8 2.12.42 2.32 2.47 1.25 4.88 3.52 3.4 6.48-2.29.24-4.57.52-6.85.8.02-.29.07-.86.09-1.14-2.39-.31-4.77-.7-7.11-1.28 4.25.11 8.52.51 12.74-.26-2.51-2.54-5.29-5.09-8.97-5.62-3.15 1.96-6.88 1.59-10.33.86.47 1.15.08 2.33.16 3.49 1.46 1.65 2.88 3.37 3.55 5.51-2.12-1.99-6.56-4.43-4.96-7.8-4.1-2.06-8.73-2.86-12.61-5.36 4.31.92 9.23.79 12.81 3.7.6-.41 1.18-.83 1.77-1.24 3 .78 6.09.85 9.05-.17-1.83-1.15-3.72-2.2-5.65-3.18-4.88 2.7-9.8-.93-14.41-2.46-4.45-2.06-9.48-1.54-14.13-2.83-3.53-.95-7.29-1.69-10.89-.6m53.1 2.24c-1.8 2.41-4.36 2.76-7.04 1.55-.91.61-1.83 1.22-2.75 1.83 2.22 1.23 4.37 2.59 6.57 3.86-.15-.73-.44-2.18-.59-2.91 6.8 2.18 13.29 7.1 15.11 14.29 1.58 6.1-1.02 12.91-6.33 16.33 2.52.65 5.04 1.34 7.61 1.84 1.48 1.33 3.22 2.83 5.39 2.26 6.35-.95 12.73.35 19.03 1.13 2.21.23 4.65.08 6.53-1.23 1.8-5.68 2.03-11.7 1.18-17.57-1.11-2.35-2.27-4.67-3.35-7.02-2.36-.7-4.84-.78-7.23-1.29-3.28-1.64-5.56-4.7-8.75-6.49-2.54-1.4-5.45-1.79-8.25-2.36.56-.6 1.12-1.19 1.69-1.79-5.61-3.62-12.48-4.32-18.82-2.43m26.85 4.99c2.85 1.96 5.29 4.4 7.88 6.68-1.2-3.65-4.62-5.27-7.88-6.68m49.61 2.9c-5.25-2.12-10.91-2.75-16.52-1.93-3.38 2.21-7.17 3.7-11 4.91-4.75.17-9.13-2.15-13.75-2.91.71 4.63 6.14 3.72 9.01 6.35 2.93.17 5.86.42 8.74.98 1.12.41 2.89.24 3.17 1.73-3.6.71-7.81-1.45-11.66-1.86.69 2.67 1.38 5.33 2.14 7.98 2.89-1.67 6.1-.87 9.1.04.28.81.57 1.62.86 2.44-3.1-.76-6.26-1.27-9.45-1.31.23 2.86.31 5.73.05 8.6 2.51-.95 5.15-1.39 7.8-1.69-.17.53-.53 1.6-.7 2.14-2.39.03-4.77.1-7.15.16-.52 1.58-1.05 3.17-1.57 4.75 2.88-.19 5.84-.63 8.42-2.01 3.23-1.85 5.32-5.28 8.92-6.54-1.1 1.94-2.39 3.76-3.64 5.6 3.27-.51 5.73-2.66 8.29-4.54 5.67-2.8 12.52-2.32 17.82-6.05 3.96-3.19 9.25-2.82 14.03-3.06.17.54.52 1.61.69 2.15-1.51-.11-3.01-.21-4.51-.32 2.76 3.42 4.51 9.33 1.21 12.86.38.41.77.81 1.17 1.21 2.31-.74 4.91-1.16 7 .4-3.11.54-6.66-.38-9.23 1.95.2-.75.59-2.25.79-3a21.05 21.05 0 00-3.27 3.78c3.14.47 6.62 2.29 9.64.39 2.99-1.53 6.59-4.05 6.2-7.86-.04-6.69 1.37-13.28 1.48-19.96-.21-2.23-1.33-4.52-3.48-5.44-5.11.67-9 4.8-14.09 5.6-3.68.57-7.22-.91-10.83-1.32.69-.48 1.4-.96 2.11-1.44 5.16 1.28 11.17 1.29 15.58-2.07-1.21-2.06-2.89-5.08-5.79-4.08-5.8 1.35-11.35 5.35-17.58 3.37m-191.84-.4c-.52.41-1.55 1.22-2.06 1.63.57.93 1.14 1.86 1.72 2.79.85-.97 1.72-1.95 2.58-2.92-.74-.5-1.49-1-2.24-1.5M91.54 99.4c2.38 7.2.15 15.01-3.87 21.17-2.17 2.9-2.12 6.55-2.37 9.99.88 2.52 2.07 4.92 3.72 7.02-1.72 2.78-2.03 6-1.94 9.19 2.89 4.19 5.75 8.41 8.56 12.67 1.41.26 2.82.54 4.22.86 4.21-5.16 4.43-12 4.94-18.32.18-4.46 2.13-8.57 2.9-12.92-.48-4.38-2.08-8.62-1.97-13.07.07-2.1-.45-4.11-1.36-5.98-3.29-1.13-6.26-2.98-9.37-4.5-.01-.6-.02-1.82-.03-2.42-1.12-1.25-2.25-2.5-3.43-3.69m35.34 6.46c.11 1.54.21 3.09.3 4.64 1.54-.07 3.09-.11 4.64-.13.47-.37.94-.75 1.41-1.12-1.77-1.81-2.14-4.33-2.81-6.64-1.18 1.09-2.35 2.18-3.54 3.25m-19.02 7.76c-.51 4.53-.81 9.47 1.66 13.53-.54-4.49.01-9.25-1.66-13.53m-30.23 31.47c.67.1 2.01.29 2.68.38 2.9 4.97 6.21 9.67 9.29 14.52 1.23-.09 2.47-.17 3.71-.25-2.81-4.19-5.88-8.23-8.27-12.69-1.21-2.11-2.31-4.35-4.22-5.93-2.11-.23-2.32 2.65-3.19 3.97m22.58 30.53c2.74 4.64 6.05 8.93 8.89 13.51.78-.79 1.57-1.59 2.37-2.38-3.57-4.41-6.07-9.61-10.03-13.72-.46.84-.88 1.7-1.23 2.59z"/><path d="M102.19 76.5c6.33-.57 14.41-3.51 19.32 2.1-2.05-.05-4.04-.56-5.9-1.42-5.14-.39-10.27.24-15.31 1.22-2 .87-3.73 2.26-5.62 3.33 1.76-2.57 4.16-5.15 7.51-5.23zM88.38 76.38c.26.26.26.26 0 0zM103.8 87.34c2.09-1.64 3.58-4.97 6.64-4.64 2.02.02 4.04.02 6.06-.05.77.64 1.54 1.27 2.31 1.91-.64 2.55-1.22 5.2-2.92 7.3.28-1.58.65-3.13 1.07-4.68.02-.97.08-2.93.11-3.9-2.27.1-4.56-.03-6.81.34-2.14 1.25-3.6 3.32-5.24 5.13.14 1.37.25 2.75.32 4.13-1.23-1.6-1.41-3.6-1.54-5.54zM212.95 87.01c3.05-1.68 6.08-3.71 9.7-3.79-4.09 3.81-9.74 6.43-15.42 5.43 1.82-.83 3.77-1.27 5.72-1.64zM226.8 86.81c3.7-2.26 8.2-2.54 12.39-1.79-2.3 1.62-5.17 1.58-7.83 2.09.82.14 2.44.41 3.25.54l-.03 1.18c-6.97-.85-13.5 2.82-20.37 3l-.24-1c4.23-1.51 8.92-1.6 12.83-4.02zM246.58 91.52c1.57-1.1 3.25-2.01 4.98-2.82 1.99.52 3.99 1.03 6.01 1.45-3.69.21-7.32.91-10.99 1.37zM112.52 92.41c.7.18 1.41.37 2.13.55-3.15 1.33-5.64 3.68-7.98 6.09-.13-1.34-.27-2.68-.42-4.01 2.36-.11 4.37-1.33 6.27-2.63zM228.36 96.75c5.76-.02 11.05-2.44 16.36-4.36-4.01 4.67-10.58 5.23-16.32 5.02l-.04-.66zM215.39 95.66c3.09.07 6.21.13 9.25.81-2.9.48-5.83.66-8.75.85-.13-.42-.38-1.25-.5-1.66zM227.53 101.53c3.12-1.52 6.5-2.44 9.92-3.06-2.71 2.44-6.31 3.5-9.92 3.06zM140.59 105.65c.06-1.76.05-3.64 1.43-4.95.47 1.44.89 2.9 1.24 4.38-.89.22-1.78.41-2.67.57zM116.28 109.23c-.02-2.86 1.33-5.42 3.91-6.76-.81 2.51-2.2 4.76-3.91 6.76zM108.38 107.94c.83-.97 1.67-1.93 2.51-2.88-.18 1.76-.38 3.53-.61 5.29-.47-.6-1.42-1.8-1.9-2.41zM118.58 124.51c-4.17-3.86-3.68-9.73-2.56-14.78.54 4.98 1.18 9.96 2.56 14.78zM118.41 113.72c1.45.02 2.91.05 4.36.08.03.48.1 1.44.13 1.92-.63-.03-1.88-.08-2.5-.1.5 3.21 1.05 6.44 1.21 9.7-2.35-3.42-3.22-7.5-3.2-11.6zM111.44 136.02c2.34-3.96 6.52-6.17 10.22-8.66-.89 5.05-6.34 6.51-10.22 8.66zM123.73 214.08c.51-2.46 3.33-3.15 5.19-4.32 2.52 3.56 5.3 7.02 7.06 11.04-.47-.01-1.39-.01-1.85-.02-2.44-2.71-4.02-6.06-6.22-8.96-.48.55-1.46 1.66-1.94 2.21 1.42 2.63 3.27 5.01 4.55 7.72-3.12-1.59-5.33-4.57-6.79-7.67z"/></g></svg>