<svg width="137pt" height="250pt" viewBox="0 0 137 250" xmlns="http://www.w3.org/2000/svg"><g fill="#FFF"><path d="M0 0h110.32C96.48 17.96 83.28 36.43 69.48 54.44c-3.25 4.7-6.94 9.14-11.39 12.76-12.94 10.75-26.1 21.28-38.25 32.93.27.42.53.84.79 1.27-1.54 5.39-.62 11-.81 16.52-.25 5.17 2.75 9.74 6.14 13.35 4.17 2.91 9.63 2.67 14.45 2.23-5 1.29-8.24 5.46-12.66 7.77-1.01 3.03-.89 6.32.91 9.03 2.92 4.64 2.81 10.53 6 15 3.45 5.26 4.99 11.47 8.08 16.92 1.61 3.4 3.99 6.73 3.95 10.65-.39 5.02-2.29 10.23-6.28 13.5-3.25 2.68-6.45 5.45-9.16 8.68.71 2.76.09 7.01 3.45 8.12 6.37 2.45 13.95.05 18.24-5.13 2.6-3.43 7.2-3.73 10.91-5.25-1.48 2.19-2.68 4.58-4.32 6.66-2.83 2.01-7.12 2.78-8.15 6.59.63 2.23 2.11 4.55 4.58 4.94 7.84 1.43 16.5 1.46 23.56-2.71 3.96-2.37 8.74-3.39 12.14-6.63 2.28-1.99 2.13-5.22 2.76-7.93-1.57-4-4.23-7.52-5.4-11.67-.9-9.01-2.03-18-2.59-27.05-.26-6.55-4.85-11.57-7.83-17.06 4.49.97 9.08 1.45 13.67 1.21.39.2 1.18.61 1.57.81 1.27.37 2.53.77 3.79 1.19 2.39-1.43 4.66-3.04 6.89-4.71 3.18-2.37 6.96-3.91 9.72-6.84.2-5.88.59-11.75.93-17.62-.33-3.38-2.1-7.82-6.2-7.64 1.38 2.38 4.24 4.45 3.65 7.54-.51 5.56-.43 11.19-1.25 16.7-3.46 3.91-8.85 5.46-12.67 9.03.16-4.16-.23-8.63-2.93-12.01-.03-1.51-.06-3.03.23-4.52 1.17-5.44.38-11.05-.31-16.51 5.21-.32 10.42-.99 15.41-2.56.9-11.07-8.12-19.05-13.59-27.63-3.18-5.39-8.54-8.73-13.32-12.53-4.62-2.95-10.22-4.85-15.75-4.37-2.43-.8-5.29-2.9-7.59-.7 1.56.37 3.13.68 4.71 1-.07.49-.22 1.45-.29 1.94 1.93-.3 3.86-.63 5.77-1.03 4.55 1.03 9.52 1.78 13.05 5.13 3.49 3.21 7.74 5.66 10.61 9.5 5.2 8.82 13.22 16.46 14.68 27.06-4.79 1.26-9.7 2.09-14.65 2.38-.91-5.75-1.83-11.64-4.61-16.84-2.46-4.64-2.8-9.94-3.94-14.97-.84-.53-1.68-1.07-2.52-1.6 1.49 6.13 2.68 12.37 4.97 18.27 1.93 5.61 2.41 11.59 4.48 17.16 1.08 6.54.78 13.31-.36 19.83-3.84.38-7.74.26-11.57-.16-11.34-3.34-18.54-13.22-28.03-19.55-1.93-2.22-5.85-.88-7.02-3.97-1.58-.07-3.17-.03-4.73-.3-1.48-1.75-2.36-3.89-3.51-5.84 2.14-4.62 1.41-10.37 5-14.27l3.97-.39c1.33 1.01 2.69 2 4.08 2.94 2.65 3.21 3.67 7.21 5.11 11 2.67 3.37 6.02 6.41 10.16 7.83 4.04 1.87 8.59 1.03 12.89 1.41 1.93.41 3.61-.61 5.26-1.45-4.13-1.42-8.49-1.41-12.78-1.12-.88-2.94-1.45-5.96-1.27-9.04-2.46-1.61-4.85-3.33-7.45-4.7-1.19-2.58-1.73-5.39-1.82-8.22-2.55.72-5.08 1.51-7.58 2.39-1.1-.7-2.19-1.41-3.28-2.12 3.47-10 8.5-19.36 12.32-29.22.62-1.76 1.06-3.65 2.29-5.11 3.49-4.5 6.94-9.03 10.11-13.76C87.28 33.85 100.28 17.2 112.52 0H137v250H0V0m25.84 92.89c4.17-3.86 8.54-7.5 12.59-11.47-5.74 1.32-11.77 5.12-12.59 11.47m50.84-5.62c-2.89 2.45-5.53 5.28-6.86 8.9 2.36-2.1 4.52-4.42 6.89-6.52.86-.53 1.79-2.99-.03-2.38m-66 18.11c-.68 5.52-1.32 11.51 1.21 16.68 1.54 2.6 4.93 2.61 7.56 2.23-1.38-1.07-3.11-1.43-4.65-2.19-3.16-4.63-3.35-10.66-1.41-15.81.44-.27 1.3-.82 1.74-1.09.84-1.86 2.41-2.5 4.45-2.05-.53-.74-1.05-1.48-1.57-2.23-3.37.03-4.34 3.74-7.33 4.46z"/><path d="M27.72 95.85c11.04-8.91 21.68-18.33 32.8-27.13-.91 5.43-4.19 10.03-6.08 15.12-2.41.91-6.26 2.16-6.4 5.12 1.05 2.26 2.88-1.3 4.6-.67-.92 1.92-1.8 3.85-2.78 5.73-.62 1.03-.06 3.42-1.85 3.27-3.83.08-7.19 2.24-9.58 5.1-1.02 4.04-3.29 8.54-.8 12.45-.69.98-1.39 1.96-2.08 2.95.63.91 1.27 1.8 1.93 2.68 1.95 2.86 5.9 2.42 8.64 4.11 3.24.19 5.42 2.65 8 4.25 3.88 2.26 6.43 6.1 9.91 8.87-.38.28-.76.56-1.14.85-.86-1.73-2.26-2.99-4.04-3.77.6 1.78 1.22 3.55 1.86 5.32-2.46 3.91-3.26 9.13-1.33 13.4.51 1.82.2 3.76.43 5.62.86 4.26 3.82 7.66 5.25 11.7 1.63 5.8 3.45 11.58 6.07 17.02 1.28 3.24 2.88 6.54 2.88 10.08-.94 3.11-2.24 6.1-3.38 9.14-.33-2.75-.31-5.65-1.45-8.23-1.99-3.33-5.04-6.06-6.19-9.87-.99-3.03-2.51-5.9-3.25-9.01-.25-3.95-.32-8.04-2.37-11.57-2.43-4.24-3.85-8.94-6.23-13.2 2.59-.08 5.17-.16 7.74-.38-2.1-2.18-5.3-1.73-8.03-2.06-1.6.79-3.24 1.52-4.88 2.24 1.53 1.22 3.26 2.34 4.09 4.2 2.31 4.52 5.38 8.81 6.36 13.89.96 4.97 1.72 10 2.93 14.92 2.99 6.1 8.7 11.02 9.63 18.02.04 2.51-2.77 2.88-4.46 3.85-3.77 2.02-8.14 2.6-11.75 4.96-2.7 1.55-3.9 4.86-6.81 6.12-3.18 1.41-6.92 1.22-10.21.34-1.34-1.67-1.48-3.89-1.8-5.92 3.49-4.92 9.53-7.42 12.38-12.86 1.6-2.74 2.3-5.86 3.18-8.88-2.2-8.12-6.53-15.36-10.24-22.83-1.44-6.52-6.23-11.78-7.03-18.46-4.2-3.51-3.38-10.29.76-13.51 5.2-3.9 11.47-6.2 16.81-9.93-.03-.74-.08-2.22-.1-2.96-5.15 3.66-11.22 7-17.76 5.69-2.83-1.14-5.53-2.79-7.14-5.46-3.72-4.12-3.11-10-3.47-15.14-.5-3.29 1.34-6.17 2.53-9.09.57-1.52 1.75-2.64 3.06-3.54.26-.85.52-1.7.79-2.54m26.06-19.7c1.34.75 2.15.49 2.41-.78-1.34-.74-2.15-.48-2.41.78M29.23 95.17c.74.41 1.48.81 2.22 1.2l-.03-.51c4.54-2.7 8.17-7.88 14.07-7.34-.39-.34-1.17-1.02-1.57-1.35-6.3-1-9.57 5.69-14.69 8m17.29-.69c-1.48 1.51 1.25 2.59 1.98 1.02 1.41-1.55-1.23-2.59-1.98-1.02z"/><path d="M54.62 102.65c1.36-.21 2.72-.36 4.1-.45 1.39 2.29 1.96 5.15 4.13 6.91 1.48 1.66 3.83 1.57 5.84 1.88-1.29 2.68-1.87 5.59-1.17 8.53-3.56-2.35-9.33-3.62-9.77-8.65-.52-2.92-2.04-5.5-3.13-8.22zM65.56 139.04c5.45 3.66 11.45 7.42 18.25 7.36 3.14-.07 7.08 2.09 9.48-.84 2.07 2.55 2.52 5.88 3.38 8.94-4.9 3.32-11.16 2.76-16.65 1.55-2.88-1.08-6.36.54-7.22 3.57l3.25-1.4c2.05 4.65 4.85 8.9 7.34 13.29 2.16 7.69.81 15.84 2.13 23.66.42 2.32.71 4.65.94 6.99.81 5.58 5.5 10.31 4.77 16.09-2.5 4.17-7.79 5.04-11.7 7.44-4.94 2.92-10.84 4.23-16.55 3.6-3.31-.54-7.4.09-9.47-3.19 2.18-1.48 4.44-2.83 6.7-4.17 5.57-4.78 9.57-11 13.86-16.88 3.08-3.22 3.24-7.98 2.27-12.09-2.55-2.86-3.51-6.63-4.92-10.1-1.6-4.17-3.41-8.31-4.05-12.77-.43-4.4-4.06-7.64-4.5-12.04-.13-4.25-3.3-7.99-2.23-12.29.99-2.66 3.12-4.63 4.92-6.72m19.52 70.22c-.58 2.41-2.21 4.23-3.81 6.01 3.17-.02 4.8-2.56 5.49-5.32-.42-.17-1.26-.52-1.68-.69z"/></g><g fill="#333"><path d="M110.32 0h2.2C100.28 17.2 87.28 33.85 74.9 50.95c-3.17 4.73-6.62 9.26-10.11 13.76-1.23 1.46-1.67 3.35-2.29 5.11-3.82 9.86-8.85 19.22-12.32 29.22 1.09.71 2.18 1.42 3.28 2.12 2.5-.88 5.03-1.67 7.58-2.39.09 2.83.63 5.64 1.82 8.22 2.6 1.37 4.99 3.09 7.45 4.7-.18 3.08.39 6.1 1.27 9.04 4.29-.29 8.65-.3 12.78 1.12-1.65.84-3.33 1.86-5.26 1.45-4.3-.38-8.85.46-12.89-1.41-4.14-1.42-7.49-4.46-10.16-7.83-1.44-3.79-2.46-7.79-5.11-11-1.39-.94-2.75-1.93-4.08-2.94l-3.97.39c-3.59 3.9-2.86 9.65-5 14.27 1.15 1.95 2.03 4.09 3.51 5.84 1.56.27 3.15.23 4.73.3 1.17 3.09 5.09 1.75 7.02 3.97 9.49 6.33 16.69 16.21 28.03 19.55 3.83.42 7.73.54 11.57.16 1.14-6.52 1.44-13.29.36-19.83-2.07-5.57-2.55-11.55-4.48-17.16-2.29-5.9-3.48-12.14-4.97-18.27.84.53 1.68 1.07 2.52 1.6 1.14 5.03 1.48 10.33 3.94 14.97 2.78 5.2 3.7 11.09 4.61 16.84 4.95-.29 9.86-1.12 14.65-2.38-1.46-10.6-9.48-18.24-14.68-27.06-2.87-3.84-7.12-6.29-10.61-9.5-3.53-3.35-8.5-4.1-13.05-5.13-1.91.4-3.84.73-5.77 1.03.07-.49.22-1.45.29-1.94-1.58-.32-3.15-.63-4.71-1 2.3-2.2 5.16-.1 7.59.7 5.53-.48 11.13 1.42 15.75 4.37 4.78 3.8 10.14 7.14 13.32 12.53 5.47 8.58 14.49 16.56 13.59 27.63-4.99 1.57-10.2 2.24-15.41 2.56.69 5.46 1.48 11.07.31 16.51-.29 1.49-.26 3.01-.23 4.52 2.7 3.38 3.09 7.85 2.93 12.01 3.82-3.57 9.21-5.12 12.67-9.03.82-5.51.74-11.14 1.25-16.7.59-3.09-2.27-5.16-3.65-7.54 4.1-.18 5.87 4.26 6.2 7.64-.34 5.87-.73 11.74-.93 17.62-2.76 2.93-6.54 4.47-9.72 6.84-2.23 1.67-4.5 3.28-6.89 4.71-1.26-.42-2.52-.82-3.79-1.19-.39-.2-1.18-.61-1.57-.81-4.59.24-9.18-.24-13.67-1.21 2.98 5.49 7.57 10.51 7.83 17.06.56 9.05 1.69 18.04 2.59 27.05 1.17 4.15 3.83 7.67 5.4 11.67-.63 2.71-.48 5.94-2.76 7.93-3.4 3.24-8.18 4.26-12.14 6.63-7.06 4.17-15.72 4.14-23.56 2.71-2.47-.39-3.95-2.71-4.58-4.94 1.03-3.81 5.32-4.58 8.15-6.59 1.64-2.08 2.84-4.47 4.32-6.66-3.71 1.52-8.31 1.82-10.91 5.25-4.29 5.18-11.87 7.58-18.24 5.13-3.36-1.11-2.74-5.36-3.45-8.12 2.71-3.23 5.91-6 9.16-8.68 3.99-3.27 5.89-8.48 6.28-13.5.04-3.92-2.34-7.25-3.95-10.65-3.09-5.45-4.63-11.66-8.08-16.92-3.19-4.47-3.08-10.36-6-15-1.8-2.71-1.92-6-.91-9.03 4.42-2.31 7.66-6.48 12.66-7.77-4.82.44-10.28.68-14.45-2.23-3.39-3.61-6.39-8.18-6.14-13.35.19-5.52-.73-11.13.81-16.52-.26-.43-.52-.85-.79-1.27C31.99 88.48 45.15 77.95 58.09 67.2c4.45-3.62 8.14-8.06 11.39-12.76 13.8-18.01 27-36.48 40.84-54.44m-82.6 95.85c-.27.84-.53 1.69-.79 2.54-1.31.9-2.49 2.02-3.06 3.54-1.19 2.92-3.03 5.8-2.53 9.09.36 5.14-.25 11.02 3.47 15.14 1.61 2.67 4.31 4.32 7.14 5.46 6.54 1.31 12.61-2.03 17.76-5.69.02.74.07 2.22.1 2.96-5.34 3.73-11.61 6.03-16.81 9.93-4.14 3.22-4.96 10-.76 13.51.8 6.68 5.59 11.94 7.03 18.46 3.71 7.47 8.04 14.71 10.24 22.83-.88 3.02-1.58 6.14-3.18 8.88-2.85 5.44-8.89 7.94-12.38 12.86.32 2.03.46 4.25 1.8 5.92 3.29.88 7.03 1.07 10.21-.34 2.91-1.26 4.11-4.57 6.81-6.12 3.61-2.36 7.98-2.94 11.75-4.96 1.69-.97 4.5-1.34 4.46-3.85-.93-7-6.64-11.92-9.63-18.02-1.21-4.92-1.97-9.95-2.93-14.92-.98-5.08-4.05-9.37-6.36-13.89-.83-1.86-2.56-2.98-4.09-4.2 1.64-.72 3.28-1.45 4.88-2.24 2.73.33 5.93-.12 8.03 2.06-2.57.22-5.15.3-7.74.38 2.38 4.26 3.8 8.96 6.23 13.2 2.05 3.53 2.12 7.62 2.37 11.57.74 3.11 2.26 5.98 3.25 9.01 1.15 3.81 4.2 6.54 6.19 9.87 1.14 2.58 1.12 5.48 1.45 8.23 1.14-3.04 2.44-6.03 3.38-9.14 0-3.54-1.6-6.84-2.88-10.08-2.62-5.44-4.44-11.22-6.07-17.02-1.43-4.04-4.39-7.44-5.25-11.7-.23-1.86.08-3.8-.43-5.62-1.93-4.27-1.13-9.49 1.33-13.4-.64-1.77-1.26-3.54-1.86-5.32 1.78.78 3.18 2.04 4.04 3.77.38-.29.76-.57 1.14-.85-3.48-2.77-6.03-6.61-9.91-8.87-2.58-1.6-4.76-4.06-8-4.25-2.74-1.69-6.69-1.25-8.64-4.11-.66-.88-1.3-1.77-1.93-2.68.69-.99 1.39-1.97 2.08-2.95-2.49-3.91-.22-8.41.8-12.45 2.39-2.86 5.75-5.02 9.58-5.1 1.79.15 1.23-2.24 1.85-3.27.98-1.88 1.86-3.81 2.78-5.73-1.72-.63-3.55 2.93-4.6.67.14-2.96 3.99-4.21 6.4-5.12 1.89-5.09 5.17-9.69 6.08-15.12-11.12 8.8-21.76 18.22-32.8 27.13m26.9 6.8c1.09 2.72 2.61 5.3 3.13 8.22.44 5.03 6.21 6.3 9.77 8.65-.7-2.94-.12-5.85 1.17-8.53-2.01-.31-4.36-.22-5.84-1.88-2.17-1.76-2.74-4.62-4.13-6.91-1.38.09-2.74.24-4.1.45m10.94 36.39c-1.8 2.09-3.93 4.06-4.92 6.72-1.07 4.3 2.1 8.04 2.23 12.29.44 4.4 4.07 7.64 4.5 12.04.64 4.46 2.45 8.6 4.05 12.77 1.41 3.47 2.37 7.24 4.92 10.1.97 4.11.81 8.87-2.27 12.09-4.29 5.88-8.29 12.1-13.86 16.88-2.26 1.34-4.52 2.69-6.7 4.17 2.07 3.28 6.16 2.65 9.47 3.19 5.71.63 11.61-.68 16.55-3.6 3.91-2.4 9.2-3.27 11.7-7.44.73-5.78-3.96-10.51-4.77-16.09-.23-2.34-.52-4.67-.94-6.99-1.32-7.82.03-15.97-2.13-23.66-2.49-4.39-5.29-8.64-7.34-13.29l-3.25 1.4c.86-3.03 4.34-4.65 7.22-3.57 5.49 1.21 11.75 1.77 16.65-1.55-.86-3.06-1.31-6.39-3.38-8.94-2.4 2.93-6.34.77-9.48.84-6.8.06-12.8-3.7-18.25-7.36z"/><path d="M53.78 76.15c.26-1.26 1.07-1.52 2.41-.78-.26 1.27-1.07 1.53-2.41.78zM25.84 92.89c.82-6.35 6.85-10.15 12.59-11.47-4.05 3.97-8.42 7.61-12.59 11.47zM29.23 95.17c5.12-2.31 8.39-9 14.69-8 .4.33 1.18 1.01 1.57 1.35-5.9-.54-9.53 4.64-14.07 7.34l.03.51c-.74-.39-1.48-.79-2.22-1.2zM76.68 87.27c1.82-.61.89 1.85.03 2.38-2.37 2.1-4.53 4.42-6.89 6.52 1.33-3.62 3.97-6.45 6.86-8.9zM46.52 94.48c.75-1.57 3.39-.53 1.98 1.02-.73 1.57-3.46.49-1.98-1.02zM10.68 105.38c2.99-.72 3.96-4.43 7.33-4.46.52.75 1.04 1.49 1.57 2.23-2.04-.45-3.61.19-4.45 2.05-.44.27-1.3.82-1.74 1.09-1.94 5.15-1.75 11.18 1.41 15.81 1.54.76 3.27 1.12 4.65 2.19-2.63.38-6.02.37-7.56-2.23-2.53-5.17-1.89-11.16-1.21-16.68zM85.08 209.26c.42.17 1.26.52 1.68.69-.69 2.76-2.32 5.3-5.49 5.32 1.6-1.78 3.23-3.6 3.81-6.01z"/></g></svg>