<svg width="275pt" height="212" viewBox="0 0 275 159" xmlns="http://www.w3.org/2000/svg"><g fill="#FFF"><path d="M0 0h275v159H0V0m128.39 29.37c-3.31 2.22-2.76 6.46-3.58 9.86-1.57 6.9-.02 13.95.01 20.92-.03 5.25 3.12 9.77 3.88 14.83-.76 1.88-1.45 3.79-1.91 5.77.69-.03 2.08-.11 2.77-.15-.64.17-1.92.51-2.56.67 1.84.73 3.64 1.63 4.96 3.13-.47-.16-1.42-.5-1.9-.66-4.6.57-8.86-.77-13.14-2.21-3.05-2.67-6.72-4.66-10.91-4.31 1.16-2.65 1.55-5.53 2.04-8.36.8-4.98 2.1-9.96 1.53-15.04-6.56-4.68-15.35-3.47-22.76-1.83-7.61 2.62-14.1 7.59-20.67 12.1-3.14 2.22-7.17 2.09-10.79 2.8.53.65 1.05 1.3 1.58 1.95 3.44-1.06 7.06-1.45 10.45-2.61 5.59-3.63 10.83-7.82 16.67-11.05 7.4-2.99 15.65-2.9 23.15-.33.15 3.35-.18 6.69-.03 10.04.19 4.56-2.35 8.53-3.45 12.82-.77.18-1.54.38-2.3.6-3.58-2.71-8.01-3.27-12.36-2.96l-1.96-2.48c.48-1.04 1-2.05 1.58-3.03 3.32.3 6.65.55 9.99.44 1.83-2.19 3-4.82 3.62-7.6-1.81 1.65-3.1 3.94-5.28 5.12-5.3.19-10.69-1.05-15.91.45-3.01.75-5.04 3.27-7.21 5.29-.5 1.41-1.08 2.79-1.67 4.17-4.74-4.04-10.29-7.77-16.75-7.91-.46-.41-.93-.82-1.39-1.23-1.78 1.25-3.66 2.35-5.59 3.35-2.64 2.11-5.05 4.64-5.96 7.99.93 6.06 2.06 12.09 2.91 18.16.13 1.83 1.19 3.37 1.94 4.99-2.97 1.24-5.52 3.32-6.64 6.41 3.73-1.37 6.98-4.47 11.2-4.13 6.18.31 12.33 3.49 15.81 8.66.87.31 1.74.63 2.61.94l2-.64c1.26-4.29 5.45-5.96 8.26-9.01-4.19.98-8.43 2.6-11.24 6.03-4.84-5.29-11.77-7.89-18.78-8.59-2.4-3.03-3.58-6.63-3.13-10.52-1.08-2.77-1.62-5.73-2.99-8.39 1.76-5.01 4.93-10.17 10.37-11.64 5.02-.86 9.15 2.5 13.14 4.96 3.74 2.41 5.23 6.75 7.5 10.36 1.23 1.98 2.18 4.16 2.51 6.49.8 3.48-1.74 6.78-4.48 8.63-2.79 2.23-6.48.43-9.59.04-5.88-1.04-9.96-5.75-15.12-8.33 1.42 4.77 5.51 7.73 9.81 9.75 4.87.58 9.55 3.54 14.55 2.02 1.42-2.07 3.34-3.67 5.21-5.3.59-2.29 1.18-4.58 1.92-6.82-2.21-5.36-4.57-10.65-7.18-15.82 3.51-3.69 6.77-8.81 12.6-8.31-.04 1.9-.06 3.8.03 5.7-3.95 1-7.53 3.07-10.46 5.87 4.09.06 7.36-2.93 11.36-3.39 3.63-.51 7.75-.96 10.91 1.3 1.81 1.34 4.07 1.44 6.22 1.54-1.6.71-2.79 1.91-2.51 3.88 2.51-1.18 4.65-2.92 6.69-4.75 2.2-.06 3.81 1.58 5.55 2.64-.4 1.05-1.21 3.14-1.62 4.19-2.92-1.72-6.84-2.04-9.07.92 4.17-1.33 8.65.01 11.4 3.4-.08 2.46-.71 4.9-.49 7.37 1.08 2.28 3.25 3.75 5.27 5.13 1.06-.75 2.13-1.51 3.19-2.27l-3.06.48c-1.15-1.23-2.3-2.46-3.44-3.69-.19-2.15-.3-4.3-.39-6.45 1.75.06 3.66-1.02 5.35-.29 1.25 1.38 2.32 2.92 3.56 4.32.29 1.97 1.01 3.87 2.92 4.81-.65-1.54-1.37-3.05-2.06-4.57 2.5-1.11 4.97-2.26 7.48-3.33.94 5.44.75 10.99 1.57 16.44.69 5.45 3.77 10.39 8.25 13.54-1.18.32-2.35.69-3.54.96-7.61.4-15.31.35-22.86-.92-3.25.96-6.58 1.59-9.99 1.46-5.35-.21-10.06 2.61-14.85 4.49-5.69.17-11.28-2.2-16.99-.95-7.44 1.63-15.13.02-22.18-2.5-3.75-1.3-7.8-1.43-11.5-2.9-3.79-1.61-8.07-2.18-11.21-5.07.43-2.17.95-4.33 1.65-6.43 1.06-2.73.46-5.74 1.31-8.52 1.24-4.22.28-8.87 2.32-12.88 2.59-5.04 6.38-9.37 8.8-14.5-4.42 2.85-6.63 7.83-9.62 11.96-5.33 7.8-3.7 17.77-6.86 26.32-.69 1.98-.91 4.84 1.38 5.84 5.93 4.01 12.71 6.68 19.66 8.3 6.77 2.3 13.85 3.87 21.04 3.82 3.69-.27 7.25-1.53 10.97-1.54 4.34.5 8.66 2.15 13.07 1.43 4.38-1.28 8.21-4.61 13.01-4.31 3.7.19 7.38-.24 10.93-1.32 8.81.84 18.19 2.84 26.73-.32 4.85 1.26 9.7-1.3 14.45.37 8.02.52 13.67-6.24 18.19-11.93 1.33-3.63.94-7.6 1.05-11.39-2.01-3.74-2.55-8.06-2.98-12.22-.34-2.91-1.79-5.8-.88-8.74.77-2.63 1.51-5.35 3.13-7.61l-.44-2.07c.8-1.83 1.56-3.67 2.53-5.41 1.86 5.26 4.06 10.43 7.29 15.01 1.88 2.33 5 3.53 6.29 6.36 1.11 2.29 2.1 4.65 3.02 7.03 2.25 5.63.67 11.74 1.1 17.61-.1 3.18 2.8 5.74 5.64 6.63 5.78 1.45 11.66-.27 17.23-1.8 5.29-1.49 10.4 2.22 15.66.92 3.18-.34 5.71-2.43 8.55-3.68.94-1.69 1.75-3.44 2.44-5.24-3.56-2.1-7.85-2.37-11.35-4.58-6-3.44-12.6-5.72-18.52-9.26-7.23-5.87-9.04-15.54-11.95-23.9 3.58-2.25 6.33-5.9 10.53-7.09 4.87-2.12 10.57-3.81 13.48-8.65.76-2.87 3.05-5.34 2.71-8.45-.27-2.1.13-4.79-1.83-6.21-6.47-.88-11.74 5.16-18.26 3.71-5.55-.8-11.13-.01-16.65.62-4.58.75-8.67-1.94-13.01-2.9-8.1-2.2-15.29-6.61-23.06-9.63-4.65-2.93-10.4-2.79-15.16-5.4-4.83-1.8-10.61-1.57-14.46 2.21m-22.78 70.09c1.11 2.26 3.68 2.41 5.86 2.14-4.95-2.31-6.34-7.77-9.07-12.05-1.17 3.72 2.02 6.64 3.21 9.91m-13.42.3c-3.88 2.13-6.53 5.75-9.89 8.53a37.926 37.926 0 00-4.64 4.84c6.8-3.3 11.92-9.18 18.59-12.71-1.58-2.03-.46-4.35-.06-6.56-1.86 1.56-3.44 3.49-4 5.9m16.27 8.12c-.95 1.66-1.6 3.46-2.11 5.3-1.78-.6-3.57-1.14-5.37-1.67 1.73-1.23 3.43-2.49 5.1-3.79-.53-.35-1.6-1.05-2.14-1.41-2.18 1.08-3.46 3.39-4.97 5.23-3.11-.39-6.08.71-9.04 1.49-3.06.72-6.15 1.32-9.18 2.14 5.14 1.6 10.61.43 15.52-1.39 6-1.1 10.99 2.87 16.48 4.35-1.22-1.43-2.61-2.69-4-3.95.42-1.48.72-2.98 1.09-4.47l3.19.92c2.02-1.85 4.74-3.48 4.88-6.55-3.03 1.68-5.58 4.79-9.45 3.8z"/><path d="M134.23 28.37c2.85-.27 5.89-.18 8.51 1.11 3.9 2.01 8.4 2.28 12.32 4.27 11.22 3.98 21.92 9.3 32.9 13.91 6.36.72 12.69-.93 19.07-.41 3.51.06 7.26.84 10.57-.75 3.22-1.44 6.55-2.61 9.91-3.7 2.03 3.23 1.54 7.21-.63 10.24-1.95 1.7-3.23 4.2-5.69 5.28-3.74 1.94-7.86 3.12-11.29 5.63-3.07 1.89-5.31 5.45-9.2 5.72-1.96-.07-4.31-.06-5.7-1.68-2.59-3.01-5.4-5.87-7.58-9.21-10.7-2.85-22.3.06-32.59-4.59-4.85-2.17-9.24-5.33-13.1-8.96 2.61 4.3 5.76 8.31 9.94 11.17 4.78 5.6 9.09 11.6 12.51 18.15-4.73 5.53-12.52 6.18-19.27 7.17-4.16.07-8.34.02-12.48-.45-1.31-.74-2.07-2.14-3.08-3.21.85.28 2.55.85 3.41 1.13-1.22-4.84-3.33-9.37-4.78-14.13-1.89-9.49-2.86-19.49-.34-28.97.71-3.52 3.9-5.72 6.59-7.72z"/><path d="M154.9 57.31c6.78 4.24 15.09 2.58 22.64 3.63-1.39 3.06-2.18 6.34-3.04 9.57-3.9-3.53-8.5-6.68-13.86-7.32-2.15-1.72-4.18-3.6-5.74-5.88zM179.4 61.3c3.39-.44 6.74.65 9.51 2.58 2.09 2.27 3.47 5.09 5.36 7.53 2.1.12 4.2.2 6.3.25 3 2.47 3.73 6.44 5.17 9.84 2.37 6.53 5.69 13.39 11.94 16.99 4.01 2.29 8.72 3.38 12.25 6.5 1.95 1.72 4.33 3.13 7.05 2.76 2.29-.37 4.17.97 5.85 2.32-1.99 3.47-6.22 3.79-9.69 4.79-5.02.44-10.07-.66-15.12-.25-4.56-.24-8.43 3.48-13.03 2.54-2.42-.2-4.28-1.88-6.25-3.1.23-5.38 1.06-10.79.36-16.17-1.19-4.79-3.15-9.41-5.72-13.63-8.17-4.89-10.88-14.58-13.98-22.95z"/><path d="M162.32 64.32c4.63 1.9 7.17 6.53 11.64 8.69-1.4 4.07-5.13 7.96-3.78 12.52 2.12 5.94 3.01 12.21 4.66 18.29-1.09 2.94-1.06 6.06-.53 9.11-4.31 4.72-8.98 11.17-16.16 10.59-3.65-1.04-7.39-1.48-11.18-.91-1.76-1.49-3.98-2.37-5.57-4.04-2.59-4.39-4.91-9.02-5.62-14.13-.35-4.77-1.73-9.39-2.06-14.16 2.71.69 5.44 1.98 5.99 5.01 1.94 1.89 3.68 4.2 6.32 5.15 1.35-.17 2.67-.55 3.99-.86.69-.77 1.39-1.54 2.1-2.3l-2.55.56c.01-1.11.05-3.33.06-4.44-3.11-2.41-7.02-3.41-10.83-4.03-1.39-2.29-3.14-4.31-4.94-6.28 4.34.83 8.79 2.48 13.18.91 1.62-.34 3.26-.56 4.87-.96 4.76-1.42 9.83-2.93 13.26-6.77.25-2.3.7-4.61.42-6.93-.89-1.8-2.21-3.34-3.27-5.02z"/><path d="M114.28 83.09c3.14-.27 5.92.77 7.27 3.73l2.43-1.05c2.85.53 5.88.43 8.47 1.94.73-.16 2.17-.48 2.89-.64-1.1 1.34-2.29 2.6-3.47 3.88-2.19.55-4.36 1.18-6.56 1.7-2.38-3.77-6.8-4.49-10.91-3.97-.07-1.86-.06-3.73-.12-5.59zM140.38 91.97c2.66 1.03 6.2 1.33 6.92 4.66-2.13-.47-4.17-1.22-6.18-2.06-.25-.87-.5-1.74-.74-2.6z"/></g><g fill="#333"><path d="M128.39 29.37c3.85-3.78 9.63-4.01 14.46-2.21 4.76 2.61 10.51 2.47 15.16 5.4 7.77 3.02 14.96 7.43 23.06 9.63 4.34.96 8.43 3.65 13.01 2.9 5.52-.63 11.1-1.42 16.65-.62 6.52 1.45 11.79-4.59 18.26-3.71 1.96 1.42 1.56 4.11 1.83 6.21.34 3.11-1.95 5.58-2.71 8.45-2.91 4.84-8.61 6.53-13.48 8.65-4.2 1.19-6.95 4.84-10.53 7.09 2.91 8.36 4.72 18.03 11.95 23.9 5.92 3.54 12.52 5.82 18.52 9.26 3.5 2.21 7.79 2.48 11.35 4.58-.69 1.8-1.5 3.55-2.44 5.24-2.84 1.25-5.37 3.34-8.55 3.68-5.26 1.3-10.37-2.41-15.66-.92-5.57 1.53-11.45 3.25-17.23 1.8-2.84-.89-5.74-3.45-5.64-6.63-.43-5.87 1.15-11.98-1.1-17.61-.92-2.38-1.91-4.74-3.02-7.03-1.29-2.83-4.41-4.03-6.29-6.36-3.23-4.58-5.43-9.75-7.29-15.01-.97 1.74-1.73 3.58-2.53 5.41l.44 2.07c-1.62 2.26-2.36 4.98-3.13 7.61-.91 2.94.54 5.83.88 8.74.43 4.16.97 8.48 2.98 12.22-.11 3.79.28 7.76-1.05 11.39-4.52 5.69-10.17 12.45-18.19 11.93-4.75-1.67-9.6.89-14.45-.37-8.54 3.16-17.92 1.16-26.73.32a31.833 31.833 0 01-10.93 1.32c-4.8-.3-8.63 3.03-13.01 4.31-4.41.72-8.73-.93-13.07-1.43-3.72.01-7.28 1.27-10.97 1.54-7.19.05-14.27-1.52-21.04-3.82-6.95-1.62-13.73-4.29-19.66-8.3-2.29-1-2.07-3.86-1.38-5.84 3.16-8.55 1.53-18.52 6.86-26.32 2.99-4.13 5.2-9.11 9.62-11.96-2.42 5.13-6.21 9.46-8.8 14.5-2.04 4.01-1.08 8.66-2.32 12.88-.85 2.78-.25 5.79-1.31 8.52-.7 2.1-1.22 4.26-1.65 6.43 3.14 2.89 7.42 3.46 11.21 5.07 3.7 1.47 7.75 1.6 11.5 2.9 7.05 2.52 14.74 4.13 22.18 2.5 5.71-1.25 11.3 1.12 16.99.95 4.79-1.88 9.5-4.7 14.85-4.49 3.41.13 6.74-.5 9.99-1.46 7.55 1.27 15.25 1.32 22.86.92 1.19-.27 2.36-.64 3.54-.96-4.48-3.15-7.56-8.09-8.25-13.54-.82-5.45-.63-11-1.57-16.44-2.51 1.07-4.98 2.22-7.48 3.33.69 1.52 1.41 3.03 2.06 4.57-1.91-.94-2.63-2.84-2.92-4.81-1.24-1.4-2.31-2.94-3.56-4.32-1.69-.73-3.6.35-5.35.29.09 2.15.2 4.3.39 6.45 1.14 1.23 2.29 2.46 3.44 3.69l3.06-.48c-1.06.76-2.13 1.52-3.19 2.27-2.02-1.38-4.19-2.85-5.27-5.13-.22-2.47.41-4.91.49-7.37a10.495 10.495 0 00-11.4-3.4c2.23-2.96 6.15-2.64 9.07-.92.41-1.05 1.22-3.14 1.62-4.19-1.74-1.06-3.35-2.7-5.55-2.64-2.04 1.83-4.18 3.57-6.69 4.75-.28-1.97.91-3.17 2.51-3.88-2.15-.1-4.41-.2-6.22-1.54-3.16-2.26-7.28-1.81-10.91-1.3-4 .46-7.27 3.45-11.36 3.39 2.93-2.8 6.51-4.87 10.46-5.87-.09-1.9-.07-3.8-.03-5.7-5.83-.5-9.09 4.62-12.6 8.31 2.61 5.17 4.97 10.46 7.18 15.82-.74 2.24-1.33 4.53-1.92 6.82-1.87 1.63-3.79 3.23-5.21 5.3-5 1.52-9.68-1.44-14.55-2.02-4.3-2.02-8.39-4.98-9.81-9.75 5.16 2.58 9.24 7.29 15.12 8.33 3.11.39 6.8 2.19 9.59-.04 2.74-1.85 5.28-5.15 4.48-8.63-.33-2.33-1.28-4.51-2.51-6.49-2.27-3.61-3.76-7.95-7.5-10.36-3.99-2.46-8.12-5.82-13.14-4.96-5.44 1.47-8.61 6.63-10.37 11.64 1.37 2.66 1.91 5.62 2.99 8.39-.45 3.89.73 7.49 3.13 10.52 7.01.7 13.94 3.3 18.78 8.59 2.81-3.43 7.05-5.05 11.24-6.03-2.81 3.05-7 4.72-8.26 9.01l-2 .64c-.87-.31-1.74-.63-2.61-.94-3.48-5.17-9.63-8.35-15.81-8.66-4.22-.34-7.47 2.76-11.2 4.13 1.12-3.09 3.67-5.17 6.64-6.41-.75-1.62-1.81-3.16-1.94-4.99-.85-6.07-1.98-12.1-2.91-18.16.91-3.35 3.32-5.88 5.96-7.99 1.93-1 3.81-2.1 5.59-3.35.46.41.93.82 1.39 1.23 6.46.14 12.01 3.87 16.75 7.91.59-1.38 1.17-2.76 1.67-4.17 2.17-2.02 4.2-4.54 7.21-5.29 5.22-1.5 10.61-.26 15.91-.45 2.18-1.18 3.47-3.47 5.28-5.12-.62 2.78-1.79 5.41-3.62 7.6-3.34.11-6.67-.14-9.99-.44-.58.98-1.1 1.99-1.58 3.03l1.96 2.48c4.35-.31 8.78.25 12.36 2.96.76-.22 1.53-.42 2.3-.6 1.1-4.29 3.64-8.26 3.45-12.82-.15-3.35.18-6.69.03-10.04-7.5-2.57-15.75-2.66-23.15.33-5.84 3.23-11.08 7.42-16.67 11.05-3.39 1.16-7.01 1.55-10.45 2.61-.53-.65-1.05-1.3-1.58-1.95 3.62-.71 7.65-.58 10.79-2.8 6.57-4.51 13.06-9.48 20.67-12.1 7.41-1.64 16.2-2.85 22.76 1.83.57 5.08-.73 10.06-1.53 15.04-.49 2.83-.88 5.71-2.04 8.36 4.19-.35 7.86 1.64 10.91 4.31 4.28 1.44 8.54 2.78 13.14 2.21.48.16 1.43.5 1.9.66-1.32-1.5-3.12-2.4-4.96-3.13.64-.16 1.92-.5 2.56-.67-.69.04-2.08.12-2.77.15.46-1.98 1.15-3.89 1.91-5.77-.76-5.06-3.91-9.58-3.88-14.83-.03-6.97-1.58-14.02-.01-20.92.82-3.4.27-7.64 3.58-9.86m5.84-1c-2.69 2-5.88 4.2-6.59 7.72-2.52 9.48-1.55 19.48.34 28.97 1.45 4.76 3.56 9.29 4.78 14.13-.86-.28-2.56-.85-3.41-1.13 1.01 1.07 1.77 2.47 3.08 3.21 4.14.47 8.32.52 12.48.45 6.75-.99 14.54-1.64 19.27-7.17C160.76 68 156.45 62 151.67 56.4c-4.18-2.86-7.33-6.87-9.94-11.17 3.86 3.63 8.25 6.79 13.1 8.96 10.29 4.65 21.89 1.74 32.59 4.59 2.18 3.34 4.99 6.2 7.58 9.21 1.39 1.62 3.74 1.61 5.7 1.68 3.89-.27 6.13-3.83 9.2-5.72 3.43-2.51 7.55-3.69 11.29-5.63 2.46-1.08 3.74-3.58 5.69-5.28 2.17-3.03 2.66-7.01.63-10.24-3.36 1.09-6.69 2.26-9.91 3.7-3.31 1.59-7.06.81-10.57.75-6.38-.52-12.71 1.13-19.07.41-10.98-4.61-21.68-9.93-32.9-13.91-3.92-1.99-8.42-2.26-12.32-4.27-2.62-1.29-5.66-1.38-8.51-1.11m20.67 28.94c1.56 2.28 3.59 4.16 5.74 5.88 5.36.64 9.96 3.79 13.86 7.32.86-3.23 1.65-6.51 3.04-9.57-7.55-1.05-15.86.61-22.64-3.63m24.5 3.99c3.1 8.37 5.81 18.06 13.98 22.95 2.57 4.22 4.53 8.84 5.72 13.63.7 5.38-.13 10.79-.36 16.17 1.97 1.22 3.83 2.9 6.25 3.1 4.6.94 8.47-2.78 13.03-2.54 5.05-.41 10.1.69 15.12.25 3.47-1 7.7-1.32 9.69-4.79-1.68-1.35-3.56-2.69-5.85-2.32-2.72.37-5.1-1.04-7.05-2.76-3.53-3.12-8.24-4.21-12.25-6.5-6.25-3.6-9.57-10.46-11.94-16.99-1.44-3.4-2.17-7.37-5.17-9.84-2.1-.05-4.2-.13-6.3-.25-1.89-2.44-3.27-5.26-5.36-7.53-2.77-1.93-6.12-3.02-9.51-2.58m-17.08 3.02c1.06 1.68 2.38 3.22 3.27 5.02.28 2.32-.17 4.63-.42 6.93-3.43 3.84-8.5 5.35-13.26 6.77-1.61.4-3.25.62-4.87.96-4.39 1.57-8.84-.08-13.18-.91 1.8 1.97 3.55 3.99 4.94 6.28 3.81.62 7.72 1.62 10.83 4.03-.01 1.11-.05 3.33-.06 4.44l2.55-.56c-.71.76-1.41 1.53-2.1 2.3-1.32.31-2.64.69-3.99.86-2.64-.95-4.38-3.26-6.32-5.15-.55-3.03-3.28-4.32-5.99-5.01.33 4.77 1.71 9.39 2.06 14.16.71 5.11 3.03 9.74 5.62 14.13 1.59 1.67 3.81 2.55 5.57 4.04 3.79-.57 7.53-.13 11.18.91 7.18.58 11.85-5.87 16.16-10.59-.53-3.05-.56-6.17.53-9.11-1.65-6.08-2.54-12.35-4.66-18.29-1.35-4.56 2.38-8.45 3.78-12.52-4.47-2.16-7.01-6.79-11.64-8.69m-48.04 18.77c.06 1.86.05 3.73.12 5.59 4.11-.52 8.53.2 10.91 3.97 2.2-.52 4.37-1.15 6.56-1.7 1.18-1.28 2.37-2.54 3.47-3.88-.72.16-2.16.48-2.89.64-2.59-1.51-5.62-1.41-8.47-1.94l-2.43 1.05c-1.35-2.96-4.13-4-7.27-3.73m26.1 8.88c.24.86.49 1.73.74 2.6 2.01.84 4.05 1.59 6.18 2.06-.72-3.33-4.26-3.63-6.92-4.66z"/><path d="M105.61 99.46c-1.19-3.27-4.38-6.19-3.21-9.91 2.73 4.28 4.12 9.74 9.07 12.05-2.18.27-4.75.12-5.86-2.14zM92.19 99.76c.56-2.41 2.14-4.34 4-5.9-.4 2.21-1.52 4.53.06 6.56-6.67 3.53-11.79 9.41-18.59 12.71 1.4-1.75 2.96-3.37 4.64-4.84 3.36-2.78 6.01-6.4 9.89-8.53zM108.46 107.88c3.87.99 6.42-2.12 9.45-3.8-.14 3.07-2.86 4.7-4.88 6.55l-3.19-.92c-.37 1.49-.67 2.99-1.09 4.47 1.39 1.26 2.78 2.52 4 3.95-5.49-1.48-10.48-5.45-16.48-4.35-4.91 1.82-10.38 2.99-15.52 1.39 3.03-.82 6.12-1.42 9.18-2.14 2.96-.78 5.93-1.88 9.04-1.49 1.51-1.84 2.79-4.15 4.97-5.23.54.36 1.61 1.06 2.14 1.41-1.67 1.3-3.37 2.56-5.1 3.79 1.8.53 3.59 1.07 5.37 1.67.51-1.84 1.16-3.64 2.11-5.3z"/></g></svg>