<svg width="236pt" height="125pt" viewBox="0 0 236 125" xmlns="http://www.w3.org/2000/svg"><g fill="#FFF"><path d="M0 0h236v125H0V0m221.07 11.2c-3.48 3.09-8.36 3.47-12.31 5.71-4.78 2.76-10.45 2.33-15.75 2.37-10.05.21-19.94-2.77-30-1.64-4.7-.72-10.09-2.12-14.17 1.26-1.6 2.1-2.7 4.53-4.16 6.73-2.81 4.35-3.69 9.55-5.62 14.29-2.29 5.59-2.24 11.77-1.79 17.69-.36.26-1.1.76-1.46 1.02-.05.58-.14 1.74-.19 2.32-1.75 1.5-2.18 3.71-2.2 5.9 1.85-1.21 3.6-2.58 5.53-3.68 1.74 1.03 3.23 2.48 5.09 3.31 5.85 1.34 11.98 2.38 17.92.85-2 4.38-1.24 9.32-2.98 13.75-1.46 4.02-.87 8.93-3.97 12.2-3.19-.98-3.84 3.78-6.91 3.63-5.01.31-9.94-1.43-14.94-1.28-2.78 1.15-5.71 2.03-8.72 1.2-1.26-8.09-4.79-15.65-5.41-23.87l-1.69.67c-.25 6.65 1.53 13.61 4.96 19.39 1.12.98-.3 3.59-1.72 2.54-2.84-6.37-3.12-13.45-4.38-20.23-3.58-.03-6.82 1.98-9.3 4.41-1.81-.39-2.98.2-3.53 1.76 1.54.05 3.09.09 4.63.12 1.8-1.85 4.03-3.12 6.57-3.62.2 6.27 2.27 12.2 3.86 18.2-8.52 6.37-20.02 3.05-29.51 6.83-5.14.72-10.82.14-15.29-2.73-3.77-2.34-8.33-3.23-11.73-6.19-2.91-2.46-5.83-4.92-8.78-7.34-2.56-1.7-3.01-4.98-3.7-7.74-1.64-4.91 4.48-8.15 3.16-13.08-1.24-4.03-2.23-8.11-2.24-12.36-6.14-.59-12.2 3.72-14.75 9.26 1.12 2.18 3.1 4.45 2 7.06-1.85 2.03-4.93 1.95-7.45 1.89-3.31-2.75-7.65-5.87-7.31-10.72 2.83-3.39 7.47-4.68 10.09-8.3 2.55-3.7 4.52-7.86 7.64-11.14 3.71-2.37 7.64-4.41 10.81-7.53 1.56-1.75 4.31-.46 5.3 1.26 4.39 7.2 7.95 14.98 10 23.17 1.05 3.79-.44 7.62-.49 11.43-.11 4.11-.62 8.18-1.24 12.24.28.51.82 1.53 1.09 2.04 1.19-2.62 2.11-5.35 2.9-8.12 1.96 2.85 1.64 7.73 5.66 8.63-.45-1.96-1.03-3.88-1.59-5.8 3.65 2.9 8.64 3.72 11.6 7.54 3.64 2.8 4.19 8.61 8.7 10.25.47-.41 1.39-1.22 1.86-1.63-2.89-.57-3.69-3.49-4.79-5.78.79.01 2.37.04 3.16.05.39-1.14.7-2.3.88-3.49-1.59.56-3.17 1.15-4.75 1.75-.48-.99-1.04-1.92-1.61-2.84 1.64-1.31 2.67-3.15 3.44-5.05-1.09-.48-2.17-1-3.15-1.67.23 1.72 1.25 4.8-1.52 4.77-6.22-1.8-11.27-6.42-17.5-8.33-.77-3.01-.71-6.11-.26-9.16 4.25.29 8.53.85 12.58 2.2 2.99.99 3.95 4.62 6.73 5.91 3.53-1.57 7.73-1.94 10.89.72 1.22-.46 2.33-1.44 3.69-1.37 1.75.78 3.28 2.05 5.14 2.56 3.75-.58 7.22-2.29 11-2.75 1.71-.09 2.79-1.62 4.08-2.55.81.49 1.64.98 2.47 1.45 1.1-1.69 2.05-3.47 2.95-5.28.76-.05 2.27-.16 3.03-.21-.31-2.59-.48-5.22-.2-7.82.85-.81 1.91-1.37 2.9-2 1.82-5.25.51-10.89 1.68-16.25 1.27-6.01 1.69-12.46 5.24-17.69 1.4-3.07 6.06-.73 7.35-3.98-2.22.15-4.43.34-6.65.52-5.77 5.91-6.49 14.44-7.91 22.15-.6 4.31.11 8.72-.76 13-.42 1.64-2.27 2.09-3.45 3.02a80.6 80.6 0 01-.26 4.12c.02 3.04-3.04 4.69-4.07 7.34-1.16.04-2.33.08-3.49.13-3.99 2.99-9.08 3.33-13.85 3.88-2.96-1.25-6.15-1.74-9.23-.59-1.62-1.42-3.74-1.68-5.79-1.92-1.66.89-3.87 2.26-5.27.18-4.09-5.8-11.65-7.21-18.31-7.06.12-8.78-4.1-16.77-8.13-24.31-1.46-3.43-4.24-6.38-7.88-7.46-3.83-.09-6.3 3.24-9.28 5.12-2.3-.71-4.73-1.62-7.16-1.01-6.1 1.52-10.51 6.47-13.65 11.64-1.24 3.39-.72 7.07-.92 10.6-.39 2.63-1.82 5.3-1.14 7.97 2.52 2.74 4.65 6 7.75 8.11 2.66.57 5.39.67 8.09.96.42-.53 1.27-1.59 1.7-2.13 1.74.32 3.88-.18 5.19 1.3 3.39 2.51 2.27 7.28 4.55 10.49 1.27 2.94 4.19 4.47 6.5 6.46 2.97 2.37 5.47 5.27 8.43 7.65 2.19 1.34 4.74 1.95 7.12 2.88 3.09 1.1 5.92 2.92 9.18 3.51 4.66 1.03 9.46.46 14.16.15 3.64-.63 7.17-1.89 10.92-1.79 5.41-.13 10.32-2.43 15.31-4.21 4.17.38 8.49 1.51 12.42-.58 4.11.75 8.26-.77 12.33.49 3.62-.5 6.75-2.63 10.11-3.92 3.8-1.83 4.33-6.28 4.86-9.97.39-3.77 2.38-7.22 2.14-11.07-.12-2.6 1.19-4.92 2.1-7.26-.26-.63-.78-1.89-1.05-2.52 1.42-3.91 2.45-8.03 2.03-12.22-.11-4.27-3.13-7.77-3.48-11.99-.27-1.52 0-3.41-1.63-4.24-.57 3.63-.56 7.41 1.2 10.74 3.07 5.78 1.54 12.4.85 18.53-5.23 1.55-10.73.55-15.95-.42-3.01-1.16-5.7-3.01-8.64-4.31 1.76-2.23 1.34-5.2 1.59-7.85.15-9.23 3.38-18.13 7.34-26.37.34.81.67 1.62.97 2.44 1.14-.43 2.27-.88 3.39-1.34-1.3-.58-3.29-1.21-2.93-3.06 1.32-3.5 5.13-6.54 9.01-5.38 3.3.91 6.7 1.36 10.12.93 10.71.2 21.34 1.6 32.01 2.44 4.96-.47 9.14-3.6 13.92-4.79 2.78-.83 5.84-1.2 8.17-3.08 2.3-1.82 4.51-3.76 6.88-5.48 3.91 3.11 1.92 8.46-.21 12.01-2.95 3.39-7.03 5.76-9.23 9.81-1.17 2.27-2.89 4.15-5.28 5.14.16.36.47 1.08.62 1.44 2.43-.7 4.66-2.04 5.74-4.43 2.74-5.37 9.24-7.59 11.64-13.19 1.32-4.27 1.71-10.02-2.26-12.99-3.23.16-5.53 2.89-8 4.68m-65.52 13c2.17.26 4.38.24 6.55-.03-.64-.93-1.23-1.9-1.88-2.82-1.57.93-3.14 1.86-4.67 2.85m16.42 5.18c-2.59.04-5.68-1.9-7.78.38 7.15 1.65 15.03 2.35 21.88-.81-4.69.18-9.4.56-14.1.43M184 34.34c-5.01-.03-9.77 2.7-14.81 1.49-3.51-1.61-7.07-3.52-11.09-3.16 5.01 4.32 12.26 6.59 18.73 4.33 2.43-.63 4.74-1.6 7.13-2.35 3.17-.32 6.41.45 9.55-.37 4.57-1.17 9.91-1.42 13.73 1.82.12.55.37 1.64.49 2.19 1.46.03 2.92.08 4.38.12 2.8 2.41 6.01 4.28 8.92 6.53 2.06 2.02 3.57 4.51 5.35 6.76 4.73 6.36 5.95 14.68 4.86 22.37-2.34 5.74-3.32 12.68-8.72 16.52-4.44 2.95-8.84 6.41-14.19 7.47-5.06 1.09-10.27.39-15.37 1.07-9.02.39-18.21-1.39-26.06-5.96-1.45-.93-2.28-2.96-3.98-3.34-1.91.1.03 1.97.54 2.54 11.03 10.29 27.37 11.38 41.56 9.08 12-1.96 23.96-9.28 28.2-21.16.91-3.39 1.77-6.8 2.73-10.18.86-3.92-1.88-7.3-2.74-10.97-1.42-5.88-5.52-10.49-9.41-14.89-3.74-4.42-10.05-4.9-14.27-8.66-2.63-2.32-5.85-4.69-9.58-4.2-5.5-.22-10.73 1.51-15.95 2.95m-38.08 9.81c1.58-3.53 3.24-7.35 2.66-11.31-2.32 3.1-3.6 7.51-2.66 11.31m13.91 6.84c-.7-3.96-1.69-7.91-1.67-11.95-.25-1.75.6-4.13-1.44-5.13-1.33 5.9-.03 11.99 3.11 17.08m-3.56 12.75l1.83-.36c.74-2.48 1.97-4.97 1.47-7.63-1.98 2.23-2.52 5.22-3.3 7.99m-35.8 8.68c-1.61 1.7 1.63 2.38 2.38.99.83-1.48-1.68-2.08-2.38-.99m-44.13 2.07l.28 1.92c3.46.96 6.85-.48 10.22-1.09-.29-.65-.64-1.26-1.08-1.81-3.17-.09-6.32.36-9.42.98m14.98 2c-1.49 3.55 3.67 3.03 4.68.56-.75-2.03-3.2-1.29-4.68-.56m4.65 3.75c-2.11.38-3.36 2.1-4.3 3.86 2.1-.03 3.34-1.71 4.57-3.15 1.95-.27 3.9-.53 5.86-.73.75-.96 1.48-1.93 2.24-2.88-2.93.39-6.95-.5-8.37 2.9m1.1 5.83c2.35-1.02 4.49-2.84 5.04-5.45-2.23 1.17-4.59 2.77-5.04 5.45m-.94 6c1.39-.92 2.64-2.05 3.9-3.15-.28-.45-.83-1.35-1.1-1.8-1.18 1.5-2.42 3.02-2.8 4.95m.83 4.38c3.75 1.28 7.89 1.5 11.45-.48-2.56-1.66-5.64.27-8.38-.69-1.18-.54-2.17-1.37-3.22-2.11-1.24.84-2.26 3.19.15 3.28z"/><path d="M25.1 49.06c2.15-7.63 10.2-11.01 17.43-11.79-4.25 2.21-6.07 6.79-8.87 10.38-2.11 3.53-5.27 6.22-7.81 9.41-2.97-1.57-1.14-5.48-.75-8zM38.3 63.05c2.4-3.17 5.48-6.04 9.56-6.66.39 3.19 1.06 6.48 3.36 8.88-1.15 2.88-1.82 5.92-2.15 9-2.44-.91-4.28-2.74-5.56-4.98l-3.85.33c1.19-2.44.4-4.73-1.36-6.57z"/></g><g fill="#333"><path d="M221.07 11.2c2.47-1.79 4.77-4.52 8-4.68 3.97 2.97 3.58 8.72 2.26 12.99-2.4 5.6-8.9 7.82-11.64 13.19-1.08 2.39-3.31 3.73-5.74 4.43-.15-.36-.46-1.08-.62-1.44 2.39-.99 4.11-2.87 5.28-5.14 2.2-4.05 6.28-6.42 9.23-9.81 2.13-3.55 4.12-8.9.21-12.01-2.37 1.72-4.58 3.66-6.88 5.48-2.33 1.88-5.39 2.25-8.17 3.08-4.78 1.19-8.96 4.32-13.92 4.79-10.67-.84-21.3-2.24-32.01-2.44-3.42.43-6.82-.02-10.12-.93-3.88-1.16-7.69 1.88-9.01 5.38-.36 1.85 1.63 2.48 2.93 3.06-1.12.46-2.25.91-3.39 1.34-.3-.82-.63-1.63-.97-2.44-3.96 8.24-7.19 17.14-7.34 26.37-.25 2.65.17 5.62-1.59 7.85 2.94 1.3 5.63 3.15 8.64 4.31 5.22.97 10.72 1.97 15.95.42.69-6.13 2.22-12.75-.85-18.53-1.76-3.33-1.77-7.11-1.2-10.74 1.63.83 1.36 2.72 1.63 4.24.35 4.22 3.37 7.72 3.48 11.99.42 4.19-.61 8.31-2.03 12.22.27.63.79 1.89 1.05 2.52-.91 2.34-2.22 4.66-2.1 7.26.24 3.85-1.75 7.3-2.14 11.07-.53 3.69-1.06 8.14-4.86 9.97-3.36 1.29-6.49 3.42-10.11 3.92-4.07-1.26-8.22.26-12.33-.49-3.93 2.09-8.25.96-12.42.58-4.99 1.78-9.9 4.08-15.31 4.21-3.75-.1-7.28 1.16-10.92 1.79-4.7.31-9.5.88-14.16-.15-3.26-.59-6.09-2.41-9.18-3.51-2.38-.93-4.93-1.54-7.12-2.88-2.96-2.38-5.46-5.28-8.43-7.65-2.31-1.99-5.23-3.52-6.5-6.46-2.28-3.21-1.16-7.98-4.55-10.49-1.31-1.48-3.45-.98-5.19-1.3-.43.54-1.28 1.6-1.7 2.13-2.7-.29-5.43-.39-8.09-.96-3.1-2.11-5.23-5.37-7.75-8.11-.68-2.67.75-5.34 1.14-7.97.2-3.53-.32-7.21.92-10.6C26.59 41.89 31 36.94 37.1 35.42c2.43-.61 4.86.3 7.16 1.01 2.98-1.88 5.45-5.21 9.28-5.12 3.64 1.08 6.42 4.03 7.88 7.46 4.03 7.54 8.25 15.53 8.13 24.31 6.66-.15 14.22 1.26 18.31 7.06 1.4 2.08 3.61.71 5.27-.18 2.05.24 4.17.5 5.79 1.92 3.08-1.15 6.27-.66 9.23.59 4.77-.55 9.86-.89 13.85-3.88 1.16-.05 2.33-.09 3.49-.13 1.03-2.65 4.09-4.3 4.07-7.34.12-1.37.21-2.74.26-4.12 1.18-.93 3.03-1.38 3.45-3.02.87-4.28.16-8.69.76-13 1.42-7.71 2.14-16.24 7.91-22.15 2.22-.18 4.43-.37 6.65-.52-1.29 3.25-5.95.91-7.35 3.98-3.55 5.23-3.97 11.68-5.24 17.69-1.17 5.36.14 11-1.68 16.25-.99.63-2.05 1.19-2.9 2-.28 2.6-.11 5.23.2 7.82-.76.05-2.27.16-3.03.21-.9 1.81-1.85 3.59-2.95 5.28-.83-.47-1.66-.96-2.47-1.45-1.29.93-2.37 2.46-4.08 2.55-3.78.46-7.25 2.17-11 2.75-1.86-.51-3.39-1.78-5.14-2.56-1.36-.07-2.47.91-3.69 1.37-3.16-2.66-7.36-2.29-10.89-.72-2.78-1.29-3.74-4.92-6.73-5.91-4.05-1.35-8.33-1.91-12.58-2.2-.45 3.05-.51 6.15.26 9.16 6.23 1.91 11.28 6.53 17.5 8.33 2.77.03 1.75-3.05 1.52-4.77.98.67 2.06 1.19 3.15 1.67-.77 1.9-1.8 3.74-3.44 5.05.57.92 1.13 1.85 1.61 2.84 1.58-.6 3.16-1.19 4.75-1.75-.18 1.19-.49 2.35-.88 3.49-.79-.01-2.37-.04-3.16-.05 1.1 2.29 1.9 5.21 4.79 5.78-.47.41-1.39 1.22-1.86 1.63-4.51-1.64-5.06-7.45-8.7-10.25-2.96-3.82-7.95-4.64-11.6-7.54.56 1.92 1.14 3.84 1.59 5.8-4.02-.9-3.7-5.78-5.66-8.63-.79 2.77-1.71 5.5-2.9 8.12-.27-.51-.81-1.53-1.09-2.04.62-4.06 1.13-8.13 1.24-12.24.05-3.81 1.54-7.64.49-11.43-2.05-8.19-5.61-15.97-10-23.17-.99-1.72-3.74-3.01-5.3-1.26-3.17 3.12-7.1 5.16-10.81 7.53-3.12 3.28-5.09 7.44-7.64 11.14-2.62 3.62-7.26 4.91-10.09 8.3-.34 4.85 4 7.97 7.31 10.72 2.52.06 5.6.14 7.45-1.89 1.1-2.61-.88-4.88-2-7.06 2.55-5.54 8.61-9.85 14.75-9.26.01 4.25 1 8.33 2.24 12.36 1.32 4.93-4.8 8.17-3.16 13.08.69 2.76 1.14 6.04 3.7 7.74 2.95 2.42 5.87 4.88 8.78 7.34 3.4 2.96 7.96 3.85 11.73 6.19 4.47 2.87 10.15 3.45 15.29 2.73 9.49-3.78 20.99-.46 29.51-6.83-1.59-6-3.66-11.93-3.86-18.2-2.54.5-4.77 1.77-6.57 3.62-1.54-.03-3.09-.07-4.63-.12.55-1.56 1.72-2.15 3.53-1.76 2.48-2.43 5.72-4.44 9.3-4.41 1.26 6.78 1.54 13.86 4.38 20.23 1.42 1.05 2.84-1.56 1.72-2.54-3.43-5.78-5.21-12.74-4.96-19.39l1.69-.67c.62 8.22 4.15 15.78 5.41 23.87 3.01.83 5.94-.05 8.72-1.2 5-.15 9.93 1.59 14.94 1.28 3.07.15 3.72-4.61 6.91-3.63 3.1-3.27 2.51-8.18 3.97-12.2 1.74-4.43.98-9.37 2.98-13.75-5.94 1.53-12.07.49-17.92-.85-1.86-.83-3.35-2.28-5.09-3.31-1.93 1.1-3.68 2.47-5.53 3.68.02-2.19.45-4.4 2.2-5.9.05-.58.14-1.74.19-2.32.36-.26 1.1-.76 1.46-1.02-.45-5.92-.5-12.1 1.79-17.69 1.93-4.74 2.81-9.94 5.62-14.29 1.46-2.2 2.56-4.63 4.16-6.73 4.08-3.38 9.47-1.98 14.17-1.26 10.06-1.13 19.95 1.85 30 1.64 5.3-.04 10.97.39 15.75-2.37 3.95-2.24 8.83-2.62 12.31-5.71M25.1 49.06c-.39 2.52-2.22 6.43.75 8 2.54-3.19 5.7-5.88 7.81-9.41 2.8-3.59 4.62-8.17 8.87-10.38-7.23.78-15.28 4.16-17.43 11.79m13.2 13.99c1.76 1.84 2.55 4.13 1.36 6.57l3.85-.33c1.28 2.24 3.12 4.07 5.56 4.98.33-3.08 1-6.12 2.15-9-2.3-2.4-2.97-5.69-3.36-8.88-4.08.62-7.16 3.49-9.56 6.66z"/><path d="M155.55 24.2c1.53-.99 3.1-1.92 4.67-2.85.65.92 1.24 1.89 1.88 2.82-2.17.27-4.38.29-6.55.03zM171.97 29.38c4.7.13 9.41-.25 14.1-.43-6.85 3.16-14.73 2.46-21.88.81 2.1-2.28 5.19-.34 7.78-.38zM184 34.34c5.22-1.44 10.45-3.17 15.95-2.95 3.73-.49 6.95 1.88 9.58 4.2 4.22 3.76 10.53 4.24 14.27 8.66 3.89 4.4 7.99 9.01 9.41 14.89.86 3.67 3.6 7.05 2.74 10.97-.96 3.38-1.82 6.79-2.73 10.18-4.24 11.88-16.2 19.2-28.2 21.16-14.19 2.3-30.53 1.21-41.56-9.08-.51-.57-2.45-2.44-.54-2.54 1.7.38 2.53 2.41 3.98 3.34 7.85 4.57 17.04 6.35 26.06 5.96 5.1-.68 10.31.02 15.37-1.07 5.35-1.06 9.75-4.52 14.19-7.47 5.4-3.84 6.38-10.78 8.72-16.52 1.09-7.69-.13-16.01-4.86-22.37-1.78-2.25-3.29-4.74-5.35-6.76-2.91-2.25-6.12-4.12-8.92-6.53-1.46-.04-2.92-.09-4.38-.12-.12-.55-.37-1.64-.49-2.19-3.82-3.24-9.16-2.99-13.73-1.82-3.14.82-6.38.05-9.55.37-2.39.75-4.7 1.72-7.13 2.35-6.47 2.26-13.72-.01-18.73-4.33 4.02-.36 7.58 1.55 11.09 3.16 5.04 1.21 9.8-1.52 14.81-1.49zM145.92 44.15c-.94-3.8.34-8.21 2.66-11.31.58 3.96-1.08 7.78-2.66 11.31z"/><path d="M159.83 50.99c-3.14-5.09-4.44-11.18-3.11-17.08 2.04 1 1.19 3.38 1.44 5.13-.02 4.04.97 7.99 1.67 11.95zM156.27 63.74c.78-2.77 1.32-5.76 3.3-7.99.5 2.66-.73 5.15-1.47 7.63l-1.83.36zM120.47 72.42c.7-1.09 3.21-.49 2.38.99-.75 1.39-3.99.71-2.38-.99zM76.34 74.49c3.1-.62 6.25-1.07 9.42-.98.44.55.79 1.16 1.08 1.81-3.37.61-6.76 2.05-10.22 1.09l-.28-1.92zM91.32 76.49c1.48-.73 3.93-1.47 4.68.56-1.01 2.47-6.17 2.99-4.68-.56zM95.97 80.24c1.42-3.4 5.44-2.51 8.37-2.9-.76.95-1.49 1.92-2.24 2.88-1.96.2-3.91.46-5.86.73-1.23 1.44-2.47 3.12-4.57 3.15.94-1.76 2.19-3.48 4.3-3.86zM97.07 86.07c.45-2.68 2.81-4.28 5.04-5.45-.55 2.61-2.69 4.43-5.04 5.45zM96.13 92.07c.38-1.93 1.62-3.45 2.8-4.95.27.45.82 1.35 1.1 1.8-1.26 1.1-2.51 2.23-3.9 3.15zM96.96 96.45c-2.41-.09-1.39-2.44-.15-3.28 1.05.74 2.04 1.57 3.22 2.11 2.74.96 5.82-.97 8.38.69-3.56 1.98-7.7 1.76-11.45.48z"/></g></svg>