<?xml version="1.0" encoding="UTF-8" ?>
<!DOCTYPE svg PUBLIC "-//W3C//DTD SVG 1.1//EN" "http://www.w3.org/Graphics/SVG/1.1/DTD/svg11.dtd">
<svg width="184pt" height="275pt" viewBox="0 0 184 275" version="1.1" xmlns="http://www.w3.org/2000/svg">
<g id="#ffffffff">
<path fill="#FFFFFF" opacity="1.00" d=" M 0.00 0.00 L 184.00 0.00 L 184.00 275.00 L 0.00 275.00 L 0.00 0.00 M 47.44 19.43 C 44.30 23.30 45.32 28.46 45.92 32.99 C 45.86 35.20 47.59 36.72 48.77 38.37 C 48.64 42.00 48.77 45.64 49.45 49.21 C 49.50 45.59 49.81 41.97 49.56 38.34 C 52.32 40.14 52.98 43.54 55.13 45.83 C 58.45 47.97 62.36 49.10 66.31 49.15 C 66.68 50.59 67.16 51.99 67.77 53.35 C 67.00 54.67 66.46 56.37 64.86 56.91 C 62.15 56.11 59.40 55.43 56.58 55.11 C 57.19 51.44 54.43 48.65 52.35 46.01 C 53.64 49.09 54.80 52.22 55.78 55.42 C 53.29 55.90 50.79 56.32 48.28 56.68 C 48.42 57.07 48.69 57.86 48.83 58.25 C 52.48 57.68 56.22 56.38 59.93 57.33 C 61.90 57.88 63.91 58.32 65.96 58.21 C 66.41 57.19 66.85 56.18 67.30 55.17 C 70.55 54.09 73.87 53.15 77.34 53.11 C 74.81 49.73 70.86 52.47 67.87 53.43 C 67.94 51.97 67.99 50.51 68.04 49.04 C 70.78 49.91 73.64 50.32 76.52 50.34 L 76.47 48.81 C 73.98 48.69 71.49 48.47 69.04 48.02 C 70.87 43.96 71.24 39.47 72.05 35.14 C 72.79 31.00 70.43 27.18 70.13 23.10 C 70.02 18.90 66.08 15.42 61.97 15.36 C 56.92 14.89 50.83 15.01 47.44 19.43 M 38.58 57.81 C 34.47 59.74 30.43 62.03 27.32 65.42 C 24.69 69.02 24.95 73.68 25.48 77.88 C 23.82 83.04 22.69 88.45 22.74 93.89 C 22.65 99.17 27.77 103.42 26.26 108.83 C 24.71 115.52 24.66 122.58 26.66 129.19 C 21.44 131.66 18.46 137.32 17.81 142.88 C 17.00 148.57 17.64 154.98 21.75 159.35 C 23.77 161.72 28.16 163.14 30.11 159.86 C 27.67 159.78 24.76 160.26 23.02 158.07 C 15.81 150.14 18.47 136.26 27.06 130.35 C 28.90 135.50 26.62 141.04 28.61 146.14 C 30.03 150.15 28.63 155.36 32.86 157.90 C 35.16 158.45 37.44 159.10 39.73 159.68 C 39.48 158.88 39.24 158.07 39.00 157.27 C 36.74 156.51 34.03 156.48 32.20 154.84 C 31.55 151.56 31.38 148.17 30.08 145.06 C 28.81 142.18 29.83 139.02 29.54 136.01 C 29.05 130.58 26.79 125.45 26.74 119.96 C 26.26 113.91 28.00 108.05 29.04 102.16 C 28.61 102.40 27.76 102.87 27.33 103.11 C 26.22 99.87 24.98 96.67 24.19 93.33 C 24.79 92.64 25.40 91.95 26.00 91.26 C 26.24 93.71 26.46 96.22 27.53 98.47 C 28.33 96.07 29.05 93.37 27.34 91.17 C 22.80 89.49 25.77 83.95 26.04 80.58 C 26.74 81.46 27.45 82.35 28.16 83.23 C 27.91 78.02 25.43 72.26 28.28 67.37 C 31.18 64.08 34.86 61.64 38.83 59.83 C 42.21 56.33 46.01 53.15 48.94 49.24 C 44.33 50.43 41.87 54.80 38.58 57.81 M 78.53 49.20 C 82.27 51.40 87.26 52.56 89.07 56.95 C 91.23 60.21 90.51 64.19 90.80 67.85 C 92.02 71.18 94.02 74.36 94.00 78.03 C 93.86 81.21 95.09 84.33 97.40 86.53 C 100.17 89.19 101.60 92.87 102.56 96.52 C 104.09 102.75 106.81 108.70 107.39 115.15 C 107.70 118.71 110.17 121.76 110.69 125.15 C 105.00 131.79 103.89 141.70 107.23 149.67 C 108.68 153.33 112.70 156.20 116.71 154.85 C 121.43 152.89 124.00 147.84 125.14 143.11 C 126.48 137.09 126.03 129.98 121.80 125.16 C 119.40 122.46 115.34 122.17 112.24 123.76 C 110.44 119.72 108.51 115.65 108.25 111.17 C 107.97 105.34 105.26 100.06 104.32 94.36 C 103.62 90.48 101.00 87.43 98.28 84.75 C 95.24 81.96 95.74 77.55 94.65 73.90 C 94.14 71.51 92.78 69.40 92.21 67.04 C 91.99 63.26 92.41 59.16 90.21 55.84 C 88.25 51.46 83.26 48.69 78.53 49.20 M 66.97 63.53 C 67.69 67.29 69.32 71.02 67.75 74.82 C 64.02 75.77 60.63 77.44 57.47 79.59 C 52.69 81.58 49.19 77.07 45.61 74.77 C 45.76 77.87 48.74 79.51 51.06 80.98 C 54.09 82.88 58.07 81.99 60.65 79.74 C 62.72 77.73 65.83 77.71 68.10 76.09 C 69.26 74.45 70.05 72.52 70.47 70.56 C 70.20 67.90 68.89 65.37 66.97 63.53 M 82.02 74.86 C 82.58 79.59 84.64 84.22 83.85 89.04 C 82.97 91.72 81.30 94.05 80.04 96.55 C 79.19 96.50 77.48 96.38 76.63 96.32 C 76.64 95.52 76.67 93.91 76.68 93.10 C 76.01 92.06 75.34 91.03 74.67 90.00 C 74.88 92.74 74.62 95.50 73.40 97.99 C 71.37 97.98 69.35 97.96 67.33 97.96 C 66.83 98.37 65.84 99.19 65.35 99.61 C 63.99 99.07 62.63 98.55 61.26 98.06 C 62.44 99.37 63.68 101.86 65.86 100.84 C 69.26 99.71 73.14 99.97 75.99 97.48 C 76.90 97.84 77.80 98.23 78.69 98.63 C 79.24 98.18 80.35 97.28 80.91 96.83 C 80.47 101.14 81.91 105.30 81.77 109.60 C 77.46 111.70 72.72 112.77 67.97 113.29 C 63.93 113.07 60.00 111.84 55.92 111.95 C 53.36 112.12 51.22 110.52 48.95 109.62 C 48.13 104.20 48.69 98.44 45.59 93.60 C 48.15 92.50 51.04 93.08 53.75 93.02 C 52.86 92.15 51.97 91.29 51.06 90.45 C 49.65 91.38 48.06 91.70 46.43 91.25 C 45.54 91.58 44.68 91.98 43.85 92.44 C 43.81 93.37 43.75 95.24 43.71 96.17 C 42.22 93.32 43.30 90.06 43.10 87.01 C 43.16 84.52 42.33 81.12 39.09 81.60 C 39.96 83.97 41.77 86.25 41.20 88.92 C 40.71 92.96 41.10 97.05 40.72 101.11 C 39.54 104.86 37.04 108.19 36.87 112.24 C 37.65 111.10 38.43 109.96 39.20 108.81 C 41.87 114.71 42.27 121.76 39.83 127.80 C 38.83 130.26 39.17 132.91 39.48 135.47 C 39.09 135.35 38.31 135.11 37.92 134.98 C 37.74 134.10 37.36 132.32 37.18 131.43 C 36.50 134.39 37.09 137.33 38.28 140.06 C 38.53 138.38 38.93 136.73 39.69 135.21 C 40.25 137.40 41.15 139.47 42.33 141.39 C 43.28 138.92 41.75 136.54 41.48 134.10 C 40.31 129.58 43.52 125.50 43.25 121.00 C 43.52 116.20 42.22 111.49 40.37 107.10 C 42.11 103.20 42.95 99.00 44.20 94.94 C 45.07 96.92 46.11 98.84 46.73 100.93 C 47.13 104.08 46.83 107.28 47.25 110.44 C 46.15 112.62 43.94 114.51 44.11 117.12 C 44.03 124.26 43.96 131.40 43.84 138.54 C 47.00 133.21 46.46 126.63 44.91 120.88 C 44.00 118.33 45.40 115.80 45.98 113.36 C 46.51 113.50 47.57 113.80 48.10 113.94 C 48.07 113.20 48.02 111.72 47.99 110.98 C 50.55 112.29 53.02 114.17 56.03 114.15 C 60.35 114.24 64.58 115.45 68.91 115.41 C 73.18 114.82 77.46 113.89 81.46 112.23 C 82.59 113.49 83.79 114.69 85.02 115.85 C 85.11 118.57 84.32 121.19 83.99 123.86 C 85.63 128.36 88.14 132.60 88.72 137.43 C 88.86 139.68 90.05 141.61 91.28 143.44 C 86.85 145.08 84.11 149.55 79.36 150.52 C 75.97 151.72 72.59 150.00 69.31 149.26 C 70.63 151.55 73.42 152.85 76.03 152.69 C 81.29 152.45 86.28 149.97 89.97 146.25 C 90.17 150.95 90.47 155.65 90.53 160.36 C 90.07 160.10 89.15 159.60 88.70 159.34 C 88.13 161.71 87.75 164.29 85.99 166.12 C 82.77 166.71 81.33 163.05 79.87 160.87 C 80.40 163.38 81.08 166.19 83.42 167.64 C 86.73 168.47 88.31 164.79 90.03 162.73 C 93.00 166.06 91.50 170.31 90.72 174.11 C 90.94 178.32 89.40 182.52 90.56 186.66 C 91.63 191.36 91.79 196.20 91.45 200.99 C 91.02 205.42 92.46 209.71 93.48 213.96 C 95.14 216.43 97.89 217.97 99.63 220.40 C 102.02 223.59 104.90 226.88 109.02 227.64 C 110.97 228.06 114.24 228.51 113.91 231.23 C 112.31 232.29 110.71 233.40 108.93 234.13 C 106.25 234.34 103.58 233.69 100.89 233.82 C 98.19 232.13 95.32 230.27 91.96 230.75 C 88.73 230.48 84.80 232.17 82.12 229.77 C 81.39 226.65 82.18 223.33 82.59 220.19 C 84.37 214.70 84.13 208.83 83.48 203.16 C 83.20 200.06 80.64 197.85 79.90 194.91 C 78.78 189.39 78.00 183.70 79.40 178.15 C 79.79 179.74 80.19 181.31 80.64 182.88 C 81.61 181.27 82.82 179.30 81.43 177.52 C 79.12 173.71 77.85 169.48 77.82 165.02 C 75.45 160.54 73.57 155.08 68.77 152.62 C 68.89 150.69 68.97 148.75 69.04 146.81 C 71.04 145.86 73.10 145.02 75.34 144.87 C 77.32 142.49 78.69 139.65 79.09 136.56 C 77.35 138.52 75.95 140.75 74.65 143.02 C 71.99 143.50 69.43 144.41 67.02 145.62 C 66.90 147.77 67.19 150.01 66.53 152.09 C 64.88 153.96 62.46 154.82 60.37 156.05 C 61.77 149.51 61.16 141.75 56.23 136.78 C 53.69 135.13 49.95 134.11 47.39 136.26 C 42.21 140.54 40.21 147.57 40.02 154.06 C 40.63 158.34 41.31 163.39 45.05 166.14 C 41.54 171.79 41.72 178.63 40.86 184.99 C 39.10 190.20 36.94 195.37 36.34 200.89 C 36.31 207.12 38.77 212.98 39.83 219.05 C 40.36 223.11 40.16 227.29 39.12 231.26 C 39.79 233.52 40.64 235.77 40.72 238.16 C 40.92 241.65 43.55 244.47 43.64 248.02 C 43.57 251.61 46.98 253.75 49.81 255.17 C 53.62 256.16 58.87 256.87 61.51 253.23 C 63.06 252.98 64.99 253.41 65.99 251.87 C 67.13 246.65 62.19 243.18 59.36 239.56 C 56.63 234.58 52.84 229.84 52.61 223.91 C 52.27 217.87 52.52 211.52 54.95 205.89 C 57.64 199.24 54.62 191.82 56.84 185.06 C 58.13 181.02 59.17 176.81 61.08 173.03 C 64.65 168.53 65.51 162.70 65.97 157.14 C 65.77 155.29 67.49 154.32 68.50 153.06 C 70.45 158.18 75.40 162.18 75.04 168.03 C 74.59 171.85 78.73 174.64 77.61 178.45 C 76.55 182.92 76.67 187.52 76.22 192.06 C 78.25 197.39 81.90 202.20 82.27 208.06 C 83.19 214.24 79.51 219.83 79.59 225.96 C 79.73 227.85 79.19 230.67 81.47 231.47 C 84.96 233.79 89.10 232.01 92.92 232.13 C 96.09 232.88 98.57 235.71 101.96 235.62 C 104.71 235.74 107.66 236.66 110.23 235.21 C 112.11 234.22 114.84 233.99 115.65 231.71 C 117.23 229.43 114.17 227.72 113.00 226.03 C 104.74 226.42 101.37 217.75 95.43 213.72 C 92.11 204.36 95.33 194.12 92.45 184.69 C 91.61 181.82 92.72 178.86 92.31 175.95 C 91.89 172.89 93.98 170.13 93.62 167.08 C 93.15 164.72 91.57 162.62 91.79 160.14 C 92.03 155.40 91.61 150.67 90.90 145.98 C 91.95 145.53 92.99 145.07 94.02 144.61 C 93.00 142.33 91.25 140.36 90.80 137.84 C 89.88 131.82 86.23 126.60 85.72 120.47 C 86.50 121.10 87.36 121.56 88.31 121.86 C 89.85 120.36 91.90 119.13 92.37 116.88 C 90.41 117.68 88.70 118.95 87.48 120.70 C 87.00 118.70 86.90 116.63 86.64 114.60 C 85.57 113.41 83.94 112.46 83.79 110.72 C 82.83 106.18 82.93 101.52 83.05 96.91 C 83.00 92.90 86.66 89.59 85.70 85.51 C 84.89 81.19 83.28 76.83 84.45 72.41 C 85.86 72.99 87.27 73.57 88.69 74.13 C 88.28 72.53 87.05 71.47 85.79 70.51 C 85.61 69.82 85.25 68.44 85.07 67.75 C 84.07 70.12 83.06 72.50 82.02 74.86 M 70.25 73.89 C 71.80 74.65 73.31 75.51 74.97 76.00 C 77.36 75.38 80.47 75.39 81.71 72.84 C 79.62 73.05 77.60 73.64 75.62 74.33 C 73.83 73.74 71.60 71.24 70.25 73.89 M 89.90 75.56 C 90.08 79.24 91.97 82.47 92.84 85.97 C 93.14 89.48 91.95 92.95 92.43 96.48 C 96.09 89.64 93.81 81.70 89.90 75.56 M 71.92 80.15 C 72.52 80.64 73.13 81.12 73.73 81.60 C 73.75 82.97 73.80 84.33 73.65 85.69 C 72.27 86.21 70.78 86.25 69.34 86.43 C 68.96 86.91 68.20 87.85 67.82 88.33 C 66.99 88.57 66.16 88.81 65.34 89.05 C 64.60 89.74 63.82 90.38 63.01 90.98 C 60.85 91.16 59.24 89.31 57.37 88.54 C 57.97 91.72 61.05 92.31 63.70 92.92 C 64.32 92.16 64.94 91.42 65.56 90.67 C 67.27 90.12 68.86 89.31 70.24 88.16 C 70.92 88.12 72.27 88.03 72.94 87.98 C 73.34 87.59 74.12 86.80 74.52 86.40 C 77.51 86.83 80.51 87.28 83.47 87.92 C 81.79 85.04 78.37 84.81 75.38 85.08 C 75.01 83.51 74.42 82.02 73.59 80.63 C 74.27 80.15 75.63 79.19 76.31 78.70 C 77.56 79.11 78.81 79.52 80.06 79.93 C 79.01 79.07 78.02 78.13 76.85 77.45 C 75.00 77.84 73.65 79.41 71.92 80.15 M 63.44 83.93 C 62.17 84.64 61.47 85.89 60.85 87.14 C 62.51 86.19 64.12 85.15 65.68 84.05 C 66.63 82.02 68.23 80.44 69.68 78.77 C 66.54 77.00 65.09 82.06 63.44 83.93 M 33.71 81.32 C 33.72 82.46 33.73 83.61 33.74 84.76 C 35.34 83.20 36.92 81.61 38.41 79.95 C 36.83 80.34 35.27 80.82 33.71 81.32 M 45.35 84.50 C 45.44 85.46 45.53 86.43 45.62 87.40 C 48.27 89.29 51.39 89.15 54.36 88.18 C 52.97 84.11 46.69 89.95 46.52 84.48 C 47.26 84.28 48.75 83.88 49.49 83.68 C 48.01 82.30 46.65 83.62 45.35 84.50 M 59.12 95.34 C 58.20 95.29 56.37 95.18 55.45 95.12 C 56.68 98.47 62.25 98.00 62.17 94.13 C 61.15 94.53 60.13 94.93 59.12 95.34 M 50.21 98.70 C 52.20 100.39 55.13 102.40 57.65 100.56 C 55.18 99.26 52.74 97.88 50.49 96.21 C 50.40 97.04 50.30 97.87 50.21 98.70 M 86.45 98.89 C 87.23 101.84 88.17 104.78 89.56 107.51 C 92.63 111.30 96.64 114.88 97.23 120.02 C 97.64 122.36 98.64 126.32 95.31 126.88 C 95.56 127.02 96.06 127.29 96.31 127.43 C 94.25 131.98 95.95 136.80 98.09 140.96 C 99.13 141.69 100.34 142.12 101.50 142.65 C 102.02 143.37 102.56 144.09 103.08 144.82 C 103.43 144.10 104.13 142.67 104.48 141.95 C 103.03 141.28 101.40 140.93 100.06 140.04 C 98.96 137.78 97.70 135.51 97.23 133.02 C 97.71 128.97 99.78 125.15 99.04 120.97 C 98.93 115.46 95.16 111.18 91.57 107.42 C 89.84 104.60 88.72 101.38 86.45 98.89 M 62.55 101.92 C 61.80 103.11 63.47 105.06 64.74 104.44 C 65.36 103.29 63.84 101.11 62.55 101.92 M 75.55 103.34 C 74.00 103.47 72.45 106.28 74.09 107.16 C 75.31 106.85 77.34 103.89 75.55 103.34 M 62.16 104.83 C 62.37 108.57 65.39 112.57 69.46 112.21 C 66.93 109.84 64.49 107.39 62.16 104.83 M 33.51 107.05 C 32.77 107.95 33.66 110.16 34.96 109.62 C 35.79 108.72 34.76 106.60 33.51 107.05 M 59.96 117.52 C 57.12 116.73 54.35 115.73 51.51 114.94 C 50.13 117.92 47.76 121.32 49.78 124.57 C 50.25 121.85 51.02 119.20 52.46 116.83 C 54.34 117.46 56.21 118.10 58.07 118.78 C 56.45 123.88 50.87 125.08 47.78 128.85 C 52.68 127.57 58.37 124.73 59.33 119.20 C 66.40 121.00 73.89 119.56 80.44 116.62 C 80.71 115.99 81.24 114.74 81.51 114.12 C 74.92 117.50 67.27 118.92 59.96 117.52 M 67.96 124.24 C 65.00 125.04 61.74 125.65 59.72 128.18 C 65.22 127.18 70.49 125.15 76.01 124.19 C 77.17 124.39 79.01 123.55 79.85 124.60 C 74.34 126.54 68.02 128.30 64.24 133.03 C 69.71 130.44 75.18 127.84 80.84 125.65 C 80.85 124.49 80.86 123.33 80.85 122.18 C 76.51 122.54 72.19 123.18 67.96 124.24 M 69.13 133.41 C 65.19 134.11 60.91 133.72 57.26 135.58 C 61.84 136.86 66.36 134.85 70.97 134.98 C 75.42 134.44 80.77 134.83 83.84 130.91 C 79.02 132.20 74.12 133.13 69.13 133.41 M 34.22 138.89 C 33.88 138.43 33.20 137.51 32.86 137.05 C 29.53 137.95 33.78 143.19 34.22 138.89 M 87.39 225.33 C 86.72 222.48 86.13 219.61 86.12 216.67 C 83.95 219.35 84.81 223.25 87.39 225.33 Z" />
<path fill="#FFFFFF" opacity="1.00" d=" M 49.87 19.95 C 53.69 16.54 59.06 16.30 63.90 16.66 C 65.76 18.54 68.29 20.19 68.72 23.02 C 69.51 27.95 71.44 32.93 70.08 37.95 C 69.29 41.24 69.68 46.99 65.03 47.00 C 61.01 46.07 55.79 45.26 54.22 40.80 C 53.20 37.92 50.06 36.95 47.91 35.10 C 48.37 33.39 48.87 31.69 49.33 29.99 C 48.71 30.20 47.46 30.63 46.84 30.84 C 46.61 27.03 46.97 22.76 49.87 19.95 Z" />
<path fill="#FFFFFF" opacity="1.00" d=" M 110.24 128.39 C 111.83 125.81 114.77 124.69 117.25 123.20 C 126.70 128.86 126.44 143.09 119.71 150.74 C 117.81 153.15 114.21 154.00 111.54 152.40 C 109.00 150.77 107.99 147.68 107.25 144.91 C 106.41 139.31 106.86 133.14 110.24 128.39 Z" />
<path fill="#FFFFFF" opacity="1.00" d=" M 45.19 141.12 C 46.84 138.44 49.80 137.13 52.39 135.56 C 60.65 140.44 61.21 151.72 57.74 159.75 C 56.27 163.24 53.21 166.83 49.04 166.43 C 44.95 165.78 43.01 161.50 42.23 157.89 C 41.47 152.21 41.83 145.98 45.19 141.12 Z" />
<path fill="#FFFFFF" opacity="1.00" d=" M 60.20 156.56 C 61.65 156.71 63.11 156.77 64.57 156.73 C 63.96 162.78 62.40 168.76 58.83 173.77 C 57.57 171.94 56.55 169.97 55.65 167.94 C 54.76 168.59 53.86 169.24 52.96 169.89 C 51.57 169.91 50.19 169.95 48.80 170.00 C 48.56 171.80 48.36 173.60 48.25 175.42 C 48.77 174.29 49.41 173.21 50.09 172.17 C 51.99 171.70 53.90 171.21 55.79 170.69 C 55.99 171.39 56.41 172.80 56.61 173.51 C 57.07 173.68 58.00 174.01 58.46 174.17 C 56.18 180.56 54.90 187.39 51.28 193.21 C 48.73 197.49 48.53 202.66 49.24 207.47 C 50.65 205.23 50.68 202.55 50.85 200.00 C 51.01 197.05 52.61 194.48 53.84 191.88 C 54.12 196.28 54.88 200.97 52.96 205.14 C 49.09 212.75 49.15 221.98 52.11 229.88 C 53.22 232.91 55.21 235.51 56.69 238.36 C 58.87 242.80 63.24 245.69 65.18 250.31 C 62.72 252.77 60.03 250.47 59.33 247.81 C 55.44 248.58 50.92 247.11 47.52 249.40 C 51.00 250.16 54.54 250.25 58.04 249.63 C 58.56 250.04 59.60 250.86 60.12 251.27 C 58.05 252.59 55.80 254.69 53.12 253.82 C 50.29 253.31 47.93 251.56 46.20 249.32 C 45.94 243.19 42.36 237.89 41.18 231.95 C 41.40 229.31 42.26 226.74 42.13 224.07 C 42.33 216.14 37.62 208.99 38.00 201.05 C 38.23 196.08 40.04 191.29 42.41 186.97 C 43.80 189.75 43.71 193.78 46.67 195.49 C 44.46 187.27 40.96 178.35 45.11 170.11 C 45.80 166.71 49.65 168.70 51.96 168.02 C 56.66 166.19 59.09 161.19 60.20 156.56 M 50.42 179.39 C 49.61 182.52 53.69 181.55 55.21 180.41 C 53.64 179.95 52.05 179.54 50.42 179.39 M 43.89 234.01 C 46.67 231.82 48.00 228.49 49.43 225.37 C 45.91 226.58 44.65 230.73 43.89 234.01 Z" />
</g>
<g id="#464845ff">
<path fill="#333333" opacity="1.00" d=" M 47.44 19.43 C 50.83 15.01 56.92 14.89 61.97 15.36 C 66.08 15.42 70.02 18.90 70.13 23.10 C 70.43 27.18 72.79 31.00 72.05 35.14 C 71.24 39.47 70.87 43.96 69.04 48.02 C 71.49 48.47 73.98 48.69 76.47 48.81 L 76.52 50.34 C 73.64 50.32 70.78 49.91 68.04 49.04 C 67.99 50.51 67.94 51.97 67.87 53.43 C 70.86 52.47 74.81 49.73 77.34 53.11 C 73.87 53.15 70.55 54.09 67.30 55.17 C 66.85 56.18 66.41 57.19 65.96 58.21 C 63.91 58.32 61.90 57.88 59.93 57.33 C 56.22 56.38 52.48 57.68 48.83 58.25 C 48.69 57.86 48.42 57.07 48.28 56.68 C 50.79 56.32 53.29 55.90 55.78 55.42 C 54.80 52.22 53.64 49.09 52.35 46.01 C 54.43 48.65 57.19 51.44 56.58 55.11 C 59.40 55.43 62.15 56.11 64.86 56.91 C 66.46 56.37 67.00 54.67 67.77 53.35 C 67.16 51.99 66.68 50.59 66.31 49.15 C 62.36 49.10 58.45 47.97 55.13 45.83 C 52.98 43.54 52.32 40.14 49.56 38.34 C 49.81 41.97 49.50 45.59 49.45 49.21 C 48.77 45.64 48.64 42.00 48.77 38.37 C 47.59 36.72 45.86 35.20 45.92 32.99 C 45.32 28.46 44.30 23.30 47.44 19.43 M 49.87 19.95 C 46.97 22.76 46.61 27.03 46.84 30.84 C 47.46 30.63 48.71 30.20 49.33 29.99 C 48.87 31.69 48.37 33.39 47.91 35.10 C 50.06 36.95 53.20 37.92 54.22 40.80 C 55.79 45.26 61.01 46.07 65.03 47.00 C 69.68 46.99 69.29 41.24 70.08 37.95 C 71.44 32.93 69.51 27.95 68.72 23.02 C 68.29 20.19 65.76 18.54 63.90 16.66 C 59.06 16.30 53.69 16.54 49.87 19.95 Z" />
<path fill="#333333" opacity="1.00" d=" M 38.58 57.81 C 41.87 54.80 44.33 50.43 48.94 49.24 C 46.01 53.15 42.21 56.33 38.83 59.83 C 34.86 61.64 31.18 64.08 28.28 67.37 C 25.43 72.26 27.91 78.02 28.16 83.23 C 27.45 82.35 26.74 81.46 26.04 80.58 C 25.77 83.95 22.80 89.49 27.34 91.17 C 29.05 93.37 28.33 96.07 27.53 98.47 C 26.46 96.22 26.24 93.71 26.00 91.26 C 25.40 91.95 24.79 92.64 24.19 93.33 C 24.98 96.67 26.22 99.87 27.33 103.11 C 27.76 102.87 28.61 102.40 29.04 102.16 C 28.00 108.05 26.26 113.91 26.74 119.96 C 26.79 125.45 29.05 130.58 29.54 136.01 C 29.83 139.02 28.81 142.18 30.08 145.06 C 31.38 148.17 31.55 151.56 32.20 154.84 C 34.03 156.48 36.74 156.51 39.00 157.27 C 39.24 158.07 39.48 158.88 39.73 159.68 C 37.44 159.10 35.16 158.45 32.86 157.90 C 28.63 155.36 30.03 150.15 28.61 146.14 C 26.62 141.04 28.90 135.50 27.06 130.35 C 18.47 136.26 15.81 150.14 23.02 158.07 C 24.76 160.26 27.67 159.78 30.11 159.86 C 28.16 163.14 23.77 161.72 21.75 159.35 C 17.64 154.98 17.00 148.57 17.81 142.88 C 18.46 137.32 21.44 131.66 26.66 129.19 C 24.66 122.58 24.71 115.52 26.26 108.83 C 27.77 103.42 22.65 99.17 22.74 93.89 C 22.69 88.45 23.82 83.04 25.48 77.88 C 24.95 73.68 24.69 69.02 27.32 65.42 C 30.43 62.03 34.47 59.74 38.58 57.81 Z" />
<path fill="#333333" opacity="1.00" d=" M 78.53 49.20 C 83.26 48.69 88.25 51.46 90.21 55.84 C 92.41 59.16 91.99 63.26 92.21 67.04 C 92.78 69.40 94.14 71.51 94.65 73.90 C 95.74 77.55 95.24 81.96 98.28 84.75 C 101.00 87.43 103.62 90.48 104.32 94.36 C 105.26 100.06 107.97 105.34 108.25 111.17 C 108.51 115.65 110.44 119.72 112.24 123.76 C 115.34 122.17 119.40 122.46 121.80 125.16 C 126.03 129.98 126.48 137.09 125.14 143.11 C 124.00 147.84 121.43 152.89 116.71 154.85 C 112.70 156.20 108.68 153.33 107.23 149.67 C 103.89 141.70 105.00 131.79 110.69 125.15 C 110.17 121.76 107.70 118.71 107.39 115.15 C 106.81 108.70 104.09 102.75 102.56 96.52 C 101.60 92.87 100.17 89.19 97.40 86.53 C 95.09 84.33 93.86 81.21 94.00 78.03 C 94.02 74.36 92.02 71.18 90.80 67.85 C 90.51 64.19 91.23 60.21 89.07 56.95 C 87.26 52.56 82.27 51.40 78.53 49.20 M 110.24 128.39 C 106.86 133.14 106.41 139.31 107.25 144.91 C 107.99 147.68 109.00 150.77 111.54 152.40 C 114.21 154.00 117.81 153.15 119.71 150.74 C 126.44 143.09 126.70 128.86 117.25 123.20 C 114.77 124.69 111.83 125.81 110.24 128.39 Z" />
<path fill="#333333" opacity="1.00" d=" M 66.97 63.53 C 68.89 65.37 70.20 67.90 70.47 70.56 C 70.05 72.52 69.26 74.45 68.10 76.09 C 65.83 77.71 62.72 77.73 60.65 79.74 C 58.07 81.99 54.09 82.88 51.06 80.98 C 48.74 79.51 45.76 77.87 45.61 74.77 C 49.19 77.07 52.69 81.58 57.47 79.59 C 60.63 77.44 64.02 75.77 67.75 74.82 C 69.32 71.02 67.69 67.29 66.97 63.53 Z" />
<path fill="#333333" opacity="1.00" d=" M 82.02 74.86 C 83.06 72.50 84.07 70.12 85.07 67.75 C 85.25 68.44 85.61 69.82 85.79 70.51 C 87.05 71.47 88.28 72.53 88.69 74.13 C 87.27 73.57 85.86 72.99 84.45 72.41 C 83.28 76.83 84.89 81.19 85.70 85.51 C 86.66 89.59 83.00 92.90 83.05 96.91 C 82.93 101.52 82.83 106.18 83.79 110.72 C 83.94 112.46 85.57 113.41 86.64 114.60 C 86.90 116.63 87.00 118.70 87.48 120.70 C 88.70 118.95 90.41 117.68 92.37 116.88 C 91.90 119.13 89.85 120.36 88.31 121.86 C 87.36 121.56 86.50 121.10 85.72 120.47 C 86.23 126.60 89.88 131.82 90.80 137.84 C 91.25 140.36 93.00 142.33 94.02 144.61 C 92.99 145.07 91.95 145.53 90.90 145.98 C 91.61 150.67 92.03 155.40 91.79 160.14 C 91.57 162.62 93.15 164.72 93.62 167.08 C 93.98 170.13 91.89 172.89 92.31 175.95 C 92.72 178.86 91.61 181.82 92.45 184.69 C 95.33 194.12 92.11 204.36 95.43 213.72 C 101.37 217.75 104.74 226.42 113.00 226.03 C 114.17 227.72 117.23 229.43 115.65 231.71 C 114.84 233.99 112.11 234.22 110.23 235.21 C 107.66 236.66 104.71 235.74 101.96 235.62 C 98.57 235.71 96.09 232.88 92.92 232.13 C 89.10 232.01 84.96 233.79 81.47 231.47 C 79.19 230.67 79.73 227.85 79.59 225.96 C 79.51 219.83 83.19 214.24 82.27 208.06 C 81.90 202.20 78.25 197.39 76.22 192.06 C 76.67 187.52 76.55 182.92 77.61 178.45 C 78.73 174.64 74.59 171.85 75.04 168.03 C 75.40 162.18 70.45 158.18 68.50 153.06 C 67.49 154.32 65.77 155.29 65.97 157.14 C 65.51 162.70 64.65 168.53 61.08 173.03 C 59.17 176.81 58.13 181.02 56.84 185.06 C 54.62 191.82 57.64 199.24 54.95 205.89 C 52.52 211.52 52.27 217.87 52.61 223.91 C 52.84 229.84 56.63 234.58 59.36 239.56 C 62.19 243.18 67.13 246.65 65.99 251.87 C 64.99 253.41 63.06 252.98 61.51 253.23 C 58.87 256.87 53.62 256.16 49.81 255.17 C 46.98 253.75 43.57 251.61 43.64 248.02 C 43.55 244.47 40.92 241.65 40.72 238.16 C 40.64 235.77 39.79 233.52 39.12 231.26 C 40.16 227.29 40.36 223.11 39.83 219.05 C 38.77 212.98 36.31 207.12 36.34 200.89 C 36.94 195.37 39.10 190.20 40.86 184.99 C 41.72 178.63 41.54 171.79 45.05 166.14 C 41.31 163.39 40.63 158.34 40.02 154.06 C 40.21 147.57 42.21 140.54 47.39 136.26 C 49.95 134.11 53.69 135.13 56.23 136.78 C 61.16 141.75 61.77 149.51 60.37 156.05 C 62.46 154.82 64.88 153.96 66.53 152.09 C 67.19 150.01 66.90 147.77 67.02 145.62 C 69.43 144.41 71.99 143.50 74.65 143.02 C 75.95 140.75 77.35 138.52 79.09 136.56 C 78.69 139.65 77.32 142.49 75.34 144.87 C 73.10 145.02 71.04 145.86 69.04 146.81 C 68.97 148.75 68.89 150.69 68.77 152.62 C 73.57 155.08 75.45 160.54 77.82 165.02 C 77.85 169.48 79.12 173.71 81.43 177.52 C 82.82 179.30 81.61 181.27 80.64 182.88 C 80.19 181.31 79.79 179.74 79.40 178.15 C 78.00 183.70 78.78 189.39 79.90 194.91 C 80.64 197.85 83.20 200.06 83.48 203.16 C 84.13 208.83 84.37 214.70 82.59 220.19 C 82.18 223.33 81.39 226.65 82.12 229.77 C 84.80 232.17 88.73 230.48 91.96 230.75 C 95.32 230.27 98.19 232.13 100.89 233.82 C 103.58 233.69 106.25 234.34 108.93 234.13 C 110.71 233.40 112.31 232.29 113.91 231.23 C 114.24 228.51 110.97 228.06 109.02 227.64 C 104.90 226.88 102.02 223.59 99.63 220.40 C 97.89 217.97 95.14 216.43 93.48 213.96 C 92.46 209.71 91.02 205.42 91.45 200.99 C 91.79 196.20 91.63 191.36 90.56 186.66 C 89.40 182.52 90.94 178.32 90.72 174.11 C 91.50 170.31 93.00 166.06 90.03 162.73 C 88.31 164.79 86.73 168.47 83.42 167.64 C 81.08 166.19 80.40 163.38 79.87 160.87 C 81.33 163.05 82.77 166.71 85.99 166.12 C 87.75 164.29 88.13 161.71 88.70 159.34 C 89.15 159.60 90.07 160.10 90.53 160.36 C 90.47 155.65 90.17 150.95 89.97 146.25 C 86.28 149.97 81.29 152.45 76.03 152.69 C 73.42 152.85 70.63 151.55 69.31 149.26 C 72.59 150.00 75.97 151.72 79.36 150.52 C 84.11 149.55 86.85 145.08 91.28 143.44 C 90.05 141.61 88.86 139.68 88.72 137.43 C 88.14 132.60 85.63 128.36 83.99 123.86 C 84.32 121.19 85.11 118.57 85.02 115.85 C 83.79 114.69 82.59 113.49 81.46 112.23 C 77.46 113.89 73.18 114.82 68.91 115.41 C 64.58 115.45 60.35 114.24 56.03 114.15 C 53.02 114.17 50.55 112.29 47.99 110.98 C 48.02 111.72 48.07 113.20 48.10 113.94 C 47.57 113.80 46.51 113.50 45.98 113.36 C 45.40 115.80 44.00 118.33 44.91 120.88 C 46.46 126.63 47.00 133.21 43.84 138.54 C 43.96 131.40 44.03 124.26 44.11 117.12 C 43.94 114.51 46.15 112.62 47.25 110.44 C 46.83 107.28 47.13 104.08 46.73 100.93 C 46.11 98.84 45.07 96.92 44.20 94.94 C 42.95 99.00 42.11 103.20 40.37 107.10 C 42.22 111.49 43.52 116.20 43.25 121.00 C 43.52 125.50 40.31 129.58 41.48 134.10 C 41.75 136.54 43.28 138.92 42.33 141.39 C 41.15 139.47 40.25 137.40 39.69 135.21 C 38.93 136.73 38.53 138.38 38.28 140.06 C 37.09 137.33 36.50 134.39 37.18 131.43 C 37.36 132.32 37.74 134.10 37.92 134.98 C 38.31 135.11 39.09 135.35 39.48 135.47 C 39.17 132.91 38.83 130.26 39.83 127.80 C 42.27 121.76 41.87 114.71 39.20 108.81 C 38.43 109.96 37.65 111.10 36.87 112.24 C 37.04 108.19 39.54 104.86 40.72 101.11 C 41.10 97.05 40.71 92.96 41.20 88.92 C 41.77 86.25 39.96 83.97 39.09 81.60 C 42.33 81.12 43.16 84.52 43.10 87.01 C 43.30 90.06 42.22 93.32 43.71 96.17 C 43.75 95.24 43.81 93.37 43.85 92.44 C 44.68 91.98 45.54 91.58 46.43 91.25 C 48.06 91.70 49.65 91.38 51.06 90.45 C 51.97 91.29 52.86 92.15 53.75 93.02 C 51.04 93.08 48.15 92.50 45.59 93.60 C 48.69 98.44 48.13 104.20 48.95 109.62 C 51.22 110.52 53.36 112.12 55.92 111.95 C 60.00 111.84 63.93 113.07 67.97 113.29 C 72.72 112.77 77.46 111.70 81.77 109.60 C 81.91 105.30 80.47 101.14 80.91 96.83 C 80.35 97.28 79.24 98.18 78.69 98.63 C 77.80 98.23 76.90 97.84 75.99 97.48 C 73.14 99.97 69.26 99.71 65.86 100.84 C 63.68 101.86 62.44 99.37 61.26 98.06 C 62.63 98.55 63.99 99.07 65.35 99.61 C 65.84 99.19 66.83 98.37 67.33 97.96 C 69.35 97.96 71.37 97.98 73.40 97.99 C 74.62 95.50 74.88 92.74 74.67 90.00 C 75.34 91.03 76.01 92.06 76.68 93.10 C 76.67 93.91 76.64 95.52 76.63 96.32 C 77.48 96.38 79.19 96.50 80.04 96.55 C 81.30 94.05 82.97 91.72 83.85 89.04 C 84.64 84.22 82.58 79.59 82.02 74.86 M 45.19 141.12 C 41.83 145.98 41.47 152.21 42.23 157.89 C 43.01 161.50 44.95 165.78 49.04 166.43 C 53.21 166.83 56.27 163.24 57.74 159.75 C 61.21 151.72 60.65 140.44 52.39 135.56 C 49.80 137.13 46.84 138.44 45.19 141.12 M 60.20 156.56 C 59.09 161.19 56.66 166.19 51.96 168.02 C 49.65 168.70 45.80 166.71 45.11 170.11 C 40.96 178.35 44.46 187.27 46.67 195.49 C 43.71 193.78 43.80 189.75 42.41 186.97 C 40.04 191.29 38.23 196.08 38.00 201.05 C 37.62 208.99 42.33 216.14 42.13 224.07 C 42.26 226.74 41.40 229.31 41.18 231.95 C 42.36 237.89 45.94 243.19 46.20 249.32 C 47.93 251.56 50.29 253.31 53.12 253.82 C 55.80 254.69 58.05 252.59 60.12 251.27 C 59.60 250.86 58.56 250.04 58.04 249.63 C 54.54 250.25 51.00 250.16 47.52 249.40 C 50.92 247.11 55.44 248.58 59.33 247.81 C 60.03 250.47 62.72 252.77 65.18 250.31 C 63.24 245.69 58.87 242.80 56.69 238.36 C 55.21 235.51 53.22 232.91 52.11 229.88 C 49.15 221.98 49.09 212.75 52.96 205.14 C 54.88 200.97 54.12 196.28 53.84 191.88 C 52.61 194.48 51.01 197.05 50.85 200.00 C 50.68 202.55 50.65 205.23 49.24 207.47 C 48.53 202.66 48.73 197.49 51.28 193.21 C 54.90 187.39 56.18 180.56 58.46 174.17 C 58.00 174.01 57.07 173.68 56.61 173.51 C 56.41 172.80 55.99 171.39 55.79 170.69 C 53.90 171.21 51.99 171.70 50.09 172.17 C 49.41 173.21 48.77 174.29 48.25 175.42 C 48.36 173.60 48.56 171.80 48.80 170.00 C 50.19 169.95 51.57 169.91 52.96 169.89 C 53.86 169.24 54.76 168.59 55.65 167.94 C 56.55 169.97 57.57 171.94 58.83 173.77 C 62.40 168.76 63.96 162.78 64.57 156.73 C 63.11 156.77 61.65 156.71 60.20 156.56 Z" />
<path fill="#333333" opacity="1.00" d=" M 70.25 73.89 C 71.60 71.24 73.83 73.74 75.62 74.33 C 77.60 73.64 79.62 73.05 81.71 72.84 C 80.47 75.39 77.36 75.38 74.97 76.00 C 73.31 75.51 71.80 74.65 70.25 73.89 Z" />
<path fill="#333333" opacity="1.00" d=" M 89.90 75.56 C 93.81 81.70 96.09 89.64 92.43 96.48 C 91.95 92.95 93.14 89.48 92.84 85.97 C 91.97 82.47 90.08 79.24 89.90 75.56 Z" />
<path fill="#333333" opacity="1.00" d=" M 71.92 80.15 C 73.65 79.41 75.00 77.84 76.85 77.45 C 78.02 78.13 79.01 79.07 80.06 79.93 C 78.81 79.52 77.56 79.11 76.31 78.70 C 75.63 79.19 74.27 80.15 73.59 80.63 C 74.42 82.02 75.01 83.51 75.38 85.08 C 78.37 84.81 81.79 85.04 83.47 87.92 C 80.51 87.28 77.51 86.83 74.52 86.40 C 74.12 86.80 73.34 87.59 72.94 87.98 C 72.27 88.03 70.92 88.12 70.24 88.16 C 68.86 89.31 67.27 90.12 65.56 90.67 C 64.94 91.42 64.32 92.16 63.70 92.92 C 61.05 92.31 57.97 91.72 57.37 88.54 C 59.24 89.31 60.85 91.16 63.01 90.98 C 63.82 90.38 64.60 89.74 65.34 89.05 C 66.16 88.81 66.99 88.57 67.82 88.33 C 68.20 87.85 68.96 86.91 69.34 86.43 C 70.78 86.25 72.27 86.21 73.65 85.69 C 73.80 84.33 73.75 82.97 73.73 81.60 C 73.13 81.12 72.52 80.64 71.92 80.15 Z" />
<path fill="#333333" opacity="1.00" d=" M 63.44 83.93 C 65.09 82.06 66.54 77.00 69.68 78.77 C 68.23 80.44 66.63 82.02 65.68 84.05 C 64.12 85.15 62.51 86.19 60.85 87.14 C 61.47 85.89 62.17 84.64 63.44 83.93 Z" />
<path fill="#333333" opacity="1.00" d=" M 33.71 81.32 C 35.27 80.82 36.83 80.34 38.41 79.95 C 36.92 81.61 35.34 83.20 33.74 84.76 C 33.73 83.61 33.72 82.46 33.71 81.32 Z" />
<path fill="#333333" opacity="1.00" d=" M 45.35 84.50 C 46.65 83.62 48.01 82.30 49.49 83.68 C 48.75 83.88 47.26 84.28 46.52 84.48 C 46.69 89.95 52.97 84.11 54.36 88.18 C 51.39 89.15 48.27 89.29 45.62 87.40 C 45.53 86.43 45.44 85.46 45.35 84.50 Z" />
<path fill="#333333" opacity="1.00" d=" M 59.12 95.34 C 60.13 94.93 61.15 94.53 62.17 94.13 C 62.25 98.00 56.68 98.47 55.45 95.12 C 56.37 95.18 58.20 95.29 59.12 95.34 Z" />
<path fill="#333333" opacity="1.00" d=" M 50.21 98.70 C 50.30 97.87 50.40 97.04 50.49 96.21 C 52.74 97.88 55.18 99.26 57.65 100.56 C 55.13 102.40 52.20 100.39 50.21 98.70 Z" />
<path fill="#333333" opacity="1.00" d=" M 86.45 98.89 C 88.72 101.38 89.84 104.60 91.57 107.42 C 95.16 111.18 98.93 115.46 99.04 120.97 C 99.78 125.15 97.71 128.97 97.23 133.02 C 97.70 135.51 98.96 137.78 100.06 140.04 C 101.40 140.93 103.03 141.28 104.48 141.95 C 104.13 142.67 103.43 144.10 103.08 144.82 C 102.56 144.09 102.02 143.37 101.50 142.65 C 100.34 142.12 99.13 141.69 98.09 140.96 C 95.95 136.80 94.25 131.98 96.31 127.43 C 96.06 127.29 95.56 127.02 95.31 126.88 C 98.64 126.32 97.64 122.36 97.23 120.02 C 96.64 114.88 92.63 111.30 89.56 107.51 C 88.17 104.78 87.23 101.84 86.45 98.89 Z" />
<path fill="#333333" opacity="1.00" d=" M 62.55 101.92 C 63.84 101.11 65.36 103.29 64.74 104.44 C 63.47 105.06 61.80 103.11 62.55 101.92 Z" />
<path fill="#333333" opacity="1.00" d=" M 75.55 103.34 C 77.34 103.89 75.31 106.85 74.09 107.16 C 72.45 106.28 74.00 103.47 75.55 103.34 Z" />
<path fill="#333333" opacity="1.00" d=" M 62.16 104.83 C 64.49 107.39 66.93 109.84 69.46 112.21 C 65.39 112.57 62.37 108.57 62.16 104.83 Z" />
<path fill="#333333" opacity="1.00" d=" M 33.51 107.05 C 34.76 106.60 35.79 108.72 34.96 109.62 C 33.66 110.16 32.77 107.95 33.51 107.05 Z" />
<path fill="#333333" opacity="1.00" d=" M 59.96 117.52 C 67.27 118.92 74.92 117.50 81.51 114.12 C 81.24 114.74 80.71 115.99 80.44 116.62 C 73.89 119.56 66.40 121.00 59.33 119.20 C 58.37 124.73 52.68 127.57 47.78 128.85 C 50.87 125.08 56.45 123.88 58.07 118.78 C 56.21 118.10 54.34 117.46 52.46 116.83 C 51.02 119.20 50.25 121.85 49.78 124.57 C 47.76 121.32 50.13 117.92 51.51 114.94 C 54.35 115.73 57.12 116.73 59.96 117.52 Z" />
<path fill="#333333" opacity="1.00" d=" M 67.96 124.24 C 72.19 123.18 76.51 122.54 80.85 122.18 C 80.86 123.33 80.85 124.49 80.84 125.65 C 75.18 127.84 69.71 130.44 64.24 133.03 C 68.02 128.30 74.34 126.54 79.85 124.60 C 79.01 123.55 77.17 124.39 76.01 124.19 C 70.49 125.15 65.22 127.18 59.72 128.18 C 61.74 125.65 65.00 125.04 67.96 124.24 Z" />
<path fill="#333333" opacity="1.00" d=" M 69.13 133.41 C 74.12 133.13 79.02 132.20 83.84 130.91 C 80.77 134.83 75.42 134.44 70.97 134.98 C 66.36 134.85 61.84 136.86 57.26 135.58 C 60.91 133.72 65.19 134.11 69.13 133.41 Z" />
<path fill="#333333" opacity="1.00" d=" M 34.22 138.89 C 33.78 143.19 29.53 137.95 32.86 137.05 C 33.20 137.51 33.88 138.43 34.22 138.89 Z" />
<path fill="#333333" opacity="1.00" d=" M 50.42 179.39 C 52.05 179.54 53.64 179.95 55.21 180.41 C 53.69 181.55 49.61 182.52 50.42 179.39 Z" />
<path fill="#333333" opacity="1.00" d=" M 87.39 225.33 C 84.81 223.25 83.95 219.35 86.12 216.67 C 86.13 219.61 86.72 222.48 87.39 225.33 Z" />
<path fill="#333333" opacity="1.00" d=" M 43.89 234.01 C 44.65 230.73 45.91 226.58 49.43 225.37 C 48.00 228.49 46.67 231.82 43.89 234.01 Z" />
</g>
</svg>
