<?xml version="1.0" encoding="UTF-8" ?>
<!DOCTYPE svg PUBLIC "-//W3C//DTD SVG 1.1//EN" "http://www.w3.org/Graphics/SVG/1.1/DTD/svg11.dtd">
<svg width="185pt" height="250pt" viewBox="0 0 185 250" version="1.1" xmlns="http://www.w3.org/2000/svg">
<g id="#ffffffff">
<path fill="#FFFFFF" opacity="1.00" d=" M 0.00 0.00 L 185.00 0.00 L 185.00 250.00 L 0.00 250.00 L 0.00 201.41 C 3.50 204.11 5.60 208.14 8.99 210.93 C 11.77 212.48 15.15 212.39 18.22 212.85 C 17.42 211.81 16.60 210.79 15.78 209.78 C 11.88 209.27 8.06 207.55 5.54 204.46 C 4.02 202.63 2.30 200.95 0.00 200.14 L 0.00 0.00 M 95.17 27.33 C 92.35 28.88 89.18 30.98 88.73 34.46 C 88.09 37.74 89.07 42.41 85.12 43.87 C 80.85 44.59 76.46 44.51 72.20 45.41 C 70.67 44.13 69.23 42.70 67.45 41.78 C 64.59 41.60 61.73 42.14 58.88 42.37 C 56.12 42.40 54.87 45.19 53.18 46.91 C 51.57 46.84 49.96 46.78 48.35 46.74 C 48.11 45.65 47.61 43.47 47.36 42.37 C 46.64 42.87 45.93 43.38 45.22 43.90 C 45.86 44.54 47.14 45.83 47.79 46.48 C 45.88 46.72 44.33 47.68 43.21 49.24 C 47.11 49.12 50.97 48.42 54.88 48.48 C 52.98 52.74 47.78 51.05 44.16 52.48 C 44.78 53.20 45.39 53.92 46.01 54.64 C 45.90 55.23 45.69 56.41 45.58 57.00 C 45.87 56.01 46.16 55.03 46.44 54.04 C 50.99 52.91 55.98 52.17 59.97 55.23 C 59.32 60.79 58.22 66.35 58.05 71.94 C 59.02 76.40 57.24 81.51 60.32 85.38 C 63.72 87.27 67.65 85.97 70.80 84.25 C 70.18 88.21 71.77 92.02 71.58 95.95 C 69.52 100.59 67.05 105.07 64.27 109.33 C 62.12 112.45 63.20 116.43 63.06 119.96 C 63.32 123.08 63.35 126.87 66.18 128.87 C 69.68 131.73 71.46 136.13 72.06 140.52 C 71.48 141.91 70.89 143.31 70.32 144.71 C 71.45 145.40 72.60 146.09 73.74 146.78 C 73.97 150.01 74.89 153.15 76.63 155.90 C 76.00 157.84 75.25 159.73 74.44 161.60 C 69.44 161.62 64.41 161.27 59.43 161.78 C 53.43 164.19 46.99 167.53 40.34 165.78 C 38.49 163.55 37.65 160.31 34.92 158.94 C 31.92 158.13 28.27 157.59 25.70 159.78 C 22.09 161.98 20.97 166.30 18.42 169.41 C 14.54 174.47 7.95 177.03 5.16 182.97 C 5.56 184.13 6.12 185.21 6.66 186.31 C 11.47 186.66 16.16 185.52 20.92 185.17 C 25.86 184.49 30.89 184.56 35.78 183.50 C 39.89 188.18 43.37 193.33 47.21 198.21 C 48.99 200.72 47.95 203.94 47.48 206.70 C 45.02 208.20 41.77 207.40 39.00 207.85 C 31.94 207.95 25.11 210.08 18.13 210.60 C 18.25 211.38 18.54 212.10 19.11 212.67 C 23.40 213.06 27.67 212.13 31.89 211.46 C 37.32 210.75 42.86 210.55 48.15 209.06 C 51.07 207.97 51.10 204.40 51.51 201.83 C 51.98 198.17 48.27 196.13 46.54 193.41 C 44.01 189.48 40.48 186.39 37.42 182.89 C 41.36 182.45 45.54 181.43 49.29 183.28 C 49.26 182.40 49.23 181.53 49.21 180.65 C 46.94 180.65 44.67 180.56 42.40 180.59 L 42.84 179.14 C 34.83 182.72 25.82 181.18 17.49 183.44 C 14.01 184.51 10.35 184.62 6.74 184.27 C 8.45 182.11 9.93 179.77 11.82 177.77 C 17.78 173.14 22.40 167.09 27.58 161.66 C 29.64 159.45 33.00 160.90 35.61 160.97 C 37.31 163.96 38.49 169.48 42.90 168.66 C 47.71 168.07 52.38 166.62 56.79 164.64 C 59.94 163.12 63.50 163.26 66.88 162.77 C 73.00 163.59 79.68 167.04 85.55 163.58 C 84.72 163.48 83.06 163.26 82.23 163.15 C 83.07 161.40 83.71 159.56 83.90 157.61 C 84.15 156.66 84.39 155.70 84.64 154.75 C 81.91 156.53 82.31 160.31 80.55 162.82 C 79.82 162.85 78.37 162.90 77.64 162.93 C 78.34 160.82 79.05 158.71 79.76 156.60 C 77.19 153.98 76.69 150.45 77.57 146.99 C 84.44 146.25 91.49 147.20 98.18 144.99 C 98.01 148.91 97.40 152.87 95.55 156.38 C 93.11 160.91 92.30 166.02 91.27 170.99 C 90.24 173.58 88.03 176.15 85.08 176.42 C 82.29 176.64 79.92 178.10 77.45 179.27 C 75.07 180.39 72.36 179.52 70.04 178.64 C 66.78 179.65 63.48 180.58 60.08 181.02 C 60.84 181.63 61.60 182.25 62.35 182.87 C 64.27 182.55 66.19 182.21 68.09 181.79 C 71.60 182.11 75.12 182.19 78.64 182.22 C 80.20 188.02 81.34 193.99 81.29 200.01 C 80.42 206.25 77.47 211.95 76.04 218.07 L 75.75 218.72 C 75.15 219.81 75.13 221.16 75.70 222.27 L 76.04 222.86 C 77.00 224.01 78.00 225.15 78.98 226.30 C 81.60 226.38 84.23 226.55 86.85 226.47 C 90.02 225.82 92.63 223.57 95.87 223.15 C 99.89 221.92 103.98 224.35 108.00 223.18 C 110.30 222.73 112.85 222.33 114.47 220.44 C 115.65 219.23 117.34 216.86 115.35 215.58 C 112.33 213.44 108.29 213.84 105.08 212.07 C 102.30 210.55 99.51 208.99 97.02 207.02 C 93.95 202.65 95.52 197.04 95.79 192.11 C 96.19 184.70 97.90 177.38 97.33 169.94 C 98.58 164.83 97.16 159.44 98.96 154.43 C 100.84 149.22 100.08 143.50 102.13 138.35 C 105.07 129.12 102.78 119.39 103.24 109.92 C 101.81 106.82 100.72 103.67 101.60 100.18 C 101.09 99.56 100.59 98.95 100.08 98.34 C 94.67 100.47 88.75 101.68 83.00 100.28 C 79.85 99.37 76.60 100.41 73.41 99.90 C 73.24 97.50 72.69 95.09 73.01 92.69 C 74.46 85.41 72.52 77.97 70.29 71.05 L 71.75 71.57 C 69.82 66.44 68.48 60.49 70.95 55.31 C 72.52 53.44 74.60 51.76 77.10 51.46 C 83.05 50.85 89.05 50.93 95.00 50.38 C 96.86 50.34 99.25 49.61 100.34 51.67 C 102.92 54.48 100.32 58.27 99.08 61.10 C 97.49 65.24 92.84 66.96 91.11 71.02 C 93.46 69.45 95.71 67.72 97.87 65.89 C 100.16 63.07 101.64 59.68 103.34 56.50 C 104.59 52.96 101.71 50.35 99.88 47.76 C 90.18 48.65 80.47 49.50 70.76 50.15 C 69.13 53.95 67.49 57.78 67.04 61.93 C 64.68 65.66 62.65 69.57 62.24 74.06 C 64.94 71.62 66.54 68.38 67.96 65.09 C 68.54 71.12 69.30 77.10 70.70 83.01 C 70.07 83.53 69.43 84.06 68.79 84.58 L 68.78 83.44 C 67.14 83.89 65.51 84.36 63.89 84.84 C 62.01 82.53 58.93 80.45 59.23 77.11 C 59.26 72.85 58.65 68.38 60.38 64.34 C 61.28 62.02 61.13 59.48 61.58 57.07 C 62.77 56.13 64.05 55.32 65.42 54.64 C 64.20 54.80 62.97 54.70 61.76 54.54 C 59.24 53.08 56.69 51.69 54.16 50.26 C 55.38 48.15 55.99 45.49 58.00 43.96 C 60.95 43.49 63.96 43.62 66.90 43.11 C 67.90 43.98 68.90 44.85 69.91 45.71 C 66.89 46.55 65.38 51.08 69.28 52.07 C 69.30 50.50 69.27 48.93 69.32 47.35 C 79.73 47.27 90.05 45.51 100.46 45.12 C 101.26 46.03 102.07 46.92 102.91 47.81 C 103.36 45.50 103.84 43.19 104.39 40.90 C 108.36 40.43 112.36 40.87 116.27 41.62 C 116.09 42.77 115.89 43.92 115.65 45.06 C 113.24 47.96 114.57 52.01 113.89 55.44 C 113.21 55.78 111.85 56.45 111.18 56.79 L 111.14 54.70 C 108.35 56.63 106.93 59.85 107.29 63.22 C 108.68 61.56 109.51 59.57 110.14 57.52 C 110.56 58.04 110.98 58.57 111.40 59.10 C 108.33 64.83 109.44 71.69 106.35 77.38 C 104.43 81.22 101.69 84.63 98.52 87.52 C 97.43 88.39 96.42 89.71 94.86 89.57 C 91.14 87.14 89.46 82.74 87.56 78.93 C 87.66 76.51 88.50 74.20 88.69 71.79 C 86.27 74.23 84.67 78.17 86.45 81.41 C 88.10 84.97 89.22 89.28 92.97 91.26 C 96.15 92.31 99.11 90.63 100.92 88.08 C 100.12 91.04 99.66 94.09 99.87 97.17 C 100.50 97.20 101.76 97.26 102.39 97.29 C 102.04 94.04 102.00 90.70 102.82 87.52 C 103.77 84.01 106.92 81.79 108.53 78.64 C 110.38 73.58 110.18 68.02 112.03 62.95 C 113.26 58.28 117.02 54.43 116.25 49.32 C 123.24 48.28 130.38 48.52 137.33 47.14 C 137.72 50.35 139.76 52.49 142.74 53.53 C 144.01 53.09 145.28 52.66 146.55 52.23 C 146.53 51.87 146.49 51.16 146.47 50.81 C 144.20 50.48 140.86 51.82 139.74 49.11 C 139.15 45.61 139.12 41.90 140.68 38.64 C 142.16 35.92 145.67 36.19 148.27 35.52 C 148.95 36.74 149.62 37.96 150.28 39.20 C 149.45 39.40 147.79 39.80 146.96 39.99 C 146.19 41.82 145.30 43.84 145.97 45.84 C 146.92 46.32 147.90 46.74 148.90 47.13 C 148.97 47.83 149.10 49.24 149.16 49.95 C 149.92 48.97 150.67 47.99 151.43 47.02 C 154.96 46.64 158.51 46.37 162.03 45.91 C 168.58 44.93 175.28 45.44 181.80 44.22 C 181.95 43.74 182.25 42.79 182.41 42.31 C 174.48 42.89 166.59 44.05 158.64 43.89 C 154.60 44.07 150.55 45.16 146.51 44.35 C 147.40 43.37 148.32 42.42 149.28 41.51 C 151.10 41.47 152.32 40.30 152.83 38.65 L 151.96 38.75 C 151.49 35.13 148.32 33.43 144.94 34.21 C 141.46 33.96 139.59 37.21 138.22 39.86 C 132.80 40.74 127.28 40.51 121.87 41.49 C 119.65 42.13 117.55 41.18 115.52 40.39 C 115.24 36.87 115.63 32.22 111.98 30.28 C 107.40 26.48 100.77 25.37 95.17 27.33 M 153.03 39.00 C 153.80 39.57 154.58 40.14 155.37 40.70 C 164.79 39.50 174.25 38.55 183.73 37.99 C 183.39 37.62 182.70 36.89 182.36 36.52 C 172.56 36.74 162.82 38.41 153.03 39.00 M 35.89 47.43 C 29.15 47.98 22.43 48.84 15.74 49.87 C 15.87 52.02 16.22 54.15 16.92 56.19 C 23.04 55.62 29.18 55.09 35.25 54.13 C 36.17 57.92 39.90 59.62 43.50 58.45 C 43.51 58.01 43.52 57.15 43.53 56.71 C 41.59 56.39 38.26 57.75 37.71 55.02 C 37.48 51.54 36.54 47.18 39.49 44.55 C 41.71 43.59 44.23 43.39 46.23 41.92 C 44.16 41.67 42.09 41.54 40.01 41.54 C 38.43 43.35 37.03 45.31 35.89 47.43 M 104.77 52.42 C 107.05 52.92 109.34 53.33 111.63 53.73 C 110.75 50.21 107.15 51.35 104.77 52.42 M 77.47 68.00 C 77.72 72.76 75.72 77.35 76.44 82.10 C 76.70 86.98 77.65 91.79 77.83 96.68 C 78.41 95.75 79.46 94.88 79.17 93.66 C 78.18 85.79 77.54 77.79 79.13 69.95 C 78.66 63.75 80.73 57.93 83.31 52.42 C 77.82 55.45 77.50 62.47 77.47 68.00 M 92.45 57.36 C 92.25 62.44 87.24 66.03 88.36 71.33 C 90.20 67.60 92.14 63.88 94.85 60.68 C 94.68 59.70 94.51 58.72 94.34 57.74 C 93.87 57.65 92.92 57.45 92.45 57.36 M 93.08 81.25 C 96.08 78.58 98.55 75.01 98.65 70.86 C 95.35 73.28 93.91 77.39 93.08 81.25 M 49.41 183.20 C 53.21 183.30 57.01 183.29 60.81 183.14 C 60.16 182.48 59.51 181.81 58.86 181.15 C 56.24 181.15 53.61 181.18 50.98 181.17 C 50.46 181.85 49.94 182.52 49.41 183.20 M 22.76 202.71 C 28.39 204.31 34.39 203.55 40.10 202.87 C 41.44 202.84 41.75 201.28 42.42 200.43 C 35.89 201.42 29.31 201.90 22.76 202.71 Z" />
<path fill="#FFFFFF" opacity="1.00" d=" M 93.41 29.36 C 98.32 24.49 105.82 28.28 110.65 31.43 C 113.18 33.28 113.15 36.76 113.93 39.51 C 110.88 39.37 107.85 38.77 104.79 39.02 C 102.87 39.55 101.63 41.26 100.27 42.60 C 96.44 42.89 92.64 43.40 88.81 43.68 C 91.16 39.17 90.03 33.43 93.41 29.36 Z" />
<path fill="#FFFFFF" opacity="1.00" d=" M 119.05 44.00 C 125.40 43.51 131.70 42.70 138.01 41.78 C 138.00 43.10 137.96 44.42 137.89 45.73 C 130.63 45.73 123.41 46.53 116.17 47.07 C 117.15 46.06 118.11 45.04 119.05 44.00 Z" />
<path fill="#FFFFFF" opacity="1.00" d=" M 16.81 51.85 C 20.91 50.00 25.61 50.66 29.97 50.10 C 32.43 50.01 35.25 48.96 37.24 51.06 C 31.28 53.40 24.64 52.82 18.49 54.62 C 17.90 53.72 17.34 52.79 16.81 51.85 Z" />
<path fill="#FFFFFF" opacity="1.00" d=" M 88.42 103.68 C 91.87 103.16 95.25 102.30 98.56 101.20 C 98.65 103.54 97.95 106.16 99.69 108.07 C 101.90 110.57 100.25 113.98 100.85 116.93 C 101.98 123.31 101.06 129.86 102.60 136.18 C 102.36 139.72 98.86 141.32 96.30 143.09 C 93.60 145.08 90.15 144.74 87.00 144.79 C 82.61 144.63 78.21 145.79 73.88 144.69 C 74.51 142.84 75.40 141.02 75.46 139.03 C 75.05 136.18 73.37 133.73 72.80 130.92 C 71.07 129.34 69.21 127.94 67.30 126.60 C 64.57 121.11 64.22 114.28 66.38 108.55 C 67.36 105.34 70.37 103.71 73.01 102.04 C 76.99 102.50 81.15 102.12 84.85 103.95 C 81.49 104.18 78.07 103.81 74.80 104.85 C 79.74 106.32 84.95 106.33 90.06 106.54 C 91.38 106.67 94.67 105.90 93.13 103.97 C 91.56 103.85 89.99 103.75 88.42 103.68 M 71.48 126.61 C 73.00 126.92 74.36 127.64 75.65 128.48 C 74.92 131.52 74.70 134.68 75.76 137.67 C 77.91 135.17 77.50 131.61 78.74 128.68 C 75.65 126.40 74.37 122.78 73.22 119.27 C 72.26 121.62 72.07 124.16 71.48 126.61 Z" />
<path fill="#FFFFFF" opacity="1.00" d=" M 83.42 179.75 C 88.87 179.08 93.50 174.15 94.49 168.84 C 94.49 174.18 95.33 179.57 94.51 184.89 C 93.43 192.21 92.81 199.66 93.54 207.04 C 96.93 210.51 101.46 212.29 105.51 214.81 C 108.26 216.42 111.54 216.41 114.57 217.16 C 111.11 218.58 107.68 220.06 104.32 221.68 C 99.24 221.25 93.55 219.89 88.96 222.82 C 86.56 224.37 83.66 224.52 80.89 224.51 C 80.48 223.89 79.65 222.67 79.24 222.05 C 79.60 217.40 81.08 212.98 82.25 208.50 C 82.89 203.37 82.59 198.19 82.60 193.04 C 82.47 189.14 82.89 185.11 81.35 181.42 C 82.04 180.86 82.73 180.31 83.42 179.75 Z" />
</g>
<g id="#383a37ff">
<path fill="#333333" opacity="1.00" d=" M 95.17 27.33 C 100.77 25.37 107.40 26.48 111.98 30.28 C 115.63 32.22 115.24 36.87 115.52 40.39 C 117.55 41.18 119.65 42.13 121.87 41.49 C 127.28 40.51 132.80 40.74 138.22 39.86 C 139.59 37.21 141.46 33.96 144.94 34.21 C 148.32 33.43 151.49 35.13 151.96 38.75 L 152.83 38.65 C 152.32 40.30 151.10 41.47 149.28 41.51 C 148.32 42.42 147.40 43.37 146.51 44.35 C 150.55 45.16 154.60 44.07 158.64 43.89 C 166.59 44.05 174.48 42.89 182.41 42.31 C 182.25 42.79 181.95 43.74 181.80 44.22 C 175.28 45.44 168.58 44.93 162.03 45.91 C 158.51 46.37 154.96 46.64 151.43 47.02 C 150.67 47.99 149.92 48.97 149.16 49.95 C 149.10 49.24 148.97 47.83 148.90 47.13 C 147.90 46.74 146.92 46.32 145.97 45.84 C 145.30 43.84 146.19 41.82 146.96 39.99 C 147.79 39.80 149.45 39.40 150.28 39.20 C 149.62 37.96 148.95 36.74 148.27 35.52 C 145.67 36.19 142.16 35.92 140.68 38.64 C 139.12 41.90 139.15 45.61 139.74 49.11 C 140.86 51.82 144.20 50.48 146.47 50.81 C 146.49 51.16 146.53 51.87 146.55 52.23 C 145.28 52.66 144.01 53.09 142.74 53.53 C 139.76 52.49 137.72 50.35 137.33 47.14 C 130.38 48.52 123.24 48.28 116.25 49.32 C 117.02 54.43 113.26 58.28 112.03 62.95 C 110.18 68.02 110.38 73.58 108.53 78.64 C 106.92 81.79 103.77 84.01 102.82 87.52 C 102.00 90.70 102.04 94.04 102.39 97.29 C 101.76 97.26 100.50 97.20 99.87 97.17 C 99.66 94.09 100.12 91.04 100.92 88.08 C 99.11 90.63 96.15 92.31 92.97 91.26 C 89.22 89.28 88.10 84.97 86.45 81.41 C 84.67 78.17 86.27 74.23 88.69 71.79 C 88.50 74.20 87.66 76.51 87.56 78.93 C 89.46 82.74 91.14 87.14 94.86 89.57 C 96.42 89.71 97.43 88.39 98.52 87.52 C 101.69 84.63 104.43 81.22 106.35 77.38 C 109.44 71.69 108.33 64.83 111.40 59.10 C 110.98 58.57 110.56 58.04 110.14 57.52 C 109.51 59.57 108.68 61.56 107.29 63.22 C 106.93 59.85 108.35 56.63 111.14 54.70 L 111.18 56.79 C 111.85 56.45 113.21 55.78 113.89 55.44 C 114.57 52.01 113.24 47.96 115.65 45.06 C 115.89 43.92 116.09 42.77 116.27 41.62 C 112.36 40.87 108.36 40.43 104.39 40.90 C 103.84 43.19 103.36 45.50 102.91 47.81 C 102.07 46.92 101.26 46.03 100.46 45.12 C 90.05 45.51 79.73 47.27 69.32 47.35 C 69.27 48.93 69.30 50.50 69.28 52.07 C 65.38 51.08 66.89 46.55 69.91 45.71 C 68.90 44.85 67.90 43.98 66.90 43.11 C 63.96 43.62 60.95 43.49 58.00 43.96 C 55.99 45.49 55.38 48.15 54.16 50.26 C 56.69 51.69 59.24 53.08 61.76 54.54 C 62.97 54.70 64.20 54.80 65.42 54.64 C 64.05 55.32 62.77 56.13 61.58 57.07 C 61.13 59.48 61.28 62.02 60.38 64.34 C 58.65 68.38 59.26 72.85 59.23 77.11 C 58.93 80.45 62.01 82.53 63.89 84.84 C 65.51 84.36 67.14 83.89 68.78 83.44 L 68.79 84.58 C 69.43 84.06 70.07 83.53 70.70 83.01 C 69.30 77.10 68.54 71.12 67.96 65.09 C 66.54 68.38 64.94 71.62 62.24 74.06 C 62.65 69.57 64.68 65.66 67.04 61.93 C 67.49 57.78 69.13 53.95 70.76 50.15 C 80.47 49.50 90.18 48.65 99.88 47.76 C 101.71 50.35 104.59 52.96 103.34 56.50 C 101.64 59.68 100.16 63.07 97.87 65.89 C 95.71 67.72 93.46 69.45 91.11 71.02 C 92.84 66.96 97.49 65.24 99.08 61.10 C 100.32 58.27 102.92 54.48 100.34 51.67 C 99.25 49.61 96.86 50.34 95.00 50.38 C 89.05 50.93 83.05 50.85 77.10 51.46 C 74.60 51.76 72.52 53.44 70.95 55.31 C 68.48 60.49 69.82 66.44 71.75 71.57 L 70.29 71.05 C 72.52 77.97 74.46 85.41 73.01 92.69 C 72.69 95.09 73.24 97.50 73.41 99.90 C 76.60 100.41 79.85 99.37 83.00 100.28 C 88.75 101.68 94.67 100.47 100.08 98.34 C 100.59 98.95 101.09 99.56 101.60 100.18 C 100.72 103.67 101.81 106.82 103.24 109.92 C 102.78 119.39 105.07 129.12 102.13 138.35 C 100.08 143.50 100.84 149.22 98.96 154.43 C 97.16 159.44 98.58 164.83 97.33 169.94 C 97.90 177.38 96.19 184.70 95.79 192.11 C 95.52 197.04 93.95 202.65 97.02 207.02 C 99.51 208.99 102.30 210.55 105.08 212.07 C 108.29 213.84 112.33 213.44 115.35 215.58 C 117.34 216.86 115.65 219.23 114.47 220.44 C 112.85 222.33 110.30 222.73 108.00 223.18 C 103.98 224.35 99.89 221.92 95.87 223.15 C 92.63 223.57 90.02 225.82 86.85 226.47 C 84.23 226.55 81.60 226.38 78.98 226.30 C 78.00 225.15 77.00 224.01 76.04 222.86 L 75.70 222.27 C 75.13 221.16 75.15 219.81 75.75 218.72 L 76.04 218.07 C 77.47 211.95 80.42 206.25 81.29 200.01 C 81.34 193.99 80.20 188.02 78.64 182.22 C 75.12 182.19 71.60 182.11 68.09 181.79 C 66.19 182.21 64.27 182.55 62.35 182.87 C 61.60 182.25 60.84 181.63 60.08 181.02 C 63.48 180.58 66.78 179.65 70.04 178.64 C 72.36 179.52 75.07 180.39 77.45 179.27 C 79.92 178.10 82.29 176.64 85.08 176.42 C 88.03 176.15 90.24 173.58 91.27 170.99 C 92.30 166.02 93.11 160.91 95.55 156.38 C 97.40 152.87 98.01 148.91 98.18 144.99 C 91.49 147.20 84.44 146.25 77.57 146.99 C 76.69 150.45 77.19 153.98 79.76 156.60 C 79.05 158.71 78.34 160.82 77.64 162.93 C 78.37 162.90 79.82 162.85 80.55 162.82 C 82.31 160.31 81.91 156.53 84.64 154.75 C 84.39 155.70 84.15 156.66 83.90 157.61 C 83.71 159.56 83.07 161.40 82.23 163.15 C 83.06 163.26 84.72 163.48 85.55 163.58 C 79.68 167.04 73.00 163.59 66.88 162.77 C 63.50 163.26 59.94 163.12 56.79 164.64 C 52.38 166.62 47.71 168.07 42.90 168.66 C 38.49 169.48 37.31 163.96 35.61 160.97 C 33.00 160.90 29.64 159.45 27.58 161.66 C 22.40 167.09 17.78 173.14 11.82 177.77 C 9.93 179.77 8.45 182.11 6.74 184.27 C 10.35 184.62 14.01 184.51 17.49 183.44 C 25.82 181.18 34.83 182.72 42.84 179.14 L 42.40 180.59 C 44.67 180.56 46.94 180.65 49.21 180.65 C 49.23 181.53 49.26 182.40 49.29 183.28 C 45.54 181.43 41.36 182.45 37.42 182.89 C 40.48 186.39 44.01 189.48 46.54 193.41 C 48.27 196.13 51.98 198.17 51.51 201.83 C 51.10 204.40 51.07 207.97 48.15 209.06 C 42.86 210.55 37.32 210.75 31.89 211.46 C 27.67 212.13 23.40 213.06 19.11 212.67 C 18.54 212.10 18.25 211.38 18.13 210.60 C 25.11 210.08 31.94 207.95 39.00 207.85 C 41.77 207.40 45.02 208.20 47.48 206.70 C 47.95 203.94 48.99 200.72 47.21 198.21 C 43.37 193.33 39.89 188.18 35.78 183.50 C 30.89 184.56 25.86 184.49 20.92 185.17 C 16.16 185.52 11.47 186.66 6.66 186.31 C 6.12 185.21 5.56 184.13 5.16 182.97 C 7.95 177.03 14.54 174.47 18.42 169.41 C 20.97 166.30 22.09 161.98 25.70 159.78 C 28.27 157.59 31.92 158.13 34.92 158.94 C 37.65 160.31 38.49 163.55 40.34 165.78 C 46.99 167.53 53.43 164.19 59.43 161.78 C 64.41 161.27 69.44 161.62 74.44 161.60 C 75.25 159.73 76.00 157.84 76.63 155.90 C 74.89 153.15 73.97 150.01 73.74 146.78 C 72.60 146.09 71.45 145.40 70.32 144.71 C 70.89 143.31 71.48 141.91 72.06 140.52 C 71.46 136.13 69.68 131.73 66.18 128.87 C 63.35 126.87 63.32 123.08 63.06 119.96 C 63.20 116.43 62.12 112.45 64.27 109.33 C 67.05 105.07 69.52 100.59 71.58 95.95 C 71.77 92.02 70.18 88.21 70.80 84.25 C 67.65 85.97 63.72 87.27 60.32 85.38 C 57.24 81.51 59.02 76.40 58.05 71.94 C 58.22 66.35 59.32 60.79 59.97 55.23 C 55.98 52.17 50.99 52.91 46.44 54.04 C 46.16 55.03 45.87 56.01 45.58 57.00 C 45.69 56.41 45.90 55.23 46.01 54.64 C 45.39 53.92 44.78 53.20 44.16 52.48 C 47.78 51.05 52.98 52.74 54.88 48.48 C 50.97 48.42 47.11 49.12 43.21 49.24 C 44.33 47.68 45.88 46.72 47.79 46.48 C 47.14 45.83 45.86 44.54 45.22 43.90 C 45.93 43.38 46.64 42.87 47.36 42.37 C 47.61 43.47 48.11 45.65 48.35 46.74 C 49.96 46.78 51.57 46.84 53.18 46.91 C 54.87 45.19 56.12 42.40 58.88 42.37 C 61.73 42.14 64.59 41.60 67.45 41.78 C 69.23 42.70 70.67 44.13 72.20 45.41 C 76.46 44.51 80.85 44.59 85.12 43.87 C 89.07 42.41 88.09 37.74 88.73 34.46 C 89.18 30.98 92.35 28.88 95.17 27.33 M 93.41 29.36 C 90.03 33.43 91.16 39.17 88.81 43.68 C 92.64 43.40 96.44 42.89 100.27 42.60 C 101.63 41.26 102.87 39.55 104.79 39.02 C 107.85 38.77 110.88 39.37 113.93 39.51 C 113.15 36.76 113.18 33.28 110.65 31.43 C 105.82 28.28 98.32 24.49 93.41 29.36 M 119.05 44.00 C 118.11 45.04 117.15 46.06 116.17 47.07 C 123.41 46.53 130.63 45.73 137.89 45.73 C 137.96 44.42 138.00 43.10 138.01 41.78 C 131.70 42.70 125.40 43.51 119.05 44.00 M 88.42 103.68 C 89.99 103.75 91.56 103.85 93.13 103.97 C 94.67 105.90 91.38 106.67 90.06 106.54 C 84.95 106.33 79.74 106.32 74.80 104.85 C 78.07 103.81 81.49 104.18 84.85 103.95 C 81.15 102.12 76.99 102.50 73.01 102.04 C 70.37 103.71 67.36 105.34 66.38 108.55 C 64.22 114.28 64.57 121.11 67.30 126.60 C 69.21 127.94 71.07 129.34 72.80 130.92 C 73.37 133.73 75.05 136.18 75.46 139.03 C 75.40 141.02 74.51 142.84 73.88 144.69 C 78.21 145.79 82.61 144.63 87.00 144.79 C 90.15 144.74 93.60 145.08 96.30 143.09 C 98.86 141.32 102.36 139.72 102.60 136.18 C 101.06 129.86 101.98 123.31 100.85 116.93 C 100.25 113.98 101.90 110.57 99.69 108.07 C 97.95 106.16 98.65 103.54 98.56 101.20 C 95.25 102.30 91.87 103.16 88.42 103.68 M 83.42 179.75 C 82.73 180.31 82.04 180.86 81.35 181.42 C 82.89 185.11 82.47 189.14 82.60 193.04 C 82.59 198.19 82.89 203.37 82.25 208.50 C 81.08 212.98 79.60 217.40 79.24 222.05 C 79.65 222.67 80.48 223.89 80.89 224.51 C 83.66 224.52 86.56 224.37 88.96 222.82 C 93.55 219.89 99.24 221.25 104.32 221.68 C 107.68 220.06 111.11 218.58 114.57 217.16 C 111.54 216.41 108.26 216.42 105.51 214.81 C 101.46 212.29 96.93 210.51 93.54 207.04 C 92.81 199.66 93.43 192.21 94.51 184.89 C 95.33 179.57 94.49 174.18 94.49 168.84 C 93.50 174.15 88.87 179.08 83.42 179.75 Z" />
<path fill="#333333" opacity="1.00" d=" M 153.03 39.00 C 162.82 38.41 172.56 36.74 182.36 36.52 C 182.70 36.89 183.39 37.62 183.73 37.99 C 174.25 38.55 164.79 39.50 155.37 40.70 C 154.58 40.14 153.80 39.57 153.03 39.00 Z" />
<path fill="#333333" opacity="1.00" d=" M 35.89 47.43 C 37.03 45.31 38.43 43.35 40.01 41.54 C 42.09 41.54 44.16 41.67 46.23 41.92 C 44.23 43.39 41.71 43.59 39.49 44.55 C 36.54 47.18 37.48 51.54 37.71 55.02 C 38.26 57.75 41.59 56.39 43.53 56.71 C 43.52 57.15 43.51 58.01 43.50 58.45 C 39.90 59.62 36.17 57.92 35.25 54.13 C 29.18 55.09 23.04 55.62 16.92 56.19 C 16.22 54.15 15.87 52.02 15.74 49.87 C 22.43 48.84 29.15 47.98 35.89 47.43 M 16.81 51.85 C 17.34 52.79 17.90 53.72 18.49 54.62 C 24.64 52.82 31.28 53.40 37.24 51.06 C 35.25 48.96 32.43 50.01 29.97 50.10 C 25.61 50.66 20.91 50.00 16.81 51.85 Z" />
<path fill="#333333" opacity="1.00" d=" M 104.77 52.42 C 107.15 51.35 110.75 50.21 111.63 53.73 C 109.34 53.33 107.05 52.92 104.77 52.42 Z" />
<path fill="#333333" opacity="1.00" d=" M 77.47 68.00 C 77.50 62.47 77.82 55.45 83.31 52.42 C 80.73 57.93 78.66 63.75 79.13 69.95 C 77.54 77.79 78.18 85.79 79.17 93.66 C 79.46 94.88 78.41 95.75 77.83 96.68 C 77.65 91.79 76.70 86.98 76.44 82.10 C 75.72 77.35 77.72 72.76 77.47 68.00 Z" />
<path fill="#333333" opacity="1.00" d=" M 92.45 57.36 C 92.92 57.45 93.87 57.65 94.34 57.74 C 94.51 58.72 94.68 59.70 94.85 60.68 C 92.14 63.88 90.20 67.60 88.36 71.33 C 87.24 66.03 92.25 62.44 92.45 57.36 Z" />
<path fill="#333333" opacity="1.00" d=" M 93.08 81.25 C 93.91 77.39 95.35 73.28 98.65 70.86 C 98.55 75.01 96.08 78.58 93.08 81.25 Z" />
<path fill="#333333" opacity="1.00" d=" M 71.48 126.61 C 72.07 124.16 72.26 121.62 73.22 119.27 C 74.37 122.78 75.65 126.40 78.74 128.68 C 77.50 131.61 77.91 135.17 75.76 137.67 C 74.70 134.68 74.92 131.52 75.65 128.48 C 74.36 127.64 73.00 126.92 71.48 126.61 Z" />
<path fill="#333333" opacity="1.00" d=" M 49.41 183.20 C 49.94 182.52 50.46 181.85 50.98 181.17 C 53.61 181.18 56.24 181.15 58.86 181.15 C 59.51 181.81 60.16 182.48 60.81 183.14 C 57.01 183.29 53.21 183.30 49.41 183.20 Z" />
<path fill="#333333" opacity="1.00" d=" M 0.00 200.14 C 2.30 200.95 4.02 202.63 5.54 204.46 C 8.06 207.55 11.88 209.27 15.78 209.78 C 16.60 210.79 17.42 211.81 18.22 212.85 C 15.15 212.39 11.77 212.48 8.99 210.93 C 5.60 208.14 3.50 204.11 0.00 201.41 L 0.00 200.14 Z" />
<path fill="#333333" opacity="1.00" d=" M 22.76 202.71 C 29.31 201.90 35.89 201.42 42.42 200.43 C 41.75 201.28 41.44 202.84 40.10 202.87 C 34.39 203.55 28.39 204.31 22.76 202.71 Z" />
</g>
</svg>
