<?xml version="1.0" encoding="UTF-8" ?>
<!DOCTYPE svg PUBLIC "-//W3C//DTD SVG 1.1//EN" "http://www.w3.org/Graphics/SVG/1.1/DTD/svg11.dtd">
<svg width="185pt" height="250pt" viewBox="0 0 185 250" version="1.1" xmlns="http://www.w3.org/2000/svg">
<g id="#ffffffff">
<path fill="#FFFFFF" opacity="1.00" d=" M 0.00 0.00 L 185.00 0.00 L 185.00 103.33 C 184.30 102.07 183.47 100.74 181.84 100.92 C 172.13 100.51 162.39 100.55 152.69 100.26 C 151.19 98.55 150.63 95.62 148.13 95.07 C 146.14 94.64 144.04 94.61 142.06 95.04 C 139.96 95.84 139.18 98.20 137.92 99.87 C 132.37 99.95 126.81 99.89 121.27 99.47 C 120.01 98.14 118.72 96.83 117.41 95.55 C 119.50 90.47 118.60 84.86 118.21 79.55 C 117.31 76.78 116.90 72.61 113.46 71.96 C 108.79 70.85 103.85 71.24 99.19 72.27 C 95.97 72.93 94.01 75.89 92.80 78.71 C 91.55 82.04 92.89 85.59 92.72 89.01 C 91.90 91.92 90.17 94.47 89.00 97.25 C 86.97 97.28 84.94 97.29 82.91 97.30 C 81.74 95.61 80.86 93.15 78.54 92.83 C 75.79 92.37 72.97 92.05 70.19 92.26 C 67.91 93.29 66.40 95.70 64.00 96.35 C 58.33 96.38 52.67 95.47 46.99 95.83 C 45.67 96.03 43.80 95.44 43.11 96.99 C 42.81 98.18 42.83 99.42 42.72 100.64 C 43.49 100.86 45.03 101.31 45.80 101.53 C 45.76 102.60 45.72 103.67 45.67 104.74 C 48.05 101.25 52.39 102.56 55.94 102.66 C 59.48 102.92 63.03 103.07 66.58 103.36 C 63.04 109.82 61.36 117.09 57.69 123.49 C 55.31 127.80 57.45 132.72 59.14 136.85 C 60.96 139.76 65.29 139.06 67.70 137.22 C 65.91 137.07 64.13 136.95 62.35 136.85 C 60.92 133.86 58.80 131.18 57.83 127.98 C 57.31 124.93 59.75 122.52 61.01 119.98 C 63.44 115.27 65.15 110.23 67.48 105.47 C 68.80 102.83 67.78 99.83 67.53 97.07 C 67.99 96.38 68.91 94.99 69.37 94.30 C 72.14 94.24 74.91 94.25 77.68 94.30 C 78.66 94.99 79.64 95.68 80.63 96.36 C 78.81 97.70 77.35 99.41 76.49 101.51 C 73.95 103.84 72.84 107.14 71.12 110.03 C 67.83 114.15 63.32 117.72 62.08 123.11 C 61.67 124.64 63.02 125.92 63.47 127.28 C 64.73 121.34 67.43 115.53 72.64 112.06 C 72.90 112.73 73.42 114.07 73.67 114.74 C 74.31 113.45 74.95 112.16 75.60 110.87 C 76.09 110.71 77.06 110.39 77.55 110.23 C 78.34 108.29 79.09 106.33 79.76 104.35 C 77.73 106.63 75.72 108.94 73.54 111.08 C 74.71 108.33 75.92 105.58 77.72 103.17 C 85.09 104.57 92.67 104.42 100.15 104.61 C 102.53 106.82 104.77 109.18 106.70 111.81 C 104.78 116.16 102.42 120.57 98.51 123.46 C 96.10 124.85 93.62 126.20 91.68 128.24 C 94.58 127.38 97.52 126.50 100.24 125.13 C 103.75 121.80 105.95 117.39 108.24 113.18 C 108.78 111.66 110.41 111.30 111.70 110.67 C 112.03 110.42 112.69 109.94 113.02 109.69 C 111.15 109.64 109.29 109.66 107.42 109.71 C 105.70 107.47 103.63 105.54 101.49 103.71 C 103.30 101.44 105.05 99.12 106.71 96.74 C 110.41 97.13 114.13 97.44 117.74 98.37 C 117.22 100.15 116.40 101.89 116.30 103.78 C 116.86 105.32 117.81 106.67 118.64 108.08 C 116.27 116.95 113.98 126.14 108.91 133.91 C 105.05 138.32 101.58 143.36 96.45 146.40 C 93.75 142.77 91.23 138.96 89.19 134.93 C 89.03 127.20 96.37 120.60 93.92 112.56 C 90.88 119.68 86.78 127.06 87.48 135.04 C 88.63 140.42 91.35 147.81 98.00 147.60 C 98.58 148.19 99.15 148.78 99.71 149.39 C 97.30 151.70 94.64 154.43 90.98 154.20 C 84.16 154.23 77.11 152.98 71.01 149.84 C 67.88 148.13 69.23 144.16 70.19 141.51 C 72.10 137.24 70.97 132.52 71.13 128.02 C 70.91 124.02 71.70 120.05 71.58 116.06 C 66.77 122.89 70.05 131.64 67.80 139.21 C 66.37 143.51 66.82 148.34 64.60 152.37 C 62.44 155.04 60.01 157.67 59.20 161.12 C 57.56 165.60 60.08 170.10 60.69 174.54 C 61.05 177.78 63.57 179.92 65.87 181.92 C 64.19 184.66 62.72 187.54 61.70 190.60 C 62.97 192.48 64.48 194.39 64.25 196.83 C 57.44 193.81 51.61 189.11 46.18 184.10 C 46.33 179.45 48.15 173.99 45.01 169.94 C 40.95 166.61 35.50 168.35 31.08 169.90 C 28.08 171.30 24.96 169.60 21.90 169.44 C 16.73 169.38 10.80 170.78 8.28 175.80 C 9.56 178.04 10.40 180.79 12.62 182.31 C 16.17 184.19 20.25 184.60 24.04 185.84 C 26.73 186.47 28.46 188.79 30.79 190.07 C 34.60 192.12 39.03 192.49 42.95 194.25 C 44.79 195.45 46.11 197.33 47.22 199.19 C 47.68 201.62 47.03 204.12 46.96 206.58 C 37.42 208.73 27.66 209.43 17.92 209.93 C 12.70 210.26 7.80 207.38 4.62 203.41 C 3.44 201.86 1.78 200.86 0.00 200.14 L 0.00 0.00 M 40.25 89.41 C 38.48 90.93 37.00 92.74 35.88 94.79 C 29.17 94.65 22.46 94.26 15.76 94.65 C 15.89 96.78 14.53 99.91 16.93 101.15 C 22.97 101.87 29.10 101.44 35.18 101.54 C 36.21 105.74 41.15 108.51 44.74 105.42 C 42.46 104.65 38.95 105.63 37.76 102.92 C 37.66 101.45 37.77 99.98 37.50 98.53 C 31.76 100.08 25.80 99.14 19.95 99.21 C 18.33 99.41 17.42 97.84 16.43 96.89 C 23.25 96.44 30.42 96.01 37.04 97.90 C 37.72 95.40 38.30 91.51 41.77 91.78 C 44.36 91.07 46.02 92.74 47.27 94.76 C 47.59 94.83 48.22 94.97 48.54 95.04 C 48.43 90.65 43.85 89.30 40.25 89.41 M 105.06 102.65 C 107.67 103.39 110.94 105.67 113.12 102.85 C 110.45 102.47 107.75 102.33 105.06 102.65 M 80.65 110.55 C 77.09 115.58 76.80 121.92 76.13 127.83 C 79.61 125.56 78.11 120.92 79.28 117.51 C 80.88 112.81 84.28 109.00 86.50 104.60 C 83.41 105.08 82.33 108.34 80.65 110.55 M 88.52 109.45 C 87.43 111.89 85.93 115.35 88.44 117.42 C 88.88 115.27 89.06 113.08 89.58 110.95 C 90.44 109.09 91.87 107.54 92.92 105.78 C 91.22 106.67 89.23 107.49 88.52 109.45 M 111.03 121.78 C 111.39 121.79 112.11 121.81 112.47 121.82 C 112.34 117.53 115.33 114.32 116.39 110.38 C 113.20 113.34 110.70 117.25 111.03 121.78 M 94.98 137.38 C 98.66 134.58 100.64 130.21 103.38 126.58 C 99.22 128.82 96.45 132.99 94.98 137.38 M 74.90 132.50 C 73.39 137.52 73.36 142.82 72.74 148.00 C 73.28 147.72 74.35 147.16 74.89 146.88 C 76.20 142.21 76.16 137.17 74.90 132.50 M 78.98 137.58 C 80.27 142.00 81.32 146.53 80.67 151.17 C 81.33 150.41 82.01 149.67 82.60 148.86 C 82.79 144.80 82.33 140.34 78.98 137.58 M 29.97 201.44 C 25.81 201.47 21.67 201.98 17.65 203.08 C 24.12 203.78 30.61 202.86 37.05 202.27 C 39.28 201.98 41.70 201.93 43.54 200.48 C 38.97 199.90 34.53 201.46 29.97 201.44 Z" />
<path fill="#FFFFFF" opacity="1.00" d=" M 96.53 76.49 C 100.22 72.51 106.17 73.07 111.08 73.33 C 114.69 73.53 115.29 77.90 116.01 80.67 C 116.43 85.53 117.77 90.94 114.99 95.36 C 111.93 95.41 108.89 94.80 105.83 94.89 C 104.70 95.72 103.83 96.86 102.77 97.78 C 98.39 98.15 93.99 97.30 89.60 97.35 C 93.03 95.53 94.33 91.67 94.94 88.09 C 95.21 84.27 93.54 79.61 96.53 76.49 Z" />
<path fill="#FFFFFF" opacity="1.00" d=" M 139.56 108.81 C 139.34 104.22 138.84 98.34 143.81 96.00 C 146.60 96.42 149.38 97.21 150.47 100.10 C 149.51 100.28 147.59 100.64 146.64 100.83 C 146.29 102.14 145.84 103.44 145.73 104.81 C 145.42 106.66 147.75 107.08 148.81 108.08 C 148.86 108.70 148.95 109.93 149.00 110.54 C 150.24 109.77 151.24 108.22 152.86 108.35 C 159.91 108.32 166.98 108.28 174.01 109.01 C 177.41 109.36 180.88 109.30 184.21 108.42 C 184.40 107.76 184.80 106.43 185.00 105.76 L 185.00 250.00 L 0.00 250.00 L 0.00 201.46 C 3.76 204.16 5.70 208.70 9.52 211.31 C 15.15 213.54 21.26 211.64 27.09 211.68 C 34.24 211.87 41.32 210.47 48.13 208.42 C 51.17 212.79 54.22 217.27 58.32 220.74 C 60.81 222.89 63.72 224.47 66.35 226.44 C 68.49 226.36 70.74 226.73 72.81 226.07 C 75.56 224.40 77.53 221.75 79.28 219.11 C 81.48 222.81 86.00 223.65 89.99 223.24 C 93.59 223.24 96.47 220.50 100.05 220.36 C 102.12 220.60 104.03 221.51 106.08 221.88 C 108.43 221.98 110.73 221.33 113.06 221.06 C 114.39 219.46 115.67 217.82 116.88 216.13 C 110.49 213.68 105.36 208.91 100.77 204.01 C 100.21 198.00 104.09 192.99 107.65 188.59 C 111.72 183.69 112.75 177.17 116.00 171.80 C 118.04 167.83 120.47 163.22 118.99 158.68 C 117.52 156.13 115.72 153.16 112.59 152.57 C 108.03 151.41 102.85 152.86 99.61 156.29 C 104.05 156.71 108.09 152.83 112.47 154.63 C 114.73 155.74 117.54 157.28 117.68 160.12 C 118.24 165.77 114.11 170.24 111.63 174.91 C 111.19 174.67 110.30 174.21 109.86 173.97 C 108.47 177.88 107.00 181.77 105.36 185.59 C 105.92 185.34 107.05 184.85 107.61 184.61 C 108.81 181.77 110.08 178.95 111.51 176.22 C 110.31 180.13 108.66 183.90 106.63 187.45 C 106.12 186.79 105.61 186.13 105.11 185.48 C 102.85 190.03 99.18 193.62 95.97 197.48 C 97.66 196.68 99.32 195.80 100.94 194.83 C 99.79 198.09 98.28 202.00 99.77 205.35 C 104.02 210.10 109.02 214.18 114.36 217.67 C 111.80 218.50 109.18 219.13 106.56 219.72 C 102.72 217.83 98.35 217.79 94.48 219.63 C 90.86 221.35 86.84 221.60 82.94 220.85 C 82.15 219.12 81.44 217.36 80.84 215.56 C 82.09 213.69 83.30 211.79 84.48 209.88 C 85.33 209.60 86.18 209.33 87.03 209.05 C 86.59 208.67 85.72 207.89 85.28 207.50 C 86.16 204.24 86.97 200.96 87.38 197.60 C 89.06 196.70 90.74 195.80 92.40 194.87 C 92.42 193.23 92.44 191.59 92.44 189.95 C 93.38 188.33 94.31 186.71 95.24 185.09 C 99.81 183.21 100.12 177.37 104.40 175.27 C 107.00 173.52 109.91 172.15 112.07 169.80 C 107.99 170.08 104.85 172.70 101.90 175.24 C 102.41 169.85 105.28 164.44 103.33 159.04 C 101.55 157.87 99.77 156.70 97.98 155.53 C 97.66 162.17 94.44 168.31 94.47 175.00 C 94.33 179.59 94.01 184.53 91.31 188.44 C 89.89 190.53 89.19 192.98 88.01 195.21 C 84.19 196.12 80.13 196.02 76.29 195.30 C 72.14 194.01 67.56 193.32 64.34 190.14 C 66.24 186.05 69.96 182.02 68.68 177.19 C 67.69 173.27 67.55 169.23 67.12 165.23 C 65.28 169.68 65.75 174.48 66.62 179.08 C 61.94 174.33 60.30 167.41 61.31 160.94 C 62.00 156.88 65.97 154.82 68.25 151.72 C 72.98 153.93 78.09 155.25 83.17 156.39 C 88.56 157.10 94.97 157.53 99.19 153.43 C 101.47 151.61 100.73 148.51 100.69 146.00 C 103.77 142.85 107.04 139.88 109.94 136.56 C 113.34 132.39 113.94 126.89 115.96 122.06 C 117.67 117.12 120.01 112.31 120.48 107.04 C 126.03 107.20 131.59 107.13 137.12 107.63 C 138.14 109.73 139.48 111.64 141.19 113.23 C 143.43 113.11 145.65 112.94 147.86 112.55 C 145.75 111.54 143.44 111.16 141.16 110.73 C 140.76 110.25 139.96 109.29 139.56 108.81 M 105.42 163.61 C 107.82 166.19 111.75 166.07 114.92 165.28 C 115.39 164.58 116.34 163.17 116.81 162.47 C 113.25 164.40 109.26 163.76 105.42 163.61 M 93.65 190.09 C 96.40 191.00 100.09 191.80 101.20 188.27 C 98.75 189.17 96.26 189.88 93.65 190.09 M 88.36 207.33 C 87.19 211.56 90.73 214.54 93.58 216.99 C 94.05 214.06 91.47 212.40 89.44 210.92 C 89.68 210.09 90.18 208.43 90.42 207.60 C 89.91 207.54 88.87 207.40 88.36 207.33 Z" />
<path fill="#FFFFFF" opacity="1.00" d=" M 43.84 97.69 C 51.00 97.55 58.20 97.91 65.32 98.63 C 65.41 99.19 65.61 100.32 65.70 100.89 C 58.71 101.09 51.77 99.85 44.78 99.90 C 44.55 99.35 44.08 98.24 43.84 97.69 Z" />
<path fill="#FFFFFF" opacity="1.00" d=" M 78.72 100.62 C 80.56 98.32 83.39 99.05 85.90 99.13 C 91.29 99.50 96.75 98.88 102.09 99.97 C 101.87 100.57 101.44 101.79 101.22 102.39 C 97.87 103.04 94.44 102.86 91.07 102.48 C 86.94 101.98 82.66 102.17 78.72 100.62 Z" />
<path fill="#FFFFFF" opacity="1.00" d=" M 118.95 104.85 C 115.48 103.47 120.02 101.74 121.77 101.51 C 127.19 102.07 132.63 102.09 138.07 102.28 C 137.96 103.41 137.80 104.54 137.59 105.67 C 131.35 106.23 125.19 104.52 118.95 104.85 Z" />
<path fill="#FFFFFF" opacity="1.00" d=" M 148.17 103.16 C 149.43 101.83 151.40 102.45 153.01 102.29 C 162.13 102.61 171.26 102.73 180.38 102.95 C 180.36 103.83 180.33 105.59 180.31 106.48 C 170.18 105.87 160.05 105.82 149.92 105.67 C 148.40 106.15 145.69 104.20 148.17 103.16 Z" />
<path fill="#FFFFFF" opacity="1.00" d=" M 182.26 103.83 C 183.63 104.04 183.85 104.72 182.94 105.88 C 181.57 105.69 181.35 105.00 182.26 103.83 Z" />
<path fill="#FFFFFF" opacity="1.00" d=" M 99.68 158.19 C 100.88 159.51 102.14 160.76 103.54 161.88 C 102.01 169.14 100.62 177.17 94.97 182.49 C 95.45 179.65 96.03 176.81 96.32 173.94 C 96.74 168.54 99.73 163.67 99.68 158.19 Z" />
<path fill="#FFFFFF" opacity="1.00" d=" M 32.65 171.59 C 36.28 170.07 41.29 168.68 44.25 172.17 C 45.66 176.06 44.43 180.26 44.07 184.24 C 44.42 184.45 45.11 184.88 45.46 185.09 C 48.82 189.82 53.37 193.65 58.50 196.35 C 62.69 198.47 66.11 202.45 67.00 207.14 C 67.76 209.75 67.62 213.01 70.09 214.75 C 71.20 208.78 68.32 202.73 64.86 197.99 C 65.24 197.05 65.63 196.10 66.02 195.16 C 72.28 196.88 78.61 198.72 85.17 198.43 C 83.91 204.44 81.54 210.04 78.61 215.42 C 77.26 220.44 72.88 224.87 67.42 224.63 C 60.74 220.42 54.67 215.17 50.39 208.49 C 49.34 206.82 49.62 204.78 49.40 202.93 C 50.53 202.87 51.66 202.82 52.79 202.79 L 51.93 203.40 C 55.30 209.32 59.46 214.86 64.67 219.28 C 60.82 213.50 56.40 208.11 52.93 202.07 L 52.52 201.47 C 52.08 201.18 51.21 200.60 50.77 200.30 C 49.26 196.76 46.21 194.39 43.77 191.54 C 40.95 191.01 38.18 190.27 35.49 189.27 C 30.95 187.49 27.27 184.03 22.61 182.51 C 19.15 181.33 15.59 180.42 12.06 179.48 C 11.91 178.00 10.45 176.13 11.88 174.94 C 14.23 173.69 16.89 173.09 19.23 171.79 C 23.72 171.35 28.36 173.60 32.65 171.59 Z" />
<path fill="#FFFFFF" opacity="1.00" d=" M 102.15 192.33 C 102.82 192.75 102.82 192.75 102.15 192.33 Z" />
</g>
<g id="#464743ff">
<path fill="#333333" opacity="1.00" d=" M 99.19 72.27 C 103.85 71.24 108.79 70.85 113.46 71.96 C 116.90 72.61 117.31 76.78 118.21 79.55 C 118.60 84.86 119.50 90.47 117.41 95.55 C 118.72 96.83 120.01 98.14 121.27 99.47 C 126.81 99.89 132.37 99.95 137.92 99.87 C 139.18 98.20 139.96 95.84 142.06 95.04 C 144.04 94.61 146.14 94.64 148.13 95.07 C 150.63 95.62 151.19 98.55 152.69 100.26 C 162.39 100.55 172.13 100.51 181.84 100.92 C 183.47 100.74 184.30 102.07 185.00 103.33 L 185.00 105.76 C 184.80 106.43 184.40 107.76 184.21 108.42 C 180.88 109.30 177.41 109.36 174.01 109.01 C 166.98 108.28 159.91 108.32 152.86 108.35 C 151.24 108.22 150.24 109.77 149.00 110.54 C 148.95 109.93 148.86 108.70 148.81 108.08 C 147.75 107.08 145.42 106.66 145.73 104.81 C 145.84 103.44 146.29 102.14 146.64 100.83 C 147.59 100.64 149.51 100.28 150.47 100.10 C 149.38 97.21 146.60 96.42 143.81 96.00 C 138.84 98.34 139.34 104.22 139.56 108.81 C 139.96 109.29 140.76 110.25 141.16 110.73 C 143.44 111.16 145.75 111.54 147.86 112.55 C 145.65 112.94 143.43 113.11 141.19 113.23 C 139.48 111.64 138.14 109.73 137.12 107.63 C 131.59 107.13 126.03 107.20 120.48 107.04 C 120.01 112.31 117.67 117.12 115.96 122.06 C 113.94 126.89 113.34 132.39 109.94 136.56 C 107.04 139.88 103.77 142.85 100.69 146.00 C 100.73 148.51 101.47 151.61 99.19 153.43 C 94.97 157.53 88.56 157.10 83.17 156.39 C 78.09 155.25 72.98 153.93 68.25 151.72 C 65.97 154.82 62.00 156.88 61.31 160.94 C 60.30 167.41 61.94 174.33 66.62 179.08 C 65.75 174.48 65.28 169.68 67.12 165.23 C 67.55 169.23 67.69 173.27 68.68 177.19 C 69.96 182.02 66.24 186.05 64.34 190.14 C 67.56 193.32 72.14 194.01 76.29 195.30 C 80.13 196.02 84.19 196.12 88.01 195.21 C 89.19 192.98 89.89 190.53 91.31 188.44 C 94.01 184.53 94.33 179.59 94.47 175.00 C 94.44 168.31 97.66 162.17 97.98 155.53 C 99.77 156.70 101.55 157.87 103.33 159.04 C 105.28 164.44 102.41 169.85 101.90 175.24 C 104.85 172.70 107.99 170.08 112.07 169.80 C 109.91 172.15 107.00 173.52 104.40 175.27 C 100.12 177.37 99.81 183.21 95.24 185.09 C 94.31 186.71 93.38 188.33 92.44 189.95 C 92.44 191.59 92.42 193.23 92.40 194.87 C 90.74 195.80 89.06 196.70 87.38 197.60 C 86.97 200.96 86.16 204.24 85.28 207.50 C 85.72 207.89 86.59 208.67 87.03 209.05 C 86.18 209.33 85.33 209.60 84.48 209.88 C 83.30 211.79 82.09 213.69 80.84 215.56 C 81.44 217.36 82.15 219.12 82.94 220.85 C 86.84 221.60 90.86 221.35 94.48 219.63 C 98.35 217.79 102.72 217.83 106.56 219.72 C 109.18 219.13 111.80 218.50 114.36 217.67 C 109.02 214.18 104.02 210.10 99.77 205.35 C 98.28 202.00 99.79 198.09 100.94 194.83 C 99.32 195.80 97.66 196.68 95.97 197.48 C 99.18 193.62 102.85 190.03 105.11 185.48 C 105.61 186.13 106.12 186.79 106.63 187.45 C 108.66 183.90 110.31 180.13 111.51 176.22 C 110.08 178.95 108.81 181.77 107.61 184.61 C 107.05 184.85 105.92 185.34 105.36 185.59 C 107.00 181.77 108.47 177.88 109.86 173.97 C 110.30 174.21 111.19 174.67 111.63 174.91 C 114.11 170.24 118.24 165.77 117.68 160.12 C 117.54 157.28 114.73 155.74 112.47 154.63 C 108.09 152.83 104.05 156.71 99.61 156.29 C 102.85 152.86 108.03 151.41 112.59 152.57 C 115.72 153.16 117.52 156.13 118.99 158.68 C 120.47 163.22 118.04 167.83 116.00 171.80 C 112.75 177.17 111.72 183.69 107.65 188.59 C 104.09 192.99 100.21 198.00 100.77 204.01 C 105.36 208.91 110.49 213.68 116.88 216.13 C 115.67 217.82 114.39 219.46 113.06 221.06 C 110.73 221.33 108.43 221.98 106.08 221.88 C 104.03 221.51 102.12 220.60 100.05 220.36 C 96.47 220.50 93.59 223.24 89.99 223.24 C 86.00 223.65 81.48 222.81 79.28 219.11 C 77.53 221.75 75.56 224.40 72.81 226.07 C 70.74 226.73 68.49 226.36 66.35 226.44 C 63.72 224.47 60.81 222.89 58.32 220.74 C 54.22 217.27 51.17 212.79 48.13 208.42 C 41.32 210.47 34.24 211.87 27.09 211.68 C 21.26 211.64 15.15 213.54 9.52 211.31 C 5.70 208.70 3.76 204.16 0.00 201.46 L 0.00 200.14 C 1.78 200.86 3.44 201.86 4.62 203.41 C 7.80 207.38 12.70 210.26 17.92 209.93 C 27.66 209.43 37.42 208.73 46.96 206.58 C 47.03 204.12 47.68 201.62 47.22 199.19 C 46.11 197.33 44.79 195.45 42.95 194.25 C 39.03 192.49 34.60 192.12 30.79 190.07 C 28.46 188.79 26.73 186.47 24.04 185.84 C 20.25 184.60 16.17 184.19 12.62 182.31 C 10.40 180.79 9.56 178.04 8.28 175.80 C 10.80 170.78 16.73 169.38 21.90 169.44 C 24.96 169.60 28.08 171.30 31.08 169.90 C 35.50 168.35 40.95 166.61 45.01 169.94 C 48.15 173.99 46.33 179.45 46.18 184.10 C 51.61 189.11 57.44 193.81 64.25 196.83 C 64.48 194.39 62.97 192.48 61.70 190.60 C 62.72 187.54 64.19 184.66 65.87 181.92 C 63.57 179.92 61.05 177.78 60.69 174.54 C 60.08 170.10 57.56 165.60 59.20 161.12 C 60.01 157.67 62.44 155.04 64.60 152.37 C 66.82 148.34 66.37 143.51 67.80 139.21 C 70.05 131.64 66.77 122.89 71.58 116.06 C 71.70 120.05 70.91 124.02 71.13 128.02 C 70.97 132.52 72.10 137.24 70.19 141.51 C 69.23 144.16 67.88 148.13 71.01 149.84 C 77.11 152.98 84.16 154.23 90.98 154.20 C 94.64 154.43 97.30 151.70 99.71 149.39 C 99.15 148.78 98.58 148.19 98.00 147.60 C 91.35 147.81 88.63 140.42 87.48 135.04 C 86.78 127.06 90.88 119.68 93.92 112.56 C 96.37 120.60 89.03 127.20 89.19 134.93 C 91.23 138.96 93.75 142.77 96.45 146.40 C 101.58 143.36 105.05 138.32 108.91 133.91 C 113.98 126.14 116.27 116.95 118.64 108.08 C 117.81 106.67 116.86 105.32 116.30 103.78 C 116.40 101.89 117.22 100.15 117.74 98.37 C 114.13 97.44 110.41 97.13 106.71 96.74 C 105.05 99.12 103.30 101.44 101.49 103.71 C 103.63 105.54 105.70 107.47 107.42 109.71 C 109.29 109.66 111.15 109.64 113.02 109.69 C 112.69 109.94 112.03 110.42 111.70 110.67 C 110.41 111.30 108.78 111.66 108.24 113.18 C 105.95 117.39 103.75 121.80 100.24 125.13 C 97.52 126.50 94.58 127.38 91.68 128.24 C 93.62 126.20 96.10 124.85 98.51 123.46 C 102.42 120.57 104.78 116.16 106.70 111.81 C 104.77 109.18 102.53 106.82 100.15 104.61 C 92.67 104.42 85.09 104.57 77.72 103.17 C 75.92 105.58 74.71 108.33 73.54 111.08 C 75.72 108.94 77.73 106.63 79.76 104.35 C 79.09 106.33 78.34 108.29 77.55 110.23 C 77.06 110.39 76.09 110.71 75.60 110.87 C 74.95 112.16 74.31 113.45 73.67 114.74 C 73.42 114.07 72.90 112.73 72.64 112.06 C 67.43 115.53 64.73 121.34 63.47 127.28 C 63.02 125.92 61.67 124.64 62.08 123.11 C 63.32 117.72 67.83 114.15 71.12 110.03 C 72.84 107.14 73.95 103.84 76.49 101.51 C 77.35 99.41 78.81 97.70 80.63 96.36 C 79.64 95.68 78.66 94.99 77.68 94.30 C 74.91 94.25 72.14 94.24 69.37 94.30 C 68.91 94.99 67.99 96.38 67.53 97.07 C 67.78 99.83 68.80 102.83 67.48 105.47 C 65.15 110.23 63.44 115.27 61.01 119.98 C 59.75 122.52 57.31 124.93 57.83 127.98 C 58.80 131.18 60.92 133.86 62.35 136.85 C 64.13 136.95 65.91 137.07 67.70 137.22 C 65.29 139.06 60.96 139.76 59.14 136.85 C 57.45 132.72 55.31 127.80 57.69 123.49 C 61.36 117.09 63.04 109.82 66.58 103.36 C 63.03 103.07 59.48 102.92 55.94 102.66 C 52.39 102.56 48.05 101.25 45.67 104.74 C 45.72 103.67 45.76 102.60 45.80 101.53 C 45.03 101.31 43.49 100.86 42.72 100.64 C 42.83 99.42 42.81 98.18 43.11 96.99 C 43.80 95.44 45.67 96.03 46.99 95.83 C 52.67 95.47 58.33 96.38 64.00 96.35 C 66.40 95.70 67.91 93.29 70.19 92.26 C 72.97 92.05 75.79 92.37 78.54 92.83 C 80.86 93.15 81.74 95.61 82.91 97.30 C 84.94 97.29 86.97 97.28 89.00 97.25 C 90.17 94.47 91.90 91.92 92.72 89.01 C 92.89 85.59 91.55 82.04 92.80 78.71 C 94.01 75.89 95.97 72.93 99.19 72.27 M 96.53 76.49 C 93.54 79.61 95.21 84.27 94.94 88.09 C 94.33 91.67 93.03 95.53 89.60 97.35 C 93.99 97.30 98.39 98.15 102.77 97.78 C 103.83 96.86 104.70 95.72 105.83 94.89 C 108.89 94.80 111.93 95.41 114.99 95.36 C 117.77 90.94 116.43 85.53 116.01 80.67 C 115.29 77.90 114.69 73.53 111.08 73.33 C 106.17 73.07 100.22 72.51 96.53 76.49 M 43.84 97.69 C 44.08 98.24 44.55 99.35 44.78 99.90 C 51.77 99.85 58.71 101.09 65.70 100.89 C 65.61 100.32 65.41 99.19 65.32 98.63 C 58.20 97.91 51.00 97.55 43.84 97.69 M 78.72 100.62 C 82.66 102.17 86.94 101.98 91.07 102.48 C 94.44 102.86 97.87 103.04 101.22 102.39 C 101.44 101.79 101.87 100.57 102.09 99.97 C 96.75 98.88 91.29 99.50 85.90 99.13 C 83.39 99.05 80.56 98.32 78.72 100.62 M 118.95 104.85 C 125.19 104.52 131.35 106.23 137.59 105.67 C 137.80 104.54 137.96 103.41 138.07 102.28 C 132.63 102.09 127.19 102.07 121.77 101.51 C 120.02 101.74 115.48 103.47 118.95 104.85 M 148.17 103.16 C 145.69 104.20 148.40 106.15 149.92 105.67 C 160.05 105.82 170.18 105.87 180.31 106.48 C 180.33 105.59 180.36 103.83 180.38 102.95 C 171.26 102.73 162.13 102.61 153.01 102.29 C 151.40 102.45 149.43 101.83 148.17 103.16 M 182.26 103.83 C 181.35 105.00 181.57 105.69 182.94 105.88 C 183.85 104.72 183.63 104.04 182.26 103.83 M 99.68 158.19 C 99.73 163.67 96.74 168.54 96.32 173.94 C 96.03 176.81 95.45 179.65 94.97 182.49 C 100.62 177.17 102.01 169.14 103.54 161.88 C 102.14 160.76 100.88 159.51 99.68 158.19 M 32.65 171.59 C 28.36 173.60 23.72 171.35 19.23 171.79 C 16.89 173.09 14.23 173.69 11.88 174.94 C 10.45 176.13 11.91 178.00 12.06 179.48 C 15.59 180.42 19.15 181.33 22.61 182.51 C 27.27 184.03 30.95 187.49 35.49 189.27 C 38.18 190.27 40.95 191.01 43.77 191.54 C 46.21 194.39 49.26 196.76 50.77 200.30 C 51.21 200.60 52.08 201.18 52.52 201.47 L 52.93 202.07 C 56.40 208.11 60.82 213.50 64.67 219.28 C 59.46 214.86 55.30 209.32 51.93 203.40 L 52.79 202.79 C 51.66 202.82 50.53 202.87 49.40 202.93 C 49.62 204.78 49.34 206.82 50.39 208.49 C 54.67 215.17 60.74 220.42 67.42 224.63 C 72.88 224.87 77.26 220.44 78.61 215.42 C 81.54 210.04 83.91 204.44 85.17 198.43 C 78.61 198.72 72.28 196.88 66.02 195.16 C 65.63 196.10 65.24 197.05 64.86 197.99 C 68.32 202.73 71.20 208.78 70.09 214.75 C 67.62 213.01 67.76 209.75 67.00 207.14 C 66.11 202.45 62.69 198.47 58.50 196.35 C 53.37 193.65 48.82 189.82 45.46 185.09 C 45.11 184.88 44.42 184.45 44.07 184.24 C 44.43 180.26 45.66 176.06 44.25 172.17 C 41.29 168.68 36.28 170.07 32.65 171.59 M 102.15 192.33 C 102.82 192.75 102.82 192.75 102.15 192.33 Z" />
<path fill="#333333" opacity="1.00" d=" M 40.25 89.41 C 43.85 89.30 48.43 90.65 48.54 95.04 C 48.22 94.97 47.59 94.83 47.27 94.76 C 46.02 92.74 44.36 91.07 41.77 91.78 C 38.30 91.51 37.72 95.40 37.04 97.90 C 30.42 96.01 23.25 96.44 16.43 96.89 C 17.42 97.84 18.33 99.41 19.95 99.21 C 25.80 99.14 31.76 100.08 37.50 98.53 C 37.77 99.98 37.66 101.45 37.76 102.92 C 38.95 105.63 42.46 104.65 44.74 105.42 C 41.15 108.51 36.21 105.74 35.18 101.54 C 29.10 101.44 22.97 101.87 16.93 101.15 C 14.53 99.91 15.89 96.78 15.76 94.65 C 22.46 94.26 29.17 94.65 35.88 94.79 C 37.00 92.74 38.48 90.93 40.25 89.41 Z" />
<path fill="#333333" opacity="1.00" d=" M 105.06 102.65 C 107.75 102.33 110.45 102.47 113.12 102.85 C 110.94 105.67 107.67 103.39 105.06 102.65 Z" />
<path fill="#333333" opacity="1.00" d=" M 80.65 110.55 C 82.33 108.34 83.41 105.08 86.50 104.60 C 84.28 109.00 80.88 112.81 79.28 117.51 C 78.11 120.92 79.61 125.56 76.13 127.83 C 76.80 121.92 77.09 115.58 80.65 110.55 Z" />
<path fill="#333333" opacity="1.00" d=" M 88.52 109.45 C 89.23 107.49 91.22 106.67 92.92 105.78 C 91.87 107.54 90.44 109.09 89.58 110.95 C 89.06 113.08 88.88 115.27 88.44 117.42 C 85.93 115.35 87.43 111.89 88.52 109.45 Z" />
<path fill="#333333" opacity="1.00" d=" M 111.03 121.78 C 110.70 117.25 113.20 113.34 116.39 110.38 C 115.33 114.32 112.34 117.53 112.47 121.82 C 112.11 121.81 111.39 121.79 111.03 121.78 Z" />
<path fill="#333333" opacity="1.00" d=" M 94.98 137.38 C 96.45 132.99 99.22 128.82 103.38 126.58 C 100.64 130.21 98.66 134.58 94.98 137.38 Z" />
<path fill="#333333" opacity="1.00" d=" M 74.90 132.50 C 76.16 137.17 76.20 142.21 74.89 146.88 C 74.35 147.16 73.28 147.72 72.74 148.00 C 73.36 142.82 73.39 137.52 74.90 132.50 Z" />
<path fill="#333333" opacity="1.00" d=" M 78.98 137.58 C 82.33 140.34 82.79 144.80 82.60 148.86 C 82.01 149.67 81.33 150.41 80.67 151.17 C 81.32 146.53 80.27 142.00 78.98 137.58 Z" />
<path fill="#333333" opacity="1.00" d=" M 105.42 163.61 C 109.26 163.76 113.25 164.40 116.81 162.47 C 116.34 163.17 115.39 164.58 114.92 165.28 C 111.75 166.07 107.82 166.19 105.42 163.61 Z" />
<path fill="#333333" opacity="1.00" d=" M 93.65 190.09 C 96.26 189.88 98.75 189.17 101.20 188.27 C 100.09 191.80 96.40 191.00 93.65 190.09 Z" />
<path fill="#333333" opacity="1.00" d=" M 29.97 201.44 C 34.53 201.46 38.97 199.90 43.54 200.48 C 41.70 201.93 39.28 201.98 37.05 202.27 C 30.61 202.86 24.12 203.78 17.65 203.08 C 21.67 201.98 25.81 201.47 29.97 201.44 Z" />
<path fill="#333333" opacity="1.00" d=" M 88.36 207.33 C 88.87 207.40 89.91 207.54 90.42 207.60 C 90.18 208.43 89.68 210.09 89.44 210.92 C 91.47 212.40 94.05 214.06 93.58 216.99 C 90.73 214.54 87.19 211.56 88.36 207.33 Z" />
</g>
</svg>
