<?xml version="1.0" encoding="UTF-8" ?>
<!DOCTYPE svg PUBLIC "-//W3C//DTD SVG 1.1//EN" "http://www.w3.org/Graphics/SVG/1.1/DTD/svg11.dtd">
<svg width="275pt" height="175pt" viewBox="0 0 275 175" version="1.1" xmlns="http://www.w3.org/2000/svg">
<g id="#ffffffff">
<path fill="#FFFFFF" opacity="1.00" d=" M 0.00 0.00 L 275.00 0.00 L 275.00 175.00 L 0.00 175.00 L 0.00 0.00 M 152.30 19.08 C 151.57 21.05 149.86 22.13 148.00 22.86 L 149.75 24.19 C 148.56 29.11 148.28 34.28 149.63 39.21 C 147.48 39.29 145.34 39.84 143.18 39.60 C 137.39 38.68 131.20 40.47 126.40 43.70 C 129.98 44.12 133.37 42.93 136.60 41.55 C 139.01 40.47 141.61 41.50 144.05 41.87 C 148.40 39.87 153.78 42.59 157.37 38.73 C 157.93 38.74 159.06 38.75 159.62 38.76 C 165.28 37.19 171.33 38.24 176.98 36.70 C 178.64 36.26 179.07 34.59 179.55 33.15 C 180.24 32.46 180.93 31.77 181.63 31.08 C 176.17 31.68 170.82 30.09 165.76 28.20 C 171.17 27.01 176.34 30.50 181.85 29.47 C 183.40 29.43 184.31 27.42 186.01 28.02 C 188.11 28.40 190.05 29.32 192.04 30.07 L 191.10 31.64 L 193.17 32.91 C 193.25 31.33 193.38 29.76 193.49 28.19 C 189.79 27.27 186.06 26.44 182.25 26.19 C 180.35 27.01 178.43 28.67 176.37 27.05 C 177.11 26.85 178.57 26.46 179.30 26.26 L 177.76 26.18 C 177.95 21.68 177.97 16.65 174.91 13.00 C 173.12 10.61 170.03 10.02 167.34 9.28 C 166.64 9.92 165.95 10.56 165.27 11.21 C 167.23 11.47 169.19 11.68 171.16 11.87 C 176.35 15.67 176.20 22.48 176.42 28.25 C 175.15 27.40 173.91 26.50 172.65 25.64 C 170.50 25.74 168.32 25.83 166.18 26.06 C 164.83 27.00 163.61 28.32 164.84 29.94 C 168.15 31.52 172.23 31.28 175.06 33.89 C 175.58 33.64 176.63 33.14 177.15 32.89 C 177.10 33.44 177.01 34.53 176.96 35.08 C 176.26 34.85 174.86 34.37 174.17 34.13 L 174.63 35.83 C 168.51 36.22 161.90 34.68 156.44 38.31 C 154.02 34.27 155.13 29.40 156.09 25.10 C 157.39 19.26 163.26 16.37 166.57 11.83 C 160.95 12.53 158.11 18.29 156.04 22.92 C 153.63 27.95 154.62 33.60 154.42 38.97 C 153.77 39.08 152.45 39.32 151.80 39.44 C 148.32 29.13 152.78 14.96 163.79 11.37 C 163.97 10.80 164.32 9.67 164.49 9.11 C 159.13 10.35 154.67 14.15 152.30 19.08 M 142.43 20.15 C 141.98 21.77 141.59 23.41 141.29 25.06 C 143.44 25.58 145.59 26.13 147.74 26.69 C 147.50 26.17 147.01 25.11 146.77 24.59 C 145.72 24.34 143.64 23.84 142.60 23.59 C 143.96 23.44 146.68 23.14 148.05 22.99 C 146.28 21.85 144.42 20.86 142.43 20.15 M 213.94 38.42 C 212.92 37.04 212.19 35.48 211.87 33.79 C 209.02 31.92 205.66 30.48 202.19 30.74 C 199.89 31.19 197.61 31.93 195.23 31.61 C 194.57 32.08 193.93 32.55 193.29 33.03 L 196.16 33.48 C 195.42 36.37 192.02 34.40 190.08 34.09 C 187.74 33.75 190.49 31.41 190.79 30.53 C 187.98 30.01 187.02 32.27 186.35 34.39 C 187.43 35.01 188.51 35.63 189.60 36.24 C 182.28 41.28 174.41 45.51 166.28 49.09 C 170.08 49.23 173.46 47.35 176.77 45.77 C 179.18 43.98 181.76 42.43 184.29 40.82 C 184.96 40.81 186.30 40.79 186.97 40.79 C 188.95 39.43 190.92 38.03 192.48 36.19 C 192.82 37.90 193.24 39.59 193.74 41.26 C 190.44 43.83 186.20 43.78 182.28 44.48 C 179.10 46.12 176.44 48.68 173.95 51.23 C 171.53 51.97 169.11 52.75 166.60 53.08 C 166.29 51.33 166.35 49.29 164.89 48.03 C 160.55 43.64 154.05 41.34 147.94 42.12 C 144.93 42.45 143.20 45.09 141.30 47.11 C 141.17 47.85 140.89 49.34 140.76 50.08 C 136.10 48.63 131.75 45.97 126.77 45.73 C 123.90 45.99 121.00 46.82 118.16 45.84 C 113.15 44.32 107.80 47.19 104.62 51.00 C 102.33 52.39 100.20 54.04 97.86 55.34 C 94.66 56.01 91.37 56.67 88.78 58.82 C 86.17 58.51 83.59 58.02 80.96 57.91 C 77.14 57.57 73.79 60.07 69.99 59.95 C 66.96 60.10 64.00 59.31 60.99 59.23 C 58.95 59.80 57.14 61.11 54.99 61.29 C 46.03 62.05 37.44 65.66 30.32 71.09 C 26.50 72.42 24.79 76.37 24.54 80.15 C 25.12 87.78 25.84 95.38 26.13 103.03 C 26.57 110.43 30.30 117.49 29.20 124.99 C 28.16 130.85 22.30 133.47 19.13 137.98 C 16.97 141.39 12.56 142.06 10.09 145.12 C 9.68 146.99 8.09 149.57 10.19 150.93 C 13.09 154.10 17.42 150.90 20.97 151.11 C 24.88 151.51 27.49 148.48 30.45 146.53 C 32.70 144.93 35.54 144.77 38.13 144.08 C 35.52 147.10 33.19 151.03 29.00 152.00 C 25.99 152.77 23.55 154.76 20.85 156.19 C 20.23 157.36 19.63 158.54 19.04 159.73 C 23.37 162.29 27.56 165.95 32.93 165.63 C 35.38 164.87 37.81 164.05 40.26 163.30 C 44.37 162.05 47.84 159.19 52.13 158.48 C 55.17 157.91 58.21 157.37 61.25 156.84 C 62.72 155.14 64.33 153.24 64.25 150.85 C 64.70 145.10 60.72 140.39 59.42 135.04 C 58.30 128.75 57.67 122.34 58.47 115.97 C 58.99 108.49 54.32 101.76 55.20 94.31 L 55.87 93.84 L 55.26 96.03 C 58.07 94.96 60.92 93.51 64.02 93.99 C 68.74 94.42 73.40 93.31 77.81 91.71 C 77.70 92.13 77.48 92.98 77.37 93.41 C 80.22 92.22 83.08 90.99 86.11 90.33 C 89.78 89.77 93.60 90.53 97.18 89.34 C 100.13 88.69 102.34 86.55 104.63 84.74 C 104.74 84.18 104.98 83.05 105.09 82.48 C 106.83 82.24 108.50 81.72 109.61 80.26 C 113.14 78.91 117.04 77.62 120.82 78.76 C 123.79 79.67 126.85 80.30 129.98 80.09 C 135.33 80.24 140.32 77.55 145.63 77.49 C 149.50 78.44 153.59 77.92 157.14 76.14 C 159.73 74.68 160.79 71.13 163.91 70.54 C 166.78 69.85 169.88 69.90 172.53 68.46 C 176.43 66.15 181.07 65.59 184.64 62.66 C 194.71 58.37 201.53 49.50 209.98 42.96 C 209.29 42.55 208.60 42.16 207.91 41.77 C 205.22 43.86 202.93 38.91 199.80 39.73 C 201.51 41.16 203.29 42.50 205.03 43.89 C 202.71 46.66 200.00 49.07 197.51 51.67 C 197.65 51.11 197.95 49.98 198.10 49.41 C 199.70 48.10 201.37 46.75 202.18 44.76 C 199.70 46.29 197.55 48.25 195.39 50.18 C 196.06 50.74 196.74 51.29 197.40 51.87 C 192.70 56.37 186.66 58.95 181.33 62.57 C 181.50 61.22 181.84 58.54 182.01 57.20 C 180.67 59.01 179.51 60.94 178.19 62.77 C 178.86 62.90 180.20 63.18 180.87 63.32 C 178.28 64.18 175.53 64.68 173.17 66.13 C 169.85 68.18 165.83 68.45 162.08 69.09 C 156.52 68.28 151.09 66.71 145.47 66.28 C 148.86 63.85 152.76 62.44 156.76 61.37 C 155.38 60.35 153.89 59.48 152.44 58.57 C 157.12 55.65 162.68 54.48 168.11 53.95 C 167.94 54.58 167.59 55.83 167.41 56.46 C 169.26 55.38 171.08 54.26 172.96 53.23 C 175.46 54.00 176.35 50.99 177.72 49.56 C 179.15 48.53 180.53 47.42 182.08 46.57 C 184.72 45.67 187.57 45.87 190.27 45.27 C 193.47 43.99 195.69 41.20 198.26 39.03 C 197.41 39.15 195.70 39.38 194.85 39.50 C 194.86 38.52 194.88 36.56 194.89 35.58 C 195.49 35.53 196.69 35.41 197.29 35.36 C 199.33 33.29 202.05 32.34 204.93 32.26 C 207.15 33.18 209.42 34.11 211.23 35.76 C 209.04 35.77 206.14 32.78 204.44 35.37 C 207.65 37.54 212.44 37.68 214.53 41.21 C 210.47 40.73 207.01 37.18 202.86 38.06 C 205.60 40.79 209.71 41.07 212.83 43.24 C 211.93 49.05 212.19 55.95 216.90 60.15 C 220.60 62.78 225.34 64.35 229.89 63.46 C 236.91 62.22 242.69 56.57 244.93 49.92 C 247.99 50.56 251.10 51.45 254.23 50.72 C 254.22 49.33 254.21 47.95 254.21 46.56 C 251.66 45.61 249.04 44.89 246.39 44.29 C 248.09 39.87 247.37 34.81 245.26 30.67 C 242.07 25.45 235.58 23.91 229.88 24.39 C 222.50 25.97 217.33 32.05 213.94 38.42 M 192.67 46.43 C 195.70 45.70 197.98 43.47 199.43 40.80 C 196.68 42.00 194.53 44.13 192.67 46.43 M 179.53 53.67 C 181.61 55.25 184.13 54.61 186.23 53.41 C 183.99 53.26 181.75 53.37 179.53 53.67 M 168.32 57.74 C 168.29 58.03 168.22 58.60 168.19 58.89 C 170.43 59.00 172.66 59.03 174.90 59.03 C 174.87 58.61 174.79 57.77 174.75 57.34 C 172.61 57.56 170.47 57.71 168.32 57.74 M 138.93 83.09 C 115.11 89.63 91.09 95.54 67.75 103.66 C 63.28 105.52 59.93 100.93 55.80 100.20 C 57.16 102.45 59.43 103.87 61.78 104.90 C 67.34 108.14 73.12 103.59 78.64 102.53 C 78.89 110.70 78.74 118.89 79.60 127.03 C 79.70 128.22 80.17 129.26 81.02 130.16 C 81.52 120.80 81.01 111.42 80.31 102.09 C 97.44 96.24 115.22 92.35 132.70 87.54 C 133.00 92.51 132.69 97.50 133.11 102.46 C 133.60 102.73 134.57 103.28 135.06 103.55 C 135.23 98.10 134.81 92.65 134.31 87.23 C 136.71 86.39 139.17 85.75 141.65 85.18 C 141.75 87.86 141.85 90.54 142.03 93.22 C 143.90 90.78 143.87 87.66 143.59 84.76 C 149.03 83.04 155.02 82.72 160.00 79.75 C 161.41 79.13 161.79 77.59 162.32 76.30 C 155.48 81.22 146.70 80.76 138.93 83.09 M 142.70 94.37 C 142.91 96.02 142.30 98.78 143.68 99.80 C 144.17 97.77 144.27 95.32 143.67 93.30 C 143.43 93.57 142.94 94.10 142.70 94.37 M 87.79 104.06 C 88.17 108.41 87.40 113.31 89.91 117.15 C 90.21 111.49 90.56 105.63 88.78 100.15 C 86.96 100.51 87.93 102.76 87.79 104.06 Z" />
<path fill="#FFFFFF" opacity="1.00" d=" M 217.28 37.10 C 219.94 31.15 225.78 27.58 231.74 25.59 C 234.95 26.99 239.11 26.49 241.52 29.42 C 245.57 33.25 245.02 39.25 245.56 44.32 C 241.65 43.60 237.86 42.24 233.89 41.85 C 232.54 42.87 230.66 44.43 231.50 46.33 C 235.58 48.02 240.02 48.63 244.34 49.44 C 240.33 53.09 238.08 58.91 232.43 60.49 C 227.98 62.58 222.94 61.33 218.85 59.08 C 212.60 53.66 213.86 43.78 217.28 37.10 M 220.27 38.34 C 217.82 43.85 216.34 50.69 219.52 56.23 C 217.18 50.17 220.21 43.89 222.38 38.23 C 224.20 33.57 229.05 31.51 232.67 28.54 C 232.72 28.15 232.81 27.37 232.85 26.99 C 227.15 28.24 223.38 33.74 220.27 38.34 Z" />
<path fill="#FFFFFF" opacity="1.00" d=" M 142.80 47.91 C 144.54 46.45 145.92 44.52 147.96 43.46 C 150.58 43.06 153.18 43.86 155.76 44.21 C 155.68 44.47 155.53 44.97 155.45 45.22 C 159.61 45.32 163.91 48.16 164.54 52.48 C 159.43 54.24 153.43 54.63 149.49 58.75 C 146.20 59.18 143.07 60.32 140.28 62.12 C 140.22 63.35 140.17 64.58 140.12 65.81 C 138.09 65.44 136.06 65.17 134.04 64.77 C 133.68 63.97 133.32 63.18 132.96 62.39 C 133.76 61.80 134.35 61.07 134.75 60.18 C 132.27 60.60 130.77 63.14 128.38 63.93 L 128.01 62.20 C 126.43 61.94 124.85 61.66 123.27 61.37 C 123.49 61.76 123.92 62.53 124.13 62.92 C 125.33 63.23 126.53 63.54 127.74 63.83 C 127.47 65.97 128.30 67.88 129.67 69.48 C 128.73 70.26 127.79 71.05 126.85 71.83 C 123.84 72.21 120.93 73.10 118.09 74.16 C 118.32 74.76 118.78 75.97 119.01 76.58 C 115.11 76.88 111.24 77.73 107.70 79.44 C 109.02 75.16 107.10 70.88 104.90 67.28 C 107.57 67.78 110.27 68.22 113.00 67.95 C 110.32 66.42 107.22 66.03 104.23 65.61 C 104.38 66.15 104.69 67.22 104.84 67.76 C 102.09 62.85 96.22 61.51 91.64 58.93 C 92.90 58.27 94.17 57.62 95.41 56.94 C 95.37 57.42 95.27 58.37 95.23 58.85 C 97.09 58.79 98.76 57.74 100.54 57.27 C 100.57 56.80 100.63 55.87 100.66 55.41 C 106.01 51.82 110.97 45.50 118.20 47.33 C 118.18 48.24 118.16 50.05 118.15 50.95 C 119.14 51.53 120.17 52.06 121.23 52.54 C 121.17 54.67 120.43 56.68 119.74 58.67 C 118.05 59.93 116.63 61.51 115.89 63.52 C 117.75 62.54 119.63 61.48 121.16 60.01 C 122.29 58.41 121.93 56.27 122.22 54.43 C 122.64 54.44 123.47 54.46 123.89 54.47 C 122.45 52.25 120.72 50.25 119.01 48.24 C 122.38 48.19 125.80 46.48 129.12 47.68 C 131.18 48.23 133.14 49.09 135.16 49.77 C 138.00 50.59 141.16 50.61 143.68 52.32 C 145.71 53.51 147.38 55.36 149.70 56.00 C 150.91 52.93 146.35 52.02 144.50 50.50 C 143.94 49.62 143.35 48.77 142.80 47.91 M 148.54 45.61 C 148.78 48.01 148.56 50.70 150.32 52.60 C 150.64 50.09 150.61 47.41 148.54 45.61 M 109.75 55.24 C 107.15 56.96 104.31 55.59 101.54 55.25 C 102.63 56.06 103.79 56.79 104.94 57.54 C 107.29 56.68 109.67 55.91 112.01 55.02 C 112.44 53.40 112.86 51.77 113.23 50.13 C 111.82 51.65 110.72 53.42 109.75 55.24 M 125.04 51.52 C 126.14 54.54 129.19 54.82 132.00 54.99 C 131.31 54.40 130.63 53.81 129.94 53.22 C 128.29 52.70 126.67 52.10 125.04 51.52 M 133.04 52.69 C 134.40 54.59 134.48 56.98 135.01 59.05 C 136.52 58.67 137.00 57.40 136.45 55.23 C 138.51 56.25 140.52 57.39 142.65 58.27 C 141.47 56.28 139.41 55.23 137.49 54.12 C 137.01 54.50 136.53 54.88 136.05 55.26 C 135.05 54.40 134.05 53.54 133.04 52.69 M 107.28 57.71 C 108.93 58.91 110.55 60.15 112.20 61.34 C 112.59 61.11 113.37 60.65 113.76 60.42 C 112.12 58.41 109.91 57.41 107.28 57.71 M 126.28 57.82 C 126.49 58.42 126.92 59.64 127.14 60.24 C 128.53 60.45 129.92 60.64 131.33 60.77 C 129.70 59.70 127.98 58.76 126.28 57.82 M 107.77 64.16 C 110.44 65.47 113.27 66.52 116.24 66.82 C 114.22 64.21 110.79 64.16 107.77 64.16 M 120.66 63.53 C 121.73 66.01 123.88 67.58 126.69 67.18 C 124.97 65.54 122.86 64.40 120.66 63.53 M 117.36 66.35 C 116.69 67.85 118.54 70.19 120.17 69.60 C 120.87 68.20 118.83 65.90 117.36 66.35 Z" />
<path fill="#FFFFFF" opacity="1.00" d=" M 232.63 44.08 C 237.20 43.91 241.56 45.43 246.01 46.21 C 248.10 46.70 250.32 46.95 252.16 48.14 C 250.36 49.62 248.03 48.18 246.05 47.97 C 241.61 46.60 236.58 46.78 232.63 44.08 Z" />
<path fill="#FFFFFF" opacity="1.00" d=" M 74.12 61.09 C 82.95 58.17 92.69 60.83 100.52 65.32 C 103.69 68.35 105.79 72.68 106.13 77.05 C 104.45 82.27 100.08 88.03 93.98 87.71 C 88.84 87.47 84.02 89.38 79.33 91.20 C 81.18 82.98 76.68 74.69 70.79 69.20 C 68.48 66.72 65.08 68.73 62.39 69.34 C 56.64 71.60 50.29 73.25 45.76 77.71 C 43.86 79.58 41.28 80.57 39.35 82.41 C 37.12 85.43 35.89 89.40 37.16 93.08 C 38.77 97.65 38.06 102.63 39.71 107.19 C 41.53 112.30 41.41 117.83 42.95 123.02 C 43.83 127.26 45.69 131.74 44.03 136.03 C 43.43 138.51 41.48 140.25 39.96 142.17 C 36.65 142.57 33.10 142.51 30.12 144.23 C 26.73 146.00 24.15 149.60 19.94 149.30 C 16.78 149.27 12.85 152.45 10.37 149.40 C 11.78 148.33 13.33 147.47 14.75 146.43 C 13.65 146.53 11.44 146.75 10.33 146.85 C 11.91 145.11 13.73 143.58 15.99 142.82 C 19.07 141.84 20.37 138.64 22.51 136.50 C 25.01 133.67 29.15 132.05 30.04 128.03 C 32.46 119.68 29.08 111.19 27.16 103.11 C 26.58 96.79 27.29 90.39 27.06 84.07 C 25.91 80.84 25.85 77.00 28.33 74.35 C 37.59 68.21 48.13 61.73 59.73 63.29 C 61.05 64.92 61.22 67.13 62.08 68.99 C 63.89 67.56 62.89 65.22 62.73 63.33 L 63.70 62.77 C 63.23 62.32 62.29 61.42 61.82 60.97 C 66.07 61.47 70.51 61.02 74.58 62.54 C 72.90 63.78 71.97 65.64 71.18 67.52 C 74.06 67.67 76.94 67.77 79.82 67.60 C 79.94 67.97 80.16 68.72 80.27 69.10 C 84.24 68.39 89.03 71.19 88.35 75.66 L 88.66 75.67 C 89.18 74.60 89.69 73.52 90.19 72.45 C 89.51 71.02 89.08 69.26 87.58 68.45 C 85.29 67.07 82.35 67.55 80.15 65.99 C 77.89 65.97 75.64 66.00 73.39 65.98 C 74.89 64.85 76.52 63.88 78.03 62.75 C 76.70 62.26 75.38 61.75 74.12 61.09 M 79.48 63.14 C 83.52 65.48 87.99 67.06 92.44 68.43 C 89.66 64.15 84.06 63.80 79.48 63.14 M 41.11 78.40 C 41.25 78.03 41.53 77.29 41.67 76.91 C 38.40 77.36 35.94 75.57 34.43 72.81 C 33.35 76.88 37.71 78.88 41.11 78.40 M 30.48 83.23 C 30.40 83.85 30.23 85.09 30.15 85.71 L 31.37 85.22 C 31.07 87.11 30.94 89.01 30.99 90.93 C 32.06 88.96 32.78 86.82 33.60 84.74 L 32.32 85.09 C 33.21 82.88 32.45 80.53 30.70 79.03 C 28.73 79.77 30.41 81.86 30.48 83.23 M 40.41 128.19 C 41.76 132.90 37.94 136.57 35.91 140.39 C 39.96 138.47 42.74 133.77 42.06 129.30 C 41.65 129.02 40.82 128.47 40.41 128.19 M 25.99 140.94 C 28.59 139.05 30.93 136.82 32.88 134.27 C 29.76 135.48 27.48 138.00 25.99 140.94 Z" />
<path fill="#FFFFFF" opacity="1.00" d=" M 141.73 62.71 C 144.46 61.62 147.31 60.93 150.24 60.71 C 147.60 62.37 145.22 64.49 145.02 67.81 C 150.29 67.97 155.20 70.07 160.39 70.73 C 157.17 74.68 152.05 76.86 146.97 75.90 C 141.46 74.72 136.44 78.20 130.98 78.04 C 126.88 78.37 123.08 76.40 119.00 76.46 L 119.15 75.30 C 121.74 74.85 124.41 74.67 126.93 73.87 C 129.51 71.48 132.88 69.95 135.06 67.15 C 137.67 66.36 140.34 65.83 143.01 65.27 C 142.58 64.42 142.14 63.57 141.73 62.71 Z" />
<path fill="#FFFFFF" opacity="1.00" d=" M 129.30 64.73 C 129.82 64.43 130.87 63.82 131.39 63.52 C 132.16 65.05 133.35 66.28 134.46 67.56 C 132.28 67.65 129.21 67.85 129.30 64.73 Z" />
<path fill="#FFFFFF" opacity="1.00" d=" M 52.08 75.11 C 57.78 72.85 63.34 69.39 69.72 69.93 C 74.58 75.14 79.47 82.31 77.74 89.74 C 72.41 92.72 66.00 93.40 60.03 92.41 C 57.37 91.77 54.89 93.04 52.48 93.98 C 53.62 101.38 57.40 108.32 56.96 115.95 C 56.36 125.08 57.00 134.60 60.82 143.03 C 61.89 146.56 64.46 151.22 61.33 154.35 C 55.93 156.77 49.57 156.32 44.38 159.40 C 40.56 161.70 36.21 162.74 31.91 163.74 C 28.83 163.49 25.63 162.66 23.89 159.87 C 23.07 159.85 21.43 159.82 20.60 159.80 C 22.56 155.08 28.42 154.39 32.59 152.50 C 35.89 150.45 37.90 146.98 40.22 143.96 C 42.75 140.74 47.90 138.37 46.41 133.41 C 45.54 125.83 43.07 118.52 42.60 110.88 C 42.49 107.04 39.83 103.78 40.15 99.90 C 40.51 95.96 38.74 92.30 38.13 88.48 C 39.56 86.14 40.19 83.01 42.89 81.75 C 46.30 80.00 48.46 76.51 52.08 75.11 M 57.67 83.16 C 62.93 82.24 66.65 77.94 71.09 75.31 C 65.87 76.29 61.28 79.33 57.67 83.16 M 47.71 82.39 C 48.26 84.36 50.05 85.08 51.91 85.35 C 52.15 84.97 52.63 84.22 52.87 83.84 C 51.13 83.40 49.44 82.83 47.71 82.39 M 42.52 94.47 C 44.60 92.95 45.30 90.63 45.23 88.13 C 45.84 87.12 46.44 86.10 47.00 85.06 C 42.62 86.05 43.26 91.03 42.52 94.47 M 45.29 103.28 C 45.86 103.83 45.86 103.83 45.29 103.28 M 49.69 109.44 C 50.83 114.80 51.09 120.51 53.82 125.39 C 53.43 117.96 50.47 110.89 50.27 103.39 C 49.75 105.35 49.26 107.41 49.69 109.44 M 46.55 105.40 C 46.24 111.72 47.20 118.09 49.21 124.08 C 48.77 119.05 47.83 114.06 47.76 109.00 C 47.88 107.66 47.07 106.55 46.55 105.40 M 55.98 144.93 C 55.64 145.52 54.97 146.70 54.64 147.29 C 53.41 147.97 52.24 148.76 51.51 150.00 C 53.65 149.49 58.74 147.63 55.98 144.93 M 41.58 154.29 C 43.77 152.26 45.53 149.79 46.71 147.04 C 44.25 148.80 42.20 151.26 41.58 154.29 M 26.50 157.09 C 28.95 158.53 31.58 159.81 34.49 159.90 C 32.84 157.22 29.45 156.14 26.50 157.09 Z" />
</g>
<g id="#50524dff">
<path fill="#333333" opacity="1.00" d=" M 152.30 19.08 C 154.67 14.15 159.13 10.35 164.49 9.11 C 164.32 9.67 163.97 10.80 163.79 11.37 C 152.78 14.96 148.32 29.13 151.80 39.44 C 152.45 39.32 153.77 39.08 154.42 38.97 C 154.62 33.60 153.63 27.95 156.04 22.92 C 158.11 18.29 160.95 12.53 166.57 11.83 C 163.26 16.37 157.39 19.26 156.09 25.10 C 155.13 29.40 154.02 34.27 156.44 38.31 C 161.90 34.68 168.51 36.22 174.63 35.83 L 174.17 34.13 C 174.86 34.37 176.26 34.85 176.96 35.08 C 177.01 34.53 177.10 33.44 177.15 32.89 C 176.63 33.14 175.58 33.64 175.06 33.89 C 172.23 31.28 168.15 31.52 164.84 29.94 C 163.61 28.32 164.83 27.00 166.18 26.06 C 168.32 25.83 170.50 25.74 172.65 25.64 C 173.91 26.50 175.15 27.40 176.42 28.25 C 176.20 22.48 176.35 15.67 171.16 11.87 C 169.19 11.68 167.23 11.47 165.27 11.21 C 165.95 10.56 166.64 9.92 167.34 9.28 C 170.03 10.02 173.12 10.61 174.91 13.00 C 177.97 16.65 177.95 21.68 177.76 26.18 L 179.30 26.26 C 178.57 26.46 177.11 26.85 176.37 27.05 C 178.43 28.67 180.35 27.01 182.25 26.19 C 186.06 26.44 189.79 27.27 193.49 28.19 C 193.38 29.76 193.25 31.33 193.17 32.91 L 191.10 31.64 L 192.04 30.07 C 190.05 29.32 188.11 28.40 186.01 28.02 C 184.31 27.42 183.40 29.43 181.85 29.47 C 176.34 30.50 171.17 27.01 165.76 28.20 C 170.82 30.09 176.17 31.68 181.63 31.08 C 180.93 31.77 180.24 32.46 179.55 33.15 C 179.07 34.59 178.64 36.26 176.98 36.70 C 171.33 38.24 165.28 37.19 159.62 38.76 C 159.06 38.75 157.93 38.74 157.37 38.73 C 153.78 42.59 148.40 39.87 144.05 41.87 C 141.61 41.50 139.01 40.47 136.60 41.55 C 133.37 42.93 129.98 44.12 126.40 43.70 C 131.20 40.47 137.39 38.68 143.18 39.60 C 145.34 39.84 147.48 39.29 149.63 39.21 C 148.28 34.28 148.56 29.11 149.75 24.19 L 148.00 22.86 C 149.86 22.13 151.57 21.05 152.30 19.08 Z" />
<path fill="#333333" opacity="1.00" d=" M 142.43 20.15 C 144.42 20.86 146.28 21.85 148.05 22.99 C 146.68 23.14 143.96 23.44 142.60 23.59 C 143.64 23.84 145.72 24.34 146.77 24.59 C 147.01 25.11 147.50 26.17 147.74 26.69 C 145.59 26.13 143.44 25.58 141.29 25.06 C 141.59 23.41 141.98 21.77 142.43 20.15 Z" />
<path fill="#333333" opacity="1.00" d=" M 213.94 38.42 C 217.33 32.05 222.50 25.97 229.88 24.39 C 235.58 23.91 242.07 25.45 245.26 30.67 C 247.37 34.81 248.09 39.87 246.39 44.29 C 249.04 44.89 251.66 45.61 254.21 46.56 C 254.21 47.95 254.22 49.33 254.23 50.72 C 251.10 51.45 247.99 50.56 244.93 49.92 C 242.69 56.57 236.91 62.22 229.89 63.46 C 225.34 64.35 220.60 62.78 216.90 60.15 C 212.19 55.95 211.93 49.05 212.83 43.24 C 209.71 41.07 205.60 40.79 202.86 38.06 C 207.01 37.18 210.47 40.73 214.53 41.21 C 212.44 37.68 207.65 37.54 204.44 35.37 C 206.14 32.78 209.04 35.77 211.23 35.76 C 209.42 34.11 207.15 33.18 204.93 32.26 C 202.05 32.34 199.33 33.29 197.29 35.36 C 196.69 35.41 195.49 35.53 194.89 35.58 C 194.88 36.56 194.86 38.52 194.85 39.50 C 195.70 39.38 197.41 39.15 198.26 39.03 C 195.69 41.20 193.47 43.99 190.27 45.27 C 187.57 45.87 184.72 45.67 182.08 46.57 C 180.53 47.42 179.15 48.53 177.72 49.56 C 176.35 50.99 175.46 54.00 172.96 53.23 C 171.08 54.26 169.26 55.38 167.41 56.46 C 167.59 55.83 167.94 54.58 168.11 53.95 C 162.68 54.48 157.12 55.65 152.44 58.57 C 153.89 59.48 155.38 60.35 156.76 61.37 C 152.76 62.44 148.86 63.85 145.47 66.28 C 151.09 66.71 156.52 68.28 162.08 69.09 C 165.83 68.45 169.85 68.18 173.17 66.13 C 175.53 64.68 178.28 64.18 180.87 63.32 C 180.20 63.18 178.86 62.90 178.19 62.77 C 179.51 60.94 180.67 59.01 182.01 57.20 C 181.84 58.54 181.50 61.22 181.33 62.57 C 186.66 58.95 192.70 56.37 197.40 51.87 C 196.74 51.29 196.06 50.74 195.39 50.18 C 197.55 48.25 199.70 46.29 202.18 44.76 C 201.37 46.75 199.70 48.10 198.10 49.41 C 197.95 49.98 197.65 51.11 197.51 51.67 C 200.00 49.07 202.71 46.66 205.03 43.89 C 203.29 42.50 201.51 41.16 199.80 39.73 C 202.93 38.91 205.22 43.86 207.91 41.77 C 208.60 42.16 209.29 42.55 209.98 42.96 C 201.53 49.50 194.71 58.37 184.64 62.66 C 181.07 65.59 176.43 66.15 172.53 68.46 C 169.88 69.90 166.78 69.85 163.91 70.54 C 160.79 71.13 159.73 74.68 157.14 76.14 C 153.59 77.92 149.50 78.44 145.63 77.49 C 140.32 77.55 135.33 80.24 129.98 80.09 C 126.85 80.30 123.79 79.67 120.82 78.76 C 117.04 77.62 113.14 78.91 109.61 80.26 C 108.50 81.72 106.83 82.24 105.09 82.48 C 104.98 83.05 104.74 84.18 104.63 84.74 C 102.34 86.55 100.13 88.69 97.18 89.34 C 93.60 90.53 89.78 89.77 86.11 90.33 C 83.08 90.99 80.22 92.22 77.37 93.41 C 77.48 92.98 77.70 92.13 77.81 91.71 C 73.40 93.31 68.74 94.42 64.02 93.99 C 60.92 93.51 58.07 94.96 55.26 96.03 L 55.87 93.84 L 55.20 94.31 C 54.32 101.76 58.99 108.49 58.47 115.97 C 57.67 122.34 58.30 128.75 59.42 135.04 C 60.72 140.39 64.70 145.10 64.25 150.85 C 64.33 153.24 62.72 155.14 61.25 156.84 C 58.21 157.37 55.17 157.91 52.13 158.48 C 47.84 159.19 44.37 162.05 40.26 163.30 C 37.81 164.05 35.38 164.87 32.93 165.63 C 27.56 165.95 23.37 162.29 19.04 159.73 C 19.63 158.54 20.23 157.36 20.85 156.19 C 23.55 154.76 25.99 152.77 29.00 152.00 C 33.19 151.03 35.52 147.10 38.13 144.08 C 35.54 144.77 32.70 144.93 30.45 146.53 C 27.49 148.48 24.88 151.51 20.97 151.11 C 17.42 150.90 13.09 154.10 10.19 150.93 C 8.09 149.57 9.68 146.99 10.09 145.12 C 12.56 142.06 16.97 141.39 19.13 137.98 C 22.30 133.47 28.16 130.85 29.20 124.99 C 30.30 117.49 26.57 110.43 26.13 103.03 C 25.84 95.38 25.12 87.78 24.54 80.15 C 24.79 76.37 26.50 72.42 30.32 71.09 C 37.44 65.66 46.03 62.05 54.99 61.29 C 57.14 61.11 58.95 59.80 60.99 59.23 C 64.00 59.31 66.96 60.10 69.99 59.95 C 73.79 60.07 77.14 57.57 80.96 57.91 C 83.59 58.02 86.17 58.51 88.78 58.82 C 91.37 56.67 94.66 56.01 97.86 55.34 C 100.20 54.04 102.33 52.39 104.62 51.00 C 107.80 47.19 113.15 44.32 118.16 45.84 C 121.00 46.82 123.90 45.99 126.77 45.73 C 131.75 45.97 136.10 48.63 140.76 50.08 C 140.89 49.34 141.17 47.85 141.30 47.11 C 143.20 45.09 144.93 42.45 147.94 42.12 C 154.05 41.34 160.55 43.64 164.89 48.03 C 166.35 49.29 166.29 51.33 166.60 53.08 C 169.11 52.75 171.53 51.97 173.95 51.23 C 176.44 48.68 179.10 46.12 182.28 44.48 C 186.20 43.78 190.44 43.83 193.74 41.26 C 193.24 39.59 192.82 37.90 192.48 36.19 C 190.92 38.03 188.95 39.43 186.97 40.79 C 186.30 40.79 184.96 40.81 184.29 40.82 C 181.76 42.43 179.18 43.98 176.77 45.77 C 173.46 47.35 170.08 49.23 166.28 49.09 C 174.41 45.51 182.28 41.28 189.60 36.24 C 188.51 35.63 187.43 35.01 186.35 34.39 C 187.02 32.27 187.98 30.01 190.79 30.53 C 190.49 31.41 187.74 33.75 190.08 34.09 C 192.02 34.40 195.42 36.37 196.16 33.48 L 193.29 33.03 C 193.93 32.55 194.57 32.08 195.23 31.61 C 197.61 31.93 199.89 31.19 202.19 30.74 C 205.66 30.48 209.02 31.92 211.87 33.79 C 212.19 35.48 212.92 37.04 213.94 38.42 M 217.28 37.10 C 213.86 43.78 212.60 53.66 218.85 59.08 C 222.94 61.33 227.98 62.58 232.43 60.49 C 238.08 58.91 240.33 53.09 244.34 49.44 C 240.02 48.63 235.58 48.02 231.50 46.33 C 230.66 44.43 232.54 42.87 233.89 41.85 C 237.86 42.24 241.65 43.60 245.56 44.32 C 245.02 39.25 245.57 33.25 241.52 29.42 C 239.11 26.49 234.95 26.99 231.74 25.59 C 225.78 27.58 219.94 31.15 217.28 37.10 M 142.80 47.91 C 143.35 48.77 143.94 49.62 144.50 50.50 C 146.35 52.02 150.91 52.93 149.70 56.00 C 147.38 55.36 145.71 53.51 143.68 52.32 C 141.16 50.61 138.00 50.59 135.16 49.77 C 133.14 49.09 131.18 48.23 129.12 47.68 C 125.80 46.48 122.38 48.19 119.01 48.24 C 120.72 50.25 122.45 52.25 123.89 54.47 C 123.47 54.46 122.64 54.44 122.22 54.43 C 121.93 56.27 122.29 58.41 121.16 60.01 C 119.63 61.48 117.75 62.54 115.89 63.52 C 116.63 61.51 118.05 59.93 119.74 58.67 C 120.43 56.68 121.17 54.67 121.23 52.54 C 120.17 52.06 119.14 51.53 118.15 50.95 C 118.16 50.05 118.18 48.24 118.20 47.33 C 110.97 45.50 106.01 51.82 100.66 55.41 C 100.63 55.87 100.57 56.80 100.54 57.27 C 98.76 57.74 97.09 58.79 95.23 58.85 C 95.27 58.37 95.37 57.42 95.41 56.94 C 94.17 57.62 92.90 58.27 91.64 58.93 C 96.22 61.51 102.09 62.85 104.84 67.76 C 104.69 67.22 104.38 66.15 104.23 65.61 C 107.22 66.03 110.32 66.42 113.00 67.95 C 110.27 68.22 107.57 67.78 104.90 67.28 C 107.10 70.88 109.02 75.16 107.70 79.44 C 111.24 77.73 115.11 76.88 119.01 76.58 C 118.78 75.97 118.32 74.76 118.09 74.16 C 120.93 73.10 123.84 72.21 126.85 71.83 C 127.79 71.05 128.73 70.26 129.67 69.48 C 128.30 67.88 127.47 65.97 127.74 63.83 C 126.53 63.54 125.33 63.23 124.13 62.92 C 123.92 62.53 123.49 61.76 123.27 61.37 C 124.85 61.66 126.43 61.94 128.01 62.20 L 128.38 63.93 C 130.77 63.14 132.27 60.60 134.75 60.18 C 134.35 61.07 133.76 61.80 132.96 62.39 C 133.32 63.18 133.68 63.97 134.04 64.77 C 136.06 65.17 138.09 65.44 140.12 65.81 C 140.17 64.58 140.22 63.35 140.28 62.12 C 143.07 60.32 146.20 59.18 149.49 58.75 C 153.43 54.63 159.43 54.24 164.54 52.48 C 163.91 48.16 159.61 45.32 155.45 45.22 C 155.53 44.97 155.68 44.47 155.76 44.21 C 153.18 43.86 150.58 43.06 147.96 43.46 C 145.92 44.52 144.54 46.45 142.80 47.91 M 232.63 44.08 C 236.58 46.78 241.61 46.60 246.05 47.97 C 248.03 48.18 250.36 49.62 252.16 48.14 C 250.32 46.95 248.10 46.70 246.01 46.21 C 241.56 45.43 237.20 43.91 232.63 44.08 M 74.12 61.09 C 75.38 61.75 76.70 62.26 78.03 62.75 C 76.52 63.88 74.89 64.85 73.39 65.98 C 75.64 66.00 77.89 65.97 80.15 65.99 C 82.35 67.55 85.29 67.07 87.58 68.45 C 89.08 69.26 89.51 71.02 90.19 72.45 C 89.69 73.52 89.18 74.60 88.66 75.67 L 88.35 75.66 C 89.03 71.19 84.24 68.39 80.27 69.10 C 80.16 68.72 79.94 67.97 79.82 67.60 C 76.94 67.77 74.06 67.67 71.18 67.52 C 71.97 65.64 72.90 63.78 74.58 62.54 C 70.51 61.02 66.07 61.47 61.82 60.97 C 62.29 61.42 63.23 62.32 63.70 62.77 L 62.73 63.33 C 62.89 65.22 63.89 67.56 62.08 68.99 C 61.22 67.13 61.05 64.92 59.73 63.29 C 48.13 61.73 37.59 68.21 28.33 74.35 C 25.85 77.00 25.91 80.84 27.06 84.07 C 27.29 90.39 26.58 96.79 27.16 103.11 C 29.08 111.19 32.46 119.68 30.04 128.03 C 29.15 132.05 25.01 133.67 22.51 136.50 C 20.37 138.64 19.07 141.84 15.99 142.82 C 13.73 143.58 11.91 145.11 10.33 146.85 C 11.44 146.75 13.65 146.53 14.75 146.43 C 13.33 147.47 11.78 148.33 10.37 149.40 C 12.85 152.45 16.78 149.27 19.94 149.30 C 24.15 149.60 26.73 146.00 30.12 144.23 C 33.10 142.51 36.65 142.57 39.96 142.17 C 41.48 140.25 43.43 138.51 44.03 136.03 C 45.69 131.74 43.83 127.26 42.95 123.02 C 41.41 117.83 41.53 112.30 39.71 107.19 C 38.06 102.63 38.77 97.65 37.16 93.08 C 35.89 89.40 37.12 85.43 39.35 82.41 C 41.28 80.57 43.86 79.58 45.76 77.71 C 50.29 73.25 56.64 71.60 62.39 69.34 C 65.08 68.73 68.48 66.72 70.79 69.20 C 76.68 74.69 81.18 82.98 79.33 91.20 C 84.02 89.38 88.84 87.47 93.98 87.71 C 100.08 88.03 104.45 82.27 106.13 77.05 C 105.79 72.68 103.69 68.35 100.52 65.32 C 92.69 60.83 82.95 58.17 74.12 61.09 M 141.73 62.71 C 142.14 63.57 142.58 64.42 143.01 65.27 C 140.34 65.83 137.67 66.36 135.06 67.15 C 132.88 69.95 129.51 71.48 126.93 73.87 C 124.41 74.67 121.74 74.85 119.15 75.30 L 119.00 76.46 C 123.08 76.40 126.88 78.37 130.98 78.04 C 136.44 78.20 141.46 74.72 146.97 75.90 C 152.05 76.86 157.17 74.68 160.39 70.73 C 155.20 70.07 150.29 67.97 145.02 67.81 C 145.22 64.49 147.60 62.37 150.24 60.71 C 147.31 60.93 144.46 61.62 141.73 62.71 M 129.30 64.73 C 129.21 67.85 132.28 67.65 134.46 67.56 C 133.35 66.28 132.16 65.05 131.39 63.52 C 130.87 63.82 129.82 64.43 129.30 64.73 M 52.08 75.11 C 48.46 76.51 46.30 80.00 42.89 81.75 C 40.19 83.01 39.56 86.14 38.13 88.48 C 38.74 92.30 40.51 95.96 40.15 99.90 C 39.83 103.78 42.49 107.04 42.60 110.88 C 43.07 118.52 45.54 125.83 46.41 133.41 C 47.90 138.37 42.75 140.74 40.22 143.96 C 37.90 146.98 35.89 150.45 32.59 152.50 C 28.42 154.39 22.56 155.08 20.60 159.80 C 21.43 159.82 23.07 159.85 23.89 159.87 C 25.63 162.66 28.83 163.49 31.91 163.74 C 36.21 162.74 40.56 161.70 44.38 159.40 C 49.57 156.32 55.93 156.77 61.33 154.35 C 64.46 151.22 61.89 146.56 60.82 143.03 C 57.00 134.60 56.36 125.08 56.96 115.95 C 57.40 108.32 53.62 101.38 52.48 93.98 C 54.89 93.04 57.37 91.77 60.03 92.41 C 66.00 93.40 72.41 92.72 77.74 89.74 C 79.47 82.31 74.58 75.14 69.72 69.93 C 63.34 69.39 57.78 72.85 52.08 75.11 Z" />
<path fill="#333333" opacity="1.00" d=" M 220.27 38.34 C 223.38 33.74 227.15 28.24 232.85 26.99 C 232.81 27.37 232.72 28.15 232.67 28.54 C 229.05 31.51 224.20 33.57 222.38 38.23 C 220.21 43.89 217.18 50.17 219.52 56.23 C 216.34 50.69 217.82 43.85 220.27 38.34 Z" />
<path fill="#333333" opacity="1.00" d=" M 192.67 46.43 C 194.53 44.13 196.68 42.00 199.43 40.80 C 197.98 43.47 195.70 45.70 192.67 46.43 Z" />
<path fill="#333333" opacity="1.00" d=" M 148.54 45.61 C 150.61 47.41 150.64 50.09 150.32 52.60 C 148.56 50.70 148.78 48.01 148.54 45.61 Z" />
<path fill="#333333" opacity="1.00" d=" M 109.75 55.24 C 110.72 53.42 111.82 51.65 113.23 50.13 C 112.86 51.77 112.44 53.40 112.01 55.02 C 109.67 55.91 107.29 56.68 104.94 57.54 C 103.79 56.79 102.63 56.06 101.54 55.25 C 104.31 55.59 107.15 56.96 109.75 55.24 Z" />
<path fill="#333333" opacity="1.00" d=" M 125.04 51.52 C 126.67 52.10 128.29 52.70 129.94 53.22 C 130.63 53.81 131.31 54.40 132.00 54.99 C 129.19 54.82 126.14 54.54 125.04 51.52 Z" />
<path fill="#333333" opacity="1.00" d=" M 133.04 52.69 C 134.05 53.54 135.05 54.40 136.05 55.26 C 136.53 54.88 137.01 54.50 137.49 54.12 C 139.41 55.23 141.47 56.28 142.65 58.27 C 140.52 57.39 138.51 56.25 136.45 55.23 C 137.00 57.40 136.52 58.67 135.01 59.05 C 134.48 56.98 134.40 54.59 133.04 52.69 Z" />
<path fill="#333333" opacity="1.00" d=" M 179.53 53.67 C 181.75 53.37 183.99 53.26 186.23 53.41 C 184.13 54.61 181.61 55.25 179.53 53.67 Z" />
<path fill="#333333" opacity="1.00" d=" M 168.32 57.74 C 170.47 57.71 172.61 57.56 174.75 57.34 C 174.79 57.77 174.87 58.61 174.90 59.03 C 172.66 59.03 170.43 59.00 168.19 58.89 C 168.22 58.60 168.29 58.03 168.32 57.74 Z" />
<path fill="#333333" opacity="1.00" d=" M 107.28 57.71 C 109.91 57.41 112.12 58.41 113.76 60.42 C 113.37 60.65 112.59 61.11 112.20 61.34 C 110.55 60.15 108.93 58.91 107.28 57.71 Z" />
<path fill="#333333" opacity="1.00" d=" M 126.28 57.82 C 127.98 58.76 129.70 59.70 131.33 60.77 C 129.92 60.64 128.53 60.45 127.14 60.24 C 126.92 59.64 126.49 58.42 126.28 57.82 Z" />
<path fill="#333333" opacity="1.00" d=" M 79.48 63.14 C 84.06 63.80 89.66 64.15 92.44 68.43 C 87.99 67.06 83.52 65.48 79.48 63.14 Z" />
<path fill="#333333" opacity="1.00" d=" M 107.77 64.16 C 110.79 64.16 114.22 64.21 116.24 66.82 C 113.27 66.52 110.44 65.47 107.77 64.16 Z" />
<path fill="#333333" opacity="1.00" d=" M 120.66 63.53 C 122.86 64.40 124.97 65.54 126.69 67.18 C 123.88 67.58 121.73 66.01 120.66 63.53 Z" />
<path fill="#333333" opacity="1.00" d=" M 117.36 66.35 C 118.83 65.90 120.87 68.20 120.17 69.60 C 118.54 70.19 116.69 67.85 117.36 66.35 Z" />
<path fill="#333333" opacity="1.00" d=" M 41.11 78.40 C 37.71 78.88 33.35 76.88 34.43 72.81 C 35.94 75.57 38.40 77.36 41.67 76.91 C 41.53 77.29 41.25 78.03 41.11 78.40 Z" />
<path fill="#333333" opacity="1.00" d=" M 57.67 83.16 C 61.28 79.33 65.87 76.29 71.09 75.31 C 66.65 77.94 62.93 82.24 57.67 83.16 Z" />
<path fill="#333333" opacity="1.00" d=" M 138.93 83.09 C 146.70 80.76 155.48 81.22 162.32 76.30 C 161.79 77.59 161.41 79.13 160.00 79.75 C 155.02 82.72 149.03 83.04 143.59 84.76 C 143.87 87.66 143.90 90.78 142.03 93.22 C 141.85 90.54 141.75 87.86 141.65 85.18 C 139.17 85.75 136.71 86.39 134.31 87.23 C 134.81 92.65 135.23 98.10 135.06 103.55 C 134.57 103.28 133.60 102.73 133.11 102.46 C 132.69 97.50 133.00 92.51 132.70 87.54 C 115.22 92.35 97.44 96.24 80.31 102.09 C 81.01 111.42 81.52 120.80 81.02 130.16 C 80.17 129.26 79.70 128.22 79.60 127.03 C 78.74 118.89 78.89 110.70 78.64 102.53 C 73.12 103.59 67.34 108.14 61.78 104.90 C 59.43 103.87 57.16 102.45 55.80 100.20 C 59.93 100.93 63.28 105.52 67.75 103.66 C 91.09 95.54 115.11 89.63 138.93 83.09 Z" />
<path fill="#333333" opacity="1.00" d=" M 30.48 83.23 C 30.41 81.86 28.73 79.77 30.70 79.03 C 32.45 80.53 33.21 82.88 32.32 85.09 L 33.60 84.74 C 32.78 86.82 32.06 88.96 30.99 90.93 C 30.94 89.01 31.07 87.11 31.37 85.22 L 30.15 85.71 C 30.23 85.09 30.40 83.85 30.48 83.23 Z" />
<path fill="#333333" opacity="1.00" d=" M 47.71 82.39 C 49.44 82.83 51.13 83.40 52.87 83.84 C 52.63 84.22 52.15 84.97 51.91 85.35 C 50.05 85.08 48.26 84.36 47.71 82.39 Z" />
<path fill="#333333" opacity="1.00" d=" M 42.52 94.47 C 43.26 91.03 42.62 86.05 47.00 85.06 C 46.44 86.10 45.84 87.12 45.23 88.13 C 45.30 90.63 44.60 92.95 42.52 94.47 Z" />
<path fill="#333333" opacity="1.00" d=" M 142.70 94.37 C 142.94 94.10 143.43 93.57 143.67 93.30 C 144.27 95.32 144.17 97.77 143.68 99.80 C 142.30 98.78 142.91 96.02 142.70 94.37 Z" />
<path fill="#333333" opacity="1.00" d=" M 87.79 104.06 C 87.93 102.76 86.96 100.51 88.78 100.15 C 90.56 105.63 90.21 111.49 89.91 117.15 C 87.40 113.31 88.17 108.41 87.79 104.06 Z" />
<path fill="#333333" opacity="1.00" d=" M 45.29 103.28 C 45.86 103.83 45.86 103.83 45.29 103.28 Z" />
<path fill="#333333" opacity="1.00" d=" M 49.69 109.44 C 49.26 107.41 49.75 105.35 50.27 103.39 C 50.47 110.89 53.43 117.96 53.82 125.39 C 51.09 120.51 50.83 114.80 49.69 109.44 Z" />
<path fill="#333333" opacity="1.00" d=" M 46.55 105.40 C 47.07 106.55 47.88 107.66 47.76 109.00 C 47.83 114.06 48.77 119.05 49.21 124.08 C 47.20 118.09 46.24 111.72 46.55 105.40 Z" />
<path fill="#333333" opacity="1.00" d=" M 40.41 128.19 C 40.82 128.47 41.65 129.02 42.06 129.30 C 42.74 133.77 39.96 138.47 35.91 140.39 C 37.94 136.57 41.76 132.90 40.41 128.19 Z" />
<path fill="#333333" opacity="1.00" d=" M 25.99 140.94 C 27.48 138.00 29.76 135.48 32.88 134.27 C 30.93 136.82 28.59 139.05 25.99 140.94 Z" />
<path fill="#333333" opacity="1.00" d=" M 55.98 144.93 C 58.74 147.63 53.65 149.49 51.51 150.00 C 52.24 148.76 53.41 147.97 54.64 147.29 C 54.97 146.70 55.64 145.52 55.98 144.93 Z" />
<path fill="#333333" opacity="1.00" d=" M 41.58 154.29 C 42.20 151.26 44.25 148.80 46.71 147.04 C 45.53 149.79 43.77 152.26 41.58 154.29 Z" />
<path fill="#333333" opacity="1.00" d=" M 26.50 157.09 C 29.45 156.14 32.84 157.22 34.49 159.90 C 31.58 159.81 28.95 158.53 26.50 157.09 Z" />
</g>
</svg>
