<?xml version="1.0" encoding="UTF-8" ?>
<!DOCTYPE svg PUBLIC "-//W3C//DTD SVG 1.1//EN" "http://www.w3.org/Graphics/SVG/1.1/DTD/svg11.dtd">
<svg width="201pt" height="275pt" viewBox="0 0 201 275" version="1.1" xmlns="http://www.w3.org/2000/svg">
<g id="#ffffffff">
<path fill="#FFFFFF" opacity="1.00" d=" M 0.00 0.00 L 201.00 0.00 L 201.00 275.00 L 0.00 275.00 L 0.00 0.00 M 46.55 18.74 C 37.87 19.99 29.47 23.90 23.70 30.65 C 15.64 39.53 12.84 52.63 16.26 64.09 C 17.47 70.62 22.34 75.50 26.97 79.88 C 35.90 87.83 49.10 90.15 60.39 86.51 C 68.40 83.93 75.26 78.28 79.41 70.97 C 83.66 72.21 86.54 75.88 90.75 77.16 C 93.84 78.11 96.01 80.77 99.09 81.76 C 103.67 83.40 108.62 83.00 113.40 83.00 C 115.27 87.08 116.28 91.55 118.71 95.38 C 120.53 98.25 122.68 100.90 124.75 103.60 C 124.64 108.42 125.19 113.23 125.34 118.04 C 125.50 121.47 124.69 125.15 126.78 128.18 C 126.04 130.23 125.06 132.17 124.06 134.11 C 122.26 137.91 123.17 142.22 123.23 146.26 C 121.38 149.84 120.17 153.70 118.75 157.46 C 117.66 160.34 118.46 163.72 116.52 166.30 C 117.67 166.76 118.83 167.21 119.99 167.67 C 117.35 174.71 119.37 182.03 120.80 189.06 C 119.92 192.67 120.40 196.28 120.56 199.93 C 118.23 207.50 119.94 215.40 120.58 223.08 C 121.22 227.24 122.27 231.47 120.92 235.62 C 117.38 236.80 114.02 238.46 111.07 240.75 L 111.08 239.90 C 110.91 240.69 110.57 242.26 110.40 243.05 C 113.64 240.28 117.47 238.41 121.49 237.06 C 124.01 232.19 123.35 226.65 122.29 221.51 C 122.13 214.95 119.60 208.27 121.72 201.80 C 122.74 198.35 121.17 194.74 122.33 191.29 C 123.62 187.44 121.53 183.70 120.94 179.93 C 119.93 176.02 120.76 172.01 120.78 168.05 C 126.35 171.16 132.97 172.01 139.11 170.20 C 137.45 174.74 135.72 179.27 134.29 183.90 C 132.59 194.30 137.20 204.47 136.22 214.90 C 135.89 220.18 133.50 225.04 132.69 230.23 C 132.18 239.43 133.64 248.72 132.09 257.86 C 126.88 260.39 121.68 257.31 117.41 254.41 C 113.70 251.70 108.67 252.78 104.82 250.41 C 103.38 249.61 102.09 248.57 100.76 247.62 C 101.62 246.54 102.43 245.43 103.38 244.43 C 105.39 242.13 108.95 242.02 110.77 239.51 C 106.49 240.16 100.44 241.88 99.93 246.98 C 99.35 249.61 102.53 250.54 104.15 251.88 C 107.35 254.23 111.62 253.82 114.94 255.87 C 118.18 257.70 121.41 259.73 125.07 260.61 C 128.15 261.31 131.23 260.00 133.88 258.52 C 134.59 253.95 135.48 249.30 134.09 244.76 C 134.76 239.63 133.56 234.40 134.57 229.32 C 136.70 222.08 139.08 214.61 137.96 206.98 C 136.21 199.10 135.27 190.84 136.40 182.82 C 138.55 178.01 139.03 172.39 142.22 168.12 C 143.27 168.39 145.35 168.92 146.39 169.19 C 146.51 175.13 150.07 180.10 152.30 185.37 C 153.03 190.08 156.21 194.09 156.33 198.93 C 156.38 204.52 157.24 210.21 159.80 215.23 C 161.90 219.35 162.83 223.91 164.14 228.31 C 161.41 229.83 158.68 231.34 156.03 233.00 C 156.15 232.48 156.37 231.42 156.49 230.89 C 153.85 231.42 151.21 232.09 148.92 233.57 C 148.92 234.51 148.92 236.40 148.92 237.34 C 152.02 239.66 155.22 241.92 158.98 243.02 C 161.43 244.67 162.69 247.64 164.35 250.04 C 166.49 250.74 168.61 252.06 170.93 251.82 C 173.93 250.81 175.30 247.73 176.20 244.96 C 177.67 238.86 173.69 233.16 174.23 227.05 C 173.62 218.70 175.79 210.27 173.79 202.01 C 173.03 197.40 169.61 193.88 168.29 189.46 C 167.42 186.58 165.96 183.88 165.49 180.88 C 164.78 177.28 165.33 173.57 164.74 169.96 C 164.38 169.57 163.66 168.78 163.30 168.39 C 163.79 174.21 162.55 180.42 165.18 185.87 C 166.86 189.70 168.24 193.65 169.95 197.47 C 172.97 203.64 173.93 210.77 172.86 217.55 C 172.30 225.43 173.06 233.34 174.24 241.14 C 174.87 244.53 173.21 248.66 169.89 249.97 C 164.70 249.78 164.62 242.43 160.01 241.17 C 157.97 240.76 156.07 239.96 154.57 238.48 C 153.13 237.85 151.71 237.16 150.31 236.44 C 150.62 232.60 154.51 233.06 157.30 233.50 C 159.71 232.64 161.99 231.47 164.21 230.21 C 164.26 231.12 164.37 232.94 164.42 233.85 C 164.84 233.63 165.68 233.18 166.10 232.96 C 165.78 225.85 163.69 218.89 160.68 212.47 C 157.75 206.53 157.35 199.49 158.58 193.08 C 159.32 194.64 160.11 196.18 160.97 197.69 C 160.73 192.97 159.12 188.30 160.28 183.57 C 159.85 183.56 158.98 183.53 158.55 183.51 C 158.00 186.52 157.96 189.59 158.59 192.60 C 157.99 192.41 156.80 192.04 156.20 191.85 C 154.29 188.61 154.24 184.71 152.36 181.48 C 150.52 177.83 149.26 173.93 147.97 170.07 C 152.13 170.12 156.46 170.00 160.32 168.24 C 162.45 166.97 164.17 165.15 166.09 163.61 C 165.41 159.08 164.12 154.62 164.03 150.02 C 163.85 147.37 165.40 145.04 165.62 142.44 C 166.57 139.15 167.96 135.97 170.28 133.40 C 174.89 128.00 176.75 120.98 178.16 114.17 C 179.05 109.51 177.43 104.81 178.09 100.12 C 178.55 96.15 177.91 92.12 176.37 88.45 C 174.34 83.75 175.28 78.14 172.30 73.81 C 168.98 69.87 163.43 69.57 159.51 66.49 C 157.12 64.54 152.02 64.88 152.06 60.97 C 150.53 56.13 155.37 52.74 155.71 48.14 C 157.37 43.04 154.96 37.79 151.77 33.85 C 147.06 32.85 142.11 32.49 137.40 33.68 C 133.07 34.77 130.64 39.07 129.14 42.94 C 127.87 49.16 127.30 55.71 128.92 61.92 C 129.39 62.10 130.34 62.47 130.81 62.65 C 129.74 55.38 129.06 47.36 132.41 40.59 C 135.46 33.99 144.00 34.81 150.00 35.32 C 152.79 38.15 154.45 42.11 154.00 46.11 C 153.62 49.94 151.21 53.10 149.15 56.19 C 150.00 58.99 150.54 61.88 151.49 64.64 C 154.67 66.59 158.56 67.20 161.45 69.68 C 164.37 72.29 168.92 72.29 171.37 75.55 C 173.08 78.38 173.69 81.70 173.77 84.97 C 173.81 87.85 175.53 90.30 176.18 93.04 C 177.46 97.66 175.44 102.37 176.08 107.03 C 176.31 109.31 177.21 111.63 176.45 113.90 C 175.33 117.92 174.47 122.04 172.93 125.92 C 171.21 130.34 167.27 133.45 165.73 137.96 C 165.51 134.49 164.55 131.10 162.85 128.07 C 167.81 122.59 165.98 114.79 168.62 108.35 C 167.92 104.59 166.18 100.85 166.93 96.95 C 167.98 93.25 169.21 89.60 170.25 85.89 C 170.60 84.02 168.77 82.71 167.94 81.26 C 166.00 84.47 163.24 86.98 160.45 89.42 C 161.66 89.32 162.88 89.20 164.10 89.07 C 165.36 87.38 166.56 85.64 167.66 83.84 C 167.95 84.12 168.53 84.69 168.82 84.97 C 167.70 88.50 167.18 92.24 165.66 95.63 C 163.55 99.34 159.79 102.12 158.72 106.40 C 157.85 111.72 157.74 117.23 156.58 122.47 C 153.70 125.34 149.85 126.97 145.92 127.79 C 142.54 127.70 139.19 128.42 135.81 128.46 C 132.88 127.96 129.98 127.25 127.09 126.55 C 127.15 119.25 127.07 111.95 126.18 104.69 C 130.82 108.02 130.69 114.67 135.15 117.99 C 133.91 113.78 132.14 109.71 130.15 105.81 C 125.12 101.28 121.52 95.47 117.83 89.85 C 120.89 91.63 124.34 93.17 127.98 92.56 C 126.75 90.44 124.13 90.39 122.11 89.57 C 118.87 88.64 116.70 85.89 114.86 83.24 C 116.46 82.84 118.07 82.46 119.67 82.08 C 119.10 81.16 118.53 80.25 117.99 79.32 C 115.77 77.69 113.58 76.02 111.28 74.52 C 111.44 75.09 111.77 76.23 111.93 76.80 C 113.64 78.31 115.42 79.72 117.32 80.98 C 111.14 80.47 104.31 82.64 98.70 79.10 C 94.18 76.42 89.02 74.64 85.23 70.88 C 82.67 70.36 80.10 69.61 78.11 67.85 C 75.26 65.36 70.97 65.47 68.40 62.61 C 64.05 58.36 60.01 53.77 55.14 50.09 C 52.88 47.95 49.46 46.63 48.57 43.39 C 47.73 40.11 46.57 36.95 45.31 33.82 C 44.23 31.28 45.30 28.61 46.30 26.25 C 47.06 26.07 48.56 25.73 49.31 25.55 C 51.03 27.58 52.58 29.90 55.09 31.03 C 58.38 32.29 59.55 35.88 61.38 38.59 C 61.08 40.98 59.31 44.33 62.19 45.85 C 66.83 50.41 73.98 48.65 79.35 51.69 C 82.91 53.45 85.80 56.23 88.26 59.30 C 93.97 59.95 100.03 61.32 104.52 65.12 C 102.77 68.34 106.14 70.85 109.09 71.05 C 108.08 69.98 107.02 68.96 105.95 67.95 C 105.96 67.33 105.98 66.08 105.99 65.46 C 110.12 64.07 114.25 62.03 118.73 63.45 C 119.51 62.99 120.28 62.52 121.05 62.03 C 115.86 60.42 110.51 61.56 105.86 64.11 C 101.49 59.81 95.30 58.73 89.55 57.54 C 87.36 56.27 85.82 54.07 84.31 52.09 C 82.86 42.29 80.27 31.35 71.69 25.28 C 63.96 21.27 55.37 18.37 46.55 18.74 M 55.07 47.27 C 56.00 48.55 56.93 49.83 57.90 51.08 C 59.01 51.06 61.24 51.01 62.35 50.99 C 59.99 49.61 57.46 48.58 55.07 47.27 M 66.86 52.24 C 68.50 54.34 70.93 55.48 73.11 56.90 C 75.83 59.86 76.76 64.40 80.39 66.51 C 85.10 67.94 90.12 68.15 94.74 69.98 C 95.10 72.31 95.28 75.15 97.80 76.22 C 101.76 77.90 107.03 76.33 109.31 72.60 C 105.65 73.32 102.14 75.93 98.30 74.56 C 97.36 72.97 97.23 71.08 96.88 69.31 C 93.68 67.87 90.36 66.32 86.76 66.76 C 84.46 67.25 82.99 65.02 80.88 64.59 C 79.02 61.67 77.86 58.20 75.25 55.83 C 72.62 54.30 69.81 53.00 66.86 52.24 M 138.69 57.96 C 138.11 59.63 137.50 61.29 136.85 62.94 C 133.64 63.50 130.56 64.56 127.59 65.86 C 125.86 64.78 124.17 63.66 122.50 62.53 C 121.63 62.95 120.77 63.39 119.92 63.83 C 122.57 65.07 125.03 67.08 128.02 67.44 C 131.26 66.53 134.50 65.60 137.75 64.73 C 139.80 63.13 139.99 60.29 140.55 57.94 C 140.08 57.94 139.15 57.95 138.69 57.96 M 147.75 77.13 C 148.39 83.70 149.01 90.37 148.18 96.95 C 147.88 100.64 145.53 103.63 143.97 106.85 C 147.47 105.42 148.83 101.44 149.93 98.12 C 151.94 92.18 150.43 85.98 149.96 79.93 C 149.08 72.86 143.99 67.09 143.76 59.85 C 140.24 65.84 146.60 71.40 147.75 77.13 M 118.92 72.35 C 121.62 71.63 122.38 68.92 123.28 66.68 C 120.77 67.53 119.22 69.74 118.92 72.35 M 119.44 72.68 C 120.93 73.92 122.50 75.07 124.09 76.19 C 124.81 75.98 126.26 75.56 126.98 75.35 C 124.63 74.04 122.22 72.68 119.44 72.68 M 129.78 75.17 C 131.93 77.98 135.81 77.79 138.97 78.20 C 139.42 79.39 140.97 80.44 140.38 81.83 C 139.21 85.51 138.04 90.81 133.38 91.22 C 131.30 87.45 128.83 83.82 124.86 81.83 C 126.46 84.92 128.71 87.62 130.51 90.60 C 131.69 92.62 134.06 93.05 136.17 93.36 C 140.73 89.58 142.67 82.77 139.77 77.42 C 136.51 76.40 133.14 75.72 129.78 75.17 M 154.99 82.59 C 156.95 87.97 155.34 93.52 154.78 98.95 C 158.56 94.15 157.64 87.74 156.82 82.14 C 159.04 79.97 161.19 77.70 162.76 75.00 C 159.32 76.48 156.84 79.42 154.99 82.59 M 150.92 102.63 C 153.93 106.61 154.00 111.52 154.88 116.23 C 156.62 113.48 155.74 110.33 154.72 107.49 C 155.66 104.91 152.52 103.85 150.92 102.63 M 148.55 124.22 C 149.27 118.52 149.28 112.73 148.85 107.01 C 146.36 112.34 146.36 118.79 148.55 124.22 M 138.98 113.97 C 138.41 117.19 136.07 121.98 139.51 124.24 C 139.40 120.60 139.59 116.95 140.60 113.42 C 140.20 113.56 139.38 113.84 138.98 113.97 M 126.37 198.40 C 128.26 194.30 127.88 189.80 127.86 185.41 C 124.93 189.12 125.75 194.08 126.37 198.40 M 132.12 195.48 C 133.48 195.64 133.87 193.33 132.98 192.59 C 131.61 192.42 131.19 194.74 132.12 195.48 M 126.45 226.14 C 126.44 221.34 124.26 216.82 124.51 212.01 C 124.59 209.95 124.60 207.89 124.35 205.85 C 122.20 212.51 123.50 219.92 126.45 226.14 M 166.60 210.22 C 165.29 210.52 163.91 211.37 163.38 212.65 C 164.00 214.88 168.78 211.22 166.60 210.22 M 167.76 236.71 C 167.74 237.28 167.68 238.40 167.65 238.97 C 166.37 240.02 165.08 241.08 163.85 242.19 C 165.60 241.57 167.51 241.16 168.99 239.97 C 169.68 238.78 169.30 237.28 169.52 235.98 C 169.08 236.16 168.20 236.53 167.76 236.71 M 125.53 248.23 C 124.46 248.81 121.23 248.57 122.72 250.43 C 125.56 251.33 127.61 248.61 128.43 246.25 C 127.44 246.89 126.48 247.55 125.53 248.23 Z" />
<path fill="#FFFFFF" opacity="1.00" d=" M 25.74 31.74 C 31.39 25.01 40.15 20.91 48.95 20.95 C 58.63 20.66 68.39 25.06 74.65 32.43 C 78.99 37.35 80.93 43.82 81.62 50.22 C 77.21 48.84 72.66 48.01 68.11 47.26 C 66.04 46.96 63.87 45.99 62.69 44.21 C 62.68 42.18 63.07 40.17 62.89 38.14 C 61.81 35.69 60.30 33.45 59.02 31.10 C 55.94 29.95 53.05 28.35 51.40 25.38 C 49.96 22.93 47.10 24.71 45.03 25.14 C 44.05 27.98 42.28 31.23 44.03 34.14 C 46.44 37.97 45.87 42.92 48.66 46.53 C 51.41 49.38 54.96 51.33 57.61 54.31 C 61.71 58.17 64.78 63.43 70.09 65.78 C 73.09 66.76 75.57 68.68 77.86 70.79 C 72.93 78.22 65.33 83.93 56.50 85.68 C 49.61 87.58 42.26 86.24 35.81 83.46 C 25.96 79.32 18.80 69.67 17.32 59.13 C 16.19 49.38 19.14 39.08 25.74 31.74 Z" />
<path fill="#FFFFFF" opacity="1.00" d=" M 158.91 112.00 C 159.23 107.39 162.17 103.64 164.66 99.97 C 165.42 102.78 166.21 105.57 167.12 108.33 C 164.01 114.12 165.15 121.14 161.77 126.80 C 160.79 125.91 159.16 125.55 158.82 124.10 C 158.25 120.09 158.62 116.02 158.91 112.00 Z" />
<path fill="#FFFFFF" opacity="1.00" d=" M 146.56 129.43 C 150.80 128.99 154.71 126.93 157.78 124.03 C 158.25 126.89 160.73 128.53 162.16 130.86 C 164.42 134.43 163.85 138.82 164.45 142.83 C 159.75 149.02 163.55 156.45 164.58 163.15 C 162.45 166.94 157.92 168.04 153.99 168.91 C 150.09 169.01 146.43 167.05 142.49 167.13 C 142.73 164.80 142.93 162.46 142.75 160.12 C 141.44 162.58 141.16 165.39 140.78 168.12 C 137.40 169.31 133.82 170.50 130.19 169.84 C 125.95 168.86 121.96 167.04 118.17 164.96 C 120.31 158.62 121.58 151.79 125.49 146.21 C 125.18 142.76 124.61 139.22 125.35 135.80 C 125.77 133.86 127.70 132.92 129.02 131.65 C 128.75 130.84 128.23 129.20 127.97 128.39 C 133.97 130.60 140.34 129.76 146.56 129.43 M 139.37 132.79 C 143.77 136.90 149.86 133.03 154.82 133.16 C 154.83 133.35 154.83 133.73 154.84 133.92 C 150.40 135.72 145.88 137.41 141.75 139.84 C 146.54 139.40 150.96 137.40 155.25 135.36 C 155.67 134.19 156.10 133.01 156.53 131.84 C 156.02 131.51 155.00 130.85 154.49 130.52 C 149.65 132.40 144.56 133.34 139.37 132.79 M 150.54 139.47 C 153.42 139.66 157.08 140.12 158.78 137.15 C 156.02 137.87 153.23 138.52 150.54 139.47 M 132.18 143.47 C 131.88 144.99 134.27 146.55 135.62 146.00 C 135.85 144.50 133.55 142.99 132.18 143.47 M 133.99 147.42 C 133.73 148.79 134.29 149.29 135.68 148.90 C 135.94 147.52 135.38 147.03 133.99 147.42 M 144.06 158.41 C 143.94 158.90 143.70 159.89 143.58 160.38 C 147.04 158.42 151.11 155.96 151.22 151.46 C 148.65 153.59 146.65 156.30 144.06 158.41 Z" />
</g>
<g id="#3c3d3bff">
<path fill="#333333" opacity="1.00" d=" M 46.55 18.74 C 55.37 18.37 63.96 21.27 71.69 25.28 C 80.27 31.35 82.86 42.29 84.31 52.09 C 85.82 54.07 87.36 56.27 89.55 57.54 C 95.30 58.73 101.49 59.81 105.86 64.11 C 110.51 61.56 115.86 60.42 121.05 62.03 C 120.28 62.52 119.51 62.99 118.73 63.45 C 114.25 62.03 110.12 64.07 105.99 65.46 C 105.98 66.08 105.96 67.33 105.95 67.95 C 107.02 68.96 108.08 69.98 109.09 71.05 C 106.14 70.85 102.77 68.34 104.52 65.12 C 100.03 61.32 93.97 59.95 88.26 59.30 C 85.80 56.23 82.91 53.45 79.35 51.69 C 73.98 48.65 66.83 50.41 62.19 45.85 C 59.31 44.33 61.08 40.98 61.38 38.59 C 59.55 35.88 58.38 32.29 55.09 31.03 C 52.58 29.90 51.03 27.58 49.31 25.55 C 48.56 25.73 47.06 26.07 46.30 26.25 C 45.30 28.61 44.23 31.28 45.31 33.82 C 46.57 36.95 47.73 40.11 48.57 43.39 C 49.46 46.63 52.88 47.95 55.14 50.09 C 60.01 53.77 64.05 58.36 68.40 62.61 C 70.97 65.47 75.26 65.36 78.11 67.85 C 80.10 69.61 82.67 70.36 85.23 70.88 C 89.02 74.64 94.18 76.42 98.70 79.10 C 104.31 82.64 111.14 80.47 117.32 80.98 C 115.42 79.72 113.64 78.31 111.93 76.80 C 111.77 76.23 111.44 75.09 111.28 74.52 C 113.58 76.02 115.77 77.69 117.99 79.32 C 118.53 80.25 119.10 81.16 119.67 82.08 C 118.07 82.46 116.46 82.84 114.86 83.24 C 116.70 85.89 118.87 88.64 122.11 89.57 C 124.13 90.39 126.75 90.44 127.98 92.56 C 124.34 93.17 120.89 91.63 117.83 89.85 C 121.52 95.47 125.12 101.28 130.15 105.81 C 132.14 109.71 133.91 113.78 135.15 117.99 C 130.69 114.67 130.82 108.02 126.18 104.69 C 127.07 111.95 127.15 119.25 127.09 126.55 C 129.98 127.25 132.88 127.96 135.81 128.46 C 139.19 128.42 142.54 127.70 145.92 127.79 C 149.85 126.97 153.70 125.34 156.58 122.47 C 157.74 117.23 157.85 111.72 158.72 106.40 C 159.79 102.12 163.55 99.34 165.66 95.63 C 167.18 92.24 167.70 88.50 168.82 84.97 C 168.53 84.69 167.95 84.12 167.66 83.84 C 166.56 85.64 165.36 87.38 164.10 89.07 C 162.88 89.20 161.66 89.32 160.45 89.42 C 163.24 86.98 166.00 84.47 167.94 81.26 C 168.77 82.71 170.60 84.02 170.25 85.89 C 169.21 89.60 167.98 93.25 166.93 96.95 C 166.18 100.85 167.92 104.59 168.62 108.35 C 165.98 114.79 167.81 122.59 162.85 128.07 C 164.55 131.10 165.51 134.49 165.73 137.96 C 167.27 133.45 171.21 130.34 172.93 125.92 C 174.47 122.04 175.33 117.92 176.45 113.90 C 177.21 111.63 176.31 109.31 176.08 107.03 C 175.44 102.37 177.46 97.66 176.18 93.04 C 175.53 90.30 173.81 87.85 173.77 84.97 C 173.69 81.70 173.08 78.38 171.37 75.55 C 168.92 72.29 164.37 72.29 161.45 69.68 C 158.56 67.20 154.67 66.59 151.49 64.64 C 150.54 61.88 150.00 58.99 149.15 56.19 C 151.21 53.10 153.62 49.94 154.00 46.11 C 154.45 42.11 152.79 38.15 150.00 35.32 C 144.00 34.81 135.46 33.99 132.41 40.59 C 129.06 47.36 129.74 55.38 130.81 62.65 C 130.34 62.47 129.39 62.10 128.92 61.92 C 127.30 55.71 127.87 49.16 129.14 42.94 C 130.64 39.07 133.07 34.77 137.40 33.68 C 142.11 32.49 147.06 32.85 151.77 33.85 C 154.96 37.79 157.37 43.04 155.71 48.14 C 155.37 52.74 150.53 56.13 152.06 60.97 C 152.02 64.88 157.12 64.54 159.51 66.49 C 163.43 69.57 168.98 69.87 172.30 73.81 C 175.28 78.14 174.34 83.75 176.37 88.45 C 177.91 92.12 178.55 96.15 178.09 100.12 C 177.43 104.81 179.05 109.51 178.16 114.17 C 176.75 120.98 174.89 128.00 170.28 133.40 C 167.96 135.97 166.57 139.15 165.62 142.44 C 165.40 145.04 163.85 147.37 164.03 150.02 C 164.12 154.62 165.41 159.08 166.09 163.61 C 164.17 165.15 162.45 166.97 160.32 168.24 C 156.46 170.00 152.13 170.12 147.97 170.07 C 149.26 173.93 150.52 177.83 152.36 181.48 C 154.24 184.71 154.29 188.61 156.20 191.85 C 156.80 192.04 157.99 192.41 158.59 192.60 C 157.96 189.59 158.00 186.52 158.55 183.51 C 158.98 183.53 159.85 183.56 160.28 183.57 C 159.12 188.30 160.73 192.97 160.97 197.69 C 160.11 196.18 159.32 194.64 158.58 193.08 C 157.35 199.49 157.75 206.53 160.68 212.47 C 163.69 218.89 165.78 225.85 166.10 232.96 C 165.68 233.18 164.84 233.63 164.42 233.85 C 164.37 232.94 164.26 231.12 164.21 230.21 C 161.99 231.47 159.71 232.64 157.30 233.50 C 154.51 233.06 150.62 232.60 150.31 236.44 C 151.71 237.16 153.13 237.85 154.57 238.48 C 156.07 239.96 157.97 240.76 160.01 241.17 C 164.62 242.43 164.70 249.78 169.89 249.97 C 173.21 248.66 174.87 244.53 174.24 241.14 C 173.06 233.34 172.30 225.43 172.86 217.55 C 173.93 210.77 172.97 203.64 169.95 197.47 C 168.24 193.65 166.86 189.70 165.18 185.87 C 162.55 180.42 163.79 174.21 163.30 168.39 C 163.66 168.78 164.38 169.57 164.74 169.96 C 165.33 173.57 164.78 177.28 165.49 180.88 C 165.96 183.88 167.42 186.58 168.29 189.46 C 169.61 193.88 173.03 197.40 173.79 202.01 C 175.79 210.27 173.62 218.70 174.23 227.05 C 173.69 233.16 177.67 238.86 176.20 244.96 C 175.30 247.73 173.93 250.81 170.93 251.82 C 168.61 252.06 166.49 250.74 164.35 250.04 C 162.69 247.64 161.43 244.67 158.98 243.02 C 155.22 241.92 152.02 239.66 148.92 237.34 C 148.92 236.40 148.92 234.51 148.92 233.57 C 151.21 232.09 153.85 231.42 156.49 230.89 C 156.37 231.42 156.15 232.48 156.03 233.00 C 158.68 231.34 161.41 229.83 164.14 228.31 C 162.83 223.91 161.90 219.35 159.80 215.23 C 157.24 210.21 156.38 204.52 156.33 198.93 C 156.21 194.09 153.03 190.08 152.30 185.37 C 150.07 180.10 146.51 175.13 146.39 169.19 C 145.35 168.92 143.27 168.39 142.22 168.12 C 139.03 172.39 138.55 178.01 136.40 182.82 C 135.27 190.84 136.21 199.10 137.96 206.98 C 139.08 214.61 136.70 222.08 134.57 229.32 C 133.56 234.40 134.76 239.63 134.09 244.76 C 135.48 249.30 134.59 253.95 133.88 258.52 C 131.23 260.00 128.15 261.31 125.07 260.61 C 121.41 259.73 118.18 257.70 114.94 255.87 C 111.62 253.82 107.35 254.23 104.15 251.88 C 102.53 250.54 99.35 249.61 99.93 246.98 C 100.44 241.88 106.49 240.16 110.77 239.51 C 108.95 242.02 105.39 242.13 103.38 244.43 C 102.43 245.43 101.62 246.54 100.76 247.62 C 102.09 248.57 103.38 249.61 104.82 250.41 C 108.67 252.78 113.70 251.70 117.41 254.41 C 121.68 257.31 126.88 260.39 132.09 257.86 C 133.64 248.72 132.18 239.43 132.69 230.23 C 133.50 225.04 135.89 220.18 136.22 214.90 C 137.20 204.47 132.59 194.30 134.29 183.90 C 135.72 179.27 137.45 174.74 139.11 170.20 C 132.97 172.01 126.35 171.16 120.78 168.05 C 120.76 172.01 119.93 176.02 120.94 179.93 C 121.53 183.70 123.62 187.44 122.33 191.29 C 121.17 194.74 122.74 198.35 121.72 201.80 C 119.60 208.27 122.13 214.95 122.29 221.51 C 123.35 226.65 124.01 232.19 121.49 237.06 C 117.47 238.41 113.64 240.28 110.40 243.05 C 110.57 242.26 110.91 240.69 111.08 239.90 L 111.07 240.75 C 114.02 238.46 117.38 236.80 120.92 235.62 C 122.27 231.47 121.22 227.24 120.58 223.08 C 119.94 215.40 118.23 207.50 120.56 199.93 C 120.40 196.28 119.92 192.67 120.80 189.06 C 119.37 182.03 117.35 174.71 119.99 167.67 C 118.83 167.21 117.67 166.76 116.52 166.30 C 118.46 163.72 117.66 160.34 118.75 157.46 C 120.17 153.70 121.38 149.84 123.23 146.26 C 123.17 142.22 122.26 137.91 124.06 134.11 C 125.06 132.17 126.04 130.23 126.78 128.18 C 124.69 125.15 125.50 121.47 125.34 118.04 C 125.19 113.23 124.64 108.42 124.75 103.60 C 122.68 100.90 120.53 98.25 118.71 95.38 C 116.28 91.55 115.27 87.08 113.40 83.00 C 108.62 83.00 103.67 83.40 99.09 81.76 C 96.01 80.77 93.84 78.11 90.75 77.16 C 86.54 75.88 83.66 72.21 79.41 70.97 C 75.26 78.28 68.40 83.93 60.39 86.51 C 49.10 90.15 35.90 87.83 26.97 79.88 C 22.34 75.50 17.47 70.62 16.26 64.09 C 12.84 52.63 15.64 39.53 23.70 30.65 C 29.47 23.90 37.87 19.99 46.55 18.74 M 25.74 31.74 C 19.14 39.08 16.19 49.38 17.32 59.13 C 18.80 69.67 25.96 79.32 35.81 83.46 C 42.26 86.24 49.61 87.58 56.50 85.68 C 65.33 83.93 72.93 78.22 77.86 70.79 C 75.57 68.68 73.09 66.76 70.09 65.78 C 64.78 63.43 61.71 58.17 57.61 54.31 C 54.96 51.33 51.41 49.38 48.66 46.53 C 45.87 42.92 46.44 37.97 44.03 34.14 C 42.28 31.23 44.05 27.98 45.03 25.14 C 47.10 24.71 49.96 22.93 51.40 25.38 C 53.05 28.35 55.94 29.95 59.02 31.10 C 60.30 33.45 61.81 35.69 62.89 38.14 C 63.07 40.17 62.68 42.18 62.69 44.21 C 63.87 45.99 66.04 46.96 68.11 47.26 C 72.66 48.01 77.21 48.84 81.62 50.22 C 80.93 43.82 78.99 37.35 74.65 32.43 C 68.39 25.06 58.63 20.66 48.95 20.95 C 40.15 20.91 31.39 25.01 25.74 31.74 M 158.91 112.00 C 158.62 116.02 158.25 120.09 158.82 124.10 C 159.16 125.55 160.79 125.91 161.77 126.80 C 165.15 121.14 164.01 114.12 167.12 108.33 C 166.21 105.57 165.42 102.78 164.66 99.97 C 162.17 103.64 159.23 107.39 158.91 112.00 M 146.56 129.43 C 140.34 129.76 133.97 130.60 127.97 128.39 C 128.23 129.20 128.75 130.84 129.02 131.65 C 127.70 132.92 125.77 133.86 125.35 135.80 C 124.61 139.22 125.18 142.76 125.49 146.21 C 121.58 151.79 120.31 158.62 118.17 164.96 C 121.96 167.04 125.95 168.86 130.19 169.84 C 133.82 170.50 137.40 169.31 140.78 168.12 C 141.16 165.39 141.44 162.58 142.75 160.12 C 142.93 162.46 142.73 164.80 142.49 167.13 C 146.43 167.05 150.09 169.01 153.99 168.91 C 157.92 168.04 162.45 166.94 164.58 163.15 C 163.55 156.45 159.75 149.02 164.45 142.83 C 163.85 138.82 164.42 134.43 162.16 130.86 C 160.73 128.53 158.25 126.89 157.78 124.03 C 154.71 126.93 150.80 128.99 146.56 129.43 Z" />
<path fill="#333333" opacity="1.00" d=" M 55.07 47.27 C 57.46 48.58 59.99 49.61 62.35 50.99 C 61.24 51.01 59.01 51.06 57.90 51.08 C 56.93 49.83 56.00 48.55 55.07 47.27 Z" />
<path fill="#333333" opacity="1.00" d=" M 66.86 52.24 C 69.81 53.00 72.62 54.30 75.25 55.83 C 77.86 58.20 79.02 61.67 80.88 64.59 C 82.99 65.02 84.46 67.25 86.76 66.76 C 90.36 66.32 93.68 67.87 96.88 69.31 C 97.23 71.08 97.36 72.97 98.30 74.56 C 102.14 75.93 105.65 73.32 109.31 72.60 C 107.03 76.33 101.76 77.90 97.80 76.22 C 95.28 75.15 95.10 72.31 94.74 69.98 C 90.12 68.15 85.10 67.94 80.39 66.51 C 76.76 64.40 75.83 59.86 73.11 56.90 C 70.93 55.48 68.50 54.34 66.86 52.24 Z" />
<path fill="#333333" opacity="1.00" d=" M 138.69 57.96 C 139.15 57.95 140.08 57.94 140.55 57.94 C 139.99 60.29 139.80 63.13 137.75 64.73 C 134.50 65.60 131.26 66.53 128.02 67.44 C 125.03 67.08 122.57 65.07 119.92 63.83 C 120.77 63.39 121.63 62.95 122.50 62.53 C 124.17 63.66 125.86 64.78 127.59 65.86 C 130.56 64.56 133.64 63.50 136.85 62.94 C 137.50 61.29 138.11 59.63 138.69 57.96 Z" />
<path fill="#333333" opacity="1.00" d=" M 147.75 77.13 C 146.60 71.40 140.24 65.84 143.76 59.85 C 143.99 67.09 149.08 72.86 149.96 79.93 C 150.43 85.98 151.94 92.18 149.93 98.12 C 148.83 101.44 147.47 105.42 143.97 106.85 C 145.53 103.63 147.88 100.64 148.18 96.95 C 149.01 90.37 148.39 83.70 147.75 77.13 Z" />
<path fill="#333333" opacity="1.00" d=" M 118.92 72.35 C 119.22 69.74 120.77 67.53 123.28 66.68 C 122.38 68.92 121.62 71.63 118.92 72.35 Z" />
<path fill="#333333" opacity="1.00" d=" M 119.44 72.68 C 122.22 72.68 124.63 74.04 126.98 75.35 C 126.26 75.56 124.81 75.98 124.09 76.19 C 122.50 75.07 120.93 73.92 119.44 72.68 Z" />
<path fill="#333333" opacity="1.00" d=" M 129.78 75.17 C 133.14 75.72 136.51 76.40 139.77 77.42 C 142.67 82.77 140.73 89.58 136.17 93.36 C 134.06 93.05 131.69 92.62 130.51 90.60 C 128.71 87.62 126.46 84.92 124.86 81.83 C 128.83 83.82 131.30 87.45 133.38 91.22 C 138.04 90.81 139.21 85.51 140.38 81.83 C 140.97 80.44 139.42 79.39 138.97 78.20 C 135.81 77.79 131.93 77.98 129.78 75.17 Z" />
<path fill="#333333" opacity="1.00" d=" M 154.99 82.59 C 156.84 79.42 159.32 76.48 162.76 75.00 C 161.19 77.70 159.04 79.97 156.82 82.14 C 157.64 87.74 158.56 94.15 154.78 98.95 C 155.34 93.52 156.95 87.97 154.99 82.59 Z" />
<path fill="#333333" opacity="1.00" d=" M 150.92 102.63 C 152.52 103.85 155.66 104.91 154.72 107.49 C 155.74 110.33 156.62 113.48 154.88 116.23 C 154.00 111.52 153.93 106.61 150.92 102.63 Z" />
<path fill="#333333" opacity="1.00" d=" M 148.55 124.22 C 146.36 118.79 146.36 112.34 148.85 107.01 C 149.28 112.73 149.27 118.52 148.55 124.22 Z" />
<path fill="#333333" opacity="1.00" d=" M 138.98 113.97 C 139.38 113.84 140.20 113.56 140.60 113.42 C 139.59 116.95 139.40 120.60 139.51 124.24 C 136.07 121.98 138.41 117.19 138.98 113.97 Z" />
<path fill="#333333" opacity="1.00" d=" M 139.37 132.79 C 144.56 133.34 149.65 132.40 154.49 130.52 C 155.00 130.85 156.02 131.51 156.53 131.84 C 156.10 133.01 155.67 134.19 155.25 135.36 C 150.96 137.40 146.54 139.40 141.75 139.84 C 145.88 137.41 150.40 135.72 154.84 133.92 C 154.83 133.73 154.83 133.35 154.82 133.16 C 149.86 133.03 143.77 136.90 139.37 132.79 Z" />
<path fill="#333333" opacity="1.00" d=" M 150.54 139.47 C 153.23 138.52 156.02 137.87 158.78 137.15 C 157.08 140.12 153.42 139.66 150.54 139.47 Z" />
<path fill="#333333" opacity="1.00" d=" M 132.18 143.47 C 133.55 142.99 135.85 144.50 135.62 146.00 C 134.27 146.55 131.88 144.99 132.18 143.47 Z" />
<path fill="#333333" opacity="1.00" d=" M 133.99 147.42 C 135.38 147.03 135.94 147.52 135.68 148.90 C 134.29 149.29 133.73 148.79 133.99 147.42 Z" />
<path fill="#333333" opacity="1.00" d=" M 144.06 158.41 C 146.65 156.30 148.65 153.59 151.22 151.46 C 151.11 155.96 147.04 158.42 143.58 160.38 C 143.70 159.89 143.94 158.90 144.06 158.41 Z" />
<path fill="#333333" opacity="1.00" d=" M 126.37 198.40 C 125.75 194.08 124.93 189.12 127.86 185.41 C 127.88 189.80 128.26 194.30 126.37 198.40 Z" />
<path fill="#333333" opacity="1.00" d=" M 132.12 195.48 C 131.19 194.74 131.61 192.42 132.98 192.59 C 133.87 193.33 133.48 195.64 132.12 195.48 Z" />
<path fill="#333333" opacity="1.00" d=" M 126.45 226.14 C 123.50 219.92 122.20 212.51 124.35 205.85 C 124.60 207.89 124.59 209.95 124.51 212.01 C 124.26 216.82 126.44 221.34 126.45 226.14 Z" />
<path fill="#333333" opacity="1.00" d=" M 166.60 210.22 C 168.78 211.22 164.00 214.88 163.38 212.65 C 163.91 211.37 165.29 210.52 166.60 210.22 Z" />
<path fill="#333333" opacity="1.00" d=" M 167.76 236.71 C 168.20 236.53 169.08 236.16 169.52 235.98 C 169.30 237.28 169.68 238.78 168.99 239.97 C 167.51 241.16 165.60 241.57 163.85 242.19 C 165.08 241.08 166.37 240.02 167.65 238.97 C 167.68 238.40 167.74 237.28 167.76 236.71 Z" />
<path fill="#333333" opacity="1.00" d=" M 125.53 248.23 C 126.48 247.55 127.44 246.89 128.43 246.25 C 127.61 248.61 125.56 251.33 122.72 250.43 C 121.23 248.57 124.46 248.81 125.53 248.23 Z" />
</g>
</svg>
