<?xml version="1.0" encoding="UTF-8" ?>
<!DOCTYPE svg PUBLIC "-//W3C//DTD SVG 1.1//EN" "http://www.w3.org/Graphics/SVG/1.1/DTD/svg11.dtd">
<svg width="230pt" height="200pt" viewBox="0 0 230 200" version="1.1" xmlns="http://www.w3.org/2000/svg">
<g id="#ffffffff">
<path fill="#FFFFFF" opacity="1.00" d=" M 0.00 0.00 L 230.00 0.00 L 230.00 200.00 L 0.00 200.00 L 0.00 0.00 M 68.88 14.84 C 64.25 18.30 62.47 24.10 59.91 29.00 C 55.00 33.13 51.46 39.46 52.13 45.96 C 53.67 50.90 59.60 51.02 62.90 54.18 C 66.75 57.47 71.63 58.98 76.05 61.28 L 73.40 61.16 C 77.14 66.44 80.26 72.14 82.97 78.01 C 85.34 82.50 89.86 85.12 93.31 88.66 C 95.55 91.46 97.38 94.57 99.25 97.63 C 101.78 101.66 100.84 106.68 102.19 111.08 C 102.92 113.38 103.09 115.80 103.43 118.18 C 104.23 123.15 108.62 127.27 107.54 132.53 C 109.64 134.93 110.30 138.03 111.23 140.97 C 114.64 146.21 120.40 149.22 124.04 154.30 C 122.26 155.14 120.40 155.81 118.42 155.87 C 118.45 154.31 118.53 152.76 118.65 151.21 C 118.04 150.52 117.43 149.84 116.81 149.16 C 116.57 151.72 116.45 154.30 116.69 156.86 C 117.81 157.37 118.93 157.89 120.05 158.41 C 122.31 157.58 125.46 154.65 127.27 157.72 C 132.11 157.77 136.45 155.46 140.95 153.99 C 144.73 152.72 148.18 150.65 151.67 148.76 C 155.57 145.15 160.08 141.83 165.30 140.48 C 164.52 140.48 162.96 140.46 162.18 140.45 C 162.27 138.64 161.96 136.73 162.62 134.99 C 165.28 134.61 165.02 138.43 165.98 140.15 C 166.60 140.09 167.84 139.98 168.46 139.92 C 168.76 139.52 169.37 138.73 169.67 138.33 C 175.09 135.50 181.34 136.85 187.17 136.46 C 186.37 136.12 184.76 135.42 183.95 135.08 C 187.92 133.20 191.54 130.46 195.93 129.60 C 198.55 128.75 201.89 129.07 203.62 126.53 C 205.80 123.60 207.97 120.50 211.75 119.58 C 211.74 118.99 211.71 117.80 211.70 117.20 C 215.69 119.07 221.29 120.71 221.93 125.85 C 223.34 130.84 220.74 136.39 215.69 137.93 C 210.93 143.28 203.65 144.93 196.92 146.38 C 190.93 146.84 184.78 147.21 179.09 149.28 C 172.37 153.27 164.36 153.68 156.74 153.76 C 158.94 152.44 161.50 151.57 163.17 149.53 C 156.96 149.71 152.40 154.27 148.82 158.81 C 143.54 159.59 138.10 158.83 132.88 160.18 C 130.54 160.88 127.91 160.76 126.22 158.81 L 127.82 160.51 C 127.12 160.67 125.72 160.98 125.02 161.14 C 125.76 161.05 127.23 160.88 127.96 160.80 L 127.46 162.19 C 132.98 161.88 138.54 163.18 143.97 161.71 C 147.51 161.34 153.95 161.37 153.39 156.22 C 161.43 155.08 169.94 156.33 177.47 152.65 C 181.00 150.32 185.42 150.56 189.22 148.88 C 193.80 148.15 198.63 148.87 203.02 146.95 C 209.78 145.15 215.28 140.72 221.04 136.99 C 224.54 133.70 223.59 128.56 223.66 124.26 C 226.66 123.02 228.69 120.26 228.87 116.99 C 228.95 112.95 229.47 108.70 228.14 104.80 C 224.80 99.77 218.41 98.60 212.92 97.44 C 209.06 96.40 204.67 98.97 204.08 103.01 C 203.82 106.66 200.04 107.90 196.93 108.02 C 201.49 110.03 206.12 112.09 210.04 115.22 C 210.10 116.43 210.15 117.64 210.20 118.85 L 209.69 117.70 C 207.77 119.07 205.89 120.49 204.05 121.96 C 202.81 120.75 201.37 119.78 199.75 119.18 C 200.59 120.88 202.11 121.93 203.85 122.58 C 202.86 123.86 201.91 125.15 200.95 126.44 C 197.96 126.64 195.06 127.47 192.38 128.79 C 192.62 128.11 193.09 126.76 193.33 126.09 C 191.58 122.11 187.66 119.88 183.76 118.43 C 186.33 121.48 189.65 123.87 191.53 127.46 L 192.17 126.08 C 192.11 127.38 192.05 128.67 191.98 129.97 L 191.99 128.66 C 188.21 130.02 184.79 132.08 181.38 134.15 C 177.15 135.17 171.05 133.33 168.50 137.96 C 166.41 133.95 163.68 130.33 161.34 126.48 C 165.45 125.45 169.61 126.12 173.67 126.98 C 173.52 126.24 173.21 124.76 173.06 124.01 C 174.93 124.58 176.82 125.14 178.71 125.65 C 178.63 124.94 178.46 123.52 178.37 122.82 C 178.80 122.42 179.66 121.62 180.09 121.23 C 177.88 122.21 175.52 122.61 173.11 122.72 C 169.16 124.72 164.24 122.55 160.68 125.65 C 157.20 123.28 153.68 120.54 151.82 116.66 C 155.21 115.64 159.40 115.89 161.89 112.96 C 165.35 108.92 171.14 107.11 176.33 107.86 C 174.99 109.55 173.25 110.82 171.01 110.85 C 167.90 111.10 166.38 114.15 164.67 116.33 C 161.49 116.95 158.20 117.83 155.93 120.33 C 158.22 120.76 160.05 119.20 162.05 118.46 C 163.96 118.10 165.88 118.63 167.78 118.79 C 167.32 118.35 166.40 117.47 165.94 117.03 C 168.02 115.36 169.85 111.43 173.07 113.12 C 176.28 113.83 176.90 117.82 179.74 119.22 C 179.55 117.51 179.33 115.80 179.08 114.10 C 177.21 113.07 175.37 111.98 173.58 110.83 C 177.19 110.12 180.79 111.00 184.32 111.68 C 187.92 112.74 187.59 117.12 189.03 119.90 C 191.40 118.42 189.92 115.54 189.97 113.40 C 190.75 113.56 192.30 113.89 193.08 114.05 C 194.90 116.14 195.99 118.70 196.73 121.34 C 197.20 121.35 198.13 121.35 198.60 121.35 C 199.17 116.88 195.95 113.53 192.19 111.76 C 190.87 109.09 196.88 109.45 196.30 106.65 C 194.66 104.42 191.59 104.09 189.09 103.38 C 185.16 102.49 179.68 103.22 178.09 107.52 C 180.32 106.52 182.43 104.91 184.97 104.83 C 188.25 104.95 191.46 105.95 194.31 107.54 C 192.69 108.48 190.11 108.80 190.10 111.17 C 188.43 113.54 186.14 110.30 185.11 108.89 C 184.11 108.59 182.12 107.98 181.13 107.67 L 181.53 110.31 C 181.26 109.83 180.73 108.88 180.46 108.40 C 178.96 108.51 177.47 108.61 175.97 108.70 L 177.53 106.98 C 174.48 106.07 170.96 104.77 168.29 107.28 C 164.18 107.58 161.38 110.49 158.76 113.33 C 154.76 113.34 150.61 114.06 147.67 117.01 C 153.20 121.77 159.58 126.09 162.53 133.04 C 158.25 130.48 154.96 126.54 152.11 122.53 C 150.83 122.84 150.06 123.86 149.11 124.61 C 147.59 122.74 148.32 120.03 147.50 117.86 C 145.14 110.69 141.97 103.67 137.29 97.70 C 135.56 95.46 133.31 93.61 132.11 91.00 C 129.44 85.01 124.06 80.99 119.65 76.36 C 113.12 68.53 105.64 61.40 97.19 55.68 C 93.34 52.29 90.14 48.23 87.69 43.72 C 88.42 40.25 88.04 36.57 89.38 33.23 C 90.71 29.98 91.34 26.50 91.89 23.05 C 92.66 18.52 90.25 14.32 88.13 10.51 C 86.07 10.89 84.01 11.31 81.96 11.76 C 80.38 11.05 78.83 9.83 77.00 10.14 C 73.69 10.35 71.33 12.92 68.88 14.84 M 182.96 113.36 C 181.93 114.35 183.30 116.68 184.64 115.80 C 185.70 114.80 184.32 112.49 182.96 113.36 M 199.76 116.12 C 201.09 117.77 203.63 115.81 201.60 114.42 C 200.27 112.51 197.82 114.75 199.76 116.12 M 183.00 123.32 C 183.78 124.45 184.64 125.53 185.54 126.57 C 185.77 127.13 186.23 128.26 186.46 128.82 C 186.91 128.78 187.80 128.69 188.25 128.65 C 188.24 127.68 188.23 126.71 188.23 125.74 C 186.59 124.73 184.85 123.88 183.00 123.32 M 203.80 134.03 C 206.21 134.53 208.63 135.01 211.07 135.40 C 212.47 136.69 213.77 133.54 211.96 133.66 C 209.32 132.52 206.28 132.53 203.80 134.03 M 202.46 140.31 C 200.63 141.01 198.70 141.37 196.83 141.94 C 198.19 142.26 199.57 142.64 200.98 142.58 C 205.40 142.92 207.81 138.45 210.08 135.42 C 206.69 135.46 205.05 138.70 202.46 140.31 M 186.20 144.09 C 190.33 142.73 193.89 140.03 198.24 139.23 C 198.29 138.79 198.39 137.91 198.44 137.47 C 193.74 138.27 189.12 140.14 186.20 144.09 M 171.92 143.11 C 175.43 143.33 178.84 144.26 182.31 144.79 C 182.55 144.42 183.03 143.69 183.27 143.32 C 179.57 142.24 175.61 141.70 171.92 143.11 Z" />
<path fill="#FFFFFF" opacity="1.00" d=" M 74.90 12.68 C 77.21 11.26 79.83 12.84 82.07 13.60 C 80.97 14.38 79.87 15.16 78.76 15.93 C 76.54 14.92 74.26 15.04 73.02 17.50 C 74.07 17.32 76.17 16.95 77.23 16.77 C 74.42 19.40 73.01 22.96 71.42 26.35 C 68.95 29.02 65.78 31.93 66.77 35.96 C 62.28 39.53 57.94 44.75 59.20 50.91 C 56.59 48.80 52.65 46.30 53.46 42.40 C 55.10 37.23 59.28 33.42 61.75 28.67 C 63.42 26.08 64.11 23.08 64.93 20.15 C 68.13 17.52 71.36 14.86 74.90 12.68 Z" />
<path fill="#FFFFFF" opacity="1.00" d=" M 77.69 19.69 C 80.47 17.24 82.58 14.05 85.79 12.10 C 91.64 16.22 90.39 24.52 88.47 30.38 C 85.74 35.16 85.76 40.79 85.30 46.12 C 88.23 48.72 89.86 52.48 92.98 54.90 C 100.19 60.62 107.69 66.08 114.09 72.73 C 116.60 75.65 118.96 78.69 121.71 81.39 C 121.13 82.38 120.54 83.37 119.95 84.36 C 120.80 85.86 121.29 87.78 122.98 88.59 C 124.90 87.35 122.22 85.31 121.79 83.96 C 122.12 83.54 122.46 83.13 122.81 82.72 C 125.33 85.57 128.28 88.06 130.09 91.48 C 128.83 91.77 127.57 92.07 126.31 92.39 C 129.54 94.76 133.49 96.45 135.79 99.88 C 138.73 105.12 142.13 110.13 144.13 115.84 C 145.77 119.84 146.44 124.17 148.31 128.09 C 145.38 130.82 142.07 133.91 137.79 133.87 C 133.65 133.87 129.02 134.06 125.49 131.56 C 122.75 128.35 121.24 124.18 120.38 120.09 C 119.62 112.52 119.87 104.39 115.56 97.73 C 112.30 91.74 104.66 90.61 100.72 85.27 C 97.69 82.08 96.23 77.85 93.78 74.28 C 88.95 68.77 83.63 63.73 77.93 59.13 C 73.40 56.96 68.79 54.91 64.14 53.00 C 61.06 51.67 60.49 47.73 61.44 44.84 C 64.34 39.03 71.85 36.96 73.89 30.59 C 75.38 27.03 74.62 22.48 77.69 19.69 M 84.94 16.61 C 85.27 19.19 85.18 22.41 87.91 23.75 C 87.22 21.37 88.04 17.45 84.94 16.61 M 83.01 30.16 C 85.61 29.07 86.85 26.49 87.85 24.03 C 85.30 25.13 84.26 27.90 83.01 30.16 M 71.50 42.39 C 70.41 43.50 69.58 44.83 68.89 46.22 C 69.73 45.55 70.54 44.87 71.35 44.17 C 74.65 43.90 74.69 48.60 75.86 50.80 C 77.53 52.15 79.15 53.57 80.84 54.90 C 81.13 51.87 78.60 50.43 76.34 49.11 C 76.20 47.30 76.03 45.49 75.76 43.69 C 74.48 43.46 73.36 42.81 72.32 42.08 L 71.50 42.39 M 94.88 65.86 C 95.47 69.32 98.89 70.76 101.52 72.46 C 106.46 75.27 109.42 80.55 114.62 83.00 C 114.65 83.49 114.72 84.46 114.75 84.95 C 114.98 84.48 115.42 83.55 115.64 83.09 C 112.05 79.11 108.52 75.00 104.25 71.73 C 101.16 69.72 98.03 67.78 94.88 65.86 M 114.93 91.03 C 117.32 95.26 120.42 99.08 122.36 103.60 C 124.25 101.97 122.60 99.78 121.90 98.04 C 120.36 95.14 118.62 91.42 114.93 91.03 M 125.04 97.64 C 125.94 100.63 127.07 103.60 126.96 106.79 C 127.11 114.27 129.58 122.56 135.86 127.14 C 134.21 120.84 128.58 115.91 128.89 109.04 C 128.80 105.06 129.66 99.47 125.04 97.64 Z" />
<path fill="#FFFFFF" opacity="1.00" d=" M 76.50 62.37 C 79.24 62.89 81.65 64.36 83.57 66.36 C 87.69 70.65 92.39 74.64 94.92 80.16 C 96.47 83.68 98.68 86.90 101.67 89.36 C 105.21 92.54 110.57 93.57 113.04 97.92 C 117.55 107.37 115.71 118.51 120.43 127.91 C 116.42 126.59 111.83 126.35 108.48 123.55 C 106.44 121.00 105.17 117.88 104.20 114.78 C 103.85 108.82 103.54 102.80 102.04 96.99 C 101.15 94.75 99.04 93.31 97.88 91.22 C 94.55 85.29 87.53 82.56 84.47 76.39 C 82.14 71.54 79.60 66.78 76.50 62.37 M 104.12 91.75 C 105.49 95.05 105.99 99.47 109.20 101.55 C 109.05 97.80 107.76 93.51 104.12 91.75 Z" />
<path fill="#FFFFFF" opacity="1.00" d=" M 206.92 100.96 C 209.29 98.33 213.02 100.35 215.93 100.68 C 220.37 101.34 225.80 102.96 226.96 107.96 C 227.47 112.76 227.73 118.57 224.01 122.24 C 221.68 119.63 218.63 118.04 215.43 116.76 C 211.36 113.90 207.80 110.23 202.86 108.82 C 205.44 106.90 205.90 103.77 206.92 100.96 Z" />
<path fill="#FFFFFF" opacity="1.00" d=" M 109.71 126.64 C 112.99 127.66 116.30 128.57 119.56 129.63 C 122.15 130.36 122.70 133.27 123.82 135.34 C 125.30 138.18 126.60 141.10 127.55 144.16 C 127.94 143.88 128.71 143.33 129.10 143.05 C 129.10 139.94 127.14 137.32 126.33 134.40 C 131.60 136.47 137.76 137.23 143.12 135.07 C 146.91 132.49 150.72 129.58 153.13 125.59 C 154.49 128.20 155.50 131.12 157.82 133.09 C 156.79 135.07 155.77 137.08 155.40 139.31 C 157.29 138.05 158.68 136.24 159.91 134.37 C 159.08 136.96 158.36 139.59 157.44 142.15 C 153.45 144.02 150.67 147.76 146.50 149.30 C 141.03 151.41 135.76 154.21 130.02 155.55 C 126.94 155.67 125.42 152.35 123.39 150.58 C 120.54 148.05 118.39 144.41 114.60 143.19 C 113.87 141.03 113.83 138.74 113.37 136.54 C 112.20 134.95 110.71 133.64 109.38 132.19 C 109.60 130.35 109.71 128.50 109.71 126.64 Z" />
</g>
<g id="#50524eff">
<path fill="#333333" opacity="1.00" d=" M 68.88 14.84 C 71.33 12.92 73.69 10.35 77.00 10.14 C 78.83 9.83 80.38 11.05 81.96 11.76 C 84.01 11.31 86.07 10.89 88.13 10.51 C 90.25 14.32 92.66 18.52 91.89 23.05 C 91.34 26.50 90.71 29.98 89.38 33.23 C 88.04 36.57 88.42 40.25 87.69 43.72 C 90.14 48.23 93.34 52.29 97.19 55.68 C 105.64 61.40 113.12 68.53 119.65 76.36 C 124.06 80.99 129.44 85.01 132.11 91.00 C 133.31 93.61 135.56 95.46 137.29 97.70 C 141.97 103.67 145.14 110.69 147.50 117.86 C 148.32 120.03 147.59 122.74 149.11 124.61 C 150.06 123.86 150.83 122.84 152.11 122.53 C 154.96 126.54 158.25 130.48 162.53 133.04 C 159.58 126.09 153.20 121.77 147.67 117.01 C 150.61 114.06 154.76 113.34 158.76 113.33 C 161.38 110.49 164.18 107.58 168.29 107.28 C 170.96 104.77 174.48 106.07 177.53 106.98 L 175.97 108.70 C 177.47 108.61 178.96 108.51 180.46 108.40 C 180.73 108.88 181.26 109.83 181.53 110.31 L 181.13 107.67 C 182.12 107.98 184.11 108.59 185.11 108.89 C 186.14 110.30 188.43 113.54 190.10 111.17 C 190.11 108.80 192.69 108.48 194.31 107.54 C 191.46 105.95 188.25 104.95 184.97 104.83 C 182.43 104.91 180.32 106.52 178.09 107.52 C 179.68 103.22 185.16 102.49 189.09 103.38 C 191.59 104.09 194.66 104.42 196.30 106.65 C 196.88 109.45 190.87 109.09 192.19 111.76 C 195.95 113.53 199.17 116.88 198.60 121.35 C 198.13 121.35 197.20 121.35 196.73 121.34 C 195.99 118.70 194.90 116.14 193.08 114.05 C 192.30 113.89 190.75 113.56 189.97 113.40 C 189.92 115.54 191.40 118.42 189.03 119.90 C 187.59 117.12 187.92 112.74 184.32 111.68 C 180.79 111.00 177.19 110.12 173.58 110.83 C 175.37 111.98 177.21 113.07 179.08 114.10 C 179.33 115.80 179.55 117.51 179.74 119.22 C 176.90 117.82 176.28 113.83 173.07 113.12 C 169.85 111.43 168.02 115.36 165.94 117.03 C 166.40 117.47 167.32 118.35 167.78 118.79 C 165.88 118.63 163.96 118.10 162.05 118.46 C 160.05 119.20 158.22 120.76 155.93 120.33 C 158.20 117.83 161.49 116.95 164.67 116.33 C 166.38 114.15 167.90 111.10 171.01 110.85 C 173.25 110.82 174.99 109.55 176.33 107.86 C 171.14 107.11 165.35 108.92 161.89 112.96 C 159.40 115.89 155.21 115.64 151.82 116.66 C 153.68 120.54 157.20 123.28 160.68 125.65 C 164.24 122.55 169.16 124.72 173.11 122.72 C 175.52 122.61 177.88 122.21 180.09 121.23 C 179.66 121.62 178.80 122.42 178.37 122.82 C 178.46 123.52 178.63 124.94 178.71 125.65 C 176.82 125.14 174.93 124.58 173.06 124.01 C 173.21 124.76 173.52 126.24 173.67 126.98 C 169.61 126.12 165.45 125.45 161.34 126.48 C 163.68 130.33 166.41 133.95 168.50 137.96 C 171.05 133.33 177.15 135.17 181.38 134.15 C 184.79 132.08 188.21 130.02 191.99 128.66 L 191.98 129.97 C 192.05 128.67 192.11 127.38 192.17 126.08 L 191.53 127.46 C 189.65 123.87 186.33 121.48 183.76 118.43 C 187.66 119.88 191.58 122.11 193.33 126.09 C 193.09 126.76 192.62 128.11 192.38 128.79 C 195.06 127.47 197.96 126.64 200.95 126.44 C 201.91 125.15 202.86 123.86 203.85 122.58 C 202.11 121.93 200.59 120.88 199.75 119.18 C 201.37 119.78 202.81 120.75 204.05 121.96 C 205.89 120.49 207.77 119.07 209.69 117.70 L 210.20 118.85 C 210.15 117.64 210.10 116.43 210.04 115.22 C 206.12 112.09 201.49 110.03 196.93 108.02 C 200.04 107.90 203.82 106.66 204.08 103.01 C 204.67 98.97 209.06 96.40 212.92 97.44 C 218.41 98.60 224.80 99.77 228.14 104.80 C 229.47 108.70 228.95 112.95 228.87 116.99 C 228.69 120.26 226.66 123.02 223.66 124.26 C 223.59 128.56 224.54 133.70 221.04 136.99 C 215.28 140.72 209.78 145.15 203.02 146.95 C 198.63 148.87 193.80 148.15 189.22 148.88 C 185.42 150.56 181.00 150.32 177.47 152.65 C 169.94 156.33 161.43 155.08 153.39 156.22 C 153.95 161.37 147.51 161.34 143.97 161.71 C 138.54 163.18 132.98 161.88 127.46 162.19 L 127.96 160.80 C 127.23 160.88 125.76 161.05 125.02 161.14 C 125.72 160.98 127.12 160.67 127.82 160.51 L 126.22 158.81 C 127.91 160.76 130.54 160.88 132.88 160.18 C 138.10 158.83 143.54 159.59 148.82 158.81 C 152.40 154.27 156.96 149.71 163.17 149.53 C 161.50 151.57 158.94 152.44 156.74 153.76 C 164.36 153.68 172.37 153.27 179.09 149.28 C 184.78 147.21 190.93 146.84 196.92 146.38 C 203.65 144.93 210.93 143.28 215.69 137.93 C 220.74 136.39 223.34 130.84 221.93 125.85 C 221.29 120.71 215.69 119.07 211.70 117.20 C 211.71 117.80 211.74 118.99 211.75 119.58 C 207.97 120.50 205.80 123.60 203.62 126.53 C 201.89 129.07 198.55 128.75 195.93 129.60 C 191.54 130.46 187.92 133.20 183.95 135.08 C 184.76 135.42 186.37 136.12 187.17 136.46 C 181.34 136.85 175.09 135.50 169.67 138.33 C 169.37 138.73 168.76 139.52 168.46 139.92 C 167.84 139.98 166.60 140.09 165.98 140.15 C 165.02 138.43 165.28 134.61 162.62 134.99 C 161.96 136.73 162.27 138.64 162.18 140.45 C 162.96 140.46 164.52 140.48 165.30 140.48 C 160.08 141.83 155.57 145.15 151.67 148.76 C 148.18 150.65 144.73 152.72 140.95 153.99 C 136.45 155.46 132.11 157.77 127.27 157.72 C 125.46 154.65 122.31 157.58 120.05 158.41 C 118.93 157.89 117.81 157.37 116.69 156.86 C 116.45 154.30 116.57 151.72 116.81 149.16 C 117.43 149.84 118.04 150.52 118.65 151.21 C 118.53 152.76 118.45 154.31 118.42 155.87 C 120.40 155.81 122.26 155.14 124.04 154.30 C 120.40 149.22 114.64 146.21 111.23 140.97 C 110.30 138.03 109.64 134.93 107.54 132.53 C 108.62 127.27 104.23 123.15 103.43 118.18 C 103.09 115.80 102.92 113.38 102.19 111.08 C 100.84 106.68 101.78 101.66 99.25 97.63 C 97.38 94.57 95.55 91.46 93.31 88.66 C 89.86 85.12 85.34 82.50 82.97 78.01 C 80.26 72.14 77.14 66.44 73.40 61.16 L 76.05 61.28 C 71.63 58.98 66.75 57.47 62.90 54.18 C 59.60 51.02 53.67 50.90 52.13 45.96 C 51.46 39.46 55.00 33.13 59.91 29.00 C 62.47 24.10 64.25 18.30 68.88 14.84 M 74.90 12.68 C 71.36 14.86 68.13 17.52 64.93 20.15 C 64.11 23.08 63.42 26.08 61.75 28.67 C 59.28 33.42 55.10 37.23 53.46 42.40 C 52.65 46.30 56.59 48.80 59.20 50.91 C 57.94 44.75 62.28 39.53 66.77 35.96 C 65.78 31.93 68.95 29.02 71.42 26.35 C 73.01 22.96 74.42 19.40 77.23 16.77 C 76.17 16.95 74.07 17.32 73.02 17.50 C 74.26 15.04 76.54 14.92 78.76 15.93 C 79.87 15.16 80.97 14.38 82.07 13.60 C 79.83 12.84 77.21 11.26 74.90 12.68 M 77.69 19.69 C 74.62 22.48 75.38 27.03 73.89 30.59 C 71.85 36.96 64.34 39.03 61.44 44.84 C 60.49 47.73 61.06 51.67 64.14 53.00 C 68.79 54.91 73.40 56.96 77.93 59.13 C 83.63 63.73 88.95 68.77 93.78 74.28 C 96.23 77.85 97.69 82.08 100.72 85.27 C 104.66 90.61 112.30 91.74 115.56 97.73 C 119.87 104.39 119.62 112.52 120.38 120.09 C 121.24 124.18 122.75 128.35 125.49 131.56 C 129.02 134.06 133.65 133.87 137.79 133.87 C 142.07 133.91 145.38 130.82 148.31 128.09 C 146.44 124.17 145.77 119.84 144.13 115.84 C 142.13 110.13 138.73 105.12 135.79 99.88 C 133.49 96.45 129.54 94.76 126.31 92.39 C 127.57 92.07 128.83 91.77 130.09 91.48 C 128.28 88.06 125.33 85.57 122.81 82.72 C 122.46 83.13 122.12 83.54 121.79 83.96 C 122.22 85.31 124.90 87.35 122.98 88.59 C 121.29 87.78 120.80 85.86 119.95 84.36 C 120.54 83.37 121.13 82.38 121.71 81.39 C 118.96 78.69 116.60 75.65 114.09 72.73 C 107.69 66.08 100.19 60.62 92.98 54.90 C 89.86 52.48 88.23 48.72 85.30 46.12 C 85.76 40.79 85.74 35.16 88.47 30.38 C 90.39 24.52 91.64 16.22 85.79 12.10 C 82.58 14.05 80.47 17.24 77.69 19.69 M 76.50 62.37 C 79.60 66.78 82.14 71.54 84.47 76.39 C 87.53 82.56 94.55 85.29 97.88 91.22 C 99.04 93.31 101.15 94.75 102.04 96.99 C 103.54 102.80 103.85 108.82 104.20 114.78 C 105.17 117.88 106.44 121.00 108.48 123.55 C 111.83 126.35 116.42 126.59 120.43 127.91 C 115.71 118.51 117.55 107.37 113.04 97.92 C 110.57 93.57 105.21 92.54 101.67 89.36 C 98.68 86.90 96.47 83.68 94.92 80.16 C 92.39 74.64 87.69 70.65 83.57 66.36 C 81.65 64.36 79.24 62.89 76.50 62.37 M 206.92 100.96 C 205.90 103.77 205.44 106.90 202.86 108.82 C 207.80 110.23 211.36 113.90 215.43 116.76 C 218.63 118.04 221.68 119.63 224.01 122.24 C 227.73 118.57 227.47 112.76 226.96 107.96 C 225.80 102.96 220.37 101.34 215.93 100.68 C 213.02 100.35 209.29 98.33 206.92 100.96 M 109.71 126.64 C 109.71 128.50 109.60 130.35 109.38 132.19 C 110.71 133.64 112.20 134.95 113.37 136.54 C 113.83 138.74 113.87 141.03 114.60 143.19 C 118.39 144.41 120.54 148.05 123.39 150.58 C 125.42 152.35 126.94 155.67 130.02 155.55 C 135.76 154.21 141.03 151.41 146.50 149.30 C 150.67 147.76 153.45 144.02 157.44 142.15 C 158.36 139.59 159.08 136.96 159.91 134.37 C 158.68 136.24 157.29 138.05 155.40 139.31 C 155.77 137.08 156.79 135.07 157.82 133.09 C 155.50 131.12 154.49 128.20 153.13 125.59 C 150.72 129.58 146.91 132.49 143.12 135.07 C 137.76 137.23 131.60 136.47 126.33 134.40 C 127.14 137.32 129.10 139.94 129.10 143.05 C 128.71 143.33 127.94 143.88 127.55 144.16 C 126.60 141.10 125.30 138.18 123.82 135.34 C 122.70 133.27 122.15 130.36 119.56 129.63 C 116.30 128.57 112.99 127.66 109.71 126.64 Z" />
<path fill="#333333" opacity="1.00" d=" M 84.94 16.61 C 88.04 17.45 87.22 21.37 87.91 23.75 C 85.18 22.41 85.27 19.19 84.94 16.61 Z" />
<path fill="#333333" opacity="1.00" d=" M 83.01 30.16 C 84.26 27.90 85.30 25.13 87.85 24.03 C 86.85 26.49 85.61 29.07 83.01 30.16 Z" />
<path fill="#333333" opacity="1.00" d=" M 71.50 42.39 L 72.32 42.08 C 73.36 42.81 74.48 43.46 75.76 43.69 C 76.03 45.49 76.20 47.30 76.34 49.11 C 78.60 50.43 81.13 51.87 80.84 54.90 C 79.15 53.57 77.53 52.15 75.86 50.80 C 74.69 48.60 74.65 43.90 71.35 44.17 C 70.54 44.87 69.73 45.55 68.89 46.22 C 69.58 44.83 70.41 43.50 71.50 42.39 Z" />
<path fill="#333333" opacity="1.00" d=" M 94.88 65.86 C 98.03 67.78 101.16 69.72 104.25 71.73 C 108.52 75.00 112.05 79.11 115.64 83.09 C 115.42 83.55 114.98 84.48 114.75 84.95 C 114.72 84.46 114.65 83.49 114.62 83.00 C 109.42 80.55 106.46 75.27 101.52 72.46 C 98.89 70.76 95.47 69.32 94.88 65.86 Z" />
<path fill="#333333" opacity="1.00" d=" M 114.93 91.03 C 118.62 91.42 120.36 95.14 121.90 98.04 C 122.60 99.78 124.25 101.97 122.36 103.60 C 120.42 99.08 117.32 95.26 114.93 91.03 Z" />
<path fill="#333333" opacity="1.00" d=" M 104.12 91.75 C 107.76 93.51 109.05 97.80 109.20 101.55 C 105.99 99.47 105.49 95.05 104.12 91.75 Z" />
<path fill="#333333" opacity="1.00" d=" M 125.04 97.64 C 129.66 99.47 128.80 105.06 128.89 109.04 C 128.58 115.91 134.21 120.84 135.86 127.14 C 129.58 122.56 127.11 114.27 126.96 106.79 C 127.07 103.60 125.94 100.63 125.04 97.64 Z" />
<path fill="#333333" opacity="1.00" d=" M 182.96 113.36 C 184.32 112.49 185.70 114.80 184.64 115.80 C 183.30 116.68 181.93 114.35 182.96 113.36 Z" />
<path fill="#333333" opacity="1.00" d=" M 199.76 116.12 C 197.82 114.75 200.27 112.51 201.60 114.42 C 203.63 115.81 201.09 117.77 199.76 116.12 Z" />
<path fill="#333333" opacity="1.00" d=" M 183.00 123.32 C 184.85 123.88 186.59 124.73 188.23 125.74 C 188.23 126.71 188.24 127.68 188.25 128.65 C 187.80 128.69 186.91 128.78 186.46 128.82 C 186.23 128.26 185.77 127.13 185.54 126.57 C 184.64 125.53 183.78 124.45 183.00 123.32 Z" />
<path fill="#333333" opacity="1.00" d=" M 203.80 134.03 C 206.28 132.53 209.32 132.52 211.96 133.66 C 213.77 133.54 212.47 136.69 211.07 135.40 C 208.63 135.01 206.21 134.53 203.80 134.03 Z" />
<path fill="#333333" opacity="1.00" d=" M 202.46 140.31 C 205.05 138.70 206.69 135.46 210.08 135.42 C 207.81 138.45 205.40 142.92 200.98 142.58 C 199.57 142.64 198.19 142.26 196.83 141.94 C 198.70 141.37 200.63 141.01 202.46 140.31 Z" />
<path fill="#333333" opacity="1.00" d=" M 186.20 144.09 C 189.12 140.14 193.74 138.27 198.44 137.47 C 198.39 137.91 198.29 138.79 198.24 139.23 C 193.89 140.03 190.33 142.73 186.20 144.09 Z" />
<path fill="#333333" opacity="1.00" d=" M 171.92 143.11 C 175.61 141.70 179.57 142.24 183.27 143.32 C 183.03 143.69 182.55 144.42 182.31 144.79 C 178.84 144.26 175.43 143.33 171.92 143.11 Z" />
</g>
</svg>
