<?xml version="1.0" encoding="UTF-8" ?>
<!DOCTYPE svg PUBLIC "-//W3C//DTD SVG 1.1//EN" "http://www.w3.org/Graphics/SVG/1.1/DTD/svg11.dtd">
<svg width="276pt" height="225pt" viewBox="0 0 276 225" version="1.1" xmlns="http://www.w3.org/2000/svg">
<g id="#ffffffff">
<path fill="#FFFFFF" opacity="1.00" d=" M 0.00 0.00 L 276.00 0.00 L 276.00 225.00 L 0.00 225.00 L 0.00 0.00 M 143.64 41.54 C 141.47 44.08 142.82 48.00 145.50 49.57 C 150.45 53.63 157.15 53.54 163.19 54.01 C 159.84 56.35 155.76 57.14 151.76 56.36 C 149.07 59.97 147.46 64.21 145.01 67.97 C 143.97 69.24 144.06 70.85 144.37 72.37 C 144.05 73.54 143.70 74.69 143.36 75.85 C 141.16 80.31 140.54 85.70 136.70 89.21 C 136.92 92.18 137.38 95.15 138.27 98.00 C 139.82 95.37 138.95 92.13 140.39 89.45 C 141.09 92.86 142.02 96.45 140.92 99.89 C 139.57 104.08 140.09 108.62 138.28 112.69 C 137.01 112.68 135.51 111.76 134.37 112.66 C 136.12 115.62 140.15 115.33 142.13 118.00 C 144.38 120.79 146.01 124.24 145.78 127.90 C 144.22 127.64 142.42 128.11 141.01 127.26 C 139.49 125.75 138.33 123.93 136.87 122.36 C 136.26 126.17 139.35 130.08 143.17 130.19 C 145.98 128.77 147.87 126.03 149.05 123.18 C 151.63 120.50 154.12 117.73 156.44 114.82 C 151.95 114.95 150.76 120.29 148.19 123.11 C 145.59 119.67 143.64 115.46 139.37 113.74 C 141.63 109.63 141.33 104.89 142.24 100.43 C 142.60 100.28 143.30 99.97 143.66 99.82 C 143.22 94.26 139.87 88.30 143.01 83.01 C 144.36 79.88 147.17 76.46 144.71 73.00 C 149.82 78.62 157.94 78.18 164.85 78.14 C 164.13 77.57 163.41 77.01 162.68 76.46 C 157.84 76.70 152.48 76.67 148.41 73.66 C 147.32 72.78 145.94 71.57 146.18 70.02 C 148.64 65.90 149.43 60.92 153.05 57.51 C 154.02 57.52 155.96 57.54 156.93 57.56 C 156.80 60.64 156.74 63.73 156.64 66.81 C 158.23 68.09 160.01 69.43 162.19 69.23 C 166.37 67.14 164.03 61.63 164.12 57.98 C 163.55 57.26 163.04 56.50 162.58 55.71 C 163.13 55.34 164.21 54.59 164.76 54.21 L 164.20 53.52 C 167.91 53.01 171.60 51.76 174.57 49.43 C 177.58 47.14 177.06 42.07 174.07 39.98 C 169.27 36.29 162.82 36.00 157.00 36.06 C 152.20 36.42 146.79 37.58 143.64 41.54 M 136.95 57.94 C 134.11 62.12 130.74 66.11 129.40 71.09 C 128.11 74.95 127.85 79.02 127.59 83.05 C 126.96 85.96 126.05 88.81 125.33 91.70 C 125.04 91.73 124.48 91.79 124.20 91.82 C 117.71 87.85 112.43 82.13 105.49 78.88 C 103.75 78.22 101.80 78.12 100.18 77.20 C 96.62 74.29 93.04 71.40 89.57 68.39 C 83.60 64.42 77.60 59.23 69.95 59.57 C 66.38 59.02 63.26 61.30 61.31 64.06 C 60.39 67.20 60.96 70.55 60.80 73.79 C 60.30 73.76 59.31 73.71 58.81 73.69 C 54.11 68.40 46.31 69.78 40.04 68.42 C 35.22 67.32 31.64 71.91 30.99 76.18 C 31.64 81.79 30.53 87.37 30.72 92.99 C 30.15 100.12 32.02 107.10 33.27 114.05 C 32.78 115.32 32.29 116.58 31.80 117.85 C 27.33 120.66 20.83 118.72 17.49 123.42 C 16.92 126.05 17.32 129.62 20.09 130.88 C 25.29 133.68 30.36 136.83 36.07 138.50 C 39.57 139.51 43.14 138.33 46.50 137.35 C 48.29 131.80 46.30 126.21 44.72 120.90 C 44.67 115.33 45.16 109.72 45.88 104.18 C 48.49 106.24 50.84 108.60 53.49 110.60 C 56.00 112.03 58.62 113.27 61.25 114.49 C 61.56 121.96 61.78 129.42 61.67 136.89 C 55.73 140.01 49.72 143.00 43.71 145.99 C 43.79 148.85 43.31 151.91 44.54 154.60 C 46.73 156.63 49.43 157.99 51.95 159.56 C 65.70 153.17 79.43 146.74 93.12 140.21 C 94.67 139.56 96.16 138.61 97.87 138.45 C 101.20 139.80 103.97 142.19 107.07 143.97 C 111.73 147.09 117.04 149.09 121.60 152.36 C 124.75 154.65 128.68 156.01 131.18 159.11 C 132.32 167.95 131.24 176.94 132.52 185.78 C 133.65 183.69 134.56 181.42 134.35 178.99 C 134.17 172.95 134.05 166.91 133.90 160.86 C 137.74 162.51 141.77 163.68 145.59 165.39 C 144.64 174.85 142.66 184.59 145.01 193.98 C 147.84 191.91 146.00 188.14 146.21 185.24 C 151.17 182.99 156.13 180.73 161.09 178.46 C 163.40 179.85 165.66 181.31 167.91 182.80 C 168.03 185.21 168.15 187.61 168.26 190.02 C 152.91 197.18 137.66 204.56 122.24 211.57 C 120.26 210.06 117.79 209.03 116.25 207.05 C 116.05 205.07 116.18 203.09 116.24 201.11 C 118.94 199.87 121.63 198.58 124.38 197.41 C 123.30 197.09 122.24 196.77 121.17 196.45 C 118.72 197.82 115.79 198.64 113.91 200.83 C 113.84 203.43 114.20 206.04 114.77 208.57 C 116.73 210.86 119.67 212.09 122.11 213.83 C 131.04 210.11 139.54 205.47 148.41 201.62 C 155.77 198.04 163.31 194.82 170.50 190.91 C 170.40 187.42 170.20 183.91 169.38 180.50 C 166.12 179.11 162.98 174.71 159.21 177.02 C 154.99 179.16 150.64 181.05 146.34 183.03 C 146.64 177.19 146.52 171.35 146.50 165.52 C 153.12 163.84 159.37 161.13 165.74 158.78 L 165.06 158.60 C 168.28 156.82 171.72 155.37 174.44 152.84 C 174.69 151.68 174.99 150.54 175.35 149.42 C 176.50 148.96 177.68 148.55 178.88 148.19 C 178.59 148.11 178.02 147.96 177.73 147.88 C 180.64 144.52 183.33 140.54 183.54 135.96 C 183.26 132.05 181.20 128.56 179.76 124.99 C 177.87 120.49 173.58 117.80 170.09 114.65 C 169.04 114.74 166.95 114.91 165.90 115.00 C 166.42 114.58 167.47 113.74 167.99 113.32 C 166.65 113.43 165.32 113.50 163.99 113.69 C 164.02 114.37 164.07 115.72 164.09 116.40 C 171.00 114.98 175.67 121.54 178.03 127.07 C 180.40 131.75 179.93 137.07 179.88 142.14 C 177.52 145.04 174.88 147.85 171.35 149.30 C 170.66 149.95 169.97 150.62 169.31 151.30 L 171.95 150.03 C 171.79 150.89 171.47 152.61 171.30 153.47 C 167.82 154.98 164.34 156.50 160.84 157.96 C 155.36 160.67 149.18 163.42 142.97 162.34 C 138.27 160.32 133.87 157.53 130.06 154.12 C 126.92 151.31 122.69 150.20 119.56 147.38 C 110.04 140.92 99.10 136.89 89.70 130.23 C 85.60 127.13 80.81 125.15 76.57 122.29 C 67.98 116.10 58.20 111.74 49.87 105.16 C 46.90 102.78 43.60 100.87 40.33 98.95 C 40.63 97.48 39.63 95.35 41.30 94.48 C 42.95 93.45 45.10 90.68 46.94 92.93 C 50.22 96.18 53.20 99.93 57.58 101.78 C 57.57 102.35 57.56 103.48 57.55 104.05 C 58.58 105.18 59.46 106.50 60.78 107.32 C 66.49 110.08 72.60 111.85 78.49 114.16 C 80.77 114.99 83.49 114.96 85.32 116.76 C 87.30 118.32 89.25 120.40 91.94 120.53 C 95.06 120.90 98.08 119.93 101.05 119.11 C 103.01 123.78 106.91 127.07 110.21 130.76 C 113.02 133.83 117.42 134.61 120.42 137.46 C 123.74 140.87 128.83 141.02 133.21 141.95 C 135.11 141.23 137.03 140.56 138.96 139.93 C 138.19 139.46 137.42 139.00 136.64 138.54 C 132.12 139.27 127.71 138.02 123.48 136.57 C 119.75 131.69 113.20 130.41 109.43 125.61 C 107.40 123.16 104.82 121.21 103.10 118.50 C 101.80 116.12 98.66 116.65 96.40 116.37 C 94.29 112.56 94.20 108.34 95.30 104.20 C 99.32 97.96 105.57 93.14 113.04 92.04 C 113.49 91.62 114.39 90.78 114.84 90.36 C 116.53 90.31 118.23 90.24 119.92 90.17 C 120.18 90.67 120.71 91.65 120.98 92.14 C 122.36 92.34 123.75 92.51 125.14 92.68 C 123.65 95.73 121.69 98.64 120.97 102.00 C 120.32 109.06 119.89 116.17 121.16 123.19 C 121.65 123.38 122.63 123.76 123.12 123.95 C 122.56 125.60 121.99 127.24 121.49 128.91 C 125.88 126.48 126.36 120.95 128.11 116.72 C 126.57 118.84 125.05 120.96 123.45 123.03 C 123.52 114.46 120.73 105.15 125.47 97.30 C 125.99 99.04 126.41 100.82 126.99 102.55 C 127.76 101.46 128.01 100.28 127.74 99.00 C 126.71 94.24 128.63 89.60 129.89 85.09 C 130.24 80.54 130.18 75.87 131.74 71.51 C 133.98 62.87 142.92 57.77 144.40 48.82 C 141.13 51.16 139.23 54.74 136.95 57.94 M 171.21 61.93 C 170.30 61.90 168.48 61.83 167.58 61.79 C 171.06 63.59 174.98 65.22 176.88 68.92 C 174.05 73.13 169.33 75.82 164.25 76.06 C 164.97 76.58 165.70 77.10 166.44 77.62 C 170.59 76.63 174.52 74.70 177.51 71.60 C 177.29 69.88 177.59 67.98 176.81 66.38 C 175.32 64.40 173.35 62.63 172.94 60.05 C 171.87 57.13 173.11 54.13 173.52 51.22 C 169.52 53.14 168.85 58.46 171.21 61.93 M 136.76 68.59 C 142.19 66.11 143.20 59.75 144.74 54.63 C 141.81 59.12 139.26 63.86 136.76 68.59 M 176.31 79.90 C 174.43 87.54 184.13 92.34 182.72 100.03 C 181.87 103.85 183.79 107.32 184.50 110.96 C 184.74 115.29 182.35 119.07 179.93 122.44 C 182.36 121.43 184.99 119.86 185.67 117.12 C 187.37 112.42 186.24 107.38 184.33 102.95 C 187.05 97.18 182.86 91.74 180.06 86.96 C 179.23 85.09 177.33 83.32 178.04 81.13 C 178.81 77.91 178.37 74.62 177.64 71.44 C 175.72 73.91 176.86 77.07 176.31 79.90 M 166.20 77.51 C 167.01 79.10 167.94 80.63 168.90 82.13 C 168.57 82.84 167.90 84.26 167.56 84.96 C 166.17 82.60 165.28 79.72 162.79 78.22 C 163.25 81.04 164.50 83.61 165.81 86.11 C 163.38 92.06 164.65 98.54 167.10 104.27 C 164.63 102.64 162.46 100.52 159.74 99.30 C 157.49 98.22 154.97 99.02 152.64 99.32 C 149.49 97.93 146.52 95.97 143.05 95.44 C 144.22 98.55 147.76 99.15 150.31 100.70 C 148.78 103.51 144.64 102.68 143.26 105.73 C 147.05 105.00 150.97 105.03 154.32 107.18 C 155.32 108.08 156.35 108.93 157.42 109.74 C 157.26 105.99 153.50 104.78 150.87 103.03 C 153.12 100.76 156.65 100.83 159.54 101.54 C 163.18 104.05 166.84 106.53 170.64 108.81 C 170.27 110.41 169.89 112.01 169.51 113.62 C 170.01 113.62 171.01 113.63 171.52 113.64 C 171.98 110.95 172.32 108.16 173.80 105.81 C 174.43 104.12 176.24 102.26 174.84 100.50 C 173.83 102.05 172.81 103.60 171.69 105.08 L 171.27 106.58 C 167.67 103.41 167.59 98.27 166.65 93.90 C 165.83 90.25 168.34 87.24 169.87 84.20 C 170.91 84.91 171.98 85.59 173.07 86.23 C 172.09 82.52 169.69 79.23 166.20 77.51 M 174.91 89.02 C 174.44 93.65 175.03 101.16 180.94 101.68 C 179.54 99.25 177.01 97.09 177.24 94.03 C 177.04 92.01 177.79 89.20 174.91 89.02 M 131.62 90.68 C 131.43 93.85 131.71 97.02 131.47 100.18 C 130.13 102.49 126.64 103.87 127.30 107.02 C 127.15 109.94 129.69 111.57 131.96 112.73 C 133.48 110.95 135.00 109.18 136.56 107.44 C 136.50 105.94 136.44 104.44 136.37 102.94 C 135.47 105.83 134.80 109.04 131.98 110.71 C 130.15 109.44 127.68 106.39 130.25 104.62 C 134.53 101.37 134.63 94.81 131.62 90.68 M 100.51 103.94 C 105.13 105.11 110.01 107.05 111.91 111.81 C 110.96 109.82 110.01 107.83 109.15 105.80 C 106.98 103.87 104.78 101.97 102.51 100.16 C 101.82 101.40 101.15 102.66 100.51 103.94 M 174.81 116.36 C 175.09 116.78 175.65 117.64 175.93 118.06 C 176.26 117.59 176.92 116.64 177.26 116.16 C 177.27 113.21 177.37 110.16 175.98 107.46 C 174.52 110.20 174.90 113.37 174.81 116.36 M 114.70 122.88 C 111.84 120.87 108.90 118.91 105.58 117.74 C 106.38 120.87 109.62 122.18 112.15 123.67 C 114.44 125.22 117.06 123.51 119.37 123.01 L 119.00 120.70 C 118.31 120.94 116.92 121.42 116.23 121.66 C 116.25 119.84 116.25 118.02 116.22 116.20 C 112.98 116.88 114.46 120.68 114.70 122.88 M 156.70 127.97 C 160.32 124.90 161.41 120.01 163.62 115.99 C 159.47 118.51 157.24 123.28 156.70 127.97 M 134.48 126.97 C 134.73 127.72 135.23 129.21 135.48 129.96 C 134.27 131.14 133.09 132.35 132.01 133.64 C 134.81 133.79 136.92 131.83 138.92 130.17 C 137.63 128.86 136.24 127.62 134.48 126.97 M 155.98 138.05 C 154.37 137.87 152.95 136.48 151.30 136.56 C 147.28 139.13 142.40 137.20 137.99 137.81 C 142.58 143.32 149.90 140.49 155.93 140.27 C 156.88 145.03 160.59 148.08 164.61 150.31 C 165.80 150.43 168.17 150.69 169.35 150.81 C 169.29 150.26 169.15 149.16 169.08 148.60 C 163.95 147.79 160.64 143.44 157.71 139.57 C 158.74 139.60 160.80 139.65 161.83 139.68 C 159.38 137.70 157.51 135.21 157.26 131.97 C 158.25 130.71 159.24 129.45 160.19 128.16 C 156.62 129.81 153.21 134.25 155.98 138.05 Z" />
<path fill="#FFFFFF" opacity="1.00" d=" M 146.38 41.26 C 151.48 37.05 158.64 36.96 164.89 37.75 C 169.47 38.26 173.99 40.71 175.92 45.07 C 172.86 49.68 167.42 51.86 162.05 52.07 C 156.09 52.48 149.29 51.42 145.17 46.69 C 144.52 44.87 144.58 42.42 146.38 41.26 Z" />
<path fill="#FFFFFF" opacity="1.00" d=" M 160.72 56.07 C 163.78 58.82 162.13 63.29 162.49 66.87 C 161.53 66.77 159.62 66.57 158.66 66.46 C 158.61 64.25 158.14 61.86 159.41 59.88 C 159.30 58.46 159.59 57.10 160.72 56.07 Z" />
<path fill="#FFFFFF" opacity="1.00" d=" M 64.36 63.18 C 68.13 60.54 72.88 61.33 76.81 63.15 C 82.77 65.77 88.42 69.29 92.90 74.06 C 90.97 74.40 89.05 74.74 87.13 75.10 C 89.66 76.87 92.94 76.05 95.63 77.42 C 95.93 77.08 96.53 76.41 96.83 76.07 C 98.70 77.81 100.63 79.49 102.71 80.99 C 104.30 80.98 106.12 80.43 107.47 81.59 C 110.51 83.96 113.77 86.00 117.06 88.00 C 116.85 88.51 116.43 89.52 116.23 90.03 C 114.86 89.77 113.50 89.51 112.13 89.25 C 108.84 91.57 104.63 92.04 101.52 94.66 C 98.62 96.97 95.02 98.81 93.40 102.35 C 92.53 105.17 92.15 108.15 92.11 111.09 C 92.33 113.70 95.03 115.00 96.52 116.83 C 87.30 118.00 79.97 111.57 71.88 108.48 C 68.35 107.76 65.12 106.20 61.84 104.78 C 61.13 100.91 58.93 97.06 60.17 93.06 C 61.08 87.96 64.70 83.19 69.81 81.80 C 74.02 81.49 78.00 83.11 81.54 85.23 C 85.26 87.42 90.07 86.80 93.25 83.95 C 89.86 83.58 86.52 84.50 83.13 84.55 C 83.16 83.69 83.21 81.97 83.23 81.11 C 84.45 79.48 85.70 77.81 87.56 76.87 C 86.87 76.42 86.18 75.97 85.49 75.53 C 83.63 77.52 81.88 79.60 80.18 81.72 C 76.66 80.46 72.93 80.19 69.23 80.36 C 68.80 79.33 68.45 78.27 68.19 77.19 C 70.58 76.95 72.99 77.38 75.39 77.40 C 72.78 75.73 69.75 74.84 66.69 74.47 C 66.47 74.83 66.04 75.53 65.83 75.89 C 64.80 76.41 63.63 76.22 62.30 75.30 C 63.40 72.57 61.99 68.04 65.45 66.85 C 64.91 66.73 63.83 66.50 63.29 66.38 C 63.56 65.58 64.09 63.98 64.36 63.18 M 65.62 69.26 L 66.81 70.98 C 70.87 71.98 75.09 71.62 79.23 71.59 C 75.14 69.10 70.16 69.91 65.62 69.26 M 75.17 97.07 C 75.42 96.07 75.67 95.08 75.91 94.08 C 77.83 92.60 80.57 91.30 80.29 88.40 C 76.83 89.95 75.10 93.38 75.17 97.07 M 90.21 92.36 L 90.57 90.15 C 89.36 92.17 88.11 94.17 86.97 96.23 C 87.18 96.48 87.61 96.99 87.82 97.24 C 87.79 97.46 87.73 97.89 87.69 98.11 C 85.34 99.38 82.94 100.61 80.88 102.33 C 81.53 102.38 82.83 102.46 83.49 102.51 C 86.80 100.86 90.18 99.30 93.84 98.58 C 93.73 98.14 93.52 97.26 93.41 96.82 C 92.59 96.96 90.95 97.24 90.13 97.38 L 89.83 96.87 C 90.87 92.79 95.77 90.83 99.68 90.28 C 99.69 90.04 99.70 89.56 99.71 89.32 C 96.49 90.16 92.80 89.92 90.21 92.36 Z" />
<path fill="#FFFFFF" opacity="1.00" d=" M 36.05 70.98 C 40.88 69.86 46.12 68.92 50.79 71.18 C 56.93 74.30 62.90 77.76 69.15 80.70 C 64.98 82.22 60.92 84.65 58.71 88.64 C 56.74 91.52 56.95 95.13 56.85 98.45 C 52.87 95.82 49.57 92.26 45.29 90.08 C 43.36 91.23 41.05 91.82 39.40 93.38 C 38.20 95.37 38.44 97.92 38.65 100.15 C 40.06 101.39 41.75 102.28 43.36 103.24 C 43.45 107.14 42.51 111.00 42.75 114.90 C 43.32 121.76 45.48 128.46 44.85 135.41 C 38.14 138.45 31.79 133.61 25.63 131.46 C 21.95 130.17 19.06 127.37 18.00 123.56 C 23.57 121.99 29.67 121.81 34.63 118.54 C 35.23 113.89 34.04 109.22 33.40 104.64 C 33.74 104.55 34.44 104.38 34.79 104.29 C 35.77 108.02 36.63 111.85 38.76 115.14 C 38.53 110.35 36.68 105.81 36.49 101.02 C 35.85 96.47 37.03 91.99 37.53 87.50 C 37.04 87.49 36.06 87.48 35.57 87.47 C 34.77 91.70 34.03 95.96 34.22 100.29 C 34.40 100.98 33.79 104.06 33.05 102.10 C 31.50 97.49 32.66 92.67 32.39 87.94 C 32.25 84.24 33.27 80.62 33.20 76.92 C 33.05 74.60 34.46 72.52 36.05 70.98 M 39.06 74.82 C 37.75 75.34 35.67 74.91 35.08 76.52 C 37.34 77.55 39.76 77.01 41.92 76.01 C 41.73 75.35 41.35 74.05 41.16 73.39 C 40.63 73.75 39.59 74.47 39.06 74.82 M 44.55 79.80 C 47.84 81.11 51.24 82.12 54.64 83.10 C 53.01 79.46 47.99 78.07 44.55 79.80 M 38.87 83.79 C 38.74 84.24 38.50 85.14 38.37 85.59 C 40.57 85.83 43.24 85.15 44.79 87.17 C 47.45 89.89 50.63 92.11 54.30 93.19 C 53.20 89.38 48.36 88.96 46.28 85.78 C 44.71 83.02 41.54 83.55 38.87 83.79 M 40.01 119.49 C 40.10 120.87 39.79 122.06 39.06 123.04 C 36.63 124.41 33.83 124.75 31.16 125.35 C 32.11 126.12 33.07 126.88 34.03 127.65 C 35.63 126.98 36.85 123.96 38.78 125.20 C 39.63 126.47 40.41 127.79 41.38 128.98 C 41.80 126.03 42.02 123.06 41.99 120.09 C 41.34 119.86 40.68 119.67 40.01 119.49 Z" />
<path fill="#FFFFFF" opacity="1.00" d=" M 63.81 138.13 C 64.04 130.53 63.73 122.93 63.24 115.34 C 68.50 119.65 74.69 122.64 80.05 126.83 C 77.98 128.22 75.34 128.97 74.07 131.32 C 77.19 130.84 80.02 129.42 82.88 128.16 C 86.87 131.22 90.96 134.12 95.05 137.05 C 81.93 143.31 68.70 149.35 55.60 155.68 C 54.45 156.21 53.29 156.77 52.03 157.01 C 49.91 156.25 48.13 154.82 46.24 153.64 C 46.00 151.63 45.77 149.61 45.53 147.59 C 51.42 144.07 57.79 141.42 63.81 138.13 Z" />
</g>
<g id="#585a57ff">
<path fill="#333333" opacity="1.00" d=" M 143.64 41.54 C 146.79 37.58 152.20 36.42 157.00 36.06 C 162.82 36.00 169.27 36.29 174.07 39.98 C 177.06 42.07 177.58 47.14 174.57 49.43 C 171.60 51.76 167.91 53.01 164.20 53.52 L 164.76 54.21 C 164.21 54.59 163.13 55.34 162.58 55.71 C 163.04 56.50 163.55 57.26 164.12 57.98 C 164.03 61.63 166.37 67.14 162.19 69.23 C 160.01 69.43 158.23 68.09 156.64 66.81 C 156.74 63.73 156.80 60.64 156.93 57.56 C 155.96 57.54 154.02 57.52 153.05 57.51 C 149.43 60.92 148.64 65.90 146.18 70.02 C 145.94 71.57 147.32 72.78 148.41 73.66 C 152.48 76.67 157.84 76.70 162.68 76.46 C 163.41 77.01 164.13 77.57 164.85 78.14 C 157.94 78.18 149.82 78.62 144.71 73.00 C 147.17 76.46 144.36 79.88 143.01 83.01 C 139.87 88.30 143.22 94.26 143.66 99.82 C 143.30 99.97 142.60 100.28 142.24 100.43 C 141.33 104.89 141.63 109.63 139.37 113.74 C 143.64 115.46 145.59 119.67 148.19 123.11 C 150.76 120.29 151.95 114.95 156.44 114.82 C 154.12 117.73 151.63 120.50 149.05 123.18 C 147.87 126.03 145.98 128.77 143.17 130.19 C 139.35 130.08 136.26 126.17 136.87 122.36 C 138.33 123.93 139.49 125.75 141.01 127.26 C 142.42 128.11 144.22 127.64 145.78 127.90 C 146.01 124.24 144.38 120.79 142.13 118.00 C 140.15 115.33 136.12 115.62 134.37 112.66 C 135.51 111.76 137.01 112.68 138.28 112.69 C 140.09 108.62 139.57 104.08 140.92 99.89 C 142.02 96.45 141.09 92.86 140.39 89.45 C 138.95 92.13 139.82 95.37 138.27 98.00 C 137.38 95.15 136.92 92.18 136.70 89.21 C 140.54 85.70 141.16 80.31 143.36 75.85 C 143.70 74.69 144.05 73.54 144.37 72.37 C 144.06 70.85 143.97 69.24 145.01 67.97 C 147.46 64.21 149.07 59.97 151.76 56.36 C 155.76 57.14 159.84 56.35 163.19 54.01 C 157.15 53.54 150.45 53.63 145.50 49.57 C 142.82 48.00 141.47 44.08 143.64 41.54 M 146.38 41.26 C 144.58 42.42 144.52 44.87 145.17 46.69 C 149.29 51.42 156.09 52.48 162.05 52.07 C 167.42 51.86 172.86 49.68 175.92 45.07 C 173.99 40.71 169.47 38.26 164.89 37.75 C 158.64 36.96 151.48 37.05 146.38 41.26 M 160.72 56.07 C 159.59 57.10 159.30 58.46 159.41 59.88 C 158.14 61.86 158.61 64.25 158.66 66.46 C 159.62 66.57 161.53 66.77 162.49 66.87 C 162.13 63.29 163.78 58.82 160.72 56.07 Z" />
<path fill="#333333" opacity="1.00" d=" M 136.95 57.94 C 139.23 54.74 141.13 51.16 144.40 48.82 C 142.92 57.77 133.98 62.87 131.74 71.51 C 130.18 75.87 130.24 80.54 129.89 85.09 C 128.63 89.60 126.71 94.24 127.74 99.00 C 128.01 100.28 127.76 101.46 126.99 102.55 C 126.41 100.82 125.99 99.04 125.47 97.30 C 120.73 105.15 123.52 114.46 123.45 123.03 C 125.05 120.96 126.57 118.84 128.11 116.72 C 126.36 120.95 125.88 126.48 121.49 128.91 C 121.99 127.24 122.56 125.60 123.12 123.95 C 122.63 123.76 121.65 123.38 121.16 123.19 C 119.89 116.17 120.32 109.06 120.97 102.00 C 121.69 98.64 123.65 95.73 125.14 92.68 C 123.75 92.51 122.36 92.34 120.98 92.14 C 120.71 91.65 120.18 90.67 119.92 90.17 C 118.23 90.24 116.53 90.31 114.84 90.36 C 114.39 90.78 113.49 91.62 113.04 92.04 C 105.57 93.14 99.32 97.96 95.30 104.20 C 94.20 108.34 94.29 112.56 96.40 116.37 C 98.66 116.65 101.80 116.12 103.10 118.50 C 104.82 121.21 107.40 123.16 109.43 125.61 C 113.20 130.41 119.75 131.69 123.48 136.57 C 127.71 138.02 132.12 139.27 136.64 138.54 C 137.42 139.00 138.19 139.46 138.96 139.93 C 137.03 140.56 135.11 141.23 133.21 141.95 C 128.83 141.02 123.74 140.87 120.42 137.46 C 117.42 134.61 113.02 133.83 110.21 130.76 C 106.91 127.07 103.01 123.78 101.05 119.11 C 98.08 119.93 95.06 120.90 91.94 120.53 C 89.25 120.40 87.30 118.32 85.32 116.76 C 83.49 114.96 80.77 114.99 78.49 114.16 C 72.60 111.85 66.49 110.08 60.78 107.32 C 59.46 106.50 58.58 105.18 57.55 104.05 C 57.56 103.48 57.57 102.35 57.58 101.78 C 53.20 99.93 50.22 96.18 46.94 92.93 C 45.10 90.68 42.95 93.45 41.30 94.48 C 39.63 95.35 40.63 97.48 40.33 98.95 C 43.60 100.87 46.90 102.78 49.87 105.16 C 58.20 111.74 67.98 116.10 76.57 122.29 C 80.81 125.15 85.60 127.13 89.70 130.23 C 99.10 136.89 110.04 140.92 119.56 147.38 C 122.69 150.20 126.92 151.31 130.06 154.12 C 133.87 157.53 138.27 160.32 142.97 162.34 C 149.18 163.42 155.36 160.67 160.84 157.96 C 164.34 156.50 167.82 154.98 171.30 153.47 C 171.47 152.61 171.79 150.89 171.95 150.03 L 169.31 151.30 C 169.97 150.62 170.66 149.95 171.35 149.30 C 174.88 147.85 177.52 145.04 179.88 142.14 C 179.93 137.07 180.40 131.75 178.03 127.07 C 175.67 121.54 171.00 114.98 164.09 116.40 C 164.07 115.72 164.02 114.37 163.99 113.69 C 165.32 113.50 166.65 113.43 167.99 113.32 C 167.47 113.74 166.42 114.58 165.90 115.00 C 166.95 114.91 169.04 114.74 170.09 114.65 C 173.58 117.80 177.87 120.49 179.76 124.99 C 181.20 128.56 183.26 132.05 183.54 135.96 C 183.33 140.54 180.64 144.52 177.73 147.88 C 178.02 147.96 178.59 148.11 178.88 148.19 C 177.68 148.55 176.50 148.96 175.35 149.42 C 174.99 150.54 174.69 151.68 174.44 152.84 C 171.72 155.37 168.28 156.82 165.06 158.60 L 165.74 158.78 C 159.37 161.13 153.12 163.84 146.50 165.52 C 146.52 171.35 146.64 177.19 146.34 183.03 C 150.64 181.05 154.99 179.16 159.21 177.02 C 162.98 174.71 166.12 179.11 169.38 180.50 C 170.20 183.91 170.40 187.42 170.50 190.91 C 163.31 194.82 155.77 198.04 148.41 201.62 C 139.54 205.47 131.04 210.11 122.11 213.83 C 119.67 212.09 116.73 210.86 114.77 208.57 C 114.20 206.04 113.84 203.43 113.91 200.83 C 115.79 198.64 118.72 197.82 121.17 196.45 C 122.24 196.77 123.30 197.09 124.38 197.41 C 121.63 198.58 118.94 199.87 116.24 201.11 C 116.18 203.09 116.05 205.07 116.25 207.05 C 117.79 209.03 120.26 210.06 122.24 211.57 C 137.66 204.56 152.91 197.18 168.26 190.02 C 168.15 187.61 168.03 185.21 167.91 182.80 C 165.66 181.31 163.40 179.85 161.09 178.46 C 156.13 180.73 151.17 182.99 146.21 185.24 C 146.00 188.14 147.84 191.91 145.01 193.98 C 142.66 184.59 144.64 174.85 145.59 165.39 C 141.77 163.68 137.74 162.51 133.90 160.86 C 134.05 166.91 134.17 172.95 134.35 178.99 C 134.56 181.42 133.65 183.69 132.52 185.78 C 131.24 176.94 132.32 167.95 131.18 159.11 C 128.68 156.01 124.75 154.65 121.60 152.36 C 117.04 149.09 111.73 147.09 107.07 143.97 C 103.97 142.19 101.20 139.80 97.87 138.45 C 96.16 138.61 94.67 139.56 93.12 140.21 C 79.43 146.74 65.70 153.17 51.95 159.56 C 49.43 157.99 46.73 156.63 44.54 154.60 C 43.31 151.91 43.79 148.85 43.71 145.99 C 49.72 143.00 55.73 140.01 61.67 136.89 C 61.78 129.42 61.56 121.96 61.25 114.49 C 58.62 113.27 56.00 112.03 53.49 110.60 C 50.84 108.60 48.49 106.24 45.88 104.18 C 45.16 109.72 44.67 115.33 44.72 120.90 C 46.30 126.21 48.29 131.80 46.50 137.35 C 43.14 138.33 39.57 139.51 36.07 138.50 C 30.36 136.83 25.29 133.68 20.09 130.88 C 17.32 129.62 16.92 126.05 17.49 123.42 C 20.83 118.72 27.33 120.66 31.80 117.85 C 32.29 116.58 32.78 115.32 33.27 114.05 C 32.02 107.10 30.15 100.12 30.72 92.99 C 30.53 87.37 31.64 81.79 30.99 76.18 C 31.64 71.91 35.22 67.32 40.04 68.42 C 46.31 69.78 54.11 68.40 58.81 73.69 C 59.31 73.71 60.30 73.76 60.80 73.79 C 60.96 70.55 60.39 67.20 61.31 64.06 C 63.26 61.30 66.38 59.02 69.95 59.57 C 77.60 59.23 83.60 64.42 89.57 68.39 C 93.04 71.40 96.62 74.29 100.18 77.20 C 101.80 78.12 103.75 78.22 105.49 78.88 C 112.43 82.13 117.71 87.85 124.20 91.82 C 124.48 91.79 125.04 91.73 125.33 91.70 C 126.05 88.81 126.96 85.96 127.59 83.05 C 127.85 79.02 128.11 74.95 129.40 71.09 C 130.74 66.11 134.11 62.12 136.95 57.94 M 64.36 63.18 C 64.09 63.98 63.56 65.58 63.29 66.38 C 63.83 66.50 64.91 66.73 65.45 66.85 C 61.99 68.04 63.40 72.57 62.30 75.30 C 63.63 76.22 64.80 76.41 65.83 75.89 C 66.04 75.53 66.47 74.83 66.69 74.47 C 69.75 74.84 72.78 75.73 75.39 77.40 C 72.99 77.38 70.58 76.95 68.19 77.19 C 68.45 78.27 68.80 79.33 69.23 80.36 C 72.93 80.19 76.66 80.46 80.18 81.72 C 81.88 79.60 83.63 77.52 85.49 75.53 C 86.18 75.97 86.87 76.42 87.56 76.87 C 85.70 77.81 84.45 79.48 83.23 81.11 C 83.21 81.97 83.16 83.69 83.13 84.55 C 86.52 84.50 89.86 83.58 93.25 83.95 C 90.07 86.80 85.26 87.42 81.54 85.23 C 78.00 83.11 74.02 81.49 69.81 81.80 C 64.70 83.19 61.08 87.96 60.17 93.06 C 58.93 97.06 61.13 100.91 61.84 104.78 C 65.12 106.20 68.35 107.76 71.88 108.48 C 79.97 111.57 87.30 118.00 96.52 116.83 C 95.03 115.00 92.33 113.70 92.11 111.09 C 92.15 108.15 92.53 105.17 93.40 102.35 C 95.02 98.81 98.62 96.97 101.52 94.66 C 104.63 92.04 108.84 91.57 112.13 89.25 C 113.50 89.51 114.86 89.77 116.23 90.03 C 116.43 89.52 116.85 88.51 117.06 88.00 C 113.77 86.00 110.51 83.96 107.47 81.59 C 106.12 80.43 104.30 80.98 102.71 80.99 C 100.63 79.49 98.70 77.81 96.83 76.07 C 96.53 76.41 95.93 77.08 95.63 77.42 C 92.94 76.05 89.66 76.87 87.13 75.10 C 89.05 74.74 90.97 74.40 92.90 74.06 C 88.42 69.29 82.77 65.77 76.81 63.15 C 72.88 61.33 68.13 60.54 64.36 63.18 M 36.05 70.98 C 34.46 72.52 33.05 74.60 33.20 76.92 C 33.27 80.62 32.25 84.24 32.39 87.94 C 32.66 92.67 31.50 97.49 33.05 102.10 C 33.79 104.06 34.40 100.98 34.22 100.29 C 34.03 95.96 34.77 91.70 35.57 87.47 C 36.06 87.48 37.04 87.49 37.53 87.50 C 37.03 91.99 35.85 96.47 36.49 101.02 C 36.68 105.81 38.53 110.35 38.76 115.14 C 36.63 111.85 35.77 108.02 34.79 104.29 C 34.44 104.38 33.74 104.55 33.40 104.64 C 34.04 109.22 35.23 113.89 34.63 118.54 C 29.67 121.81 23.57 121.99 18.00 123.56 C 19.06 127.37 21.95 130.17 25.63 131.46 C 31.79 133.61 38.14 138.45 44.85 135.41 C 45.48 128.46 43.32 121.76 42.75 114.90 C 42.51 111.00 43.45 107.14 43.36 103.24 C 41.75 102.28 40.06 101.39 38.65 100.15 C 38.44 97.92 38.20 95.37 39.40 93.38 C 41.05 91.82 43.36 91.23 45.29 90.08 C 49.57 92.26 52.87 95.82 56.85 98.45 C 56.95 95.13 56.74 91.52 58.71 88.64 C 60.92 84.65 64.98 82.22 69.15 80.70 C 62.90 77.76 56.93 74.30 50.79 71.18 C 46.12 68.92 40.88 69.86 36.05 70.98 M 63.81 138.13 C 57.79 141.42 51.42 144.07 45.53 147.59 C 45.77 149.61 46.00 151.63 46.24 153.64 C 48.13 154.82 49.91 156.25 52.03 157.01 C 53.29 156.77 54.45 156.21 55.60 155.68 C 68.70 149.35 81.93 143.31 95.05 137.05 C 90.96 134.12 86.87 131.22 82.88 128.16 C 80.02 129.42 77.19 130.84 74.07 131.32 C 75.34 128.97 77.98 128.22 80.05 126.83 C 74.69 122.64 68.50 119.65 63.24 115.34 C 63.73 122.93 64.04 130.53 63.81 138.13 Z" />
<path fill="#333333" opacity="1.00" d=" M 171.21 61.93 C 168.85 58.46 169.52 53.14 173.52 51.22 C 173.11 54.13 171.87 57.13 172.94 60.05 C 173.35 62.63 175.32 64.40 176.81 66.38 C 177.59 67.98 177.29 69.88 177.51 71.60 C 174.52 74.70 170.59 76.63 166.44 77.62 C 165.70 77.10 164.97 76.58 164.25 76.06 C 169.33 75.82 174.05 73.13 176.88 68.92 C 174.98 65.22 171.06 63.59 167.58 61.79 C 168.48 61.83 170.30 61.90 171.21 61.93 Z" />
<path fill="#333333" opacity="1.00" d=" M 136.76 68.59 C 139.26 63.86 141.81 59.12 144.74 54.63 C 143.20 59.75 142.19 66.11 136.76 68.59 Z" />
<path fill="#333333" opacity="1.00" d=" M 65.62 69.26 C 70.16 69.91 75.14 69.10 79.23 71.59 C 75.09 71.62 70.87 71.98 66.81 70.98 L 65.62 69.26 Z" />
<path fill="#333333" opacity="1.00" d=" M 176.31 79.90 C 176.86 77.07 175.72 73.91 177.64 71.44 C 178.37 74.62 178.81 77.91 178.04 81.13 C 177.33 83.32 179.23 85.09 180.06 86.96 C 182.86 91.74 187.05 97.18 184.33 102.95 C 186.24 107.38 187.37 112.42 185.67 117.12 C 184.99 119.86 182.36 121.43 179.93 122.44 C 182.35 119.07 184.74 115.29 184.50 110.96 C 183.79 107.32 181.87 103.85 182.72 100.03 C 184.13 92.34 174.43 87.54 176.31 79.90 Z" />
<path fill="#333333" opacity="1.00" d=" M 39.06 74.82 C 39.59 74.47 40.63 73.75 41.16 73.39 C 41.35 74.05 41.73 75.35 41.92 76.01 C 39.76 77.01 37.34 77.55 35.08 76.52 C 35.67 74.91 37.75 75.34 39.06 74.82 Z" />
<path fill="#333333" opacity="1.00" d=" M 166.20 77.51 C 169.69 79.23 172.09 82.52 173.07 86.23 C 171.98 85.59 170.91 84.91 169.87 84.20 C 168.34 87.24 165.83 90.25 166.65 93.90 C 167.59 98.27 167.67 103.41 171.27 106.58 L 171.69 105.08 C 172.81 103.60 173.83 102.05 174.84 100.50 C 176.24 102.26 174.43 104.12 173.80 105.81 C 172.32 108.16 171.98 110.95 171.52 113.64 C 171.01 113.63 170.01 113.62 169.51 113.62 C 169.89 112.01 170.27 110.41 170.64 108.81 C 166.84 106.53 163.18 104.05 159.54 101.54 C 156.65 100.83 153.12 100.76 150.87 103.03 C 153.50 104.78 157.26 105.99 157.42 109.74 C 156.35 108.93 155.32 108.08 154.32 107.18 C 150.97 105.03 147.05 105.00 143.26 105.73 C 144.64 102.68 148.78 103.51 150.31 100.70 C 147.76 99.15 144.22 98.55 143.05 95.44 C 146.52 95.97 149.49 97.93 152.64 99.32 C 154.97 99.02 157.49 98.22 159.74 99.30 C 162.46 100.52 164.63 102.64 167.10 104.27 C 164.65 98.54 163.38 92.06 165.81 86.11 C 164.50 83.61 163.25 81.04 162.79 78.22 C 165.28 79.72 166.17 82.60 167.56 84.96 C 167.90 84.26 168.57 82.84 168.90 82.13 C 167.94 80.63 167.01 79.10 166.20 77.51 Z" />
<path fill="#333333" opacity="1.00" d=" M 44.55 79.80 C 47.99 78.07 53.01 79.46 54.64 83.10 C 51.24 82.12 47.84 81.11 44.55 79.80 Z" />
<path fill="#333333" opacity="1.00" d=" M 38.87 83.79 C 41.54 83.55 44.71 83.02 46.28 85.78 C 48.36 88.96 53.20 89.38 54.30 93.19 C 50.63 92.11 47.45 89.89 44.79 87.17 C 43.24 85.15 40.57 85.83 38.37 85.59 C 38.50 85.14 38.74 84.24 38.87 83.79 Z" />
<path fill="#333333" opacity="1.00" d=" M 75.17 97.07 C 75.10 93.38 76.83 89.95 80.29 88.40 C 80.57 91.30 77.83 92.60 75.91 94.08 C 75.67 95.08 75.42 96.07 75.17 97.07 Z" />
<path fill="#333333" opacity="1.00" d=" M 90.21 92.36 C 92.80 89.92 96.49 90.16 99.71 89.32 C 99.70 89.56 99.69 90.04 99.68 90.28 C 95.77 90.83 90.87 92.79 89.83 96.87 L 90.13 97.38 C 90.95 97.24 92.59 96.96 93.41 96.82 C 93.52 97.26 93.73 98.14 93.84 98.58 C 90.18 99.30 86.80 100.86 83.49 102.51 C 82.83 102.46 81.53 102.38 80.88 102.33 C 82.94 100.61 85.34 99.38 87.69 98.11 C 87.73 97.89 87.79 97.46 87.82 97.24 C 87.61 96.99 87.18 96.48 86.97 96.23 C 88.11 94.17 89.36 92.17 90.57 90.15 L 90.21 92.36 Z" />
<path fill="#333333" opacity="1.00" d=" M 174.91 89.02 C 177.79 89.20 177.04 92.01 177.24 94.03 C 177.01 97.09 179.54 99.25 180.94 101.68 C 175.03 101.16 174.44 93.65 174.91 89.02 Z" />
<path fill="#333333" opacity="1.00" d=" M 131.62 90.68 C 134.63 94.81 134.53 101.37 130.25 104.62 C 127.68 106.39 130.15 109.44 131.98 110.71 C 134.80 109.04 135.47 105.83 136.37 102.94 C 136.44 104.44 136.50 105.94 136.56 107.44 C 135.00 109.18 133.48 110.95 131.96 112.73 C 129.69 111.57 127.15 109.94 127.30 107.02 C 126.64 103.87 130.13 102.49 131.47 100.18 C 131.71 97.02 131.43 93.85 131.62 90.68 Z" />
<path fill="#333333" opacity="1.00" d=" M 100.51 103.94 C 101.15 102.66 101.82 101.40 102.51 100.16 C 104.78 101.97 106.98 103.87 109.15 105.80 C 110.01 107.83 110.96 109.82 111.91 111.81 C 110.01 107.05 105.13 105.11 100.51 103.94 Z" />
<path fill="#333333" opacity="1.00" d=" M 174.81 116.36 C 174.90 113.37 174.52 110.20 175.98 107.46 C 177.37 110.16 177.27 113.21 177.26 116.16 C 176.92 116.64 176.26 117.59 175.93 118.06 C 175.65 117.64 175.09 116.78 174.81 116.36 Z" />
<path fill="#333333" opacity="1.00" d=" M 114.70 122.88 C 114.46 120.68 112.98 116.88 116.22 116.20 C 116.25 118.02 116.25 119.84 116.23 121.66 C 116.92 121.42 118.31 120.94 119.00 120.70 L 119.37 123.01 C 117.06 123.51 114.44 125.22 112.15 123.67 C 109.62 122.18 106.38 120.87 105.58 117.74 C 108.90 118.91 111.84 120.87 114.70 122.88 Z" />
<path fill="#333333" opacity="1.00" d=" M 156.70 127.97 C 157.24 123.28 159.47 118.51 163.62 115.99 C 161.41 120.01 160.32 124.90 156.70 127.97 Z" />
<path fill="#333333" opacity="1.00" d=" M 40.01 119.49 C 40.68 119.67 41.34 119.86 41.99 120.09 C 42.02 123.06 41.80 126.03 41.38 128.98 C 40.41 127.79 39.63 126.47 38.78 125.20 C 36.85 123.96 35.63 126.98 34.03 127.65 C 33.07 126.88 32.11 126.12 31.16 125.35 C 33.83 124.75 36.63 124.41 39.06 123.04 C 39.79 122.06 40.10 120.87 40.01 119.49 Z" />
<path fill="#333333" opacity="1.00" d=" M 134.48 126.97 C 136.24 127.62 137.63 128.86 138.92 130.17 C 136.92 131.83 134.81 133.79 132.01 133.64 C 133.09 132.35 134.27 131.14 135.48 129.96 C 135.23 129.21 134.73 127.72 134.48 126.97 Z" />
<path fill="#333333" opacity="1.00" d=" M 155.98 138.05 C 153.21 134.25 156.62 129.81 160.19 128.16 C 159.24 129.45 158.25 130.71 157.26 131.97 C 157.51 135.21 159.38 137.70 161.83 139.68 C 160.80 139.65 158.74 139.60 157.71 139.57 C 160.64 143.44 163.95 147.79 169.08 148.60 C 169.15 149.16 169.29 150.26 169.35 150.81 C 168.17 150.69 165.80 150.43 164.61 150.31 C 160.59 148.08 156.88 145.03 155.93 140.27 C 149.90 140.49 142.58 143.32 137.99 137.81 C 142.40 137.20 147.28 139.13 151.30 136.56 C 152.95 136.48 154.37 137.87 155.98 138.05 Z" />
</g>
</svg>
