<?xml version="1.0" encoding="UTF-8" ?>
<!DOCTYPE svg PUBLIC "-//W3C//DTD SVG 1.1//EN" "http://www.w3.org/Graphics/SVG/1.1/DTD/svg11.dtd">
<svg width="241pt" height="225pt" viewBox="0 0 241 225" version="1.1" xmlns="http://www.w3.org/2000/svg">
<g id="#ffffffff">
<path fill="#FFFFFF" opacity="1.00" d=" M 0.00 0.00 L 241.00 0.00 L 241.00 48.46 C 235.71 44.58 229.88 41.53 223.36 40.36 C 223.05 35.59 223.04 30.81 222.61 26.05 C 222.46 23.87 220.63 22.24 218.78 21.35 C 216.33 20.53 213.84 21.70 211.48 22.31 C 209.89 20.17 208.13 17.36 205.02 17.89 C 201.94 17.43 199.78 19.96 197.53 21.57 C 193.80 24.29 189.97 26.96 185.74 28.85 C 182.04 30.54 177.76 29.55 173.98 31.00 C 168.47 32.96 164.48 37.48 160.69 41.73 C 159.07 43.81 156.20 43.73 153.88 44.32 C 149.83 44.94 146.11 47.08 141.95 46.96 C 138.67 46.97 135.45 47.62 132.33 48.56 C 131.17 47.79 130.04 46.75 128.55 46.84 C 123.70 46.82 118.41 46.51 114.14 49.21 C 111.52 51.04 109.03 53.04 106.35 54.78 C 103.83 54.78 101.32 55.07 98.91 55.80 C 92.71 57.60 85.95 56.75 80.00 59.46 C 77.06 59.08 73.98 58.89 71.36 60.53 C 70.47 61.07 69.59 61.61 68.72 62.16 C 72.61 61.10 76.47 59.18 80.60 60.28 C 86.36 59.09 92.19 58.30 98.05 57.93 C 101.86 57.28 105.72 56.25 109.59 57.16 C 103.80 61.53 96.28 59.89 89.57 60.30 C 92.77 60.75 96.07 60.86 99.11 62.04 C 102.67 61.50 106.24 60.75 109.50 59.19 C 111.87 59.46 114.24 59.77 116.60 60.16 C 119.24 63.17 122.13 65.95 125.00 68.75 C 129.67 72.63 129.14 80.12 126.15 84.88 C 124.94 84.75 123.74 84.63 122.53 84.54 C 122.16 84.37 121.41 84.03 121.04 83.86 C 119.77 86.23 118.72 88.83 116.66 90.65 C 111.82 94.42 105.27 95.18 100.67 99.33 C 100.63 98.80 100.54 97.72 100.50 97.19 C 100.07 97.58 99.23 98.38 98.81 98.77 C 97.78 98.11 96.75 97.45 95.73 96.80 C 97.04 95.84 98.35 94.88 99.69 93.95 C 99.00 93.42 98.31 92.90 97.62 92.37 C 96.81 93.23 96.01 94.09 95.22 94.96 C 95.56 94.24 96.23 92.80 96.57 92.08 L 95.99 91.85 C 92.80 92.75 92.17 97.22 91.00 100.02 C 92.74 100.10 93.27 98.23 94.26 97.18 C 98.44 103.86 102.71 110.96 103.33 119.00 C 103.66 121.65 103.48 124.65 105.44 126.75 C 106.53 119.75 105.08 112.78 102.03 106.48 C 101.13 105.10 98.79 104.16 99.20 102.30 C 101.20 101.18 103.31 100.26 105.13 98.85 C 111.13 96.02 117.75 93.05 121.55 87.35 C 122.40 86.92 123.25 86.50 124.10 86.08 C 124.47 86.38 125.22 86.99 125.59 87.30 C 126.15 86.65 126.72 86.01 127.29 85.37 C 130.97 86.98 135.14 85.44 139.02 85.89 C 143.30 86.47 145.89 82.33 149.81 81.62 C 155.24 79.68 161.79 79.73 165.94 75.21 C 164.08 88.55 170.85 102.72 182.79 109.13 C 188.49 113.10 195.46 114.20 202.11 115.56 C 210.50 116.34 219.13 116.56 227.31 114.24 C 230.15 113.39 232.89 112.22 235.75 111.40 C 235.33 111.16 234.49 110.67 234.07 110.43 C 236.05 108.58 238.66 107.70 241.00 106.42 L 241.00 225.00 L 0.00 225.00 L 0.00 0.00 M 35.36 59.13 C 33.96 61.73 31.15 63.06 29.48 65.44 C 27.76 67.95 26.16 70.80 26.19 73.93 C 26.12 78.23 28.46 82.14 31.07 85.38 C 32.66 85.53 33.91 86.61 34.66 87.96 C 34.60 95.89 35.22 103.88 33.28 111.65 C 33.73 111.52 34.63 111.24 35.08 111.10 C 35.74 103.92 37.47 96.81 36.38 89.55 C 37.99 90.70 39.65 91.82 41.14 93.13 C 43.92 93.45 47.28 94.73 49.69 92.73 C 52.15 90.96 55.02 89.92 57.62 88.38 C 60.25 87.47 64.27 87.02 64.52 83.53 C 61.90 84.91 59.43 86.67 56.45 87.18 C 55.48 88.03 54.50 88.87 53.52 89.71 C 55.25 86.41 57.00 82.07 54.23 78.80 C 54.33 82.92 54.20 87.90 50.51 90.56 C 46.68 93.83 40.32 92.30 37.60 88.33 C 35.71 85.31 32.40 83.62 30.18 80.90 C 28.91 78.53 28.14 75.80 28.17 73.12 C 29.11 67.50 33.04 62.84 37.50 59.55 C 43.18 56.04 51.23 58.74 53.29 65.18 C 56.46 65.44 59.66 65.56 62.83 65.24 C 64.75 65.01 66.67 63.96 67.15 61.96 C 63.16 63.60 58.91 65.38 54.62 63.59 C 52.71 59.35 48.57 57.09 44.18 56.24 C 41.14 56.89 38.02 57.43 35.36 59.13 M 79.53 62.76 C 75.53 64.55 70.62 61.99 66.99 64.95 C 64.78 66.88 61.53 68.55 61.44 71.87 C 64.94 69.37 67.55 65.00 72.29 64.91 C 71.65 66.32 70.99 67.73 70.37 69.15 C 73.01 67.43 75.19 64.85 78.39 64.18 C 82.33 62.73 86.55 63.50 90.61 62.88 C 87.42 60.30 83.01 61.45 79.53 62.76 M 86.99 67.18 C 90.26 66.19 93.68 64.67 95.53 61.64 C 91.88 61.83 89.30 64.69 86.99 67.18 M 99.80 63.88 C 103.39 63.99 106.82 66.57 110.35 65.41 C 108.57 64.33 106.68 63.14 104.51 63.43 C 102.91 63.00 101.35 63.56 99.80 63.88 M 110.88 70.90 C 113.84 70.37 116.67 69.31 119.38 68.02 C 116.39 66.89 113.57 69.90 110.88 70.90 M 75.42 70.67 C 76.03 72.67 76.65 74.67 77.31 76.66 C 81.24 75.10 82.53 70.93 84.71 67.71 C 81.53 68.43 78.41 69.39 75.42 70.67 M 84.38 71.76 C 85.92 71.57 87.45 70.88 89.03 71.14 C 90.85 71.57 92.78 73.38 94.37 71.47 C 92.71 70.60 91.01 69.81 89.33 68.99 C 87.34 69.25 85.45 69.96 84.38 71.76 M 47.27 73.64 C 49.12 73.72 50.97 73.77 52.83 73.81 C 52.86 73.36 52.91 72.44 52.94 71.99 C 50.83 71.85 48.48 71.46 47.27 73.64 M 55.79 72.19 C 55.11 74.64 58.33 73.64 59.74 74.15 C 61.52 76.40 62.69 79.06 64.36 81.39 C 65.84 82.34 67.47 82.99 69.07 83.72 C 68.88 84.15 68.50 85.00 68.31 85.43 C 71.07 83.86 74.19 84.03 77.19 84.74 C 74.97 87.21 72.12 89.89 73.41 93.56 C 73.77 93.47 74.50 93.30 74.86 93.21 C 75.28 91.89 75.57 90.51 76.29 89.33 C 80.20 87.32 84.83 85.86 89.11 87.70 C 87.52 84.87 83.88 85.97 81.25 85.29 C 80.35 85.65 79.45 86.02 78.55 86.38 C 77.19 83.31 73.33 83.23 70.57 82.21 C 65.43 80.95 63.26 75.61 59.81 72.19 C 58.47 72.05 57.13 72.05 55.79 72.19 M 110.99 77.86 C 107.04 81.61 105.48 87.59 100.29 90.13 C 100.03 90.88 99.51 92.36 99.25 93.10 C 101.91 92.99 103.80 91.83 104.09 89.21 C 105.62 89.26 107.15 89.31 108.68 89.36 C 108.12 88.31 107.57 87.26 107.02 86.20 C 108.92 83.53 110.50 80.66 112.18 77.85 C 117.03 78.63 119.15 73.56 123.10 72.02 C 118.59 72.80 115.14 76.12 110.99 77.86 M 88.95 76.93 C 86.92 77.60 87.98 79.94 87.92 81.43 C 85.74 81.99 82.07 80.90 81.71 84.06 C 84.31 83.48 86.87 82.69 89.53 82.40 C 89.44 78.40 92.81 75.94 94.81 72.89 C 92.36 73.46 91.24 76.00 88.95 76.93 M 95.73 78.37 C 98.19 78.43 100.64 78.25 103.09 78.02 C 103.22 77.66 103.49 76.93 103.63 76.57 C 100.94 76.86 98.13 77.01 95.73 78.37 M 115.06 83.23 C 115.79 85.01 117.57 85.74 119.31 86.22 C 118.84 84.07 116.99 83.45 115.06 83.23 M 93.80 84.92 C 94.20 86.97 92.42 91.64 95.97 91.07 C 96.90 90.21 96.11 88.72 96.23 87.61 C 95.42 86.71 94.62 85.81 93.80 84.92 M 108.98 86.42 C 108.13 87.63 108.38 88.35 109.73 88.57 C 110.59 87.35 110.33 86.64 108.98 86.42 M 111.94 86.36 C 112.89 88.07 114.25 89.50 116.03 90.36 C 116.60 87.55 114.22 86.56 111.94 86.36 M 60.39 90.07 C 62.43 90.07 64.48 89.96 66.50 89.64 C 66.47 92.05 66.54 94.47 66.77 96.87 C 63.12 94.71 60.16 91.53 56.38 89.61 C 56.71 92.52 59.45 93.82 61.45 95.50 C 63.37 96.95 65.34 99.33 68.03 98.26 C 70.69 100.90 73.24 103.65 75.93 106.26 C 77.18 109.44 76.39 113.45 78.70 116.24 C 80.53 118.62 82.41 120.97 83.99 123.54 C 84.48 123.01 84.96 122.47 85.44 121.93 C 82.13 117.87 78.11 113.46 79.08 107.76 C 81.16 108.54 83.21 109.40 85.34 110.04 C 84.15 106.94 80.72 106.26 78.06 104.95 C 75.63 103.04 73.43 100.86 71.24 98.70 C 68.27 95.69 68.24 91.16 68.36 87.22 C 65.86 88.28 61.57 87.15 60.39 90.07 M 47.00 96.95 C 42.65 103.94 42.26 112.31 39.69 119.96 C 38.31 117.42 36.49 115.16 34.24 113.34 C 33.73 114.30 32.97 114.98 31.95 115.38 C 33.06 115.70 34.15 116.06 35.23 116.48 C 36.12 118.56 37.85 120.07 39.90 120.99 C 38.26 122.66 36.50 124.45 33.97 124.38 C 28.91 124.49 25.11 129.02 19.90 128.13 C 19.64 127.30 19.37 126.47 19.11 125.64 C 21.03 123.97 22.06 121.63 23.48 119.58 C 26.08 117.21 30.53 117.17 31.90 113.44 C 27.67 115.08 22.73 116.31 20.04 120.30 C 18.73 122.15 17.41 124.05 16.51 126.14 C 15.94 127.96 17.51 129.21 18.72 130.26 C 20.86 130.14 23.02 130.19 25.16 129.91 C 28.01 129.39 29.99 126.67 32.99 126.58 C 35.06 126.42 37.13 126.09 38.98 125.07 C 39.91 123.40 41.06 121.87 42.16 120.31 C 43.54 115.14 44.50 109.86 45.41 104.59 C 46.35 101.70 48.12 99.16 49.20 96.33 C 48.65 96.48 47.55 96.80 47.00 96.95 M 89.73 103.71 C 87.69 106.51 88.09 110.31 89.38 113.34 C 91.36 117.76 93.10 123.05 97.98 125.06 C 97.46 122.04 94.64 120.30 93.53 117.56 C 91.99 113.96 89.65 110.14 90.54 106.08 C 90.94 103.64 93.52 104.67 95.13 104.54 C 94.33 102.44 90.74 101.09 89.73 103.71 M 97.79 109.85 C 97.48 110.50 96.88 111.80 96.58 112.44 C 95.61 112.95 94.66 113.49 93.73 114.07 C 94.36 114.98 95.06 115.84 95.76 116.70 C 97.03 114.65 100.63 112.10 97.79 109.85 M 86.69 113.66 C 85.25 117.07 85.57 120.64 87.11 123.93 C 86.33 123.84 84.76 123.66 83.98 123.57 C 85.72 124.96 87.79 126.10 89.03 128.02 C 91.22 130.79 88.14 134.00 88.54 137.06 C 88.48 141.45 90.59 145.37 91.77 149.48 C 92.33 154.41 91.57 159.36 91.50 164.30 C 90.82 164.13 89.46 163.79 88.78 163.62 C 88.35 163.75 87.49 164.02 87.06 164.15 C 81.74 162.62 77.14 167.26 74.81 171.54 C 72.71 173.59 70.27 175.44 69.23 178.29 C 70.63 179.65 71.99 181.05 73.36 182.45 C 76.15 182.93 78.95 183.68 81.81 183.57 C 87.46 181.63 93.01 179.26 98.92 178.19 C 100.71 177.87 101.75 176.17 102.95 174.98 C 102.86 174.31 102.68 172.97 102.59 172.30 C 104.66 171.41 103.45 168.84 104.01 167.16 C 105.54 160.02 107.35 152.92 109.48 145.93 C 111.30 140.10 110.59 133.31 106.84 128.38 C 106.51 132.71 109.19 136.67 108.37 141.00 C 107.94 146.48 105.12 151.42 104.68 156.89 C 104.32 159.89 103.27 162.76 102.92 165.77 C 102.42 165.07 101.93 164.36 101.45 163.66 C 102.21 161.03 102.96 158.38 103.20 155.65 C 100.84 155.73 100.70 158.20 100.07 159.90 C 99.37 162.44 97.97 165.80 100.67 167.70 L 101.08 165.03 C 103.47 168.11 102.46 173.22 99.74 175.67 C 93.75 176.50 88.61 179.99 82.62 180.84 C 78.65 181.86 74.68 180.29 70.93 179.15 C 72.02 175.17 76.49 173.83 78.09 170.17 C 80.80 164.67 87.64 165.21 92.79 165.57 C 94.53 166.96 95.22 169.15 96.22 171.05 C 96.69 171.19 97.62 171.48 98.09 171.63 C 97.17 168.61 95.76 165.66 93.06 163.85 C 94.32 157.81 94.81 151.27 92.35 145.45 C 91.41 141.58 89.79 137.49 91.35 133.54 C 92.11 130.94 93.27 126.60 89.84 125.44 C 88.99 122.69 87.99 119.96 87.89 117.06 C 87.94 115.78 87.50 114.63 86.69 113.66 M 101.93 128.62 C 100.31 132.68 98.06 136.43 96.24 140.39 C 95.28 142.37 93.54 144.10 93.57 146.44 C 96.85 144.17 98.08 140.26 100.06 136.99 C 101.65 133.98 103.33 130.84 103.30 127.32 C 102.95 127.65 102.27 128.30 101.93 128.62 M 101.95 143.92 C 101.45 146.87 100.15 149.56 98.51 152.04 C 98.74 152.52 99.19 153.47 99.41 153.95 C 102.25 149.04 103.74 143.51 104.52 137.93 C 102.44 139.17 102.62 141.87 101.95 143.92 Z" />
<path fill="#FFFFFF" opacity="1.00" d=" M 188.03 30.00 C 193.99 27.51 198.00 21.77 204.06 19.51 C 206.96 18.57 209.12 21.24 210.25 23.55 C 206.49 26.57 201.75 27.61 197.36 29.34 C 193.49 30.66 189.07 30.27 185.54 32.57 C 182.44 34.34 179.90 36.89 177.70 39.68 C 175.44 42.85 171.17 43.78 169.26 47.28 C 167.38 47.26 165.50 47.25 163.62 47.26 C 168.75 45.08 171.49 39.99 174.95 35.93 C 171.78 36.77 169.72 39.24 168.12 41.94 C 166.95 44.26 163.13 44.74 163.30 47.70 C 160.80 48.37 158.32 49.10 155.87 49.94 C 151.52 48.52 147.14 52.06 142.93 49.93 C 142.13 49.51 140.53 48.65 139.73 48.23 C 142.67 47.89 145.01 49.86 147.77 50.34 C 147.26 49.62 146.23 48.17 145.71 47.44 C 150.38 46.69 155.37 46.86 159.71 44.73 C 163.23 40.93 166.66 36.87 171.10 34.09 C 176.24 30.94 182.57 32.12 188.03 30.00 Z" />
<path fill="#FFFFFF" opacity="1.00" d=" M 206.43 28.16 C 210.03 26.21 213.13 23.21 217.19 22.19 C 219.09 22.48 220.56 24.23 220.87 26.08 C 222.33 32.97 222.22 40.07 222.00 47.07 C 221.89 50.10 221.72 53.80 218.51 55.25 C 219.12 55.65 219.74 56.04 220.35 56.44 C 221.68 54.41 223.57 52.53 223.94 50.03 C 224.03 47.40 223.58 44.79 223.35 42.18 C 229.51 44.11 235.94 45.83 241.00 50.08 L 241.00 104.36 C 233.15 111.62 222.08 113.04 211.83 112.58 C 204.60 112.07 197.06 112.74 190.22 109.88 C 184.63 107.52 178.99 104.65 175.07 99.88 C 168.34 92.98 166.33 82.58 168.37 73.36 C 171.94 71.02 175.07 68.10 177.65 64.70 C 181.90 63.85 184.89 60.40 186.48 56.55 C 190.99 52.23 195.99 48.42 201.16 44.92 C 201.50 42.03 203.45 40.04 205.91 38.72 C 207.09 41.76 208.11 44.87 209.12 47.97 C 208.60 48.77 208.09 49.57 207.57 50.37 C 205.97 51.76 204.69 53.45 203.66 55.30 C 202.10 52.52 200.66 49.61 198.32 47.37 C 199.07 50.02 199.50 53.28 202.03 54.92 C 207.09 58.16 213.28 58.24 219.03 59.15 C 222.78 59.77 225.86 57.14 228.59 54.99 C 224.66 56.21 220.71 57.39 216.61 57.87 L 218.76 56.93 C 218.09 56.56 217.43 56.19 216.76 55.83 C 213.46 57.05 209.95 56.66 206.54 56.43 C 207.95 53.70 209.67 51.02 210.14 47.92 C 210.10 45.00 209.23 42.17 208.35 39.41 C 209.25 38.67 210.15 37.92 211.04 37.17 C 208.01 37.24 204.63 37.07 202.13 39.09 C 199.29 41.64 197.54 45.20 194.51 47.56 C 190.49 50.79 185.71 53.46 183.16 58.13 C 182.09 60.34 180.22 61.93 178.32 63.41 C 178.58 61.16 178.86 58.91 178.99 56.64 C 177.16 59.92 176.10 63.62 173.72 66.58 C 171.91 68.90 169.38 70.46 166.97 72.07 C 166.85 67.08 165.30 62.31 162.38 58.26 C 165.55 56.78 168.95 55.98 172.36 55.29 C 168.99 52.89 164.68 54.80 161.75 57.01 C 160.03 54.91 158.37 52.76 156.69 50.63 C 162.07 49.23 168.19 49.44 172.64 45.64 C 177.66 41.70 183.44 38.84 188.26 34.68 C 186.80 35.21 183.86 36.27 182.39 36.80 C 188.44 31.01 197.34 32.06 204.68 29.15 C 204.24 30.32 203.82 31.50 203.40 32.67 C 206.34 31.63 209.35 30.78 212.40 30.06 C 211.13 29.96 209.85 29.89 208.59 29.82 C 207.86 29.27 207.14 28.72 206.43 28.16 M 190.99 42.05 C 188.91 43.55 186.82 45.05 185.07 46.93 C 190.91 45.06 195.40 40.57 199.04 35.81 C 195.79 37.08 193.76 40.08 190.99 42.05 M 186.36 50.59 C 189.28 49.02 193.00 47.67 194.23 44.28 C 191.45 46.17 188.37 47.80 186.36 50.59 M 172.70 51.24 C 176.18 50.60 179.67 49.16 181.96 46.36 C 178.59 47.32 175.13 48.59 172.70 51.24 M 200.23 46.30 C 200.81 46.86 200.81 46.86 200.23 46.30 M 166.81 66.25 C 169.28 65.05 172.44 64.37 173.70 61.63 C 171.14 62.68 168.12 63.58 166.81 66.25 Z" />
<path fill="#FFFFFF" opacity="1.00" d=" M 117.95 49.50 C 121.88 48.48 125.97 48.50 129.97 49.02 C 128.76 49.75 127.60 50.56 126.61 51.58 C 130.72 50.82 135.05 48.98 139.15 50.83 C 142.68 51.69 146.89 54.64 150.05 51.45 C 151.29 51.39 152.52 51.34 153.76 51.30 C 155.98 53.33 158.58 55.03 160.36 57.50 C 162.91 62.26 164.44 67.51 165.36 72.81 C 163.68 75.32 160.84 76.78 157.92 77.28 C 152.43 78.97 146.72 80.30 141.73 83.26 C 140.04 84.44 138.02 83.59 136.22 83.28 C 133.44 83.55 130.62 83.86 127.99 84.83 C 131.78 79.05 130.44 70.92 126.14 65.73 C 125.68 65.64 124.75 65.45 124.29 65.36 C 121.41 61.24 116.79 58.76 112.03 57.46 C 110.67 57.10 109.81 55.90 108.76 55.06 C 111.94 53.38 114.35 50.32 117.95 49.50 M 140.33 67.30 C 140.87 65.47 141.36 63.64 141.86 61.81 C 141.67 61.04 141.31 59.51 141.13 58.75 C 139.23 61.16 137.94 64.76 140.33 67.30 Z" />
<path fill="#FFFFFF" opacity="1.00" d=" M 76.84 71.68 C 78.66 71.12 80.47 70.57 82.29 70.02 C 80.87 71.45 79.43 72.86 78.04 74.31 C 77.63 73.44 77.23 72.56 76.84 71.68 Z" />
</g>
<g id="#525251ff">
<path fill="#333333" opacity="1.00" d=" M 197.53 21.57 C 199.78 19.96 201.94 17.43 205.02 17.89 C 208.13 17.36 209.89 20.17 211.48 22.31 C 213.84 21.70 216.33 20.53 218.78 21.35 C 220.63 22.24 222.46 23.87 222.61 26.05 C 223.04 30.81 223.05 35.59 223.36 40.36 C 229.88 41.53 235.71 44.58 241.00 48.46 L 241.00 50.08 C 235.94 45.83 229.51 44.11 223.35 42.18 C 223.58 44.79 224.03 47.40 223.94 50.03 C 223.57 52.53 221.68 54.41 220.35 56.44 C 219.74 56.04 219.12 55.65 218.51 55.25 C 221.72 53.80 221.89 50.10 222.00 47.07 C 222.22 40.07 222.33 32.97 220.87 26.08 C 220.56 24.23 219.09 22.48 217.19 22.19 C 213.13 23.21 210.03 26.21 206.43 28.16 C 207.14 28.72 207.86 29.27 208.59 29.82 C 209.85 29.89 211.13 29.96 212.40 30.06 C 209.35 30.78 206.34 31.63 203.40 32.67 C 203.82 31.50 204.24 30.32 204.68 29.15 C 197.34 32.06 188.44 31.01 182.39 36.80 C 183.86 36.27 186.80 35.21 188.26 34.68 C 183.44 38.84 177.66 41.70 172.64 45.64 C 168.19 49.44 162.07 49.23 156.69 50.63 C 158.37 52.76 160.03 54.91 161.75 57.01 C 164.68 54.80 168.99 52.89 172.36 55.29 C 168.95 55.98 165.55 56.78 162.38 58.26 C 165.30 62.31 166.85 67.08 166.97 72.07 C 169.38 70.46 171.91 68.90 173.72 66.58 C 176.10 63.62 177.16 59.92 178.99 56.64 C 178.86 58.91 178.58 61.16 178.32 63.41 C 180.22 61.93 182.09 60.34 183.16 58.13 C 185.71 53.46 190.49 50.79 194.51 47.56 C 197.54 45.20 199.29 41.64 202.13 39.09 C 204.63 37.07 208.01 37.24 211.04 37.17 C 210.15 37.92 209.25 38.67 208.35 39.41 C 209.23 42.17 210.10 45.00 210.14 47.92 C 209.67 51.02 207.95 53.70 206.54 56.43 C 209.95 56.66 213.46 57.05 216.76 55.83 C 217.43 56.19 218.09 56.56 218.76 56.93 L 216.61 57.87 C 220.71 57.39 224.66 56.21 228.59 54.99 C 225.86 57.14 222.78 59.77 219.03 59.15 C 213.28 58.24 207.09 58.16 202.03 54.92 C 199.50 53.28 199.07 50.02 198.32 47.37 C 200.66 49.61 202.10 52.52 203.66 55.30 C 204.69 53.45 205.97 51.76 207.57 50.37 C 208.09 49.57 208.60 48.77 209.12 47.97 C 208.11 44.87 207.09 41.76 205.91 38.72 C 203.45 40.04 201.50 42.03 201.16 44.92 C 195.99 48.42 190.99 52.23 186.48 56.55 C 184.89 60.40 181.90 63.85 177.65 64.70 C 175.07 68.10 171.94 71.02 168.37 73.36 C 166.33 82.58 168.34 92.98 175.07 99.88 C 178.99 104.65 184.63 107.52 190.22 109.88 C 197.06 112.74 204.60 112.07 211.83 112.58 C 222.08 113.04 233.15 111.62 241.00 104.36 L 241.00 106.42 C 238.66 107.70 236.05 108.58 234.07 110.43 C 234.49 110.67 235.33 111.16 235.75 111.40 C 232.89 112.22 230.15 113.39 227.31 114.24 C 219.13 116.56 210.50 116.34 202.11 115.56 C 195.46 114.20 188.49 113.10 182.79 109.13 C 170.85 102.72 164.08 88.55 165.94 75.21 C 161.79 79.73 155.24 79.68 149.81 81.62 C 145.89 82.33 143.30 86.47 139.02 85.89 C 135.14 85.44 130.97 86.98 127.29 85.37 C 126.72 86.01 126.15 86.65 125.59 87.30 C 125.22 86.99 124.47 86.38 124.10 86.08 C 123.25 86.50 122.40 86.92 121.55 87.35 C 117.75 93.05 111.13 96.02 105.13 98.85 C 103.31 100.26 101.20 101.18 99.20 102.30 C 98.79 104.16 101.13 105.10 102.03 106.48 C 105.08 112.78 106.53 119.75 105.44 126.75 C 103.48 124.65 103.66 121.65 103.33 119.00 C 102.71 110.96 98.44 103.86 94.26 97.18 C 93.27 98.23 92.74 100.10 91.00 100.02 C 92.17 97.22 92.80 92.75 95.99 91.85 L 96.57 92.08 C 96.23 92.80 95.56 94.24 95.22 94.96 C 96.01 94.09 96.81 93.23 97.62 92.37 C 98.31 92.90 99.00 93.42 99.69 93.95 C 98.35 94.88 97.04 95.84 95.73 96.80 C 96.75 97.45 97.78 98.11 98.81 98.77 C 99.23 98.38 100.07 97.58 100.50 97.19 C 100.54 97.72 100.63 98.80 100.67 99.33 C 105.27 95.18 111.82 94.42 116.66 90.65 C 118.72 88.83 119.77 86.23 121.04 83.86 C 121.41 84.03 122.16 84.37 122.53 84.54 C 123.74 84.63 124.94 84.75 126.15 84.88 C 129.14 80.12 129.67 72.63 125.00 68.75 C 122.13 65.95 119.24 63.17 116.60 60.16 C 114.24 59.77 111.87 59.46 109.50 59.19 C 106.24 60.75 102.67 61.50 99.11 62.04 C 96.07 60.86 92.77 60.75 89.57 60.30 C 96.28 59.89 103.80 61.53 109.59 57.16 C 105.72 56.25 101.86 57.28 98.05 57.93 C 92.19 58.30 86.36 59.09 80.60 60.28 C 76.47 59.18 72.61 61.10 68.72 62.16 C 69.59 61.61 70.47 61.07 71.36 60.53 C 73.98 58.89 77.06 59.08 80.00 59.46 C 85.95 56.75 92.71 57.60 98.91 55.80 C 101.32 55.07 103.83 54.78 106.35 54.78 C 109.03 53.04 111.52 51.04 114.14 49.21 C 118.41 46.51 123.70 46.82 128.55 46.84 C 130.04 46.75 131.17 47.79 132.33 48.56 C 135.45 47.62 138.67 46.97 141.95 46.96 C 146.11 47.08 149.83 44.94 153.88 44.32 C 156.20 43.73 159.07 43.81 160.69 41.73 C 164.48 37.48 168.47 32.96 173.98 31.00 C 177.76 29.55 182.04 30.54 185.74 28.85 C 189.97 26.96 193.80 24.29 197.53 21.57 M 188.03 30.00 C 182.57 32.12 176.24 30.94 171.10 34.09 C 166.66 36.87 163.23 40.93 159.71 44.73 C 155.37 46.86 150.38 46.69 145.71 47.44 C 146.23 48.17 147.26 49.62 147.77 50.34 C 145.01 49.86 142.67 47.89 139.73 48.23 C 140.53 48.65 142.13 49.51 142.93 49.93 C 147.14 52.06 151.52 48.52 155.87 49.94 C 158.32 49.10 160.80 48.37 163.30 47.70 C 163.13 44.74 166.95 44.26 168.12 41.94 C 169.72 39.24 171.78 36.77 174.95 35.93 C 171.49 39.99 168.75 45.08 163.62 47.26 C 165.50 47.25 167.38 47.26 169.26 47.28 C 171.17 43.78 175.44 42.85 177.70 39.68 C 179.90 36.89 182.44 34.34 185.54 32.57 C 189.07 30.27 193.49 30.66 197.36 29.34 C 201.75 27.61 206.49 26.57 210.25 23.55 C 209.12 21.24 206.96 18.57 204.06 19.51 C 198.00 21.77 193.99 27.51 188.03 30.00 M 117.95 49.50 C 114.35 50.32 111.94 53.38 108.76 55.06 C 109.81 55.90 110.67 57.10 112.03 57.46 C 116.79 58.76 121.41 61.24 124.29 65.36 C 124.75 65.45 125.68 65.64 126.14 65.73 C 130.44 70.92 131.78 79.05 127.99 84.83 C 130.62 83.86 133.44 83.55 136.22 83.28 C 138.02 83.59 140.04 84.44 141.73 83.26 C 146.72 80.30 152.43 78.97 157.92 77.28 C 160.84 76.78 163.68 75.32 165.36 72.81 C 164.44 67.51 162.91 62.26 160.36 57.50 C 158.58 55.03 155.98 53.33 153.76 51.30 C 152.52 51.34 151.29 51.39 150.05 51.45 C 146.89 54.64 142.68 51.69 139.15 50.83 C 135.05 48.98 130.72 50.82 126.61 51.58 C 127.60 50.56 128.76 49.75 129.97 49.02 C 125.97 48.50 121.88 48.48 117.95 49.50 Z" />
<path fill="#333333" opacity="1.00" d=" M 190.99 42.05 C 193.76 40.08 195.79 37.08 199.04 35.81 C 195.40 40.57 190.91 45.06 185.07 46.93 C 186.82 45.05 188.91 43.55 190.99 42.05 Z" />
<path fill="#333333" opacity="1.00" d=" M 186.36 50.59 C 188.37 47.80 191.45 46.17 194.23 44.28 C 193.00 47.67 189.28 49.02 186.36 50.59 Z" />
<path fill="#333333" opacity="1.00" d=" M 172.70 51.24 C 175.13 48.59 178.59 47.32 181.96 46.36 C 179.67 49.16 176.18 50.60 172.70 51.24 Z" />
<path fill="#333333" opacity="1.00" d=" M 200.23 46.30 C 200.81 46.86 200.81 46.86 200.23 46.30 Z" />
<path fill="#333333" opacity="1.00" d=" M 35.36 59.13 C 38.02 57.43 41.14 56.89 44.18 56.24 C 48.57 57.09 52.71 59.35 54.62 63.59 C 58.91 65.38 63.16 63.60 67.15 61.96 C 66.67 63.96 64.75 65.01 62.83 65.24 C 59.66 65.56 56.46 65.44 53.29 65.18 C 51.23 58.74 43.18 56.04 37.50 59.55 C 33.04 62.84 29.11 67.50 28.17 73.12 C 28.14 75.80 28.91 78.53 30.18 80.90 C 32.40 83.62 35.71 85.31 37.60 88.33 C 40.32 92.30 46.68 93.83 50.51 90.56 C 54.20 87.90 54.33 82.92 54.23 78.80 C 57.00 82.07 55.25 86.41 53.52 89.71 C 54.50 88.87 55.48 88.03 56.45 87.18 C 59.43 86.67 61.90 84.91 64.52 83.53 C 64.27 87.02 60.25 87.47 57.62 88.38 C 55.02 89.92 52.15 90.96 49.69 92.73 C 47.28 94.73 43.92 93.45 41.14 93.13 C 39.65 91.82 37.99 90.70 36.38 89.55 C 37.47 96.81 35.74 103.92 35.08 111.10 C 34.63 111.24 33.73 111.52 33.28 111.65 C 35.22 103.88 34.60 95.89 34.66 87.96 C 33.91 86.61 32.66 85.53 31.07 85.38 C 28.46 82.14 26.12 78.23 26.19 73.93 C 26.16 70.80 27.76 67.95 29.48 65.44 C 31.15 63.06 33.96 61.73 35.36 59.13 Z" />
<path fill="#333333" opacity="1.00" d=" M 140.33 67.30 C 137.94 64.76 139.23 61.16 141.13 58.75 C 141.31 59.51 141.67 61.04 141.86 61.81 C 141.36 63.64 140.87 65.47 140.33 67.30 Z" />
<path fill="#333333" opacity="1.00" d=" M 79.53 62.76 C 83.01 61.45 87.42 60.30 90.61 62.88 C 86.55 63.50 82.33 62.73 78.39 64.18 C 75.19 64.85 73.01 67.43 70.37 69.15 C 70.99 67.73 71.65 66.32 72.29 64.91 C 67.55 65.00 64.94 69.37 61.44 71.87 C 61.53 68.55 64.78 66.88 66.99 64.95 C 70.62 61.99 75.53 64.55 79.53 62.76 Z" />
<path fill="#333333" opacity="1.00" d=" M 86.99 67.18 C 89.30 64.69 91.88 61.83 95.53 61.64 C 93.68 64.67 90.26 66.19 86.99 67.18 Z" />
<path fill="#333333" opacity="1.00" d=" M 166.81 66.25 C 168.12 63.58 171.14 62.68 173.70 61.63 C 172.44 64.37 169.28 65.05 166.81 66.25 Z" />
<path fill="#333333" opacity="1.00" d=" M 99.80 63.88 C 101.35 63.56 102.91 63.00 104.51 63.43 C 106.68 63.14 108.57 64.33 110.35 65.41 C 106.82 66.57 103.39 63.99 99.80 63.88 Z" />
<path fill="#333333" opacity="1.00" d=" M 110.88 70.90 C 113.57 69.90 116.39 66.89 119.38 68.02 C 116.67 69.31 113.84 70.37 110.88 70.90 Z" />
<path fill="#333333" opacity="1.00" d=" M 75.42 70.67 C 78.41 69.39 81.53 68.43 84.71 67.71 C 82.53 70.93 81.24 75.10 77.31 76.66 C 76.65 74.67 76.03 72.67 75.42 70.67 M 76.84 71.68 C 77.23 72.56 77.63 73.44 78.04 74.31 C 79.43 72.86 80.87 71.45 82.29 70.02 C 80.47 70.57 78.66 71.12 76.84 71.68 Z" />
<path fill="#333333" opacity="1.00" d=" M 84.38 71.76 C 85.45 69.96 87.34 69.25 89.33 68.99 C 91.01 69.81 92.71 70.60 94.37 71.47 C 92.78 73.38 90.85 71.57 89.03 71.14 C 87.45 70.88 85.92 71.57 84.38 71.76 Z" />
<path fill="#333333" opacity="1.00" d=" M 47.27 73.64 C 48.48 71.46 50.83 71.85 52.94 71.99 C 52.91 72.44 52.86 73.36 52.83 73.81 C 50.97 73.77 49.12 73.72 47.27 73.64 Z" />
<path fill="#333333" opacity="1.00" d=" M 55.79 72.19 C 57.13 72.05 58.47 72.05 59.81 72.19 C 63.26 75.61 65.43 80.95 70.57 82.21 C 73.33 83.23 77.19 83.31 78.55 86.38 C 79.45 86.02 80.35 85.65 81.25 85.29 C 83.88 85.97 87.52 84.87 89.11 87.70 C 84.83 85.86 80.20 87.32 76.29 89.33 C 75.57 90.51 75.28 91.89 74.86 93.21 C 74.50 93.30 73.77 93.47 73.41 93.56 C 72.12 89.89 74.97 87.21 77.19 84.74 C 74.19 84.03 71.07 83.86 68.31 85.43 C 68.50 85.00 68.88 84.15 69.07 83.72 C 67.47 82.99 65.84 82.34 64.36 81.39 C 62.69 79.06 61.52 76.40 59.74 74.15 C 58.33 73.64 55.11 74.64 55.79 72.19 Z" />
<path fill="#333333" opacity="1.00" d=" M 110.99 77.86 C 115.14 76.12 118.59 72.80 123.10 72.02 C 119.15 73.56 117.03 78.63 112.18 77.85 C 110.50 80.66 108.92 83.53 107.02 86.20 C 107.57 87.26 108.12 88.31 108.68 89.36 C 107.15 89.31 105.62 89.26 104.09 89.21 C 103.80 91.83 101.91 92.99 99.25 93.10 C 99.51 92.36 100.03 90.88 100.29 90.13 C 105.48 87.59 107.04 81.61 110.99 77.86 Z" />
<path fill="#333333" opacity="1.00" d=" M 88.95 76.93 C 91.24 76.00 92.36 73.46 94.81 72.89 C 92.81 75.94 89.44 78.40 89.53 82.40 C 86.87 82.69 84.31 83.48 81.71 84.06 C 82.07 80.90 85.74 81.99 87.92 81.43 C 87.98 79.94 86.92 77.60 88.95 76.93 Z" />
<path fill="#333333" opacity="1.00" d=" M 95.73 78.37 C 98.13 77.01 100.94 76.86 103.63 76.57 C 103.49 76.93 103.22 77.66 103.09 78.02 C 100.64 78.25 98.19 78.43 95.73 78.37 Z" />
<path fill="#333333" opacity="1.00" d=" M 115.06 83.23 C 116.99 83.45 118.84 84.07 119.31 86.22 C 117.57 85.74 115.79 85.01 115.06 83.23 Z" />
<path fill="#333333" opacity="1.00" d=" M 93.80 84.92 C 94.62 85.81 95.42 86.71 96.23 87.61 C 96.11 88.72 96.90 90.21 95.97 91.07 C 92.42 91.64 94.20 86.97 93.80 84.92 Z" />
<path fill="#333333" opacity="1.00" d=" M 108.98 86.42 C 110.33 86.64 110.59 87.35 109.73 88.57 C 108.38 88.35 108.13 87.63 108.98 86.42 Z" />
<path fill="#333333" opacity="1.00" d=" M 111.94 86.36 C 114.22 86.56 116.60 87.55 116.03 90.36 C 114.25 89.50 112.89 88.07 111.94 86.36 Z" />
<path fill="#333333" opacity="1.00" d=" M 60.39 90.07 C 61.57 87.15 65.86 88.28 68.36 87.22 C 68.24 91.16 68.27 95.69 71.24 98.70 C 73.43 100.86 75.63 103.04 78.06 104.95 C 80.72 106.26 84.15 106.94 85.34 110.04 C 83.21 109.40 81.16 108.54 79.08 107.76 C 78.11 113.46 82.13 117.87 85.44 121.93 C 84.96 122.47 84.48 123.01 83.99 123.54 C 82.41 120.97 80.53 118.62 78.70 116.24 C 76.39 113.45 77.18 109.44 75.93 106.26 C 73.24 103.65 70.69 100.90 68.03 98.26 C 65.34 99.33 63.37 96.95 61.45 95.50 C 59.45 93.82 56.71 92.52 56.38 89.61 C 60.16 91.53 63.12 94.71 66.77 96.87 C 66.54 94.47 66.47 92.05 66.50 89.64 C 64.48 89.96 62.43 90.07 60.39 90.07 Z" />
<path fill="#333333" opacity="1.00" d=" M 47.00 96.95 C 47.55 96.80 48.65 96.48 49.20 96.33 C 48.12 99.16 46.35 101.70 45.41 104.59 C 44.50 109.86 43.54 115.14 42.16 120.31 C 41.06 121.87 39.91 123.40 38.98 125.07 C 37.13 126.09 35.06 126.42 32.99 126.58 C 29.99 126.67 28.01 129.39 25.16 129.91 C 23.02 130.19 20.86 130.14 18.72 130.26 C 17.51 129.21 15.94 127.96 16.51 126.14 C 17.41 124.05 18.73 122.15 20.04 120.30 C 22.73 116.31 27.67 115.08 31.90 113.44 C 30.53 117.17 26.08 117.21 23.48 119.58 C 22.06 121.63 21.03 123.97 19.11 125.64 C 19.37 126.47 19.64 127.30 19.90 128.13 C 25.11 129.02 28.91 124.49 33.97 124.38 C 36.50 124.45 38.26 122.66 39.90 120.99 C 37.85 120.07 36.12 118.56 35.23 116.48 C 34.15 116.06 33.06 115.70 31.95 115.38 C 32.97 114.98 33.73 114.30 34.24 113.34 C 36.49 115.16 38.31 117.42 39.69 119.96 C 42.26 112.31 42.65 103.94 47.00 96.95 Z" />
<path fill="#333333" opacity="1.00" d=" M 89.73 103.71 C 90.74 101.09 94.33 102.44 95.13 104.54 C 93.52 104.67 90.94 103.64 90.54 106.08 C 89.65 110.14 91.99 113.96 93.53 117.56 C 94.64 120.30 97.46 122.04 97.98 125.06 C 93.10 123.05 91.36 117.76 89.38 113.34 C 88.09 110.31 87.69 106.51 89.73 103.71 Z" />
<path fill="#333333" opacity="1.00" d=" M 97.79 109.85 C 100.63 112.10 97.03 114.65 95.76 116.70 C 95.06 115.84 94.36 114.98 93.73 114.07 C 94.66 113.49 95.61 112.95 96.58 112.44 C 96.88 111.80 97.48 110.50 97.79 109.85 Z" />
<path fill="#333333" opacity="1.00" d=" M 86.69 113.66 C 87.50 114.63 87.94 115.78 87.89 117.06 C 87.99 119.96 88.99 122.69 89.84 125.44 C 93.27 126.60 92.11 130.94 91.35 133.54 C 89.79 137.49 91.41 141.58 92.35 145.45 C 94.81 151.27 94.32 157.81 93.06 163.85 C 95.76 165.66 97.17 168.61 98.09 171.63 C 97.62 171.48 96.69 171.19 96.22 171.05 C 95.22 169.15 94.53 166.96 92.79 165.57 C 87.64 165.21 80.80 164.67 78.09 170.17 C 76.49 173.83 72.02 175.17 70.93 179.15 C 74.68 180.29 78.65 181.86 82.62 180.84 C 88.61 179.99 93.75 176.50 99.74 175.67 C 102.46 173.22 103.47 168.11 101.08 165.03 L 100.67 167.70 C 97.97 165.80 99.37 162.44 100.07 159.90 C 100.70 158.20 100.84 155.73 103.20 155.65 C 102.96 158.38 102.21 161.03 101.45 163.66 C 101.93 164.36 102.42 165.07 102.92 165.77 C 103.27 162.76 104.32 159.89 104.68 156.89 C 105.12 151.42 107.94 146.48 108.37 141.00 C 109.19 136.67 106.51 132.71 106.84 128.38 C 110.59 133.31 111.30 140.10 109.48 145.93 C 107.35 152.92 105.54 160.02 104.01 167.16 C 103.45 168.84 104.66 171.41 102.59 172.30 C 102.68 172.97 102.86 174.31 102.95 174.98 C 101.75 176.17 100.71 177.87 98.92 178.19 C 93.01 179.26 87.46 181.63 81.81 183.57 C 78.95 183.68 76.15 182.93 73.36 182.45 C 71.99 181.05 70.63 179.65 69.23 178.29 C 70.27 175.44 72.71 173.59 74.81 171.54 C 77.14 167.26 81.74 162.62 87.06 164.15 C 87.49 164.02 88.35 163.75 88.78 163.62 C 89.46 163.79 90.82 164.13 91.50 164.30 C 91.57 159.36 92.33 154.41 91.77 149.48 C 90.59 145.37 88.48 141.45 88.54 137.06 C 88.14 134.00 91.22 130.79 89.03 128.02 C 87.79 126.10 85.72 124.96 83.98 123.57 C 84.76 123.66 86.33 123.84 87.11 123.93 C 85.57 120.64 85.25 117.07 86.69 113.66 Z" />
<path fill="#333333" opacity="1.00" d=" M 101.93 128.62 C 102.27 128.30 102.95 127.65 103.30 127.32 C 103.33 130.84 101.65 133.98 100.06 136.99 C 98.08 140.26 96.85 144.17 93.57 146.44 C 93.54 144.10 95.28 142.37 96.24 140.39 C 98.06 136.43 100.31 132.68 101.93 128.62 Z" />
<path fill="#333333" opacity="1.00" d=" M 101.95 143.92 C 102.62 141.87 102.44 139.17 104.52 137.93 C 103.74 143.51 102.25 149.04 99.41 153.95 C 99.19 153.47 98.74 152.52 98.51 152.04 C 100.15 149.56 101.45 146.87 101.95 143.92 Z" />
</g>
</svg>
