<?xml version="1.0" encoding="UTF-8" ?>
<!DOCTYPE svg PUBLIC "-//W3C//DTD SVG 1.1//EN" "http://www.w3.org/Graphics/SVG/1.1/DTD/svg11.dtd">
<svg width="221pt" height="275pt" viewBox="0 0 221 275" version="1.1" xmlns="http://www.w3.org/2000/svg">
<g id="#ffffffff">
<path fill="#FFFFFF" opacity="1.00" d=" M 0.00 0.00 L 221.00 0.00 L 221.00 275.00 L 0.00 275.00 L 0.00 0.00 M 83.93 34.94 C 83.68 39.70 83.98 44.70 86.45 48.89 C 87.17 50.49 85.36 54.20 87.92 54.11 L 88.54 53.88 C 88.61 52.77 88.74 50.54 88.81 49.42 C 90.41 51.47 91.42 53.91 93.05 55.94 C 96.25 58.75 100.66 59.67 104.81 59.85 C 105.31 62.58 106.73 66.08 103.30 67.46 C 101.92 67.15 100.54 66.84 99.16 66.55 C 97.80 65.38 96.42 64.23 95.02 63.11 C 93.73 60.86 92.23 58.74 90.70 56.64 C 91.44 58.71 92.17 60.79 92.94 62.85 C 90.90 63.38 88.49 63.31 86.88 64.86 C 85.49 66.33 84.66 68.21 83.60 69.91 C 83.72 70.56 83.95 71.84 84.07 72.49 C 86.22 74.27 89.46 75.74 89.63 78.91 C 89.77 87.95 90.38 96.99 91.11 106.02 C 91.62 111.94 89.24 117.54 86.45 122.61 C 85.83 122.86 84.59 123.35 83.97 123.59 C 81.56 122.33 79.09 121.19 76.61 120.09 C 75.34 117.87 73.77 115.84 72.45 113.65 C 73.60 108.44 74.91 103.17 74.76 97.78 C 83.17 92.10 82.57 78.93 76.67 71.61 C 78.17 70.60 79.47 69.35 80.70 68.05 C 81.87 64.34 85.87 62.89 88.20 60.07 C 88.59 58.44 88.50 56.70 87.83 55.16 C 85.91 55.90 86.96 59.57 84.93 60.76 C 81.14 63.41 79.15 67.90 75.09 70.20 C 73.83 69.35 72.52 68.60 71.20 67.86 C 68.57 68.77 65.27 69.08 63.69 71.71 C 59.72 78.13 60.31 86.66 64.07 93.03 C 65.93 96.23 69.40 98.20 73.07 98.43 C 72.89 101.96 72.87 105.55 71.86 108.98 C 71.37 111.08 70.17 113.21 70.80 115.42 C 71.79 117.73 73.74 119.44 75.29 121.36 C 66.05 123.69 55.31 123.32 47.89 130.14 C 47.89 132.04 47.90 133.94 47.91 135.84 C 53.15 138.84 58.20 142.28 62.72 146.27 C 63.76 149.97 63.59 153.89 63.43 157.69 C 56.91 161.62 48.80 161.90 42.42 166.18 C 41.72 169.64 41.66 173.62 45.12 175.59 C 54.99 171.34 65.42 168.74 75.56 165.28 C 76.06 165.17 77.06 164.96 77.56 164.85 C 80.03 163.96 82.57 163.24 85.10 162.53 C 85.76 164.68 86.36 166.85 87.00 169.01 C 87.41 169.12 88.25 169.33 88.67 169.44 C 90.28 173.21 93.72 175.95 94.80 179.96 C 96.65 184.83 95.00 190.00 94.68 195.00 C 93.19 200.30 91.00 205.47 90.22 210.97 C 90.45 217.50 93.12 223.64 94.02 230.08 C 94.75 234.01 93.28 237.91 93.42 241.83 C 94.56 245.77 94.32 250.02 96.31 253.70 C 97.82 256.69 96.65 261.04 100.09 262.90 C 103.91 266.17 109.22 265.95 113.89 265.24 C 114.26 264.75 115.00 263.79 115.38 263.30 C 116.67 263.28 117.97 263.25 119.27 263.23 C 119.62 261.81 120.23 260.41 120.18 258.93 C 118.57 254.74 114.87 251.91 112.67 248.08 C 111.24 245.61 109.60 243.27 108.29 240.73 C 106.15 235.94 106.27 230.55 106.51 225.41 C 118.08 221.14 129.59 216.72 141.14 212.39 C 144.49 211.52 143.87 207.46 144.68 204.84 C 142.47 203.81 140.33 202.60 137.97 201.97 C 131.60 203.59 125.47 206.07 119.19 208.03 C 119.28 198.65 119.46 189.28 119.50 179.90 C 127.74 177.91 135.98 175.82 143.95 172.91 C 146.79 171.94 146.99 168.64 146.69 166.11 C 149.25 168.69 152.35 170.69 155.87 171.68 C 155.00 177.37 153.99 183.07 154.37 188.85 C 155.59 193.84 159.46 197.86 159.74 203.15 C 161.23 211.36 156.15 219.02 157.65 227.24 C 160.94 229.75 165.06 229.85 168.98 229.13 C 172.51 228.45 175.22 231.13 178.32 232.18 C 180.85 232.40 183.38 232.84 185.92 232.85 C 189.28 231.68 192.57 229.98 194.76 227.09 C 193.55 225.68 192.44 224.16 190.96 223.03 C 189.01 222.06 186.68 222.11 184.83 220.94 C 180.28 218.22 177.85 213.16 173.29 210.43 C 170.38 200.81 172.50 190.60 170.32 180.87 C 170.14 176.18 169.81 171.37 171.00 166.79 C 172.02 162.85 170.07 158.96 168.40 155.51 C 165.90 151.31 160.58 150.84 157.17 147.73 C 151.48 143.08 144.46 140.56 137.53 138.45 C 133.25 136.37 127.04 135.11 126.30 129.50 C 125.89 129.89 125.07 130.67 124.65 131.05 C 125.57 127.46 123.84 124.30 122.00 121.41 C 120.48 114.25 120.12 106.38 123.38 99.62 C 127.13 103.07 131.86 104.95 136.56 106.70 C 136.76 106.54 137.17 106.20 137.37 106.04 C 139.21 107.46 140.99 109.04 143.15 109.95 C 147.34 111.05 149.83 106.87 152.63 104.59 C 157.24 98.96 159.70 91.75 160.40 84.55 C 160.91 80.40 162.80 76.50 162.85 72.28 C 163.69 68.68 161.62 65.48 160.97 62.05 C 160.81 60.53 160.04 59.28 158.91 58.27 C 159.85 54.80 162.12 52.10 165.28 50.41 C 171.45 52.33 175.29 58.65 175.00 64.98 C 175.38 69.03 174.28 73.50 171.00 76.14 C 169.26 77.61 166.79 76.87 164.72 77.04 C 165.04 77.60 165.67 78.71 165.98 79.27 C 170.30 79.54 174.36 76.75 175.52 72.57 C 177.90 64.68 176.44 54.27 168.67 49.87 C 166.42 50.08 163.95 49.72 161.97 51.04 C 159.03 52.54 158.24 56.07 157.56 59.01 C 155.59 58.89 153.50 58.72 152.23 60.55 C 154.36 60.39 156.48 60.15 158.61 59.97 C 159.07 61.56 159.61 63.13 160.19 64.69 C 160.69 68.37 162.67 72.14 160.99 75.80 C 157.98 82.38 158.61 89.93 155.33 96.40 C 153.71 101.18 149.96 104.61 146.45 108.02 C 145.36 108.08 144.28 108.14 143.19 108.19 C 138.86 105.86 136.62 101.16 132.38 98.83 C 133.39 100.77 134.60 102.60 135.78 104.43 C 133.26 103.39 130.69 102.39 128.45 100.78 C 122.25 97.47 121.89 89.22 122.27 83.04 C 123.74 83.64 125.24 84.13 126.79 84.50 C 125.57 82.51 123.98 80.79 122.75 78.81 C 121.93 80.97 121.05 83.11 120.06 85.20 C 120.51 89.84 122.52 94.33 121.89 99.05 C 121.20 101.76 119.65 104.13 118.31 106.56 C 117.40 106.67 116.48 106.79 115.58 106.91 C 114.93 104.51 113.99 102.23 112.93 99.99 C 112.95 102.69 112.86 105.41 112.00 107.99 C 108.75 107.84 105.45 107.99 102.75 110.02 C 101.73 107.95 100.80 105.85 99.92 103.73 C 99.45 103.69 98.50 103.63 98.02 103.59 C 98.93 106.24 99.42 109.52 102.15 110.96 C 103.54 111.79 105.06 110.69 106.39 110.27 C 110.28 110.87 113.39 106.99 117.19 108.71 C 117.66 108.28 118.59 107.41 119.06 106.97 C 119.13 111.26 119.78 115.50 119.96 119.78 C 115.81 122.07 111.06 122.57 106.55 123.78 C 106.66 123.18 106.89 121.98 107.00 121.38 C 104.35 119.73 102.50 117.20 100.46 114.90 C 100.54 118.23 102.91 122.30 106.64 122.03 C 106.00 122.58 105.35 123.14 104.71 123.69 C 100.84 122.63 96.85 122.07 92.84 122.38 C 91.72 121.72 90.59 121.07 89.46 120.44 C 92.25 114.41 94.17 107.75 92.61 101.09 C 93.00 100.66 93.40 100.23 93.80 99.82 C 95.25 100.54 96.78 101.04 98.38 101.30 C 97.17 100.05 95.85 98.91 94.47 97.86 C 93.65 98.38 92.83 98.90 92.01 99.41 C 91.95 97.19 91.79 94.98 91.63 92.76 C 94.82 92.12 98.46 91.43 100.07 88.20 C 102.05 88.08 104.22 88.21 105.88 86.94 C 107.36 85.22 108.09 83.03 109.08 81.03 C 108.05 78.45 106.98 75.87 105.44 73.54 C 105.39 77.42 107.88 81.12 105.94 84.91 C 105.20 85.30 103.70 86.07 102.95 86.46 C 102.52 85.98 102.09 85.49 101.68 85.00 C 103.37 79.14 102.68 72.63 99.62 67.33 C 102.09 70.49 104.28 68.17 105.86 65.99 C 106.75 65.34 107.64 64.68 108.53 64.02 C 113.90 63.44 119.11 65.08 124.02 67.06 C 128.25 68.98 129.15 74.07 130.10 78.13 C 129.13 78.20 127.20 78.33 126.24 78.40 C 130.45 80.98 135.67 81.65 139.02 85.64 C 139.52 85.09 140.03 84.54 140.54 83.99 C 137.85 81.98 135.16 79.91 132.09 78.52 C 132.40 75.24 131.50 72.04 129.46 69.45 C 127.31 65.89 122.90 65.31 119.52 63.49 C 115.50 60.95 110.37 62.22 106.27 63.94 C 106.23 62.56 106.18 61.18 106.12 59.80 C 109.22 60.80 112.49 61.50 115.72 60.60 C 113.08 59.48 110.20 59.20 107.41 58.69 C 109.01 54.02 109.94 49.10 110.22 44.17 C 109.88 39.75 108.67 35.43 107.70 31.12 C 104.93 25.96 98.22 25.37 93.07 26.36 C 88.65 26.97 84.55 30.41 83.93 34.94 M 137.64 58.75 C 134.69 63.60 134.27 69.72 135.95 75.09 C 137.06 79.56 140.19 84.15 144.95 85.10 C 149.74 85.85 153.27 81.40 154.23 77.19 C 156.67 68.94 153.74 57.83 144.92 54.74 C 142.24 55.51 139.25 56.23 137.64 58.75 M 77.25 72.36 C 79.30 73.42 81.60 73.46 83.84 73.61 C 83.60 72.72 83.13 70.94 82.89 70.05 C 81.01 70.81 79.12 71.56 77.25 72.36 M 108.39 82.96 C 110.58 87.52 116.10 86.08 119.65 84.19 C 117.64 83.83 115.63 84.12 113.68 84.63 C 111.94 83.99 110.19 83.39 108.39 82.96 M 133.69 83.66 C 135.17 86.04 136.99 88.20 138.41 90.63 C 139.53 92.52 138.56 94.68 137.94 96.55 C 136.45 95.75 134.95 94.98 133.36 94.40 C 131.23 93.22 128.96 92.14 127.27 90.33 C 126.36 90.59 125.45 90.82 124.53 91.05 C 127.24 93.45 130.15 96.17 133.99 96.29 C 135.21 97.17 136.39 98.09 137.54 99.05 C 138.52 96.96 139.91 95.11 141.51 93.45 C 140.95 92.35 140.39 91.25 139.83 90.15 C 141.16 90.27 142.37 90.85 143.57 91.40 C 145.65 89.28 147.76 87.20 149.86 85.09 C 148.65 85.32 146.23 85.78 145.03 86.00 C 144.53 86.99 144.04 87.97 143.56 88.96 C 142.99 88.94 141.84 88.90 141.27 88.87 L 142.15 85.48 C 140.85 85.99 139.69 86.76 138.66 87.71 C 137.04 86.31 135.42 84.92 133.69 83.66 M 125.09 84.94 C 124.35 86.82 124.22 88.78 124.72 90.82 C 125.41 90.15 126.09 89.47 126.76 88.78 C 126.15 87.62 126.70 85.26 125.09 84.94 M 113.65 88.47 C 112.40 89.36 111.11 90.21 109.79 91.00 C 110.55 91.38 111.31 91.76 112.08 92.14 C 112.02 93.35 111.92 94.56 111.78 95.77 C 109.66 96.52 107.38 96.93 105.58 98.38 C 103.14 99.12 101.60 101.19 100.42 103.32 C 104.49 100.72 108.79 98.54 113.29 96.79 C 116.08 97.06 118.85 97.49 121.57 98.21 C 119.87 95.41 116.69 95.11 113.71 95.27 C 113.12 93.76 112.45 92.28 111.73 90.83 C 112.65 90.34 113.57 89.83 114.49 89.32 C 115.70 89.68 116.91 90.03 118.13 90.38 C 117.51 89.80 116.26 88.63 115.64 88.05 C 115.14 88.15 114.15 88.37 113.65 88.47 M 99.03 97.22 C 100.58 96.48 102.10 95.66 103.62 94.86 C 104.98 92.59 106.65 90.53 108.30 88.47 C 103.51 88.97 102.34 94.48 99.03 97.22 M 76.64 104.52 C 76.02 105.80 75.43 107.11 74.95 108.46 C 76.85 106.16 78.79 103.86 80.46 101.38 C 82.11 98.01 81.48 94.08 81.28 90.47 C 79.14 94.96 79.25 100.17 76.64 104.52 M 99.18 114.33 C 99.45 114.06 99.98 113.52 100.25 113.25 C 101.16 113.72 102.99 114.65 103.90 115.11 C 102.96 113.77 101.97 112.36 100.19 112.16 C 98.94 110.01 97.60 107.90 95.96 106.03 C 95.21 109.23 97.83 111.72 99.18 114.33 M 80.19 115.34 C 78.76 115.81 76.87 116.05 77.04 118.03 C 80.25 119.45 83.14 116.20 83.32 113.16 C 82.26 113.87 81.22 114.60 80.19 115.34 M 112.46 114.45 C 111.36 115.07 111.62 117.79 113.21 116.70 C 115.31 115.91 114.54 112.08 112.46 114.45 Z" />
<path fill="#FFFFFF" opacity="1.00" d=" M 88.68 30.71 C 92.26 27.40 97.47 27.43 102.04 27.63 C 103.65 29.18 105.51 30.58 106.61 32.57 C 107.44 35.32 107.73 38.21 108.45 40.99 C 109.50 45.30 108.15 49.68 107.31 53.91 C 107.05 56.52 104.15 58.92 101.62 57.48 C 98.34 56.00 94.13 55.18 92.50 51.56 C 91.35 48.76 88.36 47.62 86.35 45.57 C 86.89 44.08 87.44 42.60 88.00 41.11 C 87.30 41.22 85.91 41.44 85.21 41.54 C 85.00 37.70 85.50 33.32 88.68 30.71 Z" />
<path fill="#FFFFFF" opacity="1.00" d=" M 141.24 57.39 C 142.32 56.87 143.35 56.26 144.39 55.67 L 144.13 56.49 C 149.27 57.90 152.68 62.95 153.09 68.11 C 153.83 72.81 153.44 78.41 149.67 81.78 C 147.42 83.94 143.62 83.67 141.45 81.53 C 136.43 76.97 135.71 69.31 137.25 63.04 C 137.74 60.66 139.46 58.91 141.24 57.39 Z" />
<path fill="#FFFFFF" opacity="1.00" d=" M 84.57 71.50 C 85.95 68.19 87.83 64.72 91.54 63.64 C 100.54 66.31 103.14 77.96 99.67 85.76 C 98.39 89.00 94.97 90.12 91.99 91.23 C 91.51 86.99 89.71 82.60 91.62 78.46 C 90.86 75.19 88.73 70.17 84.57 71.50 Z" />
<path fill="#FFFFFF" opacity="1.00" d=" M 67.38 70.28 C 69.26 68.23 71.87 70.10 73.76 71.18 C 79.28 75.45 80.34 83.34 78.78 89.76 C 77.78 93.48 74.24 97.45 70.01 96.01 C 64.88 94.01 62.81 88.01 62.56 82.92 C 62.44 78.40 63.09 72.83 67.38 70.28 Z" />
<path fill="#FFFFFF" opacity="1.00" d=" M 102.02 125.25 C 108.00 126.56 113.99 124.38 119.63 122.61 C 122.07 124.65 123.71 127.19 123.00 130.51 C 125.02 133.06 127.06 135.63 129.81 137.45 C 131.90 137.40 133.99 137.61 136.05 138.03 C 131.56 140.43 128.67 144.65 126.61 149.17 C 125.94 152.73 125.66 156.36 124.89 159.91 C 123.54 157.26 121.00 155.73 118.37 154.59 C 116.41 155.14 114.43 155.61 112.46 156.10 C 111.71 154.51 110.99 152.92 110.28 151.32 C 111.30 149.53 112.28 147.72 113.09 145.82 C 111.25 147.26 108.92 148.70 108.41 151.16 C 108.91 153.88 110.27 156.34 111.52 158.78 C 111.58 159.23 111.69 160.13 111.74 160.59 C 110.38 159.28 109.17 157.79 107.59 156.74 C 105.32 156.15 102.98 155.91 100.66 155.64 C 100.50 156.29 100.17 157.58 100.00 158.23 C 102.61 158.62 105.23 158.95 107.86 159.18 C 110.27 163.13 113.28 166.95 114.13 171.61 C 114.70 175.63 114.54 179.76 113.55 183.71 C 113.36 180.21 114.50 175.42 110.50 173.63 C 109.68 173.58 108.03 173.50 107.21 173.45 L 108.50 171.57 C 107.98 172.30 107.46 173.04 106.93 173.77 L 106.50 172.34 C 104.62 174.28 102.64 176.14 101.00 178.30 C 103.30 177.52 105.22 175.98 106.61 174.00 C 107.64 173.97 108.67 173.95 109.70 173.95 L 109.00 174.54 C 110.00 175.39 110.99 176.24 111.98 177.10 C 111.91 179.02 111.79 180.94 111.57 182.86 C 113.00 186.89 109.65 190.16 109.00 193.96 C 108.13 198.84 104.67 202.66 103.52 207.45 C 102.78 210.79 102.36 214.47 103.89 217.67 C 105.27 212.37 104.67 206.57 107.68 201.75 C 107.92 206.19 108.68 210.94 106.70 215.11 C 103.66 221.57 103.54 229.06 104.84 235.98 C 105.65 241.64 109.49 246.10 112.20 250.94 C 114.69 253.97 117.30 256.93 119.17 260.42 C 117.74 260.73 116.30 261.02 114.85 261.29 C 114.67 260.43 114.30 258.71 114.11 257.85 C 110.53 257.31 106.92 258.12 103.33 258.08 C 102.51 258.86 101.72 259.77 100.52 259.84 C 99.67 253.63 96.56 248.05 95.32 241.93 C 95.42 238.62 96.57 235.36 96.14 232.03 C 95.69 225.20 92.61 218.86 92.22 212.04 C 92.37 206.85 94.22 201.89 96.17 197.14 C 97.54 199.98 97.73 203.72 100.60 205.58 C 99.12 198.58 95.81 191.52 97.71 184.26 C 96.62 180.80 97.23 176.40 93.94 174.07 C 91.52 172.32 91.01 169.33 90.18 166.66 C 91.85 163.59 94.47 161.26 97.12 159.05 C 97.70 159.27 98.87 159.71 99.46 159.93 C 99.55 159.02 99.73 157.22 99.83 156.32 C 94.63 157.80 90.68 161.79 88.07 166.37 C 87.50 164.43 87.11 162.45 86.85 160.45 C 85.65 157.66 84.59 154.81 83.56 151.95 C 83.91 150.79 84.26 149.65 84.61 148.50 C 84.01 148.64 82.80 148.92 82.20 149.06 C 85.46 143.85 84.68 137.68 83.94 131.92 C 83.23 133.14 82.69 134.44 82.26 135.79 C 82.31 134.31 82.28 132.83 82.23 131.36 L 83.06 132.22 C 83.76 129.95 84.59 127.72 85.37 125.48 C 86.52 124.58 87.64 123.65 88.73 122.69 C 92.80 124.99 97.59 124.41 102.02 125.25 M 99.52 127.69 C 97.33 127.25 95.17 126.69 92.94 126.50 C 92.15 126.15 90.58 125.46 89.79 125.12 C 88.39 128.20 86.47 131.55 87.94 134.98 C 88.74 132.33 89.49 129.66 90.56 127.10 C 93.11 127.53 95.69 127.77 98.27 127.95 C 96.72 128.92 95.70 130.41 94.69 131.88 C 92.67 135.13 88.33 135.77 86.23 138.96 C 90.93 137.63 95.70 135.26 97.90 130.63 C 103.09 128.95 108.71 129.58 113.99 128.23 C 116.77 128.20 118.78 126.30 120.50 124.35 C 113.84 126.83 106.69 128.90 99.52 127.69 M 98.83 132.68 C 98.97 133.57 99.26 135.35 99.41 136.24 C 100.33 135.05 101.26 133.87 102.00 132.57 C 100.94 132.57 99.88 132.61 98.83 132.68 M 100.75 139.88 C 99.64 140.50 99.29 141.80 98.70 142.83 C 104.22 140.22 109.07 136.32 115.01 134.51 C 116.67 134.42 118.33 134.27 119.98 134.05 C 119.49 133.70 118.51 132.99 118.01 132.63 C 111.46 132.25 105.84 136.28 100.75 139.88 M 114.36 136.90 C 110.40 137.92 106.54 139.49 103.24 141.96 C 107.36 141.48 110.99 139.30 114.98 138.33 C 116.62 137.10 118.31 135.95 119.91 134.68 C 117.77 134.62 115.88 135.44 114.36 136.90 M 104.34 189.13 C 104.48 189.80 104.76 191.15 104.90 191.83 C 106.40 191.30 107.85 190.63 109.20 189.78 C 107.58 189.52 105.96 189.31 104.34 189.13 M 97.42 243.99 C 100.55 242.27 101.79 238.83 103.54 235.94 C 103.09 235.77 102.21 235.45 101.76 235.29 C 99.91 237.96 98.36 240.87 97.42 243.99 Z" />
<path fill="#FFFFFF" opacity="1.00" d=" M 50.08 130.69 C 57.38 125.58 66.61 125.17 75.14 124.01 C 76.89 123.47 78.32 124.70 79.77 125.44 C 79.68 125.07 79.51 124.32 79.42 123.95 C 80.26 124.30 81.93 125.02 82.77 125.38 C 82.07 126.98 81.21 128.53 80.69 130.20 C 80.04 134.56 81.94 138.73 82.30 143.02 C 82.46 145.41 81.57 147.68 81.13 150.00 C 81.48 152.15 82.28 154.20 82.90 156.29 C 78.80 153.42 73.56 151.60 70.81 147.21 C 71.00 147.71 71.37 148.70 71.56 149.19 C 68.47 147.81 65.65 145.93 63.06 143.76 C 58.86 140.51 54.56 137.36 50.05 134.57 C 50.06 133.28 50.07 131.98 50.08 130.69 Z" />
<path fill="#FFFFFF" opacity="1.00" d=" M 131.61 144.61 C 133.01 143.00 134.61 140.91 137.02 141.15 C 144.87 141.23 151.35 146.13 157.47 150.47 C 160.34 152.72 164.53 153.12 166.62 156.36 C 167.85 158.81 168.87 161.39 169.78 163.98 C 168.53 169.58 168.03 175.33 168.07 181.07 C 169.14 186.29 169.81 191.62 169.37 196.97 C 168.91 201.44 170.07 205.82 170.87 210.18 C 173.43 212.93 176.32 215.37 178.58 218.39 C 180.74 221.22 183.54 223.80 187.18 224.43 C 189.23 224.72 190.88 225.92 192.28 227.37 C 190.22 228.51 188.32 230.04 186.05 230.76 C 182.51 230.24 178.79 230.07 175.56 228.40 C 171.07 225.90 165.84 228.44 161.11 227.14 C 159.38 226.48 159.72 224.51 159.76 223.06 C 159.90 219.40 160.27 215.68 161.80 212.31 C 161.58 208.03 162.07 203.70 161.29 199.47 C 160.33 195.84 157.60 192.85 157.45 188.98 C 156.28 183.46 156.97 177.82 156.35 172.26 C 157.21 172.14 158.93 171.91 159.79 171.79 C 159.68 171.35 159.47 170.47 159.36 170.03 C 156.03 169.25 152.72 168.15 150.14 165.82 C 146.76 163.00 142.31 161.90 137.97 162.24 C 134.07 162.70 130.46 160.99 127.02 159.41 C 129.19 154.63 127.80 148.61 131.61 144.61 M 157.37 153.74 C 158.08 156.55 159.49 159.16 159.83 162.06 C 158.89 163.19 157.83 165.35 156.00 164.69 C 153.00 163.71 150.84 161.15 148.01 159.81 C 149.68 162.87 152.34 165.76 155.99 166.23 C 158.42 166.75 160.40 164.77 161.62 162.92 C 162.14 159.32 159.83 156.12 157.37 153.74 M 163.47 212.95 C 162.08 216.29 162.88 219.73 165.34 222.28 C 164.86 219.14 164.31 216.01 163.47 212.95 Z" />
<path fill="#FFFFFF" opacity="1.00" d=" M 65.12 147.18 C 65.52 147.70 66.30 148.76 66.70 149.28 C 68.44 149.96 70.15 150.72 71.82 151.55 C 71.91 153.30 72.04 155.04 72.21 156.79 C 72.95 155.60 73.63 154.38 74.27 153.13 C 77.88 155.65 81.77 157.75 85.28 160.40 C 82.32 161.39 79.35 162.35 76.35 163.23 C 65.90 166.65 55.13 169.15 45.05 173.63 C 44.08 171.61 44.01 169.36 43.93 167.16 C 48.52 165.29 53.11 163.36 57.95 162.19 C 60.24 160.88 62.75 160.05 65.22 159.19 C 65.14 155.18 65.10 151.18 65.12 147.18 Z" />
<path fill="#FFFFFF" opacity="1.00" d=" M 113.47 162.74 C 112.67 159.65 115.92 158.32 117.96 156.97 C 120.26 159.09 122.16 161.68 124.98 163.17 C 125.34 162.72 126.05 161.82 126.41 161.37 C 130.48 164.03 135.26 165.70 140.18 165.24 C 142.72 164.69 145.62 167.49 144.12 169.99 C 135.21 173.92 125.42 175.44 116.34 178.69 C 116.18 176.47 116.94 174.27 116.58 172.06 C 116.07 168.80 114.55 165.82 113.47 162.74 Z" />
<path fill="#FFFFFF" opacity="1.00" d=" M 114.12 185.24 C 114.72 183.08 115.84 181.08 117.49 179.54 C 118.15 189.87 116.46 200.26 117.18 210.61 C 123.67 209.12 129.81 206.48 136.19 204.61 C 138.22 203.75 140.15 205.12 142.05 205.71 C 141.90 207.02 141.75 208.33 141.61 209.65 C 135.29 212.69 128.60 214.80 122.06 217.29 C 116.71 219.07 111.63 221.60 106.21 223.15 C 107.27 219.57 108.93 216.19 109.87 212.57 C 110.79 208.09 109.77 203.53 109.90 199.02 C 110.59 194.23 112.80 189.86 114.12 185.24 Z" />
<path fill="#FFFFFF" opacity="1.00" d=" M 102.50 262.14 C 103.14 261.29 103.78 260.45 104.41 259.60 C 107.69 261.32 111.81 257.84 114.19 261.46 C 110.85 264.37 106.25 263.92 102.50 262.14 Z" />
</g>
<g id="#494a49ff">
<path fill="#333333" opacity="1.00" d=" M 83.93 34.94 C 84.55 30.41 88.65 26.97 93.07 26.36 C 98.22 25.37 104.93 25.96 107.70 31.12 C 108.67 35.43 109.88 39.75 110.22 44.17 C 109.94 49.10 109.01 54.02 107.41 58.69 C 110.20 59.20 113.08 59.48 115.72 60.60 C 112.49 61.50 109.22 60.80 106.12 59.80 C 106.18 61.18 106.23 62.56 106.27 63.94 C 110.37 62.22 115.50 60.95 119.52 63.49 C 122.90 65.31 127.31 65.89 129.46 69.45 C 131.50 72.04 132.40 75.24 132.09 78.52 C 135.16 79.91 137.85 81.98 140.54 83.99 C 140.03 84.54 139.52 85.09 139.02 85.64 C 135.67 81.65 130.45 80.98 126.24 78.40 C 127.20 78.33 129.13 78.20 130.10 78.13 C 129.15 74.07 128.25 68.98 124.02 67.06 C 119.11 65.08 113.90 63.44 108.53 64.02 C 107.64 64.68 106.75 65.34 105.86 65.99 C 104.28 68.17 102.09 70.49 99.62 67.33 C 102.68 72.63 103.37 79.14 101.68 85.00 C 102.09 85.49 102.52 85.98 102.95 86.46 C 103.70 86.07 105.20 85.30 105.94 84.91 C 107.88 81.12 105.39 77.42 105.44 73.54 C 106.98 75.87 108.05 78.45 109.08 81.03 C 108.09 83.03 107.36 85.22 105.88 86.94 C 104.22 88.21 102.05 88.08 100.07 88.20 C 98.46 91.43 94.82 92.12 91.63 92.76 C 91.79 94.98 91.95 97.19 92.01 99.41 C 92.83 98.90 93.65 98.38 94.47 97.86 C 95.85 98.91 97.17 100.05 98.38 101.30 C 96.78 101.04 95.25 100.54 93.80 99.82 C 93.40 100.23 93.00 100.66 92.61 101.09 C 94.17 107.75 92.25 114.41 89.46 120.44 C 90.59 121.07 91.72 121.72 92.84 122.38 C 96.85 122.07 100.84 122.63 104.71 123.69 C 105.35 123.14 106.00 122.58 106.64 122.03 C 102.91 122.30 100.54 118.23 100.46 114.90 C 102.50 117.20 104.35 119.73 107.00 121.38 C 106.89 121.98 106.66 123.18 106.55 123.78 C 111.06 122.57 115.81 122.07 119.96 119.78 C 119.78 115.50 119.13 111.26 119.06 106.97 C 118.59 107.41 117.66 108.28 117.19 108.71 C 113.39 106.99 110.28 110.87 106.39 110.27 C 105.06 110.69 103.54 111.79 102.15 110.96 C 99.42 109.52 98.93 106.24 98.02 103.59 C 98.50 103.63 99.45 103.69 99.92 103.73 C 100.80 105.85 101.73 107.95 102.75 110.02 C 105.45 107.99 108.75 107.84 112.00 107.99 C 112.86 105.41 112.95 102.69 112.93 99.99 C 113.99 102.23 114.93 104.51 115.58 106.91 C 116.48 106.79 117.40 106.67 118.31 106.56 C 119.65 104.13 121.20 101.76 121.89 99.05 C 122.52 94.33 120.51 89.84 120.06 85.20 C 121.05 83.11 121.93 80.97 122.75 78.81 C 123.98 80.79 125.57 82.51 126.79 84.50 C 125.24 84.13 123.74 83.64 122.27 83.04 C 121.89 89.22 122.25 97.47 128.45 100.78 C 130.69 102.39 133.26 103.39 135.78 104.43 C 134.60 102.60 133.39 100.77 132.38 98.83 C 136.62 101.16 138.86 105.86 143.19 108.19 C 144.28 108.14 145.36 108.08 146.45 108.02 C 149.96 104.61 153.71 101.18 155.33 96.40 C 158.61 89.93 157.98 82.38 160.99 75.80 C 162.67 72.14 160.69 68.37 160.19 64.69 C 159.61 63.13 159.07 61.56 158.61 59.97 C 156.48 60.15 154.36 60.39 152.23 60.55 C 153.50 58.72 155.59 58.89 157.56 59.01 C 158.24 56.07 159.03 52.54 161.97 51.04 C 163.95 49.72 166.42 50.08 168.67 49.87 C 176.44 54.27 177.90 64.68 175.52 72.57 C 174.36 76.75 170.30 79.54 165.98 79.27 C 165.67 78.71 165.04 77.60 164.72 77.04 C 166.79 76.87 169.26 77.61 171.00 76.14 C 174.28 73.50 175.38 69.03 175.00 64.98 C 175.29 58.65 171.45 52.33 165.28 50.41 C 162.12 52.10 159.85 54.80 158.91 58.27 C 160.04 59.28 160.81 60.53 160.97 62.05 C 161.62 65.48 163.69 68.68 162.85 72.28 C 162.80 76.50 160.91 80.40 160.40 84.55 C 159.70 91.75 157.24 98.96 152.63 104.59 C 149.83 106.87 147.34 111.05 143.15 109.95 C 140.99 109.04 139.21 107.46 137.37 106.04 C 137.17 106.20 136.76 106.54 136.56 106.70 C 131.86 104.95 127.13 103.07 123.38 99.62 C 120.12 106.38 120.48 114.25 122.00 121.41 C 123.84 124.30 125.57 127.46 124.65 131.05 C 125.07 130.67 125.89 129.89 126.30 129.50 C 127.04 135.11 133.25 136.37 137.53 138.45 C 144.46 140.56 151.48 143.08 157.17 147.73 C 160.58 150.84 165.90 151.31 168.40 155.51 C 170.07 158.96 172.02 162.85 171.00 166.79 C 169.81 171.37 170.14 176.18 170.32 180.87 C 172.50 190.60 170.38 200.81 173.29 210.43 C 177.85 213.16 180.28 218.22 184.83 220.94 C 186.68 222.11 189.01 222.06 190.96 223.03 C 192.44 224.16 193.55 225.68 194.76 227.09 C 192.57 229.98 189.28 231.68 185.92 232.85 C 183.38 232.84 180.85 232.40 178.32 232.18 C 175.22 231.13 172.51 228.45 168.98 229.13 C 165.06 229.85 160.94 229.75 157.65 227.24 C 156.15 219.02 161.23 211.36 159.74 203.15 C 159.46 197.86 155.59 193.84 154.37 188.85 C 153.99 183.07 155.00 177.37 155.87 171.68 C 152.35 170.69 149.25 168.69 146.69 166.11 C 146.99 168.64 146.79 171.94 143.95 172.91 C 135.98 175.82 127.74 177.91 119.50 179.90 C 119.46 189.28 119.28 198.65 119.19 208.03 C 125.47 206.07 131.60 203.59 137.97 201.97 C 140.33 202.60 142.47 203.81 144.68 204.84 C 143.87 207.46 144.49 211.52 141.14 212.39 C 129.59 216.72 118.08 221.14 106.51 225.41 C 106.27 230.55 106.15 235.94 108.29 240.73 C 109.60 243.27 111.24 245.61 112.67 248.08 C 114.87 251.91 118.57 254.74 120.18 258.93 C 120.23 260.41 119.62 261.81 119.27 263.23 C 117.97 263.25 116.67 263.28 115.38 263.30 C 115.00 263.79 114.26 264.75 113.89 265.24 C 109.22 265.95 103.91 266.17 100.09 262.90 C 96.65 261.04 97.82 256.69 96.31 253.70 C 94.32 250.02 94.56 245.77 93.42 241.83 C 93.28 237.91 94.75 234.01 94.02 230.08 C 93.12 223.64 90.45 217.50 90.22 210.97 C 91.00 205.47 93.19 200.30 94.68 195.00 C 95.00 190.00 96.65 184.83 94.80 179.96 C 93.72 175.95 90.28 173.21 88.67 169.44 C 88.25 169.33 87.41 169.12 87.00 169.01 C 86.36 166.85 85.76 164.68 85.10 162.53 C 82.57 163.24 80.03 163.96 77.56 164.85 C 77.06 164.96 76.06 165.17 75.56 165.28 C 65.42 168.74 54.99 171.34 45.12 175.59 C 41.66 173.62 41.72 169.64 42.42 166.18 C 48.80 161.90 56.91 161.62 63.43 157.69 C 63.59 153.89 63.76 149.97 62.72 146.27 C 58.20 142.28 53.15 138.84 47.91 135.84 C 47.90 133.94 47.89 132.04 47.89 130.14 C 55.31 123.32 66.05 123.69 75.29 121.36 C 73.74 119.44 71.79 117.73 70.80 115.42 C 70.17 113.21 71.37 111.08 71.86 108.98 C 72.87 105.55 72.89 101.96 73.07 98.43 C 69.40 98.20 65.93 96.23 64.07 93.03 C 60.31 86.66 59.72 78.13 63.69 71.71 C 65.27 69.08 68.57 68.77 71.20 67.86 C 72.52 68.60 73.83 69.35 75.09 70.20 C 79.15 67.90 81.14 63.41 84.93 60.76 C 86.96 59.57 85.91 55.90 87.83 55.16 C 88.50 56.70 88.59 58.44 88.20 60.07 C 85.87 62.89 81.87 64.34 80.70 68.05 C 79.47 69.35 78.17 70.60 76.67 71.61 C 82.57 78.93 83.17 92.10 74.76 97.78 C 74.91 103.17 73.60 108.44 72.45 113.65 C 73.77 115.84 75.34 117.87 76.61 120.09 C 79.09 121.19 81.56 122.33 83.97 123.59 C 84.59 123.35 85.83 122.86 86.45 122.61 C 89.24 117.54 91.62 111.94 91.11 106.02 C 90.38 96.99 89.77 87.95 89.63 78.91 C 89.46 75.74 86.22 74.27 84.07 72.49 C 83.95 71.84 83.72 70.56 83.60 69.91 C 84.66 68.21 85.49 66.33 86.88 64.86 C 88.49 63.31 90.90 63.38 92.94 62.85 C 92.17 60.79 91.44 58.71 90.70 56.64 C 92.23 58.74 93.73 60.86 95.02 63.11 C 96.42 64.23 97.80 65.38 99.16 66.55 C 100.54 66.84 101.92 67.15 103.30 67.46 C 106.73 66.08 105.31 62.58 104.81 59.85 C 100.66 59.67 96.25 58.75 93.05 55.94 C 91.42 53.91 90.41 51.47 88.81 49.42 C 88.74 50.54 88.61 52.77 88.54 53.88 L 87.92 54.11 C 85.36 54.20 87.17 50.49 86.45 48.89 C 83.98 44.70 83.68 39.70 83.93 34.94 M 88.68 30.71 C 85.50 33.32 85.00 37.70 85.21 41.54 C 85.91 41.44 87.30 41.22 88.00 41.11 C 87.44 42.60 86.89 44.08 86.35 45.57 C 88.36 47.62 91.35 48.76 92.50 51.56 C 94.13 55.18 98.34 56.00 101.62 57.48 C 104.15 58.92 107.05 56.52 107.31 53.91 C 108.15 49.68 109.50 45.30 108.45 40.99 C 107.73 38.21 107.44 35.32 106.61 32.57 C 105.51 30.58 103.65 29.18 102.04 27.63 C 97.47 27.43 92.26 27.40 88.68 30.71 M 84.57 71.50 C 88.73 70.17 90.86 75.19 91.62 78.46 C 89.71 82.60 91.51 86.99 91.99 91.23 C 94.97 90.12 98.39 89.00 99.67 85.76 C 103.14 77.96 100.54 66.31 91.54 63.64 C 87.83 64.72 85.95 68.19 84.57 71.50 M 67.38 70.28 C 63.09 72.83 62.44 78.40 62.56 82.92 C 62.81 88.01 64.88 94.01 70.01 96.01 C 74.24 97.45 77.78 93.48 78.78 89.76 C 80.34 83.34 79.28 75.45 73.76 71.18 C 71.87 70.10 69.26 68.23 67.38 70.28 M 102.02 125.25 C 97.59 124.41 92.80 124.99 88.73 122.69 C 87.64 123.65 86.52 124.58 85.37 125.48 C 84.59 127.72 83.76 129.95 83.06 132.22 L 82.23 131.36 C 82.28 132.83 82.31 134.31 82.26 135.79 C 82.69 134.44 83.23 133.14 83.94 131.92 C 84.68 137.68 85.46 143.85 82.20 149.06 C 82.80 148.92 84.01 148.64 84.61 148.50 C 84.26 149.65 83.91 150.79 83.56 151.95 C 84.59 154.81 85.65 157.66 86.85 160.45 C 87.11 162.45 87.50 164.43 88.07 166.37 C 90.68 161.79 94.63 157.80 99.83 156.32 C 99.73 157.22 99.55 159.02 99.46 159.93 C 98.87 159.71 97.70 159.27 97.12 159.05 C 94.47 161.26 91.85 163.59 90.18 166.66 C 91.01 169.33 91.52 172.32 93.94 174.07 C 97.23 176.40 96.62 180.80 97.71 184.26 C 95.81 191.52 99.12 198.58 100.60 205.58 C 97.73 203.72 97.54 199.98 96.17 197.14 C 94.22 201.89 92.37 206.85 92.22 212.04 C 92.61 218.86 95.69 225.20 96.14 232.03 C 96.57 235.36 95.42 238.62 95.32 241.93 C 96.56 248.05 99.67 253.63 100.52 259.84 C 101.72 259.77 102.51 258.86 103.33 258.08 C 106.92 258.12 110.53 257.31 114.11 257.85 C 114.30 258.71 114.67 260.43 114.85 261.29 C 116.30 261.02 117.74 260.73 119.17 260.42 C 117.30 256.93 114.69 253.97 112.20 250.94 C 109.49 246.10 105.65 241.64 104.84 235.98 C 103.54 229.06 103.66 221.57 106.70 215.11 C 108.68 210.94 107.92 206.19 107.68 201.75 C 104.67 206.57 105.27 212.37 103.89 217.67 C 102.36 214.47 102.78 210.79 103.52 207.45 C 104.67 202.66 108.13 198.84 109.00 193.96 C 109.65 190.16 113.00 186.89 111.57 182.86 C 111.79 180.94 111.91 179.02 111.98 177.10 C 110.99 176.24 110.00 175.39 109.00 174.54 L 109.70 173.95 C 108.67 173.95 107.64 173.97 106.61 174.00 C 105.22 175.98 103.30 177.52 101.00 178.30 C 102.64 176.14 104.62 174.28 106.50 172.34 L 106.93 173.77 C 107.46 173.04 107.98 172.30 108.50 171.57 L 107.21 173.45 C 108.03 173.50 109.68 173.58 110.50 173.63 C 114.50 175.42 113.36 180.21 113.55 183.71 C 114.54 179.76 114.70 175.63 114.13 171.61 C 113.28 166.95 110.27 163.13 107.86 159.18 C 105.23 158.95 102.61 158.62 100.00 158.23 C 100.17 157.58 100.50 156.29 100.66 155.64 C 102.98 155.91 105.32 156.15 107.59 156.74 C 109.17 157.79 110.38 159.28 111.74 160.59 C 111.69 160.13 111.58 159.23 111.52 158.78 C 110.27 156.34 108.91 153.88 108.41 151.16 C 108.92 148.70 111.25 147.26 113.09 145.82 C 112.28 147.72 111.30 149.53 110.28 151.32 C 110.99 152.92 111.71 154.51 112.46 156.10 C 114.43 155.61 116.41 155.14 118.37 154.59 C 121.00 155.73 123.54 157.26 124.89 159.91 C 125.66 156.36 125.94 152.73 126.61 149.17 C 128.67 144.65 131.56 140.43 136.05 138.03 C 133.99 137.61 131.90 137.40 129.81 137.45 C 127.06 135.63 125.02 133.06 123.00 130.51 C 123.71 127.19 122.07 124.65 119.63 122.61 C 113.99 124.38 108.00 126.56 102.02 125.25 M 50.08 130.69 C 50.07 131.98 50.06 133.28 50.05 134.57 C 54.56 137.36 58.86 140.51 63.06 143.76 C 65.65 145.93 68.47 147.81 71.56 149.19 C 71.37 148.70 71.00 147.71 70.81 147.21 C 73.56 151.60 78.80 153.42 82.90 156.29 C 82.28 154.20 81.48 152.15 81.13 150.00 C 81.57 147.68 82.46 145.41 82.30 143.02 C 81.94 138.73 80.04 134.56 80.69 130.20 C 81.21 128.53 82.07 126.98 82.77 125.38 C 81.93 125.02 80.26 124.30 79.42 123.95 C 79.51 124.32 79.68 125.07 79.77 125.44 C 78.32 124.70 76.89 123.47 75.14 124.01 C 66.61 125.17 57.38 125.58 50.08 130.69 M 131.61 144.61 C 127.80 148.61 129.19 154.63 127.02 159.41 C 130.46 160.99 134.07 162.70 137.97 162.24 C 142.31 161.90 146.76 163.00 150.14 165.82 C 152.72 168.15 156.03 169.25 159.36 170.03 C 159.47 170.47 159.68 171.35 159.79 171.79 C 158.93 171.91 157.21 172.14 156.35 172.26 C 156.97 177.82 156.28 183.46 157.45 188.98 C 157.60 192.85 160.33 195.84 161.29 199.47 C 162.07 203.70 161.58 208.03 161.80 212.31 C 160.27 215.68 159.90 219.40 159.76 223.06 C 159.72 224.51 159.38 226.48 161.11 227.14 C 165.84 228.44 171.07 225.90 175.56 228.40 C 178.79 230.07 182.51 230.24 186.05 230.76 C 188.32 230.04 190.22 228.51 192.28 227.37 C 190.88 225.92 189.23 224.72 187.18 224.43 C 183.54 223.80 180.74 221.22 178.58 218.39 C 176.32 215.37 173.43 212.93 170.87 210.18 C 170.07 205.82 168.91 201.44 169.37 196.97 C 169.81 191.62 169.14 186.29 168.07 181.07 C 168.03 175.33 168.53 169.58 169.78 163.98 C 168.87 161.39 167.85 158.81 166.62 156.36 C 164.53 153.12 160.34 152.72 157.47 150.47 C 151.35 146.13 144.87 141.23 137.02 141.15 C 134.61 140.91 133.01 143.00 131.61 144.61 M 65.12 147.18 C 65.10 151.18 65.14 155.18 65.22 159.19 C 62.75 160.05 60.24 160.88 57.95 162.19 C 53.11 163.36 48.52 165.29 43.93 167.16 C 44.01 169.36 44.08 171.61 45.05 173.63 C 55.13 169.15 65.90 166.65 76.35 163.23 C 79.35 162.35 82.32 161.39 85.28 160.40 C 81.77 157.75 77.88 155.65 74.27 153.13 C 73.63 154.38 72.95 155.60 72.21 156.79 C 72.04 155.04 71.91 153.30 71.82 151.55 C 70.15 150.72 68.44 149.96 66.70 149.28 C 66.30 148.76 65.52 147.70 65.12 147.18 M 113.47 162.74 C 114.55 165.82 116.07 168.80 116.58 172.06 C 116.94 174.27 116.18 176.47 116.34 178.69 C 125.42 175.44 135.21 173.92 144.12 169.99 C 145.62 167.49 142.72 164.69 140.18 165.24 C 135.26 165.70 130.48 164.03 126.41 161.37 C 126.05 161.82 125.34 162.72 124.98 163.17 C 122.16 161.68 120.26 159.09 117.96 156.97 C 115.92 158.32 112.67 159.65 113.47 162.74 M 114.12 185.24 C 112.80 189.86 110.59 194.23 109.90 199.02 C 109.77 203.53 110.79 208.09 109.87 212.57 C 108.93 216.19 107.27 219.57 106.21 223.15 C 111.63 221.60 116.71 219.07 122.06 217.29 C 128.60 214.80 135.29 212.69 141.61 209.65 C 141.75 208.33 141.90 207.02 142.05 205.71 C 140.15 205.12 138.22 203.75 136.19 204.61 C 129.81 206.48 123.67 209.12 117.18 210.61 C 116.46 200.26 118.15 189.87 117.49 179.54 C 115.84 181.08 114.72 183.08 114.12 185.24 M 102.50 262.14 C 106.25 263.92 110.85 264.37 114.19 261.46 C 111.81 257.84 107.69 261.32 104.41 259.60 C 103.78 260.45 103.14 261.29 102.50 262.14 Z" />
<path fill="#333333" opacity="1.00" d=" M 137.64 58.75 C 139.25 56.23 142.24 55.51 144.92 54.74 C 153.74 57.83 156.67 68.94 154.23 77.19 C 153.27 81.40 149.74 85.85 144.95 85.10 C 140.19 84.15 137.06 79.56 135.95 75.09 C 134.27 69.72 134.69 63.60 137.64 58.75 M 141.24 57.39 C 139.46 58.91 137.74 60.66 137.25 63.04 C 135.71 69.31 136.43 76.97 141.45 81.53 C 143.62 83.67 147.42 83.94 149.67 81.78 C 153.44 78.41 153.83 72.81 153.09 68.11 C 152.68 62.95 149.27 57.90 144.13 56.49 L 144.39 55.67 C 143.35 56.26 142.32 56.87 141.24 57.39 Z" />
<path fill="#333333" opacity="1.00" d=" M 77.25 72.36 C 79.12 71.56 81.01 70.81 82.89 70.05 C 83.13 70.94 83.60 72.72 83.84 73.61 C 81.60 73.46 79.30 73.42 77.25 72.36 Z" />
<path fill="#333333" opacity="1.00" d=" M 108.39 82.96 C 110.19 83.39 111.94 83.99 113.68 84.63 C 115.63 84.12 117.64 83.83 119.65 84.19 C 116.10 86.08 110.58 87.52 108.39 82.96 Z" />
<path fill="#333333" opacity="1.00" d=" M 133.69 83.66 C 135.42 84.92 137.04 86.31 138.66 87.71 C 139.69 86.76 140.85 85.99 142.15 85.48 L 141.27 88.87 C 141.84 88.90 142.99 88.94 143.56 88.96 C 144.04 87.97 144.53 86.99 145.03 86.00 C 146.23 85.78 148.65 85.32 149.86 85.09 C 147.76 87.20 145.65 89.28 143.57 91.40 C 142.37 90.85 141.16 90.27 139.83 90.15 C 140.39 91.25 140.95 92.35 141.51 93.45 C 139.91 95.11 138.52 96.96 137.54 99.05 C 136.39 98.09 135.21 97.17 133.99 96.29 C 130.15 96.17 127.24 93.45 124.53 91.05 C 125.45 90.82 126.36 90.59 127.27 90.33 C 128.96 92.14 131.23 93.22 133.36 94.40 C 134.95 94.98 136.45 95.75 137.94 96.55 C 138.56 94.68 139.53 92.52 138.41 90.63 C 136.99 88.20 135.17 86.04 133.69 83.66 Z" />
<path fill="#333333" opacity="1.00" d=" M 125.09 84.94 C 126.70 85.26 126.15 87.62 126.76 88.78 C 126.09 89.47 125.41 90.15 124.72 90.82 C 124.22 88.78 124.35 86.82 125.09 84.94 Z" />
<path fill="#333333" opacity="1.00" d=" M 113.65 88.47 C 114.15 88.37 115.14 88.15 115.64 88.05 C 116.26 88.63 117.51 89.80 118.13 90.38 C 116.91 90.03 115.70 89.68 114.49 89.32 C 113.57 89.83 112.65 90.34 111.73 90.83 C 112.45 92.28 113.12 93.76 113.71 95.27 C 116.69 95.11 119.87 95.41 121.57 98.21 C 118.85 97.49 116.08 97.06 113.29 96.79 C 108.79 98.54 104.49 100.72 100.42 103.32 C 101.60 101.19 103.14 99.12 105.58 98.38 C 107.38 96.93 109.66 96.52 111.78 95.77 C 111.92 94.56 112.02 93.35 112.08 92.14 C 111.31 91.76 110.55 91.38 109.79 91.00 C 111.11 90.21 112.40 89.36 113.65 88.47 Z" />
<path fill="#333333" opacity="1.00" d=" M 99.03 97.22 C 102.34 94.48 103.51 88.97 108.30 88.47 C 106.65 90.53 104.98 92.59 103.62 94.86 C 102.10 95.66 100.58 96.48 99.03 97.22 Z" />
<path fill="#333333" opacity="1.00" d=" M 76.64 104.52 C 79.25 100.17 79.14 94.96 81.28 90.47 C 81.48 94.08 82.11 98.01 80.46 101.38 C 78.79 103.86 76.85 106.16 74.95 108.46 C 75.43 107.11 76.02 105.80 76.64 104.52 Z" />
<path fill="#333333" opacity="1.00" d=" M 99.18 114.33 C 97.83 111.72 95.21 109.23 95.96 106.03 C 97.60 107.90 98.94 110.01 100.19 112.16 C 101.97 112.36 102.96 113.77 103.90 115.11 C 102.99 114.65 101.16 113.72 100.25 113.25 C 99.98 113.52 99.45 114.06 99.18 114.33 Z" />
<path fill="#333333" opacity="1.00" d=" M 80.19 115.34 C 81.22 114.60 82.26 113.87 83.32 113.16 C 83.14 116.20 80.25 119.45 77.04 118.03 C 76.87 116.05 78.76 115.81 80.19 115.34 Z" />
<path fill="#333333" opacity="1.00" d=" M 112.46 114.45 C 114.54 112.08 115.31 115.91 113.21 116.70 C 111.62 117.79 111.36 115.07 112.46 114.45 Z" />
<path fill="#333333" opacity="1.00" d=" M 99.52 127.69 C 106.69 128.90 113.84 126.83 120.50 124.35 C 118.78 126.30 116.77 128.20 113.99 128.23 C 108.71 129.58 103.09 128.95 97.90 130.63 C 95.70 135.26 90.93 137.63 86.23 138.96 C 88.33 135.77 92.67 135.13 94.69 131.88 C 95.70 130.41 96.72 128.92 98.27 127.95 C 95.69 127.77 93.11 127.53 90.56 127.10 C 89.49 129.66 88.74 132.33 87.94 134.98 C 86.47 131.55 88.39 128.20 89.79 125.12 C 90.58 125.46 92.15 126.15 92.94 126.50 C 95.17 126.69 97.33 127.25 99.52 127.69 Z" />
<path fill="#333333" opacity="1.00" d=" M 98.83 132.68 C 99.88 132.61 100.94 132.57 102.00 132.57 C 101.26 133.87 100.33 135.05 99.41 136.24 C 99.26 135.35 98.97 133.57 98.83 132.68 Z" />
<path fill="#333333" opacity="1.00" d=" M 100.75 139.88 C 105.84 136.28 111.46 132.25 118.01 132.63 C 118.51 132.99 119.49 133.70 119.98 134.05 C 118.33 134.27 116.67 134.42 115.01 134.51 C 109.07 136.32 104.22 140.22 98.70 142.83 C 99.29 141.80 99.64 140.50 100.75 139.88 Z" />
<path fill="#333333" opacity="1.00" d=" M 114.36 136.90 C 115.88 135.44 117.77 134.62 119.91 134.68 C 118.31 135.95 116.62 137.10 114.98 138.33 C 110.99 139.30 107.36 141.48 103.24 141.96 C 106.54 139.49 110.40 137.92 114.36 136.90 Z" />
<path fill="#333333" opacity="1.00" d=" M 157.37 153.74 C 159.83 156.12 162.14 159.32 161.62 162.92 C 160.40 164.77 158.42 166.75 155.99 166.23 C 152.34 165.76 149.68 162.87 148.01 159.81 C 150.84 161.15 153.00 163.71 156.00 164.69 C 157.83 165.35 158.89 163.19 159.83 162.06 C 159.49 159.16 158.08 156.55 157.37 153.74 Z" />
<path fill="#333333" opacity="1.00" d=" M 104.34 189.13 C 105.96 189.31 107.58 189.52 109.20 189.78 C 107.85 190.63 106.40 191.30 104.90 191.83 C 104.76 191.15 104.48 189.80 104.34 189.13 Z" />
<path fill="#333333" opacity="1.00" d=" M 163.47 212.95 C 164.31 216.01 164.86 219.14 165.34 222.28 C 162.88 219.73 162.08 216.29 163.47 212.95 Z" />
<path fill="#333333" opacity="1.00" d=" M 97.42 243.99 C 98.36 240.87 99.91 237.96 101.76 235.29 C 102.21 235.45 103.09 235.77 103.54 235.94 C 101.79 238.83 100.55 242.27 97.42 243.99 Z" />
</g>
</svg>
