<?xml version="1.0" encoding="UTF-8" ?>
<!DOCTYPE svg PUBLIC "-//W3C//DTD SVG 1.1//EN" "http://www.w3.org/Graphics/SVG/1.1/DTD/svg11.dtd">
<svg width="118pt" height="250pt" viewBox="0 0 118 250" version="1.1" xmlns="http://www.w3.org/2000/svg">
<g id="#ffffffff">
<path fill="#FFFFFF" opacity="1.00" d=" M 0.00 0.00 L 16.38 0.00 C 16.09 48.66 16.36 97.33 16.23 146.00 C 16.20 148.52 16.35 151.07 17.02 153.52 C 18.39 137.96 17.89 122.27 18.44 106.66 C 18.53 81.43 18.48 56.20 18.47 30.97 C 17.57 20.67 17.11 10.34 16.78 0.00 L 26.20 0.00 C 24.75 42.67 25.40 85.36 25.26 128.05 C 25.36 133.90 24.91 139.79 25.66 145.61 C 26.92 144.30 27.53 142.77 27.48 141.02 C 27.48 94.02 27.49 47.01 27.47 0.00 L 49.00 0.00 C 49.13 3.29 49.29 6.57 49.46 9.85 C 48.46 10.12 46.47 10.65 45.47 10.92 C 47.20 11.48 48.95 11.96 50.70 12.42 C 50.30 13.12 49.90 13.82 49.50 14.52 C 48.10 14.43 46.71 14.41 45.31 14.45 C 42.93 19.47 43.60 25.76 39.48 29.94 C 40.64 23.31 43.08 17.00 44.33 10.39 C 40.76 16.25 40.29 23.35 37.90 29.70 C 38.35 33.96 39.13 38.50 37.51 42.60 C 36.31 45.42 37.35 48.54 36.64 51.45 C 35.82 54.50 34.35 57.35 33.71 60.46 C 32.83 64.60 34.45 68.76 33.91 72.93 C 33.40 78.58 34.23 84.29 33.39 89.93 C 32.77 95.18 32.93 100.81 35.56 105.54 C 37.78 109.49 39.62 113.64 41.93 117.54 C 42.72 112.39 38.59 108.54 36.83 104.09 C 34.74 99.68 35.04 94.73 35.02 89.99 C 35.35 89.57 36.01 88.73 36.35 88.31 C 35.85 83.58 35.32 78.81 35.86 74.06 C 36.47 69.52 34.09 65.04 35.33 60.51 C 36.80 55.35 39.88 50.33 38.47 44.76 C 41.38 40.62 39.62 35.55 40.18 30.91 C 42.36 29.51 45.11 29.47 47.57 28.89 C 47.39 32.62 46.96 36.34 46.21 39.99 C 48.12 40.91 50.19 40.22 51.57 38.70 C 52.26 36.56 52.43 34.30 52.77 32.09 C 53.58 32.21 55.21 32.45 56.03 32.57 C 55.06 31.39 54.04 30.26 52.99 29.14 C 53.19 27.09 53.36 25.03 53.56 22.97 C 54.05 24.12 54.54 25.26 55.04 26.40 C 57.71 30.38 57.30 36.24 61.90 38.78 C 62.69 38.10 63.49 37.41 64.27 36.71 C 65.17 41.22 67.01 45.49 69.94 49.05 C 74.51 54.78 76.22 62.02 78.63 68.78 C 79.48 62.51 76.51 56.75 73.24 51.65 C 70.86 48.24 67.81 45.09 66.84 40.92 C 65.96 37.17 65.24 33.38 63.98 29.73 C 59.57 26.46 58.73 20.60 56.30 15.98 C 54.47 16.67 52.60 17.28 50.72 17.82 C 51.35 16.32 52.02 14.85 52.71 13.38 C 54.08 13.84 55.45 14.28 56.83 14.71 C 55.08 13.04 53.16 11.57 51.18 10.20 C 51.09 6.80 50.98 3.40 50.84 0.00 L 118.00 0.00 L 118.00 250.00 L 0.00 250.00 L 0.00 0.00 M 48.81 42.97 C 46.09 44.05 45.95 47.40 45.54 49.88 C 44.40 56.07 48.63 62.13 46.23 68.24 C 44.70 71.68 43.99 75.45 46.09 78.90 C 46.22 77.84 46.49 75.71 46.62 74.64 C 50.22 79.63 50.54 85.81 51.20 91.69 C 49.93 90.80 48.63 89.95 47.31 89.15 C 47.97 90.63 48.65 92.11 49.50 93.50 C 51.03 95.73 53.91 96.30 55.85 98.07 C 57.40 99.66 57.39 101.99 57.70 104.05 C 61.59 103.12 65.65 105.22 69.39 103.55 C 68.53 103.23 66.82 102.59 65.97 102.28 C 67.42 99.82 68.77 97.29 69.60 94.56 C 66.44 96.65 65.84 101.06 62.26 102.63 C 61.08 98.08 60.35 92.97 56.27 90.01 C 57.19 85.32 58.13 80.54 60.12 76.16 C 62.22 71.59 67.17 68.89 72.00 68.29 C 77.55 68.57 80.95 73.73 83.41 78.12 C 85.22 82.72 82.21 87.22 80.51 91.35 C 77.88 94.73 77.04 98.95 76.91 103.14 C 77.28 102.57 78.02 101.45 78.39 100.88 C 81.00 101.31 83.58 101.91 86.19 102.35 C 85.93 101.74 85.40 100.51 85.14 99.90 C 82.79 99.74 80.44 99.61 78.09 99.52 C 78.97 96.19 81.17 93.58 83.03 90.79 C 84.89 86.68 85.66 82.14 85.32 77.64 C 87.01 80.82 88.49 84.18 88.73 87.83 C 88.81 91.45 91.91 93.89 92.96 97.19 C 94.40 100.55 93.46 104.23 93.72 107.74 C 94.23 110.50 95.48 113.17 95.11 116.03 C 95.07 119.36 93.03 122.14 91.22 124.76 C 90.30 124.42 88.47 123.73 87.56 123.39 C 88.24 124.55 88.91 125.72 89.59 126.89 C 90.42 126.63 91.25 126.38 92.08 126.13 C 92.81 125.01 93.55 123.90 94.31 122.81 C 93.55 127.65 92.56 132.75 89.57 136.77 C 89.26 142.79 88.91 149.13 86.23 154.64 C 86.62 156.31 86.94 157.99 87.22 159.67 C 84.13 161.67 80.58 162.88 76.88 162.95 C 76.51 161.56 76.12 160.19 75.71 158.82 C 76.40 153.09 75.61 147.22 77.83 141.74 C 73.73 145.77 74.86 152.08 75.39 157.23 C 75.00 157.61 74.22 158.36 73.83 158.74 C 74.54 160.59 75.25 162.44 75.92 164.30 C 73.53 164.55 71.14 164.68 68.74 164.75 C 68.77 164.51 68.81 164.03 68.83 163.79 C 64.50 164.65 60.26 163.36 56.24 161.85 C 56.20 161.28 56.12 160.13 56.08 159.55 C 55.27 159.09 53.64 158.16 52.83 157.70 C 55.15 158.65 56.29 155.12 54.30 154.21 C 50.31 157.07 45.27 157.36 40.74 158.89 C 37.65 159.77 32.97 161.32 31.70 157.16 C 31.09 156.75 29.89 155.94 29.28 155.53 C 29.37 153.68 28.76 150.82 31.01 150.06 C 37.54 148.62 44.20 147.82 50.72 146.31 C 50.16 145.70 49.58 145.11 48.98 144.53 C 45.34 145.46 41.62 146.04 37.92 146.70 C 32.27 144.51 24.29 145.66 21.24 151.44 C 20.20 156.59 20.15 162.03 22.24 166.95 C 22.21 170.65 22.20 174.36 22.66 178.04 C 24.86 187.00 27.61 195.84 29.33 204.92 C 29.85 204.63 30.88 204.03 31.40 203.73 C 30.51 200.49 30.44 197.04 29.15 193.92 C 25.03 183.06 24.04 171.44 22.04 160.08 C 21.48 156.72 22.53 153.22 24.45 150.46 C 25.72 148.63 28.17 148.52 30.07 147.74 C 27.52 149.95 26.65 153.26 27.67 156.49 C 29.50 158.42 31.90 159.73 34.08 161.24 C 34.47 162.09 34.86 162.94 35.26 163.79 C 33.29 168.09 34.76 172.92 34.39 177.45 C 34.59 177.99 35.00 179.07 35.21 179.61 C 35.52 180.05 36.16 180.92 36.47 181.36 C 37.60 182.16 38.72 182.98 39.84 183.80 C 39.15 187.15 38.77 190.55 39.04 193.96 C 39.45 194.25 40.25 194.81 40.66 195.10 C 40.80 200.89 39.67 206.83 41.35 212.49 C 42.92 218.11 43.53 224.31 42.30 229.99 C 37.13 232.50 31.86 229.29 27.59 226.51 C 24.53 224.27 20.61 224.41 17.09 223.47 C 14.63 222.69 12.52 221.15 10.37 219.76 C 11.64 217.74 13.15 215.87 15.17 214.55 C 16.77 214.81 18.38 215.04 20.00 215.24 C 23.43 211.92 28.04 210.56 32.10 208.27 C 31.90 207.44 31.51 205.78 31.31 204.95 C 30.37 205.86 29.46 206.80 28.56 207.75 C 25.72 208.99 22.99 210.48 20.53 212.38 C 16.34 212.09 12.18 213.25 9.44 216.59 C 9.51 218.06 9.32 219.58 9.75 221.02 C 11.48 222.70 13.54 224.05 15.70 225.12 C 18.83 226.61 22.57 226.35 25.51 228.32 C 30.49 231.15 36.44 235.01 42.27 232.14 C 45.77 231.11 44.96 226.78 45.42 223.97 C 44.94 217.54 43.18 211.24 41.77 204.96 C 41.78 201.89 41.73 198.82 41.74 195.76 C 47.60 198.64 52.97 202.39 58.23 206.23 C 58.56 207.23 58.84 208.25 59.07 209.29 C 60.47 210.38 62.05 211.25 63.37 212.46 C 64.22 216.23 63.61 220.17 64.36 223.97 C 64.79 224.35 65.65 225.11 66.08 225.49 C 65.73 219.52 66.04 213.51 65.28 207.57 C 67.34 206.95 69.40 206.35 71.48 205.80 C 72.28 208.07 72.96 210.46 72.46 212.89 C 71.81 216.66 72.34 220.51 73.40 224.15 C 74.08 223.49 74.74 222.81 75.38 222.10 C 77.34 222.94 79.32 223.72 81.32 224.48 C 83.35 223.26 85.87 221.97 86.11 219.30 C 86.89 213.64 86.09 207.85 84.47 202.40 C 86.93 201.82 89.44 201.44 91.84 200.66 C 94.40 199.48 95.44 196.60 96.14 194.07 C 96.87 190.80 94.49 188.16 92.51 185.92 C 93.72 180.45 94.10 174.55 91.67 169.33 C 91.70 168.18 91.73 167.04 91.76 165.89 C 90.07 164.24 88.95 162.09 88.61 159.75 C 86.65 152.03 91.55 144.74 90.76 136.98 C 94.16 132.46 94.95 126.62 95.46 121.15 C 96.47 116.86 98.28 111.67 94.41 108.22 C 95.65 104.09 96.33 99.44 94.28 95.44 C 93.24 92.86 90.68 90.98 90.44 88.09 C 90.01 83.51 88.43 78.65 84.88 75.55 C 81.50 73.42 80.02 69.20 76.16 67.70 C 73.75 65.88 70.70 66.52 67.96 66.98 C 66.01 63.29 63.22 59.43 63.97 55.04 C 64.62 51.32 62.25 48.14 60.89 44.89 C 62.65 44.32 64.74 44.23 65.92 42.55 C 64.37 42.65 62.83 42.77 61.30 42.93 C 59.02 41.98 56.74 39.39 54.15 40.95 C 55.52 41.78 56.92 42.59 58.31 43.40 C 59.24 46.04 60.50 48.54 61.48 51.16 C 62.05 53.74 61.65 56.43 62.14 59.03 C 63.06 62.20 64.57 65.17 66.37 67.92 C 59.79 70.47 57.33 77.57 55.80 83.85 C 55.10 86.98 53.88 90.90 56.49 93.49 C 58.76 95.65 59.91 98.60 61.71 101.11 C 60.98 101.66 60.26 102.21 59.53 102.76 C 58.61 99.04 56.48 95.84 53.25 93.75 C 52.01 86.56 52.27 78.40 46.63 72.91 C 48.76 67.82 48.92 62.19 47.65 56.86 C 46.66 53.12 47.17 49.23 48.07 45.52 C 50.51 44.16 53.10 42.75 54.44 40.16 C 52.52 41.00 50.66 41.98 48.81 42.97 M 40.75 58.59 C 41.07 63.10 38.92 67.11 37.48 71.22 C 36.59 74.16 39.29 76.29 40.64 78.54 C 43.27 82.20 41.87 86.92 41.07 90.95 C 42.03 89.99 42.97 89.01 43.91 88.02 C 43.58 84.45 44.21 80.36 41.60 77.47 C 40.37 75.53 37.66 73.65 38.96 71.07 C 40.56 67.05 42.54 62.99 41.89 58.52 C 41.61 58.53 41.03 58.57 40.75 58.59 M 37.90 88.99 C 36.92 92.51 38.07 96.01 39.48 99.24 C 39.28 95.55 38.94 91.84 39.76 88.21 C 39.29 88.40 38.37 88.79 37.90 88.99 M 44.18 92.95 C 43.31 95.26 42.02 97.50 42.09 100.05 C 42.00 104.30 40.68 108.66 42.16 112.81 C 43.70 117.82 41.84 123.25 44.07 128.12 C 44.94 132.53 46.71 136.71 49.82 140.02 C 49.97 141.81 50.17 143.60 50.37 145.39 C 52.13 147.90 53.13 150.81 53.02 153.90 C 53.60 153.19 54.19 152.47 54.77 151.76 C 54.37 148.56 53.15 145.60 52.01 142.61 C 57.04 146.70 55.87 154.11 60.13 158.69 C 59.41 153.91 58.95 148.85 56.53 144.58 C 52.80 139.97 47.43 136.18 46.34 129.96 C 48.10 130.70 49.87 131.40 51.70 131.93 C 49.96 129.09 46.37 128.19 44.59 125.41 C 43.99 122.98 43.95 120.23 45.23 117.99 C 44.53 115.36 43.50 112.82 43.00 110.13 C 42.57 105.31 45.13 100.76 44.53 95.93 C 44.95 94.80 45.38 93.67 45.80 92.55 C 45.40 92.65 44.59 92.85 44.18 92.95 M 86.07 109.02 C 84.86 110.88 83.42 112.59 82.30 114.51 C 87.42 112.36 89.36 106.43 88.27 101.28 C 87.53 103.86 87.61 106.73 86.07 109.02 M 50.57 107.25 C 50.21 109.49 49.91 111.74 49.88 114.01 C 51.50 110.68 53.85 107.80 55.59 104.54 C 53.82 105.26 52.15 106.19 50.57 107.25 M 76.75 133.61 C 77.73 129.83 78.59 125.86 77.79 121.97 C 76.75 116.83 77.49 111.13 74.16 106.69 C 75.74 115.57 76.86 124.57 76.75 133.61 M 88.37 111.09 C 90.12 113.14 91.48 115.48 93.07 117.66 C 94.44 114.54 91.95 111.84 89.92 109.76 C 89.53 110.09 88.76 110.76 88.37 111.09 M 52.52 111.02 C 55.52 115.40 61.14 116.81 66.09 117.61 C 66.83 117.08 67.56 116.53 68.27 115.95 C 62.97 114.41 57.77 112.64 52.52 111.02 M 85.62 124.96 C 85.30 127.30 84.21 129.44 83.25 131.57 C 83.36 132.21 83.58 133.47 83.68 134.10 C 84.51 132.47 85.36 130.86 86.09 129.19 C 88.46 124.18 87.20 118.32 85.33 113.36 C 84.97 117.24 86.14 121.09 85.62 124.96 M 64.16 118.59 C 63.53 121.09 63.05 123.69 61.82 125.99 C 60.46 128.13 58.20 129.43 56.07 130.69 C 54.93 129.72 53.77 128.77 52.58 127.86 C 53.12 130.15 54.53 132.55 57.27 132.24 C 60.81 130.97 63.19 127.96 65.58 125.23 C 65.26 122.98 64.86 120.74 64.16 118.59 M 48.76 120.48 C 49.11 123.66 51.07 126.24 54.03 127.43 C 52.51 124.94 50.74 122.61 48.76 120.48 M 64.30 129.33 C 67.56 132.95 70.87 136.72 75.13 139.19 C 73.86 133.96 67.76 132.11 65.80 127.27 C 65.30 127.96 64.80 128.64 64.30 129.33 M 84.45 135.13 C 83.65 136.81 87.47 138.20 87.76 136.30 C 87.36 135.07 85.51 134.25 84.45 135.13 M 85.54 138.25 C 84.65 139.49 86.71 141.25 87.71 140.00 C 88.63 138.73 86.56 136.98 85.54 138.25 M 69.06 149.13 C 71.36 147.01 73.53 144.57 74.33 141.47 C 72.17 143.71 70.58 146.43 69.06 149.13 M 60.91 144.85 C 60.83 147.86 61.48 150.82 62.69 153.57 C 62.80 150.56 62.39 147.52 60.91 144.85 M 26.56 168.36 C 25.92 176.36 27.39 184.49 31.65 191.37 C 31.18 186.98 29.61 182.80 27.75 178.83 C 27.27 175.35 27.36 171.80 26.56 168.36 M 35.43 220.35 C 34.73 220.41 33.32 220.54 32.61 220.60 C 32.58 221.19 32.50 222.37 32.46 222.96 C 35.36 223.43 38.40 221.20 38.07 218.11 C 37.18 218.84 36.30 219.58 35.43 220.35 Z" />
<path fill="#FFFFFF" opacity="1.00" d=" M 46.77 16.34 C 47.18 16.23 47.98 15.99 48.38 15.88 C 49.35 19.25 48.43 22.79 47.92 26.17 C 46.58 26.91 45.11 27.37 43.70 27.94 C 44.45 24.01 45.29 20.07 46.77 16.34 Z" />
<path fill="#FFFFFF" opacity="1.00" d=" M 54.80 16.58 C 57.87 19.73 58.28 24.29 59.91 28.18 C 61.07 30.80 62.26 33.40 63.09 36.14 C 58.85 36.13 59.11 30.94 57.70 28.06 C 57.00 24.12 53.33 20.73 54.80 16.58 Z" />
<path fill="#FFFFFF" opacity="1.00" d=" M 50.35 19.58 C 50.79 19.33 51.69 18.82 52.13 18.57 C 51.64 24.64 51.08 30.74 50.23 36.77 C 49.86 37.42 49.11 38.73 48.74 39.38 C 48.43 38.90 47.81 37.92 47.49 37.44 C 48.58 31.51 49.21 25.50 50.35 19.58 Z" />
<path fill="#FFFFFF" opacity="1.00" d=" M 36.62 162.09 C 41.86 160.75 47.03 159.19 52.28 157.92 C 50.93 159.34 49.51 160.68 48.12 162.05 C 48.08 164.05 48.05 166.05 48.02 168.05 C 48.45 168.05 49.31 168.06 49.74 168.06 C 49.86 166.12 49.89 164.16 50.23 162.24 C 51.32 161.75 52.49 161.50 53.64 161.19 C 55.45 162.89 57.52 164.28 59.84 165.20 C 65.17 166.10 70.66 167.04 76.03 165.94 C 79.63 164.87 83.16 163.53 86.86 162.83 C 87.66 164.30 88.51 165.75 89.43 167.15 C 91.04 174.12 92.95 181.87 89.19 188.53 C 83.53 190.54 78.45 194.31 72.18 194.26 C 71.90 194.63 71.33 195.35 71.04 195.72 C 65.76 196.58 60.20 196.01 55.34 193.72 C 52.03 191.33 49.07 188.49 46.15 185.65 C 46.13 184.94 46.10 183.52 46.09 182.81 C 45.83 183.72 45.58 184.64 45.32 185.56 C 42.18 183.28 39.13 180.88 36.50 178.01 C 35.17 172.81 34.52 167.19 36.62 162.09 M 53.70 166.31 C 54.11 167.20 54.57 168.06 55.10 168.89 C 58.34 169.88 61.83 169.92 64.98 171.31 C 69.54 172.14 74.07 170.58 78.31 169.01 C 81.07 168.65 83.88 168.60 86.60 167.94 C 86.48 167.38 86.24 166.27 86.12 165.72 C 81.67 167.86 76.63 167.76 71.92 168.98 C 67.74 170.14 63.38 169.35 59.13 169.18 C 57.43 168.01 55.60 167.07 53.70 166.31 M 77.30 190.45 C 79.98 189.28 82.59 187.83 84.57 185.64 C 81.61 186.29 78.11 187.07 77.30 190.45 Z" />
<path fill="#FFFFFF" opacity="1.00" d=" M 43.51 194.13 C 40.35 192.77 40.97 188.16 43.08 186.07 C 46.34 187.61 47.92 191.10 51.03 192.85 C 56.43 197.43 64.07 199.21 70.92 197.43 C 77.22 195.51 84.46 196.19 89.55 191.36 C 90.19 190.26 90.84 189.16 91.50 188.07 C 95.61 191.29 93.98 198.97 88.44 199.18 C 79.55 200.61 71.21 204.18 62.44 206.10 C 56.57 201.48 50.25 197.38 43.51 194.13 Z" />
<path fill="#FFFFFF" opacity="1.00" d=" M 73.91 205.72 C 76.84 204.54 79.76 203.31 82.83 202.52 C 83.73 206.98 85.05 211.43 85.32 215.97 C 84.59 218.81 82.66 223.09 79.01 221.57 C 76.42 220.07 75.00 217.19 73.93 214.50 C 76.92 213.64 80.51 212.44 80.49 208.72 C 80.04 208.60 79.13 208.37 78.67 208.25 C 78.03 209.84 77.36 211.42 76.54 212.93 C 73.61 211.59 73.79 208.46 73.91 205.72 Z" />
<path fill="#FFFFFF" opacity="1.00" d=" M 61.04 207.90 C 62.06 206.86 64.38 208.20 63.54 209.58 C 62.57 210.56 60.23 209.20 61.04 207.90 Z" />
</g>
<g id="#2b2b2bff">
<path fill="#333333" opacity="1.00" d=" M 16.38 0.00 L 16.78 0.00 C 17.11 10.34 17.57 20.67 18.47 30.97 C 18.48 56.20 18.53 81.43 18.44 106.66 C 17.89 122.27 18.39 137.96 17.02 153.52 C 16.35 151.07 16.20 148.52 16.23 146.00 C 16.36 97.33 16.09 48.66 16.38 0.00 Z" />
<path fill="#333333" opacity="1.00" d=" M 26.20 0.00 L 27.47 0.00 C 27.49 47.01 27.48 94.02 27.48 141.02 C 27.53 142.77 26.92 144.30 25.66 145.61 C 24.91 139.79 25.36 133.90 25.26 128.05 C 25.40 85.36 24.75 42.67 26.20 0.00 Z" />
<path fill="#333333" opacity="1.00" d=" M 49.00 0.00 L 50.84 0.00 C 50.98 3.40 51.09 6.80 51.18 10.20 C 53.16 11.57 55.08 13.04 56.83 14.71 C 55.45 14.28 54.08 13.84 52.71 13.38 C 52.02 14.85 51.35 16.32 50.72 17.82 C 52.60 17.28 54.47 16.67 56.30 15.98 C 58.73 20.60 59.57 26.46 63.98 29.73 C 65.24 33.38 65.96 37.17 66.84 40.92 C 67.81 45.09 70.86 48.24 73.24 51.65 C 76.51 56.75 79.48 62.51 78.63 68.78 C 76.22 62.02 74.51 54.78 69.94 49.05 C 67.01 45.49 65.17 41.22 64.27 36.71 C 63.49 37.41 62.69 38.10 61.90 38.78 C 57.30 36.24 57.71 30.38 55.04 26.40 C 54.54 25.26 54.05 24.12 53.56 22.97 C 53.36 25.03 53.19 27.09 52.99 29.14 C 54.04 30.26 55.06 31.39 56.03 32.57 C 55.21 32.45 53.58 32.21 52.77 32.09 C 52.43 34.30 52.26 36.56 51.57 38.70 C 50.19 40.22 48.12 40.91 46.21 39.99 C 46.96 36.34 47.39 32.62 47.57 28.89 C 45.11 29.47 42.36 29.51 40.18 30.91 C 39.62 35.55 41.38 40.62 38.47 44.76 C 39.88 50.33 36.80 55.35 35.33 60.51 C 34.09 65.04 36.47 69.52 35.86 74.06 C 35.32 78.81 35.85 83.58 36.35 88.31 C 36.01 88.73 35.35 89.57 35.02 89.99 C 35.04 94.73 34.74 99.68 36.83 104.09 C 38.59 108.54 42.72 112.39 41.93 117.54 C 39.62 113.64 37.78 109.49 35.56 105.54 C 32.93 100.81 32.77 95.18 33.39 89.93 C 34.23 84.29 33.40 78.58 33.91 72.93 C 34.45 68.76 32.83 64.60 33.71 60.46 C 34.35 57.35 35.82 54.50 36.64 51.45 C 37.35 48.54 36.31 45.42 37.51 42.60 C 39.13 38.50 38.35 33.96 37.90 29.70 C 40.29 23.35 40.76 16.25 44.33 10.39 C 43.08 17.00 40.64 23.31 39.48 29.94 C 43.60 25.76 42.93 19.47 45.31 14.45 C 46.71 14.41 48.10 14.43 49.50 14.52 C 49.90 13.82 50.30 13.12 50.70 12.42 C 48.95 11.96 47.20 11.48 45.47 10.92 C 46.47 10.65 48.46 10.12 49.46 9.85 C 49.29 6.57 49.13 3.29 49.00 0.00 M 46.77 16.34 C 45.29 20.07 44.45 24.01 43.70 27.94 C 45.11 27.37 46.58 26.91 47.92 26.17 C 48.43 22.79 49.35 19.25 48.38 15.88 C 47.98 15.99 47.18 16.23 46.77 16.34 M 54.80 16.58 C 53.33 20.73 57.00 24.12 57.70 28.06 C 59.11 30.94 58.85 36.13 63.09 36.14 C 62.26 33.40 61.07 30.80 59.91 28.18 C 58.28 24.29 57.87 19.73 54.80 16.58 M 50.35 19.58 C 49.21 25.50 48.58 31.51 47.49 37.44 C 47.81 37.92 48.43 38.90 48.74 39.38 C 49.11 38.73 49.86 37.42 50.23 36.77 C 51.08 30.74 51.64 24.64 52.13 18.57 C 51.69 18.82 50.79 19.33 50.35 19.58 Z" />
<path fill="#333333" opacity="1.00" d=" M 48.81 42.97 C 50.66 41.98 52.52 41.00 54.44 40.16 C 53.10 42.75 50.51 44.16 48.07 45.52 C 47.17 49.23 46.66 53.12 47.65 56.86 C 48.92 62.19 48.76 67.82 46.63 72.91 C 52.27 78.40 52.01 86.56 53.25 93.75 C 56.48 95.84 58.61 99.04 59.53 102.76 C 60.26 102.21 60.98 101.66 61.71 101.11 C 59.91 98.60 58.76 95.65 56.49 93.49 C 53.88 90.90 55.10 86.98 55.80 83.85 C 57.33 77.57 59.79 70.47 66.37 67.92 C 64.57 65.17 63.06 62.20 62.14 59.03 C 61.65 56.43 62.05 53.74 61.48 51.16 C 60.50 48.54 59.24 46.04 58.31 43.40 C 56.92 42.59 55.52 41.78 54.15 40.95 C 56.74 39.39 59.02 41.98 61.30 42.93 C 62.83 42.77 64.37 42.65 65.92 42.55 C 64.74 44.23 62.65 44.32 60.89 44.89 C 62.25 48.14 64.62 51.32 63.97 55.04 C 63.22 59.43 66.01 63.29 67.96 66.98 C 70.70 66.52 73.75 65.88 76.16 67.70 C 80.02 69.20 81.50 73.42 84.88 75.55 C 88.43 78.65 90.01 83.51 90.44 88.09 C 90.68 90.98 93.24 92.86 94.28 95.44 C 96.33 99.44 95.65 104.09 94.41 108.22 C 98.28 111.67 96.47 116.86 95.46 121.15 C 94.95 126.62 94.16 132.46 90.76 136.98 C 91.55 144.74 86.65 152.03 88.61 159.75 C 88.95 162.09 90.07 164.24 91.76 165.89 C 91.73 167.04 91.70 168.18 91.67 169.33 C 94.10 174.55 93.72 180.45 92.51 185.92 C 94.49 188.16 96.87 190.80 96.14 194.07 C 95.44 196.60 94.40 199.48 91.84 200.66 C 89.44 201.44 86.93 201.82 84.47 202.40 C 86.09 207.85 86.89 213.64 86.11 219.30 C 85.87 221.97 83.35 223.26 81.32 224.48 C 79.32 223.72 77.34 222.94 75.38 222.10 C 74.74 222.81 74.08 223.49 73.40 224.15 C 72.34 220.51 71.81 216.66 72.46 212.89 C 72.96 210.46 72.28 208.07 71.48 205.80 C 69.40 206.35 67.34 206.95 65.28 207.57 C 66.04 213.51 65.73 219.52 66.08 225.49 C 65.65 225.11 64.79 224.35 64.36 223.97 C 63.61 220.17 64.22 216.23 63.37 212.46 C 62.05 211.25 60.47 210.38 59.07 209.29 C 58.84 208.25 58.56 207.23 58.23 206.23 C 52.97 202.39 47.60 198.64 41.74 195.76 C 41.73 198.82 41.78 201.89 41.77 204.96 C 43.18 211.24 44.94 217.54 45.42 223.97 C 44.96 226.78 45.77 231.11 42.27 232.14 C 36.44 235.01 30.49 231.15 25.51 228.32 C 22.57 226.35 18.83 226.61 15.70 225.12 C 13.54 224.05 11.48 222.70 9.75 221.02 C 9.32 219.58 9.51 218.06 9.44 216.59 C 12.18 213.25 16.34 212.09 20.53 212.38 C 22.99 210.48 25.72 208.99 28.56 207.75 C 29.46 206.80 30.37 205.86 31.31 204.95 C 31.51 205.78 31.90 207.44 32.10 208.27 C 28.04 210.56 23.43 211.92 20.00 215.24 C 18.38 215.04 16.77 214.81 15.17 214.55 C 13.15 215.87 11.64 217.74 10.37 219.76 C 12.52 221.15 14.63 222.69 17.09 223.47 C 20.61 224.41 24.53 224.27 27.59 226.51 C 31.86 229.29 37.13 232.50 42.30 229.99 C 43.53 224.31 42.92 218.11 41.35 212.49 C 39.67 206.83 40.80 200.89 40.66 195.10 C 40.25 194.81 39.45 194.25 39.04 193.96 C 38.77 190.55 39.15 187.15 39.84 183.80 C 38.72 182.98 37.60 182.16 36.47 181.36 C 36.16 180.92 35.52 180.05 35.21 179.61 C 35.00 179.07 34.59 177.99 34.39 177.45 C 34.76 172.92 33.29 168.09 35.26 163.79 C 34.86 162.94 34.47 162.09 34.08 161.24 C 31.90 159.73 29.50 158.42 27.67 156.49 C 26.65 153.26 27.52 149.95 30.07 147.74 C 28.17 148.52 25.72 148.63 24.45 150.46 C 22.53 153.22 21.48 156.72 22.04 160.08 C 24.04 171.44 25.03 183.06 29.15 193.92 C 30.44 197.04 30.51 200.49 31.40 203.73 C 30.88 204.03 29.85 204.63 29.33 204.92 C 27.61 195.84 24.86 187.00 22.66 178.04 C 22.20 174.36 22.21 170.65 22.24 166.95 C 20.15 162.03 20.20 156.59 21.24 151.44 C 24.29 145.66 32.27 144.51 37.92 146.70 C 41.62 146.04 45.34 145.46 48.98 144.53 C 49.58 145.11 50.16 145.70 50.72 146.31 C 44.20 147.82 37.54 148.62 31.01 150.06 C 28.76 150.82 29.37 153.68 29.28 155.53 C 29.89 155.94 31.09 156.75 31.70 157.16 C 32.97 161.32 37.65 159.77 40.74 158.89 C 45.27 157.36 50.31 157.07 54.30 154.21 C 56.29 155.12 55.15 158.65 52.83 157.70 C 53.64 158.16 55.27 159.09 56.08 159.55 C 56.12 160.13 56.20 161.28 56.24 161.85 C 60.26 163.36 64.50 164.65 68.83 163.79 C 68.81 164.03 68.77 164.51 68.74 164.75 C 71.14 164.68 73.53 164.55 75.92 164.30 C 75.25 162.44 74.54 160.59 73.83 158.74 C 74.22 158.36 75.00 157.61 75.39 157.23 C 74.86 152.08 73.73 145.77 77.83 141.74 C 75.61 147.22 76.40 153.09 75.71 158.82 C 76.12 160.19 76.51 161.56 76.88 162.95 C 80.58 162.88 84.13 161.67 87.22 159.67 C 86.94 157.99 86.62 156.31 86.23 154.64 C 88.91 149.13 89.26 142.79 89.57 136.77 C 92.56 132.75 93.55 127.65 94.31 122.81 C 93.55 123.90 92.81 125.01 92.08 126.13 C 91.25 126.38 90.42 126.63 89.59 126.89 C 88.91 125.72 88.24 124.55 87.56 123.39 C 88.47 123.73 90.30 124.42 91.22 124.76 C 93.03 122.14 95.07 119.36 95.11 116.03 C 95.48 113.17 94.23 110.50 93.72 107.74 C 93.46 104.23 94.40 100.55 92.96 97.19 C 91.91 93.89 88.81 91.45 88.73 87.83 C 88.49 84.18 87.01 80.82 85.32 77.64 C 85.66 82.14 84.89 86.68 83.03 90.79 C 81.17 93.58 78.97 96.19 78.09 99.52 C 80.44 99.61 82.79 99.74 85.14 99.90 C 85.40 100.51 85.93 101.74 86.19 102.35 C 83.58 101.91 81.00 101.31 78.39 100.88 C 78.02 101.45 77.28 102.57 76.91 103.14 C 77.04 98.95 77.88 94.73 80.51 91.35 C 82.21 87.22 85.22 82.72 83.41 78.12 C 80.95 73.73 77.55 68.57 72.00 68.29 C 67.17 68.89 62.22 71.59 60.12 76.16 C 58.13 80.54 57.19 85.32 56.27 90.01 C 60.35 92.97 61.08 98.08 62.26 102.63 C 65.84 101.06 66.44 96.65 69.60 94.56 C 68.77 97.29 67.42 99.82 65.97 102.28 C 66.82 102.59 68.53 103.23 69.39 103.55 C 65.65 105.22 61.59 103.12 57.70 104.05 C 57.39 101.99 57.40 99.66 55.85 98.07 C 53.91 96.30 51.03 95.73 49.50 93.50 C 48.65 92.11 47.97 90.63 47.31 89.15 C 48.63 89.95 49.93 90.80 51.20 91.69 C 50.54 85.81 50.22 79.63 46.62 74.64 C 46.49 75.71 46.22 77.84 46.09 78.90 C 43.99 75.45 44.70 71.68 46.23 68.24 C 48.63 62.13 44.40 56.07 45.54 49.88 C 45.95 47.40 46.09 44.05 48.81 42.97 M 36.62 162.09 C 34.52 167.19 35.17 172.81 36.50 178.01 C 39.13 180.88 42.18 183.28 45.32 185.56 C 45.58 184.64 45.83 183.72 46.09 182.81 C 46.10 183.52 46.13 184.94 46.15 185.65 C 49.07 188.49 52.03 191.33 55.34 193.72 C 60.20 196.01 65.76 196.58 71.04 195.72 C 71.33 195.35 71.90 194.63 72.18 194.26 C 78.45 194.31 83.53 190.54 89.19 188.53 C 92.95 181.87 91.04 174.12 89.43 167.15 C 88.51 165.75 87.66 164.30 86.86 162.83 C 83.16 163.53 79.63 164.87 76.03 165.94 C 70.66 167.04 65.17 166.10 59.84 165.20 C 57.52 164.28 55.45 162.89 53.64 161.19 C 52.49 161.50 51.32 161.75 50.23 162.24 C 49.89 164.16 49.86 166.12 49.74 168.06 C 49.31 168.06 48.45 168.05 48.02 168.05 C 48.05 166.05 48.08 164.05 48.12 162.05 C 49.51 160.68 50.93 159.34 52.28 157.92 C 47.03 159.19 41.86 160.75 36.62 162.09 M 43.51 194.13 C 50.25 197.38 56.57 201.48 62.44 206.10 C 71.21 204.18 79.55 200.61 88.44 199.18 C 93.98 198.97 95.61 191.29 91.50 188.07 C 90.84 189.16 90.19 190.26 89.55 191.36 C 84.46 196.19 77.22 195.51 70.92 197.43 C 64.07 199.21 56.43 197.43 51.03 192.85 C 47.92 191.10 46.34 187.61 43.08 186.07 C 40.97 188.16 40.35 192.77 43.51 194.13 M 73.91 205.72 C 73.79 208.46 73.61 211.59 76.54 212.93 C 77.36 211.42 78.03 209.84 78.67 208.25 C 79.13 208.37 80.04 208.60 80.49 208.72 C 80.51 212.44 76.92 213.64 73.93 214.50 C 75.00 217.19 76.42 220.07 79.01 221.57 C 82.66 223.09 84.59 218.81 85.32 215.97 C 85.05 211.43 83.73 206.98 82.83 202.52 C 79.76 203.31 76.84 204.54 73.91 205.72 M 61.04 207.90 C 60.23 209.20 62.57 210.56 63.54 209.58 C 64.38 208.20 62.06 206.86 61.04 207.90 Z" />
<path fill="#333333" opacity="1.00" d=" M 40.75 58.59 C 41.03 58.57 41.61 58.53 41.89 58.52 C 42.54 62.99 40.56 67.05 38.96 71.07 C 37.66 73.65 40.37 75.53 41.60 77.47 C 44.21 80.36 43.58 84.45 43.91 88.02 C 42.97 89.01 42.03 89.99 41.07 90.95 C 41.87 86.92 43.27 82.20 40.64 78.54 C 39.29 76.29 36.59 74.16 37.48 71.22 C 38.92 67.11 41.07 63.10 40.75 58.59 Z" />
<path fill="#333333" opacity="1.00" d=" M 37.90 88.99 C 38.37 88.79 39.29 88.40 39.76 88.21 C 38.94 91.84 39.28 95.55 39.48 99.24 C 38.07 96.01 36.92 92.51 37.90 88.99 Z" />
<path fill="#333333" opacity="1.00" d=" M 44.18 92.95 C 44.59 92.85 45.40 92.65 45.80 92.55 C 45.38 93.67 44.95 94.80 44.53 95.93 C 45.13 100.76 42.57 105.31 43.00 110.13 C 43.50 112.82 44.53 115.36 45.23 117.99 C 43.95 120.23 43.99 122.98 44.59 125.41 C 46.37 128.19 49.96 129.09 51.70 131.93 C 49.87 131.40 48.10 130.70 46.34 129.96 C 47.43 136.18 52.80 139.97 56.53 144.58 C 58.95 148.85 59.41 153.91 60.13 158.69 C 55.87 154.11 57.04 146.70 52.01 142.61 C 53.15 145.60 54.37 148.56 54.77 151.76 C 54.19 152.47 53.60 153.19 53.02 153.90 C 53.13 150.81 52.13 147.90 50.37 145.39 C 50.17 143.60 49.97 141.81 49.82 140.02 C 46.71 136.71 44.94 132.53 44.07 128.12 C 41.84 123.25 43.70 117.82 42.16 112.81 C 40.68 108.66 42.00 104.30 42.09 100.05 C 42.02 97.50 43.31 95.26 44.18 92.95 Z" />
<path fill="#333333" opacity="1.00" d=" M 86.07 109.02 C 87.61 106.73 87.53 103.86 88.27 101.28 C 89.36 106.43 87.42 112.36 82.30 114.51 C 83.42 112.59 84.86 110.88 86.07 109.02 Z" />
<path fill="#333333" opacity="1.00" d=" M 50.57 107.25 C 52.15 106.19 53.82 105.26 55.59 104.54 C 53.85 107.80 51.50 110.68 49.88 114.01 C 49.91 111.74 50.21 109.49 50.57 107.25 Z" />
<path fill="#333333" opacity="1.00" d=" M 76.75 133.61 C 76.86 124.57 75.74 115.57 74.16 106.69 C 77.49 111.13 76.75 116.83 77.79 121.97 C 78.59 125.86 77.73 129.83 76.75 133.61 Z" />
<path fill="#333333" opacity="1.00" d=" M 88.37 111.09 C 88.76 110.76 89.53 110.09 89.92 109.76 C 91.95 111.84 94.44 114.54 93.07 117.66 C 91.48 115.48 90.12 113.14 88.37 111.09 Z" />
<path fill="#333333" opacity="1.00" d=" M 52.52 111.02 C 57.77 112.64 62.97 114.41 68.27 115.95 C 67.56 116.53 66.83 117.08 66.09 117.61 C 61.14 116.81 55.52 115.40 52.52 111.02 Z" />
<path fill="#333333" opacity="1.00" d=" M 85.62 124.96 C 86.14 121.09 84.97 117.24 85.33 113.36 C 87.20 118.32 88.46 124.18 86.09 129.19 C 85.36 130.86 84.51 132.47 83.68 134.10 C 83.58 133.47 83.36 132.21 83.25 131.57 C 84.21 129.44 85.30 127.30 85.62 124.96 Z" />
<path fill="#333333" opacity="1.00" d=" M 64.16 118.59 C 64.86 120.74 65.26 122.98 65.58 125.23 C 63.19 127.96 60.81 130.97 57.27 132.24 C 54.53 132.55 53.12 130.15 52.58 127.86 C 53.77 128.77 54.93 129.72 56.07 130.69 C 58.20 129.43 60.46 128.13 61.82 125.99 C 63.05 123.69 63.53 121.09 64.16 118.59 Z" />
<path fill="#333333" opacity="1.00" d=" M 48.76 120.48 C 50.74 122.61 52.51 124.94 54.03 127.43 C 51.07 126.24 49.11 123.66 48.76 120.48 Z" />
<path fill="#333333" opacity="1.00" d=" M 64.30 129.33 C 64.80 128.64 65.30 127.96 65.80 127.27 C 67.76 132.11 73.86 133.96 75.13 139.19 C 70.87 136.72 67.56 132.95 64.30 129.33 Z" />
<path fill="#333333" opacity="1.00" d=" M 84.45 135.13 C 85.51 134.25 87.36 135.07 87.76 136.30 C 87.47 138.20 83.65 136.81 84.45 135.13 Z" />
<path fill="#333333" opacity="1.00" d=" M 85.54 138.25 C 86.56 136.98 88.63 138.73 87.71 140.00 C 86.71 141.25 84.65 139.49 85.54 138.25 Z" />
<path fill="#333333" opacity="1.00" d=" M 69.06 149.13 C 70.58 146.43 72.17 143.71 74.33 141.47 C 73.53 144.57 71.36 147.01 69.06 149.13 Z" />
<path fill="#333333" opacity="1.00" d=" M 60.91 144.85 C 62.39 147.52 62.80 150.56 62.69 153.57 C 61.48 150.82 60.83 147.86 60.91 144.85 Z" />
<path fill="#333333" opacity="1.00" d=" M 53.70 166.31 C 55.60 167.07 57.43 168.01 59.13 169.18 C 63.38 169.35 67.74 170.14 71.92 168.98 C 76.63 167.76 81.67 167.86 86.12 165.72 C 86.24 166.27 86.48 167.38 86.60 167.94 C 83.88 168.60 81.07 168.65 78.31 169.01 C 74.07 170.58 69.54 172.14 64.98 171.31 C 61.83 169.92 58.34 169.88 55.10 168.89 C 54.57 168.06 54.11 167.20 53.70 166.31 Z" />
<path fill="#333333" opacity="1.00" d=" M 26.56 168.36 C 27.36 171.80 27.27 175.35 27.75 178.83 C 29.61 182.80 31.18 186.98 31.65 191.37 C 27.39 184.49 25.92 176.36 26.56 168.36 Z" />
<path fill="#333333" opacity="1.00" d=" M 77.30 190.45 C 78.11 187.07 81.61 186.29 84.57 185.64 C 82.59 187.83 79.98 189.28 77.30 190.45 Z" />
<path fill="#333333" opacity="1.00" d=" M 35.43 220.35 C 36.30 219.58 37.18 218.84 38.07 218.11 C 38.40 221.20 35.36 223.43 32.46 222.96 C 32.50 222.37 32.58 221.19 32.61 220.60 C 33.32 220.54 34.73 220.41 35.43 220.35 Z" />
</g>
</svg>
