<?xml version="1.0" encoding="UTF-8" ?>
<!DOCTYPE svg PUBLIC "-//W3C//DTD SVG 1.1//EN" "http://www.w3.org/Graphics/SVG/1.1/DTD/svg11.dtd">
<svg width="175pt" height="250pt" viewBox="0 0 175 250" version="1.1" xmlns="http://www.w3.org/2000/svg">
<g id="#ffffffff">
<path fill="#FFFFFF" opacity="1.00" d=" M 0.00 0.00 L 175.00 0.00 L 175.00 250.00 L 0.00 250.00 L 0.00 0.00 M 82.16 20.20 C 77.23 22.07 74.11 26.83 72.63 31.69 C 69.09 38.94 59.49 38.69 54.95 44.95 C 51.64 48.85 50.29 53.87 48.05 58.36 C 45.91 61.96 43.40 65.39 42.10 69.43 C 39.67 74.68 41.23 80.55 40.52 86.09 C 39.72 90.74 40.82 95.46 39.72 100.08 C 38.32 101.86 36.05 103.38 36.14 105.91 C 35.63 111.65 35.87 117.48 34.46 123.12 C 30.87 124.22 26.60 124.72 24.28 128.05 C 25.34 132.04 23.90 136.57 25.72 140.29 C 31.70 143.07 38.18 144.59 44.31 147.00 C 43.61 147.16 42.22 147.48 41.52 147.64 C 46.06 150.07 48.07 155.32 50.56 159.57 C 53.78 165.29 52.10 171.80 51.76 177.95 C 50.50 181.64 49.09 185.29 48.13 189.08 C 45.83 195.34 48.79 201.78 50.13 207.91 C 51.79 213.10 50.90 218.54 50.40 223.83 C 51.03 226.49 51.77 229.12 51.76 231.88 C 53.02 235.20 54.70 238.38 54.80 242.02 C 57.89 248.13 67.34 250.23 72.56 245.67 C 75.25 245.97 78.17 244.14 77.37 241.13 C 75.87 236.82 71.79 234.08 69.66 230.11 C 67.89 226.79 65.24 223.86 64.48 220.09 C 63.28 215.20 63.59 210.12 64.06 205.16 C 64.42 201.53 66.32 198.31 67.16 194.81 C 68.00 188.89 66.13 182.76 68.16 176.98 C 69.40 173.08 71.15 169.35 72.22 165.39 C 72.39 164.78 72.74 163.58 72.91 162.98 C 74.26 156.94 73.37 150.32 69.96 145.10 C 68.16 142.79 68.56 139.87 68.55 137.14 C 70.43 140.09 72.20 143.34 75.60 144.78 C 75.69 158.56 75.41 172.34 75.28 186.12 C 74.94 188.79 74.49 191.59 76.05 194.00 C 76.37 192.72 76.74 191.44 76.77 190.12 C 77.16 181.06 77.44 171.99 77.43 162.93 C 76.70 156.61 77.67 150.28 77.43 143.95 C 78.04 144.24 79.26 144.83 79.86 145.12 L 80.36 145.43 C 84.93 144.22 88.59 147.93 93.05 148.03 C 95.73 148.23 98.41 148.02 101.10 148.08 C 104.99 150.37 108.51 153.25 112.71 154.98 C 111.88 160.55 110.52 166.20 111.18 171.88 C 112.89 176.96 116.45 181.44 116.74 186.97 C 117.86 194.62 112.41 201.78 114.61 209.43 C 116.91 212.11 120.68 212.69 123.94 211.72 C 128.08 210.53 131.60 213.34 135.15 214.94 C 137.49 214.40 139.76 215.25 142.08 215.45 C 145.57 214.25 149.74 212.99 151.03 209.09 C 149.29 207.25 147.81 204.56 144.92 204.57 C 138.29 203.61 135.88 196.13 130.33 193.24 C 126.91 184.22 129.89 174.41 127.64 165.20 C 126.89 159.11 127.28 152.91 128.57 146.95 C 127.37 142.11 125.55 136.66 120.61 134.48 C 116.46 133.16 113.47 129.92 110.09 127.36 C 111.40 125.77 113.50 124.37 113.37 122.05 C 113.76 118.48 111.00 115.72 109.42 112.81 C 111.83 109.70 113.83 106.31 116.17 103.15 C 118.14 100.57 118.74 97.27 120.53 94.59 C 122.04 92.27 123.49 89.92 124.99 87.59 L 123.39 86.67 C 123.91 86.86 124.94 87.24 125.46 87.43 C 125.81 84.70 127.88 82.16 127.65 79.44 C 124.93 76.94 123.53 73.22 120.38 71.19 C 120.35 69.96 120.33 68.73 120.31 67.50 C 121.32 66.58 122.30 65.63 123.26 64.67 C 125.11 64.66 127.04 64.50 128.78 65.30 C 132.61 66.49 134.30 70.45 136.30 73.56 C 138.86 77.58 138.96 83.22 136.07 87.09 C 134.25 90.28 129.96 88.25 127.27 87.62 C 126.59 88.07 125.92 88.53 125.25 89.00 C 128.24 90.38 131.65 92.25 134.93 90.49 C 138.39 89.71 139.41 85.88 140.34 82.95 C 141.32 76.64 138.02 70.59 134.00 65.99 C 130.82 62.39 125.49 61.57 121.10 63.18 C 118.39 64.88 118.34 68.47 117.32 71.19 C 116.84 73.28 114.39 73.63 112.86 74.68 C 110.06 72.27 106.88 69.29 102.88 69.76 C 100.95 69.71 99.33 70.90 97.65 71.65 C 96.86 74.29 95.81 76.88 95.61 79.66 L 95.41 79.65 C 95.84 77.49 94.67 75.67 92.50 75.27 L 93.44 76.41 C 93.35 80.08 94.40 83.58 94.97 87.16 C 93.39 84.08 90.61 82.10 87.71 80.37 C 88.37 75.93 88.21 71.45 88.37 66.98 C 88.66 64.86 86.95 63.36 86.17 61.57 C 88.52 61.18 90.57 59.96 92.60 58.79 C 93.21 59.81 93.83 60.83 94.46 61.85 C 94.82 66.18 94.97 70.55 94.28 74.86 C 94.85 74.56 96.00 73.96 96.57 73.66 C 97.55 67.78 97.05 61.47 94.44 56.05 C 97.38 50.17 101.98 44.82 102.81 38.08 C 103.68 31.97 100.44 25.95 95.78 22.18 C 92.00 19.15 86.66 18.87 82.16 20.20 Z" />
<path fill="#FFFFFF" opacity="1.00" d=" M 80.19 24.22 C 88.24 18.31 101.42 26.06 100.42 35.93 C 100.81 42.59 96.13 47.77 93.02 53.19 C 91.38 56.14 88.75 59.41 84.96 58.82 C 80.96 59.11 78.06 55.90 75.77 53.08 C 73.83 50.68 74.73 47.36 74.98 44.58 C 74.66 44.17 74.03 43.34 73.72 42.93 C 74.02 42.55 74.63 41.79 74.94 41.40 C 74.09 39.93 73.23 38.46 72.35 37.00 C 74.06 32.32 75.60 26.93 80.19 24.22 Z" />
<path fill="#FFFFFF" opacity="1.00" d=" M 58.41 44.42 C 62.05 41.37 67.19 40.94 70.71 37.68 C 70.90 39.04 71.10 40.40 71.32 41.76 C 68.25 47.84 67.86 55.11 71.01 61.25 C 72.26 56.01 69.83 50.31 72.37 45.35 L 72.67 45.35 C 72.94 48.36 71.86 51.70 73.72 54.38 C 75.81 58.40 80.11 60.21 83.96 62.06 C 85.76 64.31 86.59 67.24 87.66 69.90 C 87.70 72.88 86.41 75.61 85.01 78.15 C 84.48 72.85 81.93 67.53 77.10 64.90 C 77.25 63.73 77.38 62.56 77.51 61.39 C 75.42 62.15 73.36 62.96 71.27 63.72 C 71.21 64.16 71.09 65.04 71.03 65.47 C 75.14 64.06 78.36 67.67 80.67 70.55 C 83.16 74.49 81.51 79.17 79.99 83.12 C 80.15 83.70 80.46 84.87 80.61 85.46 C 80.26 85.89 79.56 86.75 79.21 87.18 C 81.02 87.65 81.56 86.72 81.20 84.99 C 81.57 84.43 82.31 83.32 82.68 82.77 C 84.81 84.08 87.25 85.10 88.90 87.05 C 91.24 89.94 91.41 93.84 91.65 97.39 C 88.51 94.41 85.61 90.58 80.90 90.23 C 82.85 93.29 86.90 94.37 88.18 98.04 C 89.02 98.48 89.87 98.91 90.71 99.35 C 90.52 101.24 91.65 103.77 93.89 103.48 C 97.22 101.77 100.23 99.44 103.73 98.04 C 107.04 101.13 111.64 98.68 115.17 97.26 C 115.67 93.41 117.57 89.89 117.83 86.00 C 116.55 82.71 114.74 79.64 113.89 76.18 C 115.95 75.42 117.91 74.02 120.19 74.21 C 121.09 75.22 121.75 76.42 122.46 77.57 C 123.61 78.43 124.84 79.23 125.77 80.34 C 124.90 84.82 120.86 87.91 120.31 92.50 C 119.94 92.77 119.22 93.31 118.85 93.58 C 117.57 97.70 114.51 100.86 112.74 104.74 C 111.42 107.63 108.50 109.26 106.85 111.91 C 105.09 114.79 101.85 116.15 99.53 118.49 C 98.49 119.24 97.63 120.61 96.19 120.52 C 91.21 119.64 87.47 115.97 82.92 114.04 C 80.17 112.87 78.30 110.47 77.15 107.78 C 76.25 105.48 74.01 104.28 72.38 102.58 C 68.26 96.86 66.47 89.71 61.67 84.44 C 59.81 81.88 57.62 78.47 53.91 79.21 C 55.48 81.22 57.27 83.05 59.01 84.91 C 58.53 85.51 57.57 86.72 57.09 87.33 C 55.29 87.32 53.49 87.32 51.68 87.32 C 49.21 91.60 45.53 95.08 42.31 98.76 C 42.42 97.76 42.59 96.77 42.82 95.80 C 41.94 89.52 43.86 83.30 43.36 77.01 C 42.92 72.23 45.44 68.04 47.25 63.84 L 48.20 64.93 C 48.20 63.36 48.18 61.79 48.12 60.22 L 48.66 61.96 C 51.94 56.15 53.66 49.33 58.41 44.42 M 54.42 57.94 C 52.65 59.59 48.79 60.72 49.45 63.71 C 51.38 62.37 53.40 61.16 55.43 59.96 C 55.98 61.03 56.54 62.10 57.11 63.16 C 57.50 61.48 57.88 59.79 58.26 58.11 C 57.24 56.61 56.35 55.03 55.17 53.66 C 51.99 52.58 53.76 56.69 54.42 57.94 M 55.46 67.26 C 55.51 67.68 55.61 68.51 55.67 68.93 C 57.24 69.87 58.68 70.99 59.88 72.38 C 63.71 71.81 67.20 69.75 71.20 70.73 C 70.83 69.61 70.58 68.21 69.12 68.11 C 66.08 66.96 62.87 67.84 60.16 69.40 C 58.60 68.67 57.04 67.94 55.46 67.26 M 65.04 84.67 C 67.65 85.53 70.27 86.36 72.96 86.88 C 70.99 84.84 68.43 83.57 65.83 82.53 C 65.63 83.06 65.24 84.13 65.04 84.67 M 72.51 102.22 C 74.71 102.75 75.98 101.07 77.06 99.50 C 79.71 102.21 80.32 106.05 82.16 109.24 C 83.38 104.34 79.75 99.80 76.92 96.14 C 74.29 97.00 74.29 100.39 72.51 102.22 Z" />
<path fill="#FFFFFF" opacity="1.00" d=" M 98.63 74.91 C 100.33 71.37 105.26 71.72 108.02 73.73 C 114.13 78.51 117.51 87.02 115.12 94.59 C 112.59 97.22 108.74 98.20 105.41 96.49 C 102.14 94.30 100.59 90.56 98.76 87.24 C 96.53 83.55 97.08 78.76 98.63 74.91 Z" />
<path fill="#FFFFFF" opacity="1.00" d=" M 87.21 83.79 C 90.57 83.80 92.23 86.59 94.22 88.75 C 96.61 91.31 98.07 94.54 100.09 97.38 C 97.60 98.45 95.08 99.61 93.24 101.68 C 93.36 98.80 93.56 95.92 93.37 93.05 C 92.62 89.25 89.63 86.58 87.21 83.79 Z" />
<path fill="#FFFFFF" opacity="1.00" d=" M 59.25 88.06 C 59.70 87.78 60.61 87.23 61.07 86.95 C 60.90 87.51 60.57 88.64 60.40 89.20 C 57.64 89.95 54.90 90.78 52.11 91.44 C 53.01 88.23 56.59 88.33 59.25 88.06 Z" />
<path fill="#FFFFFF" opacity="1.00" d=" M 46.05 100.25 C 47.69 92.85 56.41 91.84 62.63 91.00 C 66.57 96.59 69.11 103.13 73.97 108.06 C 79.21 116.06 87.99 121.42 97.35 123.08 C 100.94 120.51 103.68 116.68 107.86 114.98 C 110.07 116.98 111.65 120.12 111.58 123.14 C 107.17 128.23 100.55 130.49 94.99 134.04 C 91.11 136.65 86.79 138.50 82.88 141.07 C 80.53 142.58 77.68 142.61 74.99 142.71 C 72.88 139.33 70.31 136.28 67.96 133.08 C 66.95 131.48 65.43 129.93 65.66 127.89 C 65.29 127.84 64.56 127.74 64.20 127.70 C 61.10 122.56 57.79 117.54 54.43 112.57 C 51.35 108.68 48.07 104.84 46.05 100.25 Z" />
<path fill="#FFFFFF" opacity="1.00" d=" M 41.69 100.85 C 42.52 100.94 43.35 101.04 44.18 101.15 C 44.80 102.87 45.62 104.49 46.65 106.00 C 45.86 105.87 44.28 105.62 43.50 105.49 C 46.17 107.69 49.24 109.56 51.13 112.55 C 48.63 114.43 45.53 115.84 44.05 118.76 C 44.48 118.27 45.35 117.29 45.78 116.80 C 48.18 116.50 50.30 115.37 52.24 113.99 C 57.02 122.79 66.72 129.68 66.37 140.58 C 66.06 140.34 65.44 139.86 65.14 139.63 C 61.07 138.75 56.76 138.09 52.78 139.74 C 49.52 140.53 48.18 143.79 46.69 146.42 C 44.31 143.05 44.77 138.82 44.36 134.94 C 41.68 132.23 40.21 128.62 37.56 125.89 C 37.14 118.92 38.37 111.97 38.33 104.99 C 39.60 103.74 40.86 102.45 41.69 100.85 Z" />
<path fill="#FFFFFF" opacity="1.00" d=" M 27.15 127.89 C 29.75 126.76 32.42 125.83 35.17 125.16 C 35.85 127.77 37.95 129.58 39.11 131.95 C 39.85 133.38 40.60 134.85 41.94 135.82 C 42.29 139.18 42.52 142.55 43.08 145.89 C 39.25 141.27 32.14 142.12 27.75 138.21 C 26.16 135.95 26.28 132.72 27.40 130.27 C 27.32 129.48 27.23 128.68 27.15 127.89 Z" />
<path fill="#FFFFFF" opacity="1.00" d=" M 106.45 129.65 C 108.34 128.16 110.18 130.34 111.66 131.39 C 114.16 133.64 116.97 135.50 120.10 136.77 C 124.19 138.18 124.31 143.05 126.51 146.13 C 125.45 151.74 125.01 157.42 124.69 163.09 C 125.53 168.34 126.69 173.60 126.10 178.96 C 125.47 183.83 126.80 188.60 127.72 193.34 C 132.09 196.64 135.01 201.39 139.17 204.87 C 141.96 207.56 146.90 206.12 148.74 210.00 C 146.66 211.22 144.55 212.41 142.30 213.30 C 140.09 212.59 137.78 212.43 135.49 212.24 C 132.39 211.18 129.48 209.09 126.02 209.69 C 123.00 209.53 118.33 211.60 116.75 207.93 C 116.60 203.50 117.49 199.11 118.55 194.83 C 118.96 190.95 118.88 187.02 118.50 183.15 C 118.18 180.11 116.29 177.63 115.06 174.93 C 113.22 168.61 114.12 161.95 113.16 155.51 C 114.92 155.37 116.77 155.21 116.73 153.00 C 114.63 152.48 112.49 152.06 110.50 151.18 C 108.04 149.88 106.30 147.49 103.68 146.46 C 100.95 145.24 97.90 145.15 94.97 145.21 C 90.94 145.57 87.23 143.43 83.19 143.83 C 83.07 143.63 82.83 143.23 82.71 143.02 C 85.83 140.82 89.58 139.81 92.80 137.79 C 97.23 134.88 101.89 132.36 106.45 129.65 M 114.20 137.05 C 114.66 139.48 115.82 141.69 116.62 144.02 C 116.89 145.70 115.00 146.64 114.10 147.79 C 110.13 147.75 108.17 143.29 104.66 142.40 C 106.31 145.57 109.06 148.83 112.96 148.82 C 115.56 149.42 118.27 147.48 118.81 144.95 C 118.71 141.78 117.10 138.53 114.20 137.05 M 119.64 196.57 C 119.53 199.21 118.96 203.27 122.52 203.80 C 121.55 201.44 120.97 198.96 121.22 196.40 C 120.83 196.44 120.04 196.53 119.64 196.57 Z" />
<path fill="#FFFFFF" opacity="1.00" d=" M 52.55 142.48 C 56.37 140.96 60.85 141.31 64.74 142.40 C 68.98 147.31 71.64 153.69 71.47 160.25 C 69.81 158.37 68.10 156.50 65.97 155.13 C 67.05 158.61 69.69 161.64 68.48 165.52 C 69.79 169.61 66.51 173.06 65.92 176.96 C 65.15 181.73 61.58 185.36 60.40 189.98 C 59.51 192.78 59.64 195.75 59.50 198.65 C 59.99 198.68 60.96 198.73 61.45 198.76 C 62.36 194.15 61.93 189.06 64.70 185.01 C 64.89 189.22 65.44 193.71 63.75 197.70 C 60.15 205.08 60.46 213.81 62.61 221.56 C 65.78 229.26 71.04 235.76 76.14 242.24 C 75.38 242.54 73.85 243.14 73.08 243.44 C 71.48 242.20 70.62 239.00 68.11 239.71 C 65.20 240.68 62.02 239.67 59.20 240.80 C 61.91 244.62 67.53 240.64 71.13 242.99 C 67.75 247.39 60.28 246.08 57.66 241.57 C 57.00 235.41 53.52 230.04 52.29 224.00 C 52.83 220.34 54.05 216.65 53.08 212.94 C 52.15 205.30 48.00 197.86 49.86 190.07 C 50.57 186.60 51.77 183.27 52.97 179.95 C 54.24 182.30 55.25 184.78 55.99 187.35 C 56.47 187.43 57.42 187.59 57.90 187.67 C 56.68 182.44 54.49 177.37 54.26 171.96 C 55.19 165.71 54.21 158.87 50.24 153.77 C 49.34 152.21 47.79 150.88 47.55 149.04 C 48.94 146.67 50.42 144.24 52.55 142.48 M 58.04 160.30 C 58.65 160.36 59.88 160.49 60.49 160.55 C 62.08 158.88 63.60 157.14 64.87 155.21 C 61.94 155.81 59.93 158.17 58.04 160.30 M 61.58 174.49 C 63.35 174.63 64.98 174.29 65.82 172.58 C 64.43 172.24 63.03 171.91 61.64 171.60 C 61.61 172.56 61.59 173.53 61.58 174.49 M 58.34 218.41 C 56.87 220.67 54.82 223.21 55.39 226.08 C 58.04 224.25 59.09 221.10 60.52 218.37 C 59.98 218.38 58.89 218.40 58.34 218.41 Z" />
</g>
<g id="#484948ff">
<path fill="#333333" opacity="1.00" d=" M 82.16 20.20 C 86.66 18.87 92.00 19.15 95.78 22.18 C 100.44 25.95 103.68 31.97 102.81 38.08 C 101.98 44.82 97.38 50.17 94.44 56.05 C 97.05 61.47 97.55 67.78 96.57 73.66 C 96.00 73.96 94.85 74.56 94.28 74.86 C 94.97 70.55 94.82 66.18 94.46 61.85 C 93.83 60.83 93.21 59.81 92.60 58.79 C 90.57 59.96 88.52 61.18 86.17 61.57 C 86.95 63.36 88.66 64.86 88.37 66.98 C 88.21 71.45 88.37 75.93 87.71 80.37 C 90.61 82.10 93.39 84.08 94.97 87.16 C 94.40 83.58 93.35 80.08 93.44 76.41 L 92.50 75.27 C 94.67 75.67 95.84 77.49 95.41 79.65 L 95.61 79.66 C 95.81 76.88 96.86 74.29 97.65 71.65 C 99.33 70.90 100.95 69.71 102.88 69.76 C 106.88 69.29 110.06 72.27 112.86 74.68 C 114.39 73.63 116.84 73.28 117.32 71.19 C 118.34 68.47 118.39 64.88 121.10 63.18 C 125.49 61.57 130.82 62.39 134.00 65.99 C 138.02 70.59 141.32 76.64 140.34 82.95 C 139.41 85.88 138.39 89.71 134.93 90.49 C 131.65 92.25 128.24 90.38 125.25 89.00 C 125.92 88.53 126.59 88.07 127.27 87.62 C 129.96 88.25 134.25 90.28 136.07 87.09 C 138.96 83.22 138.86 77.58 136.30 73.56 C 134.30 70.45 132.61 66.49 128.78 65.30 C 127.04 64.50 125.11 64.66 123.26 64.67 C 122.30 65.63 121.32 66.58 120.31 67.50 C 120.33 68.73 120.35 69.96 120.38 71.19 C 123.53 73.22 124.93 76.94 127.65 79.44 C 127.88 82.16 125.81 84.70 125.46 87.43 C 124.94 87.24 123.91 86.86 123.39 86.67 L 124.99 87.59 C 123.49 89.92 122.04 92.27 120.53 94.59 C 118.74 97.27 118.14 100.57 116.17 103.15 C 113.83 106.31 111.83 109.70 109.42 112.81 C 111.00 115.72 113.76 118.48 113.37 122.05 C 113.50 124.37 111.40 125.77 110.09 127.36 C 113.47 129.92 116.46 133.16 120.61 134.48 C 125.55 136.66 127.37 142.11 128.57 146.95 C 127.28 152.91 126.89 159.11 127.64 165.20 C 129.89 174.41 126.91 184.22 130.33 193.24 C 135.88 196.13 138.29 203.61 144.92 204.57 C 147.81 204.56 149.29 207.25 151.03 209.09 C 149.74 212.99 145.57 214.25 142.08 215.45 C 139.76 215.25 137.49 214.40 135.15 214.94 C 131.60 213.34 128.08 210.53 123.94 211.72 C 120.68 212.69 116.91 212.11 114.61 209.43 C 112.41 201.78 117.86 194.62 116.74 186.97 C 116.45 181.44 112.89 176.96 111.18 171.88 C 110.52 166.20 111.88 160.55 112.71 154.98 C 108.51 153.25 104.99 150.37 101.10 148.08 C 98.41 148.02 95.73 148.23 93.05 148.03 C 88.59 147.93 84.93 144.22 80.36 145.43 L 79.86 145.12 C 79.26 144.83 78.04 144.24 77.43 143.95 C 77.67 150.28 76.70 156.61 77.43 162.93 C 77.44 171.99 77.16 181.06 76.77 190.12 C 76.74 191.44 76.37 192.72 76.05 194.00 C 74.49 191.59 74.94 188.79 75.28 186.12 C 75.41 172.34 75.69 158.56 75.60 144.78 C 72.20 143.34 70.43 140.09 68.55 137.14 C 68.56 139.87 68.16 142.79 69.96 145.10 C 73.37 150.32 74.26 156.94 72.91 162.98 C 72.74 163.58 72.39 164.78 72.22 165.39 C 71.15 169.35 69.40 173.08 68.16 176.98 C 66.13 182.76 68.00 188.89 67.16 194.81 C 66.32 198.31 64.42 201.53 64.06 205.16 C 63.59 210.12 63.28 215.20 64.48 220.09 C 65.24 223.86 67.89 226.79 69.66 230.11 C 71.79 234.08 75.87 236.82 77.37 241.13 C 78.17 244.14 75.25 245.97 72.56 245.67 C 67.34 250.23 57.89 248.13 54.80 242.02 C 54.70 238.38 53.02 235.20 51.76 231.88 C 51.77 229.12 51.03 226.49 50.40 223.83 C 50.90 218.54 51.79 213.10 50.13 207.91 C 48.79 201.78 45.83 195.34 48.13 189.08 C 49.09 185.29 50.50 181.64 51.76 177.95 C 52.10 171.80 53.78 165.29 50.56 159.57 C 48.07 155.32 46.06 150.07 41.52 147.64 C 42.22 147.48 43.61 147.16 44.31 147.00 C 38.18 144.59 31.70 143.07 25.72 140.29 C 23.90 136.57 25.34 132.04 24.28 128.05 C 26.60 124.72 30.87 124.22 34.46 123.12 C 35.87 117.48 35.63 111.65 36.14 105.91 C 36.05 103.38 38.32 101.86 39.72 100.08 C 40.82 95.46 39.72 90.74 40.52 86.09 C 41.23 80.55 39.67 74.68 42.10 69.43 C 43.40 65.39 45.91 61.96 48.05 58.36 C 50.29 53.87 51.64 48.85 54.95 44.95 C 59.49 38.69 69.09 38.94 72.63 31.69 C 74.11 26.83 77.23 22.07 82.16 20.20 M 80.19 24.22 C 75.60 26.93 74.06 32.32 72.35 37.00 C 73.23 38.46 74.09 39.93 74.94 41.40 C 74.63 41.79 74.02 42.55 73.72 42.93 C 74.03 43.34 74.66 44.17 74.98 44.58 C 74.73 47.36 73.83 50.68 75.77 53.08 C 78.06 55.90 80.96 59.11 84.96 58.82 C 88.75 59.41 91.38 56.14 93.02 53.19 C 96.13 47.77 100.81 42.59 100.42 35.93 C 101.42 26.06 88.24 18.31 80.19 24.22 M 58.41 44.42 C 53.66 49.33 51.94 56.15 48.66 61.96 L 48.12 60.22 C 48.18 61.79 48.20 63.36 48.20 64.93 L 47.25 63.84 C 45.44 68.04 42.92 72.23 43.36 77.01 C 43.86 83.30 41.94 89.52 42.82 95.80 C 42.59 96.77 42.42 97.76 42.31 98.76 C 45.53 95.08 49.21 91.60 51.68 87.32 C 53.49 87.32 55.29 87.32 57.09 87.33 C 57.57 86.72 58.53 85.51 59.01 84.91 C 57.27 83.05 55.48 81.22 53.91 79.21 C 57.62 78.47 59.81 81.88 61.67 84.44 C 66.47 89.71 68.26 96.86 72.38 102.58 C 74.01 104.28 76.25 105.48 77.15 107.78 C 78.30 110.47 80.17 112.87 82.92 114.04 C 87.47 115.97 91.21 119.64 96.19 120.52 C 97.63 120.61 98.49 119.24 99.53 118.49 C 101.85 116.15 105.09 114.79 106.85 111.91 C 108.50 109.26 111.42 107.63 112.74 104.74 C 114.51 100.86 117.57 97.70 118.85 93.58 C 119.22 93.31 119.94 92.77 120.31 92.50 C 120.86 87.91 124.90 84.82 125.77 80.34 C 124.84 79.23 123.61 78.43 122.46 77.57 C 121.75 76.42 121.09 75.22 120.19 74.21 C 117.91 74.02 115.95 75.42 113.89 76.18 C 114.74 79.64 116.55 82.71 117.83 86.00 C 117.57 89.89 115.67 93.41 115.17 97.26 C 111.64 98.68 107.04 101.13 103.73 98.04 C 100.23 99.44 97.22 101.77 93.89 103.48 C 91.65 103.77 90.52 101.24 90.71 99.35 C 89.87 98.91 89.02 98.48 88.18 98.04 C 86.90 94.37 82.85 93.29 80.90 90.23 C 85.61 90.58 88.51 94.41 91.65 97.39 C 91.41 93.84 91.24 89.94 88.90 87.05 C 87.25 85.10 84.81 84.08 82.68 82.77 C 82.31 83.32 81.57 84.43 81.20 84.99 C 81.56 86.72 81.02 87.65 79.21 87.18 C 79.56 86.75 80.26 85.89 80.61 85.46 C 80.46 84.87 80.15 83.70 79.99 83.12 C 81.51 79.17 83.16 74.49 80.67 70.55 C 78.36 67.67 75.14 64.06 71.03 65.47 C 71.09 65.04 71.21 64.16 71.27 63.72 C 73.36 62.96 75.42 62.15 77.51 61.39 C 77.38 62.56 77.25 63.73 77.10 64.90 C 81.93 67.53 84.48 72.85 85.01 78.15 C 86.41 75.61 87.70 72.88 87.66 69.90 C 86.59 67.24 85.76 64.31 83.96 62.06 C 80.11 60.21 75.81 58.40 73.72 54.38 C 71.86 51.70 72.94 48.36 72.67 45.35 L 72.37 45.35 C 69.83 50.31 72.26 56.01 71.01 61.25 C 67.86 55.11 68.25 47.84 71.32 41.76 C 71.10 40.40 70.90 39.04 70.71 37.68 C 67.19 40.94 62.05 41.37 58.41 44.42 M 98.63 74.91 C 97.08 78.76 96.53 83.55 98.76 87.24 C 100.59 90.56 102.14 94.30 105.41 96.49 C 108.74 98.20 112.59 97.22 115.12 94.59 C 117.51 87.02 114.13 78.51 108.02 73.73 C 105.26 71.72 100.33 71.37 98.63 74.91 M 87.21 83.79 C 89.63 86.58 92.62 89.25 93.37 93.05 C 93.56 95.92 93.36 98.80 93.24 101.68 C 95.08 99.61 97.60 98.45 100.09 97.38 C 98.07 94.54 96.61 91.31 94.22 88.75 C 92.23 86.59 90.57 83.80 87.21 83.79 M 59.25 88.06 C 56.59 88.33 53.01 88.23 52.11 91.44 C 54.90 90.78 57.64 89.95 60.40 89.20 C 60.57 88.64 60.90 87.51 61.07 86.95 C 60.61 87.23 59.70 87.78 59.25 88.06 M 46.05 100.25 C 48.07 104.84 51.35 108.68 54.43 112.57 C 57.79 117.54 61.10 122.56 64.20 127.70 C 64.56 127.74 65.29 127.84 65.66 127.89 C 65.43 129.93 66.95 131.48 67.96 133.08 C 70.31 136.28 72.88 139.33 74.99 142.71 C 77.68 142.61 80.53 142.58 82.88 141.07 C 86.79 138.50 91.11 136.65 94.99 134.04 C 100.55 130.49 107.17 128.23 111.58 123.14 C 111.65 120.12 110.07 116.98 107.86 114.98 C 103.68 116.68 100.94 120.51 97.35 123.08 C 87.99 121.42 79.21 116.06 73.97 108.06 C 69.11 103.13 66.57 96.59 62.63 91.00 C 56.41 91.84 47.69 92.85 46.05 100.25 M 41.69 100.85 C 40.86 102.45 39.60 103.74 38.33 104.99 C 38.37 111.97 37.14 118.92 37.56 125.89 C 40.21 128.62 41.68 132.23 44.36 134.94 C 44.77 138.82 44.31 143.05 46.69 146.42 C 48.18 143.79 49.52 140.53 52.78 139.74 C 56.76 138.09 61.07 138.75 65.14 139.63 C 65.44 139.86 66.06 140.34 66.37 140.58 C 66.72 129.68 57.02 122.79 52.24 113.99 C 50.30 115.37 48.18 116.50 45.78 116.80 C 45.35 117.29 44.48 118.27 44.05 118.76 C 45.53 115.84 48.63 114.43 51.13 112.55 C 49.24 109.56 46.17 107.69 43.50 105.49 C 44.28 105.62 45.86 105.87 46.65 106.00 C 45.62 104.49 44.80 102.87 44.18 101.15 C 43.35 101.04 42.52 100.94 41.69 100.85 M 27.15 127.89 C 27.23 128.68 27.32 129.48 27.40 130.27 C 26.28 132.72 26.16 135.95 27.75 138.21 C 32.14 142.12 39.25 141.27 43.08 145.89 C 42.52 142.55 42.29 139.18 41.94 135.82 C 40.60 134.85 39.85 133.38 39.11 131.95 C 37.95 129.58 35.85 127.77 35.17 125.16 C 32.42 125.83 29.75 126.76 27.15 127.89 M 106.45 129.65 C 101.89 132.36 97.23 134.88 92.80 137.79 C 89.58 139.81 85.83 140.82 82.71 143.02 C 82.83 143.23 83.07 143.63 83.19 143.83 C 87.23 143.43 90.94 145.57 94.97 145.21 C 97.90 145.15 100.95 145.24 103.68 146.46 C 106.30 147.49 108.04 149.88 110.50 151.18 C 112.49 152.06 114.63 152.48 116.73 153.00 C 116.77 155.21 114.92 155.37 113.16 155.51 C 114.12 161.95 113.22 168.61 115.06 174.93 C 116.29 177.63 118.18 180.11 118.50 183.15 C 118.88 187.02 118.96 190.95 118.55 194.83 C 117.49 199.11 116.60 203.50 116.75 207.93 C 118.33 211.60 123.00 209.53 126.02 209.69 C 129.48 209.09 132.39 211.18 135.49 212.24 C 137.78 212.43 140.09 212.59 142.30 213.30 C 144.55 212.41 146.66 211.22 148.74 210.00 C 146.90 206.12 141.96 207.56 139.17 204.87 C 135.01 201.39 132.09 196.64 127.72 193.34 C 126.80 188.60 125.47 183.83 126.10 178.96 C 126.69 173.60 125.53 168.34 124.69 163.09 C 125.01 157.42 125.45 151.74 126.51 146.13 C 124.31 143.05 124.19 138.18 120.10 136.77 C 116.97 135.50 114.16 133.64 111.66 131.39 C 110.18 130.34 108.34 128.16 106.45 129.65 M 52.55 142.48 C 50.42 144.24 48.94 146.67 47.55 149.04 C 47.79 150.88 49.34 152.21 50.24 153.77 C 54.21 158.87 55.19 165.71 54.26 171.96 C 54.49 177.37 56.68 182.44 57.90 187.67 C 57.42 187.59 56.47 187.43 55.99 187.35 C 55.25 184.78 54.24 182.30 52.97 179.95 C 51.77 183.27 50.57 186.60 49.86 190.07 C 48.00 197.86 52.15 205.30 53.08 212.94 C 54.05 216.65 52.83 220.34 52.29 224.00 C 53.52 230.04 57.00 235.41 57.66 241.57 C 60.28 246.08 67.75 247.39 71.13 242.99 C 67.53 240.64 61.91 244.62 59.20 240.80 C 62.02 239.67 65.20 240.68 68.11 239.71 C 70.62 239.00 71.48 242.20 73.08 243.44 C 73.85 243.14 75.38 242.54 76.14 242.24 C 71.04 235.76 65.78 229.26 62.61 221.56 C 60.46 213.81 60.15 205.08 63.75 197.70 C 65.44 193.71 64.89 189.22 64.70 185.01 C 61.93 189.06 62.36 194.15 61.45 198.76 C 60.96 198.73 59.99 198.68 59.50 198.65 C 59.64 195.75 59.51 192.78 60.40 189.98 C 61.58 185.36 65.15 181.73 65.92 176.96 C 66.51 173.06 69.79 169.61 68.48 165.52 C 69.69 161.64 67.05 158.61 65.97 155.13 C 68.10 156.50 69.81 158.37 71.47 160.25 C 71.64 153.69 68.98 147.31 64.74 142.40 C 60.85 141.31 56.37 140.96 52.55 142.48 Z" />
<path fill="#333333" opacity="1.00" d=" M 54.42 57.94 C 53.76 56.69 51.99 52.58 55.17 53.66 C 56.35 55.03 57.24 56.61 58.26 58.11 C 57.88 59.79 57.50 61.48 57.11 63.16 C 56.54 62.10 55.98 61.03 55.43 59.96 C 53.40 61.16 51.38 62.37 49.45 63.71 C 48.79 60.72 52.65 59.59 54.42 57.94 Z" />
<path fill="#333333" opacity="1.00" d=" M 55.46 67.26 C 57.04 67.94 58.60 68.67 60.16 69.40 C 62.87 67.84 66.08 66.96 69.12 68.11 C 70.58 68.21 70.83 69.61 71.20 70.73 C 67.20 69.75 63.71 71.81 59.88 72.38 C 58.68 70.99 57.24 69.87 55.67 68.93 C 55.61 68.51 55.51 67.68 55.46 67.26 Z" />
<path fill="#333333" opacity="1.00" d=" M 65.04 84.67 C 65.24 84.13 65.63 83.06 65.83 82.53 C 68.43 83.57 70.99 84.84 72.96 86.88 C 70.27 86.36 67.65 85.53 65.04 84.67 Z" />
<path fill="#333333" opacity="1.00" d=" M 72.51 102.22 C 74.29 100.39 74.29 97.00 76.92 96.14 C 79.75 99.80 83.38 104.34 82.16 109.24 C 80.32 106.05 79.71 102.21 77.06 99.50 C 75.98 101.07 74.71 102.75 72.51 102.22 Z" />
<path fill="#333333" opacity="1.00" d=" M 114.20 137.05 C 117.10 138.53 118.71 141.78 118.81 144.95 C 118.27 147.48 115.56 149.42 112.96 148.82 C 109.06 148.83 106.31 145.57 104.66 142.40 C 108.17 143.29 110.13 147.75 114.10 147.79 C 115.00 146.64 116.89 145.70 116.62 144.02 C 115.82 141.69 114.66 139.48 114.20 137.05 Z" />
<path fill="#333333" opacity="1.00" d=" M 58.04 160.30 C 59.93 158.17 61.94 155.81 64.87 155.21 C 63.60 157.14 62.08 158.88 60.49 160.55 C 59.88 160.49 58.65 160.36 58.04 160.30 Z" />
<path fill="#333333" opacity="1.00" d=" M 61.58 174.49 C 61.59 173.53 61.61 172.56 61.64 171.60 C 63.03 171.91 64.43 172.24 65.82 172.58 C 64.98 174.29 63.35 174.63 61.58 174.49 Z" />
<path fill="#333333" opacity="1.00" d=" M 119.64 196.57 C 120.04 196.53 120.83 196.44 121.22 196.40 C 120.97 198.96 121.55 201.44 122.52 203.80 C 118.96 203.27 119.53 199.21 119.64 196.57 Z" />
<path fill="#333333" opacity="1.00" d=" M 58.34 218.41 C 58.89 218.40 59.98 218.38 60.52 218.37 C 59.09 221.10 58.04 224.25 55.39 226.08 C 54.82 223.21 56.87 220.67 58.34 218.41 Z" />
</g>
</svg>
