<?xml version="1.0" encoding="UTF-8" ?>
<!DOCTYPE svg PUBLIC "-//W3C//DTD SVG 1.1//EN" "http://www.w3.org/Graphics/SVG/1.1/DTD/svg11.dtd">
<svg width="225pt" height="222pt" viewBox="0 0 225 222" version="1.1" xmlns="http://www.w3.org/2000/svg">
<g id="#ffffffff">
<path fill="#FFFFFF" opacity="1.00" d=" M 0.00 0.00 L 225.00 0.00 L 225.00 222.00 L 0.00 222.00 L 0.00 0.00 M 145.14 21.94 C 141.72 23.72 138.93 27.98 140.19 31.85 C 140.76 31.07 141.32 30.29 141.89 29.51 C 143.81 31.16 146.17 32.41 147.60 34.55 C 148.16 38.65 148.29 42.85 148.12 46.99 C 149.83 53.68 152.93 59.99 153.55 66.93 C 150.77 68.07 147.95 69.42 146.35 72.10 C 145.30 74.05 143.33 75.00 141.39 75.83 C 142.89 70.95 140.95 65.95 141.77 61.02 C 142.17 57.99 142.52 54.96 143.00 51.95 C 142.70 51.08 142.40 50.21 142.11 49.35 C 144.52 42.99 142.35 35.80 138.80 30.32 C 137.46 27.86 134.62 27.49 132.13 27.11 C 130.17 26.90 128.20 27.04 126.24 27.19 C 123.97 30.01 122.52 33.41 122.49 37.08 C 122.68 43.38 126.26 48.88 130.29 53.47 C 133.26 54.08 136.27 53.96 138.68 51.94 C 138.91 51.26 139.35 49.90 139.57 49.22 C 141.69 41.28 138.35 32.73 132.37 27.34 C 140.41 31.12 143.60 42.13 139.84 49.96 C 140.13 50.47 140.42 50.98 140.72 51.49 C 140.44 54.26 140.29 57.04 139.71 59.76 C 138.57 64.95 139.75 70.24 140.75 75.34 C 136.13 76.03 131.44 76.32 126.83 77.02 C 121.76 77.94 118.78 82.79 113.93 84.22 C 110.70 85.05 109.11 88.25 107.91 91.07 C 110.07 89.56 111.58 87.31 113.75 85.81 C 116.00 84.65 118.58 84.19 120.71 82.76 C 123.19 81.41 125.27 79.31 128.06 78.58 C 133.90 76.92 140.07 77.12 146.01 76.02 C 148.37 73.50 149.38 69.38 153.53 69.33 C 154.95 67.83 156.44 66.38 158.23 65.32 C 157.64 67.27 156.72 69.09 155.79 70.90 C 156.27 71.20 157.24 71.82 157.73 72.12 C 157.94 75.56 159.50 79.24 157.93 82.54 C 153.83 83.88 149.88 81.09 145.76 81.93 C 142.50 85.17 137.93 86.28 133.83 88.02 C 130.12 89.60 125.93 88.96 122.27 87.58 C 123.33 88.92 124.55 90.20 125.17 91.83 C 121.52 92.18 117.74 91.03 114.20 92.31 C 111.96 93.15 109.59 93.51 107.21 93.62 C 107.65 94.11 108.54 95.09 108.99 95.58 C 105.32 97.90 101.50 99.97 97.84 102.29 C 94.64 103.03 91.37 103.73 88.72 105.80 C 85.48 105.43 82.26 104.70 78.99 104.95 C 75.95 105.38 73.16 107.02 70.03 106.94 C 67.02 107.10 64.07 106.31 61.06 106.24 C 58.99 106.78 57.12 108.03 54.96 108.26 C 48.35 108.89 41.88 111.01 36.07 114.22 C 33.11 116.21 30.16 118.22 27.12 120.09 C 22.82 125.24 25.48 132.06 25.27 138.05 C 26.25 143.99 25.57 150.10 27.04 155.97 C 28.19 161.49 30.35 167.21 28.95 172.88 C 27.56 178.23 22.13 180.66 19.14 184.95 C 16.98 188.34 12.59 189.04 10.15 192.11 C 9.58 193.65 9.25 195.26 8.81 196.84 C 10.44 198.04 12.13 199.96 14.38 199.23 C 17.95 198.22 21.80 198.45 25.27 197.24 C 29.11 194.29 33.14 191.44 38.15 191.03 C 35.55 194.07 33.19 197.99 29.01 198.99 C 25.99 199.79 23.52 201.75 20.83 203.22 C 20.22 204.37 19.63 205.54 19.04 206.71 C 22.64 208.80 25.89 211.77 30.16 212.40 C 33.18 213.34 35.97 211.38 38.85 210.77 C 43.63 209.56 47.60 206.22 52.50 205.41 C 55.42 204.90 58.34 204.35 61.26 203.86 C 65.99 199.73 64.28 192.96 61.77 188.11 C 58.99 183.21 58.74 177.52 58.14 172.05 C 57.80 167.34 59.01 162.61 58.08 157.91 C 57.52 152.26 54.13 147.03 55.27 141.22 C 56.39 141.69 57.62 142.50 58.86 141.68 C 62.19 140.62 65.70 141.26 69.12 140.91 C 72.10 140.64 74.96 139.65 77.79 138.72 C 77.69 139.16 77.51 140.05 77.42 140.49 C 78.08 140.14 78.75 139.78 79.42 139.43 C 81.15 130.58 77.02 121.41 70.23 115.76 C 68.24 113.90 65.56 115.70 63.44 116.24 C 62.84 113.94 63.15 111.52 63.21 109.18 C 62.80 108.88 62.00 108.28 61.60 107.98 C 65.91 108.41 70.39 108.09 74.55 109.50 C 72.97 110.85 71.98 112.66 71.13 114.52 C 74.07 114.67 77.02 114.77 79.97 114.63 C 80.02 114.99 80.11 115.70 80.15 116.06 C 84.40 115.35 89.15 118.41 88.54 123.08 C 89.06 121.79 89.61 120.52 90.19 119.27 C 89.47 117.93 89.00 116.28 87.61 115.46 C 85.31 114.10 82.37 114.53 80.16 112.99 C 77.90 112.99 75.64 113.01 73.38 112.98 C 74.92 111.90 76.50 110.88 78.04 109.81 C 76.70 109.28 75.37 108.74 74.09 108.08 C 82.95 105.22 92.72 107.81 100.56 112.35 C 103.71 115.39 105.80 119.70 106.10 124.05 C 104.47 129.26 100.15 134.91 94.13 134.71 C 88.71 134.73 83.10 135.85 78.69 139.19 C 83.33 137.69 88.13 136.91 92.99 137.03 C 97.51 137.07 101.49 134.68 104.69 131.69 C 104.78 131.16 104.96 130.10 105.04 129.57 C 106.80 129.22 108.50 128.62 109.71 127.23 C 113.56 125.70 117.87 124.54 121.91 126.06 C 129.50 128.52 137.52 126.33 144.77 123.77 C 147.96 122.26 151.86 123.38 154.64 120.88 C 155.10 120.01 155.57 119.14 156.05 118.27 C 160.33 119.78 165.42 117.15 166.90 112.91 C 169.08 108.21 167.65 102.93 166.82 98.08 C 165.59 93.67 160.55 92.19 156.45 92.43 C 156.21 90.63 155.96 88.82 155.72 87.02 C 157.26 85.52 158.90 84.11 160.24 82.43 C 161.88 78.39 160.46 73.88 158.48 70.23 C 159.75 67.91 160.04 65.29 158.23 63.14 C 157.00 64.11 155.79 65.09 154.59 66.10 C 154.93 59.42 151.54 53.37 150.76 46.85 C 149.56 41.73 150.56 36.25 148.33 31.35 C 145.93 30.47 143.60 29.41 141.21 28.49 C 142.33 26.26 143.77 24.22 145.49 22.41 C 149.96 24.68 153.80 28.40 154.98 33.42 C 157.01 38.44 155.46 43.77 152.35 47.92 C 154.41 47.20 156.54 46.55 158.37 45.32 C 160.13 42.93 160.60 39.79 160.27 36.88 C 159.87 31.03 157.30 24.96 152.20 21.72 C 150.12 20.05 147.48 21.84 145.14 21.94 M 79.36 110.11 C 83.42 112.43 87.91 113.90 92.27 115.56 C 89.86 110.94 83.87 110.88 79.36 110.11 M 136.48 130.61 C 120.02 135.11 103.51 139.42 87.14 144.23 C 81.65 145.86 76.00 147.08 70.80 149.54 C 68.68 150.34 66.41 151.46 64.09 150.97 C 61.19 149.88 58.69 147.89 55.65 147.15 C 57.81 150.28 61.39 152.02 64.92 153.08 C 69.37 153.92 72.47 150.09 76.30 148.70 C 76.57 161.48 76.36 174.26 76.48 187.05 C 79.81 189.48 83.22 191.80 86.66 194.09 C 100.75 183.55 115.23 173.54 129.70 163.52 C 130.71 162.97 131.66 161.95 132.93 162.16 C 138.16 163.57 142.56 167.37 147.90 168.34 C 151.09 167.09 153.71 164.76 156.58 162.94 C 156.10 160.29 157.18 156.05 153.95 154.93 C 149.68 153.10 145.28 151.62 140.97 149.88 C 140.33 143.88 140.41 137.84 140.16 131.82 C 144.52 131.89 148.66 130.40 152.86 129.48 C 156.56 128.56 160.77 127.38 162.67 123.72 C 154.49 127.82 145.19 128.21 136.48 130.61 Z" />
<path fill="#FFFFFF" opacity="1.00" d=" M 148.42 21.56 C 157.18 25.14 161.67 37.09 156.68 45.30 C 159.06 36.56 155.82 26.86 148.42 21.56 Z" />
<path fill="#FFFFFF" opacity="1.00" d=" M 128.11 28.04 C 135.65 30.05 139.15 38.88 138.42 46.05 C 138.43 49.09 135.79 53.08 132.36 51.68 C 127.27 49.51 124.57 43.80 124.15 38.52 C 123.47 34.75 124.00 29.62 128.11 28.04 Z" />
<path fill="#FFFFFF" opacity="1.00" d=" M 146.24 84.34 C 149.27 83.72 152.40 84.30 155.47 84.26 C 154.75 88.47 154.58 92.73 154.11 96.97 C 153.46 100.50 156.19 103.48 156.34 106.95 C 156.37 111.05 156.03 115.41 153.97 119.05 C 151.50 122.21 146.95 119.93 143.78 121.80 C 136.09 125.41 126.69 126.57 119.08 122.14 C 122.41 121.40 126.76 122.21 129.28 119.36 C 131.11 117.50 133.35 116.12 135.20 114.28 C 136.61 113.77 138.02 113.28 139.44 112.79 C 137.64 112.46 135.85 112.08 134.06 111.74 C 133.62 110.82 133.19 109.90 132.76 108.99 C 133.54 108.67 135.10 108.02 135.88 107.70 C 133.13 106.22 131.50 109.60 129.29 110.56 C 127.56 109.13 125.32 108.81 123.25 108.19 C 123.47 108.63 123.91 109.49 124.14 109.93 C 125.31 110.23 126.48 110.54 127.66 110.83 C 127.58 112.95 128.34 114.91 129.55 116.62 C 128.64 117.34 127.72 118.06 126.81 118.79 C 123.78 119.24 120.85 120.13 117.99 121.20 C 118.09 121.83 118.29 123.08 118.39 123.71 C 114.65 123.92 110.96 124.83 107.60 126.51 C 109.10 122.23 107.11 117.93 104.91 114.30 C 107.63 114.80 110.39 115.23 113.16 114.95 C 110.35 113.49 107.19 113.01 104.10 112.60 C 104.33 113.16 104.80 114.28 105.04 114.83 C 102.16 109.78 96.09 108.77 91.56 105.82 C 93.12 105.12 94.68 104.42 96.27 103.77 L 94.55 105.01 C 95.01 105.45 95.47 105.88 95.93 106.31 C 97.42 105.46 98.97 104.73 100.54 104.04 C 100.57 103.64 100.64 102.83 100.67 102.43 C 103.64 100.18 106.53 97.77 109.90 96.11 C 109.81 95.87 109.63 95.38 109.54 95.14 C 112.78 94.72 115.82 92.53 119.16 93.38 C 126.04 94.93 133.20 95.16 139.60 98.43 C 139.54 99.30 139.40 101.05 139.33 101.92 C 138.13 101.56 136.94 101.64 135.75 101.86 C 134.72 101.07 133.70 100.29 132.67 99.50 C 134.16 101.50 134.70 103.90 135.23 106.29 L 136.18 106.46 C 136.22 105.38 136.30 103.22 136.34 102.15 C 140.09 102.75 140.26 106.59 141.60 109.40 C 142.82 102.67 140.63 96.00 138.99 89.54 C 138.47 91.78 137.90 94.02 137.43 96.27 C 136.25 95.60 135.07 94.91 133.90 94.23 C 134.58 92.78 135.11 91.25 136.01 89.93 C 137.35 88.93 139.11 88.75 140.67 88.28 C 140.93 87.94 141.43 87.26 141.68 86.92 C 141.25 88.83 141.12 90.80 141.67 92.72 C 143.14 89.91 142.65 85.48 146.24 84.34 M 149.71 90.75 C 149.10 90.68 147.89 90.52 147.28 90.45 C 147.92 92.81 150.12 93.60 152.27 94.07 C 152.28 91.64 152.24 89.20 152.14 86.77 C 151.28 88.07 150.47 89.40 149.71 90.75 M 117.43 95.85 C 118.30 97.63 119.88 98.82 121.23 100.21 C 121.33 102.10 120.23 103.82 119.74 105.61 C 118.03 106.96 116.60 108.61 115.76 110.65 C 119.55 108.97 123.08 105.84 123.40 101.48 C 123.11 98.34 119.98 96.89 117.43 95.85 M 107.26 103.72 C 105.39 103.01 103.48 102.39 101.51 102.02 C 104.16 105.88 108.73 103.44 112.03 101.97 C 112.47 100.33 112.91 98.69 113.32 97.04 C 111.44 99.39 109.76 101.97 107.26 103.72 M 124.98 98.50 C 126.13 101.42 129.13 101.80 131.89 102.13 C 131.27 101.49 130.64 100.86 130.01 100.23 C 128.32 99.70 126.66 99.08 124.98 98.50 M 125.51 104.10 C 126.62 106.43 128.53 108.43 131.33 107.69 C 129.45 106.41 127.52 105.18 125.51 104.10 M 106.99 104.79 C 109.20 106.20 111.39 107.66 113.79 108.72 C 113.13 107.49 112.43 106.27 111.73 105.05 C 110.15 104.96 108.57 104.87 106.99 104.79 M 107.65 111.25 C 110.44 112.46 113.34 113.51 116.39 113.83 C 114.20 111.29 110.76 111.09 107.65 111.25 M 120.54 110.40 C 121.68 112.95 123.92 114.61 126.82 114.21 C 124.95 112.60 122.79 111.37 120.54 110.40 M 117.36 113.35 C 116.67 114.84 118.57 117.21 120.19 116.60 C 120.85 115.18 118.84 112.94 117.36 113.35 Z" />
<path fill="#FFFFFF" opacity="1.00" d=" M 126.38 93.35 C 127.67 90.33 131.34 90.95 133.94 90.20 C 133.57 90.98 132.81 92.55 132.44 93.33 C 130.42 93.51 128.40 93.39 126.38 93.35 Z" />
<path fill="#FFFFFF" opacity="1.00" d=" M 156.40 94.16 C 160.63 94.17 165.14 96.45 165.75 101.03 C 165.86 105.58 167.20 111.02 163.70 114.68 C 162.07 116.73 159.24 116.83 156.89 117.31 C 158.43 112.10 159.30 106.24 156.99 101.13 C 155.96 98.95 156.39 96.49 156.40 94.16 Z" />
<path fill="#FFFFFF" opacity="1.00" d=" M 32.09 119.04 C 40.08 113.34 49.67 109.51 59.62 109.96 C 61.20 112.02 61.24 114.63 61.22 117.12 C 57.64 117.88 54.27 119.38 50.98 120.95 C 47.66 122.46 45.41 125.48 42.27 127.26 C 37.73 129.52 35.64 135.35 37.16 140.09 C 38.75 144.97 38.11 150.26 39.97 155.08 C 41.49 159.63 41.42 164.52 42.72 169.13 C 43.61 173.62 45.72 178.30 44.08 182.87 C 43.47 185.37 41.53 187.20 39.98 189.16 C 36.42 189.58 32.58 189.53 29.49 191.59 C 26.64 193.12 24.46 196.16 20.97 196.16 C 17.20 196.45 13.56 198.56 9.76 197.07 C 11.46 195.74 13.28 194.59 15.00 193.29 C 13.78 193.46 11.35 193.81 10.13 193.98 C 11.84 192.29 13.66 190.68 15.95 189.85 C 19.00 188.81 20.39 185.69 22.52 183.52 C 24.98 180.69 29.10 179.09 30.02 175.11 C 32.41 167.00 29.31 158.67 27.31 150.82 C 25.99 142.96 28.37 134.84 26.21 127.10 C 26.04 123.31 28.73 120.37 32.09 119.04 M 42.22 124.28 C 39.01 124.13 36.19 122.93 34.47 120.13 C 33.19 124.39 39.17 126.84 42.22 124.28 M 29.76 126.55 C 29.95 128.87 30.47 131.15 30.80 133.45 C 30.90 134.97 31.02 136.49 31.15 138.00 C 32.00 135.97 32.74 133.89 33.56 131.84 C 33.29 131.89 32.74 132.01 32.47 132.07 C 33.00 130.27 32.48 125.51 29.76 126.55 M 40.46 175.18 C 41.64 179.95 37.92 183.64 35.86 187.51 C 39.88 185.46 42.69 180.88 42.11 176.34 C 41.70 176.05 40.88 175.47 40.46 175.18 M 25.97 187.95 C 28.62 186.06 30.96 183.76 32.92 181.17 C 29.83 182.49 27.47 184.98 25.97 187.95 Z" />
<path fill="#FFFFFF" opacity="1.00" d=" M 129.96 114.06 C 128.46 112.76 130.48 111.45 130.96 110.25 C 132.05 111.85 133.36 113.29 134.67 114.71 C 133.09 114.58 131.48 114.54 129.96 114.06 Z" />
<path fill="#FFFFFF" opacity="1.00" d=" M 52.11 122.11 C 57.78 119.82 63.34 116.46 69.68 116.91 C 74.77 122.13 79.07 129.24 77.99 136.81 C 72.72 139.20 66.83 140.54 61.05 139.51 C 58.06 138.76 55.18 139.78 52.47 140.94 C 53.70 148.69 57.68 156.00 56.93 164.02 C 56.22 170.41 57.29 176.78 58.24 183.08 C 59.63 187.44 61.74 191.58 62.66 196.09 C 63.00 198.07 62.86 200.77 60.71 201.69 C 55.38 203.61 49.41 203.50 44.41 206.39 C 40.56 208.66 36.21 209.78 31.88 210.73 C 28.80 210.47 25.65 209.63 23.87 206.89 C 23.02 206.85 21.33 206.76 20.49 206.71 C 23.48 200.59 31.90 201.85 35.78 196.75 C 38.19 194.17 39.80 190.91 42.49 188.57 C 44.22 186.96 46.51 185.41 46.56 182.79 C 46.17 174.33 43.08 166.26 42.59 157.80 C 42.44 154.04 39.91 150.82 40.16 147.01 C 40.42 143.09 38.90 139.41 38.10 135.64 C 39.50 133.24 40.18 130.10 42.88 128.77 C 46.27 126.96 48.50 123.54 52.11 122.11 M 57.57 130.28 C 62.86 129.15 66.74 125.04 71.15 122.18 C 65.89 123.36 61.19 126.33 57.57 130.28 M 47.46 129.42 C 48.36 131.05 49.87 132.05 51.68 132.41 C 52.01 132.02 52.67 131.25 53.00 130.86 C 51.15 130.40 49.32 129.86 47.46 129.42 M 42.52 141.62 C 44.48 139.96 45.31 137.66 45.26 135.12 C 45.88 134.09 46.49 133.05 47.07 131.99 C 42.62 133.06 43.24 138.08 42.52 141.62 M 45.27 150.21 C 45.74 150.84 45.74 150.84 45.27 150.21 M 49.81 157.18 C 50.85 162.39 51.28 167.87 53.88 172.61 C 53.38 164.99 50.52 157.72 50.22 150.04 C 49.72 152.38 49.25 154.81 49.81 157.18 M 46.60 152.20 C 46.15 158.65 47.24 165.12 49.23 171.25 C 48.82 166.50 47.96 161.79 47.82 157.02 C 47.85 155.32 47.33 153.71 46.60 152.20 M 54.53 194.21 C 53.38 195.08 52.27 195.99 51.23 196.98 C 53.80 196.47 58.05 195.05 56.50 191.62 C 55.83 192.47 55.18 193.34 54.53 194.21 M 41.46 201.42 C 43.71 199.33 45.55 196.80 46.74 193.95 C 44.25 195.82 42.21 198.35 41.46 201.42 M 26.36 203.99 C 28.91 205.50 31.64 206.89 34.68 206.88 C 32.74 204.29 29.47 203.21 26.36 203.99 Z" />
<path fill="#FFFFFF" opacity="1.00" d=" M 130.91 133.95 C 133.18 133.38 135.45 132.81 137.71 132.22 C 137.80 138.45 138.37 144.66 138.45 150.90 C 143.51 153.14 148.82 154.80 153.94 156.92 C 154.21 158.58 154.48 160.24 154.74 161.90 C 152.26 163.56 149.75 165.20 147.01 166.41 C 141.85 163.51 136.12 161.90 130.81 159.34 C 116.90 169.63 102.59 179.37 88.69 189.66 C 87.65 190.26 86.52 190.71 85.42 191.19 C 82.93 188.60 77.50 187.38 78.19 183.00 C 78.31 171.47 78.16 159.94 78.31 148.41 C 80.86 147.60 83.42 146.84 86.00 146.12 C 86.40 158.04 85.95 169.97 85.77 181.89 C 93.54 177.51 100.46 171.77 107.96 166.92 C 112.96 163.08 119.24 160.45 122.61 154.85 C 119.23 152.60 113.25 152.28 112.79 147.37 C 115.08 146.09 117.37 144.81 119.70 143.59 C 123.23 144.98 126.84 146.23 130.62 146.74 C 130.82 142.48 130.80 138.21 130.91 133.95 Z" />
<path fill="#FFFFFF" opacity="1.00" d=" M 106.02 140.58 C 113.61 138.35 121.33 136.57 128.92 134.34 C 128.95 137.87 128.97 141.39 129.00 144.92 C 126.01 143.79 123.07 142.46 119.95 141.70 C 117.14 142.15 114.76 143.99 112.37 145.44 C 109.77 146.68 111.62 149.67 111.83 151.74 C 114.73 153.18 117.65 154.55 120.57 155.96 C 109.72 163.12 99.21 170.77 88.49 178.12 C 88.49 167.40 88.21 156.68 87.69 146.00 C 93.48 143.27 99.92 142.39 106.02 140.58 Z" />
</g>
<g id="#525450ff">
<path fill="#333333" opacity="1.00" d=" M 145.14 21.94 C 147.48 21.84 150.12 20.05 152.20 21.72 C 157.30 24.96 159.87 31.03 160.27 36.88 C 160.60 39.79 160.13 42.93 158.37 45.32 C 156.54 46.55 154.41 47.20 152.35 47.92 C 155.46 43.77 157.01 38.44 154.98 33.42 C 153.80 28.40 149.96 24.68 145.49 22.41 C 143.77 24.22 142.33 26.26 141.21 28.49 C 143.60 29.41 145.93 30.47 148.33 31.35 C 150.56 36.25 149.56 41.73 150.76 46.85 C 151.54 53.37 154.93 59.42 154.59 66.10 C 155.79 65.09 157.00 64.11 158.23 63.14 C 160.04 65.29 159.75 67.91 158.48 70.23 C 160.46 73.88 161.88 78.39 160.24 82.43 C 158.90 84.11 157.26 85.52 155.72 87.02 C 155.96 88.82 156.21 90.63 156.45 92.43 C 160.55 92.19 165.59 93.67 166.82 98.08 C 167.65 102.93 169.08 108.21 166.90 112.91 C 165.42 117.15 160.33 119.78 156.05 118.27 C 155.57 119.14 155.10 120.01 154.64 120.88 C 151.86 123.38 147.96 122.26 144.77 123.77 C 137.52 126.33 129.50 128.52 121.91 126.06 C 117.87 124.54 113.56 125.70 109.71 127.23 C 108.50 128.62 106.80 129.22 105.04 129.57 C 104.96 130.10 104.78 131.16 104.69 131.69 C 101.49 134.68 97.51 137.07 92.99 137.03 C 88.13 136.91 83.33 137.69 78.69 139.19 C 83.10 135.85 88.71 134.73 94.13 134.71 C 100.15 134.91 104.47 129.26 106.10 124.05 C 105.80 119.70 103.71 115.39 100.56 112.35 C 92.72 107.81 82.95 105.22 74.09 108.08 C 75.37 108.74 76.70 109.28 78.04 109.81 C 76.50 110.88 74.92 111.90 73.38 112.98 C 75.64 113.01 77.90 112.99 80.16 112.99 C 82.37 114.53 85.31 114.10 87.61 115.46 C 89.00 116.28 89.47 117.93 90.19 119.27 C 89.61 120.52 89.06 121.79 88.54 123.08 C 89.15 118.41 84.40 115.35 80.15 116.06 C 80.11 115.70 80.02 114.99 79.97 114.63 C 77.02 114.77 74.07 114.67 71.13 114.52 C 71.98 112.66 72.97 110.85 74.55 109.50 C 70.39 108.09 65.91 108.41 61.60 107.98 C 62.00 108.28 62.80 108.88 63.21 109.18 C 63.15 111.52 62.84 113.94 63.44 116.24 C 65.56 115.70 68.24 113.90 70.23 115.76 C 77.02 121.41 81.15 130.58 79.42 139.43 C 78.75 139.78 78.08 140.14 77.42 140.49 C 77.51 140.05 77.69 139.16 77.79 138.72 C 74.96 139.65 72.10 140.64 69.12 140.91 C 65.70 141.26 62.19 140.62 58.86 141.68 C 57.62 142.50 56.39 141.69 55.27 141.22 C 54.13 147.03 57.52 152.26 58.08 157.91 C 59.01 162.61 57.80 167.34 58.14 172.05 C 58.74 177.52 58.99 183.21 61.77 188.11 C 64.28 192.96 65.99 199.73 61.26 203.86 C 58.34 204.35 55.42 204.90 52.50 205.41 C 47.60 206.22 43.63 209.56 38.85 210.77 C 35.97 211.38 33.18 213.34 30.16 212.40 C 25.89 211.77 22.64 208.80 19.04 206.71 C 19.63 205.54 20.22 204.37 20.83 203.22 C 23.52 201.75 25.99 199.79 29.01 198.99 C 33.19 197.99 35.55 194.07 38.15 191.03 C 33.14 191.44 29.11 194.29 25.27 197.24 C 21.80 198.45 17.95 198.22 14.38 199.23 C 12.13 199.96 10.44 198.04 8.81 196.84 C 9.25 195.26 9.58 193.65 10.15 192.11 C 12.59 189.04 16.98 188.34 19.14 184.95 C 22.13 180.66 27.56 178.23 28.95 172.88 C 30.35 167.21 28.19 161.49 27.04 155.97 C 25.57 150.10 26.25 143.99 25.27 138.05 C 25.48 132.06 22.82 125.24 27.12 120.09 C 30.16 118.22 33.11 116.21 36.07 114.22 C 41.88 111.01 48.35 108.89 54.96 108.26 C 57.12 108.03 58.99 106.78 61.06 106.24 C 64.07 106.31 67.02 107.10 70.03 106.94 C 73.16 107.02 75.95 105.38 78.99 104.95 C 82.26 104.70 85.48 105.43 88.72 105.80 C 91.37 103.73 94.64 103.03 97.84 102.29 C 101.50 99.97 105.32 97.90 108.99 95.58 C 108.54 95.09 107.65 94.11 107.21 93.62 C 109.59 93.51 111.96 93.15 114.20 92.31 C 117.74 91.03 121.52 92.18 125.17 91.83 C 124.55 90.20 123.33 88.92 122.27 87.58 C 125.93 88.96 130.12 89.60 133.83 88.02 C 137.93 86.28 142.50 85.17 145.76 81.93 C 149.88 81.09 153.83 83.88 157.93 82.54 C 159.50 79.24 157.94 75.56 157.73 72.12 C 157.24 71.82 156.27 71.20 155.79 70.90 C 156.72 69.09 157.64 67.27 158.23 65.32 C 156.44 66.38 154.95 67.83 153.53 69.33 C 149.38 69.38 148.37 73.50 146.01 76.02 C 140.07 77.12 133.90 76.92 128.06 78.58 C 125.27 79.31 123.19 81.41 120.71 82.76 C 118.58 84.19 116.00 84.65 113.75 85.81 C 111.58 87.31 110.07 89.56 107.91 91.07 C 109.11 88.25 110.70 85.05 113.93 84.22 C 118.78 82.79 121.76 77.94 126.83 77.02 C 131.44 76.32 136.13 76.03 140.75 75.34 C 139.75 70.24 138.57 64.95 139.71 59.76 C 140.29 57.04 140.44 54.26 140.72 51.49 C 140.42 50.98 140.13 50.47 139.84 49.96 C 143.60 42.13 140.41 31.12 132.37 27.34 C 138.35 32.73 141.69 41.28 139.57 49.22 C 139.35 49.90 138.91 51.26 138.68 51.94 C 136.27 53.96 133.26 54.08 130.29 53.47 C 126.26 48.88 122.68 43.38 122.49 37.08 C 122.52 33.41 123.97 30.01 126.24 27.19 C 128.20 27.04 130.17 26.90 132.13 27.11 C 134.62 27.49 137.46 27.86 138.80 30.32 C 142.35 35.80 144.52 42.99 142.11 49.35 C 142.40 50.21 142.70 51.08 143.00 51.95 C 142.52 54.96 142.17 57.99 141.77 61.02 C 140.95 65.95 142.89 70.95 141.39 75.83 C 143.33 75.00 145.30 74.05 146.35 72.10 C 147.95 69.42 150.77 68.07 153.55 66.93 C 152.93 59.99 149.83 53.68 148.12 46.99 C 148.29 42.85 148.16 38.65 147.60 34.55 C 146.17 32.41 143.81 31.16 141.89 29.51 C 141.32 30.29 140.76 31.07 140.19 31.85 C 138.93 27.98 141.72 23.72 145.14 21.94 M 148.42 21.56 C 155.82 26.86 159.06 36.56 156.68 45.30 C 161.67 37.09 157.18 25.14 148.42 21.56 M 128.11 28.04 C 124.00 29.62 123.47 34.75 124.15 38.52 C 124.57 43.80 127.27 49.51 132.36 51.68 C 135.79 53.08 138.43 49.09 138.42 46.05 C 139.15 38.88 135.65 30.05 128.11 28.04 M 146.24 84.34 C 142.65 85.48 143.14 89.91 141.67 92.72 C 141.12 90.80 141.25 88.83 141.68 86.92 C 141.43 87.26 140.93 87.94 140.67 88.28 C 139.11 88.75 137.35 88.93 136.01 89.93 C 135.11 91.25 134.58 92.78 133.90 94.23 C 135.07 94.91 136.25 95.60 137.43 96.27 C 137.90 94.02 138.47 91.78 138.99 89.54 C 140.63 96.00 142.82 102.67 141.60 109.40 C 140.26 106.59 140.09 102.75 136.34 102.15 C 136.30 103.22 136.22 105.38 136.18 106.46 L 135.23 106.29 C 134.70 103.90 134.16 101.50 132.67 99.50 C 133.70 100.29 134.72 101.07 135.75 101.86 C 136.94 101.64 138.13 101.56 139.33 101.92 C 139.40 101.05 139.54 99.30 139.60 98.43 C 133.20 95.16 126.04 94.93 119.16 93.38 C 115.82 92.53 112.78 94.72 109.54 95.14 C 109.63 95.38 109.81 95.87 109.90 96.11 C 106.53 97.77 103.64 100.18 100.67 102.43 C 100.64 102.83 100.57 103.64 100.54 104.04 C 98.97 104.73 97.42 105.46 95.93 106.31 C 95.47 105.88 95.01 105.45 94.55 105.01 L 96.27 103.77 C 94.68 104.42 93.12 105.12 91.56 105.82 C 96.09 108.77 102.16 109.78 105.04 114.83 C 104.80 114.28 104.33 113.16 104.10 112.60 C 107.19 113.01 110.35 113.49 113.16 114.95 C 110.39 115.23 107.63 114.80 104.91 114.30 C 107.11 117.93 109.10 122.23 107.60 126.51 C 110.96 124.83 114.65 123.92 118.39 123.71 C 118.29 123.08 118.09 121.83 117.99 121.20 C 120.85 120.13 123.78 119.24 126.81 118.79 C 127.72 118.06 128.64 117.34 129.55 116.62 C 128.34 114.91 127.58 112.95 127.66 110.83 C 126.48 110.54 125.31 110.23 124.14 109.93 C 123.91 109.49 123.47 108.63 123.25 108.19 C 125.32 108.81 127.56 109.13 129.29 110.56 C 131.50 109.60 133.13 106.22 135.88 107.70 C 135.10 108.02 133.54 108.67 132.76 108.99 C 133.19 109.90 133.62 110.82 134.06 111.74 C 135.85 112.08 137.64 112.46 139.44 112.79 C 138.02 113.28 136.61 113.77 135.20 114.28 C 133.35 116.12 131.11 117.50 129.28 119.36 C 126.76 122.21 122.41 121.40 119.08 122.14 C 126.69 126.57 136.09 125.41 143.78 121.80 C 146.95 119.93 151.50 122.21 153.97 119.05 C 156.03 115.41 156.37 111.05 156.34 106.95 C 156.19 103.48 153.46 100.50 154.11 96.97 C 154.58 92.73 154.75 88.47 155.47 84.26 C 152.40 84.30 149.27 83.72 146.24 84.34 M 126.38 93.35 C 128.40 93.39 130.42 93.51 132.44 93.33 C 132.81 92.55 133.57 90.98 133.94 90.20 C 131.34 90.95 127.67 90.33 126.38 93.35 M 156.40 94.16 C 156.39 96.49 155.96 98.95 156.99 101.13 C 159.30 106.24 158.43 112.10 156.89 117.31 C 159.24 116.83 162.07 116.73 163.70 114.68 C 167.20 111.02 165.86 105.58 165.75 101.03 C 165.14 96.45 160.63 94.17 156.40 94.16 M 32.09 119.04 C 28.73 120.37 26.04 123.31 26.21 127.10 C 28.37 134.84 25.99 142.96 27.31 150.82 C 29.31 158.67 32.41 167.00 30.02 175.11 C 29.10 179.09 24.98 180.69 22.52 183.52 C 20.39 185.69 19.00 188.81 15.95 189.85 C 13.66 190.68 11.84 192.29 10.13 193.98 C 11.35 193.81 13.78 193.46 15.00 193.29 C 13.28 194.59 11.46 195.74 9.76 197.07 C 13.56 198.56 17.20 196.45 20.97 196.16 C 24.46 196.16 26.64 193.12 29.49 191.59 C 32.58 189.53 36.42 189.58 39.98 189.16 C 41.53 187.20 43.47 185.37 44.08 182.87 C 45.72 178.30 43.61 173.62 42.72 169.13 C 41.42 164.52 41.49 159.63 39.97 155.08 C 38.11 150.26 38.75 144.97 37.16 140.09 C 35.64 135.35 37.73 129.52 42.27 127.26 C 45.41 125.48 47.66 122.46 50.98 120.95 C 54.27 119.38 57.64 117.88 61.22 117.12 C 61.24 114.63 61.20 112.02 59.62 109.96 C 49.67 109.51 40.08 113.34 32.09 119.04 M 129.96 114.06 C 131.48 114.54 133.09 114.58 134.67 114.71 C 133.36 113.29 132.05 111.85 130.96 110.25 C 130.48 111.45 128.46 112.76 129.96 114.06 M 52.11 122.11 C 48.50 123.54 46.27 126.96 42.88 128.77 C 40.18 130.10 39.50 133.24 38.10 135.64 C 38.90 139.41 40.42 143.09 40.16 147.01 C 39.91 150.82 42.44 154.04 42.59 157.80 C 43.08 166.26 46.17 174.33 46.56 182.79 C 46.51 185.41 44.22 186.96 42.49 188.57 C 39.80 190.91 38.19 194.17 35.78 196.75 C 31.90 201.85 23.48 200.59 20.49 206.71 C 21.33 206.76 23.02 206.85 23.87 206.89 C 25.65 209.63 28.80 210.47 31.88 210.73 C 36.21 209.78 40.56 208.66 44.41 206.39 C 49.41 203.50 55.38 203.61 60.71 201.69 C 62.86 200.77 63.00 198.07 62.66 196.09 C 61.74 191.58 59.63 187.44 58.24 183.08 C 57.29 176.78 56.22 170.41 56.93 164.02 C 57.68 156.00 53.70 148.69 52.47 140.94 C 55.18 139.78 58.06 138.76 61.05 139.51 C 66.83 140.54 72.72 139.20 77.99 136.81 C 79.07 129.24 74.77 122.13 69.68 116.91 C 63.34 116.46 57.78 119.82 52.11 122.11 Z" />
<path fill="#333333" opacity="1.00" d=" M 149.71 90.75 C 150.47 89.40 151.28 88.07 152.14 86.77 C 152.24 89.20 152.28 91.64 152.27 94.07 C 150.12 93.60 147.92 92.81 147.28 90.45 C 147.89 90.52 149.10 90.68 149.71 90.75 Z" />
<path fill="#333333" opacity="1.00" d=" M 117.43 95.85 C 119.98 96.89 123.11 98.34 123.40 101.48 C 123.08 105.84 119.55 108.97 115.76 110.65 C 116.60 108.61 118.03 106.96 119.74 105.61 C 120.23 103.82 121.33 102.10 121.23 100.21 C 119.88 98.82 118.30 97.63 117.43 95.85 Z" />
<path fill="#333333" opacity="1.00" d=" M 107.26 103.72 C 109.76 101.97 111.44 99.39 113.32 97.04 C 112.91 98.69 112.47 100.33 112.03 101.97 C 108.73 103.44 104.16 105.88 101.51 102.02 C 103.48 102.39 105.39 103.01 107.26 103.72 Z" />
<path fill="#333333" opacity="1.00" d=" M 124.98 98.50 C 126.66 99.08 128.32 99.70 130.01 100.23 C 130.64 100.86 131.27 101.49 131.89 102.13 C 129.13 101.80 126.13 101.42 124.98 98.50 Z" />
<path fill="#333333" opacity="1.00" d=" M 125.51 104.10 C 127.52 105.18 129.45 106.41 131.33 107.69 C 128.53 108.43 126.62 106.43 125.51 104.10 Z" />
<path fill="#333333" opacity="1.00" d=" M 106.99 104.79 C 108.57 104.87 110.15 104.96 111.73 105.05 C 112.43 106.27 113.13 107.49 113.79 108.72 C 111.39 107.66 109.20 106.20 106.99 104.79 Z" />
<path fill="#333333" opacity="1.00" d=" M 79.36 110.11 C 83.87 110.88 89.86 110.94 92.27 115.56 C 87.91 113.90 83.42 112.43 79.36 110.11 Z" />
<path fill="#333333" opacity="1.00" d=" M 107.65 111.25 C 110.76 111.09 114.20 111.29 116.39 113.83 C 113.34 113.51 110.44 112.46 107.65 111.25 Z" />
<path fill="#333333" opacity="1.00" d=" M 120.54 110.40 C 122.79 111.37 124.95 112.60 126.82 114.21 C 123.92 114.61 121.68 112.95 120.54 110.40 Z" />
<path fill="#333333" opacity="1.00" d=" M 117.36 113.35 C 118.84 112.94 120.85 115.18 120.19 116.60 C 118.57 117.21 116.67 114.84 117.36 113.35 Z" />
<path fill="#333333" opacity="1.00" d=" M 42.22 124.28 C 39.17 126.84 33.19 124.39 34.47 120.13 C 36.19 122.93 39.01 124.13 42.22 124.28 Z" />
<path fill="#333333" opacity="1.00" d=" M 57.57 130.28 C 61.19 126.33 65.89 123.36 71.15 122.18 C 66.74 125.04 62.86 129.15 57.57 130.28 Z" />
<path fill="#333333" opacity="1.00" d=" M 136.48 130.61 C 145.19 128.21 154.49 127.82 162.67 123.72 C 160.77 127.38 156.56 128.56 152.86 129.48 C 148.66 130.40 144.52 131.89 140.16 131.82 C 140.41 137.84 140.33 143.88 140.97 149.88 C 145.28 151.62 149.68 153.10 153.95 154.93 C 157.18 156.05 156.10 160.29 156.58 162.94 C 153.71 164.76 151.09 167.09 147.90 168.34 C 142.56 167.37 138.16 163.57 132.93 162.16 C 131.66 161.95 130.71 162.97 129.70 163.52 C 115.23 173.54 100.75 183.55 86.66 194.09 C 83.22 191.80 79.81 189.48 76.48 187.05 C 76.36 174.26 76.57 161.48 76.30 148.70 C 72.47 150.09 69.37 153.92 64.92 153.08 C 61.39 152.02 57.81 150.28 55.65 147.15 C 58.69 147.89 61.19 149.88 64.09 150.97 C 66.41 151.46 68.68 150.34 70.80 149.54 C 76.00 147.08 81.65 145.86 87.14 144.23 C 103.51 139.42 120.02 135.11 136.48 130.61 M 130.91 133.95 C 130.80 138.21 130.82 142.48 130.62 146.74 C 126.84 146.23 123.23 144.98 119.70 143.59 C 117.37 144.81 115.08 146.09 112.79 147.37 C 113.25 152.28 119.23 152.60 122.61 154.85 C 119.24 160.45 112.96 163.08 107.96 166.92 C 100.46 171.77 93.54 177.51 85.77 181.89 C 85.95 169.97 86.40 158.04 86.00 146.12 C 83.42 146.84 80.86 147.60 78.31 148.41 C 78.16 159.94 78.31 171.47 78.19 183.00 C 77.50 187.38 82.93 188.60 85.42 191.19 C 86.52 190.71 87.65 190.26 88.69 189.66 C 102.59 179.37 116.90 169.63 130.81 159.34 C 136.12 161.90 141.85 163.51 147.01 166.41 C 149.75 165.20 152.26 163.56 154.74 161.90 C 154.48 160.24 154.21 158.58 153.94 156.92 C 148.82 154.80 143.51 153.14 138.45 150.90 C 138.37 144.66 137.80 138.45 137.71 132.22 C 135.45 132.81 133.18 133.38 130.91 133.95 M 106.02 140.58 C 99.92 142.39 93.48 143.27 87.69 146.00 C 88.21 156.68 88.49 167.40 88.49 178.12 C 99.21 170.77 109.72 163.12 120.57 155.96 C 117.65 154.55 114.73 153.18 111.83 151.74 C 111.62 149.67 109.77 146.68 112.37 145.44 C 114.76 143.99 117.14 142.15 119.95 141.70 C 123.07 142.46 126.01 143.79 129.00 144.92 C 128.97 141.39 128.95 137.87 128.92 134.34 C 121.33 136.57 113.61 138.35 106.02 140.58 Z" />
<path fill="#333333" opacity="1.00" d=" M 29.76 126.55 C 32.48 125.51 33.00 130.27 32.47 132.07 C 32.74 132.01 33.29 131.89 33.56 131.84 C 32.74 133.89 32.00 135.97 31.15 138.00 C 31.02 136.49 30.90 134.97 30.80 133.45 C 30.47 131.15 29.95 128.87 29.76 126.55 Z" />
<path fill="#333333" opacity="1.00" d=" M 47.46 129.42 C 49.32 129.86 51.15 130.40 53.00 130.86 C 52.67 131.25 52.01 132.02 51.68 132.41 C 49.87 132.05 48.36 131.05 47.46 129.42 Z" />
<path fill="#333333" opacity="1.00" d=" M 42.52 141.62 C 43.24 138.08 42.62 133.06 47.07 131.99 C 46.49 133.05 45.88 134.09 45.26 135.12 C 45.31 137.66 44.48 139.96 42.52 141.62 Z" />
<path fill="#333333" opacity="1.00" d=" M 45.27 150.21 C 45.74 150.84 45.74 150.84 45.27 150.21 Z" />
<path fill="#333333" opacity="1.00" d=" M 49.81 157.18 C 49.25 154.81 49.72 152.38 50.22 150.04 C 50.52 157.72 53.38 164.99 53.88 172.61 C 51.28 167.87 50.85 162.39 49.81 157.18 Z" />
<path fill="#333333" opacity="1.00" d=" M 46.60 152.20 C 47.33 153.71 47.85 155.32 47.82 157.02 C 47.96 161.79 48.82 166.50 49.23 171.25 C 47.24 165.12 46.15 158.65 46.60 152.20 Z" />
<path fill="#333333" opacity="1.00" d=" M 40.46 175.18 C 40.88 175.47 41.70 176.05 42.11 176.34 C 42.69 180.88 39.88 185.46 35.86 187.51 C 37.92 183.64 41.64 179.95 40.46 175.18 Z" />
<path fill="#333333" opacity="1.00" d=" M 25.97 187.95 C 27.47 184.98 29.83 182.49 32.92 181.17 C 30.96 183.76 28.62 186.06 25.97 187.95 Z" />
<path fill="#333333" opacity="1.00" d=" M 54.53 194.21 C 55.18 193.34 55.83 192.47 56.50 191.62 C 58.05 195.05 53.80 196.47 51.23 196.98 C 52.27 195.99 53.38 195.08 54.53 194.21 Z" />
<path fill="#333333" opacity="1.00" d=" M 41.46 201.42 C 42.21 198.35 44.25 195.82 46.74 193.95 C 45.55 196.80 43.71 199.33 41.46 201.42 Z" />
<path fill="#333333" opacity="1.00" d=" M 26.36 203.99 C 29.47 203.21 32.74 204.29 34.68 206.88 C 31.64 206.89 28.91 205.50 26.36 203.99 Z" />
</g>
</svg>
