<?xml version="1.0" encoding="UTF-8" ?>
<!DOCTYPE svg PUBLIC "-//W3C//DTD SVG 1.1//EN" "http://www.w3.org/Graphics/SVG/1.1/DTD/svg11.dtd">
<svg width="185pt" height="300pt" viewBox="0 0 185 300" version="1.1" xmlns="http://www.w3.org/2000/svg">
<g id="#ffffffff">
<path fill="#FFFFFF" opacity="1.00" d=" M 0.00 0.00 L 185.00 0.00 L 185.00 300.00 L 0.00 300.00 L 0.00 111.79 C 4.35 112.58 9.99 112.94 13.03 109.06 C 18.44 102.78 18.96 93.94 18.83 86.03 C 19.47 86.02 20.75 86.01 21.40 86.00 C 21.06 87.52 20.72 89.05 20.40 90.58 C 20.92 91.38 21.44 92.18 21.97 92.97 C 22.40 90.53 22.82 88.08 23.20 85.63 C 24.33 85.08 25.46 84.53 26.58 83.95 C 23.89 83.09 21.13 83.71 18.50 84.43 C 18.36 83.72 18.07 82.31 17.93 81.60 C 20.14 81.29 22.33 80.88 24.50 80.37 C 24.52 78.90 24.15 76.69 25.96 76.06 C 29.73 74.74 33.82 74.59 37.58 73.21 C 38.94 75.32 40.31 77.56 39.07 80.09 C 39.39 80.67 40.05 81.84 40.38 82.43 C 38.11 83.94 35.59 84.99 33.25 86.36 C 31.69 89.27 31.50 92.73 31.51 95.98 C 31.61 99.69 34.58 102.42 35.69 105.80 C 36.06 108.56 35.23 111.52 36.72 114.06 C 38.06 109.15 37.71 103.75 34.36 99.71 C 37.31 96.12 40.92 93.21 44.61 90.43 C 45.94 90.72 47.27 91.00 48.60 91.28 C 49.12 91.75 50.16 92.69 50.68 93.16 C 50.43 91.99 50.66 90.25 49.17 89.84 C 47.49 89.35 45.72 90.00 44.03 90.08 C 45.11 87.29 46.07 84.25 48.43 82.23 C 51.60 78.91 56.50 78.86 60.55 77.33 C 60.35 77.96 59.96 79.23 59.76 79.87 C 61.32 80.88 62.84 81.99 64.48 82.87 C 66.40 80.60 63.23 80.11 61.76 79.18 C 61.83 78.38 61.91 77.59 61.99 76.79 C 64.35 75.17 66.93 73.88 69.24 72.19 C 70.36 70.24 70.88 68.02 71.63 65.92 C 72.20 66.37 72.76 66.83 73.33 67.28 C 75.35 72.09 80.20 74.54 84.98 75.83 C 83.72 78.15 82.52 80.50 81.35 82.87 C 81.97 82.82 83.22 82.72 83.85 82.67 C 83.43 83.53 82.58 85.25 82.15 86.11 C 83.51 85.17 84.80 84.12 86.01 83.00 C 88.22 81.42 91.96 80.16 91.33 76.79 C 89.05 78.59 86.87 80.52 84.87 82.63 C 84.46 82.00 84.04 81.37 83.64 80.73 C 84.45 79.30 85.25 77.87 86.04 76.43 C 88.83 75.59 91.46 74.37 94.00 72.95 C 96.74 74.94 98.54 77.81 100.61 80.41 C 103.81 82.34 108.09 81.59 111.21 83.85 C 112.92 85.36 114.02 87.41 115.40 89.20 C 116.02 86.26 114.50 83.90 112.50 81.97 C 115.84 78.55 117.36 73.59 116.03 68.92 C 115.14 67.93 114.04 67.16 113.00 66.33 C 111.70 63.23 113.42 60.31 114.51 57.45 C 117.63 56.77 120.74 55.86 123.95 55.75 C 126.41 57.11 127.67 59.61 126.01 62.15 C 124.30 72.97 127.11 84.31 123.03 94.76 C 121.89 96.81 119.14 96.85 117.07 96.75 C 113.68 96.52 110.29 96.75 106.95 97.27 C 103.49 98.00 100.34 95.98 97.25 94.77 C 97.42 89.98 96.35 84.93 98.90 80.56 C 93.95 83.31 95.89 89.39 95.25 93.96 C 95.18 97.36 91.46 99.46 91.72 102.90 C 91.75 105.97 91.41 109.03 90.93 112.07 C 89.29 111.06 87.46 110.48 85.54 110.41 C 84.21 108.52 83.57 104.66 80.47 105.68 C 77.09 106.78 74.97 110.01 72.16 112.05 C 72.61 112.26 73.50 112.69 73.95 112.90 C 77.25 111.62 78.89 107.91 82.20 106.91 C 83.32 108.74 82.60 110.73 81.99 112.59 C 78.58 113.00 74.90 113.54 72.88 116.66 C 74.98 116.12 77.04 115.42 79.18 115.05 C 80.64 114.12 82.30 115.33 82.17 116.90 C 81.99 120.32 79.71 123.00 78.04 125.81 C 81.97 124.02 85.12 119.81 83.59 115.34 C 82.84 113.95 82.89 112.53 84.75 112.25 C 86.76 112.03 88.76 112.47 90.76 112.63 C 88.14 117.64 86.46 123.04 84.12 128.16 C 79.68 132.68 72.93 133.04 66.98 133.62 C 60.73 134.35 54.07 132.57 49.52 128.10 C 50.94 124.62 53.12 120.92 52.02 117.03 C 51.04 112.67 49.65 108.31 50.45 103.80 C 48.65 105.91 47.01 108.16 45.27 110.33 C 41.95 114.51 36.75 116.37 32.52 119.41 C 30.45 121.01 27.95 121.69 25.35 121.53 C 24.17 117.23 20.97 113.62 20.80 109.03 C 20.26 104.13 20.80 99.20 21.48 94.34 C 21.01 93.56 20.52 92.78 20.03 92.01 C 18.59 100.29 17.22 109.70 21.82 117.26 C 23.00 119.13 23.64 121.26 24.14 123.40 C 26.78 123.23 29.76 123.81 32.02 122.07 C 37.67 118.11 44.65 115.71 48.52 109.62 C 49.55 114.18 51.66 119.13 49.75 123.73 C 46.77 131.18 45.16 139.14 43.98 147.02 C 45.96 152.95 46.29 159.20 45.52 165.40 C 48.83 168.56 48.22 173.69 48.03 177.85 C 46.01 183.01 45.76 188.53 45.00 193.95 C 43.09 199.73 40.72 205.49 40.69 211.70 C 41.33 211.07 41.97 210.44 42.60 209.80 C 42.80 204.87 44.39 200.16 46.47 195.72 C 47.59 198.49 48.21 201.62 50.46 203.76 C 49.05 195.97 44.20 186.72 50.24 179.70 C 50.34 176.19 50.25 172.69 50.16 169.18 C 55.28 172.05 61.35 171.82 66.94 170.68 C 66.01 173.98 65.34 177.43 63.50 180.37 C 59.51 186.48 59.03 194.10 55.32 200.35 C 53.48 203.38 52.60 206.85 52.47 210.38 C 49.61 211.45 46.72 212.49 43.88 213.63 C 43.18 213.22 42.47 212.81 41.77 212.40 C 41.53 214.80 39.18 215.11 37.44 215.84 C 31.76 217.77 26.12 219.81 20.47 221.80 C 18.51 222.37 17.11 223.90 15.75 225.33 C 16.11 227.78 15.78 230.65 17.47 232.66 C 22.09 236.92 28.24 239.05 33.05 243.01 C 32.27 251.95 32.67 260.96 33.41 269.89 C 30.54 267.24 27.31 265.02 24.21 262.65 C 22.06 263.83 19.94 265.05 17.81 266.27 C 17.82 268.58 17.91 270.88 17.97 273.18 C 28.51 281.60 39.99 288.81 50.28 297.53 C 52.29 296.32 54.31 295.11 56.32 293.91 C 56.29 291.25 56.25 288.59 56.20 285.94 C 51.74 282.50 47.28 279.04 42.42 276.18 C 42.17 266.34 42.26 256.49 42.35 246.64 C 43.98 247.57 45.77 248.33 47.14 249.64 C 47.67 251.23 47.83 252.93 48.40 254.53 C 51.63 259.76 59.74 261.15 64.45 257.14 C 65.18 257.12 66.64 257.08 67.37 257.06 C 70.75 252.52 65.96 247.93 62.80 244.90 C 69.25 242.50 75.52 239.63 82.07 237.50 C 85.10 237.53 88.13 237.90 91.16 237.52 C 94.50 236.95 97.26 239.26 100.11 240.59 C 105.66 241.67 111.99 240.76 115.56 235.93 C 114.11 234.35 112.94 232.12 110.67 231.62 C 108.30 231.00 106.01 230.14 103.93 228.84 C 120.81 222.16 137.80 215.78 154.61 208.94 C 153.19 217.06 154.19 225.32 153.79 233.51 C 157.87 235.81 162.16 237.68 166.32 239.79 C 168.63 240.68 169.12 243.79 168.24 245.85 C 167.59 247.53 165.68 247.99 164.29 248.85 C 159.51 246.05 154.63 243.43 149.57 241.18 C 144.14 238.72 139.27 235.19 133.78 232.86 C 133.67 231.51 133.57 230.15 133.47 228.81 C 134.86 227.94 136.09 226.60 137.73 226.22 C 141.74 227.38 145.21 229.81 148.76 231.95 C 148.65 226.62 148.84 221.29 148.73 215.97 C 148.89 214.42 147.86 213.23 146.94 212.15 C 146.81 217.44 147.36 222.72 147.35 228.01 C 144.06 226.19 140.72 224.26 136.98 223.56 C 135.18 223.79 134.04 225.64 132.83 226.85 C 130.70 228.70 131.81 231.65 131.83 234.07 C 142.60 239.87 153.35 245.72 164.01 251.72 C 166.12 250.50 168.36 249.42 170.22 247.82 C 170.82 245.13 170.37 242.34 170.40 239.61 C 165.97 236.84 161.26 234.59 156.47 232.52 C 156.54 224.14 156.26 215.74 156.64 207.36 C 162.39 206.98 167.42 203.96 172.81 202.25 C 175.83 201.56 176.03 198.00 176.62 195.54 C 174.01 192.22 169.74 191.60 165.96 190.41 C 158.57 188.44 151.51 185.34 143.94 184.08 C 141.77 182.67 139.33 180.96 136.63 182.12 C 122.22 186.68 107.95 191.71 93.42 195.95 C 92.32 189.97 92.96 183.86 94.14 177.96 C 93.54 174.97 92.03 172.15 92.43 169.00 C 92.87 164.76 90.87 160.33 92.68 156.29 C 91.67 151.71 91.06 146.99 89.08 142.69 C 87.76 140.19 89.22 137.45 89.42 134.86 C 88.59 133.65 87.47 132.69 86.43 131.68 C 85.79 123.10 92.50 116.46 93.30 108.19 C 93.61 105.90 93.15 103.60 93.32 101.31 C 94.11 99.77 95.19 98.40 96.18 96.99 C 100.10 98.53 104.30 99.81 108.53 98.86 C 113.83 97.73 120.70 100.70 124.58 95.60 C 126.60 88.95 127.28 81.96 126.77 75.03 C 126.34 70.91 127.15 66.84 128.56 62.98 C 130.72 62.49 132.88 61.99 135.02 61.43 C 135.96 67.82 138.19 74.50 143.17 78.88 C 146.55 81.97 151.56 81.45 155.69 80.56 C 159.41 78.62 161.67 74.73 162.85 70.82 C 164.98 64.36 164.14 57.47 164.15 50.80 C 168.03 49.58 172.04 48.71 176.08 48.22 C 176.51 48.68 177.37 49.58 177.80 50.03 C 174.17 52.05 169.98 52.43 165.95 52.99 C 165.54 53.53 164.71 54.60 164.30 55.14 C 169.31 54.19 174.33 53.22 179.27 51.95 C 178.76 50.09 178.36 48.17 177.37 46.49 C 172.63 46.60 168.08 48.22 163.45 49.13 C 162.13 41.22 157.98 31.81 149.22 30.20 C 145.52 31.05 140.96 31.09 138.81 34.80 C 135.20 40.72 133.14 48.01 134.70 54.92 C 136.65 48.68 135.65 41.37 140.03 36.00 C 142.05 32.76 146.16 31.95 149.71 32.14 C 153.68 33.49 156.82 36.69 158.68 40.40 C 163.04 48.85 164.02 58.94 161.76 68.14 C 160.42 72.83 157.97 78.48 152.40 79.05 C 152.64 78.43 153.12 77.21 153.35 76.60 C 154.30 75.82 155.38 75.07 155.77 73.84 C 159.67 63.62 158.97 52.00 155.07 41.89 C 153.48 38.43 151.52 34.39 147.49 33.34 C 149.43 36.86 152.33 39.81 153.75 43.62 C 157.13 52.12 157.91 61.85 154.95 70.60 C 153.83 73.48 152.35 76.22 151.05 79.02 C 142.30 79.77 138.76 70.22 136.63 63.44 C 137.03 62.64 137.45 61.84 137.86 61.04 C 140.70 60.26 143.55 59.56 146.44 59.04 C 147.72 56.97 147.02 54.79 146.04 52.78 C 140.02 53.85 134.10 55.36 128.12 56.57 C 124.41 52.83 118.76 53.92 114.29 55.38 C 111.90 55.93 112.03 59.06 110.28 60.30 C 105.55 61.67 100.64 62.33 95.82 63.33 C 95.85 57.87 94.21 52.40 91.16 47.87 C 86.16 41.59 76.05 41.33 69.92 46.08 C 65.29 51.01 65.96 59.27 70.27 64.22 C 69.67 65.82 69.08 67.42 68.51 69.03 C 59.30 71.28 49.94 72.90 40.74 75.21 C 39.93 73.83 39.14 72.43 38.38 71.02 C 34.23 72.23 29.86 72.50 25.74 73.79 C 23.60 74.53 22.78 76.78 22.29 78.78 C 20.86 79.31 19.42 79.84 17.99 80.37 C 16.35 74.55 14.32 68.46 9.83 64.18 C 7.23 61.67 3.42 61.25 0.00 61.87 L 0.00 0.00 M 121.22 75.35 C 122.94 73.92 122.42 71.65 122.41 69.70 C 121.84 68.68 121.28 67.66 120.72 66.64 C 119.02 69.29 121.11 72.50 121.22 75.35 M 72.57 71.70 C 72.38 74.50 71.68 78.66 74.72 80.20 C 74.10 77.37 74.39 74.11 72.57 71.70 M 76.32 79.55 C 76.68 79.92 77.42 80.67 77.78 81.05 C 75.50 82.90 72.42 82.19 69.71 82.47 C 68.50 82.25 67.28 82.00 66.06 81.77 C 68.94 84.08 73.02 82.61 75.90 84.77 C 77.19 85.62 78.55 86.38 80.01 86.92 C 79.43 85.38 78.50 84.03 77.45 82.78 C 77.85 82.81 78.66 82.88 79.07 82.91 C 78.83 82.00 78.36 80.17 78.12 79.26 C 77.67 79.33 76.77 79.47 76.32 79.55 M 97.70 87.49 C 98.15 90.25 101.10 90.54 103.18 91.49 C 101.68 89.76 100.03 88.01 97.70 87.49 M 105.22 89.12 C 108.55 92.27 115.42 93.77 118.14 89.09 C 116.38 89.57 114.68 90.24 112.91 90.65 C 110.30 90.39 107.82 89.45 105.22 89.12 M 53.50 92.34 C 53.81 93.51 55.68 95.11 57.04 94.66 C 57.91 92.81 54.90 91.73 53.50 92.34 M 56.05 97.18 C 58.43 99.74 61.60 101.39 63.95 103.99 C 66.00 105.91 67.54 108.53 70.27 109.58 C 70.16 108.95 69.94 107.68 69.83 107.04 C 66.11 102.96 62.08 98.79 56.89 96.68 L 56.05 97.18 M 48.72 100.83 C 46.76 104.01 43.50 105.98 40.97 108.63 C 46.67 107.95 50.22 102.34 52.26 97.48 C 50.42 97.76 49.73 99.55 48.72 100.83 M 83.07 98.27 C 81.48 100.02 79.88 102.49 77.14 102.11 C 74.50 102.51 70.88 101.34 69.25 104.15 C 74.36 104.20 81.86 105.54 84.15 99.47 C 84.64 100.11 85.13 100.74 85.61 101.39 C 87.11 101.38 88.61 101.21 90.06 100.77 C 87.75 99.87 85.39 99.14 83.07 98.27 M 84.44 104.33 C 83.68 106.06 87.93 107.08 88.19 105.22 C 87.78 103.71 85.50 103.23 84.44 104.33 M 56.07 108.06 C 56.94 109.13 57.64 110.40 58.83 111.17 C 59.84 112.18 62.82 112.22 61.55 114.27 C 59.28 115.55 57.04 113.59 54.80 113.16 C 55.93 114.72 57.24 116.23 59.05 117.03 C 60.11 116.71 61.15 116.35 62.19 115.95 C 63.86 118.08 65.41 120.66 68.34 121.11 C 66.61 117.63 62.15 115.67 62.15 111.43 C 63.70 110.96 64.94 110.07 65.86 108.75 C 63.92 109.03 62.03 109.53 60.14 110.01 C 58.95 109.03 57.77 107.78 56.07 108.06 M 65.64 110.40 C 65.83 113.59 68.27 116.01 71.07 117.19 C 70.29 114.29 67.76 112.35 65.64 110.40 M 62.29 120.20 C 63.30 122.72 65.16 124.83 67.65 125.96 C 66.73 123.38 64.84 121.22 62.29 120.20 M 67.77 122.20 C 67.84 124.65 68.25 127.07 68.80 129.46 C 69.65 127.14 70.16 123.78 67.77 122.20 M 52.39 180.75 C 52.34 182.20 52.30 183.66 52.30 185.12 C 52.79 184.09 53.26 183.04 53.72 182.00 C 55.30 181.60 56.89 181.20 58.47 180.79 C 59.12 181.73 59.89 182.55 60.79 183.26 C 60.36 181.81 59.83 180.40 59.31 179.00 C 57.13 180.05 54.81 180.71 52.39 180.75 M 53.19 189.94 C 54.98 190.99 56.93 190.88 58.34 189.31 C 56.60 189.09 54.36 187.87 53.19 189.94 Z" />
<path fill="#FFFFFF" opacity="1.00" d=" M 71.00 48.31 C 74.80 44.41 81.28 43.18 86.02 46.06 C 89.64 47.64 91.19 51.54 92.47 54.99 C 94.13 60.39 94.36 66.33 92.89 71.80 C 90.10 72.90 87.16 74.20 84.09 73.78 C 81.19 73.14 78.86 71.20 76.46 69.58 C 77.25 68.90 78.04 68.23 78.83 67.56 C 75.48 66.94 72.35 64.88 70.64 61.92 C 70.92 61.22 71.49 59.84 71.77 59.15 C 72.61 59.32 74.28 59.66 75.11 59.83 C 74.70 59.01 74.64 57.31 73.33 57.60 C 71.57 58.11 70.14 59.34 68.61 60.30 C 68.28 56.27 67.69 51.32 71.00 48.31 Z" />
<path fill="#FFFFFF" opacity="1.00" d=" M 128.31 58.25 C 133.59 57.56 138.74 56.12 143.95 55.05 C 144.46 55.30 145.49 55.80 146.01 56.05 C 145.70 56.48 145.07 57.34 144.76 57.77 C 139.23 58.52 133.82 59.93 128.39 61.16 C 128.37 60.43 128.33 58.97 128.31 58.25 Z" />
<path fill="#FFFFFF" opacity="1.00" d=" M 95.40 65.48 C 100.85 64.23 106.29 62.91 111.79 61.92 C 111.66 62.61 111.41 63.98 111.28 64.67 C 105.97 65.93 100.57 66.77 95.32 68.30 C 95.35 67.36 95.37 66.42 95.40 65.48 Z" />
<path fill="#FFFFFF" opacity="1.00" d=" M 0.00 63.23 C 5.10 62.18 9.48 65.95 12.02 69.98 C 16.85 77.98 17.54 87.77 16.31 96.85 C 15.45 101.55 13.78 106.78 9.45 109.37 C 6.43 110.36 3.13 109.80 0.00 109.87 L 0.00 91.18 C 1.85 88.96 1.35 86.21 0.00 83.90 L 0.00 63.23 M 1.64 64.83 C 2.71 66.56 4.02 68.13 5.24 69.75 C 7.96 73.28 8.99 77.74 10.01 81.98 C 11.53 90.91 10.91 100.69 5.77 108.43 C 9.81 107.88 10.67 103.30 11.56 100.05 C 13.51 89.64 12.78 78.11 7.05 68.94 C 5.75 67.04 4.38 64.44 1.64 64.83 Z" />
<path fill="#FFFFFF" opacity="1.00" d=" M 94.26 70.73 C 99.43 69.18 104.73 68.03 110.03 67.08 C 110.42 67.38 111.19 67.99 111.58 68.29 C 115.85 69.19 114.84 73.94 114.05 77.06 C 113.37 78.71 112.19 80.07 111.19 81.51 C 108.55 80.48 105.72 80.40 102.96 80.07 C 101.17 79.49 100.88 77.33 99.94 75.94 C 98.91 73.44 96.20 72.39 94.26 70.73 Z" />
<path fill="#FFFFFF" opacity="1.00" d=" M 40.59 77.16 C 49.15 75.24 57.74 73.48 66.33 71.71 C 65.64 72.73 64.96 73.75 64.30 74.79 C 56.38 76.39 48.44 77.97 40.54 79.67 C 40.55 79.05 40.58 77.79 40.59 77.16 Z" />
<path fill="#FFFFFF" opacity="1.00" d=" M 41.94 81.60 C 43.69 81.21 45.45 80.83 47.20 80.44 C 44.44 83.24 43.29 87.00 41.74 90.49 C 38.59 92.74 35.78 95.37 33.35 98.39 C 33.34 95.23 33.21 92.01 33.95 88.92 C 36.95 86.88 41.71 86.02 41.94 81.60 Z" />
<path fill="#FFFFFF" opacity="1.00" d=" M 46.86 136.29 C 48.69 134.73 49.37 132.53 49.56 130.20 C 55.74 136.12 64.93 137.33 73.05 135.72 C 77.09 135.43 80.81 133.67 83.95 131.17 C 84.56 133.01 85.84 134.48 87.08 135.92 C 86.95 139.09 84.73 143.48 88.36 145.44 C 89.62 148.76 89.04 152.88 92.07 155.36 C 87.88 156.74 85.38 160.96 80.96 161.82 C 77.77 162.98 74.57 161.46 71.47 160.78 C 72.29 162.62 74.26 163.29 75.83 164.31 C 81.36 164.29 86.78 162.16 90.64 158.15 C 90.64 162.22 90.71 166.29 91.31 170.32 C 87.80 170.43 89.10 175.54 86.15 176.94 C 84.20 175.60 82.57 173.89 81.25 171.94 C 81.70 174.24 82.58 177.23 85.07 177.96 C 88.01 178.05 89.40 175.13 90.76 173.05 C 91.31 174.65 92.15 176.20 92.21 177.92 C 91.15 184.26 90.18 190.79 91.23 197.20 C 87.85 198.45 84.40 199.44 80.99 200.59 C 80.12 196.85 80.50 192.93 79.76 189.22 C 78.45 189.32 78.76 191.55 78.31 192.50 C 77.98 195.58 78.04 198.69 77.76 201.78 C 71.59 203.77 65.43 205.80 59.41 208.21 C 59.26 202.64 58.54 196.90 60.64 191.57 C 62.08 188.29 62.48 184.53 64.72 181.65 C 67.87 177.44 68.20 172.00 68.59 166.95 C 69.32 165.76 70.19 164.65 71.04 163.55 C 71.12 162.04 71.12 160.53 71.27 159.02 C 72.23 158.26 73.32 157.67 74.34 156.99 C 75.02 157.01 76.38 157.05 77.06 157.06 C 78.69 154.87 80.00 152.47 80.93 149.91 C 78.57 150.57 77.69 152.94 76.60 154.88 C 74.27 155.55 71.96 156.29 69.67 157.10 C 69.33 159.28 69.17 161.50 68.66 163.65 C 67.10 164.96 65.31 166.00 63.91 167.51 C 64.78 167.59 66.53 167.74 67.40 167.82 C 66.67 168.65 65.96 169.49 65.22 170.30 C 63.64 169.40 61.76 169.69 60.03 169.56 C 55.52 169.72 50.98 167.92 47.67 164.90 C 48.17 161.37 48.70 157.74 47.98 154.20 C 47.24 151.79 45.96 149.53 45.78 146.96 C 44.93 143.33 46.85 139.90 46.86 136.29 M 48.21 137.23 C 48.82 137.70 48.82 137.70 48.21 137.23 M 53.09 141.70 C 55.93 140.58 58.72 139.17 60.81 136.88 C 57.33 136.35 54.98 139.27 53.09 141.70 M 69.07 137.94 C 66.89 138.76 63.70 138.84 63.08 141.58 C 68.52 140.16 73.89 138.23 79.53 137.83 C 75.66 140.69 70.46 141.46 67.22 145.21 C 65.75 147.43 62.87 147.08 60.59 147.70 C 62.01 149.25 64.21 148.89 66.07 148.58 C 71.72 147.58 77.59 147.89 83.11 146.08 C 83.24 145.66 83.50 144.81 83.63 144.39 C 78.63 145.62 73.50 145.94 68.41 146.55 C 68.64 146.07 69.11 145.10 69.34 144.62 C 73.25 142.70 77.36 141.22 81.30 139.36 C 81.52 138.80 81.97 137.68 82.19 137.12 C 77.81 137.17 73.30 136.46 69.07 137.94 M 58.41 148.92 C 57.82 150.18 59.47 152.07 60.78 151.66 C 61.25 150.44 59.76 148.32 58.41 148.92 M 72.22 166.23 C 72.38 169.78 76.53 172.19 76.65 175.96 C 76.57 179.25 77.52 182.35 79.17 185.18 C 77.82 187.05 79.83 188.13 81.22 188.63 C 81.59 189.25 82.34 190.48 82.71 191.09 C 84.64 187.05 80.19 183.97 80.04 180.03 C 80.14 174.44 76.62 169.82 73.58 165.47 C 73.24 165.66 72.56 166.04 72.22 166.23 Z" />
<path fill="#FFFFFF" opacity="1.00" d=" M 132.91 185.45 C 135.46 184.62 138.22 183.90 140.88 184.75 C 147.02 186.28 152.94 188.60 159.03 190.33 C 163.92 191.78 168.91 193.23 173.25 196.01 C 174.69 197.05 173.12 199.22 171.83 199.62 C 154.72 207.93 136.54 213.75 118.92 220.88 C 113.01 222.99 107.34 225.85 101.19 227.25 C 89.09 233.30 76.00 237.13 63.53 242.36 C 59.16 243.79 54.98 245.98 50.44 246.77 C 41.54 245.30 34.13 239.80 26.30 235.71 C 22.76 233.33 18.10 231.46 17.23 226.76 C 21.08 222.59 27.02 222.11 32.00 220.03 C 49.60 213.31 67.88 208.42 85.12 200.77 C 88.03 199.46 91.28 199.34 94.28 198.37 C 106.67 192.68 120.11 190.00 132.91 185.45 Z" />
<path fill="#FFFFFF" opacity="1.00" d=" M 54.31 209.82 C 54.37 206.57 55.40 203.42 57.18 200.70 C 57.38 203.31 57.78 205.97 57.34 208.57 C 56.36 209.07 55.33 209.42 54.31 209.82 Z" />
<path fill="#FFFFFF" opacity="1.00" d=" M 86.34 235.36 C 91.69 234.08 96.59 231.45 101.82 229.76 C 104.85 233.45 110.47 232.30 113.19 236.09 C 111.32 237.43 109.37 238.66 107.20 239.47 C 104.99 238.94 102.73 238.82 100.46 238.84 C 96.59 235.17 91.20 235.75 86.32 236.28 L 86.34 235.36 Z" />
<path fill="#FFFFFF" opacity="1.00" d=" M 33.44 243.20 C 35.75 243.60 37.83 244.81 39.59 246.33 C 39.93 255.22 39.58 264.14 39.73 273.04 C 40.00 274.80 38.96 276.23 38.08 277.63 C 39.01 277.46 39.94 277.29 40.87 277.14 C 44.49 280.75 48.93 283.35 53.17 286.15 C 55.29 288.92 54.59 294.78 50.12 293.82 C 46.35 291.78 43.43 288.52 39.83 286.23 C 34.49 282.92 29.75 278.77 24.59 275.20 C 22.25 273.54 19.88 271.69 18.92 268.87 C 20.50 267.41 22.70 263.38 25.06 265.93 C 27.69 268.68 32.06 270.27 32.84 274.32 C 33.30 274.30 34.22 274.26 34.68 274.24 C 34.74 263.88 35.40 253.43 33.44 243.20 Z" />
<path fill="#FFFFFF" opacity="1.00" d=" M 49.91 249.80 C 53.53 248.27 57.45 247.46 60.84 245.39 C 63.49 248.03 65.87 250.93 67.77 254.16 C 66.60 254.48 65.44 254.79 64.27 255.11 C 63.48 254.07 63.06 252.69 61.98 251.90 C 60.28 251.49 58.55 252.17 56.87 252.33 C 54.93 252.14 52.65 251.47 51.51 253.54 C 54.70 253.93 57.92 254.19 61.09 253.46 C 61.57 253.89 62.53 254.75 63.01 255.17 C 59.05 258.73 52.89 257.41 50.04 253.15 C 50.01 252.02 49.88 250.92 49.91 249.80 Z" />
</g>
<g id="#4d4e4cff">
<path fill="#333333" opacity="1.00" d=" M 138.81 34.80 C 140.96 31.09 145.52 31.05 149.22 30.20 C 157.98 31.81 162.13 41.22 163.45 49.13 C 168.08 48.22 172.63 46.60 177.37 46.49 C 178.36 48.17 178.76 50.09 179.27 51.95 C 174.33 53.22 169.31 54.19 164.30 55.14 C 164.71 54.60 165.54 53.53 165.95 52.99 C 169.98 52.43 174.17 52.05 177.80 50.03 C 177.37 49.58 176.51 48.68 176.08 48.22 C 172.04 48.71 168.03 49.58 164.15 50.80 C 164.14 57.47 164.98 64.36 162.85 70.82 C 161.67 74.73 159.41 78.62 155.69 80.56 C 151.56 81.45 146.55 81.97 143.17 78.88 C 138.19 74.50 135.96 67.82 135.02 61.43 C 132.88 61.99 130.72 62.49 128.56 62.98 C 127.15 66.84 126.34 70.91 126.77 75.03 C 127.28 81.96 126.60 88.95 124.58 95.60 C 120.70 100.70 113.83 97.73 108.53 98.86 C 104.30 99.81 100.10 98.53 96.18 96.99 C 95.19 98.40 94.11 99.77 93.32 101.31 C 93.15 103.60 93.61 105.90 93.30 108.19 C 92.50 116.46 85.79 123.10 86.43 131.68 C 87.47 132.69 88.59 133.65 89.42 134.86 C 89.22 137.45 87.76 140.19 89.08 142.69 C 91.06 146.99 91.67 151.71 92.68 156.29 C 90.87 160.33 92.87 164.76 92.43 169.00 C 92.03 172.15 93.54 174.97 94.14 177.96 C 92.96 183.86 92.32 189.97 93.42 195.95 C 107.95 191.71 122.22 186.68 136.63 182.12 C 139.33 180.96 141.77 182.67 143.94 184.08 C 151.51 185.34 158.57 188.44 165.96 190.41 C 169.74 191.60 174.01 192.22 176.62 195.54 C 176.03 198.00 175.83 201.56 172.81 202.25 C 167.42 203.96 162.39 206.98 156.64 207.36 C 156.26 215.74 156.54 224.14 156.47 232.52 C 161.26 234.59 165.97 236.84 170.40 239.61 C 170.37 242.34 170.82 245.13 170.22 247.82 C 168.36 249.42 166.12 250.50 164.01 251.72 C 153.35 245.72 142.60 239.87 131.83 234.07 C 131.81 231.65 130.70 228.70 132.83 226.85 C 134.04 225.64 135.18 223.79 136.98 223.56 C 140.72 224.26 144.06 226.19 147.35 228.01 C 147.36 222.72 146.81 217.44 146.94 212.15 C 147.86 213.23 148.89 214.42 148.73 215.97 C 148.84 221.29 148.65 226.62 148.76 231.95 C 145.21 229.81 141.74 227.38 137.73 226.22 C 136.09 226.60 134.86 227.94 133.47 228.81 C 133.57 230.15 133.67 231.51 133.78 232.86 C 139.27 235.19 144.14 238.72 149.57 241.18 C 154.63 243.43 159.51 246.05 164.29 248.85 C 165.68 247.99 167.59 247.53 168.24 245.85 C 169.12 243.79 168.63 240.68 166.32 239.79 C 162.16 237.68 157.87 235.81 153.79 233.51 C 154.19 225.32 153.19 217.06 154.61 208.94 C 137.80 215.78 120.81 222.16 103.93 228.84 C 106.01 230.14 108.30 231.00 110.67 231.62 C 112.94 232.12 114.11 234.35 115.56 235.93 C 111.99 240.76 105.66 241.67 100.11 240.59 C 97.26 239.26 94.50 236.95 91.16 237.52 C 88.13 237.90 85.10 237.53 82.07 237.50 C 75.52 239.63 69.25 242.50 62.80 244.90 C 65.96 247.93 70.75 252.52 67.37 257.06 C 66.64 257.08 65.18 257.12 64.45 257.14 C 59.74 261.15 51.63 259.76 48.40 254.53 C 47.83 252.93 47.67 251.23 47.14 249.64 C 45.77 248.33 43.98 247.57 42.35 246.64 C 42.26 256.49 42.17 266.34 42.42 276.18 C 47.28 279.04 51.74 282.50 56.20 285.94 C 56.25 288.59 56.29 291.25 56.32 293.91 C 54.31 295.11 52.29 296.32 50.28 297.53 C 39.99 288.81 28.51 281.60 17.97 273.18 C 17.91 270.88 17.82 268.58 17.81 266.27 C 19.94 265.05 22.06 263.83 24.21 262.65 C 27.31 265.02 30.54 267.24 33.41 269.89 C 32.67 260.96 32.27 251.95 33.05 243.01 C 28.24 239.05 22.09 236.92 17.47 232.66 C 15.78 230.65 16.11 227.78 15.75 225.33 C 17.11 223.90 18.51 222.37 20.47 221.80 C 26.12 219.81 31.76 217.77 37.44 215.84 C 39.18 215.11 41.53 214.80 41.77 212.40 C 42.47 212.81 43.18 213.22 43.88 213.63 C 46.72 212.49 49.61 211.45 52.47 210.38 C 52.60 206.85 53.48 203.38 55.32 200.35 C 59.03 194.10 59.51 186.48 63.50 180.37 C 65.34 177.43 66.01 173.98 66.94 170.68 C 61.35 171.82 55.28 172.05 50.16 169.18 C 50.25 172.69 50.34 176.19 50.24 179.70 C 44.20 186.72 49.05 195.97 50.46 203.76 C 48.21 201.62 47.59 198.49 46.47 195.72 C 44.39 200.16 42.80 204.87 42.60 209.80 C 41.97 210.44 41.33 211.07 40.69 211.70 C 40.72 205.49 43.09 199.73 45.00 193.95 C 45.76 188.53 46.01 183.01 48.03 177.85 C 48.22 173.69 48.83 168.56 45.52 165.40 C 46.29 159.20 45.96 152.95 43.98 147.02 C 45.16 139.14 46.77 131.18 49.75 123.73 C 51.66 119.13 49.55 114.18 48.52 109.62 C 44.65 115.71 37.67 118.11 32.02 122.07 C 29.76 123.81 26.78 123.23 24.14 123.40 C 23.64 121.26 23.00 119.13 21.82 117.26 C 17.22 109.70 18.59 100.29 20.03 92.01 C 20.52 92.78 21.01 93.56 21.48 94.34 C 20.80 99.20 20.26 104.13 20.80 109.03 C 20.97 113.62 24.17 117.23 25.35 121.53 C 27.95 121.69 30.45 121.01 32.52 119.41 C 36.75 116.37 41.95 114.51 45.27 110.33 C 47.01 108.16 48.65 105.91 50.45 103.80 C 49.65 108.31 51.04 112.67 52.02 117.03 C 53.12 120.92 50.94 124.62 49.52 128.10 C 54.07 132.57 60.73 134.35 66.98 133.62 C 72.93 133.04 79.68 132.68 84.12 128.16 C 86.46 123.04 88.14 117.64 90.76 112.63 C 88.76 112.47 86.76 112.03 84.75 112.25 C 82.89 112.53 82.84 113.95 83.59 115.34 C 85.12 119.81 81.97 124.02 78.04 125.81 C 79.71 123.00 81.99 120.32 82.17 116.90 C 82.30 115.33 80.64 114.12 79.18 115.05 C 77.04 115.42 74.98 116.12 72.88 116.66 C 74.90 113.54 78.58 113.00 81.99 112.59 C 82.60 110.73 83.32 108.74 82.20 106.91 C 78.89 107.91 77.25 111.62 73.95 112.90 C 73.50 112.69 72.61 112.26 72.16 112.05 C 74.97 110.01 77.09 106.78 80.47 105.68 C 83.57 104.66 84.21 108.52 85.54 110.41 C 87.46 110.48 89.29 111.06 90.93 112.07 C 91.41 109.03 91.75 105.97 91.72 102.90 C 91.46 99.46 95.18 97.36 95.25 93.96 C 95.89 89.39 93.95 83.31 98.90 80.56 C 96.35 84.93 97.42 89.98 97.25 94.77 C 100.34 95.98 103.49 98.00 106.95 97.27 C 110.29 96.75 113.68 96.52 117.07 96.75 C 119.14 96.85 121.89 96.81 123.03 94.76 C 127.11 84.31 124.30 72.97 126.01 62.15 C 127.67 59.61 126.41 57.11 123.95 55.75 C 120.74 55.86 117.63 56.77 114.51 57.45 C 113.42 60.31 111.70 63.23 113.00 66.33 C 114.04 67.16 115.14 67.93 116.03 68.92 C 117.36 73.59 115.84 78.55 112.50 81.97 C 114.50 83.90 116.02 86.26 115.40 89.20 C 114.02 87.41 112.92 85.36 111.21 83.85 C 108.09 81.59 103.81 82.34 100.61 80.41 C 98.54 77.81 96.74 74.94 94.00 72.95 C 91.46 74.37 88.83 75.59 86.04 76.43 C 85.25 77.87 84.45 79.30 83.64 80.73 C 84.04 81.37 84.46 82.00 84.87 82.63 C 86.87 80.52 89.05 78.59 91.33 76.79 C 91.96 80.16 88.22 81.42 86.01 83.00 C 84.80 84.12 83.51 85.17 82.15 86.11 C 82.58 85.25 83.43 83.53 83.85 82.67 C 83.22 82.72 81.97 82.82 81.35 82.87 C 82.52 80.50 83.72 78.15 84.98 75.83 C 80.20 74.54 75.35 72.09 73.33 67.28 C 72.76 66.83 72.20 66.37 71.63 65.92 C 70.88 68.02 70.36 70.24 69.24 72.19 C 66.93 73.88 64.35 75.17 61.99 76.79 C 61.91 77.59 61.83 78.38 61.76 79.18 C 63.23 80.11 66.40 80.60 64.48 82.87 C 62.84 81.99 61.32 80.88 59.76 79.87 C 59.96 79.23 60.35 77.96 60.55 77.33 C 56.50 78.86 51.60 78.91 48.43 82.23 C 46.07 84.25 45.11 87.29 44.03 90.08 C 45.72 90.00 47.49 89.35 49.17 89.84 C 50.66 90.25 50.43 91.99 50.68 93.16 C 50.16 92.69 49.12 91.75 48.60 91.28 C 47.27 91.00 45.94 90.72 44.61 90.43 C 40.92 93.21 37.31 96.12 34.36 99.71 C 37.71 103.75 38.06 109.15 36.72 114.06 C 35.23 111.52 36.06 108.56 35.69 105.80 C 34.58 102.42 31.61 99.69 31.51 95.98 C 31.50 92.73 31.69 89.27 33.25 86.36 C 35.59 84.99 38.11 83.94 40.38 82.43 C 40.05 81.84 39.39 80.67 39.07 80.09 C 40.31 77.56 38.94 75.32 37.58 73.21 C 33.82 74.59 29.73 74.74 25.96 76.06 C 24.15 76.69 24.52 78.90 24.50 80.37 C 22.33 80.88 20.14 81.29 17.93 81.60 C 18.07 82.31 18.36 83.72 18.50 84.43 C 21.13 83.71 23.89 83.09 26.58 83.95 C 25.46 84.53 24.33 85.08 23.20 85.63 C 22.82 88.08 22.40 90.53 21.97 92.97 C 21.44 92.18 20.92 91.38 20.40 90.58 C 20.72 89.05 21.06 87.52 21.40 86.00 C 20.75 86.01 19.47 86.02 18.83 86.03 C 18.96 93.94 18.44 102.78 13.03 109.06 C 9.99 112.94 4.35 112.58 0.00 111.79 L 0.00 109.87 C 3.13 109.80 6.43 110.36 9.45 109.37 C 13.78 106.78 15.45 101.55 16.31 96.85 C 17.54 87.77 16.85 77.98 12.02 69.98 C 9.48 65.95 5.10 62.18 0.00 63.23 L 0.00 61.87 C 3.42 61.25 7.23 61.67 9.83 64.18 C 14.32 68.46 16.35 74.55 17.99 80.37 C 19.42 79.84 20.86 79.31 22.29 78.78 C 22.78 76.78 23.60 74.53 25.74 73.79 C 29.86 72.50 34.23 72.23 38.38 71.02 C 39.14 72.43 39.93 73.83 40.74 75.21 C 49.94 72.90 59.30 71.28 68.51 69.03 C 69.08 67.42 69.67 65.82 70.27 64.22 C 65.96 59.27 65.29 51.01 69.92 46.08 C 76.05 41.33 86.16 41.59 91.16 47.87 C 94.21 52.40 95.85 57.87 95.82 63.33 C 100.64 62.33 105.55 61.67 110.28 60.30 C 112.03 59.06 111.90 55.93 114.29 55.38 C 118.76 53.92 124.41 52.83 128.12 56.57 C 134.10 55.36 140.02 53.85 146.04 52.78 C 147.02 54.79 147.72 56.97 146.44 59.04 C 143.55 59.56 140.70 60.26 137.86 61.04 C 137.45 61.84 137.03 62.64 136.63 63.44 C 138.76 70.22 142.30 79.77 151.05 79.02 C 152.35 76.22 153.83 73.48 154.95 70.60 C 157.91 61.85 157.13 52.12 153.75 43.62 C 152.33 39.81 149.43 36.86 147.49 33.34 C 151.52 34.39 153.48 38.43 155.07 41.89 C 158.97 52.00 159.67 63.62 155.77 73.84 C 155.38 75.07 154.30 75.82 153.35 76.60 C 153.12 77.21 152.64 78.43 152.40 79.05 C 157.97 78.48 160.42 72.83 161.76 68.14 C 164.02 58.94 163.04 48.85 158.68 40.40 C 156.82 36.69 153.68 33.49 149.71 32.14 C 146.16 31.95 142.05 32.76 140.03 36.00 C 135.65 41.37 136.65 48.68 134.70 54.92 C 133.14 48.01 135.20 40.72 138.81 34.80 M 71.00 48.31 C 67.69 51.32 68.28 56.27 68.61 60.30 C 70.14 59.34 71.57 58.11 73.33 57.60 C 74.64 57.31 74.70 59.01 75.11 59.83 C 74.28 59.66 72.61 59.32 71.77 59.15 C 71.49 59.84 70.92 61.22 70.64 61.92 C 72.35 64.88 75.48 66.94 78.83 67.56 C 78.04 68.23 77.25 68.90 76.46 69.58 C 78.86 71.20 81.19 73.14 84.09 73.78 C 87.16 74.20 90.10 72.90 92.89 71.80 C 94.36 66.33 94.13 60.39 92.47 54.99 C 91.19 51.54 89.64 47.64 86.02 46.06 C 81.28 43.18 74.80 44.41 71.00 48.31 M 128.31 58.25 C 128.33 58.97 128.37 60.43 128.39 61.16 C 133.82 59.93 139.23 58.52 144.76 57.77 C 145.07 57.34 145.70 56.48 146.01 56.05 C 145.49 55.80 144.46 55.30 143.95 55.05 C 138.74 56.12 133.59 57.56 128.31 58.25 M 95.40 65.48 C 95.37 66.42 95.35 67.36 95.32 68.30 C 100.57 66.77 105.97 65.93 111.28 64.67 C 111.41 63.98 111.66 62.61 111.79 61.92 C 106.29 62.91 100.85 64.23 95.40 65.48 M 94.26 70.73 C 96.20 72.39 98.91 73.44 99.94 75.94 C 100.88 77.33 101.17 79.49 102.96 80.07 C 105.72 80.40 108.55 80.48 111.19 81.51 C 112.19 80.07 113.37 78.71 114.05 77.06 C 114.84 73.94 115.85 69.19 111.58 68.29 C 111.19 67.99 110.42 67.38 110.03 67.08 C 104.73 68.03 99.43 69.18 94.26 70.73 M 40.59 77.16 C 40.58 77.79 40.55 79.05 40.54 79.67 C 48.44 77.97 56.38 76.39 64.30 74.79 C 64.96 73.75 65.64 72.73 66.33 71.71 C 57.74 73.48 49.15 75.24 40.59 77.16 M 41.94 81.60 C 41.71 86.02 36.95 86.88 33.95 88.92 C 33.21 92.01 33.34 95.23 33.35 98.39 C 35.78 95.37 38.59 92.74 41.74 90.49 C 43.29 87.00 44.44 83.24 47.20 80.44 C 45.45 80.83 43.69 81.21 41.94 81.60 M 46.86 136.29 C 46.85 139.90 44.93 143.33 45.78 146.96 C 45.96 149.53 47.24 151.79 47.98 154.20 C 48.70 157.74 48.17 161.37 47.67 164.90 C 50.98 167.92 55.52 169.72 60.03 169.56 C 61.76 169.69 63.64 169.40 65.22 170.30 C 65.96 169.49 66.67 168.65 67.40 167.82 C 66.53 167.74 64.78 167.59 63.91 167.51 C 65.31 166.00 67.10 164.96 68.66 163.65 C 69.17 161.50 69.33 159.28 69.67 157.10 C 71.96 156.29 74.27 155.55 76.60 154.88 C 77.69 152.94 78.57 150.57 80.93 149.91 C 80.00 152.47 78.69 154.87 77.06 157.06 C 76.38 157.05 75.02 157.01 74.34 156.99 C 73.32 157.67 72.23 158.26 71.27 159.02 C 71.12 160.53 71.12 162.04 71.04 163.55 C 70.19 164.65 69.32 165.76 68.59 166.95 C 68.20 172.00 67.87 177.44 64.72 181.65 C 62.48 184.53 62.08 188.29 60.64 191.57 C 58.54 196.90 59.26 202.64 59.41 208.21 C 65.43 205.80 71.59 203.77 77.76 201.78 C 78.04 198.69 77.98 195.58 78.31 192.50 C 78.76 191.55 78.45 189.32 79.76 189.22 C 80.50 192.93 80.12 196.85 80.99 200.59 C 84.40 199.44 87.85 198.45 91.23 197.20 C 90.18 190.79 91.15 184.26 92.21 177.92 C 92.15 176.20 91.31 174.65 90.76 173.05 C 89.40 175.13 88.01 178.05 85.07 177.96 C 82.58 177.23 81.70 174.24 81.25 171.94 C 82.57 173.89 84.20 175.60 86.15 176.94 C 89.10 175.54 87.80 170.43 91.31 170.32 C 90.71 166.29 90.64 162.22 90.64 158.15 C 86.78 162.16 81.36 164.29 75.83 164.31 C 74.26 163.29 72.29 162.62 71.47 160.78 C 74.57 161.46 77.77 162.98 80.96 161.82 C 85.38 160.96 87.88 156.74 92.07 155.36 C 89.04 152.88 89.62 148.76 88.36 145.44 C 84.73 143.48 86.95 139.09 87.08 135.92 C 85.84 134.48 84.56 133.01 83.95 131.17 C 80.81 133.67 77.09 135.43 73.05 135.72 C 64.93 137.33 55.74 136.12 49.56 130.20 C 49.37 132.53 48.69 134.73 46.86 136.29 M 132.91 185.45 C 120.11 190.00 106.67 192.68 94.28 198.37 C 91.28 199.34 88.03 199.46 85.12 200.77 C 67.88 208.42 49.60 213.31 32.00 220.03 C 27.02 222.11 21.08 222.59 17.23 226.76 C 18.10 231.46 22.76 233.33 26.30 235.71 C 34.13 239.80 41.54 245.30 50.44 246.77 C 54.98 245.98 59.16 243.79 63.53 242.36 C 76.00 237.13 89.09 233.30 101.19 227.25 C 107.34 225.85 113.01 222.99 118.92 220.88 C 136.54 213.75 154.72 207.93 171.83 199.62 C 173.12 199.22 174.69 197.05 173.25 196.01 C 168.91 193.23 163.92 191.78 159.03 190.33 C 152.94 188.60 147.02 186.28 140.88 184.75 C 138.22 183.90 135.46 184.62 132.91 185.45 M 54.31 209.82 C 55.33 209.42 56.36 209.07 57.34 208.57 C 57.78 205.97 57.38 203.31 57.18 200.70 C 55.40 203.42 54.37 206.57 54.31 209.82 M 86.34 235.36 L 86.32 236.28 C 91.20 235.75 96.59 235.17 100.46 238.84 C 102.73 238.82 104.99 238.94 107.20 239.47 C 109.37 238.66 111.32 237.43 113.19 236.09 C 110.47 232.30 104.85 233.45 101.82 229.76 C 96.59 231.45 91.69 234.08 86.34 235.36 M 33.44 243.20 C 35.40 253.43 34.74 263.88 34.68 274.24 C 34.22 274.26 33.30 274.30 32.84 274.32 C 32.06 270.27 27.69 268.68 25.06 265.93 C 22.70 263.38 20.50 267.41 18.92 268.87 C 19.88 271.69 22.25 273.54 24.59 275.20 C 29.75 278.77 34.49 282.92 39.83 286.23 C 43.43 288.52 46.35 291.78 50.12 293.82 C 54.59 294.78 55.29 288.92 53.17 286.15 C 48.93 283.35 44.49 280.75 40.87 277.14 C 39.94 277.29 39.01 277.46 38.08 277.63 C 38.96 276.23 40.00 274.80 39.73 273.04 C 39.58 264.14 39.93 255.22 39.59 246.33 C 37.83 244.81 35.75 243.60 33.44 243.20 M 49.91 249.80 C 49.88 250.92 50.01 252.02 50.04 253.15 C 52.89 257.41 59.05 258.73 63.01 255.17 C 62.53 254.75 61.57 253.89 61.09 253.46 C 57.92 254.19 54.70 253.93 51.51 253.54 C 52.65 251.47 54.93 252.14 56.87 252.33 C 58.55 252.17 60.28 251.49 61.98 251.90 C 63.06 252.69 63.48 254.07 64.27 255.11 C 65.44 254.79 66.60 254.48 67.77 254.16 C 65.87 250.93 63.49 248.03 60.84 245.39 C 57.45 247.46 53.53 248.27 49.91 249.80 Z" />
<path fill="#333333" opacity="1.00" d=" M 1.64 64.83 C 4.38 64.44 5.75 67.04 7.05 68.94 C 12.78 78.11 13.51 89.64 11.56 100.05 C 10.67 103.30 9.81 107.88 5.77 108.43 C 10.91 100.69 11.53 90.91 10.01 81.98 C 8.99 77.74 7.96 73.28 5.24 69.75 C 4.02 68.13 2.71 66.56 1.64 64.83 Z" />
<path fill="#333333" opacity="1.00" d=" M 121.22 75.35 C 121.11 72.50 119.02 69.29 120.72 66.64 C 121.28 67.66 121.84 68.68 122.41 69.70 C 122.42 71.65 122.94 73.92 121.22 75.35 Z" />
<path fill="#333333" opacity="1.00" d=" M 72.57 71.70 C 74.39 74.11 74.10 77.37 74.72 80.20 C 71.68 78.66 72.38 74.50 72.57 71.70 Z" />
<path fill="#333333" opacity="1.00" d=" M 76.32 79.55 C 76.77 79.47 77.67 79.33 78.12 79.26 C 78.36 80.17 78.83 82.00 79.07 82.91 C 78.66 82.88 77.85 82.81 77.45 82.78 C 78.50 84.03 79.43 85.38 80.01 86.92 C 78.55 86.38 77.19 85.62 75.90 84.77 C 73.02 82.61 68.94 84.08 66.06 81.77 C 67.28 82.00 68.50 82.25 69.71 82.47 C 72.42 82.19 75.50 82.90 77.78 81.05 C 77.42 80.67 76.68 79.92 76.32 79.55 Z" />
<path fill="#333333" opacity="1.00" d=" M 0.00 83.90 C 1.35 86.21 1.85 88.96 0.00 91.18 L 0.00 83.90 Z" />
<path fill="#333333" opacity="1.00" d=" M 97.70 87.49 C 100.03 88.01 101.68 89.76 103.18 91.49 C 101.10 90.54 98.15 90.25 97.70 87.49 Z" />
<path fill="#333333" opacity="1.00" d=" M 105.22 89.12 C 107.82 89.45 110.30 90.39 112.91 90.65 C 114.68 90.24 116.38 89.57 118.14 89.09 C 115.42 93.77 108.55 92.27 105.22 89.12 Z" />
<path fill="#333333" opacity="1.00" d=" M 53.50 92.34 C 54.90 91.73 57.91 92.81 57.04 94.66 C 55.68 95.11 53.81 93.51 53.50 92.34 Z" />
<path fill="#333333" opacity="1.00" d=" M 56.05 97.18 L 56.89 96.68 C 62.08 98.79 66.11 102.96 69.83 107.04 C 69.94 107.68 70.16 108.95 70.27 109.58 C 67.54 108.53 66.00 105.91 63.95 103.99 C 61.60 101.39 58.43 99.74 56.05 97.18 Z" />
<path fill="#333333" opacity="1.00" d=" M 48.72 100.83 C 49.73 99.55 50.42 97.76 52.26 97.48 C 50.22 102.34 46.67 107.95 40.97 108.63 C 43.50 105.98 46.76 104.01 48.72 100.83 Z" />
<path fill="#333333" opacity="1.00" d=" M 83.07 98.27 C 85.39 99.14 87.75 99.87 90.06 100.77 C 88.61 101.21 87.11 101.38 85.61 101.39 C 85.13 100.74 84.64 100.11 84.15 99.47 C 81.86 105.54 74.36 104.20 69.25 104.15 C 70.88 101.34 74.50 102.51 77.14 102.11 C 79.88 102.49 81.48 100.02 83.07 98.27 Z" />
<path fill="#333333" opacity="1.00" d=" M 84.44 104.33 C 85.50 103.23 87.78 103.71 88.19 105.22 C 87.93 107.08 83.68 106.06 84.44 104.33 Z" />
<path fill="#333333" opacity="1.00" d=" M 56.07 108.06 C 57.77 107.78 58.95 109.03 60.14 110.01 C 62.03 109.53 63.92 109.03 65.86 108.75 C 64.94 110.07 63.70 110.96 62.15 111.43 C 62.15 115.67 66.61 117.63 68.34 121.11 C 65.41 120.66 63.86 118.08 62.19 115.95 C 61.15 116.35 60.11 116.71 59.05 117.03 C 57.24 116.23 55.93 114.72 54.80 113.16 C 57.04 113.59 59.28 115.55 61.55 114.27 C 62.82 112.22 59.84 112.18 58.83 111.17 C 57.64 110.40 56.94 109.13 56.07 108.06 Z" />
<path fill="#333333" opacity="1.00" d=" M 65.64 110.40 C 67.76 112.35 70.29 114.29 71.07 117.19 C 68.27 116.01 65.83 113.59 65.64 110.40 Z" />
<path fill="#333333" opacity="1.00" d=" M 62.29 120.20 C 64.84 121.22 66.73 123.38 67.65 125.96 C 65.16 124.83 63.30 122.72 62.29 120.20 Z" />
<path fill="#333333" opacity="1.00" d=" M 67.77 122.20 C 70.16 123.78 69.65 127.14 68.80 129.46 C 68.25 127.07 67.84 124.65 67.77 122.20 Z" />
<path fill="#333333" opacity="1.00" d=" M 48.21 137.23 C 48.82 137.70 48.82 137.70 48.21 137.23 Z" />
<path fill="#333333" opacity="1.00" d=" M 53.09 141.70 C 54.98 139.27 57.33 136.35 60.81 136.88 C 58.72 139.17 55.93 140.58 53.09 141.70 Z" />
<path fill="#333333" opacity="1.00" d=" M 69.07 137.94 C 73.30 136.46 77.81 137.17 82.19 137.12 C 81.97 137.68 81.52 138.80 81.30 139.36 C 77.36 141.22 73.25 142.70 69.34 144.62 C 69.11 145.10 68.64 146.07 68.41 146.55 C 73.50 145.94 78.63 145.62 83.63 144.39 C 83.50 144.81 83.24 145.66 83.11 146.08 C 77.59 147.89 71.72 147.58 66.07 148.58 C 64.21 148.89 62.01 149.25 60.59 147.70 C 62.87 147.08 65.75 147.43 67.22 145.21 C 70.46 141.46 75.66 140.69 79.53 137.83 C 73.89 138.23 68.52 140.16 63.08 141.58 C 63.70 138.84 66.89 138.76 69.07 137.94 Z" />
<path fill="#333333" opacity="1.00" d=" M 58.41 148.92 C 59.76 148.32 61.25 150.44 60.78 151.66 C 59.47 152.07 57.82 150.18 58.41 148.92 Z" />
<path fill="#333333" opacity="1.00" d=" M 72.22 166.23 C 72.56 166.04 73.24 165.66 73.58 165.47 C 76.62 169.82 80.14 174.44 80.04 180.03 C 80.19 183.97 84.64 187.05 82.71 191.09 C 82.34 190.48 81.59 189.25 81.22 188.63 C 79.83 188.13 77.82 187.05 79.17 185.18 C 77.52 182.35 76.57 179.25 76.65 175.96 C 76.53 172.19 72.38 169.78 72.22 166.23 Z" />
<path fill="#333333" opacity="1.00" d=" M 52.39 180.75 C 54.81 180.71 57.13 180.05 59.31 179.00 C 59.83 180.40 60.36 181.81 60.79 183.26 C 59.89 182.55 59.12 181.73 58.47 180.79 C 56.89 181.20 55.30 181.60 53.72 182.00 C 53.26 183.04 52.79 184.09 52.30 185.12 C 52.30 183.66 52.34 182.20 52.39 180.75 Z" />
<path fill="#333333" opacity="1.00" d=" M 53.19 189.94 C 54.36 187.87 56.60 189.09 58.34 189.31 C 56.93 190.88 54.98 190.99 53.19 189.94 Z" />
</g>
</svg>
