<?xml version="1.0" encoding="UTF-8" ?>
<!DOCTYPE svg PUBLIC "-//W3C//DTD SVG 1.1//EN" "http://www.w3.org/Graphics/SVG/1.1/DTD/svg11.dtd">
<svg width="278pt" height="175pt" viewBox="0 0 278 175" version="1.1" xmlns="http://www.w3.org/2000/svg">
<g id="#ffffffff">
<path fill="#FFFFFF" opacity="1.00" d=" M 0.00 0.00 L 278.00 0.00 L 278.00 148.50 C 275.87 145.78 277.35 142.23 276.77 139.12 C 275.55 135.39 273.08 132.24 271.25 128.82 C 269.53 121.72 268.48 113.69 262.77 108.51 C 260.56 106.42 257.42 107.41 254.76 107.58 C 255.35 106.93 256.55 105.63 257.14 104.98 C 257.86 99.28 259.33 92.63 255.31 87.77 C 252.11 82.82 245.15 79.50 239.65 82.60 C 232.71 88.19 226.24 94.35 219.52 100.20 C 214.77 98.87 209.82 98.85 204.98 98.14 C 201.66 96.95 198.87 94.62 195.65 93.19 C 190.23 86.67 184.05 79.98 175.84 77.12 C 173.03 69.72 162.09 69.85 160.55 61.68 C 155.13 56.90 147.54 52.62 140.19 55.42 C 134.96 57.52 129.47 58.92 124.37 61.33 C 121.35 59.33 117.86 58.24 114.24 58.22 C 112.50 56.76 110.58 55.56 108.72 54.27 C 105.42 52.16 105.72 46.83 101.60 45.62 C 96.26 44.20 91.13 42.07 85.73 40.90 C 84.58 39.38 83.47 37.83 82.33 36.29 C 83.25 33.69 84.83 31.03 84.27 28.17 C 83.61 25.55 82.97 22.87 81.74 20.45 C 79.54 18.57 77.22 16.13 74.08 16.24 C 68.57 16.07 62.14 15.60 58.03 20.05 C 53.43 23.74 52.83 30.33 54.03 35.73 C 55.17 40.60 54.85 46.18 58.48 50.09 C 53.03 51.83 50.56 57.73 50.00 62.97 C 49.84 66.47 49.58 69.97 49.42 73.47 C 47.44 76.42 46.01 79.68 44.76 82.99 C 41.40 82.93 38.05 82.79 34.70 82.52 C 33.94 78.78 32.84 73.36 28.15 73.03 C 23.83 73.99 18.94 74.64 15.93 78.25 C 17.64 82.54 17.46 87.61 20.74 91.19 C 25.04 92.09 30.13 92.01 33.31 95.54 C 37.58 100.15 43.12 103.64 49.44 104.49 C 60.46 107.87 71.13 112.34 82.04 116.07 C 102.74 123.71 123.51 131.15 144.40 138.26 C 144.74 139.57 145.03 140.91 145.52 142.18 C 153.42 141.82 161.08 139.69 168.94 138.97 C 168.19 138.43 167.45 137.90 166.71 137.37 C 163.44 137.71 160.19 138.16 156.93 138.50 C 153.79 139.00 150.95 137.22 148.15 136.12 C 116.44 125.97 85.14 114.46 53.50 104.08 C 55.03 103.15 56.54 102.19 58.04 101.22 C 58.11 100.34 58.27 98.57 58.34 97.69 C 61.52 98.16 64.57 99.17 67.51 100.42 C 101.96 112.75 136.29 125.42 171.02 136.95 L 168.00 137.01 C 168.77 137.52 169.54 138.04 170.31 138.55 C 176.91 138.05 183.51 137.57 190.06 136.62 C 196.30 135.82 202.96 135.38 208.29 131.66 C 211.19 129.15 213.71 126.15 217.09 124.24 C 218.11 125.60 220.52 126.75 219.58 128.78 C 216.55 135.02 210.20 139.04 203.44 140.10 C 190.26 142.30 176.87 142.85 163.69 145.02 C 156.93 146.36 150.02 146.73 143.17 147.37 C 140.97 147.73 139.88 145.31 138.52 144.04 C 139.65 141.92 140.72 139.77 141.73 137.59 C 140.79 137.66 138.89 137.79 137.95 137.86 C 136.16 140.06 134.50 142.48 134.50 145.44 C 136.98 147.13 139.12 149.40 141.90 150.60 C 150.65 150.11 159.27 148.15 167.99 147.28 C 170.44 146.89 172.69 148.12 174.94 148.86 C 178.10 150.08 181.59 150.43 184.94 149.99 C 187.57 148.63 189.59 146.39 191.78 144.45 C 198.19 143.19 204.95 143.39 211.01 140.71 C 212.60 139.90 214.33 140.71 215.95 140.96 C 222.32 142.70 229.13 142.10 235.37 144.42 C 242.36 147.42 247.44 153.44 251.62 159.58 C 255.88 163.14 261.41 165.01 266.97 164.32 C 271.77 164.56 272.16 158.24 271.20 154.87 C 275.06 156.52 276.52 151.79 277.96 149.33 C 277.97 149.45 277.99 149.69 278.00 149.81 L 278.00 175.00 L 0.00 175.00 L 0.00 0.00 Z" />
<path fill="#FFFFFF" opacity="1.00" d=" M 63.96 18.53 C 67.60 17.65 71.41 17.26 75.14 17.84 C 82.19 20.09 85.20 30.79 79.47 35.90 C 81.37 37.88 82.86 40.20 84.18 42.60 C 88.01 42.11 91.97 42.66 95.35 44.58 C 95.68 45.03 96.34 45.94 96.67 46.39 C 98.59 46.67 100.90 46.10 102.40 47.65 C 104.80 50.90 106.07 55.12 109.74 57.28 C 112.50 60.07 116.59 60.36 120.28 60.53 C 120.98 61.31 121.70 62.09 122.42 62.86 C 118.84 65.47 115.98 68.97 113.32 72.48 C 111.11 75.21 111.05 78.78 110.17 82.02 C 108.90 86.48 109.85 91.11 109.72 95.66 C 106.04 96.19 102.50 94.86 98.86 94.69 C 94.49 94.25 90.36 96.48 85.97 95.58 C 80.00 96.19 73.85 93.29 71.22 87.76 C 70.29 85.23 67.85 84.15 65.68 82.92 C 65.57 79.95 66.05 77.00 66.40 74.06 C 70.60 74.20 77.60 75.04 78.41 69.36 C 74.64 70.22 71.12 71.96 67.26 72.48 C 67.99 71.28 68.70 70.06 69.38 68.82 C 68.08 69.58 66.52 70.10 65.54 71.32 C 65.07 74.65 65.36 78.08 64.53 81.37 C 63.65 86.17 61.19 90.47 58.69 94.59 C 57.47 96.61 57.31 99.17 55.80 101.02 C 50.70 102.23 45.09 101.50 40.97 98.08 C 36.18 94.02 30.50 90.27 24.01 90.08 C 22.95 89.76 21.88 89.45 20.80 89.16 C 19.17 85.70 17.95 81.74 18.89 77.91 C 22.58 77.69 26.08 76.81 29.18 74.76 C 32.62 75.98 31.62 80.79 33.43 83.50 C 36.81 85.62 40.77 85.42 44.56 84.85 C 44.40 85.56 44.08 86.98 43.92 87.69 C 46.81 87.41 47.16 84.26 48.00 82.10 C 48.73 79.41 50.66 77.34 52.17 75.07 C 52.57 72.71 53.16 70.38 53.71 68.05 C 53.21 68.49 52.19 69.38 51.69 69.82 C 52.37 65.80 51.47 61.43 53.66 57.78 C 55.45 53.18 60.04 50.51 64.65 49.46 C 69.01 47.21 72.61 43.24 77.85 43.03 C 77.58 42.75 77.06 42.18 76.80 41.89 C 73.80 42.73 70.56 43.15 67.95 44.97 C 65.65 46.54 63.21 47.91 60.56 48.80 C 60.33 49.13 59.88 49.80 59.65 50.14 C 58.16 43.81 55.85 37.59 55.28 31.10 C 54.42 25.41 58.78 20.23 63.96 18.53 M 66.89 27.52 C 67.76 28.66 69.02 29.55 69.55 30.92 C 69.66 35.81 66.74 39.87 65.24 44.32 C 67.55 42.81 68.64 40.21 68.76 37.53 C 69.77 36.44 70.70 35.28 71.61 34.10 C 71.18 31.22 70.44 27.77 66.89 27.52 M 73.06 36.51 C 73.39 36.64 74.06 36.90 74.40 37.04 C 75.49 35.52 77.19 34.76 78.79 33.92 C 76.32 33.15 74.18 34.19 73.06 36.51 M 83.92 43.35 C 88.43 48.59 93.93 53.38 96.16 60.14 C 99.24 62.68 103.24 63.30 107.12 63.21 C 105.81 60.24 102.30 61.32 99.94 60.14 C 97.56 58.45 96.25 55.77 94.45 53.55 C 91.70 49.47 88.17 45.87 83.92 43.35 M 98.89 50.77 C 100.04 53.39 101.27 55.96 102.32 58.62 C 103.83 55.40 101.37 52.55 98.89 50.77 M 69.71 54.66 C 72.93 56.69 76.50 54.35 79.89 54.19 C 81.74 58.86 86.12 61.35 90.43 63.36 C 92.66 63.77 94.95 63.58 97.21 63.66 C 94.16 62.02 90.68 61.28 87.83 59.27 C 85.95 57.85 83.16 56.73 83.32 53.92 C 82.34 53.19 81.37 52.47 80.39 51.74 C 76.81 52.64 73.20 53.44 69.71 54.66 M 60.94 56.11 C 61.87 56.34 62.80 56.57 63.74 56.79 C 64.91 58.92 65.74 61.96 68.74 61.83 C 67.52 59.12 65.86 56.65 64.32 54.13 C 63.20 54.80 62.07 55.46 60.94 56.11 M 72.71 62.47 C 75.19 64.77 78.63 65.75 81.96 65.71 C 82.95 64.93 83.75 63.96 84.61 63.05 C 80.63 64.19 76.64 63.26 72.71 62.47 M 96.94 70.03 C 99.75 74.28 105.46 75.36 110.03 73.61 C 105.50 73.09 101.05 72.05 96.94 70.03 M 70.60 76.41 C 72.54 77.69 74.88 77.75 77.11 77.91 C 75.82 79.05 74.51 80.17 73.20 81.30 C 73.84 81.60 75.13 82.20 75.78 82.50 C 75.82 84.42 75.77 86.35 75.77 88.27 C 76.57 87.27 77.35 86.26 78.11 85.23 C 77.73 83.75 77.37 82.27 77.03 80.78 C 77.82 79.53 78.55 78.24 79.17 76.88 C 80.25 76.28 81.33 75.69 82.42 75.11 C 83.41 77.99 80.77 79.39 79.10 81.14 L 81.30 81.05 C 82.19 83.09 82.83 85.22 83.70 87.26 C 83.70 84.94 83.58 82.60 82.54 80.48 C 85.51 79.06 83.70 76.33 83.02 74.09 C 86.35 73.80 89.09 75.73 92.13 76.64 C 95.92 77.14 99.85 78.62 103.55 76.95 C 96.73 77.13 90.69 72.71 83.94 72.60 C 79.54 74.12 75.47 76.73 70.60 76.41 M 52.53 84.68 C 51.19 87.38 49.97 90.15 47.98 92.47 C 51.72 91.78 52.89 87.80 54.56 84.93 C 56.23 84.37 59.86 84.98 59.03 82.12 C 56.83 82.88 54.65 83.72 52.53 84.68 M 88.51 82.11 C 88.98 84.57 89.47 87.03 89.58 89.53 C 90.08 88.48 90.59 87.42 91.10 86.37 C 90.76 85.97 90.07 85.17 89.73 84.77 C 89.34 83.88 88.93 82.99 88.51 82.11 Z" />
<path fill="#FFFFFF" opacity="1.00" d=" M 121.68 65.38 C 129.45 61.09 137.76 56.29 146.94 56.63 C 152.50 56.63 156.01 61.27 160.20 64.16 C 161.91 67.40 164.72 70.78 168.67 70.95 C 169.92 72.17 171.17 73.40 172.46 74.59 C 168.21 76.35 161.66 80.75 164.92 85.99 C 166.03 82.41 167.70 78.16 171.98 77.61 C 175.48 78.32 178.64 80.13 181.70 81.92 C 186.02 85.41 189.58 89.94 194.71 92.37 C 194.72 92.87 194.75 93.88 194.77 94.39 C 198.40 96.43 201.49 100.03 205.91 100.19 C 209.81 100.37 213.69 100.77 217.46 101.87 C 215.66 103.50 213.85 105.12 212.01 106.71 C 208.61 105.07 204.81 105.05 201.14 104.71 C 196.28 103.61 192.55 100.01 188.17 97.87 C 189.84 101.02 192.87 103.16 195.77 105.09 C 200.59 106.34 205.50 107.32 210.44 107.94 C 208.76 109.34 207.22 110.93 206.38 113.00 C 202.62 112.58 198.81 112.61 195.08 112.03 C 191.82 110.52 189.71 107.44 186.94 105.27 C 184.35 104.78 181.68 104.79 179.12 104.13 C 178.86 104.29 178.34 104.61 178.08 104.76 C 173.78 97.70 169.34 89.69 161.37 86.28 C 161.49 85.85 161.72 84.99 161.83 84.56 C 151.66 83.19 142.64 90.52 138.09 99.04 C 135.43 102.23 134.71 106.50 135.47 110.52 C 133.09 108.87 129.58 108.41 128.25 105.57 C 127.27 103.95 126.85 101.96 125.43 100.63 C 123.52 99.51 121.25 99.30 119.19 98.53 C 119.37 96.20 119.47 93.84 119.03 91.53 C 118.50 92.83 117.93 94.12 117.33 95.39 C 115.82 96.35 114.01 96.73 112.38 97.46 C 112.98 92.93 110.77 88.40 112.31 83.96 C 113.08 81.30 113.39 78.54 114.01 75.85 C 116.09 72.05 119.46 69.12 121.68 65.38 M 154.13 74.95 C 153.07 79.40 157.22 83.39 161.53 83.16 C 160.08 81.91 158.42 80.93 156.98 79.67 C 155.61 78.14 155.62 75.95 155.26 74.05 C 154.98 74.27 154.41 74.72 154.13 74.95 M 113.84 88.06 C 114.39 90.63 113.49 94.38 116.66 95.44 C 116.54 89.68 116.38 83.93 116.17 78.17 C 114.72 81.25 113.10 84.56 113.84 88.06 M 170.50 83.06 C 173.14 86.69 178.26 87.49 180.84 91.22 C 182.25 93.11 183.86 94.87 185.94 96.03 C 182.44 90.23 177.52 84.35 170.50 83.06 Z" />
<path fill="#FFFFFF" opacity="1.00" d=" M 235.50 89.50 C 238.19 87.25 240.83 84.80 243.99 83.25 C 248.63 82.64 253.07 86.04 254.73 90.25 C 257.18 94.45 256.60 99.56 255.25 104.00 C 251.17 109.91 246.51 115.40 242.28 121.20 C 241.03 122.97 239.67 124.66 238.05 126.11 C 235.01 129.65 232.54 133.63 229.53 137.19 C 232.66 127.95 228.89 116.35 219.51 112.51 C 219.41 111.88 219.23 110.61 219.13 109.98 C 218.82 110.41 218.21 111.27 217.90 111.70 C 216.83 111.92 215.76 112.15 214.70 112.39 C 216.64 113.42 218.69 114.27 220.88 114.63 C 223.45 116.91 226.16 119.24 227.61 122.44 C 229.14 127.41 229.91 133.67 225.87 137.71 C 222.82 140.58 218.32 139.59 214.87 138.09 C 216.97 136.03 218.96 133.86 221.20 131.96 C 221.46 129.77 221.65 127.58 221.62 125.38 C 219.99 123.96 218.53 122.36 216.92 120.91 C 213.23 120.81 211.25 124.26 210.14 127.28 C 209.77 127.46 209.02 127.82 208.65 128.01 C 208.17 125.74 206.77 123.35 207.97 121.08 C 209.14 118.26 209.70 115.24 209.71 112.20 C 213.44 108.36 218.08 105.52 221.89 101.76 C 226.18 97.39 231.43 94.09 235.50 89.50 Z" />
<path fill="#FFFFFF" opacity="1.00" d=" M 65.88 84.14 C 68.53 86.99 69.75 90.82 72.45 93.67 C 75.96 95.14 79.13 97.48 82.94 98.15 C 87.03 98.80 91.23 98.42 95.19 97.28 C 99.50 95.93 103.64 99.07 107.97 98.10 C 111.27 97.56 114.63 98.02 117.91 97.36 C 118.33 98.61 118.72 99.88 119.11 101.15 C 120.67 101.47 122.28 101.64 123.79 102.20 C 125.29 104.18 124.90 107.42 127.42 108.63 C 130.66 110.50 133.86 112.89 137.77 112.96 C 142.28 114.15 145.39 118.48 150.13 119.24 C 153.53 119.64 156.59 121.27 159.47 123.02 C 163.58 128.34 170.87 129.88 177.23 130.09 C 180.65 130.76 183.75 132.42 186.81 134.04 C 181.51 134.21 175.87 136.92 170.84 134.15 C 133.63 121.68 96.83 108.06 59.61 95.58 C 62.20 92.07 64.15 88.13 65.88 84.14 Z" />
<path fill="#FFFFFF" opacity="1.00" d=" M 148.86 90.58 C 151.78 87.66 155.96 86.28 160.04 86.39 C 166.43 90.16 171.20 95.98 174.87 102.35 C 179.14 107.52 183.91 113.33 190.96 114.36 C 196.45 114.77 202.54 114.15 207.49 116.70 C 206.07 120.61 205.90 124.80 206.75 128.86 C 205.05 129.84 203.38 130.87 201.72 131.91 C 194.27 130.30 187.65 126.50 180.45 124.20 C 185.39 128.11 191.11 131.10 197.06 133.16 C 194.54 133.19 192.01 133.63 189.49 133.37 C 185.78 132.51 182.92 129.50 179.02 129.21 C 174.54 128.86 170.38 127.13 166.06 126.03 C 162.53 124.69 160.46 120.97 156.92 119.70 C 149.45 118.58 142.89 114.41 137.24 109.61 C 136.30 106.37 138.58 103.52 140.15 100.92 C 142.11 96.79 145.41 93.49 148.86 90.58 M 159.17 93.15 C 162.19 95.69 165.60 98.14 167.13 101.94 C 167.80 103.71 169.08 105.08 170.73 105.98 C 168.40 100.65 165.04 95.04 159.17 93.15 M 145.56 94.99 C 147.83 96.78 150.70 97.43 153.23 98.73 C 155.24 100.03 156.70 101.98 158.47 103.58 C 162.71 107.22 164.34 112.83 167.80 117.10 C 169.70 119.45 172.87 119.66 175.55 120.55 C 171.82 118.72 168.29 116.30 166.92 112.17 C 164.26 106.98 160.60 102.38 156.10 98.67 C 152.85 96.82 149.48 94.66 145.56 94.99 M 172.10 113.23 C 173.19 114.50 174.44 115.69 176.22 115.82 C 180.21 116.45 183.31 119.96 187.55 119.33 C 183.05 115.82 177.43 114.81 172.10 113.23 M 189.03 121.31 C 192.69 123.83 197.53 122.76 201.49 124.65 C 201.58 124.25 201.77 123.46 201.87 123.06 C 197.62 122.29 193.36 121.42 189.03 121.31 Z" />
<path fill="#FFFFFF" opacity="1.00" d=" M 180.08 105.86 C 184.75 105.43 187.86 108.98 190.39 112.32 C 186.43 111.36 182.34 109.37 180.08 105.86 Z" />
<path fill="#FFFFFF" opacity="1.00" d=" M 246.56 119.39 C 250.07 114.28 254.65 108.40 261.53 108.63 C 264.05 111.60 266.64 114.80 267.38 118.73 C 268.64 124.29 269.41 130.25 273.00 134.90 C 276.62 140.13 275.95 146.69 274.65 152.55 C 272.49 152.50 270.34 152.35 268.26 151.79 C 266.82 147.49 263.51 144.13 262.30 139.75 C 261.75 137.47 260.96 135.24 260.58 132.92 C 260.10 128.22 257.41 124.09 254.46 120.55 C 252.49 118.15 249.16 119.44 246.56 119.39 Z" />
<path fill="#FFFFFF" opacity="1.00" d=" M 244.14 123.03 C 247.00 121.71 251.30 119.03 253.96 122.00 C 259.08 126.99 259.32 134.58 261.04 141.08 C 264.13 146.91 267.96 152.59 269.39 159.13 C 268.16 162.71 263.79 161.29 260.94 161.16 C 254.40 160.12 251.39 153.54 246.98 149.44 C 242.35 144.40 236.11 141.24 229.42 140.01 C 230.70 139.18 232.46 138.88 233.38 137.56 C 237.04 132.77 240.43 127.77 244.14 123.03 Z" />
<path fill="#FFFFFF" opacity="1.00" d=" M 176.74 146.43 C 180.18 145.90 183.64 145.55 187.10 145.14 C 186.09 145.75 185.09 146.37 184.10 146.99 C 181.64 146.79 179.19 146.62 176.74 146.43 Z" />
</g>
<g id="#090908ff">
<path fill="#333333" opacity="1.00" d=" M 58.03 20.05 C 62.14 15.60 68.57 16.07 74.08 16.24 C 77.22 16.13 79.54 18.57 81.74 20.45 C 82.97 22.87 83.61 25.55 84.27 28.17 C 84.83 31.03 83.25 33.69 82.33 36.29 C 83.47 37.83 84.58 39.38 85.73 40.90 C 91.13 42.07 96.26 44.20 101.60 45.62 C 105.72 46.83 105.42 52.16 108.72 54.27 C 110.58 55.56 112.50 56.76 114.24 58.22 C 117.86 58.24 121.35 59.33 124.37 61.33 C 129.47 58.92 134.96 57.52 140.19 55.42 C 147.54 52.62 155.13 56.90 160.55 61.68 C 162.09 69.85 173.03 69.72 175.84 77.12 C 184.05 79.98 190.23 86.67 195.65 93.19 C 198.87 94.62 201.66 96.95 204.98 98.14 C 209.82 98.85 214.77 98.87 219.52 100.20 C 226.24 94.35 232.71 88.19 239.65 82.60 C 245.15 79.50 252.11 82.82 255.31 87.77 C 259.33 92.63 257.86 99.28 257.14 104.98 C 256.55 105.63 255.35 106.93 254.76 107.58 C 257.42 107.41 260.56 106.42 262.77 108.51 C 268.48 113.69 269.53 121.72 271.25 128.82 C 273.08 132.24 275.55 135.39 276.77 139.12 C 277.35 142.23 275.87 145.78 278.00 148.50 L 278.00 149.81 C 277.99 149.69 277.97 149.45 277.96 149.33 C 276.52 151.79 275.06 156.52 271.20 154.87 C 272.16 158.24 271.77 164.56 266.97 164.32 C 261.41 165.01 255.88 163.14 251.62 159.58 C 247.44 153.44 242.36 147.42 235.37 144.42 C 229.13 142.10 222.32 142.70 215.95 140.96 C 214.33 140.71 212.60 139.90 211.01 140.71 C 204.95 143.39 198.19 143.19 191.78 144.45 C 189.59 146.39 187.57 148.63 184.94 149.99 C 181.59 150.43 178.10 150.08 174.94 148.86 C 172.69 148.12 170.44 146.89 167.99 147.28 C 159.27 148.15 150.65 150.11 141.90 150.60 C 139.12 149.40 136.98 147.13 134.50 145.44 C 134.50 142.48 136.16 140.06 137.95 137.86 C 138.89 137.79 140.79 137.66 141.73 137.59 C 140.72 139.77 139.65 141.92 138.52 144.04 C 139.88 145.31 140.97 147.73 143.17 147.37 C 150.02 146.73 156.93 146.36 163.69 145.02 C 176.87 142.85 190.26 142.30 203.44 140.10 C 210.20 139.04 216.55 135.02 219.58 128.78 C 220.52 126.75 218.11 125.60 217.09 124.24 C 213.71 126.15 211.19 129.15 208.29 131.66 C 202.96 135.38 196.30 135.82 190.06 136.62 C 183.51 137.57 176.91 138.05 170.31 138.55 C 169.54 138.04 168.77 137.52 168.00 137.01 L 171.02 136.95 C 136.29 125.42 101.96 112.75 67.51 100.42 C 64.57 99.17 61.52 98.16 58.34 97.69 C 58.27 98.57 58.11 100.34 58.04 101.22 C 56.54 102.19 55.03 103.15 53.50 104.08 C 85.14 114.46 116.44 125.97 148.15 136.12 C 150.95 137.22 153.79 139.00 156.93 138.50 C 160.19 138.16 163.44 137.71 166.71 137.37 C 167.45 137.90 168.19 138.43 168.94 138.97 C 161.08 139.69 153.42 141.82 145.52 142.18 C 145.03 140.91 144.74 139.57 144.40 138.26 C 123.51 131.15 102.74 123.71 82.04 116.07 C 71.13 112.34 60.46 107.87 49.44 104.49 C 43.12 103.64 37.58 100.15 33.31 95.54 C 30.13 92.01 25.04 92.09 20.74 91.19 C 17.46 87.61 17.64 82.54 15.93 78.25 C 18.94 74.64 23.83 73.99 28.15 73.03 C 32.84 73.36 33.94 78.78 34.70 82.52 C 38.05 82.79 41.40 82.93 44.76 82.99 C 46.01 79.68 47.44 76.42 49.42 73.47 C 49.58 69.97 49.84 66.47 50.00 62.97 C 50.56 57.73 53.03 51.83 58.48 50.09 C 54.85 46.18 55.17 40.60 54.03 35.73 C 52.83 30.33 53.43 23.74 58.03 20.05 M 63.96 18.53 C 58.78 20.23 54.42 25.41 55.28 31.10 C 55.85 37.59 58.16 43.81 59.65 50.14 C 59.88 49.80 60.33 49.13 60.56 48.80 C 63.21 47.91 65.65 46.54 67.95 44.97 C 70.56 43.15 73.80 42.73 76.80 41.89 C 77.06 42.18 77.58 42.75 77.85 43.03 C 72.61 43.24 69.01 47.21 64.65 49.46 C 60.04 50.51 55.45 53.18 53.66 57.78 C 51.47 61.43 52.37 65.80 51.69 69.82 C 52.19 69.38 53.21 68.49 53.71 68.05 C 53.16 70.38 52.57 72.71 52.17 75.07 C 50.66 77.34 48.73 79.41 48.00 82.10 C 47.16 84.26 46.81 87.41 43.92 87.69 C 44.08 86.98 44.40 85.56 44.56 84.85 C 40.77 85.42 36.81 85.62 33.43 83.50 C 31.62 80.79 32.62 75.98 29.18 74.76 C 26.08 76.81 22.58 77.69 18.89 77.91 C 17.95 81.74 19.17 85.70 20.80 89.16 C 21.88 89.45 22.95 89.76 24.01 90.08 C 30.50 90.27 36.18 94.02 40.97 98.08 C 45.09 101.50 50.70 102.23 55.80 101.02 C 57.31 99.17 57.47 96.61 58.69 94.59 C 61.19 90.47 63.65 86.17 64.53 81.37 C 65.36 78.08 65.07 74.65 65.54 71.32 C 66.52 70.10 68.08 69.58 69.38 68.82 C 68.70 70.06 67.99 71.28 67.26 72.48 C 71.12 71.96 74.64 70.22 78.41 69.36 C 77.60 75.04 70.60 74.20 66.40 74.06 C 66.05 77.00 65.57 79.95 65.68 82.92 C 67.85 84.15 70.29 85.23 71.22 87.76 C 73.85 93.29 80.00 96.19 85.97 95.58 C 90.36 96.48 94.49 94.25 98.86 94.69 C 102.50 94.86 106.04 96.19 109.72 95.66 C 109.85 91.11 108.90 86.48 110.17 82.02 C 111.05 78.78 111.11 75.21 113.32 72.48 C 115.98 68.97 118.84 65.47 122.42 62.86 C 121.70 62.09 120.98 61.31 120.28 60.53 C 116.59 60.36 112.50 60.07 109.74 57.28 C 106.07 55.12 104.80 50.90 102.40 47.65 C 100.90 46.10 98.59 46.67 96.67 46.39 C 96.34 45.94 95.68 45.03 95.35 44.58 C 91.97 42.66 88.01 42.11 84.18 42.60 C 82.86 40.20 81.37 37.88 79.47 35.90 C 85.20 30.79 82.19 20.09 75.14 17.84 C 71.41 17.26 67.60 17.65 63.96 18.53 M 121.68 65.38 C 119.46 69.12 116.09 72.05 114.01 75.85 C 113.39 78.54 113.08 81.30 112.31 83.96 C 110.77 88.40 112.98 92.93 112.38 97.46 C 114.01 96.73 115.82 96.35 117.33 95.39 C 117.93 94.12 118.50 92.83 119.03 91.53 C 119.47 93.84 119.37 96.20 119.19 98.53 C 121.25 99.30 123.52 99.51 125.43 100.63 C 126.85 101.96 127.27 103.95 128.25 105.57 C 129.58 108.41 133.09 108.87 135.47 110.52 C 134.71 106.50 135.43 102.23 138.09 99.04 C 142.64 90.52 151.66 83.19 161.83 84.56 C 161.72 84.99 161.49 85.85 161.37 86.28 C 169.34 89.69 173.78 97.70 178.08 104.76 C 178.34 104.61 178.86 104.29 179.12 104.13 C 181.68 104.79 184.35 104.78 186.94 105.27 C 189.71 107.44 191.82 110.52 195.08 112.03 C 198.81 112.61 202.62 112.58 206.38 113.00 C 207.22 110.93 208.76 109.34 210.44 107.94 C 205.50 107.32 200.59 106.34 195.77 105.09 C 192.87 103.16 189.84 101.02 188.17 97.87 C 192.55 100.01 196.28 103.61 201.14 104.71 C 204.81 105.05 208.61 105.07 212.01 106.71 C 213.85 105.12 215.66 103.50 217.46 101.87 C 213.69 100.77 209.81 100.37 205.91 100.19 C 201.49 100.03 198.40 96.43 194.77 94.39 C 194.75 93.88 194.72 92.87 194.71 92.37 C 189.58 89.94 186.02 85.41 181.70 81.92 C 178.64 80.13 175.48 78.32 171.98 77.61 C 167.70 78.16 166.03 82.41 164.92 85.99 C 161.66 80.75 168.21 76.35 172.46 74.59 C 171.17 73.40 169.92 72.17 168.67 70.95 C 164.72 70.78 161.91 67.40 160.20 64.16 C 156.01 61.27 152.50 56.63 146.94 56.63 C 137.76 56.29 129.45 61.09 121.68 65.38 M 235.50 89.50 C 231.43 94.09 226.18 97.39 221.89 101.76 C 218.08 105.52 213.44 108.36 209.71 112.20 C 209.70 115.24 209.14 118.26 207.97 121.08 C 206.77 123.35 208.17 125.74 208.65 128.01 C 209.02 127.82 209.77 127.46 210.14 127.28 C 211.25 124.26 213.23 120.81 216.92 120.91 C 218.53 122.36 219.99 123.96 221.62 125.38 C 221.65 127.58 221.46 129.77 221.20 131.96 C 218.96 133.86 216.97 136.03 214.87 138.09 C 218.32 139.59 222.82 140.58 225.87 137.71 C 229.91 133.67 229.14 127.41 227.61 122.44 C 226.16 119.24 223.45 116.91 220.88 114.63 C 218.69 114.27 216.64 113.42 214.70 112.39 C 215.76 112.15 216.83 111.92 217.90 111.70 C 218.21 111.27 218.82 110.41 219.13 109.98 C 219.23 110.61 219.41 111.88 219.51 112.51 C 228.89 116.35 232.66 127.95 229.53 137.19 C 232.54 133.63 235.01 129.65 238.05 126.11 C 239.67 124.66 241.03 122.97 242.28 121.20 C 246.51 115.40 251.17 109.91 255.25 104.00 C 256.60 99.56 257.18 94.45 254.73 90.25 C 253.07 86.04 248.63 82.64 243.99 83.25 C 240.83 84.80 238.19 87.25 235.50 89.50 M 65.88 84.14 C 64.15 88.13 62.20 92.07 59.61 95.58 C 96.83 108.06 133.63 121.68 170.84 134.15 C 175.87 136.92 181.51 134.21 186.81 134.04 C 183.75 132.42 180.65 130.76 177.23 130.09 C 170.87 129.88 163.58 128.34 159.47 123.02 C 156.59 121.27 153.53 119.64 150.13 119.24 C 145.39 118.48 142.28 114.15 137.77 112.96 C 133.86 112.89 130.66 110.50 127.42 108.63 C 124.90 107.42 125.29 104.18 123.79 102.20 C 122.28 101.64 120.67 101.47 119.11 101.15 C 118.72 99.88 118.33 98.61 117.91 97.36 C 114.63 98.02 111.27 97.56 107.97 98.10 C 103.64 99.07 99.50 95.93 95.19 97.28 C 91.23 98.42 87.03 98.80 82.94 98.15 C 79.13 97.48 75.96 95.14 72.45 93.67 C 69.75 90.82 68.53 86.99 65.88 84.14 M 148.86 90.58 C 145.41 93.49 142.11 96.79 140.15 100.92 C 138.58 103.52 136.30 106.37 137.24 109.61 C 142.89 114.41 149.45 118.58 156.92 119.70 C 160.46 120.97 162.53 124.69 166.06 126.03 C 170.38 127.13 174.54 128.86 179.02 129.21 C 182.92 129.50 185.78 132.51 189.49 133.37 C 192.01 133.63 194.54 133.19 197.06 133.16 C 191.11 131.10 185.39 128.11 180.45 124.20 C 187.65 126.50 194.27 130.30 201.72 131.91 C 203.38 130.87 205.05 129.84 206.75 128.86 C 205.90 124.80 206.07 120.61 207.49 116.70 C 202.54 114.15 196.45 114.77 190.96 114.36 C 183.91 113.33 179.14 107.52 174.87 102.35 C 171.20 95.98 166.43 90.16 160.04 86.39 C 155.96 86.28 151.78 87.66 148.86 90.58 M 180.08 105.86 C 182.34 109.37 186.43 111.36 190.39 112.32 C 187.86 108.98 184.75 105.43 180.08 105.86 M 246.56 119.39 C 249.16 119.44 252.49 118.15 254.46 120.55 C 257.41 124.09 260.10 128.22 260.58 132.92 C 260.96 135.24 261.75 137.47 262.30 139.75 C 263.51 144.13 266.82 147.49 268.26 151.79 C 270.34 152.35 272.49 152.50 274.65 152.55 C 275.95 146.69 276.62 140.13 273.00 134.90 C 269.41 130.25 268.64 124.29 267.38 118.73 C 266.64 114.80 264.05 111.60 261.53 108.63 C 254.65 108.40 250.07 114.28 246.56 119.39 M 244.14 123.03 C 240.43 127.77 237.04 132.77 233.38 137.56 C 232.46 138.88 230.70 139.18 229.42 140.01 C 236.11 141.24 242.35 144.40 246.98 149.44 C 251.39 153.54 254.40 160.12 260.94 161.16 C 263.79 161.29 268.16 162.71 269.39 159.13 C 267.96 152.59 264.13 146.91 261.04 141.08 C 259.32 134.58 259.08 126.99 253.96 122.00 C 251.30 119.03 247.00 121.71 244.14 123.03 M 176.74 146.43 C 179.19 146.62 181.64 146.79 184.10 146.99 C 185.09 146.37 186.09 145.75 187.10 145.14 C 183.64 145.55 180.18 145.90 176.74 146.43 Z" />
<path fill="#333333" opacity="1.00" d=" M 66.89 27.52 C 70.44 27.77 71.18 31.22 71.61 34.10 C 70.70 35.28 69.77 36.44 68.76 37.53 C 68.64 40.21 67.55 42.81 65.24 44.32 C 66.74 39.87 69.66 35.81 69.55 30.92 C 69.02 29.55 67.76 28.66 66.89 27.52 Z" />
<path fill="#333333" opacity="1.00" d=" M 73.06 36.51 C 74.18 34.19 76.32 33.15 78.79 33.92 C 77.19 34.76 75.49 35.52 74.40 37.04 C 74.06 36.90 73.39 36.64 73.06 36.51 Z" />
<path fill="#333333" opacity="1.00" d=" M 83.92 43.35 C 88.17 45.87 91.70 49.47 94.45 53.55 C 96.25 55.77 97.56 58.45 99.94 60.14 C 102.30 61.32 105.81 60.24 107.12 63.21 C 103.24 63.30 99.24 62.68 96.16 60.14 C 93.93 53.38 88.43 48.59 83.92 43.35 Z" />
<path fill="#333333" opacity="1.00" d=" M 98.89 50.77 C 101.37 52.55 103.83 55.40 102.32 58.62 C 101.27 55.96 100.04 53.39 98.89 50.77 Z" />
<path fill="#333333" opacity="1.00" d=" M 69.71 54.66 C 73.20 53.44 76.81 52.64 80.39 51.74 C 81.37 52.47 82.34 53.19 83.32 53.92 C 83.16 56.73 85.95 57.85 87.83 59.27 C 90.68 61.28 94.16 62.02 97.21 63.66 C 94.95 63.58 92.66 63.77 90.43 63.36 C 86.12 61.35 81.74 58.86 79.89 54.19 C 76.50 54.35 72.93 56.69 69.71 54.66 Z" />
<path fill="#333333" opacity="1.00" d=" M 60.94 56.11 C 62.07 55.46 63.20 54.80 64.32 54.13 C 65.86 56.65 67.52 59.12 68.74 61.83 C 65.74 61.96 64.91 58.92 63.74 56.79 C 62.80 56.57 61.87 56.34 60.94 56.11 Z" />
<path fill="#333333" opacity="1.00" d=" M 72.71 62.47 C 76.64 63.26 80.63 64.19 84.61 63.05 C 83.75 63.96 82.95 64.93 81.96 65.71 C 78.63 65.75 75.19 64.77 72.71 62.47 Z" />
<path fill="#333333" opacity="1.00" d=" M 96.94 70.03 C 101.05 72.05 105.50 73.09 110.03 73.61 C 105.46 75.36 99.75 74.28 96.94 70.03 Z" />
<path fill="#333333" opacity="1.00" d=" M 70.60 76.41 C 75.47 76.73 79.54 74.12 83.94 72.60 C 90.69 72.71 96.73 77.13 103.55 76.95 C 99.85 78.62 95.92 77.14 92.13 76.64 C 89.09 75.73 86.35 73.80 83.02 74.09 C 83.70 76.33 85.51 79.06 82.54 80.48 C 83.58 82.60 83.70 84.94 83.70 87.26 C 82.83 85.22 82.19 83.09 81.30 81.05 L 79.10 81.14 C 80.77 79.39 83.41 77.99 82.42 75.11 C 81.33 75.69 80.25 76.28 79.17 76.88 C 78.55 78.24 77.82 79.53 77.03 80.78 C 77.37 82.27 77.73 83.75 78.11 85.23 C 77.35 86.26 76.57 87.27 75.77 88.27 C 75.77 86.35 75.82 84.42 75.78 82.50 C 75.13 82.20 73.84 81.60 73.20 81.30 C 74.51 80.17 75.82 79.05 77.11 77.91 C 74.88 77.75 72.54 77.69 70.60 76.41 Z" />
<path fill="#333333" opacity="1.00" d=" M 154.13 74.95 C 154.41 74.72 154.98 74.27 155.26 74.05 C 155.62 75.95 155.61 78.14 156.98 79.67 C 158.42 80.93 160.08 81.91 161.53 83.16 C 157.22 83.39 153.07 79.40 154.13 74.95 Z" />
<path fill="#333333" opacity="1.00" d=" M 113.84 88.06 C 113.10 84.56 114.72 81.25 116.17 78.17 C 116.38 83.93 116.54 89.68 116.66 95.44 C 113.49 94.38 114.39 90.63 113.84 88.06 Z" />
<path fill="#333333" opacity="1.00" d=" M 52.53 84.68 C 54.65 83.72 56.83 82.88 59.03 82.12 C 59.86 84.98 56.23 84.37 54.56 84.93 C 52.89 87.80 51.72 91.78 47.98 92.47 C 49.97 90.15 51.19 87.38 52.53 84.68 Z" />
<path fill="#333333" opacity="1.00" d=" M 88.51 82.11 C 88.93 82.99 89.34 83.88 89.73 84.77 C 90.07 85.17 90.76 85.97 91.10 86.37 C 90.59 87.42 90.08 88.48 89.58 89.53 C 89.47 87.03 88.98 84.57 88.51 82.11 Z" />
<path fill="#333333" opacity="1.00" d=" M 170.50 83.06 C 177.52 84.35 182.44 90.23 185.94 96.03 C 183.86 94.87 182.25 93.11 180.84 91.22 C 178.26 87.49 173.14 86.69 170.50 83.06 Z" />
<path fill="#333333" opacity="1.00" d=" M 159.17 93.15 C 165.04 95.04 168.40 100.65 170.73 105.98 C 169.08 105.08 167.80 103.71 167.13 101.94 C 165.60 98.14 162.19 95.69 159.17 93.15 Z" />
<path fill="#333333" opacity="1.00" d=" M 145.56 94.99 C 149.48 94.66 152.85 96.82 156.10 98.67 C 160.60 102.38 164.26 106.98 166.92 112.17 C 168.29 116.30 171.82 118.72 175.55 120.55 C 172.87 119.66 169.70 119.45 167.80 117.10 C 164.34 112.83 162.71 107.22 158.47 103.58 C 156.70 101.98 155.24 100.03 153.23 98.73 C 150.70 97.43 147.83 96.78 145.56 94.99 Z" />
<path fill="#333333" opacity="1.00" d=" M 172.10 113.23 C 177.43 114.81 183.05 115.82 187.55 119.33 C 183.31 119.96 180.21 116.45 176.22 115.82 C 174.44 115.69 173.19 114.50 172.10 113.23 Z" />
<path fill="#333333" opacity="1.00" d=" M 189.03 121.31 C 193.36 121.42 197.62 122.29 201.87 123.06 C 201.77 123.46 201.58 124.25 201.49 124.65 C 197.53 122.76 192.69 123.83 189.03 121.31 Z" />
</g>
</svg>
