<?xml version="1.0" encoding="UTF-8" ?>
<!DOCTYPE svg PUBLIC "-//W3C//DTD SVG 1.1//EN" "http://www.w3.org/Graphics/SVG/1.1/DTD/svg11.dtd">
<svg width="221pt" height="275pt" viewBox="0 0 221 275" version="1.1" xmlns="http://www.w3.org/2000/svg">
<g id="#ffffffff">
<path fill="#FFFFFF" opacity="1.00" d=" M 0.00 0.00 L 221.00 0.00 L 221.00 114.44 C 216.98 115.56 212.90 116.43 208.82 117.23 C 208.47 117.65 207.77 118.49 207.43 118.91 C 205.74 111.93 203.79 103.69 196.98 99.95 C 193.58 97.83 189.53 98.96 186.02 100.08 C 181.94 101.47 179.74 105.58 178.34 109.37 C 176.36 114.52 175.69 120.06 176.12 125.54 C 170.73 126.67 165.33 127.82 160.07 129.49 C 158.83 128.08 157.73 126.47 156.10 125.47 C 153.50 125.71 151.08 126.79 148.59 127.50 C 147.21 125.70 145.50 124.08 144.59 121.99 C 144.03 118.83 144.42 115.33 142.57 112.53 C 140.88 109.88 139.15 107.25 137.90 104.35 C 137.40 105.01 136.91 105.67 136.42 106.33 C 138.59 110.84 142.12 114.85 142.82 119.94 C 143.18 123.99 145.76 127.28 147.21 130.97 C 148.10 133.25 151.08 132.70 152.96 133.12 C 151.36 131.90 149.67 130.80 147.99 129.68 C 150.26 128.82 152.53 127.99 154.81 127.19 C 156.21 129.28 159.21 130.99 158.70 133.85 C 157.24 139.00 151.66 141.22 146.98 142.50 C 145.59 141.51 144.71 140.02 143.69 138.69 C 132.90 141.76 121.75 143.31 110.93 146.30 C 106.10 147.38 101.47 149.34 96.51 149.77 C 96.55 149.16 96.63 147.93 96.67 147.31 C 100.30 146.41 104.10 146.16 107.53 144.55 C 112.48 142.46 117.87 142.00 123.04 140.75 C 129.62 138.61 136.62 138.11 143.08 135.54 C 142.75 134.49 142.42 133.44 142.10 132.40 C 141.19 133.06 140.28 133.73 139.38 134.40 C 137.23 130.48 133.91 127.27 132.28 123.05 C 131.46 120.80 130.16 118.80 128.72 116.90 C 128.07 113.46 127.42 109.97 125.91 106.78 C 124.19 99.63 123.10 92.36 121.95 85.10 C 122.72 84.45 123.50 83.80 124.27 83.14 C 123.94 81.71 123.60 80.28 123.27 78.85 C 122.41 80.98 121.57 83.12 120.73 85.25 C 119.94 84.88 119.15 84.51 118.36 84.15 C 116.96 84.55 115.56 84.94 114.15 85.32 C 112.28 84.64 110.34 83.91 108.36 84.66 C 109.92 85.49 111.47 86.37 113.16 86.91 C 115.62 86.72 117.95 85.88 120.32 85.26 C 121.10 92.06 124.73 100.23 118.84 105.84 C 117.80 106.47 116.72 107.03 115.65 107.59 C 115.07 105.28 114.45 102.98 113.81 100.69 C 113.18 103.26 113.72 106.56 111.59 108.47 C 108.89 108.81 106.11 108.77 103.58 109.94 C 102.24 109.66 100.91 109.38 99.57 109.13 C 100.67 110.06 101.70 111.12 102.99 111.78 C 106.83 110.95 110.87 110.46 114.33 108.47 C 115.15 108.71 115.96 108.96 116.78 109.20 C 117.30 108.84 118.33 108.12 118.84 107.76 L 119.36 107.85 C 119.70 111.91 119.85 115.98 120.26 120.04 C 114.46 122.68 107.87 124.74 101.49 123.22 C 96.82 122.36 91.36 123.22 87.61 119.65 C 86.83 114.49 87.31 109.02 84.38 104.40 C 87.04 104.00 89.74 104.05 92.42 104.03 C 91.69 103.24 90.97 102.46 90.24 101.68 C 88.56 102.05 86.85 102.32 85.13 102.44 C 84.46 102.71 83.79 102.97 83.12 103.24 C 85.45 110.73 87.95 119.55 82.99 126.57 C 82.47 125.99 81.96 125.42 81.44 124.84 C 81.33 119.13 78.11 113.32 80.57 107.75 C 81.52 103.20 81.18 98.50 81.57 93.89 C 80.62 93.29 79.68 92.70 78.74 92.09 C 79.24 93.97 79.68 95.90 79.42 97.85 C 78.97 102.78 79.38 107.95 76.99 112.48 C 76.46 111.95 75.94 111.43 75.41 110.90 C 75.53 107.18 75.34 103.11 72.26 100.54 C 72.70 104.63 73.62 108.68 73.70 112.82 C 74.22 112.75 75.27 112.63 75.80 112.57 C 75.25 114.45 74.67 116.32 74.15 118.21 C 74.86 116.99 75.54 115.74 76.23 114.50 C 76.75 114.91 77.80 115.71 78.32 116.12 C 80.84 125.02 76.51 135.75 83.71 143.11 C 82.67 142.86 80.60 142.34 79.56 142.08 C 79.63 142.67 79.76 143.86 79.83 144.45 C 82.02 144.29 84.22 144.21 86.42 144.15 C 86.51 143.71 86.70 142.85 86.80 142.42 C 86.12 142.43 84.77 142.45 84.10 142.46 C 81.79 137.74 80.97 132.56 80.90 127.35 C 81.26 127.09 81.99 126.56 82.35 126.30 C 82.58 126.99 83.05 128.38 83.28 129.08 C 83.79 127.42 84.31 125.77 84.84 124.12 C 85.36 124.20 86.39 124.34 86.90 124.41 C 86.94 123.73 87.01 122.37 87.04 121.68 C 92.03 125.22 98.24 124.87 103.98 125.98 C 109.44 126.79 114.60 124.32 119.76 122.98 C 120.90 124.11 122.04 125.24 123.21 126.35 C 123.14 129.04 122.73 131.71 122.04 134.31 C 122.89 135.71 123.75 137.11 124.62 138.51 C 116.79 140.00 109.03 141.83 101.36 144.00 C 97.54 145.18 93.53 144.45 89.70 143.72 C 89.55 143.96 89.25 144.43 89.10 144.67 C 90.64 145.12 92.19 145.50 93.67 146.12 C 94.53 149.43 95.74 154.04 92.50 156.46 C 88.51 158.13 83.92 156.85 79.87 158.45 C 86.28 160.51 95.51 159.50 97.64 151.95 C 103.35 150.52 108.89 148.43 114.71 147.47 C 118.73 146.78 122.65 145.63 126.52 144.37 C 126.78 147.66 127.41 150.98 129.54 153.62 C 125.12 155.77 121.68 159.86 116.69 160.80 C 113.25 161.10 109.93 159.80 106.60 159.16 C 108.15 156.06 111.59 155.60 114.46 154.43 C 116.03 152.83 116.38 150.47 116.96 148.40 C 115.33 149.81 114.11 151.59 112.91 153.36 C 110.62 153.89 108.28 154.39 106.17 155.48 C 105.23 157.77 105.30 160.32 104.90 162.75 C 99.83 166.38 93.52 165.93 87.62 166.09 C 92.39 169.12 98.04 167.72 103.13 166.48 C 102.34 171.43 101.71 176.61 98.95 180.94 C 95.23 187.11 94.49 194.54 91.07 200.84 C 88.58 205.69 86.27 211.66 88.65 216.98 C 89.98 211.67 89.51 205.84 92.78 201.13 C 92.94 204.41 93.23 207.73 92.75 210.99 C 91.99 214.41 90.11 217.48 89.54 220.95 C 88.22 229.09 89.18 237.97 94.06 244.83 C 96.32 249.89 100.60 253.56 103.31 258.31 C 103.27 259.86 101.52 259.82 100.45 260.35 C 99.51 259.09 98.77 257.66 97.58 256.62 C 93.78 256.87 89.56 256.18 86.17 258.26 C 90.44 259.59 95.50 257.06 99.14 260.11 C 95.20 263.42 88.31 263.15 85.56 258.52 C 84.26 253.33 82.26 248.37 80.67 243.27 C 79.61 240.64 80.54 237.85 80.81 235.17 C 81.91 225.90 75.83 217.41 77.21 208.15 C 77.94 204.10 79.39 200.21 81.03 196.45 C 82.06 199.04 83.01 201.67 83.94 204.30 C 84.32 204.38 85.08 204.55 85.46 204.63 C 83.93 199.82 82.52 194.94 81.84 189.93 C 81.44 185.09 84.06 180.76 84.92 176.12 C 85.19 172.45 84.69 168.66 83.12 165.31 C 82.12 170.15 83.87 175.22 82.01 179.92 C 80.33 184.60 80.21 189.60 79.64 194.49 C 78.30 199.68 75.94 204.63 75.39 210.01 C 75.09 217.53 79.11 224.44 79.08 231.93 C 79.08 234.71 78.77 237.48 78.23 240.21 C 79.46 246.88 81.29 253.36 83.22 259.84 C 87.14 264.90 94.91 265.63 100.28 262.52 C 102.02 261.83 104.95 261.57 104.74 259.02 C 104.45 254.46 100.10 251.73 97.96 248.03 C 95.45 243.50 91.99 239.25 91.47 233.92 C 90.66 227.27 91.48 220.35 94.03 214.14 C 96.25 208.16 93.74 201.68 95.34 195.61 C 96.11 192.32 97.35 189.18 98.40 185.98 C 99.40 182.74 101.71 180.12 102.76 176.91 C 103.98 173.31 104.18 169.49 104.39 165.72 C 105.26 164.83 106.12 163.94 106.99 163.04 C 108.49 166.16 110.43 169.02 112.18 172.00 C 113.90 174.92 113.14 178.56 114.49 181.62 C 115.46 183.87 116.40 186.17 116.31 188.69 C 116.95 188.44 118.23 187.94 118.87 187.69 L 116.82 188.57 C 117.68 189.47 119.39 191.28 120.25 192.19 C 120.61 189.19 119.61 186.40 118.26 183.79 C 116.13 179.68 117.20 174.59 114.34 170.76 C 112.51 166.67 108.55 164.13 106.64 160.12 C 109.41 160.98 111.98 162.96 115.01 162.68 C 119.99 162.40 124.38 159.66 128.23 156.70 C 128.48 160.98 128.64 165.27 128.96 169.55 C 128.48 169.58 127.52 169.64 127.04 169.67 C 126.24 172.01 125.55 174.45 124.02 176.44 C 121.25 176.12 120.09 173.48 118.95 171.33 C 118.78 171.39 118.44 171.51 118.28 171.57 C 119.46 173.78 119.76 177.44 122.75 177.87 C 125.72 177.39 126.81 174.22 128.48 172.16 C 129.27 174.35 130.38 176.60 129.84 179.00 C 128.77 185.30 127.78 191.84 129.19 198.17 C 130.94 206.45 128.16 215.33 131.75 223.27 C 134.64 226.37 137.72 229.29 140.36 232.61 C 142.70 235.61 146.46 236.75 150.06 237.33 C 150.77 238.27 151.47 239.21 152.17 240.16 C 150.44 241.05 148.80 242.13 146.96 242.79 C 144.34 243.05 141.71 242.56 139.09 242.45 C 136.30 241.02 133.38 239.39 130.12 239.75 C 126.89 239.53 123.01 241.07 120.32 238.72 C 119.80 234.07 120.70 229.36 121.93 224.89 C 122.07 221.76 122.14 218.62 122.29 215.49 C 121.69 215.42 121.09 215.37 120.49 215.32 C 121.93 223.14 117.19 230.38 118.17 238.14 C 118.10 239.47 119.26 240.17 120.29 240.71 C 124.71 243.22 130.07 239.52 134.43 242.42 C 140.80 245.90 150.01 245.88 154.47 239.37 C 153.27 237.94 152.06 236.52 150.83 235.12 C 148.27 234.65 145.47 234.40 143.45 232.55 C 140.39 229.91 138.08 226.52 134.95 223.94 C 133.13 222.52 132.61 220.16 132.21 218.02 C 131.32 211.01 132.33 203.87 131.13 196.89 C 129.95 191.17 130.17 185.22 131.38 179.52 C 132.12 176.26 130.10 173.26 130.11 170.03 C 130.05 165.56 129.89 161.09 129.34 156.65 C 130.41 155.61 131.35 154.44 132.01 153.09 C 129.17 150.92 128.83 147.35 128.15 144.12 C 132.74 143.50 137.25 142.44 141.75 141.35 C 143.72 142.57 145.63 144.31 148.05 144.46 C 152.94 143.10 158.62 141.38 160.54 136.11 C 165.65 134.69 170.84 133.62 175.96 132.27 C 178.29 139.59 180.43 148.50 188.09 152.01 C 192.69 152.68 198.69 152.78 201.75 148.58 C 207.19 141.70 208.07 132.47 208.05 124.00 C 212.41 123.18 216.78 122.34 221.00 120.95 L 221.00 275.00 L 0.00 275.00 L 0.00 0.00 M 85.81 31.89 C 82.57 36.29 84.51 41.90 85.03 46.82 C 85.93 47.85 86.82 48.87 87.72 49.90 C 87.58 52.94 87.58 55.98 87.78 59.01 C 84.82 61.98 80.77 63.27 77.28 65.45 C 77.30 65.98 77.33 67.04 77.35 67.57 C 73.28 67.83 70.46 71.11 68.02 74.00 C 64.49 78.29 65.88 84.28 63.54 89.07 C 61.27 94.02 62.09 99.67 64.28 104.49 C 66.42 109.63 63.15 114.88 64.23 120.10 C 64.66 122.77 64.90 125.46 65.14 128.15 C 65.62 133.14 68.13 137.59 69.65 142.30 C 70.22 145.24 70.19 148.38 71.84 151.01 C 65.11 152.83 58.25 154.10 51.52 155.95 C 50.57 151.04 48.76 146.21 45.79 142.15 C 43.63 139.20 40.46 136.48 36.57 136.73 C 33.08 137.32 29.00 137.68 26.73 140.79 C 21.46 147.10 20.30 155.77 20.41 163.73 C 16.56 164.50 12.78 165.63 8.90 166.26 C 5.28 166.30 4.96 172.25 8.00 173.43 C 16.61 171.37 25.40 169.73 33.75 166.80 C 34.22 164.74 33.91 162.20 32.18 160.82 C 28.36 161.55 24.63 162.69 20.84 163.55 C 22.69 156.24 22.18 147.67 27.78 141.83 C 30.04 138.94 33.96 139.02 37.19 138.04 C 40.43 139.93 43.92 141.82 45.79 145.25 C 51.82 155.94 52.81 169.55 47.67 180.79 C 46.00 184.55 42.93 188.42 38.35 188.22 C 40.20 186.06 42.33 184.00 43.18 181.19 C 46.98 170.45 46.50 158.30 42.16 147.78 C 40.64 144.64 38.89 140.79 35.04 140.16 C 36.84 143.25 39.60 145.72 40.91 149.09 C 44.70 158.16 45.13 168.58 42.52 178.01 C 41.73 181.85 38.84 184.70 37.64 188.37 C 35.43 188.10 32.91 188.49 31.00 187.08 C 27.03 184.41 25.04 179.81 23.66 175.40 C 23.04 173.75 23.00 171.65 21.18 170.83 C 21.84 175.51 23.32 180.13 25.80 184.16 C 27.90 187.27 30.92 190.60 35.01 190.45 C 38.58 190.06 42.94 190.58 45.42 187.40 C 52.61 179.29 52.88 167.72 51.98 157.49 C 60.08 155.91 68.06 153.77 76.11 151.92 C 78.10 151.30 80.82 151.39 81.59 148.98 C 80.71 148.98 78.94 148.96 78.06 148.95 C 78.23 147.96 78.56 145.97 78.72 144.98 C 78.10 144.49 77.47 144.00 76.84 143.52 C 75.98 146.15 75.53 148.98 73.90 151.29 C 71.73 147.43 72.09 142.79 70.10 138.86 C 67.83 133.81 66.84 128.36 66.56 122.86 C 64.91 116.28 68.70 109.49 65.78 103.07 C 63.36 98.05 63.82 92.09 66.09 87.11 C 67.87 83.80 66.86 79.79 68.64 76.51 C 70.34 73.88 72.75 71.74 75.56 70.38 C 77.89 69.41 78.12 66.36 80.27 65.13 C 82.60 63.39 86.04 63.26 87.83 60.86 C 88.96 57.34 88.84 53.58 88.66 49.94 C 91.52 52.34 92.01 56.90 95.71 58.33 C 98.54 59.81 101.68 60.55 104.87 60.45 C 105.40 62.87 106.47 66.31 103.86 67.97 C 101.02 67.68 98.30 66.60 95.41 66.52 C 95.81 63.00 93.45 60.22 91.16 57.89 C 92.29 60.81 93.52 63.68 94.66 66.58 C 92.23 67.08 89.80 67.63 87.31 67.79 C 87.35 68.22 87.41 69.08 87.44 69.51 C 91.56 68.93 95.81 67.15 99.89 68.94 C 101.94 70.02 104.13 69.53 105.65 67.80 C 106.24 67.07 106.83 66.33 107.41 65.59 C 110.20 64.95 113.48 65.21 115.73 63.17 C 112.65 62.56 109.58 63.26 106.84 64.71 C 106.75 63.31 106.62 61.92 106.44 60.53 C 109.65 61.56 113.35 62.74 116.44 60.74 C 113.47 60.23 110.47 59.94 107.51 59.36 C 108.00 58.14 108.48 56.92 108.95 55.69 C 107.23 56.66 105.60 57.78 103.94 58.84 C 101.25 58.01 98.57 57.15 95.99 56.02 C 93.68 54.91 92.86 52.28 91.87 50.11 C 90.20 49.09 88.50 48.11 87.03 46.81 C 86.89 45.12 87.66 43.53 88.06 41.92 C 87.45 42.06 86.24 42.34 85.63 42.48 C 85.24 38.51 85.79 33.76 89.46 31.41 C 93.06 28.47 97.86 28.46 102.26 28.61 C 103.84 30.04 105.64 31.34 106.72 33.23 C 107.67 36.39 108.20 39.67 108.85 42.91 C 109.62 47.04 107.70 51.07 108.17 55.21 C 112.33 47.97 109.76 39.53 107.92 32.04 C 106.31 29.27 103.29 27.22 100.01 27.30 C 94.96 26.74 89.00 27.46 85.81 31.89 M 116.64 61.53 C 119.34 63.01 122.58 63.34 125.06 65.26 C 127.51 67.28 129.33 70.05 130.24 73.10 C 131.41 76.27 130.38 79.66 130.65 82.93 C 132.26 85.84 134.43 88.60 134.83 92.00 C 135.76 96.37 134.23 101.26 136.98 105.15 C 138.84 99.68 136.19 94.19 135.72 88.72 C 135.44 85.83 133.41 83.60 131.64 81.46 C 134.43 76.32 131.84 70.40 129.24 65.76 C 126.59 61.58 121.10 61.18 116.64 61.53 M 116.94 65.47 C 118.68 67.03 120.78 68.10 123.01 68.77 C 121.65 66.64 119.50 65.41 116.94 65.47 M 77.74 72.41 C 80.33 72.20 82.71 73.05 84.71 74.68 C 84.52 79.30 83.21 83.74 80.56 87.55 C 79.49 88.99 81.09 89.88 82.23 90.38 C 81.96 86.11 85.68 83.14 86.00 79.00 C 86.41 76.60 86.79 73.03 84.03 71.90 C 81.99 71.51 79.26 70.44 77.74 72.41 M 105.31 74.80 C 106.16 78.45 107.79 82.20 106.12 85.89 C 103.45 86.82 100.55 87.40 98.34 89.30 C 96.57 90.97 94.11 90.99 91.83 91.05 C 89.20 89.53 87.06 86.93 84.08 86.19 C 83.80 87.81 85.48 88.61 86.45 89.58 C 88.93 91.42 91.83 93.76 95.14 92.85 C 97.37 92.58 98.99 90.95 100.69 89.66 C 102.91 88.20 106.46 88.48 107.62 85.65 C 110.19 82.25 108.57 77.11 105.31 74.80 M 74.16 91.66 C 74.72 91.59 75.82 91.46 76.37 91.39 C 76.62 89.80 76.87 88.20 77.06 86.60 C 75.66 88.01 74.86 89.83 74.16 91.66 M 124.17 87.41 C 124.74 91.02 125.52 94.66 127.06 98.00 C 127.39 97.89 128.05 97.68 128.38 97.57 C 128.01 94.22 126.79 91.06 126.02 87.80 C 125.55 87.70 124.63 87.51 124.17 87.41 M 114.19 88.29 C 113.16 89.79 112.01 91.25 109.98 90.65 C 111.82 92.22 112.66 94.45 112.14 96.84 C 110.82 96.91 109.50 96.97 108.18 97.03 C 106.12 99.07 103.51 100.39 101.34 102.28 C 99.51 101.44 97.84 100.30 96.12 99.27 C 96.58 102.24 99.27 103.36 101.90 103.90 C 103.27 102.44 104.79 101.09 106.83 100.69 C 107.18 100.34 107.89 99.62 108.25 99.26 C 110.08 98.92 111.85 98.32 113.44 97.33 C 116.12 97.56 118.78 97.91 121.43 98.42 C 119.94 95.58 116.68 95.87 113.95 95.77 C 113.50 94.37 112.86 93.04 112.14 91.76 C 112.95 91.07 113.75 90.39 114.56 89.70 C 115.84 90.07 117.12 90.45 118.43 90.73 C 117.17 89.67 115.77 88.79 114.19 88.29 M 106.13 89.11 C 103.93 92.05 101.50 94.82 99.53 97.92 C 103.74 96.46 105.35 92.17 108.70 89.66 C 108.05 89.52 106.77 89.25 106.13 89.11 M 84.17 95.10 C 84.23 96.14 84.29 97.19 84.35 98.23 C 87.01 99.99 90.03 99.86 92.97 98.99 C 92.71 98.50 92.18 97.52 91.92 97.03 C 90.02 97.78 87.97 98.24 86.00 97.47 C 85.56 95.79 86.28 94.63 88.17 94.00 C 86.75 94.03 85.44 94.52 84.17 95.10 M 129.44 102.44 C 131.30 104.47 132.71 107.45 135.85 107.59 C 135.46 105.85 135.11 104.11 134.79 102.36 L 134.14 104.41 C 132.99 103.44 131.86 102.46 130.73 101.46 C 130.41 101.71 129.76 102.20 129.44 102.44 M 94.33 106.18 C 95.83 109.18 99.81 108.45 100.97 105.60 C 98.75 105.74 96.54 105.95 94.33 106.18 M 88.99 107.14 C 88.75 111.00 93.40 112.76 96.58 111.81 C 94.19 110.04 91.64 108.48 88.99 107.14 M 101.15 112.85 C 100.79 114.47 101.40 115.10 102.99 114.76 C 103.36 113.13 102.74 112.49 101.15 112.85 M 112.10 118.23 C 113.35 116.91 114.42 115.41 115.21 113.77 C 113.21 114.44 111.69 115.95 112.10 118.23 M 100.73 115.50 C 100.84 118.93 103.89 123.28 107.75 122.38 C 105.30 120.20 102.94 117.93 100.73 115.50 M 104.99 128.47 C 99.99 128.78 95.24 127.03 90.53 125.64 C 88.98 128.24 87.64 131.05 87.43 134.13 C 87.86 134.24 88.71 134.48 89.14 134.60 C 89.16 131.96 90.10 129.52 91.36 127.23 C 93.19 127.96 95.02 128.66 96.82 129.46 C 95.27 133.89 90.40 135.14 87.95 138.74 C 92.40 137.41 97.07 134.80 98.12 129.88 C 104.50 131.04 111.02 129.98 117.11 127.98 C 118.58 127.56 119.43 126.16 120.43 125.14 C 115.39 126.67 110.33 128.55 104.99 128.47 M 101.06 136.40 C 100.02 136.76 99.39 137.73 98.63 138.47 C 104.83 137.60 110.87 134.21 117.18 135.17 C 112.19 137.35 106.53 138.74 102.75 142.92 C 108.39 140.86 113.72 137.99 119.42 136.01 C 119.39 134.97 119.36 133.93 119.35 132.89 C 113.12 133.09 106.93 134.29 101.06 136.40 M 81.57 148.92 C 84.73 149.48 88.81 148.28 88.56 144.32 C 86.33 146.01 83.97 147.49 81.57 148.92 M 53.66 160.47 C 53.50 160.83 53.17 161.55 53.00 161.91 C 53.43 161.98 54.28 162.12 54.71 162.19 C 61.72 160.42 68.68 158.40 75.77 156.95 C 77.02 158.34 78.38 159.64 80.11 160.42 C 80.02 158.36 78.98 156.81 77.06 156.06 C 78.99 155.96 82.19 156.54 81.83 153.62 C 72.40 155.69 62.95 157.83 53.66 160.47 M 87.51 179.82 C 87.31 181.63 87.11 183.43 86.95 185.24 C 87.70 184.12 88.42 182.98 89.14 181.85 C 90.82 181.43 92.49 180.99 94.16 180.51 C 94.88 181.55 95.64 182.58 96.44 183.58 C 95.98 181.70 95.38 179.87 94.77 178.04 C 92.51 179.20 90.07 179.88 87.51 179.82 M 88.88 189.07 C 89.20 191.36 92.90 192.03 93.49 189.68 C 92.00 189.22 90.43 189.15 88.88 189.07 M 115.91 188.43 C 115.30 191.96 114.85 195.53 114.83 199.12 C 114.35 205.05 119.85 209.27 120.22 215.09 C 123.02 211.55 119.77 208.13 118.46 204.77 C 117.67 199.96 116.48 195.04 117.42 190.15 C 116.93 189.56 116.42 188.99 115.91 188.43 M 125.64 234.37 C 125.03 231.53 124.55 228.66 124.28 225.77 C 122.30 228.53 122.99 232.31 125.64 234.37 M 82.59 242.76 C 85.65 240.91 86.66 237.37 88.28 234.42 C 84.60 235.29 83.75 239.71 82.59 242.76 Z" />
<path fill="#FFFFFF" opacity="1.00" d=" M 184.52 102.48 C 187.99 100.69 192.71 99.10 196.12 101.85 C 202.07 104.96 204.16 111.94 205.60 118.02 C 206.89 126.33 206.80 135.23 203.25 143.00 C 201.44 146.96 197.69 150.39 193.06 150.03 C 188.56 151.22 184.75 147.82 182.33 144.44 C 179.94 140.55 178.42 136.10 177.82 131.58 C 181.54 131.01 185.20 130.07 188.79 128.96 C 189.11 127.99 189.43 127.02 189.76 126.05 C 189.28 124.89 188.80 123.73 188.33 122.57 C 184.38 123.37 180.48 124.40 176.55 125.24 C 178.08 117.45 177.88 108.01 184.52 102.48 M 190.74 101.65 C 190.94 102.10 191.33 103.00 191.52 103.45 C 201.98 115.81 202.71 135.00 193.93 148.50 C 197.93 147.17 198.86 142.57 200.12 139.07 C 202.32 129.52 201.99 119.08 197.84 110.08 C 196.39 106.67 194.51 102.91 190.74 101.65 Z" />
<path fill="#FFFFFF" opacity="1.00" d=" M 122.63 102.81 C 124.57 108.99 124.95 115.85 128.72 121.30 C 130.44 123.94 131.42 127.03 133.53 129.40 C 135.15 131.25 136.59 133.24 137.86 135.35 C 133.78 136.30 129.58 136.63 125.56 137.82 C 125.11 136.21 124.43 134.67 124.13 133.03 C 124.77 130.42 125.36 127.80 125.03 125.09 C 123.90 123.88 122.14 122.94 122.07 121.10 C 121.02 115.08 120.17 108.60 122.63 102.81 Z" />
<path fill="#FFFFFF" opacity="1.00" d=" M 207.34 119.34 C 211.87 118.11 216.48 117.19 221.00 115.90 L 221.00 119.60 C 216.62 120.74 212.16 121.56 207.81 122.79 C 207.65 121.64 207.49 120.49 207.34 119.34 Z" />
<path fill="#FFFFFF" opacity="1.00" d=" M 160.89 131.00 C 169.27 128.98 177.57 126.58 186.00 124.80 C 188.21 123.57 189.19 127.54 186.91 127.60 C 178.31 130.13 169.56 132.08 160.84 134.12 C 160.85 133.34 160.88 131.78 160.89 131.00 Z" />
<path fill="#FFFFFF" opacity="1.00" d=" M 10.40 167.46 C 17.75 166.62 24.76 164.06 32.04 162.94 C 32.22 163.50 32.57 164.62 32.75 165.18 C 25.65 167.66 18.13 168.66 11.02 171.14 C 10.87 170.22 10.56 168.38 10.40 167.46 Z" />
<path fill="#FFFFFF" opacity="1.00" d=" M 8.16 168.38 C 9.60 168.19 9.53 170.65 8.72 171.35 C 7.31 171.52 7.26 169.04 8.16 168.38 Z" />
</g>
<g id="#444644ff">
<path fill="#333333" opacity="1.00" d=" M 85.81 31.89 C 89.00 27.46 94.96 26.74 100.01 27.30 C 103.29 27.22 106.31 29.27 107.92 32.04 C 109.76 39.53 112.33 47.97 108.17 55.21 C 107.70 51.07 109.62 47.04 108.85 42.91 C 108.20 39.67 107.67 36.39 106.72 33.23 C 105.64 31.34 103.84 30.04 102.26 28.61 C 97.86 28.46 93.06 28.47 89.46 31.41 C 85.79 33.76 85.24 38.51 85.63 42.48 C 86.24 42.34 87.45 42.06 88.06 41.92 C 87.66 43.53 86.89 45.12 87.03 46.81 C 88.50 48.11 90.20 49.09 91.87 50.11 C 92.86 52.28 93.68 54.91 95.99 56.02 C 98.57 57.15 101.25 58.01 103.94 58.84 C 105.60 57.78 107.23 56.66 108.95 55.69 C 108.48 56.92 108.00 58.14 107.51 59.36 C 110.47 59.94 113.47 60.23 116.44 60.74 C 113.35 62.74 109.65 61.56 106.44 60.53 C 106.62 61.92 106.75 63.31 106.84 64.71 C 109.58 63.26 112.65 62.56 115.73 63.17 C 113.48 65.21 110.20 64.95 107.41 65.59 C 106.83 66.33 106.24 67.07 105.65 67.80 C 104.13 69.53 101.94 70.02 99.89 68.94 C 95.81 67.15 91.56 68.93 87.44 69.51 C 87.41 69.08 87.35 68.22 87.31 67.79 C 89.80 67.63 92.23 67.08 94.66 66.58 C 93.52 63.68 92.29 60.81 91.16 57.89 C 93.45 60.22 95.81 63.00 95.41 66.52 C 98.30 66.60 101.02 67.68 103.86 67.97 C 106.47 66.31 105.40 62.87 104.87 60.45 C 101.68 60.55 98.54 59.81 95.71 58.33 C 92.01 56.90 91.52 52.34 88.66 49.94 C 88.84 53.58 88.96 57.34 87.83 60.86 C 86.04 63.26 82.60 63.39 80.27 65.13 C 78.12 66.36 77.89 69.41 75.56 70.38 C 72.75 71.74 70.34 73.88 68.64 76.51 C 66.86 79.79 67.87 83.80 66.09 87.11 C 63.82 92.09 63.36 98.05 65.78 103.07 C 68.70 109.49 64.91 116.28 66.56 122.86 C 66.84 128.36 67.83 133.81 70.10 138.86 C 72.09 142.79 71.73 147.43 73.90 151.29 C 75.53 148.98 75.98 146.15 76.84 143.52 C 77.47 144.00 78.10 144.49 78.72 144.98 C 78.56 145.97 78.23 147.96 78.06 148.95 C 78.94 148.96 80.71 148.98 81.59 148.98 C 80.82 151.39 78.10 151.30 76.11 151.92 C 68.06 153.77 60.08 155.91 51.98 157.49 C 52.88 167.72 52.61 179.29 45.42 187.40 C 42.94 190.58 38.58 190.06 35.01 190.45 C 30.92 190.60 27.90 187.27 25.80 184.16 C 23.32 180.13 21.84 175.51 21.18 170.83 C 23.00 171.65 23.04 173.75 23.66 175.40 C 25.04 179.81 27.03 184.41 31.00 187.08 C 32.91 188.49 35.43 188.10 37.64 188.37 C 38.84 184.70 41.73 181.85 42.52 178.01 C 45.13 168.58 44.70 158.16 40.91 149.09 C 39.60 145.72 36.84 143.25 35.04 140.16 C 38.89 140.79 40.64 144.64 42.16 147.78 C 46.50 158.30 46.98 170.45 43.18 181.19 C 42.33 184.00 40.20 186.06 38.35 188.22 C 42.93 188.42 46.00 184.55 47.67 180.79 C 52.81 169.55 51.82 155.94 45.79 145.25 C 43.92 141.82 40.43 139.93 37.19 138.04 C 33.96 139.02 30.04 138.94 27.78 141.83 C 22.18 147.67 22.69 156.24 20.84 163.55 C 24.63 162.69 28.36 161.55 32.18 160.82 C 33.91 162.20 34.22 164.74 33.75 166.80 C 25.40 169.73 16.61 171.37 8.00 173.43 C 4.96 172.25 5.28 166.30 8.90 166.26 C 12.78 165.63 16.56 164.50 20.41 163.73 C 20.30 155.77 21.46 147.10 26.73 140.79 C 29.00 137.68 33.08 137.32 36.57 136.73 C 40.46 136.48 43.63 139.20 45.79 142.15 C 48.76 146.21 50.57 151.04 51.52 155.95 C 58.25 154.10 65.11 152.83 71.84 151.01 C 70.19 148.38 70.22 145.24 69.65 142.30 C 68.13 137.59 65.62 133.14 65.14 128.15 C 64.90 125.46 64.66 122.77 64.23 120.10 C 63.15 114.88 66.42 109.63 64.28 104.49 C 62.09 99.67 61.27 94.02 63.54 89.07 C 65.88 84.28 64.49 78.29 68.02 74.00 C 70.46 71.11 73.28 67.83 77.35 67.57 C 77.33 67.04 77.30 65.98 77.28 65.45 C 80.77 63.27 84.82 61.98 87.78 59.01 C 87.58 55.98 87.58 52.94 87.72 49.90 C 86.82 48.87 85.93 47.85 85.03 46.82 C 84.51 41.90 82.57 36.29 85.81 31.89 M 10.40 167.46 C 10.56 168.38 10.87 170.22 11.02 171.14 C 18.13 168.66 25.65 167.66 32.75 165.18 C 32.57 164.62 32.22 163.50 32.04 162.94 C 24.76 164.06 17.75 166.62 10.40 167.46 M 8.16 168.38 C 7.26 169.04 7.31 171.52 8.72 171.35 C 9.53 170.65 9.60 168.19 8.16 168.38 Z" />
<path fill="#333333" opacity="1.00" d=" M 116.64 61.53 C 121.10 61.18 126.59 61.58 129.24 65.76 C 131.84 70.40 134.43 76.32 131.64 81.46 C 133.41 83.60 135.44 85.83 135.72 88.72 C 136.19 94.19 138.84 99.68 136.98 105.15 C 134.23 101.26 135.76 96.37 134.83 92.00 C 134.43 88.60 132.26 85.84 130.65 82.93 C 130.38 79.66 131.41 76.27 130.24 73.10 C 129.33 70.05 127.51 67.28 125.06 65.26 C 122.58 63.34 119.34 63.01 116.64 61.53 Z" />
<path fill="#333333" opacity="1.00" d=" M 116.94 65.47 C 119.50 65.41 121.65 66.64 123.01 68.77 C 120.78 68.10 118.68 67.03 116.94 65.47 Z" />
<path fill="#333333" opacity="1.00" d=" M 77.74 72.41 C 79.26 70.44 81.99 71.51 84.03 71.90 C 86.79 73.03 86.41 76.60 86.00 79.00 C 85.68 83.14 81.96 86.11 82.23 90.38 C 81.09 89.88 79.49 88.99 80.56 87.55 C 83.21 83.74 84.52 79.30 84.71 74.68 C 82.71 73.05 80.33 72.20 77.74 72.41 Z" />
<path fill="#333333" opacity="1.00" d=" M 105.31 74.80 C 108.57 77.11 110.19 82.25 107.62 85.65 C 106.46 88.48 102.91 88.20 100.69 89.66 C 98.99 90.95 97.37 92.58 95.14 92.85 C 91.83 93.76 88.93 91.42 86.45 89.58 C 85.48 88.61 83.80 87.81 84.08 86.19 C 87.06 86.93 89.20 89.53 91.83 91.05 C 94.11 90.99 96.57 90.97 98.34 89.30 C 100.55 87.40 103.45 86.82 106.12 85.89 C 107.79 82.20 106.16 78.45 105.31 74.80 Z" />
<path fill="#333333" opacity="1.00" d=" M 120.73 85.25 C 121.57 83.12 122.41 80.98 123.27 78.85 C 123.60 80.28 123.94 81.71 124.27 83.14 C 123.50 83.80 122.72 84.45 121.95 85.10 C 123.10 92.36 124.19 99.63 125.91 106.78 C 127.42 109.97 128.07 113.46 128.72 116.90 C 130.16 118.80 131.46 120.80 132.28 123.05 C 133.91 127.27 137.23 130.48 139.38 134.40 C 140.28 133.73 141.19 133.06 142.10 132.40 C 142.42 133.44 142.75 134.49 143.08 135.54 C 136.62 138.11 129.62 138.61 123.04 140.75 C 117.87 142.00 112.48 142.46 107.53 144.55 C 104.10 146.16 100.30 146.41 96.67 147.31 C 96.63 147.93 96.55 149.16 96.51 149.77 C 101.47 149.34 106.10 147.38 110.93 146.30 C 121.75 143.31 132.90 141.76 143.69 138.69 C 144.71 140.02 145.59 141.51 146.98 142.50 C 151.66 141.22 157.24 139.00 158.70 133.85 C 159.21 130.99 156.21 129.28 154.81 127.19 C 152.53 127.99 150.26 128.82 147.99 129.68 C 149.67 130.80 151.36 131.90 152.96 133.12 C 151.08 132.70 148.10 133.25 147.21 130.97 C 145.76 127.28 143.18 123.99 142.82 119.94 C 142.12 114.85 138.59 110.84 136.42 106.33 C 136.91 105.67 137.40 105.01 137.90 104.35 C 139.15 107.25 140.88 109.88 142.57 112.53 C 144.42 115.33 144.03 118.83 144.59 121.99 C 145.50 124.08 147.21 125.70 148.59 127.50 C 151.08 126.79 153.50 125.71 156.10 125.47 C 157.73 126.47 158.83 128.08 160.07 129.49 C 165.33 127.82 170.73 126.67 176.12 125.54 C 175.69 120.06 176.36 114.52 178.34 109.37 C 179.74 105.58 181.94 101.47 186.02 100.08 C 189.53 98.96 193.58 97.83 196.98 99.95 C 203.79 103.69 205.74 111.93 207.43 118.91 C 207.77 118.49 208.47 117.65 208.82 117.23 C 212.90 116.43 216.98 115.56 221.00 114.44 L 221.00 115.90 C 216.48 117.19 211.87 118.11 207.34 119.34 C 207.49 120.49 207.65 121.64 207.81 122.79 C 212.16 121.56 216.62 120.74 221.00 119.60 L 221.00 120.95 C 216.78 122.34 212.41 123.18 208.05 124.00 C 208.07 132.47 207.19 141.70 201.75 148.58 C 198.69 152.78 192.69 152.68 188.09 152.01 C 180.43 148.50 178.29 139.59 175.96 132.27 C 170.84 133.62 165.65 134.69 160.54 136.11 C 158.62 141.38 152.94 143.10 148.05 144.46 C 145.63 144.31 143.72 142.57 141.75 141.35 C 137.25 142.44 132.74 143.50 128.15 144.12 C 128.83 147.35 129.17 150.92 132.01 153.09 C 131.35 154.44 130.41 155.61 129.34 156.65 C 129.89 161.09 130.05 165.56 130.11 170.03 C 130.10 173.26 132.12 176.26 131.38 179.52 C 130.17 185.22 129.95 191.17 131.13 196.89 C 132.33 203.87 131.32 211.01 132.21 218.02 C 132.61 220.16 133.13 222.52 134.95 223.94 C 138.08 226.52 140.39 229.91 143.45 232.55 C 145.47 234.40 148.27 234.65 150.83 235.12 C 152.06 236.52 153.27 237.94 154.47 239.37 C 150.01 245.88 140.80 245.90 134.43 242.42 C 130.07 239.52 124.71 243.22 120.29 240.71 C 119.26 240.17 118.10 239.47 118.17 238.14 C 117.19 230.38 121.93 223.14 120.49 215.32 C 121.09 215.37 121.69 215.42 122.29 215.49 C 122.14 218.62 122.07 221.76 121.93 224.89 C 120.70 229.36 119.80 234.07 120.32 238.72 C 123.01 241.07 126.89 239.53 130.12 239.75 C 133.38 239.39 136.30 241.02 139.09 242.45 C 141.71 242.56 144.34 243.05 146.96 242.79 C 148.80 242.13 150.44 241.05 152.17 240.16 C 151.47 239.21 150.77 238.27 150.06 237.33 C 146.46 236.75 142.70 235.61 140.36 232.61 C 137.72 229.29 134.64 226.37 131.75 223.27 C 128.16 215.33 130.94 206.45 129.19 198.17 C 127.78 191.84 128.77 185.30 129.84 179.00 C 130.38 176.60 129.27 174.35 128.48 172.16 C 126.81 174.22 125.72 177.39 122.75 177.87 C 119.76 177.44 119.46 173.78 118.28 171.57 C 118.44 171.51 118.78 171.39 118.95 171.33 C 120.09 173.48 121.25 176.12 124.02 176.44 C 125.55 174.45 126.24 172.01 127.04 169.67 C 127.52 169.64 128.48 169.58 128.96 169.55 C 128.64 165.27 128.48 160.98 128.23 156.70 C 124.38 159.66 119.99 162.40 115.01 162.68 C 111.98 162.96 109.41 160.98 106.64 160.12 C 108.55 164.13 112.51 166.67 114.34 170.76 C 117.20 174.59 116.13 179.68 118.26 183.79 C 119.61 186.40 120.61 189.19 120.25 192.19 C 119.39 191.28 117.68 189.47 116.82 188.57 L 118.87 187.69 C 118.23 187.94 116.95 188.44 116.31 188.69 C 116.40 186.17 115.46 183.87 114.49 181.62 C 113.14 178.56 113.90 174.92 112.18 172.00 C 110.43 169.02 108.49 166.16 106.99 163.04 C 106.12 163.94 105.26 164.83 104.39 165.72 C 104.18 169.49 103.98 173.31 102.76 176.91 C 101.71 180.12 99.40 182.74 98.40 185.98 C 97.35 189.18 96.11 192.32 95.34 195.61 C 93.74 201.68 96.25 208.16 94.03 214.14 C 91.48 220.35 90.66 227.27 91.47 233.92 C 91.99 239.25 95.45 243.50 97.96 248.03 C 100.10 251.73 104.45 254.46 104.74 259.02 C 104.95 261.57 102.02 261.83 100.28 262.52 C 94.91 265.63 87.14 264.90 83.22 259.84 C 81.29 253.36 79.46 246.88 78.23 240.21 C 78.77 237.48 79.08 234.71 79.08 231.93 C 79.11 224.44 75.09 217.53 75.39 210.01 C 75.94 204.63 78.30 199.68 79.64 194.49 C 80.21 189.60 80.33 184.60 82.01 179.92 C 83.87 175.22 82.12 170.15 83.12 165.31 C 84.69 168.66 85.19 172.45 84.92 176.12 C 84.06 180.76 81.44 185.09 81.84 189.93 C 82.52 194.94 83.93 199.82 85.46 204.63 C 85.08 204.55 84.32 204.38 83.94 204.30 C 83.01 201.67 82.06 199.04 81.03 196.45 C 79.39 200.21 77.94 204.10 77.21 208.15 C 75.83 217.41 81.91 225.90 80.81 235.17 C 80.54 237.85 79.61 240.64 80.67 243.27 C 82.26 248.37 84.26 253.33 85.56 258.52 C 88.31 263.15 95.20 263.42 99.14 260.11 C 95.50 257.06 90.44 259.59 86.17 258.26 C 89.56 256.18 93.78 256.87 97.58 256.62 C 98.77 257.66 99.51 259.09 100.45 260.35 C 101.52 259.82 103.27 259.86 103.31 258.31 C 100.60 253.56 96.32 249.89 94.06 244.83 C 89.18 237.97 88.22 229.09 89.54 220.95 C 90.11 217.48 91.99 214.41 92.75 210.99 C 93.23 207.73 92.94 204.41 92.78 201.13 C 89.51 205.84 89.98 211.67 88.65 216.98 C 86.27 211.66 88.58 205.69 91.07 200.84 C 94.49 194.54 95.23 187.11 98.95 180.94 C 101.71 176.61 102.34 171.43 103.13 166.48 C 98.04 167.72 92.39 169.12 87.62 166.09 C 93.52 165.93 99.83 166.38 104.90 162.75 C 105.30 160.32 105.23 157.77 106.17 155.48 C 108.28 154.39 110.62 153.89 112.91 153.36 C 114.11 151.59 115.33 149.81 116.96 148.40 C 116.38 150.47 116.03 152.83 114.46 154.43 C 111.59 155.60 108.15 156.06 106.60 159.16 C 109.93 159.80 113.25 161.10 116.69 160.80 C 121.68 159.86 125.12 155.77 129.54 153.62 C 127.41 150.98 126.78 147.66 126.52 144.37 C 122.65 145.63 118.73 146.78 114.71 147.47 C 108.89 148.43 103.35 150.52 97.64 151.95 C 95.51 159.50 86.28 160.51 79.87 158.45 C 83.92 156.85 88.51 158.13 92.50 156.46 C 95.74 154.04 94.53 149.43 93.67 146.12 C 92.19 145.50 90.64 145.12 89.10 144.67 C 89.25 144.43 89.55 143.96 89.70 143.72 C 93.53 144.45 97.54 145.18 101.36 144.00 C 109.03 141.83 116.79 140.00 124.62 138.51 C 123.75 137.11 122.89 135.71 122.04 134.31 C 122.73 131.71 123.14 129.04 123.21 126.35 C 122.04 125.24 120.90 124.11 119.76 122.98 C 114.60 124.32 109.44 126.79 103.98 125.98 C 98.24 124.87 92.03 125.22 87.04 121.68 C 87.01 122.37 86.94 123.73 86.90 124.41 C 86.39 124.34 85.36 124.20 84.84 124.12 C 84.31 125.77 83.79 127.42 83.28 129.08 C 83.05 128.38 82.58 126.99 82.35 126.30 C 81.99 126.56 81.26 127.09 80.90 127.35 C 80.97 132.56 81.79 137.74 84.10 142.46 C 84.77 142.45 86.12 142.43 86.80 142.42 C 86.70 142.85 86.51 143.71 86.42 144.15 C 84.22 144.21 82.02 144.29 79.83 144.45 C 79.76 143.86 79.63 142.67 79.56 142.08 C 80.60 142.34 82.67 142.86 83.71 143.11 C 76.51 135.75 80.84 125.02 78.32 116.12 C 77.80 115.71 76.75 114.91 76.23 114.50 C 75.54 115.74 74.86 116.99 74.15 118.21 C 74.67 116.32 75.25 114.45 75.80 112.57 C 75.27 112.63 74.22 112.75 73.70 112.82 C 73.62 108.68 72.70 104.63 72.26 100.54 C 75.34 103.11 75.53 107.18 75.41 110.90 C 75.94 111.43 76.46 111.95 76.99 112.48 C 79.38 107.95 78.97 102.78 79.42 97.85 C 79.68 95.90 79.24 93.97 78.74 92.09 C 79.68 92.70 80.62 93.29 81.57 93.89 C 81.18 98.50 81.52 103.20 80.57 107.75 C 78.11 113.32 81.33 119.13 81.44 124.84 C 81.96 125.42 82.47 125.99 82.99 126.57 C 87.95 119.55 85.45 110.73 83.12 103.24 C 83.79 102.97 84.46 102.71 85.13 102.44 C 86.85 102.32 88.56 102.05 90.24 101.68 C 90.97 102.46 91.69 103.24 92.42 104.03 C 89.74 104.05 87.04 104.00 84.38 104.40 C 87.31 109.02 86.83 114.49 87.61 119.65 C 91.36 123.22 96.82 122.36 101.49 123.22 C 107.87 124.74 114.46 122.68 120.26 120.04 C 119.85 115.98 119.70 111.91 119.36 107.85 L 118.84 107.76 C 118.33 108.12 117.30 108.84 116.78 109.20 C 115.96 108.96 115.15 108.71 114.33 108.47 C 110.87 110.46 106.83 110.95 102.99 111.78 C 101.70 111.12 100.67 110.06 99.57 109.13 C 100.91 109.38 102.24 109.66 103.58 109.94 C 106.11 108.77 108.89 108.81 111.59 108.47 C 113.72 106.56 113.18 103.26 113.81 100.69 C 114.45 102.98 115.07 105.28 115.65 107.59 C 116.72 107.03 117.80 106.47 118.84 105.84 C 124.73 100.23 121.10 92.06 120.32 85.26 C 117.95 85.88 115.62 86.72 113.16 86.91 C 111.47 86.37 109.92 85.49 108.36 84.66 C 110.34 83.91 112.28 84.64 114.15 85.32 C 115.56 84.94 116.96 84.55 118.36 84.15 C 119.15 84.51 119.94 84.88 120.73 85.25 M 184.52 102.48 C 177.88 108.01 178.08 117.45 176.55 125.24 C 180.48 124.40 184.38 123.37 188.33 122.57 C 188.80 123.73 189.28 124.89 189.76 126.05 C 189.43 127.02 189.11 127.99 188.79 128.96 C 185.20 130.07 181.54 131.01 177.82 131.58 C 178.42 136.10 179.94 140.55 182.33 144.44 C 184.75 147.82 188.56 151.22 193.06 150.03 C 197.69 150.39 201.44 146.96 203.25 143.00 C 206.80 135.23 206.89 126.33 205.60 118.02 C 204.16 111.94 202.07 104.96 196.12 101.85 C 192.71 99.10 187.99 100.69 184.52 102.48 M 122.63 102.81 C 120.17 108.60 121.02 115.08 122.07 121.10 C 122.14 122.94 123.90 123.88 125.03 125.09 C 125.36 127.80 124.77 130.42 124.13 133.03 C 124.43 134.67 125.11 136.21 125.56 137.82 C 129.58 136.63 133.78 136.30 137.86 135.35 C 136.59 133.24 135.15 131.25 133.53 129.40 C 131.42 127.03 130.44 123.94 128.72 121.30 C 124.95 115.85 124.57 108.99 122.63 102.81 M 160.89 131.00 C 160.88 131.78 160.85 133.34 160.84 134.12 C 169.56 132.08 178.31 130.13 186.91 127.60 C 189.19 127.54 188.21 123.57 186.00 124.80 C 177.57 126.58 169.27 128.98 160.89 131.00 Z" />
<path fill="#333333" opacity="1.00" d=" M 74.16 91.66 C 74.86 89.83 75.66 88.01 77.06 86.60 C 76.87 88.20 76.62 89.80 76.37 91.39 C 75.82 91.46 74.72 91.59 74.16 91.66 Z" />
<path fill="#333333" opacity="1.00" d=" M 124.17 87.41 C 124.63 87.51 125.55 87.70 126.02 87.80 C 126.79 91.06 128.01 94.22 128.38 97.57 C 128.05 97.68 127.39 97.89 127.06 98.00 C 125.52 94.66 124.74 91.02 124.17 87.41 Z" />
<path fill="#333333" opacity="1.00" d=" M 114.19 88.29 C 115.77 88.79 117.17 89.67 118.43 90.73 C 117.12 90.45 115.84 90.07 114.56 89.70 C 113.75 90.39 112.95 91.07 112.14 91.76 C 112.86 93.04 113.50 94.37 113.95 95.77 C 116.68 95.87 119.94 95.58 121.43 98.42 C 118.78 97.91 116.12 97.56 113.44 97.33 C 111.85 98.32 110.08 98.92 108.25 99.26 C 107.89 99.62 107.18 100.34 106.83 100.69 C 104.79 101.09 103.27 102.44 101.90 103.90 C 99.27 103.36 96.58 102.24 96.12 99.27 C 97.84 100.30 99.51 101.44 101.34 102.28 C 103.51 100.39 106.12 99.07 108.18 97.03 C 109.50 96.97 110.82 96.91 112.14 96.84 C 112.66 94.45 111.82 92.22 109.98 90.65 C 112.01 91.25 113.16 89.79 114.19 88.29 Z" />
<path fill="#333333" opacity="1.00" d=" M 106.13 89.11 C 106.77 89.25 108.05 89.52 108.70 89.66 C 105.35 92.17 103.74 96.46 99.53 97.92 C 101.50 94.82 103.93 92.05 106.13 89.11 Z" />
<path fill="#333333" opacity="1.00" d=" M 84.17 95.10 C 85.44 94.52 86.75 94.03 88.17 94.00 C 86.28 94.63 85.56 95.79 86.00 97.47 C 87.97 98.24 90.02 97.78 91.92 97.03 C 92.18 97.52 92.71 98.50 92.97 98.99 C 90.03 99.86 87.01 99.99 84.35 98.23 C 84.29 97.19 84.23 96.14 84.17 95.10 Z" />
<path fill="#333333" opacity="1.00" d=" M 129.44 102.44 C 129.76 102.20 130.41 101.71 130.73 101.46 C 131.86 102.46 132.99 103.44 134.14 104.41 L 134.79 102.36 C 135.11 104.11 135.46 105.85 135.85 107.59 C 132.71 107.45 131.30 104.47 129.44 102.44 Z" />
<path fill="#333333" opacity="1.00" d=" M 190.74 101.65 C 194.51 102.91 196.39 106.67 197.84 110.08 C 201.99 119.08 202.32 129.52 200.12 139.07 C 198.86 142.57 197.93 147.17 193.93 148.50 C 202.71 135.00 201.98 115.81 191.52 103.45 C 191.33 103.00 190.94 102.10 190.74 101.65 Z" />
<path fill="#333333" opacity="1.00" d=" M 94.33 106.18 C 96.54 105.95 98.75 105.74 100.97 105.60 C 99.81 108.45 95.83 109.18 94.33 106.18 Z" />
<path fill="#333333" opacity="1.00" d=" M 88.99 107.14 C 91.64 108.48 94.19 110.04 96.58 111.81 C 93.40 112.76 88.75 111.00 88.99 107.14 Z" />
<path fill="#333333" opacity="1.00" d=" M 101.15 112.85 C 102.74 112.49 103.36 113.13 102.99 114.76 C 101.40 115.10 100.79 114.47 101.15 112.85 Z" />
<path fill="#333333" opacity="1.00" d=" M 112.10 118.23 C 111.69 115.95 113.21 114.44 115.21 113.77 C 114.42 115.41 113.35 116.91 112.10 118.23 Z" />
<path fill="#333333" opacity="1.00" d=" M 100.73 115.50 C 102.94 117.93 105.30 120.20 107.75 122.38 C 103.89 123.28 100.84 118.93 100.73 115.50 Z" />
<path fill="#333333" opacity="1.00" d=" M 104.99 128.47 C 110.33 128.55 115.39 126.67 120.43 125.14 C 119.43 126.16 118.58 127.56 117.11 127.98 C 111.02 129.98 104.50 131.04 98.12 129.88 C 97.07 134.80 92.40 137.41 87.95 138.74 C 90.40 135.14 95.27 133.89 96.82 129.46 C 95.02 128.66 93.19 127.96 91.36 127.23 C 90.10 129.52 89.16 131.96 89.14 134.60 C 88.71 134.48 87.86 134.24 87.43 134.13 C 87.64 131.05 88.98 128.24 90.53 125.64 C 95.24 127.03 99.99 128.78 104.99 128.47 Z" />
<path fill="#333333" opacity="1.00" d=" M 101.06 136.40 C 106.93 134.29 113.12 133.09 119.35 132.89 C 119.36 133.93 119.39 134.97 119.42 136.01 C 113.72 137.99 108.39 140.86 102.75 142.92 C 106.53 138.74 112.19 137.35 117.18 135.17 C 110.87 134.21 104.83 137.60 98.63 138.47 C 99.39 137.73 100.02 136.76 101.06 136.40 Z" />
<path fill="#333333" opacity="1.00" d=" M 81.57 148.92 C 83.97 147.49 86.33 146.01 88.56 144.32 C 88.81 148.28 84.73 149.48 81.57 148.92 Z" />
<path fill="#333333" opacity="1.00" d=" M 53.66 160.47 C 62.95 157.83 72.40 155.69 81.83 153.62 C 82.19 156.54 78.99 155.96 77.06 156.06 C 78.98 156.81 80.02 158.36 80.11 160.42 C 78.38 159.64 77.02 158.34 75.77 156.95 C 68.68 158.40 61.72 160.42 54.71 162.19 C 54.28 162.12 53.43 161.98 53.00 161.91 C 53.17 161.55 53.50 160.83 53.66 160.47 Z" />
<path fill="#333333" opacity="1.00" d=" M 87.51 179.82 C 90.07 179.88 92.51 179.20 94.77 178.04 C 95.38 179.87 95.98 181.70 96.44 183.58 C 95.64 182.58 94.88 181.55 94.16 180.51 C 92.49 180.99 90.82 181.43 89.14 181.85 C 88.42 182.98 87.70 184.12 86.95 185.24 C 87.11 183.43 87.31 181.63 87.51 179.82 Z" />
<path fill="#333333" opacity="1.00" d=" M 88.88 189.07 C 90.43 189.15 92.00 189.22 93.49 189.68 C 92.90 192.03 89.20 191.36 88.88 189.07 Z" />
<path fill="#333333" opacity="1.00" d=" M 115.91 188.43 C 116.42 188.99 116.93 189.56 117.42 190.15 C 116.48 195.04 117.67 199.96 118.46 204.77 C 119.77 208.13 123.02 211.55 120.22 215.09 C 119.85 209.27 114.35 205.05 114.83 199.12 C 114.85 195.53 115.30 191.96 115.91 188.43 Z" />
<path fill="#333333" opacity="1.00" d=" M 125.64 234.37 C 122.99 232.31 122.30 228.53 124.28 225.77 C 124.55 228.66 125.03 231.53 125.64 234.37 Z" />
<path fill="#333333" opacity="1.00" d=" M 82.59 242.76 C 83.75 239.71 84.60 235.29 88.28 234.42 C 86.66 237.37 85.65 240.91 82.59 242.76 Z" />
</g>
</svg>
