<?xml version="1.0" encoding="UTF-8" ?>
<!DOCTYPE svg PUBLIC "-//W3C//DTD SVG 1.1//EN" "http://www.w3.org/Graphics/SVG/1.1/DTD/svg11.dtd">
<svg width="173pt" height="275pt" viewBox="0 0 173 275" version="1.1" xmlns="http://www.w3.org/2000/svg">
<g id="#ffffffff">
<path fill="#FFFFFF" opacity="1.00" d=" M 0.00 0.00 L 173.00 0.00 L 173.00 275.00 L 1.75 275.00 C 1.75 274.35 1.76 273.06 1.76 272.41 C 0.53 272.97 0.28 273.83 1.00 275.00 L 0.00 275.00 L 0.00 0.00 M 54.22 31.32 C 50.39 35.99 52.35 42.35 53.36 47.68 C 54.43 51.11 54.56 54.83 53.22 58.22 C 50.31 61.99 45.70 63.98 42.92 67.91 C 37.87 71.25 32.95 76.53 33.86 83.08 C 34.50 87.59 34.64 92.27 36.09 96.62 C 36.45 93.46 36.77 90.29 36.96 87.12 C 35.54 83.72 35.54 80.08 35.31 76.47 C 37.34 73.24 41.04 72.29 44.63 72.99 L 44.79 74.84 C 46.25 73.33 47.31 71.52 47.98 69.53 C 48.67 69.75 50.05 70.19 50.75 70.40 C 51.47 72.64 52.06 74.92 52.83 77.14 C 52.54 75.59 52.21 74.06 51.84 72.53 C 52.65 71.48 53.46 70.43 54.25 69.37 C 52.61 68.95 50.96 68.57 49.30 68.21 C 47.44 69.36 45.60 70.58 44.06 72.16 C 43.41 71.78 42.75 71.39 42.10 71.00 C 45.08 67.60 48.33 64.40 52.57 62.64 C 55.69 59.33 56.16 54.78 57.44 50.61 C 58.18 51.89 58.91 53.18 59.62 54.48 C 61.86 59.02 67.47 60.22 72.08 60.64 L 71.90 61.95 C 74.98 60.92 78.26 61.16 81.44 61.48 C 79.77 64.18 75.80 63.78 74.47 66.73 C 77.88 66.91 80.87 65.43 82.82 62.68 C 83.31 62.80 84.28 63.04 84.77 63.16 C 85.96 63.11 87.47 62.52 88.37 63.65 C 91.47 66.84 92.75 71.38 93.09 75.71 C 92.29 75.46 90.71 74.94 89.92 74.69 L 91.02 74.44 C 88.84 71.36 86.63 66.75 82.11 67.31 C 83.69 69.99 86.60 71.56 88.58 73.93 C 89.96 78.23 89.67 84.42 85.01 86.58 L 85.72 84.26 C 83.93 84.51 82.14 84.73 80.35 84.92 C 79.58 84.54 78.03 83.78 77.26 83.39 C 77.64 88.34 84.19 87.04 87.47 86.09 C 87.92 89.85 90.08 93.28 89.68 97.13 C 87.96 96.63 86.26 96.10 84.55 95.58 C 84.46 95.97 84.29 96.75 84.21 97.14 C 86.84 97.71 88.76 99.38 89.78 101.88 C 88.19 103.60 84.62 104.61 86.44 107.57 C 85.67 107.42 84.13 107.11 83.36 106.95 C 82.93 104.77 81.99 102.76 80.92 100.83 C 80.93 103.54 81.00 106.36 79.53 108.76 C 75.34 108.01 71.48 110.59 67.33 109.32 C 68.86 110.29 70.40 112.54 72.44 111.62 C 75.62 110.30 79.38 110.69 82.10 108.30 C 83.04 108.69 83.97 109.08 84.90 109.47 C 85.61 108.91 86.32 108.35 87.03 107.79 C 87.17 111.90 87.75 115.97 87.93 120.07 C 83.59 122.21 78.81 123.33 74.04 123.90 C 70.45 123.31 66.84 122.94 63.24 122.49 C 62.46 118.49 59.68 115.46 57.84 111.97 C 57.24 107.80 57.33 103.46 55.78 99.48 C 54.02 94.93 54.60 89.68 51.55 85.62 C 49.23 85.34 46.90 85.10 44.58 84.78 C 45.07 86.82 44.71 89.49 46.78 90.75 C 46.79 89.75 46.80 87.76 46.80 86.77 C 48.04 87.22 49.94 86.70 50.64 88.12 C 52.43 91.81 52.74 96.01 54.05 99.87 C 55.05 102.52 54.95 105.36 54.91 108.14 C 53.75 106.32 52.61 104.51 51.42 102.71 C 52.19 108.42 56.12 112.77 59.73 116.95 C 60.79 122.92 62.84 128.65 64.20 134.55 C 64.85 137.90 64.80 141.47 66.42 144.57 C 68.45 148.32 68.04 152.94 66.83 156.89 C 65.00 157.87 62.84 157.58 60.84 157.83 C 60.55 153.36 61.34 148.65 59.40 144.43 C 58.26 141.61 55.17 139.61 55.61 136.26 C 53.17 132.14 49.67 128.52 48.35 123.79 C 47.60 119.61 44.07 116.38 44.94 111.84 C 45.80 113.36 46.43 115.07 47.70 116.33 C 46.93 110.96 46.96 105.43 44.95 100.31 C 44.25 99.21 43.57 98.10 42.89 96.99 C 41.65 96.79 40.42 96.59 39.18 96.39 C 40.07 97.29 40.97 98.19 41.86 99.10 C 43.58 103.11 45.74 107.12 45.00 111.67 C 40.65 107.89 39.38 102.12 35.89 97.72 C 36.28 100.14 37.23 102.43 38.51 104.52 C 41.18 109.02 42.74 114.07 45.40 118.58 C 44.76 124.91 49.56 129.67 51.08 135.47 C 52.43 136.16 53.76 136.88 55.10 137.60 C 51.95 137.39 48.74 137.52 45.85 138.92 C 40.93 140.53 39.24 146.34 39.42 151.03 C 39.73 156.25 41.15 162.09 45.61 165.34 C 47.34 165.89 49.17 166.08 50.96 166.42 C 50.82 169.64 50.52 172.86 50.64 176.08 C 50.83 178.85 49.32 181.32 48.89 184.00 C 47.99 187.63 48.18 191.42 47.57 195.09 C 45.95 199.97 44.05 204.82 43.36 209.95 C 43.10 216.82 46.41 223.18 46.99 229.95 C 47.14 233.41 47.10 236.96 46.05 240.29 C 46.57 241.89 47.10 243.48 47.62 245.08 C 46.67 249.02 49.87 252.19 50.18 255.99 C 50.51 257.68 50.52 259.73 52.06 260.86 C 56.16 264.85 63.27 265.73 67.97 262.33 C 69.22 262.13 70.44 261.83 71.64 261.45 C 73.06 260.28 72.55 258.31 72.64 256.73 C 70.27 253.02 66.61 250.32 64.70 246.32 C 63.47 243.93 61.94 241.71 60.65 239.35 C 58.43 233.79 58.80 227.62 59.53 221.80 C 59.95 217.69 62.48 214.11 62.65 209.95 C 62.86 206.26 62.37 202.59 62.49 198.90 C 62.97 194.08 65.23 189.69 66.41 185.03 C 67.32 182.35 69.46 180.31 70.51 177.69 C 71.94 173.84 72.21 169.71 72.41 165.64 C 73.29 164.79 74.17 163.92 75.04 163.06 C 76.48 166.17 78.29 169.09 80.01 172.05 C 81.75 175.02 80.65 178.77 82.20 181.82 C 83.02 183.81 84.57 185.77 83.82 188.05 C 82.92 192.34 82.66 196.72 82.57 201.10 C 83.49 206.03 87.50 209.87 87.96 214.97 C 89.78 223.27 84.73 231.07 85.90 239.41 C 87.50 240.30 89.06 241.36 90.89 241.71 C 93.63 241.97 96.32 240.85 99.05 241.27 C 102.11 242.03 104.68 244.34 107.93 244.36 C 109.67 244.49 111.39 244.82 113.14 244.95 C 116.51 243.78 120.50 242.77 122.11 239.20 C 120.49 237.48 119.24 234.85 116.58 234.72 C 109.48 233.88 106.76 226.25 101.22 222.74 C 97.95 213.47 100.80 203.36 98.33 193.93 C 97.99 189.09 97.90 184.13 99.18 179.41 C 100.02 175.83 97.33 172.61 97.85 169.02 C 98.07 164.60 97.43 160.22 97.03 155.84 C 98.49 155.62 99.95 155.42 101.42 155.23 C 103.03 152.65 104.52 149.95 105.16 146.94 C 108.80 146.35 112.12 144.67 115.47 143.22 C 116.44 136.88 110.97 132.48 107.97 127.58 C 108.92 127.13 110.82 126.22 111.77 125.77 C 115.80 127.82 118.76 131.58 119.48 136.08 C 120.14 140.47 120.58 145.97 116.76 149.09 C 113.95 151.61 111.51 147.47 109.21 146.26 C 109.41 149.28 112.25 153.07 115.61 151.86 C 118.02 151.32 120.76 151.34 122.60 149.45 C 127.05 146.13 126.67 139.81 125.90 134.92 C 125.36 130.42 122.61 126.48 118.97 123.89 C 115.11 124.49 111.26 125.30 107.62 126.77 C 105.61 122.09 104.51 117.05 104.39 111.97 C 104.33 106.82 101.95 102.09 99.28 97.83 C 96.59 93.71 96.12 88.72 95.04 84.04 C 93.89 79.54 94.76 74.81 93.56 70.32 C 93.35 69.50 93.43 68.69 93.78 67.89 C 91.88 65.14 90.24 61.35 86.47 60.93 C 82.88 60.54 79.27 60.27 75.72 59.59 C 77.15 55.60 77.79 51.39 78.35 47.21 C 79.05 43.00 77.18 39.01 76.67 34.89 C 76.34 30.63 72.27 27.22 68.06 27.29 C 63.20 26.82 57.47 27.13 54.22 31.32 M 54.72 69.28 C 57.23 69.31 59.66 68.67 62.11 68.24 C 66.03 67.49 69.90 71.08 73.56 68.43 C 67.46 66.72 60.39 65.81 54.72 69.28 M 73.36 74.57 C 74.17 78.06 75.30 81.52 75.03 85.16 C 73.13 86.13 71.11 86.85 69.09 87.54 C 66.62 88.44 64.85 90.86 62.08 91.01 C 60.51 90.77 59.28 89.85 59.48 88.14 C 59.35 91.83 56.15 87.91 54.17 88.19 C 54.07 88.54 53.88 89.23 53.79 89.58 C 56.98 92.65 61.67 93.22 65.79 91.90 C 67.26 90.53 68.83 89.26 70.66 88.40 C 70.66 89.05 70.67 90.36 70.67 91.02 C 70.92 90.25 71.18 89.49 71.43 88.73 C 73.33 87.96 75.37 87.04 75.97 84.89 C 78.27 81.46 76.03 77.09 73.36 74.57 M 52.32 81.51 C 53.11 82.95 53.91 84.38 54.73 85.81 C 55.14 84.45 55.50 83.09 55.82 81.71 C 54.66 81.64 53.49 81.57 52.32 81.51 M 78.17 91.03 C 79.70 92.37 80.85 94.70 79.62 96.62 C 78.39 96.85 77.14 97.01 75.89 97.10 C 75.57 97.49 74.92 98.28 74.60 98.68 C 72.50 99.38 70.75 100.72 69.28 102.36 C 67.40 101.42 65.64 100.29 63.82 99.23 C 64.42 100.48 65.06 101.71 65.74 102.91 C 67.15 103.18 68.56 103.46 69.98 103.76 C 71.35 102.38 72.92 101.23 74.80 100.66 C 75.18 100.33 75.93 99.66 76.31 99.33 C 78.24 98.76 80.10 97.96 81.93 97.14 C 81.40 95.30 80.82 93.46 80.16 91.66 C 80.93 91.01 81.69 90.35 82.46 89.69 C 83.68 90.13 84.91 90.55 86.15 90.96 C 85.11 90.01 84.06 89.08 83.00 88.16 C 81.43 89.19 79.87 90.24 78.17 91.03 M 74.13 89.12 C 71.97 92.18 69.22 94.80 67.23 97.96 C 68.88 97.10 70.47 96.13 72.07 95.17 C 73.14 92.94 74.74 91.05 76.76 89.63 C 76.10 89.50 74.79 89.25 74.13 89.12 M 82.38 96.38 C 82.64 96.64 82.64 96.64 82.38 96.38 M 62.51 106.02 C 62.69 106.54 63.07 107.59 63.25 108.11 C 65.49 108.29 67.69 108.06 68.76 105.79 C 66.68 105.76 64.59 105.94 62.51 106.02 M 68.57 112.75 C 68.04 114.27 70.28 116.04 71.64 115.42 C 72.16 113.90 70.03 111.50 68.57 112.75 M 81.31 114.18 C 80.22 114.74 79.14 116.34 79.99 117.50 C 81.79 118.42 84.09 113.32 81.31 114.18 M 47.68 116.58 C 51.56 121.56 57.50 124.43 61.40 129.47 C 60.26 126.63 58.87 123.64 55.89 122.34 C 52.71 120.99 51.52 116.40 47.68 116.58 M 68.70 116.64 C 69.30 119.56 72.33 123.31 75.71 122.33 C 73.28 120.19 71.07 117.81 68.73 115.58 L 68.70 116.64 Z" />
<path fill="#FFFFFF" opacity="1.00" d=" M 56.82 31.81 C 60.42 28.46 65.60 28.56 70.20 28.60 C 73.11 30.76 75.67 33.60 75.74 37.43 C 77.80 43.98 76.94 50.96 74.75 57.35 C 74.03 57.70 72.58 58.41 71.86 58.76 C 68.86 57.90 65.92 56.83 62.90 56.04 C 61.61 54.20 60.47 52.25 59.64 50.16 C 58.01 49.08 56.41 47.94 54.85 46.77 C 55.20 45.12 55.63 43.49 56.06 41.86 C 55.45 42.01 54.23 42.33 53.62 42.49 C 53.36 38.74 53.69 34.38 56.82 31.81 Z" />
<path fill="#FFFFFF" opacity="1.00" d=" M 90.97 75.39 C 91.55 75.97 92.15 76.55 92.74 77.13 C 92.65 79.31 92.60 81.49 92.62 83.67 C 93.72 86.67 94.29 89.82 95.03 92.92 C 95.97 95.96 94.70 99.08 95.09 102.18 C 95.85 100.95 96.59 99.71 97.32 98.46 C 99.00 101.02 100.96 103.50 101.59 106.57 C 103.19 114.41 104.34 122.33 105.69 130.22 C 106.22 130.32 107.26 130.53 107.78 130.63 C 109.78 134.08 113.05 137.05 113.69 141.12 C 112.13 143.44 108.60 143.51 106.21 144.76 C 104.13 140.97 104.95 136.21 102.45 132.57 C 100.56 129.07 96.67 126.61 92.63 127.74 C 93.20 125.08 91.00 123.35 89.49 121.53 C 89.57 120.93 89.65 120.33 89.73 119.73 C 88.85 116.89 89.17 113.90 89.18 110.98 C 90.14 116.21 93.38 120.48 96.22 124.81 C 97.31 126.49 98.83 127.79 100.36 129.06 C 98.84 124.48 95.75 120.75 93.38 116.62 C 91.84 114.03 91.38 110.82 89.15 108.65 C 89.12 107.41 89.10 106.16 89.10 104.92 C 89.83 104.48 90.56 104.05 91.31 103.62 C 92.37 103.98 93.44 104.34 94.51 104.69 C 94.46 104.21 94.34 103.27 94.28 102.79 C 93.05 102.50 91.82 102.23 90.58 101.95 C 91.01 97.35 90.79 92.72 90.25 88.14 C 89.63 83.82 92.22 79.70 90.97 75.39 Z" />
<path fill="#FFFFFF" opacity="1.00" d=" M 74.08 126.19 C 79.08 126.10 83.71 123.77 88.59 122.89 C 87.77 123.95 87.06 125.25 85.76 125.81 C 79.49 128.33 72.62 128.85 65.95 128.14 C 66.17 128.62 66.61 129.57 66.83 130.04 C 73.17 130.86 79.79 130.28 85.65 127.61 C 87.02 126.78 87.59 125.14 88.54 123.93 C 89.70 125.30 90.84 126.69 91.96 128.10 C 88.02 129.18 84.54 131.87 83.65 136.02 C 82.10 136.45 80.57 136.94 79.06 137.45 C 77.58 136.39 76.11 135.32 74.84 134.02 C 72.00 134.44 69.16 134.86 66.33 135.33 C 65.75 131.92 64.77 128.60 63.72 125.32 C 64.04 124.69 64.36 124.08 64.70 123.46 C 66.96 125.92 70.92 125.86 74.08 126.19 M 76.38 134.02 C 77.01 134.55 77.65 135.08 78.29 135.61 C 79.76 134.60 84.08 135.70 83.78 133.19 C 81.29 132.89 78.85 133.92 76.38 134.02 Z" />
<path fill="#FFFFFF" opacity="1.00" d=" M 114.45 124.82 C 121.08 124.95 124.73 132.11 124.82 138.00 C 125.42 142.35 124.17 147.63 119.63 149.32 C 122.97 141.08 121.59 130.65 114.45 124.82 Z" />
<path fill="#FFFFFF" opacity="1.00" d=" M 93.87 128.90 C 96.02 129.66 98.39 130.30 100.03 132.00 C 105.37 138.24 106.26 149.76 98.28 154.30 C 101.17 145.85 100.64 135.41 93.87 128.90 Z" />
<path fill="#FFFFFF" opacity="1.00" d=" M 90.08 129.88 C 96.29 131.96 99.24 138.72 98.90 144.89 C 99.17 149.09 97.12 153.40 93.04 154.95 C 85.53 152.47 83.52 143.13 85.26 136.26 C 85.81 133.48 87.92 131.53 90.08 129.88 Z" />
<path fill="#FFFFFF" opacity="1.00" d=" M 70.73 134.80 C 77.22 135.20 80.73 142.19 80.82 148.02 C 81.42 152.36 80.16 157.63 75.64 159.32 C 79.02 151.06 77.45 140.94 70.73 134.80 Z" />
<path fill="#FFFFFF" opacity="1.00" d=" M 66.23 137.36 C 66.82 136.72 67.41 136.09 68.01 135.47 C 72.58 138.50 75.88 143.42 75.82 149.05 C 76.47 153.17 75.11 157.35 71.89 160.04 C 71.08 159.58 70.27 159.13 69.47 158.68 C 70.66 151.39 68.15 144.28 66.23 137.36 Z" />
<path fill="#FFFFFF" opacity="1.00" d=" M 79.88 138.96 C 81.19 138.36 82.50 137.76 83.80 137.15 C 83.06 138.85 84.48 142.22 82.18 142.88 C 81.01 141.85 80.45 140.37 79.88 138.96 Z" />
<path fill="#FFFFFF" opacity="1.00" d=" M 49.87 138.89 C 58.80 140.39 61.62 151.39 59.06 158.92 C 58.36 161.36 56.24 162.88 54.29 164.30 C 57.16 155.84 56.64 145.41 49.87 138.89 Z" />
<path fill="#FFFFFF" opacity="1.00" d=" M 46.07 139.88 C 54.01 142.58 56.45 152.52 54.10 159.81 C 53.30 162.96 49.50 165.96 46.42 163.73 C 40.98 159.99 39.82 152.30 41.26 146.26 C 41.81 143.48 43.92 141.53 46.07 139.88 Z" />
<path fill="#FFFFFF" opacity="1.00" d=" M 82.20 145.03 C 84.23 143.59 84.01 146.34 84.52 147.66 C 82.88 149.13 82.81 151.31 82.91 153.36 C 83.41 152.29 84.41 150.15 84.91 149.09 C 86.35 152.66 89.14 155.91 93.13 156.57 C 89.23 158.88 85.01 161.98 80.20 160.54 C 79.49 161.04 78.79 161.56 78.11 162.09 C 84.59 164.10 91.10 160.70 95.98 156.64 C 96.12 161.05 96.37 165.46 96.55 169.87 C 96.08 169.77 95.14 169.56 94.67 169.46 C 93.76 171.77 93.56 176.98 90.07 176.01 C 88.26 174.67 87.37 172.51 86.09 170.73 C 86.82 173.16 87.16 176.17 89.44 177.71 C 92.96 178.47 94.60 174.59 95.93 172.14 C 97.14 174.49 98.56 177.10 97.52 179.80 C 96.30 183.39 96.85 187.20 96.16 190.87 C 95.70 193.51 96.63 196.08 97.01 198.66 C 98.43 206.19 96.17 214.01 98.87 221.37 C 98.80 221.71 98.66 222.41 98.59 222.76 C 101.60 225.62 104.80 228.33 107.25 231.72 C 109.28 234.62 112.56 236.34 115.99 236.98 C 117.83 237.11 118.86 238.70 120.06 239.87 C 118.30 240.87 116.58 241.92 114.89 243.02 C 112.26 242.85 109.64 242.50 107.01 242.49 C 104.41 241.35 101.87 239.66 98.93 239.74 C 95.28 239.69 91.51 240.54 88.00 239.15 C 87.89 234.61 88.11 230.03 89.57 225.70 C 90.36 219.17 90.61 211.99 86.89 206.24 C 84.89 200.58 84.59 194.36 85.27 188.42 C 85.62 189.27 86.31 190.99 86.66 191.84 C 87.06 191.63 87.87 191.20 88.28 190.99 C 88.40 186.89 85.25 183.78 84.66 179.85 C 84.21 177.32 84.49 174.51 82.96 172.29 C 80.48 168.35 78.52 163.32 73.63 161.87 C 68.57 167.70 60.68 165.01 54.10 165.69 C 57.45 165.74 58.96 162.95 60.30 160.35 C 62.61 160.17 64.90 159.83 67.19 159.50 C 68.23 160.32 69.26 161.15 70.36 161.89 C 74.93 161.81 79.59 159.97 81.64 155.62 C 83.82 152.41 81.63 148.48 82.20 145.03 M 93.51 234.45 C 93.18 232.92 92.76 231.41 92.32 229.91 C 92.27 228.43 92.21 226.95 92.04 225.48 C 90.20 228.46 90.63 232.31 93.51 234.45 Z" />
<path fill="#FFFFFF" opacity="1.00" d=" M 53.28 167.32 C 59.25 169.01 65.19 167.55 71.10 166.53 C 70.71 169.21 70.29 171.89 69.60 174.52 C 68.45 179.04 65.02 182.55 63.94 187.11 C 61.97 191.59 61.40 196.60 58.80 200.80 C 56.23 205.56 54.40 211.58 56.55 216.81 C 57.71 211.57 57.22 205.88 60.41 201.25 C 60.85 205.67 61.41 210.38 59.38 214.52 C 56.30 220.72 56.49 227.93 57.43 234.61 C 58.03 239.48 61.12 243.35 63.36 247.53 C 65.45 251.94 69.58 254.88 71.87 259.17 C 70.54 259.53 69.19 259.84 67.84 260.13 C 67.04 258.82 66.23 257.53 65.37 256.26 C 61.74 257.46 57.36 255.80 54.24 258.28 C 57.63 258.80 61.04 259.02 64.43 258.43 C 64.99 258.86 66.10 259.71 66.66 260.14 C 62.35 264.27 53.30 262.41 52.80 255.90 C 51.70 249.52 46.87 243.59 48.59 236.93 C 50.70 227.07 43.77 217.96 45.21 208.12 C 46.00 204.11 47.33 200.20 49.03 196.48 C 50.48 199.37 50.68 203.11 53.41 205.19 C 52.05 200.10 50.84 194.97 49.61 189.84 C 49.93 186.45 50.67 183.13 51.89 179.96 C 53.59 175.95 52.87 171.54 53.28 167.32 M 55.38 179.93 C 55.28 181.74 55.18 183.55 55.24 185.37 C 55.72 184.25 56.19 183.13 56.64 182.00 C 58.35 181.53 60.06 181.08 61.76 180.57 C 62.62 181.61 63.51 182.63 64.43 183.63 C 63.86 181.74 63.17 179.89 62.46 178.05 C 60.25 179.17 57.85 179.78 55.38 179.93 M 56.59 188.85 C 56.96 191.71 59.55 191.05 61.62 190.86 C 60.59 188.97 58.41 189.13 56.59 188.85 M 50.53 242.88 C 53.62 240.91 54.75 237.35 56.23 234.22 C 52.70 235.58 51.60 239.63 50.53 242.88 Z" />
</g>
<g id="#4b4c4bff">
<path fill="#333333" opacity="1.00" d=" M 54.22 31.32 C 57.47 27.13 63.20 26.82 68.06 27.29 C 72.27 27.22 76.34 30.63 76.67 34.89 C 77.18 39.01 79.05 43.00 78.35 47.21 C 77.79 51.39 77.15 55.60 75.72 59.59 C 79.27 60.27 82.88 60.54 86.47 60.93 C 90.24 61.35 91.88 65.14 93.78 67.89 C 93.43 68.69 93.35 69.50 93.56 70.32 C 94.76 74.81 93.89 79.54 95.04 84.04 C 96.12 88.72 96.59 93.71 99.28 97.83 C 101.95 102.09 104.33 106.82 104.39 111.97 C 104.51 117.05 105.61 122.09 107.62 126.77 C 111.26 125.30 115.11 124.49 118.97 123.89 C 122.61 126.48 125.36 130.42 125.90 134.92 C 126.67 139.81 127.05 146.13 122.60 149.45 C 120.76 151.34 118.02 151.32 115.61 151.86 C 112.25 153.07 109.41 149.28 109.21 146.26 C 111.51 147.47 113.95 151.61 116.76 149.09 C 120.58 145.97 120.14 140.47 119.48 136.08 C 118.76 131.58 115.80 127.82 111.77 125.77 C 110.82 126.22 108.92 127.13 107.97 127.58 C 110.97 132.48 116.44 136.88 115.47 143.22 C 112.12 144.67 108.80 146.35 105.16 146.94 C 104.52 149.95 103.03 152.65 101.42 155.23 C 99.95 155.42 98.49 155.62 97.03 155.84 C 97.43 160.22 98.07 164.60 97.85 169.02 C 97.33 172.61 100.02 175.83 99.18 179.41 C 97.90 184.13 97.99 189.09 98.33 193.93 C 100.80 203.36 97.95 213.47 101.22 222.74 C 106.76 226.25 109.48 233.88 116.58 234.72 C 119.24 234.85 120.49 237.48 122.11 239.20 C 120.50 242.77 116.51 243.78 113.14 244.95 C 111.39 244.82 109.67 244.49 107.93 244.36 C 104.68 244.34 102.11 242.03 99.05 241.27 C 96.32 240.85 93.63 241.97 90.89 241.71 C 89.06 241.36 87.50 240.30 85.90 239.41 C 84.73 231.07 89.78 223.27 87.96 214.97 C 87.50 209.87 83.49 206.03 82.57 201.10 C 82.66 196.72 82.92 192.34 83.82 188.05 C 84.57 185.77 83.02 183.81 82.20 181.82 C 80.65 178.77 81.75 175.02 80.01 172.05 C 78.29 169.09 76.48 166.17 75.04 163.06 C 74.17 163.92 73.29 164.79 72.41 165.64 C 72.21 169.71 71.94 173.84 70.51 177.69 C 69.46 180.31 67.32 182.35 66.41 185.03 C 65.23 189.69 62.97 194.08 62.49 198.90 C 62.37 202.59 62.86 206.26 62.65 209.95 C 62.48 214.11 59.95 217.69 59.53 221.80 C 58.80 227.62 58.43 233.79 60.65 239.35 C 61.94 241.71 63.47 243.93 64.70 246.32 C 66.61 250.32 70.27 253.02 72.64 256.73 C 72.55 258.31 73.06 260.28 71.64 261.45 C 70.44 261.83 69.22 262.13 67.97 262.33 C 63.27 265.73 56.16 264.85 52.06 260.86 C 50.52 259.73 50.51 257.68 50.18 255.99 C 49.87 252.19 46.67 249.02 47.62 245.08 C 47.10 243.48 46.57 241.89 46.05 240.29 C 47.10 236.96 47.14 233.41 46.99 229.95 C 46.41 223.18 43.10 216.82 43.36 209.95 C 44.05 204.82 45.95 199.97 47.57 195.09 C 48.18 191.42 47.99 187.63 48.89 184.00 C 49.32 181.32 50.83 178.85 50.64 176.08 C 50.52 172.86 50.82 169.64 50.96 166.42 C 49.17 166.08 47.34 165.89 45.61 165.34 C 41.15 162.09 39.73 156.25 39.42 151.03 C 39.24 146.34 40.93 140.53 45.85 138.92 C 48.74 137.52 51.95 137.39 55.10 137.60 C 53.76 136.88 52.43 136.16 51.08 135.47 C 49.56 129.67 44.76 124.91 45.40 118.58 C 42.74 114.07 41.18 109.02 38.51 104.52 C 37.23 102.43 36.28 100.14 35.89 97.72 C 39.38 102.12 40.65 107.89 45.00 111.67 C 45.74 107.12 43.58 103.11 41.86 99.10 C 40.97 98.19 40.07 97.29 39.18 96.39 C 40.42 96.59 41.65 96.79 42.89 96.99 C 43.57 98.10 44.25 99.21 44.95 100.31 C 46.96 105.43 46.93 110.96 47.70 116.33 C 46.43 115.07 45.80 113.36 44.94 111.84 C 44.07 116.38 47.60 119.61 48.35 123.79 C 49.67 128.52 53.17 132.14 55.61 136.26 C 55.17 139.61 58.26 141.61 59.40 144.43 C 61.34 148.65 60.55 153.36 60.84 157.83 C 62.84 157.58 65.00 157.87 66.83 156.89 C 68.04 152.94 68.45 148.32 66.42 144.57 C 64.80 141.47 64.85 137.90 64.20 134.55 C 62.84 128.65 60.79 122.92 59.73 116.95 C 56.12 112.77 52.19 108.42 51.42 102.71 C 52.61 104.51 53.75 106.32 54.91 108.14 C 54.95 105.36 55.05 102.52 54.05 99.87 C 52.74 96.01 52.43 91.81 50.64 88.12 C 49.94 86.70 48.04 87.22 46.80 86.77 C 46.80 87.76 46.79 89.75 46.78 90.75 C 44.71 89.49 45.07 86.82 44.58 84.78 C 46.90 85.10 49.23 85.34 51.55 85.62 C 54.60 89.68 54.02 94.93 55.78 99.48 C 57.33 103.46 57.24 107.80 57.84 111.97 C 59.68 115.46 62.46 118.49 63.24 122.49 C 66.84 122.94 70.45 123.31 74.04 123.90 C 78.81 123.33 83.59 122.21 87.93 120.07 C 87.75 115.97 87.17 111.90 87.03 107.79 C 86.32 108.35 85.61 108.91 84.90 109.47 C 83.97 109.08 83.04 108.69 82.10 108.30 C 79.38 110.69 75.62 110.30 72.44 111.62 C 70.40 112.54 68.86 110.29 67.33 109.32 C 71.48 110.59 75.34 108.01 79.53 108.76 C 81.00 106.36 80.93 103.54 80.92 100.83 C 81.99 102.76 82.93 104.77 83.36 106.95 C 84.13 107.11 85.67 107.42 86.44 107.57 C 84.62 104.61 88.19 103.60 89.78 101.88 C 88.76 99.38 86.84 97.71 84.21 97.14 C 84.29 96.75 84.46 95.97 84.55 95.58 C 86.26 96.10 87.96 96.63 89.68 97.13 C 90.08 93.28 87.92 89.85 87.47 86.09 C 84.19 87.04 77.64 88.34 77.26 83.39 C 78.03 83.78 79.58 84.54 80.35 84.92 C 82.14 84.73 83.93 84.51 85.72 84.26 L 85.01 86.58 C 89.67 84.42 89.96 78.23 88.58 73.93 C 86.60 71.56 83.69 69.99 82.11 67.31 C 86.63 66.75 88.84 71.36 91.02 74.44 L 89.92 74.69 C 90.71 74.94 92.29 75.46 93.09 75.71 C 92.75 71.38 91.47 66.84 88.37 63.65 C 87.47 62.52 85.96 63.11 84.77 63.16 C 84.28 63.04 83.31 62.80 82.82 62.68 C 80.87 65.43 77.88 66.91 74.47 66.73 C 75.80 63.78 79.77 64.18 81.44 61.48 C 78.26 61.16 74.98 60.92 71.90 61.95 L 72.08 60.64 C 67.47 60.22 61.86 59.02 59.62 54.48 C 58.91 53.18 58.18 51.89 57.44 50.61 C 56.16 54.78 55.69 59.33 52.57 62.64 C 48.33 64.40 45.08 67.60 42.10 71.00 C 42.75 71.39 43.41 71.78 44.06 72.16 C 45.60 70.58 47.44 69.36 49.30 68.21 C 50.96 68.57 52.61 68.95 54.25 69.37 C 53.46 70.43 52.65 71.48 51.84 72.53 C 52.21 74.06 52.54 75.59 52.83 77.14 C 52.06 74.92 51.47 72.64 50.75 70.40 C 50.05 70.19 48.67 69.75 47.98 69.53 C 47.31 71.52 46.25 73.33 44.79 74.84 L 44.63 72.99 C 41.04 72.29 37.34 73.24 35.31 76.47 C 35.54 80.08 35.54 83.72 36.96 87.12 C 36.77 90.29 36.45 93.46 36.09 96.62 C 34.64 92.27 34.50 87.59 33.86 83.08 C 32.95 76.53 37.87 71.25 42.92 67.91 C 45.70 63.98 50.31 61.99 53.22 58.22 C 54.56 54.83 54.43 51.11 53.36 47.68 C 52.35 42.35 50.39 35.99 54.22 31.32 M 56.82 31.81 C 53.69 34.38 53.36 38.74 53.62 42.49 C 54.23 42.33 55.45 42.01 56.06 41.86 C 55.63 43.49 55.20 45.12 54.85 46.77 C 56.41 47.94 58.01 49.08 59.64 50.16 C 60.47 52.25 61.61 54.20 62.90 56.04 C 65.92 56.83 68.86 57.90 71.86 58.76 C 72.58 58.41 74.03 57.70 74.75 57.35 C 76.94 50.96 77.80 43.98 75.74 37.43 C 75.67 33.60 73.11 30.76 70.20 28.60 C 65.60 28.56 60.42 28.46 56.82 31.81 M 90.97 75.39 C 92.22 79.70 89.63 83.82 90.25 88.14 C 90.79 92.72 91.01 97.35 90.58 101.95 C 91.82 102.23 93.05 102.50 94.28 102.79 C 94.34 103.27 94.46 104.21 94.51 104.69 C 93.44 104.34 92.37 103.98 91.31 103.62 C 90.56 104.05 89.83 104.48 89.10 104.92 C 89.10 106.16 89.12 107.41 89.15 108.65 C 91.38 110.82 91.84 114.03 93.38 116.62 C 95.75 120.75 98.84 124.48 100.36 129.06 C 98.83 127.79 97.31 126.49 96.22 124.81 C 93.38 120.48 90.14 116.21 89.18 110.98 C 89.17 113.90 88.85 116.89 89.73 119.73 C 89.65 120.33 89.57 120.93 89.49 121.53 C 91.00 123.35 93.20 125.08 92.63 127.74 C 96.67 126.61 100.56 129.07 102.45 132.57 C 104.95 136.21 104.13 140.97 106.21 144.76 C 108.60 143.51 112.13 143.44 113.69 141.12 C 113.05 137.05 109.78 134.08 107.78 130.63 C 107.26 130.53 106.22 130.32 105.69 130.22 C 104.34 122.33 103.19 114.41 101.59 106.57 C 100.96 103.50 99.00 101.02 97.32 98.46 C 96.59 99.71 95.85 100.95 95.09 102.18 C 94.70 99.08 95.97 95.96 95.03 92.92 C 94.29 89.82 93.72 86.67 92.62 83.67 C 92.60 81.49 92.65 79.31 92.74 77.13 C 92.15 76.55 91.55 75.97 90.97 75.39 M 74.08 126.19 C 70.92 125.86 66.96 125.92 64.70 123.46 C 64.36 124.08 64.04 124.69 63.72 125.32 C 64.77 128.60 65.75 131.92 66.33 135.33 C 69.16 134.86 72.00 134.44 74.84 134.02 C 76.11 135.32 77.58 136.39 79.06 137.45 C 80.57 136.94 82.10 136.45 83.65 136.02 C 84.54 131.87 88.02 129.18 91.96 128.10 C 90.84 126.69 89.70 125.30 88.54 123.93 C 87.59 125.14 87.02 126.78 85.65 127.61 C 79.79 130.28 73.17 130.86 66.83 130.04 C 66.61 129.57 66.17 128.62 65.95 128.14 C 72.62 128.85 79.49 128.33 85.76 125.81 C 87.06 125.25 87.77 123.95 88.59 122.89 C 83.71 123.77 79.08 126.10 74.08 126.19 M 114.45 124.82 C 121.59 130.65 122.97 141.08 119.63 149.32 C 124.17 147.63 125.42 142.35 124.82 138.00 C 124.73 132.11 121.08 124.95 114.45 124.82 M 93.87 128.90 C 100.64 135.41 101.17 145.85 98.28 154.30 C 106.26 149.76 105.37 138.24 100.03 132.00 C 98.39 130.30 96.02 129.66 93.87 128.90 M 90.08 129.88 C 87.92 131.53 85.81 133.48 85.26 136.26 C 83.52 143.13 85.53 152.47 93.04 154.95 C 97.12 153.40 99.17 149.09 98.90 144.89 C 99.24 138.72 96.29 131.96 90.08 129.88 M 70.73 134.80 C 77.45 140.94 79.02 151.06 75.64 159.32 C 80.16 157.63 81.42 152.36 80.82 148.02 C 80.73 142.19 77.22 135.20 70.73 134.80 M 66.23 137.36 C 68.15 144.28 70.66 151.39 69.47 158.68 C 70.27 159.13 71.08 159.58 71.89 160.04 C 75.11 157.35 76.47 153.17 75.82 149.05 C 75.88 143.42 72.58 138.50 68.01 135.47 C 67.41 136.09 66.82 136.72 66.23 137.36 M 79.88 138.96 C 80.45 140.37 81.01 141.85 82.18 142.88 C 84.48 142.22 83.06 138.85 83.80 137.15 C 82.50 137.76 81.19 138.36 79.88 138.96 M 49.87 138.89 C 56.64 145.41 57.16 155.84 54.29 164.30 C 56.24 162.88 58.36 161.36 59.06 158.92 C 61.62 151.39 58.80 140.39 49.87 138.89 M 46.07 139.88 C 43.92 141.53 41.81 143.48 41.26 146.26 C 39.82 152.30 40.98 159.99 46.42 163.73 C 49.50 165.96 53.30 162.96 54.10 159.81 C 56.45 152.52 54.01 142.58 46.07 139.88 M 82.20 145.03 C 81.63 148.48 83.82 152.41 81.64 155.62 C 79.59 159.97 74.93 161.81 70.36 161.89 C 69.26 161.15 68.23 160.32 67.19 159.50 C 64.90 159.83 62.61 160.17 60.30 160.35 C 58.96 162.95 57.45 165.74 54.10 165.69 C 60.68 165.01 68.57 167.70 73.63 161.87 C 78.52 163.32 80.48 168.35 82.96 172.29 C 84.49 174.51 84.21 177.32 84.66 179.85 C 85.25 183.78 88.40 186.89 88.28 190.99 C 87.87 191.20 87.06 191.63 86.66 191.84 C 86.31 190.99 85.62 189.27 85.27 188.42 C 84.59 194.36 84.89 200.58 86.89 206.24 C 90.61 211.99 90.36 219.17 89.57 225.70 C 88.11 230.03 87.89 234.61 88.00 239.15 C 91.51 240.54 95.28 239.69 98.93 239.74 C 101.87 239.66 104.41 241.35 107.01 242.49 C 109.64 242.50 112.26 242.85 114.89 243.02 C 116.58 241.92 118.30 240.87 120.06 239.87 C 118.86 238.70 117.83 237.11 115.99 236.98 C 112.56 236.34 109.28 234.62 107.25 231.72 C 104.80 228.33 101.60 225.62 98.59 222.76 C 98.66 222.41 98.80 221.71 98.87 221.37 C 96.17 214.01 98.43 206.19 97.01 198.66 C 96.63 196.08 95.70 193.51 96.16 190.87 C 96.85 187.20 96.30 183.39 97.52 179.80 C 98.56 177.10 97.14 174.49 95.93 172.14 C 94.60 174.59 92.96 178.47 89.44 177.71 C 87.16 176.17 86.82 173.16 86.09 170.73 C 87.37 172.51 88.26 174.67 90.07 176.01 C 93.56 176.98 93.76 171.77 94.67 169.46 C 95.14 169.56 96.08 169.77 96.55 169.87 C 96.37 165.46 96.12 161.05 95.98 156.64 C 91.10 160.70 84.59 164.10 78.11 162.09 C 78.79 161.56 79.49 161.04 80.20 160.54 C 85.01 161.98 89.23 158.88 93.13 156.57 C 89.14 155.91 86.35 152.66 84.91 149.09 C 84.41 150.15 83.41 152.29 82.91 153.36 C 82.81 151.31 82.88 149.13 84.52 147.66 C 84.01 146.34 84.23 143.59 82.20 145.03 M 53.28 167.32 C 52.87 171.54 53.59 175.95 51.89 179.96 C 50.67 183.13 49.93 186.45 49.61 189.84 C 50.84 194.97 52.05 200.10 53.41 205.19 C 50.68 203.11 50.48 199.37 49.03 196.48 C 47.33 200.20 46.00 204.11 45.21 208.12 C 43.77 217.96 50.70 227.07 48.59 236.93 C 46.87 243.59 51.70 249.52 52.80 255.90 C 53.30 262.41 62.35 264.27 66.66 260.14 C 66.10 259.71 64.99 258.86 64.43 258.43 C 61.04 259.02 57.63 258.80 54.24 258.28 C 57.36 255.80 61.74 257.46 65.37 256.26 C 66.23 257.53 67.04 258.82 67.84 260.13 C 69.19 259.84 70.54 259.53 71.87 259.17 C 69.58 254.88 65.45 251.94 63.36 247.53 C 61.12 243.35 58.03 239.48 57.43 234.61 C 56.49 227.93 56.30 220.72 59.38 214.52 C 61.41 210.38 60.85 205.67 60.41 201.25 C 57.22 205.88 57.71 211.57 56.55 216.81 C 54.40 211.58 56.23 205.56 58.80 200.80 C 61.40 196.60 61.97 191.59 63.94 187.11 C 65.02 182.55 68.45 179.04 69.60 174.52 C 70.29 171.89 70.71 169.21 71.10 166.53 C 65.19 167.55 59.25 169.01 53.28 167.32 Z" />
<path fill="#333333" opacity="1.00" d=" M 54.72 69.28 C 60.39 65.81 67.46 66.72 73.56 68.43 C 69.90 71.08 66.03 67.49 62.11 68.24 C 59.66 68.67 57.23 69.31 54.72 69.28 Z" />
<path fill="#333333" opacity="1.00" d=" M 73.36 74.57 C 76.03 77.09 78.27 81.46 75.97 84.89 C 75.37 87.04 73.33 87.96 71.43 88.73 C 71.18 89.49 70.92 90.25 70.67 91.02 C 70.67 90.36 70.66 89.05 70.66 88.40 C 68.83 89.26 67.26 90.53 65.79 91.90 C 61.67 93.22 56.98 92.65 53.79 89.58 C 53.88 89.23 54.07 88.54 54.17 88.19 C 56.15 87.91 59.35 91.83 59.48 88.14 C 59.28 89.85 60.51 90.77 62.08 91.01 C 64.85 90.86 66.62 88.44 69.09 87.54 C 71.11 86.85 73.13 86.13 75.03 85.16 C 75.30 81.52 74.17 78.06 73.36 74.57 Z" />
<path fill="#333333" opacity="1.00" d=" M 52.32 81.51 C 53.49 81.57 54.66 81.64 55.82 81.71 C 55.50 83.09 55.14 84.45 54.73 85.81 C 53.91 84.38 53.11 82.95 52.32 81.51 Z" />
<path fill="#333333" opacity="1.00" d=" M 78.17 91.03 C 79.87 90.24 81.43 89.19 83.00 88.16 C 84.06 89.08 85.11 90.01 86.15 90.96 C 84.91 90.55 83.68 90.13 82.46 89.69 C 81.69 90.35 80.93 91.01 80.16 91.66 C 80.82 93.46 81.40 95.30 81.93 97.14 C 80.10 97.96 78.24 98.76 76.31 99.33 C 75.93 99.66 75.18 100.33 74.80 100.66 C 72.92 101.23 71.35 102.38 69.98 103.76 C 68.56 103.46 67.15 103.18 65.74 102.91 C 65.06 101.71 64.42 100.48 63.82 99.23 C 65.64 100.29 67.40 101.42 69.28 102.36 C 70.75 100.72 72.50 99.38 74.60 98.68 C 74.92 98.28 75.57 97.49 75.89 97.10 C 77.14 97.01 78.39 96.85 79.62 96.62 C 80.85 94.70 79.70 92.37 78.17 91.03 Z" />
<path fill="#333333" opacity="1.00" d=" M 74.13 89.12 C 74.79 89.25 76.10 89.50 76.76 89.63 C 74.74 91.05 73.14 92.94 72.07 95.17 C 70.47 96.13 68.88 97.10 67.23 97.96 C 69.22 94.80 71.97 92.18 74.13 89.12 Z" />
<path fill="#333333" opacity="1.00" d=" M 82.38 96.38 C 82.64 96.64 82.64 96.64 82.38 96.38 Z" />
<path fill="#333333" opacity="1.00" d=" M 62.51 106.02 C 64.59 105.94 66.68 105.76 68.76 105.79 C 67.69 108.06 65.49 108.29 63.25 108.11 C 63.07 107.59 62.69 106.54 62.51 106.02 Z" />
<path fill="#333333" opacity="1.00" d=" M 68.57 112.75 C 70.03 111.50 72.16 113.90 71.64 115.42 C 70.28 116.04 68.04 114.27 68.57 112.75 Z" />
<path fill="#333333" opacity="1.00" d=" M 81.31 114.18 C 84.09 113.32 81.79 118.42 79.99 117.50 C 79.14 116.34 80.22 114.74 81.31 114.18 Z" />
<path fill="#333333" opacity="1.00" d=" M 47.68 116.58 C 51.52 116.40 52.71 120.99 55.89 122.34 C 58.87 123.64 60.26 126.63 61.40 129.47 C 57.50 124.43 51.56 121.56 47.68 116.58 Z" />
<path fill="#333333" opacity="1.00" d=" M 68.70 116.64 L 68.73 115.58 C 71.07 117.81 73.28 120.19 75.71 122.33 C 72.33 123.31 69.30 119.56 68.70 116.64 Z" />
<path fill="#333333" opacity="1.00" d=" M 76.38 134.02 C 78.85 133.92 81.29 132.89 83.78 133.19 C 84.08 135.70 79.76 134.60 78.29 135.61 C 77.65 135.08 77.01 134.55 76.38 134.02 Z" />
<path fill="#333333" opacity="1.00" d=" M 55.38 179.93 C 57.85 179.78 60.25 179.17 62.46 178.05 C 63.17 179.89 63.86 181.74 64.43 183.63 C 63.51 182.63 62.62 181.61 61.76 180.57 C 60.06 181.08 58.35 181.53 56.64 182.00 C 56.19 183.13 55.72 184.25 55.24 185.37 C 55.18 183.55 55.28 181.74 55.38 179.93 Z" />
<path fill="#333333" opacity="1.00" d=" M 56.59 188.85 C 58.41 189.13 60.59 188.97 61.62 190.86 C 59.55 191.05 56.96 191.71 56.59 188.85 Z" />
<path fill="#333333" opacity="1.00" d=" M 93.51 234.45 C 90.63 232.31 90.20 228.46 92.04 225.48 C 92.21 226.95 92.27 228.43 92.32 229.91 C 92.76 231.41 93.18 232.92 93.51 234.45 Z" />
<path fill="#333333" opacity="1.00" d=" M 50.53 242.88 C 51.60 239.63 52.70 235.58 56.23 234.22 C 54.75 237.35 53.62 240.91 50.53 242.88 Z" />
<path fill="#333333" opacity="1.00" d=" M 1.00 275.00 C 0.28 273.83 0.53 272.97 1.76 272.41 C 1.76 273.06 1.75 274.35 1.75 275.00 L 1.00 275.00 Z" />
</g>
</svg>
