<?xml version="1.0" encoding="UTF-8" ?>
<!DOCTYPE svg PUBLIC "-//W3C//DTD SVG 1.1//EN" "http://www.w3.org/Graphics/SVG/1.1/DTD/svg11.dtd">
<svg width="221pt" height="275pt" viewBox="0 0 221 275" version="1.1" xmlns="http://www.w3.org/2000/svg">
<g id="#ffffffff">
<path fill="#FFFFFF" opacity="1.00" d=" M 0.00 0.00 L 221.00 0.00 L 221.00 275.00 L 0.00 275.00 L 0.00 0.00 M 85.85 31.94 C 82.62 36.29 84.60 41.85 85.02 46.73 C 85.94 47.79 86.86 48.84 87.79 49.89 C 87.68 53.04 87.52 56.19 87.26 59.33 C 86.17 60.38 85.04 61.39 83.90 62.39 C 78.62 63.05 74.06 66.80 71.66 71.47 C 70.26 74.33 67.63 76.62 67.30 79.94 C 66.42 84.17 69.53 87.83 69.34 92.01 C 69.48 97.27 70.05 102.71 72.54 107.42 C 76.56 112.48 81.55 116.70 85.56 121.79 C 84.38 123.83 82.88 125.70 81.90 127.85 C 81.01 131.28 83.15 134.58 83.00 138.02 C 83.24 142.16 81.38 145.99 81.00 150.06 C 80.73 154.06 79.48 157.89 78.88 161.84 C 79.60 162.68 80.31 163.53 81.02 164.38 C 81.58 163.92 82.71 163.00 83.27 162.54 C 81.85 167.92 83.47 173.44 82.95 178.90 C 81.07 176.90 78.78 175.31 76.11 174.60 C 72.62 173.13 68.64 174.23 65.20 172.58 C 63.12 171.67 60.86 171.16 58.86 170.09 C 55.91 167.75 53.78 164.56 50.98 162.07 C 47.92 160.45 43.55 158.85 40.64 161.60 C 37.04 164.21 36.80 168.95 36.07 172.95 C 35.90 176.74 33.59 179.85 32.37 183.32 C 26.12 186.38 20.35 190.60 16.20 196.25 C 8.12 206.22 7.53 219.88 8.25 232.14 C 9.78 237.98 12.09 244.11 16.97 247.98 C 22.53 252.97 29.31 257.30 37.00 257.53 C 44.50 257.87 52.40 258.07 59.24 254.44 C 71.63 254.51 84.87 250.58 92.99 240.71 C 97.50 234.33 98.65 226.38 99.84 218.85 C 100.81 214.16 99.30 209.46 97.77 205.08 C 96.86 203.16 96.04 200.47 93.55 200.26 C 98.71 208.30 98.19 218.33 96.57 227.35 C 94.65 236.14 88.39 243.46 80.57 247.69 C 75.01 251.38 68.15 251.14 61.98 253.08 C 53.41 253.68 44.71 255.25 36.18 253.49 C 27.25 252.47 19.00 247.28 13.68 240.11 C 7.62 230.96 9.25 219.37 11.34 209.22 C 14.15 200.68 20.64 193.94 27.41 188.30 C 30.40 185.75 34.31 185.03 37.91 183.79 C 38.29 183.32 39.05 182.37 39.43 181.90 C 37.56 182.09 35.74 182.59 33.94 183.14 C 36.84 178.80 38.10 173.69 38.80 168.58 C 39.09 164.59 43.07 160.73 47.19 162.22 C 52.67 163.48 53.40 170.64 58.57 172.37 C 62.89 173.95 67.33 175.18 71.91 175.76 C 76.02 176.37 79.63 178.53 82.95 180.92 C 82.71 182.60 82.52 184.29 82.36 185.98 C 82.70 185.85 83.37 185.58 83.71 185.45 C 85.94 178.75 84.56 171.59 84.01 164.73 C 85.74 165.32 87.45 166.00 89.13 166.73 C 94.34 169.29 100.39 167.23 105.45 165.26 C 105.15 173.50 103.08 181.68 99.00 188.87 C 97.29 192.55 94.53 196.48 90.08 196.72 C 87.15 195.97 84.59 194.23 81.71 193.31 C 76.49 191.88 71.06 190.93 66.15 188.57 C 59.13 184.07 50.79 180.35 42.27 181.60 C 42.32 181.99 42.41 182.77 42.46 183.16 C 50.31 181.45 57.68 186.03 63.95 190.21 C 69.46 194.06 76.57 194.00 82.13 197.74 C 82.90 197.49 83.67 197.25 84.44 197.01 C 89.00 200.13 95.74 198.20 98.97 193.97 C 102.08 190.82 102.81 186.25 104.00 182.16 C 105.11 178.14 107.15 174.20 106.68 169.91 C 106.64 167.80 105.95 165.59 106.99 163.58 C 107.96 165.53 108.77 167.56 109.56 169.58 L 110.71 169.21 L 110.61 170.02 C 114.73 172.92 112.59 178.44 114.73 182.31 C 116.24 185.53 117.59 188.82 119.20 192.00 C 121.83 189.14 118.98 185.90 117.85 183.11 C 115.97 179.84 117.33 175.73 115.28 172.54 C 113.58 169.51 111.72 166.56 109.39 163.97 C 109.39 163.32 109.39 162.03 109.39 161.38 C 115.91 164.68 123.21 160.78 128.24 156.51 C 128.49 160.90 128.68 165.28 128.98 169.66 C 128.47 169.65 127.45 169.63 126.94 169.62 C 126.29 171.96 125.82 174.54 124.03 176.33 C 121.32 176.39 119.70 173.66 119.15 171.32 C 118.96 171.36 118.58 171.44 118.39 171.47 C 119.34 173.65 119.64 176.67 122.08 177.74 C 125.47 178.05 126.78 174.43 128.16 172.06 C 131.93 176.53 128.59 181.95 128.84 186.96 C 128.74 189.98 128.00 193.03 128.85 196.02 C 131.20 204.98 128.15 214.49 131.64 223.25 C 134.31 225.98 137.31 228.40 139.48 231.57 C 141.93 234.97 145.90 236.93 150.05 237.16 C 150.78 238.15 151.50 239.15 152.20 240.16 C 150.45 241.06 148.79 242.14 146.99 242.95 C 144.38 243.20 141.79 242.32 139.16 242.59 C 136.57 241.34 134.02 239.54 131.00 239.74 C 127.32 239.46 122.85 241.43 119.96 238.34 C 120.51 233.92 120.01 229.14 122.10 225.07 C 121.99 220.98 122.31 216.88 121.78 212.81 C 121.47 209.22 118.34 206.63 118.07 203.04 C 117.55 198.84 116.44 194.57 117.44 190.35 C 117.00 189.52 116.54 188.70 116.07 187.89 C 115.28 192.35 114.72 196.89 114.88 201.43 C 116.16 206.54 120.23 210.65 120.46 216.11 C 122.11 224.04 116.42 231.54 118.54 239.43 C 121.09 241.96 124.85 241.93 128.13 241.26 C 131.77 240.34 134.90 242.72 138.06 244.08 C 140.66 244.15 143.23 244.79 145.82 244.78 C 148.98 243.53 152.85 242.66 154.24 239.14 C 152.64 237.54 151.52 234.81 148.93 234.80 C 141.85 234.21 139.16 226.54 133.82 222.97 C 130.14 215.25 132.57 206.32 131.34 198.11 C 129.89 191.82 129.95 185.16 131.51 178.91 C 132.20 175.78 129.69 173.10 129.94 169.99 C 130.15 165.43 129.90 160.85 129.11 156.35 C 129.61 156.05 130.60 155.46 131.09 155.17 C 130.24 152.83 129.29 150.50 128.96 148.02 C 128.32 142.97 125.62 138.55 124.13 133.74 C 123.96 131.49 124.66 129.28 124.70 127.04 C 125.08 124.90 123.02 123.63 122.17 121.92 C 120.96 116.03 120.63 109.90 121.72 103.95 C 122.60 103.84 123.48 103.72 124.36 103.60 L 123.72 104.89 C 125.47 107.61 128.68 108.82 131.14 110.80 C 133.18 112.49 136.46 112.52 138.31 110.53 C 140.26 108.53 143.02 107.01 143.75 104.12 C 139.61 105.27 137.96 110.93 133.27 110.33 C 130.69 107.62 126.33 106.76 124.99 102.98 C 124.58 102.74 123.75 102.27 123.34 102.03 C 125.18 97.15 122.51 92.38 122.29 87.52 L 123.95 86.35 C 123.23 86.72 121.77 87.47 121.04 87.85 C 121.33 86.30 121.91 83.20 122.19 81.65 C 122.67 82.26 123.63 83.48 124.11 84.09 C 123.66 83.16 123.14 82.27 122.62 81.38 C 122.69 74.68 120.84 67.24 114.48 63.76 C 117.83 63.76 120.53 66.81 123.83 66.41 C 122.25 73.74 123.55 83.26 130.68 87.28 C 134.01 89.57 138.37 87.41 140.36 84.37 C 143.98 78.33 143.63 70.47 140.47 64.31 C 142.17 63.56 143.81 62.70 145.47 61.88 L 145.74 64.01 C 147.19 59.77 148.88 55.31 153.30 53.37 C 163.02 56.38 166.00 69.75 160.54 77.62 C 158.85 80.36 155.47 80.36 152.63 80.31 C 153.97 82.64 157.04 82.41 159.05 81.10 C 162.77 79.20 164.03 74.77 164.44 70.93 C 164.88 64.78 163.48 57.63 158.03 53.97 C 155.91 52.30 153.07 52.94 150.75 53.77 C 147.63 54.98 146.46 58.45 145.91 61.46 C 143.30 61.47 140.73 61.95 138.15 62.20 L 138.87 61.31 C 137.05 59.99 135.13 58.80 133.01 58.04 C 131.05 58.68 128.88 58.92 127.18 60.17 C 125.37 61.57 124.72 63.86 123.95 65.91 C 120.67 64.05 116.69 63.49 114.03 60.64 C 111.93 59.94 109.63 59.86 107.46 59.40 C 109.36 55.60 109.54 51.28 110.31 47.18 C 111.12 42.98 108.99 39.04 108.60 34.93 C 108.34 30.33 103.64 26.99 99.22 27.31 C 94.41 26.86 88.82 27.70 85.85 31.94 M 148.30 60.84 C 149.65 65.55 151.07 70.25 151.99 75.07 C 154.35 70.65 150.81 66.39 150.52 61.93 C 149.78 61.56 149.04 61.20 148.30 60.84 M 147.88 90.88 C 147.38 95.05 144.14 98.61 145.04 102.99 C 148.71 96.97 148.92 89.69 150.88 83.07 C 151.49 81.09 152.17 79.05 151.71 76.95 C 149.22 81.18 148.55 86.11 147.88 90.88 M 144.34 82.88 C 144.02 87.18 142.13 92.07 144.31 96.08 C 145.20 92.26 145.29 88.31 145.19 84.41 C 144.97 84.02 144.55 83.26 144.34 82.88 M 133.82 88.99 C 131.31 93.22 127.17 96.99 126.99 102.19 C 129.30 95.44 135.79 91.73 140.31 86.65 C 138.68 87.23 135.44 88.40 133.82 88.99 M 51.15 175.59 C 54.98 177.37 58.49 181.94 63.02 181.02 C 59.98 178.93 56.55 177.53 53.29 175.85 C 52.75 175.78 51.69 175.65 51.15 175.59 M 64.82 182.93 C 68.70 187.50 74.82 189.47 80.67 189.64 C 80.61 189.16 80.51 188.20 80.45 187.73 C 77.99 187.30 75.47 187.16 73.09 186.34 C 70.14 185.65 67.83 183.45 64.82 182.93 M 122.91 230.36 C 123.68 231.76 124.45 233.19 125.69 234.25 C 124.91 231.57 124.33 228.86 124.53 226.07 C 123.17 227.08 123.33 228.89 122.91 230.36 Z" />
<path fill="#FFFFFF" opacity="1.00" d=" M 89.47 31.34 C 93.07 28.35 97.90 28.42 102.31 28.55 C 104.34 30.45 107.01 32.22 107.36 35.23 C 108.02 39.47 109.68 43.68 108.88 48.02 C 108.38 51.21 107.93 54.44 106.71 57.45 C 106.02 57.80 104.65 58.49 103.96 58.84 C 101.04 57.95 98.04 57.18 95.35 55.71 C 93.43 54.43 92.73 52.13 91.87 50.12 C 90.21 49.13 88.45 48.24 87.09 46.85 C 86.53 45.14 87.68 43.55 88.11 41.96 C 87.48 42.13 86.21 42.46 85.57 42.63 C 85.11 38.58 85.77 33.75 89.47 31.34 Z" />
<path fill="#FFFFFF" opacity="1.00" d=" M 88.25 49.82 C 91.20 51.43 91.59 55.02 93.85 57.18 C 97.31 59.11 101.13 60.90 105.20 60.32 C 105.23 61.11 105.28 62.68 105.31 63.47 C 106.20 62.68 106.68 61.67 106.72 60.42 C 108.98 61.26 111.64 61.48 113.34 63.37 C 112.39 63.43 110.47 63.54 109.51 63.60 L 109.43 64.70 C 108.96 64.59 108.02 64.37 107.54 64.26 L 107.61 65.61 C 107.09 65.55 106.06 65.44 105.55 65.38 C 105.67 65.98 105.92 67.17 106.04 67.76 L 104.36 67.06 L 104.95 68.84 C 101.83 67.62 98.63 66.59 95.25 66.58 C 96.00 62.92 93.23 60.12 90.90 57.74 C 92.40 60.56 93.59 63.53 94.61 66.56 C 93.06 67.02 91.52 67.53 89.99 68.06 C 88.89 67.88 87.78 67.67 86.67 67.86 C 90.68 70.54 95.85 72.33 97.80 77.16 C 100.11 82.70 100.48 89.81 96.72 94.81 C 94.74 97.58 90.57 98.24 87.93 95.99 C 82.39 91.58 81.57 83.59 83.04 77.10 C 83.77 73.80 86.49 71.71 89.08 69.85 C 85.77 68.84 82.33 68.46 78.88 68.76 C 78.42 70.24 78.01 71.75 77.80 73.30 C 78.79 72.42 79.73 71.48 80.63 70.51 C 82.74 70.41 84.85 70.29 86.95 70.04 C 82.85 71.97 81.96 76.70 81.03 80.67 C 80.13 83.42 81.56 86.13 82.19 88.76 L 80.17 88.27 C 80.14 88.56 80.07 89.14 80.04 89.43 C 80.51 89.36 81.46 89.22 81.94 89.15 C 83.22 93.32 85.83 97.52 90.20 98.92 C 93.11 100.03 96.06 98.13 97.92 96.01 C 101.79 90.38 101.66 82.85 99.18 76.69 C 100.75 75.95 102.41 75.47 104.09 75.04 C 105.37 76.22 106.66 77.39 107.99 78.51 C 107.72 87.02 105.62 95.35 105.23 103.86 C 105.04 110.57 102.05 116.91 97.86 122.05 C 97.00 123.32 95.31 123.34 94.00 123.84 C 90.18 121.18 85.13 120.12 83.01 115.46 C 83.66 115.63 84.97 115.96 85.63 116.13 C 84.78 112.03 82.75 106.85 78.01 106.21 C 80.09 108.04 81.96 110.10 83.20 112.61 C 82.89 113.30 82.57 113.98 82.24 114.66 C 80.97 111.24 76.97 109.96 75.26 106.81 C 72.94 101.91 71.56 96.62 70.95 91.24 C 72.05 92.90 73.33 94.48 75.13 95.45 C 74.46 91.03 70.65 88.09 69.41 83.92 C 69.09 81.86 69.31 79.78 69.34 77.72 C 73.17 73.41 75.54 67.70 80.74 64.74 C 82.89 63.07 86.28 63.19 87.82 60.78 C 88.83 57.24 89.07 53.42 88.25 49.82 M 83.22 97.98 C 85.01 100.19 86.69 102.49 88.36 104.80 C 89.15 101.59 86.03 98.81 83.22 97.98 M 92.18 100.03 C 92.60 104.65 86.26 106.18 87.30 111.09 C 90.02 106.42 95.29 103.67 96.86 98.32 C 95.33 98.98 93.77 99.55 92.18 100.03 M 88.36 117.41 C 90.60 120.33 95.05 117.00 95.26 114.05 C 93.13 115.51 90.78 116.55 88.36 117.41 Z" />
<path fill="#FFFFFF" opacity="1.00" d=" M 125.07 66.02 C 125.82 62.81 128.39 60.65 131.07 58.99 C 140.65 61.12 143.54 73.21 140.23 81.33 C 138.92 84.79 134.87 87.75 131.20 85.76 C 124.53 81.90 123.43 72.89 125.07 66.02 Z" />
<path fill="#FFFFFF" opacity="1.00" d=" M 104.42 73.11 C 105.46 69.34 107.89 66.37 111.00 64.10 C 114.45 65.76 117.99 67.78 119.49 71.53 C 121.97 77.45 122.29 85.68 116.98 90.18 C 114.93 91.98 112.10 90.97 109.74 90.65 C 110.46 91.32 111.89 92.68 112.60 93.35 C 112.40 94.52 112.19 95.68 111.98 96.85 C 110.60 96.97 109.23 97.11 107.86 97.24 C 108.25 100.43 111.76 98.32 113.34 97.28 C 116.05 97.43 118.77 97.72 121.29 98.81 C 120.44 95.32 116.38 95.97 113.66 95.82 C 113.52 95.19 113.24 93.92 113.10 93.29 C 116.07 92.79 119.58 91.54 120.30 88.19 C 121.43 91.36 122.43 94.65 122.40 98.05 C 122.22 101.64 119.96 104.57 118.15 107.50 C 117.44 107.39 116.01 107.16 115.30 107.04 C 115.14 104.82 114.41 102.73 113.60 100.68 C 113.28 103.35 113.83 106.71 111.54 108.66 C 110.46 108.96 109.34 108.74 108.25 108.74 C 108.68 109.41 109.11 110.09 109.53 110.77 C 111.18 110.19 112.71 109.34 114.06 108.23 C 115.11 108.62 116.15 109.03 117.18 109.45 C 117.74 108.85 118.86 107.65 119.42 107.05 C 119.50 108.47 119.66 111.32 119.74 112.75 C 119.26 112.76 118.28 112.78 117.80 112.79 C 120.46 113.13 119.99 116.16 120.25 118.13 C 120.53 119.40 120.10 120.24 118.94 120.66 C 115.30 122.70 111.07 123.06 107.06 123.88 C 104.32 124.40 101.16 122.06 98.96 124.52 C 105.69 128.10 113.12 124.86 119.77 122.85 C 120.84 123.98 121.94 125.10 123.07 126.17 C 123.76 128.84 122.89 131.47 122.06 133.99 C 123.48 136.99 124.79 140.04 125.96 143.14 C 127.33 146.62 126.58 150.99 129.92 153.50 C 125.55 155.16 122.65 159.28 118.07 160.49 C 114.14 161.85 110.13 160.03 106.81 158.01 C 108.74 156.06 111.31 155.32 113.92 154.86 C 116.08 152.81 117.11 149.74 117.60 146.85 C 115.64 148.65 114.58 151.11 113.17 153.30 C 110.76 154.22 107.78 154.09 105.85 155.98 C 105.06 157.36 105.90 158.57 107.40 158.81 C 107.03 160.20 106.67 161.59 106.31 162.98 C 102.55 164.00 98.98 165.92 95.02 166.05 C 91.44 166.19 88.32 164.18 85.05 163.03 C 85.06 161.21 85.08 159.38 85.07 157.56 C 82.81 157.90 82.63 160.50 81.63 162.12 C 81.14 161.52 80.15 160.32 79.65 159.72 C 82.75 155.68 82.26 150.42 83.89 145.83 C 85.02 142.66 84.64 139.23 84.54 135.93 C 84.35 132.96 82.67 130.01 83.76 127.05 C 84.20 125.77 84.48 123.97 86.19 123.95 C 89.92 123.07 94.53 127.11 98.03 123.99 C 102.23 118.04 106.86 111.67 106.88 104.05 C 106.68 97.67 108.49 91.47 108.35 85.09 C 108.38 82.60 110.90 80.58 109.95 78.01 C 108.77 75.82 107.44 72.76 104.42 73.11 M 112.10 118.09 C 113.39 116.90 114.41 115.46 115.12 113.85 C 113.17 114.46 111.83 115.95 112.10 118.09 M 103.94 119.59 C 101.49 120.82 106.75 124.12 107.11 121.64 C 106.42 120.58 105.19 119.77 103.94 119.59 M 89.98 126.23 C 89.01 128.63 88.11 131.06 87.35 133.54 C 87.95 133.96 88.55 134.39 89.15 134.83 C 89.04 132.08 89.91 129.53 91.35 127.23 C 93.19 127.89 95.05 128.55 96.83 129.38 C 95.95 130.93 95.10 132.55 93.81 133.80 C 91.68 135.89 88.47 136.52 86.59 138.89 C 91.50 138.18 97.13 135.10 97.93 129.73 C 104.77 131.06 112.02 130.23 118.36 127.33 C 118.85 126.65 119.83 125.29 120.33 124.61 C 115.70 127.28 110.27 128.26 104.99 128.53 C 99.85 128.88 95.03 126.73 89.98 126.23 M 101.06 136.43 C 100.02 136.76 99.42 137.74 98.67 138.45 C 102.62 137.52 106.55 136.51 110.49 135.53 C 112.72 135.03 115.10 134.08 117.29 135.24 C 112.34 137.43 106.34 138.60 102.89 143.12 C 108.31 140.57 113.75 138.03 119.40 135.97 C 119.35 134.92 119.31 133.87 119.28 132.82 C 113.08 133.11 106.92 134.40 101.06 136.43 M 96.81 145.03 L 96.72 146.14 C 101.20 146.59 105.54 145.07 110.00 145.07 C 113.02 145.02 115.97 144.35 118.95 143.98 C 119.99 143.03 121.01 142.08 122.02 141.10 C 113.90 143.86 105.21 143.71 96.81 145.03 Z" />
<path fill="#FFFFFF" opacity="1.00" d=" M 90.42 68.70 C 95.27 66.92 99.92 69.52 104.77 69.22 C 104.33 70.71 103.91 72.20 103.51 73.69 C 101.77 73.83 100.12 73.59 98.57 72.96 C 98.82 73.83 99.33 75.58 99.59 76.45 C 97.35 73.02 94.52 69.84 90.42 68.70 Z" />
</g>
<g id="#313231ff">
<path fill="#333333" opacity="1.00" d=" M 85.85 31.94 C 88.82 27.70 94.41 26.86 99.22 27.31 C 103.64 26.99 108.34 30.33 108.60 34.93 C 108.99 39.04 111.12 42.98 110.31 47.18 C 109.54 51.28 109.36 55.60 107.46 59.40 C 109.63 59.86 111.93 59.94 114.03 60.64 C 116.69 63.49 120.67 64.05 123.95 65.91 C 124.72 63.86 125.37 61.57 127.18 60.17 C 128.88 58.92 131.05 58.68 133.01 58.04 C 135.13 58.80 137.05 59.99 138.87 61.31 L 138.15 62.20 C 140.73 61.95 143.30 61.47 145.91 61.46 C 146.46 58.45 147.63 54.98 150.75 53.77 C 153.07 52.94 155.91 52.30 158.03 53.97 C 163.48 57.63 164.88 64.78 164.44 70.93 C 164.03 74.77 162.77 79.20 159.05 81.10 C 157.04 82.41 153.97 82.64 152.63 80.31 C 155.47 80.36 158.85 80.36 160.54 77.62 C 166.00 69.75 163.02 56.38 153.30 53.37 C 148.88 55.31 147.19 59.77 145.74 64.01 L 145.47 61.88 C 143.81 62.70 142.17 63.56 140.47 64.31 C 143.63 70.47 143.98 78.33 140.36 84.37 C 138.37 87.41 134.01 89.57 130.68 87.28 C 123.55 83.26 122.25 73.74 123.83 66.41 C 120.53 66.81 117.83 63.76 114.48 63.76 C 120.84 67.24 122.69 74.68 122.62 81.38 C 123.14 82.27 123.66 83.16 124.11 84.09 C 123.63 83.48 122.67 82.26 122.19 81.65 C 121.91 83.20 121.33 86.30 121.04 87.85 C 121.77 87.47 123.23 86.72 123.95 86.35 L 122.29 87.52 C 122.51 92.38 125.18 97.15 123.34 102.03 C 123.75 102.27 124.58 102.74 124.99 102.98 C 126.33 106.76 130.69 107.62 133.27 110.33 C 137.96 110.93 139.61 105.27 143.75 104.12 C 143.02 107.01 140.26 108.53 138.31 110.53 C 136.46 112.52 133.18 112.49 131.14 110.80 C 128.68 108.82 125.47 107.61 123.72 104.89 L 124.36 103.60 C 123.48 103.72 122.60 103.84 121.72 103.95 C 120.63 109.90 120.96 116.03 122.17 121.92 C 123.02 123.63 125.08 124.90 124.70 127.04 C 124.66 129.28 123.96 131.49 124.13 133.74 C 125.62 138.55 128.32 142.97 128.96 148.02 C 129.29 150.50 130.24 152.83 131.09 155.17 C 130.60 155.46 129.61 156.05 129.11 156.35 C 129.90 160.85 130.15 165.43 129.94 169.99 C 129.69 173.10 132.20 175.78 131.51 178.91 C 129.95 185.16 129.89 191.82 131.34 198.11 C 132.57 206.32 130.14 215.25 133.82 222.97 C 139.16 226.54 141.85 234.21 148.93 234.80 C 151.52 234.81 152.64 237.54 154.24 239.14 C 152.85 242.66 148.98 243.53 145.82 244.78 C 143.23 244.79 140.66 244.15 138.06 244.08 C 134.90 242.72 131.77 240.34 128.13 241.26 C 124.85 241.93 121.09 241.96 118.54 239.43 C 116.42 231.54 122.11 224.04 120.46 216.11 C 120.23 210.65 116.16 206.54 114.88 201.43 C 114.72 196.89 115.28 192.35 116.07 187.89 C 116.54 188.70 117.00 189.52 117.44 190.35 C 116.44 194.57 117.55 198.84 118.07 203.04 C 118.34 206.63 121.47 209.22 121.78 212.81 C 122.31 216.88 121.99 220.98 122.10 225.07 C 120.01 229.14 120.51 233.92 119.96 238.34 C 122.85 241.43 127.32 239.46 131.00 239.74 C 134.02 239.54 136.57 241.34 139.16 242.59 C 141.79 242.32 144.38 243.20 146.99 242.95 C 148.79 242.14 150.45 241.06 152.20 240.16 C 151.50 239.15 150.78 238.15 150.05 237.16 C 145.90 236.93 141.93 234.97 139.48 231.57 C 137.31 228.40 134.31 225.98 131.64 223.25 C 128.15 214.49 131.20 204.98 128.85 196.02 C 128.00 193.03 128.74 189.98 128.84 186.96 C 128.59 181.95 131.93 176.53 128.16 172.06 C 126.78 174.43 125.47 178.05 122.08 177.74 C 119.64 176.67 119.34 173.65 118.39 171.47 C 118.58 171.44 118.96 171.36 119.15 171.32 C 119.70 173.66 121.32 176.39 124.03 176.33 C 125.82 174.54 126.29 171.96 126.94 169.62 C 127.45 169.63 128.47 169.65 128.98 169.66 C 128.68 165.28 128.49 160.90 128.24 156.51 C 123.21 160.78 115.91 164.68 109.39 161.38 C 109.39 162.03 109.39 163.32 109.39 163.97 C 111.72 166.56 113.58 169.51 115.28 172.54 C 117.33 175.73 115.97 179.84 117.85 183.11 C 118.98 185.90 121.83 189.14 119.20 192.00 C 117.59 188.82 116.24 185.53 114.73 182.31 C 112.59 178.44 114.73 172.92 110.61 170.02 L 110.71 169.21 L 109.56 169.58 C 108.77 167.56 107.96 165.53 106.99 163.58 C 105.95 165.59 106.64 167.80 106.68 169.91 C 107.15 174.20 105.11 178.14 104.00 182.16 C 102.81 186.25 102.08 190.82 98.97 193.97 C 95.74 198.20 89.00 200.13 84.44 197.01 C 83.67 197.25 82.90 197.49 82.13 197.74 C 76.57 194.00 69.46 194.06 63.95 190.21 C 57.68 186.03 50.31 181.45 42.46 183.16 C 42.41 182.77 42.32 181.99 42.27 181.60 C 50.79 180.35 59.13 184.07 66.15 188.57 C 71.06 190.93 76.49 191.88 81.71 193.31 C 84.59 194.23 87.15 195.97 90.08 196.72 C 94.53 196.48 97.29 192.55 99.00 188.87 C 103.08 181.68 105.15 173.50 105.45 165.26 C 100.39 167.23 94.34 169.29 89.13 166.73 C 87.45 166.00 85.74 165.32 84.01 164.73 C 84.56 171.59 85.94 178.75 83.71 185.45 C 83.37 185.58 82.70 185.85 82.36 185.98 C 82.52 184.29 82.71 182.60 82.95 180.92 C 79.63 178.53 76.02 176.37 71.91 175.76 C 67.33 175.18 62.89 173.95 58.57 172.37 C 53.40 170.64 52.67 163.48 47.19 162.22 C 43.07 160.73 39.09 164.59 38.80 168.58 C 38.10 173.69 36.84 178.80 33.94 183.14 C 35.74 182.59 37.56 182.09 39.43 181.90 C 39.05 182.37 38.29 183.32 37.91 183.79 C 34.31 185.03 30.40 185.75 27.41 188.30 C 20.64 193.94 14.15 200.68 11.34 209.22 C 9.25 219.37 7.62 230.96 13.68 240.11 C 19.00 247.28 27.25 252.47 36.18 253.49 C 44.71 255.25 53.41 253.68 61.98 253.08 C 68.15 251.14 75.01 251.38 80.57 247.69 C 88.39 243.46 94.65 236.14 96.57 227.35 C 98.19 218.33 98.71 208.30 93.55 200.26 C 96.04 200.47 96.86 203.16 97.77 205.08 C 99.30 209.46 100.81 214.16 99.84 218.85 C 98.65 226.38 97.50 234.33 92.99 240.71 C 84.87 250.58 71.63 254.51 59.24 254.44 C 52.40 258.07 44.50 257.87 37.00 257.53 C 29.31 257.30 22.53 252.97 16.97 247.98 C 12.09 244.11 9.78 237.98 8.25 232.14 C 7.53 219.88 8.12 206.22 16.20 196.25 C 20.35 190.60 26.12 186.38 32.37 183.32 C 33.59 179.85 35.90 176.74 36.07 172.95 C 36.80 168.95 37.04 164.21 40.64 161.60 C 43.55 158.85 47.92 160.45 50.98 162.07 C 53.78 164.56 55.91 167.75 58.86 170.09 C 60.86 171.16 63.12 171.67 65.20 172.58 C 68.64 174.23 72.62 173.13 76.11 174.60 C 78.78 175.31 81.07 176.90 82.95 178.90 C 83.47 173.44 81.85 167.92 83.27 162.54 C 82.71 163.00 81.58 163.92 81.02 164.38 C 80.31 163.53 79.60 162.68 78.88 161.84 C 79.48 157.89 80.73 154.06 81.00 150.06 C 81.38 145.99 83.24 142.16 83.00 138.02 C 83.15 134.58 81.01 131.28 81.90 127.85 C 82.88 125.70 84.38 123.83 85.56 121.79 C 81.55 116.70 76.56 112.48 72.54 107.42 C 70.05 102.71 69.48 97.27 69.34 92.01 C 69.53 87.83 66.42 84.17 67.30 79.94 C 67.63 76.62 70.26 74.33 71.66 71.47 C 74.06 66.80 78.62 63.05 83.90 62.39 C 85.04 61.39 86.17 60.38 87.26 59.33 C 87.52 56.19 87.68 53.04 87.79 49.89 C 86.86 48.84 85.94 47.79 85.02 46.73 C 84.60 41.85 82.62 36.29 85.85 31.94 M 89.47 31.34 C 85.77 33.75 85.11 38.58 85.57 42.63 C 86.21 42.46 87.48 42.13 88.11 41.96 C 87.68 43.55 86.53 45.14 87.09 46.85 C 88.45 48.24 90.21 49.13 91.87 50.12 C 92.73 52.13 93.43 54.43 95.35 55.71 C 98.04 57.18 101.04 57.95 103.96 58.84 C 104.65 58.49 106.02 57.80 106.71 57.45 C 107.93 54.44 108.38 51.21 108.88 48.02 C 109.68 43.68 108.02 39.47 107.36 35.23 C 107.01 32.22 104.34 30.45 102.31 28.55 C 97.90 28.42 93.07 28.35 89.47 31.34 M 88.25 49.82 C 89.07 53.42 88.83 57.24 87.82 60.78 C 86.28 63.19 82.89 63.07 80.74 64.74 C 75.54 67.70 73.17 73.41 69.34 77.72 C 69.31 79.78 69.09 81.86 69.41 83.92 C 70.65 88.09 74.46 91.03 75.13 95.45 C 73.33 94.48 72.05 92.90 70.95 91.24 C 71.56 96.62 72.94 101.91 75.26 106.81 C 76.97 109.96 80.97 111.24 82.24 114.66 C 82.57 113.98 82.89 113.30 83.20 112.61 C 81.96 110.10 80.09 108.04 78.01 106.21 C 82.75 106.85 84.78 112.03 85.63 116.13 C 84.97 115.96 83.66 115.63 83.01 115.46 C 85.13 120.12 90.18 121.18 94.00 123.84 C 95.31 123.34 97.00 123.32 97.86 122.05 C 102.05 116.91 105.04 110.57 105.23 103.86 C 105.62 95.35 107.72 87.02 107.99 78.51 C 106.66 77.39 105.37 76.22 104.09 75.04 C 102.41 75.47 100.75 75.95 99.18 76.69 C 101.66 82.85 101.79 90.38 97.92 96.01 C 96.06 98.13 93.11 100.03 90.20 98.92 C 85.83 97.52 83.22 93.32 81.94 89.15 C 81.46 89.22 80.51 89.36 80.04 89.43 C 80.07 89.14 80.14 88.56 80.17 88.27 L 82.19 88.76 C 81.56 86.13 80.13 83.42 81.03 80.67 C 81.96 76.70 82.85 71.97 86.95 70.04 C 84.85 70.29 82.74 70.41 80.63 70.51 C 79.73 71.48 78.79 72.42 77.80 73.30 C 78.01 71.75 78.42 70.24 78.88 68.76 C 82.33 68.46 85.77 68.84 89.08 69.85 C 86.49 71.71 83.77 73.80 83.04 77.10 C 81.57 83.59 82.39 91.58 87.93 95.99 C 90.57 98.24 94.74 97.58 96.72 94.81 C 100.48 89.81 100.11 82.70 97.80 77.16 C 95.85 72.33 90.68 70.54 86.67 67.86 C 87.78 67.67 88.89 67.88 89.99 68.06 C 91.52 67.53 93.06 67.02 94.61 66.56 C 93.59 63.53 92.40 60.56 90.90 57.74 C 93.23 60.12 96.00 62.92 95.25 66.58 C 98.63 66.59 101.83 67.62 104.95 68.84 L 104.36 67.06 L 106.04 67.76 C 105.92 67.17 105.67 65.98 105.55 65.38 C 106.06 65.44 107.09 65.55 107.61 65.61 L 107.54 64.26 C 108.02 64.37 108.96 64.59 109.43 64.70 L 109.51 63.60 C 110.47 63.54 112.39 63.43 113.34 63.37 C 111.64 61.48 108.98 61.26 106.72 60.42 C 106.68 61.67 106.20 62.68 105.31 63.47 C 105.28 62.68 105.23 61.11 105.20 60.32 C 101.13 60.90 97.31 59.11 93.85 57.18 C 91.59 55.02 91.20 51.43 88.25 49.82 M 125.07 66.02 C 123.43 72.89 124.53 81.90 131.20 85.76 C 134.87 87.75 138.92 84.79 140.23 81.33 C 143.54 73.21 140.65 61.12 131.07 58.99 C 128.39 60.65 125.82 62.81 125.07 66.02 M 104.42 73.11 C 107.44 72.76 108.77 75.82 109.95 78.01 C 110.90 80.58 108.38 82.60 108.35 85.09 C 108.49 91.47 106.68 97.67 106.88 104.05 C 106.86 111.67 102.23 118.04 98.03 123.99 C 94.53 127.11 89.92 123.07 86.19 123.95 C 84.48 123.97 84.20 125.77 83.76 127.05 C 82.67 130.01 84.35 132.96 84.54 135.93 C 84.64 139.23 85.02 142.66 83.89 145.83 C 82.26 150.42 82.75 155.68 79.65 159.72 C 80.15 160.32 81.14 161.52 81.63 162.12 C 82.63 160.50 82.81 157.90 85.07 157.56 C 85.08 159.38 85.06 161.21 85.05 163.03 C 88.32 164.18 91.44 166.19 95.02 166.05 C 98.98 165.92 102.55 164.00 106.31 162.98 C 106.67 161.59 107.03 160.20 107.40 158.81 C 105.90 158.57 105.06 157.36 105.85 155.98 C 107.78 154.09 110.76 154.22 113.17 153.30 C 114.58 151.11 115.64 148.65 117.60 146.85 C 117.11 149.74 116.08 152.81 113.92 154.86 C 111.31 155.32 108.74 156.06 106.81 158.01 C 110.13 160.03 114.14 161.85 118.07 160.49 C 122.65 159.28 125.55 155.16 129.92 153.50 C 126.58 150.99 127.33 146.62 125.96 143.14 C 124.79 140.04 123.48 136.99 122.06 133.99 C 122.89 131.47 123.76 128.84 123.07 126.17 C 121.94 125.10 120.84 123.98 119.77 122.85 C 113.12 124.86 105.69 128.10 98.96 124.52 C 101.16 122.06 104.32 124.40 107.06 123.88 C 111.07 123.06 115.30 122.70 118.94 120.66 C 120.10 120.24 120.53 119.40 120.25 118.13 C 119.99 116.16 120.46 113.13 117.80 112.79 C 118.28 112.78 119.26 112.76 119.74 112.75 C 119.66 111.32 119.50 108.47 119.42 107.05 C 118.86 107.65 117.74 108.85 117.18 109.45 C 116.15 109.03 115.11 108.62 114.06 108.23 C 112.71 109.34 111.18 110.19 109.53 110.77 C 109.11 110.09 108.68 109.41 108.25 108.74 C 109.34 108.74 110.46 108.96 111.54 108.66 C 113.83 106.71 113.28 103.35 113.60 100.68 C 114.41 102.73 115.14 104.82 115.30 107.04 C 116.01 107.16 117.44 107.39 118.15 107.50 C 119.96 104.57 122.22 101.64 122.40 98.05 C 122.43 94.65 121.43 91.36 120.30 88.19 C 119.58 91.54 116.07 92.79 113.10 93.29 C 113.24 93.92 113.52 95.19 113.66 95.82 C 116.38 95.97 120.44 95.32 121.29 98.81 C 118.77 97.72 116.05 97.43 113.34 97.28 C 111.76 98.32 108.25 100.43 107.86 97.24 C 109.23 97.11 110.60 96.97 111.98 96.85 C 112.19 95.68 112.40 94.52 112.60 93.35 C 111.89 92.68 110.46 91.32 109.74 90.65 C 112.10 90.97 114.93 91.98 116.98 90.18 C 122.29 85.68 121.97 77.45 119.49 71.53 C 117.99 67.78 114.45 65.76 111.00 64.10 C 107.89 66.37 105.46 69.34 104.42 73.11 M 90.42 68.70 C 94.52 69.84 97.35 73.02 99.59 76.45 C 99.33 75.58 98.82 73.83 98.57 72.96 C 100.12 73.59 101.77 73.83 103.51 73.69 C 103.91 72.20 104.33 70.71 104.77 69.22 C 99.92 69.52 95.27 66.92 90.42 68.70 Z" />
<path fill="#333333" opacity="1.00" d=" M 148.30 60.84 C 149.04 61.20 149.78 61.56 150.52 61.93 C 150.81 66.39 154.35 70.65 151.99 75.07 C 151.07 70.25 149.65 65.55 148.30 60.84 Z" />
<path fill="#333333" opacity="1.00" d=" M 147.88 90.88 C 148.55 86.11 149.22 81.18 151.71 76.95 C 152.17 79.05 151.49 81.09 150.88 83.07 C 148.92 89.69 148.71 96.97 145.04 102.99 C 144.14 98.61 147.38 95.05 147.88 90.88 Z" />
<path fill="#333333" opacity="1.00" d=" M 144.34 82.88 C 144.55 83.26 144.97 84.02 145.19 84.41 C 145.29 88.31 145.20 92.26 144.31 96.08 C 142.13 92.07 144.02 87.18 144.34 82.88 Z" />
<path fill="#333333" opacity="1.00" d=" M 133.82 88.99 C 135.44 88.40 138.68 87.23 140.31 86.65 C 135.79 91.73 129.30 95.44 126.99 102.19 C 127.17 96.99 131.31 93.22 133.82 88.99 Z" />
<path fill="#333333" opacity="1.00" d=" M 83.22 97.98 C 86.03 98.81 89.15 101.59 88.36 104.80 C 86.69 102.49 85.01 100.19 83.22 97.98 Z" />
<path fill="#333333" opacity="1.00" d=" M 92.18 100.03 C 93.77 99.55 95.33 98.98 96.86 98.32 C 95.29 103.67 90.02 106.42 87.30 111.09 C 86.26 106.18 92.60 104.65 92.18 100.03 Z" />
<path fill="#333333" opacity="1.00" d=" M 88.36 117.41 C 90.78 116.55 93.13 115.51 95.26 114.05 C 95.05 117.00 90.60 120.33 88.36 117.41 Z" />
<path fill="#333333" opacity="1.00" d=" M 112.10 118.09 C 111.83 115.95 113.17 114.46 115.12 113.85 C 114.41 115.46 113.39 116.90 112.10 118.09 Z" />
<path fill="#333333" opacity="1.00" d=" M 103.94 119.59 C 105.19 119.77 106.42 120.58 107.11 121.64 C 106.75 124.12 101.49 120.82 103.94 119.59 Z" />
<path fill="#333333" opacity="1.00" d=" M 89.98 126.23 C 95.03 126.73 99.85 128.88 104.99 128.53 C 110.27 128.26 115.70 127.28 120.33 124.61 C 119.83 125.29 118.85 126.65 118.36 127.33 C 112.02 130.23 104.77 131.06 97.93 129.73 C 97.13 135.10 91.50 138.18 86.59 138.89 C 88.47 136.52 91.68 135.89 93.81 133.80 C 95.10 132.55 95.95 130.93 96.83 129.38 C 95.05 128.55 93.19 127.89 91.35 127.23 C 89.91 129.53 89.04 132.08 89.15 134.83 C 88.55 134.39 87.95 133.96 87.35 133.54 C 88.11 131.06 89.01 128.63 89.98 126.23 Z" />
<path fill="#333333" opacity="1.00" d=" M 101.06 136.43 C 106.92 134.40 113.08 133.11 119.28 132.82 C 119.31 133.87 119.35 134.92 119.40 135.97 C 113.75 138.03 108.31 140.57 102.89 143.12 C 106.34 138.60 112.34 137.43 117.29 135.24 C 115.10 134.08 112.72 135.03 110.49 135.53 C 106.55 136.51 102.62 137.52 98.67 138.45 C 99.42 137.74 100.02 136.76 101.06 136.43 Z" />
<path fill="#333333" opacity="1.00" d=" M 96.81 145.03 C 105.21 143.71 113.90 143.86 122.02 141.10 C 121.01 142.08 119.99 143.03 118.95 143.98 C 115.97 144.35 113.02 145.02 110.00 145.07 C 105.54 145.07 101.20 146.59 96.72 146.14 L 96.81 145.03 Z" />
<path fill="#333333" opacity="1.00" d=" M 51.15 175.59 C 51.69 175.65 52.75 175.78 53.29 175.85 C 56.55 177.53 59.98 178.93 63.02 181.02 C 58.49 181.94 54.98 177.37 51.15 175.59 Z" />
<path fill="#333333" opacity="1.00" d=" M 64.82 182.93 C 67.83 183.45 70.14 185.65 73.09 186.34 C 75.47 187.16 77.99 187.30 80.45 187.73 C 80.51 188.20 80.61 189.16 80.67 189.64 C 74.82 189.47 68.70 187.50 64.82 182.93 Z" />
<path fill="#333333" opacity="1.00" d=" M 122.91 230.36 C 123.33 228.89 123.17 227.08 124.53 226.07 C 124.33 228.86 124.91 231.57 125.69 234.25 C 124.45 233.19 123.68 231.76 122.91 230.36 Z" />
</g>
</svg>
