<?xml version="1.0" encoding="UTF-8" ?>
<!DOCTYPE svg PUBLIC "-//W3C//DTD SVG 1.1//EN" "http://www.w3.org/Graphics/SVG/1.1/DTD/svg11.dtd">
<svg width="192pt" height="250pt" viewBox="0 0 192 250" version="1.1" xmlns="http://www.w3.org/2000/svg">
<g id="#ffffffff">
<path fill="#FFFFFF" opacity="1.00" d=" M 0.00 0.00 L 192.00 0.00 L 192.00 250.00 L 0.00 250.00 L 0.00 0.00 M 129.67 13.60 C 126.30 10.84 121.83 12.40 118.05 13.26 C 112.57 14.15 109.22 19.82 108.38 24.90 C 108.36 30.76 107.70 37.49 111.60 42.37 C 113.20 44.26 115.78 44.10 118.02 44.24 C 113.82 46.24 110.66 49.78 106.46 51.73 C 102.17 54.71 101.65 60.53 102.26 65.30 C 100.74 69.12 99.30 73.01 98.77 77.11 C 98.52 79.33 97.06 81.09 95.86 82.86 C 92.76 87.08 92.62 92.54 91.50 97.46 C 90.73 100.39 89.37 103.12 88.04 105.83 C 86.01 105.87 83.98 106.03 82.08 106.80 C 81.41 108.45 80.68 110.07 80.01 111.72 C 78.68 111.66 77.35 111.60 76.02 111.53 C 76.91 111.85 77.80 112.17 78.69 112.50 C 76.15 112.30 73.55 112.15 71.06 112.85 C 65.02 114.09 60.56 118.66 55.04 121.10 C 53.05 123.40 53.40 126.99 53.06 129.91 C 54.22 134.10 52.80 138.52 54.32 142.63 C 55.87 147.24 54.70 152.21 55.55 156.95 C 56.39 161.92 56.20 167.37 53.78 171.89 C 49.55 177.47 43.82 182.04 37.07 184.16 C 33.75 185.33 33.92 190.63 37.32 191.51 C 41.32 192.83 45.79 193.75 49.91 192.35 C 52.81 191.55 55.09 189.36 58.00 188.62 C 61.80 188.15 65.65 188.09 69.48 188.12 C 66.98 191.72 63.29 194.34 61.12 198.23 C 57.26 202.49 52.92 206.45 48.25 209.81 C 47.81 212.82 49.66 215.73 52.99 215.28 C 53.24 215.67 53.76 216.44 54.02 216.83 C 57.96 217.46 62.07 219.73 65.98 217.71 C 70.00 216.59 72.24 212.75 75.73 210.77 C 78.65 209.06 81.40 207.03 83.68 204.51 C 86.60 201.53 83.27 197.30 84.17 193.72 C 86.98 195.64 89.43 198.07 92.44 199.70 C 95.72 201.56 98.29 204.51 101.83 205.93 C 106.11 207.64 108.56 212.32 113.06 213.52 C 116.17 212.59 119.24 211.22 122.56 211.51 C 120.18 208.98 121.70 205.13 119.77 202.39 C 118.63 200.14 116.21 199.12 114.24 197.73 C 110.72 195.53 107.60 192.65 103.71 191.07 C 112.71 188.19 121.54 184.87 130.31 181.36 C 142.08 177.14 154.46 174.85 166.11 170.27 C 169.80 168.74 174.56 169.16 177.51 166.21 C 168.85 166.93 160.69 170.09 152.40 172.44 C 143.50 175.20 134.34 177.13 125.69 180.65 C 117.15 183.90 108.37 186.49 99.94 190.02 C 103.58 193.10 107.57 195.72 111.31 198.67 C 113.61 200.49 116.10 202.09 118.91 202.99 C 118.94 204.94 118.95 206.89 118.97 208.84 C 116.60 209.13 114.36 210.31 111.98 210.32 C 102.14 204.52 93.17 197.29 83.34 191.45 C 83.34 187.69 83.57 183.93 84.04 180.20 C 86.63 181.21 89.08 183.88 92.09 182.85 C 101.83 179.88 111.37 176.10 121.37 174.06 C 122.95 166.83 123.08 159.40 124.55 152.16 C 123.95 152.28 122.76 152.52 122.16 152.65 C 120.42 158.93 120.22 165.55 119.83 172.04 C 113.97 173.62 108.15 175.34 102.45 177.41 C 98.98 178.68 95.76 180.83 92.05 181.30 C 89.53 180.88 87.18 179.88 84.77 179.07 C 84.89 176.64 84.91 174.19 85.47 171.81 C 87.28 165.12 87.09 157.98 85.58 151.25 C 88.76 148.76 92.88 149.79 96.48 148.60 C 99.51 147.36 102.31 149.84 105.04 150.83 C 107.74 152.50 110.97 151.90 113.96 151.69 C 113.49 151.18 112.56 150.14 112.09 149.63 C 115.69 149.89 119.34 150.84 122.93 150.06 C 125.01 149.00 126.56 147.17 128.40 145.77 C 128.29 143.36 127.99 140.97 127.48 138.61 C 127.71 137.96 127.60 137.40 127.14 136.95 C 125.56 135.82 126.04 133.51 125.49 131.83 C 127.81 133.33 128.43 136.26 129.24 138.72 C 131.58 138.09 133.78 137.07 136.09 136.37 C 141.03 135.63 146.02 136.29 150.95 136.76 C 162.94 137.21 175.00 138.34 186.96 136.87 C 183.29 136.38 179.72 135.10 175.96 135.73 C 164.57 135.29 153.13 135.15 141.79 133.92 C 140.29 133.28 138.92 131.69 137.16 132.14 C 136.76 133.56 138.66 133.95 139.36 134.85 C 137.59 134.74 135.81 134.61 134.04 134.79 C 132.86 135.36 131.95 136.34 130.89 137.08 C 129.43 134.97 128.26 132.64 126.35 130.89 C 126.94 129.20 127.63 127.54 128.35 125.91 C 130.10 128.54 131.66 131.29 133.41 133.93 C 135.60 134.58 135.47 131.43 136.28 130.18 C 136.97 127.40 140.46 128.70 142.00 126.93 C 143.94 122.22 144.52 117.09 144.39 112.03 C 146.04 98.11 148.25 84.27 149.81 70.33 C 146.81 66.93 149.05 61.80 147.18 57.81 C 146.09 57.16 145.00 56.52 143.90 55.90 C 144.68 57.95 145.79 59.88 146.26 62.03 C 146.20 64.48 145.76 66.90 145.62 69.34 C 144.79 68.97 143.14 68.23 142.31 67.86 C 141.49 68.89 140.67 69.92 139.88 70.97 C 140.99 70.40 142.10 69.81 143.20 69.21 C 143.80 70.67 144.98 71.13 146.75 70.58 C 146.03 76.04 144.42 81.31 142.97 86.60 C 142.45 86.02 141.93 85.44 141.42 84.86 C 141.87 83.29 142.31 81.72 142.71 80.14 C 140.11 82.15 137.46 84.11 134.67 85.86 C 134.93 88.24 133.22 91.78 135.85 93.21 C 135.95 89.78 135.80 85.90 139.57 84.30 C 139.48 85.16 139.32 86.88 139.24 87.74 C 139.88 87.71 141.16 87.65 141.80 87.62 C 138.56 90.90 137.30 95.44 134.86 99.25 C 134.09 104.66 131.48 109.59 130.63 115.01 C 129.86 121.15 126.05 126.19 124.06 131.90 C 123.56 136.29 125.20 140.63 126.09 144.90 C 124.48 146.08 122.82 147.22 121.15 148.32 C 118.45 148.10 115.72 148.07 113.03 147.65 C 112.18 146.86 111.68 145.77 111.04 144.81 C 113.32 141.76 112.33 138.01 109.15 136.14 C 110.67 134.29 112.76 133.09 114.60 131.61 C 116.64 129.98 115.97 127.08 116.87 124.88 C 120.60 116.29 117.40 106.32 121.81 97.91 C 123.53 95.10 125.54 92.49 127.67 89.98 C 128.51 87.58 128.74 85.02 128.84 82.50 C 126.52 84.38 126.41 87.70 124.91 90.15 C 125.18 83.08 127.37 76.27 129.13 69.47 C 130.43 70.88 130.73 72.78 131.25 74.56 C 131.75 72.70 132.23 70.84 132.76 68.99 C 131.99 66.04 131.65 63.02 131.43 59.99 C 131.50 63.09 131.48 66.19 131.12 69.27 C 130.80 69.14 130.17 68.87 129.86 68.73 C 127.90 64.84 127.53 60.25 128.87 56.11 C 129.61 54.46 131.45 53.75 132.77 52.63 C 133.68 53.32 134.59 54.00 135.52 54.68 C 136.35 51.63 133.61 50.36 131.05 50.59 C 130.25 51.66 129.47 52.74 128.64 53.79 C 127.69 52.70 126.35 52.18 125.08 51.60 C 123.27 52.38 121.42 53.13 119.88 54.40 C 119.12 53.57 118.38 52.70 117.66 51.83 C 111.07 51.50 106.92 57.87 105.91 63.67 C 105.73 63.73 105.36 63.85 105.18 63.91 C 104.16 60.36 105.61 56.72 106.41 53.26 C 108.01 52.14 109.77 51.31 111.76 51.29 C 113.27 49.30 115.23 47.73 117.58 46.88 C 117.62 47.92 117.68 50.02 117.72 51.06 C 120.33 49.34 119.64 45.96 119.09 43.41 C 121.08 43.01 123.05 42.45 124.71 41.22 C 123.66 44.46 122.34 47.60 121.44 50.89 C 124.04 48.84 125.01 45.62 125.73 42.53 C 125.44 42.03 125.16 41.54 124.88 41.04 C 127.25 39.41 127.10 36.48 126.95 33.94 C 125.41 36.33 124.54 39.60 121.64 40.71 C 118.86 41.78 115.79 42.56 112.82 41.98 C 112.01 38.96 110.02 36.26 109.99 33.06 C 109.91 27.30 110.02 20.77 114.42 16.44 C 118.08 14.19 122.67 13.15 126.86 14.35 C 131.67 16.57 134.21 21.90 134.46 26.96 C 133.41 32.45 132.17 38.54 134.76 43.80 C 134.27 44.10 133.31 44.69 132.82 44.99 C 135.64 46.88 138.43 48.90 140.54 51.59 C 141.80 53.12 142.72 55.01 144.59 55.90 C 143.16 51.35 140.25 47.44 136.21 44.90 C 135.57 41.54 135.28 38.13 134.45 34.81 C 136.31 30.09 135.35 25.01 134.99 20.12 C 133.45 18.13 131.69 16.25 130.58 13.96 C 130.94 13.49 131.66 12.54 132.02 12.07 C 137.59 12.60 142.97 14.38 148.49 15.31 C 151.21 15.60 153.22 17.51 155.19 19.22 L 154.16 19.72 C 154.91 19.94 156.40 20.38 157.15 20.61 C 156.68 18.95 155.86 17.52 154.69 16.30 C 148.38 12.65 141.09 11.38 134.00 10.17 C 131.78 9.67 129.87 11.44 129.67 13.60 M 149.32 19.19 C 149.98 24.20 148.02 28.94 147.85 33.91 C 147.58 39.81 144.71 45.22 144.52 51.12 C 148.36 40.94 149.70 30.06 150.82 19.30 C 150.45 19.28 149.69 19.22 149.32 19.19 M 155.09 20.05 C 153.11 35.05 149.76 49.86 148.75 64.98 C 148.32 66.53 149.26 67.90 149.84 69.24 C 151.38 63.48 151.23 57.47 152.41 51.64 C 153.27 44.39 154.65 37.22 156.07 30.06 C 156.24 26.73 157.44 22.88 155.09 20.05 M 128.21 49.88 C 130.27 49.13 131.25 47.09 132.09 45.22 C 130.13 46.14 128.87 47.86 128.21 49.88 M 135.61 52.68 C 137.62 55.00 140.75 55.78 143.36 57.25 C 142.87 53.59 138.62 52.81 135.61 52.68 M 139.92 66.30 C 142.44 64.94 143.92 62.36 145.19 59.89 C 141.97 59.89 141.39 64.06 139.92 66.30 M 134.97 76.88 C 132.74 78.76 132.77 81.76 132.49 84.43 C 133.70 83.48 134.41 82.20 134.61 80.61 C 135.65 78.27 136.65 75.92 137.66 73.57 C 136.71 74.62 135.82 75.74 134.97 76.88 M 131.83 96.12 C 132.33 91.88 133.00 87.67 133.62 83.45 C 130.60 86.62 129.74 92.11 131.83 96.12 M 135.39 94.28 C 133.65 97.25 138.74 94.63 135.39 94.28 M 123.09 110.28 C 124.32 108.17 125.13 105.67 127.22 104.21 C 129.77 101.91 134.19 100.10 133.21 95.93 C 129.53 100.44 122.46 103.45 123.09 110.28 M 115.83 132.27 C 117.41 132.78 119.01 133.27 120.61 133.74 C 120.52 133.18 120.35 132.08 120.27 131.52 C 118.73 131.48 116.98 130.91 115.83 132.27 M 115.54 140.79 C 116.28 143.75 119.44 143.03 121.74 143.46 C 121.72 142.93 121.67 141.87 121.65 141.34 C 120.84 141.51 120.02 141.68 119.21 141.86 C 117.99 141.47 116.77 141.11 115.54 140.79 M 128.39 145.94 C 130.37 146.21 132.20 146.90 133.89 148.01 C 132.95 148.68 132.02 149.36 131.09 150.03 C 129.12 157.03 128.47 164.26 127.82 171.46 C 130.72 172.43 133.33 170.15 136.13 169.69 C 147.04 167.26 157.66 163.69 168.58 161.32 C 170.69 160.76 172.76 160.03 174.80 159.27 C 174.20 158.53 173.60 157.78 173.01 157.04 C 167.96 159.27 162.42 159.81 157.20 161.48 C 148.07 163.92 139.06 166.82 130.16 169.99 C 130.67 167.66 131.10 165.32 131.19 162.94 C 131.31 158.69 132.88 154.66 133.04 150.41 C 133.53 149.69 134.02 148.96 134.51 148.23 C 138.00 147.92 141.44 147.05 144.96 147.06 C 156.83 146.96 168.74 147.23 180.59 146.62 C 180.84 146.24 181.32 145.46 181.57 145.08 C 168.03 144.89 154.47 144.95 140.94 145.25 C 137.33 145.92 133.70 145.84 130.28 144.41 C 129.65 144.91 129.02 145.42 128.39 145.94 Z" />
<path fill="#FFFFFF" opacity="1.00" d=" M 108.65 62.10 C 107.71 58.08 112.00 55.24 114.78 53.16 C 116.21 53.92 117.67 54.63 119.11 55.37 C 119.52 57.09 120.73 58.37 122.09 59.42 C 121.55 58.00 120.97 56.61 120.34 55.23 C 122.59 54.20 125.05 54.32 127.46 54.39 C 125.70 57.47 125.47 61.07 125.82 64.53 C 124.69 65.92 123.59 67.35 122.74 68.93 C 124.37 68.42 125.77 67.48 126.95 66.26 C 127.30 67.54 127.60 68.85 127.79 70.18 C 126.86 69.95 125.94 69.71 125.02 69.44 C 123.08 70.26 121.00 71.07 119.71 72.84 C 121.71 72.29 123.61 71.45 125.42 70.45 C 126.08 71.78 126.30 73.28 125.64 74.68 C 123.73 79.99 122.71 85.55 122.56 91.19 C 121.75 90.74 120.13 89.83 119.32 89.38 C 119.25 88.78 119.13 87.60 119.06 87.00 C 117.17 86.19 115.19 85.63 113.19 85.20 C 113.08 82.03 112.08 78.13 116.02 76.84 C 114.50 76.60 113.00 76.27 111.48 76.02 C 111.14 79.26 110.62 82.53 111.64 85.74 C 110.99 85.03 110.36 84.31 109.74 83.58 C 109.39 83.90 108.69 84.54 108.34 84.86 L 107.67 83.66 C 107.24 83.99 106.37 84.66 105.94 84.99 C 106.25 83.45 106.58 81.91 107.00 80.38 C 108.95 80.70 110.14 80.00 110.56 78.31 C 109.97 78.39 108.78 78.54 108.19 78.61 C 108.43 77.22 108.67 75.83 108.95 74.45 C 110.44 74.29 111.93 74.11 113.42 73.91 C 111.25 72.90 109.03 71.94 107.25 70.29 C 107.26 67.77 107.20 65.25 107.00 62.74 C 107.41 62.58 108.24 62.26 108.65 62.10 M 113.66 60.98 C 112.85 62.26 114.98 63.76 116.01 62.76 C 116.94 61.44 114.68 59.85 113.66 60.98 M 114.47 65.39 C 114.23 68.65 112.63 72.87 115.72 75.28 C 117.52 77.15 120.35 77.66 122.37 75.81 C 117.61 75.86 114.05 70.62 115.10 66.19 C 117.53 64.23 120.85 64.08 123.39 62.31 C 120.17 61.84 116.29 62.33 114.47 65.39 M 115.98 76.71 C 117.12 79.96 118.30 83.65 121.78 85.07 C 122.04 83.57 121.09 82.58 120.06 81.68 C 119.04 79.79 118.37 77.31 115.98 76.71 Z" />
<path fill="#FFFFFF" opacity="1.00" d=" M 103.85 66.16 C 104.08 66.14 104.55 66.11 104.78 66.09 C 105.28 68.65 105.31 71.32 106.40 73.74 C 108.36 78.00 103.70 81.57 104.14 85.87 C 104.57 88.08 105.01 90.29 105.02 92.56 C 103.28 94.50 101.58 96.59 100.77 99.11 C 99.52 102.18 99.22 105.92 96.31 107.99 C 96.70 108.49 97.50 109.50 97.89 110.01 C 92.86 108.88 87.76 109.36 82.93 111.09 C 83.30 110.21 83.69 109.32 84.07 108.44 C 85.61 108.24 87.26 108.42 88.71 107.76 C 93.80 101.91 93.01 93.58 95.45 86.62 C 96.94 83.92 98.78 81.43 100.62 78.97 C 100.59 81.86 100.30 84.74 99.90 87.60 C 103.52 85.70 102.44 80.52 101.40 77.31 C 101.16 73.44 102.70 69.77 103.85 66.16 Z" />
<path fill="#FFFFFF" opacity="1.00" d=" M 144.50 86.45 C 145.27 85.17 145.10 82.91 146.67 82.34 C 146.76 83.48 146.00 84.45 145.67 85.49 C 145.07 93.73 143.47 101.86 142.64 110.08 C 142.35 115.12 142.07 120.21 140.71 125.10 C 140.40 126.00 139.41 126.31 138.72 126.84 C 139.12 120.81 140.36 114.28 137.12 108.77 C 137.50 106.97 137.91 105.18 138.30 103.38 L 139.69 103.12 C 138.78 102.43 137.82 101.81 136.86 101.19 C 136.61 103.33 136.25 105.52 135.18 107.43 C 135.83 104.75 135.59 101.70 137.15 99.33 C 137.63 99.89 138.17 100.37 138.77 100.78 C 139.39 98.89 139.91 96.97 140.07 94.99 C 139.98 91.50 143.37 89.50 144.50 86.45 Z" />
<path fill="#FFFFFF" opacity="1.00" d=" M 106.15 85.12 C 108.44 84.94 109.69 86.75 111.06 88.18 L 110.19 89.17 C 111.36 89.16 112.53 89.15 113.70 89.14 L 113.01 87.30 C 115.58 87.23 117.24 88.86 118.07 91.11 C 119.13 91.38 120.20 91.65 121.26 91.92 C 121.76 91.76 122.74 91.45 123.24 91.29 C 122.13 93.90 120.74 96.39 119.19 98.77 C 119.17 97.42 119.21 96.07 119.31 94.73 C 118.91 94.62 118.09 94.41 117.69 94.31 C 116.81 96.27 116.35 98.36 116.69 100.51 C 117.06 100.56 117.79 100.67 118.16 100.72 C 118.50 103.26 117.47 105.70 117.08 108.18 C 114.15 107.08 110.90 106.47 108.44 104.43 C 106.63 102.88 107.47 100.18 107.00 98.14 C 107.59 98.16 108.75 98.20 109.33 98.22 C 109.41 97.83 109.56 97.05 109.64 96.66 C 110.70 96.59 111.69 96.98 112.63 97.84 C 111.99 94.97 112.01 92.02 112.93 89.21 C 112.21 89.48 110.77 90.04 110.05 90.31 L 111.11 90.30 C 110.41 91.87 110.19 93.78 108.82 94.97 C 108.55 94.87 108.01 94.66 107.74 94.56 C 107.20 91.41 106.87 88.23 106.15 85.12 M 112.90 98.01 C 112.78 101.40 115.95 96.67 112.90 98.01 M 109.41 103.74 C 112.79 103.57 112.52 100.18 112.28 97.67 C 110.68 99.31 108.98 101.26 109.41 103.74 Z" />
<path fill="#FFFFFF" opacity="1.00" d=" M 100.22 109.57 C 100.99 104.61 103.06 99.97 104.77 95.28 C 105.13 96.85 105.48 98.43 105.82 100.02 C 104.71 100.99 103.47 101.86 102.65 103.11 C 101.87 105.03 102.39 107.51 100.52 108.90 C 102.24 109.84 104.05 110.63 105.96 111.10 C 109.80 112.15 113.18 114.30 116.70 116.08 C 116.68 117.02 116.64 118.90 116.63 119.84 L 115.93 120.06 C 109.90 116.98 103.70 114.01 97.55 111.08 C 98.22 110.70 99.55 109.95 100.22 109.57 Z" />
<path fill="#FFFFFF" opacity="1.00" d=" M 104.15 108.86 C 103.40 106.63 104.00 103.96 105.48 102.13 C 105.61 102.88 105.86 104.37 105.99 105.12 C 108.99 107.94 113.15 108.82 116.93 110.12 C 116.94 111.63 116.95 113.14 116.97 114.65 C 113.01 112.04 108.59 110.42 104.15 108.86 Z" />
<path fill="#FFFFFF" opacity="1.00" d=" M 134.61 108.79 C 135.26 109.64 135.89 110.50 136.53 111.36 C 136.39 117.88 138.22 125.16 133.73 130.71 C 132.32 128.79 130.80 126.95 129.22 125.17 C 132.27 120.16 132.93 114.30 134.61 108.79 Z" />
<path fill="#FFFFFF" opacity="1.00" d=" M 87.82 112.79 C 88.89 109.51 93.41 111.60 95.96 111.08 C 99.06 114.34 103.47 115.72 107.40 117.67 C 109.87 118.84 111.98 120.62 114.48 121.73 C 114.81 121.63 115.48 121.43 115.81 121.32 C 115.60 124.55 113.96 127.55 112.83 130.56 C 112.09 131.08 110.60 132.12 109.85 132.63 C 108.03 130.27 106.66 127.38 104.00 125.82 C 101.39 124.27 98.39 123.56 95.67 122.23 C 94.37 122.83 93.11 123.50 92.01 124.43 C 93.51 119.75 90.04 116.34 87.82 112.79 Z" />
<path fill="#FFFFFF" opacity="1.00" d=" M 70.04 115.47 C 74.51 113.89 79.31 114.05 83.97 113.81 C 86.21 113.60 88.07 115.31 89.03 117.18 C 90.56 119.63 89.77 122.67 90.02 125.40 C 84.89 125.82 80.67 129.02 76.46 131.68 C 73.17 134.14 69.31 136.68 68.38 140.98 C 66.81 148.22 70.74 156.18 67.86 163.09 C 65.92 162.34 66.79 159.56 66.02 157.93 C 64.26 153.31 65.03 148.34 64.26 143.57 C 63.21 148.34 63.40 153.35 64.51 158.09 C 65.10 160.64 65.30 163.74 67.81 165.22 C 69.18 167.62 69.00 170.46 69.36 173.12 C 69.63 177.17 70.65 181.19 70.19 185.26 C 66.44 186.03 62.52 185.18 58.84 186.41 C 55.23 187.23 52.30 189.60 48.95 191.02 C 44.57 191.31 39.14 191.72 36.06 187.91 C 39.37 184.20 44.82 183.92 48.40 180.55 C 52.21 177.16 56.79 173.79 57.90 168.49 C 59.45 164.39 58.27 160.00 57.70 155.83 C 57.05 151.17 58.14 146.34 56.56 141.81 C 55.49 138.89 57.14 135.78 55.87 132.90 C 54.70 129.45 54.98 125.71 55.99 122.26 C 61.25 121.18 64.93 116.91 70.04 115.47 M 65.20 128.96 C 62.57 128.02 62.70 124.30 59.89 123.90 C 60.17 126.92 61.84 129.94 65.04 130.60 C 70.17 130.39 72.78 125.57 75.10 121.70 C 71.47 123.67 68.97 127.17 65.20 128.96 M 59.81 134.00 C 58.79 136.61 59.97 138.82 62.09 140.41 C 61.79 138.02 61.86 135.64 62.54 133.33 C 61.63 133.55 60.72 133.78 59.81 134.00 M 51.70 180.99 C 54.62 178.80 58.14 177.13 60.24 174.05 C 56.45 174.39 53.52 177.86 51.70 180.99 Z" />
<path fill="#FFFFFF" opacity="1.00" d=" M 82.23 130.07 C 85.91 127.75 90.31 127.10 94.21 125.24 C 94.96 125.20 96.47 125.13 97.23 125.09 C 102.06 126.48 105.50 130.27 108.38 134.17 C 108.20 134.79 107.84 136.05 107.65 136.67 C 104.96 136.90 102.29 137.31 99.64 137.82 C 99.03 140.00 98.82 142.27 98.84 144.53 C 95.72 146.23 92.92 148.58 89.07 147.98 C 87.38 148.87 85.61 149.61 83.79 150.20 C 84.36 156.12 85.05 162.10 84.23 168.03 C 82.34 175.60 81.64 183.39 80.91 191.13 C 81.49 194.34 83.74 197.39 82.76 200.77 C 80.38 206.00 74.36 207.68 70.47 211.49 C 67.58 213.39 64.69 216.32 60.97 216.00 C 58.58 215.90 55.02 215.86 54.76 212.70 C 53.78 213.14 52.80 213.57 51.82 214.00 C 51.26 212.94 49.91 211.55 51.27 210.48 C 55.03 205.76 60.98 203.42 64.27 198.26 C 65.92 195.38 68.37 193.15 70.62 190.77 C 72.28 187.50 72.91 183.73 72.33 180.11 C 70.97 172.50 70.14 164.68 71.36 156.99 C 70.98 152.35 70.93 147.66 70.01 143.08 C 69.93 140.73 71.08 138.37 72.87 136.85 C 75.78 134.32 78.90 132.03 82.23 130.07 M 78.67 136.91 C 79.16 137.04 80.15 137.29 80.64 137.42 C 80.72 138.07 80.86 139.38 80.93 140.04 C 79.93 141.06 77.52 141.64 78.38 143.47 C 79.81 143.12 81.04 142.30 82.27 141.54 C 82.24 140.45 82.22 139.36 82.22 138.27 C 81.25 137.08 80.28 135.66 78.67 136.91 M 82.18 148.76 C 84.73 144.80 89.71 144.77 93.73 143.36 C 89.09 141.06 84.42 144.85 82.18 148.76 M 76.27 151.38 C 77.04 149.13 78.08 146.91 78.11 144.48 C 76.30 146.02 73.35 149.56 76.27 151.38 M 73.50 192.67 C 72.28 196.52 71.38 200.46 70.32 204.35 C 73.32 202.62 73.38 198.51 74.56 195.58 C 75.28 194.33 74.38 193.45 73.50 192.67 Z" />
<path fill="#FFFFFF" opacity="1.00" d=" M 102.54 138.61 C 105.03 138.44 107.53 138.34 110.00 138.76 C 109.76 139.99 109.53 141.22 109.31 142.46 C 108.55 143.29 107.80 144.13 107.06 144.97 C 105.36 144.93 103.66 144.88 101.96 144.80 C 101.82 142.72 102.13 140.65 102.54 138.61 Z" />
<path fill="#FFFFFF" opacity="1.00" d=" M 98.96 146.07 C 102.19 146.15 105.44 146.79 108.65 146.16 C 109.72 147.47 110.81 148.74 111.92 150.02 C 107.25 150.28 103.01 148.08 98.96 146.07 Z" />
</g>
<g id="#373834ff">
<path fill="#333333" opacity="1.00" d=" M 129.67 13.60 C 129.87 11.44 131.78 9.67 134.00 10.17 C 141.09 11.38 148.38 12.65 154.69 16.30 C 155.86 17.52 156.68 18.95 157.15 20.61 C 156.40 20.38 154.91 19.94 154.16 19.72 L 155.19 19.22 C 153.22 17.51 151.21 15.60 148.49 15.31 C 142.97 14.38 137.59 12.60 132.02 12.07 C 131.66 12.54 130.94 13.49 130.58 13.96 C 131.69 16.25 133.45 18.13 134.99 20.12 C 135.35 25.01 136.31 30.09 134.45 34.81 C 135.28 38.13 135.57 41.54 136.21 44.90 C 140.25 47.44 143.16 51.35 144.59 55.90 C 142.72 55.01 141.80 53.12 140.54 51.59 C 138.43 48.90 135.64 46.88 132.82 44.99 C 133.31 44.69 134.27 44.10 134.76 43.80 C 132.17 38.54 133.41 32.45 134.46 26.96 C 134.21 21.90 131.67 16.57 126.86 14.35 C 122.67 13.15 118.08 14.19 114.42 16.44 C 110.02 20.77 109.91 27.30 109.99 33.06 C 110.02 36.26 112.01 38.96 112.82 41.98 C 115.79 42.56 118.86 41.78 121.64 40.71 C 124.54 39.60 125.41 36.33 126.95 33.94 C 127.10 36.48 127.25 39.41 124.88 41.04 C 125.16 41.54 125.44 42.03 125.73 42.53 C 125.01 45.62 124.04 48.84 121.44 50.89 C 122.34 47.60 123.66 44.46 124.71 41.22 C 123.05 42.45 121.08 43.01 119.09 43.41 C 119.64 45.96 120.33 49.34 117.72 51.06 C 117.68 50.02 117.62 47.92 117.58 46.88 C 115.23 47.73 113.27 49.30 111.76 51.29 C 109.77 51.31 108.01 52.14 106.41 53.26 C 105.61 56.72 104.16 60.36 105.18 63.91 C 105.36 63.85 105.73 63.73 105.91 63.67 C 106.92 57.87 111.07 51.50 117.66 51.83 C 118.38 52.70 119.12 53.57 119.88 54.40 C 121.42 53.13 123.27 52.38 125.08 51.60 C 126.35 52.18 127.69 52.70 128.64 53.79 C 129.47 52.74 130.25 51.66 131.05 50.59 C 133.61 50.36 136.35 51.63 135.52 54.68 C 134.59 54.00 133.68 53.32 132.77 52.63 C 131.45 53.75 129.61 54.46 128.87 56.11 C 127.53 60.25 127.90 64.84 129.86 68.73 C 130.17 68.87 130.80 69.14 131.12 69.27 C 131.48 66.19 131.50 63.09 131.43 59.99 C 131.65 63.02 131.99 66.04 132.76 68.99 C 132.23 70.84 131.75 72.70 131.25 74.56 C 130.73 72.78 130.43 70.88 129.13 69.47 C 127.37 76.27 125.18 83.08 124.91 90.15 C 126.41 87.70 126.52 84.38 128.84 82.50 C 128.74 85.02 128.51 87.58 127.67 89.98 C 125.54 92.49 123.53 95.10 121.81 97.91 C 117.40 106.32 120.60 116.29 116.87 124.88 C 115.97 127.08 116.64 129.98 114.60 131.61 C 112.76 133.09 110.67 134.29 109.15 136.14 C 112.33 138.01 113.32 141.76 111.04 144.81 C 111.68 145.77 112.18 146.86 113.03 147.65 C 115.72 148.07 118.45 148.10 121.15 148.32 C 122.82 147.22 124.48 146.08 126.09 144.90 C 125.20 140.63 123.56 136.29 124.06 131.90 C 126.05 126.19 129.86 121.15 130.63 115.01 C 131.48 109.59 134.09 104.66 134.86 99.25 C 137.30 95.44 138.56 90.90 141.80 87.62 C 141.16 87.65 139.88 87.71 139.24 87.74 C 139.32 86.88 139.48 85.16 139.57 84.30 C 135.80 85.90 135.95 89.78 135.85 93.21 C 133.22 91.78 134.93 88.24 134.67 85.86 C 137.46 84.11 140.11 82.15 142.71 80.14 C 142.31 81.72 141.87 83.29 141.42 84.86 C 141.93 85.44 142.45 86.02 142.97 86.60 C 144.42 81.31 146.03 76.04 146.75 70.58 C 144.98 71.13 143.80 70.67 143.20 69.21 C 142.10 69.81 140.99 70.40 139.88 70.97 C 140.67 69.92 141.49 68.89 142.31 67.86 C 143.14 68.23 144.79 68.97 145.62 69.34 C 145.76 66.90 146.20 64.48 146.26 62.03 C 145.79 59.88 144.68 57.95 143.90 55.90 C 145.00 56.52 146.09 57.16 147.18 57.81 C 149.05 61.80 146.81 66.93 149.81 70.33 C 148.25 84.27 146.04 98.11 144.39 112.03 C 144.52 117.09 143.94 122.22 142.00 126.93 C 140.46 128.70 136.97 127.40 136.28 130.18 C 135.47 131.43 135.60 134.58 133.41 133.93 C 131.66 131.29 130.10 128.54 128.35 125.91 C 127.63 127.54 126.94 129.20 126.35 130.89 C 128.26 132.64 129.43 134.97 130.89 137.08 C 131.95 136.34 132.86 135.36 134.04 134.79 C 135.81 134.61 137.59 134.74 139.36 134.85 C 138.66 133.95 136.76 133.56 137.16 132.14 C 138.92 131.69 140.29 133.28 141.79 133.92 C 153.13 135.15 164.57 135.29 175.96 135.73 C 179.72 135.10 183.29 136.38 186.96 136.87 C 175.00 138.34 162.94 137.21 150.95 136.76 C 146.02 136.29 141.03 135.63 136.09 136.37 C 133.78 137.07 131.58 138.09 129.24 138.72 C 128.43 136.26 127.81 133.33 125.49 131.83 C 126.04 133.51 125.56 135.82 127.14 136.95 C 127.60 137.40 127.71 137.96 127.48 138.61 C 127.99 140.97 128.29 143.36 128.40 145.77 C 126.56 147.17 125.01 149.00 122.93 150.06 C 119.34 150.84 115.69 149.89 112.09 149.63 C 112.56 150.14 113.49 151.18 113.96 151.69 C 110.97 151.90 107.74 152.50 105.04 150.83 C 102.31 149.84 99.51 147.36 96.48 148.60 C 92.88 149.79 88.76 148.76 85.58 151.25 C 87.09 157.98 87.28 165.12 85.47 171.81 C 84.91 174.19 84.89 176.64 84.77 179.07 C 87.18 179.88 89.53 180.88 92.05 181.30 C 95.76 180.83 98.98 178.68 102.45 177.41 C 108.15 175.34 113.97 173.62 119.83 172.04 C 120.22 165.55 120.42 158.93 122.16 152.65 C 122.76 152.52 123.95 152.28 124.55 152.16 C 123.08 159.40 122.95 166.83 121.37 174.06 C 111.37 176.10 101.83 179.88 92.09 182.85 C 89.08 183.88 86.63 181.21 84.04 180.20 C 83.57 183.93 83.34 187.69 83.34 191.45 C 93.17 197.29 102.14 204.52 111.98 210.32 C 114.36 210.31 116.60 209.13 118.97 208.84 C 118.95 206.89 118.94 204.94 118.91 202.99 C 116.10 202.09 113.61 200.49 111.31 198.67 C 107.57 195.72 103.58 193.10 99.94 190.02 C 108.37 186.49 117.15 183.90 125.69 180.65 C 134.34 177.13 143.50 175.20 152.40 172.44 C 160.69 170.09 168.85 166.93 177.51 166.21 C 174.56 169.16 169.80 168.74 166.11 170.27 C 154.46 174.85 142.08 177.14 130.31 181.36 C 121.54 184.87 112.71 188.19 103.71 191.07 C 107.60 192.65 110.72 195.53 114.24 197.73 C 116.21 199.12 118.63 200.14 119.77 202.39 C 121.70 205.13 120.18 208.98 122.56 211.51 C 119.24 211.22 116.17 212.59 113.06 213.52 C 108.56 212.32 106.11 207.64 101.83 205.93 C 98.29 204.51 95.72 201.56 92.44 199.70 C 89.43 198.07 86.98 195.64 84.17 193.72 C 83.27 197.30 86.60 201.53 83.68 204.51 C 81.40 207.03 78.65 209.06 75.73 210.77 C 72.24 212.75 70.00 216.59 65.98 217.71 C 62.07 219.73 57.96 217.46 54.02 216.83 C 53.76 216.44 53.24 215.67 52.99 215.28 C 49.66 215.73 47.81 212.82 48.25 209.81 C 52.92 206.45 57.26 202.49 61.12 198.23 C 63.29 194.34 66.98 191.72 69.48 188.12 C 65.65 188.09 61.80 188.15 58.00 188.62 C 55.09 189.36 52.81 191.55 49.91 192.35 C 45.79 193.75 41.32 192.83 37.32 191.51 C 33.92 190.63 33.75 185.33 37.07 184.16 C 43.82 182.04 49.55 177.47 53.78 171.89 C 56.20 167.37 56.39 161.92 55.55 156.95 C 54.70 152.21 55.87 147.24 54.32 142.63 C 52.80 138.52 54.22 134.10 53.06 129.91 C 53.40 126.99 53.05 123.40 55.04 121.10 C 60.56 118.66 65.02 114.09 71.06 112.85 C 73.55 112.15 76.15 112.30 78.69 112.50 C 77.80 112.17 76.91 111.85 76.02 111.53 C 77.35 111.60 78.68 111.66 80.01 111.72 C 80.68 110.07 81.41 108.45 82.08 106.80 C 83.98 106.03 86.01 105.87 88.04 105.83 C 89.37 103.12 90.73 100.39 91.50 97.46 C 92.62 92.54 92.76 87.08 95.86 82.86 C 97.06 81.09 98.52 79.33 98.77 77.11 C 99.30 73.01 100.74 69.12 102.26 65.30 C 101.65 60.53 102.17 54.71 106.46 51.73 C 110.66 49.78 113.82 46.24 118.02 44.24 C 115.78 44.10 113.20 44.26 111.60 42.37 C 107.70 37.49 108.36 30.76 108.38 24.90 C 109.22 19.82 112.57 14.15 118.05 13.26 C 121.83 12.40 126.30 10.84 129.67 13.60 M 108.65 62.10 C 108.24 62.26 107.41 62.58 107.00 62.74 C 107.20 65.25 107.26 67.77 107.25 70.29 C 109.03 71.94 111.25 72.90 113.42 73.91 C 111.93 74.11 110.44 74.29 108.95 74.45 C 108.67 75.83 108.43 77.22 108.19 78.61 C 108.78 78.54 109.97 78.39 110.56 78.31 C 110.14 80.00 108.95 80.70 107.00 80.38 C 106.58 81.91 106.25 83.45 105.94 84.99 C 106.37 84.66 107.24 83.99 107.67 83.66 L 108.34 84.86 C 108.69 84.54 109.39 83.90 109.74 83.58 C 110.36 84.31 110.99 85.03 111.64 85.74 C 110.62 82.53 111.14 79.26 111.48 76.02 C 113.00 76.27 114.50 76.60 116.02 76.84 C 112.08 78.13 113.08 82.03 113.19 85.20 C 115.19 85.63 117.17 86.19 119.06 87.00 C 119.13 87.60 119.25 88.78 119.32 89.38 C 120.13 89.83 121.75 90.74 122.56 91.19 C 122.71 85.55 123.73 79.99 125.64 74.68 C 126.30 73.28 126.08 71.78 125.42 70.45 C 123.61 71.45 121.71 72.29 119.71 72.84 C 121.00 71.07 123.08 70.26 125.02 69.44 C 125.94 69.71 126.86 69.95 127.79 70.18 C 127.60 68.85 127.30 67.54 126.95 66.26 C 125.77 67.48 124.37 68.42 122.74 68.93 C 123.59 67.35 124.69 65.92 125.82 64.53 C 125.47 61.07 125.70 57.47 127.46 54.39 C 125.05 54.32 122.59 54.20 120.34 55.23 C 120.97 56.61 121.55 58.00 122.09 59.42 C 120.73 58.37 119.52 57.09 119.11 55.37 C 117.67 54.63 116.21 53.92 114.78 53.16 C 112.00 55.24 107.71 58.08 108.65 62.10 M 103.85 66.16 C 102.70 69.77 101.16 73.44 101.40 77.31 C 102.44 80.52 103.52 85.70 99.90 87.60 C 100.30 84.74 100.59 81.86 100.62 78.97 C 98.78 81.43 96.94 83.92 95.45 86.62 C 93.01 93.58 93.80 101.91 88.71 107.76 C 87.26 108.42 85.61 108.24 84.07 108.44 C 83.69 109.32 83.30 110.21 82.93 111.09 C 87.76 109.36 92.86 108.88 97.89 110.01 C 97.50 109.50 96.70 108.49 96.31 107.99 C 99.22 105.92 99.52 102.18 100.77 99.11 C 101.58 96.59 103.28 94.50 105.02 92.56 C 105.01 90.29 104.57 88.08 104.14 85.87 C 103.70 81.57 108.36 78.00 106.40 73.74 C 105.31 71.32 105.28 68.65 104.78 66.09 C 104.55 66.11 104.08 66.14 103.85 66.16 M 144.50 86.45 C 143.37 89.50 139.98 91.50 140.07 94.99 C 139.91 96.97 139.39 98.89 138.77 100.78 C 138.17 100.37 137.63 99.89 137.15 99.33 C 135.59 101.70 135.83 104.75 135.18 107.43 C 136.25 105.52 136.61 103.33 136.86 101.19 C 137.82 101.81 138.78 102.43 139.69 103.12 L 138.30 103.38 C 137.91 105.18 137.50 106.97 137.12 108.77 C 140.36 114.28 139.12 120.81 138.72 126.84 C 139.41 126.31 140.40 126.00 140.71 125.10 C 142.07 120.21 142.35 115.12 142.64 110.08 C 143.47 101.86 145.07 93.73 145.67 85.49 C 146.00 84.45 146.76 83.48 146.67 82.34 C 145.10 82.91 145.27 85.17 144.50 86.45 M 106.15 85.12 C 106.87 88.23 107.20 91.41 107.74 94.56 C 108.01 94.66 108.55 94.87 108.82 94.97 C 110.19 93.78 110.41 91.87 111.11 90.30 L 110.05 90.31 C 110.77 90.04 112.21 89.48 112.93 89.21 C 112.01 92.02 111.99 94.97 112.63 97.84 C 111.69 96.98 110.70 96.59 109.64 96.66 C 109.56 97.05 109.41 97.83 109.33 98.22 C 108.75 98.20 107.59 98.16 107.00 98.14 C 107.47 100.18 106.63 102.88 108.44 104.43 C 110.90 106.47 114.15 107.08 117.08 108.18 C 117.47 105.70 118.50 103.26 118.16 100.72 C 117.79 100.67 117.06 100.56 116.69 100.51 C 116.35 98.36 116.81 96.27 117.69 94.31 C 118.09 94.41 118.91 94.62 119.31 94.73 C 119.21 96.07 119.17 97.42 119.19 98.77 C 120.74 96.39 122.13 93.90 123.24 91.29 C 122.74 91.45 121.76 91.76 121.26 91.92 C 120.20 91.65 119.13 91.38 118.07 91.11 C 117.24 88.86 115.58 87.23 113.01 87.30 L 113.70 89.14 C 112.53 89.15 111.36 89.16 110.19 89.17 L 111.06 88.18 C 109.69 86.75 108.44 84.94 106.15 85.12 M 100.22 109.57 C 99.55 109.95 98.22 110.70 97.55 111.08 C 103.70 114.01 109.90 116.98 115.93 120.06 L 116.63 119.84 C 116.64 118.90 116.68 117.02 116.70 116.08 C 113.18 114.30 109.80 112.15 105.96 111.10 C 104.05 110.63 102.24 109.84 100.52 108.90 C 102.39 107.51 101.87 105.03 102.65 103.11 C 103.47 101.86 104.71 100.99 105.82 100.02 C 105.48 98.43 105.13 96.85 104.77 95.28 C 103.06 99.97 100.99 104.61 100.22 109.57 M 104.15 108.86 C 108.59 110.42 113.01 112.04 116.97 114.65 C 116.95 113.14 116.94 111.63 116.93 110.12 C 113.15 108.82 108.99 107.94 105.99 105.12 C 105.86 104.37 105.61 102.88 105.48 102.13 C 104.00 103.96 103.40 106.63 104.15 108.86 M 134.61 108.79 C 132.93 114.30 132.27 120.16 129.22 125.17 C 130.80 126.95 132.32 128.79 133.73 130.71 C 138.22 125.16 136.39 117.88 136.53 111.36 C 135.89 110.50 135.26 109.64 134.61 108.79 M 87.82 112.79 C 90.04 116.34 93.51 119.75 92.01 124.43 C 93.11 123.50 94.37 122.83 95.67 122.23 C 98.39 123.56 101.39 124.27 104.00 125.82 C 106.66 127.38 108.03 130.27 109.85 132.63 C 110.60 132.12 112.09 131.08 112.83 130.56 C 113.96 127.55 115.60 124.55 115.81 121.32 C 115.48 121.43 114.81 121.63 114.48 121.73 C 111.98 120.62 109.87 118.84 107.40 117.67 C 103.47 115.72 99.06 114.34 95.96 111.08 C 93.41 111.60 88.89 109.51 87.82 112.79 M 70.04 115.47 C 64.93 116.91 61.25 121.18 55.99 122.26 C 54.98 125.71 54.70 129.45 55.87 132.90 C 57.14 135.78 55.49 138.89 56.56 141.81 C 58.14 146.34 57.05 151.17 57.70 155.83 C 58.27 160.00 59.45 164.39 57.90 168.49 C 56.79 173.79 52.21 177.16 48.40 180.55 C 44.82 183.92 39.37 184.20 36.06 187.91 C 39.14 191.72 44.57 191.31 48.95 191.02 C 52.30 189.60 55.23 187.23 58.84 186.41 C 62.52 185.18 66.44 186.03 70.19 185.26 C 70.65 181.19 69.63 177.17 69.36 173.12 C 69.00 170.46 69.18 167.62 67.81 165.22 C 65.30 163.74 65.10 160.64 64.51 158.09 C 63.40 153.35 63.21 148.34 64.26 143.57 C 65.03 148.34 64.26 153.31 66.02 157.93 C 66.79 159.56 65.92 162.34 67.86 163.09 C 70.74 156.18 66.81 148.22 68.38 140.98 C 69.31 136.68 73.17 134.14 76.46 131.68 C 80.67 129.02 84.89 125.82 90.02 125.40 C 89.77 122.67 90.56 119.63 89.03 117.18 C 88.07 115.31 86.21 113.60 83.97 113.81 C 79.31 114.05 74.51 113.89 70.04 115.47 M 82.23 130.07 C 78.90 132.03 75.78 134.32 72.87 136.85 C 71.08 138.37 69.93 140.73 70.01 143.08 C 70.93 147.66 70.98 152.35 71.36 156.99 C 70.14 164.68 70.97 172.50 72.33 180.11 C 72.91 183.73 72.28 187.50 70.62 190.77 C 68.37 193.15 65.92 195.38 64.27 198.26 C 60.98 203.42 55.03 205.76 51.27 210.48 C 49.91 211.55 51.26 212.94 51.82 214.00 C 52.80 213.57 53.78 213.14 54.76 212.70 C 55.02 215.86 58.58 215.90 60.97 216.00 C 64.69 216.32 67.58 213.39 70.47 211.49 C 74.36 207.68 80.38 206.00 82.76 200.77 C 83.74 197.39 81.49 194.34 80.91 191.13 C 81.64 183.39 82.34 175.60 84.23 168.03 C 85.05 162.10 84.36 156.12 83.79 150.20 C 85.61 149.61 87.38 148.87 89.07 147.98 C 92.92 148.58 95.72 146.23 98.84 144.53 C 98.82 142.27 99.03 140.00 99.64 137.82 C 102.29 137.31 104.96 136.90 107.65 136.67 C 107.84 136.05 108.20 134.79 108.38 134.17 C 105.50 130.27 102.06 126.48 97.23 125.09 C 96.47 125.13 94.96 125.20 94.21 125.24 C 90.31 127.10 85.91 127.75 82.23 130.07 M 102.54 138.61 C 102.13 140.65 101.82 142.72 101.96 144.80 C 103.66 144.88 105.36 144.93 107.06 144.97 C 107.80 144.13 108.55 143.29 109.31 142.46 C 109.53 141.22 109.76 139.99 110.00 138.76 C 107.53 138.34 105.03 138.44 102.54 138.61 M 98.96 146.07 C 103.01 148.08 107.25 150.28 111.92 150.02 C 110.81 148.74 109.72 147.47 108.65 146.16 C 105.44 146.79 102.19 146.15 98.96 146.07 Z" />
<path fill="#333333" opacity="1.00" d=" M 149.32 19.19 C 149.69 19.22 150.45 19.28 150.82 19.30 C 149.70 30.06 148.36 40.94 144.52 51.12 C 144.71 45.22 147.58 39.81 147.85 33.91 C 148.02 28.94 149.98 24.20 149.32 19.19 Z" />
<path fill="#333333" opacity="1.00" d=" M 155.09 20.05 C 157.44 22.88 156.24 26.73 156.07 30.06 C 154.65 37.22 153.27 44.39 152.41 51.64 C 151.23 57.47 151.38 63.48 149.84 69.24 C 149.26 67.90 148.32 66.53 148.75 64.98 C 149.76 49.86 153.11 35.05 155.09 20.05 Z" />
<path fill="#333333" opacity="1.00" d=" M 128.21 49.88 C 128.87 47.86 130.13 46.14 132.09 45.22 C 131.25 47.09 130.27 49.13 128.21 49.88 Z" />
<path fill="#333333" opacity="1.00" d=" M 135.61 52.68 C 138.62 52.81 142.87 53.59 143.36 57.25 C 140.75 55.78 137.62 55.00 135.61 52.68 Z" />
<path fill="#333333" opacity="1.00" d=" M 139.92 66.30 C 141.39 64.06 141.97 59.89 145.19 59.89 C 143.92 62.36 142.44 64.94 139.92 66.30 Z" />
<path fill="#333333" opacity="1.00" d=" M 113.66 60.98 C 114.68 59.85 116.94 61.44 116.01 62.76 C 114.98 63.76 112.85 62.26 113.66 60.98 Z" />
<path fill="#333333" opacity="1.00" d=" M 114.47 65.39 C 116.29 62.33 120.17 61.84 123.39 62.31 C 120.85 64.08 117.53 64.23 115.10 66.19 C 114.05 70.62 117.61 75.86 122.37 75.81 C 120.35 77.66 117.52 77.15 115.72 75.28 C 112.63 72.87 114.23 68.65 114.47 65.39 Z" />
<path fill="#333333" opacity="1.00" d=" M 134.97 76.88 C 135.82 75.74 136.71 74.62 137.66 73.57 C 136.65 75.92 135.65 78.27 134.61 80.61 C 134.41 82.20 133.70 83.48 132.49 84.43 C 132.77 81.76 132.74 78.76 134.97 76.88 Z" />
<path fill="#333333" opacity="1.00" d=" M 115.98 76.71 C 118.37 77.31 119.04 79.79 120.06 81.68 C 121.09 82.58 122.04 83.57 121.78 85.07 C 118.30 83.65 117.12 79.96 115.98 76.71 Z" />
<path fill="#333333" opacity="1.00" d=" M 131.83 96.12 C 129.74 92.11 130.60 86.62 133.62 83.45 C 133.00 87.67 132.33 91.88 131.83 96.12 Z" />
<path fill="#333333" opacity="1.00" d=" M 135.39 94.28 C 138.74 94.63 133.65 97.25 135.39 94.28 Z" />
<path fill="#333333" opacity="1.00" d=" M 123.09 110.28 C 122.46 103.45 129.53 100.44 133.21 95.93 C 134.19 100.10 129.77 101.91 127.22 104.21 C 125.13 105.67 124.32 108.17 123.09 110.28 Z" />
<path fill="#333333" opacity="1.00" d=" M 112.90 98.01 C 115.95 96.67 112.78 101.40 112.90 98.01 Z" />
<path fill="#333333" opacity="1.00" d=" M 109.41 103.74 C 108.98 101.26 110.68 99.31 112.28 97.67 C 112.52 100.18 112.79 103.57 109.41 103.74 Z" />
<path fill="#333333" opacity="1.00" d=" M 65.20 128.96 C 68.97 127.17 71.47 123.67 75.10 121.70 C 72.78 125.57 70.17 130.39 65.04 130.60 C 61.84 129.94 60.17 126.92 59.89 123.90 C 62.70 124.30 62.57 128.02 65.20 128.96 Z" />
<path fill="#333333" opacity="1.00" d=" M 115.83 132.27 C 116.98 130.91 118.73 131.48 120.27 131.52 C 120.35 132.08 120.52 133.18 120.61 133.74 C 119.01 133.27 117.41 132.78 115.83 132.27 Z" />
<path fill="#333333" opacity="1.00" d=" M 59.81 134.00 C 60.72 133.78 61.63 133.55 62.54 133.33 C 61.86 135.64 61.79 138.02 62.09 140.41 C 59.97 138.82 58.79 136.61 59.81 134.00 Z" />
<path fill="#333333" opacity="1.00" d=" M 78.67 136.91 C 80.28 135.66 81.25 137.08 82.22 138.27 C 82.22 139.36 82.24 140.45 82.27 141.54 C 81.04 142.30 79.81 143.12 78.38 143.47 C 77.52 141.64 79.93 141.06 80.93 140.04 C 80.86 139.38 80.72 138.07 80.64 137.42 C 80.15 137.29 79.16 137.04 78.67 136.91 Z" />
<path fill="#333333" opacity="1.00" d=" M 115.54 140.79 C 116.77 141.11 117.99 141.47 119.21 141.86 C 120.02 141.68 120.84 141.51 121.65 141.34 C 121.67 141.87 121.72 142.93 121.74 143.46 C 119.44 143.03 116.28 143.75 115.54 140.79 Z" />
<path fill="#333333" opacity="1.00" d=" M 82.18 148.76 C 84.42 144.85 89.09 141.06 93.73 143.36 C 89.71 144.77 84.73 144.80 82.18 148.76 Z" />
<path fill="#333333" opacity="1.00" d=" M 76.27 151.38 C 73.35 149.56 76.30 146.02 78.11 144.48 C 78.08 146.91 77.04 149.13 76.27 151.38 Z" />
<path fill="#333333" opacity="1.00" d=" M 128.39 145.94 C 129.02 145.42 129.65 144.91 130.28 144.41 C 133.70 145.84 137.33 145.92 140.94 145.25 C 154.47 144.95 168.03 144.89 181.57 145.08 C 181.32 145.46 180.84 146.24 180.59 146.62 C 168.74 147.23 156.83 146.96 144.96 147.06 C 141.44 147.05 138.00 147.92 134.51 148.23 C 134.02 148.96 133.53 149.69 133.04 150.41 C 132.88 154.66 131.31 158.69 131.19 162.94 C 131.10 165.32 130.67 167.66 130.16 169.99 C 139.06 166.82 148.07 163.92 157.20 161.48 C 162.42 159.81 167.96 159.27 173.01 157.04 C 173.60 157.78 174.20 158.53 174.80 159.27 C 172.76 160.03 170.69 160.76 168.58 161.32 C 157.66 163.69 147.04 167.26 136.13 169.69 C 133.33 170.15 130.72 172.43 127.82 171.46 C 128.47 164.26 129.12 157.03 131.09 150.03 C 132.02 149.36 132.95 148.68 133.89 148.01 C 132.20 146.90 130.37 146.21 128.39 145.94 Z" />
<path fill="#333333" opacity="1.00" d=" M 51.70 180.99 C 53.52 177.86 56.45 174.39 60.24 174.05 C 58.14 177.13 54.62 178.80 51.70 180.99 Z" />
<path fill="#333333" opacity="1.00" d=" M 73.50 192.67 C 74.38 193.45 75.28 194.33 74.56 195.58 C 73.38 198.51 73.32 202.62 70.32 204.35 C 71.38 200.46 72.28 196.52 73.50 192.67 Z" />
</g>
</svg>
