<?xml version="1.0" encoding="UTF-8" ?>
<!DOCTYPE svg PUBLIC "-//W3C//DTD SVG 1.1//EN" "http://www.w3.org/Graphics/SVG/1.1/DTD/svg11.dtd">
<svg width="250pt" height="173pt" viewBox="0 0 250 173" version="1.1" xmlns="http://www.w3.org/2000/svg">
<g id="#ffffffff">
<path fill="#FFFFFF" opacity="1.00" d=" M 0.00 0.00 L 250.00 0.00 L 250.00 173.00 L 0.00 173.00 L 0.00 0.00 M 179.73 23.00 C 180.61 26.00 183.52 27.67 185.54 29.85 C 185.33 30.12 184.91 30.67 184.71 30.94 C 182.43 32.16 180.57 33.98 178.37 35.31 C 175.38 36.81 172.01 37.43 169.16 39.24 C 165.91 41.62 162.20 45.24 164.01 49.63 C 166.52 46.54 168.34 42.86 171.40 40.25 C 173.39 38.91 175.79 38.41 177.97 37.45 C 181.48 36.08 184.19 33.35 186.86 30.79 C 189.10 31.86 191.28 30.84 192.98 29.36 C 192.95 27.82 193.19 26.30 193.74 24.86 C 196.66 26.03 199.84 27.25 201.72 29.94 C 201.56 31.52 201.13 33.05 200.80 34.60 C 199.74 35.93 198.75 37.32 197.78 38.72 C 195.80 38.54 193.85 38.07 191.87 38.15 C 189.18 39.19 186.96 41.16 185.14 43.34 C 181.43 42.92 178.32 45.11 174.91 46.10 C 171.70 47.23 170.48 50.91 167.60 52.53 C 165.50 53.71 163.30 54.72 161.16 55.83 C 163.28 55.66 165.58 55.87 167.43 54.63 C 170.79 53.13 172.16 49.24 175.35 47.53 C 177.88 46.67 180.38 45.73 182.96 45.03 C 185.58 44.97 187.90 46.39 190.18 47.51 C 190.53 47.16 191.24 46.45 191.60 46.10 C 198.08 46.87 202.54 52.22 208.37 54.63 C 208.16 54.10 207.73 53.04 207.52 52.52 C 210.59 50.77 208.13 46.78 208.28 44.06 C 209.33 43.24 210.46 42.51 211.56 41.77 C 212.48 42.59 213.41 43.41 214.34 44.23 C 212.78 47.77 212.53 51.88 210.04 55.00 C 207.15 58.49 203.27 61.06 200.79 64.91 C 197.45 68.78 197.43 74.19 194.89 78.48 C 192.32 78.29 189.78 77.77 187.20 77.81 C 180.72 78.57 176.05 84.40 169.44 84.59 C 169.34 80.29 169.64 75.97 169.06 71.70 C 173.30 70.97 177.51 70.08 181.69 69.04 C 177.50 67.51 173.17 69.11 169.28 70.71 C 168.25 68.37 163.75 66.96 165.07 64.21 C 165.24 64.01 165.59 63.60 165.76 63.40 C 164.91 59.45 161.71 56.41 157.79 55.54 C 159.73 57.90 162.56 59.77 163.35 62.87 L 163.40 63.69 C 161.78 62.67 160.23 61.55 158.50 60.72 C 160.18 62.65 162.64 63.86 163.82 66.23 C 166.01 69.58 165.94 73.76 167.69 77.31 C 169.45 81.18 167.32 85.28 166.96 89.21 C 167.79 88.08 168.52 86.88 169.24 85.68 C 175.67 86.47 180.32 81.35 186.04 79.54 C 188.55 79.44 191.05 79.83 193.56 79.92 C 192.43 83.11 195.04 85.16 197.14 87.01 C 191.03 88.58 185.15 90.91 178.94 92.09 C 179.71 92.54 180.50 92.99 181.29 93.43 C 183.17 92.68 185.15 92.20 187.17 92.08 C 181.75 93.82 176.30 95.50 170.76 96.86 C 173.40 95.78 176.01 94.63 178.74 93.80 C 178.70 93.35 178.63 92.45 178.60 92.00 C 173.11 93.85 167.67 95.87 161.99 97.02 C 157.19 97.93 152.53 100.58 147.54 99.29 C 144.54 97.50 142.73 94.31 139.95 92.23 C 137.84 90.66 136.08 88.70 134.88 86.36 C 139.32 84.65 144.11 86.51 147.63 89.35 C 149.09 90.59 151.00 91.16 152.87 90.54 C 157.31 89.33 161.77 88.15 166.20 86.91 C 166.66 85.42 167.07 83.91 167.45 82.40 C 165.68 83.60 164.25 85.51 162.02 85.84 C 158.02 86.78 154.07 87.98 150.02 88.69 C 147.92 87.09 145.84 85.45 143.66 83.98 C 140.68 82.50 137.25 82.40 134.03 81.83 C 138.86 76.32 136.29 68.64 135.49 62.22 C 138.95 63.23 142.22 64.88 144.92 67.29 C 146.69 65.44 148.04 63.23 147.82 60.57 C 146.25 61.44 145.02 62.75 143.68 63.91 C 139.90 63.14 136.40 59.81 132.38 61.54 C 131.38 60.86 129.20 60.77 129.74 58.98 C 129.94 55.94 128.87 53.13 127.05 50.73 C 130.20 52.58 133.09 55.17 136.84 55.74 C 140.63 56.52 144.37 57.47 147.92 59.05 C 149.63 58.37 151.31 57.57 153.09 57.08 C 155.27 57.70 156.90 59.43 158.84 60.51 C 158.18 58.35 156.95 56.16 154.65 55.46 C 151.64 53.97 148.93 58.07 146.01 56.33 C 142.40 54.64 138.49 53.85 134.56 53.39 C 131.37 51.43 128.00 48.26 123.96 49.75 C 120.33 49.13 116.68 48.51 112.99 48.45 C 104.16 48.29 97.60 55.96 88.91 56.54 C 80.79 56.90 73.71 61.61 65.67 62.44 C 60.62 60.35 57.63 55.11 52.16 53.80 C 51.41 53.93 49.92 54.18 49.17 54.31 C 54.84 55.40 57.56 61.00 62.39 63.43 C 72.10 65.45 80.47 58.37 89.97 57.99 C 95.24 57.89 99.85 55.24 104.61 53.33 C 111.51 49.00 120.75 50.37 127.59 54.20 C 127.57 55.93 127.54 57.66 127.49 59.38 C 120.90 58.04 113.39 57.89 107.55 61.73 C 101.49 65.02 94.46 65.59 87.88 67.25 C 83.22 68.60 78.46 69.64 74.07 71.76 C 72.15 72.43 70.15 73.91 68.03 73.13 C 63.51 71.79 58.65 70.11 55.93 65.97 C 53.99 62.82 51.36 60.26 48.49 57.96 C 47.84 57.72 46.53 57.25 45.88 57.01 C 44.57 57.67 43.20 58.22 42.01 59.10 C 41.52 62.35 40.64 65.64 40.72 68.92 C 42.55 74.00 46.26 78.17 49.68 82.27 C 51.96 84.25 52.18 87.63 54.49 89.58 C 56.57 91.23 58.86 93.26 61.74 92.64 C 64.62 89.16 68.78 86.77 73.13 85.67 C 78.39 85.27 83.69 85.55 88.96 85.22 C 93.43 84.42 97.93 83.57 102.22 82.03 C 105.64 80.81 108.54 78.42 112.09 77.50 C 114.31 77.45 116.53 77.64 118.75 77.81 C 122.88 80.75 127.03 84.07 132.33 84.45 C 132.49 85.70 132.67 86.96 132.86 88.21 C 116.89 93.47 101.02 99.02 85.09 104.40 C 83.13 105.02 81.17 105.94 79.07 105.70 C 75.36 101.71 75.69 94.98 70.84 91.95 C 72.63 97.26 75.17 102.27 77.34 107.43 C 72.96 112.22 68.65 117.07 64.16 121.76 C 56.59 106.59 49.20 91.33 41.66 76.14 C 37.50 68.84 34.72 60.80 30.24 53.69 L 29.01 54.02 C 32.98 63.44 38.06 72.38 42.40 81.65 C 48.89 94.13 54.22 107.23 61.52 119.27 C 64.01 124.78 66.13 130.53 69.54 135.57 C 71.99 138.44 73.12 142.12 74.41 145.60 C 77.79 149.79 78.54 155.29 81.29 159.79 C 83.82 159.45 86.28 158.80 88.74 158.16 L 89.41 159.68 C 89.10 158.56 88.79 157.45 88.40 156.35 C 86.34 156.89 83.45 155.32 82.14 157.65 C 80.11 153.76 79.28 149.12 75.92 146.00 C 75.84 145.42 75.67 144.25 75.59 143.66 C 74.40 141.57 73.69 139.16 71.94 137.44 C 71.81 137.01 71.54 136.15 71.41 135.72 C 70.52 134.36 69.68 132.96 68.84 131.57 C 73.30 129.93 77.39 127.28 82.14 126.50 C 83.46 126.25 85.14 125.62 86.06 127.03 C 88.23 131.24 89.60 135.82 91.70 140.07 C 89.48 144.39 86.99 148.57 84.56 152.78 C 84.99 153.38 85.44 153.98 85.88 154.59 C 87.35 151.32 89.36 148.36 91.22 145.32 C 91.71 145.33 92.67 145.35 93.15 145.36 L 91.50 144.90 C 91.98 143.70 92.43 142.50 92.89 141.30 C 95.58 142.32 97.95 140.66 100.48 140.03 C 100.95 139.76 101.42 139.49 101.89 139.23 C 107.07 139.46 111.92 137.50 116.94 136.64 C 121.10 135.80 125.15 134.51 129.21 133.30 C 158.17 127.19 187.22 121.43 216.06 114.78 C 216.18 106.10 215.10 97.48 213.96 88.89 C 213.57 88.75 212.81 88.46 212.43 88.32 C 213.07 92.38 212.72 96.53 213.57 100.55 C 214.58 104.87 214.24 109.34 214.22 113.74 C 203.45 115.57 192.88 118.43 182.06 119.93 C 164.65 123.53 147.25 127.18 129.97 131.35 C 118.11 135.38 105.59 136.93 93.60 140.52 C 91.96 135.19 89.50 130.17 87.61 124.94 C 93.59 122.78 99.61 120.75 105.50 118.38 C 111.41 116.42 116.99 113.52 123.15 112.35 C 131.30 109.48 139.58 107.00 147.92 104.78 C 152.09 104.66 155.88 102.86 159.87 101.91 C 158.73 101.26 157.57 100.65 156.42 100.03 L 160.13 100.69 C 159.72 100.21 158.90 99.24 158.49 98.76 C 161.22 100.40 163.73 97.77 166.57 98.46 C 165.97 98.67 164.77 99.07 164.17 99.27 C 164.78 101.38 167.40 99.47 168.88 99.46 C 181.41 95.38 194.51 93.18 206.89 88.68 C 207.78 88.71 209.57 88.78 210.46 88.82 C 209.48 88.51 207.53 87.89 206.55 87.59 C 214.45 85.96 222.55 84.82 230.20 82.21 C 233.93 76.61 239.34 72.59 244.53 68.45 C 246.02 64.88 247.84 61.07 246.46 57.16 C 246.23 52.22 241.84 47.91 236.73 49.00 C 236.03 46.56 236.19 43.69 234.38 41.71 C 232.76 40.10 230.83 38.87 229.05 37.46 C 226.94 37.26 224.84 37.03 222.76 36.65 C 222.93 37.21 223.28 38.35 223.45 38.92 C 221.40 37.93 219.40 36.86 217.42 35.75 C 216.96 35.78 216.04 35.84 215.59 35.87 C 213.59 34.12 211.34 32.73 208.93 31.65 C 207.46 32.85 206.07 34.13 204.74 35.47 C 204.35 35.09 203.58 34.32 203.20 33.94 C 203.29 32.45 203.53 30.94 203.23 29.47 C 200.44 26.24 196.50 23.95 192.21 23.54 C 192.12 24.05 191.93 25.08 191.83 25.59 C 189.40 23.89 187.14 21.94 184.65 20.33 C 182.63 18.57 180.56 21.31 179.73 23.00 M 42.14 42.91 C 37.13 45.76 31.93 48.23 26.73 50.70 C 24.06 51.75 23.19 54.80 22.01 57.15 C 22.66 59.59 23.91 61.81 24.89 64.13 C 34.82 85.44 44.80 106.73 54.54 128.13 C 57.52 132.89 57.89 138.63 60.47 143.56 C 64.05 151.25 67.73 158.89 71.32 166.57 C 72.02 168.18 73.40 169.32 74.58 170.56 C 101.38 164.99 128.25 159.77 155.06 154.22 C 182.60 148.58 210.23 143.38 237.70 137.40 C 237.60 132.99 236.86 128.62 237.05 124.20 C 236.37 124.82 235.69 125.44 235.01 126.05 C 235.06 129.04 235.23 132.02 235.56 135.00 C 219.48 138.87 203.08 141.30 186.96 145.04 C 185.34 145.36 183.73 145.66 182.13 146.05 C 146.72 154.04 110.92 160.18 75.39 167.64 C 74.88 166.15 76.13 165.16 77.08 164.24 C 75.73 164.51 74.41 164.86 73.08 165.19 C 68.37 152.87 61.66 141.38 57.19 128.96 C 46.38 105.04 35.22 81.29 24.16 57.49 C 25.30 55.86 26.50 54.21 28.24 53.17 C 34.16 49.27 40.53 46.08 46.87 42.93 C 49.37 46.11 50.48 50.09 52.75 53.40 L 54.32 52.98 C 52.94 48.62 50.63 44.55 48.07 40.78 C 45.92 40.72 44.05 42.10 42.14 42.91 M 176.37 53.44 C 174.17 56.67 170.26 57.93 167.57 60.65 C 170.96 59.21 174.98 58.41 177.15 55.13 C 179.19 52.04 182.77 50.28 184.25 46.80 C 181.21 48.46 178.30 50.51 176.37 53.44 M 186.93 47.46 C 187.73 49.67 189.22 51.65 189.56 54.01 C 188.77 56.53 187.38 58.79 186.19 61.13 C 184.85 62.94 183.64 64.88 182.98 67.05 C 185.81 62.89 190.04 59.17 190.42 53.84 C 190.79 51.16 188.64 49.17 186.93 47.46 M 196.02 51.67 C 198.20 54.70 199.40 58.46 197.72 62.06 C 198.13 61.83 198.96 61.37 199.38 61.14 C 200.65 57.74 199.95 52.87 196.02 51.67 M 105.51 57.66 C 107.99 57.35 110.46 56.91 112.90 56.35 C 110.51 54.74 106.66 54.37 105.51 57.66 M 190.52 60.56 C 191.77 63.05 193.95 64.86 196.43 66.03 C 195.16 63.59 193.06 61.62 190.52 60.56 M 187.13 63.64 C 188.72 65.59 190.31 68.00 193.15 67.82 C 191.41 66.08 189.61 64.23 187.13 63.64 M 181.83 68.11 C 182.44 70.33 184.26 71.79 186.25 72.76 C 186.66 72.55 187.48 72.13 187.88 71.92 C 185.82 70.72 183.86 69.36 181.83 68.11 M 233.22 89.02 C 233.66 101.02 234.49 112.99 235.00 124.98 C 235.64 124.22 236.29 123.47 236.94 122.72 C 236.82 115.45 236.00 108.22 235.63 100.96 C 235.21 93.47 235.23 85.96 234.47 78.49 C 231.62 81.34 233.29 85.50 233.22 89.02 M 226.15 85.75 C 224.70 88.64 225.52 91.81 225.80 94.85 C 226.25 106.44 227.79 117.95 228.15 129.55 C 181.81 138.50 135.51 147.67 89.06 156.01 C 89.79 156.60 90.51 157.20 91.23 157.80 C 137.52 148.95 183.81 140.12 230.14 131.50 C 230.42 119.94 228.24 108.42 227.87 96.86 C 227.50 93.15 227.75 89.21 226.15 85.75 M 218.97 88.63 C 218.84 95.48 219.29 102.37 220.60 109.10 C 220.63 112.16 221.17 115.20 222.82 117.85 C 223.51 114.90 222.21 112.00 222.08 109.06 C 221.08 102.25 220.61 95.33 218.97 88.63 M 160.27 100.14 C 160.51 103.06 163.21 98.76 160.27 100.14 M 176.04 127.93 C 174.16 128.42 172.01 128.41 170.40 129.59 C 170.02 130.45 170.27 131.12 171.15 131.61 C 187.21 128.15 203.25 124.54 219.37 121.38 C 221.32 122.34 223.28 123.28 225.36 123.95 C 224.06 121.04 220.73 120.28 218.17 118.90 C 204.21 122.27 190.22 125.62 176.04 127.93 M 165.08 130.15 C 160.08 131.67 155.01 132.94 149.87 133.88 C 144.02 135.93 137.63 135.46 131.91 138.03 C 124.26 139.99 116.48 141.37 108.80 143.23 C 104.83 144.06 99.68 143.80 97.26 147.71 C 103.30 147.32 109.13 145.57 115.03 144.31 C 133.33 140.16 151.62 135.96 169.96 131.98 C 168.61 130.87 167.05 128.96 165.08 130.15 Z" />
<path fill="#FFFFFF" opacity="1.00" d=" M 180.86 23.97 C 181.45 23.34 182.65 22.08 183.25 21.45 C 185.78 23.53 188.18 25.80 191.00 27.50 C 190.30 28.34 189.60 29.18 188.90 30.02 C 186.02 28.27 183.64 25.86 180.86 23.97 Z" />
<path fill="#FFFFFF" opacity="1.00" d=" M 206.73 36.85 C 207.36 36.08 208.61 34.54 209.23 33.77 C 212.86 35.26 214.85 38.94 218.30 40.70 C 217.75 41.62 217.20 42.53 216.65 43.44 C 213.20 41.47 210.04 39.04 206.73 36.85 Z" />
<path fill="#FFFFFF" opacity="1.00" d=" M 200.92 36.69 C 203.16 34.94 204.55 37.31 205.99 38.74 C 206.08 43.25 205.84 47.80 206.65 52.27 C 205.78 51.75 204.04 50.71 203.17 50.19 C 202.77 45.66 204.81 40.17 200.92 36.69 Z" />
<path fill="#FFFFFF" opacity="1.00" d=" M 223.41 39.58 C 227.24 37.65 231.63 40.26 233.68 43.56 C 234.35 46.96 235.48 50.54 234.34 53.96 C 234.06 57.02 231.21 58.56 228.93 60.06 C 229.09 55.10 226.93 49.69 229.52 45.08 C 228.32 42.45 226.13 40.55 223.41 39.58 Z" />
<path fill="#FFFFFF" opacity="1.00" d=" M 185.80 43.79 C 188.07 42.23 190.43 40.79 192.87 39.52 C 195.37 40.38 198.00 40.24 200.60 40.41 C 201.73 43.06 201.44 46.00 201.50 48.80 C 198.82 47.12 196.21 44.58 192.80 44.83 C 190.41 44.93 188.03 44.71 185.80 43.79 Z" />
<path fill="#FFFFFF" opacity="1.00" d=" M 207.96 39.96 C 209.40 39.56 209.86 40.04 209.35 41.40 C 207.92 41.82 207.46 41.35 207.96 39.96 Z" />
<path fill="#FFFFFF" opacity="1.00" d=" M 219.20 38.72 C 222.84 40.23 226.00 42.74 228.55 45.72 C 227.14 47.17 226.02 48.86 226.81 50.93 C 228.04 60.04 227.04 69.25 227.57 78.40 C 228.77 73.31 228.45 68.05 228.90 62.88 C 231.09 61.18 233.65 59.81 235.24 57.45 C 236.44 55.01 236.78 52.27 237.42 49.66 C 243.43 50.45 245.93 57.74 244.64 62.99 C 242.89 67.73 238.21 70.35 234.47 73.38 C 231.84 75.18 230.97 78.67 228.09 80.18 C 225.57 81.54 222.66 81.81 219.89 82.33 C 219.77 81.70 219.53 80.44 219.41 79.81 C 219.42 80.47 219.45 81.79 219.47 82.45 C 217.11 82.94 214.74 83.45 212.37 83.86 C 215.16 80.49 218.52 77.65 221.31 74.27 C 220.96 73.56 220.62 72.86 220.27 72.16 C 218.86 75.06 215.57 76.04 213.74 78.56 C 212.45 80.23 211.31 82.01 210.17 83.78 C 204.91 82.60 199.64 87.73 194.86 84.09 C 194.41 81.78 195.99 79.87 196.99 77.96 C 199.52 73.90 200.22 68.94 203.22 65.14 C 205.69 61.06 210.67 59.15 212.59 54.68 C 213.67 52.26 214.91 49.90 216.71 47.93 C 215.95 46.89 215.20 45.84 214.46 44.79 C 215.31 44.87 217.02 45.01 217.87 45.08 C 218.80 44.28 219.73 43.49 220.67 42.70 C 220.16 41.38 219.67 40.05 219.20 38.72 M 216.21 62.37 C 212.91 66.37 211.81 71.53 210.61 76.45 C 211.93 75.31 213.03 73.95 214.09 72.58 C 214.77 69.48 215.85 66.50 217.35 63.71 C 218.47 64.67 219.56 65.64 220.69 66.59 C 220.61 68.16 220.52 69.72 220.42 71.29 C 221.03 71.57 221.64 71.83 222.27 72.07 C 222.39 68.99 222.55 65.85 220.88 63.11 C 220.40 62.90 219.43 62.46 218.94 62.24 C 220.09 60.49 221.20 58.72 222.34 56.96 C 221.93 64.39 223.39 71.78 222.73 79.21 C 223.11 79.35 223.87 79.64 224.26 79.78 C 224.57 70.18 224.15 60.58 224.22 50.99 C 220.07 53.34 219.09 58.77 216.21 62.37 M 239.99 52.79 C 239.89 56.11 240.11 59.91 237.76 62.58 C 235.66 65.11 231.72 65.59 230.46 68.87 C 233.44 67.65 236.92 66.83 238.93 64.09 C 241.30 60.92 242.07 56.30 239.99 52.79 Z" />
<path fill="#FFFFFF" opacity="1.00" d=" M 43.67 63.11 C 43.64 61.19 45.65 60.42 46.85 59.30 C 49.68 62.07 52.31 65.01 54.80 68.08 C 55.68 69.48 57.35 69.56 58.82 69.73 C 61.21 72.54 64.00 75.94 67.96 76.15 C 75.03 75.06 81.49 71.76 88.18 69.40 C 92.23 68.39 96.36 67.70 100.47 66.97 C 103.92 64.61 108.12 64.02 111.85 62.25 C 119.32 59.82 127.73 60.88 134.43 64.99 C 135.33 70.81 134.52 76.55 133.21 82.22 C 126.71 81.34 122.50 75.18 115.87 74.92 C 110.38 74.38 105.98 78.47 101.09 80.27 C 94.96 82.29 88.51 83.97 82.01 83.23 C 74.94 82.59 67.63 84.16 61.87 88.43 C 59.72 90.70 56.87 88.52 55.38 86.66 C 52.02 81.37 47.71 76.75 44.37 71.45 C 42.80 68.94 43.53 65.87 43.67 63.11 M 118.97 64.56 C 119.56 64.61 120.74 64.73 121.33 64.78 C 120.85 65.82 120.39 66.86 119.93 67.91 C 119.06 68.18 117.31 68.74 116.44 69.01 C 117.95 70.00 119.73 70.13 121.49 70.13 C 121.78 67.66 123.09 65.63 124.76 63.86 C 122.82 64.08 120.90 64.33 118.97 64.56 M 106.24 67.78 C 106.25 67.96 106.28 68.32 106.29 68.50 C 109.08 68.45 111.86 68.62 114.65 68.79 C 113.84 67.93 113.01 67.09 112.16 66.27 C 110.19 66.79 108.22 67.30 106.24 67.78 M 78.55 77.50 C 84.15 76.83 89.49 74.87 95.04 73.94 C 97.29 73.55 99.40 72.63 101.42 71.62 C 93.34 70.94 85.89 74.75 78.55 77.50 M 115.69 71.47 C 115.60 71.96 115.42 72.94 115.33 73.43 C 118.38 74.21 121.44 75.07 124.60 75.33 C 122.24 72.91 118.95 71.92 115.69 71.47 Z" />
<path fill="#FFFFFF" opacity="1.00" d=" M 81.18 107.68 C 98.72 101.61 116.51 96.30 134.18 90.63 C 135.19 91.50 136.20 92.37 137.21 93.24 C 117.93 99.83 98.71 106.59 79.43 113.17 C 79.22 113.74 78.79 114.88 78.57 115.45 C 98.59 108.47 118.70 101.64 138.67 94.50 C 139.53 95.51 140.40 96.51 141.24 97.53 C 124.19 103.92 106.85 109.52 89.72 115.72 C 83.60 118.10 77.06 119.28 71.14 122.20 C 69.86 122.64 69.30 123.92 68.58 124.95 C 76.54 121.51 84.98 119.54 93.08 116.46 C 109.43 110.62 125.87 105.05 142.23 99.24 C 144.68 101.11 147.49 102.44 150.65 102.46 C 146.86 103.80 142.95 104.75 139.10 105.90 C 117.36 111.86 96.34 120.03 75.06 127.42 C 72.77 128.28 70.34 128.97 68.47 130.63 C 67.45 128.25 66.30 125.93 65.01 123.69 C 67.73 120.53 70.63 117.54 73.43 114.45 C 75.73 111.92 77.71 108.72 81.18 107.68 M 69.83 120.00 L 70.35 121.24 L 71.45 121.31 C 74.48 117.82 77.94 114.65 80.60 110.88 L 80.61 108.78 C 76.63 112.10 73.01 115.91 69.83 120.00 Z" />
</g>
<g id="#343532ff">
<path fill="#333333" opacity="1.00" d=" M 179.73 23.00 C 180.56 21.31 182.63 18.57 184.65 20.33 C 187.14 21.94 189.40 23.89 191.83 25.59 C 191.93 25.08 192.12 24.05 192.21 23.54 C 196.50 23.95 200.44 26.24 203.23 29.47 C 203.53 30.94 203.29 32.45 203.20 33.94 C 203.58 34.32 204.35 35.09 204.74 35.47 C 206.07 34.13 207.46 32.85 208.93 31.65 C 211.34 32.73 213.59 34.12 215.59 35.87 C 216.04 35.84 216.96 35.78 217.42 35.75 C 219.40 36.86 221.40 37.93 223.45 38.92 C 223.28 38.35 222.93 37.21 222.76 36.65 C 224.84 37.03 226.94 37.26 229.05 37.46 C 230.83 38.87 232.76 40.10 234.38 41.71 C 236.19 43.69 236.03 46.56 236.73 49.00 C 241.84 47.91 246.23 52.22 246.46 57.16 C 247.84 61.07 246.02 64.88 244.53 68.45 C 239.34 72.59 233.93 76.61 230.20 82.21 C 222.55 84.82 214.45 85.96 206.55 87.59 C 207.53 87.89 209.48 88.51 210.46 88.82 C 209.57 88.78 207.78 88.71 206.89 88.68 C 194.51 93.18 181.41 95.38 168.88 99.46 C 167.40 99.47 164.78 101.38 164.17 99.27 C 164.77 99.07 165.97 98.67 166.57 98.46 C 163.73 97.77 161.22 100.40 158.49 98.76 C 158.90 99.24 159.72 100.21 160.13 100.69 L 156.42 100.03 C 157.57 100.65 158.73 101.26 159.87 101.91 C 155.88 102.86 152.09 104.66 147.92 104.78 C 139.58 107.00 131.30 109.48 123.15 112.35 C 116.99 113.52 111.41 116.42 105.50 118.38 C 99.61 120.75 93.59 122.78 87.61 124.94 C 89.50 130.17 91.96 135.19 93.60 140.52 C 105.59 136.93 118.11 135.38 129.97 131.35 C 147.25 127.18 164.65 123.53 182.06 119.93 C 192.88 118.43 203.45 115.57 214.22 113.74 C 214.24 109.34 214.58 104.87 213.57 100.55 C 212.72 96.53 213.07 92.38 212.43 88.32 C 212.81 88.46 213.57 88.75 213.96 88.89 C 215.10 97.48 216.18 106.10 216.06 114.78 C 187.22 121.43 158.17 127.19 129.21 133.30 C 125.15 134.51 121.10 135.80 116.94 136.64 C 111.92 137.50 107.07 139.46 101.89 139.23 C 101.42 139.49 100.95 139.76 100.48 140.03 C 97.95 140.66 95.58 142.32 92.89 141.30 C 92.43 142.50 91.98 143.70 91.50 144.90 L 93.15 145.36 C 92.67 145.35 91.71 145.33 91.22 145.32 C 89.36 148.36 87.35 151.32 85.88 154.59 C 85.44 153.98 84.99 153.38 84.56 152.78 C 86.99 148.57 89.48 144.39 91.70 140.07 C 89.60 135.82 88.23 131.24 86.06 127.03 C 85.14 125.62 83.46 126.25 82.14 126.50 C 77.39 127.28 73.30 129.93 68.84 131.57 C 69.68 132.96 70.52 134.36 71.41 135.72 C 71.54 136.15 71.81 137.01 71.94 137.44 C 73.69 139.16 74.40 141.57 75.59 143.66 C 75.67 144.25 75.84 145.42 75.92 146.00 C 79.28 149.12 80.11 153.76 82.14 157.65 C 83.45 155.32 86.34 156.89 88.40 156.35 C 88.79 157.45 89.10 158.56 89.41 159.68 L 88.74 158.16 C 86.28 158.80 83.82 159.45 81.29 159.79 C 78.54 155.29 77.79 149.79 74.41 145.60 C 73.12 142.12 71.99 138.44 69.54 135.57 C 66.13 130.53 64.01 124.78 61.52 119.27 C 54.22 107.23 48.89 94.13 42.40 81.65 C 38.06 72.38 32.98 63.44 29.01 54.02 L 30.24 53.69 C 34.72 60.80 37.50 68.84 41.66 76.14 C 49.20 91.33 56.59 106.59 64.16 121.76 C 68.65 117.07 72.96 112.22 77.34 107.43 C 75.17 102.27 72.63 97.26 70.84 91.95 C 75.69 94.98 75.36 101.71 79.07 105.70 C 81.17 105.94 83.13 105.02 85.09 104.40 C 101.02 99.02 116.89 93.47 132.86 88.21 C 132.67 86.96 132.49 85.70 132.33 84.45 C 127.03 84.07 122.88 80.75 118.75 77.81 C 116.53 77.64 114.31 77.45 112.09 77.50 C 108.54 78.42 105.64 80.81 102.22 82.03 C 97.93 83.57 93.43 84.42 88.96 85.22 C 83.69 85.55 78.39 85.27 73.13 85.67 C 68.78 86.77 64.62 89.16 61.74 92.64 C 58.86 93.26 56.57 91.23 54.49 89.58 C 52.18 87.63 51.96 84.25 49.68 82.27 C 46.26 78.17 42.55 74.00 40.72 68.92 C 40.64 65.64 41.52 62.35 42.01 59.10 C 43.20 58.22 44.57 57.67 45.88 57.01 C 46.53 57.25 47.84 57.72 48.49 57.96 C 51.36 60.26 53.99 62.82 55.93 65.97 C 58.65 70.11 63.51 71.79 68.03 73.13 C 70.15 73.91 72.15 72.43 74.07 71.76 C 78.46 69.64 83.22 68.60 87.88 67.25 C 94.46 65.59 101.49 65.02 107.55 61.73 C 113.39 57.89 120.90 58.04 127.49 59.38 C 127.54 57.66 127.57 55.93 127.59 54.20 C 120.75 50.37 111.51 49.00 104.61 53.33 C 99.85 55.24 95.24 57.89 89.97 57.99 C 80.47 58.37 72.10 65.45 62.39 63.43 C 57.56 61.00 54.84 55.40 49.17 54.31 C 49.92 54.18 51.41 53.93 52.16 53.80 C 57.63 55.11 60.62 60.35 65.67 62.44 C 73.71 61.61 80.79 56.90 88.91 56.54 C 97.60 55.96 104.16 48.29 112.99 48.45 C 116.68 48.51 120.33 49.13 123.96 49.75 C 128.00 48.26 131.37 51.43 134.56 53.39 C 138.49 53.85 142.40 54.64 146.01 56.33 C 148.93 58.07 151.64 53.97 154.65 55.46 C 156.95 56.16 158.18 58.35 158.84 60.51 C 156.90 59.43 155.27 57.70 153.09 57.08 C 151.31 57.57 149.63 58.37 147.92 59.05 C 144.37 57.47 140.63 56.52 136.84 55.74 C 133.09 55.17 130.20 52.58 127.05 50.73 C 128.87 53.13 129.94 55.94 129.74 58.98 C 129.20 60.77 131.38 60.86 132.38 61.54 C 136.40 59.81 139.90 63.14 143.68 63.91 C 145.02 62.75 146.25 61.44 147.82 60.57 C 148.04 63.23 146.69 65.44 144.92 67.29 C 142.22 64.88 138.95 63.23 135.49 62.22 C 136.29 68.64 138.86 76.32 134.03 81.83 C 137.25 82.40 140.68 82.50 143.66 83.98 C 145.84 85.45 147.92 87.09 150.02 88.69 C 154.07 87.98 158.02 86.78 162.02 85.84 C 164.25 85.51 165.68 83.60 167.45 82.40 C 167.07 83.91 166.66 85.42 166.20 86.91 C 161.77 88.15 157.31 89.33 152.87 90.54 C 151.00 91.16 149.09 90.59 147.63 89.35 C 144.11 86.51 139.32 84.65 134.88 86.36 C 136.08 88.70 137.84 90.66 139.95 92.23 C 142.73 94.31 144.54 97.50 147.54 99.29 C 152.53 100.58 157.19 97.93 161.99 97.02 C 167.67 95.87 173.11 93.85 178.60 92.00 C 178.63 92.45 178.70 93.35 178.74 93.80 C 176.01 94.63 173.40 95.78 170.76 96.86 C 176.30 95.50 181.75 93.82 187.17 92.08 C 185.15 92.20 183.17 92.68 181.29 93.43 C 180.50 92.99 179.71 92.54 178.94 92.09 C 185.15 90.91 191.03 88.58 197.14 87.01 C 195.04 85.16 192.43 83.11 193.56 79.92 C 191.05 79.83 188.55 79.44 186.04 79.54 C 180.32 81.35 175.67 86.47 169.24 85.68 C 168.52 86.88 167.79 88.08 166.96 89.21 C 167.32 85.28 169.45 81.18 167.69 77.31 C 165.94 73.76 166.01 69.58 163.82 66.23 C 162.64 63.86 160.18 62.65 158.50 60.72 C 160.23 61.55 161.78 62.67 163.40 63.69 L 163.35 62.87 C 162.56 59.77 159.73 57.90 157.79 55.54 C 161.71 56.41 164.91 59.45 165.76 63.40 C 165.59 63.60 165.24 64.01 165.07 64.21 C 163.75 66.96 168.25 68.37 169.28 70.71 C 173.17 69.11 177.50 67.51 181.69 69.04 C 177.51 70.08 173.30 70.97 169.06 71.70 C 169.64 75.97 169.34 80.29 169.44 84.59 C 176.05 84.40 180.72 78.57 187.20 77.81 C 189.78 77.77 192.32 78.29 194.89 78.48 C 197.43 74.19 197.45 68.78 200.79 64.91 C 203.27 61.06 207.15 58.49 210.04 55.00 C 212.53 51.88 212.78 47.77 214.34 44.23 C 213.41 43.41 212.48 42.59 211.56 41.77 C 210.46 42.51 209.33 43.24 208.28 44.06 C 208.13 46.78 210.59 50.77 207.52 52.52 C 207.73 53.04 208.16 54.10 208.37 54.63 C 202.54 52.22 198.08 46.87 191.60 46.10 C 191.24 46.45 190.53 47.16 190.18 47.51 C 187.90 46.39 185.58 44.97 182.96 45.03 C 180.38 45.73 177.88 46.67 175.35 47.53 C 172.16 49.24 170.79 53.13 167.43 54.63 C 165.58 55.87 163.28 55.66 161.16 55.83 C 163.30 54.72 165.50 53.71 167.60 52.53 C 170.48 50.91 171.70 47.23 174.91 46.10 C 178.32 45.11 181.43 42.92 185.14 43.34 C 186.96 41.16 189.18 39.19 191.87 38.15 C 193.85 38.07 195.80 38.54 197.78 38.72 C 198.75 37.32 199.74 35.93 200.80 34.60 C 201.13 33.05 201.56 31.52 201.72 29.94 C 199.84 27.25 196.66 26.03 193.74 24.86 C 193.19 26.30 192.95 27.82 192.98 29.36 C 191.28 30.84 189.10 31.86 186.86 30.79 C 184.19 33.35 181.48 36.08 177.97 37.45 C 175.79 38.41 173.39 38.91 171.40 40.25 C 168.34 42.86 166.52 46.54 164.01 49.63 C 162.20 45.24 165.91 41.62 169.16 39.24 C 172.01 37.43 175.38 36.81 178.37 35.31 C 180.57 33.98 182.43 32.16 184.71 30.94 C 184.91 30.67 185.33 30.12 185.54 29.85 C 183.52 27.67 180.61 26.00 179.73 23.00 M 180.86 23.97 C 183.64 25.86 186.02 28.27 188.90 30.02 C 189.60 29.18 190.30 28.34 191.00 27.50 C 188.18 25.80 185.78 23.53 183.25 21.45 C 182.65 22.08 181.45 23.34 180.86 23.97 M 206.73 36.85 C 210.04 39.04 213.20 41.47 216.65 43.44 C 217.20 42.53 217.75 41.62 218.30 40.70 C 214.85 38.94 212.86 35.26 209.23 33.77 C 208.61 34.54 207.36 36.08 206.73 36.85 M 200.92 36.69 C 204.81 40.17 202.77 45.66 203.17 50.19 C 204.04 50.71 205.78 51.75 206.65 52.27 C 205.84 47.80 206.08 43.25 205.99 38.74 C 204.55 37.31 203.16 34.94 200.92 36.69 M 223.41 39.58 C 226.13 40.55 228.32 42.45 229.52 45.08 C 226.93 49.69 229.09 55.10 228.93 60.06 C 231.21 58.56 234.06 57.02 234.34 53.96 C 235.48 50.54 234.35 46.96 233.68 43.56 C 231.63 40.26 227.24 37.65 223.41 39.58 M 185.80 43.79 C 188.03 44.71 190.41 44.93 192.80 44.83 C 196.21 44.58 198.82 47.12 201.50 48.80 C 201.44 46.00 201.73 43.06 200.60 40.41 C 198.00 40.24 195.37 40.38 192.87 39.52 C 190.43 40.79 188.07 42.23 185.80 43.79 M 207.96 39.96 C 207.46 41.35 207.92 41.82 209.35 41.40 C 209.86 40.04 209.40 39.56 207.96 39.96 M 219.20 38.72 C 219.67 40.05 220.16 41.38 220.67 42.70 C 219.73 43.49 218.80 44.28 217.87 45.08 C 217.02 45.01 215.31 44.87 214.46 44.79 C 215.20 45.84 215.95 46.89 216.71 47.93 C 214.91 49.90 213.67 52.26 212.59 54.68 C 210.67 59.15 205.69 61.06 203.22 65.14 C 200.22 68.94 199.52 73.90 196.99 77.96 C 195.99 79.87 194.41 81.78 194.86 84.09 C 199.64 87.73 204.91 82.60 210.17 83.78 C 211.31 82.01 212.45 80.23 213.74 78.56 C 215.57 76.04 218.86 75.06 220.27 72.16 C 220.62 72.86 220.96 73.56 221.31 74.27 C 218.52 77.65 215.16 80.49 212.37 83.86 C 214.74 83.45 217.11 82.94 219.47 82.45 C 219.45 81.79 219.42 80.47 219.41 79.81 C 219.53 80.44 219.77 81.70 219.89 82.33 C 222.66 81.81 225.57 81.54 228.09 80.18 C 230.97 78.67 231.84 75.18 234.47 73.38 C 238.21 70.35 242.89 67.73 244.64 62.99 C 245.93 57.74 243.43 50.45 237.42 49.66 C 236.78 52.27 236.44 55.01 235.24 57.45 C 233.65 59.81 231.09 61.18 228.90 62.88 C 228.45 68.05 228.77 73.31 227.57 78.40 C 227.04 69.25 228.04 60.04 226.81 50.93 C 226.02 48.86 227.14 47.17 228.55 45.72 C 226.00 42.74 222.84 40.23 219.20 38.72 M 43.67 63.11 C 43.53 65.87 42.80 68.94 44.37 71.45 C 47.71 76.75 52.02 81.37 55.38 86.66 C 56.87 88.52 59.72 90.70 61.87 88.43 C 67.63 84.16 74.94 82.59 82.01 83.23 C 88.51 83.97 94.96 82.29 101.09 80.27 C 105.98 78.47 110.38 74.38 115.87 74.92 C 122.50 75.18 126.71 81.34 133.21 82.22 C 134.52 76.55 135.33 70.81 134.43 64.99 C 127.73 60.88 119.32 59.82 111.85 62.25 C 108.12 64.02 103.92 64.61 100.47 66.97 C 96.36 67.70 92.23 68.39 88.18 69.40 C 81.49 71.76 75.03 75.06 67.96 76.15 C 64.00 75.94 61.21 72.54 58.82 69.73 C 57.35 69.56 55.68 69.48 54.80 68.08 C 52.31 65.01 49.68 62.07 46.85 59.30 C 45.65 60.42 43.64 61.19 43.67 63.11 M 81.18 107.68 C 77.71 108.72 75.73 111.92 73.43 114.45 C 70.63 117.54 67.73 120.53 65.01 123.69 C 66.30 125.93 67.45 128.25 68.47 130.63 C 70.34 128.97 72.77 128.28 75.06 127.42 C 96.34 120.03 117.36 111.86 139.10 105.90 C 142.95 104.75 146.86 103.80 150.65 102.46 C 147.49 102.44 144.68 101.11 142.23 99.24 C 125.87 105.05 109.43 110.62 93.08 116.46 C 84.98 119.54 76.54 121.51 68.58 124.95 C 69.30 123.92 69.86 122.64 71.14 122.20 C 77.06 119.28 83.60 118.10 89.72 115.72 C 106.85 109.52 124.19 103.92 141.24 97.53 C 140.40 96.51 139.53 95.51 138.67 94.50 C 118.70 101.64 98.59 108.47 78.57 115.45 C 78.79 114.88 79.22 113.74 79.43 113.17 C 98.71 106.59 117.93 99.83 137.21 93.24 C 136.20 92.37 135.19 91.50 134.18 90.63 C 116.51 96.30 98.72 101.61 81.18 107.68 Z" />
<path fill="#333333" opacity="1.00" d=" M 42.14 42.91 C 44.05 42.10 45.92 40.72 48.07 40.78 C 50.63 44.55 52.94 48.62 54.32 52.98 L 52.75 53.40 C 50.48 50.09 49.37 46.11 46.87 42.93 C 40.53 46.08 34.16 49.27 28.24 53.17 C 26.50 54.21 25.30 55.86 24.16 57.49 C 35.22 81.29 46.38 105.04 57.19 128.96 C 61.66 141.38 68.37 152.87 73.08 165.19 C 74.41 164.86 75.73 164.51 77.08 164.24 C 76.13 165.16 74.88 166.15 75.39 167.64 C 110.92 160.18 146.72 154.04 182.13 146.05 C 183.73 145.66 185.34 145.36 186.96 145.04 C 203.08 141.30 219.48 138.87 235.56 135.00 C 235.23 132.02 235.06 129.04 235.01 126.05 C 235.69 125.44 236.37 124.82 237.05 124.20 C 236.86 128.62 237.60 132.99 237.70 137.40 C 210.23 143.38 182.60 148.58 155.06 154.22 C 128.25 159.77 101.38 164.99 74.58 170.56 C 73.40 169.32 72.02 168.18 71.32 166.57 C 67.73 158.89 64.05 151.25 60.47 143.56 C 57.89 138.63 57.52 132.89 54.54 128.13 C 44.80 106.73 34.82 85.44 24.89 64.13 C 23.91 61.81 22.66 59.59 22.01 57.15 C 23.19 54.80 24.06 51.75 26.73 50.70 C 31.93 48.23 37.13 45.76 42.14 42.91 Z" />
<path fill="#333333" opacity="1.00" d=" M 176.37 53.44 C 178.30 50.51 181.21 48.46 184.25 46.80 C 182.77 50.28 179.19 52.04 177.15 55.13 C 174.98 58.41 170.96 59.21 167.57 60.65 C 170.26 57.93 174.17 56.67 176.37 53.44 Z" />
<path fill="#333333" opacity="1.00" d=" M 186.93 47.46 C 188.64 49.17 190.79 51.16 190.42 53.84 C 190.04 59.17 185.81 62.89 182.98 67.05 C 183.64 64.88 184.85 62.94 186.19 61.13 C 187.38 58.79 188.77 56.53 189.56 54.01 C 189.22 51.65 187.73 49.67 186.93 47.46 Z" />
<path fill="#333333" opacity="1.00" d=" M 216.21 62.37 C 219.09 58.77 220.07 53.34 224.22 50.99 C 224.15 60.58 224.57 70.18 224.26 79.78 C 223.87 79.64 223.11 79.35 222.73 79.21 C 223.39 71.78 221.93 64.39 222.34 56.96 C 221.20 58.72 220.09 60.49 218.94 62.24 C 219.43 62.46 220.40 62.90 220.88 63.11 C 222.55 65.85 222.39 68.99 222.27 72.07 C 221.64 71.83 221.03 71.57 220.42 71.29 C 220.52 69.72 220.61 68.16 220.69 66.59 C 219.56 65.64 218.47 64.67 217.35 63.71 C 215.85 66.50 214.77 69.48 214.09 72.58 C 213.03 73.95 211.93 75.31 210.61 76.45 C 211.81 71.53 212.91 66.37 216.21 62.37 Z" />
<path fill="#333333" opacity="1.00" d=" M 196.02 51.67 C 199.95 52.87 200.65 57.74 199.38 61.14 C 198.96 61.37 198.13 61.83 197.72 62.06 C 199.40 58.46 198.20 54.70 196.02 51.67 Z" />
<path fill="#333333" opacity="1.00" d=" M 239.99 52.79 C 242.07 56.30 241.30 60.92 238.93 64.09 C 236.92 66.83 233.44 67.65 230.46 68.87 C 231.72 65.59 235.66 65.11 237.76 62.58 C 240.11 59.91 239.89 56.11 239.99 52.79 Z" />
<path fill="#333333" opacity="1.00" d=" M 105.51 57.66 C 106.66 54.37 110.51 54.74 112.90 56.35 C 110.46 56.91 107.99 57.35 105.51 57.66 Z" />
<path fill="#333333" opacity="1.00" d=" M 190.52 60.56 C 193.06 61.62 195.16 63.59 196.43 66.03 C 193.95 64.86 191.77 63.05 190.52 60.56 Z" />
<path fill="#333333" opacity="1.00" d=" M 118.97 64.56 C 120.90 64.33 122.82 64.08 124.76 63.86 C 123.09 65.63 121.78 67.66 121.49 70.13 C 119.73 70.13 117.95 70.00 116.44 69.01 C 117.31 68.74 119.06 68.18 119.93 67.91 C 120.39 66.86 120.85 65.82 121.33 64.78 C 120.74 64.73 119.56 64.61 118.97 64.56 Z" />
<path fill="#333333" opacity="1.00" d=" M 187.13 63.64 C 189.61 64.23 191.41 66.08 193.15 67.82 C 190.31 68.00 188.72 65.59 187.13 63.64 Z" />
<path fill="#333333" opacity="1.00" d=" M 106.24 67.78 C 108.22 67.30 110.19 66.79 112.16 66.27 C 113.01 67.09 113.84 67.93 114.65 68.79 C 111.86 68.62 109.08 68.45 106.29 68.50 C 106.28 68.32 106.25 67.96 106.24 67.78 Z" />
<path fill="#333333" opacity="1.00" d=" M 181.83 68.11 C 183.86 69.36 185.82 70.72 187.88 71.92 C 187.48 72.13 186.66 72.55 186.25 72.76 C 184.26 71.79 182.44 70.33 181.83 68.11 Z" />
<path fill="#333333" opacity="1.00" d=" M 78.55 77.50 C 85.89 74.75 93.34 70.94 101.42 71.62 C 99.40 72.63 97.29 73.55 95.04 73.94 C 89.49 74.87 84.15 76.83 78.55 77.50 Z" />
<path fill="#333333" opacity="1.00" d=" M 115.69 71.47 C 118.95 71.92 122.24 72.91 124.60 75.33 C 121.44 75.07 118.38 74.21 115.33 73.43 C 115.42 72.94 115.60 71.96 115.69 71.47 Z" />
<path fill="#333333" opacity="1.00" d=" M 233.22 89.02 C 233.29 85.50 231.62 81.34 234.47 78.49 C 235.23 85.96 235.21 93.47 235.63 100.96 C 236.00 108.22 236.82 115.45 236.94 122.72 C 236.29 123.47 235.64 124.22 235.00 124.98 C 234.49 112.99 233.66 101.02 233.22 89.02 Z" />
<path fill="#333333" opacity="1.00" d=" M 226.15 85.75 C 227.75 89.21 227.50 93.15 227.87 96.86 C 228.24 108.42 230.42 119.94 230.14 131.50 C 183.81 140.12 137.52 148.95 91.23 157.80 C 90.51 157.20 89.79 156.60 89.06 156.01 C 135.51 147.67 181.81 138.50 228.15 129.55 C 227.79 117.95 226.25 106.44 225.80 94.85 C 225.52 91.81 224.70 88.64 226.15 85.75 Z" />
<path fill="#333333" opacity="1.00" d=" M 218.97 88.63 C 220.61 95.33 221.08 102.25 222.08 109.06 C 222.21 112.00 223.51 114.90 222.82 117.85 C 221.17 115.20 220.63 112.16 220.60 109.10 C 219.29 102.37 218.84 95.48 218.97 88.63 Z" />
<path fill="#333333" opacity="1.00" d=" M 160.27 100.14 C 163.21 98.76 160.51 103.06 160.27 100.14 Z" />
<path fill="#333333" opacity="1.00" d=" M 69.83 120.00 C 73.01 115.91 76.63 112.10 80.61 108.78 L 80.60 110.88 C 77.94 114.65 74.48 117.82 71.45 121.31 L 70.35 121.24 L 69.83 120.00 Z" />
<path fill="#333333" opacity="1.00" d=" M 176.04 127.93 C 190.22 125.62 204.21 122.27 218.17 118.90 C 220.73 120.28 224.06 121.04 225.36 123.95 C 223.28 123.28 221.32 122.34 219.37 121.38 C 203.25 124.54 187.21 128.15 171.15 131.61 C 170.27 131.12 170.02 130.45 170.40 129.59 C 172.01 128.41 174.16 128.42 176.04 127.93 Z" />
<path fill="#333333" opacity="1.00" d=" M 165.08 130.15 C 167.05 128.96 168.61 130.87 169.96 131.98 C 151.62 135.96 133.33 140.16 115.03 144.31 C 109.13 145.57 103.30 147.32 97.26 147.71 C 99.68 143.80 104.83 144.06 108.80 143.23 C 116.48 141.37 124.26 139.99 131.91 138.03 C 137.63 135.46 144.02 135.93 149.87 133.88 C 155.01 132.94 160.08 131.67 165.08 130.15 Z" />
</g>
</svg>
