<?xml version="1.0" encoding="UTF-8" ?>
<!DOCTYPE svg PUBLIC "-//W3C//DTD SVG 1.1//EN" "http://www.w3.org/Graphics/SVG/1.1/DTD/svg11.dtd">
<svg width="216pt" height="275pt" viewBox="0 0 216 275" version="1.1" xmlns="http://www.w3.org/2000/svg">
<g id="#ffffffff">
<path fill="#FFFFFF" opacity="1.00" d=" M 0.00 0.00 L 154.34 0.00 C 154.43 36.65 154.23 73.31 154.53 109.96 C 154.39 113.66 155.32 117.85 152.66 120.90 C 152.42 129.27 152.98 137.64 152.65 146.02 C 152.68 151.56 152.23 157.10 152.65 162.64 C 153.66 164.24 154.74 165.94 154.54 167.94 C 154.63 192.32 154.55 216.70 154.72 241.08 C 154.61 242.87 155.67 244.37 156.54 245.83 C 157.85 236.26 156.55 226.59 157.08 216.98 C 156.97 199.77 156.68 182.55 156.75 165.34 C 157.94 165.76 159.13 166.17 160.32 166.60 C 160.22 185.74 160.41 204.88 160.28 224.02 C 159.91 231.01 159.98 238.01 159.98 245.01 C 160.45 245.00 161.41 244.97 161.88 244.95 C 162.07 222.64 162.21 200.33 162.04 178.01 C 162.02 174.10 161.60 170.12 162.41 166.27 C 163.15 165.65 163.93 165.08 164.73 164.54 C 165.30 191.55 164.59 218.60 165.31 245.61 C 167.98 244.41 167.14 241.32 167.31 239.01 C 167.12 211.01 167.44 183.01 167.20 155.02 C 168.71 157.08 170.11 159.38 172.39 160.69 C 175.72 162.92 179.86 161.76 183.52 161.24 C 186.68 160.11 188.58 156.97 190.22 154.22 C 193.37 148.16 194.52 141.27 194.73 134.51 C 199.93 133.54 205.36 133.15 210.27 131.10 C 210.02 129.26 209.53 127.48 209.06 125.69 C 204.03 126.39 199.03 127.40 194.10 128.65 C 192.76 121.88 190.86 114.27 184.78 110.17 C 181.27 107.82 176.89 108.93 173.17 110.09 C 169.83 111.27 168.09 114.58 166.16 117.29 C 167.62 112.32 167.29 107.14 167.27 102.03 C 167.25 68.02 167.28 34.01 167.26 0.00 L 216.00 0.00 L 216.00 275.00 L 0.00 275.00 L 0.00 173.38 C 2.33 172.95 4.65 172.49 6.94 171.89 C 7.34 178.82 9.58 186.37 15.22 190.83 C 18.55 193.67 23.12 192.67 27.04 192.15 C 30.57 191.03 32.75 187.59 34.21 184.38 C 34.45 184.23 34.94 183.94 35.18 183.79 C 37.47 177.56 38.20 171.00 38.76 164.44 C 40.06 166.75 39.93 169.42 40.02 171.97 C 40.17 176.49 40.31 181.01 40.38 185.53 C 38.56 185.48 36.75 185.67 35.19 186.68 C 35.43 189.12 35.54 191.57 35.55 194.02 C 35.62 217.69 35.56 241.36 35.72 265.03 C 35.62 266.83 36.66 268.36 37.52 269.85 C 38.86 260.29 37.55 250.63 38.07 241.03 C 37.95 223.13 37.71 205.24 37.71 187.35 C 38.91 187.76 40.12 188.17 41.32 188.59 C 41.22 208.38 41.41 228.17 41.28 247.96 C 40.92 254.97 40.97 261.99 40.98 269.01 C 41.45 269.00 42.40 268.98 42.88 268.97 C 42.95 262.65 42.66 256.32 43.10 250.01 C 43.25 229.27 42.83 208.51 43.17 187.77 C 43.90 187.62 45.37 187.32 46.10 187.17 C 45.80 214.62 45.83 242.10 46.28 269.55 C 47.63 268.82 48.56 267.74 48.26 266.11 C 48.29 232.45 48.19 198.79 48.45 165.12 C 47.77 165.09 46.43 165.01 45.76 164.98 C 45.70 171.59 45.78 178.19 45.72 184.80 C 44.88 185.16 43.20 185.87 42.36 186.22 C 41.73 179.24 41.60 172.24 41.44 165.24 C 56.46 162.85 71.22 159.08 86.19 156.43 C 90.29 157.87 94.76 156.95 99.02 156.96 C 101.18 157.02 102.22 154.91 103.56 153.60 C 104.87 152.76 106.70 152.93 107.79 151.72 C 106.91 150.14 101.63 151.71 103.30 148.50 C 105.43 147.75 107.76 147.39 110.00 147.13 C 111.68 147.83 110.26 150.04 110.39 151.38 C 110.47 152.35 110.50 153.34 110.75 154.30 C 113.00 155.77 115.66 154.90 118.05 154.36 C 120.62 154.23 123.67 154.67 125.65 152.64 C 126.26 151.34 126.32 149.87 126.60 148.48 C 134.10 147.10 141.54 145.41 149.05 144.05 C 149.92 143.61 152.88 143.85 151.64 142.22 C 151.39 142.13 150.89 141.96 150.64 141.87 C 142.39 143.45 134.18 145.27 125.91 146.77 C 126.07 145.98 126.37 144.42 126.52 143.64 C 134.98 141.62 143.57 140.19 152.02 138.18 C 151.96 137.91 151.85 137.39 151.79 137.12 C 143.54 137.58 135.43 140.10 127.25 141.45 C 127.33 137.45 125.71 133.78 124.89 129.95 C 124.80 124.30 125.77 118.50 124.07 113.00 C 122.84 109.07 122.02 104.91 119.67 101.45 C 119.93 96.26 120.78 90.86 119.11 85.82 C 117.27 81.16 119.15 76.01 117.46 71.31 C 116.15 67.85 113.23 65.03 109.77 63.72 C 106.49 62.45 103.49 60.53 100.11 59.48 C 101.45 61.39 103.32 62.79 105.23 64.09 C 104.97 64.53 104.45 65.43 104.19 65.87 C 106.08 65.74 108.18 65.95 109.50 64.26 C 111.54 66.11 113.76 67.89 115.19 70.29 C 116.95 75.61 115.53 81.43 117.21 86.78 C 118.58 91.71 118.01 96.87 118.34 101.91 C 119.67 106.66 121.55 111.26 122.91 116.01 C 123.95 122.32 122.76 128.83 124.34 135.08 C 125.54 139.65 124.52 144.36 124.03 148.95 C 124.48 148.80 125.37 148.50 125.82 148.35 C 125.09 149.46 124.45 150.64 123.59 151.67 C 120.39 152.64 117.02 152.80 113.76 153.51 C 113.39 153.03 112.64 152.09 112.27 151.61 C 112.83 149.77 113.35 147.91 113.81 146.04 C 112.72 145.47 111.63 144.90 110.53 144.34 C 107.53 145.68 104.28 146.27 101.10 147.05 C 100.72 149.43 102.46 153.17 99.44 154.37 C 96.12 155.94 92.35 154.95 88.84 155.03 C 87.84 154.04 86.83 153.04 85.82 152.06 C 85.75 148.17 88.51 145.32 90.14 142.05 C 89.52 139.20 87.95 136.70 86.88 134.01 C 83.91 130.94 81.12 127.71 78.66 124.22 C 76.00 120.54 75.74 115.83 74.52 111.60 C 70.50 108.56 68.17 103.97 64.44 100.65 C 60.56 96.86 61.22 90.96 59.91 86.11 C 58.80 81.83 57.73 76.73 60.77 72.97 C 63.24 70.36 66.04 68.08 68.47 65.43 C 70.67 62.97 73.95 62.10 76.66 60.39 C 77.96 57.16 77.46 53.51 77.72 50.10 C 79.55 52.38 80.89 55.01 82.82 57.21 C 86.32 60.21 91.18 60.35 95.53 60.90 C 97.62 57.73 97.85 53.93 98.77 50.37 C 100.46 44.93 98.52 39.47 97.50 34.13 C 96.88 30.19 93.00 27.31 89.11 27.29 C 84.05 26.76 77.93 27.22 74.82 31.86 C 71.59 36.26 73.47 41.88 74.01 46.80 C 74.92 47.83 75.83 48.87 76.74 49.91 C 76.58 53.01 76.44 56.10 76.20 59.19 C 70.21 60.37 66.65 65.63 61.96 68.99 C 57.20 72.82 54.40 79.95 57.22 85.72 C 58.82 88.93 59.15 92.51 60.04 95.93 C 60.81 99.09 63.20 101.41 65.19 103.84 C 68.45 107.79 70.48 112.57 73.65 116.58 C 74.06 118.15 74.47 119.72 74.89 121.30 C 73.41 123.87 71.00 126.16 70.66 129.23 C 70.82 133.15 72.59 136.97 71.81 140.96 C 71.09 144.90 69.89 148.75 69.68 152.78 C 62.58 154.25 55.42 155.45 48.35 157.03 C 48.16 107.28 48.39 57.52 48.18 7.77 C 47.66 8.04 46.63 8.57 46.12 8.84 C 45.53 13.88 45.75 18.97 45.66 24.04 C 45.46 51.05 45.76 78.05 45.61 105.06 C 46.18 117.26 45.92 129.48 45.85 141.69 C 45.01 141.93 43.34 142.40 42.50 142.64 C 42.72 135.06 43.37 127.46 42.64 119.88 C 42.25 116.27 42.28 112.64 42.56 109.03 C 43.14 101.36 42.86 93.68 42.77 86.00 C 42.78 67.33 42.88 48.65 42.76 29.98 C 42.67 23.14 42.57 16.29 41.80 9.49 C 40.51 53.56 41.94 97.66 41.13 141.73 C 40.71 142.46 38.98 142.97 39.50 144.13 C 40.55 148.83 40.16 153.65 40.19 158.41 C 39.69 158.71 38.68 159.30 38.18 159.59 C 37.24 155.99 36.24 152.40 35.24 148.82 C 32.33 145.70 30.62 140.92 26.07 139.82 C 21.69 138.91 16.48 139.91 13.50 143.50 C 7.99 149.41 6.73 157.88 6.37 165.65 C 4.24 165.94 2.12 166.28 0.01 166.68 L 0.00 165.92 L 0.00 0.00 M 35.31 13.96 C 35.42 55.31 35.27 96.65 35.51 138.00 C 35.87 140.76 33.06 142.60 33.34 145.39 C 33.96 145.86 35.19 146.81 35.80 147.28 C 35.82 146.36 35.85 144.51 35.87 143.59 C 36.92 143.16 38.39 142.66 37.92 141.19 C 37.44 135.16 37.79 129.09 37.47 123.05 C 37.39 89.70 37.33 56.35 37.27 23.00 C 37.23 18.39 37.38 13.78 37.04 9.18 C 34.93 9.96 35.46 12.25 35.31 13.96 M 79.95 57.89 C 80.62 59.85 81.34 61.91 83.07 63.20 C 82.98 60.96 81.47 59.35 79.95 57.89 M 76.63 67.93 C 76.56 68.33 76.40 69.14 76.32 69.55 C 78.58 69.18 80.79 68.61 83.04 68.23 C 86.92 67.33 90.78 71.19 94.36 68.48 C 92.02 67.98 89.73 67.30 87.39 66.86 C 83.76 66.25 80.18 67.34 76.63 67.93 M 67.46 69.30 C 69.73 68.90 71.55 70.01 73.05 71.57 C 74.09 71.09 74.43 69.93 74.90 68.99 C 73.04 66.86 69.40 67.53 67.46 69.30 M 105.73 69.45 C 108.24 74.06 110.86 79.41 108.54 84.68 C 105.09 85.13 101.51 85.67 98.11 84.65 C 98.17 84.84 98.30 85.24 98.37 85.43 C 101.66 87.99 105.47 85.82 109.17 86.16 C 111.51 85.82 111.11 82.76 111.33 80.99 C 111.86 76.51 109.47 71.86 105.73 69.45 M 70.36 81.95 C 72.43 85.81 73.17 90.42 76.42 93.57 C 78.82 95.88 80.41 98.82 81.27 102.03 C 79.76 101.47 78.23 100.97 76.64 100.72 C 79.63 103.88 83.60 106.13 85.82 109.99 C 87.97 113.96 90.69 117.71 91.82 122.14 C 93.01 126.33 95.32 130.10 96.61 134.25 C 97.24 136.92 97.41 139.67 98.07 142.34 C 99.94 142.63 100.84 143.65 100.80 145.41 C 103.75 144.95 106.67 144.05 109.13 142.29 C 106.70 142.07 104.30 142.66 102.07 143.57 C 100.93 141.86 99.83 140.12 98.73 138.39 C 102.10 139.49 105.19 136.93 108.29 135.95 C 108.03 134.91 107.95 133.85 108.08 132.77 C 104.99 132.81 101.97 133.45 98.93 133.90 C 98.18 132.72 97.56 131.46 96.90 130.24 C 100.00 129.76 103.10 129.10 106.01 127.90 C 107.43 126.82 108.33 125.22 109.47 123.89 C 110.47 125.28 111.49 126.68 112.49 128.08 C 111.92 130.06 111.12 132.00 110.93 134.06 C 111.54 135.95 112.45 137.72 113.15 139.57 C 112.06 140.93 108.17 142.00 110.05 144.12 C 112.75 143.73 114.83 141.40 115.77 138.96 C 116.59 135.99 115.69 132.92 115.14 129.97 C 114.57 126.27 111.52 123.61 110.67 120.01 C 109.39 116.10 111.01 112.02 110.45 108.04 C 109.83 104.13 113.13 100.90 112.77 97.02 C 112.30 93.78 111.41 90.63 110.90 87.40 C 110.72 87.35 110.35 87.24 110.17 87.19 C 108.65 90.35 111.31 93.63 111.01 96.93 C 111.51 100.90 108.83 104.12 107.07 107.40 C 106.37 107.30 104.97 107.09 104.27 106.98 C 104.04 104.76 103.03 102.80 101.84 100.96 C 101.73 103.37 102.38 106.07 100.84 108.17 C 98.91 109.31 96.45 108.25 94.43 109.26 C 91.99 110.58 89.39 108.93 86.92 108.58 C 87.48 108.12 88.59 107.19 89.14 106.73 C 89.11 106.30 89.03 105.42 88.99 104.99 C 88.19 105.65 87.39 106.32 86.60 106.99 C 85.49 105.82 84.36 104.67 83.20 103.55 C 82.32 100.11 82.22 96.15 79.38 93.59 C 82.15 92.59 85.26 92.41 87.74 90.69 C 89.29 89.60 91.05 88.88 92.83 88.27 C 93.42 88.85 94.02 89.44 94.60 90.03 C 92.75 92.83 90.18 95.07 88.44 97.93 C 90.04 97.05 91.58 96.07 93.13 95.10 C 94.10 92.92 95.60 91.08 97.66 89.86 C 96.52 89.35 95.40 88.82 94.30 88.25 C 95.40 87.05 97.14 85.87 97.01 84.00 C 97.03 80.87 97.87 76.35 94.24 74.88 C 94.69 77.08 95.39 79.24 96.52 81.19 C 96.01 82.78 95.47 84.37 94.95 85.96 C 91.67 86.88 88.35 87.82 85.79 90.20 C 83.98 92.04 81.39 91.75 79.23 90.71 C 79.14 91.21 78.96 92.21 78.87 92.71 C 77.04 90.59 75.06 88.49 74.06 85.82 C 72.10 82.30 74.12 78.41 74.41 74.74 C 71.85 76.42 72.79 80.24 70.36 81.95 M 99.08 90.87 C 100.45 92.22 102.07 94.52 100.62 96.35 C 97.93 97.41 95.34 98.69 92.68 99.82 C 92.02 100.66 91.37 101.51 90.73 102.37 C 88.85 101.86 87.19 100.85 85.74 99.55 C 84.85 102.71 88.71 103.37 90.93 103.90 C 92.25 102.41 93.79 101.14 95.79 100.72 C 96.17 100.36 96.92 99.65 97.30 99.29 C 98.97 98.90 100.58 98.30 102.03 97.36 C 104.85 97.47 107.63 98.01 110.34 98.78 C 109.16 95.53 105.48 95.86 102.67 95.78 C 102.14 94.44 101.62 93.10 101.10 91.77 C 101.89 91.07 102.67 90.37 103.46 89.67 C 104.67 90.09 105.89 90.48 107.12 90.84 C 106.09 89.90 105.02 89.02 103.95 88.13 C 102.40 89.17 101.02 90.63 99.08 90.87 M 62.74 94.96 C 64.60 96.19 66.93 96.96 68.13 98.97 C 69.80 101.38 70.77 104.39 73.23 106.16 C 73.71 106.00 74.66 105.67 75.14 105.50 C 71.47 103.68 71.05 99.25 68.44 96.47 C 67.03 94.80 64.71 94.94 62.74 94.96 M 113.87 158.13 C 114.66 157.81 116.23 157.16 117.02 156.84 C 117.13 161.18 117.38 165.51 117.55 169.85 C 117.06 169.75 116.09 169.57 115.60 169.47 C 115.04 171.78 114.64 174.33 112.87 176.08 C 109.72 176.71 108.76 172.81 107.25 170.81 C 107.78 173.21 108.15 176.13 110.37 177.62 C 113.78 178.60 115.67 174.72 116.77 172.21 C 119.78 175.51 118.80 179.80 117.69 183.63 C 117.98 187.96 116.32 192.26 117.62 196.52 C 119.79 204.67 116.96 213.26 119.88 221.28 C 119.81 221.65 119.67 222.39 119.59 222.76 C 123.43 226.07 126.82 229.82 130.04 233.71 C 133.02 237.25 138.76 235.74 141.06 240.00 C 139.32 240.89 137.69 242.00 135.90 242.80 C 133.28 243.18 130.64 242.39 128.01 242.51 C 125.43 241.38 122.93 239.68 120.00 239.74 C 116.33 239.63 112.50 240.67 109.01 239.09 C 108.93 234.35 108.99 229.48 110.88 225.03 C 110.91 220.82 111.18 216.58 110.52 212.40 C 110.03 209.68 108.22 207.47 107.30 204.90 C 106.14 199.62 105.47 194.17 106.23 188.78 C 106.65 189.61 107.50 191.27 107.92 192.11 C 110.64 189.20 107.78 185.81 106.57 182.95 C 104.77 179.61 106.09 175.43 103.93 172.26 C 101.59 168.81 100.12 164.33 96.08 162.46 L 96.34 160.01 C 100.62 163.71 106.85 163.28 111.34 160.23 C 111.98 157.87 108.91 159.66 107.86 159.98 C 104.29 161.89 100.37 160.21 96.77 159.35 C 94.25 157.65 94.40 161.08 93.54 162.59 C 91.38 164.88 88.04 165.34 85.09 165.89 C 81.10 166.67 77.58 164.32 74.04 162.91 C 74.04 162.02 74.04 160.23 74.04 159.34 C 72.70 159.72 71.60 160.52 70.64 161.49 C 70.02 161.40 68.77 161.22 68.15 161.13 C 67.30 163.20 70.59 164.94 72.04 163.24 C 70.68 168.75 73.26 174.56 71.04 179.90 C 69.29 184.56 69.14 189.58 68.73 194.48 C 66.74 201.43 62.95 208.54 64.93 215.94 C 66.79 223.83 69.72 232.12 67.03 240.20 C 67.57 241.86 68.13 243.51 68.68 245.17 C 67.60 248.79 70.56 251.71 71.06 255.13 C 70.77 263.75 83.00 267.00 88.90 262.28 C 90.24 261.88 91.99 262.19 93.01 261.05 C 94.12 259.83 93.44 258.09 93.54 256.62 C 91.80 254.28 90.05 251.94 87.93 249.93 C 85.68 246.75 84.11 243.15 81.93 239.92 C 79.33 234.28 79.83 227.82 80.51 221.81 C 80.89 217.67 83.52 214.11 83.64 209.92 C 83.84 206.27 83.36 202.62 83.48 198.96 C 83.91 194.12 86.28 189.75 87.36 185.05 C 88.27 182.36 90.48 180.34 91.50 177.70 C 92.88 173.88 93.27 169.81 93.32 165.78 C 94.23 164.86 95.15 163.95 96.06 163.03 C 97.46 166.16 99.28 169.08 101.02 172.03 C 102.82 175.00 101.59 178.81 103.22 181.86 C 104.06 183.84 105.65 185.81 104.84 188.09 C 103.91 192.63 103.51 197.30 103.68 201.92 C 105.03 206.44 108.49 210.14 108.97 214.96 C 110.80 223.23 105.78 231.00 106.88 239.29 C 108.46 240.24 110.02 241.42 111.89 241.69 C 114.63 242.01 117.33 240.81 120.06 241.25 C 122.56 241.88 124.67 243.52 127.17 244.15 C 129.51 244.37 131.83 244.68 134.17 244.94 C 137.49 243.71 141.62 242.84 143.03 239.13 C 141.93 237.83 140.92 236.44 139.65 235.31 C 137.46 234.47 134.91 234.57 132.98 233.10 C 129.60 230.84 127.72 227.03 124.43 224.67 C 123.56 223.81 122.13 223.31 121.89 221.97 C 119.55 214.16 121.06 205.89 120.08 197.91 C 118.75 191.67 118.74 185.08 120.27 178.88 C 120.85 175.84 118.67 173.14 118.82 170.13 C 119.07 165.44 118.60 160.77 117.94 156.13 L 120.10 155.06 C 117.42 154.60 114.88 155.21 113.87 158.13 M 114.60 234.20 C 114.19 232.74 113.70 231.30 113.20 229.87 C 113.28 228.55 113.34 227.22 113.35 225.90 C 110.77 228.11 111.68 232.69 114.60 234.20 Z" />
<path fill="#FFFFFF" opacity="1.00" d=" M 156.14 0.00 L 160.42 0.00 C 159.93 40.35 160.76 80.71 160.12 121.05 C 158.94 120.51 157.77 119.96 156.59 119.41 C 156.33 79.61 156.50 39.80 156.14 0.00 Z" />
<path fill="#FFFFFF" opacity="1.00" d=" M 161.67 0.00 L 164.67 0.00 C 164.46 26.98 164.77 53.97 164.60 80.95 C 165.10 90.63 164.95 100.33 164.89 110.02 C 164.84 113.07 165.21 116.10 165.87 119.08 C 164.42 119.64 162.97 120.19 161.53 120.74 C 161.51 112.47 162.46 104.19 161.65 95.94 C 161.26 92.33 161.27 88.69 161.56 85.08 C 162.29 75.37 161.65 65.65 161.78 55.93 C 161.78 37.29 161.93 18.64 161.67 0.00 Z" />
<path fill="#FFFFFF" opacity="1.00" d=" M 77.85 31.78 C 81.43 28.44 86.59 28.53 91.15 28.60 C 93.88 30.66 96.58 33.21 96.64 36.90 C 98.61 43.62 98.35 50.95 95.64 57.43 C 94.96 57.77 93.60 58.43 92.93 58.76 C 90.00 57.94 87.04 57.15 84.33 55.76 C 82.31 54.56 81.50 52.20 80.67 50.14 C 79.03 49.09 77.42 47.99 75.83 46.86 C 76.18 45.21 76.60 43.57 77.05 41.94 C 76.45 42.06 75.25 42.31 74.66 42.43 C 74.27 38.67 74.73 34.33 77.85 31.78 Z" />
<path fill="#FFFFFF" opacity="1.00" d=" M 105.89 109.44 C 106.64 108.89 107.39 108.34 108.14 107.79 C 108.25 110.60 108.22 113.43 107.97 116.24 C 108.23 117.01 108.74 118.55 109.00 119.31 C 105.51 123.07 99.72 122.50 95.18 124.18 L 94.33 125.93 C 93.98 124.49 93.57 123.08 93.15 121.67 C 94.06 121.93 95.89 122.45 96.80 122.71 C 95.53 121.16 93.89 119.98 92.61 118.46 C 90.77 115.56 89.72 112.25 88.26 109.15 C 89.26 109.84 90.20 110.61 91.07 111.46 C 93.46 112.42 95.54 110.32 97.94 110.42 C 99.90 110.47 101.52 109.40 103.01 108.27 C 103.97 108.65 104.93 109.05 105.89 109.44 M 91.34 113.90 C 91.78 114.28 91.78 114.28 91.34 113.90 M 102.25 114.36 C 100.92 114.61 100.10 116.54 101.06 117.57 C 102.67 118.31 104.20 114.62 102.25 114.36 Z" />
<path fill="#FFFFFF" opacity="1.00" d=" M 177.06 110.74 C 181.42 109.11 185.38 112.72 187.88 115.92 C 193.21 124.49 193.96 135.35 191.83 145.05 C 190.57 150.45 188.26 156.51 182.94 159.07 C 178.65 160.23 173.62 160.15 170.49 156.51 C 165.75 152.37 167.46 145.74 167.18 140.23 C 170.13 138.78 175.79 140.40 176.31 136.01 C 176.02 134.68 175.59 133.39 175.19 132.10 C 172.60 132.65 169.98 133.04 167.38 133.57 C 167.16 128.70 167.29 123.82 167.04 118.96 C 168.96 114.93 172.19 110.84 177.06 110.74 M 178.59 111.61 C 179.08 114.59 181.79 116.40 182.93 119.09 C 186.73 127.12 186.89 136.42 185.47 145.04 C 184.74 149.86 181.99 153.91 179.91 158.19 C 182.00 157.24 183.59 155.50 184.41 153.36 C 188.93 143.05 189.04 131.05 185.38 120.47 C 184.03 116.98 182.27 113.16 178.59 111.61 Z" />
<path fill="#FFFFFF" opacity="1.00" d=" M 155.21 121.13 C 156.51 121.71 157.84 122.23 159.09 122.94 C 159.51 129.61 158.91 136.29 158.91 142.97 C 158.76 149.97 159.45 156.96 159.34 163.97 C 157.96 163.65 156.58 163.31 155.21 162.97 C 155.11 149.03 155.02 135.08 155.21 121.13 Z" />
<path fill="#FFFFFF" opacity="1.00" d=" M 160.69 124.41 C 160.23 122.05 163.26 122.53 164.71 121.93 C 164.82 135.55 164.70 149.17 164.73 162.78 C 163.89 163.13 162.20 163.84 161.36 164.19 C 160.11 150.97 160.74 137.67 160.69 124.41 Z" />
<path fill="#FFFFFF" opacity="1.00" d=" M 94.82 126.27 C 99.85 125.96 104.56 124.00 109.41 122.79 C 107.29 127.87 100.62 126.85 96.29 128.68 C 95.80 127.88 95.31 127.07 94.82 126.27 Z" />
<path fill="#FFFFFF" opacity="1.00" d=" M 73.69 124.24 C 74.40 124.28 75.81 124.35 76.52 124.39 C 77.30 125.57 78.13 126.73 78.96 127.90 C 76.93 129.38 76.53 131.79 76.46 134.15 C 76.87 134.26 77.68 134.48 78.09 134.59 C 78.21 132.38 78.60 130.19 79.15 128.05 C 80.48 130.00 81.89 131.90 83.58 133.55 C 80.85 135.26 77.37 136.22 75.59 139.10 C 78.81 138.51 81.57 136.67 84.21 134.85 C 85.41 137.15 86.72 139.46 87.26 142.02 C 88.04 145.21 83.53 146.59 84.34 149.93 C 79.98 150.83 75.61 151.62 71.25 152.53 C 71.85 149.60 72.70 146.74 73.47 143.85 C 74.11 139.54 73.69 135.11 72.64 130.89 C 72.00 128.62 73.17 126.41 73.69 124.24 Z" />
<path fill="#FFFFFF" opacity="1.00" d=" M 194.20 129.60 C 198.74 129.39 203.13 128.15 207.56 127.22 C 208.06 128.14 208.57 129.05 209.09 129.97 C 204.47 131.88 199.24 131.68 194.56 133.50 C 194.47 132.53 194.29 130.57 194.20 129.60 Z" />
<path fill="#FFFFFF" opacity="1.00" d=" M 113.41 129.73 C 114.02 132.58 114.53 135.46 114.93 138.35 C 113.53 135.67 112.08 132.77 113.41 129.73 Z" />
<path fill="#FFFFFF" opacity="1.00" d=" M 167.20 135.33 C 169.53 134.86 171.85 134.35 174.19 133.89 C 174.54 134.79 174.80 135.72 174.97 136.67 C 172.44 137.53 169.79 137.94 167.16 138.35 C 167.17 137.59 167.19 136.09 167.20 135.33 Z" />
<path fill="#FFFFFF" opacity="1.00" d=" M 98.70 135.38 C 101.16 135.07 103.65 134.57 106.12 135.11 C 103.88 136.07 101.62 137.03 99.25 137.61 C 99.11 137.06 98.84 135.94 98.70 135.38 Z" />
<path fill="#FFFFFF" opacity="1.00" d=" M 14.48 144.60 C 16.90 141.81 20.76 141.71 24.13 141.07 C 30.13 143.22 33.77 149.15 35.24 155.11 C 38.23 164.27 37.10 174.39 33.18 183.08 C 31.76 185.73 29.94 188.63 27.02 189.75 C 23.19 190.08 18.61 191.52 15.46 188.47 C 10.39 184.69 9.83 178.01 7.51 172.63 C 11.44 170.48 16.13 170.83 20.26 169.20 C 20.13 167.05 19.76 164.93 18.98 162.91 C 15.06 163.75 11.12 164.48 7.18 165.22 C 8.69 158.13 9.02 150.03 14.48 144.60 M 21.94 143.09 C 24.54 146.78 27.51 150.38 28.52 154.91 C 31.50 166.31 30.61 179.52 23.23 189.13 C 27.09 188.67 28.10 184.35 29.39 181.34 C 32.63 171.09 32.55 159.57 28.35 149.61 C 26.95 146.90 25.54 143.18 21.94 143.09 Z" />
<path fill="#FFFFFF" opacity="1.00" d=" M 41.75 144.70 C 42.75 144.54 44.74 144.23 45.74 144.08 C 45.75 148.60 45.76 153.13 45.80 157.65 C 44.40 157.82 43.01 157.99 41.61 158.16 C 41.67 153.67 41.59 149.18 41.75 144.70 Z" />
<path fill="#FFFFFF" opacity="1.00" d=" M 41.59 160.45 C 55.97 157.21 70.47 154.55 84.96 151.83 C 84.97 152.55 84.99 153.99 85.00 154.71 C 71.54 157.02 58.28 160.27 44.85 162.72 C 42.54 163.10 40.25 163.61 38.09 164.56 C 38.11 163.28 38.11 162.00 38.09 160.72 C 39.26 160.68 40.43 160.59 41.59 160.45 Z" />
<path fill="#FFFFFF" opacity="1.00" d=" M 0.00 168.51 C 5.94 167.61 11.77 165.92 17.75 165.33 C 18.24 165.81 19.21 166.78 19.69 167.26 C 13.26 169.17 6.61 170.27 0.00 171.39 L 0.00 168.51 Z" />
<path fill="#FFFFFF" opacity="1.00" d=" M 73.01 164.71 C 75.68 165.65 78.15 167.11 80.87 167.89 C 84.67 168.40 88.41 167.16 92.11 166.47 C 91.43 171.15 90.77 176.02 88.17 180.09 C 84.47 185.78 83.50 192.69 80.88 198.85 C 77.86 203.62 76.15 209.21 76.67 214.89 C 76.93 215.30 77.45 216.13 77.70 216.55 C 78.67 211.45 78.10 205.81 81.49 201.47 C 81.63 204.93 82.29 208.50 81.33 211.90 C 80.43 214.95 78.77 217.75 78.24 220.91 C 77.25 229.15 77.75 238.17 82.97 245.01 C 85.17 250.47 89.90 254.12 92.85 259.10 C 91.52 259.65 90.10 259.89 88.69 260.06 C 87.81 258.73 87.32 256.00 85.13 256.52 C 82.29 256.94 79.36 256.73 76.56 257.25 C 76.33 257.55 75.86 258.17 75.62 258.48 C 79.10 258.75 82.64 259.22 86.03 258.08 C 86.35 259.07 87.61 260.33 86.19 261.09 C 82.29 263.91 75.07 262.02 74.04 257.02 C 73.07 249.94 67.48 243.45 69.73 236.12 C 71.32 226.51 64.76 217.67 66.21 208.08 C 67.01 204.11 68.29 200.22 70.03 196.56 C 71.69 199.22 71.37 203.38 74.49 204.93 C 72.84 200.00 71.90 194.90 70.61 189.88 C 70.82 185.40 72.50 181.26 73.80 177.04 C 74.43 172.94 73.20 168.81 73.01 164.71 M 76.50 179.82 C 76.32 181.65 76.16 183.48 76.11 185.32 C 76.67 184.23 77.18 183.12 77.67 182.01 C 79.38 181.52 81.10 181.05 82.81 180.54 C 83.60 181.54 84.42 182.51 85.28 183.45 C 84.82 181.63 84.20 179.85 83.56 178.09 C 81.33 179.12 78.97 179.84 76.50 179.82 M 77.64 189.09 C 78.19 191.28 80.06 191.31 81.91 190.87 C 82.48 188.23 79.11 189.52 77.64 189.09 M 71.64 242.73 C 74.68 240.92 75.64 237.41 77.18 234.46 C 73.62 235.38 72.68 239.70 71.64 242.73 Z" />
</g>
<g id="#484948ff">
<path fill="#333333" opacity="1.00" d=" M 154.34 0.00 L 156.14 0.00 C 156.50 39.80 156.33 79.61 156.59 119.41 C 157.77 119.96 158.94 120.51 160.12 121.05 C 160.76 80.71 159.93 40.35 160.42 0.00 L 161.67 0.00 C 161.93 18.64 161.78 37.29 161.78 55.93 C 161.65 65.65 162.29 75.37 161.56 85.08 C 161.27 88.69 161.26 92.33 161.65 95.94 C 162.46 104.19 161.51 112.47 161.53 120.74 C 162.97 120.19 164.42 119.64 165.87 119.08 C 165.21 116.10 164.84 113.07 164.89 110.02 C 164.95 100.33 165.10 90.63 164.60 80.95 C 164.77 53.97 164.46 26.98 164.67 0.00 L 167.26 0.00 C 167.28 34.01 167.25 68.02 167.27 102.03 C 167.29 107.14 167.62 112.32 166.16 117.29 C 168.09 114.58 169.83 111.27 173.17 110.09 C 176.89 108.93 181.27 107.82 184.78 110.17 C 190.86 114.27 192.76 121.88 194.10 128.65 C 199.03 127.40 204.03 126.39 209.06 125.69 C 209.53 127.48 210.02 129.26 210.27 131.10 C 205.36 133.15 199.93 133.54 194.73 134.51 C 194.52 141.27 193.37 148.16 190.22 154.22 C 188.58 156.97 186.68 160.11 183.52 161.24 C 179.86 161.76 175.72 162.92 172.39 160.69 C 170.11 159.38 168.71 157.08 167.20 155.02 C 167.44 183.01 167.12 211.01 167.31 239.01 C 167.14 241.32 167.98 244.41 165.31 245.61 C 164.59 218.60 165.30 191.55 164.73 164.54 C 163.93 165.08 163.15 165.65 162.41 166.27 C 161.60 170.12 162.02 174.10 162.04 178.01 C 162.21 200.33 162.07 222.64 161.88 244.95 C 161.41 244.97 160.45 245.00 159.98 245.01 C 159.98 238.01 159.91 231.01 160.28 224.02 C 160.41 204.88 160.22 185.74 160.32 166.60 C 159.13 166.17 157.94 165.76 156.75 165.34 C 156.68 182.55 156.97 199.77 157.08 216.98 C 156.55 226.59 157.85 236.26 156.54 245.83 C 155.67 244.37 154.61 242.87 154.72 241.08 C 154.55 216.70 154.63 192.32 154.54 167.94 C 154.74 165.94 153.66 164.24 152.65 162.64 C 152.23 157.10 152.68 151.56 152.65 146.02 C 152.98 137.64 152.42 129.27 152.66 120.90 C 155.32 117.85 154.39 113.66 154.53 109.96 C 154.23 73.31 154.43 36.65 154.34 0.00 M 177.06 110.74 C 172.19 110.84 168.96 114.93 167.04 118.96 C 167.29 123.82 167.16 128.70 167.38 133.57 C 169.98 133.04 172.60 132.65 175.19 132.10 C 175.59 133.39 176.02 134.68 176.31 136.01 C 175.79 140.40 170.13 138.78 167.18 140.23 C 167.46 145.74 165.75 152.37 170.49 156.51 C 173.62 160.15 178.65 160.23 182.94 159.07 C 188.26 156.51 190.57 150.45 191.83 145.05 C 193.96 135.35 193.21 124.49 187.88 115.92 C 185.38 112.72 181.42 109.11 177.06 110.74 M 155.21 121.13 C 155.02 135.08 155.11 149.03 155.21 162.97 C 156.58 163.31 157.96 163.65 159.34 163.97 C 159.45 156.96 158.76 149.97 158.91 142.97 C 158.91 136.29 159.51 129.61 159.09 122.94 C 157.84 122.23 156.51 121.71 155.21 121.13 M 160.69 124.41 C 160.74 137.67 160.11 150.97 161.36 164.19 C 162.20 163.84 163.89 163.13 164.73 162.78 C 164.70 149.17 164.82 135.55 164.71 121.93 C 163.26 122.53 160.23 122.05 160.69 124.41 M 194.20 129.60 C 194.29 130.57 194.47 132.53 194.56 133.50 C 199.24 131.68 204.47 131.88 209.09 129.97 C 208.57 129.05 208.06 128.14 207.56 127.22 C 203.13 128.15 198.74 129.39 194.20 129.60 M 167.20 135.33 C 167.19 136.09 167.17 137.59 167.16 138.35 C 169.79 137.94 172.44 137.53 174.97 136.67 C 174.80 135.72 174.54 134.79 174.19 133.89 C 171.85 134.35 169.53 134.86 167.20 135.33 Z" />
<path fill="#333333" opacity="1.00" d=" M 46.12 8.84 C 46.63 8.57 47.66 8.04 48.18 7.77 C 48.39 57.52 48.16 107.28 48.35 157.03 C 55.42 155.45 62.58 154.25 69.68 152.78 C 69.89 148.75 71.09 144.90 71.81 140.96 C 72.59 136.97 70.82 133.15 70.66 129.23 C 71.00 126.16 73.41 123.87 74.89 121.30 C 74.47 119.72 74.06 118.15 73.65 116.58 C 70.48 112.57 68.45 107.79 65.19 103.84 C 63.20 101.41 60.81 99.09 60.04 95.93 C 59.15 92.51 58.82 88.93 57.22 85.72 C 54.40 79.95 57.20 72.82 61.96 68.99 C 66.65 65.63 70.21 60.37 76.20 59.19 C 76.44 56.10 76.58 53.01 76.74 49.91 C 75.83 48.87 74.92 47.83 74.01 46.80 C 73.47 41.88 71.59 36.26 74.82 31.86 C 77.93 27.22 84.05 26.76 89.11 27.29 C 93.00 27.31 96.88 30.19 97.50 34.13 C 98.52 39.47 100.46 44.93 98.77 50.37 C 97.85 53.93 97.62 57.73 95.53 60.90 C 91.18 60.35 86.32 60.21 82.82 57.21 C 80.89 55.01 79.55 52.38 77.72 50.10 C 77.46 53.51 77.96 57.16 76.66 60.39 C 73.95 62.10 70.67 62.97 68.47 65.43 C 66.04 68.08 63.24 70.36 60.77 72.97 C 57.73 76.73 58.80 81.83 59.91 86.11 C 61.22 90.96 60.56 96.86 64.44 100.65 C 68.17 103.97 70.50 108.56 74.52 111.60 C 75.74 115.83 76.00 120.54 78.66 124.22 C 81.12 127.71 83.91 130.94 86.88 134.01 C 87.95 136.70 89.52 139.20 90.14 142.05 C 88.51 145.32 85.75 148.17 85.82 152.06 C 86.83 153.04 87.84 154.04 88.84 155.03 C 92.35 154.95 96.12 155.94 99.44 154.37 C 102.46 153.17 100.72 149.43 101.10 147.05 C 104.28 146.27 107.53 145.68 110.53 144.34 C 111.63 144.90 112.72 145.47 113.81 146.04 C 113.35 147.91 112.83 149.77 112.27 151.61 C 112.64 152.09 113.39 153.03 113.76 153.51 C 117.02 152.80 120.39 152.64 123.59 151.67 C 124.45 150.64 125.09 149.46 125.82 148.35 C 125.37 148.50 124.48 148.80 124.03 148.95 C 124.52 144.36 125.54 139.65 124.34 135.08 C 122.76 128.83 123.95 122.32 122.91 116.01 C 121.55 111.26 119.67 106.66 118.34 101.91 C 118.01 96.87 118.58 91.71 117.21 86.78 C 115.53 81.43 116.95 75.61 115.19 70.29 C 113.76 67.89 111.54 66.11 109.50 64.26 C 108.18 65.95 106.08 65.74 104.19 65.87 C 104.45 65.43 104.97 64.53 105.23 64.09 C 103.32 62.79 101.45 61.39 100.11 59.48 C 103.49 60.53 106.49 62.45 109.77 63.72 C 113.23 65.03 116.15 67.85 117.46 71.31 C 119.15 76.01 117.27 81.16 119.11 85.82 C 120.78 90.86 119.93 96.26 119.67 101.45 C 122.02 104.91 122.84 109.07 124.07 113.00 C 125.77 118.50 124.80 124.30 124.89 129.95 C 125.71 133.78 127.33 137.45 127.25 141.45 C 135.43 140.10 143.54 137.58 151.79 137.12 C 151.85 137.39 151.96 137.91 152.02 138.18 C 143.57 140.19 134.98 141.62 126.52 143.64 C 126.37 144.42 126.07 145.98 125.91 146.77 C 134.18 145.27 142.39 143.45 150.64 141.87 C 150.89 141.96 151.39 142.13 151.64 142.22 C 152.88 143.85 149.92 143.61 149.05 144.05 C 141.54 145.41 134.10 147.10 126.60 148.48 C 126.32 149.87 126.26 151.34 125.65 152.64 C 123.67 154.67 120.62 154.23 118.05 154.36 C 115.66 154.90 113.00 155.77 110.75 154.30 C 110.50 153.34 110.47 152.35 110.39 151.38 C 110.26 150.04 111.68 147.83 110.00 147.13 C 107.76 147.39 105.43 147.75 103.30 148.50 C 101.63 151.71 106.91 150.14 107.79 151.72 C 106.70 152.93 104.87 152.76 103.56 153.60 C 102.22 154.91 101.18 157.02 99.02 156.96 C 94.76 156.95 90.29 157.87 86.19 156.43 C 71.22 159.08 56.46 162.85 41.44 165.24 C 41.60 172.24 41.73 179.24 42.36 186.22 C 43.20 185.87 44.88 185.16 45.72 184.80 C 45.78 178.19 45.70 171.59 45.76 164.98 C 46.43 165.01 47.77 165.09 48.45 165.12 C 48.19 198.79 48.29 232.45 48.26 266.11 C 48.56 267.74 47.63 268.82 46.28 269.55 C 45.83 242.10 45.80 214.62 46.10 187.17 C 45.37 187.32 43.90 187.62 43.17 187.77 C 42.83 208.51 43.25 229.27 43.10 250.01 C 42.66 256.32 42.95 262.65 42.88 268.97 C 42.40 268.98 41.45 269.00 40.98 269.01 C 40.97 261.99 40.92 254.97 41.28 247.96 C 41.41 228.17 41.22 208.38 41.32 188.59 C 40.12 188.17 38.91 187.76 37.71 187.35 C 37.71 205.24 37.95 223.13 38.07 241.03 C 37.55 250.63 38.86 260.29 37.52 269.85 C 36.66 268.36 35.62 266.83 35.72 265.03 C 35.56 241.36 35.62 217.69 35.55 194.02 C 35.54 191.57 35.43 189.12 35.19 186.68 C 36.75 185.67 38.56 185.48 40.38 185.53 C 40.31 181.01 40.17 176.49 40.02 171.97 C 39.93 169.42 40.06 166.75 38.76 164.44 C 38.20 171.00 37.47 177.56 35.18 183.79 C 34.94 183.94 34.45 184.23 34.21 184.38 C 32.75 187.59 30.57 191.03 27.04 192.15 C 23.12 192.67 18.55 193.67 15.22 190.83 C 9.58 186.37 7.34 178.82 6.94 171.89 C 4.65 172.49 2.33 172.95 0.00 173.38 L 0.00 171.39 C 6.61 170.27 13.26 169.17 19.69 167.26 C 19.21 166.78 18.24 165.81 17.75 165.33 C 11.77 165.92 5.94 167.61 0.00 168.51 L 0.00 165.92 L 0.01 166.68 C 2.12 166.28 4.24 165.94 6.37 165.65 C 6.73 157.88 7.99 149.41 13.50 143.50 C 16.48 139.91 21.69 138.91 26.07 139.82 C 30.62 140.92 32.33 145.70 35.24 148.82 C 36.24 152.40 37.24 155.99 38.18 159.59 C 38.68 159.30 39.69 158.71 40.19 158.41 C 40.16 153.65 40.55 148.83 39.50 144.13 C 38.98 142.97 40.71 142.46 41.13 141.73 C 41.94 97.66 40.51 53.56 41.80 9.49 C 42.57 16.29 42.67 23.14 42.76 29.98 C 42.88 48.65 42.78 67.33 42.77 86.00 C 42.86 93.68 43.14 101.36 42.56 109.03 C 42.28 112.64 42.25 116.27 42.64 119.88 C 43.37 127.46 42.72 135.06 42.50 142.64 C 43.34 142.40 45.01 141.93 45.85 141.69 C 45.92 129.48 46.18 117.26 45.61 105.06 C 45.76 78.05 45.46 51.05 45.66 24.04 C 45.75 18.97 45.53 13.88 46.12 8.84 M 77.85 31.78 C 74.73 34.33 74.27 38.67 74.66 42.43 C 75.25 42.31 76.45 42.06 77.05 41.94 C 76.60 43.57 76.18 45.21 75.83 46.86 C 77.42 47.99 79.03 49.09 80.67 50.14 C 81.50 52.20 82.31 54.56 84.33 55.76 C 87.04 57.15 90.00 57.94 92.93 58.76 C 93.60 58.43 94.96 57.77 95.64 57.43 C 98.35 50.95 98.61 43.62 96.64 36.90 C 96.58 33.21 93.88 30.66 91.15 28.60 C 86.59 28.53 81.43 28.44 77.85 31.78 M 73.69 124.24 C 73.17 126.41 72.00 128.62 72.64 130.89 C 73.69 135.11 74.11 139.54 73.47 143.85 C 72.70 146.74 71.85 149.60 71.25 152.53 C 75.61 151.62 79.98 150.83 84.34 149.93 C 83.53 146.59 88.04 145.21 87.26 142.02 C 86.72 139.46 85.41 137.15 84.21 134.85 C 81.57 136.67 78.81 138.51 75.59 139.10 C 77.37 136.22 80.85 135.26 83.58 133.55 C 81.89 131.90 80.48 130.00 79.15 128.05 C 78.60 130.19 78.21 132.38 78.09 134.59 C 77.68 134.48 76.87 134.26 76.46 134.15 C 76.53 131.79 76.93 129.38 78.96 127.90 C 78.13 126.73 77.30 125.57 76.52 124.39 C 75.81 124.35 74.40 124.28 73.69 124.24 M 14.48 144.60 C 9.02 150.03 8.69 158.13 7.18 165.22 C 11.12 164.48 15.06 163.75 18.98 162.91 C 19.76 164.93 20.13 167.05 20.26 169.20 C 16.13 170.83 11.44 170.48 7.51 172.63 C 9.83 178.01 10.39 184.69 15.46 188.47 C 18.61 191.52 23.19 190.08 27.02 189.75 C 29.94 188.63 31.76 185.73 33.18 183.08 C 37.10 174.39 38.23 164.27 35.24 155.11 C 33.77 149.15 30.13 143.22 24.13 141.07 C 20.76 141.71 16.90 141.81 14.48 144.60 M 41.75 144.70 C 41.59 149.18 41.67 153.67 41.61 158.16 C 43.01 157.99 44.40 157.82 45.80 157.65 C 45.76 153.13 45.75 148.60 45.74 144.08 C 44.74 144.23 42.75 144.54 41.75 144.70 M 41.59 160.45 C 40.43 160.59 39.26 160.68 38.09 160.72 C 38.11 162.00 38.11 163.28 38.09 164.56 C 40.25 163.61 42.54 163.10 44.85 162.72 C 58.28 160.27 71.54 157.02 85.00 154.71 C 84.99 153.99 84.97 152.55 84.96 151.83 C 70.47 154.55 55.97 157.21 41.59 160.45 Z" />
<path fill="#333333" opacity="1.00" d=" M 35.31 13.96 C 35.46 12.25 34.93 9.96 37.04 9.18 C 37.38 13.78 37.23 18.39 37.27 23.00 C 37.33 56.35 37.39 89.70 37.47 123.05 C 37.79 129.09 37.44 135.16 37.92 141.19 C 38.39 142.66 36.92 143.16 35.87 143.59 C 35.85 144.51 35.82 146.36 35.80 147.28 C 35.19 146.81 33.96 145.86 33.34 145.39 C 33.06 142.60 35.87 140.76 35.51 138.00 C 35.27 96.65 35.42 55.31 35.31 13.96 Z" />
<path fill="#333333" opacity="1.00" d=" M 79.95 57.89 C 81.47 59.35 82.98 60.96 83.07 63.20 C 81.34 61.91 80.62 59.85 79.95 57.89 Z" />
<path fill="#333333" opacity="1.00" d=" M 76.63 67.93 C 80.18 67.34 83.76 66.25 87.39 66.86 C 89.73 67.30 92.02 67.98 94.36 68.48 C 90.78 71.19 86.92 67.33 83.04 68.23 C 80.79 68.61 78.58 69.18 76.32 69.55 C 76.40 69.14 76.56 68.33 76.63 67.93 Z" />
<path fill="#333333" opacity="1.00" d=" M 67.46 69.30 C 69.40 67.53 73.04 66.86 74.90 68.99 C 74.43 69.93 74.09 71.09 73.05 71.57 C 71.55 70.01 69.73 68.90 67.46 69.30 Z" />
<path fill="#333333" opacity="1.00" d=" M 105.73 69.45 C 109.47 71.86 111.86 76.51 111.33 80.99 C 111.11 82.76 111.51 85.82 109.17 86.16 C 105.47 85.82 101.66 87.99 98.37 85.43 C 98.30 85.24 98.17 84.84 98.11 84.65 C 101.51 85.67 105.09 85.13 108.54 84.68 C 110.86 79.41 108.24 74.06 105.73 69.45 Z" />
<path fill="#333333" opacity="1.00" d=" M 70.36 81.95 C 72.79 80.24 71.85 76.42 74.41 74.74 C 74.12 78.41 72.10 82.30 74.06 85.82 C 75.06 88.49 77.04 90.59 78.87 92.71 C 78.96 92.21 79.14 91.21 79.23 90.71 C 81.39 91.75 83.98 92.04 85.79 90.20 C 88.35 87.82 91.67 86.88 94.95 85.96 C 95.47 84.37 96.01 82.78 96.52 81.19 C 95.39 79.24 94.69 77.08 94.24 74.88 C 97.87 76.35 97.03 80.87 97.01 84.00 C 97.14 85.87 95.40 87.05 94.30 88.25 C 95.40 88.82 96.52 89.35 97.66 89.86 C 95.60 91.08 94.10 92.92 93.13 95.10 C 91.58 96.07 90.04 97.05 88.44 97.93 C 90.18 95.07 92.75 92.83 94.60 90.03 C 94.02 89.44 93.42 88.85 92.83 88.27 C 91.05 88.88 89.29 89.60 87.74 90.69 C 85.26 92.41 82.15 92.59 79.38 93.59 C 82.22 96.15 82.32 100.11 83.20 103.55 C 84.36 104.67 85.49 105.82 86.60 106.99 C 87.39 106.32 88.19 105.65 88.99 104.99 C 89.03 105.42 89.11 106.30 89.14 106.73 C 88.59 107.19 87.48 108.12 86.92 108.58 C 89.39 108.93 91.99 110.58 94.43 109.26 C 96.45 108.25 98.91 109.31 100.84 108.17 C 102.38 106.07 101.73 103.37 101.84 100.96 C 103.03 102.80 104.04 104.76 104.27 106.98 C 104.97 107.09 106.37 107.30 107.07 107.40 C 108.83 104.12 111.51 100.90 111.01 96.93 C 111.31 93.63 108.65 90.35 110.17 87.19 C 110.35 87.24 110.72 87.35 110.90 87.40 C 111.41 90.63 112.30 93.78 112.77 97.02 C 113.13 100.90 109.83 104.13 110.45 108.04 C 111.01 112.02 109.39 116.10 110.67 120.01 C 111.52 123.61 114.57 126.27 115.14 129.97 C 115.69 132.92 116.59 135.99 115.77 138.96 C 114.83 141.40 112.75 143.73 110.05 144.12 C 108.17 142.00 112.06 140.93 113.15 139.57 C 112.45 137.72 111.54 135.95 110.93 134.06 C 111.12 132.00 111.92 130.06 112.49 128.08 C 111.49 126.68 110.47 125.28 109.47 123.89 C 108.33 125.22 107.43 126.82 106.01 127.90 C 103.10 129.10 100.00 129.76 96.90 130.24 C 97.56 131.46 98.18 132.72 98.93 133.90 C 101.97 133.45 104.99 132.81 108.08 132.77 C 107.95 133.85 108.03 134.91 108.29 135.95 C 105.19 136.93 102.10 139.49 98.73 138.39 C 99.83 140.12 100.93 141.86 102.07 143.57 C 104.30 142.66 106.70 142.07 109.13 142.29 C 106.67 144.05 103.75 144.95 100.80 145.41 C 100.84 143.65 99.94 142.63 98.07 142.34 C 97.41 139.67 97.24 136.92 96.61 134.25 C 95.32 130.10 93.01 126.33 91.82 122.14 C 90.69 117.71 87.97 113.96 85.82 109.99 C 83.60 106.13 79.63 103.88 76.64 100.72 C 78.23 100.97 79.76 101.47 81.27 102.03 C 80.41 98.82 78.82 95.88 76.42 93.57 C 73.17 90.42 72.43 85.81 70.36 81.95 M 105.89 109.44 C 104.93 109.05 103.97 108.65 103.01 108.27 C 101.52 109.40 99.90 110.47 97.94 110.42 C 95.54 110.32 93.46 112.42 91.07 111.46 C 90.20 110.61 89.26 109.84 88.26 109.15 C 89.72 112.25 90.77 115.56 92.61 118.46 C 93.89 119.98 95.53 121.16 96.80 122.71 C 95.89 122.45 94.06 121.93 93.15 121.67 C 93.57 123.08 93.98 124.49 94.33 125.93 L 95.18 124.18 C 99.72 122.50 105.51 123.07 109.00 119.31 C 108.74 118.55 108.23 117.01 107.97 116.24 C 108.22 113.43 108.25 110.60 108.14 107.79 C 107.39 108.34 106.64 108.89 105.89 109.44 M 94.82 126.27 C 95.31 127.07 95.80 127.88 96.29 128.68 C 100.62 126.85 107.29 127.87 109.41 122.79 C 104.56 124.00 99.85 125.96 94.82 126.27 M 113.41 129.73 C 112.08 132.77 113.53 135.67 114.93 138.35 C 114.53 135.46 114.02 132.58 113.41 129.73 M 98.70 135.38 C 98.84 135.94 99.11 137.06 99.25 137.61 C 101.62 137.03 103.88 136.07 106.12 135.11 C 103.65 134.57 101.16 135.07 98.70 135.38 Z" />
<path fill="#333333" opacity="1.00" d=" M 99.08 90.87 C 101.02 90.63 102.40 89.17 103.95 88.13 C 105.02 89.02 106.09 89.90 107.12 90.84 C 105.89 90.48 104.67 90.09 103.46 89.67 C 102.67 90.37 101.89 91.07 101.10 91.77 C 101.62 93.10 102.14 94.44 102.67 95.78 C 105.48 95.86 109.16 95.53 110.34 98.78 C 107.63 98.01 104.85 97.47 102.03 97.36 C 100.58 98.30 98.97 98.90 97.30 99.29 C 96.92 99.65 96.17 100.36 95.79 100.72 C 93.79 101.14 92.25 102.41 90.93 103.90 C 88.71 103.37 84.85 102.71 85.74 99.55 C 87.19 100.85 88.85 101.86 90.73 102.37 C 91.37 101.51 92.02 100.66 92.68 99.82 C 95.34 98.69 97.93 97.41 100.62 96.35 C 102.07 94.52 100.45 92.22 99.08 90.87 Z" />
<path fill="#333333" opacity="1.00" d=" M 62.74 94.96 C 64.71 94.94 67.03 94.80 68.44 96.47 C 71.05 99.25 71.47 103.68 75.14 105.50 C 74.66 105.67 73.71 106.00 73.23 106.16 C 70.77 104.39 69.80 101.38 68.13 98.97 C 66.93 96.96 64.60 96.19 62.74 94.96 Z" />
<path fill="#333333" opacity="1.00" d=" M 178.59 111.61 C 182.27 113.16 184.03 116.98 185.38 120.47 C 189.04 131.05 188.93 143.05 184.41 153.36 C 183.59 155.50 182.00 157.24 179.91 158.19 C 181.99 153.91 184.74 149.86 185.47 145.04 C 186.89 136.42 186.73 127.12 182.93 119.09 C 181.79 116.40 179.08 114.59 178.59 111.61 Z" />
<path fill="#333333" opacity="1.00" d=" M 91.34 113.90 C 91.78 114.28 91.78 114.28 91.34 113.90 Z" />
<path fill="#333333" opacity="1.00" d=" M 102.25 114.36 C 104.20 114.62 102.67 118.31 101.06 117.57 C 100.10 116.54 100.92 114.61 102.25 114.36 Z" />
<path fill="#333333" opacity="1.00" d=" M 21.94 143.09 C 25.54 143.18 26.95 146.90 28.35 149.61 C 32.55 159.57 32.63 171.09 29.39 181.34 C 28.10 184.35 27.09 188.67 23.23 189.13 C 30.61 179.52 31.50 166.31 28.52 154.91 C 27.51 150.38 24.54 146.78 21.94 143.09 Z" />
<path fill="#333333" opacity="1.00" d=" M 113.87 158.13 C 114.88 155.21 117.42 154.60 120.10 155.06 L 117.94 156.13 C 118.60 160.77 119.07 165.44 118.82 170.13 C 118.67 173.14 120.85 175.84 120.27 178.88 C 118.74 185.08 118.75 191.67 120.08 197.91 C 121.06 205.89 119.55 214.16 121.89 221.97 C 122.13 223.31 123.56 223.81 124.43 224.67 C 127.72 227.03 129.60 230.84 132.98 233.10 C 134.91 234.57 137.46 234.47 139.65 235.31 C 140.92 236.44 141.93 237.83 143.03 239.13 C 141.62 242.84 137.49 243.71 134.17 244.94 C 131.83 244.68 129.51 244.37 127.17 244.15 C 124.67 243.52 122.56 241.88 120.06 241.25 C 117.33 240.81 114.63 242.01 111.89 241.69 C 110.02 241.42 108.46 240.24 106.88 239.29 C 105.78 231.00 110.80 223.23 108.97 214.96 C 108.49 210.14 105.03 206.44 103.68 201.92 C 103.51 197.30 103.91 192.63 104.84 188.09 C 105.65 185.81 104.06 183.84 103.22 181.86 C 101.59 178.81 102.82 175.00 101.02 172.03 C 99.28 169.08 97.46 166.16 96.06 163.03 C 95.15 163.95 94.23 164.86 93.32 165.78 C 93.27 169.81 92.88 173.88 91.50 177.70 C 90.48 180.34 88.27 182.36 87.36 185.05 C 86.28 189.75 83.91 194.12 83.48 198.96 C 83.36 202.62 83.84 206.27 83.64 209.92 C 83.52 214.11 80.89 217.67 80.51 221.81 C 79.83 227.82 79.33 234.28 81.93 239.92 C 84.11 243.15 85.68 246.75 87.93 249.93 C 90.05 251.94 91.80 254.28 93.54 256.62 C 93.44 258.09 94.12 259.83 93.01 261.05 C 91.99 262.19 90.24 261.88 88.90 262.28 C 83.00 267.00 70.77 263.75 71.06 255.13 C 70.56 251.71 67.60 248.79 68.68 245.17 C 68.13 243.51 67.57 241.86 67.03 240.20 C 69.72 232.12 66.79 223.83 64.93 215.94 C 62.95 208.54 66.74 201.43 68.73 194.48 C 69.14 189.58 69.29 184.56 71.04 179.90 C 73.26 174.56 70.68 168.75 72.04 163.24 C 70.59 164.94 67.30 163.20 68.15 161.13 C 68.77 161.22 70.02 161.40 70.64 161.49 C 71.60 160.52 72.70 159.72 74.04 159.34 C 74.04 160.23 74.04 162.02 74.04 162.91 C 77.58 164.32 81.10 166.67 85.09 165.89 C 88.04 165.34 91.38 164.88 93.54 162.59 C 94.40 161.08 94.25 157.65 96.77 159.35 C 100.37 160.21 104.29 161.89 107.86 159.98 C 108.91 159.66 111.98 157.87 111.34 160.23 C 106.85 163.28 100.62 163.71 96.34 160.01 L 96.08 162.46 C 100.12 164.33 101.59 168.81 103.93 172.26 C 106.09 175.43 104.77 179.61 106.57 182.95 C 107.78 185.81 110.64 189.20 107.92 192.11 C 107.50 191.27 106.65 189.61 106.23 188.78 C 105.47 194.17 106.14 199.62 107.30 204.90 C 108.22 207.47 110.03 209.68 110.52 212.40 C 111.18 216.58 110.91 220.82 110.88 225.03 C 108.99 229.48 108.93 234.35 109.01 239.09 C 112.50 240.67 116.33 239.63 120.00 239.74 C 122.93 239.68 125.43 241.38 128.01 242.51 C 130.64 242.39 133.28 243.18 135.90 242.80 C 137.69 242.00 139.32 240.89 141.06 240.00 C 138.76 235.74 133.02 237.25 130.04 233.71 C 126.82 229.82 123.43 226.07 119.59 222.76 C 119.67 222.39 119.81 221.65 119.88 221.28 C 116.96 213.26 119.79 204.67 117.62 196.52 C 116.32 192.26 117.98 187.96 117.69 183.63 C 118.80 179.80 119.78 175.51 116.77 172.21 C 115.67 174.72 113.78 178.60 110.37 177.62 C 108.15 176.13 107.78 173.21 107.25 170.81 C 108.76 172.81 109.72 176.71 112.87 176.08 C 114.64 174.33 115.04 171.78 115.60 169.47 C 116.09 169.57 117.06 169.75 117.55 169.85 C 117.38 165.51 117.13 161.18 117.02 156.84 C 116.23 157.16 114.66 157.81 113.87 158.13 M 73.01 164.71 C 73.20 168.81 74.43 172.94 73.80 177.04 C 72.50 181.26 70.82 185.40 70.61 189.88 C 71.90 194.90 72.84 200.00 74.49 204.93 C 71.37 203.38 71.69 199.22 70.03 196.56 C 68.29 200.22 67.01 204.11 66.21 208.08 C 64.76 217.67 71.32 226.51 69.73 236.12 C 67.48 243.45 73.07 249.94 74.04 257.02 C 75.07 262.02 82.29 263.91 86.19 261.09 C 87.61 260.33 86.35 259.07 86.03 258.08 C 82.64 259.22 79.10 258.75 75.62 258.48 C 75.86 258.17 76.33 257.55 76.56 257.25 C 79.36 256.73 82.29 256.94 85.13 256.52 C 87.32 256.00 87.81 258.73 88.69 260.06 C 90.10 259.89 91.52 259.65 92.85 259.10 C 89.90 254.12 85.17 250.47 82.97 245.01 C 77.75 238.17 77.25 229.15 78.24 220.91 C 78.77 217.75 80.43 214.95 81.33 211.90 C 82.29 208.50 81.63 204.93 81.49 201.47 C 78.10 205.81 78.67 211.45 77.70 216.55 C 77.45 216.13 76.93 215.30 76.67 214.89 C 76.15 209.21 77.86 203.62 80.88 198.85 C 83.50 192.69 84.47 185.78 88.17 180.09 C 90.77 176.02 91.43 171.15 92.11 166.47 C 88.41 167.16 84.67 168.40 80.87 167.89 C 78.15 167.11 75.68 165.65 73.01 164.71 Z" />
<path fill="#333333" opacity="1.00" d=" M 76.50 179.82 C 78.97 179.84 81.33 179.12 83.56 178.09 C 84.20 179.85 84.82 181.63 85.28 183.45 C 84.42 182.51 83.60 181.54 82.81 180.54 C 81.10 181.05 79.38 181.52 77.67 182.01 C 77.18 183.12 76.67 184.23 76.11 185.32 C 76.16 183.48 76.32 181.65 76.50 179.82 Z" />
<path fill="#333333" opacity="1.00" d=" M 77.64 189.09 C 79.11 189.52 82.48 188.23 81.91 190.87 C 80.06 191.31 78.19 191.28 77.64 189.09 Z" />
<path fill="#333333" opacity="1.00" d=" M 114.60 234.20 C 111.68 232.69 110.77 228.11 113.35 225.90 C 113.34 227.22 113.28 228.55 113.20 229.87 C 113.70 231.30 114.19 232.74 114.60 234.20 Z" />
<path fill="#333333" opacity="1.00" d=" M 71.64 242.73 C 72.68 239.70 73.62 235.38 77.18 234.46 C 75.64 237.41 74.68 240.92 71.64 242.73 Z" />
</g>
</svg>
