<?xml version="1.0" encoding="UTF-8" ?>
<!DOCTYPE svg PUBLIC "-//W3C//DTD SVG 1.1//EN" "http://www.w3.org/Graphics/SVG/1.1/DTD/svg11.dtd">
<svg width="276pt" height="225pt" viewBox="0 0 276 225" version="1.1" xmlns="http://www.w3.org/2000/svg">
<g id="#ffffffff">
<path fill="#FFFFFF" opacity="1.00" d=" M 0.00 0.00 L 276.00 0.00 L 276.00 225.00 L 0.00 225.00 L 0.00 0.00 M 212.47 19.67 C 209.27 21.56 205.23 22.95 203.81 26.73 C 201.34 32.67 201.27 39.75 203.62 45.73 C 199.37 43.97 196.05 47.82 192.64 49.67 C 192.64 50.80 192.64 51.93 192.64 53.05 C 182.71 58.73 172.35 63.57 162.54 69.43 C 157.58 71.75 152.39 73.69 147.80 76.73 C 139.14 82.45 129.36 86.10 120.49 91.45 C 119.90 89.75 119.51 87.94 118.57 86.39 C 115.57 83.77 110.89 83.94 108.61 80.35 C 105.30 78.46 101.71 76.91 99.12 73.93 C 96.48 75.18 94.55 72.66 92.76 71.16 C 89.35 67.78 85.07 65.51 81.16 62.79 C 76.72 59.79 71.16 59.31 65.95 59.72 C 64.37 61.18 62.49 62.40 61.30 64.23 C 60.44 67.53 60.99 71.01 60.65 74.39 C 56.16 70.97 50.67 69.03 45.04 68.78 C 41.63 69.20 37.33 70.90 36.83 74.78 C 35.86 80.45 34.65 86.11 34.24 91.86 C 33.76 97.29 35.30 102.64 35.01 108.06 C 34.96 111.46 34.02 114.74 33.30 118.04 C 30.15 118.53 27.14 119.69 23.96 120.03 C 22.17 120.22 20.35 120.70 18.97 121.93 C 16.44 123.38 17.21 126.76 18.04 129.01 C 21.02 132.54 25.88 133.44 29.98 135.09 C 32.76 136.09 34.87 138.73 37.97 138.81 C 40.92 139.11 43.73 138.09 46.52 137.31 C 48.41 131.44 45.28 125.73 44.63 119.95 C 44.75 114.84 45.19 109.73 45.71 104.65 C 46.36 104.14 47.00 103.63 47.65 103.11 C 45.10 101.91 42.73 100.38 40.30 98.97 C 40.62 97.51 39.64 95.38 41.26 94.50 C 42.84 93.66 44.65 90.89 46.52 92.59 C 50.09 95.82 53.05 99.88 57.63 101.83 C 57.62 102.38 57.58 103.47 57.56 104.02 C 59.37 106.77 62.18 108.52 65.45 108.99 C 65.96 106.09 63.87 105.29 61.55 104.91 C 61.56 104.41 61.60 103.41 61.62 102.91 C 57.45 95.56 60.93 84.91 69.00 81.99 C 73.87 80.94 78.43 83.52 82.60 85.67 C 86.11 87.46 90.27 86.41 93.23 84.05 C 89.87 83.45 86.52 84.76 83.16 84.11 C 83.65 83.64 84.63 82.69 85.13 82.22 C 84.50 82.25 83.25 82.31 82.62 82.33 C 83.92 80.40 85.28 78.50 86.63 76.59 C 89.92 75.30 93.53 74.53 97.04 75.37 C 100.28 77.69 103.10 80.66 107.04 81.84 C 109.36 86.42 115.43 85.20 118.20 89.25 L 116.02 89.04 C 116.09 89.32 116.24 89.90 116.31 90.18 C 112.73 89.42 109.05 90.31 106.08 92.41 C 110.37 92.60 114.67 92.47 118.96 92.33 C 116.41 93.42 114.06 95.26 111.32 95.72 C 108.98 94.66 106.61 93.62 104.00 93.49 C 101.55 95.60 98.89 97.43 96.12 99.09 C 94.56 99.61 93.67 101.67 95.17 102.78 C 98.51 100.27 101.76 97.55 105.28 95.24 C 106.71 96.06 108.29 96.74 109.40 98.02 C 109.75 102.32 109.70 106.62 109.18 110.90 C 110.39 116.66 114.28 121.55 118.43 125.57 C 120.52 127.90 121.76 130.84 123.77 133.24 C 123.59 132.16 123.40 131.07 123.20 130.00 C 127.91 129.76 132.63 130.77 136.74 133.11 C 136.12 134.01 135.54 134.93 135.00 135.88 C 137.97 136.78 138.89 131.97 141.89 132.76 C 143.82 132.93 145.71 133.39 147.60 133.82 C 146.91 132.33 146.41 130.71 145.23 129.52 C 144.06 129.18 142.92 129.93 141.79 130.13 C 141.01 130.31 139.45 130.66 138.67 130.84 C 138.25 129.73 139.42 126.48 137.10 126.97 C 136.98 128.35 136.91 129.73 136.91 131.12 C 136.42 130.80 135.45 130.17 134.97 129.86 C 134.92 127.45 134.41 125.10 133.22 122.98 C 133.67 124.30 134.15 125.60 134.66 126.89 C 133.96 127.52 133.25 128.14 132.53 128.74 C 129.60 124.12 128.79 118.64 129.22 113.27 C 131.32 111.33 132.85 108.64 135.52 107.42 C 138.78 105.78 143.02 106.91 145.54 103.80 C 145.19 103.38 144.50 102.53 144.16 102.11 C 150.37 98.83 157.43 101.37 163.56 103.53 C 163.66 104.08 163.85 105.20 163.95 105.75 C 165.34 106.77 167.32 107.36 167.95 109.14 C 167.41 111.53 165.88 113.51 164.82 115.67 C 160.79 116.55 156.59 117.33 152.76 115.26 C 151.07 118.34 150.40 121.78 149.65 125.17 C 150.73 127.75 151.92 130.30 153.50 132.63 C 151.96 132.24 151.20 133.47 150.29 134.29 C 152.91 135.54 155.53 136.80 158.26 137.81 C 158.28 137.36 158.31 136.47 158.33 136.02 C 157.10 135.35 155.85 134.71 154.69 133.92 C 154.53 129.64 151.94 126.12 150.71 122.16 C 151.59 120.73 153.00 119.75 154.23 118.65 L 153.06 116.69 C 155.89 117.15 158.79 117.37 161.58 116.56 C 163.57 116.74 165.39 117.51 166.63 119.12 C 164.28 119.78 161.90 120.31 159.51 120.78 C 161.00 120.99 162.51 121.18 164.01 121.36 C 161.21 124.78 160.00 128.99 160.59 133.39 C 161.00 133.39 161.80 133.38 162.21 133.38 C 162.35 129.82 162.84 126.13 165.18 123.27 C 167.04 120.95 169.49 117.24 172.94 118.73 C 177.29 122.49 179.11 128.14 181.99 132.95 C 183.09 135.03 184.00 137.20 184.55 139.48 C 183.32 141.64 182.44 144.00 180.97 146.01 C 178.21 148.39 174.56 149.83 170.92 149.92 C 165.11 148.81 159.78 145.08 157.27 139.62 C 157.31 141.29 157.35 142.96 157.34 144.64 L 159.47 144.00 C 158.87 144.69 157.68 146.07 157.08 146.76 C 156.28 145.82 155.50 144.87 154.71 143.93 C 154.96 144.69 155.45 146.20 155.69 146.96 C 152.17 146.59 148.71 147.30 145.31 148.13 C 142.48 150.47 138.58 150.59 135.08 150.96 C 131.49 150.58 128.30 148.22 124.52 148.87 C 125.78 148.01 127.01 147.11 128.22 146.18 C 128.06 145.62 127.73 144.49 127.57 143.92 C 125.71 142.95 123.86 141.94 121.98 141.02 C 123.44 142.23 124.94 143.40 126.42 144.59 C 125.40 145.98 124.36 147.36 123.34 148.74 C 119.54 146.14 116.39 142.74 112.52 140.22 C 111.29 139.66 111.14 138.38 111.25 137.18 C 111.16 137.35 110.99 137.69 110.90 137.87 L 110.13 137.70 C 108.42 133.15 105.05 128.99 105.14 123.92 C 103.44 119.09 102.28 113.72 98.88 109.81 C 99.27 114.24 101.13 118.26 102.65 122.37 C 102.28 122.58 101.54 123.00 101.17 123.21 C 100.73 124.74 102.61 125.28 103.33 126.34 C 104.47 131.14 106.82 135.52 109.04 139.88 C 111.49 142.69 115.41 143.89 117.57 147.04 C 110.25 143.90 104.16 138.65 97.20 134.85 C 97.09 135.14 96.85 135.72 96.74 136.02 C 96.81 136.36 96.95 137.06 97.02 137.41 C 100.84 139.48 104.26 142.14 107.83 144.58 C 114.94 148.77 122.16 152.80 129.11 157.28 C 130.07 158.02 131.45 158.70 131.37 160.12 C 131.60 168.37 131.71 176.65 132.35 184.89 C 127.24 184.00 122.46 181.93 117.46 180.61 C 105.29 176.57 92.91 173.09 80.94 168.47 C 83.74 167.11 86.85 166.18 89.26 164.15 C 89.70 162.27 89.58 160.33 89.68 158.42 C 89.09 157.28 88.51 156.15 87.94 155.01 C 85.65 154.01 83.45 152.75 81.00 152.18 C 75.68 153.82 70.77 156.59 65.62 158.70 C 65.53 150.80 65.15 142.91 65.50 135.02 C 67.49 133.99 69.51 133.01 71.53 132.05 C 71.49 130.34 71.42 128.64 71.32 126.94 C 74.21 131.80 78.21 136.54 83.80 138.26 C 87.62 139.76 91.45 137.42 94.88 135.94 C 98.63 132.75 99.79 127.64 100.18 122.96 C 100.66 117.84 97.52 112.92 99.09 107.85 C 96.40 108.41 95.76 105.94 96.60 103.77 L 95.25 104.87 C 94.04 103.00 93.01 101.03 91.80 99.16 C 92.44 98.80 93.71 98.09 94.35 97.73 C 93.26 97.87 92.17 98.07 91.09 98.27 C 88.43 95.71 85.54 93.15 81.90 92.12 C 77.29 90.63 72.72 93.57 69.39 96.47 C 65.01 102.50 65.36 110.72 67.31 117.60 C 66.24 116.45 65.29 115.15 63.90 114.37 C 58.74 111.23 53.44 108.25 48.84 104.30 C 48.44 104.88 48.05 105.47 47.66 106.06 C 49.30 107.17 50.90 108.35 52.55 109.47 C 52.37 111.65 52.28 113.84 52.13 116.03 C 51.30 122.05 53.89 127.96 52.99 133.98 C 52.14 139.11 53.29 144.30 52.56 149.43 C 52.97 154.47 51.47 159.42 51.83 164.47 C 46.88 167.04 41.70 169.15 36.69 171.60 C 36.75 175.41 36.87 179.24 37.46 183.01 C 38.09 183.19 39.33 183.54 39.95 183.71 C 41.74 184.15 43.50 184.70 45.22 185.34 C 52.05 182.19 58.70 178.55 65.91 176.28 C 75.26 178.47 83.80 183.10 93.14 185.32 C 105.45 189.40 117.75 193.56 129.98 197.90 L 130.93 196.92 L 129.75 198.57 C 129.98 198.44 130.45 198.18 130.68 198.05 C 133.22 198.92 135.76 199.83 138.28 200.77 C 140.58 198.22 143.43 196.24 146.58 194.89 C 146.07 185.25 146.56 175.60 146.53 165.95 C 151.94 166.48 157.86 167.02 162.49 163.54 C 166.51 160.38 171.52 158.56 175.06 154.81 C 175.38 154.39 176.01 153.57 176.33 153.16 C 176.32 152.71 176.28 151.82 176.27 151.38 C 179.88 149.31 184.13 147.21 185.56 142.98 C 186.78 139.95 185.93 136.74 185.40 133.68 C 184.92 133.37 183.97 132.74 183.50 132.43 C 183.26 131.65 182.78 130.08 182.54 129.30 C 183.88 128.02 185.30 126.82 186.79 125.71 C 188.29 122.81 190.26 120.20 192.22 117.61 C 197.52 114.20 199.16 107.68 200.85 102.02 C 201.45 98.46 204.37 95.69 204.22 91.96 C 204.26 88.24 204.89 84.49 206.93 81.31 C 207.53 80.71 207.79 79.98 207.71 79.13 C 207.61 74.44 208.04 69.74 207.57 65.05 C 207.23 61.63 208.74 57.80 206.13 54.94 C 204.81 64.45 207.20 74.33 204.19 83.61 C 202.89 81.21 202.62 78.47 202.32 75.80 C 200.56 82.68 203.58 89.81 201.07 96.54 C 200.29 95.75 199.83 94.74 199.30 93.78 C 196.53 97.42 193.57 101.46 194.78 106.34 C 195.13 106.70 195.84 107.42 196.20 107.78 C 195.86 111.04 193.44 113.49 191.65 116.06 L 192.23 113.80 C 190.01 113.28 189.74 111.19 190.12 109.26 C 188.98 106.79 189.68 104.26 190.47 101.83 C 189.38 103.42 187.43 104.90 187.86 107.06 C 188.46 109.95 189.29 112.83 190.55 115.51 C 190.21 117.42 189.72 119.29 189.32 121.19 C 186.85 123.48 183.52 124.17 180.55 125.53 C 178.80 122.97 177.18 120.30 175.16 117.94 C 172.41 116.87 169.41 117.76 166.82 118.87 C 166.85 117.58 166.84 116.29 166.80 115.00 C 166.82 114.53 166.86 113.59 166.89 113.12 C 169.34 111.69 171.90 110.43 174.27 108.84 C 177.20 108.89 180.13 109.12 183.06 108.88 C 181.29 107.45 178.98 107.57 176.86 107.27 C 178.40 99.50 185.40 94.67 191.82 90.96 C 191.20 90.59 189.96 89.85 189.34 89.49 C 190.47 85.92 191.01 82.15 192.84 78.84 C 195.46 73.79 196.80 68.24 198.44 62.83 C 197.39 61.98 196.33 61.14 195.25 60.32 C 195.30 59.90 195.40 59.08 195.45 58.67 C 196.37 57.96 197.29 57.23 198.19 56.50 C 193.48 56.21 189.87 60.04 185.83 61.92 C 162.07 73.66 139.26 87.23 115.38 98.73 C 114.03 99.17 112.69 100.26 111.20 99.82 C 111.17 99.56 111.11 99.06 111.08 98.80 C 117.59 95.09 124.12 91.36 130.78 87.90 C 145.37 81.06 159.03 72.42 173.54 65.43 C 180.91 61.17 188.65 57.56 195.97 53.20 C 195.66 52.20 195.35 51.20 195.05 50.21 C 197.77 48.44 201.51 45.35 204.50 48.43 C 206.89 49.69 205.93 52.42 205.89 54.58 C 210.90 58.93 214.61 66.10 221.95 66.63 C 226.15 65.75 231.49 64.93 233.59 60.61 C 237.57 53.53 235.15 45.18 233.31 37.83 C 237.84 35.15 242.91 33.34 247.08 30.09 C 246.44 28.61 245.50 27.22 244.13 26.33 C 239.70 27.97 235.60 30.40 231.56 32.84 C 228.60 28.17 225.34 23.27 220.18 20.82 C 217.81 19.55 215.05 19.77 212.47 19.67 M 92.23 91.16 C 91.23 90.65 90.24 90.11 89.18 89.75 C 88.71 90.61 88.27 91.49 87.85 92.38 C 92.06 91.53 96.39 91.35 100.50 90.03 C 97.82 88.52 94.48 89.17 92.23 91.16 M 124.94 132.55 C 124.89 133.53 124.85 134.52 124.81 135.50 C 126.17 135.50 127.53 135.47 128.89 135.41 C 127.85 134.12 126.34 133.37 124.94 132.55 M 143.68 136.49 C 145.38 139.43 146.51 142.63 147.91 145.71 C 148.95 142.23 148.22 136.77 143.68 136.49 M 130.52 140.48 C 131.44 142.23 132.42 143.95 133.35 145.69 C 132.77 145.63 131.62 145.51 131.04 145.45 C 132.28 145.88 133.51 146.35 134.78 146.69 C 135.90 144.13 133.58 140.40 130.52 140.48 Z" />
<path fill="#FFFFFF" opacity="1.00" d=" M 205.28 27.34 C 206.56 24.01 210.17 22.86 212.98 21.19 C 223.00 21.61 229.46 30.71 232.42 39.38 C 235.29 46.88 235.53 56.78 229.21 62.63 C 228.70 62.14 228.20 61.65 227.71 61.15 C 230.58 56.88 230.43 51.34 229.38 46.50 C 227.94 38.66 224.09 31.12 218.05 25.84 C 216.31 24.49 214.40 22.69 212.00 23.18 C 212.64 25.59 215.68 26.04 217.28 27.72 C 224.45 33.94 228.29 43.65 228.05 53.07 C 228.06 56.77 226.65 60.25 225.80 63.80 C 223.11 64.40 220.07 65.07 217.65 63.28 C 213.80 60.75 210.12 57.42 208.18 53.18 C 209.25 49.35 214.13 49.30 216.63 46.67 C 217.41 44.60 215.92 42.80 214.43 41.56 C 211.46 42.73 208.57 44.28 206.26 46.52 C 209.55 46.35 212.36 44.42 215.51 43.67 C 214.84 46.89 211.22 47.64 209.03 49.57 C 207.52 48.29 206.00 47.04 204.47 45.78 C 203.93 39.67 202.31 33.12 205.28 27.34 Z" />
<path fill="#FFFFFF" opacity="1.00" d=" M 231.67 33.93 C 235.70 32.20 239.60 30.18 243.37 27.94 C 244.04 28.59 244.71 29.24 245.37 29.89 C 241.12 31.71 237.27 34.47 232.85 35.85 C 232.55 35.37 231.96 34.41 231.67 33.93 Z" />
<path fill="#FFFFFF" opacity="1.00" d=" M 182.91 64.78 C 185.72 63.35 188.67 62.21 191.47 60.75 C 192.90 61.59 194.39 62.35 195.71 63.37 C 195.11 69.42 192.38 75.02 189.80 80.44 C 188.45 84.01 188.32 87.90 187.76 91.64 C 181.12 94.99 176.19 101.36 174.06 108.42 C 169.57 108.89 166.95 104.71 163.15 103.15 C 158.94 100.19 154.31 97.82 149.01 97.92 C 147.69 96.91 146.32 95.96 144.81 95.26 C 144.31 92.65 141.86 93.85 140.10 93.74 C 137.19 93.65 134.29 94.68 131.40 93.96 C 133.00 92.26 135.08 91.13 137.10 89.98 C 152.36 81.57 167.69 73.29 182.91 64.78 Z" />
<path fill="#FFFFFF" opacity="1.00" d=" M 63.42 62.55 C 70.53 59.14 77.78 63.54 84.07 66.66 C 87.92 67.96 90.40 71.24 92.91 74.22 C 90.06 74.74 87.06 75.14 84.53 76.63 C 82.91 78.17 81.59 80.00 80.21 81.75 C 76.84 80.56 73.28 80.26 69.74 80.30 C 68.36 77.26 64.97 76.43 62.22 75.12 C 62.56 73.76 62.91 72.41 63.25 71.06 C 62.30 68.26 62.02 65.26 63.42 62.55 M 66.80 71.11 C 71.20 71.70 75.66 71.49 80.04 72.18 C 76.73 68.23 71.04 69.69 66.80 71.11 M 66.46 74.33 C 66.36 74.78 66.17 75.66 66.08 76.11 C 68.91 76.70 71.75 77.26 74.61 77.71 C 74.53 77.28 74.37 76.42 74.29 75.99 C 71.65 75.59 69.04 75.02 66.46 74.33 Z" />
<path fill="#FFFFFF" opacity="1.00" d=" M 41.77 71.71 C 45.30 70.73 49.48 69.81 52.74 72.07 C 58.07 75.11 63.52 77.96 69.07 80.57 C 65.04 82.37 60.90 84.65 58.71 88.67 C 56.76 91.56 56.97 95.18 56.87 98.51 C 52.97 95.82 49.59 92.43 45.44 90.10 C 43.33 91.40 40.44 91.79 39.06 93.99 C 38.54 95.99 38.40 98.12 38.70 100.17 C 40.13 101.41 41.81 102.31 43.42 103.29 C 43.43 106.87 42.70 110.39 42.71 113.96 C 43.12 121.18 45.58 128.20 44.82 135.49 C 38.05 138.40 31.66 133.63 25.49 131.42 C 21.79 130.09 18.74 127.28 18.19 123.22 C 23.78 122.29 29.48 121.47 34.54 118.73 C 35.54 116.19 36.40 113.56 36.51 110.80 C 37.14 111.79 38.38 113.76 39.01 114.74 C 38.36 110.12 36.35 105.72 36.39 101.00 C 36.27 94.97 37.14 88.98 37.28 82.96 C 37.29 78.90 38.35 74.23 41.77 71.71 M 39.39 85.60 C 40.29 85.62 42.10 85.68 43.00 85.70 C 46.70 88.30 49.94 93.32 55.08 92.43 C 51.34 89.75 47.21 87.50 44.31 83.81 C 42.69 84.46 41.05 85.05 39.39 85.60 M 40.08 119.48 C 40.11 120.86 39.76 122.05 39.04 123.06 C 36.56 124.32 33.82 124.84 31.14 125.52 C 32.13 126.21 33.11 126.91 34.09 127.60 C 35.70 126.91 36.91 123.77 38.84 125.16 C 39.69 126.46 40.44 127.82 41.28 129.14 C 41.74 126.15 41.99 123.12 41.95 120.10 C 41.33 119.87 40.71 119.66 40.08 119.48 Z" />
<path fill="#FFFFFF" opacity="1.00" d=" M 69.66 98.85 C 71.13 95.63 74.99 94.92 77.78 93.25 C 86.51 94.23 92.53 101.66 95.72 109.26 C 98.33 115.72 99.20 123.27 96.81 129.92 C 95.36 134.48 90.22 135.90 86.05 136.63 C 79.12 135.94 75.08 129.56 71.16 124.57 C 72.59 123.80 74.03 123.04 75.47 122.29 C 75.72 122.72 76.21 123.58 76.46 124.01 C 75.81 120.71 79.85 120.49 81.57 118.60 C 82.30 115.90 79.79 113.66 77.36 113.15 C 77.29 112.88 77.14 112.34 77.07 112.07 C 77.09 115.79 72.76 116.39 70.14 117.83 C 69.79 117.72 69.10 117.51 68.75 117.41 C 67.07 111.42 66.69 104.50 69.66 98.85 M 76.35 94.68 C 76.87 97.32 79.70 97.93 81.42 99.55 C 85.61 104.00 89.38 109.14 90.78 115.20 C 92.09 118.75 91.13 123.14 94.06 125.98 C 94.25 115.94 90.21 106.01 83.21 98.84 C 81.54 96.61 79.01 95.33 76.35 94.68 M 92.06 124.99 C 91.98 128.41 90.86 131.66 90.28 135.01 C 93.75 133.17 94.82 127.84 92.06 124.99 Z" />
<path fill="#FFFFFF" opacity="1.00" d=" M 122.63 97.11 C 124.70 96.22 126.62 94.86 128.85 94.38 C 130.64 94.91 132.29 95.79 133.98 96.56 C 133.66 98.11 133.33 99.65 132.98 101.20 C 129.75 99.32 126.25 97.99 122.63 97.11 Z" />
<path fill="#FFFFFF" opacity="1.00" d=" M 134.61 97.97 C 135.35 97.04 136.10 96.11 136.85 95.19 C 140.77 95.33 144.38 96.87 147.89 98.46 C 145.84 99.79 143.84 101.26 142.56 103.39 C 137.79 104.05 133.55 106.64 130.31 110.11 C 126.87 114.96 126.78 121.84 129.67 126.93 C 127.25 127.34 124.86 127.89 122.51 128.57 C 119.45 125.17 117.70 120.85 114.61 117.48 C 112.55 115.24 111.91 112.25 112.54 109.33 L 111.27 109.85 C 111.44 107.47 111.59 105.09 111.69 102.70 C 114.38 101.31 116.97 99.69 119.83 98.64 C 125.12 98.44 129.34 102.82 134.62 102.80 C 134.63 101.19 134.62 99.58 134.61 97.97 M 118.59 108.05 C 118.48 108.57 118.27 109.61 118.16 110.12 C 120.45 109.42 122.73 108.69 125.03 108.00 C 125.37 107.62 126.05 106.85 126.39 106.46 C 127.27 106.39 129.04 106.26 129.92 106.19 C 129.61 105.71 129.01 104.75 128.71 104.27 C 124.87 103.99 122.08 107.02 118.59 108.05 M 120.11 114.06 C 121.18 114.35 122.25 114.63 123.33 114.90 C 123.28 114.21 123.18 112.83 123.14 112.14 C 122.11 112.76 121.09 113.38 120.11 114.06 M 120.62 116.68 C 120.51 117.98 120.40 119.28 120.30 120.58 C 120.78 120.54 121.72 120.46 122.20 120.42 C 122.33 118.97 122.46 117.52 122.59 116.07 C 122.10 116.22 121.11 116.53 120.62 116.68 Z" />
<path fill="#FFFFFF" opacity="1.00" d=" M 199.20 96.30 C 199.52 96.91 199.83 97.53 200.14 98.16 C 198.95 100.41 197.97 102.77 197.04 105.14 C 196.03 107.00 195.29 103.53 196.11 103.13 C 196.36 100.56 197.91 98.44 199.20 96.30 Z" />
<path fill="#FFFFFF" opacity="1.00" d=" M 54.53 111.03 C 57.84 113.00 61.31 114.68 64.77 116.38 C 64.35 118.15 63.94 119.93 63.57 121.71 C 61.04 123.13 58.28 124.19 55.92 125.89 C 55.36 128.23 57.10 129.89 58.61 131.35 C 62.56 128.97 66.68 126.91 70.88 125.02 C 70.47 127.01 69.95 128.98 69.43 130.96 C 68.19 131.29 66.95 131.61 65.71 131.95 C 65.50 131.25 65.06 129.85 64.84 129.15 C 64.53 129.28 63.90 129.54 63.59 129.67 C 62.64 140.41 63.57 151.18 63.80 161.93 C 67.97 159.53 72.69 158.09 76.43 154.99 C 79.72 154.18 83.14 154.30 86.22 155.80 C 87.29 158.12 87.29 160.72 87.46 163.22 C 84.60 164.69 81.66 166.02 78.75 167.40 C 78.17 167.38 77.00 167.36 76.42 167.34 C 76.44 168.22 76.46 169.11 76.48 169.99 C 86.01 171.62 95.11 175.03 104.12 178.42 C 114.26 181.50 124.33 184.80 134.47 187.84 C 135.06 180.73 133.15 173.44 134.85 166.46 L 132.79 166.74 L 134.21 166.22 C 134.10 164.47 133.97 162.73 133.83 160.99 C 137.73 162.78 142.68 162.81 145.65 166.24 C 144.63 175.19 142.84 184.36 144.75 193.32 C 142.54 194.72 140.40 196.23 138.25 197.70 C 115.35 189.94 92.30 182.67 69.44 174.76 C 69.42 174.21 69.39 173.10 69.37 172.55 C 61.40 175.11 54.29 179.67 46.59 182.90 C 46.43 182.45 46.11 181.55 45.95 181.10 C 45.87 181.60 45.71 182.59 45.63 183.09 C 43.50 182.62 41.40 182.07 39.30 181.52 C 39.23 178.56 39.21 175.59 39.23 172.63 C 44.17 170.16 49.47 168.53 54.47 166.21 C 53.73 157.49 54.58 148.72 54.30 139.98 C 55.26 130.34 53.92 120.68 54.53 111.03 Z" />
<path fill="#FFFFFF" opacity="1.00" d=" M 60.04 125.15 C 66.48 122.81 71.94 118.48 78.31 116.02 C 78.90 116.23 80.07 116.64 80.66 116.85 C 74.57 121.05 67.60 123.74 61.50 127.93 C 61.01 127.00 60.52 126.08 60.04 125.15 Z" />
<path fill="#FFFFFF" opacity="1.00" d=" M 65.50 120.18 C 64.46 119.22 65.58 116.72 67.02 117.77 C 68.22 118.69 66.84 121.07 65.50 120.18 Z" />
<path fill="#FFFFFF" opacity="1.00" d=" M 58.16 128.65 C 57.24 127.47 57.45 126.78 58.79 126.57 C 59.71 127.75 59.50 128.45 58.16 128.65 Z" />
<path fill="#FFFFFF" opacity="1.00" d=" M 153.95 149.33 C 156.54 148.95 158.80 147.56 160.97 146.20 C 163.34 151.82 169.82 152.84 175.23 152.23 C 172.98 154.15 170.41 155.64 167.79 156.98 C 164.42 158.75 161.81 161.81 158.12 162.98 C 154.16 164.36 149.93 163.72 145.84 163.70 C 141.63 160.86 136.77 159.15 132.66 156.15 C 130.07 154.29 127.29 152.64 124.24 151.64 C 123.72 151.32 122.69 150.67 122.18 150.34 C 124.03 151.02 125.88 151.81 127.91 151.64 C 131.71 151.49 135.18 154.28 139.00 153.11 C 144.15 152.49 148.83 150.06 153.95 149.33 Z" />
</g>
<g id="#525351ff">
<path fill="#333333" opacity="1.00" d=" M 212.47 19.67 C 215.05 19.77 217.81 19.55 220.18 20.82 C 225.34 23.27 228.60 28.17 231.56 32.84 C 235.60 30.40 239.70 27.97 244.13 26.33 C 245.50 27.22 246.44 28.61 247.08 30.09 C 242.91 33.34 237.84 35.15 233.31 37.83 C 235.15 45.18 237.57 53.53 233.59 60.61 C 231.49 64.93 226.15 65.75 221.95 66.63 C 214.61 66.10 210.90 58.93 205.89 54.58 C 205.93 52.42 206.89 49.69 204.50 48.43 C 201.51 45.35 197.77 48.44 195.05 50.21 C 195.35 51.20 195.66 52.20 195.97 53.20 C 188.65 57.56 180.91 61.17 173.54 65.43 C 159.03 72.42 145.37 81.06 130.78 87.90 C 124.12 91.36 117.59 95.09 111.08 98.80 C 111.11 99.06 111.17 99.56 111.20 99.82 C 112.69 100.26 114.03 99.17 115.38 98.73 C 139.26 87.23 162.07 73.66 185.83 61.92 C 189.87 60.04 193.48 56.21 198.19 56.50 C 197.29 57.23 196.37 57.96 195.45 58.67 C 195.40 59.08 195.30 59.90 195.25 60.32 C 196.33 61.14 197.39 61.98 198.44 62.83 C 196.80 68.24 195.46 73.79 192.84 78.84 C 191.01 82.15 190.47 85.92 189.34 89.49 C 189.96 89.85 191.20 90.59 191.82 90.96 C 185.40 94.67 178.40 99.50 176.86 107.27 C 178.98 107.57 181.29 107.45 183.06 108.88 C 180.13 109.12 177.20 108.89 174.27 108.84 C 171.90 110.43 169.34 111.69 166.89 113.12 C 166.86 113.59 166.82 114.53 166.80 115.00 C 166.84 116.29 166.85 117.58 166.82 118.87 C 169.41 117.76 172.41 116.87 175.16 117.94 C 177.18 120.30 178.80 122.97 180.55 125.53 C 183.52 124.17 186.85 123.48 189.32 121.19 C 189.72 119.29 190.21 117.42 190.55 115.51 C 189.29 112.83 188.46 109.95 187.86 107.06 C 187.43 104.90 189.38 103.42 190.47 101.83 C 189.68 104.26 188.98 106.79 190.12 109.26 C 189.74 111.19 190.01 113.28 192.23 113.80 L 191.65 116.06 C 193.44 113.49 195.86 111.04 196.20 107.78 C 195.84 107.42 195.13 106.70 194.78 106.34 C 193.57 101.46 196.53 97.42 199.30 93.78 C 199.83 94.74 200.29 95.75 201.07 96.54 C 203.58 89.81 200.56 82.68 202.32 75.80 C 202.62 78.47 202.89 81.21 204.19 83.61 C 207.20 74.33 204.81 64.45 206.13 54.94 C 208.74 57.80 207.23 61.63 207.57 65.05 C 208.04 69.74 207.61 74.44 207.71 79.13 C 207.79 79.98 207.53 80.71 206.93 81.31 C 204.89 84.49 204.26 88.24 204.22 91.96 C 204.37 95.69 201.45 98.46 200.85 102.02 C 199.16 107.68 197.52 114.20 192.22 117.61 C 190.26 120.20 188.29 122.81 186.79 125.71 C 185.30 126.82 183.88 128.02 182.54 129.30 C 182.78 130.08 183.26 131.65 183.50 132.43 C 183.97 132.74 184.92 133.37 185.40 133.68 C 185.93 136.74 186.78 139.95 185.56 142.98 C 184.13 147.21 179.88 149.31 176.27 151.38 C 176.28 151.82 176.32 152.71 176.33 153.16 C 176.01 153.57 175.38 154.39 175.06 154.81 C 171.52 158.56 166.51 160.38 162.49 163.54 C 157.86 167.02 151.94 166.48 146.53 165.95 C 146.56 175.60 146.07 185.25 146.58 194.89 C 143.43 196.24 140.58 198.22 138.28 200.77 C 135.76 199.83 133.22 198.92 130.68 198.05 C 130.45 198.18 129.98 198.44 129.75 198.57 L 130.93 196.92 L 129.98 197.90 C 117.75 193.56 105.45 189.40 93.14 185.32 C 83.80 183.10 75.26 178.47 65.91 176.28 C 58.70 178.55 52.05 182.19 45.22 185.34 C 43.50 184.70 41.74 184.15 39.95 183.71 C 39.33 183.54 38.09 183.19 37.46 183.01 C 36.87 179.24 36.75 175.41 36.69 171.60 C 41.70 169.15 46.88 167.04 51.83 164.47 C 51.47 159.42 52.97 154.47 52.56 149.43 C 53.29 144.30 52.14 139.11 52.99 133.98 C 53.89 127.96 51.30 122.05 52.13 116.03 C 52.28 113.84 52.37 111.65 52.55 109.47 C 50.90 108.35 49.30 107.17 47.66 106.06 C 48.05 105.47 48.44 104.88 48.84 104.30 C 53.44 108.25 58.74 111.23 63.90 114.37 C 65.29 115.15 66.24 116.45 67.31 117.60 C 65.36 110.72 65.01 102.50 69.39 96.47 C 72.72 93.57 77.29 90.63 81.90 92.12 C 85.54 93.15 88.43 95.71 91.09 98.27 C 92.17 98.07 93.26 97.87 94.35 97.73 C 93.71 98.09 92.44 98.80 91.80 99.16 C 93.01 101.03 94.04 103.00 95.25 104.87 L 96.60 103.77 C 95.76 105.94 96.40 108.41 99.09 107.85 C 97.52 112.92 100.66 117.84 100.18 122.96 C 99.79 127.64 98.63 132.75 94.88 135.94 C 91.45 137.42 87.62 139.76 83.80 138.26 C 78.21 136.54 74.21 131.80 71.32 126.94 C 71.42 128.64 71.49 130.34 71.53 132.05 C 69.51 133.01 67.49 133.99 65.50 135.02 C 65.15 142.91 65.53 150.80 65.62 158.70 C 70.77 156.59 75.68 153.82 81.00 152.18 C 83.45 152.75 85.65 154.01 87.94 155.01 C 88.51 156.15 89.09 157.28 89.68 158.42 C 89.58 160.33 89.70 162.27 89.26 164.15 C 86.85 166.18 83.74 167.11 80.94 168.47 C 92.91 173.09 105.29 176.57 117.46 180.61 C 122.46 181.93 127.24 184.00 132.35 184.89 C 131.71 176.65 131.60 168.37 131.37 160.12 C 131.45 158.70 130.07 158.02 129.11 157.28 C 122.16 152.80 114.94 148.77 107.83 144.58 C 104.26 142.14 100.84 139.48 97.02 137.41 C 96.95 137.06 96.81 136.36 96.74 136.02 C 96.85 135.72 97.09 135.14 97.20 134.85 C 104.16 138.65 110.25 143.90 117.57 147.04 C 115.41 143.89 111.49 142.69 109.04 139.88 C 106.82 135.52 104.47 131.14 103.33 126.34 C 102.61 125.28 100.73 124.74 101.17 123.21 C 101.54 123.00 102.28 122.58 102.65 122.37 C 101.13 118.26 99.27 114.24 98.88 109.81 C 102.28 113.72 103.44 119.09 105.14 123.92 C 105.05 128.99 108.42 133.15 110.13 137.70 L 110.90 137.87 C 110.99 137.69 111.16 137.35 111.25 137.18 C 111.14 138.38 111.29 139.66 112.52 140.22 C 116.39 142.74 119.54 146.14 123.34 148.74 C 124.36 147.36 125.40 145.98 126.42 144.59 C 124.94 143.40 123.44 142.23 121.98 141.02 C 123.86 141.94 125.71 142.95 127.57 143.92 C 127.73 144.49 128.06 145.62 128.22 146.18 C 127.01 147.11 125.78 148.01 124.52 148.87 C 128.30 148.22 131.49 150.58 135.08 150.96 C 138.58 150.59 142.48 150.47 145.31 148.13 C 148.71 147.30 152.17 146.59 155.69 146.96 C 155.45 146.20 154.96 144.69 154.71 143.93 C 155.50 144.87 156.28 145.82 157.08 146.76 C 157.68 146.07 158.87 144.69 159.47 144.00 L 157.34 144.64 C 157.35 142.96 157.31 141.29 157.27 139.62 C 159.78 145.08 165.11 148.81 170.92 149.92 C 174.56 149.83 178.21 148.39 180.97 146.01 C 182.44 144.00 183.32 141.64 184.55 139.48 C 184.00 137.20 183.09 135.03 181.99 132.95 C 179.11 128.14 177.29 122.49 172.94 118.73 C 169.49 117.24 167.04 120.95 165.18 123.27 C 162.84 126.13 162.35 129.82 162.21 133.38 C 161.80 133.38 161.00 133.39 160.59 133.39 C 160.00 128.99 161.21 124.78 164.01 121.36 C 162.51 121.18 161.00 120.99 159.51 120.78 C 161.90 120.31 164.28 119.78 166.63 119.12 C 165.39 117.51 163.57 116.74 161.58 116.56 C 158.79 117.37 155.89 117.15 153.06 116.69 L 154.23 118.65 C 153.00 119.75 151.59 120.73 150.71 122.16 C 151.94 126.12 154.53 129.64 154.69 133.92 C 155.85 134.71 157.10 135.35 158.33 136.02 C 158.31 136.47 158.28 137.36 158.26 137.81 C 155.53 136.80 152.91 135.54 150.29 134.29 C 151.20 133.47 151.96 132.24 153.50 132.63 C 151.92 130.30 150.73 127.75 149.65 125.17 C 150.40 121.78 151.07 118.34 152.76 115.26 C 156.59 117.33 160.79 116.55 164.82 115.67 C 165.88 113.51 167.41 111.53 167.95 109.14 C 167.32 107.36 165.34 106.77 163.95 105.75 C 163.85 105.20 163.66 104.08 163.56 103.53 C 157.43 101.37 150.37 98.83 144.16 102.11 C 144.50 102.53 145.19 103.38 145.54 103.80 C 143.02 106.91 138.78 105.78 135.52 107.42 C 132.85 108.64 131.32 111.33 129.22 113.27 C 128.79 118.64 129.60 124.12 132.53 128.74 C 133.25 128.14 133.96 127.52 134.66 126.89 C 134.15 125.60 133.67 124.30 133.22 122.98 C 134.41 125.10 134.92 127.45 134.97 129.86 C 135.45 130.17 136.42 130.80 136.91 131.12 C 136.91 129.73 136.98 128.35 137.10 126.97 C 139.42 126.48 138.25 129.73 138.67 130.84 C 139.45 130.66 141.01 130.31 141.79 130.13 C 142.92 129.93 144.06 129.18 145.23 129.52 C 146.41 130.71 146.91 132.33 147.60 133.82 C 145.71 133.39 143.82 132.93 141.89 132.76 C 138.89 131.97 137.97 136.78 135.00 135.88 C 135.54 134.93 136.12 134.01 136.74 133.11 C 132.63 130.77 127.91 129.76 123.20 130.00 C 123.40 131.07 123.59 132.16 123.77 133.24 C 121.76 130.84 120.52 127.90 118.43 125.57 C 114.28 121.55 110.39 116.66 109.18 110.90 C 109.70 106.62 109.75 102.32 109.40 98.02 C 108.29 96.74 106.71 96.06 105.28 95.24 C 101.76 97.55 98.51 100.27 95.17 102.78 C 93.67 101.67 94.56 99.61 96.12 99.09 C 98.89 97.43 101.55 95.60 104.00 93.49 C 106.61 93.62 108.98 94.66 111.32 95.72 C 114.06 95.26 116.41 93.42 118.96 92.33 C 114.67 92.47 110.37 92.60 106.08 92.41 C 109.05 90.31 112.73 89.42 116.31 90.18 C 116.24 89.90 116.09 89.32 116.02 89.04 L 118.20 89.25 C 115.43 85.20 109.36 86.42 107.04 81.84 C 103.10 80.66 100.28 77.69 97.04 75.37 C 93.53 74.53 89.92 75.30 86.63 76.59 C 85.28 78.50 83.92 80.40 82.62 82.33 C 83.25 82.31 84.50 82.25 85.13 82.22 C 84.63 82.69 83.65 83.64 83.16 84.11 C 86.52 84.76 89.87 83.45 93.23 84.05 C 90.27 86.41 86.11 87.46 82.60 85.67 C 78.43 83.52 73.87 80.94 69.00 81.99 C 60.93 84.91 57.45 95.56 61.62 102.91 C 61.60 103.41 61.56 104.41 61.55 104.91 C 63.87 105.29 65.96 106.09 65.45 108.99 C 62.18 108.52 59.37 106.77 57.56 104.02 C 57.58 103.47 57.62 102.38 57.63 101.83 C 53.05 99.88 50.09 95.82 46.52 92.59 C 44.65 90.89 42.84 93.66 41.26 94.50 C 39.64 95.38 40.62 97.51 40.30 98.97 C 42.73 100.38 45.10 101.91 47.65 103.11 C 47.00 103.63 46.36 104.14 45.71 104.65 C 45.19 109.73 44.75 114.84 44.63 119.95 C 45.28 125.73 48.41 131.44 46.52 137.31 C 43.73 138.09 40.92 139.11 37.97 138.81 C 34.87 138.73 32.76 136.09 29.98 135.09 C 25.88 133.44 21.02 132.54 18.04 129.01 C 17.21 126.76 16.44 123.38 18.97 121.93 C 20.35 120.70 22.17 120.22 23.96 120.03 C 27.14 119.69 30.15 118.53 33.30 118.04 C 34.02 114.74 34.96 111.46 35.01 108.06 C 35.30 102.64 33.76 97.29 34.24 91.86 C 34.65 86.11 35.86 80.45 36.83 74.78 C 37.33 70.90 41.63 69.20 45.04 68.78 C 50.67 69.03 56.16 70.97 60.65 74.39 C 60.99 71.01 60.44 67.53 61.30 64.23 C 62.49 62.40 64.37 61.18 65.95 59.72 C 71.16 59.31 76.72 59.79 81.16 62.79 C 85.07 65.51 89.35 67.78 92.76 71.16 C 94.55 72.66 96.48 75.18 99.12 73.93 C 101.71 76.91 105.30 78.46 108.61 80.35 C 110.89 83.94 115.57 83.77 118.57 86.39 C 119.51 87.94 119.90 89.75 120.49 91.45 C 129.36 86.10 139.14 82.45 147.80 76.73 C 152.39 73.69 157.58 71.75 162.54 69.43 C 172.35 63.57 182.71 58.73 192.64 53.05 C 192.64 51.93 192.64 50.80 192.64 49.67 C 196.05 47.82 199.37 43.97 203.62 45.73 C 201.27 39.75 201.34 32.67 203.81 26.73 C 205.23 22.95 209.27 21.56 212.47 19.67 M 205.28 27.34 C 202.31 33.12 203.93 39.67 204.47 45.78 C 206.00 47.04 207.52 48.29 209.03 49.57 C 211.22 47.64 214.84 46.89 215.51 43.67 C 212.36 44.42 209.55 46.35 206.26 46.52 C 208.57 44.28 211.46 42.73 214.43 41.56 C 215.92 42.80 217.41 44.60 216.63 46.67 C 214.13 49.30 209.25 49.35 208.18 53.18 C 210.12 57.42 213.80 60.75 217.65 63.28 C 220.07 65.07 223.11 64.40 225.80 63.80 C 226.65 60.25 228.06 56.77 228.05 53.07 C 228.29 43.65 224.45 33.94 217.28 27.72 C 215.68 26.04 212.64 25.59 212.00 23.18 C 214.40 22.69 216.31 24.49 218.05 25.84 C 224.09 31.12 227.94 38.66 229.38 46.50 C 230.43 51.34 230.58 56.88 227.71 61.15 C 228.20 61.65 228.70 62.14 229.21 62.63 C 235.53 56.78 235.29 46.88 232.42 39.38 C 229.46 30.71 223.00 21.61 212.98 21.19 C 210.17 22.86 206.56 24.01 205.28 27.34 M 231.67 33.93 C 231.96 34.41 232.55 35.37 232.85 35.85 C 237.27 34.47 241.12 31.71 245.37 29.89 C 244.71 29.24 244.04 28.59 243.37 27.94 C 239.60 30.18 235.70 32.20 231.67 33.93 M 182.91 64.78 C 167.69 73.29 152.36 81.57 137.10 89.98 C 135.08 91.13 133.00 92.26 131.40 93.96 C 134.29 94.68 137.19 93.65 140.10 93.74 C 141.86 93.85 144.31 92.65 144.81 95.26 C 146.32 95.96 147.69 96.91 149.01 97.92 C 154.31 97.82 158.94 100.19 163.15 103.15 C 166.95 104.71 169.57 108.89 174.06 108.42 C 176.19 101.36 181.12 94.99 187.76 91.64 C 188.32 87.90 188.45 84.01 189.80 80.44 C 192.38 75.02 195.11 69.42 195.71 63.37 C 194.39 62.35 192.90 61.59 191.47 60.75 C 188.67 62.21 185.72 63.35 182.91 64.78 M 63.42 62.55 C 62.02 65.26 62.30 68.26 63.25 71.06 C 62.91 72.41 62.56 73.76 62.22 75.12 C 64.97 76.43 68.36 77.26 69.74 80.30 C 73.28 80.26 76.84 80.56 80.21 81.75 C 81.59 80.00 82.91 78.17 84.53 76.63 C 87.06 75.14 90.06 74.74 92.91 74.22 C 90.40 71.24 87.92 67.96 84.07 66.66 C 77.78 63.54 70.53 59.14 63.42 62.55 M 41.77 71.71 C 38.35 74.23 37.29 78.90 37.28 82.96 C 37.14 88.98 36.27 94.97 36.39 101.00 C 36.35 105.72 38.36 110.12 39.01 114.74 C 38.38 113.76 37.14 111.79 36.51 110.80 C 36.40 113.56 35.54 116.19 34.54 118.73 C 29.48 121.47 23.78 122.29 18.19 123.22 C 18.74 127.28 21.79 130.09 25.49 131.42 C 31.66 133.63 38.05 138.40 44.82 135.49 C 45.58 128.20 43.12 121.18 42.71 113.96 C 42.70 110.39 43.43 106.87 43.42 103.29 C 41.81 102.31 40.13 101.41 38.70 100.17 C 38.40 98.12 38.54 95.99 39.06 93.99 C 40.44 91.79 43.33 91.40 45.44 90.10 C 49.59 92.43 52.97 95.82 56.87 98.51 C 56.97 95.18 56.76 91.56 58.71 88.67 C 60.90 84.65 65.04 82.37 69.07 80.57 C 63.52 77.96 58.07 75.11 52.74 72.07 C 49.48 69.81 45.30 70.73 41.77 71.71 M 69.66 98.85 C 66.69 104.50 67.07 111.42 68.75 117.41 C 69.10 117.51 69.79 117.72 70.14 117.83 C 72.76 116.39 77.09 115.79 77.07 112.07 C 77.14 112.34 77.29 112.88 77.36 113.15 C 79.79 113.66 82.30 115.90 81.57 118.60 C 79.85 120.49 75.81 120.71 76.46 124.01 C 76.21 123.58 75.72 122.72 75.47 122.29 C 74.03 123.04 72.59 123.80 71.16 124.57 C 75.08 129.56 79.12 135.94 86.05 136.63 C 90.22 135.90 95.36 134.48 96.81 129.92 C 99.20 123.27 98.33 115.72 95.72 109.26 C 92.53 101.66 86.51 94.23 77.78 93.25 C 74.99 94.92 71.13 95.63 69.66 98.85 M 122.63 97.11 C 126.25 97.99 129.75 99.32 132.98 101.20 C 133.33 99.65 133.66 98.11 133.98 96.56 C 132.29 95.79 130.64 94.91 128.85 94.38 C 126.62 94.86 124.70 96.22 122.63 97.11 M 134.61 97.97 C 134.62 99.58 134.63 101.19 134.62 102.80 C 129.34 102.82 125.12 98.44 119.83 98.64 C 116.97 99.69 114.38 101.31 111.69 102.70 C 111.59 105.09 111.44 107.47 111.27 109.85 L 112.54 109.33 C 111.91 112.25 112.55 115.24 114.61 117.48 C 117.70 120.85 119.45 125.17 122.51 128.57 C 124.86 127.89 127.25 127.34 129.67 126.93 C 126.78 121.84 126.87 114.96 130.31 110.11 C 133.55 106.64 137.79 104.05 142.56 103.39 C 143.84 101.26 145.84 99.79 147.89 98.46 C 144.38 96.87 140.77 95.33 136.85 95.19 C 136.10 96.11 135.35 97.04 134.61 97.97 M 199.20 96.30 C 197.91 98.44 196.36 100.56 196.11 103.13 C 195.29 103.53 196.03 107.00 197.04 105.14 C 197.97 102.77 198.95 100.41 200.14 98.16 C 199.83 97.53 199.52 96.91 199.20 96.30 M 54.53 111.03 C 53.92 120.68 55.26 130.34 54.30 139.98 C 54.58 148.72 53.73 157.49 54.47 166.21 C 49.47 168.53 44.17 170.16 39.23 172.63 C 39.21 175.59 39.23 178.56 39.30 181.52 C 41.40 182.07 43.50 182.62 45.63 183.09 C 45.71 182.59 45.87 181.60 45.95 181.10 C 46.11 181.55 46.43 182.45 46.59 182.90 C 54.29 179.67 61.40 175.11 69.37 172.55 C 69.39 173.10 69.42 174.21 69.44 174.76 C 92.30 182.67 115.35 189.94 138.25 197.70 C 140.40 196.23 142.54 194.72 144.75 193.32 C 142.84 184.36 144.63 175.19 145.65 166.24 C 142.68 162.81 137.73 162.78 133.83 160.99 C 133.97 162.73 134.10 164.47 134.21 166.22 L 132.79 166.74 L 134.85 166.46 C 133.15 173.44 135.06 180.73 134.47 187.84 C 124.33 184.80 114.26 181.50 104.12 178.42 C 95.11 175.03 86.01 171.62 76.48 169.99 C 76.46 169.11 76.44 168.22 76.42 167.34 C 77.00 167.36 78.17 167.38 78.75 167.40 C 81.66 166.02 84.60 164.69 87.46 163.22 C 87.29 160.72 87.29 158.12 86.22 155.80 C 83.14 154.30 79.72 154.18 76.43 154.99 C 72.69 158.09 67.97 159.53 63.80 161.93 C 63.57 151.18 62.64 140.41 63.59 129.67 C 63.90 129.54 64.53 129.28 64.84 129.15 C 65.06 129.85 65.50 131.25 65.71 131.95 C 66.95 131.61 68.19 131.29 69.43 130.96 C 69.95 128.98 70.47 127.01 70.88 125.02 C 66.68 126.91 62.56 128.97 58.61 131.35 C 57.10 129.89 55.36 128.23 55.92 125.89 C 58.28 124.19 61.04 123.13 63.57 121.71 C 63.94 119.93 64.35 118.15 64.77 116.38 C 61.31 114.68 57.84 113.00 54.53 111.03 M 60.04 125.15 C 60.52 126.08 61.01 127.00 61.50 127.93 C 67.60 123.74 74.57 121.05 80.66 116.85 C 80.07 116.64 78.90 116.23 78.31 116.02 C 71.94 118.48 66.48 122.81 60.04 125.15 M 65.50 120.18 C 66.84 121.07 68.22 118.69 67.02 117.77 C 65.58 116.72 64.46 119.22 65.50 120.18 M 58.16 128.65 C 59.50 128.45 59.71 127.75 58.79 126.57 C 57.45 126.78 57.24 127.47 58.16 128.65 M 153.95 149.33 C 148.83 150.06 144.15 152.49 139.00 153.11 C 135.18 154.28 131.71 151.49 127.91 151.64 C 125.88 151.81 124.03 151.02 122.18 150.34 C 122.69 150.67 123.72 151.32 124.24 151.64 C 127.29 152.64 130.07 154.29 132.66 156.15 C 136.77 159.15 141.63 160.86 145.84 163.70 C 149.93 163.72 154.16 164.36 158.12 162.98 C 161.81 161.81 164.42 158.75 167.79 156.98 C 170.41 155.64 172.98 154.15 175.23 152.23 C 169.82 152.84 163.34 151.82 160.97 146.20 C 158.80 147.56 156.54 148.95 153.95 149.33 Z" />
<path fill="#333333" opacity="1.00" d=" M 66.80 71.11 C 71.04 69.69 76.73 68.23 80.04 72.18 C 75.66 71.49 71.20 71.70 66.80 71.11 Z" />
<path fill="#333333" opacity="1.00" d=" M 66.46 74.33 C 69.04 75.02 71.65 75.59 74.29 75.99 C 74.37 76.42 74.53 77.28 74.61 77.71 C 71.75 77.26 68.91 76.70 66.08 76.11 C 66.17 75.66 66.36 74.78 66.46 74.33 Z" />
<path fill="#333333" opacity="1.00" d=" M 39.39 85.60 C 41.05 85.05 42.69 84.46 44.31 83.81 C 47.21 87.50 51.34 89.75 55.08 92.43 C 49.94 93.32 46.70 88.30 43.00 85.70 C 42.10 85.68 40.29 85.62 39.39 85.60 Z" />
<path fill="#333333" opacity="1.00" d=" M 92.23 91.16 C 94.48 89.17 97.82 88.52 100.50 90.03 C 96.39 91.35 92.06 91.53 87.85 92.38 C 88.27 91.49 88.71 90.61 89.18 89.75 C 90.24 90.11 91.23 90.65 92.23 91.16 Z" />
<path fill="#333333" opacity="1.00" d=" M 76.35 94.68 C 79.01 95.33 81.54 96.61 83.21 98.84 C 90.21 106.01 94.25 115.94 94.06 125.98 C 91.13 123.14 92.09 118.75 90.78 115.20 C 89.38 109.14 85.61 104.00 81.42 99.55 C 79.70 97.93 76.87 97.32 76.35 94.68 Z" />
<path fill="#333333" opacity="1.00" d=" M 118.59 108.05 C 122.08 107.02 124.87 103.99 128.71 104.27 C 129.01 104.75 129.61 105.71 129.92 106.19 C 129.04 106.26 127.27 106.39 126.39 106.46 C 126.05 106.85 125.37 107.62 125.03 108.00 C 122.73 108.69 120.45 109.42 118.16 110.12 C 118.27 109.61 118.48 108.57 118.59 108.05 Z" />
<path fill="#333333" opacity="1.00" d=" M 120.11 114.06 C 121.09 113.38 122.11 112.76 123.14 112.14 C 123.18 112.83 123.28 114.21 123.33 114.90 C 122.25 114.63 121.18 114.35 120.11 114.06 Z" />
<path fill="#333333" opacity="1.00" d=" M 120.62 116.68 C 121.11 116.53 122.10 116.22 122.59 116.07 C 122.46 117.52 122.33 118.97 122.20 120.42 C 121.72 120.46 120.78 120.54 120.30 120.58 C 120.40 119.28 120.51 117.98 120.62 116.68 Z" />
<path fill="#333333" opacity="1.00" d=" M 40.08 119.48 C 40.71 119.66 41.33 119.87 41.95 120.10 C 41.99 123.12 41.74 126.15 41.28 129.14 C 40.44 127.82 39.69 126.46 38.84 125.16 C 36.91 123.77 35.70 126.91 34.09 127.60 C 33.11 126.91 32.13 126.21 31.14 125.52 C 33.82 124.84 36.56 124.32 39.04 123.06 C 39.76 122.05 40.11 120.86 40.08 119.48 Z" />
<path fill="#333333" opacity="1.00" d=" M 92.06 124.99 C 94.82 127.84 93.75 133.17 90.28 135.01 C 90.86 131.66 91.98 128.41 92.06 124.99 Z" />
<path fill="#333333" opacity="1.00" d=" M 124.94 132.55 C 126.34 133.37 127.85 134.12 128.89 135.41 C 127.53 135.47 126.17 135.50 124.81 135.50 C 124.85 134.52 124.89 133.53 124.94 132.55 Z" />
<path fill="#333333" opacity="1.00" d=" M 143.68 136.49 C 148.22 136.77 148.95 142.23 147.91 145.71 C 146.51 142.63 145.38 139.43 143.68 136.49 Z" />
<path fill="#333333" opacity="1.00" d=" M 130.52 140.48 C 133.58 140.40 135.90 144.13 134.78 146.69 C 133.51 146.35 132.28 145.88 131.04 145.45 C 131.62 145.51 132.77 145.63 133.35 145.69 C 132.42 143.95 131.44 142.23 130.52 140.48 Z" />
</g>
</svg>
