<?xml version="1.0" encoding="UTF-8" ?>
<!DOCTYPE svg PUBLIC "-//W3C//DTD SVG 1.1//EN" "http://www.w3.org/Graphics/SVG/1.1/DTD/svg11.dtd">
<svg width="189pt" height="225pt" viewBox="0 0 189 225" version="1.1" xmlns="http://www.w3.org/2000/svg">
<g id="#ffffffff">
<path fill="#FFFFFF" opacity="1.00" d=" M 0.00 0.00 L 189.00 0.00 L 189.00 225.00 L 0.00 225.00 L 0.00 0.00 M 110.20 12.32 C 109.14 13.54 108.08 14.76 107.00 15.96 C 106.55 21.48 105.75 27.47 108.34 32.60 C 109.36 35.05 110.24 37.61 111.99 39.66 C 109.76 41.27 107.52 42.93 104.87 43.76 C 105.42 43.10 106.53 41.78 107.08 41.12 C 103.36 38.09 98.47 37.26 94.30 35.01 C 94.53 30.93 89.60 29.56 86.42 30.40 C 81.01 34.74 78.49 41.50 75.95 47.73 C 69.75 64.21 63.58 80.94 61.49 98.52 C 59.65 99.47 57.64 99.99 55.60 100.31 C 55.65 100.62 55.75 101.25 55.80 101.56 C 50.93 101.95 46.32 103.92 42.09 106.26 C 37.65 108.64 34.99 113.26 30.60 115.73 C 28.37 117.00 26.50 118.87 25.40 121.21 C 23.52 126.03 27.08 131.00 25.43 135.91 C 27.73 141.32 27.82 147.32 29.61 152.89 C 30.42 158.26 33.35 164.56 29.42 169.39 C 25.74 172.33 23.08 176.49 19.03 178.92 C 15.22 180.03 12.16 182.69 9.69 185.71 C 10.79 186.75 11.81 187.91 13.03 188.83 C 18.01 189.80 23.14 189.16 28.14 188.76 C 30.18 188.64 31.02 186.43 32.77 185.71 C 35.86 183.61 39.64 184.92 43.08 184.60 C 46.12 184.76 48.23 182.28 50.50 180.66 C 49.74 177.82 50.36 174.78 49.37 171.98 C 48.41 169.06 46.80 166.40 45.70 163.54 C 45.12 158.02 43.76 152.56 44.58 146.99 C 45.48 141.60 43.27 136.52 42.88 131.22 C 47.31 128.70 52.45 128.60 57.41 128.59 C 57.84 127.71 58.27 126.82 58.70 125.94 C 52.59 125.97 46.73 127.55 40.88 129.15 C 40.52 129.99 40.17 130.84 39.83 131.69 C 41.65 136.58 42.74 141.74 42.98 146.96 C 43.28 151.34 42.17 155.71 43.03 160.08 C 44.11 166.19 45.86 172.20 48.46 177.85 C 47.82 179.01 47.70 180.65 46.46 181.40 C 43.09 183.86 38.72 182.04 34.92 182.57 C 31.60 182.67 29.18 185.19 26.54 186.87 C 22.13 186.32 17.76 187.89 13.42 187.14 C 14.20 183.19 18.10 181.61 21.45 180.39 C 24.93 177.52 26.80 173.15 30.49 170.46 C 34.87 167.21 34.69 160.88 32.47 156.41 C 30.38 152.23 30.73 147.46 30.15 142.95 C 29.68 140.51 27.65 138.66 27.40 136.14 C 26.88 132.45 26.89 128.70 26.18 125.04 C 25.43 121.41 29.03 119.29 31.28 117.17 C 34.69 114.29 36.84 109.93 41.08 108.09 C 45.75 105.93 50.64 104.13 55.80 103.64 C 58.57 103.42 62.08 102.36 64.21 104.79 C 67.58 108.57 70.22 114.15 68.42 119.19 C 64.32 120.70 62.18 124.97 60.17 128.55 C 57.54 129.62 56.24 132.42 54.80 134.69 C 54.25 137.73 54.83 140.87 54.17 143.92 C 53.41 147.56 54.90 151.29 53.87 154.93 C 52.37 160.16 52.74 165.63 52.99 170.99 C 53.25 175.88 52.43 180.74 51.56 185.54 C 48.32 189.33 45.45 193.41 42.56 197.47 C 40.28 200.86 35.29 201.95 34.49 206.37 C 33.59 207.85 34.55 209.43 36.04 209.97 C 41.37 212.10 47.54 213.68 53.00 211.01 C 57.66 207.51 61.56 203.08 66.19 199.53 C 69.05 194.39 65.90 188.60 66.19 183.19 C 67.14 178.60 68.12 173.99 70.07 169.71 C 71.43 163.68 73.48 157.18 71.33 151.10 C 71.07 150.00 69.94 150.28 69.13 150.42 C 69.90 155.33 71.15 161.28 67.89 165.59 C 66.82 172.37 63.98 178.96 64.71 185.94 C 64.99 189.41 64.88 193.06 66.46 196.26 C 64.73 198.32 62.28 199.50 60.16 201.07 C 58.25 202.82 56.43 204.69 54.58 206.50 C 50.42 212.05 42.61 209.49 36.76 209.27 C 36.87 207.68 37.00 206.09 37.13 204.51 C 38.96 203.60 41.01 202.82 42.10 200.98 C 45.54 195.90 50.29 191.79 53.51 186.57 C 54.53 179.78 53.78 172.88 54.66 166.07 C 54.80 156.62 55.91 147.23 56.63 137.82 C 56.99 132.26 62.14 129.18 64.53 124.60 C 67.54 119.00 73.66 116.35 79.08 113.68 C 85.31 113.52 91.57 118.55 92.02 124.88 C 92.58 124.25 93.16 123.62 93.74 123.00 C 92.77 119.29 89.15 117.43 87.64 114.03 C 85.21 112.81 82.71 111.74 80.14 110.88 C 82.82 110.81 85.34 109.82 87.86 109.01 C 88.21 108.45 88.91 107.32 89.26 106.76 C 87.45 107.18 85.62 107.54 83.78 107.83 C 83.50 105.71 84.92 102.42 82.17 101.48 C 81.91 103.72 81.80 105.96 81.89 108.21 C 76.59 108.36 74.97 113.81 71.95 117.14 C 71.20 113.90 70.99 110.47 69.55 107.44 C 67.73 105.05 65.37 103.10 63.68 100.59 C 68.13 100.39 72.58 99.50 76.56 97.42 C 78.83 96.07 80.40 93.56 83.05 92.90 C 85.31 92.61 87.59 92.43 89.84 92.03 C 95.28 94.77 101.17 96.52 106.49 99.56 C 109.45 101.36 113.40 102.38 114.73 105.95 C 114.21 107.06 113.70 108.18 113.19 109.30 C 113.59 109.33 114.40 109.41 114.80 109.44 C 114.97 111.64 115.38 113.83 115.38 116.05 C 114.85 119.10 113.36 121.85 112.09 124.63 C 111.48 124.88 110.26 125.38 109.66 125.63 C 109.04 125.68 107.81 125.78 107.19 125.83 C 102.75 127.92 97.42 128.77 94.51 133.18 C 94.73 130.08 95.15 126.86 94.11 123.86 C 93.48 124.67 92.85 125.50 92.24 126.33 C 92.24 128.47 92.12 130.62 91.79 132.74 C 87.42 135.04 83.50 138.31 78.60 139.49 C 75.48 140.19 72.80 141.90 70.52 144.11 C 70.59 142.96 70.74 140.68 70.81 139.54 C 70.43 139.69 69.67 139.99 69.28 140.14 C 68.32 143.44 68.07 146.94 69.09 150.27 C 69.70 149.08 70.18 147.83 70.63 146.57 C 72.41 145.99 73.85 144.83 75.21 143.59 C 77.43 141.53 80.55 141.28 83.28 140.32 C 86.67 139.31 89.53 137.17 92.56 135.43 C 92.88 135.72 93.50 136.29 93.81 136.57 C 98.07 135.79 102.19 137.80 106.46 137.69 C 104.78 141.04 103.48 144.55 102.79 148.24 C 102.03 146.55 101.81 144.71 101.55 142.90 C 101.57 145.11 101.14 147.41 102.14 149.48 C 100.67 152.86 99.37 156.42 99.49 160.17 C 100.22 158.97 100.54 157.58 100.94 156.25 C 104.81 150.72 106.57 144.04 108.11 137.56 C 110.41 137.57 112.71 137.55 115.02 137.45 C 112.82 140.94 112.46 145.10 111.07 148.90 C 109.91 152.20 108.89 155.58 108.50 159.06 L 110.34 158.29 C 107.58 161.48 104.79 164.64 102.26 168.02 C 100.49 171.21 96.11 170.86 93.19 169.73 C 88.14 167.19 82.76 165.42 77.52 163.31 C 81.69 166.80 87.07 168.26 91.80 170.80 C 94.55 172.15 98.20 174.50 101.03 172.06 C 104.55 168.52 106.90 164.04 109.57 159.87 C 119.86 144.04 130.20 128.23 140.52 112.42 C 146.43 104.89 149.80 95.85 154.28 87.48 C 156.96 81.40 159.64 75.31 162.02 69.12 C 161.41 69.47 160.19 70.19 159.59 70.55 C 156.14 82.53 149.94 93.45 144.09 104.39 C 143.86 93.19 143.82 81.99 144.00 70.79 C 145.28 69.77 146.55 68.74 147.82 67.71 C 151.06 69.42 154.24 71.63 158.01 71.92 C 158.41 71.36 159.23 70.25 159.64 69.70 C 154.32 70.39 150.37 66.03 145.44 64.82 C 143.63 60.52 146.37 54.22 151.10 53.35 C 155.74 55.30 160.18 57.78 165.14 58.92 C 163.26 54.83 158.11 55.41 154.85 53.12 C 152.91 51.73 150.40 51.08 148.10 52.00 C 145.22 54.27 143.58 57.67 141.92 60.85 C 141.43 60.54 140.45 59.92 139.96 59.60 C 140.43 57.09 143.41 56.37 144.93 54.59 C 139.84 54.56 137.22 60.65 132.11 60.64 C 127.18 60.65 122.36 62.69 118.56 65.75 C 123.03 66.28 126.49 62.36 130.98 63.03 C 134.80 63.51 137.90 59.92 141.66 61.73 C 141.54 64.37 143.32 65.96 145.47 67.08 C 140.26 71.02 136.29 76.25 132.32 81.36 C 130.54 83.87 126.20 83.98 126.24 87.74 C 125.64 88.07 124.42 88.72 123.81 89.04 C 124.53 90.44 123.85 91.85 122.97 93.00 C 120.34 96.45 117.64 99.84 115.18 103.42 C 110.45 98.94 104.15 96.40 98.24 93.77 C 93.69 92.61 89.93 88.84 84.95 89.79 L 86.15 88.23 L 85.06 87.91 C 86.31 88.08 87.56 88.25 88.81 88.46 C 88.16 85.05 91.60 82.80 93.31 80.30 C 92.94 79.60 92.56 78.90 92.18 78.21 C 91.45 79.46 89.98 81.96 89.25 83.21 C 89.03 80.08 91.02 77.64 92.25 75.00 C 92.75 76.40 93.24 77.81 93.76 79.21 C 94.21 78.31 95.12 76.51 95.57 75.61 C 94.53 72.34 96.11 69.19 96.80 66.04 C 96.50 65.89 95.91 65.57 95.61 65.42 C 94.10 68.67 93.85 72.28 93.99 75.81 C 90.46 72.45 92.42 67.04 93.54 62.98 C 96.14 60.74 98.73 58.48 100.40 55.42 C 100.23 53.89 99.58 52.09 100.81 50.82 C 104.05 46.35 108.94 43.37 114.00 41.35 C 115.35 41.59 116.69 41.87 118.03 42.19 C 118.25 42.59 118.70 43.38 118.93 43.78 C 119.47 43.34 120.74 43.26 120.41 42.27 L 120.15 41.77 C 122.64 38.81 125.45 35.73 126.04 31.63 C 124.61 32.11 124.40 33.57 123.97 34.78 C 121.67 37.27 119.13 41.60 115.13 40.16 C 111.44 38.15 110.45 33.60 108.84 30.04 C 107.64 24.96 106.69 18.68 110.48 14.44 C 113.09 12.63 116.16 11.63 119.01 10.26 C 123.20 8.24 127.54 12.11 128.61 16.04 C 130.84 20.74 129.76 25.95 129.37 30.89 C 132.30 35.56 133.83 42.07 139.93 43.63 C 138.12 44.55 136.36 46.11 134.20 45.92 C 131.65 45.37 129.61 43.55 127.14 42.80 C 125.13 42.37 123.15 43.37 121.54 44.49 C 123.65 44.91 125.81 44.97 127.94 45.20 C 130.63 45.75 132.97 47.59 135.73 47.80 C 139.87 45.93 144.50 43.59 149.08 45.57 C 153.97 46.34 154.95 52.06 158.87 54.25 C 158.78 49.91 154.71 48.05 151.83 45.68 C 152.31 34.56 161.02 24.81 158.57 13.30 C 152.28 8.72 144.27 9.16 136.97 7.86 C 133.55 7.26 130.65 9.30 128.12 11.27 C 125.86 8.71 122.05 7.67 118.78 8.44 C 115.60 8.94 113.30 11.53 110.20 12.32 M 163.97 61.45 C 162.59 61.19 161.20 60.96 159.81 60.76 C 158.96 62.10 157.63 63.25 157.33 64.86 C 156.92 66.64 159.25 66.75 160.25 67.45 C 157.61 65.25 160.34 61.79 163.18 62.76 C 162.62 64.08 162.06 65.38 161.49 66.69 C 161.96 67.35 162.44 68.00 162.92 68.66 C 163.42 64.61 165.69 61.25 168.06 58.09 C 168.87 57.94 170.48 57.65 171.29 57.50 C 172.42 60.32 173.91 63.28 172.57 66.31 C 172.11 66.59 171.21 67.17 170.75 67.45 C 167.85 75.00 163.41 81.84 160.55 89.41 C 154.21 102.10 147.41 114.58 139.55 126.40 C 132.78 136.21 126.54 146.39 120.86 156.86 C 117.30 162.79 114.73 169.30 110.62 174.89 C 111.03 175.46 111.44 176.03 111.86 176.61 C 116.83 168.90 121.44 160.97 125.76 152.88 C 129.40 146.54 133.70 140.59 137.10 134.11 C 148.45 116.22 159.24 97.90 167.67 78.44 C 172.19 80.90 177.34 80.86 182.15 79.32 C 187.96 76.09 185.60 68.44 183.26 63.68 C 181.89 60.23 177.57 60.02 174.44 60.50 C 173.23 58.65 171.96 56.85 170.74 55.01 C 167.36 55.77 165.51 58.60 163.97 61.45 M 110.26 59.08 C 112.23 60.80 114.82 61.51 117.33 61.94 C 115.90 59.57 112.73 59.37 110.26 59.08 M 96.54 64.12 C 98.41 64.67 100.29 64.25 102.09 63.65 C 101.63 65.85 101.41 68.16 100.18 70.10 C 98.57 72.50 98.97 75.46 98.61 78.17 C 97.72 79.85 96.67 81.44 95.89 83.18 C 97.48 82.67 98.48 81.45 98.97 79.88 C 99.33 79.53 100.07 78.82 100.44 78.46 C 100.52 76.84 100.59 75.22 100.65 73.61 C 102.35 69.49 104.09 65.39 106.08 61.40 C 106.80 62.29 107.52 63.17 108.25 64.05 C 108.26 64.74 108.28 66.12 108.30 66.81 C 109.55 67.90 111.12 68.82 111.69 70.49 C 112.84 72.61 111.10 75.00 112.03 77.15 C 112.48 79.02 113.98 80.26 115.42 81.39 C 113.05 77.32 115.65 72.13 112.38 68.50 C 110.81 66.21 109.81 63.50 107.71 61.61 C 105.97 60.84 104.06 59.99 102.12 60.34 C 99.93 61.02 98.29 62.73 96.54 64.12 M 135.89 66.65 C 137.05 66.62 138.22 66.59 139.38 66.54 C 139.39 65.90 139.42 64.63 139.43 64.00 C 138.22 64.85 137.05 65.74 135.89 66.65 M 127.49 69.28 C 126.24 69.90 125.57 71.83 126.35 73.04 C 128.22 74.06 129.46 69.48 127.49 69.28 M 123.42 73.82 C 124.07 75.81 126.38 78.60 123.27 79.72 C 123.38 81.14 123.82 82.47 125.10 83.24 C 124.78 81.15 125.79 79.41 127.05 77.85 C 127.17 75.80 124.99 74.65 123.42 73.82 M 114.45 83.27 C 109.87 85.39 106.42 89.39 104.85 94.16 C 108.41 91.12 110.85 86.83 115.23 84.73 C 115.04 84.37 114.64 83.64 114.45 83.27 M 143.43 131.98 C 144.25 141.92 144.90 151.90 146.47 161.76 C 139.30 163.59 132.09 165.23 125.10 167.67 C 121.18 169.09 116.28 169.73 114.21 173.86 C 119.81 172.06 125.43 170.31 130.95 168.23 C 136.57 167.42 141.73 165.01 147.31 164.02 C 147.60 162.07 148.34 160.10 147.86 158.12 C 146.19 150.53 146.32 142.72 145.44 135.04 C 144.86 130.77 145.74 126.50 145.83 122.23 C 143.98 125.17 143.04 128.53 143.43 131.98 M 137.14 136.90 C 134.08 142.05 136.70 147.97 136.65 153.51 C 132.98 153.79 129.41 154.71 125.97 155.99 C 124.29 156.43 123.31 157.82 122.79 159.41 C 128.18 157.55 133.60 155.85 139.00 154.03 C 138.65 153.64 137.95 152.86 137.60 152.47 C 137.56 147.28 137.20 142.09 137.14 136.90 M 70.57 168.00 C 80.01 172.13 89.20 177.00 99.25 179.48 C 103.08 180.25 108.45 180.94 110.00 176.26 C 107.44 177.92 104.45 178.90 101.51 177.67 C 93.18 176.61 86.04 171.98 78.41 168.89 C 76.08 168.33 72.02 164.61 70.57 168.00 Z" />
<path fill="#FFFFFF" opacity="1.00" d=" M 130.85 11.81 C 132.94 10.55 135.25 8.55 137.85 9.63 C 141.50 10.64 145.23 11.38 149.00 11.78 C 151.85 12.03 154.90 13.02 156.70 15.39 C 157.42 18.47 157.29 21.94 155.94 24.85 C 153.45 31.06 152.23 37.70 149.61 43.86 C 146.20 42.67 142.55 43.18 139.08 42.36 C 135.67 38.96 130.90 35.53 131.42 30.07 C 132.32 25.23 131.97 20.31 130.91 15.52 C 129.85 14.24 128.84 12.92 127.87 11.57 C 128.61 11.63 130.10 11.75 130.85 11.81 Z" />
<path fill="#FFFFFF" opacity="1.00" d=" M 74.95 55.16 C 79.45 47.29 80.35 37.23 87.85 31.29 C 89.66 30.96 90.60 32.91 91.73 33.93 C 91.76 36.70 88.24 36.22 87.42 38.43 C 85.60 40.87 86.25 43.95 85.99 46.75 C 82.05 54.56 78.20 62.50 76.06 71.02 C 73.57 79.64 70.03 88.25 70.44 97.39 C 73.07 92.63 73.27 86.98 75.07 81.91 C 77.84 75.07 78.43 67.52 81.67 60.84 C 83.81 55.87 86.00 50.92 88.10 45.93 C 90.73 47.35 94.16 51.22 97.20 48.79 C 94.07 47.05 90.89 45.42 87.72 43.74 C 88.91 41.35 89.90 38.88 90.75 36.35 C 95.64 36.48 100.13 39.08 103.68 42.26 C 101.00 41.85 98.49 42.50 97.40 45.19 C 98.09 46.46 98.79 47.74 99.51 48.99 C 98.75 51.26 98.43 53.65 97.58 55.89 C 96.15 59.19 92.49 60.85 91.25 64.28 C 89.94 68.95 89.58 73.79 89.51 78.62 C 86.20 81.44 85.32 85.97 83.15 89.58 C 80.82 91.65 77.39 92.60 76.06 95.63 C 72.10 99.03 67.01 97.44 62.33 97.44 C 64.62 92.39 64.44 86.69 66.49 81.57 C 69.08 72.70 71.60 63.78 74.95 55.16 Z" />
<path fill="#FFFFFF" opacity="1.00" d=" M 99.11 45.58 C 100.84 44.29 103.09 44.49 105.11 44.10 C 103.56 45.38 102.08 46.72 100.70 48.18 C 100.30 47.53 99.51 46.23 99.11 45.58 Z" />
<path fill="#FFFFFF" opacity="1.00" d=" M 174.56 60.68 C 176.38 61.44 178.34 61.95 180.03 63.00 C 182.35 65.87 183.02 69.62 184.37 72.97 C 183.60 77.10 179.47 78.15 175.99 79.20 C 173.25 79.49 170.63 78.42 168.07 77.62 C 171.19 72.39 173.95 66.83 174.56 60.68 Z" />
<path fill="#FFFFFF" opacity="1.00" d=" M 103.22 62.31 C 103.88 62.88 103.88 62.88 103.22 62.31 Z" />
<path fill="#FFFFFF" opacity="1.00" d=" M 134.48 93.98 C 135.60 86.61 139.36 80.02 141.68 73.01 C 142.98 84.02 141.45 95.21 142.87 106.24 C 140.48 110.29 137.90 114.22 135.16 118.05 C 130.34 124.93 126.25 132.26 122.12 139.57 C 120.28 143.64 116.91 146.74 114.86 150.69 C 112.97 153.63 111.76 157.32 108.50 159.06 C 110.64 151.90 115.45 145.36 115.35 137.65 C 118.59 134.75 121.09 130.70 120.53 126.19 C 120.84 125.96 121.47 125.49 121.78 125.25 C 121.16 124.52 120.54 123.79 119.92 123.06 L 120.10 126.09 C 118.97 124.60 117.70 123.24 116.09 122.27 C 116.05 122.12 115.96 121.80 115.92 121.65 C 118.20 121.97 120.49 122.22 122.79 122.40 L 122.56 121.69 C 125.75 118.94 127.39 114.92 128.43 110.95 C 129.69 106.02 131.69 101.27 132.07 96.15 C 132.78 97.05 133.50 97.95 134.23 98.85 C 134.15 104.46 134.70 110.06 134.34 115.66 C 134.66 115.44 135.29 115.00 135.60 114.78 C 134.98 109.55 135.50 104.29 135.19 99.05 C 135.28 96.94 133.97 95.23 133.06 93.45 L 134.48 93.98 Z" />
<path fill="#FFFFFF" opacity="1.00" d=" M 129.97 85.63 C 132.71 83.52 135.21 81.13 137.31 78.37 C 134.10 86.03 131.70 93.99 128.69 101.72 C 127.38 108.18 124.68 114.34 121.22 119.94 C 119.90 119.93 118.59 119.91 117.27 119.91 C 118.00 114.80 117.61 109.46 116.32 104.49 C 122.23 99.25 125.66 92.06 129.97 85.63 Z" />
<path fill="#FFFFFF" opacity="1.00" d=" M 87.27 85.35 L 88.22 85.54 C 89.61 87.57 85.61 86.98 87.27 85.35 Z" />
<path fill="#FFFFFF" opacity="1.00" d=" M 105.48 129.63 C 109.04 127.80 113.83 128.05 116.04 124.18 C 118.28 125.85 119.36 128.20 119.03 130.99 C 118.02 132.17 117.09 133.46 115.85 134.42 C 109.89 135.67 103.65 135.26 97.88 133.37 C 99.84 131.10 102.92 130.86 105.48 129.63 Z" />
</g>
<g id="#252724ff">
<path fill="#333333" opacity="1.00" d=" M 110.20 12.32 C 113.30 11.53 115.60 8.94 118.78 8.44 C 122.05 7.67 125.86 8.71 128.12 11.27 C 130.65 9.30 133.55 7.26 136.97 7.86 C 144.27 9.16 152.28 8.72 158.57 13.30 C 161.02 24.81 152.31 34.56 151.83 45.68 C 154.71 48.05 158.78 49.91 158.87 54.25 C 154.95 52.06 153.97 46.34 149.08 45.57 C 144.50 43.59 139.87 45.93 135.73 47.80 C 132.97 47.59 130.63 45.75 127.94 45.20 C 125.81 44.97 123.65 44.91 121.54 44.49 C 123.15 43.37 125.13 42.37 127.14 42.80 C 129.61 43.55 131.65 45.37 134.20 45.92 C 136.36 46.11 138.12 44.55 139.93 43.63 C 133.83 42.07 132.30 35.56 129.37 30.89 C 129.76 25.95 130.84 20.74 128.61 16.04 C 127.54 12.11 123.20 8.24 119.01 10.26 C 116.16 11.63 113.09 12.63 110.48 14.44 C 106.69 18.68 107.64 24.96 108.84 30.04 C 110.45 33.60 111.44 38.15 115.13 40.16 C 119.13 41.60 121.67 37.27 123.97 34.78 C 124.40 33.57 124.61 32.11 126.04 31.63 C 125.45 35.73 122.64 38.81 120.15 41.77 L 120.41 42.27 C 120.74 43.26 119.47 43.34 118.93 43.78 C 118.70 43.38 118.25 42.59 118.03 42.19 C 116.69 41.87 115.35 41.59 114.00 41.35 C 108.94 43.37 104.05 46.35 100.81 50.82 C 99.58 52.09 100.23 53.89 100.40 55.42 C 98.73 58.48 96.14 60.74 93.54 62.98 C 92.42 67.04 90.46 72.45 93.99 75.81 C 93.85 72.28 94.10 68.67 95.61 65.42 C 95.91 65.57 96.50 65.89 96.80 66.04 C 96.11 69.19 94.53 72.34 95.57 75.61 C 95.12 76.51 94.21 78.31 93.76 79.21 C 93.24 77.81 92.75 76.40 92.25 75.00 C 91.02 77.64 89.03 80.08 89.25 83.21 C 89.98 81.96 91.45 79.46 92.18 78.21 C 92.56 78.90 92.94 79.60 93.31 80.30 C 91.60 82.80 88.16 85.05 88.81 88.46 C 87.56 88.25 86.31 88.08 85.06 87.91 L 86.15 88.23 L 84.95 89.79 C 89.93 88.84 93.69 92.61 98.24 93.77 C 104.15 96.40 110.45 98.94 115.18 103.42 C 117.64 99.84 120.34 96.45 122.97 93.00 C 123.85 91.85 124.53 90.44 123.81 89.04 C 124.42 88.72 125.64 88.07 126.24 87.74 C 126.20 83.98 130.54 83.87 132.32 81.36 C 136.29 76.25 140.26 71.02 145.47 67.08 C 143.32 65.96 141.54 64.37 141.66 61.73 C 137.90 59.92 134.80 63.51 130.98 63.03 C 126.49 62.36 123.03 66.28 118.56 65.75 C 122.36 62.69 127.18 60.65 132.11 60.64 C 137.22 60.65 139.84 54.56 144.93 54.59 C 143.41 56.37 140.43 57.09 139.96 59.60 C 140.45 59.92 141.43 60.54 141.92 60.85 C 143.58 57.67 145.22 54.27 148.10 52.00 C 150.40 51.08 152.91 51.73 154.85 53.12 C 158.11 55.41 163.26 54.83 165.14 58.92 C 160.18 57.78 155.74 55.30 151.10 53.35 C 146.37 54.22 143.63 60.52 145.44 64.82 C 150.37 66.03 154.32 70.39 159.64 69.70 C 159.23 70.25 158.41 71.36 158.01 71.92 C 154.24 71.63 151.06 69.42 147.82 67.71 C 146.55 68.74 145.28 69.77 144.00 70.79 C 143.82 81.99 143.86 93.19 144.09 104.39 C 149.94 93.45 156.14 82.53 159.59 70.55 C 160.19 70.19 161.41 69.47 162.02 69.12 C 159.64 75.31 156.96 81.40 154.28 87.48 C 149.80 95.85 146.43 104.89 140.52 112.42 C 130.20 128.23 119.86 144.04 109.57 159.87 C 106.90 164.04 104.55 168.52 101.03 172.06 C 98.20 174.50 94.55 172.15 91.80 170.80 C 87.07 168.26 81.69 166.80 77.52 163.31 C 82.76 165.42 88.14 167.19 93.19 169.73 C 96.11 170.86 100.49 171.21 102.26 168.02 C 104.79 164.64 107.58 161.48 110.34 158.29 L 108.50 159.06 C 111.76 157.32 112.97 153.63 114.86 150.69 C 116.91 146.74 120.28 143.64 122.12 139.57 C 126.25 132.26 130.34 124.93 135.16 118.05 C 137.90 114.22 140.48 110.29 142.87 106.24 C 141.45 95.21 142.98 84.02 141.68 73.01 C 139.36 80.02 135.60 86.61 134.48 93.98 L 133.06 93.45 C 133.97 95.23 135.28 96.94 135.19 99.05 C 135.50 104.29 134.98 109.55 135.60 114.78 C 135.29 115.00 134.66 115.44 134.34 115.66 C 134.70 110.06 134.15 104.46 134.23 98.85 C 133.50 97.95 132.78 97.05 132.07 96.15 C 131.69 101.27 129.69 106.02 128.43 110.95 C 127.39 114.92 125.75 118.94 122.56 121.69 L 122.79 122.40 C 120.49 122.22 118.20 121.97 115.92 121.65 C 115.96 121.80 116.05 122.12 116.09 122.27 C 117.70 123.24 118.97 124.60 120.10 126.09 L 119.92 123.06 C 120.54 123.79 121.16 124.52 121.78 125.25 C 121.47 125.49 120.84 125.96 120.53 126.19 C 121.09 130.70 118.59 134.75 115.35 137.65 C 115.45 145.36 110.64 151.90 108.50 159.06 C 108.89 155.58 109.91 152.20 111.07 148.90 C 112.46 145.10 112.82 140.94 115.02 137.45 C 112.71 137.55 110.41 137.57 108.11 137.56 C 106.57 144.04 104.81 150.72 100.94 156.25 C 100.54 157.58 100.22 158.97 99.49 160.17 C 99.37 156.42 100.67 152.86 102.14 149.48 C 101.14 147.41 101.57 145.11 101.55 142.90 C 101.81 144.71 102.03 146.55 102.79 148.24 C 103.48 144.55 104.78 141.04 106.46 137.69 C 102.19 137.80 98.07 135.79 93.81 136.57 C 93.50 136.29 92.88 135.72 92.56 135.43 C 89.53 137.17 86.67 139.31 83.28 140.32 C 80.55 141.28 77.43 141.53 75.21 143.59 C 73.85 144.83 72.41 145.99 70.63 146.57 C 70.18 147.83 69.70 149.08 69.09 150.27 C 68.07 146.94 68.32 143.44 69.28 140.14 C 69.67 139.99 70.43 139.69 70.81 139.54 C 70.74 140.68 70.59 142.96 70.52 144.11 C 72.80 141.90 75.48 140.19 78.60 139.49 C 83.50 138.31 87.42 135.04 91.79 132.74 C 92.12 130.62 92.24 128.47 92.24 126.33 C 92.85 125.50 93.48 124.67 94.11 123.86 C 95.15 126.86 94.73 130.08 94.51 133.18 C 97.42 128.77 102.75 127.92 107.19 125.83 C 107.81 125.78 109.04 125.68 109.66 125.63 C 110.26 125.38 111.48 124.88 112.09 124.63 C 113.36 121.85 114.85 119.10 115.38 116.05 C 115.38 113.83 114.97 111.64 114.80 109.44 C 114.40 109.41 113.59 109.33 113.19 109.30 C 113.70 108.18 114.21 107.06 114.73 105.95 C 113.40 102.38 109.45 101.36 106.49 99.56 C 101.17 96.52 95.28 94.77 89.84 92.03 C 87.59 92.43 85.31 92.61 83.05 92.90 C 80.40 93.56 78.83 96.07 76.56 97.42 C 72.58 99.50 68.13 100.39 63.68 100.59 C 65.37 103.10 67.73 105.05 69.55 107.44 C 70.99 110.47 71.20 113.90 71.95 117.14 C 74.97 113.81 76.59 108.36 81.89 108.21 C 81.80 105.96 81.91 103.72 82.17 101.48 C 84.92 102.42 83.50 105.71 83.78 107.83 C 85.62 107.54 87.45 107.18 89.26 106.76 C 88.91 107.32 88.21 108.45 87.86 109.01 C 85.34 109.82 82.82 110.81 80.14 110.88 C 82.71 111.74 85.21 112.81 87.64 114.03 C 89.15 117.43 92.77 119.29 93.74 123.00 C 93.16 123.62 92.58 124.25 92.02 124.88 C 91.57 118.55 85.31 113.52 79.08 113.68 C 73.66 116.35 67.54 119.00 64.53 124.60 C 62.14 129.18 56.99 132.26 56.63 137.82 C 55.91 147.23 54.80 156.62 54.66 166.07 C 53.78 172.88 54.53 179.78 53.51 186.57 C 50.29 191.79 45.54 195.90 42.10 200.98 C 41.01 202.82 38.96 203.60 37.13 204.51 C 37.00 206.09 36.87 207.68 36.76 209.27 C 42.61 209.49 50.42 212.05 54.58 206.50 C 56.43 204.69 58.25 202.82 60.16 201.07 C 62.28 199.50 64.73 198.32 66.46 196.26 C 64.88 193.06 64.99 189.41 64.71 185.94 C 63.98 178.96 66.82 172.37 67.89 165.59 C 71.15 161.28 69.90 155.33 69.13 150.42 C 69.94 150.28 71.07 150.00 71.33 151.10 C 73.48 157.18 71.43 163.68 70.07 169.71 C 68.12 173.99 67.14 178.60 66.19 183.19 C 65.90 188.60 69.05 194.39 66.19 199.53 C 61.56 203.08 57.66 207.51 53.00 211.01 C 47.54 213.68 41.37 212.10 36.04 209.97 C 34.55 209.43 33.59 207.85 34.49 206.37 C 35.29 201.95 40.28 200.86 42.56 197.47 C 45.45 193.41 48.32 189.33 51.56 185.54 C 52.43 180.74 53.25 175.88 52.99 170.99 C 52.74 165.63 52.37 160.16 53.87 154.93 C 54.90 151.29 53.41 147.56 54.17 143.92 C 54.83 140.87 54.25 137.73 54.80 134.69 C 56.24 132.42 57.54 129.62 60.17 128.55 C 62.18 124.97 64.32 120.70 68.42 119.19 C 70.22 114.15 67.58 108.57 64.21 104.79 C 62.08 102.36 58.57 103.42 55.80 103.64 C 50.64 104.13 45.75 105.93 41.08 108.09 C 36.84 109.93 34.69 114.29 31.28 117.17 C 29.03 119.29 25.43 121.41 26.18 125.04 C 26.89 128.70 26.88 132.45 27.40 136.14 C 27.65 138.66 29.68 140.51 30.15 142.95 C 30.73 147.46 30.38 152.23 32.47 156.41 C 34.69 160.88 34.87 167.21 30.49 170.46 C 26.80 173.15 24.93 177.52 21.45 180.39 C 18.10 181.61 14.20 183.19 13.42 187.14 C 17.76 187.89 22.13 186.32 26.54 186.87 C 29.18 185.19 31.60 182.67 34.92 182.57 C 38.72 182.04 43.09 183.86 46.46 181.40 C 47.70 180.65 47.82 179.01 48.46 177.85 C 45.86 172.20 44.11 166.19 43.03 160.08 C 42.17 155.71 43.28 151.34 42.98 146.96 C 42.74 141.74 41.65 136.58 39.83 131.69 C 40.17 130.84 40.52 129.99 40.88 129.15 C 46.73 127.55 52.59 125.97 58.70 125.94 C 58.27 126.82 57.84 127.71 57.41 128.59 C 52.45 128.60 47.31 128.70 42.88 131.22 C 43.27 136.52 45.48 141.60 44.58 146.99 C 43.76 152.56 45.12 158.02 45.70 163.54 C 46.80 166.40 48.41 169.06 49.37 171.98 C 50.36 174.78 49.74 177.82 50.50 180.66 C 48.23 182.28 46.12 184.76 43.08 184.60 C 39.64 184.92 35.86 183.61 32.77 185.71 C 31.02 186.43 30.18 188.64 28.14 188.76 C 23.14 189.16 18.01 189.80 13.03 188.83 C 11.81 187.91 10.79 186.75 9.69 185.71 C 12.16 182.69 15.22 180.03 19.03 178.92 C 23.08 176.49 25.74 172.33 29.42 169.39 C 33.35 164.56 30.42 158.26 29.61 152.89 C 27.82 147.32 27.73 141.32 25.43 135.91 C 27.08 131.00 23.52 126.03 25.40 121.21 C 26.50 118.87 28.37 117.00 30.60 115.73 C 34.99 113.26 37.65 108.64 42.09 106.26 C 46.32 103.92 50.93 101.95 55.80 101.56 C 55.75 101.25 55.65 100.62 55.60 100.31 C 57.64 99.99 59.65 99.47 61.49 98.52 C 63.58 80.94 69.75 64.21 75.95 47.73 C 78.49 41.50 81.01 34.74 86.42 30.40 C 89.60 29.56 94.53 30.93 94.30 35.01 C 98.47 37.26 103.36 38.09 107.08 41.12 C 106.53 41.78 105.42 43.10 104.87 43.76 C 107.52 42.93 109.76 41.27 111.99 39.66 C 110.24 37.61 109.36 35.05 108.34 32.60 C 105.75 27.47 106.55 21.48 107.00 15.96 C 108.08 14.76 109.14 13.54 110.20 12.32 M 130.85 11.81 C 130.10 11.75 128.61 11.63 127.87 11.57 C 128.84 12.92 129.85 14.24 130.91 15.52 C 131.97 20.31 132.32 25.23 131.42 30.07 C 130.90 35.53 135.67 38.96 139.08 42.36 C 142.55 43.18 146.20 42.67 149.61 43.86 C 152.23 37.70 153.45 31.06 155.94 24.85 C 157.29 21.94 157.42 18.47 156.70 15.39 C 154.90 13.02 151.85 12.03 149.00 11.78 C 145.23 11.38 141.50 10.64 137.85 9.63 C 135.25 8.55 132.94 10.55 130.85 11.81 M 74.95 55.16 C 71.60 63.78 69.08 72.70 66.49 81.57 C 64.44 86.69 64.62 92.39 62.33 97.44 C 67.01 97.44 72.10 99.03 76.06 95.63 C 77.39 92.60 80.82 91.65 83.15 89.58 C 85.32 85.97 86.20 81.44 89.51 78.62 C 89.58 73.79 89.94 68.95 91.25 64.28 C 92.49 60.85 96.15 59.19 97.58 55.89 C 98.43 53.65 98.75 51.26 99.51 48.99 C 98.79 47.74 98.09 46.46 97.40 45.19 C 98.49 42.50 101.00 41.85 103.68 42.26 C 100.13 39.08 95.64 36.48 90.75 36.35 C 89.90 38.88 88.91 41.35 87.72 43.74 C 90.89 45.42 94.07 47.05 97.20 48.79 C 94.16 51.22 90.73 47.35 88.10 45.93 C 86.00 50.92 83.81 55.87 81.67 60.84 C 78.43 67.52 77.84 75.07 75.07 81.91 C 73.27 86.98 73.07 92.63 70.44 97.39 C 70.03 88.25 73.57 79.64 76.06 71.02 C 78.20 62.50 82.05 54.56 85.99 46.75 C 86.25 43.95 85.60 40.87 87.42 38.43 C 88.24 36.22 91.76 36.70 91.73 33.93 C 90.60 32.91 89.66 30.96 87.85 31.29 C 80.35 37.23 79.45 47.29 74.95 55.16 M 99.11 45.58 C 99.51 46.23 100.30 47.53 100.70 48.18 C 102.08 46.72 103.56 45.38 105.11 44.10 C 103.09 44.49 100.84 44.29 99.11 45.58 M 129.97 85.63 C 125.66 92.06 122.23 99.25 116.32 104.49 C 117.61 109.46 118.00 114.80 117.27 119.91 C 118.59 119.91 119.90 119.93 121.22 119.94 C 124.68 114.34 127.38 108.18 128.69 101.72 C 131.70 93.99 134.10 86.03 137.31 78.37 C 135.21 81.13 132.71 83.52 129.97 85.63 M 87.27 85.35 C 85.61 86.98 89.61 87.57 88.22 85.54 L 87.27 85.35 M 105.48 129.63 C 102.92 130.86 99.84 131.10 97.88 133.37 C 103.65 135.26 109.89 135.67 115.85 134.42 C 117.09 133.46 118.02 132.17 119.03 130.99 C 119.36 128.20 118.28 125.85 116.04 124.18 C 113.83 128.05 109.04 127.80 105.48 129.63 Z" />
<path fill="#333333" opacity="1.00" d=" M 163.97 61.45 C 165.51 58.60 167.36 55.77 170.74 55.01 C 171.96 56.85 173.23 58.65 174.44 60.50 C 177.57 60.02 181.89 60.23 183.26 63.68 C 185.60 68.44 187.96 76.09 182.15 79.32 C 177.34 80.86 172.19 80.90 167.67 78.44 C 159.24 97.90 148.45 116.22 137.10 134.11 C 133.70 140.59 129.40 146.54 125.76 152.88 C 121.44 160.97 116.83 168.90 111.86 176.61 C 111.44 176.03 111.03 175.46 110.62 174.89 C 114.73 169.30 117.30 162.79 120.86 156.86 C 126.54 146.39 132.78 136.21 139.55 126.40 C 147.41 114.58 154.21 102.10 160.55 89.41 C 163.41 81.84 167.85 75.00 170.75 67.45 C 171.21 67.17 172.11 66.59 172.57 66.31 C 173.91 63.28 172.42 60.32 171.29 57.50 C 170.48 57.65 168.87 57.94 168.06 58.09 C 165.69 61.25 163.42 64.61 162.92 68.66 C 162.44 68.00 161.96 67.35 161.49 66.69 C 162.06 65.38 162.62 64.08 163.18 62.76 C 160.34 61.79 157.61 65.25 160.25 67.45 C 159.25 66.75 156.92 66.64 157.33 64.86 C 157.63 63.25 158.96 62.10 159.81 60.76 C 161.20 60.96 162.59 61.19 163.97 61.45 M 174.56 60.68 C 173.95 66.83 171.19 72.39 168.07 77.62 C 170.63 78.42 173.25 79.49 175.99 79.20 C 179.47 78.15 183.60 77.10 184.37 72.97 C 183.02 69.62 182.35 65.87 180.03 63.00 C 178.34 61.95 176.38 61.44 174.56 60.68 Z" />
<path fill="#333333" opacity="1.00" d=" M 110.26 59.08 C 112.73 59.37 115.90 59.57 117.33 61.94 C 114.82 61.51 112.23 60.80 110.26 59.08 Z" />
<path fill="#333333" opacity="1.00" d=" M 96.54 64.12 C 98.29 62.73 99.93 61.02 102.12 60.34 C 104.06 59.99 105.97 60.84 107.71 61.61 C 109.81 63.50 110.81 66.21 112.38 68.50 C 115.65 72.13 113.05 77.32 115.42 81.39 C 113.98 80.26 112.48 79.02 112.03 77.15 C 111.10 75.00 112.84 72.61 111.69 70.49 C 111.12 68.82 109.55 67.90 108.30 66.81 C 108.28 66.12 108.26 64.74 108.25 64.05 C 107.52 63.17 106.80 62.29 106.08 61.40 C 104.09 65.39 102.35 69.49 100.65 73.61 C 100.59 75.22 100.52 76.84 100.44 78.46 C 100.07 78.82 99.33 79.53 98.97 79.88 C 98.48 81.45 97.48 82.67 95.89 83.18 C 96.67 81.44 97.72 79.85 98.61 78.17 C 98.97 75.46 98.57 72.50 100.18 70.10 C 101.41 68.16 101.63 65.85 102.09 63.65 C 100.29 64.25 98.41 64.67 96.54 64.12 M 103.22 62.31 C 103.88 62.88 103.88 62.88 103.22 62.31 Z" />
<path fill="#333333" opacity="1.00" d=" M 135.89 66.65 C 137.05 65.74 138.22 64.85 139.43 64.00 C 139.42 64.63 139.39 65.90 139.38 66.54 C 138.22 66.59 137.05 66.62 135.89 66.65 Z" />
<path fill="#333333" opacity="1.00" d=" M 127.49 69.28 C 129.46 69.48 128.22 74.06 126.35 73.04 C 125.57 71.83 126.24 69.90 127.49 69.28 Z" />
<path fill="#333333" opacity="1.00" d=" M 123.42 73.82 C 124.99 74.65 127.17 75.80 127.05 77.85 C 125.79 79.41 124.78 81.15 125.10 83.24 C 123.82 82.47 123.38 81.14 123.27 79.72 C 126.38 78.60 124.07 75.81 123.42 73.82 Z" />
<path fill="#333333" opacity="1.00" d=" M 114.45 83.27 C 114.64 83.64 115.04 84.37 115.23 84.73 C 110.85 86.83 108.41 91.12 104.85 94.16 C 106.42 89.39 109.87 85.39 114.45 83.27 Z" />
<path fill="#333333" opacity="1.00" d=" M 143.43 131.98 C 143.04 128.53 143.98 125.17 145.83 122.23 C 145.74 126.50 144.86 130.77 145.44 135.04 C 146.32 142.72 146.19 150.53 147.86 158.12 C 148.34 160.10 147.60 162.07 147.31 164.02 C 141.73 165.01 136.57 167.42 130.95 168.23 C 125.43 170.31 119.81 172.06 114.21 173.86 C 116.28 169.73 121.18 169.09 125.10 167.67 C 132.09 165.23 139.30 163.59 146.47 161.76 C 144.90 151.90 144.25 141.92 143.43 131.98 Z" />
<path fill="#333333" opacity="1.00" d=" M 137.14 136.90 C 137.20 142.09 137.56 147.28 137.60 152.47 C 137.95 152.86 138.65 153.64 139.00 154.03 C 133.60 155.85 128.18 157.55 122.79 159.41 C 123.31 157.82 124.29 156.43 125.97 155.99 C 129.41 154.71 132.98 153.79 136.65 153.51 C 136.70 147.97 134.08 142.05 137.14 136.90 Z" />
<path fill="#333333" opacity="1.00" d=" M 70.57 168.00 C 72.02 164.61 76.08 168.33 78.41 168.89 C 86.04 171.98 93.18 176.61 101.51 177.67 C 104.45 178.90 107.44 177.92 110.00 176.26 C 108.45 180.94 103.08 180.25 99.25 179.48 C 89.20 177.00 80.01 172.13 70.57 168.00 Z" />
</g>
</svg>
