<?xml version="1.0" encoding="UTF-8" ?>
<!DOCTYPE svg PUBLIC "-//W3C//DTD SVG 1.1//EN" "http://www.w3.org/Graphics/SVG/1.1/DTD/svg11.dtd">
<svg width="277pt" height="125pt" viewBox="0 0 277 125" version="1.1" xmlns="http://www.w3.org/2000/svg">
<g id="#ffffffff">
<path fill="#FFFFFF" opacity="1.00" d=" M 0.00 0.00 L 277.00 0.00 L 277.00 125.00 L 0.00 125.00 L 0.00 0.00 M 175.92 24.34 C 169.91 24.66 165.27 29.14 159.51 30.40 C 152.39 32.17 146.94 37.26 140.56 40.53 C 135.18 42.64 129.96 46.12 123.92 45.36 C 120.46 40.44 114.49 38.27 110.84 33.63 C 110.29 34.31 109.83 35.05 109.29 35.73 C 108.29 34.13 107.27 32.06 104.95 32.46 C 101.72 29.64 97.25 30.70 93.71 28.71 C 91.72 30.72 90.45 33.23 89.59 35.90 C 85.40 37.36 82.39 40.96 78.07 42.19 C 69.05 45.53 62.14 52.57 53.52 56.62 C 48.42 58.30 43.48 60.97 37.99 60.94 C 34.57 60.40 31.31 59.10 27.86 58.69 C 25.17 58.37 23.95 55.62 21.93 54.18 C 18.83 52.20 15.61 50.37 12.14 49.11 C 9.35 50.38 8.89 53.24 9.41 56.00 C 8.51 57.77 7.37 59.78 8.34 61.78 C 9.20 66.23 12.71 69.19 15.24 72.70 C 17.88 76.03 22.57 76.46 25.45 79.54 C 28.02 81.51 27.15 85.33 29.39 87.53 C 31.70 90.24 35.27 92.65 38.99 91.70 C 40.72 91.36 41.74 89.80 42.83 88.57 C 45.23 85.57 48.52 83.18 49.84 79.43 C 56.12 75.40 62.31 70.40 69.99 69.59 C 75.53 69.55 81.02 67.77 85.58 64.63 C 89.58 61.96 92.09 57.67 96.01 54.90 C 102.34 59.23 102.63 67.31 105.21 73.81 C 104.75 73.70 103.83 73.49 103.37 73.38 C 103.42 74.73 103.47 76.08 103.51 77.43 C 104.43 76.33 105.52 75.40 106.81 74.75 C 107.45 69.69 104.93 64.59 103.22 59.84 C 102.18 56.75 98.77 55.59 97.16 52.91 C 93.87 54.50 90.93 56.69 88.31 59.23 C 84.37 63.05 79.43 65.89 74.08 67.13 C 66.02 67.17 58.60 71.09 52.27 75.78 C 52.02 75.52 51.52 75.01 51.28 74.75 C 46.26 79.55 43.68 86.88 37.12 89.94 C 35.33 89.71 33.52 89.05 32.25 87.71 C 29.92 85.41 29.84 81.84 28.01 79.22 C 25.71 76.66 22.73 74.80 19.60 73.43 C 16.88 72.59 16.50 69.30 14.24 67.88 C 10.88 65.67 8.24 60.60 11.30 57.13 C 11.07 54.85 11.03 52.57 11.23 50.29 C 14.20 51.82 17.06 53.58 19.95 55.26 C 22.50 56.80 24.02 59.93 27.13 60.54 C 32.30 61.72 37.42 63.11 42.63 64.10 C 42.49 63.62 42.22 62.65 42.08 62.16 C 49.22 60.18 56.50 58.01 62.52 53.52 C 67.73 49.54 73.10 45.66 79.23 43.20 C 83.30 41.66 86.65 38.84 90.51 36.90 C 92.83 40.02 90.82 44.43 93.53 47.39 C 97.44 51.51 102.36 55.02 104.60 60.43 C 105.97 63.34 105.72 66.72 107.19 69.60 C 108.09 71.93 110.15 73.42 111.80 75.19 C 109.41 76.47 106.75 76.85 104.20 77.65 C 104.95 77.97 106.43 78.63 107.17 78.95 C 110.86 85.42 112.93 93.44 119.36 97.89 C 123.87 100.63 128.40 103.40 133.25 105.51 C 135.43 108.67 138.45 111.40 142.17 112.55 C 146.06 113.62 150.15 113.35 154.12 113.94 C 158.36 114.43 162.75 115.16 166.95 114.03 C 169.39 113.39 170.65 111.03 172.47 109.51 C 176.94 107.66 181.82 107.35 186.50 106.35 C 190.55 105.29 194.45 103.66 198.13 101.67 C 202.23 101.91 206.71 102.47 210.42 100.29 C 213.63 98.33 217.34 97.13 220.08 94.45 C 225.69 95.48 231.42 95.16 237.08 94.86 C 243.83 94.13 249.65 90.50 255.51 87.40 C 260.23 85.60 264.35 82.48 267.48 78.53 C 266.23 75.85 265.50 72.86 263.58 70.54 C 260.37 66.74 257.66 62.34 253.30 59.72 C 248.38 56.08 242.20 55.00 236.97 51.93 C 237.84 49.59 238.79 47.24 239.17 44.76 C 238.99 39.88 235.37 35.96 231.36 33.61 C 225.97 29.52 217.71 29.34 212.74 34.21 C 207.13 31.03 201.04 28.77 195.62 25.24 C 189.55 21.75 182.45 23.97 175.92 24.34 M 13.58 62.37 C 15.78 64.60 19.96 68.17 22.85 65.15 C 20.42 63.55 17.38 63.46 14.68 62.55 C 14.52 61.80 14.19 60.30 14.02 59.54 C 13.87 60.48 13.73 61.43 13.58 62.37 M 43.85 76.20 C 40.80 74.28 37.47 76.12 34.22 74.69 C 35.44 77.33 38.16 78.01 40.81 77.26 C 41.83 77.73 42.87 78.19 43.91 78.64 C 46.18 77.54 47.89 75.61 48.78 73.27 C 47.06 74.11 45.46 75.16 43.85 76.20 Z" />
<path fill="#FFFFFF" opacity="1.00" d=" M 182.82 25.26 C 187.90 24.16 192.99 25.80 197.16 28.69 C 201.84 31.69 206.98 33.79 212.24 35.51 C 210.54 37.42 209.08 39.65 206.71 40.79 C 202.60 38.66 197.95 39.93 193.56 39.87 C 192.55 38.65 191.52 37.39 190.00 36.79 C 190.90 38.92 192.20 40.86 193.03 43.02 C 194.01 45.71 192.52 48.38 192.03 51.00 C 193.03 50.39 194.04 49.77 195.04 49.14 C 195.19 51.11 195.71 53.10 194.99 55.04 C 196.74 57.90 198.23 60.93 199.05 64.21 C 197.70 64.98 196.30 65.66 194.96 66.44 C 198.17 66.21 201.55 64.86 204.64 66.41 C 208.52 67.94 211.33 71.10 214.72 73.40 C 218.14 72.19 221.65 74.30 225.13 74.39 C 224.62 74.72 223.60 75.38 223.08 75.71 C 219.28 75.14 216.17 77.55 213.52 79.92 C 209.97 78.60 206.18 78.07 202.40 78.14 C 205.13 81.10 209.73 80.11 212.95 82.31 C 216.36 82.02 219.52 83.69 222.91 83.68 C 224.87 83.52 226.23 81.77 227.86 80.89 C 224.15 80.61 220.55 82.63 216.87 81.11 C 218.56 79.00 220.84 77.63 223.56 77.40 C 225.52 78.66 227.41 80.31 229.89 80.29 C 228.54 78.74 226.89 77.53 225.17 76.42 C 228.01 75.30 230.19 73.10 232.81 71.63 C 235.41 70.66 238.20 70.09 240.97 70.05 C 243.72 70.68 245.99 72.44 248.44 73.74 C 247.23 68.94 241.62 68.27 237.48 68.13 C 235.35 65.10 233.65 61.60 230.22 59.79 C 232.29 57.65 234.22 55.40 236.00 53.02 C 239.35 55.64 243.03 57.93 247.16 59.08 C 250.38 59.93 253.26 61.84 255.54 64.24 C 259.23 68.94 262.80 73.74 265.76 78.95 C 261.75 83.32 256.06 85.07 251.01 87.77 C 242.04 94.38 230.13 94.00 219.63 92.57 C 218.63 93.52 217.71 94.57 216.55 95.34 C 210.59 97.75 204.57 100.67 197.95 100.00 C 191.17 103.31 183.94 105.71 176.35 106.19 C 178.92 100.70 178.74 94.16 175.53 88.96 C 179.16 88.74 182.69 89.56 186.03 90.93 C 187.03 89.93 188.02 88.93 189.02 87.93 C 189.52 87.85 190.52 87.70 191.02 87.62 C 191.95 85.30 194.02 84.66 196.33 85.05 C 197.10 86.16 197.89 87.26 198.66 88.38 C 197.72 90.03 196.16 91.78 197.17 93.79 C 199.70 90.38 202.04 86.79 203.93 82.98 C 202.12 83.97 200.02 85.17 199.85 87.50 C 198.64 85.79 197.64 82.94 195.10 83.20 C 194.37 83.29 192.91 83.48 192.18 83.57 C 192.07 80.94 192.63 77.51 190.04 75.85 C 188.45 74.75 186.62 72.37 184.60 74.01 C 186.31 75.58 188.87 76.62 189.55 79.04 C 190.26 80.79 189.68 82.70 189.59 84.50 C 190.29 84.53 191.68 84.57 192.38 84.59 C 190.25 85.77 187.94 86.80 186.65 88.99 C 183.24 87.66 179.71 86.50 175.99 86.81 C 176.95 84.29 177.76 81.72 178.45 79.12 C 180.79 81.20 183.02 83.49 183.42 86.76 C 184.16 90.01 186.56 85.57 185.67 84.10 C 184.72 81.09 181.59 79.54 178.76 78.76 C 180.61 75.72 182.68 72.83 184.52 69.79 C 184.01 69.10 182.99 67.73 182.48 67.05 C 183.71 70.17 180.37 71.93 178.08 72.88 C 168.42 76.07 156.07 75.38 149.04 67.19 C 149.15 65.48 149.31 63.77 149.46 62.06 C 151.95 60.80 153.87 58.64 154.85 56.03 C 161.27 54.76 168.62 54.48 173.41 49.38 C 175.69 46.03 178.12 42.75 179.92 39.10 C 175.11 43.96 170.59 49.58 163.83 51.80 C 153.11 54.88 140.78 54.52 131.62 61.74 C 128.71 63.72 125.50 65.49 123.47 68.47 C 122.00 70.71 120.09 72.58 117.88 74.09 C 115.27 73.38 111.94 73.17 110.65 70.34 C 107.59 66.22 108.62 60.57 105.60 56.45 C 103.32 53.37 100.85 50.33 97.66 48.15 C 95.98 46.88 93.65 45.45 94.12 42.97 C 94.50 40.33 93.86 37.79 92.04 35.80 C 92.34 34.23 92.65 32.65 93.25 31.17 C 95.80 31.33 98.36 31.56 100.87 32.06 C 103.16 33.80 105.46 35.54 107.98 36.97 C 109.66 39.26 110.44 42.29 112.99 43.89 C 117.75 48.22 124.58 47.15 130.46 46.99 C 140.75 44.01 149.14 36.78 159.09 32.99 C 162.71 31.58 166.79 31.27 170.00 28.90 C 173.58 26.72 178.71 24.67 182.46 27.59 C 184.03 28.64 185.77 29.91 185.98 31.96 C 187.58 42.37 184.17 52.59 181.19 62.42 C 180.02 65.76 177.64 68.69 177.59 72.37 C 180.71 69.68 182.59 65.84 183.51 61.87 C 185.37 54.64 188.63 47.60 188.52 40.01 C 188.27 36.54 187.85 33.08 187.79 29.60 C 186.09 28.20 184.46 26.72 182.82 25.26 M 99.67 38.53 C 101.52 39.99 103.52 41.28 105.75 42.09 C 103.98 36.61 97.29 37.12 94.40 32.88 C 94.47 35.89 96.74 38.13 99.67 38.53 M 102.39 44.89 C 102.85 46.31 103.36 47.72 103.90 49.11 C 104.53 49.28 105.79 49.64 106.42 49.81 C 105.35 47.97 104.18 46.11 102.39 44.89 M 119.65 58.84 C 120.97 63.23 128.83 63.93 128.71 58.44 C 127.17 59.09 125.67 59.80 124.16 60.51 C 122.68 59.89 121.18 59.32 119.65 58.84 M 185.55 67.92 C 185.20 69.33 185.72 69.89 187.10 69.61 C 187.42 68.23 186.91 67.66 185.55 67.92 M 189.57 70.84 C 191.64 73.35 194.25 75.39 196.03 78.15 C 196.52 79.51 197.94 79.28 199.08 79.35 C 196.57 75.91 194.07 71.76 189.57 70.84 M 222.12 88.45 C 223.44 88.08 224.83 87.81 225.97 86.98 C 232.65 82.32 239.79 77.41 248.23 77.04 C 248.39 76.69 248.71 76.01 248.87 75.67 C 238.52 75.49 229.15 81.31 222.12 88.45 M 210.48 94.96 C 212.87 93.20 214.74 90.81 215.79 88.02 C 213.16 89.52 211.06 91.93 210.48 94.96 M 191.92 98.99 C 194.14 98.28 195.83 96.64 196.67 94.46 C 194.67 95.48 192.89 96.93 191.92 98.99 Z" />
<path fill="#FFFFFF" opacity="1.00" d=" M 211.43 39.18 C 213.61 35.93 216.58 32.12 220.96 32.48 C 225.93 32.36 230.04 35.48 233.93 38.15 C 235.56 39.65 237.17 41.64 236.99 44.00 C 237.29 48.72 234.02 52.67 230.90 55.83 C 227.53 58.79 225.05 62.66 221.43 65.35 C 219.06 67.28 215.76 67.27 213.30 69.06 C 220.01 70.37 225.11 65.08 229.49 60.88 C 232.14 62.64 233.59 65.50 235.06 68.21 C 231.91 69.15 229.03 70.78 226.61 72.99 C 223.57 71.55 220.26 70.60 216.86 70.94 C 214.33 71.60 212.97 68.98 211.20 67.73 C 208.35 65.69 205.02 64.28 201.55 63.76 C 200.69 60.84 199.40 58.03 197.29 55.80 C 199.34 54.88 201.30 53.77 203.15 52.49 C 203.57 53.03 203.99 53.58 204.41 54.13 C 203.26 56.95 203.73 59.96 204.70 62.74 C 205.31 59.06 205.77 55.34 206.82 51.73 C 206.39 51.01 205.97 50.28 205.56 49.54 L 207.81 49.85 C 207.28 46.93 207.64 43.97 208.52 41.16 C 209.29 41.22 210.83 41.33 211.60 41.39 C 212.58 42.55 213.52 43.89 215.18 44.06 C 214.39 42.11 213.13 40.41 211.43 39.18 Z" />
<path fill="#FFFFFF" opacity="1.00" d=" M 110.01 35.88 C 113.59 38.94 117.68 41.51 120.69 45.19 C 115.90 43.77 111.79 40.74 110.01 35.88 Z" />
<path fill="#FFFFFF" opacity="1.00" d=" M 195.22 41.90 C 199.00 41.78 202.79 41.99 206.52 42.65 C 205.89 47.85 201.57 51.27 197.60 54.11 C 196.86 52.27 196.07 50.47 195.20 48.69 C 195.42 46.43 195.44 44.16 195.22 41.90 Z" />
<path fill="#FFFFFF" opacity="1.00" d=" M 136.96 60.48 C 142.08 58.04 147.69 56.86 153.28 56.04 C 152.01 57.62 151.07 60.17 148.60 59.88 C 146.60 62.42 144.79 65.12 143.51 68.10 C 141.03 65.82 138.95 63.17 136.96 60.48 Z" />
<path fill="#FFFFFF" opacity="1.00" d=" M 128.02 65.78 C 130.66 64.20 133.48 62.95 136.14 61.41 C 137.43 65.19 139.78 68.54 143.51 70.23 C 141.98 74.18 140.19 78.04 139.15 82.16 C 143.23 77.77 146.25 71.86 146.33 65.78 C 149.29 71.85 155.77 75.01 162.07 76.43 C 167.85 77.44 174.13 77.60 179.45 74.72 C 176.77 77.96 175.95 82.09 174.54 85.93 C 172.41 90.00 168.73 92.95 164.97 95.46 C 167.64 95.36 170.02 94.20 171.97 92.37 C 170.55 94.56 169.19 96.80 168.09 99.17 C 171.57 97.18 172.81 93.21 174.95 90.07 C 176.05 95.79 177.17 102.50 173.23 107.44 C 172.67 106.97 172.13 106.48 171.60 105.99 C 174.15 102.89 173.84 98.81 173.00 95.15 C 172.35 98.92 170.96 102.48 169.83 106.11 L 171.94 106.50 C 170.15 108.39 168.39 110.62 165.85 111.49 C 160.68 112.25 155.45 111.41 150.27 111.02 C 146.37 110.62 142.14 110.58 138.94 107.96 C 135.23 106.04 133.73 102.02 131.66 98.67 C 131.67 99.58 131.68 101.39 131.69 102.29 C 127.22 98.59 120.55 97.74 117.45 92.41 C 115.06 88.21 112.80 83.92 110.31 79.77 C 112.43 78.61 114.25 77.02 115.98 75.35 C 118.14 75.07 120.63 75.02 122.28 73.39 C 124.13 70.81 125.22 67.56 128.02 65.78 Z" />
</g>
<g id="#3f403cff">
<path fill="#333333" opacity="1.00" d=" M 175.92 24.34 C 182.45 23.97 189.55 21.75 195.62 25.24 C 201.04 28.77 207.13 31.03 212.74 34.21 C 217.71 29.34 225.97 29.52 231.36 33.61 C 235.37 35.96 238.99 39.88 239.17 44.76 C 238.79 47.24 237.84 49.59 236.97 51.93 C 242.20 55.00 248.38 56.08 253.30 59.72 C 257.66 62.34 260.37 66.74 263.58 70.54 C 265.50 72.86 266.23 75.85 267.48 78.53 C 264.35 82.48 260.23 85.60 255.51 87.40 C 249.65 90.50 243.83 94.13 237.08 94.86 C 231.42 95.16 225.69 95.48 220.08 94.45 C 217.34 97.13 213.63 98.33 210.42 100.29 C 206.71 102.47 202.23 101.91 198.13 101.67 C 194.45 103.66 190.55 105.29 186.50 106.35 C 181.82 107.35 176.94 107.66 172.47 109.51 C 170.65 111.03 169.39 113.39 166.95 114.03 C 162.75 115.16 158.36 114.43 154.12 113.94 C 150.15 113.35 146.06 113.62 142.17 112.55 C 138.45 111.40 135.43 108.67 133.25 105.51 C 128.40 103.40 123.87 100.63 119.36 97.89 C 112.93 93.44 110.86 85.42 107.17 78.95 C 106.43 78.63 104.95 77.97 104.20 77.65 C 106.75 76.85 109.41 76.47 111.80 75.19 C 110.15 73.42 108.09 71.93 107.19 69.60 C 105.72 66.72 105.97 63.34 104.60 60.43 C 102.36 55.02 97.44 51.51 93.53 47.39 C 90.82 44.43 92.83 40.02 90.51 36.90 C 86.65 38.84 83.30 41.66 79.23 43.20 C 73.10 45.66 67.73 49.54 62.52 53.52 C 56.50 58.01 49.22 60.18 42.08 62.16 C 42.22 62.65 42.49 63.62 42.63 64.10 C 37.42 63.11 32.30 61.72 27.13 60.54 C 24.02 59.93 22.50 56.80 19.95 55.26 C 17.06 53.58 14.20 51.82 11.23 50.29 C 11.03 52.57 11.07 54.85 11.30 57.13 C 8.24 60.60 10.88 65.67 14.24 67.88 C 16.50 69.30 16.88 72.59 19.60 73.43 C 22.73 74.80 25.71 76.66 28.01 79.22 C 29.84 81.84 29.92 85.41 32.25 87.71 C 33.52 89.05 35.33 89.71 37.12 89.94 C 43.68 86.88 46.26 79.55 51.28 74.75 C 51.52 75.01 52.02 75.52 52.27 75.78 C 58.60 71.09 66.02 67.17 74.08 67.13 C 79.43 65.89 84.37 63.05 88.31 59.23 C 90.93 56.69 93.87 54.50 97.16 52.91 C 98.77 55.59 102.18 56.75 103.22 59.84 C 104.93 64.59 107.45 69.69 106.81 74.75 C 105.52 75.40 104.43 76.33 103.51 77.43 C 103.47 76.08 103.42 74.73 103.37 73.38 C 103.83 73.49 104.75 73.70 105.21 73.81 C 102.63 67.31 102.34 59.23 96.01 54.90 C 92.09 57.67 89.58 61.96 85.58 64.63 C 81.02 67.77 75.53 69.55 69.99 69.59 C 62.31 70.40 56.12 75.40 49.84 79.43 C 48.52 83.18 45.23 85.57 42.83 88.57 C 41.74 89.80 40.72 91.36 38.99 91.70 C 35.27 92.65 31.70 90.24 29.39 87.53 C 27.15 85.33 28.02 81.51 25.45 79.54 C 22.57 76.46 17.88 76.03 15.24 72.70 C 12.71 69.19 9.20 66.23 8.34 61.78 C 7.37 59.78 8.51 57.77 9.41 56.00 C 8.89 53.24 9.35 50.38 12.14 49.11 C 15.61 50.37 18.83 52.20 21.93 54.18 C 23.95 55.62 25.17 58.37 27.86 58.69 C 31.31 59.10 34.57 60.40 37.99 60.94 C 43.48 60.97 48.42 58.30 53.52 56.62 C 62.14 52.57 69.05 45.53 78.07 42.19 C 82.39 40.96 85.40 37.36 89.59 35.90 C 90.45 33.23 91.72 30.72 93.71 28.71 C 97.25 30.70 101.72 29.64 104.95 32.46 C 107.27 32.06 108.29 34.13 109.29 35.73 C 109.83 35.05 110.29 34.31 110.84 33.63 C 114.49 38.27 120.46 40.44 123.92 45.36 C 129.96 46.12 135.18 42.64 140.56 40.53 C 146.94 37.26 152.39 32.17 159.51 30.40 C 165.27 29.14 169.91 24.66 175.92 24.34 M 182.82 25.26 C 184.46 26.72 186.09 28.20 187.79 29.60 C 187.85 33.08 188.27 36.54 188.52 40.01 C 188.63 47.60 185.37 54.64 183.51 61.87 C 182.59 65.84 180.71 69.68 177.59 72.37 C 177.64 68.69 180.02 65.76 181.19 62.42 C 184.17 52.59 187.58 42.37 185.98 31.96 C 185.77 29.91 184.03 28.64 182.46 27.59 C 178.71 24.67 173.58 26.72 170.00 28.90 C 166.79 31.27 162.71 31.58 159.09 32.99 C 149.14 36.78 140.75 44.01 130.46 46.99 C 124.58 47.15 117.75 48.22 112.99 43.89 C 110.44 42.29 109.66 39.26 107.98 36.97 C 105.46 35.54 103.16 33.80 100.87 32.06 C 98.36 31.56 95.80 31.33 93.25 31.17 C 92.65 32.65 92.34 34.23 92.04 35.80 C 93.86 37.79 94.50 40.33 94.12 42.97 C 93.65 45.45 95.98 46.88 97.66 48.15 C 100.85 50.33 103.32 53.37 105.60 56.45 C 108.62 60.57 107.59 66.22 110.65 70.34 C 111.94 73.17 115.27 73.38 117.88 74.09 C 120.09 72.58 122.00 70.71 123.47 68.47 C 125.50 65.49 128.71 63.72 131.62 61.74 C 140.78 54.52 153.11 54.88 163.83 51.80 C 170.59 49.58 175.11 43.96 179.92 39.10 C 178.12 42.75 175.69 46.03 173.41 49.38 C 168.62 54.48 161.27 54.76 154.85 56.03 C 153.87 58.64 151.95 60.80 149.46 62.06 C 149.31 63.77 149.15 65.48 149.04 67.19 C 156.07 75.38 168.42 76.07 178.08 72.88 C 180.37 71.93 183.71 70.17 182.48 67.05 C 182.99 67.73 184.01 69.10 184.52 69.79 C 182.68 72.83 180.61 75.72 178.76 78.76 C 181.59 79.54 184.72 81.09 185.67 84.10 C 186.56 85.57 184.16 90.01 183.42 86.76 C 183.02 83.49 180.79 81.20 178.45 79.12 C 177.76 81.72 176.95 84.29 175.99 86.81 C 179.71 86.50 183.24 87.66 186.65 88.99 C 187.94 86.80 190.25 85.77 192.38 84.59 C 191.68 84.57 190.29 84.53 189.59 84.50 C 189.68 82.70 190.26 80.79 189.55 79.04 C 188.87 76.62 186.31 75.58 184.60 74.01 C 186.62 72.37 188.45 74.75 190.04 75.85 C 192.63 77.51 192.07 80.94 192.18 83.57 C 192.91 83.48 194.37 83.29 195.10 83.20 C 197.64 82.94 198.64 85.79 199.85 87.50 C 200.02 85.17 202.12 83.97 203.93 82.98 C 202.04 86.79 199.70 90.38 197.17 93.79 C 196.16 91.78 197.72 90.03 198.66 88.38 C 197.89 87.26 197.10 86.16 196.33 85.05 C 194.02 84.66 191.95 85.30 191.02 87.62 C 190.52 87.70 189.52 87.85 189.02 87.93 C 188.02 88.93 187.03 89.93 186.03 90.93 C 182.69 89.56 179.16 88.74 175.53 88.96 C 178.74 94.16 178.92 100.70 176.35 106.19 C 183.94 105.71 191.17 103.31 197.95 100.00 C 204.57 100.67 210.59 97.75 216.55 95.34 C 217.71 94.57 218.63 93.52 219.63 92.57 C 230.13 94.00 242.04 94.38 251.01 87.77 C 256.06 85.07 261.75 83.32 265.76 78.95 C 262.80 73.74 259.23 68.94 255.54 64.24 C 253.26 61.84 250.38 59.93 247.16 59.08 C 243.03 57.93 239.35 55.64 236.00 53.02 C 234.22 55.40 232.29 57.65 230.22 59.79 C 233.65 61.60 235.35 65.10 237.48 68.13 C 241.62 68.27 247.23 68.94 248.44 73.74 C 245.99 72.44 243.72 70.68 240.97 70.05 C 238.20 70.09 235.41 70.66 232.81 71.63 C 230.19 73.10 228.01 75.30 225.17 76.42 C 226.89 77.53 228.54 78.74 229.89 80.29 C 227.41 80.31 225.52 78.66 223.56 77.40 C 220.84 77.63 218.56 79.00 216.87 81.11 C 220.55 82.63 224.15 80.61 227.86 80.89 C 226.23 81.77 224.87 83.52 222.91 83.68 C 219.52 83.69 216.36 82.02 212.95 82.31 C 209.73 80.11 205.13 81.10 202.40 78.14 C 206.18 78.07 209.97 78.60 213.52 79.92 C 216.17 77.55 219.28 75.14 223.08 75.71 C 223.60 75.38 224.62 74.72 225.13 74.39 C 221.65 74.30 218.14 72.19 214.72 73.40 C 211.33 71.10 208.52 67.94 204.64 66.41 C 201.55 64.86 198.17 66.21 194.96 66.44 C 196.30 65.66 197.70 64.98 199.05 64.21 C 198.23 60.93 196.74 57.90 194.99 55.04 C 195.71 53.10 195.19 51.11 195.04 49.14 C 194.04 49.77 193.03 50.39 192.03 51.00 C 192.52 48.38 194.01 45.71 193.03 43.02 C 192.20 40.86 190.90 38.92 190.00 36.79 C 191.52 37.39 192.55 38.65 193.56 39.87 C 197.95 39.93 202.60 38.66 206.71 40.79 C 209.08 39.65 210.54 37.42 212.24 35.51 C 206.98 33.79 201.84 31.69 197.16 28.69 C 192.99 25.80 187.90 24.16 182.82 25.26 M 211.43 39.18 C 213.13 40.41 214.39 42.11 215.18 44.06 C 213.52 43.89 212.58 42.55 211.60 41.39 C 210.83 41.33 209.29 41.22 208.52 41.16 C 207.64 43.97 207.28 46.93 207.81 49.85 L 205.56 49.54 C 205.97 50.28 206.39 51.01 206.82 51.73 C 205.77 55.34 205.31 59.06 204.70 62.74 C 203.73 59.96 203.26 56.95 204.41 54.13 C 203.99 53.58 203.57 53.03 203.15 52.49 C 201.30 53.77 199.34 54.88 197.29 55.80 C 199.40 58.03 200.69 60.84 201.55 63.76 C 205.02 64.28 208.35 65.69 211.20 67.73 C 212.97 68.98 214.33 71.60 216.86 70.94 C 220.26 70.60 223.57 71.55 226.61 72.99 C 229.03 70.78 231.91 69.15 235.06 68.21 C 233.59 65.50 232.14 62.64 229.49 60.88 C 225.11 65.08 220.01 70.37 213.30 69.06 C 215.76 67.27 219.06 67.28 221.43 65.35 C 225.05 62.66 227.53 58.79 230.90 55.83 C 234.02 52.67 237.29 48.72 236.99 44.00 C 237.17 41.64 235.56 39.65 233.93 38.15 C 230.04 35.48 225.93 32.36 220.96 32.48 C 216.58 32.12 213.61 35.93 211.43 39.18 M 110.01 35.88 C 111.79 40.74 115.90 43.77 120.69 45.19 C 117.68 41.51 113.59 38.94 110.01 35.88 M 195.22 41.90 C 195.44 44.16 195.42 46.43 195.20 48.69 C 196.07 50.47 196.86 52.27 197.60 54.11 C 201.57 51.27 205.89 47.85 206.52 42.65 C 202.79 41.99 199.00 41.78 195.22 41.90 M 136.96 60.48 C 138.95 63.17 141.03 65.82 143.51 68.10 C 144.79 65.12 146.60 62.42 148.60 59.88 C 151.07 60.17 152.01 57.62 153.28 56.04 C 147.69 56.86 142.08 58.04 136.96 60.48 M 128.02 65.78 C 125.22 67.56 124.13 70.81 122.28 73.39 C 120.63 75.02 118.14 75.07 115.98 75.35 C 114.25 77.02 112.43 78.61 110.31 79.77 C 112.80 83.92 115.06 88.21 117.45 92.41 C 120.55 97.74 127.22 98.59 131.69 102.29 C 131.68 101.39 131.67 99.58 131.66 98.67 C 133.73 102.02 135.23 106.04 138.94 107.96 C 142.14 110.58 146.37 110.62 150.27 111.02 C 155.45 111.41 160.68 112.25 165.85 111.49 C 168.39 110.62 170.15 108.39 171.94 106.50 L 169.83 106.11 C 170.96 102.48 172.35 98.92 173.00 95.15 C 173.84 98.81 174.15 102.89 171.60 105.99 C 172.13 106.48 172.67 106.97 173.23 107.44 C 177.17 102.50 176.05 95.79 174.95 90.07 C 172.81 93.21 171.57 97.18 168.09 99.17 C 169.19 96.80 170.55 94.56 171.97 92.37 C 170.02 94.20 167.64 95.36 164.97 95.46 C 168.73 92.95 172.41 90.00 174.54 85.93 C 175.95 82.09 176.77 77.96 179.45 74.72 C 174.13 77.60 167.85 77.44 162.07 76.43 C 155.77 75.01 149.29 71.85 146.33 65.78 C 146.25 71.86 143.23 77.77 139.15 82.16 C 140.19 78.04 141.98 74.18 143.51 70.23 C 139.78 68.54 137.43 65.19 136.14 61.41 C 133.48 62.95 130.66 64.20 128.02 65.78 Z" />
<path fill="#333333" opacity="1.00" d=" M 99.67 38.53 C 96.74 38.13 94.47 35.89 94.40 32.88 C 97.29 37.12 103.98 36.61 105.75 42.09 C 103.52 41.28 101.52 39.99 99.67 38.53 Z" />
<path fill="#333333" opacity="1.00" d=" M 102.39 44.89 C 104.18 46.11 105.35 47.97 106.42 49.81 C 105.79 49.64 104.53 49.28 103.90 49.11 C 103.36 47.72 102.85 46.31 102.39 44.89 Z" />
<path fill="#333333" opacity="1.00" d=" M 119.65 58.84 C 121.18 59.32 122.68 59.89 124.16 60.51 C 125.67 59.80 127.17 59.09 128.71 58.44 C 128.83 63.93 120.97 63.23 119.65 58.84 Z" />
<path fill="#333333" opacity="1.00" d=" M 13.58 62.37 C 13.73 61.43 13.87 60.48 14.02 59.54 C 14.19 60.30 14.52 61.80 14.68 62.55 C 17.38 63.46 20.42 63.55 22.85 65.15 C 19.96 68.17 15.78 64.60 13.58 62.37 Z" />
<path fill="#333333" opacity="1.00" d=" M 185.55 67.92 C 186.91 67.66 187.42 68.23 187.10 69.61 C 185.72 69.89 185.20 69.33 185.55 67.92 Z" />
<path fill="#333333" opacity="1.00" d=" M 189.57 70.84 C 194.07 71.76 196.57 75.91 199.08 79.35 C 197.94 79.28 196.52 79.51 196.03 78.15 C 194.25 75.39 191.64 73.35 189.57 70.84 Z" />
<path fill="#333333" opacity="1.00" d=" M 43.85 76.20 C 45.46 75.16 47.06 74.11 48.78 73.27 C 47.89 75.61 46.18 77.54 43.91 78.64 C 42.87 78.19 41.83 77.73 40.81 77.26 C 38.16 78.01 35.44 77.33 34.22 74.69 C 37.47 76.12 40.80 74.28 43.85 76.20 Z" />
<path fill="#333333" opacity="1.00" d=" M 222.12 88.45 C 229.15 81.31 238.52 75.49 248.87 75.67 C 248.71 76.01 248.39 76.69 248.23 77.04 C 239.79 77.41 232.65 82.32 225.97 86.98 C 224.83 87.81 223.44 88.08 222.12 88.45 Z" />
<path fill="#333333" opacity="1.00" d=" M 210.48 94.96 C 211.06 91.93 213.16 89.52 215.79 88.02 C 214.74 90.81 212.87 93.20 210.48 94.96 Z" />
<path fill="#333333" opacity="1.00" d=" M 191.92 98.99 C 192.89 96.93 194.67 95.48 196.67 94.46 C 195.83 96.64 194.14 98.28 191.92 98.99 Z" />
</g>
</svg>
