<?xml version="1.0" encoding="UTF-8" ?>
<!DOCTYPE svg PUBLIC "-//W3C//DTD SVG 1.1//EN" "http://www.w3.org/Graphics/SVG/1.1/DTD/svg11.dtd">
<svg width="276pt" height="225pt" viewBox="0 0 276 225" version="1.1" xmlns="http://www.w3.org/2000/svg">
<g id="#ffffffff">
<path fill="#FFFFFF" opacity="1.00" d=" M 0.00 0.00 L 276.00 0.00 L 276.00 225.00 L 0.00 225.00 L 0.00 0.00 M 154.54 19.61 C 151.32 21.11 151.23 25.08 150.60 28.07 C 153.55 26.08 153.16 21.66 155.77 19.20 C 159.34 20.72 163.24 22.05 165.75 25.20 C 169.76 30.09 172.28 36.62 171.37 42.98 C 170.97 46.39 167.65 48.53 164.38 47.60 C 163.20 46.57 161.99 45.46 160.33 45.33 C 161.18 41.90 162.36 38.53 162.88 35.03 C 160.85 31.55 156.68 30.32 153.27 28.63 C 150.75 29.77 148.02 30.47 145.78 32.15 C 143.75 30.86 141.83 29.20 139.43 28.66 C 136.55 28.38 133.63 29.94 132.61 32.74 C 130.34 32.36 127.76 31.30 125.75 32.99 C 121.56 34.63 121.50 39.66 121.36 43.45 C 123.31 42.37 122.91 40.07 123.35 38.21 C 123.76 36.26 125.12 34.73 126.31 33.19 C 129.44 33.93 132.80 34.34 135.48 36.28 C 140.63 40.12 143.52 46.27 144.81 52.42 C 145.58 56.04 143.98 60.46 140.33 61.82 C 137.79 62.55 135.70 60.82 133.66 59.63 C 133.98 64.88 141.84 65.21 144.31 61.22 C 145.34 59.24 147.51 60.22 149.24 60.26 C 150.92 58.62 153.26 57.31 153.74 54.81 C 155.26 47.10 152.26 38.85 146.58 33.51 C 148.71 32.68 150.77 31.53 153.04 31.16 C 155.99 31.29 158.36 33.24 160.52 35.03 C 160.05 38.72 158.92 42.30 158.61 46.01 C 158.42 48.90 160.21 51.35 161.29 53.90 C 163.27 58.59 163.38 63.80 165.09 68.58 C 165.88 72.70 167.04 76.78 167.18 81.00 C 167.58 85.00 166.25 88.93 166.60 92.95 C 166.85 94.28 166.32 96.28 167.87 96.98 C 168.77 97.07 170.57 97.25 171.47 97.34 C 171.23 98.68 170.98 100.03 170.71 101.38 C 174.25 106.12 175.49 112.01 174.88 117.84 C 173.46 117.02 172.04 116.21 170.61 115.42 C 171.90 111.06 170.70 106.61 167.96 103.10 C 166.14 101.90 164.00 101.42 161.98 100.71 C 161.77 101.54 161.33 103.20 161.12 104.03 C 159.44 102.73 158.23 100.99 157.25 99.13 C 156.94 96.03 155.88 93.09 155.31 90.04 C 155.69 86.68 156.97 83.47 159.10 80.83 C 162.49 83.14 160.50 88.02 162.96 91.06 C 163.25 87.55 163.18 84.03 163.11 80.51 C 158.95 80.07 157.68 75.95 155.56 73.09 C 154.70 75.96 156.83 78.38 157.76 80.91 C 157.24 81.30 156.20 82.08 155.68 82.47 C 154.51 79.05 152.99 75.67 152.89 72.00 C 152.42 67.50 154.16 62.70 152.02 58.47 C 149.97 61.66 151.26 65.58 150.58 69.11 C 149.83 74.35 151.94 79.43 154.65 83.80 C 152.62 88.85 153.17 94.23 154.82 99.29 C 150.19 97.47 145.38 99.00 141.40 101.56 C 139.22 103.09 135.65 102.88 134.67 105.74 C 136.05 105.24 137.41 104.69 138.77 104.15 C 139.16 104.39 139.93 104.89 140.31 105.13 C 144.71 104.56 147.19 108.57 150.29 110.91 C 151.25 112.76 151.81 114.82 152.73 116.70 C 151.22 117.66 149.72 118.62 148.22 119.58 C 146.25 119.49 143.95 118.79 142.55 120.64 C 144.31 120.94 146.09 121.13 147.88 121.31 C 147.05 123.03 146.24 124.76 145.48 126.52 C 145.16 126.29 144.53 125.82 144.21 125.59 C 143.53 127.30 142.73 128.99 142.22 130.77 C 143.84 130.25 145.31 129.39 146.84 128.65 C 147.67 126.17 148.60 123.73 149.54 121.30 C 150.75 120.78 151.96 120.27 153.18 119.77 C 153.26 118.65 153.33 117.53 153.37 116.41 C 153.34 114.19 152.85 112.02 152.34 109.87 C 153.20 108.42 154.05 106.95 154.41 105.28 C 152.78 106.32 151.37 107.66 149.97 108.98 C 150.00 108.28 150.05 106.88 150.08 106.18 C 148.21 106.24 146.67 105.35 145.42 104.04 C 143.91 103.88 142.41 103.71 140.92 103.53 C 142.95 101.95 145.52 101.33 147.94 100.59 C 150.52 99.66 153.10 101.30 155.73 101.03 C 156.74 102.67 158.11 103.93 160.17 103.80 C 160.37 104.29 160.77 105.25 160.97 105.74 C 160.50 107.01 160.06 108.29 159.64 109.58 C 162.56 108.45 163.39 105.19 163.49 102.37 C 168.77 104.59 169.63 110.72 168.71 115.73 C 167.10 114.68 165.82 113.32 164.86 111.64 C 164.09 112.80 163.95 114.15 163.94 115.51 C 160.60 117.77 158.56 121.32 157.27 125.07 C 158.99 123.53 160.54 121.81 161.74 119.83 C 162.92 117.96 164.42 115.56 167.03 116.17 C 172.51 116.65 175.30 122.02 177.72 126.26 C 179.13 130.37 181.18 134.53 180.91 138.97 C 180.33 143.10 176.66 145.59 174.00 148.40 C 171.70 148.54 169.41 148.54 167.12 148.51 C 162.97 146.33 160.01 142.87 157.28 139.16 C 159.29 139.68 161.37 139.92 163.36 139.15 C 160.20 138.69 158.06 136.65 157.03 133.71 C 156.48 133.60 155.36 133.38 154.81 133.28 C 154.97 135.13 155.45 136.90 156.24 138.60 C 153.47 135.21 149.25 136.96 145.84 138.08 C 143.39 139.27 139.97 137.04 138.36 139.93 C 135.34 140.86 132.16 140.85 129.04 140.84 C 127.27 139.71 125.38 138.80 123.53 137.84 C 121.99 137.13 120.49 136.34 118.98 135.59 C 121.14 137.90 123.00 140.91 126.19 141.87 C 130.93 143.46 136.37 143.47 140.54 140.42 C 145.76 140.99 150.96 138.72 156.13 140.34 C 157.47 147.90 165.89 151.57 172.88 150.42 C 170.29 153.98 165.90 155.20 162.23 157.26 C 156.45 160.52 149.76 163.48 143.01 162.46 C 138.01 160.35 133.40 157.31 129.37 153.68 C 126.97 151.57 123.77 150.75 121.27 148.81 C 116.78 145.00 111.27 142.75 106.24 139.80 C 96.36 135.50 88.01 128.49 78.44 123.63 C 69.44 117.14 59.47 112.14 50.47 105.64 C 48.00 103.50 45.02 102.08 42.43 100.10 C 41.82 100.00 40.61 99.80 40.00 99.70 C 40.01 98.17 39.97 96.63 40.13 95.10 C 41.66 93.93 43.38 93.01 44.92 91.85 C 46.54 92.56 48.05 93.52 49.12 94.96 C 51.37 97.78 54.34 99.87 57.37 101.77 C 58.03 103.98 58.70 106.63 61.07 107.61 C 65.59 109.09 69.90 111.15 74.48 112.48 C 79.11 114.69 84.74 114.80 88.16 119.09 C 92.49 119.96 96.69 117.28 100.94 119.15 C 102.51 121.20 104.15 123.21 105.48 125.44 C 107.57 125.27 108.10 127.61 109.07 128.97 C 111.07 132.87 115.67 134.05 119.16 136.17 C 118.45 132.59 116.05 130.21 112.63 129.22 C 109.94 126.24 107.26 123.25 104.42 120.42 C 102.19 116.68 97.89 115.12 94.95 112.08 C 93.60 109.73 95.32 106.93 95.19 104.39 C 95.55 103.96 96.27 103.09 96.63 102.66 C 100.65 96.56 107.78 91.98 115.27 92.51 C 115.09 91.55 114.72 89.64 114.53 88.68 C 114.90 88.73 115.63 88.83 116.00 88.87 C 116.57 93.85 117.27 98.83 116.09 103.78 C 115.54 103.80 114.45 103.84 113.90 103.86 C 114.80 104.10 115.70 104.34 116.61 104.58 C 113.36 110.51 112.83 117.63 115.48 123.89 C 117.38 127.82 117.98 132.49 121.17 135.68 C 121.20 132.43 119.57 129.55 118.63 126.53 C 116.13 121.02 115.07 114.70 116.82 108.81 C 118.80 104.15 118.35 98.95 119.87 94.14 C 116.72 89.84 118.98 84.02 117.86 79.17 C 117.56 79.24 116.96 79.39 116.67 79.46 C 115.80 81.90 115.65 84.52 115.65 87.10 C 115.00 87.56 114.34 88.02 113.68 88.47 L 113.68 87.02 L 111.61 87.00 C 111.79 86.30 112.15 84.91 112.32 84.21 C 106.79 81.53 100.99 78.90 96.94 74.09 C 93.63 73.11 91.86 69.89 89.05 68.12 C 83.36 64.69 78.11 59.69 71.03 59.68 C 67.15 58.94 63.55 61.02 61.30 64.04 C 60.72 67.41 61.04 70.85 60.90 74.25 C 60.32 74.12 59.18 73.88 58.61 73.76 C 55.61 70.25 50.77 69.31 46.41 68.80 C 42.61 68.62 38.59 67.17 35.00 69.09 C 31.10 72.03 29.93 77.14 31.38 81.71 C 30.62 86.14 31.13 90.66 30.78 95.12 C 30.29 101.84 33.16 108.26 32.99 114.93 C 32.21 119.11 27.42 119.83 23.90 120.09 C 21.44 120.11 19.49 121.74 17.45 122.89 C 17.47 125.27 17.00 128.24 18.97 130.01 C 21.95 132.14 25.59 133.23 28.34 135.72 C 31.25 136.67 33.97 138.09 36.91 138.94 C 40.08 139.47 43.28 138.30 46.14 137.06 C 48.59 132.36 46.32 126.87 45.13 122.08 C 44.86 116.02 44.87 109.90 45.82 103.88 C 48.09 105.73 50.10 107.88 52.40 109.69 C 52.01 114.77 51.37 119.92 52.56 124.95 C 53.79 130.88 52.19 136.86 52.67 142.82 C 53.17 150.06 51.57 157.23 51.76 164.46 C 46.78 166.94 41.73 169.24 36.72 171.64 C 36.75 175.52 37.29 179.37 37.49 183.24 C 41.01 183.36 44.67 185.97 48.01 184.06 C 53.70 180.90 59.73 178.36 65.88 176.25 C 75.22 178.44 83.77 183.00 93.09 185.22 C 103.77 188.72 114.39 192.42 125.02 196.08 C 127.08 196.65 129.19 195.74 131.23 195.42 C 110.76 188.35 89.99 182.17 69.63 174.76 C 69.54 174.28 69.37 173.33 69.28 172.85 C 62.52 174.38 56.66 178.42 50.44 181.33 C 47.02 183.57 42.97 181.57 39.26 181.58 C 39.20 178.58 39.18 175.57 39.20 172.57 C 44.17 170.07 49.56 168.62 54.57 166.24 C 53.70 157.56 54.67 148.81 54.34 140.10 C 55.53 130.47 53.90 120.81 54.64 111.17 C 56.82 112.43 58.98 113.74 61.27 114.81 C 62.36 115.32 63.44 115.86 64.52 116.40 C 63.36 119.78 63.82 123.38 63.49 126.87 C 62.89 134.67 62.60 142.49 63.29 150.29 C 63.84 150.72 64.95 151.58 65.51 152.02 C 65.44 146.30 65.62 140.59 65.58 134.87 C 67.49 133.98 69.53 133.32 71.25 132.07 C 72.55 129.16 73.01 125.59 71.08 122.85 C 71.11 122.01 71.31 121.21 71.66 120.45 C 76.63 125.47 83.56 127.67 88.89 132.19 C 95.32 137.31 102.80 140.79 109.57 145.39 C 116.99 149.28 124.22 153.54 131.04 158.42 C 131.91 167.39 131.63 176.42 132.28 185.41 C 129.12 184.56 126.12 183.27 123.11 182.03 C 120.44 181.29 117.64 181.06 115.03 180.04 C 104.41 176.53 93.81 172.97 83.34 169.04 C 82.71 168.98 81.46 168.85 80.84 168.78 C 83.95 167.32 86.86 165.48 89.63 163.44 C 89.64 161.77 89.66 160.10 89.70 158.44 C 89.12 157.30 88.56 156.16 88.01 155.02 C 85.06 153.97 81.97 151.09 78.76 152.86 C 74.48 154.81 70.15 156.63 65.87 158.57 C 65.60 156.78 65.80 154.62 63.70 153.77 C 63.64 156.51 63.70 159.26 63.77 162.00 C 67.95 159.58 72.69 158.12 76.44 154.98 C 78.84 154.66 81.32 154.00 83.67 154.97 C 87.74 155.16 87.29 160.18 87.15 163.10 C 83.95 165.29 80.24 166.75 76.46 167.62 C 76.41 168.21 76.32 169.38 76.27 169.96 C 85.73 171.59 94.81 174.85 103.75 178.25 C 113.94 181.84 124.39 184.66 134.49 188.52 C 135.08 179.20 133.74 169.90 134.00 160.58 C 137.67 162.51 141.69 163.61 145.56 165.07 C 144.85 174.65 143.01 184.38 144.90 193.94 C 147.75 191.81 145.97 188.08 146.17 185.11 C 151.17 182.95 156.09 180.59 161.06 178.35 C 163.34 179.84 166.01 180.93 167.87 182.97 C 168.35 185.30 168.29 187.70 168.41 190.07 C 152.99 197.26 137.67 204.66 122.19 211.72 C 120.23 210.17 117.75 209.14 116.23 207.13 C 116.03 205.07 116.15 202.99 116.19 200.93 C 118.04 200.15 119.90 199.37 121.77 198.64 C 120.11 198.64 118.39 198.19 116.78 198.71 C 112.31 200.03 114.93 205.57 114.71 208.86 C 117.17 210.45 119.52 212.24 122.13 213.60 C 123.22 213.47 124.18 212.91 125.16 212.47 C 140.18 205.20 155.39 198.33 170.39 191.02 C 170.37 187.52 169.99 184.05 169.32 180.63 C 166.52 179.37 164.13 176.28 160.93 176.45 C 156.00 178.57 151.22 181.03 146.30 183.19 C 146.58 177.14 146.26 171.08 146.63 165.03 C 153.36 163.67 159.96 161.45 165.83 157.82 C 169.49 155.94 175.38 154.60 174.90 149.33 C 176.09 149.01 177.29 148.70 178.50 148.42 L 177.97 147.48 C 179.24 145.72 180.64 144.07 182.14 142.50 C 183.54 134.08 181.35 124.87 174.89 119.01 C 179.47 115.99 177.69 109.70 175.27 105.82 C 172.25 101.17 173.85 95.25 171.45 90.37 C 169.75 86.52 168.11 82.40 168.61 78.09 C 168.95 71.99 166.53 66.33 165.56 60.42 C 163.96 55.54 161.10 51.14 160.17 46.02 C 162.07 48.47 165.29 51.09 168.55 49.45 C 172.70 47.80 173.39 42.67 172.82 38.79 C 171.61 32.24 169.19 25.32 163.70 21.14 C 161.13 19.29 157.51 17.63 154.54 19.61 M 124.19 43.37 C 123.63 43.78 122.51 44.60 121.94 45.01 C 121.52 45.19 120.68 45.54 120.25 45.72 L 120.40 44.30 C 119.50 45.92 117.99 47.02 116.59 48.17 C 116.73 49.30 116.88 50.43 117.04 51.56 C 122.84 56.79 126.49 64.82 124.67 72.65 C 123.68 75.65 120.50 76.62 117.66 76.76 C 108.96 73.91 103.32 64.79 102.83 55.91 C 102.44 52.66 104.23 49.84 106.06 47.35 C 109.79 47.72 113.34 48.83 116.71 50.42 C 114.40 45.13 105.60 44.43 102.80 49.74 C 101.44 53.35 101.60 57.34 101.96 61.12 C 103.51 67.25 107.64 72.54 112.72 76.21 C 115.48 78.40 119.35 78.68 122.61 77.69 C 128.09 74.39 127.38 67.00 125.90 61.67 C 128.02 60.36 129.64 58.48 130.44 56.10 C 128.52 57.11 126.68 58.26 124.76 59.27 C 123.20 55.66 120.65 52.67 117.85 49.97 C 119.56 48.81 121.20 47.49 123.11 46.65 C 126.11 45.77 129.83 46.56 131.81 49.08 C 132.72 51.22 131.90 53.57 131.66 55.76 C 130.72 60.10 131.42 64.63 130.04 68.89 C 129.74 75.76 131.49 82.63 130.79 89.51 C 130.71 91.11 129.99 92.56 129.03 93.81 C 130.12 96.13 131.01 98.55 131.19 101.15 C 132.86 98.68 131.49 95.88 131.32 93.23 C 131.80 89.78 133.67 86.49 132.96 82.92 C 132.36 79.37 131.81 75.79 131.65 72.20 C 132.22 68.79 133.07 65.41 133.01 61.93 C 132.98 57.30 134.43 52.87 135.08 48.33 C 132.14 45.33 127.83 45.03 124.19 43.37 M 122.50 87.47 C 123.52 84.33 123.91 81.02 124.07 77.73 C 120.97 80.08 122.48 84.20 122.50 87.47 M 124.97 87.82 C 123.84 89.84 122.22 91.66 121.77 94.00 L 123.14 93.87 C 126.24 90.17 129.09 85.59 127.90 80.54 C 126.89 82.95 126.33 85.56 124.97 87.82 M 132.29 94.75 C 134.33 96.83 133.38 99.86 134.31 102.38 C 135.71 100.26 136.00 97.71 136.36 95.25 C 139.77 95.04 142.95 96.35 146.21 97.11 C 146.06 96.59 145.75 95.53 145.60 95.01 C 141.65 92.22 136.62 94.11 132.29 94.75 M 106.42 94.95 C 108.02 98.44 112.36 96.62 115.34 97.46 C 114.07 94.06 109.33 95.22 106.42 94.95 M 121.28 96.56 C 121.93 99.81 122.00 103.12 121.94 106.42 C 120.64 108.31 119.49 110.29 118.40 112.31 C 118.79 112.49 119.56 112.85 119.95 113.02 C 121.06 110.63 122.62 108.45 123.51 105.96 C 124.25 102.65 123.06 99.34 121.28 96.56 M 112.93 97.48 C 111.95 98.37 110.95 99.26 109.95 100.13 C 109.96 100.93 109.99 102.52 110.01 103.32 C 111.65 101.92 113.30 100.52 115.04 99.23 C 114.34 98.64 113.64 98.06 112.93 97.48 M 131.34 102.26 C 131.51 107.30 131.28 112.35 130.98 117.38 C 132.44 118.73 134.12 119.84 135.51 121.28 C 137.31 123.56 137.99 126.46 139.14 129.08 C 138.25 130.10 137.39 131.14 136.58 132.22 C 137.18 132.14 138.39 131.99 138.99 131.91 C 139.86 128.42 139.93 124.45 137.63 121.46 C 138.27 120.21 138.86 118.94 139.48 117.68 C 138.39 115.97 136.93 114.32 134.68 114.72 C 135.39 115.56 136.11 116.41 136.85 117.24 C 136.87 118.18 136.92 120.04 136.95 120.97 C 135.31 119.68 133.67 118.39 132.02 117.12 C 134.60 111.85 132.23 105.72 133.16 100.10 C 132.55 100.81 131.94 101.53 131.34 102.26 M 100.51 101.72 C 100.41 104.54 102.69 105.14 104.97 105.46 C 104.99 104.89 105.02 103.74 105.04 103.17 C 103.52 102.71 102.02 102.19 100.51 101.72 M 125.49 103.18 C 125.60 105.91 125.98 108.62 125.95 111.35 C 125.45 113.45 125.09 115.59 124.90 117.74 C 127.39 116.36 127.31 113.37 126.52 111.01 L 127.99 110.92 C 127.64 108.17 127.32 105.42 126.85 102.69 C 126.51 102.82 125.83 103.06 125.49 103.18 M 155.98 114.10 C 155.93 114.60 155.84 115.59 155.80 116.09 C 157.25 116.15 158.71 116.21 160.17 116.26 C 160.20 115.89 160.27 115.15 160.30 114.77 C 158.86 114.55 157.42 114.32 155.98 114.10 M 123.06 117.53 C 122.58 118.92 123.04 119.41 124.46 119.00 C 124.93 117.61 124.46 117.12 123.06 117.53 M 155.11 117.42 C 154.15 118.53 154.36 119.20 155.76 119.42 C 156.73 118.31 156.51 117.64 155.11 117.42 M 130.27 144.62 C 133.53 149.06 139.17 150.36 143.95 152.49 C 147.49 154.08 151.48 154.32 155.22 153.37 C 155.36 152.97 155.62 152.17 155.75 151.77 C 146.37 153.68 138.94 146.52 130.27 144.62 M 63.86 152.04 C 63.97 155.42 66.96 150.55 63.86 152.04 Z" />
<path fill="#FFFFFF" opacity="1.00" d=" M 133.28 32.98 C 134.47 31.82 135.62 30.63 136.76 29.42 C 139.96 30.67 143.12 32.04 146.01 33.93 C 147.73 37.45 150.26 40.56 151.48 44.32 C 152.54 47.89 152.24 51.64 151.96 55.29 C 150.55 57.30 148.49 58.50 146.11 59.00 C 146.03 56.13 146.05 53.26 145.99 50.39 C 143.41 43.60 140.32 36.21 133.28 32.98 Z" />
<path fill="#FFFFFF" opacity="1.00" d=" M 66.83 61.52 C 76.84 60.48 85.47 67.32 92.40 73.71 C 89.70 74.42 87.02 75.25 84.40 76.23 C 83.03 78.16 81.48 79.95 80.06 81.84 C 76.53 80.61 72.80 80.15 69.08 80.50 C 69.04 79.98 68.98 78.95 68.94 78.43 C 66.50 77.40 64.15 76.18 61.79 74.98 C 62.26 74.01 62.73 73.05 63.20 72.08 C 62.91 69.14 63.11 66.17 64.18 63.39 C 65.07 62.77 65.95 62.15 66.83 61.52 M 67.11 69.15 C 67.34 69.66 67.80 70.68 68.04 71.20 C 71.97 72.14 76.02 71.93 80.03 72.10 C 76.73 68.42 71.38 70.36 67.11 69.15 M 65.49 74.42 C 67.42 77.58 71.64 77.06 74.76 78.09 C 74.67 77.52 74.51 76.38 74.43 75.82 C 71.39 75.78 68.48 74.84 65.49 74.42 Z" />
<path fill="#FFFFFF" opacity="1.00" d=" M 33.78 73.83 C 34.29 72.23 35.68 71.20 36.83 70.07 C 42.19 70.20 47.98 69.15 52.82 72.10 C 57.98 75.33 63.44 78.01 68.82 80.85 C 64.04 82.58 59.53 85.88 57.71 90.79 C 56.54 93.29 57.08 96.12 57.06 98.78 C 54.14 96.79 51.43 94.52 48.77 92.20 C 47.61 91.54 46.48 90.83 45.37 90.10 C 43.24 91.31 41.00 92.31 38.93 93.60 C 38.85 95.68 38.65 97.75 38.73 99.83 C 39.57 101.65 42.09 101.69 43.33 103.20 C 43.96 106.48 42.76 109.74 42.87 113.04 C 42.67 120.68 46.03 128.01 44.80 135.68 C 38.33 138.43 32.30 133.95 26.29 132.09 C 22.19 130.80 18.18 127.82 17.92 123.17 C 23.29 121.35 29.81 121.73 34.30 118.12 C 35.23 109.32 31.35 100.77 32.30 91.99 C 32.37 88.54 31.40 84.94 32.74 81.62 C 33.69 79.12 32.54 76.27 33.78 73.83 M 39.10 74.76 C 37.32 74.84 35.48 75.01 34.55 76.77 C 37.08 76.97 40.07 77.79 42.09 75.74 C 41.83 74.86 41.54 74.00 41.21 73.14 C 40.51 73.68 39.80 74.22 39.10 74.76 M 44.73 78.89 C 45.02 79.38 45.60 80.36 45.89 80.85 C 48.86 81.27 51.65 82.39 54.43 83.45 C 53.98 78.98 48.20 78.85 44.73 78.89 M 38.73 83.87 C 38.74 84.52 38.76 85.18 38.77 85.84 C 40.61 85.96 42.97 84.79 44.31 86.57 C 47.16 89.57 50.62 92.01 54.59 93.29 C 54.36 92.82 53.91 91.86 53.68 91.38 C 50.31 89.31 46.76 87.32 44.56 83.88 C 42.62 83.79 40.68 83.80 38.73 83.87 M 36.07 86.99 C 33.02 96.26 34.12 106.96 38.93 115.45 C 38.56 110.53 36.57 105.88 36.67 100.89 C 35.72 96.40 37.61 91.99 37.21 87.47 C 36.93 87.35 36.35 87.11 36.07 86.99 M 39.96 119.96 C 39.95 122.71 39.94 125.46 39.94 128.22 C 40.35 128.27 41.18 128.37 41.59 128.42 C 41.72 125.53 41.76 122.64 42.03 119.76 C 41.52 119.81 40.48 119.91 39.96 119.96 M 32.16 125.36 C 32.36 125.90 32.77 127.00 32.97 127.54 C 34.80 126.72 36.49 125.65 38.08 124.43 C 36.10 124.71 34.13 125.02 32.16 125.36 Z" />
<path fill="#FFFFFF" opacity="1.00" d=" M 86.81 76.43 C 89.99 76.36 93.19 76.61 96.36 76.20 C 96.92 76.50 98.04 77.10 98.61 77.40 C 99.96 78.99 101.47 80.43 103.04 81.80 L 102.26 82.78 C 102.58 82.55 103.22 82.11 103.54 81.89 C 106.05 83.32 108.64 84.61 111.18 85.98 C 111.49 87.04 111.80 88.09 112.11 89.15 C 109.08 91.49 105.00 91.68 102.07 94.14 C 99.80 95.82 97.61 97.62 95.26 99.20 C 92.47 103.31 90.80 109.07 92.87 113.81 C 94.38 114.75 95.83 115.78 97.24 116.88 C 87.80 118.43 80.18 111.80 71.95 108.55 C 68.26 108.01 65.05 106.13 61.60 104.89 C 61.16 100.68 58.74 96.56 60.27 92.25 C 61.37 86.47 66.75 80.72 73.04 81.97 C 77.86 82.19 81.59 85.71 86.13 86.94 C 88.48 86.32 90.84 85.72 93.14 84.92 C 92.77 84.53 92.02 83.74 91.65 83.34 C 89.03 83.84 86.42 84.42 83.77 84.69 C 83.50 84.11 82.95 82.95 82.68 82.37 C 82.03 82.56 80.71 82.96 80.05 83.16 C 82.79 81.43 84.96 79.06 86.81 76.43 M 81.61 101.45 L 81.59 103.01 C 85.59 101.20 89.64 99.46 94.00 98.75 C 94.00 98.23 94.01 97.19 94.01 96.67 C 89.52 97.08 85.17 98.65 81.61 101.45 Z" />
<path fill="#FFFFFF" opacity="1.00" d=" M 168.32 94.72 C 168.18 92.02 167.95 89.25 168.84 86.63 C 169.43 89.74 170.46 92.74 171.14 95.83 C 170.20 95.47 169.26 95.10 168.32 94.72 Z" />
<path fill="#FFFFFF" opacity="1.00" d=" M 65.14 117.44 C 66.69 118.15 68.28 118.70 69.93 119.09 C 69.82 119.68 69.69 120.26 69.56 120.85 C 68.97 120.45 67.79 119.66 67.20 119.27 C 68.44 122.94 70.57 126.51 69.62 130.56 C 68.30 131.06 66.97 131.57 65.65 132.06 C 65.77 127.19 66.49 122.22 65.14 117.44 Z" />
</g>
<g id="#373936ff">
<path fill="#333333" opacity="1.00" d=" M 154.54 19.61 C 157.51 17.63 161.13 19.29 163.70 21.14 C 169.19 25.32 171.61 32.24 172.82 38.79 C 173.39 42.67 172.70 47.80 168.55 49.45 C 165.29 51.09 162.07 48.47 160.17 46.02 C 161.10 51.14 163.96 55.54 165.56 60.42 C 166.53 66.33 168.95 71.99 168.61 78.09 C 168.11 82.40 169.75 86.52 171.45 90.37 C 173.85 95.25 172.25 101.17 175.27 105.82 C 177.69 109.70 179.47 115.99 174.89 119.01 C 181.35 124.87 183.54 134.08 182.14 142.50 C 180.64 144.07 179.24 145.72 177.97 147.48 L 178.50 148.42 C 177.29 148.70 176.09 149.01 174.90 149.33 C 175.38 154.60 169.49 155.94 165.83 157.82 C 159.96 161.45 153.36 163.67 146.63 165.03 C 146.26 171.08 146.58 177.14 146.30 183.19 C 151.22 181.03 156.00 178.57 160.93 176.45 C 164.13 176.28 166.52 179.37 169.32 180.63 C 169.99 184.05 170.37 187.52 170.39 191.02 C 155.39 198.33 140.18 205.20 125.16 212.47 C 124.18 212.91 123.22 213.47 122.13 213.60 C 119.52 212.24 117.17 210.45 114.71 208.86 C 114.93 205.57 112.31 200.03 116.78 198.71 C 118.39 198.19 120.11 198.64 121.77 198.64 C 119.90 199.37 118.04 200.15 116.19 200.93 C 116.15 202.99 116.03 205.07 116.23 207.13 C 117.75 209.14 120.23 210.17 122.19 211.72 C 137.67 204.66 152.99 197.26 168.41 190.07 C 168.29 187.70 168.35 185.30 167.87 182.97 C 166.01 180.93 163.34 179.84 161.06 178.35 C 156.09 180.59 151.17 182.95 146.17 185.11 C 145.97 188.08 147.75 191.81 144.90 193.94 C 143.01 184.38 144.85 174.65 145.56 165.07 C 141.69 163.61 137.67 162.51 134.00 160.58 C 133.74 169.90 135.08 179.20 134.49 188.52 C 124.39 184.66 113.94 181.84 103.75 178.25 C 94.81 174.85 85.73 171.59 76.27 169.96 C 76.32 169.38 76.41 168.21 76.46 167.62 C 80.24 166.75 83.95 165.29 87.15 163.10 C 87.29 160.18 87.74 155.16 83.67 154.97 C 81.32 154.00 78.84 154.66 76.44 154.98 C 72.69 158.12 67.95 159.58 63.77 162.00 C 63.70 159.26 63.64 156.51 63.70 153.77 C 65.80 154.62 65.60 156.78 65.87 158.57 C 70.15 156.63 74.48 154.81 78.76 152.86 C 81.97 151.09 85.06 153.97 88.01 155.02 C 88.56 156.16 89.12 157.30 89.70 158.44 C 89.66 160.10 89.64 161.77 89.63 163.44 C 86.86 165.48 83.95 167.32 80.84 168.78 C 81.46 168.85 82.71 168.98 83.34 169.04 C 93.81 172.97 104.41 176.53 115.03 180.04 C 117.64 181.06 120.44 181.29 123.11 182.03 C 126.12 183.27 129.12 184.56 132.28 185.41 C 131.63 176.42 131.91 167.39 131.04 158.42 C 124.22 153.54 116.99 149.28 109.57 145.39 C 102.80 140.79 95.32 137.31 88.89 132.19 C 83.56 127.67 76.63 125.47 71.66 120.45 C 71.31 121.21 71.11 122.01 71.08 122.85 C 73.01 125.59 72.55 129.16 71.25 132.07 C 69.53 133.32 67.49 133.98 65.58 134.87 C 65.62 140.59 65.44 146.30 65.51 152.02 C 64.95 151.58 63.84 150.72 63.29 150.29 C 62.60 142.49 62.89 134.67 63.49 126.87 C 63.82 123.38 63.36 119.78 64.52 116.40 C 63.44 115.86 62.36 115.32 61.27 114.81 C 58.98 113.74 56.82 112.43 54.64 111.17 C 53.90 120.81 55.53 130.47 54.34 140.10 C 54.67 148.81 53.70 157.56 54.57 166.24 C 49.56 168.62 44.17 170.07 39.20 172.57 C 39.18 175.57 39.20 178.58 39.26 181.58 C 42.97 181.57 47.02 183.57 50.44 181.33 C 56.66 178.42 62.52 174.38 69.28 172.85 C 69.37 173.33 69.54 174.28 69.63 174.76 C 89.99 182.17 110.76 188.35 131.23 195.42 C 129.19 195.74 127.08 196.65 125.02 196.08 C 114.39 192.42 103.77 188.72 93.09 185.22 C 83.77 183.00 75.22 178.44 65.88 176.25 C 59.73 178.36 53.70 180.90 48.01 184.06 C 44.67 185.97 41.01 183.36 37.49 183.24 C 37.29 179.37 36.75 175.52 36.72 171.64 C 41.73 169.24 46.78 166.94 51.76 164.46 C 51.57 157.23 53.17 150.06 52.67 142.82 C 52.19 136.86 53.79 130.88 52.56 124.95 C 51.37 119.92 52.01 114.77 52.40 109.69 C 50.10 107.88 48.09 105.73 45.82 103.88 C 44.87 109.90 44.86 116.02 45.13 122.08 C 46.32 126.87 48.59 132.36 46.14 137.06 C 43.28 138.30 40.08 139.47 36.91 138.94 C 33.97 138.09 31.25 136.67 28.34 135.72 C 25.59 133.23 21.95 132.14 18.97 130.01 C 17.00 128.24 17.47 125.27 17.45 122.89 C 19.49 121.74 21.44 120.11 23.90 120.09 C 27.42 119.83 32.21 119.11 32.99 114.93 C 33.16 108.26 30.29 101.84 30.78 95.12 C 31.13 90.66 30.62 86.14 31.38 81.71 C 29.93 77.14 31.10 72.03 35.00 69.09 C 38.59 67.17 42.61 68.62 46.41 68.80 C 50.77 69.31 55.61 70.25 58.61 73.76 C 59.18 73.88 60.32 74.12 60.90 74.25 C 61.04 70.85 60.72 67.41 61.30 64.04 C 63.55 61.02 67.15 58.94 71.03 59.68 C 78.11 59.69 83.36 64.69 89.05 68.12 C 91.86 69.89 93.63 73.11 96.94 74.09 C 100.99 78.90 106.79 81.53 112.32 84.21 C 112.15 84.91 111.79 86.30 111.61 87.00 L 113.68 87.02 L 113.68 88.47 C 114.34 88.02 115.00 87.56 115.65 87.10 C 115.65 84.52 115.80 81.90 116.67 79.46 C 116.96 79.39 117.56 79.24 117.86 79.17 C 118.98 84.02 116.72 89.84 119.87 94.14 C 118.35 98.95 118.80 104.15 116.82 108.81 C 115.07 114.70 116.13 121.02 118.63 126.53 C 119.57 129.55 121.20 132.43 121.17 135.68 C 117.98 132.49 117.38 127.82 115.48 123.89 C 112.83 117.63 113.36 110.51 116.61 104.58 C 115.70 104.34 114.80 104.10 113.90 103.86 C 114.45 103.84 115.54 103.80 116.09 103.78 C 117.27 98.83 116.57 93.85 116.00 88.87 C 115.63 88.83 114.90 88.73 114.53 88.68 C 114.72 89.64 115.09 91.55 115.27 92.51 C 107.78 91.98 100.65 96.56 96.63 102.66 C 96.27 103.09 95.55 103.96 95.19 104.39 C 95.32 106.93 93.60 109.73 94.95 112.08 C 97.89 115.12 102.19 116.68 104.42 120.42 C 107.26 123.25 109.94 126.24 112.63 129.22 C 116.05 130.21 118.45 132.59 119.16 136.17 C 115.67 134.05 111.07 132.87 109.07 128.97 C 108.10 127.61 107.57 125.27 105.48 125.44 C 104.15 123.21 102.51 121.20 100.94 119.15 C 96.69 117.28 92.49 119.96 88.16 119.09 C 84.74 114.80 79.11 114.69 74.48 112.48 C 69.90 111.15 65.59 109.09 61.07 107.61 C 58.70 106.63 58.03 103.98 57.37 101.77 C 54.34 99.87 51.37 97.78 49.12 94.96 C 48.05 93.52 46.54 92.56 44.92 91.85 C 43.38 93.01 41.66 93.93 40.13 95.10 C 39.97 96.63 40.01 98.17 40.00 99.70 C 40.61 99.80 41.82 100.00 42.43 100.10 C 45.02 102.08 48.00 103.50 50.47 105.64 C 59.47 112.14 69.44 117.14 78.44 123.63 C 88.01 128.49 96.36 135.50 106.24 139.80 C 111.27 142.75 116.78 145.00 121.27 148.81 C 123.77 150.75 126.97 151.57 129.37 153.68 C 133.40 157.31 138.01 160.35 143.01 162.46 C 149.76 163.48 156.45 160.52 162.23 157.26 C 165.90 155.20 170.29 153.98 172.88 150.42 C 165.89 151.57 157.47 147.90 156.13 140.34 C 150.96 138.72 145.76 140.99 140.54 140.42 C 136.37 143.47 130.93 143.46 126.19 141.87 C 123.00 140.91 121.14 137.90 118.98 135.59 C 120.49 136.34 121.99 137.13 123.53 137.84 C 125.38 138.80 127.27 139.71 129.04 140.84 C 132.16 140.85 135.34 140.86 138.36 139.93 C 139.97 137.04 143.39 139.27 145.84 138.08 C 149.25 136.96 153.47 135.21 156.24 138.60 C 155.45 136.90 154.97 135.13 154.81 133.28 C 155.36 133.38 156.48 133.60 157.03 133.71 C 158.06 136.65 160.20 138.69 163.36 139.15 C 161.37 139.92 159.29 139.68 157.28 139.16 C 160.01 142.87 162.97 146.33 167.12 148.51 C 169.41 148.54 171.70 148.54 174.00 148.40 C 176.66 145.59 180.33 143.10 180.91 138.97 C 181.18 134.53 179.13 130.37 177.72 126.26 C 175.30 122.02 172.51 116.65 167.03 116.17 C 164.42 115.56 162.92 117.96 161.74 119.83 C 160.54 121.81 158.99 123.53 157.27 125.07 C 158.56 121.32 160.60 117.77 163.94 115.51 C 163.95 114.15 164.09 112.80 164.86 111.64 C 165.82 113.32 167.10 114.68 168.71 115.73 C 169.63 110.72 168.77 104.59 163.49 102.37 C 163.39 105.19 162.56 108.45 159.64 109.58 C 160.06 108.29 160.50 107.01 160.97 105.74 C 160.77 105.25 160.37 104.29 160.17 103.80 C 158.11 103.93 156.74 102.67 155.73 101.03 C 153.10 101.30 150.52 99.66 147.94 100.59 C 145.52 101.33 142.95 101.95 140.92 103.53 C 142.41 103.71 143.91 103.88 145.42 104.04 C 146.67 105.35 148.21 106.24 150.08 106.18 C 150.05 106.88 150.00 108.28 149.97 108.98 C 151.37 107.66 152.78 106.32 154.41 105.28 C 154.05 106.95 153.20 108.42 152.34 109.87 C 152.85 112.02 153.34 114.19 153.37 116.41 C 153.33 117.53 153.26 118.65 153.18 119.77 C 151.96 120.27 150.75 120.78 149.54 121.30 C 148.60 123.73 147.67 126.17 146.84 128.65 C 145.31 129.39 143.84 130.25 142.22 130.77 C 142.73 128.99 143.53 127.30 144.21 125.59 C 144.53 125.82 145.16 126.29 145.48 126.52 C 146.24 124.76 147.05 123.03 147.88 121.31 C 146.09 121.13 144.31 120.94 142.55 120.64 C 143.95 118.79 146.25 119.49 148.22 119.58 C 149.72 118.62 151.22 117.66 152.73 116.70 C 151.81 114.82 151.25 112.76 150.29 110.91 C 147.19 108.57 144.71 104.56 140.31 105.13 C 139.93 104.89 139.16 104.39 138.77 104.15 C 137.41 104.69 136.05 105.24 134.67 105.74 C 135.65 102.88 139.22 103.09 141.40 101.56 C 145.38 99.00 150.19 97.47 154.82 99.29 C 153.17 94.23 152.62 88.85 154.65 83.80 C 151.94 79.43 149.83 74.35 150.58 69.11 C 151.26 65.58 149.97 61.66 152.02 58.47 C 154.16 62.70 152.42 67.50 152.89 72.00 C 152.99 75.67 154.51 79.05 155.68 82.47 C 156.20 82.08 157.24 81.30 157.76 80.91 C 156.83 78.38 154.70 75.96 155.56 73.09 C 157.68 75.95 158.95 80.07 163.11 80.51 C 163.18 84.03 163.25 87.55 162.96 91.06 C 160.50 88.02 162.49 83.14 159.10 80.83 C 156.97 83.47 155.69 86.68 155.31 90.04 C 155.88 93.09 156.94 96.03 157.25 99.13 C 158.23 100.99 159.44 102.73 161.12 104.03 C 161.33 103.20 161.77 101.54 161.98 100.71 C 164.00 101.42 166.14 101.90 167.96 103.10 C 170.70 106.61 171.90 111.06 170.61 115.42 C 172.04 116.21 173.46 117.02 174.88 117.84 C 175.49 112.01 174.25 106.12 170.71 101.38 C 170.98 100.03 171.23 98.68 171.47 97.34 C 170.57 97.25 168.77 97.07 167.87 96.98 C 166.32 96.28 166.85 94.28 166.60 92.95 C 166.25 88.93 167.58 85.00 167.18 81.00 C 167.04 76.78 165.88 72.70 165.09 68.58 C 163.38 63.80 163.27 58.59 161.29 53.90 C 160.21 51.35 158.42 48.90 158.61 46.01 C 158.92 42.30 160.05 38.72 160.52 35.03 C 158.36 33.24 155.99 31.29 153.04 31.16 C 150.77 31.53 148.71 32.68 146.58 33.51 C 152.26 38.85 155.26 47.10 153.74 54.81 C 153.26 57.31 150.92 58.62 149.24 60.26 C 147.51 60.22 145.34 59.24 144.31 61.22 C 141.84 65.21 133.98 64.88 133.66 59.63 C 135.70 60.82 137.79 62.55 140.33 61.82 C 143.98 60.46 145.58 56.04 144.81 52.42 C 143.52 46.27 140.63 40.12 135.48 36.28 C 132.80 34.34 129.44 33.93 126.31 33.19 C 125.12 34.73 123.76 36.26 123.35 38.21 C 122.91 40.07 123.31 42.37 121.36 43.45 C 121.50 39.66 121.56 34.63 125.75 32.99 C 127.76 31.30 130.34 32.36 132.61 32.74 C 133.63 29.94 136.55 28.38 139.43 28.66 C 141.83 29.20 143.75 30.86 145.78 32.15 C 148.02 30.47 150.75 29.77 153.27 28.63 C 156.68 30.32 160.85 31.55 162.88 35.03 C 162.36 38.53 161.18 41.90 160.33 45.33 C 161.99 45.46 163.20 46.57 164.38 47.60 C 167.65 48.53 170.97 46.39 171.37 42.98 C 172.28 36.62 169.76 30.09 165.75 25.20 C 163.24 22.05 159.34 20.72 155.77 19.20 C 153.16 21.66 153.55 26.08 150.60 28.07 C 151.23 25.08 151.32 21.11 154.54 19.61 M 133.28 32.98 C 140.32 36.21 143.41 43.60 145.99 50.39 C 146.05 53.26 146.03 56.13 146.11 59.00 C 148.49 58.50 150.55 57.30 151.96 55.29 C 152.24 51.64 152.54 47.89 151.48 44.32 C 150.26 40.56 147.73 37.45 146.01 33.93 C 143.12 32.04 139.96 30.67 136.76 29.42 C 135.62 30.63 134.47 31.82 133.28 32.98 M 66.83 61.52 C 65.95 62.15 65.07 62.77 64.18 63.39 C 63.11 66.17 62.91 69.14 63.20 72.08 C 62.73 73.05 62.26 74.01 61.79 74.98 C 64.15 76.18 66.50 77.40 68.94 78.43 C 68.98 78.95 69.04 79.98 69.08 80.50 C 72.80 80.15 76.53 80.61 80.06 81.84 C 81.48 79.95 83.03 78.16 84.40 76.23 C 87.02 75.25 89.70 74.42 92.40 73.71 C 85.47 67.32 76.84 60.48 66.83 61.52 M 33.78 73.83 C 32.54 76.27 33.69 79.12 32.74 81.62 C 31.40 84.94 32.37 88.54 32.30 91.99 C 31.35 100.77 35.23 109.32 34.30 118.12 C 29.81 121.73 23.29 121.35 17.92 123.17 C 18.18 127.82 22.19 130.80 26.29 132.09 C 32.30 133.95 38.33 138.43 44.80 135.68 C 46.03 128.01 42.67 120.68 42.87 113.04 C 42.76 109.74 43.96 106.48 43.33 103.20 C 42.09 101.69 39.57 101.65 38.73 99.83 C 38.65 97.75 38.85 95.68 38.93 93.60 C 41.00 92.31 43.24 91.31 45.37 90.10 C 46.48 90.83 47.61 91.54 48.77 92.20 C 51.43 94.52 54.14 96.79 57.06 98.78 C 57.08 96.12 56.54 93.29 57.71 90.79 C 59.53 85.88 64.04 82.58 68.82 80.85 C 63.44 78.01 57.98 75.33 52.82 72.10 C 47.98 69.15 42.19 70.20 36.83 70.07 C 35.68 71.20 34.29 72.23 33.78 73.83 M 86.81 76.43 C 84.96 79.06 82.79 81.43 80.05 83.16 C 80.71 82.96 82.03 82.56 82.68 82.37 C 82.95 82.95 83.50 84.11 83.77 84.69 C 86.42 84.42 89.03 83.84 91.65 83.34 C 92.02 83.74 92.77 84.53 93.14 84.92 C 90.84 85.72 88.48 86.32 86.13 86.94 C 81.59 85.71 77.86 82.19 73.04 81.97 C 66.75 80.72 61.37 86.47 60.27 92.25 C 58.74 96.56 61.16 100.68 61.60 104.89 C 65.05 106.13 68.26 108.01 71.95 108.55 C 80.18 111.80 87.80 118.43 97.24 116.88 C 95.83 115.78 94.38 114.75 92.87 113.81 C 90.80 109.07 92.47 103.31 95.26 99.20 C 97.61 97.62 99.80 95.82 102.07 94.14 C 105.00 91.68 109.08 91.49 112.11 89.15 C 111.80 88.09 111.49 87.04 111.18 85.98 C 108.64 84.61 106.05 83.32 103.54 81.89 C 103.22 82.11 102.58 82.55 102.26 82.78 L 103.04 81.80 C 101.47 80.43 99.96 78.99 98.61 77.40 C 98.04 77.10 96.92 76.50 96.36 76.20 C 93.19 76.61 89.99 76.36 86.81 76.43 M 168.32 94.72 C 169.26 95.10 170.20 95.47 171.14 95.83 C 170.46 92.74 169.43 89.74 168.84 86.63 C 167.95 89.25 168.18 92.02 168.32 94.72 M 65.14 117.44 C 66.49 122.22 65.77 127.19 65.65 132.06 C 66.97 131.57 68.30 131.06 69.62 130.56 C 70.57 126.51 68.44 122.94 67.20 119.27 C 67.79 119.66 68.97 120.45 69.56 120.85 C 69.69 120.26 69.82 119.68 69.93 119.09 C 68.28 118.70 66.69 118.15 65.14 117.44 Z" />
<path fill="#333333" opacity="1.00" d=" M 124.19 43.37 C 127.83 45.03 132.14 45.33 135.08 48.33 C 134.43 52.87 132.98 57.30 133.01 61.93 C 133.07 65.41 132.22 68.79 131.65 72.20 C 131.81 75.79 132.36 79.37 132.96 82.92 C 133.67 86.49 131.80 89.78 131.32 93.23 C 131.49 95.88 132.86 98.68 131.19 101.15 C 131.01 98.55 130.12 96.13 129.03 93.81 C 129.99 92.56 130.71 91.11 130.79 89.51 C 131.49 82.63 129.74 75.76 130.04 68.89 C 131.42 64.63 130.72 60.10 131.66 55.76 C 131.90 53.57 132.72 51.22 131.81 49.08 C 129.83 46.56 126.11 45.77 123.11 46.65 C 121.20 47.49 119.56 48.81 117.85 49.97 C 120.65 52.67 123.20 55.66 124.76 59.27 C 126.68 58.26 128.52 57.11 130.44 56.10 C 129.64 58.48 128.02 60.36 125.90 61.67 C 127.38 67.00 128.09 74.39 122.61 77.69 C 119.35 78.68 115.48 78.40 112.72 76.21 C 107.64 72.54 103.51 67.25 101.96 61.12 C 101.60 57.34 101.44 53.35 102.80 49.74 C 105.60 44.43 114.40 45.13 116.71 50.42 C 113.34 48.83 109.79 47.72 106.06 47.35 C 104.23 49.84 102.44 52.66 102.83 55.91 C 103.32 64.79 108.96 73.91 117.66 76.76 C 120.50 76.62 123.68 75.65 124.67 72.65 C 126.49 64.82 122.84 56.79 117.04 51.56 C 116.88 50.43 116.73 49.30 116.59 48.17 C 117.99 47.02 119.50 45.92 120.40 44.30 L 120.25 45.72 C 120.68 45.54 121.52 45.19 121.94 45.01 C 122.51 44.60 123.63 43.78 124.19 43.37 Z" />
<path fill="#333333" opacity="1.00" d=" M 67.11 69.15 C 71.38 70.36 76.73 68.42 80.03 72.10 C 76.02 71.93 71.97 72.14 68.04 71.20 C 67.80 70.68 67.34 69.66 67.11 69.15 Z" />
<path fill="#333333" opacity="1.00" d=" M 39.10 74.76 C 39.80 74.22 40.51 73.68 41.21 73.14 C 41.54 74.00 41.83 74.86 42.09 75.74 C 40.07 77.79 37.08 76.97 34.55 76.77 C 35.48 75.01 37.32 74.84 39.10 74.76 Z" />
<path fill="#333333" opacity="1.00" d=" M 65.49 74.42 C 68.48 74.84 71.39 75.78 74.43 75.82 C 74.51 76.38 74.67 77.52 74.76 78.09 C 71.64 77.06 67.42 77.58 65.49 74.42 Z" />
<path fill="#333333" opacity="1.00" d=" M 44.73 78.89 C 48.20 78.85 53.98 78.98 54.43 83.45 C 51.65 82.39 48.86 81.27 45.89 80.85 C 45.60 80.36 45.02 79.38 44.73 78.89 Z" />
<path fill="#333333" opacity="1.00" d=" M 122.50 87.47 C 122.48 84.20 120.97 80.08 124.07 77.73 C 123.91 81.02 123.52 84.33 122.50 87.47 Z" />
<path fill="#333333" opacity="1.00" d=" M 124.97 87.82 C 126.33 85.56 126.89 82.95 127.90 80.54 C 129.09 85.59 126.24 90.17 123.14 93.87 L 121.77 94.00 C 122.22 91.66 123.84 89.84 124.97 87.82 Z" />
<path fill="#333333" opacity="1.00" d=" M 38.73 83.87 C 40.68 83.80 42.62 83.79 44.56 83.88 C 46.76 87.32 50.31 89.31 53.68 91.38 C 53.91 91.86 54.36 92.82 54.59 93.29 C 50.62 92.01 47.16 89.57 44.31 86.57 C 42.97 84.79 40.61 85.96 38.77 85.84 C 38.76 85.18 38.74 84.52 38.73 83.87 Z" />
<path fill="#333333" opacity="1.00" d=" M 36.07 86.99 C 36.35 87.11 36.93 87.35 37.21 87.47 C 37.61 91.99 35.72 96.40 36.67 100.89 C 36.57 105.88 38.56 110.53 38.93 115.45 C 34.12 106.96 33.02 96.26 36.07 86.99 Z" />
<path fill="#333333" opacity="1.00" d=" M 132.29 94.75 C 136.62 94.11 141.65 92.22 145.60 95.01 C 145.75 95.53 146.06 96.59 146.21 97.11 C 142.95 96.35 139.77 95.04 136.36 95.25 C 136.00 97.71 135.71 100.26 134.31 102.38 C 133.38 99.86 134.33 96.83 132.29 94.75 Z" />
<path fill="#333333" opacity="1.00" d=" M 106.42 94.95 C 109.33 95.22 114.07 94.06 115.34 97.46 C 112.36 96.62 108.02 98.44 106.42 94.95 Z" />
<path fill="#333333" opacity="1.00" d=" M 81.61 101.45 C 85.17 98.65 89.52 97.08 94.01 96.67 C 94.01 97.19 94.00 98.23 94.00 98.75 C 89.64 99.46 85.59 101.20 81.59 103.01 L 81.61 101.45 Z" />
<path fill="#333333" opacity="1.00" d=" M 121.28 96.56 C 123.06 99.34 124.25 102.65 123.51 105.96 C 122.62 108.45 121.06 110.63 119.95 113.02 C 119.56 112.85 118.79 112.49 118.40 112.31 C 119.49 110.29 120.64 108.31 121.94 106.42 C 122.00 103.12 121.93 99.81 121.28 96.56 Z" />
<path fill="#333333" opacity="1.00" d=" M 112.93 97.48 C 113.64 98.06 114.34 98.64 115.04 99.23 C 113.30 100.52 111.65 101.92 110.01 103.32 C 109.99 102.52 109.96 100.93 109.95 100.13 C 110.95 99.26 111.95 98.37 112.93 97.48 Z" />
<path fill="#333333" opacity="1.00" d=" M 131.34 102.26 C 131.94 101.53 132.55 100.81 133.16 100.10 C 132.23 105.72 134.60 111.85 132.02 117.12 C 133.67 118.39 135.31 119.68 136.95 120.97 C 136.92 120.04 136.87 118.18 136.85 117.24 C 136.11 116.41 135.39 115.56 134.68 114.72 C 136.93 114.32 138.39 115.97 139.48 117.68 C 138.86 118.94 138.27 120.21 137.63 121.46 C 139.93 124.45 139.86 128.42 138.99 131.91 C 138.39 131.99 137.18 132.14 136.58 132.22 C 137.39 131.14 138.25 130.10 139.14 129.08 C 137.99 126.46 137.31 123.56 135.51 121.28 C 134.12 119.84 132.44 118.73 130.98 117.38 C 131.28 112.35 131.51 107.30 131.34 102.26 Z" />
<path fill="#333333" opacity="1.00" d=" M 100.51 101.72 C 102.02 102.19 103.52 102.71 105.04 103.17 C 105.02 103.74 104.99 104.89 104.97 105.46 C 102.69 105.14 100.41 104.54 100.51 101.72 Z" />
<path fill="#333333" opacity="1.00" d=" M 125.49 103.18 C 125.83 103.06 126.51 102.82 126.85 102.69 C 127.32 105.42 127.64 108.17 127.99 110.92 L 126.52 111.01 C 127.31 113.37 127.39 116.36 124.90 117.74 C 125.09 115.59 125.45 113.45 125.95 111.35 C 125.98 108.62 125.60 105.91 125.49 103.18 Z" />
<path fill="#333333" opacity="1.00" d=" M 155.98 114.10 C 157.42 114.32 158.86 114.55 160.30 114.77 C 160.27 115.15 160.20 115.89 160.17 116.26 C 158.71 116.21 157.25 116.15 155.80 116.09 C 155.84 115.59 155.93 114.60 155.98 114.10 Z" />
<path fill="#333333" opacity="1.00" d=" M 123.06 117.53 C 124.46 117.12 124.93 117.61 124.46 119.00 C 123.04 119.41 122.58 118.92 123.06 117.53 Z" />
<path fill="#333333" opacity="1.00" d=" M 155.11 117.42 C 156.51 117.64 156.73 118.31 155.76 119.42 C 154.36 119.20 154.15 118.53 155.11 117.42 Z" />
<path fill="#333333" opacity="1.00" d=" M 39.96 119.96 C 40.48 119.91 41.52 119.81 42.03 119.76 C 41.76 122.64 41.72 125.53 41.59 128.42 C 41.18 128.37 40.35 128.27 39.94 128.22 C 39.94 125.46 39.95 122.71 39.96 119.96 Z" />
<path fill="#333333" opacity="1.00" d=" M 32.16 125.36 C 34.13 125.02 36.10 124.71 38.08 124.43 C 36.49 125.65 34.80 126.72 32.97 127.54 C 32.77 127.00 32.36 125.90 32.16 125.36 Z" />
<path fill="#333333" opacity="1.00" d=" M 130.27 144.62 C 138.94 146.52 146.37 153.68 155.75 151.77 C 155.62 152.17 155.36 152.97 155.22 153.37 C 151.48 154.32 147.49 154.08 143.95 152.49 C 139.17 150.36 133.53 149.06 130.27 144.62 Z" />
<path fill="#333333" opacity="1.00" d=" M 63.86 152.04 C 66.96 150.55 63.97 155.42 63.86 152.04 Z" />
</g>
</svg>
