<?xml version="1.0" encoding="UTF-8" ?>
<!DOCTYPE svg PUBLIC "-//W3C//DTD SVG 1.1//EN" "http://www.w3.org/Graphics/SVG/1.1/DTD/svg11.dtd">
<svg width="250pt" height="225pt" viewBox="0 0 250 225" version="1.1" xmlns="http://www.w3.org/2000/svg">
<g id="#ffffffff">
<path fill="#FFFFFF" opacity="1.00" d=" M 0.00 0.00 L 250.00 0.00 L 250.00 225.00 L 0.00 225.00 L 0.00 123.15 C 6.21 119.50 10.04 112.91 11.61 106.02 C 11.53 105.15 11.37 103.39 11.29 102.52 C 8.88 109.33 6.27 116.57 0.00 120.82 L 0.00 99.24 C 10.31 101.91 20.72 104.15 31.10 106.51 C 33.17 113.05 39.74 116.27 44.78 120.25 C 48.19 123.19 52.96 123.65 56.29 126.72 C 63.51 132.45 73.15 132.43 81.90 132.23 C 86.15 131.03 90.61 130.73 94.68 132.72 C 93.60 145.61 94.63 158.55 93.89 171.45 C 93.32 170.02 92.78 168.59 92.27 167.15 C 92.36 168.15 92.44 169.15 92.53 170.15 C 85.77 168.35 78.93 166.87 72.21 164.89 C 69.31 166.67 66.32 168.30 63.34 169.93 C 63.79 172.60 63.87 175.41 64.98 177.92 C 70.78 180.68 77.42 180.95 83.26 183.70 C 91.35 184.87 98.98 187.90 106.93 189.71 C 115.76 191.50 124.25 194.71 133.07 196.53 C 136.26 195.15 139.46 193.49 142.03 191.12 C 142.11 187.27 141.73 183.13 138.42 180.63 C 128.43 178.34 118.17 177.15 108.32 174.31 C 107.76 162.49 107.92 150.63 107.97 138.80 C 113.63 139.64 119.20 141.08 124.88 141.74 C 129.84 139.96 130.25 133.81 131.65 129.49 C 136.21 130.69 140.82 131.74 145.50 132.40 C 145.39 141.13 146.36 150.87 152.22 157.80 C 155.16 161.71 160.51 161.42 164.90 161.59 C 171.56 160.26 175.44 153.79 177.71 147.91 C 178.27 145.78 179.60 143.44 178.74 141.23 C 175.70 145.53 175.22 151.42 171.26 155.23 C 168.94 158.48 164.92 159.42 161.13 159.03 C 158.88 154.33 156.11 149.74 155.29 144.51 C 154.01 135.08 154.96 125.08 159.70 116.69 C 161.21 114.11 163.79 112.25 164.86 109.41 C 161.25 109.23 159.56 113.31 157.83 115.84 C 152.14 127.08 151.03 140.81 155.57 152.64 C 156.56 155.41 159.24 156.97 161.14 159.05 C 155.78 159.73 152.07 155.16 150.24 150.73 C 146.45 141.34 146.86 130.60 150.21 121.14 C 152.16 115.69 155.67 110.34 161.19 108.02 C 163.00 106.95 165.15 107.67 167.11 107.72 C 170.09 108.88 173.30 110.19 174.79 113.27 C 178.02 119.12 179.84 126.21 178.68 132.87 C 175.46 131.93 171.36 132.26 169.45 128.94 C 168.15 130.14 166.85 131.35 165.56 132.56 C 165.66 134.02 165.68 135.49 165.96 136.93 C 175.05 140.03 184.68 141.22 194.01 143.44 C 195.04 142.12 195.77 140.60 196.52 139.12 C 198.08 139.34 199.63 139.56 201.19 139.79 C 201.41 141.71 201.66 143.62 201.94 145.53 C 200.36 146.25 198.72 147.25 196.92 146.67 C 190.94 145.49 184.87 144.88 178.83 144.21 C 179.09 144.83 179.62 146.09 179.88 146.72 C 186.09 148.57 192.60 149.40 199.03 150.08 C 200.74 149.17 202.13 147.80 203.62 146.60 C 203.19 143.85 205.09 139.55 201.70 138.22 C 194.82 135.94 187.47 135.51 180.56 133.25 C 180.77 129.69 180.76 126.10 180.11 122.58 C 179.02 118.09 180.84 113.57 180.12 109.05 C 179.32 104.00 179.47 98.86 180.39 93.84 C 184.72 96.78 190.05 95.77 194.93 96.66 C 199.40 97.44 203.96 97.19 208.41 96.40 C 209.89 99.67 211.18 103.04 211.68 106.60 C 210.46 109.63 209.78 113.43 211.76 116.28 C 213.75 118.96 217.36 117.88 220.01 116.97 C 222.24 115.05 224.03 112.56 225.36 109.95 C 225.75 105.99 224.55 102.07 224.80 98.11 C 224.82 95.10 225.69 92.03 224.87 89.06 C 224.01 87.60 222.80 86.38 221.73 85.08 C 218.48 85.19 215.03 86.49 211.90 85.07 C 209.16 84.01 206.77 82.17 203.95 81.27 C 200.70 80.27 197.23 80.78 193.91 81.05 C 196.44 82.65 199.52 82.08 202.28 82.84 C 206.54 84.45 210.12 88.50 215.03 87.77 C 217.39 88.00 221.26 86.59 222.39 89.43 C 223.38 96.23 223.80 103.17 222.89 110.02 C 222.85 111.29 222.04 112.32 221.21 113.19 C 219.48 115.55 216.26 114.60 213.78 114.97 C 213.26 110.68 214.09 106.34 213.37 102.07 C 212.37 99.35 211.38 96.27 209.11 94.33 C 202.03 95.68 195.05 93.39 187.95 93.69 C 186.12 93.83 184.31 93.25 183.06 91.87 C 178.73 87.47 172.78 84.63 169.84 78.96 C 176.17 76.52 181.47 72.12 185.73 66.90 C 188.73 70.89 189.30 75.89 190.76 80.50 C 191.45 83.03 193.72 84.48 196.03 85.37 C 191.10 79.39 192.27 70.66 186.84 65.02 C 187.15 63.47 187.44 61.92 187.71 60.37 C 189.66 58.82 191.58 57.23 193.40 55.53 C 193.04 53.30 192.70 51.08 192.34 48.85 C 188.78 47.98 185.21 47.21 181.57 46.78 C 180.48 43.09 180.41 38.57 177.07 36.06 C 171.96 31.21 165.11 28.81 158.30 27.61 C 152.56 25.35 146.33 24.48 140.18 24.85 C 136.99 25.02 134.43 27.09 131.77 28.61 C 125.81 31.79 119.27 33.61 113.07 36.24 C 109.24 37.94 104.88 36.91 100.91 38.12 C 95.52 39.11 91.26 42.75 86.66 45.45 C 82.75 43.27 78.62 40.70 73.95 41.08 C 69.13 40.81 66.08 45.10 63.39 48.41 C 60.10 52.12 58.44 57.10 58.28 62.00 C 58.18 66.45 63.03 69.65 62.21 74.05 C 59.84 77.97 60.25 82.64 60.21 87.03 C 60.29 89.76 62.24 91.91 63.65 94.08 C 62.63 98.19 62.56 102.43 62.50 106.63 C 59.88 106.00 57.26 105.37 54.67 104.63 C 53.56 103.32 52.42 102.04 51.25 100.79 C 51.26 101.56 51.28 103.12 51.29 103.89 C 50.56 104.13 49.10 104.59 48.37 104.83 C 48.56 106.82 48.77 108.82 49.01 110.81 C 50.44 111.04 51.87 111.26 53.31 111.47 C 53.84 112.30 54.37 113.12 54.90 113.95 C 60.54 115.30 65.87 118.45 71.85 117.74 C 71.05 115.25 68.57 115.89 66.70 115.44 C 65.39 115.04 64.09 114.63 62.79 114.20 C 64.38 114.41 65.97 114.66 67.55 114.93 C 67.47 114.28 67.31 112.99 67.23 112.35 C 61.81 111.62 56.48 110.40 51.17 109.11 C 51.18 108.32 51.21 106.76 51.23 105.98 C 57.92 107.72 64.68 109.14 71.48 110.43 C 73.77 111.11 76.58 111.27 78.07 113.40 C 78.59 110.64 79.95 108.16 82.42 106.69 C 85.79 107.95 89.33 109.04 92.97 108.64 C 96.65 107.68 98.69 111.74 99.64 114.60 C 98.94 114.58 97.54 114.54 96.84 114.52 C 96.21 115.37 95.58 116.23 94.96 117.08 C 95.28 118.35 95.59 119.63 95.88 120.91 C 103.37 123.49 111.25 124.74 118.94 126.63 C 118.44 127.62 117.95 128.61 117.47 129.60 C 121.28 127.56 125.44 127.72 129.59 128.42 C 128.74 132.08 127.34 135.58 125.74 138.98 C 122.19 138.68 118.61 138.60 115.09 138.08 C 106.79 135.94 99.46 131.28 91.48 128.32 C 89.58 126.91 88.26 124.75 85.95 123.92 C 82.79 122.62 79.81 120.88 77.64 118.18 C 78.04 117.30 78.44 116.43 78.84 115.55 C 75.18 114.61 71.53 113.49 67.74 113.28 C 69.25 116.64 74.02 115.68 76.97 117.02 C 78.99 121.95 82.81 126.25 87.73 128.40 C 80.29 129.94 72.59 130.06 65.29 127.70 C 58.70 127.15 54.30 121.82 48.62 119.12 C 42.83 116.23 38.15 111.76 33.36 107.53 C 34.83 103.92 36.30 100.31 37.96 96.79 C 42.00 98.32 46.04 100.34 50.51 99.87 C 47.62 97.79 44.40 95.98 40.89 95.23 C 38.77 95.34 36.73 95.97 34.70 96.53 C 34.57 97.72 34.43 98.91 34.30 100.10 C 27.69 98.24 20.79 97.52 14.25 95.46 L 13.84 94.91 C 13.37 87.10 12.57 78.77 7.67 72.31 C 5.88 69.74 2.75 68.89 0.00 67.78 L 0.00 0.00 M 144.65 139.77 C 145.17 137.89 145.13 135.66 144.59 133.79 C 143.14 134.59 143.41 138.77 144.65 139.77 Z" />
<path fill="#FFFFFF" opacity="1.00" d=" M 140.15 27.33 C 145.99 26.27 151.87 27.70 157.44 29.39 C 162.26 30.71 167.50 31.39 171.65 34.35 C 174.56 37.39 177.46 40.82 178.53 44.98 C 179.08 51.29 181.59 57.59 186.09 62.15 C 183.06 69.58 175.50 74.63 167.96 76.79 C 166.68 76.49 165.41 76.19 164.14 75.87 C 162.92 72.55 162.44 69.00 162.43 65.47 C 165.62 64.27 168.03 61.70 169.77 58.85 C 166.82 60.42 164.33 62.68 161.77 64.79 C 159.95 64.81 158.13 64.84 156.31 64.89 C 158.21 63.87 159.84 62.35 160.10 60.11 C 160.41 55.88 160.24 51.55 159.35 47.40 C 157.25 42.43 154.18 37.13 148.96 34.97 C 143.73 32.36 137.71 32.48 132.10 31.21 C 132.14 31.14 132.21 31.00 132.24 30.93 C 135.13 30.20 137.02 27.30 140.15 27.33 Z" />
<path fill="#FFFFFF" opacity="1.00" d=" M 122.00 34.71 C 129.42 31.14 138.03 33.33 145.51 35.64 C 151.90 37.38 155.09 43.75 158.06 49.10 C 158.66 53.49 159.05 58.42 155.99 62.06 C 153.81 63.78 151.07 64.90 149.62 67.42 C 147.80 70.42 144.26 71.41 141.36 73.01 C 142.83 68.51 143.08 63.78 143.44 59.10 C 145.73 55.65 151.19 53.96 150.33 48.99 C 147.40 53.40 140.94 55.99 141.21 62.00 C 141.19 68.08 139.90 74.60 135.74 79.27 C 135.20 79.47 134.13 79.87 133.59 80.07 C 133.31 87.70 132.52 95.30 132.93 102.94 C 133.34 109.38 131.84 115.67 131.02 122.01 C 127.09 121.33 123.28 120.03 119.28 119.71 C 119.97 119.30 121.34 118.48 122.03 118.07 C 121.93 116.04 119.10 116.93 117.94 116.42 C 119.68 114.53 120.87 112.25 121.80 109.88 C 122.62 107.33 125.14 105.84 125.90 103.27 C 124.41 103.92 122.88 104.56 121.56 105.52 C 118.73 108.70 118.37 113.12 117.48 117.09 C 116.24 117.34 115.01 117.59 113.77 117.82 C 109.63 117.77 105.73 116.32 101.71 115.29 C 101.84 111.57 100.09 107.23 96.51 105.63 C 96.31 102.98 96.15 100.32 96.01 97.67 C 99.01 98.63 102.03 99.54 105.04 100.47 C 104.84 101.92 104.60 103.36 104.31 104.80 C 104.73 104.27 105.57 103.20 105.99 102.67 C 105.99 107.27 105.37 112.17 107.70 116.39 C 108.77 116.10 109.83 115.78 110.89 115.43 C 106.45 109.71 106.61 99.64 113.01 95.37 C 109.57 90.78 107.74 85.29 107.39 79.59 C 109.36 76.80 112.79 77.15 115.79 77.33 C 116.02 77.02 116.48 76.39 116.71 76.08 C 114.76 75.66 112.80 75.33 110.84 74.99 C 109.07 76.01 106.56 76.19 105.47 78.06 C 105.48 81.04 105.80 84.02 105.90 87.00 C 104.21 86.57 102.52 86.07 100.97 85.26 C 97.18 82.83 92.45 83.86 88.21 83.60 C 92.82 80.64 94.78 75.33 95.54 70.16 C 94.84 70.43 94.13 70.65 93.41 70.83 C 92.43 75.32 90.46 79.94 86.44 82.51 C 84.26 84.05 81.54 84.29 78.99 84.69 C 76.11 81.90 72.52 80.02 69.54 77.37 C 65.15 72.90 60.84 67.59 60.54 61.04 C 61.30 57.06 61.92 52.80 64.55 49.54 C 67.59 46.33 71.62 43.93 76.07 43.40 C 79.76 44.54 83.88 45.48 86.57 48.49 C 88.87 50.32 88.44 53.65 90.15 55.89 C 90.82 55.71 92.15 55.37 92.82 55.20 C 92.36 54.67 91.43 53.61 90.97 53.08 C 90.65 50.90 89.59 48.99 88.37 47.20 C 93.96 41.35 102.14 39.50 109.96 39.49 C 113.75 37.36 117.88 36.05 122.00 34.71 M 127.03 38.33 C 122.69 39.75 119.34 43.26 114.84 44.28 C 111.88 45.18 108.59 45.16 105.95 46.93 C 102.14 49.45 98.09 52.01 95.98 56.24 C 99.69 53.73 102.81 50.35 106.94 48.47 C 110.23 46.69 114.03 46.40 117.57 45.38 C 120.99 43.97 123.83 41.46 127.18 39.91 C 129.95 38.71 133.19 38.39 135.49 36.25 C 132.59 36.54 129.76 37.33 127.03 38.33 M 92.55 48.40 C 94.57 48.93 97.53 50.65 98.75 47.90 C 96.68 47.96 94.61 48.12 92.55 48.40 M 118.22 53.76 C 118.11 55.74 117.44 57.57 116.34 59.20 C 115.14 58.12 113.81 57.17 112.14 57.07 C 115.27 60.74 117.52 64.97 119.56 69.31 C 120.14 69.39 121.31 69.56 121.90 69.64 C 120.81 67.53 119.51 65.53 117.80 63.88 C 117.47 62.96 117.14 62.05 116.82 61.13 C 117.83 59.77 118.84 58.39 119.88 57.04 C 119.98 56.38 120.20 55.07 120.31 54.42 C 122.40 53.08 125.41 52.09 125.79 49.26 C 123.03 50.31 120.30 51.62 118.22 53.76 M 124.76 54.30 C 126.51 54.40 128.26 54.40 130.00 54.58 C 131.07 58.17 129.11 61.81 128.03 65.20 C 132.42 62.82 133.83 55.60 130.20 52.05 C 128.31 52.59 126.01 52.54 124.76 54.30 M 86.94 58.36 C 88.49 59.48 90.25 60.36 91.55 61.79 C 92.10 64.44 90.55 66.67 89.41 68.90 C 92.26 67.80 92.64 64.48 92.51 61.82 C 91.51 59.49 89.71 57.39 86.94 58.36 M 116.32 82.74 C 120.37 81.23 123.40 78.02 127.19 76.05 C 127.33 75.05 127.46 74.06 127.59 73.07 C 122.69 74.59 118.55 78.11 116.32 82.74 M 118.02 96.88 C 116.09 100.41 115.73 104.52 116.54 108.42 C 118.45 105.19 117.03 101.16 119.01 97.86 C 121.23 98.11 124.50 101.01 125.82 97.95 C 127.18 95.98 123.87 96.97 123.09 97.22 C 121.32 98.10 119.37 94.93 118.02 96.88 Z" />
<path fill="#FFFFFF" opacity="1.00" d=" M 181.06 48.67 C 183.90 49.09 186.82 49.40 189.48 50.56 C 190.96 51.67 190.97 53.82 191.78 55.37 C 189.98 56.43 188.20 57.50 186.43 58.58 C 185.16 57.07 184.04 55.43 183.02 53.75 C 185.34 54.48 187.28 53.48 187.94 51.16 C 186.72 51.68 185.69 52.44 184.83 53.43 C 183.56 51.85 182.30 50.26 181.06 48.67 Z" />
<path fill="#FFFFFF" opacity="1.00" d=" M 140.64 75.61 C 145.40 73.24 150.72 71.21 153.58 66.41 C 155.79 66.68 158.02 66.89 160.24 67.06 C 160.67 69.35 161.24 71.65 161.13 74.00 C 153.87 79.88 145.86 84.82 138.17 90.14 C 136.84 90.97 135.88 92.22 135.37 93.71 C 137.53 92.95 139.53 91.80 141.36 90.42 C 147.92 85.73 154.74 81.43 161.53 77.09 C 163.72 79.04 167.47 78.54 168.65 81.59 C 172.25 84.63 175.52 88.06 178.57 91.66 C 178.17 99.08 179.21 106.71 177.94 114.00 C 175.30 112.00 173.86 108.24 170.59 106.63 C 171.15 100.11 171.10 93.56 170.70 87.03 C 170.94 85.37 169.70 84.16 168.91 82.88 C 168.81 90.75 168.85 98.63 168.97 106.50 C 165.15 105.64 160.83 105.01 157.42 107.45 C 151.24 111.72 148.53 119.21 146.61 126.16 C 142.39 124.24 137.76 123.50 133.23 122.67 C 134.30 118.13 134.95 113.52 135.71 108.92 C 136.43 104.93 135.27 100.96 135.10 96.98 C 134.95 92.30 135.36 87.63 135.26 82.95 C 137.27 80.67 139.00 78.16 140.64 75.61 M 152.51 70.53 C 147.66 74.93 141.98 78.26 136.85 82.30 C 136.97 82.68 137.20 83.44 137.31 83.82 C 141.19 82.11 144.30 79.07 147.81 76.75 C 151.30 73.95 155.62 72.01 158.17 68.18 C 156.15 68.57 154.07 69.11 152.51 70.53 Z" />
<path fill="#FFFFFF" opacity="1.00" d=" M 0.00 69.35 C 2.20 70.61 4.89 71.34 6.38 73.55 C 10.87 79.26 11.48 86.88 11.81 93.86 C 11.55 94.03 11.04 94.37 10.78 94.54 C 7.13 94.12 3.58 93.15 0.00 92.34 L 0.00 69.35 Z" />
<path fill="#FFFFFF" opacity="1.00" d=" M 64.08 73.98 C 68.02 78.89 73.09 82.88 78.74 85.65 C 78.13 87.58 77.32 89.44 76.51 91.29 C 78.19 92.84 80.10 94.20 82.51 94.19 C 80.97 97.82 83.23 101.23 84.43 104.57 C 81.44 105.52 78.44 106.94 76.89 109.83 C 72.51 108.39 66.75 109.19 64.05 104.68 C 64.52 101.27 65.39 97.91 66.98 94.84 C 66.68 93.90 66.37 92.96 66.07 92.02 C 61.03 88.97 61.74 82.16 62.72 77.20 C 63.37 77.66 64.67 78.58 65.32 79.04 C 65.01 77.77 64.39 75.25 64.08 73.98 Z" />
<path fill="#FFFFFF" opacity="1.00" d=" M 80.16 86.32 C 83.19 86.58 85.88 85.10 88.69 84.36 C 91.93 85.89 95.69 84.94 98.89 86.54 C 101.80 88.04 105.10 88.35 108.14 89.48 C 105.32 89.48 101.89 87.45 99.96 90.36 C 102.76 90.89 105.65 91.01 108.41 91.77 C 108.90 92.84 109.35 93.94 109.75 95.06 C 108.94 96.27 108.13 97.48 107.31 98.69 C 98.21 95.17 88.54 93.68 79.08 91.32 C 79.49 89.66 79.86 87.99 80.16 86.32 Z" />
<path fill="#FFFFFF" opacity="1.00" d=" M 1.02 97.66 C -0.25 96.36 -0.04 95.32 1.63 94.54 C 12.20 97.31 22.90 99.49 33.55 101.92 C 33.33 102.60 32.89 103.97 32.66 104.65 C 22.03 102.70 11.60 99.84 1.02 97.66 Z" />
<path fill="#FFFFFF" opacity="1.00" d=" M 83.35 95.82 C 83.97 95.46 84.60 95.10 85.24 94.76 C 88.29 95.47 91.35 96.14 94.33 97.15 C 94.28 99.87 94.35 102.60 94.56 105.32 C 91.63 106.97 88.29 107.28 85.16 105.98 C 88.18 102.90 85.48 98.53 83.35 95.82 Z" />
<path fill="#FFFFFF" opacity="1.00" d=" M 178.21 115.40 C 178.51 115.55 179.11 115.87 179.41 116.03 L 179.04 116.86 L 178.19 116.84 C 178.19 116.48 178.21 115.76 178.21 115.40 Z" />
<path fill="#FFFFFF" opacity="1.00" d=" M 95.64 119.24 C 96.23 118.69 97.42 117.58 98.01 117.02 C 106.19 117.92 114.02 120.73 122.11 122.17 C 130.34 123.64 138.30 126.57 146.66 127.31 C 146.59 128.15 146.45 129.83 146.38 130.67 C 129.47 126.85 112.60 122.79 95.64 119.24 Z" />
<path fill="#FFFFFF" opacity="1.00" d=" M 167.32 135.44 C 166.86 134.09 167.19 132.68 168.88 132.75 C 176.19 134.59 183.55 136.22 191.00 137.44 C 190.78 138.59 190.57 139.74 190.36 140.89 C 182.71 138.90 175.06 137.00 167.32 135.44 Z" />
<path fill="#FFFFFF" opacity="1.00" d=" M 96.34 132.94 C 99.61 134.18 102.35 136.37 105.38 138.06 C 105.42 150.67 104.99 163.32 105.90 175.92 C 115.55 178.50 125.46 179.92 135.15 182.35 C 136.72 182.54 138.02 183.45 139.13 184.51 C 139.22 186.37 139.52 188.21 139.65 190.07 C 137.90 192.00 135.25 192.82 133.00 194.05 C 110.79 188.41 88.68 182.45 66.49 176.75 C 66.27 174.82 65.97 172.90 65.88 170.96 C 67.91 169.29 70.37 168.30 72.73 167.21 C 78.78 168.70 84.83 170.22 90.85 171.86 C 91.40 172.18 92.50 172.84 93.05 173.16 C 94.16 173.09 95.27 173.08 96.38 172.96 C 96.04 159.64 96.85 146.27 96.34 132.94 Z" />
<path fill="#FFFFFF" opacity="1.00" d=" M 193.08 140.62 C 192.21 139.43 192.44 138.71 193.78 138.47 C 194.64 139.67 194.41 140.39 193.08 140.62 Z" />
</g>
<g id="#414240ff">
<path fill="#333333" opacity="1.00" d=" M 131.77 28.61 C 134.43 27.09 136.99 25.02 140.18 24.85 C 146.33 24.48 152.56 25.35 158.30 27.61 C 165.11 28.81 171.96 31.21 177.07 36.06 C 180.41 38.57 180.48 43.09 181.57 46.78 C 185.21 47.21 188.78 47.98 192.34 48.85 C 192.70 51.08 193.04 53.30 193.40 55.53 C 191.58 57.23 189.66 58.82 187.71 60.37 C 187.44 61.92 187.15 63.47 186.84 65.02 C 192.27 70.66 191.10 79.39 196.03 85.37 C 193.72 84.48 191.45 83.03 190.76 80.50 C 189.30 75.89 188.73 70.89 185.73 66.90 C 181.47 72.12 176.17 76.52 169.84 78.96 C 172.78 84.63 178.73 87.47 183.06 91.87 C 184.31 93.25 186.12 93.83 187.95 93.69 C 195.05 93.39 202.03 95.68 209.11 94.33 C 211.38 96.27 212.37 99.35 213.37 102.07 C 214.09 106.34 213.26 110.68 213.78 114.97 C 216.26 114.60 219.48 115.55 221.21 113.19 C 222.04 112.32 222.85 111.29 222.89 110.02 C 223.80 103.17 223.38 96.23 222.39 89.43 C 221.26 86.59 217.39 88.00 215.03 87.77 C 210.12 88.50 206.54 84.45 202.28 82.84 C 199.52 82.08 196.44 82.65 193.91 81.05 C 197.23 80.78 200.70 80.27 203.95 81.27 C 206.77 82.17 209.16 84.01 211.90 85.07 C 215.03 86.49 218.48 85.19 221.73 85.08 C 222.80 86.38 224.01 87.60 224.87 89.06 C 225.69 92.03 224.82 95.10 224.80 98.11 C 224.55 102.07 225.75 105.99 225.36 109.95 C 224.03 112.56 222.24 115.05 220.01 116.97 C 217.36 117.88 213.75 118.96 211.76 116.28 C 209.78 113.43 210.46 109.63 211.68 106.60 C 211.18 103.04 209.89 99.67 208.41 96.40 C 203.96 97.19 199.40 97.44 194.93 96.66 C 190.05 95.77 184.72 96.78 180.39 93.84 C 179.47 98.86 179.32 104.00 180.12 109.05 C 180.84 113.57 179.02 118.09 180.11 122.58 C 180.76 126.10 180.77 129.69 180.56 133.25 C 187.47 135.51 194.82 135.94 201.70 138.22 C 205.09 139.55 203.19 143.85 203.62 146.60 C 202.13 147.80 200.74 149.17 199.03 150.08 C 192.60 149.40 186.09 148.57 179.88 146.72 C 179.62 146.09 179.09 144.83 178.83 144.21 C 184.87 144.88 190.94 145.49 196.92 146.67 C 198.72 147.25 200.36 146.25 201.94 145.53 C 201.66 143.62 201.41 141.71 201.19 139.79 C 199.63 139.56 198.08 139.34 196.52 139.12 C 195.77 140.60 195.04 142.12 194.01 143.44 C 184.68 141.22 175.05 140.03 165.96 136.93 C 165.68 135.49 165.66 134.02 165.56 132.56 C 166.85 131.35 168.15 130.14 169.45 128.94 C 171.36 132.26 175.46 131.93 178.68 132.87 C 179.84 126.21 178.02 119.12 174.79 113.27 C 173.30 110.19 170.09 108.88 167.11 107.72 C 165.15 107.67 163.00 106.95 161.19 108.02 C 155.67 110.34 152.16 115.69 150.21 121.14 C 146.86 130.60 146.45 141.34 150.24 150.73 C 152.07 155.16 155.78 159.73 161.14 159.05 C 159.24 156.97 156.56 155.41 155.57 152.64 C 151.03 140.81 152.14 127.08 157.83 115.84 C 159.56 113.31 161.25 109.23 164.86 109.41 C 163.79 112.25 161.21 114.11 159.70 116.69 C 154.96 125.08 154.01 135.08 155.29 144.51 C 156.11 149.74 158.88 154.33 161.13 159.03 C 164.92 159.42 168.94 158.48 171.26 155.23 C 175.22 151.42 175.70 145.53 178.74 141.23 C 179.60 143.44 178.27 145.78 177.71 147.91 C 175.44 153.79 171.56 160.26 164.90 161.59 C 160.51 161.42 155.16 161.71 152.22 157.80 C 146.36 150.87 145.39 141.13 145.50 132.40 C 140.82 131.74 136.21 130.69 131.65 129.49 C 130.25 133.81 129.84 139.96 124.88 141.74 C 119.20 141.08 113.63 139.64 107.97 138.80 C 107.92 150.63 107.76 162.49 108.32 174.31 C 118.17 177.15 128.43 178.34 138.42 180.63 C 141.73 183.13 142.11 187.27 142.03 191.12 C 139.46 193.49 136.26 195.15 133.07 196.53 C 124.25 194.71 115.76 191.50 106.93 189.71 C 98.98 187.90 91.35 184.87 83.26 183.70 C 77.42 180.95 70.78 180.68 64.98 177.92 C 63.87 175.41 63.79 172.60 63.34 169.93 C 66.32 168.30 69.31 166.67 72.21 164.89 C 78.93 166.87 85.77 168.35 92.53 170.15 C 92.44 169.15 92.36 168.15 92.27 167.15 C 92.78 168.59 93.32 170.02 93.89 171.45 C 94.63 158.55 93.60 145.61 94.68 132.72 C 90.61 130.73 86.15 131.03 81.90 132.23 C 73.15 132.43 63.51 132.45 56.29 126.72 C 52.96 123.65 48.19 123.19 44.78 120.25 C 39.74 116.27 33.17 113.05 31.10 106.51 C 20.72 104.15 10.31 101.91 0.00 99.24 L 0.00 92.34 C 3.58 93.15 7.13 94.12 10.78 94.54 C 11.04 94.37 11.55 94.03 11.81 93.86 C 11.48 86.88 10.87 79.26 6.38 73.55 C 4.89 71.34 2.20 70.61 0.00 69.35 L 0.00 67.78 C 2.75 68.89 5.88 69.74 7.67 72.31 C 12.57 78.77 13.37 87.10 13.84 94.91 L 14.25 95.46 C 20.79 97.52 27.69 98.24 34.30 100.10 C 34.43 98.91 34.57 97.72 34.70 96.53 C 36.73 95.97 38.77 95.34 40.89 95.23 C 44.40 95.98 47.62 97.79 50.51 99.87 C 46.04 100.34 42.00 98.32 37.96 96.79 C 36.30 100.31 34.83 103.92 33.36 107.53 C 38.15 111.76 42.83 116.23 48.62 119.12 C 54.30 121.82 58.70 127.15 65.29 127.70 C 72.59 130.06 80.29 129.94 87.73 128.40 C 82.81 126.25 78.99 121.95 76.97 117.02 C 74.02 115.68 69.25 116.64 67.74 113.28 C 71.53 113.49 75.18 114.61 78.84 115.55 C 78.44 116.43 78.04 117.30 77.64 118.18 C 79.81 120.88 82.79 122.62 85.95 123.92 C 88.26 124.75 89.58 126.91 91.48 128.32 C 99.46 131.28 106.79 135.94 115.09 138.08 C 118.61 138.60 122.19 138.68 125.74 138.98 C 127.34 135.58 128.74 132.08 129.59 128.42 C 125.44 127.72 121.28 127.56 117.47 129.60 C 117.95 128.61 118.44 127.62 118.94 126.63 C 111.25 124.74 103.37 123.49 95.88 120.91 C 95.59 119.63 95.28 118.35 94.96 117.08 C 95.58 116.23 96.21 115.37 96.84 114.52 C 97.54 114.54 98.94 114.58 99.64 114.60 C 98.69 111.74 96.65 107.68 92.97 108.64 C 89.33 109.04 85.79 107.95 82.42 106.69 C 79.95 108.16 78.59 110.64 78.07 113.40 C 76.58 111.27 73.77 111.11 71.48 110.43 C 64.68 109.14 57.92 107.72 51.23 105.98 C 51.21 106.76 51.18 108.32 51.17 109.11 C 56.48 110.40 61.81 111.62 67.23 112.35 C 67.31 112.99 67.47 114.28 67.55 114.93 C 65.97 114.66 64.38 114.41 62.79 114.20 C 64.09 114.63 65.39 115.04 66.70 115.44 C 68.57 115.89 71.05 115.25 71.85 117.74 C 65.87 118.45 60.54 115.30 54.90 113.95 C 54.37 113.12 53.84 112.30 53.31 111.47 C 51.87 111.26 50.44 111.04 49.01 110.81 C 48.77 108.82 48.56 106.82 48.37 104.83 C 49.10 104.59 50.56 104.13 51.29 103.89 C 51.28 103.12 51.26 101.56 51.25 100.79 C 52.42 102.04 53.56 103.32 54.67 104.63 C 57.26 105.37 59.88 106.00 62.50 106.63 C 62.56 102.43 62.63 98.19 63.65 94.08 C 62.24 91.91 60.29 89.76 60.21 87.03 C 60.25 82.64 59.84 77.97 62.21 74.05 C 63.03 69.65 58.18 66.45 58.28 62.00 C 58.44 57.10 60.10 52.12 63.39 48.41 C 66.08 45.10 69.13 40.81 73.95 41.08 C 78.62 40.70 82.75 43.27 86.66 45.45 C 91.26 42.75 95.52 39.11 100.91 38.12 C 104.88 36.91 109.24 37.94 113.07 36.24 C 119.27 33.61 125.81 31.79 131.77 28.61 M 140.15 27.33 C 137.02 27.30 135.13 30.20 132.24 30.93 C 132.21 31.00 132.14 31.14 132.10 31.21 C 137.71 32.48 143.73 32.36 148.96 34.97 C 154.18 37.13 157.25 42.43 159.35 47.40 C 160.24 51.55 160.41 55.88 160.10 60.11 C 159.84 62.35 158.21 63.87 156.31 64.89 C 158.13 64.84 159.95 64.81 161.77 64.79 C 164.33 62.68 166.82 60.42 169.77 58.85 C 168.03 61.70 165.62 64.27 162.43 65.47 C 162.44 69.00 162.92 72.55 164.14 75.87 C 165.41 76.19 166.68 76.49 167.96 76.79 C 175.50 74.63 183.06 69.58 186.09 62.15 C 181.59 57.59 179.08 51.29 178.53 44.98 C 177.46 40.82 174.56 37.39 171.65 34.35 C 167.50 31.39 162.26 30.71 157.44 29.39 C 151.87 27.70 145.99 26.27 140.15 27.33 M 122.00 34.71 C 117.88 36.05 113.75 37.36 109.96 39.49 C 102.14 39.50 93.96 41.35 88.37 47.20 C 89.59 48.99 90.65 50.90 90.97 53.08 C 91.43 53.61 92.36 54.67 92.82 55.20 C 92.15 55.37 90.82 55.71 90.15 55.89 C 88.44 53.65 88.87 50.32 86.57 48.49 C 83.88 45.48 79.76 44.54 76.07 43.40 C 71.62 43.93 67.59 46.33 64.55 49.54 C 61.92 52.80 61.30 57.06 60.54 61.04 C 60.84 67.59 65.15 72.90 69.54 77.37 C 72.52 80.02 76.11 81.90 78.99 84.69 C 81.54 84.29 84.26 84.05 86.44 82.51 C 90.46 79.94 92.43 75.32 93.41 70.83 C 94.13 70.65 94.84 70.43 95.54 70.16 C 94.78 75.33 92.82 80.64 88.21 83.60 C 92.45 83.86 97.18 82.83 100.97 85.26 C 102.52 86.07 104.21 86.57 105.90 87.00 C 105.80 84.02 105.48 81.04 105.47 78.06 C 106.56 76.19 109.07 76.01 110.84 74.99 C 112.80 75.33 114.76 75.66 116.71 76.08 C 116.48 76.39 116.02 77.02 115.79 77.33 C 112.79 77.15 109.36 76.80 107.39 79.59 C 107.74 85.29 109.57 90.78 113.01 95.37 C 106.61 99.64 106.45 109.71 110.89 115.43 C 109.83 115.78 108.77 116.10 107.70 116.39 C 105.37 112.17 105.99 107.27 105.99 102.67 C 105.57 103.20 104.73 104.27 104.31 104.80 C 104.60 103.36 104.84 101.92 105.04 100.47 C 102.03 99.54 99.01 98.63 96.01 97.67 C 96.15 100.32 96.31 102.98 96.51 105.63 C 100.09 107.23 101.84 111.57 101.71 115.29 C 105.73 116.32 109.63 117.77 113.77 117.82 C 115.01 117.59 116.24 117.34 117.48 117.09 C 118.37 113.12 118.73 108.70 121.56 105.52 C 122.88 104.56 124.41 103.92 125.90 103.27 C 125.14 105.84 122.62 107.33 121.80 109.88 C 120.87 112.25 119.68 114.53 117.94 116.42 C 119.10 116.93 121.93 116.04 122.03 118.07 C 121.34 118.48 119.97 119.30 119.28 119.71 C 123.28 120.03 127.09 121.33 131.02 122.01 C 131.84 115.67 133.34 109.38 132.93 102.94 C 132.52 95.30 133.31 87.70 133.59 80.07 C 134.13 79.87 135.20 79.47 135.74 79.27 C 139.90 74.60 141.19 68.08 141.21 62.00 C 140.94 55.99 147.40 53.40 150.33 48.99 C 151.19 53.96 145.73 55.65 143.44 59.10 C 143.08 63.78 142.83 68.51 141.36 73.01 C 144.26 71.41 147.80 70.42 149.62 67.42 C 151.07 64.90 153.81 63.78 155.99 62.06 C 159.05 58.42 158.66 53.49 158.06 49.10 C 155.09 43.75 151.90 37.38 145.51 35.64 C 138.03 33.33 129.42 31.14 122.00 34.71 M 181.06 48.67 C 182.30 50.26 183.56 51.85 184.83 53.43 C 185.69 52.44 186.72 51.68 187.94 51.16 C 187.28 53.48 185.34 54.48 183.02 53.75 C 184.04 55.43 185.16 57.07 186.43 58.58 C 188.20 57.50 189.98 56.43 191.78 55.37 C 190.97 53.82 190.96 51.67 189.48 50.56 C 186.82 49.40 183.90 49.09 181.06 48.67 M 140.64 75.61 C 139.00 78.16 137.27 80.67 135.26 82.95 C 135.36 87.63 134.95 92.30 135.10 96.98 C 135.27 100.96 136.43 104.93 135.71 108.92 C 134.95 113.52 134.30 118.13 133.23 122.67 C 137.76 123.50 142.39 124.24 146.61 126.16 C 148.53 119.21 151.24 111.72 157.42 107.45 C 160.83 105.01 165.15 105.64 168.97 106.50 C 168.85 98.63 168.81 90.75 168.91 82.88 C 169.70 84.16 170.94 85.37 170.70 87.03 C 171.10 93.56 171.15 100.11 170.59 106.63 C 173.86 108.24 175.30 112.00 177.94 114.00 C 179.21 106.71 178.17 99.08 178.57 91.66 C 175.52 88.06 172.25 84.63 168.65 81.59 C 167.47 78.54 163.72 79.04 161.53 77.09 C 154.74 81.43 147.92 85.73 141.36 90.42 C 139.53 91.80 137.53 92.95 135.37 93.71 C 135.88 92.22 136.84 90.97 138.17 90.14 C 145.86 84.82 153.87 79.88 161.13 74.00 C 161.24 71.65 160.67 69.35 160.24 67.06 C 158.02 66.89 155.79 66.68 153.58 66.41 C 150.72 71.21 145.40 73.24 140.64 75.61 M 64.08 73.98 C 64.39 75.25 65.01 77.77 65.32 79.04 C 64.67 78.58 63.37 77.66 62.72 77.20 C 61.74 82.16 61.03 88.97 66.07 92.02 C 66.37 92.96 66.68 93.90 66.98 94.84 C 65.39 97.91 64.52 101.27 64.05 104.68 C 66.75 109.19 72.51 108.39 76.89 109.83 C 78.44 106.94 81.44 105.52 84.43 104.57 C 83.23 101.23 80.97 97.82 82.51 94.19 C 80.10 94.20 78.19 92.84 76.51 91.29 C 77.32 89.44 78.13 87.58 78.74 85.65 C 73.09 82.88 68.02 78.89 64.08 73.98 M 80.16 86.32 C 79.86 87.99 79.49 89.66 79.08 91.32 C 88.54 93.68 98.21 95.17 107.31 98.69 C 108.13 97.48 108.94 96.27 109.75 95.06 C 109.35 93.94 108.90 92.84 108.41 91.77 C 105.65 91.01 102.76 90.89 99.96 90.36 C 101.89 87.45 105.32 89.48 108.14 89.48 C 105.10 88.35 101.80 88.04 98.89 86.54 C 95.69 84.94 91.93 85.89 88.69 84.36 C 85.88 85.10 83.19 86.58 80.16 86.32 M 1.02 97.66 C 11.60 99.84 22.03 102.70 32.66 104.65 C 32.89 103.97 33.33 102.60 33.55 101.92 C 22.90 99.49 12.20 97.31 1.63 94.54 C -0.04 95.32 -0.25 96.36 1.02 97.66 M 83.35 95.82 C 85.48 98.53 88.18 102.90 85.16 105.98 C 88.29 107.28 91.63 106.97 94.56 105.32 C 94.35 102.60 94.28 99.87 94.33 97.15 C 91.35 96.14 88.29 95.47 85.24 94.76 C 84.60 95.10 83.97 95.46 83.35 95.82 M 178.21 115.40 C 178.21 115.76 178.19 116.48 178.19 116.84 L 179.04 116.86 L 179.41 116.03 C 179.11 115.87 178.51 115.55 178.21 115.40 M 95.64 119.24 C 112.60 122.79 129.47 126.85 146.38 130.67 C 146.45 129.83 146.59 128.15 146.66 127.31 C 138.30 126.57 130.34 123.64 122.11 122.17 C 114.02 120.73 106.19 117.92 98.01 117.02 C 97.42 117.58 96.23 118.69 95.64 119.24 M 167.32 135.44 C 175.06 137.00 182.71 138.90 190.36 140.89 C 190.57 139.74 190.78 138.59 191.00 137.44 C 183.55 136.22 176.19 134.59 168.88 132.75 C 167.19 132.68 166.86 134.09 167.32 135.44 M 96.34 132.94 C 96.85 146.27 96.04 159.64 96.38 172.96 C 95.27 173.08 94.16 173.09 93.05 173.16 C 92.50 172.84 91.40 172.18 90.85 171.86 C 84.83 170.22 78.78 168.70 72.73 167.21 C 70.37 168.30 67.91 169.29 65.88 170.96 C 65.97 172.90 66.27 174.82 66.49 176.75 C 88.68 182.45 110.79 188.41 133.00 194.05 C 135.25 192.82 137.90 192.00 139.65 190.07 C 139.52 188.21 139.22 186.37 139.13 184.51 C 138.02 183.45 136.72 182.54 135.15 182.35 C 125.46 179.92 115.55 178.50 105.90 175.92 C 104.99 163.32 105.42 150.67 105.38 138.06 C 102.35 136.37 99.61 134.18 96.34 132.94 M 193.08 140.62 C 194.41 140.39 194.64 139.67 193.78 138.47 C 192.44 138.71 192.21 139.43 193.08 140.62 Z" />
<path fill="#333333" opacity="1.00" d=" M 127.03 38.33 C 129.76 37.33 132.59 36.54 135.49 36.25 C 133.19 38.39 129.95 38.71 127.18 39.91 C 123.83 41.46 120.99 43.97 117.57 45.38 C 114.03 46.40 110.23 46.69 106.94 48.47 C 102.81 50.35 99.69 53.73 95.98 56.24 C 98.09 52.01 102.14 49.45 105.95 46.93 C 108.59 45.16 111.88 45.18 114.84 44.28 C 119.34 43.26 122.69 39.75 127.03 38.33 Z" />
<path fill="#333333" opacity="1.00" d=" M 92.55 48.40 C 94.61 48.12 96.68 47.96 98.75 47.90 C 97.53 50.65 94.57 48.93 92.55 48.40 Z" />
<path fill="#333333" opacity="1.00" d=" M 118.22 53.76 C 120.30 51.62 123.03 50.31 125.79 49.26 C 125.41 52.09 122.40 53.08 120.31 54.42 C 120.20 55.07 119.98 56.38 119.88 57.04 C 118.84 58.39 117.83 59.77 116.82 61.13 C 117.14 62.05 117.47 62.96 117.80 63.88 C 119.51 65.53 120.81 67.53 121.90 69.64 C 121.31 69.56 120.14 69.39 119.56 69.31 C 117.52 64.97 115.27 60.74 112.14 57.07 C 113.81 57.17 115.14 58.12 116.34 59.20 C 117.44 57.57 118.11 55.74 118.22 53.76 Z" />
<path fill="#333333" opacity="1.00" d=" M 124.76 54.30 C 126.01 52.54 128.31 52.59 130.20 52.05 C 133.83 55.60 132.42 62.82 128.03 65.20 C 129.11 61.81 131.07 58.17 130.00 54.58 C 128.26 54.40 126.51 54.40 124.76 54.30 Z" />
<path fill="#333333" opacity="1.00" d=" M 86.94 58.36 C 89.71 57.39 91.51 59.49 92.51 61.82 C 92.64 64.48 92.26 67.80 89.41 68.90 C 90.55 66.67 92.10 64.44 91.55 61.79 C 90.25 60.36 88.49 59.48 86.94 58.36 Z" />
<path fill="#333333" opacity="1.00" d=" M 152.51 70.53 C 154.07 69.11 156.15 68.57 158.17 68.18 C 155.62 72.01 151.30 73.95 147.81 76.75 C 144.30 79.07 141.19 82.11 137.31 83.82 C 137.20 83.44 136.97 82.68 136.85 82.30 C 141.98 78.26 147.66 74.93 152.51 70.53 Z" />
<path fill="#333333" opacity="1.00" d=" M 116.32 82.74 C 118.55 78.11 122.69 74.59 127.59 73.07 C 127.46 74.06 127.33 75.05 127.19 76.05 C 123.40 78.02 120.37 81.23 116.32 82.74 Z" />
<path fill="#333333" opacity="1.00" d=" M 118.02 96.88 C 119.37 94.93 121.32 98.10 123.09 97.22 C 123.87 96.97 127.18 95.98 125.82 97.95 C 124.50 101.01 121.23 98.11 119.01 97.86 C 117.03 101.16 118.45 105.19 116.54 108.42 C 115.73 104.52 116.09 100.41 118.02 96.88 Z" />
<path fill="#333333" opacity="1.00" d=" M 0.00 120.82 C 6.27 116.57 8.88 109.33 11.29 102.52 C 11.37 103.39 11.53 105.15 11.61 106.02 C 10.04 112.91 6.21 119.50 0.00 123.15 L 0.00 120.82 Z" />
<path fill="#333333" opacity="1.00" d=" M 144.65 139.77 C 143.41 138.77 143.14 134.59 144.59 133.79 C 145.13 135.66 145.17 137.89 144.65 139.77 Z" />
</g>
</svg>
