<?xml version="1.0" encoding="UTF-8" ?>
<!DOCTYPE svg PUBLIC "-//W3C//DTD SVG 1.1//EN" "http://www.w3.org/Graphics/SVG/1.1/DTD/svg11.dtd">
<svg width="180pt" height="250pt" viewBox="0 0 180 250" version="1.1" xmlns="http://www.w3.org/2000/svg">
<g id="#ffffffff">
<path fill="#FFFFFF" opacity="1.00" d=" M 0.00 0.00 L 180.00 0.00 L 180.00 250.00 L 0.00 250.00 L 0.00 0.00 M 74.82 21.00 C 70.64 25.39 72.02 31.79 73.07 37.10 C 74.02 40.31 76.32 43.05 76.16 46.56 C 73.31 47.83 70.12 48.58 67.72 50.70 C 63.51 54.10 61.03 59.02 58.17 63.50 C 58.16 63.84 58.15 64.51 58.14 64.85 C 58.40 64.85 58.91 64.86 59.17 64.86 C 62.22 60.45 65.17 55.87 69.12 52.18 C 71.16 50.57 73.60 49.58 75.82 48.26 C 75.46 49.41 74.75 51.72 74.40 52.87 C 78.48 50.40 77.65 45.45 77.73 41.43 C 80.23 44.26 81.20 48.47 84.78 50.28 C 87.46 52.01 90.75 51.84 93.78 51.46 C 93.55 52.99 93.32 54.52 93.09 56.05 C 92.76 57.19 92.44 58.33 92.13 59.47 C 90.64 59.27 89.16 59.04 87.68 58.80 C 87.57 58.17 87.33 56.92 87.21 56.29 C 84.11 53.51 79.65 53.03 75.66 52.62 C 73.02 54.96 69.70 57.04 68.77 60.68 C 64.97 62.33 61.50 64.77 57.49 65.88 C 56.48 59.94 53.59 53.75 48.00 50.93 C 43.73 49.62 38.60 51.25 36.25 55.17 C 33.40 60.00 32.45 65.81 32.75 71.37 C 29.38 72.00 26.04 72.91 22.60 73.10 C 22.13 74.06 21.66 75.03 21.20 76.00 C 21.70 76.98 22.20 77.97 22.71 78.94 C 26.28 78.10 29.93 77.62 33.50 76.78 C 33.86 82.50 36.26 88.41 40.92 91.95 C 43.22 93.96 46.42 93.05 49.15 93.10 C 47.21 94.66 44.69 95.76 43.47 98.05 C 42.35 100.39 41.58 102.87 40.41 105.19 C 39.00 107.90 39.85 111.05 39.60 113.95 C 39.80 117.71 37.20 120.87 37.27 124.61 C 39.47 122.44 40.69 119.49 41.39 116.53 C 42.12 111.96 40.77 106.95 43.53 102.86 C 44.71 98.84 48.78 97.03 50.76 93.53 C 51.93 94.94 53.13 96.34 54.37 97.69 C 55.33 103.81 55.84 110.08 57.74 116.00 C 58.87 120.55 63.53 123.40 67.95 123.97 C 73.89 124.85 79.93 124.53 85.85 123.72 C 86.19 125.96 86.50 128.21 86.78 130.47 C 85.41 131.10 84.05 131.74 82.64 132.28 C 82.16 132.98 81.21 134.37 80.73 135.07 C 83.00 134.87 84.95 133.61 86.97 132.68 C 88.88 139.47 82.80 145.13 83.45 151.91 C 84.56 159.26 77.28 164.57 78.71 171.97 C 79.43 170.22 80.12 168.46 80.77 166.69 C 80.69 169.72 80.48 172.75 80.18 175.77 C 80.72 175.59 81.80 175.23 82.33 175.05 C 82.30 171.09 82.48 167.10 83.11 163.19 C 84.15 159.19 85.25 155.15 85.19 150.98 C 84.88 148.14 86.81 145.87 87.65 143.32 C 89.26 153.18 89.43 163.22 91.01 173.08 C 92.16 180.32 92.21 187.74 94.45 194.78 C 95.02 189.49 93.72 184.27 93.52 179.00 C 93.08 168.81 91.48 158.71 91.02 148.53 C 90.07 143.77 89.32 138.99 89.06 134.14 C 88.86 130.60 87.65 126.78 88.53 123.38 C 94.95 120.94 102.04 121.00 108.54 118.71 C 115.73 118.19 122.35 114.98 128.86 112.10 C 131.51 109.75 133.96 107.21 135.19 103.81 C 134.47 98.14 133.00 92.59 131.39 87.12 C 129.48 82.06 129.56 76.48 127.42 71.48 C 126.44 69.55 124.52 68.31 123.30 66.55 C 122.45 62.73 122.63 58.74 121.42 54.98 C 125.52 56.02 129.66 56.91 133.80 57.78 C 134.54 63.98 137.07 71.09 143.15 73.81 C 146.59 74.23 151.05 74.56 153.34 71.35 C 158.00 66.10 158.40 58.60 158.38 51.92 C 162.61 51.21 166.78 50.17 170.98 49.26 C 170.54 47.63 170.02 46.02 169.40 44.44 C 165.53 45.33 161.65 46.19 157.74 46.91 C 156.38 41.32 154.53 34.79 148.96 32.01 C 144.74 30.50 138.96 31.37 136.55 35.56 C 133.70 40.62 132.76 46.59 133.26 52.34 C 128.99 51.27 124.61 50.68 120.35 49.56 C 120.29 49.95 120.17 50.72 120.11 51.11 C 125.39 51.86 130.71 54.69 136.07 52.95 C 138.38 52.70 141.56 50.53 143.23 53.20 C 138.98 54.57 134.40 56.60 129.87 55.38 C 126.67 54.64 123.47 53.92 120.26 53.23 C 119.29 51.82 118.63 49.86 116.85 49.27 C 114.18 48.80 111.57 49.73 109.09 50.60 C 106.56 47.47 103.19 45.16 99.27 44.19 C 100.11 37.79 99.96 31.05 97.41 25.02 C 96.14 21.02 92.46 17.50 88.10 17.44 C 83.47 16.80 77.96 16.96 74.82 21.00 M 96.14 123.19 C 94.80 125.22 95.82 127.79 95.96 130.02 C 97.26 138.98 97.58 148.05 99.14 156.98 C 100.17 171.91 103.09 186.72 103.60 201.67 C 106.61 203.00 105.79 198.81 104.53 197.54 C 104.85 196.04 105.00 194.53 104.97 193.02 C 103.14 180.39 102.09 167.66 99.86 155.09 C 99.73 149.35 99.45 143.62 99.02 137.90 C 98.58 132.88 97.22 127.98 97.11 122.92 C 96.87 122.99 96.38 123.13 96.14 123.19 M 38.16 124.15 C 37.37 126.55 37.21 129.12 38.81 131.22 L 40.18 127.68 C 40.08 129.68 39.49 131.61 39.12 133.57 C 38.51 132.29 37.80 131.07 37.02 129.88 C 36.75 135.27 36.01 140.63 35.91 146.03 C 35.99 153.77 33.61 161.28 30.80 168.42 C 29.12 172.74 27.92 177.33 28.14 182.02 C 28.01 189.56 32.31 196.47 31.78 204.04 C 31.42 206.79 32.47 209.36 33.36 211.89 C 31.49 216.61 34.20 221.28 34.34 226.06 C 34.22 228.78 36.63 230.28 38.55 231.71 C 39.35 231.20 40.15 230.69 40.95 230.18 C 39.42 229.14 37.45 228.37 36.62 226.59 C 36.12 224.08 36.09 221.47 35.15 219.06 C 33.51 215.65 36.03 211.86 34.36 208.44 C 32.82 205.40 34.79 202.14 33.98 199.00 C 32.58 191.08 28.52 183.19 31.00 175.04 C 34.75 165.07 37.07 154.65 39.17 144.24 C 39.62 139.43 40.20 134.61 41.92 130.06 C 44.26 131.33 46.54 132.70 48.85 134.01 C 51.65 135.61 54.99 135.39 58.08 135.76 C 57.65 139.19 56.55 142.47 55.81 145.84 C 55.13 148.31 54.51 151.03 52.34 152.65 C 51.36 150.35 50.60 147.97 49.86 145.59 C 47.08 146.52 44.29 147.41 41.47 148.19 C 43.78 147.76 46.12 147.46 48.47 147.65 C 49.32 150.40 50.08 153.18 50.52 156.03 C 47.83 160.44 46.81 165.65 43.93 169.98 C 39.92 175.90 40.62 183.49 40.99 190.27 C 41.54 187.56 41.57 184.78 41.88 182.04 C 42.57 179.73 43.06 177.37 43.53 175.02 C 43.79 179.97 44.37 185.00 43.22 189.90 C 42.05 194.51 42.56 199.26 42.94 203.94 L 41.08 203.81 C 43.34 208.18 46.63 211.96 48.41 216.60 C 49.46 219.51 51.40 221.93 54.04 223.54 C 54.30 225.44 54.35 227.35 54.24 229.27 C 53.25 229.42 51.27 229.72 50.28 229.87 C 50.40 227.68 50.81 224.82 48.35 223.73 C 45.36 223.24 42.26 223.51 39.29 224.08 C 42.23 224.98 45.44 224.76 48.26 226.02 C 48.78 227.38 49.21 228.78 49.56 230.20 C 47.07 230.38 44.59 230.25 42.11 230.04 C 41.44 230.73 40.76 231.41 40.08 232.10 C 43.39 232.48 46.70 232.84 50.01 233.21 C 51.29 232.77 52.58 232.36 53.88 231.98 C 54.84 230.40 56.41 228.95 56.33 226.96 C 56.81 222.47 52.11 219.98 50.65 216.16 C 49.24 212.56 46.98 209.43 44.68 206.36 C 45.36 202.62 44.47 198.85 44.85 195.10 C 45.67 189.90 46.75 184.72 46.73 179.43 C 47.19 174.93 46.63 170.13 48.71 165.95 C 50.91 161.15 52.43 155.98 55.52 151.63 C 58.40 146.60 58.95 140.70 59.99 135.11 C 60.75 133.33 62.60 132.50 64.23 131.71 C 65.29 138.40 68.52 145.01 67.07 151.88 C 66.61 154.18 67.45 156.48 67.31 158.79 C 65.51 164.29 64.45 169.99 62.64 175.49 C 61.31 179.99 64.54 183.81 65.21 188.07 C 66.02 191.94 67.45 195.91 66.26 199.87 C 65.71 203.50 63.59 208.15 67.01 211.03 C 70.75 213.84 70.74 219.55 75.04 221.73 C 77.77 223.21 80.80 224.87 84.02 224.50 C 87.64 222.31 92.36 218.98 90.83 214.05 C 88.18 208.73 83.59 204.66 80.58 199.56 C 79.30 196.92 79.55 193.83 79.83 191.00 C 80.46 186.20 80.82 181.33 82.24 176.69 C 81.41 176.69 80.57 176.69 79.74 176.68 C 79.98 180.71 78.15 184.40 77.51 188.30 C 77.12 191.83 77.52 195.42 78.30 198.88 C 80.49 205.19 85.73 209.60 89.27 215.08 C 88.74 219.24 84.81 220.81 81.77 222.91 C 78.70 221.77 75.08 220.38 73.92 216.99 C 72.32 212.16 66.49 209.08 67.82 203.42 C 68.80 205.21 69.75 207.02 70.75 208.81 C 72.50 206.57 70.51 204.26 69.43 202.27 C 69.60 195.63 66.67 189.49 65.83 182.98 C 63.69 176.18 66.80 169.52 68.20 162.93 C 69.31 166.00 70.02 169.20 71.21 172.24 C 71.51 169.72 70.79 167.30 70.27 164.88 C 69.42 158.65 69.22 152.36 69.17 146.09 C 69.15 141.52 67.16 137.37 65.96 133.06 C 68.13 133.63 70.29 134.27 72.52 134.62 C 70.94 132.60 68.57 131.50 66.53 130.05 C 65.74 130.37 64.96 130.70 64.18 131.03 C 64.68 129.29 65.23 127.55 65.32 125.73 C 63.71 127.11 62.83 129.05 61.98 130.94 C 59.75 132.05 57.62 133.87 54.97 133.64 C 50.32 133.88 46.26 130.94 42.93 128.02 C 41.34 126.77 40.20 124.65 38.16 124.15 M 73.92 134.59 C 75.88 134.41 80.25 136.15 80.88 133.79 C 78.75 133.40 75.55 133.51 73.92 134.59 M 71.15 150.11 C 71.13 152.62 73.32 154.21 74.46 156.21 C 75.52 158.46 75.89 161.27 78.33 162.54 C 77.86 161.03 77.31 159.54 76.71 158.08 C 76.73 156.66 76.74 155.24 76.76 153.82 C 79.47 151.84 82.39 149.99 83.98 146.91 C 83.42 146.74 82.29 146.39 81.72 146.21 C 80.13 149.43 78.08 152.56 74.49 153.74 C 73.75 152.24 72.80 150.76 72.73 149.04 C 73.30 146.23 75.27 143.78 75.02 140.81 C 73.10 143.55 70.71 146.56 71.15 150.11 M 102.74 156.88 C 103.37 160.76 104.29 164.97 107.24 167.79 C 111.31 171.93 116.29 176.22 122.52 175.69 C 123.72 184.92 123.74 194.45 126.40 203.42 C 127.36 194.07 125.95 184.68 124.29 175.49 C 126.54 174.81 128.78 174.14 131.05 173.53 C 131.49 184.77 132.72 196.01 135.25 206.99 C 136.59 195.66 132.90 184.55 132.97 173.25 C 138.57 171.85 144.69 171.90 149.74 168.79 C 151.63 167.72 151.36 165.37 151.91 163.56 C 151.14 156.89 144.77 153.41 139.65 150.22 C 134.32 146.88 127.89 148.63 122.13 149.55 C 115.52 151.37 107.32 150.82 102.74 156.88 M 40.13 163.22 C 43.01 162.09 44.20 159.51 43.53 156.52 C 41.43 158.19 40.67 160.72 40.13 163.22 M 37.26 165.91 C 35.89 170.23 33.96 174.38 33.16 178.86 C 32.85 183.07 33.66 187.27 34.36 191.41 C 35.20 188.00 34.78 184.50 34.75 181.04 C 35.55 175.63 38.09 170.64 38.68 165.18 C 38.32 165.36 37.61 165.73 37.26 165.91 M 72.61 172.36 C 72.38 174.92 72.40 177.50 71.98 180.04 C 71.63 182.79 70.54 185.73 72.02 188.34 C 73.78 183.36 75.55 177.20 72.61 172.36 Z" />
<path fill="#FFFFFF" opacity="1.00" d=" M 74.36 25.53 C 75.42 21.76 79.49 20.05 83.02 19.44 C 86.99 19.50 91.96 19.66 94.24 23.51 C 97.69 30.08 97.85 37.77 97.34 45.01 C 96.95 48.52 93.01 49.85 89.97 49.60 C 85.76 49.50 82.70 46.11 80.49 42.88 C 81.01 42.23 81.52 41.58 82.04 40.92 C 78.85 40.66 76.19 38.90 74.56 36.17 C 74.70 32.61 73.06 29.00 74.36 25.53 Z" />
<path fill="#FFFFFF" opacity="1.00" d=" M 137.95 35.98 C 140.23 32.47 145.69 31.35 149.02 33.92 C 153.60 36.81 155.27 42.35 156.42 47.33 C 157.04 53.50 157.35 60.01 155.01 65.89 C 153.68 69.10 151.08 72.20 147.32 72.33 C 150.05 69.45 152.17 66.00 152.57 61.96 C 153.90 54.55 153.16 46.73 150.27 39.76 C 149.19 37.05 147.35 34.51 144.56 33.40 C 145.95 36.33 148.23 38.75 149.41 41.80 C 152.18 48.62 152.62 56.38 150.74 63.50 C 149.95 66.77 147.67 69.37 146.54 72.50 C 138.73 72.24 136.42 63.63 134.47 57.56 C 137.71 55.91 142.31 56.76 144.43 53.32 C 143.84 52.25 143.25 51.17 142.67 50.10 C 139.65 50.69 136.63 51.28 133.65 52.04 C 134.54 46.58 134.72 40.69 137.95 35.98 Z" />
<path fill="#FFFFFF" opacity="1.00" d=" M 158.13 48.23 C 162.16 47.68 166.27 45.40 170.31 47.01 C 166.96 49.83 162.25 49.46 158.28 50.84 C 158.24 50.19 158.17 48.88 158.13 48.23 Z" />
<path fill="#FFFFFF" opacity="1.00" d=" M 98.64 46.59 C 102.51 47.17 105.94 49.19 107.87 52.67 C 110.98 50.33 114.88 50.51 118.53 51.17 C 119.04 52.70 119.53 54.23 120.19 55.70 C 120.44 65.93 124.19 75.80 123.26 86.09 C 122.34 88.99 121.40 91.87 120.84 94.86 C 119.54 97.73 116.22 95.84 114.21 94.89 C 109.38 92.79 108.45 87.13 105.84 83.10 C 103.08 78.41 103.73 72.86 103.94 67.67 C 98.24 68.49 92.78 70.53 87.02 71.00 C 87.05 71.23 87.11 71.67 87.15 71.89 C 88.34 72.96 90.00 72.44 91.40 72.20 C 94.94 71.31 98.56 70.78 102.17 70.27 C 101.52 74.20 101.39 78.42 103.54 81.94 C 106.49 86.72 107.31 93.15 112.45 96.29 C 114.76 97.47 117.26 99.22 119.98 98.58 C 121.90 97.98 122.37 95.75 122.81 94.04 C 124.48 86.20 126.19 78.01 124.19 70.06 C 126.07 75.26 128.05 80.48 128.93 85.97 C 129.89 92.05 132.10 97.88 132.74 104.02 C 132.15 106.30 130.51 108.13 129.49 110.21 C 123.53 111.81 118.07 114.98 111.99 116.18 C 104.46 117.35 96.92 118.56 89.52 120.36 C 81.98 123.08 73.50 123.41 65.90 120.78 C 64.25 120.11 62.46 119.26 61.58 117.62 C 56.70 108.83 58.59 98.30 55.65 88.94 C 54.05 90.62 52.74 92.84 54.56 94.88 C 53.04 94.77 52.75 92.93 51.82 92.02 C 57.68 86.99 58.35 78.74 58.38 71.53 C 59.08 71.36 60.48 71.03 61.18 70.86 C 61.17 71.69 61.16 73.35 61.15 74.18 C 60.55 74.18 59.33 74.17 58.73 74.17 C 58.69 74.76 58.61 75.95 58.57 76.55 C 59.37 76.35 60.96 75.96 61.76 75.76 C 61.37 83.83 59.24 93.79 65.93 99.98 C 68.52 102.02 70.33 105.60 73.84 106.08 C 78.18 104.58 78.75 99.45 80.84 95.97 C 86.41 86.12 84.66 74.36 87.42 63.77 C 88.80 65.10 90.13 66.48 91.50 67.81 C 91.19 66.86 90.88 65.91 90.57 64.96 C 96.35 63.78 102.10 62.39 107.96 61.59 C 110.19 63.23 112.54 64.91 113.70 67.53 C 111.38 66.54 109.00 65.64 106.46 65.48 C 106.46 65.89 106.48 66.71 106.48 67.12 C 109.17 67.84 112.12 68.64 113.88 70.98 C 113.54 75.39 110.89 79.06 109.59 83.18 C 110.09 84.06 110.60 84.95 111.11 85.84 C 112.50 79.81 117.36 74.48 115.66 67.92 C 115.43 64.24 112.00 62.43 109.44 60.42 C 110.44 59.33 111.46 58.27 112.48 57.21 C 111.10 55.52 109.43 54.16 107.09 54.35 C 106.42 55.54 105.95 56.88 106.80 58.13 C 107.38 57.55 108.55 56.38 109.13 55.80 C 109.35 56.16 109.78 56.88 110.00 57.25 C 109.09 58.09 108.21 58.96 107.35 59.86 C 101.92 61.27 96.30 61.68 90.91 63.22 C 89.89 62.96 88.87 62.71 87.85 62.45 C 87.58 62.09 87.03 61.35 86.76 60.99 C 86.65 60.82 86.42 60.49 86.31 60.32 C 92.98 62.10 99.47 58.48 106.07 57.86 C 105.07 57.42 104.05 57.05 103.01 56.74 C 104.19 56.13 105.29 55.39 106.31 54.52 C 103.92 52.51 102.14 55.50 100.55 56.76 C 99.89 54.76 99.32 52.68 97.92 51.04 C 97.67 53.36 97.76 55.73 99.44 57.52 C 97.27 57.88 95.13 58.39 92.99 58.88 C 94.56 56.36 95.89 53.65 95.87 50.61 C 96.58 50.03 97.29 49.45 98.00 48.87 C 98.16 48.30 98.48 47.16 98.64 46.59 Z" />
<path fill="#FFFFFF" opacity="1.00" d=" M 38.16 55.01 C 39.97 52.49 43.29 52.32 46.01 51.47 C 52.78 55.06 56.46 62.44 56.72 69.92 C 57.19 77.42 56.76 86.51 50.01 91.30 C 50.14 86.96 52.42 83.07 52.72 78.76 C 53.41 70.99 52.54 62.59 48.18 55.94 C 47.20 54.93 46.17 52.46 44.50 53.83 C 52.70 63.40 54.09 78.57 47.49 89.34 C 48.17 89.99 48.83 90.66 49.49 91.33 C 46.65 91.20 43.33 92.09 40.99 89.96 C 36.97 86.59 35.72 81.26 33.88 76.59 C 37.28 76.02 40.65 75.30 43.96 74.34 C 43.69 72.71 43.33 71.09 42.91 69.48 C 39.72 70.04 36.55 70.72 33.33 71.07 C 34.21 65.59 34.36 59.45 38.16 55.01 Z" />
<path fill="#FFFFFF" opacity="1.00" d=" M 70.47 59.04 C 71.69 57.77 72.91 56.49 74.28 55.37 C 77.52 54.80 80.85 55.58 84.12 55.70 C 84.85 56.38 85.58 57.06 86.31 57.74 C 82.06 59.03 85.95 63.91 84.82 66.92 C 82.86 75.58 83.97 84.91 79.95 93.06 C 78.04 96.93 76.58 101.06 74.04 104.58 C 70.14 100.85 63.84 97.31 64.44 91.12 C 64.02 90.54 63.59 89.96 63.17 89.39 C 62.60 83.05 65.11 76.02 61.58 70.27 C 64.98 68.69 68.36 67.05 71.78 65.51 C 72.50 68.24 73.74 71.09 72.93 73.95 C 72.05 77.11 70.60 80.09 69.65 83.24 C 68.69 81.49 67.83 79.61 66.17 78.39 C 66.42 80.46 66.92 82.49 67.54 84.48 C 66.41 85.64 65.30 86.82 64.21 88.02 C 64.77 88.46 65.33 88.91 65.89 89.35 C 67.89 86.43 71.62 84.78 72.46 81.11 C 73.45 78.15 74.70 75.29 76.05 72.48 C 74.62 69.49 73.41 66.15 74.03 62.79 C 73.74 60.91 71.79 60.09 70.47 59.04 Z" />
<path fill="#FFFFFF" opacity="1.00" d=" M 64.63 64.59 C 67.37 63.66 70.52 59.85 73.18 62.94 C 68.06 65.40 62.99 67.94 57.80 70.24 C 57.68 66.44 62.24 66.33 64.63 64.59 Z" />
<path fill="#FFFFFF" opacity="1.00" d=" M 25.09 74.24 C 30.55 73.48 35.92 72.21 41.37 71.42 C 41.85 71.72 42.81 72.33 43.30 72.63 C 37.48 74.55 31.35 75.26 25.44 76.82 C 25.35 76.17 25.18 74.88 25.09 74.24 Z" />
<path fill="#FFFFFF" opacity="1.00" d=" M 23.11 75.20 C 26.34 75.41 21.58 78.23 23.11 75.20 Z" />
<path fill="#FFFFFF" opacity="1.00" d=" M 110.13 153.58 C 117.10 152.11 124.11 150.72 131.22 150.13 C 136.27 152.03 141.15 154.43 145.73 157.29 C 148.41 158.86 149.75 161.91 149.85 164.93 C 149.91 166.30 148.41 166.70 147.38 167.02 C 142.67 168.18 137.92 169.29 133.06 169.50 C 128.30 169.75 123.78 171.65 119.00 171.64 C 116.11 171.91 113.91 169.75 111.61 168.36 C 108.00 166.09 105.14 162.26 104.66 157.98 C 104.10 154.87 107.92 154.18 110.13 153.58 Z" />
</g>
<g id="#2f302fff">
<path fill="#333333" opacity="1.00" d=" M 74.82 21.00 C 77.96 16.96 83.47 16.80 88.10 17.44 C 92.46 17.50 96.14 21.02 97.41 25.02 C 99.96 31.05 100.11 37.79 99.27 44.19 C 103.19 45.16 106.56 47.47 109.09 50.60 C 111.57 49.73 114.18 48.80 116.85 49.27 C 118.63 49.86 119.29 51.82 120.26 53.23 C 123.47 53.92 126.67 54.64 129.87 55.38 C 134.40 56.60 138.98 54.57 143.23 53.20 C 141.56 50.53 138.38 52.70 136.07 52.95 C 130.71 54.69 125.39 51.86 120.11 51.11 C 120.17 50.72 120.29 49.95 120.35 49.56 C 124.61 50.68 128.99 51.27 133.26 52.34 C 132.76 46.59 133.70 40.62 136.55 35.56 C 138.96 31.37 144.74 30.50 148.96 32.01 C 154.53 34.79 156.38 41.32 157.74 46.91 C 161.65 46.19 165.53 45.33 169.40 44.44 C 170.02 46.02 170.54 47.63 170.98 49.26 C 166.78 50.17 162.61 51.21 158.38 51.92 C 158.40 58.60 158.00 66.10 153.34 71.35 C 151.05 74.56 146.59 74.23 143.15 73.81 C 137.07 71.09 134.54 63.98 133.80 57.78 C 129.66 56.91 125.52 56.02 121.42 54.98 C 122.63 58.74 122.45 62.73 123.30 66.55 C 124.52 68.31 126.44 69.55 127.42 71.48 C 129.56 76.48 129.48 82.06 131.39 87.12 C 133.00 92.59 134.47 98.14 135.19 103.81 C 133.96 107.21 131.51 109.75 128.86 112.10 C 122.35 114.98 115.73 118.19 108.54 118.71 C 102.04 121.00 94.95 120.94 88.53 123.38 C 87.65 126.78 88.86 130.60 89.06 134.14 C 89.32 138.99 90.07 143.77 91.02 148.53 C 91.48 158.71 93.08 168.81 93.52 179.00 C 93.72 184.27 95.02 189.49 94.45 194.78 C 92.21 187.74 92.16 180.32 91.01 173.08 C 89.43 163.22 89.26 153.18 87.65 143.32 C 86.81 145.87 84.88 148.14 85.19 150.98 C 85.25 155.15 84.15 159.19 83.11 163.19 C 82.48 167.10 82.30 171.09 82.33 175.05 C 81.80 175.23 80.72 175.59 80.18 175.77 C 80.48 172.75 80.69 169.72 80.77 166.69 C 80.12 168.46 79.43 170.22 78.71 171.97 C 77.28 164.57 84.56 159.26 83.45 151.91 C 82.80 145.13 88.88 139.47 86.97 132.68 C 84.95 133.61 83.00 134.87 80.73 135.07 C 81.21 134.37 82.16 132.98 82.64 132.28 C 84.05 131.74 85.41 131.10 86.78 130.47 C 86.50 128.21 86.19 125.96 85.85 123.72 C 79.93 124.53 73.89 124.85 67.95 123.97 C 63.53 123.40 58.87 120.55 57.74 116.00 C 55.84 110.08 55.33 103.81 54.37 97.69 C 53.13 96.34 51.93 94.94 50.76 93.53 C 48.78 97.03 44.71 98.84 43.53 102.86 C 40.77 106.95 42.12 111.96 41.39 116.53 C 40.69 119.49 39.47 122.44 37.27 124.61 C 37.20 120.87 39.80 117.71 39.60 113.95 C 39.85 111.05 39.00 107.90 40.41 105.19 C 41.58 102.87 42.35 100.39 43.47 98.05 C 44.69 95.76 47.21 94.66 49.15 93.10 C 46.42 93.05 43.22 93.96 40.92 91.95 C 36.26 88.41 33.86 82.50 33.50 76.78 C 29.93 77.62 26.28 78.10 22.71 78.94 C 22.20 77.97 21.70 76.98 21.20 76.00 C 21.66 75.03 22.13 74.06 22.60 73.10 C 26.04 72.91 29.38 72.00 32.75 71.37 C 32.45 65.81 33.40 60.00 36.25 55.17 C 38.60 51.25 43.73 49.62 48.00 50.93 C 53.59 53.75 56.48 59.94 57.49 65.88 C 61.50 64.77 64.97 62.33 68.77 60.68 C 69.70 57.04 73.02 54.96 75.66 52.62 C 79.65 53.03 84.11 53.51 87.21 56.29 C 87.33 56.92 87.57 58.17 87.68 58.80 C 89.16 59.04 90.64 59.27 92.13 59.47 C 92.44 58.33 92.76 57.19 93.09 56.05 C 93.32 54.52 93.55 52.99 93.78 51.46 C 90.75 51.84 87.46 52.01 84.78 50.28 C 81.20 48.47 80.23 44.26 77.73 41.43 C 77.65 45.45 78.48 50.40 74.40 52.87 C 74.75 51.72 75.46 49.41 75.82 48.26 C 73.60 49.58 71.16 50.57 69.12 52.18 C 65.17 55.87 62.22 60.45 59.17 64.86 C 58.91 64.86 58.40 64.85 58.14 64.85 C 58.15 64.51 58.16 63.84 58.17 63.50 C 61.03 59.02 63.51 54.10 67.72 50.70 C 70.12 48.58 73.31 47.83 76.16 46.56 C 76.32 43.05 74.02 40.31 73.07 37.10 C 72.02 31.79 70.64 25.39 74.82 21.00 M 74.36 25.53 C 73.06 29.00 74.70 32.61 74.56 36.17 C 76.19 38.90 78.85 40.66 82.04 40.92 C 81.52 41.58 81.01 42.23 80.49 42.88 C 82.70 46.11 85.76 49.50 89.97 49.60 C 93.01 49.85 96.95 48.52 97.34 45.01 C 97.85 37.77 97.69 30.08 94.24 23.51 C 91.96 19.66 86.99 19.50 83.02 19.44 C 79.49 20.05 75.42 21.76 74.36 25.53 M 137.95 35.98 C 134.72 40.69 134.54 46.58 133.65 52.04 C 136.63 51.28 139.65 50.69 142.67 50.10 C 143.25 51.17 143.84 52.25 144.43 53.32 C 142.31 56.76 137.71 55.91 134.47 57.56 C 136.42 63.63 138.73 72.24 146.54 72.50 C 147.67 69.37 149.95 66.77 150.74 63.50 C 152.62 56.38 152.18 48.62 149.41 41.80 C 148.23 38.75 145.95 36.33 144.56 33.40 C 147.35 34.51 149.19 37.05 150.27 39.76 C 153.16 46.73 153.90 54.55 152.57 61.96 C 152.17 66.00 150.05 69.45 147.32 72.33 C 151.08 72.20 153.68 69.10 155.01 65.89 C 157.35 60.01 157.04 53.50 156.42 47.33 C 155.27 42.35 153.60 36.81 149.02 33.92 C 145.69 31.35 140.23 32.47 137.95 35.98 M 158.13 48.23 C 158.17 48.88 158.24 50.19 158.28 50.84 C 162.25 49.46 166.96 49.83 170.31 47.01 C 166.27 45.40 162.16 47.68 158.13 48.23 M 98.64 46.59 C 98.48 47.16 98.16 48.30 98.00 48.87 C 97.29 49.45 96.58 50.03 95.87 50.61 C 95.89 53.65 94.56 56.36 92.99 58.88 C 95.13 58.39 97.27 57.88 99.44 57.52 C 97.76 55.73 97.67 53.36 97.92 51.04 C 99.32 52.68 99.89 54.76 100.55 56.76 C 102.14 55.50 103.92 52.51 106.31 54.52 C 105.29 55.39 104.19 56.13 103.01 56.74 C 104.05 57.05 105.07 57.42 106.07 57.86 C 99.47 58.48 92.98 62.10 86.31 60.32 C 86.42 60.49 86.65 60.82 86.76 60.99 C 87.03 61.35 87.58 62.09 87.85 62.45 C 88.87 62.71 89.89 62.96 90.91 63.22 C 96.30 61.68 101.92 61.27 107.35 59.86 C 108.21 58.96 109.09 58.09 110.00 57.25 C 109.78 56.88 109.35 56.16 109.13 55.80 C 108.55 56.38 107.38 57.55 106.80 58.13 C 105.95 56.88 106.42 55.54 107.09 54.35 C 109.43 54.16 111.10 55.52 112.48 57.21 C 111.46 58.27 110.44 59.33 109.44 60.42 C 112.00 62.43 115.43 64.24 115.66 67.92 C 117.36 74.48 112.50 79.81 111.11 85.84 C 110.60 84.95 110.09 84.06 109.59 83.18 C 110.89 79.06 113.54 75.39 113.88 70.98 C 112.12 68.64 109.17 67.84 106.48 67.12 C 106.48 66.71 106.46 65.89 106.46 65.48 C 109.00 65.64 111.38 66.54 113.70 67.53 C 112.54 64.91 110.19 63.23 107.96 61.59 C 102.10 62.39 96.35 63.78 90.57 64.96 C 90.88 65.91 91.19 66.86 91.50 67.81 C 90.13 66.48 88.80 65.10 87.42 63.77 C 84.66 74.36 86.41 86.12 80.84 95.97 C 78.75 99.45 78.18 104.58 73.84 106.08 C 70.33 105.60 68.52 102.02 65.93 99.98 C 59.24 93.79 61.37 83.83 61.76 75.76 C 60.96 75.96 59.37 76.35 58.57 76.55 C 58.61 75.95 58.69 74.76 58.73 74.17 C 59.33 74.17 60.55 74.18 61.15 74.18 C 61.16 73.35 61.17 71.69 61.18 70.86 C 60.48 71.03 59.08 71.36 58.38 71.53 C 58.35 78.74 57.68 86.99 51.82 92.02 C 52.75 92.93 53.04 94.77 54.56 94.88 C 52.74 92.84 54.05 90.62 55.65 88.94 C 58.59 98.30 56.70 108.83 61.58 117.62 C 62.46 119.26 64.25 120.11 65.90 120.78 C 73.50 123.41 81.98 123.08 89.52 120.36 C 96.92 118.56 104.46 117.35 111.99 116.18 C 118.07 114.98 123.53 111.81 129.49 110.21 C 130.51 108.13 132.15 106.30 132.74 104.02 C 132.10 97.88 129.89 92.05 128.93 85.97 C 128.05 80.48 126.07 75.26 124.19 70.06 C 126.19 78.01 124.48 86.20 122.81 94.04 C 122.37 95.75 121.90 97.98 119.98 98.58 C 117.26 99.22 114.76 97.47 112.45 96.29 C 107.31 93.15 106.49 86.72 103.54 81.94 C 101.39 78.42 101.52 74.20 102.17 70.27 C 98.56 70.78 94.94 71.31 91.40 72.20 C 90.00 72.44 88.34 72.96 87.15 71.89 C 87.11 71.67 87.05 71.23 87.02 71.00 C 92.78 70.53 98.24 68.49 103.94 67.67 C 103.73 72.86 103.08 78.41 105.84 83.10 C 108.45 87.13 109.38 92.79 114.21 94.89 C 116.22 95.84 119.54 97.73 120.84 94.86 C 121.40 91.87 122.34 88.99 123.26 86.09 C 124.19 75.80 120.44 65.93 120.19 55.70 C 119.53 54.23 119.04 52.70 118.53 51.17 C 114.88 50.51 110.98 50.33 107.87 52.67 C 105.94 49.19 102.51 47.17 98.64 46.59 M 38.16 55.01 C 34.36 59.45 34.21 65.59 33.33 71.07 C 36.55 70.72 39.72 70.04 42.91 69.48 C 43.33 71.09 43.69 72.71 43.96 74.34 C 40.65 75.30 37.28 76.02 33.88 76.59 C 35.72 81.26 36.97 86.59 40.99 89.96 C 43.33 92.09 46.65 91.20 49.49 91.33 C 48.83 90.66 48.17 89.99 47.49 89.34 C 54.09 78.57 52.70 63.40 44.50 53.83 C 46.17 52.46 47.20 54.93 48.18 55.94 C 52.54 62.59 53.41 70.99 52.72 78.76 C 52.42 83.07 50.14 86.96 50.01 91.30 C 56.76 86.51 57.19 77.42 56.72 69.92 C 56.46 62.44 52.78 55.06 46.01 51.47 C 43.29 52.32 39.97 52.49 38.16 55.01 M 70.47 59.04 C 71.79 60.09 73.74 60.91 74.03 62.79 C 73.41 66.15 74.62 69.49 76.05 72.48 C 74.70 75.29 73.45 78.15 72.46 81.11 C 71.62 84.78 67.89 86.43 65.89 89.35 C 65.33 88.91 64.77 88.46 64.21 88.02 C 65.30 86.82 66.41 85.64 67.54 84.48 C 66.92 82.49 66.42 80.46 66.17 78.39 C 67.83 79.61 68.69 81.49 69.65 83.24 C 70.60 80.09 72.05 77.11 72.93 73.95 C 73.74 71.09 72.50 68.24 71.78 65.51 C 68.36 67.05 64.98 68.69 61.58 70.27 C 65.11 76.02 62.60 83.05 63.17 89.39 C 63.59 89.96 64.02 90.54 64.44 91.12 C 63.84 97.31 70.14 100.85 74.04 104.58 C 76.58 101.06 78.04 96.93 79.95 93.06 C 83.97 84.91 82.86 75.58 84.82 66.92 C 85.95 63.91 82.06 59.03 86.31 57.74 C 85.58 57.06 84.85 56.38 84.12 55.70 C 80.85 55.58 77.52 54.80 74.28 55.37 C 72.91 56.49 71.69 57.77 70.47 59.04 M 64.63 64.59 C 62.24 66.33 57.68 66.44 57.80 70.24 C 62.99 67.94 68.06 65.40 73.18 62.94 C 70.52 59.85 67.37 63.66 64.63 64.59 M 25.09 74.24 C 25.18 74.88 25.35 76.17 25.44 76.82 C 31.35 75.26 37.48 74.55 43.30 72.63 C 42.81 72.33 41.85 71.72 41.37 71.42 C 35.92 72.21 30.55 73.48 25.09 74.24 M 23.11 75.20 C 21.58 78.23 26.34 75.41 23.11 75.20 Z" />
<path fill="#333333" opacity="1.00" d=" M 96.14 123.19 C 96.38 123.13 96.87 122.99 97.11 122.92 C 97.22 127.98 98.58 132.88 99.02 137.90 C 99.45 143.62 99.73 149.35 99.86 155.09 C 102.09 167.66 103.14 180.39 104.97 193.02 C 105.00 194.53 104.85 196.04 104.53 197.54 C 105.79 198.81 106.61 203.00 103.60 201.67 C 103.09 186.72 100.17 171.91 99.14 156.98 C 97.58 148.05 97.26 138.98 95.96 130.02 C 95.82 127.79 94.80 125.22 96.14 123.19 Z" />
<path fill="#333333" opacity="1.00" d=" M 38.16 124.15 C 40.20 124.65 41.34 126.77 42.93 128.02 C 46.26 130.94 50.32 133.88 54.97 133.64 C 57.62 133.87 59.75 132.05 61.98 130.94 C 62.83 129.05 63.71 127.11 65.32 125.73 C 65.23 127.55 64.68 129.29 64.18 131.03 C 64.96 130.70 65.74 130.37 66.53 130.05 C 68.57 131.50 70.94 132.60 72.52 134.62 C 70.29 134.27 68.13 133.63 65.96 133.06 C 67.16 137.37 69.15 141.52 69.17 146.09 C 69.22 152.36 69.42 158.65 70.27 164.88 C 70.79 167.30 71.51 169.72 71.21 172.24 C 70.02 169.20 69.31 166.00 68.20 162.93 C 66.80 169.52 63.69 176.18 65.83 182.98 C 66.67 189.49 69.60 195.63 69.43 202.27 C 70.51 204.26 72.50 206.57 70.75 208.81 C 69.75 207.02 68.80 205.21 67.82 203.42 C 66.49 209.08 72.32 212.16 73.92 216.99 C 75.08 220.38 78.70 221.77 81.77 222.91 C 84.81 220.81 88.74 219.24 89.27 215.08 C 85.73 209.60 80.49 205.19 78.30 198.88 C 77.52 195.42 77.12 191.83 77.51 188.30 C 78.15 184.40 79.98 180.71 79.74 176.68 C 80.57 176.69 81.41 176.69 82.24 176.69 C 80.82 181.33 80.46 186.20 79.83 191.00 C 79.55 193.83 79.30 196.92 80.58 199.56 C 83.59 204.66 88.18 208.73 90.83 214.05 C 92.36 218.98 87.64 222.31 84.02 224.50 C 80.80 224.87 77.77 223.21 75.04 221.73 C 70.74 219.55 70.75 213.84 67.01 211.03 C 63.59 208.15 65.71 203.50 66.26 199.87 C 67.45 195.91 66.02 191.94 65.21 188.07 C 64.54 183.81 61.31 179.99 62.64 175.49 C 64.45 169.99 65.51 164.29 67.31 158.79 C 67.45 156.48 66.61 154.18 67.07 151.88 C 68.52 145.01 65.29 138.40 64.23 131.71 C 62.60 132.50 60.75 133.33 59.99 135.11 C 58.95 140.70 58.40 146.60 55.52 151.63 C 52.43 155.98 50.91 161.15 48.71 165.95 C 46.63 170.13 47.19 174.93 46.73 179.43 C 46.75 184.72 45.67 189.90 44.85 195.10 C 44.47 198.85 45.36 202.62 44.68 206.36 C 46.98 209.43 49.24 212.56 50.65 216.16 C 52.11 219.98 56.81 222.47 56.33 226.96 C 56.41 228.95 54.84 230.40 53.88 231.98 C 52.58 232.36 51.29 232.77 50.01 233.21 C 46.70 232.84 43.39 232.48 40.08 232.10 C 40.76 231.41 41.44 230.73 42.11 230.04 C 44.59 230.25 47.07 230.38 49.56 230.20 C 49.21 228.78 48.78 227.38 48.26 226.02 C 45.44 224.76 42.23 224.98 39.29 224.08 C 42.26 223.51 45.36 223.24 48.35 223.73 C 50.81 224.82 50.40 227.68 50.28 229.87 C 51.27 229.72 53.25 229.42 54.24 229.27 C 54.35 227.35 54.30 225.44 54.04 223.54 C 51.40 221.93 49.46 219.51 48.41 216.60 C 46.63 211.96 43.34 208.18 41.08 203.81 L 42.94 203.94 C 42.56 199.26 42.05 194.51 43.22 189.90 C 44.37 185.00 43.79 179.97 43.53 175.02 C 43.06 177.37 42.57 179.73 41.88 182.04 C 41.57 184.78 41.54 187.56 40.99 190.27 C 40.62 183.49 39.92 175.90 43.93 169.98 C 46.81 165.65 47.83 160.44 50.52 156.03 C 50.08 153.18 49.32 150.40 48.47 147.65 C 46.12 147.46 43.78 147.76 41.47 148.19 C 44.29 147.41 47.08 146.52 49.86 145.59 C 50.60 147.97 51.36 150.35 52.34 152.65 C 54.51 151.03 55.13 148.31 55.81 145.84 C 56.55 142.47 57.65 139.19 58.08 135.76 C 54.99 135.39 51.65 135.61 48.85 134.01 C 46.54 132.70 44.26 131.33 41.92 130.06 C 40.20 134.61 39.62 139.43 39.17 144.24 C 37.07 154.65 34.75 165.07 31.00 175.04 C 28.52 183.19 32.58 191.08 33.98 199.00 C 34.79 202.14 32.82 205.40 34.36 208.44 C 36.03 211.86 33.51 215.65 35.15 219.06 C 36.09 221.47 36.12 224.08 36.62 226.59 C 37.45 228.37 39.42 229.14 40.95 230.18 C 40.15 230.69 39.35 231.20 38.55 231.71 C 36.63 230.28 34.22 228.78 34.34 226.06 C 34.20 221.28 31.49 216.61 33.36 211.89 C 32.47 209.36 31.42 206.79 31.78 204.04 C 32.31 196.47 28.01 189.56 28.14 182.02 C 27.92 177.33 29.12 172.74 30.80 168.42 C 33.61 161.28 35.99 153.77 35.91 146.03 C 36.01 140.63 36.75 135.27 37.02 129.88 C 37.80 131.07 38.51 132.29 39.12 133.57 C 39.49 131.61 40.08 129.68 40.18 127.68 L 38.81 131.22 C 37.21 129.12 37.37 126.55 38.16 124.15 Z" />
<path fill="#333333" opacity="1.00" d=" M 73.92 134.59 C 75.55 133.51 78.75 133.40 80.88 133.79 C 80.25 136.15 75.88 134.41 73.92 134.59 Z" />
<path fill="#333333" opacity="1.00" d=" M 71.15 150.11 C 70.71 146.56 73.10 143.55 75.02 140.81 C 75.27 143.78 73.30 146.23 72.73 149.04 C 72.80 150.76 73.75 152.24 74.49 153.74 C 78.08 152.56 80.13 149.43 81.72 146.21 C 82.29 146.39 83.42 146.74 83.98 146.91 C 82.39 149.99 79.47 151.84 76.76 153.82 C 76.74 155.24 76.73 156.66 76.71 158.08 C 77.31 159.54 77.86 161.03 78.33 162.54 C 75.89 161.27 75.52 158.46 74.46 156.21 C 73.32 154.21 71.13 152.62 71.15 150.11 Z" />
<path fill="#333333" opacity="1.00" d=" M 102.74 156.88 C 107.32 150.82 115.52 151.37 122.13 149.55 C 127.89 148.63 134.32 146.88 139.65 150.22 C 144.77 153.41 151.14 156.89 151.91 163.56 C 151.36 165.37 151.63 167.72 149.74 168.79 C 144.69 171.90 138.57 171.85 132.97 173.25 C 132.90 184.55 136.59 195.66 135.25 206.99 C 132.72 196.01 131.49 184.77 131.05 173.53 C 128.78 174.14 126.54 174.81 124.29 175.49 C 125.95 184.68 127.36 194.07 126.40 203.42 C 123.74 194.45 123.72 184.92 122.52 175.69 C 116.29 176.22 111.31 171.93 107.24 167.79 C 104.29 164.97 103.37 160.76 102.74 156.88 M 110.13 153.58 C 107.92 154.18 104.10 154.87 104.66 157.98 C 105.14 162.26 108.00 166.09 111.61 168.36 C 113.91 169.75 116.11 171.91 119.00 171.64 C 123.78 171.65 128.30 169.75 133.06 169.50 C 137.92 169.29 142.67 168.18 147.38 167.02 C 148.41 166.70 149.91 166.30 149.85 164.93 C 149.75 161.91 148.41 158.86 145.73 157.29 C 141.15 154.43 136.27 152.03 131.22 150.13 C 124.11 150.72 117.10 152.11 110.13 153.58 Z" />
<path fill="#333333" opacity="1.00" d=" M 40.13 163.22 C 40.67 160.72 41.43 158.19 43.53 156.52 C 44.20 159.51 43.01 162.09 40.13 163.22 Z" />
<path fill="#333333" opacity="1.00" d=" M 37.26 165.91 C 37.61 165.73 38.32 165.36 38.68 165.18 C 38.09 170.64 35.55 175.63 34.75 181.04 C 34.78 184.50 35.20 188.00 34.36 191.41 C 33.66 187.27 32.85 183.07 33.16 178.86 C 33.96 174.38 35.89 170.23 37.26 165.91 Z" />
<path fill="#333333" opacity="1.00" d=" M 72.61 172.36 C 75.55 177.20 73.78 183.36 72.02 188.34 C 70.54 185.73 71.63 182.79 71.98 180.04 C 72.40 177.50 72.38 174.92 72.61 172.36 Z" />
</g>
</svg>
