<?xml version="1.0" encoding="UTF-8" ?>
<!DOCTYPE svg PUBLIC "-//W3C//DTD SVG 1.1//EN" "http://www.w3.org/Graphics/SVG/1.1/DTD/svg11.dtd">
<svg width="263pt" height="275pt" viewBox="0 0 263 275" version="1.1" xmlns="http://www.w3.org/2000/svg">
<g id="#ffffffff">
<path fill="#FFFFFF" opacity="1.00" d=" M 0.00 0.00 L 263.00 0.00 L 263.00 275.00 L 0.00 275.00 L 0.00 0.00 M 156.93 64.04 C 153.80 69.47 153.33 78.71 160.43 81.16 C 159.57 79.00 158.28 77.05 157.53 74.85 C 156.50 71.53 157.99 68.14 159.27 65.12 C 161.88 59.24 167.51 54.30 174.13 54.06 C 176.79 54.77 177.57 57.61 178.43 59.86 C 178.20 60.73 177.75 62.48 177.52 63.35 C 178.19 63.89 179.53 64.98 180.20 65.52 C 180.41 63.06 181.13 60.48 180.33 58.05 C 179.30 54.14 174.99 51.05 170.94 52.12 C 164.70 53.59 159.64 58.33 156.93 64.04 M 166.85 70.88 C 165.48 73.22 167.22 75.66 167.72 77.98 C 167.36 78.11 166.64 78.35 166.29 78.47 C 166.79 78.49 167.79 78.53 168.29 78.56 C 170.30 82.63 166.60 86.22 163.51 88.31 C 160.09 90.18 157.35 92.97 155.05 96.07 C 148.85 93.82 142.15 92.41 136.91 88.13 C 130.69 83.62 123.08 86.74 116.25 87.36 L 116.44 88.69 C 122.98 87.94 131.08 85.50 136.62 90.30 C 138.22 94.06 140.85 97.02 144.31 99.20 C 142.52 100.93 139.82 99.42 137.65 99.54 C 139.50 102.40 142.92 102.05 145.91 101.74 C 147.80 106.27 150.25 110.63 154.03 113.85 C 157.12 116.31 158.89 119.90 160.76 123.27 C 158.03 123.24 154.97 122.83 152.89 125.01 C 147.60 126.76 143.10 130.37 139.45 134.49 C 136.75 137.45 136.22 141.75 133.38 144.59 C 131.34 138.25 126.33 133.76 121.25 129.80 C 118.41 127.65 114.73 127.83 111.45 126.93 C 109.21 126.35 107.21 125.16 105.18 124.10 C 105.59 128.61 110.85 128.72 114.21 129.76 C 118.75 130.56 122.07 133.92 125.95 136.10 C 126.95 137.64 127.91 139.21 128.93 140.75 C 127.19 140.48 125.54 140.89 124.08 141.84 C 125.88 142.34 127.76 142.66 129.48 143.42 C 131.92 144.96 132.92 147.74 133.78 150.33 C 131.37 149.31 129.06 148.04 126.63 147.06 C 128.76 150.46 131.13 153.70 131.73 157.82 C 128.75 156.96 125.59 155.97 123.43 153.60 C 121.68 151.86 121.38 149.14 119.52 147.50 C 117.85 145.85 115.41 145.58 113.28 144.90 C 106.07 143.12 99.16 140.35 92.31 137.55 C 91.88 136.20 91.44 134.84 91.01 133.49 C 91.61 133.46 92.79 133.42 93.38 133.40 C 92.80 130.18 92.79 126.66 90.82 123.90 C 90.35 126.71 90.60 129.56 90.88 132.38 C 88.12 126.62 83.30 120.50 86.45 113.81 C 85.24 110.49 84.31 106.60 86.27 103.37 C 87.76 100.44 91.33 100.09 94.00 98.78 C 94.71 96.39 96.01 94.22 96.95 91.92 C 93.88 91.04 90.37 91.25 87.73 89.25 C 85.25 87.30 84.96 83.87 84.68 80.97 C 84.32 76.90 87.18 73.53 89.86 70.83 C 93.65 70.01 97.59 67.46 101.44 69.41 C 105.44 71.73 109.26 74.36 113.01 77.07 C 112.74 80.75 112.14 84.49 113.01 88.15 C 115.55 83.82 116.14 77.43 112.42 73.58 C 108.26 70.21 102.96 68.81 98.02 67.02 C 93.24 65.91 90.03 70.14 87.04 73.06 C 84.91 74.85 83.82 77.45 82.62 79.88 C 83.56 84.14 84.58 88.65 88.22 91.47 C 88.87 91.53 90.15 91.65 90.80 91.71 C 91.52 92.23 92.96 93.25 93.68 93.77 C 93.18 95.07 93.70 97.42 91.91 97.76 C 87.75 98.56 84.17 101.78 82.98 105.82 C 82.69 108.40 83.60 110.96 83.74 113.53 C 81.12 111.79 78.71 109.76 76.30 107.75 C 76.06 105.16 74.96 102.10 76.80 99.84 C 78.44 97.92 80.81 96.89 82.92 95.59 C 84.55 94.49 87.16 93.75 86.78 91.27 C 83.41 92.90 80.08 94.65 76.88 96.57 C 73.08 99.51 73.34 104.64 74.37 108.85 C 77.44 111.20 80.36 113.74 83.17 116.39 C 83.07 120.44 83.97 124.41 85.62 128.10 C 86.44 128.74 87.26 129.38 88.07 130.03 C 87.63 130.47 86.74 131.33 86.30 131.76 C 89.10 136.20 93.18 140.72 91.46 146.41 C 86.47 149.98 80.70 152.31 75.65 155.79 C 73.73 158.26 75.29 161.78 75.68 164.57 C 77.38 167.10 80.40 168.47 82.79 170.32 C 90.47 165.60 99.26 162.64 106.33 156.99 C 110.18 155.64 116.03 153.54 115.47 148.50 C 116.41 148.48 117.35 148.45 118.29 148.52 C 118.92 149.89 119.31 151.36 119.71 152.81 C 122.15 155.32 124.71 157.92 128.14 159.00 C 130.36 160.03 132.63 158.57 134.89 158.48 C 136.26 158.76 137.54 159.38 138.85 159.88 C 138.61 165.10 140.06 171.40 145.12 173.96 C 143.41 170.14 141.81 166.23 141.26 162.05 C 141.39 159.59 141.12 157.13 141.39 154.67 C 139.82 151.39 138.32 148.09 136.63 144.87 C 137.53 138.93 141.80 134.01 146.37 130.33 C 151.09 127.20 156.22 123.92 162.08 123.85 C 164.70 123.96 167.33 124.39 169.82 125.22 C 170.56 126.99 170.82 128.92 171.50 130.72 C 180.19 132.14 189.03 133.77 196.80 138.20 C 191.62 143.35 190.25 150.75 189.63 157.73 C 184.86 157.60 178.87 158.71 175.67 154.19 C 178.19 149.90 183.62 149.32 186.85 145.83 C 181.07 145.86 174.87 149.65 173.25 155.39 C 171.86 155.76 170.47 156.11 169.08 156.45 C 169.70 155.10 170.57 153.96 171.69 153.02 C 171.27 153.14 170.42 153.39 170.00 153.52 C 172.45 149.56 171.38 144.96 171.09 140.62 C 168.60 142.86 169.35 146.17 169.71 149.08 C 167.19 153.16 164.87 158.43 167.88 162.93 C 163.44 159.17 157.18 161.96 153.49 165.46 C 149.64 169.36 146.56 174.28 145.51 179.71 C 146.15 179.35 147.42 178.63 148.06 178.27 C 151.24 182.49 154.78 186.48 157.09 191.29 C 154.74 194.99 151.83 198.35 150.18 202.46 C 145.75 209.94 148.02 218.96 146.50 227.14 C 146.00 232.76 142.25 237.46 141.62 243.00 C 141.74 247.28 146.50 248.63 149.48 250.59 C 153.76 254.02 157.01 258.84 162.21 261.05 C 167.74 262.99 173.84 260.95 177.96 256.98 C 178.33 255.79 178.72 254.61 179.11 253.42 C 175.75 256.84 171.04 259.49 166.11 258.35 C 162.58 258.14 157.22 256.46 157.28 252.25 C 158.53 248.99 157.23 245.47 156.67 242.18 C 155.83 239.48 156.00 235.96 153.23 234.38 C 153.87 239.96 154.84 245.54 156.79 250.82 C 152.40 250.48 148.54 247.46 144.86 245.16 C 142.68 243.87 144.20 241.27 144.63 239.44 C 146.65 234.11 148.40 228.66 149.38 223.04 C 150.26 218.04 149.12 212.78 150.95 207.96 C 153.03 202.47 155.50 196.83 160.15 193.01 C 158.63 189.61 157.24 186.07 154.83 183.18 C 152.61 180.42 149.99 177.71 149.12 174.18 C 151.14 169.95 154.61 166.28 159.14 164.77 C 164.71 162.50 170.11 168.73 170.10 174.00 C 169.94 178.44 171.92 182.42 173.74 186.33 C 175.06 189.41 173.67 192.62 171.71 195.04 C 167.61 200.38 166.95 207.30 164.02 213.22 C 162.23 217.76 159.01 221.98 159.13 227.07 C 160.00 232.46 162.08 237.59 164.43 242.49 C 167.25 247.84 172.63 251.10 178.23 252.92 C 176.22 248.76 170.69 248.48 168.46 244.48 C 166.57 240.72 165.35 236.61 162.92 233.12 C 160.61 227.96 163.13 222.48 164.69 217.49 C 166.10 215.44 168.38 214.16 170.32 212.66 C 170.31 211.62 170.30 209.54 170.30 208.50 C 169.01 210.50 167.79 212.55 166.31 214.42 C 167.13 211.70 168.06 209.02 168.91 206.31 C 169.48 206.77 170.63 207.69 171.21 208.15 C 170.96 206.88 170.71 205.63 170.44 204.37 C 171.33 202.12 172.05 199.81 172.90 197.54 C 175.18 198.21 175.49 196.39 175.70 194.61 C 176.93 192.05 177.04 189.16 177.24 186.38 C 177.88 186.40 179.16 186.43 179.79 186.45 C 179.47 195.60 177.47 204.84 179.35 213.97 C 179.89 213.82 180.97 213.54 181.51 213.40 C 181.14 210.95 180.74 208.51 180.41 206.05 C 185.00 203.80 189.30 200.97 194.05 199.04 C 196.16 200.12 198.15 201.53 199.69 203.35 C 200.28 205.54 200.31 207.85 200.21 210.11 C 198.25 212.28 195.38 213.28 192.92 214.75 C 183.29 220.13 173.61 225.43 163.96 230.78 C 164.02 231.05 164.12 231.58 164.17 231.85 C 165.71 232.97 167.18 231.11 168.62 230.60 C 179.75 223.99 191.39 218.25 202.42 211.48 C 202.31 207.93 202.00 204.38 201.24 200.91 C 199.06 199.40 196.90 197.85 194.82 196.21 C 189.96 198.52 185.32 201.26 180.54 203.72 C 182.01 197.87 180.44 191.95 180.74 186.05 C 184.34 184.11 188.61 183.48 191.82 180.81 C 195.33 178.03 200.40 176.71 202.05 172.10 C 202.74 169.27 203.40 165.98 201.54 163.43 C 203.99 164.31 206.60 164.61 209.20 164.64 C 206.26 167.61 203.28 170.64 201.89 174.68 C 201.40 181.94 197.74 188.89 191.83 193.18 C 193.57 192.92 195.60 193.32 197.06 192.09 C 200.00 189.70 200.73 185.76 202.51 182.58 C 204.35 179.71 202.85 175.79 205.12 173.13 C 207.40 170.46 209.89 167.96 212.01 165.15 C 214.48 166.18 217.28 168.10 219.53 165.64 C 216.50 165.13 214.02 163.09 211.15 162.33 C 205.01 163.27 199.06 161.09 193.26 159.41 C 193.37 158.71 193.58 157.30 193.69 156.59 L 191.96 156.91 C 192.43 152.75 192.61 148.36 194.63 144.59 C 195.96 142.11 198.42 140.58 200.79 139.23 C 205.46 141.61 210.35 143.54 214.97 146.03 C 218.51 148.42 221.21 151.82 224.49 154.55 C 227.14 156.61 227.52 160.77 225.47 163.38 C 223.62 165.94 222.39 168.94 220.23 171.28 C 217.09 174.58 215.50 179.00 212.42 182.35 C 210.49 184.43 208.75 186.68 207.20 189.06 C 209.92 190.68 211.93 193.10 213.37 195.89 C 215.22 199.36 218.64 201.42 221.95 203.29 C 221.55 205.02 221.34 206.80 220.71 208.47 C 219.21 209.01 217.65 209.33 216.12 209.73 C 213.09 207.73 209.94 205.88 206.47 204.74 C 208.95 208.76 213.83 210.45 217.91 212.44 C 220.01 211.22 223.58 210.95 223.94 208.05 C 224.16 206.12 225.51 203.74 223.89 202.09 C 221.69 199.88 218.25 199.21 216.45 196.53 C 214.39 193.72 212.67 190.28 209.04 189.25 C 214.87 184.18 218.25 177.16 223.28 171.43 C 225.08 167.19 229.50 163.99 229.30 159.04 C 228.92 153.97 223.88 151.60 220.83 148.22 C 216.46 143.54 210.29 141.44 204.63 138.82 C 203.40 135.44 199.73 136.94 197.33 137.87 C 196.83 135.94 195.70 134.07 193.64 133.57 C 186.85 131.45 179.75 130.48 172.77 129.33 C 172.96 126.57 171.49 124.37 169.17 123.05 C 168.64 123.27 167.57 123.71 167.03 123.93 C 165.75 123.66 164.46 123.40 163.18 123.15 C 161.17 116.64 155.10 113.09 151.38 107.75 C 147.63 104.20 146.73 98.75 143.08 95.11 C 141.53 94.54 140.13 93.68 139.38 92.15 C 143.24 93.36 147.15 94.50 150.89 96.03 C 154.04 98.08 157.01 100.41 160.21 102.38 C 159.08 100.43 157.87 98.52 156.54 96.70 C 160.36 92.07 165.73 89.15 169.91 84.90 C 170.35 82.28 171.15 79.73 171.58 77.11 C 170.37 75.40 168.83 73.95 167.74 72.15 C 170.06 69.26 173.81 66.16 177.46 69.00 C 178.10 68.49 179.38 67.47 180.02 66.96 C 178.31 66.37 176.63 65.58 174.82 65.37 C 171.31 65.33 168.61 68.15 166.85 70.88 M 184.31 65.61 C 176.35 68.83 171.24 77.57 171.18 86.00 C 171.01 90.93 174.86 95.70 179.92 95.76 C 190.70 94.32 198.04 82.34 196.26 72.00 C 195.42 66.70 189.27 62.99 184.31 65.61 M 104.45 83.74 C 102.67 85.25 100.24 85.71 98.31 87.02 C 99.90 87.25 101.50 87.31 103.10 87.20 C 108.16 86.31 108.12 80.25 110.09 76.52 C 107.22 78.03 106.24 81.27 104.45 83.74 M 113.11 90.00 C 111.94 90.47 110.77 90.95 109.60 91.44 C 106.22 90.17 102.80 88.51 99.08 88.80 C 99.14 89.21 99.24 90.03 99.30 90.44 C 102.12 91.24 105.00 91.83 107.79 92.77 C 105.20 93.65 103.23 95.61 100.77 96.73 C 99.27 97.35 96.02 95.24 96.11 97.81 C 96.96 98.97 98.54 99.37 99.78 98.51 C 103.53 96.68 107.43 95.12 110.98 92.89 C 113.17 91.46 115.83 91.43 118.35 91.48 C 118.42 90.92 118.55 89.79 118.62 89.22 C 117.04 89.15 114.14 90.88 114.95 87.07 C 114.32 88.04 113.71 89.02 113.11 90.00 M 98.07 93.09 C 96.59 96.13 101.41 93.15 98.07 93.09 M 129.88 95.28 C 129.76 95.79 129.53 96.80 129.41 97.30 C 131.61 96.24 135.01 96.46 135.70 93.55 C 133.68 93.86 131.74 94.45 129.88 95.28 M 165.67 107.95 C 161.85 108.73 157.68 107.35 153.91 108.86 C 154.17 109.07 154.68 109.49 154.93 109.71 C 159.12 110.38 164.17 112.03 167.73 108.78 C 170.66 104.72 172.20 99.68 176.12 96.34 C 175.57 95.70 175.03 95.06 174.50 94.41 C 170.82 98.44 168.78 103.55 165.67 107.95 M 119.46 103.51 C 117.02 105.73 113.80 106.78 111.27 108.89 C 117.07 109.14 121.22 104.87 125.27 101.41 C 125.36 100.83 125.54 99.68 125.62 99.10 C 123.40 100.32 121.36 101.84 119.46 103.51 M 133.35 100.44 C 134.52 103.47 138.04 104.21 140.28 106.25 C 140.58 111.58 143.97 116.05 147.85 119.40 C 148.43 117.04 146.92 114.99 145.48 113.31 C 142.89 110.58 143.65 105.89 140.40 103.62 C 138.18 102.30 135.74 101.39 133.35 100.44 M 101.41 107.54 C 103.97 106.15 106.39 103.90 109.56 104.63 C 109.15 103.58 108.73 102.54 108.31 101.49 C 105.63 102.95 101.57 103.75 101.41 107.54 M 125.60 113.36 C 127.13 114.01 128.69 114.63 130.27 115.19 C 129.79 114.47 128.83 113.03 128.35 112.31 C 128.83 109.20 129.88 106.23 130.80 103.23 C 127.55 105.57 126.47 109.67 125.60 113.36 M 95.10 110.89 C 100.37 114.39 101.45 122.12 99.43 127.69 C 102.49 130.62 106.33 132.60 109.30 135.64 C 112.72 139.57 118.38 139.55 122.85 141.58 C 123.48 141.07 124.10 140.56 124.73 140.05 C 121.31 138.77 117.80 137.73 114.36 136.51 C 110.91 134.39 108.20 131.25 104.66 129.23 C 103.01 128.41 102.35 126.65 101.60 125.11 C 102.97 125.60 104.33 126.11 105.70 126.62 C 105.48 124.93 104.88 123.37 103.48 122.33 C 99.97 119.49 100.94 113.97 102.68 110.36 C 105.62 111.69 108.86 111.46 111.66 109.94 C 108.62 108.44 105.01 108.38 101.80 109.33 L 101.12 109.50 C 101.18 111.38 101.28 113.26 101.13 115.15 C 99.99 113.37 98.84 111.60 97.39 110.07 C 98.18 108.43 98.93 106.79 99.62 105.11 C 97.59 106.59 95.66 108.32 95.10 110.89 M 117.26 112.56 C 116.47 114.63 115.20 116.34 113.01 117.04 C 112.05 115.76 111.09 114.49 110.11 113.23 C 109.87 115.08 108.86 117.52 111.39 118.25 C 111.31 118.97 111.15 120.42 111.07 121.14 C 112.45 121.70 113.85 122.23 115.26 122.73 C 116.63 121.96 118.01 121.21 119.38 120.44 C 119.48 119.82 119.68 118.57 119.78 117.95 C 117.72 119.32 115.58 120.83 112.97 120.68 C 112.90 119.72 112.85 118.76 112.80 117.80 C 114.99 117.08 117.31 116.42 118.95 114.70 C 120.20 113.95 121.45 113.22 122.69 112.47 C 120.88 112.45 119.07 112.49 117.26 112.56 M 129.53 115.22 C 130.29 117.11 131.65 118.75 133.54 119.60 C 134.10 119.09 134.65 118.58 135.19 118.05 C 133.32 117.07 131.45 116.08 129.53 115.22 M 126.41 121.43 C 127.98 122.21 129.58 122.93 131.18 123.65 C 131.53 123.35 132.22 122.73 132.57 122.42 C 133.95 123.64 135.34 124.86 136.73 126.07 C 136.75 126.53 136.79 127.45 136.82 127.91 C 138.45 128.22 140.08 128.56 141.72 128.89 C 140.17 125.79 137.61 123.29 134.94 121.16 C 132.10 121.17 129.25 121.22 126.41 121.43 M 148.74 133.03 C 154.03 131.28 158.83 128.34 164.31 127.11 C 158.49 126.29 153.08 129.50 148.74 133.03 M 155.26 136.01 C 159.10 133.78 163.19 132.01 167.09 129.87 C 162.23 129.35 158.26 132.63 155.26 136.01 M 152.41 144.30 C 156.65 141.74 160.85 139.10 165.57 137.49 C 167.46 136.99 168.05 134.98 168.90 133.45 C 163.19 136.60 155.34 137.71 152.41 144.30 M 143.03 148.48 C 145.24 146.94 146.66 144.47 145.64 141.76 C 144.20 143.73 143.27 146.03 143.03 148.48 M 161.59 147.22 C 161.34 149.01 161.06 150.79 160.81 152.58 C 162.96 152.34 163.55 151.22 162.56 149.23 C 163.99 148.35 165.40 147.45 166.78 146.50 C 166.37 146.26 165.56 145.76 165.16 145.51 C 163.97 146.09 162.78 146.66 161.59 147.22 M 201.88 153.00 C 203.12 155.07 204.10 158.02 206.99 158.01 C 205.97 155.74 204.18 153.97 201.88 153.00 M 210.97 153.09 C 212.17 156.46 214.53 159.39 217.55 161.29 C 219.68 162.28 222.09 161.58 224.33 161.44 C 224.39 160.53 224.45 159.62 224.51 158.71 C 222.67 158.91 220.82 159.18 218.96 159.14 C 215.92 157.66 213.82 154.85 210.97 153.09 M 206.82 180.07 C 206.73 180.39 206.57 181.03 206.48 181.35 C 206.94 181.36 207.84 181.37 208.29 181.38 C 210.16 179.48 211.94 177.44 213.03 174.97 C 210.38 175.85 208.86 178.34 206.82 180.07 M 165.28 189.70 C 168.01 189.07 169.19 186.13 168.19 183.64 C 166.96 185.52 166.05 187.59 165.28 189.70 Z" />
<path fill="#FFFFFF" opacity="1.00" d=" M 185.46 67.73 C 187.28 67.29 189.75 66.07 191.22 67.82 C 192.73 69.48 194.49 71.59 194.17 73.98 C 192.85 80.55 191.06 87.91 184.92 91.65 C 182.68 92.70 180.07 94.54 177.56 93.19 C 173.57 91.51 172.32 86.33 173.83 82.55 C 175.40 76.31 179.06 69.94 185.46 67.73 Z" />
<path fill="#FFFFFF" opacity="1.00" d=" M 93.81 141.06 C 100.54 143.30 106.95 146.66 114.05 147.67 C 113.57 147.93 112.62 148.44 112.14 148.69 C 112.91 149.27 114.44 150.43 115.21 151.01 C 104.34 156.38 93.72 162.27 82.89 167.71 C 80.88 166.78 79.12 165.36 77.55 163.82 C 77.03 161.59 77.23 159.28 77.17 157.01 C 82.61 153.85 88.43 151.25 93.53 147.58 C 93.91 145.43 93.74 143.23 93.81 141.06 Z" />
<path fill="#FFFFFF" opacity="1.00" d=" M 133.95 144.97 C 135.50 147.34 136.61 149.95 137.23 152.72 C 137.97 154.06 138.64 155.42 139.24 156.83 C 136.80 156.70 134.60 155.66 132.47 154.54 C 132.40 154.01 132.25 152.96 132.17 152.43 C 133.64 151.95 135.10 151.47 136.58 151.00 C 135.69 148.99 134.73 147.02 133.95 144.97 Z" />
<path fill="#FFFFFF" opacity="1.00" d=" M 169.34 160.19 C 171.16 159.21 172.96 158.14 174.97 157.59 C 178.21 158.62 181.46 159.76 184.91 159.85 C 186.71 159.75 188.50 159.91 190.27 160.25 C 193.48 160.41 195.97 162.76 198.98 163.64 C 199.59 164.47 200.20 165.29 200.83 166.11 C 200.55 168.99 200.77 172.34 198.45 174.48 C 192.02 180.05 183.49 181.89 175.47 183.96 C 173.59 178.21 173.06 171.81 169.24 166.88 C 169.60 164.66 169.63 162.41 169.34 160.19 Z" />
</g>
<g id="#4c4e4cff">
<path fill="#333333" opacity="1.00" d=" M 156.93 64.04 C 159.64 58.33 164.70 53.59 170.94 52.12 C 174.99 51.05 179.30 54.14 180.33 58.05 C 181.13 60.48 180.41 63.06 180.20 65.52 C 179.53 64.98 178.19 63.89 177.52 63.35 C 177.75 62.48 178.20 60.73 178.43 59.86 C 177.57 57.61 176.79 54.77 174.13 54.06 C 167.51 54.30 161.88 59.24 159.27 65.12 C 157.99 68.14 156.50 71.53 157.53 74.85 C 158.28 77.05 159.57 79.00 160.43 81.16 C 153.33 78.71 153.80 69.47 156.93 64.04 Z" />
<path fill="#333333" opacity="1.00" d=" M 166.85 70.88 C 168.61 68.15 171.31 65.33 174.82 65.37 C 176.63 65.58 178.31 66.37 180.02 66.96 C 179.38 67.47 178.10 68.49 177.46 69.00 C 173.81 66.16 170.06 69.26 167.74 72.15 C 168.83 73.95 170.37 75.40 171.58 77.11 C 171.15 79.73 170.35 82.28 169.91 84.90 C 165.73 89.15 160.36 92.07 156.54 96.70 C 157.87 98.52 159.08 100.43 160.21 102.38 C 157.01 100.41 154.04 98.08 150.89 96.03 C 147.15 94.50 143.24 93.36 139.38 92.15 C 140.13 93.68 141.53 94.54 143.08 95.11 C 146.73 98.75 147.63 104.20 151.38 107.75 C 155.10 113.09 161.17 116.64 163.18 123.15 C 164.46 123.40 165.75 123.66 167.03 123.93 C 167.57 123.71 168.64 123.27 169.17 123.05 C 171.49 124.37 172.96 126.57 172.77 129.33 C 179.75 130.48 186.85 131.45 193.64 133.57 C 195.70 134.07 196.83 135.94 197.33 137.87 C 199.73 136.94 203.40 135.44 204.63 138.82 C 210.29 141.44 216.46 143.54 220.83 148.22 C 223.88 151.60 228.92 153.97 229.30 159.04 C 229.50 163.99 225.08 167.19 223.28 171.43 C 218.25 177.16 214.87 184.18 209.04 189.25 C 212.67 190.28 214.39 193.72 216.45 196.53 C 218.25 199.21 221.69 199.88 223.89 202.09 C 225.51 203.74 224.16 206.12 223.94 208.05 C 223.58 210.95 220.01 211.22 217.91 212.44 C 213.83 210.45 208.95 208.76 206.47 204.74 C 209.94 205.88 213.09 207.73 216.12 209.73 C 217.65 209.33 219.21 209.01 220.71 208.47 C 221.34 206.80 221.55 205.02 221.95 203.29 C 218.64 201.42 215.22 199.36 213.37 195.89 C 211.93 193.10 209.92 190.68 207.20 189.06 C 208.75 186.68 210.49 184.43 212.42 182.35 C 215.50 179.00 217.09 174.58 220.23 171.28 C 222.39 168.94 223.62 165.94 225.47 163.38 C 227.52 160.77 227.14 156.61 224.49 154.55 C 221.21 151.82 218.51 148.42 214.97 146.03 C 210.35 143.54 205.46 141.61 200.79 139.23 C 198.42 140.58 195.96 142.11 194.63 144.59 C 192.61 148.36 192.43 152.75 191.96 156.91 L 193.69 156.59 C 193.58 157.30 193.37 158.71 193.26 159.41 C 199.06 161.09 205.01 163.27 211.15 162.33 C 214.02 163.09 216.50 165.13 219.53 165.64 C 217.28 168.10 214.48 166.18 212.01 165.15 C 209.89 167.96 207.40 170.46 205.12 173.13 C 202.85 175.79 204.35 179.71 202.51 182.58 C 200.73 185.76 200.00 189.70 197.06 192.09 C 195.60 193.32 193.57 192.92 191.83 193.18 C 197.74 188.89 201.40 181.94 201.89 174.68 C 203.28 170.64 206.26 167.61 209.20 164.64 C 206.60 164.61 203.99 164.31 201.54 163.43 C 203.40 165.98 202.74 169.27 202.05 172.10 C 200.40 176.71 195.33 178.03 191.82 180.81 C 188.61 183.48 184.34 184.11 180.74 186.05 C 180.44 191.95 182.01 197.87 180.54 203.72 C 185.32 201.26 189.96 198.52 194.82 196.21 C 196.90 197.85 199.06 199.40 201.24 200.91 C 202.00 204.38 202.31 207.93 202.42 211.48 C 191.39 218.25 179.75 223.99 168.62 230.60 C 167.18 231.11 165.71 232.97 164.17 231.85 C 164.12 231.58 164.02 231.05 163.96 230.78 C 173.61 225.43 183.29 220.13 192.92 214.75 C 195.38 213.28 198.25 212.28 200.21 210.11 C 200.31 207.85 200.28 205.54 199.69 203.35 C 198.15 201.53 196.16 200.12 194.05 199.04 C 189.30 200.97 185.00 203.80 180.41 206.05 C 180.74 208.51 181.14 210.95 181.51 213.40 C 180.97 213.54 179.89 213.82 179.35 213.97 C 177.47 204.84 179.47 195.60 179.79 186.45 C 179.16 186.43 177.88 186.40 177.24 186.38 C 177.04 189.16 176.93 192.05 175.70 194.61 C 175.49 196.39 175.18 198.21 172.90 197.54 C 172.05 199.81 171.33 202.12 170.44 204.37 C 170.71 205.63 170.96 206.88 171.21 208.15 C 170.63 207.69 169.48 206.77 168.91 206.31 C 168.06 209.02 167.13 211.70 166.31 214.42 C 167.79 212.55 169.01 210.50 170.30 208.50 C 170.30 209.54 170.31 211.62 170.32 212.66 C 168.38 214.16 166.10 215.44 164.69 217.49 C 163.13 222.48 160.61 227.96 162.92 233.12 C 165.35 236.61 166.57 240.72 168.46 244.48 C 170.69 248.48 176.22 248.76 178.23 252.92 C 172.63 251.10 167.25 247.84 164.43 242.49 C 162.08 237.59 160.00 232.46 159.13 227.07 C 159.01 221.98 162.23 217.76 164.02 213.22 C 166.95 207.30 167.61 200.38 171.71 195.04 C 173.67 192.62 175.06 189.41 173.74 186.33 C 171.92 182.42 169.94 178.44 170.10 174.00 C 170.11 168.73 164.71 162.50 159.14 164.77 C 154.61 166.28 151.14 169.95 149.12 174.18 C 149.99 177.71 152.61 180.42 154.83 183.18 C 157.24 186.07 158.63 189.61 160.15 193.01 C 155.50 196.83 153.03 202.47 150.95 207.96 C 149.12 212.78 150.26 218.04 149.38 223.04 C 148.40 228.66 146.65 234.11 144.63 239.44 C 144.20 241.27 142.68 243.87 144.86 245.16 C 148.54 247.46 152.40 250.48 156.79 250.82 C 154.84 245.54 153.87 239.96 153.23 234.38 C 156.00 235.96 155.83 239.48 156.67 242.18 C 157.23 245.47 158.53 248.99 157.28 252.25 C 157.22 256.46 162.58 258.14 166.11 258.35 C 171.04 259.49 175.75 256.84 179.11 253.42 C 178.72 254.61 178.33 255.79 177.96 256.98 C 173.84 260.95 167.74 262.99 162.21 261.05 C 157.01 258.84 153.76 254.02 149.48 250.59 C 146.50 248.63 141.74 247.28 141.62 243.00 C 142.25 237.46 146.00 232.76 146.50 227.14 C 148.02 218.96 145.75 209.94 150.18 202.46 C 151.83 198.35 154.74 194.99 157.09 191.29 C 154.78 186.48 151.24 182.49 148.06 178.27 C 147.42 178.63 146.15 179.35 145.51 179.71 C 146.56 174.28 149.64 169.36 153.49 165.46 C 157.18 161.96 163.44 159.17 167.88 162.93 C 164.87 158.43 167.19 153.16 169.71 149.08 C 169.35 146.17 168.60 142.86 171.09 140.62 C 171.38 144.96 172.45 149.56 170.00 153.52 C 170.42 153.39 171.27 153.14 171.69 153.02 C 170.57 153.96 169.70 155.10 169.08 156.45 C 170.47 156.11 171.86 155.76 173.25 155.39 C 174.87 149.65 181.07 145.86 186.85 145.83 C 183.62 149.32 178.19 149.90 175.67 154.19 C 178.87 158.71 184.86 157.60 189.63 157.73 C 190.25 150.75 191.62 143.35 196.80 138.20 C 189.03 133.77 180.19 132.14 171.50 130.72 C 170.82 128.92 170.56 126.99 169.82 125.22 C 167.33 124.39 164.70 123.96 162.08 123.85 C 156.22 123.92 151.09 127.20 146.37 130.33 C 141.80 134.01 137.53 138.93 136.63 144.87 C 138.32 148.09 139.82 151.39 141.39 154.67 C 141.12 157.13 141.39 159.59 141.26 162.05 C 141.81 166.23 143.41 170.14 145.12 173.96 C 140.06 171.40 138.61 165.10 138.85 159.88 C 137.54 159.38 136.26 158.76 134.89 158.48 C 132.63 158.57 130.36 160.03 128.14 159.00 C 124.71 157.92 122.15 155.32 119.71 152.81 C 119.31 151.36 118.92 149.89 118.29 148.52 C 117.35 148.45 116.41 148.48 115.47 148.50 C 116.03 153.54 110.18 155.64 106.33 156.99 C 99.26 162.64 90.47 165.60 82.79 170.32 C 80.40 168.47 77.38 167.10 75.68 164.57 C 75.29 161.78 73.73 158.26 75.65 155.79 C 80.70 152.31 86.47 149.98 91.46 146.41 C 93.18 140.72 89.10 136.20 86.30 131.76 C 86.74 131.33 87.63 130.47 88.07 130.03 C 87.26 129.38 86.44 128.74 85.62 128.10 C 83.97 124.41 83.07 120.44 83.17 116.39 C 80.36 113.74 77.44 111.20 74.37 108.85 C 73.34 104.64 73.08 99.51 76.88 96.57 C 80.08 94.65 83.41 92.90 86.78 91.27 C 87.16 93.75 84.55 94.49 82.92 95.59 C 80.81 96.89 78.44 97.92 76.80 99.84 C 74.96 102.10 76.06 105.16 76.30 107.75 C 78.71 109.76 81.12 111.79 83.74 113.53 C 83.60 110.96 82.69 108.40 82.98 105.82 C 84.17 101.78 87.75 98.56 91.91 97.76 C 93.70 97.42 93.18 95.07 93.68 93.77 C 92.96 93.25 91.52 92.23 90.80 91.71 C 90.15 91.65 88.87 91.53 88.22 91.47 C 84.58 88.65 83.56 84.14 82.62 79.88 C 83.82 77.45 84.91 74.85 87.04 73.06 C 90.03 70.14 93.24 65.91 98.02 67.02 C 102.96 68.81 108.26 70.21 112.42 73.58 C 116.14 77.43 115.55 83.82 113.01 88.15 C 112.14 84.49 112.74 80.75 113.01 77.07 C 109.26 74.36 105.44 71.73 101.44 69.41 C 97.59 67.46 93.65 70.01 89.86 70.83 C 87.18 73.53 84.32 76.90 84.68 80.97 C 84.96 83.87 85.25 87.30 87.73 89.25 C 90.37 91.25 93.88 91.04 96.95 91.92 C 96.01 94.22 94.71 96.39 94.00 98.78 C 91.33 100.09 87.76 100.44 86.27 103.37 C 84.31 106.60 85.24 110.49 86.45 113.81 C 83.30 120.50 88.12 126.62 90.88 132.38 C 90.60 129.56 90.35 126.71 90.82 123.90 C 92.79 126.66 92.80 130.18 93.38 133.40 C 92.79 133.42 91.61 133.46 91.01 133.49 C 91.44 134.84 91.88 136.20 92.31 137.55 C 99.16 140.35 106.07 143.12 113.28 144.90 C 115.41 145.58 117.85 145.85 119.52 147.50 C 121.38 149.14 121.68 151.86 123.43 153.60 C 125.59 155.97 128.75 156.96 131.73 157.82 C 131.13 153.70 128.76 150.46 126.63 147.06 C 129.06 148.04 131.37 149.31 133.78 150.33 C 132.92 147.74 131.92 144.96 129.48 143.42 C 127.76 142.66 125.88 142.34 124.08 141.84 C 125.54 140.89 127.19 140.48 128.93 140.75 C 127.91 139.21 126.95 137.64 125.95 136.10 C 122.07 133.92 118.75 130.56 114.21 129.76 C 110.85 128.72 105.59 128.61 105.18 124.10 C 107.21 125.16 109.21 126.35 111.45 126.93 C 114.73 127.83 118.41 127.65 121.25 129.80 C 126.33 133.76 131.34 138.25 133.38 144.59 C 136.22 141.75 136.75 137.45 139.45 134.49 C 143.10 130.37 147.60 126.76 152.89 125.01 C 154.97 122.83 158.03 123.24 160.76 123.27 C 158.89 119.90 157.12 116.31 154.03 113.85 C 150.25 110.63 147.80 106.27 145.91 101.74 C 142.92 102.05 139.50 102.40 137.65 99.54 C 139.82 99.42 142.52 100.93 144.31 99.20 C 140.85 97.02 138.22 94.06 136.62 90.30 C 131.08 85.50 122.98 87.94 116.44 88.69 L 116.25 87.36 C 123.08 86.74 130.69 83.62 136.91 88.13 C 142.15 92.41 148.85 93.82 155.05 96.07 C 157.35 92.97 160.09 90.18 163.51 88.31 C 166.60 86.22 170.30 82.63 168.29 78.56 C 167.79 78.53 166.79 78.49 166.29 78.47 C 166.64 78.35 167.36 78.11 167.72 77.98 C 167.22 75.66 165.48 73.22 166.85 70.88 M 93.81 141.06 C 93.74 143.23 93.91 145.43 93.53 147.58 C 88.43 151.25 82.61 153.85 77.17 157.01 C 77.23 159.28 77.03 161.59 77.55 163.82 C 79.12 165.36 80.88 166.78 82.89 167.71 C 93.72 162.27 104.34 156.38 115.21 151.01 C 114.44 150.43 112.91 149.27 112.14 148.69 C 112.62 148.44 113.57 147.93 114.05 147.67 C 106.95 146.66 100.54 143.30 93.81 141.06 M 133.95 144.97 C 134.73 147.02 135.69 148.99 136.58 151.00 C 135.10 151.47 133.64 151.95 132.17 152.43 C 132.25 152.96 132.40 154.01 132.47 154.54 C 134.60 155.66 136.80 156.70 139.24 156.83 C 138.64 155.42 137.97 154.06 137.23 152.72 C 136.61 149.95 135.50 147.34 133.95 144.97 M 169.34 160.19 C 169.63 162.41 169.60 164.66 169.24 166.88 C 173.06 171.81 173.59 178.21 175.47 183.96 C 183.49 181.89 192.02 180.05 198.45 174.48 C 200.77 172.34 200.55 168.99 200.83 166.11 C 200.20 165.29 199.59 164.47 198.98 163.64 C 195.97 162.76 193.48 160.41 190.27 160.25 C 188.50 159.91 186.71 159.75 184.91 159.85 C 181.46 159.76 178.21 158.62 174.97 157.59 C 172.96 158.14 171.16 159.21 169.34 160.19 Z" />
<path fill="#333333" opacity="1.00" d=" M 184.31 65.61 C 189.27 62.99 195.42 66.70 196.26 72.00 C 198.04 82.34 190.70 94.32 179.92 95.76 C 174.86 95.70 171.01 90.93 171.18 86.00 C 171.24 77.57 176.35 68.83 184.31 65.61 M 185.46 67.73 C 179.06 69.94 175.40 76.31 173.83 82.55 C 172.32 86.33 173.57 91.51 177.56 93.19 C 180.07 94.54 182.68 92.70 184.92 91.65 C 191.06 87.91 192.85 80.55 194.17 73.98 C 194.49 71.59 192.73 69.48 191.22 67.82 C 189.75 66.07 187.28 67.29 185.46 67.73 Z" />
<path fill="#333333" opacity="1.00" d=" M 104.45 83.74 C 106.24 81.27 107.22 78.03 110.09 76.52 C 108.12 80.25 108.16 86.31 103.10 87.20 C 101.50 87.31 99.90 87.25 98.31 87.02 C 100.24 85.71 102.67 85.25 104.45 83.74 Z" />
<path fill="#333333" opacity="1.00" d=" M 113.11 90.00 C 113.71 89.02 114.32 88.04 114.95 87.07 C 114.14 90.88 117.04 89.15 118.62 89.22 C 118.55 89.79 118.42 90.92 118.35 91.48 C 115.83 91.43 113.17 91.46 110.98 92.89 C 107.43 95.12 103.53 96.68 99.78 98.51 C 98.54 99.37 96.96 98.97 96.11 97.81 C 96.02 95.24 99.27 97.35 100.77 96.73 C 103.23 95.61 105.20 93.65 107.79 92.77 C 105.00 91.83 102.12 91.24 99.30 90.44 C 99.24 90.03 99.14 89.21 99.08 88.80 C 102.80 88.51 106.22 90.17 109.60 91.44 C 110.77 90.95 111.94 90.47 113.11 90.00 Z" />
<path fill="#333333" opacity="1.00" d=" M 98.07 93.09 C 101.41 93.15 96.59 96.13 98.07 93.09 Z" />
<path fill="#333333" opacity="1.00" d=" M 129.88 95.28 C 131.74 94.45 133.68 93.86 135.70 93.55 C 135.01 96.46 131.61 96.24 129.41 97.30 C 129.53 96.80 129.76 95.79 129.88 95.28 Z" />
<path fill="#333333" opacity="1.00" d=" M 165.67 107.95 C 168.78 103.55 170.82 98.44 174.50 94.41 C 175.03 95.06 175.57 95.70 176.12 96.34 C 172.20 99.68 170.66 104.72 167.73 108.78 C 164.17 112.03 159.12 110.38 154.93 109.71 C 154.68 109.49 154.17 109.07 153.91 108.86 C 157.68 107.35 161.85 108.73 165.67 107.95 Z" />
<path fill="#333333" opacity="1.00" d=" M 119.46 103.51 C 121.36 101.84 123.40 100.32 125.62 99.10 C 125.54 99.68 125.36 100.83 125.27 101.41 C 121.22 104.87 117.07 109.14 111.27 108.89 C 113.80 106.78 117.02 105.73 119.46 103.51 Z" />
<path fill="#333333" opacity="1.00" d=" M 133.35 100.44 C 135.74 101.39 138.18 102.30 140.40 103.62 C 143.65 105.89 142.89 110.58 145.48 113.31 C 146.92 114.99 148.43 117.04 147.85 119.40 C 143.97 116.05 140.58 111.58 140.28 106.25 C 138.04 104.21 134.52 103.47 133.35 100.44 Z" />
<path fill="#333333" opacity="1.00" d=" M 101.41 107.54 C 101.57 103.75 105.63 102.95 108.31 101.49 C 108.73 102.54 109.15 103.58 109.56 104.63 C 106.39 103.90 103.97 106.15 101.41 107.54 Z" />
<path fill="#333333" opacity="1.00" d=" M 125.60 113.36 C 126.47 109.67 127.55 105.57 130.80 103.23 C 129.88 106.23 128.83 109.20 128.35 112.31 C 128.83 113.03 129.79 114.47 130.27 115.19 C 128.69 114.63 127.13 114.01 125.60 113.36 Z" />
<path fill="#333333" opacity="1.00" d=" M 95.10 110.89 C 95.66 108.32 97.59 106.59 99.62 105.11 C 98.93 106.79 98.18 108.43 97.39 110.07 C 98.84 111.60 99.99 113.37 101.13 115.15 C 101.28 113.26 101.18 111.38 101.12 109.50 L 101.80 109.33 C 105.01 108.38 108.62 108.44 111.66 109.94 C 108.86 111.46 105.62 111.69 102.68 110.36 C 100.94 113.97 99.97 119.49 103.48 122.33 C 104.88 123.37 105.48 124.93 105.70 126.62 C 104.33 126.11 102.97 125.60 101.60 125.11 C 102.35 126.65 103.01 128.41 104.66 129.23 C 108.20 131.25 110.91 134.39 114.36 136.51 C 117.80 137.73 121.31 138.77 124.73 140.05 C 124.10 140.56 123.48 141.07 122.85 141.58 C 118.38 139.55 112.72 139.57 109.30 135.64 C 106.33 132.60 102.49 130.62 99.43 127.69 C 101.45 122.12 100.37 114.39 95.10 110.89 Z" />
<path fill="#333333" opacity="1.00" d=" M 117.26 112.56 C 119.07 112.49 120.88 112.45 122.69 112.47 C 121.45 113.22 120.20 113.95 118.95 114.70 C 117.31 116.42 114.99 117.08 112.80 117.80 C 112.85 118.76 112.90 119.72 112.97 120.68 C 115.58 120.83 117.72 119.32 119.78 117.95 C 119.68 118.57 119.48 119.82 119.38 120.44 C 118.01 121.21 116.63 121.96 115.26 122.73 C 113.85 122.23 112.45 121.70 111.07 121.14 C 111.15 120.42 111.31 118.97 111.39 118.25 C 108.86 117.52 109.87 115.08 110.11 113.23 C 111.09 114.49 112.05 115.76 113.01 117.04 C 115.20 116.34 116.47 114.63 117.26 112.56 Z" />
<path fill="#333333" opacity="1.00" d=" M 129.53 115.22 C 131.45 116.08 133.32 117.07 135.19 118.05 C 134.65 118.58 134.10 119.09 133.54 119.60 C 131.65 118.75 130.29 117.11 129.53 115.22 Z" />
<path fill="#333333" opacity="1.00" d=" M 126.41 121.43 C 129.25 121.22 132.10 121.17 134.94 121.16 C 137.61 123.29 140.17 125.79 141.72 128.89 C 140.08 128.56 138.45 128.22 136.82 127.91 C 136.79 127.45 136.75 126.53 136.73 126.07 C 135.34 124.86 133.95 123.64 132.57 122.42 C 132.22 122.73 131.53 123.35 131.18 123.65 C 129.58 122.93 127.98 122.21 126.41 121.43 Z" />
<path fill="#333333" opacity="1.00" d=" M 148.74 133.03 C 153.08 129.50 158.49 126.29 164.31 127.11 C 158.83 128.34 154.03 131.28 148.74 133.03 Z" />
<path fill="#333333" opacity="1.00" d=" M 155.26 136.01 C 158.26 132.63 162.23 129.35 167.09 129.87 C 163.19 132.01 159.10 133.78 155.26 136.01 Z" />
<path fill="#333333" opacity="1.00" d=" M 152.41 144.30 C 155.34 137.71 163.19 136.60 168.90 133.45 C 168.05 134.98 167.46 136.99 165.57 137.49 C 160.85 139.10 156.65 141.74 152.41 144.30 Z" />
<path fill="#333333" opacity="1.00" d=" M 143.03 148.48 C 143.27 146.03 144.20 143.73 145.64 141.76 C 146.66 144.47 145.24 146.94 143.03 148.48 Z" />
<path fill="#333333" opacity="1.00" d=" M 161.59 147.22 C 162.78 146.66 163.97 146.09 165.16 145.51 C 165.56 145.76 166.37 146.26 166.78 146.50 C 165.40 147.45 163.99 148.35 162.56 149.23 C 163.55 151.22 162.96 152.34 160.81 152.58 C 161.06 150.79 161.34 149.01 161.59 147.22 Z" />
<path fill="#333333" opacity="1.00" d=" M 201.88 153.00 C 204.18 153.97 205.97 155.74 206.99 158.01 C 204.10 158.02 203.12 155.07 201.88 153.00 Z" />
<path fill="#333333" opacity="1.00" d=" M 210.97 153.09 C 213.82 154.85 215.92 157.66 218.96 159.14 C 220.82 159.18 222.67 158.91 224.51 158.71 C 224.45 159.62 224.39 160.53 224.33 161.44 C 222.09 161.58 219.68 162.28 217.55 161.29 C 214.53 159.39 212.17 156.46 210.97 153.09 Z" />
<path fill="#333333" opacity="1.00" d=" M 206.82 180.07 C 208.86 178.34 210.38 175.85 213.03 174.97 C 211.94 177.44 210.16 179.48 208.29 181.38 C 207.84 181.37 206.94 181.36 206.48 181.35 C 206.57 181.03 206.73 180.39 206.82 180.07 Z" />
<path fill="#333333" opacity="1.00" d=" M 165.28 189.70 C 166.05 187.59 166.96 185.52 168.19 183.64 C 169.19 186.13 168.01 189.07 165.28 189.70 Z" />
</g>
</svg>
