<?xml version="1.0" encoding="UTF-8" ?>
<!DOCTYPE svg PUBLIC "-//W3C//DTD SVG 1.1//EN" "http://www.w3.org/Graphics/SVG/1.1/DTD/svg11.dtd">
<svg width="263pt" height="275pt" viewBox="0 0 263 275" version="1.1" xmlns="http://www.w3.org/2000/svg">
<g id="#ffffffff">
<path fill="#FFFFFF" opacity="1.00" d=" M 0.00 0.00 L 263.00 0.00 L 263.00 275.00 L 0.00 275.00 L 0.00 137.84 C 2.42 134.96 4.86 132.08 7.10 129.06 C 28.46 100.78 50.09 72.70 71.38 44.37 C 74.88 46.06 78.51 48.56 82.59 48.02 C 87.15 46.96 91.30 44.64 95.28 42.24 C 96.01 46.84 97.05 51.39 98.38 55.85 C 100.11 61.71 98.65 67.87 99.54 73.83 C 100.34 76.34 102.16 78.41 102.86 80.98 C 103.77 84.25 104.35 87.61 105.25 90.88 C 106.26 94.02 104.87 97.18 104.19 100.22 C 104.63 100.28 105.52 100.40 105.97 100.46 C 105.58 101.20 105.19 101.94 104.81 102.69 C 105.47 103.89 106.13 105.09 106.79 106.29 C 110.35 106.22 113.91 106.10 117.47 106.09 C 116.64 108.95 116.24 111.92 116.49 114.90 C 117.84 112.11 118.60 109.08 119.77 106.22 C 115.63 103.28 111.05 101.03 106.19 99.59 C 107.20 97.22 106.13 92.38 109.85 92.60 C 115.21 92.71 121.37 92.59 125.30 96.89 C 123.17 99.22 120.68 101.21 118.77 103.76 C 121.46 102.59 123.93 101.00 126.46 99.54 C 129.19 97.14 132.71 96.10 136.12 95.08 C 136.22 93.62 136.33 92.15 136.51 90.70 C 136.59 91.60 136.74 93.40 136.82 94.30 C 139.66 95.87 142.44 97.54 145.04 99.48 C 142.49 100.00 139.88 99.80 137.30 99.91 C 139.58 101.23 142.11 101.99 144.62 102.78 C 144.69 102.06 144.83 100.63 144.90 99.91 C 146.52 102.32 148.46 104.63 149.24 107.49 C 150.11 113.44 155.19 117.56 159.87 120.76 C 158.56 116.57 154.58 114.22 152.46 110.56 C 151.47 107.90 151.10 105.00 149.64 102.52 C 147.71 99.22 144.76 96.70 141.94 94.18 C 137.91 90.61 134.25 85.86 128.46 85.37 C 126.64 78.04 124.20 69.26 129.49 62.76 C 129.29 61.95 128.88 60.34 128.68 59.53 C 127.81 61.01 126.96 62.50 126.12 64.00 C 125.20 61.38 124.05 58.81 123.45 56.09 C 122.80 51.43 123.50 46.74 123.57 42.07 C 123.65 38.96 122.23 36.12 121.27 33.24 C 117.63 31.47 114.17 29.31 110.36 27.88 C 112.39 31.58 116.51 32.89 119.64 35.36 C 122.60 45.54 118.83 57.29 125.05 66.64 C 123.44 71.83 123.79 77.32 125.40 82.46 C 122.63 85.09 120.13 87.98 117.69 90.92 C 114.45 90.70 111.04 91.10 107.92 90.06 C 106.52 88.55 106.34 86.37 105.72 84.49 C 104.64 79.58 102.27 75.07 101.46 70.09 C 106.22 71.49 111.76 73.02 114.17 77.85 C 117.06 81.58 112.53 86.53 114.74 90.06 C 115.00 90.00 115.52 89.87 115.78 89.80 C 117.37 85.75 119.99 80.37 116.38 76.62 C 113.15 72.00 107.86 69.37 102.29 68.98 C 101.67 59.68 99.45 50.55 96.05 41.89 C 98.05 39.82 100.79 37.97 101.28 34.92 C 101.51 32.13 101.82 29.07 100.32 26.55 C 98.53 23.28 95.62 20.86 92.98 18.31 C 91.62 18.70 90.27 19.09 88.92 19.48 C 88.50 19.05 87.67 18.18 87.25 17.75 C 87.45 18.63 87.85 20.39 88.05 21.27 C 87.27 20.91 85.71 20.19 84.93 19.83 C 80.69 21.14 77.28 24.25 74.22 27.34 C 71.00 30.63 70.71 35.43 70.10 39.73 C 70.31 40.24 70.73 41.28 70.94 41.80 C 47.19 72.78 23.66 103.92 0.00 134.96 L 0.00 0.00 M 107.82 12.98 C 111.15 15.41 114.97 12.29 118.60 12.25 C 115.74 13.94 112.30 14.26 109.49 16.09 C 108.98 18.07 108.26 20.01 107.98 22.05 C 108.63 23.79 109.57 25.39 110.39 27.05 C 109.59 23.57 110.90 20.25 112.37 17.15 C 114.27 16.26 116.39 16.01 118.39 15.41 C 122.39 18.70 125.18 23.04 127.92 27.36 C 126.02 27.22 124.12 27.06 122.22 26.93 C 122.40 27.49 122.75 28.60 122.92 29.16 C 127.46 28.74 132.40 31.11 136.56 28.56 C 135.58 25.35 135.00 21.31 131.69 19.62 C 132.11 22.28 133.55 24.66 134.55 27.13 C 133.15 27.55 131.72 27.87 130.28 28.15 C 129.60 20.85 122.47 17.57 118.20 12.56 C 119.49 13.13 120.80 13.66 122.12 14.16 C 122.79 14.22 124.13 14.33 124.79 14.39 L 125.33 14.69 C 126.67 15.41 130.95 17.10 124.78 16.38 C 126.85 17.16 128.62 18.67 130.79 19.18 C 129.99 18.49 128.41 17.13 127.61 16.45 C 130.59 15.58 132.68 19.36 135.37 20.27 C 136.06 21.77 136.91 23.19 137.78 24.59 C 137.45 26.51 137.15 28.43 136.80 30.35 C 132.17 31.07 127.53 30.12 122.89 30.43 C 125.52 31.33 128.15 32.34 130.91 32.79 C 133.82 32.88 136.66 32.07 139.51 31.60 C 139.92 28.99 139.90 26.34 139.54 23.72 C 159.77 32.24 180.20 40.27 200.48 48.67 C 202.68 49.63 204.98 50.38 207.36 50.79 C 206.62 49.38 205.46 48.31 203.93 47.84 C 182.29 39.06 160.67 30.22 139.02 21.44 C 134.55 19.75 131.44 15.90 127.25 13.73 C 121.15 10.99 114.08 10.20 107.82 12.98 M 123.38 15.38 C 123.65 15.65 123.65 15.65 123.38 15.38 M 129.77 34.28 C 131.34 37.90 133.38 41.29 135.10 44.83 C 137.34 50.66 136.76 57.04 136.07 63.10 C 137.50 68.48 140.24 73.50 141.25 79.02 C 141.31 83.02 140.13 86.92 140.06 90.91 C 140.63 91.94 141.29 92.92 142.04 93.84 C 142.04 88.19 143.61 82.60 143.12 76.97 C 141.78 72.23 139.94 67.63 138.64 62.87 C 139.61 52.92 137.52 42.77 132.40 34.16 C 131.74 34.19 130.43 34.25 129.77 34.28 M 84.94 48.86 C 83.70 53.81 83.66 58.98 83.39 64.05 C 83.15 68.23 85.08 72.01 86.07 75.96 C 86.46 79.65 85.16 83.29 85.38 86.98 C 86.00 91.08 88.33 94.76 88.40 98.96 C 88.45 102.65 88.50 106.46 90.02 109.91 C 90.92 112.64 93.59 114.05 95.86 115.49 C 96.97 119.42 99.45 122.93 102.68 125.41 C 108.26 129.42 115.64 129.03 121.35 132.78 C 125.89 135.98 128.46 141.10 132.22 145.06 C 131.92 143.35 132.55 141.23 131.19 139.85 C 128.63 136.76 125.84 133.85 122.98 131.05 C 119.86 128.05 115.43 127.66 111.38 126.99 C 103.55 124.77 99.47 117.33 94.16 111.85 C 91.00 108.57 90.19 103.82 89.94 99.45 C 91.37 101.21 92.93 102.98 95.24 103.52 C 93.91 101.38 92.35 99.40 90.66 97.52 C 90.10 92.84 87.33 88.69 87.17 83.95 C 87.62 80.59 88.88 77.37 89.20 73.99 C 88.56 71.83 87.06 70.07 86.27 67.98 C 85.93 64.64 85.88 61.28 85.66 57.93 C 85.40 54.05 87.53 50.52 87.67 46.66 C 86.99 47.21 85.62 48.31 84.94 48.86 M 134.01 84.80 C 134.81 80.61 133.44 76.45 133.84 72.25 C 133.99 70.82 133.85 69.39 133.36 68.03 C 130.62 73.17 131.16 79.83 134.01 84.80 M 93.95 76.88 C 96.72 80.82 98.37 85.32 99.45 89.98 C 101.58 87.08 99.94 83.35 98.46 80.56 C 96.57 77.80 97.54 74.39 97.12 71.28 C 94.37 70.53 95.04 75.23 93.95 76.88 M 71.01 98.08 C 69.47 101.91 70.94 106.37 74.60 108.38 C 80.38 112.96 86.10 117.61 91.84 122.25 C 91.71 130.30 91.96 138.39 91.42 146.42 C 86.45 150.00 80.68 152.29 75.66 155.79 C 73.66 158.18 75.32 161.80 75.67 164.57 C 77.40 167.10 80.38 168.48 82.79 170.32 C 92.63 164.96 102.63 159.89 112.46 154.51 C 116.63 152.44 120.56 149.84 124.92 148.21 C 128.91 150.99 132.52 154.28 136.57 157.00 C 132.48 149.95 125.55 145.44 118.81 141.24 C 105.65 131.09 92.80 120.55 79.73 110.28 C 76.44 107.32 71.51 104.64 72.19 99.45 C 75.86 95.76 80.77 93.94 85.16 91.33 C 85.09 91.02 84.97 90.39 84.91 90.08 C 84.60 89.95 83.97 89.70 83.65 89.57 C 79.30 92.15 73.75 93.45 71.01 98.08 M 98.81 95.71 C 98.90 100.40 98.73 105.12 99.69 109.75 C 100.29 109.42 100.90 109.10 101.51 108.78 C 100.42 104.31 100.70 99.70 100.37 95.15 C 99.98 95.29 99.20 95.57 98.81 95.71 M 133.26 100.42 C 134.62 104.05 139.81 104.09 140.89 107.89 C 142.09 112.33 144.78 116.16 147.28 119.94 C 147.88 115.54 144.41 112.12 143.44 108.02 C 142.23 103.35 137.20 101.98 133.26 100.42 M 130.30 102.76 C 128.03 105.93 126.30 109.49 125.60 113.35 C 127.13 114.03 128.67 114.69 130.24 115.30 C 129.68 114.34 129.11 113.40 128.52 112.46 C 128.64 111.30 128.74 110.14 128.86 108.98 C 129.65 107.00 130.56 104.94 130.30 102.76 M 105.54 110.27 C 107.48 112.44 109.76 114.25 111.87 116.24 C 114.36 118.56 115.88 121.66 117.93 124.33 C 117.96 121.88 117.74 119.44 117.32 117.03 C 113.30 114.92 109.94 111.64 105.54 110.27 M 129.34 115.32 C 130.35 117.07 131.71 118.68 133.53 119.63 C 134.11 119.10 134.68 118.55 135.23 117.98 C 133.29 117.03 131.35 116.10 129.34 115.32 M 147.22 120.07 C 148.84 121.53 150.45 123.07 151.40 125.09 C 147.32 127.67 143.08 130.21 139.92 133.93 C 137.14 137.05 135.87 141.13 133.84 144.72 C 135.43 147.24 136.99 149.88 137.10 152.95 C 137.51 153.40 138.31 154.31 138.72 154.77 C 137.85 159.77 139.71 164.67 140.86 169.47 C 141.32 171.68 143.39 172.80 145.06 174.04 C 142.90 167.89 139.16 161.24 141.48 154.65 C 139.89 151.12 137.64 147.73 136.63 144.04 C 139.44 134.18 148.51 127.44 157.93 124.44 C 161.83 123.03 165.99 124.23 169.82 125.28 C 170.57 127.01 170.85 128.90 171.46 130.70 C 180.17 132.13 188.97 133.85 196.82 138.14 C 191.65 143.33 190.23 150.72 189.63 157.73 C 184.57 157.93 179.21 157.96 175.03 154.64 C 178.01 150.38 183.29 149.23 186.94 145.81 C 181.10 145.71 175.35 149.83 173.23 155.18 C 175.11 156.46 176.71 158.23 178.86 159.08 C 182.92 159.73 187.03 159.90 191.10 160.48 C 191.46 160.05 192.19 159.21 192.55 158.78 C 192.91 162.04 196.56 162.55 198.97 163.63 C 199.58 164.45 200.19 165.26 200.81 166.07 C 200.63 169.38 200.54 173.32 197.45 175.36 C 191.98 179.07 185.82 182.02 179.20 182.86 C 178.97 183.44 178.50 184.61 178.27 185.19 C 177.01 184.35 175.20 183.88 174.97 182.13 C 173.33 176.95 172.67 171.28 169.24 166.85 C 169.49 164.58 169.46 162.30 169.63 160.04 C 170.72 158.60 172.19 157.52 173.55 156.36 C 172.33 156.40 171.10 156.57 169.88 156.45 C 169.81 155.62 169.69 153.95 169.63 153.11 C 170.08 153.36 171.00 153.84 171.45 154.09 C 170.73 153.22 170.57 152.29 170.98 151.30 C 171.90 148.64 171.52 145.81 171.34 143.06 C 171.57 141.95 170.30 141.57 169.78 140.86 C 168.90 144.61 170.50 148.74 168.15 152.10 C 166.10 155.42 165.95 159.48 167.67 162.96 C 165.83 162.06 163.99 160.67 161.83 161.18 C 156.28 162.04 151.91 166.25 149.15 170.93 C 147.61 173.72 145.37 176.62 146.16 180.01 C 147.02 178.86 147.75 177.63 148.50 176.41 C 150.49 181.78 155.60 185.41 157.00 191.04 C 156.53 192.44 155.67 193.65 154.84 194.85 C 151.36 199.49 149.04 204.95 147.63 210.55 C 146.61 218.32 147.84 226.56 144.60 233.94 C 143.46 237.22 141.30 240.42 141.70 244.03 C 142.77 247.88 147.15 248.81 149.98 250.98 C 153.98 254.41 157.21 258.91 162.19 261.04 C 168.68 263.23 177.38 260.39 179.52 253.36 C 175.87 256.56 171.21 259.56 166.12 258.34 C 162.63 258.14 157.16 256.47 157.36 252.26 C 158.41 248.90 157.29 245.40 156.66 242.07 C 155.88 239.34 155.88 235.98 153.23 234.28 C 153.82 239.90 154.84 245.51 156.79 250.83 C 152.97 250.66 149.78 248.04 146.49 246.32 C 145.42 245.46 143.43 244.68 143.73 243.03 C 144.76 237.86 147.30 233.13 148.33 227.95 C 150.09 222.48 149.58 216.69 150.15 211.06 C 151.56 204.79 154.11 198.67 158.27 193.71 C 158.83 193.68 159.96 193.64 160.53 193.61 C 158.73 190.15 157.19 186.49 154.72 183.43 C 152.61 180.80 150.34 178.19 149.10 175.01 C 150.72 169.42 156.11 164.78 161.99 164.21 C 165.49 164.60 168.00 167.55 169.41 170.56 C 170.63 175.84 172.00 181.13 174.22 186.11 C 175.96 189.48 173.14 192.73 171.44 195.45 C 167.51 200.69 166.92 207.45 164.02 213.20 C 161.95 218.43 157.78 223.67 159.59 229.61 C 161.52 235.98 163.39 242.93 168.47 247.59 C 171.16 250.24 174.80 251.56 178.24 252.96 C 176.25 248.75 170.68 248.49 168.47 244.45 C 166.60 240.68 165.23 236.64 162.88 233.12 C 160.76 227.97 162.92 222.50 164.60 217.55 C 166.07 215.41 168.48 214.12 170.52 212.57 C 170.26 211.09 170.17 209.57 169.68 208.14 C 168.60 210.28 167.64 212.48 166.34 214.49 C 166.92 212.09 167.77 209.77 168.61 207.45 C 168.91 207.31 169.52 207.01 169.82 206.87 C 171.42 202.60 172.21 198.04 174.25 193.91 C 175.12 193.68 175.93 193.34 176.69 192.87 C 176.51 192.49 176.15 191.72 175.96 191.34 C 176.48 189.82 177.00 188.31 177.48 186.78 C 178.05 186.70 179.19 186.53 179.76 186.45 C 179.56 195.60 177.43 204.83 179.33 213.96 C 179.87 213.83 180.97 213.56 181.51 213.42 C 181.15 210.97 180.75 208.52 180.42 206.06 C 185.02 203.83 189.29 200.88 194.09 199.09 C 196.18 200.08 198.05 201.54 199.61 203.24 C 200.18 205.58 200.18 208.00 200.38 210.39 C 188.42 217.52 176.05 223.96 163.92 230.80 C 163.98 231.07 164.10 231.60 164.16 231.86 C 165.71 232.99 167.21 231.07 168.67 230.58 C 179.80 223.97 191.44 218.24 202.46 211.45 C 202.28 207.94 201.92 204.44 201.30 200.98 C 199.10 199.41 196.92 197.83 194.78 196.18 C 189.97 198.56 185.31 201.22 180.57 203.71 C 181.83 197.95 180.93 192.10 180.51 186.30 C 184.33 183.96 188.92 183.20 192.59 180.57 C 195.89 178.37 199.29 176.24 202.07 173.36 C 201.69 181.04 198.15 188.47 192.01 193.17 C 194.05 192.62 196.66 192.93 198.11 191.10 C 200.19 188.57 201.04 185.32 202.57 182.47 C 204.30 179.57 202.92 175.69 205.19 173.06 C 207.45 170.41 209.90 167.93 212.04 165.17 C 214.48 166.23 217.25 167.98 219.57 165.72 C 216.58 165.05 214.04 163.12 211.15 162.34 C 204.99 163.23 199.02 161.09 193.20 159.39 C 193.39 158.66 193.77 157.20 193.96 156.47 C 193.48 156.95 192.52 157.91 192.03 158.39 C 192.02 151.25 193.28 142.38 200.75 139.24 C 205.45 141.58 210.34 143.55 214.96 146.04 C 218.53 148.45 221.25 151.87 224.54 154.62 C 226.63 156.30 227.33 159.36 226.33 161.81 C 223.85 166.33 220.93 170.57 217.68 174.58 C 214.95 179.95 210.49 184.07 207.19 189.05 C 209.88 190.70 211.93 193.10 213.37 195.89 C 215.21 199.37 218.64 201.43 221.96 203.31 C 221.55 205.02 221.31 206.79 220.69 208.44 C 219.20 208.99 217.65 209.32 216.12 209.73 C 213.06 207.71 209.87 205.87 206.41 204.63 C 208.84 208.76 213.81 210.41 217.90 212.45 C 219.99 211.24 223.56 210.94 223.95 208.08 C 224.15 206.13 225.57 203.67 223.85 202.05 C 221.62 199.89 218.26 199.14 216.45 196.51 C 214.38 193.72 212.70 190.31 209.10 189.22 C 214.85 184.17 218.24 177.24 223.19 171.52 C 225.11 167.31 229.46 164.00 229.30 159.04 C 228.92 153.97 223.87 151.59 220.81 148.20 C 216.45 143.53 210.29 141.47 204.66 138.81 C 203.39 135.57 199.88 136.86 197.49 137.79 C 196.25 133.06 190.82 132.79 186.91 131.78 C 182.19 131.09 177.56 129.93 172.84 129.28 C 172.47 127.34 172.45 124.64 170.18 123.88 C 167.41 122.86 164.65 121.78 161.84 120.87 C 158.50 121.59 155.31 122.90 152.31 124.51 C 151.51 123.32 150.69 122.15 149.90 120.96 C 149.01 120.66 148.11 120.36 147.22 120.07 M 126.39 121.05 C 130.03 123.60 134.72 124.85 137.40 128.61 C 138.38 129.67 139.12 131.56 140.91 130.88 C 140.78 128.98 140.47 127.00 139.36 125.40 C 135.89 122.14 131.08 120.83 126.39 121.05 M 145.71 136.33 C 145.29 136.47 144.43 136.76 144.01 136.90 C 143.28 139.10 142.42 141.25 141.48 143.37 C 142.38 142.88 143.29 142.39 144.23 141.94 C 143.93 144.16 143.45 146.36 143.27 148.60 C 144.32 147.22 145.36 145.84 146.42 144.47 C 146.10 142.71 145.77 140.96 145.44 139.21 C 147.68 136.90 149.74 134.40 152.18 132.28 C 155.60 129.37 160.11 128.46 164.31 127.25 C 157.00 126.13 150.20 130.98 145.71 136.33 M 154.21 138.52 C 158.21 135.24 162.18 131.90 167.06 129.97 C 161.48 129.44 156.18 133.45 154.21 138.52 M 152.38 144.29 C 156.46 141.94 160.39 139.29 164.90 137.78 C 167.03 137.31 168.00 135.30 168.97 133.57 C 162.81 135.79 155.50 137.95 152.38 144.29 M 161.57 147.34 C 160.90 148.88 160.53 150.52 160.13 152.14 C 160.88 152.13 162.40 152.09 163.16 152.08 C 163.02 151.38 162.73 149.99 162.59 149.29 C 164.26 148.26 165.86 147.10 167.20 145.65 C 165.27 145.92 163.17 146.12 161.57 147.34 M 201.87 152.91 C 203.08 155.07 204.13 158.00 207.09 158.04 C 205.97 155.77 204.15 154.00 201.87 152.91 M 210.89 153.07 C 212.23 156.40 214.47 159.44 217.58 161.30 C 219.69 162.28 222.09 161.59 224.32 161.48 C 224.38 160.56 224.45 159.64 224.52 158.73 C 222.66 158.91 220.79 159.15 218.92 159.10 C 215.89 157.60 213.76 154.82 210.89 153.07 M 206.81 180.10 C 206.73 180.41 206.58 181.04 206.50 181.35 C 206.95 181.36 207.86 181.38 208.32 181.39 C 210.08 179.53 211.85 177.61 212.96 175.28 C 210.15 175.46 208.90 178.60 206.81 180.10 M 165.18 189.58 C 168.29 189.27 168.56 186.01 168.73 183.57 C 167.17 185.33 166.02 187.39 165.18 189.58 Z" />
<path fill="#FFFFFF" opacity="1.00" d=" M 85.16 23.41 C 87.39 22.51 89.62 21.62 91.84 20.69 C 94.45 23.44 97.07 26.18 99.82 28.78 C 99.78 29.49 99.70 30.90 99.66 31.61 C 94.94 32.86 91.16 36.00 87.60 39.18 C 85.79 34.12 84.54 28.81 85.16 23.41 Z" />
<path fill="#FFFFFF" opacity="1.00" d=" M 74.92 29.96 C 76.90 27.24 79.70 25.29 82.22 23.11 C 82.17 29.51 84.60 35.54 85.30 41.85 C 82.97 41.67 80.20 42.29 78.25 40.75 C 77.13 38.56 76.88 36.05 76.00 33.76 C 77.97 31.22 80.66 29.00 81.00 25.57 C 78.17 27.66 75.01 30.32 74.62 34.07 C 74.67 36.62 74.84 39.26 76.15 41.52 C 76.77 41.77 78.00 42.26 78.62 42.51 C 83.95 46.38 88.98 40.76 92.90 37.61 C 93.19 37.15 93.77 36.22 94.06 35.76 C 95.18 35.61 97.40 35.31 98.52 35.16 C 96.44 37.24 94.23 39.19 92.34 41.44 C 88.42 43.59 84.23 45.18 79.91 46.29 C 77.56 45.43 75.19 44.66 72.81 43.89 C 72.69 42.30 72.53 40.70 72.25 39.13 C 73.12 36.07 73.29 32.75 74.92 29.96 Z" />
<path fill="#FFFFFF" opacity="1.00" d=" M 120.62 91.10 C 122.25 88.85 123.94 86.62 125.98 84.73 C 126.40 85.29 127.22 86.41 127.64 86.97 C 130.87 87.88 134.95 88.92 135.10 93.04 C 132.47 94.09 129.93 95.32 127.42 96.64 C 126.80 95.81 126.18 94.99 125.55 94.17 C 125.88 92.80 126.28 91.44 126.72 90.11 C 125.49 90.97 124.29 91.85 123.09 92.74 C 122.27 92.19 121.44 91.65 120.62 91.10 Z" />
<path fill="#FFFFFF" opacity="1.00" d=" M 94.22 124.03 C 98.56 128.67 103.77 132.35 108.77 136.22 C 106.59 137.37 104.38 138.61 102.81 140.56 C 105.85 140.43 108.49 138.85 111.15 137.55 C 114.95 140.60 118.76 143.66 122.39 146.92 C 109.25 153.86 96.16 160.93 82.92 167.68 C 80.89 166.77 79.10 165.36 77.54 163.80 C 77.06 161.58 77.22 159.28 77.16 157.03 C 82.60 153.88 88.40 151.25 93.52 147.61 C 93.79 139.76 94.14 131.89 94.22 124.03 Z" />
<path fill="#FFFFFF" opacity="1.00" d=" M 202.57 164.04 C 204.76 164.30 206.95 164.52 209.15 164.68 C 206.70 167.30 204.18 169.88 202.16 172.86 C 202.51 169.94 202.77 166.99 202.57 164.04 Z" />
</g>
<g id="#4e514eff">
<path fill="#333333" opacity="1.00" d=" M 107.82 12.98 C 114.08 10.20 121.15 10.99 127.25 13.73 C 131.44 15.90 134.55 19.75 139.02 21.44 C 160.67 30.22 182.29 39.06 203.93 47.84 C 205.46 48.31 206.62 49.38 207.36 50.79 C 204.98 50.38 202.68 49.63 200.48 48.67 C 180.20 40.27 159.77 32.24 139.54 23.72 C 139.90 26.34 139.92 28.99 139.51 31.60 C 136.66 32.07 133.82 32.88 130.91 32.79 C 128.15 32.34 125.52 31.33 122.89 30.43 C 127.53 30.12 132.17 31.07 136.80 30.35 C 137.15 28.43 137.45 26.51 137.78 24.59 C 136.91 23.19 136.06 21.77 135.37 20.27 C 132.68 19.36 130.59 15.58 127.61 16.45 C 128.41 17.13 129.99 18.49 130.79 19.18 C 128.62 18.67 126.85 17.16 124.78 16.38 C 130.95 17.10 126.67 15.41 125.33 14.69 L 124.79 14.39 C 124.13 14.33 122.79 14.22 122.12 14.16 C 120.80 13.66 119.49 13.13 118.20 12.56 C 122.47 17.57 129.60 20.85 130.28 28.15 C 131.72 27.87 133.15 27.55 134.55 27.13 C 133.55 24.66 132.11 22.28 131.69 19.62 C 135.00 21.31 135.58 25.35 136.56 28.56 C 132.40 31.11 127.46 28.74 122.92 29.16 C 122.75 28.60 122.40 27.49 122.22 26.93 C 124.12 27.06 126.02 27.22 127.92 27.36 C 125.18 23.04 122.39 18.70 118.39 15.41 C 116.39 16.01 114.27 16.26 112.37 17.15 C 110.90 20.25 109.59 23.57 110.39 27.05 C 109.57 25.39 108.63 23.79 107.98 22.05 C 108.26 20.01 108.98 18.07 109.49 16.09 C 112.30 14.26 115.74 13.94 118.60 12.25 C 114.97 12.29 111.15 15.41 107.82 12.98 Z" />
<path fill="#333333" opacity="1.00" d=" M 123.38 15.38 C 123.65 15.65 123.65 15.65 123.38 15.38 Z" />
<path fill="#333333" opacity="1.00" d=" M 87.25 17.75 C 87.67 18.18 88.50 19.05 88.92 19.48 C 90.27 19.09 91.62 18.70 92.98 18.31 C 95.62 20.86 98.53 23.28 100.32 26.55 C 101.82 29.07 101.51 32.13 101.28 34.92 C 100.79 37.97 98.05 39.82 96.05 41.89 C 99.45 50.55 101.67 59.68 102.29 68.98 C 107.86 69.37 113.15 72.00 116.38 76.62 C 119.99 80.37 117.37 85.75 115.78 89.80 C 115.52 89.87 115.00 90.00 114.74 90.06 C 112.53 86.53 117.06 81.58 114.17 77.85 C 111.76 73.02 106.22 71.49 101.46 70.09 C 102.27 75.07 104.64 79.58 105.72 84.49 C 106.34 86.37 106.52 88.55 107.92 90.06 C 111.04 91.10 114.45 90.70 117.69 90.92 C 120.13 87.98 122.63 85.09 125.40 82.46 C 123.79 77.32 123.44 71.83 125.05 66.64 C 118.83 57.29 122.60 45.54 119.64 35.36 C 116.51 32.89 112.39 31.58 110.36 27.88 C 114.17 29.31 117.63 31.47 121.27 33.24 C 122.23 36.12 123.65 38.96 123.57 42.07 C 123.50 46.74 122.80 51.43 123.45 56.09 C 124.05 58.81 125.20 61.38 126.12 64.00 C 126.96 62.50 127.81 61.01 128.68 59.53 C 128.88 60.34 129.29 61.95 129.49 62.76 C 124.20 69.26 126.64 78.04 128.46 85.37 C 134.25 85.86 137.91 90.61 141.94 94.18 C 144.76 96.70 147.71 99.22 149.64 102.52 C 151.10 105.00 151.47 107.90 152.46 110.56 C 154.58 114.22 158.56 116.57 159.87 120.76 C 155.19 117.56 150.11 113.44 149.24 107.49 C 148.46 104.63 146.52 102.32 144.90 99.91 C 144.83 100.63 144.69 102.06 144.62 102.78 C 142.11 101.99 139.58 101.23 137.30 99.91 C 139.88 99.80 142.49 100.00 145.04 99.48 C 142.44 97.54 139.66 95.87 136.82 94.30 C 136.74 93.40 136.59 91.60 136.51 90.70 C 136.33 92.15 136.22 93.62 136.12 95.08 C 132.71 96.10 129.19 97.14 126.46 99.54 C 123.93 101.00 121.46 102.59 118.77 103.76 C 120.68 101.21 123.17 99.22 125.30 96.89 C 121.37 92.59 115.21 92.71 109.85 92.60 C 106.13 92.38 107.20 97.22 106.19 99.59 C 111.05 101.03 115.63 103.28 119.77 106.22 C 118.60 109.08 117.84 112.11 116.49 114.90 C 116.24 111.92 116.64 108.95 117.47 106.09 C 113.91 106.10 110.35 106.22 106.79 106.29 C 106.13 105.09 105.47 103.89 104.81 102.69 C 105.19 101.94 105.58 101.20 105.97 100.46 C 105.52 100.40 104.63 100.28 104.19 100.22 C 104.87 97.18 106.26 94.02 105.25 90.88 C 104.35 87.61 103.77 84.25 102.86 80.98 C 102.16 78.41 100.34 76.34 99.54 73.83 C 98.65 67.87 100.11 61.71 98.38 55.85 C 97.05 51.39 96.01 46.84 95.28 42.24 C 91.30 44.64 87.15 46.96 82.59 48.02 C 78.51 48.56 74.88 46.06 71.38 44.37 C 50.09 72.70 28.46 100.78 7.10 129.06 C 4.86 132.08 2.42 134.96 0.00 137.84 L 0.00 134.96 C 23.66 103.92 47.19 72.78 70.94 41.80 C 70.73 41.28 70.31 40.24 70.10 39.73 C 70.71 35.43 71.00 30.63 74.22 27.34 C 77.28 24.25 80.69 21.14 84.93 19.83 C 85.71 20.19 87.27 20.91 88.05 21.27 C 87.85 20.39 87.45 18.63 87.25 17.75 M 85.16 23.41 C 84.54 28.81 85.79 34.12 87.60 39.18 C 91.16 36.00 94.94 32.86 99.66 31.61 C 99.70 30.90 99.78 29.49 99.82 28.78 C 97.07 26.18 94.45 23.44 91.84 20.69 C 89.62 21.62 87.39 22.51 85.16 23.41 M 74.92 29.96 C 73.29 32.75 73.12 36.07 72.25 39.13 C 72.53 40.70 72.69 42.30 72.81 43.89 C 75.19 44.66 77.56 45.43 79.91 46.29 C 84.23 45.18 88.42 43.59 92.34 41.44 C 94.23 39.19 96.44 37.24 98.52 35.16 C 97.40 35.31 95.18 35.61 94.06 35.76 C 93.77 36.22 93.19 37.15 92.90 37.61 C 88.98 40.76 83.95 46.38 78.62 42.51 C 78.00 42.26 76.77 41.77 76.15 41.52 C 74.84 39.26 74.67 36.62 74.62 34.07 C 75.01 30.32 78.17 27.66 81.00 25.57 C 80.66 29.00 77.97 31.22 76.00 33.76 C 76.88 36.05 77.13 38.56 78.25 40.75 C 80.20 42.29 82.97 41.67 85.30 41.85 C 84.60 35.54 82.17 29.51 82.22 23.11 C 79.70 25.29 76.90 27.24 74.92 29.96 M 120.62 91.10 C 121.44 91.65 122.27 92.19 123.09 92.74 C 124.29 91.85 125.49 90.97 126.72 90.11 C 126.28 91.44 125.88 92.80 125.55 94.17 C 126.18 94.99 126.80 95.81 127.42 96.64 C 129.93 95.32 132.47 94.09 135.10 93.04 C 134.95 88.92 130.87 87.88 127.64 86.97 C 127.22 86.41 126.40 85.29 125.98 84.73 C 123.94 86.62 122.25 88.85 120.62 91.10 Z" />
<path fill="#333333" opacity="1.00" d=" M 129.77 34.28 C 130.43 34.25 131.74 34.19 132.40 34.16 C 137.52 42.77 139.61 52.92 138.64 62.87 C 139.94 67.63 141.78 72.23 143.12 76.97 C 143.61 82.60 142.04 88.19 142.04 93.84 C 141.29 92.92 140.63 91.94 140.06 90.91 C 140.13 86.92 141.31 83.02 141.25 79.02 C 140.24 73.50 137.50 68.48 136.07 63.10 C 136.76 57.04 137.34 50.66 135.10 44.83 C 133.38 41.29 131.34 37.90 129.77 34.28 Z" />
<path fill="#333333" opacity="1.00" d=" M 84.94 48.86 C 85.62 48.31 86.99 47.21 87.67 46.66 C 87.53 50.52 85.40 54.05 85.66 57.93 C 85.88 61.28 85.93 64.64 86.27 67.98 C 87.06 70.07 88.56 71.83 89.20 73.99 C 88.88 77.37 87.62 80.59 87.17 83.95 C 87.33 88.69 90.10 92.84 90.66 97.52 C 92.35 99.40 93.91 101.38 95.24 103.52 C 92.93 102.98 91.37 101.21 89.94 99.45 C 90.19 103.82 91.00 108.57 94.16 111.85 C 99.47 117.33 103.55 124.77 111.38 126.99 C 115.43 127.66 119.86 128.05 122.98 131.05 C 125.84 133.85 128.63 136.76 131.19 139.85 C 132.55 141.23 131.92 143.35 132.22 145.06 C 128.46 141.10 125.89 135.98 121.35 132.78 C 115.64 129.03 108.26 129.42 102.68 125.41 C 99.45 122.93 96.97 119.42 95.86 115.49 C 93.59 114.05 90.92 112.64 90.02 109.91 C 88.50 106.46 88.45 102.65 88.40 98.96 C 88.33 94.76 86.00 91.08 85.38 86.98 C 85.16 83.29 86.46 79.65 86.07 75.96 C 85.08 72.01 83.15 68.23 83.39 64.05 C 83.66 58.98 83.70 53.81 84.94 48.86 Z" />
<path fill="#333333" opacity="1.00" d=" M 134.01 84.80 C 131.16 79.83 130.62 73.17 133.36 68.03 C 133.85 69.39 133.99 70.82 133.84 72.25 C 133.44 76.45 134.81 80.61 134.01 84.80 Z" />
<path fill="#333333" opacity="1.00" d=" M 93.95 76.88 C 95.04 75.23 94.37 70.53 97.12 71.28 C 97.54 74.39 96.57 77.80 98.46 80.56 C 99.94 83.35 101.58 87.08 99.45 89.98 C 98.37 85.32 96.72 80.82 93.95 76.88 Z" />
<path fill="#333333" opacity="1.00" d=" M 71.01 98.08 C 73.75 93.45 79.30 92.15 83.65 89.57 C 83.97 89.70 84.60 89.95 84.91 90.08 C 84.97 90.39 85.09 91.02 85.16 91.33 C 80.77 93.94 75.86 95.76 72.19 99.45 C 71.51 104.64 76.44 107.32 79.73 110.28 C 92.80 120.55 105.65 131.09 118.81 141.24 C 125.55 145.44 132.48 149.95 136.57 157.00 C 132.52 154.28 128.91 150.99 124.92 148.21 C 120.56 149.84 116.63 152.44 112.46 154.51 C 102.63 159.89 92.63 164.96 82.79 170.32 C 80.38 168.48 77.40 167.10 75.67 164.57 C 75.32 161.80 73.66 158.18 75.66 155.79 C 80.68 152.29 86.45 150.00 91.42 146.42 C 91.96 138.39 91.71 130.30 91.84 122.25 C 86.10 117.61 80.38 112.96 74.60 108.38 C 70.94 106.37 69.47 101.91 71.01 98.08 M 94.22 124.03 C 94.14 131.89 93.79 139.76 93.52 147.61 C 88.40 151.25 82.60 153.88 77.16 157.03 C 77.22 159.28 77.06 161.58 77.54 163.80 C 79.10 165.36 80.89 166.77 82.92 167.68 C 96.16 160.93 109.25 153.86 122.39 146.92 C 118.76 143.66 114.95 140.60 111.15 137.55 C 108.49 138.85 105.85 140.43 102.81 140.56 C 104.38 138.61 106.59 137.37 108.77 136.22 C 103.77 132.35 98.56 128.67 94.22 124.03 Z" />
<path fill="#333333" opacity="1.00" d=" M 98.81 95.71 C 99.20 95.57 99.98 95.29 100.37 95.15 C 100.70 99.70 100.42 104.31 101.51 108.78 C 100.90 109.10 100.29 109.42 99.69 109.75 C 98.73 105.12 98.90 100.40 98.81 95.71 Z" />
<path fill="#333333" opacity="1.00" d=" M 133.26 100.42 C 137.20 101.98 142.23 103.35 143.44 108.02 C 144.41 112.12 147.88 115.54 147.28 119.94 C 144.78 116.16 142.09 112.33 140.89 107.89 C 139.81 104.09 134.62 104.05 133.26 100.42 Z" />
<path fill="#333333" opacity="1.00" d=" M 130.30 102.76 C 130.56 104.94 129.65 107.00 128.86 108.98 C 128.74 110.14 128.64 111.30 128.52 112.46 C 129.11 113.40 129.68 114.34 130.24 115.30 C 128.67 114.69 127.13 114.03 125.60 113.35 C 126.30 109.49 128.03 105.93 130.30 102.76 Z" />
<path fill="#333333" opacity="1.00" d=" M 105.54 110.27 C 109.94 111.64 113.30 114.92 117.32 117.03 C 117.74 119.44 117.96 121.88 117.93 124.33 C 115.88 121.66 114.36 118.56 111.87 116.24 C 109.76 114.25 107.48 112.44 105.54 110.27 Z" />
<path fill="#333333" opacity="1.00" d=" M 129.34 115.32 C 131.35 116.10 133.29 117.03 135.23 117.98 C 134.68 118.55 134.11 119.10 133.53 119.63 C 131.71 118.68 130.35 117.07 129.34 115.32 Z" />
<path fill="#333333" opacity="1.00" d=" M 147.22 120.07 C 148.11 120.36 149.01 120.66 149.90 120.96 C 150.69 122.15 151.51 123.32 152.31 124.51 C 155.31 122.90 158.50 121.59 161.84 120.87 C 164.65 121.78 167.41 122.86 170.18 123.88 C 172.45 124.64 172.47 127.34 172.84 129.28 C 177.56 129.93 182.19 131.09 186.91 131.78 C 190.82 132.79 196.25 133.06 197.49 137.79 C 199.88 136.86 203.39 135.57 204.66 138.81 C 210.29 141.47 216.45 143.53 220.81 148.20 C 223.87 151.59 228.92 153.97 229.30 159.04 C 229.46 164.00 225.11 167.31 223.19 171.52 C 218.24 177.24 214.85 184.17 209.10 189.22 C 212.70 190.31 214.38 193.72 216.45 196.51 C 218.26 199.14 221.62 199.89 223.85 202.05 C 225.57 203.67 224.15 206.13 223.95 208.08 C 223.56 210.94 219.99 211.24 217.90 212.45 C 213.81 210.41 208.84 208.76 206.41 204.63 C 209.87 205.87 213.06 207.71 216.12 209.73 C 217.65 209.32 219.20 208.99 220.69 208.44 C 221.31 206.79 221.55 205.02 221.96 203.31 C 218.64 201.43 215.21 199.37 213.37 195.89 C 211.93 193.10 209.88 190.70 207.19 189.05 C 210.49 184.07 214.95 179.95 217.68 174.58 C 220.93 170.57 223.85 166.33 226.33 161.81 C 227.33 159.36 226.63 156.30 224.54 154.62 C 221.25 151.87 218.53 148.45 214.96 146.04 C 210.34 143.55 205.45 141.58 200.75 139.24 C 193.28 142.38 192.02 151.25 192.03 158.39 C 192.52 157.91 193.48 156.95 193.96 156.47 C 193.77 157.20 193.39 158.66 193.20 159.39 C 199.02 161.09 204.99 163.23 211.15 162.34 C 214.04 163.12 216.58 165.05 219.57 165.72 C 217.25 167.98 214.48 166.23 212.04 165.17 C 209.90 167.93 207.45 170.41 205.19 173.06 C 202.92 175.69 204.30 179.57 202.57 182.47 C 201.04 185.32 200.19 188.57 198.11 191.10 C 196.66 192.93 194.05 192.62 192.01 193.17 C 198.15 188.47 201.69 181.04 202.07 173.36 C 199.29 176.24 195.89 178.37 192.59 180.57 C 188.92 183.20 184.33 183.96 180.51 186.30 C 180.93 192.10 181.83 197.95 180.57 203.71 C 185.31 201.22 189.97 198.56 194.78 196.18 C 196.92 197.83 199.10 199.41 201.30 200.98 C 201.92 204.44 202.28 207.94 202.46 211.45 C 191.44 218.24 179.80 223.97 168.67 230.58 C 167.21 231.07 165.71 232.99 164.16 231.86 C 164.10 231.60 163.98 231.07 163.92 230.80 C 176.05 223.96 188.42 217.52 200.38 210.39 C 200.18 208.00 200.18 205.58 199.61 203.24 C 198.05 201.54 196.18 200.08 194.09 199.09 C 189.29 200.88 185.02 203.83 180.42 206.06 C 180.75 208.52 181.15 210.97 181.51 213.42 C 180.97 213.56 179.87 213.83 179.33 213.96 C 177.43 204.83 179.56 195.60 179.76 186.45 C 179.19 186.53 178.05 186.70 177.48 186.78 C 177.00 188.31 176.48 189.82 175.96 191.34 C 176.15 191.72 176.51 192.49 176.69 192.87 C 175.93 193.34 175.12 193.68 174.25 193.91 C 172.21 198.04 171.42 202.60 169.82 206.87 C 169.52 207.01 168.91 207.31 168.61 207.45 C 167.77 209.77 166.92 212.09 166.34 214.49 C 167.64 212.48 168.60 210.28 169.68 208.14 C 170.17 209.57 170.26 211.09 170.52 212.57 C 168.48 214.12 166.07 215.41 164.60 217.55 C 162.92 222.50 160.76 227.97 162.88 233.12 C 165.23 236.64 166.60 240.68 168.47 244.45 C 170.68 248.49 176.25 248.75 178.24 252.96 C 174.80 251.56 171.16 250.24 168.47 247.59 C 163.39 242.93 161.52 235.98 159.59 229.61 C 157.78 223.67 161.95 218.43 164.02 213.20 C 166.92 207.45 167.51 200.69 171.44 195.45 C 173.14 192.73 175.96 189.48 174.22 186.11 C 172.00 181.13 170.63 175.84 169.41 170.56 C 168.00 167.55 165.49 164.60 161.99 164.21 C 156.11 164.78 150.72 169.42 149.10 175.01 C 150.34 178.19 152.61 180.80 154.72 183.43 C 157.19 186.49 158.73 190.15 160.53 193.61 C 159.96 193.64 158.83 193.68 158.27 193.71 C 154.11 198.67 151.56 204.79 150.15 211.06 C 149.58 216.69 150.09 222.48 148.33 227.95 C 147.30 233.13 144.76 237.86 143.73 243.03 C 143.43 244.68 145.42 245.46 146.49 246.32 C 149.78 248.04 152.97 250.66 156.79 250.83 C 154.84 245.51 153.82 239.90 153.23 234.28 C 155.88 235.98 155.88 239.34 156.66 242.07 C 157.29 245.40 158.41 248.90 157.36 252.26 C 157.16 256.47 162.63 258.14 166.12 258.34 C 171.21 259.56 175.87 256.56 179.52 253.36 C 177.38 260.39 168.68 263.23 162.19 261.04 C 157.21 258.91 153.98 254.41 149.98 250.98 C 147.15 248.81 142.77 247.88 141.70 244.03 C 141.30 240.42 143.46 237.22 144.60 233.94 C 147.84 226.56 146.61 218.32 147.63 210.55 C 149.04 204.95 151.36 199.49 154.84 194.85 C 155.67 193.65 156.53 192.44 157.00 191.04 C 155.60 185.41 150.49 181.78 148.50 176.41 C 147.75 177.63 147.02 178.86 146.16 180.01 C 145.37 176.62 147.61 173.72 149.15 170.93 C 151.91 166.25 156.28 162.04 161.83 161.18 C 163.99 160.67 165.83 162.06 167.67 162.96 C 165.95 159.48 166.10 155.42 168.15 152.10 C 170.50 148.74 168.90 144.61 169.78 140.86 C 170.30 141.57 171.57 141.95 171.34 143.06 C 171.52 145.81 171.90 148.64 170.98 151.30 C 170.57 152.29 170.73 153.22 171.45 154.09 C 171.00 153.84 170.08 153.36 169.63 153.11 C 169.69 153.95 169.81 155.62 169.88 156.45 C 171.10 156.57 172.33 156.40 173.55 156.36 C 172.19 157.52 170.72 158.60 169.63 160.04 C 169.46 162.30 169.49 164.58 169.24 166.85 C 172.67 171.28 173.33 176.95 174.97 182.13 C 175.20 183.88 177.01 184.35 178.27 185.19 C 178.50 184.61 178.97 183.44 179.20 182.86 C 185.82 182.02 191.98 179.07 197.45 175.36 C 200.54 173.32 200.63 169.38 200.81 166.07 C 200.19 165.26 199.58 164.45 198.97 163.63 C 196.56 162.55 192.91 162.04 192.55 158.78 C 192.19 159.21 191.46 160.05 191.10 160.48 C 187.03 159.90 182.92 159.73 178.86 159.08 C 176.71 158.23 175.11 156.46 173.23 155.18 C 175.35 149.83 181.10 145.71 186.94 145.81 C 183.29 149.23 178.01 150.38 175.03 154.64 C 179.21 157.96 184.57 157.93 189.63 157.73 C 190.23 150.72 191.65 143.33 196.82 138.14 C 188.97 133.85 180.17 132.13 171.46 130.70 C 170.85 128.90 170.57 127.01 169.82 125.28 C 165.99 124.23 161.83 123.03 157.93 124.44 C 148.51 127.44 139.44 134.18 136.63 144.04 C 137.64 147.73 139.89 151.12 141.48 154.65 C 139.16 161.24 142.90 167.89 145.06 174.04 C 143.39 172.80 141.32 171.68 140.86 169.47 C 139.71 164.67 137.85 159.77 138.72 154.77 C 138.31 154.31 137.51 153.40 137.10 152.95 C 136.99 149.88 135.43 147.24 133.84 144.72 C 135.87 141.13 137.14 137.05 139.92 133.93 C 143.08 130.21 147.32 127.67 151.40 125.09 C 150.45 123.07 148.84 121.53 147.22 120.07 M 202.57 164.04 C 202.77 166.99 202.51 169.94 202.16 172.86 C 204.18 169.88 206.70 167.30 209.15 164.68 C 206.95 164.52 204.76 164.30 202.57 164.04 Z" />
<path fill="#333333" opacity="1.00" d=" M 126.39 121.05 C 131.08 120.83 135.89 122.14 139.36 125.40 C 140.47 127.00 140.78 128.98 140.91 130.88 C 139.12 131.56 138.38 129.67 137.40 128.61 C 134.72 124.85 130.03 123.60 126.39 121.05 Z" />
<path fill="#333333" opacity="1.00" d=" M 145.71 136.33 C 150.20 130.98 157.00 126.13 164.31 127.25 C 160.11 128.46 155.60 129.37 152.18 132.28 C 149.74 134.40 147.68 136.90 145.44 139.21 C 145.77 140.96 146.10 142.71 146.42 144.47 C 145.36 145.84 144.32 147.22 143.27 148.60 C 143.45 146.36 143.93 144.16 144.23 141.94 C 143.29 142.39 142.38 142.88 141.48 143.37 C 142.42 141.25 143.28 139.10 144.01 136.90 C 144.43 136.76 145.29 136.47 145.71 136.33 Z" />
<path fill="#333333" opacity="1.00" d=" M 154.21 138.52 C 156.18 133.45 161.48 129.44 167.06 129.97 C 162.18 131.90 158.21 135.24 154.21 138.52 Z" />
<path fill="#333333" opacity="1.00" d=" M 152.38 144.29 C 155.50 137.95 162.81 135.79 168.97 133.57 C 168.00 135.30 167.03 137.31 164.90 137.78 C 160.39 139.29 156.46 141.94 152.38 144.29 Z" />
<path fill="#333333" opacity="1.00" d=" M 161.57 147.34 C 163.17 146.12 165.27 145.92 167.20 145.65 C 165.86 147.10 164.26 148.26 162.59 149.29 C 162.73 149.99 163.02 151.38 163.16 152.08 C 162.40 152.09 160.88 152.13 160.13 152.14 C 160.53 150.52 160.90 148.88 161.57 147.34 Z" />
<path fill="#333333" opacity="1.00" d=" M 201.87 152.91 C 204.15 154.00 205.97 155.77 207.09 158.04 C 204.13 158.00 203.08 155.07 201.87 152.91 Z" />
<path fill="#333333" opacity="1.00" d=" M 210.89 153.07 C 213.76 154.82 215.89 157.60 218.92 159.10 C 220.79 159.15 222.66 158.91 224.52 158.73 C 224.45 159.64 224.38 160.56 224.32 161.48 C 222.09 161.59 219.69 162.28 217.58 161.30 C 214.47 159.44 212.23 156.40 210.89 153.07 Z" />
<path fill="#333333" opacity="1.00" d=" M 206.81 180.10 C 208.90 178.60 210.15 175.46 212.96 175.28 C 211.85 177.61 210.08 179.53 208.32 181.39 C 207.86 181.38 206.95 181.36 206.50 181.35 C 206.58 181.04 206.73 180.41 206.81 180.10 Z" />
<path fill="#333333" opacity="1.00" d=" M 165.18 189.58 C 166.02 187.39 167.17 185.33 168.73 183.57 C 168.56 186.01 168.29 189.27 165.18 189.58 Z" />
</g>
</svg>
