<?xml version="1.0" encoding="UTF-8" ?>
<!DOCTYPE svg PUBLIC "-//W3C//DTD SVG 1.1//EN" "http://www.w3.org/Graphics/SVG/1.1/DTD/svg11.dtd">
<svg width="237pt" height="275pt" viewBox="0 0 237 275" version="1.1" xmlns="http://www.w3.org/2000/svg">
<g id="#ffffffff">
<path fill="#FFFFFF" opacity="1.00" d=" M 0.00 0.00 L 237.00 0.00 L 237.00 275.00 L 0.00 275.00 L 0.00 0.00 M 27.75 108.82 C 24.35 113.99 24.33 120.40 22.63 126.18 C 22.84 127.37 23.05 128.56 23.26 129.76 C 16.35 129.65 9.45 129.96 2.55 129.83 C 1.43 132.58 0.74 135.56 1.62 138.49 C 7.09 138.21 12.56 138.33 18.03 138.35 C 19.75 138.20 21.99 138.83 22.97 136.84 C 16.28 136.47 9.57 136.78 2.87 136.70 C 2.80 134.94 2.76 133.17 2.78 131.41 C 9.39 131.37 16.00 131.16 22.61 131.34 C 23.54 140.02 23.04 149.48 27.84 157.18 C 29.12 159.64 32.22 159.19 34.46 160.01 C 35.94 159.05 37.51 158.07 38.39 156.49 C 41.94 150.46 42.30 143.28 41.90 136.48 C 48.36 136.47 54.82 136.39 61.27 136.41 C 63.14 146.02 61.03 156.69 66.28 165.48 C 69.07 168.08 70.27 173.28 74.94 172.85 C 79.83 170.61 84.19 167.34 88.87 164.71 C 91.76 163.14 94.14 160.66 95.19 157.50 C 96.26 158.85 97.63 160.15 97.78 161.97 C 98.36 166.19 101.79 169.48 101.74 173.87 C 101.80 177.81 104.84 182.36 101.55 185.71 C 98.09 186.48 94.46 186.78 91.23 188.39 C 86.94 190.42 81.82 190.07 77.77 192.67 C 73.97 196.16 71.56 201.84 73.02 206.97 C 76.01 214.49 81.94 220.49 84.79 228.08 C 80.10 231.85 77.48 237.41 73.58 241.87 C 71.89 242.98 69.76 243.09 67.99 244.06 C 67.23 245.78 67.23 247.74 67.46 249.57 C 70.05 253.42 75.39 251.56 79.20 252.85 C 83.01 251.10 86.21 248.01 90.47 247.35 C 93.79 246.95 95.28 243.64 97.38 241.48 C 98.66 240.18 97.73 238.25 97.55 236.73 C 95.85 229.59 94.37 222.33 94.60 214.94 C 94.78 211.94 92.28 210.02 90.28 208.24 C 92.44 208.89 94.61 209.54 96.80 210.11 C 97.10 210.61 97.69 211.60 97.98 212.10 C 101.43 211.49 106.25 210.22 106.73 206.09 C 105.87 198.33 98.49 194.03 93.33 189.10 C 96.46 188.21 99.66 187.61 102.87 187.08 C 103.33 186.11 103.80 185.14 104.28 184.17 C 106.27 185.37 108.23 186.67 110.43 187.46 C 114.09 189.07 118.14 188.24 122.00 188.47 C 126.43 188.76 130.46 186.47 134.08 184.19 C 134.42 184.90 135.09 186.33 135.43 187.05 C 138.67 187.63 141.91 188.22 145.08 189.12 C 139.69 194.12 132.00 198.61 131.47 206.75 C 127.45 204.96 123.32 203.25 118.91 202.75 C 114.49 203.88 109.21 204.53 106.13 208.24 C 110.41 207.41 114.50 205.45 118.93 205.46 C 123.54 205.59 128.05 206.91 132.28 208.67 C 135.07 210.49 139.12 213.58 142.06 210.32 C 139.48 210.02 136.89 209.79 134.32 209.46 C 134.22 207.42 133.75 205.30 134.27 203.30 C 135.96 199.90 138.94 197.43 141.70 194.93 C 144.46 197.00 146.95 199.52 150.12 200.96 C 153.74 202.51 159.33 201.35 159.86 196.84 C 158.05 197.90 156.23 199.44 153.97 198.98 C 149.47 199.32 146.43 195.62 142.66 193.88 C 144.41 192.36 146.20 190.89 148.02 189.47 C 151.74 191.35 155.67 192.82 159.41 194.68 C 161.66 196.81 163.39 199.81 163.77 202.93 C 164.41 206.48 161.39 209.02 160.29 212.12 C 157.99 217.58 153.29 221.76 151.56 227.49 C 149.02 227.97 146.83 229.26 145.64 231.65 C 145.16 226.51 144.88 221.32 145.48 216.17 C 145.93 212.89 149.58 211.24 149.91 207.93 C 151.71 208.17 153.51 208.46 155.32 208.63 C 153.97 206.79 151.73 206.14 149.83 205.07 C 146.09 203.17 143.40 199.78 139.76 197.73 C 141.75 201.31 144.95 203.95 148.10 206.46 C 144.19 207.71 140.11 207.47 136.08 207.79 C 137.98 208.64 139.95 209.39 142.01 209.78 C 144.14 209.61 146.18 208.87 148.28 208.49 C 147.24 209.17 146.20 209.85 145.14 210.51 C 142.24 216.22 144.48 222.74 143.36 228.81 C 143.49 230.48 143.59 232.17 143.63 233.86 C 142.05 237.18 140.28 241.17 142.21 244.73 C 143.83 247.70 147.69 247.13 150.28 248.60 C 152.97 250.36 155.80 252.12 158.98 252.76 C 162.00 252.16 165.40 252.61 168.13 251.00 C 170.49 249.49 169.17 246.45 169.14 244.19 C 161.76 241.54 159.74 233.04 154.03 228.35 C 154.16 227.26 154.29 226.18 154.43 225.11 C 155.99 223.08 157.37 220.92 158.49 218.62 C 161.21 215.21 163.12 211.26 165.24 207.47 C 167.78 202.05 163.68 196.60 159.76 193.19 C 152.76 189.33 145.03 186.88 137.08 185.95 C 136.35 184.94 135.63 183.93 134.91 182.92 C 135.67 178.44 136.91 174.05 137.26 169.51 C 139.68 165.64 140.66 160.94 143.80 157.50 C 145.33 162.61 150.41 164.83 154.58 167.38 C 157.69 169.27 160.70 171.40 164.05 172.84 C 168.69 173.31 169.90 168.12 172.68 165.54 C 178.04 156.74 175.73 145.99 177.84 136.37 C 183.59 136.44 189.33 136.48 195.08 136.45 C 195.38 140.00 194.44 143.57 195.38 147.06 C 196.39 151.90 197.70 157.58 202.53 160.00 C 204.79 159.19 207.92 159.63 209.19 157.13 C 214.09 149.40 213.22 139.87 214.58 131.21 C 221.13 131.29 227.68 131.32 234.24 131.41 C 234.24 133.18 234.19 134.94 234.12 136.71 C 228.42 136.74 222.72 136.58 217.03 136.69 C 215.80 136.69 214.74 137.14 213.84 138.03 C 221.00 138.69 228.20 138.03 235.38 138.49 C 236.25 135.56 235.58 132.59 234.46 129.83 C 227.55 129.95 220.64 129.65 213.73 129.75 C 213.94 128.59 214.15 127.43 214.37 126.27 C 212.20 119.18 212.85 109.53 205.30 105.55 C 203.51 106.34 201.47 106.69 199.90 107.92 C 197.59 110.31 196.78 113.69 195.93 116.80 C 195.25 119.98 194.27 123.28 195.04 126.53 C 196.27 120.93 196.64 114.87 199.86 109.94 C 201.08 108.04 203.61 108.08 205.51 107.34 C 210.55 111.78 211.77 118.77 212.52 125.11 C 213.31 134.81 213.22 145.08 209.16 154.09 C 208.14 157.35 204.00 158.04 201.24 156.91 C 197.10 153.12 196.96 147.02 195.36 141.96 C 197.40 139.50 201.88 141.28 203.01 137.84 C 203.57 134.63 204.62 130.97 203.01 127.91 C 201.96 125.63 199.00 126.40 197.01 125.92 C 196.08 127.71 195.23 129.54 194.49 131.42 C 188.87 131.28 183.25 131.34 177.63 131.21 C 174.87 126.48 168.83 126.65 164.06 127.02 C 161.85 127.84 161.10 130.52 159.01 131.52 C 154.01 132.16 149.01 130.94 144.00 131.14 C 139.22 130.96 134.17 132.04 129.68 129.90 C 128.95 130.08 127.47 130.45 126.74 130.63 C 126.63 128.58 126.77 126.52 127.43 124.57 C 128.65 120.80 128.54 116.77 127.91 112.91 C 126.06 104.69 111.82 104.89 110.19 113.17 C 108.50 118.68 111.10 124.07 111.12 129.57 C 103.23 131.83 94.99 130.24 86.95 131.24 C 84.38 131.37 81.67 131.85 79.18 131.04 C 77.69 129.79 76.84 127.67 74.93 127.02 C 70.17 126.68 64.15 126.48 61.38 131.19 C 55.09 131.34 48.80 131.26 42.51 131.42 C 41.77 129.54 40.92 127.71 39.99 125.92 C 38.27 126.21 36.40 126.02 34.81 126.80 C 32.06 129.81 33.35 134.28 34.01 137.83 C 34.80 140.63 37.97 140.46 40.27 140.32 C 40.73 141.45 41.75 142.56 41.08 143.87 C 39.92 148.83 39.24 154.91 34.39 157.74 C 32.23 157.05 29.16 157.37 28.22 154.79 C 23.73 145.69 23.71 135.08 24.47 125.16 C 25.22 118.80 26.44 111.79 31.50 107.33 C 33.38 108.09 35.91 108.04 37.13 109.92 C 40.35 114.87 40.74 120.94 41.98 126.57 C 42.77 122.76 41.54 118.92 40.65 115.24 C 39.64 111.54 38.04 106.95 33.67 106.28 C 31.39 105.06 28.97 106.96 27.75 108.82 M 29.00 115.99 C 28.43 118.64 27.16 121.44 28.20 124.13 C 28.32 123.99 28.57 123.71 28.69 123.57 C 29.46 118.55 31.24 113.83 33.20 109.18 C 30.23 110.03 29.93 113.51 29.00 115.99 M 203.65 109.40 C 209.39 119.90 209.52 132.38 208.17 143.98 C 207.83 148.27 205.44 152.16 205.42 156.47 C 209.35 150.46 209.62 142.92 209.88 135.97 C 210.18 127.15 209.46 118.12 205.85 109.95 C 205.30 109.81 204.20 109.54 203.65 109.40 M 27.04 125.95 C 27.22 135.08 26.55 144.51 29.74 153.25 C 30.22 154.46 31.26 155.32 32.07 156.30 C 30.47 150.87 28.60 145.46 28.35 139.75 C 27.86 135.26 28.70 130.67 27.84 126.24 C 27.64 126.17 27.24 126.02 27.04 125.95 M 156.76 202.54 C 156.31 205.18 156.29 207.87 156.95 210.48 C 157.76 209.18 158.56 207.86 159.35 206.54 C 158.51 205.19 157.67 203.84 156.76 202.54 M 150.17 217.30 C 149.31 218.94 147.46 220.40 148.38 222.45 C 151.90 219.80 153.65 215.64 154.37 211.41 C 154.03 211.17 153.36 210.68 153.02 210.44 C 151.96 212.68 151.41 215.14 150.17 217.30 Z" />
<path fill="#FFFFFF" opacity="1.00" d=" M 117.19 109.13 C 120.10 109.14 123.88 108.67 125.68 111.51 C 127.13 116.70 126.39 122.29 124.44 127.25 C 123.66 130.04 122.19 133.30 119.01 133.86 C 117.06 133.54 115.42 131.99 114.86 130.12 C 112.65 124.47 110.45 118.28 112.27 112.21 C 112.87 110.01 115.13 109.23 117.19 109.13 Z" />
<path fill="#FFFFFF" opacity="1.00" d=" M 35.03 128.19 C 35.73 128.14 37.13 128.03 37.83 127.98 C 36.62 131.82 36.76 135.92 37.95 139.74 C 36.89 138.98 34.75 138.79 35.01 137.02 C 34.83 134.08 34.97 131.13 35.03 128.19 Z" />
<path fill="#FFFFFF" opacity="1.00" d=" M 199.17 127.98 C 199.86 128.03 201.26 128.12 201.95 128.17 C 202.03 131.53 202.02 134.90 202.13 138.26 C 201.07 138.69 200.02 139.12 198.98 139.57 C 200.36 135.84 200.31 131.76 199.17 127.98 Z" />
<path fill="#FFFFFF" opacity="1.00" d=" M 39.05 138.28 C 38.52 134.87 37.77 131.09 39.79 127.98 C 40.04 131.34 39.78 134.73 40.49 138.05 L 39.05 138.28 Z" />
<path fill="#FFFFFF" opacity="1.00" d=" M 64.17 129.64 C 67.55 128.95 71.02 128.52 74.46 129.00 C 75.41 130.93 76.57 132.73 78.04 134.30 C 76.42 136.46 73.92 137.79 72.38 140.00 C 71.39 143.29 71.93 146.84 72.96 150.06 C 74.19 153.54 77.49 155.60 79.67 158.43 C 81.83 155.28 78.01 153.77 76.35 151.77 C 74.66 148.36 74.37 144.51 74.25 140.78 C 76.17 139.80 78.03 138.70 79.61 137.22 C 83.20 136.94 86.81 136.80 90.42 136.98 C 89.05 139.41 87.81 141.93 87.10 144.64 C 90.33 143.30 91.01 139.59 93.01 137.09 C 95.53 134.43 99.41 135.28 102.68 134.97 C 104.95 132.95 107.93 132.16 110.62 130.90 C 109.92 134.06 113.64 131.84 115.22 132.19 C 116.60 133.19 117.82 134.84 119.67 134.91 C 121.97 134.04 123.76 132.27 125.72 130.85 C 126.14 131.50 126.99 132.79 127.41 133.43 C 127.53 132.81 127.78 131.58 127.90 130.96 C 130.81 132.07 133.98 132.79 136.32 134.97 C 139.39 135.27 142.86 134.51 145.46 136.60 C 148.09 138.69 148.17 143.60 151.82 144.27 C 151.14 141.67 149.87 139.30 148.56 136.98 C 152.16 136.80 155.76 136.95 159.36 137.20 C 160.97 138.73 162.92 139.83 164.91 140.78 C 164.78 144.52 164.26 148.29 162.69 151.72 C 161.46 153.25 159.79 154.34 158.34 155.63 C 158.73 156.53 159.13 157.42 159.53 158.32 C 161.61 155.48 164.86 153.46 166.05 150.03 C 167.07 146.85 167.58 143.34 166.65 140.08 C 165.31 137.73 162.33 136.83 161.21 134.27 C 162.37 132.53 163.57 130.82 164.58 128.99 C 167.99 128.55 171.44 128.94 174.80 129.64 C 174.95 132.33 176.14 135.09 175.27 137.76 C 174.04 141.43 175.36 145.28 175.27 149.03 C 174.94 154.14 173.61 159.09 172.08 163.95 C 169.71 166.19 167.32 168.44 165.58 171.21 C 160.25 170.48 156.85 166.03 152.21 163.85 C 147.10 161.36 144.26 155.96 142.24 150.90 C 141.78 152.71 141.43 154.60 142.64 156.27 C 142.13 156.28 141.11 156.30 140.60 156.30 C 139.07 159.90 138.34 163.85 135.96 167.03 C 133.86 171.46 134.56 176.68 133.37 181.31 C 129.69 185.50 123.61 187.34 118.16 186.27 C 113.34 187.21 107.99 184.86 104.97 181.07 C 103.53 176.70 104.42 171.75 102.58 167.44 C 100.82 164.70 99.40 161.78 98.14 158.79 L 97.91 158.07 C 97.55 157.70 96.83 156.96 96.47 156.59 C 97.09 154.72 97.36 152.77 96.99 150.82 C 94.62 155.77 92.02 161.36 86.79 163.85 C 82.15 166.02 78.74 170.48 73.42 171.21 C 71.67 168.44 69.29 166.18 66.92 163.95 C 65.35 158.77 63.79 153.48 63.76 148.04 C 63.77 144.38 65.17 140.51 63.44 137.05 C 63.69 134.58 63.95 132.11 64.17 129.64 M 103.88 136.28 C 108.51 138.15 113.28 139.60 117.99 141.25 C 117.71 140.35 117.43 139.45 117.15 138.56 C 113.39 138.13 110.02 136.36 106.53 135.05 C 105.64 135.46 104.76 135.87 103.88 136.28 M 122.31 138.60 C 120.93 138.76 120.23 140.00 119.43 140.97 C 124.88 140.05 129.98 137.79 135.22 136.11 C 133.97 135.79 132.72 135.48 131.47 135.18 C 128.48 136.48 125.47 137.75 122.31 138.60 M 66.69 137.82 C 68.79 137.98 70.93 138.20 72.99 137.67 C 71.87 134.81 68.69 137.26 66.69 137.82 M 165.53 137.61 C 167.77 138.02 170.05 138.02 172.32 137.88 C 170.10 136.85 167.53 135.41 165.53 137.61 M 119.13 143.44 C 120.47 143.23 120.71 142.52 119.86 141.29 C 118.52 141.48 118.27 142.20 119.13 143.44 M 78.53 153.40 C 81.18 151.76 82.81 148.94 85.47 147.33 C 87.29 146.56 89.30 146.52 91.21 146.11 C 86.17 142.64 79.56 148.20 78.53 153.40 M 98.35 144.81 C 99.78 150.80 101.74 156.96 105.31 162.02 C 105.24 159.30 104.09 156.82 103.24 154.29 C 105.11 154.87 107.01 155.46 109.00 155.47 C 107.35 153.95 105.43 152.79 103.70 151.38 C 101.59 149.46 100.75 146.47 98.35 144.81 M 148.15 146.51 C 149.96 146.59 151.91 146.36 153.55 147.33 C 156.18 148.97 157.85 151.74 160.47 153.41 C 159.40 148.19 154.26 144.62 149.05 144.76 C 148.82 145.20 148.37 146.08 148.15 146.51 M 132.42 155.09 C 132.80 155.50 133.56 156.32 133.94 156.74 C 133.75 157.93 133.36 160.31 133.17 161.50 C 136.95 156.71 138.03 150.43 140.39 144.89 C 136.22 146.76 135.57 152.03 132.42 155.09 M 81.11 160.88 C 81.76 160.80 83.06 160.66 83.71 160.58 C 87.32 157.60 92.22 153.70 91.18 148.43 C 88.51 153.09 85.58 157.71 81.11 160.88 M 147.08 150.05 C 148.64 154.36 151.59 157.94 155.30 160.59 C 155.95 160.66 157.24 160.79 157.89 160.85 C 153.77 157.80 150.55 153.73 148.44 149.06 C 148.10 149.31 147.42 149.80 147.08 150.05 M 107.99 159.85 C 111.16 161.95 115.48 161.91 118.86 160.33 C 115.25 159.98 111.62 159.45 107.99 159.85 M 119.56 160.49 C 123.06 161.76 127.28 161.99 130.48 159.79 C 126.83 159.42 123.17 159.99 119.56 160.49 M 104.02 167.94 C 105.78 166.23 108.43 164.85 108.79 162.19 C 105.72 162.47 104.30 165.15 104.02 167.94 M 108.26 170.76 C 108.58 171.07 109.21 171.69 109.53 171.99 C 111.46 169.73 113.72 167.80 116.12 166.04 C 117.08 164.99 117.98 163.88 118.71 162.65 C 114.87 164.79 110.83 167.07 108.26 170.76 M 119.65 163.13 C 122.31 166.91 126.64 168.93 129.44 172.60 C 129.72 171.34 130.20 169.92 128.86 169.08 C 126.18 166.62 123.20 164.15 119.65 163.13 M 119.03 164.44 C 118.91 167.36 119.04 170.32 118.29 173.17 C 118.66 175.16 118.93 177.17 119.09 179.19 C 120.94 179.01 122.78 178.85 124.63 178.59 C 123.21 177.62 121.61 176.98 119.99 176.42 C 119.69 172.46 121.18 168.03 119.03 164.44 M 107.72 172.47 C 107.74 174.61 108.63 176.53 109.70 178.34 C 109.49 179.03 109.08 180.43 108.88 181.12 C 109.44 181.47 110.56 182.17 111.12 182.52 C 111.32 178.81 110.13 175.29 107.72 172.47 M 127.57 182.93 C 129.69 179.97 129.58 176.06 130.56 172.63 C 128.13 175.54 126.58 179.08 127.57 182.93 M 112.96 177.04 C 112.06 178.86 116.23 180.28 116.60 178.23 C 116.16 176.86 114.13 176.23 112.96 177.04 Z" />
<path fill="#FFFFFF" opacity="1.00" d=" M 197.21 127.98 C 199.23 131.09 198.48 134.86 197.95 138.27 L 196.53 138.05 C 197.20 134.73 196.96 131.34 197.21 127.98 Z" />
<path fill="#FFFFFF" opacity="1.00" d=" M 79.62 132.01 C 85.83 133.85 92.34 131.77 98.65 133.24 C 92.91 135.52 86.76 135.22 80.75 135.95 C 80.41 134.62 80.03 133.31 79.62 132.01 Z" />
<path fill="#FFFFFF" opacity="1.00" d=" M 40.29 134.81 C 40.77 133.51 41.68 132.91 43.02 133.04 C 49.49 133.06 55.99 132.65 62.44 133.25 C 60.94 135.37 58.25 134.81 56.01 134.90 C 50.77 134.82 45.52 135.07 40.29 134.81 Z" />
<path fill="#FFFFFF" opacity="1.00" d=" M 136.94 133.59 C 142.27 133.04 147.68 132.29 153.04 132.86 C 155.18 133.10 157.26 132.45 159.33 132.04 C 159.06 133.02 158.53 134.97 158.26 135.95 C 153.81 135.20 149.20 135.71 144.82 134.45 C 142.26 133.68 139.56 133.92 136.94 133.59 Z" />
<path fill="#FFFFFF" opacity="1.00" d=" M 176.57 133.23 C 181.70 132.69 186.86 133.08 192.01 132.98 C 193.78 133.03 196.08 132.62 196.72 134.81 C 191.11 135.03 185.50 134.91 179.89 134.85 C 178.47 135.11 177.46 134.15 176.57 133.23 Z" />
<path fill="#FFFFFF" opacity="1.00" d=" M 78.95 194.08 C 82.72 192.08 87.05 191.55 91.05 190.12 C 94.11 192.43 96.75 195.23 99.79 197.57 C 97.92 198.95 96.13 200.49 94.87 202.46 C 97.18 201.43 99.47 200.35 101.90 199.64 C 103.94 202.56 105.13 206.06 103.75 209.55 C 101.49 209.83 99.22 210.02 96.94 210.10 C 98.76 209.25 100.63 208.51 102.39 207.55 C 98.99 207.40 95.51 207.99 92.22 206.81 C 89.23 205.99 84.80 205.31 83.11 208.66 C 84.81 208.47 86.50 208.17 88.21 207.95 C 89.11 211.31 93.03 213.22 92.84 217.01 C 92.69 223.40 94.31 229.63 94.56 235.98 C 94.29 237.50 95.54 238.55 96.22 239.74 C 95.76 241.03 94.87 242.03 93.77 242.84 C 91.97 246.83 86.85 245.37 84.03 248.03 C 80.33 251.10 74.67 252.03 70.43 249.53 C 68.48 248.30 69.33 246.14 69.75 244.34 C 71.50 243.85 73.27 243.37 74.99 242.76 C 79.35 239.50 81.97 234.52 85.51 230.50 C 87.53 228.19 90.29 230.76 92.53 231.29 C 91.26 229.31 89.41 227.92 87.07 227.50 C 83.60 219.74 77.11 213.50 75.11 205.06 C 74.34 201.04 76.25 196.96 78.95 194.08 M 83.38 200.86 C 82.10 202.28 80.87 203.73 79.67 205.21 C 80.36 206.11 80.85 207.14 81.59 208.00 C 82.00 205.76 82.56 203.54 83.68 201.54 C 86.67 201.83 89.63 201.02 91.69 198.76 C 90.00 198.92 88.35 199.48 86.65 199.53 C 84.86 199.27 83.37 198.14 81.79 197.35 C 82.31 198.52 82.85 199.69 83.38 200.86 M 85.19 209.96 C 84.07 215.74 87.28 222.02 92.41 224.80 C 91.07 222.12 89.30 219.68 87.97 216.99 C 86.84 214.72 86.58 212.11 85.19 209.96 M 89.06 232.70 C 88.02 236.18 86.12 240.10 87.92 243.65 C 88.84 240.26 89.97 236.90 90.47 233.42 C 90.11 233.24 89.41 232.88 89.06 232.70 Z" />
<path fill="#FFFFFF" opacity="1.00" d=" M 146.30 231.27 C 148.24 230.60 150.63 228.26 152.48 230.28 C 157.45 234.90 159.90 242.93 167.26 244.49 C 167.47 246.00 168.58 247.87 167.04 249.04 C 162.97 252.20 156.77 251.23 152.94 248.04 C 150.12 245.70 145.97 246.31 143.18 243.86 C 143.69 243.52 144.73 242.84 145.24 242.49 C 144.75 242.41 143.76 242.23 143.27 242.15 C 144.30 238.53 145.41 234.93 146.30 231.27 M 147.83 232.47 C 148.40 236.02 149.25 239.51 149.84 243.06 C 150.33 242.39 150.82 241.73 151.32 241.08 C 150.83 238.69 150.33 236.30 149.91 233.90 C 149.39 233.55 148.35 232.83 147.83 232.47 Z" />
</g>
<g id="#4b4d49ff">
<path fill="#333333" opacity="1.00" d=" M 27.75 108.82 C 28.97 106.96 31.39 105.06 33.67 106.28 C 38.04 106.95 39.64 111.54 40.65 115.24 C 41.54 118.92 42.77 122.76 41.98 126.57 C 40.74 120.94 40.35 114.87 37.13 109.92 C 35.91 108.04 33.38 108.09 31.50 107.33 C 26.44 111.79 25.22 118.80 24.47 125.16 C 23.71 135.08 23.73 145.69 28.22 154.79 C 29.16 157.37 32.23 157.05 34.39 157.74 C 39.24 154.91 39.92 148.83 41.08 143.87 C 41.75 142.56 40.73 141.45 40.27 140.32 C 37.97 140.46 34.80 140.63 34.01 137.83 C 33.35 134.28 32.06 129.81 34.81 126.80 C 36.40 126.02 38.27 126.21 39.99 125.92 C 40.92 127.71 41.77 129.54 42.51 131.42 C 48.80 131.26 55.09 131.34 61.38 131.19 C 64.15 126.48 70.17 126.68 74.93 127.02 C 76.84 127.67 77.69 129.79 79.18 131.04 C 81.67 131.85 84.38 131.37 86.95 131.24 C 94.99 130.24 103.23 131.83 111.12 129.57 C 111.10 124.07 108.50 118.68 110.19 113.17 C 111.82 104.89 126.06 104.69 127.91 112.91 C 128.54 116.77 128.65 120.80 127.43 124.57 C 126.77 126.52 126.63 128.58 126.74 130.63 C 127.47 130.45 128.95 130.08 129.68 129.90 C 134.17 132.04 139.22 130.96 144.00 131.14 C 149.01 130.94 154.01 132.16 159.01 131.52 C 161.10 130.52 161.85 127.84 164.06 127.02 C 168.83 126.65 174.87 126.48 177.63 131.21 C 183.25 131.34 188.87 131.28 194.49 131.42 C 195.23 129.54 196.08 127.71 197.01 125.92 C 199.00 126.40 201.96 125.63 203.01 127.91 C 204.62 130.97 203.57 134.63 203.01 137.84 C 201.88 141.28 197.40 139.50 195.36 141.96 C 196.96 147.02 197.10 153.12 201.24 156.91 C 204.00 158.04 208.14 157.35 209.16 154.09 C 213.22 145.08 213.31 134.81 212.52 125.11 C 211.77 118.77 210.55 111.78 205.51 107.34 C 203.61 108.08 201.08 108.04 199.86 109.94 C 196.64 114.87 196.27 120.93 195.04 126.53 C 194.27 123.28 195.25 119.98 195.93 116.80 C 196.78 113.69 197.59 110.31 199.90 107.92 C 201.47 106.69 203.51 106.34 205.30 105.55 C 212.85 109.53 212.20 119.18 214.37 126.27 C 214.15 127.43 213.94 128.59 213.73 129.75 C 220.64 129.65 227.55 129.95 234.46 129.83 C 235.58 132.59 236.25 135.56 235.38 138.49 C 228.20 138.03 221.00 138.69 213.84 138.03 C 214.74 137.14 215.80 136.69 217.03 136.69 C 222.72 136.58 228.42 136.74 234.12 136.71 C 234.19 134.94 234.24 133.18 234.24 131.41 C 227.68 131.32 221.13 131.29 214.58 131.21 C 213.22 139.87 214.09 149.40 209.19 157.13 C 207.92 159.63 204.79 159.19 202.53 160.00 C 197.70 157.58 196.39 151.90 195.38 147.06 C 194.44 143.57 195.38 140.00 195.08 136.45 C 189.33 136.48 183.59 136.44 177.84 136.37 C 175.73 145.99 178.04 156.74 172.68 165.54 C 169.90 168.12 168.69 173.31 164.05 172.84 C 160.70 171.40 157.69 169.27 154.58 167.38 C 150.41 164.83 145.33 162.61 143.80 157.50 C 140.66 160.94 139.68 165.64 137.26 169.51 C 136.91 174.05 135.67 178.44 134.91 182.92 C 135.63 183.93 136.35 184.94 137.08 185.95 C 145.03 186.88 152.76 189.33 159.76 193.19 C 163.68 196.60 167.78 202.05 165.24 207.47 C 163.12 211.26 161.21 215.21 158.49 218.62 C 157.37 220.92 155.99 223.08 154.43 225.11 C 154.29 226.18 154.16 227.26 154.03 228.35 C 159.74 233.04 161.76 241.54 169.14 244.19 C 169.17 246.45 170.49 249.49 168.13 251.00 C 165.40 252.61 162.00 252.16 158.98 252.76 C 155.80 252.12 152.97 250.36 150.28 248.60 C 147.69 247.13 143.83 247.70 142.21 244.73 C 140.28 241.17 142.05 237.18 143.63 233.86 C 143.59 232.17 143.49 230.48 143.36 228.81 C 144.48 222.74 142.24 216.22 145.14 210.51 C 146.20 209.85 147.24 209.17 148.28 208.49 C 146.18 208.87 144.14 209.61 142.01 209.78 C 139.95 209.39 137.98 208.64 136.08 207.79 C 140.11 207.47 144.19 207.71 148.10 206.46 C 144.95 203.95 141.75 201.31 139.76 197.73 C 143.40 199.78 146.09 203.17 149.83 205.07 C 151.73 206.14 153.97 206.79 155.32 208.63 C 153.51 208.46 151.71 208.17 149.91 207.93 C 149.58 211.24 145.93 212.89 145.48 216.17 C 144.88 221.32 145.16 226.51 145.64 231.65 C 146.83 229.26 149.02 227.97 151.56 227.49 C 153.29 221.76 157.99 217.58 160.29 212.12 C 161.39 209.02 164.41 206.48 163.77 202.93 C 163.39 199.81 161.66 196.81 159.41 194.68 C 155.67 192.82 151.74 191.35 148.02 189.47 C 146.20 190.89 144.41 192.36 142.66 193.88 C 146.43 195.62 149.47 199.32 153.97 198.98 C 156.23 199.44 158.05 197.90 159.86 196.84 C 159.33 201.35 153.74 202.51 150.12 200.96 C 146.95 199.52 144.46 197.00 141.70 194.93 C 138.94 197.43 135.96 199.90 134.27 203.30 C 133.75 205.30 134.22 207.42 134.32 209.46 C 136.89 209.79 139.48 210.02 142.06 210.32 C 139.12 213.58 135.07 210.49 132.28 208.67 C 128.05 206.91 123.54 205.59 118.93 205.46 C 114.50 205.45 110.41 207.41 106.13 208.24 C 109.21 204.53 114.49 203.88 118.91 202.75 C 123.32 203.25 127.45 204.96 131.47 206.75 C 132.00 198.61 139.69 194.12 145.08 189.12 C 141.91 188.22 138.67 187.63 135.43 187.05 C 135.09 186.33 134.42 184.90 134.08 184.19 C 130.46 186.47 126.43 188.76 122.00 188.47 C 118.14 188.24 114.09 189.07 110.43 187.46 C 108.23 186.67 106.27 185.37 104.28 184.17 C 103.80 185.14 103.33 186.11 102.87 187.08 C 99.66 187.61 96.46 188.21 93.33 189.10 C 98.49 194.03 105.87 198.33 106.73 206.09 C 106.25 210.22 101.43 211.49 97.98 212.10 C 97.69 211.60 97.10 210.61 96.80 210.11 C 94.61 209.54 92.44 208.89 90.28 208.24 C 92.28 210.02 94.78 211.94 94.60 214.94 C 94.37 222.33 95.85 229.59 97.55 236.73 C 97.73 238.25 98.66 240.18 97.38 241.48 C 95.28 243.64 93.79 246.95 90.47 247.35 C 86.21 248.01 83.01 251.10 79.20 252.85 C 75.39 251.56 70.05 253.42 67.46 249.57 C 67.23 247.74 67.23 245.78 67.99 244.06 C 69.76 243.09 71.89 242.98 73.58 241.87 C 77.48 237.41 80.10 231.85 84.79 228.08 C 81.94 220.49 76.01 214.49 73.02 206.97 C 71.56 201.84 73.97 196.16 77.77 192.67 C 81.82 190.07 86.94 190.42 91.23 188.39 C 94.46 186.78 98.09 186.48 101.55 185.71 C 104.84 182.36 101.80 177.81 101.74 173.87 C 101.79 169.48 98.36 166.19 97.78 161.97 C 97.63 160.15 96.26 158.85 95.19 157.50 C 94.14 160.66 91.76 163.14 88.87 164.71 C 84.19 167.34 79.83 170.61 74.94 172.85 C 70.27 173.28 69.07 168.08 66.28 165.48 C 61.03 156.69 63.14 146.02 61.27 136.41 C 54.82 136.39 48.36 136.47 41.90 136.48 C 42.30 143.28 41.94 150.46 38.39 156.49 C 37.51 158.07 35.94 159.05 34.46 160.01 C 32.22 159.19 29.12 159.64 27.84 157.18 C 23.04 149.48 23.54 140.02 22.61 131.34 C 16.00 131.16 9.39 131.37 2.78 131.41 C 2.76 133.17 2.80 134.94 2.87 136.70 C 9.57 136.78 16.28 136.47 22.97 136.84 C 21.99 138.83 19.75 138.20 18.03 138.35 C 12.56 138.33 7.09 138.21 1.62 138.49 C 0.74 135.56 1.43 132.58 2.55 129.83 C 9.45 129.96 16.35 129.65 23.26 129.76 C 23.05 128.56 22.84 127.37 22.63 126.18 C 24.33 120.40 24.35 113.99 27.75 108.82 M 117.19 109.13 C 115.13 109.23 112.87 110.01 112.27 112.21 C 110.45 118.28 112.65 124.47 114.86 130.12 C 115.42 131.99 117.06 133.54 119.01 133.86 C 122.19 133.30 123.66 130.04 124.44 127.25 C 126.39 122.29 127.13 116.70 125.68 111.51 C 123.88 108.67 120.10 109.14 117.19 109.13 M 35.03 128.19 C 34.97 131.13 34.83 134.08 35.01 137.02 C 34.75 138.79 36.89 138.98 37.95 139.74 C 36.76 135.92 36.62 131.82 37.83 127.98 C 37.13 128.03 35.73 128.14 35.03 128.19 M 199.17 127.98 C 200.31 131.76 200.36 135.84 198.98 139.57 C 200.02 139.12 201.07 138.69 202.13 138.26 C 202.02 134.90 202.03 131.53 201.95 128.17 C 201.26 128.12 199.86 128.03 199.17 127.98 M 39.05 138.28 L 40.49 138.05 C 39.78 134.73 40.04 131.34 39.79 127.98 C 37.77 131.09 38.52 134.87 39.05 138.28 M 64.17 129.64 C 63.95 132.11 63.69 134.58 63.44 137.05 C 65.17 140.51 63.77 144.38 63.76 148.04 C 63.79 153.48 65.35 158.77 66.92 163.95 C 69.29 166.18 71.67 168.44 73.42 171.21 C 78.74 170.48 82.15 166.02 86.79 163.85 C 92.02 161.36 94.62 155.77 96.99 150.82 C 97.36 152.77 97.09 154.72 96.47 156.59 C 96.83 156.96 97.55 157.70 97.91 158.07 L 98.14 158.79 C 99.40 161.78 100.82 164.70 102.58 167.44 C 104.42 171.75 103.53 176.70 104.97 181.07 C 107.99 184.86 113.34 187.21 118.16 186.27 C 123.61 187.34 129.69 185.50 133.37 181.31 C 134.56 176.68 133.86 171.46 135.96 167.03 C 138.34 163.85 139.07 159.90 140.60 156.30 C 141.11 156.30 142.13 156.28 142.64 156.27 C 141.43 154.60 141.78 152.71 142.24 150.90 C 144.26 155.96 147.10 161.36 152.21 163.85 C 156.85 166.03 160.25 170.48 165.58 171.21 C 167.32 168.44 169.71 166.19 172.08 163.95 C 173.61 159.09 174.94 154.14 175.27 149.03 C 175.36 145.28 174.04 141.43 175.27 137.76 C 176.14 135.09 174.95 132.33 174.80 129.64 C 171.44 128.94 167.99 128.55 164.58 128.99 C 163.57 130.82 162.37 132.53 161.21 134.27 C 162.33 136.83 165.31 137.73 166.65 140.08 C 167.58 143.34 167.07 146.85 166.05 150.03 C 164.86 153.46 161.61 155.48 159.53 158.32 C 159.13 157.42 158.73 156.53 158.34 155.63 C 159.79 154.34 161.46 153.25 162.69 151.72 C 164.26 148.29 164.78 144.52 164.91 140.78 C 162.92 139.83 160.97 138.73 159.36 137.20 C 155.76 136.95 152.16 136.80 148.56 136.98 C 149.87 139.30 151.14 141.67 151.82 144.27 C 148.17 143.60 148.09 138.69 145.46 136.60 C 142.86 134.51 139.39 135.27 136.32 134.97 C 133.98 132.79 130.81 132.07 127.90 130.96 C 127.78 131.58 127.53 132.81 127.41 133.43 C 126.99 132.79 126.14 131.50 125.72 130.85 C 123.76 132.27 121.97 134.04 119.67 134.91 C 117.82 134.84 116.60 133.19 115.22 132.19 C 113.64 131.84 109.92 134.06 110.62 130.90 C 107.93 132.16 104.95 132.95 102.68 134.97 C 99.41 135.28 95.53 134.43 93.01 137.09 C 91.01 139.59 90.33 143.30 87.10 144.64 C 87.81 141.93 89.05 139.41 90.42 136.98 C 86.81 136.80 83.20 136.94 79.61 137.22 C 78.03 138.70 76.17 139.80 74.25 140.78 C 74.37 144.51 74.66 148.36 76.35 151.77 C 78.01 153.77 81.83 155.28 79.67 158.43 C 77.49 155.60 74.19 153.54 72.96 150.06 C 71.93 146.84 71.39 143.29 72.38 140.00 C 73.92 137.79 76.42 136.46 78.04 134.30 C 76.57 132.73 75.41 130.93 74.46 129.00 C 71.02 128.52 67.55 128.95 64.17 129.64 M 197.21 127.98 C 196.96 131.34 197.20 134.73 196.53 138.05 L 197.95 138.27 C 198.48 134.86 199.23 131.09 197.21 127.98 M 79.62 132.01 C 80.03 133.31 80.41 134.62 80.75 135.95 C 86.76 135.22 92.91 135.52 98.65 133.24 C 92.34 131.77 85.83 133.85 79.62 132.01 M 40.29 134.81 C 45.52 135.07 50.77 134.82 56.01 134.90 C 58.25 134.81 60.94 135.37 62.44 133.25 C 55.99 132.65 49.49 133.06 43.02 133.04 C 41.68 132.91 40.77 133.51 40.29 134.81 M 136.94 133.59 C 139.56 133.92 142.26 133.68 144.82 134.45 C 149.20 135.71 153.81 135.20 158.26 135.95 C 158.53 134.97 159.06 133.02 159.33 132.04 C 157.26 132.45 155.18 133.10 153.04 132.86 C 147.68 132.29 142.27 133.04 136.94 133.59 M 176.57 133.23 C 177.46 134.15 178.47 135.11 179.89 134.85 C 185.50 134.91 191.11 135.03 196.72 134.81 C 196.08 132.62 193.78 133.03 192.01 132.98 C 186.86 133.08 181.70 132.69 176.57 133.23 M 78.95 194.08 C 76.25 196.96 74.34 201.04 75.11 205.06 C 77.11 213.50 83.60 219.74 87.07 227.50 C 89.41 227.92 91.26 229.31 92.53 231.29 C 90.29 230.76 87.53 228.19 85.51 230.50 C 81.97 234.52 79.35 239.50 74.99 242.76 C 73.27 243.37 71.50 243.85 69.75 244.34 C 69.33 246.14 68.48 248.30 70.43 249.53 C 74.67 252.03 80.33 251.10 84.03 248.03 C 86.85 245.37 91.97 246.83 93.77 242.84 C 94.87 242.03 95.76 241.03 96.22 239.74 C 95.54 238.55 94.29 237.50 94.56 235.98 C 94.31 229.63 92.69 223.40 92.84 217.01 C 93.03 213.22 89.11 211.31 88.21 207.95 C 86.50 208.17 84.81 208.47 83.11 208.66 C 84.80 205.31 89.23 205.99 92.22 206.81 C 95.51 207.99 98.99 207.40 102.39 207.55 C 100.63 208.51 98.76 209.25 96.94 210.10 C 99.22 210.02 101.49 209.83 103.75 209.55 C 105.13 206.06 103.94 202.56 101.90 199.64 C 99.47 200.35 97.18 201.43 94.87 202.46 C 96.13 200.49 97.92 198.95 99.79 197.57 C 96.75 195.23 94.11 192.43 91.05 190.12 C 87.05 191.55 82.72 192.08 78.95 194.08 M 146.30 231.27 C 145.41 234.93 144.30 238.53 143.27 242.15 C 143.76 242.23 144.75 242.41 145.24 242.49 C 144.73 242.84 143.69 243.52 143.18 243.86 C 145.97 246.31 150.12 245.70 152.94 248.04 C 156.77 251.23 162.97 252.20 167.04 249.04 C 168.58 247.87 167.47 246.00 167.26 244.49 C 159.90 242.93 157.45 234.90 152.48 230.28 C 150.63 228.26 148.24 230.60 146.30 231.27 Z" />
<path fill="#333333" opacity="1.00" d=" M 29.00 115.99 C 29.93 113.51 30.23 110.03 33.20 109.18 C 31.24 113.83 29.46 118.55 28.69 123.57 C 28.57 123.71 28.32 123.99 28.20 124.13 C 27.16 121.44 28.43 118.64 29.00 115.99 Z" />
<path fill="#333333" opacity="1.00" d=" M 203.65 109.40 C 204.20 109.54 205.30 109.81 205.85 109.95 C 209.46 118.12 210.18 127.15 209.88 135.97 C 209.62 142.92 209.35 150.46 205.42 156.47 C 205.44 152.16 207.83 148.27 208.17 143.98 C 209.52 132.38 209.39 119.90 203.65 109.40 Z" />
<path fill="#333333" opacity="1.00" d=" M 27.04 125.95 C 27.24 126.02 27.64 126.17 27.84 126.24 C 28.70 130.67 27.86 135.26 28.35 139.75 C 28.60 145.46 30.47 150.87 32.07 156.30 C 31.26 155.32 30.22 154.46 29.74 153.25 C 26.55 144.51 27.22 135.08 27.04 125.95 Z" />
<path fill="#333333" opacity="1.00" d=" M 103.88 136.28 C 104.76 135.87 105.64 135.46 106.53 135.05 C 110.02 136.36 113.39 138.13 117.15 138.56 C 117.43 139.45 117.71 140.35 117.99 141.25 C 113.28 139.60 108.51 138.15 103.88 136.28 Z" />
<path fill="#333333" opacity="1.00" d=" M 122.31 138.60 C 125.47 137.75 128.48 136.48 131.47 135.18 C 132.72 135.48 133.97 135.79 135.22 136.11 C 129.98 137.79 124.88 140.05 119.43 140.97 C 120.23 140.00 120.93 138.76 122.31 138.60 Z" />
<path fill="#333333" opacity="1.00" d=" M 66.69 137.82 C 68.69 137.26 71.87 134.81 72.99 137.67 C 70.93 138.20 68.79 137.98 66.69 137.82 Z" />
<path fill="#333333" opacity="1.00" d=" M 165.53 137.61 C 167.53 135.41 170.10 136.85 172.32 137.88 C 170.05 138.02 167.77 138.02 165.53 137.61 Z" />
<path fill="#333333" opacity="1.00" d=" M 119.13 143.44 C 118.27 142.20 118.52 141.48 119.86 141.29 C 120.71 142.52 120.47 143.23 119.13 143.44 Z" />
<path fill="#333333" opacity="1.00" d=" M 78.53 153.40 C 79.56 148.20 86.17 142.64 91.21 146.11 C 89.30 146.52 87.29 146.56 85.47 147.33 C 82.81 148.94 81.18 151.76 78.53 153.40 Z" />
<path fill="#333333" opacity="1.00" d=" M 98.35 144.81 C 100.75 146.47 101.59 149.46 103.70 151.38 C 105.43 152.79 107.35 153.95 109.00 155.47 C 107.01 155.46 105.11 154.87 103.24 154.29 C 104.09 156.82 105.24 159.30 105.31 162.02 C 101.74 156.96 99.78 150.80 98.35 144.81 Z" />
<path fill="#333333" opacity="1.00" d=" M 148.15 146.51 C 148.37 146.08 148.82 145.20 149.05 144.76 C 154.26 144.62 159.40 148.19 160.47 153.41 C 157.85 151.74 156.18 148.97 153.55 147.33 C 151.91 146.36 149.96 146.59 148.15 146.51 Z" />
<path fill="#333333" opacity="1.00" d=" M 132.42 155.09 C 135.57 152.03 136.22 146.76 140.39 144.89 C 138.03 150.43 136.95 156.71 133.17 161.50 C 133.36 160.31 133.75 157.93 133.94 156.74 C 133.56 156.32 132.80 155.50 132.42 155.09 Z" />
<path fill="#333333" opacity="1.00" d=" M 81.11 160.88 C 85.58 157.71 88.51 153.09 91.18 148.43 C 92.22 153.70 87.32 157.60 83.71 160.58 C 83.06 160.66 81.76 160.80 81.11 160.88 Z" />
<path fill="#333333" opacity="1.00" d=" M 147.08 150.05 C 147.42 149.80 148.10 149.31 148.44 149.06 C 150.55 153.73 153.77 157.80 157.89 160.85 C 157.24 160.79 155.95 160.66 155.30 160.59 C 151.59 157.94 148.64 154.36 147.08 150.05 Z" />
<path fill="#333333" opacity="1.00" d=" M 107.99 159.85 C 111.62 159.45 115.25 159.98 118.86 160.33 C 115.48 161.91 111.16 161.95 107.99 159.85 Z" />
<path fill="#333333" opacity="1.00" d=" M 119.56 160.49 C 123.17 159.99 126.83 159.42 130.48 159.79 C 127.28 161.99 123.06 161.76 119.56 160.49 Z" />
<path fill="#333333" opacity="1.00" d=" M 104.02 167.94 C 104.30 165.15 105.72 162.47 108.79 162.19 C 108.43 164.85 105.78 166.23 104.02 167.94 Z" />
<path fill="#333333" opacity="1.00" d=" M 108.26 170.76 C 110.83 167.07 114.87 164.79 118.71 162.65 C 117.98 163.88 117.08 164.99 116.12 166.04 C 113.72 167.80 111.46 169.73 109.53 171.99 C 109.21 171.69 108.58 171.07 108.26 170.76 Z" />
<path fill="#333333" opacity="1.00" d=" M 119.65 163.13 C 123.20 164.15 126.18 166.62 128.86 169.08 C 130.20 169.92 129.72 171.34 129.44 172.60 C 126.64 168.93 122.31 166.91 119.65 163.13 Z" />
<path fill="#333333" opacity="1.00" d=" M 119.03 164.44 C 121.18 168.03 119.69 172.46 119.99 176.42 C 121.61 176.98 123.21 177.62 124.63 178.59 C 122.78 178.85 120.94 179.01 119.09 179.19 C 118.93 177.17 118.66 175.16 118.29 173.17 C 119.04 170.32 118.91 167.36 119.03 164.44 Z" />
<path fill="#333333" opacity="1.00" d=" M 107.72 172.47 C 110.13 175.29 111.32 178.81 111.12 182.52 C 110.56 182.17 109.44 181.47 108.88 181.12 C 109.08 180.43 109.49 179.03 109.70 178.34 C 108.63 176.53 107.74 174.61 107.72 172.47 Z" />
<path fill="#333333" opacity="1.00" d=" M 127.57 182.93 C 126.58 179.08 128.13 175.54 130.56 172.63 C 129.58 176.06 129.69 179.97 127.57 182.93 Z" />
<path fill="#333333" opacity="1.00" d=" M 112.96 177.04 C 114.13 176.23 116.16 176.86 116.60 178.23 C 116.23 180.28 112.06 178.86 112.96 177.04 Z" />
<path fill="#333333" opacity="1.00" d=" M 83.38 200.86 C 82.85 199.69 82.31 198.52 81.79 197.35 C 83.37 198.14 84.86 199.27 86.65 199.53 C 88.35 199.48 90.00 198.92 91.69 198.76 C 89.63 201.02 86.67 201.83 83.68 201.54 C 82.56 203.54 82.00 205.76 81.59 208.00 C 80.85 207.14 80.36 206.11 79.67 205.21 C 80.87 203.73 82.10 202.28 83.38 200.86 Z" />
<path fill="#333333" opacity="1.00" d=" M 156.76 202.54 C 157.67 203.84 158.51 205.19 159.35 206.54 C 158.56 207.86 157.76 209.18 156.95 210.48 C 156.29 207.87 156.31 205.18 156.76 202.54 Z" />
<path fill="#333333" opacity="1.00" d=" M 85.19 209.96 C 86.58 212.11 86.84 214.72 87.97 216.99 C 89.30 219.68 91.07 222.12 92.41 224.80 C 87.28 222.02 84.07 215.74 85.19 209.96 Z" />
<path fill="#333333" opacity="1.00" d=" M 150.17 217.30 C 151.41 215.14 151.96 212.68 153.02 210.44 C 153.36 210.68 154.03 211.17 154.37 211.41 C 153.65 215.64 151.90 219.80 148.38 222.45 C 147.46 220.40 149.31 218.94 150.17 217.30 Z" />
<path fill="#333333" opacity="1.00" d=" M 89.06 232.70 C 89.41 232.88 90.11 233.24 90.47 233.42 C 89.97 236.90 88.84 240.26 87.92 243.65 C 86.12 240.10 88.02 236.18 89.06 232.70 Z" />
<path fill="#333333" opacity="1.00" d=" M 147.83 232.47 C 148.35 232.83 149.39 233.55 149.91 233.90 C 150.33 236.30 150.83 238.69 151.32 241.08 C 150.82 241.73 150.33 242.39 149.84 243.06 C 149.25 239.51 148.40 236.02 147.83 232.47 Z" />
</g>
</svg>
