<?xml version="1.0" encoding="UTF-8" ?>
<!DOCTYPE svg PUBLIC "-//W3C//DTD SVG 1.1//EN" "http://www.w3.org/Graphics/SVG/1.1/DTD/svg11.dtd">
<svg width="180pt" height="250pt" viewBox="0 0 180 250" version="1.1" xmlns="http://www.w3.org/2000/svg">
<g id="#ffffffff">
<path fill="#FFFFFF" opacity="1.00" d=" M 0.00 0.00 L 180.00 0.00 L 180.00 250.00 L 0.00 250.00 L 0.00 0.00 M 115.52 27.66 C 111.18 29.38 108.69 33.41 105.34 36.38 C 105.61 38.49 106.58 40.35 107.87 42.01 C 107.42 43.86 107.09 45.74 106.81 47.63 C 102.85 47.25 99.38 49.25 96.04 51.06 C 91.56 52.24 87.58 55.16 84.66 58.70 C 82.80 60.88 84.49 63.67 84.98 66.01 C 87.19 64.33 85.87 61.82 85.58 59.65 C 89.33 56.06 93.98 53.71 98.56 51.37 C 102.52 49.22 107.33 51.22 111.34 49.05 C 115.06 50.67 118.59 52.69 121.88 55.06 C 126.32 54.93 131.50 55.07 134.37 59.06 C 137.72 62.23 137.25 67.07 137.43 71.26 C 141.34 75.54 140.58 81.41 140.41 86.71 C 140.98 87.00 142.13 87.58 142.70 87.87 C 142.34 84.94 142.75 82.02 142.78 79.09 C 141.76 75.34 140.23 71.75 139.07 68.04 C 139.69 64.51 138.58 61.07 136.45 58.25 C 138.89 56.33 140.92 53.95 142.30 51.16 C 141.79 49.05 141.38 46.92 141.02 44.78 C 138.64 43.58 136.18 42.53 133.63 41.73 C 133.69 40.15 133.75 38.58 133.84 37.01 C 132.23 32.74 129.05 29.16 125.23 26.72 C 122.27 24.49 118.53 26.58 115.52 27.66 M 98.41 56.18 C 98.12 59.31 99.66 62.08 103.11 62.38 C 101.45 62.89 99.72 63.11 98.00 63.32 C 96.48 63.28 94.99 63.06 93.54 62.63 C 90.43 63.73 87.53 65.31 84.62 66.86 C 83.74 69.12 82.96 71.42 82.50 73.81 C 85.07 73.82 84.32 70.15 85.59 68.59 C 87.77 66.32 90.99 65.61 93.79 64.40 C 92.08 68.75 90.52 73.19 90.09 77.88 C 88.79 79.96 87.27 81.92 86.23 84.16 C 88.22 82.63 89.98 80.84 91.72 79.03 C 92.06 74.62 92.96 70.23 94.99 66.27 C 96.94 65.65 98.97 65.34 100.92 64.73 C 101.78 65.69 102.65 66.65 103.53 67.59 C 103.97 69.30 104.88 70.80 105.72 72.33 C 105.76 73.97 105.20 75.59 105.02 77.22 C 104.15 79.07 103.29 80.96 103.09 83.02 C 102.79 84.61 101.15 85.12 100.07 86.07 C 98.58 87.12 97.91 88.88 97.04 90.40 C 92.28 88.08 86.80 88.67 81.92 86.83 C 80.27 86.85 78.61 86.86 76.96 86.84 C 80.76 82.08 80.48 75.90 81.34 70.20 C 79.27 72.30 79.46 75.36 79.01 78.06 C 78.58 81.71 76.41 84.79 75.08 88.14 C 73.14 87.96 72.23 89.63 71.12 90.80 C 67.01 90.47 64.32 93.70 61.65 96.26 C 60.11 95.95 58.52 95.66 56.99 96.15 C 53.19 97.14 49.23 97.32 45.49 98.56 C 50.82 99.05 56.11 98.31 61.42 98.08 C 64.42 97.88 66.43 95.44 68.48 93.55 C 70.36 93.51 72.26 93.57 74.12 93.22 C 75.82 92.68 75.33 90.76 75.65 89.40 C 80.48 88.65 85.32 89.17 90.03 90.40 C 93.76 90.82 96.46 93.60 99.53 95.45 C 102.92 97.49 104.09 101.53 107.01 104.05 C 106.52 105.03 106.03 106.01 105.54 106.98 C 105.77 107.94 106.00 108.90 106.23 109.86 C 104.26 113.56 104.99 118.64 101.26 121.31 C 98.35 123.12 95.29 124.68 92.53 126.73 C 91.03 119.39 89.17 109.45 80.81 107.11 C 77.86 106.19 74.82 105.03 71.68 105.50 C 71.58 106.09 71.37 107.29 71.27 107.89 C 68.03 109.02 65.14 111.12 63.39 114.12 C 61.68 117.23 59.12 120.27 59.34 124.02 C 59.24 127.40 60.62 130.55 61.69 133.67 C 56.61 130.44 50.26 132.09 44.65 130.51 C 44.62 129.62 44.54 127.84 44.50 126.95 C 48.24 125.73 51.50 123.54 54.87 121.58 C 56.89 120.58 57.81 118.39 58.85 116.52 C 60.85 113.02 58.52 109.06 57.21 105.74 C 54.68 101.32 49.06 100.96 45.03 98.57 C 42.93 99.27 40.77 99.85 38.83 100.94 C 34.10 103.60 28.57 105.41 25.30 110.03 C 22.64 114.06 17.23 115.81 16.04 120.88 C 18.17 125.68 20.12 130.61 21.00 135.81 C 22.78 138.63 24.78 141.46 25.13 144.89 C 25.89 150.79 28.47 156.29 31.99 161.04 C 34.66 164.46 33.63 169.05 33.26 173.03 C 31.39 176.22 28.78 178.91 26.83 182.07 C 24.65 185.70 20.55 187.30 17.57 190.13 C 17.07 191.71 16.52 193.29 15.84 194.81 C 16.69 196.38 17.44 198.02 18.52 199.46 C 20.60 200.86 23.40 200.40 25.57 199.44 C 29.34 197.46 34.29 197.79 36.98 193.99 C 41.11 188.52 49.14 190.54 53.58 185.48 C 53.70 182.24 53.83 178.98 53.22 175.77 C 55.88 176.52 58.47 177.47 61.04 178.48 C 60.53 179.81 60.02 181.13 59.50 182.45 C 56.01 185.46 54.12 189.72 51.28 193.25 C 48.69 195.48 45.18 196.48 42.99 199.23 C 40.79 201.39 37.86 205.26 41.53 207.58 C 45.83 208.09 49.52 210.83 53.91 210.87 C 58.78 211.50 62.91 208.32 66.80 205.90 C 69.84 202.95 72.39 199.51 75.22 196.36 C 76.22 192.22 76.67 187.91 78.71 184.08 C 80.15 184.56 81.58 185.06 83.02 185.56 C 85.28 183.56 89.70 183.03 89.94 179.48 C 87.37 180.38 85.04 181.78 82.79 183.28 C 81.29 182.73 79.79 182.16 78.30 181.59 C 78.27 177.36 78.48 173.12 78.85 168.90 C 81.97 172.27 86.74 172.54 90.87 173.81 C 90.73 176.31 90.07 178.82 90.49 181.33 L 92.19 181.29 C 92.57 178.66 92.71 175.99 93.27 173.38 C 89.37 170.02 84.04 169.73 79.25 168.53 C 79.45 167.53 79.85 165.52 80.05 164.52 C 81.35 164.08 82.68 163.67 83.87 162.96 C 91.17 158.59 98.31 153.94 105.73 149.78 C 108.19 153.65 112.51 155.69 117.07 155.41 L 117.35 155.63 C 118.72 152.64 121.09 150.15 121.83 146.88 C 122.94 141.61 122.23 136.09 120.07 131.18 C 121.87 128.68 123.15 125.87 124.72 123.23 C 123.53 123.63 122.32 124.01 121.15 124.46 C 121.89 122.40 121.69 120.18 121.70 118.03 C 121.57 110.36 121.55 102.69 121.44 95.02 C 121.42 91.57 121.07 88.03 122.17 84.69 C 124.06 88.09 126.74 91.13 127.84 94.92 C 127.95 97.72 126.26 100.22 125.98 102.99 C 125.03 109.86 123.92 116.70 123.02 123.57 C 123.62 122.99 124.84 121.84 125.45 121.27 C 126.14 114.37 127.44 107.55 129.26 100.86 C 130.19 96.21 132.95 92.12 133.32 87.31 C 131.70 88.33 131.16 90.08 130.65 91.79 C 129.14 90.18 127.32 88.85 125.99 87.08 C 124.10 83.55 123.95 79.40 122.17 75.82 C 120.67 72.97 122.41 69.83 122.69 66.89 C 124.45 68.98 126.15 71.46 129.05 72.00 C 126.58 66.97 121.32 63.38 120.98 57.38 C 120.55 57.69 119.69 58.31 119.26 58.62 C 120.04 61.75 122.02 64.84 120.88 68.13 C 119.49 73.31 121.52 78.44 122.00 83.58 C 114.76 87.09 112.09 95.14 107.25 101.03 C 104.71 96.92 101.36 93.43 97.27 90.84 C 99.80 88.55 102.88 87.04 105.58 85.01 C 105.62 84.67 105.69 83.98 105.72 83.63 L 105.24 82.88 C 105.14 82.29 104.94 81.10 104.84 80.50 C 105.47 80.26 106.75 79.77 107.38 79.52 C 107.12 76.59 106.82 73.67 106.32 70.77 C 105.84 70.35 104.88 69.50 104.40 69.08 C 104.27 66.80 103.09 64.60 103.22 62.35 C 106.10 61.99 108.60 64.14 110.96 65.54 C 110.82 67.99 113.03 68.42 114.99 68.77 C 115.42 68.38 116.27 67.62 116.70 67.24 C 114.44 66.80 112.20 66.07 111.01 63.93 C 109.38 61.17 105.87 61.40 103.10 61.35 C 101.64 59.53 99.99 57.89 98.41 56.18 M 90.81 60.22 C 92.69 60.62 94.60 60.82 96.51 60.95 C 96.46 60.36 96.36 59.17 96.30 58.58 C 94.46 59.10 92.63 59.63 90.81 60.22 M 109.67 72.23 C 111.29 74.23 113.67 74.98 116.18 74.45 C 114.26 73.11 112.02 72.35 109.67 72.23 M 108.21 76.50 C 110.09 78.81 113.54 80.63 116.05 78.04 C 113.48 77.33 110.85 76.86 108.21 76.50 M 138.59 95.96 C 137.17 98.54 135.72 101.10 134.52 103.79 C 134.85 103.60 135.51 103.24 135.84 103.06 C 137.33 100.76 139.18 98.68 140.38 96.21 C 140.16 92.59 139.13 89.07 138.04 85.63 C 136.38 89.04 138.31 92.51 138.59 95.96 M 141.65 91.84 C 141.13 97.30 139.49 102.58 138.83 108.03 C 138.35 114.99 132.78 120.26 131.66 127.00 C 131.72 129.70 132.20 132.48 131.03 135.02 C 129.91 137.77 130.48 140.98 129.10 143.62 C 126.64 144.70 123.24 144.46 121.96 147.32 C 124.58 147.04 127.35 146.88 129.71 145.57 C 132.92 143.21 131.52 138.80 132.82 135.52 C 134.84 131.05 132.61 126.10 134.30 121.51 C 141.53 126.44 143.21 137.42 138.81 144.73 C 137.31 147.53 133.86 147.21 131.17 147.51 C 132.23 148.40 133.28 149.88 134.88 149.44 C 140.08 148.43 142.29 142.69 142.99 138.03 C 143.30 131.70 141.31 124.80 136.21 120.70 C 137.44 118.15 139.38 115.88 139.92 113.02 C 141.00 107.71 141.65 102.32 143.00 97.07 C 143.92 94.03 143.35 90.87 142.92 87.82 C 142.23 89.05 141.65 90.39 141.65 91.84 M 129.12 131.31 C 129.44 129.71 129.68 128.10 129.83 126.48 C 127.53 127.43 128.33 129.64 129.12 131.31 Z" />
<path fill="#FFFFFF" opacity="1.00" d=" M 107.73 38.96 C 108.82 33.54 113.64 30.37 117.94 27.56 C 121.16 27.58 124.93 26.97 127.49 29.40 C 129.52 31.30 131.94 33.17 132.78 35.93 C 133.12 39.16 132.78 42.45 131.55 45.46 C 127.38 45.83 123.75 48.05 122.08 51.97 C 117.92 49.44 113.31 46.05 108.17 48.03 C 109.84 44.98 108.26 42.00 107.73 38.96 Z" />
<path fill="#FFFFFF" opacity="1.00" d=" M 133.99 43.39 C 135.44 44.06 136.90 44.74 138.34 45.43 C 138.68 47.13 139.08 48.82 139.55 50.49 C 138.40 52.75 137.04 54.90 135.69 57.04 C 131.97 54.36 127.42 53.60 123.08 52.53 C 124.60 51.29 126.16 50.08 127.74 48.91 C 130.72 48.30 132.43 45.75 133.99 43.39 Z" />
<path fill="#FFFFFF" opacity="1.00" d=" M 111.84 97.85 C 114.71 94.71 116.26 90.56 119.67 87.89 C 119.72 102.32 119.96 116.76 119.69 131.19 C 119.39 130.68 118.79 129.65 118.49 129.13 C 118.50 127.64 118.34 126.17 117.95 124.73 C 117.96 125.58 117.98 127.29 117.99 128.15 C 115.53 124.86 110.97 124.47 107.76 126.75 C 103.97 130.06 103.46 135.33 102.76 139.99 C 95.87 143.25 89.55 147.56 82.81 151.11 C 82.97 145.59 80.55 140.44 80.46 134.96 C 80.39 132.77 82.17 131.21 83.31 129.55 C 85.70 128.76 88.05 127.90 90.41 127.02 C 90.07 128.06 89.39 130.12 89.06 131.15 C 92.37 128.76 95.35 125.81 99.21 124.30 C 102.57 122.94 105.63 120.57 107.11 117.19 C 107.74 114.32 108.13 111.40 108.66 108.51 C 108.16 108.04 107.16 107.09 106.65 106.62 C 108.18 103.59 109.59 100.43 111.84 97.85 Z" />
<path fill="#FFFFFF" opacity="1.00" d=" M 42.88 99.46 C 46.83 101.55 52.03 102.48 54.21 106.86 C 56.13 110.37 58.11 114.92 55.77 118.67 C 52.99 120.67 50.04 122.55 46.96 124.06 C 42.86 124.96 36.74 125.74 36.31 131.01 C 37.53 136.54 39.57 141.89 41.75 147.11 C 43.57 150.39 42.52 154.24 42.74 157.79 C 44.54 160.23 43.99 163.50 45.56 166.04 C 47.99 170.89 51.76 175.66 51.17 181.41 C 50.43 185.76 45.50 186.46 42.02 187.46 C 37.66 188.74 34.99 192.65 31.43 195.16 C 28.15 195.74 24.60 195.57 21.84 197.78 C 21.27 197.70 20.14 197.53 19.57 197.44 C 19.01 196.54 18.45 195.64 17.88 194.75 C 18.79 193.08 19.03 190.86 20.76 189.79 C 22.67 188.36 24.87 187.32 26.62 185.68 C 28.48 183.47 29.65 180.78 31.51 178.56 C 32.92 176.65 34.88 175.00 35.50 172.62 C 35.92 169.71 35.41 166.74 35.85 163.83 C 32.62 156.99 28.79 150.36 27.04 142.93 C 26.43 139.74 24.66 136.99 22.89 134.33 C 22.84 128.92 18.69 124.40 18.96 119.03 C 20.88 116.56 24.08 115.39 25.71 112.62 C 29.43 106.97 36.13 104.72 42.16 102.49 C 42.34 101.73 42.70 100.22 42.88 99.46 M 27.67 117.53 C 27.65 117.97 27.61 118.86 27.59 119.31 C 29.30 120.14 30.94 121.49 32.95 121.31 C 35.16 121.38 38.71 120.27 37.64 117.44 C 36.04 118.06 34.55 118.94 32.93 119.52 C 31.30 120.05 30.17 118.44 28.92 117.72 C 28.61 117.67 27.98 117.58 27.67 117.53 M 26.33 129.45 C 28.09 130.56 29.76 131.84 31.66 132.73 C 32.22 130.73 30.02 129.55 29.09 128.06 C 29.18 126.62 29.21 125.17 29.15 123.73 C 27.76 125.39 26.91 127.38 26.33 129.45 M 44.55 170.59 C 44.53 174.31 44.52 178.10 42.88 181.54 C 41.83 182.62 40.82 183.74 39.85 184.89 C 41.63 184.47 43.39 183.95 45.14 183.38 C 45.11 182.57 45.05 180.94 45.02 180.12 C 47.71 177.35 46.91 173.29 44.55 170.59 M 36.27 176.05 C 34.71 179.05 32.73 181.91 31.95 185.25 C 35.17 182.02 37.19 177.82 39.13 173.75 C 38.07 174.36 36.71 174.76 36.27 176.05 Z" />
<path fill="#FFFFFF" opacity="1.00" d=" M 67.46 113.09 C 69.78 109.98 73.91 109.53 77.11 107.69 C 79.65 108.70 82.46 109.54 84.20 111.83 C 87.35 115.81 88.90 120.76 90.18 125.60 C 86.60 126.05 81.16 125.86 79.80 130.05 C 76.60 136.16 80.48 142.74 80.69 149.07 C 81.83 157.36 76.85 164.78 76.79 172.96 C 76.36 177.33 77.25 181.87 75.82 186.11 C 75.04 189.06 72.69 191.21 71.43 193.94 C 72.26 193.76 73.92 193.42 74.75 193.25 C 70.58 197.19 67.82 202.34 63.64 206.25 C 61.11 206.18 58.61 206.61 56.19 207.30 C 51.68 208.95 47.67 205.26 43.17 205.33 C 42.56 204.63 41.96 203.92 41.35 203.22 C 44.19 201.08 46.25 197.81 49.79 196.74 C 53.53 195.42 55.71 191.92 57.82 188.80 C 60.31 184.94 63.90 181.98 66.75 178.40 C 65.80 178.59 63.91 178.98 62.96 179.17 C 64.60 173.05 68.02 167.31 67.85 160.83 C 68.16 156.96 69.64 153.11 68.61 149.22 C 67.84 146.22 68.20 142.95 66.77 140.15 C 65.75 146.57 66.76 153.06 66.75 159.52 C 63.58 154.97 63.80 149.25 64.32 143.99 C 64.98 136.73 61.15 129.98 61.16 122.83 C 62.40 119.14 65.19 116.19 67.46 113.09 M 71.01 126.89 C 69.05 129.33 68.32 132.30 68.92 135.39 C 70.76 132.71 71.59 129.52 72.89 126.58 C 72.42 126.65 71.48 126.81 71.01 126.89 M 74.76 142.89 C 74.79 144.96 75.01 147.02 75.47 149.03 C 75.46 150.42 75.43 151.81 75.40 153.20 C 74.06 156.71 74.85 160.54 73.80 164.10 C 73.95 163.92 74.26 163.57 74.41 163.40 C 76.26 158.25 76.91 152.60 75.70 147.23 C 75.39 145.78 75.10 144.33 74.76 142.89 M 67.40 178.19 C 68.19 180.83 68.81 183.51 68.86 186.28 C 69.28 186.38 70.11 186.58 70.53 186.68 C 71.04 183.43 70.88 179.72 67.40 178.19 M 48.90 203.57 C 50.05 203.49 51.19 203.40 52.33 203.28 C 56.14 203.79 59.96 202.93 63.76 202.63 C 61.41 199.35 57.21 202.15 53.93 201.25 C 51.82 200.63 50.38 202.43 48.90 203.57 Z" />
<path fill="#FFFFFF" opacity="1.00" d=" M 105.57 144.89 C 103.52 138.28 104.71 129.76 111.26 126.10 C 119.92 129.06 122.30 139.86 119.78 147.77 C 118.89 150.73 116.32 153.82 112.91 153.30 C 108.99 152.34 106.57 148.58 105.57 144.89 Z" />
<path fill="#FFFFFF" opacity="1.00" d=" M 37.47 129.11 C 38.29 128.70 39.92 127.86 40.73 127.45 C 40.73 128.14 40.73 129.53 40.73 130.22 C 42.42 131.91 44.50 133.14 46.97 133.03 C 52.13 133.10 56.87 135.18 61.66 136.83 C 62.75 142.20 60.89 147.59 61.58 152.99 C 61.62 157.13 63.98 160.86 63.64 165.02 C 63.88 168.83 62.72 172.47 61.51 176.02 C 58.89 173.99 55.52 174.39 52.45 173.93 C 51.00 170.83 48.81 168.12 47.56 164.94 C 46.51 160.66 45.43 156.33 45.47 151.90 C 45.47 148.47 43.62 145.48 42.42 142.39 C 40.55 138.04 39.28 133.48 37.47 129.11 M 57.28 136.35 C 58.03 144.79 57.54 153.25 57.38 161.71 C 53.95 161.42 50.22 158.64 46.98 160.79 C 50.59 163.05 54.93 163.75 59.14 163.62 C 59.51 156.44 59.60 149.25 59.69 142.06 C 59.83 139.87 58.39 138.10 57.28 136.35 Z" />
<path fill="#FFFFFF" opacity="1.00" d=" M 82.87 153.08 C 89.71 149.03 96.74 145.30 103.46 141.04 C 103.47 141.90 103.49 143.63 103.50 144.49 C 104.02 145.47 104.54 146.46 105.05 147.46 C 97.19 152.19 89.25 156.79 81.50 161.71 C 82.58 158.96 82.67 155.99 82.87 153.08 Z" />
</g>
<g id="#252524ff">
<path fill="#333333" opacity="1.00" d=" M 115.52 27.66 C 118.53 26.58 122.27 24.49 125.23 26.72 C 129.05 29.16 132.23 32.74 133.84 37.01 C 133.75 38.58 133.69 40.15 133.63 41.73 C 136.18 42.53 138.64 43.58 141.02 44.78 C 141.38 46.92 141.79 49.05 142.30 51.16 C 140.92 53.95 138.89 56.33 136.45 58.25 C 138.58 61.07 139.69 64.51 139.07 68.04 C 140.23 71.75 141.76 75.34 142.78 79.09 C 142.75 82.02 142.34 84.94 142.70 87.87 C 142.13 87.58 140.98 87.00 140.41 86.71 C 140.58 81.41 141.34 75.54 137.43 71.26 C 137.25 67.07 137.72 62.23 134.37 59.06 C 131.50 55.07 126.32 54.93 121.88 55.06 C 118.59 52.69 115.06 50.67 111.34 49.05 C 107.33 51.22 102.52 49.22 98.56 51.37 C 93.98 53.71 89.33 56.06 85.58 59.65 C 85.87 61.82 87.19 64.33 84.98 66.01 C 84.49 63.67 82.80 60.88 84.66 58.70 C 87.58 55.16 91.56 52.24 96.04 51.06 C 99.38 49.25 102.85 47.25 106.81 47.63 C 107.09 45.74 107.42 43.86 107.87 42.01 C 106.58 40.35 105.61 38.49 105.34 36.38 C 108.69 33.41 111.18 29.38 115.52 27.66 M 107.73 38.96 C 108.26 42.00 109.84 44.98 108.17 48.03 C 113.31 46.05 117.92 49.44 122.08 51.97 C 123.75 48.05 127.38 45.83 131.55 45.46 C 132.78 42.45 133.12 39.16 132.78 35.93 C 131.94 33.17 129.52 31.30 127.49 29.40 C 124.93 26.97 121.16 27.58 117.94 27.56 C 113.64 30.37 108.82 33.54 107.73 38.96 M 133.99 43.39 C 132.43 45.75 130.72 48.30 127.74 48.91 C 126.16 50.08 124.60 51.29 123.08 52.53 C 127.42 53.60 131.97 54.36 135.69 57.04 C 137.04 54.90 138.40 52.75 139.55 50.49 C 139.08 48.82 138.68 47.13 138.34 45.43 C 136.90 44.74 135.44 44.06 133.99 43.39 Z" />
<path fill="#333333" opacity="1.00" d=" M 98.41 56.18 C 99.99 57.89 101.64 59.53 103.10 61.35 C 105.87 61.40 109.38 61.17 111.01 63.93 C 112.20 66.07 114.44 66.80 116.70 67.24 C 116.27 67.62 115.42 68.38 114.99 68.77 C 113.03 68.42 110.82 67.99 110.96 65.54 C 108.60 64.14 106.10 61.99 103.22 62.35 C 103.09 64.60 104.27 66.80 104.40 69.08 C 104.88 69.50 105.84 70.35 106.32 70.77 C 106.82 73.67 107.12 76.59 107.38 79.52 C 106.75 79.77 105.47 80.26 104.84 80.50 C 104.94 81.10 105.14 82.29 105.24 82.88 L 105.72 83.63 C 105.69 83.98 105.62 84.67 105.58 85.01 C 102.88 87.04 99.80 88.55 97.27 90.84 C 101.36 93.43 104.71 96.92 107.25 101.03 C 112.09 95.14 114.76 87.09 122.00 83.58 C 121.52 78.44 119.49 73.31 120.88 68.13 C 122.02 64.84 120.04 61.75 119.26 58.62 C 119.69 58.31 120.55 57.69 120.98 57.38 C 121.32 63.38 126.58 66.97 129.05 72.00 C 126.15 71.46 124.45 68.98 122.69 66.89 C 122.41 69.83 120.67 72.97 122.17 75.82 C 123.95 79.40 124.10 83.55 125.99 87.08 C 127.32 88.85 129.14 90.18 130.65 91.79 C 131.16 90.08 131.70 88.33 133.32 87.31 C 132.95 92.12 130.19 96.21 129.26 100.86 C 127.44 107.55 126.14 114.37 125.45 121.27 C 124.84 121.84 123.62 122.99 123.02 123.57 C 123.92 116.70 125.03 109.86 125.98 102.99 C 126.26 100.22 127.95 97.72 127.84 94.92 C 126.74 91.13 124.06 88.09 122.17 84.69 C 121.07 88.03 121.42 91.57 121.44 95.02 C 121.55 102.69 121.57 110.36 121.70 118.03 C 121.69 120.18 121.89 122.40 121.15 124.46 C 122.32 124.01 123.53 123.63 124.72 123.23 C 123.15 125.87 121.87 128.68 120.07 131.18 C 122.23 136.09 122.94 141.61 121.83 146.88 C 121.09 150.15 118.72 152.64 117.35 155.63 L 117.07 155.41 C 112.51 155.69 108.19 153.65 105.73 149.78 C 98.31 153.94 91.17 158.59 83.87 162.96 C 82.68 163.67 81.35 164.08 80.05 164.52 C 79.85 165.52 79.45 167.53 79.25 168.53 C 84.04 169.73 89.37 170.02 93.27 173.38 C 92.71 175.99 92.57 178.66 92.19 181.29 L 90.49 181.33 C 90.07 178.82 90.73 176.31 90.87 173.81 C 86.74 172.54 81.97 172.27 78.85 168.90 C 78.48 173.12 78.27 177.36 78.30 181.59 C 79.79 182.16 81.29 182.73 82.79 183.28 C 85.04 181.78 87.37 180.38 89.94 179.48 C 89.70 183.03 85.28 183.56 83.02 185.56 C 81.58 185.06 80.15 184.56 78.71 184.08 C 76.67 187.91 76.22 192.22 75.22 196.36 C 72.39 199.51 69.84 202.95 66.80 205.90 C 62.91 208.32 58.78 211.50 53.91 210.87 C 49.52 210.83 45.83 208.09 41.53 207.58 C 37.86 205.26 40.79 201.39 42.99 199.23 C 45.18 196.48 48.69 195.48 51.28 193.25 C 54.12 189.72 56.01 185.46 59.50 182.45 C 60.02 181.13 60.53 179.81 61.04 178.48 C 58.47 177.47 55.88 176.52 53.22 175.77 C 53.83 178.98 53.70 182.24 53.58 185.48 C 49.14 190.54 41.11 188.52 36.98 193.99 C 34.29 197.79 29.34 197.46 25.57 199.44 C 23.40 200.40 20.60 200.86 18.52 199.46 C 17.44 198.02 16.69 196.38 15.84 194.81 C 16.52 193.29 17.07 191.71 17.57 190.13 C 20.55 187.30 24.65 185.70 26.83 182.07 C 28.78 178.91 31.39 176.22 33.26 173.03 C 33.63 169.05 34.66 164.46 31.99 161.04 C 28.47 156.29 25.89 150.79 25.13 144.89 C 24.78 141.46 22.78 138.63 21.00 135.81 C 20.12 130.61 18.17 125.68 16.04 120.88 C 17.23 115.81 22.64 114.06 25.30 110.03 C 28.57 105.41 34.10 103.60 38.83 100.94 C 40.77 99.85 42.93 99.27 45.03 98.57 C 49.06 100.96 54.68 101.32 57.21 105.74 C 58.52 109.06 60.85 113.02 58.85 116.52 C 57.81 118.39 56.89 120.58 54.87 121.58 C 51.50 123.54 48.24 125.73 44.50 126.95 C 44.54 127.84 44.62 129.62 44.65 130.51 C 50.26 132.09 56.61 130.44 61.69 133.67 C 60.62 130.55 59.24 127.40 59.34 124.02 C 59.12 120.27 61.68 117.23 63.39 114.12 C 65.14 111.12 68.03 109.02 71.27 107.89 C 71.37 107.29 71.58 106.09 71.68 105.50 C 74.82 105.03 77.86 106.19 80.81 107.11 C 89.17 109.45 91.03 119.39 92.53 126.73 C 95.29 124.68 98.35 123.12 101.26 121.31 C 104.99 118.64 104.26 113.56 106.23 109.86 C 106.00 108.90 105.77 107.94 105.54 106.98 C 106.03 106.01 106.52 105.03 107.01 104.05 C 104.09 101.53 102.92 97.49 99.53 95.45 C 96.46 93.60 93.76 90.82 90.03 90.40 C 85.32 89.17 80.48 88.65 75.65 89.40 C 75.33 90.76 75.82 92.68 74.12 93.22 C 72.26 93.57 70.36 93.51 68.48 93.55 C 66.43 95.44 64.42 97.88 61.42 98.08 C 56.11 98.31 50.82 99.05 45.49 98.56 C 49.23 97.32 53.19 97.14 56.99 96.15 C 58.52 95.66 60.11 95.95 61.65 96.26 C 64.32 93.70 67.01 90.47 71.12 90.80 C 72.23 89.63 73.14 87.96 75.08 88.14 C 76.41 84.79 78.58 81.71 79.01 78.06 C 79.46 75.36 79.27 72.30 81.34 70.20 C 80.48 75.90 80.76 82.08 76.96 86.84 C 78.61 86.86 80.27 86.85 81.92 86.83 C 86.80 88.67 92.28 88.08 97.04 90.40 C 97.91 88.88 98.58 87.12 100.07 86.07 C 101.15 85.12 102.79 84.61 103.09 83.02 C 103.29 80.96 104.15 79.07 105.02 77.22 C 105.20 75.59 105.76 73.97 105.72 72.33 C 104.88 70.80 103.97 69.30 103.53 67.59 C 102.65 66.65 101.78 65.69 100.92 64.73 C 98.97 65.34 96.94 65.65 94.99 66.27 C 92.96 70.23 92.06 74.62 91.72 79.03 C 89.98 80.84 88.22 82.63 86.23 84.16 C 87.27 81.92 88.79 79.96 90.09 77.88 C 90.52 73.19 92.08 68.75 93.79 64.40 C 90.99 65.61 87.77 66.32 85.59 68.59 C 84.32 70.15 85.07 73.82 82.50 73.81 C 82.96 71.42 83.74 69.12 84.62 66.86 C 87.53 65.31 90.43 63.73 93.54 62.63 C 94.99 63.06 96.48 63.28 98.00 63.32 C 99.72 63.11 101.45 62.89 103.11 62.38 C 99.66 62.08 98.12 59.31 98.41 56.18 M 111.84 97.85 C 109.59 100.43 108.18 103.59 106.65 106.62 C 107.16 107.09 108.16 108.04 108.66 108.51 C 108.13 111.40 107.74 114.32 107.11 117.19 C 105.63 120.57 102.57 122.94 99.21 124.30 C 95.35 125.81 92.37 128.76 89.06 131.15 C 89.39 130.12 90.07 128.06 90.41 127.02 C 88.05 127.90 85.70 128.76 83.31 129.55 C 82.17 131.21 80.39 132.77 80.46 134.96 C 80.55 140.44 82.97 145.59 82.81 151.11 C 89.55 147.56 95.87 143.25 102.76 139.99 C 103.46 135.33 103.97 130.06 107.76 126.75 C 110.97 124.47 115.53 124.86 117.99 128.15 C 117.98 127.29 117.96 125.58 117.95 124.73 C 118.34 126.17 118.50 127.64 118.49 129.13 C 118.79 129.65 119.39 130.68 119.69 131.19 C 119.96 116.76 119.72 102.32 119.67 87.89 C 116.26 90.56 114.71 94.71 111.84 97.85 M 42.88 99.46 C 42.70 100.22 42.34 101.73 42.16 102.49 C 36.13 104.72 29.43 106.97 25.71 112.62 C 24.08 115.39 20.88 116.56 18.96 119.03 C 18.69 124.40 22.84 128.92 22.89 134.33 C 24.66 136.99 26.43 139.74 27.04 142.93 C 28.79 150.36 32.62 156.99 35.85 163.83 C 35.41 166.74 35.92 169.71 35.50 172.62 C 34.88 175.00 32.92 176.65 31.51 178.56 C 29.65 180.78 28.48 183.47 26.62 185.68 C 24.87 187.32 22.67 188.36 20.76 189.79 C 19.03 190.86 18.79 193.08 17.88 194.75 C 18.45 195.64 19.01 196.54 19.57 197.44 C 20.14 197.53 21.27 197.70 21.84 197.78 C 24.60 195.57 28.15 195.74 31.43 195.16 C 34.99 192.65 37.66 188.74 42.02 187.46 C 45.50 186.46 50.43 185.76 51.17 181.41 C 51.76 175.66 47.99 170.89 45.56 166.04 C 43.99 163.50 44.54 160.23 42.74 157.79 C 42.52 154.24 43.57 150.39 41.75 147.11 C 39.57 141.89 37.53 136.54 36.31 131.01 C 36.74 125.74 42.86 124.96 46.96 124.06 C 50.04 122.55 52.99 120.67 55.77 118.67 C 58.11 114.92 56.13 110.37 54.21 106.86 C 52.03 102.48 46.83 101.55 42.88 99.46 M 67.46 113.09 C 65.19 116.19 62.40 119.14 61.16 122.83 C 61.15 129.98 64.98 136.73 64.32 143.99 C 63.80 149.25 63.58 154.97 66.75 159.52 C 66.76 153.06 65.75 146.57 66.77 140.15 C 68.20 142.95 67.84 146.22 68.61 149.22 C 69.64 153.11 68.16 156.96 67.85 160.83 C 68.02 167.31 64.60 173.05 62.96 179.17 C 63.91 178.98 65.80 178.59 66.75 178.40 C 63.90 181.98 60.31 184.94 57.82 188.80 C 55.71 191.92 53.53 195.42 49.79 196.74 C 46.25 197.81 44.19 201.08 41.35 203.22 C 41.96 203.92 42.56 204.63 43.17 205.33 C 47.67 205.26 51.68 208.95 56.19 207.30 C 58.61 206.61 61.11 206.18 63.64 206.25 C 67.82 202.34 70.58 197.19 74.75 193.25 C 73.92 193.42 72.26 193.76 71.43 193.94 C 72.69 191.21 75.04 189.06 75.82 186.11 C 77.25 181.87 76.36 177.33 76.79 172.96 C 76.85 164.78 81.83 157.36 80.69 149.07 C 80.48 142.74 76.60 136.16 79.80 130.05 C 81.16 125.86 86.60 126.05 90.18 125.60 C 88.90 120.76 87.35 115.81 84.20 111.83 C 82.46 109.54 79.65 108.70 77.11 107.69 C 73.91 109.53 69.78 109.98 67.46 113.09 M 105.57 144.89 C 106.57 148.58 108.99 152.34 112.91 153.30 C 116.32 153.82 118.89 150.73 119.78 147.77 C 122.30 139.86 119.92 129.06 111.26 126.10 C 104.71 129.76 103.52 138.28 105.57 144.89 M 37.47 129.11 C 39.28 133.48 40.55 138.04 42.42 142.39 C 43.62 145.48 45.47 148.47 45.47 151.90 C 45.43 156.33 46.51 160.66 47.56 164.94 C 48.81 168.12 51.00 170.83 52.45 173.93 C 55.52 174.39 58.89 173.99 61.51 176.02 C 62.72 172.47 63.88 168.83 63.64 165.02 C 63.98 160.86 61.62 157.13 61.58 152.99 C 60.89 147.59 62.75 142.20 61.66 136.83 C 56.87 135.18 52.13 133.10 46.97 133.03 C 44.50 133.14 42.42 131.91 40.73 130.22 C 40.73 129.53 40.73 128.14 40.73 127.45 C 39.92 127.86 38.29 128.70 37.47 129.11 M 82.87 153.08 C 82.67 155.99 82.58 158.96 81.50 161.71 C 89.25 156.79 97.19 152.19 105.05 147.46 C 104.54 146.46 104.02 145.47 103.50 144.49 C 103.49 143.63 103.47 141.90 103.46 141.04 C 96.74 145.30 89.71 149.03 82.87 153.08 Z" />
<path fill="#333333" opacity="1.00" d=" M 90.81 60.22 C 92.63 59.63 94.46 59.10 96.30 58.58 C 96.36 59.17 96.46 60.36 96.51 60.95 C 94.60 60.82 92.69 60.62 90.81 60.22 Z" />
<path fill="#333333" opacity="1.00" d=" M 109.67 72.23 C 112.02 72.35 114.26 73.11 116.18 74.45 C 113.67 74.98 111.29 74.23 109.67 72.23 Z" />
<path fill="#333333" opacity="1.00" d=" M 108.21 76.50 C 110.85 76.86 113.48 77.33 116.05 78.04 C 113.54 80.63 110.09 78.81 108.21 76.50 Z" />
<path fill="#333333" opacity="1.00" d=" M 138.59 95.96 C 138.31 92.51 136.38 89.04 138.04 85.63 C 139.13 89.07 140.16 92.59 140.38 96.21 C 139.18 98.68 137.33 100.76 135.84 103.06 C 135.51 103.24 134.85 103.60 134.52 103.79 C 135.72 101.10 137.17 98.54 138.59 95.96 Z" />
<path fill="#333333" opacity="1.00" d=" M 141.65 91.84 C 141.65 90.39 142.23 89.05 142.92 87.82 C 143.35 90.87 143.92 94.03 143.00 97.07 C 141.65 102.32 141.00 107.71 139.92 113.02 C 139.38 115.88 137.44 118.15 136.21 120.70 C 141.31 124.80 143.30 131.70 142.99 138.03 C 142.29 142.69 140.08 148.43 134.88 149.44 C 133.28 149.88 132.23 148.40 131.17 147.51 C 133.86 147.21 137.31 147.53 138.81 144.73 C 143.21 137.42 141.53 126.44 134.30 121.51 C 132.61 126.10 134.84 131.05 132.82 135.52 C 131.52 138.80 132.92 143.21 129.71 145.57 C 127.35 146.88 124.58 147.04 121.96 147.32 C 123.24 144.46 126.64 144.70 129.10 143.62 C 130.48 140.98 129.91 137.77 131.03 135.02 C 132.20 132.48 131.72 129.70 131.66 127.00 C 132.78 120.26 138.35 114.99 138.83 108.03 C 139.49 102.58 141.13 97.30 141.65 91.84 Z" />
<path fill="#333333" opacity="1.00" d=" M 27.67 117.53 C 27.98 117.58 28.61 117.67 28.92 117.72 C 30.17 118.44 31.30 120.05 32.93 119.52 C 34.55 118.94 36.04 118.06 37.64 117.44 C 38.71 120.27 35.16 121.38 32.95 121.31 C 30.94 121.49 29.30 120.14 27.59 119.31 C 27.61 118.86 27.65 117.97 27.67 117.53 Z" />
<path fill="#333333" opacity="1.00" d=" M 26.33 129.45 C 26.91 127.38 27.76 125.39 29.15 123.73 C 29.21 125.17 29.18 126.62 29.09 128.06 C 30.02 129.55 32.22 130.73 31.66 132.73 C 29.76 131.84 28.09 130.56 26.33 129.45 Z" />
<path fill="#333333" opacity="1.00" d=" M 71.01 126.89 C 71.48 126.81 72.42 126.65 72.89 126.58 C 71.59 129.52 70.76 132.71 68.92 135.39 C 68.32 132.30 69.05 129.33 71.01 126.89 Z" />
<path fill="#333333" opacity="1.00" d=" M 129.12 131.31 C 128.33 129.64 127.53 127.43 129.83 126.48 C 129.68 128.10 129.44 129.71 129.12 131.31 Z" />
<path fill="#333333" opacity="1.00" d=" M 57.28 136.35 C 58.39 138.10 59.83 139.87 59.69 142.06 C 59.60 149.25 59.51 156.44 59.14 163.62 C 54.93 163.75 50.59 163.05 46.98 160.79 C 50.22 158.64 53.95 161.42 57.38 161.71 C 57.54 153.25 58.03 144.79 57.28 136.35 Z" />
<path fill="#333333" opacity="1.00" d=" M 74.76 142.89 C 75.10 144.33 75.39 145.78 75.70 147.23 C 76.91 152.60 76.26 158.25 74.41 163.40 C 74.26 163.57 73.95 163.92 73.80 164.10 C 74.85 160.54 74.06 156.71 75.40 153.20 C 75.43 151.81 75.46 150.42 75.47 149.03 C 75.01 147.02 74.79 144.96 74.76 142.89 Z" />
<path fill="#333333" opacity="1.00" d=" M 44.55 170.59 C 46.91 173.29 47.71 177.35 45.02 180.12 C 45.05 180.94 45.11 182.57 45.14 183.38 C 43.39 183.95 41.63 184.47 39.85 184.89 C 40.82 183.74 41.83 182.62 42.88 181.54 C 44.52 178.10 44.53 174.31 44.55 170.59 Z" />
<path fill="#333333" opacity="1.00" d=" M 36.27 176.05 C 36.71 174.76 38.07 174.36 39.13 173.75 C 37.19 177.82 35.17 182.02 31.95 185.25 C 32.73 181.91 34.71 179.05 36.27 176.05 Z" />
<path fill="#333333" opacity="1.00" d=" M 67.40 178.19 C 70.88 179.72 71.04 183.43 70.53 186.68 C 70.11 186.58 69.28 186.38 68.86 186.28 C 68.81 183.51 68.19 180.83 67.40 178.19 Z" />
<path fill="#333333" opacity="1.00" d=" M 48.90 203.57 C 50.38 202.43 51.82 200.63 53.93 201.25 C 57.21 202.15 61.41 199.35 63.76 202.63 C 59.96 202.93 56.14 203.79 52.33 203.28 C 51.19 203.40 50.05 203.49 48.90 203.57 Z" />
</g>
</svg>
