<?xml version="1.0" encoding="UTF-8" ?>
<!DOCTYPE svg PUBLIC "-//W3C//DTD SVG 1.1//EN" "http://www.w3.org/Graphics/SVG/1.1/DTD/svg11.dtd">
<svg width="221pt" height="275pt" viewBox="0 0 221 275" version="1.1" xmlns="http://www.w3.org/2000/svg">
<g id="#ffffffff">
<path fill="#FFFFFF" opacity="1.00" d=" M 0.00 0.00 L 221.00 0.00 L 221.00 114.45 C 217.00 115.56 212.93 116.44 208.85 117.22 C 208.47 117.65 207.73 118.52 207.35 118.95 C 205.81 111.94 203.77 103.70 196.97 99.96 C 193.37 97.71 189.07 99.05 185.40 100.33 C 181.18 102.16 179.21 106.73 177.85 110.83 C 176.21 115.56 175.72 120.60 176.17 125.57 C 166.48 127.12 157.27 130.86 147.56 132.18 C 145.03 129.73 141.49 132.10 138.51 132.14 C 137.46 130.37 136.28 128.67 135.44 126.79 C 135.02 123.57 135.85 120.19 134.60 117.10 C 133.25 113.78 130.70 110.80 130.67 107.07 C 130.68 99.32 130.51 91.45 128.23 83.99 C 128.92 78.01 128.78 71.09 124.47 66.41 C 119.42 62.51 111.96 62.05 106.26 64.78 C 106.34 63.74 106.51 61.65 106.60 60.61 C 109.01 61.29 111.48 61.79 113.99 61.97 C 112.37 60.15 109.95 59.81 107.72 59.24 C 109.15 55.37 109.84 51.29 110.34 47.21 C 110.94 42.73 109.09 38.44 108.46 34.06 C 107.86 30.16 103.95 27.34 100.12 27.30 C 95.05 26.78 89.03 27.40 85.83 31.90 C 82.59 36.28 84.51 41.89 85.02 46.81 C 85.94 47.84 86.86 48.88 87.77 49.91 C 87.65 52.98 87.48 56.05 87.21 59.12 C 85.45 60.03 83.65 60.90 82.05 62.08 C 79.36 64.10 78.26 67.63 75.30 69.35 C 70.37 72.43 66.41 77.91 66.88 83.94 C 67.36 89.15 64.60 94.10 65.52 99.29 C 66.25 104.46 70.79 108.51 69.97 114.00 C 69.28 119.81 71.26 125.32 72.48 130.91 C 74.02 137.26 78.88 142.23 80.02 148.74 C 70.68 151.74 60.99 153.43 51.52 155.94 C 50.18 149.53 47.61 142.93 42.44 138.65 C 38.52 135.48 33.05 136.89 28.92 138.79 C 21.65 144.68 20.37 154.95 20.42 163.74 C 16.29 164.66 12.17 165.65 8.02 166.49 C 4.64 167.24 5.56 174.50 9.27 173.14 C 17.46 171.17 25.82 169.60 33.75 166.79 C 34.07 164.84 34.03 161.94 32.08 160.93 C 28.30 161.48 24.65 162.71 20.93 163.54 C 22.54 156.18 22.27 147.69 27.76 141.83 C 30.06 139.00 33.94 138.96 37.18 138.02 C 40.43 139.90 43.92 141.85 45.80 145.27 C 51.93 156.14 52.85 170.04 47.40 181.38 C 46.16 183.82 44.47 186.30 41.93 187.51 C 38.79 188.07 35.40 188.66 32.26 187.77 C 27.92 185.70 25.57 181.11 24.12 176.75 C 23.31 174.67 23.04 172.21 21.26 170.67 C 22.08 177.20 24.43 184.05 29.57 188.44 C 33.17 191.60 38.37 190.30 42.58 189.49 C 46.38 187.61 48.39 183.54 49.93 179.80 C 52.91 172.76 52.41 164.95 51.98 157.50 C 61.09 155.66 70.08 153.28 79.14 151.18 C 82.16 150.46 85.22 149.75 88.08 148.49 C 88.16 147.22 88.05 145.94 88.08 144.68 C 90.86 144.20 93.83 144.34 96.36 142.92 C 95.21 142.60 94.06 142.31 92.90 142.06 C 91.29 139.54 89.60 136.97 89.00 133.99 C 87.86 129.73 88.44 125.23 87.09 121.00 C 89.32 122.82 91.79 124.70 94.81 124.71 C 100.55 124.96 106.39 127.40 112.05 125.21 C 115.16 124.04 120.07 124.39 120.69 120.18 C 115.97 121.98 111.07 123.51 106.01 123.88 C 102.66 123.55 99.37 122.70 95.98 122.62 C 92.84 122.72 90.10 120.98 87.06 120.52 C 85.77 118.51 84.41 116.54 82.96 114.65 C 86.60 108.89 84.81 102.10 84.45 95.78 C 85.81 95.20 87.17 94.61 88.49 93.93 C 87.50 94.16 85.52 94.62 84.52 94.86 C 83.86 93.41 83.18 91.97 82.49 90.54 C 82.88 89.83 83.66 88.41 84.05 87.70 C 87.72 90.55 92.28 94.92 97.21 92.13 C 99.95 89.97 103.09 88.59 106.31 87.31 C 110.21 83.87 109.20 77.76 105.39 74.68 C 106.68 78.28 107.57 82.12 106.21 85.85 C 103.76 86.72 101.14 87.31 99.01 88.87 C 97.46 89.85 95.90 91.11 93.95 91.02 C 90.90 91.32 88.72 88.75 86.42 87.18 C 86.02 87.18 85.20 87.18 84.80 87.18 C 87.07 82.74 87.48 77.63 86.03 72.88 C 83.31 71.97 79.71 70.89 77.72 73.69 C 78.96 73.57 80.20 73.42 81.43 73.25 C 82.69 73.80 83.95 74.35 85.21 74.90 C 85.09 79.69 86.01 86.77 80.33 88.75 C 83.15 94.81 83.04 101.52 83.44 108.04 C 83.43 110.85 81.51 113.14 80.35 115.55 C 80.92 115.81 82.08 116.32 82.65 116.58 C 87.62 122.63 85.25 130.97 88.41 137.72 C 89.35 139.81 91.12 141.34 92.68 142.95 C 89.83 142.31 87.10 142.82 85.31 145.38 L 87.43 146.73 C 86.87 146.58 86.32 146.42 85.78 146.25 C 84.81 147.74 83.02 148.07 81.49 148.70 C 81.11 144.40 78.59 140.88 76.76 137.13 C 73.96 131.79 73.20 125.73 71.89 119.93 C 72.12 115.08 72.02 110.18 70.15 105.60 C 70.71 105.66 71.84 105.78 72.41 105.84 C 71.70 103.39 71.13 100.90 70.26 98.49 C 70.33 99.56 70.47 101.70 70.54 102.77 C 70.03 103.41 69.52 104.06 69.00 104.70 C 67.18 100.09 66.47 94.88 68.05 90.10 C 69.22 86.83 68.51 83.32 69.11 79.97 C 70.02 76.38 72.84 73.66 75.82 71.65 C 78.65 69.81 79.97 66.53 82.45 64.34 C 84.25 63.01 86.37 62.22 88.36 61.24 C 88.52 57.47 88.80 53.70 88.75 49.92 C 90.71 52.14 91.90 54.90 93.80 57.15 C 96.99 59.55 101.03 60.48 104.97 60.50 C 105.09 62.61 106.33 64.94 105.06 66.91 C 102.24 68.99 98.67 66.38 95.51 66.47 C 95.61 62.95 93.41 60.15 91.10 57.75 C 92.29 60.72 93.53 63.68 94.60 66.70 C 92.30 67.10 90.00 67.54 87.70 67.90 C 87.64 68.30 87.53 69.09 87.48 69.49 C 89.74 69.12 91.97 68.58 94.24 68.24 C 97.21 67.72 99.97 69.23 102.86 69.58 C 104.61 68.94 105.68 67.28 107.15 66.22 C 109.77 64.95 112.62 64.28 115.46 63.70 C 118.83 65.46 122.53 67.15 124.42 70.67 C 126.97 74.61 127.22 79.63 125.92 84.05 C 126.26 84.57 126.95 85.60 127.29 86.11 C 127.65 89.79 128.94 93.33 129.03 97.04 C 129.24 100.30 128.68 103.54 128.63 106.80 C 129.15 113.24 134.31 118.40 133.96 124.99 C 133.90 128.44 136.23 131.29 136.75 134.64 C 137.09 137.29 140.14 138.27 142.43 137.59 C 140.90 136.53 139.33 135.52 137.79 134.50 C 140.14 133.75 142.51 133.07 144.89 132.44 C 146.17 134.73 149.33 136.93 148.07 139.85 C 146.12 144.67 140.58 145.85 136.08 147.03 C 134.48 145.98 133.11 144.62 131.61 143.44 C 133.10 142.84 134.56 142.16 135.93 141.30 C 131.45 140.83 127.24 142.67 122.91 143.47 C 117.03 144.67 111.27 146.37 105.39 147.58 C 105.46 146.87 105.60 145.44 105.67 144.73 C 115.17 141.57 125.83 141.64 134.51 136.27 C 132.46 136.34 130.44 136.61 128.43 136.94 C 126.52 132.55 122.67 128.90 122.58 123.87 C 122.44 120.56 122.03 117.23 120.58 114.21 C 120.84 111.79 120.97 109.36 121.29 106.95 C 121.80 103.85 124.00 101.18 124.00 97.99 C 123.28 93.69 122.37 89.42 122.01 85.07 C 122.75 84.42 123.50 83.78 124.25 83.14 C 124.02 82.24 123.54 80.43 123.31 79.52 C 122.39 81.25 121.65 83.06 121.07 84.92 C 118.66 84.29 116.22 84.61 113.88 85.38 C 112.58 84.81 111.29 84.22 110.00 83.63 C 109.76 84.03 109.26 84.81 109.02 85.20 C 112.12 87.25 115.72 87.04 118.99 85.43 C 121.57 87.91 121.20 91.81 122.06 95.05 C 123.30 99.66 120.52 103.80 118.16 107.48 C 117.48 107.35 116.13 107.10 115.46 106.97 C 115.03 105.19 114.53 103.42 113.89 101.70 C 113.35 104.10 112.88 106.51 112.38 108.91 C 113.04 108.76 114.37 108.45 115.03 108.29 C 115.53 108.62 116.52 109.27 117.02 109.60 C 117.67 109.03 118.97 107.88 119.62 107.30 C 119.53 109.25 119.52 111.23 119.01 113.12 C 122.25 116.25 120.27 121.08 121.02 125.01 C 121.20 129.87 124.42 133.67 127.02 137.49 C 122.89 139.37 118.29 139.57 113.97 140.80 C 111.42 141.36 108.72 142.54 106.17 141.39 C 110.56 139.53 115.00 137.78 119.43 136.01 C 119.37 134.93 119.33 133.86 119.29 132.79 C 113.39 133.06 107.55 134.24 101.95 136.09 C 100.56 136.47 99.54 137.53 98.49 138.43 C 104.82 137.44 110.87 134.58 117.38 134.85 C 113.47 136.81 109.34 138.27 105.48 140.31 C 105.68 141.28 105.88 142.26 106.09 143.23 C 103.61 143.03 101.13 142.98 98.65 142.85 C 97.26 144.09 95.87 145.34 94.58 146.69 C 93.33 147.35 92.09 148.03 90.88 148.76 C 94.70 149.82 97.24 146.74 99.24 144.05 C 100.17 144.22 102.01 144.56 102.93 144.74 C 104.47 148.22 105.37 152.41 102.99 155.73 C 98.61 156.82 94.15 157.74 89.63 157.98 C 88.30 156.65 86.88 155.42 85.41 154.28 C 86.81 153.64 90.19 154.63 89.79 152.16 C 87.46 152.07 85.18 152.66 82.94 153.20 C 73.88 155.43 64.80 157.52 55.75 159.79 C 54.74 160.26 52.73 160.21 53.21 161.84 C 54.66 162.55 56.20 161.77 57.66 161.49 C 65.25 159.30 72.95 157.48 80.67 155.80 C 79.56 156.84 78.44 157.87 77.32 158.89 C 78.43 161.22 80.15 163.37 82.86 163.76 C 82.31 168.15 83.23 172.56 82.83 176.95 C 81.67 181.23 80.23 185.48 80.11 189.96 C 80.17 197.63 75.05 204.33 75.39 212.05 C 75.97 219.81 80.04 227.13 78.94 235.05 C 77.25 243.39 81.31 251.25 82.92 259.25 C 86.41 264.83 94.87 265.84 100.23 262.43 C 102.05 261.90 104.98 261.58 104.72 258.99 C 104.46 254.41 100.03 251.75 97.93 248.03 C 95.53 243.45 91.91 239.29 91.47 233.93 C 90.68 227.23 91.44 220.26 94.06 214.02 C 96.25 208.05 93.68 201.58 95.35 195.52 C 96.13 192.22 97.42 189.07 98.44 185.83 C 99.41 182.65 101.75 180.10 102.75 176.93 C 103.95 173.34 104.21 169.54 104.35 165.78 C 105.24 164.84 106.13 163.91 107.02 162.97 C 108.41 166.10 110.34 168.93 112.13 171.84 C 113.97 174.78 113.11 178.51 114.43 181.64 C 115.97 185.32 117.46 189.08 120.00 192.22 C 120.95 188.86 119.26 185.91 117.89 183.01 C 116.19 179.59 117.18 175.41 115.09 172.14 C 113.48 169.40 112.02 166.47 109.60 164.34 C 108.42 163.09 106.73 162.07 106.85 160.05 C 109.53 161.02 112.05 163.07 115.07 162.66 C 120.01 162.37 124.40 159.69 128.18 156.69 C 128.44 160.97 128.66 165.26 128.97 169.55 C 128.48 169.58 127.49 169.65 127.00 169.68 C 126.22 172.00 125.66 174.52 123.98 176.40 C 121.21 176.17 120.00 173.54 119.04 171.32 C 118.85 171.36 118.47 171.45 118.29 171.49 C 119.32 173.67 119.69 176.59 122.03 177.80 C 125.42 178.08 126.73 174.43 128.31 172.17 C 129.08 174.04 130.32 175.90 129.96 178.03 C 128.96 184.48 127.70 191.14 129.11 197.62 C 131.02 206.09 128.13 215.16 131.75 223.31 C 134.50 226.21 137.49 228.90 139.91 232.10 C 142.28 235.31 146.14 236.81 149.99 237.26 C 150.73 238.20 151.46 239.16 152.18 240.12 C 150.44 241.04 148.78 242.14 146.94 242.85 C 144.33 243.01 141.73 242.56 139.13 242.48 C 136.53 241.24 133.94 239.55 130.94 239.74 C 127.27 239.56 123.11 241.05 119.96 238.49 C 120.29 233.93 120.48 229.29 121.95 224.92 C 122.10 220.91 122.33 216.86 121.83 212.86 C 121.38 209.34 118.59 206.65 118.13 203.13 C 117.42 198.91 116.64 194.60 117.42 190.32 C 116.98 189.52 116.52 188.73 116.07 187.94 C 115.25 192.56 114.48 197.30 114.99 202.00 C 116.48 206.87 120.15 210.93 120.44 216.19 C 122.04 224.09 116.37 231.59 118.50 239.43 C 122.87 244.15 129.51 239.19 134.42 242.40 C 140.71 245.92 150.22 245.91 154.43 239.23 C 153.21 237.87 152.14 236.33 150.64 235.26 C 147.52 234.44 144.10 233.88 141.95 231.21 C 139.35 228.07 136.33 225.31 133.53 222.38 C 130.31 214.50 132.73 205.70 131.23 197.50 C 129.96 191.58 130.06 185.37 131.40 179.47 C 132.23 176.21 129.96 173.26 130.07 170.02 C 130.08 165.41 129.95 160.79 129.17 156.24 C 129.75 155.99 130.89 155.50 131.47 155.26 C 131.42 154.40 131.38 153.56 131.34 152.71 C 129.01 150.23 128.70 146.80 128.11 143.62 C 131.67 144.39 133.05 149.01 136.97 148.94 C 140.12 148.34 143.22 147.40 146.17 146.16 C 148.82 144.35 150.08 141.18 151.21 138.29 C 159.69 136.14 168.24 134.31 176.68 132.01 C 177.53 139.51 180.50 147.64 187.29 151.68 C 191.20 152.94 195.95 152.53 199.62 150.67 C 207.03 144.08 208.11 133.25 207.97 123.92 C 212.39 123.29 216.75 122.28 221.00 120.95 L 221.00 275.00 L 0.00 275.00 L 0.00 0.00 M 74.13 91.89 C 74.66 91.82 75.72 91.70 76.25 91.63 C 76.40 90.13 77.46 88.55 76.80 87.08 C 75.03 87.98 74.91 90.27 74.13 91.89 M 114.47 88.50 C 113.11 89.62 111.95 91.23 109.96 90.60 C 111.82 92.18 112.78 94.45 112.06 96.87 C 110.73 96.93 109.41 96.98 108.08 97.03 C 107.01 98.49 105.47 99.40 103.71 99.78 C 103.07 100.65 102.45 101.52 101.83 102.40 C 99.88 101.59 97.96 100.66 95.97 99.93 C 97.02 102.15 99.03 103.40 101.44 103.59 C 102.97 102.20 104.80 101.19 106.83 100.75 C 107.18 100.36 107.88 99.59 108.24 99.21 C 110.07 98.96 111.84 98.39 113.37 97.32 C 116.06 97.46 118.74 97.84 121.28 98.80 C 120.54 95.29 116.47 95.98 113.80 95.80 C 113.72 94.29 112.96 93.01 112.05 91.85 C 112.95 91.09 113.85 90.33 114.74 89.57 C 115.83 90.07 116.94 90.55 118.06 91.01 C 117.15 89.89 116.16 88.20 114.47 88.50 M 103.60 92.37 C 102.76 94.57 100.23 95.53 99.72 97.88 C 103.64 96.14 106.02 92.55 108.11 88.98 C 106.07 89.26 104.44 90.49 103.60 92.37 M 86.11 97.75 C 87.04 101.13 90.67 99.30 92.98 98.82 C 92.70 98.37 92.15 97.48 91.87 97.03 C 90.04 97.82 88.07 97.97 86.11 97.75 M 86.69 103.74 C 88.55 103.85 90.41 103.90 92.27 103.95 C 91.47 103.03 90.66 102.12 89.85 101.21 C 88.79 102.05 87.73 102.88 86.69 103.74 M 77.01 104.87 C 76.54 107.02 76.91 109.19 77.39 111.30 C 76.79 111.64 75.60 112.31 75.00 112.65 C 76.83 114.67 78.53 116.80 80.37 118.81 C 83.60 118.52 80.24 115.88 79.45 114.58 C 78.89 111.45 80.07 106.81 77.01 104.87 M 94.44 106.11 C 95.67 109.26 99.93 108.50 100.88 105.56 C 98.74 105.78 96.59 105.96 94.44 106.11 M 89.21 107.14 C 88.59 110.92 93.38 112.78 96.43 111.77 C 94.31 109.83 91.59 108.72 89.21 107.14 M 105.46 109.25 C 103.70 110.52 101.70 109.48 99.83 109.17 C 101.03 110.44 102.52 112.58 104.54 111.65 C 106.63 110.39 109.35 110.79 111.22 109.14 C 109.33 108.80 107.26 108.22 105.46 109.25 M 101.02 112.73 C 100.35 114.11 102.28 116.03 103.64 115.54 C 104.10 114.21 102.51 111.78 101.02 112.73 M 100.82 115.56 C 100.79 118.86 103.94 123.38 107.66 122.29 C 105.25 120.18 102.94 117.96 100.82 115.56 M 116.95 126.29 C 111.85 127.88 106.49 128.88 101.13 128.40 C 97.27 127.94 93.70 126.20 89.80 125.94 C 89.86 126.77 89.98 128.43 90.05 129.27 C 90.40 128.77 91.10 127.79 91.45 127.29 C 93.27 127.95 95.08 128.64 96.80 129.52 C 95.70 131.32 94.48 133.03 93.27 134.75 C 93.63 134.96 94.37 135.39 94.73 135.60 C 96.26 134.04 97.37 132.17 98.02 130.09 C 99.17 129.88 100.33 129.64 101.49 129.40 C 102.57 130.86 104.47 130.33 106.01 130.35 C 110.67 130.06 115.39 129.02 119.47 126.68 C 119.60 126.07 119.86 124.84 119.99 124.22 C 119.02 124.97 118.16 125.93 116.95 126.29 M 122.34 133.39 C 121.47 134.53 123.03 136.74 124.39 135.88 C 124.34 134.48 123.66 133.65 122.34 133.39 M 35.12 140.23 C 36.98 143.58 40.10 146.15 41.24 149.90 C 45.63 161.63 45.56 175.88 38.42 186.54 C 41.43 186.06 42.51 183.04 43.39 180.55 C 47.01 169.71 46.40 157.50 41.82 147.04 C 40.32 144.22 38.69 140.67 35.12 140.23 M 104.22 141.28 C 104.79 141.86 104.79 141.86 104.22 141.28 M 125.70 234.25 C 124.95 231.54 124.45 228.77 124.44 225.95 C 122.01 228.24 123.04 232.56 125.70 234.25 Z" />
<path fill="#FFFFFF" opacity="1.00" d=" M 89.46 31.39 C 93.05 28.46 97.84 28.44 102.23 28.61 C 104.30 30.45 106.98 32.21 107.31 35.22 C 108.00 39.46 109.63 43.68 108.82 48.04 C 108.30 50.98 108.09 53.99 107.19 56.84 C 106.17 57.60 105.05 58.22 103.96 58.88 C 101.30 58.01 98.61 57.19 96.04 56.05 C 93.67 54.97 92.84 52.31 91.88 50.10 C 90.22 49.11 88.50 48.16 87.07 46.85 C 86.77 45.14 87.66 43.55 88.10 41.95 C 87.49 42.09 86.26 42.36 85.65 42.50 C 85.15 38.52 85.82 33.77 89.46 31.39 Z" />
<path fill="#FFFFFF" opacity="1.00" d=" M 184.49 102.49 C 187.96 100.67 192.74 99.07 196.14 101.86 C 202.21 105.06 204.27 112.24 205.69 118.44 C 206.93 127.73 206.94 138.28 201.23 146.19 C 198.52 150.14 193.32 150.41 189.00 150.04 C 185.40 148.53 182.56 145.46 180.92 141.96 C 179.32 138.79 178.96 135.15 177.07 132.12 C 180.95 130.92 184.95 130.18 188.81 128.92 C 189.12 127.95 189.43 126.97 189.75 125.99 C 189.26 124.86 188.77 123.72 188.29 122.59 C 184.36 123.35 180.51 124.48 176.58 125.21 C 178.05 117.43 177.88 108.03 184.49 102.49 M 190.93 101.71 C 191.18 104.16 193.44 105.55 194.62 107.53 C 201.83 119.92 201.94 136.31 193.94 148.37 C 197.74 147.46 198.57 143.05 199.86 139.93 C 202.93 128.32 201.73 115.21 195.11 105.01 C 194.15 103.43 192.58 102.43 190.93 101.71 Z" />
<path fill="#FFFFFF" opacity="1.00" d=" M 207.13 119.47 C 211.71 118.10 216.40 117.18 221.00 115.92 L 221.00 119.62 C 216.65 120.75 212.21 121.52 207.89 122.80 C 207.70 121.97 207.32 120.30 207.13 119.47 Z" />
<path fill="#FFFFFF" opacity="1.00" d=" M 151.45 133.16 C 163.11 130.90 174.47 127.19 186.10 124.75 C 187.83 123.72 189.11 126.80 187.51 127.43 C 175.38 131.08 162.90 133.35 150.71 136.77 C 150.21 136.11 149.21 134.78 148.71 134.12 C 149.06 133.61 149.43 133.12 149.80 132.63 L 151.45 133.16 Z" />
<path fill="#FFFFFF" opacity="1.00" d=" M 106.39 149.19 C 113.15 147.66 120.08 146.75 126.61 144.29 C 126.82 147.61 127.12 151.17 129.72 153.61 C 127.60 154.51 125.65 155.74 123.92 157.26 C 121.35 159.50 118.03 160.51 114.80 161.35 C 112.23 160.41 109.60 159.46 106.82 159.50 C 107.39 155.96 111.14 155.54 113.97 154.85 C 115.84 153.48 116.29 150.99 116.92 148.89 C 114.64 149.30 114.18 151.90 113.02 153.52 C 110.52 153.87 107.75 154.21 105.94 156.18 C 105.37 158.29 105.26 160.50 104.92 162.65 C 101.44 165.03 97.14 166.37 92.92 165.91 C 90.18 165.32 87.68 163.97 85.07 162.98 C 85.07 161.18 85.06 159.38 85.03 157.58 C 82.70 157.85 82.63 160.55 81.62 162.16 C 81.01 161.27 80.41 160.39 79.82 159.51 C 80.61 158.06 81.28 156.55 81.84 155.00 C 85.57 154.76 86.71 159.40 90.08 160.37 C 91.02 159.23 92.42 158.73 93.89 158.99 C 98.40 158.94 103.58 157.90 106.17 153.78 C 107.47 152.51 106.64 150.68 106.39 149.19 Z" />
<path fill="#FFFFFF" opacity="1.00" d=" M 10.39 167.44 C 17.77 166.65 24.78 163.98 32.09 162.96 C 32.25 163.52 32.57 164.62 32.73 165.18 C 25.65 167.68 18.10 168.67 10.99 171.15 C 10.84 170.22 10.54 168.37 10.39 167.44 Z" />
<path fill="#FFFFFF" opacity="1.00" d=" M 84.02 164.75 C 86.70 165.60 89.20 166.97 91.89 167.81 C 95.61 168.48 99.34 167.26 102.92 166.37 C 102.66 170.67 101.89 175.04 100.09 178.97 C 96.30 184.72 94.80 191.54 92.59 197.98 C 90.32 202.07 88.08 206.36 87.73 211.12 C 87.68 212.99 87.07 215.28 88.85 216.61 C 90.10 211.49 89.22 205.66 92.87 201.35 C 92.95 204.58 93.17 207.84 92.81 211.06 C 92.03 214.45 90.03 217.45 89.54 220.92 C 88.57 227.42 88.89 234.30 91.49 240.40 C 93.55 243.71 95.39 247.16 97.40 250.51 C 99.84 253.11 102.06 255.90 103.78 259.04 C 102.59 259.55 101.36 259.95 100.10 260.23 C 99.11 258.69 98.37 255.70 95.90 256.57 C 93.12 257.13 90.27 256.82 87.48 257.17 C 87.31 257.59 86.95 258.42 86.77 258.83 C 87.72 258.65 88.67 258.48 89.63 258.31 C 92.63 260.36 96.95 256.17 98.76 260.26 C 94.73 263.92 88.08 262.60 85.10 258.26 C 84.63 252.19 81.19 246.91 80.05 240.99 C 80.04 238.30 81.09 235.71 81.01 233.02 C 80.72 227.00 78.71 221.29 77.37 215.47 C 75.99 208.97 78.39 202.47 80.99 196.61 C 82.92 198.93 82.18 203.73 85.44 204.71 C 83.80 199.60 82.46 194.39 81.69 189.08 C 81.82 184.53 84.02 180.46 84.97 176.10 C 85.07 172.29 84.28 168.53 84.02 164.75 M 87.51 179.79 C 87.32 181.60 87.16 183.43 87.09 185.26 C 87.78 184.12 88.44 182.97 89.10 181.83 C 90.82 181.44 92.52 180.98 94.19 180.44 C 94.86 181.49 95.59 182.50 96.38 183.48 C 96.00 181.60 95.36 179.79 94.68 178.01 C 92.49 179.28 90.05 179.94 87.51 179.79 M 89.17 189.13 C 89.32 189.62 89.61 190.61 89.75 191.11 C 90.66 191.04 92.47 190.91 93.38 190.84 C 93.10 188.61 90.75 189.33 89.17 189.13 M 82.75 242.72 C 85.69 240.85 86.52 237.36 88.29 234.58 C 84.66 235.07 83.64 239.73 82.75 242.72 Z" />
<path fill="#FFFFFF" opacity="1.00" d=" M 8.20 168.31 C 9.63 168.27 9.46 170.71 8.70 171.46 C 7.31 171.47 7.33 169.02 8.20 168.31 Z" />
</g>
<g id="#414241ff">
<path fill="#333333" opacity="1.00" d=" M 85.83 31.90 C 89.03 27.40 95.05 26.78 100.12 27.30 C 103.95 27.34 107.86 30.16 108.46 34.06 C 109.09 38.44 110.94 42.73 110.34 47.21 C 109.84 51.29 109.15 55.37 107.72 59.24 C 109.95 59.81 112.37 60.15 113.99 61.97 C 111.48 61.79 109.01 61.29 106.60 60.61 C 106.51 61.65 106.34 63.74 106.26 64.78 C 111.96 62.05 119.42 62.51 124.47 66.41 C 128.78 71.09 128.92 78.01 128.23 83.99 C 130.51 91.45 130.68 99.32 130.67 107.07 C 130.70 110.80 133.25 113.78 134.60 117.10 C 135.85 120.19 135.02 123.57 135.44 126.79 C 136.28 128.67 137.46 130.37 138.51 132.14 C 141.49 132.10 145.03 129.73 147.56 132.18 C 157.27 130.86 166.48 127.12 176.17 125.57 C 175.72 120.60 176.21 115.56 177.85 110.83 C 179.21 106.73 181.18 102.16 185.40 100.33 C 189.07 99.05 193.37 97.71 196.97 99.96 C 203.77 103.70 205.81 111.94 207.35 118.95 C 207.73 118.52 208.47 117.65 208.85 117.22 C 212.93 116.44 217.00 115.56 221.00 114.45 L 221.00 115.92 C 216.40 117.18 211.71 118.10 207.13 119.47 C 207.32 120.30 207.70 121.97 207.89 122.80 C 212.21 121.52 216.65 120.75 221.00 119.62 L 221.00 120.95 C 216.75 122.28 212.39 123.29 207.97 123.92 C 208.11 133.25 207.03 144.08 199.62 150.67 C 195.95 152.53 191.20 152.94 187.29 151.68 C 180.50 147.64 177.53 139.51 176.68 132.01 C 168.24 134.31 159.69 136.14 151.21 138.29 C 150.08 141.18 148.82 144.35 146.17 146.16 C 143.22 147.40 140.12 148.34 136.97 148.94 C 133.05 149.01 131.67 144.39 128.11 143.62 C 128.70 146.80 129.01 150.23 131.34 152.71 C 131.38 153.56 131.42 154.40 131.47 155.26 C 130.89 155.50 129.75 155.99 129.17 156.24 C 129.95 160.79 130.08 165.41 130.07 170.02 C 129.96 173.26 132.23 176.21 131.40 179.47 C 130.06 185.37 129.96 191.58 131.23 197.50 C 132.73 205.70 130.31 214.50 133.53 222.38 C 136.33 225.31 139.35 228.07 141.95 231.21 C 144.10 233.88 147.52 234.44 150.64 235.26 C 152.14 236.33 153.21 237.87 154.43 239.23 C 150.22 245.91 140.71 245.92 134.42 242.40 C 129.51 239.19 122.87 244.15 118.50 239.43 C 116.37 231.59 122.04 224.09 120.44 216.19 C 120.15 210.93 116.48 206.87 114.99 202.00 C 114.48 197.30 115.25 192.56 116.07 187.94 C 116.52 188.73 116.98 189.52 117.42 190.32 C 116.64 194.60 117.42 198.91 118.13 203.13 C 118.59 206.65 121.38 209.34 121.83 212.86 C 122.33 216.86 122.10 220.91 121.95 224.92 C 120.48 229.29 120.29 233.93 119.96 238.49 C 123.11 241.05 127.27 239.56 130.94 239.74 C 133.94 239.55 136.53 241.24 139.13 242.48 C 141.73 242.56 144.33 243.01 146.94 242.85 C 148.78 242.14 150.44 241.04 152.18 240.12 C 151.46 239.16 150.73 238.20 149.99 237.26 C 146.14 236.81 142.28 235.31 139.91 232.10 C 137.49 228.90 134.50 226.21 131.75 223.31 C 128.13 215.16 131.02 206.09 129.11 197.62 C 127.70 191.14 128.96 184.48 129.96 178.03 C 130.32 175.90 129.08 174.04 128.31 172.17 C 126.73 174.43 125.42 178.08 122.03 177.80 C 119.69 176.59 119.32 173.67 118.29 171.49 C 118.47 171.45 118.85 171.36 119.04 171.32 C 120.00 173.54 121.21 176.17 123.98 176.40 C 125.66 174.52 126.22 172.00 127.00 169.68 C 127.49 169.65 128.48 169.58 128.97 169.55 C 128.66 165.26 128.44 160.97 128.18 156.69 C 124.40 159.69 120.01 162.37 115.07 162.66 C 112.05 163.07 109.53 161.02 106.85 160.05 C 106.73 162.07 108.42 163.09 109.60 164.34 C 112.02 166.47 113.48 169.40 115.09 172.14 C 117.18 175.41 116.19 179.59 117.89 183.01 C 119.26 185.91 120.95 188.86 120.00 192.22 C 117.46 189.08 115.97 185.32 114.43 181.64 C 113.11 178.51 113.97 174.78 112.13 171.84 C 110.34 168.93 108.41 166.10 107.02 162.97 C 106.13 163.91 105.24 164.84 104.35 165.78 C 104.21 169.54 103.95 173.34 102.75 176.93 C 101.75 180.10 99.41 182.65 98.44 185.83 C 97.42 189.07 96.13 192.22 95.35 195.52 C 93.68 201.58 96.25 208.05 94.06 214.02 C 91.44 220.26 90.68 227.23 91.47 233.93 C 91.91 239.29 95.53 243.45 97.93 248.03 C 100.03 251.75 104.46 254.41 104.72 258.99 C 104.98 261.58 102.05 261.90 100.23 262.43 C 94.87 265.84 86.41 264.83 82.92 259.25 C 81.31 251.25 77.25 243.39 78.94 235.05 C 80.04 227.13 75.97 219.81 75.39 212.05 C 75.05 204.33 80.17 197.63 80.11 189.96 C 80.23 185.48 81.67 181.23 82.83 176.95 C 83.23 172.56 82.31 168.15 82.86 163.76 C 80.15 163.37 78.43 161.22 77.32 158.89 C 78.44 157.87 79.56 156.84 80.67 155.80 C 72.95 157.48 65.25 159.30 57.66 161.49 C 56.20 161.77 54.66 162.55 53.21 161.84 C 52.73 160.21 54.74 160.26 55.75 159.79 C 64.80 157.52 73.88 155.43 82.94 153.20 C 85.18 152.66 87.46 152.07 89.79 152.16 C 90.19 154.63 86.81 153.64 85.41 154.28 C 86.88 155.42 88.30 156.65 89.63 157.98 C 94.15 157.74 98.61 156.82 102.99 155.73 C 105.37 152.41 104.47 148.22 102.93 144.74 C 102.01 144.56 100.17 144.22 99.24 144.05 C 97.24 146.74 94.70 149.82 90.88 148.76 C 92.09 148.03 93.33 147.35 94.58 146.69 C 95.87 145.34 97.26 144.09 98.65 142.85 C 101.13 142.98 103.61 143.03 106.09 143.23 C 105.88 142.26 105.68 141.28 105.48 140.31 C 109.34 138.27 113.47 136.81 117.38 134.85 C 110.87 134.58 104.82 137.44 98.49 138.43 C 99.54 137.53 100.56 136.47 101.95 136.09 C 107.55 134.24 113.39 133.06 119.29 132.79 C 119.33 133.86 119.37 134.93 119.43 136.01 C 115.00 137.78 110.56 139.53 106.17 141.39 C 108.72 142.54 111.42 141.36 113.97 140.80 C 118.29 139.57 122.89 139.37 127.02 137.49 C 124.42 133.67 121.20 129.87 121.02 125.01 C 120.27 121.08 122.25 116.25 119.01 113.12 C 119.52 111.23 119.53 109.25 119.62 107.30 C 118.97 107.88 117.67 109.03 117.02 109.60 C 116.52 109.27 115.53 108.62 115.03 108.29 C 114.37 108.45 113.04 108.76 112.38 108.91 C 112.88 106.51 113.35 104.10 113.89 101.70 C 114.53 103.42 115.03 105.19 115.46 106.97 C 116.13 107.10 117.48 107.35 118.16 107.48 C 120.52 103.80 123.30 99.66 122.06 95.05 C 121.20 91.81 121.57 87.91 118.99 85.43 C 115.72 87.04 112.12 87.25 109.02 85.20 C 109.26 84.81 109.76 84.03 110.00 83.63 C 111.29 84.22 112.58 84.81 113.88 85.38 C 116.22 84.61 118.66 84.29 121.07 84.92 C 121.65 83.06 122.39 81.25 123.31 79.52 C 123.54 80.43 124.02 82.24 124.25 83.14 C 123.50 83.78 122.75 84.42 122.01 85.07 C 122.37 89.42 123.28 93.69 124.00 97.99 C 124.00 101.18 121.80 103.85 121.29 106.95 C 120.97 109.36 120.84 111.79 120.58 114.21 C 122.03 117.23 122.44 120.56 122.58 123.87 C 122.67 128.90 126.52 132.55 128.43 136.94 C 130.44 136.61 132.46 136.34 134.51 136.27 C 125.83 141.64 115.17 141.57 105.67 144.73 C 105.60 145.44 105.46 146.87 105.39 147.58 C 111.27 146.37 117.03 144.67 122.91 143.47 C 127.24 142.67 131.45 140.83 135.93 141.30 C 134.56 142.16 133.10 142.84 131.61 143.44 C 133.11 144.62 134.48 145.98 136.08 147.03 C 140.58 145.85 146.12 144.67 148.07 139.85 C 149.33 136.93 146.17 134.73 144.89 132.44 C 142.51 133.07 140.14 133.75 137.79 134.50 C 139.33 135.52 140.90 136.53 142.43 137.59 C 140.14 138.27 137.09 137.29 136.75 134.64 C 136.23 131.29 133.90 128.44 133.96 124.99 C 134.31 118.40 129.15 113.24 128.63 106.80 C 128.68 103.54 129.24 100.30 129.03 97.04 C 128.94 93.33 127.65 89.79 127.29 86.11 C 126.95 85.60 126.26 84.57 125.92 84.05 C 127.22 79.63 126.97 74.61 124.42 70.67 C 122.53 67.15 118.83 65.46 115.46 63.70 C 112.62 64.28 109.77 64.95 107.15 66.22 C 105.68 67.28 104.61 68.94 102.86 69.58 C 99.97 69.23 97.21 67.72 94.24 68.24 C 91.97 68.58 89.74 69.12 87.48 69.49 C 87.53 69.09 87.64 68.30 87.70 67.90 C 90.00 67.54 92.30 67.10 94.60 66.70 C 93.53 63.68 92.29 60.72 91.10 57.75 C 93.41 60.15 95.61 62.95 95.51 66.47 C 98.67 66.38 102.24 68.99 105.06 66.91 C 106.33 64.94 105.09 62.61 104.97 60.50 C 101.03 60.48 96.99 59.55 93.80 57.15 C 91.90 54.90 90.71 52.14 88.75 49.92 C 88.80 53.70 88.52 57.47 88.36 61.24 C 86.37 62.22 84.25 63.01 82.45 64.34 C 79.97 66.53 78.65 69.81 75.82 71.65 C 72.84 73.66 70.02 76.38 69.11 79.97 C 68.51 83.32 69.22 86.83 68.05 90.10 C 66.47 94.88 67.18 100.09 69.00 104.70 C 69.52 104.06 70.03 103.41 70.54 102.77 C 70.47 101.70 70.33 99.56 70.26 98.49 C 71.13 100.90 71.70 103.39 72.41 105.84 C 71.84 105.78 70.71 105.66 70.15 105.60 C 72.02 110.18 72.12 115.08 71.89 119.93 C 73.20 125.73 73.96 131.79 76.76 137.13 C 78.59 140.88 81.11 144.40 81.49 148.70 C 83.02 148.07 84.81 147.74 85.78 146.25 C 86.32 146.42 86.87 146.58 87.43 146.73 L 85.31 145.38 C 87.10 142.82 89.83 142.31 92.68 142.95 C 91.12 141.34 89.35 139.81 88.41 137.72 C 85.25 130.97 87.62 122.63 82.65 116.58 C 82.08 116.32 80.92 115.81 80.35 115.55 C 81.51 113.14 83.43 110.85 83.44 108.04 C 83.04 101.52 83.15 94.81 80.33 88.75 C 86.01 86.77 85.09 79.69 85.21 74.90 C 83.95 74.35 82.69 73.80 81.43 73.25 C 80.20 73.42 78.96 73.57 77.72 73.69 C 79.71 70.89 83.31 71.97 86.03 72.88 C 87.48 77.63 87.07 82.74 84.80 87.18 C 85.20 87.18 86.02 87.18 86.42 87.18 C 88.72 88.75 90.90 91.32 93.95 91.02 C 95.90 91.11 97.46 89.85 99.01 88.87 C 101.14 87.31 103.76 86.72 106.21 85.85 C 107.57 82.12 106.68 78.28 105.39 74.68 C 109.20 77.76 110.21 83.87 106.31 87.31 C 103.09 88.59 99.95 89.97 97.21 92.13 C 92.28 94.92 87.72 90.55 84.05 87.70 C 83.66 88.41 82.88 89.83 82.49 90.54 C 83.18 91.97 83.86 93.41 84.52 94.86 C 85.52 94.62 87.50 94.16 88.49 93.93 C 87.17 94.61 85.81 95.20 84.45 95.78 C 84.81 102.10 86.60 108.89 82.96 114.65 C 84.41 116.54 85.77 118.51 87.06 120.52 C 90.10 120.98 92.84 122.72 95.98 122.62 C 99.37 122.70 102.66 123.55 106.01 123.88 C 111.07 123.51 115.97 121.98 120.69 120.18 C 120.07 124.39 115.16 124.04 112.05 125.21 C 106.39 127.40 100.55 124.96 94.81 124.71 C 91.79 124.70 89.32 122.82 87.09 121.00 C 88.44 125.23 87.86 129.73 89.00 133.99 C 89.60 136.97 91.29 139.54 92.90 142.06 C 94.06 142.31 95.21 142.60 96.36 142.92 C 93.83 144.34 90.86 144.20 88.08 144.68 C 88.05 145.94 88.16 147.22 88.08 148.49 C 85.22 149.75 82.16 150.46 79.14 151.18 C 70.08 153.28 61.09 155.66 51.98 157.50 C 52.41 164.95 52.91 172.76 49.93 179.80 C 48.39 183.54 46.38 187.61 42.58 189.49 C 38.37 190.30 33.17 191.60 29.57 188.44 C 24.43 184.05 22.08 177.20 21.26 170.67 C 23.04 172.21 23.31 174.67 24.12 176.75 C 25.57 181.11 27.92 185.70 32.26 187.77 C 35.40 188.66 38.79 188.07 41.93 187.51 C 44.47 186.30 46.16 183.82 47.40 181.38 C 52.85 170.04 51.93 156.14 45.80 145.27 C 43.92 141.85 40.43 139.90 37.18 138.02 C 33.94 138.96 30.06 139.00 27.76 141.83 C 22.27 147.69 22.54 156.18 20.93 163.54 C 24.65 162.71 28.30 161.48 32.08 160.93 C 34.03 161.94 34.07 164.84 33.75 166.79 C 25.82 169.60 17.46 171.17 9.27 173.14 C 5.56 174.50 4.64 167.24 8.02 166.49 C 12.17 165.65 16.29 164.66 20.42 163.74 C 20.37 154.95 21.65 144.68 28.92 138.79 C 33.05 136.89 38.52 135.48 42.44 138.65 C 47.61 142.93 50.18 149.53 51.52 155.94 C 60.99 153.43 70.68 151.74 80.02 148.74 C 78.88 142.23 74.02 137.26 72.48 130.91 C 71.26 125.32 69.28 119.81 69.97 114.00 C 70.79 108.51 66.25 104.46 65.52 99.29 C 64.60 94.10 67.36 89.15 66.88 83.94 C 66.41 77.91 70.37 72.43 75.30 69.35 C 78.26 67.63 79.36 64.10 82.05 62.08 C 83.65 60.90 85.45 60.03 87.21 59.12 C 87.48 56.05 87.65 52.98 87.77 49.91 C 86.86 48.88 85.94 47.84 85.02 46.81 C 84.51 41.89 82.59 36.28 85.83 31.90 M 89.46 31.39 C 85.82 33.77 85.15 38.52 85.65 42.50 C 86.26 42.36 87.49 42.09 88.10 41.95 C 87.66 43.55 86.77 45.14 87.07 46.85 C 88.50 48.16 90.22 49.11 91.88 50.10 C 92.84 52.31 93.67 54.97 96.04 56.05 C 98.61 57.19 101.30 58.01 103.96 58.88 C 105.05 58.22 106.17 57.60 107.19 56.84 C 108.09 53.99 108.30 50.98 108.82 48.04 C 109.63 43.68 108.00 39.46 107.31 35.22 C 106.98 32.21 104.30 30.45 102.23 28.61 C 97.84 28.44 93.05 28.46 89.46 31.39 M 184.49 102.49 C 177.88 108.03 178.05 117.43 176.58 125.21 C 180.51 124.48 184.36 123.35 188.29 122.59 C 188.77 123.72 189.26 124.86 189.75 125.99 C 189.43 126.97 189.12 127.95 188.81 128.92 C 184.95 130.18 180.95 130.92 177.07 132.12 C 178.96 135.15 179.32 138.79 180.92 141.96 C 182.56 145.46 185.40 148.53 189.00 150.04 C 193.32 150.41 198.52 150.14 201.23 146.19 C 206.94 138.28 206.93 127.73 205.69 118.44 C 204.27 112.24 202.21 105.06 196.14 101.86 C 192.74 99.07 187.96 100.67 184.49 102.49 M 151.45 133.16 L 149.80 132.63 C 149.43 133.12 149.06 133.61 148.71 134.12 C 149.21 134.78 150.21 136.11 150.71 136.77 C 162.90 133.35 175.38 131.08 187.51 127.43 C 189.11 126.80 187.83 123.72 186.10 124.75 C 174.47 127.19 163.11 130.90 151.45 133.16 M 106.39 149.19 C 106.64 150.68 107.47 152.51 106.17 153.78 C 103.58 157.90 98.40 158.94 93.89 158.99 C 92.42 158.73 91.02 159.23 90.08 160.37 C 86.71 159.40 85.57 154.76 81.84 155.00 C 81.28 156.55 80.61 158.06 79.82 159.51 C 80.41 160.39 81.01 161.27 81.62 162.16 C 82.63 160.55 82.70 157.85 85.03 157.58 C 85.06 159.38 85.07 161.18 85.07 162.98 C 87.68 163.97 90.18 165.32 92.92 165.91 C 97.14 166.37 101.44 165.03 104.92 162.65 C 105.26 160.50 105.37 158.29 105.94 156.18 C 107.75 154.21 110.52 153.87 113.02 153.52 C 114.18 151.90 114.64 149.30 116.92 148.89 C 116.29 150.99 115.84 153.48 113.97 154.85 C 111.14 155.54 107.39 155.96 106.82 159.50 C 109.60 159.46 112.23 160.41 114.80 161.35 C 118.03 160.51 121.35 159.50 123.92 157.26 C 125.65 155.74 127.60 154.51 129.72 153.61 C 127.12 151.17 126.82 147.61 126.61 144.29 C 120.08 146.75 113.15 147.66 106.39 149.19 M 10.39 167.44 C 10.54 168.37 10.84 170.22 10.99 171.15 C 18.10 168.67 25.65 167.68 32.73 165.18 C 32.57 164.62 32.25 163.52 32.09 162.96 C 24.78 163.98 17.77 166.65 10.39 167.44 M 84.02 164.75 C 84.28 168.53 85.07 172.29 84.97 176.10 C 84.02 180.46 81.82 184.53 81.69 189.08 C 82.46 194.39 83.80 199.60 85.44 204.71 C 82.18 203.73 82.92 198.93 80.99 196.61 C 78.39 202.47 75.99 208.97 77.37 215.47 C 78.71 221.29 80.72 227.00 81.01 233.02 C 81.09 235.71 80.04 238.30 80.05 240.99 C 81.19 246.91 84.63 252.19 85.10 258.26 C 88.08 262.60 94.73 263.92 98.76 260.26 C 96.95 256.17 92.63 260.36 89.63 258.31 C 88.67 258.48 87.72 258.65 86.77 258.83 C 86.95 258.42 87.31 257.59 87.48 257.17 C 90.27 256.82 93.12 257.13 95.90 256.57 C 98.37 255.70 99.11 258.69 100.10 260.23 C 101.36 259.95 102.59 259.55 103.78 259.04 C 102.06 255.90 99.84 253.11 97.40 250.51 C 95.39 247.16 93.55 243.71 91.49 240.40 C 88.89 234.30 88.57 227.42 89.54 220.92 C 90.03 217.45 92.03 214.45 92.81 211.06 C 93.17 207.84 92.95 204.58 92.87 201.35 C 89.22 205.66 90.10 211.49 88.85 216.61 C 87.07 215.28 87.68 212.99 87.73 211.12 C 88.08 206.36 90.32 202.07 92.59 197.98 C 94.80 191.54 96.30 184.72 100.09 178.97 C 101.89 175.04 102.66 170.67 102.92 166.37 C 99.34 167.26 95.61 168.48 91.89 167.81 C 89.20 166.97 86.70 165.60 84.02 164.75 M 8.20 168.31 C 7.33 169.02 7.31 171.47 8.70 171.46 C 9.46 170.71 9.63 168.27 8.20 168.31 Z" />
<path fill="#333333" opacity="1.00" d=" M 74.13 91.89 C 74.91 90.27 75.03 87.98 76.80 87.08 C 77.46 88.55 76.40 90.13 76.25 91.63 C 75.72 91.70 74.66 91.82 74.13 91.89 Z" />
<path fill="#333333" opacity="1.00" d=" M 114.47 88.50 C 116.16 88.20 117.15 89.89 118.06 91.01 C 116.94 90.55 115.83 90.07 114.74 89.57 C 113.85 90.33 112.95 91.09 112.05 91.85 C 112.96 93.01 113.72 94.29 113.80 95.80 C 116.47 95.98 120.54 95.29 121.28 98.80 C 118.74 97.84 116.06 97.46 113.37 97.32 C 111.84 98.39 110.07 98.96 108.24 99.21 C 107.88 99.59 107.18 100.36 106.83 100.75 C 104.80 101.19 102.97 102.20 101.44 103.59 C 99.03 103.40 97.02 102.15 95.97 99.93 C 97.96 100.66 99.88 101.59 101.83 102.40 C 102.45 101.52 103.07 100.65 103.71 99.78 C 105.47 99.40 107.01 98.49 108.08 97.03 C 109.41 96.98 110.73 96.93 112.06 96.87 C 112.78 94.45 111.82 92.18 109.96 90.60 C 111.95 91.23 113.11 89.62 114.47 88.50 Z" />
<path fill="#333333" opacity="1.00" d=" M 103.60 92.37 C 104.44 90.49 106.07 89.26 108.11 88.98 C 106.02 92.55 103.64 96.14 99.72 97.88 C 100.23 95.53 102.76 94.57 103.60 92.37 Z" />
<path fill="#333333" opacity="1.00" d=" M 86.11 97.75 C 88.07 97.97 90.04 97.82 91.87 97.03 C 92.15 97.48 92.70 98.37 92.98 98.82 C 90.67 99.30 87.04 101.13 86.11 97.75 Z" />
<path fill="#333333" opacity="1.00" d=" M 86.69 103.74 C 87.73 102.88 88.79 102.05 89.85 101.21 C 90.66 102.12 91.47 103.03 92.27 103.95 C 90.41 103.90 88.55 103.85 86.69 103.74 Z" />
<path fill="#333333" opacity="1.00" d=" M 190.93 101.71 C 192.58 102.43 194.15 103.43 195.11 105.01 C 201.73 115.21 202.93 128.32 199.86 139.93 C 198.57 143.05 197.74 147.46 193.94 148.37 C 201.94 136.31 201.83 119.92 194.62 107.53 C 193.44 105.55 191.18 104.16 190.93 101.71 Z" />
<path fill="#333333" opacity="1.00" d=" M 77.01 104.87 C 80.07 106.81 78.89 111.45 79.45 114.58 C 80.24 115.88 83.60 118.52 80.37 118.81 C 78.53 116.80 76.83 114.67 75.00 112.65 C 75.60 112.31 76.79 111.64 77.39 111.30 C 76.91 109.19 76.54 107.02 77.01 104.87 Z" />
<path fill="#333333" opacity="1.00" d=" M 94.44 106.11 C 96.59 105.96 98.74 105.78 100.88 105.56 C 99.93 108.50 95.67 109.26 94.44 106.11 Z" />
<path fill="#333333" opacity="1.00" d=" M 89.21 107.14 C 91.59 108.72 94.31 109.83 96.43 111.77 C 93.38 112.78 88.59 110.92 89.21 107.14 Z" />
<path fill="#333333" opacity="1.00" d=" M 105.46 109.25 C 107.26 108.22 109.33 108.80 111.22 109.14 C 109.35 110.79 106.63 110.39 104.54 111.65 C 102.52 112.58 101.03 110.44 99.83 109.17 C 101.70 109.48 103.70 110.52 105.46 109.25 Z" />
<path fill="#333333" opacity="1.00" d=" M 101.02 112.73 C 102.51 111.78 104.10 114.21 103.64 115.54 C 102.28 116.03 100.35 114.11 101.02 112.73 Z" />
<path fill="#333333" opacity="1.00" d=" M 100.82 115.56 C 102.94 117.96 105.25 120.18 107.66 122.29 C 103.94 123.38 100.79 118.86 100.82 115.56 Z" />
<path fill="#333333" opacity="1.00" d=" M 116.95 126.29 C 118.16 125.93 119.02 124.97 119.99 124.22 C 119.86 124.84 119.60 126.07 119.47 126.68 C 115.39 129.02 110.67 130.06 106.01 130.35 C 104.47 130.33 102.57 130.86 101.49 129.40 C 100.33 129.64 99.17 129.88 98.02 130.09 C 97.37 132.17 96.26 134.04 94.73 135.60 C 94.37 135.39 93.63 134.96 93.27 134.75 C 94.48 133.03 95.70 131.32 96.80 129.52 C 95.08 128.64 93.27 127.95 91.45 127.29 C 91.10 127.79 90.40 128.77 90.05 129.27 C 89.98 128.43 89.86 126.77 89.80 125.94 C 93.70 126.20 97.27 127.94 101.13 128.40 C 106.49 128.88 111.85 127.88 116.95 126.29 Z" />
<path fill="#333333" opacity="1.00" d=" M 122.34 133.39 C 123.66 133.65 124.34 134.48 124.39 135.88 C 123.03 136.74 121.47 134.53 122.34 133.39 Z" />
<path fill="#333333" opacity="1.00" d=" M 35.12 140.23 C 38.69 140.67 40.32 144.22 41.82 147.04 C 46.40 157.50 47.01 169.71 43.39 180.55 C 42.51 183.04 41.43 186.06 38.42 186.54 C 45.56 175.88 45.63 161.63 41.24 149.90 C 40.10 146.15 36.98 143.58 35.12 140.23 Z" />
<path fill="#333333" opacity="1.00" d=" M 104.22 141.28 C 104.79 141.86 104.79 141.86 104.22 141.28 Z" />
<path fill="#333333" opacity="1.00" d=" M 87.51 179.79 C 90.05 179.94 92.49 179.28 94.68 178.01 C 95.36 179.79 96.00 181.60 96.38 183.48 C 95.59 182.50 94.86 181.49 94.19 180.44 C 92.52 180.98 90.82 181.44 89.10 181.83 C 88.44 182.97 87.78 184.12 87.09 185.26 C 87.16 183.43 87.32 181.60 87.51 179.79 Z" />
<path fill="#333333" opacity="1.00" d=" M 89.17 189.13 C 90.75 189.33 93.10 188.61 93.38 190.84 C 92.47 190.91 90.66 191.04 89.75 191.11 C 89.61 190.61 89.32 189.62 89.17 189.13 Z" />
<path fill="#333333" opacity="1.00" d=" M 125.70 234.25 C 123.04 232.56 122.01 228.24 124.44 225.95 C 124.45 228.77 124.95 231.54 125.70 234.25 Z" />
<path fill="#333333" opacity="1.00" d=" M 82.75 242.72 C 83.64 239.73 84.66 235.07 88.29 234.58 C 86.52 237.36 85.69 240.85 82.75 242.72 Z" />
</g>
</svg>
