<?xml version="1.0" encoding="UTF-8" ?>
<!DOCTYPE svg PUBLIC "-//W3C//DTD SVG 1.1//EN" "http://www.w3.org/Graphics/SVG/1.1/DTD/svg11.dtd">
<svg width="203pt" height="275pt" viewBox="0 0 203 275" version="1.1" xmlns="http://www.w3.org/2000/svg">
<g id="#ffffffff">
<path fill="#FFFFFF" opacity="1.00" d=" M 0.00 0.00 L 203.00 0.00 L 203.00 275.00 L 0.00 275.00 L 0.00 0.00 M 111.68 7.04 C 109.39 24.29 106.67 41.48 104.49 58.74 C 100.91 58.18 97.08 58.31 94.16 55.80 C 93.41 55.76 91.91 55.68 91.16 55.65 C 91.73 52.09 92.59 48.56 92.85 44.96 C 92.67 41.53 91.26 38.31 90.89 34.90 C 90.65 30.87 86.97 27.57 83.01 27.36 C 78.20 26.90 72.47 26.90 69.08 30.96 C 65.37 34.76 66.67 40.42 67.21 45.12 C 67.47 47.27 69.28 48.72 70.48 50.38 C 70.20 53.27 69.84 56.16 69.39 59.03 C 66.26 60.62 63.25 62.49 60.66 64.89 C 55.72 67.66 49.29 71.24 50.41 77.97 C 51.85 83.30 50.71 88.78 51.57 94.14 C 52.57 100.13 58.97 103.65 58.97 109.96 C 59.15 114.21 60.82 118.13 62.67 121.89 C 65.40 127.19 64.57 133.23 65.11 138.96 C 65.54 143.23 62.52 146.84 62.60 151.04 C 62.56 155.38 62.98 159.71 62.82 164.04 C 63.50 164.13 64.85 164.30 65.53 164.38 C 64.31 168.13 65.27 172.05 65.31 175.88 C 64.87 178.99 63.37 181.84 62.97 184.96 C 62.30 188.52 62.40 192.18 61.64 195.72 C 60.10 200.24 58.37 204.76 57.72 209.51 C 57.20 216.21 60.39 222.43 61.14 228.98 C 61.69 232.75 61.17 236.58 60.45 240.29 C 61.11 242.54 61.78 244.80 61.84 247.17 C 61.92 250.03 63.87 252.37 64.36 255.14 C 64.26 263.79 76.77 267.10 82.65 262.07 C 83.27 262.05 84.50 262.01 85.11 261.98 C 85.82 261.30 86.54 260.62 87.25 259.95 C 87.07 256.77 85.19 254.17 83.21 251.84 C 79.79 248.40 78.00 243.81 75.35 239.82 C 72.02 231.20 73.27 221.29 76.71 212.89 C 77.89 206.32 75.83 199.40 78.25 192.99 C 79.84 188.99 80.64 184.62 83.06 181.00 C 85.96 176.54 86.36 171.06 86.68 165.90 C 88.05 164.16 89.21 162.21 91.08 160.94 C 97.44 165.10 105.27 160.96 110.39 156.67 C 110.80 161.06 111.00 165.47 111.01 169.89 C 110.58 169.78 109.74 169.55 109.32 169.44 C 108.48 171.87 108.04 174.76 105.87 176.44 C 103.15 175.72 102.08 172.88 100.71 170.74 C 101.45 173.25 101.64 177.19 104.80 177.86 C 107.96 177.56 109.14 174.30 110.65 172.01 C 111.38 174.25 112.68 176.53 112.11 178.97 C 110.64 185.65 110.06 192.72 111.71 199.43 C 112.50 207.33 110.96 215.50 113.76 223.15 C 116.58 226.33 119.70 229.24 122.44 232.50 C 124.89 235.51 128.65 236.93 132.44 237.26 C 133.04 238.16 133.64 239.05 134.16 240.01 C 131.98 241.35 129.78 243.50 127.00 242.90 C 123.68 242.70 120.29 242.52 117.40 240.69 C 112.88 238.07 107.06 241.78 102.78 238.88 C 102.08 234.42 102.68 229.48 104.28 225.19 C 104.23 221.09 104.53 216.98 104.08 212.90 C 103.67 209.36 100.83 206.65 100.37 203.12 C 99.75 198.28 98.34 193.24 100.33 188.50 L 101.46 192.29 C 103.84 189.40 101.69 186.43 100.38 183.65 C 98.20 179.77 99.77 174.81 96.83 171.23 C 94.80 168.53 93.50 164.36 90.21 163.20 C 89.84 166.14 92.49 168.56 93.84 171.03 C 96.06 173.59 95.62 177.11 96.09 180.23 C 96.70 182.28 97.88 184.11 98.80 186.04 C 97.52 191.20 96.99 196.51 97.13 201.82 C 98.51 206.36 101.90 210.09 102.50 214.91 C 104.61 223.28 98.99 231.12 100.48 239.53 C 101.98 240.31 103.44 241.25 105.11 241.62 C 108.03 242.12 110.96 240.68 113.87 241.33 C 116.27 242.13 118.47 243.41 120.77 244.45 C 123.89 243.80 127.17 245.82 130.09 244.11 C 132.51 243.00 135.92 242.24 136.24 239.04 C 135.37 237.55 134.30 236.10 132.83 235.16 C 130.78 234.51 128.45 234.58 126.67 233.24 C 123.43 231.20 121.44 227.79 118.54 225.36 C 117.23 224.07 115.26 223.10 115.09 221.06 C 112.80 212.80 115.16 204.09 113.19 195.80 C 112.24 192.21 112.96 188.53 112.77 184.89 C 112.67 181.86 114.65 178.93 113.68 175.92 C 111.04 169.81 113.01 162.97 111.46 156.59 C 112.66 155.72 113.80 154.76 114.80 153.66 C 113.77 152.56 112.32 151.57 112.64 149.86 C 112.67 145.48 112.10 141.12 110.63 136.98 C 109.43 134.20 111.53 131.55 112.32 128.97 C 112.14 128.51 111.77 127.60 111.59 127.14 C 112.91 123.82 113.36 120.10 115.67 117.25 C 114.47 117.83 113.26 118.39 112.06 118.96 C 111.71 117.67 111.35 116.38 110.99 115.09 C 110.44 115.66 109.88 116.23 109.33 116.80 C 109.95 117.41 110.57 118.03 111.19 118.65 C 111.02 120.70 110.87 122.76 110.73 124.83 C 109.51 125.53 108.30 126.26 107.02 126.87 C 105.16 126.38 103.96 124.72 102.40 123.71 C 100.37 124.74 98.57 126.17 96.47 127.07 C 96.79 126.01 97.12 124.96 97.44 123.91 C 97.22 119.16 98.52 114.47 99.25 109.79 C 101.20 109.42 102.76 108.23 104.27 107.02 C 104.36 108.38 104.55 111.11 104.64 112.48 C 103.68 112.59 102.72 112.67 101.75 112.72 C 101.65 114.61 102.26 116.23 103.58 117.59 C 102.06 118.53 100.62 119.59 99.31 120.81 L 98.43 120.47 C 98.73 122.04 99.59 123.28 101.10 123.89 C 102.77 121.84 104.64 119.98 106.51 118.11 C 106.29 117.44 103.40 116.89 104.69 115.79 C 106.14 114.48 108.19 114.12 109.95 113.35 C 113.17 106.98 110.66 99.83 112.47 93.20 C 109.05 90.83 106.96 87.09 104.39 83.91 C 105.05 82.58 105.71 81.26 106.37 79.94 C 106.58 75.61 105.84 71.15 102.80 67.84 C 102.28 73.01 101.91 78.23 100.67 83.30 C 98.98 83.69 97.29 84.12 95.82 85.08 C 94.40 84.62 92.94 84.39 91.46 84.41 C 90.94 80.92 90.68 76.86 87.53 74.62 C 88.29 78.33 90.15 82.02 88.53 85.79 C 85.60 87.03 81.79 87.12 80.25 90.38 C 79.61 90.44 78.33 90.57 77.69 90.64 C 78.12 90.89 78.97 91.40 79.40 91.66 C 81.91 90.24 84.42 88.83 87.20 87.99 C 88.80 87.69 89.43 86.16 90.05 84.85 C 91.75 85.68 93.54 86.29 95.30 87.01 C 97.04 86.50 98.80 86.01 100.56 85.54 L 100.27 88.31 C 98.82 87.87 98.09 88.84 97.32 89.65 C 99.50 91.35 100.02 93.78 98.56 96.13 C 98.79 102.53 97.06 108.77 96.14 115.06 C 95.71 115.26 94.86 115.66 94.44 115.86 C 96.10 117.65 95.63 120.11 95.63 122.34 C 93.45 122.93 91.28 123.61 89.04 123.92 C 86.05 123.74 83.09 122.78 80.09 123.39 C 78.71 117.69 76.46 111.89 71.92 107.95 C 72.50 105.35 73.91 102.70 73.05 100.01 C 72.05 96.26 70.86 92.56 70.32 88.71 C 71.05 89.57 72.53 91.30 73.26 92.16 C 73.30 91.67 73.39 90.71 73.43 90.22 C 74.24 90.37 75.85 90.68 76.66 90.83 C 76.56 90.37 76.36 89.46 76.26 89.00 C 73.95 88.20 71.65 87.37 69.31 86.65 C 68.59 85.90 67.86 85.16 67.13 84.42 C 67.92 82.99 68.69 81.55 69.45 80.11 C 69.60 80.52 69.91 81.34 70.06 81.75 C 70.81 81.65 72.30 81.45 73.05 81.34 C 73.41 82.20 74.13 83.90 74.49 84.76 C 74.79 83.46 75.67 82.10 75.13 80.74 C 74.04 78.66 71.25 80.04 69.42 79.78 C 70.15 75.42 70.67 70.20 67.46 66.64 C 65.25 65.20 62.43 66.36 60.01 66.19 C 64.96 64.43 68.94 60.45 74.32 59.90 C 75.13 62.04 76.00 64.15 76.55 66.37 C 74.43 67.01 72.34 67.79 70.68 69.31 C 74.48 68.45 78.34 67.97 82.24 68.17 C 80.78 67.50 79.28 66.87 77.78 66.29 C 77.78 62.70 75.25 60.01 73.45 57.17 C 73.59 57.67 73.86 58.68 73.99 59.18 C 73.05 59.51 71.17 60.16 70.23 60.49 C 70.70 57.10 71.17 53.70 71.40 50.28 C 73.72 52.83 74.49 56.88 77.88 58.32 C 81.26 60.23 85.20 60.63 89.01 60.71 C 90.29 59.62 91.27 58.22 92.38 56.97 C 94.33 57.64 96.31 58.22 98.31 58.72 C 98.48 59.72 98.81 61.72 98.98 62.72 C 99.09 62.12 99.32 60.91 99.44 60.31 C 100.55 60.32 102.76 60.34 103.87 60.35 C 103.73 62.47 103.57 64.60 103.34 66.72 C 103.90 67.44 104.47 68.16 105.04 68.88 C 105.29 66.21 105.57 63.53 106.26 60.93 C 109.10 63.59 110.42 67.25 111.01 71.01 C 111.41 75.64 116.38 77.72 117.69 81.93 C 118.96 85.38 120.80 88.62 121.79 92.17 C 121.86 101.24 119.22 110.44 113.45 117.56 C 114.46 117.26 115.47 116.96 116.49 116.66 C 121.57 110.53 122.78 102.46 123.80 94.82 C 123.61 89.94 121.16 85.56 119.46 81.09 C 118.60 78.08 115.89 76.31 113.95 74.07 C 113.15 68.31 111.01 62.60 106.27 58.93 C 108.93 41.28 111.29 23.58 113.86 5.91 C 114.18 3.99 114.26 2.04 114.24 0.10 C 112.06 1.76 112.05 4.59 111.68 7.04 M 87.77 65.57 C 89.59 65.73 91.41 65.94 93.22 66.20 C 93.82 65.26 94.41 64.32 95.00 63.38 C 92.58 64.07 90.20 64.89 87.77 65.57 M 83.34 68.18 C 81.97 70.64 87.90 70.29 86.83 67.98 C 85.65 67.33 84.48 67.40 83.34 68.18 M 86.90 90.89 C 85.22 93.29 83.31 95.52 81.76 98.01 C 84.71 96.55 87.30 94.45 88.54 91.30 C 88.75 91.65 89.18 92.35 89.39 92.71 C 89.35 92.32 89.28 91.56 89.24 91.18 C 89.67 90.68 90.53 89.68 90.97 89.18 C 89.52 89.49 87.68 89.33 86.90 90.89 M 92.31 90.98 C 94.01 92.57 95.14 94.54 94.24 96.89 C 92.88 96.94 91.52 96.98 90.15 97.01 C 89.79 97.43 89.06 98.27 88.70 98.70 C 86.68 99.61 84.99 101.06 83.04 102.08 C 81.02 101.28 79.25 100.00 77.46 98.79 C 76.14 98.60 74.82 98.42 73.50 98.25 L 73.51 100.48 C 75.17 100.42 76.84 100.37 78.50 100.30 C 79.52 102.72 81.77 103.58 84.23 103.81 C 86.08 101.92 88.49 100.82 90.65 99.36 C 92.68 98.74 94.66 97.96 96.64 97.20 C 96.54 96.41 96.45 95.63 96.36 94.84 C 95.57 93.88 94.79 92.93 94.01 91.97 C 94.73 91.15 95.47 90.35 96.23 89.56 C 94.97 90.16 93.66 90.62 92.31 90.98 M 93.40 108.62 C 91.79 109.72 90.97 107.35 89.85 106.63 L 90.68 108.43 C 87.83 109.40 84.93 110.26 81.94 109.29 C 82.55 109.72 83.76 110.57 84.37 111.00 C 83.84 111.63 83.31 112.26 82.78 112.89 C 83.76 113.95 84.78 114.97 85.82 115.97 C 85.39 114.48 84.93 112.99 84.45 111.52 C 88.42 111.08 92.79 110.61 96.38 108.58 C 96.09 105.95 95.86 103.32 95.54 100.71 C 94.98 103.30 96.27 107.26 93.40 108.62 M 73.39 104.39 C 75.15 106.88 78.60 106.62 81.14 107.90 C 81.82 107.26 82.44 106.56 83.07 105.88 C 82.25 105.82 81.43 105.77 80.60 105.72 C 78.38 104.53 75.85 104.39 73.39 104.39 M 84.73 118.05 C 85.23 119.29 85.67 120.57 86.33 121.74 C 87.55 122.34 88.94 122.46 90.26 122.71 C 88.64 120.90 86.68 119.47 84.73 118.05 M 107.85 234.48 C 107.37 231.56 106.89 228.65 106.42 225.73 C 104.76 228.72 105.26 232.19 107.85 234.48 Z" />
<path fill="#FFFFFF" opacity="1.00" d=" M 71.49 31.60 C 75.01 28.49 79.96 28.49 84.38 28.60 C 87.59 30.77 90.04 33.99 90.14 38.00 C 92.00 44.46 91.11 51.30 88.85 57.54 C 88.13 57.85 86.68 58.46 85.96 58.77 C 83.30 57.88 80.59 57.09 78.03 55.91 C 75.81 54.76 75.26 52.08 73.89 50.20 C 72.35 48.87 70.65 47.74 69.13 46.38 C 69.58 44.93 70.20 43.50 70.36 41.98 C 69.75 42.09 68.53 42.33 67.92 42.45 C 67.85 38.61 68.24 34.17 71.49 31.60 Z" />
<path fill="#FFFFFF" opacity="1.00" d=" M 63.21 67.24 C 64.54 67.68 65.88 68.09 67.22 68.50 C 68.50 73.48 68.74 78.74 66.39 83.44 C 62.25 85.05 67.56 87.26 68.29 89.49 C 69.30 93.67 70.36 97.86 71.37 102.05 C 71.23 104.68 70.12 107.13 69.50 109.67 C 68.80 108.92 68.09 108.18 67.39 107.44 C 67.74 104.22 65.90 101.18 63.25 99.47 C 64.06 101.95 65.22 104.32 65.85 106.86 C 66.21 110.19 69.22 112.37 72.05 113.65 C 71.64 112.45 70.82 110.04 70.41 108.84 C 73.16 111.32 75.94 114.17 76.71 117.94 C 77.90 123.57 79.84 129.19 83.96 133.38 C 84.54 132.94 85.12 132.49 85.70 132.05 C 85.09 131.65 83.87 130.86 83.27 130.46 C 85.24 130.34 87.22 130.22 89.20 130.01 C 87.00 131.23 85.91 134.67 83.15 134.48 C 80.87 132.41 79.09 129.82 76.52 128.07 C 76.48 130.86 78.77 132.54 80.25 134.58 C 81.74 136.03 79.67 137.99 79.56 139.65 C 74.71 133.83 67.16 129.89 64.87 122.26 C 63.70 118.49 60.24 114.84 61.84 110.69 C 62.89 108.14 62.41 105.39 61.96 102.76 C 60.86 104.35 60.48 106.23 60.53 108.13 C 59.65 104.48 57.90 101.01 55.12 98.44 C 53.10 93.87 52.59 88.85 53.12 83.91 C 54.75 85.08 56.35 86.27 57.88 87.55 C 57.60 87.04 57.05 86.03 56.77 85.52 C 57.29 85.64 58.35 85.89 58.88 86.01 C 56.17 84.82 54.01 82.44 52.54 79.92 C 50.46 73.92 56.66 70.35 60.32 66.89 C 60.46 67.37 60.74 68.33 60.88 68.81 C 61.66 68.28 62.43 67.76 63.21 67.24 M 55.37 95.64 C 55.54 97.69 57.11 98.30 58.88 98.56 C 59.31 100.33 59.70 102.12 60.04 103.92 C 60.59 103.16 61.13 102.40 61.67 101.64 C 61.19 99.99 60.71 98.35 60.23 96.71 C 58.61 96.33 57.00 95.97 55.37 95.64 Z" />
<path fill="#FFFFFF" opacity="1.00" d=" M 103.25 84.35 C 103.86 84.87 103.86 84.87 103.25 84.35 Z" />
<path fill="#FFFFFF" opacity="1.00" d=" M 101.41 95.80 C 101.29 92.38 102.04 88.99 102.39 85.60 C 102.95 89.91 104.45 94.06 104.51 98.44 C 103.73 97.78 102.19 96.46 101.41 95.80 Z" />
<path fill="#FFFFFF" opacity="1.00" d=" M 103.86 85.56 C 105.85 88.68 107.23 92.48 110.73 94.27 C 111.41 100.19 110.11 106.06 107.93 111.55 C 105.65 108.86 106.38 105.20 106.25 101.98 C 106.80 96.35 104.22 91.11 103.86 85.56 Z" />
<path fill="#FFFFFF" opacity="1.00" d=" M 100.82 97.23 C 101.98 97.77 103.15 98.30 104.32 98.83 C 103.52 101.79 102.33 104.66 102.03 107.74 C 101.35 107.69 99.99 107.59 99.31 107.54 C 99.98 104.13 100.41 100.68 100.82 97.23 Z" />
<path fill="#FFFFFF" opacity="1.00" d=" M 84.52 125.65 C 87.82 126.44 91.29 126.34 94.45 125.06 C 94.50 128.13 97.46 129.77 98.76 132.30 C 100.25 134.24 99.72 136.83 99.75 139.09 C 99.50 140.68 97.56 142.00 98.28 143.65 C 98.77 143.86 99.74 144.29 100.23 144.50 C 102.14 141.62 102.49 138.22 102.32 134.86 C 100.87 132.63 99.47 130.39 98.08 128.14 C 102.08 126.42 106.01 128.75 110.07 128.77 C 109.44 131.47 106.82 134.14 108.43 136.97 C 110.49 142.39 110.82 148.19 110.83 153.92 C 106.53 156.71 102.56 160.90 97.08 160.99 C 94.85 161.30 92.79 160.38 90.85 159.43 C 91.84 156.38 93.62 153.70 95.01 150.83 C 90.59 151.76 89.98 156.95 87.90 160.19 C 86.60 164.88 81.10 165.62 77.01 166.01 C 72.39 166.37 69.01 162.02 64.40 162.47 C 64.45 158.31 64.22 154.15 64.52 150.00 C 65.09 147.89 66.37 146.06 66.95 143.96 C 67.46 138.70 67.26 133.29 64.89 128.44 C 68.71 132.22 72.06 136.51 76.59 139.49 C 80.05 141.36 80.02 145.70 81.75 148.81 C 83.87 149.82 85.67 151.35 87.68 152.53 C 86.99 150.74 86.05 149.07 85.08 147.42 C 85.62 147.15 86.69 146.61 87.23 146.34 C 86.95 144.82 86.72 143.29 86.55 141.75 C 88.55 139.89 91.20 138.49 91.63 135.51 C 92.59 134.73 93.52 133.91 94.45 133.10 C 95.31 133.92 96.17 134.75 97.02 135.59 C 95.57 135.99 91.02 133.85 92.23 136.76 C 94.81 137.73 97.56 138.71 97.14 142.19 C 98.54 139.75 99.06 136.96 99.16 134.18 C 97.69 132.69 96.26 131.15 94.91 129.53 C 91.12 132.49 87.73 135.92 84.75 139.70 C 84.42 142.05 84.04 144.39 83.63 146.72 C 83.31 146.44 82.68 145.88 82.37 145.61 C 82.27 145.02 82.08 143.85 81.98 143.27 L 83.71 143.39 C 83.57 142.56 83.30 140.90 83.16 140.07 C 85.80 135.61 89.65 132.00 93.83 128.99 C 93.83 128.78 93.82 128.37 93.82 128.17 C 89.58 127.53 84.10 130.94 80.80 126.75 C 82.04 126.39 83.28 126.03 84.52 125.65 M 86.90 150.33 C 91.34 150.34 96.10 149.17 99.13 145.71 C 98.37 145.83 96.85 146.07 96.09 146.18 C 93.08 147.71 89.56 148.12 86.90 150.33 Z" />
<path fill="#FFFFFF" opacity="1.00" d=" M 66.58 164.59 C 69.33 165.69 71.90 167.33 74.82 167.95 C 78.37 168.26 81.85 167.20 85.28 166.47 C 84.67 171.22 84.08 176.21 81.51 180.38 C 77.33 186.94 76.81 195.08 72.82 201.74 C 70.41 206.30 69.50 211.61 70.33 216.70 C 72.07 214.87 71.93 212.27 72.06 209.93 C 72.05 206.87 73.47 204.07 74.79 201.39 C 75.02 204.62 75.55 207.90 74.98 211.13 C 74.36 214.20 72.63 216.91 71.98 219.97 C 70.49 228.63 71.26 238.18 76.70 245.41 C 78.82 250.59 83.55 253.98 85.88 259.02 C 84.76 259.76 83.41 259.92 82.14 260.24 C 81.64 259.03 81.15 257.82 80.66 256.62 C 77.09 256.67 73.53 257.05 69.96 257.00 C 69.78 257.38 69.44 258.14 69.27 258.51 C 72.59 258.84 75.90 258.77 79.21 258.43 C 79.70 258.89 80.67 259.80 81.16 260.25 C 77.25 263.56 70.43 262.97 67.88 258.34 C 66.62 252.33 63.63 246.87 62.24 240.89 C 62.40 238.23 63.29 235.65 63.12 232.97 C 63.18 225.75 59.83 219.11 59.11 212.01 C 59.18 206.60 61.11 201.36 63.34 196.48 C 64.32 198.99 65.23 201.53 66.09 204.08 C 66.56 204.24 67.52 204.55 68.00 204.71 C 65.61 197.29 62.09 189.07 65.65 181.42 C 68.56 176.20 66.88 170.19 66.58 164.59 M 70.20 180.09 C 69.39 181.76 69.45 183.63 69.90 185.39 C 70.18 184.53 70.75 182.82 71.03 181.96 C 72.82 181.51 74.61 181.04 76.38 180.51 C 77.14 181.56 77.93 182.60 78.77 183.59 C 78.27 181.75 77.64 179.95 77.02 178.15 C 74.82 179.03 72.51 179.58 70.20 180.09 M 71.79 191.04 C 72.60 191.03 74.24 191.02 75.06 191.02 C 75.21 190.63 75.51 189.87 75.65 189.49 C 74.35 189.28 73.05 189.08 71.76 188.88 C 71.76 189.60 71.77 190.32 71.79 191.04 M 64.59 242.80 C 68.08 241.24 69.16 237.44 70.76 234.33 C 67.15 235.57 66.15 239.73 64.59 242.80 Z" />
</g>
<g id="#454544ff">
<path fill="#333333" opacity="1.00" d=" M 111.68 7.04 C 112.05 4.59 112.06 1.76 114.24 0.10 C 114.26 2.04 114.18 3.99 113.86 5.91 C 111.29 23.58 108.93 41.28 106.27 58.93 C 111.01 62.60 113.15 68.31 113.95 74.07 C 115.89 76.31 118.60 78.08 119.46 81.09 C 121.16 85.56 123.61 89.94 123.80 94.82 C 122.78 102.46 121.57 110.53 116.49 116.66 C 115.47 116.96 114.46 117.26 113.45 117.56 C 119.22 110.44 121.86 101.24 121.79 92.17 C 120.80 88.62 118.96 85.38 117.69 81.93 C 116.38 77.72 111.41 75.64 111.01 71.01 C 110.42 67.25 109.10 63.59 106.26 60.93 C 105.57 63.53 105.29 66.21 105.04 68.88 C 104.47 68.16 103.90 67.44 103.34 66.72 C 103.57 64.60 103.73 62.47 103.87 60.35 C 102.76 60.34 100.55 60.32 99.44 60.31 C 99.32 60.91 99.09 62.12 98.98 62.72 C 98.81 61.72 98.48 59.72 98.31 58.72 C 96.31 58.22 94.33 57.64 92.38 56.97 C 91.27 58.22 90.29 59.62 89.01 60.71 C 85.20 60.63 81.26 60.23 77.88 58.32 C 74.49 56.88 73.72 52.83 71.40 50.28 C 71.17 53.70 70.70 57.10 70.23 60.49 C 71.17 60.16 73.05 59.51 73.99 59.18 C 73.86 58.68 73.59 57.67 73.45 57.17 C 75.25 60.01 77.78 62.70 77.78 66.29 C 79.28 66.87 80.78 67.50 82.24 68.17 C 78.34 67.97 74.48 68.45 70.68 69.31 C 72.34 67.79 74.43 67.01 76.55 66.37 C 76.00 64.15 75.13 62.04 74.32 59.90 C 68.94 60.45 64.96 64.43 60.01 66.19 C 62.43 66.36 65.25 65.20 67.46 66.64 C 70.67 70.20 70.15 75.42 69.42 79.78 C 71.25 80.04 74.04 78.66 75.13 80.74 C 75.67 82.10 74.79 83.46 74.49 84.76 C 74.13 83.90 73.41 82.20 73.05 81.34 C 72.30 81.45 70.81 81.65 70.06 81.75 C 69.91 81.34 69.60 80.52 69.45 80.11 C 68.69 81.55 67.92 82.99 67.13 84.42 C 67.86 85.16 68.59 85.90 69.31 86.65 C 71.65 87.37 73.95 88.20 76.26 89.00 C 76.36 89.46 76.56 90.37 76.66 90.83 C 75.85 90.68 74.24 90.37 73.43 90.22 C 73.39 90.71 73.30 91.67 73.26 92.16 C 72.53 91.30 71.05 89.57 70.32 88.71 C 70.86 92.56 72.05 96.26 73.05 100.01 C 73.91 102.70 72.50 105.35 71.92 107.95 C 76.46 111.89 78.71 117.69 80.09 123.39 C 83.09 122.78 86.05 123.74 89.04 123.92 C 91.28 123.61 93.45 122.93 95.63 122.34 C 95.63 120.11 96.10 117.65 94.44 115.86 C 94.86 115.66 95.71 115.26 96.14 115.06 C 97.06 108.77 98.79 102.53 98.56 96.13 C 100.02 93.78 99.50 91.35 97.32 89.65 C 98.09 88.84 98.82 87.87 100.27 88.31 L 100.56 85.54 C 98.80 86.01 97.04 86.50 95.30 87.01 C 93.54 86.29 91.75 85.68 90.05 84.85 C 89.43 86.16 88.80 87.69 87.20 87.99 C 84.42 88.83 81.91 90.24 79.40 91.66 C 78.97 91.40 78.12 90.89 77.69 90.64 C 78.33 90.57 79.61 90.44 80.25 90.38 C 81.79 87.12 85.60 87.03 88.53 85.79 C 90.15 82.02 88.29 78.33 87.53 74.62 C 90.68 76.86 90.94 80.92 91.46 84.41 C 92.94 84.39 94.40 84.62 95.82 85.08 C 97.29 84.12 98.98 83.69 100.67 83.30 C 101.91 78.23 102.28 73.01 102.80 67.84 C 105.84 71.15 106.58 75.61 106.37 79.94 C 105.71 81.26 105.05 82.58 104.39 83.91 C 106.96 87.09 109.05 90.83 112.47 93.20 C 110.66 99.83 113.17 106.98 109.95 113.35 C 108.19 114.12 106.14 114.48 104.69 115.79 C 103.40 116.89 106.29 117.44 106.51 118.11 C 104.64 119.98 102.77 121.84 101.10 123.89 C 99.59 123.28 98.73 122.04 98.43 120.47 L 99.31 120.81 C 100.62 119.59 102.06 118.53 103.58 117.59 C 102.26 116.23 101.65 114.61 101.75 112.72 C 102.72 112.67 103.68 112.59 104.64 112.48 C 104.55 111.11 104.36 108.38 104.27 107.02 C 102.76 108.23 101.20 109.42 99.25 109.79 C 98.52 114.47 97.22 119.16 97.44 123.91 C 97.12 124.96 96.79 126.01 96.47 127.07 C 98.57 126.17 100.37 124.74 102.40 123.71 C 103.96 124.72 105.16 126.38 107.02 126.87 C 108.30 126.26 109.51 125.53 110.73 124.83 C 110.87 122.76 111.02 120.70 111.19 118.65 C 110.57 118.03 109.95 117.41 109.33 116.80 C 109.88 116.23 110.44 115.66 110.99 115.09 C 111.35 116.38 111.71 117.67 112.06 118.96 C 113.26 118.39 114.47 117.83 115.67 117.25 C 113.36 120.10 112.91 123.82 111.59 127.14 C 111.77 127.60 112.14 128.51 112.32 128.97 C 111.53 131.55 109.43 134.20 110.63 136.98 C 112.10 141.12 112.67 145.48 112.64 149.86 C 112.32 151.57 113.77 152.56 114.80 153.66 C 113.80 154.76 112.66 155.72 111.46 156.59 C 113.01 162.97 111.04 169.81 113.68 175.92 C 114.65 178.93 112.67 181.86 112.77 184.89 C 112.96 188.53 112.24 192.21 113.19 195.80 C 115.16 204.09 112.80 212.80 115.09 221.06 C 115.26 223.10 117.23 224.07 118.54 225.36 C 121.44 227.79 123.43 231.20 126.67 233.24 C 128.45 234.58 130.78 234.51 132.83 235.16 C 134.30 236.10 135.37 237.55 136.24 239.04 C 135.92 242.24 132.51 243.00 130.09 244.11 C 127.17 245.82 123.89 243.80 120.77 244.45 C 118.47 243.41 116.27 242.13 113.87 241.33 C 110.96 240.68 108.03 242.12 105.11 241.62 C 103.44 241.25 101.98 240.31 100.48 239.53 C 98.99 231.12 104.61 223.28 102.50 214.91 C 101.90 210.09 98.51 206.36 97.13 201.82 C 96.99 196.51 97.52 191.20 98.80 186.04 C 97.88 184.11 96.70 182.28 96.09 180.23 C 95.62 177.11 96.06 173.59 93.84 171.03 C 92.49 168.56 89.84 166.14 90.21 163.20 C 93.50 164.36 94.80 168.53 96.83 171.23 C 99.77 174.81 98.20 179.77 100.38 183.65 C 101.69 186.43 103.84 189.40 101.46 192.29 L 100.33 188.50 C 98.34 193.24 99.75 198.28 100.37 203.12 C 100.83 206.65 103.67 209.36 104.08 212.90 C 104.53 216.98 104.23 221.09 104.28 225.19 C 102.68 229.48 102.08 234.42 102.78 238.88 C 107.06 241.78 112.88 238.07 117.40 240.69 C 120.29 242.52 123.68 242.70 127.00 242.90 C 129.78 243.50 131.98 241.35 134.16 240.01 C 133.64 239.05 133.04 238.16 132.44 237.26 C 128.65 236.93 124.89 235.51 122.44 232.50 C 119.70 229.24 116.58 226.33 113.76 223.15 C 110.96 215.50 112.50 207.33 111.71 199.43 C 110.06 192.72 110.64 185.65 112.11 178.97 C 112.68 176.53 111.38 174.25 110.65 172.01 C 109.14 174.30 107.96 177.56 104.80 177.86 C 101.64 177.19 101.45 173.25 100.71 170.74 C 102.08 172.88 103.15 175.72 105.87 176.44 C 108.04 174.76 108.48 171.87 109.32 169.44 C 109.74 169.55 110.58 169.78 111.01 169.89 C 111.00 165.47 110.80 161.06 110.39 156.67 C 105.27 160.96 97.44 165.10 91.08 160.94 C 89.21 162.21 88.05 164.16 86.68 165.90 C 86.36 171.06 85.96 176.54 83.06 181.00 C 80.64 184.62 79.84 188.99 78.25 192.99 C 75.83 199.40 77.89 206.32 76.71 212.89 C 73.27 221.29 72.02 231.20 75.35 239.82 C 78.00 243.81 79.79 248.40 83.21 251.84 C 85.19 254.17 87.07 256.77 87.25 259.95 C 86.54 260.62 85.82 261.30 85.11 261.98 C 84.50 262.01 83.27 262.05 82.65 262.07 C 76.77 267.10 64.26 263.79 64.36 255.14 C 63.87 252.37 61.92 250.03 61.84 247.17 C 61.78 244.80 61.11 242.54 60.45 240.29 C 61.17 236.58 61.69 232.75 61.14 228.98 C 60.39 222.43 57.20 216.21 57.72 209.51 C 58.37 204.76 60.10 200.24 61.64 195.72 C 62.40 192.18 62.30 188.52 62.97 184.96 C 63.37 181.84 64.87 178.99 65.31 175.88 C 65.27 172.05 64.31 168.13 65.53 164.38 C 64.85 164.30 63.50 164.13 62.82 164.04 C 62.98 159.71 62.56 155.38 62.60 151.04 C 62.52 146.84 65.54 143.23 65.11 138.96 C 64.57 133.23 65.40 127.19 62.67 121.89 C 60.82 118.13 59.15 114.21 58.97 109.96 C 58.97 103.65 52.57 100.13 51.57 94.14 C 50.71 88.78 51.85 83.30 50.41 77.97 C 49.29 71.24 55.72 67.66 60.66 64.89 C 63.25 62.49 66.26 60.62 69.39 59.03 C 69.84 56.16 70.20 53.27 70.48 50.38 C 69.28 48.72 67.47 47.27 67.21 45.12 C 66.67 40.42 65.37 34.76 69.08 30.96 C 72.47 26.90 78.20 26.90 83.01 27.36 C 86.97 27.57 90.65 30.87 90.89 34.90 C 91.26 38.31 92.67 41.53 92.85 44.96 C 92.59 48.56 91.73 52.09 91.16 55.65 C 91.91 55.68 93.41 55.76 94.16 55.80 C 97.08 58.31 100.91 58.18 104.49 58.74 C 106.67 41.48 109.39 24.29 111.68 7.04 M 71.49 31.60 C 68.24 34.17 67.85 38.61 67.92 42.45 C 68.53 42.33 69.75 42.09 70.36 41.98 C 70.20 43.50 69.58 44.93 69.13 46.38 C 70.65 47.74 72.35 48.87 73.89 50.20 C 75.26 52.08 75.81 54.76 78.03 55.91 C 80.59 57.09 83.30 57.88 85.96 58.77 C 86.68 58.46 88.13 57.85 88.85 57.54 C 91.11 51.30 92.00 44.46 90.14 38.00 C 90.04 33.99 87.59 30.77 84.38 28.60 C 79.96 28.49 75.01 28.49 71.49 31.60 M 63.21 67.24 C 62.43 67.76 61.66 68.28 60.88 68.81 C 60.74 68.33 60.46 67.37 60.32 66.89 C 56.66 70.35 50.46 73.92 52.54 79.92 C 54.01 82.44 56.17 84.82 58.88 86.01 C 58.35 85.89 57.29 85.64 56.77 85.52 C 57.05 86.03 57.60 87.04 57.88 87.55 C 56.35 86.27 54.75 85.08 53.12 83.91 C 52.59 88.85 53.10 93.87 55.12 98.44 C 57.90 101.01 59.65 104.48 60.53 108.13 C 60.48 106.23 60.86 104.35 61.96 102.76 C 62.41 105.39 62.89 108.14 61.84 110.69 C 60.24 114.84 63.70 118.49 64.87 122.26 C 67.16 129.89 74.71 133.83 79.56 139.65 C 79.67 137.99 81.74 136.03 80.25 134.58 C 78.77 132.54 76.48 130.86 76.52 128.07 C 79.09 129.82 80.87 132.41 83.15 134.48 C 85.91 134.67 87.00 131.23 89.20 130.01 C 87.22 130.22 85.24 130.34 83.27 130.46 C 83.87 130.86 85.09 131.65 85.70 132.05 C 85.12 132.49 84.54 132.94 83.96 133.38 C 79.84 129.19 77.90 123.57 76.71 117.94 C 75.94 114.17 73.16 111.32 70.41 108.84 C 70.82 110.04 71.64 112.45 72.05 113.65 C 69.22 112.37 66.21 110.19 65.85 106.86 C 65.22 104.32 64.06 101.95 63.25 99.47 C 65.90 101.18 67.74 104.22 67.39 107.44 C 68.09 108.18 68.80 108.92 69.50 109.67 C 70.12 107.13 71.23 104.68 71.37 102.05 C 70.36 97.86 69.30 93.67 68.29 89.49 C 67.56 87.26 62.25 85.05 66.39 83.44 C 68.74 78.74 68.50 73.48 67.22 68.50 C 65.88 68.09 64.54 67.68 63.21 67.24 M 103.25 84.35 C 103.86 84.87 103.86 84.87 103.25 84.35 M 101.41 95.80 C 102.19 96.46 103.73 97.78 104.51 98.44 C 104.45 94.06 102.95 89.91 102.39 85.60 C 102.04 88.99 101.29 92.38 101.41 95.80 M 103.86 85.56 C 104.22 91.11 106.80 96.35 106.25 101.98 C 106.38 105.20 105.65 108.86 107.93 111.55 C 110.11 106.06 111.41 100.19 110.73 94.27 C 107.23 92.48 105.85 88.68 103.86 85.56 M 100.82 97.23 C 100.41 100.68 99.98 104.13 99.31 107.54 C 99.99 107.59 101.35 107.69 102.03 107.74 C 102.33 104.66 103.52 101.79 104.32 98.83 C 103.15 98.30 101.98 97.77 100.82 97.23 M 84.52 125.65 C 83.28 126.03 82.04 126.39 80.80 126.75 C 84.10 130.94 89.58 127.53 93.82 128.17 C 93.82 128.37 93.83 128.78 93.83 128.99 C 89.65 132.00 85.80 135.61 83.16 140.07 C 83.30 140.90 83.57 142.56 83.71 143.39 L 81.98 143.27 C 82.08 143.85 82.27 145.02 82.37 145.61 C 82.68 145.88 83.31 146.44 83.63 146.72 C 84.04 144.39 84.42 142.05 84.75 139.70 C 87.73 135.92 91.12 132.49 94.91 129.53 C 96.26 131.15 97.69 132.69 99.16 134.18 C 99.06 136.96 98.54 139.75 97.14 142.19 C 97.56 138.71 94.81 137.73 92.23 136.76 C 91.02 133.85 95.57 135.99 97.02 135.59 C 96.17 134.75 95.31 133.92 94.45 133.10 C 93.52 133.91 92.59 134.73 91.63 135.51 C 91.20 138.49 88.55 139.89 86.55 141.75 C 86.72 143.29 86.95 144.82 87.23 146.34 C 86.69 146.61 85.62 147.15 85.08 147.42 C 86.05 149.07 86.99 150.74 87.68 152.53 C 85.67 151.35 83.87 149.82 81.75 148.81 C 80.02 145.70 80.05 141.36 76.59 139.49 C 72.06 136.51 68.71 132.22 64.89 128.44 C 67.26 133.29 67.46 138.70 66.95 143.96 C 66.37 146.06 65.09 147.89 64.52 150.00 C 64.22 154.15 64.45 158.31 64.40 162.47 C 69.01 162.02 72.39 166.37 77.01 166.01 C 81.10 165.62 86.60 164.88 87.90 160.19 C 89.98 156.95 90.59 151.76 95.01 150.83 C 93.62 153.70 91.84 156.38 90.85 159.43 C 92.79 160.38 94.85 161.30 97.08 160.99 C 102.56 160.90 106.53 156.71 110.83 153.92 C 110.82 148.19 110.49 142.39 108.43 136.97 C 106.82 134.14 109.44 131.47 110.07 128.77 C 106.01 128.75 102.08 126.42 98.08 128.14 C 99.47 130.39 100.87 132.63 102.32 134.86 C 102.49 138.22 102.14 141.62 100.23 144.50 C 99.74 144.29 98.77 143.86 98.28 143.65 C 97.56 142.00 99.50 140.68 99.75 139.09 C 99.72 136.83 100.25 134.24 98.76 132.30 C 97.46 129.77 94.50 128.13 94.45 125.06 C 91.29 126.34 87.82 126.44 84.52 125.65 M 66.58 164.59 C 66.88 170.19 68.56 176.20 65.65 181.42 C 62.09 189.07 65.61 197.29 68.00 204.71 C 67.52 204.55 66.56 204.24 66.09 204.08 C 65.23 201.53 64.32 198.99 63.34 196.48 C 61.11 201.36 59.18 206.60 59.11 212.01 C 59.83 219.11 63.18 225.75 63.12 232.97 C 63.29 235.65 62.40 238.23 62.24 240.89 C 63.63 246.87 66.62 252.33 67.88 258.34 C 70.43 262.97 77.25 263.56 81.16 260.25 C 80.67 259.80 79.70 258.89 79.21 258.43 C 75.90 258.77 72.59 258.84 69.27 258.51 C 69.44 258.14 69.78 257.38 69.96 257.00 C 73.53 257.05 77.09 256.67 80.66 256.62 C 81.15 257.82 81.64 259.03 82.14 260.24 C 83.41 259.92 84.76 259.76 85.88 259.02 C 83.55 253.98 78.82 250.59 76.70 245.41 C 71.26 238.18 70.49 228.63 71.98 219.97 C 72.63 216.91 74.36 214.20 74.98 211.13 C 75.55 207.90 75.02 204.62 74.79 201.39 C 73.47 204.07 72.05 206.87 72.06 209.93 C 71.93 212.27 72.07 214.87 70.33 216.70 C 69.50 211.61 70.41 206.30 72.82 201.74 C 76.81 195.08 77.33 186.94 81.51 180.38 C 84.08 176.21 84.67 171.22 85.28 166.47 C 81.85 167.20 78.37 168.26 74.82 167.95 C 71.90 167.33 69.33 165.69 66.58 164.59 Z" />
<path fill="#333333" opacity="1.00" d=" M 87.77 65.57 C 90.20 64.89 92.58 64.07 95.00 63.38 C 94.41 64.32 93.82 65.26 93.22 66.20 C 91.41 65.94 89.59 65.73 87.77 65.57 Z" />
<path fill="#333333" opacity="1.00" d=" M 83.34 68.18 C 84.48 67.40 85.65 67.33 86.83 67.98 C 87.90 70.29 81.97 70.64 83.34 68.18 Z" />
<path fill="#333333" opacity="1.00" d=" M 86.90 90.89 C 87.68 89.33 89.52 89.49 90.97 89.18 C 90.53 89.68 89.67 90.68 89.24 91.18 C 89.28 91.56 89.35 92.32 89.39 92.71 C 89.18 92.35 88.75 91.65 88.54 91.30 C 87.30 94.45 84.71 96.55 81.76 98.01 C 83.31 95.52 85.22 93.29 86.90 90.89 Z" />
<path fill="#333333" opacity="1.00" d=" M 92.31 90.98 C 93.66 90.62 94.97 90.16 96.23 89.56 C 95.47 90.35 94.73 91.15 94.01 91.97 C 94.79 92.93 95.57 93.88 96.36 94.84 C 96.45 95.63 96.54 96.41 96.64 97.20 C 94.66 97.96 92.68 98.74 90.65 99.36 C 88.49 100.82 86.08 101.92 84.23 103.81 C 81.77 103.58 79.52 102.72 78.50 100.30 C 76.84 100.37 75.17 100.42 73.51 100.48 L 73.50 98.25 C 74.82 98.42 76.14 98.60 77.46 98.79 C 79.25 100.00 81.02 101.28 83.04 102.08 C 84.99 101.06 86.68 99.61 88.70 98.70 C 89.06 98.27 89.79 97.43 90.15 97.01 C 91.52 96.98 92.88 96.94 94.24 96.89 C 95.14 94.54 94.01 92.57 92.31 90.98 Z" />
<path fill="#333333" opacity="1.00" d=" M 55.37 95.64 C 57.00 95.97 58.61 96.33 60.23 96.71 C 60.71 98.35 61.19 99.99 61.67 101.64 C 61.13 102.40 60.59 103.16 60.04 103.92 C 59.70 102.12 59.31 100.33 58.88 98.56 C 57.11 98.30 55.54 97.69 55.37 95.64 Z" />
<path fill="#333333" opacity="1.00" d=" M 93.40 108.62 C 96.27 107.26 94.98 103.30 95.54 100.71 C 95.86 103.32 96.09 105.95 96.38 108.58 C 92.79 110.61 88.42 111.08 84.45 111.52 C 84.93 112.99 85.39 114.48 85.82 115.97 C 84.78 114.97 83.76 113.95 82.78 112.89 C 83.31 112.26 83.84 111.63 84.37 111.00 C 83.76 110.57 82.55 109.72 81.94 109.29 C 84.93 110.26 87.83 109.40 90.68 108.43 L 89.85 106.63 C 90.97 107.35 91.79 109.72 93.40 108.62 Z" />
<path fill="#333333" opacity="1.00" d=" M 73.39 104.39 C 75.85 104.39 78.38 104.53 80.60 105.72 C 81.43 105.77 82.25 105.82 83.07 105.88 C 82.44 106.56 81.82 107.26 81.14 107.90 C 78.60 106.62 75.15 106.88 73.39 104.39 Z" />
<path fill="#333333" opacity="1.00" d=" M 84.73 118.05 C 86.68 119.47 88.64 120.90 90.26 122.71 C 88.94 122.46 87.55 122.34 86.33 121.74 C 85.67 120.57 85.23 119.29 84.73 118.05 Z" />
<path fill="#333333" opacity="1.00" d=" M 86.90 150.33 C 89.56 148.12 93.08 147.71 96.09 146.18 C 96.85 146.07 98.37 145.83 99.13 145.71 C 96.10 149.17 91.34 150.34 86.90 150.33 Z" />
<path fill="#333333" opacity="1.00" d=" M 70.20 180.09 C 72.51 179.58 74.82 179.03 77.02 178.15 C 77.64 179.95 78.27 181.75 78.77 183.59 C 77.93 182.60 77.14 181.56 76.38 180.51 C 74.61 181.04 72.82 181.51 71.03 181.96 C 70.75 182.82 70.18 184.53 69.90 185.39 C 69.45 183.63 69.39 181.76 70.20 180.09 Z" />
<path fill="#333333" opacity="1.00" d=" M 71.79 191.04 C 71.77 190.32 71.76 189.60 71.76 188.88 C 73.05 189.08 74.35 189.28 75.65 189.49 C 75.51 189.87 75.21 190.63 75.06 191.02 C 74.24 191.02 72.60 191.03 71.79 191.04 Z" />
<path fill="#333333" opacity="1.00" d=" M 107.85 234.48 C 105.26 232.19 104.76 228.72 106.42 225.73 C 106.89 228.65 107.37 231.56 107.85 234.48 Z" />
<path fill="#333333" opacity="1.00" d=" M 64.59 242.80 C 66.15 239.73 67.15 235.57 70.76 234.33 C 69.16 237.44 68.08 241.24 64.59 242.80 Z" />
</g>
</svg>
