<?xml version="1.0" encoding="UTF-8" ?>
<!DOCTYPE svg PUBLIC "-//W3C//DTD SVG 1.1//EN" "http://www.w3.org/Graphics/SVG/1.1/DTD/svg11.dtd">
<svg width="221pt" height="275pt" viewBox="0 0 221 275" version="1.1" xmlns="http://www.w3.org/2000/svg">
<g id="#ffffffff">
<path fill="#FFFFFF" opacity="1.00" d=" M 0.00 0.00 L 221.00 0.00 L 221.00 275.00 L 0.00 275.00 L 0.00 0.00 M 85.82 31.88 C 82.57 36.27 84.51 41.88 85.02 46.81 C 85.93 47.84 86.84 48.87 87.76 49.91 C 87.42 54.19 88.45 59.67 84.08 62.25 C 81.26 62.58 78.77 64.00 76.41 65.48 C 72.74 68.64 70.70 73.12 68.12 77.12 C 65.93 81.02 67.84 85.22 68.91 89.10 C 69.68 95.28 69.36 101.92 72.56 107.50 C 76.36 112.65 81.72 116.48 85.27 121.82 C 84.38 123.97 82.81 125.74 81.87 127.85 C 81.14 130.59 82.43 133.30 82.80 136.00 C 83.78 141.65 80.79 146.93 80.70 152.54 C 80.77 155.48 78.57 157.58 77.44 160.09 C 78.49 161.62 79.74 163.00 80.95 164.41 C 81.45 164.05 82.46 163.34 82.96 162.98 C 82.46 166.66 82.71 170.37 82.98 174.05 C 83.37 177.54 81.43 180.64 80.89 183.99 C 80.03 187.63 80.19 191.40 79.59 195.06 C 77.98 199.93 76.07 204.76 75.38 209.87 C 75.03 217.77 79.47 225.03 79.06 232.94 C 79.05 235.41 78.81 237.88 78.07 240.25 C 78.58 241.85 79.10 243.45 79.62 245.05 C 78.68 249.02 81.88 252.20 82.20 256.01 C 82.36 258.27 83.07 260.66 85.24 261.78 C 88.69 264.77 93.59 264.56 97.82 263.88 C 99.78 261.66 104.61 262.68 104.73 259.06 C 104.51 254.16 99.58 251.48 97.55 247.39 C 96.01 244.31 93.87 241.57 92.52 238.41 C 90.13 230.46 90.96 221.65 94.09 214.02 C 96.36 207.85 93.50 201.13 95.52 194.92 C 97.14 189.93 98.29 184.67 101.25 180.26 C 103.81 175.89 104.19 170.67 104.34 165.72 C 105.25 164.84 106.14 163.96 107.03 163.07 C 108.41 166.16 110.32 168.96 112.12 171.82 C 114.05 174.76 113.00 178.56 114.40 181.68 C 116.02 185.23 117.49 188.86 119.48 192.23 C 122.15 187.54 116.84 183.71 116.83 179.03 C 116.94 173.97 113.84 169.84 111.16 165.85 C 109.74 163.86 106.69 162.94 106.89 160.03 C 109.56 160.99 112.05 163.14 115.06 162.68 C 119.99 162.36 124.41 159.73 128.16 156.68 C 128.44 160.97 128.64 165.27 128.97 169.55 C 128.47 169.58 127.47 169.64 126.97 169.67 C 126.19 171.97 125.74 174.56 123.95 176.35 C 121.21 176.21 120.03 173.52 119.04 171.39 C 118.86 171.41 118.49 171.45 118.31 171.48 C 119.29 173.70 119.70 176.54 121.99 177.85 C 125.41 178.06 126.74 174.52 128.29 172.18 C 129.10 174.05 130.35 175.93 129.98 178.08 C 128.89 184.66 127.65 191.50 129.20 198.12 C 130.90 206.44 128.25 215.26 131.67 223.29 C 134.51 226.18 137.52 228.91 139.94 232.18 C 142.36 235.35 146.23 236.91 150.12 237.25 C 150.77 238.14 151.43 239.02 152.02 239.96 C 149.85 241.25 147.71 243.42 144.97 242.92 C 142.99 242.75 141.01 242.61 139.06 242.30 C 136.40 241.38 133.97 239.49 131.02 239.73 C 127.34 239.49 123.08 241.18 119.99 238.48 C 120.37 234.00 120.30 229.35 122.02 225.12 C 122.07 221.01 122.34 216.89 121.84 212.80 C 121.42 209.26 118.47 206.63 118.13 203.07 C 117.55 198.85 116.49 194.55 117.45 190.29 C 117.00 189.50 116.54 188.72 116.06 187.94 C 115.17 192.56 114.56 197.29 114.94 201.99 C 116.47 206.82 120.12 210.87 120.42 216.11 C 122.09 224.05 116.31 231.57 118.50 239.45 C 121.32 242.30 125.45 241.81 129.02 241.20 C 133.03 240.49 136.04 244.22 139.92 244.31 C 141.90 244.36 143.86 245.00 145.85 244.83 C 149.08 243.62 152.78 242.58 154.40 239.20 C 153.20 237.84 152.14 236.33 150.70 235.20 C 148.67 234.53 146.37 234.59 144.55 233.34 C 140.75 230.90 138.66 226.66 135.02 224.03 C 133.08 222.68 132.67 220.19 132.20 218.05 C 131.41 211.44 132.18 204.75 131.36 198.14 C 129.96 191.82 130.01 185.16 131.54 178.88 C 132.13 175.81 129.84 173.12 130.06 170.07 C 130.12 165.55 129.98 161.02 129.23 156.56 C 130.64 155.73 131.69 154.55 131.93 152.89 C 128.49 150.73 129.15 146.44 127.81 143.12 C 126.54 139.79 124.97 136.53 124.12 133.07 C 124.54 130.71 125.60 128.36 124.96 125.94 C 124.21 124.51 123.07 123.34 122.31 121.93 C 121.03 116.09 120.45 109.93 121.86 104.05 C 122.27 104.08 123.09 104.14 123.50 104.17 C 125.19 107.54 128.79 109.11 131.71 111.20 C 134.32 113.12 137.67 111.73 139.53 109.47 C 144.91 105.38 147.63 98.89 149.44 92.58 C 150.18 88.87 150.44 85.09 151.41 81.43 C 154.78 82.72 158.68 81.82 160.82 78.84 C 164.44 73.34 164.20 66.02 161.95 60.04 C 160.30 55.91 156.02 51.49 151.19 53.14 C 147.23 53.86 145.85 57.86 144.56 61.11 C 142.54 61.78 139.34 61.32 139.60 64.41 C 142.52 63.21 145.47 62.04 148.63 61.66 C 149.52 65.50 150.67 69.28 151.61 73.11 C 152.21 77.60 149.00 81.43 148.62 85.82 C 147.79 92.72 145.72 99.76 141.28 105.23 C 138.96 107.37 136.91 110.74 133.30 110.29 C 131.16 108.46 128.79 106.91 126.34 105.51 C 125.53 104.06 124.84 102.50 123.68 101.29 C 124.73 96.72 122.93 92.26 122.20 87.81 L 121.11 88.02 C 122.80 83.70 122.46 79.09 122.20 74.58 C 123.16 78.31 123.81 82.43 126.79 85.18 C 128.69 87.31 131.51 88.06 134.19 88.62 C 139.51 86.15 142.70 79.99 141.73 74.30 C 140.04 70.72 141.19 66.38 138.85 63.07 C 136.88 60.09 133.30 57.15 129.52 58.64 C 125.92 59.09 124.05 62.41 122.88 65.46 C 120.34 64.12 117.49 63.36 115.20 61.57 C 113.18 59.69 110.22 60.01 107.70 59.43 C 109.57 53.01 111.63 46.00 109.55 39.37 C 108.90 36.96 108.76 34.42 107.92 32.06 C 106.33 29.28 103.30 27.23 100.03 27.30 C 94.98 26.74 89.02 27.44 85.82 31.88 M 144.55 82.52 C 143.81 86.97 142.16 92.03 144.30 96.30 C 145.12 91.82 145.91 86.97 144.55 82.52 M 131.77 91.79 C 129.83 95.05 126.94 98.09 127.00 102.12 C 129.65 94.84 137.09 91.31 141.17 85.06 C 138.09 87.38 133.71 88.19 131.77 91.79 M 125.60 234.45 C 125.04 231.56 124.57 228.65 124.24 225.73 C 122.36 228.62 123.03 232.22 125.60 234.45 Z" />
<path fill="#FFFFFF" opacity="1.00" d=" M 88.97 31.78 C 92.60 28.55 97.65 28.43 102.24 28.60 C 104.24 30.44 106.89 32.15 107.27 35.09 C 107.94 39.05 109.37 42.96 108.93 47.03 C 108.54 50.55 107.91 54.06 106.71 57.41 C 106.00 57.75 104.58 58.45 103.87 58.80 C 101.03 57.89 98.12 57.11 95.45 55.75 C 93.56 54.41 92.78 52.14 91.87 50.12 C 90.18 49.09 88.46 48.08 86.99 46.75 C 87.00 45.09 87.62 43.52 88.03 41.93 C 87.42 42.06 86.21 42.32 85.60 42.45 C 85.34 38.69 85.66 34.21 88.97 31.78 Z" />
<path fill="#FFFFFF" opacity="1.00" d=" M 88.77 50.11 C 90.97 52.12 91.83 55.12 93.87 57.23 C 97.19 59.28 100.99 60.70 104.96 60.46 C 105.08 61.27 105.32 62.87 105.44 63.67 C 106.00 62.64 106.52 61.58 106.98 60.50 C 109.14 61.25 111.29 62.01 113.35 63.00 C 110.38 63.78 106.08 64.02 105.23 67.71 C 101.91 68.10 98.77 66.64 95.48 66.52 C 95.72 62.97 93.44 60.16 91.07 57.82 C 92.31 60.69 93.51 63.57 94.56 66.51 C 92.99 66.98 91.44 67.47 89.89 67.98 C 88.83 67.83 87.78 67.69 86.72 67.57 C 87.60 68.33 88.52 69.04 89.46 69.73 C 93.42 71.66 97.26 74.45 98.47 78.93 C 100.12 84.79 100.24 92.82 94.58 96.58 C 90.15 99.04 85.73 94.83 84.08 90.95 C 81.22 83.98 81.46 73.75 89.16 70.02 C 85.85 68.72 82.31 68.44 78.78 68.71 C 78.36 70.28 77.97 71.86 77.69 73.46 C 78.73 72.52 79.75 71.55 80.74 70.55 C 82.49 70.45 84.23 70.32 85.98 70.15 C 80.94 74.70 80.54 82.06 81.68 88.32 C 81.10 88.49 79.93 88.82 79.35 88.99 C 79.98 89.09 81.23 89.29 81.86 89.39 C 83.49 94.50 87.40 99.16 93.07 99.60 C 100.15 96.69 102.17 87.91 100.46 81.09 C 100.32 79.46 99.04 77.68 100.16 76.17 C 101.46 75.74 102.77 75.36 104.11 75.03 C 105.42 76.31 106.85 77.49 107.99 78.94 C 107.90 83.35 106.89 87.68 106.52 92.07 C 104.83 99.70 106.13 108.00 102.28 115.08 C 100.33 118.52 98.52 122.92 94.24 123.86 C 90.23 121.36 85.39 119.95 82.95 115.54 C 83.56 115.47 84.79 115.33 85.41 115.26 C 84.75 111.16 82.23 107.02 77.99 105.92 C 80.59 108.52 82.88 111.43 83.79 115.08 C 80.53 111.49 75.54 109.08 74.15 104.10 C 72.45 100.03 71.56 95.70 71.04 91.34 C 72.12 93.06 73.49 94.59 75.28 95.60 C 74.28 89.98 68.21 86.16 69.28 80.05 C 69.10 76.91 71.87 74.92 73.34 72.45 C 75.80 68.59 79.12 65.07 83.51 63.45 C 85.00 62.72 86.90 62.40 87.84 60.89 C 88.93 57.42 88.79 53.71 88.77 50.11 M 83.17 97.72 C 84.99 100.17 86.42 103.17 89.22 104.65 C 88.29 101.58 86.27 98.84 83.17 97.72 M 92.21 100.13 C 92.31 104.59 86.20 106.29 87.36 111.06 C 90.20 106.54 95.21 103.64 96.91 98.42 C 95.35 99.00 93.79 99.60 92.21 100.13 M 88.25 117.54 C 90.92 120.32 94.79 116.92 95.56 114.04 C 93.17 115.30 90.72 116.43 88.25 117.54 Z" />
<path fill="#FFFFFF" opacity="1.00" d=" M 145.80 61.10 C 146.90 57.76 149.26 55.21 152.07 53.21 C 155.49 54.83 158.97 56.85 160.45 60.55 C 162.82 66.25 163.19 73.94 158.57 78.63 C 156.87 80.52 154.10 80.01 151.84 80.33 C 152.53 77.22 152.79 74.04 152.90 70.86 C 152.14 67.69 150.94 64.65 150.40 61.43 C 148.87 61.30 147.33 61.20 145.80 61.10 Z" />
<path fill="#FFFFFF" opacity="1.00" d=" M 128.37 60.24 C 130.27 58.24 132.88 60.09 134.77 61.17 C 140.75 65.84 141.82 74.56 139.19 81.32 C 137.94 84.43 134.58 87.27 131.06 86.04 C 126.26 84.20 123.99 78.74 123.58 73.93 C 123.14 69.08 123.77 63.01 128.37 60.24 Z" />
<path fill="#FFFFFF" opacity="1.00" d=" M 114.93 63.89 C 117.57 64.58 120.11 65.57 122.65 66.55 C 122.30 69.04 122.19 71.55 121.97 74.05 C 120.97 69.86 118.39 66.38 114.93 63.89 Z" />
<path fill="#FFFFFF" opacity="1.00" d=" M 104.72 72.45 C 105.77 68.97 108.13 66.27 111.03 64.17 C 114.44 65.83 117.97 67.82 119.44 71.55 C 121.91 77.40 122.22 85.52 117.09 90.05 C 115.05 91.88 112.24 90.92 109.86 90.53 C 111.54 92.27 113.09 94.17 112.12 96.72 C 110.58 96.92 109.04 97.14 107.51 97.39 C 108.76 100.22 111.58 98.45 113.44 97.32 C 116.19 97.55 118.91 98.02 121.59 98.69 C 120.19 95.51 116.61 95.85 113.72 95.78 C 113.61 95.17 113.37 93.97 113.26 93.36 C 116.47 92.92 119.35 91.12 120.87 88.22 C 121.12 91.54 122.28 94.73 122.33 98.07 C 122.19 101.63 119.88 104.50 118.15 107.44 C 117.46 107.33 116.08 107.09 115.39 106.98 C 115.10 104.84 114.47 102.79 113.67 100.79 C 113.31 103.05 113.49 105.49 112.45 107.58 C 111.70 109.22 109.75 108.65 108.32 108.84 C 108.73 109.52 109.15 110.20 109.56 110.88 C 111.21 110.14 112.77 109.23 114.31 108.30 C 115.24 108.69 116.18 109.08 117.12 109.46 C 117.73 108.95 118.96 107.93 119.57 107.42 C 119.61 109.31 119.50 111.20 119.12 113.05 C 119.82 115.23 120.76 117.74 119.85 119.95 C 116.48 122.48 112.13 122.76 108.15 123.67 C 105.03 124.69 101.51 122.01 98.78 124.41 C 105.51 128.24 113.05 124.90 119.78 122.97 C 120.86 124.09 121.96 125.19 123.09 126.28 C 123.34 128.93 122.83 131.55 122.05 134.07 C 124.06 138.60 126.41 143.11 127.04 148.09 C 127.18 150.22 128.42 151.98 129.64 153.65 C 125.66 155.16 122.97 158.78 118.91 160.14 C 114.96 162.03 110.75 159.75 106.75 159.27 C 107.84 155.70 111.68 155.74 114.49 154.47 C 116.22 152.23 117.16 149.48 117.73 146.74 C 115.76 148.67 114.35 151.05 113.04 153.45 C 110.71 153.82 108.36 154.32 106.24 155.42 C 105.07 157.59 105.43 160.29 104.91 162.68 C 99.60 166.42 92.39 167.13 86.77 163.60 C 85.27 164.77 87.35 166.20 88.47 166.55 C 93.02 169.24 98.35 167.50 103.10 166.45 C 102.33 171.17 101.88 176.17 99.30 180.32 C 95.02 187.02 94.51 195.36 90.39 202.14 C 88.44 206.58 86.17 212.23 88.74 216.82 C 90.10 211.59 89.32 205.76 92.83 201.23 C 92.95 204.49 93.20 207.79 92.79 211.04 C 92.08 214.18 90.33 217.00 89.68 220.16 C 88.52 226.44 88.83 233.04 90.92 239.10 C 92.15 242.04 94.15 244.58 95.58 247.43 C 97.55 251.70 101.69 254.48 103.53 258.85 C 102.60 259.63 101.51 260.10 100.26 260.28 C 99.37 259.04 98.83 257.48 97.60 256.54 C 94.39 256.69 91.19 256.94 87.99 257.06 C 87.61 257.47 86.85 258.30 86.48 258.71 C 87.50 258.61 88.53 258.52 89.56 258.42 C 92.67 260.03 96.75 256.57 98.90 260.18 C 94.82 263.81 88.29 262.66 85.16 258.38 C 84.81 250.72 78.39 243.97 80.71 236.16 C 82.33 226.54 75.77 217.70 77.21 208.11 C 78.01 204.10 79.30 200.19 81.03 196.50 C 82.11 199.05 83.03 201.66 83.89 204.29 C 84.29 204.37 85.08 204.53 85.47 204.61 C 83.79 199.55 82.41 194.36 81.73 189.06 C 81.86 185.17 83.39 181.56 84.55 177.91 C 86.21 173.03 82.83 167.81 84.94 163.05 C 85.29 161.14 85.02 159.18 85.06 157.26 C 83.11 158.19 82.51 160.33 81.51 162.07 C 81.10 161.51 80.27 160.38 79.86 159.82 C 82.43 155.78 82.47 150.92 83.76 146.45 C 85.42 141.41 84.80 135.94 83.64 130.86 C 82.95 127.91 84.06 124.18 87.32 123.43 C 90.51 124.53 94.40 126.14 97.60 124.41 C 100.56 120.99 102.85 116.97 104.93 112.95 C 107.96 106.72 106.28 99.61 107.88 93.07 C 108.60 89.25 107.67 85.14 109.55 81.58 C 111.46 77.87 108.02 73.87 104.72 72.45 M 111.89 118.25 C 113.32 116.98 114.46 115.44 115.24 113.69 C 113.19 114.44 111.83 115.99 111.89 118.25 M 102.52 119.67 C 103.69 121.48 105.55 123.21 107.88 122.30 C 106.54 120.70 104.66 119.59 102.52 119.67 M 105.04 128.47 C 99.88 128.78 95.01 126.77 89.95 126.14 C 88.92 128.72 87.93 131.33 87.34 134.05 C 87.79 134.19 88.67 134.47 89.11 134.61 C 89.18 132.02 90.02 129.58 91.28 127.33 C 93.07 127.93 94.86 128.52 96.64 129.16 C 95.36 134.39 89.69 135.60 86.47 139.16 C 91.46 138.09 96.84 135.24 98.15 129.90 C 104.81 130.92 111.78 130.33 117.96 127.56 C 118.93 126.89 119.68 125.97 120.51 125.15 C 115.45 126.64 110.38 128.47 105.04 128.47 M 105.80 134.91 C 103.20 135.68 100.26 136.16 98.51 138.47 C 104.81 137.58 110.87 134.32 117.31 135.05 C 112.33 137.47 106.23 138.60 102.70 143.24 C 108.23 140.73 113.69 138.06 119.43 136.03 C 119.38 134.96 119.34 133.89 119.30 132.82 C 114.73 132.92 110.22 133.79 105.80 134.91 M 96.73 145.05 L 96.76 146.20 C 101.56 146.53 106.22 145.03 111.01 145.04 C 115.00 144.78 119.55 144.62 122.17 141.11 C 113.93 143.73 105.20 143.65 96.73 145.05 M 87.47 179.87 C 87.27 181.68 87.09 183.50 86.96 185.32 C 87.69 184.17 88.40 183.01 89.10 181.84 C 90.82 181.43 92.53 180.99 94.23 180.49 C 94.91 181.24 95.03 183.47 96.43 182.59 C 95.91 181.07 95.30 179.58 94.71 178.09 C 92.44 179.19 90.01 179.87 87.47 179.87 M 89.43 189.56 C 88.28 191.28 93.55 191.95 93.47 189.73 C 92.23 189.53 90.36 188.22 89.43 189.56 M 82.56 242.82 C 85.63 240.90 86.72 237.36 88.21 234.28 C 84.66 235.53 83.67 239.65 82.56 242.82 Z" />
<path fill="#FFFFFF" opacity="1.00" d=" M 91.51 68.49 C 95.97 67.36 100.26 69.35 104.70 69.38 C 104.27 70.75 103.85 72.14 103.46 73.53 C 102.03 73.53 100.60 73.53 99.18 73.51 C 99.10 74.01 98.95 74.99 98.88 75.48 C 97.07 72.53 94.36 70.37 91.51 68.49 Z" />
</g>
<g id="#454644ff">
<path fill="#333333" opacity="1.00" d=" M 85.82 31.88 C 89.02 27.44 94.98 26.74 100.03 27.30 C 103.30 27.23 106.33 29.28 107.92 32.06 C 108.76 34.42 108.90 36.96 109.55 39.37 C 111.63 46.00 109.57 53.01 107.70 59.43 C 110.22 60.01 113.18 59.69 115.20 61.57 C 117.49 63.36 120.34 64.12 122.88 65.46 C 124.05 62.41 125.92 59.09 129.52 58.64 C 133.30 57.15 136.88 60.09 138.85 63.07 C 141.19 66.38 140.04 70.72 141.73 74.30 C 142.70 79.99 139.51 86.15 134.19 88.62 C 131.51 88.06 128.69 87.31 126.79 85.18 C 123.81 82.43 123.16 78.31 122.20 74.58 C 122.46 79.09 122.80 83.70 121.11 88.02 L 122.20 87.81 C 122.93 92.26 124.73 96.72 123.68 101.29 C 124.84 102.50 125.53 104.06 126.34 105.51 C 128.79 106.91 131.16 108.46 133.30 110.29 C 136.91 110.74 138.96 107.37 141.28 105.23 C 145.72 99.76 147.79 92.72 148.62 85.82 C 149.00 81.43 152.21 77.60 151.61 73.11 C 150.67 69.28 149.52 65.50 148.63 61.66 C 145.47 62.04 142.52 63.21 139.60 64.41 C 139.34 61.32 142.54 61.78 144.56 61.11 C 145.85 57.86 147.23 53.86 151.19 53.14 C 156.02 51.49 160.30 55.91 161.95 60.04 C 164.20 66.02 164.44 73.34 160.82 78.84 C 158.68 81.82 154.78 82.72 151.41 81.43 C 150.44 85.09 150.18 88.87 149.44 92.58 C 147.63 98.89 144.91 105.38 139.53 109.47 C 137.67 111.73 134.32 113.12 131.71 111.20 C 128.79 109.11 125.19 107.54 123.50 104.17 C 123.09 104.14 122.27 104.08 121.86 104.05 C 120.45 109.93 121.03 116.09 122.31 121.93 C 123.07 123.34 124.21 124.51 124.96 125.94 C 125.60 128.36 124.54 130.71 124.12 133.07 C 124.97 136.53 126.54 139.79 127.81 143.12 C 129.15 146.44 128.49 150.73 131.93 152.89 C 131.69 154.55 130.64 155.73 129.23 156.56 C 129.98 161.02 130.12 165.55 130.06 170.07 C 129.84 173.12 132.13 175.81 131.54 178.88 C 130.01 185.16 129.96 191.82 131.36 198.14 C 132.18 204.75 131.41 211.44 132.20 218.05 C 132.67 220.19 133.08 222.68 135.02 224.03 C 138.66 226.66 140.75 230.90 144.55 233.34 C 146.37 234.59 148.67 234.53 150.70 235.20 C 152.14 236.33 153.20 237.84 154.40 239.20 C 152.78 242.58 149.08 243.62 145.85 244.83 C 143.86 245.00 141.90 244.36 139.92 244.31 C 136.04 244.22 133.03 240.49 129.02 241.20 C 125.45 241.81 121.32 242.30 118.50 239.45 C 116.31 231.57 122.09 224.05 120.42 216.11 C 120.12 210.87 116.47 206.82 114.94 201.99 C 114.56 197.29 115.17 192.56 116.06 187.94 C 116.54 188.72 117.00 189.50 117.45 190.29 C 116.49 194.55 117.55 198.85 118.13 203.07 C 118.47 206.63 121.42 209.26 121.84 212.80 C 122.34 216.89 122.07 221.01 122.02 225.12 C 120.30 229.35 120.37 234.00 119.99 238.48 C 123.08 241.18 127.34 239.49 131.02 239.73 C 133.97 239.49 136.40 241.38 139.06 242.30 C 141.01 242.61 142.99 242.75 144.97 242.92 C 147.71 243.42 149.85 241.25 152.02 239.96 C 151.43 239.02 150.77 238.14 150.12 237.25 C 146.23 236.91 142.36 235.35 139.94 232.18 C 137.52 228.91 134.51 226.18 131.67 223.29 C 128.25 215.26 130.90 206.44 129.20 198.12 C 127.65 191.50 128.89 184.66 129.98 178.08 C 130.35 175.93 129.10 174.05 128.29 172.18 C 126.74 174.52 125.41 178.06 121.99 177.85 C 119.70 176.54 119.29 173.70 118.31 171.48 C 118.49 171.45 118.86 171.41 119.04 171.39 C 120.03 173.52 121.21 176.21 123.95 176.35 C 125.74 174.56 126.19 171.97 126.97 169.67 C 127.47 169.64 128.47 169.58 128.97 169.55 C 128.64 165.27 128.44 160.97 128.16 156.68 C 124.41 159.73 119.99 162.36 115.06 162.68 C 112.05 163.14 109.56 160.99 106.89 160.03 C 106.69 162.94 109.74 163.86 111.16 165.85 C 113.84 169.84 116.94 173.97 116.83 179.03 C 116.84 183.71 122.15 187.54 119.48 192.23 C 117.49 188.86 116.02 185.23 114.40 181.68 C 113.00 178.56 114.05 174.76 112.12 171.82 C 110.32 168.96 108.41 166.16 107.03 163.07 C 106.14 163.96 105.25 164.84 104.34 165.72 C 104.19 170.67 103.81 175.89 101.25 180.26 C 98.29 184.67 97.14 189.93 95.52 194.92 C 93.50 201.13 96.36 207.85 94.09 214.02 C 90.96 221.65 90.13 230.46 92.52 238.41 C 93.87 241.57 96.01 244.31 97.55 247.39 C 99.58 251.48 104.51 254.16 104.73 259.06 C 104.61 262.68 99.78 261.66 97.82 263.88 C 93.59 264.56 88.69 264.77 85.24 261.78 C 83.07 260.66 82.36 258.27 82.20 256.01 C 81.88 252.20 78.68 249.02 79.62 245.05 C 79.10 243.45 78.58 241.85 78.07 240.25 C 78.81 237.88 79.05 235.41 79.06 232.94 C 79.47 225.03 75.03 217.77 75.38 209.87 C 76.07 204.76 77.98 199.93 79.59 195.06 C 80.19 191.40 80.03 187.63 80.89 183.99 C 81.43 180.64 83.37 177.54 82.98 174.05 C 82.71 170.37 82.46 166.66 82.96 162.98 C 82.46 163.34 81.45 164.05 80.95 164.41 C 79.74 163.00 78.49 161.62 77.44 160.09 C 78.57 157.58 80.77 155.48 80.70 152.54 C 80.79 146.93 83.78 141.65 82.80 136.00 C 82.43 133.30 81.14 130.59 81.87 127.85 C 82.81 125.74 84.38 123.97 85.27 121.82 C 81.72 116.48 76.36 112.65 72.56 107.50 C 69.36 101.92 69.68 95.28 68.91 89.10 C 67.84 85.22 65.93 81.02 68.12 77.12 C 70.70 73.12 72.74 68.64 76.41 65.48 C 78.77 64.00 81.26 62.58 84.08 62.25 C 88.45 59.67 87.42 54.19 87.76 49.91 C 86.84 48.87 85.93 47.84 85.02 46.81 C 84.51 41.88 82.57 36.27 85.82 31.88 M 88.97 31.78 C 85.66 34.21 85.34 38.69 85.60 42.45 C 86.21 42.32 87.42 42.06 88.03 41.93 C 87.62 43.52 87.00 45.09 86.99 46.75 C 88.46 48.08 90.18 49.09 91.87 50.12 C 92.78 52.14 93.56 54.41 95.45 55.75 C 98.12 57.11 101.03 57.89 103.87 58.80 C 104.58 58.45 106.00 57.75 106.71 57.41 C 107.91 54.06 108.54 50.55 108.93 47.03 C 109.37 42.96 107.94 39.05 107.27 35.09 C 106.89 32.15 104.24 30.44 102.24 28.60 C 97.65 28.43 92.60 28.55 88.97 31.78 M 88.77 50.11 C 88.79 53.71 88.93 57.42 87.84 60.89 C 86.90 62.40 85.00 62.72 83.51 63.45 C 79.12 65.07 75.80 68.59 73.34 72.45 C 71.87 74.92 69.10 76.91 69.28 80.05 C 68.21 86.16 74.28 89.98 75.28 95.60 C 73.49 94.59 72.12 93.06 71.04 91.34 C 71.56 95.70 72.45 100.03 74.15 104.10 C 75.54 109.08 80.53 111.49 83.79 115.08 C 82.88 111.43 80.59 108.52 77.99 105.92 C 82.23 107.02 84.75 111.16 85.41 115.26 C 84.79 115.33 83.56 115.47 82.95 115.54 C 85.39 119.95 90.23 121.36 94.24 123.86 C 98.52 122.92 100.33 118.52 102.28 115.08 C 106.13 108.00 104.83 99.70 106.52 92.07 C 106.89 87.68 107.90 83.35 107.99 78.94 C 106.85 77.49 105.42 76.31 104.11 75.03 C 102.77 75.36 101.46 75.74 100.16 76.17 C 99.04 77.68 100.32 79.46 100.46 81.09 C 102.17 87.91 100.15 96.69 93.07 99.60 C 87.40 99.16 83.49 94.50 81.86 89.39 C 81.23 89.29 79.98 89.09 79.35 88.99 C 79.93 88.82 81.10 88.49 81.68 88.32 C 80.54 82.06 80.94 74.70 85.98 70.15 C 84.23 70.32 82.49 70.45 80.74 70.55 C 79.75 71.55 78.73 72.52 77.69 73.46 C 77.97 71.86 78.36 70.28 78.78 68.71 C 82.31 68.44 85.85 68.72 89.16 70.02 C 81.46 73.75 81.22 83.98 84.08 90.95 C 85.73 94.83 90.15 99.04 94.58 96.58 C 100.24 92.82 100.12 84.79 98.47 78.93 C 97.26 74.45 93.42 71.66 89.46 69.73 C 88.52 69.04 87.60 68.33 86.72 67.57 C 87.78 67.69 88.83 67.83 89.89 67.98 C 91.44 67.47 92.99 66.98 94.56 66.51 C 93.51 63.57 92.31 60.69 91.07 57.82 C 93.44 60.16 95.72 62.97 95.48 66.52 C 98.77 66.64 101.91 68.10 105.23 67.71 C 106.08 64.02 110.38 63.78 113.35 63.00 C 111.29 62.01 109.14 61.25 106.98 60.50 C 106.52 61.58 106.00 62.64 105.44 63.67 C 105.32 62.87 105.08 61.27 104.96 60.46 C 100.99 60.70 97.19 59.28 93.87 57.23 C 91.83 55.12 90.97 52.12 88.77 50.11 M 145.80 61.10 C 147.33 61.20 148.87 61.30 150.40 61.43 C 150.94 64.65 152.14 67.69 152.90 70.86 C 152.79 74.04 152.53 77.22 151.84 80.33 C 154.10 80.01 156.87 80.52 158.57 78.63 C 163.19 73.94 162.82 66.25 160.45 60.55 C 158.97 56.85 155.49 54.83 152.07 53.21 C 149.26 55.21 146.90 57.76 145.80 61.10 M 128.37 60.24 C 123.77 63.01 123.14 69.08 123.58 73.93 C 123.99 78.74 126.26 84.20 131.06 86.04 C 134.58 87.27 137.94 84.43 139.19 81.32 C 141.82 74.56 140.75 65.84 134.77 61.17 C 132.88 60.09 130.27 58.24 128.37 60.24 M 114.93 63.89 C 118.39 66.38 120.97 69.86 121.97 74.05 C 122.19 71.55 122.30 69.04 122.65 66.55 C 120.11 65.57 117.57 64.58 114.93 63.89 M 104.72 72.45 C 108.02 73.87 111.46 77.87 109.55 81.58 C 107.67 85.14 108.60 89.25 107.88 93.07 C 106.28 99.61 107.96 106.72 104.93 112.95 C 102.85 116.97 100.56 120.99 97.60 124.41 C 94.40 126.14 90.51 124.53 87.32 123.43 C 84.06 124.18 82.95 127.91 83.64 130.86 C 84.80 135.94 85.42 141.41 83.76 146.45 C 82.47 150.92 82.43 155.78 79.86 159.82 C 80.27 160.38 81.10 161.51 81.51 162.07 C 82.51 160.33 83.11 158.19 85.06 157.26 C 85.02 159.18 85.29 161.14 84.94 163.05 C 82.83 167.81 86.21 173.03 84.55 177.91 C 83.39 181.56 81.86 185.17 81.73 189.06 C 82.41 194.36 83.79 199.55 85.47 204.61 C 85.08 204.53 84.29 204.37 83.89 204.29 C 83.03 201.66 82.11 199.05 81.03 196.50 C 79.30 200.19 78.01 204.10 77.21 208.11 C 75.77 217.70 82.33 226.54 80.71 236.16 C 78.39 243.97 84.81 250.72 85.16 258.38 C 88.29 262.66 94.82 263.81 98.90 260.18 C 96.75 256.57 92.67 260.03 89.56 258.42 C 88.53 258.52 87.50 258.61 86.48 258.71 C 86.85 258.30 87.61 257.47 87.99 257.06 C 91.19 256.94 94.39 256.69 97.60 256.54 C 98.83 257.48 99.37 259.04 100.26 260.28 C 101.51 260.10 102.60 259.63 103.53 258.85 C 101.69 254.48 97.55 251.70 95.58 247.43 C 94.15 244.58 92.15 242.04 90.92 239.10 C 88.83 233.04 88.52 226.44 89.68 220.16 C 90.33 217.00 92.08 214.18 92.79 211.04 C 93.20 207.79 92.95 204.49 92.83 201.23 C 89.32 205.76 90.10 211.59 88.74 216.82 C 86.17 212.23 88.44 206.58 90.39 202.14 C 94.51 195.36 95.02 187.02 99.30 180.32 C 101.88 176.17 102.33 171.17 103.10 166.45 C 98.35 167.50 93.02 169.24 88.47 166.55 C 87.35 166.20 85.27 164.77 86.77 163.60 C 92.39 167.13 99.60 166.42 104.91 162.68 C 105.43 160.29 105.07 157.59 106.24 155.42 C 108.36 154.32 110.71 153.82 113.04 153.45 C 114.35 151.05 115.76 148.67 117.73 146.74 C 117.16 149.48 116.22 152.23 114.49 154.47 C 111.68 155.74 107.84 155.70 106.75 159.27 C 110.75 159.75 114.96 162.03 118.91 160.14 C 122.97 158.78 125.66 155.16 129.64 153.65 C 128.42 151.98 127.18 150.22 127.04 148.09 C 126.41 143.11 124.06 138.60 122.05 134.07 C 122.83 131.55 123.34 128.93 123.09 126.28 C 121.96 125.19 120.86 124.09 119.78 122.97 C 113.05 124.90 105.51 128.24 98.78 124.41 C 101.51 122.01 105.03 124.69 108.15 123.67 C 112.13 122.76 116.48 122.48 119.85 119.95 C 120.76 117.74 119.82 115.23 119.12 113.05 C 119.50 111.20 119.61 109.31 119.57 107.42 C 118.96 107.93 117.73 108.95 117.12 109.46 C 116.18 109.08 115.24 108.69 114.31 108.30 C 112.77 109.23 111.21 110.14 109.56 110.88 C 109.15 110.20 108.73 109.52 108.32 108.84 C 109.75 108.65 111.70 109.22 112.45 107.58 C 113.49 105.49 113.31 103.05 113.67 100.79 C 114.47 102.79 115.10 104.84 115.39 106.98 C 116.08 107.09 117.46 107.33 118.15 107.44 C 119.88 104.50 122.19 101.63 122.33 98.07 C 122.28 94.73 121.12 91.54 120.87 88.22 C 119.35 91.12 116.47 92.92 113.26 93.36 C 113.37 93.97 113.61 95.17 113.72 95.78 C 116.61 95.85 120.19 95.51 121.59 98.69 C 118.91 98.02 116.19 97.55 113.44 97.32 C 111.58 98.45 108.76 100.22 107.51 97.39 C 109.04 97.14 110.58 96.92 112.12 96.72 C 113.09 94.17 111.54 92.27 109.86 90.53 C 112.24 90.92 115.05 91.88 117.09 90.05 C 122.22 85.52 121.91 77.40 119.44 71.55 C 117.97 67.82 114.44 65.83 111.03 64.17 C 108.13 66.27 105.77 68.97 104.72 72.45 M 91.51 68.49 C 94.36 70.37 97.07 72.53 98.88 75.48 C 98.95 74.99 99.10 74.01 99.18 73.51 C 100.60 73.53 102.03 73.53 103.46 73.53 C 103.85 72.14 104.27 70.75 104.70 69.38 C 100.26 69.35 95.97 67.36 91.51 68.49 Z" />
<path fill="#333333" opacity="1.00" d=" M 144.55 82.52 C 145.91 86.97 145.12 91.82 144.30 96.30 C 142.16 92.03 143.81 86.97 144.55 82.52 Z" />
<path fill="#333333" opacity="1.00" d=" M 131.77 91.79 C 133.71 88.19 138.09 87.38 141.17 85.06 C 137.09 91.31 129.65 94.84 127.00 102.12 C 126.94 98.09 129.83 95.05 131.77 91.79 Z" />
<path fill="#333333" opacity="1.00" d=" M 83.17 97.72 C 86.27 98.84 88.29 101.58 89.22 104.65 C 86.42 103.17 84.99 100.17 83.17 97.72 Z" />
<path fill="#333333" opacity="1.00" d=" M 92.21 100.13 C 93.79 99.60 95.35 99.00 96.91 98.42 C 95.21 103.64 90.20 106.54 87.36 111.06 C 86.20 106.29 92.31 104.59 92.21 100.13 Z" />
<path fill="#333333" opacity="1.00" d=" M 88.25 117.54 C 90.72 116.43 93.17 115.30 95.56 114.04 C 94.79 116.92 90.92 120.32 88.25 117.54 Z" />
<path fill="#333333" opacity="1.00" d=" M 111.89 118.25 C 111.83 115.99 113.19 114.44 115.24 113.69 C 114.46 115.44 113.32 116.98 111.89 118.25 Z" />
<path fill="#333333" opacity="1.00" d=" M 102.52 119.67 C 104.66 119.59 106.54 120.70 107.88 122.30 C 105.55 123.21 103.69 121.48 102.52 119.67 Z" />
<path fill="#333333" opacity="1.00" d=" M 105.04 128.47 C 110.38 128.47 115.45 126.64 120.51 125.15 C 119.68 125.97 118.93 126.89 117.96 127.56 C 111.78 130.33 104.81 130.92 98.15 129.90 C 96.84 135.24 91.46 138.09 86.47 139.16 C 89.69 135.60 95.36 134.39 96.64 129.16 C 94.86 128.52 93.07 127.93 91.28 127.33 C 90.02 129.58 89.18 132.02 89.11 134.61 C 88.67 134.47 87.79 134.19 87.34 134.05 C 87.93 131.33 88.92 128.72 89.95 126.14 C 95.01 126.77 99.88 128.78 105.04 128.47 Z" />
<path fill="#333333" opacity="1.00" d=" M 105.80 134.91 C 110.22 133.79 114.73 132.92 119.30 132.82 C 119.34 133.89 119.38 134.96 119.43 136.03 C 113.69 138.06 108.23 140.73 102.70 143.24 C 106.23 138.60 112.33 137.47 117.31 135.05 C 110.87 134.32 104.81 137.58 98.51 138.47 C 100.26 136.16 103.20 135.68 105.80 134.91 Z" />
<path fill="#333333" opacity="1.00" d=" M 96.73 145.05 C 105.20 143.65 113.93 143.73 122.17 141.11 C 119.55 144.62 115.00 144.78 111.01 145.04 C 106.22 145.03 101.56 146.53 96.76 146.20 L 96.73 145.05 Z" />
<path fill="#333333" opacity="1.00" d=" M 87.47 179.87 C 90.01 179.87 92.44 179.19 94.71 178.09 C 95.30 179.58 95.91 181.07 96.43 182.59 C 95.03 183.47 94.91 181.24 94.23 180.49 C 92.53 180.99 90.82 181.43 89.10 181.84 C 88.40 183.01 87.69 184.17 86.96 185.32 C 87.09 183.50 87.27 181.68 87.47 179.87 Z" />
<path fill="#333333" opacity="1.00" d=" M 89.43 189.56 C 90.36 188.22 92.23 189.53 93.47 189.73 C 93.55 191.95 88.28 191.28 89.43 189.56 Z" />
<path fill="#333333" opacity="1.00" d=" M 125.60 234.45 C 123.03 232.22 122.36 228.62 124.24 225.73 C 124.57 228.65 125.04 231.56 125.60 234.45 Z" />
<path fill="#333333" opacity="1.00" d=" M 82.56 242.82 C 83.67 239.65 84.66 235.53 88.21 234.28 C 86.72 237.36 85.63 240.90 82.56 242.82 Z" />
</g>
</svg>
