<?xml version="1.0" encoding="UTF-8" ?>
<!DOCTYPE svg PUBLIC "-//W3C//DTD SVG 1.1//EN" "http://www.w3.org/Graphics/SVG/1.1/DTD/svg11.dtd">
<svg width="200pt" height="225pt" viewBox="0 0 200 225" version="1.1" xmlns="http://www.w3.org/2000/svg">
<g id="#ffffffff">
<path fill="#FFFFFF" opacity="1.00" d=" M 0.00 0.00 L 200.00 0.00 L 200.00 225.00 L 0.00 225.00 L 0.00 0.00 M 117.40 29.47 C 116.32 35.02 116.78 42.03 121.98 45.47 C 120.01 41.61 117.73 37.51 118.26 33.00 C 118.30 27.58 121.37 22.07 126.76 20.42 C 119.81 25.76 117.83 36.26 122.16 43.82 C 123.55 46.20 126.31 46.98 128.87 47.27 C 125.42 52.11 128.38 58.31 125.58 63.35 C 124.34 66.09 124.71 69.13 124.53 72.04 C 123.92 76.42 121.16 80.17 120.67 84.58 C 120.29 87.94 120.64 91.37 121.56 94.62 C 121.91 94.73 122.62 94.96 122.97 95.08 C 122.27 89.42 121.71 83.62 123.99 78.21 C 124.26 78.09 124.78 77.83 125.04 77.71 C 125.96 81.94 129.97 83.96 133.24 86.18 C 133.26 86.92 133.30 88.42 133.33 89.17 C 134.07 88.65 134.82 88.13 135.57 87.61 C 138.62 88.99 141.54 91.35 145.07 91.06 C 146.83 91.22 148.03 89.46 148.22 87.89 C 149.55 84.87 146.21 82.80 144.68 80.67 L 147.41 81.68 C 147.38 81.00 147.32 79.64 147.29 78.95 C 145.58 78.94 143.89 79.06 142.20 79.31 C 141.76 77.83 141.33 76.34 140.90 74.86 C 140.54 74.73 139.81 74.45 139.45 74.31 C 139.58 75.16 139.83 76.85 139.96 77.69 C 138.65 77.01 137.34 76.33 136.03 75.66 C 136.30 75.18 136.83 74.22 137.09 73.74 C 136.09 74.04 134.08 74.64 133.07 74.94 C 133.46 72.70 132.70 68.80 135.83 68.31 C 139.93 66.19 144.15 69.16 147.77 70.97 C 154.20 69.77 160.35 72.89 165.27 76.74 C 166.58 77.83 168.43 79.00 167.88 81.01 C 167.36 86.69 167.10 92.56 164.88 97.89 C 160.95 104.24 157.61 110.98 152.62 116.62 C 155.68 115.88 157.29 113.07 159.17 110.83 C 158.86 113.61 158.05 116.32 156.59 118.71 C 153.34 122.43 148.51 123.89 143.83 124.83 C 136.45 128.19 127.76 129.44 120.20 125.87 C 120.16 125.67 120.09 125.28 120.06 125.09 C 122.74 124.41 125.89 124.81 128.28 123.30 C 130.24 120.91 133.18 119.62 135.05 117.17 C 137.88 116.10 141.06 115.97 143.68 114.38 C 141.56 114.67 139.48 115.20 137.39 115.64 C 136.54 115.39 134.84 114.88 133.99 114.62 C 133.63 113.87 133.27 113.12 132.92 112.36 C 133.86 111.53 134.73 110.64 135.55 109.70 C 132.82 110.51 130.97 112.82 128.38 113.92 L 128.00 112.24 C 126.43 111.96 124.85 111.67 123.28 111.36 C 123.50 111.74 123.93 112.52 124.15 112.90 C 125.35 113.22 126.55 113.53 127.77 113.82 C 127.45 115.96 128.28 117.90 129.66 119.51 C 128.72 120.28 127.80 121.05 126.87 121.82 C 123.94 122.21 121.09 123.01 118.37 124.17 C 118.29 124.61 118.13 125.48 118.05 125.92 L 117.66 126.59 C 114.24 127.28 110.77 127.89 107.64 129.50 C 109.07 125.20 107.06 120.89 104.88 117.26 C 107.30 117.67 109.74 118.01 112.18 118.24 L 112.27 117.08 C 109.61 116.58 106.96 116.05 104.29 115.62 C 104.41 116.15 104.67 117.22 104.80 117.75 C 102.09 112.82 96.17 111.53 91.62 108.90 C 92.88 108.25 94.15 107.63 95.40 106.97 C 95.36 107.44 95.28 108.38 95.24 108.85 C 97.10 108.81 98.76 107.71 100.54 107.24 C 100.57 106.77 100.64 105.83 100.68 105.35 C 106.04 101.79 111.00 95.48 118.23 97.33 C 117.17 100.18 119.22 101.76 121.30 103.14 C 121.40 105.10 120.22 106.86 119.69 108.70 C 118.33 109.87 117.08 111.15 115.95 112.54 C 116.32 112.67 117.07 112.94 117.44 113.07 C 120.31 111.00 123.08 108.21 123.40 104.50 C 122.92 101.86 120.43 100.28 118.94 98.21 C 121.64 98.04 124.27 97.29 126.97 97.20 C 131.58 97.95 135.68 100.57 140.41 100.83 C 140.32 100.31 140.14 99.26 140.05 98.74 C 136.44 99.68 133.60 96.69 130.15 96.28 C 126.18 94.80 122.08 97.33 118.11 95.86 C 113.13 94.32 107.78 97.22 104.63 101.02 C 102.31 102.40 100.17 104.07 97.81 105.38 C 94.62 106.01 91.36 106.69 88.78 108.83 C 86.18 108.53 83.60 108.05 80.99 107.91 C 77.16 107.56 73.81 110.10 70.01 109.95 C 66.96 110.09 63.98 109.33 60.94 109.25 C 58.93 109.82 57.15 111.13 55.04 111.31 C 48.63 111.76 42.44 113.95 36.75 116.84 C 33.52 118.83 30.50 121.15 27.19 123.03 C 24.10 126.69 24.32 131.75 25.14 136.18 C 25.06 141.11 26.09 145.97 26.01 150.91 C 25.96 159.07 30.32 166.73 29.23 174.92 C 28.21 180.82 22.33 183.45 19.15 187.97 C 17.01 191.40 12.60 192.05 10.11 195.10 C 9.54 196.56 9.28 198.12 9.07 199.67 C 10.28 201.34 12.15 202.93 14.36 202.23 C 17.91 201.17 21.76 201.41 25.24 200.26 C 29.07 197.28 33.09 194.38 38.13 194.07 C 35.53 197.10 33.20 201.06 29.00 202.01 C 25.99 202.76 23.57 204.77 20.87 206.19 C 20.25 207.36 19.65 208.53 19.06 209.70 C 23.36 212.30 27.54 215.92 32.92 215.63 C 37.72 214.09 42.64 212.77 47.04 210.22 C 51.50 207.70 56.91 208.36 61.52 206.36 C 65.74 202.95 64.37 196.71 62.34 192.46 C 57.86 184.08 57.79 174.24 58.44 165.00 C 58.72 157.82 54.15 151.36 55.29 144.19 L 56.00 143.92 L 55.24 146.00 C 58.04 144.98 60.86 143.49 63.94 143.97 C 68.68 144.42 73.36 143.31 77.79 141.70 C 77.70 142.14 77.50 143.02 77.41 143.46 C 81.68 141.47 86.24 139.68 91.05 140.08 C 96.64 140.30 103.20 138.06 105.42 132.47 C 107.03 132.18 108.54 131.57 109.60 130.26 C 113.73 128.49 118.44 127.52 122.75 129.26 C 132.72 132.24 142.33 126.95 151.85 124.80 C 153.86 123.74 155.52 121.84 157.96 121.82 C 161.40 121.60 165.15 120.03 166.56 116.66 C 169.39 111.16 167.46 104.85 166.30 99.17 C 169.15 93.16 169.39 86.38 169.87 79.86 C 167.96 75.10 163.37 71.86 158.64 70.18 C 154.20 63.39 146.50 59.59 138.95 57.24 C 136.01 56.23 135.27 60.06 134.05 61.87 C 134.68 63.10 135.30 64.34 135.95 65.56 C 132.58 66.54 130.38 69.14 130.12 72.69 C 130.54 72.89 131.37 73.28 131.79 73.48 C 130.27 73.62 128.20 72.41 127.16 74.02 C 126.80 74.88 126.08 76.59 125.72 77.45 C 125.43 76.93 125.15 76.41 124.87 75.89 C 127.45 72.38 126.51 67.87 128.09 64.02 C 130.37 58.99 127.45 53.16 130.10 48.20 C 130.92 45.16 133.93 42.10 132.13 38.91 C 131.40 40.87 131.10 43.06 129.80 44.76 C 127.35 45.74 124.50 44.95 123.23 42.58 C 118.97 35.50 121.41 24.53 129.49 21.30 C 131.62 22.95 133.57 24.85 134.62 27.38 C 133.83 27.75 132.26 28.50 131.47 28.87 C 133.36 29.04 135.25 29.16 137.15 29.28 C 134.25 36.06 133.22 46.01 140.09 50.76 C 138.57 47.61 136.53 44.54 136.33 40.94 C 135.86 35.03 137.86 27.75 144.14 25.70 C 138.67 30.44 137.41 37.81 137.94 44.67 C 138.45 44.05 138.95 43.42 139.44 42.78 C 138.55 36.32 140.92 28.38 147.85 26.39 C 153.97 29.63 154.33 37.60 152.66 43.51 C 151.45 46.84 149.07 50.76 145.06 50.72 C 142.32 50.09 140.72 47.60 140.15 45.02 C 139.69 44.91 138.76 44.70 138.30 44.60 C 139.29 47.87 141.21 52.09 145.18 52.23 C 148.70 52.53 151.27 49.48 152.67 46.61 C 155.31 41.07 155.56 34.10 152.31 28.77 C 150.45 25.75 146.61 25.81 143.54 25.13 C 141.33 24.31 139.86 26.59 138.37 27.78 C 137.45 27.61 136.53 27.45 135.62 27.28 C 134.66 25.19 133.85 22.58 131.48 21.69 C 129.09 20.80 126.58 20.17 124.05 19.97 C 120.30 21.65 118.24 25.62 117.40 29.47 M 127.15 31.86 C 127.21 34.60 127.29 37.45 128.75 39.88 C 130.08 36.95 128.70 34.28 127.15 31.86 M 139.66 56.80 C 140.29 55.18 140.74 53.00 139.89 51.40 C 138.52 52.06 138.37 56.19 139.66 56.80 M 140.66 74.19 C 142.13 72.84 143.80 71.56 144.64 69.68 C 141.95 68.20 140.71 72.18 140.66 74.19 M 142.46 76.29 C 144.35 77.08 146.31 77.76 148.39 77.79 C 146.97 75.77 144.65 75.78 142.46 76.29 M 154.12 86.81 C 152.12 84.83 150.54 82.51 148.95 80.21 C 148.48 80.85 148.03 81.51 147.58 82.17 C 149.02 83.90 150.37 85.71 151.74 87.49 C 151.01 89.48 150.42 91.51 149.89 93.55 C 145.46 94.11 143.19 97.89 140.58 100.97 C 144.20 101.97 146.73 105.00 150.25 106.20 C 149.55 102.96 146.47 101.52 143.78 100.17 C 144.81 97.20 147.69 93.78 151.08 95.89 C 151.54 101.82 151.36 107.68 150.28 113.53 C 151.68 111.25 152.82 108.76 153.11 106.08 C 153.68 102.42 152.40 98.73 153.31 95.09 C 152.47 94.96 151.63 94.82 150.80 94.68 L 152.52 94.76 C 152.13 92.77 151.61 89.18 153.79 88.20 C 153.76 89.74 153.19 91.22 152.81 92.70 C 153.15 93.43 153.50 94.15 153.87 94.86 C 154.87 91.68 155.45 88.26 157.47 85.51 C 159.00 83.35 160.33 80.93 160.07 78.17 C 158.10 81.06 157.07 84.68 154.12 86.81 M 148.45 97.25 C 147.96 98.33 148.44 99.93 149.45 100.57 C 151.21 100.29 150.05 96.64 148.45 97.25 M 109.85 104.97 C 108.89 105.51 107.93 106.04 106.97 106.57 C 105.52 106.05 104.10 105.42 102.56 105.24 C 100.98 106.56 104.55 106.72 105.10 107.50 C 107.43 106.71 109.74 105.88 112.03 104.98 C 112.44 103.39 112.83 101.79 113.19 100.19 C 111.89 101.65 110.80 103.27 109.85 104.97 M 132.19 104.84 C 130.02 103.37 127.59 102.40 125.21 101.35 C 125.97 104.69 129.32 104.84 132.19 104.84 M 125.70 107.17 C 126.60 109.26 128.50 111.78 131.03 110.35 C 129.26 109.27 127.50 108.17 125.70 107.17 M 107.44 107.81 C 109.40 109.35 111.46 110.84 113.86 111.63 C 113.16 110.45 112.45 109.27 111.60 108.20 C 110.23 107.93 108.84 107.79 107.44 107.81 M 107.75 114.20 C 110.45 115.46 113.29 116.57 116.30 116.70 C 114.12 114.29 110.78 114.14 107.75 114.20 M 120.69 113.50 C 121.71 116.00 123.86 117.56 126.64 117.16 C 124.93 115.54 122.85 114.39 120.69 113.50 M 117.36 116.34 C 116.71 117.84 118.49 120.17 120.14 119.61 C 120.88 118.22 118.82 115.88 117.36 116.34 M 144.73 131.78 C 130.06 135.14 115.67 139.62 101.08 143.31 C 89.92 146.60 78.75 149.81 67.78 153.66 C 63.29 155.59 59.97 150.85 55.77 150.28 C 57.93 153.37 61.53 155.03 65.02 156.09 C 69.80 156.18 74.08 153.56 78.65 152.52 C 78.88 161.60 78.78 170.71 79.95 179.74 C 80.30 179.48 81.00 178.96 81.35 178.69 C 81.10 169.81 81.10 160.91 80.31 152.05 C 97.48 146.28 115.22 142.32 132.70 137.51 C 133.01 142.49 132.69 147.50 133.12 152.46 C 133.60 152.73 134.58 153.26 135.06 153.53 C 135.22 148.07 134.76 142.63 134.32 137.20 C 136.72 136.36 139.18 135.74 141.65 135.15 C 142.11 140.48 141.30 146.26 143.75 151.20 C 144.80 145.77 143.87 140.23 143.45 134.78 C 149.14 132.95 155.48 132.72 160.57 129.35 C 161.73 128.73 161.76 127.30 162.24 126.23 C 157.30 130.31 150.66 130.31 144.73 131.78 M 87.77 152.96 C 88.17 157.66 87.28 162.95 89.92 167.13 C 90.26 161.70 90.35 156.18 89.12 150.84 C 88.16 148.76 87.10 152.38 87.77 152.96 Z" />
<path fill="#FFFFFF" opacity="1.00" d=" M 137.26 58.93 C 140.54 58.93 143.52 60.36 146.37 61.82 C 150.10 63.83 153.91 66.01 156.41 69.56 C 153.21 68.91 149.95 68.91 146.71 68.92 C 144.86 66.28 141.43 66.26 138.63 65.38 C 137.79 64.40 136.93 63.44 136.14 62.43 C 136.41 61.23 136.90 60.10 137.26 58.93 M 143.07 62.25 C 145.22 64.63 148.17 66.04 151.15 67.08 C 149.12 64.54 146.12 63.13 143.07 62.25 Z" />
<path fill="#FFFFFF" opacity="1.00" d=" M 128.50 74.87 C 135.78 76.49 143.41 80.26 147.38 86.83 C 146.34 86.54 145.31 86.26 144.27 85.97 C 144.88 86.99 145.48 88.02 146.09 89.04 C 138.59 88.89 132.18 83.91 126.91 79.01 C 127.45 77.63 127.98 76.25 128.50 74.87 M 134.12 78.85 C 136.51 80.94 139.26 82.63 142.19 83.84 C 140.39 81.04 137.32 79.46 134.12 78.85 Z" />
<path fill="#FFFFFF" opacity="1.00" d=" M 161.51 107.62 C 161.79 104.95 163.65 102.94 165.25 100.94 C 166.05 105.23 166.21 109.65 165.83 113.99 C 164.80 117.79 161.26 120.20 157.38 120.25 C 158.35 115.89 160.98 112.10 161.51 107.62 Z" />
<path fill="#FFFFFF" opacity="1.00" d=" M 74.16 111.08 C 79.56 108.86 85.43 110.10 90.95 111.07 C 95.37 112.97 100.91 114.02 103.30 118.69 C 105.01 122.00 107.47 126.19 105.13 129.78 C 103.41 132.42 101.61 135.28 98.71 136.75 C 96.67 137.86 94.28 137.66 92.05 137.80 C 87.59 137.81 83.48 139.75 79.34 141.17 C 81.13 132.74 76.49 124.15 70.21 118.77 C 68.19 116.89 65.53 119.08 63.20 118.81 C 62.87 116.68 63.18 114.52 63.23 112.38 C 62.90 112.03 62.23 111.32 61.90 110.96 C 66.12 111.31 70.35 111.60 74.59 111.68 C 74.31 112.10 73.73 112.95 73.45 113.38 C 72.63 114.71 71.87 116.09 71.16 117.49 C 74.00 117.64 76.85 117.75 79.69 117.60 C 79.87 117.97 80.23 118.71 80.41 119.08 C 84.48 118.40 89.22 121.43 88.44 125.95 C 88.98 124.78 89.55 123.62 90.15 122.48 C 89.44 117.28 83.68 117.82 80.13 115.99 C 77.87 115.97 75.61 116.00 73.36 115.96 C 74.89 114.87 76.47 113.85 78.01 112.78 C 76.70 112.27 75.39 111.75 74.16 111.08 M 79.54 113.15 C 83.18 115.40 87.39 116.54 91.28 118.31 L 91.93 117.83 C 89.19 114.02 83.79 113.87 79.54 113.15 Z" />
<path fill="#FFFFFF" opacity="1.00" d=" M 28.30 124.35 C 37.42 118.28 47.61 112.13 59.04 113.08 C 61.47 113.81 61.10 116.91 61.31 118.93 L 61.15 119.72 C 56.10 122.03 50.33 123.27 46.26 127.29 C 44.24 129.37 41.48 130.47 39.35 132.41 C 37.69 134.89 36.20 137.95 36.77 141.02 C 37.22 144.02 38.43 146.90 38.46 149.98 C 38.41 155.21 41.13 159.90 41.45 165.09 C 41.96 170.83 44.22 176.25 44.74 181.99 C 44.92 186.00 42.59 189.40 39.97 192.19 C 36.43 192.58 32.62 192.56 29.52 194.58 C 26.65 196.08 24.51 199.24 20.98 199.19 C 17.32 199.19 13.80 201.86 10.20 200.05 C 11.29 198.40 13.20 197.64 14.69 196.42 C 13.61 196.53 11.44 196.74 10.35 196.85 C 11.89 195.08 13.71 193.57 15.96 192.82 C 19.06 191.86 20.35 188.62 22.50 186.49 C 24.79 183.80 28.61 182.38 29.76 178.81 C 32.20 172.01 30.12 164.69 28.44 157.96 C 25.56 150.29 27.57 141.97 27.05 134.05 C 25.82 130.84 25.90 127.01 28.30 124.35 M 34.27 123.09 C 33.42 127.32 39.18 130.07 42.13 127.11 C 38.79 127.34 36.18 125.69 34.27 123.09 M 29.31 129.49 C 29.74 130.72 30.19 131.95 30.64 133.18 C 30.50 133.81 30.22 135.07 30.08 135.70 L 31.48 135.10 C 31.07 137.02 30.91 138.95 30.98 140.91 C 32.16 138.97 32.71 136.74 33.62 134.68 L 32.30 135.10 C 33.32 132.86 32.39 128.92 29.31 129.49 M 40.58 177.86 C 41.63 182.70 38.17 186.48 35.93 190.36 C 39.30 189.09 40.53 185.58 42.42 182.85 C 42.16 181.06 41.66 179.33 40.58 177.86 M 26.00 190.91 C 28.59 189.04 30.92 186.80 32.85 184.25 C 29.77 185.51 27.50 188.00 26.00 190.91 Z" />
<path fill="#FFFFFF" opacity="1.00" d=" M 130.01 117.08 C 128.34 115.80 130.38 114.31 131.10 113.25 C 131.98 114.87 133.27 116.20 134.53 117.52 C 133.02 117.49 131.41 117.78 130.01 117.08 Z" />
<path fill="#FFFFFF" opacity="1.00" d=" M 52.10 125.09 C 57.80 122.83 63.36 119.36 69.74 119.92 C 74.59 125.13 79.50 132.33 77.74 139.74 C 72.44 142.75 66.03 143.38 60.07 142.43 C 57.40 141.77 54.91 143.04 52.49 144.00 C 53.41 148.75 54.87 153.36 56.17 158.01 C 57.77 163.53 56.40 169.28 56.78 174.90 C 57.55 180.57 57.66 186.47 60.34 191.67 C 61.46 195.61 64.66 200.67 61.39 204.31 C 56.01 206.81 49.61 206.30 44.41 209.40 C 38.94 212.06 32.41 215.27 26.39 212.45 C 25.48 211.67 24.72 210.75 23.92 209.88 C 23.09 209.86 21.45 209.83 20.62 209.81 C 21.95 205.96 26.56 204.81 29.99 203.48 C 35.09 202.28 37.57 197.21 40.61 193.46 C 42.54 190.89 46.30 189.43 46.55 185.84 C 46.17 177.38 43.05 169.31 42.58 160.85 C 42.50 157.03 39.76 153.83 40.16 149.95 C 40.50 146.00 38.73 142.33 38.12 138.50 C 39.56 136.14 40.18 132.97 42.92 131.71 C 46.34 129.99 48.47 126.45 52.10 125.09 M 57.66 133.12 C 62.94 132.27 66.63 127.92 71.08 125.31 C 65.86 126.30 61.31 129.36 57.66 133.12 M 47.75 132.38 C 48.27 134.35 50.04 135.08 51.89 135.33 C 52.14 134.96 52.62 134.22 52.86 133.85 C 51.15 133.39 49.45 132.87 47.75 132.38 M 42.51 144.40 C 44.66 142.94 45.27 140.57 45.23 138.09 C 45.85 137.11 46.46 136.12 47.03 135.11 C 42.65 136.00 43.29 141.00 42.51 144.40 M 45.25 153.26 C 45.80 153.81 45.80 153.81 45.25 153.26 M 49.70 159.44 C 50.84 164.81 51.11 170.52 53.82 175.42 C 53.44 167.98 50.44 160.93 50.27 153.43 C 49.75 155.38 49.26 157.43 49.70 159.44 M 54.34 197.26 C 53.30 198.05 52.32 198.92 51.50 199.95 C 53.61 199.33 58.15 198.10 56.51 195.14 C 55.74 195.80 55.05 196.53 54.34 197.26 M 41.60 204.28 C 43.76 202.24 45.53 199.79 46.70 197.06 C 44.26 198.82 42.21 201.26 41.60 204.28 M 26.45 206.90 C 28.84 208.49 31.50 209.82 34.44 209.90 C 32.84 207.12 29.41 206.33 26.45 206.90 Z" />
</g>
<g id="#4b4e48ff">
<path fill="#333333" opacity="1.00" d=" M 117.40 29.47 C 118.24 25.62 120.30 21.65 124.05 19.97 C 126.58 20.17 129.09 20.80 131.48 21.69 C 133.85 22.58 134.66 25.19 135.62 27.28 C 136.53 27.45 137.45 27.61 138.37 27.78 C 139.86 26.59 141.33 24.31 143.54 25.13 C 146.61 25.81 150.45 25.75 152.31 28.77 C 155.56 34.10 155.31 41.07 152.67 46.61 C 151.27 49.48 148.70 52.53 145.18 52.23 C 141.21 52.09 139.29 47.87 138.30 44.60 C 138.76 44.70 139.69 44.91 140.15 45.02 C 140.72 47.60 142.32 50.09 145.06 50.72 C 149.07 50.76 151.45 46.84 152.66 43.51 C 154.33 37.60 153.97 29.63 147.85 26.39 C 140.92 28.38 138.55 36.32 139.44 42.78 C 138.95 43.42 138.45 44.05 137.94 44.67 C 137.41 37.81 138.67 30.44 144.14 25.70 C 137.86 27.75 135.86 35.03 136.33 40.94 C 136.53 44.54 138.57 47.61 140.09 50.76 C 133.22 46.01 134.25 36.06 137.15 29.28 C 135.25 29.16 133.36 29.04 131.47 28.87 C 132.26 28.50 133.83 27.75 134.62 27.38 C 133.57 24.85 131.62 22.95 129.49 21.30 C 121.41 24.53 118.97 35.50 123.23 42.58 C 124.50 44.95 127.35 45.74 129.80 44.76 C 131.10 43.06 131.40 40.87 132.13 38.91 C 133.93 42.10 130.92 45.16 130.10 48.20 C 127.45 53.16 130.37 58.99 128.09 64.02 C 126.51 67.87 127.45 72.38 124.87 75.89 C 125.15 76.41 125.43 76.93 125.72 77.45 C 126.08 76.59 126.80 74.88 127.16 74.02 C 128.20 72.41 130.27 73.62 131.79 73.48 C 131.37 73.28 130.54 72.89 130.12 72.69 C 130.38 69.14 132.58 66.54 135.95 65.56 C 135.30 64.34 134.68 63.10 134.05 61.87 C 135.27 60.06 136.01 56.23 138.95 57.24 C 146.50 59.59 154.20 63.39 158.64 70.18 C 163.37 71.86 167.96 75.10 169.87 79.86 C 169.39 86.38 169.15 93.16 166.30 99.17 C 167.46 104.85 169.39 111.16 166.56 116.66 C 165.15 120.03 161.40 121.60 157.96 121.82 C 155.52 121.84 153.86 123.74 151.85 124.80 C 142.33 126.95 132.72 132.24 122.75 129.26 C 118.44 127.52 113.73 128.49 109.60 130.26 C 108.54 131.57 107.03 132.18 105.42 132.47 C 103.20 138.06 96.64 140.30 91.05 140.08 C 86.24 139.68 81.68 141.47 77.41 143.46 C 77.50 143.02 77.70 142.14 77.79 141.70 C 73.36 143.31 68.68 144.42 63.94 143.97 C 60.86 143.49 58.04 144.98 55.24 146.00 L 56.00 143.92 L 55.29 144.19 C 54.15 151.36 58.72 157.82 58.44 165.00 C 57.79 174.24 57.86 184.08 62.34 192.46 C 64.37 196.71 65.74 202.95 61.52 206.36 C 56.91 208.36 51.50 207.70 47.04 210.22 C 42.64 212.77 37.72 214.09 32.92 215.63 C 27.54 215.92 23.36 212.30 19.06 209.70 C 19.65 208.53 20.25 207.36 20.87 206.19 C 23.57 204.77 25.99 202.76 29.00 202.01 C 33.20 201.06 35.53 197.10 38.13 194.07 C 33.09 194.38 29.07 197.28 25.24 200.26 C 21.76 201.41 17.91 201.17 14.36 202.23 C 12.15 202.93 10.28 201.34 9.07 199.67 C 9.28 198.12 9.54 196.56 10.11 195.10 C 12.60 192.05 17.01 191.40 19.15 187.97 C 22.33 183.45 28.21 180.82 29.23 174.92 C 30.32 166.73 25.96 159.07 26.01 150.91 C 26.09 145.97 25.06 141.11 25.14 136.18 C 24.32 131.75 24.10 126.69 27.19 123.03 C 30.50 121.15 33.52 118.83 36.75 116.84 C 42.44 113.95 48.63 111.76 55.04 111.31 C 57.15 111.13 58.93 109.82 60.94 109.25 C 63.98 109.33 66.96 110.09 70.01 109.95 C 73.81 110.10 77.16 107.56 80.99 107.91 C 83.60 108.05 86.18 108.53 88.78 108.83 C 91.36 106.69 94.62 106.01 97.81 105.38 C 100.17 104.07 102.31 102.40 104.63 101.02 C 107.78 97.22 113.13 94.32 118.11 95.86 C 122.08 97.33 126.18 94.80 130.15 96.28 C 133.60 96.69 136.44 99.68 140.05 98.74 C 140.14 99.26 140.32 100.31 140.41 100.83 C 135.68 100.57 131.58 97.95 126.97 97.20 C 124.27 97.29 121.64 98.04 118.94 98.21 C 120.43 100.28 122.92 101.86 123.40 104.50 C 123.08 108.21 120.31 111.00 117.44 113.07 C 117.07 112.94 116.32 112.67 115.95 112.54 C 117.08 111.15 118.33 109.87 119.69 108.70 C 120.22 106.86 121.40 105.10 121.30 103.14 C 119.22 101.76 117.17 100.18 118.23 97.33 C 111.00 95.48 106.04 101.79 100.68 105.35 C 100.64 105.83 100.57 106.77 100.54 107.24 C 98.76 107.71 97.10 108.81 95.24 108.85 C 95.28 108.38 95.36 107.44 95.40 106.97 C 94.15 107.63 92.88 108.25 91.62 108.90 C 96.17 111.53 102.09 112.82 104.80 117.75 C 104.67 117.22 104.41 116.15 104.29 115.62 C 106.96 116.05 109.61 116.58 112.27 117.08 L 112.18 118.24 C 109.74 118.01 107.30 117.67 104.88 117.26 C 107.06 120.89 109.07 125.20 107.64 129.50 C 110.77 127.89 114.24 127.28 117.66 126.59 L 118.05 125.92 C 118.13 125.48 118.29 124.61 118.37 124.17 C 121.09 123.01 123.94 122.21 126.87 121.82 C 127.80 121.05 128.72 120.28 129.66 119.51 C 128.28 117.90 127.45 115.96 127.77 113.82 C 126.55 113.53 125.35 113.22 124.15 112.90 C 123.93 112.52 123.50 111.74 123.28 111.36 C 124.85 111.67 126.43 111.96 128.00 112.24 L 128.38 113.92 C 130.97 112.82 132.82 110.51 135.55 109.70 C 134.73 110.64 133.86 111.53 132.92 112.36 C 133.27 113.12 133.63 113.87 133.99 114.62 C 134.84 114.88 136.54 115.39 137.39 115.64 C 139.48 115.20 141.56 114.67 143.68 114.38 C 141.06 115.97 137.88 116.10 135.05 117.17 C 133.18 119.62 130.24 120.91 128.28 123.30 C 125.89 124.81 122.74 124.41 120.06 125.09 C 120.09 125.28 120.16 125.67 120.20 125.87 C 127.76 129.44 136.45 128.19 143.83 124.83 C 148.51 123.89 153.34 122.43 156.59 118.71 C 158.05 116.32 158.86 113.61 159.17 110.83 C 157.29 113.07 155.68 115.88 152.62 116.62 C 157.61 110.98 160.95 104.24 164.88 97.89 C 167.10 92.56 167.36 86.69 167.88 81.01 C 168.43 79.00 166.58 77.83 165.27 76.74 C 160.35 72.89 154.20 69.77 147.77 70.97 C 144.15 69.16 139.93 66.19 135.83 68.31 C 132.70 68.80 133.46 72.70 133.07 74.94 C 134.08 74.64 136.09 74.04 137.09 73.74 C 136.83 74.22 136.30 75.18 136.03 75.66 C 137.34 76.33 138.65 77.01 139.96 77.69 C 139.83 76.85 139.58 75.16 139.45 74.31 C 139.81 74.45 140.54 74.73 140.90 74.86 C 141.33 76.34 141.76 77.83 142.20 79.31 C 143.89 79.06 145.58 78.94 147.29 78.95 C 147.32 79.64 147.38 81.00 147.41 81.68 L 144.68 80.67 C 146.21 82.80 149.55 84.87 148.22 87.89 C 148.03 89.46 146.83 91.22 145.07 91.06 C 141.54 91.35 138.62 88.99 135.57 87.61 C 134.82 88.13 134.07 88.65 133.33 89.17 C 133.30 88.42 133.26 86.92 133.24 86.18 C 129.97 83.96 125.96 81.94 125.04 77.71 C 124.78 77.83 124.26 78.09 123.99 78.21 C 121.71 83.62 122.27 89.42 122.97 95.08 C 122.62 94.96 121.91 94.73 121.56 94.62 C 120.64 91.37 120.29 87.94 120.67 84.58 C 121.16 80.17 123.92 76.42 124.53 72.04 C 124.71 69.13 124.34 66.09 125.58 63.35 C 128.38 58.31 125.42 52.11 128.87 47.27 C 126.31 46.98 123.55 46.20 122.16 43.82 C 117.83 36.26 119.81 25.76 126.76 20.42 C 121.37 22.07 118.30 27.58 118.26 33.00 C 117.73 37.51 120.01 41.61 121.98 45.47 C 116.78 42.03 116.32 35.02 117.40 29.47 M 137.26 58.93 C 136.90 60.10 136.41 61.23 136.14 62.43 C 136.93 63.44 137.79 64.40 138.63 65.38 C 141.43 66.26 144.86 66.28 146.71 68.92 C 149.95 68.91 153.21 68.91 156.41 69.56 C 153.91 66.01 150.10 63.83 146.37 61.82 C 143.52 60.36 140.54 58.93 137.26 58.93 M 128.50 74.87 C 127.98 76.25 127.45 77.63 126.91 79.01 C 132.18 83.91 138.59 88.89 146.09 89.04 C 145.48 88.02 144.88 86.99 144.27 85.97 C 145.31 86.26 146.34 86.54 147.38 86.83 C 143.41 80.26 135.78 76.49 128.50 74.87 M 161.51 107.62 C 160.98 112.10 158.35 115.89 157.38 120.25 C 161.26 120.20 164.80 117.79 165.83 113.99 C 166.21 109.65 166.05 105.23 165.25 100.94 C 163.65 102.94 161.79 104.95 161.51 107.62 M 74.16 111.08 C 75.39 111.75 76.70 112.27 78.01 112.78 C 76.47 113.85 74.89 114.87 73.36 115.96 C 75.61 116.00 77.87 115.97 80.13 115.99 C 83.68 117.82 89.44 117.28 90.15 122.48 C 89.55 123.62 88.98 124.78 88.44 125.95 C 89.22 121.43 84.48 118.40 80.41 119.08 C 80.23 118.71 79.87 117.97 79.69 117.60 C 76.85 117.75 74.00 117.64 71.16 117.49 C 71.87 116.09 72.63 114.71 73.45 113.38 C 73.73 112.95 74.31 112.10 74.59 111.68 C 70.35 111.60 66.12 111.31 61.90 110.96 C 62.23 111.32 62.90 112.03 63.23 112.38 C 63.18 114.52 62.87 116.68 63.20 118.81 C 65.53 119.08 68.19 116.89 70.21 118.77 C 76.49 124.15 81.13 132.74 79.34 141.17 C 83.48 139.75 87.59 137.81 92.05 137.80 C 94.28 137.66 96.67 137.86 98.71 136.75 C 101.61 135.28 103.41 132.42 105.13 129.78 C 107.47 126.19 105.01 122.00 103.30 118.69 C 100.91 114.02 95.37 112.97 90.95 111.07 C 85.43 110.10 79.56 108.86 74.16 111.08 M 28.30 124.35 C 25.90 127.01 25.82 130.84 27.05 134.05 C 27.57 141.97 25.56 150.29 28.44 157.96 C 30.12 164.69 32.20 172.01 29.76 178.81 C 28.61 182.38 24.79 183.80 22.50 186.49 C 20.35 188.62 19.06 191.86 15.96 192.82 C 13.71 193.57 11.89 195.08 10.35 196.85 C 11.44 196.74 13.61 196.53 14.69 196.42 C 13.20 197.64 11.29 198.40 10.20 200.05 C 13.80 201.86 17.32 199.19 20.98 199.19 C 24.51 199.24 26.65 196.08 29.52 194.58 C 32.62 192.56 36.43 192.58 39.97 192.19 C 42.59 189.40 44.92 186.00 44.74 181.99 C 44.22 176.25 41.96 170.83 41.45 165.09 C 41.13 159.90 38.41 155.21 38.46 149.98 C 38.43 146.90 37.22 144.02 36.77 141.02 C 36.20 137.95 37.69 134.89 39.35 132.41 C 41.48 130.47 44.24 129.37 46.26 127.29 C 50.33 123.27 56.10 122.03 61.15 119.72 L 61.31 118.93 C 61.10 116.91 61.47 113.81 59.04 113.08 C 47.61 112.13 37.42 118.28 28.30 124.35 M 130.01 117.08 C 131.41 117.78 133.02 117.49 134.53 117.52 C 133.27 116.20 131.98 114.87 131.10 113.25 C 130.38 114.31 128.34 115.80 130.01 117.08 M 52.10 125.09 C 48.47 126.45 46.34 129.99 42.92 131.71 C 40.18 132.97 39.56 136.14 38.12 138.50 C 38.73 142.33 40.50 146.00 40.16 149.95 C 39.76 153.83 42.50 157.03 42.58 160.85 C 43.05 169.31 46.17 177.38 46.55 185.84 C 46.30 189.43 42.54 190.89 40.61 193.46 C 37.57 197.21 35.09 202.28 29.99 203.48 C 26.56 204.81 21.95 205.96 20.62 209.81 C 21.45 209.83 23.09 209.86 23.92 209.88 C 24.72 210.75 25.48 211.67 26.39 212.45 C 32.41 215.27 38.94 212.06 44.41 209.40 C 49.61 206.30 56.01 206.81 61.39 204.31 C 64.66 200.67 61.46 195.61 60.34 191.67 C 57.66 186.47 57.55 180.57 56.78 174.90 C 56.40 169.28 57.77 163.53 56.17 158.01 C 54.87 153.36 53.41 148.75 52.49 144.00 C 54.91 143.04 57.40 141.77 60.07 142.43 C 66.03 143.38 72.44 142.75 77.74 139.74 C 79.50 132.33 74.59 125.13 69.74 119.92 C 63.36 119.36 57.80 122.83 52.10 125.09 Z" />
<path fill="#333333" opacity="1.00" d=" M 127.15 31.86 C 128.70 34.28 130.08 36.95 128.75 39.88 C 127.29 37.45 127.21 34.60 127.15 31.86 Z" />
<path fill="#333333" opacity="1.00" d=" M 139.66 56.80 C 138.37 56.19 138.52 52.06 139.89 51.40 C 140.74 53.00 140.29 55.18 139.66 56.80 Z" />
<path fill="#333333" opacity="1.00" d=" M 143.07 62.25 C 146.12 63.13 149.12 64.54 151.15 67.08 C 148.17 66.04 145.22 64.63 143.07 62.25 Z" />
<path fill="#333333" opacity="1.00" d=" M 140.66 74.19 C 140.71 72.18 141.95 68.20 144.64 69.68 C 143.80 71.56 142.13 72.84 140.66 74.19 Z" />
<path fill="#333333" opacity="1.00" d=" M 142.46 76.29 C 144.65 75.78 146.97 75.77 148.39 77.79 C 146.31 77.76 144.35 77.08 142.46 76.29 Z" />
<path fill="#333333" opacity="1.00" d=" M 134.12 78.85 C 137.32 79.46 140.39 81.04 142.19 83.84 C 139.26 82.63 136.51 80.94 134.12 78.85 Z" />
<path fill="#333333" opacity="1.00" d=" M 154.12 86.81 C 157.07 84.68 158.10 81.06 160.07 78.17 C 160.33 80.93 159.00 83.35 157.47 85.51 C 155.45 88.26 154.87 91.68 153.87 94.86 C 153.50 94.15 153.15 93.43 152.81 92.70 C 153.19 91.22 153.76 89.74 153.79 88.20 C 151.61 89.18 152.13 92.77 152.52 94.76 L 150.80 94.68 C 151.63 94.82 152.47 94.96 153.31 95.09 C 152.40 98.73 153.68 102.42 153.11 106.08 C 152.82 108.76 151.68 111.25 150.28 113.53 C 151.36 107.68 151.54 101.82 151.08 95.89 C 147.69 93.78 144.81 97.20 143.78 100.17 C 146.47 101.52 149.55 102.96 150.25 106.20 C 146.73 105.00 144.20 101.97 140.58 100.97 C 143.19 97.89 145.46 94.11 149.89 93.55 C 150.42 91.51 151.01 89.48 151.74 87.49 C 150.37 85.71 149.02 83.90 147.58 82.17 C 148.03 81.51 148.48 80.85 148.95 80.21 C 150.54 82.51 152.12 84.83 154.12 86.81 Z" />
<path fill="#333333" opacity="1.00" d=" M 148.45 97.25 C 150.05 96.64 151.21 100.29 149.45 100.57 C 148.44 99.93 147.96 98.33 148.45 97.25 Z" />
<path fill="#333333" opacity="1.00" d=" M 109.85 104.97 C 110.80 103.27 111.89 101.65 113.19 100.19 C 112.83 101.79 112.44 103.39 112.03 104.98 C 109.74 105.88 107.43 106.71 105.10 107.50 C 104.55 106.72 100.98 106.56 102.56 105.24 C 104.10 105.42 105.52 106.05 106.97 106.57 C 107.93 106.04 108.89 105.51 109.85 104.97 Z" />
<path fill="#333333" opacity="1.00" d=" M 132.19 104.84 C 129.32 104.84 125.97 104.69 125.21 101.35 C 127.59 102.40 130.02 103.37 132.19 104.84 Z" />
<path fill="#333333" opacity="1.00" d=" M 125.70 107.17 C 127.50 108.17 129.26 109.27 131.03 110.35 C 128.50 111.78 126.60 109.26 125.70 107.17 Z" />
<path fill="#333333" opacity="1.00" d=" M 107.44 107.81 C 108.84 107.79 110.23 107.93 111.60 108.20 C 112.45 109.27 113.16 110.45 113.86 111.63 C 111.46 110.84 109.40 109.35 107.44 107.81 Z" />
<path fill="#333333" opacity="1.00" d=" M 79.54 113.15 C 83.79 113.87 89.19 114.02 91.93 117.83 L 91.28 118.31 C 87.39 116.54 83.18 115.40 79.54 113.15 Z" />
<path fill="#333333" opacity="1.00" d=" M 107.75 114.20 C 110.78 114.14 114.12 114.29 116.30 116.70 C 113.29 116.57 110.45 115.46 107.75 114.20 Z" />
<path fill="#333333" opacity="1.00" d=" M 120.69 113.50 C 122.85 114.39 124.93 115.54 126.64 117.16 C 123.86 117.56 121.71 116.00 120.69 113.50 Z" />
<path fill="#333333" opacity="1.00" d=" M 117.36 116.34 C 118.82 115.88 120.88 118.22 120.14 119.61 C 118.49 120.17 116.71 117.84 117.36 116.34 Z" />
<path fill="#333333" opacity="1.00" d=" M 34.27 123.09 C 36.18 125.69 38.79 127.34 42.13 127.11 C 39.18 130.07 33.42 127.32 34.27 123.09 Z" />
<path fill="#333333" opacity="1.00" d=" M 57.66 133.12 C 61.31 129.36 65.86 126.30 71.08 125.31 C 66.63 127.92 62.94 132.27 57.66 133.12 Z" />
<path fill="#333333" opacity="1.00" d=" M 144.73 131.78 C 150.66 130.31 157.30 130.31 162.24 126.23 C 161.76 127.30 161.73 128.73 160.57 129.35 C 155.48 132.72 149.14 132.95 143.45 134.78 C 143.87 140.23 144.80 145.77 143.75 151.20 C 141.30 146.26 142.11 140.48 141.65 135.15 C 139.18 135.74 136.72 136.36 134.32 137.20 C 134.76 142.63 135.22 148.07 135.06 153.53 C 134.58 153.26 133.60 152.73 133.12 152.46 C 132.69 147.50 133.01 142.49 132.70 137.51 C 115.22 142.32 97.48 146.28 80.31 152.05 C 81.10 160.91 81.10 169.81 81.35 178.69 C 81.00 178.96 80.30 179.48 79.95 179.74 C 78.78 170.71 78.88 161.60 78.65 152.52 C 74.08 153.56 69.80 156.18 65.02 156.09 C 61.53 155.03 57.93 153.37 55.77 150.28 C 59.97 150.85 63.29 155.59 67.78 153.66 C 78.75 149.81 89.92 146.60 101.08 143.31 C 115.67 139.62 130.06 135.14 144.73 131.78 Z" />
<path fill="#333333" opacity="1.00" d=" M 29.31 129.49 C 32.39 128.92 33.32 132.86 32.30 135.10 L 33.62 134.68 C 32.71 136.74 32.16 138.97 30.98 140.91 C 30.91 138.95 31.07 137.02 31.48 135.10 L 30.08 135.70 C 30.22 135.07 30.50 133.81 30.64 133.18 C 30.19 131.95 29.74 130.72 29.31 129.49 Z" />
<path fill="#333333" opacity="1.00" d=" M 47.75 132.38 C 49.45 132.87 51.15 133.39 52.86 133.85 C 52.62 134.22 52.14 134.96 51.89 135.33 C 50.04 135.08 48.27 134.35 47.75 132.38 Z" />
<path fill="#333333" opacity="1.00" d=" M 42.51 144.40 C 43.29 141.00 42.65 136.00 47.03 135.11 C 46.46 136.12 45.85 137.11 45.23 138.09 C 45.27 140.57 44.66 142.94 42.51 144.40 Z" />
<path fill="#333333" opacity="1.00" d=" M 87.77 152.96 C 87.10 152.38 88.16 148.76 89.12 150.84 C 90.35 156.18 90.26 161.70 89.92 167.13 C 87.28 162.95 88.17 157.66 87.77 152.96 Z" />
<path fill="#333333" opacity="1.00" d=" M 45.25 153.26 C 45.80 153.81 45.80 153.81 45.25 153.26 Z" />
<path fill="#333333" opacity="1.00" d=" M 49.70 159.44 C 49.26 157.43 49.75 155.38 50.27 153.43 C 50.44 160.93 53.44 167.98 53.82 175.42 C 51.11 170.52 50.84 164.81 49.70 159.44 Z" />
<path fill="#333333" opacity="1.00" d=" M 40.58 177.86 C 41.66 179.33 42.16 181.06 42.42 182.85 C 40.53 185.58 39.30 189.09 35.93 190.36 C 38.17 186.48 41.63 182.70 40.58 177.86 Z" />
<path fill="#333333" opacity="1.00" d=" M 26.00 190.91 C 27.50 188.00 29.77 185.51 32.85 184.25 C 30.92 186.80 28.59 189.04 26.00 190.91 Z" />
<path fill="#333333" opacity="1.00" d=" M 54.34 197.26 C 55.05 196.53 55.74 195.80 56.51 195.14 C 58.15 198.10 53.61 199.33 51.50 199.95 C 52.32 198.92 53.30 198.05 54.34 197.26 Z" />
<path fill="#333333" opacity="1.00" d=" M 41.60 204.28 C 42.21 201.26 44.26 198.82 46.70 197.06 C 45.53 199.79 43.76 202.24 41.60 204.28 Z" />
<path fill="#333333" opacity="1.00" d=" M 26.45 206.90 C 29.41 206.33 32.84 207.12 34.44 209.90 C 31.50 209.82 28.84 208.49 26.45 206.90 Z" />
</g>
</svg>
