<?xml version="1.0" encoding="UTF-8" ?>
<!DOCTYPE svg PUBLIC "-//W3C//DTD SVG 1.1//EN" "http://www.w3.org/Graphics/SVG/1.1/DTD/svg11.dtd">
<svg width="200pt" height="225pt" viewBox="0 0 200 225" version="1.1" xmlns="http://www.w3.org/2000/svg">
<g id="#ffffffff">
<path fill="#FFFFFF" opacity="1.00" d=" M 0.00 0.00 L 200.00 0.00 L 200.00 225.00 L 0.00 225.00 L 0.00 0.00 M 120.26 57.71 C 119.51 59.13 118.78 60.56 118.06 61.99 C 118.71 63.17 119.35 64.35 120.03 65.51 C 116.73 66.38 112.10 70.54 115.48 73.75 C 114.36 73.48 113.23 73.27 112.10 73.12 C 110.99 75.46 110.26 77.96 109.66 80.47 C 112.39 82.97 115.55 84.95 118.38 87.33 C 120.68 88.20 122.89 89.27 125.12 90.31 C 125.12 92.16 125.87 94.06 125.43 95.88 C 118.51 98.39 111.93 93.15 108.25 87.77 C 107.11 83.87 104.63 80.10 105.01 75.94 C 107.52 73.76 110.63 72.33 113.95 71.97 C 113.93 71.75 113.90 71.32 113.88 71.10 C 111.30 69.68 107.94 70.99 106.19 73.18 C 102.60 76.12 104.45 81.18 105.40 84.93 C 106.45 89.36 110.00 92.38 113.04 95.49 C 107.10 97.41 103.35 102.68 97.84 105.36 C 94.63 106.01 91.36 106.75 88.72 108.83 C 86.17 108.53 83.63 108.05 81.06 107.92 C 77.20 107.55 73.81 110.10 69.97 109.95 C 66.91 110.09 63.91 109.30 60.86 109.28 C 58.87 109.87 57.09 111.11 54.99 111.31 C 46.05 112.06 37.47 115.66 30.37 121.08 C 25.19 122.91 23.88 129.18 24.88 134.03 C 25.32 140.35 25.91 146.65 26.15 152.99 C 26.56 160.38 30.28 167.42 29.24 174.91 C 28.21 180.80 22.37 183.46 19.16 187.96 C 16.99 191.38 12.59 192.08 10.09 195.13 C 9.55 196.58 9.28 198.13 9.08 199.66 C 10.30 201.35 12.17 202.94 14.40 202.22 C 17.96 201.16 21.82 201.43 25.29 200.22 C 29.11 197.23 33.16 194.41 38.18 194.03 C 35.54 197.07 33.21 201.05 28.99 202.02 C 25.97 202.79 23.53 204.80 20.83 206.24 C 20.23 207.40 19.65 208.56 19.08 209.72 C 22.68 211.75 25.87 214.76 30.11 215.36 C 33.20 216.38 36.02 214.31 38.96 213.71 C 44.15 212.34 48.47 208.58 53.94 208.14 C 57.35 207.36 62.26 207.68 63.61 203.61 C 65.85 197.76 61.89 192.16 59.93 186.86 C 58.01 179.75 57.85 172.29 58.44 164.99 C 58.80 157.92 54.11 151.52 55.30 144.50 C 58.54 145.00 61.71 143.76 64.98 144.03 C 69.42 144.28 73.75 143.14 77.90 141.67 C 77.75 142.11 77.46 142.97 77.31 143.40 C 81.65 141.55 86.18 139.66 91.01 140.08 C 96.65 140.32 103.05 138.04 105.46 132.55 C 107.05 132.13 108.55 131.45 109.68 130.22 C 113.79 128.48 118.46 127.53 122.75 129.26 C 132.71 132.22 142.33 126.98 151.84 124.78 C 153.89 123.73 155.60 121.85 158.05 121.81 C 161.73 121.57 165.68 119.68 166.86 115.94 C 169.41 110.60 167.10 104.70 166.50 99.19 C 169.02 92.93 169.29 86.17 170.08 79.55 C 167.67 76.21 165.04 72.60 160.96 71.24 C 157.35 70.45 156.58 66.28 153.61 64.56 C 148.43 61.02 142.65 57.10 136.07 57.74 C 135.43 59.29 134.82 60.85 134.29 62.44 C 130.12 59.71 125.41 57.20 120.26 57.71 M 139.93 132.87 C 115.75 139.43 91.40 145.48 67.72 153.68 C 63.19 155.60 59.88 150.71 55.61 150.29 C 57.26 152.33 59.42 153.88 61.82 154.90 C 67.37 158.11 73.16 153.57 78.66 152.51 C 78.90 161.20 78.73 169.93 79.83 178.57 C 80.12 178.90 80.72 179.56 81.01 179.89 C 81.56 170.63 80.93 161.34 80.29 152.09 C 97.44 146.22 115.23 142.34 132.72 137.52 C 133.00 142.46 132.69 147.43 133.11 152.36 C 133.60 152.68 134.57 153.32 135.06 153.63 C 135.23 148.12 134.73 142.63 134.35 137.15 C 136.74 136.36 139.19 135.74 141.64 135.14 C 141.74 140.02 142.10 144.88 142.69 149.73 C 143.06 149.99 143.80 150.50 144.17 150.76 C 144.36 145.43 144.03 140.10 143.43 134.80 C 148.92 133.03 154.96 132.72 160.01 129.73 C 161.41 129.10 161.78 127.52 162.41 126.27 C 155.85 130.99 147.40 130.63 139.93 132.87 M 87.76 152.83 C 88.10 157.63 87.41 162.89 89.87 167.25 C 90.31 161.78 90.33 156.21 89.12 150.84 C 88.24 148.84 87.00 152.21 87.76 152.83 Z" />
<path fill="#FFFFFF" opacity="1.00" d=" M 121.29 58.86 C 126.16 58.98 130.08 62.19 134.59 63.58 C 135.18 64.20 135.77 64.83 136.38 65.45 C 132.93 66.33 130.49 69.06 130.09 72.63 C 130.53 72.87 131.40 73.33 131.83 73.57 C 130.56 73.40 129.29 73.24 128.02 73.08 C 127.20 75.45 126.38 77.82 125.61 80.21 C 128.24 82.92 131.40 85.00 134.37 87.31 C 138.35 88.81 142.01 91.47 146.45 91.29 C 147.43 89.70 148.36 88.02 148.61 86.14 C 148.19 84.08 146.43 82.82 145.05 81.42 C 146.18 81.01 147.29 80.56 148.40 80.09 C 146.51 78.93 144.49 78.65 142.34 79.24 C 141.63 77.32 140.84 75.43 139.89 73.61 C 139.81 74.96 139.76 76.31 139.73 77.65 C 138.49 76.96 137.25 76.28 136.01 75.60 C 136.30 75.13 136.88 74.18 137.17 73.70 C 136.14 74.02 134.09 74.64 133.07 74.96 C 133.47 72.70 132.69 68.79 135.83 68.31 C 139.95 66.26 144.20 69.11 147.81 70.97 C 155.36 69.73 162.75 73.90 167.81 79.20 C 167.90 84.12 167.19 89.07 166.19 93.89 C 165.40 98.51 162.01 101.96 160.02 106.05 C 158.08 110.01 155.13 113.32 152.46 116.80 C 155.54 115.86 157.31 113.14 159.19 110.75 C 159.18 117.09 154.44 122.22 148.51 123.67 C 142.85 124.53 137.82 127.86 132.02 128.01 C 127.95 128.42 123.94 127.33 120.19 125.87 C 120.13 125.67 120.03 125.29 119.98 125.09 C 123.03 124.27 127.00 125.05 129.25 122.35 C 131.07 120.45 133.42 119.17 135.17 117.19 C 138.02 116.11 141.12 115.77 143.88 114.41 C 141.70 114.66 139.57 115.18 137.44 115.63 C 136.58 115.38 134.85 114.88 133.99 114.63 C 133.63 113.90 133.28 113.17 132.93 112.44 C 133.85 111.49 134.73 110.51 135.59 109.50 C 133.01 110.63 130.99 112.65 128.51 113.96 L 127.99 112.24 C 126.41 111.97 124.83 111.68 123.25 111.38 C 123.48 111.76 123.93 112.51 124.16 112.89 C 125.34 113.21 126.52 113.53 127.70 113.82 C 127.57 115.95 128.29 117.91 129.62 119.57 C 128.69 120.31 127.77 121.06 126.85 121.82 C 123.95 122.21 121.12 123.01 118.43 124.16 C 118.33 124.60 118.12 125.48 118.01 125.92 C 115.17 127.88 110.79 127.46 107.67 129.48 C 109.03 125.16 107.04 120.87 104.85 117.23 C 107.56 117.73 110.35 118.44 113.07 117.59 C 110.13 116.57 107.06 115.93 103.95 115.80 C 100.16 112.96 95.87 110.92 91.58 108.97 C 92.82 108.30 94.07 107.64 95.30 106.96 C 95.29 107.44 95.25 108.39 95.23 108.87 C 97.08 108.69 98.77 107.74 100.55 107.26 C 100.57 106.79 100.60 105.87 100.62 105.41 C 104.82 102.57 108.38 98.69 113.30 97.06 C 114.93 97.18 116.57 97.29 118.20 97.41 C 117.02 100.24 119.48 101.59 121.27 103.14 C 121.38 105.09 120.24 106.84 119.74 108.68 C 118.24 109.95 116.16 111.24 116.48 113.52 C 119.85 111.59 123.02 108.58 123.40 104.52 C 122.96 101.86 120.47 100.29 118.92 98.29 C 121.60 98.06 124.22 97.31 126.91 97.19 C 130.97 97.79 134.58 99.95 138.62 100.64 C 139.32 100.10 140.03 99.56 140.73 99.02 C 136.26 99.40 132.58 96.45 128.29 95.76 C 127.67 94.16 127.05 92.57 126.40 90.99 C 127.44 91.02 129.52 91.07 130.56 91.10 C 131.67 89.55 132.14 87.73 132.34 85.85 C 131.90 86.09 131.02 86.57 130.58 86.81 C 130.00 86.56 128.83 86.06 128.24 85.81 C 128.85 86.89 129.47 87.97 130.08 89.05 C 125.96 89.24 122.20 87.26 118.78 85.20 C 116.03 83.39 113.12 81.63 111.08 78.99 C 111.41 77.59 111.91 76.23 112.34 74.86 C 116.55 75.39 120.31 77.50 124.00 79.44 C 125.44 77.64 125.38 75.44 123.77 73.78 C 123.78 74.76 123.82 76.71 123.83 77.68 C 122.55 76.98 121.28 76.29 119.99 75.61 C 120.29 75.14 120.87 74.19 121.17 73.71 C 119.79 74.13 118.43 74.56 117.05 74.97 C 117.44 72.94 116.79 70.35 118.50 68.81 C 119.95 68.18 121.50 67.78 123.04 67.46 C 125.47 67.83 127.69 69.39 130.19 69.18 C 129.56 65.80 125.11 66.49 122.62 65.39 C 121.79 64.41 120.94 63.45 120.17 62.43 C 120.45 61.21 120.92 60.05 121.29 58.86 M 127.31 62.32 C 128.91 64.51 131.47 65.56 134.01 66.24 C 132.19 64.32 129.85 63.01 127.31 62.32 M 126.55 69.84 C 125.57 70.60 124.48 72.02 125.05 73.31 C 126.48 73.58 129.40 68.86 126.55 69.84 M 140.60 74.28 C 142.22 72.83 143.72 71.24 145.09 69.54 C 141.91 68.62 140.74 71.86 140.60 74.28 M 142.16 75.95 C 144.14 76.94 146.24 77.78 148.48 77.87 C 146.91 75.89 144.52 75.68 142.16 75.95 M 118.03 78.75 C 120.48 80.89 123.28 82.66 126.31 83.86 C 124.30 81.18 121.29 79.44 118.03 78.75 M 154.61 87.07 C 151.95 85.56 150.84 82.51 148.99 80.23 C 148.50 80.85 148.02 81.47 147.54 82.09 C 148.97 83.81 150.43 85.54 151.55 87.50 C 151.12 89.53 150.45 91.50 149.94 93.51 C 145.49 94.09 143.24 97.93 140.52 100.96 C 144.14 102.03 146.83 104.81 150.19 106.41 C 149.68 102.98 146.44 101.54 143.73 100.09 C 144.70 98.49 145.43 96.58 147.10 95.57 C 148.50 95.20 149.94 95.62 151.34 95.76 C 150.96 98.85 151.27 101.95 151.41 105.04 C 151.20 107.88 150.47 110.66 150.30 113.51 C 154.07 108.40 153.01 101.91 153.26 96.00 C 152.69 95.27 149.83 92.63 152.81 95.14 C 151.94 93.18 151.58 89.12 153.81 88.19 C 153.73 89.74 153.20 91.22 152.81 92.72 C 153.15 93.44 153.50 94.15 153.87 94.86 C 154.86 91.69 155.45 88.28 157.46 85.54 C 159.03 83.35 160.26 80.87 160.17 78.09 C 158.31 81.08 156.73 84.24 154.61 87.07 M 109.80 105.00 C 108.86 105.52 107.91 106.03 106.97 106.55 C 105.19 105.83 103.32 105.32 101.38 105.52 C 102.61 106.21 103.85 106.87 105.11 107.49 C 107.43 106.69 109.74 105.87 112.03 104.98 C 112.45 103.33 112.86 101.69 113.24 100.04 C 111.95 101.59 110.82 103.27 109.80 105.00 M 124.95 101.52 C 126.17 104.44 129.18 104.81 131.99 105.08 C 131.31 104.46 130.63 103.85 129.95 103.24 C 128.27 102.71 126.62 102.10 124.95 101.52 M 125.57 107.16 C 126.65 109.39 128.56 111.50 131.25 110.53 C 129.38 109.36 127.51 108.20 125.57 107.16 M 107.11 107.71 C 109.25 109.22 111.41 110.76 113.89 111.66 C 113.18 110.47 112.45 109.28 111.57 108.20 C 110.10 107.91 108.61 107.75 107.11 107.71 M 107.67 114.15 C 110.42 115.43 113.31 116.53 116.37 116.76 C 114.14 114.32 110.75 114.14 107.67 114.15 M 120.59 113.42 C 121.69 115.95 123.89 117.58 126.76 117.20 C 124.94 115.59 122.81 114.39 120.59 113.42 M 117.36 116.34 C 116.67 117.84 118.54 120.19 120.18 119.60 C 120.87 118.19 118.83 115.94 117.36 116.34 Z" />
<path fill="#FFFFFF" opacity="1.00" d=" M 137.29 58.87 C 144.60 59.87 151.64 63.92 156.42 69.52 C 153.23 68.94 149.99 68.91 146.77 68.92 C 144.51 65.61 139.63 66.92 137.26 63.82 C 135.09 62.65 136.95 60.55 137.29 58.87 M 142.92 62.35 C 144.92 64.11 147.25 65.41 149.54 66.76 C 149.94 66.65 150.75 66.43 151.16 66.32 C 148.60 64.64 145.95 62.99 142.92 62.35 Z" />
<path fill="#FFFFFF" opacity="1.00" d=" M 128.47 74.84 C 135.78 76.48 143.34 80.26 147.41 86.79 C 146.36 86.52 145.32 86.26 144.28 85.98 C 144.88 87.00 145.49 88.02 146.09 89.05 C 138.56 88.90 132.15 83.87 126.86 78.97 C 127.39 77.59 127.93 76.22 128.47 74.84 M 134.02 78.80 C 136.50 80.89 139.28 82.65 142.30 83.86 C 140.35 81.11 137.31 79.42 134.02 78.80 Z" />
<path fill="#FFFFFF" opacity="1.00" d=" M 161.53 107.58 C 161.85 104.89 163.73 102.86 165.26 100.77 C 165.69 106.28 167.70 112.97 163.76 117.63 C 162.27 119.62 159.57 119.80 157.34 120.28 C 158.41 115.92 160.95 112.07 161.53 107.58 Z" />
<path fill="#FFFFFF" opacity="1.00" d=" M 74.15 111.07 C 79.58 108.87 85.46 110.07 91.00 111.08 C 95.39 112.97 100.89 114.03 103.29 118.67 C 105.00 121.97 107.48 126.16 105.14 129.75 C 103.42 132.42 101.62 135.28 98.69 136.76 C 96.64 137.86 94.23 137.66 91.98 137.81 C 87.53 137.83 83.42 139.75 79.32 141.24 C 81.13 132.98 76.67 124.65 70.72 119.17 C 68.55 116.74 65.32 118.71 62.81 119.35 C 63.08 117.01 63.17 114.65 63.33 112.29 C 62.89 111.96 62.03 111.29 61.60 110.96 C 65.94 111.29 70.28 111.60 74.64 111.68 C 74.33 112.12 73.72 112.99 73.41 113.43 C 72.61 114.73 71.87 116.07 71.16 117.42 C 74.02 117.62 76.92 117.56 79.73 118.21 L 80.26 118.54 C 84.27 118.95 89.21 121.09 88.54 125.97 C 89.06 124.73 89.60 123.51 90.17 122.30 C 89.25 118.13 84.88 117.23 81.29 116.68 L 80.77 116.30 C 78.33 115.72 75.79 116.05 73.31 115.94 C 74.86 114.88 76.46 113.88 78.02 112.83 C 76.70 112.29 75.39 111.75 74.15 111.07 M 79.44 113.13 C 83.53 115.44 88.02 117.02 92.48 118.49 C 89.65 114.20 84.06 113.80 79.44 113.13 Z" />
<path fill="#FFFFFF" opacity="1.00" d=" M 28.31 124.35 C 37.44 118.22 47.69 112.14 59.16 113.05 C 61.89 114.34 61.05 117.72 61.21 120.15 C 55.42 121.64 49.54 123.92 45.21 128.19 C 42.77 130.41 39.00 131.42 37.92 134.88 C 36.17 137.87 36.52 141.39 37.53 144.56 C 38.86 148.62 38.13 153.05 39.68 157.06 C 41.56 162.21 41.40 167.79 42.96 173.02 C 43.84 177.24 45.68 181.69 44.07 185.97 C 43.45 188.46 41.50 190.25 39.97 192.19 C 36.42 192.58 32.60 192.57 29.50 194.60 C 26.65 196.11 24.50 199.21 20.99 199.19 C 17.34 199.09 13.40 202.32 10.11 199.56 C 11.65 198.44 13.32 197.51 14.85 196.37 C 13.66 196.54 11.30 196.89 10.11 197.06 C 11.77 195.28 13.61 193.64 15.94 192.83 C 19.25 191.72 20.57 188.19 23.00 185.98 C 25.24 183.59 28.69 182.15 29.75 178.82 C 32.18 172.07 30.15 164.80 28.48 158.12 C 25.54 150.42 27.55 142.07 27.05 134.10 C 25.86 130.88 25.87 127.01 28.31 124.35 M 34.05 123.09 C 33.76 127.37 38.90 129.87 42.17 127.25 C 38.80 127.28 36.14 125.59 34.05 123.09 M 29.87 128.87 C 29.89 131.23 30.40 133.55 30.50 135.90 L 31.49 134.88 C 31.10 136.90 30.92 138.95 30.96 141.02 C 31.96 139.09 32.67 137.04 33.48 135.04 C 33.21 135.03 32.67 135.01 32.40 135.00 C 33.24 132.59 32.25 129.89 29.87 128.87 M 40.48 178.17 C 41.70 182.93 37.97 186.62 35.88 190.47 C 39.16 189.09 40.53 185.76 42.29 182.94 C 42.15 181.71 42.00 180.49 41.85 179.27 C 41.51 178.99 40.82 178.44 40.48 178.17 M 25.98 190.94 C 28.58 189.03 30.92 186.77 32.88 184.21 C 29.80 185.52 27.50 188.01 25.98 190.94 Z" />
<path fill="#FFFFFF" opacity="1.00" d=" M 129.61 116.04 C 128.45 113.82 131.24 114.19 132.35 113.55 L 131.62 114.97 C 132.45 115.57 134.11 116.77 134.94 117.37 C 133.31 117.19 129.90 118.50 129.61 116.04 Z" />
<path fill="#FFFFFF" opacity="1.00" d=" M 52.16 125.06 C 57.82 122.79 63.37 119.43 69.72 119.89 C 74.58 125.11 79.46 132.27 77.78 139.71 C 72.49 142.75 66.07 143.38 60.11 142.44 C 57.43 141.80 54.93 143.03 52.49 143.95 C 53.41 148.73 54.87 153.36 56.18 158.04 C 57.87 163.88 56.20 169.96 56.88 175.89 C 57.65 180.98 57.66 186.30 60.07 190.97 C 61.28 195.03 64.18 199.57 62.00 203.77 C 59.16 206.00 55.21 205.89 51.83 206.81 C 45.97 207.63 41.37 211.91 35.54 212.85 C 31.56 214.49 26.37 213.60 23.88 209.88 C 23.04 209.85 21.37 209.79 20.53 209.76 C 22.67 205.13 28.35 204.34 32.57 202.49 C 37.10 199.72 38.98 194.35 43.02 191.06 C 44.63 189.68 46.47 188.14 46.54 185.84 C 46.23 177.69 43.18 169.94 42.71 161.81 C 42.66 157.32 39.55 153.50 40.15 148.94 C 40.41 145.32 38.24 142.01 38.35 138.42 C 39.42 135.92 40.30 132.91 42.98 131.67 C 46.37 129.90 48.53 126.43 52.16 125.06 M 57.61 133.24 C 62.89 132.14 66.73 127.99 71.14 125.19 C 65.91 126.38 61.23 129.32 57.61 133.24 M 47.48 132.46 C 48.42 134.03 49.87 135.04 51.67 135.39 C 51.99 135.01 52.61 134.23 52.92 133.85 C 51.10 133.41 49.30 132.88 47.48 132.46 M 42.54 144.53 C 44.53 142.94 45.26 140.61 45.25 138.12 C 45.85 137.08 46.44 136.04 46.99 134.98 C 42.66 136.16 43.27 141.01 42.54 144.53 M 45.27 153.20 C 45.68 153.87 45.68 153.87 45.27 153.20 M 49.71 159.45 C 50.84 164.83 51.13 170.53 53.84 175.44 C 53.38 167.96 50.48 160.84 50.23 153.31 C 49.77 155.31 49.30 157.40 49.71 159.45 M 56.15 194.83 C 55.78 195.43 55.04 196.62 54.67 197.22 C 53.49 198.04 52.35 198.93 51.32 199.94 C 53.61 199.50 58.42 197.91 56.15 194.83 M 41.50 204.39 C 43.71 202.30 45.53 199.79 46.72 196.98 C 44.27 198.84 42.23 201.34 41.50 204.39 M 26.42 207.04 C 28.95 208.49 31.63 209.87 34.63 209.84 C 32.72 207.35 29.45 206.11 26.42 207.04 Z" />
</g>
<g id="#4a4d47ff">
<path fill="#333333" opacity="1.00" d=" M 120.26 57.71 C 125.41 57.20 130.12 59.71 134.29 62.44 C 134.82 60.85 135.43 59.29 136.07 57.74 C 142.65 57.10 148.43 61.02 153.61 64.56 C 156.58 66.28 157.35 70.45 160.96 71.24 C 165.04 72.60 167.67 76.21 170.08 79.55 C 169.29 86.17 169.02 92.93 166.50 99.19 C 167.10 104.70 169.41 110.60 166.86 115.94 C 165.68 119.68 161.73 121.57 158.05 121.81 C 155.60 121.85 153.89 123.73 151.84 124.78 C 142.33 126.98 132.71 132.22 122.75 129.26 C 118.46 127.53 113.79 128.48 109.68 130.22 C 108.55 131.45 107.05 132.13 105.46 132.55 C 103.05 138.04 96.65 140.32 91.01 140.08 C 86.18 139.66 81.65 141.55 77.31 143.40 C 77.46 142.97 77.75 142.11 77.90 141.67 C 73.75 143.14 69.42 144.28 64.98 144.03 C 61.71 143.76 58.54 145.00 55.30 144.50 C 54.11 151.52 58.80 157.92 58.44 164.99 C 57.85 172.29 58.01 179.75 59.93 186.86 C 61.89 192.16 65.85 197.76 63.61 203.61 C 62.26 207.68 57.35 207.36 53.94 208.14 C 48.47 208.58 44.15 212.34 38.96 213.71 C 36.02 214.31 33.20 216.38 30.11 215.36 C 25.87 214.76 22.68 211.75 19.08 209.72 C 19.65 208.56 20.23 207.40 20.83 206.24 C 23.53 204.80 25.97 202.79 28.99 202.02 C 33.21 201.05 35.54 197.07 38.18 194.03 C 33.16 194.41 29.11 197.23 25.29 200.22 C 21.82 201.43 17.96 201.16 14.40 202.22 C 12.17 202.94 10.30 201.35 9.08 199.66 C 9.28 198.13 9.55 196.58 10.09 195.13 C 12.59 192.08 16.99 191.38 19.16 187.96 C 22.37 183.46 28.21 180.80 29.24 174.91 C 30.28 167.42 26.56 160.38 26.15 152.99 C 25.91 146.65 25.32 140.35 24.88 134.03 C 23.88 129.18 25.19 122.91 30.37 121.08 C 37.47 115.66 46.05 112.06 54.99 111.31 C 57.09 111.11 58.87 109.87 60.86 109.28 C 63.91 109.30 66.91 110.09 69.97 109.95 C 73.81 110.10 77.20 107.55 81.06 107.92 C 83.63 108.05 86.17 108.53 88.72 108.83 C 91.36 106.75 94.63 106.01 97.84 105.36 C 103.35 102.68 107.10 97.41 113.04 95.49 C 110.00 92.38 106.45 89.36 105.40 84.93 C 104.45 81.18 102.60 76.12 106.19 73.18 C 107.94 70.99 111.30 69.68 113.88 71.10 C 113.90 71.32 113.93 71.75 113.95 71.97 C 110.63 72.33 107.52 73.76 105.01 75.94 C 104.63 80.10 107.11 83.87 108.25 87.77 C 111.93 93.15 118.51 98.39 125.43 95.88 C 125.87 94.06 125.12 92.16 125.12 90.31 C 122.89 89.27 120.68 88.20 118.38 87.33 C 115.55 84.95 112.39 82.97 109.66 80.47 C 110.26 77.96 110.99 75.46 112.10 73.12 C 113.23 73.27 114.36 73.48 115.48 73.75 C 112.10 70.54 116.73 66.38 120.03 65.51 C 119.35 64.35 118.71 63.17 118.06 61.99 C 118.78 60.56 119.51 59.13 120.26 57.71 M 121.29 58.86 C 120.92 60.05 120.45 61.21 120.17 62.43 C 120.94 63.45 121.79 64.41 122.62 65.39 C 125.11 66.49 129.56 65.80 130.19 69.18 C 127.69 69.39 125.47 67.83 123.04 67.46 C 121.50 67.78 119.95 68.18 118.50 68.81 C 116.79 70.35 117.44 72.94 117.05 74.97 C 118.43 74.56 119.79 74.13 121.17 73.71 C 120.87 74.19 120.29 75.14 119.99 75.61 C 121.28 76.29 122.55 76.98 123.83 77.68 C 123.82 76.71 123.78 74.76 123.77 73.78 C 125.38 75.44 125.44 77.64 124.00 79.44 C 120.31 77.50 116.55 75.39 112.34 74.86 C 111.91 76.23 111.41 77.59 111.08 78.99 C 113.12 81.63 116.03 83.39 118.78 85.20 C 122.20 87.26 125.96 89.24 130.08 89.05 C 129.47 87.97 128.85 86.89 128.24 85.81 C 128.83 86.06 130.00 86.56 130.58 86.81 C 131.02 86.57 131.90 86.09 132.34 85.85 C 132.14 87.73 131.67 89.55 130.56 91.10 C 129.52 91.07 127.44 91.02 126.40 90.99 C 127.05 92.57 127.67 94.16 128.29 95.76 C 132.58 96.45 136.26 99.40 140.73 99.02 C 140.03 99.56 139.32 100.10 138.62 100.64 C 134.58 99.95 130.97 97.79 126.91 97.19 C 124.22 97.31 121.60 98.06 118.92 98.29 C 120.47 100.29 122.96 101.86 123.40 104.52 C 123.02 108.58 119.85 111.59 116.48 113.52 C 116.16 111.24 118.24 109.95 119.74 108.68 C 120.24 106.84 121.38 105.09 121.27 103.14 C 119.48 101.59 117.02 100.24 118.20 97.41 C 116.57 97.29 114.93 97.18 113.30 97.06 C 108.38 98.69 104.82 102.57 100.62 105.41 C 100.60 105.87 100.57 106.79 100.55 107.26 C 98.77 107.74 97.08 108.69 95.23 108.87 C 95.25 108.39 95.29 107.44 95.30 106.96 C 94.07 107.64 92.82 108.30 91.58 108.97 C 95.87 110.92 100.16 112.96 103.95 115.80 C 107.06 115.93 110.13 116.57 113.07 117.59 C 110.35 118.44 107.56 117.73 104.85 117.23 C 107.04 120.87 109.03 125.16 107.67 129.48 C 110.79 127.46 115.17 127.88 118.01 125.92 C 118.12 125.48 118.33 124.60 118.43 124.16 C 121.12 123.01 123.95 122.21 126.85 121.82 C 127.77 121.06 128.69 120.31 129.62 119.57 C 128.29 117.91 127.57 115.95 127.70 113.82 C 126.52 113.53 125.34 113.21 124.16 112.89 C 123.93 112.51 123.48 111.76 123.25 111.38 C 124.83 111.68 126.41 111.97 127.99 112.24 L 128.51 113.96 C 130.99 112.65 133.01 110.63 135.59 109.50 C 134.73 110.51 133.85 111.49 132.93 112.44 C 133.28 113.17 133.63 113.90 133.99 114.63 C 134.85 114.88 136.58 115.38 137.44 115.63 C 139.57 115.18 141.70 114.66 143.88 114.41 C 141.12 115.77 138.02 116.11 135.17 117.19 C 133.42 119.17 131.07 120.45 129.25 122.35 C 127.00 125.05 123.03 124.27 119.98 125.09 C 120.03 125.29 120.13 125.67 120.19 125.87 C 123.94 127.33 127.95 128.42 132.02 128.01 C 137.82 127.86 142.85 124.53 148.51 123.67 C 154.44 122.22 159.18 117.09 159.19 110.75 C 157.31 113.14 155.54 115.86 152.46 116.80 C 155.13 113.32 158.08 110.01 160.02 106.05 C 162.01 101.96 165.40 98.51 166.19 93.89 C 167.19 89.07 167.90 84.12 167.81 79.20 C 162.75 73.90 155.36 69.73 147.81 70.97 C 144.20 69.11 139.95 66.26 135.83 68.31 C 132.69 68.79 133.47 72.70 133.07 74.96 C 134.09 74.64 136.14 74.02 137.17 73.70 C 136.88 74.18 136.30 75.13 136.01 75.60 C 137.25 76.28 138.49 76.96 139.73 77.65 C 139.76 76.31 139.81 74.96 139.89 73.61 C 140.84 75.43 141.63 77.32 142.34 79.24 C 144.49 78.65 146.51 78.93 148.40 80.09 C 147.29 80.56 146.18 81.01 145.05 81.42 C 146.43 82.82 148.19 84.08 148.61 86.14 C 148.36 88.02 147.43 89.70 146.45 91.29 C 142.01 91.47 138.35 88.81 134.37 87.31 C 131.40 85.00 128.24 82.92 125.61 80.21 C 126.38 77.82 127.20 75.45 128.02 73.08 C 129.29 73.24 130.56 73.40 131.83 73.57 C 131.40 73.33 130.53 72.87 130.09 72.63 C 130.49 69.06 132.93 66.33 136.38 65.45 C 135.77 64.83 135.18 64.20 134.59 63.58 C 130.08 62.19 126.16 58.98 121.29 58.86 M 137.29 58.87 C 136.95 60.55 135.09 62.65 137.26 63.82 C 139.63 66.92 144.51 65.61 146.77 68.92 C 149.99 68.91 153.23 68.94 156.42 69.52 C 151.64 63.92 144.60 59.87 137.29 58.87 M 128.47 74.84 C 127.93 76.22 127.39 77.59 126.86 78.97 C 132.15 83.87 138.56 88.90 146.09 89.05 C 145.49 88.02 144.88 87.00 144.28 85.98 C 145.32 86.26 146.36 86.52 147.41 86.79 C 143.34 80.26 135.78 76.48 128.47 74.84 M 161.53 107.58 C 160.95 112.07 158.41 115.92 157.34 120.28 C 159.57 119.80 162.27 119.62 163.76 117.63 C 167.70 112.97 165.69 106.28 165.26 100.77 C 163.73 102.86 161.85 104.89 161.53 107.58 M 74.15 111.07 C 75.39 111.75 76.70 112.29 78.02 112.83 C 76.46 113.88 74.86 114.88 73.31 115.94 C 75.79 116.05 78.33 115.72 80.77 116.30 L 81.29 116.68 C 84.88 117.23 89.25 118.13 90.17 122.30 C 89.60 123.51 89.06 124.73 88.54 125.97 C 89.21 121.09 84.27 118.95 80.26 118.54 L 79.73 118.21 C 76.92 117.56 74.02 117.62 71.16 117.42 C 71.87 116.07 72.61 114.73 73.41 113.43 C 73.72 112.99 74.33 112.12 74.64 111.68 C 70.28 111.60 65.94 111.29 61.60 110.96 C 62.03 111.29 62.89 111.96 63.33 112.29 C 63.17 114.65 63.08 117.01 62.81 119.35 C 65.32 118.71 68.55 116.74 70.72 119.17 C 76.67 124.65 81.13 132.98 79.32 141.24 C 83.42 139.75 87.53 137.83 91.98 137.81 C 94.23 137.66 96.64 137.86 98.69 136.76 C 101.62 135.28 103.42 132.42 105.14 129.75 C 107.48 126.16 105.00 121.97 103.29 118.67 C 100.89 114.03 95.39 112.97 91.00 111.08 C 85.46 110.07 79.58 108.87 74.15 111.07 M 28.31 124.35 C 25.87 127.01 25.86 130.88 27.05 134.10 C 27.55 142.07 25.54 150.42 28.48 158.12 C 30.15 164.80 32.18 172.07 29.75 178.82 C 28.69 182.15 25.24 183.59 23.00 185.98 C 20.57 188.19 19.25 191.72 15.94 192.83 C 13.61 193.64 11.77 195.28 10.11 197.06 C 11.30 196.89 13.66 196.54 14.85 196.37 C 13.32 197.51 11.65 198.44 10.11 199.56 C 13.40 202.32 17.34 199.09 20.99 199.19 C 24.50 199.21 26.65 196.11 29.50 194.60 C 32.60 192.57 36.42 192.58 39.97 192.19 C 41.50 190.25 43.45 188.46 44.07 185.97 C 45.68 181.69 43.84 177.24 42.96 173.02 C 41.40 167.79 41.56 162.21 39.68 157.06 C 38.13 153.05 38.86 148.62 37.53 144.56 C 36.52 141.39 36.17 137.87 37.92 134.88 C 39.00 131.42 42.77 130.41 45.21 128.19 C 49.54 123.92 55.42 121.64 61.21 120.15 C 61.05 117.72 61.89 114.34 59.16 113.05 C 47.69 112.14 37.44 118.22 28.31 124.35 M 129.61 116.04 C 129.90 118.50 133.31 117.19 134.94 117.37 C 134.11 116.77 132.45 115.57 131.62 114.97 L 132.35 113.55 C 131.24 114.19 128.45 113.82 129.61 116.04 M 52.16 125.06 C 48.53 126.43 46.37 129.90 42.98 131.67 C 40.30 132.91 39.42 135.92 38.35 138.42 C 38.24 142.01 40.41 145.32 40.15 148.94 C 39.55 153.50 42.66 157.32 42.71 161.81 C 43.18 169.94 46.23 177.69 46.54 185.84 C 46.47 188.14 44.63 189.68 43.02 191.06 C 38.98 194.35 37.10 199.72 32.57 202.49 C 28.35 204.34 22.67 205.13 20.53 209.76 C 21.37 209.79 23.04 209.85 23.88 209.88 C 26.37 213.60 31.56 214.49 35.54 212.85 C 41.37 211.91 45.97 207.63 51.83 206.81 C 55.21 205.89 59.16 206.00 62.00 203.77 C 64.18 199.57 61.28 195.03 60.07 190.97 C 57.66 186.30 57.65 180.98 56.88 175.89 C 56.20 169.96 57.87 163.88 56.18 158.04 C 54.87 153.36 53.41 148.73 52.49 143.95 C 54.93 143.03 57.43 141.80 60.11 142.44 C 66.07 143.38 72.49 142.75 77.78 139.71 C 79.46 132.27 74.58 125.11 69.72 119.89 C 63.37 119.43 57.82 122.79 52.16 125.06 Z" />
<path fill="#333333" opacity="1.00" d=" M 127.31 62.32 C 129.85 63.01 132.19 64.32 134.01 66.24 C 131.47 65.56 128.91 64.51 127.31 62.32 Z" />
<path fill="#333333" opacity="1.00" d=" M 142.92 62.35 C 145.95 62.99 148.60 64.64 151.16 66.32 C 150.75 66.43 149.94 66.65 149.54 66.76 C 147.25 65.41 144.92 64.11 142.92 62.35 Z" />
<path fill="#333333" opacity="1.00" d=" M 126.55 69.84 C 129.40 68.86 126.48 73.58 125.05 73.31 C 124.48 72.02 125.57 70.60 126.55 69.84 Z" />
<path fill="#333333" opacity="1.00" d=" M 140.60 74.28 C 140.74 71.86 141.91 68.62 145.09 69.54 C 143.72 71.24 142.22 72.83 140.60 74.28 Z" />
<path fill="#333333" opacity="1.00" d=" M 142.16 75.95 C 144.52 75.68 146.91 75.89 148.48 77.87 C 146.24 77.78 144.14 76.94 142.16 75.95 Z" />
<path fill="#333333" opacity="1.00" d=" M 118.03 78.75 C 121.29 79.44 124.30 81.18 126.31 83.86 C 123.28 82.66 120.48 80.89 118.03 78.75 Z" />
<path fill="#333333" opacity="1.00" d=" M 134.02 78.80 C 137.31 79.42 140.35 81.11 142.30 83.86 C 139.28 82.65 136.50 80.89 134.02 78.80 Z" />
<path fill="#333333" opacity="1.00" d=" M 154.61 87.07 C 156.73 84.24 158.31 81.08 160.17 78.09 C 160.26 80.87 159.03 83.35 157.46 85.54 C 155.45 88.28 154.86 91.69 153.87 94.86 C 153.50 94.15 153.15 93.44 152.81 92.72 C 153.20 91.22 153.73 89.74 153.81 88.19 C 151.58 89.12 151.94 93.18 152.81 95.14 C 149.83 92.63 152.69 95.27 153.26 96.00 C 153.01 101.91 154.07 108.40 150.30 113.51 C 150.47 110.66 151.20 107.88 151.41 105.04 C 151.27 101.95 150.96 98.85 151.34 95.76 C 149.94 95.62 148.50 95.20 147.10 95.57 C 145.43 96.58 144.70 98.49 143.73 100.09 C 146.44 101.54 149.68 102.98 150.19 106.41 C 146.83 104.81 144.14 102.03 140.52 100.96 C 143.24 97.93 145.49 94.09 149.94 93.51 C 150.45 91.50 151.12 89.53 151.55 87.50 C 150.43 85.54 148.97 83.81 147.54 82.09 C 148.02 81.47 148.50 80.85 148.99 80.23 C 150.84 82.51 151.95 85.56 154.61 87.07 Z" />
<path fill="#333333" opacity="1.00" d=" M 109.80 105.00 C 110.82 103.27 111.95 101.59 113.24 100.04 C 112.86 101.69 112.45 103.33 112.03 104.98 C 109.74 105.87 107.43 106.69 105.11 107.49 C 103.85 106.87 102.61 106.21 101.38 105.52 C 103.32 105.32 105.19 105.83 106.97 106.55 C 107.91 106.03 108.86 105.52 109.80 105.00 Z" />
<path fill="#333333" opacity="1.00" d=" M 124.95 101.52 C 126.62 102.10 128.27 102.71 129.95 103.24 C 130.63 103.85 131.31 104.46 131.99 105.08 C 129.18 104.81 126.17 104.44 124.95 101.52 Z" />
<path fill="#333333" opacity="1.00" d=" M 125.57 107.16 C 127.51 108.20 129.38 109.36 131.25 110.53 C 128.56 111.50 126.65 109.39 125.57 107.16 Z" />
<path fill="#333333" opacity="1.00" d=" M 107.11 107.71 C 108.61 107.75 110.10 107.91 111.57 108.20 C 112.45 109.28 113.18 110.47 113.89 111.66 C 111.41 110.76 109.25 109.22 107.11 107.71 Z" />
<path fill="#333333" opacity="1.00" d=" M 79.44 113.13 C 84.06 113.80 89.65 114.20 92.48 118.49 C 88.02 117.02 83.53 115.44 79.44 113.13 Z" />
<path fill="#333333" opacity="1.00" d=" M 107.67 114.15 C 110.75 114.14 114.14 114.32 116.37 116.76 C 113.31 116.53 110.42 115.43 107.67 114.15 Z" />
<path fill="#333333" opacity="1.00" d=" M 120.59 113.42 C 122.81 114.39 124.94 115.59 126.76 117.20 C 123.89 117.58 121.69 115.95 120.59 113.42 Z" />
<path fill="#333333" opacity="1.00" d=" M 117.36 116.34 C 118.83 115.94 120.87 118.19 120.18 119.60 C 118.54 120.19 116.67 117.84 117.36 116.34 Z" />
<path fill="#333333" opacity="1.00" d=" M 34.05 123.09 C 36.14 125.59 38.80 127.28 42.17 127.25 C 38.90 129.87 33.76 127.37 34.05 123.09 Z" />
<path fill="#333333" opacity="1.00" d=" M 57.61 133.24 C 61.23 129.32 65.91 126.38 71.14 125.19 C 66.73 127.99 62.89 132.14 57.61 133.24 Z" />
<path fill="#333333" opacity="1.00" d=" M 139.93 132.87 C 147.40 130.63 155.85 130.99 162.41 126.27 C 161.78 127.52 161.41 129.10 160.01 129.73 C 154.96 132.72 148.92 133.03 143.43 134.80 C 144.03 140.10 144.36 145.43 144.17 150.76 C 143.80 150.50 143.06 149.99 142.69 149.73 C 142.10 144.88 141.74 140.02 141.64 135.14 C 139.19 135.74 136.74 136.36 134.35 137.15 C 134.73 142.63 135.23 148.12 135.06 153.63 C 134.57 153.32 133.60 152.68 133.11 152.36 C 132.69 147.43 133.00 142.46 132.72 137.52 C 115.23 142.34 97.44 146.22 80.29 152.09 C 80.93 161.34 81.56 170.63 81.01 179.89 C 80.72 179.56 80.12 178.90 79.83 178.57 C 78.73 169.93 78.90 161.20 78.66 152.51 C 73.16 153.57 67.37 158.11 61.82 154.90 C 59.42 153.88 57.26 152.33 55.61 150.29 C 59.88 150.71 63.19 155.60 67.72 153.68 C 91.40 145.48 115.75 139.43 139.93 132.87 Z" />
<path fill="#333333" opacity="1.00" d=" M 29.87 128.87 C 32.25 129.89 33.24 132.59 32.40 135.00 C 32.67 135.01 33.21 135.03 33.48 135.04 C 32.67 137.04 31.96 139.09 30.96 141.02 C 30.92 138.95 31.10 136.90 31.49 134.88 L 30.50 135.90 C 30.40 133.55 29.89 131.23 29.87 128.87 Z" />
<path fill="#333333" opacity="1.00" d=" M 47.48 132.46 C 49.30 132.88 51.10 133.41 52.92 133.85 C 52.61 134.23 51.99 135.01 51.67 135.39 C 49.87 135.04 48.42 134.03 47.48 132.46 Z" />
<path fill="#333333" opacity="1.00" d=" M 42.54 144.53 C 43.27 141.01 42.66 136.16 46.99 134.98 C 46.44 136.04 45.85 137.08 45.25 138.12 C 45.26 140.61 44.53 142.94 42.54 144.53 Z" />
<path fill="#333333" opacity="1.00" d=" M 87.76 152.83 C 87.00 152.21 88.24 148.84 89.12 150.84 C 90.33 156.21 90.31 161.78 89.87 167.25 C 87.41 162.89 88.10 157.63 87.76 152.83 Z" />
<path fill="#333333" opacity="1.00" d=" M 45.27 153.20 C 45.68 153.87 45.68 153.87 45.27 153.20 Z" />
<path fill="#333333" opacity="1.00" d=" M 49.71 159.45 C 49.30 157.40 49.77 155.31 50.23 153.31 C 50.48 160.84 53.38 167.96 53.84 175.44 C 51.13 170.53 50.84 164.83 49.71 159.45 Z" />
<path fill="#333333" opacity="1.00" d=" M 40.48 178.17 C 40.82 178.44 41.51 178.99 41.85 179.27 C 42.00 180.49 42.15 181.71 42.29 182.94 C 40.53 185.76 39.16 189.09 35.88 190.47 C 37.97 186.62 41.70 182.93 40.48 178.17 Z" />
<path fill="#333333" opacity="1.00" d=" M 25.98 190.94 C 27.50 188.01 29.80 185.52 32.88 184.21 C 30.92 186.77 28.58 189.03 25.98 190.94 Z" />
<path fill="#333333" opacity="1.00" d=" M 56.15 194.83 C 58.42 197.91 53.61 199.50 51.32 199.94 C 52.35 198.93 53.49 198.04 54.67 197.22 C 55.04 196.62 55.78 195.43 56.15 194.83 Z" />
<path fill="#333333" opacity="1.00" d=" M 41.50 204.39 C 42.23 201.34 44.27 198.84 46.72 196.98 C 45.53 199.79 43.71 202.30 41.50 204.39 Z" />
<path fill="#333333" opacity="1.00" d=" M 26.42 207.04 C 29.45 206.11 32.72 207.35 34.63 209.84 C 31.63 209.87 28.95 208.49 26.42 207.04 Z" />
</g>
</svg>
