<?xml version="1.0" encoding="UTF-8" ?>
<!DOCTYPE svg PUBLIC "-//W3C//DTD SVG 1.1//EN" "http://www.w3.org/Graphics/SVG/1.1/DTD/svg11.dtd">
<svg width="108pt" height="288pt" viewBox="0 0 108 288" version="1.1" xmlns="http://www.w3.org/2000/svg">
<g id="#ffffffff">
<path fill="#FFFFFF" opacity="1.00" d=" M 0.00 0.00 L 108.00 0.00 L 108.00 288.00 L 0.00 288.00 L 0.00 0.00 M 40.41 37.50 C 35.86 38.27 32.98 43.32 34.46 47.63 C 35.48 51.04 34.99 55.10 37.83 57.74 C 37.91 60.49 37.89 63.70 35.70 65.71 C 33.54 67.55 31.60 69.62 29.50 71.52 C 26.44 73.61 22.84 75.66 21.66 79.43 C 19.73 83.90 22.90 88.38 22.27 92.99 C 21.68 100.96 25.19 108.31 28.71 115.21 C 30.32 117.61 33.23 118.74 34.80 121.18 C 35.73 123.67 35.59 126.40 35.72 129.02 C 35.81 131.46 34.09 133.53 34.03 135.95 C 34.53 140.05 35.94 143.98 36.49 148.07 C 36.38 153.03 35.00 157.94 35.56 162.93 C 35.98 165.27 38.94 166.30 38.88 168.85 C 39.61 175.74 40.17 182.70 39.47 189.62 C 37.94 196.02 34.82 202.38 36.06 209.12 C 36.49 213.73 39.08 217.67 40.39 222.02 C 41.50 225.82 38.48 229.37 39.33 233.19 C 39.73 235.49 38.60 237.74 38.90 240.04 C 39.13 242.12 40.41 243.85 41.28 245.70 C 42.95 248.73 42.70 252.33 43.70 255.58 C 44.71 258.01 46.46 260.04 47.95 262.18 C 50.29 262.37 52.62 262.57 54.93 262.94 C 54.56 262.24 53.81 260.83 53.44 260.12 L 53.28 260.62 C 52.12 260.17 50.97 259.73 49.81 259.31 C 50.05 258.75 50.52 257.63 50.76 257.07 C 52.43 257.75 54.19 258.47 55.76 257.08 C 56.12 257.32 56.82 257.80 57.18 258.04 C 58.70 257.68 60.22 257.34 61.75 257.03 C 61.79 256.58 61.88 255.66 61.93 255.21 C 59.17 255.98 56.34 254.84 53.64 255.82 C 53.17 255.72 52.25 255.52 51.78 255.42 C 51.21 256.00 50.07 257.15 49.50 257.73 C 48.79 250.12 48.11 242.51 47.41 234.90 C 48.62 232.24 49.96 229.55 50.19 226.60 C 48.97 227.97 47.96 229.49 46.97 231.02 C 46.74 228.14 46.54 225.27 46.31 222.39 L 47.59 222.72 C 47.43 214.67 46.56 206.65 47.16 198.60 C 45.64 200.90 45.74 203.78 44.92 206.34 C 43.78 193.58 42.49 180.84 42.04 168.04 C 44.70 168.04 47.37 168.16 50.04 167.99 C 54.00 167.68 57.50 165.52 60.47 163.01 C 64.38 166.43 69.68 165.18 74.10 163.67 C 73.87 169.23 71.04 174.58 72.32 180.19 C 73.96 186.64 70.48 193.09 72.27 199.59 C 71.93 199.56 71.27 199.49 70.93 199.46 C 69.97 205.24 68.36 211.00 68.93 216.92 C 69.27 217.24 69.96 217.88 70.31 218.20 C 71.01 221.64 70.92 225.28 72.44 228.53 C 74.91 234.27 76.09 240.82 80.50 245.53 C 81.76 246.85 82.61 248.61 82.47 250.47 C 80.58 253.47 77.37 255.75 73.87 256.37 C 71.85 255.73 70.15 254.37 68.37 253.27 C 68.35 254.13 68.39 254.98 68.47 255.84 C 63.99 255.25 62.52 250.77 60.51 247.41 C 57.59 240.48 55.48 233.23 53.06 226.12 C 52.77 220.12 54.84 214.38 55.64 208.50 C 57.47 212.15 59.21 215.94 59.50 220.08 C 60.60 225.55 56.87 230.65 58.02 236.10 C 59.07 234.26 59.59 232.19 60.45 230.26 C 60.60 231.24 60.91 233.20 61.07 234.18 C 61.78 234.75 62.49 235.31 63.21 235.87 C 60.53 229.46 61.85 222.58 60.81 215.92 C 60.49 212.75 57.78 210.29 58.05 207.00 C 57.53 201.53 60.52 196.46 60.02 191.00 C 59.69 187.36 60.47 183.65 59.75 180.07 C 57.37 175.54 60.48 170.69 60.82 166.02 C 60.53 165.53 59.93 164.57 59.63 164.09 C 58.04 171.32 58.41 179.51 53.64 185.62 C 52.23 186.91 50.45 187.68 48.93 188.82 C 51.82 188.85 54.43 187.54 56.39 185.46 C 55.50 188.15 54.73 190.87 53.85 193.56 L 53.17 193.50 L 52.54 193.51 L 51.75 193.60 L 50.99 195.74 L 51.94 196.01 L 52.71 196.26 C 53.16 201.44 54.59 206.77 53.32 211.98 C 52.10 217.15 50.66 222.51 51.59 227.85 C 53.03 231.98 54.68 236.03 56.15 240.15 C 58.80 245.97 59.66 253.44 65.87 256.79 C 65.61 257.31 65.08 258.33 64.82 258.85 C 61.62 259.99 58.33 260.83 54.93 261.03 C 54.09 262.03 57.09 262.58 57.78 262.44 C 61.22 262.51 64.95 261.96 67.46 259.39 C 68.59 258.09 70.31 257.91 71.92 258.09 C 77.29 258.99 82.34 254.93 84.27 250.15 C 83.08 245.15 84.07 240.06 84.17 235.01 C 84.43 223.01 84.52 211.01 84.84 199.01 C 85.77 182.00 85.32 164.96 86.13 147.95 C 86.36 137.30 86.45 126.65 86.70 116.01 C 86.77 114.01 86.66 112.01 86.33 110.04 C 91.38 104.83 90.86 96.85 90.10 90.19 C 91.12 88.82 92.36 87.56 92.98 85.95 C 93.31 81.98 93.44 77.97 93.06 74.00 C 91.93 73.24 90.59 72.87 89.32 72.41 C 88.61 70.90 88.16 69.16 86.84 68.04 C 83.09 66.85 79.02 67.06 75.23 67.95 C 74.63 68.97 74.04 70.00 73.45 71.02 C 72.86 70.49 71.70 69.43 71.12 68.90 C 66.64 68.60 62.18 67.87 58.13 65.86 C 57.29 66.00 55.63 66.29 54.80 66.43 C 55.77 64.56 57.04 62.84 57.88 60.89 C 58.87 56.23 57.72 51.52 57.18 46.89 C 56.85 39.15 47.15 33.68 40.41 37.50 M 69.63 169.72 C 67.89 172.46 66.05 175.12 63.86 177.53 C 67.44 176.59 70.90 173.19 70.65 169.31 C 70.39 169.42 69.88 169.62 69.63 169.72 M 46.64 177.22 C 49.51 177.74 51.67 175.61 52.88 173.22 C 50.64 174.28 48.59 175.69 46.64 177.22 M 64.42 181.81 C 64.33 184.09 65.27 186.15 66.45 188.04 C 65.89 189.88 64.90 191.89 66.14 193.70 C 66.88 191.81 67.88 190.00 68.33 188.01 C 67.75 185.60 66.14 183.55 64.42 181.81 M 51.26 208.97 C 51.13 211.78 50.60 214.56 50.39 217.36 C 52.80 211.48 53.96 204.73 51.16 198.76 C 50.28 202.13 51.21 205.57 51.26 208.97 M 64.69 199.37 C 64.68 203.59 65.05 207.86 64.03 212.00 C 63.21 215.60 62.63 219.34 63.51 223.00 C 64.91 218.83 63.97 214.28 65.56 210.16 C 66.67 206.72 67.46 202.25 64.69 199.37 M 66.76 232.48 C 67.60 236.45 68.44 240.43 69.42 244.37 C 70.35 238.99 68.69 233.56 67.28 228.41 C 66.69 229.68 66.40 231.09 66.76 232.48 M 58.59 237.26 C 60.13 239.49 61.78 241.69 62.94 244.16 C 63.78 246.66 63.58 249.36 63.87 251.96 C 65.06 252.84 66.23 254.04 67.85 253.76 C 64.09 251.07 66.16 246.25 64.15 242.73 C 62.70 240.24 61.09 237.83 59.86 235.21 C 59.43 235.89 59.01 236.57 58.59 237.26 M 79.87 246.79 C 78.29 248.33 76.70 249.92 75.73 251.94 C 75.30 251.35 74.44 250.15 74.01 249.56 C 73.05 249.68 72.09 249.80 71.13 249.93 C 72.71 251.81 74.54 253.46 76.90 254.28 C 76.77 253.57 76.51 252.16 76.38 251.45 C 77.71 250.90 79.03 250.33 80.35 249.77 C 80.20 248.77 80.04 247.78 79.87 246.79 Z" />
<path fill="#FFFFFF" opacity="1.00" d=" M 36.98 41.13 C 39.81 39.67 42.83 38.32 46.01 37.90 C 49.54 37.32 52.50 39.95 54.32 42.66 C 55.99 48.05 57.70 53.78 56.64 59.46 C 55.18 63.61 50.20 65.47 46.23 63.80 C 43.56 62.35 42.90 59.13 41.18 56.85 C 39.78 55.67 37.11 55.40 37.05 53.15 C 37.27 52.52 37.70 51.26 37.92 50.63 C 37.49 50.35 36.62 49.78 36.19 49.49 C 36.09 46.74 35.32 43.55 36.98 41.13 Z" />
<path fill="#FFFFFF" opacity="1.00" d=" M 39.55 57.61 C 41.17 59.89 42.52 62.45 44.67 64.30 C 47.47 66.34 51.14 65.81 54.38 65.59 C 54.20 67.20 54.05 68.81 53.92 70.42 C 54.88 69.07 55.84 67.71 56.89 66.42 C 59.61 68.50 62.88 69.54 66.03 70.74 C 61.96 71.14 55.64 70.11 53.98 75.04 C 55.05 74.19 56.06 73.28 57.07 72.36 C 59.42 72.27 61.77 72.22 64.13 72.17 C 65.95 74.85 68.92 76.48 71.38 78.52 C 70.62 75.46 67.96 73.74 65.25 72.59 C 65.71 71.60 66.16 70.61 66.62 69.62 C 69.18 70.08 72.06 71.18 72.51 74.08 C 72.37 78.23 72.11 82.41 72.78 86.53 C 72.36 84.85 71.91 83.18 71.42 81.52 C 71.16 84.98 70.36 88.40 68.04 91.08 C 68.21 95.16 69.84 98.96 70.10 103.01 C 70.21 104.14 69.70 104.91 68.56 105.34 C 68.12 106.79 67.68 108.23 67.21 109.67 C 66.32 110.56 65.46 111.48 64.62 112.42 C 66.72 111.60 68.45 110.16 69.79 108.36 C 69.66 110.95 69.79 113.55 70.00 116.14 C 69.20 114.83 68.40 113.52 67.50 112.28 C 67.82 115.12 68.17 117.96 68.38 120.82 C 68.78 119.76 69.59 117.64 69.99 116.58 C 70.09 118.22 70.07 119.86 69.99 121.50 C 65.38 123.94 60.25 124.89 55.14 125.57 C 54.58 125.03 54.03 124.50 53.48 123.96 L 54.89 123.45 C 54.33 122.72 53.77 121.99 53.21 121.26 C 52.78 122.68 52.34 124.10 51.86 125.52 C 47.75 126.31 43.62 125.33 40.05 123.21 C 43.01 123.28 44.64 121.03 45.64 118.64 C 50.07 111.91 49.86 102.96 46.91 95.67 C 50.41 93.02 56.44 93.13 57.53 88.09 C 59.08 89.35 60.52 90.80 62.36 91.65 C 64.15 91.65 65.87 91.04 67.59 90.62 C 66.13 88.19 63.32 90.42 61.22 89.66 C 59.76 89.10 58.49 88.19 57.19 87.35 C 58.19 83.64 56.11 80.05 53.50 77.56 C 54.52 80.79 55.73 83.97 56.77 87.20 C 54.83 89.04 52.90 90.88 50.74 92.45 C 51.52 86.75 51.67 80.37 47.49 75.86 C 48.80 74.44 50.69 74.23 52.50 73.90 C 50.89 73.18 49.11 73.36 47.42 73.68 C 47.62 72.75 47.81 71.81 47.99 70.87 C 44.43 69.97 43.81 65.64 41.38 63.37 C 40.74 67.73 45.07 69.99 45.83 73.71 C 42.16 73.58 38.41 74.19 34.84 73.02 C 31.81 74.61 29.80 77.92 31.11 81.34 C 30.52 81.40 29.33 81.52 28.74 81.58 C 28.88 85.02 28.67 88.51 29.37 91.90 C 30.32 94.62 32.27 96.90 34.55 98.61 C 33.47 102.28 29.96 104.70 29.40 108.53 C 31.69 108.56 32.06 105.05 33.67 103.85 C 34.23 108.82 34.56 113.81 35.71 118.67 C 33.49 117.13 30.71 115.75 29.88 112.97 C 28.81 110.16 26.70 107.84 25.98 104.89 C 24.82 99.80 24.36 94.58 23.59 89.42 C 25.13 90.47 26.67 91.52 28.35 92.35 C 26.91 88.60 21.94 86.50 22.97 81.96 C 23.30 76.72 29.03 74.66 32.24 71.34 C 34.40 68.87 37.81 67.26 38.68 63.88 C 39.43 61.88 39.50 59.72 39.55 57.61 M 63.78 94.06 C 63.99 95.37 66.72 96.10 66.71 94.35 C 66.52 93.05 63.77 92.32 63.78 94.06 M 49.39 101.46 C 51.56 100.20 53.68 98.85 55.88 97.65 C 56.25 96.50 56.63 95.36 56.99 94.22 C 54.60 96.80 51.29 98.44 49.39 101.46 M 59.75 94.52 C 60.48 95.45 61.23 96.36 61.99 97.26 C 61.92 98.46 61.85 99.67 61.77 100.87 C 59.93 100.94 58.07 100.87 56.24 101.11 C 54.71 102.55 53.83 104.51 52.96 106.39 C 54.42 105.15 55.71 103.74 57.01 102.33 C 58.27 102.51 59.53 102.73 60.78 102.99 C 62.91 105.39 62.84 108.71 62.47 111.70 C 61.61 111.56 59.90 111.29 59.04 111.16 C 57.96 111.87 56.88 112.57 55.81 113.29 C 54.99 113.41 53.37 113.65 52.55 113.77 C 54.79 115.21 57.17 114.05 59.15 112.75 C 60.62 112.58 62.08 112.42 63.55 112.27 C 64.06 108.61 63.78 104.92 62.53 101.42 C 64.35 101.08 66.55 101.50 67.86 99.84 C 66.69 100.05 64.34 100.45 63.17 100.66 C 64.28 97.76 63.01 94.82 59.75 94.52 M 49.30 113.84 C 50.13 116.41 50.84 119.93 54.17 120.11 C 53.15 117.60 51.37 115.54 49.30 113.84 M 63.35 116.18 C 62.05 116.62 60.79 118.27 61.24 119.66 C 62.68 120.24 64.93 116.93 63.35 116.18 Z" />
<path fill="#FFFFFF" opacity="1.00" d=" M 76.98 69.88 C 80.22 68.88 84.84 68.87 87.01 71.94 C 86.78 74.46 83.71 75.00 81.85 76.01 C 85.16 75.34 88.51 74.91 91.89 75.00 C 91.00 79.41 92.58 84.57 89.42 88.28 C 89.58 85.08 90.29 81.87 89.60 78.68 C 90.07 78.43 91.02 77.93 91.49 77.68 C 88.64 77.35 85.77 77.10 82.90 76.91 C 82.70 77.32 82.29 78.13 82.09 78.54 C 84.01 78.40 85.92 78.25 87.83 78.09 C 86.87 86.70 90.16 95.34 87.70 103.81 C 86.80 107.10 84.33 109.65 81.91 111.92 C 77.48 111.82 73.98 108.03 71.42 104.72 C 71.40 101.45 70.74 98.25 70.05 95.07 C 69.23 91.95 71.24 89.21 72.19 86.40 C 73.58 88.26 75.06 90.06 76.59 91.81 C 73.88 95.32 74.97 99.74 75.35 103.76 C 75.62 103.47 76.15 102.89 76.41 102.59 C 76.54 99.38 75.65 95.79 77.90 93.09 C 80.30 89.67 84.10 85.03 80.58 81.04 C 78.74 80.72 76.92 80.27 75.10 79.84 C 74.60 76.45 73.15 71.86 76.98 69.88 Z" />
<path fill="#FFFFFF" opacity="1.00" d=" M 34.88 75.58 C 37.94 75.58 41.00 75.19 44.05 75.31 C 46.26 75.39 46.76 77.82 47.50 79.44 C 48.38 83.51 43.60 86.95 45.62 90.80 C 46.47 89.56 47.34 88.34 48.24 87.13 C 47.96 85.49 47.73 83.84 47.55 82.19 C 50.24 84.50 48.46 88.19 48.55 91.16 C 47.61 91.57 46.68 91.98 45.74 92.40 L 46.66 91.27 C 46.01 91.06 44.72 90.66 44.07 90.45 C 46.92 98.47 48.34 107.43 45.66 115.67 C 44.23 118.50 41.44 122.47 37.79 120.67 C 37.40 113.48 36.26 106.33 36.28 99.12 C 36.74 93.73 38.31 86.85 33.03 83.23 C 32.53 85.98 32.59 88.78 33.04 91.53 C 34.02 92.55 34.98 93.57 35.93 94.61 C 34.01 94.21 32.35 93.26 31.13 91.73 C 30.47 88.69 30.24 85.59 30.76 82.51 C 33.18 81.08 35.99 80.99 38.70 80.70 C 38.71 80.38 38.73 79.73 38.74 79.41 C 36.73 79.24 34.71 79.20 32.70 79.10 C 33.26 77.94 33.09 75.59 34.88 75.58 Z" />
<path fill="#FFFFFF" opacity="1.00" d=" M 74.80 81.77 C 77.98 81.44 79.97 83.78 80.23 86.75 C 79.75 86.49 78.79 85.97 78.32 85.71 C 78.16 84.87 77.85 83.17 77.70 82.33 C 74.03 84.28 77.45 87.64 79.47 89.29 C 78.03 88.89 76.60 88.47 75.18 88.01 C 74.96 85.94 74.81 83.85 74.80 81.77 Z" />
<path fill="#FFFFFF" opacity="1.00" d=" M 70.67 106.30 C 74.00 110.26 78.63 114.65 84.28 113.25 C 83.62 129.33 83.57 145.43 83.22 161.52 C 82.66 175.06 82.50 188.62 82.23 202.18 C 81.16 216.17 81.94 230.24 81.20 244.25 C 79.33 242.64 78.00 240.59 77.51 238.17 C 75.21 230.42 70.31 222.63 72.66 214.30 C 72.11 213.54 71.56 212.79 71.01 212.03 C 70.91 213.64 70.71 216.85 70.61 218.45 C 70.36 217.93 69.86 216.88 69.62 216.35 C 70.20 210.96 71.06 205.55 72.41 200.30 C 72.90 203.77 72.02 207.21 71.53 210.63 C 72.00 211.43 72.48 212.22 72.97 213.01 C 73.16 210.61 73.36 208.22 73.73 205.84 C 74.58 201.18 72.87 196.55 73.09 191.88 C 73.29 189.21 74.66 186.74 74.57 184.03 C 74.37 180.68 73.42 177.36 73.98 173.99 C 74.50 170.19 75.43 166.45 75.49 162.59 C 76.70 161.38 77.89 160.15 79.04 158.89 C 78.17 157.05 76.21 155.33 76.59 153.12 C 77.33 148.46 77.36 143.58 75.72 139.09 C 74.38 135.62 75.63 131.88 75.09 128.28 C 74.09 127.02 73.12 125.73 72.13 124.46 C 71.15 118.45 71.25 112.35 70.67 106.30 Z" />
<path fill="#FFFFFF" opacity="1.00" d=" M 51.48 127.15 C 57.90 127.52 64.27 125.71 70.13 123.23 C 71.39 126.03 73.95 128.60 73.14 131.91 C 72.34 136.07 74.48 139.91 74.96 143.97 C 75.85 148.89 74.95 154.07 77.02 158.77 C 75.32 160.10 73.72 161.61 71.78 162.59 C 68.47 163.83 64.92 162.96 61.51 162.89 C 62.82 159.36 62.70 154.96 60.51 151.82 C 59.90 154.74 59.73 157.75 60.55 160.65 C 55.82 165.87 48.53 167.02 41.85 166.23 C 40.12 157.44 40.20 148.42 39.29 139.53 C 42.24 137.31 45.28 134.94 46.66 131.37 C 48.38 130.84 50.09 130.26 51.79 129.66 C 51.72 129.03 51.56 127.78 51.48 127.15 M 49.73 135.58 C 56.90 137.51 63.89 133.57 71.08 135.01 C 71.20 134.48 71.43 133.44 71.55 132.91 C 64.20 133.19 57.07 135.17 49.73 135.58 M 52.03 142.17 C 56.46 140.11 61.39 143.27 65.63 140.98 C 63.35 140.54 61.04 140.53 58.74 140.64 C 62.00 139.30 65.98 139.09 68.49 136.39 C 62.88 137.82 56.84 138.73 52.03 142.17 M 65.14 144.97 C 63.80 147.23 62.25 149.35 60.83 151.57 C 63.31 150.69 67.54 147.89 65.14 144.97 Z" />
<path fill="#FFFFFF" opacity="1.00" d=" M 39.03 125.15 C 42.63 126.47 46.64 128.97 50.47 126.90 C 50.25 127.65 50.03 128.40 49.81 129.16 C 46.58 129.28 43.42 128.70 40.33 127.79 C 40.82 130.18 43.44 130.11 45.20 130.92 C 43.78 134.00 41.56 136.55 39.24 138.97 C 38.36 134.39 38.96 129.76 39.03 125.15 Z" />
<path fill="#FFFFFF" opacity="1.00" d=" M 36.79 163.82 C 36.53 160.22 36.62 156.62 37.55 153.11 C 37.94 156.93 38.44 160.74 38.61 164.58 C 38.16 164.39 37.25 164.01 36.79 163.82 Z" />
<path fill="#FFFFFF" opacity="1.00" d=" M 57.41 186.39 L 57.94 186.38 C 58.35 192.14 57.74 197.86 56.06 203.40 C 53.72 197.80 56.03 191.90 57.41 186.39 Z" />
<path fill="#FFFFFF" opacity="1.00" d=" M 37.36 204.94 C 37.67 200.03 39.20 195.28 40.94 190.70 C 41.12 193.07 41.08 195.45 41.20 197.82 C 41.80 201.63 42.32 205.46 42.55 209.31 C 42.15 209.25 41.34 209.12 40.94 209.06 C 41.02 206.11 41.31 203.13 40.85 200.21 C 40.61 200.06 40.13 199.78 39.89 199.63 C 38.95 204.19 39.43 208.85 40.65 213.30 C 41.44 212.33 42.22 211.35 43.00 210.38 C 42.99 219.74 44.39 229.08 45.19 238.40 C 44.83 238.25 44.12 237.95 43.77 237.80 C 43.00 236.71 42.16 235.67 41.33 234.63 C 40.17 229.54 43.42 224.44 41.39 219.48 C 39.56 214.80 37.22 210.11 37.36 204.94 Z" />
<path fill="#FFFFFF" opacity="1.00" d=" M 39.95 237.08 C 41.66 238.02 43.29 239.15 45.16 239.77 C 45.59 245.56 46.53 251.32 46.48 257.14 C 44.68 254.40 44.10 251.21 43.65 248.04 C 43.09 244.15 40.04 241.09 39.95 237.08 Z" />
</g>
<g id="#3f403fff">
<path fill="#333333" opacity="1.00" d=" M 40.41 37.50 C 47.15 33.68 56.85 39.15 57.18 46.89 C 57.72 51.52 58.87 56.23 57.88 60.89 C 57.04 62.84 55.77 64.56 54.80 66.43 C 55.63 66.29 57.29 66.00 58.13 65.86 C 62.18 67.87 66.64 68.60 71.12 68.90 C 71.70 69.43 72.86 70.49 73.45 71.02 C 74.04 70.00 74.63 68.97 75.23 67.95 C 79.02 67.06 83.09 66.85 86.84 68.04 C 88.16 69.16 88.61 70.90 89.32 72.41 C 90.59 72.87 91.93 73.24 93.06 74.00 C 93.44 77.97 93.31 81.98 92.98 85.95 C 92.36 87.56 91.12 88.82 90.10 90.19 C 90.86 96.85 91.38 104.83 86.33 110.04 C 86.66 112.01 86.77 114.01 86.70 116.01 C 86.45 126.65 86.36 137.30 86.13 147.95 C 85.32 164.96 85.77 182.00 84.84 199.01 C 84.52 211.01 84.43 223.01 84.17 235.01 C 84.07 240.06 83.08 245.15 84.27 250.15 C 82.34 254.93 77.29 258.99 71.92 258.09 C 70.31 257.91 68.59 258.09 67.46 259.39 C 64.95 261.96 61.22 262.51 57.78 262.44 C 57.09 262.58 54.09 262.03 54.93 261.03 C 58.33 260.83 61.62 259.99 64.82 258.85 C 65.08 258.33 65.61 257.31 65.87 256.79 C 59.66 253.44 58.80 245.97 56.15 240.15 C 54.68 236.03 53.03 231.98 51.59 227.85 C 50.66 222.51 52.10 217.15 53.32 211.98 C 54.59 206.77 53.16 201.44 52.71 196.26 L 51.94 196.01 L 50.99 195.74 L 51.75 193.60 L 52.54 193.51 L 53.17 193.50 L 53.85 193.56 C 54.73 190.87 55.50 188.15 56.39 185.46 C 54.43 187.54 51.82 188.85 48.93 188.82 C 50.45 187.68 52.23 186.91 53.64 185.62 C 58.41 179.51 58.04 171.32 59.63 164.09 C 59.93 164.57 60.53 165.53 60.82 166.02 C 60.48 170.69 57.37 175.54 59.75 180.07 C 60.47 183.65 59.69 187.36 60.02 191.00 C 60.52 196.46 57.53 201.53 58.05 207.00 C 57.78 210.29 60.49 212.75 60.81 215.92 C 61.85 222.58 60.53 229.46 63.21 235.87 C 62.49 235.31 61.78 234.75 61.07 234.18 C 60.91 233.20 60.60 231.24 60.45 230.26 C 59.59 232.19 59.07 234.26 58.02 236.10 C 56.87 230.65 60.60 225.55 59.50 220.08 C 59.21 215.94 57.47 212.15 55.64 208.50 C 54.84 214.38 52.77 220.12 53.06 226.12 C 55.48 233.23 57.59 240.48 60.51 247.41 C 62.52 250.77 63.99 255.25 68.47 255.84 C 68.39 254.98 68.35 254.13 68.37 253.27 C 70.15 254.37 71.85 255.73 73.87 256.37 C 77.37 255.75 80.58 253.47 82.47 250.47 C 82.61 248.61 81.76 246.85 80.50 245.53 C 76.09 240.82 74.91 234.27 72.44 228.53 C 70.92 225.28 71.01 221.64 70.31 218.20 C 69.96 217.88 69.27 217.24 68.93 216.92 C 68.36 211.00 69.97 205.24 70.93 199.46 C 71.27 199.49 71.93 199.56 72.27 199.59 C 70.48 193.09 73.96 186.64 72.32 180.19 C 71.04 174.58 73.87 169.23 74.10 163.67 C 69.68 165.18 64.38 166.43 60.47 163.01 C 57.50 165.52 54.00 167.68 50.04 167.99 C 47.37 168.16 44.70 168.04 42.04 168.04 C 42.49 180.84 43.78 193.58 44.92 206.34 C 45.74 203.78 45.64 200.90 47.16 198.60 C 46.56 206.65 47.43 214.67 47.59 222.72 L 46.31 222.39 C 46.54 225.27 46.74 228.14 46.97 231.02 C 47.96 229.49 48.97 227.97 50.19 226.60 C 49.96 229.55 48.62 232.24 47.41 234.90 C 48.11 242.51 48.79 250.12 49.50 257.73 C 50.07 257.15 51.21 256.00 51.78 255.42 C 52.25 255.52 53.17 255.72 53.64 255.82 C 56.34 254.84 59.17 255.98 61.93 255.21 C 61.88 255.66 61.79 256.58 61.75 257.03 C 60.22 257.34 58.70 257.68 57.18 258.04 C 56.82 257.80 56.12 257.32 55.76 257.08 C 54.19 258.47 52.43 257.75 50.76 257.07 C 50.52 257.63 50.05 258.75 49.81 259.31 C 50.97 259.73 52.12 260.17 53.28 260.62 L 53.44 260.12 C 53.81 260.83 54.56 262.24 54.93 262.94 C 52.62 262.57 50.29 262.37 47.95 262.18 C 46.46 260.04 44.71 258.01 43.70 255.58 C 42.70 252.33 42.95 248.73 41.28 245.70 C 40.41 243.85 39.13 242.12 38.90 240.04 C 38.60 237.74 39.73 235.49 39.33 233.19 C 38.48 229.37 41.50 225.82 40.39 222.02 C 39.08 217.67 36.49 213.73 36.06 209.12 C 34.82 202.38 37.94 196.02 39.47 189.62 C 40.17 182.70 39.61 175.74 38.88 168.85 C 38.94 166.30 35.98 165.27 35.56 162.93 C 35.00 157.94 36.38 153.03 36.49 148.07 C 35.94 143.98 34.53 140.05 34.03 135.95 C 34.09 133.53 35.81 131.46 35.72 129.02 C 35.59 126.40 35.73 123.67 34.80 121.18 C 33.23 118.74 30.32 117.61 28.71 115.21 C 25.19 108.31 21.68 100.96 22.27 92.99 C 22.90 88.38 19.73 83.90 21.66 79.43 C 22.84 75.66 26.44 73.61 29.50 71.52 C 31.60 69.62 33.54 67.55 35.70 65.71 C 37.89 63.70 37.91 60.49 37.83 57.74 C 34.99 55.10 35.48 51.04 34.46 47.63 C 32.98 43.32 35.86 38.27 40.41 37.50 M 36.98 41.13 C 35.32 43.55 36.09 46.74 36.19 49.49 C 36.62 49.78 37.49 50.35 37.92 50.63 C 37.70 51.26 37.27 52.52 37.05 53.15 C 37.11 55.40 39.78 55.67 41.18 56.85 C 42.90 59.13 43.56 62.35 46.23 63.80 C 50.20 65.47 55.18 63.61 56.64 59.46 C 57.70 53.78 55.99 48.05 54.32 42.66 C 52.50 39.95 49.54 37.32 46.01 37.90 C 42.83 38.32 39.81 39.67 36.98 41.13 M 39.55 57.61 C 39.50 59.72 39.43 61.88 38.68 63.88 C 37.81 67.26 34.40 68.87 32.24 71.34 C 29.03 74.66 23.30 76.72 22.97 81.96 C 21.94 86.50 26.91 88.60 28.35 92.35 C 26.67 91.52 25.13 90.47 23.59 89.42 C 24.36 94.58 24.82 99.80 25.98 104.89 C 26.70 107.84 28.81 110.16 29.88 112.97 C 30.71 115.75 33.49 117.13 35.71 118.67 C 34.56 113.81 34.23 108.82 33.67 103.85 C 32.06 105.05 31.69 108.56 29.40 108.53 C 29.96 104.70 33.47 102.28 34.55 98.61 C 32.27 96.90 30.32 94.62 29.37 91.90 C 28.67 88.51 28.88 85.02 28.74 81.58 C 29.33 81.52 30.52 81.40 31.11 81.34 C 29.80 77.92 31.81 74.61 34.84 73.02 C 38.41 74.19 42.16 73.58 45.83 73.71 C 45.07 69.99 40.74 67.73 41.38 63.37 C 43.81 65.64 44.43 69.97 47.99 70.87 C 47.81 71.81 47.62 72.75 47.42 73.68 C 49.11 73.36 50.89 73.18 52.50 73.90 C 50.69 74.23 48.80 74.44 47.49 75.86 C 51.67 80.37 51.52 86.75 50.74 92.45 C 52.90 90.88 54.83 89.04 56.77 87.20 C 55.73 83.97 54.52 80.79 53.50 77.56 C 56.11 80.05 58.19 83.64 57.19 87.35 C 58.49 88.19 59.76 89.10 61.22 89.66 C 63.32 90.42 66.13 88.19 67.59 90.62 C 65.87 91.04 64.15 91.65 62.36 91.65 C 60.52 90.80 59.08 89.35 57.53 88.09 C 56.44 93.13 50.41 93.02 46.91 95.67 C 49.86 102.96 50.07 111.91 45.64 118.64 C 44.64 121.03 43.01 123.28 40.05 123.21 C 43.62 125.33 47.75 126.31 51.86 125.52 C 52.34 124.10 52.78 122.68 53.21 121.26 C 53.77 121.99 54.33 122.72 54.89 123.45 L 53.48 123.96 C 54.03 124.50 54.58 125.03 55.14 125.57 C 60.25 124.89 65.38 123.94 69.99 121.50 C 70.07 119.86 70.09 118.22 69.99 116.58 C 69.59 117.64 68.78 119.76 68.38 120.82 C 68.17 117.96 67.82 115.12 67.50 112.28 C 68.40 113.52 69.20 114.83 70.00 116.14 C 69.79 113.55 69.66 110.95 69.79 108.36 C 68.45 110.16 66.72 111.60 64.62 112.42 C 65.46 111.48 66.32 110.56 67.21 109.67 C 67.68 108.23 68.12 106.79 68.56 105.34 C 69.70 104.91 70.21 104.14 70.10 103.01 C 69.84 98.96 68.21 95.16 68.04 91.08 C 70.36 88.40 71.16 84.98 71.42 81.52 C 71.91 83.18 72.36 84.85 72.78 86.53 C 72.11 82.41 72.37 78.23 72.51 74.08 C 72.06 71.18 69.18 70.08 66.62 69.62 C 66.16 70.61 65.71 71.60 65.25 72.59 C 67.96 73.74 70.62 75.46 71.38 78.52 C 68.92 76.48 65.95 74.85 64.13 72.17 C 61.77 72.22 59.42 72.27 57.07 72.36 C 56.06 73.28 55.05 74.19 53.98 75.04 C 55.64 70.11 61.96 71.14 66.03 70.74 C 62.88 69.54 59.61 68.50 56.89 66.42 C 55.84 67.71 54.88 69.07 53.92 70.42 C 54.05 68.81 54.20 67.20 54.38 65.59 C 51.14 65.81 47.47 66.34 44.67 64.30 C 42.52 62.45 41.17 59.89 39.55 57.61 M 76.98 69.88 C 73.15 71.86 74.60 76.45 75.10 79.84 C 76.92 80.27 78.74 80.72 80.58 81.04 C 84.10 85.03 80.30 89.67 77.90 93.09 C 75.65 95.79 76.54 99.38 76.41 102.59 C 76.15 102.89 75.62 103.47 75.35 103.76 C 74.97 99.74 73.88 95.32 76.59 91.81 C 75.06 90.06 73.58 88.26 72.19 86.40 C 71.24 89.21 69.23 91.95 70.05 95.07 C 70.74 98.25 71.40 101.45 71.42 104.72 C 73.98 108.03 77.48 111.82 81.91 111.92 C 84.33 109.65 86.80 107.10 87.70 103.81 C 90.16 95.34 86.87 86.70 87.83 78.09 C 85.92 78.25 84.01 78.40 82.09 78.54 C 82.29 78.13 82.70 77.32 82.90 76.91 C 85.77 77.10 88.64 77.35 91.49 77.68 C 91.02 77.93 90.07 78.43 89.60 78.68 C 90.29 81.87 89.58 85.08 89.42 88.28 C 92.58 84.57 91.00 79.41 91.89 75.00 C 88.51 74.91 85.16 75.34 81.85 76.01 C 83.71 75.00 86.78 74.46 87.01 71.94 C 84.84 68.87 80.22 68.88 76.98 69.88 M 34.88 75.58 C 33.09 75.59 33.26 77.94 32.70 79.10 C 34.71 79.20 36.73 79.24 38.74 79.41 C 38.73 79.73 38.71 80.38 38.70 80.70 C 35.99 80.99 33.18 81.08 30.76 82.51 C 30.24 85.59 30.47 88.69 31.13 91.73 C 32.35 93.26 34.01 94.21 35.93 94.61 C 34.98 93.57 34.02 92.55 33.04 91.53 C 32.59 88.78 32.53 85.98 33.03 83.23 C 38.31 86.85 36.74 93.73 36.28 99.12 C 36.26 106.33 37.40 113.48 37.79 120.67 C 41.44 122.47 44.23 118.50 45.66 115.67 C 48.34 107.43 46.92 98.47 44.07 90.45 C 44.72 90.66 46.01 91.06 46.66 91.27 L 45.74 92.40 C 46.68 91.98 47.61 91.57 48.55 91.16 C 48.46 88.19 50.24 84.50 47.55 82.19 C 47.73 83.84 47.96 85.49 48.24 87.13 C 47.34 88.34 46.47 89.56 45.62 90.80 C 43.60 86.95 48.38 83.51 47.50 79.44 C 46.76 77.82 46.26 75.39 44.05 75.31 C 41.00 75.19 37.94 75.58 34.88 75.58 M 74.80 81.77 C 74.81 83.85 74.96 85.94 75.18 88.01 C 76.60 88.47 78.03 88.89 79.47 89.29 C 77.45 87.64 74.03 84.28 77.70 82.33 C 77.85 83.17 78.16 84.87 78.32 85.71 C 78.79 85.97 79.75 86.49 80.23 86.75 C 79.97 83.78 77.98 81.44 74.80 81.77 M 70.67 106.30 C 71.25 112.35 71.15 118.45 72.13 124.46 C 73.12 125.73 74.09 127.02 75.09 128.28 C 75.63 131.88 74.38 135.62 75.72 139.09 C 77.36 143.58 77.33 148.46 76.59 153.12 C 76.21 155.33 78.17 157.05 79.04 158.89 C 77.89 160.15 76.70 161.38 75.49 162.59 C 75.43 166.45 74.50 170.19 73.98 173.99 C 73.42 177.36 74.37 180.68 74.57 184.03 C 74.66 186.74 73.29 189.21 73.09 191.88 C 72.87 196.55 74.58 201.18 73.73 205.84 C 73.36 208.22 73.16 210.61 72.97 213.01 C 72.48 212.22 72.00 211.43 71.53 210.63 C 72.02 207.21 72.90 203.77 72.41 200.30 C 71.06 205.55 70.20 210.96 69.62 216.35 C 69.86 216.88 70.36 217.93 70.61 218.45 C 70.71 216.85 70.91 213.64 71.01 212.03 C 71.56 212.79 72.11 213.54 72.66 214.30 C 70.31 222.63 75.21 230.42 77.51 238.17 C 78.00 240.59 79.33 242.64 81.20 244.25 C 81.94 230.24 81.16 216.17 82.23 202.18 C 82.50 188.62 82.66 175.06 83.22 161.52 C 83.57 145.43 83.62 129.33 84.28 113.25 C 78.63 114.65 74.00 110.26 70.67 106.30 M 51.48 127.15 C 51.56 127.78 51.72 129.03 51.79 129.66 C 50.09 130.26 48.38 130.84 46.66 131.37 C 45.28 134.94 42.24 137.31 39.29 139.53 C 40.20 148.42 40.12 157.44 41.85 166.23 C 48.53 167.02 55.82 165.87 60.55 160.65 C 59.73 157.75 59.90 154.74 60.51 151.82 C 62.70 154.96 62.82 159.36 61.51 162.89 C 64.92 162.96 68.47 163.83 71.78 162.59 C 73.72 161.61 75.32 160.10 77.02 158.77 C 74.95 154.07 75.85 148.89 74.96 143.97 C 74.48 139.91 72.34 136.07 73.14 131.91 C 73.95 128.60 71.39 126.03 70.13 123.23 C 64.27 125.71 57.90 127.52 51.48 127.15 M 39.03 125.15 C 38.96 129.76 38.36 134.39 39.24 138.97 C 41.56 136.55 43.78 134.00 45.20 130.92 C 43.44 130.11 40.82 130.18 40.33 127.79 C 43.42 128.70 46.58 129.28 49.81 129.16 C 50.03 128.40 50.25 127.65 50.47 126.90 C 46.64 128.97 42.63 126.47 39.03 125.15 M 36.79 163.82 C 37.25 164.01 38.16 164.39 38.61 164.58 C 38.44 160.74 37.94 156.93 37.55 153.11 C 36.62 156.62 36.53 160.22 36.79 163.82 M 57.41 186.39 C 56.03 191.90 53.72 197.80 56.06 203.40 C 57.74 197.86 58.35 192.14 57.94 186.38 L 57.41 186.39 M 37.36 204.94 C 37.22 210.11 39.56 214.80 41.39 219.48 C 43.42 224.44 40.17 229.54 41.33 234.63 C 42.16 235.67 43.00 236.71 43.77 237.80 C 44.12 237.95 44.83 238.25 45.19 238.40 C 44.39 229.08 42.99 219.74 43.00 210.38 C 42.22 211.35 41.44 212.33 40.65 213.30 C 39.43 208.85 38.95 204.19 39.89 199.63 C 40.13 199.78 40.61 200.06 40.85 200.21 C 41.31 203.13 41.02 206.11 40.94 209.06 C 41.34 209.12 42.15 209.25 42.55 209.31 C 42.32 205.46 41.80 201.63 41.20 197.82 C 41.08 195.45 41.12 193.07 40.94 190.70 C 39.20 195.28 37.67 200.03 37.36 204.94 M 39.95 237.08 C 40.04 241.09 43.09 244.15 43.65 248.04 C 44.10 251.21 44.68 254.40 46.48 257.14 C 46.53 251.32 45.59 245.56 45.16 239.77 C 43.29 239.15 41.66 238.02 39.95 237.08 Z" />
<path fill="#333333" opacity="1.00" d=" M 63.78 94.06 C 63.77 92.32 66.52 93.05 66.71 94.35 C 66.72 96.10 63.99 95.37 63.78 94.06 Z" />
<path fill="#333333" opacity="1.00" d=" M 49.39 101.46 C 51.29 98.44 54.60 96.80 56.99 94.22 C 56.63 95.36 56.25 96.50 55.88 97.65 C 53.68 98.85 51.56 100.20 49.39 101.46 Z" />
<path fill="#333333" opacity="1.00" d=" M 59.75 94.52 C 63.01 94.82 64.28 97.76 63.17 100.66 C 64.34 100.45 66.69 100.05 67.86 99.84 C 66.55 101.50 64.35 101.08 62.53 101.42 C 63.78 104.92 64.06 108.61 63.55 112.27 C 62.08 112.42 60.62 112.58 59.15 112.75 C 57.17 114.05 54.79 115.21 52.55 113.77 C 53.37 113.65 54.99 113.41 55.81 113.29 C 56.88 112.57 57.96 111.87 59.04 111.16 C 59.90 111.29 61.61 111.56 62.47 111.70 C 62.84 108.71 62.91 105.39 60.78 102.99 C 59.53 102.73 58.27 102.51 57.01 102.33 C 55.71 103.74 54.42 105.15 52.96 106.39 C 53.83 104.51 54.71 102.55 56.24 101.11 C 58.07 100.87 59.93 100.94 61.77 100.87 C 61.85 99.67 61.92 98.46 61.99 97.26 C 61.23 96.36 60.48 95.45 59.75 94.52 Z" />
<path fill="#333333" opacity="1.00" d=" M 49.30 113.84 C 51.37 115.54 53.15 117.60 54.17 120.11 C 50.84 119.93 50.13 116.41 49.30 113.84 Z" />
<path fill="#333333" opacity="1.00" d=" M 63.35 116.18 C 64.93 116.93 62.68 120.24 61.24 119.66 C 60.79 118.27 62.05 116.62 63.35 116.18 Z" />
<path fill="#333333" opacity="1.00" d=" M 49.73 135.58 C 57.07 135.17 64.20 133.19 71.55 132.91 C 71.43 133.44 71.20 134.48 71.08 135.01 C 63.89 133.57 56.90 137.51 49.73 135.58 Z" />
<path fill="#333333" opacity="1.00" d=" M 52.03 142.17 C 56.84 138.73 62.88 137.82 68.49 136.39 C 65.98 139.09 62.00 139.30 58.74 140.64 C 61.04 140.53 63.35 140.54 65.63 140.98 C 61.39 143.27 56.46 140.11 52.03 142.17 Z" />
<path fill="#333333" opacity="1.00" d=" M 65.14 144.97 C 67.54 147.89 63.31 150.69 60.83 151.57 C 62.25 149.35 63.80 147.23 65.14 144.97 Z" />
<path fill="#333333" opacity="1.00" d=" M 69.63 169.72 C 69.88 169.62 70.39 169.42 70.65 169.31 C 70.90 173.19 67.44 176.59 63.86 177.53 C 66.05 175.12 67.89 172.46 69.63 169.72 Z" />
<path fill="#333333" opacity="1.00" d=" M 46.64 177.22 C 48.59 175.69 50.64 174.28 52.88 173.22 C 51.67 175.61 49.51 177.74 46.64 177.22 Z" />
<path fill="#333333" opacity="1.00" d=" M 64.42 181.81 C 66.14 183.55 67.75 185.60 68.33 188.01 C 67.88 190.00 66.88 191.81 66.14 193.70 C 64.90 191.89 65.89 189.88 66.45 188.04 C 65.27 186.15 64.33 184.09 64.42 181.81 Z" />
<path fill="#333333" opacity="1.00" d=" M 51.26 208.97 C 51.21 205.57 50.28 202.13 51.16 198.76 C 53.96 204.73 52.80 211.48 50.39 217.36 C 50.60 214.56 51.13 211.78 51.26 208.97 Z" />
<path fill="#333333" opacity="1.00" d=" M 64.69 199.37 C 67.46 202.25 66.67 206.72 65.56 210.16 C 63.97 214.28 64.91 218.83 63.51 223.00 C 62.63 219.34 63.21 215.60 64.03 212.00 C 65.05 207.86 64.68 203.59 64.69 199.37 Z" />
<path fill="#333333" opacity="1.00" d=" M 66.76 232.48 C 66.40 231.09 66.69 229.68 67.28 228.41 C 68.69 233.56 70.35 238.99 69.42 244.37 C 68.44 240.43 67.60 236.45 66.76 232.48 Z" />
<path fill="#333333" opacity="1.00" d=" M 58.59 237.26 C 59.01 236.57 59.43 235.89 59.86 235.21 C 61.09 237.83 62.70 240.24 64.15 242.73 C 66.16 246.25 64.09 251.07 67.85 253.76 C 66.23 254.04 65.06 252.84 63.87 251.96 C 63.58 249.36 63.78 246.66 62.94 244.16 C 61.78 241.69 60.13 239.49 58.59 237.26 Z" />
<path fill="#333333" opacity="1.00" d=" M 79.87 246.79 C 80.04 247.78 80.20 248.77 80.35 249.77 C 79.03 250.33 77.71 250.90 76.38 251.45 C 76.51 252.16 76.77 253.57 76.90 254.28 C 74.54 253.46 72.71 251.81 71.13 249.93 C 72.09 249.80 73.05 249.68 74.01 249.56 C 74.44 250.15 75.30 251.35 75.73 251.94 C 76.70 249.92 78.29 248.33 79.87 246.79 Z" />
</g>
</svg>
