<?xml version="1.0" encoding="UTF-8" ?>
<!DOCTYPE svg PUBLIC "-//W3C//DTD SVG 1.1//EN" "http://www.w3.org/Graphics/SVG/1.1/DTD/svg11.dtd">
<svg width="108pt" height="288pt" viewBox="0 0 108 288" version="1.1" xmlns="http://www.w3.org/2000/svg">
<g id="#ffffffff">
<path fill="#FFFFFF" opacity="1.00" d=" M 0.00 0.00 L 108.00 0.00 L 108.00 288.00 L 0.00 288.00 L 0.00 0.00 M 36.90 46.05 C 34.62 48.10 33.39 51.64 34.46 54.63 C 35.49 58.01 34.95 62.10 37.83 64.68 C 37.78 66.49 38.03 68.39 37.30 70.12 C 36.46 72.98 33.47 74.27 31.68 76.46 C 29.04 79.63 24.63 80.85 22.54 84.54 C 21.30 86.79 20.45 89.54 21.28 92.08 C 23.02 97.54 21.61 103.40 23.08 108.91 C 24.32 113.33 26.45 117.41 28.33 121.58 C 29.91 124.74 33.93 125.78 35.28 129.10 C 35.84 131.00 36.02 133.01 36.10 135.00 C 36.26 137.84 34.09 140.17 34.02 142.97 C 34.58 148.23 37.12 153.23 36.34 158.61 C 36.71 158.64 37.44 158.70 37.81 158.72 C 38.20 157.83 38.58 156.94 38.95 156.04 C 37.99 161.37 38.58 166.78 39.26 172.11 C 38.69 171.73 37.55 170.99 36.98 170.62 C 36.13 166.77 36.89 162.88 37.95 159.16 C 37.38 159.40 36.25 159.89 35.68 160.13 C 35.81 163.39 35.26 166.64 35.55 169.90 C 35.70 172.64 39.78 173.10 39.52 175.95 C 40.09 183.30 41.25 190.66 40.87 198.04 C 38.78 203.09 35.31 208.21 36.46 213.95 C 38.00 223.65 42.09 233.69 38.66 243.44 C 37.67 246.70 35.73 251.37 39.09 253.88 C 41.50 255.92 43.51 258.37 45.80 260.54 C 47.60 262.34 50.42 262.13 52.41 263.61 C 56.16 266.35 60.77 263.60 64.57 262.40 C 66.38 261.99 67.38 260.40 67.39 258.61 C 70.20 257.72 73.08 257.08 76.05 257.33 C 79.60 257.59 82.77 254.93 84.39 252.02 C 83.88 247.04 83.47 242.07 84.10 237.07 C 84.43 210.55 85.52 184.05 85.80 157.52 C 86.49 144.22 86.25 130.88 86.82 117.58 C 90.71 111.11 91.61 103.10 89.59 95.82 C 90.97 94.10 93.26 92.57 93.14 90.11 C 93.29 86.74 93.27 83.37 93.16 80.00 C 91.85 79.57 90.54 79.14 89.22 78.74 C 88.49 77.49 87.95 76.08 86.86 75.09 C 83.13 73.78 78.99 74.07 75.19 74.99 C 74.61 76.00 74.02 77.01 73.44 78.03 C 72.87 77.50 71.72 76.43 71.15 75.90 C 66.66 75.61 62.18 74.87 58.12 72.84 C 57.29 73.00 55.63 73.31 54.80 73.46 C 55.77 71.58 57.05 69.86 57.87 67.90 C 58.89 62.95 57.65 57.93 57.02 53.02 C 56.60 48.13 52.16 44.59 47.64 43.52 C 43.88 42.28 40.27 44.65 36.90 46.05 Z" />
<path fill="#FFFFFF" opacity="1.00" d=" M 37.21 48.03 C 40.98 46.18 45.29 43.97 49.58 45.31 C 51.75 46.67 54.16 48.39 54.80 51.02 C 56.12 56.00 57.67 61.20 56.66 66.39 C 55.25 70.59 50.22 72.48 46.24 70.80 C 43.56 69.36 42.90 66.15 41.22 63.86 C 40.02 62.98 38.49 62.59 37.46 61.50 C 36.53 60.21 37.50 58.90 37.98 57.66 C 37.55 57.39 36.68 56.86 36.25 56.59 C 36.16 53.83 35.11 50.23 37.21 48.03 Z" />
<path fill="#FFFFFF" opacity="1.00" d=" M 39.44 64.63 C 40.81 66.53 42.16 68.47 43.75 70.21 C 42.95 70.65 42.15 71.07 41.34 71.49 C 42.25 74.45 43.26 78.40 46.74 79.15 C 46.08 79.64 45.43 80.14 44.79 80.65 C 41.48 80.69 38.10 81.11 34.91 80.01 C 32.35 81.40 30.47 83.81 30.55 86.83 C 30.14 87.07 29.31 87.54 28.89 87.78 C 28.26 93.47 28.96 100.46 34.81 103.21 C 34.01 105.06 33.74 107.08 33.00 108.94 C 31.44 111.10 29.64 113.19 29.25 115.93 C 31.56 114.61 32.58 111.96 34.58 110.27 C 34.08 115.36 34.76 120.46 35.48 125.49 C 32.81 123.70 29.94 121.88 29.23 118.49 C 24.55 112.10 24.94 103.91 23.57 96.47 C 25.09 97.48 26.63 98.49 28.29 99.27 C 27.05 96.79 25.14 94.77 23.30 92.73 C 22.72 90.33 22.57 87.36 24.27 85.35 C 26.53 82.20 30.24 80.61 32.82 77.78 C 34.81 75.57 37.86 74.07 38.65 71.00 C 39.45 68.97 39.54 66.78 39.44 64.63 Z" />
<path fill="#FFFFFF" opacity="1.00" d=" M 43.17 72.95 C 43.81 72.51 44.45 72.07 45.10 71.64 C 47.96 73.07 51.20 72.97 54.28 72.55 C 54.21 74.19 54.24 75.84 54.28 77.48 C 55.02 76.05 55.84 74.64 56.91 73.42 C 59.54 75.39 62.64 76.46 65.63 77.74 C 61.73 78.14 55.40 77.17 54.08 82.08 C 55.10 81.22 56.07 80.29 57.03 79.37 C 59.64 79.28 62.25 79.22 64.87 79.10 L 64.32 80.38 C 66.89 81.77 69.04 83.76 71.31 85.56 C 70.68 82.50 68.04 80.76 65.34 79.69 C 65.50 79.02 65.83 77.68 65.99 77.00 C 68.97 76.65 71.41 78.03 72.67 80.77 C 72.27 83.28 72.23 85.83 72.34 88.38 C 72.01 88.74 71.36 89.47 71.04 89.83 C 71.22 92.93 69.95 95.70 68.04 98.06 C 68.37 101.06 68.83 104.05 69.74 106.94 C 69.98 108.76 70.98 111.53 68.56 112.32 C 68.11 113.79 67.65 115.26 67.19 116.73 C 66.31 117.60 65.45 118.49 64.61 119.39 C 66.77 118.65 68.50 117.15 69.81 115.30 C 69.65 117.96 69.79 120.61 70.04 123.25 C 69.28 121.90 68.47 120.59 67.49 119.40 C 67.79 122.08 68.14 124.75 68.39 127.44 C 68.79 126.51 69.60 124.64 70.00 123.70 C 70.09 125.31 70.05 126.93 69.95 128.54 C 65.25 131.01 60.01 131.88 54.82 132.67 C 54.34 131.80 53.84 130.83 54.36 129.83 C 53.94 129.27 53.53 128.73 53.12 128.18 C 52.73 129.64 52.32 131.11 51.86 132.55 C 47.90 133.25 44.03 132.20 40.28 130.97 C 41.74 134.70 47.25 135.54 50.46 133.84 C 50.25 134.61 50.04 135.39 49.85 136.17 C 46.96 136.24 44.14 135.74 41.34 135.12 L 40.05 136.08 C 41.74 136.76 43.48 137.32 45.21 137.89 C 43.91 140.75 41.99 143.24 39.63 145.32 C 39.22 140.42 38.89 135.50 39.16 130.58 C 41.06 129.90 43.64 129.83 44.53 127.67 C 45.72 125.44 47.04 123.27 48.04 120.95 C 50.17 113.85 48.43 106.55 46.35 99.68 C 47.02 99.98 48.38 100.58 49.06 100.87 C 52.37 99.94 56.94 99.32 57.45 95.08 C 59.01 96.33 60.48 97.78 62.33 98.63 C 64.07 98.66 65.76 98.09 67.45 97.74 C 66.73 95.56 64.57 96.69 62.95 96.75 C 60.70 97.16 58.88 95.39 57.15 94.24 C 58.27 90.68 56.05 87.36 53.93 84.69 C 54.52 87.95 55.70 91.06 56.76 94.18 C 54.71 96.22 52.58 98.18 50.15 99.76 C 51.24 95.20 51.53 90.45 50.40 85.87 C 49.41 84.96 48.43 84.05 47.45 83.13 C 48.54 81.34 50.50 81.15 52.43 81.06 C 47.67 80.83 45.63 76.32 43.17 72.95 M 63.77 101.03 C 63.97 102.31 66.68 103.13 66.72 101.38 C 66.53 100.09 63.81 99.30 63.77 101.03 M 49.50 108.50 C 51.59 107.17 53.68 105.83 55.87 104.67 C 56.25 103.51 56.64 102.36 57.01 101.20 C 54.70 103.85 51.14 105.29 49.50 108.50 M 59.81 101.58 C 60.52 102.48 61.25 103.37 61.99 104.25 C 61.91 105.47 61.83 106.69 61.74 107.92 C 59.92 107.96 58.09 107.87 56.28 108.09 C 54.75 109.50 53.86 111.43 52.95 113.27 C 54.40 112.13 55.68 110.81 56.94 109.48 C 58.26 109.58 59.58 109.67 60.90 109.75 C 62.49 112.49 63.09 115.57 62.43 118.70 C 61.59 118.56 59.89 118.29 59.05 118.15 C 57.96 118.87 56.88 119.59 55.80 120.32 C 55.01 120.41 53.42 120.57 52.63 120.65 C 54.69 122.42 57.21 120.99 59.12 119.75 C 60.59 119.59 62.06 119.43 63.54 119.28 C 64.06 115.59 63.77 111.88 62.55 108.35 C 64.34 108.04 66.58 108.61 67.81 106.86 C 66.64 107.07 64.29 107.49 63.12 107.70 C 64.30 104.88 63.10 101.78 59.81 101.58 M 49.32 120.85 C 50.12 123.40 50.80 126.98 54.13 127.06 C 53.16 124.55 51.38 122.53 49.32 120.85 M 63.36 123.18 C 62.06 123.63 60.78 125.26 61.22 126.66 C 62.67 127.24 64.95 123.90 63.36 123.18 Z" />
<path fill="#FFFFFF" opacity="1.00" d=" M 75.69 77.93 C 78.23 75.14 82.47 76.67 85.69 77.11 C 86.06 77.66 86.80 78.76 87.17 79.31 C 85.54 80.35 83.76 81.11 81.93 81.74 C 85.11 81.48 88.30 81.15 91.50 81.27 L 92.11 83.84 C 89.04 83.49 85.97 83.12 82.89 82.90 C 82.71 83.32 82.34 84.16 82.16 84.58 C 84.03 84.42 85.90 84.25 87.77 84.07 C 87.73 89.58 87.67 95.14 88.59 100.59 C 89.09 105.07 88.22 109.62 86.65 113.82 C 86.17 114.03 85.20 114.46 84.72 114.67 C 83.78 116.27 83.25 119.15 80.89 119.03 C 76.97 117.87 73.75 114.99 71.42 111.70 C 71.42 108.42 70.74 105.21 70.03 102.03 C 69.12 98.26 72.36 95.18 72.23 91.45 C 73.66 93.80 75.54 95.81 77.52 97.71 C 73.99 101.28 74.67 106.27 75.36 110.76 C 75.62 110.47 76.15 109.90 76.41 109.61 C 76.43 107.48 76.29 105.34 76.42 103.21 C 77.61 98.76 82.40 95.83 82.13 90.89 C 81.62 87.96 78.50 87.43 76.15 86.69 C 76.18 87.82 76.24 90.08 76.27 91.21 C 77.12 92.83 78.92 93.70 80.17 95.00 C 78.51 94.41 76.86 93.79 75.22 93.18 C 75.10 91.60 74.97 90.03 74.82 88.46 L 75.81 88.01 C 75.23 84.77 72.95 80.76 75.69 77.93 Z" />
<path fill="#FFFFFF" opacity="1.00" d=" M 35.97 82.51 C 39.17 82.81 42.66 81.33 45.65 82.92 C 49.78 87.41 45.28 93.08 44.24 97.85 C 45.76 96.92 47.66 95.92 48.03 94.00 C 48.08 92.34 47.81 90.69 47.83 89.03 C 48.14 88.91 48.78 88.67 49.09 88.55 C 49.02 91.05 48.82 93.54 48.60 96.02 C 47.14 96.91 45.72 97.86 44.35 98.89 C 47.23 105.84 47.72 113.58 46.27 120.93 C 45.18 124.53 42.45 128.58 38.19 128.20 C 37.46 122.48 37.39 116.70 36.62 110.98 C 35.97 106.28 37.09 101.58 36.75 96.89 C 36.78 93.80 34.33 91.62 33.21 88.92 C 32.91 90.17 32.59 91.40 32.26 92.64 C 32.58 93.96 32.87 95.29 33.14 96.62 C 33.96 97.53 34.76 98.44 35.55 99.37 C 33.71 99.13 32.21 98.12 31.07 96.71 C 30.39 93.79 30.18 90.81 31.02 87.89 C 33.18 87.29 35.43 87.09 37.61 86.61 C 37.99 84.19 34.06 85.60 32.63 84.89 C 33.45 83.73 34.20 82.07 35.97 82.51 Z" />
<path fill="#FFFFFF" opacity="1.00" d=" M 89.21 84.25 L 91.65 84.15 C 91.20 87.17 92.00 90.57 89.74 93.04 C 89.76 90.10 90.39 87.06 89.21 84.25 Z" />
<path fill="#FFFFFF" opacity="1.00" d=" M 70.66 113.26 C 73.95 117.21 78.59 121.68 84.21 120.22 C 83.33 136.78 83.70 153.40 82.92 169.97 C 82.43 182.97 82.63 196.00 81.76 208.99 C 81.64 220.53 81.57 232.07 81.29 243.61 C 77.58 241.41 76.82 236.96 74.15 233.87 C 72.11 231.48 70.70 228.67 69.08 225.99 C 69.02 222.58 69.54 219.21 70.45 215.93 C 71.95 210.45 70.04 204.54 72.19 199.18 C 73.92 194.61 73.72 189.65 72.97 184.91 C 73.51 180.19 75.84 175.76 75.76 170.90 C 75.59 168.66 77.91 167.45 79.02 165.78 C 78.14 164.00 76.19 162.36 76.59 160.19 C 77.32 155.49 77.38 150.57 75.70 146.06 C 74.35 142.58 75.68 138.84 75.08 135.25 C 74.08 134.01 73.13 132.74 72.15 131.50 C 71.12 125.47 71.27 119.34 70.66 113.26 Z" />
<path fill="#FFFFFF" opacity="1.00" d=" M 51.49 134.14 C 57.89 134.53 64.29 132.73 70.12 130.20 C 71.12 132.18 72.35 134.05 73.19 136.11 C 73.23 139.44 72.56 142.84 73.86 146.04 C 76.20 152.41 74.45 159.46 77.05 165.73 C 75.34 167.07 73.74 168.59 71.79 169.58 C 68.45 170.84 64.87 169.93 61.42 169.90 C 62.97 167.10 62.00 163.91 61.98 160.91 C 61.44 160.29 60.89 159.67 60.34 159.05 C 59.94 161.88 59.73 164.78 60.58 167.56 C 56.02 172.80 48.80 173.92 42.22 173.32 C 40.78 164.47 40.93 155.44 39.49 146.59 C 42.24 144.20 45.30 141.92 46.64 138.38 C 48.36 137.84 50.08 137.27 51.79 136.68 C 51.71 136.04 51.56 134.78 51.49 134.14 M 49.76 142.57 C 54.50 143.68 59.31 142.85 63.97 141.82 C 66.61 141.09 70.47 143.29 72.03 140.32 C 64.55 139.58 57.24 142.41 49.76 142.57 M 52.15 149.17 C 56.50 147.49 60.96 149.41 65.41 148.72 C 63.57 146.97 60.96 147.65 58.69 147.65 C 61.89 146.22 66.08 146.27 68.37 143.34 C 62.88 144.95 56.81 145.62 52.15 149.17 M 65.12 152.15 C 63.72 154.28 62.22 156.35 60.86 158.51 C 63.27 157.77 67.56 154.86 65.12 152.15 Z" />
<path fill="#FFFFFF" opacity="1.00" d=" M 60.22 170.19 C 62.41 171.09 64.55 172.40 67.02 172.30 C 69.46 172.09 71.80 171.28 74.16 170.67 C 73.94 174.42 72.89 178.02 72.00 181.65 C 71.72 181.85 71.16 182.27 70.88 182.47 C 70.96 181.28 71.11 178.90 71.18 177.71 C 69.24 180.00 68.53 183.26 66.04 185.08 C 64.62 184.46 63.27 183.71 61.89 183.03 C 62.85 184.95 64.44 187.08 66.89 186.70 C 68.67 185.86 70.03 184.25 70.41 182.29 C 71.17 184.84 71.60 187.48 71.89 190.12 C 72.32 195.56 69.26 200.55 69.57 205.98 C 70.14 213.66 66.20 221.11 67.98 228.76 C 72.83 233.54 74.68 240.57 79.92 245.02 C 82.06 246.88 82.71 250.00 81.36 252.51 C 80.55 255.12 77.47 255.18 75.32 255.97 C 73.26 254.38 70.83 253.46 68.35 252.78 C 67.49 251.34 66.77 249.80 65.71 248.49 C 63.37 246.45 60.02 246.43 57.43 244.85 C 55.75 241.24 55.32 237.16 57.66 233.70 C 57.57 235.81 57.02 237.94 57.42 240.03 C 58.79 241.98 60.68 243.49 62.33 245.19 C 62.19 242.93 60.93 241.14 59.64 239.39 C 59.16 237.17 60.24 234.44 58.30 232.73 C 59.47 227.52 58.96 222.06 56.69 217.22 C 55.12 217.36 56.18 220.22 56.21 221.15 C 57.60 226.58 57.29 232.49 54.36 237.38 C 51.27 230.46 53.29 222.61 54.46 215.43 C 54.81 215.51 55.51 215.66 55.86 215.73 C 56.71 212.95 57.04 210.04 57.59 207.19 C 56.57 207.20 55.83 207.79 55.25 208.59 C 55.50 205.57 55.76 202.51 56.74 199.63 C 56.88 202.13 56.26 204.88 57.86 207.06 C 60.03 200.83 58.11 194.39 58.94 188.02 C 57.96 182.68 60.87 177.72 60.69 172.44 C 60.39 172.14 59.79 171.53 59.49 171.23 C 58.93 175.88 57.84 180.43 56.69 184.97 C 56.30 184.45 55.52 183.42 55.13 182.91 C 54.23 182.73 53.32 182.56 52.42 182.38 C 50.68 183.90 48.89 185.37 47.30 187.06 C 50.37 187.80 52.17 185.05 53.95 183.13 C 57.92 186.32 56.96 191.54 56.12 195.94 C 55.18 199.29 53.37 202.46 53.56 206.05 C 53.52 213.47 50.74 220.56 50.84 227.97 C 50.84 230.79 51.61 233.53 52.00 236.30 C 54.05 240.34 56.09 244.43 57.11 248.87 C 57.56 251.22 59.98 252.29 61.16 254.21 C 62.31 255.98 63.76 257.52 65.00 259.24 C 64.93 260.89 63.10 261.22 61.89 261.81 C 58.39 263.46 54.04 262.93 50.80 260.99 C 54.01 258.70 58.20 260.78 61.51 258.56 C 60.34 256.85 58.55 257.95 57.03 258.29 C 54.51 257.55 52.22 258.64 50.04 259.78 C 48.83 253.27 48.34 246.66 48.03 240.06 C 47.83 238.32 49.11 236.96 49.82 235.49 C 49.22 235.55 48.04 235.67 47.44 235.73 C 46.90 227.47 45.90 219.24 45.35 210.98 C 45.02 208.55 46.03 206.29 46.85 204.08 C 46.30 204.27 45.20 204.64 44.64 204.82 C 43.82 194.88 44.13 184.87 42.23 175.03 C 43.19 175.03 45.11 175.02 46.07 175.02 C 46.19 176.63 46.30 178.25 46.41 179.87 C 46.76 179.86 47.45 179.86 47.79 179.86 C 47.70 178.30 47.60 176.74 47.49 175.18 C 52.25 175.31 56.70 173.28 60.22 170.19 M 47.99 200.25 C 50.63 199.88 48.77 196.77 49.03 195.12 L 47.97 195.71 C 47.87 194.54 47.78 193.36 47.69 192.19 L 48.83 191.54 C 45.76 192.96 47.19 197.61 47.99 200.25 M 63.78 192.11 C 64.13 193.48 64.52 194.85 64.95 196.20 C 64.73 197.36 64.51 198.53 64.40 199.72 C 65.54 199.59 66.45 198.86 67.03 197.91 C 67.41 195.49 65.39 193.59 63.78 192.11 M 66.04 208.99 C 65.38 213.94 64.31 219.00 65.22 224.00 L 66.51 225.07 C 65.73 217.78 67.38 210.60 68.05 203.39 C 66.93 205.06 66.24 206.98 66.04 208.99 M 48.72 218.49 C 48.38 222.44 47.26 227.04 49.81 230.50 C 49.98 222.59 49.97 214.64 51.48 206.84 C 49.44 210.35 49.55 214.61 48.72 218.49 M 62.87 208.77 C 61.76 212.33 60.98 215.99 60.42 219.68 C 63.30 217.05 63.68 212.40 62.87 208.77 M 62.28 234.71 C 65.22 238.21 67.22 242.32 69.76 246.08 C 69.55 243.25 68.41 240.64 67.04 238.19 C 65.86 236.95 64.68 235.70 63.51 234.45 C 64.45 232.85 65.33 231.21 66.11 229.53 C 63.47 229.85 63.29 232.79 62.28 234.71 M 77.50 250.65 C 76.63 251.10 75.76 251.54 74.89 251.99 C 75.98 252.68 77.08 253.37 78.17 254.06 C 78.34 253.47 78.69 252.27 78.86 251.67 C 79.69 250.50 80.49 249.31 81.25 248.09 C 79.31 247.72 78.41 249.29 77.50 250.65 Z" />
<path fill="#FFFFFF" opacity="1.00" d=" M 41.82 200.91 C 43.54 209.68 41.16 218.54 42.95 227.28 C 43.25 227.15 43.86 226.88 44.17 226.74 C 44.58 237.16 46.32 247.48 46.51 257.90 C 44.59 255.01 41.85 252.95 39.31 250.67 C 38.39 247.54 39.80 244.31 40.52 241.28 C 41.34 242.68 42.14 244.08 42.99 245.47 C 44.04 242.89 42.44 240.57 41.50 238.25 C 42.02 236.09 42.73 234.00 43.34 231.87 C 42.91 231.52 42.05 230.82 41.62 230.47 C 41.34 228.28 41.03 226.10 40.49 223.96 C 39.21 219.41 39.42 214.61 38.23 210.04 C 38.76 206.79 40.45 203.87 41.82 200.91 Z" />
<path fill="#FFFFFF" opacity="1.00" d=" M 57.91 246.61 C 60.47 247.60 63.57 248.35 64.78 251.13 C 65.83 253.64 68.25 254.87 70.76 255.48 C 68.81 255.39 66.96 255.98 65.20 256.76 C 63.67 252.68 59.62 250.48 57.91 246.61 Z" />
</g>
<g id="#404140ff">
<path fill="#333333" opacity="1.00" d=" M 36.90 46.05 C 40.27 44.65 43.88 42.28 47.64 43.52 C 52.16 44.59 56.60 48.13 57.02 53.02 C 57.65 57.93 58.89 62.95 57.87 67.90 C 57.05 69.86 55.77 71.58 54.80 73.46 C 55.63 73.31 57.29 73.00 58.12 72.84 C 62.18 74.87 66.66 75.61 71.15 75.90 C 71.72 76.43 72.87 77.50 73.44 78.03 C 74.02 77.01 74.61 76.00 75.19 74.99 C 78.99 74.07 83.13 73.78 86.86 75.09 C 87.95 76.08 88.49 77.49 89.22 78.74 C 90.54 79.14 91.85 79.57 93.16 80.00 C 93.27 83.37 93.29 86.74 93.14 90.11 C 93.26 92.57 90.97 94.10 89.59 95.82 C 91.61 103.10 90.71 111.11 86.82 117.58 C 86.25 130.88 86.49 144.22 85.80 157.52 C 85.52 184.05 84.43 210.55 84.10 237.07 C 83.47 242.07 83.88 247.04 84.39 252.02 C 82.77 254.93 79.60 257.59 76.05 257.33 C 73.08 257.08 70.20 257.72 67.39 258.61 C 67.38 260.40 66.38 261.99 64.57 262.40 C 60.77 263.60 56.16 266.35 52.41 263.61 C 50.42 262.13 47.60 262.34 45.80 260.54 C 43.51 258.37 41.50 255.92 39.09 253.88 C 35.73 251.37 37.67 246.70 38.66 243.44 C 42.09 233.69 38.00 223.65 36.46 213.95 C 35.31 208.21 38.78 203.09 40.87 198.04 C 41.25 190.66 40.09 183.30 39.52 175.95 C 39.78 173.10 35.70 172.64 35.55 169.90 C 35.26 166.64 35.81 163.39 35.68 160.13 C 36.25 159.89 37.38 159.40 37.95 159.16 C 36.89 162.88 36.13 166.77 36.98 170.62 C 37.55 170.99 38.69 171.73 39.26 172.11 C 38.58 166.78 37.99 161.37 38.95 156.04 C 38.58 156.94 38.20 157.83 37.81 158.72 C 37.44 158.70 36.71 158.64 36.34 158.61 C 37.12 153.23 34.58 148.23 34.02 142.97 C 34.09 140.17 36.26 137.84 36.10 135.00 C 36.02 133.01 35.84 131.00 35.28 129.10 C 33.93 125.78 29.91 124.74 28.33 121.58 C 26.45 117.41 24.32 113.33 23.08 108.91 C 21.61 103.40 23.02 97.54 21.28 92.08 C 20.45 89.54 21.30 86.79 22.54 84.54 C 24.63 80.85 29.04 79.63 31.68 76.46 C 33.47 74.27 36.46 72.98 37.30 70.12 C 38.03 68.39 37.78 66.49 37.83 64.68 C 34.95 62.10 35.49 58.01 34.46 54.63 C 33.39 51.64 34.62 48.10 36.90 46.05 M 37.21 48.03 C 35.11 50.23 36.16 53.83 36.25 56.59 C 36.68 56.86 37.55 57.39 37.98 57.66 C 37.50 58.90 36.53 60.21 37.46 61.50 C 38.49 62.59 40.02 62.98 41.22 63.86 C 42.90 66.15 43.56 69.36 46.24 70.80 C 50.22 72.48 55.25 70.59 56.66 66.39 C 57.67 61.20 56.12 56.00 54.80 51.02 C 54.16 48.39 51.75 46.67 49.58 45.31 C 45.29 43.97 40.98 46.18 37.21 48.03 M 39.44 64.63 C 39.54 66.78 39.45 68.97 38.65 71.00 C 37.86 74.07 34.81 75.57 32.82 77.78 C 30.24 80.61 26.53 82.20 24.27 85.35 C 22.57 87.36 22.72 90.33 23.30 92.73 C 25.14 94.77 27.05 96.79 28.29 99.27 C 26.63 98.49 25.09 97.48 23.57 96.47 C 24.94 103.91 24.55 112.10 29.23 118.49 C 29.94 121.88 32.81 123.70 35.48 125.49 C 34.76 120.46 34.08 115.36 34.58 110.27 C 32.58 111.96 31.56 114.61 29.25 115.93 C 29.64 113.19 31.44 111.10 33.00 108.94 C 33.74 107.08 34.01 105.06 34.81 103.21 C 28.96 100.46 28.26 93.47 28.89 87.78 C 29.31 87.54 30.14 87.07 30.55 86.83 C 30.47 83.81 32.35 81.40 34.91 80.01 C 38.10 81.11 41.48 80.69 44.79 80.65 C 45.43 80.14 46.08 79.64 46.74 79.15 C 43.26 78.40 42.25 74.45 41.34 71.49 C 42.15 71.07 42.95 70.65 43.75 70.21 C 42.16 68.47 40.81 66.53 39.44 64.63 M 43.17 72.95 C 45.63 76.32 47.67 80.83 52.43 81.06 C 50.50 81.15 48.54 81.34 47.45 83.13 C 48.43 84.05 49.41 84.96 50.40 85.87 C 51.53 90.45 51.24 95.20 50.15 99.76 C 52.58 98.18 54.71 96.22 56.76 94.18 C 55.70 91.06 54.52 87.95 53.93 84.69 C 56.05 87.36 58.27 90.68 57.15 94.24 C 58.88 95.39 60.70 97.16 62.95 96.75 C 64.57 96.69 66.73 95.56 67.45 97.74 C 65.76 98.09 64.07 98.66 62.33 98.63 C 60.48 97.78 59.01 96.33 57.45 95.08 C 56.94 99.32 52.37 99.94 49.06 100.87 C 48.38 100.58 47.02 99.98 46.35 99.68 C 48.43 106.55 50.17 113.85 48.04 120.95 C 47.04 123.27 45.72 125.44 44.53 127.67 C 43.64 129.83 41.06 129.90 39.16 130.58 C 38.89 135.50 39.22 140.42 39.63 145.32 C 41.99 143.24 43.91 140.75 45.21 137.89 C 43.48 137.32 41.74 136.76 40.05 136.08 L 41.34 135.12 C 44.14 135.74 46.96 136.24 49.85 136.17 C 50.04 135.39 50.25 134.61 50.46 133.84 C 47.25 135.54 41.74 134.70 40.28 130.97 C 44.03 132.20 47.90 133.25 51.86 132.55 C 52.32 131.11 52.73 129.64 53.12 128.18 C 53.53 128.73 53.94 129.27 54.36 129.83 C 53.84 130.83 54.34 131.80 54.82 132.67 C 60.01 131.88 65.25 131.01 69.95 128.54 C 70.05 126.93 70.09 125.31 70.00 123.70 C 69.60 124.64 68.79 126.51 68.39 127.44 C 68.14 124.75 67.79 122.08 67.49 119.40 C 68.47 120.59 69.28 121.90 70.04 123.25 C 69.79 120.61 69.65 117.96 69.81 115.30 C 68.50 117.15 66.77 118.65 64.61 119.39 C 65.45 118.49 66.31 117.60 67.19 116.73 C 67.65 115.26 68.11 113.79 68.56 112.32 C 70.98 111.53 69.98 108.76 69.74 106.94 C 68.83 104.05 68.37 101.06 68.04 98.06 C 69.95 95.70 71.22 92.93 71.04 89.83 C 71.36 89.47 72.01 88.74 72.34 88.38 C 72.23 85.83 72.27 83.28 72.67 80.77 C 71.41 78.03 68.97 76.65 65.99 77.00 C 65.83 77.68 65.50 79.02 65.34 79.69 C 68.04 80.76 70.68 82.50 71.31 85.56 C 69.04 83.76 66.89 81.77 64.32 80.38 L 64.87 79.10 C 62.25 79.22 59.64 79.28 57.03 79.37 C 56.07 80.29 55.10 81.22 54.08 82.08 C 55.40 77.17 61.73 78.14 65.63 77.74 C 62.64 76.46 59.54 75.39 56.91 73.42 C 55.84 74.64 55.02 76.05 54.28 77.48 C 54.24 75.84 54.21 74.19 54.28 72.55 C 51.20 72.97 47.96 73.07 45.10 71.64 C 44.45 72.07 43.81 72.51 43.17 72.95 M 75.69 77.93 C 72.95 80.76 75.23 84.77 75.81 88.01 L 74.82 88.46 C 74.97 90.03 75.10 91.60 75.22 93.18 C 76.86 93.79 78.51 94.41 80.17 95.00 C 78.92 93.70 77.12 92.83 76.27 91.21 C 76.24 90.08 76.18 87.82 76.15 86.69 C 78.50 87.43 81.62 87.96 82.13 90.89 C 82.40 95.83 77.61 98.76 76.42 103.21 C 76.29 105.34 76.43 107.48 76.41 109.61 C 76.15 109.90 75.62 110.47 75.36 110.76 C 74.67 106.27 73.99 101.28 77.52 97.71 C 75.54 95.81 73.66 93.80 72.23 91.45 C 72.36 95.18 69.12 98.26 70.03 102.03 C 70.74 105.21 71.42 108.42 71.42 111.70 C 73.75 114.99 76.97 117.87 80.89 119.03 C 83.25 119.15 83.78 116.27 84.72 114.67 C 85.20 114.46 86.17 114.03 86.65 113.82 C 88.22 109.62 89.09 105.07 88.59 100.59 C 87.67 95.14 87.73 89.58 87.77 84.07 C 85.90 84.25 84.03 84.42 82.16 84.58 C 82.34 84.16 82.71 83.32 82.89 82.90 C 85.97 83.12 89.04 83.49 92.11 83.84 L 91.50 81.27 C 88.30 81.15 85.11 81.48 81.93 81.74 C 83.76 81.11 85.54 80.35 87.17 79.31 C 86.80 78.76 86.06 77.66 85.69 77.11 C 82.47 76.67 78.23 75.14 75.69 77.93 M 35.97 82.51 C 34.20 82.07 33.45 83.73 32.63 84.89 C 34.06 85.60 37.99 84.19 37.61 86.61 C 35.43 87.09 33.18 87.29 31.02 87.89 C 30.18 90.81 30.39 93.79 31.07 96.71 C 32.21 98.12 33.71 99.13 35.55 99.37 C 34.76 98.44 33.96 97.53 33.14 96.62 C 32.87 95.29 32.58 93.96 32.26 92.64 C 32.59 91.40 32.91 90.17 33.21 88.92 C 34.33 91.62 36.78 93.80 36.75 96.89 C 37.09 101.58 35.97 106.28 36.62 110.98 C 37.39 116.70 37.46 122.48 38.19 128.20 C 42.45 128.58 45.18 124.53 46.27 120.93 C 47.72 113.58 47.23 105.84 44.35 98.89 C 45.72 97.86 47.14 96.91 48.60 96.02 C 48.82 93.54 49.02 91.05 49.09 88.55 C 48.78 88.67 48.14 88.91 47.83 89.03 C 47.81 90.69 48.08 92.34 48.03 94.00 C 47.66 95.92 45.76 96.92 44.24 97.85 C 45.28 93.08 49.78 87.41 45.65 82.92 C 42.66 81.33 39.17 82.81 35.97 82.51 M 89.21 84.25 C 90.39 87.06 89.76 90.10 89.74 93.04 C 92.00 90.57 91.20 87.17 91.65 84.15 L 89.21 84.25 M 70.66 113.26 C 71.27 119.34 71.12 125.47 72.15 131.50 C 73.13 132.74 74.08 134.01 75.08 135.25 C 75.68 138.84 74.35 142.58 75.70 146.06 C 77.38 150.57 77.32 155.49 76.59 160.19 C 76.19 162.36 78.14 164.00 79.02 165.78 C 77.91 167.45 75.59 168.66 75.76 170.90 C 75.84 175.76 73.51 180.19 72.97 184.91 C 73.72 189.65 73.92 194.61 72.19 199.18 C 70.04 204.54 71.95 210.45 70.45 215.93 C 69.54 219.21 69.02 222.58 69.08 225.99 C 70.70 228.67 72.11 231.48 74.15 233.87 C 76.82 236.96 77.58 241.41 81.29 243.61 C 81.57 232.07 81.64 220.53 81.76 208.99 C 82.63 196.00 82.43 182.97 82.92 169.97 C 83.70 153.40 83.33 136.78 84.21 120.22 C 78.59 121.68 73.95 117.21 70.66 113.26 M 51.49 134.14 C 51.56 134.78 51.71 136.04 51.79 136.68 C 50.08 137.27 48.36 137.84 46.64 138.38 C 45.30 141.92 42.24 144.20 39.49 146.59 C 40.93 155.44 40.78 164.47 42.22 173.32 C 48.80 173.92 56.02 172.80 60.58 167.56 C 59.73 164.78 59.94 161.88 60.34 159.05 C 60.89 159.67 61.44 160.29 61.98 160.91 C 62.00 163.91 62.97 167.10 61.42 169.90 C 64.87 169.93 68.45 170.84 71.79 169.58 C 73.74 168.59 75.34 167.07 77.05 165.73 C 74.45 159.46 76.20 152.41 73.86 146.04 C 72.56 142.84 73.23 139.44 73.19 136.11 C 72.35 134.05 71.12 132.18 70.12 130.20 C 64.29 132.73 57.89 134.53 51.49 134.14 M 60.22 170.19 C 56.70 173.28 52.25 175.31 47.49 175.18 C 47.60 176.74 47.70 178.30 47.79 179.86 C 47.45 179.86 46.76 179.86 46.41 179.87 C 46.30 178.25 46.19 176.63 46.07 175.02 C 45.11 175.02 43.19 175.03 42.23 175.03 C 44.13 184.87 43.82 194.88 44.64 204.82 C 45.20 204.64 46.30 204.27 46.85 204.08 C 46.03 206.29 45.02 208.55 45.35 210.98 C 45.90 219.24 46.90 227.47 47.44 235.73 C 48.04 235.67 49.22 235.55 49.82 235.49 C 49.11 236.96 47.83 238.32 48.03 240.06 C 48.34 246.66 48.83 253.27 50.04 259.78 C 52.22 258.64 54.51 257.55 57.03 258.29 C 58.55 257.95 60.34 256.85 61.51 258.56 C 58.20 260.78 54.01 258.70 50.80 260.99 C 54.04 262.93 58.39 263.46 61.89 261.81 C 63.10 261.22 64.93 260.89 65.00 259.24 C 63.76 257.52 62.31 255.98 61.16 254.21 C 59.98 252.29 57.56 251.22 57.11 248.87 C 56.09 244.43 54.05 240.34 52.00 236.30 C 51.61 233.53 50.84 230.79 50.84 227.97 C 50.74 220.56 53.52 213.47 53.56 206.05 C 53.37 202.46 55.18 199.29 56.12 195.94 C 56.96 191.54 57.92 186.32 53.95 183.13 C 52.17 185.05 50.37 187.80 47.30 187.06 C 48.89 185.37 50.68 183.90 52.42 182.38 C 53.32 182.56 54.23 182.73 55.13 182.91 C 55.52 183.42 56.30 184.45 56.69 184.97 C 57.84 180.43 58.93 175.88 59.49 171.23 C 59.79 171.53 60.39 172.14 60.69 172.44 C 60.87 177.72 57.96 182.68 58.94 188.02 C 58.11 194.39 60.03 200.83 57.86 207.06 C 56.26 204.88 56.88 202.13 56.74 199.63 C 55.76 202.51 55.50 205.57 55.25 208.59 C 55.83 207.79 56.57 207.20 57.59 207.19 C 57.04 210.04 56.71 212.95 55.86 215.73 C 55.51 215.66 54.81 215.51 54.46 215.43 C 53.29 222.61 51.27 230.46 54.36 237.38 C 57.29 232.49 57.60 226.58 56.21 221.15 C 56.18 220.22 55.12 217.36 56.69 217.22 C 58.96 222.06 59.47 227.52 58.30 232.73 C 60.24 234.44 59.16 237.17 59.64 239.39 C 60.93 241.14 62.19 242.93 62.33 245.19 C 60.68 243.49 58.79 241.98 57.42 240.03 C 57.02 237.94 57.57 235.81 57.66 233.70 C 55.32 237.16 55.75 241.24 57.43 244.85 C 60.02 246.43 63.37 246.45 65.71 248.49 C 66.77 249.80 67.49 251.34 68.35 252.78 C 70.83 253.46 73.26 254.38 75.32 255.97 C 77.47 255.18 80.55 255.12 81.36 252.51 C 82.71 250.00 82.06 246.88 79.92 245.02 C 74.68 240.57 72.83 233.54 67.98 228.76 C 66.20 221.11 70.14 213.66 69.57 205.98 C 69.26 200.55 72.32 195.56 71.89 190.12 C 71.60 187.48 71.17 184.84 70.41 182.29 C 70.03 184.25 68.67 185.86 66.89 186.70 C 64.44 187.08 62.85 184.95 61.89 183.03 C 63.27 183.71 64.62 184.46 66.04 185.08 C 68.53 183.26 69.24 180.00 71.18 177.71 C 71.11 178.90 70.96 181.28 70.88 182.47 C 71.16 182.27 71.72 181.85 72.00 181.65 C 72.89 178.02 73.94 174.42 74.16 170.67 C 71.80 171.28 69.46 172.09 67.02 172.30 C 64.55 172.40 62.41 171.09 60.22 170.19 M 41.82 200.91 C 40.45 203.87 38.76 206.79 38.23 210.04 C 39.42 214.61 39.21 219.41 40.49 223.96 C 41.03 226.10 41.34 228.28 41.62 230.47 C 42.05 230.82 42.91 231.52 43.34 231.87 C 42.73 234.00 42.02 236.09 41.50 238.25 C 42.44 240.57 44.04 242.89 42.99 245.47 C 42.14 244.08 41.34 242.68 40.52 241.28 C 39.80 244.31 38.39 247.54 39.31 250.67 C 41.85 252.95 44.59 255.01 46.51 257.90 C 46.32 247.48 44.58 237.16 44.17 226.74 C 43.86 226.88 43.25 227.15 42.95 227.28 C 41.16 218.54 43.54 209.68 41.82 200.91 M 57.91 246.61 C 59.62 250.48 63.67 252.68 65.20 256.76 C 66.96 255.98 68.81 255.39 70.76 255.48 C 68.25 254.87 65.83 253.64 64.78 251.13 C 63.57 248.35 60.47 247.60 57.91 246.61 Z" />
<path fill="#333333" opacity="1.00" d=" M 63.77 101.03 C 63.81 99.30 66.53 100.09 66.72 101.38 C 66.68 103.13 63.97 102.31 63.77 101.03 Z" />
<path fill="#333333" opacity="1.00" d=" M 49.50 108.50 C 51.14 105.29 54.70 103.85 57.01 101.20 C 56.64 102.36 56.25 103.51 55.87 104.67 C 53.68 105.83 51.59 107.17 49.50 108.50 Z" />
<path fill="#333333" opacity="1.00" d=" M 59.81 101.58 C 63.10 101.78 64.30 104.88 63.12 107.70 C 64.29 107.49 66.64 107.07 67.81 106.86 C 66.58 108.61 64.34 108.04 62.55 108.35 C 63.77 111.88 64.06 115.59 63.54 119.28 C 62.06 119.43 60.59 119.59 59.12 119.75 C 57.21 120.99 54.69 122.42 52.63 120.65 C 53.42 120.57 55.01 120.41 55.80 120.32 C 56.88 119.59 57.96 118.87 59.05 118.15 C 59.89 118.29 61.59 118.56 62.43 118.70 C 63.09 115.57 62.49 112.49 60.90 109.75 C 59.58 109.67 58.26 109.58 56.94 109.48 C 55.68 110.81 54.40 112.13 52.95 113.27 C 53.86 111.43 54.75 109.50 56.28 108.09 C 58.09 107.87 59.92 107.96 61.74 107.92 C 61.83 106.69 61.91 105.47 61.99 104.25 C 61.25 103.37 60.52 102.48 59.81 101.58 Z" />
<path fill="#333333" opacity="1.00" d=" M 49.32 120.85 C 51.38 122.53 53.16 124.55 54.13 127.06 C 50.80 126.98 50.12 123.40 49.32 120.85 Z" />
<path fill="#333333" opacity="1.00" d=" M 63.36 123.18 C 64.95 123.90 62.67 127.24 61.22 126.66 C 60.78 125.26 62.06 123.63 63.36 123.18 Z" />
<path fill="#333333" opacity="1.00" d=" M 49.76 142.57 C 57.24 142.41 64.55 139.58 72.03 140.32 C 70.47 143.29 66.61 141.09 63.97 141.82 C 59.31 142.85 54.50 143.68 49.76 142.57 Z" />
<path fill="#333333" opacity="1.00" d=" M 52.15 149.17 C 56.81 145.62 62.88 144.95 68.37 143.34 C 66.08 146.27 61.89 146.22 58.69 147.65 C 60.96 147.65 63.57 146.97 65.41 148.72 C 60.96 149.41 56.50 147.49 52.15 149.17 Z" />
<path fill="#333333" opacity="1.00" d=" M 65.12 152.15 C 67.56 154.86 63.27 157.77 60.86 158.51 C 62.22 156.35 63.72 154.28 65.12 152.15 Z" />
<path fill="#333333" opacity="1.00" d=" M 47.99 200.25 C 47.19 197.61 45.76 192.96 48.83 191.54 L 47.69 192.19 C 47.78 193.36 47.87 194.54 47.97 195.71 L 49.03 195.12 C 48.77 196.77 50.63 199.88 47.99 200.25 Z" />
<path fill="#333333" opacity="1.00" d=" M 63.78 192.11 C 65.39 193.59 67.41 195.49 67.03 197.91 C 66.45 198.86 65.54 199.59 64.40 199.72 C 64.51 198.53 64.73 197.36 64.95 196.20 C 64.52 194.85 64.13 193.48 63.78 192.11 Z" />
<path fill="#333333" opacity="1.00" d=" M 66.04 208.99 C 66.24 206.98 66.93 205.06 68.05 203.39 C 67.38 210.60 65.73 217.78 66.51 225.07 L 65.22 224.00 C 64.31 219.00 65.38 213.94 66.04 208.99 Z" />
<path fill="#333333" opacity="1.00" d=" M 48.72 218.49 C 49.55 214.61 49.44 210.35 51.48 206.84 C 49.97 214.64 49.98 222.59 49.81 230.50 C 47.26 227.04 48.38 222.44 48.72 218.49 Z" />
<path fill="#333333" opacity="1.00" d=" M 62.87 208.77 C 63.68 212.40 63.30 217.05 60.42 219.68 C 60.98 215.99 61.76 212.33 62.87 208.77 Z" />
<path fill="#333333" opacity="1.00" d=" M 62.28 234.71 C 63.29 232.79 63.47 229.85 66.11 229.53 C 65.33 231.21 64.45 232.85 63.51 234.45 C 64.68 235.70 65.86 236.95 67.04 238.19 C 68.41 240.64 69.55 243.25 69.76 246.08 C 67.22 242.32 65.22 238.21 62.28 234.71 Z" />
<path fill="#333333" opacity="1.00" d=" M 77.50 250.65 C 78.41 249.29 79.31 247.72 81.25 248.09 C 80.49 249.31 79.69 250.50 78.86 251.67 C 78.69 252.27 78.34 253.47 78.17 254.06 C 77.08 253.37 75.98 252.68 74.89 251.99 C 75.76 251.54 76.63 251.10 77.50 250.65 Z" />
</g>
</svg>
