<?xml version="1.0" encoding="UTF-8" ?>
<!DOCTYPE svg PUBLIC "-//W3C//DTD SVG 1.1//EN" "http://www.w3.org/Graphics/SVG/1.1/DTD/svg11.dtd">
<svg width="273pt" height="280pt" viewBox="0 0 273 280" version="1.1" xmlns="http://www.w3.org/2000/svg">
<g id="#ffffffff">
<path fill="#FFFFFF" opacity="1.00" d=" M 0.00 0.00 L 273.00 0.00 L 273.00 280.00 L 0.00 280.00 L 0.00 0.00 M 197.78 63.40 C 193.86 62.31 189.10 63.22 186.46 66.50 C 182.65 70.96 181.23 76.86 179.80 82.41 C 180.23 82.20 181.08 81.78 181.51 81.57 C 182.60 76.81 183.87 71.90 186.94 67.99 C 188.66 65.78 191.33 64.76 193.67 63.39 C 196.36 65.28 199.48 66.76 201.44 69.50 C 203.81 72.92 205.15 76.96 205.90 81.03 C 207.38 89.69 206.82 99.02 202.89 106.99 C 200.99 110.66 197.48 114.59 192.92 113.97 C 188.65 113.59 185.97 109.59 184.19 106.09 C 184.29 111.00 187.93 115.79 193.00 116.21 C 197.62 116.72 201.43 113.17 203.51 109.40 C 208.02 100.90 209.05 90.82 207.37 81.42 C 206.40 75.44 204.69 68.62 199.41 64.97 C 199.80 63.45 201.12 62.81 202.58 62.64 L 202.05 63.48 C 210.08 66.89 212.70 76.14 213.45 84.07 C 214.08 92.58 213.13 101.90 207.97 108.99 C 205.94 112.05 201.89 112.46 199.59 115.21 C 204.12 115.80 207.96 112.59 210.19 108.98 C 213.73 102.75 215.15 95.49 215.07 88.37 C 218.43 88.06 221.70 87.15 225.06 86.93 C 226.47 84.57 226.22 81.81 224.28 79.83 C 221.17 80.90 217.91 81.49 214.79 82.54 C 213.85 76.35 212.42 69.68 207.93 65.02 C 205.62 62.27 202.09 61.54 198.66 61.86 C 198.44 62.25 198.00 63.02 197.78 63.40 M 183.70 87.97 C 175.31 88.50 167.18 90.66 158.97 92.23 C 156.21 92.87 155.01 88.57 152.13 89.65 C 147.98 90.75 143.13 90.34 139.70 93.31 C 140.05 94.68 140.58 96.01 141.79 96.84 C 134.50 97.97 127.38 100.00 120.05 100.88 C 118.92 99.73 117.79 98.58 116.66 97.43 C 112.37 97.40 107.79 97.59 104.06 99.98 C 103.36 101.33 103.15 103.13 101.83 104.05 C 98.50 105.47 94.90 106.05 91.39 106.83 C 90.40 107.28 89.46 106.70 88.56 106.38 C 89.13 104.57 89.30 102.69 89.40 100.82 C 91.33 97.50 93.76 93.56 98.03 93.26 C 102.82 93.34 107.03 96.36 111.88 96.01 C 107.46 94.12 102.89 92.10 98.02 91.88 C 94.71 91.63 92.29 94.23 89.92 96.11 C 89.78 97.17 89.64 98.23 89.51 99.30 L 87.99 99.46 C 87.54 101.73 87.46 104.06 87.21 106.36 L 88.52 106.47 C 88.29 106.92 87.85 107.81 87.62 108.26 C 83.55 109.02 79.15 109.15 75.48 111.24 C 73.67 112.17 69.36 111.18 69.70 114.07 C 72.14 114.46 74.45 113.30 76.61 112.33 C 80.58 111.21 84.79 110.94 88.63 109.35 C 94.38 107.86 100.29 107.04 106.00 105.39 C 106.00 106.27 106.00 108.02 105.99 108.90 C 94.00 111.10 82.22 114.23 70.44 117.34 C 70.02 117.86 69.18 118.90 68.77 119.41 C 68.47 113.99 67.97 108.38 65.45 103.47 C 63.42 98.61 60.43 93.44 54.89 92.16 C 53.47 92.66 52.04 93.13 50.62 93.63 C 57.53 92.96 62.21 99.67 64.66 105.30 C 68.13 115.06 68.14 126.09 64.87 135.91 C 62.78 141.04 59.30 146.56 53.38 147.57 C 53.37 144.96 56.02 143.30 56.92 140.97 C 60.54 133.26 61.52 124.40 60.22 116.02 C 60.19 107.60 56.33 99.33 49.64 94.19 C 46.43 92.75 42.38 93.79 39.58 95.71 C 32.74 101.66 30.92 111.18 30.38 119.81 C 29.96 121.16 28.33 120.99 27.25 121.24 C 25.91 123.32 25.80 126.58 28.02 128.03 C 33.73 126.49 39.65 125.86 45.39 124.46 C 47.80 122.49 46.72 119.15 44.46 117.59 C 40.33 119.10 35.93 119.62 31.67 120.65 C 32.02 110.59 34.84 98.34 45.22 94.18 C 53.90 97.71 58.15 107.11 58.95 115.94 C 59.71 125.31 59.18 135.65 53.25 143.41 C 51.47 145.63 49.18 148.18 46.08 148.06 C 40.90 148.58 37.64 143.51 35.31 139.64 C 33.06 136.21 33.91 131.32 30.89 128.42 C 31.50 135.99 34.25 143.86 40.29 148.79 C 43.59 151.40 48.10 150.58 51.57 148.80 L 50.53 147.62 C 51.79 147.97 53.02 148.43 53.85 149.50 C 57.45 149.41 60.40 147.10 62.27 144.19 C 67.66 137.28 68.72 128.18 68.93 119.70 C 70.94 119.27 72.98 118.96 74.91 118.23 C 79.46 116.21 84.58 116.20 89.17 114.28 C 89.77 115.07 90.38 115.86 90.98 116.66 C 89.30 118.40 87.84 120.33 86.20 122.11 C 85.25 127.82 87.87 133.15 89.47 138.47 C 91.03 143.67 94.80 147.75 98.92 151.11 C 102.96 154.26 108.37 154.17 113.01 155.96 C 115.19 156.86 116.70 154.54 118.20 153.39 C 118.29 151.28 118.26 149.10 119.10 147.12 C 121.09 142.26 121.81 136.79 120.43 131.66 C 120.81 131.26 121.58 130.46 121.96 130.06 C 120.97 126.95 121.09 123.71 120.91 120.50 C 120.37 122.12 119.87 123.76 119.41 125.41 C 119.46 120.87 118.46 116.45 117.53 112.04 C 120.22 112.21 123.89 112.78 124.79 109.44 C 123.05 110.16 121.33 110.94 119.65 111.77 C 118.83 110.32 118.67 108.79 120.17 107.68 C 123.81 107.37 127.48 107.33 131.09 106.77 C 133.40 106.24 135.21 108.05 136.93 109.25 C 138.65 109.43 140.33 109.85 141.99 110.35 C 143.37 113.04 144.02 115.98 143.99 119.00 C 143.59 118.79 142.79 118.36 142.40 118.14 C 142.43 119.67 142.47 121.21 142.51 122.75 C 140.25 122.45 137.85 122.60 136.48 124.69 C 138.43 124.30 140.41 123.96 142.41 123.87 C 144.33 127.20 146.17 130.81 149.47 132.99 C 149.50 129.12 146.77 126.16 144.11 123.71 C 144.08 122.71 144.01 120.73 143.98 119.73 C 145.40 125.36 150.48 128.84 152.81 133.99 C 148.82 134.35 144.95 135.41 141.41 137.32 C 139.30 138.55 136.21 138.23 134.81 140.46 C 133.51 139.27 133.58 137.95 134.83 136.69 C 133.54 137.09 132.25 137.50 130.96 137.91 C 127.75 137.28 125.02 135.40 121.87 134.63 C 122.86 135.72 124.11 136.50 125.45 137.12 C 127.96 138.57 130.74 139.58 133.71 139.22 C 133.46 139.86 132.96 141.16 132.71 141.81 C 128.75 144.75 125.16 148.46 124.15 153.48 C 122.84 151.33 121.11 149.47 118.76 148.47 C 119.64 152.42 122.62 155.87 126.68 156.66 C 126.44 157.98 125.99 159.22 125.32 160.38 C 125.41 159.58 125.59 157.97 125.68 157.16 C 125.00 156.93 123.64 156.48 122.97 156.26 C 123.23 157.15 123.75 158.93 124.01 159.83 C 121.88 158.23 119.74 156.27 116.82 156.86 C 118.60 158.52 120.47 160.09 122.39 161.60 C 118.52 162.70 114.81 164.28 111.03 165.62 C 111.10 162.66 111.19 159.70 111.25 156.74 C 110.86 156.88 110.09 157.14 109.70 157.27 C 109.34 160.70 109.41 164.17 109.50 167.61 C 114.50 166.55 119.16 164.41 124.01 162.84 C 124.66 163.48 125.31 164.13 125.96 164.77 C 125.96 166.13 125.97 167.50 125.99 168.86 C 112.68 174.03 99.20 178.77 85.96 184.09 C 85.54 183.68 84.70 182.86 84.27 182.45 C 84.33 180.75 84.38 179.06 84.44 177.37 C 90.70 175.01 96.86 172.37 103.15 170.07 C 103.15 166.71 103.23 163.35 103.24 159.99 C 103.13 158.76 103.50 157.17 102.10 156.47 C 101.82 160.65 101.90 164.84 101.87 169.02 C 95.56 171.36 89.28 173.76 83.04 176.29 C 82.94 178.75 82.91 181.22 82.92 183.70 C 83.93 184.41 84.94 185.14 85.95 185.86 C 99.29 180.43 112.92 175.77 126.34 170.53 C 127.28 173.62 128.21 176.76 127.96 180.04 C 127.49 181.80 128.95 182.88 129.93 184.06 C 130.61 184.07 131.96 184.09 132.64 184.10 C 135.03 188.66 137.44 193.75 136.10 199.01 C 136.31 207.05 131.72 214.09 130.92 221.97 C 131.42 228.77 134.17 235.17 134.90 241.93 C 135.52 246.99 132.69 252.10 135.39 256.87 C 134.67 259.63 135.99 262.10 137.18 264.49 C 138.58 267.00 137.32 270.44 139.56 272.55 C 143.85 276.68 151.42 277.93 156.28 274.16 C 157.87 273.83 160.15 273.96 160.59 271.96 C 161.35 267.49 157.28 264.35 154.78 261.25 C 152.85 258.11 150.98 254.93 148.99 251.84 C 146.60 246.82 146.89 241.12 147.12 235.72 C 151.05 234.54 154.90 233.14 158.66 231.50 C 167.04 228.22 175.62 225.48 183.93 222.04 C 184.35 219.77 184.80 217.51 185.16 215.25 C 182.98 214.39 180.90 213.14 178.58 212.70 C 172.22 214.40 166.06 216.80 159.77 218.75 C 159.98 209.26 160.05 199.77 160.16 190.27 C 168.39 188.34 176.58 186.18 184.56 183.38 C 187.50 182.58 188.37 178.61 186.43 176.42 C 188.79 176.94 190.16 179.57 192.51 180.35 C 194.17 181.08 197.19 181.38 196.67 183.92 C 195.48 188.87 195.33 193.94 194.98 198.99 C 196.52 204.00 200.16 208.20 200.66 213.54 C 202.39 221.78 196.95 229.44 198.54 237.72 C 201.31 239.72 204.74 240.54 208.10 239.65 C 212.15 238.53 215.76 240.96 219.04 242.97 C 221.41 242.65 223.76 243.11 226.12 243.31 C 228.70 242.79 231.05 241.45 233.33 240.17 C 234.41 239.18 235.77 237.40 234.21 236.15 C 232.68 233.64 229.95 232.54 227.09 232.72 C 224.18 230.66 221.31 228.48 219.22 225.56 C 217.58 223.17 214.09 222.24 213.59 219.15 C 211.68 211.56 212.59 203.65 211.86 195.94 C 210.34 189.06 210.71 181.89 212.11 175.05 C 211.52 170.57 209.94 165.66 206.15 162.84 C 204.07 161.47 201.43 161.19 199.52 159.53 C 197.65 157.99 195.85 156.37 193.93 154.90 C 192.57 154.96 191.22 155.03 189.87 155.11 C 193.01 156.44 195.73 158.47 198.26 160.73 C 200.84 163.06 204.77 163.25 207.01 166.05 C 208.51 168.21 208.87 170.96 210.48 173.08 C 210.98 176.49 209.14 179.66 209.35 183.05 C 209.53 186.42 208.41 189.79 209.22 193.15 C 210.41 198.33 210.50 203.68 210.15 208.97 C 209.89 213.00 211.22 216.87 211.71 220.82 C 214.45 223.59 217.51 226.07 219.72 229.31 C 222.16 232.95 226.31 235.19 230.68 235.35 C 231.52 236.37 232.35 237.41 233.17 238.46 C 230.99 239.32 229.04 240.64 226.94 241.68 C 224.58 241.33 222.27 240.44 219.85 240.88 C 217.89 239.95 216.00 238.84 213.94 238.14 C 210.33 237.42 206.67 238.72 203.06 238.14 C 201.44 238.24 199.95 236.75 200.38 235.10 C 200.59 231.97 200.63 228.79 201.39 225.74 C 203.24 221.75 202.24 217.19 202.38 212.94 C 202.62 207.84 198.15 204.15 198.10 199.12 C 196.85 193.71 197.51 188.19 197.38 182.70 C 198.85 182.63 200.03 182.05 200.91 180.96 C 198.63 180.19 196.24 179.71 194.07 178.66 C 191.61 177.25 189.69 174.97 186.97 174.01 C 183.49 172.38 179.58 172.87 175.87 172.83 C 172.98 172.50 170.28 171.26 167.75 169.89 C 169.77 165.10 168.24 159.05 172.13 155.12 C 173.51 153.01 175.71 151.77 178.00 150.87 C 178.01 149.48 178.02 148.10 178.05 146.72 C 175.09 146.09 172.09 145.54 169.06 145.61 C 169.03 145.02 168.97 143.83 168.94 143.24 C 166.07 139.76 162.58 136.12 157.58 136.86 C 158.53 135.04 159.60 133.20 159.79 131.11 C 160.70 122.37 155.40 114.72 154.21 106.25 C 155.75 104.04 157.05 101.68 158.29 99.29 C 166.49 97.89 174.60 95.80 182.93 95.18 C 187.50 95.01 191.69 92.93 196.15 92.12 C 196.21 89.73 196.51 87.00 194.38 85.36 C 190.95 86.65 187.40 87.86 183.70 87.97 M 126.55 110.31 C 128.92 110.05 132.20 111.19 133.99 109.33 C 131.47 108.89 128.81 109.04 126.55 110.31 M 135.19 110.17 C 136.05 113.41 140.87 113.82 143.34 115.61 L 142.48 113.44 C 140.19 112.25 137.85 109.87 135.19 110.17 M 128.67 112.92 C 126.62 115.22 124.42 117.36 122.40 119.67 C 124.78 118.03 129.93 116.62 128.67 112.92 M 131.15 113.07 C 132.78 115.32 136.03 115.83 138.42 114.53 C 136.03 113.88 133.61 113.33 131.15 113.07 M 133.39 117.50 C 133.73 119.87 133.97 122.24 134.02 124.64 C 132.10 125.03 129.77 124.73 128.30 126.27 C 126.59 127.98 125.47 130.15 124.25 132.21 C 126.81 131.65 127.83 129.08 129.22 127.14 C 131.22 126.90 133.21 126.59 135.19 126.19 C 135.89 123.54 135.46 120.84 134.89 118.21 C 134.52 118.04 133.76 117.68 133.39 117.50 M 135.75 126.79 C 136.59 128.66 137.73 130.38 139.25 131.77 C 138.98 129.68 138.45 126.82 135.75 126.79 M 198.16 164.82 C 199.16 167.31 200.19 169.78 201.00 172.33 C 199.86 173.56 199.02 175.55 197.03 175.42 C 193.87 174.52 191.68 171.89 188.98 170.17 C 190.52 173.66 193.87 176.62 197.86 176.49 C 200.00 176.59 201.18 174.46 202.67 173.28 C 202.02 170.15 201.34 166.36 198.16 164.82 M 206.15 232.60 C 205.49 229.67 205.01 226.71 204.65 223.74 C 203.01 226.77 203.57 230.30 206.15 232.60 Z" />
<path fill="#FFFFFF" opacity="1.00" d=" M 215.00 83.48 C 218.02 83.25 220.98 82.59 223.93 81.93 C 223.95 82.71 223.98 84.28 224.00 85.06 C 220.98 85.89 217.72 86.04 215.00 87.72 C 215.00 86.66 215.00 84.54 215.00 83.48 Z" />
<path fill="#FFFFFF" opacity="1.00" d=" M 182.27 89.75 C 186.43 90.55 190.26 88.04 194.33 87.58 C 194.25 88.39 194.09 90.02 194.01 90.83 C 186.20 93.37 177.84 93.27 169.87 95.09 C 165.92 95.98 161.94 96.74 158.00 97.68 C 158.00 96.84 158.00 95.17 158.00 94.33 C 166.07 92.66 174.12 90.96 182.27 89.75 Z" />
<path fill="#FFFFFF" opacity="1.00" d=" M 143.92 93.07 C 146.94 92.76 149.90 92.04 152.85 91.34 C 154.21 93.14 156.22 94.64 156.83 96.89 C 156.56 99.87 154.72 102.43 153.05 104.82 C 151.03 104.54 148.74 104.87 147.77 106.92 C 149.40 106.88 150.84 106.17 152.21 105.35 C 153.52 111.71 155.71 117.84 157.63 124.03 C 158.26 128.16 157.85 132.37 157.31 136.49 C 156.68 136.10 155.42 135.33 154.79 134.94 C 154.77 128.90 148.37 125.96 146.27 120.83 C 145.73 117.84 145.45 114.81 144.77 111.85 C 146.70 108.87 143.90 105.80 142.26 103.46 C 143.71 102.40 145.13 101.30 146.53 100.18 C 146.15 99.20 145.78 98.22 145.41 97.25 C 143.96 96.50 142.52 95.76 141.20 94.82 C 141.07 93.30 142.86 93.26 143.92 93.07 M 147.91 115.22 C 148.84 117.74 151.16 119.29 153.02 121.09 C 150.83 117.91 149.16 114.41 147.88 110.77 C 147.84 112.25 147.66 113.75 147.91 115.22 Z" />
<path fill="#FFFFFF" opacity="1.00" d=" M 132.15 100.57 C 136.51 99.63 140.98 98.99 145.06 97.09 C 144.09 98.51 143.96 101.12 141.91 101.50 C 134.75 103.43 127.23 103.97 120.28 106.63 C 120.37 105.58 120.54 103.48 120.63 102.43 C 124.54 102.38 128.33 101.29 132.15 100.57 Z" />
<path fill="#FFFFFF" opacity="1.00" d=" M 106.27 100.31 C 109.45 99.52 112.63 98.68 115.90 98.37 C 117.24 99.97 118.57 101.57 119.88 103.19 C 118.27 106.33 116.30 109.43 115.69 112.96 C 116.79 123.20 121.16 133.55 118.75 143.89 C 117.13 147.18 116.27 150.73 116.22 154.41 C 111.50 153.14 105.86 153.70 102.39 149.68 C 98.73 149.58 96.81 145.92 94.34 143.75 C 91.32 141.37 91.75 137.29 90.97 133.92 C 89.77 131.31 87.01 129.18 87.46 126.02 C 87.66 120.74 92.26 116.53 97.26 115.58 L 96.03 115.01 C 97.33 115.02 98.63 115.04 99.94 115.06 L 99.62 115.45 C 101.11 117.79 100.83 120.67 101.40 123.28 C 101.76 120.09 101.87 116.84 101.28 113.66 C 98.48 113.96 95.49 113.81 93.10 115.58 C 92.83 115.24 92.27 114.54 92.00 114.20 C 94.59 113.18 97.28 112.24 100.09 112.08 C 101.89 112.32 103.39 113.49 104.98 114.28 C 105.54 119.10 105.75 123.95 106.13 128.78 C 104.87 127.43 103.38 126.34 101.79 125.42 C 101.14 126.12 100.49 126.83 99.84 127.54 C 100.63 127.70 102.20 128.03 102.99 128.19 C 103.70 129.13 104.44 130.06 105.05 131.08 C 104.65 132.37 104.06 133.59 103.54 134.84 C 101.87 133.85 99.96 133.60 98.07 133.51 C 99.31 134.41 100.63 135.23 101.82 136.21 C 101.54 139.05 101.39 141.90 101.93 144.72 C 104.78 143.88 102.43 140.50 103.55 138.56 C 105.44 134.95 107.33 131.22 107.85 127.12 C 107.48 123.10 107.00 119.08 107.13 115.03 C 106.38 114.12 105.63 113.22 104.89 112.31 C 103.60 112.11 102.31 111.90 101.03 111.67 C 102.63 111.40 104.24 111.15 105.86 110.91 C 106.88 109.24 107.42 107.37 107.69 105.45 C 106.52 104.72 105.36 104.01 104.17 103.32 C 104.87 102.32 105.57 101.31 106.27 100.31 M 114.95 135.05 C 114.96 138.84 113.33 142.33 112.40 145.94 C 117.36 141.31 116.06 133.91 116.53 127.83 C 115.87 130.20 114.95 132.55 114.95 135.05 M 108.11 140.58 C 108.08 142.70 108.20 144.82 108.33 146.94 C 109.24 148.22 110.07 149.54 110.77 150.95 C 109.73 147.53 111.03 143.24 108.11 140.58 M 95.16 142.85 L 95.86 144.65 C 96.27 144.30 97.07 143.60 97.47 143.25 C 99.50 145.22 100.84 148.38 103.82 149.05 C 103.70 147.96 103.57 146.87 103.43 145.78 C 101.78 144.85 100.16 143.87 98.58 142.82 C 97.73 142.83 96.01 142.84 95.16 142.85 Z" />
<path fill="#FFFFFF" opacity="1.00" d=" M 133.96 105.10 C 136.36 104.55 138.78 104.03 141.19 103.48 C 141.83 105.79 142.98 107.89 143.96 110.06 C 142.42 108.95 140.88 107.85 139.37 106.70 C 138.90 106.64 137.96 106.51 137.49 106.45 L 137.71 108.75 C 136.47 107.52 135.22 106.30 133.96 105.10 Z" />
<path fill="#FFFFFF" opacity="1.00" d=" M 32.36 121.96 C 36.50 121.48 40.55 120.52 44.67 119.95 C 44.66 120.62 44.63 121.95 44.62 122.62 C 40.14 123.85 35.56 124.63 31.04 125.70 C 30.56 124.61 30.48 121.82 32.36 121.96 Z" />
<path fill="#FFFFFF" opacity="1.00" d=" M 28.25 123.27 C 29.80 122.73 29.81 126.08 28.25 125.53 C 28.25 124.97 28.25 123.84 28.25 123.27 Z" />
<path fill="#FFFFFF" opacity="1.00" d=" M 137.17 140.14 C 141.70 139.71 145.65 137.23 150.10 136.48 C 152.21 135.90 154.03 137.32 155.94 137.96 C 158.06 138.76 160.48 138.54 162.55 139.49 C 164.39 141.08 165.55 143.46 167.93 144.39 C 166.47 144.92 164.94 145.12 163.40 145.00 C 163.12 144.47 162.57 143.41 162.29 142.88 C 161.27 142.80 160.26 142.72 159.24 142.65 C 162.56 149.40 171.44 146.30 177.29 148.30 C 173.76 150.33 170.68 153.04 168.60 156.57 C 165.89 160.81 167.44 166.32 165.43 170.91 C 164.62 167.85 161.84 166.28 159.09 165.25 C 156.78 165.83 154.45 166.31 152.10 166.63 C 152.25 168.13 152.39 169.64 152.51 171.15 C 151.02 169.76 149.55 168.35 148.05 166.98 C 143.78 166.26 139.15 165.88 135.16 167.92 C 132.31 169.23 131.27 172.38 129.62 174.80 C 127.97 170.07 127.40 165.02 127.77 160.04 C 128.41 156.18 131.27 153.29 133.18 150.07 C 132.99 149.62 132.62 148.71 132.43 148.25 C 136.12 147.41 141.35 147.02 142.62 142.66 C 139.79 143.28 137.62 145.34 134.90 146.21 C 133.52 146.80 131.81 147.04 131.08 148.53 C 130.46 148.88 129.21 149.58 128.59 149.93 C 128.89 150.29 129.48 151.02 129.77 151.39 C 128.97 153.37 128.22 155.39 127.34 157.34 C 127.34 155.71 127.44 154.09 127.55 152.47 L 126.32 152.81 C 127.47 146.93 132.99 143.74 137.17 140.14 M 138.98 152.37 C 141.31 153.00 143.19 151.25 144.99 150.07 C 149.08 147.18 153.96 145.78 158.27 143.27 C 150.75 143.02 144.61 148.04 138.98 152.37 M 143.65 152.74 C 146.26 152.13 148.73 151.11 151.17 150.03 C 153.90 148.72 157.55 149.50 159.55 146.80 C 153.95 147.81 148.13 148.98 143.65 152.74 M 160.15 156.19 C 160.85 153.55 161.81 151.00 163.20 148.65 C 160.22 150.03 159.92 153.29 160.15 156.19 M 135.88 158.10 C 139.62 158.29 143.64 158.01 146.57 155.38 C 142.86 155.61 139.25 156.55 135.88 158.10 Z" />
<path fill="#FFFFFF" opacity="1.00" d=" M 154.35 169.96 C 155.80 169.12 157.26 168.29 158.72 167.48 C 161.44 169.38 163.67 175.14 167.62 172.00 C 171.87 174.81 177.17 176.43 182.23 175.25 C 183.49 176.28 185.13 177.13 185.48 178.88 C 185.28 181.67 181.99 181.44 180.07 182.37 C 172.62 185.14 164.86 186.91 157.12 188.63 C 157.96 183.39 156.42 178.19 154.00 173.58 C 154.11 172.37 154.23 171.16 154.35 169.96 Z" />
<path fill="#FFFFFF" opacity="1.00" d=" M 136.50 169.55 C 140.24 168.51 144.22 168.99 148.02 169.50 C 151.04 172.73 153.32 176.93 154.71 181.16 C 155.23 185.58 155.90 190.40 153.89 194.55 C 154.14 192.03 154.30 189.50 154.28 186.97 C 152.68 185.46 150.99 184.04 149.00 183.08 C 150.10 185.33 152.79 186.83 152.71 189.56 C 152.83 191.22 152.24 192.87 152.61 194.53 C 153.51 198.01 150.26 200.65 149.89 203.98 C 149.02 209.71 144.49 214.09 143.94 219.92 C 143.83 222.55 142.91 225.54 144.64 227.84 C 145.63 222.47 145.19 216.69 148.49 211.99 C 148.63 214.67 148.92 217.37 148.83 220.06 C 148.76 224.60 145.63 228.35 145.20 232.82 C 144.69 238.23 144.63 243.80 146.19 249.06 C 147.09 252.97 149.83 256.03 151.66 259.52 C 153.62 263.45 157.60 265.96 159.27 270.10 C 160.24 272.03 157.16 272.27 155.97 272.01 C 155.45 271.08 154.99 270.14 154.57 269.17 C 154.18 268.87 153.42 268.27 153.03 267.97 C 149.78 269.19 146.32 268.42 143.02 269.09 C 143.03 269.39 143.05 270.00 143.05 270.30 C 145.79 270.67 148.57 271.01 151.29 270.30 C 152.87 269.55 154.00 270.79 154.57 272.17 C 151.36 275.64 145.42 274.90 142.26 271.72 C 140.21 270.15 140.70 267.24 139.87 265.06 C 138.36 261.02 136.80 256.98 135.79 252.77 C 135.87 249.22 137.12 245.72 136.48 242.15 C 136.04 235.29 132.71 228.94 132.65 222.04 C 132.93 216.97 134.69 212.13 136.67 207.52 C 138.37 210.25 138.41 213.98 141.03 216.08 C 139.68 209.06 136.30 202.09 138.03 194.84 C 137.16 191.41 137.36 187.67 135.63 184.50 C 134.25 181.86 132.38 179.52 130.72 177.05 C 132.36 174.39 133.75 171.26 136.50 169.55 M 141.84 188.33 C 144.76 187.72 146.97 185.39 148.12 182.74 C 145.72 184.21 143.67 186.20 141.84 188.33 M 144.79 199.83 C 145.09 200.44 145.69 201.68 145.99 202.29 C 147.24 201.80 148.56 201.37 149.44 200.29 C 147.89 200.10 146.34 199.94 144.79 199.83 M 138.16 253.95 C 141.76 253.02 142.45 248.75 144.05 245.89 C 140.48 247.00 139.78 251.05 138.16 253.95 Z" />
<path fill="#FFFFFF" opacity="1.00" d=" M 129.00 180.05 C 130.54 179.76 131.13 180.42 130.77 182.03 C 129.18 182.35 128.59 181.70 129.00 180.05 Z" />
<path fill="#FFFFFF" opacity="1.00" d=" M 156.55 191.23 C 157.22 191.00 157.90 190.77 158.58 190.55 C 158.42 200.72 157.60 210.90 158.05 221.08 C 165.03 219.21 171.79 216.64 178.68 214.50 C 180.16 215.14 181.65 215.79 183.15 216.43 C 182.87 217.74 182.70 219.08 182.25 220.35 C 176.35 223.45 169.88 225.22 163.71 227.68 C 157.99 229.56 152.53 232.11 146.83 234.02 C 147.83 229.28 150.82 225.01 150.64 220.03 C 150.83 215.19 149.62 210.17 151.39 205.49 C 153.00 200.70 154.61 195.90 156.55 191.23 Z" />
</g>
<g id="#393a39ff">
<path fill="#333333" opacity="1.00" d=" M 197.78 63.40 C 198.00 63.02 198.44 62.25 198.66 61.86 C 202.09 61.54 205.62 62.27 207.93 65.02 C 212.42 69.68 213.85 76.35 214.79 82.54 C 217.91 81.49 221.17 80.90 224.28 79.83 C 226.22 81.81 226.47 84.57 225.06 86.93 C 221.70 87.15 218.43 88.06 215.07 88.37 C 215.15 95.49 213.73 102.75 210.19 108.98 C 207.96 112.59 204.12 115.80 199.59 115.21 C 201.89 112.46 205.94 112.05 207.97 108.99 C 213.13 101.90 214.08 92.58 213.45 84.07 C 212.70 76.14 210.08 66.89 202.05 63.48 L 202.58 62.64 C 201.12 62.81 199.80 63.45 199.41 64.97 C 204.69 68.62 206.40 75.44 207.37 81.42 C 209.05 90.82 208.02 100.90 203.51 109.40 C 201.43 113.17 197.62 116.72 193.00 116.21 C 187.93 115.79 184.29 111.00 184.19 106.09 C 185.97 109.59 188.65 113.59 192.92 113.97 C 197.48 114.59 200.99 110.66 202.89 106.99 C 206.82 99.02 207.38 89.69 205.90 81.03 C 205.15 76.96 203.81 72.92 201.44 69.50 C 199.48 66.76 196.36 65.28 193.67 63.39 C 191.33 64.76 188.66 65.78 186.94 67.99 C 183.87 71.90 182.60 76.81 181.51 81.57 C 181.08 81.78 180.23 82.20 179.80 82.41 C 181.23 76.86 182.65 70.96 186.46 66.50 C 189.10 63.22 193.86 62.31 197.78 63.40 M 215.00 83.48 C 215.00 84.54 215.00 86.66 215.00 87.72 C 217.72 86.04 220.98 85.89 224.00 85.06 C 223.98 84.28 223.95 82.71 223.93 81.93 C 220.98 82.59 218.02 83.25 215.00 83.48 Z" />
<path fill="#333333" opacity="1.00" d=" M 183.70 87.97 C 187.40 87.86 190.95 86.65 194.38 85.36 C 196.51 87.00 196.21 89.73 196.15 92.12 C 191.69 92.93 187.50 95.01 182.93 95.18 C 174.60 95.80 166.49 97.89 158.29 99.29 C 157.05 101.68 155.75 104.04 154.21 106.25 C 155.40 114.72 160.70 122.37 159.79 131.11 C 159.60 133.20 158.53 135.04 157.58 136.86 C 162.58 136.12 166.07 139.76 168.94 143.24 C 168.97 143.83 169.03 145.02 169.06 145.61 C 172.09 145.54 175.09 146.09 178.05 146.72 C 178.02 148.10 178.01 149.48 178.00 150.87 C 175.71 151.77 173.51 153.01 172.13 155.12 C 168.24 159.05 169.77 165.10 167.75 169.89 C 170.28 171.26 172.98 172.50 175.87 172.83 C 179.58 172.87 183.49 172.38 186.97 174.01 C 189.69 174.97 191.61 177.25 194.07 178.66 C 196.24 179.71 198.63 180.19 200.91 180.96 C 200.03 182.05 198.85 182.63 197.38 182.70 C 197.51 188.19 196.85 193.71 198.10 199.12 C 198.15 204.15 202.62 207.84 202.38 212.94 C 202.24 217.19 203.24 221.75 201.39 225.74 C 200.63 228.79 200.59 231.97 200.38 235.10 C 199.95 236.75 201.44 238.24 203.06 238.14 C 206.67 238.72 210.33 237.42 213.94 238.14 C 216.00 238.84 217.89 239.95 219.85 240.88 C 222.27 240.44 224.58 241.33 226.94 241.68 C 229.04 240.64 230.99 239.32 233.17 238.46 C 232.35 237.41 231.52 236.37 230.68 235.35 C 226.31 235.19 222.16 232.95 219.72 229.31 C 217.51 226.07 214.45 223.59 211.71 220.82 C 211.22 216.87 209.89 213.00 210.15 208.97 C 210.50 203.68 210.41 198.33 209.22 193.15 C 208.41 189.79 209.53 186.42 209.35 183.05 C 209.14 179.66 210.98 176.49 210.48 173.08 C 208.87 170.96 208.51 168.21 207.01 166.05 C 204.77 163.25 200.84 163.06 198.26 160.73 C 195.73 158.47 193.01 156.44 189.87 155.11 C 191.22 155.03 192.57 154.96 193.93 154.90 C 195.85 156.37 197.65 157.99 199.52 159.53 C 201.43 161.19 204.07 161.47 206.15 162.84 C 209.94 165.66 211.52 170.57 212.11 175.05 C 210.71 181.89 210.34 189.06 211.86 195.94 C 212.59 203.65 211.68 211.56 213.59 219.15 C 214.09 222.24 217.58 223.17 219.22 225.56 C 221.31 228.48 224.18 230.66 227.09 232.72 C 229.95 232.54 232.68 233.64 234.21 236.15 C 235.77 237.40 234.41 239.18 233.33 240.17 C 231.05 241.45 228.70 242.79 226.12 243.31 C 223.76 243.11 221.41 242.65 219.04 242.97 C 215.76 240.96 212.15 238.53 208.10 239.65 C 204.74 240.54 201.31 239.72 198.54 237.72 C 196.95 229.44 202.39 221.78 200.66 213.54 C 200.16 208.20 196.52 204.00 194.98 198.99 C 195.33 193.94 195.48 188.87 196.67 183.92 C 197.19 181.38 194.17 181.08 192.51 180.35 C 190.16 179.57 188.79 176.94 186.43 176.42 C 188.37 178.61 187.50 182.58 184.56 183.38 C 176.58 186.18 168.39 188.34 160.16 190.27 C 160.05 199.77 159.98 209.26 159.77 218.75 C 166.06 216.80 172.22 214.40 178.58 212.70 C 180.90 213.14 182.98 214.39 185.16 215.25 C 184.80 217.51 184.35 219.77 183.93 222.04 C 175.62 225.48 167.04 228.22 158.66 231.50 C 154.90 233.14 151.05 234.54 147.12 235.72 C 146.89 241.12 146.60 246.82 148.99 251.84 C 150.98 254.93 152.85 258.11 154.78 261.25 C 157.28 264.35 161.35 267.49 160.59 271.96 C 160.15 273.96 157.87 273.83 156.28 274.16 C 151.42 277.93 143.85 276.68 139.56 272.55 C 137.32 270.44 138.58 267.00 137.18 264.49 C 135.99 262.10 134.67 259.63 135.39 256.87 C 132.69 252.10 135.52 246.99 134.90 241.93 C 134.17 235.17 131.42 228.77 130.92 221.97 C 131.72 214.09 136.31 207.05 136.10 199.01 C 137.44 193.75 135.03 188.66 132.64 184.10 C 131.96 184.09 130.61 184.07 129.93 184.06 C 128.95 182.88 127.49 181.80 127.96 180.04 C 128.21 176.76 127.28 173.62 126.34 170.53 C 112.92 175.77 99.29 180.43 85.95 185.86 C 84.94 185.14 83.93 184.41 82.92 183.70 C 82.91 181.22 82.94 178.75 83.04 176.29 C 89.28 173.76 95.56 171.36 101.87 169.02 C 101.90 164.84 101.82 160.65 102.10 156.47 C 103.50 157.17 103.13 158.76 103.24 159.99 C 103.23 163.35 103.15 166.71 103.15 170.07 C 96.86 172.37 90.70 175.01 84.44 177.37 C 84.38 179.06 84.33 180.75 84.27 182.45 C 84.70 182.86 85.54 183.68 85.96 184.09 C 99.20 178.77 112.68 174.03 125.99 168.86 C 125.97 167.50 125.96 166.13 125.96 164.77 C 125.31 164.13 124.66 163.48 124.01 162.84 C 119.16 164.41 114.50 166.55 109.50 167.61 C 109.41 164.17 109.34 160.70 109.70 157.27 C 110.09 157.14 110.86 156.88 111.25 156.74 C 111.19 159.70 111.10 162.66 111.03 165.62 C 114.81 164.28 118.52 162.70 122.39 161.60 C 120.47 160.09 118.60 158.52 116.82 156.86 C 119.74 156.27 121.88 158.23 124.01 159.83 C 123.75 158.93 123.23 157.15 122.97 156.26 C 123.64 156.48 125.00 156.93 125.68 157.16 C 125.59 157.97 125.41 159.58 125.32 160.38 C 125.99 159.22 126.44 157.98 126.68 156.66 C 122.62 155.87 119.64 152.42 118.76 148.47 C 121.11 149.47 122.84 151.33 124.15 153.48 C 125.16 148.46 128.75 144.75 132.71 141.81 C 132.96 141.16 133.46 139.86 133.71 139.22 C 130.74 139.58 127.96 138.57 125.45 137.12 C 124.11 136.50 122.86 135.72 121.87 134.63 C 125.02 135.40 127.75 137.28 130.96 137.91 C 132.25 137.50 133.54 137.09 134.83 136.69 C 133.58 137.95 133.51 139.27 134.81 140.46 C 136.21 138.23 139.30 138.55 141.41 137.32 C 144.95 135.41 148.82 134.35 152.81 133.99 C 150.48 128.84 145.40 125.36 143.98 119.73 C 144.01 120.73 144.08 122.71 144.11 123.71 C 146.77 126.16 149.50 129.12 149.47 132.99 C 146.17 130.81 144.33 127.20 142.41 123.87 C 140.41 123.96 138.43 124.30 136.48 124.69 C 137.85 122.60 140.25 122.45 142.51 122.75 C 142.47 121.21 142.43 119.67 142.40 118.14 C 142.79 118.36 143.59 118.79 143.99 119.00 C 144.02 115.98 143.37 113.04 141.99 110.35 C 140.33 109.85 138.65 109.43 136.93 109.25 C 135.21 108.05 133.40 106.24 131.09 106.77 C 127.48 107.33 123.81 107.37 120.17 107.68 C 118.67 108.79 118.83 110.32 119.65 111.77 C 121.33 110.94 123.05 110.16 124.79 109.44 C 123.89 112.78 120.22 112.21 117.53 112.04 C 118.46 116.45 119.46 120.87 119.41 125.41 C 119.87 123.76 120.37 122.12 120.91 120.50 C 121.09 123.71 120.97 126.95 121.96 130.06 C 121.58 130.46 120.81 131.26 120.43 131.66 C 121.81 136.79 121.09 142.26 119.10 147.12 C 118.26 149.10 118.29 151.28 118.20 153.39 C 116.70 154.54 115.19 156.86 113.01 155.96 C 108.37 154.17 102.96 154.26 98.92 151.11 C 94.80 147.75 91.03 143.67 89.47 138.47 C 87.87 133.15 85.25 127.82 86.20 122.11 C 87.84 120.33 89.30 118.40 90.98 116.66 C 90.38 115.86 89.77 115.07 89.17 114.28 C 84.58 116.20 79.46 116.21 74.91 118.23 C 72.98 118.96 70.94 119.27 68.93 119.70 C 68.72 128.18 67.66 137.28 62.27 144.19 C 60.40 147.10 57.45 149.41 53.85 149.50 C 53.02 148.43 51.79 147.97 50.53 147.62 L 51.57 148.80 C 48.10 150.58 43.59 151.40 40.29 148.79 C 34.25 143.86 31.50 135.99 30.89 128.42 C 33.91 131.32 33.06 136.21 35.31 139.64 C 37.64 143.51 40.90 148.58 46.08 148.06 C 49.18 148.18 51.47 145.63 53.25 143.41 C 59.18 135.65 59.71 125.31 58.95 115.94 C 58.15 107.11 53.90 97.71 45.22 94.18 C 34.84 98.34 32.02 110.59 31.67 120.65 C 35.93 119.62 40.33 119.10 44.46 117.59 C 46.72 119.15 47.80 122.49 45.39 124.46 C 39.65 125.86 33.73 126.49 28.02 128.03 C 25.80 126.58 25.91 123.32 27.25 121.24 C 28.33 120.99 29.96 121.16 30.38 119.81 C 30.92 111.18 32.74 101.66 39.58 95.71 C 42.38 93.79 46.43 92.75 49.64 94.19 C 56.33 99.33 60.19 107.60 60.22 116.02 C 61.52 124.40 60.54 133.26 56.92 140.97 C 56.02 143.30 53.37 144.96 53.38 147.57 C 59.30 146.56 62.78 141.04 64.87 135.91 C 68.14 126.09 68.13 115.06 64.66 105.30 C 62.21 99.67 57.53 92.96 50.62 93.63 C 52.04 93.13 53.47 92.66 54.89 92.16 C 60.43 93.44 63.42 98.61 65.45 103.47 C 67.97 108.38 68.47 113.99 68.77 119.41 C 69.18 118.90 70.02 117.86 70.44 117.34 C 82.22 114.23 94.00 111.10 105.99 108.90 C 106.00 108.02 106.00 106.27 106.00 105.39 C 100.29 107.04 94.38 107.86 88.63 109.35 C 84.79 110.94 80.58 111.21 76.61 112.33 C 74.45 113.30 72.14 114.46 69.70 114.07 C 69.36 111.18 73.67 112.17 75.48 111.24 C 79.15 109.15 83.55 109.02 87.62 108.26 C 87.85 107.81 88.29 106.92 88.52 106.47 L 87.21 106.36 C 87.46 104.06 87.54 101.73 87.99 99.46 L 89.51 99.30 C 89.64 98.23 89.78 97.17 89.92 96.11 C 92.29 94.23 94.71 91.63 98.02 91.88 C 102.89 92.10 107.46 94.12 111.88 96.01 C 107.03 96.36 102.82 93.34 98.03 93.26 C 93.76 93.56 91.33 97.50 89.40 100.82 C 89.30 102.69 89.13 104.57 88.56 106.38 C 89.46 106.70 90.40 107.28 91.39 106.83 C 94.90 106.05 98.50 105.47 101.83 104.05 C 103.15 103.13 103.36 101.33 104.06 99.98 C 107.79 97.59 112.37 97.40 116.66 97.43 C 117.79 98.58 118.92 99.73 120.05 100.88 C 127.38 100.00 134.50 97.97 141.79 96.84 C 140.58 96.01 140.05 94.68 139.70 93.31 C 143.13 90.34 147.98 90.75 152.13 89.65 C 155.01 88.57 156.21 92.87 158.97 92.23 C 167.18 90.66 175.31 88.50 183.70 87.97 M 182.27 89.75 C 174.12 90.96 166.07 92.66 158.00 94.33 C 158.00 95.17 158.00 96.84 158.00 97.68 C 161.94 96.74 165.92 95.98 169.87 95.09 C 177.84 93.27 186.20 93.37 194.01 90.83 C 194.09 90.02 194.25 88.39 194.33 87.58 C 190.26 88.04 186.43 90.55 182.27 89.75 M 143.92 93.07 C 142.86 93.26 141.07 93.30 141.20 94.82 C 142.52 95.76 143.96 96.50 145.41 97.25 C 145.78 98.22 146.15 99.20 146.53 100.18 C 145.13 101.30 143.71 102.40 142.26 103.46 C 143.90 105.80 146.70 108.87 144.77 111.85 C 145.45 114.81 145.73 117.84 146.27 120.83 C 148.37 125.96 154.77 128.90 154.79 134.94 C 155.42 135.33 156.68 136.10 157.31 136.49 C 157.85 132.37 158.26 128.16 157.63 124.03 C 155.71 117.84 153.52 111.71 152.21 105.35 C 150.84 106.17 149.40 106.88 147.77 106.92 C 148.74 104.87 151.03 104.54 153.05 104.82 C 154.72 102.43 156.56 99.87 156.83 96.89 C 156.22 94.64 154.21 93.14 152.85 91.34 C 149.90 92.04 146.94 92.76 143.92 93.07 M 132.15 100.57 C 128.33 101.29 124.54 102.38 120.63 102.43 C 120.54 103.48 120.37 105.58 120.28 106.63 C 127.23 103.97 134.75 103.43 141.91 101.50 C 143.96 101.12 144.09 98.51 145.06 97.09 C 140.98 98.99 136.51 99.63 132.15 100.57 M 106.27 100.31 C 105.57 101.31 104.87 102.32 104.17 103.32 C 105.36 104.01 106.52 104.72 107.69 105.45 C 107.42 107.37 106.88 109.24 105.86 110.91 C 104.24 111.15 102.63 111.40 101.03 111.67 C 102.31 111.90 103.60 112.11 104.89 112.31 C 105.63 113.22 106.38 114.12 107.13 115.03 C 107.00 119.08 107.48 123.10 107.85 127.12 C 107.33 131.22 105.44 134.95 103.55 138.56 C 102.43 140.50 104.78 143.88 101.93 144.72 C 101.39 141.90 101.54 139.05 101.82 136.21 C 100.63 135.23 99.31 134.41 98.07 133.51 C 99.96 133.60 101.87 133.85 103.54 134.84 C 104.06 133.59 104.65 132.37 105.05 131.08 C 104.44 130.06 103.70 129.13 102.99 128.19 C 102.20 128.03 100.63 127.70 99.84 127.54 C 100.49 126.83 101.14 126.12 101.79 125.42 C 103.38 126.34 104.87 127.43 106.13 128.78 C 105.75 123.95 105.54 119.10 104.98 114.28 C 103.39 113.49 101.89 112.32 100.09 112.08 C 97.28 112.24 94.59 113.18 92.00 114.20 C 92.27 114.54 92.83 115.24 93.10 115.58 C 95.49 113.81 98.48 113.96 101.28 113.66 C 101.87 116.84 101.76 120.09 101.40 123.28 C 100.83 120.67 101.11 117.79 99.62 115.45 L 99.94 115.06 C 98.63 115.04 97.33 115.02 96.03 115.01 L 97.26 115.58 C 92.26 116.53 87.66 120.74 87.46 126.02 C 87.01 129.18 89.77 131.31 90.97 133.92 C 91.75 137.29 91.32 141.37 94.34 143.75 C 96.81 145.92 98.73 149.58 102.39 149.68 C 105.86 153.70 111.50 153.14 116.22 154.41 C 116.27 150.73 117.13 147.18 118.75 143.89 C 121.16 133.55 116.79 123.20 115.69 112.96 C 116.30 109.43 118.27 106.33 119.88 103.19 C 118.57 101.57 117.24 99.97 115.90 98.37 C 112.63 98.68 109.45 99.52 106.27 100.31 M 133.96 105.10 C 135.22 106.30 136.47 107.52 137.71 108.75 L 137.49 106.45 C 137.96 106.51 138.90 106.64 139.37 106.70 C 140.88 107.85 142.42 108.95 143.96 110.06 C 142.98 107.89 141.83 105.79 141.19 103.48 C 138.78 104.03 136.36 104.55 133.96 105.10 M 32.36 121.96 C 30.48 121.82 30.56 124.61 31.04 125.70 C 35.56 124.63 40.14 123.85 44.62 122.62 C 44.63 121.95 44.66 120.62 44.67 119.95 C 40.55 120.52 36.50 121.48 32.36 121.96 M 28.25 123.27 C 28.25 123.84 28.25 124.97 28.25 125.53 C 29.81 126.08 29.80 122.73 28.25 123.27 M 137.17 140.14 C 132.99 143.74 127.47 146.93 126.32 152.81 L 127.55 152.47 C 127.44 154.09 127.34 155.71 127.34 157.34 C 128.22 155.39 128.97 153.37 129.77 151.39 C 129.48 151.02 128.89 150.29 128.59 149.93 C 129.21 149.58 130.46 148.88 131.08 148.53 C 131.81 147.04 133.52 146.80 134.90 146.21 C 137.62 145.34 139.79 143.28 142.62 142.66 C 141.35 147.02 136.12 147.41 132.43 148.25 C 132.62 148.71 132.99 149.62 133.18 150.07 C 131.27 153.29 128.41 156.18 127.77 160.04 C 127.40 165.02 127.97 170.07 129.62 174.80 C 131.27 172.38 132.31 169.23 135.16 167.92 C 139.15 165.88 143.78 166.26 148.05 166.98 C 149.55 168.35 151.02 169.76 152.51 171.15 C 152.39 169.64 152.25 168.13 152.10 166.63 C 154.45 166.31 156.78 165.83 159.09 165.25 C 161.84 166.28 164.62 167.85 165.43 170.91 C 167.44 166.32 165.89 160.81 168.60 156.57 C 170.68 153.04 173.76 150.33 177.29 148.30 C 171.44 146.30 162.56 149.40 159.24 142.65 C 160.26 142.72 161.27 142.80 162.29 142.88 C 162.57 143.41 163.12 144.47 163.40 145.00 C 164.94 145.12 166.47 144.92 167.93 144.39 C 165.55 143.46 164.39 141.08 162.55 139.49 C 160.48 138.54 158.06 138.76 155.94 137.96 C 154.03 137.32 152.21 135.90 150.10 136.48 C 145.65 137.23 141.70 139.71 137.17 140.14 M 154.35 169.96 C 154.23 171.16 154.11 172.37 154.00 173.58 C 156.42 178.19 157.96 183.39 157.12 188.63 C 164.86 186.91 172.62 185.14 180.07 182.37 C 181.99 181.44 185.28 181.67 185.48 178.88 C 185.13 177.13 183.49 176.28 182.23 175.25 C 177.17 176.43 171.87 174.81 167.62 172.00 C 163.67 175.14 161.44 169.38 158.72 167.48 C 157.26 168.29 155.80 169.12 154.35 169.96 M 136.50 169.55 C 133.75 171.26 132.36 174.39 130.72 177.05 C 132.38 179.52 134.25 181.86 135.63 184.50 C 137.36 187.67 137.16 191.41 138.03 194.84 C 136.30 202.09 139.68 209.06 141.03 216.08 C 138.41 213.98 138.37 210.25 136.67 207.52 C 134.69 212.13 132.93 216.97 132.65 222.04 C 132.71 228.94 136.04 235.29 136.48 242.15 C 137.12 245.72 135.87 249.22 135.79 252.77 C 136.80 256.98 138.36 261.02 139.87 265.06 C 140.70 267.24 140.21 270.15 142.26 271.72 C 145.42 274.90 151.36 275.64 154.57 272.17 C 154.00 270.79 152.87 269.55 151.29 270.30 C 148.57 271.01 145.79 270.67 143.05 270.30 C 143.05 270.00 143.03 269.39 143.02 269.09 C 146.32 268.42 149.78 269.19 153.03 267.97 C 153.42 268.27 154.18 268.87 154.57 269.17 C 154.99 270.14 155.45 271.08 155.97 272.01 C 157.16 272.27 160.24 272.03 159.27 270.10 C 157.60 265.96 153.62 263.45 151.66 259.52 C 149.83 256.03 147.09 252.97 146.19 249.06 C 144.63 243.80 144.69 238.23 145.20 232.82 C 145.63 228.35 148.76 224.60 148.83 220.06 C 148.92 217.37 148.63 214.67 148.49 211.99 C 145.19 216.69 145.63 222.47 144.64 227.84 C 142.91 225.54 143.83 222.55 143.94 219.92 C 144.49 214.09 149.02 209.71 149.89 203.98 C 150.26 200.65 153.51 198.01 152.61 194.53 C 152.24 192.87 152.83 191.22 152.71 189.56 C 152.79 186.83 150.10 185.33 149.00 183.08 C 150.99 184.04 152.68 185.46 154.28 186.97 C 154.30 189.50 154.14 192.03 153.89 194.55 C 155.90 190.40 155.23 185.58 154.71 181.16 C 153.32 176.93 151.04 172.73 148.02 169.50 C 144.22 168.99 140.24 168.51 136.50 169.55 M 129.00 180.05 C 128.59 181.70 129.18 182.35 130.77 182.03 C 131.13 180.42 130.54 179.76 129.00 180.05 M 156.55 191.23 C 154.61 195.90 153.00 200.70 151.39 205.49 C 149.62 210.17 150.83 215.19 150.64 220.03 C 150.82 225.01 147.83 229.28 146.83 234.02 C 152.53 232.11 157.99 229.56 163.71 227.68 C 169.88 225.22 176.35 223.45 182.25 220.35 C 182.70 219.08 182.87 217.74 183.15 216.43 C 181.65 215.79 180.16 215.14 178.68 214.50 C 171.79 216.64 165.03 219.21 158.05 221.08 C 157.60 210.90 158.42 200.72 158.58 190.55 C 157.90 190.77 157.22 191.00 156.55 191.23 Z" />
<path fill="#333333" opacity="1.00" d=" M 126.55 110.31 C 128.81 109.04 131.47 108.89 133.99 109.33 C 132.20 111.19 128.92 110.05 126.55 110.31 Z" />
<path fill="#333333" opacity="1.00" d=" M 135.19 110.17 C 137.85 109.87 140.19 112.25 142.48 113.44 L 143.34 115.61 C 140.87 113.82 136.05 113.41 135.19 110.17 Z" />
<path fill="#333333" opacity="1.00" d=" M 147.91 115.22 C 147.66 113.75 147.84 112.25 147.88 110.77 C 149.16 114.41 150.83 117.91 153.02 121.09 C 151.16 119.29 148.84 117.74 147.91 115.22 Z" />
<path fill="#333333" opacity="1.00" d=" M 128.67 112.92 C 129.93 116.62 124.78 118.03 122.40 119.67 C 124.42 117.36 126.62 115.22 128.67 112.92 Z" />
<path fill="#333333" opacity="1.00" d=" M 131.15 113.07 C 133.61 113.33 136.03 113.88 138.42 114.53 C 136.03 115.83 132.78 115.32 131.15 113.07 Z" />
<path fill="#333333" opacity="1.00" d=" M 133.39 117.50 C 133.76 117.68 134.52 118.04 134.89 118.21 C 135.46 120.84 135.89 123.54 135.19 126.19 C 133.21 126.59 131.22 126.90 129.22 127.14 C 127.83 129.08 126.81 131.65 124.25 132.21 C 125.47 130.15 126.59 127.98 128.30 126.27 C 129.77 124.73 132.10 125.03 134.02 124.64 C 133.97 122.24 133.73 119.87 133.39 117.50 Z" />
<path fill="#333333" opacity="1.00" d=" M 135.75 126.79 C 138.45 126.82 138.98 129.68 139.25 131.77 C 137.73 130.38 136.59 128.66 135.75 126.79 Z" />
<path fill="#333333" opacity="1.00" d=" M 114.95 135.05 C 114.95 132.55 115.87 130.20 116.53 127.83 C 116.06 133.91 117.36 141.31 112.40 145.94 C 113.33 142.33 114.96 138.84 114.95 135.05 Z" />
<path fill="#333333" opacity="1.00" d=" M 108.11 140.58 C 111.03 143.24 109.73 147.53 110.77 150.95 C 110.07 149.54 109.24 148.22 108.33 146.94 C 108.20 144.82 108.08 142.70 108.11 140.58 Z" />
<path fill="#333333" opacity="1.00" d=" M 95.16 142.85 C 96.01 142.84 97.73 142.83 98.58 142.82 C 100.16 143.87 101.78 144.85 103.43 145.78 C 103.57 146.87 103.70 147.96 103.82 149.05 C 100.84 148.38 99.50 145.22 97.47 143.25 C 97.07 143.60 96.27 144.30 95.86 144.65 L 95.16 142.85 Z" />
<path fill="#333333" opacity="1.00" d=" M 138.98 152.37 C 144.61 148.04 150.75 143.02 158.27 143.27 C 153.96 145.78 149.08 147.18 144.99 150.07 C 143.19 151.25 141.31 153.00 138.98 152.37 Z" />
<path fill="#333333" opacity="1.00" d=" M 143.65 152.74 C 148.13 148.98 153.95 147.81 159.55 146.80 C 157.55 149.50 153.90 148.72 151.17 150.03 C 148.73 151.11 146.26 152.13 143.65 152.74 Z" />
<path fill="#333333" opacity="1.00" d=" M 160.15 156.19 C 159.92 153.29 160.22 150.03 163.20 148.65 C 161.81 151.00 160.85 153.55 160.15 156.19 Z" />
<path fill="#333333" opacity="1.00" d=" M 135.88 158.10 C 139.25 156.55 142.86 155.61 146.57 155.38 C 143.64 158.01 139.62 158.29 135.88 158.10 Z" />
<path fill="#333333" opacity="1.00" d=" M 198.16 164.82 C 201.34 166.36 202.02 170.15 202.67 173.28 C 201.18 174.46 200.00 176.59 197.86 176.49 C 193.87 176.62 190.52 173.66 188.98 170.17 C 191.68 171.89 193.87 174.52 197.03 175.42 C 199.02 175.55 199.86 173.56 201.00 172.33 C 200.19 169.78 199.16 167.31 198.16 164.82 Z" />
<path fill="#333333" opacity="1.00" d=" M 141.84 188.33 C 143.67 186.20 145.72 184.21 148.12 182.74 C 146.97 185.39 144.76 187.72 141.84 188.33 Z" />
<path fill="#333333" opacity="1.00" d=" M 144.79 199.83 C 146.34 199.94 147.89 200.10 149.44 200.29 C 148.56 201.37 147.24 201.80 145.99 202.29 C 145.69 201.68 145.09 200.44 144.79 199.83 Z" />
<path fill="#333333" opacity="1.00" d=" M 206.15 232.60 C 203.57 230.30 203.01 226.77 204.65 223.74 C 205.01 226.71 205.49 229.67 206.15 232.60 Z" />
<path fill="#333333" opacity="1.00" d=" M 138.16 253.95 C 139.78 251.05 140.48 247.00 144.05 245.89 C 142.45 248.75 141.76 253.02 138.16 253.95 Z" />
</g>
</svg>
