<?xml version="1.0" encoding="UTF-8" ?>
<!DOCTYPE svg PUBLIC "-//W3C//DTD SVG 1.1//EN" "http://www.w3.org/Graphics/SVG/1.1/DTD/svg11.dtd">
<svg width="167pt" height="250pt" viewBox="0 0 167 250" version="1.1" xmlns="http://www.w3.org/2000/svg">
<g id="#ffffffff">
<path fill="#FFFFFF" opacity="1.00" d=" M 0.00 0.00 L 167.00 0.00 L 167.00 250.00 L 0.00 250.00 L 0.00 0.00 M 72.24 62.59 C 69.90 65.64 66.82 68.78 66.89 72.90 C 66.63 79.71 66.69 87.66 72.03 92.71 C 68.90 93.68 65.98 95.19 63.46 97.29 C 60.06 100.26 54.73 100.19 52.17 104.25 C 49.75 107.76 50.63 112.19 51.45 116.06 C 51.82 113.13 51.91 110.16 52.34 107.24 C 52.89 104.57 55.69 103.43 57.93 102.50 C 60.63 101.37 65.18 100.65 65.47 104.71 C 66.71 105.01 67.33 104.55 67.31 103.31 C 68.17 101.38 65.80 100.34 64.96 98.93 C 67.80 97.53 70.77 96.39 73.51 94.79 C 74.25 97.19 74.91 99.61 75.70 102.00 C 73.34 101.20 70.87 101.06 68.50 101.83 C 71.47 102.93 74.44 104.01 77.41 105.10 C 77.96 100.98 77.32 96.91 75.60 93.12 C 77.76 92.87 80.24 93.53 82.14 92.17 C 85.15 90.24 87.34 86.34 85.91 82.79 C 84.62 85.82 83.35 89.57 79.88 90.71 C 77.18 92.02 73.50 91.65 71.72 89.03 C 68.93 83.94 68.28 77.97 69.12 72.28 C 70.16 67.56 73.70 62.72 79.01 62.84 C 82.34 63.13 86.68 63.46 88.32 66.91 C 90.16 70.68 88.44 74.92 88.45 78.89 C 87.72 83.63 88.81 88.34 88.97 93.07 C 90.29 93.12 91.60 93.02 92.89 92.76 C 92.53 92.41 91.80 91.70 91.44 91.35 C 90.74 88.28 90.27 85.17 89.54 82.11 C 90.69 78.53 90.76 74.72 91.21 71.01 C 91.58 67.62 89.91 63.82 86.70 62.38 C 81.97 61.00 76.89 60.76 72.24 62.59 M 94.26 93.52 C 96.83 94.31 98.87 96.07 100.44 98.23 C 98.15 98.58 96.62 100.26 94.93 101.62 C 91.57 100.44 88.04 101.31 84.64 101.79 C 84.77 102.06 85.03 102.61 85.16 102.88 C 90.53 105.09 95.43 101.14 100.50 100.02 L 100.66 98.91 C 106.06 100.70 112.49 103.57 113.52 109.86 C 113.79 115.92 115.22 121.87 115.19 127.94 C 114.38 133.36 111.95 138.51 112.16 144.08 C 112.30 146.87 110.97 149.40 109.70 151.78 C 110.09 152.45 110.49 153.12 110.89 153.79 C 112.02 150.22 114.45 146.93 114.16 143.03 C 114.05 136.53 117.99 130.58 117.20 124.03 C 116.77 118.96 115.82 113.94 114.98 108.92 C 114.52 105.42 111.61 103.10 109.42 100.61 C 107.75 99.85 106.08 99.09 104.47 98.19 C 102.02 96.83 100.51 94.22 97.95 93.02 C 96.85 93.11 94.89 92.36 94.26 93.52 M 77.94 107.53 C 79.87 106.98 83.06 106.79 83.21 104.12 L 83.21 103.33 C 81.12 104.25 79.04 105.42 77.94 107.53 M 61.65 110.96 C 60.06 114.70 60.62 118.72 63.14 121.87 C 62.68 127.29 64.98 132.50 64.54 137.92 C 64.15 140.41 63.50 142.87 62.99 145.34 C 65.76 144.43 66.18 147.44 67.15 149.16 C 69.45 153.61 69.46 158.73 70.65 163.49 C 73.71 168.41 79.17 172.57 78.86 178.92 C 81.88 176.82 84.78 174.48 88.27 173.18 C 85.58 170.44 90.58 169.18 91.49 166.91 C 93.46 161.95 96.39 157.35 97.48 152.08 C 98.16 149.60 98.52 147.01 99.51 144.63 C 100.79 142.28 102.46 140.16 103.66 137.76 C 102.53 138.40 101.40 139.06 100.29 139.74 C 99.85 137.46 99.33 135.20 98.70 132.97 C 99.88 127.39 100.21 121.61 102.62 116.36 C 101.83 116.80 101.04 117.25 100.26 117.70 C 99.51 116.65 98.74 115.62 97.95 114.61 C 98.37 116.12 98.84 117.61 99.35 119.09 C 99.16 119.76 98.78 121.09 98.59 121.76 C 96.17 122.70 93.68 123.77 91.05 123.82 C 88.09 123.29 85.15 122.58 82.30 121.65 C 81.11 119.75 80.98 117.17 78.80 116.02 C 78.44 118.98 79.54 121.67 80.94 124.19 C 86.71 124.87 92.59 126.47 98.32 124.62 C 98.22 126.34 98.13 128.06 98.06 129.79 C 95.87 130.11 93.65 130.25 91.51 130.81 C 93.24 131.43 95.06 131.69 96.83 132.18 C 99.10 133.84 95.76 135.82 95.00 137.54 C 96.03 137.04 97.06 136.54 98.09 136.04 C 98.98 139.66 98.65 143.32 97.18 146.74 C 96.52 142.03 93.53 138.52 90.74 134.92 C 90.64 136.11 90.54 137.30 90.44 138.49 C 92.04 139.78 93.62 141.09 95.24 142.35 C 94.59 143.20 93.94 144.05 93.29 144.90 C 93.74 145.06 94.64 145.39 95.09 145.55 C 87.19 148.07 78.47 148.30 70.71 145.12 C 70.66 141.93 69.84 138.86 69.08 135.79 C 66.56 140.81 69.30 147.71 74.76 149.29 C 82.08 151.62 89.68 149.66 96.68 147.22 C 94.70 153.56 92.51 159.85 90.00 166.00 C 87.24 169.25 84.74 172.89 81.17 175.33 C 79.62 173.43 78.08 171.51 76.73 169.46 C 80.17 169.21 83.60 168.58 87.06 168.81 C 87.20 168.09 87.48 166.66 87.62 165.94 C 83.71 165.29 79.22 164.90 76.45 168.33 C 75.24 166.31 73.74 164.47 72.53 162.45 C 71.47 158.60 71.51 154.51 70.27 150.71 C 68.86 147.74 67.11 144.93 65.36 142.15 C 66.32 139.62 66.95 136.99 67.02 134.28 C 67.73 133.00 68.42 131.71 69.04 130.38 C 68.12 130.86 66.28 131.82 65.36 132.31 C 65.19 129.69 65.02 127.07 64.89 124.45 C 65.43 124.78 66.50 125.44 67.04 125.77 C 70.31 125.11 73.64 124.80 76.96 124.41 C 78.11 124.28 78.63 122.99 79.48 122.36 C 75.63 121.91 71.78 122.62 67.93 122.35 C 65.18 121.30 63.69 118.38 62.45 115.88 C 62.53 114.04 63.40 112.34 63.80 110.56 C 63.08 110.66 62.36 110.79 61.65 110.96 M 52.17 135.98 C 54.49 139.86 53.37 144.65 54.57 148.88 C 52.63 148.70 50.69 148.49 48.77 148.15 C 46.00 151.74 41.42 153.02 38.26 156.18 C 35.61 158.86 31.90 160.74 30.44 164.40 C 28.86 168.26 30.28 172.36 31.36 176.14 C 31.81 181.60 33.93 186.68 35.10 192.00 C 36.08 195.82 38.39 199.07 40.08 202.59 C 41.54 206.36 42.46 210.30 43.55 214.19 C 42.99 215.35 42.78 216.74 41.88 217.71 C 38.87 220.46 36.11 223.50 32.72 225.81 C 31.23 226.75 31.03 228.68 30.30 230.13 C 35.54 225.81 40.77 221.43 45.53 216.58 C 44.86 210.79 43.76 204.85 41.39 199.50 C 36.88 192.77 34.88 184.79 33.68 176.87 C 33.17 173.54 30.94 170.52 31.67 167.02 C 31.52 162.98 36.16 161.93 38.43 159.45 C 41.92 155.64 46.75 153.65 51.56 152.09 C 55.42 155.25 56.80 160.18 58.56 164.63 C 61.82 167.87 65.69 170.68 67.88 174.85 C 67.30 177.16 65.51 178.90 64.75 181.13 C 64.20 182.67 65.28 184.11 65.73 185.52 C 66.41 185.04 67.78 184.09 68.46 183.62 L 67.77 186.83 C 67.24 186.74 66.17 186.56 65.64 186.47 C 66.13 189.10 66.78 191.95 68.90 193.78 C 71.63 195.95 75.22 196.32 78.56 196.62 C 78.45 199.82 78.49 203.02 78.59 206.23 C 74.82 206.81 70.71 207.37 67.73 209.98 C 67.26 212.91 67.02 216.07 67.99 218.92 C 72.04 223.32 78.60 223.77 84.22 223.33 L 83.95 222.53 L 84.98 223.40 L 84.88 223.61 C 87.88 223.04 91.09 222.49 93.52 220.50 C 96.07 218.90 95.11 215.50 95.34 212.98 C 95.63 207.43 88.32 206.88 84.24 206.74 C 84.38 203.46 84.35 200.17 84.21 196.89 C 87.57 196.30 91.01 195.68 94.04 194.04 C 96.37 192.46 97.38 189.65 99.18 187.58 C 98.05 184.36 96.89 181.15 95.64 177.98 C 96.75 176.04 97.80 174.06 98.88 172.10 C 100.91 174.13 102.82 176.35 105.41 177.71 C 105.80 177.15 106.57 176.01 106.96 175.45 C 103.90 174.94 102.13 172.29 99.78 170.59 C 100.68 169.15 101.57 167.72 102.45 166.27 C 102.92 168.58 103.49 170.86 104.05 173.15 C 105.08 173.72 106.11 174.28 107.13 174.88 C 108.63 176.68 111.28 175.60 112.97 177.10 C 115.30 178.72 118.14 179.23 120.86 179.82 C 122.00 183.05 122.98 186.36 123.40 189.77 C 124.17 189.68 124.93 189.55 125.69 189.39 C 125.43 186.67 124.65 184.05 123.77 181.48 C 124.51 181.34 125.98 181.05 126.72 180.91 C 123.75 176.05 117.29 178.00 113.16 174.85 C 110.22 172.70 105.02 172.50 104.61 168.03 C 105.22 164.21 107.68 160.94 110.29 158.20 C 112.15 155.95 115.35 156.11 117.93 155.44 C 120.27 156.89 122.75 158.11 124.94 159.78 C 127.68 162.17 129.32 165.57 132.25 167.78 C 134.53 169.51 136.67 171.86 136.61 174.92 C 136.97 182.35 137.23 189.79 139.55 196.93 C 139.78 204.88 138.99 212.94 139.61 220.91 C 140.72 223.79 142.63 226.27 144.16 228.93 C 146.17 232.54 149.97 234.94 151.16 239.04 C 149.62 240.71 147.83 242.14 146.11 243.62 C 143.94 243.32 141.65 243.23 139.72 242.09 C 137.03 240.91 135.86 238.02 133.73 236.18 C 132.17 234.48 130.05 233.15 129.08 231.01 C 128.91 227.25 130.18 223.64 130.53 219.93 C 130.40 216.54 129.56 213.20 128.92 209.88 C 128.31 206.74 125.67 204.33 125.57 201.07 C 125.31 197.21 125.27 193.10 123.03 189.76 C 122.66 195.54 121.62 201.86 124.68 207.14 C 127.20 211.33 128.32 216.20 128.53 221.05 C 128.72 224.15 127.08 226.98 126.94 230.05 C 127.35 233.37 130.54 235.02 133.30 236.16 C 133.54 242.90 141.38 247.66 147.55 245.43 C 150.32 243.48 152.42 240.76 154.51 238.13 C 153.52 236.02 152.80 233.65 150.94 232.11 C 146.91 228.51 143.60 224.00 141.68 218.95 C 141.26 211.97 142.04 204.98 141.86 198.00 C 141.82 193.18 139.69 188.71 139.34 183.93 C 138.95 180.47 139.38 176.99 139.08 173.54 C 138.25 169.36 133.74 167.70 131.67 164.31 C 129.62 161.12 127.08 158.18 123.57 156.56 C 123.09 155.15 122.60 153.74 122.09 152.34 C 119.32 151.79 116.52 151.34 113.72 150.93 C 114.45 151.48 115.91 152.57 116.64 153.12 C 114.64 153.39 112.65 153.77 110.72 154.36 C 110.08 154.12 109.45 153.88 108.82 153.65 C 104.59 161.64 99.28 169.00 93.92 176.26 C 92.38 175.61 90.83 174.97 89.26 174.39 C 93.69 177.38 94.79 182.70 96.92 187.25 C 95.28 189.33 93.79 191.57 91.87 193.41 C 91.03 189.60 90.85 185.68 89.76 181.92 C 87.63 181.00 85.43 179.55 82.99 180.08 C 80.68 180.54 78.37 181.02 76.02 181.25 C 76.20 180.51 76.55 179.05 76.72 178.31 C 73.19 179.94 69.64 181.57 66.44 183.80 C 65.49 180.50 68.21 178.31 69.83 175.87 C 68.08 169.89 63.53 165.52 58.78 161.81 C 56.03 153.84 56.58 145.35 55.49 137.12 C 54.64 135.05 53.23 133.25 52.44 131.16 C 51.69 126.65 52.36 122.04 51.71 117.52 C 49.17 123.27 48.68 130.51 52.17 135.98 M 71.05 131.29 C 72.76 130.21 74.27 128.86 75.73 127.46 C 76.40 127.96 77.06 128.46 77.72 128.96 C 77.99 131.24 78.71 133.56 77.99 135.83 C 77.13 139.01 78.15 142.23 78.71 145.36 C 79.27 145.42 80.40 145.54 80.97 145.60 C 80.28 141.97 79.66 138.32 79.37 134.63 C 80.09 134.61 81.54 134.57 82.26 134.54 C 79.56 132.24 80.25 127.90 77.19 126.07 C 73.95 125.20 71.67 128.53 71.05 131.29 M 80.43 126.26 C 83.30 127.88 85.78 130.75 89.39 130.27 C 86.97 127.81 84.07 125.78 80.43 126.26 M 85.08 151.93 C 80.77 152.73 76.63 150.83 72.36 150.69 C 75.66 153.05 79.86 154.35 83.85 154.50 C 87.54 153.30 94.28 154.69 94.53 149.16 C 91.39 150.13 88.38 151.65 85.08 151.93 M 84.56 156.62 C 81.91 157.67 79.11 158.25 76.33 158.85 C 77.51 159.15 78.70 159.43 79.89 159.71 C 79.90 159.95 79.91 160.43 79.92 160.67 C 77.69 160.87 75.44 160.88 73.23 161.21 C 73.20 161.49 73.13 162.04 73.10 162.32 C 77.03 163.48 81.04 162.04 85.02 162.01 C 87.48 162.07 89.87 161.20 91.50 159.30 C 89.35 159.27 87.22 159.44 85.09 159.65 C 85.38 159.26 85.96 158.48 86.24 158.08 L 84.06 158.25 C 84.19 157.85 84.44 157.03 84.56 156.62 M 50.78 170.74 C 46.85 172.21 43.67 175.12 40.39 177.66 C 42.08 177.12 43.74 176.51 45.41 175.92 C 46.93 180.42 49.36 184.58 50.60 189.18 C 51.06 192.78 50.64 196.50 51.81 200.01 C 54.00 207.66 54.60 216.54 61.00 222.13 C 60.91 223.35 60.76 224.57 60.56 225.78 C 57.60 228.22 53.43 226.45 50.19 228.16 C 47.09 229.39 44.61 232.03 41.21 232.49 C 39.22 232.88 37.18 232.69 35.17 232.73 C 33.66 231.35 31.96 230.25 29.85 230.08 C 31.30 235.42 37.44 235.38 41.85 234.83 C 45.64 234.37 48.06 230.96 51.57 229.82 C 54.60 229.03 58.07 229.80 60.77 227.87 C 64.08 225.70 64.04 220.43 61.00 218.03 C 55.00 211.58 54.40 202.34 53.17 194.06 C 53.49 187.00 49.27 181.07 46.93 174.70 C 50.23 172.27 54.37 173.39 58.14 172.94 C 60.12 172.41 61.84 171.24 63.62 170.28 C 59.35 170.56 55.00 169.93 50.78 170.74 M 42.26 225.70 C 45.66 224.98 47.03 221.21 48.86 218.66 C 45.49 219.46 43.04 222.41 42.26 225.70 Z" />
<path fill="#FFFFFF" opacity="1.00" d=" M 82.29 158.90 C 85.27 157.35 82.36 162.26 82.29 158.90 Z" />
<path fill="#FFFFFF" opacity="1.00" d=" M 73.82 182.50 C 77.28 183.78 81.00 183.26 84.15 181.45 C 85.41 181.98 86.69 182.48 87.87 183.19 C 88.98 185.08 88.67 187.41 89.01 189.50 C 82.68 189.99 76.17 190.30 70.10 188.11 C 70.21 187.69 70.43 186.83 70.54 186.40 L 68.71 186.41 C 69.49 184.09 71.74 183.25 73.82 182.50 Z" />
<path fill="#FFFFFF" opacity="1.00" d=" M 68.54 190.55 C 75.12 190.16 81.51 192.85 88.15 191.79 C 88.19 194.08 85.41 193.72 83.93 194.25 C 79.53 194.49 75.06 193.60 70.82 192.43 C 70.25 191.96 69.11 191.02 68.54 190.55 Z" />
<path fill="#FFFFFF" opacity="1.00" d=" M 80.35 196.02 C 80.86 196.09 81.87 196.23 82.38 196.30 C 82.80 200.82 83.13 205.39 82.78 209.93 C 82.41 210.48 81.66 211.57 81.28 212.12 C 80.11 206.83 80.77 201.38 80.35 196.02 Z" />
<path fill="#FFFFFF" opacity="1.00" d=" M 68.87 211.31 C 71.73 209.59 74.94 208.58 78.21 207.97 C 78.93 209.49 78.62 212.12 80.79 212.35 C 81.83 212.70 82.94 212.42 83.96 212.16 C 84.24 210.84 84.46 209.51 84.61 208.17 C 88.19 208.84 92.25 209.41 94.42 212.74 C 88.29 218.07 79.44 216.69 72.10 215.27 C 69.82 215.34 69.56 212.93 68.87 211.31 Z" />
<path fill="#FFFFFF" opacity="1.00" d=" M 83.06 218.23 C 86.93 217.86 90.74 217.06 94.54 216.26 C 92.09 220.07 87.15 220.21 83.12 220.93 C 78.74 221.02 74.35 219.94 70.23 218.50 C 69.82 217.92 68.98 216.75 68.57 216.17 C 73.40 216.84 78.12 218.68 83.06 218.23 Z" />
</g>
<g id="#474845ff">
<path fill="#333333" opacity="1.00" d=" M 72.24 62.59 C 76.89 60.76 81.97 61.00 86.70 62.38 C 89.91 63.82 91.58 67.62 91.21 71.01 C 90.76 74.72 90.69 78.53 89.54 82.11 C 90.27 85.17 90.74 88.28 91.44 91.35 C 91.80 91.70 92.53 92.41 92.89 92.76 C 91.60 93.02 90.29 93.12 88.97 93.07 C 88.81 88.34 87.72 83.63 88.45 78.89 C 88.44 74.92 90.16 70.68 88.32 66.91 C 86.68 63.46 82.34 63.13 79.01 62.84 C 73.70 62.72 70.16 67.56 69.12 72.28 C 68.28 77.97 68.93 83.94 71.72 89.03 C 73.50 91.65 77.18 92.02 79.88 90.71 C 83.35 89.57 84.62 85.82 85.91 82.79 C 87.34 86.34 85.15 90.24 82.14 92.17 C 80.24 93.53 77.76 92.87 75.60 93.12 C 77.32 96.91 77.96 100.98 77.41 105.10 C 74.44 104.01 71.47 102.93 68.50 101.83 C 70.87 101.06 73.34 101.20 75.70 102.00 C 74.91 99.61 74.25 97.19 73.51 94.79 C 70.77 96.39 67.80 97.53 64.96 98.93 C 65.80 100.34 68.17 101.38 67.31 103.31 C 67.33 104.55 66.71 105.01 65.47 104.71 C 65.18 100.65 60.63 101.37 57.93 102.50 C 55.69 103.43 52.89 104.57 52.34 107.24 C 51.91 110.16 51.82 113.13 51.45 116.06 C 50.63 112.19 49.75 107.76 52.17 104.25 C 54.73 100.19 60.06 100.26 63.46 97.29 C 65.98 95.19 68.90 93.68 72.03 92.71 C 66.69 87.66 66.63 79.71 66.89 72.90 C 66.82 68.78 69.90 65.64 72.24 62.59 Z" />
<path fill="#333333" opacity="1.00" d=" M 94.26 93.52 C 94.89 92.36 96.85 93.11 97.95 93.02 C 100.51 94.22 102.02 96.83 104.47 98.19 C 106.08 99.09 107.75 99.85 109.42 100.61 C 111.61 103.10 114.52 105.42 114.98 108.92 C 115.82 113.94 116.77 118.96 117.20 124.03 C 117.99 130.58 114.05 136.53 114.16 143.03 C 114.45 146.93 112.02 150.22 110.89 153.79 C 110.49 153.12 110.09 152.45 109.70 151.78 C 110.97 149.40 112.30 146.87 112.16 144.08 C 111.95 138.51 114.38 133.36 115.19 127.94 C 115.22 121.87 113.79 115.92 113.52 109.86 C 112.49 103.57 106.06 100.70 100.66 98.91 L 100.50 100.02 C 95.43 101.14 90.53 105.09 85.16 102.88 C 85.03 102.61 84.77 102.06 84.64 101.79 C 88.04 101.31 91.57 100.44 94.93 101.62 C 96.62 100.26 98.15 98.58 100.44 98.23 C 98.87 96.07 96.83 94.31 94.26 93.52 Z" />
<path fill="#333333" opacity="1.00" d=" M 77.94 107.53 C 79.04 105.42 81.12 104.25 83.21 103.33 L 83.21 104.12 C 83.06 106.79 79.87 106.98 77.94 107.53 Z" />
<path fill="#333333" opacity="1.00" d=" M 61.65 110.96 C 62.36 110.79 63.08 110.66 63.80 110.56 C 63.40 112.34 62.53 114.04 62.45 115.88 C 63.69 118.38 65.18 121.30 67.93 122.35 C 71.78 122.62 75.63 121.91 79.48 122.36 C 78.63 122.99 78.11 124.28 76.96 124.41 C 73.64 124.80 70.31 125.11 67.04 125.77 C 66.50 125.44 65.43 124.78 64.89 124.45 C 65.02 127.07 65.19 129.69 65.36 132.31 C 66.28 131.82 68.12 130.86 69.04 130.38 C 68.42 131.71 67.73 133.00 67.02 134.28 C 66.95 136.99 66.32 139.62 65.36 142.15 C 67.11 144.93 68.86 147.74 70.27 150.71 C 71.51 154.51 71.47 158.60 72.53 162.45 C 73.74 164.47 75.24 166.31 76.45 168.33 C 79.22 164.90 83.71 165.29 87.62 165.94 C 87.48 166.66 87.20 168.09 87.06 168.81 C 83.60 168.58 80.17 169.21 76.73 169.46 C 78.08 171.51 79.62 173.43 81.17 175.33 C 84.74 172.89 87.24 169.25 90.00 166.00 C 92.51 159.85 94.70 153.56 96.68 147.22 C 89.68 149.66 82.08 151.62 74.76 149.29 C 69.30 147.71 66.56 140.81 69.08 135.79 C 69.84 138.86 70.66 141.93 70.71 145.12 C 78.47 148.30 87.19 148.07 95.09 145.55 C 94.64 145.39 93.74 145.06 93.29 144.90 C 93.94 144.05 94.59 143.20 95.24 142.35 C 93.62 141.09 92.04 139.78 90.44 138.49 C 90.54 137.30 90.64 136.11 90.74 134.92 C 93.53 138.52 96.52 142.03 97.18 146.74 C 98.65 143.32 98.98 139.66 98.09 136.04 C 97.06 136.54 96.03 137.04 95.00 137.54 C 95.76 135.82 99.10 133.84 96.83 132.18 C 95.06 131.69 93.24 131.43 91.51 130.81 C 93.65 130.25 95.87 130.11 98.06 129.79 C 98.13 128.06 98.22 126.34 98.32 124.62 C 92.59 126.47 86.71 124.87 80.94 124.19 C 79.54 121.67 78.44 118.98 78.80 116.02 C 80.98 117.17 81.11 119.75 82.30 121.65 C 85.15 122.58 88.09 123.29 91.05 123.82 C 93.68 123.77 96.17 122.70 98.59 121.76 C 98.78 121.09 99.16 119.76 99.35 119.09 C 98.84 117.61 98.37 116.12 97.95 114.61 C 98.74 115.62 99.51 116.65 100.26 117.70 C 101.04 117.25 101.83 116.80 102.62 116.36 C 100.21 121.61 99.88 127.39 98.70 132.97 C 99.33 135.20 99.85 137.46 100.29 139.74 C 101.40 139.06 102.53 138.40 103.66 137.76 C 102.46 140.16 100.79 142.28 99.51 144.63 C 98.52 147.01 98.16 149.60 97.48 152.08 C 96.39 157.35 93.46 161.95 91.49 166.91 C 90.58 169.18 85.58 170.44 88.27 173.18 C 84.78 174.48 81.88 176.82 78.86 178.92 C 79.17 172.57 73.71 168.41 70.65 163.49 C 69.46 158.73 69.45 153.61 67.15 149.16 C 66.18 147.44 65.76 144.43 62.99 145.34 C 63.50 142.87 64.15 140.41 64.54 137.92 C 64.98 132.50 62.68 127.29 63.14 121.87 C 60.62 118.72 60.06 114.70 61.65 110.96 Z" />
<path fill="#333333" opacity="1.00" d=" M 52.17 135.98 C 48.68 130.51 49.17 123.27 51.71 117.52 C 52.36 122.04 51.69 126.65 52.44 131.16 C 53.23 133.25 54.64 135.05 55.49 137.12 C 56.58 145.35 56.03 153.84 58.78 161.81 C 63.53 165.52 68.08 169.89 69.83 175.87 C 68.21 178.31 65.49 180.50 66.44 183.80 C 69.64 181.57 73.19 179.94 76.72 178.31 C 76.55 179.05 76.20 180.51 76.02 181.25 C 78.37 181.02 80.68 180.54 82.99 180.08 C 85.43 179.55 87.63 181.00 89.76 181.92 C 90.85 185.68 91.03 189.60 91.87 193.41 C 93.79 191.57 95.28 189.33 96.92 187.25 C 94.79 182.70 93.69 177.38 89.26 174.39 C 90.83 174.97 92.38 175.61 93.92 176.26 C 99.28 169.00 104.59 161.64 108.82 153.65 C 109.45 153.88 110.08 154.12 110.72 154.36 C 112.65 153.77 114.64 153.39 116.64 153.12 C 115.91 152.57 114.45 151.48 113.72 150.93 C 116.52 151.34 119.32 151.79 122.09 152.34 C 122.60 153.74 123.09 155.15 123.57 156.56 C 127.08 158.18 129.62 161.12 131.67 164.31 C 133.74 167.70 138.25 169.36 139.08 173.54 C 139.38 176.99 138.95 180.47 139.34 183.93 C 139.69 188.71 141.82 193.18 141.86 198.00 C 142.04 204.98 141.26 211.97 141.68 218.95 C 143.60 224.00 146.91 228.51 150.94 232.11 C 152.80 233.65 153.52 236.02 154.51 238.13 C 152.42 240.76 150.32 243.48 147.55 245.43 C 141.38 247.66 133.54 242.90 133.30 236.16 C 130.54 235.02 127.35 233.37 126.94 230.05 C 127.08 226.98 128.72 224.15 128.53 221.05 C 128.32 216.20 127.20 211.33 124.68 207.14 C 121.62 201.86 122.66 195.54 123.03 189.76 C 125.27 193.10 125.31 197.21 125.57 201.07 C 125.67 204.33 128.31 206.74 128.92 209.88 C 129.56 213.20 130.40 216.54 130.53 219.93 C 130.18 223.64 128.91 227.25 129.08 231.01 C 130.05 233.15 132.17 234.48 133.73 236.18 C 135.86 238.02 137.03 240.91 139.72 242.09 C 141.65 243.23 143.94 243.32 146.11 243.62 C 147.83 242.14 149.62 240.71 151.16 239.04 C 149.97 234.94 146.17 232.54 144.16 228.93 C 142.63 226.27 140.72 223.79 139.61 220.91 C 138.99 212.94 139.78 204.88 139.55 196.93 C 137.23 189.79 136.97 182.35 136.61 174.92 C 136.67 171.86 134.53 169.51 132.25 167.78 C 129.32 165.57 127.68 162.17 124.94 159.78 C 122.75 158.11 120.27 156.89 117.93 155.44 C 115.35 156.11 112.15 155.95 110.29 158.20 C 107.68 160.94 105.22 164.21 104.61 168.03 C 105.02 172.50 110.22 172.70 113.16 174.85 C 117.29 178.00 123.75 176.05 126.72 180.91 C 125.98 181.05 124.51 181.34 123.77 181.48 C 124.65 184.05 125.43 186.67 125.69 189.39 C 124.93 189.55 124.17 189.68 123.40 189.77 C 122.98 186.36 122.00 183.05 120.86 179.82 C 118.14 179.23 115.30 178.72 112.97 177.10 C 111.28 175.60 108.63 176.68 107.13 174.88 C 106.11 174.28 105.08 173.72 104.05 173.15 C 103.49 170.86 102.92 168.58 102.45 166.27 C 101.57 167.72 100.68 169.15 99.78 170.59 C 102.13 172.29 103.90 174.94 106.96 175.45 C 106.57 176.01 105.80 177.15 105.41 177.71 C 102.82 176.35 100.91 174.13 98.88 172.10 C 97.80 174.06 96.75 176.04 95.64 177.98 C 96.89 181.15 98.05 184.36 99.18 187.58 C 97.38 189.65 96.37 192.46 94.04 194.04 C 91.01 195.68 87.57 196.30 84.21 196.89 C 84.35 200.17 84.38 203.46 84.24 206.74 C 88.32 206.88 95.63 207.43 95.34 212.98 C 95.11 215.50 96.07 218.90 93.52 220.50 C 91.09 222.49 87.88 223.04 84.88 223.61 L 84.98 223.40 L 83.95 222.53 L 84.22 223.33 C 78.60 223.77 72.04 223.32 67.99 218.92 C 67.02 216.07 67.26 212.91 67.73 209.98 C 70.71 207.37 74.82 206.81 78.59 206.23 C 78.49 203.02 78.45 199.82 78.56 196.62 C 75.22 196.32 71.63 195.95 68.90 193.78 C 66.78 191.95 66.13 189.10 65.64 186.47 C 66.17 186.56 67.24 186.74 67.77 186.83 L 68.46 183.62 C 67.78 184.09 66.41 185.04 65.73 185.52 C 65.28 184.11 64.20 182.67 64.75 181.13 C 65.51 178.90 67.30 177.16 67.88 174.85 C 65.69 170.68 61.82 167.87 58.56 164.63 C 56.80 160.18 55.42 155.25 51.56 152.09 C 46.75 153.65 41.92 155.64 38.43 159.45 C 36.16 161.93 31.52 162.98 31.67 167.02 C 30.94 170.52 33.17 173.54 33.68 176.87 C 34.88 184.79 36.88 192.77 41.39 199.50 C 43.76 204.85 44.86 210.79 45.53 216.58 C 40.77 221.43 35.54 225.81 30.30 230.13 C 31.03 228.68 31.23 226.75 32.72 225.81 C 36.11 223.50 38.87 220.46 41.88 217.71 C 42.78 216.74 42.99 215.35 43.55 214.19 C 42.46 210.30 41.54 206.36 40.08 202.59 C 38.39 199.07 36.08 195.82 35.10 192.00 C 33.93 186.68 31.81 181.60 31.36 176.14 C 30.28 172.36 28.86 168.26 30.44 164.40 C 31.90 160.74 35.61 158.86 38.26 156.18 C 41.42 153.02 46.00 151.74 48.77 148.15 C 50.69 148.49 52.63 148.70 54.57 148.88 C 53.37 144.65 54.49 139.86 52.17 135.98 M 73.82 182.50 C 71.74 183.25 69.49 184.09 68.71 186.41 L 70.54 186.40 C 70.43 186.83 70.21 187.69 70.10 188.11 C 76.17 190.30 82.68 189.99 89.01 189.50 C 88.67 187.41 88.98 185.08 87.87 183.19 C 86.69 182.48 85.41 181.98 84.15 181.45 C 81.00 183.26 77.28 183.78 73.82 182.50 M 68.54 190.55 C 69.11 191.02 70.25 191.96 70.82 192.43 C 75.06 193.60 79.53 194.49 83.93 194.25 C 85.41 193.72 88.19 194.08 88.15 191.79 C 81.51 192.85 75.12 190.16 68.54 190.55 M 80.35 196.02 C 80.77 201.38 80.11 206.83 81.28 212.12 C 81.66 211.57 82.41 210.48 82.78 209.93 C 83.13 205.39 82.80 200.82 82.38 196.30 C 81.87 196.23 80.86 196.09 80.35 196.02 M 68.87 211.31 C 69.56 212.93 69.82 215.34 72.10 215.27 C 79.44 216.69 88.29 218.07 94.42 212.74 C 92.25 209.41 88.19 208.84 84.61 208.17 C 84.46 209.51 84.24 210.84 83.96 212.16 C 82.94 212.42 81.83 212.70 80.79 212.35 C 78.62 212.12 78.93 209.49 78.21 207.97 C 74.94 208.58 71.73 209.59 68.87 211.31 M 83.06 218.23 C 78.12 218.68 73.40 216.84 68.57 216.17 C 68.98 216.75 69.82 217.92 70.23 218.50 C 74.35 219.94 78.74 221.02 83.12 220.93 C 87.15 220.21 92.09 220.07 94.54 216.26 C 90.74 217.06 86.93 217.86 83.06 218.23 Z" />
<path fill="#333333" opacity="1.00" d=" M 71.05 131.29 C 71.67 128.53 73.95 125.20 77.19 126.07 C 80.25 127.90 79.56 132.24 82.26 134.54 C 81.54 134.57 80.09 134.61 79.37 134.63 C 79.66 138.32 80.28 141.97 80.97 145.60 C 80.40 145.54 79.27 145.42 78.71 145.36 C 78.15 142.23 77.13 139.01 77.99 135.83 C 78.71 133.56 77.99 131.24 77.72 128.96 C 77.06 128.46 76.40 127.96 75.73 127.46 C 74.27 128.86 72.76 130.21 71.05 131.29 Z" />
<path fill="#333333" opacity="1.00" d=" M 80.43 126.26 C 84.07 125.78 86.97 127.81 89.39 130.27 C 85.78 130.75 83.30 127.88 80.43 126.26 Z" />
<path fill="#333333" opacity="1.00" d=" M 85.08 151.93 C 88.38 151.65 91.39 150.13 94.53 149.16 C 94.28 154.69 87.54 153.30 83.85 154.50 C 79.86 154.35 75.66 153.05 72.36 150.69 C 76.63 150.83 80.77 152.73 85.08 151.93 Z" />
<path fill="#333333" opacity="1.00" d=" M 84.56 156.62 C 84.44 157.03 84.19 157.85 84.06 158.25 L 86.24 158.08 C 85.96 158.48 85.38 159.26 85.09 159.65 C 87.22 159.44 89.35 159.27 91.50 159.30 C 89.87 161.20 87.48 162.07 85.02 162.01 C 81.04 162.04 77.03 163.48 73.10 162.32 C 73.13 162.04 73.20 161.49 73.23 161.21 C 75.44 160.88 77.69 160.87 79.92 160.67 C 79.91 160.43 79.90 159.95 79.89 159.71 C 78.70 159.43 77.51 159.15 76.33 158.85 C 79.11 158.25 81.91 157.67 84.56 156.62 M 82.29 158.90 C 82.36 162.26 85.27 157.35 82.29 158.90 Z" />
<path fill="#333333" opacity="1.00" d=" M 50.78 170.74 C 55.00 169.93 59.35 170.56 63.62 170.28 C 61.84 171.24 60.12 172.41 58.14 172.94 C 54.37 173.39 50.23 172.27 46.93 174.70 C 49.27 181.07 53.49 187.00 53.17 194.06 C 54.40 202.34 55.00 211.58 61.00 218.03 C 64.04 220.43 64.08 225.70 60.77 227.87 C 58.07 229.80 54.60 229.03 51.57 229.82 C 48.06 230.96 45.64 234.37 41.85 234.83 C 37.44 235.38 31.30 235.42 29.85 230.08 C 31.96 230.25 33.66 231.35 35.17 232.73 C 37.18 232.69 39.22 232.88 41.21 232.49 C 44.61 232.03 47.09 229.39 50.19 228.16 C 53.43 226.45 57.60 228.22 60.56 225.78 C 60.76 224.57 60.91 223.35 61.00 222.13 C 54.60 216.54 54.00 207.66 51.81 200.01 C 50.64 196.50 51.06 192.78 50.60 189.18 C 49.36 184.58 46.93 180.42 45.41 175.92 C 43.74 176.51 42.08 177.12 40.39 177.66 C 43.67 175.12 46.85 172.21 50.78 170.74 Z" />
<path fill="#333333" opacity="1.00" d=" M 42.26 225.70 C 43.04 222.41 45.49 219.46 48.86 218.66 C 47.03 221.21 45.66 224.98 42.26 225.70 Z" />
</g>
</svg>
