<?xml version="1.0" encoding="UTF-8" ?>
<!DOCTYPE svg PUBLIC "-//W3C//DTD SVG 1.1//EN" "http://www.w3.org/Graphics/SVG/1.1/DTD/svg11.dtd">
<svg width="167pt" height="275pt" viewBox="0 0 167 275" version="1.1" xmlns="http://www.w3.org/2000/svg">
<g id="#ffffffff">
<path fill="#FFFFFF" opacity="1.00" d=" M 0.00 0.00 L 167.00 0.00 L 167.00 8.72 C 153.06 11.46 138.94 13.15 125.03 16.10 C 119.45 9.81 109.65 11.83 104.01 16.92 C 100.08 17.51 94.97 17.34 93.21 21.76 C 87.65 22.79 82.08 23.74 76.50 24.60 C 75.20 23.26 73.89 21.93 72.56 20.62 C 67.90 21.19 63.03 21.35 58.90 23.88 C 58.80 25.11 58.69 26.33 58.59 27.56 C 39.02 30.61 19.57 34.33 0.00 37.37 L 0.00 0.00 Z" />
<path fill="#FFFFFF" opacity="1.00" d=" M 125.12 17.32 C 139.12 15.24 153.06 12.84 167.00 10.41 L 167.00 12.71 C 153.77 15.55 140.28 16.91 127.06 19.78 C 126.41 18.96 125.77 18.14 125.12 17.32 Z" />
<path fill="#FFFFFF" opacity="1.00" d=" M 98.01 26.05 C 101.32 17.74 111.10 12.84 119.73 14.38 C 126.75 19.43 130.37 30.02 125.41 37.70 C 127.39 36.02 129.02 33.98 130.05 31.59 C 129.20 27.97 129.05 24.18 127.54 20.74 C 140.79 19.37 153.88 16.68 167.00 14.43 L 167.00 275.00 L 0.00 275.00 L 0.00 43.42 C 11.65 41.39 23.30 39.46 34.91 37.21 C 41.95 35.67 49.24 35.66 56.21 33.73 C 57.26 35.55 58.39 37.32 59.60 39.05 C 59.24 41.59 59.34 44.16 60.95 46.28 C 61.18 43.83 61.51 41.39 61.49 38.94 C 61.95 36.66 59.56 35.61 58.31 34.16 C 58.96 32.71 59.60 31.26 60.25 29.81 C 63.14 29.61 66.23 29.65 68.63 27.76 C 66.23 27.57 63.82 27.55 61.41 27.60 C 61.44 26.43 61.47 25.26 61.50 24.09 C 64.86 23.36 68.32 23.20 71.70 22.57 C 75.78 24.36 76.73 29.19 75.06 33.03 C 69.49 36.48 67.62 44.07 71.01 49.68 C 70.26 51.97 69.77 54.38 68.57 56.50 C 66.55 58.85 63.75 60.45 61.99 63.04 C 61.42 64.58 61.58 66.26 61.42 67.86 C 63.35 65.02 64.79 61.75 67.66 59.69 C 71.80 56.69 70.70 50.63 74.21 47.11 C 77.54 42.49 83.93 41.97 89.02 43.46 C 91.39 42.44 93.82 41.56 96.35 41.04 C 97.75 38.94 99.05 36.77 100.35 34.60 C 101.04 35.16 102.42 36.27 103.11 36.83 C 101.03 33.47 97.22 30.43 98.01 26.05 M 108.55 38.03 C 110.33 38.78 112.14 39.47 113.97 40.11 C 113.53 41.73 113.11 43.37 112.72 45.01 C 113.25 44.75 114.31 44.25 114.84 44.00 C 115.21 42.62 115.60 41.25 116.01 39.88 C 116.97 40.25 117.93 40.63 118.88 41.01 C 120.95 40.60 122.57 39.35 124.05 37.92 C 122.00 37.94 120.02 38.58 117.97 38.62 C 114.81 38.60 111.72 37.17 108.55 38.03 M 91.89 43.36 C 91.67 43.85 91.22 44.85 90.99 45.35 C 93.76 43.83 96.80 43.05 99.98 43.39 C 102.82 43.69 105.34 41.67 106.36 39.12 C 102.17 42.45 96.63 41.36 91.89 43.36 M 124.87 41.03 C 126.54 45.82 125.96 51.45 122.79 55.50 C 122.33 55.23 121.42 54.68 120.97 54.41 C 120.87 58.37 119.75 62.08 117.35 65.26 C 117.48 70.53 113.23 73.67 110.07 77.20 C 110.19 80.67 109.91 84.14 109.65 87.59 C 109.19 87.42 108.26 87.07 107.80 86.90 C 107.78 84.61 105.86 83.34 104.36 81.95 C 105.17 85.05 106.08 88.11 106.99 91.18 C 107.30 90.62 107.90 89.50 108.20 88.94 C 109.42 91.60 109.54 94.58 110.01 97.43 C 102.14 100.50 93.84 103.80 85.22 102.61 C 80.95 98.50 80.49 91.46 75.50 88.13 C 74.88 86.13 73.90 84.16 73.95 82.02 C 74.27 81.15 73.63 78.03 75.34 79.43 C 77.74 85.16 78.39 91.61 81.83 96.91 C 82.69 98.64 84.26 99.73 85.99 100.50 C 82.64 94.38 80.33 87.82 77.63 81.41 C 79.98 81.30 82.33 80.96 84.52 80.05 C 81.39 78.29 76.70 79.41 74.88 75.45 C 75.62 73.60 76.52 71.81 77.34 69.99 C 78.16 70.75 78.99 71.51 79.83 72.26 C 83.76 71.32 88.14 73.31 91.64 70.80 L 90.27 69.70 C 91.30 69.84 92.34 70.00 93.37 70.16 C 93.67 72.91 94.45 75.57 95.33 78.19 C 95.40 75.81 95.29 73.40 94.38 71.18 C 95.41 68.24 96.82 65.45 98.28 62.70 C 97.63 61.85 96.97 61.02 96.32 60.18 C 95.41 62.71 94.57 65.29 93.16 67.60 L 93.79 67.90 C 92.68 68.12 91.58 68.35 90.48 68.59 C 89.64 69.45 88.79 70.30 87.93 71.14 C 84.63 69.35 84.40 65.19 81.66 62.86 C 81.89 65.93 82.68 68.96 84.51 71.48 C 82.31 70.76 79.72 70.57 78.03 68.81 C 77.68 66.31 79.19 64.02 79.66 61.62 C 76.47 65.29 76.22 70.60 72.80 74.18 C 71.80 77.45 68.82 80.92 65.05 79.62 C 63.12 75.08 57.67 72.49 57.50 67.14 C 57.17 60.45 59.93 54.01 60.75 47.40 C 59.99 46.92 59.25 46.42 58.52 45.90 C 58.83 51.42 56.94 56.68 55.71 61.97 C 56.00 64.96 55.61 68.05 56.38 70.97 C 58.30 74.22 60.97 76.94 63.11 80.03 C 64.09 81.53 66.04 81.75 67.55 82.49 C 69.66 81.07 71.96 79.79 73.39 77.58 C 72.38 80.47 71.93 83.82 73.51 86.59 C 76.70 91.86 79.96 97.15 82.00 102.99 C 84.00 104.05 86.13 104.81 88.39 105.08 C 88.00 105.70 87.61 106.32 87.22 106.95 C 89.41 107.66 91.57 108.83 93.94 108.67 C 96.25 108.31 98.39 107.30 100.62 106.60 C 103.16 105.70 106.13 105.27 107.76 102.84 C 106.78 102.83 104.83 102.80 103.86 102.79 C 106.01 101.60 108.15 100.39 110.20 99.04 C 110.45 100.78 111.08 102.40 112.48 103.52 C 116.07 107.02 115.25 112.50 114.94 117.01 C 114.33 122.29 114.20 128.69 118.63 132.46 C 115.04 137.21 109.46 139.42 103.75 140.34 C 103.16 139.67 102.57 139.00 101.98 138.33 C 101.08 138.64 100.18 138.96 99.28 139.27 C 98.00 146.01 103.61 151.39 102.99 158.00 C 102.99 159.81 103.03 161.63 103.10 163.45 C 98.66 161.65 93.90 160.69 89.11 160.71 C 89.45 158.07 89.75 155.41 90.52 152.85 C 90.41 152.40 90.18 151.52 90.07 151.08 C 91.72 149.01 92.81 146.58 94.32 144.43 C 96.22 142.62 97.70 140.45 98.90 138.13 C 95.20 140.11 91.28 142.42 86.91 141.95 C 82.03 141.79 77.58 139.34 74.18 135.96 C 74.82 131.63 76.22 127.49 77.83 123.44 C 79.63 118.58 79.27 113.33 79.82 108.28 C 81.12 106.16 83.03 104.14 81.28 101.57 C 79.97 104.32 77.85 106.86 77.83 110.05 C 77.31 115.54 76.73 121.08 74.36 126.14 C 73.61 130.02 70.43 134.77 73.80 138.16 C 78.24 143.51 85.49 145.21 92.18 144.63 C 90.55 148.02 88.25 150.99 85.62 153.66 C 84.91 153.64 84.20 153.65 83.50 153.69 C 81.14 156.37 80.74 160.16 81.40 163.55 C 82.68 160.41 83.30 157.05 84.36 153.84 C 84.70 154.33 85.37 155.33 85.70 155.83 C 86.45 155.01 87.95 153.37 88.70 152.54 C 87.89 155.59 87.58 158.72 87.38 161.86 C 92.21 163.17 97.58 163.39 101.89 166.11 C 107.28 171.08 115.40 171.14 122.01 168.93 C 121.09 168.39 120.17 167.85 119.24 167.35 C 119.80 162.23 118.58 157.12 119.11 151.99 C 119.18 146.12 120.82 140.07 118.72 134.38 C 120.03 130.72 117.58 127.38 116.99 123.86 C 116.06 120.24 117.55 116.61 117.49 112.97 C 117.33 105.07 110.74 98.95 110.48 91.12 C 110.85 86.49 112.23 81.88 111.56 77.22 C 115.52 74.32 119.13 70.34 119.41 65.19 C 121.20 62.82 122.37 60.07 122.85 57.14 C 127.36 53.42 128.25 47.48 127.61 41.96 C 126.65 41.60 123.89 38.17 124.87 41.03 M 121.32 41.91 C 121.63 43.90 122.40 45.93 121.90 47.95 C 120.90 50.12 119.06 51.77 117.95 53.87 C 117.02 56.35 117.17 59.32 115.18 61.30 C 113.64 62.91 112.86 64.99 112.02 67.01 C 110.27 71.34 106.03 73.85 103.72 77.82 C 108.19 75.45 111.95 71.74 113.84 66.99 C 115.31 62.72 120.00 59.92 119.21 54.91 C 121.97 51.20 124.98 47.29 124.31 42.35 C 123.31 42.21 122.31 42.07 121.32 41.91 M 109.96 45.00 C 110.07 49.47 111.77 53.95 110.65 58.42 C 109.29 63.25 105.62 66.90 103.40 71.31 C 101.05 75.63 98.09 79.49 94.98 83.27 C 97.42 82.22 100.37 80.98 100.96 78.07 C 101.67 75.14 104.60 73.56 105.74 70.83 C 108.19 65.60 112.72 61.13 113.05 55.09 C 112.95 51.55 112.04 47.91 109.96 45.00 M 87.98 50.59 C 88.48 56.00 94.66 58.06 99.20 59.00 C 95.16 56.58 91.31 53.94 87.98 50.59 M 86.55 60.94 C 84.94 60.78 83.33 60.59 81.74 60.30 C 81.26 60.46 80.29 60.79 79.81 60.95 C 83.33 62.75 89.23 63.48 90.68 58.66 C 89.28 59.38 87.90 60.14 86.55 60.94 M 82.94 84.10 C 84.38 84.12 85.83 84.14 87.27 84.16 C 87.47 83.54 87.86 82.30 88.06 81.69 C 86.35 82.48 84.64 83.28 82.94 84.10 M 86.83 89.12 C 89.76 87.40 93.31 85.20 92.99 81.26 C 90.63 83.62 88.73 86.39 86.83 89.12 M 99.04 97.34 C 99.40 92.87 99.39 88.37 100.01 83.92 C 99.76 83.38 99.27 82.31 99.02 81.77 C 98.03 86.88 96.69 92.38 99.04 97.34 M 87.80 92.29 C 87.32 93.66 87.23 95.70 88.34 96.78 C 90.34 96.52 89.64 92.12 87.80 92.29 M 90.08 98.54 C 91.46 98.39 91.65 96.07 91.03 95.09 C 89.73 95.32 89.37 97.56 90.08 98.54 M 87.37 114.79 C 88.98 117.24 91.00 119.57 94.04 120.14 C 91.93 118.22 89.70 116.42 87.37 114.79 M 99.39 128.11 C 98.70 130.61 98.78 133.26 98.99 135.82 C 100.99 133.74 100.34 130.67 101.24 128.14 C 102.82 126.04 104.85 124.15 105.28 121.41 C 103.12 123.46 101.04 125.64 99.39 128.11 M 88.29 126.42 C 90.06 128.63 92.77 129.47 95.52 129.28 C 94.30 126.71 90.62 127.38 88.29 126.42 M 71.71 159.12 C 72.68 163.64 71.31 168.82 74.26 172.80 C 79.18 176.49 85.45 176.71 90.89 179.18 C 95.95 180.58 101.31 180.02 106.41 181.27 C 106.55 185.51 106.77 189.74 106.91 193.98 C 107.34 197.22 104.56 199.79 104.84 203.02 C 104.96 206.66 106.69 209.97 107.96 213.31 C 109.82 213.88 111.76 214.12 113.71 214.18 C 116.22 212.22 119.35 210.48 120.20 207.16 C 121.66 202.08 122.26 196.25 119.76 191.40 C 118.21 188.61 119.11 185.37 119.71 182.45 C 118.98 180.39 117.93 178.10 115.59 177.53 C 112.67 176.09 109.50 177.75 107.06 179.37 C 102.99 177.17 98.24 178.31 93.85 177.49 C 89.00 177.07 85.22 173.73 81.13 171.44 C 81.74 172.40 82.94 174.32 83.54 175.28 C 80.88 174.06 78.27 172.74 75.54 171.70 C 74.72 169.56 73.16 167.48 73.75 165.07 C 74.33 161.68 73.94 158.29 73.07 154.99 C 71.78 149.67 74.19 144.41 73.77 139.09 C 70.37 145.01 69.90 152.58 71.71 159.12 M 122.56 168.35 C 123.88 168.59 125.20 168.86 126.52 169.16 C 127.57 170.97 129.67 172.59 129.25 174.93 C 129.16 178.06 127.73 180.94 127.42 184.03 C 128.16 187.64 129.26 191.34 127.86 194.97 C 126.09 196.65 124.65 198.66 122.73 200.19 C 123.13 200.63 123.54 201.07 123.95 201.51 C 125.54 200.09 127.17 198.72 128.89 197.47 C 129.86 195.40 130.87 193.29 131.04 190.98 C 131.42 188.22 129.12 185.72 130.15 182.97 C 131.14 179.20 131.39 175.29 130.99 171.41 C 130.22 170.22 129.48 169.00 128.77 167.78 C 126.86 167.20 124.92 166.71 122.97 166.30 C 122.87 166.81 122.66 167.83 122.56 168.35 Z" />
<path fill="#FFFFFF" opacity="1.00" d=" M 95.46 21.99 C 97.61 20.57 99.86 19.22 102.38 18.56 C 99.93 20.64 97.52 22.90 96.31 25.96 C 96.03 24.63 95.75 23.31 95.46 21.99 Z" />
<path fill="#FFFFFF" opacity="1.00" d=" M 77.23 25.93 C 82.81 24.89 88.60 24.60 93.91 22.46 C 94.15 23.48 94.41 24.49 94.59 25.52 C 93.81 25.52 92.26 25.51 91.48 25.51 C 91.84 26.87 92.26 28.21 92.73 29.54 C 93.29 28.79 94.41 27.30 94.97 26.55 C 95.06 27.16 95.23 28.37 95.32 28.98 C 96.84 30.50 98.10 32.25 99.44 33.93 C 98.04 35.37 96.94 37.05 95.59 38.53 C 93.44 39.55 91.21 40.41 89.08 41.47 C 85.36 39.66 80.83 39.99 77.38 42.24 C 74.99 43.98 73.25 46.42 71.58 48.82 C 71.27 45.10 70.60 41.04 72.37 37.57 C 74.51 35.07 77.13 32.93 78.40 29.78 C 82.51 29.19 86.57 28.14 90.75 27.99 C 90.06 27.45 89.37 26.90 88.67 26.36 C 85.20 27.03 81.74 27.76 78.25 28.33 C 78.00 27.73 77.49 26.53 77.23 25.93 Z" />
<path fill="#FFFFFF" opacity="1.00" d=" M 0.00 39.27 C 19.84 36.22 39.46 31.69 59.47 29.79 C 58.82 30.36 57.51 31.50 56.85 32.08 C 51.03 33.76 44.91 33.65 39.00 34.82 C 26.05 37.30 13.00 39.28 0.01 41.55 L 0.00 40.90 L 0.00 39.27 Z" />
<path fill="#FFFFFF" opacity="1.00" d=" M 97.07 104.58 C 98.93 103.89 100.77 103.06 102.77 102.82 C 98.80 105.30 93.72 107.55 89.02 105.90 C 91.49 104.51 94.48 105.58 97.07 104.58 Z" />
<path fill="#FFFFFF" opacity="1.00" d=" M 99.77 141.02 C 105.72 143.53 112.47 140.79 117.58 137.49 C 118.15 145.27 117.37 153.02 117.08 160.78 C 115.68 163.29 116.59 165.99 117.66 168.42 C 113.36 169.34 109.25 167.57 105.24 166.29 C 105.91 161.34 106.70 155.76 103.84 151.35 C 102.19 148.03 101.15 144.45 99.77 141.02 Z" />
<path fill="#FFFFFF" opacity="1.00" d=" M 108.46 180.90 C 110.01 180.07 111.58 179.27 113.16 178.49 C 115.63 179.18 117.66 180.67 118.66 183.10 C 116.12 186.38 117.18 190.73 118.65 194.22 C 120.21 200.79 119.05 209.78 112.11 212.84 C 111.30 212.57 109.69 212.03 108.88 211.75 C 107.53 207.67 105.83 203.05 107.82 198.87 C 110.44 193.19 108.26 186.87 108.46 180.90 Z" />
</g>
<g id="#474946ff">
<path fill="#333333" opacity="1.00" d=" M 125.03 16.10 C 138.94 13.15 153.06 11.46 167.00 8.72 L 167.00 10.41 C 153.06 12.84 139.12 15.24 125.12 17.32 C 125.77 18.14 126.41 18.96 127.06 19.78 C 140.28 16.91 153.77 15.55 167.00 12.71 L 167.00 14.43 C 153.88 16.68 140.79 19.37 127.54 20.74 C 129.05 24.18 129.20 27.97 130.05 31.59 C 129.02 33.98 127.39 36.02 125.41 37.70 C 130.37 30.02 126.75 19.43 119.73 14.38 C 111.10 12.84 101.32 17.74 98.01 26.05 C 97.22 30.43 101.03 33.47 103.11 36.83 C 102.42 36.27 101.04 35.16 100.35 34.60 C 99.05 36.77 97.75 38.94 96.35 41.04 C 93.82 41.56 91.39 42.44 89.02 43.46 C 83.93 41.97 77.54 42.49 74.21 47.11 C 70.70 50.63 71.80 56.69 67.66 59.69 C 64.79 61.75 63.35 65.02 61.42 67.86 C 61.58 66.26 61.42 64.58 61.99 63.04 C 63.75 60.45 66.55 58.85 68.57 56.50 C 69.77 54.38 70.26 51.97 71.01 49.68 C 67.62 44.07 69.49 36.48 75.06 33.03 C 76.73 29.19 75.78 24.36 71.70 22.57 C 68.32 23.20 64.86 23.36 61.50 24.09 C 61.47 25.26 61.44 26.43 61.41 27.60 C 63.82 27.55 66.23 27.57 68.63 27.76 C 66.23 29.65 63.14 29.61 60.25 29.81 C 59.60 31.26 58.96 32.71 58.31 34.16 C 59.56 35.61 61.95 36.66 61.49 38.94 C 61.51 41.39 61.18 43.83 60.95 46.28 C 59.34 44.16 59.24 41.59 59.60 39.05 C 58.39 37.32 57.26 35.55 56.21 33.73 C 49.24 35.66 41.95 35.67 34.91 37.21 C 23.30 39.46 11.65 41.39 0.00 43.42 L 0.00 40.90 L 0.01 41.55 C 13.00 39.28 26.05 37.30 39.00 34.82 C 44.91 33.65 51.03 33.76 56.85 32.08 C 57.51 31.50 58.82 30.36 59.47 29.79 C 39.46 31.69 19.84 36.22 0.00 39.27 L 0.00 37.37 C 19.57 34.33 39.02 30.61 58.59 27.56 C 58.69 26.33 58.80 25.11 58.90 23.88 C 63.03 21.35 67.90 21.19 72.56 20.62 C 73.89 21.93 75.20 23.26 76.50 24.60 C 82.08 23.74 87.65 22.79 93.21 21.76 C 94.97 17.34 100.08 17.51 104.01 16.92 C 109.65 11.83 119.45 9.81 125.03 16.10 M 95.46 21.99 C 95.75 23.31 96.03 24.63 96.31 25.96 C 97.52 22.90 99.93 20.64 102.38 18.56 C 99.86 19.22 97.61 20.57 95.46 21.99 M 77.23 25.93 C 77.49 26.53 78.00 27.73 78.25 28.33 C 81.74 27.76 85.20 27.03 88.67 26.36 C 89.37 26.90 90.06 27.45 90.75 27.99 C 86.57 28.14 82.51 29.19 78.40 29.78 C 77.13 32.93 74.51 35.07 72.37 37.57 C 70.60 41.04 71.27 45.10 71.58 48.82 C 73.25 46.42 74.99 43.98 77.38 42.24 C 80.83 39.99 85.36 39.66 89.08 41.47 C 91.21 40.41 93.44 39.55 95.59 38.53 C 96.94 37.05 98.04 35.37 99.44 33.93 C 98.10 32.25 96.84 30.50 95.32 28.98 C 95.23 28.37 95.06 27.16 94.97 26.55 C 94.41 27.30 93.29 28.79 92.73 29.54 C 92.26 28.21 91.84 26.87 91.48 25.51 C 92.26 25.51 93.81 25.52 94.59 25.52 C 94.41 24.49 94.15 23.48 93.91 22.46 C 88.60 24.60 82.81 24.89 77.23 25.93 Z" />
<path fill="#333333" opacity="1.00" d=" M 108.55 38.03 C 111.72 37.17 114.81 38.60 117.97 38.62 C 120.02 38.58 122.00 37.94 124.05 37.92 C 122.57 39.35 120.95 40.60 118.88 41.01 C 117.93 40.63 116.97 40.25 116.01 39.88 C 115.60 41.25 115.21 42.62 114.84 44.00 C 114.31 44.25 113.25 44.75 112.72 45.01 C 113.11 43.37 113.53 41.73 113.97 40.11 C 112.14 39.47 110.33 38.78 108.55 38.03 Z" />
<path fill="#333333" opacity="1.00" d=" M 91.89 43.36 C 96.63 41.36 102.17 42.45 106.36 39.12 C 105.34 41.67 102.82 43.69 99.98 43.39 C 96.80 43.05 93.76 43.83 90.99 45.35 C 91.22 44.85 91.67 43.85 91.89 43.36 Z" />
<path fill="#333333" opacity="1.00" d=" M 124.87 41.03 C 123.89 38.17 126.65 41.60 127.61 41.96 C 128.25 47.48 127.36 53.42 122.85 57.14 C 122.37 60.07 121.20 62.82 119.41 65.19 C 119.13 70.34 115.52 74.32 111.56 77.22 C 112.23 81.88 110.85 86.49 110.48 91.12 C 110.74 98.95 117.33 105.07 117.49 112.97 C 117.55 116.61 116.06 120.24 116.99 123.86 C 117.58 127.38 120.03 130.72 118.72 134.38 C 120.82 140.07 119.18 146.12 119.11 151.99 C 118.58 157.12 119.80 162.23 119.24 167.35 C 120.17 167.85 121.09 168.39 122.01 168.93 C 115.40 171.14 107.28 171.08 101.89 166.11 C 97.58 163.39 92.21 163.17 87.38 161.86 C 87.58 158.72 87.89 155.59 88.70 152.54 C 87.95 153.37 86.45 155.01 85.70 155.83 C 85.37 155.33 84.70 154.33 84.36 153.84 C 83.30 157.05 82.68 160.41 81.40 163.55 C 80.74 160.16 81.14 156.37 83.50 153.69 C 84.20 153.65 84.91 153.64 85.62 153.66 C 88.25 150.99 90.55 148.02 92.18 144.63 C 85.49 145.21 78.24 143.51 73.80 138.16 C 70.43 134.77 73.61 130.02 74.36 126.14 C 76.73 121.08 77.31 115.54 77.83 110.05 C 77.85 106.86 79.97 104.32 81.28 101.57 C 83.03 104.14 81.12 106.16 79.82 108.28 C 79.27 113.33 79.63 118.58 77.83 123.44 C 76.22 127.49 74.82 131.63 74.18 135.96 C 77.58 139.34 82.03 141.79 86.91 141.95 C 91.28 142.42 95.20 140.11 98.90 138.13 C 97.70 140.45 96.22 142.62 94.32 144.43 C 92.81 146.58 91.72 149.01 90.07 151.08 C 90.18 151.52 90.41 152.40 90.52 152.85 C 89.75 155.41 89.45 158.07 89.11 160.71 C 93.90 160.69 98.66 161.65 103.10 163.45 C 103.03 161.63 102.99 159.81 102.99 158.00 C 103.61 151.39 98.00 146.01 99.28 139.27 C 100.18 138.96 101.08 138.64 101.98 138.33 C 102.57 139.00 103.16 139.67 103.75 140.34 C 109.46 139.42 115.04 137.21 118.63 132.46 C 114.20 128.69 114.33 122.29 114.94 117.01 C 115.25 112.50 116.07 107.02 112.48 103.52 C 111.08 102.40 110.45 100.78 110.20 99.04 C 108.15 100.39 106.01 101.60 103.86 102.79 C 104.83 102.80 106.78 102.83 107.76 102.84 C 106.13 105.27 103.16 105.70 100.62 106.60 C 98.39 107.30 96.25 108.31 93.94 108.67 C 91.57 108.83 89.41 107.66 87.22 106.95 C 87.61 106.32 88.00 105.70 88.39 105.08 C 86.13 104.81 84.00 104.05 82.00 102.99 C 79.96 97.15 76.70 91.86 73.51 86.59 C 71.93 83.82 72.38 80.47 73.39 77.58 C 71.96 79.79 69.66 81.07 67.55 82.49 C 66.04 81.75 64.09 81.53 63.11 80.03 C 60.97 76.94 58.30 74.22 56.38 70.97 C 55.61 68.05 56.00 64.96 55.71 61.97 C 56.94 56.68 58.83 51.42 58.52 45.90 C 59.25 46.42 59.99 46.92 60.75 47.40 C 59.93 54.01 57.17 60.45 57.50 67.14 C 57.67 72.49 63.12 75.08 65.05 79.62 C 68.82 80.92 71.80 77.45 72.80 74.18 C 76.22 70.60 76.47 65.29 79.66 61.62 C 79.19 64.02 77.68 66.31 78.03 68.81 C 79.72 70.57 82.31 70.76 84.51 71.48 C 82.68 68.96 81.89 65.93 81.66 62.86 C 84.40 65.19 84.63 69.35 87.93 71.14 C 88.79 70.30 89.64 69.45 90.48 68.59 C 91.58 68.35 92.68 68.12 93.79 67.90 L 93.16 67.60 C 94.57 65.29 95.41 62.71 96.32 60.18 C 96.97 61.02 97.63 61.85 98.28 62.70 C 96.82 65.45 95.41 68.24 94.38 71.18 C 95.29 73.40 95.40 75.81 95.33 78.19 C 94.45 75.57 93.67 72.91 93.37 70.16 C 92.34 70.00 91.30 69.84 90.27 69.70 L 91.64 70.80 C 88.14 73.31 83.76 71.32 79.83 72.26 C 78.99 71.51 78.16 70.75 77.34 69.99 C 76.52 71.81 75.62 73.60 74.88 75.45 C 76.70 79.41 81.39 78.29 84.52 80.05 C 82.33 80.96 79.98 81.30 77.63 81.41 C 80.33 87.82 82.64 94.38 85.99 100.50 C 84.26 99.73 82.69 98.64 81.83 96.91 C 78.39 91.61 77.74 85.16 75.34 79.43 C 73.63 78.03 74.27 81.15 73.95 82.02 C 73.90 84.16 74.88 86.13 75.50 88.13 C 80.49 91.46 80.95 98.50 85.22 102.61 C 93.84 103.80 102.14 100.50 110.01 97.43 C 109.54 94.58 109.42 91.60 108.20 88.94 C 107.90 89.50 107.30 90.62 106.99 91.18 C 106.08 88.11 105.17 85.05 104.36 81.95 C 105.86 83.34 107.78 84.61 107.80 86.90 C 108.26 87.07 109.19 87.42 109.65 87.59 C 109.91 84.14 110.19 80.67 110.07 77.20 C 113.23 73.67 117.48 70.53 117.35 65.26 C 119.75 62.08 120.87 58.37 120.97 54.41 C 121.42 54.68 122.33 55.23 122.79 55.50 C 125.96 51.45 126.54 45.82 124.87 41.03 M 97.07 104.58 C 94.48 105.58 91.49 104.51 89.02 105.90 C 93.72 107.55 98.80 105.30 102.77 102.82 C 100.77 103.06 98.93 103.89 97.07 104.58 M 99.77 141.02 C 101.15 144.45 102.19 148.03 103.84 151.35 C 106.70 155.76 105.91 161.34 105.24 166.29 C 109.25 167.57 113.36 169.34 117.66 168.42 C 116.59 165.99 115.68 163.29 117.08 160.78 C 117.37 153.02 118.15 145.27 117.58 137.49 C 112.47 140.79 105.72 143.53 99.77 141.02 Z" />
<path fill="#333333" opacity="1.00" d=" M 121.32 41.91 C 122.31 42.07 123.31 42.21 124.31 42.35 C 124.98 47.29 121.97 51.20 119.21 54.91 C 120.00 59.92 115.31 62.72 113.84 66.99 C 111.95 71.74 108.19 75.45 103.72 77.82 C 106.03 73.85 110.27 71.34 112.02 67.01 C 112.86 64.99 113.64 62.91 115.18 61.30 C 117.17 59.32 117.02 56.35 117.95 53.87 C 119.06 51.77 120.90 50.12 121.90 47.95 C 122.40 45.93 121.63 43.90 121.32 41.91 Z" />
<path fill="#333333" opacity="1.00" d=" M 109.96 45.00 C 112.04 47.91 112.95 51.55 113.05 55.09 C 112.72 61.13 108.19 65.60 105.74 70.83 C 104.60 73.56 101.67 75.14 100.96 78.07 C 100.37 80.98 97.42 82.22 94.98 83.27 C 98.09 79.49 101.05 75.63 103.40 71.31 C 105.62 66.90 109.29 63.25 110.65 58.42 C 111.77 53.95 110.07 49.47 109.96 45.00 Z" />
<path fill="#333333" opacity="1.00" d=" M 87.98 50.59 C 91.31 53.94 95.16 56.58 99.20 59.00 C 94.66 58.06 88.48 56.00 87.98 50.59 Z" />
<path fill="#333333" opacity="1.00" d=" M 86.55 60.94 C 87.90 60.14 89.28 59.38 90.68 58.66 C 89.23 63.48 83.33 62.75 79.81 60.95 C 80.29 60.79 81.26 60.46 81.74 60.30 C 83.33 60.59 84.94 60.78 86.55 60.94 Z" />
<path fill="#333333" opacity="1.00" d=" M 82.94 84.10 C 84.64 83.28 86.35 82.48 88.06 81.69 C 87.86 82.30 87.47 83.54 87.27 84.16 C 85.83 84.14 84.38 84.12 82.94 84.10 Z" />
<path fill="#333333" opacity="1.00" d=" M 86.83 89.12 C 88.73 86.39 90.63 83.62 92.99 81.26 C 93.31 85.20 89.76 87.40 86.83 89.12 Z" />
<path fill="#333333" opacity="1.00" d=" M 99.04 97.34 C 96.69 92.38 98.03 86.88 99.02 81.77 C 99.27 82.31 99.76 83.38 100.01 83.92 C 99.39 88.37 99.40 92.87 99.04 97.34 Z" />
<path fill="#333333" opacity="1.00" d=" M 87.80 92.29 C 89.64 92.12 90.34 96.52 88.34 96.78 C 87.23 95.70 87.32 93.66 87.80 92.29 Z" />
<path fill="#333333" opacity="1.00" d=" M 90.08 98.54 C 89.37 97.56 89.73 95.32 91.03 95.09 C 91.65 96.07 91.46 98.39 90.08 98.54 Z" />
<path fill="#333333" opacity="1.00" d=" M 87.37 114.79 C 89.70 116.42 91.93 118.22 94.04 120.14 C 91.00 119.57 88.98 117.24 87.37 114.79 Z" />
<path fill="#333333" opacity="1.00" d=" M 99.39 128.11 C 101.04 125.64 103.12 123.46 105.28 121.41 C 104.85 124.15 102.82 126.04 101.24 128.14 C 100.34 130.67 100.99 133.74 98.99 135.82 C 98.78 133.26 98.70 130.61 99.39 128.11 Z" />
<path fill="#333333" opacity="1.00" d=" M 88.29 126.42 C 90.62 127.38 94.30 126.71 95.52 129.28 C 92.77 129.47 90.06 128.63 88.29 126.42 Z" />
<path fill="#333333" opacity="1.00" d=" M 71.71 159.12 C 69.90 152.58 70.37 145.01 73.77 139.09 C 74.19 144.41 71.78 149.67 73.07 154.99 C 73.94 158.29 74.33 161.68 73.75 165.07 C 73.16 167.48 74.72 169.56 75.54 171.70 C 78.27 172.74 80.88 174.06 83.54 175.28 C 82.94 174.32 81.74 172.40 81.13 171.44 C 85.22 173.73 89.00 177.07 93.85 177.49 C 98.24 178.31 102.99 177.17 107.06 179.37 C 109.50 177.75 112.67 176.09 115.59 177.53 C 117.93 178.10 118.98 180.39 119.71 182.45 C 119.11 185.37 118.21 188.61 119.76 191.40 C 122.26 196.25 121.66 202.08 120.20 207.16 C 119.35 210.48 116.22 212.22 113.71 214.18 C 111.76 214.12 109.82 213.88 107.96 213.31 C 106.69 209.97 104.96 206.66 104.84 203.02 C 104.56 199.79 107.34 197.22 106.91 193.98 C 106.77 189.74 106.55 185.51 106.41 181.27 C 101.31 180.02 95.95 180.58 90.89 179.18 C 85.45 176.71 79.18 176.49 74.26 172.80 C 71.31 168.82 72.68 163.64 71.71 159.12 M 108.46 180.90 C 108.26 186.87 110.44 193.19 107.82 198.87 C 105.83 203.05 107.53 207.67 108.88 211.75 C 109.69 212.03 111.30 212.57 112.11 212.84 C 119.05 209.78 120.21 200.79 118.65 194.22 C 117.18 190.73 116.12 186.38 118.66 183.10 C 117.66 180.67 115.63 179.18 113.16 178.49 C 111.58 179.27 110.01 180.07 108.46 180.90 Z" />
<path fill="#333333" opacity="1.00" d=" M 122.56 168.35 C 122.66 167.83 122.87 166.81 122.97 166.30 C 124.92 166.71 126.86 167.20 128.77 167.78 C 129.48 169.00 130.22 170.22 130.99 171.41 C 131.39 175.29 131.14 179.20 130.15 182.97 C 129.12 185.72 131.42 188.22 131.04 190.98 C 130.87 193.29 129.86 195.40 128.89 197.47 C 127.17 198.72 125.54 200.09 123.95 201.51 C 123.54 201.07 123.13 200.63 122.73 200.19 C 124.65 198.66 126.09 196.65 127.86 194.97 C 129.26 191.34 128.16 187.64 127.42 184.03 C 127.73 180.94 129.16 178.06 129.25 174.93 C 129.67 172.59 127.57 170.97 126.52 169.16 C 125.20 168.86 123.88 168.59 122.56 168.35 Z" />
</g>
</svg>
