<?xml version="1.0" encoding="UTF-8" ?>
<!DOCTYPE svg PUBLIC "-//W3C//DTD SVG 1.1//EN" "http://www.w3.org/Graphics/SVG/1.1/DTD/svg11.dtd">
<svg width="216pt" height="275pt" viewBox="0 0 216 275" version="1.1" xmlns="http://www.w3.org/2000/svg">
<g id="#ffffffff">
<path fill="#FFFFFF" opacity="1.00" d=" M 0.00 0.00 L 216.00 0.00 L 216.00 275.00 L 0.00 275.00 L 0.00 0.00 M 74.48 32.43 C 71.67 36.78 73.58 42.05 74.01 46.78 C 74.94 47.83 75.86 48.89 76.78 49.94 C 76.66 53.09 76.49 56.24 76.10 59.37 C 70.04 60.19 66.77 65.84 62.01 68.94 C 58.65 71.32 57.08 75.35 56.10 79.19 C 55.31 83.79 58.88 87.56 59.20 92.01 C 59.66 95.52 60.78 99.07 63.35 101.63 C 67.68 105.97 69.87 111.86 73.71 116.56 C 74.09 118.16 74.49 119.75 74.89 121.35 C 73.53 123.50 71.90 125.52 70.87 127.86 C 70.15 130.58 71.43 133.29 71.81 135.97 C 72.79 141.62 69.81 146.89 69.71 152.50 C 69.71 155.45 67.85 157.80 66.28 160.13 C 67.98 161.57 69.45 165.53 72.03 163.20 C 71.38 166.80 71.74 170.44 71.99 174.05 C 72.42 177.83 70.20 181.17 69.74 184.83 C 69.00 188.23 69.18 191.74 68.58 195.15 C 66.96 200.00 65.06 204.82 64.39 209.92 C 64.09 217.17 67.80 223.84 68.07 231.04 C 68.11 234.15 68.00 237.30 67.09 240.31 C 67.60 241.90 68.13 243.49 68.65 245.09 C 67.66 249.05 70.94 252.24 71.23 256.06 C 71.35 258.32 72.12 260.66 74.26 261.79 C 77.76 264.84 82.70 264.43 87.00 263.97 C 87.67 263.38 88.33 262.80 89.00 262.22 C 90.48 261.85 92.58 262.16 93.36 260.52 C 93.83 259.32 93.51 257.98 93.58 256.74 C 92.20 254.99 91.04 253.07 89.52 251.44 C 86.35 248.27 85.09 243.80 82.25 240.39 C 78.85 231.76 79.79 221.86 83.29 213.43 C 85.15 207.39 82.55 200.93 84.52 194.90 C 86.18 189.66 87.47 184.18 90.63 179.59 C 93.82 174.67 91.76 168.20 95.03 163.45 C 97.58 165.88 99.40 168.93 101.20 171.93 C 102.89 174.61 102.19 177.95 103.08 180.88 C 104.30 183.85 106.02 186.66 106.69 189.84 L 107.53 189.69 L 108.11 192.36 C 110.79 189.31 108.14 185.99 106.88 183.03 C 105.13 179.75 106.27 175.70 104.31 172.50 C 102.46 169.21 100.29 166.12 98.19 162.99 C 97.63 162.48 96.52 161.47 95.96 160.97 C 97.71 160.19 99.18 161.79 100.78 162.23 C 102.97 163.22 105.44 162.34 107.73 162.22 C 108.31 165.34 108.73 168.50 109.00 171.67 L 107.29 171.51 C 108.47 174.68 110.33 177.64 110.86 181.02 C 114.14 200.57 117.27 220.14 120.75 239.64 C 117.48 239.81 114.21 240.03 110.93 240.00 C 110.28 239.40 109.63 238.80 108.99 238.20 C 109.37 233.77 109.38 229.22 110.96 225.02 C 111.10 220.95 111.32 216.87 110.84 212.82 C 110.44 209.30 107.51 206.69 107.13 203.17 C 106.56 198.94 105.51 194.66 106.41 190.39 C 105.98 189.55 105.53 188.71 105.07 187.89 C 104.20 192.52 103.56 197.26 103.94 201.97 C 105.47 206.82 109.15 210.86 109.42 216.12 C 111.12 224.05 105.28 231.60 107.54 239.47 C 109.26 241.00 111.62 241.96 113.94 241.67 C 116.59 241.65 119.98 239.93 121.74 242.79 C 117.02 249.15 117.97 259.28 124.94 263.64 C 127.62 263.58 129.91 262.30 131.78 260.45 C 131.61 260.69 131.27 261.15 131.09 261.39 C 138.51 263.91 145.67 267.10 152.96 269.94 C 154.24 270.55 155.69 270.32 157.06 270.29 C 155.39 268.97 153.52 267.97 151.54 267.23 C 145.66 264.97 139.84 262.58 134.00 260.25 C 138.62 256.30 137.91 249.48 135.84 244.39 C 138.76 243.29 141.99 242.31 143.37 239.20 C 142.17 237.83 141.11 236.31 139.67 235.18 C 137.65 234.54 135.37 234.61 133.57 233.36 C 129.75 230.92 127.65 226.66 123.99 224.02 C 122.20 222.82 121.83 220.59 121.30 218.67 C 120.30 211.87 121.20 204.94 120.36 198.13 C 118.95 191.83 118.99 185.20 120.53 178.93 C 121.17 175.81 118.77 173.09 119.05 169.98 C 119.13 165.35 118.94 160.72 118.16 156.15 L 120.06 155.83 C 119.18 155.37 118.25 155.14 117.27 155.14 C 114.63 156.63 112.10 158.31 109.37 159.66 C 108.75 156.92 108.28 154.15 107.69 151.40 C 108.19 151.25 109.18 150.94 109.67 150.79 C 109.68 150.39 109.69 149.59 109.70 149.19 C 107.38 149.67 105.05 150.09 102.71 150.50 C 102.52 147.28 105.95 148.34 107.95 147.90 C 106.60 147.06 105.08 146.58 103.48 146.62 C 101.97 142.77 98.37 139.84 98.76 135.36 C 101.28 135.09 103.82 134.57 106.35 135.04 C 104.73 136.56 100.29 136.12 100.17 138.83 C 103.08 138.68 105.67 136.89 108.42 136.00 C 108.37 134.93 108.32 133.86 108.29 132.79 C 105.06 132.87 101.88 133.41 98.71 133.99 C 98.15 132.72 97.57 131.46 96.97 130.21 C 100.27 129.82 103.45 128.85 106.60 127.82 C 107.30 126.90 108.03 126.00 108.77 125.11 C 104.83 126.95 100.51 127.61 96.32 128.65 C 95.87 128.02 94.97 126.76 94.53 126.13 C 99.50 126.14 104.22 124.29 108.93 122.87 C 110.10 124.64 111.38 126.36 112.46 128.20 C 112.19 130.18 111.58 132.10 111.04 134.02 C 111.94 135.89 112.75 137.81 113.45 139.77 C 112.70 140.14 111.21 140.90 110.46 141.27 L 110.92 141.97 C 108.15 142.04 105.41 142.48 102.71 143.07 L 102.82 144.84 C 104.26 144.58 105.69 144.27 107.12 143.91 L 107.78 143.64 C 109.57 142.10 109.82 147.01 107.34 146.26 C 108.25 146.88 109.10 147.73 110.27 147.78 C 109.42 144.19 113.38 142.75 115.27 140.52 C 114.48 137.18 112.42 133.88 113.35 130.38 C 114.26 133.29 114.24 136.55 115.99 139.15 C 116.29 135.71 115.72 132.29 114.87 128.97 C 114.17 126.07 111.90 123.90 111.04 121.07 C 109.23 116.85 110.89 112.30 110.54 107.91 C 110.26 104.03 113.22 100.77 112.99 96.90 C 112.54 93.64 111.72 90.45 111.06 87.23 C 110.83 87.22 110.39 87.18 110.17 87.17 C 109.25 90.14 111.04 93.06 111.20 96.02 C 112.07 100.33 109.27 104.03 107.14 107.46 C 106.45 107.34 105.08 107.10 104.39 106.98 C 104.06 104.81 103.36 102.73 102.61 100.67 C 102.21 103.31 102.78 106.61 100.59 108.59 C 98.20 108.87 95.71 108.51 93.47 109.60 C 91.99 110.43 90.44 109.20 88.97 109.06 C 90.14 110.17 91.06 111.96 92.92 111.98 C 93.95 111.53 94.96 111.03 95.96 110.49 C 98.63 110.71 101.25 110.16 103.25 108.26 C 104.23 108.66 105.21 109.07 106.19 109.49 C 106.74 108.93 107.84 107.80 108.39 107.23 C 108.47 108.57 108.62 111.25 108.70 112.59 C 108.23 112.71 107.30 112.97 106.83 113.10 L 108.38 113.17 C 107.00 115.52 109.36 117.72 108.93 119.85 C 104.74 123.18 98.98 122.58 94.25 124.72 C 93.78 123.73 93.36 122.71 92.92 121.71 C 94.23 122.07 95.55 122.39 96.87 122.69 C 91.67 119.14 90.26 112.91 87.22 107.78 C 87.78 107.78 88.90 107.79 89.46 107.79 C 89.41 107.11 89.29 105.75 89.23 105.07 C 88.19 105.71 87.17 106.37 86.16 107.06 C 85.32 105.74 84.28 104.57 83.19 103.46 C 82.31 100.04 82.15 96.14 79.36 93.58 C 82.20 92.58 85.35 92.38 87.90 90.67 C 89.48 89.72 91.10 88.44 93.07 88.80 C 93.38 89.20 94.01 90.01 94.32 90.41 C 92.51 93.02 90.35 95.35 88.42 97.86 C 90.00 97.00 91.54 96.06 93.08 95.13 C 94.07 93.02 95.48 91.14 97.53 89.97 C 96.51 89.42 94.81 88.95 95.04 87.43 C 95.67 86.31 97.13 85.45 96.98 84.01 C 96.93 80.78 97.80 76.51 94.27 74.74 C 94.71 77.21 95.82 79.51 96.33 81.95 C 95.96 83.28 95.48 84.59 95.04 85.90 C 90.84 86.90 87.14 89.02 83.89 91.83 C 82.11 91.56 80.40 91.09 78.74 90.41 C 78.94 91.10 79.34 92.48 79.54 93.17 C 76.53 90.49 73.94 87.07 73.17 83.04 C 73.24 80.17 74.10 77.40 74.31 74.54 C 72.29 76.66 72.47 79.95 70.44 82.03 C 72.41 85.85 73.21 90.37 76.38 93.49 C 78.82 95.83 80.41 98.81 81.30 102.05 C 79.76 101.51 78.20 101.01 76.60 100.63 C 79.44 103.73 83.25 105.86 85.51 109.49 C 88.40 114.25 91.25 119.08 92.64 124.52 C 95.23 130.13 97.56 135.88 97.95 142.13 C 103.02 143.35 100.66 149.45 101.33 153.18 C 97.72 156.17 92.99 155.08 88.72 155.07 C 88.11 154.35 87.49 153.63 86.88 152.91 C 84.55 153.43 81.69 155.57 79.84 152.88 C 81.93 152.28 84.08 151.92 86.16 151.28 C 85.95 147.65 88.68 145.09 90.19 142.08 C 89.41 139.04 87.88 136.25 86.37 133.53 C 83.17 130.01 79.93 126.45 77.46 122.36 C 75.93 118.92 75.50 115.12 74.49 111.52 C 70.28 108.68 68.32 103.79 64.40 100.68 C 60.24 96.54 61.29 90.13 59.63 84.93 C 58.25 80.59 58.13 75.13 61.75 71.82 C 64.32 69.70 66.66 67.33 68.95 64.92 C 71.05 62.66 74.20 62.01 76.73 60.40 C 78.21 57.11 77.74 53.33 77.57 49.84 C 80.60 52.40 81.36 57.17 85.31 58.63 C 87.94 60.05 90.93 60.47 93.88 60.44 C 94.03 61.24 94.34 62.86 94.49 63.66 C 94.96 62.68 95.43 61.70 95.88 60.71 C 98.97 61.32 102.37 61.24 104.76 63.65 C 105.98 65.18 103.62 65.86 102.81 66.83 C 104.56 65.97 106.48 65.69 108.42 65.72 C 108.49 65.19 108.63 64.12 108.71 63.58 C 111.03 65.60 113.51 67.57 115.19 70.19 C 116.84 75.02 115.77 80.28 116.78 85.21 C 118.67 90.62 118.13 96.45 118.29 102.08 C 119.93 106.37 121.08 110.84 122.76 115.12 C 124.18 121.71 122.60 128.62 124.37 135.18 C 125.56 139.06 124.50 143.08 124.45 147.03 C 124.22 148.59 124.92 150.42 123.84 151.77 C 120.63 152.57 117.30 152.74 114.06 153.42 C 112.59 151.88 110.87 151.21 109.24 152.85 C 110.43 153.75 111.68 154.57 112.98 155.32 C 114.75 155.59 116.32 154.43 118.06 154.33 C 120.62 154.12 123.61 154.65 125.64 152.67 C 126.49 151.27 126.26 149.53 126.52 147.97 L 128.85 148.10 C 127.80 147.01 125.48 146.42 126.23 144.52 C 128.63 143.87 131.50 142.94 133.27 145.26 C 131.98 145.45 129.41 145.83 128.13 146.02 C 128.88 146.53 129.63 147.05 130.39 147.56 C 132.01 147.10 133.63 146.64 135.26 146.21 C 134.55 144.73 133.88 143.22 132.96 141.84 C 130.96 142.05 128.99 142.49 127.01 142.84 C 127.22 139.53 127.01 136.17 125.65 133.10 C 123.89 129.26 125.41 125.05 125.08 121.02 C 125.42 115.53 123.11 110.47 121.75 105.28 C 121.22 103.89 120.35 102.67 119.56 101.43 C 119.96 96.07 120.88 90.39 118.90 85.23 C 117.46 82.01 118.69 78.46 118.16 75.09 C 118.13 70.59 115.20 66.67 111.46 64.44 C 106.50 62.72 102.22 59.17 96.71 59.49 C 97.53 57.00 97.81 54.39 98.11 51.80 C 101.06 46.11 98.44 39.89 97.48 34.08 C 96.82 29.82 92.33 26.99 88.18 27.26 C 83.20 26.74 77.30 27.85 74.48 32.43 M 80.04 57.81 C 80.64 59.28 81.26 60.73 81.87 62.19 C 82.38 62.33 83.40 62.63 83.91 62.77 C 82.80 60.98 81.45 59.36 80.04 57.81 M 76.65 67.96 C 76.55 68.34 76.36 69.12 76.26 69.51 C 80.77 68.80 85.42 67.11 89.85 69.20 C 91.70 70.22 93.32 68.89 94.76 67.83 C 92.81 67.86 90.84 67.79 88.98 67.17 C 84.88 65.94 80.71 67.34 76.65 67.96 M 67.12 69.15 C 69.61 68.88 71.58 70.19 73.47 71.58 C 74.04 70.59 74.92 69.60 74.65 68.38 C 72.13 67.11 69.44 67.86 67.12 69.15 M 105.71 69.34 C 108.20 74.00 110.87 79.32 108.61 84.66 C 104.98 85.31 101.26 85.47 97.62 84.82 C 99.08 85.55 100.51 86.34 102.05 86.92 C 104.41 86.52 106.77 86.03 109.19 86.20 C 111.42 85.73 111.11 82.82 111.32 81.06 C 111.91 76.48 109.37 71.95 105.71 69.34 M 99.02 90.83 C 100.83 92.20 101.55 94.27 101.25 96.51 C 98.15 96.95 95.53 98.71 92.70 99.88 C 92.00 100.73 91.30 101.58 90.60 102.44 C 88.77 101.59 87.07 100.49 85.36 99.43 C 85.55 102.51 88.47 103.28 90.93 103.89 C 92.27 102.41 93.81 101.11 95.82 100.68 C 96.18 100.33 96.88 99.62 97.24 99.27 C 99.07 98.89 100.84 98.27 102.46 97.32 C 105.20 97.53 107.91 97.99 110.57 98.69 C 109.24 95.61 105.79 95.86 102.99 95.75 C 102.49 94.34 101.80 93.01 101.03 91.73 C 101.92 91.08 102.80 90.43 103.69 89.77 C 104.94 90.11 106.19 90.43 107.46 90.67 C 106.30 89.95 105.32 88.78 103.96 88.45 C 102.29 89.23 101.00 90.79 99.02 90.83 M 62.65 94.83 C 65.29 96.32 68.07 97.88 69.27 100.84 C 70.74 102.84 71.91 107.17 75.11 105.73 C 71.46 103.52 70.94 98.92 68.03 96.08 C 66.55 94.79 64.46 95.07 62.65 94.83 M 91.24 113.83 C 91.90 114.38 91.90 114.38 91.24 113.83 M 101.48 115.15 C 101.32 115.56 100.99 116.37 100.82 116.78 C 102.33 120.02 104.73 113.31 101.48 115.15 M 111.71 230.30 C 112.64 231.69 113.57 233.10 114.59 234.43 C 114.03 231.56 113.56 228.68 113.24 225.78 C 112.62 227.25 112.17 228.77 111.71 230.30 Z" />
<path fill="#FFFFFF" opacity="1.00" d=" M 78.48 31.38 C 82.09 28.45 86.89 28.46 91.29 28.60 C 92.69 29.86 94.19 31.05 95.32 32.58 C 98.39 40.42 98.96 49.46 95.72 57.40 C 94.75 57.87 93.79 58.33 92.84 58.81 C 90.18 57.98 87.51 57.16 84.98 56.03 C 82.68 54.90 81.85 52.29 80.86 50.12 C 79.18 49.10 77.47 48.10 76.00 46.78 C 75.96 45.09 76.62 43.50 77.03 41.89 C 76.42 42.05 75.20 42.36 74.59 42.52 C 74.24 38.52 74.78 33.75 78.48 31.38 Z" />
<path fill="#FFFFFF" opacity="1.00" d=" M 73.77 124.11 C 74.42 124.19 75.72 124.34 76.36 124.42 C 77.04 125.10 78.39 126.46 79.06 127.14 C 77.68 129.23 76.59 131.52 76.39 134.06 C 76.86 134.20 77.81 134.50 78.28 134.65 C 78.31 133.97 78.37 132.62 78.40 131.94 C 78.73 130.63 79.01 129.32 79.27 128.00 C 80.53 130.23 82.17 132.19 83.95 134.01 C 80.79 134.99 77.67 136.55 75.49 139.11 C 78.82 138.69 81.59 136.68 84.38 135.00 C 85.40 137.01 86.41 139.04 87.10 141.20 C 88.56 144.78 83.86 146.55 83.98 150.06 C 82.96 150.48 81.94 150.92 80.92 151.36 C 80.23 151.26 78.85 151.05 78.16 150.95 C 77.66 151.96 77.16 152.97 76.67 153.99 C 77.23 154.79 77.80 155.60 78.37 156.41 C 80.57 155.85 82.80 155.31 85.08 155.32 C 86.76 156.07 88.10 157.78 90.14 157.25 C 94.99 157.22 102.51 158.28 103.91 152.01 C 104.48 152.07 105.63 152.18 106.21 152.24 C 106.57 155.12 106.85 158.01 106.86 160.91 C 103.39 161.10 100.04 160.23 96.72 159.34 C 94.22 157.80 94.41 161.14 93.54 162.61 C 91.37 164.90 88.03 165.44 85.06 165.94 C 81.12 166.54 77.64 164.30 74.10 162.99 C 74.07 161.09 74.02 159.19 73.89 157.30 C 72.17 158.38 71.49 160.36 70.57 162.07 C 70.13 161.49 69.24 160.35 68.80 159.77 C 71.73 155.40 71.43 149.99 73.11 145.17 C 74.30 140.47 73.70 135.50 72.62 130.84 C 71.97 128.52 73.21 126.30 73.77 124.11 Z" />
<path fill="#FFFFFF" opacity="1.00" d=" M 109.59 161.75 C 112.14 160.09 114.77 158.56 117.18 156.68 C 117.46 161.00 117.66 165.33 117.96 169.65 C 117.47 169.63 116.49 169.61 116.00 169.60 C 115.32 171.77 114.55 173.90 113.67 175.99 C 113.20 175.92 112.26 175.77 111.80 175.69 C 111.27 171.01 110.22 166.41 109.59 161.75 Z" />
<path fill="#FFFFFF" opacity="1.00" d=" M 73.03 164.65 C 76.01 165.68 78.77 167.44 81.91 167.98 C 85.38 168.16 88.76 167.17 92.11 166.43 C 91.33 171.65 90.67 177.15 87.56 181.60 C 84.82 186.74 83.50 192.50 81.56 197.97 C 79.59 201.74 77.44 205.56 76.87 209.85 C 76.65 212.17 76.09 214.83 77.79 216.76 C 79.01 211.50 78.39 205.71 81.83 201.15 C 81.94 204.44 82.19 207.77 81.80 211.05 C 81.02 214.44 79.05 217.47 78.54 220.95 C 77.59 227.00 77.91 233.32 79.95 239.14 C 81.07 241.90 82.97 244.26 84.31 246.92 C 86.43 251.47 90.59 254.60 92.82 259.11 C 91.63 259.50 90.44 259.88 89.24 260.23 C 88.32 258.86 87.40 257.49 86.37 256.20 C 83.20 257.15 79.89 256.80 76.66 257.15 C 76.39 257.55 75.84 258.35 75.57 258.75 C 76.57 258.62 77.57 258.50 78.57 258.38 C 81.67 260.11 85.82 256.45 87.89 260.22 C 83.79 263.84 77.22 262.66 74.13 258.33 C 73.80 250.68 67.34 243.93 69.71 236.12 C 71.30 226.53 64.79 217.70 66.19 208.13 C 66.98 204.11 68.31 200.20 70.03 196.48 C 71.53 199.31 71.63 203.09 74.39 205.12 C 73.10 199.79 71.35 194.55 70.71 189.09 C 70.81 184.54 73.02 180.47 73.98 176.11 C 74.06 172.27 73.27 168.47 73.03 164.65 M 76.45 179.87 C 76.30 181.67 76.16 183.47 76.10 185.28 C 76.77 184.13 77.44 182.97 78.09 181.82 C 79.79 181.43 81.47 181.00 83.15 180.51 C 83.89 181.56 84.66 182.59 85.47 183.60 C 85.00 181.72 84.38 179.88 83.74 178.05 C 81.47 179.22 79.01 179.88 76.45 179.87 M 77.75 189.18 C 78.59 191.41 80.74 191.17 82.73 190.84 C 81.80 188.83 79.54 189.23 77.75 189.18 M 71.57 242.79 C 72.63 241.86 73.66 240.91 74.67 239.92 C 75.37 237.99 76.34 236.17 77.26 234.34 C 73.63 235.41 72.72 239.68 71.57 242.79 Z" />
<path fill="#FFFFFF" opacity="1.00" d=" M 117.32 172.14 C 119.56 175.45 119.10 179.41 118.09 183.05 C 117.80 187.88 116.84 192.79 118.11 197.56 C 119.59 204.14 118.45 210.87 118.53 217.53 C 117.05 204.34 114.43 191.31 112.30 178.22 C 114.52 176.68 115.97 174.42 117.32 172.14 Z" />
<path fill="#FFFFFF" opacity="1.00" d=" M 119.18 219.42 C 120.50 219.79 120.69 220.53 119.77 221.64 C 118.45 221.28 118.26 220.54 119.18 219.42 Z" />
<path fill="#FFFFFF" opacity="1.00" d=" M 120.02 222.88 C 123.28 225.66 126.30 228.72 128.91 232.13 C 131.30 235.31 135.15 236.87 139.02 237.24 C 139.74 238.17 140.45 239.11 141.15 240.06 C 139.28 241.10 137.48 242.26 135.60 243.27 C 134.02 242.21 132.55 241.00 131.00 239.91 C 129.18 240.31 127.34 240.71 125.60 241.41 C 124.57 240.79 123.54 240.17 122.51 239.55 C 121.77 233.98 120.49 228.49 120.02 222.88 Z" />
<path fill="#FFFFFF" opacity="1.00" d=" M 128.14 242.26 C 128.40 242.02 128.91 241.55 129.17 241.32 C 130.44 242.19 131.73 243.05 133.03 243.89 C 134.44 246.68 135.70 249.73 135.43 252.92 C 135.17 255.32 133.60 257.21 132.42 259.22 C 134.58 253.38 133.27 246.14 128.14 242.26 Z" />
<path fill="#FFFFFF" opacity="1.00" d=" M 121.31 248.91 C 121.34 246.37 123.93 245.03 125.37 243.25 C 130.64 246.01 132.97 253.04 130.38 258.39 C 129.35 260.71 125.94 261.91 123.98 260.03 C 120.71 257.37 121.14 252.68 121.31 248.91 Z" />
</g>
<g id="#414241ff">
<path fill="#333333" opacity="1.00" d=" M 74.48 32.43 C 77.30 27.85 83.20 26.74 88.18 27.26 C 92.33 26.99 96.82 29.82 97.48 34.08 C 98.44 39.89 101.06 46.11 98.11 51.80 C 97.81 54.39 97.53 57.00 96.71 59.49 C 102.22 59.17 106.50 62.72 111.46 64.44 C 115.20 66.67 118.13 70.59 118.16 75.09 C 118.69 78.46 117.46 82.01 118.90 85.23 C 120.88 90.39 119.96 96.07 119.56 101.43 C 120.35 102.67 121.22 103.89 121.75 105.28 C 123.11 110.47 125.42 115.53 125.08 121.02 C 125.41 125.05 123.89 129.26 125.65 133.10 C 127.01 136.17 127.22 139.53 127.01 142.84 C 128.99 142.49 130.96 142.05 132.96 141.84 C 133.88 143.22 134.55 144.73 135.26 146.21 C 133.63 146.64 132.01 147.10 130.39 147.56 C 129.63 147.05 128.88 146.53 128.13 146.02 C 129.41 145.83 131.98 145.45 133.27 145.26 C 131.50 142.94 128.63 143.87 126.23 144.52 C 125.48 146.42 127.80 147.01 128.85 148.10 L 126.52 147.97 C 126.26 149.53 126.49 151.27 125.64 152.67 C 123.61 154.65 120.62 154.12 118.06 154.33 C 116.32 154.43 114.75 155.59 112.98 155.32 C 111.68 154.57 110.43 153.75 109.24 152.85 C 110.87 151.21 112.59 151.88 114.06 153.42 C 117.30 152.74 120.63 152.57 123.84 151.77 C 124.92 150.42 124.22 148.59 124.45 147.03 C 124.50 143.08 125.56 139.06 124.37 135.18 C 122.60 128.62 124.18 121.71 122.76 115.12 C 121.08 110.84 119.93 106.37 118.29 102.08 C 118.13 96.45 118.67 90.62 116.78 85.21 C 115.77 80.28 116.84 75.02 115.19 70.19 C 113.51 67.57 111.03 65.60 108.71 63.58 C 108.63 64.12 108.49 65.19 108.42 65.72 C 106.48 65.69 104.56 65.97 102.81 66.83 C 103.62 65.86 105.98 65.18 104.76 63.65 C 102.37 61.24 98.97 61.32 95.88 60.71 C 95.43 61.70 94.96 62.68 94.49 63.66 C 94.34 62.86 94.03 61.24 93.88 60.44 C 90.93 60.47 87.94 60.05 85.31 58.63 C 81.36 57.17 80.60 52.40 77.57 49.84 C 77.74 53.33 78.21 57.11 76.73 60.40 C 74.20 62.01 71.05 62.66 68.95 64.92 C 66.66 67.33 64.32 69.70 61.75 71.82 C 58.13 75.13 58.25 80.59 59.63 84.93 C 61.29 90.13 60.24 96.54 64.40 100.68 C 68.32 103.79 70.28 108.68 74.49 111.52 C 75.50 115.12 75.93 118.92 77.46 122.36 C 79.93 126.45 83.17 130.01 86.37 133.53 C 87.88 136.25 89.41 139.04 90.19 142.08 C 88.68 145.09 85.95 147.65 86.16 151.28 C 84.08 151.92 81.93 152.28 79.84 152.88 C 81.69 155.57 84.55 153.43 86.88 152.91 C 87.49 153.63 88.11 154.35 88.72 155.07 C 92.99 155.08 97.72 156.17 101.33 153.18 C 100.66 149.45 103.02 143.35 97.95 142.13 C 97.56 135.88 95.23 130.13 92.64 124.52 C 91.25 119.08 88.40 114.25 85.51 109.49 C 83.25 105.86 79.44 103.73 76.60 100.63 C 78.20 101.01 79.76 101.51 81.30 102.05 C 80.41 98.81 78.82 95.83 76.38 93.49 C 73.21 90.37 72.41 85.85 70.44 82.03 C 72.47 79.95 72.29 76.66 74.31 74.54 C 74.10 77.40 73.24 80.17 73.17 83.04 C 73.94 87.07 76.53 90.49 79.54 93.17 C 79.34 92.48 78.94 91.10 78.74 90.41 C 80.40 91.09 82.11 91.56 83.89 91.83 C 87.14 89.02 90.84 86.90 95.04 85.90 C 95.48 84.59 95.96 83.28 96.33 81.95 C 95.82 79.51 94.71 77.21 94.27 74.74 C 97.80 76.51 96.93 80.78 96.98 84.01 C 97.13 85.45 95.67 86.31 95.04 87.43 C 94.81 88.95 96.51 89.42 97.53 89.97 C 95.48 91.14 94.07 93.02 93.08 95.13 C 91.54 96.06 90.00 97.00 88.42 97.86 C 90.35 95.35 92.51 93.02 94.32 90.41 C 94.01 90.01 93.38 89.20 93.07 88.80 C 91.10 88.44 89.48 89.72 87.90 90.67 C 85.35 92.38 82.20 92.58 79.36 93.58 C 82.15 96.14 82.31 100.04 83.19 103.46 C 84.28 104.57 85.32 105.74 86.16 107.06 C 87.17 106.37 88.19 105.71 89.23 105.07 C 89.29 105.75 89.41 107.11 89.46 107.79 C 88.90 107.79 87.78 107.78 87.22 107.78 C 90.26 112.91 91.67 119.14 96.87 122.69 C 95.55 122.39 94.23 122.07 92.92 121.71 C 93.36 122.71 93.78 123.73 94.25 124.72 C 98.98 122.58 104.74 123.18 108.93 119.85 C 109.36 117.72 107.00 115.52 108.38 113.17 L 106.83 113.10 C 107.30 112.97 108.23 112.71 108.70 112.59 C 108.62 111.25 108.47 108.57 108.39 107.23 C 107.84 107.80 106.74 108.93 106.19 109.49 C 105.21 109.07 104.23 108.66 103.25 108.26 C 101.25 110.16 98.63 110.71 95.96 110.49 C 94.96 111.03 93.95 111.53 92.92 111.98 C 91.06 111.96 90.14 110.17 88.97 109.06 C 90.44 109.20 91.99 110.43 93.47 109.60 C 95.71 108.51 98.20 108.87 100.59 108.59 C 102.78 106.61 102.21 103.31 102.61 100.67 C 103.36 102.73 104.06 104.81 104.39 106.98 C 105.08 107.10 106.45 107.34 107.14 107.46 C 109.27 104.03 112.07 100.33 111.20 96.02 C 111.04 93.06 109.25 90.14 110.17 87.17 C 110.39 87.18 110.83 87.22 111.06 87.23 C 111.72 90.45 112.54 93.64 112.99 96.90 C 113.22 100.77 110.26 104.03 110.54 107.91 C 110.89 112.30 109.23 116.85 111.04 121.07 C 111.90 123.90 114.17 126.07 114.87 128.97 C 115.72 132.29 116.29 135.71 115.99 139.15 C 114.24 136.55 114.26 133.29 113.35 130.38 C 112.42 133.88 114.48 137.18 115.27 140.52 C 113.38 142.75 109.42 144.19 110.27 147.78 C 109.10 147.73 108.25 146.88 107.34 146.26 C 109.82 147.01 109.57 142.10 107.78 143.64 L 107.12 143.91 C 105.69 144.27 104.26 144.58 102.82 144.84 L 102.71 143.07 C 105.41 142.48 108.15 142.04 110.92 141.97 L 110.46 141.27 C 111.21 140.90 112.70 140.14 113.45 139.77 C 112.75 137.81 111.94 135.89 111.04 134.02 C 111.58 132.10 112.19 130.18 112.46 128.20 C 111.38 126.36 110.10 124.64 108.93 122.87 C 104.22 124.29 99.50 126.14 94.53 126.13 C 94.97 126.76 95.87 128.02 96.32 128.65 C 100.51 127.61 104.83 126.95 108.77 125.11 C 108.03 126.00 107.30 126.90 106.60 127.82 C 103.45 128.85 100.27 129.82 96.97 130.21 C 97.57 131.46 98.15 132.72 98.71 133.99 C 101.88 133.41 105.06 132.87 108.29 132.79 C 108.32 133.86 108.37 134.93 108.42 136.00 C 105.67 136.89 103.08 138.68 100.17 138.83 C 100.29 136.12 104.73 136.56 106.35 135.04 C 103.82 134.57 101.28 135.09 98.76 135.36 C 98.37 139.84 101.97 142.77 103.48 146.62 C 105.08 146.58 106.60 147.06 107.95 147.90 C 105.95 148.34 102.52 147.28 102.71 150.50 C 105.05 150.09 107.38 149.67 109.70 149.19 C 109.69 149.59 109.68 150.39 109.67 150.79 C 109.18 150.94 108.19 151.25 107.69 151.40 C 108.28 154.15 108.75 156.92 109.37 159.66 C 112.10 158.31 114.63 156.63 117.27 155.14 C 118.25 155.14 119.18 155.37 120.06 155.83 L 118.16 156.15 C 118.94 160.72 119.13 165.35 119.05 169.98 C 118.77 173.09 121.17 175.81 120.53 178.93 C 118.99 185.20 118.95 191.83 120.36 198.13 C 121.20 204.94 120.30 211.87 121.30 218.67 C 121.83 220.59 122.20 222.82 123.99 224.02 C 127.65 226.66 129.75 230.92 133.57 233.36 C 135.37 234.61 137.65 234.54 139.67 235.18 C 141.11 236.31 142.17 237.83 143.37 239.20 C 141.99 242.31 138.76 243.29 135.84 244.39 C 137.91 249.48 138.62 256.30 134.00 260.25 C 139.84 262.58 145.66 264.97 151.54 267.23 C 153.52 267.97 155.39 268.97 157.06 270.29 C 155.69 270.32 154.24 270.55 152.96 269.94 C 145.67 267.10 138.51 263.91 131.09 261.39 C 131.27 261.15 131.61 260.69 131.78 260.45 C 129.91 262.30 127.62 263.58 124.94 263.64 C 117.97 259.28 117.02 249.15 121.74 242.79 C 119.98 239.93 116.59 241.65 113.94 241.67 C 111.62 241.96 109.26 241.00 107.54 239.47 C 105.28 231.60 111.12 224.05 109.42 216.12 C 109.15 210.86 105.47 206.82 103.94 201.97 C 103.56 197.26 104.20 192.52 105.07 187.89 C 105.53 188.71 105.98 189.55 106.41 190.39 C 105.51 194.66 106.56 198.94 107.13 203.17 C 107.51 206.69 110.44 209.30 110.84 212.82 C 111.32 216.87 111.10 220.95 110.96 225.02 C 109.38 229.22 109.37 233.77 108.99 238.20 C 109.63 238.80 110.28 239.40 110.93 240.00 C 114.21 240.03 117.48 239.81 120.75 239.64 C 117.27 220.14 114.14 200.57 110.86 181.02 C 110.33 177.64 108.47 174.68 107.29 171.51 L 109.00 171.67 C 108.73 168.50 108.31 165.34 107.73 162.22 C 105.44 162.34 102.97 163.22 100.78 162.23 C 99.18 161.79 97.71 160.19 95.96 160.97 C 96.52 161.47 97.63 162.48 98.19 162.99 C 100.29 166.12 102.46 169.21 104.31 172.50 C 106.27 175.70 105.13 179.75 106.88 183.03 C 108.14 185.99 110.79 189.31 108.11 192.36 L 107.53 189.69 L 106.69 189.84 C 106.02 186.66 104.30 183.85 103.08 180.88 C 102.19 177.95 102.89 174.61 101.20 171.93 C 99.40 168.93 97.58 165.88 95.03 163.45 C 91.76 168.20 93.82 174.67 90.63 179.59 C 87.47 184.18 86.18 189.66 84.52 194.90 C 82.55 200.93 85.15 207.39 83.29 213.43 C 79.79 221.86 78.85 231.76 82.25 240.39 C 85.09 243.80 86.35 248.27 89.52 251.44 C 91.04 253.07 92.20 254.99 93.58 256.74 C 93.51 257.98 93.83 259.32 93.36 260.52 C 92.58 262.16 90.48 261.85 89.00 262.22 C 88.33 262.80 87.67 263.38 87.00 263.97 C 82.70 264.43 77.76 264.84 74.26 261.79 C 72.12 260.66 71.35 258.32 71.23 256.06 C 70.94 252.24 67.66 249.05 68.65 245.09 C 68.13 243.49 67.60 241.90 67.09 240.31 C 68.00 237.30 68.11 234.15 68.07 231.04 C 67.80 223.84 64.09 217.17 64.39 209.92 C 65.06 204.82 66.96 200.00 68.58 195.15 C 69.18 191.74 69.00 188.23 69.74 184.83 C 70.20 181.17 72.42 177.83 71.99 174.05 C 71.74 170.44 71.38 166.80 72.03 163.20 C 69.45 165.53 67.98 161.57 66.28 160.13 C 67.85 157.80 69.71 155.45 69.71 152.50 C 69.81 146.89 72.79 141.62 71.81 135.97 C 71.43 133.29 70.15 130.58 70.87 127.86 C 71.90 125.52 73.53 123.50 74.89 121.35 C 74.49 119.75 74.09 118.16 73.71 116.56 C 69.87 111.86 67.68 105.97 63.35 101.63 C 60.78 99.07 59.66 95.52 59.20 92.01 C 58.88 87.56 55.31 83.79 56.10 79.19 C 57.08 75.35 58.65 71.32 62.01 68.94 C 66.77 65.84 70.04 60.19 76.10 59.37 C 76.49 56.24 76.66 53.09 76.78 49.94 C 75.86 48.89 74.94 47.83 74.01 46.78 C 73.58 42.05 71.67 36.78 74.48 32.43 M 78.48 31.38 C 74.78 33.75 74.24 38.52 74.59 42.52 C 75.20 42.36 76.42 42.05 77.03 41.89 C 76.62 43.50 75.96 45.09 76.00 46.78 C 77.47 48.10 79.18 49.10 80.86 50.12 C 81.85 52.29 82.68 54.90 84.98 56.03 C 87.51 57.16 90.18 57.98 92.84 58.81 C 93.79 58.33 94.75 57.87 95.72 57.40 C 98.96 49.46 98.39 40.42 95.32 32.58 C 94.19 31.05 92.69 29.86 91.29 28.60 C 86.89 28.46 82.09 28.45 78.48 31.38 M 73.77 124.11 C 73.21 126.30 71.97 128.52 72.62 130.84 C 73.70 135.50 74.30 140.47 73.11 145.17 C 71.43 149.99 71.73 155.40 68.80 159.77 C 69.24 160.35 70.13 161.49 70.57 162.07 C 71.49 160.36 72.17 158.38 73.89 157.30 C 74.02 159.19 74.07 161.09 74.10 162.99 C 77.64 164.30 81.12 166.54 85.06 165.94 C 88.03 165.44 91.37 164.90 93.54 162.61 C 94.41 161.14 94.22 157.80 96.72 159.34 C 100.04 160.23 103.39 161.10 106.86 160.91 C 106.85 158.01 106.57 155.12 106.21 152.24 C 105.63 152.18 104.48 152.07 103.91 152.01 C 102.51 158.28 94.99 157.22 90.14 157.25 C 88.10 157.78 86.76 156.07 85.08 155.32 C 82.80 155.31 80.57 155.85 78.37 156.41 C 77.80 155.60 77.23 154.79 76.67 153.99 C 77.16 152.97 77.66 151.96 78.16 150.95 C 78.85 151.05 80.23 151.26 80.92 151.36 C 81.94 150.92 82.96 150.48 83.98 150.06 C 83.86 146.55 88.56 144.78 87.10 141.20 C 86.41 139.04 85.40 137.01 84.38 135.00 C 81.59 136.68 78.82 138.69 75.49 139.11 C 77.67 136.55 80.79 134.99 83.95 134.01 C 82.17 132.19 80.53 130.23 79.27 128.00 C 79.01 129.32 78.73 130.63 78.40 131.94 C 78.37 132.62 78.31 133.97 78.28 134.65 C 77.81 134.50 76.86 134.20 76.39 134.06 C 76.59 131.52 77.68 129.23 79.06 127.14 C 78.39 126.46 77.04 125.10 76.36 124.42 C 75.72 124.34 74.42 124.19 73.77 124.11 M 109.59 161.75 C 110.22 166.41 111.27 171.01 111.80 175.69 C 112.26 175.77 113.20 175.92 113.67 175.99 C 114.55 173.90 115.32 171.77 116.00 169.60 C 116.49 169.61 117.47 169.63 117.96 169.65 C 117.66 165.33 117.46 161.00 117.18 156.68 C 114.77 158.56 112.14 160.09 109.59 161.75 M 73.03 164.65 C 73.27 168.47 74.06 172.27 73.98 176.11 C 73.02 180.47 70.81 184.54 70.71 189.09 C 71.35 194.55 73.10 199.79 74.39 205.12 C 71.63 203.09 71.53 199.31 70.03 196.48 C 68.31 200.20 66.98 204.11 66.19 208.13 C 64.79 217.70 71.30 226.53 69.71 236.12 C 67.34 243.93 73.80 250.68 74.13 258.33 C 77.22 262.66 83.79 263.84 87.89 260.22 C 85.82 256.45 81.67 260.11 78.57 258.38 C 77.57 258.50 76.57 258.62 75.57 258.75 C 75.84 258.35 76.39 257.55 76.66 257.15 C 79.89 256.80 83.20 257.15 86.37 256.20 C 87.40 257.49 88.32 258.86 89.24 260.23 C 90.44 259.88 91.63 259.50 92.82 259.11 C 90.59 254.60 86.43 251.47 84.31 246.92 C 82.97 244.26 81.07 241.90 79.95 239.14 C 77.91 233.32 77.59 227.00 78.54 220.95 C 79.05 217.47 81.02 214.44 81.80 211.05 C 82.19 207.77 81.94 204.44 81.83 201.15 C 78.39 205.71 79.01 211.50 77.79 216.76 C 76.09 214.83 76.65 212.17 76.87 209.85 C 77.44 205.56 79.59 201.74 81.56 197.97 C 83.50 192.50 84.82 186.74 87.56 181.60 C 90.67 177.15 91.33 171.65 92.11 166.43 C 88.76 167.17 85.38 168.16 81.91 167.98 C 78.77 167.44 76.01 165.68 73.03 164.65 M 117.32 172.14 C 115.97 174.42 114.52 176.68 112.30 178.22 C 114.43 191.31 117.05 204.34 118.53 217.53 C 118.45 210.87 119.59 204.14 118.11 197.56 C 116.84 192.79 117.80 187.88 118.09 183.05 C 119.10 179.41 119.56 175.45 117.32 172.14 M 119.18 219.42 C 118.26 220.54 118.45 221.28 119.77 221.64 C 120.69 220.53 120.50 219.79 119.18 219.42 M 120.02 222.88 C 120.49 228.49 121.77 233.98 122.51 239.55 C 123.54 240.17 124.57 240.79 125.60 241.41 C 127.34 240.71 129.18 240.31 131.00 239.91 C 132.55 241.00 134.02 242.21 135.60 243.27 C 137.48 242.26 139.28 241.10 141.15 240.06 C 140.45 239.11 139.74 238.17 139.02 237.24 C 135.15 236.87 131.30 235.31 128.91 232.13 C 126.30 228.72 123.28 225.66 120.02 222.88 M 128.14 242.26 C 133.27 246.14 134.58 253.38 132.42 259.22 C 133.60 257.21 135.17 255.32 135.43 252.92 C 135.70 249.73 134.44 246.68 133.03 243.89 C 131.73 243.05 130.44 242.19 129.17 241.32 C 128.91 241.55 128.40 242.02 128.14 242.26 M 121.31 248.91 C 121.14 252.68 120.71 257.37 123.98 260.03 C 125.94 261.91 129.35 260.71 130.38 258.39 C 132.97 253.04 130.64 246.01 125.37 243.25 C 123.93 245.03 121.34 246.37 121.31 248.91 Z" />
<path fill="#333333" opacity="1.00" d=" M 80.04 57.81 C 81.45 59.36 82.80 60.98 83.91 62.77 C 83.40 62.63 82.38 62.33 81.87 62.19 C 81.26 60.73 80.64 59.28 80.04 57.81 Z" />
<path fill="#333333" opacity="1.00" d=" M 76.65 67.96 C 80.71 67.34 84.88 65.94 88.98 67.17 C 90.84 67.79 92.81 67.86 94.76 67.83 C 93.32 68.89 91.70 70.22 89.85 69.20 C 85.42 67.11 80.77 68.80 76.26 69.51 C 76.36 69.12 76.55 68.34 76.65 67.96 Z" />
<path fill="#333333" opacity="1.00" d=" M 67.12 69.15 C 69.44 67.86 72.13 67.11 74.65 68.38 C 74.92 69.60 74.04 70.59 73.47 71.58 C 71.58 70.19 69.61 68.88 67.12 69.15 Z" />
<path fill="#333333" opacity="1.00" d=" M 105.71 69.34 C 109.37 71.95 111.91 76.48 111.32 81.06 C 111.11 82.82 111.42 85.73 109.19 86.20 C 106.77 86.03 104.41 86.52 102.05 86.92 C 100.51 86.34 99.08 85.55 97.62 84.82 C 101.26 85.47 104.98 85.31 108.61 84.66 C 110.87 79.32 108.20 74.00 105.71 69.34 Z" />
<path fill="#333333" opacity="1.00" d=" M 99.02 90.83 C 101.00 90.79 102.29 89.23 103.96 88.45 C 105.32 88.78 106.30 89.95 107.46 90.67 C 106.19 90.43 104.94 90.11 103.69 89.77 C 102.80 90.43 101.92 91.08 101.03 91.73 C 101.80 93.01 102.49 94.34 102.99 95.75 C 105.79 95.86 109.24 95.61 110.57 98.69 C 107.91 97.99 105.20 97.53 102.46 97.32 C 100.84 98.27 99.07 98.89 97.24 99.27 C 96.88 99.62 96.18 100.33 95.82 100.68 C 93.81 101.11 92.27 102.41 90.93 103.89 C 88.47 103.28 85.55 102.51 85.36 99.43 C 87.07 100.49 88.77 101.59 90.60 102.44 C 91.30 101.58 92.00 100.73 92.70 99.88 C 95.53 98.71 98.15 96.95 101.25 96.51 C 101.55 94.27 100.83 92.20 99.02 90.83 Z" />
<path fill="#333333" opacity="1.00" d=" M 62.65 94.83 C 64.46 95.07 66.55 94.79 68.03 96.08 C 70.94 98.92 71.46 103.52 75.11 105.73 C 71.91 107.17 70.74 102.84 69.27 100.84 C 68.07 97.88 65.29 96.32 62.65 94.83 Z" />
<path fill="#333333" opacity="1.00" d=" M 91.24 113.83 C 91.90 114.38 91.90 114.38 91.24 113.83 Z" />
<path fill="#333333" opacity="1.00" d=" M 101.48 115.15 C 104.73 113.31 102.33 120.02 100.82 116.78 C 100.99 116.37 101.32 115.56 101.48 115.15 Z" />
<path fill="#333333" opacity="1.00" d=" M 76.45 179.87 C 79.01 179.88 81.47 179.22 83.74 178.05 C 84.38 179.88 85.00 181.72 85.47 183.60 C 84.66 182.59 83.89 181.56 83.15 180.51 C 81.47 181.00 79.79 181.43 78.09 181.82 C 77.44 182.97 76.77 184.13 76.10 185.28 C 76.16 183.47 76.30 181.67 76.45 179.87 Z" />
<path fill="#333333" opacity="1.00" d=" M 77.75 189.18 C 79.54 189.23 81.80 188.83 82.73 190.84 C 80.74 191.17 78.59 191.41 77.75 189.18 Z" />
<path fill="#333333" opacity="1.00" d=" M 111.71 230.30 C 112.17 228.77 112.62 227.25 113.24 225.78 C 113.56 228.68 114.03 231.56 114.59 234.43 C 113.57 233.10 112.64 231.69 111.71 230.30 Z" />
<path fill="#333333" opacity="1.00" d=" M 71.57 242.79 C 72.72 239.68 73.63 235.41 77.26 234.34 C 76.34 236.17 75.37 237.99 74.67 239.92 C 73.66 240.91 72.63 241.86 71.57 242.79 Z" />
</g>
</svg>
