<?xml version="1.0" encoding="UTF-8" ?>
<!DOCTYPE svg PUBLIC "-//W3C//DTD SVG 1.1//EN" "http://www.w3.org/Graphics/SVG/1.1/DTD/svg11.dtd">
<svg width="250pt" height="225pt" viewBox="0 0 250 225" version="1.1" xmlns="http://www.w3.org/2000/svg">
<g id="#ffffffff">
<path fill="#FFFFFF" opacity="1.00" d=" M 0.00 0.00 L 250.00 0.00 L 250.00 225.00 L 0.00 225.00 L 0.00 0.00 M 108.52 24.82 C 104.98 31.30 103.83 38.72 102.87 45.95 C 102.63 50.87 104.78 55.49 106.24 60.10 C 106.34 61.62 105.71 63.07 105.41 64.53 L 104.37 64.54 C 105.34 69.35 104.02 74.28 105.11 79.08 C 106.73 86.02 105.04 93.20 106.46 100.16 C 107.35 104.08 107.15 108.30 109.20 111.88 C 111.23 117.02 113.84 122.22 118.36 125.60 C 118.05 126.82 117.12 128.56 118.46 129.49 C 120.82 131.57 123.81 132.73 126.50 134.30 C 133.62 137.95 140.54 143.10 148.91 142.99 C 152.26 140.68 155.81 138.61 158.36 135.36 C 162.03 132.93 162.66 128.39 164.71 124.81 C 167.53 122.94 170.17 120.82 173.00 118.96 C 173.59 117.47 174.10 115.94 174.83 114.50 C 175.63 113.57 177.05 113.42 177.76 112.37 C 180.34 108.24 182.56 103.92 184.46 99.43 C 186.16 99.76 187.91 99.82 189.61 100.22 C 192.34 101.38 193.16 104.58 193.83 107.19 C 191.72 109.35 189.74 111.69 187.10 113.24 C 162.42 136.51 137.41 159.48 112.66 182.70 C 108.15 187.28 103.04 191.28 98.90 196.21 C 99.39 196.26 100.36 196.36 100.85 196.41 C 105.84 192.65 109.71 187.56 114.85 183.96 C 121.69 178.48 127.65 172.00 134.25 166.25 C 145.36 155.86 156.49 145.49 167.66 135.15 C 167.59 150.12 167.94 165.09 168.79 180.02 L 170.29 180.57 C 170.47 171.70 170.19 162.83 170.19 153.96 C 169.86 147.28 169.35 140.59 169.53 133.90 C 171.28 131.05 174.22 129.17 176.57 126.85 C 176.76 136.55 176.66 146.25 176.85 155.95 C 177.51 163.59 177.28 171.27 177.60 178.92 C 177.64 180.04 178.12 180.98 179.03 181.72 C 179.61 177.18 179.27 172.59 179.30 168.03 C 179.08 160.69 179.61 153.31 178.75 146.00 C 182.50 147.00 186.85 148.44 190.20 145.57 C 190.09 149.11 189.79 152.88 191.37 156.17 C 192.82 159.55 196.80 161.85 200.46 161.06 C 204.35 160.49 208.29 159.76 211.79 157.89 C 215.63 158.00 219.27 156.71 222.95 155.81 C 226.17 154.85 229.71 153.38 231.25 150.16 C 231.92 147.86 229.88 146.11 228.41 144.71 C 225.68 144.71 222.95 144.51 220.23 144.26 C 220.54 144.84 221.16 145.99 221.47 146.57 C 223.78 147.40 226.12 148.43 228.64 147.79 C 228.66 148.38 228.70 149.56 228.73 150.15 C 225.37 153.65 220.30 153.52 216.07 155.21 C 212.06 156.54 207.74 156.49 203.79 158.09 C 200.48 159.08 195.25 159.36 193.61 155.63 C 193.12 149.05 195.04 142.53 195.11 135.95 C 194.59 131.62 193.45 127.38 192.40 123.16 C 192.11 120.31 188.94 118.88 188.81 116.03 C 190.46 113.05 193.68 111.40 196.00 108.99 C 195.34 107.42 195.14 105.74 195.34 104.06 C 195.63 104.94 195.92 105.82 196.22 106.70 C 196.63 106.65 197.44 106.53 197.85 106.48 C 196.82 103.04 196.05 99.52 194.96 96.10 C 194.42 95.98 193.35 95.74 192.82 95.62 C 193.28 97.65 193.71 99.68 194.08 101.73 C 192.64 99.88 190.48 99.49 188.30 99.41 C 187.73 97.48 188.01 95.22 190.49 95.07 C 190.54 94.61 190.62 93.69 190.67 93.24 C 188.78 93.72 186.92 94.31 185.06 94.91 C 181.03 99.91 180.30 107.01 174.91 110.99 C 174.64 110.84 174.08 110.55 173.81 110.40 C 170.71 103.93 167.26 97.22 160.93 93.36 C 164.07 89.24 168.75 86.81 173.22 84.44 C 175.52 83.15 178.95 83.26 180.28 80.75 C 178.28 80.69 176.26 80.64 174.28 80.94 C 171.60 81.72 169.69 83.91 167.25 85.16 C 164.23 87.01 160.91 89.07 159.48 92.47 C 155.48 92.74 153.15 96.34 151.67 99.65 C 150.96 101.53 147.84 102.96 149.17 105.16 C 153.11 102.80 155.56 98.12 156.84 93.95 C 165.05 96.71 169.30 105.00 172.43 112.46 C 173.23 114.24 171.97 116.00 171.44 117.66 C 167.25 119.45 164.95 124.06 160.45 125.08 C 160.51 125.74 160.62 127.05 160.68 127.70 C 158.82 130.21 157.34 132.97 155.43 135.45 C 154.11 137.21 151.44 137.54 150.68 139.81 C 146.84 139.86 142.85 139.26 139.14 140.45 C 136.00 136.02 130.49 134.61 126.11 131.78 C 123.91 130.28 120.73 129.71 119.70 126.96 C 122.26 129.48 125.44 130.99 129.11 130.38 C 133.91 126.40 138.70 122.12 141.48 116.43 C 142.45 113.56 143.16 110.60 143.82 107.65 C 143.33 105.47 142.41 103.35 142.74 101.06 C 144.21 101.17 145.69 101.29 147.17 101.41 C 148.29 99.49 149.39 97.57 150.54 95.67 C 152.45 94.99 154.27 94.11 156.00 93.06 C 157.33 89.86 160.47 88.07 163.01 85.94 C 165.07 83.90 168.71 84.75 170.03 81.73 C 166.35 81.78 162.70 82.36 159.02 82.46 C 155.93 81.98 152.91 81.00 149.77 80.91 L 148.65 82.19 C 152.84 83.65 157.31 84.14 161.72 84.40 C 158.08 86.38 155.65 89.87 152.52 92.50 C 149.28 92.66 147.28 95.59 147.13 98.63 C 145.45 98.54 143.77 98.42 142.09 98.27 C 142.91 92.39 145.75 87.04 148.63 81.93 C 148.36 79.70 148.74 77.49 149.17 75.30 C 153.67 78.18 159.93 80.04 164.66 76.64 C 164.80 76.10 165.07 75.04 165.20 74.50 C 166.84 74.90 168.53 75.18 170.22 75.17 C 168.03 73.56 164.58 72.97 163.92 69.93 C 162.29 64.62 159.08 59.77 154.61 56.46 C 152.53 55.56 150.20 55.76 147.99 55.70 C 148.53 58.76 152.63 57.60 154.90 58.48 C 156.58 60.53 159.17 62.56 158.65 65.54 C 156.32 65.55 154.18 66.44 152.01 67.16 C 148.63 66.58 147.25 61.87 143.31 62.66 C 144.63 60.89 145.88 59.07 147.37 57.43 C 147.41 56.97 147.48 56.06 147.52 55.60 C 148.45 54.19 149.44 52.82 150.24 51.33 C 151.81 48.43 150.49 44.82 152.33 41.99 C 151.13 40.52 149.93 39.06 148.75 37.59 C 150.60 38.97 153.19 39.72 154.32 41.90 C 154.81 44.23 154.53 46.62 154.28 48.97 C 158.86 54.70 165.95 57.67 170.94 62.98 C 174.59 67.72 178.76 73.57 177.18 79.84 C 178.82 81.08 179.88 79.20 180.81 78.08 C 181.96 78.31 183.12 78.54 184.27 78.78 C 184.27 77.61 184.28 76.44 184.30 75.26 L 183.03 76.29 C 179.92 79.14 180.06 75.61 179.43 74.08 C 176.99 64.59 168.78 58.35 161.29 52.78 C 159.35 51.21 156.51 49.81 156.47 46.95 C 156.03 44.36 157.11 41.11 154.83 39.17 C 153.04 37.76 151.02 36.69 149.09 35.49 C 148.62 35.61 147.69 35.84 147.22 35.95 C 145.60 34.29 143.39 33.58 141.36 32.57 C 139.34 30.24 137.49 27.56 134.56 26.27 C 128.12 23.03 120.70 24.97 113.87 23.60 C 112.08 23.36 109.47 22.74 108.52 24.82 M 185.38 77.97 C 188.95 76.85 192.72 78.07 195.26 80.71 C 197.99 82.97 197.92 86.78 198.67 89.94 C 198.11 90.40 197.54 90.86 196.97 91.32 C 196.46 90.10 195.51 89.40 194.12 89.21 C 193.75 91.09 196.09 93.73 197.63 91.47 C 198.05 91.68 198.88 92.09 199.29 92.30 C 199.57 98.08 202.30 103.35 203.02 109.07 C 205.17 116.29 202.22 123.96 204.72 131.10 C 205.60 134.08 205.53 137.75 208.21 139.82 C 210.88 141.74 214.22 142.28 217.13 143.74 C 217.96 144.44 218.75 145.34 219.82 145.69 C 219.76 145.39 219.64 144.81 219.58 144.51 C 215.91 142.06 211.83 140.04 208.59 137.04 C 206.24 129.53 206.63 121.66 206.53 113.91 C 205.36 107.21 202.20 100.91 202.04 94.00 C 199.69 88.79 200.98 81.74 195.80 78.07 C 193.17 75.43 189.20 76.09 185.88 75.30 C 185.75 75.97 185.50 77.31 185.38 77.97 M 185.82 81.22 C 184.21 80.81 182.59 80.43 180.97 80.10 C 181.87 83.82 188.39 84.61 189.78 80.58 C 188.41 80.47 187.10 80.81 185.82 81.22 M 184.52 91.57 C 186.37 93.37 188.24 90.98 189.85 90.03 C 189.27 89.48 188.69 88.93 188.11 88.38 C 186.91 89.44 185.70 90.50 184.52 91.57 M 180.68 93.50 C 177.28 97.23 176.30 102.59 172.37 105.90 C 172.93 106.48 173.50 107.06 174.07 107.63 C 177.45 103.63 179.30 98.68 182.33 94.44 C 183.81 93.27 181.08 91.96 180.68 93.50 M 144.57 106.33 C 144.11 109.93 147.86 112.97 146.24 116.49 C 145.18 119.64 143.36 122.60 143.25 126.01 C 146.42 124.87 146.29 120.77 147.64 118.15 C 148.31 118.15 149.64 118.14 150.30 118.14 C 148.75 114.11 148.21 109.08 144.57 106.33 M 147.83 106.62 C 146.85 109.38 149.34 111.13 150.83 113.03 C 150.66 117.41 150.81 121.79 150.82 126.17 C 151.41 126.18 152.58 126.18 153.17 126.18 C 153.20 122.94 153.21 119.70 153.24 116.46 C 153.65 116.11 154.49 115.42 154.90 115.08 C 152.54 112.27 150.71 108.96 147.83 106.62 M 195.94 107.32 C 197.52 115.24 197.99 123.29 197.87 131.35 C 197.87 133.25 200.27 133.25 200.09 131.27 C 200.58 123.57 199.32 115.87 198.08 108.29 L 199.16 108.06 C 198.35 107.87 196.74 107.50 195.94 107.32 M 197.84 142.82 C 197.80 144.66 197.77 146.49 197.74 148.33 C 198.10 148.82 198.83 149.79 199.19 150.27 C 201.22 150.33 203.25 150.36 205.28 150.37 L 205.26 148.71 C 203.64 148.62 202.03 148.54 200.41 148.44 C 200.27 146.57 200.18 144.70 200.10 142.82 C 199.54 142.82 198.41 142.82 197.84 142.82 Z" />
<path fill="#FFFFFF" opacity="1.00" d=" M 110.29 26.05 C 116.79 27.44 123.44 27.14 130.04 27.18 C 134.04 27.20 136.79 30.60 139.30 33.24 C 133.90 34.95 128.12 35.85 123.16 38.66 C 121.79 36.64 119.93 35.06 117.75 33.98 C 117.60 37.14 120.98 38.85 121.33 41.90 C 121.85 46.51 121.38 51.31 119.98 55.74 C 120.79 55.47 122.41 54.93 123.22 54.67 C 123.65 56.60 123.77 58.59 123.40 60.54 C 126.76 63.54 129.77 66.94 133.50 69.49 C 135.06 73.51 136.65 77.65 136.68 82.02 C 136.71 84.11 137.12 86.16 137.56 88.20 C 140.99 83.40 137.87 77.91 137.13 72.81 C 139.00 71.72 142.77 69.14 140.48 66.82 C 139.25 68.22 138.04 69.62 136.81 71.02 C 134.25 67.00 130.10 64.49 127.01 60.97 C 125.69 57.80 125.01 54.34 124.21 51.00 C 124.58 50.25 125.32 48.75 125.69 48.00 C 124.96 47.32 124.21 46.67 123.45 46.03 C 123.62 44.66 123.52 43.23 123.91 41.91 C 124.97 40.65 126.30 39.64 127.55 38.57 C 128.26 39.00 128.98 39.43 129.70 39.87 C 127.14 40.38 125.74 42.65 124.32 44.58 C 124.89 45.39 125.47 46.20 126.07 47.00 C 127.52 45.03 128.79 42.94 130.04 40.84 C 129.93 40.19 129.69 38.89 129.57 38.24 C 132.66 38.36 135.41 36.62 138.04 35.22 C 142.15 35.89 146.62 37.85 148.20 41.99 C 149.21 48.24 146.11 54.08 143.30 59.43 C 141.20 62.39 138.31 65.57 134.27 64.77 C 131.79 62.25 129.86 59.18 130.16 55.50 C 129.59 53.12 127.59 55.63 128.24 57.05 C 128.01 60.43 130.05 63.45 132.45 65.64 C 134.15 67.51 136.89 66.40 139.09 66.56 C 139.91 65.82 140.73 65.09 141.56 64.36 C 143.24 64.86 144.96 65.19 146.70 65.42 C 147.80 66.60 148.87 67.80 149.94 69.01 C 153.51 68.18 157.36 66.59 160.83 68.67 C 162.69 70.55 163.24 73.32 163.29 75.89 L 162.34 75.35 C 158.96 77.80 154.51 75.71 151.05 74.37 L 150.94 75.86 C 149.94 74.32 149.64 72.49 149.21 70.75 C 148.77 70.63 147.90 70.40 147.46 70.28 C 147.61 75.71 146.65 81.14 145.42 86.41 C 144.45 86.91 143.48 87.41 142.52 87.91 C 142.54 88.65 142.58 90.12 142.61 90.85 C 141.86 90.31 140.38 89.22 139.63 88.68 C 140.02 90.95 140.83 93.12 141.82 95.19 C 140.48 97.81 137.53 97.93 134.96 97.87 C 133.70 97.73 133.10 98.35 133.17 99.71 C 135.62 99.63 138.07 99.51 140.53 99.42 C 140.47 101.95 138.24 103.50 136.41 104.85 C 135.16 104.02 133.77 103.51 132.26 103.85 C 133.35 105.09 134.41 106.61 136.18 106.89 C 137.54 106.57 138.76 105.81 140.01 105.20 C 142.06 106.14 142.42 107.57 141.08 109.48 C 140.63 109.45 139.73 109.38 139.29 109.34 C 139.47 109.51 139.83 109.84 140.01 110.01 C 141.82 112.00 139.51 114.86 139.12 117.08 C 138.36 115.19 138.26 112.79 136.54 111.48 C 131.76 108.54 126.93 105.47 121.29 104.57 C 122.49 108.06 126.86 108.28 129.19 110.76 C 131.95 113.56 134.51 116.57 137.66 118.97 C 135.22 122.30 132.25 125.22 128.96 127.72 C 127.40 128.17 126.14 126.84 124.89 126.14 C 120.80 123.26 116.09 120.73 113.75 116.06 C 108.57 108.08 108.89 98.20 108.47 89.06 C 108.67 85.48 107.43 82.00 107.77 78.43 C 106.10 73.44 107.30 68.11 107.45 62.99 C 108.96 65.72 110.96 68.14 113.07 70.43 L 112.07 71.08 C 113.33 71.10 114.59 71.13 115.85 71.15 C 111.43 65.65 107.40 59.72 104.78 53.17 C 104.94 48.10 106.65 43.24 106.78 38.17 C 107.83 34.11 107.69 29.54 110.29 26.05 M 115.22 40.43 C 116.00 48.70 115.69 56.99 115.60 65.28 C 118.30 71.18 121.37 77.38 120.66 84.07 C 120.02 90.75 119.70 98.05 115.33 103.53 C 117.24 103.76 120.39 101.92 119.32 99.70 C 120.71 99.87 122.11 100.04 123.51 100.19 C 125.58 98.27 127.94 100.35 130.05 100.99 C 130.03 97.11 123.00 95.42 121.94 99.44 C 121.43 98.88 120.93 98.31 120.44 97.74 C 120.73 97.02 121.32 95.57 121.61 94.84 C 123.03 94.39 124.45 93.92 125.88 93.48 C 127.67 94.76 129.92 95.03 131.98 95.67 C 130.96 95.14 129.93 94.64 128.91 94.13 C 128.58 93.68 127.92 92.78 127.59 92.33 C 125.92 93.10 124.18 93.69 122.31 93.28 C 122.41 91.61 122.01 89.53 124.09 88.97 C 123.83 84.68 122.74 80.50 121.63 76.36 C 120.86 73.40 118.33 70.84 119.04 67.60 C 124.24 72.95 128.83 79.76 128.85 87.50 C 129.29 87.53 130.17 87.59 130.61 87.62 C 130.25 81.97 127.65 76.75 124.91 71.90 C 121.10 70.54 120.27 66.13 118.72 62.85 C 116.91 59.46 121.74 58.21 122.99 55.72 C 121.68 55.78 120.36 55.84 119.05 55.88 L 119.54 57.42 C 119.23 57.52 118.62 57.73 118.32 57.84 C 118.47 52.14 117.35 46.52 117.15 40.84 C 116.67 40.74 115.70 40.53 115.22 40.43 M 112.08 71.93 L 112.78 72.44 C 111.97 73.39 111.51 74.47 111.39 75.71 C 113.46 75.25 114.55 73.30 115.86 71.85 C 114.60 71.87 113.34 71.90 112.08 71.93 M 133.14 93.86 C 134.12 93.47 135.09 93.07 136.06 92.67 C 137.04 93.16 138.02 93.64 139.00 94.11 C 139.07 92.31 137.90 90.98 136.84 89.69 C 135.04 90.52 133.82 92.03 133.14 93.86 M 109.32 91.42 C 110.26 93.89 111.84 96.05 113.98 97.63 C 114.08 97.12 114.29 96.11 114.39 95.61 C 112.82 94.13 111.96 90.83 109.32 91.42 M 124.01 102.74 C 125.79 104.49 127.99 105.88 130.61 105.47 C 129.42 103.17 126.51 101.72 124.01 102.74 Z" />
<path fill="#FFFFFF" opacity="1.00" d=" M 177.84 126.06 C 180.45 122.92 183.74 120.45 186.45 117.41 C 191.16 123.67 192.22 132.04 191.36 139.64 C 190.54 140.56 189.73 141.48 188.93 142.40 C 186.48 143.19 183.91 144.02 181.31 143.53 C 179.41 141.19 179.69 137.83 180.60 135.12 C 181.93 131.64 181.25 127.91 181.48 124.30 C 180.43 125.25 179.22 125.84 177.84 126.06 Z" />
</g>
<g id="#4b4c4aff">
<path fill="#333333" opacity="1.00" d=" M 108.52 24.82 C 109.47 22.74 112.08 23.36 113.87 23.60 C 120.70 24.97 128.12 23.03 134.56 26.27 C 137.49 27.56 139.34 30.24 141.36 32.57 C 143.39 33.58 145.60 34.29 147.22 35.95 C 147.69 35.84 148.62 35.61 149.09 35.49 C 151.02 36.69 153.04 37.76 154.83 39.17 C 157.11 41.11 156.03 44.36 156.47 46.95 C 156.51 49.81 159.35 51.21 161.29 52.78 C 168.78 58.35 176.99 64.59 179.43 74.08 C 180.06 75.61 179.92 79.14 183.03 76.29 L 184.30 75.26 C 184.28 76.44 184.27 77.61 184.27 78.78 C 183.12 78.54 181.96 78.31 180.81 78.08 C 179.88 79.20 178.82 81.08 177.18 79.84 C 178.76 73.57 174.59 67.72 170.94 62.98 C 165.95 57.67 158.86 54.70 154.28 48.97 C 154.53 46.62 154.81 44.23 154.32 41.90 C 153.19 39.72 150.60 38.97 148.75 37.59 C 149.93 39.06 151.13 40.52 152.33 41.99 C 150.49 44.82 151.81 48.43 150.24 51.33 C 149.44 52.82 148.45 54.19 147.52 55.60 C 147.48 56.06 147.41 56.97 147.37 57.43 C 145.88 59.07 144.63 60.89 143.31 62.66 C 147.25 61.87 148.63 66.58 152.01 67.16 C 154.18 66.44 156.32 65.55 158.65 65.54 C 159.17 62.56 156.58 60.53 154.90 58.48 C 152.63 57.60 148.53 58.76 147.99 55.70 C 150.20 55.76 152.53 55.56 154.61 56.46 C 159.08 59.77 162.29 64.62 163.92 69.93 C 164.58 72.97 168.03 73.56 170.22 75.17 C 168.53 75.18 166.84 74.90 165.20 74.50 C 165.07 75.04 164.80 76.10 164.66 76.64 C 159.93 80.04 153.67 78.18 149.17 75.30 C 148.74 77.49 148.36 79.70 148.63 81.93 C 145.75 87.04 142.91 92.39 142.09 98.27 C 143.77 98.42 145.45 98.54 147.13 98.63 C 147.28 95.59 149.28 92.66 152.52 92.50 C 155.65 89.87 158.08 86.38 161.72 84.40 C 157.31 84.14 152.84 83.65 148.65 82.19 L 149.77 80.91 C 152.91 81.00 155.93 81.98 159.02 82.46 C 162.70 82.36 166.35 81.78 170.03 81.73 C 168.71 84.75 165.07 83.90 163.01 85.94 C 160.47 88.07 157.33 89.86 156.00 93.06 C 154.27 94.11 152.45 94.99 150.54 95.67 C 149.39 97.57 148.29 99.49 147.17 101.41 C 145.69 101.29 144.21 101.17 142.74 101.06 C 142.41 103.35 143.33 105.47 143.82 107.65 C 143.16 110.60 142.45 113.56 141.48 116.43 C 138.70 122.12 133.91 126.40 129.11 130.38 C 125.44 130.99 122.26 129.48 119.70 126.96 C 120.73 129.71 123.91 130.28 126.11 131.78 C 130.49 134.61 136.00 136.02 139.14 140.45 C 142.85 139.26 146.84 139.86 150.68 139.81 C 151.44 137.54 154.11 137.21 155.43 135.45 C 157.34 132.97 158.82 130.21 160.68 127.70 C 160.62 127.05 160.51 125.74 160.45 125.08 C 164.95 124.06 167.25 119.45 171.44 117.66 C 171.97 116.00 173.23 114.24 172.43 112.46 C 169.30 105.00 165.05 96.71 156.84 93.95 C 155.56 98.12 153.11 102.80 149.17 105.16 C 147.84 102.96 150.96 101.53 151.67 99.65 C 153.15 96.34 155.48 92.74 159.48 92.47 C 160.91 89.07 164.23 87.01 167.25 85.16 C 169.69 83.91 171.60 81.72 174.28 80.94 C 176.26 80.64 178.28 80.69 180.28 80.75 C 178.95 83.26 175.52 83.15 173.22 84.44 C 168.75 86.81 164.07 89.24 160.93 93.36 C 167.26 97.22 170.71 103.93 173.81 110.40 C 174.08 110.55 174.64 110.84 174.91 110.99 C 180.30 107.01 181.03 99.91 185.06 94.91 C 186.92 94.31 188.78 93.72 190.67 93.24 C 190.62 93.69 190.54 94.61 190.49 95.07 C 188.01 95.22 187.73 97.48 188.30 99.41 C 190.48 99.49 192.64 99.88 194.08 101.73 C 193.71 99.68 193.28 97.65 192.82 95.62 C 193.35 95.74 194.42 95.98 194.96 96.10 C 196.05 99.52 196.82 103.04 197.85 106.48 C 197.44 106.53 196.63 106.65 196.22 106.70 C 195.92 105.82 195.63 104.94 195.34 104.06 C 195.14 105.74 195.34 107.42 196.00 108.99 C 193.68 111.40 190.46 113.05 188.81 116.03 C 188.94 118.88 192.11 120.31 192.40 123.16 C 193.45 127.38 194.59 131.62 195.11 135.95 C 195.04 142.53 193.12 149.05 193.61 155.63 C 195.25 159.36 200.48 159.08 203.79 158.09 C 207.74 156.49 212.06 156.54 216.07 155.21 C 220.30 153.52 225.37 153.65 228.73 150.15 C 228.70 149.56 228.66 148.38 228.64 147.79 C 226.12 148.43 223.78 147.40 221.47 146.57 C 221.16 145.99 220.54 144.84 220.23 144.26 C 222.95 144.51 225.68 144.71 228.41 144.71 C 229.88 146.11 231.92 147.86 231.25 150.16 C 229.71 153.38 226.17 154.85 222.95 155.81 C 219.27 156.71 215.63 158.00 211.79 157.89 C 208.29 159.76 204.35 160.49 200.46 161.06 C 196.80 161.85 192.82 159.55 191.37 156.17 C 189.79 152.88 190.09 149.11 190.20 145.57 C 186.85 148.44 182.50 147.00 178.75 146.00 C 179.61 153.31 179.08 160.69 179.30 168.03 C 179.27 172.59 179.61 177.18 179.03 181.72 C 178.12 180.98 177.64 180.04 177.60 178.92 C 177.28 171.27 177.51 163.59 176.85 155.95 C 176.66 146.25 176.76 136.55 176.57 126.85 C 174.22 129.17 171.28 131.05 169.53 133.90 C 169.35 140.59 169.86 147.28 170.19 153.96 C 170.19 162.83 170.47 171.70 170.29 180.57 L 168.79 180.02 C 167.94 165.09 167.59 150.12 167.66 135.15 C 156.49 145.49 145.36 155.86 134.25 166.25 C 127.65 172.00 121.69 178.48 114.85 183.96 C 109.71 187.56 105.84 192.65 100.85 196.41 C 100.36 196.36 99.39 196.26 98.90 196.21 C 103.04 191.28 108.15 187.28 112.66 182.70 C 137.41 159.48 162.42 136.51 187.10 113.24 C 189.74 111.69 191.72 109.35 193.83 107.19 C 193.16 104.58 192.34 101.38 189.61 100.22 C 187.91 99.82 186.16 99.76 184.46 99.43 C 182.56 103.92 180.34 108.24 177.76 112.37 C 177.05 113.42 175.63 113.57 174.83 114.50 C 174.10 115.94 173.59 117.47 173.00 118.96 C 170.17 120.82 167.53 122.94 164.71 124.81 C 162.66 128.39 162.03 132.93 158.36 135.36 C 155.81 138.61 152.26 140.68 148.91 142.99 C 140.54 143.10 133.62 137.95 126.50 134.30 C 123.81 132.73 120.82 131.57 118.46 129.49 C 117.12 128.56 118.05 126.82 118.36 125.60 C 113.84 122.22 111.23 117.02 109.20 111.88 C 107.15 108.30 107.35 104.08 106.46 100.16 C 105.04 93.20 106.73 86.02 105.11 79.08 C 104.02 74.28 105.34 69.35 104.37 64.54 L 105.41 64.53 C 105.71 63.07 106.34 61.62 106.24 60.10 C 104.78 55.49 102.63 50.87 102.87 45.95 C 103.83 38.72 104.98 31.30 108.52 24.82 M 110.29 26.05 C 107.69 29.54 107.83 34.11 106.78 38.17 C 106.65 43.24 104.94 48.10 104.78 53.17 C 107.40 59.72 111.43 65.65 115.85 71.15 C 114.59 71.13 113.33 71.10 112.07 71.08 L 113.07 70.43 C 110.96 68.14 108.96 65.72 107.45 62.99 C 107.30 68.11 106.10 73.44 107.77 78.43 C 107.43 82.00 108.67 85.48 108.47 89.06 C 108.89 98.20 108.57 108.08 113.75 116.06 C 116.09 120.73 120.80 123.26 124.89 126.14 C 126.14 126.84 127.40 128.17 128.96 127.72 C 132.25 125.22 135.22 122.30 137.66 118.97 C 134.51 116.57 131.95 113.56 129.19 110.76 C 126.86 108.28 122.49 108.06 121.29 104.57 C 126.93 105.47 131.76 108.54 136.54 111.48 C 138.26 112.79 138.36 115.19 139.12 117.08 C 139.51 114.86 141.82 112.00 140.01 110.01 C 139.83 109.84 139.47 109.51 139.29 109.34 C 139.73 109.38 140.63 109.45 141.08 109.48 C 142.42 107.57 142.06 106.14 140.01 105.20 C 138.76 105.81 137.54 106.57 136.18 106.89 C 134.41 106.61 133.35 105.09 132.26 103.85 C 133.77 103.51 135.16 104.02 136.41 104.85 C 138.24 103.50 140.47 101.95 140.53 99.42 C 138.07 99.51 135.62 99.63 133.17 99.71 C 133.10 98.35 133.70 97.73 134.96 97.87 C 137.53 97.93 140.48 97.81 141.82 95.19 C 140.83 93.12 140.02 90.95 139.63 88.68 C 140.38 89.22 141.86 90.31 142.61 90.85 C 142.58 90.12 142.54 88.65 142.52 87.91 C 143.48 87.41 144.45 86.91 145.42 86.41 C 146.65 81.14 147.61 75.71 147.46 70.28 C 147.90 70.40 148.77 70.63 149.21 70.75 C 149.64 72.49 149.94 74.32 150.94 75.86 L 151.05 74.37 C 154.51 75.71 158.96 77.80 162.34 75.35 L 163.29 75.89 C 163.24 73.32 162.69 70.55 160.83 68.67 C 157.36 66.59 153.51 68.18 149.94 69.01 C 148.87 67.80 147.80 66.60 146.70 65.42 C 144.96 65.19 143.24 64.86 141.56 64.36 C 140.73 65.09 139.91 65.82 139.09 66.56 C 136.89 66.40 134.15 67.51 132.45 65.64 C 130.05 63.45 128.01 60.43 128.24 57.05 C 127.59 55.63 129.59 53.12 130.16 55.50 C 129.86 59.18 131.79 62.25 134.27 64.77 C 138.31 65.57 141.20 62.39 143.30 59.43 C 146.11 54.08 149.21 48.24 148.20 41.99 C 146.62 37.85 142.15 35.89 138.04 35.22 C 135.41 36.62 132.66 38.36 129.57 38.24 C 129.69 38.89 129.93 40.19 130.04 40.84 C 128.79 42.94 127.52 45.03 126.07 47.00 C 125.47 46.20 124.89 45.39 124.32 44.58 C 125.74 42.65 127.14 40.38 129.70 39.87 C 128.98 39.43 128.26 39.00 127.55 38.57 C 126.30 39.64 124.97 40.65 123.91 41.91 C 123.52 43.23 123.62 44.66 123.45 46.03 C 124.21 46.67 124.96 47.32 125.69 48.00 C 125.32 48.75 124.58 50.25 124.21 51.00 C 125.01 54.34 125.69 57.80 127.01 60.97 C 130.10 64.49 134.25 67.00 136.81 71.02 C 138.04 69.62 139.25 68.22 140.48 66.82 C 142.77 69.14 139.00 71.72 137.13 72.81 C 137.87 77.91 140.99 83.40 137.56 88.20 C 137.12 86.16 136.71 84.11 136.68 82.02 C 136.65 77.65 135.06 73.51 133.50 69.49 C 129.77 66.94 126.76 63.54 123.40 60.54 C 123.77 58.59 123.65 56.60 123.22 54.67 C 122.41 54.93 120.79 55.47 119.98 55.74 C 121.38 51.31 121.85 46.51 121.33 41.90 C 120.98 38.85 117.60 37.14 117.75 33.98 C 119.93 35.06 121.79 36.64 123.16 38.66 C 128.12 35.85 133.90 34.95 139.30 33.24 C 136.79 30.60 134.04 27.20 130.04 27.18 C 123.44 27.14 116.79 27.44 110.29 26.05 M 177.84 126.06 C 179.22 125.84 180.43 125.25 181.48 124.30 C 181.25 127.91 181.93 131.64 180.60 135.12 C 179.69 137.83 179.41 141.19 181.31 143.53 C 183.91 144.02 186.48 143.19 188.93 142.40 C 189.73 141.48 190.54 140.56 191.36 139.64 C 192.22 132.04 191.16 123.67 186.45 117.41 C 183.74 120.45 180.45 122.92 177.84 126.06 Z" />
<path fill="#333333" opacity="1.00" d=" M 115.22 40.43 C 115.70 40.53 116.67 40.74 117.15 40.84 C 117.35 46.52 118.47 52.14 118.32 57.84 C 118.62 57.73 119.23 57.52 119.54 57.42 L 119.05 55.88 C 120.36 55.84 121.68 55.78 122.99 55.72 C 121.74 58.21 116.91 59.46 118.72 62.85 C 120.27 66.13 121.10 70.54 124.91 71.90 C 127.65 76.75 130.25 81.97 130.61 87.62 C 130.17 87.59 129.29 87.53 128.85 87.50 C 128.83 79.76 124.24 72.95 119.04 67.60 C 118.33 70.84 120.86 73.40 121.63 76.36 C 122.74 80.50 123.83 84.68 124.09 88.97 C 122.01 89.53 122.41 91.61 122.31 93.28 C 124.18 93.69 125.92 93.10 127.59 92.33 C 127.92 92.78 128.58 93.68 128.91 94.13 C 129.93 94.64 130.96 95.14 131.98 95.67 C 129.92 95.03 127.67 94.76 125.88 93.48 C 124.45 93.92 123.03 94.39 121.61 94.84 C 121.32 95.57 120.73 97.02 120.44 97.74 C 120.93 98.31 121.43 98.88 121.94 99.44 C 123.00 95.42 130.03 97.11 130.05 100.99 C 127.94 100.35 125.58 98.27 123.51 100.19 C 122.11 100.04 120.71 99.87 119.32 99.70 C 120.39 101.92 117.24 103.76 115.33 103.53 C 119.70 98.05 120.02 90.75 120.66 84.07 C 121.37 77.38 118.30 71.18 115.60 65.28 C 115.69 56.99 116.00 48.70 115.22 40.43 Z" />
<path fill="#333333" opacity="1.00" d=" M 112.08 71.93 C 113.34 71.90 114.60 71.87 115.86 71.85 C 114.55 73.30 113.46 75.25 111.39 75.71 C 111.51 74.47 111.97 73.39 112.78 72.44 L 112.08 71.93 Z" />
<path fill="#333333" opacity="1.00" d=" M 185.38 77.97 C 185.50 77.31 185.75 75.97 185.88 75.30 C 189.20 76.09 193.17 75.43 195.80 78.07 C 200.98 81.74 199.69 88.79 202.04 94.00 C 202.20 100.91 205.36 107.21 206.53 113.91 C 206.63 121.66 206.24 129.53 208.59 137.04 C 211.83 140.04 215.91 142.06 219.58 144.51 C 219.64 144.81 219.76 145.39 219.82 145.69 C 218.75 145.34 217.96 144.44 217.13 143.74 C 214.22 142.28 210.88 141.74 208.21 139.82 C 205.53 137.75 205.60 134.08 204.72 131.10 C 202.22 123.96 205.17 116.29 203.02 109.07 C 202.30 103.35 199.57 98.08 199.29 92.30 C 198.88 92.09 198.05 91.68 197.63 91.47 C 196.09 93.73 193.75 91.09 194.12 89.21 C 195.51 89.40 196.46 90.10 196.97 91.32 C 197.54 90.86 198.11 90.40 198.67 89.94 C 197.92 86.78 197.99 82.97 195.26 80.71 C 192.72 78.07 188.95 76.85 185.38 77.97 Z" />
<path fill="#333333" opacity="1.00" d=" M 185.82 81.22 C 187.10 80.81 188.41 80.47 189.78 80.58 C 188.39 84.61 181.87 83.82 180.97 80.10 C 182.59 80.43 184.21 80.81 185.82 81.22 Z" />
<path fill="#333333" opacity="1.00" d=" M 184.52 91.57 C 185.70 90.50 186.91 89.44 188.11 88.38 C 188.69 88.93 189.27 89.48 189.85 90.03 C 188.24 90.98 186.37 93.37 184.52 91.57 Z" />
<path fill="#333333" opacity="1.00" d=" M 133.14 93.86 C 133.82 92.03 135.04 90.52 136.84 89.69 C 137.90 90.98 139.07 92.31 139.00 94.11 C 138.02 93.64 137.04 93.16 136.06 92.67 C 135.09 93.07 134.12 93.47 133.14 93.86 Z" />
<path fill="#333333" opacity="1.00" d=" M 109.32 91.42 C 111.96 90.83 112.82 94.13 114.39 95.61 C 114.29 96.11 114.08 97.12 113.98 97.63 C 111.84 96.05 110.26 93.89 109.32 91.42 Z" />
<path fill="#333333" opacity="1.00" d=" M 180.68 93.50 C 181.08 91.96 183.81 93.27 182.33 94.44 C 179.30 98.68 177.45 103.63 174.07 107.63 C 173.50 107.06 172.93 106.48 172.37 105.90 C 176.30 102.59 177.28 97.23 180.68 93.50 Z" />
<path fill="#333333" opacity="1.00" d=" M 124.01 102.74 C 126.51 101.72 129.42 103.17 130.61 105.47 C 127.99 105.88 125.79 104.49 124.01 102.74 Z" />
<path fill="#333333" opacity="1.00" d=" M 144.57 106.33 C 148.21 109.08 148.75 114.11 150.30 118.14 C 149.64 118.14 148.31 118.15 147.64 118.15 C 146.29 120.77 146.42 124.87 143.25 126.01 C 143.36 122.60 145.18 119.64 146.24 116.49 C 147.86 112.97 144.11 109.93 144.57 106.33 Z" />
<path fill="#333333" opacity="1.00" d=" M 147.83 106.62 C 150.71 108.96 152.54 112.27 154.90 115.08 C 154.49 115.42 153.65 116.11 153.24 116.46 C 153.21 119.70 153.20 122.94 153.17 126.18 C 152.58 126.18 151.41 126.18 150.82 126.17 C 150.81 121.79 150.66 117.41 150.83 113.03 C 149.34 111.13 146.85 109.38 147.83 106.62 Z" />
<path fill="#333333" opacity="1.00" d=" M 195.94 107.32 C 196.74 107.50 198.35 107.87 199.16 108.06 L 198.08 108.29 C 199.32 115.87 200.58 123.57 200.09 131.27 C 200.27 133.25 197.87 133.25 197.87 131.35 C 197.99 123.29 197.52 115.24 195.94 107.32 Z" />
<path fill="#333333" opacity="1.00" d=" M 197.84 142.82 C 198.41 142.82 199.54 142.82 200.10 142.82 C 200.18 144.70 200.27 146.57 200.41 148.44 C 202.03 148.54 203.64 148.62 205.26 148.71 L 205.28 150.37 C 203.25 150.36 201.22 150.33 199.19 150.27 C 198.83 149.79 198.10 148.82 197.74 148.33 C 197.77 146.49 197.80 144.66 197.84 142.82 Z" />
</g>
</svg>
