<?xml version="1.0" encoding="UTF-8" ?>
<!DOCTYPE svg PUBLIC "-//W3C//DTD SVG 1.1//EN" "http://www.w3.org/Graphics/SVG/1.1/DTD/svg11.dtd">
<svg width="241pt" height="225pt" viewBox="0 0 241 225" version="1.1" xmlns="http://www.w3.org/2000/svg">
<g id="#ffffffff">
<path fill="#FFFFFF" opacity="1.00" d=" M 0.00 0.00 L 241.00 0.00 L 241.00 225.00 L 0.00 225.00 L 0.00 147.92 C 1.24 151.65 2.79 155.53 5.79 158.21 C 9.07 160.69 13.13 161.80 17.05 162.82 C 22.95 164.17 28.97 165.76 35.07 165.04 C 41.14 164.28 47.39 164.99 53.28 163.06 C 59.92 161.03 66.72 157.59 70.50 151.51 C 74.24 145.65 72.54 138.04 69.62 132.20 C 67.10 127.74 64.36 122.79 59.42 120.66 C 53.06 117.87 45.95 116.94 39.07 117.79 C 39.26 111.47 40.33 105.24 42.03 99.16 C 41.58 99.40 40.68 99.88 40.23 100.12 C 37.20 107.77 37.16 116.11 36.03 124.17 C 34.22 121.40 32.13 118.79 29.43 116.82 C 29.86 120.67 33.01 123.10 35.85 125.28 C 32.63 128.92 27.43 128.23 23.43 130.44 C 20.74 131.85 16.80 133.51 14.82 130.20 C 16.72 127.99 18.01 125.29 20.05 123.20 C 22.85 121.33 26.32 120.36 28.30 117.44 C 25.55 118.14 22.94 119.27 20.39 120.52 C 17.07 122.11 15.68 126.20 11.99 127.21 C 5.81 129.25 1.73 134.84 0.00 140.91 L 0.00 0.00 M 31.96 62.94 C 28.68 66.36 24.56 69.28 23.01 73.97 C 20.75 79.32 23.57 85.09 26.98 89.22 C 28.75 89.43 29.75 90.91 30.88 92.10 C 32.66 94.23 35.20 95.47 37.44 97.04 C 39.76 97.39 42.10 97.58 44.44 97.70 C 47.14 95.33 50.52 94.10 53.61 92.38 C 56.29 91.48 60.16 90.94 60.63 87.52 C 57.97 88.90 55.44 90.60 52.45 91.21 C 51.47 92.06 50.48 92.90 49.48 93.74 C 51.43 90.33 52.52 86.30 50.61 82.60 C 50.16 86.44 50.02 90.37 47.87 93.74 C 46.00 94.75 44.25 96.40 41.97 96.24 C 39.13 96.62 36.71 94.99 34.37 93.68 C 32.60 90.17 29.34 87.83 26.32 85.47 C 24.88 81.90 23.01 77.82 24.99 74.06 C 27.64 67.78 33.48 61.02 41.02 62.11 C 44.99 62.53 47.83 65.74 49.37 69.19 C 52.72 69.40 56.10 69.56 59.44 69.20 C 62.35 68.48 64.21 65.73 66.99 64.82 C 71.65 64.69 75.51 67.94 80.12 68.15 C 86.08 69.25 92.17 69.89 97.90 71.98 C 102.02 71.60 106.90 73.27 110.48 70.77 C 112.98 71.23 115.53 70.89 116.75 68.38 C 123.01 66.31 130.87 65.78 136.10 70.47 C 137.02 70.43 138.88 70.34 139.80 70.30 C 135.74 66.22 129.45 65.07 123.90 65.09 C 119.85 66.08 115.17 66.57 112.19 69.80 C 110.89 70.07 109.59 70.42 108.25 70.30 C 103.19 69.99 97.95 70.81 93.07 69.07 C 87.19 67.02 80.50 68.33 74.97 65.16 C 71.58 63.60 66.80 61.47 63.71 64.67 C 60.27 67.99 55.16 69.29 50.62 67.61 C 47.56 60.54 38.00 58.43 31.96 62.94 M 202.77 69.65 C 198.11 70.81 193.24 70.41 188.59 69.45 C 184.45 68.50 180.21 69.42 176.17 70.39 C 172.17 71.69 168.85 76.07 164.28 74.67 C 160.05 73.54 155.66 73.70 151.36 73.18 C 146.39 70.67 140.68 70.69 135.25 71.09 C 138.67 72.55 142.73 72.70 145.61 75.31 C 148.66 77.42 151.90 81.40 155.98 79.36 C 157.61 80.14 159.59 80.70 160.32 82.56 C 164.80 89.03 164.47 97.36 162.79 104.70 C 160.38 107.35 156.34 106.91 153.14 106.39 C 147.78 105.93 142.24 105.22 136.97 106.70 C 135.65 106.72 134.38 106.35 133.10 106.10 C 132.84 105.66 132.34 104.78 132.08 104.34 C 129.09 104.24 126.20 103.43 123.29 102.79 C 127.26 101.65 128.66 97.40 130.08 93.97 C 131.86 88.65 128.55 83.47 125.38 79.45 C 121.82 75.76 116.81 74.19 112.16 72.38 C 107.51 74.70 102.33 73.42 97.39 73.49 C 101.96 76.45 108.05 75.35 113.09 74.24 C 118.86 76.73 126.24 79.57 127.55 86.55 C 128.98 90.87 128.49 95.85 125.76 99.57 C 122.53 102.12 118.27 102.59 114.45 103.80 C 114.38 103.28 114.24 102.23 114.17 101.71 C 112.04 103.92 109.91 106.21 107.08 107.53 L 107.88 107.99 C 104.41 108.16 100.87 108.36 97.62 109.72 C 97.02 108.60 96.29 107.56 95.57 106.51 C 95.08 105.64 94.64 104.75 94.16 103.88 C 96.47 103.52 99.77 103.58 99.97 100.50 C 101.32 98.95 102.65 97.25 104.72 96.65 C 104.80 98.14 104.86 99.63 104.92 101.12 C 105.53 100.77 106.75 100.05 107.36 99.69 C 107.28 97.82 106.33 96.33 104.95 95.14 C 105.51 94.81 106.61 94.16 107.17 93.83 C 110.34 94.49 113.66 94.04 115.97 91.60 C 116.81 91.51 118.50 91.32 119.34 91.23 C 115.41 90.19 111.74 92.85 107.85 93.12 C 103.80 93.43 100.72 96.64 99.18 100.20 C 97.56 100.66 95.95 101.15 94.35 101.66 C 94.31 101.19 94.21 100.25 94.17 99.78 C 93.57 100.03 92.38 100.53 91.79 100.78 C 89.50 98.63 92.93 96.16 95.05 95.70 C 93.99 95.28 92.94 94.86 91.89 94.42 C 89.82 97.32 88.02 100.46 86.96 103.88 C 88.89 104.36 89.22 102.19 90.11 101.04 C 93.32 105.75 96.09 110.82 97.99 116.21 C 99.46 120.45 99.44 124.96 100.02 129.35 C 103.84 130.35 102.44 135.06 103.60 137.89 C 106.06 144.65 102.77 151.45 101.13 157.96 C 100.66 161.54 99.85 165.06 99.27 168.63 C 98.73 168.92 97.64 169.51 97.09 169.80 C 97.49 166.70 98.90 163.73 98.95 160.60 C 98.59 160.34 97.88 159.80 97.53 159.53 C 96.41 163.08 94.86 166.65 95.19 170.47 C 96.44 170.78 97.69 171.18 98.75 171.93 C 98.24 174.48 97.92 177.18 96.41 179.39 C 93.87 180.52 90.99 180.51 88.47 181.69 C 84.56 183.58 80.32 184.77 76.01 185.23 C 72.83 185.13 69.79 184.06 66.78 183.11 C 68.34 179.14 72.72 177.46 74.45 173.60 C 77.33 168.53 83.86 169.30 88.80 169.55 C 90.52 170.97 91.25 173.15 92.26 175.06 C 92.73 175.19 93.68 175.44 94.15 175.57 C 93.08 172.62 91.70 169.70 89.06 167.83 C 90.17 162.33 90.71 156.50 88.92 151.08 C 87.69 146.74 85.65 142.11 87.32 137.59 C 88.12 134.90 89.20 130.69 85.81 129.34 C 84.15 125.55 84.32 121.31 82.86 117.49 C 80.97 121.23 81.99 125.15 83.14 128.89 C 79.94 123.44 74.02 118.69 75.05 111.73 C 77.16 112.52 79.24 113.41 81.40 114.06 C 79.77 110.17 74.97 110.33 72.34 107.55 C 70.29 105.65 68.12 103.84 66.35 101.66 C 64.18 98.65 64.31 94.76 64.32 91.23 C 61.81 91.72 59.31 92.28 56.78 92.67 C 56.78 93.04 56.78 93.78 56.79 94.16 C 58.70 94.04 60.61 93.90 62.50 93.64 C 62.52 96.06 62.59 98.48 62.73 100.90 C 59.13 98.63 56.04 95.63 52.35 93.50 C 52.96 97.17 56.74 98.56 59.16 100.85 C 60.48 102.22 62.25 102.67 64.10 102.34 C 66.86 104.92 69.22 107.91 72.18 110.28 C 72.83 113.84 72.64 117.92 75.15 120.81 C 77.20 123.41 78.97 126.27 81.48 128.48 C 83.18 130.12 85.38 131.58 85.94 134.02 C 85.44 136.96 84.09 139.83 84.69 142.87 C 84.90 146.60 86.88 149.87 87.77 153.44 C 88.30 158.31 87.62 163.20 87.51 168.08 C 85.99 167.97 84.48 167.88 82.97 167.82 C 78.46 167.18 74.78 170.12 72.01 173.31 C 70.76 176.97 66.49 178.48 65.21 182.23 C 66.61 183.61 67.95 185.05 69.34 186.44 C 72.13 186.94 74.93 187.64 77.78 187.54 C 82.20 186.02 86.56 184.33 91.04 183.03 C 93.61 182.35 97.13 182.34 98.29 179.41 C 99.91 176.91 99.93 173.94 99.80 171.07 C 101.18 166.38 102.24 161.61 103.40 156.87 C 104.98 151.36 107.37 145.70 106.07 139.87 C 105.56 136.40 103.48 133.53 102.25 130.32 C 100.89 127.15 102.13 123.65 101.40 120.37 C 101.01 118.66 100.48 116.98 100.09 115.27 C 99.33 113.99 98.58 112.72 97.82 111.45 C 103.25 110.46 108.96 109.20 113.20 105.41 C 115.48 105.12 117.75 104.77 120.00 104.27 C 120.04 104.01 120.13 103.50 120.18 103.24 C 120.94 103.21 122.47 103.14 123.23 103.10 C 122.17 103.71 121.13 104.34 120.10 105.01 C 123.02 105.18 126.11 104.80 128.85 106.11 C 132.29 107.36 135.86 110.00 139.67 108.56 C 145.67 106.37 151.98 108.89 158.12 108.78 C 161.68 108.75 164.46 106.06 167.91 105.48 C 171.01 104.81 173.79 103.27 176.50 101.68 C 178.70 101.96 180.88 101.63 182.98 100.92 C 181.53 99.79 179.72 99.74 177.98 100.00 C 179.44 98.43 180.59 96.60 181.23 94.54 C 178.22 96.42 176.15 99.39 173.39 101.57 C 170.80 103.28 167.66 103.82 164.64 104.19 C 164.95 102.80 165.24 101.40 165.52 99.99 C 168.51 99.09 172.00 99.33 174.48 97.16 C 171.74 97.08 168.94 97.30 166.49 98.64 C 165.84 95.89 165.70 93.05 165.17 90.28 C 168.41 90.05 171.67 90.20 174.85 90.85 C 174.65 90.34 174.24 89.33 174.03 88.82 C 171.00 87.90 167.59 86.99 164.89 89.27 C 163.92 86.55 163.08 83.79 162.22 81.04 C 165.49 81.61 168.76 82.22 172.02 82.83 C 176.15 83.31 179.89 81.08 183.89 80.52 C 186.54 80.12 189.03 79.13 191.40 77.92 C 193.32 78.62 195.35 78.40 197.12 77.36 C 195.93 77.18 193.55 76.84 192.36 76.67 C 198.54 74.10 204.79 78.11 211.02 76.82 C 215.93 75.30 219.90 71.40 225.05 70.60 C 227.22 71.53 228.40 73.82 228.60 76.08 C 228.50 82.76 227.06 89.35 227.13 96.04 C 227.51 99.85 223.92 102.39 220.92 103.92 C 217.94 105.80 214.49 104.04 211.37 103.66 C 212.09 102.01 213.19 100.66 214.67 99.64 C 214.39 100.48 213.84 102.16 213.56 103.01 C 215.76 100.10 219.70 101.40 222.78 100.96 C 221.00 98.88 218.18 99.79 215.97 100.43 C 215.55 100.01 215.14 99.58 214.74 99.15 C 215.13 98.68 215.91 97.72 216.30 97.24 C 216.64 93.68 216.58 89.61 213.75 86.97 C 215.36 86.84 216.97 86.69 218.59 86.52 C 217.65 85.39 216.47 84.54 214.93 85.04 C 212.12 85.53 209.19 85.71 206.52 86.75 C 203.20 88.88 200.00 91.41 196.06 92.31 C 190.97 93.77 184.58 94.43 182.42 100.16 C 186.66 99.36 189.42 94.95 193.91 94.46 C 198.02 94.12 201.73 92.30 205.31 90.38 C 204.59 91.93 203.80 93.44 202.81 94.83 C 204.09 97.62 204.77 101.20 207.94 102.48 C 206.85 100.00 205.73 97.52 204.96 94.92 C 206.52 93.21 206.82 90.94 206.91 88.73 C 208.58 88.07 210.27 87.46 211.98 86.89 C 213.20 89.08 214.42 91.28 215.42 93.59 C 214.06 95.81 212.57 97.97 210.61 99.71 C 209.00 100.92 209.94 103.09 209.80 104.76 C 215.16 107.04 221.60 107.10 226.27 103.26 C 230.09 100.82 228.41 95.77 228.96 92.02 C 228.78 85.26 232.60 77.68 228.28 71.57 C 226.42 68.43 222.21 69.78 219.36 70.41 C 218.22 68.89 217.03 67.42 215.82 65.95 C 214.24 65.73 212.67 65.38 211.07 65.35 C 207.83 65.70 205.60 68.36 202.77 69.65 M 61.08 71.12 C 60.87 71.66 60.44 72.75 60.23 73.29 C 64.20 71.42 68.16 68.79 72.78 69.38 C 71.74 70.69 70.69 71.99 69.68 73.32 C 72.39 72.23 75.03 70.61 78.06 70.65 C 82.39 70.37 86.36 72.41 90.55 73.08 C 90.28 72.68 89.75 71.86 89.49 71.46 C 85.66 69.68 81.35 69.58 77.21 69.57 C 74.44 69.05 71.84 67.49 68.93 67.84 C 66.17 68.54 63.66 69.96 61.08 71.12 M 85.91 76.30 C 89.42 75.98 93.32 75.68 95.84 72.88 C 92.24 72.93 88.93 74.47 85.91 76.30 M 43.22 77.60 C 45.09 77.70 46.96 77.75 48.83 77.81 C 48.85 77.34 48.90 76.40 48.93 75.93 C 46.84 75.88 44.52 75.57 43.22 77.60 M 52.11 76.01 C 52.09 76.45 52.03 77.33 52.00 77.77 C 53.24 77.84 54.47 77.93 55.71 78.03 C 57.47 80.35 58.68 83.03 60.40 85.37 C 61.87 86.32 63.50 86.99 65.08 87.73 C 64.88 88.15 64.49 89.00 64.29 89.42 C 67.08 87.86 70.22 88.05 73.24 88.76 C 71.04 91.25 67.47 94.41 70.02 97.93 C 71.03 96.52 71.54 94.85 72.34 93.33 C 75.33 91.53 78.84 91.02 82.22 90.44 C 82.85 90.96 83.47 91.48 84.09 92.00 C 84.52 90.29 85.38 88.76 86.27 87.25 C 84.88 87.97 83.52 88.73 82.32 89.74 C 79.74 89.57 77.12 89.24 74.64 90.16 C 71.65 86.05 65.52 87.38 62.17 83.74 C 59.71 81.55 58.22 78.48 55.77 76.30 C 54.56 76.15 53.34 76.06 52.11 76.01 M 73.94 76.06 C 73.92 78.22 73.91 80.38 73.93 82.55 C 76.66 81.70 79.55 80.66 81.16 78.09 C 78.81 78.61 76.64 79.60 74.51 80.68 C 74.64 79.96 74.91 78.51 75.05 77.79 C 77.70 77.21 80.45 77.56 83.15 77.47 L 83.17 75.96 C 80.09 75.95 77.02 75.95 73.94 76.06 M 99.05 76.44 C 102.06 77.93 104.96 79.64 107.60 81.73 C 107.77 81.36 108.12 80.63 108.30 80.26 C 105.67 78.05 102.31 77.21 99.05 76.44 M 213.44 77.28 C 211.70 78.06 210.03 79.00 208.74 80.44 C 212.23 79.36 215.77 78.46 219.42 78.22 C 217.44 77.85 215.42 77.64 213.44 77.28 M 82.16 79.33 C 85.82 79.40 88.38 81.88 91.41 83.47 C 90.41 79.53 85.77 77.20 82.16 79.33 M 190.16 86.84 C 195.95 86.91 202.74 86.24 206.56 81.29 C 201.34 83.84 195.88 85.79 190.16 86.84 M 88.10 85.58 C 89.04 86.26 91.15 85.27 90.69 84.00 C 89.73 83.18 87.73 84.33 88.10 85.58 M 141.01 91.38 C 142.67 88.96 144.35 86.43 144.74 83.45 C 142.03 85.15 140.31 88.12 141.01 91.38 M 84.20 86.15 C 84.43 89.49 87.10 84.47 84.20 86.15 M 176.72 86.87 C 179.99 87.61 183.45 87.42 186.65 86.40 C 183.34 85.99 179.94 85.85 176.72 86.87 M 190.34 91.53 C 193.72 91.21 197.14 90.20 199.58 87.72 C 196.37 88.60 193.08 89.58 190.34 91.53 M 93.19 90.44 C 91.72 91.34 92.96 94.24 94.53 92.79 C 96.04 91.90 94.75 89.06 93.19 90.44 M 27.92 90.83 C 27.21 98.43 29.74 105.89 28.57 113.51 C 28.87 114.38 29.18 115.26 29.49 116.13 C 30.35 107.79 31.59 98.68 27.92 90.83 M 108.29 100.00 C 107.66 101.43 109.56 103.75 111.07 103.07 C 111.82 101.63 109.81 99.20 108.29 100.00 M 100.86 100.28 C 100.87 100.97 100.91 102.37 100.93 103.07 C 104.03 100.94 105.40 105.00 107.09 106.82 C 107.12 105.58 107.27 104.33 107.01 103.11 C 105.03 102.01 102.88 101.29 100.86 100.28 M 85.19 116.82 C 87.20 121.46 89.02 126.87 93.98 129.14 C 93.26 125.92 90.33 123.92 89.20 120.88 C 87.44 116.97 84.89 112.34 87.45 108.18 C 88.37 108.31 90.23 108.59 91.16 108.72 C 90.45 107.06 88.90 106.17 87.10 106.24 C 83.95 108.72 83.75 113.33 85.19 116.82 M 93.92 113.78 C 93.59 114.44 92.94 115.75 92.61 116.40 C 91.72 116.87 90.85 117.39 90.01 117.95 C 90.41 119.22 90.88 120.47 91.37 121.71 C 92.45 119.11 96.45 116.57 93.92 113.78 M 93.63 141.53 C 92.54 144.65 89.87 147.15 89.58 150.54 C 91.53 148.88 93.07 146.80 94.16 144.48 C 96.23 140.22 99.41 136.11 99.21 131.12 C 96.77 134.24 95.69 138.17 93.63 141.53 M 96.78 151.85 C 96.03 153.87 93.91 155.85 95.48 158.03 C 96.45 156.06 97.28 154.03 98.22 152.05 C 99.11 148.65 100.06 145.24 100.46 141.74 C 97.87 144.47 98.37 148.61 96.78 151.85 Z" />
<path fill="#FFFFFF" opacity="1.00" d=" M 201.00 71.99 C 205.29 71.04 208.42 67.12 213.00 67.23 C 215.60 66.87 216.73 69.69 217.84 71.48 C 214.35 73.76 210.29 75.35 206.07 75.23 C 202.33 74.96 198.63 73.35 194.87 74.30 C 191.86 74.68 189.25 76.21 186.67 77.68 C 182.99 79.76 178.41 79.60 175.02 82.28 C 170.85 80.51 166.28 80.59 161.86 80.11 C 159.36 79.03 156.84 77.97 154.09 77.86 C 153.62 76.68 153.16 75.51 152.68 74.34 C 156.82 74.87 160.76 76.39 164.93 76.73 C 171.23 76.49 175.63 70.15 182.08 70.50 C 188.52 69.61 194.59 73.79 201.00 71.99 M 172.97 78.06 C 171.62 78.34 170.41 78.96 169.36 79.85 C 174.91 79.81 180.17 77.04 184.13 73.28 C 179.81 73.37 177.00 77.14 172.97 78.06 Z" />
<path fill="#FFFFFF" opacity="1.00" d=" M 143.91 71.98 C 147.50 73.05 151.25 74.58 152.54 78.46 C 149.83 76.08 147.16 73.63 143.91 71.98 Z" />
<path fill="#FFFFFF" opacity="1.00" d=" M 38.36 121.89 C 39.59 121.07 40.81 120.21 42.02 119.34 C 49.01 119.02 56.53 120.52 62.12 124.93 C 67.67 131.07 71.88 139.38 70.71 147.86 C 69.28 153.04 64.05 155.48 59.66 157.74 C 51.83 161.97 42.69 161.93 34.04 162.15 C 24.62 161.39 14.77 160.67 6.39 155.89 C 3.74 154.90 3.40 151.74 2.22 149.53 C 0.32 146.21 1.82 142.42 2.39 138.95 C 3.66 134.00 7.86 130.70 12.32 128.71 C 12.45 130.13 12.67 131.54 12.98 132.93 C 14.95 134.59 17.70 134.12 20.07 134.07 C 23.39 133.95 25.62 130.82 28.91 130.56 C 30.96 130.34 33.00 129.98 34.91 129.15 C 35.85 127.39 36.95 125.70 38.44 124.33 C 38.42 123.72 38.38 122.50 38.36 121.89 Z" />
</g>
<g id="#4b4c4bff">
<path fill="#333333" opacity="1.00" d=" M 31.96 62.94 C 38.00 58.43 47.56 60.54 50.62 67.61 C 55.16 69.29 60.27 67.99 63.71 64.67 C 66.80 61.47 71.58 63.60 74.97 65.16 C 80.50 68.33 87.19 67.02 93.07 69.07 C 97.95 70.81 103.19 69.99 108.25 70.30 C 109.59 70.42 110.89 70.07 112.19 69.80 C 115.17 66.57 119.85 66.08 123.90 65.09 C 129.45 65.07 135.74 66.22 139.80 70.30 C 138.88 70.34 137.02 70.43 136.10 70.47 C 130.87 65.78 123.01 66.31 116.75 68.38 C 115.53 70.89 112.98 71.23 110.48 70.77 C 106.90 73.27 102.02 71.60 97.90 71.98 C 92.17 69.89 86.08 69.25 80.12 68.15 C 75.51 67.94 71.65 64.69 66.99 64.82 C 64.21 65.73 62.35 68.48 59.44 69.20 C 56.10 69.56 52.72 69.40 49.37 69.19 C 47.83 65.74 44.99 62.53 41.02 62.11 C 33.48 61.02 27.64 67.78 24.99 74.06 C 23.01 77.82 24.88 81.90 26.32 85.47 C 29.34 87.83 32.60 90.17 34.37 93.68 C 36.71 94.99 39.13 96.62 41.97 96.24 C 44.25 96.40 46.00 94.75 47.87 93.74 C 50.02 90.37 50.16 86.44 50.61 82.60 C 52.52 86.30 51.43 90.33 49.48 93.74 C 50.48 92.90 51.47 92.06 52.45 91.21 C 55.44 90.60 57.97 88.90 60.63 87.52 C 60.16 90.94 56.29 91.48 53.61 92.38 C 50.52 94.10 47.14 95.33 44.44 97.70 C 42.10 97.58 39.76 97.39 37.44 97.04 C 35.20 95.47 32.66 94.23 30.88 92.10 C 29.75 90.91 28.75 89.43 26.98 89.22 C 23.57 85.09 20.75 79.32 23.01 73.97 C 24.56 69.28 28.68 66.36 31.96 62.94 Z" />
<path fill="#333333" opacity="1.00" d=" M 202.77 69.65 C 205.60 68.36 207.83 65.70 211.07 65.35 C 212.67 65.38 214.24 65.73 215.82 65.95 C 217.03 67.42 218.22 68.89 219.36 70.41 C 222.21 69.78 226.42 68.43 228.28 71.57 C 232.60 77.68 228.78 85.26 228.96 92.02 C 228.41 95.77 230.09 100.82 226.27 103.26 C 221.60 107.10 215.16 107.04 209.80 104.76 C 209.94 103.09 209.00 100.92 210.61 99.71 C 212.57 97.97 214.06 95.81 215.42 93.59 C 214.42 91.28 213.20 89.08 211.98 86.89 C 210.27 87.46 208.58 88.07 206.91 88.73 C 206.82 90.94 206.52 93.21 204.96 94.92 C 205.73 97.52 206.85 100.00 207.94 102.48 C 204.77 101.20 204.09 97.62 202.81 94.83 C 203.80 93.44 204.59 91.93 205.31 90.38 C 201.73 92.30 198.02 94.12 193.91 94.46 C 189.42 94.95 186.66 99.36 182.42 100.16 C 184.58 94.43 190.97 93.77 196.06 92.31 C 200.00 91.41 203.20 88.88 206.52 86.75 C 209.19 85.71 212.12 85.53 214.93 85.04 C 216.47 84.54 217.65 85.39 218.59 86.52 C 216.97 86.69 215.36 86.84 213.75 86.97 C 216.58 89.61 216.64 93.68 216.30 97.24 C 215.91 97.72 215.13 98.68 214.74 99.15 C 215.14 99.58 215.55 100.01 215.97 100.43 C 218.18 99.79 221.00 98.88 222.78 100.96 C 219.70 101.40 215.76 100.10 213.56 103.01 C 213.84 102.16 214.39 100.48 214.67 99.64 C 213.19 100.66 212.09 102.01 211.37 103.66 C 214.49 104.04 217.94 105.80 220.92 103.92 C 223.92 102.39 227.51 99.85 227.13 96.04 C 227.06 89.35 228.50 82.76 228.60 76.08 C 228.40 73.82 227.22 71.53 225.05 70.60 C 219.90 71.40 215.93 75.30 211.02 76.82 C 204.79 78.11 198.54 74.10 192.36 76.67 C 193.55 76.84 195.93 77.18 197.12 77.36 C 195.35 78.40 193.32 78.62 191.40 77.92 C 189.03 79.13 186.54 80.12 183.89 80.52 C 179.89 81.08 176.15 83.31 172.02 82.83 C 168.76 82.22 165.49 81.61 162.22 81.04 C 163.08 83.79 163.92 86.55 164.89 89.27 C 167.59 86.99 171.00 87.90 174.03 88.82 C 174.24 89.33 174.65 90.34 174.85 90.85 C 171.67 90.20 168.41 90.05 165.17 90.28 C 165.70 93.05 165.84 95.89 166.49 98.64 C 168.94 97.30 171.74 97.08 174.48 97.16 C 172.00 99.33 168.51 99.09 165.52 99.99 C 165.24 101.40 164.95 102.80 164.64 104.19 C 167.66 103.82 170.80 103.28 173.39 101.57 C 176.15 99.39 178.22 96.42 181.23 94.54 C 180.59 96.60 179.44 98.43 177.98 100.00 C 179.72 99.74 181.53 99.79 182.98 100.92 C 180.88 101.63 178.70 101.96 176.50 101.68 C 173.79 103.27 171.01 104.81 167.91 105.48 C 164.46 106.06 161.68 108.75 158.12 108.78 C 151.98 108.89 145.67 106.37 139.67 108.56 C 135.86 110.00 132.29 107.36 128.85 106.11 C 126.11 104.80 123.02 105.18 120.10 105.01 C 121.13 104.34 122.17 103.71 123.23 103.10 C 122.47 103.14 120.94 103.21 120.18 103.24 C 120.13 103.50 120.04 104.01 120.00 104.27 C 117.75 104.77 115.48 105.12 113.20 105.41 C 108.96 109.20 103.25 110.46 97.82 111.45 C 98.58 112.72 99.33 113.99 100.09 115.27 C 100.48 116.98 101.01 118.66 101.40 120.37 C 102.13 123.65 100.89 127.15 102.25 130.32 C 103.48 133.53 105.56 136.40 106.07 139.87 C 107.37 145.70 104.98 151.36 103.40 156.87 C 102.24 161.61 101.18 166.38 99.80 171.07 C 99.93 173.94 99.91 176.91 98.29 179.41 C 97.13 182.34 93.61 182.35 91.04 183.03 C 86.56 184.33 82.20 186.02 77.78 187.54 C 74.93 187.64 72.13 186.94 69.34 186.44 C 67.95 185.05 66.61 183.61 65.21 182.23 C 66.49 178.48 70.76 176.97 72.01 173.31 C 74.78 170.12 78.46 167.18 82.97 167.82 C 84.48 167.88 85.99 167.97 87.51 168.08 C 87.62 163.20 88.30 158.31 87.77 153.44 C 86.88 149.87 84.90 146.60 84.69 142.87 C 84.09 139.83 85.44 136.96 85.94 134.02 C 85.38 131.58 83.18 130.12 81.48 128.48 C 78.97 126.27 77.20 123.41 75.15 120.81 C 72.64 117.92 72.83 113.84 72.18 110.28 C 69.22 107.91 66.86 104.92 64.10 102.34 C 62.25 102.67 60.48 102.22 59.16 100.85 C 56.74 98.56 52.96 97.17 52.35 93.50 C 56.04 95.63 59.13 98.63 62.73 100.90 C 62.59 98.48 62.52 96.06 62.50 93.64 C 60.61 93.90 58.70 94.04 56.79 94.16 C 56.78 93.78 56.78 93.04 56.78 92.67 C 59.31 92.28 61.81 91.72 64.32 91.23 C 64.31 94.76 64.18 98.65 66.35 101.66 C 68.12 103.84 70.29 105.65 72.34 107.55 C 74.97 110.33 79.77 110.17 81.40 114.06 C 79.24 113.41 77.16 112.52 75.05 111.73 C 74.02 118.69 79.94 123.44 83.14 128.89 C 81.99 125.15 80.97 121.23 82.86 117.49 C 84.32 121.31 84.15 125.55 85.81 129.34 C 89.20 130.69 88.12 134.90 87.32 137.59 C 85.65 142.11 87.69 146.74 88.92 151.08 C 90.71 156.50 90.17 162.33 89.06 167.83 C 91.70 169.70 93.08 172.62 94.15 175.57 C 93.68 175.44 92.73 175.19 92.26 175.06 C 91.25 173.15 90.52 170.97 88.80 169.55 C 83.86 169.30 77.33 168.53 74.45 173.60 C 72.72 177.46 68.34 179.14 66.78 183.11 C 69.79 184.06 72.83 185.13 76.01 185.23 C 80.32 184.77 84.56 183.58 88.47 181.69 C 90.99 180.51 93.87 180.52 96.41 179.39 C 97.92 177.18 98.24 174.48 98.75 171.93 C 97.69 171.18 96.44 170.78 95.19 170.47 C 94.86 166.65 96.41 163.08 97.53 159.53 C 97.88 159.80 98.59 160.34 98.95 160.60 C 98.90 163.73 97.49 166.70 97.09 169.80 C 97.64 169.51 98.73 168.92 99.27 168.63 C 99.85 165.06 100.66 161.54 101.13 157.96 C 102.77 151.45 106.06 144.65 103.60 137.89 C 102.44 135.06 103.84 130.35 100.02 129.35 C 99.44 124.96 99.46 120.45 97.99 116.21 C 96.09 110.82 93.32 105.75 90.11 101.04 C 89.22 102.19 88.89 104.36 86.96 103.88 C 88.02 100.46 89.82 97.32 91.89 94.42 C 92.94 94.86 93.99 95.28 95.05 95.70 C 92.93 96.16 89.50 98.63 91.79 100.78 C 92.38 100.53 93.57 100.03 94.17 99.78 C 94.21 100.25 94.31 101.19 94.35 101.66 C 95.95 101.15 97.56 100.66 99.18 100.20 C 100.72 96.64 103.80 93.43 107.85 93.12 C 111.74 92.85 115.41 90.19 119.34 91.23 C 118.50 91.32 116.81 91.51 115.97 91.60 C 113.66 94.04 110.34 94.49 107.17 93.83 C 106.61 94.16 105.51 94.81 104.95 95.14 C 106.33 96.33 107.28 97.82 107.36 99.69 C 106.75 100.05 105.53 100.77 104.92 101.12 C 104.86 99.63 104.80 98.14 104.72 96.65 C 102.65 97.25 101.32 98.95 99.97 100.50 C 99.77 103.58 96.47 103.52 94.16 103.88 C 94.64 104.75 95.08 105.64 95.57 106.51 C 96.29 107.56 97.02 108.60 97.62 109.72 C 100.87 108.36 104.41 108.16 107.88 107.99 L 107.08 107.53 C 109.91 106.21 112.04 103.92 114.17 101.71 C 114.24 102.23 114.38 103.28 114.45 103.80 C 118.27 102.59 122.53 102.12 125.76 99.57 C 128.49 95.85 128.98 90.87 127.55 86.55 C 126.24 79.57 118.86 76.73 113.09 74.24 C 108.05 75.35 101.96 76.45 97.39 73.49 C 102.33 73.42 107.51 74.70 112.16 72.38 C 116.81 74.19 121.82 75.76 125.38 79.45 C 128.55 83.47 131.86 88.65 130.08 93.97 C 128.66 97.40 127.26 101.65 123.29 102.79 C 126.20 103.43 129.09 104.24 132.08 104.34 C 132.34 104.78 132.84 105.66 133.10 106.10 C 134.38 106.35 135.65 106.72 136.97 106.70 C 142.24 105.22 147.78 105.93 153.14 106.39 C 156.34 106.91 160.38 107.35 162.79 104.70 C 164.47 97.36 164.80 89.03 160.32 82.56 C 159.59 80.70 157.61 80.14 155.98 79.36 C 151.90 81.40 148.66 77.42 145.61 75.31 C 142.73 72.70 138.67 72.55 135.25 71.09 C 140.68 70.69 146.39 70.67 151.36 73.18 C 155.66 73.70 160.05 73.54 164.28 74.67 C 168.85 76.07 172.17 71.69 176.17 70.39 C 180.21 69.42 184.45 68.50 188.59 69.45 C 193.24 70.41 198.11 70.81 202.77 69.65 M 201.00 71.99 C 194.59 73.79 188.52 69.61 182.08 70.50 C 175.63 70.15 171.23 76.49 164.93 76.73 C 160.76 76.39 156.82 74.87 152.68 74.34 C 153.16 75.51 153.62 76.68 154.09 77.86 C 156.84 77.97 159.36 79.03 161.86 80.11 C 166.28 80.59 170.85 80.51 175.02 82.28 C 178.41 79.60 182.99 79.76 186.67 77.68 C 189.25 76.21 191.86 74.68 194.87 74.30 C 198.63 73.35 202.33 74.96 206.07 75.23 C 210.29 75.35 214.35 73.76 217.84 71.48 C 216.73 69.69 215.60 66.87 213.00 67.23 C 208.42 67.12 205.29 71.04 201.00 71.99 M 143.91 71.98 C 147.16 73.63 149.83 76.08 152.54 78.46 C 151.25 74.58 147.50 73.05 143.91 71.98 Z" />
<path fill="#333333" opacity="1.00" d=" M 61.08 71.12 C 63.66 69.96 66.17 68.54 68.93 67.84 C 71.84 67.49 74.44 69.05 77.21 69.57 C 81.35 69.58 85.66 69.68 89.49 71.46 C 89.75 71.86 90.28 72.68 90.55 73.08 C 86.36 72.41 82.39 70.37 78.06 70.65 C 75.03 70.61 72.39 72.23 69.68 73.32 C 70.69 71.99 71.74 70.69 72.78 69.38 C 68.16 68.79 64.20 71.42 60.23 73.29 C 60.44 72.75 60.87 71.66 61.08 71.12 Z" />
<path fill="#333333" opacity="1.00" d=" M 85.91 76.30 C 88.93 74.47 92.24 72.93 95.84 72.88 C 93.32 75.68 89.42 75.98 85.91 76.30 Z" />
<path fill="#333333" opacity="1.00" d=" M 172.97 78.06 C 177.00 77.14 179.81 73.37 184.13 73.28 C 180.17 77.04 174.91 79.81 169.36 79.85 C 170.41 78.96 171.62 78.34 172.97 78.06 Z" />
<path fill="#333333" opacity="1.00" d=" M 43.22 77.60 C 44.52 75.57 46.84 75.88 48.93 75.93 C 48.90 76.40 48.85 77.34 48.83 77.81 C 46.96 77.75 45.09 77.70 43.22 77.60 Z" />
<path fill="#333333" opacity="1.00" d=" M 52.11 76.01 C 53.34 76.06 54.56 76.15 55.77 76.30 C 58.22 78.48 59.71 81.55 62.17 83.74 C 65.52 87.38 71.65 86.05 74.64 90.16 C 77.12 89.24 79.74 89.57 82.32 89.74 C 83.52 88.73 84.88 87.97 86.27 87.25 C 85.38 88.76 84.52 90.29 84.09 92.00 C 83.47 91.48 82.85 90.96 82.22 90.44 C 78.84 91.02 75.33 91.53 72.34 93.33 C 71.54 94.85 71.03 96.52 70.02 97.93 C 67.47 94.41 71.04 91.25 73.24 88.76 C 70.22 88.05 67.08 87.86 64.29 89.42 C 64.49 89.00 64.88 88.15 65.08 87.73 C 63.50 86.99 61.87 86.32 60.40 85.37 C 58.68 83.03 57.47 80.35 55.71 78.03 C 54.47 77.93 53.24 77.84 52.00 77.77 C 52.03 77.33 52.09 76.45 52.11 76.01 Z" />
<path fill="#333333" opacity="1.00" d=" M 73.94 76.06 C 77.02 75.95 80.09 75.95 83.17 75.96 L 83.15 77.47 C 80.45 77.56 77.70 77.21 75.05 77.79 C 74.91 78.51 74.64 79.96 74.51 80.68 C 76.64 79.60 78.81 78.61 81.16 78.09 C 79.55 80.66 76.66 81.70 73.93 82.55 C 73.91 80.38 73.92 78.22 73.94 76.06 Z" />
<path fill="#333333" opacity="1.00" d=" M 99.05 76.44 C 102.31 77.21 105.67 78.05 108.30 80.26 C 108.12 80.63 107.77 81.36 107.60 81.73 C 104.96 79.64 102.06 77.93 99.05 76.44 Z" />
<path fill="#333333" opacity="1.00" d=" M 213.44 77.28 C 215.42 77.64 217.44 77.85 219.42 78.22 C 215.77 78.46 212.23 79.36 208.74 80.44 C 210.03 79.00 211.70 78.06 213.44 77.28 Z" />
<path fill="#333333" opacity="1.00" d=" M 82.16 79.33 C 85.77 77.20 90.41 79.53 91.41 83.47 C 88.38 81.88 85.82 79.40 82.16 79.33 Z" />
<path fill="#333333" opacity="1.00" d=" M 190.16 86.84 C 195.88 85.79 201.34 83.84 206.56 81.29 C 202.74 86.24 195.95 86.91 190.16 86.84 Z" />
<path fill="#333333" opacity="1.00" d=" M 88.10 85.58 C 87.73 84.33 89.73 83.18 90.69 84.00 C 91.15 85.27 89.04 86.26 88.10 85.58 Z" />
<path fill="#333333" opacity="1.00" d=" M 141.01 91.38 C 140.31 88.12 142.03 85.15 144.74 83.45 C 144.35 86.43 142.67 88.96 141.01 91.38 Z" />
<path fill="#333333" opacity="1.00" d=" M 84.20 86.15 C 87.10 84.47 84.43 89.49 84.20 86.15 Z" />
<path fill="#333333" opacity="1.00" d=" M 176.72 86.87 C 179.94 85.85 183.34 85.99 186.65 86.40 C 183.45 87.42 179.99 87.61 176.72 86.87 Z" />
<path fill="#333333" opacity="1.00" d=" M 190.34 91.53 C 193.08 89.58 196.37 88.60 199.58 87.72 C 197.14 90.20 193.72 91.21 190.34 91.53 Z" />
<path fill="#333333" opacity="1.00" d=" M 93.19 90.44 C 94.75 89.06 96.04 91.90 94.53 92.79 C 92.96 94.24 91.72 91.34 93.19 90.44 Z" />
<path fill="#333333" opacity="1.00" d=" M 27.92 90.83 C 31.59 98.68 30.35 107.79 29.49 116.13 C 29.18 115.26 28.87 114.38 28.57 113.51 C 29.74 105.89 27.21 98.43 27.92 90.83 Z" />
<path fill="#333333" opacity="1.00" d=" M 40.23 100.12 C 40.68 99.88 41.58 99.40 42.03 99.16 C 40.33 105.24 39.26 111.47 39.07 117.79 C 45.95 116.94 53.06 117.87 59.42 120.66 C 64.36 122.79 67.10 127.74 69.62 132.20 C 72.54 138.04 74.24 145.65 70.50 151.51 C 66.72 157.59 59.92 161.03 53.28 163.06 C 47.39 164.99 41.14 164.28 35.07 165.04 C 28.97 165.76 22.95 164.17 17.05 162.82 C 13.13 161.80 9.07 160.69 5.79 158.21 C 2.79 155.53 1.24 151.65 0.00 147.92 L 0.00 140.91 C 1.73 134.84 5.81 129.25 11.99 127.21 C 15.68 126.20 17.07 122.11 20.39 120.52 C 22.94 119.27 25.55 118.14 28.30 117.44 C 26.32 120.36 22.85 121.33 20.05 123.20 C 18.01 125.29 16.72 127.99 14.82 130.20 C 16.80 133.51 20.74 131.85 23.43 130.44 C 27.43 128.23 32.63 128.92 35.85 125.28 C 33.01 123.10 29.86 120.67 29.43 116.82 C 32.13 118.79 34.22 121.40 36.03 124.17 C 37.16 116.11 37.20 107.77 40.23 100.12 M 38.36 121.89 C 38.38 122.50 38.42 123.72 38.44 124.33 C 36.95 125.70 35.85 127.39 34.91 129.15 C 33.00 129.98 30.96 130.34 28.91 130.56 C 25.62 130.82 23.39 133.95 20.07 134.07 C 17.70 134.12 14.95 134.59 12.98 132.93 C 12.67 131.54 12.45 130.13 12.32 128.71 C 7.86 130.70 3.66 134.00 2.39 138.95 C 1.82 142.42 0.32 146.21 2.22 149.53 C 3.40 151.74 3.74 154.90 6.39 155.89 C 14.77 160.67 24.62 161.39 34.04 162.15 C 42.69 161.93 51.83 161.97 59.66 157.74 C 64.05 155.48 69.28 153.04 70.71 147.86 C 71.88 139.38 67.67 131.07 62.12 124.93 C 56.53 120.52 49.01 119.02 42.02 119.34 C 40.81 120.21 39.59 121.07 38.36 121.89 Z" />
<path fill="#333333" opacity="1.00" d=" M 108.29 100.00 C 109.81 99.20 111.82 101.63 111.07 103.07 C 109.56 103.75 107.66 101.43 108.29 100.00 Z" />
<path fill="#333333" opacity="1.00" d=" M 100.86 100.28 C 102.88 101.29 105.03 102.01 107.01 103.11 C 107.27 104.33 107.12 105.58 107.09 106.82 C 105.40 105.00 104.03 100.94 100.93 103.07 C 100.91 102.37 100.87 100.97 100.86 100.28 Z" />
<path fill="#333333" opacity="1.00" d=" M 85.19 116.82 C 83.75 113.33 83.95 108.72 87.10 106.24 C 88.90 106.17 90.45 107.06 91.16 108.72 C 90.23 108.59 88.37 108.31 87.45 108.18 C 84.89 112.34 87.44 116.97 89.20 120.88 C 90.33 123.92 93.26 125.92 93.98 129.14 C 89.02 126.87 87.20 121.46 85.19 116.82 Z" />
<path fill="#333333" opacity="1.00" d=" M 93.92 113.78 C 96.45 116.57 92.45 119.11 91.37 121.71 C 90.88 120.47 90.41 119.22 90.01 117.95 C 90.85 117.39 91.72 116.87 92.61 116.40 C 92.94 115.75 93.59 114.44 93.92 113.78 Z" />
<path fill="#333333" opacity="1.00" d=" M 93.63 141.53 C 95.69 138.17 96.77 134.24 99.21 131.12 C 99.41 136.11 96.23 140.22 94.16 144.48 C 93.07 146.80 91.53 148.88 89.58 150.54 C 89.87 147.15 92.54 144.65 93.63 141.53 Z" />
<path fill="#333333" opacity="1.00" d=" M 96.78 151.85 C 98.37 148.61 97.87 144.47 100.46 141.74 C 100.06 145.24 99.11 148.65 98.22 152.05 C 97.28 154.03 96.45 156.06 95.48 158.03 C 93.91 155.85 96.03 153.87 96.78 151.85 Z" />
</g>
</svg>
