<?xml version="1.0" encoding="UTF-8" ?>
<!DOCTYPE svg PUBLIC "-//W3C//DTD SVG 1.1//EN" "http://www.w3.org/Graphics/SVG/1.1/DTD/svg11.dtd">
<svg width="182pt" height="225pt" viewBox="0 0 182 225" version="1.1" xmlns="http://www.w3.org/2000/svg">
<g id="#ffffffff">
<path fill="#FFFFFF" opacity="1.00" d=" M 0.00 0.00 L 182.00 0.00 L 182.00 202.88 C 180.23 198.57 178.32 194.18 175.19 190.66 C 177.03 196.01 179.90 200.94 182.00 206.19 L 182.00 209.26 C 180.97 209.75 179.95 210.23 178.93 210.73 C 177.81 210.11 176.69 209.50 175.58 208.88 C 173.36 204.01 170.67 199.36 167.94 194.76 C 170.70 193.50 174.17 192.38 175.19 189.16 C 176.23 187.26 174.22 185.84 173.29 184.43 C 170.57 177.69 167.76 170.98 164.52 164.46 C 162.44 159.89 161.18 153.47 155.34 152.42 C 154.55 148.07 153.05 143.90 151.08 139.96 C 152.31 137.83 153.45 135.52 153.33 133.00 C 153.32 126.67 153.46 120.34 153.27 114.01 C 153.20 110.06 151.76 106.21 149.07 103.29 L 147.63 104.72 C 149.21 97.58 148.56 90.33 148.29 83.10 C 147.91 79.28 145.49 75.93 145.50 72.04 C 145.38 69.90 145.62 67.73 145.22 65.61 C 144.25 63.08 142.35 61.08 140.71 58.97 C 142.65 49.72 144.35 40.40 145.50 31.02 C 146.37 26.64 142.67 21.96 138.10 22.23 C 131.76 22.12 125.38 20.87 119.05 21.79 C 119.74 22.31 120.43 22.82 121.14 23.31 C 126.75 23.03 132.38 23.62 137.99 23.74 C 141.57 23.65 144.52 27.51 143.78 30.93 C 142.59 40.64 140.19 50.16 139.16 59.90 C 136.39 56.33 133.12 53.16 129.22 50.86 C 127.19 45.36 128.37 39.60 129.01 33.99 C 128.71 30.78 127.96 26.89 124.94 25.10 C 122.66 23.83 119.76 24.09 117.77 22.25 C 115.56 23.18 113.04 23.57 111.12 25.07 C 106.24 32.60 108.71 42.28 111.97 49.95 C 109.51 51.49 107.13 53.14 104.59 54.54 C 100.88 56.45 95.97 55.65 93.03 59.05 C 90.38 61.66 90.03 65.49 90.06 69.01 C 90.36 73.00 87.04 76.06 87.18 80.02 C 87.13 83.44 86.59 86.81 85.31 89.99 C 83.14 95.94 84.87 102.97 81.42 108.44 C 85.28 108.43 89.11 109.08 92.97 108.99 C 94.72 107.93 94.88 105.72 95.55 103.98 C 101.60 105.50 107.81 106.36 113.84 108.01 C 115.15 107.47 116.47 106.92 117.79 106.39 C 120.69 106.87 123.65 106.94 126.53 106.30 C 124.42 105.62 122.26 105.12 120.09 104.68 C 119.51 104.03 118.94 103.39 118.38 102.74 L 119.44 103.04 C 120.95 100.74 122.70 98.57 123.85 96.05 C 121.58 97.64 119.81 99.78 118.20 102.01 C 118.19 102.98 118.18 103.96 118.17 104.94 C 116.71 105.34 115.26 105.77 113.82 106.22 C 109.59 105.44 105.34 104.71 101.20 103.53 C 101.54 100.66 102.56 97.94 103.18 95.13 C 102.46 93.05 101.37 91.12 100.42 89.13 C 102.31 86.93 104.30 84.81 106.23 82.64 C 107.76 82.23 109.27 81.81 110.78 81.33 C 109.09 80.99 107.00 80.10 105.50 81.44 C 103.09 83.60 101.17 86.26 98.75 88.43 C 99.40 90.67 100.46 92.81 100.78 95.14 C 100.22 98.06 99.38 100.93 99.31 103.94 C 98.65 103.54 97.33 102.75 96.68 102.35 C 98.03 98.18 98.73 93.65 97.42 89.38 C 96.15 85.63 97.98 81.89 98.88 78.29 C 98.19 76.09 96.87 73.89 97.30 71.51 C 97.80 66.93 102.09 64.25 104.27 60.51 C 96.85 62.81 94.81 72.03 97.15 78.66 C 95.84 82.69 95.27 86.91 95.66 91.13 C 94.73 96.81 91.29 101.77 90.69 107.56 C 88.79 107.54 86.47 108.48 84.99 106.84 C 85.21 100.14 84.64 93.12 88.16 87.06 C 89.15 89.64 89.97 92.31 91.36 94.73 C 91.41 92.15 90.78 89.65 90.36 87.13 C 89.90 87.06 88.98 86.91 88.52 86.84 C 88.77 83.98 88.58 81.05 89.32 78.25 C 90.25 75.92 91.94 73.73 91.62 71.07 C 91.36 66.65 91.64 61.33 95.89 58.77 C 98.96 57.42 102.49 57.42 105.61 56.09 C 105.41 56.80 105.01 58.20 104.81 58.90 C 108.30 59.49 111.67 60.61 114.79 62.30 C 113.54 58.28 109.25 57.36 105.54 58.07 C 105.80 57.25 106.07 56.44 106.34 55.63 C 108.89 54.17 111.38 52.56 113.60 50.63 C 116.58 51.84 119.68 51.36 122.56 50.10 C 121.00 52.82 119.69 55.68 118.99 58.74 C 123.36 55.64 122.90 49.58 124.75 45.03 C 122.54 47.16 120.10 49.35 116.95 49.86 C 115.00 49.60 113.30 48.23 112.45 46.48 C 110.14 41.29 109.53 35.51 109.80 29.88 C 111.68 23.30 121.19 23.50 125.45 27.51 C 129.01 33.98 125.03 41.28 126.85 48.03 C 127.21 49.75 127.31 51.85 129.03 52.83 C 133.14 55.80 136.83 59.30 141.02 62.15 C 144.55 64.96 142.91 69.98 143.48 73.83 C 144.33 77.06 146.28 79.93 146.76 83.28 C 147.01 90.04 147.15 96.84 146.07 103.55 C 142.63 102.93 139.16 102.55 135.68 102.29 C 136.39 98.29 136.33 94.23 136.46 90.20 C 138.41 90.87 139.98 92.28 141.78 93.25 C 140.03 90.99 137.72 89.10 136.57 86.42 C 135.11 83.01 134.10 79.43 132.78 75.97 C 133.14 74.62 133.48 73.27 133.80 71.90 C 131.66 74.15 130.05 77.22 126.95 78.26 C 121.87 79.47 116.91 77.25 112.11 75.90 C 115.04 79.77 120.12 79.52 124.48 79.33 C 127.07 79.07 129.50 78.04 131.87 77.00 C 132.87 80.08 134.80 83.21 133.96 86.55 C 133.33 89.62 130.81 91.92 130.29 95.03 C 129.47 99.25 128.56 103.47 126.85 107.43 C 127.40 107.33 128.50 107.11 129.05 107.00 C 129.16 107.67 129.38 109.02 129.50 109.69 C 129.25 101.71 131.03 93.32 135.88 86.83 C 135.50 92.19 134.04 97.61 135.15 102.97 C 134.61 103.24 133.53 103.80 132.99 104.08 C 132.90 106.62 133.26 109.21 132.69 111.70 C 131.27 112.05 129.74 111.34 128.38 112.01 C 128.84 112.61 129.29 113.23 129.73 113.86 C 128.47 115.24 126.80 116.14 125.18 117.02 L 124.65 116.99 L 125.75 114.13 C 121.03 117.29 116.06 120.35 112.73 125.07 C 116.76 122.97 119.95 119.68 123.56 116.98 C 121.97 119.71 119.20 122.36 119.45 125.79 C 119.96 128.52 121.08 131.10 121.82 133.77 C 117.44 132.87 114.21 129.66 110.25 127.92 C 101.10 125.70 91.10 124.81 82.10 128.02 C 84.07 123.33 83.58 117.93 81.57 113.34 C 80.06 110.75 78.05 108.50 76.25 106.11 C 77.28 106.10 79.33 106.06 80.35 106.04 C 76.97 105.08 73.52 105.89 70.13 106.34 C 69.83 102.59 71.46 96.83 66.56 95.50 C 61.55 94.95 56.11 95.47 51.52 97.64 C 48.48 100.73 49.80 105.75 49.76 109.69 C 46.63 113.79 46.38 119.08 45.98 124.02 C 45.72 128.74 43.70 133.22 43.96 138.00 C 43.92 143.71 43.89 150.41 39.86 154.88 C 34.81 157.75 29.23 159.90 23.42 160.50 C 20.55 160.83 19.44 163.64 18.53 165.97 C 21.17 167.75 24.06 169.08 26.95 170.40 C 23.47 175.11 20.63 180.24 17.88 185.39 C 19.26 186.64 20.67 187.86 22.09 189.06 C 23.98 188.16 26.57 187.98 27.60 185.91 C 29.95 181.83 32.16 177.64 35.09 173.93 C 36.60 174.74 37.97 175.79 39.35 176.81 C 42.04 176.98 44.83 177.05 47.08 175.33 C 47.09 174.57 47.11 173.04 47.12 172.28 C 49.00 171.17 51.37 170.53 52.65 168.67 C 54.74 162.50 54.03 155.90 55.03 149.55 C 65.77 147.95 76.39 145.66 87.20 144.50 C 87.40 145.18 87.80 146.54 88.00 147.22 C 91.61 148.79 96.25 149.30 99.08 145.95 C 99.90 142.65 99.52 139.21 99.44 135.86 C 104.00 136.40 108.90 136.43 112.95 138.87 L 111.68 139.05 C 111.48 142.87 110.87 146.64 110.28 150.41 C 112.58 151.95 115.05 153.95 118.00 153.68 C 119.69 153.23 121.14 152.23 122.65 151.40 C 126.53 152.34 130.51 152.93 134.51 152.98 C 129.59 150.80 123.61 149.31 118.47 151.59 C 116.58 152.57 114.71 151.27 112.99 150.57 C 113.20 146.44 113.68 142.32 113.66 138.18 C 118.34 140.07 122.48 137.38 126.07 134.67 C 127.35 134.87 128.63 135.07 129.91 135.27 C 129.94 136.52 129.99 139.02 130.02 140.27 C 131.26 138.80 131.57 136.85 132.14 135.08 C 132.59 135.46 133.04 135.84 133.49 136.22 C 133.93 141.11 133.57 146.07 134.43 150.91 C 135.08 154.58 138.71 156.66 139.82 160.16 C 141.22 163.95 143.51 167.32 145.07 171.03 C 146.50 176.59 146.87 182.39 146.80 188.12 C 146.49 190.67 149.08 192.08 150.35 193.92 C 150.29 192.64 150.24 191.36 150.17 190.09 L 149.01 190.36 C 149.24 183.35 149.10 176.16 146.67 169.51 C 144.72 165.69 142.36 162.06 140.98 157.98 C 140.13 154.57 135.90 152.86 136.08 149.12 C 136.16 143.13 136.14 136.98 133.76 131.37 C 133.53 131.97 133.07 133.18 132.83 133.79 C 129.77 133.73 126.43 134.32 123.65 132.67 C 122.82 130.14 122.10 127.57 121.62 124.94 C 122.10 120.84 125.53 117.36 129.54 116.44 C 135.58 114.16 140.97 119.26 145.00 123.12 C 147.91 125.50 146.96 129.58 147.28 132.85 C 149.03 141.44 153.89 149.16 154.18 158.09 C 154.23 164.60 156.18 170.96 159.23 176.65 C 164.44 180.31 168.88 184.96 174.54 188.00 C 171.99 192.93 164.97 194.60 160.43 191.44 C 158.01 189.60 154.97 190.62 152.22 190.78 C 152.59 192.37 152.09 193.88 151.28 195.26 C 152.07 196.44 152.57 197.99 153.93 198.68 C 157.49 198.83 160.67 196.97 163.32 194.77 C 164.39 194.93 165.45 195.15 166.51 195.41 C 169.81 199.72 171.88 204.82 174.55 209.51 C 176.42 211.75 179.48 211.97 182.00 210.73 L 182.00 225.00 L 0.00 225.00 L 0.00 0.00 M 137.05 49.62 C 140.08 42.96 139.92 35.35 140.55 28.18 C 138.57 35.14 137.05 42.36 137.05 49.62 M 112.67 52.56 C 112.77 54.55 113.21 56.49 114.57 58.01 C 114.51 56.12 114.38 54.24 114.28 52.36 C 113.87 52.41 113.07 52.51 112.67 52.56 M 116.42 62.71 C 118.35 62.05 120.11 60.14 122.28 60.67 C 126.32 61.47 131.60 62.56 134.41 58.66 C 129.94 59.53 125.44 59.23 120.94 59.01 C 118.60 58.77 117.40 61.01 116.42 62.71 M 100.57 76.94 C 101.85 77.82 103.34 78.36 104.90 78.33 C 107.53 78.40 111.07 78.65 111.87 75.47 C 108.24 76.80 104.40 77.02 100.57 76.94 M 110.35 81.14 C 111.81 81.67 113.29 82.12 114.80 82.50 C 116.23 84.67 118.12 86.47 119.73 88.49 C 121.44 90.37 119.92 93.25 121.62 95.17 C 121.95 92.99 122.67 90.59 121.75 88.45 C 119.97 85.75 117.61 83.49 115.63 80.94 C 113.87 80.73 112.11 80.80 110.35 81.14 M 108.05 94.99 C 108.20 98.11 106.41 101.05 107.17 104.16 C 107.98 102.37 108.71 100.55 109.52 98.76 C 109.95 93.73 110.26 88.70 110.29 83.64 C 107.42 86.73 108.72 91.22 108.05 94.99 M 122.83 89.43 C 125.55 88.68 127.73 86.79 129.46 84.63 C 126.51 85.01 124.58 87.27 122.83 89.43 M 126.21 90.36 C 125.52 91.93 126.03 92.45 127.74 91.91 C 128.42 90.32 127.91 89.81 126.21 90.36 M 122.65 95.14 C 124.07 95.54 125.34 93.30 124.67 92.14 C 123.27 91.78 121.96 93.97 122.65 95.14 M 82.22 108.96 C 85.04 110.76 88.01 112.33 91.10 113.63 C 88.81 111.03 85.95 108.79 82.22 108.96 M 92.50 113.16 C 95.58 116.60 100.65 116.35 104.50 118.49 C 107.85 117.72 111.23 117.06 114.63 116.55 C 114.41 116.11 114.20 115.66 113.98 115.22 C 113.28 115.67 111.89 116.56 111.19 117.01 C 109.79 115.55 108.26 114.23 106.76 112.87 C 105.91 113.40 105.06 113.93 104.21 114.45 C 106.40 114.95 108.68 115.37 110.45 116.86 C 106.96 118.45 103.96 116.40 100.77 115.29 C 98.09 114.34 95.31 113.65 92.50 113.16 M 84.38 113.67 C 86.18 116.84 88.08 120.10 90.94 122.44 C 89.96 118.84 88.24 114.91 84.38 113.67 M 130.46 142.18 C 130.53 143.98 129.78 144.66 128.21 144.21 C 125.84 143.61 123.44 143.07 120.98 143.09 C 124.73 145.07 128.94 146.26 133.21 146.19 C 132.76 144.19 132.29 142.19 131.92 140.18 C 131.43 140.84 130.94 141.51 130.46 142.18 Z" />
<path fill="#FFFFFF" opacity="1.00" d=" M 92.77 106.23 C 93.72 102.30 95.32 98.58 96.80 94.82 C 96.34 97.18 96.04 99.57 95.80 101.97 C 94.55 103.21 93.56 104.66 92.77 106.23 Z" />
<path fill="#FFFFFF" opacity="1.00" d=" M 56.90 97.29 C 59.65 97.37 62.34 96.68 65.05 96.27 C 65.68 96.75 66.93 97.70 67.56 98.18 C 67.66 100.83 67.85 103.49 68.01 106.14 C 62.27 106.40 56.50 107.01 50.94 108.52 C 51.55 105.48 51.73 102.38 52.35 99.35 C 52.91 97.41 55.22 97.32 56.90 97.29 Z" />
<path fill="#FFFFFF" opacity="1.00" d=" M 134.73 114.30 C 134.15 110.64 133.60 106.51 135.79 103.24 C 140.17 103.81 144.64 104.20 148.84 105.68 C 151.01 108.96 151.00 113.17 150.97 116.98 C 150.68 123.66 152.23 130.40 150.78 137.03 C 148.25 133.04 149.64 128.32 148.55 124.01 C 145.31 119.25 139.79 116.71 134.73 114.30 Z" />
<path fill="#FFFFFF" opacity="1.00" d=" M 53.10 109.76 C 60.48 107.78 68.17 107.81 75.75 108.26 C 77.06 110.03 78.35 111.81 79.72 113.53 C 80.44 117.64 82.25 121.90 80.42 125.99 C 77.90 126.01 75.38 126.09 72.88 125.86 C 68.71 125.38 65.09 123.06 61.07 122.05 C 59.69 121.22 58.46 122.50 57.73 123.51 C 58.14 129.44 58.97 135.78 56.56 141.43 C 52.94 147.20 52.92 154.26 52.44 160.84 C 51.94 163.59 51.24 166.30 50.81 169.07 C 46.49 171.54 42.09 168.14 37.92 166.94 C 34.90 165.89 31.94 167.58 29.01 168.13 C 25.72 167.65 22.18 166.53 20.64 163.30 C 23.55 161.21 27.14 161.42 30.52 160.97 C 33.97 159.10 37.83 158.15 41.30 156.32 C 43.49 154.46 43.95 151.43 44.76 148.83 C 47.04 141.44 45.06 133.49 47.75 126.16 C 47.27 122.44 48.16 118.77 48.85 115.14 C 49.20 112.81 50.71 110.41 53.10 109.76 Z" />
<path fill="#FFFFFF" opacity="1.00" d=" M 60.00 123.33 C 62.87 123.45 65.22 125.44 67.78 126.54 C 67.14 130.94 67.61 135.39 67.63 139.81 C 64.61 140.01 61.59 140.36 58.63 141.04 C 59.74 135.20 60.34 129.27 60.00 123.33 Z" />
<path fill="#FFFFFF" opacity="1.00" d=" M 70.01 127.57 C 72.65 127.63 75.30 127.70 77.94 127.75 C 77.40 128.68 76.88 129.61 76.38 130.56 C 79.48 129.90 82.61 129.34 85.75 128.87 C 86.51 130.90 87.52 132.83 88.69 134.66 C 82.34 136.61 75.90 138.23 69.37 139.42 C 70.45 135.54 70.26 131.53 70.01 127.57 Z" />
<path fill="#FFFFFF" opacity="1.00" d=" M 89.36 128.10 C 92.59 128.07 95.81 128.02 99.04 128.03 C 102.74 127.90 106.07 130.06 109.81 129.61 C 113.36 132.67 117.56 134.72 122.12 135.75 C 120.25 136.72 118.24 137.69 116.08 137.15 C 110.41 136.17 104.80 134.52 99.01 134.37 C 96.02 134.34 93.00 133.94 90.30 132.60 C 88.40 131.84 89.51 129.63 89.36 128.10 Z" />
<path fill="#FFFFFF" opacity="1.00" d=" M 70.01 141.13 C 76.74 139.27 84.41 139.04 89.89 134.19 C 92.58 135.06 95.30 135.85 98.10 136.28 C 97.95 138.66 97.73 141.03 97.71 143.42 C 96.44 148.00 90.48 148.17 87.76 144.79 C 88.53 144.45 90.05 143.76 90.81 143.42 C 90.65 143.05 90.34 142.32 90.18 141.95 C 78.69 144.53 66.85 145.16 55.42 148.08 C 55.93 146.37 55.94 144.36 57.27 143.02 C 61.35 141.49 65.85 142.32 70.01 141.13 Z" />
<path fill="#FFFFFF" opacity="1.00" d=" M 155.37 153.09 C 160.88 156.33 162.38 162.82 164.72 168.27 C 167.49 173.73 169.37 179.58 172.30 184.97 C 167.76 182.40 164.99 177.56 159.85 175.87 C 159.95 172.78 159.10 169.82 157.90 167.01 C 156.00 162.63 155.85 157.78 155.37 153.09 Z" />
<path fill="#FFFFFF" opacity="1.00" d=" M 36.12 168.41 C 37.48 169.00 38.82 169.61 40.16 170.23 C 40.04 171.85 39.98 173.46 40.00 175.09 C 38.80 174.00 37.50 173.05 35.99 172.43 C 36.02 171.09 36.08 169.75 36.12 168.41 Z" />
<path fill="#FFFFFF" opacity="1.00" d=" M 28.61 170.33 C 29.97 169.81 31.32 169.29 32.68 168.76 C 32.99 170.08 33.33 171.39 33.70 172.69 C 30.66 177.46 27.59 182.21 24.80 187.13 C 23.14 186.91 21.11 187.30 20.09 185.62 C 20.09 184.41 20.22 183.22 20.36 182.03 C 23.42 178.36 26.00 174.32 28.61 170.33 Z" />
<path fill="#FFFFFF" opacity="1.00" d=" M 43.23 171.22 C 45.25 172.28 45.85 175.17 43.07 175.81 C 43.11 174.67 43.19 172.37 43.23 171.22 Z" />
<path fill="#FFFFFF" opacity="1.00" d=" M 154.49 192.78 C 157.16 192.68 157.32 195.14 155.98 196.84 C 155.20 196.17 154.42 195.49 153.65 194.82 C 153.86 194.31 154.28 193.29 154.49 192.78 Z" />
<path fill="#FFFFFF" opacity="1.00" d=" M 159.08 193.32 C 161.26 192.09 161.32 196.62 159.13 195.35 C 159.11 194.84 159.09 193.82 159.08 193.32 Z" />
</g>
<g id="#3b3d37ff">
<path fill="#333333" opacity="1.00" d=" M 119.05 21.79 C 125.38 20.87 131.76 22.12 138.10 22.23 C 142.67 21.96 146.37 26.64 145.50 31.02 C 144.35 40.40 142.65 49.72 140.71 58.97 C 142.35 61.08 144.25 63.08 145.22 65.61 C 145.62 67.73 145.38 69.90 145.50 72.04 C 145.49 75.93 147.91 79.28 148.29 83.10 C 148.56 90.33 149.21 97.58 147.63 104.72 L 149.07 103.29 C 151.76 106.21 153.20 110.06 153.27 114.01 C 153.46 120.34 153.32 126.67 153.33 133.00 C 153.45 135.52 152.31 137.83 151.08 139.96 C 153.05 143.90 154.55 148.07 155.34 152.42 C 161.18 153.47 162.44 159.89 164.52 164.46 C 167.76 170.98 170.57 177.69 173.29 184.43 C 174.22 185.84 176.23 187.26 175.19 189.16 C 174.17 192.38 170.70 193.50 167.94 194.76 C 170.67 199.36 173.36 204.01 175.58 208.88 C 176.69 209.50 177.81 210.11 178.93 210.73 C 179.95 210.23 180.97 209.75 182.00 209.26 L 182.00 210.73 C 179.48 211.97 176.42 211.75 174.55 209.51 C 171.88 204.82 169.81 199.72 166.51 195.41 C 165.45 195.15 164.39 194.93 163.32 194.77 C 160.67 196.97 157.49 198.83 153.93 198.68 C 152.57 197.99 152.07 196.44 151.28 195.26 C 152.09 193.88 152.59 192.37 152.22 190.78 C 154.97 190.62 158.01 189.60 160.43 191.44 C 164.97 194.60 171.99 192.93 174.54 188.00 C 168.88 184.96 164.44 180.31 159.23 176.65 C 156.18 170.96 154.23 164.60 154.18 158.09 C 153.89 149.16 149.03 141.44 147.28 132.85 C 146.96 129.58 147.91 125.50 145.00 123.12 C 140.97 119.26 135.58 114.16 129.54 116.44 C 125.53 117.36 122.10 120.84 121.62 124.94 C 122.10 127.57 122.82 130.14 123.65 132.67 C 126.43 134.32 129.77 133.73 132.83 133.79 C 133.07 133.18 133.53 131.97 133.76 131.37 C 136.14 136.98 136.16 143.13 136.08 149.12 C 135.90 152.86 140.13 154.57 140.98 157.98 C 142.36 162.06 144.72 165.69 146.67 169.51 C 149.10 176.16 149.24 183.35 149.01 190.36 L 150.17 190.09 C 150.24 191.36 150.29 192.64 150.35 193.92 C 149.08 192.08 146.49 190.67 146.80 188.12 C 146.87 182.39 146.50 176.59 145.07 171.03 C 143.51 167.32 141.22 163.95 139.82 160.16 C 138.71 156.66 135.08 154.58 134.43 150.91 C 133.57 146.07 133.93 141.11 133.49 136.22 C 133.04 135.84 132.59 135.46 132.14 135.08 C 131.57 136.85 131.26 138.80 130.02 140.27 C 129.99 139.02 129.94 136.52 129.91 135.27 C 128.63 135.07 127.35 134.87 126.07 134.67 C 122.48 137.38 118.34 140.07 113.66 138.18 C 113.68 142.32 113.20 146.44 112.99 150.57 C 114.71 151.27 116.58 152.57 118.47 151.59 C 123.61 149.31 129.59 150.80 134.51 152.98 C 130.51 152.93 126.53 152.34 122.65 151.40 C 121.14 152.23 119.69 153.23 118.00 153.68 C 115.05 153.95 112.58 151.95 110.28 150.41 C 110.87 146.64 111.48 142.87 111.68 139.05 L 112.95 138.87 C 108.90 136.43 104.00 136.40 99.44 135.86 C 99.52 139.21 99.90 142.65 99.08 145.95 C 96.25 149.30 91.61 148.79 88.00 147.22 C 87.80 146.54 87.40 145.18 87.20 144.50 C 76.39 145.66 65.77 147.95 55.03 149.55 C 54.03 155.90 54.74 162.50 52.65 168.67 C 51.37 170.53 49.00 171.17 47.12 172.28 C 47.11 173.04 47.09 174.57 47.08 175.33 C 44.83 177.05 42.04 176.98 39.35 176.81 C 37.97 175.79 36.60 174.74 35.09 173.93 C 32.16 177.64 29.95 181.83 27.60 185.91 C 26.57 187.98 23.98 188.16 22.09 189.06 C 20.67 187.86 19.26 186.64 17.88 185.39 C 20.63 180.24 23.47 175.11 26.95 170.40 C 24.06 169.08 21.17 167.75 18.53 165.97 C 19.44 163.64 20.55 160.83 23.42 160.50 C 29.23 159.90 34.81 157.75 39.86 154.88 C 43.89 150.41 43.92 143.71 43.96 138.00 C 43.70 133.22 45.72 128.74 45.98 124.02 C 46.38 119.08 46.63 113.79 49.76 109.69 C 49.80 105.75 48.48 100.73 51.52 97.64 C 56.11 95.47 61.55 94.95 66.56 95.50 C 71.46 96.83 69.83 102.59 70.13 106.34 C 73.52 105.89 76.97 105.08 80.35 106.04 C 79.33 106.06 77.28 106.10 76.25 106.11 C 78.05 108.50 80.06 110.75 81.57 113.34 C 83.58 117.93 84.07 123.33 82.10 128.02 C 91.10 124.81 101.10 125.70 110.25 127.92 C 114.21 129.66 117.44 132.87 121.82 133.77 C 121.08 131.10 119.96 128.52 119.45 125.79 C 119.20 122.36 121.97 119.71 123.56 116.98 C 119.95 119.68 116.76 122.97 112.73 125.07 C 116.06 120.35 121.03 117.29 125.75 114.13 L 124.65 116.99 L 125.18 117.02 C 126.80 116.14 128.47 115.24 129.73 113.86 C 129.29 113.23 128.84 112.61 128.38 112.01 C 129.74 111.34 131.27 112.05 132.69 111.70 C 133.26 109.21 132.90 106.62 132.99 104.08 C 133.53 103.80 134.61 103.24 135.15 102.97 C 134.04 97.61 135.50 92.19 135.88 86.83 C 131.03 93.32 129.25 101.71 129.50 109.69 C 129.38 109.02 129.16 107.67 129.05 107.00 C 128.50 107.11 127.40 107.33 126.85 107.43 C 128.56 103.47 129.47 99.25 130.29 95.03 C 130.81 91.92 133.33 89.62 133.96 86.55 C 134.80 83.21 132.87 80.08 131.87 77.00 C 129.50 78.04 127.07 79.07 124.48 79.33 C 120.12 79.52 115.04 79.77 112.11 75.90 C 116.91 77.25 121.87 79.47 126.95 78.26 C 130.05 77.22 131.66 74.15 133.80 71.90 C 133.48 73.27 133.14 74.62 132.78 75.97 C 134.10 79.43 135.11 83.01 136.57 86.42 C 137.72 89.10 140.03 90.99 141.78 93.25 C 139.98 92.28 138.41 90.87 136.46 90.20 C 136.33 94.23 136.39 98.29 135.68 102.29 C 139.16 102.55 142.63 102.93 146.07 103.55 C 147.15 96.84 147.01 90.04 146.76 83.28 C 146.28 79.93 144.33 77.06 143.48 73.83 C 142.91 69.98 144.55 64.96 141.02 62.15 C 136.83 59.30 133.14 55.80 129.03 52.83 C 127.31 51.85 127.21 49.75 126.85 48.03 C 125.03 41.28 129.01 33.98 125.45 27.51 C 121.19 23.50 111.68 23.30 109.80 29.88 C 109.53 35.51 110.14 41.29 112.45 46.48 C 113.30 48.23 115.00 49.60 116.95 49.86 C 120.10 49.35 122.54 47.16 124.75 45.03 C 122.90 49.58 123.36 55.64 118.99 58.74 C 119.69 55.68 121.00 52.82 122.56 50.10 C 119.68 51.36 116.58 51.84 113.60 50.63 C 111.38 52.56 108.89 54.17 106.34 55.63 C 106.07 56.44 105.80 57.25 105.54 58.07 C 109.25 57.36 113.54 58.28 114.79 62.30 C 111.67 60.61 108.30 59.49 104.81 58.90 C 105.01 58.20 105.41 56.80 105.61 56.09 C 102.49 57.42 98.96 57.42 95.89 58.77 C 91.64 61.33 91.36 66.65 91.62 71.07 C 91.94 73.73 90.25 75.92 89.32 78.25 C 88.58 81.05 88.77 83.98 88.52 86.84 C 88.98 86.91 89.90 87.06 90.36 87.13 C 90.78 89.65 91.41 92.15 91.36 94.73 C 89.97 92.31 89.15 89.64 88.16 87.06 C 84.64 93.12 85.21 100.14 84.99 106.84 C 86.47 108.48 88.79 107.54 90.69 107.56 C 91.29 101.77 94.73 96.81 95.66 91.13 C 95.27 86.91 95.84 82.69 97.15 78.66 C 94.81 72.03 96.85 62.81 104.27 60.51 C 102.09 64.25 97.80 66.93 97.30 71.51 C 96.87 73.89 98.19 76.09 98.88 78.29 C 97.98 81.89 96.15 85.63 97.42 89.38 C 98.73 93.65 98.03 98.18 96.68 102.35 C 97.33 102.75 98.65 103.54 99.31 103.94 C 99.38 100.93 100.22 98.06 100.78 95.14 C 100.46 92.81 99.40 90.67 98.75 88.43 C 101.17 86.26 103.09 83.60 105.50 81.44 C 107.00 80.10 109.09 80.99 110.78 81.33 C 109.27 81.81 107.76 82.23 106.23 82.64 C 104.30 84.81 102.31 86.93 100.42 89.13 C 101.37 91.12 102.46 93.05 103.18 95.13 C 102.56 97.94 101.54 100.66 101.20 103.53 C 105.34 104.71 109.59 105.44 113.82 106.22 C 115.26 105.77 116.71 105.34 118.17 104.94 C 118.18 103.96 118.19 102.98 118.20 102.01 C 119.81 99.78 121.58 97.64 123.85 96.05 C 122.70 98.57 120.95 100.74 119.44 103.04 L 118.38 102.74 C 118.94 103.39 119.51 104.03 120.09 104.68 C 122.26 105.12 124.42 105.62 126.53 106.30 C 123.65 106.94 120.69 106.87 117.79 106.39 C 116.47 106.92 115.15 107.47 113.84 108.01 C 107.81 106.36 101.60 105.50 95.55 103.98 C 94.88 105.72 94.72 107.93 92.97 108.99 C 89.11 109.08 85.28 108.43 81.42 108.44 C 84.87 102.97 83.14 95.94 85.31 89.99 C 86.59 86.81 87.13 83.44 87.18 80.02 C 87.04 76.06 90.36 73.00 90.06 69.01 C 90.03 65.49 90.38 61.66 93.03 59.05 C 95.97 55.65 100.88 56.45 104.59 54.54 C 107.13 53.14 109.51 51.49 111.97 49.95 C 108.71 42.28 106.24 32.60 111.12 25.07 C 113.04 23.57 115.56 23.18 117.77 22.25 C 119.76 24.09 122.66 23.83 124.94 25.10 C 127.96 26.89 128.71 30.78 129.01 33.99 C 128.37 39.60 127.19 45.36 129.22 50.86 C 133.12 53.16 136.39 56.33 139.16 59.90 C 140.19 50.16 142.59 40.64 143.78 30.93 C 144.52 27.51 141.57 23.65 137.99 23.74 C 132.38 23.62 126.75 23.03 121.14 23.31 C 120.43 22.82 119.74 22.31 119.05 21.79 M 92.77 106.23 C 93.56 104.66 94.55 103.21 95.80 101.97 C 96.04 99.57 96.34 97.18 96.80 94.82 C 95.32 98.58 93.72 102.30 92.77 106.23 M 56.90 97.29 C 55.22 97.32 52.91 97.41 52.35 99.35 C 51.73 102.38 51.55 105.48 50.94 108.52 C 56.50 107.01 62.27 106.40 68.01 106.14 C 67.85 103.49 67.66 100.83 67.56 98.18 C 66.93 97.70 65.68 96.75 65.05 96.27 C 62.34 96.68 59.65 97.37 56.90 97.29 M 134.73 114.30 C 139.79 116.71 145.31 119.25 148.55 124.01 C 149.64 128.32 148.25 133.04 150.78 137.03 C 152.23 130.40 150.68 123.66 150.97 116.98 C 151.00 113.17 151.01 108.96 148.84 105.68 C 144.64 104.20 140.17 103.81 135.79 103.24 C 133.60 106.51 134.15 110.64 134.73 114.30 M 53.10 109.76 C 50.71 110.41 49.20 112.81 48.85 115.14 C 48.16 118.77 47.27 122.44 47.75 126.16 C 45.06 133.49 47.04 141.44 44.76 148.83 C 43.95 151.43 43.49 154.46 41.30 156.32 C 37.83 158.15 33.97 159.10 30.52 160.97 C 27.14 161.42 23.55 161.21 20.64 163.30 C 22.18 166.53 25.72 167.65 29.01 168.13 C 31.94 167.58 34.90 165.89 37.92 166.94 C 42.09 168.14 46.49 171.54 50.81 169.07 C 51.24 166.30 51.94 163.59 52.44 160.84 C 52.92 154.26 52.94 147.20 56.56 141.43 C 58.97 135.78 58.14 129.44 57.73 123.51 C 58.46 122.50 59.69 121.22 61.07 122.05 C 65.09 123.06 68.71 125.38 72.88 125.86 C 75.38 126.09 77.90 126.01 80.42 125.99 C 82.25 121.90 80.44 117.64 79.72 113.53 C 78.35 111.81 77.06 110.03 75.75 108.26 C 68.17 107.81 60.48 107.78 53.10 109.76 M 60.00 123.33 C 60.34 129.27 59.74 135.20 58.63 141.04 C 61.59 140.36 64.61 140.01 67.63 139.81 C 67.61 135.39 67.14 130.94 67.78 126.54 C 65.22 125.44 62.87 123.45 60.00 123.33 M 70.01 127.57 C 70.26 131.53 70.45 135.54 69.37 139.42 C 75.90 138.23 82.34 136.61 88.69 134.66 C 87.52 132.83 86.51 130.90 85.75 128.87 C 82.61 129.34 79.48 129.90 76.38 130.56 C 76.88 129.61 77.40 128.68 77.94 127.75 C 75.30 127.70 72.65 127.63 70.01 127.57 M 89.36 128.10 C 89.51 129.63 88.40 131.84 90.30 132.60 C 93.00 133.94 96.02 134.34 99.01 134.37 C 104.80 134.52 110.41 136.17 116.08 137.15 C 118.24 137.69 120.25 136.72 122.12 135.75 C 117.56 134.72 113.36 132.67 109.81 129.61 C 106.07 130.06 102.74 127.90 99.04 128.03 C 95.81 128.02 92.59 128.07 89.36 128.10 M 70.01 141.13 C 65.85 142.32 61.35 141.49 57.27 143.02 C 55.94 144.36 55.93 146.37 55.42 148.08 C 66.85 145.16 78.69 144.53 90.18 141.95 C 90.34 142.32 90.65 143.05 90.81 143.42 C 90.05 143.76 88.53 144.45 87.76 144.79 C 90.48 148.17 96.44 148.00 97.71 143.42 C 97.73 141.03 97.95 138.66 98.10 136.28 C 95.30 135.85 92.58 135.06 89.89 134.19 C 84.41 139.04 76.74 139.27 70.01 141.13 M 155.37 153.09 C 155.85 157.78 156.00 162.63 157.90 167.01 C 159.10 169.82 159.95 172.78 159.85 175.87 C 164.99 177.56 167.76 182.40 172.30 184.97 C 169.37 179.58 167.49 173.73 164.72 168.27 C 162.38 162.82 160.88 156.33 155.37 153.09 M 36.12 168.41 C 36.08 169.75 36.02 171.09 35.99 172.43 C 37.50 173.05 38.80 174.00 40.00 175.09 C 39.98 173.46 40.04 171.85 40.16 170.23 C 38.82 169.61 37.48 169.00 36.12 168.41 M 28.61 170.33 C 26.00 174.32 23.42 178.36 20.36 182.03 C 20.22 183.22 20.09 184.41 20.09 185.62 C 21.11 187.30 23.14 186.91 24.80 187.13 C 27.59 182.21 30.66 177.46 33.70 172.69 C 33.33 171.39 32.99 170.08 32.68 168.76 C 31.32 169.29 29.97 169.81 28.61 170.33 M 43.23 171.22 C 43.19 172.37 43.11 174.67 43.07 175.81 C 45.85 175.17 45.25 172.28 43.23 171.22 M 154.49 192.78 C 154.28 193.29 153.86 194.31 153.65 194.82 C 154.42 195.49 155.20 196.17 155.98 196.84 C 157.32 195.14 157.16 192.68 154.49 192.78 M 159.08 193.32 C 159.09 193.82 159.11 194.84 159.13 195.35 C 161.32 196.62 161.26 192.09 159.08 193.32 Z" />
<path fill="#333333" opacity="1.00" d=" M 137.05 49.62 C 137.05 42.36 138.57 35.14 140.55 28.18 C 139.92 35.35 140.08 42.96 137.05 49.62 Z" />
<path fill="#333333" opacity="1.00" d=" M 112.67 52.56 C 113.07 52.51 113.87 52.41 114.28 52.36 C 114.38 54.24 114.51 56.12 114.57 58.01 C 113.21 56.49 112.77 54.55 112.67 52.56 Z" />
<path fill="#333333" opacity="1.00" d=" M 116.42 62.71 C 117.40 61.01 118.60 58.77 120.94 59.01 C 125.44 59.23 129.94 59.53 134.41 58.66 C 131.60 62.56 126.32 61.47 122.28 60.67 C 120.11 60.14 118.35 62.05 116.42 62.71 Z" />
<path fill="#333333" opacity="1.00" d=" M 100.57 76.94 C 104.40 77.02 108.24 76.80 111.87 75.47 C 111.07 78.65 107.53 78.40 104.90 78.33 C 103.34 78.36 101.85 77.82 100.57 76.94 Z" />
<path fill="#333333" opacity="1.00" d=" M 110.35 81.14 C 112.11 80.80 113.87 80.73 115.63 80.94 C 117.61 83.49 119.97 85.75 121.75 88.45 C 122.67 90.59 121.95 92.99 121.62 95.17 C 119.92 93.25 121.44 90.37 119.73 88.49 C 118.12 86.47 116.23 84.67 114.80 82.50 C 113.29 82.12 111.81 81.67 110.35 81.14 Z" />
<path fill="#333333" opacity="1.00" d=" M 108.05 94.99 C 108.72 91.22 107.42 86.73 110.29 83.64 C 110.26 88.70 109.95 93.73 109.52 98.76 C 108.71 100.55 107.98 102.37 107.17 104.16 C 106.41 101.05 108.20 98.11 108.05 94.99 Z" />
<path fill="#333333" opacity="1.00" d=" M 122.83 89.43 C 124.58 87.27 126.51 85.01 129.46 84.63 C 127.73 86.79 125.55 88.68 122.83 89.43 Z" />
<path fill="#333333" opacity="1.00" d=" M 126.21 90.36 C 127.91 89.81 128.42 90.32 127.74 91.91 C 126.03 92.45 125.52 91.93 126.21 90.36 Z" />
<path fill="#333333" opacity="1.00" d=" M 122.65 95.14 C 121.96 93.97 123.27 91.78 124.67 92.14 C 125.34 93.30 124.07 95.54 122.65 95.14 Z" />
<path fill="#333333" opacity="1.00" d=" M 82.22 108.96 C 85.95 108.79 88.81 111.03 91.10 113.63 C 88.01 112.33 85.04 110.76 82.22 108.96 Z" />
<path fill="#333333" opacity="1.00" d=" M 92.50 113.16 C 95.31 113.65 98.09 114.34 100.77 115.29 C 103.96 116.40 106.96 118.45 110.45 116.86 C 108.68 115.37 106.40 114.95 104.21 114.45 C 105.06 113.93 105.91 113.40 106.76 112.87 C 108.26 114.23 109.79 115.55 111.19 117.01 C 111.89 116.56 113.28 115.67 113.98 115.22 C 114.20 115.66 114.41 116.11 114.63 116.55 C 111.23 117.06 107.85 117.72 104.50 118.49 C 100.65 116.35 95.58 116.60 92.50 113.16 Z" />
<path fill="#333333" opacity="1.00" d=" M 84.38 113.67 C 88.24 114.91 89.96 118.84 90.94 122.44 C 88.08 120.10 86.18 116.84 84.38 113.67 Z" />
<path fill="#333333" opacity="1.00" d=" M 130.46 142.18 C 130.94 141.51 131.43 140.84 131.92 140.18 C 132.29 142.19 132.76 144.19 133.21 146.19 C 128.94 146.26 124.73 145.07 120.98 143.09 C 123.44 143.07 125.84 143.61 128.21 144.21 C 129.78 144.66 130.53 143.98 130.46 142.18 Z" />
<path fill="#333333" opacity="1.00" d=" M 175.19 190.66 C 178.32 194.18 180.23 198.57 182.00 202.88 L 182.00 206.19 C 179.90 200.94 177.03 196.01 175.19 190.66 Z" />
</g>
</svg>
