<?xml version="1.0" encoding="UTF-8" ?>
<!DOCTYPE svg PUBLIC "-//W3C//DTD SVG 1.1//EN" "http://www.w3.org/Graphics/SVG/1.1/DTD/svg11.dtd">
<svg width="212pt" height="275pt" viewBox="0 0 212 275" version="1.1" xmlns="http://www.w3.org/2000/svg">
<g id="#ffffffff">
<path fill="#FFFFFF" opacity="1.00" d=" M 0.00 0.00 L 212.00 0.00 L 212.00 275.00 L 0.00 275.00 L 0.00 0.00 M 146.89 17.89 C 142.32 22.98 141.36 30.28 141.58 36.88 C 135.99 38.14 130.40 39.38 124.84 40.73 C 123.68 39.68 122.66 38.15 120.99 37.94 C 118.01 37.43 115.44 39.52 112.57 39.94 C 110.29 40.09 108.96 42.00 108.04 43.93 C 112.80 42.30 117.43 38.98 122.72 40.15 C 123.47 42.09 124.10 44.08 124.71 46.07 C 123.24 47.60 122.56 50.67 119.95 50.31 C 121.16 50.80 122.34 51.50 122.56 52.92 C 124.11 58.44 124.30 64.25 124.54 69.94 C 123.95 74.78 123.99 80.20 121.12 84.34 C 120.53 82.92 119.92 81.50 119.29 80.10 C 119.15 81.76 119.02 83.43 118.91 85.10 C 119.43 85.18 120.48 85.35 121.01 85.44 C 120.86 89.65 120.43 93.85 120.55 98.06 C 120.76 102.33 117.76 105.74 116.13 109.44 C 114.10 103.01 115.60 96.18 116.72 89.72 C 115.45 91.59 113.96 93.59 114.13 95.98 C 114.18 100.48 114.41 104.98 114.49 109.48 C 114.73 109.81 115.22 110.45 115.47 110.78 C 115.19 113.84 115.32 116.92 115.88 119.96 C 115.42 119.73 114.51 119.29 114.05 119.07 C 114.57 121.72 115.07 124.37 115.49 127.04 C 113.51 125.68 111.29 124.84 108.89 124.76 C 108.24 123.65 107.59 122.54 106.94 121.43 C 108.73 121.02 110.54 120.70 112.36 120.48 C 111.32 120.03 110.28 119.59 109.25 119.15 C 108.30 119.85 107.35 120.53 106.39 121.21 C 106.77 122.75 107.10 124.30 107.41 125.86 C 106.57 125.90 104.91 125.97 104.08 126.01 C 103.72 126.38 103.02 127.12 102.67 127.49 C 101.22 128.24 99.84 129.10 98.51 130.02 C 97.12 129.29 95.74 128.55 94.34 127.86 C 95.00 130.10 96.97 131.07 99.08 131.56 C 101.71 129.13 105.14 127.95 108.33 126.44 C 110.75 126.74 113.17 127.11 115.59 127.49 C 114.53 129.98 113.23 132.35 112.00 134.75 C 109.58 133.82 109.37 131.12 108.59 129.00 C 108.23 130.81 108.24 132.75 107.43 134.44 C 104.35 135.28 101.09 136.14 97.86 135.67 L 97.80 136.74 L 99.50 136.77 C 99.05 137.34 98.60 137.91 98.15 138.48 C 99.89 139.54 98.51 140.88 97.98 141.96 C 99.08 143.78 100.55 145.32 102.01 146.84 C 97.29 146.94 92.32 146.77 87.99 144.66 C 87.57 140.13 87.51 135.42 85.10 131.38 C 87.21 131.56 89.32 131.61 91.44 131.71 C 91.08 131.17 90.36 130.09 90.00 129.55 C 88.02 129.95 86.05 130.33 84.11 130.85 C 82.64 128.99 81.15 127.14 79.65 125.30 C 77.22 122.24 76.69 118.26 75.64 114.61 C 72.82 112.78 70.98 109.49 71.59 106.08 C 72.48 101.52 73.15 96.81 72.57 92.17 C 70.62 86.65 69.31 80.89 68.89 75.05 C 68.55 71.15 69.91 67.25 69.00 63.39 C 68.31 62.14 67.84 60.80 67.49 59.43 L 68.93 58.73 C 60.36 58.74 52.32 62.53 43.88 63.61 L 42.76 61.62 C 50.81 60.02 58.76 58.00 66.73 56.04 C 66.52 55.48 66.12 54.36 65.91 53.81 C 69.91 52.29 74.74 48.48 78.90 51.30 L 77.33 52.32 C 77.83 53.80 78.45 55.25 78.77 56.79 C 78.05 58.27 77.06 59.59 76.20 60.99 C 77.01 65.09 76.44 69.60 78.82 73.27 C 80.90 76.52 81.55 80.38 80.81 84.17 C 84.84 92.09 80.79 101.07 81.18 109.46 C 82.26 105.65 82.62 101.68 82.60 97.74 C 84.34 98.79 86.04 99.93 87.78 100.98 C 87.49 100.22 87.19 99.45 86.90 98.69 C 89.31 95.87 88.26 91.88 88.67 88.51 C 90.10 90.39 91.14 92.58 92.77 94.30 C 95.33 96.23 98.58 96.86 101.69 97.25 C 101.99 98.58 102.25 99.91 102.48 101.24 C 100.32 104.12 96.91 101.55 94.09 101.49 C 94.06 98.46 91.87 96.24 90.15 94.00 C 91.15 96.53 92.12 99.07 93.19 101.57 C 91.05 102.05 88.90 102.53 86.78 103.08 C 89.73 104.69 92.93 102.38 96.02 103.30 C 98.29 103.89 101.41 105.00 102.36 101.90 C 104.24 101.17 106.19 100.46 107.52 98.85 C 105.91 99.18 104.31 99.57 102.72 99.98 C 102.80 99.20 102.95 97.65 103.03 96.87 C 104.20 97.32 105.38 97.77 106.55 98.23 C 107.00 97.63 107.91 96.44 108.36 95.85 C 108.78 96.13 109.61 96.70 110.03 96.99 C 110.37 98.78 110.72 100.57 111.40 102.27 C 110.59 97.92 109.89 93.43 111.03 89.06 C 112.49 86.29 114.33 83.72 115.46 80.77 C 115.02 80.93 114.13 81.26 113.68 81.42 C 110.93 80.46 111.20 82.79 111.20 84.67 C 109.61 87.61 108.53 90.79 108.87 94.18 C 107.36 95.21 105.87 96.50 103.92 96.37 C 105.11 91.19 106.97 85.78 105.52 80.46 C 104.65 77.52 104.89 73.80 102.22 71.76 C 99.63 69.58 96.02 70.17 92.90 70.18 C 89.19 70.32 85.87 73.19 85.03 76.77 C 84.75 80.87 85.02 85.32 87.72 88.65 C 87.78 92.00 87.67 95.42 86.21 98.52 C 85.78 97.93 84.92 96.75 84.49 96.16 C 84.45 91.52 83.77 86.94 82.68 82.43 C 84.03 77.81 81.17 73.72 79.43 69.69 C 78.92 66.86 78.60 63.99 78.03 61.16 C 78.90 59.76 79.72 58.32 80.49 56.86 C 90.21 54.51 99.92 52.15 109.65 49.90 C 110.01 50.38 110.73 51.34 111.09 51.82 C 111.96 52.27 112.82 52.72 113.69 53.18 C 114.86 56.57 115.42 60.22 114.56 63.75 C 113.01 69.47 112.16 75.37 111.91 81.29 C 115.77 77.62 113.52 71.83 115.39 67.33 C 117.10 62.62 117.82 57.25 115.18 52.72 C 116.46 51.86 117.75 50.95 118.50 49.55 C 115.94 50.45 113.29 51.46 110.64 50.19 C 113.17 48.41 115.89 46.93 118.77 45.79 C 119.02 45.41 119.53 44.65 119.78 44.28 C 118.28 44.53 116.74 44.61 115.29 45.04 C 114.39 46.19 114.22 48.45 112.21 47.96 C 101.98 49.72 92.01 52.69 81.85 54.79 C 80.60 55.24 79.65 54.02 78.59 53.60 C 86.77 51.09 95.19 49.47 103.48 47.36 C 107.00 46.30 111.22 46.53 113.97 43.71 C 102.85 45.35 92.07 48.97 80.99 50.94 C 79.41 51.22 78.90 49.08 77.84 48.25 C 73.95 49.08 69.94 49.69 66.39 51.58 C 64.96 52.14 64.74 53.78 64.16 55.00 C 57.20 56.95 50.00 58.00 43.14 60.31 C 41.84 55.37 40.08 50.23 36.17 46.73 C 32.74 43.74 27.41 44.45 23.82 46.71 C 18.91 51.65 17.71 59.20 18.25 65.90 C 14.90 66.83 11.50 67.52 8.10 68.23 C 5.77 69.26 7.23 72.26 7.92 73.99 C 11.47 72.96 15.11 72.22 18.75 71.56 C 19.91 77.01 21.86 82.89 26.51 86.35 C 29.55 88.63 33.42 87.06 36.84 86.99 C 43.21 81.83 44.04 72.99 43.93 65.37 C 51.24 63.92 58.48 62.12 65.70 60.25 C 66.50 62.79 67.84 65.27 67.52 68.02 C 67.26 73.03 67.69 78.04 67.99 83.05 C 68.23 87.25 70.81 90.86 71.16 95.04 C 72.25 100.68 68.18 106.20 70.17 111.76 C 71.44 114.19 73.28 116.26 75.00 118.38 C 75.60 124.41 79.99 128.81 83.77 133.12 C 86.89 136.46 85.92 141.18 86.51 145.31 C 85.45 147.08 84.26 148.77 82.92 150.35 C 82.50 155.04 84.96 159.16 86.29 163.49 C 79.52 158.37 73.56 152.24 66.59 147.37 C 64.34 145.64 60.62 143.34 62.64 140.03 C 65.70 138.40 70.51 139.58 72.35 136.21 C 68.46 136.73 64.61 137.58 60.91 138.87 C 60.89 140.99 59.90 143.60 61.64 145.32 C 64.06 147.76 67.00 149.62 69.59 151.88 C 69.21 158.46 69.48 165.05 69.08 171.63 C 64.15 173.53 59.11 175.14 54.27 177.27 C 54.12 180.12 53.74 183.30 56.59 184.96 C 67.26 180.85 78.02 177.00 88.68 172.87 C 89.63 175.73 89.67 178.73 89.92 181.70 C 91.15 182.59 92.64 183.07 93.83 184.03 C 97.10 188.77 96.43 194.68 95.62 200.04 C 94.39 204.32 92.53 208.46 91.99 212.91 C 92.21 217.73 94.17 222.24 94.90 226.97 C 95.28 230.25 94.98 233.57 94.52 236.83 C 95.34 239.96 95.35 243.31 96.76 246.28 C 97.64 248.09 97.92 250.09 98.08 252.08 C 101.37 256.42 108.03 257.68 112.46 254.43 C 115.13 254.58 116.32 252.54 116.09 250.09 C 112.35 245.68 108.82 241.06 106.29 235.83 C 104.48 231.61 105.18 226.94 104.99 222.49 C 105.68 222.99 106.37 223.50 107.05 224.02 C 115.70 220.64 124.46 217.57 133.11 214.24 C 135.66 213.47 135.02 210.21 135.74 208.17 C 133.61 207.29 131.47 205.26 129.04 206.24 C 124.51 207.65 120.09 209.38 115.59 210.86 C 115.75 203.36 116.10 195.87 116.02 188.37 C 122.70 186.88 129.30 185.03 135.72 182.66 C 138.05 182.08 137.33 179.23 137.46 177.45 C 139.38 179.36 141.71 180.80 144.31 181.59 C 143.81 186.05 142.78 190.49 143.06 195.00 C 145.02 200.48 149.07 205.73 147.67 211.90 C 146.40 216.49 145.19 221.20 145.86 226.01 C 148.39 227.23 151.16 227.69 153.94 227.18 C 157.00 226.50 159.60 228.44 162.21 229.66 C 166.91 230.53 172.67 229.88 175.21 225.26 C 174.14 224.21 173.25 222.93 171.95 222.14 C 170.02 221.40 167.77 221.27 166.20 219.78 C 163.41 217.44 161.47 214.19 158.27 212.32 C 155.91 205.78 157.78 198.76 156.59 192.05 C 155.54 186.73 155.86 181.24 156.86 175.94 C 156.82 173.52 155.68 171.28 154.75 169.11 C 152.59 165.43 147.86 164.91 144.97 162.03 C 141.71 159.06 137.56 157.48 133.79 155.33 C 129.29 151.94 123.32 152.42 118.01 151.92 C 114.55 147.01 114.35 140.82 114.63 135.04 C 114.74 132.23 116.53 129.83 116.80 127.08 C 116.76 122.72 116.99 118.38 116.81 114.02 C 116.50 109.37 120.44 106.09 121.81 101.94 C 122.60 97.66 122.19 93.28 122.47 88.96 C 122.85 83.41 125.45 78.35 126.39 72.92 C 126.97 67.93 125.19 63.08 125.15 58.11 C 125.09 55.44 124.25 52.89 123.55 50.34 C 124.30 48.75 124.86 47.09 125.11 45.36 C 131.10 45.65 136.76 43.15 142.54 41.97 C 143.03 47.44 145.23 53.05 149.43 56.71 C 152.33 59.29 156.40 57.95 159.86 57.99 C 166.87 53.03 167.59 43.68 167.11 35.83 C 171.33 35.02 175.82 34.68 179.68 32.70 C 179.59 31.19 179.00 29.77 178.27 28.46 C 174.24 28.75 170.40 30.21 166.45 30.97 C 165.34 25.33 162.95 19.20 157.68 16.23 C 154.19 14.83 149.83 15.62 146.89 17.89 M 70.89 54.04 C 72.63 56.31 75.42 57.17 77.90 55.42 C 75.57 54.93 73.24 54.41 70.89 54.04 M 116.02 79.18 C 115.20 80.42 115.47 81.13 116.82 81.31 C 117.63 80.05 117.37 79.34 116.02 79.18 M 79.67 86.99 C 78.37 88.03 77.14 89.99 77.36 91.68 C 78.81 91.52 81.43 87.89 79.67 86.99 M 74.45 90.00 C 74.02 91.40 74.50 91.87 75.90 91.42 C 76.34 90.02 75.85 89.54 74.45 90.00 M 102.16 107.86 C 102.35 110.80 103.77 113.78 102.63 116.69 C 100.51 117.96 97.94 118.40 96.18 120.24 C 99.73 119.92 103.73 118.95 104.88 115.03 C 105.01 115.69 105.25 117.01 105.37 117.68 C 107.25 117.67 109.82 118.12 110.82 116.07 C 108.97 117.98 106.77 115.92 105.31 114.73 C 104.41 112.37 103.84 109.83 102.16 107.86 M 81.47 116.61 C 85.00 118.19 87.54 121.61 91.46 122.33 C 88.88 119.43 85.78 117.01 82.39 115.15 C 81.48 114.92 81.77 116.13 81.47 116.61 M 114.22 116.88 C 114.84 117.43 114.84 117.43 114.22 116.88 M 97.70 126.92 C 100.58 125.05 102.65 122.29 104.60 119.51 C 100.67 119.87 99.56 124.13 97.70 126.92 M 85.00 125.11 C 84.51 127.05 86.63 127.61 87.82 128.56 C 89.19 128.28 90.57 128.00 91.95 127.72 C 91.73 127.31 91.29 126.50 91.07 126.10 C 89.46 126.68 87.72 127.17 86.17 126.12 C 86.55 125.61 87.31 124.59 87.69 124.07 C 87.64 123.79 87.54 123.23 87.49 122.95 C 86.64 123.65 85.79 124.34 85.00 125.11 M 92.65 133.26 C 94.39 135.42 97.28 135.53 98.69 132.90 C 96.67 132.96 94.66 133.06 92.65 133.26 M 88.57 133.89 C 88.62 137.15 92.09 138.47 94.88 138.14 C 93.09 136.31 90.81 135.09 88.57 133.89 Z" />
<path fill="#FFFFFF" opacity="1.00" d=" M 146.78 20.02 C 148.49 17.24 152.03 17.35 154.83 16.65 C 162.40 19.79 165.30 28.40 165.88 35.96 C 166.25 42.28 165.76 49.42 161.36 54.38 C 159.40 56.83 155.85 56.37 153.06 56.50 C 146.71 54.74 145.19 47.41 143.10 42.06 C 146.12 41.18 149.15 40.33 152.24 39.74 C 152.66 37.96 152.38 36.19 151.84 34.48 C 148.55 35.10 145.30 35.87 142.08 36.75 C 143.37 31.13 143.04 24.78 146.78 20.02 M 152.81 17.81 C 154.41 20.64 156.82 22.97 158.08 25.99 C 162.08 35.48 161.71 46.71 156.48 55.66 C 157.87 54.69 159.44 53.70 159.95 51.97 C 162.91 44.29 162.70 35.59 160.29 27.79 C 158.93 23.88 157.15 19.17 152.81 17.81 Z" />
<path fill="#FFFFFF" opacity="1.00" d=" M 166.98 32.20 C 170.59 31.48 174.11 30.05 177.83 30.10 C 177.97 30.55 178.26 31.44 178.41 31.89 C 174.72 33.27 170.79 33.81 167.00 34.83 C 167.00 34.17 166.99 32.86 166.98 32.20 Z" />
<path fill="#FFFFFF" opacity="1.00" d=" M 124.97 42.30 C 133.55 40.19 142.18 38.23 150.76 36.15 C 150.98 36.61 151.43 37.51 151.65 37.97 C 143.13 41.02 133.92 41.86 125.38 44.94 C 125.28 44.28 125.07 42.96 124.97 42.30 Z" />
<path fill="#FFFFFF" opacity="1.00" d=" M 24.76 47.73 C 27.86 45.78 32.19 45.38 35.03 48.06 C 40.65 52.93 42.34 60.90 42.46 68.03 C 42.44 73.96 41.47 80.76 36.59 84.75 C 34.35 85.96 31.59 85.84 29.11 85.68 C 23.03 83.51 21.76 76.47 19.41 71.26 C 22.75 70.66 26.01 69.72 29.28 68.83 C 28.99 67.16 29.18 65.25 27.99 63.89 C 24.82 63.99 21.78 65.15 18.71 65.86 C 19.62 59.61 19.71 52.28 24.76 47.73 M 29.33 47.13 C 31.29 50.39 34.11 53.16 35.22 56.87 C 38.28 65.91 38.07 76.48 32.87 84.70 C 34.40 83.99 35.91 83.04 36.38 81.31 C 39.64 72.90 39.17 63.26 36.01 54.89 C 34.64 51.75 32.99 48.05 29.33 47.13 Z" />
<path fill="#FFFFFF" opacity="1.00" d=" M 10.08 69.27 C 15.79 68.37 21.31 66.64 26.99 65.62 C 27.35 66.08 28.08 66.99 28.44 67.44 C 22.64 68.57 17.01 70.47 11.19 71.45 C 10.91 70.91 10.36 69.82 10.08 69.27 Z" />
<path fill="#FFFFFF" opacity="1.00" d=" M 8.13 70.21 C 11.40 70.22 6.74 73.24 8.13 70.21 Z" />
<path fill="#FFFFFF" opacity="1.00" d=" M 87.25 76.00 C 89.39 71.47 94.97 71.21 99.32 71.22 C 100.56 72.45 102.08 73.50 102.90 75.07 C 104.99 81.06 105.66 87.88 102.98 93.80 C 100.50 96.79 96.25 93.70 93.49 92.51 C 91.80 89.70 89.67 87.27 86.99 85.35 C 87.30 84.65 87.92 83.24 88.24 82.54 C 84.81 81.95 86.35 78.00 87.25 76.00 Z" />
<path fill="#FFFFFF" opacity="1.00" d=" M 108.92 135.47 C 110.26 135.42 111.61 135.34 112.95 135.17 C 112.99 138.22 113.43 141.24 113.55 144.28 C 110.82 145.97 107.49 147.19 104.25 146.80 C 102.91 145.43 101.52 144.10 100.06 142.85 C 99.87 141.46 99.70 140.07 99.50 138.69 C 102.39 136.93 105.89 136.89 108.92 135.47 M 108.16 139.94 C 107.24 140.30 106.18 142.31 107.67 142.61 C 109.33 142.82 110.44 139.05 108.16 139.94 Z" />
<path fill="#FFFFFF" opacity="1.00" d=" M 87.67 146.07 C 91.28 148.73 95.90 148.20 100.07 149.10 C 103.71 149.89 107.27 148.58 110.75 147.65 C 111.95 148.26 113.16 148.85 114.37 149.43 C 115.17 150.64 115.74 152.11 117.00 152.93 C 120.68 154.23 124.72 153.70 128.42 154.92 C 125.32 156.88 122.38 159.51 121.10 163.02 C 120.69 165.94 120.36 168.87 119.88 171.78 C 118.36 170.32 116.69 169.02 114.91 167.89 C 112.92 168.35 110.91 168.76 108.90 169.10 C 108.94 169.88 109.02 171.43 109.06 172.20 C 105.97 168.35 100.35 168.18 96.04 169.81 C 93.52 170.66 92.57 173.35 91.17 175.35 C 89.86 171.69 89.59 167.75 89.87 163.91 C 90.78 159.45 94.39 156.30 96.42 152.37 C 99.12 152.96 101.84 152.57 104.32 151.38 C 99.37 151.05 94.44 150.50 89.73 148.79 C 88.52 151.17 87.64 153.72 87.90 156.44 C 88.87 154.40 89.73 152.31 90.67 150.26 C 92.11 150.81 93.56 151.37 95.00 151.94 C 93.62 154.15 91.99 156.28 89.41 157.17 C 89.96 157.57 90.52 157.97 91.07 158.36 C 90.04 159.94 89.09 161.58 88.03 163.14 C 88.49 161.74 88.96 160.34 89.46 158.95 C 88.97 158.82 87.98 158.56 87.49 158.44 C 87.41 158.88 87.25 159.78 87.16 160.23 C 85.27 157.87 84.98 154.79 84.52 151.92 C 84.35 149.51 86.44 147.88 87.67 146.07 M 98.54 158.39 C 100.78 157.99 102.62 156.65 104.50 155.48 C 107.39 153.66 110.61 152.45 113.48 150.59 C 107.62 150.79 102.37 154.14 98.54 158.39 M 102.50 158.17 C 106.64 156.35 111.71 156.24 115.23 153.28 C 110.74 154.08 106.05 155.10 102.50 158.17 M 95.87 162.50 C 99.01 162.61 102.32 162.36 104.80 160.18 C 101.70 160.37 98.69 161.23 95.87 162.50 Z" />
<path fill="#FFFFFF" opacity="1.00" d=" M 70.71 152.72 C 72.39 154.27 74.07 155.83 75.76 157.38 C 75.53 161.73 75.30 166.09 75.39 170.45 C 79.71 169.39 83.98 168.05 87.98 166.09 C 87.99 167.91 88.03 169.74 88.11 171.56 C 77.32 175.23 66.90 179.93 55.99 183.21 C 55.88 181.49 55.82 179.77 55.78 178.05 C 60.59 176.01 65.77 174.79 70.34 172.22 C 70.90 165.74 70.43 159.21 70.71 152.72 Z" />
<path fill="#FFFFFF" opacity="1.00" d=" M 126.44 158.48 C 129.29 155.81 133.32 156.94 136.39 158.55 C 141.59 160.78 145.45 165.17 150.63 167.44 C 153.65 168.79 153.99 172.48 155.47 175.07 C 154.64 180.70 153.37 186.52 154.67 192.17 C 155.79 198.09 154.21 204.20 155.93 210.04 C 156.00 213.00 158.81 214.42 160.52 216.43 C 162.61 218.61 164.20 221.55 167.18 222.66 C 169.42 223.45 171.91 223.91 173.40 225.96 C 169.41 229.25 163.91 228.61 159.51 226.48 C 156.49 225.01 153.08 226.15 149.89 225.95 C 148.45 226.10 147.07 224.53 147.47 223.10 C 147.67 220.03 148.00 216.93 148.98 213.99 C 148.98 209.50 149.94 204.60 147.55 200.52 C 144.44 195.04 145.37 188.54 144.66 182.54 C 145.82 181.98 146.99 181.42 148.13 180.81 C 145.08 179.77 141.91 178.81 139.51 176.54 C 134.31 172.15 126.80 175.79 121.41 171.77 C 123.34 167.37 122.07 161.60 126.44 158.48 M 145.56 167.46 C 146.24 169.61 147.24 171.67 147.59 173.90 C 146.74 174.79 145.69 176.80 144.18 175.84 C 141.94 174.90 140.09 173.28 138.07 171.97 C 139.65 175.43 143.07 177.23 146.81 177.15 C 150.61 174.58 148.87 169.56 145.56 167.46 M 150.30 215.31 C 149.37 216.87 149.74 219.10 150.83 220.50 C 152.06 221.62 151.86 219.26 151.51 218.71 C 150.98 217.77 151.68 215.47 150.30 215.31 Z" />
<path fill="#FFFFFF" opacity="1.00" d=" M 77.08 158.27 C 79.88 160.74 82.69 163.19 85.52 165.62 C 82.69 166.62 79.85 167.57 77.00 168.51 C 77.03 165.10 77.04 161.68 77.08 158.27 Z" />
<path fill="#FFFFFF" opacity="1.00" d=" M 111.30 171.31 C 112.37 170.91 113.37 170.20 114.53 170.13 C 115.90 171.19 116.84 172.66 117.77 174.10 C 119.03 174.07 120.30 174.04 121.57 173.96 C 125.89 176.43 130.92 176.45 135.75 176.27 C 135.53 176.43 135.10 176.74 134.88 176.90 C 135.17 178.06 135.51 179.22 135.67 180.41 C 128.44 183.70 120.48 184.85 113.01 187.44 C 113.59 182.87 112.58 178.37 110.52 174.29 C 110.71 173.55 111.10 172.05 111.30 171.31 Z" />
<path fill="#FFFFFF" opacity="1.00" d=" M 96.53 171.61 C 99.40 170.55 102.61 171.05 105.56 171.49 C 110.01 175.74 111.56 182.05 111.71 188.05 C 110.76 185.50 109.18 183.28 106.79 181.91 C 107.35 183.14 107.96 184.35 108.59 185.55 C 109.19 186.97 109.89 188.34 110.64 189.69 C 110.36 189.72 109.81 189.76 109.54 189.79 C 109.11 194.57 107.08 199.01 105.47 203.48 C 102.92 207.80 101.26 212.79 102.23 217.86 C 104.71 214.24 103.39 209.40 105.82 205.70 C 106.14 209.15 106.62 212.83 105.15 216.11 C 103.13 220.78 102.36 226.03 103.46 231.04 C 100.64 232.78 98.32 235.62 98.37 239.08 C 100.30 237.15 101.43 234.66 102.63 232.27 C 102.99 232.54 103.69 233.07 104.04 233.34 C 105.66 240.35 110.72 245.85 115.02 251.38 C 114.50 251.81 113.44 252.66 112.91 253.09 C 111.58 251.93 110.82 249.29 108.66 249.82 C 105.80 250.26 102.60 249.64 100.01 251.17 C 100.16 246.15 96.57 242.01 96.11 237.08 C 96.30 234.34 97.08 231.62 96.64 228.86 C 96.15 223.78 93.94 219.04 93.59 213.94 C 93.52 209.74 95.14 205.77 96.52 201.88 C 97.71 204.18 98.66 206.63 100.30 208.67 C 99.64 203.46 96.89 198.48 97.68 193.13 C 98.21 187.24 95.64 181.76 91.96 177.31 C 93.39 175.36 94.51 173.04 96.53 171.61 M 100.53 186.50 C 103.17 186.09 104.78 183.94 106.00 181.78 C 103.91 183.02 102.07 184.62 100.53 186.50 M 103.13 196.30 C 103.35 197.93 106.33 197.97 106.47 196.28 C 106.16 194.77 103.28 194.63 103.13 196.30 Z" />
<path fill="#FFFFFF" opacity="1.00" d=" M 91.17 180.50 C 91.86 180.89 91.86 180.89 91.17 180.50 Z" />
<path fill="#FFFFFF" opacity="1.00" d=" M 108.54 199.96 C 109.95 195.73 111.29 191.44 113.26 187.42 C 115.30 190.28 114.10 193.76 114.10 196.96 C 113.93 202.28 113.86 207.61 114.03 212.93 C 119.15 211.61 124.07 209.67 129.09 208.05 C 130.79 207.25 132.45 208.61 134.04 209.09 C 133.67 210.25 133.30 211.41 132.92 212.57 C 124.27 215.83 115.52 218.82 106.99 222.41 C 106.46 221.90 105.94 221.40 105.43 220.89 C 106.20 218.65 107.17 216.47 107.72 214.15 C 108.66 209.47 107.06 204.58 108.54 199.96 Z" />
<path fill="#FFFFFF" opacity="1.00" d=" M 100.80 252.20 C 104.24 252.00 108.43 250.35 111.31 252.87 C 108.04 255.09 103.72 255.00 100.80 252.20 Z" />
</g>
<g id="#515251ff">
<path fill="#333333" opacity="1.00" d=" M 146.89 17.89 C 149.83 15.62 154.19 14.83 157.68 16.23 C 162.95 19.20 165.34 25.33 166.45 30.97 C 170.40 30.21 174.24 28.75 178.27 28.46 C 179.00 29.77 179.59 31.19 179.68 32.70 C 175.82 34.68 171.33 35.02 167.11 35.83 C 167.59 43.68 166.87 53.03 159.86 57.99 C 156.40 57.95 152.33 59.29 149.43 56.71 C 145.23 53.05 143.03 47.44 142.54 41.97 C 136.76 43.15 131.10 45.65 125.11 45.36 C 124.86 47.09 124.30 48.75 123.55 50.34 C 124.25 52.89 125.09 55.44 125.15 58.11 C 125.19 63.08 126.97 67.93 126.39 72.92 C 125.45 78.35 122.85 83.41 122.47 88.96 C 122.19 93.28 122.60 97.66 121.81 101.94 C 120.44 106.09 116.50 109.37 116.81 114.02 C 116.99 118.38 116.76 122.72 116.80 127.08 C 116.53 129.83 114.74 132.23 114.63 135.04 C 114.35 140.82 114.55 147.01 118.01 151.92 C 123.32 152.42 129.29 151.94 133.79 155.33 C 137.56 157.48 141.71 159.06 144.97 162.03 C 147.86 164.91 152.59 165.43 154.75 169.11 C 155.68 171.28 156.82 173.52 156.86 175.94 C 155.86 181.24 155.54 186.73 156.59 192.05 C 157.78 198.76 155.91 205.78 158.27 212.32 C 161.47 214.19 163.41 217.44 166.20 219.78 C 167.77 221.27 170.02 221.40 171.95 222.14 C 173.25 222.93 174.14 224.21 175.21 225.26 C 172.67 229.88 166.91 230.53 162.21 229.66 C 159.60 228.44 157.00 226.50 153.94 227.18 C 151.16 227.69 148.39 227.23 145.86 226.01 C 145.19 221.20 146.40 216.49 147.67 211.90 C 149.07 205.73 145.02 200.48 143.06 195.00 C 142.78 190.49 143.81 186.05 144.31 181.59 C 141.71 180.80 139.38 179.36 137.46 177.45 C 137.33 179.23 138.05 182.08 135.72 182.66 C 129.30 185.03 122.70 186.88 116.02 188.37 C 116.10 195.87 115.75 203.36 115.59 210.86 C 120.09 209.38 124.51 207.65 129.04 206.24 C 131.47 205.26 133.61 207.29 135.74 208.17 C 135.02 210.21 135.66 213.47 133.11 214.24 C 124.46 217.57 115.70 220.64 107.05 224.02 C 106.37 223.50 105.68 222.99 104.99 222.49 C 105.18 226.94 104.48 231.61 106.29 235.83 C 108.82 241.06 112.35 245.68 116.09 250.09 C 116.32 252.54 115.13 254.58 112.46 254.43 C 108.03 257.68 101.37 256.42 98.08 252.08 C 97.92 250.09 97.64 248.09 96.76 246.28 C 95.35 243.31 95.34 239.96 94.52 236.83 C 94.98 233.57 95.28 230.25 94.90 226.97 C 94.17 222.24 92.21 217.73 91.99 212.91 C 92.53 208.46 94.39 204.32 95.62 200.04 C 96.43 194.68 97.10 188.77 93.83 184.03 C 92.64 183.07 91.15 182.59 89.92 181.70 C 89.67 178.73 89.63 175.73 88.68 172.87 C 78.02 177.00 67.26 180.85 56.59 184.96 C 53.74 183.30 54.12 180.12 54.27 177.27 C 59.11 175.14 64.15 173.53 69.08 171.63 C 69.48 165.05 69.21 158.46 69.59 151.88 C 67.00 149.62 64.06 147.76 61.64 145.32 C 59.90 143.60 60.89 140.99 60.91 138.87 C 64.61 137.58 68.46 136.73 72.35 136.21 C 70.51 139.58 65.70 138.40 62.64 140.03 C 60.62 143.34 64.34 145.64 66.59 147.37 C 73.56 152.24 79.52 158.37 86.29 163.49 C 84.96 159.16 82.50 155.04 82.92 150.35 C 84.26 148.77 85.45 147.08 86.51 145.31 C 85.92 141.18 86.89 136.46 83.77 133.12 C 79.99 128.81 75.60 124.41 75.00 118.38 C 73.28 116.26 71.44 114.19 70.17 111.76 C 68.18 106.20 72.25 100.68 71.16 95.04 C 70.81 90.86 68.23 87.25 67.99 83.05 C 67.69 78.04 67.26 73.03 67.52 68.02 C 67.84 65.27 66.50 62.79 65.70 60.25 C 58.48 62.12 51.24 63.92 43.93 65.37 C 44.04 72.99 43.21 81.83 36.84 86.99 C 33.42 87.06 29.55 88.63 26.51 86.35 C 21.86 82.89 19.91 77.01 18.75 71.56 C 15.11 72.22 11.47 72.96 7.92 73.99 C 7.23 72.26 5.77 69.26 8.10 68.23 C 11.50 67.52 14.90 66.83 18.25 65.90 C 17.71 59.20 18.91 51.65 23.82 46.71 C 27.41 44.45 32.74 43.74 36.17 46.73 C 40.08 50.23 41.84 55.37 43.14 60.31 C 50.00 58.00 57.20 56.95 64.16 55.00 C 64.74 53.78 64.96 52.14 66.39 51.58 C 69.94 49.69 73.95 49.08 77.84 48.25 C 78.90 49.08 79.41 51.22 80.99 50.94 C 92.07 48.97 102.85 45.35 113.97 43.71 C 111.22 46.53 107.00 46.30 103.48 47.36 C 95.19 49.47 86.77 51.09 78.59 53.60 C 79.65 54.02 80.60 55.24 81.85 54.79 C 92.01 52.69 101.98 49.72 112.21 47.96 C 114.22 48.45 114.39 46.19 115.29 45.04 C 116.74 44.61 118.28 44.53 119.78 44.28 C 119.53 44.65 119.02 45.41 118.77 45.79 C 115.89 46.93 113.17 48.41 110.64 50.19 C 113.29 51.46 115.94 50.45 118.50 49.55 C 117.75 50.95 116.46 51.86 115.18 52.72 C 117.82 57.25 117.10 62.62 115.39 67.33 C 113.52 71.83 115.77 77.62 111.91 81.29 C 112.16 75.37 113.01 69.47 114.56 63.75 C 115.42 60.22 114.86 56.57 113.69 53.18 C 112.82 52.72 111.96 52.27 111.09 51.82 C 110.73 51.34 110.01 50.38 109.65 49.90 C 99.92 52.15 90.21 54.51 80.49 56.86 C 79.72 58.32 78.90 59.76 78.03 61.16 C 78.60 63.99 78.92 66.86 79.43 69.69 C 81.17 73.72 84.03 77.81 82.68 82.43 C 83.77 86.94 84.45 91.52 84.49 96.16 C 84.92 96.75 85.78 97.93 86.21 98.52 C 87.67 95.42 87.78 92.00 87.72 88.65 C 85.02 85.32 84.75 80.87 85.03 76.77 C 85.87 73.19 89.19 70.32 92.90 70.18 C 96.02 70.17 99.63 69.58 102.22 71.76 C 104.89 73.80 104.65 77.52 105.52 80.46 C 106.97 85.78 105.11 91.19 103.92 96.37 C 105.87 96.50 107.36 95.21 108.87 94.18 C 108.53 90.79 109.61 87.61 111.20 84.67 C 111.20 82.79 110.93 80.46 113.68 81.42 C 114.13 81.26 115.02 80.93 115.46 80.77 C 114.33 83.72 112.49 86.29 111.03 89.06 C 109.89 93.43 110.59 97.92 111.40 102.27 C 110.72 100.57 110.37 98.78 110.03 96.99 C 109.61 96.70 108.78 96.13 108.36 95.85 C 107.91 96.44 107.00 97.63 106.55 98.23 C 105.38 97.77 104.20 97.32 103.03 96.87 C 102.95 97.65 102.80 99.20 102.72 99.98 C 104.31 99.57 105.91 99.18 107.52 98.85 C 106.19 100.46 104.24 101.17 102.36 101.90 C 101.41 105.00 98.29 103.89 96.02 103.30 C 92.93 102.38 89.73 104.69 86.78 103.08 C 88.90 102.53 91.05 102.05 93.19 101.57 C 92.12 99.07 91.15 96.53 90.15 94.00 C 91.87 96.24 94.06 98.46 94.09 101.49 C 96.91 101.55 100.32 104.12 102.48 101.24 C 102.25 99.91 101.99 98.58 101.69 97.25 C 98.58 96.86 95.33 96.23 92.77 94.30 C 91.14 92.58 90.10 90.39 88.67 88.51 C 88.26 91.88 89.31 95.87 86.90 98.69 C 87.19 99.45 87.49 100.22 87.78 100.98 C 86.04 99.93 84.34 98.79 82.60 97.74 C 82.62 101.68 82.26 105.65 81.18 109.46 C 80.79 101.07 84.84 92.09 80.81 84.17 C 81.55 80.38 80.90 76.52 78.82 73.27 C 76.44 69.60 77.01 65.09 76.20 60.99 C 77.06 59.59 78.05 58.27 78.77 56.79 C 78.45 55.25 77.83 53.80 77.33 52.32 L 78.90 51.30 C 74.74 48.48 69.91 52.29 65.91 53.81 C 66.12 54.36 66.52 55.48 66.73 56.04 C 58.76 58.00 50.81 60.02 42.76 61.62 L 43.88 63.61 C 52.32 62.53 60.36 58.74 68.93 58.73 L 67.49 59.43 C 67.84 60.80 68.31 62.14 69.00 63.39 C 69.91 67.25 68.55 71.15 68.89 75.05 C 69.31 80.89 70.62 86.65 72.57 92.17 C 73.15 96.81 72.48 101.52 71.59 106.08 C 70.98 109.49 72.82 112.78 75.64 114.61 C 76.69 118.26 77.22 122.24 79.65 125.30 C 81.15 127.14 82.64 128.99 84.11 130.85 C 86.05 130.33 88.02 129.95 90.00 129.55 C 90.36 130.09 91.08 131.17 91.44 131.71 C 89.32 131.61 87.21 131.56 85.10 131.38 C 87.51 135.42 87.57 140.13 87.99 144.66 C 92.32 146.77 97.29 146.94 102.01 146.84 C 100.55 145.32 99.08 143.78 97.98 141.96 C 98.51 140.88 99.89 139.54 98.15 138.48 C 98.60 137.91 99.05 137.34 99.50 136.77 L 97.80 136.74 L 97.86 135.67 C 101.09 136.14 104.35 135.28 107.43 134.44 C 108.24 132.75 108.23 130.81 108.59 129.00 C 109.37 131.12 109.58 133.82 112.00 134.75 C 113.23 132.35 114.53 129.98 115.59 127.49 C 113.17 127.11 110.75 126.74 108.33 126.44 C 105.14 127.95 101.71 129.13 99.08 131.56 C 96.97 131.07 95.00 130.10 94.34 127.86 C 95.74 128.55 97.12 129.29 98.51 130.02 C 99.84 129.10 101.22 128.24 102.67 127.49 C 103.02 127.12 103.72 126.38 104.08 126.01 C 104.91 125.97 106.57 125.90 107.41 125.86 C 107.10 124.30 106.77 122.75 106.39 121.21 C 107.35 120.53 108.30 119.85 109.25 119.15 C 110.28 119.59 111.32 120.03 112.36 120.48 C 110.54 120.70 108.73 121.02 106.94 121.43 C 107.59 122.54 108.24 123.65 108.89 124.76 C 111.29 124.84 113.51 125.68 115.49 127.04 C 115.07 124.37 114.57 121.72 114.05 119.07 C 114.51 119.29 115.42 119.73 115.88 119.96 C 115.32 116.92 115.19 113.84 115.47 110.78 C 115.22 110.45 114.73 109.81 114.49 109.48 C 114.41 104.98 114.18 100.48 114.13 95.98 C 113.96 93.59 115.45 91.59 116.72 89.72 C 115.60 96.18 114.10 103.01 116.13 109.44 C 117.76 105.74 120.76 102.33 120.55 98.06 C 120.43 93.85 120.86 89.65 121.01 85.44 C 120.48 85.35 119.43 85.18 118.91 85.10 C 119.02 83.43 119.15 81.76 119.29 80.10 C 119.92 81.50 120.53 82.92 121.12 84.34 C 123.99 80.20 123.95 74.78 124.54 69.94 C 124.30 64.25 124.11 58.44 122.56 52.92 C 122.34 51.50 121.16 50.80 119.95 50.31 C 122.56 50.67 123.24 47.60 124.71 46.07 C 124.10 44.08 123.47 42.09 122.72 40.15 C 117.43 38.98 112.80 42.30 108.04 43.93 C 108.96 42.00 110.29 40.09 112.57 39.94 C 115.44 39.52 118.01 37.43 120.99 37.94 C 122.66 38.15 123.68 39.68 124.84 40.73 C 130.40 39.38 135.99 38.14 141.58 36.88 C 141.36 30.28 142.32 22.98 146.89 17.89 M 146.78 20.02 C 143.04 24.78 143.37 31.13 142.08 36.75 C 145.30 35.87 148.55 35.10 151.84 34.48 C 152.38 36.19 152.66 37.96 152.24 39.74 C 149.15 40.33 146.12 41.18 143.10 42.06 C 145.19 47.41 146.71 54.74 153.06 56.50 C 155.85 56.37 159.40 56.83 161.36 54.38 C 165.76 49.42 166.25 42.28 165.88 35.96 C 165.30 28.40 162.40 19.79 154.83 16.65 C 152.03 17.35 148.49 17.24 146.78 20.02 M 166.98 32.20 C 166.99 32.86 167.00 34.17 167.00 34.83 C 170.79 33.81 174.72 33.27 178.41 31.89 C 178.26 31.44 177.97 30.55 177.83 30.10 C 174.11 30.05 170.59 31.48 166.98 32.20 M 124.97 42.30 C 125.07 42.96 125.28 44.28 125.38 44.94 C 133.92 41.86 143.13 41.02 151.65 37.97 C 151.43 37.51 150.98 36.61 150.76 36.15 C 142.18 38.23 133.55 40.19 124.97 42.30 M 24.76 47.73 C 19.71 52.28 19.62 59.61 18.71 65.86 C 21.78 65.15 24.82 63.99 27.99 63.89 C 29.18 65.25 28.99 67.16 29.28 68.83 C 26.01 69.72 22.75 70.66 19.41 71.26 C 21.76 76.47 23.03 83.51 29.11 85.68 C 31.59 85.84 34.35 85.96 36.59 84.75 C 41.47 80.76 42.44 73.96 42.46 68.03 C 42.34 60.90 40.65 52.93 35.03 48.06 C 32.19 45.38 27.86 45.78 24.76 47.73 M 10.08 69.27 C 10.36 69.82 10.91 70.91 11.19 71.45 C 17.01 70.47 22.64 68.57 28.44 67.44 C 28.08 66.99 27.35 66.08 26.99 65.62 C 21.31 66.64 15.79 68.37 10.08 69.27 M 8.13 70.21 C 6.74 73.24 11.40 70.22 8.13 70.21 M 87.25 76.00 C 86.35 78.00 84.81 81.95 88.24 82.54 C 87.92 83.24 87.30 84.65 86.99 85.35 C 89.67 87.27 91.80 89.70 93.49 92.51 C 96.25 93.70 100.50 96.79 102.98 93.80 C 105.66 87.88 104.99 81.06 102.90 75.07 C 102.08 73.50 100.56 72.45 99.32 71.22 C 94.97 71.21 89.39 71.47 87.25 76.00 M 108.92 135.47 C 105.89 136.89 102.39 136.93 99.50 138.69 C 99.70 140.07 99.87 141.46 100.06 142.85 C 101.52 144.10 102.91 145.43 104.25 146.80 C 107.49 147.19 110.82 145.97 113.55 144.28 C 113.43 141.24 112.99 138.22 112.95 135.17 C 111.61 135.34 110.26 135.42 108.92 135.47 M 87.67 146.07 C 86.44 147.88 84.35 149.51 84.52 151.92 C 84.98 154.79 85.27 157.87 87.16 160.23 C 87.25 159.78 87.41 158.88 87.49 158.44 C 87.98 158.56 88.97 158.82 89.46 158.95 C 88.96 160.34 88.49 161.74 88.03 163.14 C 89.09 161.58 90.04 159.94 91.07 158.36 C 90.52 157.97 89.96 157.57 89.41 157.17 C 91.99 156.28 93.62 154.15 95.00 151.94 C 93.56 151.37 92.11 150.81 90.67 150.26 C 89.73 152.31 88.87 154.40 87.90 156.44 C 87.64 153.72 88.52 151.17 89.73 148.79 C 94.44 150.50 99.37 151.05 104.32 151.38 C 101.84 152.57 99.12 152.96 96.42 152.37 C 94.39 156.30 90.78 159.45 89.87 163.91 C 89.59 167.75 89.86 171.69 91.17 175.35 C 92.57 173.35 93.52 170.66 96.04 169.81 C 100.35 168.18 105.97 168.35 109.06 172.20 C 109.02 171.43 108.94 169.88 108.90 169.10 C 110.91 168.76 112.92 168.35 114.91 167.89 C 116.69 169.02 118.36 170.32 119.88 171.78 C 120.36 168.87 120.69 165.94 121.10 163.02 C 122.38 159.51 125.32 156.88 128.42 154.92 C 124.72 153.70 120.68 154.23 117.00 152.93 C 115.74 152.11 115.17 150.64 114.37 149.43 C 113.16 148.85 111.95 148.26 110.75 147.65 C 107.27 148.58 103.71 149.89 100.07 149.10 C 95.90 148.20 91.28 148.73 87.67 146.07 M 70.71 152.72 C 70.43 159.21 70.90 165.74 70.34 172.22 C 65.77 174.79 60.59 176.01 55.78 178.05 C 55.82 179.77 55.88 181.49 55.99 183.21 C 66.90 179.93 77.32 175.23 88.11 171.56 C 88.03 169.74 87.99 167.91 87.98 166.09 C 83.98 168.05 79.71 169.39 75.39 170.45 C 75.30 166.09 75.53 161.73 75.76 157.38 C 74.07 155.83 72.39 154.27 70.71 152.72 M 126.44 158.48 C 122.07 161.60 123.34 167.37 121.41 171.77 C 126.80 175.79 134.31 172.15 139.51 176.54 C 141.91 178.81 145.08 179.77 148.13 180.81 C 146.99 181.42 145.82 181.98 144.66 182.54 C 145.37 188.54 144.44 195.04 147.55 200.52 C 149.94 204.60 148.98 209.50 148.98 213.99 C 148.00 216.93 147.67 220.03 147.47 223.10 C 147.07 224.53 148.45 226.10 149.89 225.95 C 153.08 226.15 156.49 225.01 159.51 226.48 C 163.91 228.61 169.41 229.25 173.40 225.96 C 171.91 223.91 169.42 223.45 167.18 222.66 C 164.20 221.55 162.61 218.61 160.52 216.43 C 158.81 214.42 156.00 213.00 155.93 210.04 C 154.21 204.20 155.79 198.09 154.67 192.17 C 153.37 186.52 154.64 180.70 155.47 175.07 C 153.99 172.48 153.65 168.79 150.63 167.44 C 145.45 165.17 141.59 160.78 136.39 158.55 C 133.32 156.94 129.29 155.81 126.44 158.48 M 77.08 158.27 C 77.04 161.68 77.03 165.10 77.00 168.51 C 79.85 167.57 82.69 166.62 85.52 165.62 C 82.69 163.19 79.88 160.74 77.08 158.27 M 111.30 171.31 C 111.10 172.05 110.71 173.55 110.52 174.29 C 112.58 178.37 113.59 182.87 113.01 187.44 C 120.48 184.85 128.44 183.70 135.67 180.41 C 135.51 179.22 135.17 178.06 134.88 176.90 C 135.10 176.74 135.53 176.43 135.75 176.27 C 130.92 176.45 125.89 176.43 121.57 173.96 C 120.30 174.04 119.03 174.07 117.77 174.10 C 116.84 172.66 115.90 171.19 114.53 170.13 C 113.37 170.20 112.37 170.91 111.30 171.31 M 96.53 171.61 C 94.51 173.04 93.39 175.36 91.96 177.31 C 95.64 181.76 98.21 187.24 97.68 193.13 C 96.89 198.48 99.64 203.46 100.30 208.67 C 98.66 206.63 97.71 204.18 96.52 201.88 C 95.14 205.77 93.52 209.74 93.59 213.94 C 93.94 219.04 96.15 223.78 96.64 228.86 C 97.08 231.62 96.30 234.34 96.11 237.08 C 96.57 242.01 100.16 246.15 100.01 251.17 C 102.60 249.64 105.80 250.26 108.66 249.82 C 110.82 249.29 111.58 251.93 112.91 253.09 C 113.44 252.66 114.50 251.81 115.02 251.38 C 110.72 245.85 105.66 240.35 104.04 233.34 C 103.69 233.07 102.99 232.54 102.63 232.27 C 101.43 234.66 100.30 237.15 98.37 239.08 C 98.32 235.62 100.64 232.78 103.46 231.04 C 102.36 226.03 103.13 220.78 105.15 216.11 C 106.62 212.83 106.14 209.15 105.82 205.70 C 103.39 209.40 104.71 214.24 102.23 217.86 C 101.26 212.79 102.92 207.80 105.47 203.48 C 107.08 199.01 109.11 194.57 109.54 189.79 C 109.81 189.76 110.36 189.72 110.64 189.69 C 109.89 188.34 109.19 186.97 108.59 185.55 C 107.96 184.35 107.35 183.14 106.79 181.91 C 109.18 183.28 110.76 185.50 111.71 188.05 C 111.56 182.05 110.01 175.74 105.56 171.49 C 102.61 171.05 99.40 170.55 96.53 171.61 M 91.17 180.50 C 91.86 180.89 91.86 180.89 91.17 180.50 M 108.54 199.96 C 107.06 204.58 108.66 209.47 107.72 214.15 C 107.17 216.47 106.20 218.65 105.43 220.89 C 105.94 221.40 106.46 221.90 106.99 222.41 C 115.52 218.82 124.27 215.83 132.92 212.57 C 133.30 211.41 133.67 210.25 134.04 209.09 C 132.45 208.61 130.79 207.25 129.09 208.05 C 124.07 209.67 119.15 211.61 114.03 212.93 C 113.86 207.61 113.93 202.28 114.10 196.96 C 114.10 193.76 115.30 190.28 113.26 187.42 C 111.29 191.44 109.95 195.73 108.54 199.96 M 100.80 252.20 C 103.72 255.00 108.04 255.09 111.31 252.87 C 108.43 250.35 104.24 252.00 100.80 252.20 Z" />
<path fill="#333333" opacity="1.00" d=" M 152.81 17.81 C 157.15 19.17 158.93 23.88 160.29 27.79 C 162.70 35.59 162.91 44.29 159.95 51.97 C 159.44 53.70 157.87 54.69 156.48 55.66 C 161.71 46.71 162.08 35.48 158.08 25.99 C 156.82 22.97 154.41 20.64 152.81 17.81 Z" />
<path fill="#333333" opacity="1.00" d=" M 29.33 47.13 C 32.99 48.05 34.64 51.75 36.01 54.89 C 39.17 63.26 39.64 72.90 36.38 81.31 C 35.91 83.04 34.40 83.99 32.87 84.70 C 38.07 76.48 38.28 65.91 35.22 56.87 C 34.11 53.16 31.29 50.39 29.33 47.13 Z" />
<path fill="#333333" opacity="1.00" d=" M 70.89 54.04 C 73.24 54.41 75.57 54.93 77.90 55.42 C 75.42 57.17 72.63 56.31 70.89 54.04 Z" />
<path fill="#333333" opacity="1.00" d=" M 116.02 79.18 C 117.37 79.34 117.63 80.05 116.82 81.31 C 115.47 81.13 115.20 80.42 116.02 79.18 Z" />
<path fill="#333333" opacity="1.00" d=" M 79.67 86.99 C 81.43 87.89 78.81 91.52 77.36 91.68 C 77.14 89.99 78.37 88.03 79.67 86.99 Z" />
<path fill="#333333" opacity="1.00" d=" M 74.45 90.00 C 75.85 89.54 76.34 90.02 75.90 91.42 C 74.50 91.87 74.02 91.40 74.45 90.00 Z" />
<path fill="#333333" opacity="1.00" d=" M 102.16 107.86 C 103.84 109.83 104.41 112.37 105.31 114.73 C 106.77 115.92 108.97 117.98 110.82 116.07 C 109.82 118.12 107.25 117.67 105.37 117.68 C 105.25 117.01 105.01 115.69 104.88 115.03 C 103.73 118.95 99.73 119.92 96.18 120.24 C 97.94 118.40 100.51 117.96 102.63 116.69 C 103.77 113.78 102.35 110.80 102.16 107.86 Z" />
<path fill="#333333" opacity="1.00" d=" M 81.47 116.61 C 81.77 116.13 81.48 114.92 82.39 115.15 C 85.78 117.01 88.88 119.43 91.46 122.33 C 87.54 121.61 85.00 118.19 81.47 116.61 Z" />
<path fill="#333333" opacity="1.00" d=" M 114.22 116.88 C 114.84 117.43 114.84 117.43 114.22 116.88 Z" />
<path fill="#333333" opacity="1.00" d=" M 97.70 126.92 C 99.56 124.13 100.67 119.87 104.60 119.51 C 102.65 122.29 100.58 125.05 97.70 126.92 Z" />
<path fill="#333333" opacity="1.00" d=" M 85.00 125.11 C 85.79 124.34 86.64 123.65 87.49 122.95 C 87.54 123.23 87.64 123.79 87.69 124.07 C 87.31 124.59 86.55 125.61 86.17 126.12 C 87.72 127.17 89.46 126.68 91.07 126.10 C 91.29 126.50 91.73 127.31 91.95 127.72 C 90.57 128.00 89.19 128.28 87.82 128.56 C 86.63 127.61 84.51 127.05 85.00 125.11 Z" />
<path fill="#333333" opacity="1.00" d=" M 92.65 133.26 C 94.66 133.06 96.67 132.96 98.69 132.90 C 97.28 135.53 94.39 135.42 92.65 133.26 Z" />
<path fill="#333333" opacity="1.00" d=" M 88.57 133.89 C 90.81 135.09 93.09 136.31 94.88 138.14 C 92.09 138.47 88.62 137.15 88.57 133.89 Z" />
<path fill="#333333" opacity="1.00" d=" M 108.16 139.94 C 110.44 139.05 109.33 142.82 107.67 142.61 C 106.18 142.31 107.24 140.30 108.16 139.94 Z" />
<path fill="#333333" opacity="1.00" d=" M 98.54 158.39 C 102.37 154.14 107.62 150.79 113.48 150.59 C 110.61 152.45 107.39 153.66 104.50 155.48 C 102.62 156.65 100.78 157.99 98.54 158.39 Z" />
<path fill="#333333" opacity="1.00" d=" M 102.50 158.17 C 106.05 155.10 110.74 154.08 115.23 153.28 C 111.71 156.24 106.64 156.35 102.50 158.17 Z" />
<path fill="#333333" opacity="1.00" d=" M 95.87 162.50 C 98.69 161.23 101.70 160.37 104.80 160.18 C 102.32 162.36 99.01 162.61 95.87 162.50 Z" />
<path fill="#333333" opacity="1.00" d=" M 145.56 167.46 C 148.87 169.56 150.61 174.58 146.81 177.15 C 143.07 177.23 139.65 175.43 138.07 171.97 C 140.09 173.28 141.94 174.90 144.18 175.84 C 145.69 176.80 146.74 174.79 147.59 173.90 C 147.24 171.67 146.24 169.61 145.56 167.46 Z" />
<path fill="#333333" opacity="1.00" d=" M 100.53 186.50 C 102.07 184.62 103.91 183.02 106.00 181.78 C 104.78 183.94 103.17 186.09 100.53 186.50 Z" />
<path fill="#333333" opacity="1.00" d=" M 103.13 196.30 C 103.28 194.63 106.16 194.77 106.47 196.28 C 106.33 197.97 103.35 197.93 103.13 196.30 Z" />
<path fill="#333333" opacity="1.00" d=" M 150.30 215.31 C 151.68 215.47 150.98 217.77 151.51 218.71 C 151.86 219.26 152.06 221.62 150.83 220.50 C 149.74 219.10 149.37 216.87 150.30 215.31 Z" />
</g>
</svg>
