<?xml version="1.0" encoding="UTF-8" ?>
<!DOCTYPE svg PUBLIC "-//W3C//DTD SVG 1.1//EN" "http://www.w3.org/Graphics/SVG/1.1/DTD/svg11.dtd">
<svg width="227pt" height="300pt" viewBox="0 0 227 300" version="1.1" xmlns="http://www.w3.org/2000/svg">
<g id="#ffffffff">
<path fill="#FFFFFF" opacity="1.00" d=" M 0.00 0.00 L 227.00 0.00 L 227.00 300.00 L 0.00 300.00 L 0.00 0.00 M 100.40 17.98 C 101.54 19.39 102.74 20.76 103.96 22.10 C 101.09 22.86 99.87 25.32 99.19 27.97 C 98.02 26.51 96.84 25.06 95.66 23.60 C 95.34 23.87 94.71 24.39 94.39 24.66 C 93.07 22.29 91.65 19.98 90.12 17.74 C 88.18 17.58 86.24 17.42 84.30 17.31 C 84.97 18.77 85.67 20.21 86.39 21.65 C 86.18 21.88 85.75 22.36 85.54 22.59 C 84.60 22.17 83.66 21.74 82.73 21.32 C 81.75 22.86 80.70 24.37 80.03 26.08 C 80.39 28.84 84.57 29.42 83.80 32.58 C 85.00 32.21 86.18 31.84 87.36 31.43 C 88.57 32.21 89.73 33.06 91.01 33.73 C 94.17 32.48 95.45 29.34 95.65 26.15 C 97.21 28.68 98.61 31.31 99.53 34.15 C 98.64 35.58 97.75 37.00 96.85 38.42 C 95.64 38.79 94.42 39.18 93.21 39.55 C 92.55 43.11 90.39 46.31 90.56 50.02 C 90.71 55.64 89.41 61.26 86.58 66.14 C 85.86 66.41 84.43 66.94 83.72 67.21 C 84.76 68.16 85.83 69.08 86.95 69.94 C 87.99 73.57 85.28 76.50 84.51 79.82 C 85.27 83.87 86.95 87.80 86.86 91.98 C 86.68 94.41 85.76 96.74 85.78 99.19 C 86.50 98.22 87.19 97.23 87.83 96.20 L 88.99 96.92 L 88.58 95.86 C 89.61 94.19 89.20 92.72 87.43 91.79 C 87.63 88.15 88.06 84.43 86.93 80.90 C 86.17 78.42 86.73 75.81 87.84 73.54 C 88.90 78.60 91.29 83.43 90.98 88.71 C 93.36 88.34 95.78 88.23 98.18 88.50 C 101.24 85.11 101.78 80.44 102.58 76.14 C 103.56 78.19 104.34 80.41 105.93 82.08 C 109.98 85.36 115.37 85.41 120.30 85.88 C 116.78 88.77 112.07 90.90 110.78 95.66 C 111.22 95.48 112.09 95.13 112.53 94.95 C 115.29 90.97 119.53 88.36 123.49 85.71 C 123.68 84.84 123.89 83.98 124.09 83.13 C 125.29 86.84 126.09 90.69 126.53 94.56 C 125.95 97.53 124.51 100.86 127.22 103.27 C 126.91 106.54 125.87 109.71 125.94 113.01 C 127.32 110.96 127.57 108.45 128.03 106.08 C 128.53 103.76 127.02 101.51 127.60 99.20 C 128.86 93.96 127.03 88.29 129.45 83.31 C 130.46 83.01 131.47 82.72 132.49 82.44 C 132.25 80.59 131.97 78.73 131.92 76.86 C 132.03 74.15 133.57 71.76 133.88 69.10 C 133.80 65.82 133.84 62.53 133.60 59.25 C 134.62 58.00 135.66 56.78 136.70 55.55 C 135.80 55.21 135.02 54.52 134.00 54.68 C 133.28 55.98 132.75 57.37 132.17 58.74 C 132.75 60.47 132.67 62.28 132.14 64.01 C 133.13 68.66 131.84 73.34 131.26 77.96 C 130.96 81.52 127.39 83.04 125.99 86.05 C 126.52 80.69 125.76 75.39 124.94 70.12 C 124.28 66.56 127.70 64.16 128.18 60.95 C 126.63 57.65 123.25 55.75 120.95 53.02 C 118.50 50.55 118.05 46.84 115.71 44.30 C 113.77 42.02 111.42 40.12 109.56 37.78 C 107.29 37.23 105.01 36.76 102.72 36.36 C 102.15 33.40 101.46 30.47 100.62 27.57 C 101.64 25.73 102.99 24.09 105.12 23.50 C 105.02 25.59 104.85 27.67 104.69 29.75 C 106.73 30.57 108.91 30.66 111.07 30.37 C 111.26 28.78 111.46 27.18 111.68 25.59 C 114.38 27.33 115.96 29.89 115.74 33.15 C 119.03 36.88 124.02 38.16 127.94 41.02 C 131.63 43.77 134.86 47.22 136.88 51.39 C 138.61 55.20 141.76 58.60 141.77 63.01 C 141.27 66.36 140.63 69.69 140.19 73.04 C 140.22 75.91 141.58 78.75 140.90 81.63 C 139.70 86.89 136.89 91.58 134.04 96.09 C 132.52 98.06 133.52 100.83 132.01 102.80 C 131.83 107.71 131.88 112.66 130.85 117.50 C 130.26 117.30 129.06 116.89 128.46 116.69 C 129.34 119.33 129.73 122.10 129.01 124.84 C 128.32 124.74 126.93 124.56 126.23 124.47 C 126.17 123.19 126.11 121.91 126.04 120.63 C 123.68 120.54 121.55 121.53 119.50 122.56 C 118.90 120.56 118.36 118.51 118.68 116.41 C 118.04 116.49 116.77 116.65 116.14 116.73 C 117.35 118.97 118.27 121.36 118.52 123.92 C 120.22 123.35 121.93 122.83 123.63 122.29 C 125.57 123.74 126.48 125.90 126.96 128.21 L 127.98 128.23 C 127.37 131.13 128.01 134.62 125.74 136.90 C 124.38 137.27 123.69 135.88 122.88 135.11 C 122.48 135.47 121.67 136.18 121.27 136.54 C 122.55 137.34 123.82 138.16 125.16 138.86 L 125.73 139.16 C 126.21 141.03 126.43 142.97 126.35 144.90 C 120.53 148.34 113.48 149.12 106.84 148.68 C 106.42 145.10 106.51 140.68 103.04 138.53 C 103.18 141.93 105.03 144.85 106.52 147.79 C 102.42 147.70 97.97 147.94 94.60 145.16 C 93.67 140.73 93.68 136.17 93.24 131.68 C 91.69 130.51 90.09 129.38 88.45 128.35 C 87.36 125.00 85.24 122.13 84.03 118.84 C 82.48 113.87 79.66 109.20 80.62 103.77 C 81.41 104.51 82.99 106.00 83.78 106.75 C 83.29 102.21 80.72 98.36 78.47 94.53 C 76.03 90.40 74.89 85.67 74.30 80.95 C 74.09 76.27 75.39 71.69 75.26 67.01 C 75.05 63.58 76.36 59.79 74.10 56.81 C 71.25 63.22 73.59 70.36 72.51 77.09 C 71.49 82.45 73.18 87.80 75.43 92.62 C 76.65 95.36 78.54 97.95 78.50 101.08 C 78.96 105.04 78.12 109.19 79.70 112.97 C 70.56 144.62 61.68 176.34 52.61 208.02 C 51.75 211.00 50.74 213.99 50.67 217.13 C 51.89 216.01 52.94 214.66 53.27 213.01 C 62.21 180.68 71.84 148.54 80.56 116.15 C 81.34 118.70 82.10 121.31 83.68 123.50 C 86.07 126.74 87.31 130.84 90.69 133.28 C 91.17 137.63 91.74 141.96 92.38 146.28 C 90.96 148.55 89.15 150.58 87.98 153.00 C 87.53 156.08 88.90 159.01 89.10 162.05 C 89.58 167.54 86.97 172.66 86.86 178.12 C 86.84 180.92 84.65 182.94 83.46 185.30 C 85.20 186.63 86.54 190.08 89.17 188.43 C 88.58 192.60 89.15 196.78 89.30 200.95 C 88.83 204.05 87.36 206.89 86.97 210.01 C 86.30 213.55 86.40 217.21 85.63 220.73 C 84.08 225.26 82.36 229.80 81.71 234.57 C 81.22 241.27 84.41 247.47 85.14 254.03 C 85.68 257.78 85.16 261.60 84.45 265.29 C 85.10 267.54 85.77 269.80 85.84 272.16 C 85.92 275.02 87.84 277.37 88.35 280.14 C 88.31 288.79 100.35 291.82 106.53 287.39 C 108.22 286.92 109.85 286.27 111.37 285.39 C 111.15 282.08 109.34 279.29 107.23 276.87 C 103.81 273.40 101.98 268.81 99.34 264.79 C 96.04 256.18 97.27 246.30 100.70 237.91 C 101.89 231.35 99.83 224.42 102.25 218.01 C 103.83 214.01 104.64 209.64 107.05 206.02 C 109.97 201.53 110.37 196.00 110.68 190.79 C 111.53 189.86 112.39 188.93 113.24 188.00 C 114.68 191.02 116.37 193.91 118.25 196.68 C 120.12 199.13 119.57 202.36 120.09 205.22 C 120.69 207.27 121.86 209.09 122.79 211.01 C 121.54 216.19 120.96 221.53 121.14 226.85 C 122.51 231.36 125.87 235.08 126.49 239.85 C 128.64 248.25 122.95 256.13 124.49 264.57 C 126.00 265.33 127.46 266.25 129.13 266.62 C 132.04 267.10 134.96 265.68 137.86 266.34 C 140.25 267.12 142.44 268.39 144.73 269.44 C 147.15 269.16 149.53 269.74 151.94 269.89 C 154.40 269.03 156.74 267.89 159.17 266.95 C 159.58 265.52 160.83 263.88 159.34 262.65 C 157.93 259.83 154.75 259.75 152.10 259.02 C 147.10 256.44 144.30 251.21 139.83 247.91 C 137.15 241.67 138.27 234.63 138.02 228.01 C 138.23 223.30 136.15 218.79 136.76 214.07 C 136.75 210.99 136.70 207.90 137.64 204.92 C 138.98 201.41 135.98 198.33 136.25 194.86 C 136.42 190.32 136.07 185.78 135.43 181.29 C 136.31 180.86 137.19 180.43 138.07 180.00 C 138.02 179.41 137.92 178.24 137.86 177.66 C 136.85 176.39 135.48 175.22 135.33 173.50 C 134.73 168.06 131.72 163.35 130.28 158.15 C 130.96 155.18 132.60 151.49 130.01 148.96 C 126.87 145.87 127.93 141.04 127.37 137.06 C 131.12 131.37 130.15 124.38 131.22 117.97 C 134.66 112.39 131.99 105.42 134.45 99.53 C 136.89 94.86 138.93 90.00 141.07 85.19 C 143.41 80.28 141.29 74.69 142.68 69.56 C 143.20 66.20 144.24 62.22 141.69 59.39 C 141.67 58.84 141.63 57.74 141.62 57.19 C 141.24 56.91 140.48 56.35 140.10 56.07 C 138.72 49.32 134.79 42.76 128.64 39.32 C 124.53 37.05 120.09 35.17 116.76 31.75 C 116.16 28.73 115.71 25.48 112.74 23.81 C 113.19 21.33 113.36 18.82 113.39 16.30 C 111.70 17.00 110.03 17.75 108.37 18.52 C 107.67 17.83 106.97 17.15 106.28 16.46 C 104.31 16.92 102.35 17.44 100.40 17.98 M 82.80 32.72 C 82.91 35.23 83.20 37.90 82.04 40.23 C 79.78 45.44 77.25 50.54 74.46 55.49 C 74.93 56.34 75.42 57.18 75.91 58.01 C 79.18 49.86 85.34 42.74 86.05 33.68 C 84.97 33.34 83.89 33.02 82.80 32.72 M 113.21 86.36 C 113.17 86.93 113.09 88.08 113.06 88.65 C 114.18 89.06 115.53 86.91 115.15 85.93 C 114.66 86.04 113.69 86.25 113.21 86.36 M 131.03 88.26 C 130.04 91.21 128.39 94.13 129.19 97.34 C 130.54 94.62 133.25 91.21 131.03 88.26 M 95.58 91.21 C 99.98 94.21 105.56 94.46 110.58 95.80 C 109.37 94.60 108.43 92.83 106.57 92.63 C 102.96 91.83 99.29 91.15 95.58 91.21 M 111.73 96.93 C 112.27 101.37 114.86 105.39 113.92 110.04 C 112.36 110.88 110.82 111.76 109.30 112.67 C 106.89 112.58 104.47 112.54 102.07 112.81 C 105.77 115.63 110.41 113.44 114.25 112.12 C 117.54 111.83 121.02 111.44 123.62 109.18 C 121.13 109.82 118.73 110.76 116.30 111.62 C 115.98 106.54 115.41 100.79 111.73 96.93 M 85.64 102.43 C 86.45 106.94 88.53 111.05 90.43 115.18 C 90.65 110.56 89.42 105.42 85.64 102.43 M 91.60 105.20 C 93.22 109.55 95.34 114.45 99.64 116.74 C 98.02 112.33 94.64 108.72 91.60 105.20 M 109.69 120.12 C 111.15 120.85 112.16 118.39 111.45 117.34 C 110.12 116.87 108.79 119.07 109.69 120.12 M 93.13 122.26 C 92.97 122.60 92.64 123.29 92.47 123.63 C 92.89 123.84 93.74 124.27 94.16 124.49 C 95.81 124.17 97.46 123.86 99.09 123.47 C 100.55 124.38 102.04 125.26 103.81 125.41 C 102.37 123.77 100.72 122.35 99.12 120.87 C 97.22 121.70 95.18 122.03 93.13 122.26 M 112.91 122.89 C 111.13 124.38 109.85 126.35 108.27 128.03 C 111.27 125.83 115.23 125.43 117.95 122.90 C 116.28 122.83 114.57 122.59 112.91 122.89 M 118.66 124.13 C 118.29 128.71 118.53 133.34 117.65 137.87 C 115.65 137.11 113.67 136.28 111.62 135.68 C 112.88 137.40 114.64 138.40 116.80 138.30 C 116.98 138.89 117.33 140.07 117.50 140.66 C 120.51 135.72 121.13 129.42 118.66 124.13 M 95.44 127.90 C 94.38 127.86 93.32 127.83 92.27 127.79 C 92.44 128.08 92.77 128.67 92.94 128.96 C 96.66 128.77 100.06 130.22 103.46 131.52 C 101.75 129.58 99.80 127.89 97.82 126.24 C 97.02 126.79 96.23 127.34 95.44 127.90 M 97.79 134.77 C 99.42 136.38 101.58 136.96 103.80 137.19 C 102.17 135.74 100.36 134.53 98.57 133.29 C 98.38 133.66 97.99 134.40 97.79 134.77 M 105.30 133.34 C 103.99 133.97 103.98 134.64 105.26 135.36 C 106.58 134.71 106.60 134.03 105.30 133.34 M 105.74 136.25 C 107.81 138.24 109.57 140.90 112.58 141.51 C 111.90 140.52 111.21 139.55 110.50 138.59 C 110.86 135.89 107.28 136.99 105.74 136.25 Z" />
<path fill="#FFFFFF" opacity="1.00" d=" M 87.78 18.72 C 91.10 21.93 93.85 26.20 92.64 31.02 C 90.94 30.64 89.28 30.11 87.66 29.49 C 88.44 28.02 89.24 26.56 90.04 25.11 C 88.01 26.37 86.03 28.70 83.40 27.58 C 81.90 27.53 82.83 25.43 82.51 24.47 C 84.46 24.21 87.10 25.11 88.07 22.78 C 89.38 21.67 87.89 20.05 87.78 18.72 Z" />
<path fill="#FFFFFF" opacity="1.00" d=" M 104.03 18.17 C 105.27 18.93 106.49 19.71 107.71 20.51 C 108.97 20.36 110.24 20.21 111.50 20.06 C 109.93 23.04 110.81 28.28 106.78 29.07 C 106.76 27.12 106.77 25.16 106.81 23.20 C 105.86 21.54 104.91 19.87 104.03 18.17 Z" />
<path fill="#FFFFFF" opacity="1.00" d=" M 100.04 36.00 C 100.94 37.01 101.88 38.00 102.67 39.11 C 102.14 40.72 101.32 42.21 100.60 43.74 C 99.41 41.28 99.00 38.59 100.04 36.00 Z" />
<path fill="#FFFFFF" opacity="1.00" d=" M 105.33 39.43 C 106.28 39.51 107.22 39.64 108.15 39.81 C 107.26 42.80 106.19 45.76 104.36 48.32 C 103.39 50.05 101.63 51.96 102.71 54.03 C 101.02 55.16 98.78 55.90 97.86 57.84 C 94.71 64.80 93.48 72.38 91.85 79.79 C 90.84 77.62 89.84 75.46 88.75 73.34 C 89.38 69.86 89.14 66.19 90.66 62.91 C 92.78 57.96 92.63 52.49 92.54 47.22 C 92.68 47.24 92.95 47.27 93.09 47.29 C 94.07 50.56 95.50 55.92 99.73 55.78 C 98.45 53.44 96.58 51.44 95.49 49.00 C 95.13 46.70 95.24 44.37 95.20 42.05 C 96.06 41.78 96.92 41.52 97.79 41.26 C 98.63 43.70 99.61 46.15 99.64 48.79 C 100.16 49.05 101.20 49.57 101.72 49.83 C 100.54 45.85 103.11 42.41 105.33 39.43 M 100.27 53.77 C 101.46 53.31 101.66 52.49 100.87 51.32 C 99.57 51.68 99.37 52.50 100.27 53.77 Z" />
<path fill="#FFFFFF" opacity="1.00" d=" M 109.81 41.19 C 115.44 44.30 115.82 51.51 120.51 55.50 C 122.27 57.49 124.99 59.19 125.40 61.98 C 123.74 67.21 124.01 72.71 123.96 78.13 C 124.04 80.98 121.99 83.24 120.52 85.46 C 120.58 78.90 124.15 72.40 122.17 65.83 C 121.45 63.39 121.14 60.85 120.44 58.42 C 118.53 55.38 115.32 53.48 112.70 51.11 C 112.65 51.54 112.54 52.41 112.48 52.84 C 111.62 52.56 109.91 52.02 109.05 51.74 C 107.35 52.09 105.64 52.41 103.93 52.72 C 106.38 49.14 108.63 45.39 109.81 41.19 Z" />
<path fill="#FFFFFF" opacity="1.00" d=" M 101.03 57.00 C 104.58 53.51 109.84 53.49 114.48 53.58 C 117.73 55.75 120.02 59.08 120.15 63.08 C 122.01 69.50 121.05 76.27 118.94 82.49 C 117.94 82.91 116.94 83.34 115.94 83.77 C 113.08 82.80 110.13 81.99 107.45 80.58 C 105.74 79.19 105.13 76.98 103.91 75.24 C 102.38 73.89 100.68 72.76 99.15 71.41 C 99.60 69.91 100.13 68.43 100.47 66.89 C 99.83 67.17 98.54 67.71 97.89 67.98 C 95.41 70.00 98.97 73.34 100.33 75.28 C 99.90 78.26 99.47 81.26 98.59 84.15 C 97.31 84.77 96.03 85.39 94.75 86.01 C 93.83 85.28 92.90 84.55 91.98 83.82 C 92.08 83.26 92.29 82.13 92.39 81.56 C 95.09 77.55 95.11 72.47 96.50 67.97 C 96.84 67.67 97.50 67.09 97.84 66.79 C 98.10 63.37 98.26 59.48 101.03 57.00 Z" />
<path fill="#FFFFFF" opacity="1.00" d=" M 116.02 150.79 C 119.43 149.85 122.88 149.06 126.22 147.89 C 127.37 149.51 129.26 150.83 129.56 152.92 C 129.54 155.03 128.82 157.05 128.33 159.09 C 130.33 163.65 132.69 168.17 133.30 173.18 C 133.53 175.24 134.67 177.00 135.89 178.62 C 131.87 180.23 129.07 183.86 124.92 185.21 C 120.98 186.99 116.85 184.77 112.90 184.19 C 114.21 180.91 117.82 180.70 120.64 179.56 C 122.46 177.33 123.31 174.49 123.91 171.73 C 122.13 173.61 120.86 175.87 119.44 178.02 C 117.14 179.02 114.59 179.35 112.33 180.46 C 111.16 183.10 112.58 187.04 109.54 188.68 C 105.53 190.82 100.40 191.97 96.13 189.91 C 94.61 189.30 93.13 188.61 91.64 187.96 C 91.63 186.07 91.61 184.19 91.54 182.31 C 89.35 182.98 88.81 185.29 87.77 187.04 C 87.33 186.47 86.45 185.34 86.01 184.77 C 89.24 180.08 88.68 174.15 90.85 169.05 C 91.50 164.70 91.27 160.16 89.96 155.94 C 89.26 153.68 90.52 151.49 91.07 149.36 C 91.68 149.34 92.90 149.31 93.52 149.29 C 93.42 148.58 93.23 147.15 93.14 146.44 C 95.85 147.99 98.62 149.86 101.89 149.82 C 106.63 149.83 111.29 152.09 116.02 150.79 M 110.01 153.47 C 105.35 153.55 100.98 151.78 96.54 150.64 C 95.26 153.24 94.25 155.99 93.82 158.87 C 94.15 159.08 94.79 159.50 95.11 159.70 C 95.60 157.14 96.41 154.66 97.43 152.27 C 99.36 152.95 101.28 153.66 103.16 154.47 C 101.18 159.01 96.54 160.81 92.94 163.70 C 97.99 163.52 103.07 159.88 104.46 154.89 C 108.67 155.47 112.98 155.64 117.16 154.75 C 120.69 153.94 124.68 153.28 126.78 149.96 C 121.40 151.91 115.79 153.61 110.01 153.47 M 104.62 163.41 C 109.70 162.64 114.54 160.71 119.67 160.24 C 119.96 159.74 120.53 158.73 120.81 158.23 C 115.31 159.31 109.00 159.53 104.62 163.41 M 121.23 159.21 C 122.48 159.80 124.89 160.00 125.61 158.63 C 124.65 157.70 120.94 157.24 121.23 159.21 M 112.10 165.24 C 110.35 166.09 109.47 167.85 108.52 169.44 C 106.37 169.65 104.22 169.93 102.10 170.37 C 106.57 172.43 111.30 170.02 115.92 170.11 C 120.30 169.82 125.51 170.00 128.44 166.11 C 122.55 167.76 116.28 168.95 110.24 168.77 C 114.48 164.03 121.79 163.73 126.72 159.85 C 121.51 160.47 116.60 162.63 112.10 165.24 Z" />
<path fill="#FFFFFF" opacity="1.00" d=" M 118.44 187.48 C 124.32 188.50 130.00 185.31 134.39 181.68 C 134.76 185.84 134.98 190.01 135.04 194.19 C 131.72 195.08 132.65 199.73 129.93 201.34 C 127.11 200.90 126.14 197.82 124.72 195.77 C 125.39 198.22 125.63 201.35 128.09 202.77 C 131.63 203.20 133.08 199.43 134.68 197.02 C 135.60 199.56 136.83 202.26 135.93 205.00 C 134.28 211.86 134.39 219.05 135.88 225.93 C 136.05 233.40 135.52 240.92 137.56 248.22 C 141.54 251.64 144.62 255.94 148.50 259.44 C 151.40 262.22 156.54 261.01 158.50 264.94 C 156.69 265.95 154.99 267.18 153.05 267.93 C 148.98 267.86 144.74 267.76 141.16 265.58 C 136.67 263.17 131.00 266.73 126.78 263.90 C 126.06 259.41 126.71 254.48 128.27 250.17 C 128.23 246.07 128.54 241.96 128.08 237.88 C 127.65 234.34 124.83 231.63 124.37 228.10 C 123.75 223.30 122.35 218.31 124.31 213.61 L 125.55 217.37 C 128.68 212.73 122.99 208.81 123.09 204.07 C 123.33 199.19 120.30 195.23 117.75 191.39 C 116.56 189.55 114.72 188.30 112.96 187.06 C 113.84 183.49 116.52 187.27 118.44 187.48 M 131.77 259.56 C 131.39 256.59 130.91 253.63 130.39 250.68 C 128.80 253.74 129.29 257.12 131.77 259.56 Z" />
<path fill="#FFFFFF" opacity="1.00" d=" M 90.68 189.67 C 93.40 190.73 95.94 192.33 98.82 192.96 C 102.38 193.26 105.84 192.19 109.28 191.47 C 108.68 196.02 108.15 200.79 105.81 204.84 C 101.24 212.01 100.58 220.88 96.16 228.14 C 94.18 232.34 93.65 237.12 94.28 241.70 C 96.32 239.61 95.87 236.56 96.14 233.92 C 96.35 231.22 97.64 228.78 98.77 226.38 C 99.01 229.60 99.54 232.87 98.98 236.09 C 98.29 239.54 96.20 242.56 95.78 246.08 C 94.69 254.12 95.30 262.97 100.28 269.70 C 102.67 275.15 107.29 279.05 110.14 284.21 C 108.93 284.54 107.71 284.84 106.50 285.14 C 105.67 283.91 104.94 282.61 103.94 281.51 C 100.61 281.68 97.28 282.06 93.94 282.00 C 93.78 282.38 93.47 283.13 93.31 283.50 C 96.61 283.84 99.91 283.76 103.21 283.46 C 103.70 283.91 104.69 284.80 105.18 285.24 C 101.28 288.53 94.52 287.99 91.91 283.40 C 90.64 277.37 87.63 271.89 86.25 265.89 C 86.49 262.91 87.40 259.99 87.10 256.98 C 86.94 249.78 83.38 243.17 83.09 236.01 C 83.51 230.95 85.22 226.07 87.32 221.48 C 88.31 223.99 89.23 226.53 90.09 229.10 C 90.57 229.24 91.53 229.53 92.01 229.68 C 90.22 224.56 88.50 219.37 88.02 213.94 C 87.98 209.77 90.00 206.00 91.20 202.11 C 91.66 197.97 90.80 193.81 90.68 189.67 M 93.88 204.98 C 93.73 206.80 93.58 208.64 93.78 210.47 C 94.11 209.59 94.76 207.82 95.09 206.94 C 96.86 206.51 98.63 206.05 100.39 205.53 C 100.98 206.31 102.16 207.86 102.75 208.64 C 102.23 206.77 101.64 204.96 101.04 203.13 C 98.77 204.14 96.36 204.75 93.88 204.98 M 95.81 216.05 C 96.64 216.04 98.29 216.01 99.11 216.00 C 99.24 215.62 99.50 214.86 99.63 214.48 C 98.33 214.28 97.02 214.08 95.72 213.89 C 95.75 214.61 95.78 215.33 95.81 216.05 M 88.56 267.81 C 92.07 266.25 93.18 262.44 94.77 259.30 C 91.15 260.56 90.16 264.74 88.56 267.81 Z" />
</g>
<g id="#454645ff">
<path fill="#333333" opacity="1.00" d=" M 100.40 17.98 C 102.35 17.44 104.31 16.92 106.28 16.46 C 106.97 17.15 107.67 17.83 108.37 18.52 C 110.03 17.75 111.70 17.00 113.39 16.30 C 113.36 18.82 113.19 21.33 112.74 23.81 C 115.71 25.48 116.16 28.73 116.76 31.75 C 120.09 35.17 124.53 37.05 128.64 39.32 C 134.79 42.76 138.72 49.32 140.10 56.07 C 140.48 56.35 141.24 56.91 141.62 57.19 C 141.63 57.74 141.67 58.84 141.69 59.39 C 144.24 62.22 143.20 66.20 142.68 69.56 C 141.29 74.69 143.41 80.28 141.07 85.19 C 138.93 90.00 136.89 94.86 134.45 99.53 C 131.99 105.42 134.66 112.39 131.22 117.97 C 130.15 124.38 131.12 131.37 127.37 137.06 C 127.93 141.04 126.87 145.87 130.01 148.96 C 132.60 151.49 130.96 155.18 130.28 158.15 C 131.72 163.35 134.73 168.06 135.33 173.50 C 135.48 175.22 136.85 176.39 137.86 177.66 C 137.92 178.24 138.02 179.41 138.07 180.00 C 137.19 180.43 136.31 180.86 135.43 181.29 C 136.07 185.78 136.42 190.32 136.25 194.86 C 135.98 198.33 138.98 201.41 137.64 204.92 C 136.70 207.90 136.75 210.99 136.76 214.07 C 136.15 218.79 138.23 223.30 138.02 228.01 C 138.27 234.63 137.15 241.67 139.83 247.91 C 144.30 251.21 147.10 256.44 152.10 259.02 C 154.75 259.75 157.93 259.83 159.34 262.65 C 160.83 263.88 159.58 265.52 159.17 266.95 C 156.74 267.89 154.40 269.03 151.94 269.89 C 149.53 269.74 147.15 269.16 144.73 269.44 C 142.44 268.39 140.25 267.12 137.86 266.34 C 134.96 265.68 132.04 267.10 129.13 266.62 C 127.46 266.25 126.00 265.33 124.49 264.57 C 122.95 256.13 128.64 248.25 126.49 239.85 C 125.87 235.08 122.51 231.36 121.14 226.85 C 120.96 221.53 121.54 216.19 122.79 211.01 C 121.86 209.09 120.69 207.27 120.09 205.22 C 119.57 202.36 120.12 199.13 118.25 196.68 C 116.37 193.91 114.68 191.02 113.24 188.00 C 112.39 188.93 111.53 189.86 110.68 190.79 C 110.37 196.00 109.97 201.53 107.05 206.02 C 104.64 209.64 103.83 214.01 102.25 218.01 C 99.83 224.42 101.89 231.35 100.70 237.91 C 97.27 246.30 96.04 256.18 99.34 264.79 C 101.98 268.81 103.81 273.40 107.23 276.87 C 109.34 279.29 111.15 282.08 111.37 285.39 C 109.85 286.27 108.22 286.92 106.53 287.39 C 100.35 291.82 88.31 288.79 88.35 280.14 C 87.84 277.37 85.92 275.02 85.84 272.16 C 85.77 269.80 85.10 267.54 84.45 265.29 C 85.16 261.60 85.68 257.78 85.14 254.03 C 84.41 247.47 81.22 241.27 81.71 234.57 C 82.36 229.80 84.08 225.26 85.63 220.73 C 86.40 217.21 86.30 213.55 86.97 210.01 C 87.36 206.89 88.83 204.05 89.30 200.95 C 89.15 196.78 88.58 192.60 89.17 188.43 C 86.54 190.08 85.20 186.63 83.46 185.30 C 84.65 182.94 86.84 180.92 86.86 178.12 C 86.97 172.66 89.58 167.54 89.10 162.05 C 88.90 159.01 87.53 156.08 87.98 153.00 C 89.15 150.58 90.96 148.55 92.38 146.28 C 91.74 141.96 91.17 137.63 90.69 133.28 C 87.31 130.84 86.07 126.74 83.68 123.50 C 82.10 121.31 81.34 118.70 80.56 116.15 C 71.84 148.54 62.21 180.68 53.27 213.01 C 52.94 214.66 51.89 216.01 50.67 217.13 C 50.74 213.99 51.75 211.00 52.61 208.02 C 61.68 176.34 70.56 144.62 79.70 112.97 C 78.12 109.19 78.96 105.04 78.50 101.08 C 78.54 97.95 76.65 95.36 75.43 92.62 C 73.18 87.80 71.49 82.45 72.51 77.09 C 73.59 70.36 71.25 63.22 74.10 56.81 C 76.36 59.79 75.05 63.58 75.26 67.01 C 75.39 71.69 74.09 76.27 74.30 80.95 C 74.89 85.67 76.03 90.40 78.47 94.53 C 80.72 98.36 83.29 102.21 83.78 106.75 C 82.99 106.00 81.41 104.51 80.62 103.77 C 79.66 109.20 82.48 113.87 84.03 118.84 C 85.24 122.13 87.36 125.00 88.45 128.35 C 90.09 129.38 91.69 130.51 93.24 131.68 C 93.68 136.17 93.67 140.73 94.60 145.16 C 97.97 147.94 102.42 147.70 106.52 147.79 C 105.03 144.85 103.18 141.93 103.04 138.53 C 106.51 140.68 106.42 145.10 106.84 148.68 C 113.48 149.12 120.53 148.34 126.35 144.90 C 126.43 142.97 126.21 141.03 125.73 139.16 L 125.16 138.86 C 123.82 138.16 122.55 137.34 121.27 136.54 C 121.67 136.18 122.48 135.47 122.88 135.11 C 123.69 135.88 124.38 137.27 125.74 136.90 C 128.01 134.62 127.37 131.13 127.98 128.23 L 126.96 128.21 C 126.48 125.90 125.57 123.74 123.63 122.29 C 121.93 122.83 120.22 123.35 118.52 123.92 C 118.27 121.36 117.35 118.97 116.14 116.73 C 116.77 116.65 118.04 116.49 118.68 116.41 C 118.36 118.51 118.90 120.56 119.50 122.56 C 121.55 121.53 123.68 120.54 126.04 120.63 C 126.11 121.91 126.17 123.19 126.23 124.47 C 126.93 124.56 128.32 124.74 129.01 124.84 C 129.73 122.10 129.34 119.33 128.46 116.69 C 129.06 116.89 130.26 117.30 130.85 117.50 C 131.88 112.66 131.83 107.71 132.01 102.80 C 133.52 100.83 132.52 98.06 134.04 96.09 C 136.89 91.58 139.70 86.89 140.90 81.63 C 141.58 78.75 140.22 75.91 140.19 73.04 C 140.63 69.69 141.27 66.36 141.77 63.01 C 141.76 58.60 138.61 55.20 136.88 51.39 C 134.86 47.22 131.63 43.77 127.94 41.02 C 124.02 38.16 119.03 36.88 115.74 33.15 C 115.96 29.89 114.38 27.33 111.68 25.59 C 111.46 27.18 111.26 28.78 111.07 30.37 C 108.91 30.66 106.73 30.57 104.69 29.75 C 104.85 27.67 105.02 25.59 105.12 23.50 C 102.99 24.09 101.64 25.73 100.62 27.57 C 101.46 30.47 102.15 33.40 102.72 36.36 C 105.01 36.76 107.29 37.23 109.56 37.78 C 111.42 40.12 113.77 42.02 115.71 44.30 C 118.05 46.84 118.50 50.55 120.95 53.02 C 123.25 55.75 126.63 57.65 128.18 60.95 C 127.70 64.16 124.28 66.56 124.94 70.12 C 125.76 75.39 126.52 80.69 125.99 86.05 C 127.39 83.04 130.96 81.52 131.26 77.96 C 131.84 73.34 133.13 68.66 132.14 64.01 C 132.67 62.28 132.75 60.47 132.17 58.74 C 132.75 57.37 133.28 55.98 134.00 54.68 C 135.02 54.52 135.80 55.21 136.70 55.55 C 135.66 56.78 134.62 58.00 133.60 59.25 C 133.84 62.53 133.80 65.82 133.88 69.10 C 133.57 71.76 132.03 74.15 131.92 76.86 C 131.97 78.73 132.25 80.59 132.49 82.44 C 131.47 82.72 130.46 83.01 129.45 83.31 C 127.03 88.29 128.86 93.96 127.60 99.20 C 127.02 101.51 128.53 103.76 128.03 106.08 C 127.57 108.45 127.32 110.96 125.94 113.01 C 125.87 109.71 126.91 106.54 127.22 103.27 C 124.51 100.86 125.95 97.53 126.53 94.56 C 126.09 90.69 125.29 86.84 124.09 83.13 C 123.89 83.98 123.68 84.84 123.49 85.71 C 119.53 88.36 115.29 90.97 112.53 94.95 C 112.09 95.13 111.22 95.48 110.78 95.66 C 112.07 90.90 116.78 88.77 120.30 85.88 C 115.37 85.41 109.98 85.36 105.93 82.08 C 104.34 80.41 103.56 78.19 102.58 76.14 C 101.78 80.44 101.24 85.11 98.18 88.50 C 95.78 88.23 93.36 88.34 90.98 88.71 C 91.29 83.43 88.90 78.60 87.84 73.54 C 86.73 75.81 86.17 78.42 86.93 80.90 C 88.06 84.43 87.63 88.15 87.43 91.79 C 89.20 92.72 89.61 94.19 88.58 95.86 L 88.99 96.92 L 87.83 96.20 C 87.19 97.23 86.50 98.22 85.78 99.19 C 85.76 96.74 86.68 94.41 86.86 91.98 C 86.95 87.80 85.27 83.87 84.51 79.82 C 85.28 76.50 87.99 73.57 86.95 69.94 C 85.83 69.08 84.76 68.16 83.72 67.21 C 84.43 66.94 85.86 66.41 86.58 66.14 C 89.41 61.26 90.71 55.64 90.56 50.02 C 90.39 46.31 92.55 43.11 93.21 39.55 C 94.42 39.18 95.64 38.79 96.85 38.42 C 97.75 37.00 98.64 35.58 99.53 34.15 C 98.61 31.31 97.21 28.68 95.65 26.15 C 95.45 29.34 94.17 32.48 91.01 33.73 C 89.73 33.06 88.57 32.21 87.36 31.43 C 86.18 31.84 85.00 32.21 83.80 32.58 C 84.57 29.42 80.39 28.84 80.03 26.08 C 80.70 24.37 81.75 22.86 82.73 21.32 C 83.66 21.74 84.60 22.17 85.54 22.59 C 85.75 22.36 86.18 21.88 86.39 21.65 C 85.67 20.21 84.97 18.77 84.30 17.31 C 86.24 17.42 88.18 17.58 90.12 17.74 C 91.65 19.98 93.07 22.29 94.39 24.66 C 94.71 24.39 95.34 23.87 95.66 23.60 C 96.84 25.06 98.02 26.51 99.19 27.97 C 99.87 25.32 101.09 22.86 103.96 22.10 C 102.74 20.76 101.54 19.39 100.40 17.98 M 87.78 18.72 C 87.89 20.05 89.38 21.67 88.07 22.78 C 87.10 25.11 84.46 24.21 82.51 24.47 C 82.83 25.43 81.90 27.53 83.40 27.58 C 86.03 28.70 88.01 26.37 90.04 25.11 C 89.24 26.56 88.44 28.02 87.66 29.49 C 89.28 30.11 90.94 30.64 92.64 31.02 C 93.85 26.20 91.10 21.93 87.78 18.72 M 104.03 18.17 C 104.91 19.87 105.86 21.54 106.81 23.20 C 106.77 25.16 106.76 27.12 106.78 29.07 C 110.81 28.28 109.93 23.04 111.50 20.06 C 110.24 20.21 108.97 20.36 107.71 20.51 C 106.49 19.71 105.27 18.93 104.03 18.17 M 100.04 36.00 C 99.00 38.59 99.41 41.28 100.60 43.74 C 101.32 42.21 102.14 40.72 102.67 39.11 C 101.88 38.00 100.94 37.01 100.04 36.00 M 105.33 39.43 C 103.11 42.41 100.54 45.85 101.72 49.83 C 101.20 49.57 100.16 49.05 99.64 48.79 C 99.61 46.15 98.63 43.70 97.79 41.26 C 96.92 41.52 96.06 41.78 95.20 42.05 C 95.24 44.37 95.13 46.70 95.49 49.00 C 96.58 51.44 98.45 53.44 99.73 55.78 C 95.50 55.92 94.07 50.56 93.09 47.29 C 92.95 47.27 92.68 47.24 92.54 47.22 C 92.63 52.49 92.78 57.96 90.66 62.91 C 89.14 66.19 89.38 69.86 88.75 73.34 C 89.84 75.46 90.84 77.62 91.85 79.79 C 93.48 72.38 94.71 64.80 97.86 57.84 C 98.78 55.90 101.02 55.16 102.71 54.03 C 101.63 51.96 103.39 50.05 104.36 48.32 C 106.19 45.76 107.26 42.80 108.15 39.81 C 107.22 39.64 106.28 39.51 105.33 39.43 M 109.81 41.19 C 108.63 45.39 106.38 49.14 103.93 52.72 C 105.64 52.41 107.35 52.09 109.05 51.74 C 109.91 52.02 111.62 52.56 112.48 52.84 C 112.54 52.41 112.65 51.54 112.70 51.11 C 115.32 53.48 118.53 55.38 120.44 58.42 C 121.14 60.85 121.45 63.39 122.17 65.83 C 124.15 72.40 120.58 78.90 120.52 85.46 C 121.99 83.24 124.04 80.98 123.96 78.13 C 124.01 72.71 123.74 67.21 125.40 61.98 C 124.99 59.19 122.27 57.49 120.51 55.50 C 115.82 51.51 115.44 44.30 109.81 41.19 M 101.03 57.00 C 98.26 59.48 98.10 63.37 97.84 66.79 C 97.50 67.09 96.84 67.67 96.50 67.97 C 95.11 72.47 95.09 77.55 92.39 81.56 C 92.29 82.13 92.08 83.26 91.98 83.82 C 92.90 84.55 93.83 85.28 94.75 86.01 C 96.03 85.39 97.31 84.77 98.59 84.15 C 99.47 81.26 99.90 78.26 100.33 75.28 C 98.97 73.34 95.41 70.00 97.89 67.98 C 98.54 67.71 99.83 67.17 100.47 66.89 C 100.13 68.43 99.60 69.91 99.15 71.41 C 100.68 72.76 102.38 73.89 103.91 75.24 C 105.13 76.98 105.74 79.19 107.45 80.58 C 110.13 81.99 113.08 82.80 115.94 83.77 C 116.94 83.34 117.94 82.91 118.94 82.49 C 121.05 76.27 122.01 69.50 120.15 63.08 C 120.02 59.08 117.73 55.75 114.48 53.58 C 109.84 53.49 104.58 53.51 101.03 57.00 M 116.02 150.79 C 111.29 152.09 106.63 149.83 101.89 149.82 C 98.62 149.86 95.85 147.99 93.14 146.44 C 93.23 147.15 93.42 148.58 93.52 149.29 C 92.90 149.31 91.68 149.34 91.07 149.36 C 90.52 151.49 89.26 153.68 89.96 155.94 C 91.27 160.16 91.50 164.70 90.85 169.05 C 88.68 174.15 89.24 180.08 86.01 184.77 C 86.45 185.34 87.33 186.47 87.77 187.04 C 88.81 185.29 89.35 182.98 91.54 182.31 C 91.61 184.19 91.63 186.07 91.64 187.96 C 93.13 188.61 94.61 189.30 96.13 189.91 C 100.40 191.97 105.53 190.82 109.54 188.68 C 112.58 187.04 111.16 183.10 112.33 180.46 C 114.59 179.35 117.14 179.02 119.44 178.02 C 120.86 175.87 122.13 173.61 123.91 171.73 C 123.31 174.49 122.46 177.33 120.64 179.56 C 117.82 180.70 114.21 180.91 112.90 184.19 C 116.85 184.77 120.98 186.99 124.92 185.21 C 129.07 183.86 131.87 180.23 135.89 178.62 C 134.67 177.00 133.53 175.24 133.30 173.18 C 132.69 168.17 130.33 163.65 128.33 159.09 C 128.82 157.05 129.54 155.03 129.56 152.92 C 129.26 150.83 127.37 149.51 126.22 147.89 C 122.88 149.06 119.43 149.85 116.02 150.79 M 118.44 187.48 C 116.52 187.27 113.84 183.49 112.96 187.06 C 114.72 188.30 116.56 189.55 117.75 191.39 C 120.30 195.23 123.33 199.19 123.09 204.07 C 122.99 208.81 128.68 212.73 125.55 217.37 L 124.31 213.61 C 122.35 218.31 123.75 223.30 124.37 228.10 C 124.83 231.63 127.65 234.34 128.08 237.88 C 128.54 241.96 128.23 246.07 128.27 250.17 C 126.71 254.48 126.06 259.41 126.78 263.90 C 131.00 266.73 136.67 263.17 141.16 265.58 C 144.74 267.76 148.98 267.86 153.05 267.93 C 154.99 267.18 156.69 265.95 158.50 264.94 C 156.54 261.01 151.40 262.22 148.50 259.44 C 144.62 255.94 141.54 251.64 137.56 248.22 C 135.52 240.92 136.05 233.40 135.88 225.93 C 134.39 219.05 134.28 211.86 135.93 205.00 C 136.83 202.26 135.60 199.56 134.68 197.02 C 133.08 199.43 131.63 203.20 128.09 202.77 C 125.63 201.35 125.39 198.22 124.72 195.77 C 126.14 197.82 127.11 200.90 129.93 201.34 C 132.65 199.73 131.72 195.08 135.04 194.19 C 134.98 190.01 134.76 185.84 134.39 181.68 C 130.00 185.31 124.32 188.50 118.44 187.48 M 90.68 189.67 C 90.80 193.81 91.66 197.97 91.20 202.11 C 90.00 206.00 87.98 209.77 88.02 213.94 C 88.50 219.37 90.22 224.56 92.01 229.68 C 91.53 229.53 90.57 229.24 90.09 229.10 C 89.23 226.53 88.31 223.99 87.32 221.48 C 85.22 226.07 83.51 230.95 83.09 236.01 C 83.38 243.17 86.94 249.78 87.10 256.98 C 87.40 259.99 86.49 262.91 86.25 265.89 C 87.63 271.89 90.64 277.37 91.91 283.40 C 94.52 287.99 101.28 288.53 105.18 285.24 C 104.69 284.80 103.70 283.91 103.21 283.46 C 99.91 283.76 96.61 283.84 93.31 283.50 C 93.47 283.13 93.78 282.38 93.94 282.00 C 97.28 282.06 100.61 281.68 103.94 281.51 C 104.94 282.61 105.67 283.91 106.50 285.14 C 107.71 284.84 108.93 284.54 110.14 284.21 C 107.29 279.05 102.67 275.15 100.28 269.70 C 95.30 262.97 94.69 254.12 95.78 246.08 C 96.20 242.56 98.29 239.54 98.98 236.09 C 99.54 232.87 99.01 229.60 98.77 226.38 C 97.64 228.78 96.35 231.22 96.14 233.92 C 95.87 236.56 96.32 239.61 94.28 241.70 C 93.65 237.12 94.18 232.34 96.16 228.14 C 100.58 220.88 101.24 212.01 105.81 204.84 C 108.15 200.79 108.68 196.02 109.28 191.47 C 105.84 192.19 102.38 193.26 98.82 192.96 C 95.94 192.33 93.40 190.73 90.68 189.67 Z" />
<path fill="#333333" opacity="1.00" d=" M 82.80 32.72 C 83.89 33.02 84.97 33.34 86.05 33.68 C 85.34 42.74 79.18 49.86 75.91 58.01 C 75.42 57.18 74.93 56.34 74.46 55.49 C 77.25 50.54 79.78 45.44 82.04 40.23 C 83.20 37.90 82.91 35.23 82.80 32.72 Z" />
<path fill="#333333" opacity="1.00" d=" M 100.27 53.77 C 99.37 52.50 99.57 51.68 100.87 51.32 C 101.66 52.49 101.46 53.31 100.27 53.77 Z" />
<path fill="#333333" opacity="1.00" d=" M 113.21 86.36 C 113.69 86.25 114.66 86.04 115.15 85.93 C 115.53 86.91 114.18 89.06 113.06 88.65 C 113.09 88.08 113.17 86.93 113.21 86.36 Z" />
<path fill="#333333" opacity="1.00" d=" M 131.03 88.26 C 133.25 91.21 130.54 94.62 129.19 97.34 C 128.39 94.13 130.04 91.21 131.03 88.26 Z" />
<path fill="#333333" opacity="1.00" d=" M 95.58 91.21 C 99.29 91.15 102.96 91.83 106.57 92.63 C 108.43 92.83 109.37 94.60 110.58 95.80 C 105.56 94.46 99.98 94.21 95.58 91.21 Z" />
<path fill="#333333" opacity="1.00" d=" M 111.73 96.93 C 115.41 100.79 115.98 106.54 116.30 111.62 C 118.73 110.76 121.13 109.82 123.62 109.18 C 121.02 111.44 117.54 111.83 114.25 112.12 C 110.41 113.44 105.77 115.63 102.07 112.81 C 104.47 112.54 106.89 112.58 109.30 112.67 C 110.82 111.76 112.36 110.88 113.92 110.04 C 114.86 105.39 112.27 101.37 111.73 96.93 Z" />
<path fill="#333333" opacity="1.00" d=" M 85.64 102.43 C 89.42 105.42 90.65 110.56 90.43 115.18 C 88.53 111.05 86.45 106.94 85.64 102.43 Z" />
<path fill="#333333" opacity="1.00" d=" M 91.60 105.20 C 94.64 108.72 98.02 112.33 99.64 116.74 C 95.34 114.45 93.22 109.55 91.60 105.20 Z" />
<path fill="#333333" opacity="1.00" d=" M 109.69 120.12 C 108.79 119.07 110.12 116.87 111.45 117.34 C 112.16 118.39 111.15 120.85 109.69 120.12 Z" />
<path fill="#333333" opacity="1.00" d=" M 93.13 122.26 C 95.18 122.03 97.22 121.70 99.12 120.87 C 100.72 122.35 102.37 123.77 103.81 125.41 C 102.04 125.26 100.55 124.38 99.09 123.47 C 97.46 123.86 95.81 124.17 94.16 124.49 C 93.74 124.27 92.89 123.84 92.47 123.63 C 92.64 123.29 92.97 122.60 93.13 122.26 Z" />
<path fill="#333333" opacity="1.00" d=" M 112.91 122.89 C 114.57 122.59 116.28 122.83 117.95 122.90 C 115.23 125.43 111.27 125.83 108.27 128.03 C 109.85 126.35 111.13 124.38 112.91 122.89 Z" />
<path fill="#333333" opacity="1.00" d=" M 118.66 124.13 C 121.13 129.42 120.51 135.72 117.50 140.66 C 117.33 140.07 116.98 138.89 116.80 138.30 C 114.64 138.40 112.88 137.40 111.62 135.68 C 113.67 136.28 115.65 137.11 117.65 137.87 C 118.53 133.34 118.29 128.71 118.66 124.13 Z" />
<path fill="#333333" opacity="1.00" d=" M 95.44 127.90 C 96.23 127.34 97.02 126.79 97.82 126.24 C 99.80 127.89 101.75 129.58 103.46 131.52 C 100.06 130.22 96.66 128.77 92.94 128.96 C 92.77 128.67 92.44 128.08 92.27 127.79 C 93.32 127.83 94.38 127.86 95.44 127.90 Z" />
<path fill="#333333" opacity="1.00" d=" M 97.79 134.77 C 97.99 134.40 98.38 133.66 98.57 133.29 C 100.36 134.53 102.17 135.74 103.80 137.19 C 101.58 136.96 99.42 136.38 97.79 134.77 Z" />
<path fill="#333333" opacity="1.00" d=" M 105.30 133.34 C 106.60 134.03 106.58 134.71 105.26 135.36 C 103.98 134.64 103.99 133.97 105.30 133.34 Z" />
<path fill="#333333" opacity="1.00" d=" M 105.74 136.25 C 107.28 136.99 110.86 135.89 110.50 138.59 C 111.21 139.55 111.90 140.52 112.58 141.51 C 109.57 140.90 107.81 138.24 105.74 136.25 Z" />
<path fill="#333333" opacity="1.00" d=" M 110.01 153.47 C 115.79 153.61 121.40 151.91 126.78 149.96 C 124.68 153.28 120.69 153.94 117.16 154.75 C 112.98 155.64 108.67 155.47 104.46 154.89 C 103.07 159.88 97.99 163.52 92.94 163.70 C 96.54 160.81 101.18 159.01 103.16 154.47 C 101.28 153.66 99.36 152.95 97.43 152.27 C 96.41 154.66 95.60 157.14 95.11 159.70 C 94.79 159.50 94.15 159.08 93.82 158.87 C 94.25 155.99 95.26 153.24 96.54 150.64 C 100.98 151.78 105.35 153.55 110.01 153.47 Z" />
<path fill="#333333" opacity="1.00" d=" M 104.62 163.41 C 109.00 159.53 115.31 159.31 120.81 158.23 C 120.53 158.73 119.96 159.74 119.67 160.24 C 114.54 160.71 109.70 162.64 104.62 163.41 Z" />
<path fill="#333333" opacity="1.00" d=" M 121.23 159.21 C 120.94 157.24 124.65 157.70 125.61 158.63 C 124.89 160.00 122.48 159.80 121.23 159.21 Z" />
<path fill="#333333" opacity="1.00" d=" M 112.10 165.24 C 116.60 162.63 121.51 160.47 126.72 159.85 C 121.79 163.73 114.48 164.03 110.24 168.77 C 116.28 168.95 122.55 167.76 128.44 166.11 C 125.51 170.00 120.30 169.82 115.92 170.11 C 111.30 170.02 106.57 172.43 102.10 170.37 C 104.22 169.93 106.37 169.65 108.52 169.44 C 109.47 167.85 110.35 166.09 112.10 165.24 Z" />
<path fill="#333333" opacity="1.00" d=" M 93.88 204.98 C 96.36 204.75 98.77 204.14 101.04 203.13 C 101.64 204.96 102.23 206.77 102.75 208.64 C 102.16 207.86 100.98 206.31 100.39 205.53 C 98.63 206.05 96.86 206.51 95.09 206.94 C 94.76 207.82 94.11 209.59 93.78 210.47 C 93.58 208.64 93.73 206.80 93.88 204.98 Z" />
<path fill="#333333" opacity="1.00" d=" M 95.81 216.05 C 95.78 215.33 95.75 214.61 95.72 213.89 C 97.02 214.08 98.33 214.28 99.63 214.48 C 99.50 214.86 99.24 215.62 99.11 216.00 C 98.29 216.01 96.64 216.04 95.81 216.05 Z" />
<path fill="#333333" opacity="1.00" d=" M 131.77 259.56 C 129.29 257.12 128.80 253.74 130.39 250.68 C 130.91 253.63 131.39 256.59 131.77 259.56 Z" />
<path fill="#333333" opacity="1.00" d=" M 88.56 267.81 C 90.16 264.74 91.15 260.56 94.77 259.30 C 93.18 262.44 92.07 266.25 88.56 267.81 Z" />
</g>
</svg>
