<?xml version="1.0" encoding="UTF-8" ?>
<!DOCTYPE svg PUBLIC "-//W3C//DTD SVG 1.1//EN" "http://www.w3.org/Graphics/SVG/1.1/DTD/svg11.dtd">
<svg width="227pt" height="300pt" viewBox="0 0 227 300" version="1.1" xmlns="http://www.w3.org/2000/svg">
<g id="#ffffffff">
<path fill="#FFFFFF" opacity="1.00" d=" M 0.00 0.00 L 227.00 0.00 L 227.00 300.00 L 0.00 300.00 L 0.00 0.00 M 98.58 56.68 C 98.29 56.37 97.73 55.76 97.45 55.46 C 94.98 55.47 91.98 55.75 91.23 58.59 C 92.81 60.59 93.66 63.06 95.40 64.94 C 96.07 62.33 94.78 59.89 94.05 57.46 C 95.19 57.45 96.34 57.45 97.49 57.46 C 96.07 63.34 95.73 70.68 100.36 75.27 C 99.90 78.28 99.54 81.31 98.58 84.21 C 97.38 84.77 96.19 85.33 95.00 85.89 C 95.04 80.92 95.39 75.89 93.88 71.07 C 92.82 69.67 91.68 68.33 90.47 67.05 C 91.22 70.49 92.55 73.77 93.41 77.17 C 93.43 80.81 93.24 84.45 93.16 88.09 C 94.51 88.16 95.86 88.27 97.21 88.40 C 98.52 87.81 99.84 87.26 101.18 86.75 C 99.72 83.28 102.46 79.65 102.61 76.10 C 103.57 78.15 104.33 80.38 105.93 82.05 C 110.00 85.28 115.36 85.72 120.36 85.38 C 119.65 85.48 118.25 85.67 117.54 85.76 L 117.29 87.01 C 119.08 87.11 120.88 87.18 122.67 87.25 C 119.68 89.80 116.08 91.98 114.41 95.72 C 117.07 94.86 118.35 92.15 120.73 90.83 C 122.64 89.32 125.50 88.56 126.05 85.83 C 126.25 85.86 126.64 85.91 126.83 85.94 C 127.18 87.43 127.59 88.90 128.08 90.34 C 129.38 86.94 127.42 83.42 128.26 79.94 C 129.53 72.65 135.43 67.55 138.22 60.91 C 134.13 63.06 132.20 67.57 129.37 71.01 C 127.25 70.54 124.74 69.37 123.30 71.73 C 124.88 72.06 126.47 72.37 128.06 72.67 C 127.15 76.41 125.14 80.20 126.22 84.12 C 125.22 84.98 124.20 85.81 123.20 86.67 C 123.94 84.04 125.09 81.55 125.84 78.92 C 123.22 80.29 122.28 83.25 120.52 85.42 C 120.48 80.92 122.26 76.61 122.62 72.12 C 123.43 68.32 121.49 64.77 121.10 61.06 C 120.82 58.77 120.73 56.02 118.67 54.52 C 114.67 53.10 110.38 52.26 106.13 52.60 C 103.14 52.84 100.99 55.17 98.58 56.68 M 134.11 53.92 C 129.49 54.28 125.31 56.91 122.13 60.14 C 126.42 58.37 130.25 54.90 135.15 55.17 C 137.84 55.35 140.27 53.59 142.92 53.83 C 145.20 56.74 148.14 59.97 147.23 63.99 C 147.48 72.37 144.23 80.36 140.65 87.79 C 138.51 92.40 134.29 95.90 133.03 100.92 C 132.93 106.52 132.23 112.12 130.81 117.54 C 130.22 117.33 129.04 116.91 128.45 116.70 C 129.58 119.61 129.82 122.69 128.60 125.62 C 128.85 127.65 129.05 129.68 129.41 131.69 C 131.06 127.29 130.19 122.45 131.19 117.90 C 134.45 112.93 135.36 106.82 134.88 100.98 C 134.63 98.32 136.47 96.05 138.15 94.19 C 142.37 90.02 144.62 84.39 146.81 78.99 C 149.19 72.93 148.89 66.38 149.77 60.04 C 148.31 57.28 147.39 53.91 144.74 52.03 C 141.04 51.05 137.73 53.70 134.11 53.92 M 79.35 59.42 C 77.77 62.28 76.36 65.27 75.33 68.37 C 74.03 72.03 76.20 75.64 77.11 79.10 C 77.58 78.28 78.03 77.46 78.48 76.63 C 77.76 74.57 77.13 72.48 76.92 70.30 C 77.41 69.53 77.90 68.75 78.39 67.98 C 78.75 69.87 79.10 71.77 79.58 73.64 C 80.42 69.30 79.08 64.72 80.28 60.51 C 82.40 59.43 84.79 59.25 87.12 59.52 C 89.98 62.48 92.26 65.92 95.09 68.90 C 95.06 68.13 95.00 66.59 94.97 65.83 C 92.23 63.15 91.28 58.68 87.14 57.48 C 86.75 57.52 85.96 57.60 85.56 57.64 C 83.44 57.64 80.62 57.30 79.35 59.42 M 132.19 85.67 C 133.42 80.87 135.44 76.35 137.29 71.77 C 132.83 74.71 131.04 80.59 132.19 85.67 M 78.86 91.87 C 77.08 98.40 76.88 105.66 80.64 111.57 C 80.08 115.51 81.29 119.37 83.13 122.81 C 85.21 126.22 85.27 130.75 88.45 133.47 C 91.73 135.74 91.42 140.09 92.86 143.43 C 92.99 148.39 86.81 151.01 88.03 156.04 C 88.42 158.37 89.18 160.64 89.19 163.02 C 89.31 168.18 86.98 172.99 86.88 178.14 C 87.03 180.89 84.57 182.60 83.69 184.98 C 84.99 186.79 86.72 190.39 89.29 188.17 C 88.47 192.39 89.18 196.66 89.35 200.90 C 88.87 204.00 87.39 206.85 86.99 209.98 C 86.32 213.52 86.45 217.17 85.67 220.69 C 84.10 225.24 82.39 229.80 81.72 234.59 C 81.19 242.57 85.70 249.90 85.38 257.88 C 85.30 260.35 84.84 262.78 84.64 265.23 C 84.94 267.54 85.80 269.76 85.84 272.12 C 85.92 275.01 87.90 277.37 88.40 280.17 C 88.32 288.79 100.51 291.88 106.57 287.28 C 108.21 286.94 109.76 286.34 111.15 285.40 C 110.98 284.11 110.82 282.83 110.66 281.55 C 107.83 277.30 104.00 273.77 101.88 269.05 C 95.29 260.10 96.78 247.71 100.67 237.96 C 101.92 231.33 99.81 224.34 102.27 217.87 C 103.90 213.92 104.60 209.55 107.04 205.98 C 109.96 201.51 110.36 196.00 110.65 190.81 C 111.52 189.83 112.38 188.84 113.24 187.84 C 114.64 190.92 116.34 193.84 118.24 196.63 C 120.15 199.08 119.58 202.33 120.10 205.19 C 120.70 207.25 121.89 209.08 122.82 211.01 C 121.54 216.20 120.99 221.56 121.19 226.90 C 122.57 231.42 125.95 235.13 126.53 239.94 C 128.60 248.30 123.00 256.14 124.52 264.54 C 125.99 265.29 127.41 266.21 129.04 266.58 C 131.99 267.09 134.94 265.69 137.88 266.31 C 140.28 267.10 142.47 268.38 144.75 269.43 C 147.90 268.78 151.20 270.82 154.14 269.05 C 156.55 267.98 159.81 267.20 160.25 264.10 C 159.37 262.59 158.31 261.12 156.83 260.16 C 154.25 259.56 151.43 259.34 149.44 257.37 C 146.11 254.35 143.36 250.74 139.82 247.93 C 137.22 242.02 138.24 235.30 138.02 229.00 C 138.32 223.60 135.96 218.41 136.77 213.00 C 136.48 209.95 137.06 206.97 137.79 204.03 C 138.62 200.85 135.90 198.14 136.25 194.99 C 136.41 190.39 136.04 185.80 135.40 181.25 C 136.39 180.79 137.39 180.33 138.38 179.87 C 137.78 177.33 135.55 175.52 135.20 172.91 C 134.53 167.69 131.62 163.16 130.25 158.15 C 130.69 155.79 131.96 153.43 131.20 150.99 C 130.74 149.00 128.39 147.99 128.14 145.91 C 126.81 139.94 128.02 133.79 127.00 127.80 C 126.71 127.63 126.11 127.31 125.81 127.14 C 124.66 130.64 125.69 134.16 126.06 137.69 C 125.29 137.81 124.53 137.94 123.76 138.08 C 124.30 138.12 125.37 138.21 125.90 138.25 C 126.10 140.50 126.31 142.75 126.50 145.00 C 122.35 147.33 117.62 148.10 113.00 148.91 C 109.30 148.84 105.73 147.49 102.00 147.62 C 99.16 147.89 96.71 146.41 94.30 145.18 C 94.37 141.99 91.41 138.39 94.01 135.63 C 93.68 135.28 93.01 134.59 92.68 134.24 C 92.78 132.95 92.81 131.66 92.75 130.37 C 92.43 131.14 91.77 132.68 91.45 133.45 C 87.64 130.42 88.46 125.04 85.45 121.51 C 83.00 118.38 82.87 114.34 82.41 110.58 C 81.22 108.44 80.24 106.20 79.21 103.99 C 79.63 101.63 79.94 99.25 80.16 96.87 C 81.99 101.14 84.19 105.33 87.18 108.91 C 87.59 106.07 85.94 103.69 84.77 101.28 C 83.00 97.71 81.70 93.92 80.62 90.09 C 79.44 86.08 79.88 81.82 78.95 77.77 C 75.99 81.97 78.51 87.24 78.86 91.87 M 92.15 103.53 C 93.02 101.28 93.70 98.96 94.42 96.66 C 95.46 94.27 95.23 91.63 95.03 89.12 C 92.03 93.24 93.18 98.77 92.15 103.53 M 96.29 89.59 C 96.92 92.27 99.46 93.78 102.00 94.14 C 105.87 94.87 109.68 95.96 113.60 96.32 C 110.21 93.27 105.53 92.37 101.16 91.74 C 99.59 90.88 97.97 90.16 96.29 89.59 M 111.54 99.67 C 112.27 102.98 113.41 106.21 113.71 109.61 C 116.29 106.44 114.39 101.96 111.54 99.67 M 127.91 99.50 C 127.25 104.01 126.17 108.47 125.88 113.03 C 128.16 109.04 128.65 104.00 127.91 99.50 M 93.98 104.44 C 95.76 108.87 99.16 112.46 102.38 115.89 C 101.25 111.19 97.71 107.30 93.98 104.44 M 114.78 109.00 C 112.33 112.32 106.97 111.72 104.81 115.63 C 107.31 114.84 109.59 113.41 112.20 112.93 C 115.49 115.65 118.54 119.48 118.38 123.99 C 120.03 123.40 121.70 122.88 123.37 122.34 C 124.29 123.00 125.21 123.67 126.14 124.33 C 126.12 123.43 126.07 121.62 126.04 120.71 C 123.74 120.49 121.66 121.46 119.72 122.59 C 119.26 121.32 118.81 120.04 118.35 118.77 C 119.20 116.37 118.89 113.78 119.47 111.32 C 121.13 112.14 122.75 112.03 124.33 111.00 C 121.73 110.03 118.97 109.70 116.21 110.03 L 118.30 110.66 C 118.18 112.56 117.91 114.45 117.64 116.33 C 116.99 115.78 115.69 114.68 115.04 114.13 C 115.31 114.01 115.84 113.78 116.11 113.66 C 115.39 112.19 114.95 110.62 114.78 109.00 M 121.20 114.34 C 121.14 114.66 121.02 115.29 120.95 115.61 C 122.14 116.08 123.33 116.57 124.53 117.05 C 124.40 116.54 124.15 115.53 124.02 115.03 C 123.08 114.80 122.14 114.57 121.20 114.34 M 91.83 120.89 C 92.93 122.04 94.17 123.06 95.35 124.14 C 98.36 122.93 100.99 124.38 103.74 125.46 C 102.64 123.52 100.91 122.10 99.39 120.51 C 97.76 121.31 96.07 121.95 94.31 122.39 C 94.00 120.19 94.30 118.00 94.66 115.83 C 93.56 117.40 91.90 118.84 91.83 120.89 M 111.46 116.28 C 110.17 116.68 108.63 119.41 110.20 120.15 C 111.28 119.65 112.99 116.90 111.46 116.28 M 112.98 122.91 C 111.19 124.33 109.96 126.31 108.34 127.91 C 108.78 128.38 109.22 128.85 109.66 129.32 C 110.63 127.98 111.57 126.62 112.48 125.23 C 114.24 124.81 116.94 125.36 117.34 122.97 C 115.90 122.81 114.41 122.55 112.98 122.91 M 90.54 126.64 C 91.34 127.44 92.13 128.24 92.93 129.04 C 94.50 129.10 96.07 129.16 97.64 129.18 C 99.37 129.94 101.24 130.29 103.13 130.34 C 103.08 129.94 102.99 129.12 102.94 128.72 C 100.78 129.32 99.34 127.46 97.81 126.34 C 97.18 126.74 95.93 127.55 95.31 127.95 C 94.52 127.91 92.94 127.82 92.15 127.78 C 92.04 126.78 91.81 124.77 91.70 123.77 C 91.31 124.73 90.92 125.68 90.54 126.64 M 117.96 124.77 C 118.05 129.19 118.78 133.68 117.62 138.03 C 115.77 137.24 113.93 136.42 112.06 135.68 C 112.65 136.47 113.25 137.26 113.85 138.04 C 114.85 138.08 115.85 138.12 116.84 138.16 L 117.31 140.66 C 120.46 136.45 120.32 130.96 120.01 125.97 C 119.50 125.67 118.47 125.07 117.96 124.77 M 82.88 125.86 C 72.10 155.52 61.42 185.21 50.65 214.88 C 49.97 216.79 49.37 218.73 48.87 220.70 C 50.18 220.24 51.05 219.39 51.49 218.14 C 62.12 188.81 72.68 159.45 83.36 130.14 C 83.68 128.84 84.65 127.49 83.86 126.17 C 83.62 126.10 83.13 125.94 82.88 125.86 M 105.67 131.08 C 106.02 131.91 106.73 133.55 107.09 134.38 C 106.32 134.13 104.80 133.63 104.03 133.38 C 106.20 136.65 108.41 140.33 112.42 141.52 C 111.81 140.54 111.18 139.57 110.54 138.62 C 110.06 136.28 108.90 134.19 107.89 132.06 C 107.33 131.81 106.22 131.33 105.67 131.08 M 97.43 133.59 C 98.95 135.65 101.40 136.52 103.73 137.29 C 102.49 136.05 101.06 135.04 99.69 133.97 C 99.12 133.88 97.99 133.69 97.43 133.59 M 107.87 143.60 C 109.28 145.91 111.28 147.96 114.29 147.62 C 112.54 145.75 110.50 143.98 107.87 143.60 Z" />
<path fill="#FFFFFF" opacity="1.00" d=" M 100.15 57.95 C 103.44 53.97 109.14 52.88 114.03 53.76 C 118.24 55.27 120.03 59.75 120.32 63.90 C 122.11 70.07 120.93 76.59 118.91 82.54 C 117.92 82.96 116.93 83.37 115.95 83.79 C 113.28 82.91 110.58 82.10 108.02 80.93 C 105.79 79.77 105.25 77.09 103.87 75.20 C 102.30 73.88 100.60 72.73 99.08 71.37 C 99.60 69.81 100.11 68.24 100.61 66.67 C 99.93 66.94 98.56 67.48 97.88 67.74 C 97.97 64.39 97.91 60.71 100.15 57.95 Z" />
<path fill="#FFFFFF" opacity="1.00" d=" M 108.31 136.19 C 108.80 136.82 108.80 136.82 108.31 136.19 Z" />
<path fill="#FFFFFF" opacity="1.00" d=" M 93.05 146.33 C 95.79 147.91 98.55 149.84 101.85 149.78 C 106.57 149.79 111.20 152.06 115.92 150.80 C 119.36 149.81 123.04 149.36 126.02 147.21 L 126.53 147.37 C 127.41 149.01 128.56 150.50 129.40 152.16 C 130.03 154.63 128.34 157.05 128.64 159.50 C 130.30 164.00 132.83 168.25 133.31 173.12 C 133.51 175.22 134.68 176.99 135.94 178.62 C 131.88 180.20 129.09 183.91 124.91 185.24 C 120.98 186.97 116.86 184.81 112.93 184.25 C 114.06 180.82 117.77 180.70 120.60 179.57 C 122.41 177.36 123.27 174.54 123.90 171.80 C 122.03 173.66 120.66 175.93 119.52 178.30 C 117.11 178.81 114.66 179.33 112.46 180.50 C 110.97 182.95 112.74 187.09 109.56 188.69 C 105.54 190.85 100.40 191.98 96.11 189.93 C 94.60 189.31 93.12 188.63 91.63 187.98 C 91.14 186.29 92.89 182.39 89.96 182.84 C 89.17 184.21 88.56 185.68 87.85 187.10 C 87.38 186.52 86.45 185.37 85.98 184.80 C 88.40 181.27 88.74 177.00 89.57 172.94 C 91.85 167.57 91.57 161.43 89.93 155.92 C 89.19 153.66 90.52 151.47 91.09 149.35 C 91.70 149.32 92.92 149.28 93.53 149.26 C 93.41 148.52 93.17 147.06 93.05 146.33 M 103.99 152.73 C 101.47 152.19 98.94 150.84 96.34 151.28 C 94.72 153.96 93.52 157.18 94.86 160.23 C 95.51 157.50 96.30 154.80 97.44 152.23 C 99.37 152.93 101.31 153.64 103.19 154.47 C 101.17 158.95 96.72 161.05 92.78 163.49 C 97.90 163.78 103.09 159.81 104.41 154.84 C 110.97 155.97 117.81 155.25 123.95 152.70 C 125.02 152.00 125.83 150.98 126.72 150.08 C 119.49 152.61 111.62 154.73 103.99 152.73 M 104.69 163.41 C 109.73 162.59 114.56 160.68 119.66 160.23 C 119.96 159.73 120.54 158.74 120.83 158.24 C 115.36 159.34 109.03 159.52 104.69 163.41 M 121.24 159.21 C 122.49 159.78 124.91 160.01 125.63 158.65 C 124.67 157.70 120.94 157.24 121.24 159.21 M 109.53 166.63 C 109.31 167.59 109.10 168.55 108.89 169.52 C 106.93 169.65 104.97 169.82 103.01 169.97 L 103.08 171.16 C 107.77 171.55 112.31 170.03 116.99 170.05 C 121.02 169.74 125.72 169.73 128.37 166.14 C 122.51 167.81 116.26 168.97 110.24 168.78 C 114.40 164.02 121.70 163.72 126.63 159.92 C 120.40 160.51 114.93 163.74 109.53 166.63 Z" />
<path fill="#FFFFFF" opacity="1.00" d=" M 113.29 184.95 C 119.91 190.30 128.81 186.61 134.42 181.63 C 134.79 186.05 135.00 190.49 135.10 194.93 C 134.66 194.81 133.79 194.55 133.35 194.43 C 132.55 196.91 131.96 199.65 129.98 201.51 C 127.21 200.82 126.10 198.01 124.79 195.80 C 125.45 198.16 125.57 201.47 128.12 202.65 C 131.61 203.32 133.08 199.34 134.62 197.02 C 135.40 199.24 136.73 201.52 136.15 203.96 C 134.68 210.59 134.07 217.60 135.69 224.27 C 136.62 230.67 135.10 237.23 136.68 243.56 C 137.19 245.71 137.20 248.24 139.14 249.70 C 142.93 252.99 145.60 257.47 149.78 260.30 C 152.47 262.22 157.18 261.12 158.23 265.00 C 156.61 266.11 154.96 267.26 153.10 267.94 C 150.41 267.98 147.72 267.63 145.06 267.33 C 142.15 266.20 139.38 264.26 136.10 264.75 C 133.02 264.58 129.33 266.02 126.72 263.87 C 126.09 259.38 126.63 254.47 128.26 250.18 C 128.29 243.60 129.15 236.55 125.15 230.84 C 123.74 225.34 122.17 219.14 124.40 213.63 L 125.47 217.28 C 125.78 216.47 126.41 214.83 126.73 214.01 C 125.50 210.32 122.88 207.03 122.95 202.97 C 123.00 198.48 119.96 194.92 117.66 191.35 C 116.32 189.07 112.96 188.06 113.29 184.95 M 131.79 259.48 C 131.34 256.55 130.84 253.63 130.35 250.71 C 128.85 253.73 129.27 257.13 131.79 259.48 Z" />
<path fill="#FFFFFF" opacity="1.00" d=" M 90.67 189.54 C 93.37 190.66 95.88 192.32 98.78 192.91 C 102.36 193.23 105.87 192.18 109.33 191.42 C 108.67 196.20 108.12 201.24 105.51 205.43 C 101.34 211.97 100.83 220.10 96.85 226.74 C 94.40 231.26 93.63 236.53 94.28 241.61 C 96.10 239.86 95.88 237.24 96.05 234.95 C 96.03 231.86 97.46 229.04 98.80 226.34 C 99.17 230.58 99.90 235.06 98.09 239.09 C 94.68 246.16 94.76 254.44 96.53 261.94 C 97.37 265.79 100.03 268.81 101.76 272.27 C 103.80 276.61 107.97 279.49 109.87 283.94 C 108.94 284.82 107.62 284.90 106.43 285.22 C 105.45 284.08 105.12 282.06 103.61 281.53 C 100.40 281.76 97.20 282.15 93.97 281.99 C 93.80 282.36 93.46 283.10 93.30 283.47 C 96.62 283.81 99.92 283.76 103.23 283.40 C 103.72 283.86 104.68 284.80 105.17 285.27 C 101.26 288.60 94.53 287.98 91.87 283.44 C 90.66 277.40 87.60 271.94 86.23 265.94 C 86.35 263.30 87.27 260.74 87.12 258.07 C 87.17 250.82 83.82 244.14 83.10 237.01 C 83.17 231.58 85.09 226.32 87.34 221.43 C 88.34 223.99 89.27 226.58 90.13 229.19 C 90.76 229.28 91.40 229.36 92.03 229.45 C 90.06 224.47 88.48 219.30 88.01 213.94 C 87.96 209.79 89.93 206.03 91.18 202.19 C 91.66 197.98 90.74 193.75 90.67 189.54 M 93.90 204.95 C 93.72 206.76 93.56 208.59 93.87 210.39 C 94.16 209.52 94.74 207.78 95.03 206.91 C 96.84 206.48 98.64 206.02 100.43 205.50 C 101.16 206.56 101.93 207.58 102.75 208.57 C 102.25 206.73 101.61 204.94 100.98 203.14 C 98.76 204.22 96.36 204.79 93.90 204.95 M 95.84 216.41 C 97.38 216.00 98.91 215.57 100.41 215.03 C 98.87 214.56 97.31 214.15 95.75 213.75 C 95.78 214.63 95.81 215.52 95.84 216.41 M 88.64 267.79 C 92.06 266.18 93.15 262.43 94.74 259.33 C 91.18 260.64 90.15 264.71 88.64 267.79 Z" />
</g>
<g id="#3c3d3bff">
<path fill="#333333" opacity="1.00" d=" M 98.58 56.68 C 100.99 55.17 103.14 52.84 106.13 52.60 C 110.38 52.26 114.67 53.10 118.67 54.52 C 120.73 56.02 120.82 58.77 121.10 61.06 C 121.49 64.77 123.43 68.32 122.62 72.12 C 122.26 76.61 120.48 80.92 120.52 85.42 C 122.28 83.25 123.22 80.29 125.84 78.92 C 125.09 81.55 123.94 84.04 123.20 86.67 C 124.20 85.81 125.22 84.98 126.22 84.12 C 125.14 80.20 127.15 76.41 128.06 72.67 C 126.47 72.37 124.88 72.06 123.30 71.73 C 124.74 69.37 127.25 70.54 129.37 71.01 C 132.20 67.57 134.13 63.06 138.22 60.91 C 135.43 67.55 129.53 72.65 128.26 79.94 C 127.42 83.42 129.38 86.94 128.08 90.34 C 127.59 88.90 127.18 87.43 126.83 85.94 C 126.64 85.91 126.25 85.86 126.05 85.83 C 125.50 88.56 122.64 89.32 120.73 90.83 C 118.35 92.15 117.07 94.86 114.41 95.72 C 116.08 91.98 119.68 89.80 122.67 87.25 C 120.88 87.18 119.08 87.11 117.29 87.01 L 117.54 85.76 C 118.25 85.67 119.65 85.48 120.36 85.38 C 115.36 85.72 110.00 85.28 105.93 82.05 C 104.33 80.38 103.57 78.15 102.61 76.10 C 102.46 79.65 99.72 83.28 101.18 86.75 C 99.84 87.26 98.52 87.81 97.21 88.40 C 95.86 88.27 94.51 88.16 93.16 88.09 C 93.24 84.45 93.43 80.81 93.41 77.17 C 92.55 73.77 91.22 70.49 90.47 67.05 C 91.68 68.33 92.82 69.67 93.88 71.07 C 95.39 75.89 95.04 80.92 95.00 85.89 C 96.19 85.33 97.38 84.77 98.58 84.21 C 99.54 81.31 99.90 78.28 100.36 75.27 C 95.73 70.68 96.07 63.34 97.49 57.46 C 96.34 57.45 95.19 57.45 94.05 57.46 C 94.78 59.89 96.07 62.33 95.40 64.94 C 93.66 63.06 92.81 60.59 91.23 58.59 C 91.98 55.75 94.98 55.47 97.45 55.46 C 97.73 55.76 98.29 56.37 98.58 56.68 M 100.15 57.95 C 97.91 60.71 97.97 64.39 97.88 67.74 C 98.56 67.48 99.93 66.94 100.61 66.67 C 100.11 68.24 99.60 69.81 99.08 71.37 C 100.60 72.73 102.30 73.88 103.87 75.20 C 105.25 77.09 105.79 79.77 108.02 80.93 C 110.58 82.10 113.28 82.91 115.95 83.79 C 116.93 83.37 117.92 82.96 118.91 82.54 C 120.93 76.59 122.11 70.07 120.32 63.90 C 120.03 59.75 118.24 55.27 114.03 53.76 C 109.14 52.88 103.44 53.97 100.15 57.95 Z" />
<path fill="#333333" opacity="1.00" d=" M 134.11 53.92 C 137.73 53.70 141.04 51.05 144.74 52.03 C 147.39 53.91 148.31 57.28 149.77 60.04 C 148.89 66.38 149.19 72.93 146.81 78.99 C 144.62 84.39 142.37 90.02 138.15 94.19 C 136.47 96.05 134.63 98.32 134.88 100.98 C 135.36 106.82 134.45 112.93 131.19 117.90 C 130.19 122.45 131.06 127.29 129.41 131.69 C 129.05 129.68 128.85 127.65 128.60 125.62 C 129.82 122.69 129.58 119.61 128.45 116.70 C 129.04 116.91 130.22 117.33 130.81 117.54 C 132.23 112.12 132.93 106.52 133.03 100.92 C 134.29 95.90 138.51 92.40 140.65 87.79 C 144.23 80.36 147.48 72.37 147.23 63.99 C 148.14 59.97 145.20 56.74 142.92 53.83 C 140.27 53.59 137.84 55.35 135.15 55.17 C 130.25 54.90 126.42 58.37 122.13 60.14 C 125.31 56.91 129.49 54.28 134.11 53.92 Z" />
<path fill="#333333" opacity="1.00" d=" M 79.35 59.42 C 80.62 57.30 83.44 57.64 85.56 57.64 C 85.96 57.60 86.75 57.52 87.14 57.48 C 91.28 58.68 92.23 63.15 94.97 65.83 C 95.00 66.59 95.06 68.13 95.09 68.90 C 92.26 65.92 89.98 62.48 87.12 59.52 C 84.79 59.25 82.40 59.43 80.28 60.51 C 79.08 64.72 80.42 69.30 79.58 73.64 C 79.10 71.77 78.75 69.87 78.39 67.98 C 77.90 68.75 77.41 69.53 76.92 70.30 C 77.13 72.48 77.76 74.57 78.48 76.63 C 78.03 77.46 77.58 78.28 77.11 79.10 C 76.20 75.64 74.03 72.03 75.33 68.37 C 76.36 65.27 77.77 62.28 79.35 59.42 Z" />
<path fill="#333333" opacity="1.00" d=" M 132.19 85.67 C 131.04 80.59 132.83 74.71 137.29 71.77 C 135.44 76.35 133.42 80.87 132.19 85.67 Z" />
<path fill="#333333" opacity="1.00" d=" M 78.86 91.87 C 78.51 87.24 75.99 81.97 78.95 77.77 C 79.88 81.82 79.44 86.08 80.62 90.09 C 81.70 93.92 83.00 97.71 84.77 101.28 C 85.94 103.69 87.59 106.07 87.18 108.91 C 84.19 105.33 81.99 101.14 80.16 96.87 C 79.94 99.25 79.63 101.63 79.21 103.99 C 80.24 106.20 81.22 108.44 82.41 110.58 C 82.87 114.34 83.00 118.38 85.45 121.51 C 88.46 125.04 87.64 130.42 91.45 133.45 C 91.77 132.68 92.43 131.14 92.75 130.37 C 92.81 131.66 92.78 132.95 92.68 134.24 C 93.01 134.59 93.68 135.28 94.01 135.63 C 91.41 138.39 94.37 141.99 94.30 145.18 C 96.71 146.41 99.16 147.89 102.00 147.62 C 105.73 147.49 109.30 148.84 113.00 148.91 C 117.62 148.10 122.35 147.33 126.50 145.00 C 126.31 142.75 126.10 140.50 125.90 138.25 C 125.37 138.21 124.30 138.12 123.76 138.08 C 124.53 137.94 125.29 137.81 126.06 137.69 C 125.69 134.16 124.66 130.64 125.81 127.14 C 126.11 127.31 126.71 127.63 127.00 127.80 C 128.02 133.79 126.81 139.94 128.14 145.91 C 128.39 147.99 130.74 149.00 131.20 150.99 C 131.96 153.43 130.69 155.79 130.25 158.15 C 131.62 163.16 134.53 167.69 135.20 172.91 C 135.55 175.52 137.78 177.33 138.38 179.87 C 137.39 180.33 136.39 180.79 135.40 181.25 C 136.04 185.80 136.41 190.39 136.25 194.99 C 135.90 198.14 138.62 200.85 137.79 204.03 C 137.06 206.97 136.48 209.95 136.77 213.00 C 135.96 218.41 138.32 223.60 138.02 229.00 C 138.24 235.30 137.22 242.02 139.82 247.93 C 143.36 250.74 146.11 254.35 149.44 257.37 C 151.43 259.34 154.25 259.56 156.83 260.16 C 158.31 261.12 159.37 262.59 160.25 264.10 C 159.81 267.20 156.55 267.98 154.14 269.05 C 151.20 270.82 147.90 268.78 144.75 269.43 C 142.47 268.38 140.28 267.10 137.88 266.31 C 134.94 265.69 131.99 267.09 129.04 266.58 C 127.41 266.21 125.99 265.29 124.52 264.54 C 123.00 256.14 128.60 248.30 126.53 239.94 C 125.95 235.13 122.57 231.42 121.19 226.90 C 120.99 221.56 121.54 216.20 122.82 211.01 C 121.89 209.08 120.70 207.25 120.10 205.19 C 119.58 202.33 120.15 199.08 118.24 196.63 C 116.34 193.84 114.64 190.92 113.24 187.84 C 112.38 188.84 111.52 189.83 110.65 190.81 C 110.36 196.00 109.96 201.51 107.04 205.98 C 104.60 209.55 103.90 213.92 102.27 217.87 C 99.81 224.34 101.92 231.33 100.67 237.96 C 96.78 247.71 95.29 260.10 101.88 269.05 C 104.00 273.77 107.83 277.30 110.66 281.55 C 110.82 282.83 110.98 284.11 111.15 285.40 C 109.76 286.34 108.21 286.94 106.57 287.28 C 100.51 291.88 88.32 288.79 88.40 280.17 C 87.90 277.37 85.92 275.01 85.84 272.12 C 85.80 269.76 84.94 267.54 84.64 265.23 C 84.84 262.78 85.30 260.35 85.38 257.88 C 85.70 249.90 81.19 242.57 81.72 234.59 C 82.39 229.80 84.10 225.24 85.67 220.69 C 86.45 217.17 86.32 213.52 86.99 209.98 C 87.39 206.85 88.87 204.00 89.35 200.90 C 89.18 196.66 88.47 192.39 89.29 188.17 C 86.72 190.39 84.99 186.79 83.69 184.98 C 84.57 182.60 87.03 180.89 86.88 178.14 C 86.98 172.99 89.31 168.18 89.19 163.02 C 89.18 160.64 88.42 158.37 88.03 156.04 C 86.81 151.01 92.99 148.39 92.86 143.43 C 91.42 140.09 91.73 135.74 88.45 133.47 C 85.27 130.75 85.21 126.22 83.13 122.81 C 81.29 119.37 80.08 115.51 80.64 111.57 C 76.88 105.66 77.08 98.40 78.86 91.87 M 93.05 146.33 C 93.17 147.06 93.41 148.52 93.53 149.26 C 92.92 149.28 91.70 149.32 91.09 149.35 C 90.52 151.47 89.19 153.66 89.93 155.92 C 91.57 161.43 91.85 167.57 89.57 172.94 C 88.74 177.00 88.40 181.27 85.98 184.80 C 86.45 185.37 87.38 186.52 87.85 187.10 C 88.56 185.68 89.17 184.21 89.96 182.84 C 92.89 182.39 91.14 186.29 91.63 187.98 C 93.12 188.63 94.60 189.31 96.11 189.93 C 100.40 191.98 105.54 190.85 109.56 188.69 C 112.74 187.09 110.97 182.95 112.46 180.50 C 114.66 179.33 117.11 178.81 119.52 178.30 C 120.66 175.93 122.03 173.66 123.90 171.80 C 123.27 174.54 122.41 177.36 120.60 179.57 C 117.77 180.70 114.06 180.82 112.93 184.25 C 116.86 184.81 120.98 186.97 124.91 185.24 C 129.09 183.91 131.88 180.20 135.94 178.62 C 134.68 176.99 133.51 175.22 133.31 173.12 C 132.83 168.25 130.30 164.00 128.64 159.50 C 128.34 157.05 130.03 154.63 129.40 152.16 C 128.56 150.50 127.41 149.01 126.53 147.37 L 126.02 147.21 C 123.04 149.36 119.36 149.81 115.92 150.80 C 111.20 152.06 106.57 149.79 101.85 149.78 C 98.55 149.84 95.79 147.91 93.05 146.33 M 113.29 184.95 C 112.96 188.06 116.32 189.07 117.66 191.35 C 119.96 194.92 123.00 198.48 122.95 202.97 C 122.88 207.03 125.50 210.32 126.73 214.01 C 126.41 214.83 125.78 216.47 125.47 217.28 L 124.40 213.63 C 122.17 219.14 123.74 225.34 125.15 230.84 C 129.15 236.55 128.29 243.60 128.26 250.18 C 126.63 254.47 126.09 259.38 126.72 263.87 C 129.33 266.02 133.02 264.58 136.10 264.75 C 139.38 264.26 142.15 266.20 145.06 267.33 C 147.72 267.63 150.41 267.98 153.10 267.94 C 154.96 267.26 156.61 266.11 158.23 265.00 C 157.18 261.12 152.47 262.22 149.78 260.30 C 145.60 257.47 142.93 252.99 139.14 249.70 C 137.20 248.24 137.19 245.71 136.68 243.56 C 135.10 237.23 136.62 230.67 135.69 224.27 C 134.07 217.60 134.68 210.59 136.15 203.96 C 136.73 201.52 135.40 199.24 134.62 197.02 C 133.08 199.34 131.61 203.32 128.12 202.65 C 125.57 201.47 125.45 198.16 124.79 195.80 C 126.10 198.01 127.21 200.82 129.98 201.51 C 131.96 199.65 132.55 196.91 133.35 194.43 C 133.79 194.55 134.66 194.81 135.10 194.93 C 135.00 190.49 134.79 186.05 134.42 181.63 C 128.81 186.61 119.91 190.30 113.29 184.95 M 90.67 189.54 C 90.74 193.75 91.66 197.98 91.18 202.19 C 89.93 206.03 87.96 209.79 88.01 213.94 C 88.48 219.30 90.06 224.47 92.03 229.45 C 91.40 229.36 90.76 229.28 90.13 229.19 C 89.27 226.58 88.34 223.99 87.34 221.43 C 85.09 226.32 83.17 231.58 83.10 237.01 C 83.82 244.14 87.17 250.82 87.12 258.07 C 87.27 260.74 86.35 263.30 86.23 265.94 C 87.60 271.94 90.66 277.40 91.87 283.44 C 94.53 287.98 101.26 288.60 105.17 285.27 C 104.68 284.80 103.72 283.86 103.23 283.40 C 99.92 283.76 96.62 283.81 93.30 283.47 C 93.46 283.10 93.80 282.36 93.97 281.99 C 97.20 282.15 100.40 281.76 103.61 281.53 C 105.12 282.06 105.45 284.08 106.43 285.22 C 107.62 284.90 108.94 284.82 109.87 283.94 C 107.97 279.49 103.80 276.61 101.76 272.27 C 100.03 268.81 97.37 265.79 96.53 261.94 C 94.76 254.44 94.68 246.16 98.09 239.09 C 99.90 235.06 99.17 230.58 98.80 226.34 C 97.46 229.04 96.03 231.86 96.05 234.95 C 95.88 237.24 96.10 239.86 94.28 241.61 C 93.63 236.53 94.40 231.26 96.85 226.74 C 100.83 220.10 101.34 211.97 105.51 205.43 C 108.12 201.24 108.67 196.20 109.33 191.42 C 105.87 192.18 102.36 193.23 98.78 192.91 C 95.88 192.32 93.37 190.66 90.67 189.54 Z" />
<path fill="#333333" opacity="1.00" d=" M 92.15 103.53 C 93.18 98.77 92.03 93.24 95.03 89.12 C 95.23 91.63 95.46 94.27 94.42 96.66 C 93.70 98.96 93.02 101.28 92.15 103.53 Z" />
<path fill="#333333" opacity="1.00" d=" M 96.29 89.59 C 97.97 90.16 99.59 90.88 101.16 91.74 C 105.53 92.37 110.21 93.27 113.60 96.32 C 109.68 95.96 105.87 94.87 102.00 94.14 C 99.46 93.78 96.92 92.27 96.29 89.59 Z" />
<path fill="#333333" opacity="1.00" d=" M 111.54 99.67 C 114.39 101.96 116.29 106.44 113.71 109.61 C 113.41 106.21 112.27 102.98 111.54 99.67 Z" />
<path fill="#333333" opacity="1.00" d=" M 127.91 99.50 C 128.65 104.00 128.16 109.04 125.88 113.03 C 126.17 108.47 127.25 104.01 127.91 99.50 Z" />
<path fill="#333333" opacity="1.00" d=" M 93.98 104.44 C 97.71 107.30 101.25 111.19 102.38 115.89 C 99.16 112.46 95.76 108.87 93.98 104.44 Z" />
<path fill="#333333" opacity="1.00" d=" M 114.78 109.00 C 114.95 110.62 115.39 112.19 116.11 113.66 C 115.84 113.78 115.31 114.01 115.04 114.13 C 115.69 114.68 116.99 115.78 117.64 116.33 C 117.91 114.45 118.18 112.56 118.30 110.66 L 116.21 110.03 C 118.97 109.70 121.73 110.03 124.33 111.00 C 122.75 112.03 121.13 112.14 119.47 111.32 C 118.89 113.78 119.20 116.37 118.35 118.77 C 118.81 120.04 119.26 121.32 119.72 122.59 C 121.66 121.46 123.74 120.49 126.04 120.71 C 126.07 121.62 126.12 123.43 126.14 124.33 C 125.21 123.67 124.29 123.00 123.37 122.34 C 121.70 122.88 120.03 123.40 118.38 123.99 C 118.54 119.48 115.49 115.65 112.20 112.93 C 109.59 113.41 107.31 114.84 104.81 115.63 C 106.97 111.72 112.33 112.32 114.78 109.00 Z" />
<path fill="#333333" opacity="1.00" d=" M 121.20 114.34 C 122.14 114.57 123.08 114.80 124.02 115.03 C 124.15 115.53 124.40 116.54 124.53 117.05 C 123.33 116.57 122.14 116.08 120.95 115.61 C 121.02 115.29 121.14 114.66 121.20 114.34 Z" />
<path fill="#333333" opacity="1.00" d=" M 91.83 120.89 C 91.90 118.84 93.56 117.40 94.66 115.83 C 94.30 118.00 94.00 120.19 94.31 122.39 C 96.07 121.95 97.76 121.31 99.39 120.51 C 100.91 122.10 102.64 123.52 103.74 125.46 C 100.99 124.38 98.36 122.93 95.35 124.14 C 94.17 123.06 92.93 122.04 91.83 120.89 Z" />
<path fill="#333333" opacity="1.00" d=" M 111.46 116.28 C 112.99 116.90 111.28 119.65 110.20 120.15 C 108.63 119.41 110.17 116.68 111.46 116.28 Z" />
<path fill="#333333" opacity="1.00" d=" M 112.98 122.91 C 114.41 122.55 115.90 122.81 117.34 122.97 C 116.94 125.36 114.24 124.81 112.48 125.23 C 111.57 126.62 110.63 127.98 109.66 129.32 C 109.22 128.85 108.78 128.38 108.34 127.91 C 109.96 126.31 111.19 124.33 112.98 122.91 Z" />
<path fill="#333333" opacity="1.00" d=" M 90.54 126.64 C 90.92 125.68 91.31 124.73 91.70 123.77 C 91.81 124.77 92.04 126.78 92.15 127.78 C 92.94 127.82 94.52 127.91 95.31 127.95 C 95.93 127.55 97.18 126.74 97.81 126.34 C 99.34 127.46 100.78 129.32 102.94 128.72 C 102.99 129.12 103.08 129.94 103.13 130.34 C 101.24 130.29 99.37 129.94 97.64 129.18 C 96.07 129.16 94.50 129.10 92.93 129.04 C 92.13 128.24 91.34 127.44 90.54 126.64 Z" />
<path fill="#333333" opacity="1.00" d=" M 117.96 124.77 C 118.47 125.07 119.50 125.67 120.01 125.97 C 120.32 130.96 120.46 136.45 117.31 140.66 L 116.84 138.16 C 115.85 138.12 114.85 138.08 113.85 138.04 C 113.25 137.26 112.65 136.47 112.06 135.68 C 113.93 136.42 115.77 137.24 117.62 138.03 C 118.78 133.68 118.05 129.19 117.96 124.77 Z" />
<path fill="#333333" opacity="1.00" d=" M 82.88 125.86 C 83.13 125.94 83.62 126.10 83.86 126.17 C 84.65 127.49 83.68 128.84 83.36 130.14 C 72.68 159.45 62.12 188.81 51.49 218.14 C 51.05 219.39 50.18 220.24 48.87 220.70 C 49.37 218.73 49.97 216.79 50.65 214.88 C 61.42 185.21 72.10 155.52 82.88 125.86 Z" />
<path fill="#333333" opacity="1.00" d=" M 105.67 131.08 C 106.22 131.33 107.33 131.81 107.89 132.06 C 108.90 134.19 110.06 136.28 110.54 138.62 C 111.18 139.57 111.81 140.54 112.42 141.52 C 108.41 140.33 106.20 136.65 104.03 133.38 C 104.80 133.63 106.32 134.13 107.09 134.38 C 106.73 133.55 106.02 131.91 105.67 131.08 M 108.31 136.19 C 108.80 136.82 108.80 136.82 108.31 136.19 Z" />
<path fill="#333333" opacity="1.00" d=" M 97.43 133.59 C 97.99 133.69 99.12 133.88 99.69 133.97 C 101.06 135.04 102.49 136.05 103.73 137.29 C 101.40 136.52 98.95 135.65 97.43 133.59 Z" />
<path fill="#333333" opacity="1.00" d=" M 107.87 143.60 C 110.50 143.98 112.54 145.75 114.29 147.62 C 111.28 147.96 109.28 145.91 107.87 143.60 Z" />
<path fill="#333333" opacity="1.00" d=" M 103.99 152.73 C 111.62 154.73 119.49 152.61 126.72 150.08 C 125.83 150.98 125.02 152.00 123.95 152.70 C 117.81 155.25 110.97 155.97 104.41 154.84 C 103.09 159.81 97.90 163.78 92.78 163.49 C 96.72 161.05 101.17 158.95 103.19 154.47 C 101.31 153.64 99.37 152.93 97.44 152.23 C 96.30 154.80 95.51 157.50 94.86 160.23 C 93.52 157.18 94.72 153.96 96.34 151.28 C 98.94 150.84 101.47 152.19 103.99 152.73 Z" />
<path fill="#333333" opacity="1.00" d=" M 104.69 163.41 C 109.03 159.52 115.36 159.34 120.83 158.24 C 120.54 158.74 119.96 159.73 119.66 160.23 C 114.56 160.68 109.73 162.59 104.69 163.41 Z" />
<path fill="#333333" opacity="1.00" d=" M 121.24 159.21 C 120.94 157.24 124.67 157.70 125.63 158.65 C 124.91 160.01 122.49 159.78 121.24 159.21 Z" />
<path fill="#333333" opacity="1.00" d=" M 109.53 166.63 C 114.93 163.74 120.40 160.51 126.63 159.92 C 121.70 163.72 114.40 164.02 110.24 168.78 C 116.26 168.97 122.51 167.81 128.37 166.14 C 125.72 169.73 121.02 169.74 116.99 170.05 C 112.31 170.03 107.77 171.55 103.08 171.16 L 103.01 169.97 C 104.97 169.82 106.93 169.65 108.89 169.52 C 109.10 168.55 109.31 167.59 109.53 166.63 Z" />
<path fill="#333333" opacity="1.00" d=" M 93.90 204.95 C 96.36 204.79 98.76 204.22 100.98 203.14 C 101.61 204.94 102.25 206.73 102.75 208.57 C 101.93 207.58 101.16 206.56 100.43 205.50 C 98.64 206.02 96.84 206.48 95.03 206.91 C 94.74 207.78 94.16 209.52 93.87 210.39 C 93.56 208.59 93.72 206.76 93.90 204.95 Z" />
<path fill="#333333" opacity="1.00" d=" M 95.84 216.41 C 95.81 215.52 95.78 214.63 95.75 213.75 C 97.31 214.15 98.87 214.56 100.41 215.03 C 98.91 215.57 97.38 216.00 95.84 216.41 Z" />
<path fill="#333333" opacity="1.00" d=" M 131.79 259.48 C 129.27 257.13 128.85 253.73 130.35 250.71 C 130.84 253.63 131.34 256.55 131.79 259.48 Z" />
<path fill="#333333" opacity="1.00" d=" M 88.64 267.79 C 90.15 264.71 91.18 260.64 94.74 259.33 C 93.15 262.43 92.06 266.18 88.64 267.79 Z" />
</g>
</svg>
