<?xml version="1.0" encoding="UTF-8" ?>
<!DOCTYPE svg PUBLIC "-//W3C//DTD SVG 1.1//EN" "http://www.w3.org/Graphics/SVG/1.1/DTD/svg11.dtd">
<svg width="167pt" height="175pt" viewBox="0 0 167 175" version="1.1" xmlns="http://www.w3.org/2000/svg">
<g id="#ffffffff">
<path fill="#FFFFFF" opacity="1.00" d=" M 0.00 0.00 L 167.00 0.00 L 167.00 175.00 L 0.00 175.00 L 0.00 0.00 M 57.98 30.64 C 54.13 31.80 50.21 32.76 46.49 34.31 C 39.52 37.33 31.53 37.13 24.80 40.83 C 22.07 42.33 20.30 44.98 18.03 47.02 C 16.17 48.51 13.73 49.15 12.04 50.87 C 10.75 52.15 10.60 54.06 10.11 55.72 C 15.16 61.90 16.99 69.95 21.37 76.54 C 25.76 83.06 32.69 87.10 39.33 90.95 C 42.70 96.02 43.20 102.46 46.36 107.68 C 50.14 115.60 58.21 120.99 59.99 129.91 C 59.89 133.58 60.11 137.25 60.20 140.92 C 59.01 143.26 57.42 145.38 55.98 147.57 C 56.34 151.61 56.01 155.65 56.05 159.69 C 56.64 159.66 57.82 159.61 58.41 159.58 C 57.82 157.04 56.98 154.55 56.59 151.96 C 56.48 149.02 58.13 146.42 59.29 143.84 C 59.76 144.33 60.70 145.32 61.17 145.82 C 61.08 144.25 60.96 142.69 60.82 141.14 C 63.65 142.68 66.30 144.74 69.51 145.44 C 73.01 145.97 76.61 145.68 80.08 146.49 C 88.18 148.55 96.34 145.59 103.98 143.07 C 104.24 143.53 104.76 144.45 105.02 144.90 C 107.08 143.48 106.40 141.01 106.37 138.87 C 104.91 134.44 105.41 129.62 105.36 125.01 C 105.19 120.37 108.10 116.48 109.00 112.08 C 109.17 108.40 108.03 104.83 107.10 101.31 C 109.75 95.87 109.36 89.67 108.99 83.81 C 112.13 82.28 115.53 81.38 118.60 79.71 C 122.08 78.00 124.76 75.14 127.76 72.76 C 131.87 68.57 134.13 63.03 137.05 58.04 C 138.61 55.58 140.44 53.30 141.75 50.70 C 142.99 48.33 142.39 45.59 142.21 43.06 C 141.71 42.71 140.69 42.01 140.19 41.66 C 140.99 44.05 141.59 46.74 140.51 49.16 C 138.75 53.01 135.68 56.09 133.93 59.96 C 130.53 67.10 125.64 73.75 118.70 77.78 C 115.59 79.02 112.34 79.89 109.34 81.39 C 108.35 81.88 106.94 82.42 107.19 83.82 C 107.12 87.93 107.07 92.04 106.81 96.14 C 106.05 95.49 105.28 94.84 104.50 94.20 C 104.49 100.27 107.36 105.95 106.92 112.03 C 106.56 116.43 103.72 119.96 101.07 123.27 C 100.22 123.16 98.52 122.94 97.67 122.82 C 98.14 119.73 96.71 117.09 94.72 114.87 C 95.22 118.22 95.79 122.40 92.88 124.85 C 89.97 125.24 86.69 124.24 84.19 126.22 C 82.21 127.81 79.95 125.47 77.84 125.23 C 79.19 127.11 81.04 128.56 83.34 129.04 C 85.34 127.60 87.66 126.84 90.14 127.07 C 92.85 127.42 94.49 124.75 96.94 124.22 C 98.05 124.63 99.11 125.17 100.11 125.83 C 101.14 124.86 102.17 123.89 103.22 122.94 C 103.22 128.48 103.80 134.00 104.46 139.49 C 100.33 141.99 95.73 143.22 91.01 143.93 C 84.69 146.11 78.43 142.48 72.03 143.10 C 68.37 143.56 65.30 141.30 62.25 139.67 C 61.06 133.02 61.99 125.86 58.25 119.84 C 58.91 119.45 59.57 119.07 60.24 118.70 C 61.80 118.68 63.35 118.55 64.89 118.32 C 65.75 118.43 67.48 118.66 68.34 118.78 C 67.26 117.61 66.12 116.49 65.01 115.36 C 63.16 116.93 61.00 117.33 58.85 116.06 C 58.27 116.94 57.67 117.80 57.00 118.61 C 54.35 116.01 52.66 112.66 50.07 110.02 C 45.09 105.46 45.73 98.18 43.96 92.17 C 45.07 93.04 46.17 93.94 47.26 94.85 C 47.68 94.40 48.51 93.50 48.92 93.05 C 47.39 91.92 45.82 90.85 44.10 90.03 C 36.71 86.97 29.71 82.65 24.25 76.74 C 21.72 74.06 20.51 70.50 18.80 67.30 C 16.99 63.07 14.24 59.34 11.10 56.02 C 11.62 53.58 12.98 51.38 15.34 50.36 C 19.88 48.19 22.59 43.39 27.48 41.82 C 33.29 39.19 39.89 39.50 45.67 36.84 C 51.14 34.57 56.95 33.26 62.50 31.23 C 64.08 32.72 65.50 34.42 67.32 35.64 C 69.50 36.51 71.86 36.79 74.11 37.45 C 70.27 38.22 66.01 37.12 62.60 39.58 C 55.80 43.97 50.62 50.52 43.48 54.46 C 37.86 57.43 31.29 54.33 25.44 56.68 C 25.37 56.87 25.23 57.26 25.15 57.46 C 26.80 57.18 28.45 56.92 30.09 56.67 C 30.61 57.02 31.63 57.71 32.14 58.06 C 37.50 58.83 42.33 62.05 45.40 66.46 C 47.00 69.70 46.24 73.70 48.09 76.80 C 50.97 78.79 53.77 80.94 55.46 84.12 L 56.55 83.62 C 55.96 84.36 55.36 85.09 54.75 85.82 C 50.79 85.29 47.79 82.21 43.82 81.81 C 46.78 85.33 51.20 87.25 55.71 87.78 C 55.86 87.09 56.18 85.71 56.33 85.03 C 57.98 87.34 59.60 89.70 60.81 92.28 C 61.33 91.70 61.85 91.12 62.37 90.55 C 61.95 90.40 61.13 90.12 60.71 89.97 C 60.77 89.25 60.87 87.80 60.93 87.07 C 58.88 84.42 57.12 81.56 54.92 79.04 C 53.17 77.09 49.25 77.26 49.12 74.05 C 49.06 72.52 47.59 70.48 48.99 69.24 C 54.34 67.46 57.08 74.09 61.91 74.83 C 65.92 75.89 70.01 74.98 74.03 74.52 C 76.84 73.97 79.41 75.49 81.85 76.66 C 80.27 75.20 78.97 73.39 77.07 72.34 C 72.40 72.60 67.73 73.20 63.04 73.05 C 60.76 72.06 59.09 70.05 57.16 68.53 C 59.07 66.81 61.25 65.44 63.42 64.06 C 63.70 58.91 62.64 53.86 62.29 48.75 C 64.96 51.57 66.63 55.16 68.71 58.41 C 73.24 61.92 79.04 63.83 84.74 62.26 C 84.46 63.40 83.46 64.46 83.57 65.65 C 84.19 66.08 84.81 66.51 85.43 66.95 C 84.08 69.08 84.72 71.43 85.10 73.70 L 83.61 72.66 C 83.92 78.52 87.26 72.41 89.77 71.99 C 93.24 71.26 95.03 68.33 96.71 65.52 C 98.99 61.51 104.10 61.48 108.01 60.30 C 105.51 63.83 104.01 67.97 102.81 72.09 C 102.95 77.28 103.02 82.48 102.58 87.66 C 101.87 87.68 100.45 87.72 99.74 87.74 C 99.73 88.45 99.72 89.17 99.72 89.89 C 100.87 90.91 101.99 91.96 103.09 93.04 C 100.71 93.56 98.43 94.47 96.04 94.93 C 94.23 94.59 92.78 93.33 91.18 92.49 C 90.89 93.24 90.59 93.99 90.30 94.74 C 91.91 95.38 93.51 96.07 95.19 96.49 C 97.86 96.24 100.45 95.37 103.10 94.95 C 105.58 89.39 104.67 83.13 105.63 77.25 C 105.02 76.12 104.44 74.98 103.89 73.82 C 107.27 70.17 109.16 65.21 108.83 60.22 C 112.28 56.35 116.21 53.04 120.28 49.84 C 123.28 49.65 126.31 49.68 129.28 49.14 C 127.04 46.10 123.24 47.50 120.13 47.81 C 112.09 42.93 103.22 39.66 93.96 38.03 C 92.91 38.67 91.86 39.33 90.82 39.97 C 89.10 39.45 87.27 39.21 85.64 38.42 C 83.43 37.04 81.56 34.94 78.91 34.40 C 76.37 34.05 73.81 34.39 71.27 34.35 C 69.01 32.66 66.40 31.52 64.16 29.80 L 64.90 28.43 C 63.35 28.84 61.82 29.28 60.28 29.71 C 61.02 27.77 61.67 25.68 63.21 24.20 C 66.71 21.44 71.39 20.86 75.69 21.51 C 72.06 24.90 65.75 22.00 63.10 27.05 C 63.74 27.46 64.38 27.86 65.02 28.25 C 67.28 24.62 72.05 26.13 75.47 24.56 C 76.58 23.37 77.49 21.80 79.12 21.23 C 81.36 21.29 83.58 21.65 85.82 21.82 C 88.39 24.28 90.69 27.03 93.40 29.33 C 98.54 32.62 105.01 32.81 110.89 32.31 C 117.90 30.35 125.29 32.94 131.18 36.78 C 134.19 38.80 137.60 40.12 141.09 41.02 C 135.29 35.03 127.70 29.53 118.99 29.66 C 111.79 29.34 104.46 31.49 97.37 29.54 C 93.04 27.48 90.90 22.69 86.97 20.10 C 82.02 19.45 76.98 19.47 72.00 19.10 C 65.24 18.68 58.15 23.40 57.98 30.64 M 130.43 52.02 C 128.86 54.80 127.44 57.78 124.94 59.86 C 122.05 62.64 118.24 63.97 114.75 65.77 C 111.67 67.91 110.41 71.68 108.74 74.88 C 111.78 73.10 113.14 69.69 115.55 67.32 C 119.99 64.94 125.14 63.33 128.38 59.23 C 130.00 57.27 132.39 54.56 130.43 52.02 M 24.90 65.27 C 27.59 67.48 30.90 69.08 32.77 72.13 C 34.48 74.74 36.72 77.11 39.59 78.45 C 42.12 79.55 44.97 81.12 47.71 79.71 C 44.09 77.94 39.76 77.17 37.13 73.84 C 34.99 71.12 32.83 68.42 30.31 66.03 C 28.50 65.83 26.69 65.61 24.90 65.27 M 85.07 82.04 C 85.96 85.58 88.56 89.16 86.94 92.87 C 85.95 98.24 78.36 95.79 75.99 100.22 C 79.64 99.47 83.64 99.01 86.73 96.79 C 88.23 94.73 89.08 92.29 90.12 89.98 C 88.94 86.97 87.81 83.92 86.40 81.00 C 86.07 81.26 85.41 81.78 85.07 82.04 M 55.04 90.54 C 56.38 93.19 59.07 94.79 61.11 96.86 C 63.81 99.08 66.53 102.31 70.41 101.73 C 65.66 98.16 61.55 93.81 56.78 90.27 L 55.04 90.54 M 70.88 93.48 C 70.57 94.07 69.94 95.26 69.63 95.85 C 70.42 96.46 71.20 97.07 71.99 97.69 C 72.55 97.57 73.67 97.33 74.23 97.21 C 74.27 96.39 74.32 95.58 74.37 94.77 C 73.21 94.33 72.04 93.90 70.88 93.48 M 93.66 101.82 C 92.78 101.74 91.90 101.65 91.03 101.56 C 93.51 103.62 94.88 106.87 93.17 109.89 C 90.52 109.68 87.83 109.96 86.40 112.49 C 83.75 112.77 81.99 114.64 80.42 116.61 C 77.95 116.02 75.86 114.66 74.00 112.98 C 73.87 113.40 73.61 114.25 73.49 114.67 C 75.32 117.01 78.12 117.87 80.82 118.76 C 81.65 117.64 82.48 116.52 83.32 115.41 C 85.62 115.07 87.66 114.01 89.26 112.32 C 90.99 111.93 93.20 112.15 94.37 110.54 C 95.10 109.09 95.40 107.47 95.91 105.94 C 94.85 104.89 93.78 103.86 92.68 102.86 C 94.38 102.57 95.64 101.41 96.94 100.41 C 98.39 100.85 99.85 101.30 101.32 101.70 C 99.94 100.43 98.46 99.27 96.98 98.12 C 95.76 99.26 94.75 100.57 93.66 101.82 M 81.37 106.99 C 79.30 107.48 77.87 108.88 78.01 111.11 C 78.93 110.40 79.84 109.68 80.74 108.95 C 84.08 107.80 84.73 103.96 87.08 101.69 C 87.62 101.61 88.69 101.43 89.23 101.34 C 89.22 100.91 89.20 100.07 89.19 99.64 C 84.85 99.40 82.75 103.56 81.37 106.99 M 57.92 111.54 C 58.36 111.60 59.25 111.72 59.70 111.79 C 62.43 114.21 66.08 112.62 69.27 112.40 C 68.57 111.61 67.90 110.81 67.24 109.99 C 64.93 111.29 62.37 111.36 59.83 110.75 C 59.94 109.00 60.33 107.32 62.21 106.70 C 62.05 104.74 61.87 102.77 61.16 100.92 C 59.51 104.24 57.88 107.74 57.92 111.54 M 70.38 102.13 C 70.30 105.46 73.46 100.77 70.38 102.13 M 95.98 108.03 C 95.89 108.64 95.70 109.87 95.61 110.49 C 99.26 110.12 102.71 111.38 106.30 111.63 C 104.60 109.87 102.42 108.83 100.12 108.12 C 99.71 108.31 98.88 108.68 98.47 108.86 C 97.84 108.65 96.60 108.24 95.98 108.03 M 71.33 121.19 C 71.09 123.68 74.08 124.12 75.95 124.07 C 77.63 123.68 78.31 121.92 79.19 120.64 C 76.60 121.19 73.97 121.58 71.33 121.19 M 54.28 121.33 C 54.90 121.82 54.90 121.82 54.28 121.33 M 64.39 123.13 C 64.28 123.77 64.05 125.05 63.93 125.69 C 66.25 127.91 70.30 130.61 73.23 127.99 C 69.89 127.09 67.40 124.61 64.39 123.13 M 78.83 130.01 C 79.70 131.93 81.46 133.10 83.22 134.11 C 82.24 132.21 81.36 129.95 78.83 130.01 M 93.43 136.91 C 95.41 135.68 96.59 133.61 97.53 131.54 C 95.06 132.33 93.41 134.27 93.43 136.91 M 79.42 133.80 C 78.82 137.42 82.07 139.72 83.85 142.42 C 85.35 142.63 86.86 142.80 88.38 142.89 C 85.02 140.22 82.06 137.18 79.42 133.80 M 64.29 146.70 C 64.52 146.96 65.00 147.47 65.23 147.72 C 63.51 150.67 62.31 153.92 62.13 157.35 C 62.85 157.77 63.58 158.19 64.30 158.62 C 64.29 156.90 64.31 155.18 64.26 153.46 C 65.09 151.89 65.97 150.36 66.82 148.80 C 69.20 149.64 71.66 150.30 73.90 151.49 C 72.26 156.20 68.20 159.30 63.84 161.34 C 64.39 161.54 65.50 161.94 66.06 162.14 C 70.51 160.30 75.24 157.10 75.25 151.71 C 83.92 153.56 93.73 153.18 100.88 147.36 C 92.58 149.77 83.72 152.00 75.15 149.55 C 71.60 148.34 67.95 147.49 64.29 146.70 M 76.26 163.32 C 79.27 163.11 81.57 161.15 83.80 159.33 C 81.08 160.23 77.99 160.76 76.26 163.32 Z" />
<path fill="#FFFFFF" opacity="1.00" d=" M 76.45 36.23 C 80.91 36.39 83.72 40.44 87.86 41.59 C 88.59 46.66 89.26 52.27 86.97 57.02 C 84.40 61.24 78.90 60.38 74.80 59.54 C 70.35 58.43 68.17 53.89 66.91 49.88 C 64.16 48.43 61.51 46.76 59.37 44.47 C 63.06 40.79 68.27 41.33 72.96 40.37 C 75.25 40.29 75.54 37.82 76.45 36.23 Z" />
<path fill="#FFFFFF" opacity="1.00" d=" M 90.20 42.01 C 100.21 38.81 109.15 45.88 117.97 49.40 C 115.07 51.70 112.08 53.91 109.52 56.59 C 107.88 58.42 105.22 58.32 103.02 58.90 C 100.35 59.34 98.09 60.97 95.64 62.02 C 95.52 62.53 95.27 63.54 95.15 64.04 C 92.19 63.00 87.51 63.72 86.40 60.01 C 91.82 55.69 89.82 48.01 90.20 42.01 Z" />
<path fill="#FFFFFF" opacity="1.00" d=" M 47.02 55.07 C 51.54 52.53 54.62 48.15 59.05 45.48 C 62.01 50.96 61.30 57.11 60.81 63.05 C 58.84 64.34 56.95 65.78 54.81 66.80 C 52.44 66.82 50.06 66.58 47.68 66.67 C 45.20 63.39 42.44 60.32 39.26 57.71 C 41.87 56.89 44.62 56.42 47.02 55.07 Z" />
<path fill="#FFFFFF" opacity="1.00" d=" M 86.86 64.34 C 88.97 64.92 91.07 65.50 93.18 66.07 C 92.75 66.92 92.32 67.76 91.89 68.61 C 90.22 69.35 88.55 70.10 86.97 71.01 C 86.45 70.79 85.94 70.56 85.43 70.33 C 85.98 68.35 86.42 66.34 86.86 64.34 Z" />
</g>
<g id="#333532ff">
<path fill="#333333" opacity="1.00" d=" M 57.98 30.64 C 58.15 23.40 65.24 18.68 72.00 19.10 C 76.98 19.47 82.02 19.45 86.97 20.10 C 90.90 22.69 93.04 27.48 97.37 29.54 C 104.46 31.49 111.79 29.34 118.99 29.66 C 127.70 29.53 135.29 35.03 141.09 41.02 C 137.60 40.12 134.19 38.80 131.18 36.78 C 125.29 32.94 117.90 30.35 110.89 32.31 C 105.01 32.81 98.54 32.62 93.40 29.33 C 90.69 27.03 88.39 24.28 85.82 21.82 C 83.58 21.65 81.36 21.29 79.12 21.23 C 77.49 21.80 76.58 23.37 75.47 24.56 C 72.05 26.13 67.28 24.62 65.02 28.25 C 64.38 27.86 63.74 27.46 63.10 27.05 C 65.75 22.00 72.06 24.90 75.69 21.51 C 71.39 20.86 66.71 21.44 63.21 24.20 C 61.67 25.68 61.02 27.77 60.28 29.71 C 61.82 29.28 63.35 28.84 64.90 28.43 L 64.16 29.80 C 66.40 31.52 69.01 32.66 71.27 34.35 C 73.81 34.39 76.37 34.05 78.91 34.40 C 81.56 34.94 83.43 37.04 85.64 38.42 C 87.27 39.21 89.10 39.45 90.82 39.97 C 91.86 39.33 92.91 38.67 93.96 38.03 C 103.22 39.66 112.09 42.93 120.13 47.81 C 123.24 47.50 127.04 46.10 129.28 49.14 C 126.31 49.68 123.28 49.65 120.28 49.84 C 116.21 53.04 112.28 56.35 108.83 60.22 C 109.16 65.21 107.27 70.17 103.89 73.82 C 104.44 74.98 105.02 76.12 105.63 77.25 C 104.67 83.13 105.58 89.39 103.10 94.95 C 100.45 95.37 97.86 96.24 95.19 96.49 C 93.51 96.07 91.91 95.38 90.30 94.74 C 90.59 93.99 90.89 93.24 91.18 92.49 C 92.78 93.33 94.23 94.59 96.04 94.93 C 98.43 94.47 100.71 93.56 103.09 93.04 C 101.99 91.96 100.87 90.91 99.72 89.89 C 99.72 89.17 99.73 88.45 99.74 87.74 C 100.45 87.72 101.87 87.68 102.58 87.66 C 103.02 82.48 102.95 77.28 102.81 72.09 C 104.01 67.97 105.51 63.83 108.01 60.30 C 104.10 61.48 98.99 61.51 96.71 65.52 C 95.03 68.33 93.24 71.26 89.77 71.99 C 87.26 72.41 83.92 78.52 83.61 72.66 L 85.10 73.70 C 84.72 71.43 84.08 69.08 85.43 66.95 C 84.81 66.51 84.19 66.08 83.57 65.65 C 83.46 64.46 84.46 63.40 84.74 62.26 C 79.04 63.83 73.24 61.92 68.71 58.41 C 66.63 55.16 64.96 51.57 62.29 48.75 C 62.64 53.86 63.70 58.91 63.42 64.06 C 61.25 65.44 59.07 66.81 57.16 68.53 C 59.09 70.05 60.76 72.06 63.04 73.05 C 67.73 73.20 72.40 72.60 77.07 72.34 C 78.97 73.39 80.27 75.20 81.85 76.66 C 79.41 75.49 76.84 73.97 74.03 74.52 C 70.01 74.98 65.92 75.89 61.91 74.83 C 57.08 74.09 54.34 67.46 48.99 69.24 C 47.59 70.48 49.06 72.52 49.12 74.05 C 49.25 77.26 53.17 77.09 54.92 79.04 C 57.12 81.56 58.88 84.42 60.93 87.07 C 60.87 87.80 60.77 89.25 60.71 89.97 C 61.13 90.12 61.95 90.40 62.37 90.55 C 61.85 91.12 61.33 91.70 60.81 92.28 C 59.60 89.70 57.98 87.34 56.33 85.03 C 56.18 85.71 55.86 87.09 55.71 87.78 C 51.20 87.25 46.78 85.33 43.82 81.81 C 47.79 82.21 50.79 85.29 54.75 85.82 C 55.36 85.09 55.96 84.36 56.55 83.62 L 55.46 84.12 C 53.77 80.94 50.97 78.79 48.09 76.80 C 46.24 73.70 47.00 69.70 45.40 66.46 C 42.33 62.05 37.50 58.83 32.14 58.06 C 31.63 57.71 30.61 57.02 30.09 56.67 C 28.45 56.92 26.80 57.18 25.15 57.46 C 25.23 57.26 25.37 56.87 25.44 56.68 C 31.29 54.33 37.86 57.43 43.48 54.46 C 50.62 50.52 55.80 43.97 62.60 39.58 C 66.01 37.12 70.27 38.22 74.11 37.45 C 71.86 36.79 69.50 36.51 67.32 35.64 C 65.50 34.42 64.08 32.72 62.50 31.23 C 56.95 33.26 51.14 34.57 45.67 36.84 C 39.89 39.50 33.29 39.19 27.48 41.82 C 22.59 43.39 19.88 48.19 15.34 50.36 C 12.98 51.38 11.62 53.58 11.10 56.02 C 14.24 59.34 16.99 63.07 18.80 67.30 C 20.51 70.50 21.72 74.06 24.25 76.74 C 29.71 82.65 36.71 86.97 44.10 90.03 C 45.82 90.85 47.39 91.92 48.92 93.05 C 48.51 93.50 47.68 94.40 47.26 94.85 C 46.17 93.94 45.07 93.04 43.96 92.17 C 45.73 98.18 45.09 105.46 50.07 110.02 C 52.66 112.66 54.35 116.01 57.00 118.61 C 57.67 117.80 58.27 116.94 58.85 116.06 C 61.00 117.33 63.16 116.93 65.01 115.36 C 66.12 116.49 67.26 117.61 68.34 118.78 C 67.48 118.66 65.75 118.43 64.89 118.32 C 63.35 118.55 61.80 118.68 60.24 118.70 C 59.57 119.07 58.91 119.45 58.25 119.84 C 61.99 125.86 61.06 133.02 62.25 139.67 C 65.30 141.30 68.37 143.56 72.03 143.10 C 78.43 142.48 84.69 146.11 91.01 143.93 C 95.73 143.22 100.33 141.99 104.46 139.49 C 103.80 134.00 103.22 128.48 103.22 122.94 C 102.17 123.89 101.14 124.86 100.11 125.83 C 99.11 125.17 98.05 124.63 96.94 124.22 C 94.49 124.75 92.85 127.42 90.14 127.07 C 87.66 126.84 85.34 127.60 83.34 129.04 C 81.04 128.56 79.19 127.11 77.84 125.23 C 79.95 125.47 82.21 127.81 84.19 126.22 C 86.69 124.24 89.97 125.24 92.88 124.85 C 95.79 122.40 95.22 118.22 94.72 114.87 C 96.71 117.09 98.14 119.73 97.67 122.82 C 98.52 122.94 100.22 123.16 101.07 123.27 C 103.72 119.96 106.56 116.43 106.92 112.03 C 107.36 105.95 104.49 100.27 104.50 94.20 C 105.28 94.84 106.05 95.49 106.81 96.14 C 107.07 92.04 107.12 87.93 107.19 83.82 C 106.94 82.42 108.35 81.88 109.34 81.39 C 112.34 79.89 115.59 79.02 118.70 77.78 C 125.64 73.75 130.53 67.10 133.93 59.96 C 135.68 56.09 138.75 53.01 140.51 49.16 C 141.59 46.74 140.99 44.05 140.19 41.66 C 140.69 42.01 141.71 42.71 142.21 43.06 C 142.39 45.59 142.99 48.33 141.75 50.70 C 140.44 53.30 138.61 55.58 137.05 58.04 C 134.13 63.03 131.87 68.57 127.76 72.76 C 124.76 75.14 122.08 78.00 118.60 79.71 C 115.53 81.38 112.13 82.28 108.99 83.81 C 109.36 89.67 109.75 95.87 107.10 101.31 C 108.03 104.83 109.17 108.40 109.00 112.08 C 108.10 116.48 105.19 120.37 105.36 125.01 C 105.41 129.62 104.91 134.44 106.37 138.87 C 106.40 141.01 107.08 143.48 105.02 144.90 C 104.76 144.45 104.24 143.53 103.98 143.07 C 96.34 145.59 88.18 148.55 80.08 146.49 C 76.61 145.68 73.01 145.97 69.51 145.44 C 66.30 144.74 63.65 142.68 60.82 141.14 C 60.96 142.69 61.08 144.25 61.17 145.82 C 60.70 145.32 59.76 144.33 59.29 143.84 C 58.13 146.42 56.48 149.02 56.59 151.96 C 56.98 154.55 57.82 157.04 58.41 159.58 C 57.82 159.61 56.64 159.66 56.05 159.69 C 56.01 155.65 56.34 151.61 55.98 147.57 C 57.42 145.38 59.01 143.26 60.20 140.92 C 60.11 137.25 59.89 133.58 59.99 129.91 C 58.21 120.99 50.14 115.60 46.36 107.68 C 43.20 102.46 42.70 96.02 39.33 90.95 C 32.69 87.10 25.76 83.06 21.37 76.54 C 16.99 69.95 15.16 61.90 10.11 55.72 C 10.60 54.06 10.75 52.15 12.04 50.87 C 13.73 49.15 16.17 48.51 18.03 47.02 C 20.30 44.98 22.07 42.33 24.80 40.83 C 31.53 37.13 39.52 37.33 46.49 34.31 C 50.21 32.76 54.13 31.80 57.98 30.64 M 76.45 36.23 C 75.54 37.82 75.25 40.29 72.96 40.37 C 68.27 41.33 63.06 40.79 59.37 44.47 C 61.51 46.76 64.16 48.43 66.91 49.88 C 68.17 53.89 70.35 58.43 74.80 59.54 C 78.90 60.38 84.40 61.24 86.97 57.02 C 89.26 52.27 88.59 46.66 87.86 41.59 C 83.72 40.44 80.91 36.39 76.45 36.23 M 90.20 42.01 C 89.82 48.01 91.82 55.69 86.40 60.01 C 87.51 63.72 92.19 63.00 95.15 64.04 C 95.27 63.54 95.52 62.53 95.64 62.02 C 98.09 60.97 100.35 59.34 103.02 58.90 C 105.22 58.32 107.88 58.42 109.52 56.59 C 112.08 53.91 115.07 51.70 117.97 49.40 C 109.15 45.88 100.21 38.81 90.20 42.01 M 47.02 55.07 C 44.62 56.42 41.87 56.89 39.26 57.71 C 42.44 60.32 45.20 63.39 47.68 66.67 C 50.06 66.58 52.44 66.82 54.81 66.80 C 56.95 65.78 58.84 64.34 60.81 63.05 C 61.30 57.11 62.01 50.96 59.05 45.48 C 54.62 48.15 51.54 52.53 47.02 55.07 M 86.86 64.34 C 86.42 66.34 85.98 68.35 85.43 70.33 C 85.94 70.56 86.45 70.79 86.97 71.01 C 88.55 70.10 90.22 69.35 91.89 68.61 C 92.32 67.76 92.75 66.92 93.18 66.07 C 91.07 65.50 88.97 64.92 86.86 64.34 Z" />
<path fill="#333333" opacity="1.00" d=" M 130.43 52.02 C 132.39 54.56 130.00 57.27 128.38 59.23 C 125.14 63.33 119.99 64.94 115.55 67.32 C 113.14 69.69 111.78 73.10 108.74 74.88 C 110.41 71.68 111.67 67.91 114.75 65.77 C 118.24 63.97 122.05 62.64 124.94 59.86 C 127.44 57.78 128.86 54.80 130.43 52.02 Z" />
<path fill="#333333" opacity="1.00" d=" M 24.90 65.27 C 26.69 65.61 28.50 65.83 30.31 66.03 C 32.83 68.42 34.99 71.12 37.13 73.84 C 39.76 77.17 44.09 77.94 47.71 79.71 C 44.97 81.12 42.12 79.55 39.59 78.45 C 36.72 77.11 34.48 74.74 32.77 72.13 C 30.90 69.08 27.59 67.48 24.90 65.27 Z" />
<path fill="#333333" opacity="1.00" d=" M 85.07 82.04 C 85.41 81.78 86.07 81.26 86.40 81.00 C 87.81 83.92 88.94 86.97 90.12 89.98 C 89.08 92.29 88.23 94.73 86.73 96.79 C 83.64 99.01 79.64 99.47 75.99 100.22 C 78.36 95.79 85.95 98.24 86.94 92.87 C 88.56 89.16 85.96 85.58 85.07 82.04 Z" />
<path fill="#333333" opacity="1.00" d=" M 55.04 90.54 L 56.78 90.27 C 61.55 93.81 65.66 98.16 70.41 101.73 C 66.53 102.31 63.81 99.08 61.11 96.86 C 59.07 94.79 56.38 93.19 55.04 90.54 Z" />
<path fill="#333333" opacity="1.00" d=" M 70.88 93.48 C 72.04 93.90 73.21 94.33 74.37 94.77 C 74.32 95.58 74.27 96.39 74.23 97.21 C 73.67 97.33 72.55 97.57 71.99 97.69 C 71.20 97.07 70.42 96.46 69.63 95.85 C 69.94 95.26 70.57 94.07 70.88 93.48 Z" />
<path fill="#333333" opacity="1.00" d=" M 93.66 101.82 C 94.75 100.57 95.76 99.26 96.98 98.12 C 98.46 99.27 99.94 100.43 101.32 101.70 C 99.85 101.30 98.39 100.85 96.94 100.41 C 95.64 101.41 94.38 102.57 92.68 102.86 C 93.78 103.86 94.85 104.89 95.91 105.94 C 95.40 107.47 95.10 109.09 94.37 110.54 C 93.20 112.15 90.99 111.93 89.26 112.32 C 87.66 114.01 85.62 115.07 83.32 115.41 C 82.48 116.52 81.65 117.64 80.82 118.76 C 78.12 117.87 75.32 117.01 73.49 114.67 C 73.61 114.25 73.87 113.40 74.00 112.98 C 75.86 114.66 77.95 116.02 80.42 116.61 C 81.99 114.64 83.75 112.77 86.40 112.49 C 87.83 109.96 90.52 109.68 93.17 109.89 C 94.88 106.87 93.51 103.62 91.03 101.56 C 91.90 101.65 92.78 101.74 93.66 101.82 Z" />
<path fill="#333333" opacity="1.00" d=" M 81.37 106.99 C 82.75 103.56 84.85 99.40 89.19 99.64 C 89.20 100.07 89.22 100.91 89.23 101.34 C 88.69 101.43 87.62 101.61 87.08 101.69 C 84.73 103.96 84.08 107.80 80.74 108.95 C 79.84 109.68 78.93 110.40 78.01 111.11 C 77.87 108.88 79.30 107.48 81.37 106.99 Z" />
<path fill="#333333" opacity="1.00" d=" M 57.92 111.54 C 57.88 107.74 59.51 104.24 61.16 100.92 C 61.87 102.77 62.05 104.74 62.21 106.70 C 60.33 107.32 59.94 109.00 59.83 110.75 C 62.37 111.36 64.93 111.29 67.24 109.99 C 67.90 110.81 68.57 111.61 69.27 112.40 C 66.08 112.62 62.43 114.21 59.70 111.79 C 59.25 111.72 58.36 111.60 57.92 111.54 Z" />
<path fill="#333333" opacity="1.00" d=" M 70.38 102.13 C 73.46 100.77 70.30 105.46 70.38 102.13 Z" />
<path fill="#333333" opacity="1.00" d=" M 95.98 108.03 C 96.60 108.24 97.84 108.65 98.47 108.86 C 98.88 108.68 99.71 108.31 100.12 108.12 C 102.42 108.83 104.60 109.87 106.30 111.63 C 102.71 111.38 99.26 110.12 95.61 110.49 C 95.70 109.87 95.89 108.64 95.98 108.03 Z" />
<path fill="#333333" opacity="1.00" d=" M 71.33 121.19 C 73.97 121.58 76.60 121.19 79.19 120.64 C 78.31 121.92 77.63 123.68 75.95 124.07 C 74.08 124.12 71.09 123.68 71.33 121.19 Z" />
<path fill="#333333" opacity="1.00" d=" M 54.28 121.33 C 54.90 121.82 54.90 121.82 54.28 121.33 Z" />
<path fill="#333333" opacity="1.00" d=" M 64.39 123.13 C 67.40 124.61 69.89 127.09 73.23 127.99 C 70.30 130.61 66.25 127.91 63.93 125.69 C 64.05 125.05 64.28 123.77 64.39 123.13 Z" />
<path fill="#333333" opacity="1.00" d=" M 78.83 130.01 C 81.36 129.95 82.24 132.21 83.22 134.11 C 81.46 133.10 79.70 131.93 78.83 130.01 Z" />
<path fill="#333333" opacity="1.00" d=" M 93.43 136.91 C 93.41 134.27 95.06 132.33 97.53 131.54 C 96.59 133.61 95.41 135.68 93.43 136.91 Z" />
<path fill="#333333" opacity="1.00" d=" M 79.42 133.80 C 82.06 137.18 85.02 140.22 88.38 142.89 C 86.86 142.80 85.35 142.63 83.85 142.42 C 82.07 139.72 78.82 137.42 79.42 133.80 Z" />
<path fill="#333333" opacity="1.00" d=" M 64.29 146.70 C 67.95 147.49 71.60 148.34 75.15 149.55 C 83.72 152.00 92.58 149.77 100.88 147.36 C 93.73 153.18 83.92 153.56 75.25 151.71 C 75.24 157.10 70.51 160.30 66.06 162.14 C 65.50 161.94 64.39 161.54 63.84 161.34 C 68.20 159.30 72.26 156.20 73.90 151.49 C 71.66 150.30 69.20 149.64 66.82 148.80 C 65.97 150.36 65.09 151.89 64.26 153.46 C 64.31 155.18 64.29 156.90 64.30 158.62 C 63.58 158.19 62.85 157.77 62.13 157.35 C 62.31 153.92 63.51 150.67 65.23 147.72 C 65.00 147.47 64.52 146.96 64.29 146.70 Z" />
<path fill="#333333" opacity="1.00" d=" M 76.26 163.32 C 77.99 160.76 81.08 160.23 83.80 159.33 C 81.57 161.15 79.27 163.11 76.26 163.32 Z" />
</g>
</svg>
