<?xml version="1.0" encoding="UTF-8" ?>
<!DOCTYPE svg PUBLIC "-//W3C//DTD SVG 1.1//EN" "http://www.w3.org/Graphics/SVG/1.1/DTD/svg11.dtd">
<svg width="154pt" height="275pt" viewBox="0 0 154 275" version="1.1" xmlns="http://www.w3.org/2000/svg">
<g id="#ffffffff">
<path fill="#FFFFFF" opacity="1.00" d=" M 0.00 0.00 L 154.00 0.00 L 154.00 275.00 L 0.00 275.00 L 0.00 0.00 M 73.16 17.17 C 69.24 20.66 67.61 26.81 70.40 31.48 C 69.88 31.78 68.85 32.38 68.33 32.68 C 68.87 34.90 69.45 37.14 70.60 39.13 C 69.93 41.95 70.41 45.19 68.66 47.66 C 67.27 49.26 65.46 50.41 63.83 51.74 C 60.58 54.14 58.34 57.63 54.98 59.92 C 52.04 61.99 50.43 65.44 50.13 68.97 C 49.57 74.67 47.55 80.31 48.57 86.08 C 49.80 93.97 50.69 102.04 53.98 109.41 C 54.47 109.37 55.44 109.29 55.92 109.26 C 56.95 113.14 56.04 117.16 56.51 121.11 C 55.61 121.72 54.65 122.26 53.71 122.80 C 52.96 125.78 52.13 128.89 52.91 131.96 C 54.60 138.84 52.11 146.31 47.06 151.16 C 47.68 151.44 48.91 151.98 49.52 152.25 C 48.44 158.16 49.13 164.16 48.89 170.12 C 48.55 174.01 46.08 177.21 44.50 180.66 C 43.06 183.51 43.11 186.87 41.63 189.71 C 34.01 200.43 31.59 214.17 32.53 227.10 C 32.70 230.81 30.74 234.28 31.29 238.01 C 28.90 242.26 27.57 247.08 24.52 250.95 C 24.93 252.81 24.89 254.95 26.23 256.46 C 29.69 259.82 34.73 262.87 39.62 260.58 C 41.48 261.26 43.36 260.81 45.14 260.11 C 45.05 254.06 45.21 247.98 44.27 242.00 C 44.81 240.64 45.58 239.39 46.09 238.03 C 45.49 232.88 43.71 227.25 46.20 222.33 C 48.38 217.03 52.94 212.98 54.23 207.26 C 56.57 202.06 55.12 195.71 58.71 191.03 C 62.46 185.91 65.21 179.90 65.93 173.55 C 64.92 174.28 63.71 174.95 63.47 176.30 C 62.12 181.02 60.71 185.85 57.81 189.88 C 52.33 196.97 54.09 206.91 49.33 214.33 C 45.75 219.35 43.18 225.05 41.77 231.05 C 41.33 233.43 40.31 236.48 42.67 238.24 C 43.03 236.07 43.29 233.90 43.57 231.72 C 43.64 233.14 43.71 234.56 43.78 235.99 C 41.12 240.70 43.68 245.96 42.72 250.97 C 42.78 253.32 41.35 256.23 43.73 257.91 C 42.58 258.19 41.43 259.42 40.24 258.77 C 39.56 257.27 40.03 255.36 39.00 254.06 C 35.56 252.46 31.83 251.55 28.28 250.19 C 30.37 253.08 33.83 254.07 37.03 255.20 C 36.58 255.91 35.67 257.32 35.21 258.03 C 35.73 258.67 36.29 259.31 36.73 260.02 C 32.29 258.70 26.30 256.30 26.37 250.79 C 27.34 249.27 28.24 247.69 28.99 246.04 C 30.77 243.03 32.62 240.07 34.26 236.99 C 32.14 233.49 34.94 229.73 34.73 226.02 C 34.45 221.23 34.27 216.36 35.31 211.64 C 36.81 204.69 38.48 197.50 42.73 191.64 C 45.76 187.76 46.10 182.66 48.19 178.33 C 49.41 175.75 50.72 173.03 50.33 170.09 C 49.92 164.18 50.03 158.24 51.06 152.40 C 54.62 152.28 58.48 154.03 61.85 152.80 C 61.86 152.42 61.87 151.65 61.88 151.27 C 58.44 150.49 54.90 150.95 51.41 150.82 C 54.17 143.20 57.63 134.98 54.56 126.86 C 54.82 126.10 55.35 124.58 55.61 123.81 C 55.98 123.81 56.70 123.80 57.07 123.79 C 57.21 130.09 60.17 135.92 63.31 141.24 C 63.00 143.88 63.46 146.54 64.90 148.81 C 63.23 152.30 61.85 156.04 61.82 159.97 C 61.47 166.22 64.53 172.81 70.05 175.97 C 74.98 178.89 81.66 179.03 86.45 175.75 C 89.92 183.75 86.97 192.57 87.51 200.93 C 88.14 204.00 89.99 206.75 89.88 209.98 C 89.88 217.14 93.90 224.14 91.47 231.26 C 91.75 231.93 92.31 233.28 92.59 233.95 C 91.84 236.96 90.61 239.83 89.99 242.88 C 91.62 245.39 94.30 246.77 96.87 248.10 C 100.00 249.73 101.25 254.21 105.16 254.36 C 107.79 254.90 111.92 255.88 112.56 252.17 C 113.93 251.96 115.29 251.74 116.66 251.53 C 117.52 250.05 118.94 248.76 119.15 246.98 C 118.81 245.59 118.16 244.31 117.55 243.03 C 113.14 242.52 112.43 237.66 110.30 234.59 C 106.31 229.02 103.79 221.87 105.26 214.99 C 106.18 210.67 105.93 206.24 106.38 201.87 C 107.20 194.26 103.94 187.09 102.21 179.84 C 101.64 176.98 102.92 174.22 103.20 171.41 C 103.53 166.56 100.87 161.98 101.63 157.13 C 101.95 154.22 101.71 151.29 101.75 148.37 C 99.55 144.43 99.10 139.85 97.41 135.72 C 95.99 129.86 92.25 124.81 91.41 118.79 C 92.61 117.09 93.45 115.17 93.11 113.05 C 92.59 106.15 94.78 99.48 96.60 92.92 C 97.58 90.05 96.22 87.06 96.69 84.13 C 97.57 81.42 99.32 78.92 99.30 75.97 C 99.43 71.58 96.82 67.84 94.94 64.07 C 93.20 60.42 88.98 59.38 86.06 56.96 C 86.79 55.22 87.51 53.48 88.26 51.76 C 90.31 50.83 92.83 50.13 93.95 47.97 C 95.96 39.06 96.23 29.74 94.24 20.81 C 93.30 17.13 89.49 15.23 86.11 14.42 C 81.76 14.62 76.43 13.52 73.16 17.17 M 55.95 172.70 C 54.56 172.87 53.18 173.12 51.85 173.55 C 54.07 174.83 56.58 174.76 58.99 174.10 C 59.36 175.42 59.72 176.75 60.07 178.09 C 60.58 178.34 61.61 178.83 62.12 179.07 C 61.42 176.32 60.49 173.43 58.29 171.49 C 57.50 171.87 56.72 172.27 55.95 172.70 M 56.51 186.12 C 55.00 188.73 52.06 187.63 49.61 187.89 C 50.65 188.61 51.65 189.42 52.85 189.88 C 54.83 190.07 56.29 188.59 57.80 187.58 C 57.48 187.21 56.83 186.48 56.51 186.12 M 48.41 197.54 C 43.34 204.61 41.34 213.39 40.93 221.95 C 44.17 213.86 45.70 205.15 49.65 197.33 C 49.34 197.38 48.72 197.49 48.41 197.54 Z" />
<path fill="#FFFFFF" opacity="1.00" d=" M 83.08 16.13 C 86.87 15.67 91.04 18.20 91.88 22.03 C 93.71 30.06 94.74 38.49 92.79 46.60 C 91.00 49.12 87.59 50.43 84.58 49.74 C 80.28 48.76 78.51 44.23 75.18 41.77 C 75.47 41.41 76.05 40.68 76.34 40.32 C 75.03 39.40 73.71 38.50 72.39 37.61 C 71.86 36.20 71.30 34.82 70.71 33.44 C 72.31 33.27 73.86 32.87 75.39 32.39 C 74.36 31.93 72.31 31.03 71.29 30.58 C 70.78 26.78 70.73 22.43 73.54 19.44 C 75.83 16.61 79.77 16.58 83.08 16.13 Z" />
<path fill="#FFFFFF" opacity="1.00" d=" M 71.69 38.98 C 73.37 39.61 73.61 41.29 74.16 42.69 C 77.25 47.13 81.09 51.31 86.69 52.29 C 85.46 55.37 83.21 57.81 81.13 60.33 C 79.59 60.09 78.04 59.88 76.49 59.72 C 75.59 56.25 76.52 51.38 73.02 49.21 C 73.50 52.26 74.12 55.29 74.78 58.31 C 70.88 61.22 65.95 54.74 62.31 58.72 C 65.00 59.12 67.71 59.91 70.44 59.57 C 70.85 59.95 71.67 60.69 72.08 61.06 C 72.89 60.87 74.52 60.49 75.33 60.31 C 75.31 65.79 75.44 71.64 72.62 76.55 C 70.44 78.95 68.32 81.44 67.10 84.50 C 68.06 83.89 69.02 83.28 69.99 82.68 C 70.18 86.10 69.79 89.51 69.62 92.93 C 69.42 95.95 70.08 99.05 69.16 102.00 C 68.34 104.80 67.00 107.41 65.96 110.13 C 66.37 110.45 67.18 111.10 67.59 111.42 C 68.43 117.25 70.23 123.01 69.88 128.95 C 69.94 132.97 69.51 137.62 72.31 140.88 C 72.17 141.18 71.90 141.78 71.76 142.07 C 70.54 143.03 69.37 144.05 68.29 145.17 C 67.59 145.76 66.19 146.92 65.49 147.51 C 64.49 144.86 64.06 142.06 63.60 139.29 C 62.19 134.79 59.32 130.84 58.45 126.16 C 57.14 121.12 58.06 115.89 57.72 110.77 C 56.12 102.15 53.07 93.76 53.03 84.89 C 54.82 86.11 57.05 87.23 57.67 89.50 C 58.49 93.16 57.38 96.88 57.39 100.57 C 59.65 96.62 60.83 91.46 58.91 87.14 C 57.24 85.37 54.85 84.51 52.93 83.04 C 53.41 79.42 54.50 75.92 55.06 72.31 C 54.64 72.08 53.80 71.60 53.38 71.37 C 52.82 74.93 51.93 78.44 51.43 82.01 C 51.20 85.74 51.87 89.45 51.96 93.18 C 52.18 98.48 56.00 103.30 54.56 108.72 C 52.65 101.61 51.76 94.30 50.38 87.09 C 48.99 80.59 52.00 74.34 52.37 67.91 C 52.71 63.42 56.92 61.27 59.96 58.75 C 62.72 53.99 68.55 52.18 71.18 47.32 C 72.79 44.80 71.62 41.74 71.69 38.98 M 55.99 71.19 C 56.79 73.57 57.05 77.60 60.32 77.72 C 59.10 75.41 57.76 73.14 55.99 71.19 Z" />
<path fill="#FFFFFF" opacity="1.00" d=" M 82.59 60.10 C 83.52 59.33 84.45 58.57 85.39 57.80 C 86.96 60.33 89.28 62.19 92.01 63.35 C 95.00 68.37 97.68 73.88 97.00 79.90 C 96.46 80.27 95.38 81.00 94.84 81.37 C 93.68 81.30 92.51 81.27 91.35 81.29 C 92.47 79.88 92.90 78.27 92.20 76.60 C 91.43 78.23 90.69 79.88 89.91 81.52 C 86.07 82.01 82.18 84.03 78.29 82.74 C 76.44 82.18 75.06 80.53 73.17 80.15 C 72.46 81.53 74.04 82.26 74.89 83.04 C 77.18 84.89 80.21 85.11 83.01 85.43 C 83.47 85.95 83.92 86.47 84.38 87.00 C 82.89 87.92 81.42 88.85 79.99 89.85 C 81.65 89.67 83.38 89.61 84.92 88.90 C 86.46 87.56 85.71 85.38 85.95 83.61 C 87.82 83.40 89.69 83.17 91.56 82.90 L 90.08 82.00 C 91.37 82.01 92.67 82.03 93.96 82.04 L 93.10 82.26 C 93.72 83.16 94.94 84.95 95.55 85.85 C 94.16 85.34 92.79 84.81 91.40 84.28 C 90.64 86.18 90.15 88.17 89.81 90.18 C 85.02 92.05 79.75 92.88 75.78 96.47 C 81.15 94.58 87.05 94.12 91.89 90.90 C 92.58 91.60 93.24 92.33 93.87 93.09 C 94.03 98.91 90.37 104.10 90.82 109.94 C 90.76 112.19 91.34 114.73 89.94 116.70 C 85.63 119.80 80.16 118.44 75.26 118.53 C 75.50 118.86 75.97 119.53 76.21 119.86 C 81.06 121.24 86.57 121.72 90.84 118.48 C 89.69 124.42 94.52 129.22 95.45 134.85 C 96.32 139.73 99.18 144.58 97.85 149.60 C 97.20 149.39 95.91 148.97 95.26 148.76 L 96.39 148.62 C 94.41 145.69 92.29 142.54 88.92 141.07 C 84.09 139.25 78.19 138.01 73.65 141.24 C 70.35 136.53 70.94 130.40 71.65 125.01 C 71.02 119.27 69.52 113.67 68.82 107.95 C 69.37 104.22 71.77 100.88 71.42 96.97 C 70.89 91.45 72.71 85.91 71.45 80.45 C 75.09 77.33 76.09 72.51 76.97 68.03 C 77.56 66.00 76.63 64.01 76.15 62.06 C 78.73 62.20 81.31 62.27 83.89 62.41 C 85.26 64.35 86.30 66.66 88.48 67.86 C 88.05 64.39 86.13 61.12 82.59 60.10 M 83.08 103.20 C 85.80 102.00 88.67 103.34 91.46 102.66 C 89.73 101.83 87.83 101.92 85.97 102.07 C 87.50 99.72 88.66 97.12 88.95 94.31 C 86.27 96.74 85.12 100.29 83.08 103.20 M 73.70 103.35 C 76.59 103.39 80.07 104.56 82.48 102.40 C 79.51 101.96 76.54 102.53 73.70 103.35 M 83.73 104.56 C 83.31 107.63 83.16 110.85 81.62 113.62 C 82.54 113.42 83.46 113.26 84.38 113.08 C 84.50 110.32 84.81 107.58 85.11 104.84 C 84.77 104.77 84.08 104.63 83.73 104.56 Z" />
<path fill="#FFFFFF" opacity="1.00" d=" M 91.75 84.86 C 96.01 85.42 95.29 89.67 94.63 92.71 C 92.18 90.79 91.73 87.80 91.75 84.86 Z" />
<path fill="#FFFFFF" opacity="1.00" d=" M 75.57 142.60 C 78.13 141.69 80.80 141.14 83.37 140.27 C 87.24 141.88 91.34 143.76 93.47 147.60 C 99.28 157.12 94.23 171.02 83.83 174.88 C 78.12 177.23 70.95 175.51 67.29 170.44 C 60.44 161.38 65.10 146.65 75.57 142.60 Z" />
<path fill="#FFFFFF" opacity="1.00" d=" M 96.69 150.73 C 97.63 150.14 98.63 149.64 99.62 149.13 C 99.81 152.76 99.57 156.39 99.39 160.02 C 99.20 163.17 101.03 165.97 101.31 169.07 C 102.15 172.89 99.66 176.62 100.65 180.44 C 102.32 187.84 105.87 195.09 104.80 202.86 C 104.23 206.73 104.48 210.68 103.66 214.52 C 102.57 219.86 102.91 225.67 105.32 230.62 C 108.18 234.63 110.41 239.03 113.09 243.16 C 111.60 244.42 110.10 245.68 108.78 247.13 C 111.36 246.55 113.51 244.98 115.84 243.82 C 117.90 248.40 113.13 251.99 109.14 252.80 C 107.25 252.39 105.34 252.08 103.44 251.79 C 101.69 246.90 96.51 245.36 92.21 243.49 C 92.51 240.47 93.27 237.47 95.23 235.06 C 94.65 234.09 94.06 233.12 93.48 232.16 C 94.30 229.93 95.14 227.54 94.48 225.14 C 93.40 220.29 92.63 215.38 91.80 210.49 C 92.29 210.02 93.27 209.08 93.76 208.61 C 92.60 206.36 90.88 204.41 89.98 202.03 C 88.95 193.51 91.99 184.59 88.82 176.37 L 87.58 176.51 C 87.74 176.08 88.06 175.21 88.22 174.78 C 91.43 173.03 93.50 169.98 95.41 166.99 C 97.22 166.39 99.79 166.60 99.51 163.45 C 98.63 163.80 96.88 164.51 96.00 164.87 C 98.20 160.55 98.76 155.21 96.69 150.73 M 95.65 181.02 C 96.36 182.04 97.27 182.13 98.37 181.29 C 100.94 178.71 95.45 178.22 95.65 181.02 M 100.14 206.95 C 99.85 211.03 99.78 215.14 100.86 219.13 C 101.41 211.51 102.22 203.75 100.41 196.22 C 98.08 199.40 100.40 203.41 100.14 206.95 Z" />
</g>
<g id="#3f423dff">
<path fill="#333333" opacity="1.00" d=" M 73.16 17.17 C 76.43 13.52 81.76 14.62 86.11 14.42 C 89.49 15.23 93.30 17.13 94.24 20.81 C 96.23 29.74 95.96 39.06 93.95 47.97 C 92.83 50.13 90.31 50.83 88.26 51.76 C 87.51 53.48 86.79 55.22 86.06 56.96 C 88.98 59.38 93.20 60.42 94.94 64.07 C 96.82 67.84 99.43 71.58 99.30 75.97 C 99.32 78.92 97.57 81.42 96.69 84.13 C 96.22 87.06 97.58 90.05 96.60 92.92 C 94.78 99.48 92.59 106.15 93.11 113.05 C 93.45 115.17 92.61 117.09 91.41 118.79 C 92.25 124.81 95.99 129.86 97.41 135.72 C 99.10 139.85 99.55 144.43 101.75 148.37 C 101.71 151.29 101.95 154.22 101.63 157.13 C 100.87 161.98 103.53 166.56 103.20 171.41 C 102.92 174.22 101.64 176.98 102.21 179.84 C 103.94 187.09 107.20 194.26 106.38 201.87 C 105.93 206.24 106.18 210.67 105.26 214.99 C 103.79 221.87 106.31 229.02 110.30 234.59 C 112.43 237.66 113.14 242.52 117.55 243.03 C 118.16 244.31 118.81 245.59 119.15 246.98 C 118.94 248.76 117.52 250.05 116.66 251.53 C 115.29 251.74 113.93 251.96 112.56 252.17 C 111.92 255.88 107.79 254.90 105.16 254.36 C 101.25 254.21 100.00 249.73 96.87 248.10 C 94.30 246.77 91.62 245.39 89.99 242.88 C 90.61 239.83 91.84 236.96 92.59 233.95 C 92.31 233.28 91.75 231.93 91.47 231.26 C 93.90 224.14 89.88 217.14 89.88 209.98 C 89.99 206.75 88.14 204.00 87.51 200.93 C 86.97 192.57 89.92 183.75 86.45 175.75 C 81.66 179.03 74.98 178.89 70.05 175.97 C 64.53 172.81 61.47 166.22 61.82 159.97 C 61.85 156.04 63.23 152.30 64.90 148.81 C 63.46 146.54 63.00 143.88 63.31 141.24 C 60.17 135.92 57.21 130.09 57.07 123.79 C 56.70 123.80 55.98 123.81 55.61 123.81 C 55.35 124.58 54.82 126.10 54.56 126.86 C 57.63 134.98 54.17 143.20 51.41 150.82 C 54.90 150.95 58.44 150.49 61.88 151.27 C 61.87 151.65 61.86 152.42 61.85 152.80 C 58.48 154.03 54.62 152.28 51.06 152.40 C 50.03 158.24 49.92 164.18 50.33 170.09 C 50.72 173.03 49.41 175.75 48.19 178.33 C 46.10 182.66 45.76 187.76 42.73 191.64 C 38.48 197.50 36.81 204.69 35.31 211.64 C 34.27 216.36 34.45 221.23 34.73 226.02 C 34.94 229.73 32.14 233.49 34.26 236.99 C 32.62 240.07 30.77 243.03 28.99 246.04 C 28.24 247.69 27.34 249.27 26.37 250.79 C 26.30 256.30 32.29 258.70 36.73 260.02 C 36.29 259.31 35.73 258.67 35.21 258.03 C 35.67 257.32 36.58 255.91 37.03 255.20 C 33.83 254.07 30.37 253.08 28.28 250.19 C 31.83 251.55 35.56 252.46 39.00 254.06 C 40.03 255.36 39.56 257.27 40.24 258.77 C 41.43 259.42 42.58 258.19 43.73 257.91 C 41.35 256.23 42.78 253.32 42.72 250.97 C 43.68 245.96 41.12 240.70 43.78 235.99 C 43.71 234.56 43.64 233.14 43.57 231.72 C 43.29 233.90 43.03 236.07 42.67 238.24 C 40.31 236.48 41.33 233.43 41.77 231.05 C 43.18 225.05 45.75 219.35 49.33 214.33 C 54.09 206.91 52.33 196.97 57.81 189.88 C 60.71 185.85 62.12 181.02 63.47 176.30 C 63.71 174.95 64.92 174.28 65.93 173.55 C 65.21 179.90 62.46 185.91 58.71 191.03 C 55.12 195.71 56.57 202.06 54.23 207.26 C 52.94 212.98 48.38 217.03 46.20 222.33 C 43.71 227.25 45.49 232.88 46.09 238.03 C 45.58 239.39 44.81 240.64 44.27 242.00 C 45.21 247.98 45.05 254.06 45.14 260.11 C 43.36 260.81 41.48 261.26 39.62 260.58 C 34.73 262.87 29.69 259.82 26.23 256.46 C 24.89 254.95 24.93 252.81 24.52 250.95 C 27.57 247.08 28.90 242.26 31.29 238.01 C 30.74 234.28 32.70 230.81 32.53 227.10 C 31.59 214.17 34.01 200.43 41.63 189.71 C 43.11 186.87 43.06 183.51 44.50 180.66 C 46.08 177.21 48.55 174.01 48.89 170.12 C 49.13 164.16 48.44 158.16 49.52 152.25 C 48.91 151.98 47.68 151.44 47.06 151.16 C 52.11 146.31 54.60 138.84 52.91 131.96 C 52.13 128.89 52.96 125.78 53.71 122.80 C 54.65 122.26 55.61 121.72 56.51 121.11 C 56.04 117.16 56.95 113.14 55.92 109.26 C 55.44 109.29 54.47 109.37 53.98 109.41 C 50.69 102.04 49.80 93.97 48.57 86.08 C 47.55 80.31 49.57 74.67 50.13 68.97 C 50.43 65.44 52.04 61.99 54.98 59.92 C 58.34 57.63 60.58 54.14 63.83 51.74 C 65.46 50.41 67.27 49.26 68.66 47.66 C 70.41 45.19 69.93 41.95 70.60 39.13 C 69.45 37.14 68.87 34.90 68.33 32.68 C 68.85 32.38 69.88 31.78 70.40 31.48 C 67.61 26.81 69.24 20.66 73.16 17.17 M 83.08 16.13 C 79.77 16.58 75.83 16.61 73.54 19.44 C 70.73 22.43 70.78 26.78 71.29 30.58 C 72.31 31.03 74.36 31.93 75.39 32.39 C 73.86 32.87 72.31 33.27 70.71 33.44 C 71.30 34.82 71.86 36.20 72.39 37.61 C 73.71 38.50 75.03 39.40 76.34 40.32 C 76.05 40.68 75.47 41.41 75.18 41.77 C 78.51 44.23 80.28 48.76 84.58 49.74 C 87.59 50.43 91.00 49.12 92.79 46.60 C 94.74 38.49 93.71 30.06 91.88 22.03 C 91.04 18.20 86.87 15.67 83.08 16.13 M 71.69 38.98 C 71.62 41.74 72.79 44.80 71.18 47.32 C 68.55 52.18 62.72 53.99 59.96 58.75 C 56.92 61.27 52.71 63.42 52.37 67.91 C 52.00 74.34 48.99 80.59 50.38 87.09 C 51.76 94.30 52.65 101.61 54.56 108.72 C 56.00 103.30 52.18 98.48 51.96 93.18 C 51.87 89.45 51.20 85.74 51.43 82.01 C 51.93 78.44 52.82 74.93 53.38 71.37 C 53.80 71.60 54.64 72.08 55.06 72.31 C 54.50 75.92 53.41 79.42 52.93 83.04 C 54.85 84.51 57.24 85.37 58.91 87.14 C 60.83 91.46 59.65 96.62 57.39 100.57 C 57.38 96.88 58.49 93.16 57.67 89.50 C 57.05 87.23 54.82 86.11 53.03 84.89 C 53.07 93.76 56.12 102.15 57.72 110.77 C 58.06 115.89 57.14 121.12 58.45 126.16 C 59.32 130.84 62.19 134.79 63.60 139.29 C 64.06 142.06 64.49 144.86 65.49 147.51 C 66.19 146.92 67.59 145.76 68.29 145.17 C 69.37 144.05 70.54 143.03 71.76 142.07 C 71.90 141.78 72.17 141.18 72.31 140.88 C 69.51 137.62 69.94 132.97 69.88 128.95 C 70.23 123.01 68.43 117.25 67.59 111.42 C 67.18 111.10 66.37 110.45 65.96 110.13 C 67.00 107.41 68.34 104.80 69.16 102.00 C 70.08 99.05 69.42 95.95 69.62 92.93 C 69.79 89.51 70.18 86.10 69.99 82.68 C 69.02 83.28 68.06 83.89 67.10 84.50 C 68.32 81.44 70.44 78.95 72.62 76.55 C 75.44 71.64 75.31 65.79 75.33 60.31 C 74.52 60.49 72.89 60.87 72.08 61.06 C 71.67 60.69 70.85 59.95 70.44 59.57 C 67.71 59.91 65.00 59.12 62.31 58.72 C 65.95 54.74 70.88 61.22 74.78 58.31 C 74.12 55.29 73.50 52.26 73.02 49.21 C 76.52 51.38 75.59 56.25 76.49 59.72 C 78.04 59.88 79.59 60.09 81.13 60.33 C 83.21 57.81 85.46 55.37 86.69 52.29 C 81.09 51.31 77.25 47.13 74.16 42.69 C 73.61 41.29 73.37 39.61 71.69 38.98 M 82.59 60.10 C 86.13 61.12 88.05 64.39 88.48 67.86 C 86.30 66.66 85.26 64.35 83.89 62.41 C 81.31 62.27 78.73 62.20 76.15 62.06 C 76.63 64.01 77.56 66.00 76.97 68.03 C 76.09 72.51 75.09 77.33 71.45 80.45 C 72.71 85.91 70.89 91.45 71.42 96.97 C 71.77 100.88 69.37 104.22 68.82 107.95 C 69.52 113.67 71.02 119.27 71.65 125.01 C 70.94 130.40 70.35 136.53 73.65 141.24 C 78.19 138.01 84.09 139.25 88.92 141.07 C 92.29 142.54 94.41 145.69 96.39 148.62 L 95.26 148.76 C 95.91 148.97 97.20 149.39 97.85 149.60 C 99.18 144.58 96.32 139.73 95.45 134.85 C 94.52 129.22 89.69 124.42 90.84 118.48 C 86.57 121.72 81.06 121.24 76.21 119.86 C 75.97 119.53 75.50 118.86 75.26 118.53 C 80.16 118.44 85.63 119.80 89.94 116.70 C 91.34 114.73 90.76 112.19 90.82 109.94 C 90.37 104.10 94.03 98.91 93.87 93.09 C 93.24 92.33 92.58 91.60 91.89 90.90 C 87.05 94.12 81.15 94.58 75.78 96.47 C 79.75 92.88 85.02 92.05 89.81 90.18 C 90.15 88.17 90.64 86.18 91.40 84.28 C 92.79 84.81 94.16 85.34 95.55 85.85 C 94.94 84.95 93.72 83.16 93.10 82.26 L 93.96 82.04 C 92.67 82.03 91.37 82.01 90.08 82.00 L 91.56 82.90 C 89.69 83.17 87.82 83.40 85.95 83.61 C 85.71 85.38 86.46 87.56 84.92 88.90 C 83.38 89.61 81.65 89.67 79.99 89.85 C 81.42 88.85 82.89 87.92 84.38 87.00 C 83.92 86.47 83.47 85.95 83.01 85.43 C 80.21 85.11 77.18 84.89 74.89 83.04 C 74.04 82.26 72.46 81.53 73.17 80.15 C 75.06 80.53 76.44 82.18 78.29 82.74 C 82.18 84.03 86.07 82.01 89.91 81.52 C 90.69 79.88 91.43 78.23 92.20 76.60 C 92.90 78.27 92.47 79.88 91.35 81.29 C 92.51 81.27 93.68 81.30 94.84 81.37 C 95.38 81.00 96.46 80.27 97.00 79.90 C 97.68 73.88 95.00 68.37 92.01 63.35 C 89.28 62.19 86.96 60.33 85.39 57.80 C 84.45 58.57 83.52 59.33 82.59 60.10 M 91.75 84.86 C 91.73 87.80 92.18 90.79 94.63 92.71 C 95.29 89.67 96.01 85.42 91.75 84.86 M 75.57 142.60 C 65.10 146.65 60.44 161.38 67.29 170.44 C 70.95 175.51 78.12 177.23 83.83 174.88 C 94.23 171.02 99.28 157.12 93.47 147.60 C 91.34 143.76 87.24 141.88 83.37 140.27 C 80.80 141.14 78.13 141.69 75.57 142.60 M 96.69 150.73 C 98.76 155.21 98.20 160.55 96.00 164.87 C 96.88 164.51 98.63 163.80 99.51 163.45 C 99.79 166.60 97.22 166.39 95.41 166.99 C 93.50 169.98 91.43 173.03 88.22 174.78 C 88.06 175.21 87.74 176.08 87.58 176.51 L 88.82 176.37 C 91.99 184.59 88.95 193.51 89.98 202.03 C 90.88 204.41 92.60 206.36 93.76 208.61 C 93.27 209.08 92.29 210.02 91.80 210.49 C 92.63 215.38 93.40 220.29 94.48 225.14 C 95.14 227.54 94.30 229.93 93.48 232.16 C 94.06 233.12 94.65 234.09 95.23 235.06 C 93.27 237.47 92.51 240.47 92.21 243.49 C 96.51 245.36 101.69 246.90 103.44 251.79 C 105.34 252.08 107.25 252.39 109.14 252.80 C 113.13 251.99 117.90 248.40 115.84 243.82 C 113.51 244.98 111.36 246.55 108.78 247.13 C 110.10 245.68 111.60 244.42 113.09 243.16 C 110.41 239.03 108.18 234.63 105.32 230.62 C 102.91 225.67 102.57 219.86 103.66 214.52 C 104.48 210.68 104.23 206.73 104.80 202.86 C 105.87 195.09 102.32 187.84 100.65 180.44 C 99.66 176.62 102.15 172.89 101.31 169.07 C 101.03 165.97 99.20 163.17 99.39 160.02 C 99.57 156.39 99.81 152.76 99.62 149.13 C 98.63 149.64 97.63 150.14 96.69 150.73 Z" />
<path fill="#333333" opacity="1.00" d=" M 55.99 71.19 C 57.76 73.14 59.10 75.41 60.32 77.72 C 57.05 77.60 56.79 73.57 55.99 71.19 Z" />
<path fill="#333333" opacity="1.00" d=" M 83.08 103.20 C 85.12 100.29 86.27 96.74 88.95 94.31 C 88.66 97.12 87.50 99.72 85.97 102.07 C 87.83 101.92 89.73 101.83 91.46 102.66 C 88.67 103.34 85.80 102.00 83.08 103.20 Z" />
<path fill="#333333" opacity="1.00" d=" M 73.70 103.35 C 76.54 102.53 79.51 101.96 82.48 102.40 C 80.07 104.56 76.59 103.39 73.70 103.35 Z" />
<path fill="#333333" opacity="1.00" d=" M 83.73 104.56 C 84.08 104.63 84.77 104.77 85.11 104.84 C 84.81 107.58 84.50 110.32 84.38 113.08 C 83.46 113.26 82.54 113.42 81.62 113.62 C 83.16 110.85 83.31 107.63 83.73 104.56 Z" />
<path fill="#333333" opacity="1.00" d=" M 55.95 172.70 C 56.72 172.27 57.50 171.87 58.29 171.49 C 60.49 173.43 61.42 176.32 62.12 179.07 C 61.61 178.83 60.58 178.34 60.07 178.09 C 59.72 176.75 59.36 175.42 58.99 174.10 C 56.58 174.76 54.07 174.83 51.85 173.55 C 53.18 173.12 54.56 172.87 55.95 172.70 Z" />
<path fill="#333333" opacity="1.00" d=" M 95.65 181.02 C 95.45 178.22 100.94 178.71 98.37 181.29 C 97.27 182.13 96.36 182.04 95.65 181.02 Z" />
<path fill="#333333" opacity="1.00" d=" M 56.51 186.12 C 56.83 186.48 57.48 187.21 57.80 187.58 C 56.29 188.59 54.83 190.07 52.85 189.88 C 51.65 189.42 50.65 188.61 49.61 187.89 C 52.06 187.63 55.00 188.73 56.51 186.12 Z" />
<path fill="#333333" opacity="1.00" d=" M 48.41 197.54 C 48.72 197.49 49.34 197.38 49.65 197.33 C 45.70 205.15 44.17 213.86 40.93 221.95 C 41.34 213.39 43.34 204.61 48.41 197.54 Z" />
<path fill="#333333" opacity="1.00" d=" M 100.14 206.95 C 100.40 203.41 98.08 199.40 100.41 196.22 C 102.22 203.75 101.41 211.51 100.86 219.13 C 99.78 215.14 99.85 211.03 100.14 206.95 Z" />
</g>
</svg>
