<?xml version="1.0" encoding="UTF-8" ?>
<!DOCTYPE svg PUBLIC "-//W3C//DTD SVG 1.1//EN" "http://www.w3.org/Graphics/SVG/1.1/DTD/svg11.dtd">
<svg width="167pt" height="275pt" viewBox="0 0 167 275" version="1.1" xmlns="http://www.w3.org/2000/svg">
<g id="#ffffffff">
<path fill="#FFFFFF" opacity="1.00" d=" M 0.00 0.00 L 167.00 0.00 L 167.00 275.00 L 0.00 275.00 L 0.00 0.00 M 42.67 50.07 C 41.73 55.37 43.76 60.59 43.33 65.90 C 43.40 70.00 42.82 74.40 44.82 78.17 C 46.75 82.15 48.41 86.26 50.45 90.18 C 50.27 93.49 50.01 96.86 50.95 100.09 C 51.46 104.25 54.26 107.67 54.59 111.87 C 54.93 116.63 57.28 120.82 59.21 125.06 C 59.61 128.06 59.88 131.08 60.07 134.11 C 59.93 137.83 57.27 140.62 55.95 143.91 C 55.80 147.28 57.66 150.76 55.97 153.98 C 54.12 158.42 54.13 163.25 54.32 167.97 C 52.37 172.20 51.99 177.07 52.79 181.63 C 53.60 189.08 52.31 196.89 55.00 204.05 C 58.25 206.91 62.71 210.91 67.30 208.31 C 70.19 206.30 72.78 203.48 74.07 200.17 C 74.03 194.53 73.99 188.84 73.59 183.22 C 74.54 182.30 75.50 181.39 76.46 180.48 C 76.63 177.75 77.12 175.06 77.48 172.36 C 78.73 172.39 79.99 172.43 81.25 172.47 C 81.48 175.20 81.32 177.96 81.75 180.68 C 82.44 180.83 83.82 181.13 84.51 181.28 C 84.16 185.84 86.76 189.92 87.37 194.37 C 83.01 194.23 78.60 195.07 74.70 197.05 C 79.04 198.21 83.05 195.61 87.38 195.94 C 88.56 198.90 88.33 202.12 88.84 205.21 C 93.30 211.69 106.04 209.80 106.41 201.09 C 113.59 201.69 119.51 206.91 123.99 212.20 C 127.26 217.88 129.13 224.55 128.88 231.14 C 128.16 235.34 126.46 239.29 125.39 243.40 C 119.31 252.47 108.12 256.15 97.81 257.82 C 91.67 259.64 85.12 257.98 79.09 260.23 C 69.06 259.93 58.95 257.54 49.88 253.20 C 44.17 248.68 39.71 242.78 36.93 236.06 C 36.60 230.14 36.44 223.98 38.14 218.24 C 40.82 210.69 48.90 207.49 53.36 201.34 C 52.33 201.63 51.29 201.92 50.26 202.21 C 47.06 205.02 43.03 206.88 40.59 210.53 C 35.10 216.54 33.13 224.94 33.52 232.91 C 34.49 239.57 37.90 245.64 42.75 250.25 C 45.84 254.45 50.95 256.07 55.47 258.23 C 62.70 259.51 69.53 262.85 77.01 262.59 C 80.44 262.96 83.54 260.98 86.97 261.17 C 92.47 261.20 97.66 259.08 103.12 258.80 C 107.06 258.57 110.68 256.63 113.45 253.88 C 113.22 254.78 112.76 256.57 112.53 257.47 C 116.05 253.38 122.06 252.67 125.33 248.32 C 128.06 244.41 130.59 240.01 130.74 235.12 C 131.01 228.12 131.10 220.67 127.47 214.41 C 122.59 206.63 114.97 200.99 106.58 197.48 C 106.78 197.13 107.17 196.44 107.37 196.09 C 106.28 191.26 105.73 186.32 104.69 181.47 C 104.42 180.90 103.89 179.75 103.63 179.18 C 103.82 177.44 104.79 175.88 105.24 174.20 C 103.65 170.83 102.28 167.35 101.16 163.79 C 100.16 160.56 97.95 157.60 98.12 154.09 C 98.07 151.22 99.14 148.15 97.70 145.45 C 96.08 142.42 93.03 139.85 93.22 136.10 C 93.36 130.38 92.45 124.34 94.70 118.92 C 96.97 122.20 99.63 125.32 100.88 129.17 C 102.07 133.20 104.88 136.38 106.89 139.99 C 109.88 145.20 115.35 148.21 118.88 152.96 C 117.29 154.07 115.69 155.16 113.98 156.08 C 113.07 157.61 112.35 159.24 112.30 161.06 C 113.65 160.14 114.86 159.04 116.02 157.92 C 120.71 160.25 122.24 165.25 124.54 169.53 C 123.85 169.66 122.48 169.92 121.79 170.06 C 118.30 169.26 115.91 166.61 113.69 164.01 C 114.28 167.19 116.28 170.05 119.00 171.78 C 125.10 174.02 132.28 167.29 129.72 161.00 C 130.90 160.75 132.08 160.51 133.26 160.28 C 134.39 158.92 135.57 157.60 136.78 156.32 C 139.67 157.23 142.92 156.10 144.41 153.43 C 147.42 150.28 145.70 145.40 144.01 142.01 C 140.75 136.29 131.95 138.74 129.53 143.95 C 133.30 144.22 135.32 140.29 138.96 140.09 C 141.62 141.52 143.82 143.85 143.87 147.04 C 144.93 150.86 141.83 154.74 138.11 155.31 C 138.42 154.70 139.03 153.46 139.34 152.84 C 137.54 150.09 136.23 147.01 134.05 144.52 C 131.95 143.78 129.82 145.32 127.71 145.50 C 122.19 141.72 120.88 134.96 118.71 129.09 C 117.17 124.65 112.82 121.99 110.78 117.89 C 109.93 114.14 109.45 110.16 107.02 107.02 C 104.84 104.53 105.95 101.08 105.24 98.12 C 104.86 94.70 102.50 92.01 100.50 89.38 C 98.08 86.31 93.50 86.86 90.82 84.16 C 88.16 81.84 85.75 79.24 82.98 77.05 C 86.50 72.43 86.96 66.43 86.85 60.83 C 86.34 57.87 86.28 54.21 83.53 52.35 C 81.14 50.47 78.85 48.40 76.15 46.97 C 72.66 46.28 69.40 47.89 66.46 49.56 C 66.51 50.67 66.60 52.89 66.65 54.00 C 67.94 52.61 69.00 51.04 69.79 49.32 C 72.74 48.60 75.93 48.24 78.54 50.18 C 75.32 50.22 72.06 50.38 69.19 52.04 C 69.78 52.47 70.38 52.89 70.98 53.32 C 74.58 50.81 79.18 52.63 83.00 53.66 C 87.85 60.82 85.55 70.74 80.76 77.38 C 79.20 77.50 77.60 77.87 76.05 77.47 C 73.44 75.24 70.90 72.75 69.58 69.51 C 70.25 64.65 67.50 59.85 69.29 55.13 C 68.89 54.49 68.48 53.85 68.06 53.22 L 67.41 55.54 C 65.36 52.98 62.78 50.67 59.59 49.68 C 56.73 49.18 53.84 48.84 51.06 47.97 C 48.20 46.89 44.63 47.67 42.67 50.07 M 133.43 143.39 C 135.20 145.53 138.12 146.88 139.11 149.59 C 139.67 150.62 139.20 152.83 140.80 152.82 C 141.18 152.22 141.93 151.03 142.31 150.44 C 140.71 146.86 137.42 143.88 133.43 143.39 Z" />
<path fill="#FFFFFF" opacity="1.00" d=" M 44.73 49.91 C 45.75 48.67 47.67 48.92 49.11 48.98 C 55.60 49.97 62.59 51.85 66.58 57.55 C 66.53 58.94 66.49 60.34 66.45 61.74 C 64.35 62.93 62.38 64.32 60.37 65.64 C 59.23 64.26 58.02 62.93 56.74 61.68 C 55.75 58.68 56.01 54.73 53.35 52.66 C 53.87 58.25 52.96 64.08 54.81 69.46 C 55.39 67.99 55.63 66.33 56.67 65.09 C 60.16 65.41 61.79 68.94 61.60 72.08 C 62.24 75.95 60.54 80.43 63.25 83.75 C 63.52 83.15 64.07 81.93 64.34 81.32 C 65.94 82.89 67.70 84.29 69.88 84.92 C 72.56 85.51 73.60 88.30 75.85 89.58 C 75.90 88.14 75.80 86.72 75.54 85.31 C 73.42 83.04 70.20 82.41 67.58 80.89 C 68.72 78.87 69.52 76.69 69.95 74.41 C 71.36 76.22 72.69 78.33 74.97 79.13 C 76.95 80.10 79.04 79.02 81.01 78.61 C 81.28 80.91 80.69 84.21 83.85 84.56 C 83.46 82.76 83.04 80.97 82.69 79.16 C 85.13 81.56 87.51 84.02 89.94 86.43 C 89.17 86.54 87.63 86.77 86.87 86.88 C 83.56 85.44 79.16 85.02 76.76 88.29 C 79.09 88.20 81.51 87.05 83.72 88.25 C 87.23 89.77 91.13 88.96 94.83 89.18 C 101.50 90.04 103.68 97.42 103.87 103.16 C 102.21 102.15 100.59 101.02 98.68 100.55 C 100.74 103.05 103.36 105.10 105.14 107.84 C 106.54 110.80 106.83 114.18 108.44 117.06 C 108.46 119.12 108.40 121.18 108.33 123.25 C 106.65 122.17 104.96 121.09 103.15 120.25 C 105.33 123.30 108.04 127.77 112.41 126.89 C 111.20 125.45 110.20 123.89 109.84 122.03 C 114.86 126.01 117.42 132.20 118.90 138.27 C 120.28 141.29 122.29 144.05 124.50 146.53 C 126.50 148.71 129.46 147.00 131.77 146.36 C 133.60 148.59 135.15 151.04 137.10 153.17 C 136.35 154.69 134.86 155.63 133.70 156.81 C 132.12 157.59 130.61 158.50 129.10 159.43 C 128.53 157.91 128.29 155.96 126.55 155.32 C 123.48 153.87 120.79 151.84 118.33 149.52 C 118.93 149.42 120.14 149.20 120.74 149.09 C 117.33 146.66 113.42 144.71 110.66 141.50 C 108.81 138.30 106.27 135.51 104.98 132.01 C 103.05 126.90 100.57 121.82 96.62 117.95 C 95.63 113.06 98.00 107.77 94.92 103.31 C 94.19 106.74 94.23 110.31 94.74 113.77 C 93.83 118.25 91.12 122.19 91.00 126.83 C 90.94 130.38 91.96 133.85 91.97 137.41 C 86.52 140.48 80.12 139.82 74.14 140.71 C 71.07 141.27 68.10 139.92 65.38 138.67 C 62.83 137.52 63.06 134.43 62.30 132.17 C 60.88 127.64 60.64 122.75 58.42 118.48 C 56.60 115.21 57.76 111.30 57.02 107.76 C 55.79 105.63 53.39 104.16 53.30 101.48 C 52.93 98.49 51.66 94.47 54.38 92.22 C 51.93 87.53 49.42 82.86 46.85 78.23 C 44.65 74.94 44.74 70.76 44.94 66.96 C 45.48 61.28 44.66 55.59 44.73 49.91 M 61.55 83.33 C 61.33 86.42 60.71 89.63 61.46 92.68 C 61.79 94.15 63.59 94.06 64.68 94.58 C 64.02 92.16 63.24 89.76 62.56 87.35 C 62.64 85.91 62.44 84.51 61.55 83.33 M 90.41 90.25 C 91.38 92.31 92.45 94.54 94.89 95.08 C 94.32 93.64 93.67 92.24 93.03 90.83 C 92.37 90.68 91.06 90.40 90.41 90.25 M 63.97 98.99 L 63.76 100.16 C 66.27 101.22 69.32 99.99 72.04 100.28 C 73.87 101.51 76.40 103.89 78.08 101.13 C 77.11 100.29 76.15 99.44 75.20 98.59 C 71.45 98.57 67.69 98.52 63.97 98.99 M 88.90 101.96 C 86.52 101.55 84.32 100.43 81.95 99.95 C 80.65 100.77 79.36 101.63 78.15 102.57 C 81.53 102.38 84.78 103.14 88.04 103.88 C 91.70 103.52 94.78 101.12 96.85 98.19 C 93.78 98.43 91.45 100.51 88.90 101.96 M 57.96 102.34 C 59.39 105.66 62.84 107.13 66.08 108.14 C 65.29 105.91 64.31 103.00 61.35 103.42 C 60.22 103.04 59.09 102.68 57.96 102.34 M 70.45 105.48 C 68.37 108.04 65.57 110.08 64.24 113.19 C 62.43 111.92 61.25 110.19 61.10 107.96 C 60.36 107.87 58.88 107.70 58.14 107.61 C 58.68 109.84 59.97 111.79 61.50 113.47 C 62.99 113.57 64.49 113.44 65.98 113.46 C 66.10 112.96 66.33 111.98 66.45 111.49 C 68.56 110.48 69.96 108.68 71.20 106.76 C 72.98 106.40 74.81 106.71 76.60 106.80 C 76.69 110.24 75.83 113.56 75.24 116.92 C 75.16 124.47 76.96 131.85 77.84 139.31 C 78.95 136.98 78.69 134.30 78.14 131.85 C 77.18 128.03 77.57 124.07 77.22 120.18 C 76.58 115.73 79.40 111.59 78.00 107.13 C 79.90 107.66 82.57 107.45 83.50 109.59 C 84.70 111.39 84.59 115.00 87.50 114.67 C 86.66 112.02 85.88 109.36 85.22 106.67 C 83.02 106.54 80.82 106.54 78.62 106.59 C 76.42 104.69 72.97 103.84 70.45 105.48 M 90.15 109.21 C 89.87 109.52 89.32 110.14 89.04 110.45 C 89.75 113.87 93.93 108.43 90.15 109.21 M 63.88 115.58 C 65.23 118.60 66.76 121.64 67.09 124.99 C 67.87 128.63 67.86 133.55 72.11 134.93 C 69.72 130.65 68.99 125.78 68.62 120.97 C 67.66 118.98 66.32 117.19 65.38 115.19 C 65.00 115.29 64.26 115.48 63.88 115.58 M 85.01 126.92 C 84.49 130.40 83.08 134.05 85.01 137.36 C 85.70 133.64 85.79 129.84 86.53 126.13 C 86.15 126.33 85.39 126.73 85.01 126.92 Z" />
<path fill="#FFFFFF" opacity="1.00" d=" M 61.68 66.52 C 63.66 65.63 65.62 64.67 67.68 63.95 C 68.08 68.25 67.81 72.57 67.69 76.87 C 67.39 77.24 66.79 77.96 66.50 78.32 C 65.99 77.95 64.99 77.19 64.48 76.81 C 64.36 73.22 63.83 69.52 61.68 66.52 Z" />
<path fill="#FFFFFF" opacity="1.00" d=" M 60.72 139.30 C 62.14 139.97 63.58 140.59 65.09 141.05 C 65.00 141.33 64.82 141.88 64.72 142.16 C 63.11 145.13 61.54 148.12 59.78 151.00 C 63.86 151.01 67.13 146.70 65.59 142.80 C 65.99 142.52 66.39 142.24 66.80 141.96 C 68.32 142.96 70.09 143.70 71.95 143.47 C 78.15 142.70 84.82 143.59 90.28 139.99 C 93.18 141.42 94.51 144.41 96.14 147.00 C 98.08 149.54 95.44 152.39 95.37 155.11 C 96.10 157.42 97.36 159.55 97.85 161.95 C 98.93 166.52 101.87 170.43 102.55 175.12 C 103.19 176.91 101.51 178.26 100.69 179.62 C 99.59 178.99 98.52 178.32 97.47 177.62 C 93.27 178.73 88.86 178.45 84.67 179.64 C 83.61 177.25 83.88 174.54 83.29 172.03 C 84.77 169.87 85.61 167.35 85.87 164.75 C 84.41 166.53 83.01 168.37 81.28 169.90 C 78.83 169.60 76.50 170.22 74.51 171.66 C 74.46 174.76 74.19 177.86 73.58 180.92 C 71.27 181.19 68.94 181.23 66.62 181.25 C 66.63 181.80 66.65 182.90 66.65 183.45 C 68.70 183.37 70.75 183.35 72.81 183.34 C 71.62 188.86 71.73 194.52 72.40 200.09 C 70.82 202.79 69.04 205.79 65.88 206.80 C 62.38 206.96 58.24 205.74 56.89 202.16 C 54.74 198.36 56.28 193.86 55.06 189.84 C 54.15 187.39 55.38 184.88 55.64 182.41 C 58.71 182.33 62.09 183.31 64.95 181.86 C 64.86 181.56 64.70 180.94 64.62 180.64 C 61.15 180.92 57.66 180.97 54.28 180.03 C 54.45 176.28 54.87 172.55 56.49 169.13 C 56.79 163.93 56.70 158.59 58.47 153.61 C 59.86 150.45 58.15 147.20 57.83 144.02 C 58.65 142.37 59.74 140.87 60.72 139.30 M 86.01 150.28 C 81.57 150.57 77.18 151.58 72.94 152.92 C 72.56 153.48 71.79 154.60 71.41 155.15 C 76.90 154.33 81.98 151.88 87.54 151.38 C 89.27 150.86 93.39 150.02 91.75 147.55 C 89.77 148.33 88.09 149.78 86.01 150.28 M 69.47 156.65 C 73.33 159.87 78.61 158.94 83.09 160.38 C 84.30 160.00 85.49 159.53 86.58 158.88 C 82.78 158.64 78.90 159.17 75.19 158.13 C 73.15 157.10 71.33 155.69 69.38 154.50 C 69.41 155.04 69.45 156.11 69.47 156.65 Z" />
<path fill="#FFFFFF" opacity="1.00" d=" M 117.28 156.30 C 119.79 154.47 122.95 155.10 125.48 156.50 C 127.08 160.48 128.65 165.05 125.88 168.93 C 124.75 163.77 122.15 158.79 117.28 156.30 Z" />
<path fill="#FFFFFF" opacity="1.00" d=" M 97.13 180.65 C 99.04 180.69 100.92 180.20 102.82 180.20 C 103.81 182.01 103.05 184.16 103.41 186.11 C 104.01 191.70 106.65 197.48 103.90 202.92 C 102.48 206.54 98.21 206.69 94.92 206.86 C 93.46 206.90 92.40 205.64 91.49 204.67 C 89.95 200.46 89.74 195.94 89.06 191.55 C 87.73 188.14 85.36 185.12 85.06 181.34 C 89.06 180.81 93.10 180.76 97.13 180.65 Z" />
</g>
<g id="#1b1c1aff">
<path fill="#333333" opacity="1.00" d=" M 42.67 50.07 C 44.63 47.67 48.20 46.89 51.06 47.97 C 53.84 48.84 56.73 49.18 59.59 49.68 C 62.78 50.67 65.36 52.98 67.41 55.54 L 68.06 53.22 C 68.48 53.85 68.89 54.49 69.29 55.13 C 67.50 59.85 70.25 64.65 69.58 69.51 C 70.90 72.75 73.44 75.24 76.05 77.47 C 77.60 77.87 79.20 77.50 80.76 77.38 C 85.55 70.74 87.85 60.82 83.00 53.66 C 79.18 52.63 74.58 50.81 70.98 53.32 C 70.38 52.89 69.78 52.47 69.19 52.04 C 72.06 50.38 75.32 50.22 78.54 50.18 C 75.93 48.24 72.74 48.60 69.79 49.32 C 69.00 51.04 67.94 52.61 66.65 54.00 C 66.60 52.89 66.51 50.67 66.46 49.56 C 69.40 47.89 72.66 46.28 76.15 46.97 C 78.85 48.40 81.14 50.47 83.53 52.35 C 86.28 54.21 86.34 57.87 86.85 60.83 C 86.96 66.43 86.50 72.43 82.98 77.05 C 85.75 79.24 88.16 81.84 90.82 84.16 C 93.50 86.86 98.08 86.31 100.50 89.38 C 102.50 92.01 104.86 94.70 105.24 98.12 C 105.95 101.08 104.84 104.53 107.02 107.02 C 109.45 110.16 109.93 114.14 110.78 117.89 C 112.82 121.99 117.17 124.65 118.71 129.09 C 120.88 134.96 122.19 141.72 127.71 145.50 C 129.82 145.32 131.95 143.78 134.05 144.52 C 136.23 147.01 137.54 150.09 139.34 152.84 C 139.03 153.46 138.42 154.70 138.11 155.31 C 141.83 154.74 144.93 150.86 143.87 147.04 C 143.82 143.85 141.62 141.52 138.96 140.09 C 135.32 140.29 133.30 144.22 129.53 143.95 C 131.95 138.74 140.75 136.29 144.01 142.01 C 145.70 145.40 147.42 150.28 144.41 153.43 C 142.92 156.10 139.67 157.23 136.78 156.32 C 135.57 157.60 134.39 158.92 133.26 160.28 C 132.08 160.51 130.90 160.75 129.72 161.00 C 132.28 167.29 125.10 174.02 119.00 171.78 C 116.28 170.05 114.28 167.19 113.69 164.01 C 115.91 166.61 118.30 169.26 121.79 170.06 C 122.48 169.92 123.85 169.66 124.54 169.53 C 122.24 165.25 120.71 160.25 116.02 157.92 C 114.86 159.04 113.65 160.14 112.30 161.06 C 112.35 159.24 113.07 157.61 113.98 156.08 C 115.69 155.16 117.29 154.07 118.88 152.96 C 115.35 148.21 109.88 145.20 106.89 139.99 C 104.88 136.38 102.07 133.20 100.88 129.17 C 99.63 125.32 96.97 122.20 94.70 118.92 C 92.45 124.34 93.36 130.38 93.22 136.10 C 93.03 139.85 96.08 142.42 97.70 145.45 C 99.14 148.15 98.07 151.22 98.12 154.09 C 97.95 157.60 100.16 160.56 101.16 163.79 C 102.28 167.35 103.65 170.83 105.24 174.20 C 104.79 175.88 103.82 177.44 103.63 179.18 C 103.89 179.75 104.42 180.90 104.69 181.47 C 105.73 186.32 106.28 191.26 107.37 196.09 C 107.17 196.44 106.78 197.13 106.58 197.48 C 114.97 200.99 122.59 206.63 127.47 214.41 C 131.10 220.67 131.01 228.12 130.74 235.12 C 130.59 240.01 128.06 244.41 125.33 248.32 C 122.06 252.67 116.05 253.38 112.53 257.47 C 112.76 256.57 113.22 254.78 113.45 253.88 C 110.68 256.63 107.06 258.57 103.12 258.80 C 97.66 259.08 92.47 261.20 86.97 261.17 C 83.54 260.98 80.44 262.96 77.01 262.59 C 69.53 262.85 62.70 259.51 55.47 258.23 C 50.95 256.07 45.84 254.45 42.75 250.25 C 37.90 245.64 34.49 239.57 33.52 232.91 C 33.13 224.94 35.10 216.54 40.59 210.53 C 43.03 206.88 47.06 205.02 50.26 202.21 C 51.29 201.92 52.33 201.63 53.36 201.34 C 48.90 207.49 40.82 210.69 38.14 218.24 C 36.44 223.98 36.60 230.14 36.93 236.06 C 39.71 242.78 44.17 248.68 49.88 253.20 C 58.95 257.54 69.06 259.93 79.09 260.23 C 85.12 257.98 91.67 259.64 97.81 257.82 C 108.12 256.15 119.31 252.47 125.39 243.40 C 126.46 239.29 128.16 235.34 128.88 231.14 C 129.13 224.55 127.26 217.88 123.99 212.20 C 119.51 206.91 113.59 201.69 106.41 201.09 C 106.04 209.80 93.30 211.69 88.84 205.21 C 88.33 202.12 88.56 198.90 87.38 195.94 C 83.05 195.61 79.04 198.21 74.70 197.05 C 78.60 195.07 83.01 194.23 87.37 194.37 C 86.76 189.92 84.16 185.84 84.51 181.28 C 83.82 181.13 82.44 180.83 81.75 180.68 C 81.32 177.96 81.48 175.20 81.25 172.47 C 79.99 172.43 78.73 172.39 77.48 172.36 C 77.12 175.06 76.63 177.75 76.46 180.48 C 75.50 181.39 74.54 182.30 73.59 183.22 C 73.99 188.84 74.03 194.53 74.07 200.17 C 72.78 203.48 70.19 206.30 67.30 208.31 C 62.71 210.91 58.25 206.91 55.00 204.05 C 52.31 196.89 53.60 189.08 52.79 181.63 C 51.99 177.07 52.37 172.20 54.32 167.97 C 54.13 163.25 54.12 158.42 55.97 153.98 C 57.66 150.76 55.80 147.28 55.95 143.91 C 57.27 140.62 59.93 137.83 60.07 134.11 C 59.88 131.08 59.61 128.06 59.21 125.06 C 57.28 120.82 54.93 116.63 54.59 111.87 C 54.26 107.67 51.46 104.25 50.95 100.09 C 50.01 96.86 50.27 93.49 50.45 90.18 C 48.41 86.26 46.75 82.15 44.82 78.17 C 42.82 74.40 43.40 70.00 43.33 65.90 C 43.76 60.59 41.73 55.37 42.67 50.07 M 44.73 49.91 C 44.66 55.59 45.48 61.28 44.94 66.96 C 44.74 70.76 44.65 74.94 46.85 78.23 C 49.42 82.86 51.93 87.53 54.38 92.22 C 51.66 94.47 52.93 98.49 53.30 101.48 C 53.39 104.16 55.79 105.63 57.02 107.76 C 57.76 111.30 56.60 115.21 58.42 118.48 C 60.64 122.75 60.88 127.64 62.30 132.17 C 63.06 134.43 62.83 137.52 65.38 138.67 C 68.10 139.92 71.07 141.27 74.14 140.71 C 80.12 139.82 86.52 140.48 91.97 137.41 C 91.96 133.85 90.94 130.38 91.00 126.83 C 91.12 122.19 93.83 118.25 94.74 113.77 C 94.23 110.31 94.19 106.74 94.92 103.31 C 98.00 107.77 95.63 113.06 96.62 117.95 C 100.57 121.82 103.05 126.90 104.98 132.01 C 106.27 135.51 108.81 138.30 110.66 141.50 C 113.42 144.71 117.33 146.66 120.74 149.09 C 120.14 149.20 118.93 149.42 118.33 149.52 C 120.79 151.84 123.48 153.87 126.55 155.32 C 128.29 155.96 128.53 157.91 129.10 159.43 C 130.61 158.50 132.12 157.59 133.70 156.81 C 134.86 155.63 136.35 154.69 137.10 153.17 C 135.15 151.04 133.60 148.59 131.77 146.36 C 129.46 147.00 126.50 148.71 124.50 146.53 C 122.29 144.05 120.28 141.29 118.90 138.27 C 117.42 132.20 114.86 126.01 109.84 122.03 C 110.20 123.89 111.20 125.45 112.41 126.89 C 108.04 127.77 105.33 123.30 103.15 120.25 C 104.96 121.09 106.65 122.17 108.33 123.25 C 108.40 121.18 108.46 119.12 108.44 117.06 C 106.83 114.18 106.54 110.80 105.14 107.84 C 103.36 105.10 100.74 103.05 98.68 100.55 C 100.59 101.02 102.21 102.15 103.87 103.16 C 103.68 97.42 101.50 90.04 94.83 89.18 C 91.13 88.96 87.23 89.77 83.72 88.25 C 81.51 87.05 79.09 88.20 76.76 88.29 C 79.16 85.02 83.56 85.44 86.87 86.88 C 87.63 86.77 89.17 86.54 89.94 86.43 C 87.51 84.02 85.13 81.56 82.69 79.16 C 83.04 80.97 83.46 82.76 83.85 84.56 C 80.69 84.21 81.28 80.91 81.01 78.61 C 79.04 79.02 76.95 80.10 74.97 79.13 C 72.69 78.33 71.36 76.22 69.95 74.41 C 69.52 76.69 68.72 78.87 67.58 80.89 C 70.20 82.41 73.42 83.04 75.54 85.31 C 75.80 86.72 75.90 88.14 75.85 89.58 C 73.60 88.30 72.56 85.51 69.88 84.92 C 67.70 84.29 65.94 82.89 64.34 81.32 C 64.07 81.93 63.52 83.15 63.25 83.75 C 60.54 80.43 62.24 75.95 61.60 72.08 C 61.79 68.94 60.16 65.41 56.67 65.09 C 55.63 66.33 55.39 67.99 54.81 69.46 C 52.96 64.08 53.87 58.25 53.35 52.66 C 56.01 54.73 55.75 58.68 56.74 61.68 C 58.02 62.93 59.23 64.26 60.37 65.64 C 62.38 64.32 64.35 62.93 66.45 61.74 C 66.49 60.34 66.53 58.94 66.58 57.55 C 62.59 51.85 55.60 49.97 49.11 48.98 C 47.67 48.92 45.75 48.67 44.73 49.91 M 61.68 66.52 C 63.83 69.52 64.36 73.22 64.48 76.81 C 64.99 77.19 65.99 77.95 66.50 78.32 C 66.79 77.96 67.39 77.24 67.69 76.87 C 67.81 72.57 68.08 68.25 67.68 63.95 C 65.62 64.67 63.66 65.63 61.68 66.52 M 60.72 139.30 C 59.74 140.87 58.65 142.37 57.83 144.02 C 58.15 147.20 59.86 150.45 58.47 153.61 C 56.70 158.59 56.79 163.93 56.49 169.13 C 54.87 172.55 54.45 176.28 54.28 180.03 C 57.66 180.97 61.15 180.92 64.62 180.64 C 64.70 180.94 64.86 181.56 64.95 181.86 C 62.09 183.31 58.71 182.33 55.64 182.41 C 55.38 184.88 54.15 187.39 55.06 189.84 C 56.28 193.86 54.74 198.36 56.89 202.16 C 58.24 205.74 62.38 206.96 65.88 206.80 C 69.04 205.79 70.82 202.79 72.40 200.09 C 71.73 194.52 71.62 188.86 72.81 183.34 C 70.75 183.35 68.70 183.37 66.65 183.45 C 66.65 182.90 66.63 181.80 66.62 181.25 C 68.94 181.23 71.27 181.19 73.58 180.92 C 74.19 177.86 74.46 174.76 74.51 171.66 C 76.50 170.22 78.83 169.60 81.28 169.90 C 83.01 168.37 84.41 166.53 85.87 164.75 C 85.61 167.35 84.77 169.87 83.29 172.03 C 83.88 174.54 83.61 177.25 84.67 179.64 C 88.86 178.45 93.27 178.73 97.47 177.62 C 98.52 178.32 99.59 178.99 100.69 179.62 C 101.51 178.26 103.19 176.91 102.55 175.12 C 101.87 170.43 98.93 166.52 97.85 161.95 C 97.36 159.55 96.10 157.42 95.37 155.11 C 95.44 152.39 98.08 149.54 96.14 147.00 C 94.51 144.41 93.18 141.42 90.28 139.99 C 84.82 143.59 78.15 142.70 71.95 143.47 C 70.09 143.70 68.32 142.96 66.80 141.96 C 66.39 142.24 65.99 142.52 65.59 142.80 C 67.13 146.70 63.86 151.01 59.78 151.00 C 61.54 148.12 63.11 145.13 64.72 142.16 C 64.82 141.88 65.00 141.33 65.09 141.05 C 63.58 140.59 62.14 139.97 60.72 139.30 M 117.28 156.30 C 122.15 158.79 124.75 163.77 125.88 168.93 C 128.65 165.05 127.08 160.48 125.48 156.50 C 122.95 155.10 119.79 154.47 117.28 156.30 M 97.13 180.65 C 93.10 180.76 89.06 180.81 85.06 181.34 C 85.36 185.12 87.73 188.14 89.06 191.55 C 89.74 195.94 89.95 200.46 91.49 204.67 C 92.40 205.64 93.46 206.90 94.92 206.86 C 98.21 206.69 102.48 206.54 103.90 202.92 C 106.65 197.48 104.01 191.70 103.41 186.11 C 103.05 184.16 103.81 182.01 102.82 180.20 C 100.92 180.20 99.04 180.69 97.13 180.65 Z" />
<path fill="#333333" opacity="1.00" d=" M 61.55 83.33 C 62.44 84.51 62.64 85.91 62.56 87.35 C 63.24 89.76 64.02 92.16 64.68 94.58 C 63.59 94.06 61.79 94.15 61.46 92.68 C 60.71 89.63 61.33 86.42 61.55 83.33 Z" />
<path fill="#333333" opacity="1.00" d=" M 90.41 90.25 C 91.06 90.40 92.37 90.68 93.03 90.83 C 93.67 92.24 94.32 93.64 94.89 95.08 C 92.45 94.54 91.38 92.31 90.41 90.25 Z" />
<path fill="#333333" opacity="1.00" d=" M 63.97 98.99 C 67.69 98.52 71.45 98.57 75.20 98.59 C 76.15 99.44 77.11 100.29 78.08 101.13 C 76.40 103.89 73.87 101.51 72.04 100.28 C 69.32 99.99 66.27 101.22 63.76 100.16 L 63.97 98.99 Z" />
<path fill="#333333" opacity="1.00" d=" M 88.90 101.96 C 91.45 100.51 93.78 98.43 96.85 98.19 C 94.78 101.12 91.70 103.52 88.04 103.88 C 84.78 103.14 81.53 102.38 78.15 102.57 C 79.36 101.63 80.65 100.77 81.95 99.95 C 84.32 100.43 86.52 101.55 88.90 101.96 Z" />
<path fill="#333333" opacity="1.00" d=" M 57.96 102.34 C 59.09 102.68 60.22 103.04 61.35 103.42 C 64.31 103.00 65.29 105.91 66.08 108.14 C 62.84 107.13 59.39 105.66 57.96 102.34 Z" />
<path fill="#333333" opacity="1.00" d=" M 70.45 105.48 C 72.97 103.84 76.42 104.69 78.62 106.59 C 80.82 106.54 83.02 106.54 85.22 106.67 C 85.88 109.36 86.66 112.02 87.50 114.67 C 84.59 115.00 84.70 111.39 83.50 109.59 C 82.57 107.45 79.90 107.66 78.00 107.13 C 79.40 111.59 76.58 115.73 77.22 120.18 C 77.57 124.07 77.18 128.03 78.14 131.85 C 78.69 134.30 78.95 136.98 77.84 139.31 C 76.96 131.85 75.16 124.47 75.24 116.92 C 75.83 113.56 76.69 110.24 76.60 106.80 C 74.81 106.71 72.98 106.40 71.20 106.76 C 69.96 108.68 68.56 110.48 66.45 111.49 C 66.33 111.98 66.10 112.96 65.98 113.46 C 64.49 113.44 62.99 113.57 61.50 113.47 C 59.97 111.79 58.68 109.84 58.14 107.61 C 58.88 107.70 60.36 107.87 61.10 107.96 C 61.25 110.19 62.43 111.92 64.24 113.19 C 65.57 110.08 68.37 108.04 70.45 105.48 Z" />
<path fill="#333333" opacity="1.00" d=" M 90.15 109.21 C 93.93 108.43 89.75 113.87 89.04 110.45 C 89.32 110.14 89.87 109.52 90.15 109.21 Z" />
<path fill="#333333" opacity="1.00" d=" M 63.88 115.58 C 64.26 115.48 65.00 115.29 65.38 115.19 C 66.32 117.19 67.66 118.98 68.62 120.97 C 68.99 125.78 69.72 130.65 72.11 134.93 C 67.86 133.55 67.87 128.63 67.09 124.99 C 66.76 121.64 65.23 118.60 63.88 115.58 Z" />
<path fill="#333333" opacity="1.00" d=" M 85.01 126.92 C 85.39 126.73 86.15 126.33 86.53 126.13 C 85.79 129.84 85.70 133.64 85.01 137.36 C 83.08 134.05 84.49 130.40 85.01 126.92 Z" />
<path fill="#333333" opacity="1.00" d=" M 133.43 143.39 C 137.42 143.88 140.71 146.86 142.31 150.44 C 141.93 151.03 141.18 152.22 140.80 152.82 C 139.20 152.83 139.67 150.62 139.11 149.59 C 138.12 146.88 135.20 145.53 133.43 143.39 Z" />
<path fill="#333333" opacity="1.00" d=" M 86.01 150.28 C 88.09 149.78 89.77 148.33 91.75 147.55 C 93.39 150.02 89.27 150.86 87.54 151.38 C 81.98 151.88 76.90 154.33 71.41 155.15 C 71.79 154.60 72.56 153.48 72.94 152.92 C 77.18 151.58 81.57 150.57 86.01 150.28 Z" />
<path fill="#333333" opacity="1.00" d=" M 69.47 156.65 C 69.45 156.11 69.41 155.04 69.38 154.50 C 71.33 155.69 73.15 157.10 75.19 158.13 C 78.90 159.17 82.78 158.64 86.58 158.88 C 85.49 159.53 84.30 160.00 83.09 160.38 C 78.61 158.94 73.33 159.87 69.47 156.65 Z" />
</g>
</svg>
