<?xml version="1.0" encoding="UTF-8" ?>
<!DOCTYPE svg PUBLIC "-//W3C//DTD SVG 1.1//EN" "http://www.w3.org/Graphics/SVG/1.1/DTD/svg11.dtd">
<svg width="221pt" height="275pt" viewBox="0 0 221 275" version="1.1" xmlns="http://www.w3.org/2000/svg">
<g id="#ffffffff">
<path fill="#FFFFFF" opacity="1.00" d=" M 0.00 0.00 L 221.00 0.00 L 221.00 275.00 L 0.00 275.00 L 0.00 0.00 M 85.83 31.86 C 82.57 36.26 84.50 41.87 85.02 46.81 C 85.93 47.84 86.84 48.88 87.76 49.92 C 87.62 52.95 87.66 56.01 87.05 59.00 C 84.91 60.53 82.32 61.45 80.53 63.45 C 79.00 65.20 77.81 67.21 76.47 69.11 C 78.00 69.23 79.53 69.36 81.07 69.43 C 82.07 70.19 83.05 70.98 84.10 71.67 C 84.75 70.64 85.32 69.55 85.77 68.42 C 83.39 67.58 80.87 68.07 78.51 68.70 C 80.90 65.19 84.32 62.69 88.33 61.34 C 88.47 57.52 88.95 53.71 88.69 49.88 C 90.76 52.05 91.84 54.92 93.78 57.17 C 96.96 59.43 100.85 60.55 104.74 60.47 C 105.06 61.86 105.42 63.25 105.80 64.63 C 105.71 65.54 105.63 66.45 105.54 67.36 C 102.17 68.50 98.89 66.53 95.49 66.50 C 95.72 62.92 93.36 60.13 91.03 57.73 C 92.26 60.68 93.50 63.63 94.62 66.63 C 92.31 67.05 90.02 67.55 87.70 67.91 C 87.61 68.31 87.44 69.11 87.35 69.51 C 89.92 69.17 92.42 68.45 94.99 68.14 C 97.73 67.91 100.23 69.34 102.91 69.58 C 104.57 69.36 105.28 67.66 106.22 66.50 C 108.96 65.44 112.08 65.00 114.28 62.88 C 111.49 62.77 108.88 63.76 106.32 64.72 C 106.39 63.69 106.53 61.62 106.60 60.58 C 108.92 61.25 111.27 61.79 113.65 62.20 C 113.30 61.68 112.58 60.64 112.23 60.13 C 110.73 59.93 109.23 59.71 107.74 59.48 C 109.17 55.50 109.79 51.29 110.35 47.12 C 111.02 42.94 109.17 38.96 108.65 34.87 C 108.33 30.64 104.28 27.28 100.12 27.30 C 95.05 26.74 89.05 27.41 85.83 31.86 M 115.78 62.12 C 114.73 63.55 117.20 65.22 118.36 64.11 C 118.26 63.65 118.06 62.72 117.96 62.26 C 117.42 62.23 116.33 62.16 115.78 62.12 M 118.83 61.60 C 121.24 63.76 124.12 65.37 126.31 67.76 C 128.78 72.36 128.07 77.92 130.39 82.57 C 132.64 87.13 133.12 92.31 133.74 97.28 C 136.23 100.66 137.64 104.65 139.80 108.22 C 141.06 110.27 141.45 112.68 141.84 115.01 C 143.12 123.52 145.64 131.85 149.19 139.67 C 149.05 141.16 148.92 142.65 148.79 144.14 C 144.92 145.97 140.77 147.82 136.37 146.91 C 136.51 144.86 136.52 142.81 136.48 140.76 C 134.36 140.65 132.25 140.50 130.15 140.32 C 129.11 141.07 128.02 141.76 126.90 142.38 C 126.28 139.50 124.69 136.52 126.67 133.81 C 125.33 131.23 123.37 128.88 122.85 125.95 C 121.71 121.98 123.48 118.00 123.22 113.99 C 123.17 110.11 121.97 106.27 122.61 102.40 C 124.63 106.46 126.68 110.61 127.47 115.12 C 128.11 118.86 130.86 121.74 133.41 124.35 C 134.07 126.88 134.97 129.34 135.93 131.77 L 134.74 131.40 C 134.45 134.85 130.45 136.59 131.23 140.36 C 133.35 138.17 136.04 136.14 136.92 133.09 C 137.68 129.83 135.93 126.79 134.83 123.84 C 133.47 120.04 129.08 118.08 128.40 113.95 C 127.92 110.63 127.10 107.38 126.34 104.13 C 127.64 104.58 128.95 105.05 130.25 105.54 C 128.40 100.54 130.86 95.07 128.92 90.10 C 127.91 87.55 127.25 84.84 125.73 82.53 C 127.86 88.62 129.76 95.07 129.20 101.59 C 127.32 101.62 125.43 101.59 123.55 101.62 C 124.77 96.13 121.94 90.82 122.06 85.30 C 123.14 84.00 124.34 82.61 124.17 80.80 C 124.06 77.93 124.26 73.19 120.22 73.36 C 121.05 75.02 121.98 76.63 123.00 78.18 C 122.49 80.29 121.90 82.39 121.41 84.51 C 120.87 84.81 119.77 85.43 119.23 85.73 L 119.59 83.39 C 117.83 84.17 116.02 84.85 114.20 85.46 C 112.36 84.77 110.42 83.43 108.51 84.79 C 110.01 85.57 111.51 86.39 113.12 86.95 C 115.56 87.05 118.93 84.29 120.55 87.21 C 121.03 90.50 121.98 93.70 122.38 97.00 C 122.60 100.96 120.09 104.24 118.14 107.44 C 117.46 107.33 116.10 107.10 115.42 106.98 C 115.10 105.14 114.62 103.32 113.90 101.60 C 113.36 104.05 112.92 106.52 112.37 108.97 C 113.03 108.80 114.35 108.45 115.01 108.28 C 115.52 108.62 116.55 109.31 117.06 109.65 C 117.64 109.06 118.81 107.87 119.39 107.27 C 119.46 108.60 119.61 111.26 119.68 112.59 C 119.24 112.75 118.35 113.07 117.91 113.23 C 118.60 113.31 119.97 113.47 120.66 113.55 C 120.50 115.60 121.12 117.85 120.26 119.78 C 117.02 122.13 112.97 122.67 109.16 123.49 C 104.55 124.80 100.07 122.36 95.48 122.18 C 95.22 118.88 95.23 115.36 93.23 112.55 C 93.98 112.28 95.49 111.73 96.24 111.46 C 93.29 109.88 90.78 107.67 89.67 104.42 C 89.49 102.67 89.29 100.92 89.07 99.18 C 90.55 99.16 92.03 99.13 93.52 99.09 C 92.75 98.32 91.95 97.59 91.13 96.89 C 90.65 97.40 89.69 98.41 89.21 98.92 C 88.22 95.68 87.33 92.40 86.03 89.26 C 87.92 90.62 89.79 92.12 92.01 92.88 C 95.44 93.63 98.71 91.79 100.91 89.29 C 103.55 88.47 107.06 88.09 107.92 84.93 C 110.23 81.53 108.07 77.11 105.39 74.61 C 106.61 78.25 107.63 82.11 106.16 85.86 C 103.93 86.74 101.46 87.12 99.47 88.53 C 97.81 89.60 96.19 91.07 94.08 91.01 C 90.58 91.31 88.20 88.13 85.31 86.68 C 85.98 84.62 86.67 82.58 87.48 80.57 C 88.43 81.36 90.34 82.92 91.29 83.71 C 91.46 81.76 90.33 80.17 89.28 78.65 C 88.70 78.69 87.54 78.77 86.96 78.80 C 86.92 77.71 86.83 75.52 86.79 74.43 C 86.11 77.66 84.70 80.63 83.44 83.66 C 82.86 83.66 81.69 83.65 81.11 83.65 C 84.40 89.41 86.51 95.75 87.87 102.23 C 87.63 102.85 87.15 104.11 86.91 104.74 C 88.26 106.35 89.54 108.03 90.69 109.80 C 93.71 120.83 95.17 132.33 99.03 143.16 C 101.63 145.79 105.53 148.61 103.66 152.85 C 103.06 157.86 97.61 158.56 93.79 159.98 C 91.47 159.53 89.18 158.87 86.96 158.07 C 89.33 157.73 91.84 154.14 88.64 152.95 C 88.03 152.54 86.81 151.70 86.20 151.29 C 88.10 149.43 89.79 147.34 90.91 144.92 C 87.47 146.61 85.49 150.09 82.72 152.60 C 82.26 152.66 81.34 152.77 80.88 152.82 C 80.31 153.24 80.15 153.82 80.40 154.57 C 83.14 154.16 86.33 152.28 88.68 154.74 C 82.66 156.34 76.53 157.44 70.48 158.93 C 67.81 159.51 64.79 160.60 62.28 158.91 C 67.84 157.55 73.40 156.10 79.04 155.15 C 79.15 154.70 79.36 153.79 79.47 153.34 C 73.96 154.38 68.66 156.31 63.13 157.31 C 61.93 155.02 60.76 152.69 60.21 150.15 C 59.32 146.21 55.90 142.82 51.80 142.47 C 49.29 142.52 46.73 142.70 44.33 143.46 C 38.92 148.25 37.77 156.09 38.27 162.95 C 35.18 163.76 32.06 164.46 28.92 165.06 C 25.66 165.24 26.50 170.48 29.10 171.16 C 32.15 170.79 35.12 169.95 38.12 169.30 C 40.15 174.20 41.86 179.53 45.70 183.35 C 49.12 186.58 54.47 185.24 58.06 183.08 C 64.20 178.21 65.02 169.83 64.39 162.56 C 69.14 161.51 73.88 160.38 78.66 159.40 C 79.20 161.16 79.84 162.89 80.65 164.55 C 81.22 164.16 82.36 163.38 82.93 163.00 C 81.99 168.63 84.13 174.51 81.99 179.95 C 80.29 184.63 80.16 189.65 79.69 194.55 C 78.12 199.96 75.71 205.24 75.32 210.93 C 75.50 217.09 78.07 222.84 78.90 228.90 C 79.24 232.72 79.13 236.63 78.08 240.34 C 78.59 241.90 79.10 243.47 79.62 245.03 C 78.77 248.68 81.41 251.68 82.04 255.10 C 81.90 263.93 94.09 266.81 100.25 262.35 C 101.41 262.10 102.56 261.78 103.68 261.40 C 105.05 260.26 104.49 258.30 104.62 256.76 C 102.08 252.90 98.55 249.78 96.53 245.58 C 95.09 242.69 92.79 240.18 92.10 236.95 C 90.29 229.39 91.13 221.20 94.08 214.03 C 96.38 207.86 93.49 201.12 95.53 194.90 C 97.13 189.92 98.30 184.69 101.24 180.29 C 103.87 175.77 104.23 170.39 104.33 165.27 C 105.10 164.76 105.92 164.38 106.79 164.13 C 108.92 166.44 110.52 169.18 112.15 171.85 C 114.02 174.81 113.02 178.58 114.42 181.70 C 116.04 185.27 117.51 188.91 119.50 192.29 C 121.60 188.77 118.82 185.54 117.60 182.30 C 116.38 179.43 117.02 176.12 115.72 173.28 C 113.51 169.14 110.89 165.24 107.90 161.64 L 107.18 160.59 C 109.83 161.19 112.23 162.99 115.04 162.66 C 119.99 162.39 124.40 159.73 128.16 156.69 C 128.44 161.00 128.66 165.31 128.96 169.62 C 128.47 169.62 127.49 169.61 127.00 169.61 C 126.22 171.90 125.75 174.45 124.04 176.28 C 121.21 176.36 120.06 173.45 119.01 171.36 C 118.83 171.39 118.49 171.45 118.31 171.48 C 119.30 173.71 119.70 176.60 122.06 177.86 C 125.45 177.97 126.74 174.43 128.48 172.18 C 129.54 174.61 130.54 177.27 129.72 179.94 C 128.62 184.21 128.75 188.65 128.40 193.01 C 129.07 198.00 130.27 202.97 129.85 208.05 C 129.41 213.18 129.88 218.47 131.69 223.30 C 134.50 226.18 137.50 228.90 139.92 232.15 C 142.32 235.32 146.16 236.87 150.02 237.27 C 150.74 238.20 151.45 239.13 152.16 240.08 C 150.41 241.00 148.77 242.11 146.96 242.90 C 143.30 242.85 139.39 242.89 136.12 241.02 C 131.65 238.55 126.40 240.37 121.59 240.01 C 121.06 239.05 119.99 238.26 120.15 237.06 C 120.21 233.05 120.58 228.96 121.97 225.17 C 122.11 221.07 122.32 216.94 121.86 212.84 C 121.42 209.29 118.49 206.63 118.13 203.06 C 117.55 198.85 116.49 194.56 117.45 190.31 C 117.00 189.51 116.54 188.71 116.06 187.92 C 115.17 192.54 114.57 197.27 114.94 201.97 C 116.46 206.81 120.12 210.86 120.41 216.11 C 122.03 223.91 116.60 231.25 118.34 239.04 C 120.52 242.11 124.84 241.97 128.17 241.30 C 132.01 240.41 135.32 242.99 138.67 244.40 C 141.07 244.11 143.42 244.87 145.80 244.86 C 149.02 243.66 152.65 242.57 154.37 239.31 C 153.21 237.87 152.03 236.44 150.82 235.05 C 148.70 234.65 146.38 234.67 144.57 233.34 C 140.76 230.89 138.62 226.65 134.97 223.99 C 133.23 222.80 132.83 220.62 132.32 218.73 C 131.27 211.74 132.30 204.60 131.27 197.60 C 129.89 191.43 130.08 184.92 131.55 178.79 C 132.06 175.76 129.86 173.08 130.06 170.06 C 130.12 165.44 129.97 160.80 129.17 156.24 C 129.77 155.98 130.95 155.47 131.54 155.22 C 131.48 154.54 131.35 153.20 131.29 152.53 C 129.78 150.96 128.76 149.05 128.60 146.86 C 133.20 145.43 136.45 150.32 140.96 149.05 C 143.81 148.25 146.69 147.49 149.51 146.59 C 150.27 145.15 150.79 143.60 151.40 142.08 C 158.30 140.32 165.28 138.87 172.18 137.11 C 172.39 136.18 172.59 135.25 172.80 134.33 C 172.37 133.39 171.96 132.46 171.54 131.53 C 168.37 132.18 165.22 132.93 162.10 133.77 C 163.33 127.90 163.03 121.16 167.27 116.40 C 169.06 114.11 172.27 114.35 174.82 113.61 C 181.71 116.43 184.87 123.99 185.66 130.94 C 186.02 137.67 185.44 144.87 181.64 150.65 C 179.54 153.25 175.86 153.11 172.87 152.70 C 167.91 149.92 165.37 144.44 164.01 139.15 C 163.43 139.84 162.86 140.54 162.29 141.24 C 164.06 146.37 166.17 152.18 171.26 154.90 C 175.29 156.03 180.42 155.64 183.36 152.30 C 186.94 146.95 187.80 140.35 187.56 134.04 C 191.63 132.62 195.81 131.56 199.87 130.11 C 199.38 128.49 198.86 126.88 198.30 125.28 C 194.34 126.06 190.41 127.02 186.52 128.14 C 185.44 123.11 183.57 117.93 179.55 114.48 C 176.16 111.50 170.98 112.37 167.41 114.48 C 162.36 119.44 161.40 127.14 161.61 133.90 C 157.75 134.77 153.89 135.65 150.01 136.48 C 148.46 132.18 147.30 127.74 144.99 123.76 C 143.66 118.39 144.10 112.55 141.66 107.43 C 139.68 103.71 138.31 99.57 135.34 96.48 C 134.84 90.80 134.79 84.52 131.19 79.78 C 130.73 76.15 130.49 72.39 129.01 69.00 C 127.21 64.93 122.94 62.68 118.83 61.60 M 71.06 70.06 C 68.90 72.67 66.88 75.54 66.04 78.87 C 65.21 84.33 67.16 89.65 67.23 95.09 C 67.24 98.20 68.82 100.98 70.64 103.40 C 72.77 106.24 73.50 109.78 74.48 113.12 C 77.08 122.00 83.22 130.09 82.91 139.67 L 84.97 139.88 C 84.80 138.23 84.63 136.59 84.45 134.95 C 86.09 138.36 86.86 142.46 89.86 145.01 C 90.31 139.64 86.69 135.50 84.38 131.05 C 84.07 124.66 80.17 119.10 80.04 112.69 C 78.66 111.48 77.29 110.23 75.92 109.00 L 77.23 112.25 C 76.95 112.17 76.38 112.02 76.09 111.94 C 75.47 108.69 74.89 105.07 72.32 102.71 C 70.39 101.07 69.54 98.68 68.89 96.31 C 70.94 97.04 73.85 96.97 74.87 99.29 C 76.29 102.11 77.37 105.13 79.38 107.61 C 79.99 107.27 80.59 106.94 81.20 106.60 C 78.37 104.09 77.81 100.21 75.73 97.22 C 74.75 95.74 72.84 95.60 71.28 96.16 C 70.52 95.85 69.76 95.53 69.01 95.21 C 69.21 89.79 67.84 84.43 68.34 79.04 C 68.93 74.41 72.46 71.16 76.29 68.95 C 74.54 69.30 72.80 69.69 71.06 70.06 M 110.16 90.96 C 112.07 92.35 112.40 94.58 112.24 96.81 C 110.91 96.89 109.58 96.96 108.25 97.03 C 106.94 98.35 105.34 99.30 103.60 99.97 C 102.96 100.79 102.31 101.62 101.67 102.45 C 100.20 101.76 98.76 101.01 97.35 100.20 C 96.96 100.29 96.18 100.48 95.79 100.57 C 97.29 102.09 99.08 103.23 101.20 103.63 C 102.94 102.39 104.82 101.34 106.85 100.65 C 107.19 100.31 107.88 99.65 108.22 99.32 C 110.06 98.88 111.85 98.24 113.51 97.33 C 116.27 97.58 119.00 98.06 121.71 98.64 C 120.15 95.77 116.88 95.77 114.02 95.74 C 113.45 94.38 112.80 93.04 112.14 91.72 C 113.00 91.05 113.85 90.38 114.71 89.71 C 115.91 90.13 117.13 90.53 118.36 90.89 C 117.33 90.00 116.35 88.98 115.09 88.40 C 113.42 89.19 111.94 90.37 110.16 90.96 M 99.39 97.96 C 103.61 96.31 106.03 92.48 108.31 88.80 C 103.78 89.88 102.30 94.85 99.39 97.96 M 94.16 106.26 C 95.38 107.80 97.20 108.17 99.05 108.34 C 99.65 107.41 100.26 106.49 100.86 105.57 C 98.62 105.79 96.39 105.99 94.16 106.26 M 99.61 109.35 C 100.70 110.23 101.75 111.19 103.00 111.86 C 105.37 111.58 107.53 110.32 109.96 110.19 C 110.25 109.85 110.83 109.15 111.12 108.80 C 107.16 108.06 103.53 110.61 99.61 109.35 M 101.02 112.75 C 100.35 114.08 102.28 116.14 103.60 115.41 C 104.11 114.08 102.44 111.69 101.02 112.75 M 172.76 114.83 C 174.73 117.96 177.47 120.68 178.63 124.28 C 181.15 131.48 181.75 139.61 179.10 146.86 C 178.73 148.19 177.36 149.56 178.01 150.98 C 179.49 151.39 179.71 149.20 180.20 148.25 C 182.92 140.42 182.60 131.68 179.95 123.87 C 178.62 120.25 176.78 116.04 172.76 114.83 M 100.64 115.42 C 100.88 119.21 103.95 122.88 107.96 122.68 C 105.43 120.35 102.99 117.93 100.64 115.42 M 81.09 150.94 C 83.35 151.11 82.34 147.07 83.50 145.62 C 83.10 143.59 82.68 141.55 82.27 139.53 C 82.12 143.32 79.69 147.31 81.09 150.94 M 122.70 230.24 C 123.62 231.69 124.54 233.14 125.57 234.52 C 125.06 231.60 124.58 228.67 124.22 225.73 C 123.66 227.21 123.17 228.72 122.70 230.24 Z" />
<path fill="#FFFFFF" opacity="1.00" d=" M 88.96 31.80 C 92.61 28.54 97.70 28.41 102.31 28.61 C 104.30 30.49 106.94 32.23 107.29 35.19 C 108.03 39.43 109.56 43.66 108.82 48.01 C 108.30 50.93 108.08 53.94 107.18 56.77 C 106.18 57.57 105.07 58.21 104.00 58.89 C 101.30 58.00 98.57 57.16 95.97 56.01 C 93.69 54.88 92.86 52.27 91.85 50.12 C 90.18 49.08 88.46 48.08 86.99 46.76 C 87.04 45.08 87.61 43.48 88.01 41.86 C 87.41 42.02 86.19 42.35 85.59 42.51 C 85.36 38.75 85.63 34.24 88.96 31.80 Z" />
<path fill="#FFFFFF" opacity="1.00" d=" M 76.62 114.36 C 77.06 113.69 77.50 113.02 77.96 112.36 C 78.34 114.49 78.77 116.61 79.13 118.74 C 78.24 117.31 77.42 115.83 76.62 114.36 Z" />
<path fill="#FFFFFF" opacity="1.00" d=" M 98.60 124.33 C 105.76 128.07 113.95 125.16 120.81 122.21 C 120.87 126.45 121.94 130.68 124.54 134.09 C 123.84 133.70 122.44 132.93 121.73 132.54 C 122.94 135.84 124.12 139.14 125.16 142.49 C 118.34 144.14 111.61 146.16 104.64 147.14 C 103.14 144.79 101.84 142.32 100.83 139.73 L 99.02 138.82 C 103.45 137.10 108.11 135.99 112.82 135.36 C 113.04 134.85 113.49 133.83 113.71 133.32 C 108.76 133.97 103.97 135.43 99.21 136.91 C 98.90 136.02 98.29 134.25 97.98 133.36 C 98.54 133.26 99.66 133.05 100.22 132.95 C 99.65 132.90 98.50 132.78 97.93 132.73 C 98.01 132.06 98.18 130.71 98.26 130.04 C 99.00 129.92 100.48 129.69 101.22 129.57 C 107.15 131.69 113.73 129.27 119.29 126.95 C 119.50 126.31 119.92 125.03 120.13 124.39 C 114.56 128.11 107.50 128.49 101.00 128.64 C 98.78 128.89 97.08 127.29 95.58 125.91 C 96.58 125.37 97.59 124.85 98.60 124.33 M 115.38 134.67 C 112.36 136.99 107.25 137.02 105.69 140.95 C 110.35 139.89 114.30 136.98 118.86 135.60 C 119.04 134.90 119.40 133.50 119.58 132.81 C 117.99 132.94 114.79 132.03 115.38 134.67 Z" />
<path fill="#FFFFFF" opacity="1.00" d=" M 186.57 129.25 C 190.63 128.88 195.16 125.64 198.92 128.17 C 195.12 129.53 191.23 130.66 187.28 131.53 C 187.11 130.96 186.75 129.82 186.57 129.25 Z" />
<path fill="#FFFFFF" opacity="1.00" d=" M 166.15 134.20 C 168.17 133.86 170.49 132.39 172.26 134.38 C 165.36 137.05 157.96 138.11 150.80 139.88 C 150.95 139.36 151.27 138.32 151.43 137.80 C 156.26 136.33 161.29 135.58 166.15 134.20 Z" />
<path fill="#FFFFFF" opacity="1.00" d=" M 111.18 147.29 C 119.19 145.72 127.01 142.46 135.29 142.82 C 125.40 146.58 114.84 148.24 104.61 150.86 C 105.12 147.58 108.76 148.10 111.18 147.29 Z" />
<path fill="#FFFFFF" opacity="1.00" d=" M 43.18 146.32 C 44.99 143.53 48.63 142.85 51.71 143.18 C 58.33 145.76 61.47 153.28 62.04 159.93 C 62.69 167.60 62.51 176.83 55.93 182.08 C 55.53 179.45 56.93 177.06 57.53 174.58 C 59.23 167.88 58.79 160.72 56.78 154.14 C 55.47 150.09 53.50 145.77 49.45 143.83 C 51.00 147.41 54.22 150.05 55.26 153.90 C 57.94 161.98 58.22 171.34 54.29 179.07 C 53.78 180.20 53.30 181.35 52.87 182.51 C 50.80 182.67 48.38 182.98 46.85 181.22 C 43.71 177.68 42.16 173.07 40.21 168.83 C 43.34 168.24 46.43 167.35 49.32 165.99 C 49.07 164.17 48.75 162.36 48.30 160.59 C 45.08 161.28 41.88 162.05 38.69 162.88 C 39.49 157.24 39.63 151.07 43.18 146.32 Z" />
<path fill="#FFFFFF" opacity="1.00" d=" M 105.72 152.94 C 112.77 151.23 119.84 149.59 126.85 147.72 C 127.36 149.86 128.25 151.89 129.61 153.64 C 124.61 156.08 120.67 160.59 114.86 161.32 C 112.22 160.39 109.50 159.68 106.74 159.24 C 107.90 155.79 111.63 155.61 114.51 154.53 C 115.17 153.53 115.52 152.36 115.94 151.26 C 114.87 151.96 113.81 152.68 112.75 153.41 C 110.37 154.04 107.52 154.70 106.31 157.12 C 105.58 158.90 105.27 160.82 104.59 162.62 C 102.34 164.84 99.07 165.44 96.08 165.93 C 92.17 166.51 88.64 164.39 85.14 163.00 C 84.79 161.91 84.44 160.82 84.09 159.73 C 83.20 160.37 81.43 161.67 80.54 162.31 L 80.91 159.01 C 81.93 158.76 83.98 158.24 85.00 157.99 C 87.20 160.82 90.72 162.19 94.27 161.85 C 97.27 159.95 100.83 159.36 104.07 158.01 C 104.63 156.32 105.19 154.63 105.72 152.94 Z" />
<path fill="#FFFFFF" opacity="1.00" d=" M 29.96 166.31 C 36.26 165.39 42.30 162.92 48.69 162.70 C 47.94 165.07 45.41 164.98 43.45 165.55 C 39.36 166.36 35.38 167.74 31.24 168.29 C 30.92 167.79 30.28 166.80 29.96 166.31 Z" />
<path fill="#FFFFFF" opacity="1.00" d=" M 84.05 164.63 C 87.02 165.64 89.72 167.40 92.83 167.99 C 96.32 168.19 99.73 167.18 103.11 166.45 C 102.36 170.92 101.94 175.63 99.68 179.65 C 95.96 185.40 94.74 192.28 92.27 198.57 C 89.36 203.98 85.85 210.79 88.69 216.87 C 90.10 211.61 89.37 205.75 92.81 201.13 C 92.94 205.74 93.67 210.64 91.48 214.92 C 88.35 221.76 88.44 229.70 90.24 236.89 C 91.02 240.54 93.48 243.45 95.17 246.69 C 97.32 251.33 101.52 254.55 103.80 259.12 C 102.64 259.51 101.48 259.89 100.30 260.24 C 99.44 258.99 98.75 257.59 97.65 256.53 C 94.36 256.77 91.01 256.78 87.76 257.19 C 87.42 257.55 86.73 258.29 86.39 258.66 C 87.44 258.58 88.48 258.51 89.53 258.42 C 92.05 259.39 94.67 258.62 97.20 258.11 C 97.53 258.78 98.19 260.12 98.52 260.80 C 94.19 263.52 88.26 262.56 85.18 258.43 C 84.79 250.74 78.38 243.94 80.73 236.09 C 82.31 226.49 75.77 217.67 77.21 208.10 C 77.99 204.08 79.34 200.19 81.03 196.47 C 82.39 199.48 82.97 202.94 85.27 205.44 C 84.36 198.50 80.43 191.67 82.42 184.60 C 83.10 181.72 84.42 179.03 84.99 176.12 C 85.00 172.27 84.15 168.48 84.05 164.63 M 87.46 179.92 C 87.27 181.73 87.08 183.54 86.94 185.36 C 87.68 184.19 88.39 183.02 89.11 181.84 C 90.80 181.44 92.49 181.01 94.16 180.52 C 94.86 181.39 95.17 182.86 96.49 182.93 C 95.96 181.29 95.33 179.69 94.71 178.09 C 92.44 179.19 90.00 179.83 87.46 179.92 M 89.28 188.77 C 89.41 189.40 89.65 190.64 89.78 191.27 C 90.80 191.07 92.85 190.67 93.88 190.47 C 92.55 189.43 90.90 189.09 89.28 188.77 M 82.57 242.93 C 85.56 240.84 86.75 237.35 88.27 234.22 C 84.70 235.55 83.59 239.65 82.57 242.93 Z" />
</g>
<g id="#454645ff">
<path fill="#333333" opacity="1.00" d=" M 85.83 31.86 C 89.05 27.41 95.05 26.74 100.12 27.30 C 104.28 27.28 108.33 30.64 108.65 34.87 C 109.17 38.96 111.02 42.94 110.35 47.12 C 109.79 51.29 109.17 55.50 107.74 59.48 C 109.23 59.71 110.73 59.93 112.23 60.13 C 112.58 60.64 113.30 61.68 113.65 62.20 C 111.27 61.79 108.92 61.25 106.60 60.58 C 106.53 61.62 106.39 63.69 106.32 64.72 C 108.88 63.76 111.49 62.77 114.28 62.88 C 112.08 65.00 108.96 65.44 106.22 66.50 C 105.28 67.66 104.57 69.36 102.91 69.58 C 100.23 69.34 97.73 67.91 94.99 68.14 C 92.42 68.45 89.92 69.17 87.35 69.51 C 87.44 69.11 87.61 68.31 87.70 67.91 C 90.02 67.55 92.31 67.05 94.62 66.63 C 93.50 63.63 92.26 60.68 91.03 57.73 C 93.36 60.13 95.72 62.92 95.49 66.50 C 98.89 66.53 102.17 68.50 105.54 67.36 C 105.63 66.45 105.71 65.54 105.80 64.63 C 105.42 63.25 105.06 61.86 104.74 60.47 C 100.85 60.55 96.96 59.43 93.78 57.17 C 91.84 54.92 90.76 52.05 88.69 49.88 C 88.95 53.71 88.47 57.52 88.33 61.34 C 84.32 62.69 80.90 65.19 78.51 68.70 C 80.87 68.07 83.39 67.58 85.77 68.42 C 85.32 69.55 84.75 70.64 84.10 71.67 C 83.05 70.98 82.07 70.19 81.07 69.43 C 79.53 69.36 78.00 69.23 76.47 69.11 C 77.81 67.21 79.00 65.20 80.53 63.45 C 82.32 61.45 84.91 60.53 87.05 59.00 C 87.66 56.01 87.62 52.95 87.76 49.92 C 86.84 48.88 85.93 47.84 85.02 46.81 C 84.50 41.87 82.57 36.26 85.83 31.86 M 88.96 31.80 C 85.63 34.24 85.36 38.75 85.59 42.51 C 86.19 42.35 87.41 42.02 88.01 41.86 C 87.61 43.48 87.04 45.08 86.99 46.76 C 88.46 48.08 90.18 49.08 91.85 50.12 C 92.86 52.27 93.69 54.88 95.97 56.01 C 98.57 57.16 101.30 58.00 104.00 58.89 C 105.07 58.21 106.18 57.57 107.18 56.77 C 108.08 53.94 108.30 50.93 108.82 48.01 C 109.56 43.66 108.03 39.43 107.29 35.19 C 106.94 32.23 104.30 30.49 102.31 28.61 C 97.70 28.41 92.61 28.54 88.96 31.80 Z" />
<path fill="#333333" opacity="1.00" d=" M 115.78 62.12 C 116.33 62.16 117.42 62.23 117.96 62.26 C 118.06 62.72 118.26 63.65 118.36 64.11 C 117.20 65.22 114.73 63.55 115.78 62.12 Z" />
<path fill="#333333" opacity="1.00" d=" M 118.83 61.60 C 122.94 62.68 127.21 64.93 129.01 69.00 C 130.49 72.39 130.73 76.15 131.19 79.78 C 134.79 84.52 134.84 90.80 135.34 96.48 C 138.31 99.57 139.68 103.71 141.66 107.43 C 144.10 112.55 143.66 118.39 144.99 123.76 C 147.30 127.74 148.46 132.18 150.01 136.48 C 153.89 135.65 157.75 134.77 161.61 133.90 C 161.40 127.14 162.36 119.44 167.41 114.48 C 170.98 112.37 176.16 111.50 179.55 114.48 C 183.57 117.93 185.44 123.11 186.52 128.14 C 190.41 127.02 194.34 126.06 198.30 125.28 C 198.86 126.88 199.38 128.49 199.87 130.11 C 195.81 131.56 191.63 132.62 187.56 134.04 C 187.80 140.35 186.94 146.95 183.36 152.30 C 180.42 155.64 175.29 156.03 171.26 154.90 C 166.17 152.18 164.06 146.37 162.29 141.24 C 162.86 140.54 163.43 139.84 164.01 139.15 C 165.37 144.44 167.91 149.92 172.87 152.70 C 175.86 153.11 179.54 153.25 181.64 150.65 C 185.44 144.87 186.02 137.67 185.66 130.94 C 184.87 123.99 181.71 116.43 174.82 113.61 C 172.27 114.35 169.06 114.11 167.27 116.40 C 163.03 121.16 163.33 127.90 162.10 133.77 C 165.22 132.93 168.37 132.18 171.54 131.53 C 171.96 132.46 172.37 133.39 172.80 134.33 C 172.59 135.25 172.39 136.18 172.18 137.11 C 165.28 138.87 158.30 140.32 151.40 142.08 C 150.79 143.60 150.27 145.15 149.51 146.59 C 146.69 147.49 143.81 148.25 140.96 149.05 C 136.45 150.32 133.20 145.43 128.60 146.86 C 128.76 149.05 129.78 150.96 131.29 152.53 C 131.35 153.20 131.48 154.54 131.54 155.22 C 130.95 155.47 129.77 155.98 129.17 156.24 C 129.97 160.80 130.12 165.44 130.06 170.06 C 129.86 173.08 132.06 175.76 131.55 178.79 C 130.08 184.92 129.89 191.43 131.27 197.60 C 132.30 204.60 131.27 211.74 132.32 218.73 C 132.83 220.62 133.23 222.80 134.97 223.99 C 138.62 226.65 140.76 230.89 144.57 233.34 C 146.38 234.67 148.70 234.65 150.82 235.05 C 152.03 236.44 153.21 237.87 154.37 239.31 C 152.65 242.57 149.02 243.66 145.80 244.86 C 143.42 244.87 141.07 244.11 138.67 244.40 C 135.32 242.99 132.01 240.41 128.17 241.30 C 124.84 241.97 120.52 242.11 118.34 239.04 C 116.60 231.25 122.03 223.91 120.41 216.11 C 120.12 210.86 116.46 206.81 114.94 201.97 C 114.57 197.27 115.17 192.54 116.06 187.92 C 116.54 188.71 117.00 189.51 117.45 190.31 C 116.49 194.56 117.55 198.85 118.13 203.06 C 118.49 206.63 121.42 209.29 121.86 212.84 C 122.32 216.94 122.11 221.07 121.97 225.17 C 120.58 228.96 120.21 233.05 120.15 237.06 C 119.99 238.26 121.06 239.05 121.59 240.01 C 126.40 240.37 131.65 238.55 136.12 241.02 C 139.39 242.89 143.30 242.85 146.96 242.90 C 148.77 242.11 150.41 241.00 152.16 240.08 C 151.45 239.13 150.74 238.20 150.02 237.27 C 146.16 236.87 142.32 235.32 139.92 232.15 C 137.50 228.90 134.50 226.18 131.69 223.30 C 129.88 218.47 129.41 213.18 129.85 208.05 C 130.27 202.97 129.07 198.00 128.40 193.01 C 128.75 188.65 128.62 184.21 129.72 179.94 C 130.54 177.27 129.54 174.61 128.48 172.18 C 126.74 174.43 125.45 177.97 122.06 177.86 C 119.70 176.60 119.30 173.71 118.31 171.48 C 118.49 171.45 118.83 171.39 119.01 171.36 C 120.06 173.45 121.21 176.36 124.04 176.28 C 125.75 174.45 126.22 171.90 127.00 169.61 C 127.49 169.61 128.47 169.62 128.96 169.62 C 128.66 165.31 128.44 161.00 128.16 156.69 C 124.40 159.73 119.99 162.39 115.04 162.66 C 112.23 162.99 109.83 161.19 107.18 160.59 L 107.90 161.64 C 110.89 165.24 113.51 169.14 115.72 173.28 C 117.02 176.12 116.38 179.43 117.60 182.30 C 118.82 185.54 121.60 188.77 119.50 192.29 C 117.51 188.91 116.04 185.27 114.42 181.70 C 113.02 178.58 114.02 174.81 112.15 171.85 C 110.52 169.18 108.92 166.44 106.79 164.13 C 105.92 164.38 105.10 164.76 104.33 165.27 C 104.23 170.39 103.87 175.77 101.24 180.29 C 98.30 184.69 97.13 189.92 95.53 194.90 C 93.49 201.12 96.38 207.86 94.08 214.03 C 91.13 221.20 90.29 229.39 92.10 236.95 C 92.79 240.18 95.09 242.69 96.53 245.58 C 98.55 249.78 102.08 252.90 104.62 256.76 C 104.49 258.30 105.05 260.26 103.68 261.40 C 102.56 261.78 101.41 262.10 100.25 262.35 C 94.09 266.81 81.90 263.93 82.04 255.10 C 81.41 251.68 78.77 248.68 79.62 245.03 C 79.10 243.47 78.59 241.90 78.08 240.34 C 79.13 236.63 79.24 232.72 78.90 228.90 C 78.07 222.84 75.50 217.09 75.32 210.93 C 75.71 205.24 78.12 199.96 79.69 194.55 C 80.16 189.65 80.29 184.63 81.99 179.95 C 84.13 174.51 81.99 168.63 82.93 163.00 C 82.36 163.38 81.22 164.16 80.65 164.55 C 79.84 162.89 79.20 161.16 78.66 159.40 C 73.88 160.38 69.14 161.51 64.39 162.56 C 65.02 169.83 64.20 178.21 58.06 183.08 C 54.47 185.24 49.12 186.58 45.70 183.35 C 41.86 179.53 40.15 174.20 38.12 169.30 C 35.12 169.95 32.15 170.79 29.10 171.16 C 26.50 170.48 25.66 165.24 28.92 165.06 C 32.06 164.46 35.18 163.76 38.27 162.95 C 37.77 156.09 38.92 148.25 44.33 143.46 C 46.73 142.70 49.29 142.52 51.80 142.47 C 55.90 142.82 59.32 146.21 60.21 150.15 C 60.76 152.69 61.93 155.02 63.13 157.31 C 68.66 156.31 73.96 154.38 79.47 153.34 C 79.36 153.79 79.15 154.70 79.04 155.15 C 73.40 156.10 67.84 157.55 62.28 158.91 C 64.79 160.60 67.81 159.51 70.48 158.93 C 76.53 157.44 82.66 156.34 88.68 154.74 C 86.33 152.28 83.14 154.16 80.40 154.57 C 80.15 153.82 80.31 153.24 80.88 152.82 C 81.34 152.77 82.26 152.66 82.72 152.60 C 85.49 150.09 87.47 146.61 90.91 144.92 C 89.79 147.34 88.10 149.43 86.20 151.29 C 86.81 151.70 88.03 152.54 88.64 152.95 C 91.84 154.14 89.33 157.73 86.96 158.07 C 89.18 158.87 91.47 159.53 93.79 159.98 C 97.61 158.56 103.06 157.86 103.66 152.85 C 105.53 148.61 101.63 145.79 99.03 143.16 C 95.17 132.33 93.71 120.83 90.69 109.80 C 89.54 108.03 88.26 106.35 86.91 104.74 C 87.15 104.11 87.63 102.85 87.87 102.23 C 86.51 95.75 84.40 89.41 81.11 83.65 C 81.69 83.65 82.86 83.66 83.44 83.66 C 84.70 80.63 86.11 77.66 86.79 74.43 C 86.83 75.52 86.92 77.71 86.96 78.80 C 87.54 78.77 88.70 78.69 89.28 78.65 C 90.33 80.17 91.46 81.76 91.29 83.71 C 90.34 82.92 88.43 81.36 87.48 80.57 C 86.67 82.58 85.98 84.62 85.31 86.68 C 88.20 88.13 90.58 91.31 94.08 91.01 C 96.19 91.07 97.81 89.60 99.47 88.53 C 101.46 87.12 103.93 86.74 106.16 85.86 C 107.63 82.11 106.61 78.25 105.39 74.61 C 108.07 77.11 110.23 81.53 107.92 84.93 C 107.06 88.09 103.55 88.47 100.91 89.29 C 98.71 91.79 95.44 93.63 92.01 92.88 C 89.79 92.12 87.92 90.62 86.03 89.26 C 87.33 92.40 88.22 95.68 89.21 98.92 C 89.69 98.41 90.65 97.40 91.13 96.89 C 91.95 97.59 92.75 98.32 93.52 99.09 C 92.03 99.13 90.55 99.16 89.07 99.18 C 89.29 100.92 89.49 102.67 89.67 104.42 C 90.78 107.67 93.29 109.88 96.24 111.46 C 95.49 111.73 93.98 112.28 93.23 112.55 C 95.23 115.36 95.22 118.88 95.48 122.18 C 100.07 122.36 104.55 124.80 109.16 123.49 C 112.97 122.67 117.02 122.13 120.26 119.78 C 121.12 117.85 120.50 115.60 120.66 113.55 C 119.97 113.47 118.60 113.31 117.91 113.23 C 118.35 113.07 119.24 112.75 119.68 112.59 C 119.61 111.26 119.46 108.60 119.39 107.27 C 118.81 107.87 117.64 109.06 117.06 109.65 C 116.55 109.31 115.52 108.62 115.01 108.28 C 114.35 108.45 113.03 108.80 112.37 108.97 C 112.92 106.52 113.36 104.05 113.90 101.60 C 114.62 103.32 115.10 105.14 115.42 106.98 C 116.10 107.10 117.46 107.33 118.14 107.44 C 120.09 104.24 122.60 100.96 122.38 97.00 C 121.98 93.70 121.03 90.50 120.55 87.21 C 118.93 84.29 115.56 87.05 113.12 86.95 C 111.51 86.39 110.01 85.57 108.51 84.79 C 110.42 83.43 112.36 84.77 114.20 85.46 C 116.02 84.85 117.83 84.17 119.59 83.39 L 119.23 85.73 C 119.77 85.43 120.87 84.81 121.41 84.51 C 121.90 82.39 122.49 80.29 123.00 78.18 C 121.98 76.63 121.05 75.02 120.22 73.36 C 124.26 73.19 124.06 77.93 124.17 80.80 C 124.34 82.61 123.14 84.00 122.06 85.30 C 121.94 90.82 124.77 96.13 123.55 101.62 C 125.43 101.59 127.32 101.62 129.20 101.59 C 129.76 95.07 127.86 88.62 125.73 82.53 C 127.25 84.84 127.91 87.55 128.92 90.10 C 130.86 95.07 128.40 100.54 130.25 105.54 C 128.95 105.05 127.64 104.58 126.34 104.13 C 127.10 107.38 127.92 110.63 128.40 113.95 C 129.08 118.08 133.47 120.04 134.83 123.84 C 135.93 126.79 137.68 129.83 136.92 133.09 C 136.04 136.14 133.35 138.17 131.23 140.36 C 130.45 136.59 134.45 134.85 134.74 131.40 L 135.93 131.77 C 134.97 129.34 134.07 126.88 133.41 124.35 C 130.86 121.74 128.11 118.86 127.47 115.12 C 126.68 110.61 124.63 106.46 122.61 102.40 C 121.97 106.27 123.17 110.11 123.22 113.99 C 123.48 118.00 121.71 121.98 122.85 125.95 C 123.37 128.88 125.33 131.23 126.67 133.81 C 124.69 136.52 126.28 139.50 126.90 142.38 C 128.02 141.76 129.11 141.07 130.15 140.32 C 132.25 140.50 134.36 140.65 136.48 140.76 C 136.52 142.81 136.51 144.86 136.37 146.91 C 140.77 147.82 144.92 145.97 148.79 144.14 C 148.92 142.65 149.05 141.16 149.19 139.67 C 145.64 131.85 143.12 123.52 141.84 115.01 C 141.45 112.68 141.06 110.27 139.80 108.22 C 137.64 104.65 136.23 100.66 133.74 97.28 C 133.12 92.31 132.64 87.13 130.39 82.57 C 128.07 77.92 128.78 72.36 126.31 67.76 C 124.12 65.37 121.24 63.76 118.83 61.60 M 98.60 124.33 C 97.59 124.85 96.58 125.37 95.58 125.91 C 97.08 127.29 98.78 128.89 101.00 128.64 C 107.50 128.49 114.56 128.11 120.13 124.39 C 119.92 125.03 119.50 126.31 119.29 126.95 C 113.73 129.27 107.15 131.69 101.22 129.57 C 100.48 129.69 99.00 129.92 98.26 130.04 C 98.18 130.71 98.01 132.06 97.93 132.73 C 98.50 132.78 99.65 132.90 100.22 132.95 C 99.66 133.05 98.54 133.26 97.98 133.36 C 98.29 134.25 98.90 136.02 99.21 136.91 C 103.97 135.43 108.76 133.97 113.71 133.32 C 113.49 133.83 113.04 134.85 112.82 135.36 C 108.11 135.99 103.45 137.10 99.02 138.82 L 100.83 139.73 C 101.84 142.32 103.14 144.79 104.64 147.14 C 111.61 146.16 118.34 144.14 125.16 142.49 C 124.12 139.14 122.94 135.84 121.73 132.54 C 122.44 132.93 123.84 133.70 124.54 134.09 C 121.94 130.68 120.87 126.45 120.81 122.21 C 113.95 125.16 105.76 128.07 98.60 124.33 M 186.57 129.25 C 186.75 129.82 187.11 130.96 187.28 131.53 C 191.23 130.66 195.12 129.53 198.92 128.17 C 195.16 125.64 190.63 128.88 186.57 129.25 M 166.15 134.20 C 161.29 135.58 156.26 136.33 151.43 137.80 C 151.27 138.32 150.95 139.36 150.80 139.88 C 157.96 138.11 165.36 137.05 172.26 134.38 C 170.49 132.39 168.17 133.86 166.15 134.20 M 111.18 147.29 C 108.76 148.10 105.12 147.58 104.61 150.86 C 114.84 148.24 125.40 146.58 135.29 142.82 C 127.01 142.46 119.19 145.72 111.18 147.29 M 43.18 146.32 C 39.63 151.07 39.49 157.24 38.69 162.88 C 41.88 162.05 45.08 161.28 48.30 160.59 C 48.75 162.36 49.07 164.17 49.32 165.99 C 46.43 167.35 43.34 168.24 40.21 168.83 C 42.16 173.07 43.71 177.68 46.85 181.22 C 48.38 182.98 50.80 182.67 52.87 182.51 C 53.30 181.35 53.78 180.20 54.29 179.07 C 58.22 171.34 57.94 161.98 55.26 153.90 C 54.22 150.05 51.00 147.41 49.45 143.83 C 53.50 145.77 55.47 150.09 56.78 154.14 C 58.79 160.72 59.23 167.88 57.53 174.58 C 56.93 177.06 55.53 179.45 55.93 182.08 C 62.51 176.83 62.69 167.60 62.04 159.93 C 61.47 153.28 58.33 145.76 51.71 143.18 C 48.63 142.85 44.99 143.53 43.18 146.32 M 105.72 152.94 C 105.19 154.63 104.63 156.32 104.07 158.01 C 100.83 159.36 97.27 159.95 94.27 161.85 C 90.72 162.19 87.20 160.82 85.00 157.99 C 83.98 158.24 81.93 158.76 80.91 159.01 L 80.54 162.31 C 81.43 161.67 83.20 160.37 84.09 159.73 C 84.44 160.82 84.79 161.91 85.14 163.00 C 88.64 164.39 92.17 166.51 96.08 165.93 C 99.07 165.44 102.34 164.84 104.59 162.62 C 105.27 160.82 105.58 158.90 106.31 157.12 C 107.52 154.70 110.37 154.04 112.75 153.41 C 113.81 152.68 114.87 151.96 115.94 151.26 C 115.52 152.36 115.17 153.53 114.51 154.53 C 111.63 155.61 107.90 155.79 106.74 159.24 C 109.50 159.68 112.22 160.39 114.86 161.32 C 120.67 160.59 124.61 156.08 129.61 153.64 C 128.25 151.89 127.36 149.86 126.85 147.72 C 119.84 149.59 112.77 151.23 105.72 152.94 M 29.96 166.31 C 30.28 166.80 30.92 167.79 31.24 168.29 C 35.38 167.74 39.36 166.36 43.45 165.55 C 45.41 164.98 47.94 165.07 48.69 162.70 C 42.30 162.92 36.26 165.39 29.96 166.31 M 84.05 164.63 C 84.15 168.48 85.00 172.27 84.99 176.12 C 84.42 179.03 83.10 181.72 82.42 184.60 C 80.43 191.67 84.36 198.50 85.27 205.44 C 82.97 202.94 82.39 199.48 81.03 196.47 C 79.34 200.19 77.99 204.08 77.21 208.10 C 75.77 217.67 82.31 226.49 80.73 236.09 C 78.38 243.94 84.79 250.74 85.18 258.43 C 88.26 262.56 94.19 263.52 98.52 260.80 C 98.19 260.12 97.53 258.78 97.20 258.11 C 94.67 258.62 92.05 259.39 89.53 258.42 C 88.48 258.51 87.44 258.58 86.39 258.66 C 86.73 258.29 87.42 257.55 87.76 257.19 C 91.01 256.78 94.36 256.77 97.65 256.53 C 98.75 257.59 99.44 258.99 100.30 260.24 C 101.48 259.89 102.64 259.51 103.80 259.12 C 101.52 254.55 97.32 251.33 95.17 246.69 C 93.48 243.45 91.02 240.54 90.24 236.89 C 88.44 229.70 88.35 221.76 91.48 214.92 C 93.67 210.64 92.94 205.74 92.81 201.13 C 89.37 205.75 90.10 211.61 88.69 216.87 C 85.85 210.79 89.36 203.98 92.27 198.57 C 94.74 192.28 95.96 185.40 99.68 179.65 C 101.94 175.63 102.36 170.92 103.11 166.45 C 99.73 167.18 96.32 168.19 92.83 167.99 C 89.72 167.40 87.02 165.64 84.05 164.63 Z" />
<path fill="#333333" opacity="1.00" d=" M 71.06 70.06 C 72.80 69.69 74.54 69.30 76.29 68.95 C 72.46 71.16 68.93 74.41 68.34 79.04 C 67.84 84.43 69.21 89.79 69.01 95.21 C 69.76 95.53 70.52 95.85 71.28 96.16 C 72.84 95.60 74.75 95.74 75.73 97.22 C 77.81 100.21 78.37 104.09 81.20 106.60 C 80.59 106.94 79.99 107.27 79.38 107.61 C 77.37 105.13 76.29 102.11 74.87 99.29 C 73.85 96.97 70.94 97.04 68.89 96.31 C 69.54 98.68 70.39 101.07 72.32 102.71 C 74.89 105.07 75.47 108.69 76.09 111.94 C 76.38 112.02 76.95 112.17 77.23 112.25 L 75.92 109.00 C 77.29 110.23 78.66 111.48 80.04 112.69 C 80.17 119.10 84.07 124.66 84.38 131.05 C 86.69 135.50 90.31 139.64 89.86 145.01 C 86.86 142.46 86.09 138.36 84.45 134.95 C 84.63 136.59 84.80 138.23 84.97 139.88 L 82.91 139.67 C 83.22 130.09 77.08 122.00 74.48 113.12 C 73.50 109.78 72.77 106.24 70.64 103.40 C 68.82 100.98 67.24 98.20 67.23 95.09 C 67.16 89.65 65.21 84.33 66.04 78.87 C 66.88 75.54 68.90 72.67 71.06 70.06 M 76.62 114.36 C 77.42 115.83 78.24 117.31 79.13 118.74 C 78.77 116.61 78.34 114.49 77.96 112.36 C 77.50 113.02 77.06 113.69 76.62 114.36 Z" />
<path fill="#333333" opacity="1.00" d=" M 110.16 90.96 C 111.94 90.37 113.42 89.19 115.09 88.40 C 116.35 88.98 117.33 90.00 118.36 90.89 C 117.13 90.53 115.91 90.13 114.71 89.71 C 113.85 90.38 113.00 91.05 112.14 91.72 C 112.80 93.04 113.45 94.38 114.02 95.74 C 116.88 95.77 120.15 95.77 121.71 98.64 C 119.00 98.06 116.27 97.58 113.51 97.33 C 111.85 98.24 110.06 98.88 108.22 99.32 C 107.88 99.65 107.19 100.31 106.85 100.65 C 104.82 101.34 102.94 102.39 101.20 103.63 C 99.08 103.23 97.29 102.09 95.79 100.57 C 96.18 100.48 96.96 100.29 97.35 100.20 C 98.76 101.01 100.20 101.76 101.67 102.45 C 102.31 101.62 102.96 100.79 103.60 99.97 C 105.34 99.30 106.94 98.35 108.25 97.03 C 109.58 96.96 110.91 96.89 112.24 96.81 C 112.40 94.58 112.07 92.35 110.16 90.96 Z" />
<path fill="#333333" opacity="1.00" d=" M 99.39 97.96 C 102.30 94.85 103.78 89.88 108.31 88.80 C 106.03 92.48 103.61 96.31 99.39 97.96 Z" />
<path fill="#333333" opacity="1.00" d=" M 94.16 106.26 C 96.39 105.99 98.62 105.79 100.86 105.57 C 100.26 106.49 99.65 107.41 99.05 108.34 C 97.20 108.17 95.38 107.80 94.16 106.26 Z" />
<path fill="#333333" opacity="1.00" d=" M 99.61 109.35 C 103.53 110.61 107.16 108.06 111.12 108.80 C 110.83 109.15 110.25 109.85 109.96 110.19 C 107.53 110.32 105.37 111.58 103.00 111.86 C 101.75 111.19 100.70 110.23 99.61 109.35 Z" />
<path fill="#333333" opacity="1.00" d=" M 101.02 112.75 C 102.44 111.69 104.11 114.08 103.60 115.41 C 102.28 116.14 100.35 114.08 101.02 112.75 Z" />
<path fill="#333333" opacity="1.00" d=" M 172.76 114.83 C 176.78 116.04 178.62 120.25 179.95 123.87 C 182.60 131.68 182.92 140.42 180.20 148.25 C 179.71 149.20 179.49 151.39 178.01 150.98 C 177.36 149.56 178.73 148.19 179.10 146.86 C 181.75 139.61 181.15 131.48 178.63 124.28 C 177.47 120.68 174.73 117.96 172.76 114.83 Z" />
<path fill="#333333" opacity="1.00" d=" M 100.64 115.42 C 102.99 117.93 105.43 120.35 107.96 122.68 C 103.95 122.88 100.88 119.21 100.64 115.42 Z" />
<path fill="#333333" opacity="1.00" d=" M 115.38 134.67 C 114.79 132.03 117.99 132.94 119.58 132.81 C 119.40 133.50 119.04 134.90 118.86 135.60 C 114.30 136.98 110.35 139.89 105.69 140.95 C 107.25 137.02 112.36 136.99 115.38 134.67 Z" />
<path fill="#333333" opacity="1.00" d=" M 81.09 150.94 C 79.69 147.31 82.12 143.32 82.27 139.53 C 82.68 141.55 83.10 143.59 83.50 145.62 C 82.34 147.07 83.35 151.11 81.09 150.94 Z" />
<path fill="#333333" opacity="1.00" d=" M 87.46 179.92 C 90.00 179.83 92.44 179.19 94.71 178.09 C 95.33 179.69 95.96 181.29 96.49 182.93 C 95.17 182.86 94.86 181.39 94.16 180.52 C 92.49 181.01 90.80 181.44 89.11 181.84 C 88.39 183.02 87.68 184.19 86.94 185.36 C 87.08 183.54 87.27 181.73 87.46 179.92 Z" />
<path fill="#333333" opacity="1.00" d=" M 89.28 188.77 C 90.90 189.09 92.55 189.43 93.88 190.47 C 92.85 190.67 90.80 191.07 89.78 191.27 C 89.65 190.64 89.41 189.40 89.28 188.77 Z" />
<path fill="#333333" opacity="1.00" d=" M 122.70 230.24 C 123.17 228.72 123.66 227.21 124.22 225.73 C 124.58 228.67 125.06 231.60 125.57 234.52 C 124.54 233.14 123.62 231.69 122.70 230.24 Z" />
<path fill="#333333" opacity="1.00" d=" M 82.57 242.93 C 83.59 239.65 84.70 235.55 88.27 234.22 C 86.75 237.35 85.56 240.84 82.57 242.93 Z" />
</g>
</svg>
