<?xml version="1.0" encoding="UTF-8" ?>
<!DOCTYPE svg PUBLIC "-//W3C//DTD SVG 1.1//EN" "http://www.w3.org/Graphics/SVG/1.1/DTD/svg11.dtd">
<svg width="216pt" height="275pt" viewBox="0 0 216 275" version="1.1" xmlns="http://www.w3.org/2000/svg">
<g id="#ffffffff">
<path fill="#FFFFFF" opacity="1.00" d=" M 0.00 0.00 L 216.00 0.00 L 216.00 275.00 L 0.00 275.00 L 0.00 167.31 C 6.82 166.09 13.67 164.98 20.37 163.20 C 20.01 161.12 19.59 159.05 19.07 157.00 C 15.08 157.79 11.10 158.57 7.10 159.27 C 8.63 152.33 8.98 144.52 14.03 139.01 C 16.50 136.04 20.48 135.13 24.17 135.10 C 29.79 137.05 33.41 142.49 34.95 148.04 C 38.39 158.13 37.32 169.67 32.15 178.96 C 28.81 185.83 17.88 186.52 13.41 180.51 C 10.22 176.78 9.49 171.80 7.96 167.31 C 7.77 167.30 7.39 167.27 7.21 167.26 C 7.48 173.76 10.07 180.75 15.33 184.85 C 18.85 187.71 23.61 186.44 27.66 185.87 C 31.77 183.95 33.90 179.60 35.60 175.64 C 37.81 170.63 38.29 165.09 38.29 159.67 C 49.01 158.15 59.56 155.61 70.22 153.74 C 68.97 155.84 67.49 157.82 66.47 160.06 C 67.74 161.86 69.35 164.97 72.00 163.44 C 70.93 168.89 73.06 174.59 71.06 179.90 C 69.34 184.59 69.23 189.61 68.67 194.51 C 66.81 201.53 62.92 208.62 64.97 216.07 C 66.98 223.96 69.53 232.17 67.15 240.32 C 67.62 241.89 68.09 243.46 68.55 245.04 C 68.35 247.42 68.98 249.72 69.97 251.86 C 71.16 254.39 71.14 257.28 72.21 259.84 C 76.09 264.81 83.84 265.78 89.04 262.39 C 90.41 261.80 92.42 262.02 93.31 260.62 C 93.61 259.33 93.57 258.00 93.65 256.70 C 90.36 252.47 86.48 248.67 84.18 243.75 C 78.80 236.49 79.31 226.71 81.29 218.35 C 83.45 213.51 84.07 208.24 83.50 202.99 C 82.77 196.75 85.64 191.01 87.37 185.19 C 88.76 181.51 91.84 178.59 92.39 174.56 C 93.47 170.96 92.41 166.76 94.86 163.63 C 97.72 165.39 99.05 168.64 100.71 171.41 C 102.66 174.55 101.77 178.51 103.29 181.82 C 104.03 183.79 105.43 185.74 104.83 187.95 C 104.12 194.03 102.05 200.84 105.65 206.39 C 109.35 212.19 110.35 219.49 108.45 226.09 C 107.19 230.41 106.67 234.88 106.84 239.37 C 108.77 240.36 110.68 241.82 112.97 241.65 C 116.20 241.55 119.67 240.46 122.66 242.24 C 129.10 245.79 138.84 246.13 143.18 239.22 C 141.99 237.92 140.92 236.49 139.53 235.40 C 136.97 234.39 133.96 234.30 131.88 232.29 C 128.57 229.32 126.21 225.33 122.21 223.14 C 119.48 215.02 121.05 206.37 120.03 198.02 C 118.77 191.91 118.74 185.52 120.12 179.43 C 120.86 175.88 118.51 172.62 118.81 169.07 C 118.89 164.79 118.58 160.50 117.92 156.27 C 118.51 156.00 119.69 155.46 120.28 155.19 C 120.32 154.35 120.37 153.51 120.41 152.67 C 119.24 151.39 118.08 150.08 116.95 148.76 C 119.49 148.35 122.22 148.53 124.60 147.40 C 126.54 146.56 126.11 144.04 126.64 142.37 C 142.75 139.45 158.73 135.86 174.76 132.57 C 177.15 131.39 175.77 128.15 175.29 126.13 C 171.26 126.86 167.24 127.63 163.23 128.40 C 165.02 121.31 165.22 113.18 170.59 107.60 C 173.13 104.80 177.10 104.88 180.50 104.04 C 183.95 105.93 187.43 108.24 189.13 111.94 C 193.85 121.68 194.06 133.34 190.56 143.50 C 189.06 147.46 186.68 151.71 182.48 153.25 C 179.21 153.72 175.39 154.46 172.58 152.22 C 166.74 148.40 165.81 140.95 163.74 134.86 C 162.83 141.38 165.98 148.04 170.17 152.89 C 173.68 156.98 179.43 156.15 184.08 155.06 C 186.84 153.62 188.66 150.88 190.18 148.24 C 193.32 142.17 194.54 135.27 194.68 128.49 C 200.00 127.74 205.28 126.68 210.48 125.33 C 210.01 123.45 209.51 121.58 208.96 119.73 C 203.96 120.44 198.99 121.41 194.10 122.68 C 192.84 116.57 191.30 109.97 186.54 105.55 C 182.25 101.24 175.09 102.55 170.54 105.67 C 164.44 111.55 162.98 120.54 162.67 128.65 C 150.80 130.76 138.98 133.13 127.18 135.57 C 127.36 131.52 125.73 127.80 124.83 123.95 C 124.83 118.31 125.74 112.52 124.05 107.02 C 122.81 103.05 121.98 98.87 119.61 95.38 C 119.95 90.23 120.75 84.88 119.10 79.87 C 117.06 74.60 119.63 68.46 116.57 63.45 C 113.01 57.66 105.81 56.31 100.12 53.48 C 101.48 55.41 103.38 56.82 105.33 58.08 C 105.06 58.47 104.50 59.24 104.22 59.62 C 105.60 59.73 106.98 59.84 108.36 59.95 C 108.45 59.36 108.62 58.18 108.71 57.59 C 111.03 59.65 113.62 61.57 115.22 64.29 C 116.99 69.64 115.55 75.48 117.24 80.85 C 118.60 85.76 118.07 90.90 118.37 95.92 C 119.68 100.39 121.29 104.77 122.74 109.20 C 124.10 115.05 122.84 121.16 123.98 127.05 C 125.50 133.15 124.79 139.64 123.91 145.72 C 120.66 146.57 117.30 146.80 114.00 147.44 C 113.17 146.84 112.33 146.25 111.49 145.67 C 112.38 143.98 113.06 142.19 113.60 140.36 C 112.65 139.76 111.71 139.15 110.76 138.55 C 113.00 136.80 115.16 134.83 116.16 132.06 C 114.95 132.69 113.76 133.34 112.59 134.02 C 113.31 130.88 113.33 127.66 113.25 124.46 C 112.36 123.74 111.47 123.02 110.59 122.30 C 109.31 121.97 108.04 121.62 106.77 121.27 C 103.43 122.31 100.01 123.04 96.62 123.89 C 94.74 120.21 93.18 116.38 92.32 112.34 C 93.51 111.73 94.69 111.13 95.88 110.53 C 99.00 110.89 101.70 109.50 103.85 107.35 C 103.50 105.10 102.86 102.92 102.04 100.81 C 101.94 103.51 101.81 106.27 100.65 108.77 C 97.42 108.38 94.23 108.92 91.44 110.63 C 89.58 105.77 87.25 100.91 83.20 97.49 C 82.43 94.01 81.94 90.27 79.41 87.53 C 81.08 87.01 82.77 86.60 84.46 86.15 C 82.65 85.63 80.84 85.11 79.06 84.53 C 79.11 85.16 79.23 86.42 79.29 87.04 C 76.54 84.26 73.81 81.04 73.21 77.05 C 73.26 74.15 74.04 71.33 74.27 68.45 C 72.87 70.90 71.90 73.56 70.52 76.02 C 72.28 79.95 73.34 84.33 76.42 87.51 C 78.78 89.88 80.36 92.83 81.35 96.00 C 79.75 95.52 78.15 95.04 76.53 94.63 C 79.33 97.47 82.82 99.64 85.12 102.95 C 88.50 107.97 91.21 113.42 92.95 119.23 C 95.46 124.54 97.49 130.06 97.96 135.96 C 98.97 136.62 100.09 137.17 100.91 138.09 C 101.50 141.11 101.17 144.22 101.35 147.28 C 97.65 149.92 93.07 149.27 88.82 149.06 C 87.83 148.07 86.85 147.08 85.85 146.11 C 85.67 142.19 88.47 139.34 90.12 136.09 C 88.81 129.07 83.19 124.39 79.13 118.95 C 76.07 115.15 75.77 110.10 74.47 105.58 C 70.43 102.52 68.10 97.88 64.32 94.56 C 60.29 90.38 61.20 84.05 59.60 78.86 C 58.29 74.52 58.11 69.07 61.81 65.81 C 66.23 62.17 69.57 57.05 75.23 55.16 C 76.07 55.48 76.92 55.79 77.77 56.09 C 77.66 54.16 77.52 52.23 77.38 50.31 C 77.92 50.76 79.00 51.66 79.54 52.11 C 81.39 59.09 89.31 60.65 95.54 60.74 C 98.23 56.74 98.62 51.87 99.27 47.23 C 99.95 42.76 98.11 38.47 97.46 34.11 C 96.85 30.19 92.97 27.32 89.09 27.32 C 84.48 26.95 79.07 27.03 75.75 30.78 C 72.27 34.20 72.75 39.45 73.59 43.83 C 73.89 46.28 75.45 48.29 76.85 50.22 C 76.65 51.44 76.34 52.63 75.91 53.79 C 75.40 53.79 74.37 53.81 73.86 53.82 C 71.25 55.10 68.88 56.82 66.85 58.90 C 64.41 61.44 61.12 63.09 59.07 66.00 C 56.66 69.82 54.90 74.69 56.99 79.06 C 59.80 84.35 58.81 91.21 63.36 95.63 C 67.65 100.04 69.94 105.90 73.80 110.63 C 75.05 114.58 73.98 119.13 76.48 122.66 C 76.37 121.43 76.15 118.98 76.04 117.75 C 78.38 121.25 80.91 124.64 83.87 127.66 C 85.07 130.76 87.08 133.66 87.37 137.03 C 86.47 139.46 84.54 141.42 83.97 144.01 C 80.36 144.84 76.72 145.52 73.08 146.19 C 74.05 141.12 73.84 135.89 72.65 130.88 C 72.11 128.18 72.72 123.94 76.21 123.86 C 75.86 122.87 75.50 121.90 75.12 120.93 C 73.64 123.17 71.98 125.36 70.93 127.85 C 70.30 130.59 71.44 133.31 71.78 136.01 C 72.40 139.61 71.47 143.20 70.68 146.69 C 59.81 148.97 48.77 150.51 38.04 153.35 C 36.54 146.52 34.26 138.99 28.25 134.78 C 23.12 132.25 16.05 133.84 12.61 138.49 C 7.92 144.43 6.66 152.25 6.44 159.62 C 4.29 159.96 2.15 160.35 0.01 160.78 L 0.00 159.99 L 0.00 0.00 M 67.29 63.20 C 69.55 62.98 71.47 63.84 73.02 65.43 C 74.15 65.10 74.46 63.49 75.27 62.69 C 72.63 61.44 69.68 61.38 67.29 63.20 M 81.21 60.37 C 81.80 62.52 82.50 64.63 83.13 66.77 C 82.11 66.90 80.06 67.15 79.04 67.28 C 79.38 67.52 80.07 68.02 80.41 68.26 C 81.58 68.19 82.76 68.12 83.94 68.13 C 87.53 67.84 91.01 70.84 94.39 68.56 C 90.86 67.69 87.35 66.61 83.69 66.54 C 84.88 64.03 83.31 61.68 81.21 60.37 M 105.77 63.54 C 106.97 66.71 109.55 69.44 109.35 73.02 C 109.70 75.52 108.87 77.90 107.86 80.14 C 108.34 80.32 109.30 80.69 109.78 80.87 C 112.92 75.15 111.47 67.06 105.77 63.54 M 94.35 74.78 C 94.88 77.75 96.18 80.58 95.97 83.66 C 95.53 83.32 94.64 82.65 94.20 82.32 C 94.35 83.50 95.29 84.52 95.04 85.76 C 93.79 86.41 92.47 86.92 91.15 87.43 C 90.87 87.88 90.32 88.77 90.04 89.22 C 92.64 88.47 96.03 88.03 96.91 84.97 C 99.14 81.66 97.19 77.08 94.35 74.78 M 98.20 85.34 C 101.57 87.84 105.49 86.39 109.06 85.16 C 109.50 89.51 110.58 93.76 111.54 98.02 C 113.15 94.39 111.18 90.56 110.75 86.90 C 110.79 84.93 108.52 84.88 107.25 84.15 C 104.43 85.45 101.45 85.47 98.83 83.71 C 98.67 84.12 98.35 84.94 98.20 85.34 M 100.92 90.70 C 100.41 90.72 99.38 90.76 98.87 90.78 C 101.06 92.14 101.60 94.78 100.48 97.04 C 99.60 97.01 97.84 96.95 96.96 96.92 C 96.62 97.42 95.94 98.40 95.61 98.89 C 94.68 99.17 93.76 99.46 92.84 99.74 C 91.60 101.43 90.08 102.80 87.76 101.95 C 88.79 102.65 89.82 103.36 90.86 104.06 C 92.14 102.46 93.68 101.09 95.76 100.71 C 96.14 100.35 96.90 99.63 97.28 99.27 C 98.96 98.88 100.58 98.28 102.04 97.34 C 104.71 97.58 107.65 97.38 109.87 99.17 C 111.33 102.78 107.71 106.49 104.79 108.32 C 105.83 108.14 106.86 107.92 107.87 107.64 C 107.95 111.19 108.55 114.70 108.98 118.22 C 111.27 119.96 113.18 122.29 113.79 125.16 C 113.88 126.57 115.06 127.24 116.15 127.86 C 115.29 123.21 113.48 118.85 110.51 115.15 C 109.14 109.52 111.88 103.93 110.59 98.32 C 108.88 95.65 105.32 95.69 102.58 96.57 C 102.43 94.85 101.86 93.23 100.99 91.75 C 101.82 91.05 102.65 90.34 103.48 89.64 C 104.67 90.07 105.87 90.47 107.08 90.86 C 106.03 89.91 104.95 88.99 103.87 88.07 C 102.87 88.93 101.88 89.80 100.92 90.70 M 62.84 89.12 C 64.73 90.26 67.12 90.99 68.22 93.08 C 69.85 95.46 70.83 98.39 73.23 100.16 C 73.69 100.01 74.62 99.70 75.08 99.54 C 71.27 97.58 70.99 92.81 68.02 90.08 C 66.60 88.77 64.60 89.03 62.84 89.12 M 91.16 94.91 C 89.82 95.41 88.45 96.03 88.44 97.65 C 90.07 97.00 91.56 96.05 93.06 95.16 C 94.30 92.99 95.82 91.01 97.12 88.89 C 93.92 89.37 92.46 92.31 91.16 94.91 M 178.68 105.62 C 178.82 106.12 179.09 107.12 179.23 107.62 C 186.63 116.06 187.26 128.25 185.53 138.84 C 184.84 143.74 182.01 147.84 179.96 152.21 C 183.04 150.82 184.46 147.60 185.51 144.60 C 188.82 134.90 188.72 124.12 185.35 114.46 C 184.02 110.99 182.25 107.26 178.68 105.62 M 102.35 114.18 C 101.20 114.71 100.10 116.37 101.01 117.54 C 102.73 118.34 105.12 113.40 102.35 114.18 M 76.63 134.61 C 79.11 132.70 77.92 126.96 82.13 127.64 C 81.60 127.04 80.54 125.84 80.01 125.23 C 77.56 127.68 76.40 131.18 76.63 134.61 M 114.90 131.02 C 115.79 133.13 116.74 129.47 116.13 128.72 C 114.90 127.14 114.44 130.23 114.90 131.02 M 21.95 137.18 C 25.51 141.53 28.50 146.46 29.33 152.13 C 30.88 161.74 30.40 172.44 24.80 180.76 C 24.28 181.45 24.13 182.23 24.35 183.08 C 27.76 180.84 28.96 176.70 30.08 173.00 C 32.48 163.39 32.26 152.87 28.36 143.67 C 26.93 141.00 25.59 137.13 21.95 137.18 M 76.44 137.31 C 75.06 138.76 77.70 139.96 78.46 138.42 C 79.84 136.93 77.24 135.85 76.44 137.31 Z" />
<path fill="#FFFFFF" opacity="1.00" d=" M 78.40 31.29 C 81.98 28.32 86.85 28.56 91.21 28.57 C 93.27 30.45 95.99 32.19 96.32 35.22 C 97.03 39.44 98.58 43.64 97.86 47.97 C 97.38 51.17 96.91 54.41 95.70 57.44 C 94.74 57.88 93.78 58.33 92.83 58.79 C 90.15 58.03 87.46 57.24 84.91 56.09 C 82.50 55.06 81.55 52.40 80.64 50.15 C 78.99 49.10 77.39 47.99 75.80 46.86 C 76.16 45.20 76.59 43.55 77.04 41.92 C 76.43 42.07 75.20 42.38 74.58 42.54 C 74.18 38.50 74.84 33.80 78.40 31.29 Z" />
<path fill="#FFFFFF" opacity="1.00" d=" M 194.19 123.58 C 198.72 123.39 203.10 122.10 207.53 121.24 C 208.12 122.22 208.70 123.20 209.28 124.20 C 204.41 125.54 199.31 125.86 194.53 127.55 C 194.45 126.56 194.27 124.57 194.19 123.58 Z" />
<path fill="#FFFFFF" opacity="1.00" d=" M 97.01 124.41 C 100.99 126.59 105.41 123.57 109.26 122.43 C 108.50 127.25 102.29 126.64 98.77 128.23 C 98.21 126.94 97.62 125.67 97.01 124.41 Z" />
<path fill="#FFFFFF" opacity="1.00" d=" M 98.71 129.66 C 102.78 129.14 107.79 128.45 109.39 124.01 C 110.04 124.60 111.36 125.79 112.02 126.39 C 112.19 129.15 111.04 131.83 111.38 134.58 C 110.12 136.01 109.43 137.79 108.60 139.47 C 106.87 139.90 105.09 140.00 103.33 140.24 C 101.50 136.83 99.03 133.66 98.71 129.66 M 100.31 134.62 C 102.35 134.74 104.39 134.81 106.44 134.83 C 105.66 135.46 104.09 136.72 103.30 137.35 C 104.86 137.41 106.33 136.86 107.71 136.23 C 107.81 135.37 108.00 133.67 108.09 132.81 C 105.47 133.11 102.29 132.44 100.31 134.62 Z" />
<path fill="#FFFFFF" opacity="1.00" d=" M 172.56 128.21 C 174.13 127.50 175.60 129.24 174.82 130.73 C 167.01 132.80 158.97 133.86 151.10 135.66 C 142.79 137.65 134.36 139.05 126.01 140.85 C 126.21 139.75 126.41 138.66 126.62 137.56 C 141.86 134.13 157.26 131.43 172.56 128.21 Z" />
<path fill="#FFFFFF" opacity="1.00" d=" M 103.11 142.18 C 105.40 141.94 107.65 141.41 109.94 141.20 C 111.86 140.87 111.06 143.40 109.93 143.75 C 108.11 144.52 106.09 144.56 104.20 145.02 C 104.31 145.75 104.39 146.49 104.53 147.22 C 105.99 146.68 107.46 146.20 108.95 145.76 C 110.65 148.15 113.11 150.20 116.21 149.11 C 116.46 150.79 117.31 152.24 118.39 153.54 C 114.29 155.31 111.41 159.11 107.05 160.38 C 103.31 161.88 99.53 159.68 95.79 159.37 C 96.70 154.76 102.56 156.41 104.58 152.85 C 101.30 153.53 97.56 153.80 94.86 155.92 C 94.36 158.15 94.30 160.44 93.93 162.70 C 90.99 164.61 87.58 165.76 84.09 165.99 C 80.44 166.34 77.29 164.19 74.03 162.95 C 74.05 161.11 74.07 159.28 74.06 157.45 C 71.88 157.98 71.61 160.41 70.65 162.07 C 70.02 161.31 69.39 160.56 68.77 159.81 C 69.92 157.74 70.90 155.56 71.37 153.23 C 76.33 152.14 81.39 151.44 86.31 150.13 C 87.60 151.73 89.52 151.43 91.27 151.02 C 95.33 151.76 99.57 151.16 103.11 148.97 C 103.29 146.71 103.25 144.44 103.11 142.18 Z" />
<path fill="#FFFFFF" opacity="1.00" d=" M 51.09 152.30 C 62.33 150.22 73.52 147.82 84.78 145.83 C 84.83 146.56 84.92 148.02 84.96 148.75 C 72.16 150.92 59.55 154.01 46.79 156.37 C 43.84 156.96 40.79 157.30 38.06 158.65 C 38.09 157.32 38.11 155.99 38.10 154.66 C 42.56 154.75 46.75 153.06 51.09 152.30 Z" />
<path fill="#FFFFFF" opacity="1.00" d=" M 101.92 162.66 C 107.61 163.03 112.83 160.02 117.08 156.53 C 117.15 160.97 117.40 165.40 117.59 169.84 C 117.10 169.75 116.12 169.58 115.62 169.49 C 115.09 171.80 114.59 174.24 112.99 176.09 C 109.77 176.88 108.70 172.84 107.27 170.76 C 107.77 173.21 108.22 176.07 110.39 177.65 C 113.88 178.46 115.64 174.65 116.83 172.10 C 118.22 174.40 119.58 177.04 118.56 179.76 C 117.18 183.37 118.00 187.23 117.21 190.92 C 116.75 193.49 117.66 196.02 118.04 198.54 C 119.52 206.08 117.15 213.93 119.90 221.30 C 119.82 221.66 119.67 222.36 119.60 222.72 C 122.58 225.61 125.82 228.28 128.26 231.67 C 130.27 234.53 133.50 236.34 136.92 236.92 C 138.89 236.96 139.90 238.72 141.09 240.01 C 139.06 240.91 137.32 242.55 135.10 242.97 C 132.73 242.90 130.38 242.50 128.01 242.54 C 125.40 241.38 122.87 239.67 119.91 239.75 C 116.27 239.64 112.47 240.67 109.00 239.12 C 108.96 234.38 108.95 229.51 110.83 225.06 C 110.86 220.88 111.12 216.67 110.51 212.51 C 110.03 209.45 107.75 207.06 107.07 204.08 C 106.10 199.01 105.38 193.81 106.30 188.68 C 106.65 189.45 107.37 191.00 107.72 191.77 C 108.09 191.59 108.82 191.22 109.19 191.03 C 109.50 187.36 106.85 184.55 105.90 181.19 C 105.12 178.71 105.61 175.95 104.60 173.54 C 102.68 169.92 100.28 166.58 98.19 163.06 C 97.62 162.51 96.48 161.42 95.91 160.88 C 98.13 160.09 99.78 162.48 101.92 162.66 M 114.45 234.23 C 113.64 231.51 113.08 228.75 113.19 225.90 C 110.96 228.39 111.73 232.42 114.45 234.23 Z" />
<path fill="#FFFFFF" opacity="1.00" d=" M 0.00 162.42 C 6.23 161.48 12.36 160.04 18.56 158.96 C 18.62 159.60 18.72 160.87 18.78 161.50 C 12.67 163.42 6.27 164.24 0.00 165.46 L 0.00 162.42 Z" />
<path fill="#FFFFFF" opacity="1.00" d=" M 73.01 164.69 C 75.67 165.62 78.12 167.08 80.83 167.84 C 84.65 168.37 88.42 167.15 92.13 166.43 C 91.46 170.88 90.92 175.52 88.56 179.46 C 84.87 185.05 83.56 191.74 81.34 197.97 C 79.36 201.72 77.06 205.53 76.82 209.89 C 76.74 212.14 76.07 214.68 77.62 216.61 C 78.67 211.41 78.15 205.74 81.48 201.24 C 81.65 205.14 82.45 209.27 80.98 213.04 C 79.77 216.28 78.12 219.46 78.03 223.00 C 77.62 229.82 77.78 237.27 81.85 243.09 C 83.89 246.08 85.04 249.68 87.64 252.27 C 89.62 254.36 91.39 256.64 92.88 259.11 C 91.54 259.64 90.13 259.90 88.71 260.09 C 87.81 258.94 87.61 256.77 85.91 256.50 C 82.94 256.76 79.98 256.98 77.00 257.08 C 76.63 257.40 75.89 258.06 75.52 258.38 C 78.93 258.69 82.40 259.21 85.75 258.13 C 86.16 258.67 86.97 259.76 87.38 260.30 C 83.40 263.91 76.98 262.57 74.08 258.27 C 73.79 250.62 67.30 243.89 69.70 236.09 C 71.28 226.49 64.74 217.65 66.20 208.06 C 66.99 204.07 68.28 200.17 70.03 196.50 C 71.72 199.14 71.35 203.36 74.47 204.90 C 72.81 199.99 71.88 194.90 70.58 189.90 C 70.87 186.21 71.80 182.62 73.13 179.17 C 75.02 174.51 73.12 169.49 73.01 164.69 M 76.49 179.85 C 76.33 181.66 76.18 183.47 76.14 185.29 C 76.68 184.20 77.18 183.08 77.67 181.97 C 79.41 181.49 81.14 181.01 82.87 180.48 C 83.60 181.49 84.38 182.47 85.20 183.41 C 84.77 181.59 84.16 179.83 83.53 178.08 C 81.32 179.16 78.97 179.87 76.49 179.85 M 77.59 189.24 C 78.27 191.59 81.59 191.79 82.30 189.37 C 80.73 189.28 79.16 189.24 77.59 189.24 M 71.63 242.74 C 74.63 240.89 75.63 237.43 77.11 234.46 C 73.62 235.49 72.71 239.72 71.63 242.74 Z" />
</g>
<g id="#3e403eff">
<path fill="#333333" opacity="1.00" d=" M 75.75 30.78 C 79.07 27.03 84.48 26.95 89.09 27.32 C 92.97 27.32 96.85 30.19 97.46 34.11 C 98.11 38.47 99.95 42.76 99.27 47.23 C 98.62 51.87 98.23 56.74 95.54 60.74 C 89.31 60.65 81.39 59.09 79.54 52.11 C 79.00 51.66 77.92 50.76 77.38 50.31 C 77.52 52.23 77.66 54.16 77.77 56.09 C 76.92 55.79 76.07 55.48 75.23 55.16 C 69.57 57.05 66.23 62.17 61.81 65.81 C 58.11 69.07 58.29 74.52 59.60 78.86 C 61.20 84.05 60.29 90.38 64.32 94.56 C 68.10 97.88 70.43 102.52 74.47 105.58 C 75.77 110.10 76.07 115.15 79.13 118.95 C 83.19 124.39 88.81 129.07 90.12 136.09 C 88.47 139.34 85.67 142.19 85.85 146.11 C 86.85 147.08 87.83 148.07 88.82 149.06 C 93.07 149.27 97.65 149.92 101.35 147.28 C 101.17 144.22 101.50 141.11 100.91 138.09 C 100.09 137.17 98.97 136.62 97.96 135.96 C 97.49 130.06 95.46 124.54 92.95 119.23 C 91.21 113.42 88.50 107.97 85.12 102.95 C 82.82 99.64 79.33 97.47 76.53 94.63 C 78.15 95.04 79.75 95.52 81.35 96.00 C 80.36 92.83 78.78 89.88 76.42 87.51 C 73.34 84.33 72.28 79.95 70.52 76.02 C 71.90 73.56 72.87 70.90 74.27 68.45 C 74.04 71.33 73.26 74.15 73.21 77.05 C 73.81 81.04 76.54 84.26 79.29 87.04 C 79.23 86.42 79.11 85.16 79.06 84.53 C 80.84 85.11 82.65 85.63 84.46 86.15 C 82.77 86.60 81.08 87.01 79.41 87.53 C 81.94 90.27 82.43 94.01 83.20 97.49 C 87.25 100.91 89.58 105.77 91.44 110.63 C 94.23 108.92 97.42 108.38 100.65 108.77 C 101.81 106.27 101.94 103.51 102.04 100.81 C 102.86 102.92 103.50 105.10 103.85 107.35 C 101.70 109.50 99.00 110.89 95.88 110.53 C 94.69 111.13 93.51 111.73 92.32 112.34 C 93.18 116.38 94.74 120.21 96.62 123.89 C 100.01 123.04 103.43 122.31 106.77 121.27 C 108.04 121.62 109.31 121.97 110.59 122.30 C 111.47 123.02 112.36 123.74 113.25 124.46 C 113.33 127.66 113.31 130.88 112.59 134.02 C 113.76 133.34 114.95 132.69 116.16 132.06 C 115.16 134.83 113.00 136.80 110.76 138.55 C 111.71 139.15 112.65 139.76 113.60 140.36 C 113.06 142.19 112.38 143.98 111.49 145.67 C 112.33 146.25 113.17 146.84 114.00 147.44 C 117.30 146.80 120.66 146.57 123.91 145.72 C 124.79 139.64 125.50 133.15 123.98 127.05 C 122.84 121.16 124.10 115.05 122.74 109.20 C 121.29 104.77 119.68 100.39 118.37 95.92 C 118.07 90.90 118.60 85.76 117.24 80.85 C 115.55 75.48 116.99 69.64 115.22 64.29 C 113.62 61.57 111.03 59.65 108.71 57.59 C 108.62 58.18 108.45 59.36 108.36 59.95 C 106.98 59.84 105.60 59.73 104.22 59.62 C 104.50 59.24 105.06 58.47 105.33 58.08 C 103.38 56.82 101.48 55.41 100.12 53.48 C 105.81 56.31 113.01 57.66 116.57 63.45 C 119.63 68.46 117.06 74.60 119.10 79.87 C 120.75 84.88 119.95 90.23 119.61 95.38 C 121.98 98.87 122.81 103.05 124.05 107.02 C 125.74 112.52 124.83 118.31 124.83 123.95 C 125.73 127.80 127.36 131.52 127.18 135.57 C 138.98 133.13 150.80 130.76 162.67 128.65 C 162.98 120.54 164.44 111.55 170.54 105.67 C 175.09 102.55 182.25 101.24 186.54 105.55 C 191.30 109.97 192.84 116.57 194.10 122.68 C 198.99 121.41 203.96 120.44 208.96 119.73 C 209.51 121.58 210.01 123.45 210.48 125.33 C 205.28 126.68 200.00 127.74 194.68 128.49 C 194.54 135.27 193.32 142.17 190.18 148.24 C 188.66 150.88 186.84 153.62 184.08 155.06 C 179.43 156.15 173.68 156.98 170.17 152.89 C 165.98 148.04 162.83 141.38 163.74 134.86 C 165.81 140.95 166.74 148.40 172.58 152.22 C 175.39 154.46 179.21 153.72 182.48 153.25 C 186.68 151.71 189.06 147.46 190.56 143.50 C 194.06 133.34 193.85 121.68 189.13 111.94 C 187.43 108.24 183.95 105.93 180.50 104.04 C 177.10 104.88 173.13 104.80 170.59 107.60 C 165.22 113.18 165.02 121.31 163.23 128.40 C 167.24 127.63 171.26 126.86 175.29 126.13 C 175.77 128.15 177.15 131.39 174.76 132.57 C 158.73 135.86 142.75 139.45 126.64 142.37 C 126.11 144.04 126.54 146.56 124.60 147.40 C 122.22 148.53 119.49 148.35 116.95 148.76 C 118.08 150.08 119.24 151.39 120.41 152.67 C 120.37 153.51 120.32 154.35 120.28 155.19 C 119.69 155.46 118.51 156.00 117.92 156.27 C 118.58 160.50 118.89 164.79 118.81 169.07 C 118.51 172.62 120.86 175.88 120.12 179.43 C 118.74 185.52 118.77 191.91 120.03 198.02 C 121.05 206.37 119.48 215.02 122.21 223.14 C 126.21 225.33 128.57 229.32 131.88 232.29 C 133.96 234.30 136.97 234.39 139.53 235.40 C 140.92 236.49 141.99 237.92 143.18 239.22 C 138.84 246.13 129.10 245.79 122.66 242.24 C 119.67 240.46 116.20 241.55 112.97 241.65 C 110.68 241.82 108.77 240.36 106.84 239.37 C 106.67 234.88 107.19 230.41 108.45 226.09 C 110.35 219.49 109.35 212.19 105.65 206.39 C 102.05 200.84 104.12 194.03 104.83 187.95 C 105.43 185.74 104.03 183.79 103.29 181.82 C 101.77 178.51 102.66 174.55 100.71 171.41 C 99.05 168.64 97.72 165.39 94.86 163.63 C 92.41 166.76 93.47 170.96 92.39 174.56 C 91.84 178.59 88.76 181.51 87.37 185.19 C 85.64 191.01 82.77 196.75 83.50 202.99 C 84.07 208.24 83.45 213.51 81.29 218.35 C 79.31 226.71 78.80 236.49 84.18 243.75 C 86.48 248.67 90.36 252.47 93.65 256.70 C 93.57 258.00 93.61 259.33 93.31 260.62 C 92.42 262.02 90.41 261.80 89.04 262.39 C 83.84 265.78 76.09 264.81 72.21 259.84 C 71.14 257.28 71.16 254.39 69.97 251.86 C 68.98 249.72 68.35 247.42 68.55 245.04 C 68.09 243.46 67.62 241.89 67.15 240.32 C 69.53 232.17 66.98 223.96 64.97 216.07 C 62.92 208.62 66.81 201.53 68.67 194.51 C 69.23 189.61 69.34 184.59 71.06 179.90 C 73.06 174.59 70.93 168.89 72.00 163.44 C 69.35 164.97 67.74 161.86 66.47 160.06 C 67.49 157.82 68.97 155.84 70.22 153.74 C 59.56 155.61 49.01 158.15 38.29 159.67 C 38.29 165.09 37.81 170.63 35.60 175.64 C 33.90 179.60 31.77 183.95 27.66 185.87 C 23.61 186.44 18.85 187.71 15.33 184.85 C 10.07 180.75 7.48 173.76 7.21 167.26 C 7.39 167.27 7.77 167.30 7.96 167.31 C 9.49 171.80 10.22 176.78 13.41 180.51 C 17.88 186.52 28.81 185.83 32.15 178.96 C 37.32 169.67 38.39 158.13 34.95 148.04 C 33.41 142.49 29.79 137.05 24.17 135.10 C 20.48 135.13 16.50 136.04 14.03 139.01 C 8.98 144.52 8.63 152.33 7.10 159.27 C 11.10 158.57 15.08 157.79 19.07 157.00 C 19.59 159.05 20.01 161.12 20.37 163.20 C 13.67 164.98 6.82 166.09 0.00 167.31 L 0.00 165.46 C 6.27 164.24 12.67 163.42 18.78 161.50 C 18.72 160.87 18.62 159.60 18.56 158.96 C 12.36 160.04 6.23 161.48 0.00 162.42 L 0.00 159.99 L 0.01 160.78 C 2.15 160.35 4.29 159.96 6.44 159.62 C 6.66 152.25 7.92 144.43 12.61 138.49 C 16.05 133.84 23.12 132.25 28.25 134.78 C 34.26 138.99 36.54 146.52 38.04 153.35 C 48.77 150.51 59.81 148.97 70.68 146.69 C 71.47 143.20 72.40 139.61 71.78 136.01 C 71.44 133.31 70.30 130.59 70.93 127.85 C 71.98 125.36 73.64 123.17 75.12 120.93 C 75.50 121.90 75.86 122.87 76.21 123.86 C 72.72 123.94 72.11 128.18 72.65 130.88 C 73.84 135.89 74.05 141.12 73.08 146.19 C 76.72 145.52 80.36 144.84 83.97 144.01 C 84.54 141.42 86.47 139.46 87.37 137.03 C 87.08 133.66 85.07 130.76 83.87 127.66 C 80.91 124.64 78.38 121.25 76.04 117.75 C 76.15 118.98 76.37 121.43 76.48 122.66 C 73.98 119.13 75.05 114.58 73.80 110.63 C 69.94 105.90 67.65 100.04 63.36 95.63 C 58.81 91.21 59.80 84.35 56.99 79.06 C 54.90 74.69 56.66 69.82 59.07 66.00 C 61.12 63.09 64.41 61.44 66.85 58.90 C 68.88 56.82 71.25 55.10 73.86 53.82 C 74.37 53.81 75.40 53.79 75.91 53.79 C 76.34 52.63 76.65 51.44 76.85 50.22 C 75.45 48.29 73.89 46.28 73.59 43.83 C 72.75 39.45 72.27 34.20 75.75 30.78 M 78.40 31.29 C 74.84 33.80 74.18 38.50 74.58 42.54 C 75.20 42.38 76.43 42.07 77.04 41.92 C 76.59 43.55 76.16 45.20 75.80 46.86 C 77.39 47.99 78.99 49.10 80.64 50.15 C 81.55 52.40 82.50 55.06 84.91 56.09 C 87.46 57.24 90.15 58.03 92.83 58.79 C 93.78 58.33 94.74 57.88 95.70 57.44 C 96.91 54.41 97.38 51.17 97.86 47.97 C 98.58 43.64 97.03 39.44 96.32 35.22 C 95.99 32.19 93.27 30.45 91.21 28.57 C 86.85 28.56 81.98 28.32 78.40 31.29 M 194.19 123.58 C 194.27 124.57 194.45 126.56 194.53 127.55 C 199.31 125.86 204.41 125.54 209.28 124.20 C 208.70 123.20 208.12 122.22 207.53 121.24 C 203.10 122.10 198.72 123.39 194.19 123.58 M 97.01 124.41 C 97.62 125.67 98.21 126.94 98.77 128.23 C 102.29 126.64 108.50 127.25 109.26 122.43 C 105.41 123.57 100.99 126.59 97.01 124.41 M 98.71 129.66 C 99.03 133.66 101.50 136.83 103.33 140.24 C 105.09 140.00 106.87 139.90 108.60 139.47 C 109.43 137.79 110.12 136.01 111.38 134.58 C 111.04 131.83 112.19 129.15 112.02 126.39 C 111.36 125.79 110.04 124.60 109.39 124.01 C 107.79 128.45 102.78 129.14 98.71 129.66 M 172.56 128.21 C 157.26 131.43 141.86 134.13 126.62 137.56 C 126.41 138.66 126.21 139.75 126.01 140.85 C 134.36 139.05 142.79 137.65 151.10 135.66 C 158.97 133.86 167.01 132.80 174.82 130.73 C 175.60 129.24 174.13 127.50 172.56 128.21 M 103.11 142.18 C 103.25 144.44 103.29 146.71 103.11 148.97 C 99.57 151.16 95.33 151.76 91.27 151.02 C 89.52 151.43 87.60 151.73 86.31 150.13 C 81.39 151.44 76.33 152.14 71.37 153.23 C 70.90 155.56 69.92 157.74 68.77 159.81 C 69.39 160.56 70.02 161.31 70.65 162.07 C 71.61 160.41 71.88 157.98 74.06 157.45 C 74.07 159.28 74.05 161.11 74.03 162.95 C 77.29 164.19 80.44 166.34 84.09 165.99 C 87.58 165.76 90.99 164.61 93.93 162.70 C 94.30 160.44 94.36 158.15 94.86 155.92 C 97.56 153.80 101.30 153.53 104.58 152.85 C 102.56 156.41 96.70 154.76 95.79 159.37 C 99.53 159.68 103.31 161.88 107.05 160.38 C 111.41 159.11 114.29 155.31 118.39 153.54 C 117.31 152.24 116.46 150.79 116.21 149.11 C 113.11 150.20 110.65 148.15 108.95 145.76 C 107.46 146.20 105.99 146.68 104.53 147.22 C 104.39 146.49 104.31 145.75 104.20 145.02 C 106.09 144.56 108.11 144.52 109.93 143.75 C 111.06 143.40 111.86 140.87 109.94 141.20 C 107.65 141.41 105.40 141.94 103.11 142.18 M 51.09 152.30 C 46.75 153.06 42.56 154.75 38.10 154.66 C 38.11 155.99 38.09 157.32 38.06 158.65 C 40.79 157.30 43.84 156.96 46.79 156.37 C 59.55 154.01 72.16 150.92 84.96 148.75 C 84.92 148.02 84.83 146.56 84.78 145.83 C 73.52 147.82 62.33 150.22 51.09 152.30 M 101.92 162.66 C 99.78 162.48 98.13 160.09 95.91 160.88 C 96.48 161.42 97.62 162.51 98.19 163.06 C 100.28 166.58 102.68 169.92 104.60 173.54 C 105.61 175.95 105.12 178.71 105.90 181.19 C 106.85 184.55 109.50 187.36 109.19 191.03 C 108.82 191.22 108.09 191.59 107.72 191.77 C 107.37 191.00 106.65 189.45 106.30 188.68 C 105.38 193.81 106.10 199.01 107.07 204.08 C 107.75 207.06 110.03 209.45 110.51 212.51 C 111.12 216.67 110.86 220.88 110.83 225.06 C 108.95 229.51 108.96 234.38 109.00 239.12 C 112.47 240.67 116.27 239.64 119.91 239.75 C 122.87 239.67 125.40 241.38 128.01 242.54 C 130.38 242.50 132.73 242.90 135.10 242.97 C 137.32 242.55 139.06 240.91 141.09 240.01 C 139.90 238.72 138.89 236.96 136.92 236.92 C 133.50 236.34 130.27 234.53 128.26 231.67 C 125.82 228.28 122.58 225.61 119.60 222.72 C 119.67 222.36 119.82 221.66 119.90 221.30 C 117.15 213.93 119.52 206.08 118.04 198.54 C 117.66 196.02 116.75 193.49 117.21 190.92 C 118.00 187.23 117.18 183.37 118.56 179.76 C 119.58 177.04 118.22 174.40 116.83 172.10 C 115.64 174.65 113.88 178.46 110.39 177.65 C 108.22 176.07 107.77 173.21 107.27 170.76 C 108.70 172.84 109.77 176.88 112.99 176.09 C 114.59 174.24 115.09 171.80 115.62 169.49 C 116.12 169.58 117.10 169.75 117.59 169.84 C 117.40 165.40 117.15 160.97 117.08 156.53 C 112.83 160.02 107.61 163.03 101.92 162.66 M 73.01 164.69 C 73.12 169.49 75.02 174.51 73.13 179.17 C 71.80 182.62 70.87 186.21 70.58 189.90 C 71.88 194.90 72.81 199.99 74.47 204.90 C 71.35 203.36 71.72 199.14 70.03 196.50 C 68.28 200.17 66.99 204.07 66.20 208.06 C 64.74 217.65 71.28 226.49 69.70 236.09 C 67.30 243.89 73.79 250.62 74.08 258.27 C 76.98 262.57 83.40 263.91 87.38 260.30 C 86.97 259.76 86.16 258.67 85.75 258.13 C 82.40 259.21 78.93 258.69 75.52 258.38 C 75.89 258.06 76.63 257.40 77.00 257.08 C 79.98 256.98 82.94 256.76 85.91 256.50 C 87.61 256.77 87.81 258.94 88.71 260.09 C 90.13 259.90 91.54 259.64 92.88 259.11 C 91.39 256.64 89.62 254.36 87.64 252.27 C 85.04 249.68 83.89 246.08 81.85 243.09 C 77.78 237.27 77.62 229.82 78.03 223.00 C 78.12 219.46 79.77 216.28 80.98 213.04 C 82.45 209.27 81.65 205.14 81.48 201.24 C 78.15 205.74 78.67 211.41 77.62 216.61 C 76.07 214.68 76.74 212.14 76.82 209.89 C 77.06 205.53 79.36 201.72 81.34 197.97 C 83.56 191.74 84.87 185.05 88.56 179.46 C 90.92 175.52 91.46 170.88 92.13 166.43 C 88.42 167.15 84.65 168.37 80.83 167.84 C 78.12 167.08 75.67 165.62 73.01 164.69 Z" />
<path fill="#333333" opacity="1.00" d=" M 67.29 63.20 C 69.68 61.38 72.63 61.44 75.27 62.69 C 74.46 63.49 74.15 65.10 73.02 65.43 C 71.47 63.84 69.55 62.98 67.29 63.20 Z" />
<path fill="#333333" opacity="1.00" d=" M 81.21 60.37 C 83.31 61.68 84.88 64.03 83.69 66.54 C 87.35 66.61 90.86 67.69 94.39 68.56 C 91.01 70.84 87.53 67.84 83.94 68.13 C 82.76 68.12 81.58 68.19 80.41 68.26 C 80.07 68.02 79.38 67.52 79.04 67.28 C 80.06 67.15 82.11 66.90 83.13 66.77 C 82.50 64.63 81.80 62.52 81.21 60.37 Z" />
<path fill="#333333" opacity="1.00" d=" M 105.77 63.54 C 111.47 67.06 112.92 75.15 109.78 80.87 C 109.30 80.69 108.34 80.32 107.86 80.14 C 108.87 77.90 109.70 75.52 109.35 73.02 C 109.55 69.44 106.97 66.71 105.77 63.54 Z" />
<path fill="#333333" opacity="1.00" d=" M 94.35 74.78 C 97.19 77.08 99.14 81.66 96.91 84.97 C 96.03 88.03 92.64 88.47 90.04 89.22 C 90.32 88.77 90.87 87.88 91.15 87.43 C 92.47 86.92 93.79 86.41 95.04 85.76 C 95.29 84.52 94.35 83.50 94.20 82.32 C 94.64 82.65 95.53 83.32 95.97 83.66 C 96.18 80.58 94.88 77.75 94.35 74.78 Z" />
<path fill="#333333" opacity="1.00" d=" M 98.20 85.34 C 98.35 84.94 98.67 84.12 98.83 83.71 C 101.45 85.47 104.43 85.45 107.25 84.15 C 108.52 84.88 110.79 84.93 110.75 86.90 C 111.18 90.56 113.15 94.39 111.54 98.02 C 110.58 93.76 109.50 89.51 109.06 85.16 C 105.49 86.39 101.57 87.84 98.20 85.34 Z" />
<path fill="#333333" opacity="1.00" d=" M 100.92 90.70 C 101.88 89.80 102.87 88.93 103.87 88.07 C 104.95 88.99 106.03 89.91 107.08 90.86 C 105.87 90.47 104.67 90.07 103.48 89.64 C 102.65 90.34 101.82 91.05 100.99 91.75 C 101.86 93.23 102.43 94.85 102.58 96.57 C 105.32 95.69 108.88 95.65 110.59 98.32 C 111.88 103.93 109.14 109.52 110.51 115.15 C 113.48 118.85 115.29 123.21 116.15 127.86 C 115.06 127.24 113.88 126.57 113.79 125.16 C 113.18 122.29 111.27 119.96 108.98 118.22 C 108.55 114.70 107.95 111.19 107.87 107.64 C 106.86 107.92 105.83 108.14 104.79 108.32 C 107.71 106.49 111.33 102.78 109.87 99.17 C 107.65 97.38 104.71 97.58 102.04 97.34 C 100.58 98.28 98.96 98.88 97.28 99.27 C 96.90 99.63 96.14 100.35 95.76 100.71 C 93.68 101.09 92.14 102.46 90.86 104.06 C 89.82 103.36 88.79 102.65 87.76 101.95 C 90.08 102.80 91.60 101.43 92.84 99.74 C 93.76 99.46 94.68 99.17 95.61 98.89 C 95.94 98.40 96.62 97.42 96.96 96.92 C 97.84 96.95 99.60 97.01 100.48 97.04 C 101.60 94.78 101.06 92.14 98.87 90.78 C 99.38 90.76 100.41 90.72 100.92 90.70 Z" />
<path fill="#333333" opacity="1.00" d=" M 62.84 89.12 C 64.60 89.03 66.60 88.77 68.02 90.08 C 70.99 92.81 71.27 97.58 75.08 99.54 C 74.62 99.70 73.69 100.01 73.23 100.16 C 70.83 98.39 69.85 95.46 68.22 93.08 C 67.12 90.99 64.73 90.26 62.84 89.12 Z" />
<path fill="#333333" opacity="1.00" d=" M 91.16 94.91 C 92.46 92.31 93.92 89.37 97.12 88.89 C 95.82 91.01 94.30 92.99 93.06 95.16 C 91.56 96.05 90.07 97.00 88.44 97.65 C 88.45 96.03 89.82 95.41 91.16 94.91 Z" />
<path fill="#333333" opacity="1.00" d=" M 178.68 105.62 C 182.25 107.26 184.02 110.99 185.35 114.46 C 188.72 124.12 188.82 134.90 185.51 144.60 C 184.46 147.60 183.04 150.82 179.96 152.21 C 182.01 147.84 184.84 143.74 185.53 138.84 C 187.26 128.25 186.63 116.06 179.23 107.62 C 179.09 107.12 178.82 106.12 178.68 105.62 Z" />
<path fill="#333333" opacity="1.00" d=" M 102.35 114.18 C 105.12 113.40 102.73 118.34 101.01 117.54 C 100.10 116.37 101.20 114.71 102.35 114.18 Z" />
<path fill="#333333" opacity="1.00" d=" M 76.63 134.61 C 76.40 131.18 77.56 127.68 80.01 125.23 C 80.54 125.84 81.60 127.04 82.13 127.64 C 77.92 126.96 79.11 132.70 76.63 134.61 Z" />
<path fill="#333333" opacity="1.00" d=" M 114.90 131.02 C 114.44 130.23 114.90 127.14 116.13 128.72 C 116.74 129.47 115.79 133.13 114.90 131.02 Z" />
<path fill="#333333" opacity="1.00" d=" M 100.31 134.62 C 102.29 132.44 105.47 133.11 108.09 132.81 C 108.00 133.67 107.81 135.37 107.71 136.23 C 106.33 136.86 104.86 137.41 103.30 137.35 C 104.09 136.72 105.66 135.46 106.44 134.83 C 104.39 134.81 102.35 134.74 100.31 134.62 Z" />
<path fill="#333333" opacity="1.00" d=" M 21.95 137.18 C 25.59 137.13 26.93 141.00 28.36 143.67 C 32.26 152.87 32.48 163.39 30.08 173.00 C 28.96 176.70 27.76 180.84 24.35 183.08 C 24.13 182.23 24.28 181.45 24.80 180.76 C 30.40 172.44 30.88 161.74 29.33 152.13 C 28.50 146.46 25.51 141.53 21.95 137.18 Z" />
<path fill="#333333" opacity="1.00" d=" M 76.44 137.31 C 77.24 135.85 79.84 136.93 78.46 138.42 C 77.70 139.96 75.06 138.76 76.44 137.31 Z" />
<path fill="#333333" opacity="1.00" d=" M 76.49 179.85 C 78.97 179.87 81.32 179.16 83.53 178.08 C 84.16 179.83 84.77 181.59 85.20 183.41 C 84.38 182.47 83.60 181.49 82.87 180.48 C 81.14 181.01 79.41 181.49 77.67 181.97 C 77.18 183.08 76.68 184.20 76.14 185.29 C 76.18 183.47 76.33 181.66 76.49 179.85 Z" />
<path fill="#333333" opacity="1.00" d=" M 77.59 189.24 C 79.16 189.24 80.73 189.28 82.30 189.37 C 81.59 191.79 78.27 191.59 77.59 189.24 Z" />
<path fill="#333333" opacity="1.00" d=" M 114.45 234.23 C 111.73 232.42 110.96 228.39 113.19 225.90 C 113.08 228.75 113.64 231.51 114.45 234.23 Z" />
<path fill="#333333" opacity="1.00" d=" M 71.63 242.74 C 72.71 239.72 73.62 235.49 77.11 234.46 C 75.63 237.43 74.63 240.89 71.63 242.74 Z" />
</g>
</svg>
