<?xml version="1.0" encoding="UTF-8" ?>
<!DOCTYPE svg PUBLIC "-//W3C//DTD SVG 1.1//EN" "http://www.w3.org/Graphics/SVG/1.1/DTD/svg11.dtd">
<svg width="207pt" height="325pt" viewBox="0 0 207 325" version="1.1" xmlns="http://www.w3.org/2000/svg">
<g id="#ffffffff">
<path fill="#FFFFFF" opacity="1.00" d=" M 0.00 0.00 L 207.00 0.00 L 207.00 212.75 C 204.03 213.57 200.99 214.11 198.00 214.84 C 196.78 208.51 195.19 201.54 190.07 197.15 C 186.09 193.65 180.16 194.55 175.78 196.70 C 168.35 202.22 166.81 212.28 166.41 220.94 C 160.02 222.23 153.69 223.98 147.21 224.77 C 146.98 224.33 146.54 223.45 146.31 223.01 C 146.11 217.67 144.65 212.32 145.84 207.01 C 146.02 201.35 145.23 195.71 144.78 190.09 C 145.49 184.71 143.37 179.41 144.42 174.07 C 145.16 169.05 145.16 163.29 141.79 159.17 C 139.10 157.21 136.03 155.64 134.52 152.48 C 137.59 147.16 136.88 140.83 136.17 135.01 C 135.78 131.37 133.96 128.07 131.11 125.79 C 126.63 125.94 121.77 126.18 118.08 129.06 C 115.21 131.89 114.60 136.46 115.97 140.17 C 117.02 143.07 118.02 146.48 116.36 149.36 C 112.61 151.10 108.49 152.26 105.50 155.29 C 102.53 158.30 97.67 158.74 95.40 162.52 C 93.67 164.81 93.23 167.96 90.90 169.80 C 86.55 173.49 84.20 178.89 82.31 184.14 C 80.96 188.42 76.50 190.62 74.85 194.74 C 72.61 198.81 73.20 203.59 73.31 208.03 C 73.39 211.65 75.46 214.87 78.11 217.21 C 79.44 222.99 76.81 228.48 75.41 233.97 C 73.70 235.56 72.81 237.68 72.48 239.97 C 67.53 240.88 62.65 242.20 57.65 242.82 C 55.80 239.44 55.98 235.23 54.14 231.76 C 52.25 227.09 48.62 222.32 43.19 221.95 C 39.28 222.42 34.67 222.78 32.18 226.30 C 27.43 232.62 25.84 240.71 25.34 248.45 C 20.65 249.42 15.72 249.60 11.24 251.40 C 11.81 252.23 12.37 253.07 12.95 253.91 L 13.68 251.69 C 13.81 252.83 13.95 253.97 14.08 255.12 C 13.28 254.48 11.70 253.19 10.90 252.55 C 11.20 253.65 11.78 255.85 12.08 256.95 L 13.00 257.38 C 17.02 256.18 21.21 255.84 25.23 254.67 C 27.12 258.51 27.15 263.03 29.17 266.86 C 31.01 270.91 34.20 275.33 39.04 275.64 C 42.96 275.34 47.73 275.87 50.36 272.28 C 56.70 264.66 57.73 254.09 57.11 244.54 C 63.06 244.42 68.87 242.06 74.73 242.15 C 74.76 242.60 74.82 243.49 74.84 243.93 C 69.42 246.05 63.27 246.15 57.92 248.01 C 58.12 248.30 58.52 248.89 58.71 249.19 C 62.70 248.73 66.59 247.61 70.58 247.14 C 72.28 248.50 73.92 251.05 76.42 250.11 C 79.87 249.25 83.70 250.38 86.93 248.70 C 89.02 247.83 88.79 245.27 89.39 243.46 C 92.61 242.81 95.81 242.10 99.00 241.34 C 98.90 246.48 99.32 251.74 97.77 256.72 C 96.66 260.20 97.01 263.90 97.65 267.43 C 97.01 270.84 95.71 275.43 99.07 277.84 C 102.76 281.41 108.27 281.17 113.03 281.31 C 115.31 281.53 117.16 280.02 119.00 278.93 C 118.39 272.34 113.09 267.89 110.62 262.07 C 109.76 256.76 108.53 250.62 111.91 245.91 C 113.40 243.53 114.53 240.95 115.34 238.27 C 117.55 237.77 119.78 237.37 122.01 237.01 C 120.97 241.84 120.31 246.84 118.40 251.43 C 116.50 255.14 112.45 259.03 114.32 263.51 C 115.46 266.65 119.10 267.01 121.93 267.47 C 125.32 267.55 126.78 271.41 129.96 272.05 C 133.89 273.15 138.81 274.32 141.96 270.88 C 144.01 269.71 143.31 267.38 142.37 265.72 C 141.23 263.05 137.50 262.91 136.57 260.07 C 135.07 256.96 132.77 254.23 131.64 250.97 C 131.68 245.73 134.49 241.06 136.50 236.37 C 139.78 235.27 143.16 234.54 146.58 234.03 C 146.87 233.41 147.46 232.16 147.75 231.54 C 153.94 230.00 160.36 229.40 166.43 227.40 C 167.88 233.90 169.22 241.02 174.38 245.74 C 177.85 249.48 183.46 248.30 187.89 247.63 C 194.11 244.30 196.18 236.76 197.66 230.37 C 197.03 230.43 196.41 230.46 195.80 230.55 C 194.87 237.23 191.39 246.46 183.24 246.24 C 190.26 240.37 191.70 230.67 191.95 222.05 C 191.73 214.23 190.36 205.90 185.31 199.63 C 184.57 198.48 183.12 198.47 181.95 198.15 C 185.39 202.60 188.59 207.46 189.54 213.11 C 190.79 220.47 190.72 228.23 188.43 235.38 C 187.16 239.41 184.11 242.51 182.59 246.41 C 176.44 247.07 172.43 241.70 170.38 236.66 C 169.31 233.87 168.74 230.92 167.61 228.15 C 167.76 227.86 168.05 227.28 168.20 226.99 C 171.91 226.56 175.55 225.72 179.22 224.99 C 180.27 222.81 179.86 220.56 178.90 218.44 C 174.86 219.18 170.82 219.93 166.80 220.75 C 168.89 213.75 168.84 205.66 174.15 200.03 C 176.45 196.76 180.69 196.90 184.19 196.07 C 187.06 197.62 190.19 199.12 191.97 202.01 C 195.95 208.53 197.22 216.42 196.83 223.97 C 196.65 226.10 196.90 228.27 197.88 230.20 C 198.15 226.98 198.27 223.76 198.21 220.53 C 201.19 220.48 204.11 219.92 206.99 219.20 L 207.00 220.05 L 207.00 325.00 L 0.00 325.00 L 0.00 0.00 Z" />
<path fill="#FFFFFF" opacity="1.00" d=" M 119.46 129.51 C 122.28 127.56 125.89 127.56 129.17 127.22 C 130.65 128.27 132.73 129.06 133.09 131.08 C 134.28 135.29 134.23 139.72 134.58 144.05 C 134.92 146.91 133.29 149.48 132.70 152.20 C 129.54 152.72 125.78 151.84 123.91 149.05 C 123.14 147.88 122.11 146.95 120.69 146.66 C 120.93 152.12 126.55 154.55 131.36 154.20 C 130.73 156.84 129.80 159.56 130.49 162.29 C 131.49 159.38 132.11 156.36 132.85 153.38 C 134.56 156.25 137.02 158.46 139.98 160.00 C 141.96 162.95 143.60 166.34 143.58 169.97 C 143.74 173.73 141.51 177.41 142.85 181.14 C 144.40 185.07 142.03 189.12 143.05 193.09 C 144.05 198.30 143.20 203.79 145.04 208.86 C 141.38 205.73 138.42 201.73 134.39 199.10 C 135.55 197.25 135.93 195.07 135.85 192.92 C 136.06 190.03 133.79 187.79 133.39 185.03 C 133.78 183.16 135.65 182.26 136.79 180.89 C 140.14 176.69 142.70 169.81 138.34 165.47 C 138.24 167.03 138.25 168.58 138.39 170.14 C 139.03 173.76 137.06 177.25 135.32 180.30 C 133.05 182.20 130.03 184.09 126.98 183.82 C 126.75 183.39 126.28 182.52 126.05 182.09 C 123.33 183.29 121.04 185.57 117.86 185.53 C 114.88 186.28 112.44 184.15 109.91 182.98 C 111.13 188.02 117.16 187.46 121.14 186.91 C 123.07 186.76 124.27 184.24 126.14 184.63 C 126.51 184.92 127.25 185.51 127.62 185.80 C 126.56 187.64 125.09 189.23 123.44 190.55 C 118.67 192.09 113.57 192.36 108.71 193.35 C 109.95 193.99 111.17 194.70 112.40 195.36 L 113.06 194.08 C 114.10 195.80 111.08 198.08 109.37 195.02 L 111.57 197.33 C 111.03 197.08 109.95 196.59 109.41 196.34 C 108.01 199.07 104.30 197.91 101.91 199.00 C 106.48 194.05 106.28 187.04 109.35 181.38 C 111.41 178.99 113.98 177.08 116.03 174.65 C 115.94 174.34 115.76 173.72 115.66 173.41 C 113.21 175.71 110.35 177.54 108.01 179.95 C 104.15 185.76 104.29 193.41 99.60 198.78 C 99.41 198.03 99.04 196.53 98.86 195.77 C 96.02 198.51 97.07 202.60 96.08 206.04 C 94.85 210.07 94.71 214.55 92.07 218.02 C 88.36 222.86 87.33 228.96 85.18 234.52 C 86.80 235.64 88.29 236.91 89.76 238.22 C 87.81 240.62 87.48 243.95 85.63 246.34 C 82.33 247.02 78.96 247.38 75.72 248.37 C 75.07 248.08 73.76 247.52 73.11 247.23 C 73.10 246.93 73.08 246.32 73.07 246.01 C 73.93 246.06 75.65 246.15 76.51 246.19 C 76.41 244.66 76.35 243.14 76.29 241.61 C 75.95 241.25 75.28 240.51 74.95 240.15 C 74.51 237.81 75.32 235.92 77.39 234.77 C 77.82 230.72 79.84 227.05 80.12 222.96 C 81.08 218.06 79.84 212.76 82.33 208.21 C 84.66 203.58 84.20 197.76 87.96 193.86 C 89.96 191.68 89.98 188.50 89.59 185.75 C 90.88 185.29 91.80 184.41 92.35 183.11 C 93.48 184.38 94.80 185.45 96.26 186.32 C 94.85 190.81 93.83 197.13 88.26 198.06 C 85.34 200.82 84.66 205.39 86.41 208.97 C 88.72 206.30 86.65 202.06 89.25 199.31 C 94.33 197.30 97.83 192.12 97.30 186.59 C 97.82 185.91 98.34 185.23 98.87 184.55 C 98.43 184.44 97.56 184.20 97.12 184.08 C 93.00 183.89 97.63 177.29 93.05 177.78 C 92.27 180.42 91.15 182.94 89.90 185.38 C 87.80 181.44 91.27 177.39 93.15 174.05 C 96.26 169.71 95.70 162.79 101.21 160.35 C 106.58 158.82 109.34 153.15 114.98 152.00 C 114.54 152.81 113.65 154.44 113.20 155.25 C 114.96 154.14 116.60 152.87 118.27 151.64 C 117.30 153.87 116.19 156.03 114.95 158.12 C 115.15 159.81 115.35 161.50 115.60 163.19 C 117.93 160.53 116.01 156.47 118.60 153.84 C 120.38 158.06 122.08 162.34 123.91 166.55 L 125.12 167.18 C 125.25 161.46 121.95 156.38 120.03 151.13 C 118.25 147.62 119.44 143.52 117.95 139.92 C 116.51 136.55 116.73 132.17 119.46 129.51 M 103.66 159.82 C 104.25 162.91 107.26 164.68 108.98 167.16 C 111.09 166.99 113.48 166.32 114.49 164.25 C 113.02 164.56 111.56 164.92 110.06 165.08 C 107.95 163.30 106.25 160.97 103.66 159.82 M 132.69 165.68 C 130.23 166.82 128.33 168.79 127.49 171.40 C 130.01 170.76 131.01 167.96 133.44 167.13 C 135.67 166.24 137.29 164.42 137.92 162.11 C 135.57 162.09 134.66 164.80 132.69 165.68 M 115.28 165.35 C 115.59 166.05 115.96 166.72 116.38 167.37 C 119.16 168.69 121.90 170.17 124.93 170.87 C 124.94 170.43 124.96 169.55 124.98 169.11 C 121.79 167.75 118.59 166.37 115.28 165.35 M 99.81 172.37 C 100.43 176.32 101.08 180.26 101.23 184.27 C 103.57 180.66 103.01 175.26 99.81 172.37 Z" />
<path fill="#FFFFFF" opacity="1.00" d=" M 83.12 187.02 C 85.50 181.38 87.22 175.05 92.04 170.92 C 90.55 173.98 88.83 176.94 87.66 180.14 C 85.73 184.19 89.15 188.91 86.48 192.84 C 84.87 191.24 83.58 189.26 83.12 187.02 Z" />
<path fill="#FFFFFF" opacity="1.00" d=" M 127.98 185.17 C 129.22 185.01 130.46 184.84 131.71 184.69 C 133.26 189.01 133.72 193.58 132.75 198.09 C 129.44 198.66 127.27 195.24 124.02 195.63 C 120.96 195.94 117.73 196.30 115.06 194.39 C 118.69 193.51 122.96 193.69 125.81 190.87 C 127.53 189.51 128.35 187.34 127.98 185.17 Z" />
<path fill="#FFFFFF" opacity="1.00" d=" M 77.35 193.30 C 78.89 191.89 80.44 190.48 82.01 189.10 C 82.90 190.87 84.00 192.56 85.82 193.49 C 80.96 199.89 80.89 208.29 78.03 215.56 C 73.52 208.91 75.17 200.48 77.35 193.30 Z" />
<path fill="#FFFFFF" opacity="1.00" d=" M 108.23 199.64 C 110.66 198.97 113.19 198.21 115.05 196.42 C 118.06 198.41 121.55 198.54 124.87 197.28 C 121.29 199.69 116.43 202.65 116.64 207.54 C 119.61 206.49 120.01 203.00 122.33 201.24 C 126.23 197.22 133.36 199.40 136.37 203.50 C 138.21 206.66 142.20 207.71 143.82 211.03 C 145.19 215.35 140.60 218.02 140.12 221.97 C 139.93 225.97 136.71 228.76 135.60 232.45 C 134.27 236.36 132.51 240.10 130.90 243.89 C 129.72 246.31 130.39 249.17 129.18 251.56 C 131.19 254.98 133.23 258.39 135.21 261.83 C 136.20 263.57 138.36 263.96 139.80 265.22 C 140.45 266.39 140.92 267.64 141.44 268.88 C 140.25 269.82 139.32 271.37 137.74 271.64 C 135.48 271.54 133.31 270.83 131.12 270.36 C 128.06 270.06 127.30 265.87 124.12 265.85 C 121.34 265.30 117.13 266.26 116.28 262.63 C 115.87 259.96 117.67 257.07 119.69 255.34 C 119.94 258.23 120.45 262.51 124.37 262.28 C 123.92 261.13 123.19 260.21 122.17 259.53 C 122.10 256.69 120.93 254.09 120.04 251.45 C 121.44 246.27 123.34 241.22 124.22 235.92 C 121.13 229.32 127.40 223.95 130.28 218.63 C 130.97 218.73 132.34 218.94 133.02 219.04 C 130.41 215.24 125.12 214.48 120.93 215.57 C 121.12 212.14 119.06 209.46 115.95 208.27 C 116.76 209.98 117.83 211.55 118.98 213.05 C 118.78 216.35 118.78 219.73 117.93 222.94 C 116.58 226.19 115.07 229.37 114.25 232.81 C 114.90 233.43 115.55 234.04 116.22 234.64 L 116.31 233.33 C 118.00 233.07 119.70 232.80 121.39 232.57 C 121.51 233.10 121.74 234.17 121.85 234.71 C 119.86 235.39 117.81 235.85 115.72 236.10 L 115.73 234.25 C 115.20 234.48 114.15 234.94 113.62 235.17 C 113.82 241.76 108.21 246.49 107.88 252.91 C 108.09 256.01 108.41 259.11 108.83 262.19 C 109.89 265.23 111.94 267.82 113.48 270.63 C 115.11 273.08 118.66 275.73 116.80 279.01 C 113.44 280.40 109.64 279.62 106.11 279.48 C 103.29 279.64 101.29 277.38 99.18 275.88 C 97.71 271.89 99.09 267.75 100.48 263.96 C 95.79 262.50 99.25 257.50 100.36 254.62 C 101.06 248.82 100.91 242.95 100.88 237.12 C 101.08 231.06 105.77 226.55 107.38 220.91 C 102.70 219.60 97.69 223.36 93.32 220.63 C 94.19 217.47 96.17 214.55 97.07 211.31 C 97.60 211.10 98.66 210.68 99.19 210.47 C 102.72 211.80 106.30 213.08 110.01 213.86 C 111.43 213.59 112.13 212.21 113.00 211.21 C 111.79 211.57 110.65 212.10 109.54 212.69 C 106.49 210.53 102.69 210.15 99.13 209.45 C 101.12 206.49 104.73 205.88 107.84 204.74 C 109.60 205.11 111.37 205.45 113.14 205.80 C 113.48 207.06 113.91 208.31 114.55 209.46 C 114.67 208.05 114.78 206.64 114.86 205.23 C 109.76 201.49 102.78 202.52 98.05 206.35 C 98.34 204.62 98.59 202.90 98.71 201.16 C 101.60 199.46 105.09 200.41 108.23 199.64 M 128.81 205.26 C 129.13 207.59 129.40 210.25 131.15 212.03 C 133.79 214.25 137.80 214.43 140.75 212.72 C 141.98 211.98 142.56 209.63 141.05 208.89 C 138.86 210.15 136.71 212.17 133.99 211.88 C 131.74 210.15 131.16 206.98 128.81 205.26 M 122.11 206.85 C 123.39 209.13 125.03 211.23 127.03 212.94 C 126.10 210.47 124.51 208.07 122.11 206.85 M 111.51 214.97 C 111.68 216.86 110.84 220.46 113.55 220.78 C 113.25 218.74 113.10 216.47 111.51 214.97 M 136.66 220.21 C 137.18 220.34 138.21 220.61 138.73 220.74 C 139.46 218.86 139.95 216.48 137.74 215.31 C 137.32 216.93 136.97 218.56 136.66 220.21 M 113.41 227.68 C 108.92 235.60 105.69 244.64 105.99 253.83 C 106.31 253.37 106.95 252.43 107.27 251.97 C 107.89 246.77 109.11 241.67 110.69 236.68 C 112.19 233.46 113.84 230.30 115.19 227.01 L 113.41 227.68 M 128.73 237.75 C 127.70 239.64 126.71 241.57 126.01 243.62 C 128.58 241.84 129.79 238.86 131.14 236.16 C 132.31 233.65 133.55 230.87 132.75 228.05 C 131.05 231.13 130.46 234.68 128.73 237.75 M 126.14 253.79 C 126.90 257.34 127.92 261.15 130.33 263.95 C 130.30 260.15 128.60 256.60 126.14 253.79 M 100.97 262.10 C 103.61 261.41 105.10 259.07 106.29 256.81 C 103.70 256.75 99.75 259.06 100.97 262.10 M 102.15 274.41 C 104.46 277.61 109.33 275.14 112.49 277.17 C 112.09 276.03 111.51 274.60 110.08 274.62 C 107.43 274.88 104.77 274.97 102.15 274.41 Z" />
<path fill="#FFFFFF" opacity="1.00" d=" M 198.01 215.71 C 201.04 215.65 204.02 215.07 207.00 214.56 L 207.00 217.81 C 204.02 218.28 201.06 218.87 198.16 219.72 C 198.12 218.38 198.06 217.05 198.01 215.71 Z" />
<path fill="#FFFFFF" opacity="1.00" d=" M 120.54 217.06 C 123.60 216.65 126.70 216.77 129.64 217.78 C 125.34 220.89 123.82 226.14 120.90 230.32 C 119.50 230.58 118.10 230.78 116.68 230.90 C 117.71 226.16 121.47 222.22 120.54 217.06 Z" />
<path fill="#FFFFFF" opacity="1.00" d=" M 141.65 222.96 C 142.03 220.61 143.47 218.69 144.73 216.74 C 144.87 220.74 144.33 224.92 145.47 228.80 C 145.29 229.64 144.94 231.31 144.76 232.15 C 142.25 232.93 139.69 233.55 137.11 234.04 C 137.76 229.95 141.02 227.02 141.65 222.96 Z" />
<path fill="#FFFFFF" opacity="1.00" d=" M 176.38 220.46 C 178.29 219.56 180.03 222.60 177.83 223.54 C 170.66 225.53 163.24 226.34 156.02 228.09 C 153.40 228.10 149.06 230.95 147.54 228.03 C 147.77 227.66 148.24 226.93 148.47 226.56 C 153.59 224.87 159.13 224.89 164.27 223.23 C 168.16 221.73 172.36 221.44 176.38 220.46 Z" />
<path fill="#FFFFFF" opacity="1.00" d=" M 92.29 221.94 C 96.24 224.26 100.97 222.75 105.17 221.98 C 103.96 226.39 100.43 229.77 99.69 234.35 C 96.64 235.23 93.52 235.82 90.35 235.97 C 89.28 235.00 88.20 234.05 87.11 233.11 C 89.44 229.69 90.63 225.70 92.29 221.94 Z" />
<path fill="#FFFFFF" opacity="1.00" d=" M 34.17 226.24 C 36.55 223.59 40.38 224.35 43.47 223.33 C 52.70 227.05 55.36 237.87 55.91 246.84 C 56.06 255.06 54.86 264.04 49.46 270.57 C 46.74 274.04 41.92 273.29 38.04 273.36 C 33.41 272.19 30.96 267.56 29.42 263.43 C 28.16 260.53 27.71 257.40 27.64 254.26 C 31.51 253.92 35.31 253.08 39.05 252.04 C 39.23 249.80 38.84 247.61 37.85 245.60 C 33.70 246.10 29.76 247.71 25.57 247.99 C 25.91 247.46 26.60 246.39 26.94 245.85 C 27.71 238.91 29.17 231.46 34.17 226.24 M 41.10 225.38 C 43.41 228.77 46.22 231.92 47.35 235.96 C 51.03 247.87 49.85 261.45 42.98 272.00 C 45.68 271.18 46.97 268.48 47.90 266.05 C 51.97 255.28 52.01 242.92 47.63 232.24 C 46.13 229.48 44.92 225.29 41.10 225.38 Z" />
<path fill="#FFFFFF" opacity="1.00" d=" M 88.80 240.68 C 90.74 237.27 95.51 237.43 98.98 237.06 L 100.23 237.77 C 97.23 240.63 92.75 241.10 88.80 240.68 Z" />
<path fill="#FFFFFF" opacity="1.00" d=" M 15.54 251.59 C 22.48 250.90 29.24 249.14 36.11 248.04 C 37.87 247.22 37.62 249.61 38.02 250.53 C 30.65 252.11 23.21 253.41 15.85 255.05 C 15.78 254.19 15.62 252.45 15.54 251.59 Z" />
</g>
<g id="#3b3c3aff">
<path fill="#333333" opacity="1.00" d=" M 118.08 129.06 C 121.77 126.18 126.63 125.94 131.11 125.79 C 133.96 128.07 135.78 131.37 136.17 135.01 C 136.88 140.83 137.59 147.16 134.52 152.48 C 136.03 155.64 139.10 157.21 141.79 159.17 C 145.16 163.29 145.16 169.05 144.42 174.07 C 143.37 179.41 145.49 184.71 144.78 190.09 C 145.23 195.71 146.02 201.35 145.84 207.01 C 144.65 212.32 146.11 217.67 146.31 223.01 C 146.54 223.45 146.98 224.33 147.21 224.77 C 153.69 223.98 160.02 222.23 166.41 220.94 C 166.81 212.28 168.35 202.22 175.78 196.70 C 180.16 194.55 186.09 193.65 190.07 197.15 C 195.19 201.54 196.78 208.51 198.00 214.84 C 200.99 214.11 204.03 213.57 207.00 212.75 L 207.00 214.56 C 204.02 215.07 201.04 215.65 198.01 215.71 C 198.06 217.05 198.12 218.38 198.16 219.72 C 201.06 218.87 204.02 218.28 207.00 217.81 L 207.00 220.05 L 206.99 219.20 C 204.11 219.92 201.19 220.48 198.21 220.53 C 198.27 223.76 198.15 226.98 197.88 230.20 C 196.90 228.27 196.65 226.10 196.83 223.97 C 197.22 216.42 195.95 208.53 191.97 202.01 C 190.19 199.12 187.06 197.62 184.19 196.07 C 180.69 196.90 176.45 196.76 174.15 200.03 C 168.84 205.66 168.89 213.75 166.80 220.75 C 170.82 219.93 174.86 219.18 178.90 218.44 C 179.86 220.56 180.27 222.81 179.22 224.99 C 175.55 225.72 171.91 226.56 168.20 226.99 C 168.05 227.28 167.76 227.86 167.61 228.15 C 168.74 230.92 169.31 233.87 170.38 236.66 C 172.43 241.70 176.44 247.07 182.59 246.41 C 184.11 242.51 187.16 239.41 188.43 235.38 C 190.72 228.23 190.79 220.47 189.54 213.11 C 188.59 207.46 185.39 202.60 181.95 198.15 C 183.12 198.47 184.57 198.48 185.31 199.63 C 190.36 205.90 191.73 214.23 191.95 222.05 C 191.70 230.67 190.26 240.37 183.24 246.24 C 191.39 246.46 194.87 237.23 195.80 230.55 C 196.41 230.46 197.03 230.43 197.66 230.37 C 196.18 236.76 194.11 244.30 187.89 247.63 C 183.46 248.30 177.85 249.48 174.38 245.74 C 169.22 241.02 167.88 233.90 166.43 227.40 C 160.36 229.40 153.94 230.00 147.75 231.54 C 147.46 232.16 146.87 233.41 146.58 234.03 C 143.16 234.54 139.78 235.27 136.50 236.37 C 134.49 241.06 131.68 245.73 131.64 250.97 C 132.77 254.23 135.07 256.96 136.57 260.07 C 137.50 262.91 141.23 263.05 142.37 265.72 C 143.31 267.38 144.01 269.71 141.96 270.88 C 138.81 274.32 133.89 273.15 129.96 272.05 C 126.78 271.41 125.32 267.55 121.93 267.47 C 119.10 267.01 115.46 266.65 114.32 263.51 C 112.45 259.03 116.50 255.14 118.40 251.43 C 120.31 246.84 120.97 241.84 122.01 237.01 C 119.78 237.37 117.55 237.77 115.34 238.27 C 114.53 240.95 113.40 243.53 111.91 245.91 C 108.53 250.62 109.76 256.76 110.62 262.07 C 113.09 267.89 118.39 272.34 119.00 278.93 C 117.16 280.02 115.31 281.53 113.03 281.31 C 108.27 281.17 102.76 281.41 99.07 277.84 C 95.71 275.43 97.01 270.84 97.65 267.43 C 97.01 263.90 96.66 260.20 97.77 256.72 C 99.32 251.74 98.90 246.48 99.00 241.34 C 95.81 242.10 92.61 242.81 89.39 243.46 C 88.79 245.27 89.02 247.83 86.93 248.70 C 83.70 250.38 79.87 249.25 76.42 250.11 C 73.92 251.05 72.28 248.50 70.58 247.14 C 66.59 247.61 62.70 248.73 58.71 249.19 C 58.52 248.89 58.12 248.30 57.92 248.01 C 63.27 246.15 69.42 246.05 74.84 243.93 C 74.82 243.49 74.76 242.60 74.73 242.15 C 68.87 242.06 63.06 244.42 57.11 244.54 C 57.73 254.09 56.70 264.66 50.36 272.28 C 47.73 275.87 42.96 275.34 39.04 275.64 C 34.20 275.33 31.01 270.91 29.17 266.86 C 27.15 263.03 27.12 258.51 25.23 254.67 C 21.21 255.84 17.02 256.18 13.00 257.38 L 12.08 256.95 C 11.78 255.85 11.20 253.65 10.90 252.55 C 11.70 253.19 13.28 254.48 14.08 255.12 C 13.95 253.97 13.81 252.83 13.68 251.69 L 12.95 253.91 C 12.37 253.07 11.81 252.23 11.24 251.40 C 15.72 249.60 20.65 249.42 25.34 248.45 C 25.84 240.71 27.43 232.62 32.18 226.30 C 34.67 222.78 39.28 222.42 43.19 221.95 C 48.62 222.32 52.25 227.09 54.14 231.76 C 55.98 235.23 55.80 239.44 57.65 242.82 C 62.65 242.20 67.53 240.88 72.48 239.97 C 72.81 237.68 73.70 235.56 75.41 233.97 C 76.81 228.48 79.44 222.99 78.11 217.21 C 75.46 214.87 73.39 211.65 73.31 208.03 C 73.20 203.59 72.61 198.81 74.85 194.74 C 76.50 190.62 80.96 188.42 82.31 184.14 C 84.20 178.89 86.55 173.49 90.90 169.80 C 93.23 167.96 93.67 164.81 95.40 162.52 C 97.67 158.74 102.53 158.30 105.50 155.29 C 108.49 152.26 112.61 151.10 116.36 149.36 C 118.02 146.48 117.02 143.07 115.97 140.17 C 114.60 136.46 115.21 131.89 118.08 129.06 M 119.46 129.51 C 116.73 132.17 116.51 136.55 117.95 139.92 C 119.44 143.52 118.25 147.62 120.03 151.13 C 121.95 156.38 125.25 161.46 125.12 167.18 L 123.91 166.55 C 122.08 162.34 120.38 158.06 118.60 153.84 C 116.01 156.47 117.93 160.53 115.60 163.19 C 115.35 161.50 115.15 159.81 114.95 158.12 C 116.19 156.03 117.30 153.87 118.27 151.64 C 116.60 152.87 114.96 154.14 113.20 155.25 C 113.65 154.44 114.54 152.81 114.98 152.00 C 109.34 153.15 106.58 158.82 101.21 160.35 C 95.70 162.79 96.26 169.71 93.15 174.05 C 91.27 177.39 87.80 181.44 89.90 185.38 C 91.15 182.94 92.27 180.42 93.05 177.78 C 97.63 177.29 93.00 183.89 97.12 184.08 C 97.56 184.20 98.43 184.44 98.87 184.55 C 98.34 185.23 97.82 185.91 97.30 186.59 C 97.83 192.12 94.33 197.30 89.25 199.31 C 86.65 202.06 88.72 206.30 86.41 208.97 C 84.66 205.39 85.34 200.82 88.26 198.06 C 93.83 197.13 94.85 190.81 96.26 186.32 C 94.80 185.45 93.48 184.38 92.35 183.11 C 91.80 184.41 90.88 185.29 89.59 185.75 C 89.98 188.50 89.96 191.68 87.96 193.86 C 84.20 197.76 84.66 203.58 82.33 208.21 C 79.84 212.76 81.08 218.06 80.12 222.96 C 79.84 227.05 77.82 230.72 77.39 234.77 C 75.32 235.92 74.51 237.81 74.95 240.15 C 75.28 240.51 75.95 241.25 76.29 241.61 C 76.35 243.14 76.41 244.66 76.51 246.19 C 75.65 246.15 73.93 246.06 73.07 246.01 C 73.08 246.32 73.10 246.93 73.11 247.23 C 73.76 247.52 75.07 248.08 75.72 248.37 C 78.96 247.38 82.33 247.02 85.63 246.34 C 87.48 243.95 87.81 240.62 89.76 238.22 C 88.29 236.91 86.80 235.64 85.18 234.52 C 87.33 228.96 88.36 222.86 92.07 218.02 C 94.71 214.55 94.85 210.07 96.08 206.04 C 97.07 202.60 96.02 198.51 98.86 195.77 C 99.04 196.53 99.41 198.03 99.60 198.78 C 104.29 193.41 104.15 185.76 108.01 179.95 C 110.35 177.54 113.21 175.71 115.66 173.41 C 115.76 173.72 115.94 174.34 116.03 174.65 C 113.98 177.08 111.41 178.99 109.35 181.38 C 106.28 187.04 106.48 194.05 101.91 199.00 C 104.30 197.91 108.01 199.07 109.41 196.34 C 109.95 196.59 111.03 197.08 111.57 197.33 L 109.37 195.02 C 111.08 198.08 114.10 195.80 113.06 194.08 L 112.40 195.36 C 111.17 194.70 109.95 193.99 108.71 193.35 C 113.57 192.36 118.67 192.09 123.44 190.55 C 125.09 189.23 126.56 187.64 127.62 185.80 C 127.25 185.51 126.51 184.92 126.14 184.63 C 124.27 184.24 123.07 186.76 121.14 186.91 C 117.16 187.46 111.13 188.02 109.91 182.98 C 112.44 184.15 114.88 186.28 117.86 185.53 C 121.04 185.57 123.33 183.29 126.05 182.09 C 126.28 182.52 126.75 183.39 126.98 183.82 C 130.03 184.09 133.05 182.20 135.32 180.30 C 137.06 177.25 139.03 173.76 138.39 170.14 C 138.25 168.58 138.24 167.03 138.34 165.47 C 142.70 169.81 140.14 176.69 136.79 180.89 C 135.65 182.26 133.78 183.16 133.39 185.03 C 133.79 187.79 136.06 190.03 135.85 192.92 C 135.93 195.07 135.55 197.25 134.39 199.10 C 138.42 201.73 141.38 205.73 145.04 208.86 C 143.20 203.79 144.05 198.30 143.05 193.09 C 142.03 189.12 144.40 185.07 142.85 181.14 C 141.51 177.41 143.74 173.73 143.58 169.97 C 143.60 166.34 141.96 162.95 139.98 160.00 C 137.02 158.46 134.56 156.25 132.85 153.38 C 132.11 156.36 131.49 159.38 130.49 162.29 C 129.80 159.56 130.73 156.84 131.36 154.20 C 126.55 154.55 120.93 152.12 120.69 146.66 C 122.11 146.95 123.14 147.88 123.91 149.05 C 125.78 151.84 129.54 152.72 132.70 152.20 C 133.29 149.48 134.92 146.91 134.58 144.05 C 134.23 139.72 134.28 135.29 133.09 131.08 C 132.73 129.06 130.65 128.27 129.17 127.22 C 125.89 127.56 122.28 127.56 119.46 129.51 M 83.12 187.02 C 83.58 189.26 84.87 191.24 86.48 192.84 C 89.15 188.91 85.73 184.19 87.66 180.14 C 88.83 176.94 90.55 173.98 92.04 170.92 C 87.22 175.05 85.50 181.38 83.12 187.02 M 127.98 185.17 C 128.35 187.34 127.53 189.51 125.81 190.87 C 122.96 193.69 118.69 193.51 115.06 194.39 C 117.73 196.30 120.96 195.94 124.02 195.63 C 127.27 195.24 129.44 198.66 132.75 198.09 C 133.72 193.58 133.26 189.01 131.71 184.69 C 130.46 184.84 129.22 185.01 127.98 185.17 M 77.35 193.30 C 75.17 200.48 73.52 208.91 78.03 215.56 C 80.89 208.29 80.96 199.89 85.82 193.49 C 84.00 192.56 82.90 190.87 82.01 189.10 C 80.44 190.48 78.89 191.89 77.35 193.30 M 108.23 199.64 C 105.09 200.41 101.60 199.46 98.71 201.16 C 98.59 202.90 98.34 204.62 98.05 206.35 C 102.78 202.52 109.76 201.49 114.86 205.23 C 114.78 206.64 114.67 208.05 114.55 209.46 C 113.91 208.31 113.48 207.06 113.14 205.80 C 111.37 205.45 109.60 205.11 107.84 204.74 C 104.73 205.88 101.12 206.49 99.13 209.45 C 102.69 210.15 106.49 210.53 109.54 212.69 C 110.65 212.10 111.79 211.57 113.00 211.21 C 112.13 212.21 111.43 213.59 110.01 213.86 C 106.30 213.08 102.72 211.80 99.19 210.47 C 98.66 210.68 97.60 211.10 97.07 211.31 C 96.17 214.55 94.19 217.47 93.32 220.63 C 97.69 223.36 102.70 219.60 107.38 220.91 C 105.77 226.55 101.08 231.06 100.88 237.12 C 100.91 242.95 101.06 248.82 100.36 254.62 C 99.25 257.50 95.79 262.50 100.48 263.96 C 99.09 267.75 97.71 271.89 99.18 275.88 C 101.29 277.38 103.29 279.64 106.11 279.48 C 109.64 279.62 113.44 280.40 116.80 279.01 C 118.66 275.73 115.11 273.08 113.48 270.63 C 111.94 267.82 109.89 265.23 108.83 262.19 C 108.41 259.11 108.09 256.01 107.88 252.91 C 108.21 246.49 113.82 241.76 113.62 235.17 C 114.15 234.94 115.20 234.48 115.73 234.25 L 115.72 236.10 C 117.81 235.85 119.86 235.39 121.85 234.71 C 121.74 234.17 121.51 233.10 121.39 232.57 C 119.70 232.80 118.00 233.07 116.31 233.33 L 116.22 234.64 C 115.55 234.04 114.90 233.43 114.25 232.81 C 115.07 229.37 116.58 226.19 117.93 222.94 C 118.78 219.73 118.78 216.35 118.98 213.05 C 117.83 211.55 116.76 209.98 115.95 208.27 C 119.06 209.46 121.12 212.14 120.93 215.57 C 125.12 214.48 130.41 215.24 133.02 219.04 C 132.34 218.94 130.97 218.73 130.28 218.63 C 127.40 223.95 121.13 229.32 124.22 235.92 C 123.34 241.22 121.44 246.27 120.04 251.45 C 120.93 254.09 122.10 256.69 122.17 259.53 C 123.19 260.21 123.92 261.13 124.37 262.28 C 120.45 262.51 119.94 258.23 119.69 255.34 C 117.67 257.07 115.87 259.96 116.28 262.63 C 117.13 266.26 121.34 265.30 124.12 265.85 C 127.30 265.87 128.06 270.06 131.12 270.36 C 133.31 270.83 135.48 271.54 137.74 271.64 C 139.32 271.37 140.25 269.82 141.44 268.88 C 140.92 267.64 140.45 266.39 139.80 265.22 C 138.36 263.96 136.20 263.57 135.21 261.83 C 133.23 258.39 131.19 254.98 129.18 251.56 C 130.39 249.17 129.72 246.31 130.90 243.89 C 132.51 240.10 134.27 236.36 135.60 232.45 C 136.71 228.76 139.93 225.97 140.12 221.97 C 140.60 218.02 145.19 215.35 143.82 211.03 C 142.20 207.71 138.21 206.66 136.37 203.50 C 133.36 199.40 126.23 197.22 122.33 201.24 C 120.01 203.00 119.61 206.49 116.64 207.54 C 116.43 202.65 121.29 199.69 124.87 197.28 C 121.55 198.54 118.06 198.41 115.05 196.42 C 113.19 198.21 110.66 198.97 108.23 199.64 M 120.54 217.06 C 121.47 222.22 117.71 226.16 116.68 230.90 C 118.10 230.78 119.50 230.58 120.90 230.32 C 123.82 226.14 125.34 220.89 129.64 217.78 C 126.70 216.77 123.60 216.65 120.54 217.06 M 141.65 222.96 C 141.02 227.02 137.76 229.95 137.11 234.04 C 139.69 233.55 142.25 232.93 144.76 232.15 C 144.94 231.31 145.29 229.64 145.47 228.80 C 144.33 224.92 144.87 220.74 144.73 216.74 C 143.47 218.69 142.03 220.61 141.65 222.96 M 176.38 220.46 C 172.36 221.44 168.16 221.73 164.27 223.23 C 159.13 224.89 153.59 224.87 148.47 226.56 C 148.24 226.93 147.77 227.66 147.54 228.03 C 149.06 230.95 153.40 228.10 156.02 228.09 C 163.24 226.34 170.66 225.53 177.83 223.54 C 180.03 222.60 178.29 219.56 176.38 220.46 M 92.29 221.94 C 90.63 225.70 89.44 229.69 87.11 233.11 C 88.20 234.05 89.28 235.00 90.35 235.97 C 93.52 235.82 96.64 235.23 99.69 234.35 C 100.43 229.77 103.96 226.39 105.17 221.98 C 100.97 222.75 96.24 224.26 92.29 221.94 M 34.17 226.24 C 29.17 231.46 27.71 238.91 26.94 245.85 C 26.60 246.39 25.91 247.46 25.57 247.99 C 29.76 247.71 33.70 246.10 37.85 245.60 C 38.84 247.61 39.23 249.80 39.05 252.04 C 35.31 253.08 31.51 253.92 27.64 254.26 C 27.71 257.40 28.16 260.53 29.42 263.43 C 30.96 267.56 33.41 272.19 38.04 273.36 C 41.92 273.29 46.74 274.04 49.46 270.57 C 54.86 264.04 56.06 255.06 55.91 246.84 C 55.36 237.87 52.70 227.05 43.47 223.33 C 40.38 224.35 36.55 223.59 34.17 226.24 M 88.80 240.68 C 92.75 241.10 97.23 240.63 100.23 237.77 L 98.98 237.06 C 95.51 237.43 90.74 237.27 88.80 240.68 M 15.54 251.59 C 15.62 252.45 15.78 254.19 15.85 255.05 C 23.21 253.41 30.65 252.11 38.02 250.53 C 37.62 249.61 37.87 247.22 36.11 248.04 C 29.24 249.14 22.48 250.90 15.54 251.59 Z" />
<path fill="#333333" opacity="1.00" d=" M 103.66 159.82 C 106.25 160.97 107.95 163.30 110.06 165.08 C 111.56 164.92 113.02 164.56 114.49 164.25 C 113.48 166.32 111.09 166.99 108.98 167.16 C 107.26 164.68 104.25 162.91 103.66 159.82 Z" />
<path fill="#333333" opacity="1.00" d=" M 132.69 165.68 C 134.66 164.80 135.57 162.09 137.92 162.11 C 137.29 164.42 135.67 166.24 133.44 167.13 C 131.01 167.96 130.01 170.76 127.49 171.40 C 128.33 168.79 130.23 166.82 132.69 165.68 Z" />
<path fill="#333333" opacity="1.00" d=" M 115.28 165.35 C 118.59 166.37 121.79 167.75 124.98 169.11 C 124.96 169.55 124.94 170.43 124.93 170.87 C 121.90 170.17 119.16 168.69 116.38 167.37 C 115.96 166.72 115.59 166.05 115.28 165.35 Z" />
<path fill="#333333" opacity="1.00" d=" M 99.81 172.37 C 103.01 175.26 103.57 180.66 101.23 184.27 C 101.08 180.26 100.43 176.32 99.81 172.37 Z" />
<path fill="#333333" opacity="1.00" d=" M 128.81 205.26 C 131.16 206.98 131.74 210.15 133.99 211.88 C 136.71 212.17 138.86 210.15 141.05 208.89 C 142.56 209.63 141.98 211.98 140.75 212.72 C 137.80 214.43 133.79 214.25 131.15 212.03 C 129.40 210.25 129.13 207.59 128.81 205.26 Z" />
<path fill="#333333" opacity="1.00" d=" M 122.11 206.85 C 124.51 208.07 126.10 210.47 127.03 212.94 C 125.03 211.23 123.39 209.13 122.11 206.85 Z" />
<path fill="#333333" opacity="1.00" d=" M 111.51 214.97 C 113.10 216.47 113.25 218.74 113.55 220.78 C 110.84 220.46 111.68 216.86 111.51 214.97 Z" />
<path fill="#333333" opacity="1.00" d=" M 136.66 220.21 C 136.97 218.56 137.32 216.93 137.74 215.31 C 139.95 216.48 139.46 218.86 138.73 220.74 C 138.21 220.61 137.18 220.34 136.66 220.21 Z" />
<path fill="#333333" opacity="1.00" d=" M 41.10 225.38 C 44.92 225.29 46.13 229.48 47.63 232.24 C 52.01 242.92 51.97 255.28 47.90 266.05 C 46.97 268.48 45.68 271.18 42.98 272.00 C 49.85 261.45 51.03 247.87 47.35 235.96 C 46.22 231.92 43.41 228.77 41.10 225.38 Z" />
<path fill="#333333" opacity="1.00" d=" M 113.41 227.68 L 115.19 227.01 C 113.84 230.30 112.19 233.46 110.69 236.68 C 109.11 241.67 107.89 246.77 107.27 251.97 C 106.95 252.43 106.31 253.37 105.99 253.83 C 105.69 244.64 108.92 235.60 113.41 227.68 Z" />
<path fill="#333333" opacity="1.00" d=" M 128.73 237.75 C 130.46 234.68 131.05 231.13 132.75 228.05 C 133.55 230.87 132.31 233.65 131.14 236.16 C 129.79 238.86 128.58 241.84 126.01 243.62 C 126.71 241.57 127.70 239.64 128.73 237.75 Z" />
<path fill="#333333" opacity="1.00" d=" M 126.14 253.79 C 128.60 256.60 130.30 260.15 130.33 263.95 C 127.92 261.15 126.90 257.34 126.14 253.79 Z" />
<path fill="#333333" opacity="1.00" d=" M 100.97 262.10 C 99.75 259.06 103.70 256.75 106.29 256.81 C 105.10 259.07 103.61 261.41 100.97 262.10 Z" />
<path fill="#333333" opacity="1.00" d=" M 102.15 274.41 C 104.77 274.97 107.43 274.88 110.08 274.62 C 111.51 274.60 112.09 276.03 112.49 277.17 C 109.33 275.14 104.46 277.61 102.15 274.41 Z" />
</g>
</svg>
