<?xml version="1.0" encoding="UTF-8" ?>
<!DOCTYPE svg PUBLIC "-//W3C//DTD SVG 1.1//EN" "http://www.w3.org/Graphics/SVG/1.1/DTD/svg11.dtd">
<svg width="177pt" height="250pt" viewBox="0 0 177 250" version="1.1" xmlns="http://www.w3.org/2000/svg">
<g id="#ffffffff">
<path fill="#FFFFFF" opacity="1.00" d=" M 0.00 0.00 L 177.00 0.00 L 177.00 250.00 L 0.00 250.00 L 0.00 0.00 M 104.01 40.77 C 102.84 43.00 101.70 45.29 99.76 46.96 C 97.03 45.49 94.06 44.49 90.92 44.51 C 86.49 44.53 82.63 41.11 78.09 42.18 C 74.51 42.15 71.60 44.35 68.34 45.48 C 64.01 46.99 61.95 51.63 57.93 53.65 C 55.11 55.55 51.22 56.38 49.62 59.68 C 46.72 64.08 43.98 68.59 40.98 72.94 C 39.62 74.82 37.99 76.67 37.57 79.04 C 38.39 88.32 37.01 97.70 38.60 106.93 C 39.62 110.66 42.09 114.01 42.00 118.01 C 41.98 120.03 42.87 121.85 43.66 123.65 C 40.48 125.40 39.39 128.95 38.39 132.19 C 37.61 136.82 39.04 141.41 38.90 146.04 C 38.25 156.96 36.28 168.41 39.96 179.00 C 41.10 183.57 40.11 188.35 40.93 192.98 C 37.96 197.86 37.97 204.56 32.70 207.86 C 32.45 210.73 31.60 213.71 32.64 216.53 C 33.48 218.67 34.59 220.69 35.52 222.79 C 39.71 223.63 43.94 224.75 48.17 223.51 C 49.79 222.42 51.53 221.53 53.26 220.66 C 54.29 218.57 55.47 216.48 55.58 214.10 C 55.80 210.45 57.98 207.45 59.25 204.14 C 57.69 201.74 57.89 198.73 57.43 196.01 C 57.14 195.76 56.55 195.26 56.25 195.01 C 57.13 189.90 54.47 184.64 56.46 179.67 C 58.33 174.90 59.63 169.91 60.41 164.85 C 59.56 159.18 56.22 153.80 57.38 147.92 C 57.74 145.26 59.14 142.90 59.80 140.32 C 61.72 139.35 63.33 137.94 64.58 136.19 C 65.86 136.79 67.20 137.90 68.66 137.04 C 73.90 134.86 79.70 134.44 84.78 131.86 C 88.49 130.03 92.16 133.08 95.92 133.25 C 99.25 135.87 103.10 137.73 107.02 139.28 C 108.48 139.15 109.93 139.03 111.38 138.91 C 110.95 138.43 110.09 137.47 109.66 136.99 C 109.67 136.35 109.69 135.05 109.70 134.40 C 111.60 132.53 113.39 130.55 115.35 128.75 C 115.93 131.26 114.50 133.53 113.97 135.90 C 115.59 141.36 111.40 146.53 112.95 152.06 C 114.40 157.88 116.25 164.03 114.22 169.99 C 113.22 174.02 109.32 176.17 106.61 178.92 C 106.07 181.16 105.98 183.48 105.82 185.77 C 104.16 186.47 102.51 188.07 100.57 187.41 C 97.94 186.42 95.36 185.18 93.24 183.29 C 93.07 179.76 92.88 176.06 94.57 172.82 C 94.41 172.46 94.08 171.74 93.92 171.37 C 95.88 168.27 98.98 166.36 102.25 164.88 C 104.19 165.44 106.28 165.71 108.04 166.78 C 109.53 168.47 110.46 170.60 112.14 172.15 C 112.53 166.10 105.99 161.58 100.48 163.22 C 97.49 165.63 93.88 168.03 92.94 172.02 C 92.03 174.59 90.68 177.07 90.49 179.84 C 90.69 183.25 92.72 186.53 95.43 188.52 C 98.96 189.62 103.93 191.48 106.46 187.71 C 106.97 187.92 107.98 188.33 108.48 188.54 C 110.53 189.53 112.66 190.32 114.79 191.13 C 114.80 191.32 114.84 191.70 114.86 191.89 C 108.52 193.38 101.58 193.14 95.73 196.46 C 102.20 196.18 108.81 195.36 114.81 192.79 C 116.01 194.07 117.20 195.38 118.36 196.70 C 117.45 196.43 115.64 195.89 114.74 195.62 L 116.75 196.23 C 115.45 198.13 113.30 200.27 114.06 202.83 C 115.45 208.09 120.76 211.02 125.52 212.74 C 128.96 213.96 130.25 217.96 133.54 219.44 C 135.53 220.36 137.44 221.44 139.44 222.36 C 141.91 223.38 144.53 222.12 146.56 220.73 C 147.28 218.84 147.64 216.80 147.55 214.77 C 147.31 211.28 144.57 208.74 142.91 205.86 C 142.54 205.76 141.81 205.56 141.45 205.46 C 139.24 201.64 138.08 197.06 134.68 194.07 C 137.13 191.18 139.50 187.90 139.52 183.93 C 140.27 179.96 137.56 176.52 135.23 173.63 C 132.92 171.91 130.12 171.03 127.55 169.78 C 128.74 165.50 129.45 161.08 130.72 156.83 C 133.13 151.18 134.80 145.16 135.06 139.01 C 134.44 133.55 134.19 128.05 134.54 122.55 C 137.03 124.69 139.62 126.87 141.12 129.86 C 141.56 130.93 142.77 131.24 143.64 131.85 C 144.40 132.62 145.16 133.39 145.92 134.16 C 145.69 136.12 145.57 138.09 145.46 140.07 C 145.38 143.61 142.58 146.45 142.56 150.00 C 142.62 154.18 139.72 157.73 139.97 161.93 C 140.09 165.73 139.32 169.48 137.95 173.01 C 138.30 173.24 138.98 173.68 139.32 173.90 C 140.65 170.40 141.74 166.80 141.84 163.02 C 141.87 158.81 144.14 155.08 144.47 150.91 C 144.75 146.77 147.99 143.74 149.08 139.86 C 148.28 137.62 147.88 135.25 146.99 133.05 C 143.37 128.61 140.02 123.87 135.04 120.82 C 135.74 115.38 136.27 109.77 134.91 104.38 C 134.33 102.61 135.39 100.87 135.58 99.11 C 136.59 93.08 136.68 85.82 131.74 81.39 C 130.01 77.77 129.77 73.35 126.28 70.82 C 127.93 68.10 127.90 64.80 128.96 61.86 C 130.68 57.59 129.55 52.90 129.39 48.45 C 128.76 42.12 122.93 38.67 117.59 36.61 C 112.68 35.38 107.49 37.30 104.01 40.77 M 136.82 149.33 C 137.91 148.17 139.02 147.03 140.19 145.94 C 140.06 143.84 139.82 141.74 139.18 139.73 C 137.39 142.62 138.17 146.25 136.82 149.33 M 99.41 174.92 C 99.15 177.91 98.68 181.18 100.25 183.90 C 100.54 181.63 100.45 179.33 100.73 177.06 C 101.13 173.26 104.46 170.87 106.40 167.84 C 103.22 168.94 99.65 171.24 99.41 174.92 M 58.49 190.42 C 58.61 191.78 58.71 193.14 58.82 194.50 C 63.13 197.17 67.93 199.43 73.10 199.46 C 80.71 199.66 89.04 200.31 95.66 195.80 C 91.75 195.56 87.88 196.19 83.99 196.37 C 75.22 196.55 65.88 195.58 58.49 190.42 Z" />
<path fill="#FFFFFF" opacity="1.00" d=" M 107.74 40.81 C 113.15 36.70 121.07 38.88 125.18 43.80 C 127.96 48.79 128.62 54.69 127.39 60.27 C 125.63 66.49 122.55 72.56 117.46 76.72 C 113.62 78.90 107.72 79.04 105.11 74.93 C 100.46 70.02 101.73 62.80 101.66 56.64 C 100.75 57.79 99.83 58.93 98.91 60.06 C 99.21 65.39 100.78 70.58 102.57 75.54 C 105.90 79.07 111.17 81.89 116.07 79.93 C 119.89 78.30 123.50 75.65 125.14 71.70 C 125.63 72.11 126.13 72.53 126.62 72.96 C 127.65 75.86 128.67 78.76 129.54 81.71 C 132.12 84.57 134.59 87.97 134.12 92.07 C 134.95 97.21 132.43 101.87 130.76 106.55 C 131.31 106.79 132.42 107.27 132.98 107.51 C 133.93 113.16 133.75 119.03 132.35 124.58 C 131.71 124.33 130.43 123.81 129.79 123.55 C 130.27 128.46 132.06 133.14 132.46 138.06 C 131.59 142.71 130.94 147.41 129.94 152.04 C 128.60 158.19 125.35 163.86 124.96 170.21 C 124.41 170.86 123.86 171.52 123.31 172.17 C 118.11 174.81 116.92 180.73 114.56 185.52 C 114.49 186.93 114.41 188.35 114.32 189.77 C 111.94 188.57 109.80 186.96 107.75 185.28 C 107.88 183.89 108.01 182.49 108.13 181.10 C 111.17 178.77 113.59 175.77 115.64 172.55 C 117.36 166.63 117.67 160.29 115.63 154.41 C 114.12 150.58 115.04 146.36 116.27 142.59 C 116.76 139.33 116.56 136.00 117.14 132.74 C 118.47 134.21 119.78 135.70 120.95 137.31 C 120.19 138.81 119.57 140.39 119.62 142.11 C 122.76 140.06 123.23 136.11 125.15 133.16 C 126.36 131.40 126.37 129.27 126.35 127.22 C 126.20 123.30 128.12 119.72 128.73 115.91 C 125.72 118.32 124.81 122.11 124.23 125.74 C 125.94 129.25 123.45 132.71 121.99 135.82 C 120.67 134.23 119.15 132.76 118.17 130.92 C 117.16 126.68 116.27 122.35 116.44 117.95 C 116.58 114.56 115.29 111.26 115.55 107.88 C 116.30 105.78 117.40 103.84 118.32 101.82 C 120.31 103.26 122.21 104.85 124.43 105.93 C 122.23 101.95 117.46 100.55 115.20 96.65 C 113.71 94.55 113.04 92.04 112.35 89.60 C 111.69 88.54 111.05 87.47 110.51 86.35 C 110.02 87.39 109.36 88.40 109.18 89.56 C 109.89 89.48 110.60 89.38 111.32 89.33 C 110.27 94.26 113.23 99.27 117.56 101.54 C 114.76 103.94 113.07 107.25 113.41 111.01 L 112.88 109.98 C 112.41 110.78 111.94 111.59 111.47 112.40 L 113.41 112.21 C 113.65 117.22 113.88 122.25 114.65 127.21 C 111.65 129.20 109.52 132.24 106.37 134.03 C 106.15 134.81 105.72 136.39 105.50 137.17 C 101.62 134.92 98.62 130.85 93.86 130.45 C 90.59 129.83 87.24 128.34 83.90 129.41 C 80.23 130.66 76.51 131.76 72.85 133.03 C 72.10 129.78 70.72 126.10 67.16 125.10 C 68.95 128.29 71.79 131.02 71.65 134.96 C 70.90 135.17 69.41 135.59 68.67 135.80 C 67.39 135.70 66.11 135.63 64.84 135.59 C 65.29 131.12 66.84 125.61 62.86 122.22 C 64.22 126.71 61.79 131.21 63.34 135.60 C 61.35 136.44 59.32 137.21 57.40 138.21 C 55.15 137.28 53.66 135.46 52.70 133.27 C 50.41 128.93 47.18 125.22 44.35 121.24 C 44.29 119.56 44.21 117.89 44.11 116.22 C 44.83 116.47 46.27 116.99 47.00 117.24 L 46.03 116.61 C 47.88 115.72 49.98 114.86 50.26 112.53 C 48.94 113.18 47.74 114.06 46.64 115.04 C 45.49 115.18 44.34 115.31 43.19 115.42 L 44.11 115.03 C 42.77 111.37 41.19 107.74 40.67 103.84 C 39.84 95.48 41.10 87.03 39.44 78.74 C 42.87 74.94 45.25 70.38 48.41 66.36 C 50.59 60.98 55.16 56.86 60.49 54.70 C 65.68 50.30 70.85 44.83 78.07 44.33 C 82.23 43.63 86.02 46.13 90.15 46.07 C 93.58 46.04 96.71 47.45 99.76 48.85 C 97.94 51.89 96.04 54.93 94.95 58.32 C 102.31 55.20 101.62 45.27 107.74 40.81 M 85.58 53.51 C 87.15 55.72 87.56 58.19 86.80 60.78 C 88.23 62.16 89.24 60.08 89.46 58.85 C 89.91 56.38 87.86 54.42 86.93 52.31 C 86.48 52.71 86.03 53.11 85.58 53.51 M 68.29 60.97 C 68.36 61.52 68.48 62.62 68.55 63.17 C 70.99 64.15 73.33 65.49 75.93 66.01 C 79.26 65.70 82.52 64.71 85.60 63.43 C 82.08 63.09 78.61 64.08 75.10 63.85 C 72.74 63.12 70.55 61.95 68.29 60.97 M 89.49 61.79 C 92.54 65.05 94.66 68.90 96.46 72.96 C 96.24 73.76 95.78 75.36 95.56 76.16 C 96.33 77.18 97.10 78.22 97.86 79.25 C 97.22 77.06 97.28 74.82 97.39 72.57 C 96.48 68.10 94.12 63.33 89.49 61.79 M 69.62 71.27 C 65.90 73.66 62.63 77.32 57.91 77.52 C 55.05 78.48 52.23 77.30 49.50 76.51 C 50.93 78.32 52.62 79.90 54.77 80.80 C 53.80 83.35 53.15 86.04 53.32 88.78 C 52.24 92.79 51.73 96.92 50.59 100.91 C 49.49 105.97 53.17 110.02 55.12 114.30 C 58.02 114.96 60.85 115.88 63.63 116.92 C 64.41 118.82 65.25 120.70 66.01 122.61 C 66.52 122.44 67.03 122.27 67.54 122.10 C 66.60 120.07 66.05 117.88 65.12 115.85 C 61.95 114.51 58.71 113.34 55.52 112.06 C 56.66 110.62 57.82 109.21 59.00 107.81 C 60.10 107.52 61.20 107.23 62.30 106.93 C 63.13 105.20 64.17 103.58 65.21 101.96 C 68.67 105.27 73.29 106.93 77.03 109.88 C 80.51 112.41 84.95 111.68 88.97 111.83 C 93.04 111.78 97.03 112.71 101.06 113.10 C 104.11 112.92 106.98 111.67 110.00 111.23 L 109.66 110.80 C 110.80 110.24 111.92 109.65 112.96 108.91 L 111.00 108.26 L 108.66 108.55 C 110.36 106.39 112.10 104.26 113.56 101.92 C 107.23 102.30 100.70 101.22 95.20 97.95 C 93.90 96.50 93.23 94.30 91.05 93.93 C 91.89 98.71 96.63 100.57 100.28 102.83 C 102.95 104.72 106.41 103.94 109.46 104.01 C 108.05 105.76 107.26 107.85 106.68 110.00 C 101.75 112.79 96.28 110.52 91.06 110.19 C 86.83 109.60 82.26 110.69 78.37 108.48 C 75.09 106.48 71.59 104.88 68.43 102.71 C 66.62 95.81 69.32 88.95 69.56 82.09 C 68.70 82.69 67.84 83.31 66.99 83.93 C 66.22 89.56 64.31 95.56 66.42 101.08 C 65.51 100.57 64.59 100.06 63.68 99.57 C 62.80 101.23 62.03 102.96 61.32 104.70 C 57.97 104.77 55.85 107.25 54.32 109.94 C 53.53 107.70 52.56 105.43 52.52 103.03 C 53.14 95.55 55.48 88.35 55.36 80.79 C 59.21 80.13 62.79 78.54 66.34 76.98 C 66.62 78.91 66.84 80.85 67.01 82.80 C 67.76 82.06 68.51 81.34 69.27 80.62 C 68.52 77.40 69.65 74.33 71.96 72.07 C 72.68 74.13 73.01 76.30 73.79 78.32 C 75.65 80.34 77.94 81.95 79.57 84.18 C 81.46 87.21 85.30 88.34 88.70 88.13 C 86.77 85.61 83.45 84.97 81.29 82.72 C 77.55 79.32 75.82 74.48 73.74 70.03 C 74.35 68.69 75.00 67.37 75.68 66.07 C 72.66 66.39 71.17 69.04 69.62 71.27 M 97.99 80.99 C 94.28 83.47 89.86 86.55 90.33 91.61 C 92.82 87.07 96.37 82.44 101.84 81.62 C 104.98 80.06 107.67 83.36 110.89 83.14 C 108.94 81.87 107.18 80.12 104.90 79.46 C 102.52 79.36 100.17 80.10 97.99 80.99 M 117.56 85.65 C 117.58 86.83 117.60 88.01 117.65 89.19 C 119.27 90.64 120.72 92.48 122.95 92.99 C 122.54 92.46 121.72 91.40 121.31 90.88 C 123.74 88.81 126.55 87.34 129.40 85.96 C 126.13 86.20 122.53 86.84 120.34 89.54 C 119.47 88.19 118.57 86.88 117.56 85.65 M 71.37 93.57 C 71.41 95.47 71.48 97.38 71.60 99.28 C 72.41 97.53 73.15 95.74 73.96 93.98 C 77.37 93.14 80.10 90.37 83.85 90.99 C 82.79 90.34 81.75 89.66 80.73 88.96 C 77.41 90.06 74.35 91.75 71.37 93.57 M 86.33 92.74 C 84.81 94.53 83.54 96.53 82.55 98.66 C 82.16 98.98 81.39 99.62 81.00 99.94 C 81.64 103.18 76.76 106.68 80.49 109.04 C 81.72 106.50 82.17 103.68 83.36 101.13 C 84.42 98.37 86.12 95.75 86.33 92.74 M 69.53 111.29 C 72.07 113.12 74.48 115.12 77.04 116.92 C 77.43 116.47 78.21 115.57 78.60 115.13 C 81.93 115.92 85.20 116.97 88.51 117.86 C 90.14 117.51 91.78 117.22 93.42 116.97 L 93.25 115.33 C 90.49 115.47 87.66 115.85 85.01 114.83 C 79.82 113.12 74.51 111.81 69.16 110.68 C 69.26 110.83 69.44 111.14 69.53 111.29 M 102.03 116.17 C 99.71 117.25 96.92 118.06 95.74 120.57 C 100.47 118.53 105.18 116.46 110.39 115.99 C 107.72 114.98 104.62 114.87 102.03 116.17 M 50.14 124.93 C 51.78 125.39 53.46 125.63 55.17 125.64 C 56.95 124.10 59.03 122.89 60.61 121.11 C 56.73 121.19 53.88 124.16 50.14 124.93 Z" />
<path fill="#FFFFFF" opacity="1.00" d=" M 41.47 133.06 C 42.00 129.78 42.58 125.57 46.35 124.48 C 46.82 125.75 47.04 127.14 47.75 128.31 C 50.66 132.68 52.22 138.46 57.56 140.61 C 52.27 146.19 55.26 154.32 56.77 160.81 C 58.42 164.54 56.69 168.38 56.08 172.12 C 54.94 177.68 52.39 183.38 54.12 189.09 C 55.04 191.91 53.72 194.75 53.33 197.54 C 53.82 197.48 54.78 197.36 55.26 197.30 C 55.86 200.25 56.81 203.43 55.08 206.22 C 53.51 208.58 52.38 211.19 51.79 213.97 C 51.73 215.21 51.64 216.44 51.53 217.68 C 49.87 219.40 48.17 221.07 46.43 222.70 C 43.76 222.61 41.10 222.32 38.48 221.81 C 37.10 219.31 35.15 216.94 34.84 214.02 C 34.97 211.87 35.68 209.81 36.35 207.78 C 40.29 202.55 41.02 195.56 44.98 190.27 C 44.27 190.38 42.84 190.62 42.13 190.74 C 42.71 185.50 42.82 180.12 41.26 175.03 C 39.07 167.12 39.61 158.76 41.33 150.81 C 42.70 144.91 40.11 138.95 41.47 133.06 M 48.81 137.54 C 48.21 140.17 47.91 142.86 48.28 145.55 C 48.70 145.48 49.56 145.35 49.99 145.28 C 49.94 142.54 50.42 139.85 51.37 137.29 C 50.52 137.37 49.66 137.46 48.81 137.54 M 44.16 162.07 C 44.26 167.17 43.99 172.45 46.01 177.26 C 45.50 172.85 45.51 168.44 45.84 164.02 C 44.94 159.03 46.36 154.13 47.57 149.33 C 47.23 148.48 46.89 147.64 46.55 146.79 C 43.73 151.38 44.15 156.91 44.16 162.07 M 45.81 190.60 C 46.56 190.06 48.06 188.99 48.81 188.46 C 49.84 190.16 50.95 191.81 52.33 193.25 C 52.35 190.30 50.72 187.72 48.85 185.57 C 47.09 186.78 45.43 188.19 45.81 190.60 Z" />
<path fill="#FFFFFF" opacity="1.00" d=" M 122.16 176.09 C 125.10 173.84 129.31 172.33 132.85 174.13 C 135.61 175.24 135.99 178.50 137.13 180.89 C 136.55 183.23 136.08 185.60 135.33 187.90 C 133.44 192.00 130.06 195.33 126.19 197.57 C 123.29 197.78 120.82 195.93 118.40 194.61 C 117.03 192.71 116.46 190.32 115.76 188.12 C 116.46 183.56 118.87 179.29 122.16 176.09 M 129.51 177.28 C 127.47 178.91 124.91 180.27 123.96 182.87 C 123.13 185.88 122.85 189.16 124.04 192.11 C 124.60 189.49 124.58 186.57 126.25 184.33 C 128.04 182.00 129.99 179.80 131.97 177.62 C 131.35 177.53 130.13 177.36 129.51 177.28 Z" />
<path fill="#FFFFFF" opacity="1.00" d=" M 133.08 195.24 C 134.77 198.09 137.12 200.49 138.66 203.44 C 140.83 207.48 144.13 210.75 146.53 214.64 C 145.21 216.13 144.05 217.76 143.27 219.60 C 139.55 220.34 136.41 218.07 133.16 216.69 C 131.73 215.45 131.15 213.39 129.45 212.42 C 124.81 209.35 118.43 207.97 116.01 202.40 C 116.34 200.85 116.69 199.31 117.04 197.77 C 117.66 197.50 118.28 197.22 118.91 196.95 C 120.85 198.75 123.42 199.73 126.02 200.09 C 129.07 199.84 130.79 196.88 133.08 195.24 Z" />
</g>
<g id="#121212ff">
<path fill="#333333" opacity="1.00" d=" M 104.01 40.77 C 107.49 37.30 112.68 35.38 117.59 36.61 C 122.93 38.67 128.76 42.12 129.39 48.45 C 129.55 52.90 130.68 57.59 128.96 61.86 C 127.90 64.80 127.93 68.10 126.28 70.82 C 129.77 73.35 130.01 77.77 131.74 81.39 C 136.68 85.82 136.59 93.08 135.58 99.11 C 135.39 100.87 134.33 102.61 134.91 104.38 C 136.27 109.77 135.74 115.38 135.04 120.82 C 140.02 123.87 143.37 128.61 146.99 133.05 C 147.88 135.25 148.28 137.62 149.08 139.86 C 147.99 143.74 144.75 146.77 144.47 150.91 C 144.14 155.08 141.87 158.81 141.84 163.02 C 141.74 166.80 140.65 170.40 139.32 173.90 C 138.98 173.68 138.30 173.24 137.95 173.01 C 139.32 169.48 140.09 165.73 139.97 161.93 C 139.72 157.73 142.62 154.18 142.56 150.00 C 142.58 146.45 145.38 143.61 145.46 140.07 C 145.57 138.09 145.69 136.12 145.92 134.16 C 145.16 133.39 144.40 132.62 143.64 131.85 C 142.77 131.24 141.56 130.93 141.12 129.86 C 139.62 126.87 137.03 124.69 134.54 122.55 C 134.19 128.05 134.44 133.55 135.06 139.01 C 134.80 145.16 133.13 151.18 130.72 156.83 C 129.45 161.08 128.74 165.50 127.55 169.78 C 130.12 171.03 132.92 171.91 135.23 173.63 C 137.56 176.52 140.27 179.96 139.52 183.93 C 139.50 187.90 137.13 191.18 134.68 194.07 C 138.08 197.06 139.24 201.64 141.45 205.46 C 141.81 205.56 142.54 205.76 142.91 205.86 C 144.57 208.74 147.31 211.28 147.55 214.77 C 147.64 216.80 147.28 218.84 146.56 220.73 C 144.53 222.12 141.91 223.38 139.44 222.36 C 137.44 221.44 135.53 220.36 133.54 219.44 C 130.25 217.96 128.96 213.96 125.52 212.74 C 120.76 211.02 115.45 208.09 114.06 202.83 C 113.30 200.27 115.45 198.13 116.75 196.23 L 114.74 195.62 C 115.64 195.89 117.45 196.43 118.36 196.70 C 117.20 195.38 116.01 194.07 114.81 192.79 C 108.81 195.36 102.20 196.18 95.73 196.46 C 101.58 193.14 108.52 193.38 114.86 191.89 C 114.84 191.70 114.80 191.32 114.79 191.13 C 112.66 190.32 110.53 189.53 108.48 188.54 C 107.98 188.33 106.97 187.92 106.46 187.71 C 103.93 191.48 98.96 189.62 95.43 188.52 C 92.72 186.53 90.69 183.25 90.49 179.84 C 90.68 177.07 92.03 174.59 92.94 172.02 C 93.88 168.03 97.49 165.63 100.48 163.22 C 105.99 161.58 112.53 166.10 112.14 172.15 C 110.46 170.60 109.53 168.47 108.04 166.78 C 106.28 165.71 104.19 165.44 102.25 164.88 C 98.98 166.36 95.88 168.27 93.92 171.37 C 94.08 171.74 94.41 172.46 94.57 172.82 C 92.88 176.06 93.07 179.76 93.24 183.29 C 95.36 185.18 97.94 186.42 100.57 187.41 C 102.51 188.07 104.16 186.47 105.82 185.77 C 105.98 183.48 106.07 181.16 106.61 178.92 C 109.32 176.17 113.22 174.02 114.22 169.99 C 116.25 164.03 114.40 157.88 112.95 152.06 C 111.40 146.53 115.59 141.36 113.97 135.90 C 114.50 133.53 115.93 131.26 115.35 128.75 C 113.39 130.55 111.60 132.53 109.70 134.40 C 109.69 135.05 109.67 136.35 109.66 136.99 C 110.09 137.47 110.95 138.43 111.38 138.91 C 109.93 139.03 108.48 139.15 107.02 139.28 C 103.10 137.73 99.25 135.87 95.92 133.25 C 92.16 133.08 88.49 130.03 84.78 131.86 C 79.70 134.44 73.90 134.86 68.66 137.04 C 67.20 137.90 65.86 136.79 64.58 136.19 C 63.33 137.94 61.72 139.35 59.80 140.32 C 59.14 142.90 57.74 145.26 57.38 147.92 C 56.22 153.80 59.56 159.18 60.41 164.85 C 59.63 169.91 58.33 174.90 56.46 179.67 C 54.47 184.64 57.13 189.90 56.25 195.01 C 56.55 195.26 57.14 195.76 57.43 196.01 C 57.89 198.73 57.69 201.74 59.25 204.14 C 57.98 207.45 55.80 210.45 55.58 214.10 C 55.47 216.48 54.29 218.57 53.26 220.66 C 51.53 221.53 49.79 222.42 48.17 223.51 C 43.94 224.75 39.71 223.63 35.52 222.79 C 34.59 220.69 33.48 218.67 32.64 216.53 C 31.60 213.71 32.45 210.73 32.70 207.86 C 37.97 204.56 37.96 197.86 40.93 192.98 C 40.11 188.35 41.10 183.57 39.96 179.00 C 36.28 168.41 38.25 156.96 38.90 146.04 C 39.04 141.41 37.61 136.82 38.39 132.19 C 39.39 128.95 40.48 125.40 43.66 123.65 C 42.87 121.85 41.98 120.03 42.00 118.01 C 42.09 114.01 39.62 110.66 38.60 106.93 C 37.01 97.70 38.39 88.32 37.57 79.04 C 37.99 76.67 39.62 74.82 40.98 72.94 C 43.98 68.59 46.72 64.08 49.62 59.68 C 51.22 56.38 55.11 55.55 57.93 53.65 C 61.95 51.63 64.01 46.99 68.34 45.48 C 71.60 44.35 74.51 42.15 78.09 42.18 C 82.63 41.11 86.49 44.53 90.92 44.51 C 94.06 44.49 97.03 45.49 99.76 46.96 C 101.70 45.29 102.84 43.00 104.01 40.77 M 107.74 40.81 C 101.62 45.27 102.31 55.20 94.95 58.32 C 96.04 54.93 97.94 51.89 99.76 48.85 C 96.71 47.45 93.58 46.04 90.15 46.07 C 86.02 46.13 82.23 43.63 78.07 44.33 C 70.85 44.83 65.68 50.30 60.49 54.70 C 55.16 56.86 50.59 60.98 48.41 66.36 C 45.25 70.38 42.87 74.94 39.44 78.74 C 41.10 87.03 39.84 95.48 40.67 103.84 C 41.19 107.74 42.77 111.37 44.11 115.03 L 43.19 115.42 C 44.34 115.31 45.49 115.18 46.64 115.04 C 47.74 114.06 48.94 113.18 50.26 112.53 C 49.98 114.86 47.88 115.72 46.03 116.61 L 47.00 117.24 C 46.27 116.99 44.83 116.47 44.11 116.22 C 44.21 117.89 44.29 119.56 44.35 121.24 C 47.18 125.22 50.41 128.93 52.70 133.27 C 53.66 135.46 55.15 137.28 57.40 138.21 C 59.32 137.21 61.35 136.44 63.34 135.60 C 61.79 131.21 64.22 126.71 62.86 122.22 C 66.84 125.61 65.29 131.12 64.84 135.59 C 66.11 135.63 67.39 135.70 68.67 135.80 C 69.41 135.59 70.90 135.17 71.65 134.96 C 71.79 131.02 68.95 128.29 67.16 125.10 C 70.72 126.10 72.10 129.78 72.85 133.03 C 76.51 131.76 80.23 130.66 83.90 129.41 C 87.24 128.34 90.59 129.83 93.86 130.45 C 98.62 130.85 101.62 134.92 105.50 137.17 C 105.72 136.39 106.15 134.81 106.37 134.03 C 109.52 132.24 111.65 129.20 114.65 127.21 C 113.88 122.25 113.65 117.22 113.41 112.21 L 111.47 112.40 C 111.94 111.59 112.41 110.78 112.88 109.98 L 113.41 111.01 C 113.07 107.25 114.76 103.94 117.56 101.54 C 113.23 99.27 110.27 94.26 111.32 89.33 C 110.60 89.38 109.89 89.48 109.18 89.56 C 109.36 88.40 110.02 87.39 110.51 86.35 C 111.05 87.47 111.69 88.54 112.35 89.60 C 113.04 92.04 113.71 94.55 115.20 96.65 C 117.46 100.55 122.23 101.95 124.43 105.93 C 122.21 104.85 120.31 103.26 118.32 101.82 C 117.40 103.84 116.30 105.78 115.55 107.88 C 115.29 111.26 116.58 114.56 116.44 117.95 C 116.27 122.35 117.16 126.68 118.17 130.92 C 119.15 132.76 120.67 134.23 121.99 135.82 C 123.45 132.71 125.94 129.25 124.23 125.74 C 124.81 122.11 125.72 118.32 128.73 115.91 C 128.12 119.72 126.20 123.30 126.35 127.22 C 126.37 129.27 126.36 131.40 125.15 133.16 C 123.23 136.11 122.76 140.06 119.62 142.11 C 119.57 140.39 120.19 138.81 120.95 137.31 C 119.78 135.70 118.47 134.21 117.14 132.74 C 116.56 136.00 116.76 139.33 116.27 142.59 C 115.04 146.36 114.12 150.58 115.63 154.41 C 117.67 160.29 117.36 166.63 115.64 172.55 C 113.59 175.77 111.17 178.77 108.13 181.10 C 108.01 182.49 107.88 183.89 107.75 185.28 C 109.80 186.96 111.94 188.57 114.32 189.77 C 114.41 188.35 114.49 186.93 114.56 185.52 C 116.92 180.73 118.11 174.81 123.31 172.17 C 123.86 171.52 124.41 170.86 124.96 170.21 C 125.35 163.86 128.60 158.19 129.94 152.04 C 130.94 147.41 131.59 142.71 132.46 138.06 C 132.06 133.14 130.27 128.46 129.79 123.55 C 130.43 123.81 131.71 124.33 132.35 124.58 C 133.75 119.03 133.93 113.16 132.98 107.51 C 132.42 107.27 131.31 106.79 130.76 106.55 C 132.43 101.87 134.95 97.21 134.12 92.07 C 134.59 87.97 132.12 84.57 129.54 81.71 C 128.67 78.76 127.65 75.86 126.62 72.96 C 126.13 72.53 125.63 72.11 125.14 71.70 C 123.50 75.65 119.89 78.30 116.07 79.93 C 111.17 81.89 105.90 79.07 102.57 75.54 C 100.78 70.58 99.21 65.39 98.91 60.06 C 99.83 58.93 100.75 57.79 101.66 56.64 C 101.73 62.80 100.46 70.02 105.11 74.93 C 107.72 79.04 113.62 78.90 117.46 76.72 C 122.55 72.56 125.63 66.49 127.39 60.27 C 128.62 54.69 127.96 48.79 125.18 43.80 C 121.07 38.88 113.15 36.70 107.74 40.81 M 41.47 133.06 C 40.11 138.95 42.70 144.91 41.33 150.81 C 39.61 158.76 39.07 167.12 41.26 175.03 C 42.82 180.12 42.71 185.50 42.13 190.74 C 42.84 190.62 44.27 190.38 44.98 190.27 C 41.02 195.56 40.29 202.55 36.35 207.78 C 35.68 209.81 34.97 211.87 34.84 214.02 C 35.15 216.94 37.10 219.31 38.48 221.81 C 41.10 222.32 43.76 222.61 46.43 222.70 C 48.17 221.07 49.87 219.40 51.53 217.68 C 51.64 216.44 51.73 215.21 51.79 213.97 C 52.38 211.19 53.51 208.58 55.08 206.22 C 56.81 203.43 55.86 200.25 55.26 197.30 C 54.78 197.36 53.82 197.48 53.33 197.54 C 53.72 194.75 55.04 191.91 54.12 189.09 C 52.39 183.38 54.94 177.68 56.08 172.12 C 56.69 168.38 58.42 164.54 56.77 160.81 C 55.26 154.32 52.27 146.19 57.56 140.61 C 52.22 138.46 50.66 132.68 47.75 128.31 C 47.04 127.14 46.82 125.75 46.35 124.48 C 42.58 125.57 42.00 129.78 41.47 133.06 M 122.16 176.09 C 118.87 179.29 116.46 183.56 115.76 188.12 C 116.46 190.32 117.03 192.71 118.40 194.61 C 120.82 195.93 123.29 197.78 126.19 197.57 C 130.06 195.33 133.44 192.00 135.33 187.90 C 136.08 185.60 136.55 183.23 137.13 180.89 C 135.99 178.50 135.61 175.24 132.85 174.13 C 129.31 172.33 125.10 173.84 122.16 176.09 M 133.08 195.24 C 130.79 196.88 129.07 199.84 126.02 200.09 C 123.42 199.73 120.85 198.75 118.91 196.95 C 118.28 197.22 117.66 197.50 117.04 197.77 C 116.69 199.31 116.34 200.85 116.01 202.40 C 118.43 207.97 124.81 209.35 129.45 212.42 C 131.15 213.39 131.73 215.45 133.16 216.69 C 136.41 218.07 139.55 220.34 143.27 219.60 C 144.05 217.76 145.21 216.13 146.53 214.64 C 144.13 210.75 140.83 207.48 138.66 203.44 C 137.12 200.49 134.77 198.09 133.08 195.24 Z" />
<path fill="#333333" opacity="1.00" d=" M 85.58 53.51 C 86.03 53.11 86.48 52.71 86.93 52.31 C 87.86 54.42 89.91 56.38 89.46 58.85 C 89.24 60.08 88.23 62.16 86.80 60.78 C 87.56 58.19 87.15 55.72 85.58 53.51 Z" />
<path fill="#333333" opacity="1.00" d=" M 68.29 60.97 C 70.55 61.95 72.74 63.12 75.10 63.85 C 78.61 64.08 82.08 63.09 85.60 63.43 C 82.52 64.71 79.26 65.70 75.93 66.01 C 73.33 65.49 70.99 64.15 68.55 63.17 C 68.48 62.62 68.36 61.52 68.29 60.97 Z" />
<path fill="#333333" opacity="1.00" d=" M 89.49 61.79 C 94.12 63.33 96.48 68.10 97.39 72.57 C 97.28 74.82 97.22 77.06 97.86 79.25 C 97.10 78.22 96.33 77.18 95.56 76.16 C 95.78 75.36 96.24 73.76 96.46 72.96 C 94.66 68.90 92.54 65.05 89.49 61.79 Z" />
<path fill="#333333" opacity="1.00" d=" M 69.62 71.27 C 71.17 69.04 72.66 66.39 75.68 66.07 C 75.00 67.37 74.35 68.69 73.74 70.03 C 75.82 74.48 77.55 79.32 81.29 82.72 C 83.45 84.97 86.77 85.61 88.70 88.13 C 85.30 88.34 81.46 87.21 79.57 84.18 C 77.94 81.95 75.65 80.34 73.79 78.32 C 73.01 76.30 72.68 74.13 71.96 72.07 C 69.65 74.33 68.52 77.40 69.27 80.62 C 68.51 81.34 67.76 82.06 67.01 82.80 C 66.84 80.85 66.62 78.91 66.34 76.98 C 62.79 78.54 59.21 80.13 55.36 80.79 C 55.48 88.35 53.14 95.55 52.52 103.03 C 52.56 105.43 53.53 107.70 54.32 109.94 C 55.85 107.25 57.97 104.77 61.32 104.70 C 62.03 102.96 62.80 101.23 63.68 99.57 C 64.59 100.06 65.51 100.57 66.42 101.08 C 64.31 95.56 66.22 89.56 66.99 83.93 C 67.84 83.31 68.70 82.69 69.56 82.09 C 69.32 88.95 66.62 95.81 68.43 102.71 C 71.59 104.88 75.09 106.48 78.37 108.48 C 82.26 110.69 86.83 109.60 91.06 110.19 C 96.28 110.52 101.75 112.79 106.68 110.00 C 107.26 107.85 108.05 105.76 109.46 104.01 C 106.41 103.94 102.95 104.72 100.28 102.83 C 96.63 100.57 91.89 98.71 91.05 93.93 C 93.23 94.30 93.90 96.50 95.20 97.95 C 100.70 101.22 107.23 102.30 113.56 101.92 C 112.10 104.26 110.36 106.39 108.66 108.55 L 111.00 108.26 L 112.96 108.91 C 111.92 109.65 110.80 110.24 109.66 110.80 L 110.00 111.23 C 106.98 111.67 104.11 112.92 101.06 113.10 C 97.03 112.71 93.04 111.78 88.97 111.83 C 84.95 111.68 80.51 112.41 77.03 109.88 C 73.29 106.93 68.67 105.27 65.21 101.96 C 64.17 103.58 63.13 105.20 62.30 106.93 C 61.20 107.23 60.10 107.52 59.00 107.81 C 57.82 109.21 56.66 110.62 55.52 112.06 C 58.71 113.34 61.95 114.51 65.12 115.85 C 66.05 117.88 66.60 120.07 67.54 122.10 C 67.03 122.27 66.52 122.44 66.01 122.61 C 65.25 120.70 64.41 118.82 63.63 116.92 C 60.85 115.88 58.02 114.96 55.12 114.30 C 53.17 110.02 49.49 105.97 50.59 100.91 C 51.73 96.92 52.24 92.79 53.32 88.78 C 53.15 86.04 53.80 83.35 54.77 80.80 C 52.62 79.90 50.93 78.32 49.50 76.51 C 52.23 77.30 55.05 78.48 57.91 77.52 C 62.63 77.32 65.90 73.66 69.62 71.27 Z" />
<path fill="#333333" opacity="1.00" d=" M 97.99 80.99 C 100.17 80.10 102.52 79.36 104.90 79.46 C 107.18 80.12 108.94 81.87 110.89 83.14 C 107.67 83.36 104.98 80.06 101.84 81.62 C 96.37 82.44 92.82 87.07 90.33 91.61 C 89.86 86.55 94.28 83.47 97.99 80.99 Z" />
<path fill="#333333" opacity="1.00" d=" M 117.56 85.65 C 118.57 86.88 119.47 88.19 120.34 89.54 C 122.53 86.84 126.13 86.20 129.40 85.96 C 126.55 87.34 123.74 88.81 121.31 90.88 C 121.72 91.40 122.54 92.46 122.95 92.99 C 120.72 92.48 119.27 90.64 117.65 89.19 C 117.60 88.01 117.58 86.83 117.56 85.65 Z" />
<path fill="#333333" opacity="1.00" d=" M 71.37 93.57 C 74.35 91.75 77.41 90.06 80.73 88.96 C 81.75 89.66 82.79 90.34 83.85 90.99 C 80.10 90.37 77.37 93.14 73.96 93.98 C 73.15 95.74 72.41 97.53 71.60 99.28 C 71.48 97.38 71.41 95.47 71.37 93.57 Z" />
<path fill="#333333" opacity="1.00" d=" M 86.33 92.74 C 86.12 95.75 84.42 98.37 83.36 101.13 C 82.17 103.68 81.72 106.50 80.49 109.04 C 76.76 106.68 81.64 103.18 81.00 99.94 C 81.39 99.62 82.16 98.98 82.55 98.66 C 83.54 96.53 84.81 94.53 86.33 92.74 Z" />
<path fill="#333333" opacity="1.00" d=" M 69.53 111.29 C 69.44 111.14 69.26 110.83 69.16 110.68 C 74.51 111.81 79.82 113.12 85.01 114.83 C 87.66 115.85 90.49 115.47 93.25 115.33 L 93.42 116.97 C 91.78 117.22 90.14 117.51 88.51 117.86 C 85.20 116.97 81.93 115.92 78.60 115.13 C 78.21 115.57 77.43 116.47 77.04 116.92 C 74.48 115.12 72.07 113.12 69.53 111.29 Z" />
<path fill="#333333" opacity="1.00" d=" M 102.03 116.17 C 104.62 114.87 107.72 114.98 110.39 115.99 C 105.18 116.46 100.47 118.53 95.74 120.57 C 96.92 118.06 99.71 117.25 102.03 116.17 Z" />
<path fill="#333333" opacity="1.00" d=" M 50.14 124.93 C 53.88 124.16 56.73 121.19 60.61 121.11 C 59.03 122.89 56.95 124.10 55.17 125.64 C 53.46 125.63 51.78 125.39 50.14 124.93 Z" />
<path fill="#333333" opacity="1.00" d=" M 48.81 137.54 C 49.66 137.46 50.52 137.37 51.37 137.29 C 50.42 139.85 49.94 142.54 49.99 145.28 C 49.56 145.35 48.70 145.48 48.28 145.55 C 47.91 142.86 48.21 140.17 48.81 137.54 Z" />
<path fill="#333333" opacity="1.00" d=" M 136.82 149.33 C 138.17 146.25 137.39 142.62 139.18 139.73 C 139.82 141.74 140.06 143.84 140.19 145.94 C 139.02 147.03 137.91 148.17 136.82 149.33 Z" />
<path fill="#333333" opacity="1.00" d=" M 44.16 162.07 C 44.15 156.91 43.73 151.38 46.55 146.79 C 46.89 147.64 47.23 148.48 47.57 149.33 C 46.36 154.13 44.94 159.03 45.84 164.02 C 45.51 168.44 45.50 172.85 46.01 177.26 C 43.99 172.45 44.26 167.17 44.16 162.07 Z" />
<path fill="#333333" opacity="1.00" d=" M 99.41 174.92 C 99.65 171.24 103.22 168.94 106.40 167.84 C 104.46 170.87 101.13 173.26 100.73 177.06 C 100.45 179.33 100.54 181.63 100.25 183.90 C 98.68 181.18 99.15 177.91 99.41 174.92 Z" />
<path fill="#333333" opacity="1.00" d=" M 129.51 177.28 C 130.13 177.36 131.35 177.53 131.97 177.62 C 129.99 179.80 128.04 182.00 126.25 184.33 C 124.58 186.57 124.60 189.49 124.04 192.11 C 122.85 189.16 123.13 185.88 123.96 182.87 C 124.91 180.27 127.47 178.91 129.51 177.28 Z" />
<path fill="#333333" opacity="1.00" d=" M 45.81 190.60 C 45.43 188.19 47.09 186.78 48.85 185.57 C 50.72 187.72 52.35 190.30 52.33 193.25 C 50.95 191.81 49.84 190.16 48.81 188.46 C 48.06 188.99 46.56 190.06 45.81 190.60 Z" />
<path fill="#333333" opacity="1.00" d=" M 58.49 190.42 C 65.88 195.58 75.22 196.55 83.99 196.37 C 87.88 196.19 91.75 195.56 95.66 195.80 C 89.04 200.31 80.71 199.66 73.10 199.46 C 67.93 199.43 63.13 197.17 58.82 194.50 C 58.71 193.14 58.61 191.78 58.49 190.42 Z" />
</g>
</svg>
