<?xml version="1.0" encoding="UTF-8" ?>
<!DOCTYPE svg PUBLIC "-//W3C//DTD SVG 1.1//EN" "http://www.w3.org/Graphics/SVG/1.1/DTD/svg11.dtd">
<svg width="180pt" height="250pt" viewBox="0 0 180 250" version="1.1" xmlns="http://www.w3.org/2000/svg">
<g id="#ffffffff">
<path fill="#FFFFFF" opacity="1.00" d=" M 0.00 0.00 L 180.00 0.00 L 180.00 250.00 L 0.00 250.00 L 0.00 0.00 M 109.39 32.45 C 107.22 33.87 106.58 36.32 106.50 38.78 L 107.91 38.41 C 110.27 32.88 116.07 28.78 122.08 28.22 C 125.97 28.67 128.92 31.92 131.18 34.88 C 132.56 36.57 131.21 39.69 133.77 40.51 C 133.91 40.92 134.21 41.74 134.35 42.15 C 133.22 41.97 130.95 41.61 129.82 41.44 C 127.37 43.09 125.46 45.36 123.63 47.65 C 123.23 50.77 122.43 53.90 123.06 57.05 C 123.54 58.73 123.10 60.60 121.55 61.55 C 118.74 63.44 119.47 67.30 118.65 70.20 C 121.85 74.13 119.04 80.16 122.78 83.72 C 123.18 82.58 123.80 81.35 123.33 80.11 C 121.58 76.95 123.17 72.92 120.34 70.20 C 120.80 67.96 121.30 65.74 121.69 63.49 C 122.25 63.37 123.36 63.12 123.92 63.00 C 123.85 63.83 123.73 65.50 123.66 66.34 C 125.54 68.17 127.64 69.75 129.50 71.60 C 128.82 76.49 127.45 81.24 127.51 86.22 C 123.21 89.66 117.82 91.29 112.52 92.51 C 111.07 91.40 110.05 89.80 109.49 88.08 C 108.52 79.68 109.25 71.06 112.27 63.12 C 112.33 58.52 111.57 53.84 113.47 49.46 C 116.43 49.27 119.38 49.35 122.34 49.28 C 122.59 48.84 123.08 47.95 123.33 47.51 C 119.84 47.64 116.35 47.49 112.86 47.49 C 112.35 47.85 111.32 48.57 110.81 48.93 C 110.37 50.77 109.52 52.57 109.49 54.48 C 110.92 58.04 111.20 62.34 109.52 65.87 C 108.93 67.48 107.82 69.36 109.23 70.89 C 108.15 71.57 107.15 72.46 105.84 72.63 C 105.63 74.00 105.06 75.20 104.12 76.25 C 103.92 75.69 103.51 74.58 103.31 74.02 C 103.67 75.71 103.96 77.42 104.21 79.14 C 103.55 80.35 102.38 82.25 104.06 83.25 C 104.53 80.37 105.55 77.62 106.57 74.90 C 106.80 78.96 106.79 83.05 107.35 87.09 C 107.64 90.06 109.81 92.32 111.66 94.48 C 114.54 94.09 117.61 94.20 120.23 92.68 C 119.22 104.76 119.93 116.94 120.12 129.02 C 117.67 131.69 113.99 132.88 111.01 134.91 C 101.51 140.09 92.43 146.16 82.70 150.87 C 83.05 145.44 80.48 140.39 80.47 135.00 C 80.38 132.75 82.13 131.14 83.41 129.52 C 85.72 128.73 88.04 127.94 90.35 127.14 C 91.27 129.40 88.97 129.37 88.07 130.54 C 91.90 130.69 93.80 126.46 97.17 125.26 C 102.01 123.39 107.74 119.91 107.65 114.03 C 107.46 111.42 110.45 107.95 106.61 106.84 C 108.19 103.50 109.77 100.09 112.26 97.31 C 113.38 96.62 112.84 94.81 111.49 95.14 C 109.76 96.96 108.46 99.14 107.14 101.27 C 105.97 99.05 104.54 96.97 102.80 95.15 C 101.33 93.28 98.75 92.70 97.58 90.55 C 99.91 88.38 102.83 87.08 105.37 85.23 L 105.04 83.76 C 101.50 83.76 98.09 87.09 97.21 90.56 C 92.55 87.90 86.93 88.82 82.10 86.85 C 80.42 86.62 78.57 87.21 77.00 86.41 C 77.99 84.68 79.23 83.08 80.00 81.23 C 80.37 77.03 80.89 72.82 81.93 68.74 L 83.93 67.83 C 83.43 70.10 82.57 72.35 82.86 74.72 C 84.94 72.76 84.13 69.26 86.60 67.66 C 88.72 66.18 91.23 65.43 93.60 64.47 C 92.13 68.86 90.66 73.25 90.19 77.89 C 88.89 79.87 87.18 81.62 86.38 83.90 C 88.59 82.72 90.09 80.64 91.78 78.86 C 91.90 74.45 93.18 70.23 94.98 66.24 C 97.15 65.33 99.74 65.84 101.60 64.07 L 101.40 65.65 C 101.90 64.90 102.40 64.15 102.90 63.39 C 103.13 65.49 105.53 67.03 104.26 69.23 C 104.59 67.99 105.37 67.28 106.61 67.10 C 102.93 62.29 101.46 55.96 103.12 50.08 C 104.09 46.20 106.69 42.35 110.86 41.57 C 112.17 42.04 113.49 42.50 114.80 42.99 C 114.06 41.28 115.64 38.00 117.90 39.51 C 116.91 38.99 116.00 38.33 115.05 37.76 C 114.55 37.62 113.56 37.35 113.06 37.21 C 113.21 37.90 113.50 39.26 113.65 39.95 C 110.56 38.94 107.12 39.70 105.04 42.24 C 100.56 46.87 100.00 53.80 100.89 59.88 L 100.30 59.87 C 100.16 59.30 99.90 58.14 99.76 57.57 L 98.43 57.15 C 97.37 60.82 101.86 60.62 102.26 63.56 C 99.57 61.77 96.30 64.49 93.93 62.48 C 90.41 63.15 87.71 66.30 84.19 66.43 L 84.86 67.67 C 84.34 67.68 83.29 67.69 82.77 67.69 C 79.00 70.69 79.66 76.12 78.53 80.34 C 72.72 81.62 66.81 82.39 60.88 82.65 C 60.13 80.86 59.13 79.06 59.35 77.05 C 59.70 69.28 62.08 61.71 65.62 54.83 C 66.72 50.26 66.13 45.36 68.82 41.23 C 71.82 40.93 74.69 42.29 77.66 41.94 C 76.26 39.65 73.23 39.80 71.02 38.77 C 69.32 39.32 67.00 39.20 66.07 41.04 C 65.33 42.65 64.86 44.42 63.64 45.76 C 65.48 47.32 64.34 49.94 64.46 52.01 C 64.46 55.68 60.23 58.38 61.59 62.17 C 61.19 62.34 60.38 62.69 59.98 62.86 C 58.92 67.88 57.18 72.83 57.38 78.03 C 57.51 80.68 58.81 83.36 61.02 84.88 C 65.58 85.06 70.12 83.68 74.69 84.50 C 73.80 84.24 72.93 83.93 72.03 83.73 C 74.49 84.26 76.76 83.20 78.91 82.10 C 76.12 84.77 75.95 88.83 73.20 91.53 C 71.06 91.60 68.91 91.61 66.76 91.60 C 64.93 93.18 63.16 94.83 61.36 96.44 C 60.19 96.00 58.93 95.40 57.68 95.93 C 51.90 97.52 45.72 97.72 40.18 100.13 C 35.93 102.97 30.70 104.29 27.05 108.00 C 24.98 109.97 23.75 112.76 21.19 114.20 C 18.68 115.71 16.94 118.20 15.96 120.92 C 18.17 125.64 20.37 130.62 20.78 135.90 C 22.96 138.46 24.73 141.44 25.12 144.84 C 25.88 150.74 28.42 156.31 31.99 161.03 C 34.70 164.43 33.55 169.02 33.29 172.98 C 31.49 176.20 28.69 178.81 26.84 182.05 C 24.72 185.86 20.32 187.21 17.45 190.28 C 17.12 191.79 16.65 193.26 15.95 194.63 C 16.60 195.85 17.27 197.05 17.96 198.25 C 19.50 201.67 24.36 200.20 26.90 198.81 C 29.32 197.30 32.62 198.06 34.79 196.08 C 37.57 193.62 40.14 190.22 44.09 189.80 C 47.63 189.25 51.38 188.13 53.66 185.18 C 53.59 182.06 54.08 178.92 53.06 175.90 C 55.63 176.36 58.06 177.36 60.58 178.03 C 60.86 179.63 60.03 181.09 59.49 182.54 C 55.62 185.56 53.98 190.41 50.67 193.89 C 46.04 196.26 41.18 199.46 39.55 204.71 C 40.05 206.01 41.06 207.03 41.90 208.12 C 45.94 207.36 48.94 210.91 52.92 210.79 C 58.15 211.87 62.61 208.49 66.81 205.95 C 69.83 202.99 72.27 199.47 75.26 196.46 C 76.22 192.29 76.55 187.94 78.72 184.10 C 80.15 184.58 81.58 185.07 83.02 185.55 C 85.29 184.08 87.71 182.83 89.89 181.21 L 89.46 179.56 C 87.09 180.50 84.91 181.82 82.84 183.29 C 81.35 182.75 79.87 182.19 78.38 181.65 C 78.60 177.44 77.69 172.75 79.45 168.88 C 81.73 172.75 86.95 172.32 90.73 173.71 C 91.04 176.36 89.54 179.15 90.88 181.62 C 91.30 181.39 92.15 180.93 92.57 180.70 C 92.33 178.28 92.64 175.88 93.39 173.57 C 91.47 172.20 89.67 170.31 87.12 170.40 C 84.38 170.24 82.04 168.09 79.21 168.81 C 79.43 167.69 79.88 165.45 80.11 164.33 C 82.62 164.34 84.48 162.50 86.54 161.33 C 98.24 154.16 110.00 147.08 121.75 139.99 C 124.19 138.51 126.53 136.79 129.27 135.90 C 129.33 126.44 129.63 116.97 129.39 107.52 L 127.82 107.06 C 127.58 116.07 127.69 125.10 127.30 134.10 C 111.89 143.20 96.62 152.54 81.27 161.72 C 83.07 159.20 82.30 155.98 82.96 153.14 C 95.70 145.46 108.83 138.39 121.52 130.63 C 122.04 118.72 121.42 106.66 121.41 94.69 C 121.83 90.17 128.77 89.57 128.47 84.76 C 131.04 80.99 131.40 76.09 131.36 71.64 C 134.38 71.90 136.59 69.54 138.47 67.53 C 143.11 59.83 143.16 48.29 135.68 42.33 L 134.96 42.87 C 134.56 39.67 135.23 35.82 132.68 33.35 C 130.10 30.54 128.15 26.60 124.12 25.69 C 118.29 24.97 113.72 29.25 109.39 32.45 M 60.62 34.57 C 55.73 39.31 54.64 46.65 55.55 53.13 C 56.00 55.21 56.90 58.28 59.64 57.65 C 55.67 51.67 56.65 43.34 60.63 37.61 C 62.63 34.88 66.51 31.91 69.84 34.29 C 71.78 35.05 71.97 37.44 73.01 38.99 C 74.91 36.59 72.68 33.78 70.81 32.19 C 67.48 30.10 62.97 31.65 60.62 34.57 M 78.38 42.59 C 76.47 46.36 79.07 52.38 73.82 53.97 C 72.96 56.31 71.64 58.53 71.31 61.03 C 72.08 65.40 71.70 69.83 71.84 74.24 C 73.66 74.82 74.82 72.49 74.11 70.96 C 73.12 68.87 73.91 66.70 74.44 64.62 C 77.12 63.89 79.99 62.51 82.68 64.09 C 82.51 63.28 82.18 61.67 82.01 60.86 L 81.17 61.51 C 79.45 58.97 77.74 56.17 78.38 52.97 C 77.52 46.83 80.27 40.10 85.49 36.64 C 87.66 35.97 90.65 35.74 92.02 37.97 C 94.68 41.08 94.74 45.41 94.21 49.26 C 92.93 54.74 89.84 60.76 83.85 62.07 C 83.40 62.90 82.96 63.74 82.53 64.59 L 84.17 63.17 L 85.12 65.05 L 86.46 65.31 L 85.14 63.58 C 87.24 62.70 89.13 61.45 90.97 60.13 C 92.53 60.57 96.71 62.09 96.62 59.44 C 94.84 58.02 92.58 59.85 90.70 60.06 C 91.95 58.10 93.13 56.10 94.11 53.99 C 96.37 53.19 98.69 52.11 100.09 50.06 C 98.37 50.53 96.69 51.10 95.02 51.71 C 96.36 47.96 96.00 43.79 95.16 39.97 C 94.08 36.90 91.46 33.59 87.91 33.65 C 83.21 34.33 80.19 38.55 78.38 42.59 Z" />
<path fill="#FFFFFF" opacity="1.00" d=" M 127.83 45.77 C 129.65 43.53 133.15 42.73 135.52 44.61 C 137.62 46.55 139.34 49.14 139.58 52.06 C 140.21 57.25 139.95 63.18 136.29 67.27 C 134.70 69.22 132.18 69.84 129.91 70.62 C 128.36 68.92 126.67 67.26 125.58 65.21 C 124.23 63.00 124.97 60.29 123.94 57.96 C 123.90 53.71 124.94 49.04 127.83 45.77 Z" />
<path fill="#FFFFFF" opacity="1.00" d=" M 73.01 62.82 C 73.46 59.55 73.82 55.23 77.51 54.02 C 76.22 56.81 77.16 60.31 80.27 61.33 C 77.87 61.90 75.48 62.62 73.01 62.82 Z" />
<path fill="#FFFFFF" opacity="1.00" d=" M 75.39 89.45 C 81.50 88.34 87.60 89.61 93.48 91.34 C 96.28 93.62 99.71 95.09 102.21 97.73 C 103.78 99.82 104.69 102.43 107.04 103.84 C 106.50 104.87 105.99 105.92 105.54 106.99 C 105.79 107.97 106.04 108.96 106.29 109.94 C 103.98 113.52 105.09 118.57 101.36 121.30 C 98.42 123.04 95.30 124.49 92.72 126.77 C 91.37 121.19 90.16 115.29 86.53 110.63 C 84.67 108.05 81.39 107.43 78.64 106.26 C 77.18 108.64 80.76 108.89 82.12 109.89 C 86.92 113.75 88.65 120.10 90.23 125.79 C 86.26 125.62 80.44 126.21 79.43 130.94 C 78.88 132.56 78.22 134.21 78.45 135.96 C 79.30 142.30 81.60 148.62 80.54 155.08 C 80.05 160.20 77.44 164.83 77.05 169.97 C 76.09 175.57 77.54 181.42 75.57 186.86 C 74.98 189.62 72.06 191.11 71.67 193.99 L 74.55 193.25 C 70.36 197.31 67.80 202.84 63.18 206.43 C 59.03 205.37 55.14 208.92 51.05 207.37 C 48.51 206.24 45.86 205.41 43.05 205.35 C 42.62 204.78 41.75 203.64 41.32 203.07 C 44.30 201.39 45.94 197.83 49.37 196.98 C 53.13 195.80 55.45 192.37 57.42 189.17 C 59.86 185.13 63.78 182.32 66.62 178.60 C 65.69 178.75 63.84 179.06 62.92 179.21 C 64.48 175.19 65.37 170.89 67.33 167.03 C 67.90 163.37 67.62 159.61 68.60 156.02 C 70.19 151.09 67.17 146.35 67.66 141.36 C 67.34 141.26 66.71 141.08 66.39 140.98 C 66.38 147.18 65.99 153.45 67.42 159.54 C 62.56 154.96 64.29 147.91 64.39 142.01 C 64.69 139.27 63.35 136.77 63.16 134.08 C 62.99 130.60 60.84 127.50 61.12 123.96 C 60.93 121.60 62.64 119.78 63.85 117.96 C 66.27 114.65 68.50 110.49 72.90 109.63 C 75.08 109.23 76.47 107.51 77.76 105.86 C 75.78 106.11 70.89 103.65 71.05 107.52 C 71.80 107.47 73.29 107.37 74.04 107.32 C 70.12 108.07 66.19 109.71 63.99 113.24 C 61.88 116.85 58.78 120.46 59.37 124.92 C 59.42 128.05 60.83 130.94 61.69 133.90 C 60.62 133.14 59.51 132.47 58.35 131.88 C 53.75 131.60 49.07 131.55 44.59 130.35 C 44.57 129.46 44.55 127.69 44.54 126.80 C 48.77 125.83 52.10 122.93 55.89 120.99 C 57.92 118.54 60.28 115.38 59.47 112.00 C 58.84 109.63 58.05 107.27 56.90 105.09 C 54.09 101.43 49.33 100.71 45.32 99.03 C 49.73 98.47 54.17 98.86 58.55 98.15 C 62.59 98.95 65.98 96.39 68.47 93.51 C 70.86 93.55 73.32 93.67 75.53 92.57 C 75.49 91.79 75.43 90.23 75.39 89.45 M 71.08 126.92 C 69.13 129.11 68.31 131.80 68.77 134.72 C 69.11 134.61 69.81 134.40 70.15 134.30 C 70.51 131.53 72.17 129.18 72.67 126.47 C 72.28 126.58 71.48 126.81 71.08 126.92 M 67.64 178.43 C 67.73 181.06 69.35 183.44 68.73 186.25 C 69.16 186.35 70.02 186.55 70.46 186.65 C 71.01 183.60 71.09 179.76 67.64 178.43 M 49.66 204.06 C 50.31 203.80 51.60 203.29 52.25 203.03 C 55.81 204.37 59.46 202.39 63.14 202.99 C 62.44 198.86 57.75 202.26 55.12 201.34 C 53.01 200.65 49.69 201.35 49.66 204.06 Z" />
<path fill="#FFFFFF" opacity="1.00" d=" M 42.07 102.49 C 42.40 101.33 43.20 100.42 43.90 99.48 C 45.91 101.66 49.25 101.66 51.43 103.63 C 54.21 105.62 55.27 109.06 56.49 112.09 C 57.13 114.87 57.08 118.91 53.87 120.05 C 51.41 121.20 49.38 123.09 46.90 124.16 C 43.77 124.58 40.70 125.38 37.98 127.03 C 37.20 128.69 35.67 130.40 36.53 132.35 C 38.27 138.07 40.09 143.80 42.64 149.22 C 43.04 152.17 42.72 155.20 42.51 158.17 C 44.79 159.13 43.89 161.99 44.55 163.92 C 46.54 168.95 50.53 173.19 51.10 178.75 C 51.61 180.99 50.88 183.61 48.93 184.95 C 46.27 186.96 42.63 186.64 39.84 188.39 C 36.53 190.01 34.40 193.15 31.43 195.21 C 29.66 195.68 27.78 195.52 25.98 195.79 C 23.95 195.93 22.51 198.41 20.36 197.59 C 19.01 197.25 18.61 195.64 17.70 194.75 C 18.48 193.44 19.05 192.02 19.67 190.64 C 22.30 188.19 26.28 187.21 28.00 183.83 C 29.75 180.44 32.35 177.65 34.64 174.64 C 36.84 171.48 34.80 167.50 35.97 164.08 C 32.77 157.15 28.80 150.50 27.06 142.99 C 26.53 139.70 24.66 136.93 22.80 134.26 C 22.88 129.16 19.38 125.02 18.77 120.05 C 18.91 118.11 20.79 117.23 22.15 116.23 C 25.31 114.35 26.56 110.54 29.56 108.44 C 33.35 105.75 37.74 104.10 42.07 102.49 M 27.62 117.60 C 27.63 118.01 27.63 118.82 27.63 119.22 C 30.23 121.36 34.20 122.31 37.03 120.06 C 38.49 119.49 37.63 118.18 37.15 117.27 C 34.87 119.22 31.09 121.01 29.16 117.60 C 28.78 117.60 28.01 117.60 27.62 117.60 M 26.48 129.57 C 28.49 130.40 30.07 133.21 32.50 132.07 C 31.30 130.67 30.07 129.30 28.87 127.90 C 29.24 126.64 29.58 125.33 29.02 124.07 C 27.41 125.48 26.80 127.51 26.48 129.57 M 44.35 172.06 C 44.73 175.37 44.26 178.66 42.77 181.66 C 41.71 182.54 40.79 183.57 40.01 184.70 C 41.84 184.59 43.58 184.02 45.19 183.17 C 45.14 182.38 45.04 180.80 44.99 180.01 C 46.92 178.05 47.34 175.28 46.05 172.83 C 45.87 172.01 44.46 170.13 44.35 172.06 M 36.23 176.04 C 35.08 179.09 32.42 181.60 32.19 184.94 C 35.23 181.95 37.17 177.91 38.93 174.08 C 37.76 174.35 36.51 174.68 36.23 176.04 Z" />
<path fill="#FFFFFF" opacity="1.00" d=" M 37.45 129.12 C 38.25 128.70 39.86 127.87 40.67 127.46 C 40.69 128.11 40.74 129.41 40.76 130.05 C 42.46 132.46 45.24 133.19 48.05 133.17 C 52.81 133.17 57.04 135.46 61.51 136.72 C 62.82 140.75 61.44 144.88 61.44 148.97 C 61.44 152.90 61.72 156.92 63.25 160.58 C 64.30 165.80 63.37 171.21 61.47 176.13 C 60.67 175.52 59.80 175.00 58.95 174.46 C 56.70 174.41 54.45 174.27 52.25 173.78 C 51.13 170.80 49.05 168.33 47.70 165.48 C 46.34 160.27 45.38 154.97 45.26 149.59 C 42.62 142.79 39.95 135.98 37.45 129.12 M 57.49 136.78 C 56.82 138.49 57.64 140.27 57.75 142.01 C 57.64 148.54 57.55 155.08 57.41 161.63 C 53.79 161.73 50.14 158.29 46.81 160.86 C 50.61 162.86 54.85 163.94 59.16 163.61 C 59.28 158.40 59.73 153.19 59.56 147.98 C 59.63 144.19 60.54 139.72 57.49 136.78 Z" />
</g>
<g id="#272827ff">
<path fill="#333333" opacity="1.00" d=" M 109.39 32.45 C 113.72 29.25 118.29 24.97 124.12 25.69 C 128.15 26.60 130.10 30.54 132.68 33.35 C 135.23 35.82 134.56 39.67 134.96 42.87 L 135.68 42.33 C 143.16 48.29 143.11 59.83 138.47 67.53 C 136.59 69.54 134.38 71.90 131.36 71.64 C 131.40 76.09 131.04 80.99 128.47 84.76 C 128.77 89.57 121.83 90.17 121.41 94.69 C 121.42 106.66 122.04 118.72 121.52 130.63 C 108.83 138.39 95.70 145.46 82.96 153.14 C 82.30 155.98 83.07 159.20 81.27 161.72 C 96.62 152.54 111.89 143.20 127.30 134.10 C 127.69 125.10 127.58 116.07 127.82 107.06 L 129.39 107.52 C 129.63 116.97 129.33 126.44 129.27 135.90 C 126.53 136.79 124.19 138.51 121.75 139.99 C 110.00 147.08 98.24 154.16 86.54 161.33 C 84.48 162.50 82.62 164.34 80.11 164.33 C 79.88 165.45 79.43 167.69 79.21 168.81 C 82.04 168.09 84.38 170.24 87.12 170.40 C 89.67 170.31 91.47 172.20 93.39 173.57 C 92.64 175.88 92.33 178.28 92.57 180.70 C 92.15 180.93 91.30 181.39 90.88 181.62 C 89.54 179.15 91.04 176.36 90.73 173.71 C 86.95 172.32 81.73 172.75 79.45 168.88 C 77.69 172.75 78.60 177.44 78.38 181.65 C 79.87 182.19 81.35 182.75 82.84 183.29 C 84.91 181.82 87.09 180.50 89.46 179.56 L 89.89 181.21 C 87.71 182.83 85.29 184.08 83.02 185.55 C 81.58 185.07 80.15 184.58 78.72 184.10 C 76.55 187.94 76.22 192.29 75.26 196.46 C 72.27 199.47 69.83 202.99 66.81 205.95 C 62.61 208.49 58.15 211.87 52.92 210.79 C 48.94 210.91 45.94 207.36 41.90 208.12 C 41.06 207.03 40.05 206.01 39.55 204.71 C 41.18 199.46 46.04 196.26 50.67 193.89 C 53.98 190.41 55.62 185.56 59.49 182.54 C 60.03 181.09 60.86 179.63 60.58 178.03 C 58.06 177.36 55.63 176.36 53.06 175.90 C 54.08 178.92 53.59 182.06 53.66 185.18 C 51.38 188.13 47.63 189.25 44.09 189.80 C 40.14 190.22 37.57 193.62 34.79 196.08 C 32.62 198.06 29.32 197.30 26.90 198.81 C 24.36 200.20 19.50 201.67 17.96 198.25 C 17.27 197.05 16.60 195.85 15.95 194.63 C 16.65 193.26 17.12 191.79 17.45 190.28 C 20.32 187.21 24.72 185.86 26.84 182.05 C 28.69 178.81 31.49 176.20 33.29 172.98 C 33.55 169.02 34.70 164.43 31.99 161.03 C 28.42 156.31 25.88 150.74 25.12 144.84 C 24.73 141.44 22.96 138.46 20.78 135.90 C 20.37 130.62 18.17 125.64 15.96 120.92 C 16.94 118.20 18.68 115.71 21.19 114.20 C 23.75 112.76 24.98 109.97 27.05 108.00 C 30.70 104.29 35.93 102.97 40.18 100.13 C 45.72 97.72 51.90 97.52 57.68 95.93 C 58.93 95.40 60.19 96.00 61.36 96.44 C 63.16 94.83 64.93 93.18 66.76 91.60 C 68.91 91.61 71.06 91.60 73.20 91.53 C 75.95 88.83 76.12 84.77 78.91 82.10 C 76.76 83.20 74.49 84.26 72.03 83.73 C 72.93 83.93 73.80 84.24 74.69 84.50 C 70.12 83.68 65.58 85.06 61.02 84.88 C 58.81 83.36 57.51 80.68 57.38 78.03 C 57.18 72.83 58.92 67.88 59.98 62.86 C 60.38 62.69 61.19 62.34 61.59 62.17 C 60.23 58.38 64.46 55.68 64.46 52.01 C 64.34 49.94 65.48 47.32 63.64 45.76 C 64.86 44.42 65.33 42.65 66.07 41.04 C 67.00 39.20 69.32 39.32 71.02 38.77 C 73.23 39.80 76.26 39.65 77.66 41.94 C 74.69 42.29 71.82 40.93 68.82 41.23 C 66.13 45.36 66.72 50.26 65.62 54.83 C 62.08 61.71 59.70 69.28 59.35 77.05 C 59.13 79.06 60.13 80.86 60.88 82.65 C 66.81 82.39 72.72 81.62 78.53 80.34 C 79.66 76.12 79.00 70.69 82.77 67.69 C 83.29 67.69 84.34 67.68 84.86 67.67 L 84.19 66.43 C 87.71 66.30 90.41 63.15 93.93 62.48 C 96.30 64.49 99.57 61.77 102.26 63.56 C 101.86 60.62 97.37 60.82 98.43 57.15 L 99.76 57.57 C 99.90 58.14 100.16 59.30 100.30 59.87 L 100.89 59.88 C 100.00 53.80 100.56 46.87 105.04 42.24 C 107.12 39.70 110.56 38.94 113.65 39.95 C 113.50 39.26 113.21 37.90 113.06 37.21 C 113.56 37.35 114.55 37.62 115.05 37.76 C 116.00 38.33 116.91 38.99 117.90 39.51 C 115.64 38.00 114.06 41.28 114.80 42.99 C 113.49 42.50 112.17 42.04 110.86 41.57 C 106.69 42.35 104.09 46.20 103.12 50.08 C 101.46 55.96 102.93 62.29 106.61 67.10 C 105.37 67.28 104.59 67.99 104.26 69.23 C 105.53 67.03 103.13 65.49 102.90 63.39 C 102.40 64.15 101.90 64.90 101.40 65.65 L 101.60 64.07 C 99.74 65.84 97.15 65.33 94.98 66.24 C 93.18 70.23 91.90 74.45 91.78 78.86 C 90.09 80.64 88.59 82.72 86.38 83.90 C 87.18 81.62 88.89 79.87 90.19 77.89 C 90.66 73.25 92.13 68.86 93.60 64.47 C 91.23 65.43 88.72 66.18 86.60 67.66 C 84.13 69.26 84.94 72.76 82.86 74.72 C 82.57 72.35 83.43 70.10 83.93 67.83 L 81.93 68.74 C 80.89 72.82 80.37 77.03 80.00 81.23 C 79.23 83.08 77.99 84.68 77.00 86.41 C 78.57 87.21 80.42 86.62 82.10 86.85 C 86.93 88.82 92.55 87.90 97.21 90.56 C 98.09 87.09 101.50 83.76 105.04 83.76 L 105.37 85.23 C 102.83 87.08 99.91 88.38 97.58 90.55 C 98.75 92.70 101.33 93.28 102.80 95.15 C 104.54 96.97 105.97 99.05 107.14 101.27 C 108.46 99.14 109.76 96.96 111.49 95.14 C 112.84 94.81 113.38 96.62 112.26 97.31 C 109.77 100.09 108.19 103.50 106.61 106.84 C 110.45 107.95 107.46 111.42 107.65 114.03 C 107.74 119.91 102.01 123.39 97.17 125.26 C 93.80 126.46 91.90 130.69 88.07 130.54 C 88.97 129.37 91.27 129.40 90.35 127.14 C 88.04 127.94 85.72 128.73 83.41 129.52 C 82.13 131.14 80.38 132.75 80.47 135.00 C 80.48 140.39 83.05 145.44 82.70 150.87 C 92.43 146.16 101.51 140.09 111.01 134.91 C 113.99 132.88 117.67 131.69 120.12 129.02 C 119.93 116.94 119.22 104.76 120.23 92.68 C 117.61 94.20 114.54 94.09 111.66 94.48 C 109.81 92.32 107.64 90.06 107.35 87.09 C 106.79 83.05 106.80 78.96 106.57 74.90 C 105.55 77.62 104.53 80.37 104.06 83.25 C 102.38 82.25 103.55 80.35 104.21 79.14 C 103.96 77.42 103.67 75.71 103.31 74.02 C 103.51 74.58 103.92 75.69 104.12 76.25 C 105.06 75.20 105.63 74.00 105.84 72.63 C 107.15 72.46 108.15 71.57 109.23 70.89 C 107.82 69.36 108.93 67.48 109.52 65.87 C 111.20 62.34 110.92 58.04 109.49 54.48 C 109.52 52.57 110.37 50.77 110.81 48.93 C 111.32 48.57 112.35 47.85 112.86 47.49 C 116.35 47.49 119.84 47.64 123.33 47.51 C 123.08 47.95 122.59 48.84 122.34 49.28 C 119.38 49.35 116.43 49.27 113.47 49.46 C 111.57 53.84 112.33 58.52 112.27 63.12 C 109.25 71.06 108.52 79.68 109.49 88.08 C 110.05 89.80 111.07 91.40 112.52 92.51 C 117.82 91.29 123.21 89.66 127.51 86.22 C 127.45 81.24 128.82 76.49 129.50 71.60 C 127.64 69.75 125.54 68.17 123.66 66.34 C 123.73 65.50 123.85 63.83 123.92 63.00 C 123.36 63.12 122.25 63.37 121.69 63.49 C 121.30 65.74 120.80 67.96 120.34 70.20 C 123.17 72.92 121.58 76.95 123.33 80.11 C 123.80 81.35 123.18 82.58 122.78 83.72 C 119.04 80.16 121.85 74.13 118.65 70.20 C 119.47 67.30 118.74 63.44 121.55 61.55 C 123.10 60.60 123.54 58.73 123.06 57.05 C 122.43 53.90 123.23 50.77 123.63 47.65 C 125.46 45.36 127.37 43.09 129.82 41.44 C 130.95 41.61 133.22 41.97 134.35 42.15 C 134.21 41.74 133.91 40.92 133.77 40.51 C 131.21 39.69 132.56 36.57 131.18 34.88 C 128.92 31.92 125.97 28.67 122.08 28.22 C 116.07 28.78 110.27 32.88 107.91 38.41 L 106.50 38.78 C 106.58 36.32 107.22 33.87 109.39 32.45 M 127.83 45.77 C 124.94 49.04 123.90 53.71 123.94 57.96 C 124.97 60.29 124.23 63.00 125.58 65.21 C 126.67 67.26 128.36 68.92 129.91 70.62 C 132.18 69.84 134.70 69.22 136.29 67.27 C 139.95 63.18 140.21 57.25 139.58 52.06 C 139.34 49.14 137.62 46.55 135.52 44.61 C 133.15 42.73 129.65 43.53 127.83 45.77 M 75.39 89.45 C 75.43 90.23 75.49 91.79 75.53 92.57 C 73.32 93.67 70.86 93.55 68.47 93.51 C 65.98 96.39 62.59 98.95 58.55 98.15 C 54.17 98.86 49.73 98.47 45.32 99.03 C 49.33 100.71 54.09 101.43 56.90 105.09 C 58.05 107.27 58.84 109.63 59.47 112.00 C 60.28 115.38 57.92 118.54 55.89 120.99 C 52.10 122.93 48.77 125.83 44.54 126.80 C 44.55 127.69 44.57 129.46 44.59 130.35 C 49.07 131.55 53.75 131.60 58.35 131.88 C 59.51 132.47 60.62 133.14 61.69 133.90 C 60.83 130.94 59.42 128.05 59.37 124.92 C 58.78 120.46 61.88 116.85 63.99 113.24 C 66.19 109.71 70.12 108.07 74.04 107.32 C 73.29 107.37 71.80 107.47 71.05 107.52 C 70.89 103.65 75.78 106.11 77.76 105.86 C 76.47 107.51 75.08 109.23 72.90 109.63 C 68.50 110.49 66.27 114.65 63.85 117.96 C 62.64 119.78 60.93 121.60 61.12 123.96 C 60.84 127.50 62.99 130.60 63.16 134.08 C 63.35 136.77 64.69 139.27 64.39 142.01 C 64.29 147.91 62.56 154.96 67.42 159.54 C 65.99 153.45 66.38 147.18 66.39 140.98 C 66.71 141.08 67.34 141.26 67.66 141.36 C 67.17 146.35 70.19 151.09 68.60 156.02 C 67.62 159.61 67.90 163.37 67.33 167.03 C 65.37 170.89 64.48 175.19 62.92 179.21 C 63.84 179.06 65.69 178.75 66.62 178.60 C 63.78 182.32 59.86 185.13 57.42 189.17 C 55.45 192.37 53.13 195.80 49.37 196.98 C 45.94 197.83 44.30 201.39 41.32 203.07 C 41.75 203.64 42.62 204.78 43.05 205.35 C 45.86 205.41 48.51 206.24 51.05 207.37 C 55.14 208.92 59.03 205.37 63.18 206.43 C 67.80 202.84 70.36 197.31 74.55 193.25 L 71.67 193.99 C 72.06 191.11 74.98 189.62 75.57 186.86 C 77.54 181.42 76.09 175.57 77.05 169.97 C 77.44 164.83 80.05 160.20 80.54 155.08 C 81.60 148.62 79.30 142.30 78.45 135.96 C 78.22 134.21 78.88 132.56 79.43 130.94 C 80.44 126.21 86.26 125.62 90.23 125.79 C 88.65 120.10 86.92 113.75 82.12 109.89 C 80.76 108.89 77.18 108.64 78.64 106.26 C 81.39 107.43 84.67 108.05 86.53 110.63 C 90.16 115.29 91.37 121.19 92.72 126.77 C 95.30 124.49 98.42 123.04 101.36 121.30 C 105.09 118.57 103.98 113.52 106.29 109.94 C 106.04 108.96 105.79 107.97 105.54 106.99 C 105.99 105.92 106.50 104.87 107.04 103.84 C 104.69 102.43 103.78 99.82 102.21 97.73 C 99.71 95.09 96.28 93.62 93.48 91.34 C 87.60 89.61 81.50 88.34 75.39 89.45 M 42.07 102.49 C 37.74 104.10 33.35 105.75 29.56 108.44 C 26.56 110.54 25.31 114.35 22.15 116.23 C 20.79 117.23 18.91 118.11 18.77 120.05 C 19.38 125.02 22.88 129.16 22.80 134.26 C 24.66 136.93 26.53 139.70 27.06 142.99 C 28.80 150.50 32.77 157.15 35.97 164.08 C 34.80 167.50 36.84 171.48 34.64 174.64 C 32.35 177.65 29.75 180.44 28.00 183.83 C 26.28 187.21 22.30 188.19 19.67 190.64 C 19.05 192.02 18.48 193.44 17.70 194.75 C 18.61 195.64 19.01 197.25 20.36 197.59 C 22.51 198.41 23.95 195.93 25.98 195.79 C 27.78 195.52 29.66 195.68 31.43 195.21 C 34.40 193.15 36.53 190.01 39.84 188.39 C 42.63 186.64 46.27 186.96 48.93 184.95 C 50.88 183.61 51.61 180.99 51.10 178.75 C 50.53 173.19 46.54 168.95 44.55 163.92 C 43.89 161.99 44.79 159.13 42.51 158.17 C 42.72 155.20 43.04 152.17 42.64 149.22 C 40.09 143.80 38.27 138.07 36.53 132.35 C 35.67 130.40 37.20 128.69 37.98 127.03 C 40.70 125.38 43.77 124.58 46.90 124.16 C 49.38 123.09 51.41 121.20 53.87 120.05 C 57.08 118.91 57.13 114.87 56.49 112.09 C 55.27 109.06 54.21 105.62 51.43 103.63 C 49.25 101.66 45.91 101.66 43.90 99.48 C 43.20 100.42 42.40 101.33 42.07 102.49 M 37.45 129.12 C 39.95 135.98 42.62 142.79 45.26 149.59 C 45.38 154.97 46.34 160.27 47.70 165.48 C 49.05 168.33 51.13 170.80 52.25 173.78 C 54.45 174.27 56.70 174.41 58.95 174.46 C 59.80 175.00 60.67 175.52 61.47 176.13 C 63.37 171.21 64.30 165.80 63.25 160.58 C 61.72 156.92 61.44 152.90 61.44 148.97 C 61.44 144.88 62.82 140.75 61.51 136.72 C 57.04 135.46 52.81 133.17 48.05 133.17 C 45.24 133.19 42.46 132.46 40.76 130.05 C 40.74 129.41 40.69 128.11 40.67 127.46 C 39.86 127.87 38.25 128.70 37.45 129.12 Z" />
<path fill="#333333" opacity="1.00" d=" M 60.62 34.57 C 62.97 31.65 67.48 30.10 70.81 32.19 C 72.68 33.78 74.91 36.59 73.01 38.99 C 71.97 37.44 71.78 35.05 69.84 34.29 C 66.51 31.91 62.63 34.88 60.63 37.61 C 56.65 43.34 55.67 51.67 59.64 57.65 C 56.90 58.28 56.00 55.21 55.55 53.13 C 54.64 46.65 55.73 39.31 60.62 34.57 Z" />
<path fill="#333333" opacity="1.00" d=" M 78.38 42.59 C 80.19 38.55 83.21 34.33 87.91 33.65 C 91.46 33.59 94.08 36.90 95.16 39.97 C 96.00 43.79 96.36 47.96 95.02 51.71 C 96.69 51.10 98.37 50.53 100.09 50.06 C 98.69 52.11 96.37 53.19 94.11 53.99 C 93.13 56.10 91.95 58.10 90.70 60.06 C 92.58 59.85 94.84 58.02 96.62 59.44 C 96.71 62.09 92.53 60.57 90.97 60.13 C 89.13 61.45 87.24 62.70 85.14 63.58 L 86.46 65.31 L 85.12 65.05 L 84.17 63.17 L 82.53 64.59 C 82.96 63.74 83.40 62.90 83.85 62.07 C 89.84 60.76 92.93 54.74 94.21 49.26 C 94.74 45.41 94.68 41.08 92.02 37.97 C 90.65 35.74 87.66 35.97 85.49 36.64 C 80.27 40.10 77.52 46.83 78.38 52.97 C 77.74 56.17 79.45 58.97 81.17 61.51 L 82.01 60.86 C 82.18 61.67 82.51 63.28 82.68 64.09 C 79.99 62.51 77.12 63.89 74.44 64.62 C 73.91 66.70 73.12 68.87 74.11 70.96 C 74.82 72.49 73.66 74.82 71.84 74.24 C 71.70 69.83 72.08 65.40 71.31 61.03 C 71.64 58.53 72.96 56.31 73.82 53.97 C 79.07 52.38 76.47 46.36 78.38 42.59 M 73.01 62.82 C 75.48 62.62 77.87 61.90 80.27 61.33 C 77.16 60.31 76.22 56.81 77.51 54.02 C 73.82 55.23 73.46 59.55 73.01 62.82 Z" />
<path fill="#333333" opacity="1.00" d=" M 27.62 117.60 C 28.01 117.60 28.78 117.60 29.16 117.60 C 31.09 121.01 34.87 119.22 37.15 117.27 C 37.63 118.18 38.49 119.49 37.03 120.06 C 34.20 122.31 30.23 121.36 27.63 119.22 C 27.63 118.82 27.63 118.01 27.62 117.60 Z" />
<path fill="#333333" opacity="1.00" d=" M 26.48 129.57 C 26.80 127.51 27.41 125.48 29.02 124.07 C 29.58 125.33 29.24 126.64 28.87 127.90 C 30.07 129.30 31.30 130.67 32.50 132.07 C 30.07 133.21 28.49 130.40 26.48 129.57 Z" />
<path fill="#333333" opacity="1.00" d=" M 71.08 126.92 C 71.48 126.81 72.28 126.58 72.67 126.47 C 72.17 129.18 70.51 131.53 70.15 134.30 C 69.81 134.40 69.11 134.61 68.77 134.72 C 68.31 131.80 69.13 129.11 71.08 126.92 Z" />
<path fill="#333333" opacity="1.00" d=" M 57.49 136.78 C 60.54 139.72 59.63 144.19 59.56 147.98 C 59.73 153.19 59.28 158.40 59.16 163.61 C 54.85 163.94 50.61 162.86 46.81 160.86 C 50.14 158.29 53.79 161.73 57.41 161.63 C 57.55 155.08 57.64 148.54 57.75 142.01 C 57.64 140.27 56.82 138.49 57.49 136.78 Z" />
<path fill="#333333" opacity="1.00" d=" M 44.35 172.06 C 44.46 170.13 45.87 172.01 46.05 172.83 C 47.34 175.28 46.92 178.05 44.99 180.01 C 45.04 180.80 45.14 182.38 45.19 183.17 C 43.58 184.02 41.84 184.59 40.01 184.70 C 40.79 183.57 41.71 182.54 42.77 181.66 C 44.26 178.66 44.73 175.37 44.35 172.06 Z" />
<path fill="#333333" opacity="1.00" d=" M 36.23 176.04 C 36.51 174.68 37.76 174.35 38.93 174.08 C 37.17 177.91 35.23 181.95 32.19 184.94 C 32.42 181.60 35.08 179.09 36.23 176.04 Z" />
<path fill="#333333" opacity="1.00" d=" M 67.64 178.43 C 71.09 179.76 71.01 183.60 70.46 186.65 C 70.02 186.55 69.16 186.35 68.73 186.25 C 69.35 183.44 67.73 181.06 67.64 178.43 Z" />
<path fill="#333333" opacity="1.00" d=" M 49.66 204.06 C 49.69 201.35 53.01 200.65 55.12 201.34 C 57.75 202.26 62.44 198.86 63.14 202.99 C 59.46 202.39 55.81 204.37 52.25 203.03 C 51.60 203.29 50.31 203.80 49.66 204.06 Z" />
</g>
</svg>
