<?xml version="1.0" encoding="UTF-8" ?>
<!DOCTYPE svg PUBLIC "-//W3C//DTD SVG 1.1//EN" "http://www.w3.org/Graphics/SVG/1.1/DTD/svg11.dtd">
<svg width="151pt" height="275pt" viewBox="0 0 151 275" version="1.1" xmlns="http://www.w3.org/2000/svg">
<g id="#ffffffff">
<path fill="#FFFFFF" opacity="1.00" d=" M 0.00 0.00 L 151.00 0.00 L 151.00 275.00 L 0.00 275.00 L 0.00 0.00 M 74.84 12.54 C 72.08 15.00 68.37 17.12 67.71 21.09 C 65.68 28.80 70.69 36.66 67.81 44.24 C 66.55 48.44 61.61 48.83 58.15 50.27 C 53.75 51.44 50.38 54.78 46.01 56.02 C 42.08 57.24 38.85 60.27 36.89 63.82 C 34.70 69.03 36.16 75.13 33.28 80.15 C 30.00 86.50 28.45 93.97 30.19 101.01 C 31.12 104.78 28.85 108.24 28.63 111.93 C 28.36 118.91 25.12 125.88 27.25 132.86 C 29.16 138.73 31.82 144.90 30.53 151.19 C 30.00 154.85 26.00 155.80 24.21 158.62 C 21.43 155.76 18.12 153.49 15.35 150.63 C 13.98 149.20 12.12 147.49 9.98 148.31 C 12.32 151.24 15.63 153.15 18.27 155.78 C 20.01 157.33 21.35 159.70 23.95 159.77 C 24.50 162.34 24.46 165.44 26.73 167.24 C 31.13 170.64 35.10 174.83 40.46 176.72 C 45.58 180.32 44.84 187.32 44.86 192.82 C 44.16 192.20 43.46 191.57 42.77 190.95 C 38.88 190.58 35.19 188.82 31.22 189.48 C 32.73 190.35 34.24 191.21 35.76 192.07 C 37.69 192.26 39.62 192.53 41.55 192.77 C 41.48 193.08 41.33 193.70 41.25 194.01 C 42.69 194.76 44.14 195.50 45.60 196.20 C 46.02 200.42 47.22 204.49 48.08 208.63 C 45.51 209.38 42.71 210.30 40.06 209.35 C 36.94 208.70 35.08 205.91 32.54 204.24 C 31.01 202.10 29.44 199.77 29.62 197.01 C 29.60 190.78 26.54 185.13 26.19 178.96 C 27.06 177.49 27.94 176.03 28.82 174.57 C 28.24 174.55 27.08 174.53 26.50 174.51 C 25.75 176.02 24.57 177.39 24.29 179.08 C 24.42 184.90 27.13 190.25 27.59 196.03 C 27.62 199.75 29.06 203.26 30.64 206.56 C 33.42 210.00 37.86 211.54 42.02 212.53 C 44.19 212.00 46.28 211.16 48.30 210.22 C 49.09 212.96 49.49 215.85 50.62 218.48 C 53.06 221.74 57.10 223.07 60.34 225.32 C 63.01 225.67 65.70 225.84 68.36 226.22 C 71.03 224.83 72.38 222.18 73.51 219.53 C 76.58 222.07 80.24 223.59 84.11 224.38 C 88.27 223.39 90.02 219.46 91.84 216.04 C 94.75 211.34 94.44 205.57 96.48 200.54 C 99.17 194.12 97.77 186.98 99.37 180.31 L 100.18 180.68 C 103.55 171.21 101.14 161.25 100.82 151.53 C 102.86 153.20 105.15 154.54 107.27 156.11 C 108.55 158.96 108.10 163.05 111.71 164.24 C 116.08 165.06 120.68 166.85 125.00 164.89 C 125.57 163.03 126.50 161.17 126.24 159.18 C 125.29 157.41 122.21 156.50 123.23 154.05 C 123.33 152.19 124.88 149.61 122.89 148.31 C 121.39 147.05 119.72 146.00 118.36 144.59 C 116.37 142.19 116.92 138.89 116.79 136.01 C 116.90 132.36 115.97 128.70 116.69 125.07 C 117.37 120.46 118.14 115.53 116.29 111.10 C 114.97 106.74 112.23 102.73 112.42 98.02 C 112.08 94.95 113.18 92.04 113.69 89.08 C 114.28 85.06 112.17 81.43 111.07 77.70 C 111.32 80.53 112.42 83.19 112.69 86.01 C 112.94 90.27 108.94 93.54 109.76 97.87 C 110.17 101.25 109.29 104.56 107.04 107.16 C 105.69 105.93 104.38 104.66 103.07 103.40 C 103.34 98.51 103.01 93.59 101.78 88.84 C 100.41 85.47 104.20 83.23 104.49 80.08 C 105.23 77.41 105.12 74.69 104.26 72.06 C 103.78 72.62 103.31 73.19 102.83 73.75 C 102.73 74.35 102.53 75.53 102.43 76.13 C 99.74 79.98 97.25 83.97 94.53 87.80 C 91.42 89.29 88.61 87.77 86.06 86.02 C 86.14 86.67 86.30 87.98 86.38 88.63 C 89.56 92.38 94.98 90.27 98.73 88.65 C 98.00 90.31 97.33 92.00 96.77 93.72 C 98.09 93.21 99.01 92.18 99.83 91.09 C 99.89 94.43 100.43 97.75 100.30 101.09 C 99.58 104.78 97.12 108.08 97.50 111.99 C 97.06 118.58 101.10 125.75 96.63 131.69 C 94.37 132.76 92.00 133.58 89.75 134.67 C 84.48 136.25 78.94 135.22 73.54 135.50 C 71.32 135.05 69.11 134.52 66.87 134.18 C 66.42 133.85 65.52 133.19 65.07 132.87 C 62.14 131.66 59.03 130.28 57.30 127.48 C 55.83 125.25 56.46 122.48 56.52 120.00 C 57.00 114.78 56.10 109.53 54.31 104.63 C 55.99 104.27 57.65 103.85 59.31 103.45 C 60.93 104.28 62.65 104.86 64.43 105.26 C 63.28 104.12 62.03 103.08 60.96 101.86 C 60.56 100.32 60.75 98.72 60.60 97.15 C 62.26 99.22 64.47 100.68 67.05 101.36 C 67.18 100.42 67.32 99.48 67.46 98.55 C 66.83 98.45 65.58 98.26 64.95 98.17 C 63.24 96.26 61.55 94.31 60.22 92.11 C 60.48 93.00 60.74 93.89 60.99 94.78 C 60.45 95.04 59.35 95.57 58.81 95.83 C 58.23 95.75 57.08 95.60 56.50 95.52 C 56.01 94.77 55.51 94.03 55.01 93.29 C 55.57 89.96 56.04 86.60 57.31 83.45 C 58.14 81.87 57.13 80.23 56.69 78.70 C 57.31 76.64 57.88 74.57 58.51 72.53 C 56.12 74.95 53.74 79.08 49.63 77.50 L 51.87 75.15 C 51.39 74.82 50.91 74.50 50.44 74.17 C 51.46 70.77 52.38 67.29 52.61 63.73 C 50.40 67.79 49.52 72.39 49.21 76.96 C 47.86 80.39 46.43 83.85 46.42 87.62 C 48.06 85.44 49.01 82.88 49.86 80.32 C 51.64 80.02 53.42 79.72 55.21 79.44 C 54.25 88.17 52.61 97.12 47.54 104.50 C 47.45 103.34 47.27 101.02 47.19 99.86 C 46.78 99.74 45.96 99.49 45.55 99.36 C 45.03 103.22 44.12 107.25 45.46 111.06 C 48.31 119.77 45.67 129.03 42.27 137.17 C 40.13 142.93 42.90 148.87 42.82 154.73 C 43.41 154.14 43.99 153.54 44.56 152.93 C 44.38 148.28 44.00 143.60 44.43 138.96 C 45.02 135.78 45.92 132.66 46.33 129.45 C 47.15 122.58 49.37 115.56 47.25 108.69 C 48.48 106.93 49.78 105.22 51.20 103.61 C 53.39 107.39 52.07 111.80 53.02 115.86 C 53.68 118.92 54.44 121.96 55.40 124.94 C 54.96 126.60 54.59 128.27 54.32 129.96 C 55.76 130.16 57.21 130.38 58.65 130.64 C 59.58 135.11 65.73 133.75 67.26 137.77 C 68.05 141.85 63.00 143.21 61.34 146.32 C 62.44 146.38 63.76 146.65 64.49 145.56 C 66.75 143.29 68.55 140.63 70.52 138.12 C 75.01 138.63 80.28 140.71 84.19 137.37 C 86.74 137.15 89.29 137.21 91.84 137.33 C 93.01 135.02 94.98 134.01 97.40 135.27 C 98.65 136.84 100.09 138.26 101.48 139.72 C 100.48 141.86 98.91 143.84 98.48 146.20 C 98.60 149.27 99.01 152.32 99.07 155.40 C 99.55 156.32 100.29 154.71 100.73 154.41 C 100.77 156.23 100.29 157.98 99.58 159.64 C 99.04 165.07 99.96 170.60 99.05 176.00 C 96.90 179.22 92.56 179.30 89.20 180.45 C 86.70 181.35 84.05 181.04 81.46 180.88 C 81.22 180.22 80.74 178.90 80.50 178.24 C 81.57 174.73 81.04 170.88 82.48 167.48 C 84.43 164.85 87.28 163.05 89.24 160.41 C 85.71 160.44 83.42 163.67 80.80 165.62 C 78.79 169.87 79.03 174.93 77.10 179.26 C 74.97 181.18 71.80 181.48 69.04 181.36 C 64.28 181.15 59.19 181.41 54.88 179.00 C 52.23 177.60 54.90 172.64 51.57 172.04 C 50.87 170.09 50.26 168.06 49.03 166.36 C 50.11 166.73 52.25 167.49 53.32 167.87 C 52.69 165.54 51.74 163.30 51.25 160.93 C 50.88 157.32 52.39 153.83 52.16 150.22 C 52.22 146.97 51.17 143.24 53.62 140.57 C 55.86 137.70 56.71 134.09 55.96 130.52 C 55.04 133.52 54.42 136.75 52.23 139.15 C 48.87 142.98 49.89 148.52 50.54 153.13 C 50.08 156.85 49.98 160.60 49.60 164.33 C 49.46 161.38 49.63 158.25 47.25 156.09 C 46.35 155.88 44.54 155.47 43.64 155.26 C 44.19 157.11 45.26 158.62 46.85 159.82 C 46.89 160.97 46.90 162.13 46.89 163.28 C 44.98 163.85 42.75 162.74 41.04 164.06 C 39.53 165.30 38.77 167.19 37.69 168.78 C 38.15 170.49 40.76 172.58 38.44 173.93 C 34.73 170.59 30.17 168.35 26.62 164.82 L 28.58 164.69 C 27.40 163.25 26.11 161.86 25.34 160.14 C 27.28 156.83 31.38 155.53 33.80 152.52 C 32.68 145.99 31.15 139.53 29.80 133.04 C 27.80 126.40 30.36 119.64 30.71 113.01 C 31.56 113.02 32.40 113.03 33.25 113.05 C 33.43 115.74 34.64 118.15 35.84 120.51 C 34.57 123.55 32.98 126.61 32.70 129.93 C 33.06 132.92 33.66 135.89 33.66 138.92 C 34.04 138.85 34.78 138.71 35.15 138.64 C 33.82 133.18 34.66 127.63 36.66 122.46 C 36.64 123.32 36.60 125.04 36.58 125.89 C 37.51 126.53 38.45 127.17 39.34 127.86 C 39.11 130.06 39.21 132.28 39.50 134.47 C 40.35 133.14 40.92 131.61 40.54 130.02 C 39.30 123.90 38.15 117.66 35.11 112.12 C 39.79 107.86 41.19 101.62 42.34 95.67 C 41.65 93.55 40.53 91.51 38.31 90.72 C 37.82 89.19 37.02 87.68 37.14 86.03 C 38.02 84.05 39.56 82.46 40.80 80.70 C 40.35 80.70 39.45 80.69 39.00 80.69 C 37.45 84.07 35.19 87.32 35.35 91.21 C 36.31 91.79 37.28 92.37 38.25 92.96 C 39.44 96.53 39.78 100.45 38.50 104.05 C 37.51 107.58 34.63 110.05 32.70 113.04 C 30.80 106.57 31.65 99.61 31.54 92.93 C 32.73 86.97 34.83 81.11 37.82 75.80 C 38.42 71.15 37.86 66.25 39.56 61.79 C 41.19 58.42 45.29 58.42 48.45 57.65 C 52.61 57.00 55.81 53.91 58.35 50.76 C 61.91 50.59 65.88 50.21 68.47 47.45 C 71.03 44.41 70.56 40.22 71.10 36.54 C 70.13 33.09 68.71 29.69 69.26 26.02 C 68.83 21.80 71.50 18.26 74.28 15.42 C 79.59 13.88 85.42 14.16 90.48 16.40 C 93.27 17.95 93.34 21.52 93.85 24.30 C 94.01 31.01 94.91 38.24 91.55 44.39 C 89.66 48.05 84.95 49.84 81.12 48.29 C 76.83 47.30 75.05 42.97 72.34 40.00 C 72.43 41.04 72.53 42.09 72.63 43.13 C 75.26 44.86 77.31 47.27 79.51 49.50 C 81.39 51.74 84.63 51.13 87.19 51.72 C 86.84 54.42 86.42 57.12 86.06 59.83 C 86.34 59.84 86.89 59.85 87.17 59.86 C 87.42 58.07 87.99 56.44 89.87 55.83 C 90.26 56.39 91.04 57.52 91.43 58.08 C 90.69 56.07 89.99 54.03 89.68 51.90 C 92.68 52.69 95.45 54.20 97.63 56.42 C 100.54 59.87 106.19 58.25 108.94 61.97 C 112.06 66.47 110.93 72.34 111.43 77.49 C 112.78 71.42 114.06 63.73 109.00 58.97 C 106.61 55.83 101.74 57.68 99.28 54.63 C 96.88 52.07 93.55 50.80 90.11 50.41 C 93.42 47.20 93.76 42.33 94.61 38.05 C 94.56 33.29 97.05 28.27 94.65 23.73 C 94.87 19.16 92.39 14.17 87.76 12.88 C 83.49 12.15 79.14 12.47 74.84 12.54 M 73.27 52.71 C 73.36 56.41 75.15 59.73 76.00 63.27 C 71.89 63.31 67.94 62.13 63.89 61.64 C 63.38 60.99 62.88 60.35 62.38 59.70 C 61.30 59.19 60.21 58.69 59.17 58.11 C 57.44 55.71 54.86 56.70 52.64 57.73 C 52.54 58.29 52.34 59.43 52.24 60.00 C 54.19 59.39 56.14 58.78 58.11 58.24 C 58.65 59.23 59.12 60.26 59.61 61.28 C 60.59 61.79 61.54 62.34 62.47 62.95 C 62.62 64.92 60.55 66.01 59.59 67.49 C 60.20 68.04 60.81 68.59 61.42 69.13 C 62.69 67.47 63.99 65.82 65.36 64.24 C 66.03 64.30 67.38 64.43 68.05 64.50 C 70.70 62.89 73.92 62.89 76.82 63.78 C 78.59 65.67 79.95 67.90 81.59 69.89 C 83.84 66.93 79.73 65.10 77.69 63.83 C 78.16 59.61 76.16 55.64 73.27 52.71 M 65.21 59.70 C 65.85 59.62 67.14 59.47 67.78 59.39 C 67.95 57.37 67.92 55.35 67.50 53.36 C 66.40 55.34 65.85 57.55 65.21 59.70 M 87.69 61.81 C 85.85 63.17 85.85 65.77 85.05 67.75 C 85.59 67.11 86.14 66.47 86.69 65.85 C 89.42 62.21 94.73 64.08 98.12 61.44 C 99.23 61.42 100.35 61.40 101.46 61.38 C 101.42 61.03 101.32 60.32 101.27 59.96 C 99.79 59.48 98.32 58.98 96.86 58.43 C 94.56 61.24 90.94 61.15 87.69 61.81 M 43.67 69.66 C 43.71 71.58 43.76 73.51 43.80 75.43 C 44.32 75.51 45.36 75.67 45.88 75.74 C 45.71 73.55 45.50 71.36 45.28 69.18 C 44.88 69.30 44.08 69.54 43.67 69.66 M 85.03 74.36 C 85.35 75.40 85.67 76.44 85.99 77.48 C 85.52 77.51 84.58 77.56 84.10 77.58 C 83.60 77.13 82.60 76.22 82.10 75.77 C 78.72 76.36 75.51 77.60 72.19 78.45 C 72.21 78.92 72.26 79.86 72.28 80.33 C 76.23 80.76 79.89 82.31 83.41 84.05 C 82.31 86.60 80.41 88.60 78.09 90.08 C 73.80 87.65 68.89 86.66 64.71 84.00 C 67.48 85.90 70.35 87.66 72.92 89.83 C 67.39 90.72 62.16 88.21 58.57 84.12 C 56.62 88.30 61.32 90.12 63.94 92.14 C 65.90 93.37 67.30 95.96 69.95 95.60 C 69.07 94.53 68.17 93.49 67.23 92.48 C 71.46 92.83 75.83 93.32 80.00 92.36 C 83.82 90.76 84.83 86.53 85.58 82.88 C 81.71 80.81 77.35 80.29 73.02 80.18 C 73.07 79.93 73.18 79.43 73.23 79.18 C 76.43 78.54 79.88 77.91 83.02 79.18 C 85.61 80.66 87.66 78.04 89.74 76.88 L 88.97 75.57 C 91.17 76.06 93.40 76.39 95.65 76.54 C 95.90 76.09 96.42 75.19 96.68 74.74 C 92.79 74.70 88.88 75.17 85.03 74.36 M 41.38 77.39 C 41.45 77.76 41.59 78.51 41.66 78.88 C 43.42 81.22 44.28 84.02 45.27 86.74 C 45.62 85.83 46.32 84.01 46.67 83.11 C 45.51 81.27 44.37 79.42 43.22 77.57 C 42.76 77.53 41.84 77.44 41.38 77.39 M 106.27 78.48 C 105.44 79.48 106.84 81.37 108.02 80.59 C 108.91 79.61 107.37 77.82 106.27 78.48 M 74.38 96.96 C 73.53 97.79 72.69 98.65 71.86 99.50 C 73.72 99.34 75.60 99.32 77.44 99.00 C 79.15 97.96 80.37 96.25 82.09 95.20 C 83.22 95.56 85.47 96.26 86.60 96.62 C 85.72 95.60 83.95 93.57 83.07 92.56 C 80.07 93.80 77.35 95.64 74.38 96.96 M 87.59 93.75 C 87.44 94.25 87.13 95.23 86.98 95.73 C 87.73 95.66 89.24 95.52 89.99 95.45 C 91.28 97.13 92.80 98.68 95.04 98.84 L 95.52 100.39 C 95.52 99.44 95.53 98.49 95.53 97.54 C 94.84 97.42 93.46 97.17 92.76 97.04 C 92.62 95.96 92.49 94.87 92.35 93.79 C 90.76 93.77 89.17 93.76 87.59 93.75 M 86.96 100.19 C 85.74 101.31 84.53 102.44 83.33 103.58 C 81.83 102.86 80.32 102.14 78.83 101.41 C 77.82 102.24 76.81 103.07 75.82 103.91 C 74.82 103.55 73.82 103.18 72.83 102.81 C 71.37 106.30 68.51 108.62 65.26 110.34 C 64.55 110.39 63.13 110.48 62.43 110.53 C 61.50 109.59 60.42 108.87 59.19 108.39 C 60.59 111.50 62.71 114.26 65.71 115.97 C 66.21 113.92 66.84 111.86 68.24 110.23 C 68.86 112.16 69.40 114.12 69.85 116.10 C 70.58 116.57 72.04 117.50 72.77 117.97 C 72.16 115.22 71.39 112.52 70.52 109.85 C 71.86 108.02 73.07 106.10 74.24 104.16 C 74.83 104.23 76.02 104.36 76.62 104.43 C 77.29 103.76 77.97 103.08 78.64 102.41 C 80.27 102.93 81.95 103.33 83.50 104.08 C 84.73 105.28 84.82 107.13 85.48 108.64 C 86.25 107.26 86.97 105.86 87.68 104.45 C 88.23 104.29 89.32 103.97 89.86 103.81 C 91.05 104.07 93.44 104.59 94.63 104.85 C 93.29 102.73 91.23 101.38 88.69 101.55 C 87.76 100.40 86.90 99.21 86.05 98.01 C 86.28 98.55 86.73 99.64 86.96 100.19 M 84.07 114.86 C 83.35 114.84 81.92 114.80 81.20 114.77 C 81.20 115.44 81.21 116.12 81.22 116.79 C 82.60 117.65 85.33 117.66 84.97 119.90 C 84.85 122.36 83.60 124.58 83.23 126.99 C 83.01 129.11 84.42 130.84 85.41 132.57 C 85.09 127.66 85.57 122.74 85.42 117.82 C 85.86 117.36 86.72 116.43 87.15 115.97 C 87.28 114.71 87.38 113.46 87.46 112.21 C 86.28 113.03 85.18 113.95 84.07 114.86 M 74.85 115.07 C 74.26 116.71 74.77 117.30 76.37 116.84 C 76.97 115.19 76.46 114.60 74.85 115.07 M 94.12 115.62 C 92.74 120.20 94.23 125.13 93.37 129.85 C 94.19 125.18 96.29 120.23 94.12 115.62 M 69.59 117.72 C 69.57 120.87 68.52 124.28 70.17 127.19 C 71.20 128.91 70.46 130.89 70.39 132.73 C 70.61 132.10 71.07 130.85 71.30 130.22 C 71.75 130.35 72.67 130.60 73.12 130.73 C 74.07 125.96 72.26 121.57 69.59 117.72 M 15.33 142.08 C 18.14 145.08 22.83 147.03 23.40 151.56 C 24.51 151.26 25.61 150.95 26.73 150.68 L 25.63 150.67 C 23.78 147.17 20.87 144.40 17.66 142.15 C 17.01 141.41 16.09 142.07 15.33 142.08 Z" />
<path fill="#FFFFFF" opacity="1.00" d=" M 100.27 81.99 C 101.75 82.81 99.17 86.02 97.67 85.84 C 97.25 84.27 99.17 82.89 100.27 81.99 Z" />
<path fill="#FFFFFF" opacity="1.00" d=" M 52.38 102.34 C 52.98 100.56 53.62 98.80 54.30 97.05 C 56.11 97.80 58.03 98.27 59.78 99.18 C 60.96 100.77 58.84 101.41 57.82 102.21 C 56.07 102.76 54.18 102.26 52.38 102.34 Z" />
<path fill="#FFFFFF" opacity="1.00" d=" M 107.03 110.88 C 108.36 108.85 109.39 106.59 111.10 104.84 C 116.64 112.20 113.60 121.66 115.00 130.01 C 115.42 135.08 115.11 140.17 115.13 145.25 C 115.72 145.27 116.91 145.31 117.51 145.33 C 119.67 147.35 121.46 149.71 122.26 152.61 C 120.78 152.62 119.31 152.59 117.84 152.49 C 117.51 152.85 116.85 153.58 116.51 153.94 C 119.29 155.85 121.90 157.97 124.63 159.94 C 124.27 161.12 123.91 162.30 123.55 163.48 C 122.80 163.81 121.29 164.48 120.54 164.81 C 115.63 162.94 113.22 157.80 113.51 152.76 C 113.72 155.04 113.18 157.23 111.95 159.17 C 112.79 160.26 113.63 161.35 114.43 162.49 C 112.44 161.88 110.50 161.17 108.56 160.44 C 108.04 157.99 107.94 155.39 106.89 153.08 C 105.67 151.17 104.17 149.45 102.93 147.56 C 102.86 148.08 102.72 149.12 102.65 149.64 L 100.26 149.45 C 100.22 148.33 100.18 147.21 100.14 146.10 C 102.10 143.72 102.85 140.73 103.03 137.71 C 101.79 136.53 100.58 135.32 99.39 134.08 C 99.73 132.01 100.16 129.95 100.62 127.89 C 101.49 128.85 102.37 129.80 103.26 130.74 C 104.43 135.78 104.80 141.01 104.19 146.15 C 104.45 146.28 104.98 146.55 105.24 146.68 C 105.94 142.82 106.81 138.96 106.90 135.04 C 106.32 132.61 104.94 130.46 103.82 128.26 C 100.74 120.88 99.12 112.38 101.86 104.64 C 103.56 106.74 105.21 108.88 107.03 110.88 Z" />
<path fill="#FFFFFF" opacity="1.00" d=" M 40.25 169.73 C 39.29 167.98 40.84 166.49 42.02 165.41 C 45.27 165.38 47.23 168.72 49.86 170.21 C 49.62 171.10 49.15 172.87 48.91 173.76 C 49.60 175.37 49.48 177.13 49.59 178.84 C 50.02 178.67 50.89 178.32 51.32 178.15 C 53.20 186.02 52.44 194.18 53.08 202.17 C 54.71 206.69 55.85 211.34 56.76 216.06 C 59.95 210.74 54.75 205.45 54.73 200.03 C 54.83 193.76 53.50 187.33 55.44 181.21 C 62.40 184.22 70.23 183.67 77.56 182.64 C 77.85 193.26 75.54 203.69 73.48 214.05 C 70.30 216.18 71.37 220.58 68.92 223.22 C 66.44 223.82 63.75 224.42 61.19 223.97 C 57.86 221.61 55.25 218.45 52.46 215.52 C 50.41 213.36 50.55 210.13 49.89 207.40 C 48.48 200.99 48.84 194.33 47.21 187.96 C 46.04 183.84 46.72 178.83 42.78 176.01 C 44.07 176.34 46.66 177.00 47.96 177.32 C 45.61 174.51 41.42 173.50 40.25 169.73 Z" />
<path fill="#FFFFFF" opacity="1.00" d=" M 94.71 182.10 C 95.85 181.25 97.01 180.42 98.20 179.63 C 97.82 180.07 97.06 180.94 96.68 181.38 C 97.22 182.81 97.94 184.30 97.58 185.89 C 95.96 194.88 93.42 203.67 91.34 212.55 C 89.90 215.67 88.32 218.82 86.11 221.48 C 81.48 223.02 77.39 220.03 73.92 217.38 C 76.90 212.06 77.63 205.90 78.71 200.00 C 78.14 194.18 80.20 188.59 80.48 182.82 C 85.23 183.29 90.00 182.74 94.71 182.10 Z" />
</g>
<g id="#3f3f3fff">
<path fill="#333333" opacity="1.00" d=" M 74.84 12.54 C 79.14 12.47 83.49 12.15 87.76 12.88 C 92.39 14.17 94.87 19.16 94.65 23.73 C 97.05 28.27 94.56 33.29 94.61 38.05 C 93.76 42.33 93.42 47.20 90.11 50.41 C 93.55 50.80 96.88 52.07 99.28 54.63 C 101.74 57.68 106.61 55.83 109.00 58.97 C 114.06 63.73 112.78 71.42 111.43 77.49 C 110.93 72.34 112.06 66.47 108.94 61.97 C 106.19 58.25 100.54 59.87 97.63 56.42 C 95.45 54.20 92.68 52.69 89.68 51.90 C 89.99 54.03 90.69 56.07 91.43 58.08 C 91.04 57.52 90.26 56.39 89.87 55.83 C 87.99 56.44 87.42 58.07 87.17 59.86 C 86.89 59.85 86.34 59.84 86.06 59.83 C 86.42 57.12 86.84 54.42 87.19 51.72 C 84.63 51.13 81.39 51.74 79.51 49.50 C 77.31 47.27 75.26 44.86 72.63 43.13 C 72.53 42.09 72.43 41.04 72.34 40.00 C 75.05 42.97 76.83 47.30 81.12 48.29 C 84.95 49.84 89.66 48.05 91.55 44.39 C 94.91 38.24 94.01 31.01 93.85 24.30 C 93.34 21.52 93.27 17.95 90.48 16.40 C 85.42 14.16 79.59 13.88 74.28 15.42 C 71.50 18.26 68.83 21.80 69.26 26.02 C 68.71 29.69 70.13 33.09 71.10 36.54 C 70.56 40.22 71.03 44.41 68.47 47.45 C 65.88 50.21 61.91 50.59 58.35 50.76 C 55.81 53.91 52.61 57.00 48.45 57.65 C 45.29 58.42 41.19 58.42 39.56 61.79 C 37.86 66.25 38.42 71.15 37.82 75.80 C 34.83 81.11 32.73 86.97 31.54 92.93 C 31.65 99.61 30.80 106.57 32.70 113.04 C 34.63 110.05 37.51 107.58 38.50 104.05 C 39.78 100.45 39.44 96.53 38.25 92.96 C 37.28 92.37 36.31 91.79 35.35 91.21 C 35.19 87.32 37.45 84.07 39.00 80.69 C 39.45 80.69 40.35 80.70 40.80 80.70 C 39.56 82.46 38.02 84.05 37.14 86.03 C 37.02 87.68 37.82 89.19 38.31 90.72 C 40.53 91.51 41.65 93.55 42.34 95.67 C 41.19 101.62 39.79 107.86 35.11 112.12 C 38.15 117.66 39.30 123.90 40.54 130.02 C 40.92 131.61 40.35 133.14 39.50 134.47 C 39.21 132.28 39.11 130.06 39.34 127.86 C 38.45 127.17 37.51 126.53 36.58 125.89 C 36.60 125.04 36.64 123.32 36.66 122.46 C 34.66 127.63 33.82 133.18 35.15 138.64 C 34.78 138.71 34.04 138.85 33.66 138.92 C 33.66 135.89 33.06 132.92 32.70 129.93 C 32.98 126.61 34.57 123.55 35.84 120.51 C 34.64 118.15 33.43 115.74 33.25 113.05 C 32.40 113.03 31.56 113.02 30.71 113.01 C 30.36 119.64 27.80 126.40 29.80 133.04 C 31.15 139.53 32.68 145.99 33.80 152.52 C 31.38 155.53 27.28 156.83 25.34 160.14 C 26.11 161.86 27.40 163.25 28.58 164.69 L 26.62 164.82 C 30.17 168.35 34.73 170.59 38.44 173.93 C 40.76 172.58 38.15 170.49 37.69 168.78 C 38.77 167.19 39.53 165.30 41.04 164.06 C 42.75 162.74 44.98 163.85 46.89 163.28 C 46.90 162.13 46.89 160.97 46.85 159.82 C 45.26 158.62 44.19 157.11 43.64 155.26 C 44.54 155.47 46.35 155.88 47.25 156.09 C 49.63 158.25 49.46 161.38 49.60 164.33 C 49.98 160.60 50.08 156.85 50.54 153.13 C 49.89 148.52 48.87 142.98 52.23 139.15 C 54.42 136.75 55.04 133.52 55.96 130.52 C 56.71 134.09 55.86 137.70 53.62 140.57 C 51.17 143.24 52.22 146.97 52.16 150.22 C 52.39 153.83 50.88 157.32 51.25 160.93 C 51.74 163.30 52.69 165.54 53.32 167.87 C 52.25 167.49 50.11 166.73 49.03 166.36 C 50.26 168.06 50.87 170.09 51.57 172.04 C 54.90 172.64 52.23 177.60 54.88 179.00 C 59.19 181.41 64.28 181.15 69.04 181.36 C 71.80 181.48 74.97 181.18 77.10 179.26 C 79.03 174.93 78.79 169.87 80.80 165.62 C 83.42 163.67 85.71 160.44 89.24 160.41 C 87.28 163.05 84.43 164.85 82.48 167.48 C 81.04 170.88 81.57 174.73 80.50 178.24 C 80.74 178.90 81.22 180.22 81.46 180.88 C 84.05 181.04 86.70 181.35 89.20 180.45 C 92.56 179.30 96.90 179.22 99.05 176.00 C 99.96 170.60 99.04 165.07 99.58 159.64 C 100.29 157.98 100.77 156.23 100.73 154.41 C 100.29 154.71 99.55 156.32 99.07 155.40 C 99.01 152.32 98.60 149.27 98.48 146.20 C 98.91 143.84 100.48 141.86 101.48 139.72 C 100.09 138.26 98.65 136.84 97.40 135.27 C 94.98 134.01 93.01 135.02 91.84 137.33 C 89.29 137.21 86.74 137.15 84.19 137.37 C 80.28 140.71 75.01 138.63 70.52 138.12 C 68.55 140.63 66.75 143.29 64.49 145.56 C 63.76 146.65 62.44 146.38 61.34 146.32 C 63.00 143.21 68.05 141.85 67.26 137.77 C 65.73 133.75 59.58 135.11 58.65 130.64 C 57.21 130.38 55.76 130.16 54.32 129.96 C 54.59 128.27 54.96 126.60 55.40 124.94 C 54.44 121.96 53.68 118.92 53.02 115.86 C 52.07 111.80 53.39 107.39 51.20 103.61 C 49.78 105.22 48.48 106.93 47.25 108.69 C 49.37 115.56 47.15 122.58 46.33 129.45 C 45.92 132.66 45.02 135.78 44.43 138.96 C 44.00 143.60 44.38 148.28 44.56 152.93 C 43.99 153.54 43.41 154.14 42.82 154.73 C 42.90 148.87 40.13 142.93 42.27 137.17 C 45.67 129.03 48.31 119.77 45.46 111.06 C 44.12 107.25 45.03 103.22 45.55 99.36 C 45.96 99.49 46.78 99.74 47.19 99.86 C 47.27 101.02 47.45 103.34 47.54 104.50 C 52.61 97.12 54.25 88.17 55.21 79.44 C 53.42 79.72 51.64 80.02 49.86 80.32 C 49.01 82.88 48.06 85.44 46.42 87.62 C 46.43 83.85 47.86 80.39 49.21 76.96 C 49.52 72.39 50.40 67.79 52.61 63.73 C 52.38 67.29 51.46 70.77 50.44 74.17 C 50.91 74.50 51.39 74.82 51.87 75.15 L 49.63 77.50 C 53.74 79.08 56.12 74.95 58.51 72.53 C 57.88 74.57 57.31 76.64 56.69 78.70 C 57.13 80.23 58.14 81.87 57.31 83.45 C 56.04 86.60 55.57 89.96 55.01 93.29 C 55.51 94.03 56.01 94.77 56.50 95.52 C 57.08 95.60 58.23 95.75 58.81 95.83 C 59.35 95.57 60.45 95.04 60.99 94.78 C 60.74 93.89 60.48 93.00 60.22 92.11 C 61.55 94.31 63.24 96.26 64.95 98.17 C 65.58 98.26 66.83 98.45 67.46 98.55 C 67.32 99.48 67.18 100.42 67.05 101.36 C 64.47 100.68 62.26 99.22 60.60 97.15 C 60.75 98.72 60.56 100.32 60.96 101.86 C 62.03 103.08 63.28 104.12 64.43 105.26 C 62.65 104.86 60.93 104.28 59.31 103.45 C 57.65 103.85 55.99 104.27 54.31 104.63 C 56.10 109.53 57.00 114.78 56.52 120.00 C 56.46 122.48 55.83 125.25 57.30 127.48 C 59.03 130.28 62.14 131.66 65.07 132.87 C 65.52 133.19 66.42 133.85 66.87 134.18 C 69.11 134.52 71.32 135.05 73.54 135.50 C 78.94 135.22 84.48 136.25 89.75 134.67 C 92.00 133.58 94.37 132.76 96.63 131.69 C 101.10 125.75 97.06 118.58 97.50 111.99 C 97.12 108.08 99.58 104.78 100.30 101.09 C 100.43 97.75 99.89 94.43 99.83 91.09 C 99.01 92.18 98.09 93.21 96.77 93.72 C 97.33 92.00 98.00 90.31 98.73 88.65 C 94.98 90.27 89.56 92.38 86.38 88.63 C 86.30 87.98 86.14 86.67 86.06 86.02 C 88.61 87.77 91.42 89.29 94.53 87.80 C 97.25 83.97 99.74 79.98 102.43 76.13 C 102.53 75.53 102.73 74.35 102.83 73.75 C 103.31 73.19 103.78 72.62 104.26 72.06 C 105.12 74.69 105.23 77.41 104.49 80.08 C 104.20 83.23 100.41 85.47 101.78 88.84 C 103.01 93.59 103.34 98.51 103.07 103.40 C 104.38 104.66 105.69 105.93 107.04 107.16 C 109.29 104.56 110.17 101.25 109.76 97.87 C 108.94 93.54 112.94 90.27 112.69 86.01 C 112.42 83.19 111.32 80.53 111.07 77.70 C 112.17 81.43 114.28 85.06 113.69 89.08 C 113.18 92.04 112.08 94.95 112.42 98.02 C 112.23 102.73 114.97 106.74 116.29 111.10 C 118.14 115.53 117.37 120.46 116.69 125.07 C 115.97 128.70 116.90 132.36 116.79 136.01 C 116.92 138.89 116.37 142.19 118.36 144.59 C 119.72 146.00 121.39 147.05 122.89 148.31 C 124.88 149.61 123.33 152.19 123.23 154.05 C 122.21 156.50 125.29 157.41 126.24 159.18 C 126.50 161.17 125.57 163.03 125.00 164.89 C 120.68 166.85 116.08 165.06 111.71 164.24 C 108.10 163.05 108.55 158.96 107.27 156.11 C 105.15 154.54 102.86 153.20 100.82 151.53 C 101.14 161.25 103.55 171.21 100.18 180.68 L 99.37 180.31 C 97.77 186.98 99.17 194.12 96.48 200.54 C 94.44 205.57 94.75 211.34 91.84 216.04 C 90.02 219.46 88.27 223.39 84.11 224.38 C 80.24 223.59 76.58 222.07 73.51 219.53 C 72.38 222.18 71.03 224.83 68.36 226.22 C 65.70 225.84 63.01 225.67 60.34 225.32 C 57.10 223.07 53.06 221.74 50.62 218.48 C 49.49 215.85 49.09 212.96 48.30 210.22 C 46.28 211.16 44.19 212.00 42.02 212.53 C 37.86 211.54 33.42 210.00 30.64 206.56 C 29.06 203.26 27.62 199.75 27.59 196.03 C 27.13 190.25 24.42 184.90 24.29 179.08 C 24.57 177.39 25.75 176.02 26.50 174.51 C 27.08 174.53 28.24 174.55 28.82 174.57 C 27.94 176.03 27.06 177.49 26.19 178.96 C 26.54 185.13 29.60 190.78 29.62 197.01 C 29.44 199.77 31.01 202.10 32.54 204.24 C 35.08 205.91 36.94 208.70 40.06 209.35 C 42.71 210.30 45.51 209.38 48.08 208.63 C 47.22 204.49 46.02 200.42 45.60 196.20 C 44.14 195.50 42.69 194.76 41.25 194.01 C 41.33 193.70 41.48 193.08 41.55 192.77 C 39.62 192.53 37.69 192.26 35.76 192.07 C 34.24 191.21 32.73 190.35 31.22 189.48 C 35.19 188.82 38.88 190.58 42.77 190.95 C 43.46 191.57 44.16 192.20 44.86 192.82 C 44.84 187.32 45.58 180.32 40.46 176.72 C 35.10 174.83 31.13 170.64 26.73 167.24 C 24.46 165.44 24.50 162.34 23.95 159.77 C 21.35 159.70 20.01 157.33 18.27 155.78 C 15.63 153.15 12.32 151.24 9.98 148.31 C 12.12 147.49 13.98 149.20 15.35 150.63 C 18.12 153.49 21.43 155.76 24.21 158.62 C 26.00 155.80 30.00 154.85 30.53 151.19 C 31.82 144.90 29.16 138.73 27.25 132.86 C 25.12 125.88 28.36 118.91 28.63 111.93 C 28.85 108.24 31.12 104.78 30.19 101.01 C 28.45 93.97 30.00 86.50 33.28 80.15 C 36.16 75.13 34.70 69.03 36.89 63.82 C 38.85 60.27 42.08 57.24 46.01 56.02 C 50.38 54.78 53.75 51.44 58.15 50.27 C 61.61 48.83 66.55 48.44 67.81 44.24 C 70.69 36.66 65.68 28.80 67.71 21.09 C 68.37 17.12 72.08 15.00 74.84 12.54 M 100.27 81.99 C 99.17 82.89 97.25 84.27 97.67 85.84 C 99.17 86.02 101.75 82.81 100.27 81.99 M 52.38 102.34 C 54.18 102.26 56.07 102.76 57.82 102.21 C 58.84 101.41 60.96 100.77 59.78 99.18 C 58.03 98.27 56.11 97.80 54.30 97.05 C 53.62 98.80 52.98 100.56 52.38 102.34 M 107.03 110.88 C 105.21 108.88 103.56 106.74 101.86 104.64 C 99.12 112.38 100.74 120.88 103.82 128.26 C 104.94 130.46 106.32 132.61 106.90 135.04 C 106.81 138.96 105.94 142.82 105.24 146.68 C 104.98 146.55 104.45 146.28 104.19 146.15 C 104.80 141.01 104.43 135.78 103.26 130.74 C 102.37 129.80 101.49 128.85 100.62 127.89 C 100.16 129.95 99.73 132.01 99.39 134.08 C 100.58 135.32 101.79 136.53 103.03 137.71 C 102.85 140.73 102.10 143.72 100.14 146.10 C 100.18 147.21 100.22 148.33 100.26 149.45 L 102.65 149.64 C 102.72 149.12 102.86 148.08 102.93 147.56 C 104.17 149.45 105.67 151.17 106.89 153.08 C 107.94 155.39 108.04 157.99 108.56 160.44 C 110.50 161.17 112.44 161.88 114.43 162.49 C 113.63 161.35 112.79 160.26 111.95 159.17 C 113.18 157.23 113.72 155.04 113.51 152.76 C 113.22 157.80 115.63 162.94 120.54 164.81 C 121.29 164.48 122.80 163.81 123.55 163.48 C 123.91 162.30 124.27 161.12 124.63 159.94 C 121.90 157.97 119.29 155.85 116.51 153.94 C 116.85 153.58 117.51 152.85 117.84 152.49 C 119.31 152.59 120.78 152.62 122.26 152.61 C 121.46 149.71 119.67 147.35 117.51 145.33 C 116.91 145.31 115.72 145.27 115.13 145.25 C 115.11 140.17 115.42 135.08 115.00 130.01 C 113.60 121.66 116.64 112.20 111.10 104.84 C 109.39 106.59 108.36 108.85 107.03 110.88 M 40.25 169.73 C 41.42 173.50 45.61 174.51 47.96 177.32 C 46.66 177.00 44.07 176.34 42.78 176.01 C 46.72 178.83 46.04 183.84 47.21 187.96 C 48.84 194.33 48.48 200.99 49.89 207.40 C 50.55 210.13 50.41 213.36 52.46 215.52 C 55.25 218.45 57.86 221.61 61.19 223.97 C 63.75 224.42 66.44 223.82 68.92 223.22 C 71.37 220.58 70.30 216.18 73.48 214.05 C 75.54 203.69 77.85 193.26 77.56 182.64 C 70.23 183.67 62.40 184.22 55.44 181.21 C 53.50 187.33 54.83 193.76 54.73 200.03 C 54.75 205.45 59.95 210.74 56.76 216.06 C 55.85 211.34 54.71 206.69 53.08 202.17 C 52.44 194.18 53.20 186.02 51.32 178.15 C 50.89 178.32 50.02 178.67 49.59 178.84 C 49.48 177.13 49.60 175.37 48.91 173.76 C 49.15 172.87 49.62 171.10 49.86 170.21 C 47.23 168.72 45.27 165.38 42.02 165.41 C 40.84 166.49 39.29 167.98 40.25 169.73 M 94.71 182.10 C 90.00 182.74 85.23 183.29 80.48 182.82 C 80.20 188.59 78.14 194.18 78.71 200.00 C 77.63 205.90 76.90 212.06 73.92 217.38 C 77.39 220.03 81.48 223.02 86.11 221.48 C 88.32 218.82 89.90 215.67 91.34 212.55 C 93.42 203.67 95.96 194.88 97.58 185.89 C 97.94 184.30 97.22 182.81 96.68 181.38 C 97.06 180.94 97.82 180.07 98.20 179.63 C 97.01 180.42 95.85 181.25 94.71 182.10 Z" />
<path fill="#333333" opacity="1.00" d=" M 73.27 52.71 C 76.16 55.64 78.16 59.61 77.69 63.83 C 79.73 65.10 83.84 66.93 81.59 69.89 C 79.95 67.90 78.59 65.67 76.82 63.78 C 73.92 62.89 70.70 62.89 68.05 64.50 C 67.38 64.43 66.03 64.30 65.36 64.24 C 63.99 65.82 62.69 67.47 61.42 69.13 C 60.81 68.59 60.20 68.04 59.59 67.49 C 60.55 66.01 62.62 64.92 62.47 62.95 C 61.54 62.34 60.59 61.79 59.61 61.28 C 59.12 60.26 58.65 59.23 58.11 58.24 C 56.14 58.78 54.19 59.39 52.24 60.00 C 52.34 59.43 52.54 58.29 52.64 57.73 C 54.86 56.70 57.44 55.71 59.17 58.11 C 60.21 58.69 61.30 59.19 62.38 59.70 C 62.88 60.35 63.38 60.99 63.89 61.64 C 67.94 62.13 71.89 63.31 76.00 63.27 C 75.15 59.73 73.36 56.41 73.27 52.71 Z" />
<path fill="#333333" opacity="1.00" d=" M 65.21 59.70 C 65.85 57.55 66.40 55.34 67.50 53.36 C 67.92 55.35 67.95 57.37 67.78 59.39 C 67.14 59.47 65.85 59.62 65.21 59.70 Z" />
<path fill="#333333" opacity="1.00" d=" M 87.69 61.81 C 90.94 61.15 94.56 61.24 96.86 58.43 C 98.32 58.98 99.79 59.48 101.27 59.96 C 101.32 60.32 101.42 61.03 101.46 61.38 C 100.35 61.40 99.23 61.42 98.12 61.44 C 94.73 64.08 89.42 62.21 86.69 65.85 C 86.14 66.47 85.59 67.11 85.05 67.75 C 85.85 65.77 85.85 63.17 87.69 61.81 Z" />
<path fill="#333333" opacity="1.00" d=" M 43.67 69.66 C 44.08 69.54 44.88 69.30 45.28 69.18 C 45.50 71.36 45.71 73.55 45.88 75.74 C 45.36 75.67 44.32 75.51 43.80 75.43 C 43.76 73.51 43.71 71.58 43.67 69.66 Z" />
<path fill="#333333" opacity="1.00" d=" M 85.03 74.36 C 88.88 75.17 92.79 74.70 96.68 74.74 C 96.42 75.19 95.90 76.09 95.65 76.54 C 93.40 76.39 91.17 76.06 88.97 75.57 L 89.74 76.88 C 87.66 78.04 85.61 80.66 83.02 79.18 C 79.88 77.91 76.43 78.54 73.23 79.18 C 73.18 79.43 73.07 79.93 73.02 80.18 C 77.35 80.29 81.71 80.81 85.58 82.88 C 84.83 86.53 83.82 90.76 80.00 92.36 C 75.83 93.32 71.46 92.83 67.23 92.48 C 68.17 93.49 69.07 94.53 69.95 95.60 C 67.30 95.96 65.90 93.37 63.94 92.14 C 61.32 90.12 56.62 88.30 58.57 84.12 C 62.16 88.21 67.39 90.72 72.92 89.83 C 70.35 87.66 67.48 85.90 64.71 84.00 C 68.89 86.66 73.80 87.65 78.09 90.08 C 80.41 88.60 82.31 86.60 83.41 84.05 C 79.89 82.31 76.23 80.76 72.28 80.33 C 72.26 79.86 72.21 78.92 72.19 78.45 C 75.51 77.60 78.72 76.36 82.10 75.77 C 82.60 76.22 83.60 77.13 84.10 77.58 C 84.58 77.56 85.52 77.51 85.99 77.48 C 85.67 76.44 85.35 75.40 85.03 74.36 Z" />
<path fill="#333333" opacity="1.00" d=" M 41.38 77.39 C 41.84 77.44 42.76 77.53 43.22 77.57 C 44.37 79.42 45.51 81.27 46.67 83.11 C 46.32 84.01 45.62 85.83 45.27 86.74 C 44.28 84.02 43.42 81.22 41.66 78.88 C 41.59 78.51 41.45 77.76 41.38 77.39 Z" />
<path fill="#333333" opacity="1.00" d=" M 106.27 78.48 C 107.37 77.82 108.91 79.61 108.02 80.59 C 106.84 81.37 105.44 79.48 106.27 78.48 Z" />
<path fill="#333333" opacity="1.00" d=" M 74.38 96.96 C 77.35 95.64 80.07 93.80 83.07 92.56 C 83.95 93.57 85.72 95.60 86.60 96.62 C 85.47 96.26 83.22 95.56 82.09 95.20 C 80.37 96.25 79.15 97.96 77.44 99.00 C 75.60 99.32 73.72 99.34 71.86 99.50 C 72.69 98.65 73.53 97.79 74.38 96.96 Z" />
<path fill="#333333" opacity="1.00" d=" M 87.59 93.75 C 89.17 93.76 90.76 93.77 92.35 93.79 C 92.49 94.87 92.62 95.96 92.76 97.04 C 93.46 97.17 94.84 97.42 95.53 97.54 C 95.53 98.49 95.52 99.44 95.52 100.39 L 95.04 98.84 C 92.80 98.68 91.28 97.13 89.99 95.45 C 89.24 95.52 87.73 95.66 86.98 95.73 C 87.13 95.23 87.44 94.25 87.59 93.75 Z" />
<path fill="#333333" opacity="1.00" d=" M 86.96 100.19 C 86.73 99.64 86.28 98.55 86.05 98.01 C 86.90 99.21 87.76 100.40 88.69 101.55 C 91.23 101.38 93.29 102.73 94.63 104.85 C 93.44 104.59 91.05 104.07 89.86 103.81 C 89.32 103.97 88.23 104.29 87.68 104.45 C 86.97 105.86 86.25 107.26 85.48 108.64 C 84.82 107.13 84.73 105.28 83.50 104.08 C 81.95 103.33 80.27 102.93 78.64 102.41 C 77.97 103.08 77.29 103.76 76.62 104.43 C 76.02 104.36 74.83 104.23 74.24 104.16 C 73.07 106.10 71.86 108.02 70.52 109.85 C 71.39 112.52 72.16 115.22 72.77 117.97 C 72.04 117.50 70.58 116.57 69.85 116.10 C 69.40 114.12 68.86 112.16 68.24 110.23 C 66.84 111.86 66.21 113.92 65.71 115.97 C 62.71 114.26 60.59 111.50 59.19 108.39 C 60.42 108.87 61.50 109.59 62.43 110.53 C 63.13 110.48 64.55 110.39 65.26 110.34 C 68.51 108.62 71.37 106.30 72.83 102.81 C 73.82 103.18 74.82 103.55 75.82 103.91 C 76.81 103.07 77.82 102.24 78.83 101.41 C 80.32 102.14 81.83 102.86 83.33 103.58 C 84.53 102.44 85.74 101.31 86.96 100.19 Z" />
<path fill="#333333" opacity="1.00" d=" M 84.07 114.86 C 85.18 113.95 86.28 113.03 87.46 112.21 C 87.38 113.46 87.28 114.71 87.15 115.97 C 86.72 116.43 85.86 117.36 85.42 117.82 C 85.57 122.74 85.09 127.66 85.41 132.57 C 84.42 130.84 83.01 129.11 83.23 126.99 C 83.60 124.58 84.85 122.36 84.97 119.90 C 85.33 117.66 82.60 117.65 81.22 116.79 C 81.21 116.12 81.20 115.44 81.20 114.77 C 81.92 114.80 83.35 114.84 84.07 114.86 Z" />
<path fill="#333333" opacity="1.00" d=" M 74.85 115.07 C 76.46 114.60 76.97 115.19 76.37 116.84 C 74.77 117.30 74.26 116.71 74.85 115.07 Z" />
<path fill="#333333" opacity="1.00" d=" M 94.12 115.62 C 96.29 120.23 94.19 125.18 93.37 129.85 C 94.23 125.13 92.74 120.20 94.12 115.62 Z" />
<path fill="#333333" opacity="1.00" d=" M 69.59 117.72 C 72.26 121.57 74.07 125.96 73.12 130.73 C 72.67 130.60 71.75 130.35 71.30 130.22 C 71.07 130.85 70.61 132.10 70.39 132.73 C 70.46 130.89 71.20 128.91 70.17 127.19 C 68.52 124.28 69.57 120.87 69.59 117.72 Z" />
<path fill="#333333" opacity="1.00" d=" M 15.33 142.08 C 16.09 142.07 17.01 141.41 17.66 142.15 C 20.87 144.40 23.78 147.17 25.63 150.67 L 26.73 150.68 C 25.61 150.95 24.51 151.26 23.40 151.56 C 22.83 147.03 18.14 145.08 15.33 142.08 Z" />
</g>
</svg>
