<?xml version="1.0" encoding="UTF-8" ?>
<!DOCTYPE svg PUBLIC "-//W3C//DTD SVG 1.1//EN" "http://www.w3.org/Graphics/SVG/1.1/DTD/svg11.dtd">
<svg width="317pt" height="250pt" viewBox="0 0 317 250" version="1.1" xmlns="http://www.w3.org/2000/svg">
<g id="#ffffffff">
<path fill="#FFFFFF" opacity="1.00" d=" M 0.00 0.00 L 317.00 0.00 L 317.00 250.00 L 0.00 250.00 L 0.00 0.00 M 249.59 8.85 C 244.80 10.26 241.83 14.87 237.01 16.19 C 232.44 17.47 230.73 22.36 227.45 25.31 C 225.19 27.37 223.45 29.93 222.48 32.84 C 220.25 33.88 217.68 34.67 216.50 37.05 C 218.18 36.67 219.86 36.26 221.46 35.59 C 224.88 34.57 224.92 30.27 227.32 28.09 C 229.57 26.08 231.67 23.93 233.36 21.42 C 235.82 17.68 241.01 18.14 243.93 14.93 C 247.63 11.23 253.01 9.90 258.13 10.54 C 248.63 14.46 240.25 21.17 234.85 29.96 C 239.06 29.89 240.25 25.37 242.82 22.89 C 247.87 17.77 254.10 13.80 260.87 11.38 C 263.57 11.87 266.28 12.38 269.05 12.33 C 272.70 12.07 275.17 15.21 277.23 17.76 C 281.54 23.22 279.99 33.23 272.51 34.97 C 270.16 37.42 268.40 40.46 265.98 42.91 C 265.98 40.82 265.86 38.73 265.54 36.67 C 266.85 31.29 270.82 27.34 274.76 23.78 C 269.28 23.58 267.40 29.07 264.93 32.84 C 262.23 36.55 264.63 41.51 262.41 45.39 C 260.87 48.47 259.13 51.45 257.18 54.28 C 257.52 52.01 258.11 49.58 256.72 47.51 C 255.30 54.74 253.63 62.36 255.43 69.68 C 255.95 73.03 255.89 76.46 255.42 79.81 C 254.72 84.03 254.95 88.36 253.94 92.54 C 252.96 96.80 253.67 101.25 252.60 105.48 C 249.85 113.77 246.46 122.02 245.84 130.81 C 245.46 133.39 242.06 133.59 240.40 135.14 C 245.93 139.17 249.92 144.91 255.57 148.82 C 254.04 152.77 252.09 156.67 251.76 160.96 C 251.20 168.44 252.83 176.42 257.73 182.29 C 261.65 187.70 268.52 190.31 275.04 190.19 C 280.60 189.74 284.88 185.76 287.94 181.41 C 289.98 185.84 294.96 180.42 293.39 177.49 C 286.80 172.17 280.27 166.75 273.80 161.27 C 272.20 162.85 268.57 165.37 271.20 167.69 C 276.22 172.18 281.38 176.53 286.79 180.55 C 286.45 181.01 285.77 181.92 285.43 182.38 C 281.39 185.09 277.01 188.55 271.81 187.57 C 266.21 186.50 260.20 183.86 257.64 178.42 C 253.03 170.49 253.05 160.46 256.56 152.12 C 258.90 146.42 263.82 141.51 270.04 140.40 C 274.05 140.25 278.33 140.64 281.81 142.80 C 287.19 147.30 291.04 153.86 291.37 160.98 C 291.68 164.71 290.59 168.35 290.60 172.08 C 291.07 172.21 292.00 172.47 292.47 172.60 C 294.52 163.98 293.71 154.12 288.21 146.88 C 286.33 144.27 283.20 143.16 280.71 141.28 C 277.84 137.73 272.93 138.57 268.91 138.55 C 263.33 138.59 259.58 143.36 256.16 147.14 C 253.84 144.68 251.20 142.55 248.86 140.11 C 247.96 139.00 246.50 137.81 247.19 136.24 C 247.76 135.68 248.89 134.57 249.46 134.01 C 250.58 134.63 251.69 135.29 252.77 135.99 C 255.38 136.40 257.90 137.23 260.51 137.66 C 259.39 137.09 258.16 136.81 256.96 136.51 C 255.61 135.64 254.24 134.72 252.60 134.52 C 252.66 134.03 252.80 133.05 252.87 132.56 C 250.04 131.99 247.86 133.40 246.00 135.33 C 243.42 136.95 247.10 132.18 247.50 131.35 C 252.43 129.15 254.88 124.15 258.55 120.49 C 262.93 115.91 264.10 108.93 262.07 103.01 C 260.17 97.40 261.42 91.45 260.36 85.73 C 259.91 83.03 260.68 80.12 259.30 77.60 C 257.80 74.64 258.03 71.22 257.35 68.05 C 258.68 66.20 260.05 64.26 260.28 61.92 C 260.92 57.23 264.25 53.57 265.45 49.06 C 264.96 48.51 264.45 47.98 263.94 47.46 L 262.84 49.61 C 262.27 47.73 264.19 46.79 265.16 45.61 C 265.75 46.21 266.35 46.80 266.96 47.37 C 268.95 45.15 271.70 47.35 273.73 48.28 C 278.09 51.31 282.42 56.09 281.81 61.79 C 277.39 63.42 272.46 66.78 272.42 72.03 C 271.54 78.84 275.80 85.13 274.70 91.94 C 273.73 98.93 272.26 105.98 273.13 113.06 C 273.98 118.37 276.86 123.39 276.10 128.90 C 274.51 131.80 270.93 132.19 268.10 133.16 C 264.99 133.96 263.09 136.71 260.55 138.44 C 257.82 140.16 254.42 139.51 251.37 139.86 C 251.59 140.32 252.02 141.23 252.24 141.69 C 257.15 142.31 261.73 140.44 265.87 138.00 C 266.13 137.46 266.66 136.39 266.92 135.85 C 270.76 134.30 275.47 133.48 277.85 129.68 C 278.60 125.65 276.51 121.79 275.71 117.91 C 272.75 106.14 278.83 94.11 275.44 82.40 C 274.49 78.34 273.18 73.94 274.73 69.85 C 275.39 67.84 277.27 66.67 278.76 65.32 C 279.31 65.41 280.42 65.59 280.97 65.68 C 283.97 63.74 285.65 60.37 287.24 57.27 C 289.49 52.74 292.68 48.36 292.59 43.08 C 293.85 37.15 295.57 30.35 292.10 24.83 C 288.95 18.21 281.87 15.02 275.57 12.12 C 271.74 9.54 266.96 10.94 262.84 9.32 C 258.57 7.89 253.94 7.85 249.59 8.85 M 250.00 30.17 C 252.75 27.09 253.54 23.00 253.40 18.99 C 251.65 22.50 250.85 26.37 250.00 30.17 M 261.97 28.08 C 264.71 26.92 266.90 24.84 267.87 22.00 C 264.89 22.76 263.41 25.64 261.97 28.08 M 239.97 35.82 C 244.46 34.75 249.32 34.30 253.30 31.78 C 255.38 33.85 254.21 37.07 254.40 39.69 C 253.77 41.01 252.36 42.35 253.38 43.87 C 256.23 42.92 258.01 39.91 257.96 36.98 C 257.29 34.30 255.38 32.18 254.24 29.71 C 249.81 32.61 243.40 31.37 239.97 35.82 M 203.22 34.95 C 201.85 36.32 200.44 37.64 199.12 39.05 C 194.62 43.54 194.50 50.76 196.15 56.52 C 197.92 62.34 204.49 63.81 209.43 65.86 C 208.40 70.26 207.53 74.73 205.69 78.89 C 203.36 85.71 207.77 93.00 204.74 99.73 C 202.88 101.67 200.65 103.20 198.72 105.06 C 193.67 100.48 188.00 96.58 183.31 91.61 C 183.58 90.87 184.10 90.37 184.87 90.11 C 189.92 93.71 194.21 98.30 199.32 101.83 C 199.96 101.94 201.23 102.18 201.86 102.30 C 196.82 96.67 190.43 92.40 184.78 87.38 C 183.15 88.90 179.85 91.23 182.37 93.53 C 186.97 98.00 191.92 102.22 197.24 105.81 C 197.14 107.70 196.37 109.83 197.54 111.55 C 199.46 115.13 201.93 118.80 205.92 120.25 C 208.09 120.34 209.68 118.76 211.31 117.59 C 215.95 122.42 221.26 126.61 226.54 130.75 C 226.21 136.56 231.84 139.11 235.66 142.22 C 238.84 144.16 241.68 141.32 243.81 139.24 C 242.71 138.48 241.62 137.71 240.53 136.95 C 238.58 137.69 238.02 139.09 239.33 141.15 C 235.83 140.34 233.18 137.79 230.50 135.58 C 228.33 133.74 228.74 130.65 228.65 128.12 C 231.85 126.15 236.26 125.45 238.13 121.87 C 239.66 119.44 240.39 116.53 239.92 113.67 C 243.07 110.02 247.75 104.90 245.20 99.87 C 246.98 97.48 249.76 95.14 248.85 91.82 C 246.84 95.55 244.00 98.75 242.12 102.55 C 242.76 102.44 244.04 102.23 244.68 102.12 C 243.61 105.82 241.69 109.17 239.59 112.36 C 239.69 106.95 239.02 101.47 240.00 96.10 C 240.55 93.20 242.91 90.35 241.48 87.35 C 239.53 82.76 240.33 77.71 240.37 72.88 C 242.08 72.83 243.37 72.31 242.27 70.59 C 239.10 65.39 235.35 60.07 235.48 53.67 C 235.79 53.23 236.43 52.34 236.74 51.90 C 234.96 51.12 233.24 49.22 231.15 50.05 C 228.49 51.22 226.45 53.43 224.73 55.71 C 222.92 58.79 222.68 62.95 219.11 64.71 C 211.71 64.34 203.53 62.56 198.78 56.38 C 196.72 52.81 197.20 48.51 197.84 44.61 C 198.68 40.59 202.29 38.22 205.09 35.60 C 208.75 35.50 212.35 36.18 215.92 36.90 C 215.78 36.39 215.49 35.39 215.35 34.89 C 211.32 34.12 207.22 33.97 203.22 34.95 M 223.00 42.87 C 223.23 43.31 223.69 44.19 223.92 44.63 C 226.00 43.60 228.43 42.62 229.15 40.16 C 227.06 40.98 225.03 41.94 223.00 42.87 M 244.64 51.99 C 242.16 53.65 239.18 55.05 237.83 57.87 C 241.37 56.78 244.26 54.38 247.50 52.66 C 247.87 51.72 248.61 49.84 248.98 48.90 C 248.28 49.33 246.88 50.18 246.19 50.61 C 246.68 46.78 246.33 42.90 245.68 39.11 C 243.48 42.93 244.28 47.77 244.64 51.99 M 266.72 62.08 C 266.65 62.55 266.52 63.49 266.45 63.95 C 270.79 62.34 272.49 57.59 274.35 53.75 C 270.89 55.66 270.02 59.98 266.72 62.08 M 274.24 61.99 C 272.59 63.71 271.24 65.73 270.83 68.12 C 272.69 66.41 274.31 64.45 275.98 62.56 C 275.54 62.42 274.68 62.13 274.24 61.99 M 177.77 67.93 C 174.03 69.32 171.36 72.44 168.89 75.43 C 167.89 74.37 166.89 73.31 165.87 72.27 C 164.27 73.65 162.77 75.17 161.43 76.81 C 163.06 78.25 164.71 79.68 166.44 81.00 C 164.94 86.32 164.68 92.13 166.42 97.41 C 168.67 104.60 175.36 110.36 182.89 111.15 C 186.29 111.41 189.37 109.68 192.19 108.01 C 192.25 107.53 192.35 106.56 192.40 106.07 C 188.99 107.12 185.77 109.59 182.01 108.75 C 178.42 107.95 174.38 107.03 172.04 103.93 C 164.88 94.89 165.69 80.11 174.47 72.41 C 177.68 69.54 182.09 69.38 186.16 69.71 C 193.03 71.54 197.40 78.80 197.86 85.60 C 198.51 84.96 199.15 84.31 199.78 83.66 C 198.91 80.89 197.89 78.12 196.22 75.73 C 194.47 72.85 191.21 71.57 188.65 69.56 C 185.64 67.13 181.37 66.68 177.77 67.93 M 263.48 67.44 C 263.74 70.05 263.66 72.67 263.44 75.28 C 266.51 73.65 266.39 70.29 265.44 67.37 C 264.95 67.39 263.97 67.42 263.48 67.44 M 248.04 71.59 C 248.27 74.00 248.76 76.37 249.04 78.78 C 248.48 79.06 247.35 79.64 246.79 79.93 C 246.49 83.71 245.40 87.89 247.70 91.28 C 248.20 88.20 247.94 85.08 247.82 81.98 C 251.64 79.68 251.39 74.20 248.04 71.59 M 262.82 81.89 C 263.11 83.33 263.38 84.79 264.02 86.13 C 264.60 84.95 265.07 83.72 265.27 82.43 C 264.65 82.29 263.43 82.03 262.82 81.89 M 270.99 99.29 C 271.49 97.97 271.79 96.58 271.50 95.17 C 270.91 91.23 270.77 87.10 268.94 83.48 C 268.61 88.82 270.41 94.02 270.99 99.29 M 198.36 85.46 C 198.54 88.88 198.02 92.26 197.51 95.63 L 199.48 95.79 C 199.89 92.59 200.18 89.39 200.45 86.18 C 199.93 86.00 198.89 85.64 198.36 85.46 M 263.58 94.96 C 264.04 99.49 264.45 104.17 266.58 108.28 C 265.67 102.10 265.00 95.89 265.25 89.63 C 263.63 90.92 263.38 93.03 263.58 94.96 M 263.41 126.09 C 264.78 123.88 266.34 121.78 267.58 119.49 L 266.78 118.79 C 264.26 120.22 263.01 123.28 263.41 126.09 M 242.18 142.99 C 245.56 146.93 249.99 149.77 253.35 153.72 C 253.27 152.53 253.20 151.35 253.15 150.16 C 249.50 147.64 246.61 144.22 243.05 141.61 C 242.83 141.96 242.40 142.64 242.18 142.99 Z" />
<path fill="#FFFFFF" opacity="1.00" d=" M 277.45 14.78 C 282.19 17.86 288.15 19.97 290.51 25.60 C 294.09 31.31 291.26 37.90 290.36 43.92 C 290.15 49.21 286.37 53.23 284.37 57.87 C 281.44 50.61 274.31 43.20 265.83 44.78 C 269.18 42.88 271.58 39.84 273.43 36.52 C 278.91 34.47 282.64 28.34 281.36 22.53 C 280.95 19.56 278.93 17.26 277.45 14.78 Z" />
<path fill="#FFFFFF" opacity="1.00" d=" M 223.20 64.26 C 225.22 59.04 227.36 51.55 234.33 51.80 C 233.94 54.84 232.90 58.02 234.07 61.01 C 235.18 64.56 237.35 67.64 239.45 70.66 C 237.67 77.05 238.39 83.84 240.47 90.07 C 235.33 100.11 238.02 111.87 235.78 122.52 C 233.82 123.45 231.90 124.46 230.03 125.55 C 225.98 121.25 221.23 117.67 216.50 114.18 C 216.51 111.75 216.49 109.32 216.59 106.90 C 216.09 106.24 215.59 105.59 215.09 104.94 C 215.80 101.70 216.30 98.42 216.43 95.10 C 216.67 91.51 219.05 88.60 220.14 85.28 C 220.78 81.86 220.86 78.32 220.29 74.89 C 221.46 71.43 224.11 68.10 223.20 64.26 Z" />
<path fill="#FFFFFF" opacity="1.00" d=" M 257.03 56.61 C 258.37 55.58 259.67 54.49 260.94 53.36 C 259.77 55.58 258.48 57.79 257.97 60.27 C 257.51 62.41 257.79 64.85 256.15 66.55 C 256.31 63.22 256.81 59.93 257.03 56.61 Z" />
<path fill="#FFFFFF" opacity="1.00" d=" M 210.51 66.38 C 214.52 67.31 218.62 66.56 222.48 65.32 C 221.62 67.75 220.64 70.12 219.70 72.52 C 218.06 76.43 219.74 80.82 218.43 84.82 C 217.27 88.28 215.19 91.46 214.73 95.15 C 214.31 98.48 213.77 101.79 213.09 105.07 C 213.56 107.11 214.46 109.01 215.01 111.02 C 212.22 111.23 210.43 113.35 209.13 115.59 C 210.63 115.53 211.83 114.68 212.97 113.80 C 213.60 113.98 214.85 114.34 215.48 114.52 C 219.17 119.70 225.08 122.66 229.01 127.59 C 228.37 128.14 227.71 128.68 227.06 129.22 C 222.56 124.43 217.21 120.51 212.20 116.27 C 210.45 118.51 207.36 118.14 204.99 117.28 C 202.12 116.10 200.84 113.10 199.04 110.80 C 199.02 109.69 199.01 108.58 199.00 107.47 C 201.69 105.34 204.32 103.12 206.87 100.83 C 208.30 94.93 207.57 88.84 206.78 82.91 C 206.24 79.53 207.99 76.43 209.55 73.59 C 210.85 71.42 210.36 68.78 210.51 66.38 Z" />
<path fill="#FFFFFF" opacity="1.00" d=" M 163.83 76.06 C 165.10 74.67 166.99 75.70 168.55 75.74 C 168.04 77.11 167.53 78.47 167.01 79.83 C 165.90 78.62 164.64 77.51 163.83 76.06 Z" />
<path fill="#FFFFFF" opacity="1.00" d=" M 257.13 79.27 L 258.08 79.35 C 257.68 84.93 259.06 90.43 258.78 96.02 C 259.55 101.70 259.10 107.48 260.13 113.14 C 260.20 117.64 255.47 119.86 253.50 123.43 C 252.13 126.04 249.74 127.73 247.20 129.07 C 249.59 121.04 251.82 112.98 254.63 105.10 C 255.24 96.47 256.54 87.90 257.13 79.27 Z" />
<path fill="#FFFFFF" opacity="1.00" d=" M 271.87 165.08 C 272.39 164.85 273.43 164.41 273.95 164.19 C 279.39 168.33 284.23 173.25 289.99 176.98 C 289.55 177.58 288.66 178.79 288.21 179.39 C 282.79 174.60 276.73 170.44 271.87 165.08 Z" />
</g>
<g id="#4d4e4dff">
<path fill="#333333" opacity="1.00" d=" M 249.59 8.85 C 253.94 7.85 258.57 7.89 262.84 9.32 C 266.96 10.94 271.74 9.54 275.57 12.12 C 281.87 15.02 288.95 18.21 292.10 24.83 C 295.57 30.35 293.85 37.15 292.59 43.08 C 292.68 48.36 289.49 52.74 287.24 57.27 C 285.65 60.37 283.97 63.74 280.97 65.68 C 280.42 65.59 279.31 65.41 278.76 65.32 C 277.27 66.67 275.39 67.84 274.73 69.85 C 273.18 73.94 274.49 78.34 275.44 82.40 C 278.83 94.11 272.75 106.14 275.71 117.91 C 276.51 121.79 278.60 125.65 277.85 129.68 C 275.47 133.48 270.76 134.30 266.92 135.85 C 266.66 136.39 266.13 137.46 265.87 138.00 C 261.73 140.44 257.15 142.31 252.24 141.69 C 252.02 141.23 251.59 140.32 251.37 139.86 C 254.42 139.51 257.82 140.16 260.55 138.44 C 263.09 136.71 264.99 133.96 268.10 133.16 C 270.93 132.19 274.51 131.80 276.10 128.90 C 276.86 123.39 273.98 118.37 273.13 113.06 C 272.26 105.98 273.73 98.93 274.70 91.94 C 275.80 85.13 271.54 78.84 272.42 72.03 C 272.46 66.78 277.39 63.42 281.81 61.79 C 282.42 56.09 278.09 51.31 273.73 48.28 C 271.70 47.35 268.95 45.15 266.96 47.37 C 266.35 46.80 265.75 46.21 265.16 45.61 C 264.19 46.79 262.27 47.73 262.84 49.61 L 263.94 47.46 C 264.45 47.98 264.96 48.51 265.45 49.06 C 264.25 53.57 260.92 57.23 260.28 61.92 C 260.05 64.26 258.68 66.20 257.35 68.05 C 258.03 71.22 257.80 74.64 259.30 77.60 C 260.68 80.12 259.91 83.03 260.36 85.73 C 261.42 91.45 260.17 97.40 262.07 103.01 C 264.10 108.93 262.93 115.91 258.55 120.49 C 254.88 124.15 252.43 129.15 247.50 131.35 C 247.10 132.18 243.42 136.95 246.00 135.33 C 247.86 133.40 250.04 131.99 252.87 132.56 C 252.80 133.05 252.66 134.03 252.60 134.52 C 254.24 134.72 255.61 135.64 256.96 136.51 C 258.16 136.81 259.39 137.09 260.51 137.66 C 257.90 137.23 255.38 136.40 252.77 135.99 C 251.69 135.29 250.58 134.63 249.46 134.01 C 248.89 134.57 247.76 135.68 247.19 136.24 C 246.50 137.81 247.96 139.00 248.86 140.11 C 251.20 142.55 253.84 144.68 256.16 147.14 C 259.58 143.36 263.33 138.59 268.91 138.55 C 272.93 138.57 277.84 137.73 280.71 141.28 C 283.20 143.16 286.33 144.27 288.21 146.88 C 293.71 154.12 294.52 163.98 292.47 172.60 C 292.00 172.47 291.07 172.21 290.60 172.08 C 290.59 168.35 291.68 164.71 291.37 160.98 C 291.04 153.86 287.19 147.30 281.81 142.80 C 278.33 140.64 274.05 140.25 270.04 140.40 C 263.82 141.51 258.90 146.42 256.56 152.12 C 253.05 160.46 253.03 170.49 257.64 178.42 C 260.20 183.86 266.21 186.50 271.81 187.57 C 277.01 188.55 281.39 185.09 285.43 182.38 C 285.77 181.92 286.45 181.01 286.79 180.55 C 281.38 176.53 276.22 172.18 271.20 167.69 C 268.57 165.37 272.20 162.85 273.80 161.27 C 280.27 166.75 286.80 172.17 293.39 177.49 C 294.96 180.42 289.98 185.84 287.94 181.41 C 284.88 185.76 280.60 189.74 275.04 190.19 C 268.52 190.31 261.65 187.70 257.73 182.29 C 252.83 176.42 251.20 168.44 251.76 160.96 C 252.09 156.67 254.04 152.77 255.57 148.82 C 249.92 144.91 245.93 139.17 240.40 135.14 C 242.06 133.59 245.46 133.39 245.84 130.81 C 246.46 122.02 249.85 113.77 252.60 105.48 C 253.67 101.25 252.96 96.80 253.94 92.54 C 254.95 88.36 254.72 84.03 255.42 79.81 C 255.89 76.46 255.95 73.03 255.43 69.68 C 253.63 62.36 255.30 54.74 256.72 47.51 C 258.11 49.58 257.52 52.01 257.18 54.28 C 259.13 51.45 260.87 48.47 262.41 45.39 C 264.63 41.51 262.23 36.55 264.93 32.84 C 267.40 29.07 269.28 23.58 274.76 23.78 C 270.82 27.34 266.85 31.29 265.54 36.67 C 265.86 38.73 265.98 40.82 265.98 42.91 C 268.40 40.46 270.16 37.42 272.51 34.97 C 279.99 33.23 281.54 23.22 277.23 17.76 C 275.17 15.21 272.70 12.07 269.05 12.33 C 266.28 12.38 263.57 11.87 260.87 11.38 C 254.10 13.80 247.87 17.77 242.82 22.89 C 240.25 25.37 239.06 29.89 234.85 29.96 C 240.25 21.17 248.63 14.46 258.13 10.54 C 253.01 9.90 247.63 11.23 243.93 14.93 C 241.01 18.14 235.82 17.68 233.36 21.42 C 231.67 23.93 229.57 26.08 227.32 28.09 C 224.92 30.27 224.88 34.57 221.46 35.59 C 219.86 36.26 218.18 36.67 216.50 37.05 C 217.68 34.67 220.25 33.88 222.48 32.84 C 223.45 29.93 225.19 27.37 227.45 25.31 C 230.73 22.36 232.44 17.47 237.01 16.19 C 241.83 14.87 244.80 10.26 249.59 8.85 M 277.45 14.78 C 278.93 17.26 280.95 19.56 281.36 22.53 C 282.64 28.34 278.91 34.47 273.43 36.52 C 271.58 39.84 269.18 42.88 265.83 44.78 C 274.31 43.20 281.44 50.61 284.37 57.87 C 286.37 53.23 290.15 49.21 290.36 43.92 C 291.26 37.90 294.09 31.31 290.51 25.60 C 288.15 19.97 282.19 17.86 277.45 14.78 M 257.03 56.61 C 256.81 59.93 256.31 63.22 256.15 66.55 C 257.79 64.85 257.51 62.41 257.97 60.27 C 258.48 57.79 259.77 55.58 260.94 53.36 C 259.67 54.49 258.37 55.58 257.03 56.61 M 257.13 79.27 C 256.54 87.90 255.24 96.47 254.63 105.10 C 251.82 112.98 249.59 121.04 247.20 129.07 C 249.74 127.73 252.13 126.04 253.50 123.43 C 255.47 119.86 260.20 117.64 260.13 113.14 C 259.10 107.48 259.55 101.70 258.78 96.02 C 259.06 90.43 257.68 84.93 258.08 79.35 L 257.13 79.27 M 271.87 165.08 C 276.73 170.44 282.79 174.60 288.21 179.39 C 288.66 178.79 289.55 177.58 289.99 176.98 C 284.23 173.25 279.39 168.33 273.95 164.19 C 273.43 164.41 272.39 164.85 271.87 165.08 Z" />
<path fill="#333333" opacity="1.00" d=" M 250.00 30.17 C 250.85 26.37 251.65 22.50 253.40 18.99 C 253.54 23.00 252.75 27.09 250.00 30.17 Z" />
<path fill="#333333" opacity="1.00" d=" M 261.97 28.08 C 263.41 25.64 264.89 22.76 267.87 22.00 C 266.90 24.84 264.71 26.92 261.97 28.08 Z" />
<path fill="#333333" opacity="1.00" d=" M 239.97 35.82 C 243.40 31.37 249.81 32.61 254.24 29.71 C 255.38 32.18 257.29 34.30 257.96 36.98 C 258.01 39.91 256.23 42.92 253.38 43.87 C 252.36 42.35 253.77 41.01 254.40 39.69 C 254.21 37.07 255.38 33.85 253.30 31.78 C 249.32 34.30 244.46 34.75 239.97 35.82 Z" />
<path fill="#333333" opacity="1.00" d=" M 203.22 34.95 C 207.22 33.97 211.32 34.12 215.35 34.89 C 215.49 35.39 215.78 36.39 215.92 36.90 C 212.35 36.18 208.75 35.50 205.09 35.60 C 202.29 38.22 198.68 40.59 197.84 44.61 C 197.20 48.51 196.72 52.81 198.78 56.38 C 203.53 62.56 211.71 64.34 219.11 64.71 C 222.68 62.95 222.92 58.79 224.73 55.71 C 226.45 53.43 228.49 51.22 231.15 50.05 C 233.24 49.22 234.96 51.12 236.74 51.90 C 236.43 52.34 235.79 53.23 235.48 53.67 C 235.35 60.07 239.10 65.39 242.27 70.59 C 243.37 72.31 242.08 72.83 240.37 72.88 C 240.33 77.71 239.53 82.76 241.48 87.35 C 242.91 90.35 240.55 93.20 240.00 96.10 C 239.02 101.47 239.69 106.95 239.59 112.36 C 241.69 109.17 243.61 105.82 244.68 102.12 C 244.04 102.23 242.76 102.44 242.12 102.55 C 244.00 98.75 246.84 95.55 248.85 91.82 C 249.76 95.14 246.98 97.48 245.20 99.87 C 247.75 104.90 243.07 110.02 239.92 113.67 C 240.39 116.53 239.66 119.44 238.13 121.87 C 236.26 125.45 231.85 126.15 228.65 128.12 C 228.74 130.65 228.33 133.74 230.50 135.58 C 233.18 137.79 235.83 140.34 239.33 141.15 C 238.02 139.09 238.58 137.69 240.53 136.95 C 241.62 137.71 242.71 138.48 243.81 139.24 C 241.68 141.32 238.84 144.16 235.66 142.22 C 231.84 139.11 226.21 136.56 226.54 130.75 C 221.26 126.61 215.95 122.42 211.31 117.59 C 209.68 118.76 208.09 120.34 205.92 120.25 C 201.93 118.80 199.46 115.13 197.54 111.55 C 196.37 109.83 197.14 107.70 197.24 105.81 C 191.92 102.22 186.97 98.00 182.37 93.53 C 179.85 91.23 183.15 88.90 184.78 87.38 C 190.43 92.40 196.82 96.67 201.86 102.30 C 201.23 102.18 199.96 101.94 199.32 101.83 C 194.21 98.30 189.92 93.71 184.87 90.11 C 184.10 90.37 183.58 90.87 183.31 91.61 C 188.00 96.58 193.67 100.48 198.72 105.06 C 200.65 103.20 202.88 101.67 204.74 99.73 C 207.77 93.00 203.36 85.71 205.69 78.89 C 207.53 74.73 208.40 70.26 209.43 65.86 C 204.49 63.81 197.92 62.34 196.15 56.52 C 194.50 50.76 194.62 43.54 199.12 39.05 C 200.44 37.64 201.85 36.32 203.22 34.95 M 223.20 64.26 C 224.11 68.10 221.46 71.43 220.29 74.89 C 220.86 78.32 220.78 81.86 220.14 85.28 C 219.05 88.60 216.67 91.51 216.43 95.10 C 216.30 98.42 215.80 101.70 215.09 104.94 C 215.59 105.59 216.09 106.24 216.59 106.90 C 216.49 109.32 216.51 111.75 216.50 114.18 C 221.23 117.67 225.98 121.25 230.03 125.55 C 231.90 124.46 233.82 123.45 235.78 122.52 C 238.02 111.87 235.33 100.11 240.47 90.07 C 238.39 83.84 237.67 77.05 239.45 70.66 C 237.35 67.64 235.18 64.56 234.07 61.01 C 232.90 58.02 233.94 54.84 234.33 51.80 C 227.36 51.55 225.22 59.04 223.20 64.26 M 210.51 66.38 C 210.36 68.78 210.85 71.42 209.55 73.59 C 207.99 76.43 206.24 79.53 206.78 82.91 C 207.57 88.84 208.30 94.93 206.87 100.83 C 204.32 103.12 201.69 105.34 199.00 107.47 C 199.01 108.58 199.02 109.69 199.04 110.80 C 200.84 113.10 202.12 116.10 204.99 117.28 C 207.36 118.14 210.45 118.51 212.20 116.27 C 217.21 120.51 222.56 124.43 227.06 129.22 C 227.71 128.68 228.37 128.14 229.01 127.59 C 225.08 122.66 219.17 119.70 215.48 114.52 C 214.85 114.34 213.60 113.98 212.97 113.80 C 211.83 114.68 210.63 115.53 209.13 115.59 C 210.43 113.35 212.22 111.23 215.01 111.02 C 214.46 109.01 213.56 107.11 213.09 105.07 C 213.77 101.79 214.31 98.48 214.73 95.15 C 215.19 91.46 217.27 88.28 218.43 84.82 C 219.74 80.82 218.06 76.43 219.70 72.52 C 220.64 70.12 221.62 67.75 222.48 65.32 C 218.62 66.56 214.52 67.31 210.51 66.38 Z" />
<path fill="#333333" opacity="1.00" d=" M 223.00 42.87 C 225.03 41.94 227.06 40.98 229.15 40.16 C 228.43 42.62 226.00 43.60 223.92 44.63 C 223.69 44.19 223.23 43.31 223.00 42.87 Z" />
<path fill="#333333" opacity="1.00" d=" M 244.64 51.99 C 244.28 47.77 243.48 42.93 245.68 39.11 C 246.33 42.90 246.68 46.78 246.19 50.61 C 246.88 50.18 248.28 49.33 248.98 48.90 C 248.61 49.84 247.87 51.72 247.50 52.66 C 244.26 54.38 241.37 56.78 237.83 57.87 C 239.18 55.05 242.16 53.65 244.64 51.99 Z" />
<path fill="#333333" opacity="1.00" d=" M 266.72 62.08 C 270.02 59.98 270.89 55.66 274.35 53.75 C 272.49 57.59 270.79 62.34 266.45 63.95 C 266.52 63.49 266.65 62.55 266.72 62.08 Z" />
<path fill="#333333" opacity="1.00" d=" M 274.24 61.99 C 274.68 62.13 275.54 62.42 275.98 62.56 C 274.31 64.45 272.69 66.41 270.83 68.12 C 271.24 65.73 272.59 63.71 274.24 61.99 Z" />
<path fill="#333333" opacity="1.00" d=" M 177.77 67.93 C 181.37 66.68 185.64 67.13 188.65 69.56 C 191.21 71.57 194.47 72.85 196.22 75.73 C 197.89 78.12 198.91 80.89 199.78 83.66 C 199.15 84.31 198.51 84.96 197.86 85.60 C 197.40 78.80 193.03 71.54 186.16 69.71 C 182.09 69.38 177.68 69.54 174.47 72.41 C 165.69 80.11 164.88 94.89 172.04 103.93 C 174.38 107.03 178.42 107.95 182.01 108.75 C 185.77 109.59 188.99 107.12 192.40 106.07 C 192.35 106.56 192.25 107.53 192.19 108.01 C 189.37 109.68 186.29 111.41 182.89 111.15 C 175.36 110.36 168.67 104.60 166.42 97.41 C 164.68 92.13 164.94 86.32 166.44 81.00 C 164.71 79.68 163.06 78.25 161.43 76.81 C 162.77 75.17 164.27 73.65 165.87 72.27 C 166.89 73.31 167.89 74.37 168.89 75.43 C 171.36 72.44 174.03 69.32 177.77 67.93 M 163.83 76.06 C 164.64 77.51 165.90 78.62 167.01 79.83 C 167.53 78.47 168.04 77.11 168.55 75.74 C 166.99 75.70 165.10 74.67 163.83 76.06 Z" />
<path fill="#333333" opacity="1.00" d=" M 263.48 67.44 C 263.97 67.42 264.95 67.39 265.44 67.37 C 266.39 70.29 266.51 73.65 263.44 75.28 C 263.66 72.67 263.74 70.05 263.48 67.44 Z" />
<path fill="#333333" opacity="1.00" d=" M 248.04 71.59 C 251.39 74.20 251.64 79.68 247.82 81.98 C 247.94 85.08 248.20 88.20 247.70 91.28 C 245.40 87.89 246.49 83.71 246.79 79.93 C 247.35 79.64 248.48 79.06 249.04 78.78 C 248.76 76.37 248.27 74.00 248.04 71.59 Z" />
<path fill="#333333" opacity="1.00" d=" M 262.82 81.89 C 263.43 82.03 264.65 82.29 265.27 82.43 C 265.07 83.72 264.60 84.95 264.02 86.13 C 263.38 84.79 263.11 83.33 262.82 81.89 Z" />
<path fill="#333333" opacity="1.00" d=" M 270.99 99.29 C 270.41 94.02 268.61 88.82 268.94 83.48 C 270.77 87.10 270.91 91.23 271.50 95.17 C 271.79 96.58 271.49 97.97 270.99 99.29 Z" />
<path fill="#333333" opacity="1.00" d=" M 198.36 85.46 C 198.89 85.64 199.93 86.00 200.45 86.18 C 200.18 89.39 199.89 92.59 199.48 95.79 L 197.51 95.63 C 198.02 92.26 198.54 88.88 198.36 85.46 Z" />
<path fill="#333333" opacity="1.00" d=" M 263.58 94.96 C 263.38 93.03 263.63 90.92 265.25 89.63 C 265.00 95.89 265.67 102.10 266.58 108.28 C 264.45 104.17 264.04 99.49 263.58 94.96 Z" />
<path fill="#333333" opacity="1.00" d=" M 263.41 126.09 C 263.01 123.28 264.26 120.22 266.78 118.79 L 267.58 119.49 C 266.34 121.78 264.78 123.88 263.41 126.09 Z" />
<path fill="#333333" opacity="1.00" d=" M 242.18 142.99 C 242.40 142.64 242.83 141.96 243.05 141.61 C 246.61 144.22 249.50 147.64 253.15 150.16 C 253.20 151.35 253.27 152.53 253.35 153.72 C 249.99 149.77 245.56 146.93 242.18 142.99 Z" />
</g>
</svg>
